<svg id="Слой_1" data-name="Слой 1" xmlns="http://www.w3.org/2000/svg" xmlns:xlink="http://www.w3.org/1999/xlink" viewBox="0 0 388.96 328.28"><defs><style>.cls-1{fill:none;}.cls-2{fill:#57575c;}.cls-3{fill:#fec519;}.cls-4{fill:#c27447;}.cls-5{fill:#303134;}.cls-6{fill:#9e694c;}.cls-7{fill:#4f6ddb;}.cls-8{fill:#eb6c18;}.cls-9{fill:#cc7a4b;}.cls-10{clip-path:url(#clip-path);}.cls-11{fill:#4762c4;}.cls-12{fill:#fec2a0;}.cls-13{fill:#f99979;}.cls-14{fill:#029d41;}.cls-15{fill:#ff9c1a;}.cls-16{fill:#555559;}.cls-17{clip-path:url(#clip-path-2);}.cls-18{fill:#49494d;}.cls-19{fill:#f4706b;}.cls-20{fill:#f6eeca;}</style><clipPath id="clip-path" transform="translate(-19.63 -35.65)"><path class="cls-1" d="M355.74,45c-4.32-7.91-19-7.37-25.19-7.65-7.32-.33-13.69-3.56-13.69,4.49A42.36,42.36,0,0,0,320,56.92a19.33,19.33,0,0,1,1.55-8.11c.39-1.17,2.37.87,5.76,1s7.43-.23,7.56.43l2.76,9.59a3.77,3.77,0,0,0,3,2.67h0s-.13-8,5.87-7.7,5.61,10-1.17,12A36,36,0,0,0,347.91,74S360.06,52.87,355.74,45Z"/></clipPath><clipPath id="clip-path-2" transform="translate(-19.63 -35.65)"><path class="cls-2" d="M95.16,68.94a15.26,15.26,0,0,1,.3-4.31c.64-2.1.22-8.3-3.67-10.18S81.7,54,79.91,61.38,75,69.88,75,69.88s.16-8.19-6-7.88-5.77,10.4,1.26,12.28a18.06,18.06,0,0,1-2.63,7.21c-3.7-10.32-10.15-8.18-12.93-15.43-2.12-5.53-.61-14.2,7.24-17.84,5.64-10.29,27.6-9.9,38.62,1-3.78,4.58-2.88,8.78-3.43,13.12C96.63,66.24,96.51,67.56,95.16,68.94Z"/></clipPath></defs><title>Balanced Perspectives</title><path class="cls-3" d="M310.77,153.88l0,.31a9.63,9.63,0,0,0,7.63,10.89c5.28,1.06,28,5.89,45.26,9.54,28.38,6,11.5-25.48,23.62-60.1,2.84-8.12-.1-16.5-7.8-19.24-5.22-1.83-25-11.11-27.22-14.24L344.65,93.3a5,5,0,0,1-8.61-.39c-1.7-3.26-3.65-6.66-5.22-8.22a.28.28,0,0,1-.26.26c-3,4-26.73,13.68-28.56,19.94C300.69,109.46,296.63,134.19,310.77,153.88Z" transform="translate(-19.63 -35.65)"/><path class="cls-4" d="M331.34,77.64c.65,1.7,2.09,3.52-.52,7.31a45.88,45.88,0,0,1,5.35,8.48,4.84,4.84,0,0,0,8.35.39L354.18,83A23.39,23.39,0,0,1,351,79.47a43,43,0,0,1-5.61-12.53c3-.78,6-3,6.53-5.48.65-3-.91-7.83-4.31-8.09-6-.26-7.31.26-9-6.92s-18.66,1-18.66,1-.52,7.83.13,9.92a10.12,10.12,0,0,1,.65,3.92,46.22,46.22,0,0,1-.26,6.13C320.11,70.73,323.77,79.34,331.34,77.64Z" transform="translate(-19.63 -35.65)"/><ellipse class="cls-5" cx="310.92" cy="25.42" rx="1.04" ry="2.09"/><ellipse class="cls-5" cx="302.44" cy="25.16" rx="0.91" ry="1.96"/><path class="cls-5" d="M324.37,67.92a1.31,1.31,0,0,1-1.13-.58c-.63-.94-.22-2.76.86-3.75a.29.29,0,1,1,.4.43,2.72,2.72,0,0,0-.76,3c.35.52,1.07.31,1.61.05a.29.29,0,0,1,.25.53A2.87,2.87,0,0,1,324.37,67.92Z" transform="translate(-19.63 -35.65)"/><path class="cls-6" d="M331.34,77.64s3.52-1.17,4.57-4c0,4-3.65,6.53-3.65,6.53Z" transform="translate(-19.63 -35.65)"/><path class="cls-7" d="M355.74,45c-4.32-7.91-19-7.37-25.19-7.65-7.32-.33-13.69-3.56-13.69,4.49A42.36,42.36,0,0,0,320,56.92a19.33,19.33,0,0,1,1.55-8.11c.39-1.17,2.37.87,5.76,1s7.43-.23,7.56.43l2.76,9.59a3.77,3.77,0,0,0,3,2.67h0s-.13-8,5.87-7.7,5.61,10-1.17,12A36,36,0,0,0,347.91,74S360.06,52.87,355.74,45Z" transform="translate(-19.63 -35.65)"/><path class="cls-5" d="M326.21,72.71a5.26,5.26,0,0,1-2-.41.29.29,0,0,1,.25-.53c.13.06,3.1,1.4,4.59-1.46a.29.29,0,0,1,.52.27A3.61,3.61,0,0,1,326.21,72.71Z" transform="translate(-19.63 -35.65)"/><path class="cls-5" d="M328.4,57.21a.29.29,0,0,1-.16-.54c.11-.07,2.64-1.73,4.83-.27a.29.29,0,0,1-.33.49c-1.86-1.24-4.16.26-4.18.27A.29.29,0,0,1,328.4,57.21Z" transform="translate(-19.63 -35.65)"/><path class="cls-5" d="M323.1,56.8a.29.29,0,0,1-.22-.1,1.91,1.91,0,0,0-2-.32.29.29,0,1,1-.18-.56,2.46,2.46,0,0,1,2.63.49.29.29,0,0,1-.22.49Z" transform="translate(-19.63 -35.65)"/><path class="cls-4" d="M310.74,139.8c-1.88-4.84-20.28-36-20.26-38.72s-3.11-6-6.55-9.46-5.31-4-7.72-6.46-3-1.79-3.29-.48,1,3,2.23,4.05,3.55,2.63,3.58,3.21-1.85,1.29-5-.49a11.2,11.2,0,0,1-5.45-5.63c-1.2-2.46-2.12-4.69-3.64-4.37s-.48,1.7-.48,1.7-1-.24-.49,1.31a32.06,32.06,0,0,1,1.24,4.47c.38,1.9.2,2.48.64,3.28s3.09,4.26,4,5.37,3.09,3,3.92,3.92a14.66,14.66,0,0,0,4.16,2.67c1.39.65,5.2.91,5.82,2.42.42,1,10,46.89,17.48,49.69a8.83,8.83,0,0,0,5.6.49C311.71,155.61,314.33,149.18,310.74,139.8Z" transform="translate(-19.63 -35.65)"/><path class="cls-6" d="M267.74,87.32l-.53,0a5.42,5.42,0,0,0-.72-2.51,2.57,2.57,0,0,0-2.32-1.36l0-.53A3.11,3.11,0,0,1,267,84.54,5.8,5.8,0,0,1,267.74,87.32Z" transform="translate(-19.63 -35.65)"/><path class="cls-6" d="M271.29,98.73l-.24-.12-.26,0c0-.12-.4-.79-.79-1.49a55.2,55.2,0,0,1-2.81-5.64c-.24-.65-.49-1.16-.71-1.61-.56-1.16-.92-1.93.16-2.7a1.1,1.1,0,0,1,.93-.17c1.07.28,2.13,2.1,2.83,3.57.14.29.29.65.44,1A9.15,9.15,0,0,0,272.78,95c1.16,1,1.82,1.65,1.85,1.68l-.38.37s-.67-.69-1.81-1.64a9.48,9.48,0,0,1-2.06-3.52c-.15-.37-.3-.72-.43-1-.91-1.91-1.82-3.11-2.49-3.28a.56.56,0,0,0-.5.09c-.7.49-.57.83,0,2,.21.44.47,1,.72,1.66a55.19,55.19,0,0,0,2.78,5.57C271.37,98.56,271.37,98.56,271.29,98.73Z" transform="translate(-19.63 -35.65)"/><path class="cls-6" d="M286.94,100.36a5.47,5.47,0,0,0-5.41-2,1.79,1.79,0,0,1-.49,0l.1-.52a2.46,2.46,0,0,0,.33,0,6,6,0,0,1,5.88,2.23Z" transform="translate(-19.63 -35.65)"/><polygon class="cls-8" points="352.49 108.78 352.02 87.78 354.07 92.06 356.36 102.96 352.49 108.78"/><path class="cls-4" d="M406.83,71.11c.22-1.43,0-2.79-1.13-3.11s-2.37-.81-2.24-2.55c0-.29,0-.69.07-1.13a25.13,25.13,0,0,1,2.58-10.19c1.49-3,.41-4.48-1.2-3.56-1.16.85-2.72,2.36-4,6.71a52.65,52.65,0,0,0-1.33,6.24,6.85,6.85,0,0,1-.61,2.41c-.52.51-1,.13-2.63,1.79s-6.18,5.78-6.3,6.5a1.61,1.61,0,0,0,2.38,1.69c-1.87,1.61-2.57,2.38-1.44,3.59a1.93,1.93,0,0,0,2.64,0s.66,1.42,1.19,2.68a9.67,9.67,0,0,1,1.14,4c.06,1.48-1.14,5.4-2.38,7.69-.8,1.54-20.7,46.86-20.7,46.86-2.09,5.12-1.49,14,3.52,16.34,4.08,1.9,10.64,1.54,13.76-2.44,10.5-13.36,17.24-69.51,17.48-71.91C408.18,77.48,409.86,71.44,406.83,71.11Z" transform="translate(-19.63 -35.65)"/><path class="cls-9" d="M392.82,71.56s-2.38-4.48-.6-5.52,3.36,2,3.6,2.32Z" transform="translate(-19.63 -35.65)"/><path class="cls-6" d="M392.93,76a.47.47,0,0,1-.32-.81l5.44-5.14,5.24-.69a.47.47,0,1,1,.12.93l-4.94.65-5.22,4.93A.47.47,0,0,1,392.93,76Z" transform="translate(-19.63 -35.65)"/><path class="cls-6" d="M393.52,79.77a.47.47,0,0,1-.33-.81c3.85-3.67,6.06-5.55,6.57-5.6s3.28-.57,4.33-.78a.48.48,0,0,1,.55.37.47.47,0,0,1-.37.55c-.39.08-3.82.73-4.42.79a75.16,75.16,0,0,0-6,5.34A.47.47,0,0,1,393.52,79.77Z" transform="translate(-19.63 -35.65)"/><path class="cls-6" d="M395.57,84s4.84,2.81,7.13,3.17A6.73,6.73,0,0,1,396.14,86Z" transform="translate(-19.63 -35.65)"/><path class="cls-6" d="M395.43,79.77a.47.47,0,0,1-.29-.84c.38-.3,3.7-2.94,5.61-2.65a9.14,9.14,0,0,0,3.07-.35.47.47,0,0,1,.29.9,10.2,10.2,0,0,1-3.46.39c-1.12-.18-3.61,1.41-4.91,2.45A.47.47,0,0,1,395.43,79.77Z" transform="translate(-19.63 -35.65)"/><g class="cls-10"><path class="cls-11" d="M328,50.61c-.15-.22-3.57-5.34-2.41-9.83a7.06,7.06,0,0,1,3.92-4.58l.38.75a6.26,6.26,0,0,0-3.48,4c-1.06,4.13,2.26,9.1,2.3,9.15Z" transform="translate(-19.63 -35.65)"/><path class="cls-11" d="M335,53.36l-.83-.18c3.14-14.51,18.7-13.68,18.86-13.67l-.05.84C352.36,40.32,338,39.57,335,53.36Z" transform="translate(-19.63 -35.65)"/><path class="cls-11" d="M336.23,57.19l-.65-.55c5.59-6.62,21.18-12.82,21.84-13.08l.31.79C357.57,44.41,341.68,50.73,336.23,57.19Z" transform="translate(-19.63 -35.65)"/><path class="cls-11" d="M325.25,50.5c-.18-.16-4.31-3.93-4.18-8.5a8.39,8.39,0,0,1,3.58-6.34l.53.66A7.59,7.59,0,0,0,321.92,42c-.12,4.19,3.86,7.81,3.9,7.85Z" transform="translate(-19.63 -35.65)"/></g><path class="cls-8" d="M341.22,101l0-1.71c7-.2,15.18-14.39,15.26-14.53l1.48.85C357.56,86.27,349.15,100.82,341.22,101Z" transform="translate(-19.63 -35.65)"/><path class="cls-12" d="M166.71,64.56c.56-1,.63-1.78-.31-2s-4.47,3.39-4.47,3.39l1.52-3c.22-.43.18-1.42-1-1.1s-2.05,2.24-2.86,3.83a16.51,16.51,0,0,1-4.17,4.51c-1.68,1.41-5.82,2.65-5.94,2s3.05-3.46,4.18-4.72a2.32,2.32,0,0,0,.36-3c-.45-.39-1-.56-2.09.61a48,48,0,0,1-5.29,4.26,35.93,35.93,0,0,0-7,7A29.5,29.5,0,0,1,135,84.13c-4.74,5.6-19.47,31.17-19.47,31.17s-13.05-3.89-15-1.61C90.11,126,87.44,139.38,96.91,137.1c4.93-1.18,17,1.65,25.42-2.78s22.3-48.63,22.45-48.78c.76-.75,5.25-2.68,7.58-3.11s7.39-3.73,7.91-4.55,1.44-3.36,1.94-4.35,4.47-6.78,4.86-7.55S167.08,64.69,166.71,64.56Z" transform="translate(-19.63 -35.65)"/><path class="cls-13" d="M156.7,73l-.25-.32a17.94,17.94,0,0,0,3-3c.74-1.18,2.25-3.91,2.27-3.94l.36.2s-1.53,2.77-2.28,4A17.86,17.86,0,0,1,156.7,73Z" transform="translate(-19.63 -35.65)"/><path class="cls-13" d="M162.5,69l-.34-.23a37.73,37.73,0,0,1,3.15-4.25,1.15,1.15,0,0,1,1.55-.14l-.28.31s-.42-.34-1,.15A39.15,39.15,0,0,0,162.5,69Z" transform="translate(-19.63 -35.65)"/><path class="cls-13" d="M155.29,77.42h-.07l.12-.39-.06.2,0-.2a6.28,6.28,0,0,0,2.64-1.69c.21-.26.4-.46.56-.64a3.56,3.56,0,0,0,1-1.81l0-.14c.35-1.27.94-3.39,2-3.92a1.07,1.07,0,0,1,.89-.06,1,1,0,0,1,.59.57c.47,1.17-.74,3.65-.8,3.75l-.37-.18c.33-.67,1.12-2.58.78-3.41a.56.56,0,0,0-.34-.34.66.66,0,0,0-.56,0c-.87.45-1.45,2.54-1.77,3.67l0,.14a3.92,3.92,0,0,1-1.1,2c-.16.17-.33.37-.54.62A6.22,6.22,0,0,1,155.29,77.42Z" transform="translate(-19.63 -35.65)"/><path class="cls-14" d="M95.16,68.94a15.26,15.26,0,0,1,.3-4.31c.64-2.1.22-8.3-3.67-10.18S81.7,54,79.91,61.38,75,69.88,75,69.88s.16-8.19-6-7.88-5.77,10.4,1.26,12.28a18.06,18.06,0,0,1-2.63,7.21c-3.7-10.32-10.15-8.18-12.93-15.43-2.12-5.53-.61-14.2,7.24-17.84,5.64-10.29,27.6-9.9,38.62,1-3.78,4.58-2.88,8.78-3.43,13.12C96.63,66.24,96.51,67.56,95.16,68.94Z" transform="translate(-19.63 -35.65)"/><path class="cls-12" d="M84.65,85.43c-.62,1.74-2.21,3.67.52,7.56-3.68,3.88-9.25,16.79-9.25,16.79L63.16,89.17c.43-.63.87-1.27,1.29-1.94a45,45,0,0,0,5.8-12.94,7.5,7.5,0,0,1-5.45-5.76c-.66-3.13.74-6.35,4.19-6.52,6.2-.31,6,7.88,6,7.88s3.1-1.16,4.88-8.5,8-8.83,11.87-6.93,4.31,8.08,3.67,10.18a15.26,15.26,0,0,0-.3,4.31,51.38,51.38,0,0,0,.54,6C96.19,78.29,92.41,87.21,84.65,85.43Z" transform="translate(-19.63 -35.65)"/><path class="cls-15" d="M108.68,113.63,95.54,131.91l2.17,38.7a12.52,12.52,0,0,1-13.29,13.2c-11.54-.72-27.88-1.81-40-2.83a12.55,12.55,0,0,1-10.71-16.73l0-.06c.94-4.2,7.55-23.34,8.22-25.25l0-.08,0-.07h0A94,94,0,0,1,28,131.91a32.46,32.46,0,0,1-7.66-6.16c8.23-3.1,12.16-20.26,18-24.76,4.51-3.45,22.49-8.59,24.8-11.83l1.35,2.19a12.91,12.91,0,0,0,20.55,1.75l.12-.12a1,1,0,0,0,.21.31C90.67,97.78,108.68,113.63,108.68,113.63Z" transform="translate(-19.63 -35.65)"/><path class="cls-5" d="M82.73,62.68a.3.3,0,0,1-.12-.58c3.15-1.43,4.64-.5,4.7-.46a.3.3,0,0,1-.33.51s-1.32-.77-4.12.5Z" transform="translate(-19.63 -35.65)"/><path class="cls-5" d="M93.47,62.54a.3.3,0,0,1-.23-.49,3.28,3.28,0,0,1,2.48-1.22.3.3,0,0,1,.28.32.31.31,0,0,1-.32.28,2.71,2.71,0,0,0-2,1A.3.3,0,0,1,93.47,62.54Z" transform="translate(-19.63 -35.65)"/><ellipse class="cls-5" cx="65.82" cy="30.76" rx="1.08" ry="2.21"/><ellipse class="cls-5" cx="74.44" cy="30.76" rx="0.89" ry="1.8"/><path class="cls-5" d="M91.79,73.44a2.93,2.93,0,0,1-1.25-.33.3.3,0,0,1,.26-.54c.55.26,1.29.47,1.64,0a2.84,2.84,0,0,0-.76-3.09.3.3,0,1,1,.42-.44c1.09,1,1.5,2.92.84,3.87A1.33,1.33,0,0,1,91.79,73.44Z" transform="translate(-19.63 -35.65)"/><path class="cls-5" d="M89.4,76.33a3.46,3.46,0,0,1-1.93-.52,2.89,2.89,0,0,1-1.24-1.87.3.3,0,0,1,.6-.09,2.31,2.31,0,0,0,1,1.45,4,4,0,0,0,3.29.15.3.3,0,1,1,.16.58A6.94,6.94,0,0,1,89.4,76.33Z" transform="translate(-19.63 -35.65)"/><path class="cls-13" d="M84.65,85.43S81,84.16,79.92,81.25c0,4.17,3.79,6.77,3.79,6.77Z" transform="translate(-19.63 -35.65)"/><path class="cls-12" d="M41.95,138.77A94,94,0,0,1,28,131.91c-2.43,8.6-8.86,23.08-8.34,29.57.23,2.69,4,4.56,7.05,6.05,1.64-2.2,5.57-3.1,7-3.35l.52-.08,7.69-25.17,0-.08a.38.38,0,0,1,0-.07Z" transform="translate(-19.63 -35.65)"/><path class="cls-12" d="M32.72,149.32c.43,0,15.22,6.79,20.65,8.29s13.32,3.33,19,2.92S84,158,86.6,157.75s5.3-1.84,7.34-2.79,3.19-2.44,4.14-1.49.07,2.24-.75,3.26a17.52,17.52,0,0,1-5,3.13c-.88.27-2.51,1.49-1.83,2.79s3.33,3.06,3.8,2.85a8.46,8.46,0,0,0,1.09-.61s1.7,1.63,1.7,2.31-.27,2.79-3.47,2.51c-.41,1.36-.34,3.06-1.83,3.8s-2.11.41-2.11,1.09,0,1.9-1.27,2-1.59-.2-1.93.82-1,1.56-2.72,1.56-6.18-1.22-7.41-2.38-1.9-3.19-3.87-3.4-5-.75-10.33-1-14.68-.82-20.86-1.43a48.79,48.79,0,0,1-15.76-3.85C20.83,164.84,19.54,148.24,32.72,149.32Z" transform="translate(-19.63 -35.65)"/><path class="cls-16" d="M20.34,125.75s.25,7.78,6,11.35c.66-2,1.21-3.64,1.66-5.19A33.18,33.18,0,0,1,20.34,125.75Z" transform="translate(-19.63 -35.65)"/><path class="cls-2" d="M95.16,68.94a15.26,15.26,0,0,1,.3-4.31c.64-2.1.22-8.3-3.67-10.18S81.7,54,79.91,61.38,75,69.88,75,69.88s.16-8.19-6-7.88-5.77,10.4,1.26,12.28a18.06,18.06,0,0,1-2.63,7.21c-3.7-10.32-10.15-8.18-12.93-15.43-2.12-5.53-.61-14.2,7.24-17.84,5.64-10.29,27.6-9.9,38.62,1-3.78,4.58-2.88,8.78-3.43,13.12C96.63,66.24,96.51,67.56,95.16,68.94Z" transform="translate(-19.63 -35.65)"/><g class="cls-17"><path class="cls-18" d="M82.94,59c-.14-.65-3.38-16.08,4.94-19.52l.38.92c-7.56,3.13-4.37,18.23-4.34,18.39Z" transform="translate(-19.63 -35.65)"/><path class="cls-18" d="M88.41,55.55l-.79-.62a.37.37,0,0,0-.08.19,11.22,11.22,0,0,0-.34-1.49c-.81-3.1-2.49-9.55.45-13.51l.8.6c-2.65,3.58-1.06,9.72-.29,12.66C88.56,54.84,88.66,55.24,88.41,55.55Z" transform="translate(-19.63 -35.65)"/><path class="cls-18" d="M91.53,56.82a.36.36,0,0,0,.13-.18l-.95-.32a.87.87,0,0,1,.55-.48,2,2,0,0,0,1.2-1.26c.55-1.57.3-5.26-4.05-13.94l.89-.45c3.62,7.22,5,12.17,4.1,14.72a3,3,0,0,1-1.73,1.84Z" transform="translate(-19.63 -35.65)"/></g><path class="cls-19" d="M203.54,325.83l-.28-.5,1.48-.91.32.48A12.7,12.7,0,0,1,203.54,325.83Z" transform="translate(-19.63 -35.65)"/><line class="cls-1" x1="235.56" y1="258.01" x2="232.57" y2="252.03"/><line class="cls-1" x1="183.77" y1="289.92" x2="182.11" y2="286.6"/><polygon class="cls-14" points="64.54 159.97 115.79 130.03 115.79 192.74 64.54 224.09 64.54 159.97"/><rect class="cls-20" x="190.61" y="35.91" width="3" height="174.15"/><rect class="cls-20" x="298.4" y="262.59" width="3" height="131.14" transform="matrix(0.53, -0.85, 0.85, 0.53, -156.57, 374.94)"/><rect class="cls-20" x="60.54" y="331.21" width="115.14" height="3" transform="translate(-175.39 74.25) rotate(-31.33)"/><path class="cls-19" d="M222.6,224.4l-1-1.71,7.51-4.51,1,1.71Zm15-9-1-1.71,7.51-4.51,1,1.71Zm15-9-1-1.71,7.51-4.51,1,1.71Zm15-9-1-1.71,7.51-4.51,1,1.71Zm15-9-1-1.71,7.51-4.51,1,1.71Z" transform="translate(-19.63 -35.65)"/><path class="cls-14" d="M215,220l-7.29-4.87,1.11-1.66,7.29,4.87Zm-14.58-9.73-7.29-4.87,1.11-1.66,7.29,4.87Zm-14.58-9.73-7.29-4.87L179.7,194l7.29,4.87Zm-14.58-9.73L164,186l1.11-1.66,7.29,4.87Zm-14.58-9.73-7.29-4.87,1.11-1.66,7.29,4.87Zm-14.58-9.73-7.29-4.87,1.11-1.66,7.29,4.87Z" transform="translate(-19.63 -35.65)"/><path class="cls-14" d="M187.81,325.49l-7.44-4.63,1.06-1.7,7.44,4.63Zm-14.88-9.27-7.44-4.63,1.06-1.7,7.44,4.63ZM158.06,307l-7.44-4.63,1.06-1.7,7.44,4.63Zm-14.88-9.27-7.44-4.63,1.06-1.7,7.44,4.63Zm-14.88-9.27-7.44-4.63,1.06-1.7,7.44,4.63Zm-14.87-9.27L106,274.52l1.06-1.7,7.44,4.63Zm-14.88-9.27-7.44-4.63,1.06-1.7,7.44,4.63Zm-14.88-9.27,0,0,1.07-1.69Z" transform="translate(-19.63 -35.65)"/><path class="cls-19" d="M259.17,291.87l-1.06-1.7,7.44-4.64,1.06,1.7ZM274,282.59,273,280.9l7.44-4.64,1.06,1.7Zm14.87-9.27-1.06-1.7,7.44-4.64,1.06,1.7Zm14.87-9.27-1.06-1.7,7.44-4.64,1.06,1.7Zm14.87-9.27-1.06-1.7,7.44-4.64,1.06,1.7Zm14.87-9.27-1.06-1.7,4-2.48,1.06,1.7Z" transform="translate(-19.63 -35.65)"/><path class="cls-19" d="M333.59,246.46l0,0-1.48.91c-10.59,5.49-27.2-5.53-37.09-24.61-9.47-18.28-9.35-37.34,0-43.73l0,0,.94-.58.3-.17c10.59-5.49,27.2,5.53,37.09,24.61C342.74,221,342.7,239.91,333.59,246.46Z" transform="translate(-19.63 -35.65)"/><path class="cls-14" d="M255.19,293.66l-50.27,31c9.11-6.55,9.15-25.43-.24-43.56C194.79,262,178.18,251,167.59,256.46l-.3.17,50.58-31.15,0,0,1.48-.91c10.59-5.49,27.2,5.53,37.09,24.62S265.78,288.18,255.19,293.66Z" transform="translate(-19.63 -35.65)"/><path class="cls-19" d="M204.92,324.64l0,0-1.48.91c-10.59,5.49-27.2-5.53-37.09-24.61-9.47-18.28-9.35-37.34,0-43.73l0,0,.94-.58.3-.17c10.59-5.49,27.2,5.53,37.09,24.61C214.07,299.21,214,318.09,204.92,324.64Z" transform="translate(-19.63 -35.65)"/></svg>