<svg width="501" height="338" viewBox="0 0 501 338" fill="none" xmlns="http://www.w3.org/2000/svg">
<path d="M211 338L265 247L322 338H211Z" fill="#00B84C"/>
<path d="M211.036 338H185L239.5 246L265 247L211.036 338Z" fill="#30D791"/>
<path d="M10.3166 238.481C10.4276 228.145 18.8969 219.856 29.2333 219.967L441.681 224.396C451.179 224.498 458.796 232.281 458.694 241.779V241.779C458.651 245.798 455.359 249.02 451.34 248.977L16.0134 244.302C12.833 244.268 10.2824 241.662 10.3166 238.481V238.481Z" fill="#EF7E2B"/>
<path d="M267.626 221.694L267.79 215.06L276.206 212.301C276.888 213.307 279.179 215.651 282.881 216.986C288.396 217.122 291.098 222.273 290.391 222.255C285.711 223.835 273.264 222.539 267.626 221.694Z" fill="#575757"/>
<path d="M213.383 220.216L219.163 209.625L226.537 208.959L227.083 215.469C227.676 216.284 229.018 218.455 229.644 220.617C223.816 222.846 216.375 221.279 213.383 220.216Z" fill="#575757"/>
<path d="M159.076 19.1697C158.356 20.8467 162.909 24.3957 165.275 25.9606C159.129 28.4925 163.088 28.5901 165.209 28.6424C168.161 28.2633 169.698 26.3992 170.097 25.5145C174.303 27.0777 184.906 30.823 193.673 33.299C202.079 36.67 220.885 40.9377 229.238 42.6502C229.265 39.6378 229.224 32.9328 228.838 30.2116C225.017 30.2586 176.833 22.0086 171.485 20.888C166.792 16.1115 160.108 17.5003 159.076 19.1697Z" fill="#FEC484"/>
<path d="M325.319 47.8443L282.267 38.026L280.853 37.9911L279.86 49.548C293.741 50.8319 322.355 53.2794 325.762 52.7985C326.286 54.5062 329.051 57.1167 330.723 58.1465C332.537 59.1799 332.155 57.4757 332.162 57.1934C330.062 56.2942 330.104 54.6004 330.821 54.1944C336.494 53.6281 338.095 51.8315 337.996 50.1342C334.717 45.4208 328.178 46.6437 325.319 47.8443Z" fill="#FEC484"/>
<path d="M262.603 15.0846C263.649 13.9805 263.164 9.54318 262.792 7.46253L260.74 4.58723L254.06 5.83484L250.53 11.256C250.478 13.3732 250.764 18.945 252.33 24.294C253.895 29.6431 251.454 31.0988 250.037 31.1581L253.207 40.2753L262.002 39.3623C262.049 37.4803 261.955 33.2598 261.208 31.4335C260.239 30.5622 261.023 27.4744 262.306 27.0823C271.294 24.0556 264.513 17.9564 262.603 15.0846Z" fill="#FEC484"/>
<path d="M258.1 99.8562L223.457 99.0019L214.911 209.944L229.333 210.299L241.866 132.646C246.599 149.146 257.947 191.563 265.069 214.788C269.991 217.169 276.15 212.114 278.93 210.299L258.1 99.8562Z" fill="#4550BB"/>
<path d="M226.032 42.8536C228.532 42.4633 228.711 33.6922 228.488 29.3555C235.511 29.5287 249.803 30.2201 250.787 31.6003C255.967 37.2644 260.581 34.1486 262.24 31.8827L282.515 35.9136L282.151 50.5931L267.832 51.7936C265.616 63.179 260.736 89.2438 258.939 102.419C243.603 110.374 231.469 103.295 222.655 99.2646C221.186 94.5958 230.481 61.2768 235.312 45.201C233.95 44.9791 230.187 44.1989 226.032 42.8536Z" fill="#00ADFF"/>
<path d="M251.373 5.76862C243.871 7.05247 248.878 18.9362 252.319 24.7175C252.347 23.5883 252.137 20.6172 251.076 17.7663C255.177 17.8674 252.619 12.5786 252.689 9.75564C268.974 9.16859 263.392 6.06502 263.38 0.838997C260.622 -2.05373 252.85 3.2628 251.373 5.76862Z" fill="#575757"/>
<path d="M262.54 17.6253L260.606 15.7415C260.879 16.1249 261.508 17.0349 261.833 17.6079C262.161 18.0679 261.678 18.169 261.395 18.162L261.384 18.5854C262.516 18.6133 262.626 17.957 262.54 17.6253Z" fill="black"/>
<path d="M258.794 20.3576C259.916 20.7619 262.452 21.1823 263.622 19.6293C264.032 20.2043 264.458 25.8643 258.794 20.3576Z" fill="white"/>
<path d="M257.682 13.1117C257.79 13.6467 257.568 14.143 257.185 14.2202C256.802 14.2973 256.404 13.9261 256.296 13.3911C256.187 12.856 256.41 12.3597 256.793 12.2826C257.176 12.2054 257.574 12.5766 257.682 13.1117Z" fill="black"/>
<path d="M261.357 13.1959C261.47 13.73 261.252 14.2283 260.87 14.3089C260.488 14.3896 260.086 14.022 259.973 13.488C259.86 12.9539 260.078 12.4556 260.46 12.375C260.842 12.2943 261.244 12.6619 261.357 13.1959Z" fill="black"/>
<line x1="153" y1="333" x2="353" y2="333" stroke="#99CE79" stroke-width="10"/>
<circle cx="44.54" cy="114.935" r="34.2851" fill="#1A995C"/>
<circle cx="44.54" cy="156.134" r="34.2851" fill="#2AAF78"/>
<g filter="url(#filter0_d_923_2623)">
<circle cx="82.6349" cy="140.896" r="52.0626" fill="#40B17B"/>
</g>
<path d="M61.6484 128.57L58.5547 138H56.0625L60.2891 126.625H61.875L61.6484 128.57ZM64.2188 138L61.1172 128.57L60.8672 126.625H62.4688L66.7188 138H64.2188ZM64.0781 133.766V135.602H58.0703V133.766H64.0781ZM70.0078 126V138H67.75V126H70.0078ZM74.2422 129.547V138H71.9844V129.547H74.2422ZM71.8438 127.344C71.8438 127.016 71.9583 126.745 72.1875 126.531C72.4167 126.318 72.724 126.211 73.1094 126.211C73.4896 126.211 73.7943 126.318 74.0234 126.531C74.2578 126.745 74.375 127.016 74.375 127.344C74.375 127.672 74.2578 127.943 74.0234 128.156C73.7943 128.37 73.4896 128.477 73.1094 128.477C72.724 128.477 72.4167 128.37 72.1875 128.156C71.9583 127.943 71.8438 127.672 71.8438 127.344ZM81.4531 129.547H83.4922V137.719C83.4922 138.49 83.3203 139.143 82.9766 139.68C82.638 140.221 82.1641 140.63 81.5547 140.906C80.9453 141.188 80.237 141.328 79.4297 141.328C79.0755 141.328 78.7005 141.281 78.3047 141.188C77.9141 141.094 77.5391 140.948 77.1797 140.75C76.8255 140.552 76.5286 140.302 76.2891 140L77.2812 138.672C77.5417 138.974 77.8438 139.208 78.1875 139.375C78.5312 139.547 78.9115 139.633 79.3281 139.633C79.7344 139.633 80.0781 139.557 80.3594 139.406C80.6406 139.26 80.8568 139.044 81.0078 138.758C81.1589 138.477 81.2344 138.135 81.2344 137.734V131.5L81.4531 129.547ZM75.7656 133.875V133.711C75.7656 133.065 75.8438 132.479 76 131.953C76.1615 131.422 76.388 130.966 76.6797 130.586C76.9766 130.206 77.3359 129.911 77.7578 129.703C78.1797 129.495 78.6562 129.391 79.1875 129.391C79.75 129.391 80.2214 129.495 80.6016 129.703C80.9818 129.911 81.2943 130.208 81.5391 130.594C81.7839 130.974 81.974 131.424 82.1094 131.945C82.25 132.461 82.3594 133.026 82.4375 133.641V134C82.3594 134.589 82.2422 135.135 82.0859 135.641C81.9297 136.146 81.724 136.589 81.4688 136.969C81.2135 137.344 80.8958 137.635 80.5156 137.844C80.1406 138.052 79.6927 138.156 79.1719 138.156C78.651 138.156 78.1797 138.049 77.7578 137.836C77.3411 137.622 76.9844 137.323 76.6875 136.938C76.3906 136.552 76.1615 136.099 76 135.578C75.8438 135.057 75.7656 134.49 75.7656 133.875ZM78.0156 133.711V133.875C78.0156 134.224 78.0495 134.549 78.1172 134.852C78.1849 135.154 78.2891 135.422 78.4297 135.656C78.5755 135.885 78.7552 136.065 78.9688 136.195C79.1875 136.32 79.4453 136.383 79.7422 136.383C80.1536 136.383 80.4896 136.297 80.75 136.125C81.0104 135.948 81.2057 135.706 81.3359 135.398C81.4661 135.091 81.5417 134.737 81.5625 134.336V133.312C81.5521 132.984 81.5078 132.69 81.4297 132.43C81.3516 132.164 81.2422 131.938 81.1016 131.75C80.9609 131.562 80.7786 131.417 80.5547 131.312C80.3307 131.208 80.0651 131.156 79.7578 131.156C79.4609 131.156 79.2031 131.224 78.9844 131.359C78.7708 131.49 78.5911 131.669 78.4453 131.898C78.3047 132.128 78.1979 132.398 78.125 132.711C78.0521 133.018 78.0156 133.352 78.0156 133.711ZM87.4453 131.352V138H85.1953V129.547H87.3047L87.4453 131.352ZM87.1172 133.477H86.5078C86.5078 132.852 86.5885 132.289 86.75 131.789C86.9115 131.284 87.138 130.854 87.4297 130.5C87.7214 130.141 88.0677 129.867 88.4688 129.68C88.875 129.487 89.3281 129.391 89.8281 129.391C90.224 129.391 90.5859 129.448 90.9141 129.562C91.2422 129.677 91.5234 129.859 91.7578 130.109C91.9974 130.359 92.1797 130.69 92.3047 131.102C92.4349 131.513 92.5 132.016 92.5 132.609V138H90.2344V132.602C90.2344 132.227 90.1823 131.935 90.0781 131.727C89.974 131.518 89.8203 131.372 89.6172 131.289C89.4193 131.201 89.1745 131.156 88.8828 131.156C88.5807 131.156 88.3177 131.216 88.0938 131.336C87.875 131.456 87.6927 131.622 87.5469 131.836C87.4062 132.044 87.2995 132.289 87.2266 132.57C87.1536 132.852 87.1172 133.154 87.1172 133.477ZM98.1016 138.156C97.4453 138.156 96.8568 138.052 96.3359 137.844C95.8151 137.63 95.3724 137.336 95.0078 136.961C94.6484 136.586 94.3724 136.151 94.1797 135.656C93.987 135.156 93.8906 134.625 93.8906 134.062V133.75C93.8906 133.109 93.9818 132.523 94.1641 131.992C94.3464 131.461 94.6068 131 94.9453 130.609C95.2891 130.219 95.7057 129.919 96.1953 129.711C96.6849 129.497 97.237 129.391 97.8516 129.391C98.4505 129.391 98.9818 129.49 99.4453 129.688C99.9089 129.885 100.297 130.167 100.609 130.531C100.927 130.896 101.167 131.333 101.328 131.844C101.49 132.349 101.57 132.911 101.57 133.531V134.469H94.8516V132.969H99.3594V132.797C99.3594 132.484 99.3021 132.206 99.1875 131.961C99.0781 131.711 98.9115 131.513 98.6875 131.367C98.4635 131.221 98.1771 131.148 97.8281 131.148C97.5312 131.148 97.276 131.214 97.0625 131.344C96.849 131.474 96.6745 131.656 96.5391 131.891C96.4089 132.125 96.3099 132.401 96.2422 132.719C96.1797 133.031 96.1484 133.375 96.1484 133.75V134.062C96.1484 134.401 96.1953 134.714 96.2891 135C96.388 135.286 96.526 135.534 96.7031 135.742C96.8854 135.951 97.1042 136.112 97.3594 136.227C97.6198 136.341 97.9141 136.398 98.2422 136.398C98.6484 136.398 99.026 136.32 99.375 136.164C99.7292 136.003 100.034 135.76 100.289 135.438L101.383 136.625C101.206 136.88 100.964 137.125 100.656 137.359C100.354 137.594 99.9896 137.786 99.5625 137.938C99.1354 138.083 98.6484 138.156 98.1016 138.156ZM107.844 136.156V126H110.109V138H108.07L107.844 136.156ZM102.5 133.875V133.711C102.5 133.065 102.573 132.479 102.719 131.953C102.865 131.422 103.078 130.966 103.359 130.586C103.641 130.206 103.987 129.911 104.398 129.703C104.81 129.495 105.279 129.391 105.805 129.391C106.299 129.391 106.732 129.495 107.102 129.703C107.477 129.911 107.794 130.208 108.055 130.594C108.32 130.974 108.534 131.424 108.695 131.945C108.857 132.461 108.974 133.026 109.047 133.641V134C108.974 134.589 108.857 135.135 108.695 135.641C108.534 136.146 108.32 136.589 108.055 136.969C107.794 137.344 107.477 137.635 107.102 137.844C106.727 138.052 106.289 138.156 105.789 138.156C105.263 138.156 104.794 138.049 104.383 137.836C103.977 137.622 103.633 137.323 103.352 136.938C103.076 136.552 102.865 136.099 102.719 135.578C102.573 135.057 102.5 134.49 102.5 133.875ZM104.75 133.711V133.875C104.75 134.224 104.776 134.549 104.828 134.852C104.885 135.154 104.977 135.422 105.102 135.656C105.232 135.885 105.398 136.065 105.602 136.195C105.81 136.32 106.062 136.383 106.359 136.383C106.745 136.383 107.062 136.297 107.312 136.125C107.562 135.948 107.753 135.706 107.883 135.398C108.018 135.091 108.096 134.737 108.117 134.336V133.312C108.102 132.984 108.055 132.69 107.977 132.43C107.904 132.164 107.794 131.938 107.648 131.75C107.508 131.562 107.331 131.417 107.117 131.312C106.909 131.208 106.661 131.156 106.375 131.156C106.083 131.156 105.833 131.224 105.625 131.359C105.417 131.49 105.247 131.669 105.117 131.898C104.992 132.128 104.898 132.398 104.836 132.711C104.779 133.018 104.75 133.352 104.75 133.711ZM42.2344 152.945H39.3359V151.117H42.2344C42.6823 151.117 43.0469 151.044 43.3281 150.898C43.6094 150.747 43.8151 150.539 43.9453 150.273C44.0755 150.008 44.1406 149.708 44.1406 149.375C44.1406 149.036 44.0755 148.721 43.9453 148.43C43.8151 148.138 43.6094 147.904 43.3281 147.727C43.0469 147.549 42.6823 147.461 42.2344 147.461H40.1484V157H37.8047V145.625H42.2344C43.125 145.625 43.888 145.786 44.5234 146.109C45.1641 146.427 45.6536 146.867 45.9922 147.43C46.3307 147.992 46.5 148.635 46.5 149.359C46.5 150.094 46.3307 150.729 45.9922 151.266C45.6536 151.802 45.1641 152.216 44.5234 152.508C43.888 152.799 43.125 152.945 42.2344 152.945ZM51.7578 157.156C51.1016 157.156 50.513 157.052 49.9922 156.844C49.4714 156.63 49.0286 156.336 48.6641 155.961C48.3047 155.586 48.0286 155.151 47.8359 154.656C47.6432 154.156 47.5469 153.625 47.5469 153.062V152.75C47.5469 152.109 47.638 151.523 47.8203 150.992C48.0026 150.461 48.263 150 48.6016 149.609C48.9453 149.219 49.362 148.919 49.8516 148.711C50.3411 148.497 50.8932 148.391 51.5078 148.391C52.1068 148.391 52.638 148.49 53.1016 148.688C53.5651 148.885 53.9531 149.167 54.2656 149.531C54.5833 149.896 54.8229 150.333 54.9844 150.844C55.1458 151.349 55.2266 151.911 55.2266 152.531V153.469H48.5078V151.969H53.0156V151.797C53.0156 151.484 52.9583 151.206 52.8438 150.961C52.7344 150.711 52.5677 150.513 52.3438 150.367C52.1198 150.221 51.8333 150.148 51.4844 150.148C51.1875 150.148 50.9323 150.214 50.7188 150.344C50.5052 150.474 50.3307 150.656 50.1953 150.891C50.0651 151.125 49.9661 151.401 49.8984 151.719C49.8359 152.031 49.8047 152.375 49.8047 152.75V153.062C49.8047 153.401 49.8516 153.714 49.9453 154C50.0443 154.286 50.1823 154.534 50.3594 154.742C50.5417 154.951 50.7604 155.112 51.0156 155.227C51.276 155.341 51.5703 155.398 51.8984 155.398C52.3047 155.398 52.6823 155.32 53.0312 155.164C53.3854 155.003 53.6901 154.76 53.9453 154.438L55.0391 155.625C54.862 155.88 54.6198 156.125 54.3125 156.359C54.0104 156.594 53.6458 156.786 53.2188 156.938C52.7917 157.083 52.3047 157.156 51.7578 157.156ZM58.7578 150.391V157H56.5078V148.547H58.625L58.7578 150.391ZM61.3047 148.492L61.2656 150.578C61.1562 150.562 61.0234 150.549 60.8672 150.539C60.7161 150.523 60.5781 150.516 60.4531 150.516C60.1354 150.516 59.8594 150.557 59.625 150.641C59.3958 150.719 59.2031 150.836 59.0469 150.992C58.8958 151.148 58.7812 151.339 58.7031 151.562C58.6302 151.786 58.5885 152.042 58.5781 152.328L58.125 152.188C58.125 151.641 58.1797 151.138 58.2891 150.68C58.3984 150.216 58.5573 149.812 58.7656 149.469C58.9792 149.125 59.2396 148.859 59.5469 148.672C59.8542 148.484 60.2057 148.391 60.6016 148.391C60.7266 148.391 60.8542 148.401 60.9844 148.422C61.1146 148.438 61.2214 148.461 61.3047 148.492ZM66.9375 154.664C66.9375 154.503 66.8906 154.357 66.7969 154.227C66.7031 154.096 66.5286 153.977 66.2734 153.867C66.0234 153.753 65.6615 153.648 65.1875 153.555C64.7604 153.461 64.362 153.344 63.9922 153.203C63.6276 153.057 63.3099 152.883 63.0391 152.68C62.7734 152.477 62.5651 152.237 62.4141 151.961C62.263 151.68 62.1875 151.359 62.1875 151C62.1875 150.646 62.263 150.312 62.4141 150C62.5703 149.688 62.7917 149.411 63.0781 149.172C63.3698 148.927 63.724 148.737 64.1406 148.602C64.5625 148.461 65.0365 148.391 65.5625 148.391C66.2969 148.391 66.9271 148.508 67.4531 148.742C67.9844 148.977 68.3906 149.299 68.6719 149.711C68.9583 150.117 69.1016 150.581 69.1016 151.102H66.8516C66.8516 150.883 66.8047 150.688 66.7109 150.516C66.6224 150.339 66.4818 150.201 66.2891 150.102C66.1016 149.997 65.8568 149.945 65.5547 149.945C65.3047 149.945 65.0885 149.99 64.9062 150.078C64.724 150.161 64.5833 150.276 64.4844 150.422C64.3906 150.562 64.3438 150.719 64.3438 150.891C64.3438 151.021 64.3698 151.138 64.4219 151.242C64.4792 151.341 64.5703 151.432 64.6953 151.516C64.8203 151.599 64.9818 151.677 65.1797 151.75C65.3828 151.818 65.6328 151.88 65.9297 151.938C66.5391 152.062 67.0833 152.227 67.5625 152.43C68.0417 152.628 68.4219 152.898 68.7031 153.242C68.9844 153.581 69.125 154.026 69.125 154.578C69.125 154.953 69.0417 155.297 68.875 155.609C68.7083 155.922 68.4688 156.195 68.1562 156.43C67.8438 156.659 67.4688 156.839 67.0312 156.969C66.599 157.094 66.112 157.156 65.5703 157.156C64.7839 157.156 64.1172 157.016 63.5703 156.734C63.0286 156.453 62.6172 156.096 62.3359 155.664C62.0599 155.227 61.9219 154.779 61.9219 154.32H64.0547C64.0651 154.628 64.1432 154.875 64.2891 155.062C64.4401 155.25 64.6302 155.385 64.8594 155.469C65.0938 155.552 65.3464 155.594 65.6172 155.594C65.9089 155.594 66.151 155.555 66.3438 155.477C66.5365 155.393 66.6823 155.284 66.7812 155.148C66.8854 155.008 66.9375 154.846 66.9375 154.664ZM72.8359 150.172V160.25H70.5859V148.547H72.6719L72.8359 150.172ZM78.1875 152.68V152.844C78.1875 153.458 78.1146 154.029 77.9688 154.555C77.8281 155.081 77.6198 155.539 77.3438 155.93C77.0677 156.315 76.724 156.617 76.3125 156.836C75.9062 157.049 75.4375 157.156 74.9062 157.156C74.3906 157.156 73.9427 157.052 73.5625 156.844C73.1823 156.635 72.862 156.344 72.6016 155.969C72.3464 155.589 72.1406 155.148 71.9844 154.648C71.8281 154.148 71.7083 153.612 71.625 153.039V152.609C71.7083 151.995 71.8281 151.432 71.9844 150.922C72.1406 150.406 72.3464 149.961 72.6016 149.586C72.862 149.206 73.1797 148.911 73.5547 148.703C73.9349 148.495 74.3802 148.391 74.8906 148.391C75.4271 148.391 75.8984 148.492 76.3047 148.695C76.7161 148.898 77.0599 149.19 77.3359 149.57C77.6172 149.951 77.8281 150.404 77.9688 150.93C78.1146 151.456 78.1875 152.039 78.1875 152.68ZM75.9297 152.844V152.68C75.9297 152.32 75.8984 151.99 75.8359 151.688C75.7786 151.38 75.6849 151.112 75.5547 150.883C75.4297 150.654 75.263 150.477 75.0547 150.352C74.8516 150.221 74.6042 150.156 74.3125 150.156C74.0052 150.156 73.7422 150.206 73.5234 150.305C73.3099 150.404 73.1354 150.547 73 150.734C72.8646 150.922 72.763 151.146 72.6953 151.406C72.6276 151.667 72.5859 151.961 72.5703 152.289V153.375C72.5964 153.76 72.6693 154.107 72.7891 154.414C72.9089 154.716 73.0938 154.956 73.3438 155.133C73.5938 155.31 73.9219 155.398 74.3281 155.398C74.625 155.398 74.875 155.333 75.0781 155.203C75.2812 155.068 75.4453 154.883 75.5703 154.648C75.7005 154.414 75.7917 154.143 75.8438 153.836C75.901 153.529 75.9297 153.198 75.9297 152.844ZM83.4766 157.156C82.8203 157.156 82.2318 157.052 81.7109 156.844C81.1901 156.63 80.7474 156.336 80.3828 155.961C80.0234 155.586 79.7474 155.151 79.5547 154.656C79.362 154.156 79.2656 153.625 79.2656 153.062V152.75C79.2656 152.109 79.3568 151.523 79.5391 150.992C79.7214 150.461 79.9818 150 80.3203 149.609C80.6641 149.219 81.0807 148.919 81.5703 148.711C82.0599 148.497 82.612 148.391 83.2266 148.391C83.8255 148.391 84.3568 148.49 84.8203 148.688C85.2839 148.885 85.6719 149.167 85.9844 149.531C86.3021 149.896 86.5417 150.333 86.7031 150.844C86.8646 151.349 86.9453 151.911 86.9453 152.531V153.469H80.2266V151.969H84.7344V151.797C84.7344 151.484 84.6771 151.206 84.5625 150.961C84.4531 150.711 84.2865 150.513 84.0625 150.367C83.8385 150.221 83.5521 150.148 83.2031 150.148C82.9062 150.148 82.651 150.214 82.4375 150.344C82.224 150.474 82.0495 150.656 81.9141 150.891C81.7839 151.125 81.6849 151.401 81.6172 151.719C81.5547 152.031 81.5234 152.375 81.5234 152.75V153.062C81.5234 153.401 81.5703 153.714 81.6641 154C81.763 154.286 81.901 154.534 82.0781 154.742C82.2604 154.951 82.4792 155.112 82.7344 155.227C82.9948 155.341 83.2891 155.398 83.6172 155.398C84.0234 155.398 84.401 155.32 84.75 155.164C85.1042 155.003 85.4089 154.76 85.6641 154.438L86.7578 155.625C86.5807 155.88 86.3385 156.125 86.0312 156.359C85.7292 156.594 85.3646 156.786 84.9375 156.938C84.5104 157.083 84.0234 157.156 83.4766 157.156ZM91.7188 155.398C91.9948 155.398 92.2396 155.346 92.4531 155.242C92.6667 155.133 92.8333 154.982 92.9531 154.789C93.0781 154.591 93.1432 154.359 93.1484 154.094H95.2656C95.2604 154.688 95.1016 155.216 94.7891 155.68C94.4766 156.138 94.0573 156.5 93.5312 156.766C93.0052 157.026 92.4167 157.156 91.7656 157.156C91.1094 157.156 90.5365 157.047 90.0469 156.828C89.5625 156.609 89.1589 156.307 88.8359 155.922C88.513 155.531 88.2708 155.078 88.1094 154.562C87.9479 154.042 87.8672 153.484 87.8672 152.891V152.664C87.8672 152.065 87.9479 151.508 88.1094 150.992C88.2708 150.471 88.513 150.018 88.8359 149.633C89.1589 149.242 89.5625 148.938 90.0469 148.719C90.5312 148.5 91.099 148.391 91.75 148.391C92.4427 148.391 93.0495 148.523 93.5703 148.789C94.0964 149.055 94.5078 149.435 94.8047 149.93C95.1068 150.419 95.2604 151 95.2656 151.672H93.1484C93.1432 151.391 93.0833 151.135 92.9688 150.906C92.8594 150.677 92.6979 150.495 92.4844 150.359C92.276 150.219 92.0182 150.148 91.7109 150.148C91.3828 150.148 91.1146 150.219 90.9062 150.359C90.6979 150.495 90.5365 150.682 90.4219 150.922C90.3073 151.156 90.2266 151.424 90.1797 151.727C90.138 152.023 90.1172 152.336 90.1172 152.664V152.891C90.1172 153.219 90.138 153.534 90.1797 153.836C90.2214 154.138 90.2995 154.406 90.4141 154.641C90.5339 154.875 90.6979 155.06 90.9062 155.195C91.1146 155.331 91.3854 155.398 91.7188 155.398ZM100.711 148.547V150.141H95.7891V148.547H100.711ZM97.0078 146.461H99.2578V154.453C99.2578 154.698 99.2891 154.885 99.3516 155.016C99.4193 155.146 99.5182 155.237 99.6484 155.289C99.7786 155.336 99.9427 155.359 100.141 155.359C100.281 155.359 100.406 155.354 100.516 155.344C100.63 155.328 100.727 155.312 100.805 155.297L100.812 156.953C100.62 157.016 100.411 157.065 100.188 157.102C99.9635 157.138 99.7161 157.156 99.4453 157.156C98.9505 157.156 98.5182 157.076 98.1484 156.914C97.7839 156.747 97.5026 156.482 97.3047 156.117C97.1068 155.753 97.0078 155.273 97.0078 154.68V146.461ZM104.367 148.547V157H102.109V148.547H104.367ZM101.969 146.344C101.969 146.016 102.083 145.745 102.312 145.531C102.542 145.318 102.849 145.211 103.234 145.211C103.615 145.211 103.919 145.318 104.148 145.531C104.383 145.745 104.5 146.016 104.5 146.344C104.5 146.672 104.383 146.943 104.148 147.156C103.919 147.37 103.615 147.477 103.234 147.477C102.849 147.477 102.542 147.37 102.312 147.156C102.083 146.943 101.969 146.672 101.969 146.344ZM109.102 155.359L110.977 148.547H113.328L110.477 157H109.055L109.102 155.359ZM107.812 148.547L109.695 155.367L109.734 157H108.305L105.453 148.547H107.812ZM118.117 157.156C117.461 157.156 116.872 157.052 116.352 156.844C115.831 156.63 115.388 156.336 115.023 155.961C114.664 155.586 114.388 155.151 114.195 154.656C114.003 154.156 113.906 153.625 113.906 153.062V152.75C113.906 152.109 113.997 151.523 114.18 150.992C114.362 150.461 114.622 150 114.961 149.609C115.305 149.219 115.721 148.919 116.211 148.711C116.701 148.497 117.253 148.391 117.867 148.391C118.466 148.391 118.997 148.49 119.461 148.688C119.924 148.885 120.312 149.167 120.625 149.531C120.943 149.896 121.182 150.333 121.344 150.844C121.505 151.349 121.586 151.911 121.586 152.531V153.469H114.867V151.969H119.375V151.797C119.375 151.484 119.318 151.206 119.203 150.961C119.094 150.711 118.927 150.513 118.703 150.367C118.479 150.221 118.193 150.148 117.844 150.148C117.547 150.148 117.292 150.214 117.078 150.344C116.865 150.474 116.69 150.656 116.555 150.891C116.424 151.125 116.326 151.401 116.258 151.719C116.195 152.031 116.164 152.375 116.164 152.75V153.062C116.164 153.401 116.211 153.714 116.305 154C116.404 154.286 116.542 154.534 116.719 154.742C116.901 154.951 117.12 155.112 117.375 155.227C117.635 155.341 117.93 155.398 118.258 155.398C118.664 155.398 119.042 155.32 119.391 155.164C119.745 155.003 120.049 154.76 120.305 154.438L121.398 155.625C121.221 155.88 120.979 156.125 120.672 156.359C120.37 156.594 120.005 156.786 119.578 156.938C119.151 157.083 118.664 157.156 118.117 157.156ZM127.438 154.664C127.438 154.503 127.391 154.357 127.297 154.227C127.203 154.096 127.029 153.977 126.773 153.867C126.523 153.753 126.161 153.648 125.688 153.555C125.26 153.461 124.862 153.344 124.492 153.203C124.128 153.057 123.81 152.883 123.539 152.68C123.273 152.477 123.065 152.237 122.914 151.961C122.763 151.68 122.688 151.359 122.688 151C122.688 150.646 122.763 150.312 122.914 150C123.07 149.688 123.292 149.411 123.578 149.172C123.87 148.927 124.224 148.737 124.641 148.602C125.062 148.461 125.536 148.391 126.062 148.391C126.797 148.391 127.427 148.508 127.953 148.742C128.484 148.977 128.891 149.299 129.172 149.711C129.458 150.117 129.602 150.581 129.602 151.102H127.352C127.352 150.883 127.305 150.688 127.211 150.516C127.122 150.339 126.982 150.201 126.789 150.102C126.602 149.997 126.357 149.945 126.055 149.945C125.805 149.945 125.589 149.99 125.406 150.078C125.224 150.161 125.083 150.276 124.984 150.422C124.891 150.562 124.844 150.719 124.844 150.891C124.844 151.021 124.87 151.138 124.922 151.242C124.979 151.341 125.07 151.432 125.195 151.516C125.32 151.599 125.482 151.677 125.68 151.75C125.883 151.818 126.133 151.88 126.43 151.938C127.039 152.062 127.583 152.227 128.062 152.43C128.542 152.628 128.922 152.898 129.203 153.242C129.484 153.581 129.625 154.026 129.625 154.578C129.625 154.953 129.542 155.297 129.375 155.609C129.208 155.922 128.969 156.195 128.656 156.43C128.344 156.659 127.969 156.839 127.531 156.969C127.099 157.094 126.612 157.156 126.07 157.156C125.284 157.156 124.617 157.016 124.07 156.734C123.529 156.453 123.117 156.096 122.836 155.664C122.56 155.227 122.422 154.779 122.422 154.32H124.555C124.565 154.628 124.643 154.875 124.789 155.062C124.94 155.25 125.13 155.385 125.359 155.469C125.594 155.552 125.846 155.594 126.117 155.594C126.409 155.594 126.651 155.555 126.844 155.477C127.036 155.393 127.182 155.284 127.281 155.148C127.385 155.008 127.438 154.846 127.438 154.664Z" fill="white"/>
<circle cx="380.337" cy="121.143" r="34.2851" fill="#F27F2F"/>
<circle cx="380.337" cy="162.342" r="34.2851" fill="#F37F2F"/>
<g filter="url(#filter1_d_923_2623)">
<circle cx="418.432" cy="147.104" r="52.0626" fill="#FF8A33"/>
</g>
<path d="M384.273 134.57L381.18 144H378.688L382.914 132.625H384.5L384.273 134.57ZM386.844 144L383.742 134.57L383.492 132.625H385.094L389.344 144H386.844ZM386.703 139.766V141.602H380.695V139.766H386.703ZM392.633 132V144H390.375V132H392.633ZM398.633 135.547V137.141H393.711V135.547H398.633ZM394.93 133.461H397.18V141.453C397.18 141.698 397.211 141.885 397.273 142.016C397.341 142.146 397.44 142.237 397.57 142.289C397.701 142.336 397.865 142.359 398.062 142.359C398.203 142.359 398.328 142.354 398.438 142.344C398.552 142.328 398.648 142.312 398.727 142.297L398.734 143.953C398.542 144.016 398.333 144.065 398.109 144.102C397.885 144.138 397.638 144.156 397.367 144.156C396.872 144.156 396.44 144.076 396.07 143.914C395.706 143.747 395.424 143.482 395.227 143.117C395.029 142.753 394.93 142.273 394.93 141.68V133.461ZM403.805 144.156C403.148 144.156 402.56 144.052 402.039 143.844C401.518 143.63 401.076 143.336 400.711 142.961C400.352 142.586 400.076 142.151 399.883 141.656C399.69 141.156 399.594 140.625 399.594 140.062V139.75C399.594 139.109 399.685 138.523 399.867 137.992C400.049 137.461 400.31 137 400.648 136.609C400.992 136.219 401.409 135.919 401.898 135.711C402.388 135.497 402.94 135.391 403.555 135.391C404.154 135.391 404.685 135.49 405.148 135.688C405.612 135.885 406 136.167 406.312 136.531C406.63 136.896 406.87 137.333 407.031 137.844C407.193 138.349 407.273 138.911 407.273 139.531V140.469H400.555V138.969H405.062V138.797C405.062 138.484 405.005 138.206 404.891 137.961C404.781 137.711 404.615 137.513 404.391 137.367C404.167 137.221 403.88 137.148 403.531 137.148C403.234 137.148 402.979 137.214 402.766 137.344C402.552 137.474 402.378 137.656 402.242 137.891C402.112 138.125 402.013 138.401 401.945 138.719C401.883 139.031 401.852 139.375 401.852 139.75V140.062C401.852 140.401 401.898 140.714 401.992 141C402.091 141.286 402.229 141.534 402.406 141.742C402.589 141.951 402.807 142.112 403.062 142.227C403.323 142.341 403.617 142.398 403.945 142.398C404.352 142.398 404.729 142.32 405.078 142.164C405.432 142.003 405.737 141.76 405.992 141.438L407.086 142.625C406.909 142.88 406.667 143.125 406.359 143.359C406.057 143.594 405.693 143.786 405.266 143.938C404.839 144.083 404.352 144.156 403.805 144.156ZM410.805 137.391V144H408.555V135.547H410.672L410.805 137.391ZM413.352 135.492L413.312 137.578C413.203 137.562 413.07 137.549 412.914 137.539C412.763 137.523 412.625 137.516 412.5 137.516C412.182 137.516 411.906 137.557 411.672 137.641C411.443 137.719 411.25 137.836 411.094 137.992C410.943 138.148 410.828 138.339 410.75 138.562C410.677 138.786 410.635 139.042 410.625 139.328L410.172 139.188C410.172 138.641 410.227 138.138 410.336 137.68C410.445 137.216 410.604 136.812 410.812 136.469C411.026 136.125 411.286 135.859 411.594 135.672C411.901 135.484 412.253 135.391 412.648 135.391C412.773 135.391 412.901 135.401 413.031 135.422C413.161 135.438 413.268 135.461 413.352 135.492ZM416.617 137.352V144H414.367V135.547H416.477L416.617 137.352ZM416.289 139.477H415.68C415.68 138.852 415.76 138.289 415.922 137.789C416.083 137.284 416.31 136.854 416.602 136.5C416.893 136.141 417.24 135.867 417.641 135.68C418.047 135.487 418.5 135.391 419 135.391C419.396 135.391 419.758 135.448 420.086 135.562C420.414 135.677 420.695 135.859 420.93 136.109C421.169 136.359 421.352 136.69 421.477 137.102C421.607 137.513 421.672 138.016 421.672 138.609V144H419.406V138.602C419.406 138.227 419.354 137.935 419.25 137.727C419.146 137.518 418.992 137.372 418.789 137.289C418.591 137.201 418.346 137.156 418.055 137.156C417.753 137.156 417.49 137.216 417.266 137.336C417.047 137.456 416.865 137.622 416.719 137.836C416.578 138.044 416.471 138.289 416.398 138.57C416.326 138.852 416.289 139.154 416.289 139.477ZM427.945 142.094V138.328C427.945 138.057 427.901 137.826 427.812 137.633C427.724 137.435 427.586 137.281 427.398 137.172C427.216 137.062 426.979 137.008 426.688 137.008C426.438 137.008 426.221 137.052 426.039 137.141C425.857 137.224 425.716 137.346 425.617 137.508C425.518 137.664 425.469 137.849 425.469 138.062H423.219C423.219 137.703 423.302 137.362 423.469 137.039C423.635 136.716 423.878 136.432 424.195 136.188C424.513 135.938 424.891 135.742 425.328 135.602C425.771 135.461 426.266 135.391 426.812 135.391C427.469 135.391 428.052 135.5 428.562 135.719C429.073 135.938 429.474 136.266 429.766 136.703C430.062 137.141 430.211 137.688 430.211 138.344V141.961C430.211 142.424 430.24 142.805 430.297 143.102C430.354 143.393 430.438 143.648 430.547 143.867V144H428.273C428.164 143.771 428.081 143.484 428.023 143.141C427.971 142.792 427.945 142.443 427.945 142.094ZM428.242 138.852L428.258 140.125H427C426.703 140.125 426.445 140.159 426.227 140.227C426.008 140.294 425.828 140.391 425.688 140.516C425.547 140.635 425.443 140.776 425.375 140.938C425.312 141.099 425.281 141.276 425.281 141.469C425.281 141.661 425.326 141.836 425.414 141.992C425.503 142.143 425.63 142.263 425.797 142.352C425.964 142.435 426.159 142.477 426.383 142.477C426.721 142.477 427.016 142.409 427.266 142.273C427.516 142.138 427.708 141.971 427.844 141.773C427.984 141.576 428.057 141.388 428.062 141.211L428.656 142.164C428.573 142.378 428.458 142.599 428.312 142.828C428.172 143.057 427.992 143.273 427.773 143.477C427.555 143.674 427.292 143.839 426.984 143.969C426.677 144.094 426.312 144.156 425.891 144.156C425.354 144.156 424.867 144.049 424.43 143.836C423.997 143.617 423.654 143.318 423.398 142.938C423.148 142.552 423.023 142.115 423.023 141.625C423.023 141.182 423.107 140.789 423.273 140.445C423.44 140.102 423.685 139.812 424.008 139.578C424.336 139.339 424.745 139.159 425.234 139.039C425.724 138.914 426.292 138.852 426.938 138.852H428.242ZM436.086 135.547V137.141H431.164V135.547H436.086ZM432.383 133.461H434.633V141.453C434.633 141.698 434.664 141.885 434.727 142.016C434.794 142.146 434.893 142.237 435.023 142.289C435.154 142.336 435.318 142.359 435.516 142.359C435.656 142.359 435.781 142.354 435.891 142.344C436.005 142.328 436.102 142.312 436.18 142.297L436.188 143.953C435.995 144.016 435.786 144.065 435.562 144.102C435.339 144.138 435.091 144.156 434.82 144.156C434.326 144.156 433.893 144.076 433.523 143.914C433.159 143.747 432.878 143.482 432.68 143.117C432.482 142.753 432.383 142.273 432.383 141.68V133.461ZM439.742 135.547V144H437.484V135.547H439.742ZM437.344 133.344C437.344 133.016 437.458 132.745 437.688 132.531C437.917 132.318 438.224 132.211 438.609 132.211C438.99 132.211 439.294 132.318 439.523 132.531C439.758 132.745 439.875 133.016 439.875 133.344C439.875 133.672 439.758 133.943 439.523 134.156C439.294 134.37 438.99 134.477 438.609 134.477C438.224 134.477 437.917 134.37 437.688 134.156C437.458 133.943 437.344 133.672 437.344 133.344ZM444.477 142.359L446.352 135.547H448.703L445.852 144H444.43L444.477 142.359ZM443.188 135.547L445.07 142.367L445.109 144H443.68L440.828 135.547H443.188ZM453.492 144.156C452.836 144.156 452.247 144.052 451.727 143.844C451.206 143.63 450.763 143.336 450.398 142.961C450.039 142.586 449.763 142.151 449.57 141.656C449.378 141.156 449.281 140.625 449.281 140.062V139.75C449.281 139.109 449.372 138.523 449.555 137.992C449.737 137.461 449.997 137 450.336 136.609C450.68 136.219 451.096 135.919 451.586 135.711C452.076 135.497 452.628 135.391 453.242 135.391C453.841 135.391 454.372 135.49 454.836 135.688C455.299 135.885 455.688 136.167 456 136.531C456.318 136.896 456.557 137.333 456.719 137.844C456.88 138.349 456.961 138.911 456.961 139.531V140.469H450.242V138.969H454.75V138.797C454.75 138.484 454.693 138.206 454.578 137.961C454.469 137.711 454.302 137.513 454.078 137.367C453.854 137.221 453.568 137.148 453.219 137.148C452.922 137.148 452.667 137.214 452.453 137.344C452.24 137.474 452.065 137.656 451.93 137.891C451.799 138.125 451.701 138.401 451.633 138.719C451.57 139.031 451.539 139.375 451.539 139.75V140.062C451.539 140.401 451.586 140.714 451.68 141C451.779 141.286 451.917 141.534 452.094 141.742C452.276 141.951 452.495 142.112 452.75 142.227C453.01 142.341 453.305 142.398 453.633 142.398C454.039 142.398 454.417 142.32 454.766 142.164C455.12 142.003 455.424 141.76 455.68 141.438L456.773 142.625C456.596 142.88 456.354 143.125 456.047 143.359C455.745 143.594 455.38 143.786 454.953 143.938C454.526 144.083 454.039 144.156 453.492 144.156ZM401.469 160.625L404.148 151.625H406.758L402.797 163H401.078L401.469 160.625ZM399 151.625L401.672 160.625L402.078 163H400.344L396.406 151.625H399ZM410.055 154.547V163H407.797V154.547H410.055ZM407.656 152.344C407.656 152.016 407.771 151.745 408 151.531C408.229 151.318 408.536 151.211 408.922 151.211C409.302 151.211 409.607 151.318 409.836 151.531C410.07 151.745 410.188 152.016 410.188 152.344C410.188 152.672 410.07 152.943 409.836 153.156C409.607 153.37 409.302 153.477 408.922 153.477C408.536 153.477 408.229 153.37 408 153.156C407.771 152.943 407.656 152.672 407.656 152.344ZM415.805 163.156C415.148 163.156 414.56 163.052 414.039 162.844C413.518 162.63 413.076 162.336 412.711 161.961C412.352 161.586 412.076 161.151 411.883 160.656C411.69 160.156 411.594 159.625 411.594 159.062V158.75C411.594 158.109 411.685 157.523 411.867 156.992C412.049 156.461 412.31 156 412.648 155.609C412.992 155.219 413.409 154.919 413.898 154.711C414.388 154.497 414.94 154.391 415.555 154.391C416.154 154.391 416.685 154.49 417.148 154.688C417.612 154.885 418 155.167 418.312 155.531C418.63 155.896 418.87 156.333 419.031 156.844C419.193 157.349 419.273 157.911 419.273 158.531V159.469H412.555V157.969H417.062V157.797C417.062 157.484 417.005 157.206 416.891 156.961C416.781 156.711 416.615 156.513 416.391 156.367C416.167 156.221 415.88 156.148 415.531 156.148C415.234 156.148 414.979 156.214 414.766 156.344C414.552 156.474 414.378 156.656 414.242 156.891C414.112 157.125 414.013 157.401 413.945 157.719C413.883 158.031 413.852 158.375 413.852 158.75V159.062C413.852 159.401 413.898 159.714 413.992 160C414.091 160.286 414.229 160.534 414.406 160.742C414.589 160.951 414.807 161.112 415.062 161.227C415.323 161.341 415.617 161.398 415.945 161.398C416.352 161.398 416.729 161.32 417.078 161.164C417.432 161.003 417.737 160.76 417.992 160.438L419.086 161.625C418.909 161.88 418.667 162.125 418.359 162.359C418.057 162.594 417.693 162.786 417.266 162.938C416.839 163.083 416.352 163.156 415.805 163.156ZM422.969 160.812L424.727 154.547H426.156L425.695 157.008L423.938 163H422.742L422.969 160.812ZM422.078 154.547L423.336 160.805L423.453 163H422.047L419.906 154.547H422.078ZM427.766 160.703L428.992 154.547H431.172L429.031 163H427.633L427.766 160.703ZM426.352 154.547L428.102 160.766L428.344 163H427.141L425.383 157.016L424.938 154.547H426.352ZM436.875 160.664C436.875 160.503 436.828 160.357 436.734 160.227C436.641 160.096 436.466 159.977 436.211 159.867C435.961 159.753 435.599 159.648 435.125 159.555C434.698 159.461 434.299 159.344 433.93 159.203C433.565 159.057 433.247 158.883 432.977 158.68C432.711 158.477 432.503 158.237 432.352 157.961C432.201 157.68 432.125 157.359 432.125 157C432.125 156.646 432.201 156.312 432.352 156C432.508 155.688 432.729 155.411 433.016 155.172C433.307 154.927 433.661 154.737 434.078 154.602C434.5 154.461 434.974 154.391 435.5 154.391C436.234 154.391 436.865 154.508 437.391 154.742C437.922 154.977 438.328 155.299 438.609 155.711C438.896 156.117 439.039 156.581 439.039 157.102H436.789C436.789 156.883 436.742 156.688 436.648 156.516C436.56 156.339 436.419 156.201 436.227 156.102C436.039 155.997 435.794 155.945 435.492 155.945C435.242 155.945 435.026 155.99 434.844 156.078C434.661 156.161 434.521 156.276 434.422 156.422C434.328 156.562 434.281 156.719 434.281 156.891C434.281 157.021 434.307 157.138 434.359 157.242C434.417 157.341 434.508 157.432 434.633 157.516C434.758 157.599 434.919 157.677 435.117 157.75C435.32 157.818 435.57 157.88 435.867 157.938C436.477 158.062 437.021 158.227 437.5 158.43C437.979 158.628 438.359 158.898 438.641 159.242C438.922 159.581 439.062 160.026 439.062 160.578C439.062 160.953 438.979 161.297 438.812 161.609C438.646 161.922 438.406 162.195 438.094 162.43C437.781 162.659 437.406 162.839 436.969 162.969C436.536 163.094 436.049 163.156 435.508 163.156C434.721 163.156 434.055 163.016 433.508 162.734C432.966 162.453 432.555 162.096 432.273 161.664C431.997 161.227 431.859 160.779 431.859 160.32H433.992C434.003 160.628 434.081 160.875 434.227 161.062C434.378 161.25 434.568 161.385 434.797 161.469C435.031 161.552 435.284 161.594 435.555 161.594C435.846 161.594 436.089 161.555 436.281 161.477C436.474 161.393 436.62 161.284 436.719 161.148C436.823 161.008 436.875 160.846 436.875 160.664Z" fill="white"/>
<defs>
<filter id="filter0_d_923_2623" x="0.572266" y="62.8331" width="164.125" height="164.125" filterUnits="userSpaceOnUse" color-interpolation-filters="sRGB">
<feFlood flood-opacity="0" result="BackgroundImageFix"/>
<feColorMatrix in="SourceAlpha" type="matrix" values="0 0 0 0 0 0 0 0 0 0 0 0 0 0 0 0 0 0 127 0" result="hardAlpha"/>
<feOffset dy="4"/>
<feGaussianBlur stdDeviation="15"/>
<feComposite in2="hardAlpha" operator="out"/>
<feColorMatrix type="matrix" values="0 0 0 0 0 0 0 0 0 0 0 0 0 0 0 0 0 0 0.25 0"/>
<feBlend mode="normal" in2="BackgroundImageFix" result="effect1_dropShadow_923_2623"/>
<feBlend mode="normal" in="SourceGraphic" in2="effect1_dropShadow_923_2623" result="shape"/>
</filter>
<filter id="filter1_d_923_2623" x="336.369" y="69.0413" width="164.125" height="164.125" filterUnits="userSpaceOnUse" color-interpolation-filters="sRGB">
<feFlood flood-opacity="0" result="BackgroundImageFix"/>
<feColorMatrix in="SourceAlpha" type="matrix" values="0 0 0 0 0 0 0 0 0 0 0 0 0 0 0 0 0 0 127 0" result="hardAlpha"/>
<feOffset dy="4"/>
<feGaussianBlur stdDeviation="15"/>
<feComposite in2="hardAlpha" operator="out"/>
<feColorMatrix type="matrix" values="0 0 0 0 0 0 0 0 0 0 0 0 0 0 0 0 0 0 0.25 0"/>
<feBlend mode="normal" in2="BackgroundImageFix" result="effect1_dropShadow_923_2623"/>
<feBlend mode="normal" in="SourceGraphic" in2="effect1_dropShadow_923_2623" result="shape"/>
</filter>
</defs>
</svg>
