<svg width="444" height="239" viewBox="0 0 444 239" fill="none" xmlns="http://www.w3.org/2000/svg">
<path d="M74.0667 177.819L89.8411 180.85L87.9576 189.945L74.0667 186.272V177.819Z" fill="#F8A568"/>
<path d="M27.4498 170.123L14.0298 217.461L51.2291 237.749C54.2114 231.297 61.5414 214.756 67.0036 200.205C39.4572 198.34 42.2825 183.882 42.047 176.42C37.7149 174.368 30.5105 171.367 27.4498 170.123Z" fill="#E3965E"/>
<path d="M41.1059 177.352C27.5446 177.352 23.0556 168.957 22.5062 164.76C0.469103 142.187 21.7999 123.951 35.2199 117.655C41.6552 114.313 58.7638 109.214 75.7154 115.557C92.667 121.899 91.0974 136.233 88.1937 142.607V152.634L97.7133 167.72C98.2938 168.64 97.9625 169.854 96.9933 170.36L89.8418 174.088V181.083C86.4671 180.928 78.9174 180.384 75.7154 179.451C76.4217 190.411 85.133 188.312 88.1937 189.012C88.5781 194.152 87.3935 197.116 86.0488 200.315C85.4815 201.664 84.1536 202.597 82.6787 202.653C39.5174 204.291 41.1059 182.618 41.1059 177.352Z" fill="#F8A568"/>
<path d="M87.7222 141.907L72.6541 144.239H87.7222V141.907Z" fill="#2E1C20"/>
<path d="M1.5513 157.764L20.6219 194.842C20.6219 193.132 22.4583 187.333 26.9789 172.222C19.9158 148.203 37.5737 154.033 41.1053 157.764C51.4646 168.724 54.0544 157.764 55.9379 146.804C83.9552 143.773 76.1857 129.781 79.2464 117.889C85.6032 120.454 92.6664 132.58 90.0766 141.907C117.152 112.525 60.4111 99 49.11 99C-0.0496902 100.679 -3.079 138.876 1.5513 157.764Z" fill="#1B2645"/>
<path d="M59.7044 223.291L14.0298 217.461C9.6977 236.303 36.7099 239.615 50.7578 238.915L59.7044 223.291Z" fill="#754E79"/>
<path d="M81.1299 150.535C81.1299 151.952 80.2866 153.1 79.2464 153.1C78.2062 153.1 77.3629 151.952 77.3629 150.535C77.3629 149.119 78.2062 147.97 79.2464 147.97C80.2866 147.97 81.1299 149.119 81.1299 150.535Z" fill="#2E1C20"/>
<path d="M36.3964 169.657C34.5913 168.569 32.0643 165.46 36.3964 161.729V169.657Z" fill="#551B00" fill-opacity="0.2"/>
<path d="M75.3405 179.917L89.9377 181.083L89.4668 183.649L75.3405 181.55V179.917Z" fill="#7A4400" fill-opacity="0.1"/>
<path d="M81.9328 182.483L89.4668 183.649L88.7605 185.747L82.9267 183.954C82.3356 183.772 81.9328 183.231 81.9328 182.618V182.483Z" fill="#7A4400" fill-opacity="0.2"/>
<line y1="-2.5" x2="21.4248" y2="-2.5" transform="matrix(0.922675 -0.385578 -0.350682 -0.936494 205.308 142.256)" stroke="#00B84C" stroke-width="5"/>
<path d="M228.572 141.91L233.053 133.031L224.035 129.793L228.572 141.91Z" fill="#00B84C" stroke="#00B84C"/>
<line y1="-2.5" x2="21.3769" y2="-2.5" transform="matrix(0.865437 0.501018 0.470902 -0.882186 206.904 167.27)" stroke="#00B84C" stroke-width="5"/>
<path d="M221.753 185.883L231.122 183.821L227.858 174.447L221.753 185.883Z" fill="#00B84C" stroke="#00B84C"/>
<rect width="72" height="50.1079" rx="10" transform="matrix(-1 0 0 1 309 167)" fill="url(#paint0_linear_905_2668)"/>
<rect width="72" height="50.1079" rx="10" transform="matrix(-1 0 0 1 207 131)" fill="url(#paint1_linear_905_2668)"/>
<rect width="72" height="50.1079" rx="10" transform="matrix(-1 0 0 1 309 100)" fill="url(#paint2_linear_905_2668)"/>
<path d="M371.444 177.819L355.992 180.85L357.837 189.945L371.444 186.272V177.819Z" fill="#FDFFFD"/>
<path d="M417.11 170.123L430.256 217.461L393.816 237.749C390.895 231.297 383.714 214.756 378.364 200.205C405.348 198.34 402.58 183.882 402.811 176.42C407.055 174.368 414.112 171.367 417.11 170.123Z" fill="url(#paint3_linear_905_2668)"/>
<path d="M403.733 177.352C417.018 177.352 421.415 168.957 421.953 164.76C443.541 142.187 422.645 123.951 409.499 117.655C403.195 114.313 386.436 109.214 369.83 115.557C353.224 121.899 354.762 136.233 357.606 142.607V152.634L348.281 167.72C347.712 168.64 348.037 169.854 348.986 170.36L355.992 174.088V181.083C359.298 180.928 366.693 180.384 369.83 179.451C369.138 190.411 360.604 188.312 357.606 189.012C357.23 194.152 358.39 197.116 359.707 200.315C360.263 201.664 361.564 202.597 363.009 202.653C405.289 204.291 403.733 182.618 403.733 177.352Z" fill="#F2AA79"/>
<path d="M358.068 141.907L372.828 144.239H358.068V141.907Z" fill="#2E1C20"/>
<path d="M442.48 157.764L423.799 194.842C423.799 193.132 422 187.333 417.572 172.222C424.491 148.203 407.193 154.033 403.733 157.764C393.585 168.724 391.048 157.764 389.203 146.804C361.758 143.773 369.369 129.781 366.371 117.889C360.143 120.454 353.224 132.58 355.761 141.907C329.238 112.525 384.822 99 395.892 99C444.049 100.679 447.016 138.876 442.48 157.764Z" fill="#515151"/>
<path d="M385.513 223.291L430.256 217.461C434.5 236.303 408.039 239.615 394.277 238.915L385.513 223.291Z" fill="#40B17B"/>
<path d="M364.525 150.535C364.525 151.952 365.352 153.1 366.371 153.1C367.39 153.1 368.216 151.952 368.216 150.535C368.216 149.119 367.39 147.97 366.371 147.97C365.352 147.97 364.525 149.119 364.525 150.535Z" fill="#2E1C20"/>
<path d="M408.346 169.657C410.114 168.569 412.59 165.46 408.346 161.729V169.657Z" fill="#551B00" fill-opacity="0.2"/>
<g filter="url(#filter0_i_905_2668)">
<rect x="249" width="195" height="57" rx="28.5" fill="#3F3D56"/>
</g>
<rect x="249.5" y="0.5" width="194" height="56" rx="28" stroke="#575757"/>
<g opacity="0.5">
<path d="M297.173 31.2621L298.915 32.2031L306.7 40.0624L304.957 39.1086L297.173 31.2621Z" fill="#575757"/>
<path d="M303.037 27.4342L299.17 23.53L307.476 13.9539L311.342 17.8581L303.037 27.4342Z" fill="#929292"/>
<path d="M297.427 22.5889L299.169 23.5299L303.036 27.4341L301.306 26.4931L297.427 22.5889Z" fill="#800000"/>
<path d="M305.745 13L307.475 13.9538L299.169 23.5299L297.427 22.5888L305.745 13Z" fill="#575757"/>
<path d="M293.306 27.3579L295.035 28.299L298.915 32.2032L297.172 31.2621L293.306 27.3579Z" fill="#28282A"/>
<path d="M298.914 32.203L290.609 41.7918L286.742 37.8876L295.035 28.2988L298.914 32.203Z" fill="#929292"/>
<path d="M285.521 19.5114L287.251 20.4525L295.035 28.299L293.306 27.3579L285.521 19.5114Z" fill="#575757"/>
<path d="M293.306 27.3579L295.035 28.299L286.743 37.8877L285 36.9339L293.306 27.3579Z" fill="#575757"/>
<path d="M295.036 28.2989L287.252 20.4524L291.386 15.6835L299.17 23.53L303.036 27.4342L310.821 35.2934L306.7 40.0624L298.915 32.2031L295.036 28.2989Z" fill="#929292"/>
<path d="M289.655 14.7423L291.385 15.6834L287.251 20.4524L285.521 19.5113L289.655 14.7423Z" fill="#575757"/>
</g>
<path d="M391.465 40.8379L394.708 37.0863L396.451 38.0401L393.207 41.7917L391.465 40.8379Z" fill="#0E6700"/>
<path d="M390.765 33.284L408.33 13L410.072 13.9538L392.507 34.225L390.765 33.284Z" fill="#0E6700"/>
<path d="M413.94 17.8579L396.451 38.0402L393.207 41.7917L389.341 37.8748L392.508 34.225L410.073 13.9537L412.006 15.9122L413.94 17.8579Z" fill="#00B84C"/>
<path d="M391.465 40.8379L387.599 36.9337L389.341 37.8748L393.208 41.7917L391.465 40.8379Z" fill="#0D6000"/>
<path d="M387.599 36.9338L390.766 33.2839L392.508 34.225L389.341 37.8748L387.599 36.9338Z" fill="#0E6700"/>
<path d="M379 30.6769L383.057 25.8444L384.8 26.7854L380.743 31.618L379 30.6769Z" fill="#0E6700"/>
<path d="M392.507 34.225L389.34 37.8749L393.207 41.7918L396.45 38.0402L396.527 38.1165L394.504 40.5201L392.482 42.949L380.742 31.618L384.8 26.7854L392.507 34.225Z" fill="#00B84C"/>
<path d="M390.74 41.9952L379 30.6769L380.743 31.618L392.482 42.949L390.74 41.9952Z" fill="#0D6000"/>
<line x1="347.5" y1="6" x2="347.5" y2="50" stroke="#575757"/>
<g filter="url(#filter1_i_905_2668)">
<rect width="195" height="57" rx="28.5" fill="#3F3D56"/>
</g>
<rect x="0.5" y="0.5" width="194" height="56" rx="28" stroke="#575757"/>
<path d="M48.1729 32.2621L49.9154 33.2031L57.6995 41.0624L55.957 40.1086L48.1729 32.2621Z" fill="#800000"/>
<path d="M54.0366 28.4342L50.1699 24.53L58.4756 14.9539L62.3422 18.8581L54.0366 28.4342Z" fill="#FF3838"/>
<path d="M48.4268 23.5889L50.1693 24.5299L54.0359 28.4341L52.3061 27.4931L48.4268 23.5889Z" fill="#800000"/>
<path d="M56.7451 14L58.4749 14.9538L50.1693 24.5299L48.4268 23.5888L56.7451 14Z" fill="#820000"/>
<path d="M44.3057 28.3579L46.0355 29.299L49.9148 33.2032L48.1723 32.2621L44.3057 28.3579Z" fill="#800000"/>
<path d="M49.9145 33.203L41.6088 42.7918L37.7422 38.8876L46.0351 29.2988L49.9145 33.203Z" fill="#FF3838"/>
<path d="M36.5215 20.5114L38.2513 21.4525L46.0354 29.299L44.3056 28.3579L36.5215 20.5114Z" fill="#800000"/>
<path d="M44.3056 28.3579L46.0354 29.299L37.7425 38.8877L36 37.9339L44.3056 28.3579Z" fill="#820000"/>
<path d="M46.0361 29.2989L38.252 21.4524L42.3857 16.6835L50.1698 24.53L54.0365 28.4342L61.8207 36.2934L57.6996 41.0624L49.9155 33.2031L46.0361 29.2989Z" fill="#FF3838"/>
<path d="M40.6552 15.7423L42.385 16.6834L38.2513 21.4524L36.5215 20.5113L40.6552 15.7423Z" fill="#820000"/>
<g opacity="0.5">
<path d="M142.465 40.8379L145.708 37.0863L147.451 38.0401L144.207 41.7917L142.465 40.8379Z" fill="#0E6700"/>
<path d="M141.765 33.284L159.33 13L161.072 13.9538L143.507 34.225L141.765 33.284Z" fill="#575757"/>
<path d="M164.94 17.8579L147.451 38.0402L144.207 41.7917L140.341 37.8748L143.508 34.225L161.073 13.9537L163.006 15.9122L164.94 17.8579Z" fill="#929292"/>
<path d="M142.465 40.8379L138.599 36.9337L140.341 37.8748L144.208 41.7917L142.465 40.8379Z" fill="#0D6000"/>
<path d="M138.599 36.9338L141.766 33.2839L143.508 34.225L140.341 37.8748L138.599 36.9338Z" fill="#0E6700"/>
<path d="M130 30.6769L134.057 25.8444L135.8 26.7854L131.743 31.618L130 30.6769Z" fill="#575757"/>
<path d="M143.507 34.225L140.34 37.8749L144.207 41.7918L147.45 38.0402L147.527 38.1165L145.504 40.5201L143.482 42.949L131.742 31.618L135.8 26.7854L143.507 34.225Z" fill="#929292"/>
<path d="M141.74 41.9952L130 30.6769L131.743 31.618L143.482 42.949L141.74 41.9952Z" fill="#575757"/>
</g>
<line x1="98.5" y1="6" x2="98.5" y2="50" stroke="#575757"/>
<defs>
<filter id="filter0_i_905_2668" x="249" y="0" width="195" height="61" filterUnits="userSpaceOnUse" color-interpolation-filters="sRGB">
<feFlood flood-opacity="0" result="BackgroundImageFix"/>
<feBlend mode="normal" in="SourceGraphic" in2="BackgroundImageFix" result="shape"/>
<feColorMatrix in="SourceAlpha" type="matrix" values="0 0 0 0 0 0 0 0 0 0 0 0 0 0 0 0 0 0 127 0" result="hardAlpha"/>
<feOffset dy="4"/>
<feGaussianBlur stdDeviation="3.5"/>
<feComposite in2="hardAlpha" operator="arithmetic" k2="-1" k3="1"/>
<feColorMatrix type="matrix" values="0 0 0 0 0 0 0 0 0 0 0 0 0 0 0 0 0 0 0.25 0"/>
<feBlend mode="normal" in2="shape" result="effect1_innerShadow_905_2668"/>
</filter>
<filter id="filter1_i_905_2668" x="0" y="0" width="195" height="61" filterUnits="userSpaceOnUse" color-interpolation-filters="sRGB">
<feFlood flood-opacity="0" result="BackgroundImageFix"/>
<feBlend mode="normal" in="SourceGraphic" in2="BackgroundImageFix" result="shape"/>
<feColorMatrix in="SourceAlpha" type="matrix" values="0 0 0 0 0 0 0 0 0 0 0 0 0 0 0 0 0 0 127 0" result="hardAlpha"/>
<feOffset dy="4"/>
<feGaussianBlur stdDeviation="3.5"/>
<feComposite in2="hardAlpha" operator="arithmetic" k2="-1" k3="1"/>
<feColorMatrix type="matrix" values="0 0 0 0 0 0 0 0 0 0 0 0 0 0 0 0 0 0 0.25 0"/>
<feBlend mode="normal" in2="shape" result="effect1_innerShadow_905_2668"/>
</filter>
<linearGradient id="paint0_linear_905_2668" x1="72.3447" y1="-9.40855" x2="-6.19241" y2="54.629" gradientUnits="userSpaceOnUse">
<stop stop-color="#EF7E2B"/>
<stop offset="1" stop-color="#FF3838"/>
</linearGradient>
<linearGradient id="paint1_linear_905_2668" x1="9.64383" y1="-13.8361" x2="80.4051" y2="62.4972" gradientUnits="userSpaceOnUse">
<stop stop-color="#EF7E2B"/>
<stop offset="1" stop-color="#FF3838"/>
</linearGradient>
<linearGradient id="paint2_linear_905_2668" x1="72.2953" y1="-9.962" x2="-6.58341" y2="49.9446" gradientUnits="userSpaceOnUse">
<stop stop-color="#EF7E2B"/>
<stop offset="1" stop-color="#FF3838"/>
</linearGradient>
<linearGradient id="paint3_linear_905_2668" x1="396" y1="99" x2="396" y2="239" gradientUnits="userSpaceOnUse">
<stop stop-color="#F2AA79"/>
<stop offset="1" stop-color="#E3965E"/>
</linearGradient>
</defs>
</svg>
