<svg width="380" height="254" viewBox="0 0 380 254" fill="none" xmlns="http://www.w3.org/2000/svg">
<line y1="-2.5" x2="15.8311" y2="-2.5" transform="matrix(0.955872 -0.293783 -0.257707 -0.966223 115.684 35.734)" stroke="#00B84C" stroke-width="5"/>
<path d="M137.286 30.7848L129.79 27.2343L132.676 38.0561L137.286 30.7848Z" fill="#00B84C"/>
<line y1="-2.5" x2="15.7957" y2="-2.5" transform="matrix(0.91611 0.400926 0.369123 -0.92938 117.424 51.1368)" stroke="#00B84C" stroke-width="5"/>
<path d="M137.083 61.5083L133.367 53.7595L129.224 64.1909L137.083 61.5083Z" fill="#00B84C"/>
<line y1="-2.5" x2="15.772" y2="-2.5" transform="matrix(0.961219 -0.275786 -0.244001 -0.969775 197.411 57.4294)" stroke="#00B84C" stroke-width="5"/>
<path d="M219.031 52.9134L211.595 49.203L214.338 60.1036L219.031 52.9134Z" fill="#00B84C"/>
<line y1="-2.5" x2="15.7446" y2="-2.5" transform="matrix(0.918065 0.396429 0.369308 -0.929307 197.589 72.4156)" stroke="#00B84C" stroke-width="5"/>
<path d="M217.225 82.6639L213.522 74.9359L209.364 85.3986L217.225 82.6639Z" fill="#00B84C"/>
<rect width="59.4949" height="37.0254" rx="3" transform="matrix(-1 0 0 1 282.708 71.9747)" fill="url(#paint0_linear_905_3253)"/>
<rect width="59.4949" height="37.0254" rx="3" transform="matrix(-1 0 0 1 282.708 26.1726)" fill="url(#paint1_linear_905_3253)"/>
<rect width="58.4512" height="37.0254" rx="3" transform="matrix(-1 0 0 1 198.52 49.0736)" fill="url(#paint2_linear_905_3253)"/>
<rect width="59.4949" height="37.0254" rx="3" transform="matrix(-1 0 0 1 117.495 27)" fill="url(#paint3_linear_905_3253)"/>
<rect width="59.4949" height="37.0254" rx="3" transform="matrix(-1 0 0 1 200.345 0)" fill="url(#paint4_linear_905_3253)"/>
<path d="M70.1941 223.901L72.6406 220.129L76.8347 222.434L72.6406 226.275L70.1941 223.901Z" fill="#784D2B"/>
<path d="M104.026 234.866V228.161L108.71 227.323V234.866H104.026Z" fill="#784D2B"/>
<path d="M80.4696 225.507L70.5436 218.872L91.9335 184.441L99.7624 160.905L105.005 192.612L80.4696 225.507Z" fill="#3E37AE"/>
<path d="M116.329 156.016L97.246 150.149C94.6177 151.379 94.7062 156.016 95.079 158.181L100.531 228.79H112.415L116.329 156.016Z" fill="#6C63FF"/>
<path d="M98.644 142.467L100.322 124.448V109.921L116.329 108.943L123.739 122.912L124.647 130.594L118.147 157.622L93.2616 149.94L98.644 142.467Z" fill="#40B17B"/>
<path d="M116.679 122.632L120.104 114.81C133.301 116.263 138.698 111.178 139.746 108.455L145.338 91.8326C145.082 91.3902 144.569 90.4637 144.569 90.2961C143.059 87.3348 144.732 85.0115 145.758 84.2199C146.247 84.4993 147.449 85.1977 148.344 85.7564C149.183 86.0358 149.672 86.9437 149.532 88.4104C150.721 89.5977 149.392 91.8326 148.344 93.0897C147.715 101.82 144.639 112.016 142.962 117.254C137.593 122.339 123.203 122.958 116.679 122.632Z" fill="#784D2B"/>
<path d="M128.282 88.8993C128.17 85.3793 125.44 82.7766 124.088 81.9152L112.974 87.5024C113.766 91.1574 115.364 98.9283 115.42 100.772C115.49 103.077 122.83 100.842 125.696 100.213C132.267 98.6769 129.61 92.3214 129.68 90.7849C131.777 88.4802 128.981 88.8294 128.282 88.8993Z" fill="#784D2B"/>
<path d="M128.422 94.6262C129.093 94.5144 129.773 93.9278 130.03 93.6484V94.277L129.54 94.6262H130.03V95.7878C130.085 95.8645 130.091 95.9224 130.03 95.9531V95.7878C129.834 95.516 129.022 95.0074 128.422 94.6262Z" fill="#910808"/>
<path d="M104.795 87.2231C109.884 75.6575 120.244 78.7724 124.787 81.7755L116.189 89.9469C117.145 91.7161 119.405 96.023 120.803 99.096C121.851 101.68 119.055 105.102 116.748 106.359C116.119 107.616 116.748 108.385 119.055 110.27C121.711 111.737 121.642 115.439 119.754 119.978C116.748 125.845 113.673 123.4 113.044 123.4C108.71 118.581 106.613 120.258 106.123 120.467C97.1062 128.569 90.7451 124.308 89.8364 123.4C84.3841 115.788 89.3471 111.178 90.7451 110.27C96.547 107.267 94.7994 103.775 94.7295 102.728C85.7122 87.7818 103.048 87.1532 104.795 87.2231Z" fill="#191D2E"/>
<path d="M126.081 89.2081C126.251 89.6384 126.186 90.0679 125.935 90.1673C125.684 90.2668 125.342 89.9985 125.171 89.5682C125 89.1379 125.066 88.7084 125.317 88.609C125.568 88.5095 125.91 88.7778 126.081 89.2081Z" fill="#191D2E"/>
<path d="M74.3183 226.206C71.3545 225.312 70.2407 223.319 70.0543 222.434L66 227.323C69.0524 229.511 75.6184 234.251 77.4638 235.704C79.3092 236.654 79.3512 235.587 79.1415 234.936C78.5124 234.004 76.667 230.955 74.3183 226.206Z" fill="#74B2DF"/>
<path d="M109.153 234.066C106.255 235.154 104.159 234.246 103.473 233.656L103.223 240C106.978 239.887 115.075 239.67 117.425 239.705C119.468 239.34 118.853 238.468 118.291 238.077C117.225 237.719 113.905 236.415 109.153 234.066Z" fill="#74B2DF"/>
<path d="M14.083 181.795H8.60523V187.791C13.5212 187.861 23.9149 188 26.1622 188C25.6706 185.211 22.1592 185.211 19.2096 185.142C15.333 185.142 14.1766 182.911 14.083 181.795Z" fill="#3951BA"/>
<path d="M31.9208 173.778H26.4431V179.774C31.359 179.843 41.7527 179.983 44 179.983C43.5084 177.194 39.997 177.194 37.0475 177.125C33.1709 177.125 32.0145 174.894 31.9208 173.778Z" fill="#3951BA"/>
<path d="M14.2234 35.8132C15.0661 32.0207 11.7654 29.6318 10.0097 28.9115C5.88176 21.0337 8.18381 19.3606 11.1334 13.9925C15.7684 8.27596 20.6843 10.2977 25.0385 11.3434C28.5218 11.5107 29.533 16.2002 29.6033 18.524L33.1147 21.1034C32.9274 21.2893 32.3281 21.94 31.4292 23.0554C33.536 32.4669 25.7407 32.6063 22.3698 33.3732C19.5607 34.0982 19.7948 39.2989 20.263 41.8086L13.7318 40.9721C13.7786 40.6003 13.9425 39.0479 14.2234 35.8132Z" fill="#A36622"/>
<path d="M21.9485 33.5126L19.4905 32.3972C20.7265 33.1222 21.0589 33.7682 21.1058 34.0703L21.9485 33.5126Z" fill="url(#paint5_linear_905_3253)"/>
<path d="M28.3392 26.2623C28.6435 26.6806 29.6033 27.3917 31.0079 26.8897C31.2888 27.5172 28.3392 27.9354 28.3392 26.2623Z" fill="#191D2E"/>
<path d="M13.17 26.0531L9.65862 29.1903C3.68926 22.428 5.51518 17.9663 5.51518 15.0383C5.86632 10.5765 18.1562 6.53308 19.8416 6.04508C28.901 5.41765 25.0385 11.5525 24.8278 11.2039C13.4228 9.30771 14.7384 17.6642 16.8218 22.0794C16.7984 22.3583 16.5269 22.9857 15.628 23.2646C15.628 21.7308 13.17 20.5457 12.1166 21.1034C9.98167 23.0554 11.9293 25.2166 13.17 26.0531Z" fill="#191D2E"/>
<path d="M13.5212 179.007H9.51819C9.51819 179.216 9.56032 180.08 9.72887 181.865C11.0772 183.706 12.8189 182.632 13.5212 181.865V179.007Z" fill="#D9D9D9"/>
<path d="M31.1483 171.408H27.1453C27.1453 171.617 27.1875 172.482 27.356 174.266C28.7044 176.107 30.446 175.033 31.1483 174.266V171.408Z" fill="#D9D9D9"/>
<path d="M2.43163 115.706C1.30799 111.244 1.12071 105.063 1.16753 102.53L31.1548 101.275L34.8066 138.084L32.4189 171.757H25.3259L23.3595 141.779L17.952 113.545V145.823L14.5108 179.774L7.4178 179.216C6.1537 161.276 3.38673 123.458 2.43163 115.706Z" fill="#C69C6D"/>
<path d="M0.248169 67.8819C-0.313653 56.8391 8.11367 44.5043 12.3976 39.7172L23.4935 41.5995L32.4827 102.042L0.248169 103.994C0.0608948 99.7414 -0.201289 86.5654 0.248169 67.8819Z" fill="#1B88BC"/>
<path d="M26.6729 64.2229C25.489 64.7372 21.6692 62.4657 19.9074 61.2657L18.3569 59.5942C16.0078 61.1371 11.5914 64.763 12.719 66.923C19.9074 73.5287 27.3508 72.0647 28.8308 72.0647C39.5757 67.4636 32.029 60.5799 25.8977 57.2155C25.8977 57.9656 26.0528 60.6109 26.6729 62.5139C27.5891 63.0924 27.4482 63.0657 26.6729 64.2229Z" fill="#A36622"/>
<path d="M11.5548 40.0658L12.9593 36.3709C15.4875 36.9751 21.176 38.309 23.7042 38.8109C24.6593 39.4802 24.1021 41.646 23.7042 42.6452L11.5548 40.0658Z" fill="#3951BA"/>
<path d="M27.1134 19.7265C27.2823 20.1981 27.2118 20.6536 26.956 20.7439C26.7001 20.8342 26.3559 20.525 26.187 20.0534C26.0181 19.5818 26.0886 19.1263 26.3445 19.036C26.6003 18.9457 26.9445 19.2549 27.1134 19.7265Z" fill="#191D2E"/>
<path d="M13.0296 22.6371C12.7955 23.3111 12.7065 24.5891 14.2234 24.3103C13.8302 23.7526 13.2637 22.9625 13.0296 22.6371Z" fill="#825018"/>
<path d="M10.7823 68.3002L20.5439 59.9344C20.0992 58.7957 18.1983 54.8313 14.1532 48.0829C8.25409 46.5213 5.09384 51.8475 4.25111 54.7058L10.7823 68.3002Z" fill="#3951BA"/>
<path d="M280.15 223.736C279.033 220.396 277.312 200.499 276.591 190.967C277.777 190.967 282.467 191.384 291.736 193.054C287.995 199.566 289.06 229.997 290.061 244.399H284.338C283.5 239.923 281.49 229.524 280.15 223.736Z" fill="#00ADFF"/>
<path d="M273.38 190.132L260.05 188.184C257.928 190.299 257.863 203.768 258.096 210.239L259.073 240.225C260.096 240.271 262.646 240.336 264.656 240.225C264.991 225.698 270.612 200.777 273.38 190.132Z" fill="#00ADFF"/>
<path d="M225.084 113.046C222.181 113.936 225.177 116.942 227.038 118.333C228.364 123.621 230.877 126.96 232.133 129.395C234.179 133.361 244.789 138.022 249.441 138.927C249.535 136.005 249.483 130.23 248.534 130.508C238.903 132.039 230.737 119.377 230.039 117.846C229.76 117.359 229.76 114.994 230.039 113.463C230.318 111.932 227.876 111.376 225.991 110.958C224.456 109.984 223.549 107.549 223.2 107.688C222.223 108.245 225.154 111.654 225.084 113.046Z" fill="#D9A86A"/>
<path d="M302.553 159.52C306.462 156.96 304.182 148.806 302.553 145.049C303.205 144.678 305.778 143.491 310.859 141.71C315.325 147.554 313.93 162.164 313.232 162.303C310.105 166.589 296.109 171.185 289.502 172.948V166.338C292.224 165.132 298.645 162.08 302.553 159.52Z" fill="#D9A86A"/>
<path d="M265.075 102.192C265.633 97.8508 267.96 95.2349 269.053 94.4696L270.589 92.8694L285.733 105.184L279.173 117.498V123.134L274.078 123.76C274.194 123.25 274.483 121.617 274.706 119.168C275.125 115.202 270.309 113.463 268.216 113.254C263.916 113.143 263.353 107.828 263.609 105.184L262.632 103.653C263.121 103.329 264.293 102.582 265.075 102.192Z" fill="#D9A86A"/>
<path d="M272.194 122.09C268.732 125.207 255.257 128.491 248.953 129.743V144.005L264.168 139.483L255.374 189.993L295.086 195.141L291.247 160.912C291.317 155.926 291.415 144.659 291.247 139.483C297.612 138.648 299.901 143.449 300.25 145.953C301.576 145.907 305.903 145.132 312.604 142.405C306.252 124.177 280.848 120.142 280.778 120.072C276.66 124.038 271.915 122.368 272.194 122.09Z" fill="#E88080"/>
<path d="M265.215 108.245C265.843 108.454 267.169 108.649 267.448 107.758C267.518 107.758 267.936 109.845 265.215 108.245Z" fill="#BA0F0F"/>
<path d="M276.94 106.019L268.565 94.887C273.31 87.3732 282.872 89.2516 283.012 89.1125C293.397 90.003 298.505 107.248 299.762 115.759L273.939 118.403L276.94 106.019Z" fill="#F8D347"/>
<path d="M268.774 102.61C268.774 102.994 268.586 103.305 268.355 103.305C268.124 103.305 267.936 102.994 267.936 102.61C267.936 102.225 268.124 101.914 268.355 101.914C268.586 101.914 268.774 102.225 268.774 102.61Z" fill="#784B17"/>
<path d="M263.749 240.085H259.422V244.329C257.793 245.373 253.908 247.571 251.396 248.017C250.111 248.184 249.79 249.199 249.79 249.686H263.749V240.085Z" fill="#784D2B"/>
<path d="M289.572 244.399H285.245V248.643C283.616 249.686 279.731 251.885 277.219 252.33C275.935 252.497 275.614 253.513 275.614 254H289.572V244.399Z" fill="#784D2B"/>
<path d="M298.515 41.0243L295.177 44.1573C294.366 42.8577 292.507 40.2723 291.562 40.328C290.38 40.3976 288.989 38.3089 288.294 36.0113C287.668 35.5936 288.225 33.9923 288.294 32.4605C287.947 31.0681 288.989 30.8592 290.936 30.2326C294.997 30.901 295.455 35.8953 295.177 38.3089L298.515 41.0243Z" fill="#BD8745"/>
<path d="M334.738 174.98H339.049V179.993H334.738V174.98Z" fill="#BFBFBF"/>
<path d="M360.602 176.651H364.913V181.664H360.602V176.651Z" fill="#BFBFBF"/>
<path d="M331.053 133.206C330.163 121.342 332.907 97.0714 334.39 86.4189H368.18L366.303 94.1472L364.565 137.662L367.416 177.835L358.169 179.088L351.842 140.029L349.2 106.749L343.985 137.662L341.135 176.442H331.957C331.864 168.018 331.554 147.576 331.053 133.206Z" fill="#040404"/>
<path d="M366.234 97.0017L363.105 87.5329L367.972 89.9001L366.234 97.0017Z" fill="#BD8745"/>
<path d="M334.39 15.0546C335.294 14.428 337.171 13.1747 337.45 13.1747C337.866 6.13758 340.994 3.43003 342.8 2.82636L349.756 2.03495L357.96 8.09221C357.96 11.4806 357.515 18.8839 355.735 21.3904C354.122 21.7802 354.553 31.1145 354.97 35.7328L346.488 35.2455V32.1124C346.419 31.4162 346.321 29.1047 346.488 25.4285C346.349 24.2449 342.456 24.1753 340.022 24.1057C335.628 23.3816 336.476 18.8839 337.45 16.7256L334.39 15.0546Z" fill="#C18F51"/>
<path d="M354.066 1.26908C342.219 -1.68296 341.575 1.19946 342.734 3.00968C344.124 3.28817 347.726 3.95656 351.007 4.40216C353.51 5.51614 351.262 8.67241 349.825 10.1113L351.007 13.4532L349.825 16.2382C350.219 16.2846 351.258 16.3496 352.259 16.2382C352.398 13.3836 352.954 13.4532 354.066 12.757C357.237 14.2052 354.646 16.3774 352.954 17.2826C353.325 17.561 354.4 18.8143 355.735 21.5992C369.571 7.74409 354.484 1.26908 354.066 1.26908Z" fill="#BFBFBF"/>
<path d="M357.195 31.3465C350.02 34.7442 345.816 32.7622 344.611 31.3465C344.611 32.8732 338.464 34.4689 334.706 35.4446L334.669 35.4543C331.887 36.1784 329.106 39.4229 328.063 40.9546L314.714 54.1831L298.306 39.214L292.327 44.6447L312.768 68.7345L330.149 56.2719L334.669 85.305H362.062L366.512 50.4235L371.518 64.2786L362.062 87.5329L368.041 91.0141L380 65.3926L371.518 35.4543C367.277 34.0851 358.475 31.3465 357.195 31.3465Z" fill="#83CBFF"/>
<path d="M339.959 19.2696C339.578 19.7204 338.869 19.6854 338.399 19.5658C338.281 19.5356 338.15 19.5459 338.049 19.6151C336.877 20.4155 339.132 20.4128 339.466 20.346C341.431 19.7244 341.05 19.0643 340.582 18.8817C340.317 18.778 340.143 19.0518 339.959 19.2696Z" fill="#352A2A"/>
<path d="M341.969 12.4089C341.969 13.0626 341.751 13.5925 341.482 13.5925C341.213 13.5925 340.995 13.0626 340.995 12.4089C340.995 11.7552 341.213 11.2253 341.482 11.2253C341.751 11.2253 341.969 11.7552 341.969 12.4089Z" fill="#352A2A"/>
<path d="M333.417 85.8619C333.417 85.0929 334.04 84.4695 334.808 84.4695H363.314L362.271 87.5329H333.417V85.8619Z" fill="black"/>
<path d="M340.578 185.424L323.475 186.051C322.362 184.519 325.004 183.474 327.299 182.778C333.139 183.196 332.791 180.689 333.765 179.158C334.877 180.049 338.771 179.529 340.578 179.158V185.424Z" fill="black"/>
<path d="M366.009 187.373L348.906 188C347.793 186.468 350.435 185.424 352.73 184.728C358.57 185.145 358.222 182.639 359.196 181.107C360.308 181.998 364.202 181.479 366.009 181.107V187.373Z" fill="black"/>
<defs>
<linearGradient id="paint0_linear_905_3253" x1="67.3061" y1="5.50735e-07" x2="0.238813" y2="47.4378" gradientUnits="userSpaceOnUse">
<stop stop-color="#EF7E2B"/>
<stop offset="1" stop-color="#FF3838"/>
</linearGradient>
<linearGradient id="paint1_linear_905_3253" x1="59.1999" y1="-9.51914e-07" x2="-3.36902" y2="41.3036" gradientUnits="userSpaceOnUse">
<stop stop-color="#EF7E2B"/>
<stop offset="1" stop-color="#FF3838"/>
</linearGradient>
<linearGradient id="paint2_linear_905_3253" x1="58.731" y1="-6.95209" x2="-0.157346" y2="45.8021" gradientUnits="userSpaceOnUse">
<stop stop-color="#EF7E2B"/>
<stop offset="1" stop-color="#FF3838"/>
</linearGradient>
<linearGradient id="paint3_linear_905_3253" x1="7.96888" y1="-10.2237" x2="59.4962" y2="51.9362" gradientUnits="userSpaceOnUse">
<stop stop-color="#EF7E2B"/>
<stop offset="1" stop-color="#FF3838"/>
</linearGradient>
<linearGradient id="paint4_linear_905_3253" x1="59.739" y1="-7.36105" x2="0.0327457" y2="43.3484" gradientUnits="userSpaceOnUse">
<stop stop-color="#EF7E2B"/>
<stop offset="1" stop-color="#FF3838"/>
</linearGradient>
<linearGradient id="paint5_linear_905_3253" x1="27.0286" y1="6" x2="27.0286" y2="203.167" gradientUnits="userSpaceOnUse">
<stop stop-color="#825018"/>
<stop offset="1" stop-color="#825018" stop-opacity="0"/>
</linearGradient>
</defs>
</svg>
