<svg width="404" height="363" viewBox="0 0 404 363" fill="none" xmlns="http://www.w3.org/2000/svg">
<g clip-path="url(#clip0_927_2623)">
<path d="M191.09 344.88V328.946H196.661C197.771 328.946 198.686 329.138 199.407 329.521C200.128 329.9 200.665 330.411 201.018 331.054C201.37 331.692 201.547 332.4 201.547 333.178C201.547 333.863 201.425 334.428 201.181 334.874C200.942 335.32 200.626 335.673 200.232 335.933C199.843 336.192 199.42 336.384 198.964 336.508V336.664C199.451 336.695 199.941 336.866 200.434 337.177C200.927 337.489 201.339 337.935 201.671 338.516C202.003 339.097 202.169 339.807 202.169 340.648C202.169 341.446 201.988 342.165 201.625 342.803C201.261 343.441 200.688 343.946 199.905 344.32C199.122 344.693 198.103 344.88 196.847 344.88H191.09ZM193.019 343.168H196.847C198.108 343.168 199.003 342.925 199.532 342.437C200.066 341.944 200.333 341.348 200.333 340.648C200.333 340.108 200.196 339.61 199.921 339.154C199.646 338.692 199.254 338.324 198.746 338.049C198.237 337.769 197.636 337.629 196.941 337.629H193.019V343.168ZM193.019 335.948H196.598C197.179 335.948 197.703 335.834 198.17 335.606C198.642 335.377 199.016 335.056 199.29 334.641C199.571 334.226 199.711 333.738 199.711 333.178C199.711 332.478 199.467 331.884 198.979 331.396C198.492 330.904 197.719 330.657 196.661 330.657H193.019V335.948ZM208.608 345.16C207.85 345.16 207.163 345.018 206.546 344.732C205.929 344.442 205.438 344.024 205.075 343.48C204.712 342.93 204.531 342.266 204.531 341.488C204.531 340.803 204.665 340.248 204.935 339.823C205.205 339.392 205.565 339.055 206.017 338.811C206.468 338.568 206.966 338.386 207.511 338.267C208.06 338.142 208.613 338.044 209.168 337.971C209.894 337.878 210.483 337.808 210.934 337.761C211.39 337.709 211.722 337.623 211.93 337.504C212.143 337.385 212.249 337.177 212.249 336.882V336.819C212.249 336.052 212.039 335.455 211.619 335.03C211.204 334.605 210.573 334.392 209.728 334.392C208.851 334.392 208.164 334.584 207.666 334.968C207.168 335.352 206.818 335.761 206.616 336.197L204.873 335.575C205.184 334.848 205.599 334.283 206.118 333.878C206.642 333.469 207.212 333.183 207.83 333.023C208.452 332.857 209.064 332.774 209.666 332.774C210.05 332.774 210.491 332.82 210.988 332.914C211.492 333.002 211.977 333.186 212.443 333.466C212.915 333.746 213.307 334.169 213.618 334.734C213.93 335.3 214.085 336.057 214.085 337.006V344.88H212.249V343.262H212.156C212.031 343.521 211.824 343.799 211.533 344.094C211.243 344.39 210.856 344.642 210.374 344.849C209.891 345.056 209.303 345.16 208.608 345.16ZM208.888 343.511C209.614 343.511 210.226 343.368 210.724 343.083C211.227 342.798 211.606 342.429 211.86 341.978C212.119 341.527 212.249 341.052 212.249 340.554V338.874C212.171 338.967 212 339.053 211.735 339.13C211.476 339.203 211.175 339.268 210.833 339.325C210.496 339.377 210.166 339.423 209.845 339.465C209.528 339.501 209.272 339.532 209.074 339.558C208.597 339.62 208.151 339.722 207.736 339.862C207.326 339.997 206.994 340.201 206.74 340.476C206.491 340.746 206.367 341.114 206.367 341.581C206.367 342.219 206.603 342.702 207.075 343.028C207.552 343.35 208.156 343.511 208.888 343.511ZM225.902 335.606L224.252 336.073C224.149 335.798 223.996 335.531 223.793 335.271C223.596 335.007 223.326 334.789 222.984 334.618C222.642 334.446 222.203 334.361 221.669 334.361C220.938 334.361 220.328 334.529 219.841 334.867C219.358 335.199 219.117 335.621 219.117 336.135C219.117 336.591 219.283 336.952 219.615 337.216C219.947 337.481 220.466 337.701 221.171 337.878L222.945 338.313C224.014 338.573 224.81 338.97 225.334 339.504C225.858 340.033 226.12 340.715 226.12 341.55C226.12 342.235 225.923 342.847 225.528 343.386C225.139 343.926 224.595 344.351 223.894 344.662C223.194 344.973 222.38 345.129 221.451 345.129C220.232 345.129 219.224 344.865 218.425 344.335C217.626 343.806 217.12 343.034 216.908 342.017L218.65 341.581C218.816 342.224 219.13 342.707 219.592 343.028C220.059 343.35 220.668 343.511 221.42 343.511C222.276 343.511 222.956 343.329 223.459 342.966C223.967 342.598 224.221 342.157 224.221 341.643C224.221 341.228 224.076 340.881 223.786 340.601C223.495 340.316 223.049 340.103 222.447 339.963L220.455 339.496C219.361 339.237 218.557 338.835 218.043 338.29C217.535 337.74 217.281 337.053 217.281 336.228C217.281 335.554 217.47 334.957 217.849 334.439C218.233 333.92 218.754 333.513 219.413 333.217C220.077 332.921 220.829 332.774 221.669 332.774C222.852 332.774 223.78 333.033 224.455 333.552C225.134 334.07 225.617 334.755 225.902 335.606ZM228.884 344.88V332.929H230.72V344.88H228.884ZM229.817 330.937C229.459 330.937 229.151 330.816 228.891 330.572C228.637 330.328 228.51 330.035 228.51 329.693C228.51 329.35 228.637 329.057 228.891 328.813C229.151 328.57 229.459 328.448 229.817 328.448C230.175 328.448 230.481 328.57 230.735 328.813C230.995 329.057 231.124 329.35 231.124 329.693C231.124 330.035 230.995 330.328 230.735 330.572C230.481 330.816 230.175 330.937 229.817 330.937ZM238.938 345.129C237.818 345.129 236.853 344.865 236.044 344.335C235.235 343.806 234.612 343.078 234.176 342.149C233.741 341.221 233.523 340.16 233.523 338.967C233.523 337.753 233.746 336.682 234.192 335.754C234.643 334.82 235.271 334.091 236.075 333.567C236.884 333.038 237.828 332.774 238.907 332.774C239.747 332.774 240.505 332.929 241.179 333.24C241.853 333.552 242.406 333.987 242.836 334.548C243.267 335.108 243.534 335.761 243.638 336.508H241.801C241.661 335.964 241.35 335.481 240.868 335.061C240.39 334.636 239.747 334.423 238.938 334.423C238.222 334.423 237.595 334.61 237.055 334.983C236.521 335.352 236.103 335.873 235.803 336.547C235.507 337.216 235.359 338.002 235.359 338.905C235.359 339.828 235.504 340.632 235.795 341.317C236.09 342.001 236.505 342.533 237.04 342.912C237.579 343.29 238.212 343.48 238.938 343.48C239.415 343.48 239.848 343.397 240.237 343.231C240.626 343.065 240.956 342.826 241.226 342.515C241.495 342.204 241.687 341.83 241.801 341.394H243.638C243.534 342.1 243.277 342.735 242.867 343.301C242.463 343.861 241.926 344.307 241.257 344.639C240.593 344.966 239.82 345.129 238.938 345.129Z" fill="#FFC61A"/>
<path d="M168.923 17.4301H166.9L172.751 1.49551H174.743L180.594 17.4301H178.571L173.809 4.0164H173.685L168.923 17.4301ZM169.67 11.2056H177.824V12.9173H169.67V11.2056ZM187.34 17.679C186.344 17.679 185.464 17.4275 184.702 16.9243C183.939 16.416 183.343 15.7002 182.912 14.7769C182.482 13.8484 182.267 12.7514 182.267 11.4857C182.267 10.2305 182.482 9.14118 182.912 8.21789C183.343 7.2946 183.942 6.58139 184.71 6.07825C185.477 5.5751 186.364 5.32353 187.371 5.32353C188.149 5.32353 188.763 5.45321 189.215 5.71256C189.671 5.96673 190.019 6.2572 190.257 6.58398C190.501 6.90558 190.69 7.17011 190.825 7.3776H190.981V1.49551H192.817V17.4301H191.043V15.5938H190.825C190.69 15.8117 190.498 16.0866 190.249 16.4186C190 16.7454 189.645 17.0384 189.184 17.2978C188.722 17.5519 188.107 17.679 187.34 17.679ZM187.588 16.0296C188.325 16.0296 188.947 15.8376 189.456 15.4538C189.964 15.0648 190.351 14.5279 190.615 13.8432C190.88 13.1534 191.012 12.3571 191.012 11.4546C191.012 10.5624 190.882 9.78178 190.623 9.11266C190.364 8.43834 189.98 7.91445 189.471 7.54099C188.963 7.16233 188.335 6.97301 187.588 6.97301C186.81 6.97301 186.162 7.17271 185.643 7.57211C185.13 7.96632 184.743 8.50318 184.484 9.18268C184.23 9.85699 184.103 10.6143 184.103 11.4546C184.103 12.3053 184.232 13.0781 184.492 13.7732C184.756 14.4631 185.145 15.0129 185.659 15.4227C186.178 15.8273 186.821 16.0296 187.588 16.0296ZM206.207 5.47914L201.788 17.4301H199.921L195.501 5.47914H197.493L200.792 15.0025H200.917L204.216 5.47914H206.207ZM211.784 17.7102C211.027 17.7102 210.339 17.5675 209.722 17.2822C209.105 16.9917 208.615 16.5742 208.252 16.0296C207.889 15.4797 207.707 14.8158 207.707 14.0377C207.707 13.3531 207.842 12.798 208.112 12.3727C208.381 11.9422 208.742 11.605 209.193 11.3612C209.644 11.1174 210.142 10.9359 210.687 10.8166C211.237 10.6921 211.789 10.5936 212.344 10.5209C213.07 10.4276 213.659 10.3575 214.11 10.3109C214.567 10.259 214.899 10.1734 215.106 10.0541C215.319 9.9348 215.425 9.72732 215.425 9.43166V9.36941C215.425 8.60173 215.215 8.00523 214.795 7.57989C214.38 7.15455 213.75 6.94189 212.904 6.94189C212.028 6.94189 211.341 7.13381 210.843 7.51765C210.345 7.90149 209.995 8.31126 209.792 8.74697L208.049 8.12453C208.361 7.39834 208.776 6.83296 209.294 6.42837C209.818 6.0186 210.389 5.73331 211.006 5.57251C211.628 5.40653 212.24 5.32353 212.842 5.32353C213.226 5.32353 213.667 5.37022 214.165 5.46358C214.668 5.55176 215.153 5.7359 215.62 6.016C216.092 6.2961 216.483 6.71884 216.795 7.28423C217.106 7.84962 217.262 8.60692 217.262 9.55615V17.4301H215.425V15.8117H215.332C215.207 16.0711 215 16.3486 214.71 16.6442C214.419 16.9399 214.033 17.1915 213.55 17.3989C213.068 17.6064 212.479 17.7102 211.784 17.7102ZM212.064 16.0607C212.79 16.0607 213.402 15.918 213.9 15.6327C214.403 15.3475 214.782 14.9792 215.036 14.5279C215.296 14.0766 215.425 13.602 215.425 13.1041V11.4235C215.348 11.5168 215.176 11.6024 214.912 11.6802C214.652 11.7529 214.352 11.8177 214.009 11.8747C213.672 11.9266 213.343 11.9733 213.021 12.0148C212.705 12.0511 212.448 12.0822 212.251 12.1082C211.774 12.1704 211.328 12.2716 210.913 12.4116C210.503 12.5465 210.171 12.7514 209.917 13.0263C209.668 13.296 209.543 13.6643 209.543 14.1311C209.543 14.7691 209.779 15.2515 210.251 15.5783C210.728 15.8999 211.333 16.0607 212.064 16.0607ZM222.449 10.2408V17.4301H220.613V5.47914H222.387V7.34647H222.543C222.823 6.73959 223.248 6.25201 223.819 5.88373C224.389 5.51027 225.126 5.32353 226.028 5.32353C226.837 5.32353 227.545 5.48952 228.152 5.82149C228.759 6.14827 229.231 6.64623 229.568 7.31535C229.906 7.97929 230.074 8.81959 230.074 9.83625V17.4301H228.238V9.96074C228.238 9.02188 227.994 8.29051 227.507 7.76662C227.019 7.23755 226.35 6.97301 225.499 6.97301C224.913 6.97301 224.389 7.10009 223.928 7.35425C223.471 7.60842 223.111 7.97929 222.846 8.46687C222.581 8.95445 222.449 9.54577 222.449 10.2408ZM238.285 17.679C237.164 17.679 236.199 17.4145 235.39 16.8854C234.581 16.3563 233.959 15.6276 233.523 14.6991C233.087 13.7706 232.869 12.7099 232.869 11.5168C232.869 10.3031 233.092 9.23196 233.538 8.30348C233.99 7.36982 234.617 6.64104 235.421 6.11715C236.23 5.58807 237.175 5.32353 238.253 5.32353C239.094 5.32353 239.851 5.47914 240.525 5.79037C241.2 6.10159 241.752 6.5373 242.183 7.0975C242.613 7.6577 242.88 8.31126 242.984 9.05819H241.148C241.008 8.51355 240.697 8.03116 240.214 7.61101C239.737 7.18568 239.094 6.97301 238.285 6.97301C237.569 6.97301 236.941 7.15974 236.402 7.53321C235.867 7.90149 235.45 8.42278 235.149 9.0971C234.853 9.76622 234.705 10.5521 234.705 11.4546C234.705 12.3779 234.851 13.1819 235.141 13.8666C235.437 14.5513 235.852 15.0829 236.386 15.4616C236.926 15.8402 237.558 16.0296 238.285 16.0296C238.762 16.0296 239.195 15.9466 239.584 15.7806C239.973 15.6146 240.302 15.376 240.572 15.0648C240.842 14.7535 241.034 14.3801 241.148 13.9444H242.984C242.88 14.6498 242.623 15.2852 242.214 15.8506C241.809 16.4108 241.272 16.8569 240.603 17.1889C239.939 17.5156 239.166 17.679 238.285 17.679ZM250.679 17.679C249.527 17.679 248.534 17.4249 247.699 16.9165C246.869 16.403 246.228 15.6872 245.777 14.7691C245.331 13.8458 245.108 12.7721 245.108 11.548C245.108 10.3238 245.331 9.24493 245.777 8.31126C246.228 7.37241 246.856 6.64104 247.66 6.11715C248.469 5.58807 249.413 5.32353 250.492 5.32353C251.115 5.32353 251.729 5.42727 252.336 5.63475C252.943 5.84224 253.496 6.17939 253.993 6.64623C254.491 7.10787 254.888 7.71994 255.184 8.48243C255.48 9.24493 255.627 10.1838 255.627 11.299V12.077H246.415V10.4898H253.76C253.76 9.8155 253.625 9.2138 253.355 8.68473C253.091 8.15565 252.712 7.73809 252.219 7.43206C251.732 7.12603 251.156 6.97301 250.492 6.97301C249.761 6.97301 249.128 7.15455 248.594 7.51765C248.065 7.87555 247.658 8.34238 247.372 8.91814C247.087 9.4939 246.944 10.1112 246.944 10.7699V11.8281C246.944 12.7306 247.1 13.4957 247.411 14.1233C247.728 14.7458 248.166 15.2204 248.726 15.5472C249.286 15.8688 249.937 16.0296 250.679 16.0296C251.161 16.0296 251.597 15.9621 251.986 15.8273C252.38 15.6872 252.72 15.4797 253.005 15.2048C253.291 14.9247 253.511 14.5772 253.667 14.1622L255.441 14.6602C255.254 15.2619 254.94 15.791 254.499 16.2474C254.058 16.6987 253.514 17.0514 252.865 17.3056C252.217 17.5545 251.488 17.679 250.679 17.679ZM262.933 17.679C261.937 17.679 261.058 17.4275 260.296 16.9243C259.533 16.416 258.937 15.7002 258.506 14.7769C258.076 13.8484 257.86 12.7514 257.86 11.4857C257.86 10.2305 258.076 9.14118 258.506 8.21789C258.937 7.2946 259.536 6.58139 260.303 6.07825C261.071 5.5751 261.958 5.32353 262.964 5.32353C263.742 5.32353 264.357 5.45321 264.808 5.71256C265.265 5.96673 265.612 6.2572 265.851 6.58398C266.095 6.90558 266.284 7.17011 266.419 7.3776H266.575V1.49551H268.411V17.4301H266.637V15.5938H266.419C266.284 15.8117 266.092 16.0866 265.843 16.4186C265.594 16.7454 265.239 17.0384 264.777 17.2978C264.316 17.5519 263.701 17.679 262.933 17.679ZM263.182 16.0296C263.919 16.0296 264.541 15.8376 265.05 15.4538C265.558 15.0648 265.944 14.5279 266.209 13.8432C266.473 13.1534 266.606 12.3571 266.606 11.4546C266.606 10.5624 266.476 9.78178 266.217 9.11266C265.957 8.43834 265.573 7.91445 265.065 7.54099C264.557 7.16233 263.929 6.97301 263.182 6.97301C262.404 6.97301 261.756 7.17271 261.237 7.57211C260.724 7.96632 260.337 8.50318 260.078 9.18268C259.824 9.85699 259.697 10.6143 259.697 11.4546C259.697 12.3053 259.826 13.0781 260.086 13.7732C260.35 14.4631 260.739 15.0129 261.253 15.4227C261.771 15.8273 262.415 16.0296 263.182 16.0296Z" fill="#029D41"/>
<path d="M301.07 96.7101C299.8 108.65 298.37 121.92 303.58 127.99C308.79 134.06 318.58 131.63 318.58 131.63L319.25 132.93C319.605 133.704 320.179 134.356 320.9 134.807C321.622 135.259 322.46 135.489 323.31 135.47C330.67 134.82 352.31 129.67 352.31 129.67C352.31 129.67 368.06 133.55 371.81 124.67C374.55 118.19 371.55 115.13 369.75 112.32C367.48 108.73 368.4 99.5901 367.75 92.9301C367.1 86.2701 365.19 81.7701 359.24 79.6501C355.24 78.2201 343.14 72.7701 341.42 70.3601L335.57 79.8101C335.215 80.3791 334.716 80.8438 334.123 81.1567C333.529 81.4695 332.864 81.6194 332.194 81.5909C331.524 81.5624 330.873 81.3567 330.309 80.9946C329.744 80.6326 329.286 80.1272 328.98 79.5301C327.902 77.2722 326.56 75.1507 324.98 73.2101C324.931 73.2894 324.878 73.3662 324.82 73.4401C322.55 76.5001 303.89 85.8101 302.48 90.6201C301.873 92.6159 301.402 94.6506 301.07 96.7101Z" fill="#7794FF"/>
<path d="M301 97.2901C301 97.2901 301 97.1101 301.07 96.7101" stroke="black" stroke-width="0.65" stroke-miterlimit="10"/>
<path d="M287.41 93.63L287.68 94.17" stroke="black" stroke-width="0.65" stroke-miterlimit="10"/>
<path d="M275.91 84.7201C276.092 85.135 276.419 85.4693 276.83 85.6601C276.8 85.9546 276.845 86.252 276.96 86.5247C277.076 86.7974 277.258 87.0366 277.49 87.2201C277.803 87.5269 278.173 87.7683 278.58 87.9301C278.51 88.6501 278.44 90.1401 278.99 90.4201C279.383 90.5911 279.815 90.6533 280.24 90.6001C280.174 91.0463 280.28 91.5009 280.536 91.8722C280.792 92.2435 281.18 92.5036 281.62 92.6001C282.292 92.7454 282.993 92.6718 283.62 92.3901C283.62 92.3901 285.52 93.2501 286.7 93.8501C287.017 94.0021 287.353 94.1066 287.7 94.1601C291.95 102.46 304.37 127.26 311.8 127.95C313.353 128.145 314.929 127.866 316.32 127.15C320.09 125.15 320.84 119.55 316.01 112.99C313.52 109.62 306.44 102.19 301.09 96.7101C297.43 92.9501 294.58 90.1001 294.58 90.1001C294.58 90.1001 291.73 86.8501 289.85 85.1001C287.97 83.3501 286.43 81.6001 284.44 81.2701C282.608 81.1555 280.768 81.3105 278.98 81.7301L277.24 81.9501C276.39 81.8901 275.65 83.9101 275.91 84.7201Z" fill="#FEC2A0"/>
<path d="M279.26 84.5701C279.49 84.9801 279.12 85.3801 278.41 85.8201C278.153 85.9215 277.876 85.9599 277.601 85.9321C277.326 85.9042 277.062 85.811 276.83 85.6601C277.027 85.9104 277.288 86.1023 277.586 86.2151C277.884 86.3279 278.207 86.3572 278.52 86.3001C279.52 86.0601 279.26 84.5701 279.26 84.5701Z" fill="#F99979"/>
<path d="M288.49 95.74C288.958 95.3558 289.509 95.0854 290.1 94.95C290.762 94.8381 291.438 94.8381 292.1 94.95C292.1 94.95 290.7 93.89 290 94.07C289.239 94.2665 288.445 94.3006 287.67 94.17L288.49 95.74Z" fill="#F99979"/>
<path d="M285.9 90.1001C285.95 90.3788 285.933 90.6653 285.852 90.9363C285.77 91.2074 285.626 91.4553 285.43 91.6601C284.89 92.0377 284.271 92.2873 283.62 92.3901C283.62 92.3901 285.81 90.9201 285.9 90.1001Z" fill="#F99979"/>
<path d="M265.72 77.2801C268.24 81.1001 272.72 83.0201 275.02 81.4801C277.32 79.9401 276.71 75.4801 274.19 71.6901C271.67 67.9001 267.73 66.0201 265.39 67.5701C263.05 69.1201 263.21 73.4601 265.72 77.2801Z" fill="#4F6DDB"/>
<path d="M277.36 83.9801L274.36 80.7501L275.72 79.5901L277.72 81.7101L277.36 83.9801Z" fill="#4F6DDB"/>
<path d="M277.071 82.9601L274.811 80.6401L276.271 79.2001L278.511 81.6201L277.071 82.9601Z" fill="#7794FF"/>
<path d="M284.8 89.1001C283.978 89.6326 283.077 90.0309 282.13 90.2801C281.508 90.4255 280.877 90.5258 280.24 90.5801C280.24 90.5801 280.62 91.2901 282.52 90.7701C283.005 90.6924 283.465 90.5004 283.862 90.21C284.258 89.9197 284.58 89.5392 284.8 89.1001Z" fill="#F99979"/>
<path d="M285.59 83.5401C285.59 83.5401 282.9 83.0201 281.1 82.4701C279.3 81.9201 277.49 80.2601 277.01 81.5501C276.53 82.8401 277.45 84.1601 279.26 84.5501C281.07 84.9401 283.09 85.4001 283.35 86.2801C283.61 87.6848 284.385 88.9422 285.521 89.8074C286.658 90.6725 288.077 91.0834 289.5 90.9601" fill="#FEC2A0"/>
<path d="M285.59 83.5401C285.59 83.5401 282.9 83.0201 281.1 82.4701C279.3 81.9201 277.49 80.2601 277.01 81.5501C276.53 82.8401 277.45 84.1601 279.26 84.5501C281.07 84.9401 283.09 85.4001 283.35 86.2801C283.61 87.6848 284.385 88.9422 285.521 89.8074C286.658 90.6725 288.077 91.0834 289.5 90.9601" stroke="#F99979" stroke-width="0.65" stroke-miterlimit="10" stroke-linecap="round"/>
<path d="M283.35 86.3C283.35 86.3 280.96 88.05 280.11 88.09C279.595 88.1436 279.073 88.0891 278.58 87.9301C278.916 88.2118 279.319 88.4014 279.751 88.4803C280.182 88.5591 280.626 88.5246 281.04 88.3801C281.544 88.205 282.009 87.9309 282.405 87.5736C282.802 87.2164 283.123 86.7834 283.35 86.3Z" fill="#F99979"/>
<path d="M275.221 80.7103C277.558 79.1677 277.407 74.8197 274.885 70.9987C272.363 67.1777 268.424 65.3307 266.087 66.8733C263.75 68.416 263.9 72.764 266.423 76.585C268.945 80.406 272.884 82.253 275.221 80.7103Z" fill="#7794FF"/>
<path d="M267.92 75.5C269.79 78.33 272.31 80.08 274.05 78.94C275.79 77.8 275.67 74.57 273.8 71.74C271.93 68.91 269.01 67.54 267.28 68.68C265.55 69.82 266.05 72.67 267.92 75.5Z" fill="white"/>
<path d="M57.2305 33.26L57.2305 126.48H18.6705L18.6705 33.26C18.6758 28.1501 20.7094 23.2513 24.3245 19.6399C27.9396 16.0285 32.8406 14 37.9505 14C43.0604 14 47.9613 16.0285 51.5764 19.6399C55.1915 23.2513 57.2252 28.1501 57.2305 33.26Z" fill="#029D41"/>
<path d="M57.2305 238.98L57.2305 126.48H18.6705L18.6705 238.98H57.2305Z" fill="#FF9C1A"/>
<path d="M57.2305 239L57.2305 332.2C57.2305 337.313 55.1992 342.217 51.5835 345.833C47.9678 349.449 43.0638 351.48 37.9505 351.48C32.8388 351.477 27.9375 349.445 24.3239 345.829C20.7104 342.214 18.6805 337.312 18.6805 332.2L18.6805 239H57.2305Z" fill="#FFC61A"/>
<path d="M37.9507 101.44C53.1054 101.44 65.3907 89.1548 65.3907 74.0001C65.3907 58.8454 53.1054 46.5601 37.9507 46.5601C22.796 46.5601 10.5107 58.8454 10.5107 74.0001C10.5107 89.1548 22.796 101.44 37.9507 101.44Z" fill="white" stroke="#029D41" stroke-width="6.75" stroke-miterlimit="10"/>
<path d="M37.9507 210.17C53.1054 210.17 65.3907 197.885 65.3907 182.73C65.3907 167.575 53.1054 155.29 37.9507 155.29C22.796 155.29 10.5107 167.575 10.5107 182.73C10.5107 197.885 22.796 210.17 37.9507 210.17Z" fill="white" stroke="#FF9C1A" stroke-width="6.75" stroke-miterlimit="10"/>
<path d="M37.9507 318.38C53.1054 318.38 65.3907 306.095 65.3907 290.94C65.3907 275.785 53.1054 263.5 37.9507 263.5C22.796 263.5 10.5107 275.785 10.5107 290.94C10.5107 306.095 22.796 318.38 37.9507 318.38Z" fill="white" stroke="#FFC61A" stroke-width="6.75" stroke-miterlimit="10"/>
<path d="M24.4805 307.53H39.0805L31.7705 289.44L24.4805 307.53Z" fill="#FFC61A"/>
<path d="M37.9505 287.36C40.7893 287.36 43.0905 285.059 43.0905 282.22C43.0905 279.381 40.7893 277.08 37.9505 277.08C35.1118 277.08 32.8105 279.381 32.8105 282.22C32.8105 285.059 35.1118 287.36 37.9505 287.36Z" fill="#FFC61A"/>
<path d="M50.8003 292.78H39.0703V302.83H50.8003V292.78Z" fill="#FFC61A"/>
<path d="M20.6765 288.13H19.1051L23.6502 275.752H25.1975L29.7426 288.13H28.1711L24.4722 277.71H24.3755L20.6765 288.13ZM21.2568 283.295H27.5909V284.625H21.2568V283.295Z" fill="#FFC61A"/>
<path d="M46.5692 287.15V274.772H47.9956V279.341H48.1165C48.2213 279.18 48.3663 278.974 48.5517 278.725C48.7411 278.471 49.011 278.245 49.3616 278.048C49.7162 277.846 50.1957 277.746 50.8001 277.746C51.5818 277.746 52.2708 277.941 52.8671 278.332C53.4635 278.723 53.9289 279.277 54.2633 279.994C54.5977 280.711 54.7649 281.557 54.7649 282.532C54.7649 283.516 54.5977 284.368 54.2633 285.089C53.9289 285.806 53.4655 286.362 52.8732 286.757C52.2808 287.148 51.5979 287.343 50.8242 287.343C50.2279 287.343 49.7504 287.245 49.3918 287.047C49.0332 286.846 48.7572 286.618 48.5638 286.364C48.3704 286.106 48.2213 285.893 48.1165 285.724H47.9473V287.15H46.5692ZM47.9714 282.508C47.9714 283.209 48.0742 283.828 48.2797 284.364C48.4852 284.896 48.7854 285.313 49.1803 285.615C49.5751 285.913 50.0587 286.062 50.6308 286.062C51.2272 286.062 51.7248 285.905 52.1237 285.591C52.5266 285.272 52.8288 284.845 53.0303 284.309C53.2358 283.769 53.3386 283.169 53.3386 282.508C53.3386 281.855 53.2378 281.267 53.0363 280.743C52.8389 280.216 52.5387 279.798 52.1358 279.492C51.7369 279.182 51.2352 279.027 50.6308 279.027C50.0506 279.027 49.563 279.174 49.1682 279.468C48.7733 279.758 48.4751 280.165 48.2737 280.689C48.0722 281.209 47.9714 281.815 47.9714 282.508Z" fill="#FFC61A"/>
<path d="M24.5107 170.1V195.85H51.7407" stroke="#FF9C1A" stroke-miterlimit="10" stroke-linecap="round"/>
<path d="M24.5107 195.85L26.4707 193.92" stroke="#FF9C1A" stroke-miterlimit="10" stroke-linecap="round"/>
<path d="M29.79 190.64L41.44 179.17" stroke="#FF9C1A" stroke-miterlimit="10" stroke-linecap="round" stroke-dasharray="4.67 4.67"/>
<path d="M43.1006 177.53L45.0706 175.6" stroke="#FF9C1A" stroke-miterlimit="10" stroke-linecap="round"/>
<path d="M325.411 67.57C325.871 68.87 327.061 70.31 325.021 73.2C326.624 75.1984 327.983 77.3804 329.071 79.7C329.366 80.2802 329.81 80.7714 330.357 81.1233C330.905 81.4752 331.536 81.6751 332.187 81.7026C332.837 81.7301 333.483 81.5841 334.058 81.2796C334.634 80.9752 335.118 80.5232 335.461 79.97L342.841 71.63C341.947 70.8135 341.145 69.9014 340.451 68.91C338.51 65.9454 337.052 62.6916 336.131 59.27C338.451 58.65 340.711 56.95 341.131 55.09C341.621 52.75 340.441 49.09 337.861 48.92C333.241 48.69 332.261 49.14 330.941 43.67C329.621 38.2 316.691 44.42 316.691 44.42C316.691 44.42 316.341 50.42 316.821 52C317.173 52.9611 317.356 53.9762 317.361 55C317.391 56.5651 317.337 58.1306 317.201 59.69C316.811 62.25 319.631 68.9 325.411 67.57Z" fill="#FEC2A0"/>
<path d="M326.841 51.8701C324.581 50.8701 323.561 51.5101 323.561 51.5101L323.391 50.3001C323.379 50.2223 323.385 50.1429 323.406 50.0674C323.428 49.9918 323.466 49.9219 323.517 49.8621C323.568 49.8024 323.632 49.7544 323.703 49.7213C323.774 49.6881 323.852 49.6707 323.931 49.6701C324.912 49.6188 325.894 49.7269 326.841 49.9901C327.421 50.3601 326.841 51.8701 326.841 51.8701Z" fill="white"/>
<path d="M317.19 50.9301C317.51 50.943 317.823 51.0237 318.11 51.1668C318.396 51.3099 318.648 51.5121 318.85 51.7601L319 50.3601C319.016 50.2108 318.978 50.0609 318.894 49.9366C318.81 49.8123 318.685 49.7215 318.54 49.6801L317.2 49.3V50.9301" fill="white"/>
<path d="M324.821 56.5201C325.268 56.5201 325.631 55.7859 325.631 54.8801C325.631 53.9744 325.268 53.2401 324.821 53.2401C324.373 53.2401 324.011 53.9744 324.011 54.8801C324.011 55.7859 324.373 56.5201 324.821 56.5201Z" fill="#303134"/>
<path d="M318.39 56.2201C318.755 56.2201 319.05 55.553 319.05 54.7301C319.05 53.9072 318.755 53.2401 318.39 53.2401C318.026 53.2401 317.73 53.9072 317.73 54.7301C317.73 55.553 318.026 56.2201 318.39 56.2201Z" fill="#303134"/>
<path d="M320.02 56.9601C318.84 58.0801 318.84 60.6601 320.93 59.6601" stroke="#303134" stroke-width="0.45" stroke-miterlimit="10" stroke-linecap="round"/>
<path d="M325.41 67.5701C325.41 67.5701 328.11 66.6301 328.93 64.4601C328.93 67.5701 326.11 69.4601 326.11 69.4601L325.41 67.5701Z" fill="#F99979"/>
<path d="M38.9004 65.8701V61.2301" stroke="#029D41" stroke-miterlimit="10" stroke-linecap="round"/>
<path d="M40.3769 59.8998C40.936 59.0845 40.7283 57.9704 39.913 57.4113C39.0977 56.8522 37.9835 57.0599 37.4244 57.8752C36.8653 58.6905 37.073 59.8047 37.8884 60.3638C38.7037 60.9229 39.8178 60.7151 40.3769 59.8998Z" stroke="#029D41" stroke-miterlimit="10" stroke-linecap="round"/>
<path d="M47.4805 81.5701L51.4205 84.0101" stroke="#029D41" stroke-miterlimit="10" stroke-linecap="round"/>
<path d="M47.4707 70.6301L51.3707 68.1201" stroke="#029D41" stroke-miterlimit="10" stroke-linecap="round"/>
<path d="M30.3307 70.6301L26.4307 68.1201" stroke="#029D41" stroke-miterlimit="10" stroke-linecap="round"/>
<path d="M26.0398 85.9755C26.4381 85.0707 26.0275 84.0143 25.1227 83.616C24.2179 83.2177 23.1615 83.6283 22.7632 84.5331C22.3649 85.4379 22.7755 86.4943 23.6803 86.8926C24.5851 87.2909 25.6415 86.8803 26.0398 85.9755Z" stroke="#029D41" stroke-miterlimit="10" stroke-linecap="round"/>
<path d="M39.8599 70.87C39.8599 70.87 39.6899 67.98 41.9899 67.87C42.2645 67.8144 42.5481 67.8226 42.8189 67.8939C43.0898 67.9652 43.3407 68.0978 43.5523 68.2813C43.7638 68.4649 43.9304 68.6946 44.0393 68.9527C44.1481 69.2108 44.1962 69.4904 44.1799 69.77C44.7116 69.8276 45.207 70.0671 45.5823 70.4479C45.9577 70.8288 46.19 71.3276 46.2399 71.86C46.6099 73.86 45.3799 74.52 45.3799 74.52C45.7529 74.5405 46.1169 74.6427 46.446 74.8194C46.7752 74.996 47.0615 75.2429 47.2847 75.5424C47.5079 75.842 47.6626 76.1869 47.7378 76.5528C47.813 76.9187 47.8069 77.2967 47.7199 77.66C47.2399 80.59 45.9699 81.39 44.8599 81.14C45.1799 82.39 44.8599 84.43 42.6699 84.51C40.4799 84.59 39.7999 83.42 39.6699 81.51" stroke="#029D41" stroke-miterlimit="10" stroke-linecap="round"/>
<path d="M38.1202 70.92C38.1202 70.92 38.4402 68.18 36.1202 67.92C35.848 67.8509 35.5635 67.8454 35.2888 67.9039C35.0141 67.9624 34.7565 68.0834 34.5361 68.2574C34.3156 68.4315 34.1382 68.6539 34.0175 68.9075C33.8969 69.1612 33.8362 69.4392 33.8402 69.72C33.3044 69.752 32.7963 69.9689 32.4024 70.3335C32.0085 70.6982 31.7533 71.1882 31.6802 71.72C31.2202 73.72 32.4202 74.42 32.4202 74.42C32.0506 74.4258 31.6867 74.5119 31.3537 74.6722C31.0207 74.8326 30.7265 75.0635 30.4915 75.3489C30.2566 75.6342 30.0865 75.9673 29.993 76.3249C29.8996 76.6825 29.885 77.0562 29.9502 77.42C30.3002 80.37 31.5202 81.23 32.6402 81.03C32.2602 82.27 32.5302 84.32 34.6402 84.5C36.7502 84.68 37.6402 83.23 37.8902 81.32" stroke="#029D41" stroke-miterlimit="10" stroke-linecap="round"/>
<path d="M43.0703 70.68C43.1703 70.55 44.1803 69.75 44.1803 69.75" stroke="#029D41" stroke-miterlimit="10" stroke-linecap="round"/>
<path d="M43.9307 80.51L44.8407 81.14" stroke="#029D41" stroke-miterlimit="10" stroke-linecap="round"/>
<path d="M38.9004 65.8701V61.2301" stroke="#029D41" stroke-miterlimit="10" stroke-linecap="round"/>
<path d="M40.3769 59.8998C40.936 59.0845 40.7283 57.9704 39.913 57.4113C39.0977 56.8522 37.9835 57.0599 37.4244 57.8752C36.8653 58.6905 37.073 59.8047 37.8884 60.3638C38.7037 60.9229 39.8178 60.7151 40.3769 59.8998Z" stroke="#029D41" stroke-miterlimit="10" stroke-linecap="round"/>
<path d="M55.1309 66.9219C55.1599 65.9338 54.3824 65.1092 53.3942 65.0802C52.406 65.0512 51.5815 65.8288 51.5525 66.817C51.5235 67.8051 52.3011 68.6297 53.2892 68.6587C54.2774 68.6877 55.102 67.9101 55.1309 66.9219Z" stroke="#029D41" stroke-miterlimit="10" stroke-linecap="round"/>
<path d="M54.1266 86.879C55.0314 86.4807 55.442 85.4243 55.0437 84.5195C54.6454 83.6147 53.589 83.2041 52.6842 83.6024C51.7794 84.0007 51.3688 85.0571 51.7671 85.9619C52.1654 86.8667 53.2218 87.2773 54.1266 86.879Z" stroke="#029D41" stroke-miterlimit="10" stroke-linecap="round"/>
<path d="M24.5241 68.6503C25.5122 68.6213 26.2898 67.7967 26.2608 66.8085C26.2318 65.8204 25.4073 65.0428 24.4191 65.0718C23.4309 65.1008 22.6534 65.9253 22.6824 66.9135C22.7113 67.9017 23.5359 68.6792 24.5241 68.6503Z" stroke="#029D41" stroke-miterlimit="10" stroke-linecap="round"/>
<path d="M30.3306 81.5701L26.3906 84.0101" stroke="#029D41" stroke-miterlimit="10" stroke-linecap="round"/>
<path d="M32.4502 74.43C32.4502 74.43 34.2802 75.51 34.7402 73.99" stroke="#029D41" stroke-miterlimit="10" stroke-linecap="round"/>
<path d="M45.3804 74.5101C45.3804 74.5101 42.7804 75.1801 42.6104 74.0801" stroke="#029D41" stroke-miterlimit="10" stroke-linecap="round"/>
<path d="M24.5107 180.35H51.7407" stroke="#FF9C1A" stroke-miterlimit="10" stroke-linecap="round" stroke-dasharray="5.51 5.51"/>
<path d="M344.15 52.9101C345.279 51.0999 347.075 49.8067 349.15 49.3101C346.65 36.5101 341.28 38.4401 337.15 37.4301C335.81 37.1001 333.36 34.9301 337.44 31.9301C333.463 31.7452 329.48 32.0814 325.59 32.9301C325.59 32.9301 313.75 35.1801 315.14 44.4301C315.82 48.9801 314.77 49.5501 313.25 52.9201C312.963 53.5683 312.856 54.2821 312.94 54.9861C313.025 55.6901 313.298 56.3583 313.73 56.9201C314.36 57.4801 315.73 57.3701 317.28 58.8001C317.783 56.5736 317.803 54.2652 317.34 52.0301C316.86 50.4601 317.34 47.1401 317.89 45.5101C318.2 44.6101 319.03 43.0001 321.72 45.8801C323.37 43.8801 325.94 44.7201 327.22 45.3301C327.456 45.4431 327.658 45.6146 327.809 45.8281C327.959 46.0417 328.053 46.2902 328.08 46.5501L329.03 55.3101L332.56 55.9401C332.56 55.9401 332.44 49.8401 337.06 50.0701C341.68 50.3001 341.36 57.8201 336.12 59.2201C336.568 61.1289 337.24 62.9782 338.12 64.7301C338.12 64.7301 340.32 57.9301 350.38 58.8701C349.42 52.9101 344.15 52.9101 344.15 52.9101Z" fill="white"/>
<path d="M319.83 60.2601C318.99 60.2601 318.7 59.7601 317.93 59.7701C316.19 59.7701 315.87 61.0501 316.08 61.2701C316.29 61.4901 317.26 61.0501 317.41 61.2001C317.56 61.3501 317.18 62.2001 317.41 62.4901C317.64 62.7801 318.65 61.9701 319.04 62.0201C319.43 62.0701 319.78 63.4201 320.13 63.3401C320.48 63.2601 321.03 61.9801 321.37 62.0001C321.71 62.0201 322.87 63.0801 323.18 62.9101C323.49 62.7401 323.06 61.7501 323.37 61.5901C323.68 61.4301 324.65 62.3301 324.93 62.1201C325.21 61.9101 325.07 60.1201 322.85 59.7801C321.96 59.6101 321.07 60.2601 319.83 60.2601Z" fill="white"/>
<path d="M325.721 72.03L332.711 76.43L325.091 83.02L324.811 73.24L325.721 72.03Z" fill="white"/>
<path d="M341.77 70.49L332.71 76.43L340.73 82.97L343.28 71.94L341.77 70.49Z" fill="white"/>
<path d="M339.2 81.72C337.971 82.9345 336.414 83.762 334.72 84.1C334.112 84.1982 333.496 84.245 332.88 84.24C332.26 84.2475 331.641 84.1973 331.03 84.09C329.364 83.7558 327.834 82.9385 326.63 81.74L332.72 76.42L339.2 81.72Z" fill="#F0F0F0"/>
<path d="M330.021 78.7501L331.681 81.7201H334.001L335.631 78.8101L332.711 76.4301L330.021 78.7501Z" fill="#F66A31"/>
<path d="M334.72 84.1C334.112 84.1981 333.496 84.2449 332.88 84.24C332.26 84.2475 331.641 84.1972 331.03 84.09L331.71 81.74H334.04L334.72 84.1Z" fill="#F66A31"/>
<path d="M371.42 79.9201C371.22 76.3101 371.75 72.0201 369.61 72.0901C369.61 71.0901 369.34 70.2201 368.56 70.0901C367.78 69.9601 366.82 69.7501 366.72 68.5901C366.351 65.9092 366.566 63.1801 367.35 60.5901C368.06 58.3701 367.13 57.4701 366.18 58.3101C365.45 58.9601 364.59 60.2301 364.18 63.3101C363.77 66.3901 364.1 69.0101 363.83 69.3901C363.56 69.7701 363.15 69.5901 362.23 70.8501C361.31 72.1101 358.64 75.4101 358.62 75.9901C358.62 76.8301 359.38 77.4901 360.4 76.8701C359.3 78.1401 358.87 78.8101 359.75 79.4901C359.887 79.5868 360.042 79.6554 360.205 79.6917C360.369 79.728 360.538 79.7314 360.703 79.7016C360.867 79.6718 361.025 79.6094 361.165 79.5182C361.306 79.4269 361.426 79.3086 361.52 79.1701C361.52 79.1701 362.15 80.0301 362.64 80.8501C363.179 81.6332 363.597 82.4928 363.88 83.4001C364.15 84.4001 363.64 87.2201 363.06 88.8801C362.11 91.5901 357.3 103.52 354.72 110.88C353.8 113.51 352.49 117.58 353.35 121.33C354.21 125.08 361.97 126.89 365.19 125.42C368.41 123.95 369.28 120.02 370.07 116.07C371.45 109.1 371.62 83.5301 371.42 79.9201Z" fill="#FEC2A0"/>
<path d="M360.18 73.85C360.18 73.85 358.1 71 359.18 70.15C360.26 69.3 361.66 71.15 361.84 71.32L360.18 73.85Z" fill="#FEC2A0"/>
<path d="M360.66 76.59L363.72 72.64L367.16 71.55" fill="#FEC2A0"/>
<path d="M360.66 76.59L363.72 72.64L367.16 71.55" stroke="#F99979" stroke-width="0.65" stroke-miterlimit="10" stroke-linecap="round"/>
<path d="M361.5 79.1001C361.5 79.1001 364.84 74.8001 365.15 74.7001L368.04 73.7001" fill="#FEC2A0"/>
<path d="M361.5 79.1001C361.5 79.1001 364.84 74.8001 365.15 74.7001L368.04 73.7001" stroke="#F99979" stroke-width="0.65" stroke-miterlimit="10" stroke-linecap="round"/>
<path d="M363.311 82.1001C364.978 82.7631 366.711 83.2459 368.481 83.5401C367.769 83.919 366.973 84.1113 366.167 84.0991C365.36 84.0868 364.57 83.8704 363.871 83.4701L363.311 82.1001Z" fill="#F99979"/>
<path d="M362.721 78.91C362.721 78.91 364.831 76.66 365.991 76.59C366.768 76.5234 367.528 76.3273 368.241 76.01" fill="#FEC2A0"/>
<path d="M362.721 78.91C362.721 78.91 364.831 76.66 365.991 76.59C366.768 76.5234 367.528 76.3273 368.241 76.01" stroke="#F99979" stroke-width="0.65" stroke-miterlimit="10" stroke-linecap="round"/>
<path d="M182.82 95.5801C182.82 95.5801 210.46 149.34 214.61 149.23C224.42 138.15 212.38 112.79 211.99 109.56C211.6 106.33 207.72 99.3101 202.22 98.1001C196.72 96.8901 182.82 95.5801 182.82 95.5801Z" fill="#7794FF"/>
<path d="M180.431 91.77C180.431 91.77 201.141 94.97 206.271 97.01C212.271 99.39 215.081 105.38 216.381 109.66C216.961 111.56 216.711 112.39 213.761 112.42C211.671 112.42 210.511 112.42 210.511 112.42C210.511 112.42 206.461 103.58 205.331 102.51C203.331 100.62 191.231 99.16 187.481 98.58C185.859 98.0672 184.378 97.1853 183.155 96.0037C181.932 94.8221 180.999 93.3729 180.431 91.77Z" fill="#4F6DDB"/>
<path d="M155.95 78.5901C156.039 77.3776 155.955 76.1588 155.7 74.9701C155.16 73.2101 155.52 67.9701 158.78 66.4201C162.04 64.8701 167.25 66.0701 168.78 72.2401C170.31 78.4101 172.88 79.3801 172.88 79.3801C172.88 79.3801 172.75 72.5001 177.95 72.7701C183.15 73.0401 182.72 81.5001 176.87 83.1001C177.16 85.2544 177.911 87.3212 179.07 89.1601C182.17 80.4901 187.6 82.2901 189.92 76.1601C190.961 73.352 190.915 70.2562 189.79 67.4807C188.665 64.7052 186.542 62.4507 183.84 61.1601C179.1 52.5201 160.67 52.8401 151.42 62.0301C154.59 65.8801 153.84 69.4101 154.3 73.0301C154.72 76.3201 154.82 77.4301 155.95 78.5901Z" fill="#F66A31"/>
<path d="M151.971 62.1C151.971 62.1 173.061 52.98 177.371 72.75" stroke="#D4531D" stroke-width="0.73" stroke-miterlimit="10" stroke-linecap="round"/>
<path d="M151.971 62.1C151.971 62.1 170.911 54.93 175.221 74.7" stroke="#D4531D" stroke-width="0.73" stroke-miterlimit="10" stroke-linecap="round"/>
<path d="M179.28 81.02C179.083 82.781 179.348 84.5631 180.05 86.19" stroke="#D4531D" stroke-width="0.73" stroke-miterlimit="10" stroke-linecap="round"/>
<path d="M179.8 79.9801C180.247 81.3391 181.138 82.5084 182.33 83.3001" stroke="#D4531D" stroke-width="0.73" stroke-miterlimit="10" stroke-linecap="round"/>
<path d="M164.78 92.43C165.3 93.89 166.64 95.51 164.34 98.78C167.43 102.04 172.11 112.88 172.11 112.88L182.82 95.58C182.45 95.05 182.09 94.52 181.73 93.95C179.547 90.6128 177.907 86.9508 176.87 83.1C178.011 82.8031 179.044 82.192 179.854 81.3363C180.664 80.4806 181.217 79.4147 181.45 78.26C182 75.63 180.83 72.93 177.93 72.78C172.73 72.52 172.86 79.39 172.86 79.39C172.86 79.39 170.25 78.39 168.76 72.25C167.27 66.11 162.06 64.84 158.76 66.43C155.46 68.02 155.14 73.21 155.68 74.98C155.935 76.1687 156.019 77.3876 155.93 78.6C155.874 80.2742 155.721 81.9437 155.47 83.6C155.08 86.44 158.26 93.93 164.78 92.43Z" fill="#FEC2A0"/>
<path d="M140.36 125.28C143.26 115.97 159.72 102.8 164.16 99.0501C164.234 98.9735 164.295 98.8857 164.34 98.7901L164.43 98.8901C165.55 100.149 166.948 101.129 168.513 101.753C170.078 102.377 171.768 102.627 173.446 102.483C175.125 102.339 176.747 101.806 178.183 100.925C179.62 100.045 180.831 98.841 181.72 97.4101L182.86 95.5801C184.8 98.3001 199.15 103.14 202.94 106.05C207.87 109.83 212.94 117.91 214.47 126.73C209.47 132.64 200.7 135.85 197.97 140.4C195.27 147.15 200.14 160.9 200.18 162.62C198.35 164.09 156.43 157.01 156.43 157.01L144.03 127.58L140.36 125.28Z" fill="white"/>
<path d="M143.99 127.57C150.99 132.32 155.99 135.34 155.99 135.34C155.99 135.34 159.51 156.08 155.35 157.85C151.63 159.43 147.8 160.72 143.43 154.27C140.22 149.52 142.97 138.7 143.99 127.57Z" fill="#F99979"/>
<path d="M162.721 74.3301C162.721 74.3301 163.871 73.58 166.421 74.74" stroke="#303134" stroke-width="0.51" stroke-miterlimit="10" stroke-linecap="round"/>
<path d="M157.37 74.6201C157.142 74.3418 156.857 74.1151 156.535 73.9548C156.212 73.7946 155.86 73.7043 155.5 73.6901" stroke="#303134" stroke-width="0.51" stroke-miterlimit="10" stroke-linecap="round"/>
<path d="M164.11 79.98C164.613 79.98 165.02 79.1518 165.02 78.13C165.02 77.1083 164.613 76.28 164.11 76.28C163.608 76.28 163.2 77.1083 163.2 78.13C163.2 79.1518 163.608 79.98 164.11 79.98Z" fill="#303134"/>
<path d="M156.86 79.6501C157.269 79.6501 157.6 78.9696 157.6 78.1301C157.6 77.2906 157.269 76.6101 156.86 76.6101C156.451 76.6101 156.12 77.2906 156.12 78.1301C156.12 78.9696 156.451 79.6501 156.86 79.6501Z" fill="#303134"/>
<path d="M158.721 80.4701C157.391 81.7401 157.391 84.6401 159.721 83.4701" stroke="#303134" stroke-width="0.51" stroke-miterlimit="10" stroke-linecap="round"/>
<path d="M163.19 84.41C163.19 84.41 162.83 86.96 159.29 85.96" stroke="#303134" stroke-width="0.51" stroke-miterlimit="10" stroke-linecap="round"/>
<path d="M164.78 92.4301C164.78 92.4301 167.78 91.3701 168.78 88.9301C168.78 92.4301 165.6 94.62 165.6 94.62L164.78 92.4301Z" fill="#F99979"/>
<path d="M164.52 82.52C166.448 82.52 168.01 80.9575 168.01 79.03C168.01 77.1026 166.448 75.54 164.52 75.54C162.593 75.54 161.03 77.1026 161.03 79.03C161.03 80.9575 162.593 82.52 164.52 82.52Z" stroke="#303134" stroke-width="0.53" stroke-miterlimit="10"/>
<path d="M155.98 82.25C157.554 82.25 158.83 80.6875 158.83 78.76C158.83 76.8326 157.554 75.27 155.98 75.27C154.406 75.27 153.13 76.8326 153.13 78.76C153.13 80.6875 154.406 82.25 155.98 82.25Z" stroke="#303134" stroke-width="0.53" stroke-miterlimit="10"/>
<path d="M161.16 78.0601H158.83" stroke="#303134" stroke-width="0.53" stroke-miterlimit="10"/>
<path d="M168.011 77.9401L174.151 76.1901" stroke="#303134" stroke-width="0.53" stroke-miterlimit="10"/>
<path d="M159.421 99.29C159.421 99.29 162.201 130.64 165.001 158.41L159.421 157.5C158.851 134.5 154.681 103.63 154.681 103.63L159.421 99.29Z" fill="#7794FF"/>
<path d="M190.42 97.1801C190.42 97.1801 175.28 130.56 182.59 161.18L188.1 162.05C188.1 162.05 180.44 126.81 196.88 98.6301L190.42 97.1801Z" fill="#7794FF"/>
<path d="M196.881 98.5901L200.611 104.65L195.011 102L196.881 98.5901Z" fill="#4F6DDB"/>
<path d="M159.42 99.3L162.2 100.69L159.73 102.78L159.42 99.3Z" fill="#4F6DDB"/>
<path d="M169.66 120.93C169.66 120.93 162.23 120.49 160.5 120.14C158.77 119.79 158.37 118.28 159.42 118.07C160.47 117.86 173.28 117.93 173.28 117.93L192.16 131.1C194.926 133.187 197.567 135.434 200.07 137.83C203.35 134.83 208.36 132.75 211.72 128.9C212.88 135.4 221.55 155.81 221.04 161.98C220.53 168.15 207.79 172.93 200.6 163.21C198.12 159.86 188.9 139.15 188.29 138.36C187.11 136.87 183.99 135.51 181.96 135.36C179.93 135.21 176.11 131.45 175.28 130.54C174.45 129.63 173.56 129.35 172.47 131.05C172.795 131.591 172.99 132.201 173.04 132.83C173.058 132.978 173.029 133.129 172.958 133.26C172.887 133.391 172.777 133.497 172.643 133.563C172.509 133.629 172.358 133.652 172.21 133.628C172.063 133.604 171.926 133.535 171.82 133.43C170.76 132.33 169.37 130.74 169.23 129.72C168.13 129.82 166.68 127.55 166.68 127.55C166.095 126.877 165.801 126 165.86 125.11C166.01 123.69 169.66 120.93 169.66 120.93Z" fill="#FEC2A0"/>
<path d="M166.721 127.57C168.351 123.68 173.441 123.38 173.441 123.38C171.975 123.82 170.574 124.448 169.271 125.25C168.364 125.958 167.511 126.734 166.721 127.57Z" fill="#F99979"/>
<path d="M169.24 129.74C170.95 126.39 175.14 126.05 175.14 126.05C173.956 126.522 172.809 127.084 171.71 127.73C170.848 128.351 170.023 129.022 169.24 129.74Z" fill="#F99979"/>
<path d="M169.66 120.94L172.26 120.83L168.91 121.53L169.66 120.94Z" fill="#F99979"/>
<path d="M201.49 139.18L217.91 158.6C217.91 158.6 218.55 155.66 211.8 147.7C205.05 139.74 201.49 139.18 201.49 139.18Z" fill="#F99979"/>
<path d="M214.42 126.72L212.42 131.93C212.118 131.075 211.893 130.195 211.75 129.3C212.15 128.93 214.42 126.72 214.42 126.72Z" fill="#303134"/>
<path opacity="0.8" d="M0.0602728 296V295.1C-0.0200909 295.395 -0.0200909 295.705 0.0602728 296Z" fill="#029D41"/>
<path d="M343.721 264.79C343.721 264.79 371.361 318.55 375.511 318.44C385.321 307.36 373.281 282 372.891 278.77C372.501 275.54 368.621 268.52 363.121 267.32C357.621 266.12 343.721 264.79 343.721 264.79Z" fill="#7794FF"/>
<path d="M341.3 260.99C341.3 260.99 362.01 264.19 367.14 266.23C373.14 268.61 375.95 274.6 377.25 278.88C377.83 280.78 377.58 281.61 374.63 281.64C372.54 281.64 371.38 281.64 371.38 281.64C371.38 281.64 367.33 272.8 366.2 271.73C364.2 269.84 352.1 268.38 348.35 267.8C346.728 267.287 345.248 266.405 344.024 265.224C342.801 264.042 341.868 262.593 341.3 260.99Z" fill="#4F6DDB"/>
<path d="M316.82 247.8C316.909 246.588 316.825 245.369 316.57 244.18C316.03 242.42 316.39 237.18 319.65 235.63C322.91 234.08 328.12 235.28 329.65 241.45C331.18 247.62 333.75 248.59 333.75 248.59C333.75 248.59 333.62 241.71 338.82 241.98C344.02 242.25 343.67 250.71 337.77 252.29C338.061 254.444 338.811 256.511 339.97 258.35C343.07 249.68 348.5 251.48 350.82 245.35C351.861 242.542 351.815 239.446 350.69 236.671C349.565 233.895 347.443 231.641 344.74 230.35C340 221.71 321.57 222.03 312.32 231.22C315.49 235.07 314.74 238.6 315.2 242.22C315.58 245.54 315.72 246.65 316.82 247.8Z" fill="#F66A31"/>
<path d="M312.83 231.35C312.83 231.35 333.92 222.23 338.23 242" stroke="#D4531D" stroke-width="0.73" stroke-miterlimit="10" stroke-linecap="round"/>
<path d="M312.83 231.35C312.83 231.35 331.77 224.18 336.08 243.95" stroke="#D4531D" stroke-width="0.73" stroke-miterlimit="10" stroke-linecap="round"/>
<path d="M340.141 250.23C339.943 251.991 340.208 253.773 340.911 255.4" stroke="#D4531D" stroke-width="0.73" stroke-miterlimit="10" stroke-linecap="round"/>
<path d="M340.66 249.19C341.107 250.549 341.998 251.718 343.19 252.51" stroke="#D4531D" stroke-width="0.73" stroke-miterlimit="10" stroke-linecap="round"/>
<path d="M325.64 261.65C326.16 263.11 327.5 264.73 325.2 268C328.29 271.26 332.97 282.1 332.97 282.1L343.72 264.79C343.35 264.26 342.99 263.73 342.63 263.16C340.428 259.823 338.771 256.157 337.72 252.3C338.86 252.003 339.894 251.392 340.704 250.536C341.513 249.681 342.066 248.615 342.3 247.46C342.85 244.83 341.68 242.13 338.78 241.98C333.58 241.72 333.71 248.59 333.71 248.59C333.71 248.59 331.1 247.59 329.61 241.45C328.12 235.31 322.91 234.04 319.61 235.63C316.31 237.22 315.99 242.41 316.53 244.18C316.785 245.369 316.869 246.588 316.78 247.8C316.724 249.474 316.57 251.144 316.32 252.8C315.95 255.65 319.12 263.1 325.64 261.65Z" fill="#FEC2A0"/>
<path d="M302.5 295.29C306.14 282.09 320.59 272.01 325.03 268.29C325.103 268.213 325.164 268.126 325.21 268.03L325.3 268.13C326.419 269.382 327.814 270.356 329.375 270.976C330.936 271.595 332.619 271.844 334.292 271.701C335.965 271.559 337.582 271.029 339.015 270.154C340.448 269.279 341.659 268.083 342.55 266.66L343.69 264.83C345.63 267.55 359.98 272.39 363.77 275.3C368.7 279.08 373.77 287.16 375.3 295.98C370.3 301.89 361.53 305.1 358.8 309.65C356.1 316.4 360.97 330.15 361.01 331.87C359.18 333.34 317.26 326.26 317.26 326.26L304.86 296.83L302.5 295.29Z" fill="white"/>
<path d="M304.85 296.79C311.85 301.54 316.85 304.56 316.85 304.56C316.85 304.56 320.37 325.3 316.21 327.07C312.49 328.65 308.66 329.94 304.29 323.49C301.08 318.74 303.84 307.91 304.85 296.79Z" fill="#F99979"/>
<path d="M323.55 243.54C323.55 243.54 324.7 242.79 327.25 243.95" stroke="#303134" stroke-width="0.51" stroke-miterlimit="10" stroke-linecap="round"/>
<path d="M318.24 243.83C318.012 243.552 317.727 243.325 317.405 243.165C317.082 243.005 316.73 242.914 316.37 242.9" stroke="#303134" stroke-width="0.51" stroke-miterlimit="10" stroke-linecap="round"/>
<path d="M324.971 249.19C325.473 249.19 325.881 248.362 325.881 247.34C325.881 246.318 325.473 245.49 324.971 245.49C324.468 245.49 324.061 246.318 324.061 247.34C324.061 248.362 324.468 249.19 324.971 249.19Z" fill="#303134"/>
<path d="M317.73 248.86C318.139 248.86 318.47 248.18 318.47 247.34C318.47 246.501 318.139 245.82 317.73 245.82C317.322 245.82 316.99 246.501 316.99 247.34C316.99 248.18 317.322 248.86 317.73 248.86Z" fill="#303134"/>
<path d="M319.561 249.69C318.231 250.96 318.231 253.86 320.561 252.69" stroke="#303134" stroke-width="0.51" stroke-miterlimit="10" stroke-linecap="round"/>
<path d="M324.06 253.62C324.06 253.62 323.7 256.17 320.16 255.17" stroke="#303134" stroke-width="0.51" stroke-miterlimit="10" stroke-linecap="round"/>
<path d="M325.641 261.65C325.641 261.65 328.641 260.59 329.641 258.15C329.641 261.65 326.461 263.84 326.461 263.84L325.641 261.65Z" fill="#F99979"/>
<path d="M285.661 277.78V281.53C284.841 279.92 285.551 278.84 285.661 277.78Z" fill="#FEC2A0"/>
<path d="M271.12 274.2C271.95 274.2 275.33 278.86 275.65 278.2C275.97 277.54 274.25 276.41 273.23 275.07C272.21 273.73 270.3 268.24 270.68 267.35C271.06 266.46 272.47 267.73 272.47 267.73C272.47 267.73 271.47 266.45 272.47 265.94C273.47 265.43 275.09 268.94 275.95 270.47C277.028 271.994 278.258 273.404 279.62 274.68C279.62 274.68 277.96 271.75 277.45 270.6C276.94 269.45 275.22 265.18 276.3 264.86C277.38 264.54 278.21 267.22 278.21 267.22C278.21 267.22 280.72 271.65 281.72 273.1C282.955 274.613 284.292 276.039 285.72 277.37V277.83C285.61 278.89 284.9 279.97 285.72 281.58V277.83C285.736 277.677 285.736 277.523 285.72 277.37C285.711 275.22 285.97 273.077 286.49 270.99C286.94 269.46 288.6 267.61 288.6 269.71C288.6 271.81 288.22 274.11 289.17 277.37C289.723 279.535 289.723 281.805 289.17 283.97C289.17 283.97 309.28 305.77 314.5 312.89C321.69 322.68 317.38 331.28 309.43 329.37C299.96 327.1 283.23 289.23 282.43 287.95C280.593 285.54 278.544 283.298 276.31 281.25C274.564 279.931 272.98 278.411 271.59 276.72C270.29 274.97 270.29 274.2 271.12 274.2Z" fill="#FEC2A0"/>
<path d="M285.03 246.1L298.35 273.44C298.35 273.44 289.91 276.8 282.13 280.54C274.52 284.19 270.53 292.68 270.53 292.68L251.66 259.68C251.66 259.68 258.03 253.96 268.88 255.88C268.88 250.04 285.03 246.1 285.03 246.1Z" fill="white"/>
<path d="M251.66 259.6L250.73 266.73L266.18 292.19L270.52 292.64L251.66 259.6Z" fill="#7794FF"/>
<path d="M268.88 255.79L282.75 280.21L280.82 281.22L268.88 255.79Z" fill="#DBDBDB"/>
<path d="M273.9 250.1L285.03 272.32L283.63 271.4L283.71 273.4L272.54 250.9L273.9 250.1Z" fill="#7794FF"/>
<path d="M325.381 251.74C327.308 251.74 328.871 250.177 328.871 248.25C328.871 246.323 327.308 244.76 325.381 244.76C323.453 244.76 321.891 246.323 321.891 248.25C321.891 250.177 323.453 251.74 325.381 251.74Z" stroke="#303134" stroke-width="0.53" stroke-miterlimit="10"/>
<path d="M316.85 251.47C318.424 251.47 319.7 249.908 319.7 247.98C319.7 246.053 318.424 244.49 316.85 244.49C315.276 244.49 314 246.053 314 247.98C314 249.908 315.276 251.47 316.85 251.47Z" stroke="#303134" stroke-width="0.53" stroke-miterlimit="10"/>
<path d="M322.03 247.28H319.7" stroke="#303134" stroke-width="0.53" stroke-miterlimit="10"/>
<path d="M328.88 247.15L335.01 245.4" stroke="#303134" stroke-width="0.53" stroke-miterlimit="10"/>
<path d="M285.84 278.1C286.49 280.19 287.67 281.63 289.54 281.85C289.85 280.047 289.768 278.199 289.3 276.43C288.3 273.18 288.73 270.88 288.73 268.77C288.73 266.66 287.07 268.51 286.62 270.05C286.1 272.137 285.841 274.28 285.85 276.43C285.866 276.583 285.866 276.737 285.85 276.89L285.84 278.1Z" fill="#FEC2A0"/>
<path d="M320.28 268.51C320.28 268.51 323.06 299.86 325.86 327.63L320.28 326.72C319.71 303.72 315.54 272.85 315.54 272.85L320.28 268.51Z" fill="#7794FF"/>
<path d="M351.29 266.4C351.29 266.4 336.15 299.78 343.46 330.4L348.97 331.27C348.97 331.27 341.31 296.03 357.75 267.85L351.29 266.4Z" fill="#7794FF"/>
<path d="M357.75 267.8L361.47 273.86L355.88 271.22L357.75 267.8Z" fill="#4F6DDB"/>
<path d="M320.28 268.51L323.07 269.9L320.6 271.99L320.28 268.51Z" fill="#4F6DDB"/>
<path d="M330.52 290.1C330.52 290.1 323.09 289.66 321.36 289.31C319.63 288.96 319.23 287.45 320.28 287.24C321.33 287.03 334.14 287.1 334.14 287.1L353.01 300.29C355.776 302.377 358.417 304.624 360.92 307.02C364.2 304.02 369.21 301.94 372.57 298.09C373.73 304.59 382.4 325 381.89 331.17C381.38 337.34 368.64 342.12 361.45 332.4C358.97 329.05 349.75 308.34 349.14 307.55C347.96 306.06 344.84 304.7 342.81 304.55C340.78 304.4 336.96 300.64 336.13 299.73C335.3 298.82 334.41 298.54 333.32 300.24C333.646 300.781 333.841 301.391 333.89 302.02C333.908 302.168 333.88 302.319 333.809 302.45C333.737 302.581 333.627 302.687 333.493 302.753C333.359 302.819 333.208 302.842 333.06 302.818C332.913 302.794 332.777 302.725 332.67 302.62C331.61 301.52 330.22 299.93 330.08 298.91C328.98 299.01 327.53 296.74 327.53 296.74C326.946 296.067 326.651 295.19 326.71 294.3C326.87 292.9 330.52 290.1 330.52 290.1Z" fill="#FEC2A0"/>
<path d="M327.561 296.79C329.191 292.9 334.281 292.6 334.281 292.6C332.815 293.04 331.413 293.668 330.111 294.47C329.204 295.178 328.351 295.954 327.561 296.79Z" fill="#F99979"/>
<path d="M330.11 298.96C331.82 295.61 336.01 295.27 336.01 295.27C334.826 295.742 333.679 296.304 332.58 296.95C331.718 297.571 330.894 298.242 330.11 298.96Z" fill="#F99979"/>
<path d="M330.531 290.15L333.131 290.05L329.771 290.75L330.531 290.15Z" fill="#F99979"/>
<path d="M362.351 308.39L378.771 327.81C378.771 327.81 379.411 324.87 372.661 316.91C365.911 308.95 362.351 308.39 362.351 308.39Z" fill="#F99979"/>
<path d="M375.29 295.94L373.29 301.15C372.988 300.295 372.764 299.415 372.62 298.52C373.01 298.1 375.29 295.94 375.29 295.94Z" fill="#303134"/>
<path d="M221.08 28.37C218.027 28.37 215.1 29.5827 212.941 31.7412C210.782 33.8997 209.57 36.8274 209.57 39.88C209.19 49.41 218.57 64.75 221.08 64.75C223.59 64.75 232.59 51.39 232.59 39.88C232.59 36.8274 231.377 33.8997 229.219 31.7412C227.06 29.5827 224.132 28.37 221.08 28.37ZM221.08 33.62C222.318 33.62 223.528 33.9871 224.558 34.675C225.587 35.3629 226.389 36.3405 226.863 37.4844C227.337 38.6283 227.461 39.8869 227.22 41.1013C226.978 42.3156 226.382 43.431 225.506 44.3065C224.631 45.182 223.515 45.7782 222.301 46.0197C221.087 46.2613 219.828 46.1373 218.684 45.6635C217.54 45.1897 216.563 44.3873 215.875 43.3579C215.187 42.3284 214.82 41.1181 214.82 39.88C214.82 38.2197 215.479 36.6275 216.653 35.4535C217.827 34.2795 219.42 33.62 221.08 33.62Z" fill="#029D41"/>
<path d="M232.881 277.75C229.828 277.75 226.9 278.963 224.742 281.121C222.583 283.28 221.371 286.207 221.371 289.26C220.991 298.79 230.371 314.13 232.881 314.13C235.391 314.13 244.391 300.77 244.391 289.26C244.391 286.207 243.178 283.28 241.019 281.121C238.861 278.963 235.933 277.75 232.881 277.75ZM232.881 283C234.119 283 235.329 283.367 236.358 284.055C237.388 284.743 238.19 285.721 238.664 286.864C239.138 288.008 239.262 289.267 239.02 290.481C238.779 291.696 238.183 292.811 237.307 293.686C236.432 294.562 235.316 295.158 234.102 295.4C232.888 295.641 231.629 295.517 230.485 295.043C229.341 294.57 228.363 293.767 227.676 292.738C226.988 291.708 226.621 290.498 226.621 289.26C226.621 287.6 227.28 286.008 228.454 284.834C229.628 283.66 231.22 283 232.881 283Z" fill="#FFC61A"/>
<path d="M195.01 230.1C206.2 240.82 211.52 260.51 202.93 274.1C173.72 320.1 115.96 321.1 115.1 297.81C114.24 274.52 179.04 272.62 214.42 322.1" stroke="#FFC61A" stroke-width="2" stroke-miterlimit="10" stroke-linecap="round" stroke-dasharray="6 6"/>
<path d="M221.07 147.43C240.24 173.83 216.58 200.92 185.89 214.6C157.3 227.34 122.15 228.2 115.89 215.8C104.51 193.1 150.39 180.35 189.62 225.6" stroke="#FF9C1A" stroke-width="2" stroke-miterlimit="10" stroke-linecap="round" stroke-dasharray="6 6"/>
<path d="M388.22 164.1C390.69 144.43 339.28 134.5 300.83 154.78C292.37 159.24 284.12 168.04 277.63 175.64" stroke="#FFC61A" stroke-width="2" stroke-miterlimit="10" stroke-linecap="round" stroke-dasharray="6 6"/>
<path d="M256.721 108.78C247.021 134.5 278.841 151.17 316.291 168.78C343.381 181.54 381.021 192.78 387.291 169.41" stroke="#FF9C1A" stroke-width="2" stroke-miterlimit="10" stroke-linecap="round" stroke-dasharray="6 6"/>
<path d="M276.481 90.1001C269.648 94.0458 263.51 99.0861 258.311 105.02" stroke="#029D41" stroke-width="2" stroke-miterlimit="10" stroke-linecap="round" stroke-dasharray="5.51 5.51"/>
<path d="M320.071 70.49C309.721 73.64 299.721 78.4 290.721 82.53" stroke="#029D41" stroke-width="2" stroke-miterlimit="10" stroke-linecap="round" stroke-dasharray="6 6"/>
<path d="M221.08 64.75C232.55 130.1 393.08 133.94 395.35 83.98C395.85 73.11 379.85 65.77 361.64 65.72C352.26 65.72 342.47 66.6 342.47 66.6" stroke="#029D41" stroke-width="2" stroke-miterlimit="10" stroke-linecap="round" stroke-dasharray="6 6"/>
<path d="M378.791 235C352.531 188.47 258.101 204.23 258.101 204.23" stroke="#029D41" stroke-width="2" stroke-miterlimit="10" stroke-linecap="round" stroke-dasharray="6 6"/>
<path d="M283.81 301C278.81 303.8 276.91 307.66 279.56 312.57C290.17 332.23 404.71 287.17 381.93 239.57" stroke="#FF9C1A" stroke-width="2" stroke-miterlimit="10" stroke-linecap="round" stroke-dasharray="6 6"/>
<path d="M390.031 340.79C418.381 316.6 391.881 297.2 379.311 293.98" stroke="#FF9C1A" stroke-width="2" stroke-miterlimit="10" stroke-linecap="round" stroke-dasharray="6 6"/>
<path d="M232.87 313.74C268.87 383.1 367.22 361.6 390.03 340.74" stroke="#FFC61A" stroke-width="2" stroke-miterlimit="10" stroke-linecap="round" stroke-dasharray="6 6"/>
<path d="M153.581 143.64C148.861 137.21 127.711 114.97 124.871 112.31C123.884 111.427 122.75 110.723 121.521 110.23C117.851 110.61 114.191 111.82 110.521 112.7C109.72 113.794 108.546 114.555 107.221 114.84L120.291 120.94C120.888 120.633 121.519 120.394 122.171 120.23H122.301C125.721 127.51 140.031 158.1 148.511 160.1C156.461 162.03 160.721 153.42 153.581 143.64Z" fill="#FEC2A0"/>
<path d="M94.0605 114.78C94.3828 114.381 94.837 114.11 95.3413 114.017C95.8456 113.923 96.3667 114.013 96.8105 114.27C97.7457 114.564 98.5964 115.078 99.2906 115.77" stroke="#F99979" stroke-width="0.33" stroke-miterlimit="10"/>
<path d="M124.23 105.02C124.68 104.71 125.23 104.43 125.23 104.02C125.23 103.32 124.12 103.08 123.87 102.94C123.792 102.896 123.725 102.834 123.675 102.759C123.624 102.685 123.592 102.599 123.58 102.51C123.569 102.421 123.578 102.33 123.608 102.245C123.637 102.16 123.686 102.083 123.75 102.02C124.24 101.54 124.99 101.68 124.99 100.83C124.99 99.98 122.26 98.67 123.62 97.08C124.75 95.75 125.33 95.54 125.04 94.61C124.56 93.08 120.4 91.3 119.26 89.35C118.6 88.21 118.97 84.77 118.68 83.2C118.39 81.63 117.28 79.29 112.76 76.2C110.566 74.819 108.042 74.0523 105.45 73.98C103.493 73.7993 101.523 73.8227 99.5703 74.05C101.92 74.24 108.57 74.78 110.65 76.2C115.17 79.26 114.89 81.6 115.18 83.2C115.47 84.8 115.1 88.2 115.76 89.35C116.89 91.3 120.13 93.08 120.61 94.61C120.9 95.54 120.32 95.75 119.19 97.08C117.83 98.67 120.56 100 120.56 100.83C120.56 101.66 119.8 101.54 119.32 102.02C119.256 102.084 119.208 102.161 119.179 102.247C119.151 102.332 119.142 102.423 119.155 102.513C119.167 102.602 119.201 102.687 119.252 102.761C119.303 102.835 119.371 102.897 119.45 102.94C119.7 103.07 120.81 103.32 120.81 104.02C120.81 104.47 120.21 104.76 119.81 105.02C119.21 105.43 118.96 106.32 119.42 107.48C119.97 108.87 119.07 110.72 116.82 111.48C114.57 112.24 110.93 112.16 109.16 112.6C106.1 113.37 105.75 116.66 103.43 117.49C102.905 117.649 102.366 117.759 101.82 117.82L102 118.08C103.66 118.065 105.313 117.871 106.93 117.5C109.26 116.68 109.99 113.37 111.93 112.85C113.2 112.51 118.87 112.33 121.23 111.49C123.59 110.65 124.85 108.84 124.3 107.49C123.85 106.32 123.63 105.44 124.23 105.02Z" fill="#F2AA79"/>
<path d="M119.49 102.9C119.411 102.857 119.343 102.796 119.292 102.721C119.241 102.647 119.208 102.562 119.195 102.473C119.182 102.383 119.191 102.292 119.219 102.207C119.248 102.121 119.296 102.044 119.36 101.98C119.85 101.5 120.6 101.64 120.6 100.79C120.6 99.9401 117.87 98.6301 119.23 97.0401C120.36 95.7101 120.94 95.5001 120.65 94.5701C120.17 93.0401 116.94 91.2601 115.8 89.3101C115.14 88.1701 115.51 84.7301 115.22 83.1601C114.93 81.5901 115.22 79.2501 110.69 76.1601C108.508 74.89 106.044 74.1822 103.52 74.1001C102.189 74.0036 100.852 74.0036 99.5204 74.1001C102.06 74.1752 104.539 74.898 106.72 76.2001C111.24 79.2601 111.42 81.6001 111.72 83.2001C112.02 84.8001 111.64 88.2001 112.3 89.3501C113.43 91.3001 116.67 93.0801 117.15 94.6101C117.44 95.5401 116.86 95.7501 115.73 97.0801C114.37 98.6701 117.1 100 117.1 100.83C117.1 101.66 116.34 101.54 115.85 102.02C115.786 102.084 115.738 102.161 115.709 102.247C115.681 102.332 115.672 102.423 115.685 102.513C115.698 102.602 115.731 102.687 115.782 102.761C115.833 102.836 115.901 102.897 115.98 102.94C116.23 103.07 117.34 103.32 117.34 104.02C117.34 104.47 116.74 104.76 116.34 105.02C115.73 105.43 115.49 106.32 115.95 107.48C116.5 108.87 114.95 111.19 112.37 111.6C110.09 111.95 106.44 110.54 104.06 112.88C102.6 114.31 102.3 116.04 99.9704 116.88C99.3889 117.057 98.7934 117.184 98.1904 117.26C98.3004 117.56 98.3904 117.87 98.5104 118.16C100.194 118.141 101.871 117.937 103.51 117.55C105.84 116.73 106.19 113.43 109.24 112.66C111.01 112.22 114.54 112.37 116.9 111.54C119.26 110.71 120.06 108.89 119.5 107.54C119.04 106.38 119.28 105.54 119.89 105.08C120.34 104.77 120.89 104.49 120.89 104.08C120.85 103.28 119.72 103.04 119.49 102.9Z" fill="#F37F2F"/>
<path d="M86.2705 81.41C87.4911 81.41 88.4806 80.4205 88.4806 79.2C88.4806 77.9794 87.4911 76.99 86.2705 76.99C85.05 76.99 84.0605 77.9794 84.0605 79.2C84.0605 80.4205 85.05 81.41 86.2705 81.41Z" fill="#F37F2F"/>
<path d="M89.2305 105.12C90.4511 105.12 91.4405 104.131 91.4405 102.91C91.4405 101.69 90.4511 100.7 89.2305 100.7C88.01 100.7 87.0205 101.69 87.0205 102.91C87.0205 104.131 88.01 105.12 89.2305 105.12Z" fill="#F37F2F"/>
<path d="M82.88 93.8301C84.3325 93.8301 85.51 92.6526 85.51 91.2001C85.51 89.7476 84.3325 88.5701 82.88 88.5701C81.4275 88.5701 80.25 89.7476 80.25 91.2001C80.25 92.6526 81.4275 93.8301 82.88 93.8301Z" fill="#F37F2F"/>
<path d="M100.63 85.31C101.53 85.31 102.26 84.5803 102.26 83.68C102.26 82.7798 101.53 82.05 100.63 82.05C99.7298 82.05 99 82.7798 99 83.68C99 84.5803 99.7298 85.31 100.63 85.31Z" fill="#F37F2F"/>
<path d="M99.8106 76.6501C100.617 76.6501 101.271 75.9964 101.271 75.1901C101.271 74.3838 100.617 73.7301 99.8106 73.7301C99.0042 73.7301 98.3506 74.3838 98.3506 75.1901C98.3506 75.9964 99.0042 76.6501 99.8106 76.6501Z" fill="#F37F2F"/>
<path d="M94.88 91.8301C95.7802 91.8301 96.51 91.1003 96.51 90.2001C96.51 89.2998 95.7802 88.5701 94.88 88.5701C93.9798 88.5701 93.25 89.2998 93.25 90.2001C93.25 91.1003 93.9798 91.8301 94.88 91.8301Z" fill="#F37F2F"/>
<path d="M96.7598 99.13C97.5441 99.13 98.1798 98.4943 98.1798 97.71C98.1798 96.9258 97.5441 96.29 96.7598 96.29C95.9756 96.29 95.3398 96.9258 95.3398 97.71C95.3398 98.4943 95.9756 99.13 96.7598 99.13Z" fill="#F37F2F"/>
<path d="M99.0001 108.29C99.7843 108.29 100.42 107.654 100.42 106.87C100.42 106.086 99.7843 105.45 99.0001 105.45C98.2158 105.45 97.5801 106.086 97.5801 106.87C97.5801 107.654 98.2158 108.29 99.0001 108.29Z" fill="#F37F2F"/>
<path d="M91.6505 115.03C92.4347 115.03 93.0705 114.394 93.0705 113.61C93.0705 112.826 92.4347 112.19 91.6505 112.19C90.8662 112.19 90.2305 112.826 90.2305 113.61C90.2305 114.394 90.8662 115.03 91.6505 115.03Z" fill="#F37F2F"/>
<path d="M87.7607 78.6101L99.0007 75.4801" stroke="#F37F2F" stroke-width="0.46" stroke-miterlimit="10"/>
<path d="M87.8398 79.4701L99.9898 83.4901" stroke="#F37F2F" stroke-width="0.46" stroke-miterlimit="10"/>
<path d="M87.1406 80.3201L94.5506 89.7401" stroke="#F37F2F" stroke-width="0.46" stroke-miterlimit="10"/>
<path d="M86.0801 80.5901L83.0801 89.7401" stroke="#F37F2F" stroke-width="0.46" stroke-miterlimit="10"/>
<path d="M83.7207 92.79C83.7807 92.79 88.5607 101.79 88.5607 101.79" stroke="#F37F2F" stroke-width="0.46" stroke-miterlimit="10"/>
<path d="M90.5703 102.01L96.3703 98.02" stroke="#F37F2F" stroke-width="0.46" stroke-miterlimit="10"/>
<path d="M90.3105 103.51C90.3705 103.51 98.8605 106.86 98.8605 106.86" stroke="#F37F2F" stroke-width="0.46" stroke-miterlimit="10"/>
<path d="M89.5801 104.25L91.4401 112.78" stroke="#F37F2F" stroke-width="0.46" stroke-miterlimit="10"/>
<path d="M106.92 114.92C104.82 115.34 102.59 115.76 100.44 114.92C98.2905 114.08 95.7305 112.12 94.3305 112.64C92.9305 113.16 93.1205 114.22 94.0505 114.78C93.9605 115.62 93.9605 115.99 95.6805 116.69C97.4005 117.39 98.9405 119.77 100.48 120.51C102.36 121.21 104.318 121.68 106.31 121.91C108.994 122.477 111.728 122.775 114.47 122.8C116.501 122.523 118.467 121.893 120.28 120.94L110.47 115.03C110.38 115.1 107.02 114.9 106.92 114.92Z" fill="#FEC2A0"/>
<path d="M108.97 122.03C108.73 122.03 100.27 118.11 99.2901 117.56C98.3101 117.01 98.2901 115.67 100.13 115.78C101.97 115.89 104.67 117.46 105.58 117.88C107.17 118.333 108.817 118.555 110.47 118.54" stroke="#F99979" stroke-width="0.33" stroke-miterlimit="10"/>
<path d="M124.391 89.3301C136.721 90.1001 147.671 97.4901 154.681 103.64" stroke="#029D41" stroke-width="2" stroke-miterlimit="10" stroke-linecap="round" stroke-dasharray="6 6"/>
<path d="M221.08 64.75C214.42 154.48 88.4801 168.8 80.2501 123.38C78.8001 115.38 79.8501 110.89 84.0701 106.86" stroke="#029D41" stroke-width="2" stroke-miterlimit="10" stroke-linecap="round" stroke-dasharray="6 6"/>
</g>
<defs>
<clipPath id="clip0_927_2623">
<rect width="403.66" height="362.11" fill="white"/>
</clipPath>
</defs>
</svg>
