<svg width="419" height="398" viewBox="0 0 419 398" fill="none" xmlns="http://www.w3.org/2000/svg">
<line y1="-2.5" x2="19.2744" y2="-2.5" transform="matrix(0.955872 -0.293783 -0.257707 -0.966223 156.734 266.186)" stroke="#00B84C" stroke-width="5"/>
<path d="M183.036 260.16L173.909 255.837L177.423 269.013L183.036 260.16Z" fill="#00B84C"/>
<line y1="-2.5" x2="19.2313" y2="-2.5" transform="matrix(0.91611 0.400926 0.369123 -0.92938 158.852 284.939)" stroke="#00B84C" stroke-width="5"/>
<path d="M182.786 297.566L178.261 288.132L173.217 300.832L182.786 297.566Z" fill="#00B84C"/>
<line y1="-2.5" x2="19.2025" y2="-2.5" transform="matrix(1 0 0.0329121 -0.999458 260.861 241.815)" stroke="#00B84C" stroke-width="5"/>
<path d="M286.846 243.971L279.015 237.565L279.339 251.247L286.846 243.971Z" fill="#00B84C"/>
<rect width="71.1645" height="45.0785" rx="3" transform="matrix(-1 0 0 1 257.585 282.427)" fill="url(#paint0_linear_918_4278)"/>
<rect width="72.4352" height="45.0785" rx="3" transform="matrix(-1 0 0 1 158.938 255.552)" fill="url(#paint1_linear_918_4278)"/>
<rect width="72.4352" height="45.0785" rx="3" transform="matrix(-1 0 0 1 259.809 222.68)" fill="url(#paint2_linear_918_4278)"/>
<path d="M65.6574 104.923C69.4154 129.431 95.7224 133.487 108.406 132.452C124.54 189.408 184.303 172.426 191.355 166.71C266.957 203.022 293.897 139.166 297.652 131.862C341.211 138.968 348.516 104.898 349.185 101.285C349.686 63.4212 314.198 63.6202 297.809 63.1816C280.688 30.0833 249.43 37.1866 237.05 38.5753C222.871 9.27572 195.263 6.43583 192.856 6.3119C150.512 3.72641 138.58 33.9104 136.574 44.7487C103.365 38.1759 91.7259 67.3618 89.0275 72.8963C63.6311 83.3407 64.3588 102.019 65.6574 104.923Z" stroke="#00ADFF" stroke-width="5"/>
<path d="M114.18 90.3315L116.729 79.5649H118.153L118.478 81.3578L115.762 92.3618H114.233L114.18 90.3315ZM112.871 79.5649L114.98 90.3315L114.804 92.3618H113.099L110.26 79.5649H112.871ZM120.719 90.2875L122.802 79.5649H125.413L122.583 92.3618H120.877L120.719 90.2875ZM118.953 79.5649L121.519 90.3754L121.449 92.3618H119.919L117.186 81.3491L117.538 79.5649H118.953ZM129.157 78.8618V92.3618H126.626V78.8618H129.157ZM128.796 87.2729H128.102C128.108 86.6108 128.196 86.0014 128.366 85.4448C128.536 84.8823 128.779 84.3959 129.095 83.9858C129.412 83.5698 129.79 83.2475 130.229 83.019C130.674 82.7905 131.167 82.6762 131.706 82.6762C132.174 82.6762 132.599 82.7436 132.98 82.8784C133.367 83.0073 133.698 83.2182 133.973 83.5112C134.254 83.7983 134.471 84.1762 134.624 84.645C134.776 85.1137 134.852 85.6821 134.852 86.35V92.3618H132.303V86.3325C132.303 85.9106 132.242 85.5795 132.119 85.3393C132.001 85.0932 131.829 84.9203 131.6 84.8207C131.377 84.7153 131.102 84.6625 130.774 84.6625C130.411 84.6625 130.1 84.7299 129.842 84.8647C129.59 84.9995 129.388 85.187 129.236 85.4272C129.084 85.6616 128.972 85.937 128.902 86.2534C128.832 86.5698 128.796 86.9096 128.796 87.2729ZM141.91 90.2172V85.9809C141.91 85.6762 141.86 85.4155 141.76 85.1987C141.661 84.976 141.505 84.8032 141.294 84.6801C141.089 84.5571 140.823 84.4955 140.495 84.4955C140.213 84.4955 139.97 84.5453 139.765 84.645C139.56 84.7387 139.402 84.8764 139.291 85.058C139.179 85.2338 139.124 85.4418 139.124 85.6821H136.592C136.592 85.2778 136.686 84.894 136.874 84.5307C137.061 84.1674 137.334 83.8481 137.691 83.5727C138.048 83.2914 138.473 83.0717 138.965 82.9135C139.463 82.7553 140.02 82.6762 140.635 82.6762C141.374 82.6762 142.03 82.7993 142.604 83.0453C143.178 83.2914 143.629 83.6606 143.958 84.1528C144.292 84.645 144.459 85.2602 144.459 85.9985V90.0678C144.459 90.5893 144.491 91.017 144.555 91.351C144.62 91.6791 144.713 91.9662 144.836 92.2123V92.3618H142.279C142.156 92.1039 142.062 91.7817 141.998 91.395C141.939 91.0024 141.91 90.6098 141.91 90.2172ZM142.244 86.5698L142.261 88.0024H140.846C140.512 88.0024 140.222 88.0405 139.976 88.1166C139.73 88.1928 139.528 88.3012 139.37 88.4418C139.211 88.5766 139.094 88.7348 139.018 88.9164C138.948 89.0981 138.913 89.2973 138.913 89.5141C138.913 89.7309 138.962 89.9272 139.062 90.103C139.162 90.2729 139.305 90.4077 139.493 90.5073C139.68 90.601 139.9 90.6479 140.152 90.6479C140.533 90.6479 140.864 90.5717 141.145 90.4194C141.426 90.267 141.643 90.0795 141.795 89.8569C141.954 89.6342 142.036 89.4233 142.042 89.2241L142.71 90.2963C142.616 90.5366 142.487 90.7856 142.323 91.0434C142.165 91.3012 141.962 91.5444 141.716 91.7729C141.47 91.9955 141.174 92.1801 140.829 92.3266C140.483 92.4672 140.073 92.5375 139.598 92.5375C138.995 92.5375 138.447 92.4174 137.955 92.1772C137.468 91.9311 137.082 91.5942 136.794 91.1664C136.513 90.7328 136.373 90.2407 136.373 89.6899C136.373 89.1918 136.466 88.7495 136.654 88.3627C136.841 87.976 137.117 87.6508 137.48 87.3871C137.849 87.1176 138.309 86.9155 138.86 86.7807C139.411 86.6401 140.049 86.5698 140.776 86.5698H142.244ZM151.068 82.852V84.645H145.531V82.852H151.068ZM146.902 80.5053H149.433V89.4965C149.433 89.7719 149.468 89.9828 149.539 90.1293C149.615 90.2758 149.726 90.3784 149.873 90.437C150.019 90.4897 150.204 90.5161 150.426 90.5161C150.585 90.5161 150.725 90.5102 150.848 90.4985C150.977 90.4809 151.085 90.4633 151.173 90.4457L151.182 92.309C150.965 92.3793 150.731 92.435 150.479 92.476C150.227 92.517 149.949 92.5375 149.644 92.5375C149.087 92.5375 148.601 92.4467 148.185 92.2651C147.775 92.0776 147.459 91.7787 147.236 91.3686C147.013 90.9584 146.902 90.4194 146.902 89.7514V80.5053ZM162.133 89.7338C162.133 89.5522 162.081 89.3881 161.975 89.2416C161.87 89.0952 161.673 88.9604 161.386 88.8373C161.105 88.7084 160.698 88.5912 160.165 88.4858C159.684 88.3803 159.236 88.2485 158.82 88.0903C158.41 87.9262 158.052 87.7299 157.748 87.5014C157.449 87.2729 157.214 87.0034 157.044 86.6928C156.875 86.3764 156.79 86.0161 156.79 85.6118C156.79 85.2133 156.875 84.8383 157.044 84.4868C157.22 84.1352 157.469 83.8246 157.792 83.5551C158.12 83.2797 158.518 83.0659 158.987 82.9135C159.461 82.7553 159.995 82.6762 160.586 82.6762C161.413 82.6762 162.122 82.808 162.713 83.0717C163.311 83.3354 163.768 83.6987 164.085 84.1616C164.407 84.6186 164.568 85.1401 164.568 85.726H162.037C162.037 85.4799 161.984 85.2602 161.878 85.0668C161.779 84.8676 161.621 84.7123 161.404 84.601C161.193 84.4838 160.918 84.4252 160.578 84.4252C160.296 84.4252 160.053 84.475 159.848 84.5746C159.643 84.6684 159.485 84.7973 159.374 84.9614C159.268 85.1196 159.215 85.2953 159.215 85.4887C159.215 85.6352 159.245 85.767 159.303 85.8842C159.368 85.9955 159.47 86.0981 159.611 86.1918C159.751 86.2856 159.933 86.3735 160.156 86.4555C160.384 86.5317 160.666 86.602 161 86.6664C161.685 86.8071 162.297 86.9916 162.836 87.2202C163.376 87.4428 163.803 87.7475 164.12 88.1342C164.436 88.5151 164.594 89.0161 164.594 89.6371C164.594 90.059 164.501 90.4457 164.313 90.7973C164.126 91.1489 163.856 91.4565 163.504 91.7202C163.153 91.978 162.731 92.1801 162.239 92.3266C161.752 92.4672 161.205 92.5375 160.595 92.5375C159.71 92.5375 158.96 92.3793 158.345 92.0629C157.736 91.7465 157.273 91.3452 156.957 90.8588C156.646 90.3666 156.491 89.8627 156.491 89.3471H158.89C158.902 89.6928 158.99 89.9711 159.154 90.1821C159.324 90.393 159.538 90.5453 159.795 90.6391C160.059 90.7328 160.343 90.7797 160.648 90.7797C160.976 90.7797 161.249 90.7358 161.465 90.6479C161.682 90.5541 161.846 90.4311 161.958 90.2787C162.075 90.1205 162.133 89.9389 162.133 89.7338ZM168.708 78.8618V92.3618H166.176V78.8618H168.708ZM168.347 87.2729H167.653C167.659 86.6108 167.747 86.0014 167.917 85.4448C168.086 84.8823 168.33 84.3959 168.646 83.9858C168.962 83.5698 169.34 83.2475 169.78 83.019C170.225 82.7905 170.717 82.6762 171.256 82.6762C171.725 82.6762 172.15 82.7436 172.531 82.8784C172.918 83.0073 173.249 83.2182 173.524 83.5112C173.805 83.7983 174.022 84.1762 174.174 84.645C174.327 85.1137 174.403 85.6821 174.403 86.35V92.3618H171.854V86.3325C171.854 85.9106 171.793 85.5795 171.669 85.3393C171.552 85.0932 171.379 84.9203 171.151 84.8207C170.928 84.7153 170.653 84.6625 170.325 84.6625C169.961 84.6625 169.651 84.7299 169.393 84.8647C169.141 84.9995 168.939 85.187 168.787 85.4272C168.634 85.6616 168.523 85.937 168.453 86.2534C168.382 86.5698 168.347 86.9096 168.347 87.2729ZM175.923 87.7036V87.519C175.923 86.8217 176.023 86.1801 176.222 85.5942C176.421 85.0024 176.711 84.4897 177.092 84.0561C177.473 83.6225 177.942 83.2856 178.499 83.0453C179.055 82.7993 179.694 82.6762 180.415 82.6762C181.135 82.6762 181.777 82.7993 182.339 83.0453C182.902 83.2856 183.374 83.6225 183.754 84.0561C184.141 84.4897 184.434 85.0024 184.633 85.5942C184.833 86.1801 184.932 86.8217 184.932 87.519V87.7036C184.932 88.395 184.833 89.0366 184.633 89.6284C184.434 90.2143 184.141 90.727 183.754 91.1664C183.374 91.6 182.905 91.937 182.348 92.1772C181.792 92.4174 181.153 92.5375 180.432 92.5375C179.711 92.5375 179.07 92.4174 178.507 92.1772C177.951 91.937 177.479 91.6 177.092 91.1664C176.711 90.727 176.421 90.2143 176.222 89.6284C176.023 89.0366 175.923 88.395 175.923 87.7036ZM178.455 87.519V87.7036C178.455 88.102 178.49 88.4741 178.56 88.8198C178.63 89.1655 178.742 89.4702 178.894 89.7338C179.052 89.9916 179.257 90.1938 179.509 90.3403C179.761 90.4868 180.069 90.56 180.432 90.56C180.784 90.56 181.085 90.4868 181.337 90.3403C181.589 90.1938 181.792 89.9916 181.944 89.7338C182.096 89.4702 182.208 89.1655 182.278 88.8198C182.354 88.4741 182.392 88.102 182.392 87.7036V87.519C182.392 87.1323 182.354 86.769 182.278 86.4291C182.208 86.0834 182.093 85.7787 181.935 85.5151C181.783 85.2455 181.581 85.0346 181.329 84.8823C181.077 84.7299 180.772 84.6537 180.415 84.6537C180.057 84.6537 179.752 84.7299 179.501 84.8823C179.254 85.0346 179.052 85.2455 178.894 85.5151C178.742 85.7787 178.63 86.0834 178.56 86.4291C178.49 86.769 178.455 87.1323 178.455 87.519ZM192.113 90.0854V82.852H194.644V92.3618H192.262L192.113 90.0854ZM192.394 88.1342L193.141 88.1166C193.141 88.7495 193.068 89.3383 192.921 89.8832C192.775 90.4223 192.555 90.8911 192.262 91.2895C191.969 91.6821 191.6 91.9897 191.155 92.2123C190.71 92.4291 190.185 92.5375 189.582 92.5375C189.119 92.5375 188.691 92.4731 188.298 92.3442C187.912 92.2094 187.578 92.0014 187.296 91.7202C187.021 91.433 186.804 91.0668 186.646 90.6215C186.494 90.1703 186.418 89.6284 186.418 88.9955V82.852H188.949V89.0131C188.949 89.2944 188.981 89.5317 189.045 89.725C189.116 89.9184 189.212 90.0766 189.335 90.1996C189.459 90.3227 189.602 90.4106 189.766 90.4633C189.936 90.5161 190.124 90.5424 190.329 90.5424C190.85 90.5424 191.26 90.437 191.559 90.226C191.864 90.0151 192.078 89.728 192.201 89.3647C192.33 88.9955 192.394 88.5854 192.394 88.1342ZM199.25 78.8618V92.3618H196.71V78.8618H199.25ZM206.958 90.2875V78.8618H209.506V92.3618H207.212L206.958 90.2875ZM200.946 87.7211V87.5366C200.946 86.81 201.028 86.1508 201.192 85.559C201.356 84.9614 201.596 84.4487 201.913 84.0209C202.229 83.5932 202.619 83.2621 203.082 83.0278C203.544 82.7934 204.072 82.6762 204.664 82.6762C205.22 82.6762 205.707 82.7934 206.123 83.0278C206.544 83.2621 206.902 83.5961 207.195 84.0297C207.494 84.4575 207.734 84.9643 207.916 85.5502C208.097 86.1303 208.229 86.7661 208.311 87.4575V87.8618C208.229 88.5239 208.097 89.1391 207.916 89.7075C207.734 90.2758 207.494 90.7739 207.195 91.2016C206.902 91.6235 206.544 91.9516 206.123 92.186C205.701 92.4203 205.209 92.5375 204.646 92.5375C204.054 92.5375 203.527 92.4174 203.064 92.1772C202.607 91.937 202.22 91.6 201.904 91.1664C201.593 90.7328 201.356 90.2231 201.192 89.6371C201.028 89.0512 200.946 88.4125 200.946 87.7211ZM203.477 87.5366V87.7211C203.477 88.1137 203.506 88.4799 203.565 88.8198C203.629 89.1596 203.732 89.4614 203.873 89.725C204.019 89.9828 204.207 90.185 204.435 90.3315C204.669 90.4721 204.954 90.5424 205.288 90.5424C205.721 90.5424 206.079 90.4457 206.36 90.2524C206.641 90.0532 206.855 89.7807 207.001 89.435C207.154 89.0893 207.242 88.6909 207.265 88.2397V87.0883C207.248 86.7192 207.195 86.3881 207.107 86.0952C207.025 85.7963 206.902 85.5414 206.738 85.3305C206.58 85.1196 206.38 84.9555 206.14 84.8383C205.906 84.7211 205.627 84.6625 205.305 84.6625C204.977 84.6625 204.696 84.7387 204.461 84.8911C204.227 85.0375 204.037 85.2397 203.89 85.4975C203.75 85.7553 203.644 86.06 203.574 86.4116C203.509 86.7573 203.477 87.1323 203.477 87.5366ZM215.562 87.7036V87.519C215.562 86.8217 215.662 86.1801 215.861 85.5942C216.06 85.0024 216.35 84.4897 216.731 84.0561C217.112 83.6225 217.581 83.2856 218.137 83.0453C218.694 82.7993 219.333 82.6762 220.053 82.6762C220.774 82.6762 221.416 82.7993 221.978 83.0453C222.541 83.2856 223.012 83.6225 223.393 84.0561C223.78 84.4897 224.073 85.0024 224.272 85.5942C224.471 86.1801 224.571 86.8217 224.571 87.519V87.7036C224.571 88.395 224.471 89.0366 224.272 89.6284C224.073 90.2143 223.78 90.727 223.393 91.1664C223.012 91.6 222.543 91.937 221.987 92.1772C221.43 92.4174 220.792 92.5375 220.071 92.5375C219.35 92.5375 218.709 92.4174 218.146 92.1772C217.589 91.937 217.118 91.6 216.731 91.1664C216.35 90.727 216.06 90.2143 215.861 89.6284C215.662 89.0366 215.562 88.395 215.562 87.7036ZM218.093 87.519V87.7036C218.093 88.102 218.128 88.4741 218.199 88.8198C218.269 89.1655 218.38 89.4702 218.533 89.7338C218.691 89.9916 218.896 90.1938 219.148 90.3403C219.4 90.4868 219.708 90.56 220.071 90.56C220.422 90.56 220.724 90.4868 220.976 90.3403C221.228 90.1938 221.43 89.9916 221.583 89.7338C221.735 89.4702 221.846 89.1655 221.917 88.8198C221.993 88.4741 222.031 88.102 222.031 87.7036V87.519C222.031 87.1323 221.993 86.769 221.917 86.4291C221.846 86.0834 221.732 85.7787 221.574 85.5151C221.421 85.2455 221.219 85.0346 220.967 84.8823C220.715 84.7299 220.411 84.6537 220.053 84.6537C219.696 84.6537 219.391 84.7299 219.139 84.8823C218.893 85.0346 218.691 85.2455 218.533 85.5151C218.38 85.7787 218.269 86.0834 218.199 86.4291C218.128 86.769 218.093 87.1323 218.093 87.519ZM228.605 84.8823V92.3618H226.074V82.852H228.447L228.605 84.8823ZM228.236 87.2729H227.55C227.55 86.5698 227.641 85.937 227.823 85.3745C228.004 84.8061 228.259 84.3227 228.587 83.9243C228.916 83.52 229.305 83.2123 229.756 83.0014C230.213 82.7846 230.723 82.6762 231.286 82.6762C231.731 82.6762 232.138 82.7407 232.507 82.8696C232.876 82.9985 233.193 83.2036 233.457 83.4848C233.726 83.7661 233.931 84.1381 234.072 84.601C234.218 85.0639 234.292 85.6293 234.292 86.2973V92.3618H231.743V86.2885C231.743 85.8666 231.684 85.5385 231.567 85.3041C231.45 85.0698 231.277 84.9057 231.048 84.812C230.826 84.7123 230.55 84.6625 230.222 84.6625C229.882 84.6625 229.586 84.7299 229.335 84.8647C229.088 84.9995 228.883 85.187 228.719 85.4272C228.561 85.6616 228.441 85.937 228.359 86.2534C228.277 86.5698 228.236 86.9096 228.236 87.2729ZM240.593 92.5375C239.855 92.5375 239.193 92.4203 238.607 92.186C238.021 91.9457 237.523 91.6147 237.113 91.1928C236.709 90.7709 236.398 90.2817 236.181 89.725C235.964 89.1625 235.856 88.5649 235.856 87.9321V87.5805C235.856 86.8598 235.959 86.2006 236.164 85.603C236.369 85.0053 236.662 84.4868 237.043 84.0473C237.429 83.6078 237.898 83.2709 238.449 83.0366C239 82.7963 239.621 82.6762 240.312 82.6762C240.986 82.6762 241.584 82.7875 242.105 83.0102C242.626 83.2328 243.063 83.5493 243.415 83.9594C243.772 84.3696 244.042 84.8618 244.223 85.436C244.405 86.0043 244.496 86.6371 244.496 87.3344V88.3891H236.937V86.7016H242.008V86.5082C242.008 86.1567 241.944 85.8432 241.815 85.5678C241.692 85.2866 241.504 85.0639 241.252 84.8998C241.001 84.7358 240.678 84.6537 240.286 84.6537C239.952 84.6537 239.665 84.727 239.424 84.8735C239.184 85.02 238.988 85.225 238.835 85.4887C238.689 85.7524 238.578 86.0629 238.501 86.4203C238.431 86.7719 238.396 87.1586 238.396 87.5805V87.9321C238.396 88.3129 238.449 88.6645 238.554 88.9868C238.666 89.309 238.821 89.5873 239.02 89.8217C239.225 90.0561 239.471 90.2377 239.758 90.3666C240.051 90.4955 240.382 90.56 240.751 90.56C241.209 90.56 241.633 90.4721 242.026 90.2963C242.424 90.1147 242.767 89.8422 243.054 89.4789L244.285 90.8149C244.085 91.102 243.813 91.3774 243.467 91.6411C243.127 91.9047 242.717 92.1215 242.237 92.2914C241.756 92.4555 241.209 92.5375 240.593 92.5375ZM252.951 78.853V92.3618H250.419V78.853H252.951ZM258.945 82.852L254.814 87.5629L252.599 89.8041L251.676 87.976L253.434 85.7436L255.904 82.852H258.945ZM256.317 92.3618L253.504 87.9672L255.253 86.4379L259.235 92.3618H256.317ZM262.513 84.8823V92.3618H259.982V82.852H262.355L262.513 84.8823ZM262.144 87.2729H261.459C261.459 86.5698 261.549 85.937 261.731 85.3745C261.913 84.8061 262.168 84.3227 262.496 83.9243C262.824 83.52 263.213 83.2123 263.665 83.0014C264.122 82.7846 264.631 82.6762 265.194 82.6762C265.639 82.6762 266.046 82.7407 266.416 82.8696C266.785 82.9985 267.101 83.2036 267.365 83.4848C267.634 83.7661 267.839 84.1381 267.98 84.601C268.126 85.0639 268.2 85.6293 268.2 86.2973V92.3618H265.651V86.2885C265.651 85.8666 265.592 85.5385 265.475 85.3041C265.358 85.0698 265.185 84.9057 264.957 84.812C264.734 84.7123 264.459 84.6625 264.13 84.6625C263.791 84.6625 263.495 84.7299 263.243 84.8647C262.997 84.9995 262.792 85.187 262.627 85.4272C262.469 85.6616 262.349 85.937 262.267 86.2534C262.185 86.5698 262.144 86.9096 262.144 87.2729ZM269.72 87.7036V87.519C269.72 86.8217 269.82 86.1801 270.019 85.5942C270.218 85.0024 270.508 84.4897 270.889 84.0561C271.27 83.6225 271.739 83.2856 272.295 83.0453C272.852 82.7993 273.491 82.6762 274.211 82.6762C274.932 82.6762 275.574 82.7993 276.136 83.0453C276.699 83.2856 277.17 83.6225 277.551 84.0561C277.938 84.4897 278.231 85.0024 278.43 85.5942C278.629 86.1801 278.729 86.8217 278.729 87.519V87.7036C278.729 88.395 278.629 89.0366 278.43 89.6284C278.231 90.2143 277.938 90.727 277.551 91.1664C277.17 91.6 276.702 91.937 276.145 92.1772C275.588 92.4174 274.95 92.5375 274.229 92.5375C273.508 92.5375 272.867 92.4174 272.304 92.1772C271.748 91.937 271.276 91.6 270.889 91.1664C270.508 90.727 270.218 90.2143 270.019 89.6284C269.82 89.0366 269.72 88.395 269.72 87.7036ZM272.251 87.519V87.7036C272.251 88.102 272.287 88.4741 272.357 88.8198C272.427 89.1655 272.539 89.4702 272.691 89.7338C272.849 89.9916 273.054 90.1938 273.306 90.3403C273.558 90.4868 273.866 90.56 274.229 90.56C274.581 90.56 274.882 90.4868 275.134 90.3403C275.386 90.1938 275.588 89.9916 275.741 89.7338C275.893 89.4702 276.004 89.1655 276.075 88.8198C276.151 88.4741 276.189 88.102 276.189 87.7036V87.519C276.189 87.1323 276.151 86.769 276.075 86.4291C276.004 86.0834 275.89 85.7787 275.732 85.5151C275.58 85.2455 275.377 85.0346 275.126 84.8823C274.874 84.7299 274.569 84.6537 274.211 84.6537C273.854 84.6537 273.549 84.7299 273.297 84.8823C273.051 85.0346 272.849 85.2455 272.691 85.5151C272.539 85.7787 272.427 86.0834 272.357 86.4291C272.287 86.769 272.251 87.1323 272.251 87.519ZM283.001 89.9008L284.978 82.852H286.586L286.068 85.6205L284.09 92.3618H282.746L283.001 89.9008ZM281.999 82.852L283.414 89.892L283.545 92.3618H281.963L279.555 82.852H281.999ZM288.397 89.7778L289.777 82.852H292.229L289.821 92.3618H288.248L288.397 89.7778ZM286.806 82.852L288.775 89.8481L289.047 92.3618H287.694L285.716 85.6293L285.215 82.852H286.806ZM302.644 82.852V84.645H297.107V82.852H302.644ZM298.478 80.5053H301.009V89.4965C301.009 89.7719 301.044 89.9828 301.115 90.1293C301.191 90.2758 301.302 90.3784 301.449 90.437C301.595 90.4897 301.78 90.5161 302.002 90.5161C302.161 90.5161 302.301 90.5102 302.424 90.4985C302.553 90.4809 302.662 90.4633 302.75 90.4457L302.758 92.309C302.542 92.3793 302.307 92.435 302.055 92.476C301.803 92.517 301.525 92.5375 301.22 92.5375C300.664 92.5375 300.177 92.4467 299.761 92.2651C299.351 92.0776 299.035 91.7787 298.812 91.3686C298.589 90.9584 298.478 90.4194 298.478 89.7514V80.5053ZM303.453 87.7036V87.519C303.453 86.8217 303.552 86.1801 303.751 85.5942C303.951 85.0024 304.241 84.4897 304.622 84.0561C305.002 83.6225 305.471 83.2856 306.028 83.0453C306.585 82.7993 307.223 82.6762 307.944 82.6762C308.665 82.6762 309.306 82.7993 309.869 83.0453C310.431 83.2856 310.903 83.6225 311.284 84.0561C311.67 84.4897 311.963 85.0024 312.163 85.5942C312.362 86.1801 312.461 86.8217 312.461 87.519V87.7036C312.461 88.395 312.362 89.0366 312.163 89.6284C311.963 90.2143 311.67 90.727 311.284 91.1664C310.903 91.6 310.434 91.937 309.877 92.1772C309.321 92.4174 308.682 92.5375 307.961 92.5375C307.241 92.5375 306.599 92.4174 306.037 92.1772C305.48 91.937 305.008 91.6 304.622 91.1664C304.241 90.727 303.951 90.2143 303.751 89.6284C303.552 89.0366 303.453 88.395 303.453 87.7036ZM305.984 87.519V87.7036C305.984 88.102 306.019 88.4741 306.089 88.8198C306.16 89.1655 306.271 89.4702 306.423 89.7338C306.582 89.9916 306.787 90.1938 307.039 90.3403C307.291 90.4868 307.598 90.56 307.961 90.56C308.313 90.56 308.615 90.4868 308.867 90.3403C309.119 90.1938 309.321 89.9916 309.473 89.7338C309.626 89.4702 309.737 89.1655 309.807 88.8198C309.883 88.4741 309.921 88.102 309.921 87.7036V87.519C309.921 87.1323 309.883 86.769 309.807 86.4291C309.737 86.0834 309.623 85.7787 309.464 85.5151C309.312 85.2455 309.11 85.0346 308.858 84.8823C308.606 84.7299 308.301 84.6537 307.944 84.6537C307.586 84.6537 307.282 84.7299 307.03 84.8823C306.784 85.0346 306.582 85.2455 306.423 85.5151C306.271 85.7787 306.16 86.0834 306.089 86.4291C306.019 86.769 305.984 87.1323 305.984 87.519ZM123.505 99.8618V113.362H120.965V99.8618H123.505ZM129.974 113.538C129.236 113.538 128.574 113.42 127.988 113.186C127.402 112.946 126.904 112.615 126.494 112.193C126.089 111.771 125.779 111.282 125.562 110.725C125.345 110.163 125.237 109.565 125.237 108.932V108.581C125.237 107.86 125.339 107.201 125.544 106.603C125.75 106.005 126.043 105.487 126.423 105.047C126.81 104.608 127.279 104.271 127.83 104.037C128.38 103.796 129.001 103.676 129.693 103.676C130.367 103.676 130.964 103.788 131.486 104.01C132.007 104.233 132.444 104.549 132.795 104.959C133.153 105.37 133.422 105.862 133.604 106.436C133.786 107.004 133.876 107.637 133.876 108.334V109.389H126.318V107.702H131.389V107.508C131.389 107.157 131.325 106.843 131.196 106.568C131.073 106.287 130.885 106.064 130.633 105.9C130.381 105.736 130.059 105.654 129.667 105.654C129.333 105.654 129.045 105.727 128.805 105.873C128.565 106.02 128.369 106.225 128.216 106.489C128.07 106.752 127.959 107.063 127.882 107.42C127.812 107.772 127.777 108.159 127.777 108.581V108.932C127.777 109.313 127.83 109.664 127.935 109.987C128.046 110.309 128.202 110.587 128.401 110.822C128.606 111.056 128.852 111.238 129.139 111.367C129.432 111.496 129.763 111.56 130.132 111.56C130.589 111.56 131.014 111.472 131.407 111.296C131.805 111.115 132.148 110.842 132.435 110.479L133.666 111.815C133.466 112.102 133.194 112.377 132.848 112.641C132.508 112.905 132.098 113.122 131.618 113.291C131.137 113.456 130.589 113.538 129.974 113.538ZM140.451 111.217V106.981C140.451 106.676 140.401 106.415 140.301 106.199C140.202 105.976 140.046 105.803 139.835 105.68C139.63 105.557 139.364 105.496 139.036 105.496C138.754 105.496 138.511 105.545 138.306 105.645C138.101 105.739 137.943 105.876 137.832 106.058C137.72 106.234 137.665 106.442 137.665 106.682H135.133C135.133 106.278 135.227 105.894 135.415 105.531C135.602 105.167 135.875 104.848 136.232 104.573C136.589 104.291 137.014 104.072 137.506 103.914C138.004 103.755 138.561 103.676 139.176 103.676C139.915 103.676 140.571 103.799 141.145 104.045C141.719 104.291 142.17 104.661 142.499 105.153C142.833 105.645 143 106.26 143 106.998V111.068C143 111.589 143.032 112.017 143.096 112.351C143.161 112.679 143.254 112.966 143.377 113.212V113.362H140.82C140.697 113.104 140.603 112.782 140.539 112.395C140.48 112.002 140.451 111.61 140.451 111.217ZM140.785 107.57L140.802 109.002H139.387C139.053 109.002 138.763 109.04 138.517 109.117C138.271 109.193 138.069 109.301 137.911 109.442C137.752 109.577 137.635 109.735 137.559 109.916C137.489 110.098 137.454 110.297 137.454 110.514C137.454 110.731 137.503 110.927 137.603 111.103C137.703 111.273 137.846 111.408 138.034 111.507C138.221 111.601 138.441 111.648 138.693 111.648C139.074 111.648 139.405 111.572 139.686 111.419C139.967 111.267 140.184 111.08 140.336 110.857C140.495 110.634 140.577 110.423 140.583 110.224L141.251 111.296C141.157 111.537 141.028 111.786 140.864 112.043C140.706 112.301 140.503 112.544 140.257 112.773C140.011 112.996 139.715 113.18 139.37 113.327C139.024 113.467 138.614 113.538 138.139 113.538C137.536 113.538 136.988 113.417 136.496 113.177C136.009 112.931 135.623 112.594 135.335 112.166C135.054 111.733 134.914 111.241 134.914 110.69C134.914 110.192 135.007 109.749 135.195 109.363C135.382 108.976 135.658 108.651 136.021 108.387C136.39 108.118 136.85 107.915 137.401 107.781C137.952 107.64 138.59 107.57 139.317 107.57H140.785ZM147.482 105.926V113.362H144.951V103.852H147.333L147.482 105.926ZM150.347 103.79L150.303 106.137C150.18 106.12 150.031 106.105 149.855 106.093C149.685 106.076 149.53 106.067 149.389 106.067C149.032 106.067 148.721 106.114 148.458 106.207C148.2 106.295 147.983 106.427 147.807 106.603C147.637 106.779 147.508 106.993 147.42 107.245C147.338 107.497 147.292 107.784 147.28 108.106L146.77 107.948C146.77 107.332 146.832 106.767 146.955 106.251C147.078 105.73 147.256 105.276 147.491 104.889C147.731 104.502 148.024 104.204 148.37 103.993C148.715 103.782 149.111 103.676 149.556 103.676C149.697 103.676 149.84 103.688 149.987 103.711C150.133 103.729 150.253 103.755 150.347 103.79ZM154.021 105.882V113.362H151.49V103.852H153.863L154.021 105.882ZM153.652 108.273H152.966C152.966 107.57 153.057 106.937 153.239 106.374C153.42 105.806 153.675 105.323 154.003 104.924C154.332 104.52 154.721 104.212 155.172 104.001C155.629 103.785 156.139 103.676 156.702 103.676C157.147 103.676 157.554 103.741 157.923 103.87C158.293 103.998 158.609 104.204 158.873 104.485C159.142 104.766 159.347 105.138 159.488 105.601C159.634 106.064 159.708 106.629 159.708 107.297V113.362H157.159V107.289C157.159 106.867 157.1 106.539 156.983 106.304C156.866 106.07 156.693 105.906 156.464 105.812C156.242 105.712 155.966 105.663 155.638 105.663C155.298 105.663 155.002 105.73 154.751 105.865C154.504 105.999 154.299 106.187 154.135 106.427C153.977 106.662 153.857 106.937 153.775 107.253C153.693 107.57 153.652 107.91 153.652 108.273ZM168.831 110.901L170.808 103.852H172.417L171.898 106.621L169.92 113.362H168.576L168.831 110.901ZM167.829 103.852L169.244 110.892L169.376 113.362H167.793L165.385 103.852H167.829ZM174.227 110.778L175.607 103.852H178.059L175.651 113.362H174.078L174.227 110.778ZM172.636 103.852L174.605 110.848L174.877 113.362H173.524L171.546 106.629L171.045 103.852H172.636ZM181.803 99.8618V113.362H179.272V99.8618H181.803ZM181.443 108.273H180.749C180.754 107.611 180.842 107.001 181.012 106.445C181.182 105.882 181.425 105.396 181.742 104.986C182.058 104.57 182.436 104.247 182.876 104.019C183.321 103.79 183.813 103.676 184.352 103.676C184.821 103.676 185.246 103.744 185.626 103.878C186.013 104.007 186.344 104.218 186.62 104.511C186.901 104.798 187.118 105.176 187.27 105.645C187.422 106.114 187.499 106.682 187.499 107.35V113.362H184.95V107.332C184.95 106.911 184.888 106.58 184.765 106.339C184.648 106.093 184.475 105.92 184.247 105.821C184.024 105.715 183.749 105.663 183.42 105.663C183.057 105.663 182.747 105.73 182.489 105.865C182.237 105.999 182.035 106.187 181.882 106.427C181.73 106.662 181.619 106.937 181.548 107.253C181.478 107.57 181.443 107.91 181.443 108.273ZM194.556 111.217V106.981C194.556 106.676 194.506 106.415 194.407 106.199C194.307 105.976 194.152 105.803 193.941 105.68C193.736 105.557 193.469 105.496 193.141 105.496C192.86 105.496 192.617 105.545 192.412 105.645C192.207 105.739 192.048 105.876 191.937 106.058C191.826 106.234 191.77 106.442 191.77 106.682H189.239C189.239 106.278 189.333 105.894 189.52 105.531C189.708 105.167 189.98 104.848 190.337 104.573C190.695 104.291 191.12 104.072 191.612 103.914C192.11 103.755 192.667 103.676 193.282 103.676C194.02 103.676 194.676 103.799 195.251 104.045C195.825 104.291 196.276 104.661 196.604 105.153C196.938 105.645 197.105 106.26 197.105 106.998V111.068C197.105 111.589 197.137 112.017 197.202 112.351C197.266 112.679 197.36 112.966 197.483 113.212V113.362H194.925C194.802 113.104 194.709 112.782 194.644 112.395C194.585 112.002 194.556 111.61 194.556 111.217ZM194.89 107.57L194.908 109.002H193.493C193.159 109.002 192.869 109.04 192.623 109.117C192.376 109.193 192.174 109.301 192.016 109.442C191.858 109.577 191.741 109.735 191.665 109.916C191.594 110.098 191.559 110.297 191.559 110.514C191.559 110.731 191.609 110.927 191.709 111.103C191.808 111.273 191.952 111.408 192.139 111.507C192.327 111.601 192.546 111.648 192.798 111.648C193.179 111.648 193.51 111.572 193.792 111.419C194.073 111.267 194.29 111.08 194.442 110.857C194.6 110.634 194.682 110.423 194.688 110.224L195.356 111.296C195.262 111.537 195.133 111.786 194.969 112.043C194.811 112.301 194.609 112.544 194.363 112.773C194.117 112.996 193.821 113.18 193.475 113.327C193.129 113.467 192.719 113.538 192.245 113.538C191.641 113.538 191.093 113.417 190.601 113.177C190.115 112.931 189.728 112.594 189.441 112.166C189.16 111.733 189.019 111.241 189.019 110.69C189.019 110.192 189.113 109.749 189.3 109.363C189.488 108.976 189.763 108.651 190.126 108.387C190.496 108.118 190.956 107.915 191.506 107.781C192.057 107.64 192.696 107.57 193.422 107.57H194.89ZM203.714 103.852V105.645H198.177V103.852H203.714ZM199.548 101.505H202.08V110.497C202.08 110.772 202.115 110.983 202.185 111.129C202.261 111.276 202.373 111.378 202.519 111.437C202.666 111.49 202.85 111.516 203.073 111.516C203.231 111.516 203.372 111.51 203.495 111.498C203.624 111.481 203.732 111.463 203.82 111.446L203.829 113.309C203.612 113.379 203.377 113.435 203.126 113.476C202.874 113.517 202.595 113.538 202.291 113.538C201.734 113.538 201.248 113.447 200.832 113.265C200.421 113.078 200.105 112.779 199.882 112.369C199.66 111.958 199.548 111.419 199.548 110.751V101.505ZM212.6 100.565V113.362H209.972V100.565H212.6ZM217.223 99.8618V101.198C217.223 101.579 217.15 101.971 217.003 102.375C216.863 102.78 216.672 103.164 216.432 103.527C216.192 103.884 215.928 104.189 215.641 104.441L214.455 103.755C214.671 103.41 214.856 103.035 215.008 102.63C215.161 102.22 215.237 101.746 215.237 101.206V99.8618H217.223ZM221.398 105.821V113.362H218.858V103.852H221.24L221.398 105.821ZM221.046 108.273H220.343C220.343 107.611 220.422 107.001 220.581 106.445C220.745 105.882 220.982 105.396 221.293 104.986C221.609 104.57 221.999 104.247 222.461 104.019C222.924 103.79 223.46 103.676 224.07 103.676C224.492 103.676 224.878 103.741 225.23 103.87C225.582 103.993 225.883 104.189 226.135 104.458C226.393 104.722 226.592 105.068 226.733 105.496C226.874 105.917 226.944 106.424 226.944 107.016V113.362H224.413V107.297C224.413 106.864 224.354 106.53 224.237 106.295C224.12 106.061 223.953 105.897 223.736 105.803C223.525 105.709 223.27 105.663 222.971 105.663C222.643 105.663 222.356 105.73 222.11 105.865C221.87 105.999 221.67 106.187 221.512 106.427C221.354 106.662 221.237 106.937 221.161 107.253C221.085 107.57 221.046 107.91 221.046 108.273ZM226.707 107.983L225.801 108.097C225.801 107.476 225.877 106.899 226.03 106.366C226.188 105.832 226.419 105.364 226.724 104.959C227.035 104.555 227.418 104.242 227.876 104.019C228.333 103.79 228.86 103.676 229.458 103.676C229.915 103.676 230.331 103.744 230.706 103.878C231.081 104.007 231.4 104.215 231.664 104.502C231.933 104.784 232.138 105.153 232.279 105.61C232.425 106.067 232.499 106.626 232.499 107.289V113.362H229.959V107.289C229.959 106.849 229.9 106.515 229.783 106.287C229.671 106.052 229.507 105.891 229.291 105.803C229.08 105.709 228.828 105.663 228.535 105.663C228.23 105.663 227.963 105.724 227.735 105.847C227.506 105.964 227.316 106.128 227.164 106.339C227.011 106.55 226.897 106.796 226.821 107.078C226.745 107.353 226.707 107.655 226.707 107.983ZM244.083 110.734C244.083 110.552 244.03 110.388 243.924 110.242C243.819 110.095 243.623 109.96 243.335 109.837C243.054 109.708 242.647 109.591 242.114 109.486C241.633 109.38 241.185 109.248 240.769 109.09C240.359 108.926 240.001 108.73 239.697 108.501C239.398 108.273 239.164 108.003 238.994 107.693C238.824 107.376 238.739 107.016 238.739 106.612C238.739 106.213 238.824 105.838 238.994 105.487C239.169 105.135 239.418 104.825 239.741 104.555C240.069 104.28 240.467 104.066 240.936 103.914C241.411 103.755 241.944 103.676 242.536 103.676C243.362 103.676 244.071 103.808 244.663 104.072C245.26 104.335 245.717 104.699 246.034 105.162C246.356 105.619 246.517 106.14 246.517 106.726H243.986C243.986 106.48 243.933 106.26 243.828 106.067C243.728 105.868 243.57 105.712 243.353 105.601C243.142 105.484 242.867 105.425 242.527 105.425C242.246 105.425 242.002 105.475 241.797 105.575C241.592 105.668 241.434 105.797 241.323 105.961C241.217 106.12 241.165 106.295 241.165 106.489C241.165 106.635 241.194 106.767 241.252 106.884C241.317 106.996 241.419 107.098 241.56 107.192C241.701 107.286 241.882 107.373 242.105 107.456C242.334 107.532 242.615 107.602 242.949 107.666C243.634 107.807 244.247 107.992 244.786 108.22C245.325 108.443 245.752 108.747 246.069 109.134C246.385 109.515 246.543 110.016 246.543 110.637C246.543 111.059 246.45 111.446 246.262 111.797C246.075 112.149 245.805 112.456 245.454 112.72C245.102 112.978 244.68 113.18 244.188 113.327C243.702 113.467 243.154 113.538 242.544 113.538C241.66 113.538 240.91 113.379 240.294 113.063C239.685 112.747 239.222 112.345 238.906 111.859C238.595 111.367 238.44 110.863 238.44 110.347H240.839C240.851 110.693 240.939 110.971 241.103 111.182C241.273 111.393 241.487 111.545 241.745 111.639C242.008 111.733 242.293 111.78 242.597 111.78C242.925 111.78 243.198 111.736 243.415 111.648C243.631 111.554 243.795 111.431 243.907 111.279C244.024 111.121 244.083 110.939 244.083 110.734ZM250.657 99.8618V113.362H248.126V99.8618H250.657ZM250.296 108.273H249.602C249.608 107.611 249.696 107.001 249.866 106.445C250.036 105.882 250.279 105.396 250.595 104.986C250.912 104.57 251.29 104.247 251.729 104.019C252.174 103.79 252.667 103.676 253.206 103.676C253.674 103.676 254.099 103.744 254.48 103.878C254.867 104.007 255.198 104.218 255.473 104.511C255.754 104.798 255.971 105.176 256.124 105.645C256.276 106.114 256.352 106.682 256.352 107.35V113.362H253.803V107.332C253.803 106.911 253.742 106.58 253.619 106.339C253.501 106.093 253.329 105.92 253.1 105.821C252.877 105.715 252.602 105.663 252.274 105.663C251.911 105.663 251.6 105.73 251.342 105.865C251.09 105.999 250.888 106.187 250.736 106.427C250.584 106.662 250.472 106.937 250.402 107.253C250.332 107.57 250.296 107.91 250.296 108.273ZM263.41 111.217V106.981C263.41 106.676 263.36 106.415 263.26 106.199C263.161 105.976 263.005 105.803 262.794 105.68C262.589 105.557 262.323 105.496 261.995 105.496C261.713 105.496 261.47 105.545 261.265 105.645C261.06 105.739 260.902 105.876 260.791 106.058C260.679 106.234 260.624 106.442 260.624 106.682H258.092C258.092 106.278 258.186 105.894 258.374 105.531C258.561 105.167 258.834 104.848 259.191 104.573C259.548 104.291 259.973 104.072 260.465 103.914C260.963 103.755 261.52 103.676 262.135 103.676C262.874 103.676 263.53 103.799 264.104 104.045C264.678 104.291 265.129 104.661 265.458 105.153C265.792 105.645 265.959 106.26 265.959 106.998V111.068C265.959 111.589 265.991 112.017 266.055 112.351C266.12 112.679 266.213 112.966 266.336 113.212V113.362H263.779C263.656 113.104 263.562 112.782 263.498 112.395C263.439 112.002 263.41 111.61 263.41 111.217ZM263.744 107.57L263.761 109.002H262.346C262.012 109.002 261.722 109.04 261.476 109.117C261.23 109.193 261.028 109.301 260.87 109.442C260.711 109.577 260.594 109.735 260.518 109.916C260.448 110.098 260.413 110.297 260.413 110.514C260.413 110.731 260.462 110.927 260.562 111.103C260.662 111.273 260.805 111.408 260.993 111.507C261.18 111.601 261.4 111.648 261.652 111.648C262.033 111.648 262.364 111.572 262.645 111.419C262.926 111.267 263.143 111.08 263.295 110.857C263.454 110.634 263.536 110.423 263.542 110.224L264.21 111.296C264.116 111.537 263.987 111.786 263.823 112.043C263.665 112.301 263.462 112.544 263.216 112.773C262.97 112.996 262.674 113.18 262.329 113.327C261.983 113.467 261.573 113.538 261.098 113.538C260.495 113.538 259.947 113.417 259.455 113.177C258.968 112.931 258.582 112.594 258.294 112.166C258.013 111.733 257.873 111.241 257.873 110.69C257.873 110.192 257.966 109.749 258.154 109.363C258.341 108.976 258.617 108.651 258.98 108.387C259.349 108.118 259.809 107.915 260.36 107.781C260.911 107.64 261.549 107.57 262.276 107.57H263.744ZM270.441 105.926V113.362H267.91V103.852H270.292L270.441 105.926ZM273.306 103.79L273.262 106.137C273.139 106.12 272.99 106.105 272.814 106.093C272.644 106.076 272.489 106.067 272.348 106.067C271.991 106.067 271.68 106.114 271.417 106.207C271.159 106.295 270.942 106.427 270.766 106.603C270.596 106.779 270.467 106.993 270.379 107.245C270.297 107.497 270.251 107.784 270.239 108.106L269.729 107.948C269.729 107.332 269.791 106.767 269.914 106.251C270.037 105.73 270.215 105.276 270.45 104.889C270.69 104.502 270.983 104.204 271.329 103.993C271.674 103.782 272.07 103.676 272.515 103.676C272.656 103.676 272.799 103.688 272.946 103.711C273.092 103.729 273.212 103.755 273.306 103.79ZM277.173 103.852V113.362H274.633V103.852H277.173ZM274.475 101.373C274.475 101.004 274.604 100.7 274.862 100.459C275.12 100.219 275.465 100.099 275.899 100.099C276.327 100.099 276.669 100.219 276.927 100.459C277.191 100.7 277.323 101.004 277.323 101.373C277.323 101.743 277.191 102.047 276.927 102.288C276.669 102.528 276.327 102.648 275.899 102.648C275.465 102.648 275.12 102.528 274.862 102.288C274.604 102.047 274.475 101.743 274.475 101.373ZM281.744 105.882V113.362H279.212V103.852H281.585L281.744 105.882ZM281.375 108.273H280.689C280.689 107.57 280.78 106.937 280.961 106.374C281.143 105.806 281.398 105.323 281.726 104.924C282.054 104.52 282.444 104.212 282.895 104.001C283.352 103.785 283.862 103.676 284.424 103.676C284.87 103.676 285.277 103.741 285.646 103.87C286.015 103.998 286.332 104.204 286.595 104.485C286.865 104.766 287.07 105.138 287.21 105.601C287.357 106.064 287.43 106.629 287.43 107.297V113.362H284.881V107.289C284.881 106.867 284.823 106.539 284.706 106.304C284.588 106.07 284.416 105.906 284.187 105.812C283.964 105.712 283.689 105.663 283.361 105.663C283.021 105.663 282.725 105.73 282.473 105.865C282.227 105.999 282.022 106.187 281.858 106.427C281.7 106.662 281.58 106.937 281.498 107.253C281.416 107.57 281.375 107.91 281.375 108.273ZM295.376 103.852H297.669V113.045C297.669 113.913 297.476 114.648 297.089 115.251C296.709 115.861 296.175 116.321 295.49 116.631C294.804 116.948 294.007 117.106 293.099 117.106C292.701 117.106 292.279 117.053 291.834 116.948C291.394 116.842 290.972 116.678 290.568 116.456C290.169 116.233 289.835 115.952 289.566 115.612L290.682 114.118C290.975 114.457 291.315 114.721 291.702 114.909C292.088 115.102 292.516 115.199 292.985 115.199C293.442 115.199 293.829 115.114 294.145 114.944C294.461 114.78 294.705 114.537 294.875 114.214C295.044 113.898 295.129 113.514 295.129 113.063V106.049L295.376 103.852ZM288.977 108.721V108.537C288.977 107.81 289.065 107.151 289.241 106.559C289.422 105.961 289.677 105.449 290.005 105.021C290.339 104.593 290.744 104.262 291.218 104.028C291.693 103.793 292.229 103.676 292.827 103.676C293.46 103.676 293.99 103.793 294.418 104.028C294.845 104.262 295.197 104.596 295.472 105.03C295.748 105.457 295.961 105.964 296.114 106.55C296.272 107.13 296.395 107.766 296.483 108.457V108.862C296.395 109.524 296.263 110.139 296.087 110.707C295.912 111.276 295.68 111.774 295.393 112.202C295.106 112.623 294.749 112.952 294.321 113.186C293.899 113.42 293.395 113.538 292.809 113.538C292.223 113.538 291.693 113.417 291.218 113.177C290.75 112.937 290.348 112.6 290.014 112.166C289.68 111.733 289.422 111.223 289.241 110.637C289.065 110.051 288.977 109.413 288.977 108.721ZM291.508 108.537V108.721C291.508 109.114 291.546 109.48 291.623 109.82C291.699 110.16 291.816 110.461 291.974 110.725C292.138 110.983 292.34 111.185 292.581 111.331C292.827 111.472 293.117 111.542 293.451 111.542C293.914 111.542 294.292 111.446 294.585 111.252C294.877 111.053 295.097 110.781 295.244 110.435C295.39 110.089 295.475 109.691 295.499 109.24V108.088C295.487 107.719 295.437 107.388 295.349 107.095C295.261 106.796 295.138 106.541 294.98 106.331C294.822 106.12 294.617 105.956 294.365 105.838C294.113 105.721 293.814 105.663 293.468 105.663C293.134 105.663 292.844 105.739 292.598 105.891C292.358 106.038 292.156 106.24 291.992 106.497C291.834 106.755 291.713 107.06 291.631 107.412C291.549 107.757 291.508 108.132 291.508 108.537ZM303.954 109.451H301.712C301.718 108.923 301.759 108.469 301.835 108.088C301.918 107.702 302.055 107.353 302.249 107.042C302.448 106.732 302.711 106.424 303.04 106.12C303.315 105.873 303.555 105.639 303.76 105.416C303.965 105.194 304.126 104.965 304.244 104.731C304.361 104.491 304.419 104.224 304.419 103.931C304.419 103.591 304.367 103.31 304.261 103.087C304.162 102.859 304.009 102.686 303.804 102.569C303.605 102.452 303.353 102.393 303.048 102.393C302.796 102.393 302.562 102.449 302.345 102.56C302.128 102.665 301.95 102.83 301.809 103.052C301.674 103.275 301.604 103.568 301.598 103.931H299.049C299.067 103.128 299.251 102.466 299.603 101.945C299.96 101.417 300.438 101.028 301.036 100.776C301.633 100.518 302.304 100.389 303.048 100.389C303.869 100.389 304.572 100.524 305.158 100.793C305.744 101.057 306.192 101.447 306.502 101.962C306.813 102.472 306.968 103.093 306.968 103.826C306.968 104.335 306.869 104.789 306.669 105.188C306.47 105.581 306.21 105.947 305.887 106.287C305.565 106.626 305.21 106.978 304.824 107.341C304.49 107.64 304.261 107.954 304.138 108.282C304.021 108.61 303.96 108.999 303.954 109.451ZM301.449 112.166C301.449 111.791 301.578 111.481 301.835 111.235C302.093 110.983 302.439 110.857 302.873 110.857C303.3 110.857 303.643 110.983 303.901 111.235C304.165 111.481 304.296 111.791 304.296 112.166C304.296 112.53 304.165 112.837 303.901 113.089C303.643 113.341 303.3 113.467 302.873 113.467C302.439 113.467 302.093 113.341 301.835 113.089C301.578 112.837 301.449 112.53 301.449 112.166Z" fill="white"/>
<circle cx="86.5054" cy="160.587" r="10.4575" fill="#00ADFF" stroke="#00ADFF"/>
<circle cx="76.7653" cy="177.632" r="5.58751" fill="#00ADFF" stroke="#00ADFF"/>
<path d="M72.6117 187.981C72.6117 190.133 71.1307 191.742 69.4591 191.742C67.7876 191.742 66.3066 190.133 66.3066 187.981C66.3066 185.828 67.7876 184.22 69.4591 184.22C71.1307 184.22 72.6117 185.828 72.6117 187.981Z" fill="#00ADFF" stroke="#00ADFF"/>
<path d="M331.817 150.351C331.817 156.483 337.273 161.53 344.101 161.53C350.929 161.53 356.386 156.483 356.386 150.351C356.386 144.218 350.929 139.172 344.101 139.172C337.273 139.172 331.817 144.218 331.817 150.351Z" fill="#00ADFF" stroke="black"/>
<path d="M348.251 168.704C348.251 172.072 351.254 174.877 355.056 174.877C358.858 174.877 361.861 172.072 361.861 168.704C361.861 165.336 358.858 162.53 355.056 162.53C351.254 162.53 348.251 165.336 348.251 168.704Z" fill="#00ADFF" stroke="black"/>
<path d="M359.21 179.548C359.21 181.534 360.987 183.22 363.276 183.22C365.565 183.22 367.342 181.534 367.342 179.548C367.342 177.563 365.565 175.877 363.276 175.877C360.987 175.877 359.21 177.563 359.21 179.548Z" fill="#00ADFF" stroke="black"/>
<path d="M130.197 197.503L121.016 193.252L124.741 206.42L130.197 197.503Z" fill="#00B84C"/>
<rect x="84.29" y="207.451" width="40.1776" height="4.87001" transform="rotate(-14.437 84.29 207.451)" fill="#00B84C"/>
<path d="M5.16882 370.622L8.1475 366.031L13.2538 368.837L8.1475 373.513L5.16882 370.622Z" fill="#E3A871"/>
<path d="M46.3598 383.972V375.809L52.0618 374.789V383.972H46.3598Z" fill="#E3A871"/>
<path d="M17.6793 372.578L5.59434 364.5L31.6366 322.58L41.1683 293.924L47.5512 332.528L17.6793 372.578Z" fill="#CB4646"/>
<path d="M61.3383 287.972L38.1045 280.83C34.9046 282.326 35.0124 287.972 35.4663 290.608L42.1045 376.574H56.5724L61.3383 287.972Z" fill="#FF5656"/>
<path d="M39.8067 271.476L41.8492 249.538V231.852L61.3383 230.661L70.3595 247.668L71.4658 257.021L63.551 289.928L33.2536 280.575L39.8067 271.476Z" fill="#FDBF00"/>
<path d="M61.7638 247.327L65.934 237.804C82.0019 239.573 88.572 233.382 89.8486 230.066L96.657 209.829C96.3449 209.29 95.7208 208.162 95.7208 207.958C93.8826 204.353 95.9194 201.524 97.1676 200.56C97.7634 200.901 99.2272 201.751 100.317 202.431C101.338 202.771 101.934 203.877 101.763 205.662C103.21 207.108 101.593 209.829 100.317 211.359C99.5506 221.988 95.8059 234.403 93.7634 240.78C87.2273 246.97 69.707 247.724 61.7638 247.327Z" fill="#E3A871"/>
<path d="M75.8913 206.258C75.7551 201.972 72.4304 198.803 70.785 197.754L57.2532 204.557C58.2178 209.007 60.1638 218.468 60.2319 220.713C60.317 223.519 69.2531 220.798 72.7424 220.033C80.7423 218.162 77.5083 210.424 77.5934 208.553C80.1466 205.747 76.7423 206.172 75.8913 206.258Z" fill="#E3A871"/>
<path d="M76.0615 213.23C76.8785 213.094 77.7069 212.38 78.0189 212.04V212.805L77.4232 213.23H78.0189V214.644C78.0863 214.738 78.0939 214.808 78.0189 214.846V214.644C77.7803 214.313 76.7915 213.694 76.0615 213.23Z" fill="#910808"/>
<path d="M47.2959 204.217C53.4916 190.136 66.1041 193.928 71.636 197.584L61.1681 207.533C62.3312 209.687 65.0829 214.931 66.785 218.672C68.0616 221.818 64.6574 225.985 61.8489 227.515C61.083 229.046 61.8489 229.981 64.6574 232.277C67.8914 234.063 67.8063 238.569 65.5085 244.096C61.8489 251.239 58.1043 248.263 57.3383 248.263C52.0618 242.396 49.5087 244.436 48.9129 244.691C37.9343 254.555 30.1898 249.368 29.0834 248.263C22.4452 238.994 28.4877 233.382 30.1898 232.277C37.2535 228.621 35.1258 224.369 35.0407 223.094C24.0621 204.897 45.1683 204.132 47.2959 204.217Z" fill="#040404"/>
<path d="M73.2111 206.634C73.4188 207.157 73.3393 207.68 73.0334 207.801C72.7275 207.922 72.3111 207.596 72.1034 207.072C71.8957 206.548 71.9753 206.025 72.2812 205.904C72.587 205.783 73.0034 206.11 73.2111 206.634Z" fill="#040404"/>
<path d="M10.19 373.428C6.58156 372.34 5.22555 369.914 4.99861 368.837L0.0625 374.789C3.77876 377.453 11.773 383.224 14.0198 384.993C16.2665 386.149 16.3176 384.851 16.0623 384.057C15.2963 382.923 13.0496 379.21 10.19 373.428Z" fill="#FF5656"/>
<path d="M52.6015 382.998C49.0729 384.323 46.5211 383.217 45.6862 382.499L45.3811 390.223C49.9531 390.086 59.812 389.822 62.672 389.864C65.16 389.42 64.4117 388.357 63.7266 387.882C62.429 387.445 58.3874 385.858 52.6015 382.998Z" fill="#FF5656"/>
<path d="M377.67 361.153C376.311 357.087 374.215 332.862 373.337 321.257C374.781 321.257 380.491 321.765 391.776 323.798C387.221 331.727 388.518 368.777 389.736 386.311H382.769C381.749 380.861 379.302 368.201 377.67 361.153Z" fill="#2F2E41"/>
<path d="M369.428 320.241L353.198 317.869C350.615 320.444 350.536 336.843 350.819 344.721L352.009 381.228C353.255 381.285 356.359 381.364 358.806 381.228C359.214 363.542 366.057 333.201 369.428 320.241Z" fill="#2F2E41"/>
<path d="M310.627 226.388C307.092 227.472 310.74 231.131 313.006 232.825C314.621 239.263 317.68 243.329 319.209 246.293C321.7 251.121 334.618 256.797 340.282 257.898C340.396 254.34 340.333 247.31 339.178 247.649C327.452 249.512 317.51 234.096 316.66 232.232C316.32 231.639 316.32 228.759 316.66 226.896C317 225.032 314.026 224.355 311.732 223.846C309.862 222.661 308.758 219.696 308.333 219.865C307.143 220.543 310.712 224.693 310.627 226.388Z" fill="#FFE8B3"/>
<path d="M404.946 282.971C409.705 279.853 406.929 269.926 404.946 265.352C405.739 264.9 408.872 263.454 415.058 261.286C420.496 268.401 418.797 286.189 417.947 286.359C414.14 291.577 397.101 297.173 389.057 299.319V291.272C392.37 289.803 400.188 286.088 404.946 282.971Z" fill="#FFE8B3"/>
<path d="M359.316 213.174C359.996 207.888 362.828 204.703 364.16 203.771L366.029 201.823L384.468 216.816L376.481 231.809V238.67L370.278 239.432C370.419 238.811 370.77 236.823 371.042 233.842C371.552 229.013 365.689 226.896 363.14 226.642C357.906 226.506 357.22 220.035 357.532 216.816L356.342 214.952C356.937 214.557 358.365 213.648 359.316 213.174Z" fill="#FFE8B3"/>
<path d="M367.983 237.399C363.769 241.194 347.363 245.192 339.688 246.717V264.081L358.212 258.575L347.505 320.071L395.854 326.34L391.181 284.665C391.266 278.594 391.385 264.878 391.181 258.575C398.93 257.559 401.717 263.404 402.142 266.453C403.757 266.397 409.025 265.454 417.182 262.133C409.45 239.94 378.52 235.027 378.435 234.943C373.422 239.771 367.644 237.738 367.983 237.399Z" fill="#9E00FF"/>
<path d="M359.486 220.543C360.251 220.797 361.865 221.034 362.205 219.95C362.29 219.95 362.8 222.491 359.486 220.543Z" fill="#BA0F0F"/>
<path d="M373.762 217.832L363.565 204.28C369.343 195.131 380.984 197.418 381.154 197.249C393.798 198.333 400.018 219.329 401.547 229.691L370.108 232.91L373.762 217.832Z" fill="#575757"/>
<path d="M363.82 213.682C363.82 214.15 363.591 214.529 363.31 214.529C363.028 214.529 362.8 214.15 362.8 213.682C362.8 213.214 363.028 212.835 363.31 212.835C363.591 212.835 363.82 213.214 363.82 213.682Z" fill="#784B17"/>
<path d="M357.702 381.059H352.433V386.226C350.451 387.497 345.721 390.173 342.662 390.715C341.098 390.919 340.707 392.155 340.707 392.748H357.702V381.059Z" fill="#784D2B"/>
<path d="M389.141 386.311H383.873V391.478C381.891 392.748 377.16 395.425 374.101 395.967C372.538 396.17 372.147 397.407 372.147 398H389.141V386.311Z" fill="#784D2B"/>
<rect width="72.4352" height="45.0785" rx="3" transform="matrix(-0.921577 -0.388195 -0.388195 0.921577 350.254 194.119)" fill="url(#paint3_linear_918_4278)"/>
<defs>
<linearGradient id="paint0_linear_918_4278" x1="71.5052" y1="-8.46419" x2="-0.191568" y2="55.7641" gradientUnits="userSpaceOnUse">
<stop stop-color="#EF7E2B"/>
<stop offset="1" stop-color="#FF3838"/>
</linearGradient>
<linearGradient id="paint1_linear_918_4278" x1="9.70213" y1="-12.4474" x2="72.4368" y2="63.2325" gradientUnits="userSpaceOnUse">
<stop stop-color="#EF7E2B"/>
<stop offset="1" stop-color="#FF3838"/>
</linearGradient>
<linearGradient id="paint2_linear_918_4278" x1="72.7324" y1="-8.96209" x2="0.039867" y2="52.7768" gradientUnits="userSpaceOnUse">
<stop stop-color="#EF7E2B"/>
<stop offset="1" stop-color="#FF3838"/>
</linearGradient>
<linearGradient id="paint3_linear_918_4278" x1="72.076" y1="-1.15896e-06" x2="-4.10179" y2="50.2873" gradientUnits="userSpaceOnUse">
<stop stop-color="#EF7E2B"/>
<stop offset="1" stop-color="#FF3838"/>
</linearGradient>
</defs>
</svg>
