<svg width="404" height="366" viewBox="0 0 404 366" fill="none" xmlns="http://www.w3.org/2000/svg">
<path d="M191.09 348.45V332.515H196.661C197.771 332.515 198.686 332.707 199.407 333.091C200.128 333.47 200.665 333.981 201.018 334.624C201.37 335.262 201.547 335.97 201.547 336.748C201.547 337.433 201.425 337.998 201.181 338.444C200.942 338.89 200.626 339.243 200.232 339.502C199.843 339.762 199.42 339.954 198.964 340.078V340.234C199.451 340.265 199.941 340.436 200.434 340.747C200.927 341.058 201.339 341.505 201.671 342.086C202.003 342.666 202.169 343.377 202.169 344.217C202.169 345.016 201.988 345.735 201.625 346.373C201.261 347.011 200.688 347.516 199.905 347.89C199.122 348.263 198.103 348.45 196.847 348.45H191.09ZM193.019 346.738H196.847C198.108 346.738 199.003 346.495 199.532 346.007C200.066 345.514 200.333 344.918 200.333 344.217C200.333 343.678 200.196 343.18 199.921 342.724C199.646 342.262 199.254 341.894 198.746 341.619C198.237 341.339 197.636 341.199 196.941 341.199H193.019V346.738ZM193.019 339.518H196.598C197.179 339.518 197.703 339.404 198.17 339.176C198.642 338.947 199.016 338.626 199.29 338.211C199.571 337.796 199.711 337.308 199.711 336.748C199.711 336.048 199.467 335.454 198.979 334.966C198.492 334.474 197.719 334.227 196.661 334.227H193.019V339.518ZM208.608 348.73C207.85 348.73 207.163 348.587 206.546 348.302C205.929 348.012 205.438 347.594 205.075 347.05C204.712 346.5 204.531 345.836 204.531 345.058C204.531 344.373 204.665 343.818 204.935 343.393C205.205 342.962 205.565 342.625 206.017 342.381C206.468 342.137 206.966 341.956 207.511 341.837C208.06 341.712 208.613 341.614 209.168 341.541C209.894 341.448 210.483 341.378 210.934 341.331C211.39 341.279 211.722 341.193 211.93 341.074C212.143 340.955 212.249 340.747 212.249 340.452V340.389C212.249 339.622 212.039 339.025 211.619 338.6C211.204 338.175 210.573 337.962 209.728 337.962C208.851 337.962 208.164 338.154 207.666 338.538C207.168 338.921 206.818 339.331 206.616 339.767L204.873 339.144C205.184 338.418 205.599 337.853 206.118 337.448C206.642 337.039 207.212 336.753 207.83 336.592C208.452 336.426 209.064 336.343 209.666 336.343C210.05 336.343 210.491 336.39 210.988 336.484C211.492 336.572 211.977 336.756 212.443 337.036C212.915 337.316 213.307 337.739 213.618 338.304C213.93 338.87 214.085 339.627 214.085 340.576V348.45H212.249V346.832H212.156C212.031 347.091 211.824 347.369 211.533 347.664C211.243 347.96 210.856 348.211 210.374 348.419C209.891 348.626 209.303 348.73 208.608 348.73ZM208.888 347.081C209.614 347.081 210.226 346.938 210.724 346.653C211.227 346.367 211.606 345.999 211.86 345.548C212.119 345.097 212.249 344.622 212.249 344.124V342.443C212.171 342.537 212 342.622 211.735 342.7C211.476 342.773 211.175 342.838 210.833 342.895C210.496 342.947 210.166 342.993 209.845 343.035C209.528 343.071 209.272 343.102 209.074 343.128C208.597 343.19 208.151 343.292 207.736 343.432C207.326 343.566 206.994 343.771 206.74 344.046C206.491 344.316 206.367 344.684 206.367 345.151C206.367 345.789 206.603 346.271 207.075 346.598C207.552 346.92 208.156 347.081 208.888 347.081ZM225.902 339.176L224.252 339.642C224.149 339.368 223.996 339.1 223.793 338.841C223.596 338.577 223.326 338.359 222.984 338.187C222.642 338.016 222.203 337.931 221.669 337.931C220.938 337.931 220.328 338.099 219.841 338.436C219.358 338.768 219.117 339.191 219.117 339.705C219.117 340.161 219.283 340.522 219.615 340.786C219.947 341.051 220.466 341.271 221.171 341.448L222.945 341.883C224.014 342.143 224.81 342.539 225.334 343.074C225.858 343.603 226.12 344.285 226.12 345.12C226.12 345.805 225.923 346.417 225.528 346.956C225.139 347.496 224.595 347.921 223.894 348.232C223.194 348.543 222.38 348.699 221.451 348.699C220.232 348.699 219.224 348.434 218.425 347.905C217.626 347.376 217.12 346.603 216.908 345.587L218.65 345.151C218.816 345.794 219.13 346.277 219.592 346.598C220.059 346.92 220.668 347.081 221.42 347.081C222.276 347.081 222.956 346.899 223.459 346.536C223.967 346.168 224.221 345.727 224.221 345.213C224.221 344.798 224.076 344.451 223.786 344.171C223.495 343.885 223.049 343.673 222.447 343.533L220.455 343.066C219.361 342.807 218.557 342.405 218.043 341.86C217.535 341.31 217.281 340.623 217.281 339.798C217.281 339.124 217.47 338.527 217.849 338.009C218.233 337.49 218.754 337.083 219.413 336.787C220.077 336.491 220.829 336.343 221.669 336.343C222.852 336.343 223.78 336.603 224.455 337.122C225.134 337.64 225.617 338.325 225.902 339.176ZM228.884 348.45V336.499H230.72V348.45H228.884ZM229.817 334.507C229.459 334.507 229.151 334.385 228.891 334.142C228.637 333.898 228.51 333.605 228.51 333.262C228.51 332.92 228.637 332.627 228.891 332.383C229.151 332.139 229.459 332.018 229.817 332.018C230.175 332.018 230.481 332.139 230.735 332.383C230.995 332.627 231.124 332.92 231.124 333.262C231.124 333.605 230.995 333.898 230.735 334.142C230.481 334.385 230.175 334.507 229.817 334.507ZM238.938 348.699C237.818 348.699 236.853 348.434 236.044 347.905C235.235 347.376 234.612 346.648 234.176 345.719C233.741 344.791 233.523 343.73 233.523 342.537C233.523 341.323 233.746 340.252 234.192 339.323C234.643 338.39 235.271 337.661 236.075 337.137C236.884 336.608 237.828 336.343 238.907 336.343C239.747 336.343 240.505 336.499 241.179 336.81C241.853 337.122 242.406 337.557 242.836 338.117C243.267 338.678 243.534 339.331 243.638 340.078H241.801C241.661 339.534 241.35 339.051 240.868 338.631C240.39 338.206 239.747 337.993 238.938 337.993C238.222 337.993 237.595 338.18 237.055 338.553C236.521 338.921 236.103 339.443 235.803 340.117C235.507 340.786 235.359 341.572 235.359 342.475C235.359 343.398 235.504 344.202 235.795 344.887C236.09 345.571 236.505 346.103 237.04 346.482C237.579 346.86 238.212 347.05 238.938 347.05C239.415 347.05 239.848 346.967 240.237 346.801C240.626 346.635 240.956 346.396 241.226 346.085C241.495 345.774 241.687 345.4 241.801 344.964H243.638C243.534 345.67 243.277 346.305 242.867 346.871C242.463 347.431 241.926 347.877 241.257 348.209C240.593 348.536 239.82 348.699 238.938 348.699Z" fill="#FFC61A"/>
<path d="M168.923 21H166.9L172.751 5.06545H174.743L180.594 21H178.571L173.809 7.58635H173.685L168.923 21ZM169.67 14.7756H177.824V16.4873H169.67V14.7756ZM187.34 21.249C186.344 21.249 185.464 20.9974 184.702 20.4943C183.939 19.9859 183.343 19.2701 182.912 18.3468C182.482 17.4184 182.267 16.3213 182.267 15.0557C182.267 13.8004 182.482 12.7111 182.912 11.7878C183.343 10.8646 183.942 10.1513 184.71 9.64819C185.477 9.14505 186.364 8.89348 187.371 8.89348C188.149 8.89348 188.763 9.02316 189.215 9.28251C189.671 9.53667 190.019 9.82714 190.257 10.1539C190.501 10.4755 190.69 10.7401 190.825 10.9475H190.981V5.06545H192.817V21H191.043V19.1638H190.825C190.69 19.3816 190.498 19.6566 190.249 19.9885C190 20.3153 189.645 20.6084 189.184 20.8677C188.722 21.1219 188.107 21.249 187.34 21.249ZM187.588 19.5995C188.325 19.5995 188.947 19.4076 189.456 19.0237C189.964 18.6347 190.351 18.0979 190.615 17.4132C190.88 16.7233 191.012 15.9271 191.012 15.0245C191.012 14.1324 190.882 13.3517 190.623 12.6826C190.364 12.0083 189.98 11.4844 189.471 11.1109C188.963 10.7323 188.335 10.543 187.588 10.543C186.81 10.543 186.162 10.7427 185.643 11.1421C185.13 11.5363 184.743 12.0731 184.484 12.7526C184.23 13.4269 184.103 14.1842 184.103 15.0245C184.103 15.8752 184.232 16.6481 184.492 17.3431C184.756 18.033 185.145 18.5828 185.659 18.9926C186.178 19.3972 186.821 19.5995 187.588 19.5995ZM206.207 9.04909L201.788 21H199.921L195.501 9.04909H197.493L200.792 18.5725H200.917L204.216 9.04909H206.207ZM211.784 21.2801C211.027 21.2801 210.339 21.1375 209.722 20.8522C209.105 20.5617 208.615 20.1441 208.252 19.5995C207.889 19.0497 207.707 18.3857 207.707 17.6077C207.707 16.923 207.842 16.368 208.112 15.9426C208.381 15.5121 208.742 15.175 209.193 14.9312C209.644 14.6874 210.142 14.5058 210.687 14.3865C211.237 14.2621 211.789 14.1635 212.344 14.0909C213.07 13.9975 213.659 13.9275 214.11 13.8808C214.567 13.8289 214.899 13.7433 215.106 13.624C215.319 13.5047 215.425 13.2973 215.425 13.0016V12.9394C215.425 12.1717 215.215 11.5752 214.795 11.1498C214.38 10.7245 213.75 10.5118 212.904 10.5118C212.028 10.5118 211.341 10.7038 210.843 11.0876C210.345 11.4714 209.995 11.8812 209.792 12.3169L208.049 11.6945C208.361 10.9683 208.776 10.4029 209.294 9.99832C209.818 9.58854 210.389 9.30325 211.006 9.14246C211.628 8.97647 212.24 8.89348 212.842 8.89348C213.226 8.89348 213.667 8.94016 214.165 9.03353C214.668 9.12171 215.153 9.30585 215.62 9.58595C216.092 9.86605 216.483 10.2888 216.795 10.8542C217.106 11.4196 217.262 12.1769 217.262 13.1261V21H215.425V19.3816H215.332C215.207 19.641 215 19.9185 214.71 20.2142C214.419 20.5098 214.033 20.7614 213.55 20.9689C213.068 21.1764 212.479 21.2801 211.784 21.2801ZM212.064 19.6306C212.79 19.6306 213.402 19.488 213.9 19.2027C214.403 18.9174 214.782 18.5491 215.036 18.0979C215.296 17.6466 215.425 17.172 215.425 16.674V14.9934C215.348 15.0868 215.176 15.1724 214.912 15.2502C214.652 15.3228 214.352 15.3876 214.009 15.4447C213.672 15.4966 213.343 15.5432 213.021 15.5847C212.705 15.6211 212.448 15.6522 212.251 15.6781C211.774 15.7404 211.328 15.8415 210.913 15.9816C210.503 16.1164 210.171 16.3213 209.917 16.5962C209.668 16.8659 209.543 17.2342 209.543 17.7011C209.543 18.3391 209.779 18.8214 210.251 19.1482C210.728 19.4698 211.333 19.6306 212.064 19.6306ZM222.449 13.8108V21H220.613V9.04909H222.387V10.9164H222.543C222.823 10.3095 223.248 9.82196 223.819 9.45368C224.389 9.08021 225.126 8.89348 226.028 8.89348C226.837 8.89348 227.545 9.05947 228.152 9.39143C228.759 9.71822 229.231 10.2162 229.568 10.8853C229.906 11.5492 230.074 12.3895 230.074 13.4062V21H228.238V13.5307C228.238 12.5918 227.994 11.8605 227.507 11.3366C227.019 10.8075 226.35 10.543 225.499 10.543C224.913 10.543 224.389 10.67 223.928 10.9242C223.471 11.1784 223.111 11.5492 222.846 12.0368C222.581 12.5244 222.449 13.1157 222.449 13.8108ZM238.285 21.249C237.164 21.249 236.199 20.9844 235.39 20.4554C234.581 19.9263 233.959 19.1975 233.523 18.269C233.087 17.3406 232.869 16.2798 232.869 15.0868C232.869 13.873 233.092 12.8019 233.538 11.8734C233.99 10.9398 234.617 10.211 235.421 9.68709C236.23 9.15802 237.175 8.89348 238.253 8.89348C239.094 8.89348 239.851 9.04909 240.525 9.36031C241.2 9.67153 241.752 10.1072 242.183 10.6674C242.613 11.2276 242.88 11.8812 242.984 12.6281H241.148C241.008 12.0835 240.697 11.6011 240.214 11.181C239.737 10.7556 239.094 10.543 238.285 10.543C237.569 10.543 236.941 10.7297 236.402 11.1032C235.867 11.4714 235.45 11.9927 235.149 12.667C234.853 13.3362 234.705 14.122 234.705 15.0245C234.705 15.9478 234.851 16.7518 235.141 17.4365C235.437 18.1212 235.852 18.6529 236.386 19.0315C236.926 19.4102 237.558 19.5995 238.285 19.5995C238.762 19.5995 239.195 19.5165 239.584 19.3505C239.973 19.1845 240.302 18.9459 240.572 18.6347C240.842 18.3235 241.034 17.95 241.148 17.5143H242.984C242.88 18.2198 242.623 18.8552 242.214 19.4206C241.809 19.9807 241.272 20.4268 240.603 20.7588C239.939 21.0856 239.166 21.249 238.285 21.249ZM250.679 21.249C249.527 21.249 248.534 20.9948 247.699 20.4865C246.869 19.973 246.228 19.2572 245.777 18.3391C245.331 17.4158 245.108 16.3421 245.108 15.1179C245.108 13.8938 245.331 12.8149 245.777 11.8812C246.228 10.9424 246.856 10.211 247.66 9.68709C248.469 9.15802 249.413 8.89348 250.492 8.89348C251.115 8.89348 251.729 8.99722 252.336 9.2047C252.943 9.41218 253.496 9.74934 253.993 10.2162C254.491 10.6778 254.888 11.2899 255.184 12.0524C255.48 12.8149 255.627 13.7537 255.627 14.8689V15.647H246.415V14.0598H253.76C253.76 13.3854 253.625 12.7837 253.355 12.2547C253.091 11.7256 252.712 11.308 252.219 11.002C251.732 10.696 251.156 10.543 250.492 10.543C249.761 10.543 249.128 10.7245 248.594 11.0876C248.065 11.4455 247.658 11.9123 247.372 12.4881C247.087 13.0638 246.944 13.6811 246.944 14.3399V15.398C246.944 16.3006 247.1 17.0656 247.411 17.6933C247.728 18.3157 248.166 18.7903 248.726 19.1171C249.286 19.4387 249.937 19.5995 250.679 19.5995C251.161 19.5995 251.597 19.5321 251.986 19.3972C252.38 19.2572 252.72 19.0497 253.005 18.7748C253.291 18.4947 253.511 18.1471 253.667 17.7322L255.441 18.2301C255.254 18.8318 254.94 19.3609 254.499 19.8174C254.058 20.2686 253.514 20.6213 252.865 20.8755C252.217 21.1245 251.488 21.249 250.679 21.249ZM262.933 21.249C261.937 21.249 261.058 20.9974 260.296 20.4943C259.533 19.9859 258.937 19.2701 258.506 18.3468C258.076 17.4184 257.86 16.3213 257.86 15.0557C257.86 13.8004 258.076 12.7111 258.506 11.7878C258.937 10.8646 259.536 10.1513 260.303 9.64819C261.071 9.14505 261.958 8.89348 262.964 8.89348C263.742 8.89348 264.357 9.02316 264.808 9.28251C265.265 9.53667 265.612 9.82714 265.851 10.1539C266.095 10.4755 266.284 10.7401 266.419 10.9475H266.575V5.06545H268.411V21H266.637V19.1638H266.419C266.284 19.3816 266.092 19.6566 265.843 19.9885C265.594 20.3153 265.239 20.6084 264.777 20.8677C264.316 21.1219 263.701 21.249 262.933 21.249ZM263.182 19.5995C263.919 19.5995 264.541 19.4076 265.05 19.0237C265.558 18.6347 265.944 18.0979 266.209 17.4132C266.473 16.7233 266.606 15.9271 266.606 15.0245C266.606 14.1324 266.476 13.3517 266.217 12.6826C265.957 12.0083 265.573 11.4844 265.065 11.1109C264.557 10.7323 263.929 10.543 263.182 10.543C262.404 10.543 261.756 10.7427 261.237 11.1421C260.724 11.5363 260.337 12.0731 260.078 12.7526C259.824 13.4269 259.697 14.1842 259.697 15.0245C259.697 15.8752 259.826 16.6481 260.086 17.3431C260.35 18.033 260.739 18.5828 261.253 18.9926C261.771 19.3972 262.415 19.5995 263.182 19.5995Z" fill="#029D41"/>
<path d="M301.07 100.28C299.8 112.22 298.37 125.49 303.58 131.56C308.79 137.63 318.58 135.2 318.58 135.2L319.25 136.5C319.605 137.273 320.179 137.926 320.9 138.377C321.622 138.829 322.46 139.059 323.31 139.04C330.67 138.39 352.31 133.24 352.31 133.24C352.31 133.24 368.06 137.12 371.81 128.24C374.55 121.76 371.55 118.7 369.75 115.89C367.48 112.3 368.4 103.16 367.75 96.5C367.1 89.84 365.19 85.34 359.24 83.22C355.24 81.79 343.14 76.34 341.42 73.93L335.57 83.38C335.215 83.949 334.716 84.4137 334.123 84.7266C333.529 85.0394 332.864 85.1893 332.194 85.1608C331.524 85.1323 330.873 84.9265 330.309 84.5645C329.744 84.2025 329.286 83.6971 328.98 83.1C327.902 80.8421 326.56 78.7205 324.98 76.78C324.931 76.8593 324.878 76.9361 324.82 77.01C322.55 80.07 303.89 89.38 302.48 94.19C301.873 96.1858 301.402 98.2205 301.07 100.28V100.28Z" fill="#7794FF"/>
<path d="M301 100.86C301 100.86 301 100.68 301.07 100.28" stroke="black" stroke-width="0.65" stroke-miterlimit="10"/>
<path d="M287.41 97.2L287.68 97.74" stroke="black" stroke-width="0.65" stroke-miterlimit="10"/>
<path d="M275.91 88.29C276.092 88.7049 276.419 89.0391 276.83 89.23C276.8 89.5245 276.845 89.8219 276.96 90.0946C277.076 90.3673 277.258 90.6065 277.49 90.79C277.803 91.0968 278.173 91.3382 278.58 91.5C278.51 92.22 278.44 93.71 278.99 93.99C279.383 94.161 279.815 94.2231 280.24 94.17C280.174 94.6162 280.28 95.0708 280.536 95.4421C280.792 95.8133 281.18 96.0735 281.62 96.17C282.292 96.3153 282.993 96.2417 283.62 95.96C283.62 95.96 285.52 96.82 286.7 97.42C287.017 97.572 287.353 97.6765 287.7 97.73C291.95 106.03 304.37 130.83 311.8 131.52C313.353 131.715 314.929 131.436 316.32 130.72C320.09 128.72 320.84 123.12 316.01 116.56C313.52 113.19 306.44 105.76 301.09 100.28C297.43 96.52 294.58 93.67 294.58 93.67C294.58 93.67 291.73 90.42 289.85 88.67C287.97 86.92 286.43 85.17 284.44 84.84C282.608 84.7254 280.768 84.8804 278.98 85.3L277.24 85.52C276.39 85.46 275.65 87.48 275.91 88.29Z" fill="#FEC2A0"/>
<path d="M279.26 88.14C279.49 88.55 279.12 88.95 278.41 89.39C278.153 89.4915 277.876 89.5299 277.601 89.502C277.326 89.4742 277.062 89.3809 276.83 89.23C277.027 89.4804 277.288 89.6723 277.586 89.785C277.884 89.8978 278.207 89.9272 278.52 89.87C279.52 89.63 279.26 88.14 279.26 88.14Z" fill="#F99979"/>
<path d="M288.49 99.31C288.958 98.9258 289.509 98.6554 290.1 98.52C290.762 98.4081 291.438 98.4081 292.1 98.52C292.1 98.52 290.7 97.46 290 97.64C289.239 97.8365 288.445 97.8706 287.67 97.74L288.49 99.31Z" fill="#F99979"/>
<path d="M285.9 93.67C285.95 93.9487 285.933 94.2351 285.852 94.5062C285.77 94.7773 285.626 95.0252 285.43 95.23C284.89 95.6076 284.271 95.8572 283.62 95.96C283.62 95.96 285.81 94.49 285.9 93.67" fill="#F99979"/>
<path d="M265.72 80.85C268.24 84.67 272.72 86.59 275.02 85.05C277.32 83.51 276.71 79.05 274.19 75.26C271.67 71.47 267.73 69.59 265.39 71.14C263.05 72.69 263.21 77.03 265.72 80.85Z" fill="#4F6DDB"/>
<path d="M277.36 87.55L274.36 84.32L275.72 83.16L277.72 85.28L277.36 87.55Z" fill="#4F6DDB"/>
<path d="M277.071 86.53L274.811 84.21L276.271 82.77L278.511 85.19L277.071 86.53Z" fill="#7794FF"/>
<path d="M284.8 92.67C283.978 93.2025 283.077 93.6008 282.13 93.85C281.508 93.9954 280.877 94.0957 280.24 94.15C280.24 94.15 280.62 94.86 282.52 94.34C283.005 94.2622 283.465 94.0703 283.862 93.7799C284.258 93.4896 284.58 93.1091 284.8 92.67V92.67Z" fill="#F99979"/>
<path d="M285.59 87.11C285.59 87.11 282.9 86.59 281.1 86.04C279.3 85.49 277.49 83.83 277.01 85.12C276.53 86.41 277.45 87.73 279.26 88.12C281.07 88.51 283.09 88.97 283.35 89.85C283.61 91.2547 284.385 92.5121 285.521 93.3772C286.658 94.2424 288.077 94.6533 289.5 94.53" fill="#FEC2A0"/>
<path d="M285.59 87.11C285.59 87.11 282.9 86.59 281.1 86.04C279.3 85.49 277.49 83.83 277.01 85.12C276.53 86.41 277.45 87.73 279.26 88.12C281.07 88.51 283.09 88.97 283.35 89.85C283.61 91.2547 284.385 92.5121 285.521 93.3772C286.658 94.2424 288.077 94.6533 289.5 94.53" stroke="#F99979" stroke-width="0.65" stroke-miterlimit="10" stroke-linecap="round"/>
<path d="M283.35 89.87C283.35 89.87 280.96 91.62 280.11 91.66C279.595 91.7136 279.073 91.6591 278.58 91.5C278.916 91.7817 279.319 91.9713 279.751 92.0502C280.182 92.1291 280.626 92.0946 281.04 91.95C281.544 91.775 282.009 91.5008 282.405 91.1436C282.802 90.7863 283.123 90.3533 283.35 89.87V89.87Z" fill="#F99979"/>
<path d="M275.221 84.2802C277.558 82.7376 277.407 78.3896 274.885 74.5686C272.363 70.7476 268.424 68.9006 266.087 70.4432C263.75 71.9858 263.9 76.3339 266.423 80.1549C268.945 83.9759 272.884 85.8228 275.221 84.2802Z" fill="#7794FF"/>
<path d="M267.92 79.07C269.79 81.9 272.31 83.65 274.05 82.51C275.79 81.37 275.67 78.14 273.8 75.31C271.93 72.48 269.01 71.11 267.28 72.25C265.55 73.39 266.05 76.24 267.92 79.07Z" fill="#EDEDED"/>
<path d="M57.2305 36.83L57.2305 130.05H18.6705L18.6705 36.83C18.6758 31.7201 20.7094 26.8213 24.3245 23.2099C27.9396 19.5985 32.8406 17.57 37.9505 17.57V17.57C43.0604 17.57 47.9613 19.5985 51.5764 23.2099C55.1915 26.8213 57.2252 31.7201 57.2305 36.83V36.83Z" fill="#029D41"/>
<path d="M57.2305 242.55L57.2305 130.05H18.6705L18.6705 242.55H57.2305Z" fill="#FF9C1A"/>
<path d="M57.2305 242.57L57.2305 335.77C57.2305 340.883 55.1992 345.787 51.5835 349.403C47.9678 353.019 43.0638 355.05 37.9505 355.05V355.05C32.8388 355.047 27.9375 353.015 24.3239 349.399C20.7104 345.784 18.6805 340.882 18.6805 335.77L18.6805 242.57H57.2305Z" fill="#FFC61A"/>
<path d="M37.9507 105.01C53.1054 105.01 65.3907 92.7247 65.3907 77.57C65.3907 62.4153 53.1054 50.13 37.9507 50.13C22.796 50.13 10.5107 62.4153 10.5107 77.57C10.5107 92.7247 22.796 105.01 37.9507 105.01Z" fill="white" stroke="#029D41" stroke-width="6.75" stroke-miterlimit="10"/>
<path d="M37.9507 213.74C53.1054 213.74 65.3907 201.455 65.3907 186.3C65.3907 171.145 53.1054 158.86 37.9507 158.86C22.796 158.86 10.5107 171.145 10.5107 186.3C10.5107 201.455 22.796 213.74 37.9507 213.74Z" fill="white" stroke="#FF9C1A" stroke-width="6.75" stroke-miterlimit="10"/>
<path d="M37.9507 321.95C53.1054 321.95 65.3907 309.665 65.3907 294.51C65.3907 279.355 53.1054 267.07 37.9507 267.07C22.796 267.07 10.5107 279.355 10.5107 294.51C10.5107 309.665 22.796 321.95 37.9507 321.95Z" fill="white" stroke="#FFC61A" stroke-width="6.75" stroke-miterlimit="10"/>
<path d="M24.4805 311.1H39.0805L31.7705 293.01L24.4805 311.1Z" fill="#FFC61A"/>
<path d="M37.9505 290.93C40.7893 290.93 43.0905 288.629 43.0905 285.79C43.0905 282.951 40.7893 280.65 37.9505 280.65C35.1118 280.65 32.8105 282.951 32.8105 285.79C32.8105 288.629 35.1118 290.93 37.9505 290.93Z" fill="#FFC61A"/>
<path d="M50.8003 296.35H39.0703V306.4H50.8003V296.35Z" fill="#FFC61A"/>
<path d="M20.6765 291.7H19.1051L23.6502 279.322H25.1975L29.7426 291.7H28.1711L24.4722 281.28H24.3755L20.6765 291.7ZM21.2568 286.865H27.5909V288.194H21.2568V286.865Z" fill="#FFC61A"/>
<path d="M46.5692 290.72V278.342H47.9956V282.911H48.1165C48.2213 282.75 48.3663 282.544 48.5517 282.295C48.7411 282.041 49.011 281.815 49.3616 281.618C49.7162 281.416 50.1957 281.315 50.8001 281.315C51.5818 281.315 52.2708 281.511 52.8671 281.902C53.4635 282.293 53.9289 282.847 54.2633 283.564C54.5977 284.281 54.7649 285.127 54.7649 286.102C54.7649 287.085 54.5977 287.938 54.2633 288.659C53.9289 289.376 53.4655 289.932 52.8732 290.327C52.2808 290.718 51.5979 290.913 50.8242 290.913C50.2279 290.913 49.7504 290.815 49.3918 290.617C49.0332 290.416 48.7572 290.188 48.5638 289.934C48.3704 289.676 48.2213 289.463 48.1165 289.294H47.9473V290.72H46.5692ZM47.9714 286.078C47.9714 286.779 48.0742 287.398 48.2797 287.934C48.4852 288.466 48.7854 288.883 49.1803 289.185C49.5751 289.483 50.0587 289.632 50.6308 289.632C51.2272 289.632 51.7248 289.475 52.1237 289.161C52.5266 288.842 52.8288 288.415 53.0303 287.879C53.2358 287.339 53.3386 286.739 53.3386 286.078C53.3386 285.425 53.2378 284.837 53.0363 284.313C52.8389 283.785 52.5387 283.368 52.1358 283.062C51.7369 282.752 51.2352 282.597 50.6308 282.597C50.0506 282.597 49.563 282.744 49.1682 283.038C48.7733 283.328 48.4751 283.735 48.2737 284.259C48.0722 284.779 47.9714 285.385 47.9714 286.078Z" fill="#FFC61A"/>
<path d="M24.5107 173.67V199.42H51.7407" stroke="#FF9C1A" stroke-miterlimit="10" stroke-linecap="round"/>
<path d="M24.5107 199.42L26.4707 197.49" stroke="#FF9C1A" stroke-miterlimit="10" stroke-linecap="round"/>
<path d="M29.79 194.21L41.44 182.74" stroke="#FF9C1A" stroke-miterlimit="10" stroke-linecap="round" stroke-dasharray="4.67 4.67"/>
<path d="M43.1006 181.1L45.0706 179.17" stroke="#FF9C1A" stroke-miterlimit="10" stroke-linecap="round"/>
<path d="M325.411 71.14C325.871 72.44 327.061 73.88 325.021 76.77C326.624 78.7684 327.983 80.9504 329.071 83.27C329.366 83.8502 329.81 84.3414 330.357 84.6933C330.905 85.0452 331.536 85.2451 332.187 85.2726C332.837 85.3001 333.483 85.1541 334.058 84.8497C334.634 84.5452 335.118 84.0932 335.461 83.54L342.841 75.2C341.947 74.3835 341.145 73.4714 340.451 72.48C338.51 69.5155 337.052 66.2617 336.131 62.84C338.451 62.22 340.711 60.52 341.131 58.66C341.621 56.32 340.441 52.66 337.861 52.49C333.241 52.26 332.261 52.71 330.941 47.24C329.621 41.77 316.691 47.99 316.691 47.99C316.691 47.99 316.341 53.99 316.821 55.57C317.173 56.5311 317.356 57.5463 317.361 58.57C317.391 60.1351 317.337 61.7006 317.201 63.26C316.811 65.82 319.631 72.47 325.411 71.14Z" fill="#FEC2A0"/>
<path d="M326.841 55.44C324.581 54.44 323.561 55.08 323.561 55.08L323.391 53.87C323.379 53.7922 323.385 53.7128 323.406 53.6373C323.428 53.5617 323.466 53.4917 323.517 53.432C323.568 53.3723 323.632 53.3243 323.703 53.2912C323.774 53.258 323.852 53.2406 323.931 53.24C324.912 53.1887 325.894 53.2968 326.841 53.56C327.421 53.93 326.841 55.44 326.841 55.44Z" fill="#EDEDED"/>
<path d="M317.19 54.5C317.51 54.513 317.823 54.5937 318.11 54.7367C318.396 54.8798 318.648 55.082 318.85 55.33L319 53.93C319.016 53.7807 318.978 53.6308 318.894 53.5065C318.81 53.3822 318.685 53.2914 318.54 53.25L317.2 52.87V54.5" fill="#EDEDED"/>
<path d="M324.821 60.09C325.268 60.09 325.631 59.3557 325.631 58.45C325.631 57.5442 325.268 56.81 324.821 56.81C324.373 56.81 324.011 57.5442 324.011 58.45C324.011 59.3557 324.373 60.09 324.821 60.09Z" fill="#303134"/>
<path d="M318.39 59.79C318.755 59.79 319.05 59.1229 319.05 58.3C319.05 57.4771 318.755 56.81 318.39 56.81C318.026 56.81 317.73 57.4771 317.73 58.3C317.73 59.1229 318.026 59.79 318.39 59.79Z" fill="#303134"/>
<path d="M320.02 60.53C318.84 61.65 318.84 64.23 320.93 63.23" stroke="#303134" stroke-width="0.45" stroke-miterlimit="10" stroke-linecap="round"/>
<path d="M325.41 71.14C325.41 71.14 328.11 70.2 328.93 68.03C328.93 71.14 326.11 73.03 326.11 73.03L325.41 71.14Z" fill="#F99979"/>
<path d="M38.9004 69.44V64.8" stroke="#029D41" stroke-miterlimit="10" stroke-linecap="round"/>
<path d="M40.3769 63.4698C40.936 62.6545 40.7283 61.5404 39.913 60.9813C39.0977 60.4222 37.9835 60.6299 37.4244 61.4452C36.8653 62.2605 37.073 63.3747 37.8884 63.9338C38.7037 64.4929 39.8178 64.2852 40.3769 63.4698Z" stroke="#029D41" stroke-miterlimit="10" stroke-linecap="round"/>
<path d="M47.4805 85.14L51.4205 87.58" stroke="#029D41" stroke-miterlimit="10" stroke-linecap="round"/>
<path d="M47.4707 74.2L51.3707 71.69" stroke="#029D41" stroke-miterlimit="10" stroke-linecap="round"/>
<path d="M30.3307 74.2L26.4307 71.69" stroke="#029D41" stroke-miterlimit="10" stroke-linecap="round"/>
<path d="M26.0398 89.5455C26.4381 88.6407 26.0275 87.5843 25.1227 87.186C24.2179 86.7877 23.1615 87.1983 22.7632 88.1031C22.3649 89.0079 22.7755 90.0643 23.6803 90.4626C24.5851 90.8609 25.6415 90.4503 26.0398 89.5455Z" stroke="#029D41" stroke-miterlimit="10" stroke-linecap="round"/>
<path d="M39.8599 74.44C39.8599 74.44 39.6899 71.55 41.9899 71.44C42.2645 71.3844 42.5481 71.3926 42.8189 71.4639C43.0898 71.5352 43.3407 71.6678 43.5523 71.8513C43.7638 72.0349 43.9304 72.2646 44.0393 72.5227C44.1481 72.7808 44.1962 73.0604 44.1799 73.34C44.7116 73.3976 45.207 73.6371 45.5823 74.0179C45.9577 74.3988 46.19 74.8976 46.2399 75.43C46.6099 77.43 45.3799 78.09 45.3799 78.09C45.7529 78.1105 46.1169 78.2127 46.446 78.3894C46.7752 78.5661 47.0615 78.8129 47.2847 79.1124C47.5079 79.412 47.6626 79.7569 47.7378 80.1228C47.813 80.4887 47.8069 80.8667 47.7199 81.23C47.2399 84.16 45.9699 84.96 44.8599 84.71C45.1799 85.96 44.8599 88 42.6699 88.08C40.4799 88.16 39.7999 86.99 39.6699 85.08" stroke="#029D41" stroke-miterlimit="10" stroke-linecap="round"/>
<path d="M38.1202 74.49C38.1202 74.49 38.4402 71.75 36.1202 71.49C35.848 71.4209 35.5635 71.4154 35.2888 71.4739C35.0141 71.5324 34.7565 71.6534 34.5361 71.8274C34.3156 72.0015 34.1382 72.2239 34.0175 72.4775C33.8969 72.7312 33.8362 73.0092 33.8402 73.29C33.3044 73.322 32.7963 73.5389 32.4024 73.9036C32.0085 74.2682 31.7533 74.7582 31.6802 75.29C31.2202 77.29 32.4202 77.99 32.4202 77.99C32.0506 77.9958 31.6867 78.0819 31.3537 78.2423C31.0207 78.4026 30.7265 78.6335 30.4915 78.9189C30.2566 79.2042 30.0865 79.5373 29.993 79.8949C29.8996 80.2525 29.885 80.6262 29.9502 80.99C30.3002 83.94 31.5202 84.8 32.6402 84.6C32.2602 85.84 32.5302 87.89 34.6402 88.07C36.7502 88.25 37.6402 86.8 37.8902 84.89" stroke="#029D41" stroke-miterlimit="10" stroke-linecap="round"/>
<path d="M43.0703 74.25C43.1703 74.12 44.1803 73.32 44.1803 73.32" stroke="#029D41" stroke-miterlimit="10" stroke-linecap="round"/>
<path d="M43.9307 84.08L44.8407 84.71" stroke="#029D41" stroke-miterlimit="10" stroke-linecap="round"/>
<path d="M38.9004 69.44V64.8" stroke="#029D41" stroke-miterlimit="10" stroke-linecap="round"/>
<path d="M40.3769 63.4698C40.936 62.6545 40.7283 61.5404 39.913 60.9813C39.0977 60.4222 37.9835 60.6299 37.4244 61.4452C36.8653 62.2605 37.073 63.3747 37.8884 63.9338C38.7037 64.4929 39.8178 64.2852 40.3769 63.4698Z" stroke="#029D41" stroke-miterlimit="10" stroke-linecap="round"/>
<path d="M55.1309 70.4919C55.1599 69.5038 54.3824 68.6792 53.3942 68.6502C52.406 68.6212 51.5815 69.3988 51.5525 70.387C51.5235 71.3751 52.3011 72.1997 53.2892 72.2287C54.2774 72.2577 55.102 71.4801 55.1309 70.4919Z" stroke="#029D41" stroke-miterlimit="10" stroke-linecap="round"/>
<path d="M54.1266 90.4489C55.0314 90.0506 55.442 88.9942 55.0437 88.0894C54.6454 87.1846 53.589 86.774 52.6842 87.1724C51.7794 87.5707 51.3688 88.627 51.7671 89.5318C52.1654 90.4366 53.2218 90.8472 54.1266 90.4489Z" stroke="#029D41" stroke-miterlimit="10" stroke-linecap="round"/>
<path d="M24.5241 72.2202C25.5122 72.1912 26.2898 71.3667 26.2608 70.3785C26.2318 69.3903 25.4073 68.6128 24.4191 68.6417C23.4309 68.6707 22.6534 69.4953 22.6824 70.4834C22.7113 71.4716 23.5359 72.2492 24.5241 72.2202Z" stroke="#029D41" stroke-miterlimit="10" stroke-linecap="round"/>
<path d="M30.3306 85.14L26.3906 87.58" stroke="#029D41" stroke-miterlimit="10" stroke-linecap="round"/>
<path d="M32.4502 78C32.4502 78 34.2802 79.08 34.7402 77.56" stroke="#029D41" stroke-miterlimit="10" stroke-linecap="round"/>
<path d="M45.3804 78.08C45.3804 78.08 42.7804 78.75 42.6104 77.65" stroke="#029D41" stroke-miterlimit="10" stroke-linecap="round"/>
<path d="M24.5107 183.92H51.7407" stroke="#FF9C1A" stroke-miterlimit="10" stroke-linecap="round" stroke-dasharray="5.51 5.51"/>
<path d="M344.15 56.48C345.279 54.6697 347.075 53.3765 349.15 52.88C346.65 40.08 341.28 42.01 337.15 41C335.81 40.67 333.36 38.5 337.44 35.5C333.463 35.3151 329.48 35.6513 325.59 36.5C325.59 36.5 313.75 38.75 315.14 48C315.82 52.55 314.77 53.12 313.25 56.49C312.963 57.1382 312.856 57.852 312.94 58.556C313.025 59.26 313.298 59.9282 313.73 60.49C314.36 61.05 315.73 60.94 317.28 62.37C317.783 60.1434 317.803 57.8351 317.34 55.6C316.86 54.03 317.34 50.71 317.89 49.08C318.2 48.18 319.03 46.57 321.72 49.45C323.37 47.45 325.94 48.29 327.22 48.9C327.456 49.013 327.658 49.1844 327.809 49.398C327.959 49.6116 328.053 49.8601 328.08 50.12L329.03 58.88L332.56 59.51C332.56 59.51 332.44 53.41 337.06 53.64C341.68 53.87 341.36 61.39 336.12 62.79C336.568 64.6987 337.24 66.5481 338.12 68.3C338.12 68.3 340.32 61.5 350.38 62.44C349.42 56.48 344.15 56.48 344.15 56.48Z" fill="#EDEDED"/>
<path d="M319.83 63.83C318.99 63.83 318.7 63.33 317.93 63.34C316.19 63.34 315.87 64.62 316.08 64.84C316.29 65.06 317.26 64.62 317.41 64.77C317.56 64.92 317.18 65.77 317.41 66.06C317.64 66.35 318.65 65.54 319.04 65.59C319.43 65.64 319.78 66.99 320.13 66.91C320.48 66.83 321.03 65.55 321.37 65.57C321.71 65.59 322.87 66.65 323.18 66.48C323.49 66.31 323.06 65.32 323.37 65.16C323.68 65 324.65 65.9 324.93 65.69C325.21 65.48 325.07 63.69 322.85 63.35C321.96 63.18 321.07 63.83 319.83 63.83Z" fill="#EDEDED"/>
<path d="M325.721 75.6L332.711 80L325.091 86.59L324.811 76.81L325.721 75.6Z" fill="#EDEDED"/>
<path d="M341.77 74.06L332.71 80L340.73 86.54L343.28 75.51L341.77 74.06Z" fill="#EDEDED"/>
<path d="M339.2 85.29C337.971 86.5045 336.414 87.3319 334.72 87.67C334.112 87.7681 333.496 87.8149 332.88 87.81C332.26 87.8175 331.641 87.7672 331.03 87.66C329.364 87.3257 327.834 86.5084 326.63 85.31L332.72 79.99L339.2 85.29Z" fill="#F0F0F0"/>
<path d="M330.021 82.32L331.681 85.29H334.001L335.631 82.38L332.711 80L330.021 82.32Z" fill="#F66A31"/>
<path d="M334.72 87.67C334.112 87.7681 333.496 87.8149 332.88 87.81C332.26 87.8175 331.641 87.7672 331.03 87.66L331.71 85.31H334.04L334.72 87.67Z" fill="#F66A31"/>
<path d="M371.42 83.49C371.22 79.88 371.75 75.59 369.61 75.66C369.61 74.66 369.34 73.79 368.56 73.66C367.78 73.53 366.82 73.32 366.72 72.16C366.351 69.4791 366.566 66.75 367.35 64.16C368.06 61.94 367.13 61.04 366.18 61.88C365.45 62.53 364.59 63.8 364.18 66.88C363.77 69.96 364.1 72.58 363.83 72.96C363.56 73.34 363.15 73.16 362.23 74.42C361.31 75.68 358.64 78.98 358.62 79.56C358.62 80.4 359.38 81.06 360.4 80.44C359.3 81.71 358.87 82.38 359.75 83.06C359.887 83.1568 360.042 83.2253 360.205 83.2616C360.369 83.298 360.538 83.3013 360.703 83.2715C360.867 83.2417 361.025 83.1794 361.165 83.0881C361.306 82.9969 361.426 82.8785 361.52 82.74C361.52 82.74 362.15 83.6 362.64 84.42C363.179 85.2031 363.597 86.0627 363.88 86.97C364.15 87.97 363.64 90.79 363.06 92.45C362.11 95.16 357.3 107.09 354.72 114.45C353.8 117.08 352.49 121.15 353.35 124.9C354.21 128.65 361.97 130.46 365.19 128.99C368.41 127.52 369.28 123.59 370.07 119.64C371.45 112.67 371.62 87.1 371.42 83.49Z" fill="#FEC2A0"/>
<path d="M360.18 77.42C360.18 77.42 358.1 74.57 359.18 73.72C360.26 72.87 361.66 74.72 361.84 74.89L360.18 77.42Z" fill="#FEC2A0"/>
<path d="M360.66 80.16L363.72 76.21L367.16 75.12" fill="#FEC2A0"/>
<path d="M360.66 80.16L363.72 76.21L367.16 75.12" stroke="#F99979" stroke-width="0.65" stroke-miterlimit="10" stroke-linecap="round"/>
<path d="M361.5 82.67C361.5 82.67 364.84 78.37 365.15 78.27L368.04 77.27" fill="#FEC2A0"/>
<path d="M361.5 82.67C361.5 82.67 364.84 78.37 365.15 78.27L368.04 77.27" stroke="#F99979" stroke-width="0.65" stroke-miterlimit="10" stroke-linecap="round"/>
<path d="M363.311 85.67C364.978 86.333 366.711 86.8158 368.481 87.11C367.769 87.4889 366.973 87.6812 366.167 87.669C365.36 87.6567 364.57 87.4403 363.871 87.04L363.311 85.67Z" fill="#F99979"/>
<path d="M362.721 82.48C362.721 82.48 364.831 80.23 365.991 80.16C366.768 80.0934 367.528 79.8973 368.241 79.58" fill="#FEC2A0"/>
<path d="M362.721 82.48C362.721 82.48 364.831 80.23 365.991 80.16C366.768 80.0934 367.528 79.8973 368.241 79.58" stroke="#F99979" stroke-width="0.65" stroke-miterlimit="10" stroke-linecap="round"/>
<path d="M182.82 99.15C182.82 99.15 210.46 152.91 214.61 152.8C224.42 141.72 212.38 116.36 211.99 113.13C211.6 109.9 207.72 102.88 202.22 101.67C196.72 100.46 182.82 99.15 182.82 99.15Z" fill="#7794FF"/>
<path d="M180.431 95.34C180.431 95.34 201.141 98.54 206.271 100.58C212.271 102.96 215.081 108.95 216.381 113.23C216.961 115.13 216.711 115.96 213.761 115.99C211.671 115.99 210.511 115.99 210.511 115.99C210.511 115.99 206.461 107.15 205.331 106.08C203.331 104.19 191.231 102.73 187.481 102.15C185.859 101.637 184.378 100.755 183.155 99.5736C181.932 98.392 180.999 96.9428 180.431 95.34V95.34Z" fill="#4F6DDB"/>
<path d="M155.95 82.16C156.039 80.9476 155.955 79.7287 155.7 78.54C155.16 76.78 155.52 71.54 158.78 69.99C162.04 68.44 167.25 69.64 168.78 75.81C170.31 81.98 172.88 82.95 172.88 82.95C172.88 82.95 172.75 76.07 177.95 76.34C183.15 76.61 182.72 85.07 176.87 86.67C177.16 88.8244 177.911 90.8911 179.07 92.73C182.17 84.06 187.6 85.86 189.92 79.73C190.961 76.922 190.914 73.8261 189.79 71.0507C188.665 68.2752 186.542 66.0207 183.84 64.73C179.1 56.09 160.67 56.41 151.42 65.6C154.59 69.45 153.84 72.98 154.3 76.6C154.72 79.89 154.82 81 155.95 82.16Z" fill="#F66A31"/>
<path d="M151.971 65.67C151.971 65.67 173.061 56.55 177.371 76.32" stroke="#D4531D" stroke-width="0.73" stroke-miterlimit="10" stroke-linecap="round"/>
<path d="M151.971 65.67C151.971 65.67 170.911 58.5 175.221 78.27" stroke="#D4531D" stroke-width="0.73" stroke-miterlimit="10" stroke-linecap="round"/>
<path d="M179.28 84.59C179.083 86.3509 179.348 88.133 180.05 89.76" stroke="#D4531D" stroke-width="0.73" stroke-miterlimit="10" stroke-linecap="round"/>
<path d="M179.8 83.55C180.247 84.909 181.138 86.0783 182.33 86.87" stroke="#D4531D" stroke-width="0.73" stroke-miterlimit="10" stroke-linecap="round"/>
<path d="M164.78 96C165.3 97.46 166.64 99.08 164.34 102.35C167.43 105.61 172.11 116.45 172.11 116.45L182.82 99.15C182.45 98.62 182.09 98.09 181.73 97.52C179.547 94.1828 177.907 90.5207 176.87 86.67C178.011 86.3731 179.044 85.762 179.854 84.9063C180.664 84.0506 181.217 82.9847 181.45 81.83C182 79.2 180.83 76.5 177.93 76.35C172.73 76.09 172.86 82.96 172.86 82.96C172.86 82.96 170.25 81.96 168.76 75.82C167.27 69.68 162.06 68.41 158.76 70C155.46 71.59 155.14 76.78 155.68 78.55C155.935 79.7387 156.019 80.9576 155.93 82.17C155.874 83.8442 155.721 85.5137 155.47 87.17C155.08 90.01 158.26 97.5 164.78 96Z" fill="#FEC2A0"/>
<path d="M140.36 128.85C143.26 119.54 159.72 106.37 164.16 102.62C164.234 102.543 164.295 102.456 164.34 102.36L164.43 102.46C165.55 103.719 166.948 104.699 168.513 105.323C170.078 105.947 171.768 106.197 173.446 106.053C175.125 105.909 176.747 105.376 178.183 104.495C179.62 103.615 180.831 102.411 181.72 100.98L182.86 99.15C184.8 101.87 199.15 106.71 202.94 109.62C207.87 113.4 212.94 121.48 214.47 130.3C209.47 136.21 200.7 139.42 197.97 143.97C195.27 150.72 200.14 164.47 200.18 166.19C198.35 167.66 156.43 160.58 156.43 160.58L144.03 131.15L140.36 128.85Z" fill="#EDEDED"/>
<path d="M143.99 131.14C150.99 135.89 155.99 138.91 155.99 138.91C155.99 138.91 159.51 159.65 155.35 161.42C151.63 163 147.8 164.29 143.43 157.84C140.22 153.09 142.97 142.27 143.99 131.14Z" fill="#F99979"/>
<path d="M162.721 77.9C162.721 77.9 163.871 77.15 166.421 78.31" stroke="#303134" stroke-width="0.51" stroke-miterlimit="10" stroke-linecap="round"/>
<path d="M157.37 78.19C157.142 77.9118 156.857 77.6851 156.535 77.5248C156.212 77.3645 155.86 77.2743 155.5 77.26" stroke="#303134" stroke-width="0.51" stroke-miterlimit="10" stroke-linecap="round"/>
<path d="M164.11 83.55C164.613 83.55 165.02 82.7217 165.02 81.7C165.02 80.6782 164.613 79.85 164.11 79.85C163.608 79.85 163.2 80.6782 163.2 81.7C163.2 82.7217 163.608 83.55 164.11 83.55Z" fill="#303134"/>
<path d="M156.86 83.22C157.269 83.22 157.6 82.5395 157.6 81.7C157.6 80.8605 157.269 80.18 156.86 80.18C156.451 80.18 156.12 80.8605 156.12 81.7C156.12 82.5395 156.451 83.22 156.86 83.22Z" fill="#303134"/>
<path d="M158.721 84.04C157.391 85.31 157.391 88.21 159.721 87.04" stroke="#303134" stroke-width="0.51" stroke-miterlimit="10" stroke-linecap="round"/>
<path d="M163.19 87.98C163.19 87.98 162.83 90.53 159.29 89.53" stroke="#303134" stroke-width="0.51" stroke-miterlimit="10" stroke-linecap="round"/>
<path d="M164.78 96C164.78 96 167.78 94.94 168.78 92.5C168.78 96 165.6 98.19 165.6 98.19L164.78 96Z" fill="#F99979"/>
<path d="M164.52 86.09C166.448 86.09 168.01 84.5275 168.01 82.6C168.01 80.6725 166.448 79.11 164.52 79.11C162.593 79.11 161.03 80.6725 161.03 82.6C161.03 84.5275 162.593 86.09 164.52 86.09Z" stroke="#303134" stroke-width="0.53" stroke-miterlimit="10"/>
<path d="M155.98 85.82C157.554 85.82 158.83 84.2574 158.83 82.33C158.83 80.4025 157.554 78.84 155.98 78.84C154.406 78.84 153.13 80.4025 153.13 82.33C153.13 84.2574 154.406 85.82 155.98 85.82Z" stroke="#303134" stroke-width="0.53" stroke-miterlimit="10"/>
<path d="M161.16 81.63H158.83" stroke="#303134" stroke-width="0.53" stroke-miterlimit="10"/>
<path d="M168.011 81.51L174.151 79.76" stroke="#303134" stroke-width="0.53" stroke-miterlimit="10"/>
<path d="M159.421 102.86C159.421 102.86 162.201 134.21 165.001 161.98L159.421 161.07C158.851 138.07 154.681 107.2 154.681 107.2L159.421 102.86Z" fill="#7794FF"/>
<path d="M190.42 100.75C190.42 100.75 175.28 134.13 182.59 164.75L188.1 165.62C188.1 165.62 180.44 130.38 196.88 102.2L190.42 100.75Z" fill="#7794FF"/>
<path d="M196.881 102.16L200.611 108.22L195.011 105.57L196.881 102.16Z" fill="#4F6DDB"/>
<path d="M159.42 102.87L162.2 104.26L159.73 106.35L159.42 102.87Z" fill="#4F6DDB"/>
<path d="M169.66 124.5C169.66 124.5 162.23 124.06 160.5 123.71C158.77 123.36 158.37 121.85 159.42 121.64C160.47 121.43 173.28 121.5 173.28 121.5L192.16 134.67C194.926 136.757 197.567 139.004 200.07 141.4C203.35 138.4 208.36 136.32 211.72 132.47C212.88 138.97 221.55 159.38 221.04 165.55C220.53 171.72 207.79 176.5 200.6 166.78C198.12 163.43 188.9 142.72 188.29 141.93C187.11 140.44 183.99 139.08 181.96 138.93C179.93 138.78 176.11 135.02 175.28 134.11C174.45 133.2 173.56 132.92 172.47 134.62C172.795 135.161 172.99 135.77 173.04 136.4C173.058 136.548 173.029 136.698 172.958 136.83C172.887 136.961 172.777 137.067 172.643 137.133C172.509 137.199 172.358 137.222 172.21 137.198C172.063 137.174 171.926 137.105 171.82 137C170.76 135.9 169.37 134.31 169.23 133.29C168.13 133.39 166.68 131.12 166.68 131.12C166.095 130.447 165.801 129.57 165.86 128.68C166.01 127.26 169.66 124.5 169.66 124.5Z" fill="#FEC2A0"/>
<path d="M166.721 131.14C168.351 127.25 173.441 126.95 173.441 126.95C171.975 127.39 170.574 128.018 169.271 128.82C168.364 129.528 167.511 130.304 166.721 131.14Z" fill="#F99979"/>
<path d="M169.24 133.31C170.95 129.96 175.14 129.62 175.14 129.62C173.956 130.092 172.809 130.654 171.71 131.3C170.848 131.921 170.023 132.592 169.24 133.31V133.31Z" fill="#F99979"/>
<path d="M169.66 124.51L172.26 124.4L168.91 125.1L169.66 124.51Z" fill="#F99979"/>
<path d="M201.49 142.75L217.91 162.17C217.91 162.17 218.55 159.23 211.8 151.27C205.05 143.31 201.49 142.75 201.49 142.75Z" fill="#F99979"/>
<path d="M214.42 130.29L212.42 135.5C212.118 134.645 211.893 133.765 211.75 132.87C212.15 132.5 214.42 130.29 214.42 130.29Z" fill="#303134"/>
<path opacity="0.8" d="M0.0602728 299.57V298.67C-0.0200909 298.965 -0.0200909 299.275 0.0602728 299.57V299.57Z" fill="#029D41"/>
<path d="M343.721 268.36C343.721 268.36 371.361 322.12 375.511 322.01C385.321 310.93 373.281 285.57 372.891 282.34C372.501 279.11 368.621 272.09 363.121 270.89C357.621 269.69 343.721 268.36 343.721 268.36Z" fill="#7794FF"/>
<path d="M341.3 264.56C341.3 264.56 362.01 267.76 367.14 269.8C373.14 272.18 375.95 278.17 377.25 282.45C377.83 284.35 377.58 285.18 374.63 285.21C372.54 285.21 371.38 285.21 371.38 285.21C371.38 285.21 367.33 276.37 366.2 275.3C364.2 273.41 352.1 271.95 348.35 271.37C346.728 270.857 345.248 269.975 344.024 268.794C342.801 267.612 341.868 266.163 341.3 264.56V264.56Z" fill="#4F6DDB"/>
<path d="M316.82 251.37C316.909 250.158 316.825 248.939 316.57 247.75C316.03 245.99 316.39 240.75 319.65 239.2C322.91 237.65 328.12 238.85 329.65 245.02C331.18 251.19 333.75 252.16 333.75 252.16C333.75 252.16 333.62 245.28 338.82 245.55C344.02 245.82 343.67 254.28 337.77 255.86C338.061 258.014 338.811 260.081 339.97 261.92C343.07 253.25 348.5 255.05 350.82 248.92C351.861 246.112 351.815 243.016 350.69 240.241C349.565 237.465 347.443 235.211 344.74 233.92C340 225.28 321.57 225.6 312.32 234.79C315.49 238.64 314.74 242.17 315.2 245.79C315.58 249.11 315.72 250.22 316.82 251.37Z" fill="#F66A31"/>
<path d="M312.83 234.92C312.83 234.92 333.92 225.8 338.23 245.57" stroke="#D4531D" stroke-width="0.73" stroke-miterlimit="10" stroke-linecap="round"/>
<path d="M312.83 234.92C312.83 234.92 331.77 227.75 336.08 247.52" stroke="#D4531D" stroke-width="0.73" stroke-miterlimit="10" stroke-linecap="round"/>
<path d="M340.141 253.8C339.943 255.561 340.208 257.343 340.911 258.97" stroke="#D4531D" stroke-width="0.73" stroke-miterlimit="10" stroke-linecap="round"/>
<path d="M340.66 252.76C341.107 254.119 341.998 255.288 343.19 256.08" stroke="#D4531D" stroke-width="0.73" stroke-miterlimit="10" stroke-linecap="round"/>
<path d="M325.64 265.22C326.16 266.68 327.5 268.3 325.2 271.57C328.29 274.83 332.97 285.67 332.97 285.67L343.72 268.36C343.35 267.83 342.99 267.3 342.63 266.73C340.428 263.393 338.771 259.727 337.72 255.87C338.86 255.573 339.894 254.962 340.704 254.106C341.513 253.251 342.066 252.185 342.3 251.03C342.85 248.4 341.68 245.7 338.78 245.55C333.58 245.29 333.71 252.16 333.71 252.16C333.71 252.16 331.1 251.16 329.61 245.02C328.12 238.88 322.91 237.61 319.61 239.2C316.31 240.79 315.99 245.98 316.53 247.75C316.785 248.939 316.869 250.158 316.78 251.37C316.724 253.044 316.57 254.714 316.32 256.37C315.95 259.22 319.12 266.67 325.64 265.22Z" fill="#FEC2A0"/>
<path d="M302.5 298.86C306.14 285.66 320.59 275.58 325.03 271.86C325.103 271.783 325.164 271.696 325.21 271.6L325.3 271.7C326.419 272.952 327.814 273.926 329.375 274.546C330.936 275.165 332.619 275.414 334.292 275.271C335.965 275.129 337.582 274.599 339.015 273.724C340.448 272.849 341.659 271.653 342.55 270.23L343.69 268.4C345.63 271.12 359.98 275.96 363.77 278.87C368.7 282.65 373.77 290.73 375.3 299.55C370.3 305.46 361.53 308.67 358.8 313.22C356.1 319.97 360.97 333.72 361.01 335.44C359.18 336.91 317.26 329.83 317.26 329.83L304.86 300.4L302.5 298.86Z" fill="#EDEDED"/>
<path d="M304.85 300.36C311.85 305.11 316.85 308.13 316.85 308.13C316.85 308.13 320.37 328.87 316.21 330.64C312.49 332.22 308.66 333.51 304.29 327.06C301.08 322.31 303.84 311.48 304.85 300.36Z" fill="#F99979"/>
<path d="M323.55 247.11C323.55 247.11 324.7 246.36 327.25 247.52" stroke="#303134" stroke-width="0.51" stroke-miterlimit="10" stroke-linecap="round"/>
<path d="M318.24 247.4C318.012 247.122 317.727 246.895 317.405 246.735C317.082 246.574 316.73 246.484 316.37 246.47" stroke="#303134" stroke-width="0.51" stroke-miterlimit="10" stroke-linecap="round"/>
<path d="M324.971 252.76C325.473 252.76 325.881 251.932 325.881 250.91C325.881 249.888 325.473 249.06 324.971 249.06C324.468 249.06 324.061 249.888 324.061 250.91C324.061 251.932 324.468 252.76 324.971 252.76Z" fill="#303134"/>
<path d="M317.73 252.43C318.139 252.43 318.47 251.749 318.47 250.91C318.47 250.071 318.139 249.39 317.73 249.39C317.322 249.39 316.99 250.071 316.99 250.91C316.99 251.749 317.322 252.43 317.73 252.43Z" fill="#303134"/>
<path d="M319.561 253.26C318.231 254.53 318.231 257.43 320.561 256.26" stroke="#303134" stroke-width="0.51" stroke-miterlimit="10" stroke-linecap="round"/>
<path d="M324.06 257.19C324.06 257.19 323.7 259.74 320.16 258.74" stroke="#303134" stroke-width="0.51" stroke-miterlimit="10" stroke-linecap="round"/>
<path d="M325.641 265.22C325.641 265.22 328.641 264.16 329.641 261.72C329.641 265.22 326.461 267.41 326.461 267.41L325.641 265.22Z" fill="#F99979"/>
<path d="M285.661 281.35V285.1C284.841 283.49 285.551 282.41 285.661 281.35Z" fill="#FEC2A0"/>
<path d="M271.12 277.77C271.95 277.77 275.33 282.43 275.65 281.77C275.97 281.11 274.25 279.98 273.23 278.64C272.21 277.3 270.3 271.81 270.68 270.92C271.06 270.03 272.47 271.3 272.47 271.3C272.47 271.3 271.47 270.02 272.47 269.51C273.47 269 275.09 272.51 275.95 274.04C277.028 275.564 278.258 276.974 279.62 278.25C279.62 278.25 277.96 275.32 277.45 274.17C276.94 273.02 275.22 268.75 276.3 268.43C277.38 268.11 278.21 270.79 278.21 270.79C278.21 270.79 280.72 275.22 281.72 276.67C282.955 278.183 284.292 279.609 285.72 280.94V281.4C285.61 282.46 284.9 283.54 285.72 285.15V281.4C285.736 281.247 285.736 281.093 285.72 280.94C285.711 278.79 285.97 276.647 286.49 274.56C286.94 273.03 288.6 271.18 288.6 273.28C288.6 275.38 288.22 277.68 289.17 280.94C289.723 283.105 289.723 285.375 289.17 287.54C289.17 287.54 309.28 309.34 314.5 316.46C321.69 326.25 317.38 334.85 309.43 332.94C299.96 330.67 283.23 292.8 282.43 291.52C280.593 289.11 278.544 286.868 276.31 284.82C274.564 283.501 272.98 281.981 271.59 280.29C270.29 278.54 270.29 277.77 271.12 277.77Z" fill="#FEC2A0"/>
<path d="M285.03 249.67L298.35 277.01C298.35 277.01 289.91 280.37 282.13 284.11C274.52 287.76 270.53 296.25 270.53 296.25L251.66 263.25C251.66 263.25 258.03 257.53 268.88 259.45C268.88 253.61 285.03 249.67 285.03 249.67Z" fill="#EDEDED"/>
<path d="M251.66 263.17L250.73 270.3L266.18 295.76L270.52 296.21L251.66 263.17Z" fill="#7794FF"/>
<path d="M268.88 259.36L282.75 283.78L280.82 284.79L268.88 259.36Z" fill="#DBDBDB"/>
<path d="M273.9 253.67L285.03 275.89L283.63 274.97L283.71 276.97L272.54 254.47L273.9 253.67Z" fill="#7794FF"/>
<path d="M325.381 255.31C327.308 255.31 328.871 253.747 328.871 251.82C328.871 249.893 327.308 248.33 325.381 248.33C323.453 248.33 321.891 249.893 321.891 251.82C321.891 253.747 323.453 255.31 325.381 255.31Z" stroke="#303134" stroke-width="0.53" stroke-miterlimit="10"/>
<path d="M316.85 255.04C318.424 255.04 319.7 253.477 319.7 251.55C319.7 249.623 318.424 248.06 316.85 248.06C315.276 248.06 314 249.623 314 251.55C314 253.477 315.276 255.04 316.85 255.04Z" stroke="#303134" stroke-width="0.53" stroke-miterlimit="10"/>
<path d="M322.03 250.85H319.7" stroke="#303134" stroke-width="0.53" stroke-miterlimit="10"/>
<path d="M328.88 250.72L335.01 248.97" stroke="#303134" stroke-width="0.53" stroke-miterlimit="10"/>
<path d="M285.84 281.67C286.49 283.76 287.67 285.2 289.54 285.42C289.85 283.617 289.768 281.768 289.3 280C288.3 276.75 288.73 274.45 288.73 272.34C288.73 270.23 287.07 272.08 286.62 273.62C286.1 275.707 285.841 277.85 285.85 280C285.866 280.153 285.866 280.307 285.85 280.46L285.84 281.67Z" fill="#FEC2A0"/>
<path d="M320.28 272.08C320.28 272.08 323.06 303.43 325.86 331.2L320.28 330.29C319.71 307.29 315.54 276.42 315.54 276.42L320.28 272.08Z" fill="#7794FF"/>
<path d="M351.29 269.97C351.29 269.97 336.15 303.35 343.46 333.97L348.97 334.84C348.97 334.84 341.31 299.6 357.75 271.42L351.29 269.97Z" fill="#7794FF"/>
<path d="M357.75 271.37L361.47 277.43L355.88 274.79L357.75 271.37Z" fill="#4F6DDB"/>
<path d="M320.28 272.08L323.07 273.47L320.6 275.56L320.28 272.08Z" fill="#4F6DDB"/>
<path d="M330.52 293.67C330.52 293.67 323.09 293.23 321.36 292.88C319.63 292.53 319.23 291.02 320.28 290.81C321.33 290.6 334.14 290.67 334.14 290.67L353.01 303.86C355.776 305.947 358.417 308.194 360.92 310.59C364.2 307.59 369.21 305.51 372.57 301.66C373.73 308.16 382.4 328.57 381.89 334.74C381.38 340.91 368.64 345.69 361.45 335.97C358.97 332.62 349.75 311.91 349.14 311.12C347.96 309.63 344.84 308.27 342.81 308.12C340.78 307.97 336.96 304.21 336.13 303.3C335.3 302.39 334.41 302.11 333.32 303.81C333.646 304.351 333.841 304.961 333.89 305.59C333.908 305.738 333.88 305.889 333.809 306.02C333.737 306.151 333.627 306.257 333.493 306.323C333.359 306.389 333.208 306.412 333.06 306.388C332.913 306.364 332.777 306.295 332.67 306.19C331.61 305.09 330.22 303.5 330.08 302.48C328.98 302.58 327.53 300.31 327.53 300.31C326.946 299.637 326.651 298.76 326.71 297.87C326.87 296.47 330.52 293.67 330.52 293.67Z" fill="#FEC2A0"/>
<path d="M327.561 300.36C329.191 296.47 334.281 296.17 334.281 296.17C332.815 296.61 331.413 297.238 330.111 298.04C329.204 298.748 328.351 299.524 327.561 300.36V300.36Z" fill="#F99979"/>
<path d="M330.11 302.53C331.82 299.18 336.01 298.84 336.01 298.84C334.826 299.312 333.679 299.874 332.58 300.52C331.718 301.141 330.894 301.812 330.11 302.53V302.53Z" fill="#F99979"/>
<path d="M330.531 293.72L333.131 293.62L329.771 294.32L330.531 293.72Z" fill="#F99979"/>
<path d="M362.351 311.96L378.771 331.38C378.771 331.38 379.411 328.44 372.661 320.48C365.911 312.52 362.351 311.96 362.351 311.96Z" fill="#F99979"/>
<path d="M375.29 299.51L373.29 304.72C372.988 303.865 372.764 302.985 372.62 302.09C373.01 301.67 375.29 299.51 375.29 299.51Z" fill="#303134"/>
<path d="M221.08 31.94C218.027 31.94 215.1 33.1527 212.941 35.3112C210.782 37.4697 209.57 40.3974 209.57 43.45C209.19 52.98 218.57 68.32 221.08 68.32C223.59 68.32 232.59 54.96 232.59 43.45C232.59 40.3974 231.377 37.4697 229.219 35.3112C227.06 33.1527 224.132 31.94 221.08 31.94V31.94ZM221.08 37.19C222.318 37.19 223.528 37.5571 224.558 38.245C225.587 38.9329 226.389 39.9105 226.863 41.0544C227.337 42.1983 227.461 43.4569 227.22 44.6713C226.978 45.8856 226.382 47.001 225.506 47.8765C224.631 48.752 223.515 49.3482 222.301 49.5897C221.087 49.8313 219.828 49.7073 218.684 49.2335C217.54 48.7597 216.563 47.9573 215.875 46.9279C215.187 45.8984 214.82 44.6881 214.82 43.45C214.82 41.7897 215.479 40.1975 216.653 39.0235C217.827 37.8495 219.42 37.19 221.08 37.19Z" fill="#029D41"/>
<path d="M232.881 281.32C229.828 281.32 226.9 282.533 224.742 284.691C222.583 286.85 221.371 289.777 221.371 292.83C220.991 302.36 230.371 317.7 232.881 317.7C235.391 317.7 244.391 304.34 244.391 292.83C244.391 289.777 243.178 286.85 241.019 284.691C238.861 282.533 235.933 281.32 232.881 281.32ZM232.881 286.57C234.119 286.57 235.329 286.937 236.358 287.625C237.388 288.313 238.19 289.291 238.664 290.434C239.138 291.578 239.262 292.837 239.02 294.051C238.779 295.266 238.183 296.381 237.307 297.257C236.432 298.132 235.316 298.728 234.102 298.97C232.888 299.211 231.629 299.087 230.485 298.613C229.341 298.14 228.363 297.337 227.676 296.308C226.988 295.278 226.621 294.068 226.621 292.83C226.621 291.17 227.28 289.578 228.454 288.404C229.628 287.23 231.22 286.57 232.881 286.57V286.57Z" fill="#FFC61A"/>
<path d="M195.01 233.67C206.2 244.39 211.52 264.08 202.93 277.67C173.72 323.67 115.96 324.67 115.1 301.38C114.24 278.09 179.04 276.19 214.42 325.67" stroke="#FFC61A" stroke-width="2" stroke-miterlimit="10" stroke-linecap="round" stroke-dasharray="6 6"/>
<path d="M221.07 151C240.24 177.4 216.58 204.49 185.89 218.17C157.3 230.91 122.15 231.77 115.89 219.37C104.51 196.67 150.39 183.92 189.62 229.17" stroke="#FF9C1A" stroke-width="2" stroke-miterlimit="10" stroke-linecap="round" stroke-dasharray="6 6"/>
<path d="M388.22 167.67C390.69 148 339.28 138.07 300.83 158.35C292.37 162.81 284.12 171.61 277.63 179.21" stroke="#FFC61A" stroke-width="2" stroke-miterlimit="10" stroke-linecap="round" stroke-dasharray="6 6"/>
<path d="M256.721 112.35C247.021 138.07 278.841 154.74 316.291 172.35C343.381 185.11 381.021 196.35 387.291 172.98" stroke="#FF9C1A" stroke-width="2" stroke-miterlimit="10" stroke-linecap="round" stroke-dasharray="6 6"/>
<path d="M276.481 93.67C269.648 97.6157 263.51 102.656 258.311 108.59" stroke="#029D41" stroke-width="2" stroke-miterlimit="10" stroke-linecap="round" stroke-dasharray="5.51 5.51"/>
<path d="M320.071 74.06C309.721 77.21 299.721 81.97 290.721 86.1" stroke="#029D41" stroke-width="2" stroke-miterlimit="10" stroke-linecap="round" stroke-dasharray="6 6"/>
<path d="M221.08 68.32C232.55 133.67 393.08 137.51 395.35 87.55C395.85 76.68 379.85 69.34 361.64 69.29C352.26 69.29 342.47 70.17 342.47 70.17" stroke="#029D41" stroke-width="2" stroke-miterlimit="10" stroke-linecap="round" stroke-dasharray="6 6"/>
<path d="M378.791 238.57C352.531 192.04 258.101 207.8 258.101 207.8" stroke="#029D41" stroke-width="2" stroke-miterlimit="10" stroke-linecap="round" stroke-dasharray="6 6"/>
<path d="M283.81 304.57C278.81 307.37 276.91 311.23 279.56 316.14C290.17 335.8 404.71 290.74 381.93 243.14" stroke="#FF9C1A" stroke-width="2" stroke-miterlimit="10" stroke-linecap="round" stroke-dasharray="6 6"/>
<path d="M390.031 344.36C418.381 320.17 391.881 300.77 379.311 297.55" stroke="#FF9C1A" stroke-width="2" stroke-miterlimit="10" stroke-linecap="round" stroke-dasharray="6 6"/>
<path d="M232.87 317.31C268.87 386.67 367.22 365.17 390.03 344.31" stroke="#FFC61A" stroke-width="2" stroke-miterlimit="10" stroke-linecap="round" stroke-dasharray="6 6"/>
<path d="M153.581 147.21C148.861 140.78 127.711 118.54 124.871 115.88C123.884 114.997 122.75 114.293 121.521 113.8C117.851 114.18 114.191 115.39 110.521 116.27C109.72 117.364 108.546 118.125 107.221 118.41L120.291 124.51C120.888 124.203 121.519 123.964 122.171 123.8H122.301C125.721 131.08 140.031 161.67 148.511 163.67C156.461 165.6 160.721 156.99 153.581 147.21Z" fill="#FEC2A0"/>
<path d="M94.0605 118.35C94.3828 117.951 94.837 117.68 95.3413 117.587C95.8456 117.493 96.3667 117.583 96.8105 117.84C97.7457 118.133 98.5964 118.648 99.2906 119.34" stroke="#F99979" stroke-width="0.33" stroke-miterlimit="10"/>
<path d="M124.23 108.59C124.68 108.28 125.23 108 125.23 107.59C125.23 106.89 124.12 106.65 123.87 106.51C123.792 106.466 123.725 106.404 123.675 106.329C123.624 106.255 123.592 106.169 123.58 106.08C123.569 105.991 123.578 105.9 123.608 105.815C123.637 105.73 123.686 105.653 123.75 105.59C124.24 105.11 124.99 105.25 124.99 104.4C124.99 103.55 122.26 102.24 123.62 100.65C124.75 99.32 125.33 99.11 125.04 98.18C124.56 96.65 120.4 94.87 119.26 92.92C118.6 91.78 118.97 88.34 118.68 86.77C118.39 85.2 117.28 82.86 112.76 79.77C110.566 78.3889 108.042 77.6222 105.45 77.55C103.493 77.3692 101.523 77.3927 99.5703 77.62C101.92 77.81 108.57 78.35 110.65 79.77C115.17 82.83 114.89 85.17 115.18 86.77C115.47 88.37 115.1 91.77 115.76 92.92C116.89 94.87 120.13 96.65 120.61 98.18C120.9 99.11 120.32 99.32 119.19 100.65C117.83 102.24 120.56 103.57 120.56 104.4C120.56 105.23 119.8 105.11 119.32 105.59C119.256 105.654 119.208 105.731 119.179 105.817C119.151 105.902 119.142 105.993 119.155 106.083C119.167 106.172 119.201 106.257 119.252 106.331C119.303 106.405 119.371 106.467 119.45 106.51C119.7 106.64 120.81 106.89 120.81 107.59C120.81 108.04 120.21 108.33 119.81 108.59C119.21 109 118.96 109.89 119.42 111.05C119.97 112.44 119.07 114.29 116.82 115.05C114.57 115.81 110.93 115.73 109.16 116.17C106.1 116.94 105.75 120.23 103.43 121.06C102.905 121.219 102.366 121.329 101.82 121.39L102 121.65C103.66 121.635 105.313 121.441 106.93 121.07C109.26 120.25 109.99 116.94 111.93 116.42C113.2 116.08 118.87 115.9 121.23 115.06C123.59 114.22 124.85 112.41 124.3 111.06C123.85 109.89 123.63 109.01 124.23 108.59Z" fill="#F2AA79"/>
<path d="M119.49 106.47C119.411 106.427 119.343 106.365 119.292 106.291C119.241 106.217 119.208 106.132 119.195 106.043C119.182 105.953 119.191 105.862 119.219 105.777C119.248 105.691 119.296 105.614 119.36 105.55C119.85 105.07 120.6 105.21 120.6 104.36C120.6 103.51 117.87 102.2 119.23 100.61C120.36 99.28 120.94 99.07 120.65 98.14C120.17 96.61 116.94 94.83 115.8 92.88C115.14 91.74 115.51 88.3 115.22 86.73C114.93 85.16 115.22 82.82 110.69 79.73C108.508 78.46 106.044 77.7521 103.52 77.67C102.189 77.5735 100.852 77.5735 99.5204 77.67C102.06 77.7451 104.539 78.468 106.72 79.77C111.24 82.83 111.42 85.17 111.72 86.77C112.02 88.37 111.64 91.77 112.3 92.92C113.43 94.87 116.67 96.65 117.15 98.18C117.44 99.11 116.86 99.32 115.73 100.65C114.37 102.24 117.1 103.57 117.1 104.4C117.1 105.23 116.34 105.11 115.85 105.59C115.786 105.654 115.738 105.731 115.709 105.817C115.681 105.902 115.672 105.993 115.685 106.083C115.698 106.172 115.731 106.257 115.782 106.331C115.833 106.405 115.901 106.467 115.98 106.51C116.23 106.64 117.34 106.89 117.34 107.59C117.34 108.04 116.74 108.33 116.34 108.59C115.73 109 115.49 109.89 115.95 111.05C116.5 112.44 114.95 114.76 112.37 115.17C110.09 115.52 106.44 114.11 104.06 116.45C102.6 117.88 102.3 119.61 99.9704 120.45C99.3889 120.627 98.7934 120.754 98.1904 120.83C98.3004 121.13 98.3904 121.44 98.5104 121.73C100.194 121.711 101.871 121.507 103.51 121.12C105.84 120.3 106.19 117 109.24 116.23C111.01 115.79 114.54 115.94 116.9 115.11C119.26 114.28 120.06 112.46 119.5 111.11C119.04 109.95 119.28 109.11 119.89 108.65C120.34 108.34 120.89 108.06 120.89 107.65C120.85 106.85 119.72 106.61 119.49 106.47Z" fill="#F37F2F"/>
<path d="M86.2705 84.98C87.4911 84.98 88.4806 83.9905 88.4806 82.77C88.4806 81.5494 87.4911 80.56 86.2705 80.56C85.05 80.56 84.0605 81.5494 84.0605 82.77C84.0605 83.9905 85.05 84.98 86.2705 84.98Z" fill="#F37F2F"/>
<path d="M89.2305 108.69C90.4511 108.69 91.4405 107.701 91.4405 106.48C91.4405 105.259 90.4511 104.27 89.2305 104.27C88.01 104.27 87.0205 105.259 87.0205 106.48C87.0205 107.701 88.01 108.69 89.2305 108.69Z" fill="#F37F2F"/>
<path d="M82.88 97.4C84.3325 97.4 85.51 96.2225 85.51 94.77C85.51 93.3175 84.3325 92.14 82.88 92.14C81.4275 92.14 80.25 93.3175 80.25 94.77C80.25 96.2225 81.4275 97.4 82.88 97.4Z" fill="#F37F2F"/>
<path d="M100.63 88.88C101.53 88.88 102.26 88.1502 102.26 87.25C102.26 86.3498 101.53 85.62 100.63 85.62C99.7298 85.62 99 86.3498 99 87.25C99 88.1502 99.7298 88.88 100.63 88.88Z" fill="#F37F2F"/>
<path d="M99.8106 80.22C100.617 80.22 101.271 79.5663 101.271 78.76C101.271 77.9537 100.617 77.3 99.8106 77.3C99.0042 77.3 98.3506 77.9537 98.3506 78.76C98.3506 79.5663 99.0042 80.22 99.8106 80.22Z" fill="#F37F2F"/>
<path d="M94.88 95.4C95.7802 95.4 96.51 94.6702 96.51 93.77C96.51 92.8698 95.7802 92.14 94.88 92.14C93.9798 92.14 93.25 92.8698 93.25 93.77C93.25 94.6702 93.9798 95.4 94.88 95.4Z" fill="#F37F2F"/>
<path d="M96.7598 102.7C97.5441 102.7 98.1798 102.064 98.1798 101.28C98.1798 100.496 97.5441 99.86 96.7598 99.86C95.9756 99.86 95.3398 100.496 95.3398 101.28C95.3398 102.064 95.9756 102.7 96.7598 102.7Z" fill="#F37F2F"/>
<path d="M99.0001 111.86C99.7843 111.86 100.42 111.224 100.42 110.44C100.42 109.656 99.7843 109.02 99.0001 109.02C98.2158 109.02 97.5801 109.656 97.5801 110.44C97.5801 111.224 98.2158 111.86 99.0001 111.86Z" fill="#F37F2F"/>
<path d="M91.6505 118.6C92.4347 118.6 93.0705 117.964 93.0705 117.18C93.0705 116.396 92.4347 115.76 91.6505 115.76C90.8662 115.76 90.2305 116.396 90.2305 117.18C90.2305 117.964 90.8662 118.6 91.6505 118.6Z" fill="#F37F2F"/>
<path d="M87.7607 82.18L99.0007 79.05" stroke="#F37F2F" stroke-width="0.46" stroke-miterlimit="10"/>
<path d="M87.8398 83.04L99.9898 87.06" stroke="#F37F2F" stroke-width="0.46" stroke-miterlimit="10"/>
<path d="M87.1406 83.89L94.5506 93.31" stroke="#F37F2F" stroke-width="0.46" stroke-miterlimit="10"/>
<path d="M86.0801 84.16L83.0801 93.31" stroke="#F37F2F" stroke-width="0.46" stroke-miterlimit="10"/>
<path d="M83.7207 96.36C83.7807 96.36 88.5607 105.36 88.5607 105.36" stroke="#F37F2F" stroke-width="0.46" stroke-miterlimit="10"/>
<path d="M90.5703 105.58L96.3703 101.59" stroke="#F37F2F" stroke-width="0.46" stroke-miterlimit="10"/>
<path d="M90.3105 107.08C90.3705 107.08 98.8605 110.43 98.8605 110.43" stroke="#F37F2F" stroke-width="0.46" stroke-miterlimit="10"/>
<path d="M89.5801 107.82L91.4401 116.35" stroke="#F37F2F" stroke-width="0.46" stroke-miterlimit="10"/>
<path d="M106.92 118.49C104.82 118.91 102.59 119.33 100.44 118.49C98.2905 117.65 95.7305 115.69 94.3305 116.21C92.9305 116.73 93.1205 117.79 94.0505 118.35C93.9605 119.19 93.9605 119.56 95.6805 120.26C97.4005 120.96 98.9405 123.34 100.48 124.08C102.36 124.78 104.318 125.25 106.31 125.48C108.994 126.047 111.728 126.345 114.47 126.37C116.501 126.093 118.467 125.463 120.28 124.51L110.47 118.6C110.38 118.67 107.02 118.47 106.92 118.49Z" fill="#FEC2A0"/>
<path d="M108.97 125.6C108.73 125.6 100.27 121.68 99.2901 121.13C98.3101 120.58 98.2901 119.24 100.13 119.35C101.97 119.46 104.67 121.03 105.58 121.45C107.17 121.903 108.817 122.125 110.47 122.11" stroke="#F99979" stroke-width="0.33" stroke-miterlimit="10"/>
<path d="M124.391 92.9C136.721 93.67 147.671 101.06 154.681 107.21" stroke="#029D41" stroke-width="2" stroke-miterlimit="10" stroke-linecap="round" stroke-dasharray="6 6"/>
<path d="M221.08 68.32C214.42 158.05 88.4801 172.37 80.2501 126.95C78.8001 118.95 79.8501 114.46 84.0701 110.43" stroke="#029D41" stroke-width="2" stroke-miterlimit="10" stroke-linecap="round" stroke-dasharray="6 6"/>
</svg>
