<svg width="419" height="398" viewBox="0 0 419 398" fill="none" xmlns="http://www.w3.org/2000/svg">
<line y1="-2.5" x2="19.2744" y2="-2.5" transform="matrix(0.955872 -0.293783 -0.257707 -0.966223 156.672 266.186)" stroke="#00B84C" stroke-width="5"/>
<path d="M182.973 260.16L173.846 255.837L177.361 269.013L182.973 260.16Z" fill="#00B84C"/>
<line y1="-2.5" x2="19.2313" y2="-2.5" transform="matrix(0.91611 0.400926 0.369123 -0.92938 158.789 284.939)" stroke="#00B84C" stroke-width="5"/>
<path d="M182.724 297.566L178.199 288.132L173.155 300.832L182.724 297.566Z" fill="#00B84C"/>
<line y1="-2.5" x2="19.2025" y2="-2.5" transform="matrix(1 0 0.0329121 -0.999458 260.799 241.815)" stroke="#00B84C" stroke-width="5"/>
<path d="M286.783 243.971L278.952 237.565L279.277 251.247L286.783 243.971Z" fill="#00B84C"/>
<rect width="71.1645" height="45.0785" rx="3" transform="matrix(-1 0 0 1 257.522 282.427)" fill="url(#paint0_linear_929_2820)"/>
<rect width="72.4352" height="45.0785" rx="3" transform="matrix(-1 0 0 1 158.876 255.552)" fill="url(#paint1_linear_929_2820)"/>
<rect width="72.4352" height="45.0785" rx="3" transform="matrix(-1 0 0 1 259.746 222.68)" fill="url(#paint2_linear_929_2820)"/>
<path d="M65.5949 104.923C69.3529 129.431 95.6599 133.487 108.344 132.452C124.477 189.408 184.24 172.426 191.292 166.71C266.894 203.022 293.834 139.166 297.589 131.862C341.148 138.968 348.453 104.898 349.122 101.285C349.624 63.4212 314.136 63.6202 297.747 63.1816C280.626 30.0833 249.368 37.1866 236.988 38.5753C222.809 9.27572 195.2 6.43583 192.793 6.3119C150.45 3.72641 138.518 33.9104 136.511 44.7487C103.303 38.1759 91.6634 67.3618 88.965 72.8963C63.5686 83.3407 64.2963 102.019 65.5949 104.923Z" stroke="#00ADFF" stroke-width="5"/>
<path d="M114.118 90.3315L116.667 79.5649H118.09L118.416 81.3578L115.7 92.3618H114.17L114.118 90.3315ZM112.808 79.5649L114.918 90.3315L114.742 92.3618H113.037L110.198 79.5649H112.808ZM120.657 90.2875L122.74 79.5649H125.35L122.52 92.3618H120.815L120.657 90.2875ZM118.89 79.5649L121.457 90.3754L121.386 92.3618H119.857L117.124 81.3491L117.475 79.5649H118.89ZM129.094 78.8618V92.3618H126.563V78.8618H129.094ZM128.734 87.2729H128.04C128.045 86.6108 128.133 86.0014 128.303 85.4448C128.473 84.8823 128.716 84.3959 129.033 83.9858C129.349 83.5698 129.727 83.2475 130.167 83.019C130.612 82.7905 131.104 82.6762 131.643 82.6762C132.112 82.6762 132.537 82.7436 132.918 82.8784C133.304 83.0073 133.635 83.2182 133.911 83.5112C134.192 83.7983 134.409 84.1762 134.561 84.645C134.713 85.1137 134.79 85.6821 134.79 86.35V92.3618H132.241V86.3325C132.241 85.9106 132.179 85.5795 132.056 85.3393C131.939 85.0932 131.766 84.9203 131.538 84.8207C131.315 84.7153 131.04 84.6625 130.711 84.6625C130.348 84.6625 130.038 84.7299 129.78 84.8647C129.528 84.9995 129.326 85.187 129.173 85.4272C129.021 85.6616 128.91 85.937 128.839 86.2534C128.769 86.5698 128.734 86.9096 128.734 87.2729ZM141.847 90.2172V85.9809C141.847 85.6762 141.797 85.4155 141.698 85.1987C141.598 84.976 141.443 84.8032 141.232 84.6801C141.027 84.5571 140.76 84.4955 140.432 84.4955C140.151 84.4955 139.908 84.5453 139.703 84.645C139.498 84.7387 139.339 84.8764 139.228 85.058C139.117 85.2338 139.061 85.4418 139.061 85.6821H136.53C136.53 85.2778 136.624 84.894 136.811 84.5307C136.999 84.1674 137.271 83.8481 137.628 83.5727C137.986 83.2914 138.411 83.0717 138.903 82.9135C139.401 82.7553 139.958 82.6762 140.573 82.6762C141.311 82.6762 141.967 82.7993 142.542 83.0453C143.116 83.2914 143.567 83.6606 143.895 84.1528C144.229 84.645 144.396 85.2602 144.396 85.9985V90.0678C144.396 90.5893 144.428 91.017 144.493 91.351C144.557 91.6791 144.651 91.9662 144.774 92.2123V92.3618H142.216C142.093 92.1039 142 91.7817 141.935 91.395C141.876 91.0024 141.847 90.6098 141.847 90.2172ZM142.181 86.5698L142.199 88.0024H140.784C140.45 88.0024 140.16 88.0405 139.914 88.1166C139.668 88.1928 139.465 88.3012 139.307 88.4418C139.149 88.5766 139.032 88.7348 138.956 88.9164C138.885 89.0981 138.85 89.2973 138.85 89.5141C138.85 89.7309 138.9 89.9272 139 90.103C139.099 90.2729 139.243 90.4077 139.43 90.5073C139.618 90.601 139.837 90.6479 140.089 90.6479C140.47 90.6479 140.801 90.5717 141.083 90.4194C141.364 90.267 141.581 90.0795 141.733 89.8569C141.891 89.6342 141.973 89.4233 141.979 89.2241L142.647 90.2963C142.553 90.5366 142.424 90.7856 142.26 91.0434C142.102 91.3012 141.9 91.5444 141.654 91.7729C141.408 91.9955 141.112 92.1801 140.766 92.3266C140.42 92.4672 140.01 92.5375 139.536 92.5375C138.932 92.5375 138.384 92.4174 137.892 92.1772C137.406 91.9311 137.019 91.5942 136.732 91.1664C136.451 90.7328 136.31 90.2407 136.31 89.6899C136.31 89.1918 136.404 88.7495 136.591 88.3627C136.779 87.976 137.054 87.6508 137.418 87.3871C137.787 87.1176 138.247 86.9155 138.797 86.7807C139.348 86.6401 139.987 86.5698 140.713 86.5698H142.181ZM151.005 82.852V84.645H145.468V82.852H151.005ZM146.839 80.5053H149.371V89.4965C149.371 89.7719 149.406 89.9828 149.476 90.1293C149.552 90.2758 149.664 90.3784 149.81 90.437C149.957 90.4897 150.141 90.5161 150.364 90.5161C150.522 90.5161 150.663 90.5102 150.786 90.4985C150.915 90.4809 151.023 90.4633 151.111 90.4457L151.12 92.309C150.903 92.3793 150.668 92.435 150.417 92.476C150.165 92.517 149.886 92.5375 149.582 92.5375C149.025 92.5375 148.539 92.4467 148.123 92.2651C147.712 92.0776 147.396 91.7787 147.173 91.3686C146.951 90.9584 146.839 90.4194 146.839 89.7514V80.5053ZM162.071 89.7338C162.071 89.5522 162.018 89.3881 161.913 89.2416C161.807 89.0952 161.611 88.9604 161.324 88.8373C161.043 88.7084 160.635 88.5912 160.102 88.4858C159.622 88.3803 159.173 88.2485 158.757 88.0903C158.347 87.9262 157.99 87.7299 157.685 87.5014C157.386 87.2729 157.152 87.0034 156.982 86.6928C156.812 86.3764 156.727 86.0161 156.727 85.6118C156.727 85.2133 156.812 84.8383 156.982 84.4868C157.158 84.1352 157.407 83.8246 157.729 83.5551C158.057 83.2797 158.456 83.0659 158.924 82.9135C159.399 82.7553 159.932 82.6762 160.524 82.6762C161.35 82.6762 162.059 82.808 162.651 83.0717C163.249 83.3354 163.706 83.6987 164.022 84.1616C164.344 84.6186 164.505 85.1401 164.505 85.726H161.974C161.974 85.4799 161.921 85.2602 161.816 85.0668C161.716 84.8676 161.558 84.7123 161.341 84.601C161.13 84.4838 160.855 84.4252 160.515 84.4252C160.234 84.4252 159.991 84.475 159.786 84.5746C159.581 84.6684 159.422 84.7973 159.311 84.9614C159.206 85.1196 159.153 85.2953 159.153 85.4887C159.153 85.6352 159.182 85.767 159.241 85.8842C159.305 85.9955 159.408 86.0981 159.548 86.1918C159.689 86.2856 159.871 86.3735 160.093 86.4555C160.322 86.5317 160.603 86.602 160.937 86.6664C161.623 86.8071 162.235 86.9916 162.774 87.2202C163.313 87.4428 163.741 87.7475 164.057 88.1342C164.374 88.5151 164.532 89.0161 164.532 89.6371C164.532 90.059 164.438 90.4457 164.251 90.7973C164.063 91.1489 163.793 91.4565 163.442 91.7202C163.09 91.978 162.668 92.1801 162.176 92.3266C161.69 92.4672 161.142 92.5375 160.533 92.5375C159.648 92.5375 158.898 92.3793 158.283 92.0629C157.673 91.7465 157.21 91.3452 156.894 90.8588C156.584 90.3666 156.428 89.8627 156.428 89.3471H158.828C158.839 89.6928 158.927 89.9711 159.091 90.1821C159.261 90.393 159.475 90.5453 159.733 90.6391C159.997 90.7328 160.281 90.7797 160.585 90.7797C160.914 90.7797 161.186 90.7358 161.403 90.6479C161.62 90.5541 161.784 90.4311 161.895 90.2787C162.012 90.1205 162.071 89.9389 162.071 89.7338ZM168.645 78.8618V92.3618H166.114V78.8618H168.645ZM168.285 87.2729H167.59C167.596 86.6108 167.684 86.0014 167.854 85.4448C168.024 84.8823 168.267 84.3959 168.584 83.9858C168.9 83.5698 169.278 83.2475 169.717 83.019C170.163 82.7905 170.655 82.6762 171.194 82.6762C171.663 82.6762 172.087 82.7436 172.468 82.8784C172.855 83.0073 173.186 83.2182 173.461 83.5112C173.743 83.7983 173.96 84.1762 174.112 84.645C174.264 85.1137 174.34 85.6821 174.34 86.35V92.3618H171.792V86.3325C171.792 85.9106 171.73 85.5795 171.607 85.3393C171.49 85.0932 171.317 84.9203 171.088 84.8207C170.866 84.7153 170.59 84.6625 170.262 84.6625C169.899 84.6625 169.588 84.7299 169.331 84.8647C169.079 84.9995 168.876 85.187 168.724 85.4272C168.572 85.6616 168.46 85.937 168.39 86.2534C168.32 86.5698 168.285 86.9096 168.285 87.2729ZM175.861 87.7036V87.519C175.861 86.8217 175.96 86.1801 176.16 85.5942C176.359 85.0024 176.649 84.4897 177.03 84.0561C177.411 83.6225 177.879 83.2856 178.436 83.0453C178.993 82.7993 179.631 82.6762 180.352 82.6762C181.073 82.6762 181.714 82.7993 182.277 83.0453C182.839 83.2856 183.311 83.6225 183.692 84.0561C184.079 84.4897 184.372 85.0024 184.571 85.5942C184.77 86.1801 184.87 86.8217 184.87 87.519V87.7036C184.87 88.395 184.77 89.0366 184.571 89.6284C184.372 90.2143 184.079 90.727 183.692 91.1664C183.311 91.6 182.842 91.937 182.286 92.1772C181.729 92.4174 181.09 92.5375 180.37 92.5375C179.649 92.5375 179.007 92.4174 178.445 92.1772C177.888 91.937 177.417 91.6 177.03 91.1664C176.649 90.727 176.359 90.2143 176.16 89.6284C175.96 89.0366 175.861 88.395 175.861 87.7036ZM178.392 87.519V87.7036C178.392 88.102 178.427 88.4741 178.498 88.8198C178.568 89.1655 178.679 89.4702 178.832 89.7338C178.99 89.9916 179.195 90.1938 179.447 90.3403C179.699 90.4868 180.006 90.56 180.37 90.56C180.721 90.56 181.023 90.4868 181.275 90.3403C181.527 90.1938 181.729 89.9916 181.881 89.7338C182.034 89.4702 182.145 89.1655 182.215 88.8198C182.292 88.4741 182.33 88.102 182.33 87.7036V87.519C182.33 87.1323 182.292 86.769 182.215 86.4291C182.145 86.0834 182.031 85.7787 181.873 85.5151C181.72 85.2455 181.518 85.0346 181.266 84.8823C181.014 84.7299 180.71 84.6537 180.352 84.6537C179.995 84.6537 179.69 84.7299 179.438 84.8823C179.192 85.0346 178.99 85.2455 178.832 85.5151C178.679 85.7787 178.568 86.0834 178.498 86.4291C178.427 86.769 178.392 87.1323 178.392 87.519ZM192.05 90.0854V82.852H194.582V92.3618H192.2L192.05 90.0854ZM192.332 88.1342L193.079 88.1166C193.079 88.7495 193.005 89.3383 192.859 89.8832C192.712 90.4223 192.493 90.8911 192.2 91.2895C191.907 91.6821 191.538 91.9897 191.092 92.2123C190.647 92.4291 190.123 92.5375 189.519 92.5375C189.056 92.5375 188.628 92.4731 188.236 92.3442C187.849 92.2094 187.515 92.0014 187.234 91.7202C186.959 91.433 186.742 91.0668 186.584 90.6215C186.431 90.1703 186.355 89.6284 186.355 88.9955V82.852H188.886V89.0131C188.886 89.2944 188.918 89.5317 188.983 89.725C189.053 89.9184 189.15 90.0766 189.273 90.1996C189.396 90.3227 189.54 90.4106 189.704 90.4633C189.874 90.5161 190.061 90.5424 190.266 90.5424C190.788 90.5424 191.198 90.437 191.497 90.226C191.801 90.0151 192.015 89.728 192.138 89.3647C192.267 88.9955 192.332 88.5854 192.332 88.1342ZM199.187 78.8618V92.3618H196.647V78.8618H199.187ZM206.895 90.2875V78.8618H209.444V92.3618H207.15L206.895 90.2875ZM200.883 87.7211V87.5366C200.883 86.81 200.965 86.1508 201.129 85.559C201.293 84.9614 201.534 84.4487 201.85 84.0209C202.167 83.5932 202.556 83.2621 203.019 83.0278C203.482 82.7934 204.009 82.6762 204.601 82.6762C205.158 82.6762 205.644 82.7934 206.06 83.0278C206.482 83.2621 206.839 83.5961 207.132 84.0297C207.431 84.4575 207.671 84.9643 207.853 85.5502C208.035 86.1303 208.167 86.7661 208.249 87.4575V87.8618C208.167 88.5239 208.035 89.1391 207.853 89.7075C207.671 90.2758 207.431 90.7739 207.132 91.2016C206.839 91.6235 206.482 91.9516 206.06 92.186C205.638 92.4203 205.146 92.5375 204.584 92.5375C203.992 92.5375 203.464 92.4174 203.001 92.1772C202.544 91.937 202.158 91.6 201.841 91.1664C201.531 90.7328 201.293 90.2231 201.129 89.6371C200.965 89.0512 200.883 88.4125 200.883 87.7211ZM203.415 87.5366V87.7211C203.415 88.1137 203.444 88.4799 203.502 88.8198C203.567 89.1596 203.669 89.4614 203.81 89.725C203.957 89.9828 204.144 90.185 204.373 90.3315C204.607 90.4721 204.891 90.5424 205.225 90.5424C205.659 90.5424 206.016 90.4457 206.297 90.2524C206.579 90.0532 206.793 89.7807 206.939 89.435C207.091 89.0893 207.179 88.6909 207.203 88.2397V87.0883C207.185 86.7192 207.132 86.3881 207.044 86.0952C206.962 85.7963 206.839 85.5414 206.675 85.3305C206.517 85.1196 206.318 84.9555 206.078 84.8383C205.843 84.7211 205.565 84.6625 205.243 84.6625C204.915 84.6625 204.633 84.7387 204.399 84.8911C204.165 85.0375 203.974 85.2397 203.828 85.4975C203.687 85.7553 203.582 86.06 203.511 86.4116C203.447 86.7573 203.415 87.1323 203.415 87.5366ZM215.5 87.7036V87.519C215.5 86.8217 215.599 86.1801 215.798 85.5942C215.998 85.0024 216.288 84.4897 216.668 84.0561C217.049 83.6225 217.518 83.2856 218.075 83.0453C218.631 82.7993 219.27 82.6762 219.991 82.6762C220.711 82.6762 221.353 82.7993 221.916 83.0453C222.478 83.2856 222.95 83.6225 223.331 84.0561C223.717 84.4897 224.01 85.0024 224.21 85.5942C224.409 86.1801 224.508 86.8217 224.508 87.519V87.7036C224.508 88.395 224.409 89.0366 224.21 89.6284C224.01 90.2143 223.717 90.727 223.331 91.1664C222.95 91.6 222.481 91.937 221.924 92.1772C221.368 92.4174 220.729 92.5375 220.008 92.5375C219.288 92.5375 218.646 92.4174 218.084 92.1772C217.527 91.937 217.055 91.6 216.668 91.1664C216.288 90.727 215.998 90.2143 215.798 89.6284C215.599 89.0366 215.5 88.395 215.5 87.7036ZM218.031 87.519V87.7036C218.031 88.102 218.066 88.4741 218.136 88.8198C218.207 89.1655 218.318 89.4702 218.47 89.7338C218.628 89.9916 218.834 90.1938 219.085 90.3403C219.337 90.4868 219.645 90.56 220.008 90.56C220.36 90.56 220.662 90.4868 220.914 90.3403C221.166 90.1938 221.368 89.9916 221.52 89.7338C221.672 89.4702 221.784 89.1655 221.854 88.8198C221.93 88.4741 221.968 88.102 221.968 87.7036V87.519C221.968 87.1323 221.93 86.769 221.854 86.4291C221.784 86.0834 221.669 85.7787 221.511 85.5151C221.359 85.2455 221.157 85.0346 220.905 84.8823C220.653 84.7299 220.348 84.6537 219.991 84.6537C219.633 84.6537 219.329 84.7299 219.077 84.8823C218.831 85.0346 218.628 85.2455 218.47 85.5151C218.318 85.7787 218.207 86.0834 218.136 86.4291C218.066 86.769 218.031 87.1323 218.031 87.519ZM228.543 84.8823V92.3618H226.011V82.852H228.384L228.543 84.8823ZM228.173 87.2729H227.488C227.488 86.5698 227.579 85.937 227.76 85.3745C227.942 84.8061 228.197 84.3227 228.525 83.9243C228.853 83.52 229.243 83.2123 229.694 83.0014C230.151 82.7846 230.661 82.6762 231.223 82.6762C231.668 82.6762 232.076 82.7407 232.445 82.8696C232.814 82.9985 233.13 83.2036 233.394 83.4848C233.664 83.7661 233.869 84.1381 234.009 84.601C234.156 85.0639 234.229 85.6293 234.229 86.2973V92.3618H231.68V86.2885C231.68 85.8666 231.622 85.5385 231.504 85.3041C231.387 85.0698 231.214 84.9057 230.986 84.812C230.763 84.7123 230.488 84.6625 230.16 84.6625C229.82 84.6625 229.524 84.7299 229.272 84.8647C229.026 84.9995 228.821 85.187 228.657 85.4272C228.499 85.6616 228.378 85.937 228.296 86.2534C228.214 86.5698 228.173 86.9096 228.173 87.2729ZM240.531 92.5375C239.793 92.5375 239.13 92.4203 238.544 92.186C237.959 91.9457 237.46 91.6147 237.05 91.1928C236.646 90.7709 236.335 90.2817 236.119 89.725C235.902 89.1625 235.793 88.5649 235.793 87.9321V87.5805C235.793 86.8598 235.896 86.2006 236.101 85.603C236.306 85.0053 236.599 84.4868 236.98 84.0473C237.367 83.6078 237.835 83.2709 238.386 83.0366C238.937 82.7963 239.558 82.6762 240.25 82.6762C240.923 82.6762 241.521 82.7875 242.043 83.0102C242.564 83.2328 243.001 83.5493 243.352 83.9594C243.71 84.3696 243.979 84.8618 244.161 85.436C244.342 86.0043 244.433 86.6371 244.433 87.3344V88.3891H236.875V86.7016H241.946V86.5082C241.946 86.1567 241.881 85.8432 241.752 85.5678C241.629 85.2866 241.442 85.0639 241.19 84.8998C240.938 84.7358 240.616 84.6537 240.223 84.6537C239.889 84.6537 239.602 84.727 239.362 84.8735C239.122 85.02 238.925 85.225 238.773 85.4887C238.626 85.7524 238.515 86.0629 238.439 86.4203C238.369 86.7719 238.334 87.1586 238.334 87.5805V87.9321C238.334 88.3129 238.386 88.6645 238.492 88.9868C238.603 89.309 238.758 89.5873 238.958 89.8217C239.163 90.0561 239.409 90.2377 239.696 90.3666C239.989 90.4955 240.32 90.56 240.689 90.56C241.146 90.56 241.571 90.4721 241.963 90.2963C242.362 90.1147 242.705 89.8422 242.992 89.4789L244.222 90.8149C244.023 91.102 243.751 91.3774 243.405 91.6411C243.065 91.9047 242.655 92.1215 242.174 92.2914C241.694 92.4555 241.146 92.5375 240.531 92.5375ZM252.888 78.853V92.3618H250.357V78.853H252.888ZM258.882 82.852L254.751 87.5629L252.537 89.8041L251.614 87.976L253.372 85.7436L255.841 82.852H258.882ZM256.254 92.3618L253.442 87.9672L255.191 86.4379L259.172 92.3618H256.254ZM262.451 84.8823V92.3618H259.919V82.852H262.293L262.451 84.8823ZM262.082 87.2729H261.396C261.396 86.5698 261.487 85.937 261.668 85.3745C261.85 84.8061 262.105 84.3227 262.433 83.9243C262.761 83.52 263.151 83.2123 263.602 83.0014C264.059 82.7846 264.569 82.6762 265.131 82.6762C265.577 82.6762 265.984 82.7407 266.353 82.8696C266.722 82.9985 267.039 83.2036 267.302 83.4848C267.572 83.7661 267.777 84.1381 267.918 84.601C268.064 85.0639 268.137 85.6293 268.137 86.2973V92.3618H265.588V86.2885C265.588 85.8666 265.53 85.5385 265.413 85.3041C265.295 85.0698 265.123 84.9057 264.894 84.812C264.671 84.7123 264.396 84.6625 264.068 84.6625C263.728 84.6625 263.432 84.7299 263.18 84.8647C262.934 84.9995 262.729 85.187 262.565 85.4272C262.407 85.6616 262.287 85.937 262.205 86.2534C262.123 86.5698 262.082 86.9096 262.082 87.2729ZM269.658 87.7036V87.519C269.658 86.8217 269.757 86.1801 269.957 85.5942C270.156 85.0024 270.446 84.4897 270.827 84.0561C271.208 83.6225 271.676 83.2856 272.233 83.0453C272.79 82.7993 273.428 82.6762 274.149 82.6762C274.87 82.6762 275.511 82.7993 276.074 83.0453C276.636 83.2856 277.108 83.6225 277.489 84.0561C277.876 84.4897 278.168 85.0024 278.368 85.5942C278.567 86.1801 278.667 86.8217 278.667 87.519V87.7036C278.667 88.395 278.567 89.0366 278.368 89.6284C278.168 90.2143 277.876 90.727 277.489 91.1664C277.108 91.6 276.639 91.937 276.083 92.1772C275.526 92.4174 274.887 92.5375 274.167 92.5375C273.446 92.5375 272.804 92.4174 272.242 92.1772C271.685 91.937 271.213 91.6 270.827 91.1664C270.446 90.727 270.156 90.2143 269.957 89.6284C269.757 89.0366 269.658 88.395 269.658 87.7036ZM272.189 87.519V87.7036C272.189 88.102 272.224 88.4741 272.294 88.8198C272.365 89.1655 272.476 89.4702 272.628 89.7338C272.787 89.9916 272.992 90.1938 273.244 90.3403C273.496 90.4868 273.803 90.56 274.167 90.56C274.518 90.56 274.82 90.4868 275.072 90.3403C275.324 90.1938 275.526 89.9916 275.678 89.7338C275.831 89.4702 275.942 89.1655 276.012 88.8198C276.088 88.4741 276.126 88.102 276.126 87.7036V87.519C276.126 87.1323 276.088 86.769 276.012 86.4291C275.942 86.0834 275.828 85.7787 275.669 85.5151C275.517 85.2455 275.315 85.0346 275.063 84.8823C274.811 84.7299 274.506 84.6537 274.149 84.6537C273.792 84.6537 273.487 84.7299 273.235 84.8823C272.989 85.0346 272.787 85.2455 272.628 85.5151C272.476 85.7787 272.365 86.0834 272.294 86.4291C272.224 86.769 272.189 87.1323 272.189 87.519ZM282.938 89.9008L284.916 82.852H286.524L286.005 85.6205L284.028 92.3618H282.683L282.938 89.9008ZM281.936 82.852L283.351 89.892L283.483 92.3618H281.901L279.493 82.852H281.936ZM288.335 89.7778L289.714 82.852H292.167L289.758 92.3618H288.185L288.335 89.7778ZM286.744 82.852L288.712 89.8481L288.985 92.3618H287.631L285.654 85.6293L285.153 82.852H286.744ZM302.582 82.852V84.645H297.044V82.852H302.582ZM298.416 80.5053H300.947V89.4965C300.947 89.7719 300.982 89.9828 301.052 90.1293C301.128 90.2758 301.24 90.3784 301.386 90.437C301.533 90.4897 301.717 90.5161 301.94 90.5161C302.098 90.5161 302.239 90.5102 302.362 90.4985C302.491 90.4809 302.599 90.4633 302.687 90.4457L302.696 92.309C302.479 92.3793 302.245 92.435 301.993 92.476C301.741 92.517 301.462 92.5375 301.158 92.5375C300.601 92.5375 300.115 92.4467 299.699 92.2651C299.289 92.0776 298.972 91.7787 298.75 91.3686C298.527 90.9584 298.416 90.4194 298.416 89.7514V80.5053ZM303.39 87.7036V87.519C303.39 86.8217 303.49 86.1801 303.689 85.5942C303.888 85.0024 304.178 84.4897 304.559 84.0561C304.94 83.6225 305.409 83.2856 305.965 83.0453C306.522 82.7993 307.161 82.6762 307.881 82.6762C308.602 82.6762 309.244 82.7993 309.806 83.0453C310.369 83.2856 310.84 83.6225 311.221 84.0561C311.608 84.4897 311.901 85.0024 312.1 85.5942C312.299 86.1801 312.399 86.8217 312.399 87.519V87.7036C312.399 88.395 312.299 89.0366 312.1 89.6284C311.901 90.2143 311.608 90.727 311.221 91.1664C310.84 91.6 310.372 91.937 309.815 92.1772C309.258 92.4174 308.62 92.5375 307.899 92.5375C307.178 92.5375 306.537 92.4174 305.974 92.1772C305.418 91.937 304.946 91.6 304.559 91.1664C304.178 90.727 303.888 90.2143 303.689 89.6284C303.49 89.0366 303.39 88.395 303.39 87.7036ZM305.921 87.519V87.7036C305.921 88.102 305.957 88.4741 306.027 88.8198C306.097 89.1655 306.209 89.4702 306.361 89.7338C306.519 89.9916 306.724 90.1938 306.976 90.3403C307.228 90.4868 307.536 90.56 307.899 90.56C308.251 90.56 308.552 90.4868 308.804 90.3403C309.056 90.1938 309.258 89.9916 309.411 89.7338C309.563 89.4702 309.674 89.1655 309.745 88.8198C309.821 88.4741 309.859 88.102 309.859 87.7036V87.519C309.859 87.1323 309.821 86.769 309.745 86.4291C309.674 86.0834 309.56 85.7787 309.402 85.5151C309.25 85.2455 309.047 85.0346 308.795 84.8823C308.543 84.7299 308.239 84.6537 307.881 84.6537C307.524 84.6537 307.219 84.7299 306.967 84.8823C306.721 85.0346 306.519 85.2455 306.361 85.5151C306.209 85.7787 306.097 86.0834 306.027 86.4291C305.957 86.769 305.921 87.1323 305.921 87.519ZM123.443 99.8618V113.362H120.903V99.8618H123.443ZM129.912 113.538C129.173 113.538 128.511 113.42 127.925 113.186C127.339 112.946 126.841 112.615 126.431 112.193C126.027 111.771 125.716 111.282 125.5 110.725C125.283 110.163 125.174 109.565 125.174 108.932V108.581C125.174 107.86 125.277 107.201 125.482 106.603C125.687 106.005 125.98 105.487 126.361 105.047C126.748 104.608 127.216 104.271 127.767 104.037C128.318 103.796 128.939 103.676 129.63 103.676C130.304 103.676 130.902 103.788 131.423 104.01C131.945 104.233 132.381 104.549 132.733 104.959C133.09 105.37 133.36 105.862 133.542 106.436C133.723 107.004 133.814 107.637 133.814 108.334V109.389H126.255V107.702H131.327V107.508C131.327 107.157 131.262 106.843 131.133 106.568C131.01 106.287 130.823 106.064 130.571 105.9C130.319 105.736 129.997 105.654 129.604 105.654C129.27 105.654 128.983 105.727 128.743 105.873C128.502 106.02 128.306 106.225 128.154 106.489C128.007 106.752 127.896 107.063 127.82 107.42C127.75 107.772 127.714 108.159 127.714 108.581V108.932C127.714 109.313 127.767 109.664 127.873 109.987C127.984 110.309 128.139 110.587 128.338 110.822C128.543 111.056 128.79 111.238 129.077 111.367C129.37 111.496 129.701 111.56 130.07 111.56C130.527 111.56 130.952 111.472 131.344 111.296C131.743 111.115 132.085 110.842 132.373 110.479L133.603 111.815C133.404 112.102 133.131 112.377 132.786 112.641C132.446 112.905 132.036 113.122 131.555 113.291C131.075 113.456 130.527 113.538 129.912 113.538ZM140.388 111.217V106.981C140.388 106.676 140.338 106.415 140.239 106.199C140.139 105.976 139.984 105.803 139.773 105.68C139.568 105.557 139.301 105.496 138.973 105.496C138.692 105.496 138.449 105.545 138.244 105.645C138.039 105.739 137.88 105.876 137.769 106.058C137.658 106.234 137.602 106.442 137.602 106.682H135.071C135.071 106.278 135.165 105.894 135.352 105.531C135.54 105.167 135.812 104.848 136.169 104.573C136.527 104.291 136.952 104.072 137.444 103.914C137.942 103.755 138.499 103.676 139.114 103.676C139.852 103.676 140.508 103.799 141.083 104.045C141.657 104.291 142.108 104.661 142.436 105.153C142.77 105.645 142.937 106.26 142.937 106.998V111.068C142.937 111.589 142.969 112.017 143.034 112.351C143.098 112.679 143.192 112.966 143.315 113.212V113.362H140.757C140.634 113.104 140.541 112.782 140.476 112.395C140.418 112.002 140.388 111.61 140.388 111.217ZM140.722 107.57L140.74 109.002H139.325C138.991 109.002 138.701 109.04 138.455 109.117C138.209 109.193 138.006 109.301 137.848 109.442C137.69 109.577 137.573 109.735 137.497 109.916C137.426 110.098 137.391 110.297 137.391 110.514C137.391 110.731 137.441 110.927 137.541 111.103C137.64 111.273 137.784 111.408 137.971 111.507C138.159 111.601 138.378 111.648 138.63 111.648C139.011 111.648 139.342 111.572 139.624 111.419C139.905 111.267 140.122 111.08 140.274 110.857C140.432 110.634 140.514 110.423 140.52 110.224L141.188 111.296C141.094 111.537 140.965 111.786 140.801 112.043C140.643 112.301 140.441 112.544 140.195 112.773C139.949 112.996 139.653 113.18 139.307 113.327C138.961 113.467 138.551 113.538 138.077 113.538C137.473 113.538 136.925 113.417 136.433 113.177C135.947 112.931 135.56 112.594 135.273 112.166C134.992 111.733 134.851 111.241 134.851 110.69C134.851 110.192 134.945 109.749 135.132 109.363C135.32 108.976 135.595 108.651 135.959 108.387C136.328 108.118 136.788 107.915 137.338 107.781C137.889 107.64 138.528 107.57 139.254 107.57H140.722ZM147.419 105.926V113.362H144.888V103.852H147.27L147.419 105.926ZM150.285 103.79L150.241 106.137C150.118 106.12 149.968 106.105 149.793 106.093C149.623 106.076 149.467 106.067 149.327 106.067C148.969 106.067 148.659 106.114 148.395 106.207C148.137 106.295 147.92 106.427 147.745 106.603C147.575 106.779 147.446 106.993 147.358 107.245C147.276 107.497 147.229 107.784 147.217 108.106L146.708 107.948C146.708 107.332 146.769 106.767 146.892 106.251C147.015 105.73 147.194 105.276 147.428 104.889C147.668 104.502 147.961 104.204 148.307 103.993C148.653 103.782 149.048 103.676 149.494 103.676C149.634 103.676 149.778 103.688 149.924 103.711C150.071 103.729 150.191 103.755 150.285 103.79ZM153.959 105.882V113.362H151.427V103.852H153.8L153.959 105.882ZM153.589 108.273H152.904C152.904 107.57 152.995 106.937 153.176 106.374C153.358 105.806 153.613 105.323 153.941 104.924C154.269 104.52 154.659 104.212 155.11 104.001C155.567 103.785 156.077 103.676 156.639 103.676C157.085 103.676 157.492 103.741 157.861 103.87C158.23 103.998 158.546 104.204 158.81 104.485C159.08 104.766 159.285 105.138 159.425 105.601C159.572 106.064 159.645 106.629 159.645 107.297V113.362H157.096V107.289C157.096 106.867 157.038 106.539 156.92 106.304C156.803 106.07 156.63 105.906 156.402 105.812C156.179 105.712 155.904 105.663 155.576 105.663C155.236 105.663 154.94 105.73 154.688 105.865C154.442 105.999 154.237 106.187 154.073 106.427C153.915 106.662 153.794 106.937 153.712 107.253C153.63 107.57 153.589 107.91 153.589 108.273ZM168.768 110.901L170.746 103.852H172.354L171.835 106.621L169.858 113.362H168.513L168.768 110.901ZM167.766 103.852L169.181 110.892L169.313 113.362H167.731L165.323 103.852H167.766ZM174.165 110.778L175.544 103.852H177.997L175.588 113.362H174.015L174.165 110.778ZM172.574 103.852L174.543 110.848L174.815 113.362H173.461L171.484 106.629L170.983 103.852H172.574ZM181.741 99.8618V113.362H179.21V99.8618H181.741ZM181.38 108.273H180.686C180.692 107.611 180.78 107.001 180.95 106.445C181.12 105.882 181.363 105.396 181.679 104.986C181.996 104.57 182.374 104.247 182.813 104.019C183.258 103.79 183.751 103.676 184.29 103.676C184.758 103.676 185.183 103.744 185.564 103.878C185.951 104.007 186.282 104.218 186.557 104.511C186.838 104.798 187.055 105.176 187.208 105.645C187.36 106.114 187.436 106.682 187.436 107.35V113.362H184.887V107.332C184.887 106.911 184.826 106.58 184.703 106.339C184.585 106.093 184.413 105.92 184.184 105.821C183.961 105.715 183.686 105.663 183.358 105.663C182.995 105.663 182.684 105.73 182.426 105.865C182.174 105.999 181.972 106.187 181.82 106.427C181.668 106.662 181.556 106.937 181.486 107.253C181.416 107.57 181.38 107.91 181.38 108.273ZM194.494 111.217V106.981C194.494 106.676 194.444 106.415 194.344 106.199C194.245 105.976 194.089 105.803 193.878 105.68C193.673 105.557 193.407 105.496 193.079 105.496C192.797 105.496 192.554 105.545 192.349 105.645C192.144 105.739 191.986 105.876 191.875 106.058C191.763 106.234 191.708 106.442 191.708 106.682H189.176C189.176 106.278 189.27 105.894 189.458 105.531C189.645 105.167 189.918 104.848 190.275 104.573C190.632 104.291 191.057 104.072 191.549 103.914C192.047 103.755 192.604 103.676 193.219 103.676C193.958 103.676 194.614 103.799 195.188 104.045C195.762 104.291 196.213 104.661 196.542 105.153C196.876 105.645 197.043 106.26 197.043 106.998V111.068C197.043 111.589 197.075 112.017 197.139 112.351C197.204 112.679 197.297 112.966 197.42 113.212V113.362H194.863C194.74 113.104 194.646 112.782 194.582 112.395C194.523 112.002 194.494 111.61 194.494 111.217ZM194.828 107.57L194.845 109.002H193.43C193.096 109.002 192.806 109.04 192.56 109.117C192.314 109.193 192.112 109.301 191.954 109.442C191.795 109.577 191.678 109.735 191.602 109.916C191.532 110.098 191.497 110.297 191.497 110.514C191.497 110.731 191.546 110.927 191.646 111.103C191.746 111.273 191.889 111.408 192.077 111.507C192.264 111.601 192.484 111.648 192.736 111.648C193.117 111.648 193.448 111.572 193.729 111.419C194.01 111.267 194.227 111.08 194.379 110.857C194.538 110.634 194.62 110.423 194.626 110.224L195.293 111.296C195.2 111.537 195.071 111.786 194.907 112.043C194.749 112.301 194.546 112.544 194.3 112.773C194.054 112.996 193.758 113.18 193.413 113.327C193.067 113.467 192.657 113.538 192.182 113.538C191.579 113.538 191.031 113.417 190.539 113.177C190.052 112.931 189.666 112.594 189.378 112.166C189.097 111.733 188.957 111.241 188.957 110.69C188.957 110.192 189.05 109.749 189.238 109.363C189.425 108.976 189.701 108.651 190.064 108.387C190.433 108.118 190.893 107.915 191.444 107.781C191.995 107.64 192.633 107.57 193.36 107.57H194.828ZM203.652 103.852V105.645H198.115V103.852H203.652ZM199.486 101.505H202.017V110.497C202.017 110.772 202.052 110.983 202.123 111.129C202.199 111.276 202.31 111.378 202.457 111.437C202.603 111.49 202.788 111.516 203.01 111.516C203.168 111.516 203.309 111.51 203.432 111.498C203.561 111.481 203.669 111.463 203.757 111.446L203.766 113.309C203.549 113.379 203.315 113.435 203.063 113.476C202.811 113.517 202.533 113.538 202.228 113.538C201.671 113.538 201.185 113.447 200.769 113.265C200.359 113.078 200.043 112.779 199.82 112.369C199.597 111.958 199.486 111.419 199.486 110.751V101.505ZM212.538 100.565V113.362H209.91V100.565H212.538ZM217.161 99.8618V101.198C217.161 101.579 217.087 101.971 216.941 102.375C216.8 102.78 216.61 103.164 216.37 103.527C216.129 103.884 215.866 104.189 215.579 104.441L214.392 103.755C214.609 103.41 214.793 103.035 214.946 102.63C215.098 102.22 215.174 101.746 215.174 101.206V99.8618H217.161ZM221.335 105.821V113.362H218.795V103.852H221.177L221.335 105.821ZM220.984 108.273H220.281C220.281 107.611 220.36 107.001 220.518 106.445C220.682 105.882 220.919 105.396 221.23 104.986C221.546 104.57 221.936 104.247 222.399 104.019C222.862 103.79 223.398 103.676 224.007 103.676C224.429 103.676 224.816 103.741 225.168 103.87C225.519 103.993 225.821 104.189 226.073 104.458C226.331 104.722 226.53 105.068 226.67 105.496C226.811 105.917 226.881 106.424 226.881 107.016V113.362H224.35V107.297C224.35 106.864 224.292 106.53 224.174 106.295C224.057 106.061 223.89 105.897 223.673 105.803C223.462 105.709 223.208 105.663 222.909 105.663C222.581 105.663 222.293 105.73 222.047 105.865C221.807 105.999 221.608 106.187 221.45 106.427C221.292 106.662 221.174 106.937 221.098 107.253C221.022 107.57 220.984 107.91 220.984 108.273ZM226.644 107.983L225.739 108.097C225.739 107.476 225.815 106.899 225.967 106.366C226.126 105.832 226.357 105.364 226.662 104.959C226.972 104.555 227.356 104.242 227.813 104.019C228.27 103.79 228.797 103.676 229.395 103.676C229.852 103.676 230.268 103.744 230.643 103.878C231.018 104.007 231.337 104.215 231.601 104.502C231.871 104.784 232.076 105.153 232.216 105.61C232.363 106.067 232.436 106.626 232.436 107.289V113.362H229.896V107.289C229.896 106.849 229.837 106.515 229.72 106.287C229.609 106.052 229.445 105.891 229.228 105.803C229.017 105.709 228.765 105.663 228.472 105.663C228.168 105.663 227.901 105.724 227.672 105.847C227.444 105.964 227.253 106.128 227.101 106.339C226.949 106.55 226.835 106.796 226.758 107.078C226.682 107.353 226.644 107.655 226.644 107.983ZM244.02 110.734C244.02 110.552 243.967 110.388 243.862 110.242C243.756 110.095 243.56 109.96 243.273 109.837C242.992 109.708 242.585 109.591 242.051 109.486C241.571 109.38 241.123 109.248 240.707 109.09C240.296 108.926 239.939 108.73 239.634 108.501C239.335 108.273 239.101 108.003 238.931 107.693C238.761 107.376 238.676 107.016 238.676 106.612C238.676 106.213 238.761 105.838 238.931 105.487C239.107 105.135 239.356 104.825 239.678 104.555C240.006 104.28 240.405 104.066 240.874 103.914C241.348 103.755 241.881 103.676 242.473 103.676C243.299 103.676 244.008 103.808 244.6 104.072C245.198 104.335 245.655 104.699 245.971 105.162C246.293 105.619 246.455 106.14 246.455 106.726H243.923C243.923 106.48 243.871 106.26 243.765 106.067C243.666 105.868 243.507 105.712 243.291 105.601C243.08 105.484 242.804 105.425 242.464 105.425C242.183 105.425 241.94 105.475 241.735 105.575C241.53 105.668 241.372 105.797 241.26 105.961C241.155 106.12 241.102 106.295 241.102 106.489C241.102 106.635 241.131 106.767 241.19 106.884C241.254 106.996 241.357 107.098 241.498 107.192C241.638 107.286 241.82 107.373 242.043 107.456C242.271 107.532 242.552 107.602 242.886 107.666C243.572 107.807 244.184 107.992 244.723 108.22C245.262 108.443 245.69 108.747 246.006 109.134C246.323 109.515 246.481 110.016 246.481 110.637C246.481 111.059 246.387 111.446 246.2 111.797C246.012 112.149 245.743 112.456 245.391 112.72C245.04 112.978 244.618 113.18 244.126 113.327C243.639 113.467 243.091 113.538 242.482 113.538C241.597 113.538 240.847 113.379 240.232 113.063C239.623 112.747 239.16 112.345 238.843 111.859C238.533 111.367 238.377 110.863 238.377 110.347H240.777C240.789 110.693 240.876 110.971 241.041 111.182C241.21 111.393 241.424 111.545 241.682 111.639C241.946 111.733 242.23 111.78 242.535 111.78C242.863 111.78 243.135 111.736 243.352 111.648C243.569 111.554 243.733 111.431 243.844 111.279C243.961 111.121 244.02 110.939 244.02 110.734ZM250.594 99.8618V113.362H248.063V99.8618H250.594ZM250.234 108.273H249.54C249.545 107.611 249.633 107.001 249.803 106.445C249.973 105.882 250.216 105.396 250.533 104.986C250.849 104.57 251.227 104.247 251.667 104.019C252.112 103.79 252.604 103.676 253.143 103.676C253.612 103.676 254.037 103.744 254.418 103.878C254.804 104.007 255.135 104.218 255.411 104.511C255.692 104.798 255.909 105.176 256.061 105.645C256.213 106.114 256.29 106.682 256.29 107.35V113.362H253.741V107.332C253.741 106.911 253.679 106.58 253.556 106.339C253.439 106.093 253.266 105.92 253.038 105.821C252.815 105.715 252.54 105.663 252.211 105.663C251.848 105.663 251.538 105.73 251.28 105.865C251.028 105.999 250.826 106.187 250.673 106.427C250.521 106.662 250.41 106.937 250.339 107.253C250.269 107.57 250.234 107.91 250.234 108.273ZM263.347 111.217V106.981C263.347 106.676 263.297 106.415 263.198 106.199C263.098 105.976 262.943 105.803 262.732 105.68C262.527 105.557 262.26 105.496 261.932 105.496C261.651 105.496 261.408 105.545 261.203 105.645C260.998 105.739 260.839 105.876 260.728 106.058C260.617 106.234 260.561 106.442 260.561 106.682H258.03C258.03 106.278 258.124 105.894 258.311 105.531C258.499 105.167 258.771 104.848 259.128 104.573C259.486 104.291 259.911 104.072 260.403 103.914C260.901 103.755 261.458 103.676 262.073 103.676C262.811 103.676 263.467 103.799 264.042 104.045C264.616 104.291 265.067 104.661 265.395 105.153C265.729 105.645 265.896 106.26 265.896 106.998V111.068C265.896 111.589 265.928 112.017 265.993 112.351C266.057 112.679 266.151 112.966 266.274 113.212V113.362H263.716C263.593 113.104 263.5 112.782 263.435 112.395C263.376 112.002 263.347 111.61 263.347 111.217ZM263.681 107.57L263.699 109.002H262.284C261.95 109.002 261.66 109.04 261.414 109.117C261.168 109.193 260.965 109.301 260.807 109.442C260.649 109.577 260.532 109.735 260.456 109.916C260.385 110.098 260.35 110.297 260.35 110.514C260.35 110.731 260.4 110.927 260.5 111.103C260.599 111.273 260.743 111.408 260.93 111.507C261.118 111.601 261.337 111.648 261.589 111.648C261.97 111.648 262.301 111.572 262.583 111.419C262.864 111.267 263.081 111.08 263.233 110.857C263.391 110.634 263.473 110.423 263.479 110.224L264.147 111.296C264.053 111.537 263.924 111.786 263.76 112.043C263.602 112.301 263.4 112.544 263.154 112.773C262.908 112.996 262.612 113.18 262.266 113.327C261.92 113.467 261.51 113.538 261.036 113.538C260.432 113.538 259.884 113.417 259.392 113.177C258.906 112.931 258.519 112.594 258.232 112.166C257.951 111.733 257.81 111.241 257.81 110.69C257.81 110.192 257.904 109.749 258.091 109.363C258.279 108.976 258.554 108.651 258.918 108.387C259.287 108.118 259.747 107.915 260.297 107.781C260.848 107.64 261.487 107.57 262.213 107.57H263.681ZM270.378 105.926V113.362H267.847V103.852H270.229L270.378 105.926ZM273.244 103.79L273.2 106.137C273.077 106.12 272.927 106.105 272.751 106.093C272.582 106.076 272.426 106.067 272.286 106.067C271.928 106.067 271.618 106.114 271.354 106.207C271.096 106.295 270.879 106.427 270.704 106.603C270.534 106.779 270.405 106.993 270.317 107.245C270.235 107.497 270.188 107.784 270.176 108.106L269.667 107.948C269.667 107.332 269.728 106.767 269.851 106.251C269.974 105.73 270.153 105.276 270.387 104.889C270.627 104.502 270.92 104.204 271.266 103.993C271.612 103.782 272.007 103.676 272.453 103.676C272.593 103.676 272.737 103.688 272.883 103.711C273.03 103.729 273.15 103.755 273.244 103.79ZM277.111 103.852V113.362H274.571V103.852H277.111ZM274.413 101.373C274.413 101.004 274.542 100.7 274.799 100.459C275.057 100.219 275.403 100.099 275.836 100.099C276.264 100.099 276.607 100.219 276.865 100.459C277.128 100.7 277.26 101.004 277.26 101.373C277.26 101.743 277.128 102.047 276.865 102.288C276.607 102.528 276.264 102.648 275.836 102.648C275.403 102.648 275.057 102.528 274.799 102.288C274.542 102.047 274.413 101.743 274.413 101.373ZM281.681 105.882V113.362H279.15V103.852H281.523L281.681 105.882ZM281.312 108.273H280.626C280.626 107.57 280.717 106.937 280.899 106.374C281.081 105.806 281.335 105.323 281.664 104.924C281.992 104.52 282.381 104.212 282.833 104.001C283.29 103.785 283.799 103.676 284.362 103.676C284.807 103.676 285.214 103.741 285.584 103.87C285.953 103.998 286.269 104.204 286.533 104.485C286.802 104.766 287.007 105.138 287.148 105.601C287.294 106.064 287.368 106.629 287.368 107.297V113.362H284.819V107.289C284.819 106.867 284.76 106.539 284.643 106.304C284.526 106.07 284.353 105.906 284.125 105.812C283.902 105.712 283.626 105.663 283.298 105.663C282.959 105.663 282.663 105.73 282.411 105.865C282.165 105.999 281.96 106.187 281.795 106.427C281.637 106.662 281.517 106.937 281.435 107.253C281.353 107.57 281.312 107.91 281.312 108.273ZM295.313 103.852H297.607V113.045C297.607 113.913 297.414 114.648 297.027 115.251C296.646 115.861 296.113 116.321 295.427 116.631C294.742 116.948 293.945 117.106 293.037 117.106C292.638 117.106 292.216 117.053 291.771 116.948C291.332 116.842 290.91 116.678 290.505 116.456C290.107 116.233 289.773 115.952 289.503 115.612L290.62 114.118C290.913 114.457 291.252 114.721 291.639 114.909C292.026 115.102 292.454 115.199 292.922 115.199C293.379 115.199 293.766 115.114 294.083 114.944C294.399 114.78 294.642 114.537 294.812 114.214C294.982 113.898 295.067 113.514 295.067 113.063V106.049L295.313 103.852ZM288.915 108.721V108.537C288.915 107.81 289.002 107.151 289.178 106.559C289.36 105.961 289.615 105.449 289.943 105.021C290.277 104.593 290.681 104.262 291.156 104.028C291.63 103.793 292.167 103.676 292.764 103.676C293.397 103.676 293.927 103.793 294.355 104.028C294.783 104.262 295.134 104.596 295.41 105.03C295.685 105.457 295.899 105.964 296.051 106.55C296.21 107.13 296.333 107.766 296.42 108.457V108.862C296.333 109.524 296.201 110.139 296.025 110.707C295.849 111.276 295.618 111.774 295.331 112.202C295.043 112.623 294.686 112.952 294.258 113.186C293.836 113.42 293.333 113.538 292.747 113.538C292.161 113.538 291.63 113.417 291.156 113.177C290.687 112.937 290.286 112.6 289.952 112.166C289.618 111.733 289.36 111.223 289.178 110.637C289.002 110.051 288.915 109.413 288.915 108.721ZM291.446 108.537V108.721C291.446 109.114 291.484 109.48 291.56 109.82C291.636 110.16 291.753 110.461 291.912 110.725C292.076 110.983 292.278 111.185 292.518 111.331C292.764 111.472 293.054 111.542 293.388 111.542C293.851 111.542 294.229 111.446 294.522 111.252C294.815 111.053 295.035 110.781 295.181 110.435C295.328 110.089 295.413 109.691 295.436 109.24V108.088C295.424 107.719 295.375 107.388 295.287 107.095C295.199 106.796 295.076 106.541 294.918 106.331C294.759 106.12 294.554 105.956 294.302 105.838C294.05 105.721 293.751 105.663 293.406 105.663C293.072 105.663 292.782 105.739 292.536 105.891C292.295 106.038 292.093 106.24 291.929 106.497C291.771 106.755 291.651 107.06 291.569 107.412C291.487 107.757 291.446 108.132 291.446 108.537ZM303.891 109.451H301.65C301.656 108.923 301.697 108.469 301.773 108.088C301.855 107.702 301.993 107.353 302.186 107.042C302.385 106.732 302.649 106.424 302.977 106.12C303.252 105.873 303.493 105.639 303.698 105.416C303.903 105.194 304.064 104.965 304.181 104.731C304.298 104.491 304.357 104.224 304.357 103.931C304.357 103.591 304.304 103.31 304.199 103.087C304.099 102.859 303.947 102.686 303.742 102.569C303.543 102.452 303.291 102.393 302.986 102.393C302.734 102.393 302.5 102.449 302.283 102.56C302.066 102.665 301.887 102.83 301.747 103.052C301.612 103.275 301.542 103.568 301.536 103.931H298.987C299.004 103.128 299.189 102.466 299.541 101.945C299.898 101.417 300.376 101.028 300.973 100.776C301.571 100.518 302.242 100.389 302.986 100.389C303.806 100.389 304.509 100.524 305.095 100.793C305.681 101.057 306.129 101.447 306.44 101.962C306.751 102.472 306.906 103.093 306.906 103.826C306.906 104.335 306.806 104.789 306.607 105.188C306.408 105.581 306.147 105.947 305.825 106.287C305.502 106.626 305.148 106.978 304.761 107.341C304.427 107.64 304.199 107.954 304.076 108.282C303.959 108.61 303.897 108.999 303.891 109.451ZM301.386 112.166C301.386 111.791 301.515 111.481 301.773 111.235C302.031 110.983 302.376 110.857 302.81 110.857C303.238 110.857 303.581 110.983 303.838 111.235C304.102 111.481 304.234 111.791 304.234 112.166C304.234 112.53 304.102 112.837 303.838 113.089C303.581 113.341 303.238 113.467 302.81 113.467C302.376 113.467 302.031 113.341 301.773 113.089C301.515 112.837 301.386 112.53 301.386 112.166Z" fill="black"/>
<circle cx="86.4429" cy="160.587" r="10.4575" fill="#00ADFF" stroke="#00ADFF"/>
<circle cx="76.7028" cy="177.632" r="5.58751" fill="#00ADFF" stroke="#00ADFF"/>
<path d="M72.5492 187.981C72.5492 190.133 71.0682 191.742 69.3966 191.742C67.7251 191.742 66.2441 190.133 66.2441 187.981C66.2441 185.828 67.7251 184.22 69.3966 184.22C71.0682 184.22 72.5492 185.828 72.5492 187.981Z" fill="#00ADFF" stroke="#00ADFF"/>
<path d="M331.754 150.351C331.754 156.483 337.211 161.53 344.039 161.53C350.867 161.53 356.323 156.483 356.323 150.351C356.323 144.218 350.867 139.172 344.039 139.172C337.211 139.172 331.754 144.218 331.754 150.351Z" fill="#00ADFF" stroke="black"/>
<path d="M348.188 168.704C348.188 172.072 351.191 174.877 354.993 174.877C358.795 174.877 361.799 172.072 361.799 168.704C361.799 165.336 358.795 162.53 354.993 162.53C351.191 162.53 348.188 165.336 348.188 168.704Z" fill="#00ADFF" stroke="black"/>
<path d="M359.148 179.548C359.148 181.534 360.924 183.22 363.213 183.22C365.502 183.22 367.279 181.534 367.279 179.548C367.279 177.563 365.502 175.877 363.213 175.877C360.924 175.877 359.148 177.563 359.148 179.548Z" fill="#00ADFF" stroke="black"/>
<path d="M130.134 197.503L120.953 193.252L124.679 206.42L130.134 197.503Z" fill="#00B84C"/>
<rect x="84.2275" y="207.451" width="40.1776" height="4.87001" transform="rotate(-14.437 84.2275 207.451)" fill="#00B84C"/>
<path d="M5.10632 370.622L8.085 366.031L13.1913 368.837L8.085 373.513L5.10632 370.622Z" fill="#E3A871"/>
<path d="M46.2973 383.972V375.809L51.9993 374.789V383.972H46.2973Z" fill="#E3A871"/>
<path d="M17.6168 372.578L5.53184 364.5L31.5741 322.58L41.1058 293.924L47.4887 332.528L17.6168 372.578Z" fill="#CB4646"/>
<path d="M61.2758 287.972L38.042 280.83C34.8421 282.326 34.9499 287.972 35.4038 290.608L42.042 376.574H56.5099L61.2758 287.972Z" fill="#FF5656"/>
<path d="M39.7442 271.476L41.7867 249.538V231.852L61.2758 230.661L70.297 247.668L71.4033 257.021L63.4885 289.928L33.1911 280.575L39.7442 271.476Z" fill="#FDBF00"/>
<path d="M61.7013 247.327L65.8715 237.804C81.9394 239.573 88.5095 233.382 89.7861 230.066L96.5945 209.829C96.2824 209.29 95.6583 208.162 95.6583 207.958C93.82 204.353 95.8569 201.524 97.1051 200.56C97.7009 200.901 99.1647 201.751 100.254 202.431C101.275 202.771 101.871 203.877 101.701 205.662C103.148 207.108 101.531 209.829 100.254 211.359C99.4881 221.988 95.7434 234.403 93.7009 240.78C87.1648 246.97 69.6445 247.724 61.7013 247.327Z" fill="#E3A871"/>
<path d="M75.8288 206.258C75.6926 201.972 72.3678 198.803 70.7225 197.754L57.1907 204.557C58.1553 209.007 60.1013 218.468 60.1694 220.713C60.2545 223.519 69.1906 220.798 72.6799 220.033C80.6798 218.162 77.4458 210.424 77.5309 208.553C80.0841 205.747 76.6798 206.172 75.8288 206.258Z" fill="#E3A871"/>
<path d="M75.999 213.23C76.816 213.094 77.6444 212.38 77.9564 212.04V212.805L77.3607 213.23H77.9564V214.644C78.0238 214.738 78.0314 214.808 77.9564 214.846V214.644C77.7178 214.313 76.729 213.694 75.999 213.23Z" fill="#910808"/>
<path d="M47.2334 204.217C53.429 190.136 66.0416 193.928 71.5735 197.584L61.1056 207.533C62.2687 209.687 65.0204 214.931 66.7225 218.672C67.9991 221.818 64.5949 225.985 61.7864 227.515C61.0205 229.046 61.7864 229.981 64.5949 232.277C67.8289 234.063 67.7438 238.569 65.446 244.096C61.7864 251.239 58.0418 248.263 57.2758 248.263C51.9993 242.396 49.4462 244.436 48.8504 244.691C37.8718 254.555 30.1273 249.368 29.0209 248.263C22.3827 238.994 28.4252 233.382 30.1273 232.277C37.191 228.621 35.0633 224.369 34.9782 223.094C23.9996 204.897 45.1058 204.132 47.2334 204.217Z" fill="#040404"/>
<path d="M73.1486 206.634C73.3563 207.157 73.2768 207.68 72.9709 207.801C72.665 207.922 72.2486 207.596 72.0409 207.072C71.8332 206.548 71.9128 206.025 72.2187 205.904C72.5245 205.783 72.9409 206.11 73.1486 206.634Z" fill="#040404"/>
<path d="M10.1275 373.428C6.51906 372.34 5.16305 369.914 4.93611 368.837L0 374.789C3.71626 377.453 11.7105 383.224 13.9573 384.993C16.204 386.149 16.2551 384.851 15.9998 384.057C15.2338 382.923 12.9871 379.21 10.1275 373.428Z" fill="#FF5656"/>
<path d="M52.539 382.998C49.0104 384.323 46.4586 383.217 45.6237 382.499L45.3186 390.223C49.8906 390.086 59.7495 389.822 62.6095 389.864C65.0975 389.42 64.3492 388.357 63.6641 387.882C62.3665 387.445 58.3249 385.858 52.539 382.998Z" fill="#FF5656"/>
<path d="M377.608 361.153C376.248 357.087 374.152 332.862 373.274 321.257C374.719 321.257 380.429 321.765 391.713 323.798C387.159 331.727 388.456 368.777 389.674 386.311H382.706C381.686 380.861 379.239 368.201 377.608 361.153Z" fill="#2F2E41"/>
<path d="M369.365 320.241L353.136 317.869C350.553 320.444 350.473 336.843 350.756 344.721L351.946 381.228C353.192 381.285 356.297 381.364 358.744 381.228C359.152 363.542 365.995 333.201 369.365 320.241Z" fill="#2F2E41"/>
<path d="M310.565 226.388C307.03 227.472 310.678 231.131 312.944 232.825C314.558 239.263 317.617 243.329 319.147 246.293C321.638 251.121 334.555 256.797 340.22 257.898C340.333 254.34 340.271 247.31 339.115 247.649C327.389 249.512 317.447 234.096 316.598 232.232C316.258 231.639 316.258 228.759 316.598 226.896C316.937 225.032 313.963 224.355 311.669 223.846C309.8 222.661 308.695 219.696 308.27 219.865C307.081 220.543 310.65 224.693 310.565 226.388Z" fill="#FFE8B3"/>
<path d="M404.884 282.971C409.642 279.853 406.867 269.926 404.884 265.352C405.677 264.9 408.81 263.454 414.996 261.286C420.434 268.401 418.734 286.189 417.885 286.359C414.078 291.577 397.038 297.173 388.994 299.319V291.272C392.308 289.803 400.125 286.088 404.884 282.971Z" fill="#FFE8B3"/>
<path d="M359.254 213.174C359.933 207.888 362.766 204.703 364.097 203.771L365.967 201.823L384.406 216.816L376.418 231.809V238.67L370.215 239.432C370.357 238.811 370.708 236.823 370.98 233.842C371.49 229.013 365.627 226.896 363.077 226.642C357.843 226.506 357.158 220.035 357.469 216.816L356.28 214.952C356.874 214.557 358.302 213.648 359.254 213.174Z" fill="#FFE8B3"/>
<path d="M367.921 237.399C363.706 241.194 347.301 245.192 339.625 246.717V264.081L358.149 258.575L347.443 320.071L395.792 326.34L391.118 284.665C391.203 278.594 391.322 264.878 391.118 258.575C398.868 257.559 401.655 263.404 402.08 266.453C403.694 266.397 408.963 265.454 417.12 262.133C409.387 239.94 378.457 235.027 378.372 234.943C373.359 239.771 367.581 237.738 367.921 237.399Z" fill="#9E00FF"/>
<path d="M359.424 220.543C360.188 220.797 361.803 221.034 362.143 219.95C362.228 219.95 362.738 222.491 359.424 220.543Z" fill="#BA0F0F"/>
<path d="M373.699 217.832L363.502 204.28C369.28 195.131 380.922 197.418 381.092 197.249C393.735 198.333 399.955 219.329 401.485 229.691L370.045 232.91L373.699 217.832Z" fill="#575757"/>
<path d="M363.757 213.682C363.757 214.15 363.529 214.529 363.247 214.529C362.966 214.529 362.738 214.15 362.738 213.682C362.738 213.214 362.966 212.835 363.247 212.835C363.529 212.835 363.757 213.214 363.757 213.682Z" fill="#784B17"/>
<path d="M357.639 381.059H352.371V386.226C350.388 387.497 345.658 390.173 342.599 390.715C341.036 390.919 340.645 392.155 340.645 392.748H357.639V381.059Z" fill="#784D2B"/>
<path d="M389.079 386.311H383.811V391.478C381.828 392.748 377.098 395.425 374.039 395.967C372.475 396.17 372.085 397.407 372.085 398H389.079V386.311Z" fill="#784D2B"/>
<rect width="72.4352" height="45.0785" rx="3" transform="matrix(-0.921577 -0.388195 -0.388195 0.921577 350.191 194.119)" fill="url(#paint3_linear_929_2820)"/>
<defs>
<linearGradient id="paint0_linear_929_2820" x1="71.5052" y1="-8.46419" x2="-0.191568" y2="55.7641" gradientUnits="userSpaceOnUse">
<stop stop-color="#EF7E2B"/>
<stop offset="1" stop-color="#FF3838"/>
</linearGradient>
<linearGradient id="paint1_linear_929_2820" x1="9.70213" y1="-12.4474" x2="72.4368" y2="63.2325" gradientUnits="userSpaceOnUse">
<stop stop-color="#EF7E2B"/>
<stop offset="1" stop-color="#FF3838"/>
</linearGradient>
<linearGradient id="paint2_linear_929_2820" x1="72.7324" y1="-8.96209" x2="0.039867" y2="52.7768" gradientUnits="userSpaceOnUse">
<stop stop-color="#EF7E2B"/>
<stop offset="1" stop-color="#FF3838"/>
</linearGradient>
<linearGradient id="paint3_linear_929_2820" x1="72.076" y1="-1.15896e-06" x2="-4.10179" y2="50.2873" gradientUnits="userSpaceOnUse">
<stop stop-color="#EF7E2B"/>
<stop offset="1" stop-color="#FF3838"/>
</linearGradient>
</defs>
</svg>
