<svg width="412" height="354" viewBox="0 0 412 354" fill="none" xmlns="http://www.w3.org/2000/svg">
<g clip-path="url(#clip0_974_2732)">
<path d="M292.599 0.970703H122.579C115.692 0.970703 110.109 6.55371 110.109 13.4407V128.401C110.109 135.288 115.692 140.871 122.579 140.871H292.599C299.486 140.871 305.069 135.288 305.069 128.401V13.4407C305.069 6.55371 299.486 0.970703 292.599 0.970703Z" stroke="black" stroke-width="1.95" stroke-miterlimit="10" stroke-linecap="round" stroke-dasharray="8.76 8.76"/>
<path d="M225.27 12.4902H187.92C187.13 12.4902 186.49 13.1305 186.49 13.9202V41.3302C186.49 42.12 187.13 42.7602 187.92 42.7602H225.27C226.06 42.7602 226.7 42.12 226.7 41.3302V13.9202C226.7 13.1305 226.06 12.4902 225.27 12.4902Z" stroke="#F4706B" stroke-width="0.97" stroke-miterlimit="10"/>
<path d="M225.27 78.1406H187.92C187.13 78.1406 186.49 78.7809 186.49 79.5706V106.981C186.49 107.77 187.13 108.411 187.92 108.411H225.27C226.06 108.411 226.7 107.77 226.7 106.981V79.5706C226.7 78.7809 226.06 78.1406 225.27 78.1406Z" stroke="#F4706B" stroke-width="0.97" stroke-miterlimit="10"/>
<path d="M291.2 46.4805H253.85C253.06 46.4805 252.42 47.1207 252.42 47.9105V75.3205C252.42 76.1102 253.06 76.7505 253.85 76.7505H291.2C291.99 76.7505 292.63 76.1102 292.63 75.3205V47.9105C292.63 47.1207 291.99 46.4805 291.2 46.4805Z" stroke="#F4706B" stroke-width="0.97" stroke-miterlimit="10"/>
<path d="M161.341 13.1016H123.991C123.201 13.1016 122.561 13.7418 122.561 14.5316V41.9416C122.561 42.7313 123.201 43.3716 123.991 43.3716H161.341C162.13 43.3716 162.771 42.7313 162.771 41.9416V14.5316C162.771 13.7418 162.13 13.1016 161.341 13.1016Z" stroke="#F4706B" stroke-width="0.97" stroke-miterlimit="10"/>
<path d="M164.58 27.6211H181.65" stroke="#029D41" stroke-width="1.45" stroke-miterlimit="10"/>
<path d="M180.1 27.6207V24.4707L182.82 26.0507L185.55 27.6207L182.82 29.2007L180.1 30.7707V27.6207Z" fill="#029D41"/>
<path d="M161.341 56.0898H123.991C123.201 56.0898 122.561 56.7301 122.561 57.5198V84.9298C122.561 85.7196 123.201 86.3598 123.991 86.3598H161.341C162.13 86.3598 162.771 85.7196 162.771 84.9298V57.5198C162.771 56.7301 162.13 56.0898 161.341 56.0898Z" stroke="#F4706B" stroke-width="0.97" stroke-miterlimit="10"/>
<path d="M164.58 71.2305L182.82 81.7005" stroke="#029D41" stroke-width="1.45" stroke-miterlimit="10"/>
<path d="M180.14 80.2114L181.64 77.4414L183.29 80.1214L184.94 82.8014L181.79 82.8914L178.65 82.9814L180.14 80.2114Z" fill="#029D41"/>
<path d="M163.881 115.831L182.441 105.941" stroke="#029D41" stroke-width="1.45" stroke-miterlimit="10"/>
<path d="M179.721 107.351L181.121 110.161L182.861 107.541L184.601 104.911L181.451 104.721L178.311 104.531L179.721 107.351Z" fill="#029D41"/>
<path d="M230.039 38.5801L248.279 49.0601" stroke="#029D41" stroke-width="1.45" stroke-miterlimit="10"/>
<path d="M245.6 47.561L247.09 44.791L248.75 47.471L250.4 50.151L247.25 50.241L244.1 50.341L245.6 47.561Z" fill="#029D41"/>
<path d="M229.34 83.191L247.9 73.291" stroke="#029D41" stroke-width="1.45" stroke-miterlimit="10"/>
<path d="M245.17 74.7006L246.58 77.5206L248.32 74.8906L250.05 72.2606L246.91 72.0806L243.77 71.8906L245.17 74.7006Z" fill="#029D41"/>
<path d="M161.341 99.0898H123.991C123.201 99.0898 122.561 99.7301 122.561 100.52V127.93C122.561 128.72 123.201 129.36 123.991 129.36H161.341C162.13 129.36 162.771 128.72 162.771 127.93V100.52C162.771 99.7301 162.13 99.0898 161.341 99.0898Z" stroke="#F4706B" stroke-width="0.97" stroke-miterlimit="10"/>
<path d="M306.849 130.06V130.39C306.454 133.001 307.078 135.663 308.594 137.825C310.11 139.987 312.4 141.482 314.989 142C324.339 143.87 338.989 146.75 351.839 149C372.689 152.73 373.189 138.29 374.839 127.25C378.599 118.25 387.889 97.4001 388.409 88.0401C388.919 78.8801 388.299 70.4401 380.089 67.5201C374.519 65.5701 353.419 55.6701 351.089 52.3301L343.019 65.4101C342.519 66.1984 341.819 66.8406 340.991 67.2716C340.163 67.7025 339.235 67.9071 338.303 67.8645C337.37 67.8218 336.465 67.5336 335.679 67.0288C334.894 66.5241 334.256 65.8208 333.829 64.9901C332.019 61.5101 329.929 57.8901 328.259 56.2201C328.255 56.2928 328.224 56.3613 328.172 56.4128C328.121 56.4644 328.052 56.4954 327.979 56.5001C324.779 60.8101 299.469 71.0901 297.529 77.7701C296.069 82.7001 291.729 109.07 306.849 130.06Z" fill="#FF9C1A"/>
<path d="M328.749 48.7605C329.449 50.5705 330.979 52.5205 328.189 56.5505C330.414 59.3336 332.329 62.3515 333.899 65.5505C334.316 66.3514 334.936 67.0288 335.696 67.5153C336.457 68.0017 337.332 68.2801 338.233 68.3226C339.135 68.3651 340.032 68.1702 340.835 67.7575C341.638 67.3448 342.319 66.7286 342.809 65.9705L353.109 54.4205C351.871 53.2957 350.748 52.0495 349.759 50.7005C347.056 46.5974 345.03 42.0866 343.759 37.3405C346.959 36.5005 350.159 34.1405 350.759 31.4905C351.459 28.2905 349.759 23.1405 346.169 22.8605C339.769 22.5805 338.379 23.1405 336.569 15.4805C334.759 7.82051 316.669 16.5905 316.669 16.5905C316.669 16.5905 316.109 24.9405 316.809 27.1705C317.316 28.5039 317.554 29.9246 317.509 31.3505C317.561 33.5343 317.467 35.7191 317.229 37.8905C316.779 41.3805 320.669 50.5705 328.749 48.7605Z" fill="#FEC2A0"/>
<path d="M327.911 33.3213C328.524 33.3213 329.021 32.3229 329.021 31.0913C329.021 29.8597 328.524 28.8613 327.911 28.8613C327.298 28.8613 326.801 29.8597 326.801 31.0913C326.801 32.3229 327.298 33.3213 327.911 33.3213Z" fill="#303134"/>
<path d="M318.861 32.9007C319.396 32.9007 319.831 31.965 319.831 30.8107C319.831 29.6564 319.396 28.7207 318.861 28.7207C318.325 28.7207 317.891 29.6564 317.891 30.8107C317.891 31.965 318.325 32.9007 318.861 32.9007Z" fill="#303134"/>
<path d="M321.23 34.0098C319.56 35.5398 319.56 39.1598 322.48 37.7698" stroke="#303134" stroke-width="0.63" stroke-miterlimit="10" stroke-linecap="round"/>
<path d="M328.75 48.7612C328.75 48.7612 332.51 47.5112 333.62 44.4512C333.62 48.7612 329.72 51.4512 329.72 51.4512L328.75 48.7612Z" fill="#F99979"/>
<path d="M354.771 13.9014C350.171 5.46137 334.551 6.04137 327.911 5.74137C320.101 5.39137 313.311 1.95137 313.311 10.5314C313.421 16.0808 314.553 21.5623 316.651 26.7014C316.574 23.7321 317.141 20.7815 318.311 18.0514C318.731 16.8014 320.841 18.9814 324.451 19.1314C328.061 19.2814 332.371 18.8914 332.511 19.5914L335.451 29.8214C335.657 30.5483 336.066 31.2018 336.628 31.7062C337.191 32.2106 337.885 32.5452 338.631 32.6714C338.631 32.6714 338.491 24.1814 344.891 24.4614C351.291 24.7414 350.891 35.1814 343.641 37.2614C344.294 39.9027 345.225 42.4671 346.421 44.9114C346.421 44.9114 359.381 22.3414 354.771 13.9014Z" fill="#4F6DDB"/>
<path d="M321.289 42.7798C321.289 42.7798 324.839 44.4498 326.589 41.0898" stroke="#303134" stroke-width="0.63" stroke-miterlimit="10" stroke-linecap="round"/>
<path d="M325.609 26.7015C325.609 26.7015 328.219 24.9515 330.409 26.4115" stroke="#303134" stroke-width="0.63" stroke-miterlimit="10" stroke-linecap="round"/>
<path d="M319.96 26.2216C319.632 25.9194 319.224 25.7175 318.785 25.6395C318.345 25.5615 317.893 25.6109 317.48 25.7816" stroke="#303134" stroke-width="0.63" stroke-miterlimit="10" stroke-linecap="round"/>
<path d="M306.78 115.061C304.78 109.901 285.15 76.6911 285.17 73.7711C285.19 70.8511 281.85 67.3411 278.17 63.6811C274.49 60.0211 272.51 59.4011 269.93 56.7911C267.35 54.1811 266.72 54.8811 266.42 56.2811C266.12 57.6811 267.47 59.4511 268.8 60.6011C270.13 61.7511 272.59 63.4011 272.62 64.0211C272.65 64.6411 270.62 65.3911 267.29 63.5011C263.96 61.6111 262.75 60.1211 261.47 57.5011C260.19 54.8811 259.21 52.5011 257.59 52.8411C255.97 53.1811 257.08 54.6511 257.08 54.6511C257.08 54.6511 256.01 54.4011 256.56 56.0411C257.114 57.5939 257.555 59.1847 257.88 60.8011C258.29 62.8011 258.09 63.4511 258.57 64.3011C259.05 65.1511 261.85 68.8411 262.85 70.0211C263.85 71.2011 266.15 73.1911 267.03 74.2111C268.338 75.4023 269.839 76.3626 271.47 77.0511C272.95 77.7411 277.01 78.0511 277.68 79.6411C278.13 80.7311 288.34 129.641 296.33 132.641C298.219 133.466 300.327 133.649 302.33 133.161C307.85 131.921 310.61 125.061 306.78 115.061Z" fill="#FEC2A0"/>
<path d="M257.1 54.6409C257.657 54.6335 258.206 54.7786 258.687 55.0606C259.169 55.3426 259.564 55.7507 259.83 56.2409C260.328 57.0993 260.603 58.0688 260.63 59.0609" stroke="#F99055" stroke-width="0.56" stroke-miterlimit="10"/>
<path d="M264.45 71.131C264.51 71.001 261.55 66.011 260.6 63.481C259.65 60.951 258.6 60.151 259.92 59.211C261.24 58.271 262.92 61.431 263.52 62.731C264.12 64.031 264.87 66.421 266.11 67.461C267.35 68.501 268.11 69.231 268.11 69.231" stroke="#F99055" stroke-width="0.56" stroke-miterlimit="10"/>
<path d="M275.17 70.5704C275.6 70.6604 278.94 69.5104 281.62 72.8104" stroke="#F99055" stroke-width="0.56" stroke-miterlimit="10"/>
<path d="M372.24 120.002L371.74 97.6016L373.92 102.162L376.37 113.782L372.24 120.002Z" fill="#EB6C18"/>
<path d="M409.249 41.7907C409.489 40.2607 409.249 38.7907 408.049 38.4707C406.849 38.1507 405.529 37.6107 405.659 35.7507C405.659 35.4407 405.659 35.0207 405.729 34.5507C405.875 30.78 406.816 27.0827 408.489 23.7007C410.079 20.5107 408.919 18.9207 407.209 19.9007C405.969 20.8007 404.309 22.4207 402.959 27.0607C402.353 29.2433 401.878 31.4607 401.539 33.7007C401.481 34.5898 401.261 35.4608 400.889 36.2707C400.339 36.8107 399.769 36.4107 398.089 38.1807C396.409 39.9507 391.499 44.3407 391.379 45.1107C391.319 45.4316 391.352 45.7632 391.474 46.0661C391.596 46.369 391.803 46.6306 392.069 46.8199C392.335 47.0092 392.65 47.1184 392.976 47.1345C393.302 47.1506 393.626 47.0729 393.909 46.9107C391.909 48.6307 391.169 49.4507 392.369 50.7407C392.751 51.0992 393.256 51.2988 393.779 51.2988C394.303 51.2988 394.808 51.0992 395.189 50.7407C395.189 50.7407 395.889 52.2607 396.459 53.6007C397.167 54.9163 397.579 56.3698 397.669 57.8607C397.739 59.4307 396.459 63.6107 395.139 66.0707C394.289 67.7207 373.059 116.071 373.059 116.071C370.829 121.531 371.469 131.011 376.819 133.501C381.169 135.501 388.159 135.141 391.499 130.901C402.689 116.581 409.849 56.7007 410.139 54.1307C410.689 48.5907 412.479 42.1407 409.249 41.7907Z" fill="#FEC2A0"/>
<path d="M394.32 42.2715C394.32 42.2715 391.78 37.4915 393.68 36.3815C395.58 35.2715 397.26 38.5015 397.52 38.8615L394.32 42.2715Z" fill="#FEC2A0"/>
<path d="M394.43 46.5214L400.12 41.1514L405.55 40.4414" fill="#FEC2A0"/>
<path d="M394.43 46.5214L400.12 41.1514L405.55 40.4414" stroke="#F99979" stroke-width="1.01" stroke-miterlimit="10" stroke-linecap="round"/>
<path d="M395.061 50.5213C395.061 50.5213 401.131 44.7413 401.761 44.6913C402.391 44.6413 406.431 43.8613 406.431 43.8613" fill="#FEC2A0"/>
<path d="M395.061 50.5213C395.061 50.5213 401.131 44.7413 401.761 44.6913C402.391 44.6413 406.431 43.8613 406.431 43.8613" stroke="#F99979" stroke-width="1.01" stroke-miterlimit="10" stroke-linecap="round"/>
<path d="M397.25 55.5605C397.25 55.5605 402.41 58.5605 404.86 58.9405C403.685 59.3611 402.42 59.4679 401.191 59.2505C399.961 59.033 398.81 58.4988 397.85 57.7005L397.25 55.5605Z" fill="#F99979"/>
<path d="M397.1 50.5299C397.1 50.5299 400.86 47.5299 402.69 47.8099C403.87 47.8789 405.053 47.747 406.19 47.4199" fill="#FEC2A0"/>
<path d="M397.1 50.5299C397.1 50.5299 400.86 47.5299 402.69 47.8099C403.87 47.8789 405.053 47.747 406.19 47.4199" stroke="#F99979" stroke-width="1.01" stroke-miterlimit="10" stroke-linecap="round"/>
<mask id="mask0_974_2732" style="mask-type:luminance" maskUnits="userSpaceOnUse" x="313" y="4" width="43" height="41">
<path d="M354.771 13.9014C350.171 5.46137 334.551 6.04137 327.911 5.74137C320.101 5.39137 313.311 1.95137 313.311 10.5314C313.421 16.0808 314.553 21.5623 316.651 26.7014C316.574 23.7321 317.141 20.7815 318.311 18.0514C318.731 16.8014 320.841 18.9814 324.451 19.1314C328.061 19.2814 332.371 18.8914 332.511 19.5914L335.451 29.8214C335.657 30.5483 336.066 31.2018 336.628 31.7062C337.191 32.2106 337.885 32.5452 338.631 32.6714C338.631 32.6714 338.491 24.1814 344.891 24.4614C351.291 24.7414 350.891 35.1814 343.641 37.2614C344.294 39.9027 345.225 42.4671 346.421 44.9114C346.421 44.9114 359.381 22.3414 354.771 13.9014Z" fill="white"/>
</mask>
<g mask="url(#mask0_974_2732)">
<path d="M325.612 19.7022C325.612 19.7022 318.562 9.30219 327.042 4.99219" stroke="#4762C4" stroke-width="0.9" stroke-miterlimit="10"/>
<path d="M351.851 8.54269C351.851 8.54269 335.521 7.49269 332.211 22.7627" stroke="#4762C4" stroke-width="0.9" stroke-miterlimit="10"/>
<path d="M356.731 12.832C356.731 12.832 339.571 19.602 333.621 26.702" stroke="#4762C4" stroke-width="0.9" stroke-miterlimit="10"/>
<path d="M322.561 19.482C322.561 19.482 313.321 11.182 321.901 4.33203" stroke="#4762C4" stroke-width="0.9" stroke-miterlimit="10"/>
</g>
<path d="M356.301 56.8516C356.301 56.8516 347.301 72.5716 339.301 72.8516" stroke="#EB6C18" stroke-width="1.82" stroke-miterlimit="10"/>
<path d="M97.6909 88.5198C98.6909 103.07 99.6909 119.33 93.0709 126.52C86.4509 133.71 74.6309 130.15 74.6309 130.15L73.7209 131.7C73.2398 132.623 72.498 133.384 71.5877 133.889C70.6774 134.394 69.6388 134.62 68.6009 134.54C59.6009 133.44 33.6009 126.02 33.6009 126.02C33.6009 126.02 14.2909 130.02 10.1209 118.95C7.12092 110.95 10.9609 107.4 13.3009 103.95C16.3009 99.6798 15.5209 88.5598 16.7109 80.4398C17.9009 72.3198 20.4409 66.9398 27.7109 64.6798C32.6509 63.1798 47.6509 57.0898 49.8409 54.2598L56.4309 65.9898C56.8406 66.6866 57.4251 67.2643 58.1267 67.6657C58.8283 68.0671 59.6226 68.2783 60.4309 68.2783C61.2392 68.2783 62.0335 68.0671 62.7351 67.6657C63.4367 67.2643 64.0213 66.6866 64.4309 65.9898C66.1409 62.9898 68.0909 59.9198 69.6209 58.5198C69.6229 58.5821 69.6472 58.6416 69.6894 58.6875C69.7317 58.7334 69.789 58.7626 69.8509 58.7698C72.4909 62.6598 94.6709 74.9098 96.1309 80.8298C96.8297 83.3536 97.351 85.9232 97.6909 88.5198Z" fill="#7794FF"/>
<path d="M69.4592 51.8812C68.7892 53.4412 67.3792 55.0912 69.6692 58.7212C67.6193 61.0889 65.8353 63.6744 64.3492 66.4312C63.9506 67.1116 63.3809 67.6759 62.6968 68.068C62.0126 68.4601 61.2378 68.6664 60.4492 68.6664C59.6607 68.6664 58.8858 68.4601 58.2017 68.068C57.5175 67.6759 56.9478 67.1116 56.5492 66.4312L47.9492 55.9912C49.0735 55.0404 50.0987 53.9783 51.0092 52.8212C53.5179 49.3289 55.4492 45.4562 56.7292 41.3512C53.9592 40.5012 51.2492 38.3512 50.8592 35.9912C50.3692 33.1712 52.0092 28.7212 55.1892 28.6112C60.7992 28.6112 61.9992 29.1312 63.8492 22.5112C65.6992 15.8912 81.2092 24.2012 81.2092 24.2012C81.2092 24.2012 81.3992 31.5212 80.7092 33.4512C80.2184 34.599 79.96 35.8328 79.9492 37.0812C79.8222 38.9891 79.8222 40.9033 79.9492 42.8112C80.1892 45.8612 76.4492 53.7012 69.4592 51.8812Z" fill="#FEC2A0"/>
<path d="M68.5408 32.7005C71.3908 31.6005 72.5408 32.3805 72.5408 32.3805L72.8408 30.9305C72.8636 30.753 72.8155 30.5736 72.7069 30.4314C72.5983 30.2891 72.4381 30.1954 72.2608 30.1705C71.0763 30.0894 69.8862 30.1634 68.7208 30.3905C67.8508 30.8405 68.5408 32.7005 68.5408 32.7005Z" fill="#D1D1D1"/>
<path d="M81.0802 31.7812C79.9902 31.6112 78.2902 32.8512 78.2902 32.8512L78.2402 31.1412C78.2497 30.9541 78.3161 30.7744 78.4305 30.6261C78.5449 30.4778 78.7018 30.3679 78.8802 30.3112L81.0002 29.7012L81.0802 31.5412V31.7812Z" fill="#D1D1D1"/>
<path d="M71.8002 36.4893C71.8448 35.4133 71.447 34.523 70.9117 34.5009C70.3764 34.4787 69.9064 35.3331 69.8619 36.4091C69.8174 37.4851 70.2152 38.3754 70.7504 38.3975C71.2857 38.4197 71.7557 37.5653 71.8002 36.4893Z" fill="#303134"/>
<path d="M79.5965 36.5758C79.6383 35.566 79.2919 34.7317 78.8229 34.7123C78.3539 34.6928 77.9397 35.4957 77.8979 36.5055C77.8561 37.5154 78.2025 38.3497 78.6715 38.3691C79.1406 38.3885 79.5547 37.5857 79.5965 36.5758Z" fill="#303134"/>
<path d="M76.5601 39.2402C77.9701 40.6402 77.8301 43.8002 75.3301 42.4802" stroke="#303134" stroke-width="0.55" stroke-miterlimit="10" stroke-linecap="round"/>
<path d="M69.4591 51.8816C69.4591 51.8816 66.2191 50.6516 65.3591 47.9316C65.1991 51.7016 68.5191 54.1616 68.5191 54.1616L69.4591 51.8816Z" fill="#F99979"/>
<path d="M41.5293 28.4109C45.2193 12.9609 63.1693 9.63086 70.9593 9.63086C78.7493 9.63086 85.2093 13.0209 83.1593 24.1609C82.5505 27.3096 81.7286 30.4134 80.6993 33.4509C81.3893 31.5309 80.3393 27.3409 79.6993 25.3609C79.3793 24.2509 74.9693 28.2909 68.3893 24.7709C68.0939 24.8936 67.8333 25.0874 67.631 25.3352C67.4286 25.5829 67.2906 25.8769 67.2293 26.1909L65.6893 36.8509L61.3993 37.4009C61.3993 37.4009 61.8293 29.9809 56.2193 29.9909C50.6093 30.0009 50.5993 39.1509 56.8493 41.2309C56.182 43.5173 55.2736 45.7264 54.1393 47.8209C54.1393 47.8209 45.6293 29.4309 41.5293 28.4109Z" fill="#D1D1D1"/>
<path d="M68.8591 57.2207L60.1191 62.2207L73.5191 70.6407L69.8991 58.7307L68.8591 57.2207Z" fill="#D1D1D1"/>
<path d="M49.4706 54.5898L60.1206 62.2198L45.3906 68.7298L47.5706 56.2198L49.4706 54.5898Z" fill="#D1D1D1"/>
<path d="M50.4805 66.4807L58.7305 108.541L68.7305 67.6107L60.1505 62.2207L50.4805 66.4807Z" fill="#F0F0F0"/>
<path d="M64.1796 64.7707L61.9596 68.7607L57.6596 68.5807L55.8496 64.1107L60.1196 62.2207L64.1796 64.7707Z" fill="#F66A31"/>
<path d="M55.4297 91.7005L58.7297 108.531L62.7297 92.0005L61.9297 68.7405L57.6397 68.5605L55.4297 91.7005Z" fill="#F66A31"/>
<path d="M5.41 115H112.77C114.205 115 115.581 115.57 116.595 116.585C117.61 117.599 118.18 118.975 118.18 120.41V127.59H0V120.41C0 118.975 0.569981 117.599 1.58455 116.585C2.59912 115.57 3.97518 115 5.41 115Z" fill="#494A4F"/>
<path d="M107.52 127.24H10.6699V139.83H107.52V127.24Z" fill="#494A4F"/>
<path d="M16.7793 139.51L19.3893 178.76C19.4802 180.737 20.3189 182.605 21.7356 183.986C23.1523 185.368 25.041 186.159 27.0193 186.2H93.4593C94.9199 186.17 96.3159 185.592 97.37 184.581C98.4241 183.569 99.0592 182.198 99.1493 180.74L102.579 139.5L16.7793 139.51Z" fill="#494A4F"/>
<path d="M71.5898 46.4102C71.5898 46.4102 72.3898 48.6202 75.4498 47.8202" stroke="#303134" stroke-width="0.55" stroke-miterlimit="10" stroke-linecap="round"/>
<path d="M17.9199 115.022C17.9199 115.022 19.4699 108.412 22.0499 109.882C24.6299 111.352 24.9799 108.682 26.5899 109.642C29.3699 111.292 29.8199 109.162 31.5399 110.262C33.2599 111.362 34.6099 114.102 36.4499 113.492C38.2899 112.882 40.9899 112.862 41.2299 115.022C34.9699 115.092 17.9199 115.022 17.9199 115.022Z" fill="#FEC2A0"/>
<path d="M218.28 273.94C217.499 278.718 217.594 283.597 218.56 288.34C221.56 303.66 205.96 318.06 218.44 334.69C219.444 336.029 220.522 337.311 221.67 338.53C228.22 314.7 248.54 281.86 218.28 273.94Z" fill="#794300"/>
<path d="M295.85 290.08C294.72 282.93 296.33 277.22 296.69 272.44C288.79 273.21 283.25 276.93 282.48 285.44C280.6 305.44 279.18 327.25 283.93 347.01C291.1 343.63 296.88 339.06 300.08 333.96C306.29 324.02 298.29 305.7 295.85 290.08Z" fill="#794300"/>
<path d="M284.851 281.491C289.699 280.204 294.641 279.301 299.631 278.791C300.001 273.941 296.171 263.721 289.811 260.311C281.341 255.761 274.311 255.311 265.811 254.801C263.741 254.621 254.481 254.321 248.081 254.441C241.681 254.561 227.331 258.441 224.081 260.801C222.221 262.131 216.621 267.931 215.381 275.141C220.971 276.601 229.831 280.831 229.831 280.831C229.831 280.831 226.541 319.091 221.201 338.531C238.111 356.531 270.571 355.661 288.961 346.991C284.061 327.241 284.851 281.491 284.851 281.491Z" fill="#029D41"/>
<path d="M227.49 293.201H287.29C288.614 293.201 289.893 293.684 290.886 294.561C291.879 295.438 292.517 296.647 292.68 297.961L297.57 337.551C297.821 339.581 297.637 341.642 297.032 343.596C296.426 345.55 295.412 347.353 294.058 348.885C292.703 350.418 291.038 351.645 289.173 352.486C287.308 353.326 285.286 353.761 283.24 353.761H232.7C230.689 353.762 228.699 353.342 226.86 352.529C225.02 351.716 223.37 350.528 222.017 349.041C220.663 347.553 219.635 345.799 218.998 343.891C218.362 341.983 218.131 339.964 218.32 337.961L222.09 298.121C222.217 296.776 222.84 295.527 223.839 294.617C224.838 293.708 226.139 293.203 227.49 293.201Z" fill="#494A4F"/>
<path d="M276.23 264.821C273.07 265.331 266.56 261.471 260.23 261.291C252.17 261.061 248.42 264.961 244.43 264.411C232.84 262.791 234.96 204.631 260.43 204.631C285.9 204.631 286.45 263.171 276.23 264.821Z" fill="#232426"/>
<path d="M262.711 205.621C262.711 205.621 280.021 208.321 283.371 228.481C284.721 236.621 285.221 247.811 278.511 262.161" stroke="#232426" stroke-width="1.4" stroke-miterlimit="10"/>
<path d="M203.679 247.142L185.609 245.942L199.199 283.242C199.199 283.242 224.709 267.552 225.199 249.242C225.339 244.242 228.369 209.992 227.939 201.182C225.119 200.422 219.169 202.362 214.939 202.562C213.983 202.594 213.074 202.98 212.386 203.645C211.699 204.311 211.283 205.207 211.219 206.162C210.639 217.082 203.679 247.142 203.679 247.142Z" fill="#4F6DDB"/>
<path d="M228.749 190.5C229.749 188.5 232.379 184.09 233.479 182.34C234.22 181.331 234.748 180.18 235.029 178.96C234.987 178.769 234.902 178.59 234.781 178.437C234.659 178.283 234.505 178.159 234.328 178.075C234.152 177.99 233.959 177.946 233.763 177.947C233.568 177.948 233.375 177.994 233.199 178.08C232.459 178.43 230.299 182.02 230.299 182.02C230.951 180.694 231.509 179.324 231.969 177.92C232.277 176.462 232.454 174.98 232.499 173.49C232.639 172.05 232.699 171.57 231.699 171.22C231.495 171.147 231.278 171.118 231.062 171.135C230.847 171.153 230.637 171.216 230.448 171.321C230.258 171.427 230.093 171.571 229.964 171.745C229.835 171.919 229.745 172.118 229.699 172.33C229.699 172.33 229.699 170.92 229.699 169.86C229.699 168.8 229.859 167.74 229.309 167.2C229.609 165.66 228.679 164.61 227.239 165.1C225.799 165.59 223.819 170.8 223.479 172.66C223.139 174.52 221.669 176.73 220.959 178.14C220.249 179.55 217.739 185.72 216.959 185.42C216.179 185.12 217.669 182.32 218.539 180.42C219.409 178.52 218.839 176.42 217.849 175.68C216.859 174.94 215.429 175.42 215.189 177.33C214.949 179.24 212.319 182.71 211.589 186.93C211.133 190.425 211.685 193.978 213.179 197.17C213.918 199.259 214.181 201.487 213.949 203.69C217.281 205.562 220.85 206.975 224.559 207.89C224.309 202.73 224.139 198.8 224.259 198.3C224.609 196.95 227.789 192.48 228.749 190.5Z" fill="#794300"/>
<path d="M224.109 182.761C224.317 181.612 224.748 180.514 225.379 179.531C226.208 177.916 226.808 176.192 227.159 174.411C227.379 173.661 229.309 167.201 229.309 167.201C229.309 167.201 228.209 173.951 227.739 175.781C227.269 177.611 224.109 182.761 224.109 182.761Z" fill="#452600"/>
<path d="M227.03 185.881C227.03 185.881 227.2 184.751 227.33 183.711C227.46 182.671 229.61 178.871 229.89 177.381C230.008 175.793 229.948 174.196 229.71 172.621C229.71 172.621 229.82 176.161 229.03 177.951C228.24 179.741 226.26 182.701 227.03 185.881Z" fill="#452600"/>
<path d="M227.939 187.281C228.54 185.654 229.266 184.076 230.109 182.561L228.419 187.561L227.939 187.281Z" fill="#452600"/>
<path d="M187.849 232.51C185.459 238.11 176.849 237.58 176.849 237.58C173.659 241.32 178.159 246.58 178.159 246.58C178.159 246.58 159.669 244.58 156.029 245.14C156.029 245.07 159.309 239.03 158.959 237.58L159.089 237.65C164.839 233.48 167.619 209.37 168.619 206.41C169.619 203.45 186.839 211.16 188.009 207.41C188.561 210.115 188.669 212.891 188.329 215.63C187.439 221.86 190.849 225.48 187.849 232.51Z" fill="#794300"/>
<path d="M185.61 323.48C173.61 342.61 164.77 355.48 142.26 325.48C129.74 308.79 133.7 294.86 130.72 279.48C127.74 264.1 130.67 252.77 133.57 250.69C136.88 248.32 151.28 244.44 157.7 244.31C164.12 244.18 173.42 244.49 175.5 244.67C184.07 245.19 191.12 245.67 199.63 250.2C212.29 257 204.25 267.93 200.72 283.2C194.2 311.53 191.85 313.52 185.61 323.48Z" fill="#4F6DDB"/>
<path d="M137.15 283.24H197.15C198.48 283.24 199.763 283.726 200.76 284.606C201.756 285.486 202.396 286.701 202.56 288.02L207.46 327.75C207.712 329.788 207.528 331.856 206.921 333.817C206.314 335.778 205.296 337.588 203.937 339.126C202.577 340.665 200.906 341.896 199.034 342.74C197.163 343.584 195.133 344.02 193.08 344.02H142.37C140.351 344.021 138.354 343.6 136.508 342.784C134.661 341.968 133.006 340.775 131.647 339.282C130.289 337.788 129.257 336.028 128.619 334.113C127.98 332.197 127.749 330.17 127.94 328.16L131.72 288.16C131.852 286.812 132.481 285.561 133.485 284.651C134.489 283.742 135.795 283.239 137.15 283.24Z" fill="#494A4F"/>
<path d="M187.999 207.36C186.829 211.12 184.909 215.98 183.209 217.47C183.209 217.47 178.579 212.31 175.909 217.62C172.569 224.26 178.749 228.02 180.659 227.91C178.749 232.68 178.529 236.57 172.769 237.48C167.009 238.39 164.829 233.48 159.079 237.62L158.949 237.55C150.319 233.64 145.389 220.1 147.849 210.64C150.309 201.18 157.119 194.87 165.539 194.37C171.539 194.01 178.889 196.08 184.059 196.67C184.819 196.75 185.555 196.984 186.221 197.358C186.888 197.733 187.471 198.239 187.934 198.847C188.398 199.455 188.732 200.151 188.917 200.892C189.102 201.634 189.133 202.406 189.009 203.16C188.77 204.582 188.432 205.985 187.999 207.36Z" fill="#F66A31"/>
<path d="M149.85 266.251C135.01 264.151 141.49 249.361 145.85 241.901C146.483 240.797 147.512 239.975 148.729 239.604C149.946 239.232 151.259 239.338 152.4 239.901C155.953 241.689 159.797 242.827 163.75 243.261C169.08 243.727 174.45 243.205 179.59 241.721C180.292 241.526 181.028 241.487 181.747 241.606C182.465 241.725 183.149 242 183.75 242.411L189.15 246.131C189.15 246.131 169.79 269.091 149.85 266.251Z" fill="#4F6DDB"/>
<path d="M143.131 247.071C143.131 247.071 136.401 260.071 145.131 264.871C153.861 269.671 173.041 264.871 189.081 246.171C185.611 259.261 167.561 270.101 154.961 271.851C142.361 273.601 131.731 261.601 143.131 247.071Z" fill="#3D54A8"/>
<path d="M157.299 196.97C158.649 191.58 147.209 185.56 146.089 191.25C144.779 197.91 139.379 197.25 140.829 201.01C142.279 204.77 141.019 210.71 151.829 207.2C162.639 203.69 155.949 202.36 157.299 196.97Z" fill="#F66A31"/>
<path d="M185.611 198.01C186.359 198.044 187.093 198.231 187.768 198.557C188.442 198.883 189.044 199.343 189.535 199.909C190.027 200.475 190.399 201.134 190.629 201.847C190.858 202.561 190.94 203.314 190.871 204.06C190.791 209.93 183.811 215.55 183.811 215.55" stroke="#F66A31" stroke-width="1.4" stroke-miterlimit="10"/>
<path d="M165.54 194.361C165.54 194.361 169.44 212.981 147.41 219.021" stroke="#C45527" stroke-width="0.93" stroke-miterlimit="10"/>
<path d="M165.54 194.361C165.54 194.361 174.67 216.031 149.1 225.821" stroke="#C45527" stroke-width="0.93" stroke-miterlimit="10"/>
<path d="M100.5 212.991C98.1097 218.591 89.4997 218.061 89.4997 218.061C86.3097 221.801 90.8097 227.061 90.8097 227.061C90.8097 227.061 72.3197 225.061 68.6797 225.621C68.6797 225.551 71.9597 219.511 71.6097 218.061L71.7397 218.131C77.4897 213.961 80.5097 194.481 81.5197 191.521C82.5297 188.561 99.5197 191.641 100.66 187.881C101.211 190.585 101.319 193.362 100.98 196.101C100.05 202.341 103.49 205.961 100.5 212.991Z" fill="#FEC2A0"/>
<path d="M38.1399 275.971C35.3899 285.411 32.2499 294.971 40.0599 305.371C45.3491 312.456 52.6389 317.796 60.9899 320.701C60.2099 303.081 54.5399 284.141 38.1399 275.971Z" fill="#FEC2A0"/>
<path d="M121.08 273.3C120.02 269.02 118.99 264.72 118.35 260.6C116.07 246.14 124.94 237.52 112.27 230.72C103.77 226.16 96.71 225.72 88.14 225.19C86.06 225.01 76.77 224.71 70.34 224.83C63.91 224.95 49.51 228.83 46.21 231.21C43.28 233.29 34.85 241.46 37.85 256.97C38.97 262.75 32.4 268.81 30.75 274.5C47.13 282.7 60.21 303.08 60.99 320.7C69.2809 323.516 78.1066 324.395 86.79 323.27C87.05 311.14 87.72 299.19 93.41 289.07C99.01 279.45 110.46 276.43 121.08 273.3Z" fill="#FE3737"/>
<path d="M121.081 273.301C110.461 276.421 99.0208 279.451 93.4208 289.051C87.7308 299.171 87.0608 311.121 86.8008 323.251C102.521 321.381 116.801 313.891 122.601 304.621C127.201 297.271 124.041 285.351 121.081 273.301Z" fill="#FEC2A0"/>
<path d="M49.7691 263.701H109.769C111.099 263.701 112.383 264.187 113.379 265.067C114.375 265.947 115.016 267.162 115.179 268.481L120.079 308.211C120.331 310.249 120.148 312.317 119.54 314.278C118.933 316.239 117.916 318.049 116.556 319.587C115.196 321.125 113.525 322.357 111.654 323.201C109.782 324.045 107.752 324.481 105.699 324.481H54.9891C52.9703 324.482 50.9736 324.061 49.1271 323.245C47.2806 322.429 45.625 321.236 44.2664 319.743C42.9078 318.249 41.8762 316.489 41.2378 314.574C40.5994 312.658 40.3682 310.631 40.5591 308.621L44.3391 268.621C44.4708 267.273 45.0999 266.022 46.1038 265.112C47.1077 264.203 48.4144 263.7 49.7691 263.701Z" fill="#494A4F"/>
<path d="M71.0299 181.801C71.0299 181.801 76.0298 173.981 86.8398 176.921C91.2398 178.111 98.7798 182.271 100.2 185.461C101.62 188.651 97.4398 196.981 94.0998 200.141C92.6098 201.551 93.4099 197.831 90.5699 199.261C87.7299 200.691 87.8299 206.121 90.8999 208.461C93.9699 210.801 97.1199 217.911 97.5099 222.181C97.9499 227.021 99.3598 235.481 87.4098 236.031C75.4598 236.581 60.0398 222.421 61.7398 236.191C62.4298 241.801 51.3498 249.771 40.7399 245.611C32.2499 242.291 37.1399 231.231 46.2999 221.451C54.3799 212.811 51.9599 205.671 51.9599 197.941C51.9599 190.211 57.0598 170.351 71.0299 181.801Z" fill="#232426"/>
<path d="M59.0209 204.51C67.2444 204.51 73.9109 197.844 73.9109 189.62C73.9109 181.397 67.2444 174.73 59.0209 174.73C50.7973 174.73 44.1309 181.397 44.1309 189.62C44.1309 197.844 50.7973 204.51 59.0209 204.51Z" fill="#232426"/>
<path d="M30.7305 274.501C32.1924 278.057 33.9033 281.506 35.8505 284.821C36.2105 283.171 37.4205 278.601 37.4205 278.601C37.4205 278.601 32.4205 274.621 30.7305 274.501Z" fill="#D12D2D"/>
<path d="M334.269 226.771C336.199 232.531 344.849 232.701 344.849 232.701C347.719 236.701 342.849 241.501 342.849 241.501C342.849 241.501 365.509 241.701 369.079 242.581C369.079 242.501 366.159 228.191 365.239 228.071C359.859 223.471 356.099 217.401 353.359 210.441C350.959 204.331 337.009 205.631 336.149 201.801C335.376 204.442 335.039 207.191 335.149 209.941C335.559 216.231 331.849 219.551 334.269 226.771Z" fill="#FDC383"/>
<path d="M314.189 273.261C314.189 273.481 309.689 270.991 309.739 271.261C312.739 286.581 301.739 303.701 314.189 320.331C316.359 323.235 318.878 325.862 321.689 328.151C326.219 309.561 336.749 280.991 314.189 273.261Z" fill="#FDC383"/>
<path d="M400.78 272.53C393.06 274.62 378.9 276.44 378.16 280.18C372.96 295.02 379.72 313.01 386.16 329.35C390.255 326.864 393.759 323.517 396.43 319.54C402.65 309.61 400.85 273.79 400.78 272.53Z" fill="#FDC383"/>
<path d="M385.159 286.31C385.909 282.57 394.799 276.781 402.519 274.701C401.389 262.481 398.589 254.531 387.149 248.391C378.679 243.841 370.619 240.911 362.089 240.391C360.019 240.211 350.759 239.91 344.359 240.03C337.959 240.15 320.159 249.281 316.859 251.641C314.009 253.641 306.599 259.851 309.289 274.921C331.849 282.651 326.289 309.56 321.709 328.1C340.819 343.62 369.599 339.991 386.179 329.341C379.709 313.011 379.969 301.15 385.159 286.31Z" fill="#4F6DDB"/>
<path d="M323.849 278.791H383.649C384.974 278.791 386.253 279.274 387.245 280.151C388.238 281.028 388.876 282.237 389.039 283.551L393.929 323.141C394.18 325.171 393.997 327.232 393.391 329.185C392.786 331.139 391.772 332.942 390.417 334.475C389.062 336.008 387.397 337.235 385.532 338.075C383.667 338.916 381.645 339.351 379.599 339.351H329.059C327.048 339.352 325.059 338.932 323.219 338.119C321.379 337.306 319.73 336.118 318.376 334.63C317.022 333.143 315.994 331.389 315.358 329.481C314.721 327.573 314.49 325.553 314.679 323.551L318.449 283.701C318.579 282.358 319.203 281.111 320.201 280.203C321.2 279.296 322.5 278.792 323.849 278.791Z" fill="#494A4F"/>
<path d="M341.34 213.61C341.34 213.61 344.21 208.45 348.04 213C351.87 217.55 345.63 228.71 351.28 230.06C358.87 221.48 366.2 230.06 366.2 230.06C375.08 226.86 376.75 215.2 375.05 205.61C373.35 196.02 366.05 190.39 359.48 190.61C352.7 187.4 344.48 190.61 338.54 190.51C337.709 190.502 336.887 190.679 336.134 191.028C335.38 191.377 334.713 191.889 334.182 192.528C333.651 193.166 333.268 193.915 333.062 194.72C332.856 195.524 332.831 196.365 332.99 197.18C334.54 204.98 341.34 213.61 341.34 213.61Z" fill="#FE3737"/>
<path d="M334.501 215.89C332.031 215.41 331.801 213.77 331.801 211.89C331.801 209.62 332.711 207.73 335.071 207.89" stroke="#1F1F1F" stroke-width="1.31" stroke-miterlimit="10"/>
<path d="M331.789 211.682L342.919 213.162" stroke="#1F1F1F" stroke-width="1.31" stroke-miterlimit="10"/>
<path d="M347.529 214.291C347.529 214.291 353.379 214.221 350.459 220.771" stroke="#1F1F1F" stroke-width="1.31" stroke-miterlimit="10"/>
<path d="M339.461 214.361L343.391 211.521C343.391 211.521 348.021 211.741 348.721 213.881C349.247 215.016 349.384 216.292 349.111 217.511C348.571 219.031 339.461 214.361 339.461 214.361Z" fill="#FDC383"/>
<path d="M371.559 245.751L367.289 245.371" stroke="#3D54A8" stroke-width="1.91" stroke-miterlimit="10" stroke-linecap="round"/>
<path d="M361.3 244.831L357.03 244.441L355.14 247.751L353.16 243.891L345.42 244.151" stroke="#3D54A8" stroke-width="1.91" stroke-miterlimit="10" stroke-linecap="round"/>
</g>
<defs>
<clipPath id="clip0_974_2732">
<rect width="411.13" height="353.76" fill="white"/>
</clipPath>
</defs>
</svg>
