<svg width="503" height="500" viewBox="0 0 503 500" fill="none" xmlns="http://www.w3.org/2000/svg">
<path d="M198.075 213.772H174.409C174.415 214.407 174.429 214.804 174.433 214.934C174.434 214.96 174.435 214.975 174.435 214.979C175.708 230.396 183.015 245.21 190.254 254.796C225.274 289.161 225.713 307.482 226.026 320.558C226.034 320.872 226.041 321.184 226.049 321.492C227.604 329.107 243.589 329.491 251.387 328.732H259.23C279.515 329.377 280.359 323.884 280.874 320.537C280.975 319.881 281.063 319.307 281.283 318.878C282.116 294.949 297.802 277.963 308.764 266.093C311.037 263.633 313.107 261.391 314.799 259.354C329.948 241.591 332.562 214.979 332.562 210.756C330.422 132.398 264.224 128.145 256.369 127.64C255.858 127.607 255.594 127.59 255.61 127.57C254.948 127.57 254.291 127.575 253.64 127.586V213.772H229.838C230.407 215.456 230.715 217.26 230.715 219.135C230.715 228.39 223.212 235.893 213.957 235.893C204.702 235.893 197.199 228.39 197.199 219.135C197.199 217.26 197.507 215.456 198.075 213.772Z" fill="#FF3838"/>
<path fill-rule="evenodd" clip-rule="evenodd" d="M253 328.96V214H333.053C332.344 222.112 328.655 244.368 315.252 259.864C313.543 261.893 311.452 264.125 309.157 266.576C298.084 278.397 282.239 295.314 281.398 319.146C281.176 319.573 281.087 320.145 280.985 320.799C280.465 324.132 279.612 329.602 259.122 328.96H253Z" fill="#30D791"/>
<circle cx="258.78" cy="264.361" r="16" fill="#30D791"/>
<g filter="url(#filter0_d_879_2922)">
<path d="M226.693 324.375H280.319V351.187C280.319 365.995 268.314 378 253.506 378V378C238.698 378 226.693 365.996 226.693 351.187V324.375Z" fill="#033BFF"/>
<path d="M225.563 349.884C225.563 348.123 226.861 346.646 228.61 346.415L277.657 339.959C279.728 339.687 281.582 341.309 281.582 343.394V343.394C281.582 345.09 280.335 346.517 278.651 346.747L229.638 353.432C227.491 353.725 225.563 352.046 225.563 349.884V349.884Z" fill="#00ADFF"/>
<path d="M225.563 337.014C225.563 335.253 226.861 333.776 228.61 333.545L277.657 327.089C279.728 326.817 281.582 328.439 281.582 330.524V330.524C281.582 332.22 280.335 333.647 278.651 333.877L229.638 340.562C227.491 340.855 225.563 339.176 225.563 337.014V337.014Z" fill="#00ADFF"/>
<path d="M229.331 364.634C228.359 362.561 229.632 360.16 231.887 359.812L276.852 352.874C279.075 352.531 281.024 354.429 280.732 356.652V356.652C280.541 358.106 279.42 359.254 277.968 359.484L233.034 366.604C231.505 366.846 229.99 366.04 229.331 364.634V364.634Z" fill="#00ADFF"/>
</g>
<path fill-rule="evenodd" clip-rule="evenodd" d="M253 184.535V214H332.83C334.893 183.203 318.785 128.417 253 127V151.043C253.213 151.035 253.427 151.031 253.641 151.031C262.896 151.031 270.399 158.534 270.399 167.789C270.399 177.044 262.896 184.547 253.641 184.547C253.427 184.547 253.213 184.543 253 184.535Z" fill="#FFDF30"/>
<path d="M140.085 166.171H163.67C163.119 167.836 162.821 169.617 162.821 171.469C162.821 180.727 170.284 188.233 179.49 188.233C188.696 188.233 196.159 180.727 196.159 171.469C196.159 169.617 195.861 167.836 195.31 166.171H218.829V137.268C218.778 137.268 218.728 137.268 218.677 137.268C209.471 137.268 202.008 129.763 202.008 120.504C202.008 111.245 209.471 103.739 218.677 103.739C218.728 103.739 218.778 103.739 218.829 103.74V80C152.633 81.7167 138.751 138.163 140.085 166.171Z" fill="#00ADFF"/>
<circle cx="253.864" cy="167.588" r="16.8919" fill="#FFDF30"/>
<circle cx="293.279" cy="205.125" r="16.8919" fill="#30D791"/>
<path d="M360.009 113.899L355.679 118.513H360.009V113.899Z" fill="#B98749"/>
<path d="M311.491 114.964H323.598L325.277 117.626C312.051 117.863 284.554 118.336 280.383 118.336C274.868 119.898 278.085 123.483 280.383 125.081H301.593L303.891 126.856C297.41 126.797 283.282 126.714 278.615 126.856C273.879 129.341 276.642 132.92 278.615 134.399H302.212L303.891 136.529H280.383C275.222 139.085 278.232 142.15 280.383 143.363H303.891L304.775 144.872C299.089 144.901 286.658 144.943 282.416 144.872C277.749 147.57 280.471 150.492 282.416 151.616H334.734C340.248 152.042 347.519 148.067 350.465 146.025H359.744L360.186 118.336H351.525L329.873 106C322.862 106.207 308.38 106.745 306.542 107.242C304.845 110.579 309.134 113.78 311.491 114.964Z" fill="#7A4400"/>
<path d="M359.39 149.309L359.832 113.987H503V162L359.39 149.309Z" fill="#FFDF30"/>
<path d="M334.101 357.009L329.487 352.679V357.009H334.101Z" fill="#99CE79"/>
<path d="M333.036 308.491V320.598L330.374 322.277C330.137 309.051 329.664 281.554 329.664 277.383C328.102 271.868 324.517 275.085 322.919 277.383V298.593L321.144 300.891C321.203 294.41 321.286 280.282 321.144 275.615C318.659 270.879 315.08 273.642 313.601 275.615V299.212L311.471 300.891V277.383C308.915 272.222 305.85 275.232 304.637 277.383V300.891L303.128 301.775C303.099 296.089 303.057 283.658 303.128 279.416C300.43 274.749 297.508 277.471 296.384 279.416V331.734C295.958 337.248 299.933 344.519 301.975 347.465V356.744L329.664 357.186V348.525L342 326.873C341.793 319.862 341.255 305.38 340.758 303.542C337.421 301.845 334.22 306.134 333.036 308.491Z" fill="#FFD1BB"/>
<path d="M298.691 356.39L334.013 356.832V500H286L298.691 356.39Z" fill="#30D791"/>
<path d="M142.991 326.101L147.321 321.487H142.991V326.101Z" fill="#FF3838"/>
<path d="M191.509 325.036H179.402L177.723 322.374C190.949 322.137 218.446 321.664 222.617 321.664C228.132 320.102 224.915 316.517 222.617 314.919H201.407L199.109 313.144C205.59 313.203 219.718 313.286 224.385 313.144C229.121 310.659 226.358 307.08 224.385 305.601H200.788L199.109 303.471H222.617C227.778 300.915 224.768 297.85 222.617 296.637H199.109L198.225 295.128C203.911 295.099 216.342 295.057 220.584 295.128C225.251 292.43 222.529 289.508 220.584 288.384H168.266C162.752 287.958 155.481 291.933 152.535 293.975H143.256L142.814 321.664H151.475L173.127 334C180.138 333.793 194.62 333.255 196.458 332.758C198.155 329.421 193.866 326.22 191.509 325.036Z" fill="#FEC484"/>
<path d="M143.61 290.691L143.168 326.013H0V278L143.61 290.691Z" fill="#FF3838"/>
<path d="M131.899 45.9911L136.513 50.3215V45.9911H131.899Z" fill="#00ADFF"/>
<path d="M132.964 94.509V82.4016L135.626 80.7225C135.863 93.9494 136.336 121.446 136.336 125.617C137.898 131.132 141.483 127.915 143.081 125.617V104.407L144.856 102.109C144.797 108.59 144.714 122.718 144.856 127.385C147.341 132.121 150.92 129.358 152.399 127.385V103.788L154.529 102.109V125.617C157.085 130.778 160.15 127.768 161.363 125.617V102.109L162.872 101.225C162.901 106.911 162.943 119.342 162.872 123.584C165.57 128.251 168.492 125.529 169.616 123.584V71.2662C170.042 65.7516 166.067 58.4812 164.025 55.5354V46.256L136.336 45.8143V54.4749L124 76.1268C124.207 83.1379 124.745 97.6198 125.242 99.458C128.579 101.155 131.78 96.8656 132.964 94.509Z" fill="#FFD1BB"/>
<path d="M167.309 46.6097L131.987 46.1678L131.899 0H169.616L167.309 46.6097Z" fill="#00ADFF"/>
<defs>
<filter id="filter0_d_879_2922" x="187.562" y="280.375" width="116.02" height="113.625" filterUnits="userSpaceOnUse" color-interpolation-filters="sRGB">
<feFlood flood-opacity="0" result="BackgroundImageFix"/>
<feColorMatrix in="SourceAlpha" type="matrix" values="0 0 0 0 0 0 0 0 0 0 0 0 0 0 0 0 0 0 127 0" result="hardAlpha"/>
<feOffset dx="-8" dy="-14"/>
<feGaussianBlur stdDeviation="15"/>
<feComposite in2="hardAlpha" operator="out"/>
<feColorMatrix type="matrix" values="0 0 0 0 0 0 0 0 0 0 0 0 0 0 0 0 0 0 0.25 0"/>
<feBlend mode="normal" in2="BackgroundImageFix" result="effect1_dropShadow_879_2922"/>
<feBlend mode="normal" in="SourceGraphic" in2="effect1_dropShadow_879_2922" result="shape"/>
</filter>
</defs>
</svg>
