<svg width="489" height="343" viewBox="0 0 489 343" fill="none" xmlns="http://www.w3.org/2000/svg">
<g filter="url(#filter0_i_929_2740)">
<rect x="47" y="57" width="280" height="56.4495" rx="28.2248" fill="#153800"/>
</g>
<rect x="49.5" y="59.5" width="275" height="51.4495" rx="25.7248" stroke="#00B84C" stroke-width="5"/>
<path d="M290.338 91.1265L295.817 96.7927L294.007 98.6652L288.529 92.9976C286.491 94.6877 283.956 95.607 281.344 95.6031C274.989 95.6031 269.831 90.2677 269.831 83.6938C269.831 77.1198 274.989 71.7844 281.344 71.7844C287.699 71.7844 292.857 77.1198 292.857 83.6938C292.861 86.3959 291.972 89.0182 290.338 91.1265ZM287.772 90.1447C289.396 88.4177 290.302 86.1027 290.299 83.6938C290.299 78.5754 286.291 74.4309 281.344 74.4309C276.396 74.4309 272.389 78.5754 272.389 83.6938C272.389 88.8108 276.396 92.9566 281.344 92.9566C283.673 92.9604 285.911 92.0225 287.58 90.3432L287.772 90.1447Z" fill="white"/>
<path d="M79.4189 75.2266V93H77.063V75.2266H79.4189ZM90.1489 75.2266L82.7637 83.5151L78.6133 87.8242L78.2227 85.3096L81.3477 81.8672L87.3169 75.2266H90.1489ZM87.8784 93L81.2988 84.333L82.7026 82.4653L90.686 93H87.8784ZM97.583 93.2441C96.6634 93.2441 95.8293 93.0895 95.0806 92.7803C94.34 92.4629 93.7012 92.0194 93.1641 91.4497C92.6351 90.88 92.2282 90.2046 91.9434 89.4233C91.6585 88.6421 91.5161 87.7876 91.5161 86.8599V86.3472C91.5161 85.2729 91.6748 84.3167 91.9922 83.4785C92.3096 82.6322 92.7409 81.916 93.2861 81.3301C93.8314 80.7441 94.4499 80.3006 95.1416 79.9995C95.8333 79.6984 96.5495 79.5479 97.29 79.5479C98.234 79.5479 99.0479 79.7106 99.7314 80.0361C100.423 80.3617 100.989 80.8174 101.428 81.4033C101.868 81.9811 102.193 82.6647 102.405 83.4541C102.616 84.2354 102.722 85.0898 102.722 86.0176V87.0308H92.8589V85.1875H100.464V85.0166C100.431 84.4307 100.309 83.861 100.098 83.3076C99.8942 82.7542 99.5687 82.2985 99.1211 81.9404C98.6735 81.5824 98.0632 81.4033 97.29 81.4033C96.7773 81.4033 96.3053 81.5132 95.874 81.7329C95.4427 81.9445 95.0724 82.2619 94.7632 82.6851C94.4539 83.1082 94.2139 83.625 94.043 84.2354C93.8721 84.8457 93.7866 85.5496 93.7866 86.3472V86.8599C93.7866 87.4865 93.8721 88.0765 94.043 88.6299C94.222 89.1751 94.4784 89.6553 94.812 90.0703C95.1538 90.4854 95.5648 90.8109 96.0449 91.0469C96.5332 91.2829 97.0866 91.4009 97.7051 91.4009C98.5026 91.4009 99.1781 91.2381 99.7314 90.9126C100.285 90.5871 100.769 90.1517 101.184 89.6064L102.551 90.6929C102.266 91.1242 101.904 91.5352 101.465 91.9258C101.025 92.3164 100.484 92.6338 99.8413 92.8779C99.2065 93.1221 98.4538 93.2441 97.583 93.2441ZM108.899 91.6328L112.573 79.792H114.99L109.692 95.0386C109.57 95.3641 109.408 95.714 109.204 96.0884C109.009 96.4709 108.757 96.833 108.447 97.1748C108.138 97.5166 107.764 97.7933 107.324 98.0049C106.893 98.2246 106.376 98.3345 105.774 98.3345C105.595 98.3345 105.367 98.3101 105.09 98.2612C104.814 98.2124 104.618 98.1717 104.504 98.1392L104.492 96.3081C104.557 96.3162 104.659 96.3244 104.797 96.3325C104.944 96.3488 105.046 96.3569 105.103 96.3569C105.615 96.3569 106.051 96.2878 106.409 96.1494C106.767 96.0192 107.068 95.7954 107.312 95.478C107.564 95.1688 107.78 94.7415 107.959 94.1963L108.899 91.6328ZM106.201 79.792L109.631 90.0459L110.217 92.4263L108.594 93.2563L103.735 79.792H106.201ZM120.374 90.6562L123.767 79.792H125.256L124.963 81.9526L121.509 93H120.056L120.374 90.6562ZM118.091 79.792L120.984 90.7783L121.191 93H119.666L115.833 79.792H118.091ZM128.503 90.6929L131.262 79.792H133.508L129.675 93H128.162L128.503 90.6929ZM125.586 79.792L128.906 90.4731L129.285 93H127.844L124.292 81.9282L123.999 79.792H125.586ZM135.229 86.5425V86.2617C135.229 85.3096 135.368 84.4266 135.645 83.6128C135.921 82.7909 136.32 82.0788 136.841 81.4766C137.362 80.8662 137.992 80.3942 138.733 80.0605C139.473 79.7188 140.304 79.5479 141.223 79.5479C142.151 79.5479 142.985 79.7188 143.726 80.0605C144.474 80.3942 145.109 80.8662 145.63 81.4766C146.159 82.0788 146.562 82.7909 146.838 83.6128C147.115 84.4266 147.253 85.3096 147.253 86.2617V86.5425C147.253 87.4946 147.115 88.3776 146.838 89.1914C146.562 90.0052 146.159 90.7173 145.63 91.3276C145.109 91.9299 144.478 92.4019 143.738 92.7437C143.005 93.0773 142.175 93.2441 141.248 93.2441C140.32 93.2441 139.486 93.0773 138.745 92.7437C138.005 92.4019 137.37 91.9299 136.841 91.3276C136.32 90.7173 135.921 90.0052 135.645 89.1914C135.368 88.3776 135.229 87.4946 135.229 86.5425ZM137.488 86.2617V86.5425C137.488 87.2017 137.565 87.8242 137.72 88.4102C137.874 88.988 138.106 89.5007 138.416 89.9482C138.733 90.3958 139.128 90.7498 139.6 91.0103C140.072 91.2625 140.621 91.3887 141.248 91.3887C141.866 91.3887 142.407 91.2625 142.871 91.0103C143.343 90.7498 143.734 90.3958 144.043 89.9482C144.352 89.5007 144.584 88.988 144.739 88.4102C144.902 87.8242 144.983 87.2017 144.983 86.5425V86.2617C144.983 85.6107 144.902 84.9963 144.739 84.4185C144.584 83.8325 144.348 83.3158 144.031 82.8682C143.722 82.4124 143.331 82.0544 142.859 81.7939C142.395 81.5335 141.85 81.4033 141.223 81.4033C140.605 81.4033 140.059 81.5335 139.587 81.7939C139.124 82.0544 138.733 82.4124 138.416 82.8682C138.106 83.3158 137.874 83.8325 137.72 84.4185C137.565 84.9963 137.488 85.6107 137.488 86.2617ZM152.344 81.8672V93H150.085V79.792H152.283L152.344 81.8672ZM156.47 79.7188L156.458 81.8184C156.27 81.7777 156.091 81.7533 155.92 81.7451C155.758 81.7288 155.57 81.7207 155.359 81.7207C154.838 81.7207 154.378 81.8021 153.979 81.9648C153.581 82.1276 153.243 82.3555 152.966 82.6484C152.69 82.9414 152.47 83.2913 152.307 83.6982C152.153 84.097 152.051 84.5365 152.002 85.0166L151.367 85.3828C151.367 84.5853 151.444 83.8366 151.599 83.1367C151.762 82.4368 152.01 81.8184 152.344 81.2812C152.677 80.736 153.101 80.3128 153.613 80.0117C154.134 79.7025 154.753 79.5479 155.469 79.5479C155.632 79.5479 155.819 79.5682 156.03 79.6089C156.242 79.6414 156.388 79.6781 156.47 79.7188ZM166.638 90.4365V74.25H168.909V93H166.833L166.638 90.4365ZM157.751 86.5425V86.2861C157.751 85.277 157.874 84.3615 158.118 83.5396C158.37 82.7095 158.724 81.9974 159.18 81.4033C159.644 80.8092 160.193 80.3535 160.828 80.0361C161.471 79.7106 162.187 79.5479 162.976 79.5479C163.806 79.5479 164.53 79.6943 165.149 79.9873C165.776 80.2721 166.305 80.6912 166.736 81.2446C167.175 81.7899 167.521 82.4491 167.773 83.2222C168.026 83.9953 168.201 84.8701 168.298 85.8467V86.9697C168.209 87.9382 168.034 88.8089 167.773 89.582C167.521 90.3551 167.175 91.0143 166.736 91.5596C166.305 92.1048 165.776 92.5239 165.149 92.8169C164.522 93.1017 163.79 93.2441 162.952 93.2441C162.179 93.2441 161.471 93.0773 160.828 92.7437C160.193 92.41 159.644 91.9421 159.18 91.3398C158.724 90.7376 158.37 90.0296 158.118 89.2158C157.874 88.3939 157.751 87.5028 157.751 86.5425ZM160.022 86.2861V86.5425C160.022 87.2017 160.087 87.8201 160.217 88.3979C160.356 88.9757 160.567 89.4844 160.852 89.9238C161.137 90.3633 161.499 90.7091 161.938 90.9614C162.378 91.2056 162.903 91.3276 163.513 91.3276C164.262 91.3276 164.876 91.1689 165.356 90.8516C165.845 90.5342 166.235 90.1151 166.528 89.5942C166.821 89.0734 167.049 88.5078 167.212 87.8975V84.9556C167.114 84.508 166.972 84.0767 166.785 83.6616C166.606 83.2384 166.37 82.8641 166.077 82.5386C165.792 82.2049 165.438 81.9404 165.015 81.7451C164.6 81.5498 164.107 81.4521 163.538 81.4521C162.919 81.4521 162.386 81.5824 161.938 81.8428C161.499 82.0951 161.137 82.445 160.852 82.8926C160.567 83.332 160.356 83.8447 160.217 84.4307C160.087 85.0085 160.022 85.627 160.022 86.2861ZM188.44 88.5078C188.44 88.0928 188.375 87.7266 188.245 87.4092C188.123 87.0837 187.903 86.7907 187.585 86.5303C187.276 86.2699 186.845 86.0216 186.292 85.7856C185.746 85.5496 185.055 85.3096 184.216 85.0654C183.337 84.805 182.544 84.5161 181.836 84.1987C181.128 83.8732 180.522 83.5029 180.017 83.0879C179.513 82.6729 179.126 82.1968 178.857 81.6597C178.589 81.1226 178.455 80.5081 178.455 79.8164C178.455 79.1247 178.597 78.4858 178.882 77.8999C179.167 77.314 179.574 76.8053 180.103 76.374C180.64 75.9346 181.278 75.5928 182.019 75.3486C182.76 75.1045 183.586 74.9824 184.497 74.9824C185.832 74.9824 186.963 75.2388 187.891 75.7515C188.826 76.256 189.539 76.9193 190.027 77.7412C190.515 78.555 190.759 79.4258 190.759 80.3535H188.416C188.416 79.6862 188.273 79.0962 187.988 78.5835C187.703 78.0627 187.272 77.6558 186.694 77.3628C186.117 77.0617 185.384 76.9111 184.497 76.9111C183.659 76.9111 182.967 77.0373 182.422 77.2896C181.877 77.5418 181.47 77.8836 181.201 78.3149C180.941 78.7463 180.811 79.2386 180.811 79.792C180.811 80.1663 180.888 80.5081 181.042 80.8174C181.205 81.1185 181.453 81.3993 181.787 81.6597C182.129 81.9201 182.56 82.1602 183.081 82.3799C183.61 82.5996 184.241 82.8112 184.973 83.0146C185.982 83.2995 186.853 83.6169 187.585 83.9668C188.318 84.3167 188.92 84.7114 189.392 85.1509C189.872 85.5822 190.226 86.0745 190.454 86.6279C190.69 87.1732 190.808 87.7917 190.808 88.4834C190.808 89.2077 190.662 89.8628 190.369 90.4487C190.076 91.0347 189.657 91.5352 189.111 91.9502C188.566 92.3652 187.911 92.6867 187.146 92.9146C186.389 93.1343 185.543 93.2441 184.607 93.2441C183.785 93.2441 182.975 93.1302 182.178 92.9023C181.388 92.6745 180.668 92.3327 180.017 91.877C179.374 91.4212 178.857 90.8597 178.467 90.1924C178.084 89.5169 177.893 88.7357 177.893 87.8486H180.237C180.237 88.459 180.355 88.9839 180.591 89.4233C180.827 89.8547 181.148 90.2127 181.555 90.4976C181.97 90.7824 182.438 90.994 182.959 91.1323C183.488 91.2625 184.037 91.3276 184.607 91.3276C185.429 91.3276 186.125 91.2137 186.694 90.9858C187.264 90.758 187.695 90.4325 187.988 90.0093C188.289 89.5861 188.44 89.0856 188.44 88.5078ZM198.95 93.2441C198.031 93.2441 197.196 93.0895 196.448 92.7803C195.707 92.4629 195.068 92.0194 194.531 91.4497C194.002 90.88 193.595 90.2046 193.311 89.4233C193.026 88.6421 192.883 87.7876 192.883 86.8599V86.3472C192.883 85.2729 193.042 84.3167 193.359 83.4785C193.677 82.6322 194.108 81.916 194.653 81.3301C195.199 80.7441 195.817 80.3006 196.509 79.9995C197.201 79.6984 197.917 79.5479 198.657 79.5479C199.601 79.5479 200.415 79.7106 201.099 80.0361C201.79 80.3617 202.356 80.8174 202.795 81.4033C203.235 81.9811 203.56 82.6647 203.772 83.4541C203.984 84.2354 204.089 85.0898 204.089 86.0176V87.0308H194.226V85.1875H201.831V85.0166C201.799 84.4307 201.676 83.861 201.465 83.3076C201.261 82.7542 200.936 82.2985 200.488 81.9404C200.041 81.5824 199.43 81.4033 198.657 81.4033C198.145 81.4033 197.673 81.5132 197.241 81.7329C196.81 81.9445 196.44 82.2619 196.13 82.6851C195.821 83.1082 195.581 83.625 195.41 84.2354C195.239 84.8457 195.154 85.5496 195.154 86.3472V86.8599C195.154 87.4865 195.239 88.0765 195.41 88.6299C195.589 89.1751 195.846 89.6553 196.179 90.0703C196.521 90.4854 196.932 90.8109 197.412 91.0469C197.9 91.2829 198.454 91.4009 199.072 91.4009C199.87 91.4009 200.545 91.2381 201.099 90.9126C201.652 90.5871 202.136 90.1517 202.551 89.6064L203.918 90.6929C203.634 91.1242 203.271 91.5352 202.832 91.9258C202.393 92.3164 201.851 92.6338 201.208 92.8779C200.574 93.1221 199.821 93.2441 198.95 93.2441ZM214.514 90.7417V83.9424C214.514 83.4215 214.408 82.9699 214.197 82.5874C213.993 82.1968 213.684 81.8957 213.269 81.6841C212.854 81.4725 212.341 81.3667 211.731 81.3667C211.161 81.3667 210.661 81.4644 210.229 81.6597C209.806 81.855 209.473 82.1113 209.229 82.4287C208.993 82.7461 208.875 83.0879 208.875 83.4541H206.616C206.616 82.9821 206.738 82.5142 206.982 82.0503C207.227 81.5864 207.576 81.1673 208.032 80.793C208.496 80.4105 209.049 80.1094 209.692 79.8896C210.343 79.6618 211.068 79.5479 211.865 79.5479C212.826 79.5479 213.672 79.7106 214.404 80.0361C215.145 80.3617 215.723 80.854 216.138 81.5132C216.561 82.1642 216.772 82.9821 216.772 83.9668V90.1191C216.772 90.5586 216.809 91.0265 216.882 91.5229C216.964 92.0194 217.082 92.4466 217.236 92.8047V93H214.88C214.766 92.7396 214.677 92.3937 214.612 91.9624C214.547 91.5229 214.514 91.116 214.514 90.7417ZM214.905 84.9922L214.929 86.5791H212.646C212.004 86.5791 211.43 86.632 210.925 86.7378C210.421 86.8354 209.998 86.986 209.656 87.1895C209.314 87.3929 209.054 87.6493 208.875 87.9585C208.695 88.2596 208.606 88.6136 208.606 89.0205C208.606 89.4355 208.7 89.814 208.887 90.1558C209.074 90.4976 209.355 90.7702 209.729 90.9736C210.111 91.1689 210.579 91.2666 211.133 91.2666C211.825 91.2666 212.435 91.1201 212.964 90.8271C213.493 90.5342 213.912 90.1761 214.221 89.7529C214.539 89.3298 214.709 88.9188 214.734 88.52L215.698 89.6064C215.641 89.9482 215.487 90.3267 215.234 90.7417C214.982 91.1567 214.644 91.5555 214.221 91.938C213.806 92.3123 213.31 92.6257 212.732 92.8779C212.162 93.1221 211.519 93.2441 210.803 93.2441C209.908 93.2441 209.123 93.0692 208.447 92.7192C207.78 92.3693 207.259 91.9014 206.885 91.3154C206.519 90.7214 206.335 90.0581 206.335 89.3257C206.335 88.6177 206.474 87.9951 206.75 87.458C207.027 86.9128 207.426 86.4611 207.947 86.103C208.468 85.7368 209.094 85.4601 209.827 85.2729C210.559 85.0858 211.377 84.9922 212.28 84.9922H214.905ZM222.583 81.8672V93H220.325V79.792H222.522L222.583 81.8672ZM226.709 79.7188L226.697 81.8184C226.51 81.7777 226.331 81.7533 226.16 81.7451C225.997 81.7288 225.81 81.7207 225.598 81.7207C225.077 81.7207 224.618 81.8021 224.219 81.9648C223.82 82.1276 223.482 82.3555 223.206 82.6484C222.929 82.9414 222.709 83.2913 222.546 83.6982C222.392 84.097 222.29 84.5365 222.241 85.0166L221.606 85.3828C221.606 84.5853 221.684 83.8366 221.838 83.1367C222.001 82.4368 222.249 81.8184 222.583 81.2812C222.917 80.736 223.34 80.3128 223.853 80.0117C224.373 79.7025 224.992 79.5479 225.708 79.5479C225.871 79.5479 226.058 79.5682 226.27 79.6089C226.481 79.6414 226.628 79.6781 226.709 79.7188ZM233.838 91.3887C234.375 91.3887 234.871 91.2788 235.327 91.0591C235.783 90.8394 236.157 90.5382 236.45 90.1558C236.743 89.7651 236.91 89.3216 236.951 88.8252H239.099C239.058 89.6064 238.794 90.3348 238.306 91.0103C237.826 91.6776 237.195 92.2188 236.414 92.6338C235.632 93.0407 234.774 93.2441 233.838 93.2441C232.845 93.2441 231.978 93.0692 231.238 92.7192C230.505 92.3693 229.895 91.8892 229.407 91.2788C228.927 90.6685 228.564 89.9686 228.32 89.1792C228.084 88.3817 227.966 87.5394 227.966 86.6523V86.1396C227.966 85.2526 228.084 84.4144 228.32 83.625C228.564 82.8275 228.927 82.1235 229.407 81.5132C229.895 80.9028 230.505 80.4227 231.238 80.0728C231.978 79.7228 232.845 79.5479 233.838 79.5479C234.871 79.5479 235.775 79.7594 236.548 80.1826C237.321 80.5977 237.927 81.1673 238.367 81.8916C238.814 82.6077 239.058 83.4215 239.099 84.333H236.951C236.91 83.7878 236.755 83.2954 236.487 82.856C236.226 82.4165 235.868 82.0666 235.413 81.8062C234.965 81.5376 234.44 81.4033 233.838 81.4033C233.146 81.4033 232.564 81.5417 232.092 81.8184C231.628 82.0869 231.258 82.4531 230.981 82.917C230.713 83.3727 230.518 83.8813 230.396 84.4429C230.282 84.9963 230.225 85.5618 230.225 86.1396V86.6523C230.225 87.2301 230.282 87.7998 230.396 88.3613C230.509 88.9229 230.701 89.4315 230.969 89.8872C231.246 90.3429 231.616 90.7091 232.08 90.9858C232.552 91.2544 233.138 91.3887 233.838 91.3887ZM243.896 74.25V93H241.638V74.25H243.896ZM243.359 85.8955L242.419 85.8589C242.428 84.9556 242.562 84.1214 242.822 83.3564C243.083 82.5833 243.449 81.9119 243.921 81.3423C244.393 80.7726 244.954 80.3332 245.605 80.0239C246.265 79.7065 246.993 79.5479 247.791 79.5479C248.442 79.5479 249.028 79.6374 249.548 79.8164C250.069 79.9873 250.513 80.264 250.879 80.6465C251.253 81.029 251.538 81.5254 251.733 82.1357C251.929 82.738 252.026 83.4744 252.026 84.3452V93H249.756V84.3208C249.756 83.6291 249.654 83.0757 249.451 82.6606C249.247 82.2375 248.95 81.9323 248.56 81.7451C248.169 81.5498 247.689 81.4521 247.119 81.4521C246.558 81.4521 246.045 81.5701 245.581 81.8062C245.125 82.0422 244.731 82.3677 244.397 82.7827C244.071 83.1978 243.815 83.6738 243.628 84.2109C243.449 84.7399 243.359 85.3014 243.359 85.8955Z" fill="white"/>
<path d="M89.3545 333.083V335H79.9429V333.083H89.3545ZM80.4189 317.227V335H78.063V317.227H80.4189ZM88.1094 324.868V326.785H79.9429V324.868H88.1094ZM89.2324 317.227V319.155H79.9429V317.227H89.2324ZM93.4561 321.792L96.3491 326.602L99.2788 321.792H101.928L97.6064 328.311L102.062 335H99.4497L96.3979 330.044L93.3462 335H90.7217L95.165 328.311L90.856 321.792H93.4561ZM106.591 324.331V340.078H104.32V321.792H106.396L106.591 324.331ZM115.49 328.286V328.542C115.49 329.503 115.376 330.394 115.148 331.216C114.92 332.03 114.586 332.738 114.147 333.34C113.716 333.942 113.183 334.41 112.548 334.744C111.913 335.077 111.185 335.244 110.363 335.244C109.525 335.244 108.784 335.106 108.141 334.829C107.498 334.552 106.953 334.15 106.505 333.621C106.058 333.092 105.7 332.457 105.431 331.716C105.171 330.976 104.992 330.142 104.894 329.214V327.847C104.992 326.87 105.175 325.995 105.443 325.222C105.712 324.449 106.066 323.79 106.505 323.245C106.953 322.691 107.494 322.272 108.129 321.987C108.764 321.694 109.496 321.548 110.326 321.548C111.156 321.548 111.893 321.711 112.536 322.036C113.179 322.354 113.72 322.809 114.159 323.403C114.599 323.997 114.928 324.709 115.148 325.54C115.376 326.361 115.49 327.277 115.49 328.286ZM113.219 328.542V328.286C113.219 327.627 113.15 327.008 113.012 326.431C112.873 325.845 112.658 325.332 112.365 324.893C112.08 324.445 111.714 324.095 111.266 323.843C110.819 323.582 110.285 323.452 109.667 323.452C109.097 323.452 108.601 323.55 108.178 323.745C107.763 323.94 107.409 324.205 107.116 324.539C106.823 324.864 106.583 325.238 106.396 325.662C106.216 326.077 106.082 326.508 105.993 326.956V330.117C106.155 330.687 106.383 331.224 106.676 331.729C106.969 332.225 107.36 332.628 107.848 332.937C108.336 333.238 108.951 333.389 109.691 333.389C110.302 333.389 110.827 333.263 111.266 333.01C111.714 332.75 112.08 332.396 112.365 331.948C112.658 331.501 112.873 330.988 113.012 330.41C113.15 329.824 113.219 329.202 113.219 328.542ZM120.824 316.25V335H118.554V316.25H120.824ZM123.852 328.542V328.262C123.852 327.31 123.99 326.427 124.267 325.613C124.543 324.791 124.942 324.079 125.463 323.477C125.984 322.866 126.614 322.394 127.355 322.061C128.096 321.719 128.926 321.548 129.845 321.548C130.773 321.548 131.607 321.719 132.348 322.061C133.096 322.394 133.731 322.866 134.252 323.477C134.781 324.079 135.184 324.791 135.46 325.613C135.737 326.427 135.875 327.31 135.875 328.262V328.542C135.875 329.495 135.737 330.378 135.46 331.191C135.184 332.005 134.781 332.717 134.252 333.328C133.731 333.93 133.1 334.402 132.36 334.744C131.627 335.077 130.797 335.244 129.87 335.244C128.942 335.244 128.108 335.077 127.367 334.744C126.627 334.402 125.992 333.93 125.463 333.328C124.942 332.717 124.543 332.005 124.267 331.191C123.99 330.378 123.852 329.495 123.852 328.542ZM126.11 328.262V328.542C126.11 329.202 126.187 329.824 126.342 330.41C126.496 330.988 126.728 331.501 127.038 331.948C127.355 332.396 127.75 332.75 128.222 333.01C128.694 333.263 129.243 333.389 129.87 333.389C130.488 333.389 131.029 333.263 131.493 333.01C131.965 332.75 132.356 332.396 132.665 331.948C132.974 331.501 133.206 330.988 133.361 330.41C133.524 329.824 133.605 329.202 133.605 328.542V328.262C133.605 327.611 133.524 326.996 133.361 326.418C133.206 325.833 132.97 325.316 132.653 324.868C132.344 324.412 131.953 324.054 131.481 323.794C131.017 323.534 130.472 323.403 129.845 323.403C129.227 323.403 128.681 323.534 128.209 323.794C127.746 324.054 127.355 324.412 127.038 324.868C126.728 325.316 126.496 325.833 126.342 326.418C126.187 326.996 126.11 327.611 126.11 328.262ZM140.966 323.867V335H138.708V321.792H140.905L140.966 323.867ZM145.092 321.719L145.08 323.818C144.892 323.778 144.713 323.753 144.542 323.745C144.38 323.729 144.193 323.721 143.981 323.721C143.46 323.721 143 323.802 142.602 323.965C142.203 324.128 141.865 324.355 141.588 324.648C141.312 324.941 141.092 325.291 140.929 325.698C140.775 326.097 140.673 326.536 140.624 327.017L139.989 327.383C139.989 326.585 140.067 325.837 140.221 325.137C140.384 324.437 140.632 323.818 140.966 323.281C141.299 322.736 141.723 322.313 142.235 322.012C142.756 321.702 143.375 321.548 144.091 321.548C144.254 321.548 144.441 321.568 144.652 321.609C144.864 321.641 145.01 321.678 145.092 321.719ZM154.479 332.742V325.942C154.479 325.422 154.373 324.97 154.162 324.587C153.958 324.197 153.649 323.896 153.234 323.684C152.819 323.472 152.306 323.367 151.696 323.367C151.126 323.367 150.626 323.464 150.194 323.66C149.771 323.855 149.438 324.111 149.193 324.429C148.957 324.746 148.839 325.088 148.839 325.454H146.581C146.581 324.982 146.703 324.514 146.947 324.05C147.191 323.586 147.541 323.167 147.997 322.793C148.461 322.41 149.014 322.109 149.657 321.89C150.308 321.662 151.033 321.548 151.83 321.548C152.79 321.548 153.637 321.711 154.369 322.036C155.11 322.362 155.688 322.854 156.103 323.513C156.526 324.164 156.737 324.982 156.737 325.967V332.119C156.737 332.559 156.774 333.027 156.847 333.523C156.929 334.019 157.047 334.447 157.201 334.805V335H154.845C154.731 334.74 154.642 334.394 154.577 333.962C154.512 333.523 154.479 333.116 154.479 332.742ZM154.87 326.992L154.894 328.579H152.611C151.968 328.579 151.395 328.632 150.89 328.738C150.386 328.835 149.962 328.986 149.621 329.189C149.279 329.393 149.018 329.649 148.839 329.958C148.66 330.26 148.571 330.614 148.571 331.021C148.571 331.436 148.664 331.814 148.852 332.156C149.039 332.498 149.319 332.77 149.694 332.974C150.076 333.169 150.544 333.267 151.098 333.267C151.789 333.267 152.4 333.12 152.929 332.827C153.458 332.534 153.877 332.176 154.186 331.753C154.503 331.33 154.674 330.919 154.699 330.52L155.663 331.606C155.606 331.948 155.451 332.327 155.199 332.742C154.947 333.157 154.609 333.556 154.186 333.938C153.771 334.312 153.275 334.626 152.697 334.878C152.127 335.122 151.484 335.244 150.768 335.244C149.873 335.244 149.088 335.069 148.412 334.719C147.745 334.369 147.224 333.901 146.85 333.315C146.483 332.721 146.3 332.058 146.3 331.326C146.3 330.618 146.439 329.995 146.715 329.458C146.992 328.913 147.391 328.461 147.912 328.103C148.432 327.737 149.059 327.46 149.792 327.273C150.524 327.086 151.342 326.992 152.245 326.992H154.87ZM165.819 321.792V323.525H158.678V321.792H165.819ZM161.095 318.582H163.354V331.729C163.354 332.176 163.423 332.514 163.561 332.742C163.699 332.97 163.878 333.12 164.098 333.193C164.318 333.267 164.554 333.303 164.806 333.303C164.993 333.303 165.189 333.287 165.392 333.254C165.604 333.214 165.762 333.181 165.868 333.157L165.88 335C165.701 335.057 165.465 335.11 165.172 335.159C164.888 335.216 164.542 335.244 164.135 335.244C163.581 335.244 163.073 335.134 162.609 334.915C162.145 334.695 161.775 334.329 161.498 333.816C161.229 333.295 161.095 332.595 161.095 331.716V318.582ZM167.626 328.542V328.262C167.626 327.31 167.764 326.427 168.041 325.613C168.318 324.791 168.716 324.079 169.237 323.477C169.758 322.866 170.389 322.394 171.129 322.061C171.87 321.719 172.7 321.548 173.62 321.548C174.547 321.548 175.382 321.719 176.122 322.061C176.871 322.394 177.506 322.866 178.026 323.477C178.555 324.079 178.958 324.791 179.235 325.613C179.512 326.427 179.65 327.31 179.65 328.262V328.542C179.65 329.495 179.512 330.378 179.235 331.191C178.958 332.005 178.555 332.717 178.026 333.328C177.506 333.93 176.875 334.402 176.134 334.744C175.402 335.077 174.572 335.244 173.644 335.244C172.716 335.244 171.882 335.077 171.142 334.744C170.401 334.402 169.766 333.93 169.237 333.328C168.716 332.717 168.318 332.005 168.041 331.191C167.764 330.378 167.626 329.495 167.626 328.542ZM169.884 328.262V328.542C169.884 329.202 169.962 329.824 170.116 330.41C170.271 330.988 170.503 331.501 170.812 331.948C171.129 332.396 171.524 332.75 171.996 333.01C172.468 333.263 173.017 333.389 173.644 333.389C174.263 333.389 174.804 333.263 175.268 333.01C175.74 332.75 176.13 332.396 176.439 331.948C176.749 331.501 176.981 330.988 177.135 330.41C177.298 329.824 177.379 329.202 177.379 328.542V328.262C177.379 327.611 177.298 326.996 177.135 326.418C176.981 325.833 176.745 325.316 176.427 324.868C176.118 324.412 175.727 324.054 175.255 323.794C174.792 323.534 174.246 323.403 173.62 323.403C173.001 323.403 172.456 323.534 171.984 323.794C171.52 324.054 171.129 324.412 170.812 324.868C170.503 325.316 170.271 325.833 170.116 326.418C169.962 326.996 169.884 327.611 169.884 328.262ZM184.74 323.867V335H182.482V321.792H184.679L184.74 323.867ZM188.866 321.719L188.854 323.818C188.667 323.778 188.488 323.753 188.317 323.745C188.154 323.729 187.967 323.721 187.755 323.721C187.235 323.721 186.775 323.802 186.376 323.965C185.977 324.128 185.639 324.355 185.363 324.648C185.086 324.941 184.866 325.291 184.704 325.698C184.549 326.097 184.447 326.536 184.398 327.017L183.764 327.383C183.764 326.585 183.841 325.837 183.996 325.137C184.158 324.437 184.407 323.818 184.74 323.281C185.074 322.736 185.497 322.313 186.01 322.012C186.531 321.702 187.149 321.548 187.865 321.548C188.028 321.548 188.215 321.568 188.427 321.609C188.638 321.641 188.785 321.678 188.866 321.719ZM194.884 333.633L198.559 321.792H200.976L195.678 337.039C195.556 337.364 195.393 337.714 195.189 338.088C194.994 338.471 194.742 338.833 194.433 339.175C194.123 339.517 193.749 339.793 193.31 340.005C192.878 340.225 192.361 340.334 191.759 340.334C191.58 340.334 191.352 340.31 191.076 340.261C190.799 340.212 190.604 340.172 190.49 340.139L190.478 338.308C190.543 338.316 190.644 338.324 190.783 338.333C190.929 338.349 191.031 338.357 191.088 338.357C191.601 338.357 192.036 338.288 192.394 338.149C192.752 338.019 193.053 337.795 193.297 337.478C193.55 337.169 193.765 336.742 193.944 336.196L194.884 333.633ZM192.187 321.792L195.617 332.046L196.203 334.426L194.579 335.256L189.721 321.792H192.187ZM219.03 330.508C219.03 330.093 218.965 329.727 218.834 329.409C218.712 329.084 218.493 328.791 218.175 328.53C217.866 328.27 217.435 328.022 216.881 327.786C216.336 327.55 215.644 327.31 214.806 327.065C213.927 326.805 213.134 326.516 212.426 326.199C211.718 325.873 211.111 325.503 210.607 325.088C210.102 324.673 209.716 324.197 209.447 323.66C209.179 323.123 209.044 322.508 209.044 321.816C209.044 321.125 209.187 320.486 209.472 319.9C209.757 319.314 210.163 318.805 210.692 318.374C211.229 317.935 211.868 317.593 212.609 317.349C213.349 317.104 214.175 316.982 215.087 316.982C216.422 316.982 217.553 317.239 218.48 317.751C219.416 318.256 220.128 318.919 220.617 319.741C221.105 320.555 221.349 321.426 221.349 322.354H219.005C219.005 321.686 218.863 321.096 218.578 320.583C218.293 320.063 217.862 319.656 217.284 319.363C216.706 319.062 215.974 318.911 215.087 318.911C214.249 318.911 213.557 319.037 213.012 319.29C212.466 319.542 212.06 319.884 211.791 320.315C211.531 320.746 211.4 321.239 211.4 321.792C211.4 322.166 211.478 322.508 211.632 322.817C211.795 323.118 212.043 323.399 212.377 323.66C212.719 323.92 213.15 324.16 213.671 324.38C214.2 324.6 214.831 324.811 215.563 325.015C216.572 325.299 217.443 325.617 218.175 325.967C218.908 326.317 219.51 326.711 219.982 327.151C220.462 327.582 220.816 328.075 221.044 328.628C221.28 329.173 221.398 329.792 221.398 330.483C221.398 331.208 221.251 331.863 220.958 332.449C220.666 333.035 220.246 333.535 219.701 333.95C219.156 334.365 218.501 334.687 217.736 334.915C216.979 335.134 216.133 335.244 215.197 335.244C214.375 335.244 213.565 335.13 212.768 334.902C211.978 334.674 211.258 334.333 210.607 333.877C209.964 333.421 209.447 332.86 209.057 332.192C208.674 331.517 208.483 330.736 208.483 329.849H210.827C210.827 330.459 210.945 330.984 211.181 331.423C211.417 331.855 211.738 332.213 212.145 332.498C212.56 332.782 213.028 332.994 213.549 333.132C214.078 333.263 214.627 333.328 215.197 333.328C216.019 333.328 216.715 333.214 217.284 332.986C217.854 332.758 218.285 332.432 218.578 332.009C218.879 331.586 219.03 331.086 219.03 330.508ZM229.54 335.244C228.62 335.244 227.786 335.09 227.038 334.78C226.297 334.463 225.658 334.019 225.121 333.45C224.592 332.88 224.185 332.205 223.9 331.423C223.616 330.642 223.473 329.788 223.473 328.86V328.347C223.473 327.273 223.632 326.317 223.949 325.479C224.267 324.632 224.698 323.916 225.243 323.33C225.788 322.744 226.407 322.301 227.099 322C227.79 321.698 228.507 321.548 229.247 321.548C230.191 321.548 231.005 321.711 231.688 322.036C232.38 322.362 232.946 322.817 233.385 323.403C233.825 323.981 234.15 324.665 234.362 325.454C234.573 326.235 234.679 327.09 234.679 328.018V329.031H224.816V327.188H232.421V327.017C232.388 326.431 232.266 325.861 232.055 325.308C231.851 324.754 231.526 324.299 231.078 323.94C230.631 323.582 230.02 323.403 229.247 323.403C228.734 323.403 228.262 323.513 227.831 323.733C227.4 323.944 227.029 324.262 226.72 324.685C226.411 325.108 226.171 325.625 226 326.235C225.829 326.846 225.744 327.55 225.744 328.347V328.86C225.744 329.486 225.829 330.076 226 330.63C226.179 331.175 226.435 331.655 226.769 332.07C227.111 332.485 227.522 332.811 228.002 333.047C228.49 333.283 229.044 333.401 229.662 333.401C230.46 333.401 231.135 333.238 231.688 332.913C232.242 332.587 232.726 332.152 233.141 331.606L234.508 332.693C234.223 333.124 233.861 333.535 233.422 333.926C232.982 334.316 232.441 334.634 231.798 334.878C231.164 335.122 230.411 335.244 229.54 335.244ZM245.104 332.742V325.942C245.104 325.422 244.998 324.97 244.787 324.587C244.583 324.197 244.274 323.896 243.859 323.684C243.444 323.472 242.931 323.367 242.321 323.367C241.751 323.367 241.251 323.464 240.819 323.66C240.396 323.855 240.062 324.111 239.818 324.429C239.582 324.746 239.464 325.088 239.464 325.454H237.206C237.206 324.982 237.328 324.514 237.572 324.05C237.816 323.586 238.166 323.167 238.622 322.793C239.086 322.41 239.639 322.109 240.282 321.89C240.933 321.662 241.658 321.548 242.455 321.548C243.415 321.548 244.262 321.711 244.994 322.036C245.735 322.362 246.312 322.854 246.728 323.513C247.151 324.164 247.362 324.982 247.362 325.967V332.119C247.362 332.559 247.399 333.027 247.472 333.523C247.554 334.019 247.672 334.447 247.826 334.805V335H245.47C245.356 334.74 245.267 334.394 245.202 333.962C245.137 333.523 245.104 333.116 245.104 332.742ZM245.495 326.992L245.519 328.579H243.236C242.593 328.579 242.02 328.632 241.515 328.738C241.011 328.835 240.587 328.986 240.246 329.189C239.904 329.393 239.643 329.649 239.464 329.958C239.285 330.26 239.196 330.614 239.196 331.021C239.196 331.436 239.289 331.814 239.477 332.156C239.664 332.498 239.944 332.77 240.319 332.974C240.701 333.169 241.169 333.267 241.723 333.267C242.414 333.267 243.025 333.12 243.554 332.827C244.083 332.534 244.502 332.176 244.811 331.753C245.128 331.33 245.299 330.919 245.324 330.52L246.288 331.606C246.231 331.948 246.076 332.327 245.824 332.742C245.572 333.157 245.234 333.556 244.811 333.938C244.396 334.312 243.9 334.626 243.322 334.878C242.752 335.122 242.109 335.244 241.393 335.244C240.498 335.244 239.713 335.069 239.037 334.719C238.37 334.369 237.849 333.901 237.475 333.315C237.108 332.721 236.925 332.058 236.925 331.326C236.925 330.618 237.064 329.995 237.34 329.458C237.617 328.913 238.016 328.461 238.537 328.103C239.057 327.737 239.684 327.46 240.417 327.273C241.149 327.086 241.967 326.992 242.87 326.992H245.495ZM253.173 323.867V335H250.915V321.792H253.112L253.173 323.867ZM257.299 321.719L257.287 323.818C257.099 323.778 256.92 323.753 256.75 323.745C256.587 323.729 256.4 323.721 256.188 323.721C255.667 323.721 255.207 323.802 254.809 323.965C254.41 324.128 254.072 324.355 253.795 324.648C253.519 324.941 253.299 325.291 253.136 325.698C252.982 326.097 252.88 326.536 252.831 327.017L252.196 327.383C252.196 326.585 252.274 325.837 252.428 325.137C252.591 324.437 252.839 323.818 253.173 323.281C253.507 322.736 253.93 322.313 254.442 322.012C254.963 321.702 255.582 321.548 256.298 321.548C256.461 321.548 256.648 321.568 256.859 321.609C257.071 321.641 257.217 321.678 257.299 321.719ZM264.428 333.389C264.965 333.389 265.461 333.279 265.917 333.059C266.373 332.839 266.747 332.538 267.04 332.156C267.333 331.765 267.5 331.322 267.541 330.825H269.689C269.648 331.606 269.384 332.335 268.896 333.01C268.415 333.678 267.785 334.219 267.003 334.634C266.222 335.041 265.364 335.244 264.428 335.244C263.435 335.244 262.568 335.069 261.828 334.719C261.095 334.369 260.485 333.889 259.997 333.279C259.516 332.668 259.154 331.969 258.91 331.179C258.674 330.382 258.556 329.539 258.556 328.652V328.14C258.556 327.253 258.674 326.414 258.91 325.625C259.154 324.827 259.516 324.124 259.997 323.513C260.485 322.903 261.095 322.423 261.828 322.073C262.568 321.723 263.435 321.548 264.428 321.548C265.461 321.548 266.365 321.759 267.138 322.183C267.911 322.598 268.517 323.167 268.957 323.892C269.404 324.608 269.648 325.422 269.689 326.333H267.541C267.5 325.788 267.345 325.295 267.077 324.856C266.816 324.417 266.458 324.067 266.002 323.806C265.555 323.538 265.03 323.403 264.428 323.403C263.736 323.403 263.154 323.542 262.682 323.818C262.218 324.087 261.848 324.453 261.571 324.917C261.303 325.373 261.107 325.881 260.985 326.443C260.871 326.996 260.814 327.562 260.814 328.14V328.652C260.814 329.23 260.871 329.8 260.985 330.361C261.099 330.923 261.291 331.431 261.559 331.887C261.836 332.343 262.206 332.709 262.67 332.986C263.142 333.254 263.728 333.389 264.428 333.389ZM274.486 316.25V335H272.228V316.25H274.486ZM273.949 327.896L273.009 327.859C273.017 326.956 273.152 326.121 273.412 325.356C273.673 324.583 274.039 323.912 274.511 323.342C274.983 322.773 275.544 322.333 276.195 322.024C276.854 321.707 277.583 321.548 278.38 321.548C279.031 321.548 279.617 321.637 280.138 321.816C280.659 321.987 281.103 322.264 281.469 322.646C281.843 323.029 282.128 323.525 282.323 324.136C282.519 324.738 282.616 325.474 282.616 326.345V335H280.346V326.321C280.346 325.629 280.244 325.076 280.041 324.661C279.837 324.237 279.54 323.932 279.149 323.745C278.759 323.55 278.279 323.452 277.709 323.452C277.147 323.452 276.635 323.57 276.171 323.806C275.715 324.042 275.32 324.368 274.987 324.783C274.661 325.198 274.405 325.674 274.218 326.211C274.039 326.74 273.949 327.301 273.949 327.896Z" fill="black"/>
<line y1="-2.5" x2="19.3559" y2="-2.5" transform="matrix(0.955872 -0.293783 -0.257707 -0.966223 117.528 209.69)" stroke="#00B84C" stroke-width="5"/>
<path d="M143.94 203.639L134.775 199.298L138.304 212.529L143.94 203.639Z" fill="#00B84C"/>
<line y1="-2.5" x2="19.3126" y2="-2.5" transform="matrix(0.91611 0.400926 0.369123 -0.92938 119.655 228.523)" stroke="#00B84C" stroke-width="5"/>
<path d="M143.693 241.203L139.149 231.729L134.083 244.483L143.693 241.203Z" fill="#00B84C"/>
<line y1="-2.5" x2="19.2837" y2="-2.5" transform="matrix(0.961219 -0.275786 -0.244001 -0.969775 217.452 236.216)" stroke="#00B84C" stroke-width="5"/>
<path d="M243.885 230.695L234.794 226.158L238.148 239.486L243.885 230.695Z" fill="#00B84C"/>
<line y1="-2.5" x2="19.2502" y2="-2.5" transform="matrix(0.918065 0.396429 0.369308 -0.929307 217.669 254.539)" stroke="#00B84C" stroke-width="5"/>
<path d="M241.677 267.069L237.15 257.621L232.066 270.413L241.677 267.069Z" fill="#00B84C"/>
<rect width="72.7416" height="45.2692" rx="10" transform="matrix(-1 0 0 1 321.741 254)" fill="url(#paint0_linear_929_2740)"/>
<rect width="72.7416" height="45.2692" rx="10" transform="matrix(-1 0 0 1 321.741 198)" fill="url(#paint1_linear_929_2740)"/>
<rect width="71.4655" height="45.2692" rx="10" transform="matrix(-1 0 0 1 218.808 226)" fill="url(#paint2_linear_929_2740)"/>
<rect width="72.7416" height="45.2692" rx="10" transform="matrix(-1 0 0 1 119.743 199)" fill="url(#paint3_linear_929_2740)"/>
<rect width="72.7416" height="45.2692" rx="10" transform="matrix(-1 0 0 1 221.04 166)" fill="url(#paint4_linear_929_2740)"/>
<line x1="18.5" x2="18.5" y2="49" stroke="#333333"/>
<line x1="18.5" y1="118" x2="18.5" y2="187" stroke="#333333"/>
<line x1="18.5" y1="253" x2="18.5" y2="322" stroke="#333333"/>
<path d="M23.5977 228.219V230H12.4297V228.441L18.0195 222.219C18.707 221.453 19.2383 220.805 19.6133 220.273C19.9961 219.734 20.2617 219.254 20.4102 218.832C20.5664 218.402 20.6445 217.965 20.6445 217.52C20.6445 216.957 20.5273 216.449 20.293 215.996C20.0664 215.535 19.7305 215.168 19.2852 214.895C18.8398 214.621 18.3008 214.484 17.668 214.484C16.9102 214.484 16.2773 214.633 15.7695 214.93C15.2695 215.219 14.8945 215.625 14.6445 216.148C14.3945 216.672 14.2695 217.273 14.2695 217.953H12.1016C12.1016 216.992 12.3125 216.113 12.7344 215.316C13.1562 214.52 13.7812 213.887 14.6094 213.418C15.4375 212.941 16.457 212.703 17.668 212.703C18.7461 212.703 19.668 212.895 20.4336 213.277C21.1992 213.652 21.7852 214.184 22.1914 214.871C22.6055 215.551 22.8125 216.348 22.8125 217.262C22.8125 217.762 22.7266 218.27 22.5547 218.785C22.3906 219.293 22.1602 219.801 21.8633 220.309C21.5742 220.816 21.2344 221.316 20.8438 221.809C20.4609 222.301 20.0508 222.785 19.6133 223.262L15.043 228.219H23.5977Z" fill="#EF7E2B"/>
<circle cx="18" cy="221" r="17.5" stroke="#EF7E2B"/>
<path d="M19.543 76.8438V94H17.375V79.5508L13.0039 81.1445V79.1875L19.2031 76.8438H19.543Z" fill="#00B84C"/>
<circle cx="18" cy="85" r="17.5" stroke="#00B84C"/>
<g filter="url(#filter1_d_929_2740)">
<g filter="url(#filter2_d_929_2740)">
<path d="M334.091 161.763L362.394 176.652L356.15 194.105L326.786 177.292C325.775 177.504 324.716 177.575 323.634 177.477C317.748 176.947 313.415 171.721 313.956 165.804C314.497 159.888 319.707 155.523 325.593 156.054C329.347 156.392 332.462 158.644 334.091 161.763Z" fill="#FFB6B6"/>
</g>
<path d="M465.893 150.727C472.712 154.18 475.82 162.269 473.045 169.431C468.698 180.65 461.19 195.989 451.04 201.735L430.314 221.371L422.674 227.068C418.487 230.191 412.835 230.444 408.4 227.708L336.961 183.629L347.934 163.678L399.315 194.326L399.627 195.531C404.143 186.106 421.241 173.337 429.383 170.391C430.322 160.675 438.691 155.934 449.452 152.794C454.015 148.817 460.51 148 465.893 150.727V150.727Z" fill="#6C63FF"/>
<path d="M342.171 132.286L346.508 136.346L312.65 172.51C311.427 173.817 309.376 173.884 308.07 172.661V172.661C306.981 171.642 306.925 169.933 307.944 168.844L342.171 132.286Z" fill="black"/>
<path d="M309.162 162.103C304.386 170.07 315.938 175.425 323.5 177.5L339.008 164.397V158.242C338.61 155.752 337.576 150.026 336.621 147.038C335.427 143.304 328.263 139.059 327.069 144.038C325.875 149.018 331.845 147.038 333.039 153.262C332.252 157.362 325.917 150.599 323.341 147.993C322.674 147.319 321.814 147.038 320.866 147.038H320.387C320.075 147.038 319.773 147.148 319.534 147.349C318.786 147.978 318.354 148.906 318.354 149.884V151.095C318.354 151.509 318.099 151.88 317.713 152.028L316.091 152.651C315.104 153.03 314.39 153.901 314.21 154.942L313.822 157.193C313.79 157.379 313.628 157.516 313.438 157.516C312.127 157.516 310.965 157.96 310.741 159.252C310.601 160.06 310.296 161.062 309.162 162.103Z" fill="#FFB6B6"/>
<rect x="333.921" y="141.131" width="5.90334" height="11.5704" transform="rotate(43.1133 333.921 141.131)" fill="black"/>
<circle cx="359.623" cy="117.377" r="23.3771" stroke="black" stroke-width="6"/>
</g>
<defs>
<filter id="filter0_i_929_2740" x="47" y="57" width="280" height="60.4495" filterUnits="userSpaceOnUse" color-interpolation-filters="sRGB">
<feFlood flood-opacity="0" result="BackgroundImageFix"/>
<feBlend mode="normal" in="SourceGraphic" in2="BackgroundImageFix" result="shape"/>
<feColorMatrix in="SourceAlpha" type="matrix" values="0 0 0 0 0 0 0 0 0 0 0 0 0 0 0 0 0 0 127 0" result="hardAlpha"/>
<feOffset dy="4"/>
<feGaussianBlur stdDeviation="2"/>
<feComposite in2="hardAlpha" operator="arithmetic" k2="-1" k3="1"/>
<feColorMatrix type="matrix" values="0 0 0 0 0 0 0 0 0 0 0 0 0 0 0 0 0 0 0.25 0"/>
<feBlend mode="normal" in2="shape" result="effect1_innerShadow_929_2740"/>
</filter>
<filter id="filter1_d_929_2740" x="303.215" y="91.0001" width="174.843" height="146.598" filterUnits="userSpaceOnUse" color-interpolation-filters="sRGB">
<feFlood flood-opacity="0" result="BackgroundImageFix"/>
<feColorMatrix in="SourceAlpha" type="matrix" values="0 0 0 0 0 0 0 0 0 0 0 0 0 0 0 0 0 0 127 0" result="hardAlpha"/>
<feOffset dy="4"/>
<feGaussianBlur stdDeviation="2"/>
<feComposite in2="hardAlpha" operator="out"/>
<feColorMatrix type="matrix" values="0 0 0 0 0 0 0 0 0 0 0 0 0 0 0 0 0 0 0.1 0"/>
<feBlend mode="normal" in2="BackgroundImageFix" result="effect1_dropShadow_929_2740"/>
<feBlend mode="normal" in="SourceGraphic" in2="effect1_dropShadow_929_2740" result="shape"/>
</filter>
<filter id="filter2_d_929_2740" x="309.91" y="156.01" width="56.4834" height="46.0947" filterUnits="userSpaceOnUse" color-interpolation-filters="sRGB">
<feFlood flood-opacity="0" result="BackgroundImageFix"/>
<feColorMatrix in="SourceAlpha" type="matrix" values="0 0 0 0 0 0 0 0 0 0 0 0 0 0 0 0 0 0 127 0" result="hardAlpha"/>
<feOffset dy="4"/>
<feGaussianBlur stdDeviation="2"/>
<feComposite in2="hardAlpha" operator="out"/>
<feColorMatrix type="matrix" values="0 0 0 0 0 0 0 0 0 0 0 0 0 0 0 0 0 0 0.25 0"/>
<feBlend mode="normal" in2="BackgroundImageFix" result="effect1_dropShadow_929_2740"/>
<feBlend mode="normal" in="SourceGraphic" in2="effect1_dropShadow_929_2740" result="shape"/>
</filter>
<linearGradient id="paint0_linear_929_2740" x1="82.292" y1="6.73358e-07" x2="0.291986" y2="58" gradientUnits="userSpaceOnUse">
<stop stop-color="#EF7E2B"/>
<stop offset="1" stop-color="#FF3838"/>
</linearGradient>
<linearGradient id="paint1_linear_929_2740" x1="72.3809" y1="-1.16386e-06" x2="-4.11914" y2="50.5" gradientUnits="userSpaceOnUse">
<stop stop-color="#EF7E2B"/>
<stop offset="1" stop-color="#FF3838"/>
</linearGradient>
<linearGradient id="paint2_linear_929_2740" x1="71.8076" y1="-8.5" x2="-0.192379" y2="56" gradientUnits="userSpaceOnUse">
<stop stop-color="#EF7E2B"/>
<stop offset="1" stop-color="#FF3838"/>
</linearGradient>
<linearGradient id="paint3_linear_929_2740" x1="9.74317" y1="-12.5" x2="72.7432" y2="63.5" gradientUnits="userSpaceOnUse">
<stop stop-color="#EF7E2B"/>
<stop offset="1" stop-color="#FF3838"/>
</linearGradient>
<linearGradient id="paint4_linear_929_2740" x1="73.04" y1="-9" x2="0.0400376" y2="53" gradientUnits="userSpaceOnUse">
<stop stop-color="#EF7E2B"/>
<stop offset="1" stop-color="#FF3838"/>
</linearGradient>
</defs>
</svg>
