<svg width="16" height="18" viewBox="0 0 16 18" fill="none" xmlns="http://www.w3.org/2000/svg">
<path fill-rule="evenodd" clip-rule="evenodd" d="M2.37502 6.5C2.37502 5.00816 2.96765 3.57742 4.02254 2.52252C5.07744 1.46763 6.50818 0.875 8.00002 0.875C9.49186 0.875 10.9226 1.46763 11.9775 2.52252C13.0324 3.57742 13.625 5.00816 13.625 6.5V7.125C13.625 8.89417 14.2917 10.5058 15.39 11.725C15.4584 11.8008 15.5072 11.8923 15.5321 11.9913C15.557 12.0904 15.5573 12.194 15.5329 12.2932C15.5084 12.3923 15.4601 12.484 15.392 12.5601C15.324 12.6363 15.2383 12.6946 15.1425 12.73C13.8559 13.205 12.5092 13.555 11.1167 13.7658C11.148 14.1943 11.0907 14.6246 10.9483 15.0299C10.8059 15.4352 10.5814 15.8068 10.2889 16.1214C9.99647 16.4361 9.64225 16.6871 9.24843 16.8587C8.8546 17.0303 8.42962 17.1189 8.00002 17.1189C7.57042 17.1189 7.14544 17.0303 6.75161 16.8587C6.35778 16.6871 6.00357 16.4361 5.7111 16.1214C5.41862 15.8068 5.19416 15.4352 5.05174 15.0299C4.90932 14.6246 4.852 14.1943 4.88335 13.7658C3.50973 13.5577 2.16084 13.2103 0.857518 12.7292C0.761796 12.6938 0.676182 12.6356 0.608153 12.5595C0.540124 12.4835 0.491749 12.3919 0.467252 12.2929C0.442756 12.1938 0.442884 12.0903 0.467625 11.9913C0.492366 11.8923 0.540968 11.8009 0.609185 11.725C1.74819 10.4639 2.37758 8.82433 2.37502 7.125V6.5ZM6.12668 13.9167C6.11602 14.1693 6.15658 14.4215 6.24592 14.6581C6.33526 14.8947 6.47153 15.1107 6.64654 15.2933C6.82154 15.4758 7.03167 15.6211 7.26427 15.7203C7.49687 15.8196 7.74714 15.8707 8.00002 15.8707C8.2529 15.8707 8.50317 15.8196 8.73577 15.7203C8.96837 15.6211 9.17849 15.4758 9.3535 15.2933C9.52851 15.1107 9.66478 14.8947 9.75412 14.6581C9.84345 14.4215 9.88401 14.1693 9.87335 13.9167C8.62699 14.0289 7.37305 14.0289 6.12668 13.9167Z" fill="#FCFCFD"/>
</svg>
