<svg width="18" height="14" viewBox="0 0 18 14" fill="none" xmlns="http://www.w3.org/2000/svg">
<path fill-rule="evenodd" clip-rule="evenodd" d="M1.5 0C1.10218 0 0.720644 0.158035 0.43934 0.43934C0.158035 0.720644 0 1.10218 0 1.5V5.5C0 5.89782 0.158035 6.27936 0.43934 6.56066C0.720644 6.84196 1.10218 7 1.5 7H7.5C7.89782 7 8.27936 6.84196 8.56066 6.56066C8.84196 6.27936 9 5.89782 9 5.5V1.5C9 1.10218 8.84196 0.720644 8.56066 0.43934C8.27936 0.158035 7.89782 0 7.5 0H1.5ZM12.5 2C12.1022 2 11.7206 2.15804 11.4393 2.43934C11.158 2.72064 11 3.10218 11 3.5V10.5C11 10.8978 11.158 11.2794 11.4393 11.5607C11.7206 11.842 12.1022 12 12.5 12H16.5C16.8978 12 17.2794 11.842 17.5607 11.5607C17.842 11.2794 18 10.8978 18 10.5V3.5C18 3.10218 17.842 2.72064 17.5607 2.43934C17.2794 2.15804 16.8978 2 16.5 2H12.5ZM2.5 9C2.10218 9 1.72064 9.15804 1.43934 9.43934C1.15804 9.72064 1 10.1022 1 10.5V12.5C1 12.8978 1.15804 13.2794 1.43934 13.5607C1.72064 13.842 2.10218 14 2.5 14H8.5C8.89782 14 9.27936 13.842 9.56066 13.5607C9.84196 13.2794 10 12.8978 10 12.5V10.5C10 10.1022 9.84196 9.72064 9.56066 9.43934C9.27936 9.15804 8.89782 9 8.5 9H2.5Z" fill="#FCFCFD"/>
</svg>
