<svg width="16" height="16" viewBox="0 0 16 16" fill="none" xmlns="http://www.w3.org/2000/svg">
<path fill-rule="evenodd" clip-rule="evenodd" d="M6 5.00086C6.00023 3.95194 6.33033 2.92965 6.94359 2.07868C7.55684 1.22771 8.42219 0.591153 9.41717 0.259101C10.4121 -0.072952 11.4864 -0.0836832 12.4878 0.228426C13.4892 0.540535 14.3671 1.15968 14.9972 1.99823C15.6273 2.83678 15.9778 3.85226 15.999 4.90097C16.0202 5.94968 15.711 6.97849 15.1152 7.8418C14.5195 8.70512 13.6673 9.35921 12.6793 9.7115C11.6913 10.0638 10.6176 10.0965 9.61 9.80486L7.707 11.7079C7.51951 11.8954 7.26519 12.0008 7 12.0009H6V13.0009C6 13.2661 5.89464 13.5204 5.70711 13.708C5.51957 13.8955 5.26522 14.0009 5 14.0009H4V15.0009C4 15.2661 3.89464 15.5204 3.70711 15.708C3.51957 15.8955 3.26522 16.0009 3 16.0009H1C0.734784 16.0009 0.48043 15.8955 0.292893 15.708C0.105357 15.5204 0 15.2661 0 15.0009V13.0009C5.66374e-05 12.7357 0.105451 12.4814 0.293 12.2939L6.196 6.39086C6.06565 5.93904 5.99967 5.4711 6 5.00086ZM11 2.00086C10.8011 2.00086 10.6103 2.07988 10.4697 2.22053C10.329 2.36118 10.25 2.55195 10.25 2.75086C10.25 2.94977 10.329 3.14054 10.4697 3.28119C10.6103 3.42184 10.8011 3.50086 11 3.50086C11.3978 3.50086 11.7794 3.65889 12.0607 3.9402C12.342 4.2215 12.5 4.60303 12.5 5.00086C12.5 5.19977 12.579 5.39054 12.7197 5.53119C12.8603 5.67184 13.0511 5.75086 13.25 5.75086C13.4489 5.75086 13.6397 5.67184 13.7803 5.53119C13.921 5.39054 14 5.19977 14 5.00086C14 4.20521 13.6839 3.44215 13.1213 2.87954C12.5587 2.31693 11.7956 2.00086 11 2.00086Z" fill="#344054"/>
</svg>
