<svg width="16" height="16" viewBox="0 0 16 16" fill="none" xmlns="http://www.w3.org/2000/svg">
<path fill-rule="evenodd" clip-rule="evenodd" d="M8 16C10.1217 16 12.1566 15.1571 13.6569 13.6569C15.1571 12.1566 16 10.1217 16 8C16 5.87827 15.1571 3.84344 13.6569 2.34315C12.1566 0.842855 10.1217 0 8 0C5.87827 0 3.84344 0.842855 2.34315 2.34315C0.842855 3.84344 0 5.87827 0 8C0 10.1217 0.842855 12.1566 2.34315 13.6569C3.84344 15.1571 5.87827 16 8 16ZM4.464 12.525C4.53365 12.5947 4.61635 12.65 4.70738 12.6877C4.7984 12.7254 4.89597 12.7448 4.9945 12.7448C5.09303 12.7448 5.1906 12.7254 5.28162 12.6877C5.37265 12.65 5.45535 12.5947 5.525 12.525C5.85001 12.2 6.23586 11.9421 6.66053 11.7662C7.08519 11.5903 7.54034 11.4997 8 11.4997C8.45966 11.4997 8.91481 11.5903 9.33947 11.7662C9.76414 11.9421 10.15 12.2 10.475 12.525C10.5437 12.5987 10.6265 12.6578 10.7185 12.6988C10.8105 12.7398 10.9098 12.7618 11.0105 12.7636C11.1112 12.7654 11.2112 12.7468 11.3046 12.7091C11.398 12.6714 11.4828 12.6153 11.554 12.544C11.6253 12.4728 11.6814 12.388 11.7191 12.2946C11.7568 12.2012 11.7754 12.1012 11.7736 12.0005C11.7718 11.8998 11.7498 11.8005 11.7088 11.7085C11.6678 11.6165 11.6087 11.5337 11.535 11.465C10.5974 10.5276 9.32582 10.0011 8 10.0011C6.67418 10.0011 5.40264 10.5276 4.465 11.465C4.32455 11.6056 4.24566 11.7962 4.24566 11.995C4.24566 12.1938 4.32355 12.3844 4.464 12.525ZM7 6.5C7 7.328 6.552 8 6 8C5.448 8 5 7.328 5 6.5C5 5.672 5.448 5 6 5C6.552 5 7 5.672 7 6.5ZM10 8C10.552 8 11 7.328 11 6.5C11 5.672 10.552 5 10 5C9.448 5 9 5.672 9 6.5C9 7.328 9.448 8 10 8Z" fill="#FCFCFD"/>
</svg>
