<svg width="14" height="16" viewBox="0 0 14 16" fill="none" xmlns="http://www.w3.org/2000/svg">
<path d="M7.00002 6C7.79567 6 8.55873 5.68393 9.12134 5.12132C9.68395 4.55871 10 3.79565 10 3C10 2.20435 9.68395 1.44129 9.12134 0.87868C8.55873 0.316071 7.79567 0 7.00002 0C6.20437 0 5.4413 0.316071 4.8787 0.87868C4.31609 1.44129 4.00002 2.20435 4.00002 3C4.00002 3.79565 4.31609 4.55871 4.8787 5.12132C5.4413 5.68393 6.20437 6 7.00002 6ZM0.465016 12.493C0.372181 12.7411 0.361939 13.0126 0.435813 13.267C0.509687 13.5214 0.663728 13.7452 0.875016 13.905C2.62635 15.266 4.782 16.0034 7.00002 16C9.31002 16 11.438 15.216 13.131 13.9C13.561 13.567 13.735 12.997 13.539 12.49C13.0313 11.168 12.1346 10.0311 10.9673 9.22922C9.80008 8.42737 8.41712 7.99829 7.00098 7.99861C5.58485 7.99894 4.20209 8.42865 3.03521 9.23104C1.86833 10.0334 0.972174 11.1708 0.465016 12.493Z" fill="#FCFCFD"/>
</svg>
