<?xml version="1.0" encoding="UTF-8"?>
<!DOCTYPE svg PUBLIC "-//W3C//DTD SVG 1.1//EN" "http://www.w3.org/Graphics/SVG/1.1/DTD/svg11.dtd">
<svg xmlns="http://www.w3.org/2000/svg" version="1.1" width="500px" height="500px" style="shape-rendering:geometricPrecision; text-rendering:geometricPrecision; image-rendering:optimizeQuality; fill-rule:evenodd; clip-rule:evenodd" xmlns:xlink="http://www.w3.org/1999/xlink">
<g><path style="opacity:1" fill="#e48482" d="M 228.5,10.5 C 230.434,11.1103 232.101,12.1103 233.5,13.5C 231.011,13.7593 229.344,12.7593 228.5,10.5 Z"/></g>
<g><path style="opacity:0.922" fill="#da7d79" d="M 188.5,11.5 C 188.389,12.1174 188.056,12.6174 187.5,13C 183.83,13.5482 180.163,14.0482 176.5,14.5C 180.2,12.7547 184.2,11.7547 188.5,11.5 Z"/></g>
<g><path style="opacity:1" fill="#d82526" d="M 224.5,9.5 C 225.959,9.43255 227.292,9.76589 228.5,10.5C 229.344,12.7593 231.011,13.7593 233.5,13.5C 233.5,14.5 233.5,15.5 233.5,16.5C 236.327,16.5838 238.994,17.2504 241.5,18.5C 242.787,20.2574 244.287,21.9241 246,23.5C 246.383,22.944 246.883,22.6107 247.5,22.5C 247.833,22.5 248.167,22.5 248.5,22.5C 248.539,23.5832 248.873,24.5832 249.5,25.5C 251.852,26.9847 254.186,28.318 256.5,29.5C 256.833,29.5 257.167,29.5 257.5,29.5C 257.5,31.5 257.5,33.5 257.5,35.5C 259.564,35.687 261.564,36.187 263.5,37C 262.701,38.7487 263.368,40.082 265.5,41C 264.833,41.3333 264.167,41.6667 263.5,42C 265.542,44.2131 267.875,44.8798 270.5,44C 270.833,44.3333 271.167,44.6667 271.5,45C 270.376,45.2492 269.376,45.7492 268.5,46.5C 270.5,46.8333 272.5,47.1667 274.5,47.5C 275.958,51.2292 277.458,54.8958 279,58.5C 279.483,57.552 279.649,56.552 279.5,55.5C 280.552,55.3505 281.552,55.5172 282.5,56C 285.12,58.4441 287.12,61.2774 288.5,64.5C 286.453,64.5111 284.453,64.8444 282.5,65.5C 279.179,68.2347 275.512,70.2347 271.5,71.5C 263.5,75.1667 255.5,78.8333 247.5,82.5C 205.348,99.9102 167.348,123.91 133.5,154.5C 130.762,155.035 128.928,154.035 128,151.5C 125.266,134.887 126.766,118.72 132.5,103C 129.162,101.794 127.329,102.96 127,106.5C 119.417,113.587 113.583,121.921 109.5,131.5C 108.5,131.5 107.5,131.5 106.5,131.5C 106.646,133.942 105.813,134.609 104,133.5C 103.798,135.256 103.298,136.922 102.5,138.5C 101.914,138.291 101.414,137.957 101,137.5C 100.999,140.787 99.4985,142.953 96.5,144C 97.3081,144.308 97.9747,144.808 98.5,145.5C 96.8267,147.523 96.1601,149.856 96.5,152.5C 93.9321,154.027 92.5988,156.361 92.5,159.5C 91.2652,159.721 90.2652,160.388 89.5,161.5C 88.5258,163.743 88.1924,166.076 88.5,168.5C 84.7384,171.463 83.0717,175.463 83.5,180.5C 81.3072,182.522 80.3072,185.189 80.5,188.5C 80.7373,189.791 80.404,190.791 79.5,191.5C 78.5,191.5 77.5,191.5 76.5,191.5C 76.5,194.5 76.5,197.5 76.5,200.5C 74.7085,200.366 73.0418,200.699 71.5,201.5C 71.0245,196.016 70.6911,190.516 70.5,185C 70.5749,180.977 71.2416,177.144 72.5,173.5C 71.5328,171.37 70.3662,169.37 69,167.5C 68.3333,157.833 68.3333,148.167 69,138.5C 69.3333,140.167 69.6667,141.833 70,143.5C 69.865,133.002 70.865,122.668 73,112.5C 74.0365,115.753 74.7031,119.086 75,122.5C 75.4226,123.956 76.2559,124.456 77.5,124C 78.8982,120.324 78.2315,116.99 75.5,114C 76.2392,111.746 77.2392,109.579 78.5,107.5C 79.9038,108.999 80.5704,108.666 80.5,106.5C 80.3526,103.504 79.0192,101.338 76.5,100C 79.4685,97.8223 79.1351,96.6556 75.5,96.5C 75.7038,93.4824 76.0371,90.4824 76.5,87.5C 77.1495,85.5648 77.4828,83.5648 77.5,81.5C 79.4725,78.9164 80.4725,75.9164 80.5,72.5C 81.5,72.5 82.5,72.5 83.5,72.5C 85.6564,67.3813 87.6564,62.048 89.5,56.5C 89.5106,54.9826 90.1772,53.8159 91.5,53C 94.7289,50.2589 98.0622,47.7589 101.5,45.5C 103.027,45.573 104.027,44.9063 104.5,43.5C 105.29,42.5987 106.29,41.9321 107.5,41.5C 109.027,41.573 110.027,40.9063 110.5,39.5C 110.833,39.5 111.167,39.5 111.5,39.5C 117.343,38.0832 122.343,35.4166 126.5,31.5C 131.032,30.8948 135.032,29.2281 138.5,26.5C 141.522,26.196 144.522,25.696 147.5,25C 152.822,23.5834 157.822,21.5834 162.5,19C 176.325,16.7942 189.992,13.7942 203.5,10C 210.492,9.50038 217.492,9.33371 224.5,9.5 Z"/></g>
<g><path style="opacity:0.922" fill="#d97e7b" d="M 175.5,14.5 C 172.093,16.0743 168.427,17.0743 164.5,17.5C 167.799,15.5165 171.466,14.5165 175.5,14.5 Z"/></g>
<g><path style="opacity:1" fill="#d2534c" d="M 224.5,9.5 C 217.492,9.33371 210.492,9.50038 203.5,10C 189.992,13.7942 176.325,16.7942 162.5,19C 157.822,21.5834 152.822,23.5834 147.5,25C 144.522,25.696 141.522,26.196 138.5,26.5C 146.573,22.0088 155.239,19.0088 164.5,17.5C 168.427,17.0743 172.093,16.0743 175.5,14.5C 175.833,14.5 176.167,14.5 176.5,14.5C 180.163,14.0482 183.83,13.5482 187.5,13C 188.056,12.6174 188.389,12.1174 188.5,11.5C 200.484,8.54544 212.484,7.87877 224.5,9.5 Z"/></g>
<g><path style="opacity:1" fill="#d96864" d="M 233.5,13.5 C 236.701,14.3786 239.368,16.0453 241.5,18.5C 238.994,17.2504 236.327,16.5838 233.5,16.5C 233.5,15.5 233.5,14.5 233.5,13.5 Z"/></g>
<g><path style="opacity:0.984" fill="#e17775" d="M 241.5,18.5 C 243.882,19.3507 245.882,20.684 247.5,22.5C 246.883,22.6107 246.383,22.944 246,23.5C 244.287,21.9241 242.787,20.2574 241.5,18.5 Z"/></g>
<g><path style="opacity:1" fill="#de7a75" d="M 248.5,22.5 C 251.582,24.3719 254.249,26.7052 256.5,29.5C 254.186,28.318 251.852,26.9847 249.5,25.5C 248.873,24.5832 248.539,23.5832 248.5,22.5 Z"/></g>
<g><path style="opacity:1" fill="#cc5e5a" d="M 138.5,26.5 C 135.032,29.2281 131.032,30.8948 126.5,31.5C 130.099,29.0723 134.099,27.4056 138.5,26.5 Z"/></g>
<g><path style="opacity:1" fill="#d05854" d="M 126.5,31.5 C 122.343,35.4166 117.343,38.0832 111.5,39.5C 116.013,36.0032 121.013,33.3365 126.5,31.5 Z"/></g>
<g><path style="opacity:0.776" fill="#e3938e" d="M 110.5,39.5 C 110.027,40.9063 109.027,41.573 107.5,41.5C 107.973,40.0937 108.973,39.427 110.5,39.5 Z"/></g>
<g><path style="opacity:0.706" fill="#e7aca4" d="M 269.5,39.5 C 270.906,39.9731 271.573,40.9731 271.5,42.5C 270.094,42.0269 269.427,41.0269 269.5,39.5 Z"/></g>
<g><path style="opacity:1" fill="#d23c39" d="M 257.5,29.5 C 261.792,32.4566 265.792,35.7899 269.5,39.5C 269.427,41.0269 270.094,42.0269 271.5,42.5C 279.559,48.559 286.225,55.8923 291.5,64.5C 285.322,68.0051 278.655,70.3384 271.5,71.5C 275.512,70.2347 279.179,68.2347 282.5,65.5C 284.453,64.8444 286.453,64.5111 288.5,64.5C 287.12,61.2774 285.12,58.4441 282.5,56C 281.552,55.5172 280.552,55.3505 279.5,55.5C 279.649,56.552 279.483,57.552 279,58.5C 277.458,54.8958 275.958,51.2292 274.5,47.5C 272.5,47.1667 270.5,46.8333 268.5,46.5C 269.376,45.7492 270.376,45.2492 271.5,45C 271.167,44.6667 270.833,44.3333 270.5,44C 267.875,44.8798 265.542,44.2131 263.5,42C 264.167,41.6667 264.833,41.3333 265.5,41C 263.368,40.082 262.701,38.7487 263.5,37C 261.564,36.187 259.564,35.687 257.5,35.5C 257.5,33.5 257.5,31.5 257.5,29.5 Z"/></g>
<g><path style="opacity:0.639" fill="#e8a6a1" d="M 104.5,43.5 C 104.027,44.9063 103.027,45.573 101.5,45.5C 101.973,44.0937 102.973,43.427 104.5,43.5 Z"/></g>
<g><path style="opacity:1" fill="#d04b47" d="M 89.5,56.5 C 87.6564,62.048 85.6564,67.3813 83.5,72.5C 82.5,72.5 81.5,72.5 80.5,72.5C 82.0157,66.2402 85.0157,60.9068 89.5,56.5 Z"/></g>
<g><path style="opacity:1" fill="#f7dbcd" d="M 291.5,64.5 C 291.833,64.5 292.167,64.5 292.5,64.5C 291.748,66.1003 290.748,67.6003 289.5,69C 284.702,69.6552 280.035,70.8219 275.5,72.5C 277.802,73.9987 277.469,75.332 274.5,76.5C 271.68,77.6941 268.847,77.6941 266,76.5C 265.5,76.6667 265,76.8333 264.5,77C 266.645,77.7431 266.811,78.5765 265,79.5C 263.856,79.0889 262.689,78.7556 261.5,78.5C 256.857,80.0495 252.19,81.3829 247.5,82.5C 255.5,78.8333 263.5,75.1667 271.5,71.5C 278.655,70.3384 285.322,68.0051 291.5,64.5 Z"/></g>
<g><path style="opacity:0.988" fill="#d86c6d" d="M 80.5,72.5 C 80.4725,75.9164 79.4725,78.9164 77.5,81.5C 77.5275,78.0836 78.5275,75.0836 80.5,72.5 Z"/></g>
<g><path style="opacity:1" fill="#f1e7d8" d="M 292.5,64.5 C 295.649,64.2114 298.649,64.7114 301.5,66C 311.794,76.0777 319.461,87.9111 324.5,101.5C 350.866,107.003 372.866,119.67 390.5,139.5C 380.704,132.208 371.037,124.708 361.5,117C 356.479,115.425 351.812,113.259 347.5,110.5C 340.304,108.655 333.137,106.655 326,104.5C 325.167,104.667 324.333,104.833 323.5,105C 321.556,107.629 319.223,109.796 316.5,111.5C 315.005,111.415 314.005,112.081 313.5,113.5C 315.552,114.611 316.886,116.277 317.5,118.5C 315.236,117.419 313.069,116.085 311,114.5C 279.539,124.983 249.705,138.816 221.5,156C 220.402,156.77 220.402,157.603 221.5,158.5C 220.183,158.179 218.849,157.846 217.5,157.5C 216.068,157.733 215.568,158.4 216,159.5C 219.047,160.562 221.88,161.895 224.5,163.5C 221.044,163.404 217.877,162.404 215,160.5C 207.949,164.277 201.116,168.444 194.5,173C 195.252,173.671 195.586,174.504 195.5,175.5C 194.417,175.461 193.417,175.127 192.5,174.5C 191.417,175.365 191.251,176.365 192,177.5C 197.571,183.648 202.904,189.981 208,196.5C 208.791,197.745 209.291,199.078 209.5,200.5C 204.197,194.356 199.031,188.022 194,181.5C 192.611,179.773 190.944,178.439 189,177.5C 173.566,187.605 160.066,199.771 148.5,214C 158.926,219.352 163.092,227.852 161,239.5C 160.489,241.878 159.822,244.212 159,246.5C 156.807,248.36 154.974,250.526 153.5,253C 158.181,261.226 162.181,269.726 165.5,278.5C 164.833,278.167 164.167,277.833 163.5,277.5C 160.33,269.142 156.497,261.142 152,253.5C 151.421,252.072 151.588,250.738 152.5,249.5C 156.023,247.127 158.023,243.793 158.5,239.5C 159.848,234.594 159.682,229.594 158,224.5C 154.924,220.918 151.424,217.918 147.5,215.5C 147.798,212.664 147.131,212.164 145.5,214C 140.026,214.147 134.693,214.98 129.5,216.5C 129.611,215.883 129.944,215.383 130.5,215C 133.424,214.012 136.424,213.346 139.5,213C 134.95,210.117 131.45,206.284 129,201.5C 126.06,195.954 123.394,190.287 121,184.5C 119.544,178.903 119.211,173.237 120,167.5C 120.697,165.416 121.864,163.749 123.5,162.5C 127.127,160.206 130.461,157.54 133.5,154.5C 167.348,123.91 205.348,99.9102 247.5,82.5C 252.19,81.3829 256.857,80.0495 261.5,78.5C 262.689,78.7556 263.856,79.0889 265,79.5C 266.811,78.5765 266.645,77.7431 264.5,77C 265,76.8333 265.5,76.6667 266,76.5C 268.847,77.6941 271.68,77.6941 274.5,76.5C 277.469,75.332 277.802,73.9987 275.5,72.5C 280.035,70.8219 284.702,69.6552 289.5,69C 290.748,67.6003 291.748,66.1003 292.5,64.5 Z"/></g>
<g><path style="opacity:0.98" fill="#d88280" d="M 77.5,81.5 C 77.4828,83.5648 77.1495,85.5648 76.5,87.5C 75.8333,88.5 75.1667,89.5 74.5,90.5C 74.5275,87.0836 75.5275,84.0836 77.5,81.5 Z"/></g>
<g><path style="opacity:0.698" fill="#e68f8c" d="M 74.5,90.5 C 74.5905,93.1522 73.9238,95.4855 72.5,97.5C 72.4095,94.8478 73.0762,92.5145 74.5,90.5 Z"/></g>
<g><path style="opacity:1" fill="#d8423c" d="M 76.5,87.5 C 76.0371,90.4824 75.7038,93.4824 75.5,96.5C 79.1351,96.6556 79.4685,97.8223 76.5,100C 79.0192,101.338 80.3526,103.504 80.5,106.5C 80.5704,108.666 79.9038,108.999 78.5,107.5C 77.2392,109.579 76.2392,111.746 75.5,114C 78.2315,116.99 78.8982,120.324 77.5,124C 76.2559,124.456 75.4226,123.956 75,122.5C 74.7031,119.086 74.0365,115.753 73,112.5C 70.865,122.668 69.865,133.002 70,143.5C 69.6667,141.833 69.3333,140.167 69,138.5C 68.3333,148.167 68.3333,157.833 69,167.5C 70.3662,169.37 71.5328,171.37 72.5,173.5C 71.2416,177.144 70.5749,180.977 70.5,185C 70.6911,190.516 71.0245,196.016 71.5,201.5C 70.8333,199.833 70.1667,198.167 69.5,196.5C 66.6005,175.614 65.9338,154.614 67.5,133.5C 69.2221,126.063 70.2221,118.396 70.5,110.5C 70.271,105.99 70.9376,101.657 72.5,97.5C 73.9238,95.4855 74.5905,93.1522 74.5,90.5C 75.1667,89.5 75.8333,88.5 76.5,87.5 Z"/></g>
<g><path style="opacity:1" fill="#bb2322" d="M 133.5,154.5 C 130.461,157.54 127.127,160.206 123.5,162.5C 121.539,160.202 120.539,157.535 120.5,154.5C 117.869,149.12 115.702,143.453 114,137.5C 113.578,135.574 112.411,134.574 110.5,134.5C 110.443,133.391 110.11,132.391 109.5,131.5C 113.583,121.921 119.417,113.587 127,106.5C 127.329,102.96 129.162,101.794 132.5,103C 126.766,118.72 125.266,134.887 128,151.5C 128.928,154.035 130.762,155.035 133.5,154.5 Z"/></g>
<g><path style="opacity:0.957" fill="#da7b79" d="M 70.5,110.5 C 70.2221,118.396 69.2221,126.063 67.5,133.5C 67.6789,125.592 68.6789,117.926 70.5,110.5 Z"/></g>
<g><path style="opacity:0.663" fill="#fbd5b7" d="M 317.5,118.5 C 320.852,118.53 323.518,119.863 325.5,122.5C 326.167,123.5 326.833,124.5 327.5,125.5C 323.808,123.656 320.475,121.323 317.5,118.5 Z"/></g>
<g><path style="opacity:1" fill="#ee965a" d="M 325.5,122.5 C 329.915,123.424 333.249,125.924 335.5,130C 340.152,131.458 342.819,134.625 343.5,139.5C 341.696,137.505 339.696,135.838 337.5,134.5C 334.769,130.766 331.436,127.766 327.5,125.5C 326.833,124.5 326.167,123.5 325.5,122.5 Z"/></g>
<g><path style="opacity:1" fill="#edb189" d="M 347.5,110.5 C 351.812,113.259 356.479,115.425 361.5,117C 371.037,124.708 380.704,132.208 390.5,139.5C 391.11,140.391 391.443,141.391 391.5,142.5C 387.905,140.375 384.238,138.542 380.5,137C 378.319,133.568 375.319,131.068 371.5,129.5C 371.251,125.751 369.251,123.917 365.5,124C 364.382,122.926 363.382,121.76 362.5,120.5C 357.068,117.513 352.068,114.18 347.5,110.5 Z"/></g>
<g><path style="opacity:1" fill="#ef843a" d="M 358.5,125.5 C 362.866,127.699 366.032,131.032 368,135.5C 370,137.5 372,139.5 374,141.5C 376.727,147.954 379.727,154.288 383,160.5C 383.933,166.965 384.433,173.465 384.5,180C 383.717,190.496 383.55,200.996 384,211.5C 385.468,215.769 387.468,219.769 390,223.5C 392.965,226.394 395.799,229.394 398.5,232.5C 395.603,231.283 392.936,229.616 390.5,227.5C 388.201,224.031 385.701,220.698 383,217.5C 382.5,203.504 382.333,189.504 382.5,175.5C 379.428,175.817 376.428,175.484 373.5,174.5C 375.332,173.752 376.999,172.752 378.5,171.5C 379.524,172.853 380.857,173.52 382.5,173.5C 382.257,164.008 379.424,155.342 374,147.5C 374.5,143.18 372.667,140.846 368.5,140.5C 368.5,139.5 368.5,138.5 368.5,137.5C 361.901,136.233 358.568,132.233 358.5,125.5 Z"/></g>
<g><path style="opacity:0.11" fill="#ffefdc" d="M 327.5,125.5 C 331.436,127.766 334.769,130.766 337.5,134.5C 334.397,132.577 331.397,130.41 328.5,128C 327.748,127.329 327.414,126.496 327.5,125.5 Z"/></g>
<g><path style="opacity:1" fill="#f2aa78" d="M 347.5,110.5 C 352.068,114.18 357.068,117.513 362.5,120.5C 363.382,121.76 364.382,122.926 365.5,124C 369.251,123.917 371.251,125.751 371.5,129.5C 375.319,131.068 378.319,133.568 380.5,137C 384.238,138.542 387.905,140.375 391.5,142.5C 392.721,143.028 393.887,143.695 395,144.5C 397.969,149.352 401.303,154.019 405,158.5C 405.566,160.723 406.4,162.723 407.5,164.5C 408.407,171.514 409.407,178.514 410.5,185.5C 409.126,195.855 409.293,206.189 411,216.5C 411.383,217.056 411.883,217.389 412.5,217.5C 418.841,226.174 426.508,233.507 435.5,239.5C 435.628,241.09 436.295,242.423 437.5,243.5C 442.596,246.957 447.929,250.124 453.5,253C 455.03,255.352 456.697,257.519 458.5,259.5C 459.638,262.304 459.805,265.304 459,268.5C 458.28,270.056 457.113,271.056 455.5,271.5C 453.137,273.039 451.137,275.039 449.5,277.5C 448.675,278.386 447.675,278.719 446.5,278.5C 444.679,284.352 444.179,290.352 445,296.5C 445.876,298.635 447.376,299.969 449.5,300.5C 451.822,301.815 454.155,303.148 456.5,304.5C 458.963,307.335 459.13,310.335 457,313.5C 454.287,315.72 451.454,317.72 448.5,319.5C 447.414,319.62 446.747,320.287 446.5,321.5C 447.408,327.398 450.741,330.065 456.5,329.5C 455.491,332.049 454.658,334.715 454,337.5C 450.167,340.242 448.334,344.075 448.5,349C 450.602,356.011 451.602,363.177 451.5,370.5C 446.08,382.552 436.746,389.218 423.5,390.5C 414.848,390.663 406.515,392.33 398.5,395.5C 388.183,396.332 377.849,396.832 367.5,397C 363.06,400.059 358.393,402.226 353.5,403.5C 348.531,407.637 344.031,412.304 340,417.5C 338.393,424.77 334.226,429.937 327.5,433C 319.778,436.012 311.778,438.012 303.5,439C 285.196,440.516 266.863,441.349 248.5,441.5C 247.5,441.5 246.5,441.5 245.5,441.5C 245.5,441.167 245.5,440.833 245.5,440.5C 253.684,440.826 261.684,440.492 269.5,439.5C 276.206,439.552 282.872,439.052 289.5,438C 292.874,437.479 295.874,436.146 298.5,434C 300.134,433.506 301.801,433.34 303.5,433.5C 307.003,428.267 309.837,422.6 312,416.5C 319.813,405.352 330.313,398.352 343.5,395.5C 356.504,395.667 369.504,395.5 382.5,395C 388.412,394.385 394.079,393.218 399.5,391.5C 403.636,391.532 406.636,389.698 408.5,386C 409.5,385.667 410.5,385.333 411.5,385C 412.565,382.594 413.898,380.427 415.5,378.5C 416.167,367.167 416.833,355.833 417.5,344.5C 422.894,341.261 424.727,336.594 423,330.5C 420.904,328.734 418.571,327.401 416,326.5C 415.503,324.19 415.337,321.857 415.5,319.5C 416.167,319.5 416.833,319.5 417.5,319.5C 423.504,316.41 425.004,311.743 422,305.5C 411.98,298.867 409.814,290.201 415.5,279.5C 417.538,277.457 419.205,275.124 420.5,272.5C 422.059,271.926 423.559,271.26 425,270.5C 427.004,262.78 425.17,256.28 419.5,251C 415.2,247.702 411.2,244.035 407.5,240C 406.552,239.517 405.552,239.351 404.5,239.5C 403.971,235.967 401.971,233.633 398.5,232.5C 395.799,229.394 392.965,226.394 390,223.5C 387.468,219.769 385.468,215.769 384,211.5C 383.55,200.996 383.717,190.496 384.5,180C 384.433,173.465 383.933,166.965 383,160.5C 379.727,154.288 376.727,147.954 374,141.5C 372,139.5 370,137.5 368,135.5C 366.032,131.032 362.866,127.699 358.5,125.5C 349.735,115.974 339.068,109.641 326.5,106.5C 323.447,108.693 320.113,110.36 316.5,111.5C 319.223,109.796 321.556,107.629 323.5,105C 324.333,104.833 325.167,104.667 326,104.5C 333.137,106.655 340.304,108.655 347.5,110.5 Z"/></g>
<g><path style="opacity:1" fill="#dc5b56" d="M 109.5,131.5 C 110.11,132.391 110.443,133.391 110.5,134.5C 109.603,133.402 108.77,133.402 108,134.5C 104.392,140.734 100.559,146.734 96.5,152.5C 96.1601,149.856 96.8267,147.523 98.5,145.5C 97.9747,144.808 97.3081,144.308 96.5,144C 99.4985,142.953 100.999,140.787 101,137.5C 101.414,137.957 101.914,138.291 102.5,138.5C 103.298,136.922 103.798,135.256 104,133.5C 105.813,134.609 106.646,133.942 106.5,131.5C 107.5,131.5 108.5,131.5 109.5,131.5 Z"/></g>
<g><path style="opacity:0.918" fill="#c56a67" d="M 110.5,134.5 C 112.411,134.574 113.578,135.574 114,137.5C 115.702,143.453 117.869,149.12 120.5,154.5C 116.229,148.386 112.895,141.719 110.5,134.5 Z"/></g>
<g><path style="opacity:1" fill="#d46764" d="M 96.5,152.5 C 95.9213,155.331 94.588,157.664 92.5,159.5C 92.5988,156.361 93.9321,154.027 96.5,152.5 Z"/></g>
<g><path style="opacity:1" fill="#e6aa7e" d="M 221.5,158.5 C 223.099,158.232 224.432,158.566 225.5,159.5C 228.896,161.595 232.563,163.428 236.5,165C 232.461,165.048 228.461,164.548 224.5,163.5C 221.88,161.895 219.047,160.562 216,159.5C 215.568,158.4 216.068,157.733 217.5,157.5C 218.849,157.846 220.183,158.179 221.5,158.5 Z"/></g>
<g><path style="opacity:1" fill="#d7635e" d="M 92.5,159.5 C 91.5371,162.744 90.2038,165.744 88.5,168.5C 88.1924,166.076 88.5258,163.743 89.5,161.5C 90.2652,160.388 91.2652,159.721 92.5,159.5 Z"/></g>
<g><path style="opacity:0.945" fill="#f5d5bb" d="M 225.5,159.5 C 233.877,162.182 242.21,164.849 250.5,167.5C 250.577,168.75 251.244,169.583 252.5,170C 250.527,170.495 248.527,170.662 246.5,170.5C 238.955,168.539 231.622,166.206 224.5,163.5C 228.461,164.548 232.461,165.048 236.5,165C 232.563,163.428 228.896,161.595 225.5,159.5 Z"/></g>
<g><path style="opacity:0.333" fill="#fbd3b6" d="M 284.5,171.5 C 281.688,170.042 278.688,169.042 275.5,168.5C 271.768,168.865 268.768,170.532 266.5,173.5C 266.167,173.5 265.833,173.5 265.5,173.5C 265.557,172.391 265.89,171.391 266.5,170.5C 266.414,169.504 266.748,168.671 267.5,168C 272.5,164.667 277.5,164.667 282.5,168C 283.823,168.816 284.489,169.983 284.5,171.5 Z"/></g>
<g><path style="opacity:1" fill="#dc7975" d="M 88.5,168.5 C 86.8139,172.576 85.1472,176.576 83.5,180.5C 83.0717,175.463 84.7384,171.463 88.5,168.5 Z"/></g>
<g><path style="opacity:0.325" fill="#f8ebe0" d="M 250.5,167.5 C 254.726,169.355 259.06,171.021 263.5,172.5C 264.265,171.388 265.265,170.721 266.5,170.5C 265.89,171.391 265.557,172.391 265.5,173.5C 265.167,173.5 264.833,173.5 264.5,173.5C 263.596,174.209 263.263,175.209 263.5,176.5C 257.608,174.871 251.941,172.871 246.5,170.5C 248.527,170.662 250.527,170.495 252.5,170C 251.244,169.583 250.577,168.75 250.5,167.5 Z"/></g>
<g><path style="opacity:1" fill="#f28133" d="M 284.5,171.5 C 285.243,177.094 284.077,182.094 281,186.5C 278.159,188.504 274.993,189.004 271.5,188C 270.944,187.617 270.611,187.117 270.5,186.5C 266.868,183.016 265.535,178.683 266.5,173.5C 268.768,170.532 271.768,168.865 275.5,168.5C 278.688,169.042 281.688,170.042 284.5,171.5 Z"/></g>
<g><path style="opacity:0.176" fill="#ffe0c5" d="M 337.5,134.5 C 339.696,135.838 341.696,137.505 343.5,139.5C 348.003,145.835 352.003,152.502 355.5,159.5C 356.509,162.049 357.342,164.715 358,167.5C 358.333,182.833 358.667,198.167 359,213.5C 359.24,215.852 360.073,217.852 361.5,219.5C 366.789,224.962 371.789,230.629 376.5,236.5C 374.745,235.928 373.078,235.094 371.5,234C 366.644,229.807 362.477,224.974 359,219.5C 357.777,214.322 356.611,209.155 355.5,204C 361.428,177.637 355.428,154.47 337.5,134.5 Z"/></g>
<g><path style="opacity:0.192" fill="#fee0c5" d="M 284.5,171.5 C 288.735,186.764 283.068,192.264 267.5,188C 264.034,184.96 262.7,181.126 263.5,176.5C 263.263,175.209 263.596,174.209 264.5,173.5C 263.095,179.611 265.095,183.945 270.5,186.5C 270.611,187.117 270.944,187.617 271.5,188C 274.993,189.004 278.159,188.504 281,186.5C 284.077,182.094 285.243,177.094 284.5,171.5 Z"/></g>
<g><path style="opacity:0.996" fill="#eeb690" d="M 407.5,164.5 C 409.462,167.865 410.962,171.532 412,175.5C 412.5,189.496 412.667,203.496 412.5,217.5C 411.883,217.389 411.383,217.056 411,216.5C 409.293,206.189 409.126,195.855 410.5,185.5C 409.407,178.514 408.407,171.514 407.5,164.5 Z"/></g>
<g><path style="opacity:1" fill="#eab186" d="M 195.5,175.5 C 200.896,181.291 205.563,187.624 209.5,194.5C 210.441,196.466 211.441,198.466 212.5,200.5C 211.767,201.087 210.767,201.087 209.5,200.5C 209.291,199.078 208.791,197.745 208,196.5C 202.904,189.981 197.571,183.648 192,177.5C 191.251,176.365 191.417,175.365 192.5,174.5C 193.417,175.127 194.417,175.461 195.5,175.5 Z"/></g>
<g><path style="opacity:0.996" fill="#e5965f" d="M 264.5,173.5 C 264.833,173.5 265.167,173.5 265.5,173.5C 265.833,173.5 266.167,173.5 266.5,173.5C 265.535,178.683 266.868,183.016 270.5,186.5C 265.095,183.945 263.095,179.611 264.5,173.5 Z"/></g>
<g><path style="opacity:0.694" fill="#e07e7b" d="M 83.5,180.5 C 82.871,183.397 81.871,186.064 80.5,188.5C 80.3072,185.189 81.3072,182.522 83.5,180.5 Z"/></g>
<g><path style="opacity:0.129" fill="#fdebdc" d="M 390.5,139.5 C 404.877,150.746 412.877,165.579 414.5,184C 413.349,193.422 413.182,202.922 414,212.5C 415.241,218.809 418.408,223.976 423.5,228C 430.939,232.609 437.605,238.109 443.5,244.5C 442.448,244.649 441.448,244.483 440.5,244C 439.22,242.034 437.553,240.534 435.5,239.5C 426.508,233.507 418.841,226.174 412.5,217.5C 412.667,203.496 412.5,189.496 412,175.5C 410.962,171.532 409.462,167.865 407.5,164.5C 406.4,162.723 405.566,160.723 405,158.5C 401.303,154.019 397.969,149.352 395,144.5C 393.887,143.695 392.721,143.028 391.5,142.5C 391.443,141.391 391.11,140.391 390.5,139.5 Z"/></g>
<g><path style="opacity:1" fill="#cd4a44" d="M 79.5,191.5 C 79.3259,193.861 78.9926,196.194 78.5,198.5C 77.7271,201.787 75.7271,203.287 72.5,203C 71.944,202.617 71.6107,202.117 71.5,201.5C 73.0418,200.699 74.7085,200.366 76.5,200.5C 76.5,197.5 76.5,194.5 76.5,191.5C 77.5,191.5 78.5,191.5 79.5,191.5 Z"/></g>
<g><path style="opacity:1" fill="#f0e7da" d="M 69.5,196.5 C 70.1667,198.167 70.8333,199.833 71.5,201.5C 71.6107,202.117 71.944,202.617 72.5,203C 75.7271,203.287 77.7271,201.787 78.5,198.5C 88.2045,193.936 94.0378,196.936 96,207.5C 108.585,210.745 110.752,217.412 102.5,227.5C 110.573,233.791 110.239,239.624 101.5,245C 98.1832,245.498 94.8499,245.665 91.5,245.5C 92.4656,254.024 88.799,258.191 80.5,258C 77.527,256.235 75.3604,253.735 74,250.5C 72.2319,255.105 69.0652,258.105 64.5,259.5C 60.6555,259.152 58.6555,256.986 58.5,253C 59.2865,250.901 59.6199,248.734 59.5,246.5C 48.9951,246.146 46.6618,241.479 52.5,232.5C 48.1896,230.692 45.5229,227.525 44.5,223C 46.8219,217.168 51.1552,214.335 57.5,214.5C 55.672,204.347 59.672,199.68 69.5,200.5C 69.5,199.167 69.5,197.833 69.5,196.5 Z"/></g>
<g><path style="opacity:0.58" fill="#f8e3cf" d="M 209.5,194.5 C 214.721,200.582 219.721,206.916 224.5,213.5C 228.122,214.325 231.789,214.825 235.5,215C 238.079,216.076 239.746,217.909 240.5,220.5C 236.003,215.583 230.67,214.417 224.5,217C 223.748,217.671 223.414,218.504 223.5,219.5C 220.9,224.2 220.9,228.867 223.5,233.5C 224.167,234.5 224.833,235.5 225.5,236.5C 223.91,236.372 222.577,235.705 221.5,234.5C 220.497,231.828 219.497,229.162 218.5,226.5C 220.285,222.994 221.118,219.328 221,215.5C 216.568,210.909 212.734,205.909 209.5,200.5C 210.767,201.087 211.767,201.087 212.5,200.5C 211.441,198.466 210.441,196.466 209.5,194.5 Z"/></g>
<g><path style="opacity:0.988" fill="#e78d4f" d="M 355.5,159.5 C 358.317,162.142 359.817,165.475 360,169.5C 360.263,178.164 360.096,186.831 359.5,195.5C 359.512,203.565 360.178,211.565 361.5,219.5C 360.073,217.852 359.24,215.852 359,213.5C 358.667,198.167 358.333,182.833 358,167.5C 357.342,164.715 356.509,162.049 355.5,159.5 Z"/></g>
<g><path style="opacity:0.914" fill="#efb386" d="M 147.5,215.5 C 143.298,215.183 139.298,215.517 135.5,216.5C 124.577,220.192 119.911,227.859 121.5,239.5C 120.13,234.197 120.463,228.863 122.5,223.5C 123.833,220.167 126.167,217.833 129.5,216.5C 134.693,214.98 140.026,214.147 145.5,214C 147.131,212.164 147.798,212.664 147.5,215.5 Z"/></g>
<g><path style="opacity:0.994" fill="#eda470" d="M 240.5,220.5 C 240.5,221.5 240.5,222.5 240.5,223.5C 235.946,217.39 230.279,216.057 223.5,219.5C 223.414,218.504 223.748,217.671 224.5,217C 230.67,214.417 236.003,215.583 240.5,220.5 Z"/></g>
<g><path style="opacity:1" fill="#f37f2f" d="M 135.5,216.5 C 140.672,216.183 145.672,216.849 150.5,218.5C 150.5,219.5 150.5,220.5 150.5,221.5C 149.325,221.281 148.325,221.614 147.5,222.5C 150.496,226.305 151.163,230.471 149.5,235C 150.932,235.27 151.932,234.604 152.5,233C 151.544,229.606 151.211,226.106 151.5,222.5C 155.191,222.631 157.191,224.631 157.5,228.5C 158.489,232.107 158.823,235.774 158.5,239.5C 158.023,243.793 156.023,247.127 152.5,249.5C 151.005,249.415 150.005,250.081 149.5,251.5C 143.863,252.663 138.196,252.83 132.5,252C 131.692,250.294 130.359,249.461 128.5,249.5C 128.5,248.5 128.5,247.5 128.5,246.5C 127.167,246.5 125.833,246.5 124.5,246.5C 122.688,244.539 121.688,242.206 121.5,239.5C 119.911,227.859 124.577,220.192 135.5,216.5 Z"/></g>
<g><path style="opacity:1" fill="#ec8743" d="M 135.5,216.5 C 139.298,215.517 143.298,215.183 147.5,215.5C 151.424,217.918 154.924,220.918 158,224.5C 159.682,229.594 159.848,234.594 158.5,239.5C 158.823,235.774 158.489,232.107 157.5,228.5C 157.191,224.631 155.191,222.631 151.5,222.5C 151.211,226.106 151.544,229.606 152.5,233C 151.932,234.604 150.932,235.27 149.5,235C 151.163,230.471 150.496,226.305 147.5,222.5C 148.325,221.614 149.325,221.281 150.5,221.5C 150.5,220.5 150.5,219.5 150.5,218.5C 145.672,216.849 140.672,216.183 135.5,216.5 Z"/></g>
<g><path style="opacity:1" fill="#ed8239" d="M 240.5,223.5 C 240.841,227.16 240.175,230.493 238.5,233.5C 234.762,235.417 230.762,235.917 226.5,235C 225.944,234.617 225.611,234.117 225.5,233.5C 224.833,233.5 224.167,233.5 223.5,233.5C 220.9,228.867 220.9,224.2 223.5,219.5C 230.279,216.057 235.946,217.39 240.5,223.5 Z"/></g>
<g><path style="opacity:1" fill="#f57e2d" d="M 225.5,233.5 C 224.766,232.292 224.433,230.959 224.5,229.5C 229.947,229.545 230.447,228.545 226,226.5C 224.211,229.179 223.045,229.013 222.5,226C 222.955,224.276 223.788,222.776 225,221.5C 226.418,223.363 228.251,223.863 230.5,223C 225.42,220.013 226.087,218.68 232.5,219C 231.289,220.113 231.289,221.28 232.5,222.5C 238.078,223.323 239.745,226.323 237.5,231.5C 233.888,234.533 229.888,235.199 225.5,233.5 Z"/></g>
<g><path style="opacity:0.322" fill="#fee2c7" d="M 240.5,220.5 C 241.117,220.611 241.617,220.944 242,221.5C 242.667,224.833 242.667,228.167 242,231.5C 240.924,234.079 239.091,235.746 236.5,236.5C 237.167,235.5 237.833,234.5 238.5,233.5C 240.175,230.493 240.841,227.16 240.5,223.5C 240.5,222.5 240.5,221.5 240.5,220.5 Z"/></g>
<g><path style="opacity:0.175" fill="#fee7d3" d="M 122.5,223.5 C 120.463,228.863 120.13,234.197 121.5,239.5C 121.688,242.206 122.688,244.539 124.5,246.5C 126.626,248.854 128.626,251.187 130.5,253.5C 119.536,246.612 116.369,236.945 121,224.5C 121.383,223.944 121.883,223.611 122.5,223.5 Z"/></g>
<g><path style="opacity:0.925" fill="#f0a979" d="M 223.5,233.5 C 224.167,233.5 224.833,233.5 225.5,233.5C 225.611,234.117 225.944,234.617 226.5,235C 230.762,235.917 234.762,235.417 238.5,233.5C 237.833,234.5 237.167,235.5 236.5,236.5C 232.816,237.728 229.15,237.728 225.5,236.5C 224.833,235.5 224.167,234.5 223.5,233.5 Z"/></g>
<g><path style="opacity:0.11" fill="#fff3e6" d="M 225.5,236.5 C 229.15,237.728 232.816,237.728 236.5,236.5C 236.389,237.117 236.056,237.617 235.5,238C 232.5,238.667 229.5,238.667 226.5,238C 225.944,237.617 225.611,237.117 225.5,236.5 Z"/></g>
<g><path style="opacity:0.02" fill="#fee4cd" d="M 376.5,236.5 C 381.246,239.369 385.58,242.703 389.5,246.5C 390.5,247.833 391.5,249.167 392.5,250.5C 385.888,247.253 380.554,242.586 376.5,236.5 Z"/></g>
<g><path style="opacity:1" fill="#f37f30" d="M 358.5,125.5 C 358.568,132.233 361.901,136.233 368.5,137.5C 368.5,138.5 368.5,139.5 368.5,140.5C 372.667,140.846 374.5,143.18 374,147.5C 379.424,155.342 382.257,164.008 382.5,173.5C 380.857,173.52 379.524,172.853 378.5,171.5C 376.999,172.752 375.332,173.752 373.5,174.5C 376.428,175.484 379.428,175.817 382.5,175.5C 382.333,189.504 382.5,203.504 383,217.5C 385.701,220.698 388.201,224.031 390.5,227.5C 392.936,229.616 395.603,231.283 398.5,232.5C 401.971,233.633 403.971,235.967 404.5,239.5C 405.552,239.351 406.552,239.517 407.5,240C 411.2,244.035 415.2,247.702 419.5,251C 425.17,256.28 427.004,262.78 425,270.5C 423.559,271.26 422.059,271.926 420.5,272.5C 419.205,275.124 417.538,277.457 415.5,279.5C 411.525,281.903 409.859,285.57 410.5,290.5C 410.667,293.167 410.833,295.833 411,298.5C 412.694,300.24 413.861,302.24 414.5,304.5C 419.311,306.14 421.478,309.473 421,314.5C 419.331,315.846 418.164,317.513 417.5,319.5C 416.833,319.5 416.167,319.5 415.5,319.5C 414.5,319.833 413.833,320.5 413.5,321.5C 411.623,322.659 411.123,324.326 412,326.5C 413.914,329.002 416.247,331.002 419,332.5C 419.167,333.333 419.333,334.167 419.5,335C 417.249,338.259 415.416,341.759 414,345.5C 414.249,354.157 414.249,362.823 414,371.5C 410.691,374.452 408.691,378.119 408,382.5C 406.325,383.595 405.158,385.095 404.5,387C 403.5,387.5 402.5,388 401.5,388.5C 398.848,384.971 395.848,384.638 392.5,387.5C 394.396,388.466 396.396,388.799 398.5,388.5C 398.5,389.5 398.5,390.5 398.5,391.5C 389.827,392.013 381.16,392.68 372.5,393.5C 370.833,393.167 369.167,392.833 367.5,392.5C 369.544,391.935 371.21,390.935 372.5,389.5C 377.031,387.643 380.698,384.643 383.5,380.5C 386.277,378.36 388.444,375.693 390,372.5C 390.884,368.887 391.384,365.22 391.5,361.5C 390.619,354.844 390.453,348.177 391,341.5C 393,339.5 395,337.5 397,335.5C 397.498,332.518 397.665,329.518 397.5,326.5C 396.167,326.5 394.833,326.5 393.5,326.5C 387.628,323.989 386.961,320.322 391.5,315.5C 395.722,314.929 397.722,312.429 397.5,308C 397.333,306.833 397.167,305.667 397,304.5C 394.313,303.418 392.146,301.751 390.5,299.5C 388.091,292.523 388.091,285.523 390.5,278.5C 392.936,276.983 395.102,277.316 397,279.5C 397.497,277.19 397.663,274.857 397.5,272.5C 398.5,272.5 399.5,272.5 400.5,272.5C 400.505,269.468 400.838,266.468 401.5,263.5C 401.66,261.645 400.993,260.312 399.5,259.5C 399.747,257.142 399.081,255.142 397.5,253.5C 397.461,252.417 397.127,251.417 396.5,250.5C 394.138,249.12 391.805,247.787 389.5,246.5C 385.58,242.703 381.246,239.369 376.5,236.5C 371.789,230.629 366.789,224.962 361.5,219.5C 360.178,211.565 359.512,203.565 359.5,195.5C 360.096,186.831 360.263,178.164 360,169.5C 359.817,165.475 358.317,162.142 355.5,159.5C 352.003,152.502 348.003,145.835 343.5,139.5C 342.819,134.625 340.152,131.458 335.5,130C 333.249,125.924 329.915,123.424 325.5,122.5C 323.518,119.863 320.852,118.53 317.5,118.5C 316.886,116.277 315.552,114.611 313.5,113.5C 314.005,112.081 315.005,111.415 316.5,111.5C 320.113,110.36 323.447,108.693 326.5,106.5C 339.068,109.641 349.735,115.974 358.5,125.5 Z"/></g>
<g><path style="opacity:0.827" fill="#efa36c" d="M 389.5,246.5 C 391.805,247.787 394.138,249.12 396.5,250.5C 397.127,251.417 397.461,252.417 397.5,253.5C 395.999,252.248 394.332,251.248 392.5,250.5C 391.5,249.167 390.5,247.833 389.5,246.5 Z"/></g>
<g><path style="opacity:0.275" fill="#ffe9d7" d="M 130.5,253.5 C 131.833,253.5 133.167,253.5 134.5,253.5C 138.833,254.167 143.167,254.833 147.5,255.5C 141.415,257.306 135.748,256.64 130.5,253.5 Z"/></g>
<g><path style="opacity:0.29" fill="#f6b889" d="M 134.5,253.5 C 139.179,253.334 143.845,253.501 148.5,254C 149.823,254.816 150.489,255.983 150.5,257.5C 149.5,256.833 148.5,256.167 147.5,255.5C 143.167,254.833 138.833,254.167 134.5,253.5 Z"/></g>
<g><path style="opacity:0.98" fill="#f6d3b9" d="M 435.5,239.5 C 437.553,240.534 439.22,242.034 440.5,244C 441.448,244.483 442.448,244.649 443.5,244.5C 449.86,246.494 454.86,250.161 458.5,255.5C 458.5,256.833 458.5,258.167 458.5,259.5C 456.697,257.519 455.03,255.352 453.5,253C 447.929,250.124 442.596,246.957 437.5,243.5C 436.295,242.423 435.628,241.09 435.5,239.5 Z"/></g>
<g><path style="opacity:1" fill="#ea955c" d="M 124.5,246.5 C 125.833,246.5 127.167,246.5 128.5,246.5C 128.5,247.5 128.5,248.5 128.5,249.5C 130.359,249.461 131.692,250.294 132.5,252C 138.196,252.83 143.863,252.663 149.5,251.5C 150.005,250.081 151.005,249.415 152.5,249.5C 151.588,250.738 151.421,252.072 152,253.5C 156.497,261.142 160.33,269.142 163.5,277.5C 163.672,278.492 163.338,279.158 162.5,279.5C 157.738,272.698 153.738,265.365 150.5,257.5C 150.489,255.983 149.823,254.816 148.5,254C 143.845,253.501 139.179,253.334 134.5,253.5C 133.167,253.5 131.833,253.5 130.5,253.5C 128.626,251.187 126.626,248.854 124.5,246.5 Z"/></g>
<g><path style="opacity:0.078" fill="#fee4cc" d="M 392.5,250.5 C 394.332,251.248 395.999,252.248 397.5,253.5C 399.081,255.142 399.747,257.142 399.5,259.5C 399.664,262.187 399.497,264.854 399,267.5C 395.224,270.442 392.391,274.109 390.5,278.5C 389.5,279.167 388.5,279.833 387.5,280.5C 389.391,276.109 392.224,272.442 396,269.5C 399.129,262.353 397.962,256.019 392.5,250.5 Z"/></g>
<g><path style="opacity:1" fill="#f18e4b" d="M 399.5,259.5 C 400.993,260.312 401.66,261.645 401.5,263.5C 400.838,266.468 400.505,269.468 400.5,272.5C 399.5,272.5 398.5,272.5 397.5,272.5C 397.663,274.857 397.497,277.19 397,279.5C 395.102,277.316 392.936,276.983 390.5,278.5C 392.391,274.109 395.224,270.442 399,267.5C 399.497,264.854 399.664,262.187 399.5,259.5 Z"/></g>
<g><path style="opacity:1" fill="#ef8741" d="M 415.5,279.5 C 409.814,290.201 411.98,298.867 422,305.5C 425.004,311.743 423.504,316.41 417.5,319.5C 418.164,317.513 419.331,315.846 421,314.5C 421.478,309.473 419.311,306.14 414.5,304.5C 413.861,302.24 412.694,300.24 411,298.5C 410.833,295.833 410.667,293.167 410.5,290.5C 409.859,285.57 411.525,281.903 415.5,279.5 Z"/></g>
<g><path style="opacity:0.937" fill="#ecb894" d="M 455.5,271.5 C 453.235,274.607 450.735,277.607 448,280.5C 445.533,287.474 446.033,294.141 449.5,300.5C 447.376,299.969 445.876,298.635 445,296.5C 444.179,290.352 444.679,284.352 446.5,278.5C 447.675,278.719 448.675,278.386 449.5,277.5C 451.137,275.039 453.137,273.039 455.5,271.5 Z"/></g>
<g><path style="opacity:0.114" fill="#feead5" d="M 165.5,278.5 C 168.008,282.182 170.008,286.182 171.5,290.5C 168.436,287.038 166.436,283.038 165.5,278.5 Z"/></g>
<g><path style="opacity:1" fill="#ea955a" d="M 390.5,278.5 C 388.091,285.523 388.091,292.523 390.5,299.5C 389.115,298.426 387.949,297.093 387,295.5C 386.283,290.78 386.45,286.114 387.5,281.5C 387.5,281.167 387.5,280.833 387.5,280.5C 388.5,279.833 389.5,279.167 390.5,278.5 Z"/></g>
<g><path style="opacity:0.227" fill="#fee9d4" d="M 147.5,255.5 C 148.5,256.167 149.5,256.833 150.5,257.5C 153.738,265.365 157.738,272.698 162.5,279.5C 167.125,288.415 171.459,297.415 175.5,306.5C 165.426,289.981 156.092,272.981 147.5,255.5 Z"/></g>
<g><path style="opacity:0.259" fill="#ffe3cb" d="M 229.5,297.5 C 230.936,295.917 232.602,294.417 234.5,293C 235.448,292.517 236.448,292.351 237.5,292.5C 242.701,296.844 247.368,296.51 251.5,291.5C 252.966,290.653 253.8,289.32 254,287.5C 255.913,279.3 252.58,274.967 244,274.5C 242.124,274.525 240.624,275.191 239.5,276.5C 237.629,276.859 236.129,277.859 235,279.5C 234.827,283.541 234.327,287.541 233.5,291.5C 231.275,293.11 228.941,294.443 226.5,295.5C 228.498,293.4 230.665,291.4 233,289.5C 231.988,275.108 238.488,270.275 252.5,275C 259.368,282.582 258.701,289.582 250.5,296C 245.491,296.939 240.658,296.439 236,294.5C 234.022,295.906 231.855,296.906 229.5,297.5 Z"/></g>
<g><path style="opacity:1" fill="#ee8d4c" d="M 235.5,287.5 C 237.282,288.72 239.282,289.386 241.5,289.5C 241.176,292.68 242.51,293.847 245.5,293C 245.259,291.438 245.759,289.938 247,288.5C 247.483,289.448 247.649,290.448 247.5,291.5C 248.833,291.5 250.167,291.5 251.5,291.5C 247.368,296.51 242.701,296.844 237.5,292.5C 236.032,291.221 235.365,289.554 235.5,287.5 Z"/></g>
<g><path style="opacity:1" fill="#f28132" d="M 251.5,291.5 C 250.167,291.5 248.833,291.5 247.5,291.5C 247.649,290.448 247.483,289.448 247,288.5C 245.759,289.938 245.259,291.438 245.5,293C 242.51,293.847 241.176,292.68 241.5,289.5C 239.282,289.386 237.282,288.72 235.5,287.5C 234.658,282.949 235.992,279.283 239.5,276.5C 240.624,275.191 242.124,274.525 244,274.5C 252.58,274.967 255.913,279.3 254,287.5C 253.8,289.32 252.966,290.653 251.5,291.5 Z"/></g>
<g><path style="opacity:0.929" fill="#e7b088" d="M 163.5,277.5 C 164.167,277.833 164.833,278.167 165.5,278.5C 166.436,283.038 168.436,287.038 171.5,290.5C 172.607,295.643 174.607,300.476 177.5,305C 177.164,306.03 176.497,306.53 175.5,306.5C 171.459,297.415 167.125,288.415 162.5,279.5C 163.338,279.158 163.672,278.492 163.5,277.5 Z"/></g>
<g><path style="opacity:0.204" fill="#ffe8d1" d="M 387.5,281.5 C 386.45,286.114 386.283,290.78 387,295.5C 387.949,297.093 389.115,298.426 390.5,299.5C 392.146,301.751 394.313,303.418 397,304.5C 397.167,305.667 397.333,306.833 397.5,308C 397.722,312.429 395.722,314.929 391.5,315.5C 398.451,310.6 398.118,306.267 390.5,302.5C 385.663,296.747 384.163,290.081 386,282.5C 386.383,281.944 386.883,281.611 387.5,281.5 Z"/></g>
<g><path style="opacity:0.98" fill="#ecb48c" d="M 239.5,276.5 C 235.992,279.283 234.658,282.949 235.5,287.5C 235.365,289.554 236.032,291.221 237.5,292.5C 236.448,292.351 235.448,292.517 234.5,293C 232.602,294.417 230.936,295.917 229.5,297.5C 225.905,299.102 222.571,301.102 219.5,303.5C 219.44,302.957 219.107,302.624 218.5,302.5C 217.378,303.63 216.044,304.297 214.5,304.5C 214.833,303.833 215.167,303.167 215.5,302.5C 218.626,299.385 222.293,297.052 226.5,295.5C 228.941,294.443 231.275,293.11 233.5,291.5C 234.327,287.541 234.827,283.541 235,279.5C 236.129,277.859 237.629,276.859 239.5,276.5 Z"/></g>
<g><path style="opacity:0.71" fill="#fce4cf" d="M 171.5,290.5 C 174.856,296.3 178.023,302.3 181,308.5C 186.764,305.716 192.264,306.05 197.5,309.5C 196.833,309.5 196.167,309.5 195.5,309.5C 195.167,309.5 194.833,309.5 194.5,309.5C 189.21,308.128 183.876,308.461 178.5,310.5C 176.722,312.264 175.389,314.264 174.5,316.5C 173.732,317.263 173.232,318.263 173,319.5C 172.333,323.167 172.333,326.833 173,330.5C 174.74,331.716 175.74,333.382 176,335.5C 177.451,337.464 179.284,338.797 181.5,339.5C 181.5,339.833 181.5,340.167 181.5,340.5C 176.214,338.711 172.714,335.044 171,329.5C 169.292,322.532 170.959,316.532 176,311.5C 176.384,309.803 176.218,308.137 175.5,306.5C 176.497,306.53 177.164,306.03 177.5,305C 174.607,300.476 172.607,295.643 171.5,290.5 Z"/></g>
<g><path style="opacity:0.067" fill="#ffefdd" d="M 215.5,302.5 C 215.167,303.167 214.833,303.833 214.5,304.5C 210.259,307.54 205.759,310.206 201,312.5C 199.358,312.022 198.191,311.022 197.5,309.5C 199.017,309.511 200.184,310.177 201,311.5C 205.715,308.28 210.548,305.28 215.5,302.5 Z"/></g>
<g><path style="opacity:1" fill="#e99b64" d="M 219.5,303.5 C 214.673,307.843 209.507,311.843 204,315.5C 204.033,319.812 204.366,324.145 205,328.5C 211.675,332.675 218.842,335.675 226.5,337.5C 230.222,339.929 234.222,342.096 238.5,344C 238,344.167 237.5,344.333 237,344.5C 231.347,342.34 225.514,340.673 219.5,339.5C 219.389,338.883 219.056,338.383 218.5,338C 214.04,336.352 209.54,334.852 205,333.5C 202.12,334.21 199.953,335.877 198.5,338.5C 197.833,338.5 197.167,338.5 196.5,338.5C 198.778,335.049 201.778,332.549 205.5,331C 205,330.5 204.5,330 204,329.5C 203.484,325.434 202.65,321.434 201.5,317.5C 201.608,316.558 201.941,315.725 202.5,315C 199.428,314.093 197.095,312.26 195.5,309.5C 196.167,309.5 196.833,309.5 197.5,309.5C 198.191,311.022 199.358,312.022 201,312.5C 205.759,310.206 210.259,307.54 214.5,304.5C 216.044,304.297 217.378,303.63 218.5,302.5C 219.107,302.624 219.44,302.957 219.5,303.5 Z"/></g>
<g><path style="opacity:0.298" fill="#fde8d6" d="M 458.5,255.5 C 459.222,255.918 459.722,256.584 460,257.5C 460.667,261.833 460.667,266.167 460,270.5C 453.302,275.246 449.135,281.579 447.5,289.5C 447.822,296.154 451.155,300.488 457.5,302.5C 460.722,306.164 461.222,310.164 459,314.5C 455.742,316.88 452.576,319.38 449.5,322C 452.166,324.335 455.166,326.169 458.5,327.5C 459.8,330.309 459.8,332.976 458.5,335.5C 459.703,329.632 457.369,326.799 451.5,327C 448.959,325.152 447.959,322.652 448.5,319.5C 451.454,317.72 454.287,315.72 457,313.5C 459.13,310.335 458.963,307.335 456.5,304.5C 454.155,303.148 451.822,301.815 449.5,300.5C 446.033,294.141 445.533,287.474 448,280.5C 450.735,277.607 453.235,274.607 455.5,271.5C 457.113,271.056 458.28,270.056 459,268.5C 459.805,265.304 459.638,262.304 458.5,259.5C 458.5,258.167 458.5,256.833 458.5,255.5 Z"/></g>
<g><path style="opacity:1" fill="#f27f2f" d="M 194.5,309.5 C 194.833,309.5 195.167,309.5 195.5,309.5C 197.095,312.26 199.428,314.093 202.5,315C 201.941,315.725 201.608,316.558 201.5,317.5C 202.65,321.434 203.484,325.434 204,329.5C 204.5,330 205,330.5 205.5,331C 201.778,332.549 198.778,335.049 196.5,338.5C 195.833,338.833 195.167,339.167 194.5,339.5C 193.069,339.881 192.236,340.881 192,342.5C 191.292,341.619 190.458,340.953 189.5,340.5C 189.389,339.883 189.056,339.383 188.5,339C 182.908,339.573 179.908,337.073 179.5,331.5C 177.807,330.772 176.307,329.772 175,328.5C 174.737,324.165 174.903,319.832 175.5,315.5C 178.758,313.183 182.424,311.35 186.5,310C 189.146,309.503 191.813,309.336 194.5,309.5 Z"/></g>
<g><path style="opacity:0.545" fill="#feddc2" d="M 391.5,315.5 C 386.961,320.322 387.628,323.989 393.5,326.5C 394.806,327.467 395.473,328.801 395.5,330.5C 390.907,328.907 387.574,325.907 385.5,321.5C 386.63,318.528 388.63,316.528 391.5,315.5 Z"/></g>
<g><path style="opacity:0.933" fill="#eda46f" d="M 174.5,316.5 C 173.632,320.808 173.466,325.141 174,329.5C 175.919,333.254 178.419,336.588 181.5,339.5C 179.284,338.797 177.451,337.464 176,335.5C 175.74,333.382 174.74,331.716 173,330.5C 172.333,326.833 172.333,323.167 173,319.5C 173.232,318.263 173.732,317.263 174.5,316.5 Z"/></g>
<g><path style="opacity:0.243" fill="#ffe6cd" d="M 229.5,297.5 C 222.269,304.128 214.602,310.294 206.5,316C 205.892,317.231 205.559,318.564 205.5,320C 206.301,322.797 206.634,325.464 206.5,328C 213.118,331.47 219.785,334.637 226.5,337.5C 218.842,335.675 211.675,332.675 205,328.5C 204.366,324.145 204.033,319.812 204,315.5C 209.507,311.843 214.673,307.843 219.5,303.5C 222.571,301.102 225.905,299.102 229.5,297.5 Z"/></g>
<g><path style="opacity:1" fill="#edb690" d="M 448.5,319.5 C 447.959,322.652 448.959,325.152 451.5,327C 457.369,326.799 459.703,329.632 458.5,335.5C 455.327,337.641 452.827,340.308 451,343.5C 451.032,350.176 451.532,356.843 452.5,363.5C 452.497,366.025 452.163,368.359 451.5,370.5C 451.602,363.177 450.602,356.011 448.5,349C 448.334,344.075 450.167,340.242 454,337.5C 454.658,334.715 455.491,332.049 456.5,329.5C 450.741,330.065 447.408,327.398 446.5,321.5C 446.747,320.287 447.414,319.62 448.5,319.5 Z"/></g>
<g><path style="opacity:1" fill="#eb8b4a" d="M 194.5,309.5 C 191.813,309.336 189.146,309.503 186.5,310C 182.424,311.35 178.758,313.183 175.5,315.5C 174.903,319.832 174.737,324.165 175,328.5C 176.307,329.772 177.807,330.772 179.5,331.5C 179.908,337.073 182.908,339.573 188.5,339C 189.056,339.383 189.389,339.883 189.5,340.5C 186.833,340.5 184.167,340.5 181.5,340.5C 181.5,340.167 181.5,339.833 181.5,339.5C 178.419,336.588 175.919,333.254 174,329.5C 173.466,325.141 173.632,320.808 174.5,316.5C 175.389,314.264 176.722,312.264 178.5,310.5C 183.876,308.461 189.21,308.128 194.5,309.5 Z"/></g>
<g><path style="opacity:0.306" fill="#fee8d3" d="M 219.5,339.5 C 214.59,338.141 209.756,336.474 205,334.5C 202.941,336.07 200.774,337.403 198.5,338.5C 199.953,335.877 202.12,334.21 205,333.5C 209.54,334.852 214.04,336.352 218.5,338C 219.056,338.383 219.389,338.883 219.5,339.5 Z"/></g>
<g><path style="opacity:1" fill="#f8a369" d="M 415.5,319.5 C 415.337,321.857 415.503,324.19 416,326.5C 418.571,327.401 420.904,328.734 423,330.5C 424.727,336.594 422.894,341.261 417.5,344.5C 416.833,355.833 416.167,367.167 415.5,378.5C 413.898,380.427 412.565,382.594 411.5,385C 410.5,385.333 409.5,385.667 408.5,386C 406.636,389.698 403.636,391.532 399.5,391.5C 401.395,389.902 403.562,388.568 406,387.5C 409.181,382.968 412.181,378.301 415,373.5C 415.333,363.167 415.667,352.833 416,342.5C 417.378,340.787 419.045,339.453 421,338.5C 421.818,335.773 421.652,333.106 420.5,330.5C 418.267,329.258 416.101,327.924 414,326.5C 413.506,324.866 413.34,323.199 413.5,321.5C 413.833,320.5 414.5,319.833 415.5,319.5 Z"/></g>
<g><path style="opacity:0.243" fill="#fadbc1" d="M 226.5,337.5 C 234.801,340.397 242.967,343.73 251,347.5C 257.254,341.32 263.754,340.986 270.5,346.5C 271.246,347.736 271.579,349.07 271.5,350.5C 271.5,353.5 271.5,356.5 271.5,359.5C 271.262,362.148 269.928,363.982 267.5,365C 255.44,368.317 249.107,363.817 248.5,351.5C 238.778,347.486 229.112,343.486 219.5,339.5C 225.514,340.673 231.347,342.34 237,344.5C 237.5,344.333 238,344.167 238.5,344C 234.222,342.096 230.222,339.929 226.5,337.5 Z"/></g>
<g><path style="opacity:0.173" fill="#fde9d8" d="M 458.5,335.5 C 457.604,338.069 455.938,340.069 453.5,341.5C 451.531,345.538 451.364,349.538 453,353.5C 456.766,372.376 449.6,384.876 431.5,391C 420.167,393.667 408.833,396.333 397.5,399C 385.41,399.345 373.41,400.511 361.5,402.5C 364.282,401.067 367.282,399.9 370.5,399C 388.899,399.499 406.566,396.665 423.5,390.5C 436.746,389.218 446.08,382.552 451.5,370.5C 452.163,368.359 452.497,366.025 452.5,363.5C 451.532,356.843 451.032,350.176 451,343.5C 452.827,340.308 455.327,337.641 458.5,335.5 Z"/></g>
<g><path style="opacity:0.275" fill="#fef0e2" d="M 271.5,350.5 C 274.167,353.5 274.167,356.5 271.5,359.5C 271.5,356.5 271.5,353.5 271.5,350.5 Z"/></g>
<g><path style="opacity:1" fill="#f18238" d="M 257.5,344.5 C 268.603,343.449 272.77,348.449 270,359.5C 263.946,366.072 257.946,366.072 252,359.5C 251.333,355.833 251.333,352.167 252,348.5C 253.812,347.023 255.645,345.69 257.5,344.5 Z"/></g>
<g><path style="opacity:0.929" fill="#ea955b" d="M 393.5,326.5 C 394.833,326.5 396.167,326.5 397.5,326.5C 397.665,329.518 397.498,332.518 397,335.5C 395,337.5 393,339.5 391,341.5C 390.453,348.177 390.619,354.844 391.5,361.5C 391.384,365.22 390.884,368.887 390,372.5C 388.444,375.693 386.277,378.36 383.5,380.5C 386.301,375.837 388.468,370.837 390,365.5C 389.927,358.476 389.593,351.476 389,344.5C 389.751,340.734 391.751,337.734 395,335.5C 395.483,334.552 395.649,333.552 395.5,332.5C 395.5,331.833 395.5,331.167 395.5,330.5C 395.473,328.801 394.806,327.467 393.5,326.5 Z"/></g>
<g><path style="opacity:0.995" fill="#e99c63" d="M 194.5,339.5 C 195.288,348.94 196.788,358.274 199,367.5C 199.667,370.5 199.667,373.5 199,376.5C 195.33,364.693 192.164,352.693 189.5,340.5C 190.458,340.953 191.292,341.619 192,342.5C 192.236,340.881 193.069,339.881 194.5,339.5 Z"/></g>
<g><path style="opacity:1" fill="#eda371" d="M 383.5,380.5 C 380.698,384.643 377.031,387.643 372.5,389.5C 369.57,390.299 366.57,390.632 363.5,390.5C 365.292,389.691 367.292,389.191 369.5,389C 374.689,386.911 379.356,384.077 383.5,380.5 Z"/></g>
<g><path style="opacity:0.059" fill="#ffe7d0" d="M 395.5,332.5 C 395.649,333.552 395.483,334.552 395,335.5C 391.751,337.734 389.751,340.734 389,344.5C 389.593,351.476 389.927,358.476 390,365.5C 388.468,370.837 386.301,375.837 383.5,380.5C 379.356,384.077 374.689,386.911 369.5,389C 367.292,389.191 365.292,389.691 363.5,390.5C 347.143,390.243 330.809,390.576 314.5,391.5C 314.611,390.883 314.944,390.383 315.5,390C 321.144,389.243 326.811,388.743 332.5,388.5C 344.194,389.998 355.861,389.832 367.5,388C 380.359,383.657 387.359,374.823 388.5,361.5C 387.722,355.173 387.555,348.839 388,342.5C 389.95,338.722 392.45,335.388 395.5,332.5 Z"/></g>
<g><path style="opacity:0.208" fill="#ffebda" d="M 314.5,391.5 C 313.5,392.167 312.5,392.833 311.5,393.5C 311.167,393.5 310.833,393.5 310.5,393.5C 309.167,393.833 307.833,394.167 306.5,394.5C 308.617,392.345 311.284,391.345 314.5,391.5 Z"/></g>
<g><path style="opacity:1" fill="#ed8945" d="M 413.5,321.5 C 413.34,323.199 413.506,324.866 414,326.5C 416.101,327.924 418.267,329.258 420.5,330.5C 421.652,333.106 421.818,335.773 421,338.5C 419.045,339.453 417.378,340.787 416,342.5C 415.667,352.833 415.333,363.167 415,373.5C 412.181,378.301 409.181,382.968 406,387.5C 403.562,388.568 401.395,389.902 399.5,391.5C 394.079,393.218 388.412,394.385 382.5,395C 369.504,395.5 356.504,395.667 343.5,395.5C 348.039,394.735 352.706,393.902 357.5,393C 342.153,392.307 326.819,392.474 311.5,393.5C 312.5,392.833 313.5,392.167 314.5,391.5C 330.809,390.576 347.143,390.243 363.5,390.5C 366.57,390.632 369.57,390.299 372.5,389.5C 371.21,390.935 369.544,391.935 367.5,392.5C 369.167,392.833 370.833,393.167 372.5,393.5C 381.16,392.68 389.827,392.013 398.5,391.5C 398.5,390.5 398.5,389.5 398.5,388.5C 396.396,388.799 394.396,388.466 392.5,387.5C 395.848,384.638 398.848,384.971 401.5,388.5C 402.5,388 403.5,387.5 404.5,387C 405.158,385.095 406.325,383.595 408,382.5C 408.691,378.119 410.691,374.452 414,371.5C 414.249,362.823 414.249,354.157 414,345.5C 415.416,341.759 417.249,338.259 419.5,335C 419.333,334.167 419.167,333.333 419,332.5C 416.247,331.002 413.914,329.002 412,326.5C 411.123,324.326 411.623,322.659 413.5,321.5 Z"/></g>
<g><path style="opacity:1" fill="#f37f30" d="M 343.5,395.5 C 330.313,398.352 319.813,405.352 312,416.5C 309.837,422.6 307.003,428.267 303.5,433.5C 301.801,433.34 300.134,433.506 298.5,434C 295.874,436.146 292.874,437.479 289.5,438C 282.872,439.052 276.206,439.552 269.5,439.5C 257.766,439.858 246.099,439.192 234.5,437.5C 236.291,436.83 237.958,436.163 239.5,435.5C 246.881,435.686 254.214,435.186 261.5,434C 263.315,433.243 264.981,432.41 266.5,431.5C 272.232,430.811 277.232,428.478 281.5,424.5C 282.429,423.311 282.762,421.978 282.5,420.5C 282.896,417.279 284.229,414.612 286.5,412.5C 288.03,411.933 289.53,411.267 291,410.5C 291.333,410.833 291.667,411.167 292,411.5C 292.434,408.065 294.101,405.399 297,403.5C 298.261,403.759 299.261,404.426 300,405.5C 300.494,403.866 300.66,402.199 300.5,400.5C 301.93,400.421 303.264,400.754 304.5,401.5C 305.096,400.284 305.263,398.951 305,397.5C 307.167,396.512 309,395.179 310.5,393.5C 310.833,393.5 311.167,393.5 311.5,393.5C 326.819,392.474 342.153,392.307 357.5,393C 352.706,393.902 348.039,394.735 343.5,395.5 Z"/></g>
<g><path style="opacity:0.294" fill="#fce1ca" d="M 196.5,338.5 C 197.167,338.5 197.833,338.5 198.5,338.5C 198.119,339.931 197.119,340.764 195.5,341C 198.927,358.388 202.093,375.888 205,393.5C 217.444,395.216 221.111,401.883 216,413.5C 211.909,417.305 207.076,418.472 201.5,417C 194.111,412.003 192.611,405.503 197,397.5C 198.586,396.624 200.086,395.624 201.5,394.5C 197.028,377.992 192.861,361.325 189,344.5C 188.692,343.692 188.192,343.025 187.5,342.5C 185.343,341.95 183.343,341.283 181.5,340.5C 184.167,340.5 186.833,340.5 189.5,340.5C 192.164,352.693 195.33,364.693 199,376.5C 199.667,373.5 199.667,370.5 199,367.5C 196.788,358.274 195.288,348.94 194.5,339.5C 195.167,339.167 195.833,338.833 196.5,338.5 Z"/></g>
<g><path style="opacity:0.896" fill="#e99a62" d="M 213.5,399.5 C 211.406,398.758 209.239,398.091 207,397.5C 204.502,397.917 202.002,398.251 199.5,398.5C 201.166,396.172 203.499,395.172 206.5,395.5C 209.864,395.226 212.197,396.559 213.5,399.5 Z"/></g>
<g><path style="opacity:1" fill="#efb58d" d="M 423.5,390.5 C 406.566,396.665 388.899,399.499 370.5,399C 367.282,399.9 364.282,401.067 361.5,402.5C 358.763,402.401 356.096,402.735 353.5,403.5C 358.393,402.226 363.06,400.059 367.5,397C 377.849,396.832 388.183,396.332 398.5,395.5C 406.515,392.33 414.848,390.663 423.5,390.5 Z"/></g>
<g><path style="opacity:0.986" fill="#e69c6a" d="M 199.5,398.5 C 197.722,402.565 197.055,406.899 197.5,411.5C 196.357,408.024 196.19,404.358 197,400.5C 197.708,399.619 198.542,398.953 199.5,398.5 Z"/></g>
<g><path style="opacity:1" fill="#f28033" d="M 213.5,399.5 C 214.931,399.881 215.764,400.881 216,402.5C 216.703,404.929 216.537,407.262 215.5,409.5C 214.404,411.103 213.07,412.603 211.5,414C 207.446,414.694 203.446,414.527 199.5,413.5C 199.167,412.5 198.5,411.833 197.5,411.5C 197.055,406.899 197.722,402.565 199.5,398.5C 202.002,398.251 204.502,397.917 207,397.5C 209.239,398.091 211.406,398.758 213.5,399.5 Z"/></g>
<g><path style="opacity:1" fill="#ee8d4d" d="M 310.5,393.5 C 309,395.179 307.167,396.512 305,397.5C 305.263,398.951 305.096,400.284 304.5,401.5C 303.264,400.754 301.93,400.421 300.5,400.5C 300.66,402.199 300.494,403.866 300,405.5C 299.261,404.426 298.261,403.759 297,403.5C 294.101,405.399 292.434,408.065 292,411.5C 291.667,411.167 291.333,410.833 291,410.5C 289.53,411.267 288.03,411.933 286.5,412.5C 288.255,409.564 290.255,406.731 292.5,404C 296.901,400.812 301.234,397.645 305.5,394.5C 305.833,394.5 306.167,394.5 306.5,394.5C 307.833,394.167 309.167,393.833 310.5,393.5 Z"/></g>
<g><path style="opacity:1" fill="#eb9f6b" d="M 215.5,409.5 C 215.201,412.642 213.534,414.809 210.5,416C 207.833,416.667 205.167,416.667 202.5,416C 201.058,415.623 200.058,414.79 199.5,413.5C 203.446,414.527 207.446,414.694 211.5,414C 213.07,412.603 214.404,411.103 215.5,409.5 Z"/></g>
<g><path style="opacity:0.051" fill="#fde3cb" d="M 305.5,394.5 C 301.234,397.645 296.901,400.812 292.5,404C 290.255,406.731 288.255,409.564 286.5,412.5C 284.229,414.612 282.896,417.279 282.5,420.5C 281.069,422.437 279.402,424.27 277.5,426C 273.563,427.572 269.896,429.405 266.5,431.5C 257.458,433.41 248.458,434.744 239.5,435.5C 232.492,435.334 225.492,435.5 218.5,436C 227.19,438.934 236.19,440.434 245.5,440.5C 245.5,440.833 245.5,441.167 245.5,441.5C 230.955,441.544 216.955,439.044 203.5,434C 203.833,433.667 204.167,433.333 204.5,433C 213.666,433.062 222.832,433.562 232,434.5C 244.459,434.339 256.625,432.506 268.5,429C 275.667,427.167 280.167,422.667 282,415.5C 284.783,411.049 287.95,406.883 291.5,403C 294.5,400.667 297.5,398.333 300.5,396C 302.025,394.991 303.692,394.491 305.5,394.5 Z"/></g>
<g><path style="opacity:0.988" fill="#ed9965" d="M 282.5,420.5 C 282.762,421.978 282.429,423.311 281.5,424.5C 277.232,428.478 272.232,430.811 266.5,431.5C 269.896,429.405 273.563,427.572 277.5,426C 279.402,424.27 281.069,422.437 282.5,420.5 Z"/></g>
<g><path style="opacity:0.176" fill="#fde9d8" d="M 361.5,402.5 C 349.883,407.625 341.716,416.291 337,428.5C 330.547,434.102 323.047,437.602 314.5,439C 292.432,442.278 270.432,443.111 248.5,441.5C 266.863,441.349 285.196,440.516 303.5,439C 311.778,438.012 319.778,436.012 327.5,433C 334.226,429.937 338.393,424.77 340,417.5C 344.031,412.304 348.531,407.637 353.5,403.5C 356.096,402.735 358.763,402.401 361.5,402.5 Z"/></g>
<g><path style="opacity:1" fill="#eb985f" d="M 266.5,431.5 C 264.981,432.41 263.315,433.243 261.5,434C 254.214,435.186 246.881,435.686 239.5,435.5C 248.458,434.744 257.458,433.41 266.5,431.5 Z"/></g>
<g><path style="opacity:1" fill="#e99054" d="M 239.5,435.5 C 237.958,436.163 236.291,436.83 234.5,437.5C 246.099,439.192 257.766,439.858 269.5,439.5C 261.684,440.492 253.684,440.826 245.5,440.5C 236.19,440.434 227.19,438.934 218.5,436C 225.492,435.5 232.492,435.334 239.5,435.5 Z"/></g>
</svg>
