<svg width="18" height="18" viewBox="0 0 18 18" fill="none" xmlns="http://www.w3.org/2000/svg">
<path opacity="0.6" d="M16.9927 15.9534H11.2984C10.7429 15.9534 10.291 16.4124 10.291 16.9767C10.291 17.5422 10.7429 18.0001 11.2984 18.0001H16.9927C17.5483 18.0001 18.0001 17.5422 18.0001 16.9767C18.0001 16.4124 17.5483 15.9534 16.9927 15.9534Z" fill="#E77240"/>
<path d="M7.30902 3.90385L12.7049 8.26394C12.835 8.36821 12.8573 8.55956 12.7557 8.69286L6.35874 17.0282C5.95662 17.5431 5.36402 17.8344 4.72908 17.8452L1.23696 17.8882C1.05071 17.8903 0.887748 17.7613 0.845419 17.5764L0.0517547 14.1258C-0.0858138 13.4915 0.0517547 12.8358 0.453878 12.3306L6.88256 3.95545C6.98627 3.82108 7.1778 3.79743 7.30902 3.90385Z" fill="#F38744"/>
<path opacity="0.6" d="M15.1208 5.66544L14.0806 6.96401C13.9758 7.09623 13.7874 7.11773 13.6573 7.01238C12.3927 5.98901 9.15454 3.36285 8.25611 2.63509C8.12489 2.52759 8.1069 2.33625 8.21273 2.20295L9.21592 0.957057C10.126 -0.214663 11.7133 -0.322161 12.9938 0.699064L14.4647 1.87078C15.0679 2.34377 15.47 2.96726 15.6076 3.62299C15.7663 4.3443 15.597 5.0527 15.1208 5.66544Z" fill="#E77240"/>
</svg>
