<svg width="22" height="22" viewBox="0 0 22 22" fill="none" xmlns="http://www.w3.org/2000/svg">
<path d="M17.1875 11.6875H18.5625C18.7448 11.6875 18.9197 11.6151 19.0486 11.4861C19.1776 11.3572 19.25 11.1823 19.25 11C19.25 10.8177 19.1776 10.6428 19.0486 10.5139C18.9197 10.3849 18.7448 10.3125 18.5625 10.3125H17.1875C17.0052 10.3125 16.8303 10.3849 16.7014 10.5139C16.5724 10.6428 16.5 10.8177 16.5 11C16.5 11.1823 16.5724 11.3572 16.7014 11.4861C16.8303 11.6151 17.0052 11.6875 17.1875 11.6875ZM11 5.5C11 5.31766 11.0724 5.1428 11.2014 5.01386C11.3303 4.88493 11.5052 4.8125 11.6875 4.8125H18.5625C18.7448 4.8125 18.9197 4.88493 19.0486 5.01386C19.1776 5.1428 19.25 5.31766 19.25 5.5C19.25 5.68234 19.1776 5.8572 19.0486 5.98614C18.9197 6.11507 18.7448 6.1875 18.5625 6.1875H11.6875C11.5052 6.1875 11.3303 6.11507 11.2014 5.98614C11.0724 5.8572 11 5.68234 11 5.5ZM11 16.5C11 16.3177 11.0724 16.1428 11.2014 16.0139C11.3303 15.8849 11.5052 15.8125 11.6875 15.8125H18.5625C18.7448 15.8125 18.9197 15.8849 19.0486 16.0139C19.1776 16.1428 19.25 16.3177 19.25 16.5C19.25 16.6823 19.1776 16.8572 19.0486 16.9861C18.9197 17.1151 18.7448 17.1875 18.5625 17.1875H11.6875C11.5052 17.1875 11.3303 17.1151 11.2014 16.9861C11.0724 16.8572 11 16.6823 11 16.5ZM3.4375 6.1875H4.8125C4.99484 6.1875 5.1697 6.11507 5.29864 5.98614C5.42757 5.8572 5.5 5.68234 5.5 5.5C5.5 5.31766 5.42757 5.1428 5.29864 5.01386C5.1697 4.88493 4.99484 4.8125 4.8125 4.8125H3.4375C3.25516 4.8125 3.0803 4.88493 2.95136 5.01386C2.82243 5.1428 2.75 5.31766 2.75 5.5C2.75 5.68234 2.82243 5.8572 2.95136 5.98614C3.0803 6.11507 3.25516 6.1875 3.4375 6.1875ZM4.8125 17.1875H3.4375C3.25516 17.1875 3.0803 17.1151 2.95136 16.9861C2.82243 16.8572 2.75 16.6823 2.75 16.5C2.75 16.3177 2.82243 16.1428 2.95136 16.0139C3.0803 15.8849 3.25516 15.8125 3.4375 15.8125H4.8125C4.99484 15.8125 5.1697 15.8849 5.29864 16.0139C5.42757 16.1428 5.5 16.3177 5.5 16.5C5.5 16.6823 5.42757 16.8572 5.29864 16.9861C5.1697 17.1151 4.99484 17.1875 4.8125 17.1875ZM2.75 11C2.75 10.8177 2.82243 10.6428 2.95136 10.5139C3.0803 10.3849 3.25516 10.3125 3.4375 10.3125H10.3125C10.4948 10.3125 10.6697 10.3849 10.7986 10.5139C10.9276 10.6428 11 10.8177 11 11C11 11.1823 10.9276 11.3572 10.7986 11.4861C10.6697 11.6151 10.4948 11.6875 10.3125 11.6875H3.4375C3.25516 11.6875 3.0803 11.6151 2.95136 11.4861C2.82243 11.3572 2.75 11.1823 2.75 11ZM8.25 3.4375C7.70299 3.4375 7.17839 3.6548 6.79159 4.04159C6.4048 4.42839 6.1875 4.95299 6.1875 5.5C6.1875 6.04701 6.4048 6.57161 6.79159 6.95841C7.17839 7.3452 7.70299 7.5625 8.25 7.5625C8.79701 7.5625 9.32161 7.3452 9.70841 6.95841C10.0952 6.57161 10.3125 6.04701 10.3125 5.5C10.3125 4.95299 10.0952 4.42839 9.70841 4.04159C9.32161 3.6548 8.79701 3.4375 8.25 3.4375ZM11.6875 11C11.6875 10.453 11.9048 9.92839 12.2916 9.54159C12.6784 9.1548 13.203 8.9375 13.75 8.9375C14.297 8.9375 14.8216 9.1548 15.2084 9.54159C15.5952 9.92839 15.8125 10.453 15.8125 11C15.8125 11.547 15.5952 12.0716 15.2084 12.4584C14.8216 12.8452 14.297 13.0625 13.75 13.0625C13.203 13.0625 12.6784 12.8452 12.2916 12.4584C11.9048 12.0716 11.6875 11.547 11.6875 11ZM8.25 14.4375C7.70299 14.4375 7.17839 14.6548 6.79159 15.0416C6.4048 15.4284 6.1875 15.953 6.1875 16.5C6.1875 17.047 6.4048 17.5716 6.79159 17.9584C7.17839 18.3452 7.70299 18.5625 8.25 18.5625C8.79701 18.5625 9.32161 18.3452 9.70841 17.9584C10.0952 17.5716 10.3125 17.047 10.3125 16.5C10.3125 15.953 10.0952 15.4284 9.70841 15.0416C9.32161 14.6548 8.79701 14.4375 8.25 14.4375Z" fill="#FCFCFD"/>
</svg>
