<svg width="146" height="200" viewBox="0 0 146 200" fill="none" xmlns="http://www.w3.org/2000/svg">
<g clip-path="url(#clip0_4496_335650)">
<path d="M79.38 95.0174C69.265 95.0174 67.1855 91.4052 67.0913 91.2324L67.7819 90.8555C67.7819 90.8948 70.3087 95.041 82.9975 94.0908C95.6864 93.1406 97.6246 72.7315 97.6403 72.5273L98.4251 72.598C98.4251 72.81 96.4319 93.8866 83.0525 94.8761C81.7263 94.9703 80.5021 95.0174 79.38 95.0174Z" fill="white"/>
<path d="M91.8567 100.468C80.6431 106.209 56.9682 95.0422 49.3408 87.4801C41.7133 79.918 38.0016 50.6746 51.2476 49.1354C58.9457 48.2402 59.0948 39.3981 68.6056 43.3951C76.6489 46.7718 78.1242 42.2722 84.4647 49.0334C91.2917 56.3206 81.2395 86.7419 91.8567 100.468Z" fill="#029D41"/>
<mask id="mask0_4496_335650" style="mask-type:luminance" maskUnits="userSpaceOnUse" x="42" y="42" width="50" height="61">
<path d="M91.8567 100.468C80.6431 106.209 56.9682 95.0422 49.3408 87.4801C41.7133 79.918 38.0016 50.6746 51.2476 49.1354C58.9457 48.2402 59.0948 39.3981 68.6056 43.3951C76.6489 46.7718 78.1242 42.2722 84.4647 49.0334C91.2917 56.3206 81.2395 86.7419 91.8567 100.468Z" fill="white"/>
</mask>
<g mask="url(#mask0_4496_335650)">
<path d="M83.9151 103.223C74.7182 98.8256 77.9669 76.5947 78.1082 75.6523L78.8929 75.7701C78.8929 75.9979 75.5892 98.3466 84.2446 102.469L83.9151 103.223Z" fill="#028537"/>
<path d="M74.8204 101.865C68.0562 94.1141 75.9818 77.8434 76.3192 77.1523L77.049 77.5136C76.9705 77.6785 69.0292 94.0042 75.4325 101.331L74.8204 101.865Z" fill="#028537"/>
</g>
<path d="M75.2443 117.289L60.9546 137.573C60.9546 137.573 82.4558 155.634 88.4197 156.176C91.8018 156.482 91.998 152.964 93.8185 150.985C96.7848 147.765 99.6882 144.758 95.1918 140.187C87.3446 132.209 75.2443 117.289 75.2443 117.289Z" fill="#FEC2A0"/>
<path d="M79.8741 135.347C76.178 146.49 75.0324 151.099 87.1955 155.905C96.7533 159.675 103.251 140.718 106.029 124.62C108.824 107.768 110.397 90.7356 110.737 73.6562H99.8373C99.9786 77.2609 99.7789 80.8709 99.2409 84.438C96.1491 107.289 81.8594 129.347 79.8741 135.347Z" fill="#FEC2A0"/>
<path d="M33.4895 30.8144L35.5611 35.1962C35.5611 35.1962 39.6574 34.8742 41.2896 36.9159C42.6079 38.5571 42.0743 39.6958 42.0743 39.6958C42.0743 39.6958 36.9893 40.1198 34.4625 39.0126C31.9357 37.9054 24.9125 30.8144 24.9125 30.8144L18.5642 30.5553L15.9746 24.3359L33.4895 30.8144Z" fill="#FEC2A0"/>
<path d="M68.8411 84.1668C68.2133 85.8158 64.9175 94.336 67.4365 98.1131C63.8346 101.749 68.1819 126.32 57.3921 124.946C46.6022 123.572 48.2187 87.3235 48.2187 87.3235C48.6503 86.7346 49.0741 86.1299 49.49 85.486C52.0619 81.7306 54.022 77.5904 55.2969 73.2201C54.0078 72.8527 52.8474 72.1313 51.9472 71.1375C51.047 70.1437 50.4432 68.9174 50.2041 67.5976C49.6391 64.5822 51.0359 61.5432 54.3474 61.4411C60.2798 61.2683 59.966 69.0975 59.966 69.0975C59.966 69.0975 65.5453 67.5662 64.7606 61.0327C63.9759 53.8318 73.7063 61.3783 76.2567 54.6328C79.937 56.5175 80.1803 62.4855 79.5603 64.4487C79.2398 65.798 79.113 67.1862 79.1837 68.5713C79.2053 70.4883 79.3389 72.4024 79.5839 74.3038C80.0233 77.5705 76.2331 86.0357 68.8411 84.1668Z" fill="#FEC2A0"/>
<path d="M81.7812 123.312C72.6314 126.516 51.0438 159.058 38.6218 177.237C33.011 170.46 -2.96824 128.66 1.57527 116.096C7.06829 100.964 6.3699 83.4443 20.8087 79.1881C26.0192 77.6176 47.646 83.8997 51.0438 82.1329L51.6245 85.3525C51.9698 89.9699 53.4765 108.785 57.2196 110.599C60.1309 112.012 64.9098 96.8959 68.0094 95.1919C70.5205 101.309 78.556 108.518 81.7812 123.312Z" fill="#4260D4"/>
<path d="M67.4361 64.2492C67.369 64.25 67.3037 64.2274 67.2513 64.1854C67.1989 64.1434 67.1627 64.0846 67.1488 64.0189C67.135 63.9532 67.1443 63.8848 67.1752 63.8252C67.2061 63.7656 67.2567 63.7185 67.3184 63.6921C70.3553 62.3894 71.7599 63.3075 71.8227 63.3468C71.8768 63.3931 71.9119 63.4576 71.9215 63.5281C71.9311 63.5986 71.9145 63.6702 71.8748 63.7293C71.8351 63.7883 71.7751 63.8307 71.7062 63.8485C71.6373 63.8662 71.5643 63.858 71.501 63.8255C71.501 63.8255 70.2533 63.0407 67.5774 64.2257C67.533 64.2452 67.4845 64.2533 67.4361 64.2492Z" fill="#303134"/>
<path d="M77.7002 64.3285C77.6449 64.3283 77.5907 64.3122 77.5442 64.2822C77.4977 64.2522 77.4607 64.2095 77.4376 64.1592C77.4145 64.1088 77.4063 64.0529 77.4139 63.9981C77.4215 63.9432 77.4446 63.8916 77.4805 63.8495C77.7766 63.5026 78.1432 63.223 78.556 63.0293C78.9687 62.8356 79.4181 62.7324 79.8739 62.7266C79.9496 62.7345 80.0191 62.7719 80.0675 62.8306C80.116 62.8894 80.1394 62.9648 80.1328 63.0407C80.1299 63.0786 80.1194 63.1155 80.1019 63.1492C80.0844 63.183 80.0603 63.2128 80.031 63.237C80.0017 63.2612 79.9678 63.2792 79.9313 63.29C79.8949 63.3008 79.8567 63.3041 79.819 63.2998C79.4566 63.3158 79.1014 63.4054 78.7749 63.5634C78.4484 63.7214 78.1575 63.9443 77.9199 64.2186C77.8936 64.2518 77.8602 64.2789 77.8223 64.2979C77.7843 64.3169 77.7427 64.3274 77.7002 64.3285Z" fill="#303134"/>
<path d="M70.9787 67.8846C71.0031 66.7183 70.5592 65.763 69.9873 65.751C69.4154 65.739 68.9319 66.6748 68.9075 67.8412C68.8831 69.0076 69.3269 69.9628 69.8989 69.9748C70.4708 69.9868 70.9543 69.051 70.9787 67.8846Z" fill="#303134"/>
<path d="M79.0458 67.8031C79.0687 66.7061 78.708 65.8089 78.24 65.7991C77.7721 65.7893 77.3741 66.6706 77.3511 67.7676C77.3282 68.8646 77.6889 69.7619 78.1569 69.7717C78.6248 69.7815 79.0228 68.9001 79.0458 67.8031Z" fill="#303134"/>
<path d="M75.9114 74.7258C75.482 74.7081 75.0626 74.5898 74.6872 74.3803C74.6502 74.3652 74.6168 74.3426 74.5889 74.3139C74.5611 74.2852 74.5394 74.251 74.5254 74.2136C74.5113 74.1762 74.5051 74.1362 74.5072 74.0963C74.5093 74.0563 74.5196 74.0172 74.5375 73.9815C74.5554 73.9457 74.5804 73.914 74.6111 73.8884C74.6418 73.8627 74.6774 73.8437 74.7158 73.8325C74.7542 73.8213 74.7944 73.8181 74.8341 73.8232C74.8737 73.8283 74.9119 73.8415 74.9462 73.862C75.4641 74.1212 76.1625 74.3411 76.5156 73.862C76.8687 73.383 76.7275 71.7654 75.8486 70.8859C75.8041 70.83 75.7816 70.7597 75.7856 70.6884C75.7896 70.6171 75.8197 70.5497 75.8702 70.4992C75.9207 70.4486 75.988 70.4185 76.0593 70.4145C76.1306 70.4105 76.2009 70.433 76.2567 70.4775C77.2768 71.4905 77.6299 73.3045 76.9865 74.1997C76.8642 74.369 76.7022 74.5055 76.5147 74.5973C76.3272 74.689 76.12 74.7332 75.9114 74.7258Z" fill="#303134"/>
<path d="M73.6357 77.443C72.9503 77.4672 72.2739 77.2808 71.6975 76.909C71.3953 76.6983 71.1383 76.4293 70.9415 76.1178C70.7448 75.8063 70.6123 75.4585 70.5518 75.095C70.5509 75.0235 70.5764 74.9541 70.6234 74.9002C70.6704 74.8464 70.7356 74.8117 70.8066 74.803C70.8775 74.7942 70.9492 74.812 71.0079 74.8528C71.0666 74.8936 71.1081 74.9547 71.1246 75.0243C71.2305 75.5969 71.5576 76.1047 72.0349 76.4378C72.5137 76.6921 73.0408 76.8425 73.5817 76.879C74.1226 76.9156 74.6651 76.8375 75.1738 76.6498C75.2476 76.6306 75.3261 76.6412 75.3922 76.6794C75.4583 76.7176 75.5067 76.7804 75.5269 76.854C75.5461 76.9279 75.5355 77.0064 75.4973 77.0726C75.4591 77.1387 75.3965 77.1871 75.3229 77.2074C74.7726 77.3566 74.2058 77.4357 73.6357 77.443Z" fill="#303134"/>
<path d="M68.8409 84.1654C68.8409 84.1654 65.396 82.8854 64.4073 80.082C64.321 84.0712 67.8914 86.639 67.8914 86.639L68.8409 84.1654Z" fill="#F99979"/>
<path d="M12.0747 127.042C12.9065 135.837 12.9144 149.132 18.8311 155.382C20.6124 157.267 27.9103 160.33 32.956 158.484C39.1396 156.215 38.708 151.841 38.5667 149.689C38.4255 147.538 35.0983 126.438 35.0983 126.438C35.0983 126.438 21.2167 126.626 12.0747 127.042Z" fill="#FEC2A0"/>
<path d="M28.9695 0H10.1599C4.82487 0 0.5 4.32791 0.5 9.66665V190.333C0.5 195.672 4.82487 200 10.1599 200H28.9695C34.3045 200 38.6294 195.672 38.6294 190.333V9.66665C38.6294 4.32791 34.3045 0 28.9695 0Z" fill="#FFC61A"/>
<path d="M43.6593 33.6631C42.6234 34.6133 37.2324 34.3228 36.3771 33.8909C35.5217 33.459 35.3726 30.8126 36.5811 30.5535C36.249 30.3194 35.9733 30.0143 35.774 29.6601C35.5747 29.306 35.4569 28.9118 35.4291 28.5063C35.4013 28.1009 35.4642 27.6943 35.6132 27.3162C35.7623 26.9381 35.9938 26.5981 36.2908 26.3209C35.1451 25.2843 34.7213 24.1221 36.3457 22.74C36.3457 22.74 43.1413 22.1747 44.0045 22.7793C44.8677 23.384 45.0404 25.1351 43.5729 26.3209C44.6637 28.0563 44.5224 29.564 43.4866 30.4278C43.753 30.5985 43.975 30.8303 44.1342 31.1039C44.2934 31.3775 44.3852 31.685 44.4021 32.0012C44.419 32.3173 44.3604 32.6329 44.2312 32.9219C44.1021 33.2109 43.906 33.465 43.6593 33.6631Z" fill="#FEC2A0"/>
<path d="M36.291 26.316C37.4851 26.0433 38.7074 25.9142 39.9321 25.9315C41.1569 25.9126 42.3794 26.0417 43.5732 26.316C42.3794 26.5904 41.1569 26.7195 39.9321 26.7005C38.7074 26.7178 37.4851 26.5887 36.291 26.316Z" fill="#F99979"/>
<path d="M36.5811 30.5453C37.7057 30.2498 38.8631 30.0969 40.026 30.0901C41.1885 30.0502 42.3513 30.1583 43.4866 30.4119C42.3622 30.709 41.2046 30.8619 40.0417 30.867C38.8792 30.9052 37.7165 30.7971 36.5811 30.5453Z" fill="#F99979"/>
<path d="M44.0045 22.772C43.1413 22.1673 36.3457 22.7327 36.3457 22.7327C36.0444 22.5201 35.8025 22.2339 35.6432 21.9012C35.4838 21.5685 35.4123 21.2005 35.4354 20.8324C35.4354 19.4032 36.1024 19.2147 36.8087 19.0812C37.5149 18.9477 41.8387 18.72 43.0864 19.0812C44.3341 19.4424 45.4092 20.8245 44.0045 22.772Z" fill="#FEC2A0"/>
<path d="M36.7383 22.7029C37.914 22.4328 39.1182 22.3063 40.3244 22.3263C41.5291 22.3128 42.7308 22.4472 43.9028 22.7265C42.7273 22.9984 41.5229 23.1249 40.3166 23.1032C39.112 23.1148 37.9105 22.9804 36.7383 22.7029Z" fill="#F99979"/>
<path d="M79.6702 111.485C78.7965 111.485 77.8993 111.446 76.9786 111.367C59.7148 109.86 53.2644 101.324 50.9731 96.3686C48.3992 90.8089 48.6189 84.5896 51.4596 80.5612C51.4895 80.5189 51.5274 80.4829 51.5712 80.4553C51.6149 80.4277 51.6637 80.409 51.7147 80.4002C51.7658 80.3915 51.818 80.3928 51.8685 80.4043C51.9189 80.4157 51.9666 80.437 52.0089 80.4669C52.0511 80.4968 52.0871 80.5348 52.1147 80.5786C52.1423 80.6224 52.161 80.6712 52.1697 80.7223C52.1785 80.7733 52.1771 80.8256 52.1657 80.8761C52.1542 80.9266 52.1329 80.9743 52.1031 81.0166C49.435 84.7781 49.2702 90.8168 51.6872 96.0388C53.9079 100.837 60.1543 109.114 77.0492 110.582C77.9438 110.661 78.8122 110.7 79.6545 110.7C102.411 110.7 108.132 83.5687 108.187 83.286C108.208 83.1819 108.269 83.0903 108.357 83.0314C108.445 82.9725 108.554 82.9511 108.658 82.9719C108.762 82.9928 108.853 83.0541 108.912 83.1425C108.971 83.2308 108.992 83.339 108.972 83.4431C108.909 83.7258 103.047 111.485 79.6702 111.485Z" fill="white"/>
<path d="M139.113 65.9538C139.113 65.9538 99.2019 78.95 98.6761 78.9578C100.049 78.3218 100.575 76.0288 99.8375 73.6573C99.1548 71.4271 97.5932 69.9115 96.1729 69.9351L134.381 58.9413C134.451 58.931 134.522 58.931 134.593 58.9413C135.338 58.8864 139.238 59.2554 139.113 65.9538Z" fill="#FE3737"/>
<path d="M111.585 70.754C109.607 71.6335 108.407 69.5446 108.281 69.3248C108.497 69.7355 108.553 70.2115 108.438 70.661C108.324 71.1106 108.047 71.5018 107.661 71.7591C106.225 72.725 104.389 70.4791 104.389 70.4791C104.389 70.4791 105.307 72.2381 103.478 72.7328C101.909 73.1412 99.3352 69.7802 98.7702 68.406C98.2052 67.0318 99.8374 65.744 102.129 65.6733C102.516 65.1336 103.089 64.7555 103.737 64.6107C104.385 64.4659 105.064 64.5646 105.644 64.888C105.644 64.888 107.214 62.9091 108.932 63.875C109.53 64.2931 110.037 64.8272 110.423 65.4455C111.702 67.3145 112.856 70.1886 111.585 70.754Z" fill="#FEC2A0"/>
<path d="M101.517 66.2773C102.208 66.7977 102.805 67.4324 103.282 68.1541C103.788 68.8685 104.165 69.6657 104.397 70.51C103.704 69.9908 103.107 69.3558 102.631 68.6331C102.127 67.918 101.75 67.121 101.517 66.2773Z" fill="#F99979"/>
<path d="M105.73 64.8789C106.38 65.4579 106.927 66.1429 107.347 66.9049C107.797 67.6512 108.116 68.4693 108.289 69.3235C107.637 68.7509 107.087 68.0711 106.664 67.3132C106.217 66.5608 105.901 65.7376 105.73 64.8789Z" fill="#F99979"/>
<path d="M142.322 81.2266C132.905 82.6008 104.656 86.1581 104.656 86.1581C106.186 85.6869 106.806 83.2761 106.037 80.7711C105.354 78.5724 103.329 77.0961 101.917 77.0882L139.12 65.9531C141.176 66.2594 147.972 69.2041 144.559 79.3891C144.392 79.8723 144.095 80.2999 143.7 80.6243C143.305 80.9487 142.828 81.1572 142.322 81.2266Z" fill="#FE3737"/>
<path d="M98.4562 79.0433C96.8868 79.5144 95.0505 77.8732 94.2815 75.3682C92.9867 71.2377 95.6548 69.8242 96.4473 69.9184C97.7892 70.0755 99.2017 71.5675 99.8452 73.6563C100.63 76.1927 99.9629 78.5878 98.4562 79.0433Z" fill="#BF2929"/>
<path d="M98.017 77.78C96.8634 78.1177 95.4588 76.9319 94.8781 75.1258C93.9051 72.1418 95.9139 71.121 96.5025 71.1995C97.5147 71.3173 98.5741 72.3931 99.0528 73.9008C99.6492 75.7305 99.147 77.4581 98.017 77.78Z" fill="#F6EECA"/>
<path d="M104.648 86.1614C103.078 86.6326 101.242 84.9914 100.465 82.4942C98.6523 76.5262 104.161 74.7593 106.029 80.7745C106.798 83.2795 106.178 85.6903 104.648 86.1614Z" fill="#BF2929"/>
<path d="M104.294 85.0115C103.149 85.3649 101.752 84.1399 101.155 82.2709C99.8058 77.8185 103.918 76.4992 105.307 80.9909C105.895 82.8599 105.432 84.6581 104.294 85.0115Z" fill="#F6EECA"/>
<path d="M112.455 69.1571C112.455 69.1571 113.483 70.2408 114.174 68.7174C114.864 67.194 112.981 63.566 112.102 63.0163C111.09 62.3881 109.552 62.7101 109.269 63.6446C108.987 64.579 111.459 68.419 112.455 69.1571Z" fill="#FEC2A0"/>
<path d="M109.489 64.3125C110.117 64.827 110.649 65.4492 111.059 66.15C111.506 66.838 111.825 67.6016 112 68.4038C111.371 67.8903 110.84 67.2679 110.431 66.5662C109.985 65.8775 109.666 65.1141 109.489 64.3125Z" fill="#F99979"/>
<path d="M139.112 65.9531C136.099 66.9975 133.054 67.9556 130.01 68.8979C126.965 69.8402 123.905 70.7276 120.852 71.6463C117.8 72.5651 114.723 73.3896 111.647 74.2141L107.025 75.4392C105.456 75.8161 103.934 76.2244 102.38 76.5857C103.887 76.0595 105.409 75.5805 106.916 75.0701L111.475 73.633C114.519 72.6907 117.58 71.8034 120.632 70.8846C123.685 69.9658 126.761 69.1413 129.845 68.3168C132.929 67.4922 136.013 66.6834 139.112 65.9531Z" fill="#BF2929"/>
<path d="M119.39 81.163L114.74 81.8984L114.862 82.6736L119.513 81.9381L119.39 81.163Z" fill="#BF2929"/>
<path d="M131.827 79.1928L125.611 80.1758L125.733 80.9509L131.949 79.9679L131.827 79.1928Z" fill="#BF2929"/>
<path d="M142.699 77.4794L138.049 78.2148L138.171 78.99L142.822 78.2546L142.699 77.4794Z" fill="#BF2929"/>
</g>
<defs>
<clipPath id="clip0_4496_335650">
<rect width="145" height="200" fill="white" transform="translate(0.5)"/>
</clipPath>
</defs>
</svg>
