<svg width="24" height="24" viewBox="0 0 24 24" fill="none" xmlns="http://www.w3.org/2000/svg">
<path fill-rule="evenodd" clip-rule="evenodd" d="M16.9028 2.44629H15.6961C15.2986 2.44629 14.9761 2.76885 14.9761 3.16629C14.9761 3.56373 15.2986 3.88629 15.6961 3.88629H16.9028C18.5665 3.88629 19.9201 5.23989 19.9201 6.90357V8.41749C19.9201 8.81493 20.2426 9.13749 20.6401 9.13749C21.0375 9.13749 21.3601 8.81493 21.3601 8.41749V6.90357C21.3601 4.44597 19.3604 2.44629 16.9028 2.44629Z" fill="#CACACA"/>
<path fill-rule="evenodd" clip-rule="evenodd" d="M3.36014 9.13749C3.75758 9.13749 4.08014 8.81493 4.08014 8.41749V6.90357C4.08014 5.23989 5.43374 3.88629 7.09742 3.88629H8.33486C8.7323 3.88629 9.05486 3.56373 9.05486 3.16629C9.05486 2.76885 8.7323 2.44629 8.33486 2.44629H7.09742C4.63982 2.44629 2.64014 4.44597 2.64014 6.90357V8.41749C2.64014 8.81493 2.9627 9.13749 3.36014 9.13749Z" fill="#CACACA"/>
<path fill-rule="evenodd" clip-rule="evenodd" d="M8.30414 19.7307H7.09742C5.43374 19.7307 4.08014 18.3771 4.08014 16.7144V15.2005C4.08014 14.803 3.75758 14.4805 3.36014 14.4805C2.9627 14.4805 2.64014 14.803 2.64014 15.2005V16.7144C2.64014 19.171 4.63982 21.1707 7.09742 21.1707H8.30414C8.70158 21.1707 9.02414 20.8481 9.02414 20.4507C9.02414 20.0533 8.70158 19.7307 8.30414 19.7307Z" fill="#CACACA"/>
<path fill-rule="evenodd" clip-rule="evenodd" d="M20.64 14.4795C20.2426 14.4795 19.92 14.8021 19.92 15.1995V16.7134C19.92 18.3771 18.5664 19.7297 16.9028 19.7297H15.6653C15.2679 19.7297 14.9453 20.0523 14.9453 20.4497C14.9453 20.8472 15.2679 21.1697 15.6653 21.1697H16.9028C19.3604 21.1697 21.36 19.171 21.36 16.7134V15.1995C21.36 14.8021 21.0375 14.4795 20.64 14.4795Z" fill="#CACACA"/>
<path fill-rule="evenodd" clip-rule="evenodd" d="M18.1874 14.338V9.29614C18.1874 7.1035 16.7742 5.63086 14.6699 5.63086H9.31979C7.21931 5.63086 5.80811 7.1035 5.80811 9.29614V14.338C5.80811 16.5307 7.21931 18.0033 9.31979 18.0033H14.6699C16.7742 18.0033 18.1874 16.5307 18.1874 14.338Z" fill="#CACACA"/>
</svg>
