<svg width="21" height="20" viewBox="0 0 21 20" fill="none" xmlns="http://www.w3.org/2000/svg">
<path d="M9.875 9.375L9.90917 9.35833C10.016 9.30495 10.1359 9.2833 10.2547 9.29596C10.3735 9.30862 10.4862 9.35505 10.5794 9.42976C10.6726 9.50446 10.7424 9.60432 10.7806 9.71749C10.8189 9.83066 10.8238 9.95242 10.795 10.0683L10.205 12.4317C10.176 12.5476 10.1808 12.6695 10.2189 12.7828C10.257 12.8961 10.3269 12.9961 10.4201 13.071C10.5134 13.1458 10.6261 13.1923 10.745 13.205C10.8639 13.2177 10.9839 13.196 11.0908 13.1425L11.125 13.125M18 10C18 10.9849 17.806 11.9602 17.4291 12.8701C17.0522 13.7801 16.4997 14.6069 15.8033 15.3033C15.1069 15.9997 14.2801 16.5522 13.3701 16.9291C12.4602 17.306 11.4849 17.5 10.5 17.5C9.51509 17.5 8.53982 17.306 7.62987 16.9291C6.71993 16.5522 5.89314 15.9997 5.1967 15.3033C4.50026 14.6069 3.94781 13.7801 3.5709 12.8701C3.19399 11.9602 3 10.9849 3 10C3 8.01088 3.79018 6.10322 5.1967 4.6967C6.60322 3.29018 8.51088 2.5 10.5 2.5C12.4891 2.5 14.3968 3.29018 15.8033 4.6967C17.2098 6.10322 18 8.01088 18 10ZM10.5 6.875H10.5067V6.88167H10.5V6.875Z" stroke="#FF8134" stroke-width="1.5" stroke-linecap="round" stroke-linejoin="round"/>
</svg>
