<svg width="18" height="18" viewBox="0 0 18 18" fill="none" xmlns="http://www.w3.org/2000/svg">
<path d="M8.99981 3.37504C8.99978 3.2433 8.9612 3.11444 8.88882 3.00436C8.81644 2.89427 8.71342 2.80778 8.59248 2.75554C8.47153 2.70329 8.33794 2.68758 8.20818 2.71035C8.07842 2.73311 7.95815 2.79335 7.86221 2.88364L4.23251 6.30004H2.85011C2.71375 6.29999 2.58058 6.34124 2.46812 6.41835C2.35566 6.49546 2.2692 6.60483 2.22011 6.73204C1.94133 7.45565 1.79883 8.22459 1.79981 9.00004C1.79981 9.79834 1.94831 10.5633 2.22101 11.268C2.32091 11.529 2.57201 11.7 2.85101 11.7H4.23251L7.86221 15.1164C7.95815 15.2067 8.07842 15.267 8.20818 15.2897C8.33794 15.3125 8.47153 15.2968 8.59248 15.2445C8.71342 15.1923 8.81644 15.1058 8.88882 14.9957C8.9612 14.8856 8.99978 14.7568 8.99981 14.625V3.37504ZM14.3548 4.54504C14.2274 4.42214 14.0569 4.35419 13.8799 4.35581C13.7029 4.35743 13.5337 4.4285 13.4086 4.55371C13.2835 4.67892 13.2126 4.84825 13.2111 5.02523C13.2097 5.20222 13.2778 5.37269 13.4008 5.49994C14.3291 6.42824 14.8506 7.68726 14.8506 9.00004C14.8506 10.3128 14.3291 11.5718 13.4008 12.5001C13.2816 12.6281 13.2167 12.7973 13.2198 12.9722C13.2228 13.1471 13.2937 13.3139 13.4173 13.4376C13.541 13.5613 13.7079 13.6321 13.8827 13.6352C14.0576 13.6383 14.2269 13.5734 14.3548 13.4541C15.5362 12.2727 16.1998 10.6703 16.1998 8.99959C16.1998 7.32884 15.5362 5.7265 14.3548 4.54504Z" fill="#F9FAFB"/>
<path d="M12.4459 6.45435C12.3187 6.33134 12.1482 6.26322 11.9712 6.26467C11.7942 6.26613 11.6249 6.33703 11.4997 6.46213C11.3745 6.58722 11.3034 6.75648 11.3018 6.93347C11.3002 7.11045 11.3681 7.28099 11.491 7.40835C11.7 7.61729 11.8658 7.86536 11.9789 8.13838C12.092 8.4114 12.1502 8.70403 12.1502 8.99955C12.1502 9.29508 12.092 9.58771 11.9789 9.86073C11.8658 10.1337 11.7 10.3818 11.491 10.5908C11.3718 10.7187 11.3069 10.888 11.31 11.0628C11.313 11.2377 11.3839 11.4045 11.5076 11.5282C11.6312 11.6519 11.7981 11.7227 11.9729 11.7258C12.1478 11.7289 12.3171 11.664 12.445 11.5448C13.1199 10.8697 13.4991 9.95414 13.4991 8.99955C13.4991 8.04496 13.1199 7.12945 12.445 6.45435H12.4459Z" fill="#F9FAFB"/>
</svg>
