<svg width="180" height="118" viewBox="0 0 180 118" fill="none" xmlns="http://www.w3.org/2000/svg">
<path d="M43.0389 56.4295C43.1978 53.6766 53.2566 50.9236 55.4801 50.1295C61.1978 47.9589 57.2272 44.253 58.286 42.9824C59.9801 40.9177 60.8801 33.1883 54.0507 28.8472C47.1683 24.506 41.3977 26.253 37.7977 28.3707C34.1978 30.4883 30.9683 33.7707 30.4919 39.1177C29.6448 47.8001 27.8977 48.7001 26.5742 50.5001C29.2213 57.9119 39.9683 59.1824 43.0389 56.4295Z" fill="#4F6DDB"/>
<path d="M38.0122 47.3242C38.0122 47.3242 38.7005 54.1536 33.8828 56.3242" stroke="#3F58B0" stroke-miterlimit="10"/>
<path d="M35.7889 45.5781C35.7889 45.5781 35.2065 52.0899 30.3359 54.2605" stroke="#3F58B0" stroke-miterlimit="10"/>
<path d="M52.6246 60.8767C54.2658 63.8944 54.3187 67.6003 52.3599 70.4591C45.5834 80.3061 33.354 68.8179 38.5952 60.0826C39.4952 58.5473 40.2893 56.4826 40.1835 53.7826C40.0246 47.112 45.4246 47.8532 49.1834 50.9238C53.207 54.312 51.1423 58.1767 52.6246 60.8767Z" fill="#DB9770"/>
<path d="M51.8805 55.1605C51.8805 55.1605 50.8746 55.1075 48.4393 55.2134C46.004 55.3193 44.1511 56.7487 41.9805 54.5781C42.9864 56.8546 44.8922 58.9722 48.4393 58.7605C51.2452 58.6017 51.9334 57.1193 51.9334 57.1193L51.8805 55.1605Z" fill="#B87F5E"/>
<path d="M-0.160156 112.547H106.675" stroke="#FFC61A" stroke-width="2" stroke-miterlimit="10"/>
<path d="M78.2471 88.3008C78.2471 88.3008 86.7177 114.507 81.5824 116.73C77.0824 118.689 72.1059 116.307 68.0295 103.707C65.7 96.5596 65.4883 92.7478 65.4883 92.7478L78.2471 88.3008Z" fill="#DB9770"/>
<path d="M26.892 92.9596C26.892 92.9596 16.039 115.407 8.57431 110.801C2.22136 106.883 13.8155 88.3008 13.8155 88.3008L26.892 92.9596Z" fill="#DB9770"/>
<path d="M67.4445 92.0585L79.8328 87.8232C79.8328 87.8232 76.974 76.5997 73.1092 70.7761C70.5681 66.9644 54.6857 62.4644 53.0975 60.5056C52.5681 61.7232 51.8269 63.9997 49.7092 65.8526C47.8034 67.4938 45.1563 67.8644 43.0387 66.4879C39.5975 64.2644 37.3739 60.082 37.3739 60.082C32.7681 65.5879 25.1445 67.8644 22.2328 69.982C14.1857 75.7526 11.6445 88.6703 11.6445 88.6703L26.9975 93.0644L26.6798 112.653H67.4445V92.0585Z" fill="#FFC61A"/>
<path d="M52.0938 67.2848C53.0467 66.4378 53.9467 65.2731 54.6879 63.3672" stroke="#BA9113" stroke-miterlimit="10"/>
<path d="M36.582 63.8438C36.582 63.8438 37.9585 67.179 40.8703 69.1908" stroke="#BA9113" stroke-miterlimit="10"/>
<path d="M174.862 65.5892H93.8094C91.2153 65.5892 89.0977 63.4715 89.0977 60.8774V5.97739C89.0977 3.38327 91.2153 1.26562 93.8094 1.26562H174.862C177.456 1.26562 179.574 3.38327 179.574 5.97739V60.8774C179.521 63.4715 177.456 65.5892 174.862 65.5892Z" stroke="#FFC61A" stroke-width="2" stroke-miterlimit="10"/>
<path d="M100.373 99.2607C98.0438 102.12 81.685 123.825 75.2791 115.461C68.8732 107.096 92.6967 96.8254 96.4026 94.8666C100.056 92.9078 102.703 96.4019 100.373 99.2607Z" fill="#DB9770"/>
<path d="M99.2087 100.319L103.444 99.1547C103.444 99.1547 111.015 97.8312 111.915 97.6194C112.815 97.4076 114.721 95.1841 115.568 94.5488C116.468 93.9135 116.521 94.39 117.315 93.5959C118.109 92.8018 121.179 90.3135 121.021 89.6782C120.862 89.0429 120.226 88.8841 119.326 89.4665C118.426 90.0488 117.579 90.79 117.579 90.79C117.579 90.79 118.532 86.9782 117.844 85.9194C117.156 84.8606 116.15 86.3959 116.097 86.8723C116.044 87.2959 115.832 89.3076 115.832 89.3076C115.832 89.3076 115.462 85.7076 115.303 85.2841C115.091 84.9135 113.768 85.7076 113.768 86.7135C113.768 87.7723 113.768 90.2606 113.768 90.2606C113.768 90.2606 112.921 87.5076 112.444 86.8723C111.915 86.2371 110.909 87.7194 111.332 88.7253C111.756 89.7841 111.809 91.2135 111.703 91.2665C111.597 91.3194 108.738 90.4194 105.826 91.4782C102.915 92.5371 100.903 93.49 100.426 93.8606C100.215 94.0194 99.4205 94.1253 98.4676 94.1782C96.7735 94.3371 95.344 95.8723 95.6617 97.8312C95.8205 99.6312 97.5146 100.743 99.2087 100.319Z" fill="#DB9770"/>
<path d="M110.273 94.8682C110.379 94.5506 110.538 94.2858 110.697 94.0211C110.908 93.7564 111.12 93.4917 111.385 93.3329L111.279 93.4388L111.491 92.2741C111.544 91.9035 111.597 91.5329 111.65 91.1094C111.703 91.3211 111.756 91.48 111.808 91.6917C111.808 91.9035 111.861 92.1153 111.861 92.2741C111.861 92.6976 111.808 93.0682 111.703 93.4388V93.5447L111.65 93.5976C111.12 93.9682 110.697 94.4447 110.273 94.8682Z" fill="#C48865"/>
<path d="M111.969 95.9233C112.339 95.4998 112.71 95.0763 113.028 94.5998C113.345 94.1763 113.716 93.6998 113.928 93.2233C114.139 92.7469 114.139 92.2175 114.086 91.6881C113.981 91.1586 113.875 90.6292 113.716 90.0469C114.033 90.5233 114.245 91.0528 114.404 91.5822C114.563 92.1116 114.616 92.7998 114.298 93.3292C114.033 93.8586 113.663 94.3351 113.292 94.7057C112.869 95.2351 112.445 95.6057 111.969 95.9233Z" fill="#C48865"/>
<path d="M113.555 95.5566L114.561 94.233C114.878 93.8095 115.249 93.333 115.461 92.8566C115.672 92.3801 115.672 91.8507 115.725 91.2683L115.778 89.5742C115.884 90.1036 115.99 90.686 115.99 91.2683C115.99 91.8507 116.043 92.433 115.778 93.0154C115.514 93.5448 115.143 93.9683 114.772 94.3919C114.402 94.8154 113.978 95.186 113.555 95.5566Z" fill="#C48865"/>
<path d="M115.406 94.2302C115.883 93.7008 116.359 93.2244 116.783 92.6949C116.994 92.4302 117.1 92.1126 117.206 91.7949C117.312 91.4773 117.418 91.1597 117.524 90.7891C117.577 91.1597 117.577 91.5302 117.471 91.8479C117.418 92.2185 117.259 92.5891 117.047 92.9067C116.624 93.4891 116.042 93.9126 115.406 94.2302Z" fill="#C48865"/>
<path d="M55.3744 46.5822C55.3744 45.3645 56.1685 43.8292 56.1156 40.3351C56.0626 36.7881 53.7862 36.0469 53.7862 36.0469C52.6215 42.0822 45.4215 46.1057 42.9862 46.3704C40.5509 46.6351 40.0744 46.0528 39.9156 44.041C39.7568 42.0822 35.8921 40.8645 35.5215 44.5175C35.1509 48.1704 38.9626 48.4351 38.9626 48.4351C38.9626 48.4351 38.3803 50.7116 40.0215 53.5704C41.6097 56.4292 45.8979 57.9116 48.3332 57.9116C50.1862 57.9116 50.5568 57.4881 51.8803 55.9528C52.3038 55.4763 52.7803 54.8939 53.4685 54.1528C55.5862 51.9292 55.5862 49.4939 55.4273 47.8528C55.4273 47.3233 55.3744 46.8998 55.3744 46.5822Z" fill="#DB9770"/>
<path d="M58.8698 113.129C58.1286 113.923 56.011 113.394 53.6286 112.759C51.1933 112.123 49.8698 113.288 48.0168 113.235C47.3816 113.182 45.5816 112.706 45.4757 112.441C45.1051 111.541 44.6286 109.529 47.1168 108.206C48.3345 107.57 56.6463 105.4 54.8463 107.835C54.3169 108.576 53.7345 110.165 53.7345 110.165C53.7345 110.165 56.1169 110.747 57.2286 111.117C58.3404 111.488 59.558 112.282 58.8698 113.129Z" fill="#C48865"/>
<path d="M57.9168 107.89C59.2933 108.155 60.8815 108.631 61.1992 108.79C61.8344 109.055 65.1168 111.649 65.3815 111.967C65.5933 112.231 65.1697 112.814 64.2697 112.761C64.1639 112.761 63.6874 112.708 63.5815 112.708C62.9462 112.549 60.8815 111.702 59.3462 110.643C57.2815 109.161 55.905 107.467 57.9168 107.89Z" fill="#C48865"/>
<path d="M61.9956 117.102C60.8838 116.361 60.9897 115.302 60.9897 115.302C60.9897 115.302 59.825 114.349 59.5603 112.973L57.5485 111.331C53.3132 111.226 53.6838 111.067 49.0779 112.655C47.7544 113.078 47.0662 112.973 44.7368 112.126C43.8897 112.231 42.3015 112.496 41.5603 112.231C40.5544 111.914 38.6485 111.014 39.4426 108.631C40.2897 106.143 42.1956 106.461 44.1015 106.62C46.3779 106.831 49.1838 106.99 50.0309 106.884C55.6426 105.984 54.3721 106.037 57.9191 107.837C60.1956 109.002 60.6191 109.214 61.1485 109.902C61.625 110.696 62.2074 112.496 62.6309 114.084C62.8956 115.143 63.1074 116.096 63.1603 116.467C63.3191 117.526 63.1074 117.896 61.9956 117.102Z" fill="#DB9770"/>
<path d="M55.5391 108.102C56.492 108.472 57.4979 108.79 58.4508 109.16C58.7155 109.266 58.9273 109.372 59.192 109.478C59.2979 109.531 59.4567 109.637 59.5097 109.743C59.6155 109.849 59.6685 109.955 59.7744 110.06C60.092 110.484 60.3567 110.907 60.6214 111.384C61.1508 112.284 61.5744 113.237 62.0508 114.137L62.3685 114.825C62.4214 114.931 62.4744 115.09 62.5273 115.196C62.5273 115.249 62.5802 115.302 62.5802 115.407C62.5802 115.513 62.5273 115.566 62.4744 115.619C62.2097 115.778 61.9449 115.778 61.6802 115.725C61.4155 115.672 61.2038 115.513 61.045 115.302C61.2038 115.513 61.4685 115.619 61.7332 115.672C61.9979 115.725 62.2626 115.672 62.4214 115.513C62.5273 115.46 62.4744 115.355 62.4214 115.249C62.3685 115.143 62.3155 115.037 62.2626 114.878L61.9449 114.19C61.4685 113.29 61.045 112.337 60.5155 111.437C60.2508 111.013 59.9861 110.537 59.7214 110.113C59.5626 109.902 59.4567 109.69 59.2449 109.584C59.0332 109.478 58.7685 109.372 58.5567 109.266C57.445 108.896 56.492 108.525 55.5391 108.102Z" fill="#C48865"/>
<path d="M65.7549 115.78C65.1196 115.939 64.2725 115.515 63.5314 114.986C63.1608 114.721 62.949 114.509 62.6314 114.086C59.8255 111.915 58.5019 107.786 61.149 109.903C61.9431 110.539 64.3784 113.08 65.3313 114.351C65.9666 115.092 66.3902 115.621 65.7549 115.78Z" fill="#DB9770"/>
<path d="M45.6877 107.57C41.0818 105.241 10.1112 93.0115 6.72294 105.453C3.33471 117.894 38.9641 113.023 42.7229 112.494C47.2759 111.806 50.0818 109.741 45.6877 107.57Z" fill="#DB9770"/>
<path d="M54.634 47.4295C55.0725 47.4295 55.4281 46.7659 55.4281 45.9472C55.4281 45.1285 55.0725 44.4648 54.634 44.4648C54.1954 44.4648 53.8398 45.1285 53.8398 45.9472C53.8398 46.7659 54.1954 47.4295 54.634 47.4295Z" fill="#303134"/>
<path d="M47.6965 47.5897C48.135 47.5897 48.4906 46.926 48.4906 46.1074C48.4906 45.2887 48.135 44.625 47.6965 44.625C47.2579 44.625 46.9023 45.2887 46.9023 46.1074C46.9023 46.926 47.2579 47.5897 47.6965 47.5897Z" fill="#303134"/>
<path d="M56.8046 42.5585C56.8046 42.5585 54.9516 41.235 53.8398 42.9291" stroke="#303134" stroke-width="0.8284" stroke-miterlimit="10" stroke-linecap="round"/>
<path d="M51.6136 45.4688C51.6136 45.4688 53.2018 49.2276 51.0312 48.9629" stroke="#303134" stroke-width="0.8284" stroke-miterlimit="10" stroke-linecap="round"/>
<path d="M52.5666 52.4574C52.5666 52.4574 50.9254 54.3633 49.0195 52.3516" stroke="#303134" stroke-width="0.8284" stroke-miterlimit="10" stroke-linecap="round"/>
<path d="M47.6969 49.0188C49.305 49.0188 50.6087 47.7152 50.6087 46.1071C50.6087 44.499 49.305 43.1953 47.6969 43.1953C46.0888 43.1953 44.7852 44.499 44.7852 46.1071C44.7852 47.7152 46.0888 49.0188 47.6969 49.0188Z" stroke="white" stroke-miterlimit="10"/>
<path d="M55.376 48.8579C56.9256 48.8579 58.1818 47.6016 58.1818 46.052C58.1818 44.5023 56.9256 43.2461 55.376 43.2461C53.8263 43.2461 52.5701 44.5023 52.5701 46.052C52.5701 47.6016 53.8263 48.8579 55.376 48.8579Z" stroke="white" stroke-miterlimit="10"/>
<path d="M50.6096 45.1523H52.7273" stroke="white" stroke-miterlimit="10"/>
<path d="M44.7313 45.6309L40.0195 44.625" stroke="white" stroke-miterlimit="10"/>
<path d="M161.627 56.3236L139.762 56.2177C139.444 56.2177 139.18 55.953 139.18 55.6353L139.286 40.0706C139.286 39.753 139.55 39.4883 139.868 39.4883L161.733 39.5942C162.05 39.5942 162.315 39.8589 162.315 40.1765L162.209 55.7412C162.209 56.0589 161.944 56.3236 161.627 56.3236Z" fill="#029D41"/>
<path d="M139.234 39.4375C141.299 40.6551 143.258 41.9787 145.217 43.3022C147.176 44.6257 149.081 46.0022 151.04 47.4316H150.405C152.364 46.0551 154.27 44.6787 156.281 43.3551C158.24 42.0316 160.252 40.761 162.317 39.5434C160.517 41.1316 158.664 42.614 156.811 44.0434C154.958 45.5257 152.999 46.9022 151.093 48.2787L150.776 48.5434L150.458 48.2787C148.552 46.8493 146.646 45.4199 144.793 43.9375C142.887 42.5081 141.034 41.0257 139.234 39.4375Z" fill="#028738"/>
<path d="M164.693 40.862C164.708 38.2597 162.61 36.1381 160.008 36.1231C157.406 36.1081 155.284 38.2055 155.269 40.8078C155.254 43.41 157.352 45.5317 159.954 45.5466C162.556 45.5616 164.678 43.4642 164.693 40.862Z" fill="#FE3737"/>
<path d="M126.158 42.189L104.293 42.0831C103.976 42.0831 103.711 41.8184 103.711 41.5008L103.764 25.8831C103.764 25.5655 104.029 25.3008 104.346 25.3008L126.211 25.4067C126.529 25.4067 126.793 25.6714 126.793 25.989L126.687 41.5537C126.74 41.9243 126.476 42.189 126.158 42.189Z" fill="#029D41"/>
<path d="M103.766 25.3008C105.83 26.5184 107.789 27.842 109.748 29.1655C111.707 30.489 113.613 31.8655 115.572 33.2949H114.936C116.895 31.9184 118.801 30.542 120.813 29.2184C122.772 27.8949 124.783 26.6243 126.848 25.4067C125.048 26.9949 123.195 28.4773 121.342 29.9067C119.489 31.389 117.53 32.7655 115.624 34.142L115.307 34.4067L114.989 34.142C113.083 32.7125 111.177 31.2831 109.324 29.8008C107.419 28.3714 105.566 26.889 103.766 25.3008Z" fill="#028738"/>
<path d="M129.201 26.7448C129.216 24.1425 127.118 22.0209 124.516 22.0059C121.914 21.9909 119.792 24.0883 119.777 26.6906C119.762 29.2928 121.86 31.4145 124.462 31.4294C127.064 31.4444 129.186 29.347 129.201 26.7448Z" fill="#FE3737"/>
<path d="M161.681 29.5888H139.817C139.499 29.5888 139.234 29.3241 139.234 29.0064V13.4417C139.234 13.1241 139.499 12.8594 139.817 12.8594H161.681C161.999 12.8594 162.264 13.1241 162.264 13.4417V29.0064C162.264 29.3241 161.999 29.5888 161.681 29.5888Z" fill="#029D41"/>
<path d="M139.234 12.8594C141.299 14.077 143.258 15.3476 145.27 16.6711C147.228 17.9947 149.187 19.3711 151.093 20.7476H150.458C152.364 19.3711 154.323 17.9947 156.281 16.6711C158.24 15.3476 160.252 14.0241 162.317 12.8594C160.517 14.4476 158.664 15.93 156.811 17.4123C154.958 18.8947 153.052 20.2711 151.146 21.7006L150.828 21.9653L150.511 21.7006C148.605 20.2711 146.699 18.8947 144.846 17.4123C142.834 15.93 140.981 14.3947 139.234 12.8594Z" fill="#028738"/>
<path d="M159.934 18.8962C162.537 18.8962 164.646 16.7867 164.646 14.1844C164.646 11.5822 162.537 9.47266 159.934 9.47266C157.332 9.47266 155.223 11.5822 155.223 14.1844C155.223 16.7867 157.332 18.8962 159.934 18.8962Z" fill="#FE3737"/>
</svg>
