<svg width="180" height="120" viewBox="0 0 180 120" fill="none" xmlns="http://www.w3.org/2000/svg">
<g clip-path="url(#clip0_4458_299906)">
<path d="M174.434 68.8359H88.091C86.6137 68.8344 85.1973 68.2535 84.1527 67.2206C83.1081 66.1876 82.5205 64.7871 82.519 63.3264V5.50955C82.5205 4.04878 83.1081 2.64826 84.1527 1.61534C85.1973 0.582417 86.6137 0.00147627 88.091 0H174.434C175.911 0.00147627 177.327 0.582417 178.372 1.61534C179.417 2.64826 180.004 4.04878 180.006 5.50955V63.3264C180.004 64.7871 179.417 66.1876 178.372 67.2206C177.327 68.2535 175.911 68.8344 174.434 68.8359ZM88.091 1.11529C86.9128 1.11677 85.7833 1.58021 84.9502 2.40397C84.1172 3.22773 83.6485 4.34457 83.647 5.50955V63.3264C83.6485 64.4913 84.1172 65.6082 84.9502 66.4319C85.7833 67.2557 86.9128 67.7191 88.091 67.7206H174.434C175.612 67.7191 176.741 67.2557 177.574 66.4319C178.408 65.6082 178.876 64.4913 178.878 63.3264V5.50955C178.876 4.34457 178.408 3.22773 177.574 2.40397C176.741 1.58021 175.612 1.11677 174.434 1.11529H88.091Z" fill="#F6EECA"/>
<path d="M37.7573 53.3482C37.5599 54.575 36.9508 57.6309 39.2631 59.7834C38.4509 61.1441 37.4527 62.1701 36.7816 64.5903C36.1105 67.0105 30.1212 69.7653 28.3222 67.9362L23.0773 60.1793C23.6413 59.4209 24.0981 57.0509 24.2729 56.5602C26.275 54.6642 26.5626 51.1399 26.6585 48.1955C24.5154 48.1007 22.1468 47.0523 21.4531 45.4686C20.579 43.5559 20.9343 40.1041 23.1901 39.446C27.2112 38.4088 28.1643 38.5705 28.2658 33.535C28.3673 28.4994 41.0283 31.5553 41.0283 31.5553C41.0283 31.5553 42.5171 36.7136 42.3761 38.2025C42.2361 39.1051 42.2783 40.0262 42.5002 40.9127C42.7641 42.2877 43.1202 43.6439 43.5661 44.9723C44.3387 47.1193 43.1206 53.3872 37.7573 53.3482Z" fill="#DB9770"/>
<path d="M36.1797 43.5637C36.5695 43.481 36.7499 42.7891 36.5827 42.0182C36.4154 41.2473 35.9638 40.6894 35.574 40.7721C35.1842 40.8548 35.0038 41.5468 35.171 42.3177C35.3383 43.0886 35.7899 43.6464 36.1797 43.5637Z" fill="#303134"/>
<path d="M41.8583 42.0877C42.1994 42.0153 42.3488 41.3708 42.192 40.6481C42.0351 39.9254 41.6315 39.3982 41.2904 39.4705C40.9494 39.5429 40.8 40.1874 40.9568 40.9101C41.1136 41.6328 41.5173 42.16 41.8583 42.0877Z" fill="#303134"/>
<path d="M40.7464 45.8889C40.5562 45.8863 40.3669 45.862 40.1824 45.8164C40.1301 45.8044 40.0848 45.7725 40.0562 45.7276C40.0277 45.6826 40.0183 45.6284 40.0301 45.5766C40.0435 45.5257 40.0761 45.4817 40.1211 45.4537C40.1662 45.4257 40.2204 45.4158 40.2726 45.426C40.6787 45.5208 41.1975 45.5543 41.3554 45.1584C41.5528 44.6732 41.1524 43.7029 40.408 43.2735C40.3824 43.2618 40.3595 43.2449 40.3408 43.2239C40.3222 43.203 40.3082 43.1784 40.2997 43.1518C40.2912 43.1251 40.2884 43.097 40.2915 43.0693C40.2946 43.0415 40.3036 43.0147 40.3177 42.9906C40.3319 42.9664 40.351 42.9455 40.3739 42.929C40.3967 42.9126 40.4228 42.9011 40.4504 42.8952C40.478 42.8893 40.5065 42.8891 40.5342 42.8947C40.5618 42.9003 40.588 42.9116 40.611 42.9278C41.4795 43.4297 42.0266 44.6007 41.7389 45.3089C41.6587 45.4984 41.5188 45.6572 41.3399 45.7617C41.1611 45.8662 40.9529 45.9108 40.7464 45.8889Z" fill="#303134"/>
<path d="M37.7573 53.3513C37.7573 53.3513 35.2082 53.0724 34.0859 51.3047C34.6499 54.0093 37.5036 55.1413 37.5036 55.1413L37.7573 53.3513Z" fill="#B87F5E"/>
<path d="M16.5297 34.9855C18.2724 29.1023 28.4237 24.736 32.4391 26.2862C36.7421 27.9592 38.231 27.5911 41.017 24.6133C48.0891 30.6749 42.8668 35.0524 42.4212 37.8909C42.066 36.02 41.3062 34.2471 40.1936 32.6936C39.7593 31.9631 38.716 33.6193 36.4489 34.1937C34.1817 34.768 31.3732 35.1082 31.407 35.5599L30.9333 42.3632C30.9027 42.8493 30.7333 43.3169 30.4448 43.7117C30.1563 44.1065 29.7606 44.4123 29.3035 44.5938C29.3035 44.5938 28.2376 39.2571 24.2278 40.2887C20.218 41.3204 21.8817 47.7779 26.7318 48.1125C26.6771 49.8561 26.4352 51.5889 26.0099 53.2819C26.0099 53.2819 13.7325 44.393 16.5297 34.9855Z" fill="#4F6DDB"/>
<path d="M39.9173 49.3859C39.5288 49.382 39.1465 49.2894 38.8002 49.1152C38.4539 48.9411 38.1529 48.6902 37.9209 48.3821C37.9009 48.3624 37.8853 48.3388 37.875 48.3128C37.8647 48.2868 37.8601 48.259 37.8613 48.2311C37.8625 48.2033 37.8696 48.1759 37.8821 48.1509C37.8946 48.1259 37.9122 48.1037 37.9339 48.0858C37.9555 48.0679 37.9807 48.0547 38.0078 48.0469C38.0349 48.0392 38.0634 48.0371 38.0913 48.0409C38.1193 48.0446 38.1462 48.0541 38.1702 48.0687C38.1943 48.0832 38.215 48.1026 38.2311 48.1256C39.6523 49.7985 41.4682 48.4992 41.5415 48.4434C41.5842 48.4109 41.6381 48.3964 41.6915 48.4032C41.7449 48.41 41.7934 48.4375 41.8263 48.4797C41.8592 48.5218 41.8739 48.5752 41.867 48.628C41.8601 48.6808 41.8323 48.7288 41.7897 48.7613C41.2397 49.144 40.5894 49.361 39.9173 49.3859Z" fill="#303134"/>
<path d="M33.6572 39.7436C33.6047 39.7438 33.5542 39.7238 33.5163 39.6879C33.4973 39.6692 33.4823 39.647 33.4721 39.6226C33.4618 39.5982 33.4565 39.5721 33.4565 39.5457C33.4565 39.5192 33.4618 39.4931 33.4721 39.4687C33.4823 39.4443 33.4973 39.4221 33.5163 39.4035C34.7852 38.1153 36.7365 38.8458 36.8211 38.896C36.8459 38.9058 36.8686 38.9204 36.8877 38.9389C36.9069 38.9574 36.9221 38.9795 36.9326 39.0038C36.9431 39.0282 36.9486 39.0544 36.9488 39.0808C36.949 39.1073 36.944 39.1336 36.9339 39.1581C36.9239 39.1827 36.9092 39.2051 36.8905 39.224C36.8718 39.2429 36.8494 39.258 36.8248 39.2684C36.8002 39.2788 36.7737 39.2842 36.7469 39.2844C36.7202 39.2846 36.6936 39.2796 36.6688 39.2696C36.6688 39.2696 34.881 38.5949 33.8039 39.6879C33.7844 39.7063 33.7614 39.7208 33.7362 39.7303C33.7111 39.7399 33.6842 39.7444 33.6572 39.7436Z" fill="#303134"/>
<path d="M40.2669 38.2488C40.2336 38.2575 40.1986 38.2575 40.1654 38.2488C40.142 38.236 40.1215 38.2187 40.1049 38.1981C40.0883 38.1774 40.0759 38.1537 40.0686 38.1283C40.0613 38.1029 40.0591 38.0764 40.0621 38.0502C40.0652 38.0239 40.0734 37.9986 40.0864 37.9755C40.2695 37.7089 40.5266 37.5002 40.8267 37.3746C41.1268 37.2489 41.4573 37.2117 41.7783 37.2673C41.8322 37.2725 41.8817 37.2986 41.9161 37.3399C41.9505 37.3812 41.9668 37.4343 41.9616 37.4876C41.9564 37.5408 41.93 37.5898 41.8882 37.6238C41.8464 37.6578 41.7927 37.674 41.7388 37.6688C41.4937 37.6218 41.2401 37.6445 41.0075 37.7344C40.7749 37.8242 40.5728 37.9774 40.4248 38.1763C40.4056 38.1992 40.3814 38.2176 40.3541 38.2301C40.3268 38.2426 40.297 38.249 40.2669 38.2488Z" fill="#303134"/>
<path d="M98.0055 78.1429C97.481 77.7637 94.4299 79.2024 94.4299 79.2024L96.0767 77.7024C96.3136 77.4905 96.5223 76.8715 95.7101 76.7934C94.898 76.7153 93.9055 77.7024 93.0313 78.4942C92.1572 79.2861 90.7755 79.8326 89.3768 80.3122C87.9782 80.7917 85.1302 80.6021 85.1922 80.2062C85.2204 80.0222 85.7562 79.7155 86.4781 79.3809L85.587 77.3399L84.0982 77.7693C81.9672 78.3801 79.9325 79.2809 78.0525 80.446C76.6943 81.9426 75.1095 83.2219 73.3547 84.238C65.6115 88.5319 51.3037 95.6028 47.4124 97.7498C38.0224 102.941 40.1598 110.47 46.6003 111.25C53.9995 112.148 78.8646 87.4668 79.1014 87.3608C79.75 87.0764 83.0041 86.9203 84.555 87.188C86.1059 87.4556 90.0367 86.5913 90.5499 86.2065C91.0631 85.8217 92.2418 84.4611 92.7719 83.9759C93.302 83.4908 97.1426 80.8252 97.5656 80.4349C97.9886 80.0445 97.8701 79.643 97.6727 79.4757C98.31 78.985 98.5356 78.5277 98.0055 78.1429Z" fill="#DB9770"/>
<path d="M89.5009 82.3883L89.4163 82.1318C90.3206 81.8625 91.1896 81.4881 92.0049 81.0165C92.7436 80.4589 94.3227 79.1261 94.3397 79.1094L94.5201 79.3157C94.5201 79.3157 92.9185 80.6708 92.174 81.2284C91.3344 81.7219 90.4366 82.1114 89.5009 82.3883Z" fill="#B87F5E"/>
<path d="M94.0576 81.2726L93.894 81.0551C94.833 80.3554 95.8204 79.7218 96.8492 79.1591C97.0203 79.0743 97.2171 79.0553 97.4015 79.1058C97.5859 79.1563 97.7448 79.2726 97.8474 79.4323L97.6049 79.555C97.6049 79.5215 97.4188 79.2483 96.9451 79.4156C95.942 79.9706 94.9774 80.591 94.0576 81.2726Z" fill="#B87F5E"/>
<path d="M87.9048 84.8134C87.7854 84.8248 87.665 84.8056 87.5552 84.7577L87.6398 84.6517L87.7018 84.529C88.4081 84.5592 89.1106 84.4115 89.7433 84.0997C89.9351 83.9881 90.0986 83.9045 90.2396 83.832C90.6726 83.6469 91.0398 83.3381 91.2942 82.9453L91.345 82.8728C91.8639 82.1702 92.7267 80.9936 93.4937 80.9043C93.5943 80.8915 93.6965 80.8997 93.7937 80.9285C93.8909 80.9574 93.9808 81.0061 94.0577 81.0716C94.1307 81.1313 94.1893 81.2063 94.2293 81.2912C94.2693 81.3761 94.2896 81.4687 94.2889 81.5624C94.2889 82.3933 92.9749 83.6368 92.9185 83.6926L92.7154 83.503C93.0764 83.1684 94.0182 82.1702 94.0013 81.5791C94.0022 81.5238 93.9905 81.469 93.9671 81.4188C93.9436 81.3686 93.9091 81.3243 93.8659 81.2891C93.8179 81.2472 93.7613 81.2161 93.7 81.1978C93.6386 81.1795 93.5741 81.1745 93.5106 81.1832C92.8621 81.2612 92.0105 82.4211 91.548 83.0401L91.4973 83.1126C91.2241 83.5358 90.8322 83.871 90.3693 84.0773C90.234 84.1498 90.0761 84.2279 89.8843 84.3339C89.269 84.6378 88.5926 84.8017 87.9048 84.8134Z" fill="#B87F5E"/>
<path d="M52.6741 104.296C51.9691 109.872 51.1796 113.319 47.6943 114.01C41.6373 115.209 32.1402 117.049 23.8161 118.527C10.281 120.914 8.96132 111.49 7.01565 104.586C5.30121 98.5578 0.422928 85.4586 0.0845501 79.4584C-0.242548 73.5919 0.157866 68.1828 5.47603 66.3091C9.0854 65.0599 22.7559 58.7195 24.2898 56.5781L29.5234 64.9428C30.9671 67.1734 34.0351 66.889 35.4789 64.6752C37.0523 62.2661 38.5581 59.9853 39.0882 59.0541C40.876 61.1954 57.7497 68.6066 59.0017 72.906C59.9041 76.0065 53.3847 98.7028 52.6741 104.296Z" fill="#FFC61A"/>
<path d="M31.8977 69.9524C26.5851 69.9524 20.8666 60.0096 20.6184 59.5857L21.1091 59.3125C21.1654 59.4129 26.9066 69.3948 31.892 69.3948C33.629 69.3948 35.6085 68.9263 39.0092 63.5339L39.4886 63.8294C35.9356 69.4617 33.7926 69.9636 31.8977 69.9636V69.9524Z" fill="#BA9113"/>
<path d="M25.7448 105.879L23.489 91.0625L6.51367 95.3731C6.51367 95.3731 10.8336 115.342 15.3284 117.121C15.7487 117.279 16.178 117.411 16.6142 117.517L27.2167 106.364L25.7448 105.879Z" fill="#DB9770"/>
<path d="M58.8271 72.4492L63.4234 89.5244L54.8962 94.0859L58.8271 72.4492Z" fill="#FFC61A"/>
<path d="M12.5989 113.059C12.441 120.175 23.3142 119.706 31.5311 119.957C39.748 120.208 50.8976 118.842 52.8884 118.585C54.8792 118.329 55.9112 118.775 58.043 119.031C60.1748 119.288 64.0154 117.554 64.1676 117.582C64.3199 117.609 65.1602 118.401 65.8877 118.58C66.8151 118.754 67.7749 118.589 68.5891 118.117C69.6888 117.559 69.1531 116.968 69.1531 116.968C69.1531 116.968 70.8449 115.569 71.2341 115.295C71.6232 115.022 71.0649 113.544 71.0649 113.544L71.3299 112.987C71.595 112.429 70.766 111.704 70.766 111.704C70.766 111.704 71.5555 110.522 71.1551 109.736C70.7547 108.949 68.4876 107.962 66.2092 107.84C63.9308 107.717 57.8005 111.397 53.0294 111.029C48.2582 110.661 26.3539 105.899 24.5718 105.536C18.0298 104.215 12.8075 103.401 12.5989 113.059Z" fill="#DB9770"/>
<path d="M69.1306 116.983L67.7319 113.805L69.8412 116.403L69.1306 116.983Z" fill="#B87F5E"/>
<path d="M71.0423 113.543L68.1548 111.652L71.3017 114.496L71.0423 113.543Z" fill="#B87F5E"/>
<path d="M70.7661 111.724C70.5687 111.529 68.4651 110.102 68.4651 110.102L71.1044 111.05L70.7661 111.724Z" fill="#B87F5E"/>
<path d="M124.799 74.2058L91.1927 89.5411C90.7753 89.7309 90.2988 89.7495 89.8675 89.5927C89.4363 89.436 89.0854 89.1166 88.8918 88.7046L77.8043 64.9489C77.6414 64.5983 77.626 64.1982 77.7614 63.8364C77.8967 63.4746 78.1718 63.1808 78.5261 63.0194L113.949 46.8477L125.651 71.9418C125.839 72.354 125.855 72.8229 125.696 73.2468C125.536 73.6707 125.214 74.0153 124.799 74.2058Z" fill="#029D41"/>
<path d="M78.1765 63.828C80.2181 64.118 82.237 64.4749 84.2617 64.8318C86.2863 65.1887 88.2996 65.579 90.313 65.9917C92.3263 66.4043 94.334 66.8226 96.3417 67.2464C98.3495 67.6702 100.346 68.1386 102.348 68.5847L101.434 69.003L104.406 63.3875C105.433 61.5305 106.425 59.6624 107.474 57.811C108.523 55.9596 109.567 54.1249 110.633 52.2903C111.698 50.4556 112.793 48.6377 113.943 46.8477C113.125 48.8106 112.251 50.7512 111.366 52.6639C110.48 54.5766 109.567 56.5005 108.631 58.4021C107.694 60.3037 106.747 62.1941 105.811 64.0957L102.867 69.7502L102.574 70.3078L101.953 70.1573C99.9568 69.6777 97.9603 69.2204 95.9695 68.7241C93.9788 68.2278 91.988 67.7371 90.0028 67.2018C88.0177 66.6664 86.0551 66.1367 84.0586 65.5846C82.0622 65.0325 80.1335 64.4581 78.1765 63.828Z" fill="#028738"/>
<path d="M116.568 60.7154C121.497 58.4663 123.65 52.6917 121.375 47.8175C119.1 42.9433 113.26 40.8153 108.331 43.0644C103.402 45.3135 101.249 51.088 103.524 55.9622C105.799 60.8365 111.639 62.9645 116.568 60.7154Z" fill="#FE3737"/>
<path d="M113.796 55.6201C113.664 55.6195 113.534 55.5849 113.419 55.5197L110.114 53.6851C110.012 53.6003 109.943 53.4825 109.921 53.3525C109.898 53.2226 109.923 53.0889 109.99 52.9752C110.058 52.8616 110.164 52.7753 110.29 52.7317C110.416 52.6881 110.553 52.69 110.678 52.7371L113.498 54.3041L113.622 45.9394C113.603 45.8577 113.603 45.7729 113.622 45.6912C113.641 45.6096 113.678 45.5332 113.731 45.4677C113.783 45.4022 113.85 45.3493 113.927 45.313C114.003 45.2767 114.087 45.2578 114.171 45.2578C114.256 45.2578 114.34 45.2767 114.416 45.313C114.492 45.3493 114.559 45.4022 114.612 45.4677C114.665 45.5332 114.702 45.6096 114.721 45.6912C114.74 45.7729 114.74 45.8577 114.721 45.9394L114.586 54.8617C114.585 54.9933 114.549 55.1222 114.481 55.2357C114.414 55.3492 114.318 55.4433 114.202 55.5086C114.08 55.5825 113.94 55.6212 113.796 55.6201Z" fill="white"/>
<path d="M87.3352 78.8394C88.4011 78.2818 88.5421 77.2836 88.339 76.9155C88.136 76.5475 87.8089 76.291 86.7938 76.804C85.8199 77.2293 84.8151 77.5816 83.7878 77.858L84.7409 80.0439C85.6433 79.5978 86.7543 79.1405 87.3352 78.8394Z" fill="#DB9770"/>
<path d="M168.01 10.0781H150.956C150.7 10.0781 150.493 10.2829 150.493 10.5354V22.5471C150.493 22.7996 150.7 23.0044 150.956 23.0044H168.01C168.265 23.0044 168.473 22.7996 168.473 22.5471V10.5354C168.473 10.2829 168.265 10.0781 168.01 10.0781Z" fill="#029D41"/>
<path d="M150.499 10.082C151.305 10.5449 152.078 11.0468 152.873 11.5263C153.669 12.0059 154.43 12.5245 155.197 13.0431C156.736 14.0636 158.242 15.1287 159.748 16.1994H159.235C160.735 15.1287 162.246 14.0636 163.786 13.0431C164.553 12.5301 165.331 12.0282 166.11 11.5263C166.888 11.0245 167.677 10.5393 168.484 10.082C167.79 10.701 167.068 11.2698 166.363 11.8665C165.658 12.4632 164.92 13.0208 164.192 13.5841C162.737 14.6993 161.248 15.8146 159.754 16.8909L159.494 17.0749L159.24 16.8909C157.746 15.8091 156.263 14.7161 154.802 13.5841C154.069 13.0264 153.347 12.4688 152.631 11.8665C151.915 11.2642 151.187 10.6954 150.499 10.082Z" fill="#028738"/>
<path d="M166.662 14.7544C168.702 14.7544 170.356 13.1191 170.356 11.1018C170.356 9.08454 168.702 7.44922 166.662 7.44922C164.622 7.44922 162.968 9.08454 162.968 11.1018C162.968 13.1191 164.622 14.7544 166.662 14.7544Z" fill="#FE3737"/>
<path d="M168.01 30.6367H150.956C150.7 30.6367 150.493 30.8414 150.493 31.094V43.1057C150.493 43.3582 150.7 43.563 150.956 43.563H168.01C168.265 43.563 168.473 43.3582 168.473 43.1057V31.094C168.473 30.8414 168.265 30.6367 168.01 30.6367Z" fill="#029D41"/>
<path d="M150.499 30.6367C151.305 31.0996 152.078 31.6014 152.873 32.081C153.669 32.5606 154.43 33.0792 155.197 33.5978C156.736 34.6183 158.242 35.6834 159.748 36.7541H159.235C160.735 35.6834 162.246 34.6183 163.786 33.5978C164.553 33.0848 165.331 32.5829 166.11 32.081C166.888 31.5791 167.677 31.094 168.484 30.6367C167.79 31.2557 167.068 31.8245 166.363 32.4212C165.658 33.0179 164.92 33.5755 164.192 34.1387C162.737 35.254 161.248 36.3693 159.754 37.4456L159.494 37.6296L159.24 37.4456C157.746 36.3638 156.263 35.2708 154.802 34.1387C154.069 33.5811 153.347 33.0234 152.631 32.4212C151.915 31.8189 151.187 31.2557 150.499 30.6367Z" fill="#028738"/>
<path d="M166.662 35.3169C168.702 35.3169 170.356 33.6816 170.356 31.6643C170.356 29.647 168.702 28.0117 166.662 28.0117C164.622 28.0117 162.968 29.647 162.968 31.6643C162.968 33.6816 164.622 35.3169 166.662 35.3169Z" fill="#FE3737"/>
<mask id="mask0_4458_299906" style="mask-type:luminance" maskUnits="userSpaceOnUse" x="16" y="24" width="29" height="30">
<path d="M16.5297 34.9855C18.2723 29.1079 28.4236 24.736 32.439 26.2862C36.7421 27.9592 38.2309 27.5911 41.0169 24.6133C48.089 30.6749 42.8667 35.0524 42.4212 37.8909C42.066 36.02 41.3061 34.2471 40.1935 32.6936C39.7593 31.9631 38.7159 33.6193 36.4488 34.1937C34.1817 34.768 31.3732 35.1082 31.407 35.5599L30.9333 42.3632C30.9026 42.8493 30.7332 43.3169 30.4448 43.7117C30.1563 44.1065 29.7605 44.4123 29.3034 44.5938C29.3034 44.5938 28.2375 39.2571 24.2277 40.2887C20.218 41.3204 21.8817 47.7779 26.7317 48.1125C26.6771 49.8561 26.4351 51.5889 26.0099 53.2819C26.0099 53.2819 14.7588 40.9133 16.5297 34.9855Z" fill="white"/>
</mask>
<g mask="url(#mask0_4458_299906)">
<path d="M36.4262 35.9342C36.0991 35.5382 28.4969 26.1586 30.7866 21.5469L31.3111 21.8034C29.1849 26.0917 36.8041 35.4825 36.883 35.5773L36.4262 35.9342Z" fill="#4762C4"/>
<path d="M34.9374 36.2576C26.3765 29.7165 24.3687 21.8146 24.3462 21.7588L24.9102 21.625C24.9102 21.7031 26.8953 29.4321 35.2871 35.8227L34.9374 36.2576Z" fill="#4762C4"/>
<path d="M39.06 35.544C38.8792 35.5247 38.7122 35.4392 38.592 35.3042C37.34 34.1443 32.676 25.9357 35.6706 21.0117L36.1726 21.3128C34.7288 23.694 35.2759 26.8893 35.9865 29.1199C37.0411 32.4323 38.7555 34.8246 39.1052 34.9808C39.0758 34.9721 39.0448 34.97 39.0145 34.9749C38.9842 34.9797 38.9555 34.9912 38.9303 35.0086L39.2631 35.4826C39.2035 35.5234 39.1325 35.5448 39.06 35.544Z" fill="#4762C4"/>
</g>
</g>
<defs>
<clipPath id="clip0_4458_299906">
<rect width="180" height="120" fill="white"/>
</clipPath>
</defs>
</svg>
