<svg width="264" height="172" viewBox="0 0 264 172" fill="none" xmlns="http://www.w3.org/2000/svg">
<g clip-path="url(#clip0_4496_330238)">
<path d="M262.888 106.972C268.97 76.8322 249.537 47.4552 219.483 41.3562C189.43 35.2571 160.136 54.7456 154.055 84.8849C147.973 115.024 167.406 144.401 197.46 150.5C227.513 156.599 256.806 137.111 262.888 106.972Z" fill="#FFC61A"/>
<path d="M168.258 58.2204C170.006 47.8595 171.079 38.1919 175.236 35.235C182.889 29.7836 183.453 34.5576 192.108 32.844C202.36 30.7798 200.73 39.6105 208.185 42.0494C217.173 44.9903 215.186 59.7427 210.068 70.3986C195.636 69.8965 180.981 64.453 168.258 58.2204Z" fill="#4F6DDB"/>
<mask id="mask0_4496_330238" style="mask-type:luminance" maskUnits="userSpaceOnUse" x="168" y="32" width="47" height="39">
<path d="M168.258 58.2204C170.006 47.8595 171.079 38.1919 175.236 35.235C182.889 29.7836 183.453 34.5576 192.108 32.844C202.36 30.7798 200.73 39.6105 208.185 42.0494C217.173 44.9903 215.186 59.7427 210.068 70.3986C195.636 69.8965 180.981 64.453 168.258 58.2204Z" fill="white"/>
</mask>
<g mask="url(#mask0_4496_330238)">
<path d="M168.902 62.2752L167.988 61.5101L176.746 50.918L179.647 51.5795L179.385 52.7511L177.191 52.249L168.902 62.2752Z" fill="#4660C2"/>
<path d="M174.231 45.9358L167.023 59.7031L168.079 60.2588L175.286 46.4915L174.231 45.9358Z" fill="#4660C2"/>
<path d="M202.26 61.6076L201.582 62.0234L208.407 73.2148L209.085 72.799L202.26 61.6076Z" fill="#4660C2"/>
<path d="M200.887 62.6634L200.133 62.9141L203.152 72.0533L203.906 71.8026L200.887 62.6634Z" fill="#4660C2"/>
</g>
<path d="M183.695 73.3387C183.981 75.108 185.562 84.2496 182.288 87.4934C185.133 91.837 175.891 115.388 186.874 116.185C197.857 116.982 203.563 80.6073 203.563 80.6073C203.253 79.9299 202.951 79.2444 202.665 78.5271C200.868 74.2749 199.754 69.7636 199.367 65.1615C200.721 65.057 202.019 64.5737 203.114 63.7665C204.208 62.9592 205.055 61.8603 205.558 60.5947C206.726 57.7096 205.947 54.402 202.681 53.6369C196.832 52.2661 195.568 60.1245 195.568 60.1245C195.568 60.1245 190.37 57.4864 192.389 51.1503C194.614 44.1447 187.565 44.1367 187.565 44.1367C186.747 46.291 185.305 48.1504 183.424 49.4756C181.543 50.8008 179.309 51.5312 177.011 51.5727C177.059 52.9793 176.906 54.3855 176.558 55.749C176.151 57.6506 175.634 59.5267 175.008 61.3678C173.92 64.5159 175.986 73.7053 183.695 73.3387Z" fill="#FEC2A0"/>
<path d="M189.145 53.8062C189.085 53.8051 189.027 53.7856 188.978 53.7504C186.515 52.0448 185.148 52.5549 185.132 52.5549C185.06 52.584 184.98 52.5836 184.909 52.5537C184.837 52.5239 184.78 52.467 184.751 52.3955C184.735 52.36 184.727 52.3218 184.727 52.283C184.726 52.2443 184.734 52.2059 184.749 52.1702C184.763 52.1344 184.785 52.1021 184.813 52.0751C184.841 52.048 184.873 52.0269 184.909 52.0129C184.973 52.0129 186.555 51.3514 189.312 53.2642C189.362 53.3004 189.4 53.3516 189.419 53.4103C189.439 53.4691 189.439 53.5325 189.421 53.5916C189.402 53.6506 189.366 53.7024 189.316 53.7395C189.267 53.7766 189.207 53.7971 189.145 53.7982V53.8062Z" fill="#303134"/>
<path d="M186.882 57.0763C187.092 55.9111 186.799 54.8828 186.229 54.7797C185.659 54.6765 185.027 55.5374 184.817 56.7027C184.607 57.8679 184.9 58.8962 185.47 58.9993C186.04 59.1025 186.672 58.2416 186.882 57.0763Z" fill="#303134"/>
<path d="M178.515 55.3019C178.712 54.2059 178.494 53.2491 178.028 53.1646C177.561 53.0802 177.023 53.9002 176.826 54.9961C176.629 56.092 176.847 57.0489 177.313 57.1333C177.78 57.2178 178.318 56.3978 178.515 55.3019Z" fill="#303134"/>
<path d="M178.973 62.5562C178.692 62.5812 178.41 62.5179 178.166 62.3751C177.923 62.2323 177.73 62.017 177.614 61.7592C177.153 60.739 177.868 59.0095 179.084 58.2046C179.148 58.1715 179.222 58.1632 179.292 58.1812C179.362 58.1992 179.422 58.2423 179.463 58.3023C179.503 58.3622 179.52 58.4349 179.51 58.5066C179.5 58.5782 179.465 58.6437 179.41 58.6907C178.361 59.3841 177.82 60.8267 178.146 61.5121C178.393 62.062 179.132 61.9903 179.736 61.8389C179.773 61.8281 179.812 61.8249 179.85 61.8296C179.888 61.8342 179.925 61.8466 179.958 61.866C179.992 61.8853 180.021 61.9113 180.044 61.9422C180.067 61.9732 180.084 62.0085 180.093 62.0461C180.113 62.1211 180.102 62.2008 180.063 62.2679C180.025 62.335 179.961 62.3842 179.887 62.4047C179.59 62.4972 179.283 62.5481 178.973 62.5562Z" fill="#303134"/>
<path d="M181.127 65.7673C180.269 65.734 179.43 65.5079 178.671 65.1058C178.611 65.0664 178.568 65.0067 178.55 64.9378C178.531 64.8688 178.537 64.7954 178.569 64.7311C178.6 64.6669 178.653 64.6161 178.718 64.5882C178.784 64.5604 178.858 64.5574 178.925 64.5797C179.395 64.8724 179.921 65.0615 180.469 65.1343C181.017 65.2072 181.575 65.1621 182.104 65.0022C182.643 64.7664 183.068 64.3287 183.288 63.7828C183.317 63.7154 183.371 63.6613 183.438 63.6313C183.504 63.6012 183.58 63.5973 183.65 63.6202C183.719 63.6431 183.778 63.6913 183.814 63.7553C183.85 63.8193 183.861 63.8944 183.845 63.9661C183.714 64.3193 183.513 64.6425 183.255 64.9163C182.997 65.1902 182.687 65.4091 182.343 65.5601C181.956 65.7121 181.542 65.7826 181.127 65.7673Z" fill="#303134"/>
<path d="M183.691 73.3403C183.691 73.3403 187.371 72.7585 188.913 70.1523C188.198 74.1373 184.144 75.9704 184.144 75.9704L183.691 73.3403Z" fill="#F99979"/>
<path d="M80.5549 81.2386C80.5549 81.2386 79.0926 80.4416 80.3165 79.5251C81.5403 78.6085 83.2331 80.2822 85.2676 82.0197C87.3021 83.7571 88.828 84.5701 92.3327 84.9287C95.8375 85.2873 97.2362 83.9245 96.9819 83.4144C96.8468 83.1355 95.9805 82.8645 94.9871 82.6174L95.7818 79.4294C97.742 79.8258 99.6644 80.3912 101.528 81.1191C105.93 82.8485 110.007 84.578 111.064 87.0328C112.121 89.4875 140.668 110.146 144.236 113.772C151.095 120.762 151.262 127.544 147.113 130.597C145.62 131.732 143.798 132.348 141.924 132.35C134.143 132.772 107.75 95.4491 106.956 94.6999C105.811 93.5921 102.307 94.8433 100.812 94.8035C99.1894 94.811 97.577 94.5415 96.0441 94.0065C94.9315 93.4805 92.2612 92.6596 91.0135 92.0299C89.7658 91.4003 86.0544 89.3361 85.3471 88.7941C84.6398 88.2522 84.5524 87.6624 83.4954 86.1083C82.6328 84.8694 81.6819 83.6948 80.6502 82.5935C79.5933 81.3821 80.5549 81.2386 80.5549 81.2386Z" fill="#FEC2A0"/>
<path d="M84.907 83.7728C84.5417 83.0008 83.9965 82.3284 83.3175 81.8122C82.9531 81.5291 82.5188 81.3506 82.0611 81.2958C81.6033 81.2411 81.1393 81.3121 80.7188 81.5014L80.4883 81.0391C81.0001 80.7975 81.5693 80.7045 82.1311 80.7707C82.693 80.837 83.2251 81.0597 83.6672 81.4137C84.4344 81.9798 85.0467 82.7309 85.4474 83.5975L84.907 83.7728Z" fill="#F99055"/>
<path d="M92.5455 92.5382C92.4661 92.4505 91.8859 91.9962 91.266 91.5101C89.6205 90.2731 88.0471 88.9426 86.5533 87.5251C86.0844 87.0389 85.6632 86.6803 85.2977 86.3535C84.344 85.5565 83.7082 84.9827 84.3917 83.8748C84.4748 83.7324 84.5899 83.6114 84.7279 83.5215C84.8658 83.4315 85.0229 83.3751 85.1864 83.3568C86.2513 83.1814 87.9043 84.4009 89.1044 85.4449C89.3428 85.6521 89.613 85.9151 89.8991 86.1941C90.7813 87.0469 91.8859 88.1149 92.9032 88.4098C94.3178 88.8242 95.1681 89.2068 95.2079 89.2068L95.0171 89.6849C95.0171 89.6849 94.1429 89.3263 92.7601 88.888C91.6237 88.5532 90.4713 87.4374 89.5812 86.5448C89.2951 86.2738 89.0408 86.0188 88.7865 85.8115C87.197 84.4566 85.9573 83.7473 85.2818 83.843C85.1972 83.8546 85.1165 83.8859 85.0462 83.9343C84.9758 83.9828 84.9177 84.047 84.8764 84.1219C84.4473 84.8312 84.6857 85.0863 85.6712 85.947C86.0288 86.2579 86.4659 86.6484 86.9666 87.1505C88.4444 88.5391 89.9993 89.8429 91.6237 91.0558C93.0621 92.1716 93.0621 92.1716 93.0542 92.3549H92.5455H92.7999L92.5455 92.5382Z" fill="#F99055"/>
<path d="M101.572 88.2357L101.461 87.7336L101.517 87.9887L101.453 87.7416C101.549 87.6943 101.642 87.641 101.731 87.5822C102.624 86.971 103.668 86.6192 104.748 86.5657C105.828 86.5123 106.902 86.7593 107.851 87.2793L107.62 87.7336C106.75 87.2506 105.763 87.0214 104.77 87.0721C103.777 87.1228 102.818 87.4514 102.001 88.0206C101.869 88.1124 101.725 88.1848 101.572 88.2357Z" fill="#F99055"/>
<path d="M144.928 113.891L164.001 103.578L181.263 124.707C181.263 124.707 147.209 135.809 139.635 131.712C132.061 127.616 142.361 121.526 144.928 113.891Z" fill="#FEC2A0"/>
<path d="M92.5633 81.941C91.0374 81.4548 89.2572 80.4665 88.995 79.1834C88.7327 77.9002 88.995 77.0793 92.1183 78.3226C93.3066 78.7854 94.5323 79.1454 95.7819 79.3985L94.9872 82.5865C94.1845 82.3793 93.2706 82.1801 92.5633 81.941Z" fill="#FEC2A0"/>
<mask id="mask1_4496_330238" style="mask-type:luminance" maskUnits="userSpaceOnUse" x="152" y="40" width="113" height="112">
<path d="M262.888 106.972C268.97 76.8322 249.537 47.4552 219.483 41.3562C189.43 35.2571 160.136 54.7456 154.055 84.8849C147.973 115.024 167.406 144.401 197.46 150.5C227.513 156.599 256.806 137.111 262.888 106.972Z" fill="white"/>
</mask>
<g mask="url(#mask1_4496_330238)">
<path d="M244.831 107.406C247.008 120.883 247.795 135.492 249.011 143.582C249.726 148.364 243.957 152.636 235.922 156.398C232.012 143.733 227.45 131.3 227.593 118.429C228.03 112.603 237.392 109.279 244.831 107.406Z" fill="#FEC2A0"/>
<path d="M166.615 88.9859C175.643 83.9887 180.189 87.6629 183.797 84.2039C186.531 86.5312 186.753 102.766 189.924 101.945C194.001 100.893 199.278 82.4824 200.542 77.9555L201.765 74.8711C204.785 77.2621 227.499 75.4449 232.37 78.0591C239.102 81.6376 242.654 93.999 244.832 107.428C237.393 109.269 228.031 112.617 227.594 118.459C227.451 131.33 232.013 143.764 235.923 156.428C221.403 163.234 199.477 168.383 195.018 172.025C187.182 147.988 158.087 106.99 158.087 106.99C158.087 106.99 155.528 95.1148 166.615 88.9859Z" fill="#FE3737"/>
</g>
<path d="M41.2468 55.7756H2.30525C1.68557 55.7756 1.09127 55.5287 0.653094 55.0893C0.214916 54.6499 -0.03125 54.0539 -0.03125 53.4324V24.7963C-0.03125 24.1749 0.214916 23.5789 0.653094 23.1394C1.09127 22.7 1.68557 22.4531 2.30525 22.4531H41.2468C41.8665 22.4531 42.4608 22.7 42.899 23.1394C43.3371 23.5789 43.5833 24.1749 43.5833 24.7963V53.4324C43.5833 54.0539 43.3371 54.6499 42.899 55.0893C42.4608 55.5287 41.8665 55.7756 41.2468 55.7756ZM2.30525 24.1587C2.13452 24.1587 1.97078 24.2267 1.85006 24.3478C1.72934 24.4688 1.66152 24.633 1.66152 24.8043V53.4404C1.66152 53.6116 1.72934 53.7758 1.85006 53.8969C1.97078 54.0179 2.13452 54.086 2.30525 54.086H41.2468C41.4175 54.086 41.5813 54.0179 41.702 53.8969C41.8227 53.7758 41.8905 53.6116 41.8905 53.4404V24.7963C41.8905 24.6251 41.8227 24.4609 41.702 24.3398C41.5813 24.2187 41.4175 24.1507 41.2468 24.1507L2.30525 24.1587Z" fill="#F4706B"/>
<path d="M108.598 33.3225H69.6568C69.0371 33.3225 68.4428 33.0756 68.0047 32.6362C67.5665 32.1967 67.3203 31.6007 67.3203 30.9793V2.34317C67.3203 1.72173 67.5665 1.12573 68.0047 0.6863C68.4428 0.24687 69.0371 0 69.6568 0H108.598C109.218 0 109.812 0.24687 110.251 0.6863C110.689 1.12573 110.935 1.72173 110.935 2.34317V30.9793C110.935 31.6007 110.689 32.1967 110.251 32.6362C109.812 33.0756 109.218 33.3225 108.598 33.3225ZM69.6568 1.70557C69.4861 1.70557 69.3223 1.77359 69.2016 1.89466C69.0809 2.01572 69.0131 2.17992 69.0131 2.35114V30.9873C69.0131 31.1585 69.0809 31.3227 69.2016 31.4437C69.3223 31.5648 69.4861 31.6328 69.6568 31.6328H108.598C108.769 31.6328 108.933 31.5648 109.054 31.4437C109.174 31.3227 109.242 31.1585 109.242 30.9873V2.34317C109.242 2.17196 109.174 2.00775 109.054 1.88668C108.933 1.76562 108.769 1.6976 108.598 1.6976L69.6568 1.70557Z" fill="#F4706B"/>
<path d="M63.495 17.8523L44.4844 28.793L45.2359 30.1064L64.2466 19.1656L63.495 17.8523Z" fill="#029D41"/>
<path d="M61.0733 20.069L62.6309 22.9621L64.3555 20.1567L66.0721 17.3592L62.7978 17.2636L59.5156 17.168L61.0733 20.069Z" fill="#029D41"/>
<path d="M45.2401 46.3938L44.4883 47.707L63.497 58.6511L64.2488 57.3378L45.2401 46.3938Z" fill="#029D41"/>
<path d="M61.0733 56.4361L62.6309 53.543L64.3555 56.3404L66.0721 59.1459L62.7978 59.2415L59.5156 59.3371L61.0733 56.4361Z" fill="#029D41"/>
<path d="M111.096 87.1905C110.867 87.1886 110.64 87.1538 110.421 87.0869L73.2038 75.7217C72.907 75.6357 72.6302 75.4916 72.3893 75.2977C72.1484 75.1037 71.9483 74.8638 71.8005 74.5918C71.6527 74.3198 71.5601 74.0211 71.5282 73.7129C71.4962 73.4048 71.5255 73.0934 71.6143 72.7967L79.9272 45.4039C80.0129 45.1063 80.1566 44.8287 80.35 44.5871C80.5434 44.3456 80.7826 44.1449 81.0538 43.9966C81.3251 43.8484 81.6229 43.7556 81.9302 43.7235C82.2374 43.6915 82.5479 43.7208 82.8438 43.8099L120.061 55.1751C120.358 55.2611 120.634 55.4052 120.875 55.5991C121.116 55.7931 121.316 56.033 121.464 56.305C121.612 56.577 121.704 56.8757 121.736 57.1838C121.768 57.492 121.739 57.8034 121.65 58.1001L113.337 85.4929C113.191 85.9773 112.895 86.4027 112.493 86.7077C112.09 87.0128 111.601 87.1818 111.096 87.1905ZM110.914 85.461C110.993 85.4858 111.077 85.4944 111.161 85.4862C111.244 85.4779 111.325 85.4531 111.398 85.4132C111.473 85.3732 111.538 85.3188 111.592 85.2531C111.645 85.1875 111.684 85.1118 111.708 85.0306L120.021 57.6378C120.045 57.5572 120.054 57.4726 120.045 57.3888C120.037 57.305 120.012 57.2237 119.972 57.1496C119.932 57.0755 119.878 57.0101 119.813 56.9571C119.748 56.9041 119.672 56.8646 119.592 56.8408L82.3829 45.5155C82.3025 45.491 82.2181 45.4828 82.1346 45.4912C82.051 45.4996 81.9699 45.5245 81.896 45.5646C81.8221 45.6046 81.7569 45.6589 81.7041 45.7243C81.6512 45.7898 81.6118 45.8651 81.5881 45.9459L73.2753 73.3387C73.2509 73.4193 73.2427 73.5039 73.2511 73.5877C73.2595 73.6715 73.2843 73.7528 73.3242 73.8269C73.3641 73.901 73.4183 73.9664 73.4835 74.0194C73.5488 74.0724 73.6239 74.1119 73.7045 74.1357L110.914 85.461Z" fill="#F4706B"/>
</g>
<defs>
<clipPath id="clip0_4496_330238">
<rect width="264" height="172" fill="white"/>
</clipPath>
</defs>
</svg>
