<svg width="264" height="172" viewBox="0 0 264 172" fill="none" xmlns="http://www.w3.org/2000/svg">
<g clip-path="url(#clip0_4962_436117)">
<path d="M262.893 106.972C268.974 76.8323 249.541 47.4553 219.488 41.3562C189.434 35.2571 160.141 54.7456 154.059 84.8849C147.978 115.024 167.411 144.401 197.464 150.5C227.518 156.599 256.811 137.111 262.893 106.972Z" fill="#F6EECA"/>
<path d="M168.259 58.2204C170.008 47.8595 171.081 38.1919 175.237 35.235C182.89 29.7836 183.454 34.5576 192.109 32.844C202.361 30.7798 200.732 39.6106 208.186 42.0494C217.175 44.9903 215.188 59.7427 210.07 70.3986C195.638 69.8965 180.983 64.453 168.259 58.2204Z" fill="#4F6DDB"/>
<mask id="mask0_4962_436117" style="mask-type:luminance" maskUnits="userSpaceOnUse" x="168" y="32" width="47" height="39">
<path d="M168.259 58.2204C170.008 47.8595 171.081 38.1919 175.237 35.235C182.89 29.7836 183.454 34.5576 192.109 32.844C202.361 30.7798 200.732 39.6106 208.186 42.0494C217.175 44.9903 215.188 59.7427 210.07 70.3986C195.638 69.8965 180.983 64.453 168.259 58.2204Z" fill="white"/>
</mask>
<g mask="url(#mask0_4962_436117)">
<path d="M168.903 62.2791L167.989 61.514L176.747 50.9219L179.648 51.5834L179.386 52.755L177.192 52.2529L168.903 62.2791Z" fill="#4660C2"/>
<path d="M174.235 45.9397L167.028 59.707L168.083 60.2627L175.291 46.4954L174.235 45.9397Z" fill="#4660C2"/>
<path d="M202.263 61.6115L201.585 62.0273L208.41 73.2187L209.088 72.8029L202.263 61.6115Z" fill="#4660C2"/>
<path d="M200.886 62.6634L200.132 62.9141L203.151 72.0533L203.905 71.8026L200.886 62.6634Z" fill="#4660C2"/>
</g>
<path d="M183.693 73.3309C183.979 75.1002 185.56 84.2418 182.286 87.4856C185.131 91.8292 175.889 115.38 186.872 116.177C197.855 116.974 203.561 80.5995 203.561 80.5995C203.251 79.9221 202.949 79.2366 202.663 78.5193C200.866 74.2671 199.752 69.7558 199.365 65.1537C200.719 65.0492 202.018 64.5659 203.112 63.7587C204.206 62.9514 205.053 61.8525 205.556 60.5869C206.724 57.7018 205.945 54.3942 202.679 53.6291C196.83 52.2583 195.566 60.1167 195.566 60.1167C195.566 60.1167 190.369 57.4786 192.387 51.1425C194.612 44.1369 187.563 44.1289 187.563 44.1289C186.745 46.2832 185.303 48.1426 183.422 49.4678C181.541 50.793 179.307 51.5234 177.009 51.5649C177.057 52.9715 176.904 54.3777 176.556 55.7412C176.149 57.6428 175.632 59.5189 175.006 61.36C173.918 64.5161 175.984 73.6975 183.693 73.3309Z" fill="#FEC2A0"/>
<path d="M189.145 53.8062C189.085 53.8051 189.027 53.7856 188.978 53.7504C186.514 52.0448 185.147 52.5549 185.131 52.5549C185.06 52.584 184.979 52.5836 184.908 52.5537C184.837 52.5239 184.78 52.467 184.75 52.3955C184.721 52.3236 184.721 52.2431 184.751 52.1715C184.781 52.0999 184.838 52.0429 184.909 52.0129C184.972 52.0129 186.554 51.3514 189.312 53.2642C189.362 53.3004 189.399 53.3516 189.419 53.4103C189.438 53.4691 189.439 53.5325 189.42 53.5916C189.402 53.6506 189.365 53.7024 189.316 53.7395C189.266 53.7766 189.207 53.7971 189.145 53.7982V53.8062Z" fill="#303134"/>
<path d="M186.881 57.0802C187.091 55.915 186.799 54.8868 186.228 54.7836C185.658 54.6804 185.026 55.5413 184.816 56.7066C184.607 57.8718 184.899 58.9001 185.469 59.0032C186.039 59.1064 186.671 58.2455 186.881 57.0802Z" fill="#303134"/>
<path d="M178.522 55.298C178.719 54.202 178.5 53.2452 178.034 53.1607C177.567 53.0763 177.029 53.8963 176.832 54.9922C176.635 56.0881 176.853 57.045 177.32 57.1294C177.786 57.2139 178.324 56.3939 178.522 55.298Z" fill="#303134"/>
<path d="M178.972 62.557C178.691 62.582 178.409 62.5187 178.166 62.3759C177.922 62.2331 177.729 62.0179 177.613 61.76C177.152 60.7398 177.868 59.0104 179.083 58.2054C179.149 58.1621 179.229 58.1465 179.305 58.1622C179.382 58.1779 179.45 58.2235 179.493 58.2891C179.536 58.3546 179.551 58.4347 179.536 58.5116C179.52 58.5886 179.475 58.6562 179.409 58.6995C178.36 59.3929 177.82 60.8355 178.146 61.5209C178.4 62.0788 179.131 61.9991 179.735 61.8477C179.772 61.8369 179.811 61.8337 179.849 61.8384C179.888 61.843 179.925 61.8554 179.958 61.8748C179.991 61.8941 180.021 61.9201 180.044 61.951C180.067 61.982 180.084 62.0173 180.093 62.0549C180.112 62.1299 180.101 62.2096 180.063 62.2767C180.024 62.3438 179.961 62.393 179.886 62.4135C179.589 62.5033 179.282 62.5515 178.972 62.557Z" fill="#303134"/>
<path d="M181.126 65.7673C180.268 65.734 179.429 65.5079 178.67 65.1058C178.611 65.0663 178.568 65.0066 178.549 64.9377C178.53 64.8688 178.537 64.7954 178.568 64.7311C178.599 64.6668 178.652 64.6161 178.718 64.5882C178.783 64.5604 178.857 64.5574 178.924 64.5797C179.394 64.872 179.921 65.0607 180.469 65.1336C181.017 65.2064 181.574 65.1616 182.103 65.0021C182.642 64.7664 183.067 64.3287 183.288 63.7827C183.317 63.7154 183.37 63.6613 183.437 63.6313C183.504 63.6012 183.579 63.5973 183.649 63.6202C183.719 63.6431 183.777 63.6913 183.813 63.7553C183.849 63.8193 183.86 63.8944 183.844 63.9661C183.713 64.3193 183.513 64.6425 183.255 64.9163C182.997 65.1902 182.686 65.4091 182.342 65.5601C181.955 65.7121 181.541 65.7826 181.126 65.7673Z" fill="#303134"/>
<path d="M183.693 73.3325C183.693 73.3325 187.372 72.7507 188.914 70.1445C188.199 74.1295 184.146 75.9626 184.146 75.9626L183.693 73.3325Z" fill="#F99979"/>
<path d="M80.5773 81.2386C80.5773 81.2386 79.115 80.4416 80.3389 79.5251C81.5628 78.6085 83.2556 80.2822 85.2901 82.0197C87.3246 83.7571 88.8504 84.5701 92.3552 84.9287C95.8599 85.2873 97.2586 83.9245 97.0043 83.4144C96.8692 83.1355 96.003 82.8645 95.0096 82.6174L95.8043 79.4294C97.7645 79.8258 99.6869 80.3912 101.55 81.1191C105.953 82.8485 110.03 84.578 111.087 87.0328C112.144 89.4875 140.69 110.146 144.259 113.772C151.117 120.762 151.284 127.544 147.136 130.597C145.642 131.732 143.82 132.348 141.946 132.35C134.166 132.772 107.773 95.4491 106.978 94.6999C105.834 93.5921 102.329 94.8434 100.835 94.8035C99.2119 94.811 97.5994 94.5415 96.0666 94.0065C94.9539 93.4805 92.2837 92.6596 91.0359 92.0299C89.7882 91.4003 86.0768 89.3361 85.3695 88.7941C84.6622 88.2522 84.5748 87.6624 83.5178 86.1083C82.6552 84.8694 81.7044 83.6948 80.6727 82.5935C79.5919 81.4139 80.5773 81.2386 80.5773 81.2386Z" fill="#FEC2A0"/>
<path d="M84.9084 83.7416C84.5432 82.9696 83.998 82.2971 83.319 81.781C82.9546 81.4978 82.5203 81.3193 82.0625 81.2646C81.6048 81.2098 81.1408 81.2809 80.7202 81.4701L80.4897 81.0079C81.0016 80.7663 81.5707 80.6733 82.1326 80.7395C82.6945 80.8057 83.2266 81.0284 83.6686 81.3825C84.4359 81.9485 85.0482 82.6997 85.4488 83.5662L84.9084 83.7416Z" fill="#F99055"/>
<path d="M92.5458 92.5251C92.4663 92.4375 91.8862 91.9832 91.2663 91.497C89.621 90.2598 88.0475 88.9293 86.5536 87.512C86.0847 87.0259 85.6635 86.6672 85.2979 86.3404C84.3442 85.5434 83.7084 84.9696 84.3919 83.8618C84.4755 83.7197 84.5907 83.5991 84.7286 83.5092C84.8665 83.4193 85.0233 83.3627 85.1866 83.3437C86.2675 83.1764 87.9046 84.3878 89.1046 85.4319C89.3431 85.6391 89.6133 85.9021 89.8994 86.181C90.7815 87.0338 91.8862 88.1018 92.9034 88.3967C94.318 88.8111 95.1684 89.1937 95.2081 89.1937L95.0174 89.6719C95.0174 89.6719 94.1432 89.3132 92.7604 88.8749C91.6239 88.5402 90.4716 87.4244 89.5815 86.5317C89.2954 86.2607 89.0411 86.0057 88.7867 85.7985C87.1973 84.4436 85.9575 83.7183 85.282 83.8299C85.1982 83.8407 85.118 83.8708 85.0477 83.9178C84.9774 83.9648 84.9189 84.0274 84.8767 84.1009C84.4475 84.8102 84.686 85.0652 85.6714 85.926C86.029 86.2368 86.4661 86.6274 86.9668 87.1295C88.4447 88.5181 89.9995 89.8219 91.6239 91.0347C93.0624 92.1505 93.0624 92.1505 93.0544 92.3339H92.5458H92.8001L92.5458 92.5251Z" fill="#F99055"/>
<path d="M101.574 88.2357L101.463 87.7336L101.518 87.9887L101.455 87.7416C101.55 87.6943 101.643 87.641 101.733 87.5822C102.626 86.971 103.67 86.6192 104.75 86.5657C105.83 86.5123 106.903 86.7593 107.852 87.2794L107.622 87.7336C106.752 87.2506 105.764 87.0214 104.771 87.0721C103.778 87.1228 102.819 87.4514 102.003 88.0206C101.871 88.1124 101.726 88.1848 101.574 88.2357Z" fill="#F99055"/>
<path d="M144.934 113.883L164.008 103.57L181.269 124.699C181.269 124.699 147.223 135.793 139.657 131.704C132.091 127.616 142.359 121.527 144.934 113.883Z" fill="#FEC2A0"/>
<path d="M92.5618 81.941C91.036 81.4548 89.2558 80.4665 88.9935 79.1834C88.7313 77.9002 88.9935 77.0793 92.1168 78.3226C93.3052 78.7854 94.5309 79.1454 95.7805 79.3986L94.9858 82.5865C94.2149 82.3953 93.2533 82.1641 92.5618 81.941Z" fill="#FEC2A0"/>
<mask id="mask1_4962_436117" style="mask-type:luminance" maskUnits="userSpaceOnUse" x="152" y="40" width="113" height="112">
<path d="M262.893 106.972C268.974 76.8323 249.541 47.4553 219.488 41.3562C189.434 35.2571 160.141 54.7456 154.059 84.8849C147.978 115.024 167.411 144.401 197.464 150.5C227.518 156.599 256.811 137.111 262.893 106.972Z" fill="white"/>
</mask>
<g mask="url(#mask1_4962_436117)">
<path d="M244.831 107.406C247.009 120.883 247.796 135.492 249.011 143.582C249.727 148.364 243.957 152.636 235.922 156.398C232.012 143.733 227.451 131.3 227.594 118.429C228.031 112.595 237.393 109.247 244.831 107.406Z" fill="#FEC2A0"/>
<path d="M166.614 88.9859C175.642 83.9887 180.188 87.6629 183.796 84.2039C186.53 86.5312 186.753 102.766 189.924 101.945C194 100.893 199.277 82.4824 200.541 77.9555L201.765 74.8711C204.785 77.2621 227.498 75.4449 232.37 78.0591C239.101 81.6376 242.654 93.999 244.831 107.428C237.393 109.27 228.031 112.617 227.594 118.459C227.45 131.33 232.012 143.764 235.922 156.428C221.403 163.234 199.476 168.383 195.018 172.025C187.182 147.988 158.087 106.99 158.087 106.99C158.087 106.99 155.528 95.1467 166.614 88.9859Z" fill="#FE3737"/>
</g>
<path d="M41.2463 55.7756H2.30475C1.68508 55.7756 1.09078 55.5287 0.652606 55.0893C0.214428 54.6499 -0.0317383 54.0539 -0.0317383 53.4324V24.7963C-0.0317383 24.1749 0.214428 23.5789 0.652606 23.1394C1.09078 22.7 1.68508 22.4531 2.30475 22.4531H41.2463C41.866 22.4531 42.4603 22.7 42.8985 23.1394C43.3367 23.5789 43.5828 24.1749 43.5828 24.7963V53.4324C43.5828 54.0539 43.3367 54.6499 42.8985 55.0893C42.4603 55.5287 41.866 55.7756 41.2463 55.7756ZM2.30475 24.1587C2.13403 24.1587 1.97029 24.2267 1.84957 24.3478C1.72885 24.4688 1.66103 24.633 1.66103 24.8043V53.4404C1.66312 53.6102 1.73186 53.7724 1.85236 53.8917C1.97286 54.0111 2.1354 54.078 2.30475 54.078H41.2463C41.4157 54.078 41.5782 54.0111 41.6987 53.8917C41.8192 53.7724 41.888 53.6102 41.8901 53.4404V24.7963C41.8901 24.6251 41.8222 24.4609 41.7015 24.3398C41.5808 24.2187 41.417 24.1507 41.2463 24.1507L2.30475 24.1587Z" fill="#F4706B"/>
<path d="M108.599 33.3225H69.6578C69.0381 33.3225 68.4438 33.0756 68.0056 32.6362C67.5674 32.1967 67.3213 31.6007 67.3213 30.9793V2.34317C67.3213 1.72172 67.5674 1.12573 68.0056 0.6863C68.4438 0.24687 69.0381 0 69.6578 0H108.599C109.214 0.00838045 109.8 0.258945 110.231 0.69747C110.662 1.136 110.904 1.7272 110.904 2.34317V30.9793C110.904 31.5953 110.662 32.1865 110.231 32.625C109.8 33.0635 109.214 33.3141 108.599 33.3225ZM69.6578 1.70557C69.5732 1.70557 69.4895 1.72227 69.4114 1.75471C69.3333 1.78715 69.2624 1.83471 69.2026 1.89466C69.1428 1.9546 69.0954 2.02577 69.0631 2.10409C69.0307 2.18241 69.014 2.26636 69.014 2.35114V30.9873C69.014 31.1585 69.0819 31.3227 69.2026 31.4437C69.3233 31.5648 69.4871 31.6328 69.6578 31.6328H108.599C108.77 31.6328 108.934 31.5648 109.055 31.4437C109.175 31.3227 109.243 31.1585 109.243 30.9873V2.34317C109.243 2.17195 109.175 2.00775 109.055 1.88668C108.934 1.76562 108.77 1.6976 108.599 1.6976L69.6578 1.70557Z" fill="#F4706B"/>
<path d="M63.4901 17.8483L44.4795 28.7891L45.2311 30.1025L64.2417 19.1617L63.4901 17.8483Z" fill="#029D41"/>
<path d="M61.0748 20.069L62.6324 22.9621L64.357 20.1567L66.0736 17.3592L62.7993 17.2636L59.5171 17.168L61.0748 20.069Z" fill="#029D41"/>
<path d="M45.2403 46.3977L44.4885 47.7109L63.4973 58.655L64.2491 57.3417L45.2403 46.3977Z" fill="#029D41"/>
<path d="M61.0748 56.4361L62.6324 53.543L64.357 56.3404L66.0736 59.1459L62.7993 59.2415L59.5171 59.3371L61.0748 56.4361Z" fill="#029D41"/>
<path d="M111.103 87.1749C110.871 87.1738 110.641 87.1389 110.419 87.0712L73.2023 75.7061C72.9055 75.6201 72.6287 75.476 72.3878 75.282C72.147 75.0881 71.9468 74.8482 71.799 74.5761C71.6512 74.3041 71.5587 74.0054 71.5267 73.6973C71.4947 73.3892 71.524 73.0778 71.6129 72.7811L79.9257 45.3883C80.0114 45.0907 80.1551 44.813 80.3485 44.5715C80.5419 44.3299 80.7811 44.1292 81.0524 43.981C81.3236 43.8328 81.6215 43.7399 81.9287 43.7079C82.236 43.6758 82.5465 43.7052 82.8423 43.7943L120.059 55.1595C120.356 55.2454 120.633 55.3895 120.874 55.5835C121.115 55.7774 121.315 56.0174 121.463 56.2894C121.61 56.5614 121.703 56.8601 121.735 57.1682C121.767 57.4763 121.738 57.7878 121.649 58.0844L113.336 85.4772C113.19 85.9577 112.894 86.3786 112.493 86.6784C112.091 86.9781 111.604 87.141 111.103 87.143V87.1749ZM82.1986 45.4281C82.0617 45.4287 81.9285 45.4731 81.8185 45.5548C81.7084 45.6365 81.6272 45.7513 81.5867 45.8824L73.2738 73.2752C73.2494 73.3558 73.2412 73.4404 73.2496 73.5242C73.258 73.608 73.2829 73.6893 73.3228 73.7634C73.3627 73.8375 73.4168 73.903 73.4821 73.956C73.5473 74.009 73.6224 74.0485 73.703 74.0722L110.904 85.4613C111.066 85.5085 111.241 85.4899 111.389 85.4093C111.538 85.3288 111.649 85.1929 111.699 85.0309L120.012 57.6381C120.059 57.4754 120.04 57.3006 119.96 57.1515C119.88 57.0024 119.744 56.8909 119.583 56.8411L82.3655 45.4759C82.3112 45.4604 82.2551 45.4523 82.1986 45.452V45.4281Z" fill="#F4706B"/>
</g>
<defs>
<clipPath id="clip0_4962_436117">
<rect width="264" height="172" fill="white"/>
</clipPath>
</defs>
</svg>
