<svg width="455" height="172" viewBox="0 0 455 172" fill="none" xmlns="http://www.w3.org/2000/svg">
<path d="M0 8C0 3.58173 3.58172 0 8 0H380C384.418 0 455 3.58172 455 8V172H0V8Z" fill="#242425"/>
<rect x="91.5" y="85.5" width="51" height="29" rx="3.5" fill="#2F2F2F"/>
<rect x="91.5" y="85.5" width="51" height="29" rx="3.5" stroke="#E34848"/>
<rect x="182.5" y="45.5" width="51" height="29" rx="3.5" fill="#2F2F2F"/>
<rect x="182.5" y="45.5" width="51" height="29" rx="3.5" stroke="#E34848"/>
<rect x="274.5" y="45.5" width="51" height="29" rx="3.5" fill="#2F2F2F"/>
<rect x="274.5" y="45.5" width="51" height="29" rx="3.5" stroke="#E34848"/>
<rect x="182.5" y="85.5" width="51" height="29" rx="3.5" fill="#2F2F2F"/>
<rect x="182.5" y="85.5" width="51" height="29" rx="3.5" stroke="#E34848"/>
<rect x="182.5" y="125.5" width="51" height="29" rx="3.5" fill="#2F2F2F"/>
<rect x="182.5" y="125.5" width="51" height="29" rx="3.5" stroke="#E34848"/>
<path d="M142.642 100.651C142.449 100.849 142.453 101.165 142.651 101.358C142.849 101.551 143.165 101.547 143.358 101.349L142.642 100.651ZM181.5 61.9935C181.496 61.7174 181.27 61.4965 180.994 61.5L176.494 61.5585C176.218 61.5621 175.997 61.7888 176 62.0649C176.004 62.3411 176.231 62.562 176.507 62.5584L180.507 62.5065L180.558 66.5061C180.562 66.7822 180.789 67.0032 181.065 66.9996C181.341 66.996 181.562 66.7692 181.558 66.4931L181.5 61.9935ZM143.358 101.349L181.358 62.3489L180.642 61.6511L142.642 100.651L143.358 101.349Z" fill="#0E9384"/>
<path d="M234 59.5C233.724 59.5 233.5 59.7239 233.5 60C233.5 60.2761 233.724 60.5 234 60.5V59.5ZM273.354 60.3536C273.549 60.1583 273.549 59.8417 273.354 59.6464L270.172 56.4645C269.976 56.2692 269.66 56.2692 269.464 56.4645C269.269 56.6597 269.269 56.9763 269.464 57.1716L272.293 60L269.464 62.8284C269.269 63.0237 269.269 63.3403 269.464 63.5355C269.66 63.7308 269.976 63.7308 270.172 63.5355L273.354 60.3536ZM234 60.5H273V59.5H234V60.5Z" fill="#0E9384"/>
<path d="M143 100.5C142.724 100.5 142.5 100.724 142.5 101C142.5 101.276 142.724 101.5 143 101.5V100.5ZM182.354 101.354C182.549 101.158 182.549 100.842 182.354 100.646L179.172 97.4645C178.976 97.2692 178.66 97.2692 178.464 97.4645C178.269 97.6597 178.269 97.9763 178.464 98.1716L181.293 101L178.464 103.828C178.269 104.024 178.269 104.34 178.464 104.536C178.66 104.731 178.976 104.731 179.172 104.536L182.354 101.354ZM143 101.5H182V100.5H143V101.5Z" fill="#0E9384"/>
<path d="M36.6442 15.7075C36.9179 15.6891 37.31 15.6765 37.8666 15.6719C38.1944 15.688 38.5888 15.734 39.0258 15.8432C39.6399 15.9973 40.1321 16.225 40.4909 16.4263L40.5082 16.4424C40.8106 16.6229 41.2269 16.892 41.6881 17.2658C42.3459 17.7994 43.5649 18.8125 44.2549 20.5249C44.3929 20.8664 44.5746 21.3264 44.6562 21.9624C44.7264 22.5086 44.6942 23.0066 44.6298 24.0048C44.5757 24.8305 44.5343 24.9478 44.578 25.3354C44.6137 25.6516 44.6585 26.1657 44.9667 26.6659C45.2013 27.0454 45.4003 27.1282 46.1466 27.8481C46.7929 28.4714 46.64 28.4047 47.0287 28.7486C47.7946 29.4248 48.1936 29.5076 48.4466 30.0826C48.4938 30.1907 48.5202 30.2792 48.5294 30.316C48.5455 30.377 48.6582 30.8278 48.48 31.2464C48.3638 31.5201 48.2592 31.4614 47.8831 31.918C47.6692 32.1767 47.5186 32.3619 47.4162 32.6574C47.3806 32.7586 47.2874 33.0588 47.3254 33.4498C47.3461 33.6602 47.3679 33.8971 47.5197 34.1214C47.7543 34.4687 48.0395 34.3997 48.2592 34.7792C48.3109 34.8689 48.3937 35.0172 48.3822 35.2093C48.3627 35.5209 48.1051 35.7371 48.0384 35.7935C47.8371 35.9625 47.744 35.9131 47.5795 36.1005C47.5209 36.1684 47.3875 36.3202 47.4151 36.495C47.4323 36.6019 47.5025 36.6709 47.5623 36.7273C47.7946 36.9492 47.9947 36.8526 48.1327 37.0401C48.2201 37.1585 48.2189 37.3046 48.2189 37.4069C48.2189 37.4759 48.2086 37.6565 48.0982 37.8278C48.0085 37.9658 47.9176 37.9969 47.821 38.0785C47.5416 38.3154 47.5094 38.734 47.4921 38.956C47.4611 39.3585 47.5841 39.5195 47.6474 39.8875C47.7957 40.7534 47.3932 41.5033 47.3185 41.6436C46.9424 42.3428 46.3421 42.6671 46.1075 42.7901C45.2669 43.2306 44.2537 43.188 42.2251 43.1029C42.1285 43.0995 41.8548 43.0868 41.4914 43.1213C41.4914 43.1213 41.2166 43.1466 40.9371 43.2041C40.6358 43.2651 39.901 43.4111 39.2075 43.8493C37.9552 44.6416 37.44 45.8353 37.2698 46.2861L36.9754 46.5909C36.7454 46.7346 36.4061 46.9198 35.9725 47.0658C35.654 47.1728 35.386 47.2234 34.918 47.2901C34.1509 47.3982 33.7013 47.4626 33.0504 47.4879C32.0062 47.5281 31.2184 47.4361 30.5606 47.3637C29.4106 47.236 28.3791 47.0244 27.4844 46.7852L28.5953 46.906C29.1197 46.9531 29.7246 46.9876 30.4537 46.9612C31.1103 46.937 31.5646 46.8749 32.3374 46.7691C32.81 46.7047 33.0791 46.6553 33.4011 46.5506C33.8393 46.4092 34.1808 46.2286 34.4131 46.0883L34.7098 45.7928C34.8812 45.3546 35.401 44.1943 36.6649 43.4238C37.3641 42.9971 38.1058 42.8557 38.4094 42.7959C38.6912 42.7407 38.9695 42.7154 38.9695 42.7154C39.3363 42.682 39.6123 42.6935 39.7089 42.6981C41.7548 42.7798 42.7771 42.8212 43.6258 42.3934C43.8627 42.2738 44.4676 41.9587 44.8471 41.279C44.923 41.1433 45.329 40.4142 45.1795 39.5724C45.1162 39.2147 44.9909 39.0583 45.0231 38.6673C45.0403 38.4511 45.0737 38.044 45.3543 37.814C45.4509 37.7347 45.5429 37.7048 45.6337 37.5702C45.7464 37.4035 45.7556 37.2275 45.7556 37.1608C45.7556 37.0608 45.7568 36.9193 45.6682 36.8043C45.5279 36.6215 45.3267 36.7146 45.0921 36.4996C45.0323 36.4444 44.961 36.3777 44.9437 36.273C44.9161 36.1028 45.0495 35.9556 45.1093 35.8901C45.2749 35.7072 45.3692 35.7567 45.5716 35.5922C45.6395 35.537 45.8994 35.3266 45.9189 35.0241C45.9316 34.8378 45.8476 34.6941 45.7947 34.6067C45.5728 34.2375 45.2864 34.3054 45.0495 33.9673C44.8966 33.7499 44.8736 33.5188 44.854 33.3141C44.8161 32.9334 44.9104 32.6425 44.946 32.5436C45.0495 32.2561 45.2025 32.0767 45.4175 31.8248C45.797 31.3809 45.9028 31.4384 46.0201 31.1716C46.1995 30.7645 46.0857 30.3264 46.0696 30.2666C46.0592 30.2309 46.0328 30.1435 45.9856 30.04C45.7315 29.4811 45.3278 29.4006 44.555 28.7428C44.1629 28.4093 44.317 28.4737 43.6661 27.8677C42.9128 27.1685 42.7116 27.088 42.4758 26.7188C42.1642 26.2324 42.1193 25.7333 42.0837 25.4262C42.04 25.0502 42.0825 24.9363 42.1366 24.1336C42.2021 23.1641 42.2343 22.6788 42.163 22.1487C42.0802 21.53 41.8974 21.0838 41.7582 20.7514C41.0625 19.0874 39.832 18.1018 39.1684 17.5832C38.8602 17.3417 38.5716 17.145 38.3232 16.9898C38.1173 16.8046 37.7999 16.5528 37.3698 16.332C36.6407 15.9582 36.0553 15.9145 36.0611 15.8237C36.0634 15.7926 36.1313 15.7616 36.344 15.7351L36.6442 15.7075Z" fill="#F2AA79"/>
<path d="M34.681 47.3203C34.1129 47.3997 33.7127 47.4514 33.209 47.4767L34.681 47.3203Z" fill="#F2AA79"/>
<path d="M27.5225 46.7882C27.5133 46.7859 27.5041 46.7836 27.4961 46.7813L28.607 46.9021C29.1314 46.9492 29.7363 46.9837 30.4654 46.9573C31.1221 46.9331 31.5763 46.871 32.3491 46.7652C32.8218 46.7008 33.0909 46.6514 33.4129 46.5467C33.851 46.4053 34.1926 46.2247 34.4249 46.0844L34.7216 45.7889C34.8929 45.3507 35.4127 44.1904 36.6766 43.4199C37.3758 42.9932 38.1175 42.8518 38.4211 42.792C38.7029 42.7368 38.9812 42.7115 38.9812 42.7115C39.348 42.6781 39.624 42.6896 39.7206 42.6942C41.7665 42.7759 42.7888 42.8173 43.6375 42.3895C43.8744 42.2699 44.4793 41.9548 44.8588 41.2751C44.9347 41.1394 45.3407 40.4103 45.1912 39.5685C45.1279 39.2108 45.0026 39.0544 45.0348 38.6634C45.052 38.4472 45.0854 38.0401 45.366 37.8101C45.4626 37.7308 45.5546 37.7009 45.6454 37.5663C45.7581 37.3996 45.7673 37.2236 45.7673 37.1569C45.7673 37.0569 45.7685 36.9154 45.6799 36.8004C45.5396 36.6176 45.3384 36.7107 45.1038 36.4957C45.044 36.4405 44.9727 36.3738 44.9554 36.2691C44.9278 36.0989 45.0612 35.9517 45.121 35.8862C45.2866 35.7033 45.3809 35.7528 45.5833 35.5883C45.6512 35.5331 45.9111 35.3227 45.9306 35.0202C45.9433 34.8339 45.8593 34.6902 45.8064 34.6028C45.5845 34.2336 45.2981 34.3015 45.0612 33.9634C44.9083 33.746 44.8853 33.5149 44.8657 33.3102C44.8278 32.9295 44.9221 32.6386 44.9577 32.5397C45.0612 32.2522 45.2142 32.0728 45.4292 31.8209C45.8087 31.377 45.9145 31.4345 46.0318 31.1677C46.2112 30.7606 46.0974 30.3225 46.0813 30.2627C46.0709 30.227 46.0445 30.1396 45.9973 30.0361C45.7432 29.4772 45.3395 29.3967 44.5667 28.7389C44.1746 28.4054 44.3287 28.4698 43.6778 27.8638C42.9245 27.1646 42.7233 27.0841 42.4875 26.7149C42.1759 26.2285 42.131 25.7293 42.0954 25.4223C42.0517 25.0462 42.0942 24.9324 42.1483 24.1297C42.2138 23.1602 42.246 22.6749 42.1747 22.1448C42.0919 21.5261 41.9091 21.0799 41.7699 20.7475C41.0742 19.0835 39.8437 18.0979 39.1801 17.5793C38.8719 17.3378 38.5833 17.1411 38.3349 16.9859C38.129 16.8007 37.8116 16.5489 37.3815 16.3281C36.6524 15.9543 36.0671 15.9106 36.0728 15.8198C36.0751 15.7887 36.143 15.7577 36.3557 15.7312L36.6547 15.7036C36.9284 15.6852 37.3206 15.6726 37.8772 15.668C38.2049 15.6841 38.5994 15.7301 39.0364 15.8393C39.6505 15.9934 40.1427 16.2211 40.5015 16.4224L40.5187 16.4385C40.8212 16.619 41.2375 16.8881 41.6986 17.2619C42.3564 17.7955 43.5754 18.8086 44.2654 20.521C44.4034 20.8625 44.5851 21.3225 44.6668 21.9585C44.7369 22.5047 44.7047 23.0027 44.6403 24.0009C44.5863 24.8266 44.5449 24.9439 44.5886 25.3314C44.6242 25.6477 44.6691 26.1618 44.9773 26.662C45.2119 27.0415 45.4108 27.1243 46.1572 27.8442C46.8035 28.4675 46.6505 28.4008 47.0392 28.7447C47.8052 29.4209 48.2042 29.5037 48.4572 30.0787C48.5044 30.1868 48.5308 30.2753 48.54 30.3121C48.5561 30.3731 48.6688 30.8239 48.4906 31.2425C48.3744 31.5162 48.2698 31.4575 47.8937 31.9141C47.6798 32.1728 47.5292 32.358 47.4268 32.6535C47.3912 32.7547 47.298 33.0549 47.336 33.4459C47.3567 33.6563 47.3785 33.8932 47.5303 34.1175C47.7649 34.4648 48.0501 34.3958 48.2698 34.7753C48.3215 34.865 48.4043 35.0133 48.3928 35.2054C48.3733 35.517 48.1157 35.7332 48.049 35.7896C47.8477 35.9586 47.7546 35.9092 47.5901 36.0966C47.5315 36.1645 47.3981 36.3163 47.4257 36.4911C47.4429 36.598 47.5131 36.667 47.5729 36.7234C47.8052 36.9453 48.0053 36.8487 48.1433 37.0362C48.2307 37.1546 48.2295 37.3007 48.2295 37.403C48.2295 37.472 48.2192 37.6526 48.1088 37.8239C48.0191 37.9619 47.9282 37.993 47.8316 38.0746C47.5522 38.3115 47.52 38.7301 47.5027 38.9521C47.4717 39.3546 47.5947 39.5156 47.658 39.8836C47.8063 40.7495 47.4038 41.4993 47.3291 41.6396C46.953 42.3389 46.3527 42.6632 46.1181 42.7862C45.2774 43.2267 44.2643 43.1841 42.2357 43.099C42.1391 43.0956 41.8654 43.0829 41.502 43.1174C41.502 43.1174 41.2271 43.1427 40.9477 43.2002C40.6464 43.2612 39.9115 43.4072 39.2181 43.8454C37.9657 44.6377 37.4505 45.8314 37.2803 46.2822L36.9859 46.587C36.7559 46.7307 36.4167 46.9159 35.9831 47.0619C35.6646 47.1689 35.3966 47.2195 34.9286 47.2862C34.8423 47.2988 34.7607 47.3103 34.6813 47.3207" fill="#F2AA79"/>
<path d="M34.7617 47.3094C34.8134 47.3025 34.8663 47.2944 34.9215 47.2864C35.3896 47.2197 35.6575 47.1691 35.9761 47.0622C36.4108 46.9161 36.7489 46.7309 36.9789 46.5872L37.2733 46.2824C37.4423 45.8316 37.9587 44.6379 39.2099 43.8467C39.9033 43.4086 40.6382 43.2637 40.9395 43.2016C41.219 43.1441 41.4938 43.1188 41.4938 43.1188C41.8572 43.0843 42.1309 43.0969 42.2275 43.1015C42.6162 43.1176 42.9681 43.1326 43.289 43.1429L43.3637 43.1349C43.4948 43.1418 43.6305 43.1452 43.7674 43.1452C44.5586 43.1452 45.2727 43.0325 45.8914 42.8738L45.957 42.8635C46.0087 42.8405 46.0593 42.8163 46.1099 42.7899C46.3445 42.6668 46.9448 42.3425 47.3209 41.6433C47.3956 41.5042 47.7981 40.7544 47.6498 39.8884C47.5865 39.5204 47.4635 39.3606 47.4945 38.9569C47.5118 38.735 47.544 38.3164 47.8234 38.0795C47.9189 37.9978 48.0097 37.9668 48.1006 37.8288C48.2121 37.6574 48.2213 37.4769 48.2213 37.4079C48.2213 37.3044 48.2225 37.1595 48.1351 37.041C47.9959 36.8536 47.797 36.949 47.5647 36.7271C47.5049 36.6696 47.4347 36.6017 47.4175 36.4948C47.3899 36.32 47.5221 36.1682 47.5819 36.1003C47.7464 35.9129 47.8395 35.9623 48.0396 35.7933C48.1063 35.7369 48.3639 35.5207 48.3835 35.2091C48.395 35.017 48.3122 34.8687 48.2604 34.779C48.0408 34.3983 47.7556 34.4685 47.521 34.1212C47.3692 33.8969 47.3462 33.66 47.3266 33.4496C47.2887 33.0586 47.3818 32.7584 47.4175 32.6572C47.5198 32.3617 47.6716 32.1777 47.8844 31.9189C48.2604 31.4624 48.3651 31.521 48.4812 31.2473C48.6583 30.8287 48.5456 30.3779 48.5295 30.3169C48.5203 30.2801 48.4939 30.1904 48.4467 30.0835C48.1937 29.5085 47.7947 29.4257 47.0288 28.7495C46.6401 28.4068 46.793 28.4723 46.1467 27.849C45.4004 27.1291 45.2014 27.0463 44.9668 26.6668C44.6586 26.1666 44.6138 25.6537 44.5781 25.3374C44.5344 24.951 44.577 24.8326 44.6299 24.008C44.6943 23.011 44.7265 22.5119 44.6563 21.9668C44.5735 21.3308 44.3918 20.872 44.255 20.5293C43.565 18.8169 42.3448 17.8038 41.687 17.2702C41.2259 16.8964 40.8096 16.6262 40.5071 16.4468L40.4899 16.4307C40.1311 16.2294 39.6377 16.0006 39.0236 15.8476C38.5866 15.7384 38.1921 15.6924 37.8644 15.6763C37.6608 15.6774 37.4791 15.6809 37.317 15.6843L36.6546 15.7591L37.0617 15.674C37.6884 15.5739 38.2117 15.5797 38.5866 15.6073C39.7883 15.6947 40.6934 16.1006 41.3834 16.4123C41.8342 16.6158 42.2356 16.8366 42.5852 17.0551L42.6496 17.1046C43.0233 17.3553 43.4143 17.6405 43.8122 17.9671C43.9997 18.1212 44.1779 18.2741 44.347 18.4271L44.3619 18.4397C45.1117 18.9791 46.0996 19.8255 46.7424 21.1054C46.9046 21.4286 47.1196 21.8633 47.2312 22.4716C47.3278 22.9937 47.3094 23.4744 47.2737 24.4358C47.2438 25.2316 47.2024 25.3466 47.2634 25.7158C47.3128 26.0182 47.3795 26.5104 47.7337 26.9785C48.0028 27.3338 48.2225 27.4063 49.0631 28.0687C49.7899 28.6425 49.6209 28.585 50.0567 28.899C50.9169 29.5188 51.3551 29.5832 51.6506 30.126C51.7058 30.2272 51.738 30.3123 51.7495 30.3468C51.7691 30.4055 51.9071 30.8333 51.7288 31.2427C51.6115 31.5107 51.4954 31.4578 51.1009 31.912C50.8767 32.1696 50.718 32.3525 50.6168 32.6411C50.5823 32.74 50.4903 33.0321 50.5455 33.407C50.5754 33.6083 50.6076 33.836 50.7812 34.0453C51.0492 34.3696 51.3574 34.2925 51.6115 34.649C51.6713 34.733 51.7668 34.8721 51.761 35.0573C51.7507 35.3574 51.477 35.5759 51.4057 35.6323C51.1918 35.8025 51.0883 35.7588 50.9158 35.9451C50.8537 36.0129 50.7134 36.1636 50.7502 36.3303C50.772 36.4327 50.8514 36.4959 50.9192 36.5488C51.1803 36.7524 51.3953 36.6523 51.5529 36.8271C51.6529 36.9375 51.6564 37.0778 51.6598 37.1767C51.6621 37.2423 51.6575 37.4171 51.5425 37.5861C51.4494 37.723 51.3505 37.7563 51.2493 37.838C50.9526 38.076 50.9319 38.4797 50.9215 38.6947C50.9008 39.0834 51.0423 39.2329 51.1239 39.5837C51.3171 40.4105 50.9031 41.1465 50.8261 41.2834C50.4397 41.9699 49.7968 42.3057 49.545 42.4334C49.4196 42.4966 49.2897 42.5518 49.154 42.5978L47.5233 42.9601C46.2836 43.3844 45.3061 43.4799 44.6322 43.4845C44.1101 43.4891 43.2809 43.4442 42.2482 43.7835C41.9527 43.8812 41.7169 43.9847 41.564 44.0572L41.518 44.0905C40.5669 44.8518 40.1644 45.7603 40.0195 46.1375L39.709 46.4423C39.4629 46.5895 39.0995 46.7815 38.6303 46.9379C38.2853 47.0529 37.9955 47.1128 37.486 47.1944C36.6534 47.329 36.1635 47.4071 35.454 47.4577C35.0952 47.483 34.7628 47.4946 34.4535 47.4969L33.3633 47.5003" fill="#F37F2F"/>
<path d="M21.3281 29.9081C22.3792 29.9081 23.2313 29.056 23.2313 28.0048C23.2313 26.9537 22.3792 26.1016 21.3281 26.1016C20.2769 26.1016 19.4248 26.9537 19.4248 28.0048C19.4248 29.056 20.2769 29.9081 21.3281 29.9081Z" fill="#F37F2F"/>
<path d="M21.5312 27.898L26.0611 37.0681L21.1241 28.1107C21.0632 27.9992 21.1034 27.86 21.215 27.7979C21.3265 27.737 21.4657 27.7772 21.5278 27.8888C21.5278 27.8922 21.5301 27.8957 21.5312 27.898Z" fill="#F27F2D"/>
<path d="M23.8582 20.9019C24.7156 20.9019 25.4107 20.2068 25.4107 19.3494C25.4107 18.492 24.7156 17.7969 23.8582 17.7969C23.0007 17.7969 22.3057 18.492 22.3057 19.3494C22.3057 20.2068 23.0007 20.9019 23.8582 20.9019Z" fill="#F37F2F"/>
<path d="M25.9304 38.023C26.7879 38.023 27.4829 37.3279 27.4829 36.4705C27.4829 35.613 26.7879 34.918 25.9304 34.918C25.073 34.918 24.3779 35.613 24.3779 36.4705C24.3779 37.3279 25.073 38.023 25.9304 38.023Z" fill="#F37F2F"/>
<path d="M26.0167 36.2492L33.0409 39.3117L25.8453 36.677C25.7257 36.6333 25.6648 36.5011 25.7085 36.3815C25.7522 36.2619 25.8844 36.2009 26.004 36.2446C26.0075 36.2458 26.0121 36.2481 26.0167 36.2492Z" fill="#F27F2D"/>
<path d="M26.1554 36.446L27.6492 44.6294L25.7057 36.5415C25.6758 36.4184 25.7517 36.2942 25.8759 36.2643C25.999 36.2344 26.1232 36.3103 26.1531 36.4345C26.1531 36.438 26.1542 36.4426 26.1554 36.446Z" fill="#F27F2D"/>
<path d="M32.8732 40.3011C33.4245 40.3011 33.8714 39.8542 33.8714 39.3029C33.8714 38.7516 33.4245 38.3047 32.8732 38.3047C32.3219 38.3047 31.875 38.7516 31.875 39.3029C31.875 39.8542 32.3219 40.3011 32.8732 40.3011Z" fill="#F37F2F"/>
<path d="M27.6496 45.1566C28.2009 45.1566 28.6478 44.7097 28.6478 44.1584C28.6478 43.6071 28.2009 43.1602 27.6496 43.1602C27.0983 43.1602 26.6514 43.6071 26.6514 44.1584C26.6514 44.7097 27.0983 45.1566 27.6496 45.1566Z" fill="#F37F2F"/>
<path d="M25.8204 36.285L31.8085 32.3555L26.0849 36.6611C25.9837 36.737 25.8388 36.7174 25.7629 36.6151C25.687 36.5139 25.7065 36.369 25.8089 36.2931C25.8112 36.2908 25.8158 36.2873 25.8204 36.285Z" fill="#F27F2D"/>
<path d="M31.3019 33.7308C31.8532 33.7308 32.3001 33.2839 32.3001 32.7326C32.3001 32.1813 31.8532 31.7344 31.3019 31.7344C30.7506 31.7344 30.3037 32.1813 30.3037 32.7326C30.3037 33.2839 30.7506 33.7308 31.3019 33.7308Z" fill="#F37F2F"/>
<path d="M24.0801 19.4118L21.3281 28.1829L23.6373 19.2853C23.6695 19.1622 23.7949 19.0886 23.9179 19.1208C24.041 19.153 24.1146 19.2784 24.0824 19.4014C24.0824 19.4037 24.0812 19.4083 24.0801 19.4118Z" fill="#F27F2D"/>
<path d="M23.9311 19.0519L34.0902 22.6572L23.7873 19.4889C23.6654 19.4521 23.5976 19.3233 23.6355 19.2014C23.6735 19.0795 23.8011 19.0116 23.923 19.0496C23.9253 19.0496 23.9288 19.0507 23.9311 19.0519Z" fill="#F27F2D"/>
<path d="M34.175 23.6683C34.7263 23.6683 35.1732 23.2214 35.1732 22.6701C35.1732 22.1188 34.7263 21.6719 34.175 21.6719C33.6237 21.6719 33.1768 22.1188 33.1768 22.6701C33.1768 23.2214 33.6237 23.6683 34.175 23.6683Z" fill="#F37F2F"/>
<path d="M24.0401 19.1312L29.9891 27.1295L23.6779 19.4153C23.5974 19.3164 23.6123 19.1715 23.7101 19.091C23.809 19.0105 23.9539 19.0254 24.0344 19.1232C24.0355 19.1255 24.0378 19.1278 24.0401 19.1312Z" fill="#F27F2D"/>
<path d="M29.9728 28.2347C30.5241 28.2347 30.971 27.7878 30.971 27.2365C30.971 26.6852 30.5241 26.2383 29.9728 26.2383C29.4215 26.2383 28.9746 26.6852 28.9746 27.2365C28.9746 27.7878 29.4215 28.2347 29.9728 28.2347Z" fill="#F37F2F"/>
<path d="M23.7972 19.0502L33.4952 16.5938L23.9203 19.4929C23.7984 19.5297 23.6707 19.4607 23.6339 19.34C23.5971 19.2181 23.6661 19.0904 23.7869 19.0536C23.7903 19.0525 23.7938 19.0513 23.7972 19.0502Z" fill="#F27F2D"/>
<path d="M33.547 17.4964C34.0983 17.4964 34.5452 17.0495 34.5452 16.4982C34.5452 15.9469 34.0983 15.5 33.547 15.5C32.9957 15.5 32.5488 15.9469 32.5488 16.4982C32.5488 17.0495 32.9957 17.4964 33.547 17.4964Z" fill="#F37F2F"/>
<path d="M58.3373 38.56C58.2439 38.56 58.1706 38.5333 58.1173 38.48C58.0639 38.4267 58.0373 38.3733 58.0373 38.32C58.0373 38.2 58.1373 38.1133 58.3373 38.06C58.8439 37.9267 59.2573 37.8067 59.5773 37.7C59.9106 37.58 60.1506 37.42 60.2973 37.22C60.4573 37.0067 60.5373 36.7067 60.5373 36.32V28.68C60.5373 28.4267 60.4573 28.2333 60.2973 28.1C60.1373 27.9667 59.9306 27.8733 59.6773 27.82C59.4239 27.7667 59.1506 27.7333 58.8573 27.72C58.7239 27.7067 58.6039 27.6733 58.4973 27.62C58.3906 27.5667 58.3373 27.4867 58.3373 27.38C58.3373 27.2867 58.3839 27.2067 58.4773 27.14C58.5839 27.0733 58.7039 27.0333 58.8373 27.02C59.4373 26.9267 59.9706 26.8133 60.4373 26.68C60.9173 26.5333 61.3839 26.2333 61.8373 25.78C61.8506 25.7667 61.8639 25.76 61.8773 25.76C61.9039 25.76 61.9239 25.76 61.9373 25.76C62.0039 25.76 62.0639 25.78 62.1173 25.82C62.1706 25.8467 62.1906 25.8867 62.1773 25.94C62.1506 26.14 62.1306 26.36 62.1173 26.6C62.1039 26.8267 62.0973 27.08 62.0973 27.36V36.56C62.0973 36.8933 62.1573 37.1467 62.2773 37.32C62.4106 37.4933 62.6306 37.6333 62.9373 37.74C63.2439 37.8333 63.6706 37.9467 64.2173 38.08C64.2973 38.0933 64.3706 38.1267 64.4373 38.18C64.5173 38.22 64.5573 38.2733 64.5573 38.34C64.5573 38.4867 64.4639 38.56 64.2773 38.56C63.9039 38.56 63.5573 38.5467 63.2373 38.52C62.9306 38.5067 62.6239 38.4933 62.3173 38.48C62.0239 38.4667 61.6973 38.46 61.3373 38.46C60.9773 38.46 60.6373 38.4667 60.3173 38.48C59.9973 38.4933 59.6773 38.5067 59.3573 38.52C59.0373 38.5467 58.6973 38.56 58.3373 38.56ZM73.9466 38.8C73.0133 38.8 72.1133 38.64 71.2466 38.32C70.38 38 69.6066 37.5467 68.9266 36.96C68.2466 36.36 67.7066 35.6467 67.3066 34.82C66.92 33.98 66.7266 33.0533 66.7266 32.04C66.7266 31.0667 66.9333 30.1667 67.3466 29.34C67.76 28.5133 68.3266 27.7933 69.0466 27.18C69.7666 26.5667 70.5866 26.0933 71.5066 25.76C72.44 25.4133 73.42 25.24 74.4466 25.24C74.9666 25.24 75.4066 25.26 75.7666 25.3C76.1266 25.34 76.4733 25.4 76.8066 25.48C77.1533 25.5467 77.5533 25.64 78.0066 25.76C78.2066 25.8133 78.3466 25.8933 78.4266 26C78.52 26.1067 78.5733 26.2533 78.5866 26.44C78.6133 26.7467 78.6466 27.08 78.6866 27.44C78.7266 27.7867 78.7533 28.22 78.7666 28.74C78.78 28.8333 78.7333 28.9133 78.6266 28.98C78.5333 29.0333 78.4266 29.0467 78.3066 29.02C78.2 28.9933 78.1266 28.9067 78.0866 28.76C77.9533 28.2533 77.8 27.82 77.6266 27.46C77.4533 27.0867 77.1933 26.78 76.8466 26.54C76.5133 26.3133 76.1066 26.1467 75.6266 26.04C75.16 25.92 74.6533 25.86 74.1066 25.86C73.3333 25.86 72.6133 26.02 71.9466 26.34C71.2933 26.6467 70.7266 27.0733 70.2466 27.62C69.78 28.1533 69.4133 28.76 69.1466 29.44C68.88 30.12 68.7466 30.8267 68.7466 31.56C68.7466 32.3733 68.8733 33.1733 69.1266 33.96C69.3933 34.7467 69.7666 35.46 70.2466 36.1C70.74 36.7267 71.32 37.2333 71.9866 37.62C72.6666 37.9933 73.42 38.18 74.2466 38.18C75.2066 38.18 76 37.96 76.6266 37.52C77.2533 37.08 77.7866 36.4667 78.2266 35.68C78.32 35.5067 78.4533 35.42 78.6266 35.42C78.8133 35.42 78.9066 35.5267 78.9066 35.74C78.9066 35.8467 78.88 36.02 78.8266 36.26C78.7733 36.4867 78.7 36.7333 78.6066 37C78.5266 37.2533 78.4466 37.48 78.3666 37.68C78.2733 37.8667 78.1933 37.9867 78.1266 38.04C78.0733 38.0933 77.94 38.1533 77.7266 38.22C77.2333 38.42 76.64 38.5667 75.9466 38.66C75.2666 38.7533 74.6 38.8 73.9466 38.8ZM82.3459 38.78C82.1059 38.78 81.8592 38.6867 81.6059 38.5C81.3659 38.3133 81.1592 38.0867 80.9859 37.82C80.8259 37.5533 80.7459 37.3 80.7459 37.06C80.7459 36.6333 80.8592 36.3 81.0859 36.06C81.3125 35.82 81.6725 35.6 82.1659 35.4L84.2059 34.56C84.4725 34.4533 84.6259 34.36 84.6659 34.28C84.7192 34.2 84.7525 34.0267 84.7659 33.76L84.8059 32.48C84.8192 32.1333 84.7192 31.8333 84.5059 31.58C84.3059 31.3267 84.0125 31.2 83.6259 31.2C83.4259 31.2 83.2259 31.2333 83.0259 31.3C82.8259 31.3667 82.6592 31.4533 82.5259 31.56C82.4459 31.6133 82.3925 31.6933 82.3659 31.8C82.3392 31.9067 82.3259 32.02 82.3259 32.14C82.3259 32.1933 82.3259 32.2533 82.3259 32.32C82.3392 32.3867 82.3459 32.4467 82.3459 32.5C82.3459 32.5667 82.2592 32.66 82.0859 32.78C81.9259 32.8867 81.7392 32.9867 81.5259 33.08C81.3259 33.16 81.1592 33.2 81.0259 33.2C80.9592 33.2 80.9059 33.1867 80.8659 33.16C80.8259 33.12 80.8059 33.0733 80.8059 33.02C80.8059 32.8067 80.8725 32.58 81.0059 32.34C81.1525 32.0867 81.3525 31.8533 81.6059 31.64C81.9125 31.36 82.2459 31.1133 82.6059 30.9C82.9659 30.6867 83.3192 30.52 83.6659 30.4C84.0125 30.28 84.3192 30.22 84.5859 30.22C85.0659 30.22 85.4592 30.3933 85.7659 30.74C86.0859 31.0733 86.2392 31.4933 86.2259 32L86.1259 36.8C86.1125 37.08 86.1725 37.3067 86.3059 37.48C86.4525 37.6533 86.6325 37.74 86.8459 37.74C87.1792 37.74 87.4259 37.6667 87.5859 37.52C87.6525 37.4533 87.7059 37.42 87.7459 37.42C87.8125 37.42 87.8659 37.44 87.9059 37.48C87.9459 37.52 87.9659 37.5733 87.9659 37.64C87.9659 37.7867 87.8925 37.9333 87.7459 38.08C87.5325 38.2933 87.2992 38.46 87.0459 38.58C86.8059 38.7133 86.5792 38.78 86.3659 38.78C85.7525 38.78 85.2659 38.4333 84.9059 37.74H84.8459C84.4059 38.1 83.9859 38.36 83.5859 38.52C83.1859 38.6933 82.7725 38.78 82.3459 38.78ZM83.2859 37.82C83.5525 37.82 83.7792 37.78 83.9659 37.7C84.1525 37.6067 84.3192 37.4867 84.4659 37.34C84.5325 37.2733 84.5859 37.1867 84.6259 37.08C84.6792 36.96 84.7125 36.7733 84.7259 36.52L84.7659 35.54C84.7792 35.3933 84.7725 35.2867 84.7459 35.22C84.7192 35.1533 84.6659 35.12 84.5859 35.12C84.5592 35.12 84.5125 35.1267 84.4459 35.14C84.3792 35.1533 84.2925 35.18 84.1859 35.22C83.4792 35.4733 82.9859 35.74 82.7059 36.02C82.4392 36.2867 82.3059 36.5333 82.3059 36.76C82.3059 37.1067 82.4059 37.3733 82.6059 37.56C82.8192 37.7333 83.0459 37.82 83.2859 37.82ZM95.1341 38.88C95.1075 38.88 95.0608 38.8533 94.9941 38.8C94.9408 38.7467 94.9141 38.7067 94.9141 38.68C94.9141 38.5467 94.9275 38.36 94.9541 38.12C94.9941 37.8667 95.0141 37.6533 95.0141 37.48V37.36C94.8141 37.6667 94.4941 37.98 94.0541 38.3C93.6141 38.62 93.0608 38.78 92.3941 38.78C91.6341 38.78 90.9741 38.58 90.4141 38.18C89.8675 37.78 89.4408 37.2667 89.1341 36.64C88.8408 36.0133 88.6941 35.3667 88.6941 34.7C88.6941 33.9267 88.8741 33.2 89.2341 32.52C89.5941 31.84 90.1075 31.2867 90.7741 30.86C91.4541 30.4333 92.2608 30.22 93.1941 30.22C93.4608 30.22 93.7275 30.2467 93.9941 30.3C94.2741 30.34 94.4875 30.3867 94.6341 30.44C94.7541 30.48 94.8408 30.5 94.8941 30.5C94.9875 30.5 95.0341 30.34 95.0341 30.02V27.18C95.0341 26.6333 94.9475 26.2667 94.7741 26.08C94.6008 25.8933 94.3541 25.7733 94.0341 25.72C93.9141 25.6933 93.8541 25.6067 93.8541 25.46C93.8541 25.34 93.9075 25.26 94.0141 25.22C94.6008 25.0733 95.0608 24.9333 95.3941 24.8C95.7275 24.6667 95.9875 24.56 96.1741 24.48C96.2275 24.4533 96.2741 24.44 96.3141 24.44C96.3675 24.4267 96.4075 24.42 96.4341 24.42C96.5141 24.42 96.5608 24.46 96.5741 24.54C96.5741 24.62 96.5608 24.76 96.5341 24.96C96.5208 25.1467 96.5008 25.4267 96.4741 25.8C96.4475 26.1733 96.4341 26.66 96.4341 27.26V36.3C96.4341 36.7533 96.4675 37.0867 96.5341 37.3C96.6008 37.5 96.7075 37.6 96.8541 37.6C96.9208 37.6 97.0341 37.5933 97.1941 37.58C97.3675 37.5667 97.5408 37.5533 97.7141 37.54C97.9541 37.5267 98.0741 37.5867 98.0741 37.72C98.0741 37.8133 98.0408 37.9 97.9741 37.98C97.9208 38.0467 97.8608 38.08 97.7941 38.08C97.4208 38.1333 97.0541 38.2133 96.6941 38.32C96.3341 38.4133 95.9208 38.56 95.4541 38.76C95.3475 38.8133 95.2741 38.8467 95.2341 38.86C95.2075 38.8733 95.1741 38.88 95.1341 38.88ZM93.1141 37.74C93.4608 37.74 93.8008 37.6533 94.1341 37.48C94.4675 37.2933 94.7608 37.0533 95.0141 36.76L95.0341 33.16C95.0341 32.8 94.9275 32.4467 94.7141 32.1C94.5141 31.7533 94.2275 31.4733 93.8541 31.26C93.4941 31.0333 93.0675 30.92 92.5741 30.92C92.2675 30.92 91.9208 31.0133 91.5341 31.2C91.1475 31.3867 90.8141 31.72 90.5341 32.2C90.2541 32.6667 90.1141 33.3467 90.1141 34.24C90.1141 35 90.2275 35.6133 90.4541 36.08C90.6808 36.5333 90.9541 36.88 91.2741 37.12C91.6075 37.36 91.9408 37.5267 92.2741 37.62C92.6208 37.7 92.9008 37.74 93.1141 37.74ZM102.371 38.8C101.638 38.8 100.998 38.62 100.451 38.26C99.9047 37.9 99.478 37.3933 99.1713 36.74C98.8647 36.0733 98.7113 35.3067 98.7113 34.44C98.7113 33.6667 98.8847 32.9667 99.2313 32.34C99.5913 31.7 100.065 31.1867 100.651 30.8C101.238 30.4133 101.878 30.22 102.571 30.22C103.105 30.22 103.578 30.3267 103.991 30.54C104.405 30.7533 104.725 31.0533 104.951 31.44C105.191 31.8133 105.311 32.2467 105.311 32.74C105.311 33.1533 105.111 33.36 104.711 33.36H100.491C100.305 33.36 100.171 33.4133 100.091 33.52C100.025 33.6133 99.9913 33.8067 99.9913 34.1C99.9913 34.74 100.131 35.3267 100.411 35.86C100.691 36.38 101.065 36.8 101.531 37.12C101.998 37.4267 102.511 37.58 103.071 37.58C103.471 37.58 103.831 37.5067 104.151 37.36C104.485 37.2 104.778 36.9733 105.031 36.68C105.085 36.6133 105.125 36.5733 105.151 36.56C105.178 36.5333 105.211 36.52 105.251 36.52C105.358 36.52 105.411 36.5867 105.411 36.72C105.411 36.9733 105.291 37.2533 105.051 37.56C104.851 37.8133 104.611 38.0333 104.331 38.22C104.051 38.4067 103.745 38.5467 103.411 38.64C103.078 38.7467 102.731 38.8 102.371 38.8ZM100.531 32.74H102.351C102.671 32.74 102.945 32.7333 103.171 32.72C103.398 32.7067 103.618 32.68 103.831 32.64C103.898 32.6267 103.938 32.5867 103.951 32.52C103.978 32.44 103.991 32.3333 103.991 32.2C103.991 31.8133 103.818 31.4867 103.471 31.22C103.138 30.94 102.738 30.8 102.271 30.8C101.965 30.8 101.658 30.8933 101.351 31.08C101.045 31.2533 100.791 31.4733 100.591 31.74C100.391 32.0067 100.291 32.2733 100.291 32.54C100.291 32.6733 100.371 32.74 100.531 32.74ZM106.784 38.56C106.678 38.56 106.584 38.5467 106.504 38.52C106.424 38.4933 106.384 38.4333 106.384 38.34C106.384 38.2467 106.424 38.18 106.504 38.14C106.598 38.1 106.711 38.06 106.844 38.02C107.031 37.9533 107.218 37.88 107.404 37.8C107.604 37.7067 107.704 37.5267 107.704 37.26V32.96C107.704 32.6 107.664 32.2867 107.584 32.02C107.504 31.74 107.291 31.5733 106.944 31.52C106.891 31.5067 106.844 31.48 106.804 31.44C106.778 31.4 106.764 31.34 106.764 31.26C106.764 31.1267 106.818 31.0467 106.924 31.02C107.284 30.9267 107.571 30.8333 107.784 30.74C107.998 30.6333 108.184 30.52 108.344 30.4C108.518 30.2667 108.724 30.1267 108.964 29.98C108.991 29.9667 109.018 29.9533 109.044 29.94C109.071 29.9133 109.104 29.9 109.144 29.9C109.224 29.9 109.264 29.9467 109.264 30.04C109.264 30.1333 109.244 30.3267 109.204 30.62C109.178 30.9 109.164 31.1333 109.164 31.32C109.164 31.4533 109.178 31.5333 109.204 31.56H109.244C109.551 31.2667 109.951 30.9733 110.444 30.68C110.951 30.3733 111.591 30.22 112.364 30.22C112.844 30.22 113.244 30.3267 113.564 30.54C113.884 30.74 114.151 31.0933 114.364 31.6H114.424C114.851 31.2133 115.338 30.8867 115.884 30.62C116.431 30.3533 117.031 30.22 117.684 30.22C118.124 30.22 118.491 30.3533 118.784 30.62C119.078 30.8867 119.298 31.2333 119.444 31.66C119.604 32.0867 119.684 32.5333 119.684 33V37.26C119.684 37.5267 119.778 37.7067 119.964 37.8C120.151 37.88 120.344 37.9533 120.544 38.02C120.678 38.06 120.784 38.1 120.864 38.14C120.958 38.18 121.004 38.2467 121.004 38.34C121.004 38.42 120.971 38.4733 120.904 38.5C120.851 38.54 120.751 38.56 120.604 38.56C120.338 38.56 120.131 38.5467 119.984 38.52C119.838 38.5067 119.698 38.4933 119.564 38.48C119.444 38.4667 119.264 38.46 119.024 38.46C118.798 38.46 118.611 38.4667 118.464 38.48C118.318 38.4933 118.164 38.5067 118.004 38.52C117.844 38.5467 117.631 38.56 117.364 38.56C117.244 38.56 117.144 38.54 117.064 38.5C116.998 38.4733 116.964 38.42 116.964 38.34C116.964 38.2333 117.004 38.16 117.084 38.12C117.178 38.08 117.291 38.0467 117.424 38.02C117.638 37.9667 117.831 37.8933 118.004 37.8C118.191 37.7067 118.284 37.5267 118.284 37.26V33.06C118.284 32.74 118.211 32.44 118.064 32.16C117.918 31.8667 117.724 31.6267 117.484 31.44C117.244 31.2533 116.978 31.16 116.684 31.16C116.351 31.16 116.038 31.2 115.744 31.28C115.464 31.36 115.198 31.5 114.944 31.7C114.571 31.9933 114.384 32.4733 114.384 33.14V37.26C114.384 37.5267 114.484 37.7067 114.684 37.8C114.884 37.8933 115.084 37.9667 115.284 38.02C115.418 38.0467 115.524 38.0867 115.604 38.14C115.698 38.18 115.744 38.2467 115.744 38.34C115.744 38.42 115.711 38.4733 115.644 38.5C115.578 38.54 115.478 38.56 115.344 38.56C115.078 38.56 114.864 38.5467 114.704 38.52C114.558 38.5067 114.411 38.4933 114.264 38.48C114.131 38.4667 113.944 38.46 113.704 38.46C113.478 38.46 113.291 38.4667 113.144 38.48C112.998 38.4933 112.844 38.5067 112.684 38.52C112.524 38.5467 112.311 38.56 112.044 38.56C111.938 38.56 111.844 38.54 111.764 38.5C111.684 38.4733 111.644 38.42 111.644 38.34C111.644 38.2333 111.691 38.1667 111.784 38.14C111.891 38.1 111.998 38.06 112.104 38.02C112.304 37.9533 112.498 37.88 112.684 37.8C112.884 37.7067 112.984 37.5267 112.984 37.26V33.06C112.984 32.74 112.911 32.44 112.764 32.16C112.618 31.8667 112.424 31.6267 112.184 31.44C111.944 31.2533 111.678 31.16 111.384 31.16C111.051 31.16 110.738 31.2 110.444 31.28C110.164 31.36 109.898 31.5 109.644 31.7C109.284 31.9667 109.104 32.4467 109.104 33.14V37.26C109.104 37.5267 109.198 37.7067 109.384 37.8C109.571 37.88 109.764 37.9533 109.964 38.02C110.071 38.06 110.171 38.1 110.264 38.14C110.371 38.1667 110.424 38.2333 110.424 38.34C110.424 38.42 110.384 38.4733 110.304 38.5C110.238 38.54 110.144 38.56 110.024 38.56C109.758 38.56 109.544 38.5467 109.384 38.52C109.238 38.5067 109.098 38.4933 108.964 38.48C108.831 38.4667 108.644 38.46 108.404 38.46C108.178 38.46 107.991 38.4667 107.844 38.48C107.711 38.4933 107.564 38.5067 107.404 38.52C107.258 38.5467 107.051 38.56 106.784 38.56ZM121.95 44.2C121.697 44.2 121.463 44.1333 121.25 44C121.037 43.88 120.93 43.6733 120.93 43.38C120.93 43.14 120.983 42.9267 121.09 42.74C121.21 42.5667 121.377 42.48 121.59 42.48C121.737 42.48 121.877 42.5 122.01 42.54C122.157 42.58 122.283 42.6 122.39 42.6C122.47 42.6 122.537 42.58 122.59 42.54C122.657 42.5133 122.717 42.46 122.77 42.38C122.917 42.14 123.083 41.84 123.27 41.48C123.47 41.12 123.67 40.7133 123.87 40.26C124.083 39.8067 124.283 39.3267 124.47 38.82C124.51 38.7 124.53 38.5467 124.53 38.36C124.53 38.2533 124.523 38.1533 124.51 38.06C124.497 37.9533 124.477 37.86 124.45 37.78L122.13 31.92C122.037 31.68 121.91 31.4733 121.75 31.3C121.603 31.1133 121.43 30.9933 121.23 30.94C121.123 30.9 121.017 30.8533 120.91 30.8C120.817 30.7467 120.77 30.6733 120.77 30.58C120.77 30.5 120.817 30.4533 120.91 30.44C121.017 30.4133 121.103 30.4 121.17 30.4C121.437 30.4 121.63 30.4067 121.75 30.42C121.883 30.4333 122.003 30.4533 122.11 30.48C122.23 30.4933 122.403 30.5 122.63 30.5C122.87 30.5 123.05 30.4933 123.17 30.48C123.29 30.4533 123.417 30.4333 123.55 30.42C123.683 30.4067 123.883 30.4 124.15 30.4C124.23 30.4 124.317 30.42 124.41 30.46C124.503 30.4867 124.55 30.54 124.55 30.62C124.55 30.7133 124.477 30.8067 124.33 30.9C124.197 30.98 124.077 31.0333 123.97 31.06C123.837 31.1 123.737 31.1733 123.67 31.28C123.603 31.3733 123.57 31.5133 123.57 31.7C123.57 31.78 123.59 31.88 123.63 32C123.67 32.1067 123.703 32.1933 123.73 32.26L125.35 36.26C125.377 36.34 125.417 36.38 125.47 36.38C125.51 36.38 125.543 36.34 125.57 36.26L126.95 32.6C126.99 32.5067 127.023 32.3867 127.05 32.24C127.09 32.08 127.11 31.9533 127.11 31.86C127.11 31.6067 127.07 31.4333 126.99 31.34C126.923 31.2333 126.83 31.1533 126.71 31.1C126.603 31.0467 126.477 30.98 126.33 30.9C126.197 30.8067 126.13 30.7133 126.13 30.62C126.13 30.54 126.177 30.4867 126.27 30.46C126.377 30.42 126.463 30.4 126.53 30.4C126.717 30.4 126.903 30.42 127.09 30.46C127.29 30.4867 127.577 30.5 127.95 30.5C128.203 30.5 128.383 30.4933 128.49 30.48C128.61 30.4533 128.71 30.4333 128.79 30.42C128.87 30.4067 128.983 30.4 129.13 30.4C129.197 30.4 129.277 30.4133 129.37 30.44C129.477 30.4533 129.53 30.5 129.53 30.58C129.53 30.6733 129.477 30.7467 129.37 30.8C129.277 30.8533 129.177 30.9 129.07 30.94C128.87 30.9933 128.657 31.1533 128.43 31.42C128.203 31.6733 128.023 31.96 127.89 32.28L125.17 38.76C125.157 38.8 125.083 38.9733 124.95 39.28C124.83 39.5867 124.677 39.9667 124.49 40.42C124.303 40.8733 124.097 41.36 123.87 41.88C123.657 42.4 123.45 42.9 123.25 43.38C123.13 43.6467 122.957 43.8467 122.73 43.98C122.503 44.1267 122.243 44.2 121.95 44.2Z" fill="#F37F2F"/>
</svg>
