<svg width="20" height="20" viewBox="0 0 20 20" fill="none" xmlns="http://www.w3.org/2000/svg">
<path opacity="0.6" d="M14.8843 3.11485H11.9413C11.2081 3.11969 10.512 2.79355 10.0474 2.22751L9.0782 0.887624C8.62137 0.316613 7.9253 -0.0110553 7.19321 0.000284957H5.11261C1.37819 0.000284957 1.05022e-05 2.19201 1.05022e-05 5.91884V9.94736C-0.00463617 10.3904 19.9956 10.3898 19.9969 9.94736V8.77607C20.0147 5.04924 18.6721 3.11485 14.8843 3.11485Z" fill="#E77240"/>
<path fill-rule="evenodd" clip-rule="evenodd" d="M18.8321 4.54573C19.1521 4.91981 19.3993 5.35013 19.5612 5.81463C19.8798 6.76931 20.0273 7.77256 19.9969 8.77834V14.0314C19.9956 14.4739 19.963 14.9157 19.8991 15.3535C19.7775 16.1263 19.5057 16.8678 19.0989 17.5364C18.9119 17.8593 18.6849 18.1575 18.4231 18.4237C17.2383 19.5111 15.665 20.0771 14.0574 19.9943H5.93061C4.32049 20.0765 2.74462 19.5108 1.55601 18.4237C1.2974 18.1569 1.07337 17.8588 0.889149 17.5364C0.484751 16.8683 0.21869 16.126 0.1067 15.3535C0.0354894 14.9164 -0.000192693 14.4742 9.42692e-07 14.0314V8.77834C-0.000172448 8.33962 0.0235732 7.90122 0.0711337 7.46508C0.0811349 7.38856 0.096136 7.31328 0.110982 7.23879C0.135731 7.1146 0.160048 6.99258 0.160048 6.87056C0.250307 6.34424 0.414959 5.83336 0.649079 5.35321C1.34261 3.87135 2.76525 3.11712 5.09481 3.11712H14.8754C16.1802 3.0162 17.4753 3.409 18.5032 4.21742C18.6215 4.3178 18.7316 4.42759 18.8321 4.54573ZM4.97033 13.5434H15.0355H15.0533C15.2741 13.5529 15.4896 13.4739 15.6517 13.3238C15.8137 13.1738 15.9088 12.9652 15.9157 12.7447C15.9282 12.5509 15.8644 12.3599 15.7379 12.2123C15.5924 12.014 15.3618 11.8957 15.1155 11.8929H4.97033C4.51365 11.8929 4.14343 12.2624 4.14343 12.7181C4.14343 13.1739 4.51365 13.5434 4.97033 13.5434Z" fill="#F38744"/>
</svg>
