<svg width="18" height="18" viewBox="0 0 18 18" fill="none" xmlns="http://www.w3.org/2000/svg">
<path d="M17.125 6.49981V7.25481C17.125 7.59335 17.0334 7.92557 16.8598 8.21622C16.6862 8.50687 16.4372 8.74511 16.1392 8.90565L10.7408 11.8123M0.875 6.49981V7.25481C0.874987 7.59335 0.966627 7.92557 1.1402 8.21622C1.31377 8.50687 1.56279 8.74511 1.86083 8.90565L7.25917 11.8123M7.25917 11.8123L8.11083 11.354C8.38409 11.2068 8.68962 11.1297 9 11.1297C9.31038 11.1297 9.61591 11.2068 9.88917 11.354L10.7417 11.8123L14.625 13.904M7.25917 11.8123L3.375 13.904M17.125 15.2498C17.125 15.7471 16.9275 16.224 16.5758 16.5756C16.2242 16.9273 15.7473 17.1248 15.25 17.1248H2.75C2.25272 17.1248 1.77581 16.9273 1.42417 16.5756C1.07254 16.224 0.875 15.7471 0.875 15.2498V6.36981C0.875137 6.03142 0.966849 5.69938 1.14041 5.40888C1.31397 5.11839 1.56291 4.88029 1.86083 4.71981L8.11083 1.35315C8.38409 1.20596 8.68962 1.12891 9 1.12891C9.31038 1.12891 9.61591 1.20596 9.88917 1.35315L16.1392 4.71981C16.4371 4.88029 16.686 5.11839 16.8596 5.40888C17.0332 5.69938 17.1249 6.03142 17.125 6.36981V15.2498Z" stroke="#FCFCFD" stroke-width="1.5" stroke-linecap="round" stroke-linejoin="round"/>
</svg>
