<svg width="18" height="18" viewBox="0 0 18 18" fill="none" xmlns="http://www.w3.org/2000/svg">
<path d="M8.4375 3.39976C7.26233 2.64703 5.89557 2.24794 4.5 2.25001C3.66974 2.24916 2.84542 2.38993 2.0625 2.66626C1.95284 2.70503 1.8579 2.77684 1.79074 2.8718C1.72359 2.96676 1.68752 3.0802 1.6875 3.19651V13.884C1.68751 13.974 1.70911 14.0627 1.75049 14.1426C1.79186 14.2225 1.8518 14.2913 1.92527 14.3432C1.99875 14.3952 2.08361 14.4287 2.17274 14.4411C2.26187 14.4535 2.35266 14.4443 2.4375 14.4143C3.1 14.1806 3.7975 14.0616 4.5 14.0625C5.99625 14.0625 7.36725 14.5928 8.4375 15.477V3.39976ZM9.5625 15.477C10.6698 14.5606 12.0627 14.0602 13.5 14.0625C14.2245 14.0625 14.9175 14.187 15.5625 14.415C15.6474 14.445 15.7383 14.4542 15.8274 14.4418C15.9166 14.4294 16.0015 14.3958 16.075 14.3438C16.1485 14.2917 16.2084 14.2228 16.2498 14.1428C16.2911 14.0628 16.3126 13.9741 16.3125 13.884V3.19651C16.3125 3.0802 16.2764 2.96676 16.2093 2.8718C16.1421 2.77684 16.0472 2.70503 15.9375 2.66626C15.1546 2.38993 14.3303 2.24916 13.5 2.25001C12.1044 2.24794 10.7377 2.64703 9.5625 3.39976V15.477Z" fill="#475467"/>
</svg>
