<svg width="18" height="18" viewBox="0 0 18 18" fill="none" xmlns="http://www.w3.org/2000/svg">
<path d="M8.32501 11.925C8.32501 12.104 8.39612 12.2757 8.52271 12.4023C8.6493 12.5289 8.82099 12.6 9.00001 12.6C9.17903 12.6 9.35072 12.5289 9.4773 12.4023C9.60389 12.2757 9.67501 12.104 9.67501 11.925V4.17241L12.3345 6.98851C12.4584 7.11425 12.6267 7.18643 12.8033 7.18956C12.9798 7.1927 13.1505 7.12654 13.2788 7.00528C13.4072 6.88402 13.4829 6.7173 13.4897 6.54088C13.4966 6.36445 13.434 6.19237 13.3155 6.06151L9.49051 2.01151C9.42742 1.94478 9.35138 1.89163 9.26704 1.8553C9.1827 1.81897 9.09184 1.80023 9.00001 1.80023C8.90818 1.80023 8.81731 1.81897 8.73297 1.8553C8.64863 1.89163 8.57259 1.94478 8.50951 2.01151L4.68451 6.06151C4.62144 6.1255 4.57178 6.20143 4.53844 6.28485C4.5051 6.36827 4.48875 6.45751 4.49034 6.54734C4.49194 6.63716 4.51145 6.72577 4.54773 6.80796C4.58401 6.89014 4.63633 6.96426 4.70163 7.02597C4.76693 7.08767 4.84389 7.13572 4.928 7.16729C5.0121 7.19887 5.10167 7.21334 5.19144 7.20985C5.28121 7.20636 5.36939 7.18499 5.45079 7.14698C5.5322 7.10897 5.60519 7.0551 5.66551 6.98851L8.32501 4.17241V11.925Z" fill="#F9FAFB"/>
<path d="M3.15005 11.475C3.15005 11.296 3.07893 11.1243 2.95235 10.9977C2.82576 10.8711 2.65407 10.8 2.47505 10.8C2.29603 10.8 2.12434 10.8711 1.99775 10.9977C1.87116 11.1243 1.80005 11.296 1.80005 11.475V13.725C1.80005 14.3814 2.06081 15.0109 2.52496 15.4751C2.98911 15.9392 3.61864 16.2 4.27505 16.2H13.725C14.3815 16.2 15.011 15.9392 15.4751 15.4751C15.9393 15.0109 16.2 14.3814 16.2 13.725V11.475C16.2 11.296 16.1289 11.1243 16.0023 10.9977C15.8758 10.8711 15.7041 10.8 15.525 10.8C15.346 10.8 15.1743 10.8711 15.0478 10.9977C14.9212 11.1243 14.85 11.296 14.85 11.475V13.725C14.85 14.346 14.346 14.85 13.725 14.85H4.27505C3.65405 14.85 3.15005 14.346 3.15005 13.725V11.475Z" fill="#F9FAFB"/>
</svg>
