<svg width="162" height="217" viewBox="0 0 162 217" fill="none" xmlns="http://www.w3.org/2000/svg">
<g clip-path="url(#clip0_4458_310643)">
<path d="M91.0352 40.0477C103.832 46.1667 124.987 32.8738 128.376 32.2492C138.751 25.0415 132.017 3.75587 124.5 2.75995C117.084 -4.40558 96.3407 3.65459 93.6249 12.4237C90.909 21.1928 96.7779 37.0937 91.0352 40.0477Z" fill="#4F6DDB"/>
<mask id="mask0_4458_310643" style="mask-type:luminance" maskUnits="userSpaceOnUse" x="91" y="0" width="43" height="42">
<path d="M91.0352 40.0477C103.832 46.1667 124.987 32.8738 128.376 32.2492C138.751 25.0415 132.017 3.75587 124.5 2.75995C117.084 -4.40558 96.3407 3.65459 93.6249 12.4237C90.909 21.1928 96.7779 37.0937 91.0352 40.0477Z" fill="white"/>
</mask>
<g mask="url(#mask0_4458_310643)">
<path d="M86.4106 26.0383L85.6287 25.7175C90.7492 13.0576 103.504 16.2226 106.01 16.9822L105.859 17.8262H105.775C102.386 16.7712 91.136 14.3742 86.4106 26.0383Z" fill="#4762C4"/>
<path d="M107.757 17.945C107.698 17.3964 106.227 4.50859 93.3708 3.76587L93.4213 2.92188C107.009 3.70679 108.556 17.7171 108.598 17.8606L107.757 17.945Z" fill="#4762C4"/>
<path d="M91.1531 28.7146L90.3123 28.6049C91.2287 21.3549 95.9037 20.5616 98.6195 20.7304C98.6195 20.7304 101.983 21.0258 101.983 21.8529H101.546L101.276 22.1736C99.268 21.3703 97.0293 21.3703 95.0208 22.1736C92.8683 23.1949 91.5735 25.3892 91.1531 28.7146Z" fill="#4762C4"/>
</g>
<path d="M137.036 217.007H8.30726C6.10472 217.005 3.99303 216.126 2.4356 214.562C0.878165 212.999 0.00222591 210.879 0 208.668V121.163C0.00222591 118.952 0.878165 116.832 2.4356 115.269C3.99303 113.706 6.10472 112.826 8.30726 112.824H137.036C139.239 112.826 141.35 113.706 142.908 115.269C144.465 116.832 145.341 118.952 145.343 121.163V208.668C145.341 210.879 144.465 212.999 142.908 214.562C141.35 216.126 139.239 217.005 137.036 217.007ZM8.30726 114.512C6.55072 114.514 4.86676 115.216 3.62469 116.463C2.38263 117.709 1.68386 119.4 1.68163 121.163V208.668C1.68386 210.432 2.38263 212.122 3.62469 213.369C4.86676 214.616 6.55072 215.317 8.30726 215.319H137.036C138.793 215.317 140.477 214.616 141.719 213.369C142.961 212.122 143.66 210.432 143.662 208.668V121.163C143.66 119.4 142.961 117.709 141.719 116.463C140.477 115.216 138.793 114.514 137.036 114.512H8.30726Z" fill="#F6EECA"/>
<path d="M39.1381 134.484H22.7422V183.386H39.1381V134.484Z" fill="#029D41"/>
<path d="M45.8668 133.637H16.6484V135.325H45.8668V133.637Z" fill="#029D41"/>
<path d="M79.2904 176.499L71.0925 183.504L62.8945 176.499V134.484H79.2904V176.499Z" fill="#FFC61A"/>
<path d="M86.0155 133.637H56.7971V135.325H86.0155V133.637Z" fill="#FFC61A"/>
<path d="M119.228 183.504L111.03 176.499L102.832 183.386V134.484H119.228V183.504Z" fill="#4F6DDB"/>
<path d="M125.953 133.637H96.7344V135.325H125.953V133.637Z" fill="#4F6DDB"/>
<path d="M32.4218 135.789C32.4419 129.39 27.2895 124.185 20.9138 124.165C14.538 124.145 9.35317 129.317 9.33314 135.717C9.31311 142.117 14.4655 147.321 20.8412 147.341C27.217 147.361 32.4018 142.189 32.4218 135.789Z" fill="#FE3737"/>
<path d="M19.9868 140.575C19.8435 140.576 19.7021 140.541 19.5747 140.475C19.4474 140.409 19.3378 140.313 19.2553 140.195L16.6572 136.566C16.5569 136.426 16.516 136.252 16.5436 136.082C16.5712 135.912 16.665 135.76 16.8043 135.659C16.9437 135.558 17.1172 135.517 17.2868 135.545C17.4563 135.573 17.6079 135.667 17.7082 135.807L19.928 138.904L24.2498 129.941C24.333 129.801 24.4652 129.698 24.6203 129.652C24.7754 129.606 24.9422 129.619 25.0879 129.69C25.2335 129.761 25.3473 129.884 25.407 130.035C25.4666 130.186 25.4677 130.354 25.4101 130.506L20.8276 140.035C20.7598 140.177 20.6556 140.299 20.5257 140.388C20.3957 140.477 20.2446 140.53 20.0877 140.541L19.9868 140.575Z" fill="white"/>
<path d="M76.125 135.789C76.145 129.39 70.9926 124.185 64.6169 124.165C58.2411 124.145 53.0563 129.317 53.0363 135.717C53.0162 142.117 58.1686 147.321 64.5443 147.341C70.9201 147.361 76.1049 142.189 76.125 135.789Z" fill="#FE3737"/>
<path d="M63.7095 140.574C63.5661 140.575 63.4247 140.54 63.2974 140.474C63.1701 140.408 63.0605 140.312 62.978 140.194L60.3798 136.565C60.3302 136.496 60.2946 136.418 60.2751 136.334C60.2556 136.251 60.2526 136.165 60.2662 136.081C60.2799 135.997 60.3099 135.916 60.3547 135.843C60.3994 135.771 60.458 135.708 60.527 135.658C60.596 135.608 60.6741 135.572 60.7569 135.553C60.8397 135.533 60.9255 135.53 61.0094 135.544C61.0933 135.558 61.1738 135.588 61.2461 135.633C61.3184 135.678 61.3812 135.736 61.4309 135.806L63.6506 138.903L67.9136 129.915C67.9455 129.83 67.9946 129.754 68.0577 129.69C68.1208 129.625 68.1965 129.575 68.28 129.542C68.3635 129.509 68.453 129.493 68.5427 129.497C68.6325 129.5 68.7205 129.522 68.8013 129.561C68.8821 129.601 68.9539 129.657 69.012 129.725C69.0702 129.794 69.1134 129.874 69.1391 129.96C69.1647 130.047 69.1721 130.138 69.1609 130.227C69.1497 130.317 69.1201 130.403 69.0739 130.48L64.4746 140.034C64.4068 140.177 64.3026 140.298 64.1726 140.387C64.0427 140.476 63.8916 140.529 63.7347 140.541L63.7095 140.574Z" fill="white"/>
<path d="M119.816 135.789C119.836 129.39 114.684 124.185 108.308 124.165C101.933 124.145 96.7477 129.317 96.7277 135.717C96.7076 142.117 101.86 147.321 108.236 147.341C114.612 147.361 119.796 142.189 119.816 135.789Z" fill="#FE3737"/>
<path d="M107.381 140.574C107.238 140.575 107.097 140.54 106.969 140.474C106.842 140.408 106.732 140.312 106.65 140.194L104.052 136.565C103.951 136.425 103.911 136.251 103.938 136.081C103.966 135.911 104.059 135.759 104.199 135.658C104.338 135.557 104.512 135.516 104.681 135.544C104.851 135.572 105.002 135.666 105.103 135.806L107.322 138.903L111.636 129.915C111.668 129.83 111.717 129.754 111.78 129.69C111.843 129.625 111.919 129.575 112.002 129.542C112.086 129.509 112.175 129.493 112.265 129.497C112.355 129.5 112.443 129.522 112.524 129.561C112.604 129.601 112.676 129.657 112.734 129.725C112.792 129.794 112.836 129.874 112.861 129.96C112.887 130.047 112.894 130.138 112.883 130.227C112.872 130.317 112.842 130.403 112.796 130.48L108.197 140.034C108.129 140.177 108.025 140.298 107.895 140.387C107.765 140.476 107.614 140.529 107.457 140.541L107.381 140.574Z" fill="white"/>
<path d="M115.216 39.9808C116.183 41.2806 118.024 42.5128 116.763 46.4712C120.858 48.7584 128.905 58.1521 128.905 58.1521L135.244 40.2847C134.908 40.023 128.375 32.2583 128.375 32.2583L119.26 35.2291C119.26 35.2291 116.301 24.2572 112.887 18.5349C109.473 12.8126 102.907 16.3152 101.208 18.4505C100.098 19.8431 99.6442 23.7508 100.729 25.3544C101.354 26.4643 101.818 27.6579 102.108 28.8992C102.578 30.5977 102.948 32.3224 103.218 34.0644C103.68 37.0184 109.179 43.5172 115.216 39.9808Z" fill="#FEC2A0"/>
<path d="M91.9414 70.9373L94.405 72.4987L98.2643 96.7467C98.2643 96.7467 138.153 102.359 137.572 100.68C137.572 100.68 164.176 57.5769 159.039 53.6101C155.078 50.5717 136.992 41.7941 134.966 38.9414L133.789 40.8742C129.534 48.5461 120.865 47.9975 115.77 42.4187L115.669 42.3174C115.624 42.4179 115.562 42.5094 115.484 42.5875C110.843 46.5205 95.7419 57.0789 91.9414 70.9373Z" fill="#029D41"/>
<path d="M107.48 22.7875C107.418 22.7882 107.359 22.7673 107.311 22.7284C107.287 22.7041 107.268 22.6752 107.254 22.6433C107.241 22.6114 107.234 22.5772 107.234 22.5427C107.234 22.5082 107.241 22.474 107.254 22.4422C107.268 22.4103 107.287 22.3814 107.311 22.357C107.311 22.3064 108.362 21.1332 111.364 21.513C111.433 21.5235 111.494 21.5601 111.537 21.6151C111.579 21.6701 111.598 21.7393 111.591 21.8084C111.587 21.8429 111.576 21.8762 111.559 21.9064C111.542 21.9366 111.519 21.9631 111.492 21.9843C111.464 22.0055 111.433 22.021 111.399 22.03C111.366 22.0389 111.331 22.0411 111.297 22.0363C108.606 21.6987 107.723 22.6862 107.715 22.6946C107.686 22.7283 107.65 22.7544 107.609 22.7706C107.568 22.7868 107.523 22.7926 107.48 22.7875Z" fill="#303134"/>
<path d="M102.278 24.7357C102.227 24.7359 102.177 24.7212 102.135 24.6935C101.857 24.5093 101.543 24.3849 101.215 24.3283C100.886 24.2716 100.55 24.2839 100.226 24.3643C100.194 24.377 100.159 24.3832 100.124 24.3825C100.089 24.3818 100.054 24.3741 100.022 24.36C99.9905 24.3459 99.9616 24.3256 99.9374 24.3003C99.9132 24.2749 99.8942 24.2451 99.8815 24.2124C99.8688 24.1797 99.8626 24.1448 99.8633 24.1097C99.8641 24.0746 99.8717 24.04 99.8857 24.0079C99.8998 23.9758 99.92 23.9467 99.9452 23.9224C99.9705 23.8981 100 23.8791 100.033 23.8663C100.436 23.7528 100.859 23.728 101.272 23.7935C101.686 23.8591 102.08 24.0135 102.429 24.2461C102.481 24.2751 102.521 24.3207 102.543 24.3755C102.566 24.4304 102.569 24.4912 102.552 24.5481C102.535 24.6049 102.5 24.6545 102.452 24.6885C102.404 24.7226 102.345 24.7392 102.286 24.7357H102.278Z" fill="#303134"/>
<path d="M110.662 27.7335C111.163 27.5763 111.311 26.6194 110.992 25.5961C110.674 24.5729 110.009 23.8708 109.508 24.0279C109.008 24.1851 108.86 25.142 109.179 26.1653C109.497 27.1885 110.162 27.8906 110.662 27.7335Z" fill="#303134"/>
<path d="M103.334 29.6566C103.742 29.5286 103.861 28.7468 103.601 27.9104C103.34 27.074 102.798 26.4997 102.391 26.6277C101.983 26.7556 101.864 27.5374 102.124 28.3738C102.384 29.2102 102.926 29.7845 103.334 29.6566Z" fill="#303134"/>
<path d="M106.211 33.505C105.951 33.5046 105.699 33.4153 105.496 33.2518C104.698 32.6272 104.555 30.9392 105.194 29.7745C105.21 29.744 105.233 29.7171 105.26 29.6953C105.286 29.6735 105.317 29.6573 105.351 29.6475C105.384 29.6377 105.419 29.6345 105.453 29.6382C105.487 29.6419 105.521 29.6524 105.551 29.669C105.581 29.6856 105.608 29.7081 105.63 29.7351C105.652 29.7621 105.668 29.7932 105.678 29.8265C105.687 29.8598 105.69 29.8947 105.687 29.9292C105.683 29.9638 105.673 29.9972 105.656 30.0277C105.101 31.0321 105.286 32.3993 105.824 32.8213C106.362 33.2433 106.816 32.8213 107.212 32.4246C107.265 32.3904 107.328 32.3759 107.39 32.3837C107.453 32.3915 107.511 32.4211 107.554 32.4673C107.597 32.5135 107.622 32.5734 107.626 32.6366C107.629 32.6997 107.611 32.7621 107.573 32.8129C107.224 33.2102 106.737 33.4579 106.211 33.505Z" fill="#303134"/>
<path d="M107.733 35.4915C107.671 35.4803 107.615 35.4476 107.574 35.399C107.534 35.3504 107.512 35.289 107.512 35.2256C107.512 35.1622 107.534 35.1009 107.574 35.0523C107.615 35.0037 107.671 34.9709 107.733 34.9598C108.23 34.9966 108.728 34.9277 109.197 34.7575C109.665 34.5873 110.091 34.3197 110.449 33.9723C110.782 33.5566 110.939 33.0261 110.886 32.4953C110.889 32.4327 110.912 32.3728 110.954 32.3259C110.995 32.2789 111.051 32.2478 111.113 32.2378C111.174 32.2279 111.237 32.2397 111.291 32.2712C111.345 32.3028 111.386 32.3522 111.408 32.4109C111.448 32.748 111.421 33.0899 111.327 33.4161C111.233 33.7424 111.075 34.0463 110.861 34.3099C110.458 34.7207 109.972 35.0397 109.435 35.245C108.898 35.4504 108.323 35.5373 107.75 35.4999L107.733 35.4915Z" fill="#303134"/>
<path d="M115.219 39.9815C115.219 39.9815 117.926 37.9644 118.078 35.2383C119.171 38.7409 116.682 41.9227 116.682 41.9227L115.219 39.9815Z" fill="#F99979"/>
<path d="M110.796 30.5964C109.802 30.6005 108.843 30.2277 108.111 29.5524C107.379 28.8771 106.928 27.9492 106.849 26.9545C106.769 25.9598 107.067 24.9717 107.682 24.1879C108.298 23.4041 109.185 22.8826 110.167 22.7277C111.149 22.5728 112.153 22.7959 112.979 23.3525C113.804 23.909 114.389 24.7578 114.617 25.7291C114.846 26.7003 114.7 27.7223 114.21 28.5904C113.719 29.4584 112.921 30.1086 111.973 30.4107C111.592 30.5324 111.195 30.5951 110.796 30.5964ZM110.796 23.262C110.088 23.2634 109.399 23.489 108.826 23.9066C108.253 24.3242 107.826 24.9125 107.606 25.5878C107.386 26.2631 107.384 26.9909 107.6 27.6675C107.815 28.3442 108.239 28.9353 108.809 29.3566C109.379 29.7779 110.066 30.0079 110.774 30.0139C111.482 30.0199 112.174 29.8015 112.751 29.39C113.328 28.9784 113.761 28.3946 113.988 27.7217C114.215 27.0487 114.225 26.321 114.016 25.6421C113.804 24.9517 113.376 24.3479 112.797 23.9194C112.217 23.491 111.516 23.2606 110.796 23.262Z" fill="white"/>
<path d="M102.527 32.9411C101.905 32.9319 101.299 32.738 100.787 32.384C99.9653 31.8127 99.355 30.9849 99.0509 30.0293C98.7468 29.0738 98.7658 28.0442 99.1051 27.1006C99.2522 26.6718 99.4976 26.2837 99.8216 25.9676C100.146 25.6515 100.539 25.4162 100.97 25.2807C101.401 25.1452 101.858 25.1132 102.304 25.1875C102.75 25.2617 103.172 25.44 103.536 25.708C104.349 26.2804 104.942 27.1141 105.218 28.0712C105.865 30.1474 104.999 32.2912 103.284 32.806C103.039 32.8863 102.784 32.9317 102.527 32.9411ZM101.829 25.7165C101.607 25.7168 101.386 25.7509 101.173 25.8177C100.825 25.9361 100.508 26.132 100.246 26.3907C99.9842 26.6494 99.7838 26.9642 99.66 27.3116C99.3653 28.1319 99.3464 29.0265 99.606 29.8587C99.8657 30.6908 100.39 31.4148 101.098 31.9198C101.397 32.135 101.741 32.2794 102.103 32.3422C102.466 32.4051 102.838 32.3847 103.191 32.2827C104.612 31.8354 105.319 30.0208 104.764 28.24C104.517 27.4028 103.992 26.6759 103.275 26.1806C102.852 25.8873 102.352 25.7259 101.838 25.7165H101.829Z" fill="white"/>
<path d="M107.039 26.47L104.719 27.1953L104.884 27.7272L107.204 27.0018L107.039 26.47Z" fill="white"/>
<path d="M121.687 18.9992L113.766 24.2344L114.071 24.6996L121.992 19.4644L121.687 18.9992Z" fill="white"/>
<path d="M128.56 45.7696L124.087 54.1337L121.203 43.2461H128.56V45.7696Z" fill="#FEC2A0"/>
<path d="M124.618 99.1265C119.573 100.553 98.7794 104.494 98.4178 104.553C98.4178 104.553 86.9407 105.305 82.9468 100.992C78.7427 96.4764 84.6957 68.7005 94.7182 54.1331C100.923 45.1445 109.012 49.1282 115.453 42.5703C117.866 50.6642 100.621 88.4753 101.31 89.4712C102 90.4671 123.928 98.8649 124.618 99.1265Z" fill="#029D41"/>
<path d="M148.025 107.07C148.025 107.07 152.027 106.639 153.759 107.627C155.491 108.614 156.138 119.662 155.987 120.658C155.836 121.654 154.356 121.35 154.356 121.35C154.356 121.35 152.817 122.895 151.43 122.245C151.279 123.342 149.227 124.482 148.025 123.393C147.714 124.439 146.578 124.237 144.661 123.832C143.298 123.447 141.97 122.945 140.693 122.329C140.541 122.254 140.411 122.141 140.314 122.002C140.218 121.862 140.159 121.699 140.143 121.53C140.127 121.361 140.155 121.19 140.223 121.035C140.291 120.879 140.398 120.744 140.533 120.641C140.9 120.34 141.362 120.181 141.836 120.194C142.929 120.346 143.989 119.856 143.989 119.173C143.989 118.489 134.664 111.729 134.664 111.729L148.025 107.07Z" fill="#FEC2A0"/>
<path d="M147.565 116.031C148.02 117.144 148.287 118.325 148.355 119.525C148.399 120.115 148.399 120.708 148.355 121.298C148.319 121.909 148.206 122.513 148.019 123.095C147.75 122.546 147.552 121.965 147.43 121.365C147.173 120.205 147.094 119.013 147.195 117.829C147.227 117.214 147.352 116.608 147.565 116.031Z" fill="#F99979"/>
<path d="M151.155 115.258C151.401 115.813 151.577 116.397 151.676 116.996C151.784 117.573 151.849 118.157 151.87 118.744C151.892 119.33 151.869 119.916 151.802 120.499C151.744 121.105 151.609 121.701 151.399 122.271C151.151 121.717 150.976 121.132 150.877 120.533C150.661 119.378 150.619 118.197 150.751 117.03C150.81 116.425 150.946 115.829 151.155 115.258Z" fill="#F99979"/>
<path d="M153.953 115.258C154.211 115.729 154.401 116.235 154.516 116.76C154.635 117.259 154.711 117.767 154.743 118.279C154.788 118.79 154.788 119.304 154.743 119.815C154.698 120.351 154.577 120.877 154.382 121.377C154.123 120.906 153.933 120.4 153.818 119.874C153.699 119.376 153.623 118.867 153.591 118.355C153.548 117.844 153.548 117.33 153.591 116.819C153.637 116.284 153.759 115.758 153.953 115.258Z" fill="#F99979"/>
<path d="M98.2758 102.707C98.2758 102.707 83.8895 104.285 81.7202 104.547C79.5509 104.809 75.8345 108.024 74.733 109.915C73.6315 111.805 75.4225 121.604 76.0699 122.448C76.7173 123.292 78.3485 122.203 78.3485 122.203C78.3485 122.203 79.1389 123.495 80.2319 121.959C80.9088 120.856 81.2371 119.573 81.1737 118.279C82.3367 116.968 83.0782 115.335 83.3009 113.595C85.7309 113.595 93.3907 113.595 94.694 113.156C96.3541 112.513 98.1297 112.225 99.907 112.312" fill="#FEC2A0"/>
<path d="M85.7364 108.621C84.9972 109.161 84.2249 109.655 83.4242 110.098C82.6338 110.537 81.8266 110.942 81.011 111.339L81.3558 110.807C81.3558 112.031 81.3558 113.263 81.2801 114.487C81.2056 115.725 81.037 116.955 80.7756 118.167C80.5144 116.955 80.3457 115.725 80.2711 114.487C80.2038 113.263 80.1618 112.031 80.1954 110.807V110.419L80.5318 110.275C81.3726 109.921 82.2134 109.609 83.0542 109.322C83.9326 109.031 84.8285 108.797 85.7364 108.621Z" fill="#F99979"/>
<path d="M82.7118 107.188C81.9214 107.88 81.0974 108.521 80.2566 109.146C79.4158 109.77 78.575 110.361 77.7342 110.935L77.9864 110.428C78.1125 111.399 78.1798 112.378 78.2723 113.357C78.3648 114.336 78.4152 115.315 78.4489 116.294C78.4825 117.273 78.5077 118.261 78.5077 119.24C78.5077 120.219 78.5077 121.215 78.39 122.202C78.1462 121.24 77.9612 120.269 77.8014 119.299C77.6417 118.328 77.4987 117.358 77.3894 116.379C77.2801 115.4 77.1876 114.429 77.0951 113.45C77.0026 112.471 76.9438 111.492 76.9102 110.513V110.192L77.1792 110.04C78.0817 109.523 78.9954 109.025 79.9203 108.546C80.7947 108.031 81.7364 107.584 82.7118 107.188Z" fill="#F99979"/>
<path d="M160.404 76.6588C154.88 104.561 149.162 109.786 145.841 112.056C143.176 113.879 100.269 114.048 100.269 114.048L97.9062 101.852C97.9062 101.852 116.102 100.865 124.526 99.1597H124.636C128.504 98.3833 131.362 97.6912 132.069 97.2776C134.448 95.7837 134.44 52.875 148.044 54.1747C151.172 54.4617 151.92 48.1739 159.74 54.1747C163.86 57.3313 161.304 72.0506 160.404 76.6588Z" fill="#029D41"/>
<path d="M134.641 95.6162L143.133 75.4531L131.328 93.0589L104.809 101.389L134.641 95.6162Z" fill="#028C3A"/>
<path d="M105.558 74.9727C105.499 75.209 102.085 91.2956 102.085 91.2956L109.022 99.1532L97.8477 92.9751L105.558 74.9727Z" fill="#028C3A"/>
</g>
<defs>
<clipPath id="clip0_4458_310643">
<rect width="162" height="217" fill="white"/>
</clipPath>
</defs>
</svg>
