<svg width="162" height="217" viewBox="0 0 162 217" fill="none" xmlns="http://www.w3.org/2000/svg">
<g clip-path="url(#clip0_4458_299782)">
<path d="M91.0352 40.0477C103.832 46.1667 124.987 32.8738 128.376 32.2492C138.751 25.0415 132.017 3.75587 124.5 2.75995C117.084 -4.40558 96.3407 3.65459 93.6249 12.4237C90.909 21.1928 96.7695 37.0937 91.0352 40.0477Z" fill="#4F6DDB"/>
<mask id="mask0_4458_299782" style="mask-type:luminance" maskUnits="userSpaceOnUse" x="91" y="0" width="43" height="42">
<path d="M91.0352 40.0477C103.832 46.1667 124.987 32.8738 128.376 32.2492C138.751 25.0415 132.017 3.75587 124.5 2.75995C117.084 -4.40558 96.3407 3.65459 93.6249 12.4237C90.909 21.1928 96.7695 37.0937 91.0352 40.0477Z" fill="white"/>
</mask>
<g mask="url(#mask0_4458_299782)">
<path d="M86.4023 26.0265L85.6204 25.7058C90.7409 13.0459 103.496 16.2109 106.002 16.9705L105.85 17.8145H105.766C102.411 16.7932 91.1193 14.3709 86.4023 26.0265Z" fill="#4762C4"/>
<path d="M107.759 17.9333C107.7 17.3847 106.229 4.49687 93.3727 3.75415L93.4231 2.91016C107.011 3.69507 108.558 17.7054 108.6 17.8489L107.759 17.9333Z" fill="#4762C4"/>
<path d="M91.1193 28.7102L90.2784 28.6089C91.2033 21.3505 95.8783 20.5656 98.5857 20.7344C98.5857 20.7344 101.949 21.0298 101.949 21.8569H101.529L101.259 22.1777C99.2509 21.3752 97.0124 21.3752 95.0038 22.1777C92.8597 23.182 91.5649 25.3848 91.1193 28.7102Z" fill="#4762C4"/>
</g>
<path d="M137.036 216.999H8.29896C6.09642 216.997 3.98473 216.118 2.4273 214.555C0.869864 212.991 -0.00607487 210.872 -0.00830078 208.661V121.155C-0.00607487 118.944 0.869864 116.825 2.4273 115.261C3.98473 113.698 6.09642 112.819 8.29896 112.816H137.028C139.23 112.819 141.342 113.698 142.9 115.261C144.457 116.825 145.333 118.944 145.335 121.155V208.661C145.333 210.87 144.458 212.988 142.902 214.552C141.347 216.115 139.237 216.995 137.036 216.999ZM8.29896 114.504C6.54241 114.507 4.85845 115.208 3.61639 116.455C2.37433 117.702 1.67556 119.392 1.67333 121.155V208.661C1.67556 210.424 2.37433 212.114 3.61639 213.361C4.85845 214.608 6.54241 215.309 8.29896 215.311H137.028C138.784 215.309 140.468 214.608 141.71 213.361C142.952 212.114 143.651 210.424 143.654 208.661V121.155C143.651 119.392 142.952 117.702 141.71 116.455C140.468 115.208 138.784 114.507 137.028 114.504H8.29896Z" fill="#F6EECA"/>
<path d="M39.1399 134.484H22.744V183.386H39.1399V134.484Z" fill="#029D41"/>
<path d="M45.8665 133.637H16.6482V135.325H45.8665V133.637Z" fill="#029D41"/>
<path d="M79.289 176.499L71.091 183.504L62.8931 176.499V134.484H79.289V176.499Z" fill="#FFC61A"/>
<path d="M86.0155 133.637H56.7971V135.325H86.0155V133.637Z" fill="#FFC61A"/>
<path d="M119.228 183.504L111.03 176.499L102.832 183.386V134.484H119.228V183.504Z" fill="#4F6DDB"/>
<path d="M125.954 133.637H96.7358V135.325H125.954V133.637Z" fill="#4F6DDB"/>
<path d="M32.4177 135.797C32.4377 129.397 27.2854 124.193 20.9096 124.173C14.5338 124.153 9.34902 129.325 9.32899 135.724C9.30896 142.124 14.4613 147.329 20.8371 147.349C27.2128 147.369 32.3976 142.197 32.4177 135.797Z" fill="#FE3737"/>
<path d="M19.9778 140.542C19.8344 140.543 19.6931 140.509 19.5657 140.442C19.4384 140.376 19.3288 140.28 19.2463 140.163L16.6482 136.542C16.5478 136.402 16.5069 136.228 16.5345 136.058C16.5621 135.887 16.6559 135.735 16.7953 135.635C16.9347 135.534 17.1082 135.493 17.2777 135.52C17.4472 135.548 17.5988 135.642 17.6992 135.782L19.9189 138.88L24.2323 129.891C24.2643 129.807 24.3134 129.73 24.3765 129.666C24.4396 129.602 24.5153 129.552 24.5988 129.518C24.6823 129.485 24.7717 129.47 24.8615 129.473C24.9512 129.476 25.0393 129.499 25.1201 129.538C25.2009 129.577 25.2726 129.633 25.3308 129.702C25.3889 129.771 25.4322 129.851 25.4578 129.937C25.4835 130.023 25.4909 130.114 25.4797 130.204C25.4685 130.293 25.4388 130.379 25.3927 130.457L20.7934 140.019C20.7248 140.161 20.6205 140.282 20.4907 140.371C20.3608 140.46 20.2101 140.513 20.0535 140.526L19.9778 140.542Z" fill="white"/>
<path d="M76.1176 135.797C76.1377 129.397 70.9853 124.193 64.6096 124.173C58.2338 124.153 53.049 129.325 53.0289 135.724C53.0089 142.124 58.1613 147.329 64.537 147.349C70.9128 147.369 76.0976 142.197 76.1176 135.797Z" fill="#FE3737"/>
<path d="M63.6749 140.541C63.5316 140.542 63.3902 140.507 63.2629 140.441C63.1355 140.375 63.0259 140.279 62.9434 140.161L60.3453 136.541C60.245 136.401 60.2041 136.227 60.2317 136.056C60.2593 135.886 60.3531 135.734 60.4924 135.633C60.6318 135.533 60.8054 135.492 60.9749 135.519C61.1444 135.547 61.296 135.641 61.3963 135.781L63.6161 138.879L67.9295 129.89C68.0127 129.751 68.1449 129.648 68.3 129.601C68.4551 129.555 68.622 129.569 68.7676 129.639C68.9132 129.71 69.027 129.834 69.0867 129.985C69.1463 130.136 69.1474 130.304 69.0898 130.455L64.4905 140.018C64.422 140.16 64.3176 140.281 64.1878 140.37C64.058 140.459 63.9073 140.512 63.7506 140.524L63.6749 140.541Z" fill="white"/>
<path d="M119.809 135.797C119.829 129.397 114.677 124.193 108.301 124.173C101.925 124.153 96.7405 129.325 96.7205 135.724C96.7004 142.124 101.853 147.329 108.229 147.349C114.604 147.369 119.789 142.197 119.809 135.797Z" fill="#FE3737"/>
<path d="M107.372 140.541C107.229 140.542 107.087 140.507 106.96 140.441C106.833 140.375 106.723 140.279 106.641 140.161L104.043 136.541C103.942 136.401 103.901 136.227 103.929 136.056C103.957 135.886 104.05 135.734 104.19 135.633C104.329 135.533 104.503 135.492 104.672 135.519C104.842 135.547 104.993 135.641 105.094 135.781L107.313 138.879L111.627 129.89C111.71 129.751 111.842 129.648 111.997 129.601C112.152 129.555 112.319 129.569 112.465 129.639C112.61 129.71 112.724 129.834 112.784 129.985C112.844 130.136 112.845 130.304 112.787 130.455L108.188 140.018C108.119 140.16 108.015 140.281 107.885 140.37C107.755 140.459 107.605 140.512 107.448 140.524L107.372 140.541Z" fill="white"/>
<path d="M115.209 39.98C116.176 41.2797 118.017 42.512 116.756 46.4703C120.85 48.7575 128.897 58.1512 128.897 58.1512L135.237 40.2838C134.901 40.0222 128.367 32.2574 128.367 32.2574L119.253 35.2283C119.253 35.2283 116.293 24.2563 112.88 18.534C109.466 12.8117 102.891 16.3058 101.209 18.4412C100.099 19.8338 99.6451 23.7415 100.73 25.3451C101.355 26.455 101.819 27.6486 102.109 28.8898C102.579 30.5884 102.949 32.3131 103.219 34.0551C103.681 37.0513 109.18 43.5248 115.209 39.98Z" fill="#FEC2A0"/>
<path d="M91.9601 70.9295L94.4237 72.4909L98.283 96.7389C98.283 96.7389 138.171 102.352 137.591 100.672C137.591 100.672 164.195 57.569 159.057 53.6023C155.097 50.5639 137.011 41.7863 134.985 38.9336L133.807 40.8663C129.553 48.5383 120.884 47.9897 115.789 42.4109L115.688 42.3096C115.643 42.4101 115.58 42.5016 115.503 42.5797C110.836 46.5211 95.7438 57.0795 91.9601 70.9295Z" fill="#029D41"/>
<path d="M107.482 22.7797C107.42 22.7804 107.361 22.7595 107.313 22.7206C107.289 22.6963 107.27 22.6673 107.256 22.6355C107.243 22.6036 107.236 22.5694 107.236 22.5349C107.236 22.5004 107.243 22.4662 107.256 22.4343C107.27 22.4025 107.289 22.3736 107.313 22.3492C107.313 22.2986 108.348 21.1254 111.366 21.5052C111.435 21.5157 111.496 21.5522 111.539 21.6073C111.581 21.6623 111.6 21.7315 111.593 21.8006C111.59 21.8356 111.58 21.8695 111.563 21.9003C111.546 21.9311 111.524 21.9581 111.496 21.9795C111.468 22.0009 111.436 22.0163 111.402 22.0248C111.369 22.0332 111.333 22.0345 111.299 22.0285C108.608 21.6909 107.725 22.6784 107.717 22.6868C107.688 22.7205 107.652 22.7466 107.611 22.7627C107.57 22.7789 107.525 22.7847 107.482 22.7797Z" fill="#303134"/>
<path d="M102.277 24.7388C102.226 24.7386 102.177 24.7239 102.134 24.6966C101.856 24.5124 101.542 24.3881 101.214 24.3314C100.885 24.2748 100.549 24.2871 100.225 24.3675C100.193 24.3802 100.158 24.3864 100.123 24.3857C100.088 24.3849 100.054 24.3773 100.022 24.3632C99.9895 24.3491 99.9606 24.3288 99.9364 24.3034C99.9122 24.2781 99.8932 24.2483 99.8805 24.2156C99.8678 24.1829 99.8616 24.148 99.8624 24.1129C99.8631 24.0778 99.8707 24.0432 99.8848 24.0111C99.8988 23.9789 99.919 23.9499 99.9443 23.9256C99.9695 23.9013 99.9993 23.8823 100.032 23.8695C100.435 23.7566 100.858 23.732 101.271 23.7976C101.685 23.8631 102.079 24.0172 102.428 24.2493C102.48 24.2782 102.52 24.3239 102.542 24.3787C102.565 24.4336 102.568 24.4944 102.551 24.5513C102.534 24.6081 102.499 24.6576 102.451 24.6917C102.403 24.7258 102.344 24.7424 102.285 24.7388H102.277Z" fill="#303134"/>
<path d="M110.655 27.7335C111.155 27.5763 111.303 26.6194 110.984 25.5961C110.666 24.5729 110.001 23.8708 109.5 24.0279C109 24.1851 108.852 25.142 109.171 26.1653C109.489 27.1885 110.154 27.8906 110.655 27.7335Z" fill="#303134"/>
<path d="M103.33 29.6644C103.738 29.5364 103.857 28.7547 103.596 27.9183C103.336 27.0819 102.794 26.5075 102.387 26.6355C101.979 26.7635 101.859 27.5452 102.12 28.3816C102.38 29.218 102.922 29.7923 103.33 29.6644Z" fill="#303134"/>
<path d="M106.212 33.505C105.952 33.5046 105.7 33.4153 105.497 33.2518C104.698 32.6272 104.555 30.9392 105.194 29.7745C105.211 29.744 105.233 29.7171 105.26 29.6953C105.287 29.6735 105.318 29.6573 105.351 29.6475C105.384 29.6377 105.419 29.6345 105.454 29.6382C105.488 29.6419 105.521 29.6524 105.552 29.669C105.582 29.6856 105.609 29.7081 105.631 29.7351C105.652 29.7621 105.669 29.7932 105.678 29.8265C105.688 29.8598 105.691 29.8947 105.688 29.9292C105.684 29.9638 105.673 29.9972 105.657 30.0277C105.102 31.0321 105.287 32.3993 105.825 32.8213C106.363 33.2433 106.817 32.8213 107.212 32.4246C107.265 32.3904 107.329 32.3759 107.391 32.3837C107.454 32.3915 107.512 32.4211 107.555 32.4673C107.598 32.5135 107.623 32.5734 107.627 32.6366C107.63 32.6997 107.612 32.7621 107.574 32.8129C107.225 33.2102 106.737 33.4579 106.212 33.505Z" fill="#303134"/>
<path d="M107.725 35.4882C107.663 35.477 107.607 35.4443 107.566 35.3957C107.526 35.3471 107.504 35.2857 107.504 35.2223C107.504 35.159 107.526 35.0976 107.566 35.049C107.607 35.0004 107.663 34.9676 107.725 34.9565C108.225 34.9947 108.727 34.9256 109.199 34.7539C109.67 34.5822 110.099 34.3117 110.458 33.9606C110.791 33.5448 110.948 33.0144 110.895 32.4836C110.897 32.421 110.921 32.3611 110.962 32.3142C111.004 32.2672 111.06 32.2361 111.121 32.2261C111.183 32.2161 111.246 32.2279 111.3 32.2595C111.354 32.2911 111.395 32.3404 111.417 32.3992C111.457 32.7363 111.429 33.0782 111.335 33.4044C111.242 33.7306 111.083 34.0346 110.87 34.2982C110.467 34.709 109.98 35.028 109.444 35.2333C108.907 35.4386 108.332 35.5256 107.759 35.4882H107.725Z" fill="#303134"/>
<path d="M115.209 39.9815C115.209 39.9815 117.916 37.9644 118.067 35.2383C119.16 38.7409 116.672 41.9227 116.672 41.9227L115.209 39.9815Z" fill="#F99979"/>
<path d="M110.769 30.5939C110.043 30.5936 109.331 30.3913 108.713 30.0093C108.094 29.6274 107.594 29.0808 107.266 28.4304C106.939 27.7799 106.797 27.051 106.857 26.3247C106.918 25.5984 107.178 24.9031 107.608 24.3161C108.038 23.7291 108.623 23.2734 109.295 22.9996C109.968 22.7258 110.704 22.6447 111.42 22.7652C112.136 22.8857 112.805 23.2032 113.352 23.6823C113.899 24.1614 114.303 24.7835 114.519 25.4792C114.704 26.0699 114.748 26.696 114.647 27.3067C114.546 27.9175 114.303 28.4957 113.937 28.9946C113.572 29.4936 113.095 29.8991 112.545 30.1784C111.994 30.4577 111.386 30.6029 110.769 30.6023V30.5939ZM110.769 23.268C110.061 23.2694 109.372 23.495 108.799 23.9126C108.226 24.3301 107.8 24.9185 107.579 25.5937C107.359 26.269 107.357 26.9968 107.573 27.6735C107.789 28.3502 108.212 28.9412 108.782 29.3625C109.352 29.7838 110.04 30.0138 110.747 30.0198C111.455 30.0258 112.147 29.8075 112.724 29.3959C113.301 28.9844 113.734 28.4005 113.961 27.7276C114.188 27.0547 114.198 26.327 113.989 25.648C113.779 24.9561 113.352 24.3504 112.772 23.9203C112.192 23.4903 111.49 23.2586 110.769 23.2595V23.268Z" fill="white"/>
<path d="M102.529 32.9333C101.907 32.924 101.301 32.7302 100.789 32.3762C99.9672 31.8049 99.357 30.977 99.0529 30.0215C98.7487 29.066 98.7678 28.0363 99.107 27.0928C99.2541 26.664 99.4996 26.2759 99.8235 25.9598C100.147 25.6437 100.541 25.4084 100.972 25.2729C101.403 25.1374 101.86 25.1054 102.306 25.1797C102.752 25.2539 103.174 25.4322 103.538 25.7002C104.36 26.2715 104.97 27.0994 105.274 28.0549C105.578 29.0104 105.559 30.0401 105.22 30.9836C105.069 31.414 104.823 31.8042 104.499 32.1245C104.176 32.4449 103.784 32.6868 103.353 32.832C103.085 32.9075 102.807 32.9417 102.529 32.9333ZM101.831 25.7086C101.609 25.709 101.388 25.7431 101.175 25.8099C100.827 25.9283 100.51 26.1242 100.248 26.3829C99.9862 26.6416 99.7857 26.9564 99.6619 27.3038C99.3673 28.1241 99.3484 29.0187 99.608 29.8509C99.8676 30.683 100.392 31.4069 101.1 31.912C101.395 32.1343 101.739 32.283 102.102 32.3458C102.466 32.4086 102.839 32.3838 103.192 32.2733C103.544 32.1629 103.865 31.97 104.128 31.7105C104.392 31.4511 104.59 31.1325 104.707 30.7811C105.012 29.9683 105.033 29.0753 104.766 28.2491C104.519 27.4119 103.994 26.685 103.277 26.1897C102.853 25.8918 102.349 25.7273 101.831 25.7171V25.7086Z" fill="white"/>
<path d="M104.883 27.7179L104.724 27.1946L107.044 26.4688L107.204 26.992L104.883 27.7179Z" fill="white"/>
<path d="M121.693 18.9992L113.771 24.2344L114.076 24.6996L121.998 19.4644L121.693 18.9992Z" fill="white"/>
<path d="M128.561 45.7696L124.088 54.1336L121.204 43.2461H128.561V45.7696Z" fill="#FEC2A0"/>
<path d="M124.617 99.1265C119.572 100.553 98.779 104.494 98.4175 104.553C98.4175 104.553 86.9403 105.305 82.9464 100.992C78.7424 96.4764 84.6953 68.7004 94.7179 54.1331C100.923 45.1445 109.012 49.1282 115.452 42.5703C117.866 50.6642 100.62 88.4753 101.31 89.4712C101.999 90.4671 123.911 98.8565 124.617 99.1265Z" fill="#029D41"/>
<path d="M148.017 107.105C148.017 107.105 152.019 106.675 153.752 107.662C155.484 108.65 156.131 119.698 155.98 120.693C155.828 121.689 154.349 121.386 154.349 121.386C154.349 121.386 152.81 122.93 151.422 122.28C151.271 123.377 149.22 124.517 148.017 123.428C147.706 124.475 146.571 124.272 144.654 123.867C143.29 123.482 141.962 122.98 140.685 122.365C140.533 122.289 140.403 122.177 140.307 122.037C140.211 121.897 140.152 121.735 140.136 121.565C140.12 121.396 140.147 121.226 140.216 121.07C140.284 120.914 140.39 120.779 140.526 120.677C140.892 120.375 141.355 120.217 141.829 120.229C142.922 120.381 143.981 119.892 143.981 119.208C143.981 118.524 134.657 111.764 134.657 111.764L148.017 107.105Z" fill="#FEC2A0"/>
<path d="M147.563 116.031C148.018 117.144 148.285 118.325 148.354 119.525C148.397 120.115 148.397 120.708 148.354 121.298C148.317 121.909 148.204 122.513 148.017 123.095C147.748 122.546 147.55 121.965 147.429 121.365C147.171 120.205 147.092 119.013 147.193 117.829C147.225 117.214 147.35 116.608 147.563 116.031Z" fill="#F99979"/>
<path d="M151.179 115.238C151.425 115.793 151.6 116.378 151.7 116.977C151.808 117.554 151.873 118.138 151.893 118.724C151.915 119.31 151.893 119.897 151.826 120.48C151.768 121.085 151.632 121.681 151.423 122.252C151.175 121.697 151 121.113 150.901 120.513C150.685 119.359 150.642 118.178 150.775 117.011C150.834 116.405 150.969 115.809 151.179 115.238Z" fill="#F99979"/>
<path d="M153.953 115.238C154.212 115.71 154.401 116.215 154.517 116.741C154.635 117.24 154.711 117.748 154.744 118.26C154.788 118.771 154.788 119.285 154.744 119.796C154.699 120.331 154.577 120.857 154.382 121.357C154.123 120.886 153.933 120.38 153.819 119.855C153.699 119.356 153.623 118.848 153.592 118.336C153.548 117.825 153.548 117.311 153.592 116.8C153.637 116.265 153.759 115.739 153.953 115.238Z" fill="#F99979"/>
<path d="M98.2662 102.699C98.2662 102.699 83.8967 104.244 81.719 104.548C79.5413 104.851 75.8332 108.025 74.7318 109.915C73.6303 111.806 75.4213 121.605 76.0687 122.449C76.7161 123.293 78.3473 122.204 78.3473 122.204C78.3473 122.204 79.1377 123.495 80.2307 121.959C80.9076 120.856 81.2359 119.573 81.1724 118.279C82.3355 116.969 83.077 115.336 83.2997 113.595C85.7297 113.595 93.3895 113.595 94.6928 113.156C96.3528 112.513 98.1285 112.226 99.9058 112.312" fill="#FEC2A0"/>
<path d="M85.7296 108.621C84.9904 109.161 84.2181 109.655 83.4173 110.098C82.627 110.537 81.8198 110.942 81.0042 111.339L81.3489 110.807C81.3489 112.031 81.3489 113.263 81.2732 114.487C81.1988 115.725 81.0302 116.955 80.7688 118.167C80.5076 116.955 80.3389 115.725 80.2643 114.487C80.197 113.263 80.155 112.031 80.1886 110.807V110.419L80.5249 110.275C81.3657 109.921 82.2065 109.609 83.0474 109.322C83.9258 109.031 84.8216 108.797 85.7296 108.621Z" fill="#F99979"/>
<path d="M82.711 107.18C81.9207 107.872 81.0967 108.513 80.2559 109.138C79.4151 109.762 78.5742 110.353 77.7334 110.927L77.9857 110.421C78.1118 111.391 78.1791 112.37 78.2715 113.349C78.364 114.328 78.4145 115.307 78.4481 116.286C78.4817 117.265 78.507 118.253 78.507 119.232C78.507 120.211 78.507 121.207 78.3893 122.194C78.1454 121.232 77.9604 120.262 77.8007 119.291C77.6409 118.32 77.498 117.35 77.3887 116.371C77.2794 115.392 77.1869 114.421 77.0944 113.442C77.0019 112.463 76.9431 111.484 76.9094 110.505V110.151L77.1785 109.999C78.081 109.481 78.9946 108.983 79.9195 108.505C80.794 108.032 81.7357 107.585 82.711 107.18Z" fill="#F99979"/>
<path d="M160.386 76.651C154.861 104.57 149.135 109.778 145.831 112.048C143.166 113.871 100.259 114.04 100.259 114.04L97.8457 101.844C97.8457 101.844 116.041 100.857 124.466 99.1519H124.575C128.443 98.3755 131.302 97.6834 132.008 97.2698C134.388 95.7759 134.379 52.8671 147.984 54.1669C151.111 54.4539 151.86 48.1661 159.679 54.1669C163.85 57.3066 161.302 72.0512 160.386 76.651Z" fill="#029D41"/>
<path d="M134.64 95.6162L143.132 75.4531L131.327 93.0589L104.808 101.389L134.64 95.6162Z" fill="#028C3A"/>
<path d="M105.548 74.9727C105.489 75.209 102.075 91.2956 102.075 91.2956L109.012 99.1532L97.8457 92.9751L105.548 74.9727Z" fill="#028C3A"/>
</g>
<defs>
<clipPath id="clip0_4458_299782">
<rect width="162" height="217" fill="white"/>
</clipPath>
</defs>
</svg>
