<svg width="16" height="16" viewBox="0 0 16 16" fill="none" xmlns="http://www.w3.org/2000/svg">
<path fill-rule="evenodd" clip-rule="evenodd" d="M3.5 1.5C2.96957 1.5 2.46086 1.71071 2.08579 2.08579C1.71071 2.46086 1.5 2.96957 1.5 3.5V6.37867C1.50011 6.90906 1.7109 7.41768 2.086 7.79267L8.47267 14.18C9.086 14.7933 10.066 14.9707 10.838 14.4653C12.2836 13.5187 13.5184 12.2841 14.4653 10.8387C14.9707 10.0653 14.7933 9.086 14.18 8.47333L7.79333 2.086C7.60758 1.90019 7.38704 1.7528 7.1443 1.65225C6.90157 1.5517 6.6414 1.49997 6.37867 1.5H3.5ZM4.25 5C4.44891 5 4.63968 4.92098 4.78033 4.78033C4.92098 4.63968 5 4.44891 5 4.25C5 4.05109 4.92098 3.86032 4.78033 3.71967C4.63968 3.57902 4.44891 3.5 4.25 3.5C4.05109 3.5 3.86032 3.57902 3.71967 3.71967C3.57902 3.86032 3.5 4.05109 3.5 4.25C3.5 4.44891 3.57902 4.63968 3.71967 4.78033C3.86032 4.92098 4.05109 5 4.25 5Z" fill="#FF8134"/>
</svg>
