<svg width="24" height="24" viewBox="0 0 24 24" fill="none" xmlns="http://www.w3.org/2000/svg">
<path fill-rule="evenodd" clip-rule="evenodd" d="M12 6.75039C11.9998 5.93039 12.1917 5.12174 12.5603 4.38925C12.9288 3.65675 13.4639 3.02077 14.1225 2.53228C14.7811 2.04379 15.545 1.71636 16.3529 1.57624C17.1609 1.43612 17.9904 1.4872 18.775 1.72539C18.8991 1.76296 19.0112 1.83202 19.1006 1.92584C19.19 2.01966 19.2535 2.13504 19.2851 2.26073C19.3166 2.38642 19.315 2.51813 19.2805 2.64303C19.2459 2.76792 19.1796 2.88174 19.088 2.97339L15.768 6.29239C15.831 6.76739 16.044 7.22639 16.409 7.59139C16.774 7.95639 17.233 8.16939 17.709 8.23139L21.027 4.91239C21.1187 4.82078 21.2325 4.75448 21.3574 4.71996C21.4823 4.68543 21.614 4.68385 21.7397 4.71537C21.8654 4.74689 21.9808 4.81044 22.0746 4.89983C22.1684 4.98921 22.2375 5.10138 22.275 5.22539C22.5243 6.04625 22.5685 6.91567 22.404 7.75759C22.2394 8.59951 21.8711 9.38829 21.3312 10.0549C20.7912 10.7215 20.0962 11.2457 19.3068 11.5815C18.5174 11.9174 17.6578 12.0547 16.803 11.9814C15.785 11.8954 14.933 12.0814 14.494 12.6154L7.34404 21.3004C7.05128 21.6542 6.68787 21.9429 6.27708 22.1481C5.86629 22.3533 5.41718 22.4705 4.9585 22.4921C4.49982 22.5137 4.04168 22.4393 3.61341 22.2736C3.18515 22.108 2.79619 21.8547 2.47146 21.53C2.14673 21.2054 1.89337 20.8165 1.72762 20.3882C1.56186 19.96 1.48735 19.5019 1.50887 19.0432C1.53039 18.5845 1.64745 18.1354 1.85257 17.7245C2.05769 17.3137 2.34634 16.9502 2.70004 16.6574L11.384 9.50639C11.917 9.06639 12.104 8.21539 12.018 7.19739C12.0058 7.04871 11.9998 6.89958 12 6.75039ZM4.11704 19.1254C4.11704 18.9265 4.19606 18.7357 4.33671 18.5951C4.47736 18.4544 4.66813 18.3754 4.86704 18.3754H4.87504C5.07395 18.3754 5.26472 18.4544 5.40537 18.5951C5.54602 18.7357 5.62504 18.9265 5.62504 19.1254V19.1334C5.62504 19.3323 5.54602 19.5231 5.40537 19.6637C5.26472 19.8044 5.07395 19.8834 4.87504 19.8834H4.86704C4.66813 19.8834 4.47736 19.8044 4.33671 19.6637C4.19606 19.5231 4.11704 19.3323 4.11704 19.1334V19.1254Z" fill="#CACACA"/>
<path d="M10.076 8.63975L7.87497 6.43975V4.87375C7.87496 4.74427 7.84143 4.61699 7.77765 4.50432C7.71386 4.39164 7.62199 4.29739 7.51097 4.23075L3.76097 1.98075C3.61754 1.89477 3.4495 1.85919 3.28353 1.87967C3.11757 1.90014 2.9632 1.97549 2.84497 2.09375L2.09497 2.84375C1.97671 2.96198 1.90136 3.11635 1.88089 3.28231C1.86041 3.44828 1.89599 3.61632 1.98197 3.75975L4.23197 7.50975C4.29861 7.62077 4.39286 7.71264 4.50554 7.77643C4.61822 7.84021 4.74549 7.87374 4.87497 7.87375H6.43897L8.50097 9.93575L10.076 8.63875V8.63975Z" fill="#CACACA"/>
<path fill-rule="evenodd" clip-rule="evenodd" d="M12.556 17.3286L16.739 21.5106C17.0524 21.824 17.4245 22.0726 17.834 22.2422C18.2434 22.4118 18.6823 22.4991 19.1255 22.4991C19.5687 22.4991 20.0076 22.4118 20.4171 22.2422C20.8266 22.0726 21.1986 21.824 21.512 21.5106C21.8254 21.1972 22.074 20.8252 22.2436 20.4157C22.4133 20.0062 22.5006 19.5673 22.5006 19.1241C22.5006 18.6809 22.4133 18.242 22.2436 17.8326C22.074 17.4231 21.8254 17.051 21.512 16.7376L18.206 13.4326C17.6993 13.5045 17.186 13.5189 16.676 13.4756C16.282 13.4416 15.994 13.4696 15.809 13.5176C15.7505 13.53 15.6942 13.5513 15.642 13.5806L12.556 17.3286ZM15.97 15.9686C16.1107 15.8282 16.3013 15.7493 16.5 15.7493C16.6988 15.7493 16.8894 15.8282 17.03 15.9686L18.905 17.8446C18.9787 17.9133 19.0378 17.9961 19.0788 18.0881C19.1198 18.1801 19.1418 18.2794 19.1436 18.3801C19.1454 18.4808 19.1269 18.5808 19.0892 18.6742C19.0514 18.7676 18.9953 18.8524 18.9241 18.9237C18.8528 18.9949 18.768 19.051 18.6746 19.0887C18.5812 19.1265 18.4812 19.145 18.3805 19.1432C18.2798 19.1414 18.1805 19.1194 18.0885 19.0784C17.9965 19.0374 17.9137 18.9783 17.845 18.9046L15.97 17.0296C15.8296 16.889 15.7507 16.6984 15.7507 16.4996C15.7507 16.3009 15.8296 16.1102 15.97 15.9696V15.9686Z" fill="#CACACA"/>
</svg>
