<svg width="24" height="24" viewBox="0 0 24 24" fill="none" xmlns="http://www.w3.org/2000/svg">
<path fill-rule="evenodd" clip-rule="evenodd" d="M11.9999 6.75039C11.9997 5.93039 12.1916 5.12174 12.5601 4.38925C12.9287 3.65675 13.4638 3.02077 14.1224 2.53228C14.781 2.04379 15.5449 1.71636 16.3528 1.57624C17.1607 1.43612 17.9903 1.4872 18.7749 1.72539C18.8989 1.76296 19.0111 1.83202 19.1005 1.92584C19.1899 2.01966 19.2534 2.13504 19.2849 2.26073C19.3165 2.38642 19.3149 2.51813 19.2804 2.64303C19.2458 2.76792 19.1795 2.88174 19.0879 2.97339L15.7679 6.29239C15.8309 6.76739 16.0439 7.22639 16.4089 7.59139C16.7739 7.95639 17.2329 8.16939 17.7089 8.23139L21.0269 4.91239C21.1186 4.82078 21.2324 4.75448 21.3573 4.71996C21.4822 4.68543 21.6139 4.68385 21.7396 4.71537C21.8653 4.74689 21.9806 4.81044 22.0745 4.89983C22.1683 4.98921 22.2373 5.10138 22.2749 5.22539C22.5241 6.04625 22.5684 6.91567 22.4039 7.75759C22.2393 8.59951 21.871 9.38829 21.331 10.0549C20.7911 10.7215 20.096 11.2457 19.3067 11.5815C18.5173 11.9174 17.6576 12.0547 16.8029 11.9814C15.7849 11.8954 14.9329 12.0814 14.4939 12.6154L7.34392 21.3004C7.05116 21.6542 6.68775 21.9429 6.27696 22.1481C5.86617 22.3533 5.41706 22.4705 4.95838 22.4921C4.49969 22.5137 4.04155 22.4393 3.61329 22.2736C3.18502 22.108 2.79607 21.8547 2.47134 21.53C2.14661 21.2054 1.89325 20.8165 1.7275 20.3882C1.56174 19.96 1.48723 19.5019 1.50875 19.0432C1.53027 18.5845 1.64733 18.1354 1.85245 17.7245C2.05757 17.3137 2.34622 16.9502 2.69992 16.6574L11.3839 9.50639C11.9169 9.06639 12.1039 8.21539 12.0179 7.19739C12.0057 7.04871 11.9997 6.89958 11.9999 6.75039ZM4.11692 19.1254C4.11692 18.9265 4.19593 18.7357 4.33659 18.5951C4.47724 18.4544 4.668 18.3754 4.86692 18.3754H4.87492C5.07383 18.3754 5.26459 18.4544 5.40525 18.5951C5.5459 18.7357 5.62492 18.9265 5.62492 19.1254V19.1334C5.62492 19.3323 5.5459 19.5231 5.40525 19.6637C5.26459 19.8044 5.07383 19.8834 4.87492 19.8834H4.86692C4.668 19.8834 4.47724 19.8044 4.33659 19.6637C4.19593 19.5231 4.11692 19.3323 4.11692 19.1334V19.1254Z" fill="#FF6D00"/>
<path d="M10.076 8.63975L7.87497 6.43975V4.87375C7.87496 4.74427 7.84143 4.61699 7.77765 4.50432C7.71386 4.39164 7.62199 4.29739 7.51097 4.23075L3.76097 1.98075C3.61754 1.89477 3.4495 1.85919 3.28353 1.87967C3.11757 1.90014 2.9632 1.97549 2.84497 2.09375L2.09497 2.84375C1.97671 2.96198 1.90136 3.11635 1.88089 3.28231C1.86041 3.44828 1.89599 3.61632 1.98197 3.75975L4.23197 7.50975C4.29861 7.62077 4.39286 7.71264 4.50554 7.77643C4.61822 7.84021 4.74549 7.87374 4.87497 7.87375H6.43897L8.50097 9.93575L10.076 8.63875V8.63975Z" fill="#FF6D00"/>
<path fill-rule="evenodd" clip-rule="evenodd" d="M12.5559 17.3286L16.7389 21.5106C17.0523 21.824 17.4244 22.0726 17.8338 22.2422C18.2433 22.4118 18.6822 22.4991 19.1254 22.4991C19.5686 22.4991 20.0075 22.4118 20.417 22.2422C20.8264 22.0726 21.1985 21.824 21.5119 21.5106C21.8253 21.1972 22.0739 20.8252 22.2435 20.4157C22.4131 20.0062 22.5004 19.5673 22.5004 19.1241C22.5004 18.6809 22.4131 18.242 22.2435 17.8326C22.0739 17.4231 21.8253 17.051 21.5119 16.7376L18.2059 13.4326C17.6991 13.5045 17.1859 13.5189 16.6759 13.4756C16.2819 13.4416 15.9939 13.4696 15.8089 13.5176C15.7504 13.53 15.6941 13.5513 15.6419 13.5806L12.5559 17.3286ZM15.9699 15.9686C16.1105 15.8282 16.3012 15.7493 16.4999 15.7493C16.6987 15.7493 16.8893 15.8282 17.0299 15.9686L18.9049 17.8446C18.9786 17.9133 19.0377 17.9961 19.0787 18.0881C19.1197 18.1801 19.1417 18.2794 19.1435 18.3801C19.1453 18.4808 19.1268 18.5808 19.089 18.6742C19.0513 18.7676 18.9952 18.8524 18.9239 18.9237C18.8527 18.9949 18.7679 19.051 18.6745 19.0887C18.5811 19.1265 18.4811 19.145 18.3804 19.1432C18.2797 19.1414 18.1804 19.1194 18.0884 19.0784C17.9964 19.0374 17.9136 18.9783 17.8449 18.9046L15.9699 17.0296C15.8295 16.889 15.7506 16.6984 15.7506 16.4996C15.7506 16.3009 15.8295 16.1102 15.9699 15.9696V15.9686Z" fill="#FF6D00"/>
</svg>
