<svg width="180" height="177" viewBox="0 0 180 177" fill="none" xmlns="http://www.w3.org/2000/svg">
<path d="M92.7634 58.7498C115.284 66.7723 137.219 50.8943 142.912 41.7854C148.605 32.6765 145.591 3.42768 132.28 4.93191C128.345 -0.500018 120.726 -0.500017 113.275 1.92346C104.987 4.59764 102.559 7.02111 100.298 15.2108C97.703 24.7375 106.996 50.6437 92.7634 58.7498Z" fill="#FFC61A"/>
<mask id="mask0_5341_72324" style="mask-type:luminance" maskUnits="userSpaceOnUse" x="92" y="0" width="54" height="61">
<path d="M92.7634 58.7498C115.284 66.7723 137.219 50.8943 142.912 41.7854C148.605 32.6765 145.591 3.42768 132.28 4.93191C128.345 -0.500018 120.726 -0.500017 113.275 1.92346C104.987 4.59764 102.559 7.02111 100.298 15.2108C97.703 24.7375 106.996 50.6437 92.7634 58.7498Z" fill="white"/>
</mask>
<g mask="url(#mask0_5341_72324)">
<path d="M96.0273 18.8865C96.0273 19.1372 105.237 9.02547 110.762 19.8058" stroke="#C29614" stroke-miterlimit="10"/>
</g>
<mask id="mask1_5341_72324" style="mask-type:luminance" maskUnits="userSpaceOnUse" x="92" y="0" width="54" height="61">
<path d="M92.7634 58.7498C115.284 66.7723 137.219 50.8943 142.912 41.7854C148.605 32.6765 145.591 3.42768 132.28 4.93191C128.345 -0.500018 120.726 -0.500017 113.275 1.92346C104.987 4.59764 102.559 7.02111 100.298 15.2108C97.703 24.7375 106.996 50.6437 92.7634 58.7498Z" fill="white"/>
</mask>
<g mask="url(#mask1_5341_72324)">
<path d="M103.062 64.6822C103.229 64.4315 121.48 52.7319 112.271 34.5977" stroke="#C29614" stroke-miterlimit="10"/>
</g>
<mask id="mask2_5341_72324" style="mask-type:luminance" maskUnits="userSpaceOnUse" x="92" y="0" width="54" height="61">
<path d="M92.7634 58.7498C115.284 66.7723 137.219 50.8943 142.912 41.7854C148.605 32.6765 145.591 3.42768 132.28 4.93191C128.345 -0.500018 120.726 -0.500017 113.275 1.92346C104.987 4.59764 102.559 7.02111 100.298 15.2108C97.703 24.7375 106.996 50.6437 92.7634 58.7498Z" fill="white"/>
</mask>
<g mask="url(#mask2_5341_72324)">
<path d="M116.039 60.7552C116.206 60.5045 125.415 51.5627 119.555 42.2031" stroke="#C29614" stroke-miterlimit="10"/>
</g>
<mask id="mask3_5341_72324" style="mask-type:luminance" maskUnits="userSpaceOnUse" x="92" y="0" width="54" height="61">
<path d="M92.7634 58.7498C115.284 66.7723 137.219 50.8943 142.912 41.7854C148.605 32.6765 145.591 3.42768 132.28 4.93191C128.345 -0.500018 120.726 -0.500017 113.275 1.92346C104.987 4.59764 102.559 7.02111 100.298 15.2108C97.703 24.7375 106.996 50.6437 92.7634 58.7498Z" fill="white"/>
</mask>
<g mask="url(#mask3_5341_72324)">
<path d="M97.8718 19.3047C101.388 23.9845 110.514 23.7338 110.765 19.8897" stroke="#C29614" stroke-miterlimit="10"/>
</g>
<path d="M136.465 175.914H8.28832C4.186 175.914 0.837158 172.571 0.837158 168.477V81.8165C0.837158 77.7216 4.186 74.3789 8.28832 74.3789H136.465C140.567 74.3789 143.916 77.7216 143.916 81.8165V168.477C143.916 172.571 140.567 175.914 136.465 175.914Z" stroke="#1F1F1F" stroke-width="2" stroke-miterlimit="10"/>
<path d="M79.2013 95.0195H62.8757V143.405H79.2013V95.0195Z" fill="#029D41"/>
<path d="M56.8452 95.0195H85.8964" stroke="#029D41" stroke-width="2" stroke-miterlimit="10"/>
<path d="M38.6784 136.636L30.5574 143.573L22.3528 136.636V95.0195H38.6784V136.636Z" fill="#FE3737"/>
<path d="M16.3254 95.0195H45.3766" stroke="#FE3737" stroke-width="2" stroke-miterlimit="10"/>
<path d="M118.799 143.573L110.594 136.636L102.473 143.489V95.0195H118.799V143.573Z" fill="#4F6DDB"/>
<path d="M96.364 95.0195H125.499" stroke="#4F6DDB" stroke-width="2" stroke-miterlimit="10"/>
<path d="M123.237 43.5394C123.823 44.375 126.083 48.5534 127.674 52.8154C127.925 55.6567 129.516 58.7488 129.181 60.9215C133.534 63.6793 125.497 76.4652 135.627 72.6211C145.841 68.8605 146.176 48.7206 146.176 48.7206C145.59 48.2192 140.399 42.1187 140.399 42.1187C140.399 42.1187 135.962 33.5112 133.869 29.7506C136.548 28.2464 137.637 25.5722 137.553 23.1488C137.385 20.0567 135.376 17.4661 132.111 18.1347C126.251 19.3046 128.344 26.8258 128.344 26.8258C128.344 26.8258 122.567 26.575 121.813 20.1403C120.976 12.9534 113.19 22.4802 109.172 16.5469C105.99 19.2211 107.078 25.0708 108.167 26.8258C108.669 27.6614 109.088 29.0821 109.506 30.7534C109.925 32.5919 110.26 34.6812 110.427 36.4361C110.762 39.6952 116.455 47.0492 123.237 43.5394Z" fill="#A85D00"/>
<path d="M115.787 23.6511C115.787 23.6511 116.875 22.4812 119.973 23.0661" stroke="#303134" stroke-width="0.6912" stroke-miterlimit="10" stroke-linecap="round"/>
<path d="M110.01 25.4892C110.01 25.4892 108.838 24.57 107.666 24.9878" stroke="#303134" stroke-width="0.6912" stroke-miterlimit="10" stroke-linecap="round"/>
<path d="M118.908 29.4352C119.446 29.2977 119.649 28.2801 119.362 27.1623C119.074 26.0446 118.406 25.25 117.868 25.3876C117.331 25.5252 117.128 26.5428 117.415 27.6605C117.702 28.7782 118.371 29.5728 118.908 29.4352Z" fill="#303134"/>
<path d="M110.859 31.182C111.307 31.0674 111.446 30.1046 111.171 29.0316C110.895 27.9586 110.308 27.1817 109.861 27.2963C109.413 27.411 109.273 28.3737 109.549 29.4468C109.824 30.5198 110.411 31.2967 110.859 31.182Z" fill="#303134"/>
<path d="M113.107 31.5898C112.019 33.3448 112.856 36.6039 115.117 34.6819" stroke="#303134" stroke-width="0.6912" stroke-miterlimit="10" stroke-linecap="round"/>
<path d="M119.219 34.5977C119.219 34.5977 119.554 37.5225 115.368 37.439" stroke="#303134" stroke-width="0.6912" stroke-miterlimit="10" stroke-linecap="round"/>
<path d="M123.237 43.5414C123.237 43.5414 126.334 41.5358 126.669 38.5273C127.674 42.3715 124.576 45.7978 124.576 45.7978L123.237 43.5414Z" fill="#452600"/>
<path d="M155.47 87.8296C151.786 90.5038 131.274 105.63 127.758 107.552C124.995 109.056 122.567 109.139 122.065 109.056C119.888 109.056 116.037 109.223 112.605 111.312C109.172 113.485 107.079 116.995 105.572 117.831C103.981 118.75 104.065 120.17 105.07 120.755C106.074 121.34 108.084 121.09 109.423 119.669C110.763 118.248 112.688 115.908 113.191 116.493C113.777 117.078 109.256 121.424 108.251 122.594C107.247 123.68 105.907 125.769 104.4 126.772C102.893 127.692 99.0419 131.285 99.1256 132.706C99.2093 134.126 100.465 134.544 101.721 133.792C102.391 134.043 103.312 133.625 104.149 133.207C105.07 132.789 106.242 132.288 106.242 132.288C106.242 132.288 104.902 133.291 105.991 134.461C106.661 135.213 107.079 134.962 108.251 134.377C109.423 133.708 110.763 133.207 111.935 132.371C113.107 131.452 114.949 129.446 114.949 129.446C114.949 129.446 112.605 132.622 112.521 133.374C112.437 134.126 113.191 134.795 113.944 134.628C114.195 134.544 115.2 133.625 116.372 132.037C117.544 130.449 120.391 126.522 121.814 125.017C123.154 123.43 125.916 119.084 127.005 118.332C127.423 118.081 130.688 116.744 135.209 115.156C142.074 112.733 164.93 102.538 168.195 100.031C171.377 97.5235 170.372 90.5038 163.926 85.9911C160.995 83.8183 159.154 85.239 155.47 87.8296Z" fill="#A85D00"/>
<path d="M113.357 123.766C113.357 123.766 112.603 124.1 111.013 126.022C109.422 127.944 108.417 128.445 107.162 129.365C106.576 129.783 101.636 133.794 101.636 133.794C101.636 133.794 107.078 130.451 108.501 129.365C110.008 128.362 113.357 123.766 113.357 123.766Z" fill="#452600"/>
<path d="M117.126 125.184C117.126 125.184 116.205 125.769 115.368 126.186C114.531 126.688 111.936 129.863 110.763 130.699C109.591 131.451 106.577 132.203 106.577 132.203C106.577 132.203 109.675 131.033 111.015 129.696C112.27 128.443 114.112 125.685 117.126 125.184Z" fill="#452600"/>
<path d="M118.717 125.52C117.964 126.021 115.368 129.113 115.368 129.113L119.136 125.854L118.717 125.52Z" fill="#452600"/>
<path d="M132.866 118.25L127.759 103.458L144.755 91.4247V81.8979C144.755 77.3852 141.071 73.7082 136.55 73.7082L105.992 73.6247L110.345 65.1843C111.183 63.5129 112.438 62.1758 114.029 61.173L127.592 52.8998L132.866 69.1955L140.318 41.9523C140.318 41.9523 148.187 34.3477 155.136 34.3477C171.378 34.3477 177.824 69.5298 178.997 84.9899C180.336 100.366 132.866 118.25 132.866 118.25Z" fill="#FE3737"/>
<path d="M144.752 91.4247L154.715 84.8228V70.0312L144.752 91.4247Z" fill="#BF2929"/>
<path d="M104.484 73.6246C104.484 73.2068 104.986 70.6997 101.805 69.1119C99.7953 68.1091 98.8743 69.7805 97.7859 69.5298C96.6139 69.1955 95.8604 67.2734 94.1022 67.2734C92.4278 67.2734 91.0046 68.7777 89.8325 69.1119C88.158 69.5298 87.0697 68.1927 85.6464 69.2791C83.1348 71.1176 84.0557 73.541 84.0557 73.541H104.484V73.6246Z" fill="#A85D00"/>
</svg>
