<svg width="180" height="178" viewBox="0 0 180 178" fill="none" xmlns="http://www.w3.org/2000/svg">
<g clip-path="url(#clip0_4496_329290)">
<path d="M93.2271 58.9197C115.854 67.0067 137.926 50.9928 143.674 41.8179C149.421 32.643 146.349 3.06909 133.012 4.60386C129.091 -0.877474 121.408 -0.877472 113.944 1.54275C105.588 4.25812 103.215 6.71207 100.901 14.9341C98.1665 24.6234 107.49 50.7736 93.2271 58.9197Z" fill="#FFC61A"/>
<mask id="mask0_4496_329290" style="mask-type:luminance" maskUnits="userSpaceOnUse" x="93" y="-1" width="54" height="63">
<path d="M93.2271 58.9197C115.854 67.0067 137.926 50.9928 143.674 41.8179C149.421 32.643 146.349 3.06909 133.012 4.60386C129.091 -0.877474 121.408 -0.877472 113.944 1.54275C105.588 4.25812 103.215 6.71207 100.901 14.9341C98.1665 24.6234 107.49 50.7736 93.2271 58.9197Z" fill="white"/>
</mask>
<g mask="url(#mask0_4496_329290)">
<path d="M110.932 19.8486C109.535 17.1332 107.793 15.5563 105.74 15.16C103.274 14.6877 100.371 15.8936 97.1146 18.7439C96.7191 19.0897 96.5676 19.2246 96.2731 19.0981L96.0291 18.6933H96.4498L96.2478 18.3307L96.5339 18.0862C100.001 15.0588 103.14 13.7854 105.874 14.3167C108.188 14.7636 110.141 16.4839 111.655 19.4438L110.932 19.8486Z" fill="#C29614"/>
<path d="M103.838 65.1906L103.611 64.9376L103.156 64.7099C103.215 64.6003 103.257 64.5666 103.611 64.2967C108.777 60.3839 119.977 49.6742 112.412 34.7818L113.161 34.4023C121.012 49.885 109.45 60.9573 104.116 64.9966L103.838 65.1906Z" fill="#C29614"/>
<path d="M116.923 61.1697L116.199 60.748C116.272 60.6279 116.36 60.5174 116.46 60.4191C119.649 56.8521 124.319 49.7769 119.75 42.4235L120.465 41.9766C124.008 47.6856 122.78 54.6258 117.1 60.9841L116.923 61.1697Z" fill="#C29614"/>
<path d="M106.177 23.0361C103.232 23.0361 99.8662 21.8471 97.9897 19.3341L98.6629 18.8281C100.842 21.7627 105.538 22.7663 108.55 21.8724C109.392 21.6278 110.797 21.0291 110.881 19.6461L111.723 19.6967C111.638 21.0628 110.57 22.1507 108.786 22.6735C107.938 22.9183 107.06 23.0404 106.177 23.0361Z" fill="#C29614"/>
</g>
<path d="M137.144 178H8.30548C6.10121 177.998 3.98786 177.119 2.42921 175.557C0.870559 173.995 -0.00607312 171.877 -0.00830078 169.668V82.2535C-0.00607312 80.0445 0.870559 77.9266 2.42921 76.3646C3.98786 74.8026 6.10121 73.9241 8.30548 73.9219H137.135C139.34 73.9241 141.453 74.8026 143.012 76.3646C144.57 77.9266 145.447 80.0445 145.449 82.2535V169.668C145.447 171.876 144.571 173.992 143.015 175.554C141.458 177.116 139.347 177.995 137.144 178ZM8.30548 75.5916C6.5461 75.5961 4.86043 76.3002 3.61873 77.5493C2.37702 78.7984 1.68083 80.4903 1.68307 82.2535V169.668C1.68529 171.43 2.38461 173.119 3.62765 174.364C4.87069 175.61 6.55598 176.311 8.3139 176.313H137.144C138.902 176.311 140.587 175.61 141.83 174.364C143.073 173.119 143.772 171.43 143.775 169.668V82.2535C143.772 80.4918 143.073 78.8029 141.83 77.5572C140.587 76.3115 138.902 75.6107 137.144 75.6084L8.30548 75.5916Z" fill="#F6EECA"/>
<path d="M39.1707 95.543H22.762V144.403H39.1707V95.543Z" fill="#029D41"/>
<path d="M45.9024 94.6992H16.6611V96.3858H45.9024V94.6992Z" fill="#029D41"/>
<path d="M79.3512 137.522L71.1468 144.521L62.9424 137.522V95.543H79.3512V137.522Z" fill="#F6EECA"/>
<path d="M86.0828 94.6992H56.8416V96.3858H86.0828V94.6992Z" fill="#F6EECA"/>
<path d="M119.321 144.521L111.117 137.522L102.912 144.411V95.543H119.321V144.521Z" fill="#4F6DDB"/>
<path d="M126.053 94.6992H96.8118V96.3858H126.053V94.6992Z" fill="#4F6DDB"/>
<path d="M123.79 43.5799C125.549 46.5665 127.039 49.7047 128.241 52.9572C128.519 55.8665 130.092 58.9614 129.73 61.1792C134.098 63.9199 125.986 76.8474 136.252 72.9851C146.518 69.1229 146.846 48.8588 146.846 48.8588C146.291 48.3782 141.065 42.1632 141.065 42.1632C141.065 42.1632 136.563 33.5111 134.527 29.691C135.707 29.0336 136.679 28.0577 137.334 26.8741C137.988 25.6905 138.299 24.3468 138.229 22.9954C138.095 19.909 136.025 17.2358 132.76 17.9357C126.869 19.1247 129.007 26.748 129.007 26.748C129.007 26.748 123.217 26.5203 122.418 20.0017C121.576 12.7495 113.725 22.3967 109.686 16.3672C106.506 19.0573 107.6 24.9518 108.693 26.7649C109.316 28.0142 109.758 29.3458 110.006 30.7198C110.426 32.606 110.735 34.515 110.932 36.4373C111.31 39.6755 116.974 47.1133 123.79 43.5799Z" fill="#A85D00"/>
<path d="M116.3 23.7818C116.244 23.7812 116.189 23.7645 116.142 23.7335C116.095 23.7026 116.058 23.6589 116.035 23.6074C116.012 23.556 116.004 23.499 116.012 23.4432C116.021 23.3874 116.045 23.3352 116.082 23.2927C116.132 23.2421 117.302 22.0109 120.575 22.6012C120.613 22.6073 120.649 22.6209 120.682 22.6413C120.714 22.6617 120.742 22.6884 120.764 22.7199C120.786 22.7514 120.802 22.7869 120.81 22.8245C120.818 22.862 120.818 22.9008 120.811 22.9385C120.805 22.9765 120.791 23.0128 120.771 23.0453C120.75 23.0779 120.724 23.106 120.692 23.128C120.661 23.15 120.625 23.1655 120.588 23.1735C120.55 23.1815 120.512 23.1819 120.474 23.1747C117.546 22.6603 116.519 23.6806 116.511 23.6891C116.484 23.7179 116.451 23.7409 116.415 23.7569C116.379 23.7728 116.34 23.7813 116.3 23.7818Z" fill="#303134"/>
<path d="M110.486 25.6268C110.425 25.625 110.366 25.6044 110.317 25.5678C110.023 25.3518 109.687 25.1991 109.331 25.1193C108.974 25.0395 108.606 25.0343 108.247 25.104C108.21 25.1214 108.169 25.1307 108.127 25.1312C108.086 25.1317 108.045 25.1234 108.007 25.1069C107.969 25.0905 107.935 25.0661 107.907 25.0355C107.879 25.0049 107.858 24.9688 107.844 24.9294C107.831 24.89 107.827 24.8483 107.831 24.807C107.835 24.7656 107.848 24.7257 107.868 24.6896C107.889 24.6536 107.917 24.6223 107.95 24.5978C107.983 24.5733 108.022 24.5561 108.062 24.5474C108.509 24.4461 108.973 24.4426 109.422 24.5372C109.871 24.6318 110.294 24.8222 110.662 25.0956C110.709 25.1336 110.742 25.1849 110.758 25.2425C110.775 25.3001 110.773 25.3614 110.754 25.4181C110.735 25.4749 110.699 25.5244 110.651 25.5602C110.603 25.596 110.545 25.6163 110.486 25.6184V25.6268Z" fill="#303134"/>
<path d="M119.49 29.369C120.048 29.2256 120.264 28.1878 119.973 27.051C119.682 25.9141 118.994 25.1088 118.436 25.2521C117.878 25.3955 117.662 26.4333 117.953 27.5702C118.243 28.707 118.932 29.5124 119.49 29.369Z" fill="#303134"/>
<path d="M111.345 31.0745C111.8 30.9577 111.946 29.9963 111.673 28.9271C111.399 27.8579 110.809 27.0858 110.355 27.2026C109.9 27.3194 109.753 28.2808 110.027 29.35C110.301 30.4191 110.891 31.1912 111.345 31.0745Z" fill="#303134"/>
<path d="M114.356 35.453C114.047 35.4566 113.747 35.3455 113.515 35.141C112.673 34.4073 112.606 32.5521 113.372 31.3209C113.417 31.2632 113.481 31.2242 113.553 31.2115C113.625 31.1988 113.699 31.2133 113.761 31.2521C113.823 31.291 113.868 31.3514 113.888 31.4218C113.908 31.4921 113.901 31.5674 113.868 31.6329C113.204 32.6955 113.33 34.2134 113.868 34.7025C114.407 35.1916 114.954 34.7025 115.408 34.3483C115.436 34.3152 115.471 34.2887 115.51 34.2705C115.549 34.2523 115.591 34.243 115.635 34.2431C115.678 34.2432 115.72 34.2528 115.759 34.2713C115.798 34.2897 115.833 34.3165 115.86 34.3497C115.888 34.383 115.908 34.4218 115.919 34.4636C115.93 34.5054 115.931 34.5491 115.923 34.5916C115.916 34.6341 115.899 34.6744 115.874 34.7096C115.848 34.7448 115.816 34.774 115.779 34.7952C115.394 35.1723 114.892 35.4047 114.356 35.453Z" fill="#303134"/>
<path d="M116.048 37.7121H115.846C115.769 37.7099 115.697 37.6779 115.643 37.6228C115.59 37.5677 115.56 37.4938 115.56 37.417C115.56 37.2568 115.686 37.1556 115.854 37.1303C116.398 37.1986 116.95 37.1505 117.473 36.9891C117.997 36.8277 118.481 36.5568 118.892 36.1942C119.282 35.7615 119.485 35.1913 119.456 34.6089C119.449 34.5319 119.472 34.4551 119.521 34.3952C119.57 34.3353 119.64 34.2969 119.717 34.2884C119.755 34.2825 119.794 34.2847 119.832 34.2949C119.87 34.3051 119.905 34.3232 119.935 34.3478C119.965 34.3725 119.989 34.4032 120.007 34.438C120.025 34.4728 120.035 34.5109 120.036 34.5498C120.06 34.92 120.009 35.2911 119.888 35.6415C119.767 35.9919 119.577 36.3146 119.33 36.5906C118.891 36.9973 118.373 37.3073 117.808 37.5006C117.242 37.6938 116.643 37.7658 116.048 37.7121Z" fill="#303134"/>
<path d="M123.79 43.5909C123.79 43.5909 126.869 41.5418 127.198 38.5312C128.199 42.4356 125.136 45.8931 125.136 45.8931L123.79 43.5909Z" fill="#452600"/>
<path d="M156.211 88.2988C152.492 90.9889 131.927 106.269 128.325 108.217C126.57 109.195 124.602 109.727 122.595 109.769C120.381 109.769 116.494 109.912 113.061 112.071C109.627 114.23 107.541 117.788 105.95 118.691C104.36 119.593 104.461 121.018 105.462 121.617C106.463 122.216 108.508 121.963 109.863 120.512C111.218 119.062 113.128 116.743 113.675 117.316C114.222 117.89 109.72 122.325 108.744 123.455C107.768 124.585 106.363 126.668 104.848 127.672C103.333 128.675 99.4961 132.259 99.5802 133.701C99.6644 135.143 100.927 135.573 102.164 134.755C102.845 135.05 103.737 134.595 104.637 134.14C105.538 133.684 106.783 133.22 106.783 133.22C106.612 133.337 106.467 133.49 106.36 133.668C106.253 133.846 106.185 134.045 106.162 134.252C106.139 134.459 106.161 134.668 106.226 134.865C106.291 135.063 106.398 135.244 106.539 135.396C107.212 136.147 107.608 135.919 108.82 135.278C110.107 134.7 111.34 134.009 112.505 133.212C113.571 132.302 114.572 131.319 115.501 130.269C115.501 130.269 113.136 133.457 113.094 134.232C113.081 134.418 113.111 134.604 113.18 134.776C113.249 134.949 113.357 135.103 113.495 135.228C113.633 135.352 113.798 135.443 113.976 135.494C114.154 135.545 114.342 135.555 114.525 135.523C114.811 135.464 115.787 134.528 116.931 132.942C118.076 131.357 120.987 127.419 122.376 125.85C123.764 124.282 126.524 119.888 127.585 119.104C130.281 117.872 133.042 116.788 135.856 115.857C142.773 113.395 165.745 103.132 168.977 100.611C172.208 98.0893 171.156 90.9636 164.685 86.4689C161.774 84.1836 159.922 85.6256 156.211 88.2988Z" fill="#A85D00"/>
<path d="M113.936 124.555C113.936 124.555 113.187 124.875 111.563 126.832C110.446 128.129 109.155 129.264 107.726 130.205L102.155 134.733C102.155 134.733 107.667 131.36 109.097 130.255C110.528 129.151 113.936 124.555 113.936 124.555Z" fill="#452600"/>
<path d="M117.697 125.988C117.697 125.988 116.771 126.545 115.905 127.034C115.038 127.523 112.488 130.778 111.285 131.562C109.944 132.234 108.533 132.755 107.078 133.114C107.078 133.114 110.216 131.933 111.495 130.584C112.774 129.235 114.626 126.461 117.697 125.988Z" fill="#452600"/>
<path d="M119.246 126.281C118.033 127.393 116.907 128.597 115.88 129.882L119.641 126.593L119.246 126.281Z" fill="#452600"/>
<path d="M133.458 118.946L128.333 104.053L145.449 91.8933V82.2883C145.451 81.2019 145.24 80.1258 144.827 79.1212C144.414 78.1167 143.808 77.2035 143.043 76.4338C142.278 75.664 141.369 75.0528 140.369 74.635C139.368 74.2172 138.295 74.0011 137.211 73.9989L106.522 73.9314L110.923 65.3889C111.778 63.7316 113.044 62.3229 114.601 61.299L128.241 52.959L133.567 69.3945L141.048 41.8782C141.048 41.8782 148.983 34.1875 156.01 34.1875C172.292 34.1875 178.788 69.7234 179.975 85.2904C181.161 100.857 133.458 118.946 133.458 118.946Z" fill="#FE3737"/>
<path d="M145.458 91.8941L155.496 85.2322V70.3398L145.458 91.8941Z" fill="#BF2929"/>
<path d="M104.991 73.9314C104.991 73.4676 105.538 70.9968 102.307 69.3861C100.312 68.3826 99.3195 70.1029 98.2592 69.8246C97.0559 69.5126 96.3406 67.5731 94.5146 67.59C92.8317 67.59 91.4264 69.1079 90.2652 69.403C88.5822 69.8415 87.5304 68.4923 86.0578 69.597C85.363 70.0536 84.8301 70.7188 84.5354 71.4973C84.2406 72.2758 84.1992 73.1279 84.4169 73.9314H104.991Z" fill="#A85D00"/>
</g>
<defs>
<clipPath id="clip0_4496_329290">
<rect width="180" height="178" fill="white"/>
</clipPath>
</defs>
</svg>
