<svg version="1.1" xmlns="http://www.w3.org/2000/svg" x="0" y="0" viewBox="0 0 311.81 182.32" style="enable-background:new 0 0 311.81 182.32" xml:space="preserve"><polygon style="fill:#fee6da;stroke:#fee6da;stroke-width:.5;stroke-linecap:square" points="103.44 47.4 207.72 149.27 103.44 149.27"/><text transform="translate(139.673 179.276)" style="font-family:'Asap-Medium';font-size:8px">Amount for Zoë (£)</text><text transform="translate(84.308 29.314)" style="font-family:'Asap-Regular';font-size:7px">240</text><text transform="translate(84.308 49.7)" style="font-family:'Asap-Regular';font-size:7px">200</text><text transform="translate(84.308 70.088)" style="font-family:'Asap-Regular';font-size:7px">160</text><text transform="translate(84.308 90.474)" style="font-family:'Asap-Regular';font-size:7px">120</text><text transform="translate(88.155 110.862)" style="font-family:'Asap-Regular';font-size:7px">80</text><text transform="translate(88.154 131.249)" style="font-family:'Asap-Regular';font-size:7px">40</text><text transform="translate(92.004 151.636)" style="font-family:'Asap-Regular';font-size:7px">0</text><text transform="translate(101.62 162.278)" style="font-family:'Asap-Regular';font-size:7px">0</text><text transform="translate(119.862 162.278)" style="font-family:'Asap-Regular';font-size:7px">40</text><text transform="translate(140.851 162.278)" style="font-family:'Asap-Regular';font-size:7px">80</text><text transform="translate(159.839 162.278)" style="font-family:'Asap-Regular';font-size:7px">120</text><text transform="translate(180.573 162.278)" style="font-family:'Asap-Regular';font-size:7px">160</text><text transform="translate(201.305 162.278)" style="font-family:'Asap-Regular';font-size:7px">200</text><text transform="translate(223.038 162.278)" style="font-family:'Asap-Regular';font-size:7px">240</text><line style="fill:none;stroke:#6d6e70;stroke-width:.5;stroke-linecap:square" x1="103.44" y1="149.27" x2="103.44" y2="151.51"/><line style="fill:none;stroke:#6d6e70;stroke-width:.5;stroke-linecap:square" x1="101.19" y1="149.27" x2="103.44" y2="149.27"/><line style="fill:none;stroke:#6d6e70;stroke-width:.5;stroke-linecap:square" x1="103.44" y1="128.89" x2="101.19" y2="128.89"/><line style="fill:none;stroke:#6d6e70;stroke-width:.5;stroke-linecap:square" x1="103.44" y1="108.52" x2="101.19" y2="108.52"/><line style="fill:none;stroke:#6d6e70;stroke-width:.5;stroke-linecap:square" x1="103.44" y1="88.15" x2="101.19" y2="88.15"/><line style="fill:none;stroke:#6d6e70;stroke-width:.5;stroke-linecap:square" x1="103.44" y1="67.78" x2="101.19" y2="67.78"/><line style="fill:none;stroke:#6d6e70;stroke-width:.5;stroke-linecap:square" x1="101.19" y1="47.4" x2="103.44" y2="47.4"/><line style="fill:none;stroke:#6d6e70;stroke-width:.5;stroke-linecap:square" x1="103.44" y1="27.03" x2="101.19" y2="27.03"/><line style="fill:none;stroke:#6d6e70;stroke-width:.5;stroke-linecap:square" x1="228.58" y1="149.27" x2="228.58" y2="151.51"/><line style="fill:none;stroke:#6d6e70;stroke-width:.5;stroke-linecap:square" x1="207.72" y1="149.27" x2="207.72" y2="151.51"/><line style="fill:none;stroke:#6d6e70;stroke-width:.5;stroke-linecap:square" x1="186.87" y1="149.27" x2="186.87" y2="151.51"/><line style="fill:none;stroke:#6d6e70;stroke-width:.5;stroke-linecap:square" x1="166.01" y1="149.27" x2="166.01" y2="151.51"/><line style="fill:none;stroke:#6d6e70;stroke-width:.5;stroke-linecap:square" x1="145.15" y1="149.27" x2="145.15" y2="151.51"/><line style="fill:none;stroke:#6d6e70;stroke-width:.5;stroke-linecap:square" x1="124.29" y1="149.27" x2="124.29" y2="151.51"/><text transform="rotate(-90 93.631 25.365)"><tspan x="0" y="0" style="font-family:'Asap-Medium';font-size:8px">Amount for </tspan><tspan x="41.81" y="0" style="font-family:'Asap-Medium';font-size:8px">Y</tspan><tspan x="45.88" y="0" style="font-family:'Asap-Medium';font-size:8px">v</tspan><tspan x="49.68" y="0" style="font-family:'Asap-Medium';font-size:8px">onne (£)</tspan></text><text transform="translate(110.361 120.48)"><tspan x="0" y="0" style="font-family:'Asap-Regular';font-size:6px">F</tspan><tspan x="2.84" y="0" style="font-family:'Asap-Regular';font-size:6px">easib</tspan><tspan x="16.82" y="0" style="font-family:'Asap-Regular';font-size:6px">l</tspan><tspan x="18.41" y="0" style="font-family:'Asap-Regular';font-size:6px">e set</tspan></text><text transform="translate(106.543 24.372)"><tspan x="0" y="0" style="font-family:'Asap-Regular';font-size:6px">F</tspan><tspan x="2.84" y="0" style="font-family:'Asap-Regular';font-size:6px">easib</tspan><tspan x="16.82" y="0" style="font-family:'Asap-Regular';font-size:6px">l</tspan><tspan x="18.41" y="0" style="font-family:'Asap-Regular';font-size:6px">e </tspan><tspan x="1.61" y="7.2" style="font-family:'Asap-Regular';font-size:6px">f</tspan><tspan x="3.56" y="7.2" style="font-family:'Asap-Regular';font-size:6px">r</tspan><tspan x="5.64" y="7.2" style="font-family:'Asap-Regular';font-size:6px">ontier</tspan><tspan x=".62" y="14.4" style="font-family:'Asap-Regular';font-size:6px">(bud</tspan><tspan x="12.58" y="14.4" style="font-family:'Asap-Regular';font-size:6px">g</tspan><tspan x="15.73" y="14.4" style="font-family:'Asap-Regular';font-size:6px">et </tspan><tspan x="-2.62" y="21.6" style="font-family:'Asap-Regular';font-size:6px">const</tspan><tspan x="11.57" y="21.6" style="font-family:'Asap-Regular';font-size:6px">r</tspan><tspan x="13.65" y="21.6" style="font-family:'Asap-Regular';font-size:6px">aint)</tspan></text><g style="opacity:.5"><line style="fill:none;stroke:#939598;stroke-width:.5;stroke-linecap:square" x1="118.29" y1="58.73" x2="118.29" y2="48.62"/><polygon style="fill:#939598" points="120.34 57.07 119.97 56.73 118.29 58.54 116.62 56.73 116.25 57.07 118.29 59.27"/></g><line style="fill:none;stroke:#ed1f24;stroke-width:.4994;stroke-linecap:square" x1="103.44" y1="47.67" x2="207.72" y2="149.27"/><line style="fill:none;stroke:#6d6e70;stroke-width:.5;stroke-linecap:square" x1="103.44" y1="149.27" x2="103.44" y2="22.06"/><line style="fill:none;stroke:#6d6e70;stroke-width:.5;stroke-linecap:square" x1="103.44" y1="149.27" x2="233.62" y2="149.27"/></svg>