<svg version="1.1" xmlns="http://www.w3.org/2000/svg" x="0" y="0" viewBox="0 0 311.81 355.55" style="enable-background:new 0 0 311.81 355.55" xml:space="preserve"><path style="fill:#e3e7f4;stroke:#253b71;stroke-width:.5;stroke-miterlimit:10" d="M125.33 34.45c4.44 13.27 8.93 24.45 12.79 33.32 7.7 17.72 13.39 30.6 24.44 46 7.24 10.09 16.97 23.42 34 35.78 17.31 12.56 34.65 18.67 47.56 21.78"/><path style="fill:#e3e7f4;stroke:#f49323;stroke-width:.5;stroke-linecap:square;stroke-linejoin:round" d="M242.89 170.17c-3.04-19.4-11.16-50.32-34.45-79.7-25.28-31.89-57.45-48.13-83.75-56.42"/><line style="fill:none;stroke:#6d6e71;stroke-width:.5;stroke-linecap:square;stroke-linejoin:round" x1="76.86" y1="179.78" x2="74.73" y2="179.78"/><line style="fill:none;stroke:#6d6e71;stroke-width:.5;stroke-linecap:square;stroke-linejoin:round" x1="76.86" y1="167.78" x2="74.73" y2="167.78"/><line style="fill:none;stroke:#6d6e71;stroke-width:.5;stroke-linecap:square;stroke-linejoin:round" x1="76.86" y1="155.78" x2="74.73" y2="155.78"/><line style="fill:none;stroke:#6d6e71;stroke-width:.5;stroke-linecap:square;stroke-linejoin:round" x1="76.86" y1="143.78" x2="74.73" y2="143.78"/><line style="fill:none;stroke:#6d6e71;stroke-width:.5;stroke-linecap:square;stroke-linejoin:round" x1="76.86" y1="131.78" x2="74.73" y2="131.78"/><line style="fill:none;stroke:#6d6e71;stroke-width:.5;stroke-linecap:square;stroke-linejoin:round" x1="76.86" y1="119.78" x2="74.73" y2="119.78"/><line style="fill:none;stroke:#6d6e71;stroke-width:.5;stroke-linecap:square;stroke-linejoin:round" x1="76.86" y1="107.78" x2="74.73" y2="107.78"/><line style="fill:none;stroke:#6d6e71;stroke-width:.5;stroke-linecap:square;stroke-linejoin:round" x1="76.86" y1="95.78" x2="74.73" y2="95.78"/><line style="fill:none;stroke:#6d6e71;stroke-width:.5;stroke-linecap:square;stroke-linejoin:round" x1="76.86" y1="83.78" x2="74.73" y2="83.78"/><line style="fill:none;stroke:#6d6e71;stroke-width:.5;stroke-linecap:square;stroke-linejoin:round" x1="76.86" y1="71.78" x2="74.73" y2="71.78"/><line style="fill:none;stroke:#6d6e71;stroke-width:.5;stroke-linecap:square;stroke-linejoin:round" x1="76.86" y1="35.78" x2="74.73" y2="35.78"/><line style="fill:none;stroke:#6d6e71;stroke-width:.5;stroke-linecap:square;stroke-linejoin:round" x1="76.86" y1="23.78" x2="74.73" y2="23.78"/><line style="fill:none;stroke:#6d6e71;stroke-width:.5;stroke-linecap:square;stroke-linejoin:round" x1="76.86" y1="59.78" x2="74.73" y2="59.78"/><line style="fill:none;stroke:#6d6e71;stroke-width:.5;stroke-linecap:square;stroke-linejoin:round" x1="76.86" y1="47.78" x2="74.73" y2="47.78"/><line style="fill:none;stroke:#6d6e71;stroke-width:.5;stroke-linecap:square;stroke-linejoin:round" x1="76.86" y1="11.78" x2="74.73" y2="11.78"/><line style="fill:none;stroke:#6d6e71;stroke-width:.5;stroke-linecap:square" x1="77.13" y1="179.9" x2="77.13" y2="182.03"/><line style="fill:none;stroke:#6d6e71;stroke-width:.5;stroke-linecap:square" x1="84.13" y1="179.9" x2="84.13" y2="182.03"/><line style="fill:none;stroke:#6d6e71;stroke-width:.5;stroke-linecap:square" x1="91.13" y1="179.9" x2="91.13" y2="182.03"/><line style="fill:none;stroke:#6d6e71;stroke-width:.5;stroke-linecap:square" x1="98.13" y1="179.9" x2="98.13" y2="182.03"/><line style="fill:none;stroke:#6d6e71;stroke-width:.5;stroke-linecap:square" x1="105.13" y1="179.9" x2="105.13" y2="182.03"/><line style="fill:none;stroke:#6d6e71;stroke-width:.5;stroke-linecap:square" x1="112.13" y1="179.9" x2="112.13" y2="182.03"/><line style="fill:none;stroke:#6d6e71;stroke-width:.5;stroke-linecap:square" x1="119.13" y1="179.9" x2="119.13" y2="182.03"/><line style="fill:none;stroke:#6d6e71;stroke-width:.5;stroke-linecap:square" x1="126.13" y1="179.9" x2="126.13" y2="182.03"/><line style="fill:none;stroke:#6d6e71;stroke-width:.5;stroke-linecap:square" x1="133.13" y1="179.9" x2="133.13" y2="182.03"/><line style="fill:none;stroke:#6d6e71;stroke-width:.5;stroke-linecap:square" x1="140.13" y1="179.9" x2="140.13" y2="182.03"/><line style="fill:none;stroke:#6d6e71;stroke-width:.5;stroke-linecap:square" x1="147.13" y1="179.9" x2="147.13" y2="182.03"/><line style="fill:none;stroke:#6d6e71;stroke-width:.5;stroke-linecap:square" x1="154.13" y1="179.9" x2="154.13" y2="182.03"/><line style="fill:none;stroke:#6d6e71;stroke-width:.5;stroke-linecap:square" x1="160.13" y1="179.9" x2="160.13" y2="182.03"/><line style="fill:none;stroke:#6d6e71;stroke-width:.5;stroke-linecap:square" x1="167.13" y1="179.9" x2="167.13" y2="182.03"/><line style="fill:none;stroke:#6d6e71;stroke-width:.5;stroke-linecap:square" x1="174.13" y1="179.9" x2="174.13" y2="182.03"/><line style="fill:none;stroke:#6d6e71;stroke-width:.5;stroke-linecap:square" x1="181.13" y1="179.9" x2="181.13" y2="182.03"/><line style="fill:none;stroke:#6d6e71;stroke-width:.5;stroke-linecap:square" x1="188.13" y1="179.9" x2="188.13" y2="182.03"/><line style="fill:none;stroke:#6d6e71;stroke-width:.5;stroke-linecap:square" x1="195.13" y1="179.9" x2="195.13" y2="182.03"/><line style="fill:none;stroke:#6d6e71;stroke-width:.5;stroke-linecap:square" x1="202.13" y1="179.9" x2="202.13" y2="182.03"/><line style="fill:none;stroke:#6d6e71;stroke-width:.5;stroke-linecap:square" x1="209.13" y1="179.9" x2="209.13" y2="182.03"/><line style="fill:none;stroke:#6d6e71;stroke-width:.5;stroke-linecap:square" x1="216.13" y1="179.9" x2="216.13" y2="182.03"/><line style="fill:none;stroke:#6d6e71;stroke-width:.5;stroke-linecap:square" x1="223.13" y1="179.9" x2="223.13" y2="182.03"/><line style="fill:none;stroke:#6d6e71;stroke-width:.5;stroke-linecap:square" x1="230.13" y1="179.9" x2="230.13" y2="182.03"/><line style="fill:none;stroke:#6d6e71;stroke-width:.5;stroke-linecap:square" x1="237.13" y1="179.9" x2="237.13" y2="182.03"/><line style="fill:none;stroke:#6d6e71;stroke-width:.5;stroke-linecap:square" x1="244.13" y1="179.9" x2="244.13" y2="182.03"/><text transform="translate(68.864 182.026)" style="font-family:'Asap-Regular';font-size:7px">0</text><text transform="translate(75.25 189.383)" style="font-family:'Asap-Regular';font-size:7px">0</text><text transform="translate(65.374 158.14)" style="font-family:'Asap-Regular';font-size:7px">10</text><text transform="translate(65.654 133.553)" style="font-family:'Asap-Regular';font-size:7px">20</text><text transform="translate(66.01 110.08)" style="font-family:'Asap-Regular';font-size:7px">30</text><text transform="translate(66.01 85.636)" style="font-family:'Asap-Regular';font-size:7px">40</text><text transform="translate(66.29 62.494)" style="font-family:'Asap-Regular';font-size:7px">50</text><text transform="translate(66.01 37.424)" style="font-family:'Asap-Regular';font-size:7px">60</text><text transform="translate(66.01 13.858)" style="font-family:'Asap-Regular';font-size:7px">70</text><text transform="translate(102.411 189.383)" style="font-family:'Asap-Regular';font-size:7px">4</text><text transform="translate(131.22 189.383)" style="font-family:'Asap-Regular';font-size:7px">8</text><text transform="translate(156.383 189.383)" style="font-family:'Asap-Regular';font-size:7px">12</text><text transform="translate(184.325 189.383)" style="font-family:'Asap-Regular';font-size:7px">16</text><text transform="translate(212.325 189.382)" style="font-family:'Asap-Regular';font-size:7px">20</text><text transform="translate(240.325 189.383)" style="font-family:'Asap-Regular';font-size:7px">24</text><text transform="matrix(0 -.9726 1 0 53.72 119.028)" style="font-family:'Asap-Medium';font-size:8px">Bushels of grain</text><text transform="translate(119.722 201.356)" style="font-family:'Asap-Medium';font-size:8px">Angela’s hours of free time</text><path style="fill:none;stroke:#6d6e71;stroke-width:.5;stroke-linecap:square;stroke-linejoin:round" d="M77.13 11.78v167.81"/><line style="fill:none;stroke:#939598;stroke-width:.5;stroke-linecap:square;stroke-linejoin:round;stroke-dasharray:1.4173" x1="188.13" y1="179.78" x2="188.13" y2="68.63"/><text transform="translate(80.404 40.805)" style="font-family:'Asap-Regular';font-size:6px">Feasible frontier</text><text transform="translate(87.019 63.004)" style="font-family:'Asap-Regular';font-size:6px">Feasible set</text><text transform="translate(249.334 173.227)" style="font-family:'Asap-Regular';font-size:7px">IC</text><text transform="matrix(.583 0 0 .583 255.648 175.558)" style="font-family:'Asap-Regular';font-size:7px">1</text><path style="fill:none;stroke:#f49323;stroke-width:.5;stroke-linecap:square;stroke-linejoin:round" d="M244.13 179.78c-1.76-17.37-8.03-54.42-35.69-89.31C161.1 30.74 89.61 25.94 77.68 25.33"/><line style="fill:none;stroke:#6d6e71;stroke-width:.5;stroke-linecap:square" x1="77.13" y1="179.78" x2="244.13" y2="179.78"/><path style="fill:none;stroke:#263a71;stroke-width:.5;stroke-miterlimit:10" d="M118.56 12.21c6.41 23.33 13.7 42.1 19.56 55.56 7.7 17.72 13.39 30.6 24.44 46 7.24 10.09 16.97 23.42 34 35.78 17.31 12.56 34.65 18.67 47.56 21.78"/><line style="fill:none;stroke:#939598;stroke-width:.5;stroke-linecap:square;stroke-linejoin:round" x1="185.44" y1="72.32" x2="185.44" y2="136.34"/><polygon style="fill:#939598" points="183.4 73.98 183.77 74.32 185.44 72.51 187.12 74.32 187.49 73.98 185.44 71.78"/><polygon style="fill:#939598" points="183.4 134.68 183.77 134.34 185.44 136.15 187.12 134.34 187.49 134.68 185.44 136.88"/><line style="fill:none;stroke:#939598;stroke-width:.5;stroke-linecap:square;stroke-linejoin:round" x1="185.44" y1="146.53" x2="185.44" y2="177.45"/><polygon style="fill:#939598" points="183.4 148.19 183.77 148.53 185.44 146.72 187.12 148.53 187.49 148.19 185.44 145.99"/><polygon style="fill:#939598" points="183.4 175.79 183.77 175.45 185.44 177.26 187.12 175.45 187.49 175.79 185.44 177.99"/><text transform="translate(163.439 86.631)"><tspan x="0" y="0" style="font-family:'Asap-Regular';font-size:6px">Bruno’s</tspan><tspan x="0" y="7.2" style="font-family:'Asap-Regular';font-size:6px">share</tspan></text><text transform="translate(162.21 159.715)"><tspan x="0" y="0" style="font-family:'Asap-Regular';font-size:6px">Angela’s</tspan><tspan x="0" y="7.2" style="font-family:'Asap-Regular';font-size:6px">share</tspan></text><line style="fill:none;stroke:#bcbec0;stroke-width:.5;stroke-linecap:square;stroke-linejoin:round;stroke-miterlimit:10" x1="177.39" y1="133.86" x2="197.78" y2="152.2"/><path d="M189.26 143.78a1.129 1.129 0 11-2.262.002 1.129 1.129 0 012.262-.002z"/><text transform="translate(191.43 66.07)" style="font-family:'Asap-Regular';font-size:6px">A</text><text transform="translate(192.48 140.191)" style="font-family:'Asap-Regular';font-size:6px">D</text><line style="fill:none;stroke:#bcbec0;stroke-width:.5;stroke-linecap:square;stroke-linejoin:round;stroke-miterlimit:10" x1="178.59" y1="59.82" x2="198.92" y2="78.16"/><path d="M189.19 68.99a1.129 1.129 0 11-2.262.002 1.129 1.129 0 012.262-.002z"/><line style="fill:none;stroke:#6d6e71;stroke-width:.5;stroke-linecap:square;stroke-linejoin:round" x1="76.6" y1="321.99" x2="74.47" y2="321.99"/><line style="fill:none;stroke:#6d6e71;stroke-width:.5;stroke-linecap:square;stroke-linejoin:round" x1="76.6" y1="309.99" x2="74.47" y2="309.99"/><line style="fill:none;stroke:#6d6e71;stroke-width:.5;stroke-linecap:square;stroke-linejoin:round" x1="76.6" y1="297.99" x2="74.47" y2="297.99"/><line style="fill:none;stroke:#6d6e71;stroke-width:.5;stroke-linecap:square;stroke-linejoin:round" x1="76.6" y1="285.99" x2="74.47" y2="285.99"/><line style="fill:none;stroke:#6d6e71;stroke-width:.5;stroke-linecap:square;stroke-linejoin:round" x1="76.6" y1="273.99" x2="74.47" y2="273.99"/><line style="fill:none;stroke:#6d6e71;stroke-width:.5;stroke-linecap:square;stroke-linejoin:round" x1="76.6" y1="261.99" x2="74.47" y2="261.99"/><line style="fill:none;stroke:#6d6e71;stroke-width:.5;stroke-linecap:square;stroke-linejoin:round" x1="76.6" y1="249.99" x2="74.47" y2="249.99"/><line style="fill:none;stroke:#6d6e71;stroke-width:.5;stroke-linecap:square;stroke-linejoin:round" x1="76.6" y1="237.99" x2="74.47" y2="237.99"/><line style="fill:none;stroke:#6d6e71;stroke-width:.5;stroke-linecap:square;stroke-linejoin:round" x1="76.6" y1="225.99" x2="74.47" y2="225.99"/><line style="fill:none;stroke:#6d6e71;stroke-width:.5;stroke-linecap:square" x1="76.87" y1="322.11" x2="76.87" y2="324.24"/><line style="fill:none;stroke:#6d6e71;stroke-width:.5;stroke-linecap:square" x1="104.87" y1="322.11" x2="104.87" y2="324.24"/><line style="fill:none;stroke:#6d6e71;stroke-width:.5;stroke-linecap:square" x1="132.87" y1="322.11" x2="132.87" y2="324.24"/><line style="fill:none;stroke:#6d6e71;stroke-width:.5;stroke-linecap:square" x1="159.87" y1="322.11" x2="159.87" y2="324.24"/><line style="fill:none;stroke:#6d6e71;stroke-width:.5;stroke-linecap:square" x1="187.87" y1="322.11" x2="187.87" y2="324.24"/><line style="fill:none;stroke:#6d6e71;stroke-width:.5;stroke-linecap:square" x1="215.87" y1="322.11" x2="215.87" y2="324.24"/><line style="fill:none;stroke:#6d6e71;stroke-width:.5;stroke-linecap:square" x1="243.87" y1="322.11" x2="243.87" y2="324.24"/><text transform="translate(68.607 324.236)" style="font-family:'Asap-Regular';font-size:7px">0</text><text transform="translate(74.993 331.593)" style="font-family:'Asap-Regular';font-size:7px">0</text><text transform="translate(65.117 300.35)" style="font-family:'Asap-Regular';font-size:7px">10</text><text transform="translate(65.397 275.763)" style="font-family:'Asap-Regular';font-size:7px">20</text><text transform="translate(65.754 252.29)" style="font-family:'Asap-Regular';font-size:7px">30</text><text transform="translate(65.754 227.846)" style="font-family:'Asap-Regular';font-size:7px">40</text><text transform="translate(102.154 331.593)" style="font-family:'Asap-Regular';font-size:7px">4</text><text transform="translate(130.962 331.593)" style="font-family:'Asap-Regular';font-size:7px">8</text><text transform="translate(156.126 331.594)" style="font-family:'Asap-Regular';font-size:7px">12</text><text transform="translate(184.068 331.593)" style="font-family:'Asap-Regular';font-size:7px">16</text><text transform="translate(212.068 331.593)" style="font-family:'Asap-Regular';font-size:7px">20</text><text transform="translate(240.068 331.593)" style="font-family:'Asap-Regular';font-size:7px">24</text><text transform="matrix(0 -.9726 1 0 55.416 314.794)" style="font-family:'Asap-Medium';font-size:8px">Bruno’s bushels of grain</text><text transform="translate(119.464 343.567)" style="font-family:'Asap-Medium';font-size:8px">Angela’s hours of free time</text><path style="fill:none;stroke:#6d6e71;stroke-width:.5;stroke-linecap:square;stroke-linejoin:round" d="M76.87 225.99v95.81"/><text transform="translate(65.753 288.277)" style="font-family:'Asap-Regular';font-size:7px">15</text><text transform="translate(65.654 264.432)" style="font-family:'Asap-Regular';font-size:7px">25</text><text transform="translate(65.753 240.18)" style="font-family:'Asap-Regular';font-size:7px">35</text><text transform="translate(68.864 311.99)" style="font-family:'Asap-Regular';font-size:7px">5</text><path style="fill:none;stroke:#3a53a4;stroke-width:.5;stroke-linecap:square;stroke-linejoin:round;stroke-miterlimit:10" d="M124.59 321.39c1.44-3.8 3.56-9.14 6.4-15.4 4.34-9.6 8.39-18.56 14.58-27.66 7.86-11.56 15.85-23.32 30.34-28.1 0 0 10.56-3.49 21.57-1.35 22.41 4.36 41.07 33.88 46.4 73.1"/><line style="fill:none;stroke:#6d6e71;stroke-width:.5;stroke-linecap:square" x1="76.87" y1="321.99" x2="243.87" y2="321.99"/><line style="fill:none;stroke:#939598;stroke-width:.5;stroke-linecap:square;stroke-linejoin:round;stroke-dasharray:1.4173" x1="215.87" y1="259.49" x2="76.87" y2="259.49"/><line style="fill:none;stroke:#939598;stroke-width:.5;stroke-linecap:square;stroke-linejoin:round;stroke-dasharray:1.4173" x1="159.87" y1="321.02" x2="159.87" y2="258.9"/><line style="fill:none;stroke:#939598;stroke-width:.5;stroke-linecap:square;stroke-linejoin:round;stroke-dasharray:1.4173" x1="187.87" y1="321.02" x2="187.87" y2="247.35"/><line style="fill:none;stroke:#939598;stroke-width:.5;stroke-linecap:square;stroke-linejoin:round;stroke-dasharray:1.4173" x1="215.87" y1="321.02" x2="215.87" y2="258.9"/><line style="fill:none;stroke:#939598;stroke-width:.5;stroke-linecap:square;stroke-linejoin:round;stroke-dasharray:1.4173" x1="187.87" y1="247.8" x2="76.87" y2="247.8"/><line style="fill:none;stroke:#939598;stroke-width:.5;stroke-linecap:square;stroke-linejoin:round;stroke-dasharray:1.4173" x1="160.13" y1="179.25" x2="160.13" y2="49.32"/><line style="fill:none;stroke:#bcbec0;stroke-width:.5;stroke-linecap:square;stroke-linejoin:round;stroke-miterlimit:10" x1="149.89" y1="95.88" x2="170.11" y2="126.55"/><path d="M161.26 110.25a1.129 1.129 0 11-2.262.002 1.129 1.129 0 012.262-.002z"/><line style="fill:none;stroke:#bcbec0;stroke-width:.5;stroke-linecap:square;stroke-linejoin:round;stroke-miterlimit:10" x1="149.12" y1="42.19" x2="172.69" y2="56.14"/><path d="M161.26 49.66a1.129 1.129 0 11-2.262.002 1.129 1.129 0 012.262-.002z"/><text transform="translate(164.02 46.626)" style="font-family:'Asap-Regular';font-size:6px">H</text><text transform="translate(164.603 109.116)" style="font-family:'Asap-Regular';font-size:6px">J</text><line style="fill:none;stroke:#939598;stroke-width:.5;stroke-linecap:square;stroke-linejoin:round;stroke-dasharray:1.4173" x1="216.39" y1="179.59" x2="216.39" y2="102.61"/><line style="fill:none;stroke:#bcbec0;stroke-width:.5;stroke-linecap:square;stroke-linejoin:round;stroke-miterlimit:10" x1="202.85" y1="155.43" x2="227.5" y2="167.44"/><path d="M217.26 161.77a1.129 1.129 0 11-2.262.002 1.129 1.129 0 012.262-.002z"/><text transform="translate(219.467 95.685)" style="font-family:'Asap-Regular';font-size:6px">K</text><text transform="translate(219.535 158.181)" style="font-family:'Asap-Regular';font-size:6px">L</text><line style="fill:none;stroke:#bcbec0;stroke-width:.5;stroke-linecap:square;stroke-linejoin:round;stroke-miterlimit:10" x1="208.65" y1="88.94" x2="224.13" y2="111.7"/><path d="M217.52 101.46a1.129 1.129 0 11-2.262.002 1.129 1.129 0 012.262-.002z"/><g><line style="fill:none;stroke:#939598;stroke-width:.5;stroke-linecap:square;stroke-linejoin:round" x1="122.32" y1="61.16" x2="143.34" y2="61.16"/><polygon style="fill:#939598" points="141.68 63.21 141.34 62.84 143.14 61.17 141.34 59.49 141.68 59.12 143.88 61.17"/></g></svg>