<svg version="1.1" xmlns="http://www.w3.org/2000/svg" x="0" y="0" viewBox="0 0 311.81 210.7" style="enable-background:new 0 0 311.81 210.7" xml:space="preserve"><polyline style="fill:#e3e3f2" points="31.97 92.37 31.97 142.42 48.83 140.13 63.85 138 83.45 134.1 99.65 130.2 110.25 127.32 110.25 92.78"/><polygon style="fill:#fee6db" points="31.97 15.57 31.97 91.51 110.25 91.51 110.25 74.97 93.47 63.4 76.34 51.21 62.87 41.05 50.41 31.16 39.03 21.68"/><line style="fill:none;stroke:#6d6e71;stroke-width:.5;stroke-linecap:square" x1="293.61" y1="175.52" x2="31.97" y2="175.52"/><line style="fill:none;stroke:#6d6e71;stroke-width:.5;stroke-linecap:square;stroke-linejoin:round" x1="31.97" y1="175.52" x2="31.97" y2="177.64"/><line style="fill:none;stroke:#6d6e71;stroke-width:.5;stroke-linecap:square;stroke-linejoin:round" x1="58.2" y1="175.71" x2="58.2" y2="177.83"/><line style="fill:none;stroke:#6d6e71;stroke-width:.5;stroke-linecap:square;stroke-linejoin:round" x1="84.11" y1="175.71" x2="84.11" y2="177.83"/><line style="fill:none;stroke:#6d6e71;stroke-width:.5;stroke-linecap:square;stroke-linejoin:round" x1="110.71" y1="175.71" x2="110.71" y2="177.83"/><line style="fill:none;stroke:#6d6e71;stroke-width:.5;stroke-linecap:square;stroke-linejoin:round" x1="136.77" y1="176.02" x2="136.77" y2="178.14"/><line style="fill:none;stroke:#6d6e71;stroke-width:.5;stroke-linecap:square;stroke-linejoin:round" x1="162.79" y1="176.02" x2="162.79" y2="178.14"/><line style="fill:none;stroke:#6d6e71;stroke-width:.5;stroke-linecap:square;stroke-linejoin:round" x1="189.13" y1="176.02" x2="189.13" y2="178.14"/><line style="fill:none;stroke:#6d6e71;stroke-width:.5;stroke-linecap:square;stroke-linejoin:round" x1="215.19" y1="175.52" x2="215.19" y2="177.64"/><line style="fill:none;stroke:#6d6e71;stroke-width:.5;stroke-linecap:square;stroke-linejoin:round" x1="241.48" y1="176.02" x2="241.48" y2="178.14"/><line style="fill:none;stroke:#6d6e71;stroke-width:.5;stroke-linecap:square;stroke-linejoin:round" x1="267.55" y1="175.52" x2="267.55" y2="177.64"/><line style="fill:none;stroke:#6d6e71;stroke-width:.5;stroke-linecap:square;stroke-linejoin:round" x1="293.92" y1="175.52" x2="293.92" y2="177.64"/><line style="fill:none;stroke:#6d6e71;stroke-width:.5;stroke-linecap:square;stroke-linejoin:round" x1="31.63" y1="175.52" x2="29.51" y2="175.52"/><line style="fill:none;stroke:#6d6e71;stroke-width:.5;stroke-linecap:square;stroke-linejoin:round" x1="31.63" y1="142.42" x2="29.51" y2="142.42"/><line style="fill:none;stroke:#6d6e71;stroke-width:.5;stroke-linecap:square;stroke-linejoin:round" x1="31.55" y1="109.25" x2="29.43" y2="109.25"/><line style="fill:none;stroke:#6d6e71;stroke-width:.5;stroke-linecap:square;stroke-linejoin:round" x1="31.59" y1="75.77" x2="29.47" y2="75.77"/><line style="fill:none;stroke:#6d6e71;stroke-width:.5;stroke-linecap:square;stroke-linejoin:round" x1="31.54" y1="42.79" x2="29.42" y2="42.79"/><line style="fill:none;stroke:#6d6e71;stroke-width:.5;stroke-linecap:square;stroke-linejoin:round" x1="31.97" y1="9.62" x2="29.85" y2="9.62"/><rect x="6.81" y="172.05" style="fill:none" width="33.43" height="6.92"/><text transform="translate(21.66 177.318)" style="font-family:'Asap-Regular';font-size:7px">0</text><rect x="14.91" y="182.13" style="fill:none" width="33.43" height="6.92"/><text transform="translate(29.756 187.397)" style="font-family:'Asap-Regular';font-size:7px">0</text><rect x="6.81" y="140.13" style="fill:none" width="33.43" height="6.92"/><text transform="translate(21.66 145.398)" style="font-family:'Asap-Regular';font-size:7px">1</text><rect x="6.81" y="105.79" style="fill:none" width="33.43" height="6.92"/><text transform="translate(21.66 111.05)" style="font-family:'Asap-Regular';font-size:7px">2</text><rect x="6.81" y="72.56" style="fill:none" width="33.43" height="6.92"/><text transform="translate(21.66 77.821)" style="font-family:'Asap-Regular';font-size:7px">3</text><rect x="6.81" y="39.33" style="fill:none" width="33.43" height="6.92"/><text transform="translate(21.66 44.592)" style="font-family:'Asap-Regular';font-size:7px">4</text><rect x="6.81" y="6.57" style="fill:none" width="33.43" height="6.92"/><text transform="translate(21.66 11.838)" style="font-family:'Asap-Regular';font-size:7px">5</text><rect x="41.48" y="182.13" style="fill:none" width="33.43" height="6.92"/><text transform="translate(50.015 187.397)" style="font-family:'Asap-Regular';font-size:7px">1,000</text><rect x="67.39" y="182.13" style="fill:none" width="33.43" height="6.92"/><text transform="translate(75.926 187.397)" style="font-family:'Asap-Regular';font-size:7px">2,000</text><rect x="93.68" y="182.13" style="fill:none" width="33.43" height="6.92"/><text transform="translate(102.219 187.397)" style="font-family:'Asap-Regular';font-size:7px">3,000</text><rect x="120.05" y="182.13" style="fill:none" width="33.43" height="6.92"/><text transform="translate(128.588 187.397)" style="font-family:'Asap-Regular';font-size:7px">4,000</text><rect x="146.07" y="182.13" style="fill:none" width="33.43" height="6.92"/><text transform="translate(154.607 187.397)" style="font-family:'Asap-Regular';font-size:7px">5,000</text><rect x="172.41" y="182.13" style="fill:none" width="33.43" height="6.92"/><text transform="translate(180.945 187.397)" style="font-family:'Asap-Regular';font-size:7px">6,000</text><rect x="198.47" y="182.13" style="fill:none" width="33.43" height="6.92"/><text transform="translate(207.009 187.397)" style="font-family:'Asap-Regular';font-size:7px">7,000</text><rect x="224.77" y="182.13" style="fill:none" width="33.43" height="6.92"/><text transform="translate(233.302 187.397)" style="font-family:'Asap-Regular';font-size:7px">8,000</text><rect x="250.83" y="182.13" style="fill:none" width="33.43" height="6.92"/><text transform="translate(259.365 187.397)" style="font-family:'Asap-Regular';font-size:7px">9,000</text><rect x="276.9" y="182.13" style="fill:none" width="33.43" height="6.92"/><text transform="translate(283.557 187.397)" style="font-family:'Asap-Regular';font-size:7px">10,000</text><rect x="127.12" y="197.49" style="fill:none" width="117.02" height="7.98"/><text transform="translate(127.117 203.517)"><tspan x="0" y="0" style="font-family:'Asap-Medium';font-size:8px">Quantity of loaves, </tspan><tspan x="67.84" y="0" style="font-family:'Asap-MediumItalic';font-size:8px">Q</tspan></text><text transform="rotate(-90 63.234 51.256)"><tspan x="0" y="0" style="font-family:'Asap-Medium';font-size:8px">Price, </tspan><tspan x="21.3" y="0" style="font-family:'Asap-MediumItalic';font-size:8px">P (€)</tspan></text><text transform="translate(212.844 54.016)" style="font-family:'Asap-Regular';font-size:6px">Supply, P = C’(Q)</text><text transform="translate(222.973 130.292)" style="font-family:'Asap-Regular';font-size:6px">Demand, P = f(Q)</text><text transform="translate(23.531 97.272)" style="font-family:'Asap-Bold';font-size:7px">P</text><text transform="matrix(.583 0 0 .583 27.521 99.603)" style="font-family:'Asap-Bold';font-size:7px">0</text><text transform="translate(109.834 198.548)" style="font-family:'Asap-Bold';font-size:7px">Q</text><text transform="matrix(.583 0 0 .583 114.95 200.879)" style="font-family:'Asap-Bold';font-size:7px">0</text><line style="fill:none;stroke:#939598;stroke-width:.5;stroke-linejoin:round;stroke-dasharray:1.417" x1="110.71" y1="75.66" x2="110.71" y2="175.29"/><text transform="translate(41.991 79.481)" style="font-family:'Asap-Regular';font-size:6px">Consumer surplus</text><text transform="translate(42.333 120.813)" style="font-family:'Asap-Regular';font-size:6px">Producer surplus</text><line style="fill:none;stroke:#939598;stroke-width:.5;stroke-linejoin:round;stroke-dasharray:1.417" x1="110.25" y1="92.11" x2="32.76" y2="92.11"/><path style="fill:none;stroke:#ed2124;stroke-width:.5;stroke-linejoin:round" d="M31.97 15.57c75.9 66.59 163.97 112.63 256.98 142.72"/><path style="fill:none;stroke:#3a53a4;stroke-width:.5;stroke-linejoin:round" d="M31.97 142.42c94.85-9.6 181.16-50.15 255.38-101.83"/><line style="fill:none;stroke:#6d6e71;stroke-width:.5;stroke-linecap:square" x1="31.97" y1="10.04" x2="31.97" y2="175.52"/></svg>