<svg version="1.1" xmlns="http://www.w3.org/2000/svg" x="0" y="0" viewBox="0 0 311.81 167.95" style="enable-background:new 0 0 311.81 167.95" xml:space="preserve"><polygon style="fill:#f2e8f2" points="185.4 87.48 244.3 87.48 244.3 146.38"/><polygon style="fill:#f2e8f2" points="185.4 28.58 244.3 28.58 244.3 87.48"/><polygon style="fill:#f2e8f2" points="244.3 28.58 303.2 28.58 303.2 87.48"/><polygon style="fill:#f2e8f2" points="244.3 87.48 303.2 87.48 303.2 146.38"/><polygon style="fill:#e3e8f5" points="244.3 146.38 185.4 146.38 185.4 87.48"/><polygon style="fill:#e3e8f5" points="303.2 146.38 244.3 146.38 244.3 87.48"/><polygon style="fill:#e3e8f5" points="303.2 87.48 244.3 87.48 244.3 28.58"/><polygon style="fill:#e3e8f5" points="244.47 87.48 185.57 87.48 185.57 28.58"/><line style="fill:#929497;stroke:#fff;stroke-width:.5;stroke-miterlimit:10" x1="185.4" y1="87.17" x2="244.3" y2="146.08"/><line style="fill:none;stroke:#6d6e70;stroke-width:.5;stroke-miterlimit:10" x1="244.3" y1="15.16" x2="244.3" y2="28.58"/><polyline style="fill:#b8519d;stroke:#6d6e70;stroke-width:.499;stroke-miterlimit:10" points="185.4 15.91 185.4 3.5 303.2 3.5 303.2 15.91"/><line style="fill:#929497;stroke:#fff;stroke-width:.5;stroke-miterlimit:10" x1="244.3" y1="28.58" x2="303.2" y2="87.48"/><line style="fill:#929497;stroke:#fff;stroke-width:.5;stroke-miterlimit:10" x1="185.4" y1="28.58" x2="244.3" y2="87.48"/><line style="fill:#929497;stroke:#fff;stroke-width:.5;stroke-miterlimit:10" x1="244.3" y1="87.17" x2="303.2" y2="146.08"/><text transform="translate(211.106 24.827)" style="font-family:'Asap-Regular';font-size:7px">H</text><text transform="translate(271.06 24.828)" style="font-family:'Asap-Regular';font-size:7px">L</text><text transform="translate(238.738 12.598)" style="fill:#fff;font-family:'Asap-Regular';font-size:8px">Kit</text><line style="fill:none;stroke:#6d6e70;stroke-width:.5;stroke-miterlimit:10" x1="303.2" y1="15.91" x2="303.2" y2="28.58"/><line style="fill:none;stroke:#6d6e70;stroke-width:.5;stroke-miterlimit:10" x1="185.4" y1="28.58" x2="185.4" y2="15.91"/><rect x="185.4" y="28.58" style="fill:none;stroke:#6d6e70;stroke-width:.5;stroke-miterlimit:10" width="117.8" height="117.8"/><line style="fill:none;stroke:#6d6e70;stroke-width:.5;stroke-miterlimit:10" x1="244.3" y1="28.58" x2="244.3" y2="146.38"/><line style="fill:none;stroke:#6d6e70;stroke-width:.5;stroke-miterlimit:10" x1="185.4" y1="87.48" x2="303.2" y2="87.48"/><text transform="translate(219.099 49.306)" style="fill:#231f20;font-family:'Asap-Medium';font-size:7px">520</text><text transform="translate(193.472 76.62)" style="fill:#231f20;font-family:'Asap-Medium';font-size:7px">520</text><text transform="translate(278.547 49.837)" style="fill:#231f20;font-family:'Asap-Medium';font-size:7px">530</text><text transform="translate(256.423 76.151)" style="fill:#231f20;font-family:'Asap-Medium';font-size:7px">182</text><text transform="translate(219.099 107.625)" style="fill:#231f20;font-family:'Asap-Medium';font-size:7px">182</text><text transform="translate(193.473 134.106)" style="fill:#231f20;font-family:'Asap-Medium';font-size:7px">530</text><text transform="translate(278.547 107.625)" style="fill:#231f20;font-family:'Asap-Medium';font-size:7px">300</text><text transform="translate(256.424 133.62)" style="fill:#231f20;font-family:'Asap-Medium';font-size:7px">300</text><polyline style="fill:#0872b9;stroke:#6d6e70;stroke-width:.499;stroke-miterlimit:10" points="173.07 146.38 160.67 146.38 160.67 28.58 173.07 28.58"/><text transform="rotate(-90 150.955 -30.036)" style="font-family:'Asap-Regular';font-size:7px">L</text><text transform="rotate(-90 121.778 -59.213)" style="font-family:'Asap-Regular';font-size:7px">H</text><text transform="rotate(-90 135.364 -34.398)" style="fill:#fff;font-family:'Asap-Regular';font-size:8px">Wanda</text><line style="fill:none;stroke:#6d6e70;stroke-width:.5;stroke-miterlimit:10" x1="173.07" y1="28.58" x2="185.74" y2="28.58"/><line style="fill:none;stroke:#6d6e70;stroke-width:.5;stroke-miterlimit:10" x1="185.74" y1="146.38" x2="173.07" y2="146.38"/><line style="fill:none;stroke:#6d6e70;stroke-width:.5;stroke-miterlimit:10" x1="173.07" y1="87.48" x2="185.74" y2="87.48"/><polygon style="fill:#f2e8f2" points="34.34 87.48 93.24 87.48 93.24 146.38"/><polygon style="fill:#f2e8f2" points="34.34 28.58 93.24 28.58 93.24 87.48"/><polygon style="fill:#f2e8f2" points="93.24 28.58 152.14 28.58 152.14 87.48"/><polygon style="fill:#f2e8f2" points="93.24 87.48 152.14 87.48 152.14 146.38"/><polygon style="fill:#e3e8f5" points="93.24 146.38 34.34 146.38 34.34 87.48"/><polygon style="fill:#e3e8f5" points="152.14 146.38 93.24 146.38 93.24 87.48"/><polygon style="fill:#e3e8f5" points="152.14 87.48 93.24 87.48 93.24 28.58"/><polygon style="fill:#e3e8f5" points="93.41 87.48 34.51 87.48 34.51 28.58"/><line style="fill:#929497;stroke:#fff;stroke-width:.5;stroke-miterlimit:10" x1="34.34" y1="87.17" x2="93.24" y2="146.08"/><line style="fill:none;stroke:#6d6e70;stroke-width:.5;stroke-miterlimit:10" x1="93.24" y1="15.16" x2="93.24" y2="28.58"/><polyline style="fill:#b8519d;stroke:#6d6e70;stroke-width:.499;stroke-miterlimit:10" points="34.34 15.91 34.34 3.5 152.14 3.5 152.14 15.91"/><line style="fill:#929497;stroke:#fff;stroke-width:.5;stroke-miterlimit:10" x1="93.24" y1="28.58" x2="152.14" y2="87.48"/><line style="fill:#929497;stroke:#fff;stroke-width:.5;stroke-miterlimit:10" x1="34.34" y1="28.58" x2="93.24" y2="87.48"/><line style="fill:#929497;stroke:#fff;stroke-width:.5;stroke-miterlimit:10" x1="93.24" y1="87.17" x2="152.14" y2="146.08"/><text transform="translate(60.05 24.827)" style="font-family:'Asap-Regular';font-size:7px">H</text><text transform="translate(120.003 24.828)" style="font-family:'Asap-Regular';font-size:7px">L</text><text transform="translate(87.681 12.598)" style="fill:#fff;font-family:'Asap-Regular';font-size:8px">Kit</text><line style="fill:none;stroke:#6d6e70;stroke-width:.5;stroke-miterlimit:10" x1="152.14" y1="15.91" x2="152.14" y2="28.58"/><line style="fill:none;stroke:#6d6e70;stroke-width:.5;stroke-miterlimit:10" x1="34.34" y1="28.58" x2="34.34" y2="15.91"/><rect x="34.34" y="28.58" style="fill:none;stroke:#6d6e70;stroke-width:.5;stroke-miterlimit:10" width="117.8" height="117.8"/><line style="fill:none;stroke:#6d6e70;stroke-width:.5;stroke-miterlimit:10" x1="93.24" y1="28.58" x2="93.24" y2="146.38"/><line style="fill:none;stroke:#6d6e70;stroke-width:.5;stroke-miterlimit:10" x1="34.34" y1="87.48" x2="152.14" y2="87.48"/><text transform="translate(68.042 49.306)" style="fill:#231f20;font-family:'Asap-Medium';font-size:7px">520</text><text transform="translate(42.416 76.62)" style="fill:#231f20;font-family:'Asap-Medium';font-size:7px">520</text><text transform="translate(127.49 49.837)" style="fill:#231f20;font-family:'Asap-Medium';font-size:7px">470</text><text transform="translate(105.367 76.151)" style="fill:#231f20;font-family:'Asap-Medium';font-size:7px">338</text><text transform="translate(68.042 107.625)" style="fill:#231f20;font-family:'Asap-Medium';font-size:7px">338</text><text transform="translate(42.416 134.106)" style="fill:#231f20;font-family:'Asap-Medium';font-size:7px">470</text><text transform="translate(127.49 107.625)" style="fill:#231f20;font-family:'Asap-Medium';font-size:7px">300</text><text transform="translate(105.367 133.62)" style="fill:#231f20;font-family:'Asap-Medium';font-size:7px">300</text><polyline style="fill:#0872b9;stroke:#6d6e70;stroke-width:.499;stroke-miterlimit:10" points="22.01 146.38 9.61 146.38 9.61 28.58 22.01 28.58"/><text transform="rotate(-90 75.427 45.492)" style="font-family:'Asap-Regular';font-size:7px">L</text><text transform="rotate(-90 46.25 16.315)" style="font-family:'Asap-Regular';font-size:7px">H</text><text transform="rotate(-90 59.836 41.13)" style="fill:#fff;font-family:'Asap-Regular';font-size:8px">Wanda</text><line style="fill:none;stroke:#6d6e70;stroke-width:.5;stroke-miterlimit:10" x1="22.01" y1="28.58" x2="34.68" y2="28.58"/><line style="fill:none;stroke:#6d6e70;stroke-width:.5;stroke-miterlimit:10" x1="34.68" y1="146.38" x2="22.01" y2="146.38"/><line style="fill:none;stroke:#6d6e70;stroke-width:.5;stroke-miterlimit:10" x1="22.01" y1="87.48" x2="34.68" y2="87.48"/><text transform="translate(58.617 156.288)"><tspan x="0" y="0" style="font-family:'Asap-Medium';font-size:8px">26 </tspan><tspan x="10.48" y="0" style="font-family:'Asap-Medium';font-size:8px">l</tspan><tspan x="12.59" y="0" style="font-family:'Asap-Medium';font-size:8px">oy</tspan><tspan x="20.83" y="0" style="font-family:'Asap-Medium';font-size:8px">al customers; </tspan><tspan x="-7.74" y="9.6" style="font-family:'Asap-Medium';font-size:8px">l</tspan><tspan x="-5.62" y="9.6" style="font-family:'Asap-Medium';font-size:8px">ess </tspan><tspan x="7.22" y="9.6" style="font-family:'Asap-Medium';font-size:8px">r</tspan><tspan x="9.98" y="9.6" style="font-family:'Asap-Medium';font-size:8px">esponsi</tspan><tspan x="36.62" y="9.6" style="font-family:'Asap-Medium';font-size:8px">v</tspan><tspan x="40.42" y="9.6" style="font-family:'Asap-Medium';font-size:8px">e to prices</tspan></text><text transform="translate(210.874 156.288)"><tspan x="0" y="0" style="font-family:'Asap-Medium';font-size:8px">14 </tspan><tspan x="10.48" y="0" style="font-family:'Asap-Medium';font-size:8px">l</tspan><tspan x="12.59" y="0" style="font-family:'Asap-Medium';font-size:8px">oy</tspan><tspan x="20.83" y="0" style="font-family:'Asap-Medium';font-size:8px">al customers; </tspan><tspan x="-10.43" y="9.6" style="font-family:'Asap-Medium';font-size:8px">mo</tspan><tspan x=".91" y="9.6" style="font-family:'Asap-Medium';font-size:8px">r</tspan><tspan x="3.68" y="9.6" style="font-family:'Asap-Medium';font-size:8px">e </tspan><tspan x="9.91" y="9.6" style="font-family:'Asap-Medium';font-size:8px">r</tspan><tspan x="12.68" y="9.6" style="font-family:'Asap-Medium';font-size:8px">esponsi</tspan><tspan x="39.31" y="9.6" style="font-family:'Asap-Medium';font-size:8px">v</tspan><tspan x="43.11" y="9.6" style="font-family:'Asap-Medium';font-size:8px">e to prices</tspan></text></svg>