<svg version="1.1" xmlns="http://www.w3.org/2000/svg" x="0" y="0" viewBox="0 0 311.81 177.43" style="enable-background:new 0 0 311.81 177.43" xml:space="preserve"><rect x="92.75" y="84.95" style="fill:none;stroke:#3a53a4;stroke-width:.5;stroke-miterlimit:10" width="118.38" height="26.6"/><rect x="268.32" y="5.5" style="fill:none;stroke:#ec2426;stroke-width:.5;stroke-miterlimit:10" width="39" height="39.46"/><rect x="237.78" y="117.97" style="fill:none;stroke:#ec2426;stroke-width:.5;stroke-miterlimit:10" width="70.71" height="20.63"/><text transform="translate(118.056 92.676)"><tspan x="0" y="0" style="fill:#3a53a4;font-family:'Asap-Regular';font-size:6px">Labour market regulation </tspan><tspan x="-11.07" y="7.2" style="fill:#3a53a4;font-family:'Asap-Regular';font-size:6px">(restrictions on employing women </tspan><tspan x="-3.04" y="14.4" style="fill:#3a53a4;font-family:'Asap-Regular';font-size:6px">and children; working hours)</tspan></text><text transform="translate(271.71 21.681)"><tspan x="0" y="0" style="fill:#ed2124;font-family:'Asap-Regular';font-size:6px">Demand for </tspan><tspan x="1.05" y="7.2" style="fill:#ed2124;font-family:'Asap-Regular';font-size:6px">labour rises</tspan></text><text transform="translate(236.634 94.59)"><tspan x="0" y="0" style="fill:#ed2124;font-family:'Asap-Regular';font-size:6px">Labour supply </tspan><tspan x="13.76" y="7.2" style="fill:#ed2124;font-family:'Asap-Regular';font-size:6px">falls</tspan></text><rect x="236.04" y="83.16" style="fill:none;stroke:#ec2426;stroke-width:.5;stroke-miterlimit:10" width="39" height="24.17"/><text transform="translate(243.37 130.523)" style="fill:#ed2124;font-family:'Asap-Regular';font-size:6px">Power of workers rises</text><line style="fill:none;stroke:#ed2124;stroke-width:.5;stroke-miterlimit:10" x1="211" y1="98.5" x2="231.46" y2="98.5"/><polygon style="fill:#ed2124" points="229.8 100.54 229.46 100.18 231.27 98.5 229.46 96.82 229.8 96.46 232 98.5"/><line style="fill:none;stroke:#ed2124;stroke-width:.5;stroke-miterlimit:10" x1="288" y1="45" x2="288" y2="113.46"/><polygon style="fill:#ed2124" points="285.96 111.8 286.32 111.46 288 113.27 289.68 111.46 290.04 111.8 288 114"/><line style="fill:none;stroke:#ed2124;stroke-width:.5;stroke-miterlimit:10" x1="256" y1="107" x2="256" y2="115.58"/><polygon style="fill:#ed2124" points="253.96 113.93 254.32 113.58 256 115.39 257.68 113.58 258.04 113.93 256 116.12"/><g><line style="fill:none;stroke:#ed2124;stroke-width:.5;stroke-miterlimit:10" x1="211" y1="128.36" x2="231.84" y2="128.36"/><polygon style="fill:#ed2124" points="230.18 130.4 229.84 130.04 231.65 128.36 229.84 126.68 230.18 126.31 232.38 128.36"/></g><rect x="160.78" y="116.86" style="fill:none;stroke:#3a53a4;stroke-width:.5;stroke-miterlimit:10" width="49.86" height="20.63"/><text transform="translate(164.27 125.205)"><tspan x="0" y="0" style="fill:#3a53a4;font-family:'Asap-Regular';font-size:6px">Extension of the </tspan><tspan x="5.77" y="7.2" style="fill:#3a53a4;font-family:'Asap-Regular';font-size:6px">right to vote</tspan></text></svg>