<svg version="1.1" xmlns="http://www.w3.org/2000/svg" x="0" y="0" viewBox="0 0 311.81 355.55" style="enable-background:new 0 0 311.81 355.55" xml:space="preserve"><line style="fill:none;stroke:#6d6e71;stroke-width:.5;stroke-linecap:square;stroke-linejoin:round" x1="76.86" y1="179.78" x2="74.73" y2="179.78"/><line style="fill:none;stroke:#6d6e71;stroke-width:.5;stroke-linecap:square;stroke-linejoin:round" x1="76.86" y1="167.78" x2="74.73" y2="167.78"/><line style="fill:none;stroke:#6d6e71;stroke-width:.5;stroke-linecap:square;stroke-linejoin:round" x1="76.86" y1="155.78" x2="74.73" y2="155.78"/><line style="fill:none;stroke:#6d6e71;stroke-width:.5;stroke-linecap:square;stroke-linejoin:round" x1="76.86" y1="143.78" x2="74.73" y2="143.78"/><line style="fill:none;stroke:#6d6e71;stroke-width:.5;stroke-linecap:square;stroke-linejoin:round" x1="76.86" y1="131.78" x2="74.73" y2="131.78"/><line style="fill:none;stroke:#6d6e71;stroke-width:.5;stroke-linecap:square;stroke-linejoin:round" x1="76.86" y1="119.78" x2="74.73" y2="119.78"/><line style="fill:none;stroke:#6d6e71;stroke-width:.5;stroke-linecap:square;stroke-linejoin:round" x1="76.86" y1="107.78" x2="74.73" y2="107.78"/><line style="fill:none;stroke:#6d6e71;stroke-width:.5;stroke-linecap:square;stroke-linejoin:round" x1="76.86" y1="95.78" x2="74.73" y2="95.78"/><line style="fill:none;stroke:#6d6e71;stroke-width:.5;stroke-linecap:square;stroke-linejoin:round" x1="76.86" y1="83.78" x2="74.73" y2="83.78"/><line style="fill:none;stroke:#6d6e71;stroke-width:.5;stroke-linecap:square;stroke-linejoin:round" x1="76.86" y1="71.78" x2="74.73" y2="71.78"/><line style="fill:none;stroke:#6d6e71;stroke-width:.5;stroke-linecap:square;stroke-linejoin:round" x1="76.86" y1="35.78" x2="74.73" y2="35.78"/><line style="fill:none;stroke:#6d6e71;stroke-width:.5;stroke-linecap:square;stroke-linejoin:round" x1="76.86" y1="23.78" x2="74.73" y2="23.78"/><line style="fill:none;stroke:#6d6e71;stroke-width:.5;stroke-linecap:square;stroke-linejoin:round" x1="76.86" y1="59.78" x2="74.73" y2="59.78"/><line style="fill:none;stroke:#6d6e71;stroke-width:.5;stroke-linecap:square;stroke-linejoin:round" x1="76.86" y1="47.78" x2="74.73" y2="47.78"/><line style="fill:none;stroke:#6d6e71;stroke-width:.5;stroke-linecap:square;stroke-linejoin:round" x1="76.86" y1="11.78" x2="74.73" y2="11.78"/><line style="fill:none;stroke:#6d6e71;stroke-width:.5;stroke-linecap:square" x1="77.13" y1="179.9" x2="77.13" y2="182.03"/><line style="fill:none;stroke:#6d6e71;stroke-width:.5;stroke-linecap:square" x1="84.13" y1="179.9" x2="84.13" y2="182.03"/><line style="fill:none;stroke:#6d6e71;stroke-width:.5;stroke-linecap:square" x1="91.13" y1="179.9" x2="91.13" y2="182.03"/><line style="fill:none;stroke:#6d6e71;stroke-width:.5;stroke-linecap:square" x1="98.13" y1="179.9" x2="98.13" y2="182.03"/><line style="fill:none;stroke:#6d6e71;stroke-width:.5;stroke-linecap:square" x1="105.13" y1="179.9" x2="105.13" y2="182.03"/><line style="fill:none;stroke:#6d6e71;stroke-width:.5;stroke-linecap:square" x1="112.13" y1="179.9" x2="112.13" y2="182.03"/><line style="fill:none;stroke:#6d6e71;stroke-width:.5;stroke-linecap:square" x1="119.13" y1="179.9" x2="119.13" y2="182.03"/><line style="fill:none;stroke:#6d6e71;stroke-width:.5;stroke-linecap:square" x1="126.13" y1="179.9" x2="126.13" y2="182.03"/><line style="fill:none;stroke:#6d6e71;stroke-width:.5;stroke-linecap:square" x1="133.13" y1="179.9" x2="133.13" y2="182.03"/><line style="fill:none;stroke:#6d6e71;stroke-width:.5;stroke-linecap:square" x1="140.13" y1="179.9" x2="140.13" y2="182.03"/><line style="fill:none;stroke:#6d6e71;stroke-width:.5;stroke-linecap:square" x1="147.13" y1="179.9" x2="147.13" y2="182.03"/><line style="fill:none;stroke:#6d6e71;stroke-width:.5;stroke-linecap:square" x1="154.13" y1="179.9" x2="154.13" y2="182.03"/><line style="fill:none;stroke:#6d6e71;stroke-width:.5;stroke-linecap:square" x1="160.13" y1="179.9" x2="160.13" y2="182.03"/><line style="fill:none;stroke:#6d6e71;stroke-width:.5;stroke-linecap:square" x1="167.13" y1="179.9" x2="167.13" y2="182.03"/><line style="fill:none;stroke:#6d6e71;stroke-width:.5;stroke-linecap:square" x1="174.13" y1="179.9" x2="174.13" y2="182.03"/><line style="fill:none;stroke:#6d6e71;stroke-width:.5;stroke-linecap:square" x1="181.13" y1="179.9" x2="181.13" y2="182.03"/><line style="fill:none;stroke:#6d6e71;stroke-width:.5;stroke-linecap:square" x1="188.13" y1="179.9" x2="188.13" y2="182.03"/><line style="fill:none;stroke:#6d6e71;stroke-width:.5;stroke-linecap:square" x1="195.13" y1="179.9" x2="195.13" y2="182.03"/><line style="fill:none;stroke:#6d6e71;stroke-width:.5;stroke-linecap:square" x1="202.13" y1="179.9" x2="202.13" y2="182.03"/><line style="fill:none;stroke:#6d6e71;stroke-width:.5;stroke-linecap:square" x1="209.13" y1="179.9" x2="209.13" y2="182.03"/><line style="fill:none;stroke:#6d6e71;stroke-width:.5;stroke-linecap:square" x1="216.13" y1="179.9" x2="216.13" y2="182.03"/><line style="fill:none;stroke:#6d6e71;stroke-width:.5;stroke-linecap:square" x1="223.13" y1="179.9" x2="223.13" y2="182.03"/><line style="fill:none;stroke:#6d6e71;stroke-width:.5;stroke-linecap:square" x1="230.13" y1="179.9" x2="230.13" y2="182.03"/><line style="fill:none;stroke:#6d6e71;stroke-width:.5;stroke-linecap:square" x1="237.13" y1="179.9" x2="237.13" y2="182.03"/><line style="fill:none;stroke:#6d6e71;stroke-width:.5;stroke-linecap:square" x1="244.13" y1="179.9" x2="244.13" y2="182.03"/><text transform="translate(68.864 182.026)" style="font-family:'Asap-Regular';font-size:7px">0</text><text transform="translate(75.25 189.383)" style="font-family:'Asap-Regular';font-size:7px">0</text><text transform="translate(65.374 158.14)" style="font-family:'Asap-Regular';font-size:7px">10</text><text transform="translate(65.654 133.553)" style="font-family:'Asap-Regular';font-size:7px">20</text><text transform="translate(66.01 110.08)" style="font-family:'Asap-Regular';font-size:7px">30</text><text transform="translate(66.01 85.636)" style="font-family:'Asap-Regular';font-size:7px">40</text><text transform="translate(66.291 62.494)" style="font-family:'Asap-Regular';font-size:7px">50</text><text transform="translate(66.01 37.424)" style="font-family:'Asap-Regular';font-size:7px">60</text><text transform="translate(66.01 13.858)" style="font-family:'Asap-Regular';font-size:7px">70</text><text transform="translate(102.411 189.383)" style="font-family:'Asap-Regular';font-size:7px">4</text><text transform="translate(131.22 189.383)" style="font-family:'Asap-Regular';font-size:7px">8</text><text transform="translate(156.383 189.383)" style="font-family:'Asap-Regular';font-size:7px">12</text><text transform="translate(184.325 189.383)" style="font-family:'Asap-Regular';font-size:7px">16</text><text transform="translate(212.325 189.382)" style="font-family:'Asap-Regular';font-size:7px">20</text><text transform="translate(240.325 189.383)" style="font-family:'Asap-Regular';font-size:7px">24</text><text transform="matrix(0 -.9726 1 0 53.72 119.028)" style="font-family:'Asap-Medium';font-size:8px">Bushels of grain</text><text transform="translate(119.722 201.356)" style="font-family:'Asap-Medium';font-size:8px">Angela’s hours of free time</text><path style="fill:none;stroke:#6d6e71;stroke-width:.5;stroke-linecap:square;stroke-linejoin:round" d="M77.13 11.78v167.81"/><text transform="translate(249.334 173.227)" style="font-family:'Asap-Regular';font-size:7px">IC</text><text transform="matrix(.583 0 0 .583 255.648 175.558)" style="font-family:'Asap-Regular';font-size:7px">1</text><path style="fill:#d5daef;stroke:#f49323;stroke-width:.5;stroke-linecap:square;stroke-linejoin:round" d="M93.21 26.87c-7.45-1.07-12.92-1.4-15.53-1.54M107.25 29.41a197.38 197.38 0 00-14.04-2.54M124.68 34.05c-6.19-1.95-12.06-3.47-17.44-4.64M243.44 173.93c-.08-.58-.16-1.16-.25-1.77M244.13 179.78c-.18-1.75-.4-3.71-.69-5.84"/><line style="fill:none;stroke:#6d6e71;stroke-width:.5;stroke-linecap:square" x1="77.13" y1="179.78" x2="244.13" y2="179.78"/><path style="fill:#e3e7f4;stroke:#253b71;stroke-width:.5;stroke-miterlimit:10" d="M125.33 34.45c4.44 13.27 8.93 24.45 12.79 33.32 7.7 17.72 13.39 30.6 24.44 46 7.24 10.09 16.97 23.42 34 35.78 17.31 12.56 34.65 18.67 47.56 21.78"/><path style="fill:#d5daef;stroke:#253b71;stroke-width:.5;stroke-miterlimit:10" d="M118.56 12.21c2.18 7.95 4.47 15.37 6.77 22.24"/><path style="fill:#e3e7f4;stroke:#f49323;stroke-width:.5;stroke-linecap:square;stroke-linejoin:round" d="M242.89 170.17c-3.04-19.4-11.16-50.32-34.45-79.7-25.28-31.89-57.45-48.13-83.75-56.42"/><path style="fill:#d5daef;stroke:#f49323;stroke-width:.5;stroke-linecap:square;stroke-linejoin:round" d="M243.19 172.17c-.09-.65-.19-1.32-.3-2"/><text transform="translate(171.62 100.191)" style="font-family:'Asap-Regular';font-size:6px">Feasible set</text></svg>