<svg version="1.1" xmlns="http://www.w3.org/2000/svg" x="0" y="0" viewBox="0 0 311.81 197.09" style="enable-background:new 0 0 311.81 197.09" xml:space="preserve"><line style="fill:none;stroke:#6d6e71;stroke-width:.5;stroke-linecap:square;stroke-linejoin:round" x1="67.08" y1="5.3" x2="67.08" y2="173.11"/><line style="fill:none;stroke:#6d6e71;stroke-width:.5;stroke-linecap:square" x1="67.08" y1="173.3" x2="234.08" y2="173.3"/><line style="fill:none;stroke:#6d6e71;stroke-width:.5;stroke-linecap:square;stroke-linejoin:round" x1="66.81" y1="173.3" x2="64.68" y2="173.3"/><line style="fill:none;stroke:#6d6e71;stroke-width:.5;stroke-linecap:square;stroke-linejoin:round" x1="66.81" y1="149.3" x2="64.68" y2="149.3"/><line style="fill:none;stroke:#6d6e71;stroke-width:.5;stroke-linecap:square;stroke-linejoin:round" x1="66.81" y1="125.3" x2="64.68" y2="125.3"/><line style="fill:none;stroke:#6d6e71;stroke-width:.5;stroke-linecap:square;stroke-linejoin:round" x1="66.81" y1="101.3" x2="64.68" y2="101.3"/><line style="fill:none;stroke:#6d6e71;stroke-width:.5;stroke-linecap:square;stroke-linejoin:round" x1="66.81" y1="77.3" x2="64.68" y2="77.3"/><line style="fill:none;stroke:#6d6e71;stroke-width:.5;stroke-linecap:square;stroke-linejoin:round" x1="66.81" y1="53.3" x2="64.68" y2="53.3"/><line style="fill:none;stroke:#6d6e71;stroke-width:.5;stroke-linecap:square;stroke-linejoin:round" x1="66.81" y1="29.3" x2="64.68" y2="29.3"/><line style="fill:none;stroke:#6d6e71;stroke-width:.5;stroke-linecap:square;stroke-linejoin:round" x1="66.81" y1="5.3" x2="64.68" y2="5.3"/><line style="fill:none;stroke:#6d6e71;stroke-width:.5;stroke-linecap:square" x1="67.08" y1="173.42" x2="67.08" y2="175.55"/><line style="fill:none;stroke:#6d6e71;stroke-width:.5;stroke-linecap:square" x1="94.91" y1="173.42" x2="94.91" y2="175.55"/><line style="fill:none;stroke:#6d6e71;stroke-width:.5;stroke-linecap:square" x1="122.74" y1="173.42" x2="122.74" y2="175.55"/><line style="fill:none;stroke:#6d6e71;stroke-width:.5;stroke-linecap:square" x1="150.58" y1="173.42" x2="150.58" y2="175.55"/><line style="fill:none;stroke:#6d6e71;stroke-width:.5;stroke-linecap:square" x1="178.41" y1="173.42" x2="178.41" y2="175.55"/><line style="fill:none;stroke:#6d6e71;stroke-width:.5;stroke-linecap:square" x1="206.24" y1="173.42" x2="206.24" y2="175.55"/><line style="fill:none;stroke:#6d6e71;stroke-width:.5;stroke-linecap:square" x1="234.08" y1="173.42" x2="234.08" y2="175.55"/><text transform="translate(57.738 175.443)" style="font-family:'Asap-Regular';font-size:7px">0</text><text transform="translate(65.204 183.903)" style="font-family:'Asap-Regular';font-size:7px">0</text><text transform="translate(53.993 151.443)" style="font-family:'Asap-Regular';font-size:7px">10</text><text transform="translate(53.993 127.443)" style="font-family:'Asap-Regular';font-size:7px">20</text><text transform="translate(53.993 103.443)" style="font-family:'Asap-Regular';font-size:7px">30</text><text transform="translate(53.993 79.443)" style="font-family:'Asap-Regular';font-size:7px">40</text><text transform="translate(53.993 55.443)" style="font-family:'Asap-Regular';font-size:7px">50</text><text transform="translate(53.993 31.443)" style="font-family:'Asap-Regular';font-size:7px">60</text><text transform="translate(53.993 7.443)" style="font-family:'Asap-Regular';font-size:7px">70</text><text transform="translate(93.037 183.903)" style="font-family:'Asap-Regular';font-size:7px">4</text><text transform="translate(120.871 183.903)" style="font-family:'Asap-Regular';font-size:7px">8</text><text transform="translate(146.832 183.903)" style="font-family:'Asap-Regular';font-size:7px">12</text><text transform="translate(174.665 183.903)" style="font-family:'Asap-Regular';font-size:7px">16</text><text transform="translate(202.499 183.902)" style="font-family:'Asap-Regular';font-size:7px">20</text><text transform="translate(230.332 183.903)" style="font-family:'Asap-Regular';font-size:7px">24</text><text transform="matrix(0 -.9726 1 0 42.669 116.554)" style="font-family:'Asap-Medium';font-size:8px">Bushels of grain</text><text transform="translate(103.342 194.876)" style="font-family:'Asap-Medium';font-size:8px">Angela’s hours of free time</text><path style="fill:none;stroke:#263a71;stroke-width:.5" d="M107.56 4.48c2.69 10.3 6.27 22.25 11.11 35.33 5.47 14.77 10.74 26.16 13.78 32.44 9.23 19.1 14.79 30.6 25.33 44 6.66 8.46 18.9 23.72 40.22 36 13.93 8.03 26.82 11.95 35.78 14"/><path style="fill:none;stroke:#3b54a4;stroke-width:.5" d="M113.78 4.93c7.13 23.89 15.52 42.72 22.22 56 7.22 14.31 12.33 24.44 22.22 36.67 18.85 23.31 39 34.36 43.33 36.67a132.759 132.759 0 0031.78 12"/><path style="fill:none;stroke:#5b73b8;stroke-width:.5" d="M121.56 4.26c3.11 8.7 7.97 20.85 15.33 34.67 9.16 17.19 19.24 36.13 38.22 53.11 9.48 8.48 28.42 22.95 58.44 30.89"/><path style="fill:none;stroke:#a1b0da;stroke-width:.5" d="M140.67 4.71c5.22 11.07 15.82 29.85 35.78 46.89 22.09 18.86 44.73 26.27 56.89 29.33"/><path style="fill:none;stroke:#d5daee;stroke-width:.5" d="M165.56 4.26c6.61 7.59 17.11 17.91 32.22 26.89a132.477 132.477 0 0035.78 14.67"/><line style="fill:none;stroke:#939598;stroke-width:.5;stroke-linecap:square;stroke-linejoin:round;stroke-dasharray:1.4173" x1="150.58" y1="21.56" x2="150.58" y2="4.26"/><circle style="fill:#000101" cx="150.58" cy="22.56" r="1.13"/><line style="fill:none;stroke:#939598;stroke-width:.5;stroke-linecap:square;stroke-linejoin:round;stroke-dasharray:1.4173" x1="150.58" y1="173.18" x2="150.58" y2="61.22"/><line style="fill:none;stroke:#939598;stroke-width:.5;stroke-linecap:square;stroke-linejoin:round" x1="150.58" y1="24.47" x2="150.58" y2="60.68"/><polygon style="fill:#939598" points="148.53 26.13 148.9 26.47 150.58 24.66 152.26 26.47 152.62 26.13 150.58 23.93"/><polygon style="fill:#939598" points="148.53 59.02 148.9 58.68 150.58 60.49 152.25 58.68 152.62 59.02 150.58 61.22"/><line style="fill:none;stroke:#939598;stroke-width:.5;stroke-linecap:square;stroke-linejoin:round;stroke-dasharray:1.4173" x1="190.31" y1="61.22" x2="190.31" y2="4.26"/><line style="fill:none;stroke:#939598;stroke-width:.5;stroke-linecap:square;stroke-linejoin:round;stroke-dasharray:1.4173" x1="190.31" y1="173.11" x2="190.31" y2="104.73"/><line style="fill:#000101;stroke:#3a53a4;stroke-width:.5;stroke-miterlimit:10" x1="170.86" y1="13.96" x2="209.75" y2="39"/><line style="fill:#000101;stroke:#3a53a4;stroke-width:.5;stroke-miterlimit:10" x1="172" y1="50.17" x2="210.89" y2="75.2"/><line style="fill:none;stroke:#939598;stroke-width:.5;stroke-linecap:square;stroke-linejoin:round" x1="190.31" y1="63.23" x2="190.31" y2="101.92"/><polygon style="fill:#939598" points="188.26 64.88 188.63 65.23 190.31 63.42 191.99 65.23 192.35 64.88 190.31 62.69"/><polygon style="fill:#939598" points="188.26 100.27 188.63 99.93 190.31 101.73 191.99 99.93 192.35 100.27 190.31 102.47"/><line style="fill:#000101;stroke:#3a53a4;stroke-width:.5;stroke-miterlimit:10" x1="169.73" y1="91.12" x2="208.62" y2="116.16"/><circle style="fill:#000101" cx="190.31" cy="103.6" r="1.13"/><line style="fill:#000101;stroke:#3a53a4;stroke-width:.5;stroke-miterlimit:10" x1="169.73" y1="114.6" x2="208.62" y2="139.63"/><line style="fill:#000101;stroke:#3a53a4;stroke-width:.5;stroke-miterlimit:10" x1="170.86" y1="135.53" x2="209.75" y2="160.57"/><text transform="translate(140.67 29.298)" style="font-family:'Asap-Regular';font-size:7px">Z</text><text transform="translate(179.287 108.229)" style="font-family:'Asap-Regular';font-size:7px">Y</text><text transform="translate(153.388 49.893)"><tspan x="0" y="0" style="font-family:'Asap-Regular';font-size:6px">17</tspan><tspan x="0" y="7.2" style="font-family:'Asap-Regular';font-size:6px">bushels</tspan></text><text transform="translate(196.114 86.025)" style="font-family:'Asap-Regular';font-size:6px">17 bushels</text><text transform="translate(241.253 168.91)" style="font-family:'Asap-Regular';font-size:7px">IC</text><text transform="matrix(.583 0 0 .583 247.567 171.24)" style="font-family:'Asap-Regular';font-size:7px">1</text><text transform="translate(241.252 149.503)" style="font-family:'Asap-Regular';font-size:7px">IC</text><text transform="matrix(.583 0 0 .583 247.566 151.834)" style="font-family:'Asap-Regular';font-size:7px">2</text><text transform="translate(241.252 125.503)" style="font-family:'Asap-Regular';font-size:7px">IC</text><text transform="matrix(.583 0 0 .583 247.566 127.834)" style="font-family:'Asap-Regular';font-size:7px">3</text><text transform="translate(241.253 84.577)" style="font-family:'Asap-Regular';font-size:7px">IC</text><text transform="matrix(.583 0 0 .583 247.567 86.908)" style="font-family:'Asap-Regular';font-size:7px">4</text><text transform="translate(241.253 48.576)" style="font-family:'Asap-Regular';font-size:7px">IC</text><text transform="matrix(.583 0 0 .583 247.567 50.907)" style="font-family:'Asap-Regular';font-size:7px">5</text></svg>