<svg xmlns="http://www.w3.org/2000/svg" class="prefix__svglite" viewBox="0 0 810 414"><rect width="100%" height="100%" style="stroke:none;fill:#fff;stroke-linecap:round;stroke-linejoin:round;stroke-miterlimit:10"/><defs><clipPath id="prefix__a"><rect x="0" y="0" width="810" height="414" style="fill:none;stroke:#000;stroke-linecap:round;stroke-linejoin:round;stroke-miterlimit:10"/></clipPath></defs><g clip-path="url(#prefix__a)"><rect x="0" y="0" width="810" height="414" style="stroke-width:1.07;stroke:#fff;fill:#fff;stroke-linecap:round;stroke-linejoin:round;stroke-miterlimit:10"/><rect x="83.72" y="14.17" width="488.54" height="318.92" style="stroke-width:1.07;stroke:none;fill:#fff;stroke-linecap:round;stroke-linejoin:round;stroke-miterlimit:10"/><polyline points="83.72 333.09 572.26 333.09" style="stroke-width:1.07;stroke:#c6c4c4;stroke-linecap:butt;fill:none;stroke-linejoin:round;stroke-miterlimit:10"/><polyline points="83.72 253.36 572.26 253.36" style="stroke-width:1.07;stroke:#c6c4c4;stroke-linecap:butt;fill:none;stroke-linejoin:round;stroke-miterlimit:10"/><polyline points="83.72 173.63 572.26 173.63" style="stroke-width:1.07;stroke:#c6c4c4;stroke-linecap:butt;fill:none;stroke-linejoin:round;stroke-miterlimit:10"/><polyline points="83.72 93.9 572.26 93.9" style="stroke-width:1.07;stroke:#c6c4c4;stroke-linecap:butt;fill:none;stroke-linejoin:round;stroke-miterlimit:10"/><polyline points="83.72 14.17 572.26 14.17" style="stroke-width:1.07;stroke:#c6c4c4;stroke-linecap:butt;fill:none;stroke-linejoin:round;stroke-miterlimit:10"/><polyline points="109.43 87.34 160.86 62.48 212.28 50.29 263.71 43.49 315.13 40.2 366.56 35.04 417.98 34.34 469.41 40.91 520.83 44.89 572.26 61.78" style="stroke-width:1.07;stroke:#ed1f24;stroke-linecap:butt;fill:none;stroke-linejoin:round;stroke-miterlimit:10"/><polyline points="109.43 181.97 160.86 175.08 212.28 144.28 263.71 150.44 315.13 130.87 366.56 145.73 417.98 154.06 469.41 162.76 520.83 178.34 572.26 172.55" style="stroke-width:1.07;stroke:#009147;stroke-dasharray:2.85,2.85;stroke-linecap:butt;fill:none;stroke-linejoin:round;stroke-miterlimit:10"/><polyline points="109.43 145.73 160.86 122.04 212.28 127.44 263.71 119.7 315.13 110.32 366.56 125.56 417.98 122.98 469.41 114.77 520.83 135.18 572.26 146.43" style="stroke-width:1.07;stroke:#b9519e;stroke-linecap:butt;fill:none;stroke-linejoin:round;stroke-miterlimit:10"/><polyline points="109.43 93.24 160.86 66.5 212.28 52.88 263.71 55.2 315.13 51.71 366.56 56.53 417.98 65.33 469.41 66 520.83 63.84 572.26 91.41" style="stroke-width:1.07;stroke:#4dd9ff;stroke-linecap:butt;fill:none;stroke-linejoin:round;stroke-miterlimit:10"/><polyline points="109.43 186.21 160.86 168.73 212.28 172.71 263.71 173.63 315.13 180.38 366.56 175.17 417.98 169.34 469.41 160.14 520.83 178.23 572.26 188.05" style="stroke-width:1.07;stroke:#f49323;stroke-dasharray:2.85,2.85;stroke-linecap:butt;fill:none;stroke-linejoin:round;stroke-miterlimit:10"/><polyline points="109.43 161.46 160.86 152.86 212.28 145.83 263.71 145.52 315.13 154.65 366.56 138.8 417.98 139.33 469.41 138.8 520.83 135.55 572.26 148.56" style="stroke-width:1.07;stroke:#7f8182;stroke-linecap:butt;fill:none;stroke-linejoin:round;stroke-miterlimit:10"/><polyline points="109.43 122.16 160.86 93.56 212.28 81.6 263.71 73.8 315.13 72.24 366.56 68.08 417.98 58.89 469.41 61.49 520.83 53 572.26 70.68" style="stroke-width:1.07;stroke-linecap:butt;fill:none;stroke:#000;stroke-linejoin:round;stroke-miterlimit:10"/><polyline points="109.43 77.67 160.86 48.91 212.28 37.24 263.71 32.11 315.13 42.36 366.56 37.24 417.98 35.24 469.41 45.21 520.83 43.22 572.26 64.57" style="stroke-width:1.07;stroke:#ed1f24;stroke-dasharray:2.85,2.85;stroke-linecap:butt;fill:none;stroke-linejoin:round;stroke-miterlimit:10"/><polyline points="109.43 140.94 160.86 118.35 212.28 108.52 263.71 109.32 315.13 87.26 366.56 103.21 417.98 90.45 469.41 85.93 520.83 77.96 572.26 98.95" style="stroke-width:1.07;stroke:#f49323;stroke-linecap:butt;fill:none;stroke-linejoin:round;stroke-miterlimit:10"/><polyline points="109.43 175.29 160.86 156.69 212.28 136.76 263.71 119.82 315.13 104.2 366.56 87.09 417.98 82.94 469.41 78.29 520.83 80.28 572.26 96.89" style="stroke-width:1.07;stroke:#b9519e;stroke-dasharray:2.85,2.85;stroke-linecap:butt;fill:none;stroke-linejoin:round;stroke-miterlimit:10"/><polyline points="109.43 178.57 160.86 140.03 212.28 121.43 263.71 108.14 315.13 103.58 366.56 89.35 417.98 77.2 469.41 65.05 520.83 57.46 572.26 53.85" style="stroke-width:1.07;stroke:#4dd9ff;stroke-dasharray:2.85,2.85;stroke-linecap:butt;fill:none;stroke-linejoin:round;stroke-miterlimit:10"/><polyline points="109.43 235.09 160.86 225.13 212.28 226.12 263.71 206.52 315.13 211.84 366.56 211.84 417.98 233.43 469.41 231.44 520.83 219.48 572.26 227.45" style="stroke-width:1.07;stroke:#ed1f24;stroke-dasharray:2.85,2.85;stroke-linecap:butt;fill:none;stroke-linejoin:round;stroke-miterlimit:10"/><polyline points="109.43 152.56 160.86 111.56 212.28 98.74 263.71 103.3 315.13 89.63 366.56 70.84 417.98 71.98 469.41 66.28 520.83 73.12 572.26 98.74" style="stroke-width:1.07;stroke:#1f3bff;stroke-linecap:butt;fill:none;stroke-linejoin:round;stroke-miterlimit:10"/><polyline points="109.43 240.32 160.86 243.22 212.28 239.59 263.71 233.43 315.13 233.79 366.56 239.59 417.98 243.22 469.41 255.9 520.83 258.44 572.26 234.16" style="stroke-width:1.07;stroke:#009147;stroke-linecap:butt;fill:none;stroke-linejoin:round;stroke-miterlimit:10"/><polyline points="109.43 228.7 160.86 228.2 212.28 225.96 263.71 230.19 315.13 221.97 366.56 218.98 417.98 213 469.41 208.02 520.83 208.02 572.26 211.51" style="stroke-width:1.07;stroke:#7f8182;stroke-dasharray:2.85,2.85;stroke-linecap:butt;fill:none;stroke-linejoin:round;stroke-miterlimit:10"/><polyline points="109.43 207.92 160.86 166.06 212.28 128.98 263.71 116.63 315.13 93.11 366.56 81.55 417.98 74.37 469.41 69.59 520.83 60.42 572.26 80.35" style="stroke-width:1.07;stroke:#b9519e;stroke-linecap:butt;fill:none;stroke-linejoin:round;stroke-miterlimit:10"/><rect x="106.06" y="83.97" width="6.74" height="6.74" style="stroke-width:1.2;stroke:#ed1f24;fill:#fff;stroke-linecap:round;stroke-linejoin:round;stroke-miterlimit:10"/><rect x="157.49" y="59.11" width="6.74" height="6.74" style="stroke-width:1.2;stroke:#ed1f24;fill:#fff;stroke-linecap:round;stroke-linejoin:round;stroke-miterlimit:10"/><rect x="208.91" y="46.92" width="6.74" height="6.74" style="stroke-width:1.2;stroke:#ed1f24;fill:#fff;stroke-linecap:round;stroke-linejoin:round;stroke-miterlimit:10"/><rect x="260.34" y="40.12" width="6.74" height="6.74" style="stroke-width:1.2;stroke:#ed1f24;fill:#fff;stroke-linecap:round;stroke-linejoin:round;stroke-miterlimit:10"/><rect x="311.76" y="36.83" width="6.74" height="6.74" style="stroke-width:1.2;stroke:#ed1f24;fill:#fff;stroke-linecap:round;stroke-linejoin:round;stroke-miterlimit:10"/><rect x="363.19" y="31.67" width="6.74" height="6.74" style="stroke-width:1.2;stroke:#ed1f24;fill:#fff;stroke-linecap:round;stroke-linejoin:round;stroke-miterlimit:10"/><rect x="414.61" y="30.97" width="6.74" height="6.74" style="stroke-width:1.2;stroke:#ed1f24;fill:#fff;stroke-linecap:round;stroke-linejoin:round;stroke-miterlimit:10"/><rect x="466.04" y="37.54" width="6.74" height="6.74" style="stroke-width:1.2;stroke:#ed1f24;fill:#fff;stroke-linecap:round;stroke-linejoin:round;stroke-miterlimit:10"/><rect x="517.46" y="41.52" width="6.74" height="6.74" style="stroke-width:1.2;stroke:#ed1f24;fill:#fff;stroke-linecap:round;stroke-linejoin:round;stroke-miterlimit:10"/><rect x="568.89" y="58.41" width="6.74" height="6.74" style="stroke-width:1.2;stroke:#ed1f24;fill:#fff;stroke-linecap:round;stroke-linejoin:round;stroke-miterlimit:10"/><polygon points="109.43 176.06 114.55 184.93 104.31 184.93" style="stroke-width:1.2;stroke:#009147;fill:#fff;stroke-linecap:round;stroke-linejoin:round;stroke-miterlimit:10"/><polygon points="160.86 169.17 165.98 178.04 155.74 178.04" style="stroke-width:1.2;stroke:#009147;fill:#fff;stroke-linecap:round;stroke-linejoin:round;stroke-miterlimit:10"/><polygon points="212.28 138.37 217.4 147.23 207.16 147.23" style="stroke-width:1.2;stroke:#009147;fill:#fff;stroke-linecap:round;stroke-linejoin:round;stroke-miterlimit:10"/><polygon points="263.71 144.53 268.83 153.4 258.59 153.4" style="stroke-width:1.2;stroke:#009147;fill:#fff;stroke-linecap:round;stroke-linejoin:round;stroke-miterlimit:10"/><polygon points="315.13 124.96 320.25 133.83 310.01 133.83" style="stroke-width:1.2;stroke:#009147;fill:#fff;stroke-linecap:round;stroke-linejoin:round;stroke-miterlimit:10"/><polygon points="366.56 139.82 371.68 148.68 361.44 148.68" style="stroke-width:1.2;stroke:#009147;fill:#fff;stroke-linecap:round;stroke-linejoin:round;stroke-miterlimit:10"/><polygon points="417.98 148.15 423.1 157.02 412.86 157.02" style="stroke-width:1.2;stroke:#009147;fill:#fff;stroke-linecap:round;stroke-linejoin:round;stroke-miterlimit:10"/><polygon points="469.41 156.85 474.53 165.72 464.29 165.72" style="stroke-width:1.2;stroke:#009147;fill:#fff;stroke-linecap:round;stroke-linejoin:round;stroke-miterlimit:10"/><polygon points="520.83 172.43 525.95 181.3 515.71 181.3" style="stroke-width:1.2;stroke:#009147;fill:#fff;stroke-linecap:round;stroke-linejoin:round;stroke-miterlimit:10"/><polygon points="572.26 166.63 577.38 175.5 567.14 175.5" style="stroke-width:1.2;stroke:#009147;fill:#fff;stroke-linecap:round;stroke-linejoin:round;stroke-miterlimit:10"/><circle cx="109.43" cy="145.73" r="3.8" style="stroke-width:1.2;stroke:#b9519e;fill:#fff;stroke-linecap:round;stroke-linejoin:round;stroke-miterlimit:10"/><circle cx="160.86" cy="122.04" r="3.8" style="stroke-width:1.2;stroke:#b9519e;fill:#fff;stroke-linecap:round;stroke-linejoin:round;stroke-miterlimit:10"/><circle cx="212.28" cy="127.44" r="3.8" style="stroke-width:1.2;stroke:#b9519e;fill:#fff;stroke-linecap:round;stroke-linejoin:round;stroke-miterlimit:10"/><circle cx="263.71" cy="119.7" r="3.8" style="stroke-width:1.2;stroke:#b9519e;fill:#fff;stroke-linecap:round;stroke-linejoin:round;stroke-miterlimit:10"/><circle cx="315.13" cy="110.32" r="3.8" style="stroke-width:1.2;stroke:#b9519e;fill:#fff;stroke-linecap:round;stroke-linejoin:round;stroke-miterlimit:10"/><circle cx="366.56" cy="125.56" r="3.8" style="stroke-width:1.2;stroke:#b9519e;fill:#fff;stroke-linecap:round;stroke-linejoin:round;stroke-miterlimit:10"/><circle cx="417.98" cy="122.98" r="3.8" style="stroke-width:1.2;stroke:#b9519e;fill:#fff;stroke-linecap:round;stroke-linejoin:round;stroke-miterlimit:10"/><circle cx="469.41" cy="114.77" r="3.8" style="stroke-width:1.2;stroke:#b9519e;fill:#fff;stroke-linecap:round;stroke-linejoin:round;stroke-miterlimit:10"/><circle cx="520.83" cy="135.18" r="3.8" style="stroke-width:1.2;stroke:#b9519e;fill:#fff;stroke-linecap:round;stroke-linejoin:round;stroke-miterlimit:10"/><circle cx="572.26" cy="146.43" r="3.8" style="stroke-width:1.2;stroke:#b9519e;fill:#fff;stroke-linecap:round;stroke-linejoin:round;stroke-miterlimit:10"/><circle cx="109.43" cy="93.24" r="3.8" style="stroke-width:1.2;stroke:#4dd9ff;fill:#fff;stroke-linecap:round;stroke-linejoin:round;stroke-miterlimit:10"/><circle cx="160.86" cy="66.5" r="3.8" style="stroke-width:1.2;stroke:#4dd9ff;fill:#fff;stroke-linecap:round;stroke-linejoin:round;stroke-miterlimit:10"/><circle cx="212.28" cy="52.88" r="3.8" style="stroke-width:1.2;stroke:#4dd9ff;fill:#fff;stroke-linecap:round;stroke-linejoin:round;stroke-miterlimit:10"/><circle cx="263.71" cy="55.2" r="3.8" style="stroke-width:1.2;stroke:#4dd9ff;fill:#fff;stroke-linecap:round;stroke-linejoin:round;stroke-miterlimit:10"/><circle cx="315.13" cy="51.71" r="3.8" style="stroke-width:1.2;stroke:#4dd9ff;fill:#fff;stroke-linecap:round;stroke-linejoin:round;stroke-miterlimit:10"/><circle cx="366.56" cy="56.53" r="3.8" style="stroke-width:1.2;stroke:#4dd9ff;fill:#fff;stroke-linecap:round;stroke-linejoin:round;stroke-miterlimit:10"/><circle cx="417.98" cy="65.33" r="3.8" style="stroke-width:1.2;stroke:#4dd9ff;fill:#fff;stroke-linecap:round;stroke-linejoin:round;stroke-miterlimit:10"/><circle cx="469.41" cy="66" r="3.8" style="stroke-width:1.2;stroke:#4dd9ff;fill:#fff;stroke-linecap:round;stroke-linejoin:round;stroke-miterlimit:10"/><circle cx="520.83" cy="63.84" r="3.8" style="stroke-width:1.2;stroke:#4dd9ff;fill:#fff;stroke-linecap:round;stroke-linejoin:round;stroke-miterlimit:10"/><circle cx="572.26" cy="91.41" r="3.8" style="stroke-width:1.2;stroke:#4dd9ff;fill:#fff;stroke-linecap:round;stroke-linejoin:round;stroke-miterlimit:10"/><circle cx="109.43" cy="186.21" r="3.8" style="stroke-width:1.2;stroke:#f49323;fill:#fff;stroke-linecap:round;stroke-linejoin:round;stroke-miterlimit:10"/><circle cx="160.86" cy="168.73" r="3.8" style="stroke-width:1.2;stroke:#f49323;fill:#fff;stroke-linecap:round;stroke-linejoin:round;stroke-miterlimit:10"/><circle cx="212.28" cy="172.71" r="3.8" style="stroke-width:1.2;stroke:#f49323;fill:#fff;stroke-linecap:round;stroke-linejoin:round;stroke-miterlimit:10"/><circle cx="263.71" cy="173.63" r="3.8" style="stroke-width:1.2;stroke:#f49323;fill:#fff;stroke-linecap:round;stroke-linejoin:round;stroke-miterlimit:10"/><circle cx="315.13" cy="180.38" r="3.8" style="stroke-width:1.2;stroke:#f49323;fill:#fff;stroke-linecap:round;stroke-linejoin:round;stroke-miterlimit:10"/><circle cx="366.56" cy="175.17" r="3.8" style="stroke-width:1.2;stroke:#f49323;fill:#fff;stroke-linecap:round;stroke-linejoin:round;stroke-miterlimit:10"/><circle cx="417.98" cy="169.34" r="3.8" style="stroke-width:1.2;stroke:#f49323;fill:#fff;stroke-linecap:round;stroke-linejoin:round;stroke-miterlimit:10"/><circle cx="469.41" cy="160.14" r="3.8" style="stroke-width:1.2;stroke:#f49323;fill:#fff;stroke-linecap:round;stroke-linejoin:round;stroke-miterlimit:10"/><circle cx="520.83" cy="178.23" r="3.8" style="stroke-width:1.2;stroke:#f49323;fill:#fff;stroke-linecap:round;stroke-linejoin:round;stroke-miterlimit:10"/><circle cx="572.26" cy="188.05" r="3.8" style="stroke-width:1.2;stroke:#f49323;fill:#fff;stroke-linecap:round;stroke-linejoin:round;stroke-miterlimit:10"/><polygon points="109.43 155.55 114.55 164.42 104.31 164.42" style="stroke-width:1.2;stroke:#7f8182;fill:#fff;stroke-linecap:round;stroke-linejoin:round;stroke-miterlimit:10"/><polygon points="160.86 146.95 165.98 155.82 155.74 155.82" style="stroke-width:1.2;stroke:#7f8182;fill:#fff;stroke-linecap:round;stroke-linejoin:round;stroke-miterlimit:10"/><polygon points="212.28 139.92 217.4 148.79 207.16 148.79" style="stroke-width:1.2;stroke:#7f8182;fill:#fff;stroke-linecap:round;stroke-linejoin:round;stroke-miterlimit:10"/><polygon points="263.71 139.61 268.83 148.47 258.59 148.47" style="stroke-width:1.2;stroke:#7f8182;fill:#fff;stroke-linecap:round;stroke-linejoin:round;stroke-miterlimit:10"/><polygon points="315.13 148.73 320.25 157.6 310.01 157.6" style="stroke-width:1.2;stroke:#7f8182;fill:#fff;stroke-linecap:round;stroke-linejoin:round;stroke-miterlimit:10"/><polygon points="366.56 132.89 371.68 141.76 361.44 141.76" style="stroke-width:1.2;stroke:#7f8182;fill:#fff;stroke-linecap:round;stroke-linejoin:round;stroke-miterlimit:10"/><polygon points="417.98 133.42 423.1 142.28 412.86 142.28" style="stroke-width:1.2;stroke:#7f8182;fill:#fff;stroke-linecap:round;stroke-linejoin:round;stroke-miterlimit:10"/><polygon points="469.41 132.89 474.53 141.76 464.29 141.76" style="stroke-width:1.2;stroke:#7f8182;fill:#fff;stroke-linecap:round;stroke-linejoin:round;stroke-miterlimit:10"/><polygon points="520.83 129.64 525.95 138.51 515.71 138.51" style="stroke-width:1.2;stroke:#7f8182;fill:#fff;stroke-linecap:round;stroke-linejoin:round;stroke-miterlimit:10"/><polygon points="572.26 142.65 577.38 151.52 567.14 151.52" style="stroke-width:1.2;stroke:#7f8182;fill:#fff;stroke-linecap:round;stroke-linejoin:round;stroke-miterlimit:10"/><circle cx="109.43" cy="122.16" r="3.8" style="stroke-width:1.2;fill:#fff;stroke:#000;stroke-linecap:round;stroke-linejoin:round;stroke-miterlimit:10"/><circle cx="160.86" cy="93.56" r="3.8" style="stroke-width:1.2;fill:#fff;stroke:#000;stroke-linecap:round;stroke-linejoin:round;stroke-miterlimit:10"/><circle cx="212.28" cy="81.6" r="3.8" style="stroke-width:1.2;fill:#fff;stroke:#000;stroke-linecap:round;stroke-linejoin:round;stroke-miterlimit:10"/><circle cx="263.71" cy="73.8" r="3.8" style="stroke-width:1.2;fill:#fff;stroke:#000;stroke-linecap:round;stroke-linejoin:round;stroke-miterlimit:10"/><circle cx="315.13" cy="72.24" r="3.8" style="stroke-width:1.2;fill:#fff;stroke:#000;stroke-linecap:round;stroke-linejoin:round;stroke-miterlimit:10"/><circle cx="366.56" cy="68.08" r="3.8" style="stroke-width:1.2;fill:#fff;stroke:#000;stroke-linecap:round;stroke-linejoin:round;stroke-miterlimit:10"/><circle cx="417.98" cy="58.89" r="3.8" style="stroke-width:1.2;fill:#fff;stroke:#000;stroke-linecap:round;stroke-linejoin:round;stroke-miterlimit:10"/><circle cx="469.41" cy="61.49" r="3.8" style="stroke-width:1.2;fill:#fff;stroke:#000;stroke-linecap:round;stroke-linejoin:round;stroke-miterlimit:10"/><circle cx="520.83" cy="53" r="3.8" style="stroke-width:1.2;fill:#fff;stroke:#000;stroke-linecap:round;stroke-linejoin:round;stroke-miterlimit:10"/><circle cx="572.26" cy="70.68" r="3.8" style="stroke-width:1.2;fill:#fff;stroke:#000;stroke-linecap:round;stroke-linejoin:round;stroke-miterlimit:10"/><polygon points="109.43 82.44 114.2 77.67 109.43 72.91 104.67 77.67" style="stroke-width:1.2;stroke:#ed1f24;fill:#fff;stroke-linecap:round;stroke-linejoin:round;stroke-miterlimit:10"/><polygon points="160.86 53.68 165.62 48.91 160.86 44.15 156.09 48.91" style="stroke-width:1.2;stroke:#ed1f24;fill:#fff;stroke-linecap:round;stroke-linejoin:round;stroke-miterlimit:10"/><polygon points="212.28 42 217.05 37.24 212.28 32.47 207.52 37.24" style="stroke-width:1.2;stroke:#ed1f24;fill:#fff;stroke-linecap:round;stroke-linejoin:round;stroke-miterlimit:10"/><polygon points="263.71 36.88 268.47 32.11 263.71 27.35 258.94 32.11" style="stroke-width:1.2;stroke:#ed1f24;fill:#fff;stroke-linecap:round;stroke-linejoin:round;stroke-miterlimit:10"/><polygon points="315.13 47.13 319.9 42.36 315.13 37.6 310.37 42.36" style="stroke-width:1.2;stroke:#ed1f24;fill:#fff;stroke-linecap:round;stroke-linejoin:round;stroke-miterlimit:10"/><polygon points="366.56 42 371.32 37.24 366.56 32.47 361.79 37.24" style="stroke-width:1.2;stroke:#ed1f24;fill:#fff;stroke-linecap:round;stroke-linejoin:round;stroke-miterlimit:10"/><polygon points="417.98 40.01 422.75 35.24 417.98 30.48 413.22 35.24" style="stroke-width:1.2;stroke:#ed1f24;fill:#fff;stroke-linecap:round;stroke-linejoin:round;stroke-miterlimit:10"/><polygon points="469.41 49.98 474.17 45.21 469.41 40.45 464.64 45.21" style="stroke-width:1.2;stroke:#ed1f24;fill:#fff;stroke-linecap:round;stroke-linejoin:round;stroke-miterlimit:10"/><polygon points="520.83 47.98 525.6 43.22 520.83 38.45 516.07 43.22" style="stroke-width:1.2;stroke:#ed1f24;fill:#fff;stroke-linecap:round;stroke-linejoin:round;stroke-miterlimit:10"/><polygon points="572.26 69.34 577.02 64.57 572.26 59.81 567.49 64.57" style="stroke-width:1.2;stroke:#ed1f24;fill:#fff;stroke-linecap:round;stroke-linejoin:round;stroke-miterlimit:10"/><polygon points="109.43 145.71 114.2 140.94 109.43 136.18 104.67 140.94" style="stroke-width:1.2;stroke:#f49323;fill:#fff;stroke-linecap:round;stroke-linejoin:round;stroke-miterlimit:10"/><polygon points="160.86 123.12 165.62 118.35 160.86 113.59 156.09 118.35" style="stroke-width:1.2;stroke:#f49323;fill:#fff;stroke-linecap:round;stroke-linejoin:round;stroke-miterlimit:10"/><polygon points="212.28 113.29 217.05 108.52 212.28 103.76 207.52 108.52" style="stroke-width:1.2;stroke:#f49323;fill:#fff;stroke-linecap:round;stroke-linejoin:round;stroke-miterlimit:10"/><polygon points="263.71 114.08 268.47 109.32 263.71 104.55 258.94 109.32" style="stroke-width:1.2;stroke:#f49323;fill:#fff;stroke-linecap:round;stroke-linejoin:round;stroke-miterlimit:10"/><polygon points="315.13 92.02 319.9 87.26 315.13 82.49 310.37 87.26" style="stroke-width:1.2;stroke:#f49323;fill:#fff;stroke-linecap:round;stroke-linejoin:round;stroke-miterlimit:10"/><polygon points="366.56 107.97 371.32 103.21 366.56 98.44 361.79 103.21" style="stroke-width:1.2;stroke:#f49323;fill:#fff;stroke-linecap:round;stroke-linejoin:round;stroke-miterlimit:10"/><polygon points="417.98 95.21 422.75 90.45 417.98 85.68 413.22 90.45" style="stroke-width:1.2;stroke:#f49323;fill:#fff;stroke-linecap:round;stroke-linejoin:round;stroke-miterlimit:10"/><polygon points="469.41 90.7 474.17 85.93 469.41 81.17 464.64 85.93" style="stroke-width:1.2;stroke:#f49323;fill:#fff;stroke-linecap:round;stroke-linejoin:round;stroke-miterlimit:10"/><polygon points="520.83 82.72 525.6 77.96 520.83 73.19 516.07 77.96" style="stroke-width:1.2;stroke:#f49323;fill:#fff;stroke-linecap:round;stroke-linejoin:round;stroke-miterlimit:10"/><polygon points="572.26 103.72 577.02 98.95 572.26 94.19 567.49 98.95" style="stroke-width:1.2;stroke:#f49323;fill:#fff;stroke-linecap:round;stroke-linejoin:round;stroke-miterlimit:10"/><rect x="106.06" y="171.93" width="6.74" height="6.74" style="stroke-width:1.2;stroke:#b9519e;fill:#fff;stroke-linecap:round;stroke-linejoin:round;stroke-miterlimit:10"/><rect x="157.49" y="153.32" width="6.74" height="6.74" style="stroke-width:1.2;stroke:#b9519e;fill:#fff;stroke-linecap:round;stroke-linejoin:round;stroke-miterlimit:10"/><rect x="208.91" y="133.39" width="6.74" height="6.74" style="stroke-width:1.2;stroke:#b9519e;fill:#fff;stroke-linecap:round;stroke-linejoin:round;stroke-miterlimit:10"/><rect x="260.34" y="116.45" width="6.74" height="6.74" style="stroke-width:1.2;stroke:#b9519e;fill:#fff;stroke-linecap:round;stroke-linejoin:round;stroke-miterlimit:10"/><rect x="311.76" y="100.83" width="6.74" height="6.74" style="stroke-width:1.2;stroke:#b9519e;fill:#fff;stroke-linecap:round;stroke-linejoin:round;stroke-miterlimit:10"/><rect x="363.19" y="83.72" width="6.74" height="6.74" style="stroke-width:1.2;stroke:#b9519e;fill:#fff;stroke-linecap:round;stroke-linejoin:round;stroke-miterlimit:10"/><rect x="414.61" y="79.57" width="6.74" height="6.74" style="stroke-width:1.2;stroke:#b9519e;fill:#fff;stroke-linecap:round;stroke-linejoin:round;stroke-miterlimit:10"/><rect x="466.04" y="74.92" width="6.74" height="6.74" style="stroke-width:1.2;stroke:#b9519e;fill:#fff;stroke-linecap:round;stroke-linejoin:round;stroke-miterlimit:10"/><rect x="517.46" y="76.91" width="6.74" height="6.74" style="stroke-width:1.2;stroke:#b9519e;fill:#fff;stroke-linecap:round;stroke-linejoin:round;stroke-miterlimit:10"/><rect x="568.89" y="93.52" width="6.74" height="6.74" style="stroke-width:1.2;stroke:#b9519e;fill:#fff;stroke-linecap:round;stroke-linejoin:round;stroke-miterlimit:10"/><polygon points="109.43 172.66 114.55 181.53 104.31 181.53" style="stroke-width:1.2;stroke:#4dd9ff;fill:#fff;stroke-linecap:round;stroke-linejoin:round;stroke-miterlimit:10"/><polygon points="160.86 134.12 165.98 142.99 155.74 142.99" style="stroke-width:1.2;stroke:#4dd9ff;fill:#fff;stroke-linecap:round;stroke-linejoin:round;stroke-miterlimit:10"/><polygon points="212.28 115.52 217.4 124.39 207.16 124.39" style="stroke-width:1.2;stroke:#4dd9ff;fill:#fff;stroke-linecap:round;stroke-linejoin:round;stroke-miterlimit:10"/><polygon points="263.71 102.23 268.83 111.1 258.59 111.1" style="stroke-width:1.2;stroke:#4dd9ff;fill:#fff;stroke-linecap:round;stroke-linejoin:round;stroke-miterlimit:10"/><polygon points="315.13 97.67 320.25 106.54 310.01 106.54" style="stroke-width:1.2;stroke:#4dd9ff;fill:#fff;stroke-linecap:round;stroke-linejoin:round;stroke-miterlimit:10"/><polygon points="366.56 83.43 371.68 92.3 361.44 92.3" style="stroke-width:1.2;stroke:#4dd9ff;fill:#fff;stroke-linecap:round;stroke-linejoin:round;stroke-miterlimit:10"/><polygon points="417.98 71.29 423.1 80.15 412.86 80.15" style="stroke-width:1.2;stroke:#4dd9ff;fill:#fff;stroke-linecap:round;stroke-linejoin:round;stroke-miterlimit:10"/><polygon points="469.41 59.14 474.53 68 464.29 68" style="stroke-width:1.2;stroke:#4dd9ff;fill:#fff;stroke-linecap:round;stroke-linejoin:round;stroke-miterlimit:10"/><polygon points="520.83 51.54 525.95 60.41 515.71 60.41" style="stroke-width:1.2;stroke:#4dd9ff;fill:#fff;stroke-linecap:round;stroke-linejoin:round;stroke-miterlimit:10"/><polygon points="572.26 47.94 577.38 56.8 567.14 56.8" style="stroke-width:1.2;stroke:#4dd9ff;fill:#fff;stroke-linecap:round;stroke-linejoin:round;stroke-miterlimit:10"/><circle cx="109.43" cy="235.09" r="3.8" style="stroke-width:1.2;stroke:#ed1f24;fill:#fff;stroke-linecap:round;stroke-linejoin:round;stroke-miterlimit:10"/><circle cx="160.86" cy="225.13" r="3.8" style="stroke-width:1.2;stroke:#ed1f24;fill:#fff;stroke-linecap:round;stroke-linejoin:round;stroke-miterlimit:10"/><circle cx="212.28" cy="226.12" r="3.8" style="stroke-width:1.2;stroke:#ed1f24;fill:#fff;stroke-linecap:round;stroke-linejoin:round;stroke-miterlimit:10"/><circle cx="263.71" cy="206.52" r="3.8" style="stroke-width:1.2;stroke:#ed1f24;fill:#fff;stroke-linecap:round;stroke-linejoin:round;stroke-miterlimit:10"/><circle cx="315.13" cy="211.84" r="3.8" style="stroke-width:1.2;stroke:#ed1f24;fill:#fff;stroke-linecap:round;stroke-linejoin:round;stroke-miterlimit:10"/><circle cx="366.56" cy="211.84" r="3.8" style="stroke-width:1.2;stroke:#ed1f24;fill:#fff;stroke-linecap:round;stroke-linejoin:round;stroke-miterlimit:10"/><circle cx="417.98" cy="233.43" r="3.8" style="stroke-width:1.2;stroke:#ed1f24;fill:#fff;stroke-linecap:round;stroke-linejoin:round;stroke-miterlimit:10"/><circle cx="469.41" cy="231.44" r="3.8" style="stroke-width:1.2;stroke:#ed1f24;fill:#fff;stroke-linecap:round;stroke-linejoin:round;stroke-miterlimit:10"/><circle cx="520.83" cy="219.48" r="3.8" style="stroke-width:1.2;stroke:#ed1f24;fill:#fff;stroke-linecap:round;stroke-linejoin:round;stroke-miterlimit:10"/><circle cx="572.26" cy="227.45" r="3.8" style="stroke-width:1.2;stroke:#ed1f24;fill:#fff;stroke-linecap:round;stroke-linejoin:round;stroke-miterlimit:10"/><rect x="106.06" y="149.19" width="6.74" height="6.74" style="stroke-width:1.2;stroke:#1f3bff;fill:#fff;stroke-linecap:round;stroke-linejoin:round;stroke-miterlimit:10"/><rect x="157.49" y="108.19" width="6.74" height="6.74" style="stroke-width:1.2;stroke:#1f3bff;fill:#fff;stroke-linecap:round;stroke-linejoin:round;stroke-miterlimit:10"/><rect x="208.91" y="95.37" width="6.74" height="6.74" style="stroke-width:1.2;stroke:#1f3bff;fill:#fff;stroke-linecap:round;stroke-linejoin:round;stroke-miterlimit:10"/><rect x="260.34" y="99.93" width="6.74" height="6.74" style="stroke-width:1.2;stroke:#1f3bff;fill:#fff;stroke-linecap:round;stroke-linejoin:round;stroke-miterlimit:10"/><rect x="311.76" y="86.26" width="6.74" height="6.74" style="stroke-width:1.2;stroke:#1f3bff;fill:#fff;stroke-linecap:round;stroke-linejoin:round;stroke-miterlimit:10"/><rect x="363.19" y="67.47" width="6.74" height="6.74" style="stroke-width:1.2;stroke:#1f3bff;fill:#fff;stroke-linecap:round;stroke-linejoin:round;stroke-miterlimit:10"/><rect x="414.61" y="68.61" width="6.74" height="6.74" style="stroke-width:1.2;stroke:#1f3bff;fill:#fff;stroke-linecap:round;stroke-linejoin:round;stroke-miterlimit:10"/><rect x="466.04" y="62.91" width="6.74" height="6.74" style="stroke-width:1.2;stroke:#1f3bff;fill:#fff;stroke-linecap:round;stroke-linejoin:round;stroke-miterlimit:10"/><rect x="517.46" y="69.75" width="6.74" height="6.74" style="stroke-width:1.2;stroke:#1f3bff;fill:#fff;stroke-linecap:round;stroke-linejoin:round;stroke-miterlimit:10"/><rect x="568.89" y="95.37" width="6.74" height="6.74" style="stroke-width:1.2;stroke:#1f3bff;fill:#fff;stroke-linecap:round;stroke-linejoin:round;stroke-miterlimit:10"/><circle cx="109.43" cy="240.32" r="3.8" style="stroke-width:1.2;stroke:#009147;fill:#fff;stroke-linecap:round;stroke-linejoin:round;stroke-miterlimit:10"/><circle cx="160.86" cy="243.22" r="3.8" style="stroke-width:1.2;stroke:#009147;fill:#fff;stroke-linecap:round;stroke-linejoin:round;stroke-miterlimit:10"/><circle cx="212.28" cy="239.59" r="3.8" style="stroke-width:1.2;stroke:#009147;fill:#fff;stroke-linecap:round;stroke-linejoin:round;stroke-miterlimit:10"/><circle cx="263.71" cy="233.43" r="3.8" style="stroke-width:1.2;stroke:#009147;fill:#fff;stroke-linecap:round;stroke-linejoin:round;stroke-miterlimit:10"/><circle cx="315.13" cy="233.79" r="3.8" style="stroke-width:1.2;stroke:#009147;fill:#fff;stroke-linecap:round;stroke-linejoin:round;stroke-miterlimit:10"/><circle cx="366.56" cy="239.59" r="3.8" style="stroke-width:1.2;stroke:#009147;fill:#fff;stroke-linecap:round;stroke-linejoin:round;stroke-miterlimit:10"/><circle cx="417.98" cy="243.22" r="3.8" style="stroke-width:1.2;stroke:#009147;fill:#fff;stroke-linecap:round;stroke-linejoin:round;stroke-miterlimit:10"/><circle cx="469.41" cy="255.9" r="3.8" style="stroke-width:1.2;stroke:#009147;fill:#fff;stroke-linecap:round;stroke-linejoin:round;stroke-miterlimit:10"/><circle cx="520.83" cy="258.44" r="3.8" style="stroke-width:1.2;stroke:#009147;fill:#fff;stroke-linecap:round;stroke-linejoin:round;stroke-miterlimit:10"/><circle cx="572.26" cy="234.16" r="3.8" style="stroke-width:1.2;stroke:#009147;fill:#fff;stroke-linecap:round;stroke-linejoin:round;stroke-miterlimit:10"/><circle cx="109.43" cy="228.7" r="3.8" style="stroke-width:1.2;stroke:#7f8182;fill:#fff;stroke-linecap:round;stroke-linejoin:round;stroke-miterlimit:10"/><circle cx="160.86" cy="228.2" r="3.8" style="stroke-width:1.2;stroke:#7f8182;fill:#fff;stroke-linecap:round;stroke-linejoin:round;stroke-miterlimit:10"/><circle cx="212.28" cy="225.96" r="3.8" style="stroke-width:1.2;stroke:#7f8182;fill:#fff;stroke-linecap:round;stroke-linejoin:round;stroke-miterlimit:10"/><circle cx="263.71" cy="230.19" r="3.8" style="stroke-width:1.2;stroke:#7f8182;fill:#fff;stroke-linecap:round;stroke-linejoin:round;stroke-miterlimit:10"/><circle cx="315.13" cy="221.97" r="3.8" style="stroke-width:1.2;stroke:#7f8182;fill:#fff;stroke-linecap:round;stroke-linejoin:round;stroke-miterlimit:10"/><circle cx="366.56" cy="218.98" r="3.8" style="stroke-width:1.2;stroke:#7f8182;fill:#fff;stroke-linecap:round;stroke-linejoin:round;stroke-miterlimit:10"/><circle cx="417.98" cy="213" r="3.8" style="stroke-width:1.2;stroke:#7f8182;fill:#fff;stroke-linecap:round;stroke-linejoin:round;stroke-miterlimit:10"/><circle cx="469.41" cy="208.02" r="3.8" style="stroke-width:1.2;stroke:#7f8182;fill:#fff;stroke-linecap:round;stroke-linejoin:round;stroke-miterlimit:10"/><circle cx="520.83" cy="208.02" r="3.8" style="stroke-width:1.2;stroke:#7f8182;fill:#fff;stroke-linecap:round;stroke-linejoin:round;stroke-miterlimit:10"/><circle cx="572.26" cy="211.51" r="3.8" style="stroke-width:1.2;stroke:#7f8182;fill:#fff;stroke-linecap:round;stroke-linejoin:round;stroke-miterlimit:10"/><polygon points="109.43 212.68 114.2 207.92 109.43 203.15 104.67 207.92" style="stroke-width:1.2;stroke:#b9519e;fill:#fff;stroke-linecap:round;stroke-linejoin:round;stroke-miterlimit:10"/><polygon points="160.86 170.82 165.62 166.06 160.86 161.29 156.09 166.06" style="stroke-width:1.2;stroke:#b9519e;fill:#fff;stroke-linecap:round;stroke-linejoin:round;stroke-miterlimit:10"/><polygon points="212.28 133.75 217.05 128.98 212.28 124.22 207.52 128.98" style="stroke-width:1.2;stroke:#b9519e;fill:#fff;stroke-linecap:round;stroke-linejoin:round;stroke-miterlimit:10"/><polygon points="263.71 121.39 268.47 116.63 263.71 111.86 258.94 116.63" style="stroke-width:1.2;stroke:#b9519e;fill:#fff;stroke-linecap:round;stroke-linejoin:round;stroke-miterlimit:10"/><polygon points="315.13 97.87 319.9 93.11 315.13 88.34 310.37 93.11" style="stroke-width:1.2;stroke:#b9519e;fill:#fff;stroke-linecap:round;stroke-linejoin:round;stroke-miterlimit:10"/><polygon points="366.56 86.31 371.32 81.55 366.56 76.78 361.79 81.55" style="stroke-width:1.2;stroke:#b9519e;fill:#fff;stroke-linecap:round;stroke-linejoin:round;stroke-miterlimit:10"/><polygon points="417.98 79.13 422.75 74.37 417.98 69.6 413.22 74.37" style="stroke-width:1.2;stroke:#b9519e;fill:#fff;stroke-linecap:round;stroke-linejoin:round;stroke-miterlimit:10"/><polygon points="469.41 74.35 474.17 69.59 469.41 64.82 464.64 69.59" style="stroke-width:1.2;stroke:#b9519e;fill:#fff;stroke-linecap:round;stroke-linejoin:round;stroke-miterlimit:10"/><polygon points="520.83 65.18 525.6 60.42 520.83 55.65 516.07 60.42" style="stroke-width:1.2;stroke:#b9519e;fill:#fff;stroke-linecap:round;stroke-linejoin:round;stroke-miterlimit:10"/><polygon points="572.26 85.11 577.02 80.35 572.26 75.58 567.49 80.35" style="stroke-width:1.2;stroke:#b9519e;fill:#fff;stroke-linecap:round;stroke-linejoin:round;stroke-miterlimit:10"/><polyline points="83.72 333.09 83.72 14.17" style="stroke-width:1.07;stroke:#464646;stroke-linecap:butt;fill:none;stroke-linejoin:round;stroke-miterlimit:10"/><text x="57.04" y="337.5" style="font-size:18px;font-family:Asap" textLength="9.63" lengthAdjust="spacingAndGlyphs">0</text><text x="57.04" y="257.77" style="font-size:18px;font-family:Asap" textLength="9.63" lengthAdjust="spacingAndGlyphs">5</text><text x="47.41" y="178.04" style="font-size:18px;font-family:Asap" textLength="19.27" lengthAdjust="spacingAndGlyphs">10</text><text x="47.41" y="98.31" style="font-size:18px;font-family:Asap" textLength="19.27" lengthAdjust="spacingAndGlyphs">15</text><text x="47.41" y="18.58" style="font-size:18px;font-family:Asap" textLength="19.27" lengthAdjust="spacingAndGlyphs">20</text><polyline points="76.64 333.09 83.72 333.09" style="stroke-width:1.07;stroke:#464646;stroke-linecap:butt;fill:none;stroke-linejoin:round;stroke-miterlimit:10"/><polyline points="76.64 253.36 83.72 253.36" style="stroke-width:1.07;stroke:#464646;stroke-linecap:butt;fill:none;stroke-linejoin:round;stroke-miterlimit:10"/><polyline points="76.64 173.63 83.72 173.63" style="stroke-width:1.07;stroke:#464646;stroke-linecap:butt;fill:none;stroke-linejoin:round;stroke-miterlimit:10"/><polyline points="76.64 93.9 83.72 93.9" style="stroke-width:1.07;stroke:#464646;stroke-linecap:butt;fill:none;stroke-linejoin:round;stroke-miterlimit:10"/><polyline points="76.64 14.17 83.72 14.17" style="stroke-width:1.07;stroke:#464646;stroke-linecap:butt;fill:none;stroke-linejoin:round;stroke-miterlimit:10"/><polyline points="83.72 333.09 572.26 333.09" style="stroke-width:1.07;stroke:#464646;stroke-linecap:butt;fill:none;stroke-linejoin:round;stroke-miterlimit:10"/><polyline points="109.43 340.18 109.43 333.09" style="stroke-width:1.07;stroke:#464646;stroke-linecap:butt;fill:none;stroke-linejoin:round;stroke-miterlimit:10"/><polyline points="160.86 340.18 160.86 333.09" style="stroke-width:1.07;stroke:#464646;stroke-linecap:butt;fill:none;stroke-linejoin:round;stroke-miterlimit:10"/><polyline points="212.28 340.18 212.28 333.09" style="stroke-width:1.07;stroke:#464646;stroke-linecap:butt;fill:none;stroke-linejoin:round;stroke-miterlimit:10"/><polyline points="263.71 340.18 263.71 333.09" style="stroke-width:1.07;stroke:#464646;stroke-linecap:butt;fill:none;stroke-linejoin:round;stroke-miterlimit:10"/><polyline points="315.13 340.18 315.13 333.09" style="stroke-width:1.07;stroke:#464646;stroke-linecap:butt;fill:none;stroke-linejoin:round;stroke-miterlimit:10"/><polyline points="366.56 340.18 366.56 333.09" style="stroke-width:1.07;stroke:#464646;stroke-linecap:butt;fill:none;stroke-linejoin:round;stroke-miterlimit:10"/><polyline points="417.98 340.18 417.98 333.09" style="stroke-width:1.07;stroke:#464646;stroke-linecap:butt;fill:none;stroke-linejoin:round;stroke-miterlimit:10"/><polyline points="469.41 340.18 469.41 333.09" style="stroke-width:1.07;stroke:#464646;stroke-linecap:butt;fill:none;stroke-linejoin:round;stroke-miterlimit:10"/><polyline points="520.83 340.18 520.83 333.09" style="stroke-width:1.07;stroke:#464646;stroke-linecap:butt;fill:none;stroke-linejoin:round;stroke-miterlimit:10"/><polyline points="572.26 340.18 572.26 333.09" style="stroke-width:1.07;stroke:#464646;stroke-linecap:butt;fill:none;stroke-linejoin:round;stroke-miterlimit:10"/><text x="104.62" y="362.78" style="font-size:18px;font-family:Asap" textLength="9.63" lengthAdjust="spacingAndGlyphs">1</text><text x="156.04" y="362.78" style="font-size:18px;font-family:Asap" textLength="9.63" lengthAdjust="spacingAndGlyphs">2</text><text x="207.47" y="362.78" style="font-size:18px;font-family:Asap" textLength="9.63" lengthAdjust="spacingAndGlyphs">3</text><text x="258.89" y="362.78" style="font-size:18px;font-family:Asap" textLength="9.63" lengthAdjust="spacingAndGlyphs">4</text><text x="310.32" y="362.78" style="font-size:18px;font-family:Asap" textLength="9.63" lengthAdjust="spacingAndGlyphs">5</text><text x="361.74" y="362.78" style="font-size:18px;font-family:Asap" textLength="9.63" lengthAdjust="spacingAndGlyphs">6</text><text x="413.17" y="362.78" style="font-size:18px;font-family:Asap" textLength="9.63" lengthAdjust="spacingAndGlyphs">7</text><text x="464.59" y="362.78" style="font-size:18px;font-family:Asap" textLength="9.63" lengthAdjust="spacingAndGlyphs">8</text><text x="516.02" y="362.78" style="font-size:18px;font-family:Asap" textLength="9.63" lengthAdjust="spacingAndGlyphs">9</text><text x="562.62" y="362.78" style="font-size:18px;font-family:Asap" textLength="19.27" lengthAdjust="spacingAndGlyphs">10</text><text x="299.25" y="395.59" style="font-size:20px;font-weight:600;font-family:Asap" textLength="57.48" lengthAdjust="spacingAndGlyphs">Period</text><text transform="rotate(-90 179.345 151.125)" style="font-size:20px;font-weight:600;font-family:Asap" textLength="49.68" lengthAdjust="spacingAndGlyphs">Mean</text><text transform="rotate(-90 152.105 123.885)" style="font-size:20px;font-weight:600;font-family:Asap" textLength="108.86" lengthAdjust="spacingAndGlyphs">contribution</text><text transform="rotate(-90 95.27 67.05)" style="font-size:20px;font-weight:600;font-family:Asap" textLength="18.22" lengthAdjust="spacingAndGlyphs">to</text><text transform="rotate(-90 83.76 55.54)" style="font-size:20px;font-weight:600;font-family:Asap" textLength="77.53" lengthAdjust="spacingAndGlyphs">common</text><text transform="rotate(-90 42.59 14.37)" style="font-size:20px;font-weight:600;font-family:Asap" textLength="40.17" lengthAdjust="spacingAndGlyphs">pool</text><rect x="583.22" y="-7.39" width="212.61" height="362.04" style="stroke-width:1.07;stroke:none;fill:none;stroke-linecap:round;stroke-linejoin:round;stroke-miterlimit:10"/><line x1="590.86" y1="14.37" x2="608.14" y2="14.37" style="stroke-width:1.07;stroke:#ed1f24;stroke-linecap:butt;fill:none;stroke-linejoin:round;stroke-miterlimit:10"/><rect x="600.92" y="9.32" width="10.11" height="10.11" style="stroke-width:1.2;stroke:#ed1f24;fill:#fff;stroke-linecap:round;stroke-linejoin:round;stroke-miterlimit:10"/><line x1="590.86" y1="35.97" x2="608.14" y2="35.97" style="stroke-width:1.07;stroke:#009147;stroke-dasharray:2.85,2.85;stroke-linecap:butt;fill:none;stroke-linejoin:round;stroke-miterlimit:10"/><polygon points="605.98 27.1 613.66 40.41 598.3 40.41" style="stroke-width:1.2;stroke:#009147;fill:#fff;stroke-linecap:round;stroke-linejoin:round;stroke-miterlimit:10"/><line x1="590.86" y1="57.57" x2="608.14" y2="57.57" style="stroke-width:1.07;stroke:#b9519e;stroke-linecap:butt;fill:none;stroke-linejoin:round;stroke-miterlimit:10"/><circle cx="605.98" cy="57.57" r="5.7" style="stroke-width:1.2;stroke:#b9519e;fill:#fff;stroke-linecap:round;stroke-linejoin:round;stroke-miterlimit:10"/><line x1="590.86" y1="79.17" x2="608.14" y2="79.17" style="stroke-width:1.07;stroke:#4dd9ff;stroke-linecap:butt;fill:none;stroke-linejoin:round;stroke-miterlimit:10"/><circle cx="605.98" cy="79.17" r="5.7" style="stroke-width:1.2;stroke:#4dd9ff;fill:#fff;stroke-linecap:round;stroke-linejoin:round;stroke-miterlimit:10"/><line x1="590.86" y1="100.77" x2="608.14" y2="100.77" style="stroke-width:1.07;stroke:#f49323;stroke-dasharray:2.85,2.85;stroke-linecap:butt;fill:none;stroke-linejoin:round;stroke-miterlimit:10"/><circle cx="605.98" cy="100.77" r="5.7" style="stroke-width:1.2;stroke:#f49323;fill:#fff;stroke-linecap:round;stroke-linejoin:round;stroke-miterlimit:10"/><line x1="590.86" y1="122.37" x2="608.14" y2="122.37" style="stroke-width:1.07;stroke:#7f8182;stroke-linecap:butt;fill:none;stroke-linejoin:round;stroke-miterlimit:10"/><polygon points="605.98 113.5 613.66 126.81 598.3 126.81" style="stroke-width:1.2;stroke:#7f8182;fill:#fff;stroke-linecap:round;stroke-linejoin:round;stroke-miterlimit:10"/><line x1="590.86" y1="143.97" x2="608.14" y2="143.97" style="stroke-width:1.07;stroke-linecap:butt;fill:none;stroke:#000;stroke-linejoin:round;stroke-miterlimit:10"/><circle cx="605.98" cy="143.97" r="5.7" style="stroke-width:1.2;fill:#fff;stroke:#000;stroke-linecap:round;stroke-linejoin:round;stroke-miterlimit:10"/><line x1="590.86" y1="165.57" x2="608.14" y2="165.57" style="stroke-width:1.07;stroke:#ed1f24;stroke-dasharray:2.85,2.85;stroke-linecap:butt;fill:none;stroke-linejoin:round;stroke-miterlimit:10"/><polygon points="605.98 172.72 613.12 165.57 605.98 158.43 598.83 165.57" style="stroke-width:1.2;stroke:#ed1f24;fill:#fff;stroke-linecap:round;stroke-linejoin:round;stroke-miterlimit:10"/><line x1="590.86" y1="187.17" x2="608.14" y2="187.17" style="stroke-width:1.07;stroke:#f49323;stroke-linecap:butt;fill:none;stroke-linejoin:round;stroke-miterlimit:10"/><polygon points="605.98 194.32 613.12 187.17 605.98 180.03 598.83 187.17" style="stroke-width:1.2;stroke:#f49323;fill:#fff;stroke-linecap:round;stroke-linejoin:round;stroke-miterlimit:10"/><line x1="590.86" y1="208.77" x2="608.14" y2="208.77" style="stroke-width:1.07;stroke:#b9519e;stroke-dasharray:2.85,2.85;stroke-linecap:butt;fill:none;stroke-linejoin:round;stroke-miterlimit:10"/><rect x="600.92" y="203.72" width="10.11" height="10.11" style="stroke-width:1.2;stroke:#b9519e;fill:#fff;stroke-linecap:round;stroke-linejoin:round;stroke-miterlimit:10"/><line x1="590.86" y1="230.37" x2="608.14" y2="230.37" style="stroke-width:1.07;stroke:#4dd9ff;stroke-dasharray:2.85,2.85;stroke-linecap:butt;fill:none;stroke-linejoin:round;stroke-miterlimit:10"/><polygon points="605.98 221.5 613.66 234.81 598.3 234.81" style="stroke-width:1.2;stroke:#4dd9ff;fill:#fff;stroke-linecap:round;stroke-linejoin:round;stroke-miterlimit:10"/><line x1="590.86" y1="251.97" x2="608.14" y2="251.97" style="stroke-width:1.07;stroke:#ed1f24;stroke-dasharray:2.85,2.85;stroke-linecap:butt;fill:none;stroke-linejoin:round;stroke-miterlimit:10"/><circle cx="605.98" cy="251.97" r="5.7" style="stroke-width:1.2;stroke:#ed1f24;fill:#fff;stroke-linecap:round;stroke-linejoin:round;stroke-miterlimit:10"/><line x1="590.86" y1="273.57" x2="608.14" y2="273.57" style="stroke-width:1.07;stroke:#1f3bff;stroke-linecap:butt;fill:none;stroke-linejoin:round;stroke-miterlimit:10"/><rect x="600.92" y="268.52" width="10.11" height="10.11" style="stroke-width:1.2;stroke:#1f3bff;fill:#fff;stroke-linecap:round;stroke-linejoin:round;stroke-miterlimit:10"/><line x1="590.86" y1="295.17" x2="608.14" y2="295.17" style="stroke-width:1.07;stroke:#009147;stroke-linecap:butt;fill:none;stroke-linejoin:round;stroke-miterlimit:10"/><circle cx="605.98" cy="295.17" r="5.7" style="stroke-width:1.2;stroke:#009147;fill:#fff;stroke-linecap:round;stroke-linejoin:round;stroke-miterlimit:10"/><line x1="590.86" y1="316.77" x2="608.14" y2="316.77" style="stroke-width:1.07;stroke:#7f8182;stroke-dasharray:2.85,2.85;stroke-linecap:butt;fill:none;stroke-linejoin:round;stroke-miterlimit:10"/><circle cx="605.98" cy="316.77" r="5.7" style="stroke-width:1.2;stroke:#7f8182;fill:#fff;stroke-linecap:round;stroke-linejoin:round;stroke-miterlimit:10"/><line x1="590.86" y1="338.37" x2="608.14" y2="338.37" style="stroke-width:1.07;stroke:#b9519e;stroke-linecap:butt;fill:none;stroke-linejoin:round;stroke-miterlimit:10"/><polygon points="605.98 345.52 613.12 338.37 605.98 331.23 598.83 338.37" style="stroke-width:1.2;stroke:#b9519e;fill:#fff;stroke-linecap:round;stroke-linejoin:round;stroke-miterlimit:10"/><text x="615.78" y="18.29" style="font-size:16px;font-family:Asap" textLength="89.73" lengthAdjust="spacingAndGlyphs">Copenhagen</text><text x="615.78" y="39.89" style="font-size:16px;font-family:Asap" textLength="112.71" lengthAdjust="spacingAndGlyphs">Dnipropetrovs’k</text><text x="732.32" y="39.89" style="font-size:16px;font-family:Asap" textLength="58.02" lengthAdjust="spacingAndGlyphs">(Dnipro)</text><text x="615.78" y="61.49" style="font-size:16px;font-family:Asap" textLength="41.59" lengthAdjust="spacingAndGlyphs">Minsk</text><text x="615.78" y="83.09" style="font-size:16px;font-family:Asap" textLength="16.64" lengthAdjust="spacingAndGlyphs">St.</text><text x="636.25" y="83.09" style="font-size:16px;font-family:Asap" textLength="46.51" lengthAdjust="spacingAndGlyphs">Gallen</text><text x="615.78" y="104.69" style="font-size:16px;font-family:Asap" textLength="50.96" lengthAdjust="spacingAndGlyphs">Muscat</text><text x="615.78" y="126.29" style="font-size:16px;font-family:Asap" textLength="53.58" lengthAdjust="spacingAndGlyphs">Samara</text><text x="615.78" y="147.89" style="font-size:16px;font-family:Asap" textLength="45.66" lengthAdjust="spacingAndGlyphs">Zurich</text><text x="615.78" y="169.49" style="font-size:16px;font-family:Asap" textLength="48.69" lengthAdjust="spacingAndGlyphs">Boston</text><text x="615.78" y="191.09" style="font-size:16px;font-family:Asap" textLength="36.42" lengthAdjust="spacingAndGlyphs">Bonn</text><text x="615.78" y="212.69" style="font-size:16px;font-family:Asap" textLength="63.16" lengthAdjust="spacingAndGlyphs">Chengdu</text><text x="615.78" y="234.29" style="font-size:16px;font-family:Asap" textLength="39.39" lengthAdjust="spacingAndGlyphs">Seoul</text><text x="615.78" y="255.89" style="font-size:16px;font-family:Asap" textLength="48.48" lengthAdjust="spacingAndGlyphs">Riyadh</text><text x="615.78" y="277.49" style="font-size:16px;font-family:Asap" textLength="84.76" lengthAdjust="spacingAndGlyphs">Nottingham</text><text x="615.78" y="299.09" style="font-size:16px;font-family:Asap" textLength="48.46" lengthAdjust="spacingAndGlyphs">Athens</text><text x="615.78" y="320.69" style="font-size:16px;font-family:Asap" textLength="57.01" lengthAdjust="spacingAndGlyphs">Istanbul</text><text x="615.78" y="342.29" style="font-size:16px;font-family:Asap" textLength="77.37" lengthAdjust="spacingAndGlyphs">Melbourne</text></g></svg>