<svg version="1.1" xmlns="http://www.w3.org/2000/svg" x="0" y="0" viewBox="0 0 311.81 195.59" style="enable-background:new 0 0 311.81 195.59" xml:space="preserve"><rect x="102.19" y="9.71" style="fill:#e3e3f2" width="136.34" height="106.09"/><polyline style="fill:none;stroke:#3a53a4;stroke-width:.5;stroke-miterlimit:10" points="102.19 9.71 102.19 115.81 238.53 115.81"/><line style="fill:none;stroke:#ed2124;stroke-width:.5;stroke-miterlimit:10" x1="86.65" y1="40.42" x2="147.59" y2="161.26"/><text transform="translate(149.686 128.536)" style="font-family:'Asap-Regular';font-size:6px">B</text><text transform="translate(104.04 69.246)" style="font-family:'Asap-Regular';font-size:6px">A</text><text transform="translate(149.686 157.351)" style="fill:#ed2124;font-family:'Asap-Regular';font-size:6px">F</text><text transform="translate(89.503 40.42)" style="fill:#ed2124;font-family:'Asap-Regular';font-size:6px">G</text><line style="fill:none;stroke:#ed2124;stroke-width:.5;stroke-linecap:square;stroke-linejoin:round;stroke-miterlimit:10;stroke-dasharray:1.4173,2.8346" x1="87.2" y1="100.84" x2="207.85" y2="161.26"/><text transform="translate(89.503 98.501)" style="fill:#ed2124;font-family:'Asap-Regular';font-size:6px">J</text><text transform="translate(207.85 156.208)" style="fill:#ed2124;font-family:'Asap-Regular';font-size:6px">H</text><circle cx="147.55" cy="131.05" r="1.13"/><circle cx="102.44" cy="71.53" r="1.13"/><circle cx="102.19" cy="115.81" r="1.13"/><text transform="translate(142.64 149.834)" style="font-family:'Asap-Regular';font-size:6px">Cost = £40</text><text transform="translate(179.968 142.977)" style="font-family:'Asap-Regular';font-size:6px">Cost = £80</text><text transform="translate(103.546 123.298)"><tspan x="0" y="0" style="font-family:'Asap-Regular';font-size:6px">A</tspan><tspan x="3.68" y="0" style="font-family:'SourceSansPro-Regular';font-size:6px">′</tspan></text><g><path style="fill:none;stroke:#6d6e71;stroke-width:.5;stroke-miterlimit:10" d="M254.41 161.26H86.65V1.38"/><line style="fill:none;stroke:#6d6e71;stroke-width:.5;stroke-miterlimit:10" x1="86.67" y1="130.96" x2="84.55" y2="130.96"/><line style="fill:none;stroke:#6d6e71;stroke-width:.5;stroke-miterlimit:10" x1="86.67" y1="115.81" x2="84.55" y2="115.81"/><line style="fill:none;stroke:#6d6e71;stroke-width:.5;stroke-miterlimit:10" x1="86.67" y1="100.65" x2="84.55" y2="100.65"/><line style="fill:none;stroke:#6d6e71;stroke-width:.5;stroke-miterlimit:10" x1="86.67" y1="85.49" x2="84.55" y2="85.49"/><line style="fill:none;stroke:#6d6e71;stroke-width:.5;stroke-miterlimit:10" x1="86.67" y1="70.34" x2="84.55" y2="70.34"/><line style="fill:none;stroke:#6d6e71;stroke-width:.5;stroke-miterlimit:10" x1="86.67" y1="55.18" x2="84.55" y2="55.18"/><line style="fill:none;stroke:#6d6e71;stroke-width:.5;stroke-miterlimit:10" x1="86.67" y1="40.03" x2="84.55" y2="40.03"/><line style="fill:none;stroke:#6d6e71;stroke-width:.5;stroke-miterlimit:10" x1="86.67" y1="24.87" x2="84.55" y2="24.87"/><line style="fill:none;stroke:#6d6e71;stroke-width:.5;stroke-miterlimit:10" x1="86.67" y1="9.71" x2="84.55" y2="9.71"/><line style="fill:none;stroke:#6d6e71;stroke-width:.5;stroke-miterlimit:10" x1="86.67" y1="146.12" x2="84.55" y2="146.12"/><line style="fill:none;stroke:#6d6e71;stroke-width:.5;stroke-miterlimit:10" x1="193.06" y1="161.53" x2="193.06" y2="163.66"/><line style="fill:none;stroke:#6d6e71;stroke-width:.5;stroke-miterlimit:10" x1="177.91" y1="161.53" x2="177.91" y2="163.66"/><line style="fill:none;stroke:#6d6e71;stroke-width:.5;stroke-miterlimit:10" x1="162.75" y1="161.53" x2="162.75" y2="163.66"/><line style="fill:none;stroke:#6d6e71;stroke-width:.5;stroke-miterlimit:10" x1="147.59" y1="161.53" x2="147.59" y2="163.66"/><line style="fill:none;stroke:#6d6e71;stroke-width:.5;stroke-miterlimit:10" x1="132.44" y1="161.53" x2="132.44" y2="163.66"/><line style="fill:none;stroke:#6d6e71;stroke-width:.5;stroke-miterlimit:10" x1="117.28" y1="161.53" x2="117.28" y2="163.66"/><line style="fill:none;stroke:#6d6e71;stroke-width:.5;stroke-miterlimit:10" x1="102.13" y1="161.53" x2="102.13" y2="163.66"/><line style="fill:none;stroke:#6d6e71;stroke-width:.5;stroke-miterlimit:10" x1="238.53" y1="161.53" x2="238.53" y2="163.66"/><line style="fill:none;stroke:#6d6e71;stroke-width:.5;stroke-miterlimit:10" x1="223.38" y1="161.53" x2="223.38" y2="163.66"/><text transform="translate(71.409 148.978)" style="font-family:'Asap-Regular';font-size:7px">1</text><text transform="translate(99.977 175.26)" style="font-family:'Asap-Regular';font-size:7px">1</text><text transform="translate(115.387 175.26)" style="font-family:'Asap-Regular';font-size:7px">2</text><text transform="translate(130.798 175.26)" style="font-family:'Asap-Regular';font-size:7px">3</text><text transform="translate(146.208 175.26)" style="font-family:'Asap-Regular';font-size:7px">4</text><text transform="translate(161.619 175.26)" style="font-family:'Asap-Regular';font-size:7px">5</text><text transform="translate(177.03 175.26)" style="font-family:'Asap-Regular';font-size:7px">6</text><text transform="translate(192.44 175.26)" style="font-family:'Asap-Regular';font-size:7px">7</text><text transform="translate(206.85 175.26)" style="font-family:'Asap-Regular';font-size:7px">8</text><text transform="translate(221.259 175.26)" style="font-family:'Asap-Regular';font-size:7px">9</text><text transform="translate(234.53 175.26)" style="font-family:'Asap-Regular';font-size:7px">10</text><text transform="translate(71.409 133.805)" style="font-family:'Asap-Regular';font-size:7px">2</text><text transform="translate(71.409 118.632)" style="font-family:'Asap-Regular';font-size:7px">3</text><text transform="translate(71.409 103.46)" style="font-family:'Asap-Regular';font-size:7px">4</text><text transform="translate(71.409 88.287)" style="font-family:'Asap-Regular';font-size:7px">5</text><text transform="translate(71.409 73.114)" style="font-family:'Asap-Regular';font-size:7px">6</text><text transform="translate(71.409 57.942)" style="font-family:'Asap-Regular';font-size:7px">7</text><text transform="translate(71.409 42.77)" style="font-family:'Asap-Regular';font-size:7px">8</text><text transform="translate(71.409 27.596)" style="font-family:'Asap-Regular';font-size:7px">9</text><text transform="translate(69.124 12.423)" style="font-family:'Asap-Regular';font-size:7px">10</text><text transform="translate(138.086 190.036)" style="font-family:'Asap-Medium';font-size:8px">Number of workers</text><line style="fill:none;stroke:#6d6e71;stroke-width:.5;stroke-miterlimit:10" x1="208.38" y1="161.53" x2="208.38" y2="163.66"/><text transform="rotate(-90 86.548 29.082)" style="font-family:'Asap-Medium';font-size:8px">Amount of coal (tons)</text></g></svg>