<svg version="1.1" xmlns="http://www.w3.org/2000/svg" x="0" y="0" viewBox="0 0 311.81 295.97" style="enable-background:new 0 0 311.81 295.97" xml:space="preserve"><text transform="translate(28.988 266.63)" style="font-size:7px;font-family:'Asap-Regular'">0</text><text transform="translate(26.185 249.403)"><tspan x="0" y="0" style="font-size:7px;font-family:'Asap-Regular'">1</tspan><tspan x="3.72" y="0" style="font-size:7px;font-family:'Asap-Regular'">0</tspan></text><text transform="translate(26.185 232.18)"><tspan x="0" y="0" style="font-size:7px;font-family:'Asap-Regular'">2</tspan><tspan x="3.72" y="0" style="font-size:7px;font-family:'Asap-Regular'">0</tspan></text><text transform="translate(26.185 214.952)"><tspan x="0" y="0" style="font-size:7px;font-family:'Asap-Regular'">3</tspan><tspan x="3.72" y="0" style="font-size:7px;font-family:'Asap-Regular'">0</tspan></text><text transform="translate(26.185 197.736)"><tspan x="0" y="0" style="font-size:7px;font-family:'Asap-Regular'">4</tspan><tspan x="3.72" y="0" style="font-size:7px;font-family:'Asap-Regular'">0</tspan></text><text transform="translate(26.185 180.515)"><tspan x="0" y="0" style="font-size:7px;font-family:'Asap-Regular'">5</tspan><tspan x="3.72" y="0" style="font-size:7px;font-family:'Asap-Regular'">0</tspan></text><text transform="translate(26.185 163.288)"><tspan x="0" y="0" style="font-size:7px;font-family:'Asap-Regular'">6</tspan><tspan x="3.72" y="0" style="font-size:7px;font-family:'Asap-Regular'">0</tspan></text><text transform="translate(26.185 146.064)"><tspan x="0" y="0" style="font-size:7px;font-family:'Asap-Regular'">7</tspan><tspan x="3.72" y="0" style="font-size:7px;font-family:'Asap-Regular'">0</tspan></text><text transform="translate(26.185 128.837)"><tspan x="0" y="0" style="font-size:7px;font-family:'Asap-Regular'">8</tspan><tspan x="3.72" y="0" style="font-size:7px;font-family:'Asap-Regular'">0</tspan></text><text transform="translate(26.185 111.62)"><tspan x="0" y="0" style="font-size:7px;font-family:'Asap-Regular'">9</tspan><tspan x="3.72" y="0" style="font-size:7px;font-family:'Asap-Regular'">0</tspan></text><text transform="translate(23.392 94.4)"><tspan x="0" y="0" style="font-size:7px;font-family:'Asap-Regular'">1</tspan><tspan x="3.72" y="0" style="font-size:7px;font-family:'Asap-Regular'">0</tspan><tspan x="7.53" y="0" style="font-size:7px;font-family:'Asap-Regular'">0</tspan></text><text transform="translate(23.392 77.172)"><tspan x="0" y="0" style="font-size:7px;font-family:'Asap-Regular'">1</tspan><tspan x="3.72" y="0" style="font-size:7px;font-family:'Asap-Regular'">1</tspan><tspan x="7.53" y="0" style="font-size:7px;font-family:'Asap-Regular'">0</tspan></text><text transform="translate(23.392 59.949)"><tspan x="0" y="0" style="font-size:7px;font-family:'Asap-Regular'">1</tspan><tspan x="3.72" y="0" style="font-size:7px;font-family:'Asap-Regular'">2</tspan><tspan x="7.53" y="0" style="font-size:7px;font-family:'Asap-Regular'">0</tspan></text><text transform="translate(23.392 42.72)"><tspan x="0" y="0" style="font-size:7px;font-family:'Asap-Regular'">1</tspan><tspan x="3.72" y="0" style="font-size:7px;font-family:'Asap-Regular'">3</tspan><tspan x="7.53" y="0" style="font-size:7px;font-family:'Asap-Regular'">0</tspan></text><text transform="translate(23.392 25.499)"><tspan x="0" y="0" style="font-size:7px;font-family:'Asap-Regular'">1</tspan><tspan x="3.72" y="0" style="font-size:7px;font-family:'Asap-Regular'">4</tspan><tspan x="7.53" y="0" style="font-size:7px;font-family:'Asap-Regular'">0</tspan></text><text transform="translate(23.392 8.278)"><tspan x="0" y="0" style="font-size:7px;font-family:'Asap-Regular'">1</tspan><tspan x="3.72" y="0" style="font-size:7px;font-family:'Asap-Regular'">5</tspan><tspan x="7.53" y="0" style="font-size:7px;font-family:'Asap-Regular'">0</tspan></text><text transform="translate(37.714 277.456)" style="font-size:7px;font-family:'Asap-Regular'">0</text><text transform="translate(53.531 277.456)"><tspan x="0" y="0" style="font-size:7px;font-family:'Asap-Regular'">1</tspan><tspan x="3.72" y="0" style="font-size:7px;font-family:'Asap-Regular'">0</tspan></text><text transform="translate(71.21 277.456)"><tspan x="0" y="0" style="font-size:7px;font-family:'Asap-Regular'">2</tspan><tspan x="3.72" y="0" style="font-size:7px;font-family:'Asap-Regular'">0</tspan></text><text transform="translate(88.89 277.456)"><tspan x="0" y="0" style="font-size:7px;font-family:'Asap-Regular'">3</tspan><tspan x="3.72" y="0" style="font-size:7px;font-family:'Asap-Regular'">0</tspan></text><text transform="translate(106.57 277.456)"><tspan x="0" y="0" style="font-size:7px;font-family:'Asap-Regular'">4</tspan><tspan x="3.72" y="0" style="font-size:7px;font-family:'Asap-Regular'">0</tspan></text><text transform="translate(124.25 277.456)"><tspan x="0" y="0" style="font-size:7px;font-family:'Asap-Regular'">5</tspan><tspan x="3.72" y="0" style="font-size:7px;font-family:'Asap-Regular'">0</tspan></text><text transform="translate(141.929 277.456)"><tspan x="0" y="0" style="font-size:7px;font-family:'Asap-Regular'">6</tspan><tspan x="3.72" y="0" style="font-size:7px;font-family:'Asap-Regular'">0</tspan></text><text transform="translate(159.608 277.456)"><tspan x="0" y="0" style="font-size:7px;font-family:'Asap-Regular'">7</tspan><tspan x="3.72" y="0" style="font-size:7px;font-family:'Asap-Regular'">0</tspan></text><text transform="translate(177.288 277.456)"><tspan x="0" y="0" style="font-size:7px;font-family:'Asap-Regular'">8</tspan><tspan x="3.72" y="0" style="font-size:7px;font-family:'Asap-Regular'">0</tspan></text><text transform="translate(194.967 277.456)"><tspan x="0" y="0" style="font-size:7px;font-family:'Asap-Regular'">9</tspan><tspan x="3.72" y="0" style="font-size:7px;font-family:'Asap-Regular'">0</tspan></text><text transform="translate(210.743 277.456)"><tspan x="0" y="0" style="font-size:7px;font-family:'Asap-Regular'">1</tspan><tspan x="3.72" y="0" style="font-size:7px;font-family:'Asap-Regular'">0</tspan><tspan x="7.53" y="0" style="font-size:7px;font-family:'Asap-Regular'">0</tspan></text><text transform="translate(228.423 277.456)"><tspan x="0" y="0" style="font-size:7px;font-family:'Asap-Regular'">1</tspan><tspan x="3.72" y="0" style="font-size:7px;font-family:'Asap-Regular'">1</tspan><tspan x="7.53" y="0" style="font-size:7px;font-family:'Asap-Regular'">0</tspan></text><text transform="translate(246.101 277.456)"><tspan x="0" y="0" style="font-size:7px;font-family:'Asap-Regular'">1</tspan><tspan x="3.72" y="0" style="font-size:7px;font-family:'Asap-Regular'">2</tspan><tspan x="7.53" y="0" style="font-size:7px;font-family:'Asap-Regular'">0</tspan></text><line x1="38.44" y1="265.08" x2="304.78" y2="265.08" style="fill:none;stroke:#6d6e71;stroke-width:.5;stroke-linecap:square"/><line x1="37.1" y1="265.08" x2="39.33" y2="265.08" style="fill:none;stroke:#6d6e71;stroke-width:.5;stroke-linecap:square"/><line x1="37.1" y1="247.8" x2="39.33" y2="247.8" style="fill:none;stroke:#6d6e71;stroke-width:.5;stroke-linecap:square"/><line x1="37.1" y1="230.52" x2="39.33" y2="230.52" style="fill:none;stroke:#6d6e71;stroke-width:.5;stroke-linecap:square"/><line x1="37.1" y1="213.23" x2="39.33" y2="213.23" style="fill:none;stroke:#6d6e71;stroke-width:.5;stroke-linecap:square"/><line x1="37.1" y1="195.95" x2="39.33" y2="195.95" style="fill:none;stroke:#6d6e71;stroke-width:.5;stroke-linecap:square"/><line x1="37.1" y1="178.67" x2="39.33" y2="178.67" style="fill:none;stroke:#6d6e71;stroke-width:.5;stroke-linecap:square"/><line x1="37.1" y1="161.38" x2="39.33" y2="161.38" style="fill:none;stroke:#6d6e71;stroke-width:.5;stroke-linecap:square"/><line x1="37.1" y1="144.1" x2="39.33" y2="144.1" style="fill:none;stroke:#6d6e71;stroke-width:.5;stroke-linecap:square"/><line x1="37.1" y1="155.51" x2="39.33" y2="155.51" style="fill:none;stroke:#6d6e71;stroke-width:.5;stroke-linecap:square"/><line x1="37.1" y1="57.68" x2="39.33" y2="57.68" style="fill:none;stroke:#6d6e71;stroke-width:.5;stroke-linecap:square"/><line x1="37.1" y1="40.4" x2="39.33" y2="40.4" style="fill:none;stroke:#6d6e71;stroke-width:.5;stroke-linecap:square"/><line x1="37.1" y1="23.11" x2="39.33" y2="23.11" style="fill:none;stroke:#6d6e71;stroke-width:.5;stroke-linecap:square"/><line x1="37.1" y1="5.83" x2="39.33" y2="5.83" style="fill:none;stroke:#6d6e71;stroke-width:.5;stroke-linecap:square"/><line x1="287.1" y1="265.52" x2="287.1" y2="267.74" style="fill:none;stroke:#6d6e71;stroke-width:.5;stroke-linecap:square"/><line x1="269.42" y1="265.52" x2="269.42" y2="267.74" style="fill:none;stroke:#6d6e71;stroke-width:.5;stroke-linecap:square"/><line x1="251.74" y1="265.52" x2="251.74" y2="267.74" style="fill:none;stroke:#6d6e71;stroke-width:.5;stroke-linecap:square"/><line x1="234.06" y1="265.52" x2="234.06" y2="267.74" style="fill:none;stroke:#6d6e71;stroke-width:.5;stroke-linecap:square"/><line x1="216.38" y1="265.52" x2="216.38" y2="267.74" style="fill:none;stroke:#6d6e71;stroke-width:.5;stroke-linecap:square"/><line x1="198.7" y1="265.52" x2="198.7" y2="267.74" style="fill:none;stroke:#6d6e71;stroke-width:.5;stroke-linecap:square"/><line x1="181.02" y1="265.52" x2="181.02" y2="267.74" style="fill:none;stroke:#6d6e71;stroke-width:.5;stroke-linecap:square"/><line x1="163.34" y1="265.52" x2="163.34" y2="267.74" style="fill:none;stroke:#6d6e71;stroke-width:.5;stroke-linecap:square"/><line x1="145.66" y1="265.52" x2="145.66" y2="267.74" style="fill:none;stroke:#6d6e71;stroke-width:.5;stroke-linecap:square"/><line x1="127.98" y1="265.52" x2="127.98" y2="267.74" style="fill:none;stroke:#6d6e71;stroke-width:.5;stroke-linecap:square"/><line x1="110.3" y1="265.52" x2="110.3" y2="267.74" style="fill:none;stroke:#6d6e71;stroke-width:.5;stroke-linecap:square"/><line x1="92.62" y1="265.61" x2="92.62" y2="267.82" style="fill:none;stroke:#6d6e71;stroke-width:.5;stroke-linecap:square"/><line x1="74.95" y1="265.61" x2="74.95" y2="267.82" style="fill:none;stroke:#6d6e71;stroke-width:.5;stroke-linecap:square"/><line x1="57.27" y1="265.52" x2="57.27" y2="267.74" style="fill:none;stroke:#6d6e71;stroke-width:.5;stroke-linecap:square"/><line x1="39.59" y1="265.61" x2="39.59" y2="267.82" style="fill:none;stroke:#6d6e71;stroke-width:.5;stroke-linecap:square"/><line x1="304.78" y1="265.52" x2="304.78" y2="267.74" style="fill:none;stroke:#6d6e71;stroke-width:.5;stroke-linecap:square"/><text transform="translate(263.812 277.065)"><tspan x="0" y="0" style="font-size:7px;font-family:'Asap-Regular'">1</tspan><tspan x="3.72" y="0" style="font-size:7px;font-family:'Asap-Regular'">30</tspan></text><text transform="translate(281.491 277.065)"><tspan x="0" y="0" style="font-size:7px;font-family:'Asap-Regular'">1</tspan><tspan x="3.72" y="0" style="font-size:7px;font-family:'Asap-Regular'">40</tspan></text><text transform="translate(299.171 277.065)"><tspan x="0" y="0" style="font-size:7px;font-family:'Asap-Regular'">1</tspan><tspan x="3.72" y="0" style="font-size:7px;font-family:'Asap-Regular'">50</tspan></text><line x1="36.89" y1="74.97" x2="39.12" y2="74.97" style="fill:none;stroke:#6d6e71;stroke-width:.5;stroke-linecap:square"/><line x1="36.86" y1="92.25" x2="39.08" y2="92.25" style="fill:none;stroke:#6d6e71;stroke-width:.5;stroke-linecap:square"/><line x1="36.86" y1="109.53" x2="39.08" y2="109.53" style="fill:none;stroke:#6d6e71;stroke-width:.5;stroke-linecap:square"/><line x1="36.86" y1="126.82" x2="39.08" y2="126.82" style="fill:none;stroke:#6d6e71;stroke-width:.5;stroke-linecap:square"/><line x1="39.59" y1="265.08" x2="39.59" y2="5.83" style="fill:none;stroke:#6d6e71;stroke-width:.5;stroke-linecap:square"/><g><path d="M136.89 59.42s10.84 104.07 101.73 134.79" style="fill:none;stroke:#1e2856;stroke-width:.5;stroke-miterlimit:10"/><line x1="39.33" y1="5.83" x2="216.38" y2="265.05" style="stroke:#ed2124;fill:none;stroke-width:.5;stroke-miterlimit:10"/><path d="M114.94 77.7s10 103.35 93.87 133.85" style="stroke:#3a53a4;fill:none;stroke-width:.5;stroke-miterlimit:10"/><polyline points="39.59 161.38 145.66 161.38 145.66 264.89" style="stroke-linecap:square;stroke-linejoin:round;stroke:#939598;stroke-dasharray:1.4173;fill:none;stroke-width:.5;stroke-miterlimit:10"/><line x1="39.59" y1="155.44" x2="180.92" y2="155.44" style="stroke-linecap:square;stroke-linejoin:round;stroke:#939598;stroke-dasharray:1.4173;fill:none;stroke-width:.5;stroke-miterlimit:10"/><text transform="translate(92.323 42.66)" style="font-size:6px;font-family:'Asap-Regular'">FF (invest grain; 50% return)</text><text transform="translate(92.323 30.823)" style="font-size:6px;font-family:'Asap-Regular'">FF (invest grain; 50% return; borrow at 10%)</text><text transform="translate(147.489 160.925)" style="font-size:6px;font-family:'Asap-Regular'">K</text><line x1="179.25" y1="260.26" x2="41.72" y2="260.26" style="fill:none;stroke:#939598;stroke-width:.5;stroke-miterlimit:10"/><polygon points="177.59 258.22 177.25 258.58 179.06 260.26 177.25 261.94 177.59 262.31 179.79 260.26" style="fill:#939598"/><polygon points="43.38 258.22 43.72 258.58 41.91 260.26 43.72 261.94 43.38 262.31 41.18 260.26" style="fill:#939598"/><line x1="143" y1="244.16" x2="41.72" y2="244.16" style="fill:none;stroke:#939598;stroke-width:.5;stroke-miterlimit:10"/><polygon points="141.34 242.11 141 242.48 142.81 244.15 141 245.83 141.34 246.2 143.54 244.15" style="fill:#939598"/><polygon points="43.38 242.11 43.72 242.48 41.91 244.15 43.72 245.83 43.38 246.2 41.18 244.15" style="fill:#939598"/><line x1="20.82" y1="263.23" x2="20.82" y2="158.05" style="fill:none;stroke:#939598;stroke-width:.5;stroke-miterlimit:10"/><polygon points="22.87 261.58 22.5 261.24 20.82 263.04 19.15 261.24 18.78 261.58 20.82 263.78" style="fill:#939598"/><polygon points="22.87 159.71 22.5 160.05 20.82 158.25 19.15 160.05 18.78 159.71 20.82 157.51" style="fill:#939598"/><text transform="translate(196.279 220.929)"><tspan x="0" y="0" style="font-size:6px;font-family:'Asap-Regular'">Marco’s IC </tspan><tspan x="0" y="7.2" style="font-size:6px;font-family:'Asap-Regular'">(high utility)</tspan></text><text transform="translate(233.956 183.02)"><tspan x="0" y="0" style="font-size:6px;font-family:'Asap-Regular'">Marco’s IC</tspan><tspan x="0" y="7.2" style="font-size:6px;font-family:'Asap-Regular'">(very high utility)</tspan></text><text transform="translate(216.528 253.396)"><tspan x="0" y="0" style="font-size:6px;font-family:'Asap-Regular'">Marco’s</tspan><tspan x="0" y="7.2" style="font-size:6px;font-family:'Asap-Regular'">endowment</tspan></text><text transform="translate(64.811 237.929)" style="font-size:6px;font-family:'Asap-Regular'">Consumption now</text><text transform="translate(64.811 253.93)" style="font-size:6px;font-family:'Asap-Regular'">Investment</text><text transform="rotate(-90 126.698 111.12)" style="font-size:6px;font-family:'Asap-Regular'">Consumption later</text><line x1="20.82" y1="153.44" x2="20.82" y2="10.26" style="fill:none;stroke:#939598;stroke-width:.5;stroke-miterlimit:10"/><polygon points="22.87 151.78 22.5 151.44 20.82 153.25 19.15 151.44 18.78 151.78 20.82 153.98" style="fill:#939598"/><polygon points="22.87 11.92 22.5 12.26 20.82 10.45 19.15 12.26 18.78 11.92 20.82 9.72" style="fill:#939598"/><text transform="rotate(-90 60.302 44.724)" style="font-size:6px;font-family:'Asap-Regular'">Repayment of loan</text><circle cx="216.42" cy="265.2" r="1.13"/><circle cx="145.66" cy="161.78" r="1.13"/><text transform="translate(26.31 156.747)" style="font-size:7px;font-family:'Asap-Regular'">62</text><line x1="180.92" y1="155.76" x2="180.92" y2="265.52" style="stroke:#939598;stroke-dasharray:1.4173;fill:none;stroke-width:.5;stroke-miterlimit:10"/><text transform="translate(183.448 152.486)" style="font-size:6px;font-family:'Asap-Regular'">L</text><line x1="87.82" y1="40.82" x2="66.2" y2="40.82" style="fill:none;stroke:#939598;stroke-width:.5;stroke-miterlimit:10"/><polygon points="67.85 38.78 68.2 39.14 66.39 40.82 68.2 42.5 67.85 42.87 65.66 40.82" style="fill:#939598"/><g><line x1="87.82" y1="29.82" x2="69.03" y2="29.82" style="fill:none;stroke:#939598;stroke-width:.5;stroke-miterlimit:10"/><polygon points="70.69 27.78 71.03 28.14 69.22 29.82 71.03 31.5 70.69 31.87 68.49 29.82" style="fill:#939598"/></g><text transform="rotate(-90 98.41 88.273)" style="font-size:8px;font-family:'Asap-Medium'">Consumption later ($)</text><text transform="translate(114.172 291.53)" style="font-size:8px;font-family:'Asap-Medium'">Consumption now ($)</text><text transform="translate(281.771 263.174)" style="font-size:7px;font-family:'Asap-Regular'">136</text><line x1="39.59" y1="5.83" x2="282.09" y2="265.2" style="fill:none;stroke:#ed2124;stroke-width:.5;stroke-linecap:square;stroke-linejoin:round;stroke-miterlimit:10;stroke-dasharray:1.417"/><circle cx="39.59" cy="5.83" r="1.13"/><circle cx="180.92" cy="155.76" r="1.13"/><circle cx="281.77" cy="265.2" r="1.13"/></g></svg>