<svg version="1.1" xmlns="http://www.w3.org/2000/svg" x="0" y="0" viewBox="0 0 311.81 295.97" style="enable-background:new 0 0 311.81 295.97" xml:space="preserve"><text transform="translate(28.988 266.63)" style="font-family:'Asap-Regular';font-size:7px">0</text><text transform="translate(26.185 249.403)"><tspan x="0" y="0" style="font-family:'Asap-Regular';font-size:7px">1</tspan><tspan x="3.72" y="0" style="font-family:'Asap-Regular';font-size:7px">0</tspan></text><text transform="translate(26.185 232.18)"><tspan x="0" y="0" style="font-family:'Asap-Regular';font-size:7px">2</tspan><tspan x="3.72" y="0" style="font-family:'Asap-Regular';font-size:7px">0</tspan></text><text transform="translate(26.185 214.952)"><tspan x="0" y="0" style="font-family:'Asap-Regular';font-size:7px">3</tspan><tspan x="3.72" y="0" style="font-family:'Asap-Regular';font-size:7px">0</tspan></text><text transform="translate(26.185 197.736)"><tspan x="0" y="0" style="font-family:'Asap-Regular';font-size:7px">4</tspan><tspan x="3.72" y="0" style="font-family:'Asap-Regular';font-size:7px">0</tspan></text><text transform="translate(26.185 180.515)"><tspan x="0" y="0" style="font-family:'Asap-Regular';font-size:7px">5</tspan><tspan x="3.72" y="0" style="font-family:'Asap-Regular';font-size:7px">0</tspan></text><text transform="translate(26.185 163.288)"><tspan x="0" y="0" style="font-family:'Asap-Regular';font-size:7px">6</tspan><tspan x="3.72" y="0" style="font-family:'Asap-Regular';font-size:7px">0</tspan></text><text transform="translate(26.185 146.064)"><tspan x="0" y="0" style="font-family:'Asap-Regular';font-size:7px">7</tspan><tspan x="3.72" y="0" style="font-family:'Asap-Regular';font-size:7px">0</tspan></text><text transform="translate(26.185 128.837)"><tspan x="0" y="0" style="font-family:'Asap-Regular';font-size:7px">8</tspan><tspan x="3.72" y="0" style="font-family:'Asap-Regular';font-size:7px">0</tspan></text><text transform="translate(26.185 111.62)"><tspan x="0" y="0" style="font-family:'Asap-Regular';font-size:7px">9</tspan><tspan x="3.72" y="0" style="font-family:'Asap-Regular';font-size:7px">0</tspan></text><text transform="translate(23.392 94.399)"><tspan x="0" y="0" style="font-family:'Asap-Regular';font-size:7px">1</tspan><tspan x="3.72" y="0" style="font-family:'Asap-Regular';font-size:7px">0</tspan><tspan x="7.53" y="0" style="font-family:'Asap-Regular';font-size:7px">0</tspan></text><text transform="translate(23.392 77.171)"><tspan x="0" y="0" style="font-family:'Asap-Regular';font-size:7px">1</tspan><tspan x="3.72" y="0" style="font-family:'Asap-Regular';font-size:7px">1</tspan><tspan x="7.53" y="0" style="font-family:'Asap-Regular';font-size:7px">0</tspan></text><text transform="translate(23.392 59.949)"><tspan x="0" y="0" style="font-family:'Asap-Regular';font-size:7px">1</tspan><tspan x="3.72" y="0" style="font-family:'Asap-Regular';font-size:7px">2</tspan><tspan x="7.53" y="0" style="font-family:'Asap-Regular';font-size:7px">0</tspan></text><text transform="translate(23.392 42.72)"><tspan x="0" y="0" style="font-family:'Asap-Regular';font-size:7px">1</tspan><tspan x="3.72" y="0" style="font-family:'Asap-Regular';font-size:7px">3</tspan><tspan x="7.53" y="0" style="font-family:'Asap-Regular';font-size:7px">0</tspan></text><text transform="translate(23.392 25.499)"><tspan x="0" y="0" style="font-family:'Asap-Regular';font-size:7px">1</tspan><tspan x="3.72" y="0" style="font-family:'Asap-Regular';font-size:7px">4</tspan><tspan x="7.53" y="0" style="font-family:'Asap-Regular';font-size:7px">0</tspan></text><text transform="translate(23.392 8.278)"><tspan x="0" y="0" style="font-family:'Asap-Regular';font-size:7px">1</tspan><tspan x="3.72" y="0" style="font-family:'Asap-Regular';font-size:7px">5</tspan><tspan x="7.53" y="0" style="font-family:'Asap-Regular';font-size:7px">0</tspan></text><text transform="translate(37.714 277.456)" style="font-family:'Asap-Regular';font-size:7px">0</text><text transform="translate(53.531 277.456)"><tspan x="0" y="0" style="font-family:'Asap-Regular';font-size:7px">1</tspan><tspan x="3.72" y="0" style="font-family:'Asap-Regular';font-size:7px">0</tspan></text><text transform="translate(71.21 277.456)"><tspan x="0" y="0" style="font-family:'Asap-Regular';font-size:7px">2</tspan><tspan x="3.72" y="0" style="font-family:'Asap-Regular';font-size:7px">0</tspan></text><text transform="translate(88.89 277.456)"><tspan x="0" y="0" style="font-family:'Asap-Regular';font-size:7px">3</tspan><tspan x="3.72" y="0" style="font-family:'Asap-Regular';font-size:7px">0</tspan></text><text transform="translate(106.57 277.456)"><tspan x="0" y="0" style="font-family:'Asap-Regular';font-size:7px">4</tspan><tspan x="3.72" y="0" style="font-family:'Asap-Regular';font-size:7px">0</tspan></text><text transform="translate(124.25 277.456)"><tspan x="0" y="0" style="font-family:'Asap-Regular';font-size:7px">5</tspan><tspan x="3.72" y="0" style="font-family:'Asap-Regular';font-size:7px">0</tspan></text><text transform="translate(141.929 277.456)"><tspan x="0" y="0" style="font-family:'Asap-Regular';font-size:7px">6</tspan><tspan x="3.72" y="0" style="font-family:'Asap-Regular';font-size:7px">0</tspan></text><text transform="translate(159.608 277.456)"><tspan x="0" y="0" style="font-family:'Asap-Regular';font-size:7px">7</tspan><tspan x="3.72" y="0" style="font-family:'Asap-Regular';font-size:7px">0</tspan></text><text transform="translate(177.288 277.456)"><tspan x="0" y="0" style="font-family:'Asap-Regular';font-size:7px">8</tspan><tspan x="3.72" y="0" style="font-family:'Asap-Regular';font-size:7px">0</tspan></text><text transform="translate(194.967 277.456)"><tspan x="0" y="0" style="font-family:'Asap-Regular';font-size:7px">9</tspan><tspan x="3.72" y="0" style="font-family:'Asap-Regular';font-size:7px">0</tspan></text><text transform="translate(210.743 277.456)"><tspan x="0" y="0" style="font-family:'Asap-Regular';font-size:7px">1</tspan><tspan x="3.72" y="0" style="font-family:'Asap-Regular';font-size:7px">0</tspan><tspan x="7.53" y="0" style="font-family:'Asap-Regular';font-size:7px">0</tspan></text><text transform="translate(228.423 277.456)"><tspan x="0" y="0" style="font-family:'Asap-Regular';font-size:7px">1</tspan><tspan x="3.72" y="0" style="font-family:'Asap-Regular';font-size:7px">1</tspan><tspan x="7.53" y="0" style="font-family:'Asap-Regular';font-size:7px">0</tspan></text><text transform="translate(246.101 277.456)"><tspan x="0" y="0" style="font-family:'Asap-Regular';font-size:7px">1</tspan><tspan x="3.72" y="0" style="font-family:'Asap-Regular';font-size:7px">2</tspan><tspan x="7.53" y="0" style="font-family:'Asap-Regular';font-size:7px">0</tspan></text><line style="fill:none;stroke:#6d6e71;stroke-width:.5;stroke-linecap:square" x1="38.44" y1="265.08" x2="304.78" y2="265.08"/><line style="fill:none;stroke:#6d6e71;stroke-width:.5;stroke-linecap:square" x1="37.1" y1="265.08" x2="39.33" y2="265.08"/><line style="fill:none;stroke:#6d6e71;stroke-width:.5;stroke-linecap:square" x1="37.1" y1="247.8" x2="39.33" y2="247.8"/><line style="fill:none;stroke:#6d6e71;stroke-width:.5;stroke-linecap:square" x1="37.1" y1="230.52" x2="39.33" y2="230.52"/><line style="fill:none;stroke:#6d6e71;stroke-width:.5;stroke-linecap:square" x1="37.1" y1="213.23" x2="39.33" y2="213.23"/><line style="fill:none;stroke:#6d6e71;stroke-width:.5;stroke-linecap:square" x1="37.1" y1="195.95" x2="39.33" y2="195.95"/><line style="fill:none;stroke:#6d6e71;stroke-width:.5;stroke-linecap:square" x1="37.1" y1="178.67" x2="39.33" y2="178.67"/><line style="fill:none;stroke:#6d6e71;stroke-width:.5;stroke-linecap:square" x1="37.1" y1="161.38" x2="39.33" y2="161.38"/><line style="fill:none;stroke:#6d6e71;stroke-width:.5;stroke-linecap:square" x1="37.1" y1="144.1" x2="39.33" y2="144.1"/><line style="fill:none;stroke:#6d6e71;stroke-width:.5;stroke-linecap:square" x1="37.1" y1="57.68" x2="39.33" y2="57.68"/><line style="fill:none;stroke:#6d6e71;stroke-width:.5;stroke-linecap:square" x1="37.1" y1="40.4" x2="39.33" y2="40.4"/><line style="fill:none;stroke:#6d6e71;stroke-width:.5;stroke-linecap:square" x1="37.1" y1="23.11" x2="39.33" y2="23.11"/><line style="fill:none;stroke:#6d6e71;stroke-width:.5;stroke-linecap:square" x1="37.1" y1="5.83" x2="39.33" y2="5.83"/><line style="fill:none;stroke:#6d6e71;stroke-width:.5;stroke-linecap:square" x1="36.89" y1="74.97" x2="39.12" y2="74.97"/><line style="fill:none;stroke:#6d6e71;stroke-width:.5;stroke-linecap:square" x1="36.86" y1="92.25" x2="39.08" y2="92.25"/><line style="fill:none;stroke:#6d6e71;stroke-width:.5;stroke-linecap:square" x1="36.86" y1="109.53" x2="39.08" y2="109.53"/><line style="fill:none;stroke:#6d6e71;stroke-width:.5;stroke-linecap:square" x1="36.86" y1="126.82" x2="39.08" y2="126.82"/><line style="fill:none;stroke:#6d6e71;stroke-width:.5;stroke-linecap:square" x1="287.1" y1="265.52" x2="287.1" y2="267.74"/><line style="fill:none;stroke:#6d6e71;stroke-width:.5;stroke-linecap:square" x1="269.42" y1="265.52" x2="269.42" y2="267.74"/><line style="fill:none;stroke:#6d6e71;stroke-width:.5;stroke-linecap:square" x1="251.74" y1="265.52" x2="251.74" y2="267.74"/><line style="fill:none;stroke:#6d6e71;stroke-width:.5;stroke-linecap:square" x1="234.06" y1="265.52" x2="234.06" y2="267.74"/><line style="fill:none;stroke:#6d6e71;stroke-width:.5;stroke-linecap:square" x1="216.38" y1="265.52" x2="216.38" y2="267.74"/><line style="fill:none;stroke:#6d6e71;stroke-width:.5;stroke-linecap:square" x1="198.7" y1="265.52" x2="198.7" y2="267.74"/><line style="fill:none;stroke:#6d6e71;stroke-width:.5;stroke-linecap:square" x1="181.02" y1="265.52" x2="181.02" y2="267.74"/><line style="fill:none;stroke:#6d6e71;stroke-width:.5;stroke-linecap:square" x1="163.34" y1="265.52" x2="163.34" y2="267.74"/><line style="fill:none;stroke:#6d6e71;stroke-width:.5;stroke-linecap:square" x1="145.66" y1="265.52" x2="145.66" y2="267.74"/><line style="fill:none;stroke:#6d6e71;stroke-width:.5;stroke-linecap:square" x1="127.98" y1="265.52" x2="127.98" y2="267.74"/><line style="fill:none;stroke:#6d6e71;stroke-width:.5;stroke-linecap:square" x1="110.3" y1="265.52" x2="110.3" y2="267.74"/><line style="fill:none;stroke:#6d6e71;stroke-width:.5;stroke-linecap:square" x1="92.62" y1="265.61" x2="92.62" y2="267.82"/><line style="fill:none;stroke:#6d6e71;stroke-width:.5;stroke-linecap:square" x1="74.95" y1="265.61" x2="74.95" y2="267.82"/><line style="fill:none;stroke:#6d6e71;stroke-width:.5;stroke-linecap:square" x1="57.27" y1="265.52" x2="57.27" y2="267.74"/><line style="fill:none;stroke:#6d6e71;stroke-width:.5;stroke-linecap:square" x1="39.59" y1="265.61" x2="39.59" y2="267.82"/><line style="fill:none;stroke:#6d6e71;stroke-width:.5;stroke-linecap:square" x1="304.78" y1="265.52" x2="304.78" y2="267.74"/><text transform="translate(263.812 277.065)"><tspan x="0" y="0" style="font-family:'Asap-Regular';font-size:7px">1</tspan><tspan x="3.72" y="0" style="font-family:'Asap-Regular';font-size:7px">30</tspan></text><text transform="translate(281.491 277.065)"><tspan x="0" y="0" style="font-family:'Asap-Regular';font-size:7px">1</tspan><tspan x="3.72" y="0" style="font-family:'Asap-Regular';font-size:7px">40</tspan></text><text transform="translate(299.171 277.066)"><tspan x="0" y="0" style="font-family:'Asap-Regular';font-size:7px">1</tspan><tspan x="3.72" y="0" style="font-family:'Asap-Regular';font-size:7px">50</tspan></text><line style="fill:none;stroke:#6d6e71;stroke-width:.5;stroke-linecap:square" x1="39.59" y1="265.08" x2="39.59" y2="5.83"/><line style="fill:none;stroke:#ed2124;stroke-width:.5;stroke-miterlimit:10" x1="39.33" y1="5.83" x2="216.38" y2="265.05"/><path style="fill:none;stroke:#3a53a4;stroke-width:.5;stroke-miterlimit:10" d="M114.94 77.7s10 103.35 93.87 133.85"/><polyline style="fill:none;stroke:#939598;stroke-width:.5;stroke-linecap:square;stroke-linejoin:round;stroke-miterlimit:10;stroke-dasharray:1.4173" points="39.59 161.38 145.66 161.38 145.66 264.89"/><text transform="translate(92.323 42.66)" style="font-family:'Asap-Regular';font-size:6px">FF (invest grain; 50% return)</text><text transform="translate(147.489 160.925)" style="font-family:'Asap-Regular';font-size:6px">K</text><text transform="translate(196.279 220.929)"><tspan x="0" y="0" style="font-family:'Asap-Regular';font-size:6px">Marco’s IC </tspan><tspan x="0" y="7.2" style="font-family:'Asap-Regular';font-size:6px">(high utility)</tspan></text><text transform="translate(216.528 253.396)"><tspan x="0" y="0" style="font-family:'Asap-Regular';font-size:6px">Marco’s</tspan><tspan x="0" y="7.2" style="font-family:'Asap-Regular';font-size:6px">endowment</tspan></text><circle cx="216.42" cy="265.2" r="1.13"/><circle cx="39.59" cy="5.83" r="1.13"/><circle cx="145.66" cy="161.78" r="1.13"/><line style="fill:none;stroke:#939598;stroke-width:.5;stroke-miterlimit:10" x1="87.82" y1="40.82" x2="66.2" y2="40.82"/><polygon style="fill:#939598" points="67.85 38.78 68.2 39.14 66.39 40.82 68.2 42.5 67.85 42.87 65.66 40.82"/><text transform="rotate(-90 98.41 88.273)" style="font-family:'Asap-Medium';font-size:8px">Consumption later ($)</text><text transform="translate(114.172 291.53)" style="font-family:'Asap-Medium';font-size:8px">Consumption now ($)</text></svg>