<svg version="1.1" xmlns="http://www.w3.org/2000/svg" x="0" y="0" viewBox="0 0 311.81 228.58" style="enable-background:new 0 0 311.81 228.58" xml:space="preserve"><line style="fill:none;stroke:#6d6e71;stroke-width:.5;stroke-linecap:square" x1="41.76" y1="199.36" x2="41.76" y2="6.4"/><line style="fill:none;stroke:#6d6e71;stroke-width:.5;stroke-linecap:square" x1="41.76" y1="199.36" x2="296.82" y2="199.36"/><path style="fill:none;stroke:#ed1f24;stroke-width:.5;stroke-linejoin:round;stroke-dasharray:1.417" d="M41.76 23.96l2.32 1.93 2.32 1.93 2.32 1.93 2.32 1.93 2.32 1.93 2.32 1.93L58 37.47l2.32 1.93 2.32 1.93 2.32 1.93 2.32 1.93 2.32 1.93 2.32 1.93 2.32 1.93 2.32 1.93 2.32 1.93 2.32 1.93 2.32 1.93 2.32 1.93 2.32 1.93 2.32 1.93 2.32 1.93 2.32 1.93 2.32 1.93 2.32 1.93 2.32 1.93 2.32 1.93 2.32 1.93 2.32 1.93 2.32 1.93 2.32 1.93 2.32 1.93 2.32 1.93 2.32 1.93 2.32 1.93 2.32 1.93 2.32 1.93 2.32 1.93 2.32 1.93 2.32 1.93 2.32 1.93 2.32 1.93 2.32 1.93 2.32 1.93 2.32 1.93 2.32 1.93 2.32 1.93 2.32 1.93 2.32 1.93 2.32 1.93 2.32 1.93 2.32 1.93 2.32 1.93 2.32 1.93 2.32 1.93 2.32 1.93 2.32 1.93 2.32 1.93 2.32 1.93 2.32 1.93 2.32 1.93 2.32 1.93 2.32 1.93 2.32 1.93 2.32 1.93 2.32 1.93 2.32 1.93 2.32 1.93 2.32 1.93 2.32 1.93 2.32 1.93 2.32 1.93 2.32 1.93 2.32 1.93 2.32 1.93 2.32 1.93 2.32 1.93 2.32 1.93 2.32 1.93 2.32 1.93c.21.18 1.16.96 2.32 1.93 4.22 3.51 15.32 12.75 22.98 19.12"/><text transform="translate(32.075 201.508)" style="font-family:'Asap-Regular';font-size:7px">0</text><text transform="translate(28.351 183.966)"><tspan x="0" y="0" style="font-family:'Asap-Regular';font-size:7px">1</tspan><tspan x="3.72" y="0" style="font-family:'Asap-Regular';font-size:7px">0</tspan></text><text transform="translate(28.351 166.424)"><tspan x="0" y="0" style="font-family:'Asap-Regular';font-size:7px">2</tspan><tspan x="3.72" y="0" style="font-family:'Asap-Regular';font-size:7px">0</tspan></text><text transform="translate(28.351 148.882)"><tspan x="0" y="0" style="font-family:'Asap-Regular';font-size:7px">3</tspan><tspan x="3.72" y="0" style="font-family:'Asap-Regular';font-size:7px">0</tspan></text><text transform="translate(28.351 131.34)"><tspan x="0" y="0" style="font-family:'Asap-Regular';font-size:7px">4</tspan><tspan x="3.72" y="0" style="font-family:'Asap-Regular';font-size:7px">0</tspan></text><text transform="translate(28.351 113.799)"><tspan x="0" y="0" style="font-family:'Asap-Regular';font-size:7px">5</tspan><tspan x="3.72" y="0" style="font-family:'Asap-Regular';font-size:7px">0</tspan></text><text transform="translate(28.351 96.257)"><tspan x="0" y="0" style="font-family:'Asap-Regular';font-size:7px">6</tspan><tspan x="3.72" y="0" style="font-family:'Asap-Regular';font-size:7px">0</tspan></text><text transform="translate(28.351 78.716)"><tspan x="0" y="0" style="font-family:'Asap-Regular';font-size:7px">7</tspan><tspan x="3.72" y="0" style="font-family:'Asap-Regular';font-size:7px">0</tspan></text><text transform="translate(28.351 61.174)"><tspan x="0" y="0" style="font-family:'Asap-Regular';font-size:7px">8</tspan><tspan x="3.72" y="0" style="font-family:'Asap-Regular';font-size:7px">0</tspan></text><text transform="translate(28.351 43.632)"><tspan x="0" y="0" style="font-family:'Asap-Regular';font-size:7px">9</tspan><tspan x="3.72" y="0" style="font-family:'Asap-Regular';font-size:7px">0</tspan></text><text transform="translate(24.543 26.09)"><tspan x="0" y="0" style="font-family:'Asap-Regular';font-size:7px">1</tspan><tspan x="3.72" y="0" style="font-family:'Asap-Regular';font-size:7px">0</tspan><tspan x="7.53" y="0" style="font-family:'Asap-Regular';font-size:7px">0</tspan></text><text transform="translate(24.543 8.549)"><tspan x="0" y="0" style="font-family:'Asap-Regular';font-size:7px">1</tspan><tspan x="3.72" y="0" style="font-family:'Asap-Regular';font-size:7px">1</tspan><tspan x="7.53" y="0" style="font-family:'Asap-Regular';font-size:7px">0</tspan></text><text transform="translate(39.888 211.618)" style="font-family:'Asap-Regular';font-size:7px">0</text><text transform="translate(61.213 211.618)"><tspan x="0" y="0" style="font-family:'Asap-Regular';font-size:7px">1</tspan><tspan x="3.72" y="0" style="font-family:'Asap-Regular';font-size:7px">0</tspan></text><text transform="translate(84.4 211.618)"><tspan x="0" y="0" style="font-family:'Asap-Regular';font-size:7px">2</tspan><tspan x="3.72" y="0" style="font-family:'Asap-Regular';font-size:7px">0</tspan></text><text transform="translate(107.588 211.618)"><tspan x="0" y="0" style="font-family:'Asap-Regular';font-size:7px">3</tspan><tspan x="3.72" y="0" style="font-family:'Asap-Regular';font-size:7px">0</tspan></text><text transform="translate(130.776 211.618)"><tspan x="0" y="0" style="font-family:'Asap-Regular';font-size:7px">4</tspan><tspan x="3.72" y="0" style="font-family:'Asap-Regular';font-size:7px">0</tspan></text><text transform="translate(153.964 211.618)"><tspan x="0" y="0" style="font-family:'Asap-Regular';font-size:7px">5</tspan><tspan x="3.72" y="0" style="font-family:'Asap-Regular';font-size:7px">0</tspan></text><text transform="translate(177.151 211.618)"><tspan x="0" y="0" style="font-family:'Asap-Regular';font-size:7px">6</tspan><tspan x="3.72" y="0" style="font-family:'Asap-Regular';font-size:7px">0</tspan></text><text transform="translate(200.34 211.618)"><tspan x="0" y="0" style="font-family:'Asap-Regular';font-size:7px">7</tspan><tspan x="3.72" y="0" style="font-family:'Asap-Regular';font-size:7px">0</tspan></text><text transform="translate(223.527 211.618)"><tspan x="0" y="0" style="font-family:'Asap-Regular';font-size:7px">8</tspan><tspan x="3.72" y="0" style="font-family:'Asap-Regular';font-size:7px">0</tspan></text><text transform="translate(246.714 211.618)"><tspan x="0" y="0" style="font-family:'Asap-Regular';font-size:7px">9</tspan><tspan x="3.72" y="0" style="font-family:'Asap-Regular';font-size:7px">0</tspan></text><text transform="translate(267.998 211.618)"><tspan x="0" y="0" style="font-family:'Asap-Regular';font-size:7px">1</tspan><tspan x="3.72" y="0" style="font-family:'Asap-Regular';font-size:7px">0</tspan><tspan x="7.53" y="0" style="font-family:'Asap-Regular';font-size:7px">0</tspan></text><text transform="translate(291.186 211.618)"><tspan x="0" y="0" style="font-family:'Asap-Regular';font-size:7px">1</tspan><tspan x="3.72" y="0" style="font-family:'Asap-Regular';font-size:7px">1</tspan><tspan x="7.53" y="0" style="font-family:'Asap-Regular';font-size:7px">0</tspan></text><text transform="rotate(-90 78.468 62.665)"><tspan x="0" y="0" style="font-family:'Asap-Medium';font-size:8px">C</tspan><tspan x="4.92" y="0" style="font-family:'Asap-Medium';font-size:8px">o</tspan><tspan x="9.47" y="0" style="font-family:'Asap-Medium';font-size:8px">n</tspan><tspan x="13.9" y="0" style="font-family:'Asap-Medium';font-size:8px">s</tspan><tspan x="17.22" y="0" style="font-family:'Asap-Medium';font-size:8px">u</tspan><tspan x="21.66" y="0" style="font-family:'Asap-Medium';font-size:8px">m</tspan><tspan x="28.46" y="0" style="font-family:'Asap-Medium';font-size:8px">pt</tspan><tspan x="35.78" y="0" style="font-family:'Asap-Medium';font-size:8px">i</tspan><tspan x="37.86" y="0" style="font-family:'Asap-Medium';font-size:8px">o</tspan><tspan x="42.42" y="0" style="font-family:'Asap-Medium';font-size:8px">n</tspan><tspan x="46.84" y="0" style="font-family:'Asap-Medium';font-size:8px"> </tspan><tspan x="49.08" y="0" style="font-family:'Asap-Medium';font-size:8px">l</tspan><tspan x="51.45" y="0" style="font-family:'Asap-Medium';font-size:8px">a</tspan><tspan x="55.82" y="0" style="font-family:'Asap-Medium';font-size:8px">t</tspan><tspan x="58.56" y="0" style="font-family:'Asap-Medium';font-size:8px">e</tspan><tspan x="62.85" y="0" style="font-family:'Asap-Medium';font-size:8px">r</tspan><tspan x="65.8" y="0" style="font-family:'Asap-Medium';font-size:8px"> </tspan><tspan x="67.75" y="0" style="font-family:'Asap-Medium';font-size:8px">(</tspan><tspan x="70.15" y="0" style="font-family:'Asap-Medium';font-size:8px">$</tspan><tspan x="74.09" y="0" style="font-family:'Asap-Medium';font-size:8px">)</tspan></text><text transform="translate(131.909 224.238)"><tspan x="0" y="0" style="font-family:'Asap-Medium';font-size:8px">C</tspan><tspan x="4.92" y="0" style="font-family:'Asap-Medium';font-size:8px">o</tspan><tspan x="9.47" y="0" style="font-family:'Asap-Medium';font-size:8px">n</tspan><tspan x="13.9" y="0" style="font-family:'Asap-Medium';font-size:8px">s</tspan><tspan x="17.22" y="0" style="font-family:'Asap-Medium';font-size:8px">u</tspan><tspan x="21.66" y="0" style="font-family:'Asap-Medium';font-size:8px">m</tspan><tspan x="28.46" y="0" style="font-family:'Asap-Medium';font-size:8px">pt</tspan><tspan x="35.78" y="0" style="font-family:'Asap-Medium';font-size:8px">i</tspan><tspan x="37.86" y="0" style="font-family:'Asap-Medium';font-size:8px">o</tspan><tspan x="42.42" y="0" style="font-family:'Asap-Medium';font-size:8px">n</tspan><tspan x="46.84" y="0" style="font-family:'Asap-Medium';font-size:8px"> </tspan><tspan x="49.08" y="0" style="font-family:'Asap-Medium';font-size:8px">n</tspan><tspan x="53.5" y="0" style="font-family:'Asap-Medium';font-size:8px">o</tspan><tspan x="58.06" y="0" style="font-family:'Asap-Medium';font-size:8px">w </tspan><tspan x="66.02" y="0" style="font-family:'Asap-Medium';font-size:8px">(</tspan><tspan x="68.42" y="0" style="font-family:'Asap-Medium';font-size:8px">$</tspan><tspan x="72.36" y="0" style="font-family:'Asap-Medium';font-size:8px">)</tspan></text><text transform="translate(245.845 188.056)"><tspan x="0" y="0" style="fill:#ed1f24;font-family:'Asap-Regular';font-size:6px">F</tspan><tspan x="3" y="0" style="fill:#ed1f24;font-family:'Asap-Regular';font-size:6px">e</tspan><tspan x="6.25" y="0" style="fill:#ed1f24;font-family:'Asap-Regular';font-size:6px">a</tspan><tspan x="9.55" y="0" style="fill:#ed1f24;font-family:'Asap-Regular';font-size:6px">s</tspan><tspan x="12.02" y="0" style="fill:#ed1f24;font-family:'Asap-Regular';font-size:6px">i</tspan><tspan x="13.63" y="0" style="fill:#ed1f24;font-family:'Asap-Regular';font-size:6px">b</tspan><tspan x="17.04" y="0" style="fill:#ed1f24;font-family:'Asap-Regular';font-size:6px">l</tspan><tspan x="18.8" y="0" style="fill:#ed1f24;font-family:'Asap-Regular';font-size:6px">e</tspan><tspan x="22.04" y="0" style="fill:#ed1f24;font-family:'Asap-Regular';font-size:6px"> </tspan><tspan x="23.48" y="0" style="fill:#ed1f24;font-family:'Asap-Regular';font-size:6px">f</tspan><tspan x="25.46" y="0" style="fill:#ed1f24;font-family:'Asap-Regular';font-size:6px">r</tspan><tspan x="27.67" y="0" style="fill:#ed1f24;font-family:'Asap-Regular';font-size:6px">o</tspan><tspan x="31.12" y="0" style="fill:#ed1f24;font-family:'Asap-Regular';font-size:6px">n</tspan><tspan x="34.46" y="0" style="fill:#ed1f24;font-family:'Asap-Regular';font-size:6px">ti</tspan><tspan x="38.15" y="0" style="fill:#ed1f24;font-family:'Asap-Regular';font-size:6px">e</tspan><tspan x="41.39" y="0" style="fill:#ed1f24;font-family:'Asap-Regular';font-size:6px">r</tspan></text><line style="fill:none;stroke:#6d6e71;stroke-width:.5;stroke-linecap:square" x1="41.76" y1="199.36" x2="41.76" y2="201.49"/><line style="fill:none;stroke:#6d6e71;stroke-width:.5;stroke-linecap:square" x1="64.95" y1="199.36" x2="64.95" y2="201.49"/><line style="fill:none;stroke:#6d6e71;stroke-width:.5;stroke-linecap:square" x1="88.14" y1="199.36" x2="88.14" y2="201.49"/><line style="fill:none;stroke:#6d6e71;stroke-width:.5;stroke-linecap:square" x1="111.32" y1="199.36" x2="111.32" y2="201.49"/><line style="fill:none;stroke:#6d6e71;stroke-width:.5;stroke-linecap:square" x1="134.51" y1="199.36" x2="134.51" y2="201.49"/><line style="fill:none;stroke:#6d6e71;stroke-width:.5;stroke-linecap:square" x1="157.7" y1="199.36" x2="157.7" y2="201.49"/><line style="fill:none;stroke:#6d6e71;stroke-width:.5;stroke-linecap:square" x1="180.89" y1="199.36" x2="180.89" y2="201.49"/><line style="fill:none;stroke:#6d6e71;stroke-width:.5;stroke-linecap:square" x1="204.07" y1="199.36" x2="204.07" y2="201.49"/><line style="fill:none;stroke:#6d6e71;stroke-width:.5;stroke-linecap:square" x1="227.26" y1="199.36" x2="227.26" y2="201.49"/><line style="fill:none;stroke:#6d6e71;stroke-width:.5;stroke-linecap:square" x1="250.45" y1="199.36" x2="250.45" y2="201.49"/><line style="fill:none;stroke:#6d6e71;stroke-width:.5;stroke-linecap:square" x1="273.64" y1="199.36" x2="273.64" y2="201.49"/><line style="fill:none;stroke:#6d6e71;stroke-width:.5;stroke-linecap:square" x1="296.82" y1="199.36" x2="296.82" y2="201.49"/><line style="fill:none;stroke:#6d6e71;stroke-width:.5;stroke-linecap:square" x1="39.63" y1="199.36" x2="41.76" y2="199.36"/><line style="fill:none;stroke:#6d6e71;stroke-width:.5;stroke-linecap:square" x1="39.63" y1="181.82" x2="41.76" y2="181.82"/><line style="fill:none;stroke:#6d6e71;stroke-width:.5;stroke-linecap:square" x1="39.63" y1="164.28" x2="41.76" y2="164.28"/><line style="fill:none;stroke:#6d6e71;stroke-width:.5;stroke-linecap:square" x1="39.63" y1="146.74" x2="41.76" y2="146.74"/><line style="fill:none;stroke:#6d6e71;stroke-width:.5;stroke-linecap:square" x1="39.63" y1="129.2" x2="41.76" y2="129.2"/><line style="fill:none;stroke:#6d6e71;stroke-width:.5;stroke-linecap:square" x1="39.63" y1="111.65" x2="41.76" y2="111.65"/><line style="fill:none;stroke:#6d6e71;stroke-width:.5;stroke-linecap:square" x1="39.63" y1="94.11" x2="41.76" y2="94.11"/><line style="fill:none;stroke:#6d6e71;stroke-width:.5;stroke-linecap:square" x1="39.63" y1="76.57" x2="41.76" y2="76.57"/><line style="fill:none;stroke:#6d6e71;stroke-width:.5;stroke-linecap:square" x1="39.63" y1="59.03" x2="41.76" y2="59.03"/><line style="fill:none;stroke:#6d6e71;stroke-width:.5;stroke-linecap:square" x1="39.63" y1="41.49" x2="41.76" y2="41.49"/><line style="fill:none;stroke:#6d6e71;stroke-width:.5;stroke-linecap:square" x1="39.63" y1="23.94" x2="41.76" y2="23.94"/><line style="fill:none;stroke:#6d6e71;stroke-width:.5;stroke-linecap:square" x1="39.63" y1="6.4" x2="41.76" y2="6.4"/></svg>