<svg xmlns="http://www.w3.org/2000/svg" viewBox="0 0 810 501"><rect width="100%" height="100%" style="stroke:none;fill:#fff;stroke-linecap:round;stroke-linejoin:round;stroke-miterlimit:10"/><rect x="0" y="0" width="810" height="501" style="stroke-width:1.07;stroke:#fff;fill:#fff;stroke-linecap:round;stroke-linejoin:round;stroke-miterlimit:10"/><rect x="87.27" y="14.17" width="708.56" height="405.93" style="stroke-width:1.07;stroke:none;fill:#fff;stroke-linecap:round;stroke-linejoin:round;stroke-miterlimit:10"/><polyline points="87.27 420.1 795.83 420.1" style="stroke-width:1.07;stroke:#c6c4c4;stroke-linecap:butt;fill:none;stroke-linejoin:round;stroke-miterlimit:10"/><polyline points="87.27 318.62 795.83 318.62" style="stroke-width:1.07;stroke:#c6c4c4;stroke-linecap:butt;fill:none;stroke-linejoin:round;stroke-miterlimit:10"/><polyline points="87.27 217.14 795.83 217.14" style="stroke-width:1.07;stroke:#c6c4c4;stroke-linecap:butt;fill:none;stroke-linejoin:round;stroke-miterlimit:10"/><polyline points="87.27 115.66 795.83 115.66" style="stroke-width:1.07;stroke:#c6c4c4;stroke-linecap:butt;fill:none;stroke-linejoin:round;stroke-miterlimit:10"/><polyline points="87.27 14.17 795.83 14.17" style="stroke-width:1.07;stroke:#c6c4c4;stroke-linecap:butt;fill:none;stroke-linejoin:round;stroke-miterlimit:10"/><polyline points="92.94 226.33 95.77 225.56 98.61 228.14 101.44 231.3 104.28 231.24 107.11 231.11 109.94 229.8 112.78 229.74 115.61 227.28 118.45 227.13 121.28 228.15 124.12 230.32 126.95 231.71 129.78 233.71 132.62 235.86 135.45 236.84 138.29 235.05 141.12 235.1 143.95 234.37 146.79 233.93 149.62 235.04 152.46 240.86 155.29 243.4 158.13 246.6 160.96 249.31 163.79 249.85 166.63 246.06 169.46 243.52 172.3 243.27 175.13 242.03 177.97 241.26 180.8 241.61 183.63 243.37 186.47 244.55 189.3 243.9 192.14 244.07 194.97 245.67 197.81 246.27 200.64 244.95 203.47 245.64 206.31 246.21 209.14 242.76 211.98 239.62 214.81 234.21 217.64 229.72 220.48 224.32 223.31 222.1 226.15 219.7 228.98 219.77 231.82 219.66 234.65 219.04 237.48 218.37 240.32 217.53 243.15 217.55 245.99 216.87 248.82 217.3 251.66 213.81 254.49 212.14 257.32 208.33 260.16 205.12 262.99 204.28 265.83 205.72 268.66 205.92 271.5 205.92 274.33 203.94 277.16 201.89 280 204.14 282.83 197.89 285.67 193.4 288.5 190.25 291.33 185.09 294.17 180.36 297 183.09 299.84 186.8 302.67 190.47 305.51 193.22 308.34 193.68 311.17 194.6 314.01 194.12 316.84 193.37 319.68 193.82 322.51 194.3 325.35 194.41 328.18 194.19 331.01 193.92 333.85 193.42 336.68 193.07 339.52 193.12 342.35 193.92 345.18 194.47 348.02 195.4 350.85 195.95 353.69 195.32 356.52 195.2 359.36 195.3 362.19 195.35 365.02 195.3 367.86 195.73 370.69 195.65 373.53 196.1 376.36 195.57 379.2 195.54 382.03 194.32 384.86 192.98 387.7 191.42 390.53 191 393.37 190.17 396.2 190.82 399.04 191.62 401.87 192.37 404.7 190.53 407.54 188.86 410.37 188.02 413.21 187.14 416.04 186.28 418.87 187.28 421.71 188.12 424.54 188.62 427.38 186.54 430.21 183.93 433.05 181.03 435.88 177.58 438.71 172.86 441.55 170.53 444.38 168.54 447.22 166.85 450.05 166.13 452.89 165.69 455.72 165.8 458.55 165.54 461.39 165.02 464.22 160.72 467.06 157.06 469.89 153.37 472.73 151.52 475.56 149.94 478.39 151.71 481.23 153.51 484.06 154.91 486.9 154.93 489.73 155.04 492.56 156.09 495.4 157.34 498.23 159.42 501.07 161.68 503.9 163.89 506.74 165.2 509.57 163.9 512.4 160.17 515.24 155.95 518.07 151.55 520.91 146.7 523.74 143.93 526.58 142.13 529.41 140.96 532.24 139.88 535.08 139.19 537.91 138.71 540.75 138.85 543.58 138.69 546.41 137.67 549.25 136.65 552.08 135.51 554.92 134.48 557.75 133.63 560.59 133.63 563.42 133.74 566.25 133.82 569.09 133.86 571.92 133.82 574.76 133.82 577.59 133.75 580.43 134.48 583.26 135.55 586.09 136.63 588.93 137.71 591.76 137.89 594.6 137.5 597.43 136.61 600.27 135.71 603.1 134.81 605.93 134.81 608.77 134.64 611.6 134.64 614.44 134.64 617.27 134.64 620.1 134.64 622.94 135.91 625.77 137.74 628.61 138.96 631.44 137.5 634.28 136.62 637.11 134.53 639.94 129.33 642.78 124.44 645.61 122.29 648.45 120.21 651.28 117.72 654.12 117.58 656.95 118.3 659.78 119.89 662.62 119.37 665.45 119.51 668.29 119.68 671.12 119.23 673.96 117.9 676.79 118.41 679.62 123.58 682.46 127.71 685.29 132.64 688.13 134.91 690.96 136.94 693.79 134.56 696.63 134.47 699.46 133.91 702.3 135.72 705.13 138.77 707.97 134.69 710.8 137.84 713.63 126.18 716.47 115.34 719.3 114.82 722.14 121.21 724.97 110.52 727.81 113.37 730.64 119.38 733.47 110.9 736.31 103.15 739.14 102.49 741.98 101.91 744.81 96.88 747.64 95.08 750.48 87.49 753.31 83.8 756.15 83.21 758.98 82.92 761.82 80.27 764.65 80.85 767.48 79.53 770.32 76.22 773.15 74.55 775.99 75.46 778.82 74.33 781.66 70.66 784.49 70.46 787.32 68.29" style="stroke-width:1.2;stroke:#3a53a4;stroke-linecap:butt;fill:none;stroke-linejoin:round;stroke-miterlimit:10"/><polyline points="92.94 190.25 95.77 190.94 98.61 191.37 101.44 198.95 104.28 199.05 107.11 198.94 109.94 199.53 112.78 200.51 115.61 199.01 118.45 198.11 121.28 198.08 124.12 197.62 126.95 198.21 129.78 199.72 132.62 200.33 135.45 200.07 138.29 199.56 141.12 199.2 143.95 196.41 146.79 191.65 149.62 187.65 152.46 183.65 155.29 178.45 158.13 176.91 160.96 177.66 163.79 177.66 166.63 177.66 169.46 177.66 172.3 178.27 175.13 180.87 177.97 183.46 180.8 186.06 183.63 188.65 186.47 190.64 189.3 190.64 192.14 190.64 194.97 190.64 197.81 190.64 200.64 190.64 203.47 190.64 206.31 190.64 209.14 190.64 211.98 195.1 214.81 199.56 217.64 204.02 220.48 208.49 223.31 212.95 226.15 212.95 228.98 212.95 231.82 212.95 234.65 212.95 237.48 212.95 240.32 212.95 243.15 212.95 245.99 212.95 248.82 212.95 251.66 212.95 254.49 212.95 257.32 212.95 260.16 212.95 262.99 212.95 265.83 212.95 268.66 215.34 271.5 217.29 274.33 219.24 277.16 221.19 280 224.87 282.83 228.39 285.67 232.47 288.5 235.84 291.33 239.21 294.17 240.33 297 239.74 299.84 239.62 302.67 240.21 305.51 240.8 308.34 241.7 311.17 242.46 314.01 243.29 316.84 243.9 319.68 244.33 322.51 244.33 325.35 243.95 328.18 243.12 331.01 242.19 333.85 241.77 336.68 242.4 339.52 242.18 342.35 242.18 345.18 242.92 348.02 243.29 350.85 243.41 353.69 242.54 356.52 241.56 359.36 240.16 362.19 240.27 365.02 239.16 367.86 239.54 370.69 240 373.53 239.58 376.36 237.58 379.2 235.86 382.03 234.39 384.86 233.78 387.7 234.06 390.53 234.46 393.37 235.34 396.2 236.51 399.04 235.78 401.87 235.93 404.7 236 407.54 235.45 410.37 234.54 413.21 234.64 416.04 234.11 418.87 233.12 421.71 233.4 424.54 231.83 427.38 230.69 430.21 229.3 433.05 229.03 435.88 228.62 438.71 229.57 441.55 229.79 444.38 231.13 447.22 229.38 450.05 227.41 452.89 226.21 455.72 225.36 458.55 223.38 461.39 223.99 464.22 225.08 467.06 225.33 469.89 224.59 472.73 222.65 475.56 221.65 478.39 221.21 481.23 221.35 484.06 221.53 486.9 223.3 489.73 224.07 492.56 223.24 495.4 226.93 498.23 231.15 501.07 234.98 503.9 238.47 506.74 243.91 509.57 244.99 512.4 246.07 515.24 247.15 518.07 249.09 520.91 249.61 523.74 250.13 526.58 250.4 529.41 250.4 532.24 249.88 535.08 249.36 537.91 249.11 540.75 249.11 543.58 249.63 546.41 251.11 549.25 252.59 552.08 253.79 554.92 255 557.75 255.95 560.59 254.78 563.42 252.78 566.25 250.89 569.09 249.01 571.92 247.13 574.76 246.15 577.59 246.01 580.43 245.75 583.26 245.48 586.09 245.21 588.93 245.21 591.76 245.47 594.6 245.73 597.43 246 600.27 246.81 603.1 247.61 605.93 245.47 608.77 239.16 611.6 232.58 614.44 225.12 617.27 217.65 620.1 212.87 622.94 217.14 625.77 221.66 628.61 226.54 631.44 231.41 634.28 236.29 637.11 235.71 639.94 235.65 642.78 235.6 645.61 236.12 648.45 235.69 651.28 235.69 654.12 235.16 656.95 234.63 659.78 235.64 662.62 236.59 665.45 238.7 668.29 240.81 671.12 241.91 673.96 240.35 676.79 239.25 679.62 236.58 682.46 233.37 685.29 230.61 688.13 227.85 690.96 225.09 693.79 222.33 696.63 219.57 699.46 216.81 702.3 214.05 705.13 211.29 707.97 208.53 710.8 205.77 713.63 203.66 716.47 202.22 719.3 201.77 722.14 203.77 724.97 204.65 727.81 206.28 730.64 209.56 733.47 211.24 736.31 209.8 739.14 210.86 741.98 212.05 744.81 209.67 747.64 208.3 750.48 208.51 753.31 209.11 756.15 207.28 758.98 207.5 761.82 209.26 764.65 209.43 767.48 207.82 770.32 208.45 773.15 208.83 775.99 207.92 778.82 213.79 781.66 221.1 784.49 226.93 787.32 232.62" style="stroke-width:1.2;stroke:#ed1f24;stroke-linecap:butt;fill:none;stroke-linejoin:round;stroke-miterlimit:10"/><text x="668.5" y="102.85" style="font-size:14px;fill:#3a53a4;font-family:Asap" textLength="50.58" lengthAdjust="spacingAndGlyphs">England</text><text x="633.15" y="261.16" style="font-size:14px;fill:#ed1f24;font-family:Asap" textLength="41.93" lengthAdjust="spacingAndGlyphs">France</text><polyline points="87.27 420.1 87.27 14.17" style="stroke-width:1.07;stroke:#464646;stroke-linecap:butt;fill:none;stroke-linejoin:round;stroke-miterlimit:10"/><text x="60.59" y="424.51" style="font-size:18px;font-family:Asap" textLength="9.63" lengthAdjust="spacingAndGlyphs">0</text><text x="47.4" y="323.03" style="font-size:18px;font-family:Asap" textLength="22.82" lengthAdjust="spacingAndGlyphs">0.5</text><text x="47.4" y="221.55" style="font-size:18px;font-family:Asap" textLength="22.82" lengthAdjust="spacingAndGlyphs">1.0</text><text x="47.4" y="120.07" style="font-size:18px;font-family:Asap" textLength="22.82" lengthAdjust="spacingAndGlyphs">1.5</text><text x="47.4" y="18.58" style="font-size:18px;font-family:Asap" textLength="22.82" lengthAdjust="spacingAndGlyphs">2.0</text><polyline points="80.18 420.1 87.27 420.1" style="stroke-width:1.07;stroke:#464646;stroke-linecap:butt;fill:none;stroke-linejoin:round;stroke-miterlimit:10"/><polyline points="80.18 318.62 87.27 318.62" style="stroke-width:1.07;stroke:#464646;stroke-linecap:butt;fill:none;stroke-linejoin:round;stroke-miterlimit:10"/><polyline points="80.18 217.14 87.27 217.14" style="stroke-width:1.07;stroke:#464646;stroke-linecap:butt;fill:none;stroke-linejoin:round;stroke-miterlimit:10"/><polyline points="80.18 115.66 87.27 115.66" style="stroke-width:1.07;stroke:#464646;stroke-linecap:butt;fill:none;stroke-linejoin:round;stroke-miterlimit:10"/><polyline points="80.18 14.17 87.27 14.17" style="stroke-width:1.07;stroke:#464646;stroke-linecap:butt;fill:none;stroke-linejoin:round;stroke-miterlimit:10"/><polyline points="87.27 420.1 795.83 420.1" style="stroke-width:1.07;stroke:#464646;stroke-linecap:butt;fill:none;stroke-linejoin:round;stroke-miterlimit:10"/><polyline points="87.27 427.19 87.27 420.1" style="stroke-width:1.07;stroke:#464646;stroke-linecap:butt;fill:none;stroke-linejoin:round;stroke-miterlimit:10"/><polyline points="143.95 427.19 143.95 420.1" style="stroke-width:1.07;stroke:#464646;stroke-linecap:butt;fill:none;stroke-linejoin:round;stroke-miterlimit:10"/><polyline points="200.64 427.19 200.64 420.1" style="stroke-width:1.07;stroke:#464646;stroke-linecap:butt;fill:none;stroke-linejoin:round;stroke-miterlimit:10"/><polyline points="257.32 427.19 257.32 420.1" style="stroke-width:1.07;stroke:#464646;stroke-linecap:butt;fill:none;stroke-linejoin:round;stroke-miterlimit:10"/><polyline points="314.01 427.19 314.01 420.1" style="stroke-width:1.07;stroke:#464646;stroke-linecap:butt;fill:none;stroke-linejoin:round;stroke-miterlimit:10"/><polyline points="370.69 427.19 370.69 420.1" style="stroke-width:1.07;stroke:#464646;stroke-linecap:butt;fill:none;stroke-linejoin:round;stroke-miterlimit:10"/><polyline points="427.38 427.19 427.38 420.1" style="stroke-width:1.07;stroke:#464646;stroke-linecap:butt;fill:none;stroke-linejoin:round;stroke-miterlimit:10"/><polyline points="484.06 427.19 484.06 420.1" style="stroke-width:1.07;stroke:#464646;stroke-linecap:butt;fill:none;stroke-linejoin:round;stroke-miterlimit:10"/><polyline points="540.75 427.19 540.75 420.1" style="stroke-width:1.07;stroke:#464646;stroke-linecap:butt;fill:none;stroke-linejoin:round;stroke-miterlimit:10"/><polyline points="597.43 427.19 597.43 420.1" style="stroke-width:1.07;stroke:#464646;stroke-linecap:butt;fill:none;stroke-linejoin:round;stroke-miterlimit:10"/><polyline points="654.12 427.19 654.12 420.1" style="stroke-width:1.07;stroke:#464646;stroke-linecap:butt;fill:none;stroke-linejoin:round;stroke-miterlimit:10"/><polyline points="710.8 427.19 710.8 420.1" style="stroke-width:1.07;stroke:#464646;stroke-linecap:butt;fill:none;stroke-linejoin:round;stroke-miterlimit:10"/><polyline points="767.48 427.19 767.48 420.1" style="stroke-width:1.07;stroke:#464646;stroke-linecap:butt;fill:none;stroke-linejoin:round;stroke-miterlimit:10"/><text x="68.01" y="449.79" style="font-size:18px;font-family:Asap" textLength="38.52" lengthAdjust="spacingAndGlyphs">1580</text><text x="124.69" y="449.79" style="font-size:18px;font-family:Asap" textLength="38.52" lengthAdjust="spacingAndGlyphs">1600</text><text x="181.38" y="449.79" style="font-size:18px;font-family:Asap" textLength="38.52" lengthAdjust="spacingAndGlyphs">1620</text><text x="238.06" y="449.79" style="font-size:18px;font-family:Asap" textLength="38.52" lengthAdjust="spacingAndGlyphs">1640</text><text x="294.75" y="449.79" style="font-size:18px;font-family:Asap" textLength="38.52" lengthAdjust="spacingAndGlyphs">1660</text><text x="351.43" y="449.79" style="font-size:18px;font-family:Asap" textLength="38.52" lengthAdjust="spacingAndGlyphs">1680</text><text x="408.12" y="449.79" style="font-size:18px;font-family:Asap" textLength="38.52" lengthAdjust="spacingAndGlyphs">1700</text><text x="464.8" y="449.79" style="font-size:18px;font-family:Asap" textLength="38.52" lengthAdjust="spacingAndGlyphs">1720</text><text x="521.49" y="449.79" style="font-size:18px;font-family:Asap" textLength="38.52" lengthAdjust="spacingAndGlyphs">1740</text><text x="578.17" y="449.79" style="font-size:18px;font-family:Asap" textLength="38.52" lengthAdjust="spacingAndGlyphs">1760</text><text x="634.86" y="449.79" style="font-size:18px;font-family:Asap" textLength="38.52" lengthAdjust="spacingAndGlyphs">1780</text><text x="691.54" y="449.79" style="font-size:18px;font-family:Asap" textLength="38.52" lengthAdjust="spacingAndGlyphs">1800</text><text x="748.22" y="449.79" style="font-size:18px;font-family:Asap" textLength="38.52" lengthAdjust="spacingAndGlyphs">1820</text><text x="421.46" y="482.59" style="font-size:20px;font-family:Asap Medium" textLength="40.18" lengthAdjust="spacingAndGlyphs">Year</text><text transform="rotate(-90 202.09 173.88)" style="font-size:20px;font-family:Asap Medium" textLength="59.06" lengthAdjust="spacingAndGlyphs">Wages</text><text transform="rotate(-90 170.16 141.95)" style="font-size:20px;font-family:Asap Medium" textLength="67.56" lengthAdjust="spacingAndGlyphs">relative</text><text transform="rotate(-90 133.98 105.77)" style="font-size:20px;font-family:Asap Medium" textLength="18.22" lengthAdjust="spacingAndGlyphs">to</text><text transform="rotate(-90 122.47 94.26)" style="font-size:20px;font-family:Asap Medium" textLength="28.92" lengthAdjust="spacingAndGlyphs">the</text><text transform="rotate(-90 105.61 77.4)" style="font-size:20px;font-family:Asap Medium" textLength="36.18" lengthAdjust="spacingAndGlyphs">cost</text><text transform="rotate(-90 85.12 56.91)" style="font-size:20px;font-family:Asap Medium" textLength="17.88" lengthAdjust="spacingAndGlyphs">of</text><text transform="rotate(-90 73.78 45.57)" style="font-size:20px;font-family:Asap Medium" textLength="61.04" lengthAdjust="spacingAndGlyphs">capital</text></svg>