<svg version="1.1" xmlns="http://www.w3.org/2000/svg" x="0" y="0" viewBox="0 0 311.81 191.63" style="enable-background:new 0 0 311.81 191.63" xml:space="preserve"><line style="fill:none;stroke:#939598;stroke-width:.5;stroke-linecap:square;stroke-linejoin:round;stroke-dasharray:1.1836" x1="171.34" y1="164.43" x2="171.34" y2="86.36"/><line style="fill:none;stroke:#6d6e71;stroke-width:.5;stroke-linecap:square;stroke-linejoin:round" x1="38.39" y1="164.43" x2="36.26" y2="164.43"/><line style="fill:none;stroke:#6d6e71;stroke-width:.5;stroke-linecap:square;stroke-linejoin:round" x1="38.66" y1="10.4" x2="36.53" y2="10.4"/><line style="fill:none;stroke:#6d6e71;stroke-width:.5;stroke-linecap:square" x1="38.66" y1="164.56" x2="38.66" y2="166.68"/><text transform="translate(29.803 166.66)" style="font-family:'Asap-Regular';font-size:7px">0</text><text transform="translate(36.385 175.241)" style="font-family:'Asap-Regular';font-size:7px">0</text><text transform="translate(22.313 12.166)" style="font-family:'Asap-Regular';font-size:7px">100</text><text transform="matrix(0 -.9726 1 0 11.534 122)" style="font-family:'Asap-Medium';font-size:8px">Environmental quality</text><text transform="translate(158.786 187.763)" style="font-family:'Asap-Medium';font-size:8px">Wage</text><path style="fill:none;stroke:#6d6e71;stroke-width:.479;stroke-linecap:square;stroke-linejoin:round" d="M38.66 10.4v154.03"/><line style="fill:none;stroke:#6d6e71;stroke-width:.5075;stroke-linecap:square" x1="38.66" y1="164.43" x2="304.03" y2="164.43"/><text transform="translate(60.497 132.167)"><tspan x="0" y="0" style="font-family:'Asap-Regular';font-size:6px">Citizens’ leave-town</tspan><tspan x="0" y="7.2" style="font-family:'Asap-Regular';font-size:6px">condition</tspan></text><text transform="translate(270.001 109.724)"><tspan x="0" y="0" style="font-family:'Asap-Regular';font-size:6px">Citizens’</tspan><tspan x="0" y="7.2" style="font-family:'Asap-Regular';font-size:6px">indifference </tspan><tspan x="0" y="14.4" style="font-family:'Asap-Regular';font-size:6px">curves</tspan></text><line style="fill:none;stroke:#939598;stroke-width:.5;stroke-linecap:square;stroke-linejoin:round" x1="84.19" y1="123.87" x2="101.63" y2="106.42"/><polygon style="fill:#939598" points="101.91 109.04 101.41 109.02 101.5 106.56 99.03 106.65 99.01 106.15 102.01 106.04"/><path style="fill:none;stroke:#f49323;stroke-width:.5;stroke-linecap:round;stroke-linejoin:round;stroke-miterlimit:10" d="M38.66 29.1c.35.19.7.38 1.05.56.35.19.7.38 1.05.56.35.19.7.38 1.05.56.35.19.7.38 1.05.56.35.19.7.38 1.05.56.35.19.7.38 1.05.56.35.19.7.38 1.05.56.35.19.7.38 1.05.56.35.19.7.38 1.05.56.35.19.7.38 1.05.56.35.19.7.38 1.05.56.35.19.7.38 1.05.56.35.19.7.38 1.05.56.35.19.7.38 1.05.56.35.19.7.38 1.05.56.35.19.7.38 1.05.56.35.19.7.38 1.05.56.35.19.7.38 1.05.56.35.19.7.38 1.05.56.35.19.7.38 1.05.56.35.19.7.38 1.05.56.35.19.7.38 1.05.56.35.19.7.38 1.05.56.35.19.7.38 1.05.56.35.19.7.38 1.05.56.35.19.7.38 1.05.56.35.19.7.38 1.05.56.35.19.7.38 1.05.56.35.19.7.38 1.05.56.35.19.7.38 1.05.56.35.19.7.38 1.05.56.35.19.7.38 1.05.56.35.19.7.38 1.05.56.35.19.7.38 1.05.56.35.19.7.38 1.05.56.35.19.7.38 1.05.56.35.19.7.38 1.05.56.35.19.7.38 1.05.56.35.19.7.38 1.05.56.35.19.7.38 1.05.56.35.19.7.38 1.05.56.35.19.7.38 1.05.56.35.19.7.38 1.05.56.35.19.7.38 1.05.56.35.19.7.38 1.05.56.35.19.7.38 1.05.56.35.19.7.38 1.05.56.35.19.7.38 1.05.56.35.19.7.38 1.05.56.35.19.7.38 1.05.56.35.19.7.38 1.05.56.35.19.7.38 1.05.56.35.19.7.38 1.05.56.35.19.7.38 1.05.56.35.19.7.38 1.05.56.35.19.7.38 1.05.56.35.19.7.38 1.05.56.35.19.7.38 1.05.56.35.19.7.38 1.05.56.35.19.7.38 1.05.56.35.19.7.38 1.05.56.35.19.7.38 1.05.56.35.19.7.38 1.05.56.35.19.7.38 1.05.56.35.19.7.38 1.05.56.35.19.7.38 1.05.56.35.19.7.38 1.05.56.35.19.7.38 1.05.56.35.19.7.38 1.05.56.35.19.7.38 1.05.56.35.19.7.38 1.05.56.35.19.7.38 1.05.56.35.19.7.38 1.05.56.35.19.7.38 1.05.56.35.19.7.38 1.05.56.35.19.7.38 1.05.56.35.19.7.38 1.05.56.35.19.7.38 1.05.56.35.19.7.38 1.05.56.35.19.7.38 1.05.56.35.19.7.38 1.05.56.35.19.7.38 1.05.56.35.19.7.38 1.05.56.35.19.7.38 1.05.56.35.19.7.38 1.05.56.35.19.7.38 1.05.56.35.19.7.38 1.05.56.35.19.7.38 1.05.56.35.19.7.38 1.05.56.35.19.7.38 1.05.56.35.19.7.38 1.05.56.35.19.7.38 1.05.56.35.19.7.38 1.05.56.35.19.7.38 1.05.56.35.19.7.38 1.05.56.35.19.7.38 1.05.56.35.19.7.38 1.05.56.35.19.7.38 1.05.56.35.19.7.38 1.05.56.35.19.7.38 1.05.56.35.19.7.38 1.05.56.35.19.7.38 1.05.56.35.19.7.38 1.05.56.35.19.7.38 1.05.56.35.19.7.38 1.05.56.35.19.7.38 1.05.56.35.19.7.38 1.05.56.35.19.7.38 1.05.56s.7.38 1.05.56c.35.19.7.38 1.05.56.35.19.7.38 1.05.56.35.19.7.38 1.05.56.35.19.7.38 1.05.56.35.19.7.38 1.05.56.35.19.7.38 1.05.56.35.19.7.38 1.05.56.35.19.7.38 1.05.56.35.19.7.38 1.05.56.35.19.7.38 1.05.56.35.19.7.38 1.05.56.35.19.7.38 1.05.56.35.19.7.38 1.05.56.35.19.7.38 1.05.56.35.19.7.38 1.05.56.35.19.7.38 1.05.56.35.19.7.38 1.05.56.35.19.7.38 1.05.56.35.19.7.38 1.05.56.35.19.7.38 1.05.56.35.19.7.38 1.05.56.35.19.7.38 1.05.56.35.19.7.38 1.05.56.35.19.7.38 1.05.56.35.19.7.38 1.05.56.35.19.7.38 1.05.56.35.19.7.38 1.05.56.35.19.7.38 1.05.56.35.19.7.38 1.05.56.35.19.7.38 1.05.56.35.19.7.38 1.05.56.35.19.7.38 1.05.56.35.19.7.38 1.05.56.35.19.7.38 1.05.56.35.19.7.38 1.05.56.35.19.7.38 1.05.56.35.19.7.38 1.05.56.35.19.7.38 1.05.56.35.19.7.38 1.05.56.35.19.7.38 1.05.56.35.19.7.38 1.05.56.35.19.7.38 1.05.56.35.19.7.38 1.05.56.35.19.7.38 1.05.56.35.19.7.38 1.05.56.35.19.7.38 1.05.56.35.19.7.38 1.05.56.35.19.7.38 1.05.56.35.19.7.38 1.05.56.35.19.7.38 1.05.56.35.19.7.38 1.05.56.35.19.7.38 1.05.56.35.19.7.38 1.05.56.35.19.7.38 1.05.56.35.19.7.38 1.05.56.35.19.7.38 1.05.56.35.19.7.38 1.05.56.35.19.7.38 1.05.56.35.19.7.38 1.05.56.35.19.7.38 1.05.56.35.19.7.38 1.05.56.35.19.7.38 1.05.56.35.19.7.38 1.05.56.35.19.7.38 1.05.56.35.19.7.38 1.05.56.35.19.7.38 1.05.56.35.19.7.38 1.05.56.35.19.7.38 1.05.56.35.19.7.38 1.05.56.35.19.7.38 1.05.56.35.19.7.38 1.05.56.35.19.7.38 1.05.56.35.19.7.38 1.05.56.35.19.7.38 1.05.56.35.19.7.38 1.05.56.35.19.7.38 1.05.56.35.19.7.38 1.05.56.35.19.7.38 1.05.56.35.19.7.38 1.05.56.35.19.7.38 1.05.56.35.19.7.38 1.05.56.35.19.7.38 1.05.56.35.19.7.38 1.05.56.35.19.7.38 1.05.56.35.19.7.38 1.05.56.35.19.7.38 1.05.56.35.19.7.38 1.05.56.35.19.7.38 1.05.56.35.19.7.38 1.05.56.35.19.7.38 1.05.56.35.19.7.38 1.05.56.35.19.7.38 1.05.56.35.19.7.38 1.05.56.35.19.7.38 1.05.56.35.19.7.38 1.05.56.35.19.7.38 1.05.56.35.19.7.38 1.05.56.35.19.7.38 1.05.56.35.19.7.38 1.05.56.35.19.7.38 1.05.56.35.19.7.38 1.05.56.35.19.7.38 1.05.56.35.19.7.38 1.05.56.35.19.7.38 1.05.56.35.19.7.38 1.05.56.35.19.7.38 1.05.56.35.19.7.38 1.05.56.35.19.7.38 1.05.56.35.19.7.38 1.05.56.35.19.7.38 1.05.56.35.19.7.38 1.05.56.35.19.7.38 1.05.56.35.19.7.38 1.05.56.35.19.7.38 1.05.56.35.19.7.38 1.05.56.35.19.7.38 1.05.56.35.19.7.38 1.05.56.35.19.7.38 1.05.56.35.19.7.38 1.05.56.35.19.7.38 1.05.56.35.19.7.38 1.05.56.35.19.7.38 1.05.56.35.19.7.38 1.05.56.35.19.7.38 1.05.56.35.19.7.38 1.05.56.35.19.7.38 1.05.56.35.19.7.38 1.05.56.35.19.7.38 1.05.56.35.19.7.38 1.05.56.35.19.7.38 1.05.56.35.19.7.38 1.05.56"/><path style="fill:none;stroke:#253b71;stroke-width:.5;stroke-linecap:round;stroke-linejoin:round;stroke-miterlimit:10" d="M44.96 10.4c.37.89.74 1.76 1.11 2.63.37.87.74 1.73 1.11 2.58.37.85.74 1.7 1.11 2.54.37.84.74 1.67 1.11 2.49.37.82.74 1.64 1.11 2.45.37.81.74 1.61 1.11 2.4.37.79.74 1.58 1.11 2.36.37.78.74 1.55 1.11 2.32.37.77.74 1.52 1.11 2.27.37.75.74 1.5 1.11 2.23.37.74.74 1.47 1.11 2.19.37.72.74 1.44 1.11 2.15.37.71.74 1.42 1.11 2.11.37.7.74 1.39 1.11 2.08.37.69.74 1.37 1.11 2.04a359.391 359.391 0 002.22 3.97 331.422 331.422 0 002.22 3.83c.37.63.74 1.25 1.11 1.86l1.11 1.83c.37.6.74 1.2 1.11 1.79.37.59.74 1.18 1.11 1.76a260.791 260.791 0 003.33 5.1 233.22 233.22 0 003.33 4.83c.37.52.74 1.04 1.11 1.55.37.51.74 1.02 1.11 1.52l1.11 1.5 1.11 1.47c.37.49.74.97 1.11 1.44a175.824 175.824 0 002.22 2.81c.37.46.74.91 1.11 1.37.37.45.74.9 1.11 1.34l1.11 1.32c.37.43.74.87 1.11 1.29.37.43.74.85 1.11 1.27.37.42.74.83 1.11 1.25.37.41.74.82 1.11 1.22l1.11 1.2c.37.4.74.79 1.11 1.18.37.39.74.78 1.11 1.16l1.11 1.14c.37.38.74.75 1.11 1.12.37.37.74.73 1.11 1.1l1.11 1.08c.37.36.74.71 1.11 1.06.37.35.74.7 1.11 1.04l1.11 1.02c.37.34.74.67 1.11 1 .37.33.74.66 1.11.98.37.32.74.65 1.11.97.37.32.74.63 1.11.95l1.11.93c.37.31.74.61 1.11.91l1.11.9c.37.3.74.59 1.11.88l1.11.87c.37.29.74.57 1.11.85.37.28.74.56 1.11.83.37.28.74.55 1.11.82.37.27.74.54 1.11.8.37.27.74.53 1.11.79l1.11.78c.37.26.74.51 1.11.76l1.11.75c.37.25.74.49 1.11.73l1.11.72c.37.24.74.47 1.11.71.37.23.74.47 1.11.7.37.23.74.46 1.11.68.37.23.74.45 1.11.67l1.11.66c.37.22.74.43 1.11.65.37.21.74.43 1.11.63.37.21.74.42 1.11.62.37.21.74.41 1.11.61l1.11.6c.37.2.74.4 1.11.59.37.19.74.39 1.11.58l1.11.57c.37.19.74.37 1.11.56.37.18.74.37 1.11.55l1.11.54c.37.18.74.35 1.11.53.37.17.74.35 1.11.52l1.11.51c.37.17.74.34 1.11.5.37.17.74.33 1.11.49l1.11.48c.37.16.74.32 1.11.47.37.16.74.31 1.11.47.37.15.74.31 1.11.46l1.11.45c.37.15.74.3 1.11.44.37.15.74.29 1.11.43.37.14.74.28 1.11.43l1.11.42c.37.14.74.27 1.11.41.37.14.74.27 1.11.4.37.13.74.26 1.11.4l1.11.39c.37.13.74.26 1.11.38.37.13.74.25 1.11.37.37.12.74.25 1.11.37l1.11.36c.37.12.74.24 1.11.35.37.12.74.23 1.11.35.37.11.74.23 1.11.34.37.11.74.22 1.11.34l1.11.33c.37.11.74.22 1.11.32.37.11.74.21 1.11.32.37.1.74.21 1.11.31.37.1.74.2 1.11.31l1.11.3 1.11.3c.37.1.74.19 1.11.29.37.1.74.19 1.11.28.37.09.74.19 1.11.28l1.11.27 1.11.27c.37.09.74.18 1.11.26.37.09.74.17 1.11.26.37.09.74.17 1.11.26.37.08.74.17 1.11.25.37.08.74.16 1.11.25l1.11.24 1.11.24c.37.08.74.16 1.11.23.37.08.74.15 1.11.23.37.08.74.15 1.11.22.37.07.74.15 1.11.22.37.07.74.14 1.11.22l1.11.21 1.11.21c.37.07.74.14 1.11.2.37.07.74.13 1.11.2.37.07.74.13 1.11.2.37.07.74.13 1.11.19.37.06.74.13 1.11.19.37.06.74.13 1.11.19l1.11.18 1.11.18 1.11.18c.37.06.74.12 1.11.17.37.06.74.11 1.11.17s.74.11 1.11.17c.37.06.74.11 1.11.16.37.05.74.11 1.11.16.37.05.74.11 1.11.16.37.05.74.1 1.11.16l1.11.15 1.11.15 1.11.15c.37.05.74.1 1.11.14.37.05.74.1 1.11.14.37.05.74.09 1.11.14.37.05.74.09 1.11.14.37.05.74.09 1.11.13.37.04.74.09 1.11.13.37.04.74.09 1.11.13.37.04.74.09 1.11.13.37.04.74.08 1.11.13l1.11.12 1.11.12 1.11.12 1.11.12c.37.04.74.08 1.11.11.37.04.74.08 1.11.11.37.04.74.07 1.11.11.37.04.74.07 1.11.11.37.04.74.07 1.11.11.37.04.74.07 1.11.1.37.03.74.07 1.11.1.37.03.74.07 1.11.1.37.03.74.07 1.11.1.37.03.74.07 1.11.1.37.03.74.06 1.11.1l1.11.09 1.11.09 1.11.09 1.11.09 1.11.09 1.11.09c.37.03.74.06 1.11.08.37.03.74.06 1.11.08.37.03.74.05 1.11.08.37.03.74.05 1.11.08.37.03.74.05 1.11.08.37.03.74.05 1.11.08.37.03.74.05 1.11.08s.74.05 1.11.07c.37.02.74.05 1.11.07.37.02.74.05 1.11.07.37.02.74.05 1.11.07.37.02.74.05 1.11.07.37.02.74.05 1.11.07.37.02.74.04 1.11.07l1.11.06 1.11.06 1.11.06 1.11.06 1.11.06 1.11.06 1.11.06 1.11.06 1.11.06 1.11.06c.37.02.74.04 1.11.05.37.02.74.04 1.11.05.37.02.74.04 1.11.05.37.02.74.03 1.11.05.37.02.74.03 1.11.05.37.02.74.03 1.11.05s.74.03 1.11.05c.37.02.74.03 1.11.05.37.02.74.03 1.11.05.37.02.74.03 1.11.05.37.02.74.03 1.11.05.37.01.74.03 1.11.04.37.01.74.03 1.11.04.37.01.74.03 1.11.04.37.01.74.03 1.11.04.37.01.74.03 1.11.04.37.01.74.03 1.11.04.37.01.74.03 1.11.04s.74.03 1.11.04c.37.01.74.03 1.11.04.37.01.74.03 1.11.04"/><path style="fill:none;stroke:#3c54a4;stroke-width:.5;stroke-linecap:round;stroke-linejoin:round;stroke-miterlimit:10" d="M56.02 10.4c.2.4.4.79.6 1.18.37.73.74 1.45 1.11 2.16.37.71.74 1.42 1.11 2.12.37.7.74 1.39 1.11 2.08.37.69.74 1.37 1.11 2.04.37.68.74 1.34 1.11 2.01a347.19 347.19 0 002.22 3.91 319.966 319.966 0 002.22 3.77c.37.62.74 1.23 1.11 1.83.37.61.74 1.21 1.11 1.8l1.11 1.77 1.11 1.74a251.322 251.322 0 003.33 5.01 224.577 224.577 0 002.22 3.19l1.11 1.56 1.11 1.53 1.11 1.5c.37.5.74.99 1.11 1.47a182.86 182.86 0 004.44 5.63c.37.45.74.9 1.11 1.34l1.11 1.32c.37.44.74.87 1.11 1.3.37.43.74.85 1.11 1.27.37.42.74.84 1.11 1.25l1.11 1.23c.37.41.74.81 1.11 1.2.37.4.74.79 1.11 1.18.37.39.74.78 1.11 1.16l1.11 1.14c.37.38.74.75 1.11 1.12.37.37.74.74 1.11 1.1l1.11 1.08c.37.36.74.71 1.11 1.06.37.35.74.7 1.11 1.04l1.11 1.02c.37.34.74.67 1.11 1l1.11.99c.37.33.74.65 1.11.97.37.32.74.64 1.11.95.37.31.74.63 1.11.93.37.31.74.61 1.11.92l1.11.9c.37.3.74.59 1.11.88l1.11.87c.37.29.74.57 1.11.85l1.11.84c.37.28.74.55 1.11.82l1.11.81c.37.27.74.53 1.11.79l1.11.78c.37.26.74.51 1.11.76l1.11.75c.37.25.74.49 1.11.74l1.11.72c.37.24.74.48 1.11.71.37.23.74.47 1.11.7.37.23.74.46 1.11.68.37.23.74.45 1.11.67l1.11.66c.37.22.74.43 1.11.65.37.21.74.43 1.11.64l1.11.63c.37.21.74.41 1.11.61l1.11.6c.37.2.74.4 1.11.59.37.2.74.39 1.11.58l1.11.57c.37.19.74.38 1.11.56.37.19.74.37 1.11.55l1.11.54c.37.18.74.36 1.11.53.37.18.74.35 1.11.52l1.11.51c.37.17.74.34 1.11.5.37.17.74.33 1.11.49l1.11.48 1.11.48c.37.16.74.31 1.11.47.37.15.74.31 1.11.46l1.11.45c.37.15.74.3 1.11.44.37.15.74.29 1.11.43.37.14.74.29 1.11.43l1.11.42c.37.14.74.28 1.11.41.37.14.74.27 1.11.4.37.13.74.27 1.11.4l1.11.39c.37.13.74.26 1.11.38.37.13.74.25 1.11.38.37.12.74.25 1.11.37l1.11.36 1.11.36c.37.12.74.23 1.11.35.37.12.74.23 1.11.34.37.11.74.23 1.11.34l1.11.33c.37.11.74.22 1.11.32.37.11.74.21 1.11.32.37.11.74.21 1.11.31.37.1.74.21 1.11.31l1.11.3 1.11.3c.37.1.74.19 1.11.29.37.1.74.19 1.11.29.37.09.74.19 1.11.28.37.09.74.18 1.11.28l1.11.27 1.11.27c.37.09.74.17 1.11.26.37.09.74.17 1.11.26.37.08.74.17 1.11.25.37.08.74.17 1.11.25l1.11.24 1.11.24c.37.08.74.16 1.11.23.37.08.74.15 1.11.23.37.08.74.15 1.11.23.37.07.74.15 1.11.22.37.07.74.15 1.11.22l1.11.21 1.11.21 1.11.21c.37.07.74.14 1.11.2.37.07.74.13 1.11.2.37.07.74.13 1.11.19.37.06.74.13 1.11.19.37.06.74.13 1.11.19l1.11.18 1.11.18 1.11.18c.37.06.74.12 1.11.17.37.06.74.11 1.11.17.37.06.74.11 1.11.17.37.06.74.11 1.11.17.37.05.74.11 1.11.16.37.05.74.11 1.11.16.37.05.74.1 1.11.16l1.11.15 1.11.15 1.11.15 1.11.15c.37.05.74.1 1.11.14.37.05.74.09 1.11.14.37.05.74.09 1.11.14.37.05.74.09 1.11.14.37.04.74.09 1.11.13.37.04.74.09 1.11.13.37.04.74.09 1.11.13.37.04.74.08 1.11.13l1.11.12 1.11.12 1.11.12 1.11.12c.37.04.74.08 1.11.11.37.04.74.08 1.11.11.37.04.74.07 1.11.11.37.04.74.07 1.11.11.37.04.74.07 1.11.11.37.04.74.07 1.11.1.37.03.74.07 1.11.1.37.03.74.07 1.11.1.37.03.74.07 1.11.1.37.03.74.07 1.11.1.37.03.74.06 1.11.1l1.11.09 1.11.09 1.11.09 1.11.09 1.11.09 1.11.09c.37.03.74.06 1.11.08.37.03.74.06 1.11.08.37.03.74.05 1.11.08.37.03.74.05 1.11.08.37.03.74.05 1.11.08.37.03.74.05 1.11.08.37.03.74.05 1.11.08.37.02.74.05 1.11.07.37.02.74.05 1.11.07.37.02.74.05 1.11.07.37.02.74.05 1.11.07.37.02.74.05 1.11.07.37.02.74.05 1.11.07.37.02.74.04 1.11.07.37.02.74.04 1.11.07l1.11.06 1.11.06 1.11.06 1.11.06 1.11.06 1.11.06 1.11.06 1.11.06 1.11.06c.37.02.74.04 1.11.05.37.02.74.04 1.11.05.37.02.74.04 1.11.05.37.02.74.03 1.11.05.37.02.74.03 1.11.05.37.02.74.03 1.11.05.37.02.74.03 1.11.05.37.02.74.03 1.11.05.37.02.74.03 1.11.05.37.02.74.03 1.11.05.37.02.74.03 1.11.05.37.01.74.03 1.11.04.37.01.74.03 1.11.04.37.01.74.03 1.11.04.37.01.74.03 1.11.04.37.01.74.03 1.11.04.37.01.74.03 1.11.04.37.01.74.03 1.11.04.37.01.74.03 1.11.04.37.01.74.03 1.11.04.37.01.74.03 1.11.04"/><path style="fill:none;stroke:#5b73b8;stroke-width:.5;stroke-linecap:round;stroke-linejoin:round;stroke-miterlimit:10" d="M70.38 10.4c.23.36.46.71.69 1.07.37.57.74 1.13 1.11 1.69a239.132 239.132 0 003.33 4.89 213.466 213.466 0 002.22 3.11c.37.51.74 1.02 1.11 1.52a192.618 192.618 0 002.22 2.95l1.11 1.44 1.11 1.41c.37.47.74.93 1.11 1.38.37.46.74.91 1.11 1.36.37.45.74.89 1.11 1.33.37.44.74.88 1.11 1.31l1.11 1.29c.37.42.74.85 1.11 1.26.37.42.74.83 1.11 1.24.37.41.74.82 1.11 1.22l1.11 1.2c.37.4.74.79 1.11 1.17.37.39.74.77 1.11 1.15.37.38.74.76 1.11 1.13l1.11 1.11c.37.37.74.73 1.11 1.09.37.36.74.72 1.11 1.07l1.11 1.05c.37.35.74.69 1.11 1.03l1.11 1.02c.37.34.74.67 1.11 1 .37.33.74.66 1.11.98l1.11.96c.37.32.74.63 1.11.94l1.11.93c.37.31.74.61 1.11.91.37.3.74.6 1.11.89.37.3.74.59 1.11.88.37.29.74.58 1.11.86.37.28.74.57 1.11.85.37.28.74.56 1.11.83.37.27.74.55 1.11.82.37.27.74.54 1.11.8.37.26.74.53 1.11.79.37.26.74.52 1.11.77.37.26.74.51 1.11.76.37.25.74.5 1.11.74.37.25.74.49 1.11.73l1.11.72c.37.24.74.47 1.11.7l1.11.69c.37.23.74.46 1.11.68.37.22.74.45 1.11.67l1.11.66c.37.22.74.43 1.11.64l1.11.63c.37.21.74.42 1.11.62.37.2.74.41 1.11.61l1.11.6c.37.2.74.39 1.11.59.37.19.74.39 1.11.58l1.11.57c.37.19.74.37 1.11.56.37.18.74.37 1.11.55l1.11.54c.37.18.74.35 1.11.53.37.17.74.35 1.11.52l1.11.51c.37.17.74.33 1.11.5.37.16.74.33 1.11.49l1.11.48c.37.16.74.32 1.11.47.37.16.74.31 1.11.46.37.15.74.3 1.11.46l1.11.45c.37.15.74.29 1.11.44.37.14.74.29 1.11.43l1.11.42 1.11.42c.37.14.74.27 1.11.41.37.13.74.27 1.11.4l1.11.39 1.11.39c.37.13.74.25 1.11.38.37.13.74.25 1.11.37.37.12.74.24 1.11.37l1.11.36c.37.12.74.24 1.11.35.37.12.74.23 1.11.35.37.11.74.23 1.11.34l1.11.33 1.11.33c.37.11.74.22 1.11.32.37.11.74.21 1.11.32.37.1.74.21 1.11.31l1.11.3 1.11.3c.37.1.74.2 1.11.29.37.1.74.19 1.11.29.37.1.74.19 1.11.28.37.09.74.19 1.11.28l1.11.27 1.11.27c.37.09.74.18 1.11.26.37.09.74.17 1.11.26.37.09.74.17 1.11.25.37.08.74.17 1.11.25l1.11.24 1.11.24 1.11.24c.37.08.74.16 1.11.23.37.08.74.15 1.11.23.37.08.74.15 1.11.22.37.07.74.15 1.11.22.37.07.74.14 1.11.22l1.11.21 1.11.21c.37.07.74.14 1.11.2.37.07.74.13 1.11.2.37.07.74.13 1.11.2.37.06.74.13 1.11.19.37.06.74.13 1.11.19.37.06.74.12 1.11.19l1.11.18 1.11.18 1.11.18c.37.06.74.12 1.11.17.37.06.74.11 1.11.17.37.06.74.11 1.11.17.37.06.74.11 1.11.16.37.05.74.11 1.11.16.37.05.74.11 1.11.16.37.05.74.1 1.11.16l1.11.15 1.11.15 1.11.15c.37.05.74.1 1.11.14.37.05.74.09 1.11.14.37.05.74.09 1.11.14.37.05.74.09 1.11.14.37.05.74.09 1.11.13.37.04.74.09 1.11.13.37.04.74.09 1.11.13.37.04.74.09 1.11.13l1.11.12 1.11.12 1.11.12 1.11.12 1.11.12c.37.04.74.08 1.11.11.37.04.74.07 1.11.11.37.04.74.07 1.11.11.37.04.74.07 1.11.11.37.04.74.07 1.11.11.37.03.74.07 1.11.1.37.03.74.07 1.11.1.37.03.74.07 1.11.1.37.03.74.07 1.11.1.37.03.74.06 1.11.1l1.11.09 1.11.09 1.11.09 1.11.09 1.11.09 1.11.09 1.11.09c.37.03.74.06 1.11.08.37.03.74.05 1.11.08s.74.05 1.11.08c.37.03.74.05 1.11.08.37.03.74.05 1.11.08.37.03.74.05 1.11.08.37.03.74.05 1.11.07.37.02.74.05 1.11.07.37.02.74.05 1.11.07.37.02.74.05 1.11.07.37.02.74.05 1.11.07.37.02.74.05 1.11.07.37.02.74.04 1.11.07.37.02.74.04 1.11.07l1.11.06 1.11.06 1.11.06 1.11.06 1.11.06 1.11.06 1.11.06 1.11.06 1.11.06c.37.02.74.04 1.11.05.37.02.74.04 1.11.05.37.02.74.04 1.11.05.37.02.74.03 1.11.05.37.02.74.03 1.11.05.37.02.74.03 1.11.05.37.02.74.03 1.11.05.37.02.74.03 1.11.05.37.02.74.03 1.11.05.37.02.74.03 1.11.05.37.02.74.03 1.11.05.37.02.74.03 1.11.04.37.01.74.03 1.11.04.37.01.74.03 1.11.04.37.01.74.03 1.11.04.37.01.74.03 1.11.04.37.01.74.03 1.11.04.37.01.74.03 1.11.04.37.01.74.03 1.11.04.37.01.74.03 1.11.04.37.01.74.03 1.11.04.37.01.74.02 1.11.04"/><line style="fill:none;stroke:#3b54a4;stroke-width:.5;stroke-miterlimit:8" x1="117.27" y1="97.57" x2="202.17" y2="121.88"/><line style="fill:none;stroke:#3b54a4;stroke-width:.5;stroke-miterlimit:8" x1="119.94" y1="72.31" x2="206.89" y2="97.87"/><line style="fill:none;stroke:#3b54a4;stroke-width:.5;stroke-miterlimit:8" x1="115.93" y1="121.93" x2="202.87" y2="147.49"/></svg>