<svg xmlns="http://www.w3.org/2000/svg" viewBox="0 0 810 512"><rect width="100%" height="100%" style="stroke:none;fill:#fff;stroke-linecap:round;stroke-linejoin:round;stroke-miterlimit:10"/><rect x="0" y="0" width="810" height="512" style="stroke-width:1.07;stroke:#fff;fill:#fff;stroke-linecap:round;stroke-linejoin:round;stroke-miterlimit:10"/><rect x="97.35" y="42.52" width="614.55" height="388.58" style="stroke-width:1.07;stroke:none;fill:#fff;stroke-linecap:round;stroke-linejoin:round;stroke-miterlimit:10"/><polyline points="97.35 408.24 711.9 408.24" style="stroke-width:1.07;stroke:#c6c4c4;stroke-linecap:butt;fill:none;stroke-linejoin:round;stroke-miterlimit:10"/><polyline points="97.35 362.53 711.9 362.53" style="stroke-width:1.07;stroke:#c6c4c4;stroke-linecap:butt;fill:none;stroke-linejoin:round;stroke-miterlimit:10"/><polyline points="97.35 316.81 711.9 316.81" style="stroke-width:1.07;stroke:#c6c4c4;stroke-linecap:butt;fill:none;stroke-linejoin:round;stroke-miterlimit:10"/><polyline points="97.35 271.1 711.9 271.1" style="stroke-width:1.07;stroke:#c6c4c4;stroke-linecap:butt;fill:none;stroke-linejoin:round;stroke-miterlimit:10"/><polyline points="97.35 225.38 711.9 225.38" style="stroke-width:1.07;stroke:#c6c4c4;stroke-linecap:butt;fill:none;stroke-linejoin:round;stroke-miterlimit:10"/><polyline points="97.35 179.67 711.9 179.67" style="stroke-width:1.07;stroke:#c6c4c4;stroke-linecap:butt;fill:none;stroke-linejoin:round;stroke-miterlimit:10"/><polyline points="97.35 133.95 711.9 133.95" style="stroke-width:1.07;stroke:#c6c4c4;stroke-linecap:butt;fill:none;stroke-linejoin:round;stroke-miterlimit:10"/><polyline points="97.35 88.24 711.9 88.24" style="stroke-width:1.07;stroke:#c6c4c4;stroke-linecap:butt;fill:none;stroke-linejoin:round;stroke-miterlimit:10"/><polyline points="97.35 42.52 711.9 42.52" style="stroke-width:1.07;stroke:#c6c4c4;stroke-linecap:butt;fill:none;stroke-linejoin:round;stroke-miterlimit:10"/><polyline points="97.35 394.83 108.73 394.41 120.11 393.55 131.49 392.7 142.87 391.42 154.25 389.93 165.63 388.22 177.01 386.73 188.39 385.02 199.77 383.53 211.16 382.25 222.54 381.18 233.92 380.33 245.3 379.9 256.68 379.47 268.06 379.26 279.44 379.05 290.82 378.83 302.2 378.62 313.58 378.19 324.96 377.34 336.34 376.27 347.72 374.99 359.1 373.07 370.48 370.94 381.86 368.38 393.24 365.39 404.62 362.19 416 359.21 427.38 356.01 438.76 352.81 450.14 349.61 461.53 345.98 472.91 342.57 484.29 338.94 495.67 335.31 507.05 331.9 518.43 328.7 529.81 325.93 541.19 323.37 552.57 320.17 563.95 315.69 575.33 309.71 586.71 302.03 598.09 293.07 609.47 283.04 620.85 263.25 632.23 247.54 643.61 229.82 654.99 216.06 666.37 197.45 677.75 175.52 689.13 154.08 700.52 130.66 709.62 107.55" style="stroke-width:1.2;stroke:#3a53a4;stroke-linecap:butt;fill:none;stroke-linejoin:round;stroke-miterlimit:10"/><polyline points="97.35 353.31 108.73 366.44 120.11 361.37 131.49 374.25 142.87 375.96 154.25 373.08 165.63 358.99 177.01 350.76 188.39 343.79 199.77 347.03 211.16 365.06 222.54 361.46 233.92 395.73 245.3 402.73 256.68 375.33 268.06 351.32 279.44 347.19 290.82 388.33 302.2 408.97 313.58 404.7 324.96 347.9 336.34 314.53 347.72 354.07 359.1 330.07 370.48 317.5 381.86 387.21 393.24 326.41 404.62 354.99 416 354.07 427.38 355.21 438.76 293.04 450.14 347.9 461.53 366.41 472.91 299.67 484.29 334.64 495.67 297.84 507.05 273.61 518.43 293.27 529.81 269.27 541.19 265.61 552.57 309.96 563.95 291.21 575.33 267.67 586.71 301.73 598.09 283.9 609.47 299.21 620.85 255.55 632.23 301.04 643.61 176.92 654.99 163.67 666.37 178.75 677.75 105.61 689.13 101.95 700.52 34.98 709.62 48.92" style="stroke-width:1.2;stroke:#ed1f24;stroke-linecap:butt;fill:none;stroke-linejoin:round;stroke-miterlimit:10"/><text x="532.9" y="343.72" style="font-size:14px;fill:#3a53a4;font-family:Asap" textLength="18.9" lengthAdjust="spacingAndGlyphs">CO</text><text x="551.8" y="347.65" style="font-size:11.2px;fill:#3a53a4;font-family:Asap" textLength="5.99" lengthAdjust="spacingAndGlyphs">2</text><text x="561.15" y="343.72" style="font-size:14px;fill:#3a53a4;font-family:Asap" textLength="31.35" lengthAdjust="spacingAndGlyphs">parts</text><text x="595.86" y="343.72" style="font-size:14px;fill:#3a53a4;font-family:Asap" textLength="20.69" lengthAdjust="spacingAndGlyphs">per</text><text x="619.91" y="343.72" style="font-size:14px;fill:#3a53a4;font-family:Asap" textLength="43.37" lengthAdjust="spacingAndGlyphs">million</text><text x="487.09" y="106.15" style="font-size:14px;fill:#ed1f24;font-family:Asap" textLength="59.67" lengthAdjust="spacingAndGlyphs">Deviation</text><text x="550.12" y="106.15" style="font-size:14px;fill:#ed1f24;font-family:Asap" textLength="29.51" lengthAdjust="spacingAndGlyphs">from</text><text x="582.99" y="106.15" style="font-size:14px;fill:#ed1f24;font-family:Asap" textLength="66.92" lengthAdjust="spacingAndGlyphs">1961–1990</text><text x="472.92" y="122.89" style="font-size:14px;fill:#ed1f24;font-family:Asap" textLength="49.91" lengthAdjust="spacingAndGlyphs">average</text><text x="526.19" y="122.89" style="font-size:14px;fill:#ed1f24;font-family:Asap" textLength="77.78" lengthAdjust="spacingAndGlyphs">temperature</text><text x="607.34" y="122.89" style="font-size:14px;fill:#ed1f24;font-family:Asap" textLength="25.26" lengthAdjust="spacingAndGlyphs">(left</text><text x="635.95" y="122.89" style="font-size:14px;fill:#ed1f24;font-family:Asap" textLength="28.13" lengthAdjust="spacingAndGlyphs">axis)</text><polyline points="97.35 431.1 97.35 42.52" style="stroke-width:1.07;stroke:#464646;stroke-linecap:butt;fill:none;stroke-linejoin:round;stroke-miterlimit:10"/><text x="47.4" y="412.65" style="font-size:18px;font-family:Asap" textLength="32.9" lengthAdjust="spacingAndGlyphs">−0.6</text><text x="47.4" y="366.94" style="font-size:18px;font-family:Asap" textLength="32.9" lengthAdjust="spacingAndGlyphs">−0.4</text><text x="47.4" y="321.22" style="font-size:18px;font-family:Asap" textLength="32.9" lengthAdjust="spacingAndGlyphs">−0.2</text><text x="70.67" y="275.51" style="font-size:18px;font-family:Asap" textLength="9.63" lengthAdjust="spacingAndGlyphs">0</text><text x="57.48" y="229.79" style="font-size:18px;font-family:Asap" textLength="22.82" lengthAdjust="spacingAndGlyphs">0.2</text><text x="57.48" y="184.08" style="font-size:18px;font-family:Asap" textLength="22.82" lengthAdjust="spacingAndGlyphs">0.4</text><text x="57.48" y="138.36" style="font-size:18px;font-family:Asap" textLength="22.82" lengthAdjust="spacingAndGlyphs">0.6</text><text x="57.48" y="92.65" style="font-size:18px;font-family:Asap" textLength="22.82" lengthAdjust="spacingAndGlyphs">0.8</text><text x="57.48" y="46.93" style="font-size:18px;font-family:Asap" textLength="22.82" lengthAdjust="spacingAndGlyphs">1.0</text><polyline points="90.26 408.24 97.35 408.24" style="stroke-width:1.07;stroke:#464646;stroke-linecap:butt;fill:none;stroke-linejoin:round;stroke-miterlimit:10"/><polyline points="90.26 362.53 97.35 362.53" style="stroke-width:1.07;stroke:#464646;stroke-linecap:butt;fill:none;stroke-linejoin:round;stroke-miterlimit:10"/><polyline points="90.26 316.81 97.35 316.81" style="stroke-width:1.07;stroke:#464646;stroke-linecap:butt;fill:none;stroke-linejoin:round;stroke-miterlimit:10"/><polyline points="90.26 271.1 97.35 271.1" style="stroke-width:1.07;stroke:#464646;stroke-linecap:butt;fill:none;stroke-linejoin:round;stroke-miterlimit:10"/><polyline points="90.26 225.38 97.35 225.38" style="stroke-width:1.07;stroke:#464646;stroke-linecap:butt;fill:none;stroke-linejoin:round;stroke-miterlimit:10"/><polyline points="90.26 179.67 97.35 179.67" style="stroke-width:1.07;stroke:#464646;stroke-linecap:butt;fill:none;stroke-linejoin:round;stroke-miterlimit:10"/><polyline points="90.26 133.95 97.35 133.95" style="stroke-width:1.07;stroke:#464646;stroke-linecap:butt;fill:none;stroke-linejoin:round;stroke-miterlimit:10"/><polyline points="90.26 88.24 97.35 88.24" style="stroke-width:1.07;stroke:#464646;stroke-linecap:butt;fill:none;stroke-linejoin:round;stroke-miterlimit:10"/><polyline points="90.26 42.52 97.35 42.52" style="stroke-width:1.07;stroke:#464646;stroke-linecap:butt;fill:none;stroke-linejoin:round;stroke-miterlimit:10"/><polyline points="711.9 431.1 711.9 42.52" style="stroke-width:1.07;stroke:#464646;stroke-linecap:butt;fill:none;stroke-linejoin:round;stroke-miterlimit:10"/><polyline points="711.9 431.1 718.98 431.1" style="stroke-width:1.07;stroke:#464646;stroke-linecap:butt;fill:none;stroke-linejoin:round;stroke-miterlimit:10"/><polyline points="711.9 388.31 718.98 388.31" style="stroke-width:1.07;stroke:#464646;stroke-linecap:butt;fill:none;stroke-linejoin:round;stroke-miterlimit:10"/><polyline points="711.9 345.92 718.98 345.92" style="stroke-width:1.07;stroke:#464646;stroke-linecap:butt;fill:none;stroke-linejoin:round;stroke-miterlimit:10"/><polyline points="711.9 303.13 718.98 303.13" style="stroke-width:1.07;stroke:#464646;stroke-linecap:butt;fill:none;stroke-linejoin:round;stroke-miterlimit:10"/><polyline points="711.9 260.34 718.98 260.34" style="stroke-width:1.07;stroke:#464646;stroke-linecap:butt;fill:none;stroke-linejoin:round;stroke-miterlimit:10"/><polyline points="711.9 217.95 718.98 217.95" style="stroke-width:1.07;stroke:#464646;stroke-linecap:butt;fill:none;stroke-linejoin:round;stroke-miterlimit:10"/><polyline points="711.9 175.16 718.98 175.16" style="stroke-width:1.07;stroke:#464646;stroke-linecap:butt;fill:none;stroke-linejoin:round;stroke-miterlimit:10"/><polyline points="711.9 132.37 718.98 132.37" style="stroke-width:1.07;stroke:#464646;stroke-linecap:butt;fill:none;stroke-linejoin:round;stroke-miterlimit:10"/><polyline points="711.9 89.59 718.98 89.59" style="stroke-width:1.07;stroke:#464646;stroke-linecap:butt;fill:none;stroke-linejoin:round;stroke-miterlimit:10"/><polyline points="711.9 47.19 718.98 47.19" style="stroke-width:1.07;stroke:#464646;stroke-linecap:butt;fill:none;stroke-linejoin:round;stroke-miterlimit:10"/><text x="728.94" y="437.42" style="font-size:18px;font-family:Asap" textLength="28.89" lengthAdjust="spacingAndGlyphs">260</text><text x="728.94" y="394.63" style="font-size:18px;font-family:Asap" textLength="28.89" lengthAdjust="spacingAndGlyphs">280</text><text x="728.94" y="352.23" style="font-size:18px;font-family:Asap" textLength="28.89" lengthAdjust="spacingAndGlyphs">300</text><text x="728.94" y="309.45" style="font-size:18px;font-family:Asap" textLength="28.89" lengthAdjust="spacingAndGlyphs">320</text><text x="728.94" y="266.66" style="font-size:18px;font-family:Asap" textLength="28.89" lengthAdjust="spacingAndGlyphs">340</text><text x="728.94" y="224.26" style="font-size:18px;font-family:Asap" textLength="28.89" lengthAdjust="spacingAndGlyphs">360</text><text x="728.94" y="181.48" style="font-size:18px;font-family:Asap" textLength="28.89" lengthAdjust="spacingAndGlyphs">380</text><text x="728.94" y="138.69" style="font-size:18px;font-family:Asap" textLength="28.89" lengthAdjust="spacingAndGlyphs">400</text><text x="728.94" y="95.9" style="font-size:18px;font-family:Asap" textLength="28.89" lengthAdjust="spacingAndGlyphs">420</text><text x="728.94" y="53.51" style="font-size:18px;font-family:Asap" textLength="28.89" lengthAdjust="spacingAndGlyphs">440</text><polyline points="97.35 431.1 711.9 431.1" style="stroke-width:1.07;stroke:#464646;stroke-linecap:butt;fill:none;stroke-linejoin:round;stroke-miterlimit:10"/><polyline points="97.35 438.19 97.35 431.1" style="stroke-width:1.07;stroke:#464646;stroke-linecap:butt;fill:none;stroke-linejoin:round;stroke-miterlimit:10"/><polyline points="154.25 438.19 154.25 431.1" style="stroke-width:1.07;stroke:#464646;stroke-linecap:butt;fill:none;stroke-linejoin:round;stroke-miterlimit:10"/><polyline points="211.16 438.19 211.16 431.1" style="stroke-width:1.07;stroke:#464646;stroke-linecap:butt;fill:none;stroke-linejoin:round;stroke-miterlimit:10"/><polyline points="268.06 438.19 268.06 431.1" style="stroke-width:1.07;stroke:#464646;stroke-linecap:butt;fill:none;stroke-linejoin:round;stroke-miterlimit:10"/><polyline points="324.96 438.19 324.96 431.1" style="stroke-width:1.07;stroke:#464646;stroke-linecap:butt;fill:none;stroke-linejoin:round;stroke-miterlimit:10"/><polyline points="381.86 438.19 381.86 431.1" style="stroke-width:1.07;stroke:#464646;stroke-linecap:butt;fill:none;stroke-linejoin:round;stroke-miterlimit:10"/><polyline points="438.76 438.19 438.76 431.1" style="stroke-width:1.07;stroke:#464646;stroke-linecap:butt;fill:none;stroke-linejoin:round;stroke-miterlimit:10"/><polyline points="495.67 438.19 495.67 431.1" style="stroke-width:1.07;stroke:#464646;stroke-linecap:butt;fill:none;stroke-linejoin:round;stroke-miterlimit:10"/><polyline points="552.57 438.19 552.57 431.1" style="stroke-width:1.07;stroke:#464646;stroke-linecap:butt;fill:none;stroke-linejoin:round;stroke-miterlimit:10"/><polyline points="609.47 438.19 609.47 431.1" style="stroke-width:1.07;stroke:#464646;stroke-linecap:butt;fill:none;stroke-linejoin:round;stroke-miterlimit:10"/><polyline points="666.37 438.19 666.37 431.1" style="stroke-width:1.07;stroke:#464646;stroke-linecap:butt;fill:none;stroke-linejoin:round;stroke-miterlimit:10"/><polyline points="711.9 438.19 711.9 431.1" style="stroke-width:1.07;stroke:#464646;stroke-linecap:butt;fill:none;stroke-linejoin:round;stroke-miterlimit:10"/><text x="78.09" y="460.79" style="font-size:18px;font-family:Asap" textLength="38.52" lengthAdjust="spacingAndGlyphs">1750</text><text x="134.99" y="460.79" style="font-size:18px;font-family:Asap" textLength="38.52" lengthAdjust="spacingAndGlyphs">1775</text><text x="191.9" y="460.79" style="font-size:18px;font-family:Asap" textLength="38.52" lengthAdjust="spacingAndGlyphs">1800</text><text x="248.8" y="460.79" style="font-size:18px;font-family:Asap" textLength="38.52" lengthAdjust="spacingAndGlyphs">1825</text><text x="305.7" y="460.79" style="font-size:18px;font-family:Asap" textLength="38.52" lengthAdjust="spacingAndGlyphs">1850</text><text x="362.6" y="460.79" style="font-size:18px;font-family:Asap" textLength="38.52" lengthAdjust="spacingAndGlyphs">1875</text><text x="419.5" y="460.79" style="font-size:18px;font-family:Asap" textLength="38.52" lengthAdjust="spacingAndGlyphs">1900</text><text x="476.41" y="460.79" style="font-size:18px;font-family:Asap" textLength="38.52" lengthAdjust="spacingAndGlyphs">1925</text><text x="533.31" y="460.79" style="font-size:18px;font-family:Asap" textLength="38.52" lengthAdjust="spacingAndGlyphs">1950</text><text x="590.21" y="460.79" style="font-size:18px;font-family:Asap" textLength="38.52" lengthAdjust="spacingAndGlyphs">1975</text><text x="647.11" y="460.79" style="font-size:18px;font-family:Asap" textLength="38.52" lengthAdjust="spacingAndGlyphs">2000</text><text x="384.53" y="493.59" style="font-size:20px;font-family:Asap Medium" textLength="40.18" lengthAdjust="spacingAndGlyphs">Year</text><text transform="rotate(-90 249.07 220.86)" style="font-size:20px;fill:#ed1f24;font-family:Asap Medium" textLength="119.22" lengthAdjust="spacingAndGlyphs">Temperature,</text><text transform="rotate(-90 187.06 158.85)" style="font-size:20px;fill:#ed1f24;font-family:Asap Medium" textLength="82.64" lengthAdjust="spacingAndGlyphs">deviation</text><text transform="rotate(-90 143.34 115.13)" style="font-size:20px;fill:#ed1f24;font-family:Asap Medium" textLength="42.16" lengthAdjust="spacingAndGlyphs">from</text><text transform="rotate(-90 119.86 91.65)" style="font-size:20px;fill:#ed1f24;font-family:Asap Medium" textLength="95.6" lengthAdjust="spacingAndGlyphs">1961–1990</text><text transform="rotate(-90 69.66 41.45)" style="font-size:20px;fill:#ed1f24;font-family:Asap Medium" textLength="71.3" lengthAdjust="spacingAndGlyphs">average</text><text transform="rotate(-90 31.61 3.4)" style="font-size:20px;fill:#ed1f24;font-family:Asap Medium" textLength="31.32" lengthAdjust="spacingAndGlyphs">(°C)</text><text transform="rotate(-90 590.48 -196.34)" style="font-size:20px;fill:#3a53a4;font-family:Asap Medium" textLength="111.56" lengthAdjust="spacingAndGlyphs">Atmospheric</text><text transform="rotate(-90 532.3 -254.52)" style="font-size:20px;fill:#3a53a4;font-family:Asap Medium" textLength="27" lengthAdjust="spacingAndGlyphs">CO</text><text transform="rotate(-90 521.605 -270.825)" style="font-size:16px;fill:#3a53a4;font-family:Asap Medium" textLength="8.56" lengthAdjust="spacingAndGlyphs">2</text><text transform="rotate(-90 512.12 -274.7)" style="font-size:20px;fill:#3a53a4;font-family:Asap Medium" textLength="50.8" lengthAdjust="spacingAndGlyphs">(parts</text><text transform="rotate(-90 484.32 -302.5)" style="font-size:20px;fill:#3a53a4;font-family:Asap Medium" textLength="29.56" lengthAdjust="spacingAndGlyphs">per</text><text transform="rotate(-90 467.14 -319.68)" style="font-size:20px;fill:#3a53a4;font-family:Asap Medium" textLength="67.98" lengthAdjust="spacingAndGlyphs">million)</text></svg>