<svg version="1.1" xmlns="http://www.w3.org/2000/svg" x="0" y="0" viewBox="0 0 311.81 190.22" style="enable-background:new 0 0 311.81 190.22" xml:space="preserve"><line style="fill:none;stroke:#6d6e71;stroke-width:.5;stroke-linecap:square" x1="50.72" y1="163.35" x2="288.72" y2="163.35"/><text transform="translate(41.38 165.62)" style="font-family:'Asap-Regular';font-size:7px">0</text><line style="fill:none;stroke:#6d6e71;stroke-width:.5;stroke-linecap:square;stroke-linejoin:round" x1="50.59" y1="4.6" x2="50.59" y2="163.35"/><text transform="translate(28.76 145.642)" style="font-family:'Asap-Regular';font-size:7px">1,000</text><text transform="translate(28.76 125.8)" style="font-family:'Asap-Regular';font-size:7px">2,000</text><text transform="translate(28.76 105.957)" style="font-family:'Asap-Regular';font-size:7px">3,000</text><text transform="translate(28.76 86.114)" style="font-family:'Asap-Regular';font-size:7px">4,000</text><text transform="translate(28.76 66.272)" style="font-family:'Asap-Regular';font-size:7px">5,000</text><text transform="translate(28.76 46.43)" style="font-family:'Asap-Regular';font-size:7px">6,000</text><text transform="matrix(0 -.9726 1 0 13.983 109.855)" style="font-family:'Asap-Medium';font-size:8px">Consumption ($)</text><text transform="translate(48.734 175.679)" style="font-family:'Asap-Regular';font-size:7px">0</text><text transform="translate(65.742 175.67)" style="font-family:'Asap-Regular';font-size:7px">5</text><text transform="translate(80.878 175.678)" style="font-family:'Asap-Regular';font-size:7px">10</text><text transform="translate(97.886 175.65)" style="font-family:'Asap-Regular';font-size:7px">15</text><text transform="translate(114.894 175.678)" style="font-family:'Asap-Regular';font-size:7px">20</text><text transform="translate(131.902 175.679)" style="font-family:'Asap-Regular';font-size:7px">25</text><text transform="translate(148.91 175.65)" style="font-family:'Asap-Regular';font-size:7px">30</text><text transform="translate(165.918 175.65)" style="font-family:'Asap-Regular';font-size:7px">35</text><text transform="translate(182.926 175.65)" style="font-family:'Asap-Regular';font-size:7px">40</text><text transform="translate(199.933 175.65)" style="font-family:'Asap-Regular';font-size:7px">45</text><text transform="translate(216.941 175.678)" style="font-family:'Asap-Regular';font-size:7px">50</text><text transform="translate(233.95 175.67)" style="font-family:'Asap-Regular';font-size:7px">55</text><text transform="translate(250.957 175.678)" style="font-family:'Asap-Regular';font-size:7px">60</text><text transform="translate(267.965 175.679)" style="font-family:'Asap-Regular';font-size:7px">65</text><text transform="translate(284.973 175.679)" style="font-family:'Asap-Regular';font-size:7px">70</text><text transform="translate(135.794 187.86)" style="font-family:'Asap-Medium';font-size:8px">Days of free time</text><text transform="translate(28.76 26.587)" style="font-family:'Asap-Regular';font-size:7px">7,000</text><line style="fill:none;stroke:#6d6e71;stroke-width:.5;stroke-linecap:square" x1="48.59" y1="163.35" x2="50.72" y2="163.35"/><line style="fill:none;stroke:#6d6e71;stroke-width:.5;stroke-linecap:square" x1="48.59" y1="143.37" x2="50.72" y2="143.37"/><line style="fill:none;stroke:#6d6e71;stroke-width:.5;stroke-linecap:square" x1="48.59" y1="123.53" x2="50.72" y2="123.53"/><line style="fill:none;stroke:#6d6e71;stroke-width:.5;stroke-linecap:square" x1="48.59" y1="103.69" x2="50.72" y2="103.69"/><line style="fill:none;stroke:#6d6e71;stroke-width:.5;stroke-linecap:square" x1="48.59" y1="83.84" x2="50.72" y2="83.84"/><line style="fill:none;stroke:#6d6e71;stroke-width:.5;stroke-linecap:square" x1="48.59" y1="64" x2="50.72" y2="64"/><line style="fill:none;stroke:#6d6e71;stroke-width:.5;stroke-linecap:square" x1="48.59" y1="44.16" x2="50.72" y2="44.16"/><line style="fill:none;stroke:#6d6e71;stroke-width:.5;stroke-linecap:square" x1="48.59" y1="24.32" x2="50.72" y2="24.32"/><line style="fill:none;stroke:#6d6e71;stroke-width:.5;stroke-linecap:square" x1="50.59" y1="163.35" x2="50.59" y2="165.48"/><line style="fill:none;stroke:#6d6e71;stroke-width:.5;stroke-linecap:square" x1="67.6" y1="163.35" x2="67.6" y2="165.48"/><line style="fill:none;stroke:#6d6e71;stroke-width:.5;stroke-linecap:square" x1="84.61" y1="163.35" x2="84.61" y2="165.48"/><line style="fill:none;stroke:#6d6e71;stroke-width:.5;stroke-linecap:square" x1="101.62" y1="163.35" x2="101.62" y2="165.48"/><line style="fill:none;stroke:#6d6e71;stroke-width:.5;stroke-linecap:square" x1="118.63" y1="163.35" x2="118.63" y2="165.48"/><line style="fill:none;stroke:#6d6e71;stroke-width:.5;stroke-linecap:square" x1="135.64" y1="163.35" x2="135.64" y2="165.48"/><line style="fill:none;stroke:#6d6e71;stroke-width:.5;stroke-linecap:square" x1="152.65" y1="163.35" x2="152.65" y2="165.48"/><line style="fill:none;stroke:#6d6e71;stroke-width:.5;stroke-linecap:square" x1="169.66" y1="163.35" x2="169.66" y2="165.48"/><line style="fill:none;stroke:#6d6e71;stroke-width:.5;stroke-linecap:square" x1="186.66" y1="163.35" x2="186.66" y2="165.48"/><line style="fill:none;stroke:#6d6e71;stroke-width:.5;stroke-linecap:square" x1="203.67" y1="163.35" x2="203.67" y2="165.48"/><line style="fill:none;stroke:#6d6e71;stroke-width:.5;stroke-linecap:square" x1="220.68" y1="163.35" x2="220.68" y2="165.48"/><line style="fill:none;stroke:#6d6e71;stroke-width:.5;stroke-linecap:square" x1="237.69" y1="163.35" x2="237.69" y2="165.48"/><line style="fill:none;stroke:#6d6e71;stroke-width:.5;stroke-linecap:square" x1="254.7" y1="163.35" x2="254.7" y2="165.48"/><line style="fill:none;stroke:#6d6e71;stroke-width:.5;stroke-linecap:square" x1="271.71" y1="163.35" x2="271.71" y2="165.48"/><line style="fill:none;stroke:#6d6e71;stroke-width:.5;stroke-linecap:square" x1="288.72" y1="163.35" x2="288.72" y2="165.48"/><line style="fill:none;stroke:#6d6e71;stroke-width:.5;stroke-linecap:square" x1="48.59" y1="4.47" x2="50.72" y2="4.47"/><text transform="translate(28.76 6.614)" style="font-family:'Asap-Regular';font-size:7px">8,000</text><line style="fill:none;stroke:#ea2728;stroke-width:.5;stroke-linejoin:round" x1="50.59" y1="37.36" x2="288.72" y2="162.89"/><line style="fill:none;stroke:#ea2728;stroke-width:.5;stroke-linejoin:round" x1="50.67" y1="17.66" x2="288.68" y2="142.89"/><text transform="translate(165.31 73.083)" style="font-family:'Asap-Regular';font-size:7px">B</text><text transform="translate(153.929 103.811)" style="font-family:'Asap-Regular';font-size:7px">A</text><polyline style="fill:none;stroke:#5b73b8;stroke-width:.5;stroke-linecap:round;stroke-linejoin:round;stroke-miterlimit:10" points="75.25 4.6 77.65 10.28 81 17.22 84.34 23.47 87.69 29.09 91.03 34.2 94.38 38.94 97.72 43.29 101.07 47.4 104.41 51.25 107.76 54.84 111.1 58.25 114.45 61.53 117.79 64.63 121.14 67.53 124.48 70.37 127.82 73.02 131.17 75.61 134.51 78.14 137.86 80.47 141.2 82.81 144.55 85.02 147.89 87.22 151.24 89.31 154.58 91.33 157.93 93.28 161.27 95.18 164.62 97.01 167.96 98.84 171.31 100.61 174.65 102.31 178 104.02 181.34 105.59 184.69 107.23 188.03 108.75 191.37 110.26 194.72 111.78 198.06 113.23 201.41 114.68 204.75 116.07 208.1 117.46 211.44 118.79 214.79 120.11 218.13 121.37 221.48 122.64 224.82 123.9 228.17 125.16 231.51 126.36 234.86 127.5 238.2 128.7 241.55 129.83 244.89 130.97 248.23 132.1 251.58 133.18 254.92 134.25 258.27 135.32 261.61 136.33 264.96 137.41 268.3 138.42 271.65 139.43 274.99 140.37 278.39 141.38 281.74 142.33 285.08 143.28 288.43 144.22"/><polyline style="fill:none;stroke:#a1b0da;stroke-width:.5;stroke-linecap:round;stroke-linejoin:round;stroke-miterlimit:10" points="84.63 4.34 87.97 9.96 91.32 15.07 94.66 19.81 98.01 24.23 101.35 28.33 104.7 32.12 108.04 35.78 111.39 39.19 114.73 42.41 118.07 45.5 121.42 48.47 124.76 51.24 128.11 53.96 131.45 56.55 134.8 59.01 138.14 61.41 141.49 63.68 144.83 65.95 148.18 68.1 151.52 70.18 154.87 72.2 158.21 74.16 161.56 76.05 164.9 77.94 168.25 79.71 171.59 81.48 174.93 83.18 178.28 84.89 181.62 86.53 184.97 88.11 188.31 89.68 191.66 91.2 195 92.65 198.35 94.17 201.69 95.55 205.04 96.94 208.38 98.33 211.73 99.66 215.07 100.98 218.42 102.31 221.76 103.57 225.11 104.83 228.45 106.03 231.8 107.23 235.14 108.43 238.48 109.57 241.83 110.7 245.17 111.84 248.52 112.98 251.86 114.05 255.21 115.12 258.55 116.2 261.9 117.27 265.24 118.28 268.59 119.29 271.93 120.3 275.28 121.31 278.68 122.26 282.02 123.2 285.37 124.15 288.71 125.1"/><circle style="fill:#000101" cx="161.09" cy="75.76" r="1.13"/><circle style="fill:#000101" cx="161.01" cy="95.39" r="1.13"/></svg>