<svg version="1.1" xmlns="http://www.w3.org/2000/svg" x="0" y="0" viewBox="0 0 311.81 191.68" style="enable-background:new 0 0 311.81 191.68" xml:space="preserve"><line style="fill:none;stroke:#ea2728;stroke-width:.5;stroke-linejoin:round" x1="51.72" y1="22.73" x2="289.72" y2="164.77"/><line style="fill:none;stroke:#6d6e71;stroke-width:.5;stroke-linecap:square" x1="51.72" y1="164.77" x2="289.72" y2="164.77"/><text transform="translate(43.382 167.04)" style="font-family:'Asap-Regular';font-size:7px">0</text><text transform="translate(30.76 144.321)" style="font-family:'Asap-Regular';font-size:7px">1,000</text><text transform="translate(30.76 121.602)" style="font-family:'Asap-Regular';font-size:7px">2,000</text><text transform="translate(30.76 98.883)" style="font-family:'Asap-Regular';font-size:7px">3,000</text><text transform="translate(30.76 76.164)" style="font-family:'Asap-Regular';font-size:7px">4,000</text><text transform="translate(30.761 53.445)" style="font-family:'Asap-Regular';font-size:7px">5,000</text><text transform="translate(30.761 30.726)" style="font-family:'Asap-Regular';font-size:7px">6,000</text><text transform="matrix(0 -.9726 1 0 14.48 113.447)" style="font-family:'Asap-Medium';font-size:8px">Consumption ($)</text><text transform="translate(49.734 177.099)" style="font-family:'Asap-Regular';font-size:7px">0</text><text transform="translate(66.742 177.091)" style="font-family:'Asap-Regular';font-size:7px">5</text><text transform="translate(81.878 177.098)" style="font-family:'Asap-Regular';font-size:7px">10</text><text transform="translate(98.886 177.07)" style="font-family:'Asap-Regular';font-size:7px">15</text><text transform="translate(115.894 177.098)" style="font-family:'Asap-Regular';font-size:7px">20</text><text transform="translate(132.902 177.099)" style="font-family:'Asap-Regular';font-size:7px">25</text><text transform="translate(149.91 177.07)" style="font-family:'Asap-Regular';font-size:7px">30</text><text transform="translate(166.918 177.07)" style="font-family:'Asap-Regular';font-size:7px">35</text><text transform="translate(183.926 177.07)" style="font-family:'Asap-Regular';font-size:7px">40</text><text transform="translate(200.933 177.07)" style="font-family:'Asap-Regular';font-size:7px">45</text><text transform="translate(217.941 177.098)" style="font-family:'Asap-Regular';font-size:7px">50</text><text transform="translate(234.95 177.09)" style="font-family:'Asap-Regular';font-size:7px">55</text><text transform="translate(251.957 177.098)" style="font-family:'Asap-Regular';font-size:7px">60</text><text transform="translate(268.965 177.099)" style="font-family:'Asap-Regular';font-size:7px">65</text><text transform="translate(285.973 177.099)" style="font-family:'Asap-Regular';font-size:7px">70</text><text transform="translate(148.225 189.28)" style="font-family:'Asap-Medium';font-size:8px">Days of free time</text><text transform="translate(30.76 8.007)" style="font-family:'Asap-Regular';font-size:7px">7,000</text><line style="fill:none;stroke:#6d6e71;stroke-width:.5;stroke-linecap:square" x1="49.59" y1="164.77" x2="51.72" y2="164.77"/><line style="fill:none;stroke:#6d6e71;stroke-width:.5;stroke-linecap:square" x1="49.59" y1="142.07" x2="51.72" y2="142.07"/><line style="fill:none;stroke:#6d6e71;stroke-width:.5;stroke-linecap:square" x1="49.59" y1="119.37" x2="51.72" y2="119.37"/><line style="fill:none;stroke:#6d6e71;stroke-width:.5;stroke-linecap:square" x1="49.59" y1="96.67" x2="51.72" y2="96.67"/><line style="fill:none;stroke:#6d6e71;stroke-width:.5;stroke-linecap:square" x1="49.59" y1="73.96" x2="51.72" y2="73.96"/><line style="fill:none;stroke:#6d6e71;stroke-width:.5;stroke-linecap:square" x1="49.59" y1="51.26" x2="51.72" y2="51.26"/><line style="fill:none;stroke:#6d6e71;stroke-width:.5;stroke-linecap:square" x1="49.59" y1="28.56" x2="51.72" y2="28.56"/><line style="fill:none;stroke:#6d6e71;stroke-width:.5;stroke-linecap:square" x1="49.59" y1="5.86" x2="51.72" y2="5.86"/><line style="fill:none;stroke:#6d6e71;stroke-width:.5;stroke-linecap:square" x1="51.72" y1="164.86" x2="51.72" y2="166.99"/><line style="fill:none;stroke:#6d6e71;stroke-width:.5;stroke-linecap:square" x1="68.62" y1="164.86" x2="68.62" y2="166.99"/><line style="fill:none;stroke:#6d6e71;stroke-width:.5;stroke-linecap:square" x1="85.62" y1="164.86" x2="85.62" y2="166.99"/><line style="fill:none;stroke:#6d6e71;stroke-width:.5;stroke-linecap:square" x1="102.63" y1="164.86" x2="102.63" y2="166.99"/><line style="fill:none;stroke:#6d6e71;stroke-width:.5;stroke-linecap:square" x1="119.64" y1="164.86" x2="119.64" y2="166.99"/><line style="fill:none;stroke:#6d6e71;stroke-width:.5;stroke-linecap:square" x1="136.65" y1="164.86" x2="136.65" y2="166.99"/><line style="fill:none;stroke:#6d6e71;stroke-width:.5;stroke-linecap:square" x1="153.65" y1="164.86" x2="153.65" y2="166.99"/><line style="fill:none;stroke:#6d6e71;stroke-width:.5;stroke-linecap:square" x1="170.66" y1="164.86" x2="170.66" y2="166.99"/><line style="fill:none;stroke:#6d6e71;stroke-width:.5;stroke-linecap:square" x1="187.67" y1="164.86" x2="187.67" y2="166.99"/><line style="fill:none;stroke:#6d6e71;stroke-width:.5;stroke-linecap:square" x1="204.68" y1="164.86" x2="204.68" y2="166.99"/><line style="fill:none;stroke:#6d6e71;stroke-width:.5;stroke-linecap:square" x1="221.69" y1="164.86" x2="221.69" y2="166.99"/><line style="fill:none;stroke:#6d6e71;stroke-width:.5;stroke-linecap:square" x1="238.69" y1="164.86" x2="238.69" y2="166.99"/><line style="fill:none;stroke:#6d6e71;stroke-width:.5;stroke-linecap:square" x1="255.7" y1="164.86" x2="255.7" y2="166.99"/><line style="fill:none;stroke:#6d6e71;stroke-width:.5;stroke-linecap:square" x1="272.71" y1="164.86" x2="272.71" y2="166.99"/><line style="fill:none;stroke:#6d6e71;stroke-width:.5;stroke-linecap:square" x1="289.72" y1="164.86" x2="289.72" y2="166.99"/><line style="fill:none;stroke:#6d6e71;stroke-width:.5;stroke-linecap:square;stroke-linejoin:round" x1="51.72" y1="6.02" x2="51.72" y2="164.77"/></svg>