<svg version="1.1" xmlns="http://www.w3.org/2000/svg" x="0" y="0" viewBox="0 0 311.81 105.22" style="enable-background:new 0 0 311.81 105.22" xml:space="preserve"><line style="fill:none;stroke:#ed2124;stroke-width:.5;stroke-miterlimit:10" x1="142.36" y1="41.89" x2="201.55" y2="41.89"/><polygon style="fill:#ed2124" points="199.9 43.94 199.56 43.57 201.36 41.89 199.56 40.21 199.9 39.85 202.1 41.89"/><line style="fill:none;stroke:#ed2124;stroke-width:.5;stroke-miterlimit:10" x1="293.41" y1="32.95" x2="305.73" y2="18.13"/><polygon style="fill:#ed2124" points="306.25 20.71 305.75 20.74 305.61 18.28 303.17 18.6 303.1 18.1 306.08 17.72"/><line style="fill:none;stroke:#ed2124;stroke-width:.5;stroke-miterlimit:10" x1="293.41" y1="50.8" x2="305.74" y2="66.19"/><polygon style="fill:#ed2124" points="303.11 66.17 303.18 65.68 305.62 66.04 305.8 63.58 306.3 63.61 306.08 66.61"/><line style="fill:none;stroke:#ed2124;stroke-width:.5;stroke-miterlimit:10" x1="293.41" y1="41.89" x2="305.54" y2="41.89"/><polygon style="fill:#ed2124" points="303.88 43.94 303.54 43.57 305.35 41.89 303.54 40.21 303.88 39.85 306.08 41.89"/><rect x="5.73" y="7.2" style="fill:none;stroke:#000;stroke-width:.5;stroke-miterlimit:10" width="35.25" height="17.85"/><rect x="5.73" y="58.7" style="fill:none;stroke:#000;stroke-width:.5;stroke-miterlimit:10" width="35.25" height="17.85"/><rect x="53.33" y="32.95" style="fill:none;stroke:#000;stroke-width:.5;stroke-miterlimit:10" width="35.25" height="17.85"/><rect x="107.12" y="32.95" style="fill:none;stroke:#000;stroke-width:.5;stroke-miterlimit:10" width="35.25" height="17.85"/><text transform="translate(55.683 40.06)"><tspan x="0" y="0" style="font-family:'Asap-Regular';font-size:5px">Differences in</tspan><tspan x="1.08" y="6" style="font-family:'Asap-Regular';font-size:5px">endowments</tspan></text><text transform="translate(10.461 17.716)" style="font-family:'Asap-Regular';font-size:5px">Technology</text><text transform="translate(11.091 66.609)"><tspan x="0" y="0" style="font-family:'Asap-Regular';font-size:5px">Institutions</tspan><tspan x="-1.02" y="6" style="font-family:'Asap-Regular';font-size:5px">and policies</tspan></text><text transform="translate(113.93 40.06)"><tspan x="0" y="0" style="font-family:'Asap-Regular';font-size:5px">Economic</tspan><tspan x="-.23" y="6" style="font-family:'Asap-Regular';font-size:5px">inequality</tspan></text><line style="fill:none;stroke:#000;stroke-width:.5;stroke-miterlimit:10" x1="23.35" y1="26.68" x2="23.35" y2="57.1"/><polygon points="21.31 28.34 21.67 28.68 23.35 26.88 25.03 28.68 25.4 28.34 23.35 26.14"/><polygon points="21.31 55.44 21.67 55.1 23.35 56.91 25.03 55.1 25.4 55.44 23.35 57.64"/><line style="fill:none;stroke:#000;stroke-width:.5;stroke-miterlimit:10" x1="40.98" y1="25.05" x2="50.59" y2="31.08"/><polygon points="48.1 31.93 48 31.44 50.42 30.97 49.78 28.59 50.27 28.46 51.05 31.36"/><line style="fill:none;stroke:#000;stroke-width:.5;stroke-miterlimit:10" x1="40.98" y1="58.7" x2="50.6" y2="51.82"/><polygon points="50.45 54.45 49.95 54.35 50.45 51.93 48 51.61 48.07 51.12 51.05 51.5"/><line style="fill:none;stroke:#000;stroke-width:.5;stroke-miterlimit:10" x1="88.58" y1="41.89" x2="104.74" y2="41.89"/><polygon points="103.09 43.94 102.75 43.57 104.55 41.89 102.75 40.21 103.09 39.85 105.29 41.89"/><line style="fill:none;stroke:#000;stroke-width:.5;stroke-miterlimit:10" x1="40.98" y1="16.13" x2="104.76" y2="31.24"/><polygon points="102.68 32.85 102.43 32.41 104.57 31.19 103.2 29.14 103.62 28.87 105.29 31.36"/><line style="fill:none;stroke:#000;stroke-width:.5;stroke-miterlimit:10" x1="40.98" y1="76.55" x2="104.78" y2="51.7"/><polygon points="103.98 54.21 103.53 53.99 104.6 51.77 102.31 50.86 102.5 50.4 105.29 51.5"/><rect x="156.78" y="7.2" style="fill:none;stroke:#000;stroke-width:.5;stroke-miterlimit:10" width="35.25" height="17.85"/><rect x="156.78" y="58.7" style="fill:none;stroke:#000;stroke-width:.5;stroke-miterlimit:10" width="35.25" height="17.85"/><rect x="204.39" y="32.95" style="fill:none;stroke:#000;stroke-width:.5;stroke-miterlimit:10" width="35.25" height="17.85"/><rect x="258.17" y="32.95" style="fill:none;stroke:#000;stroke-width:.5;stroke-miterlimit:10" width="35.25" height="17.85"/><text transform="translate(206.734 40.06)"><tspan x="0" y="0" style="font-family:'Asap-Regular';font-size:5px">Differences in</tspan><tspan x="1.08" y="6" style="font-family:'Asap-Regular';font-size:5px">endowments</tspan></text><text transform="translate(161.512 17.716)" style="font-family:'Asap-Regular';font-size:5px">Technology</text><text transform="translate(162.142 66.609)"><tspan x="0" y="0" style="font-family:'Asap-Regular';font-size:5px">Institutions</tspan><tspan x="-1.02" y="6" style="font-family:'Asap-Regular';font-size:5px">and policies</tspan></text><text transform="translate(264.98 40.06)"><tspan x="0" y="0" style="font-family:'Asap-Regular';font-size:5px">Economic</tspan><tspan x="-.23" y="6" style="font-family:'Asap-Regular';font-size:5px">inequality</tspan></text><g><line style="fill:none;stroke:#000;stroke-width:.5;stroke-miterlimit:10" x1="192.03" y1="25.05" x2="201.64" y2="31.08"/><polygon points="199.15 31.93 199.05 31.44 201.47 30.97 200.84 28.59 201.32 28.46 202.1 31.36"/></g><g><line style="fill:none;stroke:#000;stroke-width:.5;stroke-miterlimit:10" x1="192.03" y1="58.7" x2="201.66" y2="51.82"/><polygon points="201.5 54.45 201.01 54.35 201.5 51.93 199.05 51.61 199.12 51.12 202.1 51.5"/></g><g><line style="fill:none;stroke:#000;stroke-width:.5;stroke-miterlimit:10" x1="239.63" y1="41.89" x2="255.8" y2="41.89"/><polygon points="254.14 43.94 253.8 43.57 255.6 41.89 253.8 40.21 254.14 39.85 256.34 41.89"/></g><g><line style="fill:none;stroke:#000;stroke-width:.5;stroke-miterlimit:10" x1="192.03" y1="16.13" x2="255.81" y2="31.24"/><polygon points="253.73 32.85 253.48 32.41 255.62 31.19 254.25 29.14 254.67 28.87 256.34 31.36"/></g><g><line style="fill:none;stroke:#000;stroke-width:.5;stroke-miterlimit:10" x1="192.03" y1="76.55" x2="255.83" y2="51.7"/><polygon points="255.03 54.21 254.58 53.99 255.65 51.77 253.36 50.86 253.55 50.4 256.34 51.5"/></g><g><line style="fill:none;stroke:#ed2124;stroke-width:.5;stroke-miterlimit:10" x1="142.36" y1="32.95" x2="154.1" y2="16.57"/><polygon style="fill:#ed2124" points="154.8 19.11 154.3 19.17 153.99 16.72 151.57 17.22 151.47 16.72 154.41 16.13"/></g><g><line style="fill:none;stroke:#ed2124;stroke-width:.5;stroke-miterlimit:10" x1="142.36" y1="50.8" x2="154.08" y2="66.18"/><polygon style="fill:#ed2124" points="151.45 66.1 151.54 65.61 153.97 66.03 154.21 63.57 154.71 63.62 154.41 66.61"/></g><g><line style="fill:none;stroke:#3a53a4;stroke-width:.5;stroke-miterlimit:10" x1="23.35" y1="95.35" x2="294.36" y2="95.35"/><polygon style="fill:#3a53a4" points="292.7 97.4 292.36 97.03 294.16 95.35 292.36 93.68 292.7 93.31 294.9 95.35"/></g><text transform="translate(23.943 91.81)" style="fill:#3a53a4;font-family:'Asap-Regular';font-size:5px">Time</text></svg>