<svg version="1.1" xmlns="http://www.w3.org/2000/svg" x="0" y="0" viewBox="0 0 311.81 158.16" style="enable-background:new 0 0 311.81 158.16" xml:space="preserve"><polygon style="fill:#f1e7f2" points="30.37 91.61 89.27 91.61 89.27 150.52"/><polygon style="fill:#e4e9f5" points="89.27 150.52 30.37 150.52 30.37 91.61"/><line style="fill:#939598;stroke:#fff;stroke-width:.5;stroke-miterlimit:10" x1="30.37" y1="91.31" x2="89.27" y2="150.21"/><line style="fill:none;stroke:#6d6e71;stroke-width:.5;stroke-miterlimit:10" x1="89.27" y1="19.3" x2="89.27" y2="32.71"/><polyline style="fill:#b9519e;stroke:#6d6e71;stroke-width:.499;stroke-miterlimit:10" points="30.37 20.04 30.37 7.64 148.17 7.64 148.17 20.04"/><polygon style="fill:#f1e7f2" points="30.37 32.71 89.27 32.71 89.27 91.61"/><polygon style="fill:#f1e7f2" points="89.27 32.71 148.17 32.71 148.17 91.61"/><polygon style="fill:#f1e7f2" points="89.27 91.61 148.17 91.61 148.17 150.52"/><polygon style="fill:#e4e9f5" points="148.17 150.52 89.27 150.52 89.27 91.61"/><polygon style="fill:#e4e9f5" points="148.17 91.61 89.27 91.61 89.27 32.71"/><polygon style="fill:#e4e9f5" points="89.44 91.61 30.54 91.61 30.54 32.71"/><line style="fill:#939598;stroke:#fff;stroke-width:.5;stroke-miterlimit:10" x1="89.27" y1="32.71" x2="148.17" y2="91.61"/><line style="fill:#939598;stroke:#fff;stroke-width:.5;stroke-miterlimit:10" x1="30.37" y1="32.71" x2="89.27" y2="91.61"/><line style="fill:#939598;stroke:#fff;stroke-width:.5;stroke-miterlimit:10" x1="89.27" y1="91.31" x2="148.17" y2="150.21"/><text transform="translate(49.212 28.962)" style="font-family:'Asap-Regular';font-size:6px">Restrict</text><text transform="translate(113.905 28.963)" style="font-family:'Asap-Regular';font-size:6px">BAU</text><text transform="translate(84.387 16.733)" style="fill:#fff;font-family:'Asap-Regular';font-size:8px">US</text><line style="fill:none;stroke:#6d6e71;stroke-width:.5;stroke-miterlimit:10" x1="148.17" y1="20.04" x2="148.17" y2="32.71"/><line style="fill:none;stroke:#6d6e71;stroke-width:.5;stroke-miterlimit:10" x1="30.37" y1="32.71" x2="30.37" y2="20.04"/><rect x="30.37" y="32.71" style="fill:none;stroke:#6d6e71;stroke-width:.5;stroke-miterlimit:10" width="117.8" height="117.8"/><line style="fill:none;stroke:#6d6e71;stroke-width:.5;stroke-miterlimit:10" x1="89.27" y1="32.71" x2="89.27" y2="150.52"/><line style="fill:none;stroke:#6d6e71;stroke-width:.5;stroke-miterlimit:10" x1="30.37" y1="91.61" x2="148.17" y2="91.61"/><text transform="translate(59.987 53.441)" style="font-family:'Asap-Regular';font-size:8px">Good</text><text transform="translate(37.616 76.947)" style="font-family:'Asap-Regular';font-size:8px">Good</text><text transform="translate(118.72 53.441)" style="font-family:'Asap-Regular';font-size:8px">Best</text><text transform="translate(96.349 76.947)" style="font-family:'Asap-Regular';font-size:8px">Worst</text><text transform="translate(58.003 112.697)" style="font-family:'Asap-Regular';font-size:8px">Worst</text><text transform="translate(40.734 136.202)" style="font-family:'Asap-Regular';font-size:8px">Best</text><text transform="translate(119.57 112.697)" style="font-family:'Asap-Regular';font-size:8px">Bad</text><text transform="translate(100.034 136.202)" style="font-family:'Asap-Regular';font-size:8px">Bad</text><polyline style="fill:#0d71ba;stroke:#6d6e71;stroke-width:.499;stroke-miterlimit:10" points="18.04 150.52 5.64 150.52 5.64 32.71 18.04 32.71"/><text transform="rotate(-90 58.449 43.715)" style="fill:#fff;font-family:'Asap-Regular';font-size:8px">China</text><line style="fill:none;stroke:#6d6e71;stroke-width:.5;stroke-miterlimit:10" x1="18.04" y1="32.71" x2="30.71" y2="32.71"/><line style="fill:none;stroke:#6d6e71;stroke-width:.5;stroke-miterlimit:10" x1="30.71" y1="150.52" x2="18.04" y2="150.52"/><line style="fill:none;stroke:#6d6e71;stroke-width:.5;stroke-miterlimit:10" x1="18.04" y1="91.61" x2="30.71" y2="91.61"/><text transform="rotate(-90 76.832 50.875)" style="font-family:'Asap-Regular';font-size:6px">BAU</text><text transform="rotate(-90 49.73 23.773)" style="font-family:'Asap-Regular';font-size:6px">Restrict</text><polygon style="fill:#f1e7f2" points="188.87 91.61 247.77 91.61 247.77 150.52"/><polygon style="fill:#e4e9f5" points="247.77 150.52 188.87 150.52 188.87 91.61"/><line style="fill:#939598;stroke:#fff;stroke-width:.5;stroke-miterlimit:10" x1="188.87" y1="91.31" x2="247.77" y2="150.21"/><line style="fill:none;stroke:#6d6e71;stroke-width:.5;stroke-miterlimit:10" x1="247.77" y1="19.3" x2="247.77" y2="32.71"/><polyline style="fill:#b9519e;stroke:#6d6e71;stroke-width:.499;stroke-miterlimit:10" points="188.87 20.04 188.87 7.64 306.68 7.64 306.68 20.04"/><polygon style="fill:#f1e7f2" points="188.87 32.71 247.77 32.71 247.77 91.61"/><polygon style="fill:#f1e7f2" points="247.77 32.71 306.68 32.71 306.68 91.61"/><polygon style="fill:#f1e7f2" points="247.77 91.61 306.68 91.61 306.68 150.52"/><polygon style="fill:#e4e9f5" points="306.68 150.52 247.77 150.52 247.77 91.61"/><polygon style="fill:#e4e9f5" points="306.68 91.61 247.77 91.61 247.77 32.71"/><polygon style="fill:#e4e9f5" points="247.95 91.61 189.05 91.61 189.05 32.71"/><line style="fill:#939598;stroke:#fff;stroke-width:.5;stroke-miterlimit:10" x1="247.77" y1="32.71" x2="306.68" y2="91.61"/><line style="fill:#939598;stroke:#fff;stroke-width:.5;stroke-miterlimit:10" x1="188.87" y1="32.71" x2="247.77" y2="91.61"/><line style="fill:#939598;stroke:#fff;stroke-width:.5;stroke-miterlimit:10" x1="247.77" y1="91.31" x2="306.68" y2="150.21"/><text transform="translate(207.717 28.962)" style="font-family:'Asap-Regular';font-size:6px">Restrict</text><text transform="translate(272.41 28.963)" style="font-family:'Asap-Regular';font-size:6px">BAU</text><text transform="translate(242.892 16.733)" style="fill:#fff;font-family:'Asap-Regular';font-size:8px">US</text><line style="fill:none;stroke:#6d6e71;stroke-width:.5;stroke-miterlimit:10" x1="306.68" y1="20.04" x2="306.68" y2="32.71"/><line style="fill:none;stroke:#6d6e71;stroke-width:.5;stroke-miterlimit:10" x1="188.87" y1="32.71" x2="188.87" y2="20.04"/><rect x="188.87" y="32.71" style="fill:none;stroke:#6d6e71;stroke-width:.5;stroke-miterlimit:10" width="117.8" height="117.8"/><line style="fill:none;stroke:#6d6e71;stroke-width:.5;stroke-miterlimit:10" x1="247.77" y1="32.71" x2="247.77" y2="150.52"/><line style="fill:none;stroke:#6d6e71;stroke-width:.5;stroke-miterlimit:10" x1="188.87" y1="91.61" x2="306.68" y2="91.61"/><text transform="translate(218.492 53.441)" style="font-family:'Asap-Regular';font-size:8px">Best</text><text transform="translate(197.822 76.947)" style="font-family:'Asap-Regular';font-size:8px">Best</text><text transform="translate(277.225 53.441)" style="font-family:'Asap-Regular';font-size:8px">Good</text><text transform="translate(253.153 76.947)" style="font-family:'Asap-Regular';font-size:8px">Worst</text><text transform="translate(215.941 112.697)" style="font-family:'Asap-Regular';font-size:8px">Worst</text><text transform="translate(196.404 136.202)" style="font-family:'Asap-Regular';font-size:8px">Good</text><text transform="translate(280.627 112.697)" style="font-family:'Asap-Regular';font-size:8px">Bad</text><text transform="translate(258.822 136.202)" style="font-family:'Asap-Regular';font-size:8px">Bad</text><polyline style="fill:#0d71ba;stroke:#6d6e71;stroke-width:.499;stroke-miterlimit:10" points="176.55 150.52 164.15 150.52 164.15 32.71 176.55 32.71"/><text transform="rotate(-90 137.702 -35.538)" style="fill:#fff;font-family:'Asap-Regular';font-size:8px">China</text><line style="fill:none;stroke:#6d6e71;stroke-width:.5;stroke-miterlimit:10" x1="176.55" y1="32.71" x2="189.22" y2="32.71"/><line style="fill:none;stroke:#6d6e71;stroke-width:.5;stroke-miterlimit:10" x1="189.22" y1="150.52" x2="176.55" y2="150.52"/><line style="fill:none;stroke:#6d6e71;stroke-width:.5;stroke-miterlimit:10" x1="176.55" y1="91.61" x2="189.22" y2="91.61"/><text transform="rotate(-90 156.085 -28.377)" style="font-family:'Asap-Regular';font-size:6px">BAU</text><text transform="rotate(-90 128.983 -55.48)" style="font-family:'Asap-Regular';font-size:6px">Restrict</text></svg>