<svg version="1.1" xmlns="http://www.w3.org/2000/svg" x="0" y="0" viewBox="0 0 311.81 238" style="enable-background:new 0 0 311.81 238" xml:space="preserve"><polygon points="65.95 22.2 65.95 206.89 186.88 207.05 260.75 207.19" style="fill:#fee7dc"/><line x1="66.06" y1="22.67" x2="260.75" y2="206.75" style="fill:none;stroke:#ed2124;stroke-width:.5156;stroke-miterlimit:10"/><line x1="66.06" y1="83.08" x2="130.26" y2="83.08" style="stroke:#939598;stroke-width:.5384;stroke-dasharray:1.5261;fill:none;stroke-miterlimit:10"/><line x1="130.26" y1="83.08" x2="130.26" y2="207.19" style="stroke-width:.5096;stroke-dasharray:1.4446;stroke:#939598;fill:none;stroke-miterlimit:10"/><line x1="65.95" y1="3.73" x2="63.82" y2="3.73" style="fill:none;stroke:#6d6e71;stroke-width:.5;stroke-linecap:square;stroke-linejoin:round"/><line x1="65.95" y1="206.9" x2="63.82" y2="206.9" style="fill:none;stroke:#6d6e71;stroke-width:.5;stroke-linecap:square;stroke-linejoin:round"/><line x1="65.95" y1="206.9" x2="65.95" y2="3.73" style="fill:none;stroke:#6d6e71;stroke-width:.5;stroke-linecap:square;stroke-linejoin:round"/><line x1="280.33" y1="207.19" x2="280.33" y2="209.32" style="fill:none;stroke:#6d6e71;stroke-width:.5;stroke-linecap:square;stroke-linejoin:round"/><line x1="65.95" y1="207.19" x2="65.95" y2="209.32" style="fill:none;stroke:#6d6e71;stroke-width:.5;stroke-linecap:square;stroke-linejoin:round"/><line x1="65.84" y1="206.9" x2="280.33" y2="207.19" style="fill:none;stroke:#6d6e71;stroke-width:.5;stroke-linecap:square;stroke-linejoin:round"/><text transform="translate(56.668 208.897)" style="font-size:7px;font-family:'Asap-Regular'">0</text><text transform="translate(63.627 219.16)" style="font-size:7px;font-family:'Asap-Regular'">0</text><line x1="65.95" y1="22.2" x2="63.82" y2="22.2" style="fill:none;stroke:#6d6e71;stroke-width:.5;stroke-linecap:square;stroke-linejoin:round"/><text transform="translate(49.178 25.059)" style="font-size:7px;font-family:'Asap-Regular'">100</text><text transform="translate(70.338 24.31)" style="font-size:6px;font-family:'Asap-Regular'">Julia’s endowment</text><text transform="rotate(-90 79.668 49.016)" style="font-size:8px;font-family:'Asap-Medium'">Consumption later ($)</text><text transform="translate(137.687 234.53)" style="font-size:8px;font-family:'Asap-Medium'">Consumption now ($)</text><circle cx="65.84" cy="22.2" r="1.13"/><text transform="translate(49.179 6.675)" style="font-size:7px;font-family:'Asap-Regular'">110</text><text transform="translate(275.878 219.159)" style="font-size:7px;font-family:'Asap-Regular'">100</text><line x1="65.84" y1="40.67" x2="63.72" y2="40.67" style="fill:none;stroke:#6d6e71;stroke-width:.5;stroke-linecap:square;stroke-linejoin:round"/><line x1="65.84" y1="59.14" x2="63.72" y2="59.14" style="fill:none;stroke:#6d6e71;stroke-width:.5;stroke-linecap:square;stroke-linejoin:round"/><line x1="65.84" y1="77.61" x2="63.72" y2="77.61" style="fill:none;stroke:#6d6e71;stroke-width:.5;stroke-linecap:square;stroke-linejoin:round"/><line x1="65.84" y1="96.08" x2="63.72" y2="96.08" style="fill:none;stroke:#6d6e71;stroke-width:.5;stroke-linecap:square;stroke-linejoin:round"/><line x1="65.84" y1="114.55" x2="63.72" y2="114.55" style="fill:none;stroke:#6d6e71;stroke-width:.5;stroke-linecap:square;stroke-linejoin:round"/><line x1="65.84" y1="133.02" x2="63.72" y2="133.02" style="fill:none;stroke:#6d6e71;stroke-width:.5;stroke-linecap:square;stroke-linejoin:round"/><line x1="65.84" y1="151.49" x2="63.72" y2="151.49" style="fill:none;stroke:#6d6e71;stroke-width:.5;stroke-linecap:square;stroke-linejoin:round"/><line x1="65.84" y1="169.96" x2="63.72" y2="169.96" style="fill:none;stroke:#6d6e71;stroke-width:.5;stroke-linecap:square;stroke-linejoin:round"/><line x1="65.84" y1="188.43" x2="63.72" y2="188.43" style="fill:none;stroke:#6d6e71;stroke-width:.5;stroke-linecap:square;stroke-linejoin:round"/><text transform="translate(52.924 43.442)" style="font-size:7px;font-family:'Asap-Regular'">90</text><text transform="translate(52.923 61.826)" style="font-size:7px;font-family:'Asap-Regular'">80</text><text transform="translate(52.923 80.21)" style="font-size:7px;font-family:'Asap-Regular'">70</text><text transform="translate(52.924 98.593)" style="font-size:7px;font-family:'Asap-Regular'">60</text><text transform="translate(52.924 116.977)" style="font-size:7px;font-family:'Asap-Regular'">50</text><text transform="translate(52.924 135.361)" style="font-size:7px;font-family:'Asap-Regular'">40</text><text transform="translate(52.924 153.745)" style="font-size:7px;font-family:'Asap-Regular'">30</text><text transform="translate(52.924 172.129)" style="font-size:7px;font-family:'Asap-Regular'">20</text><text transform="translate(52.924 190.513)" style="font-size:7px;font-family:'Asap-Regular'">10</text><text transform="translate(255.279 219.159)" style="font-size:7px;font-family:'Asap-Regular'">90</text><text transform="translate(234.679 219.16)" style="font-size:7px;font-family:'Asap-Regular'">80</text><text transform="translate(213.079 219.16)" style="font-size:7px;font-family:'Asap-Regular'">70</text><text transform="translate(191.48 219.159)" style="font-size:7px;font-family:'Asap-Regular'">60</text><text transform="translate(169.88 219.159)" style="font-size:7px;font-family:'Asap-Regular'">50</text><text transform="translate(148.28 219.159)" style="font-size:7px;font-family:'Asap-Regular'">40</text><text transform="translate(126.68 219.16)" style="font-size:7px;font-family:'Asap-Regular'">30</text><text transform="translate(105.081 219.159)" style="font-size:7px;font-family:'Asap-Regular'">20</text><text transform="translate(83.482 219.16)" style="font-size:7px;font-family:'Asap-Regular'">10</text><line x1="258.89" y1="207.48" x2="258.89" y2="209.61" style="fill:none;stroke:#6d6e71;stroke-width:.5;stroke-linecap:square;stroke-linejoin:round"/><line x1="237.45" y1="207.48" x2="237.45" y2="209.61" style="fill:none;stroke:#6d6e71;stroke-width:.5;stroke-linecap:square;stroke-linejoin:round"/><line x1="216.01" y1="207.48" x2="216.01" y2="209.61" style="fill:none;stroke:#6d6e71;stroke-width:.5;stroke-linecap:square;stroke-linejoin:round"/><line x1="194.58" y1="207.48" x2="194.58" y2="209.61" style="fill:none;stroke:#6d6e71;stroke-width:.5;stroke-linecap:square;stroke-linejoin:round"/><line x1="173.14" y1="207.48" x2="173.14" y2="209.61" style="fill:none;stroke:#6d6e71;stroke-width:.5;stroke-linecap:square;stroke-linejoin:round"/><line x1="151.7" y1="207.48" x2="151.7" y2="209.61" style="fill:none;stroke:#6d6e71;stroke-width:.5;stroke-linecap:square;stroke-linejoin:round"/><line x1="130.26" y1="207.48" x2="130.26" y2="209.61" style="fill:none;stroke:#6d6e71;stroke-width:.5;stroke-linecap:square;stroke-linejoin:round"/><line x1="108.83" y1="207.48" x2="108.83" y2="209.61" style="fill:none;stroke:#6d6e71;stroke-width:.5;stroke-linecap:square;stroke-linejoin:round"/><line x1="87.39" y1="207.48" x2="87.39" y2="209.61" style="fill:none;stroke:#6d6e71;stroke-width:.5;stroke-linecap:square;stroke-linejoin:round"/><polyline points="65.95 164.81 216.01 164.81 216.01 206.3" style="stroke-width:.545;stroke-dasharray:1.545;stroke:#939598;fill:none;stroke-miterlimit:10"/><circle cx="216.01" cy="164.81" r="1.13"/><text transform="translate(52.924 164.81)" style="font-size:7px;font-family:'Asap-Regular'">23</text><text transform="translate(257.434 201.665)" style="font-size:7px;font-family:'Asap-Regular'">91</text><circle cx="260.75" cy="207.26" r="1.13"/><circle cx="130.26" cy="83.08" r="1.13"/><text transform="translate(52.924 87.4)" style="font-size:7px;font-family:'Asap-Regular'">67</text><line x1="65.95" y1="83.08" x2="63.82" y2="83.08" style="fill:none;stroke:#6d6e71;stroke-width:.5;stroke-linecap:square;stroke-linejoin:round"/><line x1="65.84" y1="164.85" x2="63.72" y2="164.85" style="fill:none;stroke:#6d6e71;stroke-width:.5;stroke-linecap:square;stroke-linejoin:round"/><text transform="translate(241.304 150.591)"><tspan x="0" y="0" style="font-size:6px;font-family:'Asap-Regular'">Feasible frontier </tspan><tspan x="0" y="7.2" style="font-size:6px;font-family:'Asap-Regular'">(10% interest rate)</tspan></text><line x1="236.37" y1="151.49" x2="209.85" y2="151.49" style="fill:none;stroke:#939598;stroke-width:.5;stroke-miterlimit:10"/><polygon points="211.5 149.45 211.84 149.81 210.04 151.49 211.84 153.17 211.5 153.54 209.3 151.49" style="fill:#939598"/></svg>