<svg version="1.1" xmlns="http://www.w3.org/2000/svg" x="0" y="0" viewBox="0 0 311.81 178" style="enable-background:new 0 0 311.81 178" xml:space="preserve"><line style="fill:none;stroke:#939598;stroke-width:.5;stroke-linecap:square;stroke-linejoin:round" x1="44.34" y1="78.1" x2="45.05" y2="78.1"/><line style="fill:none;stroke:#939598;stroke-width:.5;stroke-linecap:square;stroke-linejoin:round;stroke-dasharray:1.4161,1.4161" x1="46.46" y1="78.1" x2="297.83" y2="78.1"/><line style="fill:none;stroke:#939598;stroke-width:.5;stroke-linecap:square;stroke-linejoin:round" x1="298.53" y1="78.1" x2="299.24" y2="78.1"/><line style="fill:none;stroke:#939598;stroke-width:.5;stroke-linecap:square;stroke-linejoin:round;stroke-dasharray:1.4173" x1="93.59" y1="148.56" x2="93.34" y2="78.1"/><line style="fill:none;stroke:#ccc;stroke-width:.5;stroke-linecap:square;stroke-linejoin:round" x1="42.64" y1="21.02" x2="298.96" y2="21.02"/><line style="fill:none;stroke:#ccc;stroke-width:.5;stroke-linecap:square;stroke-linejoin:round" x1="42.64" y1="35.29" x2="298.96" y2="35.29"/><line style="fill:none;stroke:#ccc;stroke-width:.5;stroke-linecap:square;stroke-linejoin:round" x1="42.64" y1="49.56" x2="298.96" y2="49.56"/><line style="fill:none;stroke:#ccc;stroke-width:.5;stroke-linecap:square;stroke-linejoin:round" x1="42.64" y1="63.83" x2="298.96" y2="63.83"/><line style="fill:none;stroke:#ccc;stroke-width:.5;stroke-linecap:square;stroke-linejoin:round" x1="42.64" y1="92.37" x2="298.96" y2="92.37"/><line style="fill:none;stroke:#ccc;stroke-width:.5;stroke-linecap:square;stroke-linejoin:round" x1="42.64" y1="106.64" x2="298.96" y2="106.64"/><line style="fill:none;stroke:#ccc;stroke-width:.5;stroke-linecap:square;stroke-linejoin:round" x1="42.64" y1="120.92" x2="298.96" y2="120.92"/><line style="fill:none;stroke:#ccc;stroke-width:.5;stroke-linecap:square;stroke-linejoin:round" x1="42.64" y1="135.19" x2="298.96" y2="135.19"/><line style="fill:none;stroke:#6d6e71;stroke-width:.5;stroke-linecap:square;stroke-linejoin:round" x1="42.8" y1="6.75" x2="41.26" y2="6.75"/><line style="fill:none;stroke:#6d6e71;stroke-width:.5;stroke-linecap:square;stroke-linejoin:round" x1="42.23" y1="78.1" x2="40.68" y2="78.1"/><line style="fill:none;stroke:#6d6e71;stroke-width:.5;stroke-linecap:square;stroke-linejoin:round" x1="42.23" y1="92.37" x2="40.68" y2="92.37"/><line style="fill:none;stroke:#6d6e71;stroke-width:.5;stroke-linecap:square;stroke-linejoin:round" x1="42.23" y1="135.19" x2="40.68" y2="135.19"/><line style="fill:none;stroke:#6d6e71;stroke-width:.5;stroke-linecap:square;stroke-linejoin:round" x1="42.23" y1="149.46" x2="40.68" y2="149.46"/><line style="fill:none;stroke:#6d6e71;stroke-width:.5;stroke-linecap:square;stroke-linejoin:round" x1="42.25" y1="149.46" x2="42.55" y2="6.75"/><text transform="rotate(-90 50.442 38.241)" style="font-family:'Asap-Medium';font-size:8px">Price ($)</text><text transform="translate(34.73 151.657)" style="font-family:'Asap-Regular';font-size:7px">0</text><line style="fill:none;stroke:#6d6e71;stroke-width:.5;stroke-linecap:square;stroke-linejoin:round" x1="299.24" y1="149.82" x2="299.24" y2="151.95"/><line style="fill:none;stroke:#6d6e71;stroke-width:.5;stroke-linecap:square;stroke-linejoin:round" x1="275.28" y1="149.82" x2="275.28" y2="151.95"/><line style="fill:none;stroke:#6d6e71;stroke-width:.5;stroke-linecap:square;stroke-linejoin:round" x1="236.94" y1="149.82" x2="236.94" y2="151.95"/><line style="fill:none;stroke:#6d6e71;stroke-width:.5;stroke-linecap:square;stroke-linejoin:round" x1="212.98" y1="149.82" x2="212.98" y2="151.95"/><line style="fill:none;stroke:#6d6e71;stroke-width:.5;stroke-linecap:square;stroke-linejoin:round" x1="144.92" y1="149.82" x2="144.92" y2="151.95"/><line style="fill:none;stroke:#6d6e71;stroke-width:.5;stroke-linecap:square;stroke-linejoin:round" x1="127.81" y1="149.82" x2="127.81" y2="151.95"/><line style="fill:none;stroke:#6d6e71;stroke-width:.5;stroke-linecap:square;stroke-linejoin:round" x1="110.7" y1="149.82" x2="110.7" y2="151.95"/><line style="fill:none;stroke:#6d6e71;stroke-width:.5;stroke-linecap:square;stroke-linejoin:round" x1="85.03" y1="149.82" x2="85.03" y2="151.95"/><line style="fill:none;stroke:#6d6e71;stroke-width:.5;stroke-linecap:square;stroke-linejoin:round" x1="42.25" y1="149.82" x2="42.25" y2="151.95"/><line style="fill:none;stroke:#6d6e71;stroke-width:.5;stroke-linecap:square;stroke-linejoin:round" x1="42.25" y1="149.46" x2="299.24" y2="149.46"/><text transform="translate(164.125 173.872)" style="font-family:'Asap-Medium';font-size:8px">Number of transactions in each period</text><text transform="translate(78.125 173.872)" style="font-family:'Asap-Medium';font-size:8px">Quantity</text><text transform="translate(40.445 159.264)" style="font-family:'Asap-Regular';font-size:7px">0</text><rect x="39.78" y="152.86" style="fill:none" width="4.56" height="8.41"/><text transform="translate(48.661 159.264)" style="font-family:'Asap-Regular';font-size:7px">1</text><rect x="61.03" y="152.86" style="fill:none" width="4.56" height="8.41"/><text transform="translate(83.276 159.264)" style="font-family:'Asap-Regular';font-size:7px">5</text><rect x="80.6" y="152.86" style="fill:none" width="7.92" height="8.41"/><text transform="translate(100.493 159.264)" style="font-family:'Asap-Regular';font-size:7px">7</text><rect x="101.85" y="152.86" style="fill:none" width="7.92" height="8.41"/><text transform="translate(117.709 159.264)" style="font-family:'Asap-Regular';font-size:7px">9</text><rect x="123.1" y="152.86" style="fill:none" width="7.92" height="8.41"/><text transform="translate(141.925 159.264)" style="font-family:'Asap-Regular';font-size:7px">12</text><rect x="144.36" y="152.86" style="fill:none" width="7.92" height="8.41"/><text transform="translate(215.791 159.264)" style="font-family:'Asap-Regular';font-size:7px">1</text><rect x="229.36" y="152.86" style="fill:none" width="7.92" height="8.41"/><line style="fill:none;stroke:#6d6e71;stroke-width:.5;stroke-linecap:square;stroke-linejoin:round" x1="42.23" y1="106.64" x2="40.68" y2="106.64"/><text transform="translate(29.48 138.255)" style="font-family:'Asap-Regular';font-size:7px">0.4</text><line style="fill:none;stroke:#6d6e71;stroke-width:.5;stroke-linecap:square;stroke-linejoin:round" x1="294.45" y1="149.82" x2="294.45" y2="151.95"/><line style="fill:none;stroke:#6d6e71;stroke-width:.5;stroke-linecap:square;stroke-linejoin:round" x1="289.66" y1="149.82" x2="289.66" y2="151.95"/><line style="fill:none;stroke:#6d6e71;stroke-width:.5;stroke-linecap:square;stroke-linejoin:round" x1="284.87" y1="149.82" x2="284.87" y2="151.95"/><line style="fill:none;stroke:#6d6e71;stroke-width:.5;stroke-linecap:square;stroke-linejoin:round" x1="280.07" y1="149.82" x2="280.07" y2="151.95"/><line style="fill:none;stroke:#6d6e71;stroke-width:.5;stroke-linecap:square;stroke-linejoin:round" x1="270.49" y1="149.82" x2="270.49" y2="151.95"/><line style="fill:none;stroke:#6d6e71;stroke-width:.5;stroke-linecap:square;stroke-linejoin:round" x1="265.7" y1="149.82" x2="265.7" y2="151.95"/><line style="fill:none;stroke:#6d6e71;stroke-width:.5;stroke-linecap:square;stroke-linejoin:round" x1="260.9" y1="149.82" x2="260.9" y2="151.95"/><line style="fill:none;stroke:#6d6e71;stroke-width:.5;stroke-linecap:square;stroke-linejoin:round" x1="256.11" y1="149.82" x2="256.11" y2="151.95"/><line style="fill:none;stroke:#6d6e71;stroke-width:.5;stroke-linecap:square;stroke-linejoin:round" x1="251.32" y1="149.82" x2="251.32" y2="151.95"/><line style="fill:none;stroke:#6d6e71;stroke-width:.5;stroke-linecap:square;stroke-linejoin:round" x1="241.73" y1="149.82" x2="241.73" y2="151.95"/><line style="fill:none;stroke:#6d6e71;stroke-width:.5;stroke-linecap:square;stroke-linejoin:round" x1="246.53" y1="149.82" x2="246.53" y2="151.95"/><line style="fill:none;stroke:#6d6e71;stroke-width:.5;stroke-linecap:square;stroke-linejoin:round" x1="232.15" y1="149.82" x2="232.15" y2="151.95"/><line style="fill:none;stroke:#6d6e71;stroke-width:.5;stroke-linecap:square;stroke-linejoin:round" x1="227.36" y1="149.82" x2="227.36" y2="151.95"/><line style="fill:none;stroke:#6d6e71;stroke-width:.5;stroke-linecap:square;stroke-linejoin:round" x1="222.56" y1="149.82" x2="222.56" y2="151.95"/><line style="fill:none;stroke:#6d6e71;stroke-width:.5;stroke-linecap:square;stroke-linejoin:round" x1="217.77" y1="149.82" x2="217.77" y2="151.95"/><line style="fill:none;stroke:#6d6e71;stroke-width:.5;stroke-linecap:square;stroke-linejoin:round" x1="189.01" y1="149.82" x2="189.01" y2="151.95"/><line style="fill:none;stroke:#6d6e71;stroke-width:.5;stroke-linecap:square;stroke-linejoin:round" x1="208.18" y1="149.82" x2="208.18" y2="151.95"/><line style="fill:none;stroke:#6d6e71;stroke-width:.5;stroke-linecap:square;stroke-linejoin:round" x1="203.39" y1="149.82" x2="203.39" y2="151.95"/><line style="fill:none;stroke:#6d6e71;stroke-width:.5;stroke-linecap:square;stroke-linejoin:round" x1="198.6" y1="149.82" x2="198.6" y2="151.95"/><line style="fill:none;stroke:#6d6e71;stroke-width:.5;stroke-linecap:square;stroke-linejoin:round" x1="193.81" y1="149.82" x2="193.81" y2="151.95"/><line style="fill:none;stroke:#6d6e71;stroke-width:.5;stroke-linecap:square;stroke-linejoin:round" x1="165.05" y1="149.82" x2="165.05" y2="151.95"/><line style="fill:none;stroke:#6d6e71;stroke-width:.5;stroke-linecap:square;stroke-linejoin:round" x1="184.22" y1="149.82" x2="184.22" y2="151.95"/><line style="fill:none;stroke:#6d6e71;stroke-width:.5;stroke-linecap:square;stroke-linejoin:round" x1="179.43" y1="149.82" x2="179.43" y2="151.95"/><line style="fill:none;stroke:#6d6e71;stroke-width:.5;stroke-linecap:square;stroke-linejoin:round" x1="174.64" y1="149.82" x2="174.64" y2="151.95"/><line style="fill:none;stroke:#6d6e71;stroke-width:.5;stroke-linecap:square;stroke-linejoin:round" x1="169.84" y1="149.82" x2="169.84" y2="151.95"/><text transform="translate(220.791 159.264)" style="font-family:'Asap-Regular';font-size:7px">2</text><text transform="translate(225.791 159.264)" style="font-family:'Asap-Regular';font-size:7px">3</text><text transform="translate(230.36 159.264)" style="font-family:'Asap-Regular';font-size:7px">4</text><text transform="translate(234.791 159.264)" style="font-family:'Asap-Regular';font-size:7px">5</text><text transform="translate(192.124 159.264)" style="font-family:'Asap-Regular';font-size:7px">1</text><rect x="205.69" y="152.86" style="fill:none" width="7.92" height="8.41"/><text transform="translate(197.124 159.264)" style="font-family:'Asap-Regular';font-size:7px">2</text><text transform="translate(202.124 159.264)" style="font-family:'Asap-Regular';font-size:7px">3</text><text transform="translate(206.694 159.264)" style="font-family:'Asap-Regular';font-size:7px">4</text><text transform="translate(211.124 159.264)" style="font-family:'Asap-Regular';font-size:7px">5</text><text transform="translate(167.526 159.264)" style="font-family:'Asap-Regular';font-size:7px">1</text><text transform="translate(163.026 159.264)" style="font-family:'Asap-Regular';font-size:7px">0</text><rect x="181.1" y="152.86" style="fill:none" width="7.92" height="8.41"/><text transform="translate(172.526 159.264)" style="font-family:'Asap-Regular';font-size:7px">2</text><text transform="translate(177.526 159.264)" style="font-family:'Asap-Regular';font-size:7px">3</text><text transform="translate(182.096 159.264)" style="font-family:'Asap-Regular';font-size:7px">4</text><text transform="translate(186.526 159.264)" style="font-family:'Asap-Regular';font-size:7px">5</text><text transform="translate(239.852 159.264)" style="font-family:'Asap-Regular';font-size:7px">1</text><rect x="253.42" y="152.86" style="fill:none" width="7.92" height="8.41"/><text transform="translate(244.852 159.264)" style="font-family:'Asap-Regular';font-size:7px">2</text><text transform="translate(249.852 159.264)" style="font-family:'Asap-Regular';font-size:7px">3</text><text transform="translate(253.852 159.264)" style="font-family:'Asap-Regular';font-size:7px">4</text><text transform="translate(258.852 159.264)" style="font-family:'Asap-Regular';font-size:7px">5</text><text transform="translate(264.04 159.264)" style="font-family:'Asap-Regular';font-size:7px">6</text><text transform="translate(268.414 159.264)" style="font-family:'Asap-Regular';font-size:7px">7</text><text transform="translate(273.584 159.264)" style="font-family:'Asap-Regular';font-size:7px">1</text><rect x="287.15" y="152.86" style="fill:none" width="7.92" height="8.41"/><text transform="translate(278.584 159.264)" style="font-family:'Asap-Regular';font-size:7px">2</text><text transform="translate(283.584 159.264)" style="font-family:'Asap-Regular';font-size:7px">3</text><text transform="translate(287.584 159.264)" style="font-family:'Asap-Regular';font-size:7px">4</text><text transform="translate(292.584 159.264)" style="font-family:'Asap-Regular';font-size:7px">5</text><text transform="translate(297.46 159.264)" style="font-family:'Asap-Regular';font-size:7px">6</text><line style="fill:none;stroke:#6d6e71;stroke-width:.5;stroke-linecap:square;stroke-linejoin:round" x1="50.8" y1="149.82" x2="50.8" y2="151.95"/><line style="fill:none;stroke:#6d6e71;stroke-width:.5;stroke-linecap:square;stroke-linejoin:round" x1="59.36" y1="149.82" x2="59.36" y2="151.95"/><line style="fill:none;stroke:#6d6e71;stroke-width:.5;stroke-linecap:square;stroke-linejoin:round" x1="67.92" y1="149.82" x2="67.92" y2="151.95"/><line style="fill:none;stroke:#6d6e71;stroke-width:.5;stroke-linecap:square;stroke-linejoin:round" x1="76.47" y1="149.82" x2="76.47" y2="151.95"/><line style="fill:none;stroke:#6d6e71;stroke-width:.5;stroke-linecap:square;stroke-linejoin:round" x1="93.59" y1="149.82" x2="93.59" y2="151.95"/><line style="fill:none;stroke:#6d6e71;stroke-width:.5;stroke-linecap:square;stroke-linejoin:round" x1="102.14" y1="149.82" x2="102.14" y2="151.95"/><line style="fill:none;stroke:#6d6e71;stroke-width:.5;stroke-linecap:square;stroke-linejoin:round" x1="119.26" y1="149.82" x2="119.26" y2="151.95"/><line style="fill:none;stroke:#6d6e71;stroke-width:.5;stroke-linecap:square;stroke-linejoin:round" x1="136.37" y1="149.82" x2="136.37" y2="151.95"/><text transform="translate(57.661 159.264)" style="font-family:'Asap-Regular';font-size:7px">2</text><text transform="translate(65.661 159.264)" style="font-family:'Asap-Regular';font-size:7px">3</text><text transform="translate(74.661 159.264)" style="font-family:'Asap-Regular';font-size:7px">4</text><text transform="translate(91.276 159.264)" style="font-family:'Asap-Regular';font-size:7px">6</text><text transform="translate(108.493 159.264)" style="font-family:'Asap-Regular';font-size:7px">8</text><text transform="translate(123.709 159.264)" style="font-family:'Asap-Regular';font-size:7px">10</text><text transform="translate(132.709 159.264)" style="font-family:'Asap-Regular';font-size:7px">11</text><text transform="translate(29.48 122.255)" style="font-family:'Asap-Regular';font-size:7px">0.8</text><text transform="translate(29.48 108.922)" style="font-family:'Asap-Regular';font-size:7px">1.2</text><text transform="translate(29.48 94.588)" style="font-family:'Asap-Regular';font-size:7px">1.6</text><text transform="translate(94.73 82.838)" style="font-family:'Asap-Regular';font-size:6px">p</text><text transform="translate(138.48 144.589)" style="font-family:'Asap-Regular';font-size:6px">Demand</text><text transform="rotate(-90 162.01 -17.42)" style="font-family:'Asap-Regular';font-size:6px">Period 1</text><text transform="rotate(-90 173.99 -29.402)" style="font-family:'Asap-Regular';font-size:6px">Period 2</text><text transform="rotate(-90 185.972 -41.383)" style="font-family:'Asap-Regular';font-size:6px">Period 3</text><text transform="rotate(-90 200.35 -55.76)" style="font-family:'Asap-Regular';font-size:6px">Period 4</text><text transform="rotate(-90 215.872 -71.283)" style="font-family:'Asap-Regular';font-size:6px">Period 5</text><text transform="translate(29.48 79.755)" style="font-family:'Asap-Regular';font-size:7px">2.0</text><line style="fill:none;stroke:#6d6e71;stroke-width:.5;stroke-linecap:square;stroke-linejoin:round" x1="42.23" y1="120.92" x2="40.68" y2="120.92"/><text transform="translate(29.48 65.755)" style="font-family:'Asap-Regular';font-size:7px">2.4</text><line style="fill:none;stroke:#6d6e71;stroke-width:.5;stroke-linecap:square;stroke-linejoin:round" x1="42.23" y1="63.83" x2="40.68" y2="63.83"/><line style="fill:none;stroke:#6d6e71;stroke-width:.5;stroke-linecap:square;stroke-linejoin:round" x1="42.23" y1="49.56" x2="40.68" y2="49.56"/><text transform="translate(29.48 51.755)" style="font-family:'Asap-Regular';font-size:7px">2.8</text><line style="fill:none;stroke:#6d6e71;stroke-width:.5;stroke-linecap:square;stroke-linejoin:round" x1="42.23" y1="35.29" x2="40.68" y2="35.29"/><text transform="translate(29.48 37.755)" style="font-family:'Asap-Regular';font-size:7px">3.2</text><text transform="translate(29.48 22.922)" style="font-family:'Asap-Regular';font-size:7px">3.6</text><text transform="translate(29.48 9.588)" style="font-family:'Asap-Regular';font-size:7px">4.0</text><line style="fill:none;stroke:#6d6e71;stroke-width:.5;stroke-linecap:square;stroke-linejoin:round" x1="42.23" y1="21.02" x2="40.68" y2="21.02"/><line style="fill:none;stroke:#ccc;stroke-width:.5;stroke-linecap:square;stroke-linejoin:round" x1="165.05" y1="149.08" x2="165.05" y2="6.75"/><line style="fill:none;stroke:#ccc;stroke-width:.5;stroke-linecap:square;stroke-linejoin:round" x1="189.01" y1="149.08" x2="189.01" y2="6.75"/><line style="fill:none;stroke:#ccc;stroke-width:.5;stroke-linecap:square;stroke-linejoin:round" x1="212.98" y1="149.08" x2="212.98" y2="6.75"/><line style="fill:none;stroke:#ccc;stroke-width:.5;stroke-linecap:square;stroke-linejoin:round" x1="237.28" y1="149.08" x2="237.28" y2="6.75"/><line style="fill:none;stroke:#ccc;stroke-width:.5;stroke-linecap:square;stroke-linejoin:round" x1="270.49" y1="149.98" x2="270.49" y2="6.75"/><line style="fill:none;stroke:#ccc;stroke-width:.5;stroke-linecap:square;stroke-linejoin:round" x1="299.24" y1="149.98" x2="299.24" y2="6.75"/><polyline style="fill:none;stroke:#b9519e;stroke-width:.5;stroke-linecap:square;stroke-linejoin:round" points="169 88.68 173.84 84.75 178.5 87.5 184.17 83.33 185.5 83.33 187.84 81.83 193.67 81.83 198.67 85.26 202.12 83.33 208.34 83.67 217 79.76 222.17 79.76 227.34 71.5 232.67 79 241.5 78.83 246 75.83 251.34 81.67 255.34 78.1 260.84 78.1 265.84 69.67 270.49 78.1 275 75 281.67 74.5 290.5 79.18 295 79.18 299.24 80.67"/><polyline style="fill:none;stroke:#ed2124;stroke-width:.5;stroke-linecap:square;stroke-linejoin:round" points="42.35 6.75 42.55 32.75 50.34 32.75 50.34 43 58.59 43 58.59 51.76 67.59 51.76 67.59 60 76.09 60 76.09 69.67 84.34 69.67 84.34 78.1 93.34 78.1 93.34 87 101.84 87 101.84 95.75 110.34 95.75 110.34 105.25 119.34 105.25 119.34 113.75 127.09 113.75 127.09 122.26 136.37 122.26 136.37 148.56"/><polyline style="fill:none;stroke:#3a53a4;stroke-width:.5;stroke-linecap:square;stroke-linejoin:round" points="42.25 149.26 42.35 123.5 50.8 123.5 50.8 114 59.36 114 59.36 105.5 66.84 105.5 66.84 96 76.47 96 76.47 87.5 84.56 87.5 84.34 78.1 93.34 78.1 93.34 69.67 101.85 69.67 101.85 60.5 110.7 60.5 110.7 51.76 119.26 51.76 119.26 42.5 127.06 42.5 127.06 33.5 136.37 33.5 136.37 6.75"/><text transform="translate(138.48 13.338)" style="font-family:'Asap-Regular';font-size:6px">Supply</text></svg>