<svg version="1.1" xmlns="http://www.w3.org/2000/svg" x="0" y="0" viewBox="0 0 311.81 385.48" style="enable-background:new 0 0 311.81 385.48" xml:space="preserve"><line style="fill:none;stroke:#000;stroke-width:.5;stroke-linejoin:round" x1="98.15" y1="26.88" x2="98.15" y2="155.24"/><line style="fill:none;stroke:#000;stroke-width:.5;stroke-linejoin:round" x1="153.74" y1="26.66" x2="153.74" y2="155.02"/><line style="fill:none;stroke:#000;stroke-width:.5;stroke-linejoin:round" x1="183.94" y1="26.66" x2="183.94" y2="155.02"/><line style="fill:none;stroke:#939598;stroke-width:.5;stroke-linejoin:round;stroke-dasharray:1.417" x1="68.91" y1="76.4" x2="153.74" y2="76.4"/><line style="fill:none;stroke:#000;stroke-width:.5;stroke-linecap:square;stroke-linejoin:round" x1="68.62" y1="127.75" x2="235.96" y2="26.86"/><rect x="44.77" y="55.33" style="fill:none" width="21.98" height="6.92"/><text transform="translate(48.108 60.596)" style="font-family:'Asap-Regular';font-size:7px">€725</text><rect x="44.77" y="74.13" style="fill:none" width="21.98" height="6.92"/><text transform="translate(48.108 79.393)" style="font-family:'Asap-Regular';font-size:7px">€675</text><rect x="44.77" y="107.14" style="fill:none" width="21.98" height="6.92"/><text transform="translate(48.108 112.406)" style="font-family:'Asap-Regular';font-size:7px">€600</text><rect x="44.77" y="124.78" style="fill:none" width="21.98" height="6.92"/><text transform="translate(48.108 130.045)" style="font-family:'Asap-Regular';font-size:7px">€550</text><rect x="77.38" y="2.05" style="fill:none" width="41.53" height="21.93"/><text transform="translate(87.397 6.567)"><tspan x="0" y="0" style="font-family:'Asap-Regular';font-size:6px">A</tspan><tspan x="3.68" y="0" style="font-family:'Asap-Regular';font-size:6px">v</tspan><tspan x="6.53" y="0" style="font-family:'Asap-Regular';font-size:6px">e</tspan><tspan x="9.76" y="0" style="font-family:'Asap-Regular';font-size:6px">r</tspan><tspan x="11.84" y="0" style="font-family:'Asap-Regular';font-size:6px">a</tspan><tspan x="15.11" y="0" style="font-family:'Asap-Regular';font-size:6px">g</tspan><tspan x="18.26" y="0" style="font-family:'Asap-Regular';font-size:6px">e</tspan><tspan x="-7.51" y="8" style="font-family:'Asap-Regular';font-size:6px">quitting when </tspan><tspan x="2.26" y="16" style="font-family:'Asap-Italic';font-size:6px">N </tspan><tspan x="8.02" y="16" style="font-family:'Asap-Regular';font-size:6px">= 20</tspan></text><rect x="133.93" y="2.05" style="fill:none" width="39.72" height="21.93"/><text transform="translate(143.034 6.567)"><tspan x="0" y="0" style="font-family:'Asap-Regular';font-size:6px">A</tspan><tspan x="3.68" y="0" style="font-family:'Asap-Regular';font-size:6px">v</tspan><tspan x="6.53" y="0" style="font-family:'Asap-Regular';font-size:6px">e</tspan><tspan x="9.76" y="0" style="font-family:'Asap-Regular';font-size:6px">r</tspan><tspan x="11.84" y="0" style="font-family:'Asap-Regular';font-size:6px">a</tspan><tspan x="15.11" y="0" style="font-family:'Asap-Regular';font-size:6px">g</tspan><tspan x="18.26" y="0" style="font-family:'Asap-Regular';font-size:6px">e</tspan><tspan x="-7.51" y="8" style="font-family:'Asap-Regular';font-size:6px">quitting when </tspan><tspan x="2.26" y="16" style="font-family:'Asap-Italic';font-size:6px">N </tspan><tspan x="8.02" y="16" style="font-family:'Asap-Regular';font-size:6px">= 50</tspan></text><rect x="174.12" y="2.05" style="fill:none" width="39.58" height="21.93"/><text transform="translate(183.163 6.567)"><tspan x="0" y="0" style="font-family:'Asap-Regular';font-size:6px">A</tspan><tspan x="3.68" y="0" style="font-family:'Asap-Regular';font-size:6px">v</tspan><tspan x="6.53" y="0" style="font-family:'Asap-Regular';font-size:6px">e</tspan><tspan x="9.76" y="0" style="font-family:'Asap-Regular';font-size:6px">r</tspan><tspan x="11.84" y="0" style="font-family:'Asap-Regular';font-size:6px">a</tspan><tspan x="15.11" y="0" style="font-family:'Asap-Regular';font-size:6px">g</tspan><tspan x="18.26" y="0" style="font-family:'Asap-Regular';font-size:6px">e</tspan><tspan x="-7.51" y="8" style="font-family:'Asap-Regular';font-size:6px">quitting when </tspan><tspan x="2.26" y="16" style="font-family:'Asap-Italic';font-size:6px">N </tspan><tspan x="8.02" y="16" style="font-family:'Asap-Regular';font-size:6px">= 70</tspan></text><rect x="216.6" y="41.78" style="fill:none" width="49.14" height="16.26"/><text transform="translate(216.601 46.296)"><tspan x="0" y="0" style="font-family:'Asap-Regular';font-size:6px">Hi</tspan><tspan x="5.99" y="0" style="font-family:'Asap-Regular';font-size:6px">r</tspan><tspan x="8.06" y="0" style="font-family:'Asap-Regular';font-size:6px">es per</tspan><tspan x="0" y="7.2" style="font-family:'Asap-Regular';font-size:6px">we</tspan><tspan x="7.6" y="7.2" style="font-family:'Asap-Regular';font-size:6px">ek</tspan></text><rect x="183.72" y="169.87" style="fill:none" width="116.72" height="17.51"/><text transform="translate(193.622 175.898)"><tspan x="0" y="0" style="font-family:'Asap-Medium';font-size:8px">A</tspan><tspan x="4.9" y="0" style="font-family:'Asap-Medium';font-size:8px">v</tspan><tspan x="8.7" y="0" style="font-family:'Asap-Medium';font-size:8px">e</tspan><tspan x="13.02" y="0" style="font-family:'Asap-Medium';font-size:8px">r</tspan><tspan x="15.78" y="0" style="font-family:'Asap-Medium';font-size:8px">a</tspan><tspan x="20.14" y="0" style="font-family:'Asap-Medium';font-size:8px">g</tspan><tspan x="24.35" y="0" style="font-family:'Asap-Medium';font-size:8px">e number of </tspan><tspan x="69.06" y="0" style="font-family:'Asap-Medium';font-size:8px">w</tspan><tspan x="74.96" y="0" style="font-family:'Asap-Medium';font-size:8px">or</tspan><tspan x="82.44" y="0" style="font-family:'Asap-Medium';font-size:8px">k</tspan><tspan x="86.37" y="0" style="font-family:'Asap-Medium';font-size:8px">ers</tspan><tspan x="3.25" y="9.6" style="font-family:'Asap-Medium';font-size:8px">arriving/</tspan><tspan x="33.78" y="9.6" style="font-family:'Asap-Medium';font-size:8px">l</tspan><tspan x="35.9" y="9.6" style="font-family:'Asap-Medium';font-size:8px">eaving per </tspan><tspan x="75.06" y="9.6" style="font-family:'Asap-Medium';font-size:8px">we</tspan><tspan x="85.18" y="9.6" style="font-family:'Asap-Medium';font-size:8px">ek</tspan></text><circle cx="153.74" cy="76.4" r="1.13"/><line style="fill:none;stroke:#939598;stroke-width:.5;stroke-linecap:square;stroke-linejoin:round;stroke-dasharray:1.417" x1="98.15" y1="155.24" x2="98.15" y2="353.94"/><line style="fill:none;stroke:#939598;stroke-width:.5;stroke-linecap:square;stroke-linejoin:round;stroke-dasharray:1.417" x1="153.74" y1="155.24" x2="153.74" y2="353.72"/><line style="fill:none;stroke:#939598;stroke-width:.5;stroke-linecap:square;stroke-linejoin:round;stroke-dasharray:1.417" x1="183.94" y1="155.24" x2="183.94" y2="353.72"/><line style="fill:none;stroke:#939598;stroke-width:.5;stroke-linejoin:round;stroke-dasharray:1.417" x1="69.19" y1="275.11" x2="154.03" y2="275.11"/><line style="fill:none;stroke:#000;stroke-width:.5;stroke-linecap:square;stroke-linejoin:round" x1="68.87" y1="326.45" x2="236.48" y2="225.34"/><rect x="45.05" y="254.12" style="fill:none" width="21.98" height="6.92"/><text transform="translate(48.395 259.382)" style="font-family:'Asap-Regular';font-size:7px">€725</text><rect x="45.05" y="272.86" style="fill:none" width="21.98" height="6.92"/><text transform="translate(48.395 278.12)" style="font-family:'Asap-Regular';font-size:7px">€675</text><rect x="45.05" y="305.89" style="fill:none" width="21.98" height="6.92"/><text transform="translate(48.395 311.156)" style="font-family:'Asap-Regular';font-size:7px">€600</text><rect x="45.05" y="323.58" style="fill:none" width="21.98" height="6.92"/><text transform="translate(48.395 328.848)" style="font-family:'Asap-Regular';font-size:7px">€550</text><rect x="201.63" y="239.57" style="fill:none" width="70.47" height="28.93"/><text transform="translate(233.57 244.67)"><tspan x="0" y="0" style="font-family:'Asap-Regular';font-size:6px">W</tspan><tspan x="5.22" y="0" style="font-family:'Asap-Regular';font-size:6px">a</tspan><tspan x="8.49" y="0" style="font-family:'Asap-Regular';font-size:6px">g</tspan><tspan x="11.65" y="0" style="font-family:'Asap-Regular';font-size:6px">e </tspan><tspan x="16.32" y="0" style="font-family:'Asap-Regular';font-size:6px">r</tspan><tspan x="18.4" y="0" style="font-family:'Asap-Regular';font-size:6px">e</tspan><tspan x="21.57" y="0" style="font-family:'Asap-Regular';font-size:6px">qui</tspan><tspan x="29.9" y="0" style="font-family:'Asap-Regular';font-size:6px">r</tspan><tspan x="31.97" y="0" style="font-family:'Asap-Regular';font-size:6px">e</tspan><tspan x="35.15" y="0" style="font-family:'Asap-Regular';font-size:6px">d</tspan><tspan x="-16.03" y="7.2" style="font-family:'Asap-Regular';font-size:6px">to emp</tspan><tspan x="2.63" y="7.2" style="font-family:'Asap-Regular';font-size:6px">l</tspan><tspan x="4.22" y="7.2" style="font-family:'Asap-Regular';font-size:6px">o</tspan><tspan x="7.57" y="7.2" style="font-family:'Asap-Regular';font-size:6px">y </tspan><tspan x="11.9" y="7.2" style="font-family:'Asap-Italic';font-size:6px">N</tspan><tspan x="16.21" y="7.2" style="font-family:'Asap-Regular';font-size:6px"> </tspan><tspan x="17.65" y="7.2" style="font-family:'Asap-Regular';font-size:6px">w</tspan><tspan x="22.07" y="7.2" style="font-family:'Asap-Regular';font-size:6px">or</tspan><tspan x="27.68" y="7.2" style="font-family:'Asap-Regular';font-size:6px">k</tspan><tspan x="30.63" y="7.2" style="font-family:'Asap-Regular';font-size:6px">ers</tspan><tspan x="-27.89" y="14.4" style="font-family:'Asap-Regular';font-size:6px">(Reser</tspan><tspan x="-11.28" y="14.4" style="font-family:'Asap-Regular';font-size:6px">v</tspan><tspan x="-8.43" y="14.4" style="font-family:'Asap-Regular';font-size:6px">ation </tspan><tspan x="6.68" y="14.4" style="font-family:'Asap-Regular';font-size:6px">w</tspan><tspan x="11.1" y="14.4" style="font-family:'Asap-Regular';font-size:6px">a</tspan><tspan x="14.37" y="14.4" style="font-family:'Asap-Regular';font-size:6px">g</tspan><tspan x="17.53" y="14.4" style="font-family:'Asap-Regular';font-size:6px">e cur</tspan><tspan x="30.65" y="14.4" style="font-family:'Asap-Regular';font-size:6px">v</tspan><tspan x="33.5" y="14.4" style="font-family:'Asap-Regular';font-size:6px">e)</tspan></text><rect x="96.43" y="375.31" style="fill:none" width="117.02" height="7.91"/><text transform="translate(96.43 381.332)"><tspan x="0" y="0" style="font-family:'Asap-Medium';font-size:8px">Number of </tspan><tspan x="39.78" y="0" style="font-family:'Asap-Medium';font-size:8px">w</tspan><tspan x="45.67" y="0" style="font-family:'Asap-Medium';font-size:8px">or</tspan><tspan x="53.15" y="0" style="font-family:'Asap-Medium';font-size:8px">k</tspan><tspan x="57.08" y="0" style="font-family:'Asap-Medium';font-size:8px">ers emp</tspan><tspan x="85.22" y="0" style="font-family:'Asap-Medium';font-size:8px">l</tspan><tspan x="87.33" y="0" style="font-family:'Asap-Medium';font-size:8px">oye</tspan><tspan x="99.81" y="0" style="font-family:'Asap-Medium';font-size:8px">d, </tspan><tspan x="107.83" y="0" style="font-family:'Asap-MediumItalic';font-size:8px">N</tspan></text><rect x="81.72" y="359.58" style="fill:none" width="33.43" height="6.92"/><text transform="translate(94.687 364.841)" style="font-family:'Asap-Regular';font-size:7px">20</text><rect x="137.31" y="359.58" style="fill:none" width="33.43" height="6.92"/><text transform="translate(150.287 364.841)" style="font-family:'Asap-Regular';font-size:7px">50</text><rect x="167.51" y="359.58" style="fill:none" width="33.43" height="6.92"/><text transform="translate(180.486 364.841)" style="font-family:'Asap-Regular';font-size:7px">70</text><circle cx="154.03" cy="275.11" r="1.13"/><line style="fill:none;stroke:#939598;stroke-width:.5;stroke-linejoin:round;stroke-dasharray:1.417" x1="68.74" y1="256.75" x2="183.78" y2="256.75"/><line style="fill:none;stroke:#939598;stroke-width:.5;stroke-linejoin:round;stroke-dasharray:1.417" x1="68.97" y1="308.81" x2="98.21" y2="308.81"/><circle cx="98.21" cy="308.81" r="1.13"/><circle cx="184.23" cy="256.75" r="1.13"/><line style="fill:none;stroke:#6d6e71;stroke-width:.5;stroke-linecap:square" x1="236.58" y1="155.24" x2="68.91" y2="155.24"/><line style="fill:none;stroke:#6d6e71;stroke-width:.5;stroke-linecap:square" x1="236.87" y1="353.95" x2="69.19" y2="353.95"/><line style="fill:none;stroke:#6d6e71;stroke-width:.5;stroke-linecap:square" x1="68.75" y1="225.59" x2="68.75" y2="353.95"/><line style="fill:none;stroke:#6d6e71;stroke-width:.5;stroke-linecap:square" x1="68.47" y1="26.88" x2="68.47" y2="155.24"/><text transform="rotate(-90 67.982 43.34)"><tspan x="0" y="0" style="font-family:'Asap-Medium';font-size:8px">W</tspan><tspan x="6.96" y="0" style="font-family:'Asap-Medium';font-size:8px">e</tspan><tspan x="11.19" y="0" style="font-family:'Asap-Medium';font-size:8px">ek</tspan><tspan x="19.67" y="0" style="font-family:'Asap-Medium';font-size:8px">l</tspan><tspan x="21.97" y="0" style="font-family:'Asap-Medium';font-size:8px">y </tspan><tspan x="27.74" y="0" style="font-family:'Asap-Medium';font-size:8px">w</tspan><tspan x="33.63" y="0" style="font-family:'Asap-Medium';font-size:8px">a</tspan><tspan x="37.99" y="0" style="font-family:'Asap-Medium';font-size:8px">g</tspan><tspan x="42.2" y="0" style="font-family:'Asap-Medium';font-size:8px">e, </tspan><tspan x="50.02" y="0" style="font-family:'Asap-MediumItalic';font-size:8px">w</tspan></text><text transform="rotate(-90 167.334 142.692)"><tspan x="0" y="0" style="font-family:'Asap-Medium';font-size:8px">W</tspan><tspan x="6.96" y="0" style="font-family:'Asap-Medium';font-size:8px">e</tspan><tspan x="11.19" y="0" style="font-family:'Asap-Medium';font-size:8px">ek</tspan><tspan x="19.67" y="0" style="font-family:'Asap-Medium';font-size:8px">l</tspan><tspan x="21.97" y="0" style="font-family:'Asap-Medium';font-size:8px">y </tspan><tspan x="27.74" y="0" style="font-family:'Asap-Medium';font-size:8px">w</tspan><tspan x="33.63" y="0" style="font-family:'Asap-Medium';font-size:8px">a</tspan><tspan x="37.99" y="0" style="font-family:'Asap-Medium';font-size:8px">g</tspan><tspan x="42.2" y="0" style="font-family:'Asap-Medium';font-size:8px">e, </tspan><tspan x="50.02" y="0" style="font-family:'Asap-MediumItalic';font-size:8px">w</tspan></text><line style="fill:none;stroke:#6d6e71;stroke-width:.5;stroke-linecap:square;stroke-linejoin:round" x1="68.31" y1="76.4" x2="66.19" y2="76.4"/><line style="fill:none;stroke:#6d6e71;stroke-width:.5;stroke-linecap:square;stroke-linejoin:round" x1="68.31" y1="58.09" x2="66.19" y2="58.09"/><line style="fill:none;stroke:#6d6e71;stroke-width:.5;stroke-linecap:square;stroke-linejoin:round" x1="68.31" y1="127.75" x2="66.19" y2="127.75"/><line style="fill:none;stroke:#6d6e71;stroke-width:.5;stroke-linecap:square;stroke-linejoin:round" x1="68.31" y1="109.81" x2="66.19" y2="109.81"/><line style="fill:none;stroke:#6d6e71;stroke-width:.5;stroke-linecap:square;stroke-linejoin:round" x1="68.75" y1="326.45" x2="66.63" y2="326.45"/><line style="fill:none;stroke:#6d6e71;stroke-width:.5;stroke-linecap:square;stroke-linejoin:round" x1="68.75" y1="308.81" x2="66.63" y2="308.81"/><line style="fill:none;stroke:#6d6e71;stroke-width:.5;stroke-linecap:square;stroke-linejoin:round" x1="68.75" y1="275.11" x2="66.63" y2="275.11"/><line style="fill:none;stroke:#6d6e71;stroke-width:.5;stroke-linecap:square;stroke-linejoin:round" x1="68.75" y1="256.75" x2="66.63" y2="256.75"/><line style="fill:none;stroke:#6d6e71;stroke-width:.5;stroke-linecap:square;stroke-linejoin:round" x1="153.74" y1="155.24" x2="153.74" y2="157.36"/><line style="fill:none;stroke:#6d6e71;stroke-width:.5;stroke-linecap:square;stroke-linejoin:round" x1="183.94" y1="155.24" x2="183.94" y2="157.36"/><line style="fill:none;stroke:#6d6e71;stroke-width:.5;stroke-linecap:square;stroke-linejoin:round" x1="98.15" y1="155.24" x2="98.15" y2="157.36"/><line style="fill:none;stroke:#6d6e71;stroke-width:.5;stroke-linecap:square;stroke-linejoin:round" x1="183.94" y1="353.95" x2="183.94" y2="356.07"/><line style="fill:none;stroke:#6d6e71;stroke-width:.5;stroke-linecap:square;stroke-linejoin:round" x1="153.74" y1="353.95" x2="153.74" y2="356.07"/><line style="fill:none;stroke:#6d6e71;stroke-width:.5;stroke-linecap:square;stroke-linejoin:round" x1="98.15" y1="353.95" x2="98.15" y2="356.07"/><ellipse style="fill:none;stroke:#ec2326;stroke-width:.5;stroke-linecap:square;stroke-linejoin:round" cx="153.74" cy="164.03" rx="10.03" ry="5.85"/><rect x="149.89" y="160.12" style="fill:#fff" width="7.41" height="7.41"/><rect x="137.03" y="160.87" style="fill:none" width="33.43" height="6.92"/><text transform="translate(151.873 166.139)" style="font-family:'Asap-Regular';font-size:7px">2</text><rect x="180.56" y="159.92" style="fill:#fff" width="7.41" height="7.41"/><rect x="167.23" y="160.87" style="fill:none" width="33.43" height="6.92"/><text transform="translate(179.507 166.139)" style="font-family:'Asap-Regular';font-size:7px">2.8</text><rect x="93.99" y="160.12" style="fill:#fff" width="7.41" height="7.41"/><rect x="81.43" y="160.87" style="fill:none" width="33.43" height="6.92"/><text transform="translate(93.708 166.139)" style="font-family:'Asap-Regular';font-size:7px">0.8</text><ellipse style="fill:none;stroke:#ec2326;stroke-width:.5;stroke-linecap:square;stroke-linejoin:round" cx="153.59" cy="362.02" rx="10.03" ry="5.85"/><ellipse style="fill:none;stroke:#ec2326;stroke-width:.5;stroke-linecap:square;stroke-linejoin:round" cx="55.76" cy="275.11" rx="10.03" ry="5.85"/><ellipse style="fill:none;stroke:#ec2326;stroke-width:.5;stroke-linecap:square;stroke-linejoin:round" cx="55.86" cy="76.4" rx="10.03" ry="5.85"/><ellipse style="fill:none;stroke:#ec2326;stroke-width:.5;stroke-linecap:square;stroke-linejoin:round" cx="153.44" cy="20.6" rx="10.96" ry="3.99"/></svg>