<svg xmlns="http://www.w3.org/2000/svg" viewBox="0 0 810 426"><rect width="100%" height="100%" style="stroke:none;fill:#fff;stroke-linecap:round;stroke-linejoin:round;stroke-miterlimit:10"/><rect x="0" y="0" width="810" height="426" style="stroke-width:1.07;stroke:#fff;fill:#fff;stroke-linecap:round;stroke-linejoin:round;stroke-miterlimit:10"/><rect x="93.34" y="14.17" width="688.32" height="330.93" style="stroke-width:1.07;stroke:none;fill:#fff;stroke-linecap:round;stroke-linejoin:round;stroke-miterlimit:10"/><polyline points="93.34 345.1 781.65 345.1" style="stroke-width:1.07;stroke:#c6c4c4;stroke-linecap:butt;fill:none;stroke-linejoin:round;stroke-miterlimit:10"/><polyline points="93.34 262.37 781.65 262.37" style="stroke-width:1.07;stroke:#c6c4c4;stroke-linecap:butt;fill:none;stroke-linejoin:round;stroke-miterlimit:10"/><polyline points="93.34 179.64 781.65 179.64" style="stroke-width:1.07;stroke:#c6c4c4;stroke-linecap:butt;fill:none;stroke-linejoin:round;stroke-miterlimit:10"/><polyline points="93.34 96.91 781.65 96.91" style="stroke-width:1.07;stroke:#c6c4c4;stroke-linecap:butt;fill:none;stroke-linejoin:round;stroke-miterlimit:10"/><polyline points="93.34 14.17 781.65 14.17" style="stroke-width:1.07;stroke:#c6c4c4;stroke-linecap:butt;fill:none;stroke-linejoin:round;stroke-miterlimit:10"/><polyline points="268.03 66.69 263.32 44.64 266.1 100.53 249.8 50.5 250.26 50.81 253.09 50.63 257.16 52.63 258.73 80.07 252.66 37.01 269.54 63.46 286.58 87.65 295.78 119.98 301.19 137.53 299.32 171.54 316.42 194.94 314.31 179.43 334.26 172.1 337.97 169.29 379.68 245.62 396.27 225.55 419.12 250.01 438.7 195.52 451.88 169.51 466.73 178.09 479.68 166.56 477.64 83.93 468.84 176 465.2 150.31 464.11 198.36 472.57 149.1 485.09 158.13 493.9 158.54 487.42 105.36 509.91 64.69" style="stroke-width:1.2;stroke:#ed1f24;stroke-linecap:butt;fill:none;stroke-linejoin:round;stroke-miterlimit:10"/><line x1="263.32" y1="44.64" x2="332.15" y2="44.64" style="stroke-width:.53;stroke-linecap:butt;fill:none;stroke:#000;stroke-linejoin:round;stroke-miterlimit:10"/><line x1="266.1" y1="100.53" x2="197.26" y2="111.56" style="stroke-width:.53;stroke-linecap:butt;fill:none;stroke:#000;stroke-linejoin:round;stroke-miterlimit:10"/><line x1="252.66" y1="37.01" x2="149.41" y2="37.01" style="stroke-width:.53;stroke-linecap:butt;fill:none;stroke:#000;stroke-linejoin:round;stroke-miterlimit:10"/><line x1="334.26" y1="172.1" x2="368.67" y2="133.49" style="stroke-width:.53;stroke-linecap:butt;fill:none;stroke:#000;stroke-linejoin:round;stroke-miterlimit:10"/><line x1="379.68" y1="245.62" x2="310.84" y2="251.13" style="stroke-width:.53;stroke-linecap:butt;fill:none;stroke:#000;stroke-linejoin:round;stroke-miterlimit:10"/><line x1="396.27" y1="225.55" x2="396.27" y2="280.71" style="stroke-width:.53;stroke-linecap:butt;fill:none;stroke:#000;stroke-linejoin:round;stroke-miterlimit:10"/><line x1="419.12" y1="250.01" x2="439.77" y2="294.14" style="stroke-width:.53;stroke-linecap:butt;fill:none;stroke:#000;stroke-linejoin:round;stroke-miterlimit:10"/><line x1="509.91" y1="64.69" x2="534" y2="56.42" style="stroke-width:.53;stroke-linecap:butt;fill:none;stroke:#000;stroke-linejoin:round;stroke-miterlimit:10"/><polygon points="312.84 53.15 351.46 53.15 351.37 53.15 351.72 53.13 352.06 53.06 352.38 52.94 352.69 52.77 352.96 52.55 353.19 52.29 353.37 51.99 353.51 51.67 353.59 51.34 353.62 50.99 353.62 50.99 353.62 38.28 353.62 38.28 353.59 37.94 353.51 37.6 353.37 37.28 353.19 36.98 352.96 36.72 352.69 36.5 352.38 36.33 352.06 36.21 351.72 36.14 351.46 36.12 312.84 36.12 313.1 36.14 312.75 36.12 312.4 36.17 312.07 36.26 311.76 36.41 311.47 36.61 311.22 36.85 311.01 37.13 310.85 37.44 310.74 37.76 310.68 38.11 310.68 38.28 310.68 50.99 310.68 50.82 310.68 51.16 310.74 51.51 310.85 51.84 311.01 52.14 311.22 52.42 311.47 52.66 311.76 52.86 312.07 53.01 312.4 53.11 312.75 53.15" style="stroke-width:nan;stroke:none;fill:#fff;stroke-linecap:round;stroke-linejoin:round;stroke-miterlimit:10"/><text x="314.28" y="49.55" style="font-size:14px;font-family:Asap" textLength="35.74" lengthAdjust="spacingAndGlyphs">1420s</text><polygon points="177.95 120.08 216.58 120.08 216.49 120.08 216.84 120.06 217.18 119.99 217.5 119.87 217.8 119.7 218.07 119.48 218.3 119.22 218.49 118.92 218.62 118.6 218.71 118.26 218.74 117.92 218.74 117.92 218.74 105.21 218.74 105.21 218.71 104.86 218.62 104.53 218.49 104.21 218.3 103.91 218.07 103.65 217.8 103.43 217.5 103.26 217.18 103.14 216.84 103.07 216.58 103.05 177.95 103.05 178.21 103.07 177.87 103.05 177.52 103.09 177.19 103.19 176.87 103.34 176.59 103.54 176.34 103.78 176.13 104.06 175.97 104.36 175.86 104.69 175.8 105.04 175.79 105.21 175.79 117.92 175.8 117.74 175.8 118.09 175.86 118.43 175.97 118.76 176.13 119.07 176.34 119.35 176.59 119.59 176.87 119.79 177.19 119.94 177.52 120.03 177.87 120.08" style="stroke-width:nan;stroke:none;fill:#fff;stroke-linecap:round;stroke-linejoin:round;stroke-miterlimit:10"/><text x="179.39" y="116.48" style="font-size:14px;font-family:Asap" textLength="35.74" lengthAdjust="spacingAndGlyphs">1430s</text><polygon points="130.1 45.53 168.72 45.53 168.64 45.53 168.99 45.51 169.33 45.44 169.65 45.32 169.95 45.15 170.22 44.93 170.45 44.67 170.64 44.37 170.77 44.05 170.86 43.71 170.88 43.37 170.88 43.37 170.88 30.66 170.88 30.66 170.86 30.31 170.77 29.98 170.64 29.66 170.45 29.36 170.22 29.1 169.95 28.88 169.65 28.71 169.33 28.59 168.99 28.52 168.72 28.5 130.1 28.5 130.36 28.52 130.02 28.5 129.67 28.54 129.34 28.64 129.02 28.79 128.74 28.99 128.49 29.23 128.28 29.51 128.12 29.81 128.01 30.14 127.95 30.49 127.94 30.66 127.94 43.37 127.95 43.19 127.95 43.54 128.01 43.88 128.12 44.21 128.28 44.52 128.49 44.8 128.74 45.04 129.02 45.24 129.34 45.39 129.67 45.48 130.02 45.53" style="stroke-width:nan;stroke:none;fill:#fff;stroke-linecap:round;stroke-linejoin:round;stroke-miterlimit:10"/><text x="131.54" y="41.93" style="font-size:14px;font-family:Asap" textLength="35.74" lengthAdjust="spacingAndGlyphs">1490s</text><polygon points="349.36 142.01 387.98 142.01 387.9 142.01 388.24 141.99 388.58 141.92 388.91 141.8 389.21 141.63 389.48 141.41 389.71 141.15 389.9 140.85 390.03 140.53 390.12 140.19 390.14 139.85 390.14 139.85 390.14 127.14 390.14 127.14 390.12 126.79 390.03 126.46 389.9 126.14 389.71 125.84 389.48 125.58 389.21 125.36 388.91 125.19 388.58 125.06 388.24 125 387.98 124.98 349.36 124.98 349.62 125 349.27 124.98 348.93 125.02 348.6 125.12 348.28 125.27 348 125.47 347.74 125.71 347.54 125.99 347.37 126.29 347.26 126.62 347.21 126.97 347.2 127.14 347.2 139.85 347.21 139.67 347.21 140.02 347.26 140.36 347.37 140.69 347.54 141 347.74 141.28 348 141.52 348.28 141.72 348.6 141.87 348.93 141.96 349.27 142.01" style="stroke-width:nan;stroke:none;fill:#fff;stroke-linecap:round;stroke-linejoin:round;stroke-miterlimit:10"/><text x="350.8" y="138.41" style="font-size:14px;font-family:Asap" textLength="35.74" lengthAdjust="spacingAndGlyphs">1570s</text><polygon points="291.53 259.65 330.16 259.65 330.07 259.65 330.42 259.63 330.76 259.56 331.08 259.44 331.38 259.27 331.65 259.05 331.88 258.79 332.07 258.49 332.2 258.17 332.29 257.83 332.32 257.49 332.32 257.49 332.32 244.78 332.32 244.78 332.29 244.43 332.2 244.1 332.07 243.78 331.88 243.48 331.65 243.22 331.38 243 331.08 242.83 330.76 242.71 330.42 242.64 330.16 242.62 291.53 242.62 291.79 242.64 291.45 242.62 291.1 242.66 290.77 242.76 290.45 242.91 290.17 243.11 289.92 243.35 289.71 243.63 289.55 243.93 289.44 244.26 289.38 244.61 289.37 244.78 289.37 257.49 289.38 257.31 289.38 257.66 289.44 258.01 289.55 258.33 289.71 258.64 289.92 258.92 290.17 259.16 290.45 259.36 290.77 259.51 291.1 259.6 291.45 259.65" style="stroke-width:nan;stroke:none;fill:#fff;stroke-linecap:round;stroke-linejoin:round;stroke-miterlimit:10"/><text x="292.97" y="256.05" style="font-size:14px;font-family:Asap" textLength="35.74" lengthAdjust="spacingAndGlyphs">1590s</text><polygon points="376.96 289.22 415.58 289.22 415.49 289.22 415.84 289.21 416.18 289.14 416.51 289.01 416.81 288.84 417.08 288.62 417.31 288.36 417.49 288.07 417.63 287.75 417.71 287.41 417.74 287.06 417.74 287.06 417.74 274.35 417.74 274.35 417.71 274.01 417.63 273.67 417.49 273.35 417.31 273.06 417.08 272.8 416.81 272.58 416.51 272.4 416.18 272.28 415.84 272.21 415.58 272.19 376.96 272.19 377.22 272.21 376.87 272.2 376.53 272.24 376.19 272.33 375.88 272.48 375.59 272.68 375.34 272.92 375.13 273.2 374.97 273.51 374.86 273.84 374.81 274.18 374.8 274.35 374.8 287.06 374.81 286.89 374.81 287.24 374.86 287.58 374.97 287.91 375.13 288.22 375.34 288.49 375.59 288.74 375.88 288.93 376.19 289.08 376.53 289.18 376.87 289.22" style="stroke-width:nan;stroke:none;fill:#fff;stroke-linecap:round;stroke-linejoin:round;stroke-miterlimit:10"/><text x="378.4" y="285.62" style="font-size:14px;font-family:Asap" textLength="35.74" lengthAdjust="spacingAndGlyphs">1600s</text><polygon points="420.46 302.65 459.08 302.65 459 302.65 459.35 302.64 459.69 302.57 460.01 302.44 460.31 302.27 460.58 302.05 460.81 301.79 461 301.5 461.13 301.18 461.22 300.84 461.24 300.49 461.24 300.49 461.24 287.78 461.24 287.78 461.22 287.44 461.13 287.1 461 286.78 460.81 286.49 460.58 286.23 460.31 286.01 460.01 285.83 459.69 285.71 459.35 285.64 459.08 285.62 420.46 285.62 420.72 285.64 420.38 285.63 420.03 285.67 419.7 285.76 419.38 285.91 419.1 286.11 418.85 286.35 418.64 286.63 418.48 286.94 418.37 287.27 418.31 287.61 418.3 287.78 418.3 300.49 418.31 300.32 418.31 300.67 418.37 301.01 418.48 301.34 418.64 301.65 418.85 301.92 419.1 302.17 419.38 302.36 419.7 302.51 420.03 302.61 420.38 302.65" style="stroke-width:nan;stroke:none;fill:#fff;stroke-linecap:round;stroke-linejoin:round;stroke-miterlimit:10"/><text x="421.9" y="299.05" style="font-size:14px;font-family:Asap" textLength="35.74" lengthAdjust="spacingAndGlyphs">1610s</text><polygon points="514.69 64.93 553.31 64.93 553.22 64.93 553.57 64.91 553.91 64.84 554.24 64.72 554.54 64.55 554.81 64.33 555.04 64.07 555.22 63.77 555.36 63.45 555.44 63.12 555.47 62.77 555.47 62.77 555.47 50.06 555.47 50.06 555.44 49.72 555.36 49.38 555.22 49.06 555.04 48.76 554.81 48.5 554.54 48.28 554.24 48.11 553.91 47.99 553.57 47.92 553.31 47.9 514.69 47.9 514.95 47.92 514.6 47.9 514.26 47.95 513.92 48.04 513.61 48.19 513.32 48.39 513.07 48.63 512.86 48.91 512.7 49.22 512.59 49.55 512.54 49.89 512.53 50.06 512.53 62.77 512.54 62.6 512.54 62.94 512.59 63.29 512.7 63.62 512.86 63.92 513.07 64.2 513.32 64.44 513.61 64.64 513.92 64.79 514.26 64.89 514.6 64.93" style="stroke-width:nan;stroke:none;fill:#fff;stroke-linecap:round;stroke-linejoin:round;stroke-miterlimit:10"/><text x="516.13" y="61.33" style="font-size:14px;font-family:Asap" textLength="35.74" lengthAdjust="spacingAndGlyphs">1740s</text><circle cx="268.03" cy="66.69" r="2.2" style="stroke-width:1.2;stroke:#ed1f24;fill:#ed1f24;stroke-linecap:round;stroke-linejoin:round;stroke-miterlimit:10"/><circle cx="263.32" cy="44.64" r="2.2" style="stroke-width:1.2;stroke:#ed1f24;fill:#ed1f24;stroke-linecap:round;stroke-linejoin:round;stroke-miterlimit:10"/><circle cx="266.1" cy="100.53" r="2.2" style="stroke-width:1.2;stroke:#ed1f24;fill:#ed1f24;stroke-linecap:round;stroke-linejoin:round;stroke-miterlimit:10"/><circle cx="249.8" cy="50.5" r="2.2" style="stroke-width:1.2;stroke:#ed1f24;fill:#ed1f24;stroke-linecap:round;stroke-linejoin:round;stroke-miterlimit:10"/><circle cx="250.26" cy="50.81" r="2.2" style="stroke-width:1.2;stroke:#ed1f24;fill:#ed1f24;stroke-linecap:round;stroke-linejoin:round;stroke-miterlimit:10"/><circle cx="253.09" cy="50.63" r="2.2" style="stroke-width:1.2;stroke:#ed1f24;fill:#ed1f24;stroke-linecap:round;stroke-linejoin:round;stroke-miterlimit:10"/><circle cx="257.16" cy="52.63" r="2.2" style="stroke-width:1.2;stroke:#ed1f24;fill:#ed1f24;stroke-linecap:round;stroke-linejoin:round;stroke-miterlimit:10"/><circle cx="258.73" cy="80.07" r="2.2" style="stroke-width:1.2;stroke:#ed1f24;fill:#ed1f24;stroke-linecap:round;stroke-linejoin:round;stroke-miterlimit:10"/><circle cx="252.66" cy="37.01" r="2.2" style="stroke-width:1.2;stroke:#ed1f24;fill:#ed1f24;stroke-linecap:round;stroke-linejoin:round;stroke-miterlimit:10"/><circle cx="269.54" cy="63.46" r="2.2" style="stroke-width:1.2;stroke:#ed1f24;fill:#ed1f24;stroke-linecap:round;stroke-linejoin:round;stroke-miterlimit:10"/><circle cx="286.58" cy="87.65" r="2.2" style="stroke-width:1.2;stroke:#ed1f24;fill:#ed1f24;stroke-linecap:round;stroke-linejoin:round;stroke-miterlimit:10"/><circle cx="295.78" cy="119.98" r="2.2" style="stroke-width:1.2;stroke:#ed1f24;fill:#ed1f24;stroke-linecap:round;stroke-linejoin:round;stroke-miterlimit:10"/><circle cx="301.19" cy="137.53" r="2.2" style="stroke-width:1.2;stroke:#ed1f24;fill:#ed1f24;stroke-linecap:round;stroke-linejoin:round;stroke-miterlimit:10"/><circle cx="299.32" cy="171.54" r="2.2" style="stroke-width:1.2;stroke:#ed1f24;fill:#ed1f24;stroke-linecap:round;stroke-linejoin:round;stroke-miterlimit:10"/><circle cx="316.42" cy="194.94" r="2.2" style="stroke-width:1.2;stroke:#ed1f24;fill:#ed1f24;stroke-linecap:round;stroke-linejoin:round;stroke-miterlimit:10"/><circle cx="314.31" cy="179.43" r="2.2" style="stroke-width:1.2;stroke:#ed1f24;fill:#ed1f24;stroke-linecap:round;stroke-linejoin:round;stroke-miterlimit:10"/><circle cx="334.26" cy="172.1" r="2.2" style="stroke-width:1.2;stroke:#ed1f24;fill:#ed1f24;stroke-linecap:round;stroke-linejoin:round;stroke-miterlimit:10"/><circle cx="337.97" cy="169.29" r="2.2" style="stroke-width:1.2;stroke:#ed1f24;fill:#ed1f24;stroke-linecap:round;stroke-linejoin:round;stroke-miterlimit:10"/><circle cx="379.68" cy="245.62" r="2.2" style="stroke-width:1.2;stroke:#ed1f24;fill:#ed1f24;stroke-linecap:round;stroke-linejoin:round;stroke-miterlimit:10"/><circle cx="396.27" cy="225.55" r="2.2" style="stroke-width:1.2;stroke:#ed1f24;fill:#ed1f24;stroke-linecap:round;stroke-linejoin:round;stroke-miterlimit:10"/><circle cx="419.12" cy="250.01" r="2.2" style="stroke-width:1.2;stroke:#ed1f24;fill:#ed1f24;stroke-linecap:round;stroke-linejoin:round;stroke-miterlimit:10"/><circle cx="438.7" cy="195.52" r="2.2" style="stroke-width:1.2;stroke:#ed1f24;fill:#ed1f24;stroke-linecap:round;stroke-linejoin:round;stroke-miterlimit:10"/><circle cx="451.88" cy="169.51" r="2.2" style="stroke-width:1.2;stroke:#ed1f24;fill:#ed1f24;stroke-linecap:round;stroke-linejoin:round;stroke-miterlimit:10"/><circle cx="466.73" cy="178.09" r="2.2" style="stroke-width:1.2;stroke:#ed1f24;fill:#ed1f24;stroke-linecap:round;stroke-linejoin:round;stroke-miterlimit:10"/><circle cx="479.68" cy="166.56" r="2.2" style="stroke-width:1.2;stroke:#ed1f24;fill:#ed1f24;stroke-linecap:round;stroke-linejoin:round;stroke-miterlimit:10"/><circle cx="477.64" cy="83.93" r="2.2" style="stroke-width:1.2;stroke:#ed1f24;fill:#ed1f24;stroke-linecap:round;stroke-linejoin:round;stroke-miterlimit:10"/><circle cx="468.84" cy="176" r="2.2" style="stroke-width:1.2;stroke:#ed1f24;fill:#ed1f24;stroke-linecap:round;stroke-linejoin:round;stroke-miterlimit:10"/><circle cx="465.2" cy="150.31" r="2.2" style="stroke-width:1.2;stroke:#ed1f24;fill:#ed1f24;stroke-linecap:round;stroke-linejoin:round;stroke-miterlimit:10"/><circle cx="464.11" cy="198.36" r="2.2" style="stroke-width:1.2;stroke:#ed1f24;fill:#ed1f24;stroke-linecap:round;stroke-linejoin:round;stroke-miterlimit:10"/><circle cx="472.57" cy="149.1" r="2.2" style="stroke-width:1.2;stroke:#ed1f24;fill:#ed1f24;stroke-linecap:round;stroke-linejoin:round;stroke-miterlimit:10"/><circle cx="485.09" cy="158.13" r="2.2" style="stroke-width:1.2;stroke:#ed1f24;fill:#ed1f24;stroke-linecap:round;stroke-linejoin:round;stroke-miterlimit:10"/><circle cx="493.9" cy="158.54" r="2.2" style="stroke-width:1.2;stroke:#ed1f24;fill:#ed1f24;stroke-linecap:round;stroke-linejoin:round;stroke-miterlimit:10"/><circle cx="487.42" cy="105.36" r="2.2" style="stroke-width:1.2;stroke:#ed1f24;fill:#ed1f24;stroke-linecap:round;stroke-linejoin:round;stroke-miterlimit:10"/><circle cx="509.91" cy="64.69" r="2.2" style="stroke-width:1.2;stroke:#ed1f24;fill:#ed1f24;stroke-linecap:round;stroke-linejoin:round;stroke-miterlimit:10"/><polygon points="264.23 70.49 271.83 70.49 271.83 62.89 264.23 62.89" style="stroke-width:1.2;stroke:none;fill:#000;stroke-linecap:round;stroke-linejoin:round;stroke-miterlimit:10"/><circle cx="509.91" cy="64.69" r="3.8" style="stroke-width:1.2;fill:#000;stroke:#000;stroke-linecap:round;stroke-linejoin:round;stroke-miterlimit:10"/><polyline points="93.34 345.1 93.34 14.17" style="stroke-width:1.07;stroke:#464646;stroke-linecap:butt;fill:none;stroke-linejoin:round;stroke-miterlimit:10"/><text x="57.03" y="349.51" style="font-size:18px;font-family:Asap" textLength="19.26" lengthAdjust="spacingAndGlyphs">40</text><text x="57.03" y="266.78" style="font-size:18px;font-family:Asap" textLength="19.26" lengthAdjust="spacingAndGlyphs">55</text><text x="57.03" y="184.05" style="font-size:18px;font-family:Asap" textLength="19.26" lengthAdjust="spacingAndGlyphs">70</text><text x="57.03" y="101.32" style="font-size:18px;font-family:Asap" textLength="19.26" lengthAdjust="spacingAndGlyphs">85</text><text x="47.4" y="18.58" style="font-size:18px;font-family:Asap" textLength="28.89" lengthAdjust="spacingAndGlyphs">100</text><polyline points="86.25 345.1 93.34 345.1" style="stroke-width:1.07;stroke:#464646;stroke-linecap:butt;fill:none;stroke-linejoin:round;stroke-miterlimit:10"/><polyline points="86.25 262.37 93.34 262.37" style="stroke-width:1.07;stroke:#464646;stroke-linecap:butt;fill:none;stroke-linejoin:round;stroke-miterlimit:10"/><polyline points="86.25 179.64 93.34 179.64" style="stroke-width:1.07;stroke:#464646;stroke-linecap:butt;fill:none;stroke-linejoin:round;stroke-miterlimit:10"/><polyline points="86.25 96.91 93.34 96.91" style="stroke-width:1.07;stroke:#464646;stroke-linecap:butt;fill:none;stroke-linejoin:round;stroke-miterlimit:10"/><polyline points="86.25 14.17 93.34 14.17" style="stroke-width:1.07;stroke:#464646;stroke-linecap:butt;fill:none;stroke-linejoin:round;stroke-miterlimit:10"/><polyline points="93.34 345.1 781.65 345.1" style="stroke-width:1.07;stroke:#464646;stroke-linecap:butt;fill:none;stroke-linejoin:round;stroke-miterlimit:10"/><polyline points="93.34 352.19 93.34 345.1" style="stroke-width:1.07;stroke:#464646;stroke-linecap:butt;fill:none;stroke-linejoin:round;stroke-miterlimit:10"/><polyline points="231 352.19 231 345.1" style="stroke-width:1.07;stroke:#464646;stroke-linecap:butt;fill:none;stroke-linejoin:round;stroke-miterlimit:10"/><polyline points="368.66 352.19 368.66 345.1" style="stroke-width:1.07;stroke:#464646;stroke-linecap:butt;fill:none;stroke-linejoin:round;stroke-miterlimit:10"/><polyline points="506.33 352.19 506.33 345.1" style="stroke-width:1.07;stroke:#464646;stroke-linecap:butt;fill:none;stroke-linejoin:round;stroke-miterlimit:10"/><polyline points="643.99 352.19 643.99 345.1" style="stroke-width:1.07;stroke:#464646;stroke-linecap:butt;fill:none;stroke-linejoin:round;stroke-miterlimit:10"/><polyline points="781.65 352.19 781.65 345.1" style="stroke-width:1.07;stroke:#464646;stroke-linecap:butt;fill:none;stroke-linejoin:round;stroke-miterlimit:10"/><text x="88.52" y="374.79" style="font-size:18px;font-family:Asap" textLength="9.63" lengthAdjust="spacingAndGlyphs">0</text><text x="226.18" y="374.79" style="font-size:18px;font-family:Asap" textLength="9.63" lengthAdjust="spacingAndGlyphs">2</text><text x="363.85" y="374.79" style="font-size:18px;font-family:Asap" textLength="9.63" lengthAdjust="spacingAndGlyphs">4</text><text x="501.51" y="374.79" style="font-size:18px;font-family:Asap" textLength="9.63" lengthAdjust="spacingAndGlyphs">6</text><text x="639.18" y="374.79" style="font-size:18px;font-family:Asap" textLength="9.63" lengthAdjust="spacingAndGlyphs">8</text><text x="772.02" y="374.79" style="font-size:18px;font-family:Asap" textLength="19.26" lengthAdjust="spacingAndGlyphs">10</text><text x="345.52" y="407.59" style="font-size:20px;font-family:Asap Medium" textLength="96.88" lengthAdjust="spacingAndGlyphs">Population</text><text x="447.2" y="407.59" style="font-size:20px;font-family:Asap Medium" textLength="82.26" lengthAdjust="spacingAndGlyphs">(millions)</text><text transform="rotate(-90 158.015 129.805)" style="font-size:20px;font-family:Asap Medium" textLength="50.8" lengthAdjust="spacingAndGlyphs">Wage</text><text transform="rotate(-90 130.215 102.005)" style="font-size:20px;font-family:Asap Medium" textLength="48.22" lengthAdjust="spacingAndGlyphs">index</text><text transform="rotate(-90 103.705 75.495)" style="font-size:20px;font-family:Asap Medium" textLength="48.82" lengthAdjust="spacingAndGlyphs">(1860</text><text transform="rotate(-90 76.895 48.685)" style="font-size:20px;font-family:Asap Medium" textLength="11.2" lengthAdjust="spacingAndGlyphs">=</text><text transform="rotate(-90 68.895 40.685)" style="font-size:20px;font-family:Asap Medium" textLength="38.12" lengthAdjust="spacingAndGlyphs">100)</text></svg>