<svg version="1.1" xmlns="http://www.w3.org/2000/svg" x="0" y="0" viewBox="0 0 311.81 198.58" style="enable-background:new 0 0 311.81 198.58" xml:space="preserve"><line style="fill:none;stroke:#6d6e71;stroke-width:.5;stroke-miterlimit:10" x1="308.76" y1="167.55" x2="37.73" y2="167.55"/><line style="fill:none;stroke:#6d6e71;stroke-width:.5;stroke-miterlimit:10" x1="38.13" y1="6" x2="38.13" y2="167.55"/><line style="fill:none;stroke:#6d6e70;stroke-width:.5;stroke-linecap:square" x1="308.76" y1="167.55" x2="308.76" y2="170.07"/><line style="fill:none;stroke:#6d6e70;stroke-width:.5;stroke-linecap:square" x1="38.13" y1="167.55" x2="38.13" y2="170.07"/><line style="fill:none;stroke:#6d6e70;stroke-width:.5;stroke-linecap:square" x1="38.13" y1="167.55" x2="35.6" y2="167.55"/><line style="fill:none;stroke:#6d6e70;stroke-width:.5;stroke-linecap:square" x1="38.13" y1="149.63" x2="35.6" y2="149.63"/><line style="fill:none;stroke:#6d6e70;stroke-width:.5;stroke-linecap:square" x1="38.13" y1="131.71" x2="35.6" y2="131.71"/><line style="fill:none;stroke:#6d6e70;stroke-width:.5;stroke-linecap:square" x1="38.13" y1="113.79" x2="35.6" y2="113.79"/><line style="fill:none;stroke:#6d6e70;stroke-width:.5;stroke-linecap:square" x1="38.13" y1="42.12" x2="35.6" y2="42.12"/><line style="fill:none;stroke:#6d6e70;stroke-width:.5;stroke-linecap:square" x1="38.13" y1="60.04" x2="35.6" y2="60.04"/><line style="fill:none;stroke:#6d6e70;stroke-width:.5;stroke-linecap:square" x1="38.13" y1="77.96" x2="35.6" y2="77.96"/><line style="fill:none;stroke:#6d6e70;stroke-width:.5;stroke-linecap:square" x1="38.13" y1="95.87" x2="35.6" y2="95.87"/><line style="fill:none;stroke:#6d6e70;stroke-width:.5;stroke-linecap:square" x1="38.13" y1="6.28" x2="35.6" y2="6.28"/><line style="fill:none;stroke:#6d6e70;stroke-width:.5;stroke-linecap:square" x1="38.13" y1="24.2" x2="35.6" y2="24.2"/><line style="fill:none;stroke:#6d6e70;stroke-width:.5;stroke-linecap:square" x1="254.63" y1="167.55" x2="254.63" y2="170.07"/><line style="fill:none;stroke:#6d6e70;stroke-width:.5;stroke-linecap:square" x1="173.44" y1="167.55" x2="173.44" y2="170.07"/><line style="fill:none;stroke:#6d6e70;stroke-width:.5;stroke-linecap:square" x1="200.51" y1="167.55" x2="200.51" y2="170.07"/><line style="fill:none;stroke:#6d6e70;stroke-width:.5;stroke-linecap:square" x1="146.38" y1="167.55" x2="146.38" y2="170.07"/><line style="fill:none;stroke:#6d6e70;stroke-width:.5;stroke-linecap:square" x1="119.32" y1="167.55" x2="119.32" y2="170.07"/><line style="fill:none;stroke:#6d6e70;stroke-width:.5;stroke-linecap:square" x1="92.25" y1="167.55" x2="92.25" y2="170.07"/><line style="fill:none;stroke:#6d6e70;stroke-width:.5;stroke-linecap:square" x1="65.19" y1="167.55" x2="65.19" y2="170.07"/><text transform="translate(138.957 196.378)"><tspan x="0" y="0" style="font-family:'Asap-Medium';font-size:8px">Quantity of cars, </tspan><tspan x="59.53" y="0" style="font-family:'Asap-MediumItalic';font-size:8px">Q</tspan></text><text transform="rotate(-90 53.656 46.315)"><tspan x="0" y="0" style="font-family:'Asap-Medium';font-size:8px">Price, </tspan><tspan x="21.3" y="0" style="font-family:'Asap-MediumItalic';font-size:8px">P</tspan><tspan x="25.86" y="0" style="font-family:'Asap-Medium';font-size:8px"> ($)</tspan></text><text transform="translate(29.683 170.073)" style="font-family:'Asap-Regular';font-size:7px">0</text><text transform="translate(36.604 179.743)" style="font-family:'Asap-Regular';font-size:7px">0</text><text transform="translate(13.318 7.97)" style="font-family:'Asap-Regular';font-size:7px">45,000</text><text transform="translate(299.922 179.743)" style="font-family:'Asap-Regular';font-size:7px">100</text><text transform="translate(222.802 179.743)" style="font-family:'Asap-Regular';font-size:7px">70</text><text transform="translate(196.096 179.743)" style="font-family:'Asap-Regular';font-size:7px">60</text><text transform="translate(169.389 179.743)" style="font-family:'Asap-Regular';font-size:7px">50</text><text transform="translate(141.683 179.743)" style="font-family:'Asap-Regular';font-size:7px">40</text><text transform="translate(114.977 179.743)" style="font-family:'Asap-Regular';font-size:7px">30</text><text transform="translate(88.27 179.743)" style="font-family:'Asap-Regular';font-size:7px">20</text><text transform="translate(61.565 179.743)" style="font-family:'Asap-Regular';font-size:7px">10</text><text transform="translate(13.318 25.98)" style="font-family:'Asap-Regular';font-size:7px">40,000</text><text transform="translate(13.318 43.992)" style="font-family:'Asap-Regular';font-size:7px">35,000</text><text transform="translate(13.318 62.004)" style="font-family:'Asap-Regular';font-size:7px">30,000</text><text transform="translate(13.318 80.015)" style="font-family:'Asap-Regular';font-size:7px">25,000</text><text transform="translate(13.318 98.027)" style="font-family:'Asap-Regular';font-size:7px">20,000</text><text transform="translate(13.318 116.038)" style="font-family:'Asap-Regular';font-size:7px">15,000</text><text transform="translate(13.318 134.05)" style="font-family:'Asap-Regular';font-size:7px">10,000</text><text transform="translate(17.063 152.061)" style="font-family:'Asap-Regular';font-size:7px">5,000</text><path style="fill:none;stroke:#a1b0da;stroke-width:.5" d="M47.08 6.28c.25 3.97.46 7.46.63 10.4 0 0 .55 9.34 2.02 27.55.75 9.23 1.3 15.3 3.47 23.14 1.12 4.06 2.17 8.23 4.63 12.95 1.26 2.41 3.07 5.84 6.36 9.37 5.13 5.51 10.89 8 14.75 9.64 4.63 1.98 8.16 2.73 14.47 4.06 3.29.69 8.86 1.75 19.81 2.97 2.84.32 11.64 1.26 26.23 2.1 6.07.35 11.62.59 20.18.87 19.31.64 34.09.86 35.22.87 21.85.31 61.98.9 113.9 1.57"/><text transform="translate(250.509 179.743)" style="font-family:'Asap-Regular';font-size:7px">80</text><text transform="translate(277.216 179.743)" style="font-family:'Asap-Regular';font-size:7px">90</text><line style="fill:none;stroke:#6d6e70;stroke-width:.5;stroke-linecap:square" x1="227.57" y1="167.55" x2="227.57" y2="170.07"/><line style="fill:none;stroke:#6d6e70;stroke-width:.5;stroke-linecap:square" x1="281.7" y1="167.55" x2="281.7" y2="170.07"/><line style="fill:none;stroke:#000101;stroke-width:.5" x1="308.76" y1="119.74" x2="38.13" y2="119.74"/><text transform="translate(234.443 54.684)" style="font-family:'Asap-Regular';font-size:6px">Isoprofit 1: −$80,000</text><circle style="fill:#000101" cx="228.26" cy="52.84" r="2.13"/><text transform="translate(234.443 45.512)" style="font-family:'Asap-Regular';font-size:6px">Isoprofit 2: $0</text><circle style="fill:#a1b0da" cx="228.26" cy="43.67" r="2.13"/></svg>