<svg version="1.1" xmlns="http://www.w3.org/2000/svg" x="0" y="0" viewBox="0 0 311.81 158.16" style="enable-background:new 0 0 311.81 158.16" xml:space="preserve"><rect x="168.14" y="91.57" style="fill:#e3e7f4;stroke:#6d6e71;stroke-width:.5;stroke-miterlimit:10" width="58.69" height="58.69"/><rect x="168.14" y="32.88" style="fill:#e3e7f4;stroke:#6d6e71;stroke-width:.5;stroke-miterlimit:10" width="58.69" height="58.69"/><rect x="109.62" y="91.4" style="fill:#e3e7f4;stroke:#6d6e71;stroke-width:.5;stroke-miterlimit:10" width="58.69" height="58.69"/><rect x="109.62" y="32.88" style="fill:#e3e7f4;stroke:#6d6e71;stroke-width:.5;stroke-miterlimit:10" width="58.69" height="58.69"/><text transform="translate(112.86 51.363)"><tspan x="0" y="0" style="font-family:'Asap-Regular';font-size:4.8px">Beneficial insects spread</tspan><tspan x="9.17" y="5.76" style="font-family:'Asap-Regular';font-size:4.8px">over both fields,</tspan><tspan x="8" y="11.52" style="font-family:'Asap-Regular';font-size:4.8px">eliminating pests</tspan><tspan x=".3" y="23.04" style="font-family:'Asap-Regular';font-size:4.8px">No water contamination</tspan></text><text transform="translate(169.956 48.483)"><tspan x="0" y="0" style="font-family:'Asap-Regular';font-size:4.8px">Bala’s chemicals spread to</tspan><tspan x="5.06" y="5.76" style="font-family:'Asap-Regular';font-size:4.8px">Anil’s field and kill his</tspan><tspan x="9.76" y="11.52" style="font-family:'Asap-Regular';font-size:4.8px">beneficial insects</tspan><tspan x="12.84" y="23.04" style="font-family:'Asap-Regular';font-size:4.8px">Limited water </tspan><tspan x="12.56" y="28.8" style="font-family:'Asap-Regular';font-size:4.8px">contamination</tspan></text><text transform="translate(110.999 108.504)"><tspan x="0" y="0" style="font-family:'Asap-Regular';font-size:4.8px">Anil’s chemicals spread to</tspan><tspan x="3.87" y="5.76" style="font-family:'Asap-Regular';font-size:4.8px">Bala’s field and kill his</tspan><tspan x="9.16" y="11.52" style="font-family:'Asap-Regular';font-size:4.8px">beneficial insects</tspan><tspan x="12.25" y="23.04" style="font-family:'Asap-Regular';font-size:4.8px">Limited water </tspan><tspan x="11.96" y="28.8" style="font-family:'Asap-Regular';font-size:4.8px">contamination</tspan></text><text transform="translate(176.635 105.624)"><tspan x="0" y="0" style="font-family:'Asap-Regular';font-size:4.8px">Eliminates all pests</tspan><tspan x="6.51" y="11.52" style="font-family:'Asap-Regular';font-size:4.8px">Heavy water </tspan><tspan x="4.97" y="17.28" style="font-family:'Asap-Regular';font-size:4.8px">contamination</tspan><tspan x="4.4" y="28.8" style="font-family:'Asap-Regular';font-size:4.8px">Requires costly</tspan><tspan x="3.35" y="34.56" style="font-family:'Asap-Regular';font-size:4.8px">filtration system</tspan></text><line style="fill:none;stroke:#6d6e71;stroke-width:.5;stroke-miterlimit:10" x1="168.22" y1="19.52" x2="168.22" y2="32.88"/><polyline style="fill:#b9519e;stroke:#6d6e71;stroke-width:.5;stroke-miterlimit:10" points="109.54 20.26 109.54 7.9 226.91 7.9 226.91 20.26"/><text transform="translate(133.82 29.146)" style="font-family:'Asap-Regular';font-size:6px">IPC</text><text transform="translate(184.453 29.147)" style="font-family:'Asap-Regular';font-size:6px">Toxic Tide</text><text transform="translate(160.534 16.962)" style="fill:#fff;font-family:'Asap-Regular';font-size:8px">Bala</text><line style="fill:none;stroke:#6d6e71;stroke-width:.5;stroke-miterlimit:10" x1="226.91" y1="20.26" x2="226.91" y2="32.88"/><line style="fill:none;stroke:#6d6e71;stroke-width:.5;stroke-miterlimit:10" x1="109.54" y1="32.88" x2="109.54" y2="20.26"/><rect x="109.54" y="32.88" style="fill:none;stroke:#6d6e71;stroke-width:.5;stroke-miterlimit:10" width="117.37" height="117.37"/><line style="fill:none;stroke:#6d6e71;stroke-width:.5;stroke-miterlimit:10" x1="168.22" y1="32.88" x2="168.22" y2="150.25"/><line style="fill:none;stroke:#6d6e71;stroke-width:.5;stroke-miterlimit:10" x1="109.54" y1="91.57" x2="226.91" y2="91.57"/><polyline style="fill:#0d71ba;stroke:#6d6e71;stroke-width:.5;stroke-miterlimit:10" points="97.26 150.25 84.9 150.25 84.9 32.88 97.26 32.88"/><text transform="rotate(-90 120.058 14.908)" style="font-family:'Asap-Regular';font-size:6px">Toxic Tide</text><text transform="rotate(-90 85.489 -19.66)" style="font-family:'Asap-Regular';font-size:6px">IPC</text><text transform="rotate(-90 96.609 2.647)" style="fill:#fff;font-family:'Asap-Regular';font-size:8px">Anil</text><line style="fill:none;stroke:#6d6e71;stroke-width:.5;stroke-miterlimit:10" x1="97.26" y1="32.88" x2="109.88" y2="32.88"/><line style="fill:none;stroke:#6d6e71;stroke-width:.5;stroke-miterlimit:10" x1="109.88" y1="150.25" x2="97.26" y2="150.25"/><line style="fill:none;stroke:#6d6e71;stroke-width:.5;stroke-miterlimit:10" x1="97.26" y1="91.57" x2="109.88" y2="91.57"/></svg>