<svg version="1.1" xmlns="http://www.w3.org/2000/svg" x="0" y="0" viewBox="0 0 311.81 175.61" style="enable-background:new 0 0 311.81 175.61" xml:space="preserve"><text transform="translate(17.04 8.12)" style="font-family:'Asap-Regular';font-size:7px">30,000</text><text transform="translate(138.476 172.5)"><tspan x="0" y="0" style="font-family:'Asap-Medium';font-size:8px">Quantity of cars, </tspan><tspan x="59.53" y="0" style="font-family:'Asap-MediumItalic';font-size:8px">Q</tspan></text><text transform="rotate(-90 75.253 67.842)" style="font-family:'Asap-Medium';font-size:8px">Average cost (AC); Marginal cost (MC)</text><text transform="translate(17.04 78.973)" style="font-family:'Asap-Regular';font-size:7px">15,000</text><text transform="translate(17.04 102.59)" style="font-family:'Asap-Regular';font-size:7px">10,000</text><text transform="translate(20.785 126.209)" style="font-family:'Asap-Regular';font-size:7px">5,000</text><text transform="translate(17.04 55.355)" style="font-family:'Asap-Regular';font-size:7px">20,000</text><text transform="translate(17.04 31.738)" style="font-family:'Asap-Regular';font-size:7px">25,000</text><text transform="translate(33.406 149.826)" style="font-family:'Asap-Regular';font-size:7px">0</text><text transform="translate(40.19 158.159)" style="font-family:'Asap-Regular';font-size:7px">0</text><text transform="translate(80.416 158.16)" style="font-family:'Asap-Regular';font-size:7px">10</text><text transform="translate(124.386 158.16)" style="font-family:'Asap-Regular';font-size:7px">20</text><text transform="translate(300.27 158.16)" style="font-family:'Asap-Regular';font-size:7px">60</text><text transform="translate(256.299 158.159)" style="font-family:'Asap-Regular';font-size:7px">50</text><text transform="translate(212.329 158.16)" style="font-family:'Asap-Regular';font-size:7px">40</text><text transform="translate(168.358 158.16)" style="font-family:'Asap-Regular';font-size:7px">30</text><line style="fill:none;stroke:#f49323;stroke-width:.5" x1="304.16" y1="79.78" x2="41.72" y2="79.78"/><path style="fill:none;stroke:#3a53a4;stroke-width:.5" d="M63.98 6.03c2.32 7.72 4.19 13.17 8.16 19.8 2.14 3.57 5.78 9.55 12.6 15.71 7.84 7.08 15.61 10.57 20.05 12.52 1.81.79 6.55 2.8 17.47 5.59 14.07 3.6 25.22 5.13 28.64 5.59 18.63 2.51 34.88 3.75 51.56 4.79 9.64.6 24.99 1.49 48.12 2.4 14.11.55 32.28 1.16 53.57 1.6"/><line style="fill:none;stroke:#6d6e70;stroke-width:.5;stroke-linecap:square" x1="41.85" y1="6.03" x2="39.32" y2="6.03"/><line style="fill:none;stroke:#6d6e71;stroke-width:.5;stroke-miterlimit:10" x1="41.85" y1="6.03" x2="41.85" y2="148.07"/><line style="fill:none;stroke:#6d6e71;stroke-width:.5;stroke-miterlimit:10" x1="41.62" y1="148.07" x2="304.16" y2="148.07"/><line style="fill:none;stroke:#6d6e70;stroke-width:.5;stroke-linecap:square" x1="41.85" y1="148.07" x2="39.32" y2="148.07"/><line style="fill:none;stroke:#6d6e70;stroke-width:.5;stroke-linecap:square" x1="41.85" y1="148.07" x2="41.85" y2="150.6"/><line style="fill:none;stroke:#6d6e70;stroke-width:.5;stroke-linecap:square" x1="303.9" y1="148.07" x2="303.9" y2="150.6"/><line style="fill:none;stroke:#6d6e70;stroke-width:.5;stroke-linecap:square" x1="41.85" y1="29.7" x2="39.32" y2="29.7"/><line style="fill:none;stroke:#6d6e70;stroke-width:.5;stroke-linecap:square" x1="41.85" y1="53.38" x2="39.32" y2="53.38"/><line style="fill:none;stroke:#6d6e70;stroke-width:.5;stroke-linecap:square" x1="41.85" y1="77.05" x2="39.32" y2="77.05"/><line style="fill:none;stroke:#6d6e70;stroke-width:.5;stroke-linecap:square" x1="41.85" y1="100.73" x2="39.32" y2="100.73"/><line style="fill:none;stroke:#6d6e70;stroke-width:.5;stroke-linecap:square" x1="41.85" y1="124.4" x2="39.32" y2="124.4"/><line style="fill:none;stroke:#6d6e70;stroke-width:.5;stroke-linecap:square" x1="85.52" y1="148.07" x2="85.52" y2="150.6"/><line style="fill:none;stroke:#6d6e70;stroke-width:.5;stroke-linecap:square" x1="129.2" y1="148.07" x2="129.2" y2="150.6"/><line style="fill:none;stroke:#6d6e70;stroke-width:.5;stroke-linecap:square" x1="172.87" y1="148.07" x2="172.87" y2="150.6"/><line style="fill:none;stroke:#6d6e70;stroke-width:.5;stroke-linecap:square" x1="260.22" y1="148.07" x2="260.22" y2="150.6"/><line style="fill:none;stroke:#6d6e70;stroke-width:.5;stroke-linecap:square" x1="216.55" y1="148.07" x2="216.55" y2="150.6"/><circle style="fill:#231f20" cx="260.22" cy="72.9" r="1.13"/><circle style="fill:#231f20" cx="172.94" cy="67.55" r="1.13"/><circle style="fill:#231f20" cx="85.43" cy="41.87" r="1.13"/><text transform="translate(268.223 66.168)" style="font-family:'Asap-Regular';font-size:6px">Average cost</text><text transform="translate(268.223 91.317)" style="font-family:'Asap-Regular';font-size:6px">Marginal cost</text></svg>