<svg version="1.1" xmlns="http://www.w3.org/2000/svg" xmlns:xlink="http://www.w3.org/1999/xlink" x="0" y="0" viewBox="0 0 311.81 180.97" style="enable-background:new 0 0 311.81 180.97" xml:space="preserve"><g style="display:none"><g style="display:inline;opacity:.38"><defs><polygon id="prefix__a" points="-2.67 175.54 314.41 175.54 314.41 -5.28 -2.67 -5.28 -2.67 175.54"/></defs><clipPath id="prefix__b"><use xlink:href="#prefix__a" style="overflow:visible"/></clipPath><line x1="30.05" y1="146.12" x2="30.05" y2="1.25"/><defs><polygon id="prefix__c" points="-2.67 175.54 314.41 175.54 314.41 -5.28 -2.67 -5.28 -2.67 175.54"/></defs><clipPath id="prefix__d"><use xlink:href="#prefix__c" style="overflow:visible"/></clipPath><path d="M28.33 146.12h1.72m-1.72-28.98h1.72m-1.72-28.99h1.72m-1.72-28.92h1.72m-1.72-28.99h1.72M28.33 1.25h1.72"/><defs><polygon id="prefix__e" points="-2.67 175.54 314.41 175.54 314.41 -5.28 -2.67 -5.28 -2.67 175.54"/></defs><clipPath id="prefix__f"><use xlink:href="#prefix__e" style="overflow:visible"/></clipPath><line x1="30.05" y1="146.12" x2="305.15" y2="146.12"/><defs><polygon id="prefix__g" points="-2.67 175.54 314.41 175.54 314.41 -5.28 -2.67 -5.28 -2.67 175.54"/></defs><clipPath id="prefix__h"><use xlink:href="#prefix__g" style="overflow:visible"/></clipPath><path d="M30.05 146.12v1.72m34.37-1.72v1.72m34.37-1.72v1.72m34.37-1.72v1.72m34.44-1.72v1.72m34.37-1.72v1.72m34.37-1.72v1.72m34.44-1.72v1.72m34.37-1.72v1.72"/><defs><polygon id="prefix__i" points="29.98 146.48 305.58 146.48 305.58 1.25 29.98 1.25 29.98 146.48"/></defs><clipPath id="prefix__j"><use xlink:href="#prefix__i" style="overflow:visible"/></clipPath><polyline points="30.01 7.03 38.63 11.41 47.24 15.78 55.85 20.09 64.38 24.47 72.99 28.77 81.61 33.15 90.22 37.45 98.83 41.83 107.36 46.14 115.97 50.51 124.59 54.89 133.2 59.19 141.81 63.57 150.42 67.88 158.96 72.25 167.57 76.56 176.18 80.94 184.79 85.24 193.4 89.62 202.01 94 210.55 98.3 219.16 102.68 227.77 106.98 236.38 111.36 244.99 115.66 253.53 120.04 262.14 124.35 270.75 128.72 279.36 133.1 287.97 137.41 296.58 141.78 305.12 146.09"/><defs><polygon id="prefix__k" points="-2.67 175.54 314.41 175.54 314.41 -5.28 -2.67 -5.28 -2.67 175.54"/></defs><clipPath id="prefix__l"><use xlink:href="#prefix__k" style="overflow:visible"/></clipPath><g><defs><rect id="prefix__m" x="-2.67" y="-5.28" width="317.08" height="180.82"/></defs><clipPath id="prefix__n"><use xlink:href="#prefix__m" style="overflow:visible"/></clipPath><g><text transform="translate(22.304 147.62)" style="fill:#595a5a;font-family:'Calibri';font-size:5.3815px">0</text></g></g><defs><polygon id="prefix__o" points="-2.67 175.54 314.41 175.54 314.41 -5.28 -2.67 -5.28 -2.67 175.54"/></defs><clipPath id="prefix__p"><use xlink:href="#prefix__o" style="overflow:visible"/></clipPath><g><defs><rect id="prefix__q" x="-2.67" y="-5.28" width="317.08" height="180.82"/></defs><clipPath id="prefix__r"><use xlink:href="#prefix__q" style="overflow:visible"/></clipPath><g><text transform="translate(19.576 118.653)" style="fill:#595a5a;font-family:'Calibri';font-size:5.3815px">50</text></g></g><defs><polygon id="prefix__s" points="-2.67 175.54 314.41 175.54 314.41 -5.28 -2.67 -5.28 -2.67 175.54"/></defs><clipPath id="prefix__t"><use xlink:href="#prefix__s" style="overflow:visible"/></clipPath><g><defs><rect id="prefix__u" x="-2.67" y="-5.28" width="317.08" height="180.82"/></defs><clipPath id="prefix__v"><use xlink:href="#prefix__u" style="overflow:visible"/></clipPath><g><text transform="translate(16.848 89.68)" style="fill:#595a5a;font-family:'Calibri';font-size:5.3815px">100</text></g></g><g><defs><polygon id="prefix__w" points="-2.67 175.54 314.41 175.54 314.41 -5.28 -2.67 -5.28 -2.67 175.54"/></defs><clipPath id="prefix__x"><use xlink:href="#prefix__w" style="overflow:visible"/></clipPath><g><defs><rect id="prefix__y" x="-2.67" y="-5.28" width="317.08" height="180.82"/></defs><clipPath id="prefix__z"><use xlink:href="#prefix__y" style="overflow:visible"/></clipPath><g><text transform="translate(16.848 60.712)" style="fill:#595a5a;font-family:'Calibri';font-size:5.3815px">150</text></g></g></g><g><defs><polygon id="prefix__A" points="-2.67 175.54 314.41 175.54 314.41 -5.28 -2.67 -5.28 -2.67 175.54"/></defs><clipPath id="prefix__B"><use xlink:href="#prefix__A" style="overflow:visible"/></clipPath><g><defs><rect id="prefix__C" x="-2.67" y="-5.28" width="317.08" height="180.82"/></defs><clipPath id="prefix__D"><use xlink:href="#prefix__C" style="overflow:visible"/></clipPath><g><text transform="translate(16.848 31.745)" style="fill:#595a5a;font-family:'Calibri';font-size:5.3815px">200</text></g></g></g><g><defs><polygon id="prefix__E" points="-2.67 175.54 314.41 175.54 314.41 -5.28 -2.67 -5.28 -2.67 175.54"/></defs><clipPath id="prefix__F"><use xlink:href="#prefix__E" style="overflow:visible"/></clipPath><g><defs><rect id="prefix__G" x="-2.67" y="-5.28" width="317.08" height="180.82"/></defs><clipPath id="prefix__H"><use xlink:href="#prefix__G" style="overflow:visible"/></clipPath><g><text transform="translate(16.848 2.783)" style="fill:#595a5a;font-family:'Calibri';font-size:5.3815px">250</text></g></g></g><g><defs><polygon id="prefix__I" points="-2.67 175.54 314.41 175.54 314.41 -5.28 -2.67 -5.28 -2.67 175.54"/></defs><clipPath id="prefix__J"><use xlink:href="#prefix__I" style="overflow:visible"/></clipPath><g><defs><rect id="prefix__K" x="-2.67" y="-5.28" width="317.08" height="180.82"/></defs><clipPath id="prefix__L"><use xlink:href="#prefix__K" style="overflow:visible"/></clipPath><g><text transform="translate(28.662 154.613)" style="fill:#595a5a;font-family:'Calibri';font-size:5.3815px">8</text></g></g></g><g><defs><polygon id="prefix__M" points="-2.67 175.54 314.41 175.54 314.41 -5.28 -2.67 -5.28 -2.67 175.54"/></defs><clipPath id="prefix__N"><use xlink:href="#prefix__M" style="overflow:visible"/></clipPath><g><defs><rect id="prefix__O" x="-2.67" y="-5.28" width="317.08" height="180.82"/></defs><clipPath id="prefix__P"><use xlink:href="#prefix__O" style="overflow:visible"/></clipPath><g><text transform="translate(61.688 154.613)" style="fill:#595a5a;font-family:'Calibri';font-size:5.3815px">10</text></g></g></g><g><defs><polygon id="prefix__Q" points="-2.67 175.54 314.41 175.54 314.41 -5.28 -2.67 -5.28 -2.67 175.54"/></defs><clipPath id="prefix__R"><use xlink:href="#prefix__Q" style="overflow:visible"/></clipPath><g><defs><rect id="prefix__S" x="-2.67" y="-5.28" width="317.08" height="180.82"/></defs><clipPath id="prefix__T"><use xlink:href="#prefix__S" style="overflow:visible"/></clipPath><g><text transform="translate(96.074 154.613)" style="fill:#595a5a;font-family:'Calibri';font-size:5.3815px">12</text></g></g></g><g><defs><polygon id="prefix__U" points="-2.67 175.54 314.41 175.54 314.41 -5.28 -2.67 -5.28 -2.67 175.54"/></defs><clipPath id="prefix__V"><use xlink:href="#prefix__U" style="overflow:visible"/></clipPath><g><defs><rect id="prefix__W" x="-2.67" y="-5.28" width="317.08" height="180.82"/></defs><clipPath id="prefix__X"><use xlink:href="#prefix__W" style="overflow:visible"/></clipPath><g><text transform="translate(130.466 154.613)" style="fill:#595a5a;font-family:'Calibri';font-size:5.3815px">14</text></g></g></g><g><defs><polygon id="prefix__Y" points="-2.67 175.54 314.41 175.54 314.41 -5.28 -2.67 -5.28 -2.67 175.54"/></defs><clipPath id="prefix__Z"><use xlink:href="#prefix__Y" style="overflow:visible"/></clipPath><g><defs><rect id="prefix__aa" x="-2.67" y="-5.28" width="317.08" height="180.82"/></defs><clipPath id="prefix__ab"><use xlink:href="#prefix__aa" style="overflow:visible"/></clipPath><g><text transform="translate(164.851 154.613)" style="fill:#595a5a;font-family:'Calibri';font-size:5.3815px">16</text></g></g></g><g><defs><polygon id="prefix__ac" points="-2.67 175.54 314.41 175.54 314.41 -5.28 -2.67 -5.28 -2.67 175.54"/></defs><clipPath id="prefix__ad"><use xlink:href="#prefix__ac" style="overflow:visible"/></clipPath><g><defs><rect id="prefix__ae" x="-2.67" y="-5.28" width="317.08" height="180.82"/></defs><clipPath id="prefix__af"><use xlink:href="#prefix__ae" style="overflow:visible"/></clipPath><g><text transform="translate(199.243 154.613)" style="fill:#595a5a;font-family:'Calibri';font-size:5.3815px">18</text></g></g></g><g><defs><polygon id="prefix__ag" points="-2.67 175.54 314.41 175.54 314.41 -5.28 -2.67 -5.28 -2.67 175.54"/></defs><clipPath id="prefix__ah"><use xlink:href="#prefix__ag" style="overflow:visible"/></clipPath><g><defs><rect id="prefix__ai" x="-2.67" y="-5.28" width="317.08" height="180.82"/></defs><clipPath id="prefix__aj"><use xlink:href="#prefix__ai" style="overflow:visible"/></clipPath><g><text transform="translate(233.635 154.613)" style="fill:#595a5a;font-family:'Calibri';font-size:5.3815px">20</text></g></g></g><g><defs><polygon id="prefix__ak" points="-2.67 175.54 314.41 175.54 314.41 -5.28 -2.67 -5.28 -2.67 175.54"/></defs><clipPath id="prefix__al"><use xlink:href="#prefix__ak" style="overflow:visible"/></clipPath><g><defs><rect id="prefix__am" x="-2.67" y="-5.28" width="317.08" height="180.82"/></defs><clipPath id="prefix__an"><use xlink:href="#prefix__am" style="overflow:visible"/></clipPath><g><text transform="translate(268.025 154.613)" style="fill:#595a5a;font-family:'Calibri';font-size:5.3815px">22</text></g></g></g><g><defs><polygon id="prefix__ao" points="-2.67 175.54 314.41 175.54 314.41 -5.28 -2.67 -5.28 -2.67 175.54"/></defs><clipPath id="prefix__ap"><use xlink:href="#prefix__ao" style="overflow:visible"/></clipPath><g><defs><rect id="prefix__aq" x="-2.67" y="-5.28" width="317.08" height="180.82"/></defs><clipPath id="prefix__ar"><use xlink:href="#prefix__aq" style="overflow:visible"/></clipPath><g><text transform="translate(302.416 154.613)" style="fill:#595a5a;font-family:'Calibri';font-size:5.3815px">24</text></g></g></g><g><defs><polygon id="prefix__as" points="-2.67 175.54 314.41 175.54 314.41 -5.28 -2.67 -5.28 -2.67 175.54"/></defs><clipPath id="prefix__at"><use xlink:href="#prefix__as" style="overflow:visible"/></clipPath><g><defs><rect id="prefix__au" x="-2.67" y="-5.28" width="317.08" height="180.82"/></defs><clipPath id="prefix__av"><use xlink:href="#prefix__au" style="overflow:visible"/></clipPath><text transform="rotate(-90 57.43 44.628)"><tspan x="0" y="0" style="fill:#595a5a;font-family:'Calibri';font-size:8.3951px">C</tspan><tspan x="4.45" y="0" style="fill:#595a5a;font-family:'Calibri';font-size:8.3951px">o</tspan><tspan x="8.9" y="0" style="fill:#595a5a;font-family:'Calibri';font-size:8.3951px">n</tspan><tspan x="13.27" y="0" style="fill:#595a5a;font-family:'Calibri';font-size:8.3951px">s</tspan><tspan x="16.57" y="0" style="fill:#595a5a;font-family:'Calibri';font-size:8.3951px">u</tspan><tspan x="20.95" y="0" style="fill:#595a5a;font-family:'Calibri';font-size:8.3951px">m</tspan><tspan x="27.63" y="0" style="fill:#595a5a;font-family:'Calibri';font-size:8.3951px">p</tspan><tspan x="32.01" y="0" style="fill:#595a5a;font-family:'Calibri';font-size:8.3951px">ti</tspan><tspan x="36.69" y="0" style="fill:#595a5a;font-family:'Calibri';font-size:8.3951px">o</tspan><tspan x="41.14" y="0" style="fill:#595a5a;font-family:'Calibri';font-size:8.3951px">n</tspan><tspan x="45.51" y="0" style="fill:#595a5a;font-family:'Calibri';font-size:8.3951px"> </tspan><tspan x="47.39" y="0" style="fill:#595a5a;font-family:'Calibri';font-size:8.3951px">(</tspan><tspan x="49.9" y="0" style="fill:#595a5a;font-family:'Calibri';font-size:8.3951px">$</tspan><tspan x="54.14" y="0" style="fill:#595a5a;font-family:'Calibri';font-size:8.3951px">)</tspan></text></g></g><g><defs><polygon id="prefix__aw" points="-2.67 175.54 314.41 175.54 314.41 -5.28 -2.67 -5.28 -2.67 175.54"/></defs><clipPath id="prefix__ax"><use xlink:href="#prefix__aw" style="overflow:visible"/></clipPath><g><defs><rect id="prefix__ay" x="-2.67" y="-5.28" width="317.08" height="180.82"/></defs><clipPath id="prefix__az"><use xlink:href="#prefix__ay" style="overflow:visible"/></clipPath><text transform="translate(136.539 165.848)"><tspan x="0" y="0" style="fill:#595a5a;font-family:'Calibri';font-size:8.3951px">H</tspan><tspan x="5.23" y="0" style="fill:#595a5a;font-family:'Calibri';font-size:8.3951px">o</tspan><tspan x="9.67" y="0" style="fill:#595a5a;font-family:'Calibri';font-size:8.3951px">u</tspan><tspan x="14.05" y="0" style="fill:#595a5a;font-family:'Calibri';font-size:8.3951px">r</tspan><tspan x="16.85" y="0" style="fill:#595a5a;font-family:'Calibri';font-size:8.3951px">s</tspan><tspan x="20.15" y="0" style="fill:#595a5a;font-family:'Calibri';font-size:8.3951px"> </tspan><tspan x="21.95" y="0" style="fill:#595a5a;font-family:'Calibri';font-size:8.3951px">of</tspan><tspan x="28.97" y="0" style="fill:#595a5a;font-family:'Calibri';font-size:8.3951px"> </tspan><tspan x="30.84" y="0" style="fill:#595a5a;font-family:'Calibri';font-size:8.3951px">f</tspan><tspan x="33.42" y="0" style="fill:#595a5a;font-family:'Calibri';font-size:8.3951px">r</tspan><tspan x="36.22" y="0" style="fill:#595a5a;font-family:'Calibri';font-size:8.3951px">ee</tspan><tspan x="44.56" y="0" style="fill:#595a5a;font-family:'Calibri';font-size:8.3951px"> </tspan><tspan x="46.43" y="0" style="fill:#595a5a;font-family:'Calibri';font-size:8.3951px">ti</tspan><tspan x="51.12" y="0" style="fill:#595a5a;font-family:'Calibri';font-size:8.3951px">m</tspan><tspan x="57.8" y="0" style="fill:#595a5a;font-family:'Calibri';font-size:8.3951px">e</tspan></text></g></g><g><defs><polygon id="prefix__aA" points="-2.67 175.54 314.48 175.54 314.48 -5.28 -2.67 -5.28 -2.67 175.54"/></defs><clipPath id="prefix__aB"><use xlink:href="#prefix__aA" style="overflow:visible"/></clipPath><polygon points="29.62 145.76 30.39 8.29 304.65 145.76 29.62 145.76"/><polygon points="29.62 145.76 30.39 8.29 304.65 145.76 29.62 145.76"/></g></g></g><polyline style="fill:#fee6da" points="305.09 151.9 32.98 6.25 32.98 151.9"/><polyline style="fill:none;stroke:#fee6da;stroke-width:.25;stroke-miterlimit:10" points="305.09 151.9 32.98 6.25 32.98 151.9"/><path style="fill:#fee6da" d="M305.09 151.9H32.98"/><path style="fill:none;stroke:#fee6da;stroke-width:.25;stroke-miterlimit:10" d="M305.09 151.9H32.98"/><text transform="translate(23.578 153.903)" style="font-family:'Asap-Regular';font-size:7px">0</text><text transform="translate(31.09 163.504)" style="font-family:'Asap-Regular';font-size:7px">8</text><text transform="translate(63.234 163.504)" style="font-family:'Asap-Regular';font-size:7px">10</text><text transform="translate(97.25 163.504)" style="font-family:'Asap-Regular';font-size:7px">12</text><text transform="translate(131.265 163.504)" style="font-family:'Asap-Regular';font-size:7px">14</text><text transform="translate(165.281 163.504)" style="font-family:'Asap-Regular';font-size:7px">16</text><text transform="translate(199.297 163.504)" style="font-family:'Asap-Regular';font-size:7px">18</text><text transform="translate(233.313 163.504)" style="font-family:'Asap-Regular';font-size:7px">20</text><text transform="translate(267.329 163.504)" style="font-family:'Asap-Regular';font-size:7px">22</text><text transform="translate(301.344 163.504)" style="font-family:'Asap-Regular';font-size:7px">24</text><text transform="translate(19.834 124.668)" style="font-family:'Asap-Regular';font-size:7px">50</text><text transform="translate(16.088 95.65)" style="font-family:'Asap-Regular';font-size:7px">100</text><text transform="translate(16.09 66.538)" style="font-family:'Asap-Regular';font-size:7px">150</text><text transform="translate(16.088 37.469)" style="font-family:'Asap-Regular';font-size:7px">200</text><text transform="translate(16.09 8.4)" style="font-family:'Asap-Regular';font-size:7px">250</text><text transform="matrix(0 -.9726 1 0 7.556 106.187)" style="font-family:'Asap-Medium';font-size:8px">Consumption ($)</text><text transform="translate(126.846 176.848)" style="font-family:'Asap-Medium';font-size:8px">Hours of free time</text><line style="fill:none;stroke:#6d6e71;stroke-width:.5;stroke-linecap:square" x1="45.19" y1="386.2" x2="185.46" y2="386.2"/><line style="fill:none;stroke:#6d6e71;stroke-width:.5;stroke-linecap:square;stroke-linejoin:round" x1="49.76" y1="301.32" x2="49.76" y2="389.58"/><line style="fill:none;stroke:#6d6e71;stroke-width:.5;stroke-linecap:square;stroke-linejoin:round" x1="49.23" y1="318.46" x2="47.11" y2="318.46"/><text transform="translate(37.86 388.604)" style="font-family:'Asap-Regular';font-size:7px">0</text><text transform="translate(32.76 371.446)" style="font-family:'Asap-Regular';font-size:7px">50</text><text transform="translate(32.808 355.16)" style="font-family:'Asap-Regular';font-size:7px">100</text><text transform="translate(32.808 338.644)" style="font-family:'Asap-Regular';font-size:7px">150</text><text transform="translate(32.73 321.416)" style="font-family:'Asap-Regular';font-size:7px">200</text><text transform="translate(32.731 303.652)" style="font-family:'Asap-Regular';font-size:7px">250</text><text transform="translate(47.417 395.527)" style="font-family:'Asap-Regular';font-size:7px">8</text><text transform="translate(65.417 395.519)" style="font-family:'Asap-Regular';font-size:7px">10</text><text transform="translate(80.417 395.526)" style="font-family:'Asap-Regular';font-size:7px">12</text><text transform="translate(96.544 395.498)" style="font-family:'Asap-Regular';font-size:7px">14</text><text transform="translate(113.545 395.526)" style="font-family:'Asap-Regular';font-size:7px">16</text><text transform="translate(131.545 395.527)" style="font-family:'Asap-Regular';font-size:7px">18</text><text transform="translate(147.544 395.498)" style="font-family:'Asap-Regular';font-size:7px">20</text><text transform="translate(164.688 395.498)" style="font-family:'Asap-Regular';font-size:7px">22</text><text transform="translate(182.688 395.498)" style="font-family:'Asap-Regular';font-size:7px">24</text><line style="fill:none;stroke:#6d6e71;stroke-width:.5;stroke-linecap:square" x1="185.46" y1="386.43" x2="185.46" y2="388.56"/><line style="fill:none;stroke:#6d6e71;stroke-width:.5;stroke-linecap:square" x1="168.39" y1="386.29" x2="168.39" y2="388.42"/><line style="fill:none;stroke:#6d6e71;stroke-width:.5;stroke-linecap:square" x1="151.41" y1="386.29" x2="151.41" y2="388.42"/><line style="fill:none;stroke:#6d6e71;stroke-width:.5;stroke-linecap:square" x1="134.48" y1="386.29" x2="134.48" y2="388.42"/><line style="fill:none;stroke:#6d6e71;stroke-width:.5;stroke-linecap:square" x1="117.66" y1="386.29" x2="117.66" y2="388.42"/><line style="fill:none;stroke:#6d6e71;stroke-width:.5;stroke-linecap:square" x1="100.66" y1="386.29" x2="100.66" y2="388.42"/><line style="fill:none;stroke:#6d6e71;stroke-width:.5;stroke-linecap:square" x1="83.66" y1="386.29" x2="83.66" y2="388.42"/><line style="fill:none;stroke:#6d6e71;stroke-width:.5;stroke-linecap:square" x1="66.66" y1="386.29" x2="66.66" y2="388.42"/><line style="fill:none;stroke:#6d6e71;stroke-width:.5;stroke-linecap:square;stroke-linejoin:round" x1="49.44" y1="352.35" x2="47.31" y2="352.35"/><line style="fill:none" x1="49.13" y1="335.41" x2="47.01" y2="335.41"/><line style="fill:none;stroke:#6d6e71;stroke-width:.5;stroke-linecap:square;stroke-linejoin:round" x1="49.13" y1="301.32" x2="47.01" y2="301.32"/><line style="fill:none;stroke:#6d6e71;stroke-width:.5;stroke-linecap:square;stroke-linejoin:round" x1="49.13" y1="335.41" x2="47.01" y2="335.41"/><line style="fill:none;stroke:#6d6e71;stroke-width:.5;stroke-linecap:square;stroke-linejoin:round" x1="49.13" y1="369.27" x2="47.01" y2="369.27"/><line style="fill:none;stroke:#6d6e71;stroke-width:.5;stroke-linecap:square;stroke-linejoin:round" x1="32.9" y1="122.52" x2="30.25" y2="122.52"/><line style="fill:none;stroke:#6d6e71;stroke-width:.5;stroke-linecap:square;stroke-linejoin:round" x1="32.9" y1="151.76" x2="30.25" y2="151.76"/><line style="fill:none;stroke:#6d6e71;stroke-width:.5;stroke-linecap:square;stroke-linejoin:round" x1="32.9" y1="93.5" x2="30.25" y2="93.5"/><line style="fill:none;stroke:#6d6e71;stroke-width:.5;stroke-linecap:square;stroke-linejoin:round" x1="32.9" y1="64.39" x2="30.25" y2="64.39"/><line style="fill:none;stroke:#6d6e71;stroke-width:.5;stroke-linecap:square;stroke-linejoin:round" x1="32.9" y1="35.32" x2="30.25" y2="35.32"/><line style="fill:none;stroke:#6d6e71;stroke-width:.5;stroke-linecap:square;stroke-linejoin:round" x1="32.96" y1="154.55" x2="32.96" y2="151.9"/><line style="fill:none;stroke:#6d6e71;stroke-width:.5;stroke-linecap:square;stroke-linejoin:round" x1="66.98" y1="154.55" x2="66.98" y2="151.9"/><line style="fill:none;stroke:#6d6e71;stroke-width:.5;stroke-linecap:square;stroke-linejoin:round" x1="100.99" y1="154.55" x2="100.99" y2="151.9"/><line style="fill:none;stroke:#6d6e71;stroke-width:.5;stroke-linecap:square;stroke-linejoin:round" x1="135.01" y1="154.55" x2="135.01" y2="151.9"/><line style="fill:none;stroke:#6d6e71;stroke-width:.5;stroke-linecap:square;stroke-linejoin:round" x1="169.03" y1="154.55" x2="169.03" y2="151.9"/><line style="fill:none;stroke:#6d6e71;stroke-width:.5;stroke-linecap:square;stroke-linejoin:round" x1="203.04" y1="154.55" x2="203.04" y2="151.9"/><line style="fill:none;stroke:#6d6e71;stroke-width:.5;stroke-linecap:square;stroke-linejoin:round" x1="237.06" y1="154.55" x2="237.06" y2="151.9"/><line style="fill:none;stroke:#6d6e71;stroke-width:.5;stroke-linecap:square;stroke-linejoin:round" x1="271.07" y1="154.55" x2="271.07" y2="151.9"/><line style="fill:none;stroke:#ea2728;stroke-width:.5;stroke-linejoin:round" x1="32.98" y1="6.25" x2="305.09" y2="151.64"/><line style="fill:none;stroke:#6d6e71;stroke-width:.5;stroke-linecap:square;stroke-linejoin:round" x1="32.9" y1="6.25" x2="30.25" y2="6.25"/><line style="fill:none;stroke:#6d6e71;stroke-width:.5;stroke-linecap:square" x1="32.98" y1="151.64" x2="305.09" y2="151.64"/><line style="fill:none;stroke:#6d6e71;stroke-width:.5;stroke-linecap:square;stroke-linejoin:round" x1="305.09" y1="154.55" x2="305.09" y2="151.9"/><line style="fill:none;stroke:#6d6e71;stroke-width:.5;stroke-linecap:square;stroke-linejoin:round" x1="32.98" y1="6.25" x2="32.98" y2="151.12"/></svg>