<svg version="1.1" xmlns="http://www.w3.org/2000/svg" x="0" y="0" viewBox="0 0 354.33 340.16" style="enable-background:new 0 0 354.33 340.16" xml:space="preserve"><path style="fill:none;stroke:#bf2026;stroke-width:.5;stroke-linecap:round;stroke-linejoin:round;stroke-miterlimit:10" d="M225.14 293.94c-.45-.49-1.8-1.98-2.69-2.96a7899.476 7899.476 0 01-5.38-5.92 7899.476 7899.476 0 01-5.38-5.92 7899.476 7899.476 0 01-5.38-5.92 7899.476 7899.476 0 01-5.38-5.92 7899.476 7899.476 0 01-5.38-5.92 7899.476 7899.476 0 01-5.38-5.92 7899.476 7899.476 0 01-5.38-5.92 7899.476 7899.476 0 01-5.38-5.92 7899.476 7899.476 0 01-5.38-5.92 7899.476 7899.476 0 01-5.38-5.92 7899.476 7899.476 0 01-5.38-5.92 7899.476 7899.476 0 01-5.38-5.92 7899.476 7899.476 0 01-5.38-5.92 7899.476 7899.476 0 01-5.38-5.92 7899.476 7899.476 0 01-5.38-5.92 7899.476 7899.476 0 01-5.38-5.92 7899.476 7899.476 0 01-5.38-5.92 7899.476 7899.476 0 01-5.38-5.92 7899.476 7899.476 0 01-5.38-5.92 7899.476 7899.476 0 01-5.38-5.92 7899.476 7899.476 0 01-5.38-5.92 7899.476 7899.476 0 01-5.38-5.92 7899.476 7899.476 0 01-5.38-5.92 7899.476 7899.476 0 01-5.38-5.92 7899.476 7899.476 0 01-5.38-5.92 7899.476 7899.476 0 01-5.38-5.92 7899.476 7899.476 0 01-5.38-5.92l-2.69-2.96"/><text transform="translate(54.768 19.376)"><tspan x="0" y="0" style="font-family:'Asap-Regular';font-size:7px">16</tspan><tspan x="7.45" y="0" style="font-family:'Asap-Regular';font-size:7px">8</tspan></text><text transform="translate(76.99 123.374)" style="font-family:'Asap-Regular';font-size:6px">A</text><text transform="translate(62.409 295.564)" style="font-family:'Asap-Regular';font-size:7px">0</text><text transform="translate(58.589 278.964)"><tspan x="0" y="0" style="font-family:'Asap-Regular';font-size:7px">1</tspan><tspan x="3.72" y="0" style="font-family:'Asap-Regular';font-size:7px">0</tspan></text><text transform="translate(58.589 262.362)"><tspan x="0" y="0" style="font-family:'Asap-Regular';font-size:7px">2</tspan><tspan x="3.72" y="0" style="font-family:'Asap-Regular';font-size:7px">0</tspan></text><text transform="translate(58.589 245.762)"><tspan x="0" y="0" style="font-family:'Asap-Regular';font-size:7px">3</tspan><tspan x="3.72" y="0" style="font-family:'Asap-Regular';font-size:7px">0</tspan></text><text transform="translate(58.589 229.16)"><tspan x="0" y="0" style="font-family:'Asap-Regular';font-size:7px">4</tspan><tspan x="3.72" y="0" style="font-family:'Asap-Regular';font-size:7px">0</tspan></text><text transform="translate(58.589 212.554)"><tspan x="0" y="0" style="font-family:'Asap-Regular';font-size:7px">5</tspan><tspan x="3.72" y="0" style="font-family:'Asap-Regular';font-size:7px">0</tspan></text><text transform="translate(58.589 195.951)"><tspan x="0" y="0" style="font-family:'Asap-Regular';font-size:7px">6</tspan><tspan x="3.72" y="0" style="font-family:'Asap-Regular';font-size:7px">0</tspan></text><text transform="translate(58.589 179.351)"><tspan x="0" y="0" style="font-family:'Asap-Regular';font-size:7px">7</tspan><tspan x="3.72" y="0" style="font-family:'Asap-Regular';font-size:7px">0</tspan></text><text transform="translate(58.589 162.75)"><tspan x="0" y="0" style="font-family:'Asap-Regular';font-size:7px">8</tspan><tspan x="3.72" y="0" style="font-family:'Asap-Regular';font-size:7px">0</tspan></text><text transform="translate(58.589 146.15)"><tspan x="0" y="0" style="font-family:'Asap-Regular';font-size:7px">9</tspan><tspan x="3.72" y="0" style="font-family:'Asap-Regular';font-size:7px">0</tspan></text><text transform="translate(54.768 129.548)"><tspan x="0" y="0" style="font-family:'Asap-Regular';font-size:7px">1</tspan><tspan x="3.72" y="0" style="font-family:'Asap-Regular';font-size:7px">0</tspan><tspan x="7.53" y="0" style="font-family:'Asap-Regular';font-size:7px">0</tspan></text><text transform="translate(54.768 112.947)"><tspan x="0" y="0" style="font-family:'Asap-Regular';font-size:7px">1</tspan><tspan x="3.72" y="0" style="font-family:'Asap-Regular';font-size:7px">1</tspan><tspan x="7.53" y="0" style="font-family:'Asap-Regular';font-size:7px">0</tspan></text><text transform="translate(54.768 96.339)"><tspan x="0" y="0" style="font-family:'Asap-Regular';font-size:7px">1</tspan><tspan x="3.72" y="0" style="font-family:'Asap-Regular';font-size:7px">2</tspan><tspan x="7.53" y="0" style="font-family:'Asap-Regular';font-size:7px">0</tspan></text><text transform="translate(54.768 79.738)"><tspan x="0" y="0" style="font-family:'Asap-Regular';font-size:7px">1</tspan><tspan x="3.72" y="0" style="font-family:'Asap-Regular';font-size:7px">3</tspan><tspan x="7.53" y="0" style="font-family:'Asap-Regular';font-size:7px">0</tspan></text><text transform="translate(54.768 63.137)"><tspan x="0" y="0" style="font-family:'Asap-Regular';font-size:7px">1</tspan><tspan x="3.72" y="0" style="font-family:'Asap-Regular';font-size:7px">4</tspan><tspan x="7.53" y="0" style="font-family:'Asap-Regular';font-size:7px">0</tspan></text><text transform="translate(54.768 46.536)"><tspan x="0" y="0" style="font-family:'Asap-Regular';font-size:7px">1</tspan><tspan x="3.72" y="0" style="font-family:'Asap-Regular';font-size:7px">5</tspan><tspan x="7.53" y="0" style="font-family:'Asap-Regular';font-size:7px">0</tspan></text><text transform="translate(54.768 29.934)"><tspan x="0" y="0" style="font-family:'Asap-Regular';font-size:7px">1</tspan><tspan x="3.72" y="0" style="font-family:'Asap-Regular';font-size:7px">6</tspan><tspan x="7.53" y="0" style="font-family:'Asap-Regular';font-size:7px">0</tspan></text><text transform="translate(54.768 13.334)"><tspan x="0" y="0" style="font-family:'Asap-Regular';font-size:7px">1</tspan><tspan x="3.72" y="0" style="font-family:'Asap-Regular';font-size:7px">7</tspan><tspan x="7.53" y="0" style="font-family:'Asap-Regular';font-size:7px">0</tspan></text><text transform="translate(72.41 307.092)" style="font-family:'Asap-Regular';font-size:7px">0</text><text transform="translate(97.431 307.092)"><tspan x="0" y="0" style="font-family:'Asap-Regular';font-size:7px">1</tspan><tspan x="3.72" y="0" style="font-family:'Asap-Regular';font-size:7px">0</tspan></text><text transform="translate(124.36 307.092)"><tspan x="0" y="0" style="font-family:'Asap-Regular';font-size:7px">2</tspan><tspan x="3.72" y="0" style="font-family:'Asap-Regular';font-size:7px">0</tspan></text><text transform="translate(151.295 307.092)"><tspan x="0" y="0" style="font-family:'Asap-Regular';font-size:7px">3</tspan><tspan x="3.72" y="0" style="font-family:'Asap-Regular';font-size:7px">0</tspan></text><text transform="translate(178.222 307.092)"><tspan x="0" y="0" style="font-family:'Asap-Regular';font-size:7px">4</tspan><tspan x="3.72" y="0" style="font-family:'Asap-Regular';font-size:7px">0</tspan></text><text transform="translate(205.157 307.092)"><tspan x="0" y="0" style="font-family:'Asap-Regular';font-size:7px">5</tspan><tspan x="3.72" y="0" style="font-family:'Asap-Regular';font-size:7px">0</tspan></text><text transform="translate(232.086 307.092)"><tspan x="0" y="0" style="font-family:'Asap-Regular';font-size:7px">6</tspan><tspan x="3.72" y="0" style="font-family:'Asap-Regular';font-size:7px">0</tspan></text><text transform="translate(259.02 307.092)"><tspan x="0" y="0" style="font-family:'Asap-Regular';font-size:7px">7</tspan><tspan x="3.72" y="0" style="font-family:'Asap-Regular';font-size:7px">0</tspan></text><text transform="translate(285.95 307.092)"><tspan x="0" y="0" style="font-family:'Asap-Regular';font-size:7px">8</tspan><tspan x="3.72" y="0" style="font-family:'Asap-Regular';font-size:7px">0</tspan></text><text transform="translate(312.878 307.092)"><tspan x="0" y="0" style="font-family:'Asap-Regular';font-size:7px">9</tspan><tspan x="3.72" y="0" style="font-family:'Asap-Regular';font-size:7px">0</tspan></text><text transform="translate(337.906 307.092)"><tspan x="0" y="0" style="font-family:'Asap-Regular';font-size:7px">1</tspan><tspan x="3.72" y="0" style="font-family:'Asap-Regular';font-size:7px">0</tspan><tspan x="7.53" y="0" style="font-family:'Asap-Regular';font-size:7px">0</tspan></text><text transform="translate(14.86 121.428)"><tspan x="0" y="0" style="font-family:'Asap-Regular';font-size:6px">J</tspan><tspan x="2.4" y="0" style="font-family:'Asap-Regular';font-size:6px">u</tspan><tspan x="5.71" y="0" style="font-family:'Asap-Regular';font-size:6px">l</tspan><tspan x="7.48" y="0" style="font-family:'Asap-Regular';font-size:6px">i</tspan><tspan x="9.11" y="0" style="font-family:'Asap-Regular';font-size:6px">a’</tspan><tspan x="13.69" y="0" style="font-family:'Asap-Regular';font-size:6px">s</tspan><tspan x="16.16" y="0" style="font-family:'Asap-Regular';font-size:6px"> </tspan><tspan x="17.48" y="0" style="font-family:'Asap-Regular';font-size:6px">e</tspan><tspan x="20.69" y="0" style="font-family:'Asap-Regular';font-size:6px">n</tspan><tspan x="24.07" y="0" style="font-family:'Asap-Regular';font-size:6px">d</tspan><tspan x="27.44" y="0" style="font-family:'Asap-Regular';font-size:6px">o</tspan><tspan x="30.83" y="0" style="font-family:'Asap-Regular';font-size:6px">w</tspan><tspan x="35.31" y="0" style="font-family:'Asap-Regular';font-size:6px">m</tspan><tspan x="40.43" y="0" style="font-family:'Asap-Regular';font-size:6px">e</tspan><tspan x="43.65" y="0" style="font-family:'Asap-Regular';font-size:6px">n</tspan><tspan x="47.02" y="0" style="font-family:'Asap-Regular';font-size:6px">t</tspan></text><text transform="translate(106.845 66.71)"><tspan x="0" y="0" style="font-family:'Asap-Regular';font-size:6px">FF</tspan><tspan x="6.01" y="0" style="font-family:'Asap-Regular';font-size:6px"> (</tspan><tspan x="9.2" y="0" style="font-family:'Asap-Regular';font-size:6px">b</tspan><tspan x="12.61" y="0" style="font-family:'Asap-Regular';font-size:6px">orro</tspan><tspan x="23.73" y="0" style="font-family:'Asap-Regular';font-size:6px">w</tspan><tspan x="28.21" y="0" style="font-family:'Asap-Regular';font-size:6px"> </tspan><tspan x="29.69" y="0" style="font-family:'Asap-Regular';font-size:6px">a</tspan><tspan x="32.98" y="0" style="font-family:'Asap-Regular';font-size:6px">t</tspan><tspan x="35.06" y="0" style="font-family:'Asap-Regular';font-size:6px"> </tspan><tspan x="36.47" y="0" style="font-family:'Asap-Regular';font-size:6px">78%</tspan><tspan x="47.41" y="0" style="font-family:'Asap-Regular';font-size:6px">;</tspan><tspan x="48.61" y="0" style="font-family:'Asap-Regular';font-size:6px"> </tspan><tspan x="50.02" y="0" style="font-family:'Asap-Regular';font-size:6px">i</tspan><tspan x="51.65" y="0" style="font-family:'Asap-Regular';font-size:6px">n</tspan><tspan x="55.02" y="0" style="font-family:'Asap-Regular';font-size:6px">v</tspan><tspan x="57.9" y="0" style="font-family:'Asap-Regular';font-size:6px">e</tspan><tspan x="61.11" y="0" style="font-family:'Asap-Regular';font-size:6px">s</tspan><tspan x="63.59" y="0" style="font-family:'Asap-Regular';font-size:6px">t</tspan><tspan x="65.66" y="0" style="font-family:'Asap-Regular';font-size:6px"> </tspan><tspan x="66.98" y="0" style="font-family:'Asap-Regular';font-size:6px">w</tspan><tspan x="71.46" y="0" style="font-family:'Asap-Regular';font-size:6px">i</tspan><tspan x="73.08" y="0" style="font-family:'Asap-Regular';font-size:6px">t</tspan><tspan x="75.16" y="0" style="font-family:'Asap-Regular';font-size:6px">h</tspan><tspan x="78.51" y="0" style="font-family:'Asap-Regular';font-size:6px"> </tspan><tspan x="79.92" y="0" style="font-family:'Asap-Regular';font-size:6px">200%</tspan><tspan x="94.05" y="0" style="font-family:'Asap-Regular';font-size:6px"> </tspan><tspan x="95.46" y="0" style="font-family:'Asap-Regular';font-size:6px">r</tspan><tspan x="97.63" y="0" style="font-family:'Asap-Regular';font-size:6px">e</tspan><tspan x="100.85" y="0" style="font-family:'Asap-Regular';font-size:6px">t</tspan><tspan x="102.92" y="0" style="font-family:'Asap-Regular';font-size:6px">u</tspan><tspan x="106.23" y="0" style="font-family:'Asap-Regular';font-size:6px">r</tspan><tspan x="108.4" y="0" style="font-family:'Asap-Regular';font-size:6px">n</tspan><tspan x="111.77" y="0" style="font-family:'Asap-Regular';font-size:6px">)</tspan></text><text transform="translate(100.338 316.506)"><tspan x="0" y="0" style="font-family:'Asap-Regular';font-size:6.8612px">C</tspan><tspan x="4.23" y="0" style="font-family:'Asap-Regular';font-size:6.8612px">o</tspan><tspan x="8.1" y="0" style="font-family:'Asap-Regular';font-size:6.8612px">n</tspan><tspan x="11.96" y="0" style="font-family:'Asap-Regular';font-size:6.8612px">s</tspan><tspan x="14.79" y="0" style="font-family:'Asap-Regular';font-size:6.8612px">u</tspan><tspan x="18.57" y="0" style="font-family:'Asap-Regular';font-size:6.8612px">m</tspan><tspan x="24.43" y="0" style="font-family:'Asap-Regular';font-size:6.8612px">p</tspan><tspan x="28.34" y="0" style="font-family:'Asap-Regular';font-size:6.8612px">t</tspan><tspan x="30.72" y="0" style="font-family:'Asap-Regular';font-size:6.8612px">i</tspan><tspan x="32.58" y="0" style="font-family:'Asap-Regular';font-size:6.8612px">o</tspan><tspan x="36.45" y="0" style="font-family:'Asap-Regular';font-size:6.8612px">n</tspan></text><text transform="translate(113.652 326.24)"><tspan x="0" y="0" style="font-family:'Asap-Regular';font-size:6.8612px">n</tspan><tspan x="3.86" y="0" style="font-family:'Asap-Regular';font-size:6.8612px">o</tspan><tspan x="7.73" y="0" style="font-family:'Asap-Regular';font-size:6.8612px">w</tspan></text><text transform="translate(178.323 316.592)"><tspan x="0" y="0" style="font-family:'Asap-Regular';font-size:6.8612px">In</tspan><tspan x="5.83" y="0" style="font-family:'Asap-Regular';font-size:6.8612px">v</tspan><tspan x="9.12" y="0" style="font-family:'Asap-Regular';font-size:6.8612px">e</tspan><tspan x="12.8" y="0" style="font-family:'Asap-Regular';font-size:6.8612px">s</tspan><tspan x="15.63" y="0" style="font-family:'Asap-Regular';font-size:6.8612px">t</tspan><tspan x="18" y="0" style="font-family:'Asap-Regular';font-size:6.8612px">m</tspan><tspan x="23.86" y="0" style="font-family:'Asap-Regular';font-size:6.8612px">e</tspan><tspan x="27.54" y="0" style="font-family:'Asap-Regular';font-size:6.8612px">n</tspan><tspan x="31.4" y="0" style="font-family:'Asap-Regular';font-size:6.8612px">t</tspan></text><text transform="translate(90.877 29.222)"><tspan x="0" y="0" style="font-family:'Asap-Regular';font-size:6px">FF</tspan><tspan x="6.01" y="0" style="font-family:'Asap-Regular';font-size:6px"> (</tspan><tspan x="9.2" y="0" style="font-family:'Asap-Regular';font-size:6px">b</tspan><tspan x="12.61" y="0" style="font-family:'Asap-Regular';font-size:6px">orro</tspan><tspan x="23.73" y="0" style="font-family:'Asap-Regular';font-size:6px">w</tspan><tspan x="28.21" y="0" style="font-family:'Asap-Regular';font-size:6px">;</tspan><tspan x="29.41" y="0" style="font-family:'Asap-Regular';font-size:6px"> </tspan><tspan x="30.9" y="0" style="font-family:'Asap-Regular';font-size:6px">i</tspan><tspan x="32.53" y="0" style="font-family:'Asap-Regular';font-size:6px">n</tspan><tspan x="35.9" y="0" style="font-family:'Asap-Regular';font-size:6px">t</tspan><tspan x="37.97" y="0" style="font-family:'Asap-Regular';font-size:6px">e</tspan><tspan x="41.19" y="0" style="font-family:'Asap-Regular';font-size:6px">r</tspan><tspan x="43.36" y="0" style="font-family:'Asap-Regular';font-size:6px">e</tspan><tspan x="46.58" y="0" style="font-family:'Asap-Regular';font-size:6px">s</tspan><tspan x="49.05" y="0" style="font-family:'Asap-Regular';font-size:6px">t</tspan><tspan x="51.12" y="0" style="font-family:'Asap-Regular';font-size:6px"> </tspan><tspan x="52.44" y="0" style="font-family:'Asap-Regular';font-size:6px">r</tspan><tspan x="54.62" y="0" style="font-family:'Asap-Regular';font-size:6px">a</tspan><tspan x="57.9" y="0" style="font-family:'Asap-Regular';font-size:6px">t</tspan><tspan x="59.98" y="0" style="font-family:'Asap-Regular';font-size:6px">e</tspan><tspan x="63.2" y="0" style="font-family:'Asap-Regular';font-size:6px"> </tspan><tspan x="64.61" y="0" style="font-family:'Asap-Regular';font-size:6px">=</tspan><tspan x="67.94" y="0" style="font-family:'Asap-Regular';font-size:6px"> </tspan><tspan x="69.35" y="0" style="font-family:'Asap-Regular';font-size:6px">78%</tspan><tspan x="80.29" y="0" style="font-family:'Asap-Regular';font-size:6px">)</tspan></text><line style="fill:none;stroke:#a6a5a5;stroke-width:.5;stroke-miterlimit:8" x1="92.12" y1="32.29" x2="92.12" y2="142.55"/><polygon style="fill:#a6a5a5" points="90.07 140.89 90.44 140.55 92.12 142.36 93.8 140.55 94.16 140.89 92.12 143.09"/><text transform="translate(220.105 307.092)"><tspan x="0" y="0" style="font-family:'Asap-Regular';font-size:7px">5</tspan><tspan x="3.72" y="0" style="font-family:'Asap-Regular';font-size:7px">6</tspan></text><text transform="rotate(-90 107.052 96.915)" style="font-family:'Asap-Medium';font-size:8px">Consumption later ($)</text><line style="fill:none;stroke:#6d6e71;stroke-width:.5;stroke-linecap:square" x1="74.5" y1="294.76" x2="74.5" y2="11.55"/><line style="fill:none;stroke:#6d6e71;stroke-width:.5;stroke-linecap:square" x1="72.08" y1="294.17" x2="74.31" y2="294.17"/><line style="fill:none;stroke:#6d6e71;stroke-width:.5;stroke-linecap:square" x1="74.5" y1="294.76" x2="74.5" y2="296.98"/><line style="fill:none;stroke:#6d6e71;stroke-width:.5;stroke-linecap:square" x1="343.94" y1="294.46" x2="343.94" y2="296.67"/><line style="fill:none;stroke:#6d6e71;stroke-width:.5;stroke-linecap:square" x1="316.99" y1="294.76" x2="316.99" y2="296.98"/><line style="fill:none;stroke:#6d6e71;stroke-width:.5;stroke-linecap:square" x1="290.05" y1="294.76" x2="290.05" y2="296.98"/><line style="fill:none;stroke:#6d6e71;stroke-width:.5;stroke-linecap:square" x1="263.11" y1="294.76" x2="263.11" y2="296.98"/><line style="fill:none;stroke:#6d6e71;stroke-width:.5;stroke-linecap:square" x1="236.16" y1="294.76" x2="236.16" y2="296.98"/><line style="fill:none;stroke:#6d6e71;stroke-width:.5;stroke-linecap:square" x1="209.22" y1="294.76" x2="209.22" y2="296.98"/><line style="fill:none;stroke:#6d6e71;stroke-width:.5;stroke-linecap:square" x1="225.14" y1="294.76" x2="225.14" y2="296.98"/><line style="fill:none;stroke:#6d6e71;stroke-width:.5;stroke-linecap:square" x1="182.28" y1="294.76" x2="182.28" y2="296.98"/><line style="fill:none;stroke:#6d6e71;stroke-width:.5;stroke-linecap:square" x1="155.33" y1="294.76" x2="155.33" y2="296.98"/><line style="fill:none;stroke:#6d6e71;stroke-width:.5;stroke-linecap:square" x1="128.39" y1="294.76" x2="128.39" y2="296.98"/><line style="fill:none;stroke:#6d6e71;stroke-width:.5;stroke-linecap:square" x1="101.45" y1="294.76" x2="101.45" y2="296.98"/><line style="fill:none;stroke:#6d6e71;stroke-width:.5;stroke-linecap:square" x1="72.15" y1="11.55" x2="74.37" y2="11.55"/><line style="fill:none;stroke:#6d6e71;stroke-width:.5;stroke-linecap:square" x1="72.15" y1="16.55" x2="74.37" y2="16.55"/><line style="fill:none;stroke:#6d6e71;stroke-width:.5;stroke-linecap:square" x1="72.08" y1="28.17" x2="74.31" y2="28.17"/><line style="fill:none;stroke:#6d6e71;stroke-width:.5;stroke-linecap:square" x1="72.08" y1="44.8" x2="74.31" y2="44.8"/><line style="fill:none;stroke:#6d6e71;stroke-width:.5;stroke-linecap:square" x1="72.08" y1="61.42" x2="74.31" y2="61.42"/><line style="fill:none;stroke:#6d6e71;stroke-width:.5;stroke-linecap:square" x1="72.08" y1="78.05" x2="74.31" y2="78.05"/><line style="fill:none;stroke:#6d6e71;stroke-width:.5;stroke-linecap:square" x1="72.08" y1="94.67" x2="74.31" y2="94.67"/><line style="fill:none;stroke:#6d6e71;stroke-width:.5;stroke-linecap:square" x1="72.08" y1="111.3" x2="74.31" y2="111.3"/><line style="fill:none;stroke:#6d6e71;stroke-width:.5;stroke-linecap:square" x1="72.08" y1="127.92" x2="74.31" y2="127.92"/><line style="fill:none;stroke:#6d6e71;stroke-width:.5;stroke-linecap:square" x1="72.08" y1="144.55" x2="74.31" y2="144.55"/><line style="fill:none;stroke:#6d6e71;stroke-width:.5;stroke-linecap:square" x1="72.08" y1="161.17" x2="74.31" y2="161.17"/><line style="fill:none;stroke:#6d6e71;stroke-width:.5;stroke-linecap:square" x1="72.08" y1="177.8" x2="74.31" y2="177.8"/><line style="fill:none;stroke:#6d6e71;stroke-width:.5;stroke-linecap:square" x1="72.08" y1="194.42" x2="74.31" y2="194.42"/><line style="fill:none;stroke:#6d6e71;stroke-width:.5;stroke-linecap:square" x1="72.08" y1="211.05" x2="74.31" y2="211.05"/><line style="fill:none;stroke:#6d6e71;stroke-width:.5;stroke-linecap:square" x1="72.08" y1="227.67" x2="74.31" y2="227.67"/><line style="fill:none;stroke:#6d6e71;stroke-width:.5;stroke-linecap:square" x1="72.08" y1="244.3" x2="74.31" y2="244.3"/><line style="fill:none;stroke:#6d6e71;stroke-width:.5;stroke-linecap:square" x1="72.08" y1="260.92" x2="74.31" y2="260.92"/><line style="fill:none;stroke:#6d6e71;stroke-width:.5;stroke-linecap:square" x1="72.08" y1="277.55" x2="74.31" y2="277.55"/><circle cx="74.5" cy="127.92" r="1.13"/><line style="fill:none;stroke:#ec2426;stroke-width:.5;stroke-linecap:square;stroke-linejoin:round;stroke-dasharray:1.417" x1="74.79" y1="16.87" x2="225.14" y2="293.93"/><circle cx="74.5" cy="16.46" r="1.13"/><line style="fill:none;stroke:#6d6e71;stroke-width:.5;stroke-linecap:square" x1="74.5" y1="294.17" x2="343.94" y2="294.17"/><text transform="translate(171.941 335.359)" style="font-family:'Asap-Medium';font-size:8px">Consumption now ($)</text></svg>