<svg version="1.1" xmlns="http://www.w3.org/2000/svg" x="0" y="0" viewBox="0 0 311.81 172.03" style="enable-background:new 0 0 311.81 172.03" xml:space="preserve"><rect x="145.24" y="5.09" style="fill:#e4d1d6" width="99.91" height="59.68"/><rect x="105.45" y="5.09" style="fill:#fee9dd" width="39.79" height="59.83"/><text transform="translate(107.906 62.952)" style="font-family:'Asap-Regular';font-size:6px">A</text><rect x="145.24" y="64.92" style="fill:#e3e3f2" width="99.91" height="53.07"/><text transform="translate(147.86 116.521)" style="font-family:'Asap-Regular';font-size:6px">B</text><circle cx="158.51" cy="78.38" r="1.13"/><g><text transform="translate(134.572 50.716)" style="font-family:'Asap-Regular';font-size:6px">C</text></g><g><text transform="translate(161.239 77.378)" style="font-family:'Asap-Regular';font-size:6px">D</text></g><g><polyline style="fill:none;stroke:#ed2124;stroke-width:.5;stroke-miterlimit:10" points="105.45 5.09 105.45 64.77 245.15 64.77"/><polyline style="fill:none;stroke:#3a53a4;stroke-width:.5;stroke-miterlimit:10" points="145.24 5.09 145.24 117.99 245.15 117.99"/><text transform="translate(226.62 130.045)" style="font-family:'Asap-Regular';font-size:6px">E</text><circle cx="224.82" cy="131.67" r="1.13"/><circle cx="145.24" cy="117.99" r="1.13"/><circle cx="105.45" cy="64.77" r="1.13"/><circle cx="131.98" cy="51.75" r="1.13"/></g><g><path style="fill:none;stroke:#6d6e71;stroke-width:.5;stroke-miterlimit:10" d="M231.91 145h-140V5.09"/><line style="fill:none;stroke:#6d6e71;stroke-width:.6008;stroke-miterlimit:10" x1="91.91" y1="117.82" x2="89.78" y2="117.82"/><line style="fill:none;stroke:#6d6e71;stroke-width:.6008;stroke-miterlimit:10" x1="91.91" y1="104.56" x2="89.78" y2="104.56"/><line style="fill:none;stroke:#6d6e71;stroke-width:.6008;stroke-miterlimit:10" x1="91.91" y1="91.3" x2="89.78" y2="91.3"/><line style="fill:none;stroke:#6d6e71;stroke-width:.6008;stroke-miterlimit:10" x1="91.91" y1="78.03" x2="89.78" y2="78.03"/><line style="fill:none;stroke:#6d6e71;stroke-width:.6008;stroke-miterlimit:10" x1="91.91" y1="64.77" x2="89.78" y2="64.77"/><line style="fill:none;stroke:#6d6e71;stroke-width:.6008;stroke-miterlimit:10" x1="91.91" y1="51.51" x2="89.78" y2="51.51"/><line style="fill:none;stroke:#6d6e71;stroke-width:.6008;stroke-miterlimit:10" x1="91.91" y1="38.24" x2="89.78" y2="38.24"/><line style="fill:none;stroke:#6d6e71;stroke-width:.6008;stroke-miterlimit:10" x1="91.91" y1="24.98" x2="89.78" y2="24.98"/><line style="fill:none;stroke:#6d6e71;stroke-width:.6008;stroke-miterlimit:10" x1="91.91" y1="11.72" x2="89.78" y2="11.72"/><line style="fill:none;stroke:#6d6e71;stroke-width:.5994;stroke-miterlimit:10" x1="91.91" y1="131.09" x2="89.78" y2="131.09"/><line style="fill:none;stroke:#6d6e71;stroke-width:.5;stroke-miterlimit:10" x1="198.3" y1="145" x2="198.3" y2="147.13"/><line style="fill:none;stroke:#6d6e71;stroke-width:.5;stroke-miterlimit:10" x1="185.03" y1="145" x2="185.03" y2="147.13"/><line style="fill:none;stroke:#6d6e71;stroke-width:.5;stroke-miterlimit:10" x1="171.77" y1="145" x2="171.77" y2="147.13"/><line style="fill:none;stroke:#6d6e71;stroke-width:.5;stroke-miterlimit:10" x1="158.51" y1="145" x2="158.51" y2="147.13"/><line style="fill:none;stroke:#6d6e71;stroke-width:.5;stroke-miterlimit:10" x1="145.24" y1="145" x2="145.24" y2="147.13"/><line style="fill:none;stroke:#6d6e71;stroke-width:.5;stroke-miterlimit:10" x1="131.98" y1="145" x2="131.98" y2="147.13"/><line style="fill:none;stroke:#6d6e71;stroke-width:.5;stroke-miterlimit:10" x1="118.72" y1="145" x2="118.72" y2="147.13"/><line style="fill:none;stroke:#6d6e71;stroke-width:.5;stroke-miterlimit:10" x1="105.45" y1="145" x2="105.45" y2="147.13"/><line style="fill:none;stroke:#6d6e71;stroke-width:.5;stroke-miterlimit:10" x1="224.82" y1="145" x2="224.82" y2="147.13"/><line style="fill:none;stroke:#6d6e71;stroke-width:.5;stroke-miterlimit:10" x1="211.56" y1="145" x2="211.56" y2="147.13"/><text transform="translate(103.572 155.254)" style="font-family:'Asap-Regular';font-size:7px">1</text><text transform="translate(117.058 155.254)" style="font-family:'Asap-Regular';font-size:7px">2</text><text transform="translate(130.544 155.254)" style="font-family:'Asap-Regular';font-size:7px">3</text><text transform="translate(144.03 155.254)" style="font-family:'Asap-Regular';font-size:7px">4</text><text transform="translate(157.515 155.254)" style="font-family:'Asap-Regular';font-size:7px">5</text><text transform="translate(171.001 155.254)" style="font-family:'Asap-Regular';font-size:7px">6</text><text transform="translate(184.487 155.254)" style="font-family:'Asap-Regular';font-size:7px">7</text><text transform="translate(197.972 155.254)" style="font-family:'Asap-Regular';font-size:7px">8</text><text transform="translate(211.458 155.254)" style="font-family:'Asap-Regular';font-size:7px">9</text><text transform="translate(223.072 155.254)" style="font-family:'Asap-Regular';font-size:7px">10</text><text transform="rotate(-90 89.554 21.06)" style="font-family:'Asap-Medium';font-size:8px">Amount of coal (tons)</text><text transform="translate(132.544 169.184)" style="font-family:'Asap-Medium';font-size:8px">Number of workers</text><text transform="translate(81.572 133.254)" style="font-family:'Asap-Regular';font-size:7px">1</text><text transform="translate(81.572 119.976)" style="font-family:'Asap-Regular';font-size:7px">2</text><text transform="translate(81.572 106.698)" style="font-family:'Asap-Regular';font-size:7px">3</text><text transform="translate(81.572 93.42)" style="font-family:'Asap-Regular';font-size:7px">4</text><text transform="translate(81.572 80.142)" style="font-family:'Asap-Regular';font-size:7px">5</text><text transform="translate(81.572 66.865)" style="font-family:'Asap-Regular';font-size:7px">6</text><text transform="translate(81.572 53.587)" style="font-family:'Asap-Regular';font-size:7px">7</text><text transform="translate(81.572 40.31)" style="font-family:'Asap-Regular';font-size:7px">8</text><text transform="translate(81.572 27.032)" style="font-family:'Asap-Regular';font-size:7px">9</text><text transform="translate(79.572 13.754)" style="font-family:'Asap-Regular';font-size:7px">10</text></g></svg>