<svg version="1.1" xmlns="http://www.w3.org/2000/svg" x="0" y="0" viewBox="0 0 354.33 228.58" style="enable-background:new 0 0 354.33 228.58" xml:space="preserve"><path d="M83.47 200.62l.3-175.65c70.45 58.47 140.9 116.95 211.34 175.42-70.54.07-141.09.15-211.64.23z" style="opacity:.1804;fill-rule:evenodd;clip-rule:evenodd;fill:#ec7d30"/><polygon points="83.39 200.09 83.39 24.16 214.37 200.09 83.39 200.09" style="opacity:.1804;fill-rule:evenodd;clip-rule:evenodd;fill:#ec7d30"/><text transform="translate(74.087 202.528)" style="font-size:7px;font-family:'Asap-Regular'">0</text><text transform="translate(70.363 184.986)"><tspan x="0" y="0" style="font-size:7px;font-family:'Asap-Regular'">1</tspan><tspan x="3.72" y="0" style="font-size:7px;font-family:'Asap-Regular'">0</tspan></text><text transform="translate(70.363 167.444)"><tspan x="0" y="0" style="font-size:7px;font-family:'Asap-Regular'">2</tspan><tspan x="3.72" y="0" style="font-size:7px;font-family:'Asap-Regular'">0</tspan></text><text transform="translate(70.363 149.902)"><tspan x="0" y="0" style="font-size:7px;font-family:'Asap-Regular'">3</tspan><tspan x="3.72" y="0" style="font-size:7px;font-family:'Asap-Regular'">0</tspan></text><text transform="translate(70.363 132.36)"><tspan x="0" y="0" style="font-size:7px;font-family:'Asap-Regular'">4</tspan><tspan x="3.72" y="0" style="font-size:7px;font-family:'Asap-Regular'">0</tspan></text><text transform="translate(70.363 114.819)"><tspan x="0" y="0" style="font-size:7px;font-family:'Asap-Regular'">5</tspan><tspan x="3.72" y="0" style="font-size:7px;font-family:'Asap-Regular'">0</tspan></text><text transform="translate(70.363 97.277)"><tspan x="0" y="0" style="font-size:7px;font-family:'Asap-Regular'">6</tspan><tspan x="3.72" y="0" style="font-size:7px;font-family:'Asap-Regular'">0</tspan></text><text transform="translate(70.363 79.735)"><tspan x="0" y="0" style="font-size:7px;font-family:'Asap-Regular'">7</tspan><tspan x="3.72" y="0" style="font-size:7px;font-family:'Asap-Regular'">0</tspan></text><text transform="translate(70.363 62.193)"><tspan x="0" y="0" style="font-size:7px;font-family:'Asap-Regular'">8</tspan><tspan x="3.72" y="0" style="font-size:7px;font-family:'Asap-Regular'">0</tspan></text><text transform="translate(70.363 44.651)"><tspan x="0" y="0" style="font-size:7px;font-family:'Asap-Regular'">9</tspan><tspan x="3.72" y="0" style="font-size:7px;font-family:'Asap-Regular'">0</tspan></text><text transform="translate(66.556 27.11)"><tspan x="0" y="0" style="font-size:7px;font-family:'Asap-Regular'">1</tspan><tspan x="3.72" y="0" style="font-size:7px;font-family:'Asap-Regular'">0</tspan><tspan x="7.53" y="0" style="font-size:7px;font-family:'Asap-Regular'">0</tspan></text><text transform="translate(66.556 9.568)"><tspan x="0" y="0" style="font-size:7px;font-family:'Asap-Regular'">1</tspan><tspan x="3.72" y="0" style="font-size:7px;font-family:'Asap-Regular'">1</tspan><tspan x="7.53" y="0" style="font-size:7px;font-family:'Asap-Regular'">0</tspan></text><text transform="translate(81.9 212.638)" style="font-size:7px;font-family:'Asap-Regular'">0</text><text transform="translate(103.225 212.638)"><tspan x="0" y="0" style="font-size:7px;font-family:'Asap-Regular'">1</tspan><tspan x="3.72" y="0" style="font-size:7px;font-family:'Asap-Regular'">0</tspan></text><text transform="translate(126.413 212.638)"><tspan x="0" y="0" style="font-size:7px;font-family:'Asap-Regular'">2</tspan><tspan x="3.72" y="0" style="font-size:7px;font-family:'Asap-Regular'">0</tspan></text><text transform="translate(149.6 212.638)"><tspan x="0" y="0" style="font-size:7px;font-family:'Asap-Regular'">3</tspan><tspan x="3.72" y="0" style="font-size:7px;font-family:'Asap-Regular'">0</tspan></text><text transform="translate(172.788 212.638)"><tspan x="0" y="0" style="font-size:7px;font-family:'Asap-Regular'">4</tspan><tspan x="3.72" y="0" style="font-size:7px;font-family:'Asap-Regular'">0</tspan></text><text transform="translate(195.976 212.638)"><tspan x="0" y="0" style="font-size:7px;font-family:'Asap-Regular'">5</tspan><tspan x="3.72" y="0" style="font-size:7px;font-family:'Asap-Regular'">0</tspan></text><text transform="translate(219.164 212.638)"><tspan x="0" y="0" style="font-size:7px;font-family:'Asap-Regular'">6</tspan><tspan x="3.72" y="0" style="font-size:7px;font-family:'Asap-Regular'">0</tspan></text><text transform="translate(242.351 212.638)"><tspan x="0" y="0" style="font-size:7px;font-family:'Asap-Regular'">7</tspan><tspan x="3.72" y="0" style="font-size:7px;font-family:'Asap-Regular'">0</tspan></text><text transform="translate(265.539 212.638)"><tspan x="0" y="0" style="font-size:7px;font-family:'Asap-Regular'">8</tspan><tspan x="3.72" y="0" style="font-size:7px;font-family:'Asap-Regular'">0</tspan></text><text transform="translate(288.727 212.638)"><tspan x="0" y="0" style="font-size:7px;font-family:'Asap-Regular'">9</tspan><tspan x="3.72" y="0" style="font-size:7px;font-family:'Asap-Regular'">0</tspan></text><text transform="translate(310.01 212.638)"><tspan x="0" y="0" style="font-size:7px;font-family:'Asap-Regular'">1</tspan><tspan x="3.72" y="0" style="font-size:7px;font-family:'Asap-Regular'">0</tspan><tspan x="7.53" y="0" style="font-size:7px;font-family:'Asap-Regular'">0</tspan></text><text transform="translate(333.198 212.638)"><tspan x="0" y="0" style="font-size:7px;font-family:'Asap-Regular'">1</tspan><tspan x="3.72" y="0" style="font-size:7px;font-family:'Asap-Regular'">1</tspan><tspan x="7.53" y="0" style="font-size:7px;font-family:'Asap-Regular'">0</tspan></text><text transform="rotate(-90 99.984 42.169)"><tspan x="0" y="0" style="font-size:8px;font-family:'Asap-Medium'">C</tspan><tspan x="4.92" y="0" style="font-size:8px;font-family:'Asap-Medium'">o</tspan><tspan x="9.47" y="0" style="font-size:8px;font-family:'Asap-Medium'">n</tspan><tspan x="13.9" y="0" style="font-size:8px;font-family:'Asap-Medium'">s</tspan><tspan x="17.22" y="0" style="font-size:8px;font-family:'Asap-Medium'">u</tspan><tspan x="21.66" y="0" style="font-size:8px;font-family:'Asap-Medium'">m</tspan><tspan x="28.46" y="0" style="font-size:8px;font-family:'Asap-Medium'">pt</tspan><tspan x="35.78" y="0" style="font-size:8px;font-family:'Asap-Medium'">i</tspan><tspan x="37.86" y="0" style="font-size:8px;font-family:'Asap-Medium'">o</tspan><tspan x="42.42" y="0" style="font-size:8px;font-family:'Asap-Medium'">n</tspan><tspan x="46.84" y="0" style="font-size:8px;font-family:'Asap-Medium'"> </tspan><tspan x="49.08" y="0" style="font-size:8px;font-family:'Asap-Medium'">l</tspan><tspan x="51.45" y="0" style="font-size:8px;font-family:'Asap-Medium'">a</tspan><tspan x="55.82" y="0" style="font-size:8px;font-family:'Asap-Medium'">t</tspan><tspan x="58.56" y="0" style="font-size:8px;font-family:'Asap-Medium'">e</tspan><tspan x="62.85" y="0" style="font-size:8px;font-family:'Asap-Medium'">r</tspan><tspan x="65.8" y="0" style="font-size:8px;font-family:'Asap-Medium'"> </tspan><tspan x="67.75" y="0" style="font-size:8px;font-family:'Asap-Medium'">(</tspan><tspan x="70.15" y="0" style="font-size:8px;font-family:'Asap-Medium'">$</tspan><tspan x="74.09" y="0" style="font-size:8px;font-family:'Asap-Medium'">)</tspan></text><text transform="translate(173.92 225.258)"><tspan x="0" y="0" style="font-size:8px;font-family:'Asap-Medium'">C</tspan><tspan x="4.92" y="0" style="font-size:8px;font-family:'Asap-Medium'">o</tspan><tspan x="9.47" y="0" style="font-size:8px;font-family:'Asap-Medium'">n</tspan><tspan x="13.9" y="0" style="font-size:8px;font-family:'Asap-Medium'">s</tspan><tspan x="17.22" y="0" style="font-size:8px;font-family:'Asap-Medium'">u</tspan><tspan x="21.66" y="0" style="font-size:8px;font-family:'Asap-Medium'">m</tspan><tspan x="28.46" y="0" style="font-size:8px;font-family:'Asap-Medium'">pt</tspan><tspan x="35.78" y="0" style="font-size:8px;font-family:'Asap-Medium'">i</tspan><tspan x="37.86" y="0" style="font-size:8px;font-family:'Asap-Medium'">o</tspan><tspan x="42.42" y="0" style="font-size:8px;font-family:'Asap-Medium'">n</tspan><tspan x="46.84" y="0" style="font-size:8px;font-family:'Asap-Medium'"> </tspan><tspan x="49.08" y="0" style="font-size:8px;font-family:'Asap-Medium'">n</tspan><tspan x="53.5" y="0" style="font-size:8px;font-family:'Asap-Medium'">o</tspan><tspan x="58.06" y="0" style="font-size:8px;font-family:'Asap-Medium'">w </tspan><tspan x="66.02" y="0" style="font-size:8px;font-family:'Asap-Medium'">(</tspan><tspan x="68.42" y="0" style="font-size:8px;font-family:'Asap-Medium'">$</tspan><tspan x="72.36" y="0" style="font-size:8px;font-family:'Asap-Medium'">)</tspan></text><line x1="83.77" y1="200.38" x2="83.77" y2="202.51" style="stroke:#6d6e71;stroke-linecap:square;fill:none;stroke-width:.5"/><line x1="106.96" y1="200.38" x2="106.96" y2="202.51" style="stroke:#6d6e71;stroke-linecap:square;fill:none;stroke-width:.5"/><line x1="130.15" y1="200.38" x2="130.15" y2="202.51" style="stroke:#6d6e71;stroke-linecap:square;fill:none;stroke-width:.5"/><line x1="153.34" y1="200.38" x2="153.34" y2="202.51" style="stroke:#6d6e71;stroke-linecap:square;fill:none;stroke-width:.5"/><line x1="176.52" y1="200.38" x2="176.52" y2="202.51" style="stroke:#6d6e71;stroke-linecap:square;fill:none;stroke-width:.5"/><line x1="199.71" y1="200.38" x2="199.71" y2="202.51" style="stroke:#6d6e71;stroke-linecap:square;fill:none;stroke-width:.5"/><line x1="222.9" y1="200.38" x2="222.9" y2="202.51" style="stroke:#6d6e71;stroke-linecap:square;fill:none;stroke-width:.5"/><line x1="246.09" y1="200.38" x2="246.09" y2="202.51" style="stroke:#6d6e71;stroke-linecap:square;fill:none;stroke-width:.5"/><line x1="269.27" y1="200.38" x2="269.27" y2="202.51" style="stroke:#6d6e71;stroke-linecap:square;fill:none;stroke-width:.5"/><line x1="292.46" y1="200.38" x2="292.46" y2="202.51" style="stroke:#6d6e71;stroke-linecap:square;fill:none;stroke-width:.5"/><line x1="315.65" y1="200.38" x2="315.65" y2="202.51" style="stroke:#6d6e71;stroke-linecap:square;fill:none;stroke-width:.5"/><line x1="338.84" y1="200.38" x2="338.84" y2="202.51" style="stroke:#6d6e71;stroke-linecap:square;fill:none;stroke-width:.5"/><line x1="81.65" y1="182.84" x2="83.77" y2="182.84" style="stroke:#6d6e71;stroke-linecap:square;fill:none;stroke-width:.5"/><line x1="81.65" y1="165.3" x2="83.77" y2="165.3" style="stroke:#6d6e71;stroke-linecap:square;fill:none;stroke-width:.5"/><line x1="81.65" y1="147.76" x2="83.77" y2="147.76" style="stroke:#6d6e71;stroke-linecap:square;fill:none;stroke-width:.5"/><line x1="81.65" y1="130.22" x2="83.77" y2="130.22" style="stroke:#6d6e71;stroke-linecap:square;fill:none;stroke-width:.5"/><line x1="81.65" y1="112.67" x2="83.77" y2="112.67" style="stroke:#6d6e71;stroke-linecap:square;fill:none;stroke-width:.5"/><line x1="81.65" y1="95.13" x2="83.77" y2="95.13" style="stroke:#6d6e71;stroke-linecap:square;fill:none;stroke-width:.5"/><line x1="81.65" y1="77.59" x2="83.77" y2="77.59" style="stroke:#6d6e71;stroke-linecap:square;fill:none;stroke-width:.5"/><line x1="81.65" y1="60.05" x2="83.77" y2="60.05" style="stroke:#6d6e71;stroke-linecap:square;fill:none;stroke-width:.5"/><line x1="81.65" y1="42.51" x2="83.77" y2="42.51" style="stroke:#6d6e71;stroke-linecap:square;fill:none;stroke-width:.5"/><line x1="81.65" y1="24.96" x2="83.77" y2="24.96" style="stroke:#6d6e71;stroke-linecap:square;fill:none;stroke-width:.5"/><line x1="81.65" y1="7.42" x2="83.77" y2="7.42" style="stroke:#6d6e71;stroke-linecap:square;fill:none;stroke-width:.5"/><path d="M219.72 182.49c-.97-.59-1.96-1.17-2.92-1.76-.95-.59-1.89-1.17-2.8-1.76-.92-.59-1.81-1.17-2.7-1.76-.88-.59-1.75-1.17-2.6-1.76-.85-.59-1.69-1.17-2.51-1.76-.82-.59-1.63-1.17-2.43-1.76-.8-.59-1.58-1.17-2.35-1.76-.77-.59-1.53-1.17-2.27-1.76-.75-.59-1.48-1.17-2.2-1.76-.72-.59-1.43-1.17-2.14-1.76-.7-.59-1.39-1.17-2.07-1.76-.68-.59-1.35-1.17-2.01-1.76-.66-.59-1.31-1.17-1.96-1.76-.64-.59-1.28-1.17-1.9-1.76-.63-.59-1.24-1.17-1.85-1.76-.61-.59-1.21-1.17-1.8-1.76-.59-.59-1.18-1.17-1.75-1.76-.58-.59-1.15-1.17-1.71-1.76-.56-.59-1.12-1.17-1.66-1.76-.55-.59-1.09-1.17-1.62-1.76-.53-.59-1.06-1.17-1.58-1.76-.52-.59-1.03-1.17-1.54-1.76-.51-.59-1.01-1.17-1.5-1.76-.49-.59-.98-1.17-1.46-1.76-.48-.59-.96-1.17-1.43-1.76a213.639 213.639 0 01-2.75-3.52c-.45-.59-.89-1.17-1.32-1.76-.44-.59-.87-1.17-1.29-1.76-.43-.59-.85-1.17-1.26-1.76-.42-.59-.82-1.17-1.23-1.76-.41-.59-.8-1.17-1.2-1.76-.4-.59-.79-1.17-1.17-1.76-.39-.59-.77-1.17-1.14-1.76-.38-.59-.75-1.17-1.11-1.76a168.036 168.036 0 01-3.18-5.28c-.34-.59-.68-1.17-1.01-1.76-.33-.59-.66-1.17-.98-1.76-.32-.59-.64-1.17-.96-1.76-.31-.59-.62-1.17-.93-1.76a147.314 147.314 0 01-1.79-3.52c-.29-.59-.58-1.17-.86-1.76-.28-.59-.56-1.17-.84-1.76-.28-.59-.55-1.17-.81-1.76-.27-.59-.53-1.17-.79-1.76-.26-.59-.52-1.17-.77-1.76-.25-.59-.5-1.17-.75-1.76a131.015 131.015 0 01-1.43-3.52c-.23-.59-.46-1.17-.68-1.76-.22-.59-.45-1.17-.66-1.76-.22-.59-.43-1.17-.64-1.76-.21-.59-.42-1.17-.62-1.76-.2-.59-.4-1.17-.6-1.76-.2-.59-.39-1.17-.58-1.76-.19-.59-.38-1.17-.56-1.76-.18-.59-.37-1.17-.54-1.76-.18-.59-.35-1.17-.52-1.76-.17-.59-.34-1.17-.5-1.76-.16-.59-.33-1.17-.49-1.76-.16-.59-.31-1.17-.47-1.76l-.45-1.76c-.15-.59-.29-1.17-.43-1.76-.14-.59-.28-1.17-.41-1.76l-.39-1.76c-.13-.59-.25-1.17-.37-1.76l-.36-1.76c-.12-.59-.23-1.17-.34-1.76-.11-.59-.22-1.17-.32-1.76l-.3-1.76c-.1-.59-.19-1.17-.28-1.76l-.27-1.76c-.09-.59-.17-1.17-.25-1.76-.08-.59-.16-1.17-.23-1.76-.07-.59-.15-1.17-.21-1.76-.07-.59-.13-1.17-.2-1.76l-.18-1.76c-.06-.59-.11-1.17-.16-1.76l-.15-1.76c-.05-.59-.09-1.17-.13-1.76-.04-.59-.08-1.17-.11-1.76-.03-.59-.07-1.17-.09-1.76-.03-.59-.05-1.17-.08-1.76l-.06-1.76c-.02-.59-.03-1.17-.04-1.76l-.03-1.76c-.01-.59-.01-1.17-.01-1.76M293.3 170.23c-1.6-.29-6.79-1.17-9.6-1.76-2.81-.59-5.05-1.17-7.28-1.76-2.22-.59-4.18-1.17-6.07-1.76s-3.62-1.17-5.29-1.76a152.945 152.945 0 01-29.45-14.08c-.95-.59-1.87-1.17-2.78-1.76-.91-.59-1.79-1.17-2.65-1.76-.87-.59-1.71-1.17-2.54-1.76-.83-.59-1.64-1.17-2.43-1.76-.79-.59-1.57-1.17-2.33-1.76-.76-.59-1.51-1.17-2.24-1.76-.73-.59-1.45-1.17-2.16-1.76-.71-.59-1.4-1.17-2.08-1.76-.68-.59-1.35-1.17-2.01-1.76-.66-.59-1.3-1.17-1.94-1.76-.63-.59-1.26-1.17-1.87-1.76-.61-.59-1.21-1.17-1.81-1.76-.59-.59-1.17-1.17-1.75-1.76-.57-.59-1.14-1.17-1.69-1.76-.55-.59-1.1-1.17-1.64-1.76-.54-.59-1.06-1.17-1.58-1.76-.52-.59-1.03-1.17-1.53-1.76-.5-.59-1-1.17-1.49-1.76-.49-.59-.97-1.17-1.44-1.76-.47-.59-.94-1.17-1.4-1.76-.46-.59-.91-1.17-1.35-1.76-.44-.59-.88-1.17-1.31-1.76-.43-.59-.86-1.17-1.27-1.76-.42-.59-.83-1.17-1.23-1.76-.41-.59-.8-1.17-1.2-1.76-.39-.59-.78-1.17-1.16-1.76-.38-.59-.76-1.17-1.12-1.76a168.036 168.036 0 01-2.15-3.52c-.35-.59-.69-1.17-1.02-1.76-.34-.59-.67-1.17-.99-1.76-.32-.59-.64-1.17-.96-1.76-.31-.59-.62-1.17-.93-1.76-.3-.59-.6-1.17-.9-1.76-.29-.59-.58-1.17-.87-1.76-.28-.59-.56-1.17-.84-1.76-.28-.59-.55-1.17-.81-1.76-.27-.59-.53-1.17-.78-1.76a133.442 133.442 0 01-2.19-5.28c-.23-.59-.45-1.17-.68-1.76-.22-.59-.44-1.17-.65-1.76-.21-.59-.42-1.17-.62-1.76-.2-.59-.4-1.17-.6-1.76-.2-.59-.39-1.17-.57-1.76a118.743 118.743 0 01-1.07-3.52c-.17-.59-.34-1.17-.5-1.76l-.48-1.76c-.15-.59-.31-1.17-.45-1.76-.15-.59-.29-1.17-.43-1.76-.14-.59-.27-1.17-.41-1.76-.13-.59-.26-1.17-.38-1.76l-.36-1.76c-.12-.59-.23-1.17-.34-1.76-.11-.59-.21-1.17-.32-1.76-.1-.59-.2-1.17-.29-1.76l-.27-1.76c-.09-.59-.17-1.17-.25-1.76-.08-.59-.15-1.17-.23-1.76-.07-.59-.14-1.17-.2-1.76-.06-.59-.13-1.17-.18-1.76-.06-.59-.11-1.17-.16-1.76-.05-.59-.1-1.17-.14-1.76l-.12-1.76c-.04-.59-.07-1.17-.1-1.76-.03-.59-.05-1.17-.08-1.76-.02-.59-.04-1.17-.05-1.76-.01-.59-.03-1.17-.03-1.76-.01-.59-.01-1.17-.01-1.76" style="stroke:#4971b8;stroke-linecap:round;stroke-miterlimit:10;stroke-linejoin:round;fill:none;stroke-width:.5"/><path d="M274.45 182.49c-2.13-.59-4.4-1.17-6.4-1.76-2-.59-3.82-1.17-5.58-1.76a170.08 170.08 0 01-9.56-3.52 165.872 165.872 0 01-15.22-7.04 161.64 161.64 0 01-6.37-3.52c-1.01-.59-1.99-1.17-2.96-1.76-.96-.59-1.9-1.17-2.83-1.76-.92-.59-1.82-1.17-2.71-1.76-.88-.59-1.75-1.17-2.6-1.76-.85-.59-1.68-1.17-2.5-1.76-.82-.59-1.62-1.17-2.4-1.76a155.895 155.895 0 01-4.55-3.52c-.73-.59-1.45-1.17-2.16-1.76-.71-.59-1.4-1.17-2.09-1.76-.68-.59-1.36-1.17-2.02-1.76-.66-.59-1.31-1.17-1.95-1.76-.64-.59-1.27-1.17-1.89-1.76-.62-.59-1.23-1.17-1.84-1.76-.6-.59-1.2-1.17-1.78-1.76-.58-.59-1.16-1.17-1.73-1.76-.57-.59-1.13-1.17-1.68-1.76-.55-.59-1.09-1.17-1.63-1.76-.54-.59-1.06-1.17-1.58-1.76-.52-.59-1.03-1.17-1.54-1.76-.51-.59-1-1.17-1.49-1.76-.49-.59-.97-1.17-1.45-1.76-.48-.59-.95-1.17-1.41-1.76-.46-.59-.92-1.17-1.37-1.76-.45-.59-.9-1.17-1.33-1.76-.44-.59-.87-1.17-1.3-1.76-.43-.59-.85-1.17-1.26-1.76-.41-.59-.82-1.17-1.23-1.76-.4-.59-.8-1.17-1.19-1.76-.39-.59-.78-1.17-1.16-1.76-.38-.59-.76-1.17-1.13-1.76-.37-.59-.74-1.17-1.1-1.76-.36-.59-.72-1.17-1.07-1.76-.35-.59-.7-1.17-1.04-1.76-.34-.59-.68-1.17-1.01-1.76-.33-.59-.66-1.17-.98-1.76-.32-.59-.64-1.17-.95-1.76-.31-.59-.62-1.17-.92-1.76-.3-.59-.6-1.17-.89-1.76-.29-.59-.58-1.17-.87-1.76-.28-.59-.57-1.17-.84-1.76a138.638 138.638 0 01-1.61-3.52c-.26-.59-.51-1.17-.77-1.76-.25-.59-.5-1.17-.74-1.76-.24-.59-.48-1.17-.72-1.76-.23-.59-.47-1.17-.69-1.76-.23-.59-.45-1.17-.67-1.76-.22-.59-.43-1.17-.65-1.76-.21-.59-.42-1.17-.62-1.76-.2-.59-.4-1.17-.6-1.76-.2-.59-.39-1.17-.58-1.76-.19-.59-.37-1.17-.56-1.76-.18-.59-.36-1.17-.53-1.76l-.51-1.76c-.17-.59-.33-1.17-.49-1.76-.16-.59-.32-1.17-.47-1.76l-.45-1.76c-.15-.59-.29-1.17-.43-1.76-.14-.59-.27-1.17-.41-1.76-.13-.59-.26-1.17-.38-1.76-.12-.59-.25-1.17-.36-1.76-.12-.59-.23-1.17-.34-1.76-.11-.59-.22-1.17-.32-1.76-.1-.59-.21-1.17-.3-1.76-.1-.59-.19-1.17-.28-1.76-.09-.59-.18-1.17-.26-1.76-.08-.59-.17-1.17-.24-1.76-.08-.59-.15-1.17-.22-1.76-.07-.59-.14-1.17-.2-1.76-.06-.59-.13-1.17-.18-1.76-.06-.59-.11-1.17-.16-1.76l-.15-1.76c-.05-.59-.09-1.17-.13-1.76-.04-.59-.07-1.17-.11-1.76l-.09-1.76c-.03-.59-.05-1.17-.07-1.76-.02-.59-.04-1.17-.05-1.76l-.03-1.76c-.01-.59-.01-1.17-.01-1.76M286.94 152.67c-2.16-.59-4.5-1.17-6.49-1.76-1.98-.59-3.72-1.17-5.41-1.76-1.69-.59-3.23-1.17-4.72-1.76-1.49-.59-2.88-1.17-4.22-1.76-1.34-.59-2.61-1.17-3.84-1.76-1.23-.59-2.4-1.17-3.53-1.76-1.14-.59-2.22-1.17-3.28-1.76a121.361 121.361 0 01-5.95-3.52 128.798 128.798 0 01-10.08-7.04c-.76-.59-1.5-1.17-2.23-1.76-.73-.59-1.44-1.17-2.13-1.76-.7-.59-1.37-1.17-2.04-1.76a115.4 115.4 0 01-1.96-1.76c-.64-.59-1.27-1.17-1.88-1.76-.61-.59-1.22-1.17-1.81-1.76a143.554 143.554 0 01-3.42-3.52 85.68 85.68 0 01-1.61-1.76 123.188 123.188 0 01-4.51-5.28c-.47-.59-.94-1.17-1.4-1.76-.46-.59-.91-1.17-1.35-1.76-.44-.59-.88-1.17-1.3-1.76-.43-.59-.85-1.17-1.26-1.76-.41-.59-.82-1.17-1.22-1.76-.4-.59-.79-1.17-1.18-1.76-.39-.59-.76-1.17-1.14-1.76-.37-.59-.74-1.17-1.1-1.76-.36-.59-.71-1.17-1.06-1.76-.35-.59-.69-1.17-1.02-1.76-.33-.59-.66-1.17-.99-1.76-.32-.59-.64-1.17-.95-1.76-.31-.59-.62-1.17-.92-1.76-.3-.59-.6-1.17-.89-1.76a141.41 141.41 0 01-2.46-5.28 133.442 133.442 0 01-2.19-5.28c-.23-.59-.45-1.17-.67-1.76-.22-.59-.44-1.17-.65-1.76-.21-.59-.42-1.17-.62-1.76-.2-.59-.4-1.17-.59-1.76-.19-.59-.38-1.17-.56-1.76l-.54-1.76c-.17-.59-.35-1.17-.51-1.76a115.49 115.49 0 01-.95-3.52c-.15-.59-.29-1.17-.44-1.76-.14-.59-.28-1.17-.41-1.76l-.39-1.76-.36-1.76a109.089 109.089 0 01-.65-3.52c-.1-.59-.2-1.17-.29-1.76l-.27-1.76c-.08-.59-.17-1.17-.24-1.76a105.685 105.685 0 01-.41-3.52c-.06-.59-.12-1.17-.17-1.76l-.15-1.76a104.101 104.101 0 01-.23-3.52c-.03-.59-.06-1.17-.08-1.76l-.06-1.76c-.02-.59-.03-1.17-.03-1.76-.01-.59-.01-1.17-.01-1.76" style="stroke:#4971b8;stroke-linecap:round;stroke-miterlimit:10;stroke-linejoin:round;fill:none;stroke-width:.5"/><text transform="translate(219.239 134.451)" style="font-size:5.9953px;font-family:'SourceSansPro-Regular'">E</text><text transform="translate(164.928 88.76)" style="font-size:5.9953px;font-family:'SourceSansPro-Regular'">F</text><text transform="translate(286.94 166.946)"><tspan x="0" y="0" style="font-size:6px;font-family:'Asap-Regular'">J</tspan><tspan x="2.41" y="0" style="font-size:6px;font-family:'Asap-Regular'">u</tspan><tspan x="5.77" y="0" style="font-size:6px;font-family:'Asap-Regular'">l</tspan><tspan x="7.54" y="0" style="font-size:6px;font-family:'Asap-Regular'">i</tspan><tspan x="9.17" y="0" style="font-size:6px;font-family:'Asap-Regular'">a</tspan><tspan x="12.45" y="0" style="font-size:6px;font-family:'Asap-Regular'">’</tspan><tspan x="13.74" y="0" style="font-size:6px;font-family:'Asap-Regular'">s</tspan><tspan x="16.19" y="0" style="font-size:6px;font-family:'Asap-Regular'"> </tspan><tspan x="17.55" y="0" style="font-size:6px;font-family:'Asap-Regular'">I</tspan><tspan x="19.26" y="0" style="font-size:6px;font-family:'Asap-Regular'">C</tspan></text><text transform="translate(284.986 180.044)"><tspan x="0" y="0" style="font-size:6px;font-family:'Asap-Regular'">J</tspan><tspan x="2.41" y="0" style="font-size:6px;font-family:'Asap-Regular'">u</tspan><tspan x="5.77" y="0" style="font-size:6px;font-family:'Asap-Regular'">l</tspan><tspan x="7.54" y="0" style="font-size:6px;font-family:'Asap-Regular'">i</tspan><tspan x="9.17" y="0" style="font-size:6px;font-family:'Asap-Regular'">a</tspan><tspan x="12.45" y="0" style="font-size:6px;font-family:'Asap-Regular'">’</tspan><tspan x="13.74" y="0" style="font-size:6px;font-family:'Asap-Regular'">s</tspan><tspan x="16.19" y="0" style="font-size:6px;font-family:'Asap-Regular'"> </tspan><tspan x="17.55" y="0" style="font-size:6px;font-family:'Asap-Regular'">I</tspan><tspan x="19.26" y="0" style="font-size:6px;font-family:'Asap-Regular'">C</tspan><tspan x="22.99" y="0" style="font-size:6px;font-family:'Asap-Regular'"> </tspan><tspan x="24.43" y="0" style="font-size:6px;font-family:'Asap-Regular'">(</tspan><tspan x="26.25" y="0" style="font-size:6px;font-family:'Asap-Regular'">t</tspan><tspan x="28.27" y="0" style="font-size:6px;font-family:'Asap-Regular'">h</tspan><tspan x="31.67" y="0" style="font-size:6px;font-family:'Asap-Regular'">r</tspan><tspan x="33.86" y="0" style="font-size:6px;font-family:'Asap-Regular'">o</tspan><tspan x="37.3" y="0" style="font-size:6px;font-family:'Asap-Regular'">ugh</tspan><tspan x="0" y="7.2" style="font-size:6px;font-family:'Asap-Regular'">point F)</tspan></text><text transform="translate(92.142 8.091)"><tspan x="0" y="0" style="font-size:6px;font-family:'Asap-Regular'">FF</tspan><tspan x="6.02" y="0" style="font-size:6px;font-family:'Asap-Regular'"> </tspan><tspan x="7.46" y="0" style="font-size:6px;font-family:'Asap-Regular'">(</tspan><tspan x="9.28" y="0" style="font-size:6px;font-family:'Asap-Regular'">10</tspan><tspan x="15.67" y="0" style="font-size:6px;font-family:'Asap-Regular'">%</tspan><tspan x="20.26" y="0" style="font-size:6px;font-family:'Asap-Regular'"> </tspan><tspan x="21.7" y="0" style="font-size:6px;font-family:'Asap-Regular'">i</tspan><tspan x="23.33" y="0" style="font-size:6px;font-family:'Asap-Regular'">n</tspan><tspan x="26.67" y="0" style="font-size:6px;font-family:'Asap-Regular'">t</tspan><tspan x="28.69" y="0" style="font-size:6px;font-family:'Asap-Regular'">e</tspan><tspan x="31.91" y="0" style="font-size:6px;font-family:'Asap-Regular'">r</tspan><tspan x="34.1" y="0" style="font-size:6px;font-family:'Asap-Regular'">e</tspan><tspan x="37.33" y="0" style="font-size:6px;font-family:'Asap-Regular'">st</tspan><tspan x="41.79" y="0" style="font-size:6px;font-family:'Asap-Regular'"> </tspan><tspan x="43.39" y="0" style="font-size:6px;font-family:'Asap-Regular'">r</tspan><tspan x="45.58" y="0" style="font-size:6px;font-family:'Asap-Regular'">a</tspan><tspan x="48.86" y="0" style="font-size:6px;font-family:'Asap-Regular'">t</tspan><tspan x="50.88" y="0" style="font-size:6px;font-family:'Asap-Regular'">e</tspan><tspan x="54.11" y="0" style="font-size:6px;font-family:'Asap-Regular'">)</tspan></text><text transform="translate(103.575 18.654)"><tspan x="0" y="0" style="font-size:6px;font-family:'Asap-Regular'">FF</tspan><tspan x="6.02" y="0" style="font-size:6px;font-family:'Asap-Regular'"> </tspan><tspan x="7.46" y="0" style="font-size:6px;font-family:'Asap-Regular'">(</tspan><tspan x="9.28" y="0" style="font-size:6px;font-family:'Asap-Regular'">78</tspan><tspan x="15.66" y="0" style="font-size:6px;font-family:'Asap-Regular'">%</tspan><tspan x="20.26" y="0" style="font-size:6px;font-family:'Asap-Regular'"> </tspan><tspan x="21.7" y="0" style="font-size:6px;font-family:'Asap-Regular'">i</tspan><tspan x="23.33" y="0" style="font-size:6px;font-family:'Asap-Regular'">n</tspan><tspan x="26.67" y="0" style="font-size:6px;font-family:'Asap-Regular'">t</tspan><tspan x="28.69" y="0" style="font-size:6px;font-family:'Asap-Regular'">e</tspan><tspan x="31.91" y="0" style="font-size:6px;font-family:'Asap-Regular'">r</tspan><tspan x="34.1" y="0" style="font-size:6px;font-family:'Asap-Regular'">e</tspan><tspan x="37.33" y="0" style="font-size:6px;font-family:'Asap-Regular'">st</tspan><tspan x="41.79" y="0" style="font-size:6px;font-family:'Asap-Regular'"> </tspan><tspan x="43.39" y="0" style="font-size:6px;font-family:'Asap-Regular'">r</tspan><tspan x="45.58" y="0" style="font-size:6px;font-family:'Asap-Regular'">a</tspan><tspan x="48.86" y="0" style="font-size:6px;font-family:'Asap-Regular'">t</tspan><tspan x="50.88" y="0" style="font-size:6px;font-family:'Asap-Regular'">e</tspan><tspan x="54.11" y="0" style="font-size:6px;font-family:'Asap-Regular'">)</tspan></text><text transform="translate(3.444 26.032)"><tspan x="0" y="0" style="font-size:6px;font-family:'Asap-Regular'">J</tspan><tspan x="2.41" y="0" style="font-size:6px;font-family:'Asap-Regular'">u</tspan><tspan x="5.77" y="0" style="font-size:6px;font-family:'Asap-Regular'">l</tspan><tspan x="7.54" y="0" style="font-size:6px;font-family:'Asap-Regular'">i</tspan><tspan x="9.17" y="0" style="font-size:6px;font-family:'Asap-Regular'">a</tspan><tspan x="12.45" y="0" style="font-size:6px;font-family:'Asap-Regular'">’</tspan><tspan x="13.74" y="0" style="font-size:6px;font-family:'Asap-Regular'">s</tspan><tspan x="16.19" y="0" style="font-size:6px;font-family:'Asap-Regular'"> </tspan><tspan x="17.55" y="0" style="font-size:6px;font-family:'Asap-Regular'">e</tspan><tspan x="20.77" y="0" style="font-size:6px;font-family:'Asap-Regular'">n</tspan><tspan x="24.11" y="0" style="font-size:6px;font-family:'Asap-Regular'">d</tspan><tspan x="27.53" y="0" style="font-size:6px;font-family:'Asap-Regular'">o</tspan><tspan x="30.97" y="0" style="font-size:6px;font-family:'Asap-Regular'">w</tspan><tspan x="35.46" y="0" style="font-size:6px;font-family:'Asap-Regular'">me</tspan><tspan x="43.76" y="0" style="font-size:6px;font-family:'Asap-Regular'">nt</tspan></text><line x1="107.07" y1="20.72" x2="107.07" y2="53.83" style="stroke:#a6a5a5;stroke-linecap:square;stroke-linejoin:round;fill:none;stroke-width:.5"/><polygon points="105.03 52.18 105.39 51.84 107.07 53.64 108.75 51.84 109.12 52.18 107.07 54.38" style="fill:#a6a5a5"/><line x1="96.25" y1="8.62" x2="96.25" y2="32.31" style="stroke:#a6a5a5;stroke-linecap:square;stroke-linejoin:round;fill:none;stroke-width:.5"/><polygon points="94.2 30.65 94.57 30.31 96.25 32.12 97.93 30.31 98.29 30.65 96.25 32.85" style="fill:#a6a5a5"/><text transform="translate(286.94 142.888)"><tspan x="0" y="0" style="font-size:6px;font-family:'Asap-Regular'">J</tspan><tspan x="2.41" y="0" style="font-size:6px;font-family:'Asap-Regular'">u</tspan><tspan x="5.77" y="0" style="font-size:6px;font-family:'Asap-Regular'">l</tspan><tspan x="7.54" y="0" style="font-size:6px;font-family:'Asap-Regular'">i</tspan><tspan x="9.17" y="0" style="font-size:6px;font-family:'Asap-Regular'">a</tspan><tspan x="12.45" y="0" style="font-size:6px;font-family:'Asap-Regular'">’</tspan><tspan x="13.74" y="0" style="font-size:6px;font-family:'Asap-Regular'">s</tspan><tspan x="16.19" y="0" style="font-size:6px;font-family:'Asap-Regular'"> </tspan><tspan x="17.55" y="0" style="font-size:6px;font-family:'Asap-Regular'">I</tspan><tspan x="19.27" y="0" style="font-size:6px;font-family:'Asap-Regular'">C</tspan><tspan x="0" y="7.2" style="font-size:6px;font-family:'Asap-Regular'">(higher utility)</tspan></text><text transform="translate(226.352 184.357)"><tspan x="0" y="0" style="font-size:6px;font-family:'Asap-Regular'">J</tspan><tspan x="2.41" y="0" style="font-size:6px;font-family:'Asap-Regular'">u</tspan><tspan x="5.77" y="0" style="font-size:6px;font-family:'Asap-Regular'">l</tspan><tspan x="7.54" y="0" style="font-size:6px;font-family:'Asap-Regular'">i</tspan><tspan x="9.17" y="0" style="font-size:6px;font-family:'Asap-Regular'">a</tspan><tspan x="12.45" y="0" style="font-size:6px;font-family:'Asap-Regular'">’</tspan><tspan x="13.74" y="0" style="font-size:6px;font-family:'Asap-Regular'">s</tspan><tspan x="16.19" y="0" style="font-size:6px;font-family:'Asap-Regular'"> </tspan><tspan x="17.55" y="0" style="font-size:6px;font-family:'Asap-Regular'">I</tspan><tspan x="19.27" y="0" style="font-size:6px;font-family:'Asap-Regular'">C</tspan><tspan x="0" y="7.2" style="font-size:6px;font-family:'Asap-Regular'">(lower utility)</tspan></text><text transform="translate(165.487 130.527)" style="font-size:5.9953px;font-family:'SourceSansPro-Regular'">G</text><line x1="55.23" y1="24.82" x2="66.07" y2="24.82" style="stroke:#a6a5a5;stroke-linecap:square;stroke-linejoin:round;fill:none;stroke-width:.5"/><polygon points="64.42 26.87 64.08 26.5 65.88 24.82 64.08 23.14 64.42 22.78 66.62 24.82" style="fill:#a6a5a5"/><path d="M83.77 24.82c.77 1.04 1.55 2.08 2.32 3.12.77 1.04 1.55 2.08 2.32 3.12.77 1.04 1.55 2.08 2.32 3.12.77 1.04 1.55 2.08 2.32 3.12.77 1.04 1.55 2.08 2.32 3.12.77 1.04 1.55 2.08 2.32 3.12.77 1.04 1.55 2.08 2.32 3.12.77 1.04 1.55 2.08 2.32 3.12.77 1.04 1.55 2.08 2.32 3.12s1.55 2.08 2.32 3.12c.77 1.04 1.55 2.08 2.32 3.12.77 1.04 1.55 2.08 2.32 3.12.77 1.04 1.55 2.08 2.32 3.12.77 1.04 1.55 2.08 2.32 3.12.77 1.04 1.55 2.08 2.32 3.12.77 1.04 1.55 2.08 2.32 3.12.77 1.04 1.55 2.08 2.32 3.12.77 1.04 1.55 2.08 2.32 3.12.77 1.04 1.55 2.08 2.32 3.12.77 1.04 1.55 2.08 2.32 3.12.77 1.04 1.55 2.08 2.32 3.12.77 1.04 1.55 2.08 2.32 3.12.77 1.04 1.55 2.08 2.32 3.12.77 1.04 1.55 2.08 2.32 3.12.77 1.04 1.55 2.08 2.32 3.12.77 1.04 1.55 2.08 2.32 3.12.77 1.04 1.55 2.08 2.32 3.12.77 1.04 1.55 2.08 2.32 3.12.77 1.04 1.55 2.08 2.32 3.12s1.55 2.08 2.32 3.12c.77 1.04 1.55 2.08 2.32 3.12.77 1.04 1.55 2.08 2.32 3.12.77 1.04 1.55 2.08 2.32 3.12s1.55 2.08 2.32 3.12c.77 1.04 1.55 2.08 2.32 3.12.77 1.04 1.55 2.08 2.32 3.12.77 1.04 1.55 2.08 2.32 3.12.77 1.04 1.55 2.08 2.32 3.12.77 1.04 1.55 2.08 2.32 3.12.77 1.04 1.55 2.08 2.32 3.12.77 1.04 1.55 2.08 2.32 3.12.77 1.04 1.55 2.08 2.32 3.12s1.55 2.08 2.32 3.12c.77 1.04 1.55 2.08 2.32 3.12.77 1.04 1.55 2.08 2.32 3.12.77 1.04 1.55 2.08 2.32 3.12.77 1.04 1.55 2.08 2.32 3.12.77 1.04 1.55 2.08 2.32 3.12.77 1.04 1.55 2.08 2.32 3.12.77 1.04 1.55 2.08 2.32 3.12.77 1.04 1.55 2.08 2.32 3.12.77 1.04 1.55 2.08 2.32 3.12.77 1.04 1.55 2.08 2.32 3.12.77 1.04 1.55 2.08 2.32 3.12.77 1.04 1.55 2.08 2.32 3.12.77 1.04 1.87 2.51 2.32 3.12.21.28.35.48.42.56" style="fill:none;stroke-width:.5;stroke-linejoin:round;stroke:#bf2026;stroke-linecap:round;stroke-miterlimit:10"/><path d="M83.88 24.96c.43.32 1.08.8 1.86 1.42.68.54.93.77 2.33 1.93.78.64 1.55 1.29 2.33 1.93.78.64 1.55 1.29 2.33 1.93.78.64 1.55 1.29 2.33 1.93.78.64 1.55 1.29 2.33 1.93.78.64 1.55 1.29 2.33 1.93.78.64 1.55 1.29 2.33 1.93.78.64 1.55 1.29 2.33 1.93.78.64 1.55 1.29 2.33 1.93.78.64 1.55 1.29 2.33 1.93.78.64 1.55 1.29 2.33 1.93.78.64 1.55 1.29 2.33 1.93.78.64 1.55 1.29 2.33 1.93.78.64 1.55 1.29 2.33 1.93.78.64 1.55 1.29 2.33 1.93.78.64 1.55 1.29 2.33 1.93.78.64 1.55 1.29 2.33 1.93.78.64 1.55 1.29 2.33 1.93.78.64 1.55 1.29 2.33 1.93.78.64 1.55 1.29 2.33 1.93.78.64 1.55 1.29 2.33 1.93.78.64 1.55 1.29 2.33 1.93.78.64 1.55 1.29 2.33 1.93.78.64 1.55 1.29 2.33 1.93.78.64 1.55 1.29 2.33 1.93.78.64 1.55 1.29 2.33 1.93.78.64 1.55 1.29 2.33 1.93.78.64 1.55 1.29 2.33 1.93.78.64 1.55 1.29 2.33 1.93.78.64 1.55 1.29 2.33 1.93.78.64 1.55 1.29 2.33 1.93.78.64 1.55 1.29 2.33 1.93.78.64 1.55 1.29 2.33 1.93.78.64 1.55 1.29 2.33 1.93.78.64 1.55 1.29 2.33 1.93.78.64 1.55 1.29 2.33 1.93.78.64 1.55 1.29 2.33 1.93.78.64 1.55 1.29 2.33 1.93.78.64 1.55 1.29 2.33 1.93.78.64 1.55 1.29 2.33 1.93.78.64 1.55 1.29 2.33 1.93.78.64 1.55 1.29 2.33 1.93.78.64 1.55 1.29 2.33 1.93.78.64 1.55 1.29 2.33 1.93.78.64 1.55 1.29 2.33 1.93.78.64 1.55 1.29 2.33 1.93.78.64 1.55 1.29 2.33 1.93.78.64 1.55 1.29 2.33 1.93.78.64 1.55 1.29 2.33 1.93.78.64 1.55 1.29 2.33 1.93.78.64 1.55 1.29 2.33 1.93.78.64 1.55 1.29 2.33 1.93.78.64 1.55 1.29 2.33 1.93.78.64 1.55 1.29 2.33 1.93.78.64 1.87 1.55 2.33 1.93.21.17.24.2.42.35.39.32 1.2 1 1.91 1.58.71.59 1.55 1.29 2.33 1.93.78.64 1.55 1.29 2.33 1.93.78.64 1.55 1.29 2.33 1.93.78.64 1.55 1.29 2.33 1.93.78.64 1.55 1.29 2.33 1.93.78.64 1.55 1.29 2.33 1.93.78.64 1.55 1.29 2.33 1.93.78.64 1.55 1.29 2.33 1.93.78.64 1.55 1.29 2.33 1.93.78.64 1.55 1.29 2.33 1.93.78.64 1.55 1.29 2.33 1.93.78.64 1.55 1.29 2.33 1.93.78.64 1.55 1.29 2.33 1.93.78.64 1.55 1.29 2.33 1.93.78.64 1.55 1.29 2.33 1.93.78.64 1.55 1.29 2.33 1.93.78.64 1.55 1.29 2.33 1.93.78.64 1.55 1.29 2.33 1.93.78.64 1.55 1.29 2.33 1.93.78.64 1.55 1.29 2.33 1.93.78.64 1.55 1.29 2.33 1.93.78.64 1.55 1.29 2.33 1.93.78.64 1.55 1.29 2.33 1.93.78.64 1.55 1.29 2.33 1.93.78.64 1.55 1.29 2.33 1.93.78.64 1.55 1.29 2.33 1.93.78.64 1.55 1.29 2.33 1.93.78.64 1.55 1.29 2.33 1.93.78.64 1.55 1.29 2.33 1.93.78.64 1.55 1.29 2.33 1.93.78.64 1.55 1.29 2.33 1.93.78.64 1.55 1.29 2.33 1.93.78.64 1.55 1.29 2.33 1.93.04.03 2.08 1.72 2.12 1.76" style="stroke:#ed2024;stroke-linecap:round;stroke-miterlimit:10;fill:none;stroke-width:.5;stroke-linejoin:round"/><line x1="83.77" y1="200.38" x2="83.77" y2="7.42" style="fill:none;stroke:#6d6e71;stroke-width:.5;stroke-linecap:square"/><line x1="218.35" y1="199.94" x2="218.35" y2="137.3" style="stroke:#939598;stroke-linecap:square;stroke-dasharray:1.417;fill:none;stroke-width:.5;stroke-linejoin:round"/><text transform="translate(209.684 193.672)" style="font-size:7px;font-family:'Asap-Regular'">56</text><line x1="83.73" y1="200.23" x2="338.84" y2="200.23" style="fill:none;stroke:#6d6e71;stroke-width:.5;stroke-linecap:square"/><circle cx="83.77" cy="24.96" r="1.13"/><circle cx="214.37" cy="200.38" r="1.13"/><circle cx="295.12" cy="200.06" r="1.13"/><circle cx="164.08" cy="91.16" r="1.13"/><circle cx="165.05" cy="133.71" r="1.13"/><line x1="81.65" y1="200.23" x2="83.77" y2="200.23" style="stroke:#6d6e71;stroke-linecap:square;fill:none;stroke-width:.5"/><line x1="218.35" y1="200.38" x2="218.35" y2="202.51" style="stroke:#6d6e71;stroke-linecap:square;fill:none;stroke-width:.5"/><line x1="81.65" y1="136.6" x2="83.77" y2="136.6" style="stroke:#6d6e71;stroke-linecap:square;fill:none;stroke-width:.5"/><text transform="translate(210.685 212.638)" style="font-size:7px;font-family:'Asap-Regular'">58</text><text transform="translate(70.419 139.72)" style="font-size:7px;font-family:'Asap-Regular'">36</text><line x1="164.93" y1="200.41" x2="164.93" y2="202.53" style="stroke:#6d6e71;stroke-linecap:square;fill:none;stroke-width:.5"/><text transform="translate(161.184 212.696)" style="font-size:7px;font-family:'Asap-Regular'">35</text><line x1="83.88" y1="136.6" x2="218.35" y2="136.6" style="stroke:#939598;stroke-linecap:square;stroke-dasharray:1.417;fill:none;stroke-width:.5;stroke-linejoin:round"/><circle cx="218.35" cy="136.6" r="1.13"/></svg>