<svg version="1.1" xmlns="http://www.w3.org/2000/svg" x="0" y="0" viewBox="0 0 311.8 223.5" style="enable-background:new 0 0 311.8 223.5" xml:space="preserve"><path style="fill:#c8627f" d="M155.9 196.9c-47 0-85.2-38.2-85.2-85.2 0-27.8 13.6-53.9 36.4-69.8 14.4-10 31.2-15.3 48.8-15.3 17.1 0 33.5 5 47.7 14.6 23.5 15.9 37.5 42.3 37.5 70.6 0 46.9-38.2 85.1-85.2 85.1z"/><path style="fill:#d77261;stroke:#fff;stroke-width:.5;stroke-miterlimit:10" d="M155.9 177.4c-36.2 0-65.7-29.5-65.7-65.7 0-21.4 10.5-41.6 28.1-53.8 11.1-7.7 24.1-11.8 37.6-11.8 13.2 0 25.9 3.9 36.7 11.2 18.1 12.2 28.9 32.6 28.9 54.4.1 36.3-29.4 65.7-65.6 65.7z"/><path style="fill:#e58340;stroke:#fff;stroke-width:.5;stroke-miterlimit:10" d="M155.9 157.9c-25.4 0-46.2-20.7-46.2-46.2 0-15.1 7.4-29.2 19.7-37.8 7.8-5.4 16.9-8.3 26.4-8.3 9.2 0 18.2 2.7 25.8 7.9 12.7 8.6 20.3 22.9 20.3 38.3.2 25.4-20.5 46.1-46 46.1z"/><path style="fill:#f49323;stroke:#fff;stroke-width:.5;stroke-miterlimit:10" d="M182.5 111.8c0 14.7-11.9 26.6-26.6 26.6-14.7 0-26.6-11.9-26.6-26.6 0-9 4.5-17 11.4-21.8 4.3-3 9.6-4.8 15.2-4.8 5.5 0 10.6 1.7 14.9 4.5 7.1 4.8 11.7 12.9 11.7 22.1z"/><g><text transform="translate(137.55 114.297)" style="fill:#fff;font-family:'Asap-Regular';font-size:8.6571px">Economy</text><path style="fill:none" d="M135.2 85.2c5.9-4.1 13.1-6.6 20.9-6.6 7.6 0 14.6 2.3 20.5 6.2"/><text transform="rotate(-27.526 239.003 -240.772)"><tspan x="2" y="0" style="fill:#fff;font-family:'Asap-Regular';font-size:8.6571px" rotate="3.1"> </tspan><tspan x="4" y=".1" style="fill:#fff;font-family:'Asap-Regular';font-size:8.6571px" rotate="6.3"> </tspan><tspan x="5.9" y=".3" style="fill:#fff;font-family:'Asap-Regular';font-size:8.6571px" rotate="11.2">S</tspan><tspan x="10" y="1" style="fill:#fff;font-family:'Asap-Regular';font-size:8.6571px" rotate="18.2">o</tspan><tspan x="14.6" y="2.5" style="fill:#fff;font-family:'Asap-Regular';font-size:8.6571px" rotate="25.1">c</tspan><tspan x="18.2" y="4.3" style="fill:#fff;font-family:'Asap-Regular';font-size:8.6571px" rotate="29.8">i</tspan><tspan x="20.2" y="5.3" style="fill:#fff;font-family:'Asap-Regular';font-size:8.6571px" rotate="35.1">e</tspan><tspan x="23.9" y="8" style="fill:#fff;font-family:'Asap-Regular';font-size:8.6571px" rotate="40.9">t</tspan><tspan x="26" y="9.8" style="fill:#fff;font-family:'Asap-Regular';font-size:8.6571px" rotate="46.3">y</tspan></text><path style="fill:none" d="M128.3 66.9c8-5.1 17.4-8.1 27.6-8.1 10.1 0 19.5 2.9 27.4 8"/><text transform="rotate(-26.16 205.003 -252.813)"><tspan x="2" y="0" style="fill:#fff;font-family:'Asap-Regular';font-size:8.6571px" rotate="2.3"> </tspan><tspan x="4.1" y=".1" style="fill:#fff;font-family:'Asap-Regular';font-size:8.6571px" rotate="4.6"> </tspan><tspan x="6.1" y=".2" style="fill:#fff;font-family:'Asap-Regular';font-size:8.6571px" rotate="6.8"> </tspan><tspan x="8" y=".4" style="fill:#fff;font-family:'Asap-Regular';font-size:8.6571px" rotate="10.8">B</tspan><tspan x="13" y="1.4" style="fill:#fff;font-family:'Asap-Regular';font-size:8.6571px" rotate="14.8">i</tspan><tspan x="15.1" y="1.9" style="fill:#fff;font-family:'Asap-Regular';font-size:8.6571px" rotate="18.8">o</tspan><tspan x="19.6" y="3.5" style="fill:#fff;font-family:'Asap-Regular';font-size:8.6571px" rotate="23.4">s</tspan><tspan x="22.8" y="4.8" style="fill:#fff;font-family:'Asap-Regular';font-size:8.6571px" rotate="28">p</tspan><tspan x="27.1" y="7.1" style="fill:#fff;font-family:'Asap-Regular';font-size:8.6571px" rotate="33.4">h</tspan><tspan x="31.1" y="9.7" style="fill:#fff;font-family:'Asap-Regular';font-size:8.6571px" rotate="38.6">e</tspan><tspan x="34.7" y="12.6" style="fill:#fff;font-family:'Asap-Regular';font-size:8.6571px" rotate="42.9">r</tspan><tspan x="36.9" y="14.7" style="fill:#fff;font-family:'Asap-Regular';font-size:8.6571px" rotate="47.2">e</tspan></text><path style="fill:none" d="M113.1 54.9c1.2-1 2.4-2 3.6-2.9 11-8.2 24.6-12.1 39.2-12.1 14.9 0 28.7 4.1 39.7 12.5 1.3 1 2.6 2.1 3.9 3.2"/><text transform="rotate(-39.767 132.427 -128.797)"><tspan x="2.1" y="0" style="fill:#fff;font-family:'Asap-Regular';font-size:8.6571px" rotate="1.8"> </tspan><tspan x="4.1" y=".1" style="fill:#fff;font-family:'Asap-Regular';font-size:8.6571px" rotate="3.6"> </tspan><tspan x="6.1" y=".2" style="fill:#fff;font-family:'Asap-Regular';font-size:8.6571px" rotate="5.6"> </tspan><tspan x="8.1" y=".4" style="fill:#fff;font-family:'Asap-Regular';font-size:8.6571px" rotate="7.6"> </tspan><tspan x="10.1" y=".6" style="fill:#fff;font-family:'Asap-Regular';font-size:8.6571px" rotate="11">P</tspan><tspan x="14.8" y="1.5" style="fill:#fff;font-family:'Asap-Regular';font-size:8.6571px" rotate="15.7">h</tspan><tspan x="19.5" y="2.8" style="fill:#fff;font-family:'Asap-Regular';font-size:8.6571px" rotate="19.8">y</tspan><tspan x="23.3" y="4.2" style="fill:#fff;font-family:'Asap-Regular';font-size:8.6571px" rotate="23.2">s</tspan><tspan x="26.5" y="5.6" style="fill:#fff;font-family:'Asap-Regular';font-size:8.6571px" rotate="25.7">i</tspan><tspan x="28.5" y="6.6" style="fill:#fff;font-family:'Asap-Regular';font-size:8.6571px" rotate="28.4">c</tspan><tspan x="32.2" y="8.5" style="fill:#fff;font-family:'Asap-Regular';font-size:8.6571px" rotate="32">a</tspan><tspan x="36.1" y="11" style="fill:#fff;font-family:'Asap-Regular';font-size:8.6571px" rotate="34.8">l</tspan><tspan x="38.2" y="12.4" style="fill:#fff;font-family:'Asap-Regular';font-size:8.6571px" rotate="36.5"> </tspan><tspan x="39.8" y="13.6" style="fill:#fff;font-family:'Asap-Regular';font-size:8.6571px" rotate="38.9">E</tspan><tspan x="43.4" y="16.5" style="fill:#fff;font-family:'Asap-Regular';font-size:8.6571px" rotate="42.3">n</tspan><tspan x="46.9" y="19.7" style="fill:#fff;font-family:'Asap-Regular';font-size:8.6571px" rotate="45.6">v</tspan><tspan x="49.8" y="22.7" style="fill:#fff;font-family:'Asap-Regular';font-size:8.6571px" rotate="48.1">i</tspan><tspan x="51.3" y="24.4" style="fill:#fff;font-family:'Asap-Regular';font-size:8.6571px" rotate="50.3">r</tspan><tspan x="53.3" y="26.7" style="fill:#fff;font-family:'Asap-Regular';font-size:8.6571px" rotate="53.6">o</tspan><tspan x="56.2" y="30.6" style="fill:#fff;font-family:'Asap-Regular';font-size:8.6571px" rotate="57.8">n</tspan><tspan x="58.7" y="34.5" style="fill:#fff;font-family:'Asap-Regular';font-size:8.6571px" rotate="63.3">m</tspan><tspan x="61.9" y="41" style="fill:#fff;font-family:'Asap-Regular';font-size:8.6571px" rotate="68.9">e</tspan><tspan x="63.6" y="45.3" style="fill:#fff;font-family:'Asap-Regular';font-size:8.6571px" rotate="73.5">n</tspan><tspan x="64.9" y="49.8" style="fill:#fff;font-family:'Asap-Regular';font-size:8.6571px" rotate="77.2">t</tspan></text></g></svg>