<svg version="1.1" xmlns="http://www.w3.org/2000/svg" x="0" y="0" viewBox="0 0 311.81 250.33" style="enable-background:new 0 0 311.81 250.33" xml:space="preserve"><polyline style="fill:none;stroke:#939598;stroke-width:.5;stroke-miterlimit:10;stroke-dasharray:1.4173" points="43.75 126.44 245.34 126.44 245.34 212.44"/><line style="fill:none;stroke:#6d6e71;stroke-width:.5;stroke-miterlimit:10" x1="245.34" y1="214.56" x2="245.34" y2="212.44"/><text transform="translate(234.9 225.647)" style="font-family:'Asap-Regular';font-size:7px">12,000</text><line style="fill:none;stroke:#939598;stroke-width:.5;stroke-miterlimit:10;stroke-dasharray:1.4173" x1="178.59" y1="126.44" x2="178.59" y2="212.44"/><line style="fill:none;stroke:#a01d20;stroke-width:.5;stroke-miterlimit:10" x1="107.31" y1="17.68" x2="219.15" y2="188.01"/><line style="fill:none;stroke:#ed2124;stroke-width:.5;stroke-miterlimit:10" x1="165.37" y1="4.64" x2="277.21" y2="174.98"/><line style="fill:none;stroke:#939598;stroke-width:.5;stroke-miterlimit:10;stroke-dasharray:1.4173" x1="41.84" y1="71.27" x2="208.96" y2="71.27"/><line style="fill:none;stroke:#6d6e71;stroke-width:.5;stroke-miterlimit:10" x1="41.84" y1="8" x2="41.84" y2="214.56"/><line style="fill:none;stroke:#6d6e71;stroke-width:.5;stroke-miterlimit:10" x1="39.67" y1="212.44" x2="306.84" y2="212.44"/><line style="fill:none;stroke:#6d6e71;stroke-width:.5;stroke-miterlimit:10" x1="41.8" y1="24.77" x2="39.67" y2="24.77"/><text transform="translate(122.922 244.522)" style="font-family:'Asap-Medium';font-size:8px">Number of tenancies</text><line style="fill:none;stroke:#6d6e71;stroke-width:.5;stroke-miterlimit:10" x1="41.8" y1="126.44" x2="39.67" y2="126.44"/><line style="fill:none;stroke:#939598;stroke-width:.5;stroke-miterlimit:10;stroke-dasharray:1.4173" x1="41.84" y1="24.77" x2="177.96" y2="24.77"/><text transform="translate(220.15 10.521)" style="font-family:'Asap-Regular';font-size:6px">Supply curve</text><text transform="translate(53.671 121.424)" style="font-family:'Asap-Regular';font-size:6px">Controlled rent</text><text transform="translate(53.671 64.757)" style="font-family:'Asap-Regular';font-size:6px">Market clearing rent</text><text transform="translate(197.6 201.08)" style="font-family:'Asap-Regular';font-size:6px">Demand curve</text><text transform="translate(254.933 185.412)" style="font-family:'Asap-Regular';font-size:6px">New demand curve</text><circle cx="178.59" cy="24.77" r="1.13"/><line style="fill:none;stroke:#6d6e71;stroke-width:.5;stroke-miterlimit:10" x1="178.59" y1="214.56" x2="178.59" y2="212.44"/><line style="fill:none;stroke:#6d6e71;stroke-width:.5;stroke-miterlimit:10" x1="41.8" y1="71.27" x2="39.67" y2="71.27"/><circle cx="245.34" cy="126.77" r="1.13"/><line style="fill:none;stroke:#3a53a4;stroke-width:.5;stroke-miterlimit:10" x1="148.84" y1="181.01" x2="240.34" y2="13.66"/><text transform="rotate(-90 75.855 62.861)" style="font-family:'Asap-Medium';font-size:8px">Housing rent (€)</text><text transform="translate(40.755 225.647)" style="font-family:'Asap-Regular';font-size:7px">0</text><text transform="translate(174.9 225.647)" style="font-family:'Asap-Regular';font-size:7px">8,000</text><text transform="translate(17.588 26.271)" style="font-family:'Asap-Regular';font-size:7px">1,100</text><text transform="translate(30.255 214.606)" style="font-family:'Asap-Regular';font-size:7px">0</text><text transform="translate(22.588 73.021)" style="font-family:'Asap-Regular';font-size:7px">830</text><text transform="translate(22.588 129.021)" style="font-family:'Asap-Regular';font-size:7px">500</text><text transform="rotate(-90 134.667 -36.614)" style="font-family:'Asap-Regular';font-size:6px">Economic rent</text><line style="fill:none;stroke:#939598;stroke-width:.5;stroke-miterlimit:10" x1="178.59" y1="118.48" x2="178.59" y2="29.06"/><polygon style="fill:#939598" points="180.63 116.82 180.27 116.48 178.59 118.29 176.91 116.48 176.54 116.82 178.59 119.02"/><polygon style="fill:#939598" points="180.63 30.72 180.27 31.06 178.59 29.26 176.91 31.06 176.54 30.72 178.59 28.52"/><text transform="translate(194.005 137.189)" style="font-family:'Asap-Regular';font-size:6px">Excess demand</text><line style="fill:none;stroke:#939598;stroke-width:.5;stroke-miterlimit:10" x1="185.94" y1="126.67" x2="240.36" y2="126.67"/><polygon style="fill:#939598" points="187.6 128.71 187.94 128.35 186.13 126.67 187.94 124.99 187.6 124.62 185.4 126.67"/><polygon style="fill:#939598" points="238.7 128.71 238.36 128.35 240.17 126.67 238.36 124.99 238.7 124.62 240.9 126.67"/><circle cx="178.59" cy="126.44" r="1.13"/><circle cx="208.96" cy="71.27" r="1.13"/></svg>