<svg version="1.1" xmlns="http://www.w3.org/2000/svg" x="0" y="0" viewBox="0 0 311.81 204.9" style="enable-background:new 0 0 311.81 204.9" xml:space="preserve"><text transform="translate(192.995 66.07)" style="font-size:6px;font-family:'Asap-Regular'">A</text><line x1="77.28" y1="68.63" x2="186.92" y2="68.63" style="stroke:#939598;stroke-dasharray:1.4173;fill:none;stroke-width:.5;stroke-linecap:square;stroke-linejoin:round"/><line x1="188.46" y1="177.08" x2="188.46" y2="68.63" style="stroke:#939598;stroke-dasharray:1.4173;fill:none;stroke-width:.5;stroke-linecap:square;stroke-linejoin:round"/><text transform="translate(104.736 26.079)" style="font-size:6px;font-family:'Asap-Regular'">Feasible frontier</text><path d="M244.13 179.78c-1.76-17.37-8.03-54.42-35.69-89.31C161.1 30.74 89.61 25.94 77.68 25.33" style="stroke:#f49323;fill:none;stroke-width:.5;stroke-linecap:square;stroke-linejoin:round"/><path d="M189.59 68.63a1.129 1.129 0 11-2.262.002 1.129 1.129 0 012.262-.002z"/><line x1="77.28" y1="143.78" x2="186.92" y2="143.78" style="stroke:#939598;stroke-dasharray:1.4173;fill:none;stroke-width:.5;stroke-linecap:square;stroke-linejoin:round"/><path d="M189.59 143.78a1.129 1.129 0 11-2.262.002 1.129 1.129 0 012.262-.002z"/><text transform="translate(193.079 140.433)" style="font-size:6px;font-family:'Asap-Regular'">D</text><text transform="translate(87.223 106.863)" style="font-size:6px;font-family:'Asap-Regular'">Bruno’s share</text><text transform="translate(86.595 159.717)" style="font-size:6px;font-family:'Asap-Regular'">Angela’s share</text><text transform="translate(116.184 173.896)" style="font-size:6px;font-family:'Asap-Regular'">Angela’s free time</text><text transform="translate(199.706 173.895)" style="font-size:6px;font-family:'Asap-Regular'">Angela’s work</text><line x1="82.13" y1="71.64" x2="82.13" y2="142.1" style="stroke:#939598;fill:none;stroke-width:.5;stroke-linecap:square;stroke-linejoin:round"/><polygon points="80.08 73.3 80.45 73.64 82.13 71.84 83.81 73.64 84.17 73.3 82.13 71.1" style="fill:#939598"/><polygon points="80.08 140.44 80.45 140.1 82.13 141.91 83.81 140.1 84.17 140.44 82.13 142.64" style="fill:#939598"/><line x1="82.13" y1="146.16" x2="82.13" y2="177.37" style="stroke:#939598;fill:none;stroke-width:.5;stroke-linecap:square;stroke-linejoin:round"/><polygon points="80.08 147.82 80.45 148.16 82.13 146.35 83.81 148.16 84.17 147.82 82.13 145.62" style="fill:#939598"/><polygon points="80.08 175.72 80.45 175.38 82.13 177.18 83.81 175.38 84.17 175.72 82.13 177.92" style="fill:#939598"/><g><line x1="84.67" y1="176.08" x2="186.45" y2="176.08" style="stroke:#939598;fill:none;stroke-width:.5;stroke-linecap:square;stroke-linejoin:round"/><polygon points="86.33 178.13 86.67 177.76 84.86 176.08 86.67 174.41 86.33 174.04 84.13 176.08" style="fill:#939598"/><polygon points="184.79 178.13 184.45 177.76 186.26 176.08 184.45 174.41 184.79 174.04 186.99 176.08" style="fill:#939598"/></g><g><line x1="190.88" y1="176.08" x2="241.49" y2="176.08" style="stroke:#939598;fill:none;stroke-width:.5;stroke-linecap:square;stroke-linejoin:round"/><polygon points="192.53 178.13 192.87 177.76 191.07 176.08 192.87 174.41 192.53 174.04 190.33 176.08" style="fill:#939598"/><polygon points="239.84 178.13 239.5 177.76 241.3 176.08 239.5 174.41 239.84 174.04 242.04 176.08" style="fill:#939598"/></g><g><line x1="76.86" y1="178.83" x2="74.73" y2="178.83" style="fill:none;stroke-width:.5;stroke-linecap:square;stroke-linejoin:round;stroke:#6d6e71"/><line x1="76.86" y1="166.78" x2="74.73" y2="166.78" style="fill:none;stroke-width:.5;stroke-linecap:square;stroke-linejoin:round;stroke:#6d6e71"/><line x1="76.86" y1="154.78" x2="74.73" y2="154.78" style="fill:none;stroke-width:.5;stroke-linecap:square;stroke-linejoin:round;stroke:#6d6e71"/><line x1="76.86" y1="142.78" x2="74.73" y2="142.78" style="fill:none;stroke-width:.5;stroke-linecap:square;stroke-linejoin:round;stroke:#6d6e71"/><line x1="76.86" y1="130.78" x2="74.73" y2="130.78" style="fill:none;stroke-width:.5;stroke-linecap:square;stroke-linejoin:round;stroke:#6d6e71"/><line x1="76.86" y1="118.78" x2="74.73" y2="118.78" style="fill:none;stroke-width:.5;stroke-linecap:square;stroke-linejoin:round;stroke:#6d6e71"/><line x1="76.86" y1="106.78" x2="74.73" y2="106.78" style="fill:none;stroke-width:.5;stroke-linecap:square;stroke-linejoin:round;stroke:#6d6e71"/><line x1="76.86" y1="94.78" x2="74.73" y2="94.78" style="fill:none;stroke-width:.5;stroke-linecap:square;stroke-linejoin:round;stroke:#6d6e71"/><line x1="76.86" y1="82.78" x2="74.73" y2="82.78" style="fill:none;stroke-width:.5;stroke-linecap:square;stroke-linejoin:round;stroke:#6d6e71"/><line x1="76.86" y1="70.78" x2="74.73" y2="70.78" style="fill:none;stroke-width:.5;stroke-linecap:square;stroke-linejoin:round;stroke:#6d6e71"/><line x1="76.86" y1="34.78" x2="74.73" y2="34.78" style="fill:none;stroke-width:.5;stroke-linecap:square;stroke-linejoin:round;stroke:#6d6e71"/><line x1="76.86" y1="22.78" x2="74.73" y2="22.78" style="fill:none;stroke-width:.5;stroke-linecap:square;stroke-linejoin:round;stroke:#6d6e71"/><line x1="76.86" y1="58.78" x2="74.73" y2="58.78" style="fill:none;stroke-width:.5;stroke-linecap:square;stroke-linejoin:round;stroke:#6d6e71"/><line x1="76.86" y1="46.78" x2="74.73" y2="46.78" style="fill:none;stroke-width:.5;stroke-linecap:square;stroke-linejoin:round;stroke:#6d6e71"/><line x1="76.86" y1="10.78" x2="74.73" y2="10.78" style="fill:none;stroke-width:.5;stroke-linecap:square;stroke-linejoin:round;stroke:#6d6e71"/><line x1="77.13" y1="178.9" x2="77.13" y2="181.08" style="stroke:#6d6e71;fill:none;stroke-width:.5;stroke-linecap:square"/><line x1="84.09" y1="178.9" x2="84.09" y2="181.03" style="stroke:#6d6e71;fill:none;stroke-width:.5;stroke-linecap:square"/><line x1="91.04" y1="178.9" x2="91.04" y2="181.03" style="stroke:#6d6e71;fill:none;stroke-width:.5;stroke-linecap:square"/><line x1="98" y1="178.9" x2="98" y2="181.03" style="stroke:#6d6e71;fill:none;stroke-width:.5;stroke-linecap:square"/><line x1="104.96" y1="178.9" x2="104.96" y2="181.03" style="stroke:#6d6e71;fill:none;stroke-width:.5;stroke-linecap:square"/><line x1="111.92" y1="178.9" x2="111.92" y2="181.03" style="stroke:#6d6e71;fill:none;stroke-width:.5;stroke-linecap:square"/><line x1="118.88" y1="178.9" x2="118.88" y2="181.03" style="stroke:#6d6e71;fill:none;stroke-width:.5;stroke-linecap:square"/><line x1="125.84" y1="178.9" x2="125.84" y2="181.03" style="stroke:#6d6e71;fill:none;stroke-width:.5;stroke-linecap:square"/><line x1="132.79" y1="178.9" x2="132.79" y2="181.03" style="stroke:#6d6e71;fill:none;stroke-width:.5;stroke-linecap:square"/><line x1="139.75" y1="178.9" x2="139.75" y2="181.03" style="stroke:#6d6e71;fill:none;stroke-width:.5;stroke-linecap:square"/><line x1="146.71" y1="178.9" x2="146.71" y2="181.03" style="stroke:#6d6e71;fill:none;stroke-width:.5;stroke-linecap:square"/><line x1="153.67" y1="178.9" x2="153.67" y2="181.03" style="stroke:#6d6e71;fill:none;stroke-width:.5;stroke-linecap:square"/><line x1="160.63" y1="178.9" x2="160.63" y2="181.03" style="stroke:#6d6e71;fill:none;stroke-width:.5;stroke-linecap:square"/><line x1="167.59" y1="178.9" x2="167.59" y2="181.03" style="stroke:#6d6e71;fill:none;stroke-width:.5;stroke-linecap:square"/><line x1="174.54" y1="178.9" x2="174.54" y2="181.03" style="stroke:#6d6e71;fill:none;stroke-width:.5;stroke-linecap:square"/><line x1="181.5" y1="178.9" x2="181.5" y2="181.03" style="stroke:#6d6e71;fill:none;stroke-width:.5;stroke-linecap:square"/><line x1="188.46" y1="178.9" x2="188.46" y2="181.03" style="stroke:#6d6e71;fill:none;stroke-width:.5;stroke-linecap:square"/><line x1="195.42" y1="178.9" x2="195.42" y2="181.03" style="stroke:#6d6e71;fill:none;stroke-width:.5;stroke-linecap:square"/><line x1="202.38" y1="178.9" x2="202.38" y2="181.03" style="stroke:#6d6e71;fill:none;stroke-width:.5;stroke-linecap:square"/><line x1="209.34" y1="178.9" x2="209.34" y2="181.03" style="stroke:#6d6e71;fill:none;stroke-width:.5;stroke-linecap:square"/><line x1="216.29" y1="178.9" x2="216.29" y2="181.03" style="stroke:#6d6e71;fill:none;stroke-width:.5;stroke-linecap:square"/><line x1="223.25" y1="178.9" x2="223.25" y2="181.03" style="stroke:#6d6e71;fill:none;stroke-width:.5;stroke-linecap:square"/><line x1="230.21" y1="178.9" x2="230.21" y2="181.03" style="stroke:#6d6e71;fill:none;stroke-width:.5;stroke-linecap:square"/><line x1="237.17" y1="178.9" x2="237.17" y2="181.03" style="stroke:#6d6e71;fill:none;stroke-width:.5;stroke-linecap:square"/><line x1="244.13" y1="178.9" x2="244.13" y2="181.03" style="stroke:#6d6e71;fill:none;stroke-width:.5;stroke-linecap:square"/><text transform="translate(67.035 180.975)" style="font-size:7px;font-family:'Asap-Regular'">0</text><text transform="translate(75.25 190.383)" style="font-size:7px;font-family:'Asap-Regular'">0</text><text transform="translate(63.29 156.923)" style="font-size:7px;font-family:'Asap-Regular'">10</text><text transform="translate(63.291 132.924)" style="font-size:7px;font-family:'Asap-Regular'">20</text><text transform="translate(63.291 108.923)" style="font-size:7px;font-family:'Asap-Regular'">30</text><text transform="translate(63.291 84.923)" style="font-size:7px;font-family:'Asap-Regular'">40</text><text transform="translate(63.29 60.923)" style="font-size:7px;font-family:'Asap-Regular'">50</text><text transform="translate(63.29 36.923)" style="font-size:7px;font-family:'Asap-Regular'">60</text><text transform="translate(63.291 12.923)" style="font-size:7px;font-family:'Asap-Regular'">70</text><text transform="translate(103.088 190.383)" style="font-size:7px;font-family:'Asap-Regular'">4</text><text transform="translate(130.922 190.383)" style="font-size:7px;font-family:'Asap-Regular'">8</text><text transform="translate(156.883 190.383)" style="font-size:7px;font-family:'Asap-Regular'">12</text><text transform="translate(184.716 190.383)" style="font-size:7px;font-family:'Asap-Regular'">16</text><text transform="translate(212.55 190.382)" style="font-size:7px;font-family:'Asap-Regular'">20</text><text transform="translate(240.383 190.383)" style="font-size:7px;font-family:'Asap-Regular'">24</text><text transform="matrix(0 -.9726 1 0 53.72 122.034)" style="font-size:8px;font-family:'Asap-Medium'">Bushels of grain</text><text transform="translate(113.393 200.356)" style="font-size:8px;font-family:'Asap-Medium'">Angela’s hours of free time</text><path d="M77.13 10.78v167.81" style="fill:none;stroke-width:.5;stroke-linecap:square;stroke-linejoin:round;stroke:#6d6e71"/><line x1="77.13" y1="178.78" x2="244.13" y2="178.78" style="fill:none;stroke:#6d6e71;stroke-width:.5;stroke-linecap:square"/></g></svg>