<svg version="1.1" xmlns="http://www.w3.org/2000/svg" x="0" y="0" viewBox="0 0 311.81 204.74" style="enable-background:new 0 0 311.81 204.74" xml:space="preserve"><polyline style="fill:none;stroke:#ec2527;stroke-width:.5;stroke-linecap:square" points="36.32 23.92 38.85 23.92 305.16 179.2 305.16 181.73"/><text transform="translate(14.04 64.717)" style="fill:#010101;font-family:'Asap-Regular';font-size:7px">30,000</text><text transform="translate(139.476 201.627)"><tspan x="0" y="0" style="fill:#010101;font-family:'Asap-Medium';font-size:8px">Quantity of cars, </tspan><tspan x="59.53" y="0" style="fill:#010101;font-family:'Asap-MediumItalic';font-size:8px">Q</tspan></text><text transform="rotate(-90 55.625 48.213)"><tspan x="0" y="0" style="fill:#010101;font-family:'Asap-Medium';font-size:8px">Price,</tspan><tspan x="19.38" y="0" style="fill:#010101;font-family:'Asap-MediumItalic';font-size:8px"> P</tspan><tspan x="25.86" y="0" style="fill:#010101;font-family:'Asap-Medium';font-size:8px"> ($)</tspan></text><text transform="translate(14.04 122.835)" style="fill:#010101;font-family:'Asap-Regular';font-size:7px">15,000</text><text transform="translate(14.04 142.208)" style="fill:#010101;font-family:'Asap-Regular';font-size:7px">10,000</text><text transform="translate(17.785 161.58)" style="fill:#010101;font-family:'Asap-Regular';font-size:7px">5,000</text><text transform="translate(14.04 103.462)" style="fill:#010101;font-family:'Asap-Regular';font-size:7px">20,000</text><text transform="translate(14.04 84.09)" style="fill:#010101;font-family:'Asap-Regular';font-size:7px">25,000</text><text transform="translate(30.406 180.953)" style="fill:#010101;font-family:'Asap-Regular';font-size:7px">0</text><text transform="translate(37.19 189.286)" style="fill:#010101;font-family:'Asap-Regular';font-size:7px">0</text><text transform="translate(60.027 189.287)" style="fill:#010101;font-family:'Asap-Regular';font-size:7px">10</text><text transform="translate(86.61 189.287)" style="fill:#010101;font-family:'Asap-Regular';font-size:7px">20</text><text transform="translate(299.27 189.287)" style="fill:#010101;font-family:'Asap-Regular';font-size:7px">100</text><text transform="translate(166.358 189.286)" style="fill:#010101;font-family:'Asap-Regular';font-size:7px">50</text><text transform="translate(139.775 189.287)" style="fill:#010101;font-family:'Asap-Regular';font-size:7px">40</text><text transform="translate(113.192 189.287)" style="fill:#010101;font-family:'Asap-Regular';font-size:7px">30</text><line style="fill:none;stroke:#6e6f71;stroke-width:.5;stroke-linecap:square" x1="38.85" y1="62.74" x2="36.32" y2="62.74"/><line style="fill:none;stroke:#6e6f72;stroke-width:.5;stroke-miterlimit:10" x1="38.85" y1="4.51" x2="38.85" y2="179.2"/><line style="fill:none;stroke:#6e6f72;stroke-width:.5;stroke-miterlimit:10" x1="38.85" y1="179.2" x2="305.16" y2="179.2"/><line style="fill:none;stroke:#6e6f71;stroke-width:.5;stroke-linecap:square" x1="38.85" y1="179.2" x2="36.32" y2="179.2"/><line style="fill:none;stroke:#6e6f71;stroke-width:.5;stroke-linecap:square" x1="38.85" y1="179.2" x2="38.85" y2="181.73"/><line style="fill:none;stroke:#6e6f71;stroke-width:.5;stroke-linecap:square" x1="38.85" y1="82.15" x2="36.32" y2="82.15"/><line style="fill:none;stroke:#6e6f71;stroke-width:.5;stroke-linecap:square" x1="38.85" y1="101.56" x2="36.32" y2="101.56"/><line style="fill:none;stroke:#6e6f71;stroke-width:.5;stroke-linecap:square" x1="38.85" y1="120.97" x2="36.32" y2="120.97"/><line style="fill:none;stroke:#6e6f71;stroke-width:.5;stroke-linecap:square" x1="38.85" y1="140.38" x2="36.32" y2="140.38"/><line style="fill:none;stroke:#6e6f71;stroke-width:.5;stroke-linecap:square" x1="38.85" y1="159.79" x2="36.32" y2="159.79"/><line style="fill:none;stroke:#6e6f71;stroke-width:.5;stroke-linecap:square" x1="92.11" y1="179.2" x2="92.11" y2="181.73"/><line style="fill:none;stroke:#6e6f71;stroke-width:.5;stroke-linecap:square" x1="145.37" y1="179.2" x2="145.37" y2="181.73"/><line style="fill:none;stroke:#6e6f71;stroke-width:.5;stroke-linecap:square" x1="172.01" y1="179.2" x2="172.01" y2="181.73"/><line style="fill:none;stroke:#6e6f71;stroke-width:.5;stroke-linecap:square" x1="251.9" y1="179.2" x2="251.9" y2="181.73"/><line style="fill:none;stroke:#6e6f71;stroke-width:.5;stroke-linecap:square" x1="198.64" y1="179.2" x2="198.64" y2="181.73"/><text transform="translate(14.04 6.6)" style="fill:#010101;font-family:'Asap-Regular';font-size:7px">45,000</text><line style="fill:none;stroke:#6e6f71;stroke-width:.5;stroke-linecap:square" x1="38.85" y1="4.51" x2="36.32" y2="4.51"/><text transform="translate(14.04 25.973)" style="fill:#010101;font-family:'Asap-Regular';font-size:7px">40,000</text><text transform="translate(14.04 45.345)" style="fill:#010101;font-family:'Asap-Regular';font-size:7px">35,000</text><line style="fill:none;stroke:#6e6f71;stroke-width:.5;stroke-linecap:square" x1="38.85" y1="43.33" x2="36.32" y2="43.33"/><text transform="translate(192.94 189.287)" style="fill:#010101;font-family:'Asap-Regular';font-size:7px">60</text><text transform="translate(219.522 189.286)" style="fill:#010101;font-family:'Asap-Regular';font-size:7px">70</text><text transform="translate(246.104 189.286)" style="fill:#010101;font-family:'Asap-Regular';font-size:7px">80</text><text transform="translate(272.687 189.286)" style="fill:#010101;font-family:'Asap-Regular';font-size:7px">90</text><line style="fill:none;stroke:#6e6f71;stroke-width:.5;stroke-linecap:square" x1="225.27" y1="179.2" x2="225.27" y2="181.73"/><line style="fill:none;stroke:#6e6f71;stroke-width:.5;stroke-linecap:square" x1="65.48" y1="179.2" x2="65.48" y2="181.73"/><line style="fill:none;stroke:#6e6f71;stroke-width:.5;stroke-linecap:square" x1="118.74" y1="179.2" x2="118.74" y2="181.73"/><line style="fill:none;stroke:#6e6f71;stroke-width:.5;stroke-linecap:square" x1="278.53" y1="179.2" x2="278.53" y2="181.73"/><circle style="fill:#231f20" cx="82.44" cy="49.41" r="1.13"/><line style="fill:none;stroke:#6e6f71;stroke-width:.5;stroke-linecap:square" x1="38.85" y1="23.92" x2="36.32" y2="23.92"/><line style="fill:none;stroke:#6e6f71;stroke-width:.5;stroke-linecap:square" x1="305.16" y1="179.2" x2="305.16" y2="181.73"/><text transform="translate(83.573 46.57)" style="fill:#010101;font-family:'Asap-Regular';font-size:6px">K</text><circle style="fill:#231f20" cx="87.74" cy="52.64" r="1.13"/><text transform="translate(90.74 51.503)" style="fill:#010101;font-family:'Asap-Regular';font-size:6px">L</text></svg>