<svg version="1.1" xmlns="http://www.w3.org/2000/svg" x="0" y="0" viewBox="0 0 311.81 165.12" style="enable-background:new 0 0 311.81 165.12" xml:space="preserve"><text transform="translate(54.356 158.236)" style="font-family:'Asap-Regular';font-size:6px">(a) Vicious circle</text><text transform="translate(207.74 158.236)" style="font-family:'Asap-Regular';font-size:6px">(b) Virtuous circle</text><text transform="translate(98.551 74.426)" style="font-family:'Asap-Regular';font-size:6px">Low yielding assets</text><path style="fill:none;stroke:#009147;stroke-width:.5;stroke-miterlimit:10" d="M147.59 88.09h-47.32c-4.13 0-7.5-3.38-7.5-7.5v-16c0-4.13 3.38-7.5 7.5-7.5h47.32c4.13 0 7.5 3.38 7.5 7.5v15.99c0 4.13-3.37 7.51-7.5 7.51z"/><text transform="translate(60.49 21.386)"><tspan x="0" y="0" style="font-family:'Asap-Regular';font-size:6px">Heightened</tspan><tspan x="-1.06" y="7.2" style="font-family:'Asap-Regular';font-size:6px">risk aversion</tspan></text><path style="fill:none;stroke:#009147;stroke-width:.5;stroke-miterlimit:10" d="M99.72 38.65H52.4c-4.13 0-7.5-3.38-7.5-7.5v-16c0-4.13 3.38-7.5 7.5-7.5h47.32c4.13 0 7.5 3.38 7.5 7.5v15.99c0 4.13-3.37 7.51-7.5 7.51z"/><text transform="translate(14.893 74.787)" style="font-family:'Asap-Regular';font-size:6px">Limited wealth</text><path style="fill:none;stroke:#009147;stroke-width:.5;stroke-miterlimit:10" d="M58.3 88.45H10.98c-4.13 0-7.5-3.38-7.5-7.5v-16c0-4.13 3.38-7.5 7.5-7.5H58.3c4.13 0 7.5 3.38 7.5 7.5v15.99c0 4.13-3.37 7.51-7.5 7.51z"/><text transform="translate(57.806 123.971)"><tspan x="0" y="0" style="font-family:'Asap-Regular';font-size:6px">Lower returns</tspan><tspan x="-9" y="7.2" style="font-family:'Asap-Regular';font-size:6px">on the assets chosen</tspan></text><path style="fill:none;stroke:#009147;stroke-width:.5;stroke-miterlimit:10" d="M99.72 141.23H52.4c-4.13 0-7.5-3.38-7.5-7.5v-15.99c0-4.13 3.38-7.5 7.5-7.5h47.32c4.13 0 7.5 3.38 7.5 7.5v15.99c0 4.13-3.37 7.5-7.5 7.5z"/><text transform="translate(252.624 74.426)" style="font-family:'Asap-Regular';font-size:6px">High yielding assets</text><path style="fill:none;stroke:#009147;stroke-width:.5;stroke-miterlimit:10" d="M302.59 88.09h-47.32c-4.13 0-7.5-3.38-7.5-7.5v-16c0-4.13 3.38-7.5 7.5-7.5h47.32c4.13 0 7.5 3.38 7.5 7.5v15.99c0 4.13-3.37 7.51-7.5 7.51z"/><text transform="translate(208.162 21.386)"><tspan x="0" y="0" style="font-family:'Asap-Regular';font-size:6px">Less risk aversion</tspan><tspan x="1.09" y="7.2" style="font-family:'Asap-Regular';font-size:6px">or risk neutrality</tspan></text><path style="fill:none;stroke:#009147;stroke-width:.5;stroke-miterlimit:10" d="M254.72 38.65H207.4c-4.13 0-7.5-3.38-7.5-7.5v-16c0-4.13 3.38-7.5 7.5-7.5h47.32c4.13 0 7.5 3.38 7.5 7.5v15.99c0 4.13-3.37 7.51-7.5 7.51z"/><text transform="translate(165.02 74.787)" style="font-family:'Asap-Regular';font-size:6px">Substantial wealth</text><path style="fill:none;stroke:#009147;stroke-width:.5;stroke-miterlimit:10" d="M213.3 88.45h-47.32c-4.13 0-7.5-3.38-7.5-7.5v-16c0-4.13 3.38-7.5 7.5-7.5h47.32c4.13 0 7.5 3.38 7.5 7.5v15.99c0 4.13-3.37 7.51-7.5 7.51z"/><text transform="translate(211.88 123.972)"><tspan x="0" y="0" style="font-family:'Asap-Regular';font-size:6px">Higher returns</tspan><tspan x="-8.07" y="7.2" style="font-family:'Asap-Regular';font-size:6px">on the assets chosen</tspan></text><path style="fill:none;stroke:#009147;stroke-width:.5;stroke-miterlimit:10" d="M254.72 141.23H207.4c-4.13 0-7.5-3.38-7.5-7.5v-15.99c0-4.13 3.38-7.5 7.5-7.5h47.32c4.13 0 7.5 3.38 7.5 7.5v15.99c0 4.13-3.37 7.5-7.5 7.5z"/><path style="fill:none;stroke:#3a53a4;stroke-width:.5;stroke-miterlimit:10" d="M15.67 50.48s-.2-20.25 26.78-36.63"/><polygon style="fill:#3a53a4" points="42.18 16.48 41.69 16.36 42.3 13.97 39.87 13.54 39.96 13.05 42.92 13.57"/><path style="fill:none;stroke:#3a53a4;stroke-width:.5;stroke-miterlimit:10" d="M108.45 14.31s19.69 4.74 29 34.9"/><polygon style="fill:#3a53a4" points="134.97 48.31 135.21 47.87 137.38 49.04 138.39 46.79 138.84 47 137.62 49.74"/><g><path style="fill:none;stroke:#3a53a4;stroke-width:.5;stroke-miterlimit:10" d="M136.46 97.35s.2 20.25-26.78 36.63"/><polygon style="fill:#3a53a4" points="109.94 131.35 110.43 131.47 109.82 133.86 112.25 134.29 112.16 134.79 109.21 134.26"/></g><g><path style="fill:none;stroke:#3a53a4;stroke-width:.5;stroke-miterlimit:10" d="M43.67 133.52s-19.69-4.74-29-34.9"/><polygon style="fill:#3a53a4" points="17.15 99.52 16.91 99.96 14.74 98.79 13.73 101.04 13.28 100.83 14.51 98.09"/></g><g><path style="fill:none;stroke:#3a53a4;stroke-width:.5;stroke-miterlimit:10" d="M170.67 50.48s-.2-20.25 26.78-36.63"/><polygon style="fill:#3a53a4" points="197.18 16.48 196.69 16.36 197.3 13.97 194.87 13.54 194.96 13.05 197.92 13.57"/><path style="fill:none;stroke:#3a53a4;stroke-width:.5;stroke-miterlimit:10" d="M263.45 14.31s19.69 4.74 29 34.9"/><polygon style="fill:#3a53a4" points="289.97 48.31 290.21 47.87 292.38 49.04 293.39 46.79 293.84 47 292.62 49.74"/><g><path style="fill:none;stroke:#3a53a4;stroke-width:.5;stroke-miterlimit:10" d="M291.46 97.35s.2 20.25-26.78 36.63"/><polygon style="fill:#3a53a4" points="264.94 131.35 265.43 131.47 264.82 133.86 267.25 134.29 267.16 134.79 264.21 134.26"/></g><g><path style="fill:none;stroke:#3a53a4;stroke-width:.5;stroke-miterlimit:10" d="M198.67 133.52s-19.69-4.74-29-34.9"/><polygon style="fill:#3a53a4" points="172.15 99.52 171.91 99.96 169.74 98.79 168.73 101.04 168.28 100.83 169.51 98.09"/></g></g></svg>