<svg version="1.1" xmlns="http://www.w3.org/2000/svg" x="0" y="0" viewBox="0 0 311.81 198.58" style="enable-background:new 0 0 311.81 198.58" xml:space="preserve"><line style="fill:none;stroke:#ec2427;stroke-width:.5" x1="38.13" y1="24.2" x2="308.76" y2="167.55"/><rect x="38.13" y="67.62" style="fill:#e2e7f5" width="82.93" height="38.2"/><line style="fill:none;stroke:#6e6f72;stroke-width:.5;stroke-miterlimit:10" x1="308.76" y1="167.55" x2="37.73" y2="167.55"/><line style="fill:none;stroke:#6e6f72;stroke-width:.5;stroke-miterlimit:10" x1="38.13" y1="6" x2="38.13" y2="167.55"/><line style="fill:none;stroke:#6e6f71;stroke-width:.5;stroke-linecap:square" x1="308.76" y1="167.55" x2="308.76" y2="170.07"/><line style="fill:none;stroke:#6e6f71;stroke-width:.5;stroke-linecap:square" x1="38.13" y1="167.55" x2="38.13" y2="170.07"/><line style="fill:none;stroke:#6e6f71;stroke-width:.5;stroke-linecap:square" x1="38.13" y1="167.55" x2="35.6" y2="167.55"/><line style="fill:none;stroke:#6e6f71;stroke-width:.5;stroke-linecap:square" x1="38.13" y1="149.63" x2="35.6" y2="149.63"/><line style="fill:none;stroke:#6e6f71;stroke-width:.5;stroke-linecap:square" x1="38.13" y1="131.71" x2="35.6" y2="131.71"/><line style="fill:none;stroke:#6e6f71;stroke-width:.5;stroke-linecap:square" x1="38.13" y1="113.79" x2="35.6" y2="113.79"/><line style="fill:none;stroke:#6e6f71;stroke-width:.5;stroke-linecap:square" x1="38.13" y1="42.12" x2="35.6" y2="42.12"/><line style="fill:none;stroke:#6e6f71;stroke-width:.5;stroke-linecap:square" x1="38.13" y1="60.04" x2="35.6" y2="60.04"/><line style="fill:none;stroke:#6e6f71;stroke-width:.5;stroke-linecap:square" x1="38.13" y1="77.96" x2="35.6" y2="77.96"/><line style="fill:none;stroke:#6e6f71;stroke-width:.5;stroke-linecap:square" x1="38.13" y1="95.87" x2="35.6" y2="95.87"/><line style="fill:none;stroke:#6e6f71;stroke-width:.5;stroke-linecap:square" x1="38.13" y1="6.28" x2="35.6" y2="6.28"/><line style="fill:none;stroke:#6e6f71;stroke-width:.5;stroke-linecap:square" x1="38.13" y1="24.2" x2="35.6" y2="24.2"/><line style="fill:none;stroke:#6e6f71;stroke-width:.5;stroke-linecap:square" x1="254.63" y1="167.55" x2="254.63" y2="170.07"/><line style="fill:none;stroke:#6e6f71;stroke-width:.5;stroke-linecap:square" x1="173.44" y1="167.55" x2="173.44" y2="170.07"/><line style="fill:none;stroke:#6e6f71;stroke-width:.5;stroke-linecap:square" x1="200.51" y1="167.55" x2="200.51" y2="170.07"/><line style="fill:none;stroke:#6e6f71;stroke-width:.5;stroke-linecap:square" x1="146.38" y1="167.55" x2="146.38" y2="170.07"/><line style="fill:none;stroke:#6e6f71;stroke-width:.5;stroke-linecap:square" x1="119.32" y1="167.55" x2="119.32" y2="170.07"/><line style="fill:none;stroke:#6e6f71;stroke-width:.5;stroke-linecap:square" x1="92.25" y1="167.55" x2="92.25" y2="170.07"/><line style="fill:none;stroke:#6e6f71;stroke-width:.5;stroke-linecap:square" x1="65.19" y1="167.55" x2="65.19" y2="170.07"/><text transform="translate(138.957 196.378)"><tspan x="0" y="0" style="fill:#010101;font-family:'Asap-Medium';font-size:8px">Quantity of cars, </tspan><tspan x="59.53" y="0" style="fill:#010101;font-family:'Asap-MediumItalic';font-size:8px">Q</tspan></text><text transform="rotate(-90 53.657 46.315)"><tspan x="0" y="0" style="fill:#010101;font-family:'Asap-Medium';font-size:8px">Price, </tspan><tspan x="21.3" y="0" style="fill:#010101;font-family:'Asap-MediumItalic';font-size:8px">P</tspan><tspan x="25.86" y="0" style="fill:#010101;font-family:'Asap-Medium';font-size:8px"> ($)</tspan></text><text transform="translate(29.683 170.073)" style="fill:#010101;font-family:'Asap-Regular';font-size:7px">0</text><text transform="translate(36.604 179.743)" style="fill:#010101;font-family:'Asap-Regular';font-size:7px">0</text><text transform="translate(13.318 7.97)" style="fill:#010101;font-family:'Asap-Regular';font-size:7px">45,000</text><text transform="translate(299.922 179.743)" style="fill:#010101;font-family:'Asap-Regular';font-size:7px">100</text><text transform="translate(222.802 179.743)" style="fill:#010101;font-family:'Asap-Regular';font-size:7px">70</text><text transform="translate(196.096 179.743)" style="fill:#010101;font-family:'Asap-Regular';font-size:7px">60</text><text transform="translate(169.389 179.743)" style="fill:#010101;font-family:'Asap-Regular';font-size:7px">50</text><text transform="translate(141.683 179.743)" style="fill:#010101;font-family:'Asap-Regular';font-size:7px">40</text><text transform="translate(114.977 179.743)" style="fill:#010101;font-family:'Asap-Regular';font-size:7px">30</text><text transform="translate(88.27 179.743)" style="fill:#010101;font-family:'Asap-Regular';font-size:7px">20</text><text transform="translate(61.565 179.743)" style="fill:#010101;font-family:'Asap-Regular';font-size:7px">10</text><text transform="translate(13.318 25.98)" style="fill:#010101;font-family:'Asap-Regular';font-size:7px">40,000</text><text transform="translate(13.318 43.992)" style="fill:#010101;font-family:'Asap-Regular';font-size:7px">35,000</text><text transform="translate(13.318 62.004)" style="fill:#010101;font-family:'Asap-Regular';font-size:7px">30,000</text><text transform="translate(13.318 80.015)" style="fill:#010101;font-family:'Asap-Regular';font-size:7px">25,000</text><text transform="translate(13.318 98.027)" style="fill:#010101;font-family:'Asap-Regular';font-size:7px">20,000</text><text transform="translate(13.318 116.038)" style="fill:#010101;font-family:'Asap-Regular';font-size:7px">15,000</text><text transform="translate(13.318 134.05)" style="fill:#010101;font-family:'Asap-Regular';font-size:7px">10,000</text><text transform="translate(17.063 152.061)" style="fill:#010101;font-family:'Asap-Regular';font-size:7px">5,000</text><path style="fill:none;stroke:#a2b1db;stroke-width:.5" d="M47.15 6.28c.22 3.56.41 6.71.57 9.4 0 0 .55 9.34 2.02 27.55.75 9.23 1.3 15.3 3.47 23.14 1.12 4.06 2.17 8.23 4.63 12.95 1.26 2.41 3.07 5.84 6.36 9.37 5.13 5.51 10.89 8 14.75 9.64 4.63 1.98 8.16 2.73 14.47 4.06 3.29.69 8.86 1.75 19.81 2.97 2.84.32 11.64 1.26 26.23 2.1 6.07.35 11.62.59 20.18.87 19.31.64 34.09.86 35.22.87 21.85.31 61.98.9 113.9 1.57"/><path style="fill:none;stroke:#5c73b8;stroke-width:.5" d="M58.73 6.28c1.33 7.71 2.71 15.05 5.33 24.08 2.89 9.99 4.71 16.27 9.3 24.13 2.17 3.72 5.87 9.94 12.79 16.36 7.95 7.38 15.84 11.01 20.34 13.04 1.84.83 6.65 2.92 17.73 5.82 14.27 3.75 25.58 5.34 29.06 5.82 18.9 2.61 35.39 3.9 52.31 4.99 9.78.63 25.35 1.55 48.82 2.5 14.31.58 32.75 1.21 54.34 1.66"/><path style="fill:none;stroke:#273b72;stroke-width:.5" d="M72.69 5.28c.81 2.5 1.75 5.24 2.83 8.17 2.69 7.3 4.04 10.95 6.7 15.97 4.6 8.69 9.48 14.61 11.36 16.81 7.49 8.76 14.78 13.88 16.6 15.13 5.8 3.99 10.66 6.23 15.43 8.41 4.31 1.96 10.5 4.51 20.96 7.56 13.4 3.91 23.77 5.73 36.11 7.85 11.89 2.04 22.03 3.35 29.7 4.2 3.67.41 6.27.66 29.7 2.52 18.43 1.47 27.74 2.2 32.61 2.52 8.43.55 20.06 1.21 34.07 1.68"/><text transform="translate(250.509 179.743)" style="fill:#010101;font-family:'Asap-Regular';font-size:7px">80</text><text transform="translate(277.216 179.743)" style="fill:#010101;font-family:'Asap-Regular';font-size:7px">90</text><line style="fill:none;stroke:#6e6f71;stroke-width:.5;stroke-linecap:square" x1="227.57" y1="167.55" x2="227.57" y2="170.07"/><line style="fill:none;stroke:#6e6f71;stroke-width:.5;stroke-linecap:square" x1="281.7" y1="167.55" x2="281.7" y2="170.07"/><circle style="fill:#231f20" cx="121.06" cy="67.62" r="1.13"/><text transform="translate(123.494 66.555)" style="fill:#010101;font-family:'Asap-Regular';font-size:6px">E</text><line style="fill:none;stroke:#020303;stroke-width:.5" x1="308.76" y1="117.74" x2="38.13" y2="117.74"/></svg>