<svg version="1.1" xmlns="http://www.w3.org/2000/svg" x="0" y="0" viewBox="0 0 311.81 205.9" style="enable-background:new 0 0 311.81 205.9" xml:space="preserve"><line style="fill:none;stroke:#6d6e70;stroke-width:.5;stroke-linecap:square" x1="81.86" y1="161.71" x2="81.86" y2="164.23"/><line style="fill:none;stroke:#6d6e70;stroke-width:.5;stroke-linecap:square" x1="50.13" y1="123.02" x2="47.6" y2="123.02"/><line style="fill:none;stroke:#6d6e70;stroke-width:.5;stroke-linecap:square" x1="50.13" y1="103.68" x2="47.6" y2="103.68"/><line style="fill:none;stroke:#6d6e70;stroke-width:.5;stroke-linecap:square" x1="50.13" y1="26.32" x2="47.6" y2="26.32"/><line style="fill:none;stroke:#6d6e70;stroke-width:.5;stroke-linecap:square" x1="50.13" y1="45.66" x2="47.6" y2="45.66"/><line style="fill:none;stroke:#6d6e70;stroke-width:.5;stroke-linecap:square" x1="50.13" y1="65" x2="47.6" y2="65"/><line style="fill:none;stroke:#6d6e70;stroke-width:.5;stroke-linecap:square" x1="50.13" y1="84.34" x2="47.6" y2="84.34"/><line style="fill:none;stroke:#6d6e70;stroke-width:.5;stroke-linecap:square" x1="47.6" y1="6.98" x2="50.13" y2="6.98"/><line style="fill:none;stroke:#ed1f24;stroke-width:.5" x1="50.1" y1="7.21" x2="303.99" y2="132.41"/><line style="fill:none;stroke:#b9519e;stroke-width:.5" x1="303.99" y1="107.43" x2="50.13" y2="107.43"/><line style="fill:none;stroke:#6d6e70;stroke-width:.5;stroke-linecap:square" x1="50.13" y1="142.37" x2="47.6" y2="142.37"/><line style="fill:none;stroke:#6d6e70;stroke-width:.5;stroke-linecap:square" x1="303.99" y1="161.71" x2="303.99" y2="164.23"/><line style="fill:none;stroke:#6d6e70;stroke-width:.5;stroke-linecap:square" x1="208.79" y1="161.71" x2="208.79" y2="164.23"/><line style="fill:none;stroke:#6d6e70;stroke-width:.5;stroke-linecap:square" x1="240.52" y1="161.71" x2="240.52" y2="164.23"/><line style="fill:none;stroke:#6d6e70;stroke-width:.5;stroke-linecap:square" x1="177.06" y1="161.71" x2="177.06" y2="164.23"/><line style="fill:none;stroke:#6d6e70;stroke-width:.5;stroke-linecap:square" x1="145.33" y1="161.71" x2="145.33" y2="164.23"/><line style="fill:none;stroke:#6d6e70;stroke-width:.5;stroke-linecap:square" x1="113.59" y1="161.71" x2="113.59" y2="164.23"/><text transform="translate(134.042 200.387)"><tspan x="0" y="0" style="font-family:'Asap-Medium';font-size:8px">Quantity of cars, </tspan><tspan x="59.53" y="0" style="font-family:'Asap-MediumItalic';font-size:8px">Q</tspan></text><text transform="rotate(-90 59.502 48.16)"><tspan x="0" y="0" style="font-family:'Asap-Medium';font-size:8px">Price, </tspan><tspan x="21.3" y="0" style="font-family:'Asap-MediumItalic';font-size:8px">P</tspan></text><text transform="translate(41.683 163.92)" style="font-family:'Asap-Regular';font-size:7px">0</text><text transform="translate(51.604 171.552)" style="font-family:'Asap-Regular';font-size:7px">0</text><text transform="translate(268.917 171.552)" style="font-family:'Asap-Regular';font-size:7px">70</text><text transform="translate(236.337 171.552)" style="font-family:'Asap-Regular';font-size:7px">60</text><text transform="translate(204.756 171.552)" style="font-family:'Asap-Regular';font-size:7px">50</text><text transform="translate(173.177 171.552)" style="font-family:'Asap-Regular';font-size:7px">40</text><text transform="translate(141.598 171.552)" style="font-family:'Asap-Regular';font-size:7px">30</text><text transform="translate(110.018 171.552)" style="font-family:'Asap-Regular';font-size:7px">20</text><text transform="translate(78.438 171.552)" style="font-family:'Asap-Regular';font-size:7px">10</text><text transform="translate(25.318 8.678)" style="font-family:'Asap-Regular';font-size:7px">40,000</text><text transform="translate(25.318 28.083)" style="font-family:'Asap-Regular';font-size:7px">35,000</text><text transform="translate(25.318 47.488)" style="font-family:'Asap-Regular';font-size:7px">30,000</text><text transform="translate(25.318 66.893)" style="font-family:'Asap-Regular';font-size:7px">25,000</text><text transform="translate(25.318 86.298)" style="font-family:'Asap-Regular';font-size:7px">20,000</text><text transform="translate(25.318 105.704)" style="font-family:'Asap-Regular';font-size:7px">15,000</text><text transform="translate(25.318 125.11)" style="font-family:'Asap-Regular';font-size:7px">10,000</text><text transform="translate(29.063 144.514)" style="font-family:'Asap-Regular';font-size:7px">5,000</text><text transform="translate(299.497 171.552)" style="font-family:'Asap-Regular';font-size:7px">80</text><line style="fill:none;stroke:#6d6e70;stroke-width:.5;stroke-linecap:square" x1="272.25" y1="161.71" x2="272.25" y2="164.23"/><text transform="translate(180.394 67.705)" style="font-family:'Asap-Regular';font-size:6px">C</text><circle style="fill:#231f20" cx="177.06" cy="69.74" r="1.13"/><line style="fill:none;stroke:#6d6e71;stroke-width:.5;stroke-miterlimit:10" x1="50.13" y1="161.71" x2="304.38" y2="161.71"/><line style="fill:none;stroke:#6d6e71;stroke-width:.5;stroke-miterlimit:10" x1="50.13" y1="200.39" x2="50.13" y2="6.98"/><line style="fill:none;stroke:#6d6e70;stroke-width:.5;stroke-linecap:square" x1="50.13" y1="161.71" x2="47.6" y2="161.71"/><text transform="translate(167.988 135.57)" style="font-family:'Asap-Regular';font-size:6px">C′</text><text transform="translate(21.398 202.731)" style="font-family:'Asap-Regular';font-size:7px">−10,000</text><text transform="translate(25.143 183.326)" style="font-family:'Asap-Regular';font-size:7px">−5,000</text><line style="fill:none;stroke:#6d6e70;stroke-width:.5;stroke-linecap:square" x1="50.13" y1="200.39" x2="47.6" y2="200.39"/><line style="fill:none;stroke:#6d6e70;stroke-width:.5;stroke-linecap:square" x1="50" y1="181.05" x2="47.48" y2="181.05"/><circle style="fill:#231f20" cx="177.06" cy="131.33" r="1.13"/><circle style="fill:#231f20" cx="81.86" cy="38.23" r="1.13"/><circle style="fill:#231f20" cx="81.86" cy="23.14" r="1.13"/><text transform="translate(73.736 43.546)" style="font-family:'Asap-Regular';font-size:6px">A′</text><text transform="translate(86.32 22.007)" style="font-family:'Asap-Regular';font-size:6px">A</text><circle style="fill:#231f20" cx="113.59" cy="68.7" r="1.13"/><circle style="fill:#231f20" cx="113.59" cy="38.23" r="1.13"/><text transform="translate(105.188 74.064)" style="font-family:'Asap-Regular';font-size:6px">B′</text><text transform="translate(114.727 35.02)" style="font-family:'Asap-Regular';font-size:6px">B</text><circle style="fill:#231f20" cx="224.66" cy="177.86" r="1.13"/><text transform="translate(217.24 184.212)" style="font-family:'Asap-Regular';font-size:6px">D′</text><text transform="translate(227.885 91.283)" style="font-family:'Asap-Regular';font-size:6px">D</text><circle style="fill:#231f20" cx="224.66" cy="93.44" r="1.13"/></svg>