<svg version="1.1" xmlns="http://www.w3.org/2000/svg" xmlns:xlink="http://www.w3.org/1999/xlink" x="0" y="0" viewBox="0 0 311.81 243.43" style="enable-background:new 0 0 311.81 243.43" xml:space="preserve"><g style="display:none"><g style="display:inline"><defs><polygon id="prefix__a" points="-317.2 2964.36 12.8 2964.36 12.8 2721.24 -317.2 2721.24 -317.2 2964.36"/></defs><clipPath id="prefix__b"><use xlink:href="#prefix__a" style="overflow:visible"/></clipPath><polyline points="-317.08 -790.92 -306.76 554.64 -296.56 1285.68 -286.24 1726.32 -275.92 2012.4 -265.6 2208.48 -255.4 2348.76 -245.08 2452.56 -234.76 2531.52 -224.44 2592.96 -214.24 2641.68 -203.92 2681.04 -193.6 2713.2 -183.4 2739.96 -173.08 2762.28 -162.76 2781.12 -152.44 2797.32 -142.24 2811.24 -131.92 2823.24 -121.6 2833.8 -111.28 2843.04 -101.08 2851.2 -90.76 2858.4 -80.44 2864.76 -70.24 2870.52 -59.92 2875.68 -49.6 2880.36 -39.28 2884.56 -29.08 2888.4 -18.76 2891.88 -8.44 2895.12 1.88 2898 12.08 2900.64"/></g><g style="display:inline"><defs><polygon id="prefix__c" points="-317.2 2964.36 12.8 2964.36 12.8 2721.24 -317.2 2721.24 -317.2 2964.36"/></defs><clipPath id="prefix__d"><use xlink:href="#prefix__c" style="overflow:visible"/></clipPath><polyline points="-317.08 -790.92 -306.76 554.64 -296.56 1285.68 -286.24 1726.32 -275.92 2012.4 -265.6 2208.48 -255.4 2348.76 -245.08 2452.56 -234.76 2531.52 -224.44 2592.96 -214.24 2641.68 -203.92 2681.04 -193.6 2713.2 -183.4 2739.96 -173.08 2762.28 -162.76 2781.12 -152.44 2797.32 -142.24 2811.24 -131.92 2823.24 -121.6 2833.8 -111.28 2843.04 -101.08 2851.2 -90.76 2858.4 -80.44 2864.76 -70.24 2870.52 -59.92 2875.68 -49.6 2880.36 -39.28 2884.56 -29.08 2888.4 -18.76 2891.88 -8.44 2895.12 1.88 2898 12.08 2900.64"/></g><g style="display:inline"><defs><polygon id="prefix__e" points="-317.2 2964.36 12.8 2964.36 12.8 2721.24 -317.2 2721.24 -317.2 2964.36"/></defs><clipPath id="prefix__f"><use xlink:href="#prefix__e" style="overflow:visible"/></clipPath><polyline points="-317.08 -790.92 -306.76 554.64 -296.56 1285.68 -286.24 1726.32 -275.92 2012.4 -265.6 2208.48 -255.4 2348.76 -245.08 2452.56 -234.76 2531.52 -224.44 2592.96 -214.24 2641.68 -203.92 2681.04 -193.6 2713.2 -183.4 2739.96 -173.08 2762.28 -162.76 2781.12 -152.44 2797.32 -142.24 2811.24 -131.92 2823.24 -121.6 2833.8 -111.28 2843.04 -101.08 2851.2 -90.76 2858.4 -80.44 2864.76 -70.24 2870.52 -59.92 2875.68 -49.6 2880.36 -39.28 2884.56 -29.08 2888.4 -18.76 2891.88 -8.44 2895.12 1.88 2898 12.08 2900.64"/></g></g><polyline style="fill:#fee6da" points="300 214 30.5 54 30.5 214"/><polyline style="fill:none;stroke:#fee6da;stroke-width:.25;stroke-miterlimit:10" points="300 214 30.5 54 30.5 214"/><path style="fill:#fee6da" d="M300 214H30.5"/><path style="fill:none;stroke:#fee6da;stroke-width:.25;stroke-miterlimit:10" d="M300 214H30.5"/><line style="fill:none;stroke:#6d6e71;stroke-width:.5;stroke-linecap:square" x1="29.77" y1="214.53" x2="301.77" y2="214.53"/><line style="fill:none;stroke:#6d6e71;stroke-width:.5;stroke-linecap:square;stroke-linejoin:round" x1="29.77" y1="11.92" x2="29.77" y2="213.92"/><line style="fill:none;stroke:#6d6e71;stroke-width:.5;stroke-linecap:square;stroke-linejoin:round" x1="29.61" y1="78.96" x2="27.49" y2="78.96"/><text transform="translate(21.435 216.68)" style="font-family:'Asap-Regular';font-size:7px">0</text><text transform="translate(13.38 182.356)" style="font-family:'Asap-Regular';font-size:7px">100</text><text transform="translate(13.38 148.942)" style="font-family:'Asap-Regular';font-size:7px">200</text><text transform="translate(13.38 114.855)" style="font-family:'Asap-Regular';font-size:7px">300</text><text transform="translate(13.38 81.246)" style="font-family:'Asap-Regular';font-size:7px">400</text><text transform="translate(13.38 47.246)" style="font-family:'Asap-Regular';font-size:7px">500</text><text transform="translate(13.38 13.602)" style="font-family:'Asap-Regular';font-size:7px">600</text><text transform="matrix(0 -.9726 1 0 8.1 172.762)" style="font-family:'Asap-Medium';font-size:8px">Consumption spending (€)</text><text transform="translate(27.897 223.864)" style="font-family:'Asap-Regular';font-size:7px">8</text><text transform="translate(44.992 223.856)" style="font-family:'Asap-Regular';font-size:7px">9</text><text transform="translate(59.992 223.864)" style="font-family:'Asap-Regular';font-size:7px">10</text><text transform="translate(77.048 223.836)" style="font-family:'Asap-Regular';font-size:7px">11</text><text transform="translate(94.056 223.863)" style="font-family:'Asap-Regular';font-size:7px">12</text><text transform="translate(111.12 223.864)" style="font-family:'Asap-Regular';font-size:7px">13</text><text transform="translate(128.072 223.835)" style="font-family:'Asap-Regular';font-size:7px">14</text><text transform="translate(145.08 223.835)" style="font-family:'Asap-Regular';font-size:7px">15</text><text transform="translate(162.088 223.835)" style="font-family:'Asap-Regular';font-size:7px">16</text><text transform="translate(179.263 223.836)" style="font-family:'Asap-Regular';font-size:7px">17</text><text transform="translate(195.834 223.864)" style="font-family:'Asap-Regular';font-size:7px">18</text><text transform="translate(213.112 223.856)" style="font-family:'Asap-Regular';font-size:7px">19</text><text transform="translate(230.12 223.864)" style="font-family:'Asap-Regular';font-size:7px">20</text><text transform="translate(247.127 223.864)" style="font-family:'Asap-Regular';font-size:7px">21</text><text transform="translate(264.263 223.864)" style="font-family:'Asap-Regular';font-size:7px">22</text><text transform="translate(281.143 223.864)" style="font-family:'Asap-Regular';font-size:7px">23</text><text transform="translate(297.263 223.864)" style="font-family:'Asap-Regular';font-size:7px">24</text><line style="fill:none;stroke:#6d6e71;stroke-width:.5;stroke-linecap:square" x1="284.89" y1="214.92" x2="284.89" y2="216.95"/><line style="fill:none;stroke:#6d6e71;stroke-width:.5;stroke-linecap:square" x1="267.88" y1="214.82" x2="267.88" y2="216.95"/><line style="fill:none;stroke:#6d6e71;stroke-width:.5;stroke-linecap:square" x1="250.87" y1="214.77" x2="250.87" y2="216.9"/><line style="fill:none;stroke:#6d6e71;stroke-width:.5;stroke-linecap:square" x1="199.85" y1="214.77" x2="199.85" y2="216.9"/><line style="fill:none;stroke:#6d6e71;stroke-width:.5;stroke-linecap:square" x1="301.9" y1="214.77" x2="301.9" y2="216.9"/><line style="fill:none;stroke:#6d6e71;stroke-width:.5;stroke-linecap:square" x1="182.84" y1="214.77" x2="182.84" y2="216.9"/><line style="fill:none;stroke:#6d6e71;stroke-width:.5;stroke-linecap:square" x1="165.27" y1="214.77" x2="165.27" y2="216.9"/><line style="fill:none;stroke:#6d6e71;stroke-width:.5;stroke-linecap:square" x1="148.82" y1="214.63" x2="148.82" y2="216.75"/><line style="fill:none;stroke:#6d6e71;stroke-width:.5;stroke-linecap:square" x1="131.82" y1="214.63" x2="131.82" y2="216.75"/><line style="fill:none;stroke:#6d6e71;stroke-width:.5;stroke-linecap:square" x1="114.81" y1="214.63" x2="114.81" y2="216.75"/><line style="fill:none;stroke:#6d6e71;stroke-width:.5;stroke-linecap:square" x1="97.8" y1="214.63" x2="97.8" y2="216.75"/><line style="fill:none;stroke:#6d6e71;stroke-width:.5;stroke-linecap:square" x1="80.79" y1="214.63" x2="80.79" y2="216.75"/><line style="fill:none;stroke:#6d6e71;stroke-width:.5;stroke-linecap:square" x1="63.79" y1="214.63" x2="63.79" y2="216.75"/><line style="fill:none;stroke:#6d6e71;stroke-width:.5;stroke-linecap:square" x1="46.78" y1="214.63" x2="46.78" y2="216.75"/><text transform="translate(100.22 234.562)" style="font-family:'Asap-Medium';font-size:8px">Hours of free time per day</text><line style="fill:none;stroke:#6d6e71;stroke-width:.5;stroke-linecap:square;stroke-linejoin:round" x1="29.61" y1="146.46" x2="27.49" y2="146.46"/><line style="fill:none;stroke:#6d6e71;stroke-width:.5;stroke-linecap:square;stroke-linejoin:round" x1="29.61" y1="112.71" x2="27.49" y2="112.71"/><line style="fill:none;stroke:#6d6e71;stroke-width:.5;stroke-linecap:square;stroke-linejoin:round" x1="29.61" y1="180.21" x2="27.49" y2="180.21"/><line style="fill:none;stroke:#6d6e71;stroke-width:.5;stroke-linecap:square;stroke-linejoin:round" x1="29.61" y1="45.21" x2="27.49" y2="45.21"/><line style="fill:none;stroke:#6d6e71;stroke-width:.5;stroke-linecap:square" x1="233.86" y1="214.77" x2="233.86" y2="216.9"/><line style="fill:none;stroke:#6d6e71;stroke-width:.5;stroke-linecap:square" x1="216.86" y1="214.77" x2="216.86" y2="216.9"/><line style="fill:none;stroke:#6d6e71;stroke-width:.5;stroke-linecap:square" x1="29.77" y1="214.47" x2="29.77" y2="216.6"/><line style="fill:none;stroke:#6d6e71;stroke-width:.5;stroke-linecap:square" x1="27.49" y1="11.46" x2="29.61" y2="11.46"/><line style="fill:none;stroke:#6d6e71;stroke-width:.5;stroke-linecap:square" x1="27.49" y1="214.53" x2="29.61" y2="214.53"/><circle style="fill:#000101" cx="232.83" cy="189.17" r="1.13"/><circle style="fill:#000101" cx="89.58" cy="68.15" r="1.13"/><text transform="matrix(.9391 0 0 1 225.68 196.508)" style="font-family:'Asap-Regular';font-size:7px">D</text><text transform="matrix(.9391 0 0 1 93.034 65.733)" style="font-family:'Asap-Regular';font-size:7px">C</text><text transform="matrix(.9391 0 0 1 70.103 169.598)" style="font-family:'Asap-Regular';font-size:7px">Feasible set</text><line style="fill:none;stroke:#ec2426;stroke-width:.5;stroke-linecap:square" x1="30" y1="53.5" x2="301.5" y2="214.5"/></svg>