<svg version="1.1" xmlns="http://www.w3.org/2000/svg" xmlns:xlink="http://www.w3.org/1999/xlink" x="0" y="0" viewBox="0 0 311.81 203.75" style="enable-background:new 0 0 311.81 203.75" xml:space="preserve"><g style="display:none"><g style="display:inline"><defs><polygon id="prefix__a" points="-40.63 712.47 401.81 712.47 401.81 382.35 -40.63 382.35 -40.63 712.47"/></defs><clipPath id="prefix__b"><use xlink:href="#prefix__a" style="overflow:visible"/></clipPath><path d="M-40.63 8.43l6.36 190.2 6.24 53.4 6.36 36.6 6.36 28.44 6.24 23.52 6.36 20.16 6.24 17.64 6.36 15.6 6.24 14.16 6.36 12.96 6.36 11.76 6.24 10.92 6.36 10.2 6.24 9.48 6.36 8.88 6.36 8.28 6.24 7.92 6.36 7.44 6.24 7.08 6.36 6.72 6.36 6.36 6.24 6 6.36 5.88 6.24 5.52 6.36 5.28 6.36 5.16 6.24 4.92 6.36 4.68 6.24 4.56 6.36 4.32 6.24 4.2 6.36 4.08m6.36 3.84l6.24 3.72 6.36 3.72 6.24 3.48 6.36 3.48 6.36 3.24 6.24 3.24 6.36 3 6.24 3 6.36 3 6.36 2.76 6.24 2.76 6.36 2.64 6.24 2.64 6.36 2.52 6.36 2.4 6.24 2.4 6.36 2.28 6.24 2.28 6.36 2.16 6.24 2.16 6.36 2.04 6.36 2.04 6.24 1.92 6.36 1.92 6.24 1.8 6.36 1.8 6.36 1.8 6.24 1.68 6.36 1.68 6.24 1.68 6.36 1.56 6.36 1.56 6.24 1.56 6.36 1.44 6.24 1.44 6.36 1.44 6.36 1.32"/><g><defs><polygon id="prefix__c" points="-40.63 712.47 401.81 712.47 401.81 382.35 -40.63 382.35 -40.63 712.47"/></defs><clipPath id="prefix__d"><use xlink:href="#prefix__c" style="overflow:visible"/></clipPath><polyline points="-40.63 -147.57 -34.27 68.55 -28.03 129.75 -21.67 172.11 -15.31 205.11 -9.07 232.47 -2.71 255.99 3.53 276.51 9.89 294.99 16.13 311.67 22.49 326.91 28.85 340.95 35.09 353.91 41.45 366.03 47.69 377.31 54.05 387.87 60.41 397.95 66.65 407.43 73.01 416.31 79.25 424.95 85.61 432.99 91.97 440.79 98.21 448.11 104.57 455.31 110.81 462.03 117.17 468.51 123.53 474.87 129.77 480.87 136.13 486.63 142.37 492.27 148.73 497.67 154.97 502.83 161.33 507.87 167.69 512.79 173.93 517.47 180.29 522.03 186.53 526.47 192.89 530.79 199.25 534.99 205.49 539.07 211.85 542.91 218.09 546.75 224.45 550.47 230.81 554.07 237.05 557.55 243.41 561.03 249.65 564.27 256.01 567.51 262.37 570.75 268.61 573.75 274.97 576.75 281.21 579.75 287.57 582.63 293.81 585.39 300.17 588.03 306.53 590.67 312.77 593.31 319.13 595.83 325.37 598.35 331.73 600.75 338.09 603.03 344.33 605.43 350.69 607.59 356.93 609.87 363.29 612.03 369.65 614.07 375.89 616.11 382.25 618.15 388.49 620.19 394.85 622.11 401.21 624.03"/></g></g></g><polyline style="fill:#fee6da" points="292.06 175.13 54.56 52.11 54.56 175.13"/><polyline style="fill:none;stroke:#fee6da;stroke-width:.25;stroke-miterlimit:10" points="292.06 175.13 54.56 52.11 54.56 175.13"/><path style="fill:#fee6da" d="M292.06 175.13H54.56"/><path style="fill:none;stroke:#fee6da;stroke-width:.25;stroke-miterlimit:10" d="M292.06 175.13H54.56"/><line style="fill:none;stroke:#6d6e71;stroke-width:.5;stroke-linecap:square" x1="54.97" y1="175.22" x2="292.97" y2="175.22"/><text transform="translate(42.944 177.489)" style="font-family:'Asap-Regular';font-size:7px">0</text><line style="fill:none;stroke:#6d6e71;stroke-width:.5;stroke-linecap:square;stroke-linejoin:round" x1="54.84" y1="16.47" x2="54.84" y2="175.22"/><text transform="translate(33.01 157.51)" style="font-family:'Asap-Regular';font-size:7px">1,000</text><text transform="translate(33.01 137.668)" style="font-family:'Asap-Regular';font-size:7px">2,000</text><text transform="translate(33.01 117.825)" style="font-family:'Asap-Regular';font-size:7px">3,000</text><text transform="translate(33.01 97.983)" style="font-family:'Asap-Regular';font-size:7px">4,000</text><text transform="translate(33.01 78.14)" style="font-family:'Asap-Regular';font-size:7px">5,000</text><text transform="translate(33.01 58.298)" style="font-family:'Asap-Regular';font-size:7px">6,000</text><text transform="matrix(0 -.9726 1 0 16.232 123.875)" style="font-family:'Asap-Medium';font-size:8px">Consumption ($)</text><text transform="translate(52.984 187.547)" style="font-family:'Asap-Regular';font-size:7px">0</text><text transform="translate(69.991 187.54)" style="font-family:'Asap-Regular';font-size:7px">5</text><text transform="translate(85.127 187.547)" style="font-family:'Asap-Regular';font-size:7px">10</text><text transform="translate(102.135 187.519)" style="font-family:'Asap-Regular';font-size:7px">15</text><text transform="translate(119.143 187.547)" style="font-family:'Asap-Regular';font-size:7px">20</text><text transform="translate(136.151 187.547)" style="font-family:'Asap-Regular';font-size:7px">25</text><text transform="translate(153.158 187.518)" style="font-family:'Asap-Regular';font-size:7px">30</text><text transform="translate(170.167 187.518)" style="font-family:'Asap-Regular';font-size:7px">35</text><text transform="translate(187.175 187.518)" style="font-family:'Asap-Regular';font-size:7px">40</text><text transform="translate(204.183 187.519)" style="font-family:'Asap-Regular';font-size:7px">45</text><text transform="translate(221.19 187.547)" style="font-family:'Asap-Regular';font-size:7px">50</text><text transform="translate(238.198 187.539)" style="font-family:'Asap-Regular';font-size:7px">55</text><text transform="translate(255.206 187.547)" style="font-family:'Asap-Regular';font-size:7px">60</text><text transform="translate(272.214 187.547)" style="font-family:'Asap-Regular';font-size:7px">65</text><text transform="translate(289.222 187.547)" style="font-family:'Asap-Regular';font-size:7px">70</text><text transform="translate(139.862 200.728)" style="font-family:'Asap-Medium';font-size:8px">Days of free time</text><text transform="translate(33.01 38.455)" style="font-family:'Asap-Regular';font-size:7px">7,000</text><line style="fill:none;stroke:#6d6e71;stroke-width:.5;stroke-linecap:square" x1="52.09" y1="175.34" x2="54.22" y2="175.34"/><line style="fill:none;stroke:#6d6e71;stroke-width:.5;stroke-linecap:square" x1="52.09" y1="155.37" x2="54.22" y2="155.37"/><line style="fill:none;stroke:#6d6e71;stroke-width:.5;stroke-linecap:square" x1="52.09" y1="135.52" x2="54.22" y2="135.52"/><line style="fill:none;stroke:#6d6e71;stroke-width:.5;stroke-linecap:square" x1="52.09" y1="115.68" x2="54.22" y2="115.68"/><line style="fill:none;stroke:#6d6e71;stroke-width:.5;stroke-linecap:square" x1="52.09" y1="95.84" x2="54.22" y2="95.84"/><line style="fill:none;stroke:#6d6e71;stroke-width:.5;stroke-linecap:square" x1="52.09" y1="76" x2="54.22" y2="76"/><line style="fill:none;stroke:#6d6e71;stroke-width:.5;stroke-linecap:square" x1="52.09" y1="56.15" x2="54.22" y2="56.15"/><line style="fill:none;stroke:#6d6e71;stroke-width:.5;stroke-linecap:square" x1="52.09" y1="36.31" x2="54.22" y2="36.31"/><line style="fill:none;stroke:#6d6e71;stroke-width:.5;stroke-linecap:square" x1="54.97" y1="175.31" x2="54.97" y2="177.44"/><line style="fill:none;stroke:#6d6e71;stroke-width:.5;stroke-linecap:square" x1="71.86" y1="175.31" x2="71.86" y2="177.44"/><line style="fill:none;stroke:#6d6e71;stroke-width:.5;stroke-linecap:square" x1="88.87" y1="175.31" x2="88.87" y2="177.44"/><line style="fill:none;stroke:#6d6e71;stroke-width:.5;stroke-linecap:square" x1="105.88" y1="175.31" x2="105.88" y2="177.44"/><line style="fill:none;stroke:#6d6e71;stroke-width:.5;stroke-linecap:square" x1="122.89" y1="175.31" x2="122.89" y2="177.44"/><line style="fill:none;stroke:#6d6e71;stroke-width:.5;stroke-linecap:square" x1="139.9" y1="175.31" x2="139.9" y2="177.44"/><line style="fill:none;stroke:#6d6e71;stroke-width:.5;stroke-linecap:square" x1="156.9" y1="177.44" x2="156.9" y2="175.31"/><line style="fill:none;stroke:#6d6e71;stroke-width:.5;stroke-linecap:square" x1="173.91" y1="175.31" x2="173.91" y2="177.44"/><line style="fill:none;stroke:#6d6e71;stroke-width:.5;stroke-linecap:square" x1="190.92" y1="175.31" x2="190.92" y2="177.44"/><line style="fill:none;stroke:#6d6e71;stroke-width:.5;stroke-linecap:square" x1="207.93" y1="175.31" x2="207.93" y2="177.44"/><line style="fill:none;stroke:#6d6e71;stroke-width:.5;stroke-linecap:square" x1="224.94" y1="175.31" x2="224.94" y2="177.44"/><line style="fill:none;stroke:#6d6e71;stroke-width:.5;stroke-linecap:square" x1="241.94" y1="175.31" x2="241.94" y2="177.44"/><line style="fill:none;stroke:#6d6e71;stroke-width:.5;stroke-linecap:square" x1="258.95" y1="175.31" x2="258.95" y2="177.44"/><line style="fill:none;stroke:#6d6e71;stroke-width:.5;stroke-linecap:square" x1="275.96" y1="175.31" x2="275.96" y2="177.44"/><line style="fill:none;stroke:#6d6e71;stroke-width:.5;stroke-linecap:square" x1="292.97" y1="175.31" x2="292.97" y2="177.44"/><line style="fill:none;stroke:#6d6e71;stroke-width:.5;stroke-linecap:square" x1="52.15" y1="16.47" x2="54.28" y2="16.47"/><text transform="translate(33.01 19.483)" style="font-family:'Asap-Regular';font-size:7px">8,000</text><line style="fill:none;stroke:#ea2728;stroke-width:.5;stroke-linejoin:round" x1="82.12" y1="18.32" x2="292.97" y2="175.22"/><line style="fill:none;stroke:#ea2728;stroke-width:.5;stroke-linejoin:round" x1="54.97" y1="52.23" x2="292.97" y2="175.22"/><path style="fill:none;stroke:#5b73b8;stroke-width:.5;stroke-linejoin:round" d="M78.54 17.68c31.23 72.31 109.27 115.05 215.42 133.95M102.41 16.47C136.5 73.2 216.96 118.66 292.96 134.75"/><circle style="fill:#000101" cx="155.87" cy="73.2" r="1.13"/><text transform="translate(160.376 70.135)" style="font-family:'Asap-Regular';font-size:7px">D</text><text transform="translate(158.246 120.234)" style="font-family:'Asap-Regular';font-size:7px">A</text><text transform="translate(74.666 10.164)" style="font-family:'Asap-Regular';font-size:7px">IC</text><text transform="matrix(.583 0 0 .583 80.98 12.495)" style="font-family:'Asap-Regular';font-size:7px">2</text><text transform="translate(97.56 10.164)" style="font-family:'Asap-Regular';font-size:7px">IC</text><text transform="matrix(.583 0 0 .583 103.873 12.495)" style="font-family:'Asap-Medium';font-size:7px">4</text><line style="fill:none" x1="57.73" y1="26.42" x2="296.73" y2="150.84"/><line style="fill:none;stroke:#e9292a;stroke-width:.5;stroke-linejoin:round;stroke-dasharray:1.417" x1="54.69" y1="25.51" x2="291.92" y2="149"/><circle style="fill:#000101" cx="199.79" cy="101.37" r="1.13"/><text transform="translate(204.308 95.06)" style="font-family:'Asap-Regular';font-size:7px">C</text><line style="fill:none;stroke:#009147;stroke-width:.5;stroke-linecap:square;stroke-linejoin:round" x1="199.05" y1="96.04" x2="165.77" y2="96.04"/><polygon style="fill:#009147" points="197.39 93.99 197.05 94.36 198.86 96.04 197.05 97.71 197.39 98.08 199.59 96.04"/><text transform="matrix(1.0286 0 0 1 170.04 103.13)"><tspan x="0" y="0" style="font-family:'Asap-Regular';font-size:6px">Income</tspan><tspan x="0" y="7.2" style="font-family:'Asap-Regular';font-size:6px">effect</tspan></text><g><line style="fill:none;stroke:#009147;stroke-width:.5;stroke-linecap:square;stroke-linejoin:round" x1="156.41" y1="50.49" x2="199.79" y2="50.49"/><polygon style="fill:#009147" points="158.07 52.53 158.41 52.17 156.61 50.49 158.41 48.81 158.07 48.44 155.87 50.49"/></g><text transform="translate(168.904 58.185)"><tspan x="0" y="0" style="font-family:'Asap-Regular';font-size:6px">Substitution </tspan><tspan x="0" y="7.2" style="font-family:'Asap-Regular';font-size:6px">effect</tspan></text><circle style="fill:#000101" cx="166.91" cy="110.17" r="1.13"/></svg>