<svg xmlns="http://www.w3.org/2000/svg" class="prefix__svglite" viewBox="0 0 810 435"><rect width="100%" height="100%" style="stroke:none;fill:#fff;stroke-linecap:round;stroke-linejoin:round;stroke-miterlimit:10"/><defs><clipPath id="prefix__a"><rect x="0" y="0" width="810" height="435" style="fill:none;stroke:#000;stroke-linecap:round;stroke-linejoin:round;stroke-miterlimit:10"/></clipPath></defs><g clip-path="url(#prefix__a)"><rect x="0" y="0" width="810" height="435" style="stroke-width:1.07;stroke:#fff;fill:#fff;stroke-linecap:round;stroke-linejoin:round;stroke-miterlimit:10"/><rect x="125.82" y="14.17" width="655.83" height="339.92" style="stroke-width:1.07;stroke:none;fill:#fff;stroke-linecap:round;stroke-linejoin:round;stroke-miterlimit:10"/><polyline points="125.82 354.09 781.65 354.09" style="stroke-width:1.07;stroke:#c6c4c4;stroke-linecap:butt;fill:none;stroke-linejoin:round;stroke-miterlimit:10"/><polyline points="125.82 320.1 781.65 320.1" style="stroke-width:1.07;stroke:#c6c4c4;stroke-linecap:butt;fill:none;stroke-linejoin:round;stroke-miterlimit:10"/><polyline points="125.82 286.11 781.65 286.11" style="stroke-width:1.07;stroke:#c6c4c4;stroke-linecap:butt;fill:none;stroke-linejoin:round;stroke-miterlimit:10"/><polyline points="125.82 252.12 781.65 252.12" style="stroke-width:1.07;stroke:#c6c4c4;stroke-linecap:butt;fill:none;stroke-linejoin:round;stroke-miterlimit:10"/><polyline points="125.82 218.13 781.65 218.13" style="stroke-width:1.07;stroke:#c6c4c4;stroke-linecap:butt;fill:none;stroke-linejoin:round;stroke-miterlimit:10"/><polyline points="125.82 184.13 781.65 184.13" style="stroke-width:1.07;stroke:#c6c4c4;stroke-linecap:butt;fill:none;stroke-linejoin:round;stroke-miterlimit:10"/><polyline points="125.82 150.14 781.65 150.14" style="stroke-width:1.07;stroke:#c6c4c4;stroke-linecap:butt;fill:none;stroke-linejoin:round;stroke-miterlimit:10"/><polyline points="125.82 116.15 781.65 116.15" style="stroke-width:1.07;stroke:#c6c4c4;stroke-linecap:butt;fill:none;stroke-linejoin:round;stroke-miterlimit:10"/><polyline points="125.82 82.16 781.65 82.16" style="stroke-width:1.07;stroke:#c6c4c4;stroke-linecap:butt;fill:none;stroke-linejoin:round;stroke-miterlimit:10"/><polyline points="125.82 48.17 781.65 48.17" style="stroke-width:1.07;stroke:#c6c4c4;stroke-linecap:butt;fill:none;stroke-linejoin:round;stroke-miterlimit:10"/><polyline points="125.82 14.17 781.65 14.17" style="stroke-width:1.07;stroke:#c6c4c4;stroke-linecap:butt;fill:none;stroke-linejoin:round;stroke-miterlimit:10"/><circle cx="473.41" cy="165.01" r="2.73" style="stroke-width:1.2;stroke:#122a73;fill:#122a73;stroke-linecap:round;stroke-linejoin:round;stroke-miterlimit:10"/><circle cx="679.63" cy="164.81" r="2.73" style="stroke-width:1.2;stroke:#122a73;fill:#122a73;stroke-linecap:round;stroke-linejoin:round;stroke-miterlimit:10"/><circle cx="620.61" cy="173.63" r="2.73" style="stroke-width:1.2;stroke:#122a73;fill:#122a73;stroke-linecap:round;stroke-linejoin:round;stroke-miterlimit:10"/><circle cx="501.83" cy="195.79" r="2.73" style="stroke-width:1.2;stroke:#122a73;fill:#122a73;stroke-linecap:round;stroke-linejoin:round;stroke-miterlimit:10"/><circle cx="369.94" cy="303.29" r="2.73" style="stroke-width:1.2;stroke:#122a73;fill:#122a73;stroke-linecap:round;stroke-linejoin:round;stroke-miterlimit:10"/><circle cx="457.38" cy="212.69" r="2.73" style="stroke-width:1.2;stroke:#122a73;fill:#122a73;stroke-linecap:round;stroke-linejoin:round;stroke-miterlimit:10"/><circle cx="718.99" cy="149.31" r="2.73" style="stroke-width:1.2;stroke:#122a73;fill:#122a73;stroke-linecap:round;stroke-linejoin:round;stroke-miterlimit:10"/><circle cx="494.54" cy="270.17" r="2.73" style="stroke-width:1.2;stroke:#122a73;fill:#122a73;stroke-linecap:round;stroke-linejoin:round;stroke-miterlimit:10"/><circle cx="584.17" cy="180.98" r="2.73" style="stroke-width:1.2;stroke:#122a73;fill:#122a73;stroke-linecap:round;stroke-linejoin:round;stroke-miterlimit:10"/><circle cx="678.18" cy="195.38" r="2.73" style="stroke-width:1.2;stroke:#122a73;fill:#122a73;stroke-linecap:round;stroke-linejoin:round;stroke-miterlimit:10"/><circle cx="729.19" cy="167.67" r="2.73" style="stroke-width:1.2;stroke:#122a73;fill:#122a73;stroke-linecap:round;stroke-linejoin:round;stroke-miterlimit:10"/><circle cx="440.62" cy="259.17" r="2.73" style="stroke-width:1.2;stroke:#122a73;fill:#122a73;stroke-linecap:round;stroke-linejoin:round;stroke-miterlimit:10"/><circle cx="490.17" cy="241.66" r="2.73" style="stroke-width:1.2;stroke:#122a73;fill:#122a73;stroke-linecap:round;stroke-linejoin:round;stroke-miterlimit:10"/><circle cx="654.13" cy="171.86" r="2.73" style="stroke-width:1.2;stroke:#122a73;fill:#122a73;stroke-linecap:round;stroke-linejoin:round;stroke-miterlimit:10"/><circle cx="427.5" cy="36.44" r="2.73" style="stroke-width:1.2;stroke:#122a73;fill:#122a73;stroke-linecap:round;stroke-linejoin:round;stroke-miterlimit:10"/><circle cx="400.54" cy="295.65" r="2.73" style="stroke-width:1.2;stroke:#122a73;fill:#122a73;stroke-linecap:round;stroke-linejoin:round;stroke-miterlimit:10"/><circle cx="563.77" cy="211.34" r="2.73" style="stroke-width:1.2;stroke:#122a73;fill:#122a73;stroke-linecap:round;stroke-linejoin:round;stroke-miterlimit:10"/><circle cx="535.35" cy="210.36" r="2.73" style="stroke-width:1.2;stroke:#122a73;fill:#122a73;stroke-linecap:round;stroke-linejoin:round;stroke-miterlimit:10"/><circle cx="309.45" cy="200.2" r="2.73" style="stroke-width:1.2;stroke:#122a73;fill:#122a73;stroke-linecap:round;stroke-linejoin:round;stroke-miterlimit:10"/><circle cx="152.05" cy="289.64" r="2.73" style="stroke-width:1.2;stroke:#122a73;fill:#122a73;stroke-linecap:round;stroke-linejoin:round;stroke-miterlimit:10"/><circle cx="680.36" cy="152.64" r="2.73" style="stroke-width:1.2;stroke:#122a73;fill:#122a73;stroke-linecap:round;stroke-linejoin:round;stroke-miterlimit:10"/><circle cx="432.6" cy="203.55" r="2.73" style="stroke-width:1.2;stroke:#122a73;fill:#122a73;stroke-linecap:round;stroke-linejoin:round;stroke-miterlimit:10"/><circle cx="702.22" cy="141.13" r="2.73" style="stroke-width:1.2;stroke:#122a73;fill:#122a73;stroke-linecap:round;stroke-linejoin:round;stroke-miterlimit:10"/><circle cx="412.93" cy="238.93" r="2.73" style="stroke-width:1.2;stroke:#122a73;fill:#122a73;stroke-linecap:round;stroke-linejoin:round;stroke-miterlimit:10"/><circle cx="524.42" cy="237.92" r="2.73" style="stroke-width:1.2;stroke:#122a73;fill:#122a73;stroke-linecap:round;stroke-linejoin:round;stroke-miterlimit:10"/><circle cx="554.3" cy="247.54" r="2.73" style="stroke-width:1.2;stroke:#122a73;fill:#122a73;stroke-linecap:round;stroke-linejoin:round;stroke-miterlimit:10"/><circle cx="595.83" cy="219.08" r="2.73" style="stroke-width:1.2;stroke:#122a73;fill:#122a73;stroke-linecap:round;stroke-linejoin:round;stroke-miterlimit:10"/><circle cx="470.5" cy="225.73" r="2.73" style="stroke-width:1.2;stroke:#122a73;fill:#122a73;stroke-linecap:round;stroke-linejoin:round;stroke-miterlimit:10"/><circle cx="662.15" cy="167.01" r="2.73" style="stroke-width:1.2;stroke:#122a73;fill:#122a73;stroke-linecap:round;stroke-linejoin:round;stroke-miterlimit:10"/><circle cx="610.41" cy="110.41" r="2.73" style="stroke-width:1.2;stroke:#122a73;fill:#122a73;stroke-linecap:round;stroke-linejoin:round;stroke-miterlimit:10"/><circle cx="437.71" cy="260.46" r="2.73" style="stroke-width:1.2;stroke:#122a73;fill:#122a73;stroke-linecap:round;stroke-linejoin:round;stroke-miterlimit:10"/><circle cx="703.68" cy="195.77" r="2.73" style="stroke-width:1.2;stroke:#122a73;fill:#122a73;stroke-linecap:round;stroke-linejoin:round;stroke-miterlimit:10"/><circle cx="412.2" cy="138.97" r="2.73" style="stroke-width:1.2;stroke:#122a73;fill:#122a73;stroke-linecap:round;stroke-linejoin:round;stroke-miterlimit:10"/><circle cx="550.65" cy="252.73" r="2.73" style="stroke-width:1.2;stroke:#122a73;fill:#122a73;stroke-linecap:round;stroke-linejoin:round;stroke-miterlimit:10"/><polygon points="327.24 311.81 362.1 311.81 362.01 311.8 362.36 311.79 362.7 311.72 363.02 311.6 363.32 311.42 363.59 311.2 363.82 310.94 364.01 310.65 364.14 310.33 364.23 309.99 364.26 309.65 364.26 309.65 364.26 296.94 364.26 296.94 364.23 296.59 364.14 296.25 364.01 295.93 363.82 295.64 363.59 295.38 363.32 295.16 363.02 294.99 362.7 294.86 362.36 294.79 362.1 294.78 327.24 294.78 327.5 294.79 327.15 294.78 326.81 294.82 326.47 294.92 326.16 295.07 325.87 295.26 325.62 295.51 325.41 295.78 325.25 296.09 325.14 296.42 325.09 296.76 325.08 296.94 325.08 309.65 325.09 309.47 325.09 309.82 325.14 310.16 325.25 310.49 325.41 310.8 325.62 311.08 325.87 311.32 326.16 311.52 326.47 311.67 326.81 311.76 327.15 311.8" style="stroke-width:nan;stroke:none;fill:none;stroke-linecap:round;stroke-linejoin:round;stroke-miterlimit:10"/><text x="344.67" y="308.21" text-anchor="middle" style="font-size:14px;font-family:Asap" textLength="31.98" lengthAdjust="spacingAndGlyphs">Chile</text><polygon points="710.66 147.59 770.53 147.59 770.44 147.58 770.79 147.57 771.13 147.5 771.46 147.38 771.76 147.2 772.03 146.98 772.26 146.72 772.44 146.43 772.58 146.11 772.66 145.77 772.69 145.43 772.69 145.43 772.69 132.72 772.69 132.72 772.66 132.37 772.58 132.03 772.44 131.71 772.26 131.42 772.03 131.16 771.76 130.94 771.46 130.77 771.13 130.64 770.79 130.57 770.53 130.56 710.66 130.56 710.92 130.57 710.57 130.56 710.23 130.6 709.9 130.7 709.58 130.85 709.3 131.04 709.04 131.29 708.84 131.56 708.67 131.87 708.56 132.2 708.51 132.54 708.5 132.72 708.5 145.43 708.51 145.25 708.51 145.6 708.56 145.94 708.67 146.27 708.84 146.58 709.04 146.86 709.3 147.1 709.58 147.3 709.9 147.45 710.23 147.54 710.57 147.58" style="stroke-width:nan;stroke:none;fill:none;stroke-linecap:round;stroke-linejoin:round;stroke-miterlimit:10"/><text x="740.6" y="143.99" text-anchor="middle" style="font-size:14px;font-family:Asap" textLength="56.99" lengthAdjust="spacingAndGlyphs">Denmark</text><polygon points="655.77 215 700.58 215 700.49 215 700.84 214.99 701.18 214.92 701.51 214.8 701.81 214.62 702.08 214.4 702.31 214.14 702.49 213.85 702.63 213.53 702.71 213.19 702.74 212.84 702.74 212.84 702.74 200.14 702.74 200.14 702.71 199.79 702.63 199.45 702.49 199.13 702.31 198.84 702.08 198.58 701.81 198.36 701.51 198.19 701.18 198.06 700.84 197.99 700.58 197.98 655.77 197.98 656.04 197.99 655.69 197.98 655.34 198.02 655.01 198.12 654.69 198.27 654.41 198.46 654.16 198.7 653.95 198.98 653.79 199.29 653.68 199.62 653.62 199.96 653.61 200.14 653.61 212.84 653.62 212.67 653.62 213.02 653.68 213.36 653.79 213.69 653.95 214 654.16 214.28 654.41 214.52 654.69 214.72 655.01 214.86 655.34 214.96 655.69 215" style="stroke-width:nan;stroke:none;fill:none;stroke-linecap:round;stroke-linejoin:round;stroke-miterlimit:10"/><text x="678.18" y="211.4" text-anchor="middle" style="font-size:14px;font-family:Asap" textLength="41.93" lengthAdjust="spacingAndGlyphs">France</text><polygon points="726.76 185.5 785.74 185.5 785.66 185.5 786 185.49 786.34 185.42 786.67 185.29 786.97 185.12 787.24 184.9 787.47 184.64 787.65 184.35 787.79 184.03 787.87 183.69 787.9 183.34 787.9 183.34 787.9 170.63 787.9 170.63 787.87 170.29 787.79 169.95 787.65 169.63 787.47 169.34 787.24 169.08 786.97 168.86 786.67 168.68 786.34 168.56 786 168.49 785.74 168.47 726.76 168.47 727.02 168.49 726.67 168.48 726.33 168.52 725.99 168.61 725.68 168.76 725.39 168.96 725.14 169.2 724.93 169.48 724.77 169.79 724.66 170.12 724.61 170.46 724.6 170.63 724.6 183.34 724.61 183.17 724.61 183.52 724.66 183.86 724.77 184.19 724.93 184.5 725.14 184.77 725.39 185.01 725.68 185.21 725.99 185.36 726.33 185.46 726.67 185.5" style="stroke-width:nan;stroke:none;fill:none;stroke-linecap:round;stroke-linejoin:round;stroke-miterlimit:10"/><text x="756.25" y="181.9" text-anchor="middle" style="font-size:14px;font-family:Asap" textLength="56.1" lengthAdjust="spacingAndGlyphs">Germany</text><polygon points="381.33 269.59 428.17 269.59 428.08 269.58 428.43 269.57 428.77 269.5 429.09 269.38 429.4 269.2 429.66 268.98 429.9 268.72 430.08 268.43 430.22 268.11 430.3 267.77 430.33 267.43 430.33 267.43 430.33 254.72 430.33 254.72 430.3 254.37 430.22 254.03 430.08 253.71 429.9 253.42 429.66 253.16 429.4 252.94 429.09 252.77 428.77 252.64 428.43 252.57 428.17 252.56 381.33 252.56 381.59 252.57 381.25 252.56 380.9 252.6 380.57 252.7 380.25 252.85 379.97 253.05 379.72 253.29 379.51 253.56 379.35 253.87 379.24 254.2 379.18 254.54 379.17 254.72 379.17 267.43 379.18 267.25 379.18 267.6 379.24 267.94 379.35 268.27 379.51 268.58 379.72 268.86 379.97 269.1 380.25 269.3 380.57 269.45 380.9 269.54 381.25 269.58" style="stroke-width:nan;stroke:none;fill:none;stroke-linecap:round;stroke-linejoin:round;stroke-miterlimit:10"/><text x="404.75" y="265.99" text-anchor="middle" style="font-size:14px;font-family:Asap" textLength="43.96" lengthAdjust="spacingAndGlyphs">Greece</text><polygon points="444.9 44.95 491.89 44.95 491.8 44.95 492.15 44.93 492.49 44.87 492.82 44.74 493.12 44.57 493.39 44.35 493.62 44.09 493.8 43.79 493.94 43.47 494.02 43.14 494.05 42.79 494.05 42.79 494.05 30.08 494.05 30.08 494.02 29.74 493.94 29.4 493.8 29.08 493.62 28.79 493.39 28.52 493.12 28.31 492.82 28.13 492.49 28.01 492.15 27.94 491.89 27.92 444.9 27.92 445.16 27.94 444.81 27.92 444.46 27.97 444.13 28.06 443.82 28.21 443.53 28.41 443.28 28.65 443.07 28.93 442.91 29.24 442.8 29.57 442.74 29.91 442.74 30.08 442.74 42.79 442.74 42.62 442.74 42.96 442.8 43.31 442.91 43.64 443.07 43.95 443.28 44.22 443.53 44.46 443.82 44.66 444.13 44.81 444.46 44.91 444.81 44.95" style="stroke-width:nan;stroke:none;fill:none;stroke-linecap:round;stroke-linejoin:round;stroke-miterlimit:10"/><text x="468.39" y="41.35" text-anchor="middle" style="font-size:14px;font-family:Asap" textLength="44.11" lengthAdjust="spacingAndGlyphs">Ireland</text><polygon points="569.69 219.86 599.83 219.86 599.74 219.86 600.09 219.84 600.43 219.77 600.76 219.65 601.06 219.47 601.33 219.25 601.56 218.99 601.74 218.7 601.88 218.38 601.96 218.04 601.99 217.7 601.99 217.7 601.99 204.99 601.99 204.99 601.96 204.64 601.88 204.3 601.74 203.99 601.56 203.69 601.33 203.43 601.06 203.21 600.76 203.04 600.43 202.91 600.09 202.84 599.83 202.83 569.69 202.83 569.95 202.84 569.6 202.83 569.26 202.87 568.93 202.97 568.61 203.12 568.32 203.32 568.07 203.56 567.87 203.83 567.7 204.14 567.59 204.47 567.54 204.82 567.53 204.99 567.53 217.7 567.54 217.52 567.54 217.87 567.59 218.21 567.7 218.54 567.87 218.85 568.07 219.13 568.32 219.37 568.61 219.57 568.93 219.72 569.26 219.81 569.6 219.86" style="stroke-width:nan;stroke:none;fill:none;stroke-linecap:round;stroke-linejoin:round;stroke-miterlimit:10"/><text x="584.76" y="216.26" text-anchor="middle" style="font-size:14px;font-family:Asap" textLength="27.26" lengthAdjust="spacingAndGlyphs">Italy</text><polygon points="520.79 206.65 560.36 206.65 560.27 206.65 560.62 206.64 560.96 206.57 561.28 206.44 561.58 206.27 561.85 206.05 562.08 205.79 562.27 205.5 562.41 205.18 562.49 204.84 562.52 204.49 562.52 204.49 562.52 191.79 562.52 191.79 562.49 191.44 562.41 191.1 562.27 190.78 562.08 190.49 561.85 190.23 561.58 190.01 561.28 189.83 560.96 189.71 560.62 189.64 560.36 189.63 520.79 189.63 521.05 189.64 520.7 189.63 520.35 189.67 520.02 189.77 519.71 189.91 519.42 190.11 519.17 190.35 518.96 190.63 518.8 190.94 518.69 191.27 518.63 191.61 518.63 191.79 518.63 204.49 518.63 204.32 518.63 204.67 518.69 205.01 518.8 205.34 518.96 205.65 519.17 205.93 519.42 206.17 519.71 206.36 520.02 206.51 520.35 206.61 520.7 206.65" style="stroke-width:nan;stroke:none;fill:none;stroke-linecap:round;stroke-linejoin:round;stroke-miterlimit:10"/><text x="540.57" y="203.05" text-anchor="middle" style="font-size:14px;font-family:Asap" textLength="36.69" lengthAdjust="spacingAndGlyphs">Japan</text><polygon points="162.16 307.82 209.64 307.82 209.55 307.82 209.9 307.8 210.24 307.73 210.57 307.61 210.87 307.44 211.14 307.22 211.37 306.96 211.55 306.66 211.69 306.34 211.77 306.01 211.8 305.66 211.8 305.66 211.8 292.95 211.8 292.95 211.77 292.6 211.69 292.27 211.55 291.95 211.37 291.65 211.14 291.39 210.87 291.17 210.57 291 210.24 290.88 209.9 290.81 209.64 290.79 162.16 290.79 162.43 290.81 162.08 290.79 161.73 290.83 161.4 290.93 161.08 291.08 160.8 291.28 160.55 291.52 160.34 291.8 160.18 292.1 160.07 292.43 160.01 292.78 160 292.95 160 305.66 160.01 305.48 160.01 305.83 160.07 306.18 160.18 306.51 160.34 306.81 160.55 307.09 160.8 307.33 161.08 307.53 161.4 307.68 161.73 307.77 162.08 307.82" style="stroke-width:nan;stroke:none;fill:none;stroke-linecap:round;stroke-linejoin:round;stroke-miterlimit:10"/><text x="185.9" y="304.22" text-anchor="middle" style="font-size:14px;font-family:Asap" textLength="44.6" lengthAdjust="spacingAndGlyphs">Mexico</text><polygon points="613.98 151.08 693.1 151.08 693.02 151.08 693.36 151.06 693.71 150.99 694.03 150.87 694.33 150.7 694.6 150.48 694.83 150.22 695.02 149.92 695.15 149.6 695.24 149.27 695.26 148.92 695.26 148.92 695.26 136.21 695.26 136.21 695.24 135.87 695.15 135.53 695.02 135.21 694.83 134.91 694.6 134.65 694.33 134.43 694.03 134.26 693.71 134.14 693.36 134.07 693.1 134.05 613.98 134.05 614.24 134.07 613.9 134.05 613.55 134.1 613.22 134.19 612.9 134.34 612.62 134.54 612.37 134.78 612.16 135.06 612 135.37 611.89 135.7 611.83 136.04 611.82 136.21 611.82 148.92 611.83 148.75 611.83 149.09 611.89 149.44 612 149.77 612.16 150.07 612.37 150.35 612.62 150.59 612.9 150.79 613.22 150.94 613.55 151.04 613.9 151.08" style="stroke-width:nan;stroke:none;fill:none;stroke-linecap:round;stroke-linejoin:round;stroke-miterlimit:10"/><text x="653.54" y="147.48" text-anchor="middle" style="font-size:14px;font-family:Asap" textLength="76.24" lengthAdjust="spacingAndGlyphs">Netherlands</text><polygon points="676.8 134.74 727.65 134.74 727.56 134.74 727.91 134.72 728.25 134.65 728.57 134.53 728.88 134.36 729.14 134.14 729.37 133.88 729.56 133.58 729.7 133.26 729.78 132.93 729.81 132.58 729.81 132.58 729.81 119.87 729.81 119.87 729.78 119.52 729.7 119.19 729.56 118.87 729.37 118.57 729.14 118.31 728.88 118.09 728.57 117.92 728.25 117.8 727.91 117.73 727.65 117.71 676.8 117.71 677.06 117.73 676.71 117.71 676.37 117.75 676.04 117.85 675.72 118 675.44 118.2 675.18 118.44 674.98 118.72 674.81 119.02 674.7 119.35 674.65 119.7 674.64 119.87 674.64 132.58 674.65 132.41 674.65 132.75 674.7 133.1 674.81 133.43 674.98 133.73 675.18 134.01 675.44 134.25 675.72 134.45 676.04 134.6 676.37 134.7 676.71 134.74" style="stroke-width:nan;stroke:none;fill:none;stroke-linecap:round;stroke-linejoin:round;stroke-miterlimit:10"/><text x="702.22" y="131.14" text-anchor="middle" style="font-size:14px;font-family:Asap" textLength="47.97" lengthAdjust="spacingAndGlyphs">Norway</text><polygon points="354.1 247.44 400.41 247.44 400.32 247.44 400.67 247.43 401.01 247.36 401.33 247.23 401.63 247.06 401.9 246.84 402.13 246.58 402.32 246.29 402.45 245.97 402.54 245.63 402.57 245.28 402.57 245.28 402.57 232.57 402.57 232.57 402.54 232.23 402.45 231.89 402.32 231.57 402.13 231.28 401.9 231.02 401.63 230.8 401.33 230.62 401.01 230.5 400.67 230.43 400.41 230.41 354.1 230.41 354.36 230.43 354.01 230.42 353.67 230.46 353.34 230.55 353.02 230.7 352.74 230.9 352.49 231.14 352.28 231.42 352.11 231.73 352 232.06 351.95 232.4 351.94 232.57 351.94 245.28 351.95 245.11 351.95 245.46 352 245.8 352.11 246.13 352.28 246.44 352.49 246.71 352.74 246.95 353.02 247.15 353.34 247.3 353.67 247.4 354.01 247.44" style="stroke-width:nan;stroke:none;fill:none;stroke-linecap:round;stroke-linejoin:round;stroke-miterlimit:10"/><text x="377.25" y="243.84" text-anchor="middle" style="font-size:14px;font-family:Asap" textLength="43.42" lengthAdjust="spacingAndGlyphs">Poland</text><polygon points="324.87 208.71 402.89 208.71 402.8 208.71 403.15 208.7 403.49 208.63 403.81 208.5 404.11 208.33 404.38 208.11 404.61 207.85 404.8 207.56 404.94 207.24 405.02 206.9 405.05 206.55 405.05 206.55 405.05 193.84 405.05 193.84 405.02 193.5 404.94 193.16 404.8 192.84 404.61 192.55 404.38 192.29 404.11 192.07 403.81 191.89 403.49 191.77 403.15 191.7 402.89 191.68 324.87 191.68 325.13 191.7 324.78 191.69 324.44 191.73 324.1 191.82 323.79 191.97 323.5 192.17 323.25 192.41 323.04 192.69 322.88 193 322.77 193.33 322.72 193.67 322.71 193.84 322.71 206.55 322.72 206.38 322.72 206.73 322.77 207.07 322.88 207.4 323.04 207.71 323.25 207.98 323.5 208.22 323.79 208.42 324.1 208.57 324.44 208.67 324.78 208.71" style="stroke-width:nan;stroke:none;fill:none;stroke-linecap:round;stroke-linejoin:round;stroke-miterlimit:10"/><text x="363.88" y="205.11" text-anchor="middle" style="font-size:14px;font-family:Asap" textLength="75.14" lengthAdjust="spacingAndGlyphs">South Korea</text><polygon points="503.52 234.24 540.55 234.24 540.47 234.24 540.81 234.22 541.15 234.15 541.48 234.03 541.78 233.86 542.05 233.64 542.28 233.38 542.47 233.08 542.6 232.76 542.69 232.43 542.71 232.08 542.71 232.08 542.71 219.37 542.71 219.37 542.69 219.03 542.6 218.69 542.47 218.37 542.28 218.07 542.05 217.81 541.78 217.59 541.48 217.42 541.15 217.3 540.81 217.23 540.55 217.21 503.52 217.21 503.78 217.23 503.44 217.21 503.09 217.26 502.76 217.35 502.44 217.5 502.16 217.7 501.91 217.94 501.7 218.22 501.54 218.53 501.43 218.85 501.37 219.2 501.36 219.37 501.36 232.08 501.37 231.91 501.37 232.25 501.43 232.6 501.54 232.93 501.7 233.23 501.91 233.51 502.16 233.75 502.44 233.95 502.76 234.1 503.09 234.2 503.44 234.24" style="stroke-width:nan;stroke:none;fill:none;stroke-linecap:round;stroke-linejoin:round;stroke-miterlimit:10"/><text x="522.04" y="230.64" text-anchor="middle" style="font-size:14px;font-family:Asap" textLength="34.15" lengthAdjust="spacingAndGlyphs">Spain</text><polygon points="427.98 279.27 473.04 279.27 472.95 279.27 473.3 279.25 473.64 279.18 473.96 279.06 474.26 278.89 474.53 278.67 474.76 278.41 474.95 278.11 475.09 277.79 475.17 277.46 475.2 277.11 475.2 277.11 475.2 264.4 475.2 264.4 475.17 264.06 475.09 263.72 474.95 263.4 474.76 263.1 474.53 262.84 474.26 262.62 473.96 262.45 473.64 262.33 473.3 262.26 473.04 262.24 427.98 262.24 428.24 262.26 427.89 262.24 427.55 262.29 427.21 262.38 426.9 262.53 426.61 262.73 426.36 262.97 426.15 263.25 425.99 263.56 425.88 263.88 425.83 264.23 425.82 264.4 425.82 277.11 425.83 276.94 425.83 277.28 425.88 277.63 425.99 277.96 426.15 278.26 426.36 278.54 426.61 278.78 426.9 278.98 427.21 279.13 427.55 279.23 427.89 279.27" style="stroke-width:nan;stroke:none;fill:none;stroke-linecap:round;stroke-linejoin:round;stroke-miterlimit:10"/><text x="450.51" y="275.67" text-anchor="middle" style="font-size:14px;font-family:Asap" textLength="42.18" lengthAdjust="spacingAndGlyphs">Turkey</text><polygon points="714.78 205.39 735.69 205.39 735.6 205.39 735.95 205.38 736.29 205.31 736.61 205.19 736.91 205.01 737.18 204.79 737.41 204.53 737.6 204.24 737.73 203.92 737.82 203.58 737.85 203.23 737.85 203.23 737.85 190.53 737.85 190.53 737.82 190.18 737.73 189.84 737.6 189.52 737.41 189.23 737.18 188.97 736.91 188.75 736.61 188.58 736.29 188.45 735.95 188.38 735.69 188.37 714.78 188.37 715.04 188.38 714.69 188.37 714.35 188.41 714.01 188.51 713.7 188.66 713.41 188.85 713.16 189.09 712.95 189.37 712.79 189.68 712.68 190.01 712.62 190.35 712.62 190.53 712.62 203.23 712.62 203.06 712.62 203.41 712.68 203.75 712.79 204.08 712.95 204.39 713.16 204.67 713.41 204.91 713.7 205.11 714.01 205.25 714.35 205.35 714.69 205.39" style="stroke-width:nan;stroke:none;fill:none;stroke-linecap:round;stroke-linejoin:round;stroke-miterlimit:10"/><text x="725.23" y="201.79" text-anchor="middle" style="font-size:14px;font-family:Asap" textLength="18.03" lengthAdjust="spacingAndGlyphs">UK</text><polygon points="381.9 144.26 401.74 144.26 401.65 144.26 402 144.25 402.34 144.18 402.66 144.05 402.97 143.88 403.24 143.66 403.47 143.4 403.65 143.11 403.79 142.79 403.87 142.45 403.9 142.1 403.9 142.1 403.9 129.39 403.9 129.39 403.87 129.05 403.79 128.71 403.65 128.39 403.47 128.1 403.24 127.84 402.97 127.62 402.66 127.44 402.34 127.32 402 127.25 401.74 127.23 381.9 127.23 382.16 127.25 381.81 127.24 381.46 127.28 381.13 127.37 380.82 127.52 380.53 127.72 380.28 127.96 380.07 128.24 379.91 128.55 379.8 128.88 379.74 129.22 379.74 129.39 379.74 142.1 379.74 141.93 379.74 142.28 379.8 142.62 379.91 142.95 380.07 143.26 380.28 143.53 380.53 143.77 380.82 143.97 381.13 144.12 381.46 144.22 381.81 144.26" style="stroke-width:nan;stroke:none;fill:none;stroke-linecap:round;stroke-linejoin:round;stroke-miterlimit:10"/><text x="391.82" y="140.66" text-anchor="middle" style="font-size:14px;font-family:Asap" textLength="16.96" lengthAdjust="spacingAndGlyphs">US</text><polyline points="125.82 354.09 125.82 14.17" style="stroke-width:1.07;stroke:#464646;stroke-linecap:butt;fill:none;stroke-linejoin:round;stroke-miterlimit:10"/><text x="99.14" y="358.5" style="font-size:18px;font-family:Asap" textLength="9.63" lengthAdjust="spacingAndGlyphs">0</text><text x="57.04" y="324.51" style="font-size:18px;font-family:Asap" textLength="51.73" lengthAdjust="spacingAndGlyphs">10,000</text><text x="57.04" y="290.52" style="font-size:18px;font-family:Asap" textLength="51.73" lengthAdjust="spacingAndGlyphs">20,000</text><text x="57.04" y="256.53" style="font-size:18px;font-family:Asap" textLength="51.73" lengthAdjust="spacingAndGlyphs">30,000</text><text x="57.04" y="222.54" style="font-size:18px;font-family:Asap" textLength="51.73" lengthAdjust="spacingAndGlyphs">40,000</text><text x="57.04" y="188.54" style="font-size:18px;font-family:Asap" textLength="51.73" lengthAdjust="spacingAndGlyphs">50,000</text><text x="57.04" y="154.55" style="font-size:18px;font-family:Asap" textLength="51.73" lengthAdjust="spacingAndGlyphs">60,000</text><text x="57.04" y="120.56" style="font-size:18px;font-family:Asap" textLength="51.73" lengthAdjust="spacingAndGlyphs">70,000</text><text x="57.04" y="86.57" style="font-size:18px;font-family:Asap" textLength="51.73" lengthAdjust="spacingAndGlyphs">80,000</text><text x="57.04" y="52.58" style="font-size:18px;font-family:Asap" textLength="51.73" lengthAdjust="spacingAndGlyphs">90,000</text><text x="47.41" y="18.58" style="font-size:18px;font-family:Asap" textLength="61.37" lengthAdjust="spacingAndGlyphs">100,000</text><polyline points="118.73 354.09 125.82 354.09" style="stroke-width:1.07;stroke:#464646;stroke-linecap:butt;fill:none;stroke-linejoin:round;stroke-miterlimit:10"/><polyline points="118.73 320.1 125.82 320.1" style="stroke-width:1.07;stroke:#464646;stroke-linecap:butt;fill:none;stroke-linejoin:round;stroke-miterlimit:10"/><polyline points="118.73 286.11 125.82 286.11" style="stroke-width:1.07;stroke:#464646;stroke-linecap:butt;fill:none;stroke-linejoin:round;stroke-miterlimit:10"/><polyline points="118.73 252.12 125.82 252.12" style="stroke-width:1.07;stroke:#464646;stroke-linecap:butt;fill:none;stroke-linejoin:round;stroke-miterlimit:10"/><polyline points="118.73 218.13 125.82 218.13" style="stroke-width:1.07;stroke:#464646;stroke-linecap:butt;fill:none;stroke-linejoin:round;stroke-miterlimit:10"/><polyline points="118.73 184.13 125.82 184.13" style="stroke-width:1.07;stroke:#464646;stroke-linecap:butt;fill:none;stroke-linejoin:round;stroke-miterlimit:10"/><polyline points="118.73 150.14 125.82 150.14" style="stroke-width:1.07;stroke:#464646;stroke-linecap:butt;fill:none;stroke-linejoin:round;stroke-miterlimit:10"/><polyline points="118.73 116.15 125.82 116.15" style="stroke-width:1.07;stroke:#464646;stroke-linecap:butt;fill:none;stroke-linejoin:round;stroke-miterlimit:10"/><polyline points="118.73 82.16 125.82 82.16" style="stroke-width:1.07;stroke:#464646;stroke-linecap:butt;fill:none;stroke-linejoin:round;stroke-miterlimit:10"/><polyline points="118.73 48.17 125.82 48.17" style="stroke-width:1.07;stroke:#464646;stroke-linecap:butt;fill:none;stroke-linejoin:round;stroke-miterlimit:10"/><polyline points="118.73 14.17 125.82 14.17" style="stroke-width:1.07;stroke:#464646;stroke-linecap:butt;fill:none;stroke-linejoin:round;stroke-miterlimit:10"/><polyline points="125.82 354.09 781.65 354.09" style="stroke-width:1.07;stroke:#464646;stroke-linecap:butt;fill:none;stroke-linejoin:round;stroke-miterlimit:10"/><polyline points="125.82 361.18 125.82 354.09" style="stroke-width:1.07;stroke:#464646;stroke-linecap:butt;fill:none;stroke-linejoin:round;stroke-miterlimit:10"/><polyline points="198.69 361.18 198.69 354.09" style="stroke-width:1.07;stroke:#464646;stroke-linecap:butt;fill:none;stroke-linejoin:round;stroke-miterlimit:10"/><polyline points="271.56 361.18 271.56 354.09" style="stroke-width:1.07;stroke:#464646;stroke-linecap:butt;fill:none;stroke-linejoin:round;stroke-miterlimit:10"/><polyline points="344.43 361.18 344.43 354.09" style="stroke-width:1.07;stroke:#464646;stroke-linecap:butt;fill:none;stroke-linejoin:round;stroke-miterlimit:10"/><polyline points="417.3 361.18 417.3 354.09" style="stroke-width:1.07;stroke:#464646;stroke-linecap:butt;fill:none;stroke-linejoin:round;stroke-miterlimit:10"/><polyline points="490.17 361.18 490.17 354.09" style="stroke-width:1.07;stroke:#464646;stroke-linecap:butt;fill:none;stroke-linejoin:round;stroke-miterlimit:10"/><polyline points="563.04 361.18 563.04 354.09" style="stroke-width:1.07;stroke:#464646;stroke-linecap:butt;fill:none;stroke-linejoin:round;stroke-miterlimit:10"/><polyline points="635.91 361.18 635.91 354.09" style="stroke-width:1.07;stroke:#464646;stroke-linecap:butt;fill:none;stroke-linejoin:round;stroke-miterlimit:10"/><polyline points="708.78 361.18 708.78 354.09" style="stroke-width:1.07;stroke:#464646;stroke-linecap:butt;fill:none;stroke-linejoin:round;stroke-miterlimit:10"/><polyline points="781.65 361.18 781.65 354.09" style="stroke-width:1.07;stroke:#464646;stroke-linecap:butt;fill:none;stroke-linejoin:round;stroke-miterlimit:10"/><text x="104.77" y="383.78" style="font-size:18px;font-family:Asap" textLength="42.1" lengthAdjust="spacingAndGlyphs">6,600</text><text x="177.64" y="383.78" style="font-size:18px;font-family:Asap" textLength="42.1" lengthAdjust="spacingAndGlyphs">6,700</text><text x="250.51" y="383.78" style="font-size:18px;font-family:Asap" textLength="42.1" lengthAdjust="spacingAndGlyphs">6,800</text><text x="323.38" y="383.78" style="font-size:18px;font-family:Asap" textLength="42.1" lengthAdjust="spacingAndGlyphs">6,900</text><text x="396.25" y="383.78" style="font-size:18px;font-family:Asap" textLength="42.1" lengthAdjust="spacingAndGlyphs">7,000</text><text x="469.12" y="383.78" style="font-size:18px;font-family:Asap" textLength="42.1" lengthAdjust="spacingAndGlyphs">7,100</text><text x="541.99" y="383.78" style="font-size:18px;font-family:Asap" textLength="42.1" lengthAdjust="spacingAndGlyphs">7,200</text><text x="614.86" y="383.78" style="font-size:18px;font-family:Asap" textLength="42.1" lengthAdjust="spacingAndGlyphs">7,300</text><text x="687.73" y="383.78" style="font-size:18px;font-family:Asap" textLength="42.1" lengthAdjust="spacingAndGlyphs">7,400</text><text x="760.6" y="383.78" style="font-size:18px;font-family:Asap" textLength="42.1" lengthAdjust="spacingAndGlyphs">7,500</text><text x="252.88" y="416.59" style="font-size:20px;font-weight:600;font-family:Asap" textLength="72.66" lengthAdjust="spacingAndGlyphs">Average</text><text x="330.34" y="416.59" style="font-size:20px;font-weight:600;font-family:Asap" textLength="61.16" lengthAdjust="spacingAndGlyphs">annual</text><text x="396.3" y="416.59" style="font-size:20px;font-weight:600;font-family:Asap" textLength="49.41" lengthAdjust="spacingAndGlyphs">hours</text><text x="450.51" y="416.59" style="font-size:20px;font-weight:600;font-family:Asap" textLength="17.88" lengthAdjust="spacingAndGlyphs">of</text><text x="473.2" y="416.59" style="font-size:20px;font-weight:600;font-family:Asap" textLength="35.38" lengthAdjust="spacingAndGlyphs">free</text><text x="513.38" y="416.59" style="font-size:20px;font-weight:600;font-family:Asap" textLength="39.88" lengthAdjust="spacingAndGlyphs">time</text><text x="558.06" y="416.59" style="font-size:20px;font-weight:600;font-family:Asap" textLength="29.56" lengthAdjust="spacingAndGlyphs">per</text><text x="592.43" y="416.59" style="font-size:20px;font-weight:600;font-family:Asap" textLength="62.16" lengthAdjust="spacingAndGlyphs">worker</text><text transform="rotate(-90 155.89 127.67)" style="font-size:20px;font-weight:600;font-family:Asap" textLength="38.74" lengthAdjust="spacingAndGlyphs">GDP</text><text transform="rotate(-90 134.115 105.895)" style="font-size:20px;font-weight:600;font-family:Asap" textLength="29.56" lengthAdjust="spacingAndGlyphs">per</text><text transform="rotate(-90 116.935 88.715)" style="font-size:20px;font-weight:600;font-family:Asap" textLength="55.1" lengthAdjust="spacingAndGlyphs">capita</text><text transform="rotate(-90 86.98 58.76)" style="font-size:20px;font-weight:600;font-family:Asap" textLength="16.02" lengthAdjust="spacingAndGlyphs">($</text><text transform="rotate(-90 76.57 48.35)" style="font-size:20px;font-weight:600;font-family:Asap" textLength="40.21" lengthAdjust="spacingAndGlyphs">PPP)</text></g></svg>