<svg xmlns="http://www.w3.org/2000/svg" viewBox="0 0 311.81 191.68"><line x1="37.1" y1="9.45" x2="37.1" y2="166.52" style="fill:none;stroke:#6d6e71;stroke-linecap:square;stroke-width:.5px"/><line x1="37.1" y1="167.02" x2="37.1" y2="169.14" style="fill:none;stroke:#6d6e71;stroke-linecap:square;stroke-width:.5px"/><line x1="70.52" y1="167.12" x2="70.52" y2="169.25" style="fill:none;stroke:#6d6e71;stroke-linecap:square;stroke-width:.5px"/><line x1="103.94" y1="167.12" x2="103.94" y2="169.25" style="fill:none;stroke:#6d6e71;stroke-linecap:square;stroke-width:.5px"/><line x1="137.36" y1="167.12" x2="137.36" y2="169.25" style="fill:none;stroke:#6d6e71;stroke-linecap:square;stroke-width:.5px"/><line x1="170.78" y1="167.12" x2="170.78" y2="169.25" style="fill:none;stroke:#6d6e71;stroke-linecap:square;stroke-width:.5px"/><line x1="204.2" y1="167.12" x2="204.2" y2="169.25" style="fill:none;stroke:#6d6e71;stroke-linecap:square;stroke-width:.5px"/><line x1="237.62" y1="167.12" x2="237.62" y2="169.25" style="fill:none;stroke:#6d6e71;stroke-linecap:square;stroke-width:.5px"/><line x1="271.04" y1="167.12" x2="271.04" y2="169.25" style="fill:none;stroke:#6d6e71;stroke-linecap:square;stroke-width:.5px"/><line x1="304.79" y1="166.52" x2="304.79" y2="168.65" style="fill:none;stroke:#6d6e71;stroke-linecap:square;stroke-width:.5px"/><polyline points="304.46 25.06 37.1 26.9 37.1 166.52" style="fill:none;stroke:#0871b9;stroke-linecap:square;stroke-width:.5px"/><line x1="34.98" y1="131.62" x2="37.1" y2="131.62" style="fill:none;stroke:#6d6e71;stroke-linecap:square;stroke-width:.5px"/><line x1="34.98" y1="149.07" x2="37.1" y2="149.07" style="fill:none;stroke:#6d6e71;stroke-linecap:square;stroke-width:.5px"/><line x1="34.98" y1="166.52" x2="37.1" y2="166.52" style="fill:none;stroke:#6d6e71;stroke-linecap:square;stroke-width:.5px"/><line x1="34.98" y1="114.16" x2="37.1" y2="114.16" style="fill:none;stroke:#6d6e71;stroke-linecap:square;stroke-width:.5px"/><line x1="34.98" y1="96.71" x2="37.1" y2="96.71" style="fill:none;stroke:#6d6e71;stroke-linecap:square;stroke-width:.5px"/><line x1="34.98" y1="79.26" x2="37.1" y2="79.26" style="fill:none;stroke:#6d6e71;stroke-linecap:square;stroke-width:.5px"/><line x1="34.98" y1="61.81" x2="37.1" y2="61.81" style="fill:none;stroke:#6d6e71;stroke-linecap:square;stroke-width:.5px"/><line x1="34.98" y1="44.35" x2="37.1" y2="44.35" style="fill:none;stroke:#6d6e71;stroke-linecap:square;stroke-width:.5px"/><line x1="34.98" y1="26.9" x2="37.1" y2="26.9" style="fill:none;stroke:#6d6e71;stroke-linecap:square;stroke-width:.5px"/><line x1="34.98" y1="9.45" x2="37.1" y2="9.45" style="fill:none;stroke:#6d6e71;stroke-linecap:square;stroke-width:.5px"/><text transform="translate(19.5 168.9)" style="fill:#231f20;font-family:Asap-Regular,Asap;font-size:7px"><tspan x="0" y="0">400</tspan></text><text transform="translate(19.64 151.44)" style="fill:#231f20;font-family:Asap-Regular,Asap;font-size:7px"><tspan x="0" y="0">450</tspan></text><text transform="translate(19.78 133.99)" style="fill:#231f20;font-family:Asap-Regular,Asap;font-size:7px"><tspan x="0" y="0">500</tspan></text><text transform="translate(19.92 116.54)" style="fill:#231f20;font-family:Asap-Regular,Asap;font-size:7px"><tspan x="0" y="0">550</tspan></text><text transform="translate(20.06 99.09)" style="fill:#231f20;font-family:Asap-Regular,Asap;font-size:7px"><tspan x="0" y="0">600</tspan></text><text transform="translate(20.2 81.63)" style="fill:#231f20;font-family:Asap-Regular,Asap;font-size:7px"><tspan x="0" y="0">650</tspan></text><text transform="translate(20.34 64.18)" style="fill:#231f20;font-family:Asap-Regular,Asap;font-size:7px"><tspan x="0" y="0">700</tspan></text><text transform="translate(20.48 46.73)" style="fill:#231f20;font-family:Asap-Regular,Asap;font-size:7px"><tspan x="0" y="0">750</tspan></text><text transform="translate(20.61 29.27)" style="fill:#231f20;font-family:Asap-Regular,Asap;font-size:7px"><tspan x="0" y="0">800</tspan></text><text transform="translate(19.92 11.82)" style="fill:#231f20;font-family:Asap-Regular,Asap;font-size:7px"><tspan x="0" y="0">850</tspan></text><text transform="translate(35.23 177.25)" style="fill:#231f20;font-family:Asap-Regular,Asap;font-size:7px"><tspan x="0" y="0">0</tspan></text><text transform="translate(66.78 177.24)" style="fill:#231f20;font-family:Asap-Regular,Asap;font-size:7px"><tspan x="0" y="0">10</tspan></text><text transform="translate(100.2 177.25)" style="fill:#231f20;font-family:Asap-Regular,Asap;font-size:7px"><tspan x="0" y="0">20</tspan></text><text transform="translate(133.62 177.22)" style="fill:#231f20;font-family:Asap-Regular,Asap;font-size:7px"><tspan x="0" y="0">30</tspan></text><text transform="translate(167.04 177.25)" style="fill:#231f20;font-family:Asap-Regular,Asap;font-size:7px"><tspan x="0" y="0">40</tspan></text><text transform="translate(200.46 177.25)" style="fill:#231f20;font-family:Asap-Regular,Asap;font-size:7px"><tspan x="0" y="0">50</tspan></text><text transform="translate(267.3 177.29)" style="fill:#231f20;font-family:Asap-Regular,Asap;font-size:7px"><tspan x="0" y="0">70</tspan></text><text transform="translate(233.88 177.22)" style="fill:#231f20;font-family:Asap-Regular,Asap;font-size:7px"><tspan x="0" y="0">60</tspan></text><text transform="translate(300.72 177.22)" style="fill:#231f20;font-family:Asap-Regular,Asap;font-size:7px"><tspan x="0" y="0">80</tspan></text><path d="M50.42 166.52c.62-7.24 1.67-17.48 3.48-29.72 2.01-13.57 3.04-20.35 4.98-27.31 1.8-6.47 7.78-27.38 23.34-42.29 12.47-11.95 27.23-15.73 39.36-18.24 59.22-12.25 170.4-15.08 182.4-15.36" style="fill:none;stroke:#f15a27;stroke-linecap:square;stroke-width:.5px"/><path d="M62.54 166.52c2.79-17.54 7.52-31.46 11.52-41.19 4.79-11.65 8.94-21.75 18.36-32.81 1.93-2.27 11.23-12.97 26.76-21.96 9.34-5.41 17.52-8.22 22.31-9.84 4.89-1.66 10.19-3.14 20.77-5.28 10.79-2.19 20.07-3.64 39.58-6.22 18.11-2.4 27.17-3.6 36.63-4.55 6.87-.69 20.36-1.95 37.58-2.84 10.89-.57 20.49-.84 28.41-.97" style="fill:none;stroke:#fbb038;stroke-linecap:square;stroke-width:.5px"/><path d="M78.62 166.52c8.21-33 24.31-52.26 33.36-61.4 26.91-27.19 61.07-35.29 88.32-41.76 15.48-3.67 29.53-5.46 49.08-7.92 22.66-2.85 41.64-4.18 55.08-4.86" style="fill:none;stroke:#3a53a4;stroke-linecap:square;stroke-width:.5px"/><path d="M104.06 166.52c6.58-12.88 18.72-32.73 39.84-50.6 25.62-21.67 51.37-29.43 80.4-38.16 19.07-5.73 46.34-12.18 80.16-14.4" style="fill:none;stroke:#39b54a;stroke-linecap:square;stroke-width:.5px"/><path d="M137.66 166.52c18.51-23.2 37.46-37.55 50.64-46.04 24.7-15.9 47.34-22.97 69.12-29.76 18.95-5.9 35.23-9.4 47.04-11.52" style="fill:none;stroke:#273a71;stroke-linecap:square;stroke-width:.5px"/><text transform="matrix(0 -.93 1 0 8.98 105.52)" style="fill:#231f20;font-size:8px;font-weight:500"><tspan x="0" y="0" style="font-family:Asap-Medium,Asap">Wage, </tspan><tspan x="23.6" y="0" style="font-family:Asap-MediumItalic,Asap;font-style:italic;letter-spacing:0">w</tspan></text><text transform="translate(143.76 189.12)" style="fill:#231f20;font-size:8px;font-weight:500"><tspan x="0" y="0" style="font-family:Asap-Medium,Asap">Employment, </tspan><tspan x="48.3" y="0" style="font-family:Asap-MediumItalic,Asap;font-style:italic">N</tspan></text><circle cx="72.27" cy="79.26" r="1.13" style="fill:#f15a27;stroke-width:0"/><circle cx="170.25" cy="41.62" r="1.13" style="fill:#f15a27;stroke-width:0"/><circle cx="286.1" cy="34.08" r="1.13" style="fill:#f15a27;stroke-width:0"/><text transform="translate(70.71 23.81)" style="fill:#231f20;font-family:Asap-Regular,Asap;font-size:6px"><tspan x="0" y="0">Profit = 0</tspan></text><text transform="translate(153.56 118.89)" style="fill:#231f20;font-family:Asap-Regular,Asap;font-size:6px"><tspan x="0" y="0">Profit = </tspan><tspan x="3.46" y="7.2">12,000</tspan></text><text transform="translate(130.61 99.09)" style="fill:#231f20;font-family:Asap-Regular,Asap;font-size:6px"><tspan x="0" y="0">Profit = </tspan><tspan x="6.67" y="7.2">8,000</tspan></text><text transform="translate(111.42 80.67)" style="fill:#231f20;font-family:Asap-Regular,Asap;font-size:6px"><tspan x="0" y="0">Profit = </tspan><tspan x="6.67" y="7.2">5,000</tspan></text><text transform="translate(93.71 64.47)" style="fill:#231f20;font-family:Asap-Regular,Asap;font-size:6px"><tspan x="0" y="0">Profit = </tspan><tspan x="6.67" y="7.2">3,000</tspan></text><text transform="translate(68.18 51.91)" style="fill:#231f20;font-family:Asap-Regular,Asap;font-size:6px"><tspan x="0" y="0">Profit = 1,500</tspan></text><text transform="translate(60.63 79.26)" style="fill:#231f20;font-family:Asap-Regular,Asap;font-size:6px"><tspan x="0" y="0">A</tspan></text><text transform="translate(162.46 38.1)" style="fill:#231f20;font-family:Asap-Regular,Asap;font-size:6px"><tspan x="0" y="0">B</tspan></text><text transform="translate(278.05 32.95)" style="fill:#231f20;font-family:Asap-Regular,Asap;font-size:6px"><tspan x="0" y="0">C</tspan></text><line x1="37.1" y1="166.52" x2="304.46" y2="166.52" style="fill:none;stroke:#6d6e71;stroke-linecap:square;stroke-width:.5px"/></svg>