<svg version="1.1" xmlns="http://www.w3.org/2000/svg" x="0" y="0" viewBox="0 0 311.81 169.6" style="enable-background:new 0 0 311.81 169.6" xml:space="preserve"><polygon style="fill:none;stroke:#ed2124;stroke-miterlimit:10" points="7.29 13.67 64 13.67 64 48.6 35.65 73.6 7.29 49.27"/><polygon style="fill:none;stroke:#b9519e;stroke-miterlimit:10" points="87.63 13.67 144.34 13.67 144.34 48.6 115.98 73.6 87.63 49.27"/><polygon style="fill:none;stroke:#3a53a4;stroke-miterlimit:10" points="167.96 13.67 224.67 13.67 224.67 48.6 196.32 73.6 167.96 49.27"/><polygon style="fill:none;stroke:#009147;stroke-miterlimit:10" points="249.81 13.67 306.52 13.67 306.52 48.6 278.16 73.6 249.81 49.27"/><text transform="translate(14.716 26.27)"><tspan x="0" y="0" style="font-family:'Asap-Regular';font-size:6px">Lender assesses</tspan><tspan x="-3.39" y="7.2" style="font-family:'Asap-Regular';font-size:6px">the characteristics</tspan><tspan x=".2" y="14.4" style="font-family:'Asap-Regular';font-size:6px">of the borrower</tspan><tspan x="5.76" y="21.6" style="font-family:'Asap-Regular';font-size:6px">and project</tspan></text><text transform="translate(22.738 96.937)"><tspan x="0" y="0" style="font-family:'Asap-Regular';font-size:6px">Wealth of</tspan><tspan x=".64" y="7.2" style="font-family:'Asap-Regular';font-size:6px">borrower</tspan></text><text transform="translate(22.594 137.604)"><tspan x="0" y="0" style="font-family:'Asap-Regular';font-size:6px">Quality of</tspan><tspan x="-6.87" y="7.2" style="font-family:'Asap-Regular';font-size:6px">project (known</tspan><tspan x="-11.48" y="14.4" style="font-family:'Asap-Regular';font-size:6px">better to borrower</tspan><tspan x="-6.64" y="21.6" style="font-family:'Asap-Regular';font-size:6px">than to lender)</tspan></text><text transform="translate(93.46 115.937)"><tspan x="0" y="0" style="font-family:'Asap-Regular';font-size:6px">Borrower’s equity</tspan><tspan x="2.75" y="7.2" style="font-family:'Asap-Regular';font-size:6px">stake in project</tspan><tspan x="6.82" y="14.4" style="font-family:'Asap-Regular';font-size:6px">or collateral</tspan></text><text transform="translate(181.376 90.937)"><tspan x="0" y="0" style="font-family:'Asap-Regular';font-size:6px">Borrower’s </tspan><tspan x="-.61" y="7.2" style="font-family:'Asap-Regular';font-size:6px">incentive to</tspan><tspan x="1.49" y="14.4" style="font-family:'Asap-Regular';font-size:6px">work hard</tspan></text><text transform="translate(181.376 137.604)"><tspan x="0" y="0" style="font-family:'Asap-Regular';font-size:6px">Borrower’s </tspan><tspan x="-.61" y="7.2" style="font-family:'Asap-Regular';font-size:6px">incentive to</tspan><tspan x="-1.8" y="14.4" style="font-family:'Asap-Regular';font-size:6px">select a high</tspan><tspan x="-4.39" y="21.6" style="font-family:'Asap-Regular';font-size:6px">quality project</tspan></text><text transform="translate(260 119.937)"><tspan x="0" y="0" style="font-family:'Asap-Regular';font-size:6px">Lender’s loan</tspan><tspan x="6.67" y="7.2" style="font-family:'Asap-Regular';font-size:6px">decision</tspan></text><text transform="translate(99.82 26.271)"><tspan x="0" y="0" style="font-family:'Asap-Regular';font-size:6px">Lender finds</tspan><tspan x="-.62" y="7.2" style="font-family:'Asap-Regular';font-size:6px">out what the</tspan><tspan x="-9.23" y="14.4" style="font-family:'Asap-Regular';font-size:6px"> borrower is willing</tspan><tspan x="-1.06" y="21.6" style="font-family:'Asap-Regular';font-size:6px">to contribute</tspan></text><text transform="translate(175.206 26.27)"><tspan x="0" y="0" style="font-family:'Asap-Regular';font-size:6px">Lender uses this</tspan><tspan x="5.49" y="7.2" style="font-family:'Asap-Regular';font-size:6px">information</tspan><tspan x="4.39" y="14.4" style="font-family:'Asap-Regular';font-size:6px">to assess the</tspan><tspan x="6.96" y="21.6" style="font-family:'Asap-Regular';font-size:6px">borrower’s</tspan><tspan x="7.77" y="28.8" style="font-family:'Asap-Regular';font-size:6px">incentives</tspan></text><text transform="translate(267.137 26.27)"><tspan x="0" y="0" style="font-family:'Asap-Regular';font-size:6px">Lender’s</tspan><tspan x=".05" y="7.2" style="font-family:'Asap-Regular';font-size:6px">decision</tspan></text><text transform="translate(33.338 11)" style="fill:#ed2124;font-family:'Asap-Medium';font-size:8px">1</text><text transform="translate(113.983 11)" style="fill:#b9519e;font-family:'Asap-Medium';font-size:8px">2</text><text transform="translate(194.316 11)" style="fill:#3a53a4;font-family:'Asap-Medium';font-size:8px">3</text><text transform="translate(276.162 11)" style="fill:#009147;font-family:'Asap-Medium';font-size:8px">4</text><rect x="7.29" y="80.94" style="fill:none;stroke:#ed2124;stroke-miterlimit:10" width="56.71" height="34"/><rect x="167.96" y="78.94" style="fill:none;stroke:#3a53a4;stroke-miterlimit:10" width="56.71" height="34"/><rect x="249.81" y="103.94" style="fill:none;stroke:#009147;stroke-miterlimit:10" width="56.71" height="34"/><rect x="167.96" y="129.27" style="fill:none;stroke:#3a53a4;stroke-miterlimit:10" width="56.71" height="34"/><rect x="7.29" y="129.27" style="fill:none;stroke:#ed2124;stroke-miterlimit:10" width="56.71" height="34"/><rect x="87.63" y="103.94" style="fill:none;stroke:#b9519e;stroke-miterlimit:10" width="56.71" height="34"/><polyline style="fill:none;stroke:#ed2124;stroke-miterlimit:10" points="64 97.94 75.34 97.94 75.34 146.27 64 146.27"/><line style="fill:none;stroke:#ed2124;stroke-miterlimit:10" x1="75.34" y1="122.1" x2="83.25" y2="122.1"/><polygon style="fill:#ed2124" points="79.94 126.19 79.26 125.46 82.87 122.1 79.26 118.75 79.94 118.02 84.34 122.1"/><polyline style="fill:none;stroke:#3a53a4;stroke-miterlimit:10" points="224.67 97.94 236 97.94 236 146.27 224.67 146.27"/><line style="fill:none;stroke:#3a53a4;stroke-miterlimit:10" x1="236" y1="122.1" x2="243.92" y2="122.1"/><polygon style="fill:#3a53a4" points="240.61 126.19 239.92 125.46 243.54 122.1 239.92 118.75 240.61 118.02 245 122.1"/><g><polyline style="fill:none;stroke:#b9519e;stroke-miterlimit:10" points="144.34 122.1 155.91 122.1 155.91 95.94 162.92 95.94"/><polygon style="fill:#b9519e" points="159.61 100.03 158.92 99.29 162.54 95.94 158.92 92.58 159.61 91.85 164 95.94"/></g><g><polyline style="fill:none;stroke:#b9519e;stroke-miterlimit:10" points="155.91 122.1 155.91 146.27 162.92 146.27"/><polygon style="fill:#b9519e" points="159.61 150.36 158.92 149.63 162.54 146.27 158.92 142.91 159.61 142.18 164 146.27"/></g></svg>