<svg version="1.1" xmlns="http://www.w3.org/2000/svg" x="0" y="0" viewBox="0 0 311.81 177.73" style="enable-background:new 0 0 311.81 177.73" xml:space="preserve"><line style="fill:none;stroke:#929497;stroke-width:.5;stroke-linejoin:round;stroke-dasharray:1.4173" x1="134.83" y1="121.51" x2="134.83" y2="146.06"/><text transform="translate(25.61 158.661)" style="fill:#231f20;font-family:'Asap-Regular';font-size:7px">0</text><text transform="translate(51.693 158.661)" style="fill:#231f20;font-family:'Asap-Regular';font-size:7px">1</text><text transform="translate(15.929 123.973)" style="fill:#231f20;font-family:'Asap-Regular';font-size:7px">1</text><text transform="translate(79.121 158.661)" style="fill:#231f20;font-family:'Asap-Regular';font-size:7px">2</text><text transform="translate(15.929 99.771)" style="fill:#231f20;font-family:'Asap-Regular';font-size:7px">2</text><text transform="translate(105.474 158.661)" style="fill:#231f20;font-family:'Asap-Regular';font-size:7px">3</text><text transform="translate(15.929 73.957)" style="fill:#231f20;font-family:'Asap-Regular';font-size:7px">3</text><text transform="translate(133.17 158.661)" style="fill:#231f20;font-family:'Asap-Regular';font-size:7px">4</text><text transform="translate(15.929 49.486)" style="fill:#231f20;font-family:'Asap-Regular';font-size:7px">4</text><text transform="translate(159.792 158.661)" style="fill:#231f20;font-family:'Asap-Regular';font-size:7px">5</text><text transform="translate(15.929 24.747)" style="fill:#231f20;font-family:'Asap-Regular';font-size:7px">5</text><text transform="translate(15.929 148.98)" style="fill:#231f20;font-family:'Asap-Regular';font-size:7px">0</text><line style="fill:none;stroke:#929497;stroke-width:.5;stroke-linejoin:round;stroke-dasharray:1.4173" x1="53.78" y1="144.68" x2="53.78" y2="47.2"/><text transform="translate(139.53 122.208)" style="fill:#231f20;font-family:'Asap-Regular';font-size:6.4537px">T, I</text><text transform="translate(112.372 71.971)" style="fill:#231f20;font-family:'Asap-Regular';font-size:6.4537px">I, I</text><text transform="translate(71.309 173.182)" style="fill:#231f20;font-family:'Asap-Medium';font-size:8px">Anil’s income</text><text transform="rotate(-90 59.28 51.519)" style="fill:#231f20;font-family:'Asap-Medium';font-size:8px">Bala’s income</text><line style="fill:none;stroke:#6d6e70;stroke-width:.5378;stroke-linecap:square;stroke-linejoin:round" x1="26.36" y1="22.43" x2="24.24" y2="22.43"/><line style="fill:none;stroke:#6d6e70;stroke-width:.5378;stroke-linecap:square;stroke-linejoin:round" x1="26.36" y1="47.2" x2="24.24" y2="47.2"/><line style="fill:none;stroke:#6d6e70;stroke-width:.5378;stroke-linecap:square;stroke-linejoin:round" x1="26.36" y1="71.97" x2="24.24" y2="71.97"/><line style="fill:none;stroke:#6d6e70;stroke-width:.5378;stroke-linecap:square;stroke-linejoin:round" x1="26.36" y1="96.74" x2="24.24" y2="96.74"/><line style="fill:none;stroke:#6d6e70;stroke-width:.5378;stroke-linecap:square;stroke-linejoin:round" x1="26.36" y1="121.51" x2="24.24" y2="121.51"/><line style="fill:none;stroke:#6d6e70;stroke-width:.5378;stroke-linecap:square;stroke-linejoin:round" x1="26.36" y1="146.29" x2="24.24" y2="146.29"/><line style="fill:none;stroke:#6d6e70;stroke-width:.5378;stroke-linecap:square;stroke-linejoin:round" x1="26.76" y1="146.29" x2="26.76" y2="22.43"/><line style="fill:none;stroke:#6d6e70;stroke-width:.5378;stroke-linecap:square;stroke-linejoin:round" x1="26.76" y1="146.29" x2="161.85" y2="146.29"/><line style="fill:none;stroke:#6d6e70;stroke-width:.5378;stroke-linecap:square;stroke-linejoin:round" x1="161.85" y1="146.68" x2="161.85" y2="148.81"/><line style="fill:none;stroke:#6d6e70;stroke-width:.5378;stroke-linecap:square;stroke-linejoin:round" x1="107.81" y1="146.68" x2="107.81" y2="148.81"/><line style="fill:none;stroke:#6d6e70;stroke-width:.5378;stroke-linecap:square;stroke-linejoin:round" x1="80.79" y1="148.81" x2="80.79" y2="146.68"/><line style="fill:none;stroke:#6d6e70;stroke-width:.5378;stroke-linecap:square;stroke-linejoin:round" x1="53.78" y1="146.68" x2="53.78" y2="148.81"/><line style="fill:none;stroke:#6d6e70;stroke-width:.5378;stroke-linecap:square;stroke-linejoin:round" x1="26.76" y1="146.68" x2="26.76" y2="148.81"/><line style="fill:none;stroke:#6d6e70;stroke-width:.5378;stroke-linecap:square;stroke-linejoin:round" x1="134.83" y1="146.68" x2="134.83" y2="148.81"/><line style="fill:none;stroke:#3a53a4;stroke-width:.5378;stroke-linecap:square;stroke-linejoin:round" x1="53.78" y1="146.68" x2="53.78" y2="22.43"/><line style="fill:none;stroke:#3a53a4;stroke-width:.5378;stroke-linecap:square;stroke-linejoin:round" x1="80.79" y1="146.68" x2="80.79" y2="22.43"/><line style="fill:none;stroke:#3a53a4;stroke-width:.5378;stroke-linecap:square;stroke-linejoin:round" x1="107.81" y1="146.68" x2="107.81" y2="22.43"/><line style="fill:none;stroke:#3a53a4;stroke-width:.5378;stroke-linecap:square;stroke-linejoin:round" x1="134.83" y1="145.89" x2="134.83" y2="21.63"/><circle style="fill:#231f20" cx="134.83" cy="121.51" r="1.13"/><circle style="fill:#231f20" cx="80.79" cy="97.04" r="1.13"/><circle style="fill:#231f20" cx="53.78" cy="47.2" r="1.13"/><circle style="fill:#231f20" cx="107.81" cy="71.97" r="1.13"/><text transform="translate(93.374 30.993)" style="font-family:'Asap-Regular';font-size:6px">Anil’s utility</text><text transform="translate(47.313 10.105)"><tspan x="0" y="0" style="font-family:'Asap-Medium';font-size:8px">Self-inte</tspan><tspan x="29.47" y="0" style="font-family:'Asap-Medium';font-size:8px">r</tspan><tspan x="32.24" y="0" style="font-family:'Asap-Medium';font-size:8px">est</tspan><tspan x="42.59" y="0" style="font-family:'Asap-Medium';font-size:8px">e</tspan><tspan x="46.82" y="0" style="font-family:'Asap-Medium';font-size:8px">d p</tspan><tspan x="57.85" y="0" style="font-family:'Asap-Medium';font-size:8px">r</tspan><tspan x="60.62" y="0" style="font-family:'Asap-Medium';font-size:8px">efe</tspan><tspan x="71.84" y="0" style="font-family:'Asap-Medium';font-size:8px">r</tspan><tspan x="74.61" y="0" style="font-family:'Asap-Medium';font-size:8px">ences</tspan></text><polygon style="fill:#f0e6f1" points="251.92 96.59 310.82 96.59 310.82 155.5"/><polygon style="fill:#e2e6f4" points="310.82 155.5 251.92 155.5 251.92 96.59"/><line style="fill:#929497;stroke:#fff;stroke-width:.5;stroke-miterlimit:10" x1="192.92" y1="96.29" x2="251.82" y2="155.19"/><line style="fill:none;stroke:#6d6e70;stroke-width:.5;stroke-miterlimit:10" x1="251.82" y1="24.28" x2="251.82" y2="37.69"/><polyline style="fill:#b8519d;stroke:#6d6e70;stroke-width:.499;stroke-miterlimit:10" points="192.92 25.02 192.92 12.62 310.72 12.62 310.72 25.02"/><polygon style="fill:#f0e6f1" points="251.92 37.69 310.82 37.69 310.82 96.59"/><polygon style="fill:#b8519d" points="192.82 37.69 251.72 37.69 251.72 96.59"/><polygon style="fill:#b8519d" points="192.82 96.59 251.72 96.59 251.72 155.5"/><polygon style="fill:#0872b9" points="251.72 155.5 192.82 155.5 192.82 96.59"/><polygon style="fill:#0872b9" points="251.72 96.59 192.82 96.59 192.82 37.69"/><polygon style="fill:#e2e6f4" points="310.99 96.59 252.09 96.59 252.09 37.69"/><line style="fill:#929497;stroke:#fff;stroke-width:.5;stroke-miterlimit:10" x1="251.82" y1="37.69" x2="310.72" y2="96.59"/><line style="fill:#929497;stroke:#fff;stroke-width:.5;stroke-miterlimit:10" x1="192.92" y1="37.69" x2="251.82" y2="96.59"/><line style="fill:#929497;stroke:#fff;stroke-width:.5;stroke-miterlimit:10" x1="251.82" y1="96.29" x2="310.72" y2="155.19"/><text transform="translate(217.146 33.943)" style="font-family:'Asap-Regular';font-size:6px">IPC</text><text transform="translate(267.1 33.944)" style="font-family:'Asap-Regular';font-size:6px">Toxic Tide</text><text transform="translate(244.1 21.714)" style="fill:#fff;font-family:'Asap-Regular';font-size:8px">Bala</text><line style="fill:none;stroke:#6d6e70;stroke-width:.5;stroke-miterlimit:10" x1="310.72" y1="25.02" x2="310.72" y2="39.69"/><line style="fill:none;stroke:#6d6e70;stroke-width:.5;stroke-miterlimit:10" x1="192.92" y1="37.69" x2="192.92" y2="25.02"/><text transform="translate(229.055 58.422)" style="fill:#fff;font-family:'Asap-Medium';font-size:10px">3</text><text transform="translate(206.326 82.902)" style="fill:#fff;font-family:'Asap-Medium';font-size:10px">3</text><text transform="translate(289.023 58.953)" style="fill:#231f20;font-family:'Asap-Medium';font-size:10px">4</text><text transform="translate(264.322 82.433)" style="fill:#231f20;font-family:'Asap-Medium';font-size:10px">1</text><text transform="translate(229.055 116.741)" style="fill:#fff;font-family:'Asap-Medium';font-size:10px">1</text><text transform="translate(206.326 140.387)" style="fill:#fff;font-family:'Asap-Medium';font-size:10px">4</text><text transform="translate(289.023 116.741)" style="fill:#231f20;font-family:'Asap-Medium';font-size:10px">2</text><text transform="translate(266.778 139.902)" style="fill:#231f20;font-family:'Asap-Medium';font-size:10px">2</text><polyline style="fill:#0872b9;stroke:#6d6e70;stroke-width:.499;stroke-miterlimit:10" points="180.59 155.5 168.19 155.5 168.19 37.69 180.59 37.69"/><text transform="rotate(-90 140.797 -36.486)" style="fill:#fff;font-family:'Asap-Regular';font-size:8px">Anil</text><line style="fill:none;stroke:#6d6e70;stroke-width:.5;stroke-miterlimit:10" x1="180.59" y1="37.69" x2="193.26" y2="37.69"/><line style="fill:none;stroke:#6d6e70;stroke-width:.5;stroke-miterlimit:10" x1="193.26" y1="155.5" x2="180.59" y2="155.5"/><line style="fill:none;stroke:#6d6e70;stroke-width:.5;stroke-miterlimit:10" x1="180.59" y1="96.59" x2="193.26" y2="96.59"/><g><text transform="rotate(-90 129.38 -58.962)" style="font-family:'Asap-Regular';font-size:6px">IPC</text></g><g><text transform="rotate(-90 165.07 -23.273)" style="font-family:'Asap-Regular';font-size:6px">Toxic Tide</text></g><g><line style="fill:none;stroke:#6d6e70;stroke-width:.5;stroke-linecap:square" x1="41.38" y1="34.19" x2="152.39" y2="34.19"/><polygon style="fill:#6d6e70" points="150.73 36.24 150.39 35.87 152.2 34.19 150.39 32.52 150.73 32.15 152.93 34.19"/></g><line style="fill:#929497;stroke:#fff;stroke-width:.5;stroke-miterlimit:10" x1="193.32" y1="96.68" x2="252.22" y2="155.58"/><line style="fill:none;stroke:#6d6e70;stroke-width:.5;stroke-miterlimit:10" x1="251.82" y1="37.69" x2="251.82" y2="155.5"/><line style="fill:none;stroke:#6d6e70;stroke-width:.5;stroke-miterlimit:10" x1="192.92" y1="96.59" x2="310.72" y2="96.59"/><rect x="192.92" y="37.69" style="fill:none;stroke:#6d6e70;stroke-width:.5;stroke-miterlimit:10" width="117.8" height="117.8"/></svg>