<svg xmlns="http://www.w3.org/2000/svg" viewBox="0 0 311.81 170"><g style="isolation:isolate"><path d="M37.61 129.78l267.42-75.12" style="fill:none;stroke:#3a53a4;stroke-linejoin:round;stroke-width:.5px"/></g><g style="isolation:isolate"><path d="M37.61 9.59c79.23 44.51 158.47 89.03 237.7 133.54" style="fill:none;stroke:#ed2124;stroke-linejoin:round;stroke-width:.5px"/></g><path d="M263.96 130.77s-.04-.07-.04-.14v-3.84c0-.06.01-.11.04-.14.03-.03.07-.04.14-.04h1.21c.56 0 1.01.17 1.35.5s.51.87.51 1.6-.17 1.27-.51 1.6-.79.5-1.35.5h-1.21c-.06 0-.11-.01-.14-.04zm1.31-.41c.4 0 .73-.13.98-.4.25-.26.37-.68.37-1.25s-.12-.98-.37-1.25-.57-.4-.98-.4h-.82v3.29h.82zM268.2 130.46c-.24-.26-.36-.66-.36-1.19s.12-.94.35-1.21c.24-.28.58-.41 1.04-.41.41 0 .72.13.92.4.21.27.31.66.31 1.17 0 .04-.02.09-.07.15s-.09.1-.13.1h-1.9c.02.33.11.58.26.73s.37.23.67.23a1.418 1.418 0 00.73-.19c.08-.05.13-.06.14-.06.04 0 .08.04.13.12s.08.14.08.18c0 .05-.05.1-.15.17a1.835 1.835 0 01-.93.22c-.5 0-.87-.13-1.11-.39zm1.74-1.44c0-.63-.24-.95-.72-.95-.52 0-.8.32-.84.95h1.56zM275.1 127.85c.19.14.28.39.28.76v2.08c0 .09-.08.13-.24.13h-.02c-.16 0-.24-.04-.24-.13v-2.03c0-.18-.05-.32-.15-.43a.58.58 0 00-.43-.16c-.26 0-.5.14-.74.42v2.2c0 .09-.08.13-.24.13h-.02c-.16 0-.24-.04-.24-.13v-2.03c0-.18-.05-.32-.15-.43a.58.58 0 00-.43-.16.74.74 0 00-.36.09c-.11.06-.2.13-.27.2a.66.66 0 00-.11.12v2.2c0 .09-.08.13-.24.13h-.02c-.16 0-.24-.04-.24-.13v-2.11c0-.26-.01-.45-.04-.57-.02-.11-.04-.18-.04-.19 0-.05.04-.08.11-.1.08-.02.15-.03.21-.03s.1.03.12.09c.03.06.05.12.06.18.01.06.02.11.03.13.11-.13.25-.24.41-.32s.33-.13.51-.13.35.04.51.11c.16.07.28.2.35.39.12-.14.27-.26.43-.36s.34-.14.52-.14c.25 0 .47.07.66.21zM276.41 130.62c-.19-.15-.28-.38-.28-.67 0-.32.09-.55.29-.71.19-.16.42-.26.7-.31.28-.05.61-.07 1.01-.08v-.28c0-.15-.05-.27-.16-.36-.1-.09-.27-.14-.5-.14-.18 0-.33.02-.46.06s-.24.08-.33.13-.14.06-.14.06c-.04 0-.09-.04-.14-.12s-.07-.14-.07-.18c0-.05.05-.11.16-.17.11-.06.25-.11.42-.15.18-.04.36-.06.55-.06.37 0 .66.08.87.25s.31.4.31.69v1.34c0 .26.01.45.04.57.02.11.04.18.04.19 0 .05-.04.08-.11.1-.08.02-.15.03-.21.03s-.1-.03-.12-.09a.664.664 0 01-.06-.2.49.49 0 00-.03-.13c-.27.3-.61.45-1.01.45-.31 0-.56-.08-.74-.23zm1.27-.32c.14-.07.29-.17.44-.31v-.71c-.3 0-.54.02-.74.04-.19.02-.36.08-.5.17-.14.09-.22.23-.22.43 0 .16.04.28.13.37s.21.13.38.13c.2 0 .37-.04.51-.11zM279.62 130.69v-2.11c0-.26-.01-.45-.04-.57-.02-.11-.04-.18-.04-.19 0-.05.04-.08.11-.1.08-.02.15-.03.21-.03s.1.03.12.09c.03.06.05.12.06.18.01.06.02.11.03.13.13-.14.27-.25.44-.33s.33-.12.5-.12c.3 0 .54.09.72.26s.26.41.26.71v2.08c0 .09-.08.13-.24.13h-.02c-.16 0-.24-.04-.24-.13v-2.03c0-.18-.05-.33-.16-.43-.11-.1-.26-.15-.45-.15-.14 0-.27.04-.41.11s-.25.18-.35.31v2.2c0 .09-.08.13-.24.13h-.02c-.16 0-.24-.04-.24-.13zM283.3 130.64c-.18-.14-.31-.33-.41-.57s-.14-.52-.14-.83c0-.34.05-.63.15-.87.1-.24.25-.42.43-.55.18-.12.4-.19.64-.19.18 0 .33.03.46.08s.26.13.39.23v-1.51c0-.09.08-.13.24-.13h.02c.16 0 .24.04.24.13v3.49c0 .26.01.45.04.57.02.11.04.18.04.19 0 .05-.04.08-.11.1-.08.02-.15.03-.21.03s-.1-.03-.12-.09a.664.664 0 01-.06-.2.49.49 0 00-.03-.13c-.29.3-.61.45-.95.45-.24 0-.44-.07-.62-.2zm1.14-.34c.14-.07.27-.17.39-.31v-1.64c-.22-.18-.46-.27-.74-.27s-.47.1-.61.29c-.14.19-.2.47-.2.83 0 .39.06.69.19.9s.31.31.55.31c.14 0 .27-.04.42-.11zM287.95 130.46c-.24-.26-.37-.67-.37-1.24s.14-.98.41-1.22c.27-.24.61-.37 1.01-.37.23 0 .44.03.62.08.18.06.28.12.28.19 0 .05-.02.12-.07.2-.05.08-.09.12-.12.12h-.03c-.01 0-.02-.01-.04-.01-.22-.1-.43-.14-.65-.14-.58 0-.87.38-.87 1.15 0 .42.07.73.21.92.14.19.38.28.72.28.24 0 .47-.05.68-.16l.07-.02s.08.04.13.12.07.14.07.19-.04.09-.13.14-.2.08-.34.12c-.14.03-.3.05-.47.05-.5 0-.87-.13-1.11-.38zM290.89 130.59c-.17-.17-.26-.41-.26-.71v-2.08c0-.09.08-.13.24-.13h.02c.16 0 .24.04.24.13v2.03c0 .18.05.33.16.43.11.1.26.15.45.15.14 0 .27-.04.4-.11.13-.08.25-.18.35-.31v-2.2c0-.09.08-.13.24-.13h.02c.16 0 .24.04.24.13v2.13c0 .26.01.45.04.57.02.11.04.18.04.19 0 .05-.04.08-.11.1-.08.02-.15.03-.21.03s-.1-.03-.12-.09a.664.664 0 01-.06-.2.49.49 0 00-.03-.13c-.13.14-.27.25-.44.33s-.33.12-.5.12c-.3 0-.54-.09-.72-.26zM294.06 130.69v-2.11c0-.26-.01-.45-.04-.57-.02-.11-.04-.18-.04-.19 0-.05.04-.08.11-.1.08-.02.15-.03.21-.03s.1.03.12.09c.03.06.05.12.06.18.01.06.02.11.03.13.21-.3.44-.45.7-.45.11 0 .2.02.26.07.06.04.09.1.09.17s-.01.14-.04.21c-.02.07-.05.11-.08.11-.02 0-.06-.01-.12-.03a.665.665 0 00-.21-.03c-.09 0-.18.03-.26.08a.91.91 0 00-.21.18c-.06.06-.08.1-.08.11v2.2c0 .09-.08.13-.24.13h-.02c-.16 0-.24-.04-.24-.13zM296.83 130.73l-.97-2.89s-.02-.06-.02-.08c0-.07.09-.1.26-.1h.03c.14 0 .22.03.24.1l.61 1.91c.04.13.11.38.21.75h.02l.04-.18c.04-.23.09-.41.14-.56l.62-1.93c.02-.06.1-.1.25-.1h.02c.15 0 .22.03.22.1 0 .02 0 .05-.02.08l-.97 2.88c-.02.06-.1.1-.24.1h-.21c-.14 0-.22-.03-.24-.1zM299.32 130.46c-.24-.26-.36-.66-.36-1.19s.12-.94.35-1.21c.24-.28.58-.41 1.04-.41.41 0 .72.13.92.4.21.27.31.66.31 1.17 0 .04-.02.09-.07.15s-.09.1-.13.1h-1.9c.02.33.11.58.26.73s.37.23.67.23a1.418 1.418 0 00.73-.19c.08-.05.13-.06.14-.06.04 0 .08.04.13.12s.08.14.08.18c0 .05-.05.1-.15.17a1.835 1.835 0 01-.93.22c-.5 0-.87-.13-1.11-.39zm1.74-1.44c0-.63-.24-.95-.72-.95-.52 0-.8.32-.84.95h1.56z" style="fill:#ed2124"/><path d="M264.14 47.35c-.2-.06-.36-.12-.46-.2-.08-.06-.11-.11-.11-.15 0-.05.03-.11.08-.2.05-.08.1-.13.13-.13.02 0 .06.02.13.06.12.07.26.13.4.17s.31.07.51.07c.23 0 .42-.07.57-.2.15-.13.22-.3.22-.51 0-.15-.04-.27-.12-.37s-.18-.18-.29-.23a3.97 3.97 0 00-.5-.21c-.23-.09-.42-.18-.55-.25a1.03 1.03 0 01-.35-.34c-.1-.15-.14-.35-.14-.59 0-.22.05-.41.17-.58s.27-.3.47-.39c.2-.09.44-.14.7-.14.14 0 .29.02.46.06s.3.09.39.15c.08.05.12.1.12.16 0 .04-.02.11-.07.19s-.09.13-.12.13c-.02 0-.05 0-.09-.03l-.08-.04c-.2-.1-.41-.16-.62-.16-.23 0-.42.06-.56.18-.14.12-.21.29-.21.5 0 .14.04.25.11.33.07.08.15.15.24.19.09.04.25.11.47.2.24.09.44.18.59.27s.28.21.39.37c.11.16.16.37.16.62 0 .36-.12.64-.36.85-.24.21-.56.31-.97.31-.24 0-.46-.03-.67-.08zM267.05 47.18c-.17-.17-.26-.41-.26-.71v-2.08c0-.09.08-.13.24-.13h.02c.16 0 .24.04.24.13v2.03c0 .18.05.33.16.43.11.1.26.15.45.15.14 0 .27-.04.4-.11.13-.08.25-.18.35-.31v-2.2c0-.09.08-.13.24-.13h.02c.16 0 .24.04.24.13v2.13c0 .26.01.45.04.57.02.11.04.18.04.19 0 .05-.04.08-.11.1-.08.02-.15.03-.21.03s-.1-.03-.12-.09a.664.664 0 01-.06-.2.49.49 0 00-.03-.13c-.13.14-.27.25-.44.33s-.33.12-.5.12c-.3 0-.54-.09-.72-.26zM270.2 48.52v-3.34c0-.26-.01-.45-.04-.57-.02-.11-.04-.18-.04-.19 0-.05.04-.08.11-.1.08-.02.15-.03.21-.03s.1.03.12.09c.03.06.05.12.06.18.01.06.02.11.03.13.29-.3.61-.45.95-.45.24 0 .45.07.63.21.17.14.31.33.4.57.09.24.14.52.14.83 0 .34-.05.63-.15.87-.1.24-.25.42-.43.55-.18.12-.4.19-.64.19-.18 0-.33-.03-.46-.08s-.26-.13-.39-.23v1.39c0 .09-.08.13-.24.13h-.02c-.16 0-.24-.04-.24-.13zm1.85-1.81c.14-.19.2-.47.2-.83 0-.39-.06-.69-.19-.9s-.31-.32-.55-.32a.94.94 0 00-.42.11c-.14.07-.27.17-.39.31v1.64c.22.18.46.27.74.27.26 0 .46-.1.6-.29zM273.63 48.52v-3.34c0-.26-.01-.45-.04-.57-.02-.11-.04-.18-.04-.19 0-.05.04-.08.11-.1.08-.02.15-.03.21-.03s.1.03.12.09c.03.06.05.12.06.18.01.06.02.11.03.13.29-.3.61-.45.95-.45.24 0 .45.07.63.21.17.14.31.33.4.57.09.24.14.52.14.83 0 .34-.05.63-.15.87-.1.24-.25.42-.43.55-.18.12-.4.19-.64.19-.18 0-.33-.03-.46-.08s-.26-.13-.39-.23v1.39c0 .09-.08.13-.24.13h-.02c-.16 0-.24-.04-.24-.13zm1.85-1.81c.14-.19.2-.47.2-.83 0-.39-.06-.69-.19-.9s-.31-.32-.55-.32a.94.94 0 00-.42.11c-.14.07-.27.17-.39.31v1.64c.22.18.46.27.74.27.26 0 .46-.1.6-.29zM277.28 47.25c-.16-.12-.24-.34-.24-.64v-3.59c0-.09.08-.13.24-.13h.02c.16 0 .24.04.24.13v3.54c0 .17.03.28.09.35.06.06.14.1.24.1.08 0 .13 0 .17-.01s.07-.01.09-.01c.04 0 .07.04.09.11.02.07.04.13.04.17 0 .12-.15.18-.44.18-.2 0-.38-.06-.54-.18zM281.11 44.35s0 .05-.02.08l-1.54 4.09c-.03.08-.13.13-.28.13h-.09c-.13 0-.2-.03-.2-.1 0-.02.01-.05.03-.1l.5-1.22-1.05-2.8s-.02-.06-.02-.08c0-.07.09-.1.26-.1h.05c.14 0 .22.03.24.1l.61 1.63c.06.18.13.38.19.61h.01s.02-.05.02-.08.02-.05.02-.07l.15-.45.6-1.63c.02-.06.1-.1.25-.1h.02c.16 0 .24.03.24.1zM283.34 47.05c-.24-.26-.37-.67-.37-1.24s.14-.98.41-1.22c.27-.24.61-.37 1.01-.37.23 0 .44.03.62.08.18.06.28.12.28.19 0 .05-.02.12-.07.2-.05.08-.09.12-.12.12h-.03c-.01 0-.02-.01-.04-.01-.22-.1-.43-.14-.65-.14-.58 0-.87.38-.87 1.15 0 .42.07.73.21.92.14.19.38.28.72.28.24 0 .47-.05.68-.16l.07-.02s.08.04.13.12.07.14.07.19-.04.09-.13.14-.2.08-.34.12c-.14.03-.3.05-.47.05-.5 0-.87-.13-1.11-.38zM286.28 47.18c-.17-.17-.26-.41-.26-.71v-2.08c0-.09.08-.13.24-.13h.02c.16 0 .24.04.24.13v2.03c0 .18.05.33.16.43.11.1.26.15.45.15.14 0 .27-.04.4-.11.13-.08.25-.18.35-.31v-2.2c0-.09.08-.13.24-.13h.02c.16 0 .24.04.24.13v2.13c0 .26.01.45.04.57.02.11.04.18.04.19 0 .05-.04.08-.11.1-.08.02-.15.03-.21.03s-.1-.03-.12-.09a.664.664 0 01-.06-.2.49.49 0 00-.03-.13c-.13.14-.27.25-.44.33s-.33.12-.5.12c-.3 0-.54-.09-.72-.26zM289.46 47.28v-2.11c0-.26-.01-.45-.04-.57-.02-.11-.04-.18-.04-.19 0-.05.04-.08.11-.1.08-.02.15-.03.21-.03s.1.03.12.09c.03.06.05.12.06.18.01.06.02.11.03.13.21-.3.44-.45.7-.45.11 0 .2.02.26.07.06.04.09.1.09.17s-.01.14-.04.21c-.02.07-.05.11-.08.11-.02 0-.06-.01-.12-.03a.665.665 0 00-.21-.03c-.09 0-.18.03-.26.08a.91.91 0 00-.21.18c-.06.06-.08.1-.08.11v2.2c0 .09-.08.13-.24.13h-.02c-.16 0-.24-.04-.24-.13zM292.22 47.32l-.97-2.89s-.02-.06-.02-.08c0-.07.09-.1.26-.1h.03c.14 0 .22.03.24.1l.61 1.91c.04.13.11.38.21.75h.02l.04-.18c.04-.23.09-.41.14-.56l.62-1.93c.02-.06.1-.1.25-.1h.02c.15 0 .22.03.22.1 0 .02 0 .05-.02.08l-.97 2.88c-.02.06-.1.1-.24.1h-.21c-.14 0-.22-.03-.24-.1zM294.71 47.05c-.24-.26-.36-.66-.36-1.19s.12-.94.35-1.21c.24-.28.58-.41 1.04-.41.41 0 .72.13.92.4.21.27.31.66.31 1.17 0 .04-.02.09-.07.15s-.09.1-.13.1h-1.9c.02.33.11.58.26.73s.37.23.67.23a1.418 1.418 0 00.73-.19c.08-.05.13-.06.14-.06.04 0 .08.04.13.12s.08.14.08.18c0 .05-.05.1-.15.17a1.835 1.835 0 01-.93.22c-.5 0-.87-.13-1.11-.39zm1.74-1.44c0-.63-.24-.95-.72-.95-.52 0-.8.32-.84.95h1.56z" style="fill:#3a53a4"/><polyline points="180.23 141.67 180.23 89.71 37.81 89.71" style="fill:none;stroke:#939598;stroke-dasharray:0 1.42;stroke-linejoin:round;stroke-width:.5px"/><path d="M178.74 85.58s0-.05.02-.08l1.42-3.94c.02-.06.1-.1.24-.1h.17c.14 0 .22.03.24.1l1.42 3.95s.02.05.02.08c0 .07-.09.1-.26.1h-.05c-.14 0-.22-.03-.24-.1l-.35-.98h-1.76l-.34.98c-.02.06-.1.1-.24.1H179c-.17 0-.26-.03-.26-.1zm2.47-1.43l-.63-1.79c-.02-.06-.04-.18-.07-.35h-.01c-.03.16-.06.28-.09.35l-.63 1.79h1.43z" style="fill:#231f20"/><circle cx="180.23" cy="89.71" r="1.13" style="fill:#231f20"/><line x1="37.81" y1="9.55" x2="35.68" y2="9.55" style="fill:none;stroke:#6d6e71;stroke-linecap:square;stroke-linejoin:round;stroke-width:.5px"/><line x1="37.81" y1="42.87" x2="35.68" y2="42.87" style="fill:none;stroke:#6d6e71;stroke-linecap:square;stroke-linejoin:round;stroke-width:.5px"/><line x1="37.81" y1="76.19" x2="35.68" y2="76.19" style="fill:none;stroke:#6d6e71;stroke-linecap:square;stroke-linejoin:round;stroke-width:.5px"/><line x1="37.81" y1="109.93" x2="35.68" y2="109.93" style="fill:none;stroke:#6d6e71;stroke-linecap:square;stroke-linejoin:round;stroke-width:.5px"/><line x1="37.81" y1="143.25" x2="35.68" y2="143.25" style="fill:none;stroke:#6d6e71;stroke-linecap:square;stroke-linejoin:round;stroke-width:.5px"/><line x1="37.81" y1="143.25" x2="37.81" y2="9.55" style="fill:none;stroke:#6d6e71;stroke-linecap:square;stroke-linejoin:round;stroke-width:.5px"/><line x1="305.23" y1="143.25" x2="305.23" y2="145.38" style="fill:none;stroke:#6d6e71;stroke-linecap:square;stroke-linejoin:round;stroke-width:.5px"/><line x1="275.28" y1="143.25" x2="275.28" y2="145.38" style="fill:none;stroke:#6d6e71;stroke-linecap:square;stroke-linejoin:round;stroke-width:.5px"/><line x1="245.75" y1="143.25" x2="245.75" y2="145.38" style="fill:none;stroke:#6d6e71;stroke-linecap:square;stroke-linejoin:round;stroke-width:.5px"/><line x1="215.81" y1="143.25" x2="215.81" y2="145.38" style="fill:none;stroke:#6d6e71;stroke-linecap:square;stroke-linejoin:round;stroke-width:.5px"/><line x1="186.28" y1="143.25" x2="186.28" y2="145.38" style="fill:none;stroke:#6d6e71;stroke-linecap:square;stroke-linejoin:round;stroke-width:.5px"/><line x1="156.33" y1="143.25" x2="156.33" y2="145.38" style="fill:none;stroke:#6d6e71;stroke-linecap:square;stroke-linejoin:round;stroke-width:.5px"/><line x1="126.81" y1="143.25" x2="126.81" y2="145.38" style="fill:none;stroke:#6d6e71;stroke-linecap:square;stroke-linejoin:round;stroke-width:.5px"/><line x1="96.86" y1="143.25" x2="96.86" y2="145.38" style="fill:none;stroke:#6d6e71;stroke-linecap:square;stroke-linejoin:round;stroke-width:.5px"/><line x1="67.34" y1="143.25" x2="67.34" y2="145.38" style="fill:none;stroke:#6d6e71;stroke-linecap:square;stroke-linejoin:round;stroke-width:.5px"/><line x1="37.81" y1="143.25" x2="37.81" y2="145.38" style="fill:none;stroke:#6d6e71;stroke-linecap:square;stroke-linejoin:round;stroke-width:.5px"/><line x1="37.81" y1="143.25" x2="305.23" y2="143.25" style="fill:none;stroke:#6d6e71;stroke-linecap:square;stroke-linejoin:round;stroke-width:.5px"/><g><path d="M145.36 168.22c-.41-.17-.81-.33-1.18-.47-1-.39-1.5-1.3-1.5-2.71 0-.93.21-1.65.64-2.14s1.04-.74 1.85-.74 1.43.25 1.86.74.64 1.2.64 2.14c0 .72-.13 1.31-.38 1.76-.26.46-.63.76-1.12.92v.04l1.47.47c.07.03.11.07.11.13 0 .04-.02.12-.05.22s-.08.2-.14.29c-.06.08-.11.13-.17.13-.04 0-.72-.26-2.02-.78zm1.01-1.6c.28-.37.42-.89.42-1.58s-.14-1.21-.42-1.58-.68-.55-1.2-.55-.91.18-1.19.55-.42.89-.42 1.58.14 1.21.42 1.58.67.55 1.19.55.92-.18 1.2-.55zM148.99 167.53c-.22-.23-.33-.54-.33-.96v-2.76c0-.13.12-.2.37-.2h.09c.25 0 .37.07.37.2v2.66c0 .22.06.39.18.51s.3.18.54.18c.17 0 .34-.05.5-.15.16-.1.29-.23.4-.38v-2.82c0-.13.12-.2.37-.2h.09c.25 0 .37.07.37.2v2.75c0 .36.02.62.05.78.03.16.05.25.05.27 0 .08-.07.13-.2.16s-.26.05-.37.05a.17.17 0 01-.17-.12c-.04-.08-.06-.17-.08-.26-.02-.09-.03-.15-.04-.18-.15.19-.34.33-.56.44-.22.11-.44.16-.67.16-.41 0-.72-.11-.94-.34zM153.28 167.57c-.23-.21-.35-.5-.35-.88 0-.54.22-.92.67-1.13.45-.22 1.07-.33 1.88-.33v-.34c0-.19-.06-.34-.19-.45-.13-.11-.33-.17-.62-.17-.22 0-.41.03-.57.08-.16.05-.3.1-.42.16-.11.06-.18.08-.2.08-.06 0-.13-.06-.2-.19-.08-.13-.12-.22-.12-.28 0-.08.07-.15.21-.24.14-.08.33-.15.56-.21.23-.06.48-.08.74-.08.53 0 .93.11 1.2.34.27.23.41.54.41.94v1.71c0 .36.02.62.05.78s.05.25.05.27c0 .08-.07.13-.2.16s-.25.05-.36.05c-.08 0-.15-.04-.18-.12s-.06-.17-.08-.26-.03-.15-.04-.18a1.8 1.8 0 01-.54.43c-.22.12-.47.18-.76.18-.41 0-.73-.1-.96-.31zm1.71-.52c.18-.1.34-.23.49-.39v-.8c-.52 0-.93.05-1.24.15-.31.1-.46.31-.46.62 0 .18.05.32.16.42s.25.15.44.15c.23 0 .44-.05.62-.14zM157.55 167.63v-2.73c0-.35-.02-.61-.05-.77s-.05-.25-.05-.27c0-.07.07-.13.2-.16s.26-.05.37-.05c.08 0 .14.04.17.11s.06.15.08.24c.02.08.03.14.04.18.16-.19.35-.33.57-.44s.44-.16.66-.16c.41 0 .72.11.94.34.22.23.33.55.33.96v2.76c0 .13-.12.2-.37.2h-.09c-.25 0-.37-.07-.37-.2v-2.66c0-.22-.06-.39-.18-.51s-.3-.18-.54-.18c-.17 0-.34.05-.5.15s-.29.22-.4.38v2.82c0 .13-.12.2-.37.2h-.09c-.25 0-.37-.07-.37-.2zM162.47 167.61c-.21-.18-.32-.48-.32-.89v-2.4h-.32c-.06 0-.11-.02-.14-.07-.03-.04-.04-.12-.04-.22v-.1c0-.1.01-.17.04-.22.03-.04.08-.07.14-.07h.32l.1-.82c.02-.13.12-.2.3-.2h.13c.19 0 .29.07.29.2v.82h.59c.06 0 .11.02.14.07.03.05.04.12.04.22v.1c0 .1-.01.17-.04.22-.03.05-.08.07-.14.07h-.59v2.36c0 .19.03.33.1.4.07.08.16.12.29.12.07 0 .14 0 .19-.02.05-.01.09-.02.12-.02.05 0 .1.06.14.17.04.12.06.2.06.26 0 .19-.21.29-.64.29-.29 0-.55-.09-.76-.27zM164.75 162.72v-.47c0-.15.14-.22.43-.22s.42.08.42.22v.47c0 .15-.14.22-.43.22s-.42-.07-.42-.22zm.02 4.91v-3.82c0-.13.12-.2.37-.2h.08c.25 0 .37.07.37.2v3.82c0 .13-.12.2-.37.2h-.08c-.25 0-.37-.07-.37-.2zM167.33 167.61c-.21-.18-.32-.48-.32-.89v-2.4h-.32c-.06 0-.11-.02-.14-.07-.03-.04-.04-.12-.04-.22v-.1c0-.1.01-.17.04-.22.03-.04.08-.07.14-.07h.32l.1-.82c.02-.13.12-.2.3-.2h.13c.19 0 .29.07.29.2v.82h.59c.06 0 .11.02.14.07.03.05.04.12.04.22v.1c0 .1-.01.17-.04.22-.03.05-.08.07-.14.07h-.59v2.36c0 .19.03.33.1.4.07.08.16.12.29.12.07 0 .14 0 .19-.02.05-.01.09-.02.12-.02.05 0 .1.06.14.17.04.12.06.2.06.26 0 .19-.21.29-.64.29-.29 0-.55-.09-.76-.27zM172.69 163.76s0 .07-.02.13l-1.99 5.42c-.04.11-.17.17-.39.17h-.13c-.22 0-.33-.05-.33-.14 0-.02.01-.06.04-.14l.62-1.55-1.38-3.77c-.02-.06-.02-.1-.02-.12 0-.1.13-.14.38-.14h.12c.21 0 .33.05.35.14l.72 1.98c.07.18.15.46.25.85h.02l.06-.22c.07-.26.14-.47.19-.63l.7-1.98c.03-.09.15-.14.37-.14h.07c.24 0 .36.05.36.14zM175.62 167.33c-.32-.37-.48-.89-.48-1.59s.16-1.23.49-1.6c.33-.37.79-.56 1.39-.56s1.06.19 1.38.56c.32.37.48.91.48 1.6s-.16 1.22-.47 1.59c-.31.37-.78.55-1.38.55s-1.08-.18-1.4-.55zm2.16-.49c.17-.24.25-.61.25-1.1s-.08-.87-.25-1.11c-.17-.24-.43-.36-.78-.36s-.6.12-.77.36c-.17.24-.25.61-.25 1.11s.08.86.24 1.1c.16.24.42.36.77.36s.61-.12.78-.36zM180.08 167.63v-3.32h-.27c-.06 0-.11-.02-.14-.07-.03-.04-.04-.12-.04-.22v-.1c0-.1.01-.17.04-.22.03-.04.08-.07.14-.07h.27v-.71c0-.43.1-.73.31-.9.21-.17.46-.26.76-.26.43 0 .64.09.64.28 0 .06-.02.15-.06.26-.04.12-.08.18-.14.18-.03 0-.07 0-.12-.02-.05-.01-.12-.02-.19-.02-.13 0-.23.04-.29.1-.07.07-.1.21-.1.42v.67h.61c.06 0 .11.02.14.07.03.05.04.12.04.22v.1c0 .1-.01.17-.04.22-.03.05-.08.07-.14.07h-.61v3.32c0 .13-.12.2-.37.2h-.09c-.24 0-.36-.07-.36-.2zM185.76 167.72c-.21-.1-.39-.25-.56-.44-.02.14-.06.29-.12.43-.02.05-.05.08-.09.1-.05.02-.11.03-.2.03h-.05c-.2 0-.3-.07-.3-.2V162c0-.13.12-.2.36-.2h.09c.25 0 .37.07.37.2v1.95c.15-.12.31-.21.48-.27.17-.06.36-.1.57-.1.5 0 .9.19 1.2.57s.44.9.44 1.58c0 .43-.06.8-.19 1.13s-.3.58-.54.76c-.23.18-.5.27-.81.27-.23 0-.45-.05-.65-.16zm1.12-.93c.15-.26.23-.63.23-1.11s-.08-.81-.25-1.05c-.17-.24-.41-.36-.74-.36-.16 0-.31.03-.46.08-.15.05-.29.12-.4.22v2.08c.14.17.29.29.46.39.17.09.33.14.5.14.29 0 .51-.13.66-.39zM189.24 167.33c-.32-.37-.48-.89-.48-1.59s.16-1.23.49-1.6c.33-.37.79-.56 1.39-.56s1.06.19 1.38.56c.32.37.48.91.48 1.6s-.16 1.22-.47 1.59-.78.55-1.38.55-1.08-.18-1.4-.55zm2.16-.49c.17-.24.25-.61.25-1.1s-.08-.87-.25-1.11c-.17-.24-.43-.36-.78-.36s-.6.12-.77.36c-.17.24-.25.61-.25 1.11s.08.86.24 1.1c.16.24.42.36.77.36s.61-.12.78-.36zM193.79 167.33c-.32-.37-.48-.89-.48-1.59s.16-1.23.49-1.6c.33-.37.79-.56 1.39-.56s1.06.19 1.38.56c.32.37.48.91.48 1.6s-.16 1.22-.47 1.59-.78.55-1.38.55-1.08-.18-1.4-.55zm2.16-.49c.17-.24.25-.61.25-1.1s-.08-.87-.25-1.11c-.17-.24-.43-.36-.78-.36s-.6.12-.77.36c-.17.24-.25.61-.25 1.11s.08.86.24 1.1c.16.24.42.36.77.36s.61-.12.78-.36zM201.4 167.72s-.03.07-.09.08c-.06.02-.16.03-.3.03h-.11c-.11 0-.21 0-.28-.02a.288.288 0 01-.17-.1l-1.46-1.88h-.03v1.8c0 .13-.12.2-.36.2h-.09c-.25 0-.37-.07-.37-.2v-5.64c0-.13.12-.2.37-.2h.09c.24 0 .36.07.36.2v3.46h.03l1.37-1.72c.07-.08.22-.12.45-.12h.1c.11 0 .19.01.24.03.06.02.08.05.08.08 0 .05-.03.1-.08.16l-1.37 1.71 1.54 1.98c.04.06.06.11.06.14zM202.55 167.81c-.2-.05-.36-.12-.48-.2s-.18-.16-.18-.24c0-.07.04-.16.12-.28.08-.12.15-.18.2-.18.01 0 .06.03.16.08s.21.11.33.15c.12.04.26.06.42.06.46 0 .7-.19.7-.56a.47.47 0 00-.18-.39c-.12-.09-.31-.18-.59-.28-.37-.11-.64-.26-.81-.44-.17-.18-.25-.44-.25-.76 0-.36.12-.65.38-.87.25-.22.58-.33.98-.33.28 0 .53.04.76.11.23.07.34.16.34.27 0 .08-.03.18-.1.3s-.13.18-.19.18c-.02 0-.09-.04-.22-.1-.12-.06-.29-.09-.5-.09-.19 0-.34.04-.46.12s-.18.19-.18.32c0 .17.06.3.17.4.11.1.29.19.53.28.28.1.5.19.66.3.16.1.27.23.34.38s.11.34.11.57c0 .25-.06.47-.19.66-.13.2-.3.35-.52.46-.22.11-.47.16-.75.16-.22 0-.43-.03-.63-.08zM205.07 168.74c-.06-.02-.09-.06-.09-.1 0-.04.02-.11.07-.22.08-.19.15-.38.2-.58.05-.2.07-.44.07-.71 0-.08.03-.15.09-.2.06-.05.15-.08.28-.08h.1c.12 0 .21.02.27.07.06.05.1.11.1.19 0 .29-.05.57-.16.82-.11.26-.23.46-.38.61-.14.15-.27.23-.37.23-.06 0-.13-.01-.18-.03zM210.67 167.97l-.55-.22c-.82-.33-1.24-1.05-1.25-2.17 0-.69.11-1.3.33-1.81.22-.51.54-.91.97-1.18.42-.28.93-.42 1.53-.42.73 0 1.28.2 1.66.59s.57.97.57 1.73c0 .86-.16 1.57-.48 2.12s-.77.92-1.33 1.1v.03l1.43.49s.07.04.08.06c.01.02.02.06.02.12 0 .27-.02.45-.05.54-.04.09-.08.13-.13.13-.06 0-.99-.37-2.79-1.11zm1.49-1.11c.28-.2.49-.49.65-.88.15-.39.23-.85.23-1.4s-.12-.96-.36-1.25c-.24-.29-.59-.43-1.04-.43-.37 0-.7.1-.98.3-.28.2-.5.49-.65.88-.15.39-.23.85-.23 1.4s.12.97.36 1.25c.24.29.59.43 1.05.43.37 0 .7-.1.98-.3z" style="fill:#231f20"/></g><path d="M36.98 153.36c-.24-.18-.43-.46-.57-.83-.15-.37-.22-.84-.22-1.39s.07-1.02.22-1.39c.14-.37.34-.65.57-.83s.5-.27.8-.27.56.09.81.27.44.46.58.83.22.84.22 1.39-.07 1.02-.22 1.39c-.14.37-.34.65-.58.83s-.51.27-.81.27-.56-.09-.8-.27zm1.3-.44c.15-.14.27-.35.37-.65.09-.3.14-.68.14-1.14s-.05-.84-.14-1.14c-.09-.3-.22-.51-.37-.65-.15-.13-.32-.2-.5-.2s-.34.07-.49.2c-.15.13-.27.35-.36.65-.09.3-.14.68-.14 1.14s.05.84.14 1.14c.09.3.21.51.36.65.15.13.32.2.49.2s.35-.07.5-.2zM66.41 153.56c-.2-.04-.36-.1-.47-.17-.11-.06-.17-.13-.17-.19 0-.07.03-.14.09-.22s.11-.13.15-.13c.02 0 .09.02.19.06.14.06.27.11.4.15.13.04.29.06.47.06.3 0 .56-.09.77-.27s.31-.43.31-.76-.11-.55-.32-.71c-.21-.16-.53-.25-.94-.25h-.6c-.07 0-.13-.02-.15-.05-.03-.03-.04-.09-.04-.16l.12-2.03c0-.07.02-.13.06-.16.04-.03.09-.05.16-.05h1.86c.05 0 .09.02.11.05.02.03.03.09.03.16v.08c0 .08-.01.13-.03.16-.02.03-.06.05-.11.05h-1.52l-.09 1.44h.36c.28 0 .55.05.81.14.26.09.47.25.64.47s.25.5.25.86c0 .56-.16.95-.49 1.18s-.72.35-1.19.35c-.24 0-.46-.02-.67-.07z" style="fill:#231f20"/><g><path d="M94.03 153.54s-.04-.09-.04-.16v-.08c0-.07.01-.13.04-.16.02-.03.06-.05.1-.05h1.22v-3.77l-1.24.21s-.08-.04-.1-.12a.672.672 0 01-.04-.24c0-.07.04-.11.13-.13l1.62-.36c.06 0 .11.01.15.04.04.03.07.06.07.11v4.26h1.04c.05 0 .09.02.11.05.02.03.03.09.03.16v.08c0 .07-.01.13-.03.16-.02.03-.06.05-.11.05h-2.84s-.08-.02-.1-.05zM98.51 153.36c-.24-.18-.43-.46-.57-.83-.15-.37-.22-.84-.22-1.39s.07-1.02.22-1.39c.14-.37.34-.65.57-.83s.5-.27.8-.27.56.09.81.27.44.46.58.83.22.84.22 1.39-.07 1.02-.22 1.39c-.14.37-.34.65-.58.83s-.51.27-.81.27-.56-.09-.8-.27zm1.3-.44c.15-.14.27-.35.37-.65.09-.3.14-.68.14-1.14s-.05-.84-.14-1.14c-.09-.3-.22-.51-.37-.65-.15-.13-.32-.2-.5-.2s-.34.07-.49.2c-.15.13-.27.35-.36.65-.09.3-.14.68-.14 1.14s.05.84.14 1.14c.09.3.21.51.36.65.15.13.32.2.49.2s.35-.07.5-.2z" style="fill:#231f20"/></g><g><path d="M123.56 153.54s-.04-.09-.04-.16v-.08c0-.07.01-.13.04-.16.02-.03.06-.05.1-.05h1.22v-3.77l-1.24.21s-.08-.04-.1-.12a.672.672 0 01-.04-.24c0-.07.04-.11.13-.13l1.62-.36c.06 0 .11.01.15.04.04.03.07.06.07.11v4.26h1.04c.05 0 .09.02.11.05.02.03.03.09.03.16v.08c0 .07-.01.13-.03.16-.02.03-.06.05-.11.05h-2.84s-.08-.02-.1-.05zM127.94 153.56c-.2-.04-.36-.1-.47-.17-.11-.06-.17-.13-.17-.19 0-.07.03-.14.09-.22s.11-.13.15-.13c.02 0 .09.02.19.06.14.06.27.11.4.15.13.04.29.06.47.06.3 0 .56-.09.77-.27s.31-.43.31-.76-.11-.55-.32-.71c-.21-.16-.53-.25-.94-.25h-.6c-.07 0-.13-.02-.15-.05-.03-.03-.04-.09-.04-.16l.12-2.03c0-.07.02-.13.06-.16.04-.03.09-.05.16-.05h1.86c.05 0 .09.02.11.05.02.03.03.09.03.16v.08c0 .08-.01.13-.03.16-.02.03-.06.05-.11.05h-1.52l-.09 1.44h.36c.28 0 .55.05.81.14.26.09.47.25.64.47s.25.5.25.86c0 .56-.16.95-.49 1.18s-.72.35-1.19.35c-.24 0-.46-.02-.67-.07z" style="fill:#231f20"/></g><g><path d="M153.15 153.49a.522.522 0 01-.04-.21c0-.06 0-.1.03-.12l1.81-2.27c.14-.19.25-.34.32-.46.07-.11.11-.21.13-.28.02-.08.03-.17.03-.28 0-.22-.08-.4-.23-.53-.16-.13-.37-.2-.64-.2-.2 0-.36.03-.49.08s-.26.12-.4.2a.54.54 0 01-.16.08c-.03 0-.08-.05-.14-.14-.06-.09-.09-.16-.09-.21 0-.09.07-.18.22-.26s.32-.14.52-.19.38-.07.52-.07c.46 0 .82.11 1.09.32.27.21.4.5.4.87 0 .23-.04.44-.1.61s-.2.39-.4.65-.56.72-1.1 1.37l-.51.62h2.02c.05 0 .09.02.11.05.02.03.03.09.03.16v.08c0 .07-.01.13-.03.16-.02.03-.06.05-.11.05h-2.67s-.07-.03-.1-.1zM157.56 153.36c-.24-.18-.43-.46-.57-.83-.15-.37-.22-.84-.22-1.39s.07-1.02.22-1.39c.14-.37.34-.65.57-.83s.5-.27.8-.27.56.09.81.27.44.46.58.83.22.84.22 1.39-.07 1.02-.22 1.39c-.14.37-.34.65-.58.83s-.51.27-.81.27-.56-.09-.8-.27zm1.3-.44c.15-.14.27-.35.37-.65.09-.3.14-.68.14-1.14s-.05-.84-.14-1.14c-.09-.3-.22-.51-.37-.65-.15-.13-.32-.2-.5-.2s-.34.07-.49.2c-.15.13-.27.35-.36.65-.09.3-.14.68-.14 1.14s.05.84.14 1.14c.09.3.21.51.36.65.15.13.32.2.49.2s.35-.07.5-.2z" style="fill:#231f20"/></g><g><path d="M185.1 153.49a.522.522 0 01-.04-.21c0-.06 0-.1.03-.12l1.81-2.27c.14-.19.25-.34.32-.46.07-.11.11-.21.13-.28s.03-.17.03-.28c0-.22-.08-.4-.23-.53s-.37-.2-.64-.2c-.2 0-.36.03-.49.08s-.27.12-.4.2a.54.54 0 01-.16.08c-.03 0-.08-.05-.14-.14s-.09-.16-.09-.21c0-.09.07-.18.22-.26.14-.08.32-.14.52-.19s.38-.07.53-.07c.46 0 .82.11 1.09.32.27.21.4.5.4.87 0 .23-.03.44-.1.61s-.2.39-.4.65-.56.72-1.1 1.37l-.51.62h2.02c.05 0 .09.02.11.05.02.03.03.09.03.16v.08c0 .07 0 .13-.03.16-.02.03-.06.05-.11.05h-2.67s-.07-.03-.1-.1zM189.41 153.56c-.2-.04-.36-.1-.47-.17-.12-.06-.17-.13-.17-.19 0-.07.03-.14.09-.22s.11-.13.15-.13c.02 0 .09.02.19.06.14.06.27.11.4.15.13.04.29.06.47.06.3 0 .56-.09.77-.27s.31-.43.31-.76-.11-.55-.32-.71c-.21-.16-.53-.25-.94-.25h-.59c-.08 0-.13-.02-.15-.05-.03-.03-.04-.09-.04-.16l.12-2.03c0-.07.02-.13.06-.16.04-.03.09-.05.16-.05h1.86c.05 0 .09.02.11.05.02.03.03.09.03.16v.08c0 .08-.01.13-.03.16-.02.03-.06.05-.11.05h-1.52l-.09 1.44h.36c.28 0 .55.05.8.14.26.09.47.25.64.47s.25.5.25.86c0 .56-.16.95-.49 1.18-.32.23-.72.35-1.19.35-.24 0-.46-.02-.67-.07z" style="fill:#231f20"/></g><g><path d="M213.23 153.57c-.21-.04-.38-.09-.51-.15-.12-.06-.19-.12-.19-.18s.03-.14.09-.22.11-.13.15-.13c.03 0 .1.02.2.06.3.13.6.19.91.19.26 0 .49-.07.7-.22.21-.15.31-.4.31-.74s-.09-.57-.27-.71c-.18-.14-.44-.21-.78-.21h-.23s-.08-.02-.1-.05a.31.31 0 01-.04-.16v-.08c0-.08.01-.13.04-.16.02-.03.06-.05.1-.05h.2c.22 0 .41-.05.54-.15.14-.1.24-.22.3-.36.06-.14.09-.28.09-.41 0-.17-.06-.33-.19-.47s-.34-.21-.64-.21c-.2 0-.36.02-.49.05-.13.04-.25.08-.37.13-.08.03-.13.05-.15.05-.04 0-.08-.05-.14-.14a.458.458 0 01-.09-.22c0-.1.15-.18.44-.26.29-.07.56-.11.81-.11.43 0 .77.11 1.03.32.26.21.38.52.38.92 0 .23-.07.43-.21.59s-.31.29-.51.37v.03c.23.06.44.21.62.43.18.23.27.51.27.85s-.08.61-.23.83-.35.38-.59.48-.48.15-.74.15-.5-.02-.71-.06zM217.03 153.36c-.24-.18-.43-.46-.57-.83-.14-.37-.22-.84-.22-1.39s.07-1.02.22-1.39.34-.65.57-.83c.24-.18.5-.27.8-.27s.56.09.8.27c.24.18.44.46.58.83s.22.84.22 1.39-.07 1.02-.22 1.39c-.14.37-.34.65-.58.83-.24.18-.51.27-.8.27s-.56-.09-.8-.27zm1.3-.44c.15-.14.27-.35.37-.65.09-.3.14-.68.14-1.14s-.05-.84-.14-1.14c-.09-.3-.22-.51-.37-.65-.15-.13-.32-.2-.5-.2s-.34.07-.49.2c-.15.13-.27.35-.36.65-.09.3-.14.68-.14 1.14s.04.84.14 1.14c.09.3.21.51.36.65.15.13.32.2.49.2s.35-.07.5-.2z" style="fill:#231f20"/></g><g><path d="M243.18 153.57c-.21-.04-.38-.09-.51-.15-.12-.06-.19-.12-.19-.18s.03-.14.09-.22.11-.13.15-.13c.03 0 .1.02.2.06.3.13.6.19.91.19.26 0 .49-.07.7-.22.21-.15.31-.4.31-.74s-.09-.57-.27-.71c-.18-.14-.44-.21-.78-.21h-.23s-.08-.02-.1-.05a.31.31 0 01-.04-.16v-.08c0-.08.01-.13.04-.16.02-.03.06-.05.1-.05h.2c.22 0 .41-.05.54-.15.14-.1.24-.22.3-.36.06-.14.09-.28.09-.41 0-.17-.06-.33-.19-.47s-.34-.21-.64-.21c-.2 0-.36.02-.49.05-.13.04-.25.08-.37.13-.08.03-.13.05-.15.05-.04 0-.08-.05-.14-.14a.458.458 0 01-.09-.22c0-.1.15-.18.44-.26.29-.07.56-.11.81-.11.43 0 .77.11 1.03.32.26.21.38.52.38.92 0 .23-.07.43-.21.59s-.31.29-.51.37v.03c.23.06.44.21.62.43.18.23.27.51.27.85s-.08.61-.23.83-.35.38-.59.48-.48.15-.74.15-.5-.02-.71-.06zM246.89 153.56c-.2-.04-.36-.1-.47-.17-.12-.06-.17-.13-.17-.19 0-.07.03-.14.09-.22s.11-.13.15-.13c.02 0 .09.02.19.06.14.06.27.11.4.15.13.04.29.06.47.06.3 0 .56-.09.77-.27s.31-.43.31-.76-.11-.55-.32-.71c-.21-.16-.53-.25-.94-.25h-.59c-.08 0-.13-.02-.15-.05-.03-.03-.04-.09-.04-.16l.12-2.03c0-.07.02-.13.06-.16.04-.03.09-.05.16-.05h1.86c.05 0 .09.02.11.05.02.03.03.09.03.16v.08c0 .08-.01.13-.03.16-.02.03-.06.05-.11.05h-1.52l-.09 1.44h.36c.28 0 .55.05.8.14.26.09.47.25.64.47s.25.5.25.86c0 .56-.16.95-.49 1.18-.32.23-.72.35-1.19.35-.24 0-.46-.02-.67-.07z" style="fill:#231f20"/></g><g><path d="M274.12 153.45v-1.03h-2.13s-.07-.04-.11-.13a.525.525 0 01-.06-.23c0-.04 0-.07.01-.08l2.3-3.21a.3.3 0 01.24-.1h.11c.14 0 .21.05.21.15v3.09h.47c.05 0 .09.02.11.05.02.03.03.09.03.16v.08c0 .07-.01.13-.03.16-.02.03-.06.05-.11.05h-.47v1.03c0 .1-.07.15-.21.15h-.16c-.14 0-.21-.05-.21-.15zm0-1.53v-2.06c0-.05.01-.12.04-.22h-.03l-1.61 2.28h1.6zM276.5 153.36c-.24-.18-.43-.46-.57-.83-.14-.37-.22-.84-.22-1.39s.07-1.02.22-1.39.34-.65.57-.83c.24-.18.5-.27.8-.27s.56.09.8.27c.24.18.44.46.58.83s.22.84.22 1.39-.07 1.02-.22 1.39c-.14.37-.34.65-.58.83-.24.18-.51.27-.8.27s-.56-.09-.8-.27zm1.3-.44c.15-.14.27-.35.37-.65.09-.3.14-.68.14-1.14s-.05-.84-.14-1.14c-.09-.3-.22-.51-.37-.65-.15-.13-.32-.2-.5-.2s-.34.07-.49.2c-.15.13-.27.35-.36.65-.09.3-.14.68-.14 1.14s.04.84.14 1.14c.09.3.21.51.36.65.15.13.32.2.49.2s.35-.07.5-.2z" style="fill:#231f20"/></g><g><path d="M304.06 153.45v-1.03h-2.13s-.07-.04-.11-.13a.525.525 0 01-.06-.23c0-.04 0-.07.01-.08l2.3-3.21a.3.3 0 01.24-.1h.11c.14 0 .21.05.21.15v3.09h.47c.05 0 .09.02.11.05.02.03.03.09.03.16v.08c0 .07-.01.13-.03.16-.02.03-.06.05-.11.05h-.47v1.03c0 .1-.07.15-.21.15h-.16c-.14 0-.21-.05-.21-.15zm0-1.53v-2.06c0-.05.01-.12.04-.22h-.03l-1.61 2.28h1.6zM306.36 153.56c-.2-.04-.36-.1-.47-.17-.12-.06-.17-.13-.17-.19 0-.07.03-.14.09-.22s.11-.13.15-.13c.02 0 .09.02.19.06.14.06.27.11.4.15.13.04.29.06.47.06.3 0 .56-.09.77-.27s.31-.43.31-.76-.11-.55-.32-.71c-.21-.16-.53-.25-.94-.25h-.59c-.08 0-.13-.02-.15-.05-.03-.03-.04-.09-.04-.16l.12-2.03c0-.07.02-.13.06-.16.04-.03.09-.05.16-.05h1.86c.05 0 .09.02.11.05.02.03.03.09.03.16v.08c0 .08-.01.13-.03.16-.02.03-.06.05-.11.05h-1.52l-.09 1.44h.36c.28 0 .55.05.8.14.26.09.47.25.64.47s.25.5.25.86c0 .56-.16.95-.49 1.18-.32.23-.72.35-1.19.35-.24 0-.46-.02-.67-.07z" style="fill:#231f20"/></g><g><path d="M8.97 92.36H3.82c-.09 0-.16-.02-.2-.06-.04-.04-.06-.11-.06-.2v-1.64c0-.48.11-.9.34-1.27.23-.37.66-.55 1.28-.55.45 0 .8.11 1.04.32s.42.45.5.71c.09.26.13.5.13.72v1.13h2.12c.13 0 .2.12.2.36v.13c0 .25-.07.37-.2.37zm-2.86-1.95c0-.22-.07-.42-.21-.61s-.38-.28-.73-.28-.56.1-.69.28c-.13.19-.2.42-.2.68v1.02H6.1v-1.1zM8.97 87.79H6.24c-.35 0-.61.02-.77.05-.16.03-.25.05-.27.05-.07 0-.13-.07-.16-.2s-.05-.26-.05-.37c0-.08.04-.14.11-.17.07-.04.15-.06.24-.08.09-.02.14-.03.18-.04-.41-.27-.61-.58-.61-.91 0-.15.04-.27.1-.35.07-.08.15-.12.25-.12s.2.02.32.06c.12.04.18.08.18.13 0 .03-.01.09-.04.16a.71.71 0 00-.04.26c0 .17.05.31.16.44s.21.22.3.28h2.82c.13 0 .2.12.2.36v.09c0 .25-.07.37-.2.37zM4.06 84.88h-.47c-.15 0-.22-.14-.22-.43s.07-.42.22-.42h.47c.15 0 .22.14.22.43s-.07.42-.22.42zm4.91-.02H5.15c-.13 0-.2-.12-.2-.37v-.08c0-.25.07-.37.2-.37h3.82c.13 0 .2.12.2.37v.08c0 .25-.07.37-.2.37zM8.69 82.52c-.34.33-.89.49-1.64.49s-1.3-.18-1.64-.53-.51-.83-.51-1.41c0-.31.04-.59.12-.85.08-.26.18-.39.3-.39.07 0 .17.04.3.11.13.07.19.14.19.2 0 0-.01.04-.04.1-.05.12-.1.25-.14.37s-.06.27-.06.44c0 .36.12.63.35.81.23.18.6.28 1.09.28.52 0 .9-.09 1.14-.26.24-.17.36-.46.36-.87 0-.19-.02-.35-.06-.48s-.09-.26-.15-.39c-.02-.06-.03-.1-.03-.1 0-.06.06-.12.18-.2.12-.08.21-.11.28-.11.12 0 .23.14.32.42.09.28.14.57.14.88 0 .67-.17 1.17-.52 1.5zM7.09 79.11c-.72 0-1.26-.16-1.63-.49-.37-.33-.55-.79-.55-1.4 0-.56.18-.98.54-1.26s.88-.42 1.54-.42c.05 0 .13.04.22.12.1.08.14.14.14.19v2.39c.41-.03.7-.14.88-.33.18-.19.28-.46.28-.82 0-.2-.02-.38-.07-.53-.05-.15-.1-.28-.16-.39s-.08-.17-.08-.19c0-.06.06-.13.18-.2.12-.08.21-.12.27-.12.09 0 .17.07.25.21.08.14.15.32.2.55s.08.45.08.68c0 1.33-.71 2-2.12 2zm-.36-2.72c-.37 0-.65.07-.84.21-.19.14-.29.35-.29.64 0 .6.38.94 1.14 1.01v-1.86zM10.07 75.07c-.02.06-.06.09-.1.09a.63.63 0 01-.22-.07c-.19-.08-.38-.15-.58-.2s-.44-.07-.71-.07c-.09 0-.15-.03-.2-.09-.05-.06-.08-.15-.08-.28v-.1c0-.12.02-.21.07-.27.05-.06.11-.1.19-.1.29 0 .57.05.82.16.26.11.46.23.61.38.15.14.23.27.23.37 0 .06-.01.13-.03.18zM9.12 71.26c-.03.05-.08.08-.15.08l-5.15-.54c-.09 0-.16-.03-.2-.08a.328.328 0 01-.06-.21v-1.66c0-.44.1-.83.3-1.17.2-.34.56-.5 1.08-.5s.92.12 1.2.36.48.5.57.8c.1.29.14.55.14.78v1.14l2.12.22c.13.02.2.15.2.39v.12c0 .13-.02.22-.05.27zm-3.01-2.18c0-.14-.03-.28-.09-.44-.06-.15-.17-.28-.33-.4s-.38-.17-.66-.17-.47.09-.58.26c-.11.17-.17.38-.17.63v1.02l1.82.19v-1.1zM10.74 63.4c-.45.43-1.02.77-1.7 1.02s-1.4.37-2.18.37-1.49-.12-2.16-.37c-.67-.25-1.25-.59-1.72-1.02-.06-.06-.1-.12-.1-.18s.03-.13.08-.2.11-.1.17-.1c.05 0 .11.02.17.06.48.35 1.02.62 1.63.81.61.19 1.25.28 1.93.28s1.33-.09 1.94-.28c.6-.18 1.14-.45 1.62-.8a.29.29 0 01.16-.06c.05 0 .11.03.17.1.06.07.09.13.09.2s-.03.13-.1.18zM9.75 60.76c0 .12-.05.18-.16.18h-.38c0 .41-.08.79-.22 1.13-.06.16-.12.28-.2.36-.07.09-.14.13-.2.13-.08 0-.19-.04-.32-.13s-.2-.16-.2-.21c0-.03.03-.09.09-.18.09-.17.17-.33.23-.5.06-.17.1-.37.1-.59H6.63c-.12.33-.24.59-.34.78-.11.2-.26.37-.47.51-.21.14-.48.22-.81.22-.42 0-.75-.14-1.02-.42s-.42-.64-.46-1.1h-.31c-.11 0-.16-.06-.16-.18v-.02c0-.11.05-.17.16-.17h.3c0-.19.03-.38.07-.58.04-.2.1-.36.17-.48.08-.14.16-.21.24-.21.07 0 .18.04.31.11.13.08.2.14.2.19 0 .03-.01.07-.04.13s-.05.1-.07.13c-.05.12-.09.23-.11.34-.03.11-.04.23-.05.37h1.67c.13-.33.25-.6.36-.8.11-.2.27-.37.48-.52.21-.14.48-.22.82-.22.48 0 .86.14 1.14.42.28.28.44.65.48 1.11h.39c.11 0 .16.06.16.17zm-5.48.18c.04.21.13.38.26.49s.29.17.49.17c.18 0 .33-.06.44-.17.11-.11.22-.27.32-.49h-1.5zm3.9-.84a.846.846 0 00-.55-.18c-.2 0-.36.06-.48.17-.12.11-.24.28-.33.49h1.65a.836.836 0 00-.28-.48zM10.75 58.66c-.06.07-.11.11-.17.11-.03 0-.07-.02-.13-.06-.48-.36-1.02-.63-1.63-.82s-1.26-.28-1.95-.28-1.33.09-1.94.28c-.6.18-1.15.45-1.62.8a.29.29 0 01-.16.06c-.05 0-.11-.03-.17-.1-.06-.07-.09-.13-.09-.2s.03-.13.1-.18c.45-.43 1.02-.77 1.7-1.02.68-.25 1.41-.37 2.18-.37s1.49.12 2.16.37 1.24.59 1.71 1.02c.06.05.1.11.1.18 0 .06-.03.13-.08.2z" style="fill:#231f20"/></g><path d="M25.73 145.35c-.24-.18-.43-.46-.57-.83-.15-.37-.22-.84-.22-1.39s.07-1.02.22-1.39c.14-.37.34-.65.57-.83s.5-.27.8-.27.56.09.81.27.44.46.58.83.22.84.22 1.39-.07 1.02-.22 1.39c-.14.37-.34.65-.58.83s-.51.27-.81.27-.56-.09-.8-.27zm1.3-.44c.15-.14.27-.35.37-.65.09-.3.14-.68.14-1.14s-.05-.84-.14-1.14c-.09-.3-.22-.51-.37-.65-.15-.13-.32-.2-.5-.2s-.34.07-.49.2c-.15.13-.27.35-.36.65-.09.3-.14.68-.14 1.14s.05.84.14 1.14c.09.3.21.51.36.65.15.13.32.2.49.2s.35-.07.5-.2zM25.64 112.23c-.2-.04-.36-.1-.47-.17-.11-.06-.17-.13-.17-.19 0-.07.03-.14.09-.22s.11-.13.15-.13c.02 0 .09.02.19.06.14.06.27.11.4.15.13.04.29.06.47.06.3 0 .56-.09.77-.27s.31-.43.31-.76-.11-.55-.32-.71c-.21-.16-.53-.25-.94-.25h-.6c-.07 0-.13-.02-.15-.05-.03-.03-.04-.09-.04-.16l.12-2.03c0-.07.02-.13.06-.16.04-.03.09-.05.16-.05h1.86c.05 0 .09.02.11.05.02.03.03.09.03.16v.08c0 .08-.01.13-.03.16-.02.03-.06.05-.11.05h-1.52l-.09 1.44h.36c.28 0 .55.05.81.14.26.09.47.25.64.47s.25.5.25.86c0 .56-.16.95-.49 1.18s-.72.35-1.19.35c-.24 0-.46-.02-.67-.07z" style="fill:#231f20"/><g><path d="M21.63 78.88s-.04-.09-.04-.16v-.08c0-.07.01-.13.04-.16.02-.03.06-.05.1-.05h1.22v-3.77l-1.24.21s-.08-.04-.1-.12a.672.672 0 01-.04-.24c0-.07.04-.11.13-.13l1.62-.36c.06 0 .11.01.15.04.04.03.07.06.07.11v4.26h1.04c.05 0 .09.02.11.05.02.03.03.09.03.16v.08c0 .07-.01.13-.03.16-.02.03-.06.05-.11.05h-2.84s-.08-.02-.1-.05zM26.1 78.7c-.24-.18-.43-.46-.57-.83-.15-.37-.22-.84-.22-1.39s.07-1.02.22-1.39c.14-.37.34-.65.57-.83s.5-.27.8-.27.56.09.81.27.44.46.58.83.22.84.22 1.39-.07 1.02-.22 1.39c-.14.37-.34.65-.58.83s-.51.27-.81.27-.56-.09-.8-.27zm1.3-.44c.15-.14.27-.35.37-.65.09-.3.14-.68.14-1.14s-.05-.84-.14-1.14c-.09-.3-.22-.51-.37-.65-.15-.13-.32-.2-.5-.2s-.34.07-.49.2c-.15.13-.27.35-.36.65-.09.3-.14.68-.14 1.14s.05.84.14 1.14c.09.3.21.51.36.65.15.13.32.2.49.2s.35-.07.5-.2z" style="fill:#231f20"/></g><g><path d="M21.63 45.56s-.04-.09-.04-.16v-.08c0-.07.01-.13.04-.16.02-.03.06-.05.1-.05h1.22v-3.77l-1.24.21s-.08-.04-.1-.12a.672.672 0 01-.04-.24c0-.07.04-.11.13-.13l1.62-.36c.06 0 .11.01.15.04.04.03.07.06.07.11v4.26h1.04c.05 0 .09.02.11.05.02.03.03.09.03.16v.08c0 .07-.01.13-.03.16-.02.03-.06.05-.11.05h-2.84s-.08-.02-.1-.05zM26.01 45.58c-.2-.04-.36-.1-.47-.17-.11-.06-.17-.13-.17-.19 0-.07.03-.14.09-.22s.11-.13.15-.13c.02 0 .09.02.19.06.14.06.27.11.4.15.13.04.29.06.47.06.3 0 .56-.09.77-.27s.31-.43.31-.76-.11-.55-.32-.71c-.21-.16-.53-.25-.94-.25h-.6c-.07 0-.13-.02-.15-.05-.03-.03-.04-.09-.04-.16l.12-2.03c0-.07.02-.13.06-.16.04-.03.09-.05.16-.05h1.86c.05 0 .09.02.11.05.02.03.03.09.03.16v.08c0 .08-.01.13-.03.16-.02.03-.06.05-.11.05h-1.52l-.09 1.44h.36c.28 0 .55.05.81.14.26.09.47.25.64.47s.25.5.25.86c0 .56-.16.95-.49 1.18s-.72.35-1.19.35c-.24 0-.46-.02-.67-.07z" style="fill:#231f20"/></g><g><path d="M21.69 12.19a.522.522 0 01-.04-.21c0-.06 0-.1.03-.12l1.81-2.27c.14-.19.25-.34.32-.46.07-.11.11-.21.13-.28.02-.08.03-.17.03-.28 0-.22-.08-.4-.23-.53-.16-.13-.37-.2-.64-.2-.2 0-.36.03-.49.08s-.26.12-.4.2a.54.54 0 01-.16.08c-.03 0-.08-.05-.14-.14-.06-.09-.09-.16-.09-.21 0-.09.07-.18.22-.26s.32-.14.52-.19.38-.07.52-.07c.46 0 .82.11 1.09.32.27.21.4.5.4.87 0 .23-.04.44-.1.61s-.2.39-.4.65-.56.72-1.1 1.37l-.51.62h2.02c.05 0 .09.02.11.05.02.03.03.09.03.16v.08c0 .07-.01.13-.03.16-.02.03-.06.05-.11.05h-2.67s-.07-.03-.1-.1zM26.1 12.06c-.24-.18-.43-.46-.57-.83-.15-.37-.22-.84-.22-1.39s.07-1.02.22-1.39c.14-.37.34-.65.57-.83s.5-.27.8-.27.56.09.81.27.44.46.58.83.22.84.22 1.39-.07 1.02-.22 1.39c-.14.37-.34.65-.58.83s-.51.27-.81.27-.56-.09-.8-.27zm1.3-.44c.15-.14.27-.35.37-.65.09-.3.14-.68.14-1.14s-.05-.84-.14-1.14c-.09-.3-.22-.51-.37-.65-.15-.13-.32-.2-.5-.2s-.34.07-.49.2c-.15.13-.27.35-.36.65-.09.3-.14.68-.14 1.14s.05.84.14 1.14c.09.3.21.51.36.65.15.13.32.2.49.2s.35-.07.5-.2z" style="fill:#231f20"/></g><g><path d="M177.7 153.74l-.48-.2c-.73-.28-1.1-.92-1.1-1.9 0-.64.1-1.18.3-1.63.2-.45.48-.79.85-1.02s.8-.34 1.31-.34c.63 0 1.11.17 1.43.51.33.34.49.85.49 1.51 0 .79-.15 1.43-.45 1.93-.3.5-.71.82-1.24.95v.03l1.36.44s.05.03.07.05a.2.2 0 01.02.09c0 .21-.01.34-.04.42-.03.07-.06.11-.11.11-.06 0-.86-.31-2.4-.94zm1.32-.9c.26-.18.47-.45.61-.81.14-.35.22-.78.22-1.28s-.12-.91-.34-1.18-.56-.41-.99-.41c-.35 0-.65.09-.91.28-.26.18-.47.46-.62.82-.15.36-.22.79-.22 1.29s.12.89.35 1.16c.23.27.56.4.99.4.35 0 .66-.09.92-.28zM181.36 150.64s-.05-.06-.05-.09.01-.06.04-.09l.5-.69-.69-.22c-.07-.02-.1-.05-.1-.11s.01-.09.04-.12.05-.05.09-.05h.06l.69.22v-.74c0-.09.05-.14.14-.14s.14.05.14.14v.74l.69-.22h.06c.03 0 .06.02.09.05.03.03.04.07.04.12 0 .06-.03.09-.1.11l-.69.22.5.69s.04.06.04.09-.02.06-.05.09-.07.04-.1.04a.11.11 0 01-.1-.06l-.51-.71-.51.71s-.06.06-.1.06c-.03 0-.07-.01-.1-.04z" style="fill:#231f20"/></g><g><path d="M25.77 91.11s-.06-.06-.06-.12l.48-4.55c0-.07.03-.13.06-.16.04-.03.09-.05.17-.05h1.42c.38 0 .71.08 1 .25.29.17.43.47.43.92s-.1.79-.31 1.03c-.21.25-.43.41-.69.49-.25.08-.47.12-.67.12h-1.08l-.2 1.95c-.01.1-.11.15-.29.15h-.06c-.1 0-.17-.01-.21-.04zm1.91-2.59c.12 0 .25-.03.4-.09.14-.06.27-.16.38-.32.11-.15.17-.36.17-.63s-.08-.45-.25-.56c-.17-.11-.38-.16-.61-.16h-.99l-.18 1.75h1.09zM29.9 88.19s-.05-.06-.05-.09.01-.06.04-.09l.5-.69-.69-.22c-.07-.02-.1-.05-.1-.11s.01-.09.04-.12.05-.05.09-.05h.06l.69.22v-.74c0-.09.05-.14.14-.14s.14.05.14.14v.74l.69-.22h.06c.03 0 .06.02.09.05.03.03.04.07.04.12 0 .06-.03.09-.1.11l-.69.22.5.69s.04.06.04.09-.02.06-.05.09-.07.04-.1.04a.11.11 0 01-.1-.06l-.51-.71-.51.71s-.06.06-.1.06c-.03 0-.07-.01-.1-.04z" style="fill:#231f20"/></g></svg>