<svg version="1.1" xmlns="http://www.w3.org/2000/svg" x="0" y="0" viewBox="0 0 311.81 198.58" style="enable-background:new 0 0 311.81 198.58" xml:space="preserve"><path style="fill:#fee6da" d="M35.13 52.18c1.58 2.12 3.38 4.48 5.42 7 2.46 3.05 4.58 5.52 6.09 7.23 2.28 2.58 5.61 6.23 9.79 10.39 2.37 2.35 7.56 7.39 14.66 13.28 2.62 2.17 12.36 10.14 26.53 18.97 11.83 7.37 21.38 11.96 29.21 15.7 5.08 2.43 10.05 4.79 16.89 7.48 4.26 1.67 10.89 4.12 25.79 8.3 9.89 2.77 21.22 5.93 36.76 9.15 7.94 1.65 20.84 4.29 37.73 6.27 7.61.89 17.79 1.8 38.14 3.6 3.7.33 6.75.59 8.8.77v7.24H35.13V52.18z"/><path style="fill:none;stroke:#ec2427;stroke-width:.5;stroke-miterlimit:10" d="M290.93 160.31c-4.47-.39-11.05-.96-19.01-1.69-18.01-1.65-27.02-2.48-33.83-3.39-14.99-2-26.44-4.41-33.55-5.93-12.58-2.68-21.98-5.21-28.79-7.06-8.76-2.37-15-4.27-20.13-5.93-5.18-1.67-8.78-2.85-13.7-4.8-5.84-2.32-10.28-4.46-15.1-6.78-5.07-2.44-8.92-4.45-11.74-5.93-4.56-2.39-8.89-4.75-11.46-6.21-16.15-9.15-30.2-20.6-31.59-21.74-9.16-7.51-15.65-14.05-18.45-16.94a214.94 214.94 0 01-18.45-21.74"/><line style="fill:none;stroke:#d5daee;stroke-width:.5" x1="291.38" y1="135.29" x2="35.13" y2="135.29"/><line style="fill:none;stroke:#6e6f72;stroke-width:.5;stroke-miterlimit:10" x1="290.93" y1="167.55" x2="34.73" y2="167.55"/><line style="fill:none;stroke:#6e6f72;stroke-width:.5;stroke-miterlimit:10" x1="35.13" y1="6" x2="35.13" y2="167.55"/><line style="fill:none;stroke:#6e6f71;stroke-width:.5;stroke-linecap:square" x1="290.74" y1="167.55" x2="290.74" y2="170.07"/><line style="fill:none;stroke:#6e6f71;stroke-width:.5;stroke-linecap:square" x1="35.13" y1="167.55" x2="35.13" y2="170.07"/><line style="fill:none;stroke:#6e6f71;stroke-width:.5;stroke-linecap:square" x1="35.13" y1="167.55" x2="32.6" y2="167.55"/><line style="fill:none;stroke:#6e6f71;stroke-width:.5;stroke-linecap:square" x1="35.13" y1="151.42" x2="32.6" y2="151.42"/><line style="fill:none;stroke:#6e6f71;stroke-width:.5;stroke-linecap:square" x1="35.13" y1="135.29" x2="32.6" y2="135.29"/><line style="fill:none;stroke:#6e6f71;stroke-width:.5;stroke-linecap:square" x1="35.13" y1="119.17" x2="32.6" y2="119.17"/><line style="fill:none;stroke:#6e6f71;stroke-width:.5;stroke-linecap:square" x1="35.13" y1="54.66" x2="32.6" y2="54.66"/><line style="fill:none;stroke:#6e6f71;stroke-width:.5;stroke-linecap:square" x1="35.13" y1="70.79" x2="32.6" y2="70.79"/><line style="fill:none;stroke:#6e6f71;stroke-width:.5;stroke-linecap:square" x1="35.13" y1="86.92" x2="32.6" y2="86.92"/><line style="fill:none;stroke:#6e6f71;stroke-width:.5;stroke-linecap:square" x1="35.13" y1="103.04" x2="32.6" y2="103.04"/><line style="fill:none;stroke:#6e6f71;stroke-width:.5;stroke-linecap:square" x1="35.13" y1="6.28" x2="32.6" y2="6.28"/><line style="fill:none;stroke:#6e6f71;stroke-width:.5;stroke-linecap:square" x1="35.13" y1="22.41" x2="32.6" y2="22.41"/><line style="fill:none;stroke:#6e6f71;stroke-width:.5;stroke-linecap:square" x1="35.13" y1="38.54" x2="32.6" y2="38.54"/><line style="fill:none;stroke:#6e6f71;stroke-width:.5;stroke-linecap:square" x1="259.35" y1="167.55" x2="259.35" y2="170.07"/><line style="fill:none;stroke:#6e6f71;stroke-width:.5;stroke-linecap:square" x1="195.29" y1="167.55" x2="195.29" y2="170.07"/><line style="fill:none;stroke:#6e6f71;stroke-width:.5;stroke-linecap:square" x1="227.32" y1="167.55" x2="227.32" y2="170.07"/><line style="fill:none;stroke:#6e6f71;stroke-width:.5;stroke-linecap:square" x1="163.25" y1="167.55" x2="163.25" y2="170.07"/><line style="fill:none;stroke:#6e6f71;stroke-width:.5;stroke-linecap:square" x1="131.22" y1="167.55" x2="131.22" y2="170.07"/><line style="fill:none;stroke:#6e6f71;stroke-width:.5;stroke-linecap:square" x1="99.19" y1="167.55" x2="99.19" y2="170.07"/><line style="fill:none;stroke:#6e6f71;stroke-width:.5;stroke-linecap:square" x1="67.16" y1="167.55" x2="67.16" y2="170.07"/><text transform="translate(114.334 194.721)"><tspan x="0" y="0" style="fill:#010101;font-family:'Asap-Medium';font-size:8px">Quantity of Cheerios, </tspan><tspan x="76.05" y="0" style="fill:#010101;font-family:'Asap-MediumItalic';font-size:8px">Q</tspan><tspan x="81.9" y="0" style="fill:#010101;font-family:'Asap-Medium';font-size:8px"> (pounds)</tspan></text><text transform="rotate(-90 71.165 60.824)"><tspan x="0" y="0" style="fill:#010101;font-family:'Asap-Medium';font-size:8px">Price, </tspan><tspan x="21.3" y="0" style="fill:#010101;font-family:'Asap-MediumItalic';font-size:8px">P</tspan><tspan x="25.86" y="0" style="fill:#010101;font-family:'Asap-Medium';font-size:8px"> (dollars per pound)</tspan></text><text transform="translate(25.318 170.073)" style="fill:#010101;font-family:'Asap-Regular';font-size:7px">0</text><text transform="translate(33.604 179.743)" style="fill:#010101;font-family:'Asap-Regular';font-size:7px">0</text><text transform="translate(21.574 7.97)" style="fill:#010101;font-family:'Asap-Regular';font-size:7px">10</text><text transform="translate(288.922 179.743)" style="fill:#010101;font-family:'Asap-Regular';font-size:7px">80,000</text><text transform="translate(254.962 179.743)" style="fill:#010101;font-family:'Asap-Regular';font-size:7px">70,000</text><text transform="translate(221 179.743)" style="fill:#010101;font-family:'Asap-Regular';font-size:7px">60,000</text><text transform="translate(187.04 179.743)" style="fill:#010101;font-family:'Asap-Regular';font-size:7px">50,000</text><text transform="translate(153.08 179.743)" style="fill:#010101;font-family:'Asap-Regular';font-size:7px">40,000</text><text transform="translate(119.12 179.743)" style="fill:#010101;font-family:'Asap-Regular';font-size:7px">30,000</text><text transform="translate(85.16 179.743)" style="fill:#010101;font-family:'Asap-Regular';font-size:7px">20,000</text><text transform="translate(51.2 179.743)" style="fill:#010101;font-family:'Asap-Regular';font-size:7px">10,000</text><text transform="translate(25.318 24.18)" style="fill:#010101;font-family:'Asap-Regular';font-size:7px">9</text><text transform="translate(25.318 40.39)" style="fill:#010101;font-family:'Asap-Regular';font-size:7px">8</text><text transform="translate(25.318 56.6)" style="fill:#010101;font-family:'Asap-Regular';font-size:7px">7</text><text transform="translate(25.318 72.81)" style="fill:#010101;font-family:'Asap-Regular';font-size:7px">6</text><text transform="translate(25.318 89.02)" style="fill:#010101;font-family:'Asap-Regular';font-size:7px">5</text><text transform="translate(25.318 105.23)" style="fill:#010101;font-family:'Asap-Regular';font-size:7px">4</text><text transform="translate(25.318 121.441)" style="fill:#010101;font-family:'Asap-Regular';font-size:7px">3</text><text transform="translate(25.318 137.652)" style="fill:#010101;font-family:'Asap-Regular';font-size:7px">2</text><text transform="translate(25.318 153.862)" style="fill:#010101;font-family:'Asap-Regular';font-size:7px">1</text><path style="fill:none;stroke:#a2b1db;stroke-width:.5" d="M38.69 6.28c.87 13.53 1.52 24.49 1.94 31.96 0 0 .53 9.34 1.94 27.55.72 9.23 1.25 15.3 3.33 23.14 1.08 4.06 2.08 8.23 4.44 12.95 1.21 2.41 2.95 5.84 6.11 9.37 4.93 5.51 10.45 8 14.15 9.64 4.44 1.98 7.83 2.73 13.88 4.06 3.15.69 8.5 1.75 19.01 2.97 2.72.32 11.16 1.26 25.17 2.1 5.83.35 11.15.59 19.36.87 18.53.64 32.71.86 33.79.87 20.96.31 59.47.9 109.28 1.57"/><path style="fill:none;stroke:#5c73b8;stroke-width:.5" d="M48.34 6.28c.55 5.24 1.41 12.37 2.78 20.8 1.43 8.78 2.76 16.78 5.56 26.9 2.77 9.99 4.51 16.27 8.9 24.13 2.08 3.72 5.62 9.94 12.24 16.36 7.61 7.38 15.16 11.01 19.47 13.04 1.76.83 6.36 2.92 16.97 5.82 13.66 3.75 24.49 5.34 27.82 5.82 18.09 2.61 33.88 3.9 50.07 4.99 9.36.63 24.27 1.55 46.74 2.5 13.7.58 31.35 1.21 52.02 1.66"/><path style="fill:none;stroke:#273b72;stroke-width:.5" d="M58.92 6.28c.61 3.6 1.49 8.25 2.78 13.62.81 3.37 2.8 11.28 6.4 21.4 2.57 7.24 3.86 10.87 6.4 15.84 4.39 8.62 9.05 14.5 10.85 16.68 7.16 8.69 14.12 13.77 15.86 15.01 5.54 3.96 10.19 6.18 14.74 8.34 4.12 1.95 10.03 4.47 20.03 7.51 12.81 3.88 22.71 5.68 34.5 7.78 11.36 2.03 21.05 3.32 28.38 4.17 3.5.41 5.99.65 28.38 2.5 17.61 1.45 26.5 2.19 31.16 2.5 8.06.54 19.17 1.2 32.55 1.67"/><circle style="fill:#231f20" cx="60.36" cy="114.87" r="1.13"/><text transform="translate(56.191 148.948)" style="fill:#ec2427;font-family:'Asap-Regular';font-size:6px">Feasible set</text><text transform="translate(64.101 114.875)" style="fill:#010101;font-family:'Asap-Regular';font-size:6px">(8,000, 3.25)</text><text transform="translate(229.443 17.997)" style="fill:#010101;font-family:'Asap-Regular';font-size:6px">Demand curve</text><circle style="fill:#ec2427" cx="223.26" cy="16.16" r="2.13"/><text transform="translate(229.443 54.684)" style="fill:#010101;font-family:'Asap-Regular';font-size:6px">Isoprofit curve: $0</text><circle style="fill:#d5daee" cx="223.26" cy="52.84" r="2.13"/><text transform="translate(229.443 45.512)" style="fill:#010101;font-family:'Asap-Regular';font-size:6px">Isoprofit curve: $10,000</text><circle style="fill:#a2b1db" cx="223.26" cy="43.67" r="2.13"/><g><text transform="translate(229.444 36.34)" style="fill:#010101;font-family:'Asap-Regular';font-size:6px">Isoprofit curve: $34,000</text><circle style="fill:#5c73b8" cx="223.26" cy="34.5" r="2.13"/></g><g><text transform="translate(229.443 27.169)" style="fill:#010101;font-family:'Asap-Regular';font-size:6px">Isoprofit curve: $60,000</text><circle style="fill:#273b72" cx="223.26" cy="25.33" r="2.13"/></g></svg>