<svg xmlns="http://www.w3.org/2000/svg" class="prefix__svglite" viewBox="0 0 810 411"><rect width="100%" height="100%" style="stroke:none;fill:#fff;stroke-linecap:round;stroke-linejoin:round;stroke-miterlimit:10"/><defs><clipPath id="prefix__a"><rect x="0" y="0" width="810" height="411" style="fill:none;stroke:#000;stroke-linecap:round;stroke-linejoin:round;stroke-miterlimit:10"/></clipPath></defs><g clip-path="url(#prefix__a)"><rect x="0" y="0" width="810" height="411" style="stroke-width:1.07;stroke:#fff;fill:#fff;stroke-linecap:round;stroke-linejoin:round;stroke-miterlimit:10"/><rect x="106.55" y="14.17" width="669.43" height="315.92" style="stroke-width:1.07;stroke:none;fill:#fff;stroke-linecap:round;stroke-linejoin:round;stroke-miterlimit:10"/><polyline points="106.55 330.09 775.98 330.09" style="stroke-width:1.07;stroke:#c6c4c4;stroke-linecap:butt;fill:none;stroke-linejoin:round;stroke-miterlimit:10"/><polyline points="106.55 251.11 775.98 251.11" style="stroke-width:1.07;stroke:#c6c4c4;stroke-linecap:butt;fill:none;stroke-linejoin:round;stroke-miterlimit:10"/><polyline points="106.55 172.13 775.98 172.13" style="stroke-width:1.07;stroke:#c6c4c4;stroke-linecap:butt;fill:none;stroke-linejoin:round;stroke-miterlimit:10"/><polyline points="106.55 93.15 775.98 93.15" style="stroke-width:1.07;stroke:#c6c4c4;stroke-linecap:butt;fill:none;stroke-linejoin:round;stroke-miterlimit:10"/><polyline points="106.55 14.17 775.98 14.17" style="stroke-width:1.07;stroke:#c6c4c4;stroke-linecap:butt;fill:none;stroke-linejoin:round;stroke-miterlimit:10"/><polyline points="130.34 44.71 134.99 45.11 139.87 51.16 149.4 51.69 161 75.65 184.35 172.4 179.7 230.05 193.41 192.54 235.56 195.17 338.95 218.34 375.96 238.48 430.86 256.64 493.99 257.7 525.99 260.6 555.02 262.43" style="stroke-width:1.07;stroke:#009147;stroke-linecap:butt;fill:none;stroke-linejoin:round;stroke-miterlimit:10"/><polyline points="147.46 30.76 150.38 41.29 155.3 53.01 158.03 61.96 171.75 74.46 203 167.79 194.63 161.47 208.86 177.93 252.5 198.2 343.85 236.77 374.78 242.29 423.52 275.6 547.66 269.28 618.33 274.68 662.11 272.7" style="stroke-width:1.07;stroke:#f49323;stroke-linecap:butt;fill:none;stroke-linejoin:round;stroke-miterlimit:10"/><polyline points="152.01 54.19 169.38 61.03 174.27 69.06 190.69 74.99 215.43 79.99 237.5 156.86 220.43 230.58 276.78 197.41 310.45 194.12 412.6 206.09 448.57 217.81 536.69 219.52 643.13 220.57 683.54 228.34 756.08 227.16" style="stroke-width:1.07;stroke:#ed1f24;stroke-linecap:butt;fill:none;stroke-linejoin:round;stroke-miterlimit:10"/><circle cx="152.01" cy="54.19" r="2.2" style="stroke-width:1.2;stroke:#ed1f24;fill:#ed1f24;stroke-linecap:round;stroke-linejoin:round;stroke-miterlimit:10"/><circle cx="147.46" cy="30.76" r="2.2" style="stroke-width:1.2;stroke:#f49323;fill:#f49323;stroke-linecap:round;stroke-linejoin:round;stroke-miterlimit:10"/><circle cx="130.34" cy="44.71" r="2.2" style="stroke-width:1.2;stroke:#009147;fill:#009147;stroke-linecap:round;stroke-linejoin:round;stroke-miterlimit:10"/><circle cx="169.38" cy="61.03" r="2.2" style="stroke-width:1.2;stroke:#ed1f24;fill:#ed1f24;stroke-linecap:round;stroke-linejoin:round;stroke-miterlimit:10"/><circle cx="150.38" cy="41.29" r="2.2" style="stroke-width:1.2;stroke:#f49323;fill:#f49323;stroke-linecap:round;stroke-linejoin:round;stroke-miterlimit:10"/><circle cx="134.99" cy="45.11" r="2.2" style="stroke-width:1.2;stroke:#009147;fill:#009147;stroke-linecap:round;stroke-linejoin:round;stroke-miterlimit:10"/><circle cx="174.27" cy="69.06" r="2.2" style="stroke-width:1.2;stroke:#ed1f24;fill:#ed1f24;stroke-linecap:round;stroke-linejoin:round;stroke-miterlimit:10"/><circle cx="155.3" cy="53.01" r="2.2" style="stroke-width:1.2;stroke:#f49323;fill:#f49323;stroke-linecap:round;stroke-linejoin:round;stroke-miterlimit:10"/><circle cx="139.87" cy="51.16" r="2.2" style="stroke-width:1.2;stroke:#009147;fill:#009147;stroke-linecap:round;stroke-linejoin:round;stroke-miterlimit:10"/><circle cx="190.69" cy="74.99" r="2.2" style="stroke-width:1.2;stroke:#ed1f24;fill:#ed1f24;stroke-linecap:round;stroke-linejoin:round;stroke-miterlimit:10"/><circle cx="158.03" cy="61.96" r="2.2" style="stroke-width:1.2;stroke:#f49323;fill:#f49323;stroke-linecap:round;stroke-linejoin:round;stroke-miterlimit:10"/><circle cx="149.4" cy="51.69" r="2.2" style="stroke-width:1.2;stroke:#009147;fill:#009147;stroke-linecap:round;stroke-linejoin:round;stroke-miterlimit:10"/><circle cx="215.43" cy="79.99" r="2.2" style="stroke-width:1.2;stroke:#ed1f24;fill:#ed1f24;stroke-linecap:round;stroke-linejoin:round;stroke-miterlimit:10"/><circle cx="171.75" cy="74.46" r="2.2" style="stroke-width:1.2;stroke:#f49323;fill:#f49323;stroke-linecap:round;stroke-linejoin:round;stroke-miterlimit:10"/><circle cx="161" cy="75.65" r="2.2" style="stroke-width:1.2;stroke:#009147;fill:#009147;stroke-linecap:round;stroke-linejoin:round;stroke-miterlimit:10"/><circle cx="237.5" cy="156.86" r="2.2" style="stroke-width:1.2;stroke:#ed1f24;fill:#ed1f24;stroke-linecap:round;stroke-linejoin:round;stroke-miterlimit:10"/><circle cx="203" cy="167.79" r="2.2" style="stroke-width:1.2;stroke:#f49323;fill:#f49323;stroke-linecap:round;stroke-linejoin:round;stroke-miterlimit:10"/><circle cx="184.35" cy="172.4" r="2.2" style="stroke-width:1.2;stroke:#009147;fill:#009147;stroke-linecap:round;stroke-linejoin:round;stroke-miterlimit:10"/><circle cx="220.43" cy="230.58" r="2.2" style="stroke-width:1.2;stroke:#ed1f24;fill:#ed1f24;stroke-linecap:round;stroke-linejoin:round;stroke-miterlimit:10"/><circle cx="194.63" cy="161.47" r="2.2" style="stroke-width:1.2;stroke:#f49323;fill:#f49323;stroke-linecap:round;stroke-linejoin:round;stroke-miterlimit:10"/><circle cx="179.7" cy="230.05" r="2.2" style="stroke-width:1.2;stroke:#009147;fill:#009147;stroke-linecap:round;stroke-linejoin:round;stroke-miterlimit:10"/><circle cx="276.78" cy="197.41" r="2.2" style="stroke-width:1.2;stroke:#ed1f24;fill:#ed1f24;stroke-linecap:round;stroke-linejoin:round;stroke-miterlimit:10"/><circle cx="208.86" cy="177.93" r="2.2" style="stroke-width:1.2;stroke:#f49323;fill:#f49323;stroke-linecap:round;stroke-linejoin:round;stroke-miterlimit:10"/><circle cx="193.41" cy="192.54" r="2.2" style="stroke-width:1.2;stroke:#009147;fill:#009147;stroke-linecap:round;stroke-linejoin:round;stroke-miterlimit:10"/><circle cx="310.45" cy="194.12" r="2.2" style="stroke-width:1.2;stroke:#ed1f24;fill:#ed1f24;stroke-linecap:round;stroke-linejoin:round;stroke-miterlimit:10"/><circle cx="252.5" cy="198.2" r="2.2" style="stroke-width:1.2;stroke:#f49323;fill:#f49323;stroke-linecap:round;stroke-linejoin:round;stroke-miterlimit:10"/><circle cx="235.56" cy="195.17" r="2.2" style="stroke-width:1.2;stroke:#009147;fill:#009147;stroke-linecap:round;stroke-linejoin:round;stroke-miterlimit:10"/><circle cx="412.6" cy="206.09" r="2.2" style="stroke-width:1.2;stroke:#ed1f24;fill:#ed1f24;stroke-linecap:round;stroke-linejoin:round;stroke-miterlimit:10"/><circle cx="343.85" cy="236.77" r="2.2" style="stroke-width:1.2;stroke:#f49323;fill:#f49323;stroke-linecap:round;stroke-linejoin:round;stroke-miterlimit:10"/><circle cx="338.95" cy="218.34" r="2.2" style="stroke-width:1.2;stroke:#009147;fill:#009147;stroke-linecap:round;stroke-linejoin:round;stroke-miterlimit:10"/><circle cx="448.57" cy="217.81" r="2.2" style="stroke-width:1.2;stroke:#ed1f24;fill:#ed1f24;stroke-linecap:round;stroke-linejoin:round;stroke-miterlimit:10"/><circle cx="374.78" cy="242.29" r="2.2" style="stroke-width:1.2;stroke:#f49323;fill:#f49323;stroke-linecap:round;stroke-linejoin:round;stroke-miterlimit:10"/><circle cx="375.96" cy="238.48" r="2.2" style="stroke-width:1.2;stroke:#009147;fill:#009147;stroke-linecap:round;stroke-linejoin:round;stroke-miterlimit:10"/><circle cx="536.69" cy="219.52" r="2.2" style="stroke-width:1.2;stroke:#ed1f24;fill:#ed1f24;stroke-linecap:round;stroke-linejoin:round;stroke-miterlimit:10"/><circle cx="423.52" cy="275.6" r="2.2" style="stroke-width:1.2;stroke:#f49323;fill:#f49323;stroke-linecap:round;stroke-linejoin:round;stroke-miterlimit:10"/><circle cx="430.86" cy="256.64" r="2.2" style="stroke-width:1.2;stroke:#009147;fill:#009147;stroke-linecap:round;stroke-linejoin:round;stroke-miterlimit:10"/><circle cx="643.13" cy="220.57" r="2.2" style="stroke-width:1.2;stroke:#ed1f24;fill:#ed1f24;stroke-linecap:round;stroke-linejoin:round;stroke-miterlimit:10"/><circle cx="547.66" cy="269.28" r="2.2" style="stroke-width:1.2;stroke:#f49323;fill:#f49323;stroke-linecap:round;stroke-linejoin:round;stroke-miterlimit:10"/><circle cx="493.99" cy="257.7" r="2.2" style="stroke-width:1.2;stroke:#009147;fill:#009147;stroke-linecap:round;stroke-linejoin:round;stroke-miterlimit:10"/><circle cx="683.54" cy="228.34" r="2.2" style="stroke-width:1.2;stroke:#ed1f24;fill:#ed1f24;stroke-linecap:round;stroke-linejoin:round;stroke-miterlimit:10"/><circle cx="618.33" cy="274.68" r="2.2" style="stroke-width:1.2;stroke:#f49323;fill:#f49323;stroke-linecap:round;stroke-linejoin:round;stroke-miterlimit:10"/><circle cx="525.99" cy="260.6" r="2.2" style="stroke-width:1.2;stroke:#009147;fill:#009147;stroke-linecap:round;stroke-linejoin:round;stroke-miterlimit:10"/><circle cx="756.08" cy="227.16" r="2.2" style="stroke-width:1.2;stroke:#ed1f24;fill:#ed1f24;stroke-linecap:round;stroke-linejoin:round;stroke-miterlimit:10"/><circle cx="662.11" cy="272.7" r="2.2" style="stroke-width:1.2;stroke:#f49323;fill:#f49323;stroke-linecap:round;stroke-linejoin:round;stroke-miterlimit:10"/><circle cx="555.02" cy="262.43" r="2.2" style="stroke-width:1.2;stroke:#009147;fill:#009147;stroke-linecap:round;stroke-linejoin:round;stroke-miterlimit:10"/><polygon points="151.78 192.48 184.61 192.48 184.52 192.48 184.87 192.47 185.21 192.4 185.54 192.28 185.84 192.1 186.11 191.88 186.34 191.62 186.52 191.33 186.66 191.01 186.74 190.67 186.77 190.32 186.77 190.32 186.77 177.62 186.77 177.62 186.74 177.27 186.66 176.93 186.52 176.61 186.34 176.32 186.11 176.06 185.84 175.84 185.54 175.66 185.21 175.54 184.87 175.47 184.61 175.46 151.78 175.46 152.04 175.47 151.69 175.46 151.35 175.5 151.01 175.6 150.7 175.75 150.41 175.94 150.16 176.18 149.95 176.46 149.79 176.77 149.68 177.1 149.63 177.44 149.62 177.62 149.62 190.32 149.63 190.15 149.63 190.5 149.68 190.84 149.79 191.17 149.95 191.48 150.16 191.76 150.41 192 150.7 192.19 151.01 192.34 151.35 192.44 151.69 192.48" style="stroke-width:nan;stroke:none;fill:none;stroke-linecap:round;stroke-linejoin:round;stroke-miterlimit:10"/><text x="168.2" y="188.88" text-anchor="middle" style="font-size:14px;font-family:Asap" textLength="29.95" lengthAdjust="spacingAndGlyphs">1929</text><polygon points="337.2 217.12 370.03 217.12 369.94 217.11 370.29 217.1 370.63 217.03 370.96 216.91 371.26 216.73 371.53 216.51 371.76 216.25 371.94 215.96 372.08 215.64 372.16 215.3 372.19 214.96 372.19 214.96 372.19 202.25 372.19 202.25 372.16 201.9 372.08 201.56 371.94 201.24 371.76 200.95 371.53 200.69 371.26 200.47 370.96 200.3 370.63 200.17 370.29 200.1 370.03 200.09 337.2 200.09 337.46 200.1 337.11 200.09 336.77 200.13 336.43 200.23 336.12 200.38 335.83 200.57 335.58 200.81 335.37 201.09 335.21 201.4 335.1 201.73 335.05 202.07 335.04 202.25 335.04 214.96 335.05 214.78 335.05 215.13 335.1 215.47 335.21 215.8 335.37 216.11 335.58 216.39 335.83 216.63 336.12 216.83 336.43 216.97 336.77 217.07 337.11 217.11" style="stroke-width:nan;stroke:none;fill:none;stroke-linecap:round;stroke-linejoin:round;stroke-miterlimit:10"/><text x="353.61" y="213.52" text-anchor="middle" style="font-size:14px;font-family:Asap" textLength="29.95" lengthAdjust="spacingAndGlyphs">1973</text><polygon points="373.62 233.6 406.45 233.6 406.36 233.59 406.71 233.58 407.05 233.51 407.37 233.39 407.67 233.21 407.94 232.99 408.17 232.73 408.36 232.44 408.5 232.12 408.58 231.78 408.61 231.44 408.61 231.44 408.61 218.73 408.61 218.73 408.58 218.38 408.5 218.04 408.36 217.72 408.17 217.43 407.94 217.17 407.67 216.95 407.37 216.78 407.05 216.65 406.71 216.58 406.45 216.57 373.62 216.57 373.88 216.58 373.53 216.57 373.18 216.61 372.85 216.71 372.54 216.86 372.25 217.05 372 217.3 371.79 217.57 371.63 217.88 371.52 218.21 371.46 218.55 371.46 218.73 371.46 231.44 371.46 231.26 371.46 231.61 371.52 231.95 371.63 232.28 371.79 232.59 372 232.87 372.25 233.11 372.54 233.31 372.85 233.46 373.18 233.55 373.53 233.59" style="stroke-width:nan;stroke:none;fill:none;stroke-linecap:round;stroke-linejoin:round;stroke-miterlimit:10"/><text x="390.03" y="230" text-anchor="middle" style="font-size:14px;font-family:Asap" textLength="29.95" lengthAdjust="spacingAndGlyphs">1980</text><polygon points="427.89 254.9 460.72 254.9 460.64 254.9 460.98 254.89 461.32 254.82 461.65 254.69 461.95 254.52 462.22 254.3 462.45 254.04 462.64 253.75 462.77 253.43 462.85 253.09 462.88 252.74 462.88 252.74 462.88 240.03 462.88 240.03 462.85 239.69 462.77 239.35 462.64 239.03 462.45 238.74 462.22 238.48 461.95 238.26 461.65 238.08 461.32 237.96 460.98 237.89 460.72 237.87 427.89 237.87 428.15 237.89 427.8 237.88 427.46 237.92 427.12 238.01 426.81 238.16 426.52 238.36 426.27 238.6 426.07 238.88 425.9 239.19 425.79 239.52 425.74 239.86 425.73 240.03 425.73 252.74 425.74 252.57 425.74 252.92 425.79 253.26 425.9 253.59 426.07 253.9 426.27 254.17 426.52 254.41 426.81 254.61 427.12 254.76 427.46 254.86 427.8 254.9" style="stroke-width:nan;stroke:none;fill:none;stroke-linecap:round;stroke-linejoin:round;stroke-miterlimit:10"/><text x="444.31" y="251.3" text-anchor="middle" style="font-size:14px;font-family:Asap" textLength="29.95" lengthAdjust="spacingAndGlyphs">1990</text><polygon points="469.58 253.97 502.41 253.97 502.33 253.97 502.67 253.95 503.02 253.88 503.34 253.76 503.64 253.59 503.91 253.37 504.14 253.11 504.33 252.81 504.46 252.49 504.55 252.16 504.57 251.81 504.57 251.81 504.57 239.1 504.57 239.1 504.55 238.76 504.46 238.42 504.33 238.1 504.14 237.8 503.91 237.54 503.64 237.32 503.34 237.15 503.02 237.03 502.67 236.96 502.41 236.94 469.58 236.94 469.84 236.96 469.5 236.94 469.15 236.99 468.82 237.08 468.5 237.23 468.22 237.43 467.97 237.67 467.76 237.95 467.6 238.26 467.49 238.59 467.43 238.93 467.42 239.1 467.42 251.81 467.43 251.64 467.43 251.98 467.49 252.33 467.6 252.66 467.76 252.96 467.97 253.24 468.22 253.48 468.5 253.68 468.82 253.83 469.15 253.93 469.5 253.97" style="stroke-width:nan;stroke:none;fill:none;stroke-linecap:round;stroke-linejoin:round;stroke-miterlimit:10"/><text x="486" y="250.37" text-anchor="middle" style="font-size:14px;font-family:Asap" textLength="29.95" lengthAdjust="spacingAndGlyphs">2000</text><polygon points="509.57 253.02 542.4 253.02 542.32 253.02 542.66 253 543 252.93 543.33 252.81 543.63 252.64 543.9 252.42 544.13 252.16 544.32 251.86 544.45 251.54 544.54 251.21 544.56 250.86 544.56 250.86 544.56 238.15 544.56 238.15 544.54 237.81 544.45 237.47 544.32 237.15 544.13 236.85 543.9 236.59 543.63 236.37 543.33 236.2 543 236.08 542.66 236.01 542.4 235.99 509.57 235.99 509.83 236.01 509.48 235.99 509.14 236.04 508.81 236.13 508.49 236.28 508.21 236.48 507.95 236.72 507.75 237 507.58 237.31 507.47 237.63 507.42 237.98 507.41 238.15 507.41 250.86 507.42 250.69 507.42 251.03 507.47 251.38 507.58 251.71 507.75 252.01 507.95 252.29 508.21 252.53 508.49 252.73 508.81 252.88 509.14 252.98 509.48 253.02" style="stroke-width:nan;stroke:none;fill:none;stroke-linecap:round;stroke-linejoin:round;stroke-miterlimit:10"/><text x="525.99" y="249.42" text-anchor="middle" style="font-size:14px;font-family:Asap" textLength="29.95" lengthAdjust="spacingAndGlyphs">2010</text><polygon points="552.42 258.99 585.25 258.99 585.17 258.99 585.51 258.97 585.85 258.91 586.18 258.78 586.48 258.61 586.75 258.39 586.98 258.13 587.17 257.83 587.3 257.51 587.38 257.18 587.41 256.83 587.41 256.83 587.41 244.12 587.41 244.12 587.38 243.78 587.3 243.44 587.17 243.12 586.98 242.82 586.75 242.56 586.48 242.34 586.18 242.17 585.85 242.05 585.51 241.98 585.25 241.96 552.42 241.96 552.68 241.98 552.33 241.96 551.99 242.01 551.65 242.1 551.34 242.25 551.05 242.45 550.8 242.69 550.6 242.97 550.43 243.28 550.32 243.61 550.27 243.95 550.26 244.12 550.26 256.83 550.27 256.66 550.27 257 550.32 257.35 550.43 257.68 550.6 257.98 550.8 258.26 551.05 258.5 551.34 258.7 551.65 258.85 551.99 258.95 552.33 258.99" style="stroke-width:nan;stroke:none;fill:none;stroke-linecap:round;stroke-linejoin:round;stroke-miterlimit:10"/><text x="568.84" y="255.39" text-anchor="middle" style="font-size:14px;font-family:Asap" textLength="29.95" lengthAdjust="spacingAndGlyphs">2018</text><polygon points="146.9 34.96 179.73 34.96 179.65 34.96 179.99 34.95 180.34 34.88 180.66 34.75 180.96 34.58 181.23 34.36 181.46 34.1 181.65 33.81 181.78 33.49 181.87 33.15 181.89 32.8 181.89 32.8 181.89 20.1 181.89 20.1 181.87 19.75 181.78 19.41 181.65 19.09 181.46 18.8 181.23 18.54 180.96 18.32 180.66 18.14 180.34 18.02 179.99 17.95 179.73 17.94 146.9 17.94 147.16 17.95 146.82 17.94 146.47 17.98 146.14 18.08 145.82 18.22 145.54 18.42 145.29 18.66 145.08 18.94 144.92 19.25 144.81 19.58 144.75 19.92 144.74 20.1 144.74 32.8 144.75 32.63 144.75 32.98 144.81 33.32 144.92 33.65 145.08 33.96 145.29 34.24 145.54 34.48 145.82 34.67 146.14 34.82 146.47 34.92 146.82 34.96" style="stroke-width:nan;stroke:none;fill:none;stroke-linecap:round;stroke-linejoin:round;stroke-miterlimit:10"/><text x="163.32" y="31.36" text-anchor="middle" style="font-size:14px;font-family:Asap" textLength="29.95" lengthAdjust="spacingAndGlyphs">1870</text><polygon points="157.1 48.44 189.93 48.44 189.84 48.44 190.19 48.42 190.53 48.35 190.85 48.23 191.16 48.06 191.43 47.84 191.66 47.58 191.84 47.28 191.98 46.96 192.06 46.63 192.09 46.28 192.09 46.28 192.09 33.57 192.09 33.57 192.06 33.23 191.98 32.89 191.84 32.57 191.66 32.27 191.43 32.01 191.16 31.79 190.85 31.62 190.53 31.5 190.19 31.43 189.93 31.41 157.1 31.41 157.36 31.43 157.01 31.41 156.66 31.46 156.33 31.55 156.02 31.7 155.73 31.9 155.48 32.14 155.27 32.42 155.11 32.73 155 33.06 154.94 33.4 154.94 33.57 154.94 46.28 154.94 46.11 154.94 46.45 155 46.8 155.11 47.13 155.27 47.43 155.48 47.71 155.73 47.95 156.02 48.15 156.33 48.3 156.66 48.4 157.01 48.44" style="stroke-width:nan;stroke:none;fill:none;stroke-linecap:round;stroke-linejoin:round;stroke-miterlimit:10"/><text x="173.51" y="44.84" text-anchor="middle" style="font-size:14px;font-family:Asap" textLength="29.95" lengthAdjust="spacingAndGlyphs">1890</text><polygon points="311.24 254.28 344.07 254.28 343.98 254.28 344.33 254.26 344.67 254.19 344.99 254.07 345.3 253.9 345.56 253.68 345.8 253.42 345.98 253.12 346.12 252.8 346.2 252.46 346.23 252.12 346.23 252.12 346.23 239.41 346.23 239.41 346.2 239.06 346.12 238.73 345.98 238.41 345.8 238.11 345.56 237.85 345.3 237.63 344.99 237.46 344.67 237.34 344.33 237.27 344.07 237.25 311.24 237.25 311.5 237.27 311.15 237.25 310.8 237.29 310.47 237.39 310.16 237.54 309.87 237.74 309.62 237.98 309.41 238.26 309.25 238.56 309.14 238.89 309.08 239.24 309.08 239.41 309.08 252.12 309.08 251.94 309.08 252.29 309.14 252.63 309.25 252.96 309.41 253.27 309.62 253.55 309.87 253.79 310.16 253.99 310.47 254.14 310.8 254.23 311.15 254.28" style="stroke-width:nan;stroke:none;fill:none;stroke-linecap:round;stroke-linejoin:round;stroke-miterlimit:10"/><text x="327.65" y="250.68" text-anchor="middle" style="font-size:14px;font-family:Asap" textLength="29.95" lengthAdjust="spacingAndGlyphs">1973</text><polygon points="347.16 266.17 379.99 266.17 379.9 266.17 380.25 266.15 380.59 266.08 380.91 265.96 381.22 265.79 381.48 265.57 381.72 265.31 381.9 265.01 382.04 264.69 382.12 264.35 382.15 264.01 382.15 264.01 382.15 251.3 382.15 251.3 382.12 250.95 382.04 250.62 381.9 250.3 381.72 250 381.48 249.74 381.22 249.52 380.91 249.35 380.59 249.23 380.25 249.16 379.99 249.14 347.16 249.14 347.42 249.16 347.07 249.14 346.72 249.18 346.39 249.28 346.08 249.43 345.79 249.63 345.54 249.87 345.33 250.15 345.17 250.45 345.06 250.78 345 251.13 345 251.3 345 264.01 345 263.83 345 264.18 345.06 264.53 345.17 264.85 345.33 265.16 345.54 265.44 345.79 265.68 346.08 265.88 346.39 266.03 346.72 266.12 347.07 266.17" style="stroke-width:nan;stroke:none;fill:none;stroke-linecap:round;stroke-linejoin:round;stroke-miterlimit:10"/><text x="363.57" y="262.57" text-anchor="middle" style="font-size:14px;font-family:Asap" textLength="29.95" lengthAdjust="spacingAndGlyphs">1980</text><polygon points="407.1 295.28 439.93 295.28 439.85 295.28 440.19 295.26 440.53 295.19 440.86 295.07 441.16 294.9 441.43 294.68 441.66 294.42 441.85 294.12 441.98 293.8 442.06 293.47 442.09 293.12 442.09 293.12 442.09 280.41 442.09 280.41 442.06 280.06 441.98 279.73 441.85 279.41 441.66 279.11 441.43 278.85 441.16 278.63 440.86 278.46 440.53 278.34 440.19 278.27 439.93 278.25 407.1 278.25 407.36 278.27 407.01 278.25 406.67 278.29 406.33 278.39 406.02 278.54 405.73 278.74 405.48 278.98 405.28 279.26 405.11 279.56 405 279.89 404.95 280.24 404.94 280.41 404.94 293.12 404.95 292.95 404.95 293.29 405 293.64 405.11 293.97 405.28 294.27 405.48 294.55 405.73 294.79 406.02 294.99 406.33 295.14 406.67 295.24 407.01 295.28" style="stroke-width:nan;stroke:none;fill:none;stroke-linecap:round;stroke-linejoin:round;stroke-miterlimit:10"/><text x="423.52" y="291.68" text-anchor="middle" style="font-size:14px;font-family:Asap" textLength="29.95" lengthAdjust="spacingAndGlyphs">1990</text><polygon points="540.31 293.19 573.14 293.19 573.05 293.19 573.4 293.17 573.74 293.1 574.06 292.98 574.36 292.81 574.63 292.59 574.86 292.33 575.05 292.03 575.19 291.71 575.27 291.38 575.3 291.03 575.3 291.03 575.3 278.32 575.3 278.32 575.27 277.97 575.19 277.64 575.05 277.32 574.86 277.02 574.63 276.76 574.36 276.54 574.06 276.37 573.74 276.25 573.4 276.18 573.14 276.16 540.31 276.16 540.57 276.18 540.22 276.16 539.87 276.2 539.54 276.3 539.23 276.45 538.94 276.65 538.69 276.89 538.48 277.17 538.32 277.47 538.21 277.8 538.15 278.15 538.15 278.32 538.15 291.03 538.15 290.85 538.15 291.2 538.21 291.55 538.32 291.88 538.48 292.18 538.69 292.46 538.94 292.7 539.23 292.9 539.54 293.05 539.87 293.15 540.22 293.19" style="stroke-width:nan;stroke:none;fill:none;stroke-linecap:round;stroke-linejoin:round;stroke-miterlimit:10"/><text x="556.72" y="289.59" text-anchor="middle" style="font-size:14px;font-family:Asap" textLength="29.95" lengthAdjust="spacingAndGlyphs">2000</text><polygon points="612.39 298.15 645.22 298.15 645.14 298.15 645.48 298.14 645.82 298.07 646.15 297.95 646.45 297.77 646.72 297.55 646.95 297.29 647.14 297 647.27 296.68 647.36 296.34 647.38 295.99 647.38 295.99 647.38 283.29 647.38 283.29 647.36 282.94 647.27 282.6 647.14 282.28 646.95 281.99 646.72 281.73 646.45 281.51 646.15 281.33 645.82 281.21 645.48 281.14 645.22 281.13 612.39 281.13 612.65 281.14 612.3 281.13 611.96 281.17 611.63 281.27 611.31 281.42 611.03 281.61 610.78 281.85 610.57 282.13 610.4 282.44 610.29 282.77 610.24 283.11 610.23 283.29 610.23 295.99 610.24 295.82 610.24 296.17 610.29 296.51 610.4 296.84 610.57 297.15 610.78 297.43 611.03 297.67 611.31 297.86 611.63 298.01 611.96 298.11 612.3 298.15" style="stroke-width:nan;stroke:none;fill:none;stroke-linecap:round;stroke-linejoin:round;stroke-miterlimit:10"/><text x="628.81" y="294.55" text-anchor="middle" style="font-size:14px;font-family:Asap" textLength="29.95" lengthAdjust="spacingAndGlyphs">2010</text><polygon points="657.04 296.34 689.88 296.34 689.79 296.34 690.14 296.32 690.48 296.25 690.8 296.13 691.1 295.96 691.37 295.74 691.6 295.48 691.79 295.18 691.92 294.86 692.01 294.52 692.04 294.18 692.04 294.18 692.04 281.47 692.04 281.47 692.01 281.12 691.92 280.79 691.79 280.47 691.6 280.17 691.37 279.91 691.1 279.69 690.8 279.52 690.48 279.39 690.14 279.33 689.88 279.31 657.04 279.31 657.3 279.33 656.96 279.31 656.61 279.35 656.28 279.45 655.96 279.6 655.68 279.8 655.43 280.04 655.22 280.31 655.06 280.62 654.95 280.95 654.89 281.3 654.88 281.47 654.88 294.18 654.89 294 654.89 294.35 654.95 294.69 655.06 295.02 655.22 295.33 655.43 295.61 655.68 295.85 655.96 296.05 656.28 296.2 656.61 296.29 656.96 296.34" style="stroke-width:nan;stroke:none;fill:none;stroke-linecap:round;stroke-linejoin:round;stroke-miterlimit:10"/><text x="673.46" y="292.74" text-anchor="middle" style="font-size:14px;font-family:Asap" textLength="29.95" lengthAdjust="spacingAndGlyphs">2018</text><polygon points="128.15 75.77 160.98 75.77 160.89 75.77 161.24 75.75 161.58 75.68 161.91 75.56 162.21 75.38 162.48 75.16 162.71 74.9 162.89 74.61 163.03 74.29 163.11 73.95 163.14 73.61 163.14 73.61 163.14 60.9 163.14 60.9 163.11 60.55 163.03 60.22 162.89 59.9 162.71 59.6 162.48 59.34 162.21 59.12 161.91 58.95 161.58 58.82 161.24 58.75 160.98 58.74 128.15 58.74 128.41 58.75 128.06 58.74 127.72 58.78 127.38 58.88 127.07 59.03 126.78 59.23 126.53 59.47 126.32 59.74 126.16 60.05 126.05 60.38 126 60.73 125.99 60.9 125.99 73.61 126 73.43 126 73.78 126.05 74.12 126.16 74.45 126.32 74.76 126.53 75.04 126.78 75.28 127.07 75.48 127.38 75.63 127.72 75.72 128.06 75.77" style="stroke-width:nan;stroke:none;fill:none;stroke-linecap:round;stroke-linejoin:round;stroke-miterlimit:10"/><text x="144.56" y="72.17" text-anchor="middle" style="font-size:14px;font-family:Asap" textLength="29.95" lengthAdjust="spacingAndGlyphs">1900</text><polygon points="219.56 80.11 252.39 80.11 252.3 80.1 252.65 80.09 252.99 80.02 253.31 79.9 253.62 79.72 253.88 79.5 254.12 79.24 254.3 78.95 254.44 78.63 254.52 78.29 254.55 77.95 254.55 77.95 254.55 65.24 254.55 65.24 254.52 64.89 254.44 64.55 254.3 64.23 254.12 63.94 253.88 63.68 253.62 63.46 253.31 63.29 252.99 63.16 252.65 63.09 252.39 63.08 219.56 63.08 219.82 63.09 219.47 63.08 219.12 63.12 218.79 63.22 218.48 63.37 218.19 63.56 217.94 63.81 217.73 64.08 217.57 64.39 217.46 64.72 217.4 65.06 217.4 65.24 217.4 77.95 217.4 77.77 217.4 78.12 217.46 78.46 217.57 78.79 217.73 79.1 217.94 79.38 218.19 79.62 218.48 79.82 218.79 79.97 219.12 80.06 219.47 80.1" style="stroke-width:nan;stroke:none;fill:none;stroke-linecap:round;stroke-linejoin:round;stroke-miterlimit:10"/><text x="235.97" y="76.51" text-anchor="middle" style="font-size:14px;font-family:Asap" textLength="29.95" lengthAdjust="spacingAndGlyphs">1913</text><polygon points="241.09 165.38 273.92 165.38 273.83 165.38 274.18 165.36 274.52 165.29 274.85 165.17 275.15 165 275.42 164.78 275.65 164.52 275.83 164.22 275.97 163.9 276.05 163.56 276.08 163.22 276.08 163.22 276.08 150.51 276.08 150.51 276.05 150.16 275.97 149.83 275.83 149.51 275.65 149.21 275.42 148.95 275.15 148.73 274.85 148.56 274.52 148.44 274.18 148.37 273.92 148.35 241.09 148.35 241.35 148.37 241 148.35 240.66 148.39 240.32 148.49 240.01 148.64 239.72 148.84 239.47 149.08 239.26 149.36 239.1 149.66 238.99 149.99 238.94 150.34 238.93 150.51 238.93 163.22 238.94 163.04 238.94 163.39 238.99 163.73 239.1 164.06 239.26 164.37 239.47 164.65 239.72 164.89 240.01 165.09 240.32 165.24 240.66 165.33 241 165.38" style="stroke-width:nan;stroke:none;fill:none;stroke-linecap:round;stroke-linejoin:round;stroke-miterlimit:10"/><text x="257.5" y="161.78" text-anchor="middle" style="font-size:14px;font-family:Asap" textLength="29.95" lengthAdjust="spacingAndGlyphs">1929</text><polygon points="204.01 250.65 236.84 250.65 236.76 250.65 237.1 250.63 237.44 250.56 237.77 250.44 238.07 250.27 238.34 250.05 238.57 249.79 238.76 249.49 238.89 249.17 238.98 248.84 239 248.49 239 248.49 239 235.78 239 235.78 238.98 235.44 238.89 235.1 238.76 234.78 238.57 234.48 238.34 234.22 238.07 234 237.77 233.83 237.44 233.71 237.1 233.64 236.84 233.62 204.01 233.62 204.27 233.64 203.92 233.62 203.58 233.67 203.25 233.76 202.93 233.91 202.65 234.11 202.4 234.35 202.19 234.63 202.02 234.94 201.91 235.27 201.86 235.61 201.85 235.78 201.85 248.49 201.86 248.32 201.86 248.66 201.91 249.01 202.02 249.34 202.19 249.64 202.4 249.92 202.65 250.16 202.93 250.36 203.25 250.51 203.58 250.61 203.92 250.65" style="stroke-width:nan;stroke:none;fill:none;stroke-linecap:round;stroke-linejoin:round;stroke-miterlimit:10"/><text x="220.43" y="247.05" text-anchor="middle" style="font-size:14px;font-family:Asap" textLength="29.95" lengthAdjust="spacingAndGlyphs">1938</text><polygon points="260.36 192.71 293.2 192.71 293.11 192.7 293.46 192.69 293.8 192.62 294.12 192.5 294.42 192.32 294.69 192.1 294.92 191.84 295.11 191.55 295.24 191.23 295.33 190.89 295.36 190.55 295.36 190.55 295.36 177.84 295.36 177.84 295.33 177.49 295.24 177.15 295.11 176.83 294.92 176.54 294.69 176.28 294.42 176.06 294.12 175.89 293.8 175.76 293.46 175.69 293.2 175.68 260.36 175.68 260.62 175.69 260.28 175.68 259.93 175.72 259.6 175.82 259.28 175.97 259 176.16 258.75 176.4 258.54 176.68 258.38 176.99 258.27 177.32 258.21 177.66 258.2 177.84 258.2 190.55 258.21 190.37 258.21 190.72 258.27 191.06 258.38 191.39 258.54 191.7 258.75 191.98 259 192.22 259.28 192.42 259.6 192.56 259.93 192.66 260.28 192.7" style="stroke-width:nan;stroke:none;fill:none;stroke-linecap:round;stroke-linejoin:round;stroke-miterlimit:10"/><text x="276.78" y="189.11" text-anchor="middle" style="font-size:14px;font-family:Asap" textLength="29.95" lengthAdjust="spacingAndGlyphs">1950</text><polygon points="294.04 189.25 326.87 189.25 326.78 189.25 327.13 189.23 327.47 189.16 327.8 189.04 328.1 188.87 328.37 188.65 328.6 188.39 328.78 188.09 328.92 187.77 329 187.44 329.03 187.09 329.03 187.09 329.03 174.38 329.03 174.38 329 174.04 328.92 173.7 328.78 173.38 328.6 173.08 328.37 172.82 328.1 172.6 327.8 172.43 327.47 172.31 327.13 172.24 326.87 172.22 294.04 172.22 294.3 172.24 293.95 172.22 293.61 172.27 293.27 172.36 292.96 172.51 292.67 172.71 292.42 172.95 292.21 173.23 292.05 173.53 291.94 173.86 291.89 174.21 291.88 174.38 291.88 187.09 291.89 186.92 291.89 187.26 291.94 187.61 292.05 187.94 292.21 188.24 292.42 188.52 292.67 188.76 292.96 188.96 293.27 189.11 293.61 189.21 293.95 189.25" style="stroke-width:nan;stroke:none;fill:none;stroke-linecap:round;stroke-linejoin:round;stroke-miterlimit:10"/><text x="310.45" y="185.65" text-anchor="middle" style="font-size:14px;font-family:Asap" textLength="29.95" lengthAdjust="spacingAndGlyphs">1960</text><polygon points="396.19 201.83 429.02 201.83 428.93 201.83 429.28 201.81 429.62 201.74 429.94 201.62 430.25 201.44 430.51 201.23 430.75 200.96 430.93 200.67 431.07 200.35 431.15 200.01 431.18 199.67 431.18 199.67 431.18 186.96 431.18 186.96 431.15 186.61 431.07 186.28 430.93 185.96 430.75 185.66 430.51 185.4 430.25 185.18 429.94 185.01 429.62 184.88 429.28 184.81 429.02 184.8 396.19 184.8 396.45 184.81 396.1 184.8 395.75 184.84 395.42 184.94 395.11 185.09 394.82 185.29 394.57 185.53 394.36 185.8 394.2 186.11 394.09 186.44 394.03 186.79 394.03 186.96 394.03 199.67 394.03 199.49 394.03 199.84 394.09 200.18 394.2 200.51 394.36 200.82 394.57 201.1 394.82 201.34 395.11 201.54 395.42 201.69 395.75 201.78 396.1 201.83" style="stroke-width:nan;stroke:none;fill:none;stroke-linecap:round;stroke-linejoin:round;stroke-miterlimit:10"/><text x="412.6" y="198.23" text-anchor="middle" style="font-size:14px;font-family:Asap" textLength="29.95" lengthAdjust="spacingAndGlyphs">1973</text><polygon points="432.16 214.13 464.99 214.13 464.9 214.13 465.25 214.11 465.59 214.04 465.91 213.92 466.22 213.75 466.48 213.53 466.72 213.27 466.9 212.97 467.04 212.65 467.12 212.31 467.15 211.97 467.15 211.97 467.15 199.26 467.15 199.26 467.12 198.91 467.04 198.58 466.9 198.26 466.72 197.96 466.48 197.7 466.22 197.48 465.91 197.31 465.59 197.19 465.25 197.12 464.99 197.1 432.16 197.1 432.42 197.12 432.07 197.1 431.72 197.14 431.39 197.24 431.08 197.39 430.79 197.59 430.54 197.83 430.33 198.11 430.17 198.41 430.06 198.74 430 199.09 430 199.26 430 211.97 430 211.79 430 212.14 430.06 212.49 430.17 212.82 430.33 213.12 430.54 213.4 430.79 213.64 431.08 213.84 431.39 213.99 431.72 214.08 432.07 214.13" style="stroke-width:nan;stroke:none;fill:none;stroke-linecap:round;stroke-linejoin:round;stroke-miterlimit:10"/><text x="448.57" y="210.53" text-anchor="middle" style="font-size:14px;font-family:Asap" textLength="29.95" lengthAdjust="spacingAndGlyphs">1980</text><polygon points="520.27 213.5 553.1 213.5 553.02 213.5 553.36 213.49 553.7 213.42 554.03 213.29 554.33 213.12 554.6 212.9 554.83 212.64 555.02 212.35 555.15 212.03 555.23 211.69 555.26 211.34 555.26 211.34 555.26 198.64 555.26 198.64 555.23 198.29 555.15 197.95 555.02 197.63 554.83 197.34 554.6 197.08 554.33 196.86 554.03 196.68 553.7 196.56 553.36 196.49 553.1 196.48 520.27 196.48 520.53 196.49 520.18 196.48 519.84 196.52 519.5 196.62 519.19 196.76 518.9 196.96 518.65 197.2 518.44 197.48 518.28 197.79 518.17 198.12 518.12 198.46 518.11 198.64 518.11 211.34 518.12 211.17 518.12 211.52 518.17 211.86 518.28 212.19 518.44 212.5 518.65 212.78 518.9 213.02 519.19 213.21 519.5 213.36 519.84 213.46 520.18 213.5" style="stroke-width:nan;stroke:none;fill:none;stroke-linecap:round;stroke-linejoin:round;stroke-miterlimit:10"/><text x="536.69" y="209.9" text-anchor="middle" style="font-size:14px;font-family:Asap" textLength="29.95" lengthAdjust="spacingAndGlyphs">1990</text><polygon points="615.74 217.03 648.57 217.03 648.48 217.03 648.83 217.02 649.17 216.95 649.5 216.82 649.8 216.65 650.07 216.43 650.3 216.17 650.48 215.87 650.62 215.55 650.7 215.22 650.73 214.87 650.73 214.87 650.73 202.16 650.73 202.16 650.7 201.82 650.62 201.48 650.48 201.16 650.3 200.87 650.07 200.61 649.8 200.39 649.5 200.21 649.17 200.09 648.83 200.02 648.57 200 615.74 200 616 200.02 615.65 200 615.31 200.05 614.97 200.14 614.66 200.29 614.37 200.49 614.12 200.73 613.91 201.01 613.75 201.32 613.64 201.65 613.59 201.99 613.58 202.16 613.58 214.87 613.59 214.7 613.59 215.04 613.64 215.39 613.75 215.72 613.91 216.03 614.12 216.3 614.37 216.54 614.66 216.74 614.97 216.89 615.31 216.99 615.65 217.03" style="stroke-width:nan;stroke:none;fill:none;stroke-linecap:round;stroke-linejoin:round;stroke-miterlimit:10"/><text x="632.16" y="213.43" text-anchor="middle" style="font-size:14px;font-family:Asap" textLength="29.95" lengthAdjust="spacingAndGlyphs">2000</text><polygon points="667.13 225.19 699.96 225.19 699.87 225.18 700.22 225.17 700.56 225.1 700.88 224.98 701.19 224.8 701.46 224.58 701.69 224.32 701.87 224.03 702.01 223.71 702.09 223.37 702.12 223.03 702.12 223.03 702.12 210.32 702.12 210.32 702.09 209.97 702.01 209.63 701.87 209.31 701.69 209.02 701.46 208.76 701.19 208.54 700.88 208.37 700.56 208.24 700.22 208.17 699.96 208.16 667.13 208.16 667.39 208.17 667.04 208.16 666.69 208.2 666.36 208.3 666.05 208.45 665.76 208.64 665.51 208.89 665.3 209.16 665.14 209.47 665.03 209.8 664.97 210.14 664.97 210.32 664.97 223.03 664.97 222.85 664.97 223.2 665.03 223.54 665.14 223.87 665.3 224.18 665.51 224.46 665.76 224.7 666.05 224.9 666.36 225.05 666.69 225.14 667.04 225.18" style="stroke-width:nan;stroke:none;fill:none;stroke-linecap:round;stroke-linejoin:round;stroke-miterlimit:10"/><text x="683.54" y="221.59" text-anchor="middle" style="font-size:14px;font-family:Asap" textLength="29.95" lengthAdjust="spacingAndGlyphs">2010</text><polygon points="726.43 223.94 759.27 223.94 759.18 223.94 759.53 223.93 759.87 223.86 760.19 223.73 760.49 223.56 760.76 223.34 760.99 223.08 761.18 222.79 761.32 222.47 761.4 222.13 761.43 221.78 761.43 221.78 761.43 209.07 761.43 209.07 761.4 208.73 761.32 208.39 761.18 208.07 760.99 207.78 760.76 207.52 760.49 207.3 760.19 207.12 759.87 207 759.53 206.93 759.27 206.91 726.43 206.91 726.7 206.93 726.35 206.92 726 206.96 725.67 207.05 725.35 207.2 725.07 207.4 724.82 207.64 724.61 207.92 724.45 208.23 724.34 208.56 724.28 208.9 724.27 209.07 724.27 221.78 724.28 221.61 724.28 221.96 724.34 222.3 724.45 222.63 724.61 222.94 724.82 223.21 725.07 223.45 725.35 223.65 725.67 223.8 726 223.9 726.35 223.94" style="stroke-width:nan;stroke:none;fill:none;stroke-linecap:round;stroke-linejoin:round;stroke-miterlimit:10"/><text x="742.85" y="220.34" text-anchor="middle" style="font-size:14px;font-family:Asap" textLength="29.95" lengthAdjust="spacingAndGlyphs">2018</text><polygon points="114.04 246.46 158.84 246.46 158.75 246.46 159.1 246.45 159.44 246.38 159.77 246.26 160.07 246.08 160.34 245.86 160.57 245.6 160.75 245.31 160.89 244.99 160.97 244.65 161 244.3 161 244.3 161 231.6 161 231.6 160.97 231.25 160.89 230.91 160.75 230.59 160.57 230.3 160.34 230.04 160.07 229.82 159.77 229.64 159.44 229.52 159.1 229.45 158.84 229.44 114.04 229.44 114.3 229.45 113.95 229.44 113.6 229.48 113.27 229.58 112.96 229.73 112.67 229.92 112.42 230.16 112.21 230.44 112.05 230.75 111.94 231.08 111.88 231.42 111.88 231.6 111.88 244.3 111.88 244.13 111.88 244.48 111.94 244.82 112.05 245.15 112.21 245.46 112.42 245.74 112.67 245.98 112.96 246.17 113.27 246.32 113.6 246.42 113.95 246.46" style="stroke-width:nan;stroke:none;fill:none;stroke-linecap:round;stroke-linejoin:round;stroke-miterlimit:10"/><text x="136.44" y="242.86" text-anchor="middle" style="font-size:14px;fill:#009147;font-family:Asap" textLength="41.93" lengthAdjust="spacingAndGlyphs">France</text><polygon points="324.01 295.17 403.13 295.17 403.04 295.17 403.39 295.15 403.73 295.08 404.05 294.96 404.35 294.79 404.62 294.57 404.85 294.31 405.04 294.01 405.18 293.69 405.26 293.36 405.29 293.01 405.29 293.01 405.29 280.3 405.29 280.3 405.26 279.95 405.18 279.62 405.04 279.3 404.85 279 404.62 278.74 404.35 278.52 404.05 278.35 403.73 278.23 403.39 278.16 403.13 278.14 324.01 278.14 324.27 278.16 323.92 278.14 323.57 278.18 323.24 278.28 322.93 278.43 322.64 278.63 322.39 278.87 322.18 279.15 322.02 279.45 321.91 279.78 321.85 280.13 321.85 280.3 321.85 293.01 321.85 292.83 321.85 293.18 321.91 293.53 322.02 293.86 322.18 294.16 322.39 294.44 322.64 294.68 322.93 294.88 323.24 295.03 323.57 295.12 323.92 295.17" style="stroke-width:nan;stroke:none;fill:none;stroke-linecap:round;stroke-linejoin:round;stroke-miterlimit:10"/><text x="363.57" y="291.57" text-anchor="middle" style="font-size:14px;fill:#f49323;font-family:Asap" textLength="76.24" lengthAdjust="spacingAndGlyphs">Netherlands</text><polygon points="476.77 201.71 496.62 201.71 496.53 201.71 496.88 201.69 497.22 201.62 497.54 201.5 497.84 201.33 498.11 201.11 498.34 200.85 498.53 200.55 498.66 200.23 498.75 199.9 498.78 199.55 498.78 199.55 498.78 186.84 498.78 186.84 498.75 186.49 498.66 186.16 498.53 185.84 498.34 185.54 498.11 185.28 497.84 185.06 497.54 184.89 497.22 184.77 496.88 184.7 496.62 184.68 476.77 184.68 477.03 184.7 476.69 184.68 476.34 184.72 476.01 184.82 475.69 184.97 475.41 185.17 475.16 185.41 474.95 185.69 474.79 185.99 474.68 186.32 474.62 186.67 474.61 186.84 474.61 199.55 474.62 199.37 474.62 199.72 474.68 200.07 474.79 200.4 474.95 200.7 475.16 200.98 475.41 201.22 475.69 201.42 476.01 201.57 476.34 201.67 476.69 201.71" style="stroke-width:nan;stroke:none;fill:none;stroke-linecap:round;stroke-linejoin:round;stroke-miterlimit:10"/><text x="486.69" y="198.11" text-anchor="middle" style="font-size:14px;fill:#ed1f24;font-family:Asap" textLength="16.96" lengthAdjust="spacingAndGlyphs">US</text><polyline points="106.55 330.09 106.55 14.17" style="stroke-width:1.07;stroke:#464646;stroke-linecap:butt;fill:none;stroke-linejoin:round;stroke-miterlimit:10"/><text x="47.41" y="334.5" style="font-size:18px;font-family:Asap" textLength="42.1" lengthAdjust="spacingAndGlyphs">1,000</text><text x="47.41" y="255.52" style="font-size:18px;font-family:Asap" textLength="42.1" lengthAdjust="spacingAndGlyphs">1,600</text><text x="47.41" y="176.54" style="font-size:18px;font-family:Asap" textLength="42.1" lengthAdjust="spacingAndGlyphs">2,200</text><text x="47.41" y="97.56" style="font-size:18px;font-family:Asap" textLength="42.1" lengthAdjust="spacingAndGlyphs">2,800</text><text x="47.41" y="18.58" style="font-size:18px;font-family:Asap" textLength="42.1" lengthAdjust="spacingAndGlyphs">3,400</text><polyline points="99.47 330.09 106.55 330.09" style="stroke-width:1.07;stroke:#464646;stroke-linecap:butt;fill:none;stroke-linejoin:round;stroke-miterlimit:10"/><polyline points="99.47 251.11 106.55 251.11" style="stroke-width:1.07;stroke:#464646;stroke-linecap:butt;fill:none;stroke-linejoin:round;stroke-miterlimit:10"/><polyline points="99.47 172.13 106.55 172.13" style="stroke-width:1.07;stroke:#464646;stroke-linecap:butt;fill:none;stroke-linejoin:round;stroke-miterlimit:10"/><polyline points="99.47 93.15 106.55 93.15" style="stroke-width:1.07;stroke:#464646;stroke-linecap:butt;fill:none;stroke-linejoin:round;stroke-miterlimit:10"/><polyline points="99.47 14.17 106.55 14.17" style="stroke-width:1.07;stroke:#464646;stroke-linecap:butt;fill:none;stroke-linejoin:round;stroke-miterlimit:10"/><polyline points="106.55 330.09 775.98 330.09" style="stroke-width:1.07;stroke:#464646;stroke-linecap:butt;fill:none;stroke-linejoin:round;stroke-miterlimit:10"/><polyline points="106.55 337.18 106.55 330.09" style="stroke-width:1.07;stroke:#464646;stroke-linecap:butt;fill:none;stroke-linejoin:round;stroke-miterlimit:10"/><polyline points="202.19 337.18 202.19 330.09" style="stroke-width:1.07;stroke:#464646;stroke-linecap:butt;fill:none;stroke-linejoin:round;stroke-miterlimit:10"/><polyline points="297.82 337.18 297.82 330.09" style="stroke-width:1.07;stroke:#464646;stroke-linecap:butt;fill:none;stroke-linejoin:round;stroke-miterlimit:10"/><polyline points="393.45 337.18 393.45 330.09" style="stroke-width:1.07;stroke:#464646;stroke-linecap:butt;fill:none;stroke-linejoin:round;stroke-miterlimit:10"/><polyline points="489.09 337.18 489.09 330.09" style="stroke-width:1.07;stroke:#464646;stroke-linecap:butt;fill:none;stroke-linejoin:round;stroke-miterlimit:10"/><polyline points="584.72 337.18 584.72 330.09" style="stroke-width:1.07;stroke:#464646;stroke-linecap:butt;fill:none;stroke-linejoin:round;stroke-miterlimit:10"/><polyline points="680.35 337.18 680.35 330.09" style="stroke-width:1.07;stroke:#464646;stroke-linecap:butt;fill:none;stroke-linejoin:round;stroke-miterlimit:10"/><polyline points="775.98 337.18 775.98 330.09" style="stroke-width:1.07;stroke:#464646;stroke-linecap:butt;fill:none;stroke-linejoin:round;stroke-miterlimit:10"/><text x="85.5" y="359.78" style="font-size:18px;font-family:Asap" textLength="42.1" lengthAdjust="spacingAndGlyphs">1,000</text><text x="181.14" y="359.78" style="font-size:18px;font-family:Asap" textLength="42.1" lengthAdjust="spacingAndGlyphs">9,000</text><text x="271.95" y="359.78" style="font-size:18px;font-family:Asap" textLength="51.73" lengthAdjust="spacingAndGlyphs">17,000</text><text x="367.59" y="359.78" style="font-size:18px;font-family:Asap" textLength="51.73" lengthAdjust="spacingAndGlyphs">25,000</text><text x="463.22" y="359.78" style="font-size:18px;font-family:Asap" textLength="51.73" lengthAdjust="spacingAndGlyphs">33,000</text><text x="558.85" y="359.78" style="font-size:18px;font-family:Asap" textLength="51.73" lengthAdjust="spacingAndGlyphs">41,000</text><text x="654.49" y="359.78" style="font-size:18px;font-family:Asap" textLength="51.73" lengthAdjust="spacingAndGlyphs">49,000</text><text x="750.12" y="359.78" style="font-size:18px;font-family:Asap" textLength="51.73" lengthAdjust="spacingAndGlyphs">57,000</text><text x="374.76" y="392.59" style="font-size:20px;font-weight:600;font-family:Asap" textLength="38.74" lengthAdjust="spacingAndGlyphs">GDP</text><text x="418.31" y="392.59" style="font-size:20px;font-weight:600;font-family:Asap" textLength="29.56" lengthAdjust="spacingAndGlyphs">per</text><text x="452.67" y="392.59" style="font-size:20px;font-weight:600;font-family:Asap" textLength="55.1" lengthAdjust="spacingAndGlyphs">capita</text><text transform="rotate(-90 147.095 118.875)" style="font-size:20px;font-weight:600;font-family:Asap" textLength="62.52" lengthAdjust="spacingAndGlyphs">Annual</text><text transform="rotate(-90 113.435 85.215)" style="font-size:20px;font-weight:600;font-family:Asap" textLength="49.41" lengthAdjust="spacingAndGlyphs">hours</text><text transform="rotate(-90 86.33 58.11)" style="font-size:20px;font-weight:600;font-family:Asap" textLength="66.15" lengthAdjust="spacingAndGlyphs">worked</text></g></svg>