<svg version="1.1" xmlns="http://www.w3.org/2000/svg" x="0" y="0" viewBox="0 0 311.81 191.35" style="enable-background:new 0 0 311.81 191.35" xml:space="preserve"><line style="fill:none;stroke:#939598;stroke-width:.5;stroke-linejoin:round;stroke-dasharray:1.4173" x1="200.78" y1="62.25" x2="173.99" y2="62.25"/><text transform="translate(222.157 188.232)" style="font-family:'Asap-Medium';font-size:8px">Anil’s pay-off</text><text transform="translate(172.61 173.711)" style="font-family:'Asap-Regular';font-size:7px">0</text><text transform="translate(198.693 173.711)" style="font-family:'Asap-Regular';font-size:7px">1</text><text transform="translate(162.929 139.023)" style="font-family:'Asap-Regular';font-size:7px">1</text><text transform="translate(226.121 173.711)" style="font-family:'Asap-Regular';font-size:7px">2</text><text transform="translate(162.929 114.821)" style="font-family:'Asap-Regular';font-size:7px">2</text><text transform="translate(252.474 173.711)" style="font-family:'Asap-Regular';font-size:7px">3</text><text transform="translate(162.929 89.007)" style="font-family:'Asap-Regular';font-size:7px">3</text><text transform="translate(280.17 173.711)" style="font-family:'Asap-Regular';font-size:7px">4</text><text transform="translate(162.929 64.536)" style="font-family:'Asap-Regular';font-size:7px">4</text><text transform="translate(306.792 173.711)" style="font-family:'Asap-Regular';font-size:7px">5</text><text transform="translate(162.929 39.797)" style="font-family:'Asap-Regular';font-size:7px">5</text><text transform="rotate(-90 140.804 -14.956)" style="font-family:'Asap-Medium';font-size:8px">Bala’s pay-off</text><text transform="translate(162.929 164.03)" style="font-family:'Asap-Regular';font-size:7px">0</text><line style="fill:none;stroke:#939598;stroke-width:.5;stroke-linejoin:round" x1="175.91" y1="136.56" x2="176.61" y2="136.56"/><line style="fill:none;stroke:#939598;stroke-width:.5;stroke-linejoin:round;stroke-dasharray:1.4316,1.4316" x1="178.05" y1="136.56" x2="280.4" y2="136.56"/><line style="fill:none;stroke:#939598;stroke-width:.5;stroke-linejoin:round" x1="281.12" y1="136.56" x2="281.83" y2="136.56"/><line style="fill:none;stroke:#939598;stroke-width:.5;stroke-linejoin:round" x1="227.79" y1="159.73" x2="227.79" y2="159.02"/><line style="fill:none;stroke:#939598;stroke-width:.5;stroke-linejoin:round;stroke-dasharray:1.4097,1.4097" x1="227.79" y1="157.61" x2="227.79" y2="113.21"/><polyline style="fill:none;stroke:#939598;stroke-width:.5;stroke-linejoin:round" points="227.79 112.5 227.79 111.79 227.09 111.79"/><line style="fill:none;stroke:#939598;stroke-width:.5;stroke-linejoin:round;stroke-dasharray:1.442,1.442" x1="225.64" y1="111.79" x2="177.34" y2="111.79"/><line style="fill:none;stroke:#939598;stroke-width:.5;stroke-linejoin:round" x1="176.61" y1="111.79" x2="175.91" y2="111.79"/><polyline style="fill:none;stroke:#939598;stroke-width:.5;stroke-linejoin:round;stroke-dasharray:1.4173" points="175.91 87.02 254.81 87.02 254.81 161.11"/><line style="fill:none;stroke:#939598;stroke-width:.5;stroke-linejoin:round;stroke-dasharray:1.4173" x1="200.78" y1="159.73" x2="200.78" y2="62.25"/><circle cx="227.79" cy="112.09" r="1.13"/><circle cx="200.78" cy="62.25" r="1.13"/><circle cx="254.81" cy="87.02" r="1.13"/><line style="fill:none;stroke:#939598;stroke-width:.5;stroke-linejoin:round;stroke-dasharray:1.4173" x1="281.83" y1="136.56" x2="281.83" y2="161.11"/><circle cx="281.83" cy="136.56" r="1.13"/><text transform="translate(287.232 132.888)" style="font-family:'Asap-Regular';font-size:6.4537px">T, I</text><text transform="translate(216.538 120.787)" style="font-family:'Asap-Regular';font-size:6px">T, T</text><text transform="translate(191.53 58.725)" style="font-family:'Asap-Regular';font-size:6px">I, T</text><text transform="translate(198.154 7.32)" style="font-family:'Asap-Regular';font-size:6px">I, I = Both use Integrated Pest Control (IPC)</text><text transform="translate(196.856 39.585)" style="font-family:'Asap-Regular';font-size:6px">I, T = Anil uses IPC, Bala uses Toxic Tide</text><text transform="translate(196.736 28.83)" style="font-family:'Asap-Regular';font-size:6px">T, I = Anil uses Toxic Tide, Bala uses IPC</text><text transform="translate(195.154 18.075)" style="font-family:'Asap-Regular';font-size:6px">T, T = Both use Toxic Tide</text><text transform="translate(257.41 83.678)" style="font-family:'Asap-Regular';font-size:6.4537px">I, I</text><g><line style="fill:none;stroke:#6d6e71;stroke-width:.5378;stroke-linecap:square;stroke-linejoin:round" x1="173.36" y1="37.48" x2="171.24" y2="37.48"/><line style="fill:none;stroke:#6d6e71;stroke-width:.5378;stroke-linecap:square;stroke-linejoin:round" x1="173.36" y1="62.25" x2="171.24" y2="62.25"/><line style="fill:none;stroke:#6d6e71;stroke-width:.5378;stroke-linecap:square;stroke-linejoin:round" x1="173.36" y1="87.02" x2="171.24" y2="87.02"/><line style="fill:none;stroke:#6d6e71;stroke-width:.5378;stroke-linecap:square;stroke-linejoin:round" x1="173.36" y1="111.79" x2="171.24" y2="111.79"/><line style="fill:none;stroke:#6d6e71;stroke-width:.5378;stroke-linecap:square;stroke-linejoin:round" x1="173.36" y1="136.56" x2="171.24" y2="136.56"/><line style="fill:none;stroke:#6d6e71;stroke-width:.5378;stroke-linecap:square;stroke-linejoin:round" x1="173.36" y1="161.34" x2="171.24" y2="161.34"/><line style="fill:none;stroke:#6d6e71;stroke-width:.5378;stroke-linecap:square;stroke-linejoin:round" x1="173.76" y1="161.34" x2="173.76" y2="37.48"/><line style="fill:none;stroke:#6d6e71;stroke-width:.5378;stroke-linecap:square;stroke-linejoin:round" x1="173.76" y1="161.34" x2="308.85" y2="161.34"/><line style="fill:none;stroke:#6d6e71;stroke-width:.5378;stroke-linecap:square;stroke-linejoin:round" x1="308.85" y1="161.73" x2="308.85" y2="163.86"/><line style="fill:none;stroke:#6d6e71;stroke-width:.5378;stroke-linecap:square;stroke-linejoin:round" x1="254.81" y1="161.73" x2="254.81" y2="163.86"/><line style="fill:none;stroke:#6d6e71;stroke-width:.5378;stroke-linecap:square;stroke-linejoin:round" x1="227.79" y1="161.73" x2="227.79" y2="163.86"/><line style="fill:none;stroke:#6d6e71;stroke-width:.5378;stroke-linecap:square;stroke-linejoin:round" x1="200.78" y1="161.73" x2="200.78" y2="163.86"/><line style="fill:none;stroke:#6d6e71;stroke-width:.5378;stroke-linecap:square;stroke-linejoin:round" x1="173.76" y1="161.73" x2="173.76" y2="163.86"/><line style="fill:none;stroke:#6d6e71;stroke-width:.5378;stroke-linecap:square;stroke-linejoin:round" x1="281.83" y1="161.73" x2="281.83" y2="163.86"/><polygon style="fill:#f1e7f2" points="25.9 113.87 84.8 113.87 84.8 172.77"/><polygon style="fill:#e3e7f4" points="84.8 172.77 25.9 172.77 25.9 113.87"/><line style="fill:#939598;stroke:#fff;stroke-width:.5;stroke-miterlimit:10" x1="25.9" y1="113.56" x2="84.8" y2="172.46"/><line style="fill:none;stroke:#6d6e71;stroke-width:.5;stroke-miterlimit:10" x1="84.8" y1="41.55" x2="84.8" y2="54.96"/><polyline style="fill:#b9519e;stroke:#6d6e71;stroke-width:.499;stroke-miterlimit:10" points="25.9 42.29 25.9 29.89 143.7 29.89 143.7 42.29"/><polygon style="fill:#f1e7f2" points="25.9 54.96 84.8 54.96 84.8 113.87"/><polygon style="fill:#f1e7f2" points="84.8 54.96 143.7 54.96 143.7 113.87"/><polygon style="fill:#f1e7f2" points="84.8 113.87 143.7 113.87 143.7 172.77"/><polygon style="fill:#e3e7f4" points="143.7 172.77 84.8 172.77 84.8 113.87"/><polygon style="fill:#e3e7f4" points="143.7 113.87 84.8 113.87 84.8 54.96"/><polygon style="fill:#e3e7f4" points="84.98 113.87 26.07 113.87 26.07 54.96"/><line style="fill:#939598;stroke:#fff;stroke-width:.5;stroke-miterlimit:10" x1="84.8" y1="54.96" x2="143.7" y2="113.87"/><line style="fill:#939598;stroke:#fff;stroke-width:.5;stroke-miterlimit:10" x1="25.9" y1="54.96" x2="84.8" y2="113.87"/><line style="fill:#939598;stroke:#fff;stroke-width:.5;stroke-miterlimit:10" x1="84.8" y1="113.56" x2="143.7" y2="172.46"/><text transform="translate(50.13 51.214)" style="font-family:'Asap-Regular';font-size:6px">IPC</text><text transform="translate(100.084 51.214)" style="font-family:'Asap-Regular';font-size:6px">Toxic Tide</text><text transform="translate(77.085 38.985)" style="fill:#fff;font-family:'Asap-Regular';font-size:8px">Bala</text><line style="fill:none;stroke:#6d6e71;stroke-width:.5;stroke-miterlimit:10" x1="143.7" y1="42.29" x2="143.7" y2="54.96"/><line style="fill:none;stroke:#6d6e71;stroke-width:.5;stroke-miterlimit:10" x1="25.9" y1="54.96" x2="25.9" y2="42.29"/><rect x="25.9" y="54.96" style="fill:none;stroke:#6d6e71;stroke-width:.5;stroke-miterlimit:10" width="117.8" height="117.8"/><line style="fill:none;stroke:#6d6e71;stroke-width:.5;stroke-miterlimit:10" x1="84.8" y1="54.96" x2="84.8" y2="172.77"/><line style="fill:none;stroke:#6d6e71;stroke-width:.5;stroke-miterlimit:10" x1="25.9" y1="113.87" x2="143.7" y2="113.87"/><text transform="translate(62.04 75.693)" style="font-family:'Asap-Medium';font-size:10px">3</text><text transform="translate(39.31 100.172)" style="font-family:'Asap-Medium';font-size:10px">3</text><text transform="translate(122.008 76.224)" style="font-family:'Asap-Medium';font-size:10px">4</text><text transform="translate(97.307 99.703)" style="font-family:'Asap-Medium';font-size:10px">1</text><text transform="translate(62.04 134.012)" style="font-family:'Asap-Medium';font-size:10px">1</text><g><text transform="translate(39.31 157.658)" style="font-family:'Asap-Medium';font-size:10px">4</text></g><g><text transform="translate(122.008 134.012)" style="font-family:'Asap-Medium';font-size:10px">2</text></g><g><text transform="translate(99.763 157.173)" style="font-family:'Asap-Medium';font-size:10px">2</text></g><polyline style="fill:#0d71ba;stroke:#6d6e71;stroke-width:.499;stroke-miterlimit:10" points="13.57 172.77 1.17 172.77 1.17 54.96 13.57 54.96"/><text transform="rotate(-90 65.925 55.658)" style="fill:#fff;font-family:'Asap-Regular';font-size:8px">Anil</text><line style="fill:none;stroke:#6d6e71;stroke-width:.5;stroke-miterlimit:10" x1="13.57" y1="54.96" x2="26.25" y2="54.96"/><line style="fill:none;stroke:#6d6e71;stroke-width:.5;stroke-miterlimit:10" x1="26.25" y1="172.77" x2="13.57" y2="172.77"/><line style="fill:none;stroke:#6d6e71;stroke-width:.5;stroke-miterlimit:10" x1="13.57" y1="113.87" x2="26.25" y2="113.87"/><g><text transform="rotate(-90 54.508 33.181)" style="font-family:'Asap-Regular';font-size:6px">IPC</text></g><g><text transform="rotate(-90 90.198 68.87)" style="font-family:'Asap-Regular';font-size:6px">Toxic Tide</text></g></g></svg>