<svg version="1.1" xmlns="http://www.w3.org/2000/svg" x="0" y="0" viewBox="0 0 311.81 202.38" style="enable-background:new 0 0 311.81 202.38" xml:space="preserve"><polyline style="fill:#f1f2f2" points="194.46 41.98 112.92 41.98 112.92 81.66"/><polyline style="fill:#f1f2f2" points="112.92 81.66 165.24 81.66 194.46 41.98"/><g><polygon style="fill:#fee7dc" points="50.28 42.08 112.92 42.08 112.92 81.66 50.41 81.66"/><line style="fill:none;stroke:#6d6e71;stroke-width:.5;stroke-linecap:square;stroke-linejoin:round" x1="50.48" y1="11.44" x2="48.35" y2="11.44"/><line style="fill:none;stroke:#6d6e71;stroke-width:.5;stroke-linecap:square;stroke-linejoin:round" x1="50.28" y1="41.98" x2="48.15" y2="41.98"/><line style="fill:none;stroke:#6d6e71;stroke-width:.5;stroke-linecap:square;stroke-linejoin:round" x1="50.48" y1="81.66" x2="48.35" y2="81.66"/><line style="fill:none;stroke:#6d6e71;stroke-width:.5;stroke-linecap:square;stroke-linejoin:round" x1="50.48" y1="148.45" x2="48.35" y2="148.45"/><text transform="rotate(-90 61.644 38.443)"><tspan x="0" y="0" style="font-family:'Asap-Medium';font-size:8px">Price, </tspan><tspan x="21.3" y="0" style="font-family:'Asap-MediumItalic';font-size:8px">P</tspan></text><text transform="translate(34.497 42.98)" style="font-family:'Asap-Italic';font-size:7px">P</text><text transform="matrix(.583 0 0 .583 38.486 45.312)" style="font-family:'Asap-Regular';font-size:7px">1</text><line style="fill:none;stroke:#6d6e71;stroke-width:.5;stroke-linecap:square;stroke-linejoin:round" x1="275.59" y1="148.95" x2="275.59" y2="151.07"/><line style="fill:none;stroke:#6d6e71;stroke-width:.5;stroke-linecap:square;stroke-linejoin:round" x1="50.28" y1="148.95" x2="50.28" y2="151.07"/><text transform="translate(149.112 200.065)"><tspan x="0" y="0" style="font-family:'Asap-Medium';font-size:8px">Quantity, </tspan><tspan x="34.06" y="0" style="font-family:'Asap-MediumItalic';font-size:8px">Q</tspan></text><text transform="translate(64.53 60.861)"><tspan x="0" y="0" style="font-family:'Asap-Regular';font-size:6px">OPEC </tspan><tspan x="0" y="7.2" style="font-family:'Asap-Regular';font-size:6px">producer surplus</tspan></text><text transform="translate(121.342 59.322)"><tspan x="0" y="0" style="font-family:'Asap-Regular';font-size:6px">Non-OPEC</tspan><tspan x="0" y="7.2" style="font-family:'Asap-Regular';font-size:6px">producer surplus</tspan></text><text transform="translate(252.666 120.303)" style="font-family:'Asap-Regular';font-size:6px">Demand</text><text transform="translate(199.714 8.02)" style="font-family:'Asap-Regular';font-size:6px">New supply</text><text transform="translate(37.275 149.523)" style="font-family:'Asap-Regular';font-size:7px">0</text><line style="fill:none;stroke:#6d6e71;stroke-width:.5;stroke-linecap:square;stroke-linejoin:round" x1="194.46" y1="148.95" x2="194.46" y2="151.07"/><line style="fill:none;stroke:#3c54a4;stroke-width:.5;stroke-miterlimit:10" x1="50.49" y1="81.66" x2="112.92" y2="81.66"/><line style="fill:none;stroke:#ed1f24;stroke-width:.5;stroke-miterlimit:10" x1="170.49" y1="7.58" x2="250.76" y2="123.25"/><polyline style="fill:none;stroke:#ed2124;stroke-width:.5;stroke-miterlimit:10" points="50.28 152.42 50.28 159.04 136.63 159.04 136.63 152.42"/><polyline style="fill:none;stroke:#ec2426;stroke-width:.5;stroke-miterlimit:10" points="50.28 170.21 50.28 176.83 81.6 176.83 112.92 176.83 112.92 170.21"/><line style="fill:none;stroke:#ed2124;stroke-width:.5;stroke-miterlimit:10" x1="94.6" y1="159.04" x2="94.6" y2="164.38"/><line style="fill:none;stroke:#ec2426;stroke-width:.5;stroke-miterlimit:10" x1="81.6" y1="183.13" x2="81.6" y2="176.58"/><text transform="translate(75.837 188.969)" style="fill:#ec2426;font-family:'Asap-Italic';font-size:6px">Q&apos;</text><text transform="matrix(.583 0 0 .583 81.32 190.967)" style="fill:#ec2426;font-family:'Asap-Regular';font-size:6px">OPEC</text><text transform="translate(192.126 161.71)" style="font-family:'Asap-Italic';font-size:6px">Q</text><text transform="matrix(.583 0 0 .583 196.511 163.708)" style="font-family:'Asap-Regular';font-size:6px">1</text><text transform="translate(37.275 82.98)" style="font-family:'Asap-Italic';font-size:7px">c</text><text transform="translate(88.27 169.545)" style="fill:#ec2426;font-family:'Asap-Italic';font-size:6px">Q</text><text transform="matrix(.583 0 0 .583 92.655 171.543)" style="fill:#ec2426;font-family:'Asap-Regular';font-size:6px">OPEC</text><line style="fill:none;stroke:#939598;stroke-width:.5;stroke-miterlimit:10;stroke-dasharray:1.417" x1="245.95" y1="11.44" x2="195.73" y2="81.66"/><line style="fill:none;stroke:#939598;stroke-width:.5;stroke-miterlimit:10" x1="165.24" y1="81.66" x2="215.91" y2="11.44"/><line style="fill:#f1f2f2" x1="113.87" y1="42.08" x2="194.46" y2="41.98"/><line style="fill:none;stroke:#939598;stroke-width:.5;stroke-miterlimit:10;stroke-dasharray:1.4173" x1="112.92" y1="148.66" x2="112.92" y2="41.98"/><line style="fill:none;stroke:#6d6e71;stroke-width:.5;stroke-linecap:square;stroke-linejoin:round" x1="50.28" y1="148.45" x2="275.59" y2="148.45"/><line style="fill:none;stroke:#ec2426;stroke-width:.5;stroke-miterlimit:10" x1="194.46" y1="41.98" x2="50.28" y2="41.98"/><line style="fill:none;stroke:#939598;stroke-width:.5;stroke-miterlimit:10;stroke-dasharray:1.4173" x1="194.46" y1="148.66" x2="194.46" y2="41.98"/><line style="fill:none;stroke:#6d6e71;stroke-width:.5;stroke-linecap:square;stroke-linejoin:round" x1="50.28" y1="148.45" x2="50.28" y2="11.44"/><line style="fill:none;stroke:#939598;stroke-width:.5;stroke-miterlimit:10;stroke-dasharray:1.4173" x1="194.46" y1="81.66" x2="112.92" y2="81.66"/></g></svg>