<svg version="1.1" xmlns="http://www.w3.org/2000/svg" x="0" y="0" viewBox="0 0 311.81 204.9" style="enable-background:new 0 0 311.81 204.9" xml:space="preserve"><line style="fill:none;stroke:#6d6e71;stroke-width:.5;stroke-linecap:square" x1="67.08" y1="179.78" x2="234.08" y2="179.78"/><line style="fill:none;stroke:#6d6e71;stroke-width:.5;stroke-linecap:square;stroke-linejoin:round" x1="66.81" y1="179.78" x2="64.68" y2="179.78"/><line style="fill:none;stroke:#6d6e71;stroke-width:.5;stroke-linecap:square;stroke-linejoin:round" x1="66.81" y1="155.78" x2="64.68" y2="155.78"/><line style="fill:none;stroke:#6d6e71;stroke-width:.5;stroke-linecap:square;stroke-linejoin:round" x1="66.81" y1="131.78" x2="64.68" y2="131.78"/><polyline style="fill:none;stroke:#3a53a4;stroke-width:.5;stroke-linecap:square;stroke-linejoin:round" points="67.08 131.78 69.26 131.78 234.08 131.78"/><line style="fill:none;stroke:#6d6e71;stroke-width:.5;stroke-linecap:square;stroke-linejoin:round" x1="66.81" y1="107.78" x2="64.68" y2="107.78"/><line style="fill:none;stroke:#6d6e71;stroke-width:.5;stroke-linecap:square;stroke-linejoin:round" x1="66.81" y1="83.78" x2="64.68" y2="83.78"/><polyline style="fill:none;stroke:#a1b0da;stroke-width:.5;stroke-linecap:square;stroke-linejoin:round" points="67.28 59.78 69.46 59.78 234.08 59.78"/><line style="fill:none;stroke:#6d6e71;stroke-width:.5;stroke-linecap:square;stroke-linejoin:round" x1="66.81" y1="35.78" x2="64.68" y2="35.78"/><line style="fill:none;stroke:#6d6e71;stroke-width:.5;stroke-linecap:square;stroke-linejoin:round" x1="66.81" y1="59.78" x2="64.68" y2="59.78"/><line style="fill:none;stroke:#6d6e71;stroke-width:.5;stroke-linecap:square;stroke-linejoin:round" x1="67.08" y1="11.78" x2="64.95" y2="11.78"/><line style="fill:none;stroke:#6d6e71;stroke-width:.5;stroke-linecap:square" x1="67.08" y1="179.9" x2="67.08" y2="182.03"/><line style="fill:none;stroke:#6d6e71;stroke-width:.5;stroke-linecap:square" x1="94.91" y1="179.9" x2="94.91" y2="182.03"/><line style="fill:none;stroke:#6d6e71;stroke-width:.5;stroke-linecap:square" x1="122.74" y1="179.9" x2="122.74" y2="182.03"/><line style="fill:none;stroke:#6d6e71;stroke-width:.5;stroke-linecap:square" x1="150.58" y1="179.9" x2="150.58" y2="182.03"/><line style="fill:none;stroke:#6d6e71;stroke-width:.5;stroke-linecap:square" x1="178.41" y1="179.9" x2="178.41" y2="182.03"/><line style="fill:none;stroke:#6d6e71;stroke-width:.5;stroke-linecap:square" x1="206.24" y1="179.9" x2="206.24" y2="182.03"/><line style="fill:none;stroke:#6d6e71;stroke-width:.5;stroke-linecap:square" x1="234.08" y1="179.9" x2="234.08" y2="182.03"/><text transform="translate(57.984 181.923)" style="font-family:'Asap-Regular';font-size:7px">0</text><text transform="translate(65.204 190.383)" style="font-family:'Asap-Regular';font-size:7px">0</text><text transform="translate(54.24 157.923)" style="font-family:'Asap-Regular';font-size:7px">10</text><text transform="translate(54.24 133.923)" style="font-family:'Asap-Regular';font-size:7px">20</text><text transform="translate(54.24 109.923)" style="font-family:'Asap-Regular';font-size:7px">30</text><text transform="translate(54.24 85.923)" style="font-family:'Asap-Regular';font-size:7px">40</text><text transform="translate(54.24 61.923)" style="font-family:'Asap-Regular';font-size:7px">50</text><text transform="translate(54.24 37.923)" style="font-family:'Asap-Regular';font-size:7px">60</text><text transform="translate(54.24 13.923)" style="font-family:'Asap-Regular';font-size:7px">70</text><text transform="translate(93.037 190.383)" style="font-family:'Asap-Regular';font-size:7px">4</text><text transform="translate(120.871 190.383)" style="font-family:'Asap-Regular';font-size:7px">8</text><text transform="translate(146.832 190.383)" style="font-family:'Asap-Regular';font-size:7px">12</text><text transform="translate(174.665 190.383)" style="font-family:'Asap-Regular';font-size:7px">16</text><text transform="translate(202.499 190.382)" style="font-family:'Asap-Regular';font-size:7px">20</text><text transform="translate(230.332 190.383)" style="font-family:'Asap-Regular';font-size:7px">24</text><text transform="matrix(0 -.9726 1 0 43.669 119.028)" style="font-family:'Asap-Medium';font-size:8px">Bushels of grain</text><text transform="translate(103.342 202.356)" style="font-family:'Asap-Medium';font-size:8px">Angela’s hours of free time</text><text transform="translate(129.745 11.778)" style="font-family:'Asap-Regular';font-size:7px">Higher utility</text><line style="fill:none;stroke:#d5daee;stroke-width:.5;stroke-miterlimit:10" x1="66.81" y1="24.3" x2="234.74" y2="24.3"/><line style="fill:none;stroke:#5b73b8;stroke-width:.5;stroke-linecap:square;stroke-linejoin:round" x1="67.08" y1="95.69" x2="234.08" y2="95.69"/><line style="fill:none;stroke:#263a71;stroke-width:.5;stroke-linecap:square;stroke-linejoin:round" x1="67.08" y1="170.37" x2="234.08" y2="170.37"/><line style="fill:none;stroke:#000;stroke-width:.5;stroke-linecap:square;stroke-linejoin:round" x1="150.58" y1="175.41" x2="150.58" y2="18.37"/><polygon points="152.62 20.02 152.26 20.37 150.58 18.56 148.9 20.37 148.53 20.02 150.58 17.83"/><line style="fill:none;stroke:#6d6e71;stroke-width:.5;stroke-linecap:square;stroke-linejoin:round" x1="67.08" y1="11.78" x2="67.08" y2="179.59"/></svg>