<svg version="1.1" xmlns="http://www.w3.org/2000/svg" x="0" y="0" viewBox="0 0 311.81 158.16" style="enable-background:new 0 0 311.81 158.16" xml:space="preserve"><rect x="166.44" y="91.45" style="fill:#e3e7f4;stroke:#6d6e71;stroke-width:.5;stroke-miterlimit:10" width="58.67" height="58.67"/><rect x="166.44" y="32.78" style="fill:#e3e7f4;stroke:#6d6e71;stroke-width:.5;stroke-miterlimit:10" width="58.67" height="58.67"/><rect x="107.94" y="91.28" style="fill:#e3e7f4;stroke:#6d6e71;stroke-width:.5;stroke-miterlimit:10" width="58.67" height="58.67"/><rect x="107.94" y="32.78" style="fill:#e3e7f4;stroke:#6d6e71;stroke-width:.5;stroke-miterlimit:10" width="58.67" height="58.67"/><text transform="translate(117.225 46.751)"><tspan x="0" y="0" style="font-family:'Asap-Regular';font-size:4.8px">Both produce rice</tspan><tspan x="-3.97" y="11.52" style="font-family:'Asap-Regular';font-size:4.8px">There is a glut of rice </tspan><tspan x="7.62" y="17.28" style="font-family:'Asap-Regular';font-size:4.8px">(low price)</tspan><tspan x="-1.27" y="28.8" style="font-family:'Asap-Regular';font-size:4.8px">There is a shortage</tspan><tspan x="7.9" y="34.56" style="font-family:'Asap-Regular';font-size:4.8px">of cassava</tspan></text><text transform="translate(179.769 46.752)"><tspan x="0" y="0" style="font-family:'Asap-Regular';font-size:4.8px">No market glut</tspan><tspan x="-11.4" y="11.52" style="font-family:'Asap-Regular';font-size:4.8px">High prices for both crops</tspan><tspan x="-9.06" y="23.04" style="font-family:'Asap-Regular';font-size:4.8px">Bala produces the crop </tspan><tspan x="-5.52" y="28.8" style="font-family:'Asap-Regular';font-size:4.8px">for which his land is </tspan><tspan x="6.9" y="34.56" style="font-family:'Asap-Regular';font-size:4.8px">unsuited</tspan></text><text transform="translate(121.267 117.114)"><tspan x="0" y="0" style="font-family:'Asap-Regular';font-size:4.8px">No market glut</tspan><tspan x="-11.4" y="11.52" style="font-family:'Asap-Regular';font-size:4.8px">High prices for both crops</tspan></text><text transform="translate(172.658 96.954)"><tspan x="0" y="0" style="font-family:'Asap-Regular';font-size:4.8px">Both produce cassava</tspan><tspan x="-3.39" y="11.52" style="font-family:'Asap-Regular';font-size:4.8px">There is a glut of cassava</tspan><tspan x="11.88" y="17.28" style="font-family:'Asap-Regular';font-size:4.8px">(low price)</tspan><tspan x="-4.27" y="28.8" style="font-family:'Asap-Regular';font-size:4.8px">There is a shortage of rice</tspan><tspan x="-1.95" y="40.32" style="font-family:'Asap-Regular';font-size:4.8px">Bala produces the crop </tspan><tspan x="1.59" y="46.08" style="font-family:'Asap-Regular';font-size:4.8px">for which his land is </tspan><tspan x="14.01" y="51.84" style="font-family:'Asap-Regular';font-size:4.8px">unsuited</tspan></text><line style="fill:none;stroke:#6d6e71;stroke-width:.5;stroke-miterlimit:10" x1="166.53" y1="19.41" x2="166.53" y2="32.78"/><polyline style="fill:#b9519e;stroke:#6d6e71;stroke-width:.5;stroke-miterlimit:10" points="107.85 20.15 107.85 7.8 225.2 7.8 225.2 20.15"/><text transform="translate(130.86 29.04)" style="font-family:'Asap-Regular';font-size:6px">Rice</text><text transform="translate(184.572 29.041)" style="font-family:'Asap-Regular';font-size:6px">Cassava</text><text transform="translate(158.84 16.858)" style="fill:#fff;font-family:'Asap-Regular';font-size:8px">Bala</text><line style="fill:none;stroke:#6d6e71;stroke-width:.5;stroke-miterlimit:10" x1="225.2" y1="20.15" x2="225.2" y2="32.78"/><line style="fill:none;stroke:#6d6e71;stroke-width:.5;stroke-miterlimit:10" x1="107.85" y1="32.78" x2="107.85" y2="20.15"/><rect x="107.85" y="32.78" style="fill:none;stroke:#6d6e71;stroke-width:.5;stroke-miterlimit:10" width="117.35" height="117.35"/><line style="fill:none;stroke:#6d6e71;stroke-width:.5;stroke-miterlimit:10" x1="166.53" y1="32.78" x2="166.53" y2="150.12"/><line style="fill:none;stroke:#6d6e71;stroke-width:.5;stroke-miterlimit:10" x1="107.85" y1="91.45" x2="225.2" y2="91.45"/><polyline style="fill:#0d71ba;stroke:#6d6e71;stroke-width:.5;stroke-miterlimit:10" points="95.58 150.12 83.22 150.12 83.22 32.78 95.58 32.78"/><text transform="rotate(-90 117.782 14.316)" style="font-family:'Asap-Regular';font-size:6px">Cassava</text><text transform="rotate(-90 85.861 -17.605)" style="font-family:'Asap-Regular';font-size:6px">Rice</text><text transform="rotate(-90 95.708 3.428)" style="fill:#fff;font-family:'Asap-Regular';font-size:8px">Anil</text><line style="fill:none;stroke:#6d6e71;stroke-width:.5;stroke-miterlimit:10" x1="95.58" y1="32.78" x2="108.2" y2="32.78"/><line style="fill:none;stroke:#6d6e71;stroke-width:.5;stroke-miterlimit:10" x1="108.2" y1="150.12" x2="95.58" y2="150.12"/><line style="fill:none;stroke:#6d6e71;stroke-width:.5;stroke-miterlimit:10" x1="95.58" y1="91.45" x2="108.2" y2="91.45"/></svg>