<svg version="1.1" xmlns="http://www.w3.org/2000/svg" x="0" y="0" viewBox="0 0 311.81 178.84" style="enable-background:new 0 0 311.81 178.84" xml:space="preserve"><polyline style="fill:none;stroke:#ed1f24;stroke-width:.5;stroke-linejoin:round;stroke-miterlimit:10" points="30.52 24.9 33.82 29.38 37.2 33.69 40.5 37.75 43.88 41.64 47.17 45.44 50.55 49.07 53.85 52.54 57.23 55.92 60.53 59.13 63.91 62.34 67.21 65.3 70.59 68.26 73.88 71.05 77.26 73.76 80.56 76.38 83.94 78.91 87.24 81.36 90.62 83.73 93.92 86.01 97.3 88.21 100.59 90.41 103.89 92.44 107.27 94.38 110.57 96.32 113.95 98.18 117.24 99.96 120.63 101.73 123.92 103.34 127.3 105.03 130.6 106.55 133.98 108.07 137.28 109.51 140.66 110.95 143.95 112.3 147.34 113.57 150.63 114.83 154.01 116.1 157.31 117.29 160.69 118.38 163.99 119.48 167.37 120.58 170.66 121.6 173.96 122.61 177.34 123.62 180.64 124.55 184.02 125.4 187.32 126.33 190.7 127.17 193.99 127.94 197.37 128.78 200.67 129.54 204.05 130.22 207.35 130.98 210.73 131.65 214.02 132.33 217.41 132.92 220.7 133.6 224.08 134.19 227.38 134.78 230.76 135.29 234.06 135.88 237.44 136.39 240.73 136.9 244.12 137.4 247.41 137.82 250.71 138.33 254.09 138.75 257.39 139.18 260.77 139.6 264.06 140.02 267.44 140.36 270.74 140.78 274.12 141.12 277.42 141.46 280.8 141.8 284.1 142.14 287.48 142.47 290.77 142.73 294.15 143.07 297.45 143.32"/><line style="fill:none;stroke:#6d6e71;stroke-width:.5;stroke-linecap:square" x1="30.48" y1="150.8" x2="30.48" y2="10.15"/><line style="fill:none;stroke:#6d6e71;stroke-width:.5;stroke-linecap:square" x1="28.35" y1="150.8" x2="30.48" y2="150.8"/><line style="fill:none;stroke:#6d6e71;stroke-width:.5;stroke-linecap:square" x1="28.35" y1="133.22" x2="30.48" y2="133.22"/><line style="fill:none;stroke:#6d6e71;stroke-width:.5;stroke-linecap:square" x1="28.35" y1="115.64" x2="30.48" y2="115.64"/><line style="fill:none;stroke:#6d6e71;stroke-width:.5;stroke-linecap:square" x1="28.35" y1="98.06" x2="30.48" y2="98.06"/><line style="fill:none;stroke:#6d6e71;stroke-width:.5;stroke-linecap:square" x1="28.35" y1="80.48" x2="30.48" y2="80.48"/><line style="fill:none;stroke:#6d6e71;stroke-width:.5;stroke-linecap:square" x1="28.35" y1="62.89" x2="30.48" y2="62.89"/><line style="fill:none;stroke:#6d6e71;stroke-width:.5;stroke-linecap:square" x1="28.35" y1="45.31" x2="30.48" y2="45.31"/><line style="fill:none;stroke:#6d6e71;stroke-width:.5;stroke-linecap:square" x1="28.35" y1="27.73" x2="30.48" y2="27.73"/><line style="fill:none;stroke:#6d6e71;stroke-width:.5;stroke-linecap:square" x1="28.35" y1="10.15" x2="30.48" y2="10.15"/><line style="fill:none;stroke:#6d6e71;stroke-width:.5;stroke-linecap:square" x1="30.48" y1="150.8" x2="297.49" y2="150.8"/><text transform="translate(20.422 152.639)" style="font-family:'Asap-Regular';font-size:6px">0</text><text transform="translate(20.422 135.058)" style="font-family:'Asap-Regular';font-size:6px">1</text><text transform="translate(20.422 117.477)" style="font-family:'Asap-Regular';font-size:6px">2</text><text transform="translate(20.422 99.896)" style="font-family:'Asap-Regular';font-size:6px">3</text><text transform="translate(20.422 82.315)" style="font-family:'Asap-Regular';font-size:6px">4</text><text transform="translate(20.422 64.734)" style="font-family:'Asap-Regular';font-size:6px">5</text><text transform="translate(20.422 47.152)" style="font-family:'Asap-Regular';font-size:6px">6</text><text transform="translate(20.422 29.571)" style="font-family:'Asap-Regular';font-size:6px">7</text><text transform="translate(20.422 11.99)" style="font-family:'Asap-Regular';font-size:6px">8</text><text transform="translate(28.874 161.795)" style="font-family:'Asap-Regular';font-size:6px">0</text><text transform="translate(55.237 161.795)" style="font-family:'Asap-Regular';font-size:6px">10,000</text><text transform="translate(88.613 161.795)" style="font-family:'Asap-Regular';font-size:6px">20,000</text><text transform="translate(121.99 161.795)" style="font-family:'Asap-Regular';font-size:6px">30,000</text><text transform="translate(155.367 161.795)" style="font-family:'Asap-Regular';font-size:6px">40,000</text><text transform="translate(188.743 161.795)" style="font-family:'Asap-Regular';font-size:6px">50,000</text><text transform="translate(222.12 161.795)" style="font-family:'Asap-Regular';font-size:6px">60,000</text><text transform="translate(255.496 161.795)" style="font-family:'Asap-Regular';font-size:6px">70,000</text><text transform="translate(288.874 161.795)" style="font-family:'Asap-Regular';font-size:6px">80,000</text><text transform="rotate(-90 68.005 55.457)"><tspan x="0" y="0" style="font-family:'Asap-Medium';font-size:8px">P</tspan><tspan x="4.57" y="0" style="font-family:'Asap-Medium';font-size:8px">ri</tspan><tspan x="9.62" y="0" style="font-family:'Asap-Medium';font-size:8px">c</tspan><tspan x="13.49" y="0" style="font-family:'Asap-Medium';font-size:8px">e</tspan><tspan x="17.78" y="0" style="font-family:'Asap-Medium';font-size:8px">,</tspan><tspan x="19.38" y="0" style="font-family:'Asap-Medium';font-size:8px"> </tspan><tspan x="21.42" y="0" style="font-family:'Asap-MediumItalic';font-size:8px">P</tspan><tspan x="25.98" y="0" style="font-family:'Asap-Medium';font-size:8px"> </tspan><tspan x="27.83" y="0" style="font-family:'Asap-Medium';font-size:8px">(</tspan><tspan x="30.22" y="0" style="font-family:'Asap-Medium';font-size:8px">d</tspan><tspan x="34.78" y="0" style="font-family:'Asap-Medium';font-size:8px">o</tspan><tspan x="39.34" y="0" style="font-family:'Asap-Medium';font-size:8px">ll</tspan><tspan x="44.1" y="0" style="font-family:'Asap-Medium';font-size:8px">a</tspan><tspan x="48.47" y="0" style="font-family:'Asap-Medium';font-size:8px">r</tspan><tspan x="51.4" y="0" style="font-family:'Asap-Medium';font-size:8px">s</tspan><tspan x="54.66" y="0" style="font-family:'Asap-Medium';font-size:8px"> </tspan><tspan x="56.69" y="0" style="font-family:'Asap-Medium';font-size:8px">p</tspan><tspan x="61.31" y="0" style="font-family:'Asap-Medium';font-size:8px">e</tspan><tspan x="65.6" y="0" style="font-family:'Asap-Medium';font-size:8px">r</tspan><tspan x="68.53" y="0" style="font-family:'Asap-Medium';font-size:8px"> </tspan><tspan x="70.46" y="0" style="font-family:'Asap-Medium';font-size:8px">p</tspan><tspan x="75.08" y="0" style="font-family:'Asap-Medium';font-size:8px">o</tspan><tspan x="79.65" y="0" style="font-family:'Asap-Medium';font-size:8px">und</tspan><tspan x="93.17" y="0" style="font-family:'Asap-Medium';font-size:8px">)</tspan></text><text transform="translate(116.733 174.767)"><tspan x="0" y="0" style="font-family:'Asap-Medium';font-size:8px">Q</tspan><tspan x="5.86" y="0" style="font-family:'Asap-Medium';font-size:8px">u</tspan><tspan x="10.34" y="0" style="font-family:'Asap-Medium';font-size:8px">a</tspan><tspan x="14.72" y="0" style="font-family:'Asap-Medium';font-size:8px">n</tspan><tspan x="19.21" y="0" style="font-family:'Asap-Medium';font-size:8px">t</tspan><tspan x="21.96" y="0" style="font-family:'Asap-Medium';font-size:8px">i</tspan><tspan x="24.08" y="0" style="font-family:'Asap-Medium';font-size:8px">t</tspan><tspan x="26.83" y="0" style="font-family:'Asap-Medium';font-size:8px">y</tspan><tspan x="30.72" y="0" style="font-family:'Asap-Medium';font-size:8px"> </tspan><tspan x="32.57" y="0" style="font-family:'Asap-Medium';font-size:8px">o</tspan><tspan x="37.14" y="0" style="font-family:'Asap-Medium';font-size:8px">f</tspan><tspan x="39.71" y="0" style="font-family:'Asap-Medium';font-size:8px"> </tspan><tspan x="41.65" y="0" style="font-family:'Asap-Medium';font-size:8px">C</tspan><tspan x="46.58" y="0" style="font-family:'Asap-Medium';font-size:8px">h</tspan><tspan x="51.13" y="0" style="font-family:'Asap-Medium';font-size:8px">ee</tspan><tspan x="59.7" y="0" style="font-family:'Asap-Medium';font-size:8px">ri</tspan><tspan x="64.75" y="0" style="font-family:'Asap-Medium';font-size:8px">o</tspan><tspan x="69.32" y="0" style="font-family:'Asap-Medium';font-size:8px">s</tspan><tspan x="72.58" y="0" style="font-family:'Asap-Medium';font-size:8px">,</tspan><tspan x="74.19" y="0" style="font-family:'Asap-Medium';font-size:8px"> </tspan><tspan x="76.32" y="0" style="font-family:'Asap-MediumItalic';font-size:8px">Q</tspan><tspan x="82.17" y="0" style="font-family:'Asap-Medium';font-size:8px"> </tspan><tspan x="84.11" y="0" style="font-family:'Asap-Medium';font-size:8px">(</tspan><tspan x="86.5" y="0" style="font-family:'Asap-Medium';font-size:8px">p</tspan><tspan x="91.12" y="0" style="font-family:'Asap-Medium';font-size:8px">o</tspan><tspan x="95.69" y="0" style="font-family:'Asap-Medium';font-size:8px">und</tspan><tspan x="109.21" y="0" style="font-family:'Asap-Medium';font-size:8px">s</tspan><tspan x="112.48" y="0" style="font-family:'Asap-Medium';font-size:8px">)</tspan></text><text transform="translate(247.315 131.608)"><tspan x="0" y="0" style="font-family:'Asap-Regular';font-size:7px">De</tspan><tspan x="8.69" y="0" style="font-family:'Asap-Regular';font-size:7px">m</tspan><tspan x="14.62" y="0" style="font-family:'Asap-Regular';font-size:7px">an</tspan><tspan x="22.29" y="0" style="font-family:'Asap-Regular';font-size:7px">d</tspan><tspan x="26.24" y="0" style="font-family:'Asap-Regular';font-size:7px"> </tspan><tspan x="27.82" y="0" style="font-family:'Asap-Regular';font-size:7px">curve</tspan></text><rect x="106.55" y="121.47" style="fill-rule:evenodd;clip-rule:evenodd;fill:none" width="206.75" height="12"/><polygon style="fill-rule:evenodd;clip-rule:evenodd;fill:none" points="106.55 133.47 313.3 133.47 313.3 121.47 106.55 121.47 106.55 133.47"/><line style="fill:none;stroke:#6d6e71;stroke-width:.5;stroke-linecap:square" x1="30.48" y1="150.8" x2="30.48" y2="152.93"/><line style="fill:none;stroke:#6d6e71;stroke-width:.5;stroke-linecap:square" x1="63.86" y1="150.8" x2="63.86" y2="152.93"/><line style="fill:none;stroke:#6d6e71;stroke-width:.5;stroke-linecap:square" x1="97.23" y1="150.8" x2="97.23" y2="152.93"/><line style="fill:none;stroke:#6d6e71;stroke-width:.5;stroke-linecap:square" x1="130.61" y1="150.8" x2="130.61" y2="152.93"/><line style="fill:none;stroke:#6d6e71;stroke-width:.5;stroke-linecap:square" x1="163.99" y1="150.8" x2="163.99" y2="152.93"/><line style="fill:none;stroke:#6d6e71;stroke-width:.5;stroke-linecap:square" x1="197.36" y1="150.8" x2="197.36" y2="152.93"/><line style="fill:none;stroke:#6d6e71;stroke-width:.5;stroke-linecap:square" x1="230.74" y1="150.8" x2="230.74" y2="152.93"/><line style="fill:none;stroke:#6d6e71;stroke-width:.5;stroke-linecap:square" x1="264.12" y1="150.8" x2="264.12" y2="152.93"/><line style="fill:none;stroke:#6d6e71;stroke-width:.5;stroke-linecap:square" x1="297.49" y1="150.8" x2="297.49" y2="152.93"/></svg>