<svg version="1.1" xmlns="http://www.w3.org/2000/svg" x="0" y="0" viewBox="0 0 311.81 205.9" style="enable-background:new 0 0 311.81 205.9" xml:space="preserve"><rect x="50" y="41.2" style="fill:#e3e7f4" width="69.02" height="120.5"/><rect x="50.1" y="38.23" style="fill:#fee6da" width="63.5" height="123.47"/><line style="fill:none;stroke:#6d6e70;stroke-width:.5;stroke-linecap:square" x1="81.86" y1="161.71" x2="81.86" y2="164.23"/><line style="fill:none;stroke:#6d6e70;stroke-width:.5;stroke-linecap:square" x1="50.13" y1="123.02" x2="47.6" y2="123.02"/><line style="fill:none;stroke:#6d6e70;stroke-width:.5;stroke-linecap:square" x1="50.13" y1="103.68" x2="47.6" y2="103.68"/><line style="fill:none;stroke:#6d6e70;stroke-width:.5;stroke-linecap:square" x1="50.13" y1="26.32" x2="47.6" y2="26.32"/><line style="fill:none;stroke:#6d6e70;stroke-width:.5;stroke-linecap:square" x1="50.13" y1="45.66" x2="47.6" y2="45.66"/><line style="fill:none;stroke:#6d6e70;stroke-width:.5;stroke-linecap:square" x1="50.13" y1="65" x2="47.6" y2="65"/><line style="fill:none;stroke:#6d6e70;stroke-width:.5;stroke-linecap:square" x1="50.13" y1="84.34" x2="47.6" y2="84.34"/><line style="fill:none;stroke:#6d6e70;stroke-width:.5;stroke-linecap:square" x1="47.6" y1="6.98" x2="50.13" y2="6.98"/><line style="fill:none;stroke:#ed1f24;stroke-width:.5" x1="50.1" y1="7.21" x2="303.99" y2="132.41"/><line style="fill:none;stroke:#6d6e70;stroke-width:.5;stroke-linecap:square" x1="50.13" y1="142.37" x2="47.6" y2="142.37"/><line style="fill:none;stroke:#6d6e70;stroke-width:.5;stroke-linecap:square" x1="303.99" y1="161.71" x2="303.99" y2="164.23"/><line style="fill:none;stroke:#6d6e70;stroke-width:.5;stroke-linecap:square" x1="208.79" y1="161.71" x2="208.79" y2="164.23"/><line style="fill:none;stroke:#6d6e70;stroke-width:.5;stroke-linecap:square" x1="240.52" y1="161.71" x2="240.52" y2="164.23"/><line style="fill:none;stroke:#6d6e70;stroke-width:.5;stroke-linecap:square" x1="177.06" y1="161.71" x2="177.06" y2="164.23"/><line style="fill:none;stroke:#6d6e70;stroke-width:.5;stroke-linecap:square" x1="145.33" y1="161.71" x2="145.33" y2="164.23"/><line style="fill:none;stroke:#6d6e70;stroke-width:.5;stroke-linecap:square" x1="113.59" y1="161.71" x2="113.59" y2="164.23"/><text transform="translate(134.042 200.388)"><tspan x="0" y="0" style="font-family:'Asap-Medium';font-size:8px">Quantity of cars, </tspan><tspan x="59.53" y="0" style="font-family:'Asap-MediumItalic';font-size:8px">Q</tspan></text><text transform="rotate(-90 59.5 48.158)"><tspan x="0" y="0" style="font-family:'Asap-Medium';font-size:8px">Price, </tspan><tspan x="21.3" y="0" style="font-family:'Asap-MediumItalic';font-size:8px">P</tspan></text><text transform="translate(41.683 163.92)" style="font-family:'Asap-Regular';font-size:7px">0</text><text transform="translate(51.604 171.553)" style="font-family:'Asap-Regular';font-size:7px">0</text><text transform="translate(268.917 171.553)" style="font-family:'Asap-Regular';font-size:7px">70</text><text transform="translate(236.337 171.553)" style="font-family:'Asap-Regular';font-size:7px">60</text><text transform="translate(204.756 171.553)" style="font-family:'Asap-Regular';font-size:7px">50</text><text transform="translate(173.177 171.553)" style="font-family:'Asap-Regular';font-size:7px">40</text><text transform="translate(141.598 171.553)" style="font-family:'Asap-Regular';font-size:7px">30</text><text transform="translate(110.018 171.553)" style="font-family:'Asap-Regular';font-size:7px">20</text><text transform="translate(78.438 171.553)" style="font-family:'Asap-Regular';font-size:7px">10</text><text transform="translate(25.318 8.678)" style="font-family:'Asap-Regular';font-size:7px">40,000</text><text transform="translate(25.318 28.083)" style="font-family:'Asap-Regular';font-size:7px">35,000</text><text transform="translate(25.318 47.488)" style="font-family:'Asap-Regular';font-size:7px">30,000</text><text transform="translate(25.318 66.893)" style="font-family:'Asap-Regular';font-size:7px">25,000</text><text transform="translate(25.318 86.299)" style="font-family:'Asap-Regular';font-size:7px">20,000</text><text transform="translate(25.318 105.704)" style="font-family:'Asap-Regular';font-size:7px">15,000</text><text transform="translate(25.318 125.11)" style="font-family:'Asap-Regular';font-size:7px">10,000</text><text transform="translate(29.063 144.515)" style="font-family:'Asap-Regular';font-size:7px">5,000</text><text transform="translate(299.497 171.553)" style="font-family:'Asap-Regular';font-size:7px">80</text><line style="fill:none;stroke:#6d6e70;stroke-width:.5;stroke-linecap:square" x1="272.25" y1="161.71" x2="272.25" y2="164.23"/><line style="fill:none;stroke:#6d6e70;stroke-width:.5;stroke-linecap:square" x1="50.13" y1="161.71" x2="47.6" y2="161.71"/><text transform="translate(21.398 202.732)" style="font-family:'Asap-Regular';font-size:7px">−10,000</text><text transform="translate(25.143 183.326)" style="font-family:'Asap-Regular';font-size:7px">−5,000</text><line style="fill:none;stroke:#6d6e70;stroke-width:.5;stroke-linecap:square" x1="50.13" y1="200.39" x2="47.6" y2="200.39"/><line style="fill:none;stroke:#6d6e70;stroke-width:.5;stroke-linecap:square" x1="50" y1="181.05" x2="47.48" y2="181.05"/><text transform="translate(66.668 35.959)" style="font-family:'Asap-Regular';font-size:6px">Loss</text><circle style="fill:#231f20" cx="113.59" cy="38.23" r="1.13"/><text transform="rotate(90 25.16 96.866)" style="font-family:'Asap-Regular';font-size:6px">Gain</text><rect x="50.13" y="41.2" style="fill:#f1e7f2" width="63.46" height="120.5"/><line style="fill:none;stroke:#6d6e71;stroke-width:.5;stroke-miterlimit:10" x1="50.13" y1="161.71" x2="304.38" y2="161.71"/><line style="fill:none;stroke:#6d6e71;stroke-width:.5;stroke-miterlimit:10" x1="50.13" y1="200.39" x2="50.13" y2="6.98"/><line style="fill:none;stroke:#b9519e;stroke-width:.5" x1="303.99" y1="107.43" x2="50.13" y2="107.43"/></svg>