<svg version="1.1" xmlns="http://www.w3.org/2000/svg" x="0" y="0" viewBox="0 0 311.81 176.83" style="enable-background:new 0 0 311.81 176.83" xml:space="preserve"><polygon style="fill:#f0e6f2" points="250.92 96.11 309.82 96.11 309.82 155.01"/><polygon style="fill:#e2e6f4" points="309.82 155.01 250.92 155.01 250.92 96.11"/><polygon style="fill:#f0e6f2" points="250.92 37.21 309.82 37.21 309.82 96.11"/><polygon style="fill:#e2e6f4" points="309.99 96.11 251.09 96.11 251.09 37.21"/><text transform="translate(25.275 158.03)" style="fill:#231f20;font-family:'Asap-Regular';font-size:7px">0</text><text transform="translate(51.359 158.03)" style="fill:#231f20;font-family:'Asap-Regular';font-size:7px">1</text><text transform="translate(15.594 123.342)" style="fill:#231f20;font-family:'Asap-Regular';font-size:7px">1</text><text transform="translate(78.787 158.03)" style="fill:#231f20;font-family:'Asap-Regular';font-size:7px">2</text><text transform="translate(15.594 99.14)" style="fill:#231f20;font-family:'Asap-Regular';font-size:7px">2</text><text transform="translate(105.14 158.03)" style="fill:#231f20;font-family:'Asap-Regular';font-size:7px">3</text><text transform="translate(15.594 73.326)" style="fill:#231f20;font-family:'Asap-Regular';font-size:7px">3</text><text transform="translate(132.836 158.03)" style="fill:#231f20;font-family:'Asap-Regular';font-size:7px">4</text><text transform="translate(15.594 48.856)" style="fill:#231f20;font-family:'Asap-Regular';font-size:7px">4</text><text transform="translate(159.458 158.03)" style="fill:#231f20;font-family:'Asap-Regular';font-size:7px">5</text><text transform="translate(15.594 24.117)" style="fill:#231f20;font-family:'Asap-Regular';font-size:7px">5</text><text transform="translate(15.594 148.35)" style="fill:#231f20;font-family:'Asap-Regular';font-size:7px">0</text><text transform="translate(137.84 125.415)" style="fill:#231f20;font-family:'Asap-Regular';font-size:6.4537px">T, I</text><text transform="translate(109.744 69.788)" style="fill:#231f20;font-family:'Asap-Regular';font-size:6.4537px">I, I</text><text transform="translate(77.64 105.088)" style="fill:#231f20;font-family:'Asap-Regular';font-size:6px">T, T</text><text transform="translate(70.974 172.552)" style="fill:#231f20;font-family:'Asap-Medium';font-size:8px">Anil’s income</text><text transform="rotate(-90 58.797 51.37)" style="fill:#231f20;font-family:'Asap-Medium';font-size:8px">Bala’s income</text><line style="fill:none;stroke:#6e6f71;stroke-width:.5378;stroke-linecap:square;stroke-linejoin:round" x1="26.03" y1="21.8" x2="23.9" y2="21.8"/><line style="fill:none;stroke:#6e6f71;stroke-width:.5378;stroke-linecap:square;stroke-linejoin:round" x1="26.03" y1="46.57" x2="23.9" y2="46.57"/><line style="fill:none;stroke:#6e6f71;stroke-width:.5378;stroke-linecap:square;stroke-linejoin:round" x1="26.03" y1="71.34" x2="23.9" y2="71.34"/><line style="fill:none;stroke:#6e6f71;stroke-width:.5378;stroke-linecap:square;stroke-linejoin:round" x1="26.03" y1="96.11" x2="23.9" y2="96.11"/><line style="fill:none;stroke:#6e6f71;stroke-width:.5378;stroke-linecap:square;stroke-linejoin:round" x1="26.03" y1="120.88" x2="23.9" y2="120.88"/><line style="fill:none;stroke:#6e6f71;stroke-width:.5378;stroke-linecap:square;stroke-linejoin:round" x1="26.03" y1="145.66" x2="23.9" y2="145.66"/><line style="fill:none;stroke:#6e6f71;stroke-width:.5378;stroke-linecap:square;stroke-linejoin:round" x1="26.43" y1="145.66" x2="26.43" y2="21.8"/><line style="fill:none;stroke:#6e6f71;stroke-width:.5378;stroke-linecap:square;stroke-linejoin:round" x1="26.43" y1="145.66" x2="161.51" y2="145.66"/><line style="fill:none;stroke:#6e6f71;stroke-width:.5378;stroke-linecap:square;stroke-linejoin:round" x1="161.51" y1="146.05" x2="161.51" y2="148.18"/><line style="fill:none;stroke:#6e6f71;stroke-width:.5378;stroke-linecap:square;stroke-linejoin:round" x1="107.48" y1="146.05" x2="107.48" y2="148.18"/><line style="fill:none;stroke:#6e6f71;stroke-width:.5378;stroke-linecap:square;stroke-linejoin:round" x1="80.46" y1="148.18" x2="80.46" y2="146.05"/><line style="fill:none;stroke:#6e6f71;stroke-width:.5378;stroke-linecap:square;stroke-linejoin:round" x1="53.44" y1="146.05" x2="53.44" y2="148.18"/><line style="fill:none;stroke:#6e6f71;stroke-width:.5378;stroke-linecap:square;stroke-linejoin:round" x1="26.43" y1="146.05" x2="26.43" y2="148.18"/><line style="fill:none;stroke:#6e6f71;stroke-width:.5378;stroke-linecap:square;stroke-linejoin:round" x1="134.49" y1="146.05" x2="134.49" y2="148.18"/><circle style="fill:#231f20" cx="134.49" cy="120.88" r="1.13"/><circle style="fill:#231f20" cx="80.46" cy="96.41" r="1.13"/><text transform="rotate(-23.943 172.908 -110.501)" style="fill:#010101;font-family:'Asap-Regular';font-size:6px">Anil’s utility</text><text transform="translate(56.711 9.475)" style="fill:#010101;font-family:'Asap-Medium';font-size:8px">Altruistic preferences</text><polygon style="fill:#f0e6f2" points="192.58 95.96 251.48 95.96 251.48 154.87"/><polygon style="fill:#e2e6f4" points="251.48 154.87 192.58 154.87 192.58 95.96"/><line style="fill:#929497;stroke:#fff;stroke-width:.5;stroke-miterlimit:10" x1="192.58" y1="95.66" x2="251.48" y2="154.56"/><line style="fill:none;stroke:#6e6f71;stroke-width:.5;stroke-miterlimit:10" x1="251.48" y1="23.65" x2="251.48" y2="37.06"/><polyline style="fill:#b9529e;stroke:#6e6f71;stroke-width:.499;stroke-miterlimit:10" points="192.58 24.39 192.58 11.99 310.38 11.99 310.38 24.39"/><polygon style="fill:#f0e6f2" points="192.58 37.06 251.48 37.06 251.48 95.96"/><polygon style="fill:#e2e6f4" points="251.66 95.96 192.75 95.96 192.75 37.06"/><line style="fill:#929497;stroke:#fff;stroke-width:.5;stroke-miterlimit:10" x1="251.48" y1="37.06" x2="310.38" y2="95.96"/><line style="fill:#929497;stroke:#fff;stroke-width:.5;stroke-miterlimit:10" x1="192.58" y1="37.06" x2="251.48" y2="95.96"/><line style="fill:#929497;stroke:#fff;stroke-width:.5;stroke-miterlimit:10" x1="251.48" y1="95.66" x2="310.38" y2="154.56"/><text transform="translate(216.811 33.313)" style="fill:#010101;font-family:'Asap-Regular';font-size:6px">IPC</text><text transform="translate(266.765 33.313)" style="fill:#010101;font-family:'Asap-Regular';font-size:6px">Toxic Tide</text><text transform="translate(243.766 21.084)" style="fill:#fff;font-family:'Asap-Regular';font-size:8px">Bala</text><line style="fill:none;stroke:#6e6f71;stroke-width:.5;stroke-miterlimit:10" x1="310.38" y1="23.65" x2="310.38" y2="39.06"/><line style="fill:none;stroke:#6e6f71;stroke-width:.5;stroke-miterlimit:10" x1="192.58" y1="37.06" x2="192.58" y2="24.39"/><rect x="192.58" y="37.06" style="fill:none;stroke:#6e6f71;stroke-width:.5;stroke-miterlimit:10" width="117.8" height="117.8"/><line style="fill:none;stroke:#6e6f71;stroke-width:.5;stroke-miterlimit:10" x1="251.48" y1="37.06" x2="251.48" y2="154.87"/><line style="fill:none;stroke:#6e6f71;stroke-width:.5;stroke-miterlimit:10" x1="192.58" y1="95.96" x2="310.38" y2="95.96"/><text transform="translate(228.72 57.792)" style="fill:#231f20;font-family:'Asap-Medium';font-size:10px">3</text><text transform="translate(205.991 82.271)" style="fill:#231f20;font-family:'Asap-Medium';font-size:10px">3</text><text transform="translate(288.689 58.323)" style="fill:#231f20;font-family:'Asap-Medium';font-size:10px">4</text><text transform="translate(263.988 81.802)" style="fill:#231f20;font-family:'Asap-Medium';font-size:10px">1</text><text transform="translate(228.72 116.11)" style="fill:#231f20;font-family:'Asap-Medium';font-size:10px">1</text><text transform="translate(205.991 139.757)" style="fill:#231f20;font-family:'Asap-Medium';font-size:10px">4</text><text transform="translate(288.689 116.11)" style="fill:#231f20;font-family:'Asap-Medium';font-size:10px">2</text><text transform="translate(266.444 139.272)" style="fill:#231f20;font-family:'Asap-Medium';font-size:10px">2</text><polyline style="fill:#0e73ba;stroke:#6e6f71;stroke-width:.499;stroke-miterlimit:10" points="180.26 154.87 167.85 154.87 167.85 37.06 180.26 37.06"/><text transform="rotate(-90 140.314 -36.634)" style="fill:#fff;font-family:'Asap-Regular';font-size:8px">Anil</text><line style="fill:none;stroke:#6e6f71;stroke-width:.5;stroke-miterlimit:10" x1="180.26" y1="37.06" x2="192.93" y2="37.06"/><line style="fill:none;stroke:#6e6f71;stroke-width:.5;stroke-miterlimit:10" x1="192.93" y1="154.87" x2="180.26" y2="154.87"/><line style="fill:none;stroke:#6e6f71;stroke-width:.5;stroke-miterlimit:10" x1="180.26" y1="95.96" x2="192.93" y2="95.96"/><text transform="rotate(-90 128.898 -59.11)" style="fill:#010101;font-family:'Asap-Regular';font-size:6px">IPC</text><g><text transform="rotate(-90 164.587 -23.42)" style="fill:#010101;font-family:'Asap-Regular';font-size:6px">Toxic Tide</text></g><path style="fill:none;stroke:#3c54a4;stroke-width:.5;stroke-linecap:square;stroke-linejoin:round;stroke-miterlimit:10" d="M33.24 21.8c1.48 6.45 3.87 15.38 7.76 25.68 5.78 15.3 13.64 36.1 32.88 55.44.61.62 15.13 15.02 33.68 24.34 6.29 3.16 13.81 5.98 13.81 5.98 6.66 2.54 12.53 4.29 17.13 5.5"/><path style="fill:none;stroke:#3c54a4;stroke-width:.5;stroke-linecap:square;stroke-linejoin:round;stroke-miterlimit:10" d="M43.18 21.8c2.27 7.5 5.79 17.51 11.26 28.8 5.16 10.66 12.03 24.57 25.44 39.36 3.24 3.57 14.72 15.86 33.36 27.12a155.164 155.164 0 0030.48 14.16"/><path style="fill:none;stroke:#3c54a4;stroke-width:.5;stroke-linecap:square;stroke-linejoin:round;stroke-miterlimit:10" d="M59.23 21.8c2.8 8.5 7.11 19.23 13.87 30.83 7.09 12.17 14.23 20.75 18.06 25.09 13.14 14.91 25.81 23.56 32.88 28.32 9.45 6.36 17.99 10.85 24.48 13.92M89.85 21.8a193.78 193.78 0 0016.43 26.64c9.62 13.09 18.48 21.7 20.88 24 7.32 7 17.92 15.9 32.16 24.24M75.32 21.8c4.81 11.78 10.2 21.26 14.85 28.41 7.67 11.78 20.57 28.38 40.59 43.26a166.781 166.781 0 0026.16 15.93"/><circle style="fill:#231f20" cx="107.48" cy="72.34" r="1.13"/><circle style="fill:#231f20" cx="52.44" cy="46.57" r="1.13"/><text transform="translate(55.28 43.942)" style="fill:#231f20;font-family:'Asap-Regular';font-size:6.4537px">I, T</text><g><line style="fill:#010101" x1="31.12" y1="77" x2="124.16" y2="35.31"/><line style="fill:none;stroke:#6e6f71;stroke-width:.5" x1="31.12" y1="77" x2="123.66" y2="35.53"/><polygon style="fill:#6e6f71" points="122.99 38.07 122.53 37.88 123.49 35.61 121.15 34.81 121.32 34.34 124.16 35.31"/></g></svg>