<svg version="1.1" xmlns="http://www.w3.org/2000/svg" x="0" y="0" viewBox="0 0 311.81 191.68" style="enable-background:new 0 0 311.81 191.68" xml:space="preserve"><line style="fill:none;stroke:#6d6e71;stroke-width:.5;stroke-linejoin:round;stroke-miterlimit:10" x1="53.98" y1="165.14" x2="53.98" y2="9.25"/><path style="fill:none;stroke:#6d6e71;stroke-width:.5;stroke-linejoin:round;stroke-miterlimit:10" d="M51.79 165.14h2.13m-2.13-16.05h2.13m-2.13-15.5h2.13m-2.13-15.51h2.13m-2.13-15.51h2.13m-2.13-15.51h2.13m-2.13-15.51h2.13m-2.13-15.51h2.13m-2.13-15.51h2.13m-2.13-15.51h2.13M51.79 9.51h2.13"/><line style="fill:none;stroke:#6d6e71;stroke-width:.5;stroke-linejoin:round;stroke-miterlimit:10" x1="53.98" y1="165.14" x2="270.19" y2="165.14"/><path style="fill:none;stroke:#6d6e71;stroke-width:.5;stroke-linejoin:round;stroke-miterlimit:10" d="M53.98 165.14v2.14m30.97-2.14v2.14m30.42-2.14v2.14m30.97-2.14v2.14m30.96-2.14v2.14m30.96-2.14v2.14m30.96-2.14v2.14m30.97-2.14v2.14"/><text transform="matrix(.9982 0 0 1 43.446 166.919)" style="font-family:'Asap-Regular';font-size:7px">0</text><text transform="matrix(.9982 0 0 1 36.374 151.354)"><tspan x="0" y="0" style="font-family:'Asap-Regular';font-size:7px">1</tspan><tspan x="4.03" y="0" style="font-family:'Asap-Regular';font-size:7px">0</tspan><tspan x="7.53" y="0" style="font-family:'Asap-Regular';font-size:7px">0</tspan></text><text transform="matrix(.9982 0 0 1 36.374 135.789)"><tspan x="0" y="0" style="font-family:'Asap-Regular';font-size:7px">2</tspan><tspan x="4.03" y="0" style="font-family:'Asap-Regular';font-size:7px">0</tspan><tspan x="7.53" y="0" style="font-family:'Asap-Regular';font-size:7px">0</tspan></text><text transform="matrix(.9982 0 0 1 36.374 120.224)"><tspan x="0" y="0" style="font-family:'Asap-Regular';font-size:7px">3</tspan><tspan x="4.03" y="0" style="font-family:'Asap-Regular';font-size:7px">0</tspan><tspan x="7.53" y="0" style="font-family:'Asap-Regular';font-size:7px">0</tspan></text><text transform="matrix(.9982 0 0 1 36.374 104.659)"><tspan x="0" y="0" style="font-family:'Asap-Regular';font-size:7px">4</tspan><tspan x="4.03" y="0" style="font-family:'Asap-Regular';font-size:7px">0</tspan><tspan x="7.53" y="0" style="font-family:'Asap-Regular';font-size:7px">0</tspan></text><text transform="matrix(.9982 0 0 1 36.374 89.094)"><tspan x="0" y="0" style="font-family:'Asap-Regular';font-size:7px">5</tspan><tspan x="4.03" y="0" style="font-family:'Asap-Regular';font-size:7px">0</tspan><tspan x="7.53" y="0" style="font-family:'Asap-Regular';font-size:7px">0</tspan></text><text transform="matrix(.9982 0 0 1 36.374 73.528)"><tspan x="0" y="0" style="font-family:'Asap-Regular';font-size:7px">6</tspan><tspan x="4.03" y="0" style="font-family:'Asap-Regular';font-size:7px">0</tspan><tspan x="7.53" y="0" style="font-family:'Asap-Regular';font-size:7px">0</tspan></text><text transform="matrix(.9982 0 0 1 36.374 57.968)"><tspan x="0" y="0" style="font-family:'Asap-Regular';font-size:7px">7</tspan><tspan x="4.03" y="0" style="font-family:'Asap-Regular';font-size:7px">0</tspan><tspan x="7.53" y="0" style="font-family:'Asap-Regular';font-size:7px">0</tspan></text><text transform="matrix(.9982 0 0 1 36.374 42.403)"><tspan x="0" y="0" style="font-family:'Asap-Regular';font-size:7px">8</tspan><tspan x="4.03" y="0" style="font-family:'Asap-Regular';font-size:7px">0</tspan><tspan x="7.53" y="0" style="font-family:'Asap-Regular';font-size:7px">0</tspan></text><text transform="matrix(.9982 0 0 1 36.374 26.838)"><tspan x="0" y="0" style="font-family:'Asap-Regular';font-size:7px">9</tspan><tspan x="4.03" y="0" style="font-family:'Asap-Regular';font-size:7px">0</tspan><tspan x="7.53" y="0" style="font-family:'Asap-Regular';font-size:7px">0</tspan></text><text transform="matrix(.9982 0 0 1 31.395 11.273)"><tspan x="0" y="0" style="font-family:'Asap-Regular';font-size:7px">1</tspan><tspan x="4.03" y="0" style="font-family:'Asap-Regular';font-size:7px">,</tspan><tspan x="5.42" y="0" style="font-family:'Asap-Regular';font-size:7px">00</tspan><tspan x="13.48" y="0" style="font-family:'Asap-Regular';font-size:7px">0</tspan></text><text transform="matrix(.9982 0 0 1 52.025 176.537)" style="font-family:'Asap-Regular';font-size:7px">0</text><text transform="matrix(.9982 0 0 1 79.39 176.537)"><tspan x="0" y="0" style="font-family:'Asap-Regular';font-size:7px">4</tspan><tspan x="4.03" y="0" style="font-family:'Asap-Regular';font-size:7px">0</tspan><tspan x="7.53" y="0" style="font-family:'Asap-Regular';font-size:7px">0</tspan></text><text transform="matrix(.9982 0 0 1 110.297 176.537)"><tspan x="0" y="0" style="font-family:'Asap-Regular';font-size:7px">8</tspan><tspan x="4.03" y="0" style="font-family:'Asap-Regular';font-size:7px">0</tspan><tspan x="7.53" y="0" style="font-family:'Asap-Regular';font-size:7px">0</tspan></text><text transform="matrix(.9982 0 0 1 138.711 176.537)"><tspan x="0" y="0" style="font-family:'Asap-Regular';font-size:7px">1</tspan><tspan x="4.03" y="0" style="font-family:'Asap-Regular';font-size:7px">,</tspan><tspan x="5.42" y="0" style="font-family:'Asap-Regular';font-size:7px">20</tspan><tspan x="13.48" y="0" style="font-family:'Asap-Regular';font-size:7px">0</tspan></text><text transform="matrix(.9982 0 0 1 169.62 176.537)"><tspan x="0" y="0" style="font-family:'Asap-Regular';font-size:7px">1</tspan><tspan x="4.03" y="0" style="font-family:'Asap-Regular';font-size:7px">,</tspan><tspan x="5.42" y="0" style="font-family:'Asap-Regular';font-size:7px">60</tspan><tspan x="13.48" y="0" style="font-family:'Asap-Regular';font-size:7px">0</tspan></text><text transform="matrix(.9982 0 0 1 200.528 176.537)"><tspan x="0" y="0" style="font-family:'Asap-Regular';font-size:7px">2</tspan><tspan x="4.03" y="0" style="font-family:'Asap-Regular';font-size:7px">,</tspan><tspan x="5.42" y="0" style="font-family:'Asap-Regular';font-size:7px">00</tspan><tspan x="13.48" y="0" style="font-family:'Asap-Regular';font-size:7px">0</tspan></text><text transform="matrix(.9982 0 0 1 231.431 176.537)"><tspan x="0" y="0" style="font-family:'Asap-Regular';font-size:7px">2</tspan><tspan x="4.03" y="0" style="font-family:'Asap-Regular';font-size:7px">,</tspan><tspan x="5.42" y="0" style="font-family:'Asap-Regular';font-size:7px">40</tspan><tspan x="13.48" y="0" style="font-family:'Asap-Regular';font-size:7px">0</tspan></text><text transform="matrix(.9982 0 0 1 262.334 176.537)"><tspan x="0" y="0" style="font-family:'Asap-Regular';font-size:7px">2</tspan><tspan x="4.03" y="0" style="font-family:'Asap-Regular';font-size:7px">,</tspan><tspan x="5.42" y="0" style="font-family:'Asap-Regular';font-size:7px">80</tspan><tspan x="13.48" y="0" style="font-family:'Asap-Regular';font-size:7px">0</tspan></text><text transform="matrix(0 -1.0019 1 0 16.31 144.765)"><tspan x="0" y="0" style="font-family:'Asap-Medium';font-size:8px">A</tspan><tspan x="4.86" y="0" style="font-family:'Asap-Medium';font-size:8px">v</tspan><tspan x="8.7" y="0" style="font-family:'Asap-Medium';font-size:8px">e</tspan><tspan x="12.74" y="0" style="font-family:'Asap-Medium';font-size:8px">r</tspan><tspan x="15.95" y="0" style="font-family:'Asap-Medium';font-size:8px">a</tspan><tspan x="20.58" y="0" style="font-family:'Asap-Medium';font-size:8px">g</tspan><tspan x="25.22" y="0" style="font-family:'Asap-Medium';font-size:8px">e</tspan><tspan x="29.26" y="0" style="font-family:'Asap-Medium';font-size:8px"> </tspan><tspan x="31.42" y="0" style="font-family:'Asap-Medium';font-size:8px">p</tspan><tspan x="35.87" y="0" style="font-family:'Asap-Medium';font-size:8px">r</tspan><tspan x="39.09" y="0" style="font-family:'Asap-Medium';font-size:8px">o</tspan><tspan x="43.62" y="0" style="font-family:'Asap-Medium';font-size:8px">d</tspan><tspan x="48.01" y="0" style="font-family:'Asap-Medium';font-size:8px">u</tspan><tspan x="52.42" y="0" style="font-family:'Asap-Medium';font-size:8px">c</tspan><tspan x="56.34" y="0" style="font-family:'Asap-Medium';font-size:8px">t</tspan><tspan x="58.83" y="0" style="font-family:'Asap-Medium';font-size:8px;letter-spacing:1"> </tspan><tspan x="62.22" y="0" style="font-family:'Asap-Medium';font-size:8px">o</tspan><tspan x="66.75" y="0" style="font-family:'Asap-Medium';font-size:8px">f</tspan><tspan x="69.47" y="0" style="font-family:'Asap-Medium';font-size:8px"> </tspan><tspan x="71.02" y="0" style="font-family:'Asap-Medium';font-size:8px">l</tspan><tspan x="73.21" y="0" style="font-family:'Asap-Medium';font-size:8px">a</tspan><tspan x="77.84" y="0" style="font-family:'Asap-Medium';font-size:8px">b</tspan><tspan x="82.27" y="0" style="font-family:'Asap-Medium';font-size:8px">o</tspan><tspan x="86.8" y="0" style="font-family:'Asap-Medium';font-size:8px">u</tspan><tspan x="91.22" y="0" style="font-family:'Asap-Medium';font-size:8px">r</tspan><tspan x="94.43" y="0" style="font-family:'Asap-Medium';font-size:8px"> </tspan><tspan x="97.21" y="0" style="font-family:'Asap-Medium';font-size:8px">(</tspan><tspan x="99.64" y="0" style="font-family:'Asap-Medium';font-size:8px">A</tspan><tspan x="104.5" y="0" style="font-family:'Asap-Medium';font-size:8px">P</tspan><tspan x="108.84" y="0" style="font-family:'Asap-Medium';font-size:8px">L</tspan><tspan x="112.52" y="0" style="font-family:'Asap-Medium';font-size:8px">)</tspan><tspan x="15.48" y="9.6" style="font-family:'Asap-Medium';font-size:8px">(</tspan><tspan x="17.91" y="9.6" style="font-family:'Asap-Medium';font-size:8px">k</tspan><tspan x="21.81" y="9.6" style="font-family:'Asap-Medium';font-size:8px">g</tspan><tspan x="26.44" y="9.6" style="font-family:'Asap-Medium';font-size:8px"> </tspan><tspan x="28.6" y="9.6" style="font-family:'Asap-Medium';font-size:8px">o</tspan><tspan x="33.13" y="9.6" style="font-family:'Asap-Medium';font-size:8px">f</tspan><tspan x="35.85" y="9.6" style="font-family:'Asap-Medium';font-size:8px"> </tspan><tspan x="37.4" y="9.6" style="font-family:'Asap-Medium';font-size:8px">g</tspan><tspan x="42.04" y="9.6" style="font-family:'Asap-Medium';font-size:8px">r</tspan><tspan x="45.25" y="9.6" style="font-family:'Asap-Medium';font-size:8px">a</tspan><tspan x="49.88" y="9.6" style="font-family:'Asap-Medium';font-size:8px">i</tspan><tspan x="51.88" y="9.6" style="font-family:'Asap-Medium';font-size:8px">n</tspan><tspan x="56.27" y="9.6" style="font-family:'Asap-Medium';font-size:8px"> </tspan><tspan x="58.43" y="9.6" style="font-family:'Asap-Medium';font-size:8px">p</tspan><tspan x="62.88" y="9.6" style="font-family:'Asap-Medium';font-size:8px">e</tspan><tspan x="66.92" y="9.6" style="font-family:'Asap-Medium';font-size:8px">r</tspan><tspan x="70.14" y="9.6" style="font-family:'Asap-Medium';font-size:8px"> </tspan><tspan x="72.3" y="9.6" style="font-family:'Asap-Medium';font-size:8px">f</tspan><tspan x="75.02" y="9.6" style="font-family:'Asap-Medium';font-size:8px">a</tspan><tspan x="79.65" y="9.6" style="font-family:'Asap-Medium';font-size:8px">r</tspan><tspan x="82.87" y="9.6" style="font-family:'Asap-Medium';font-size:8px">m</tspan><tspan x="89.79" y="9.6" style="font-family:'Asap-Medium';font-size:8px">e</tspan><tspan x="93.83" y="9.6" style="font-family:'Asap-Medium';font-size:8px">r</tspan><tspan x="97.04" y="9.6" style="font-family:'Asap-Medium';font-size:8px">)</tspan></text><text transform="matrix(.9982 0 0 1 134.063 187.638)"><tspan x="0" y="0" style="font-family:'Asap-Medium';font-size:8px">N</tspan><tspan x="5.51" y="0" style="font-family:'Asap-Medium';font-size:8px">u</tspan><tspan x="9.93" y="0" style="font-family:'Asap-Medium';font-size:8px">m</tspan><tspan x="16.85" y="0" style="font-family:'Asap-Medium';font-size:8px">b</tspan><tspan x="21.28" y="0" style="font-family:'Asap-Medium';font-size:8px">e</tspan><tspan x="25.32" y="0" style="font-family:'Asap-Medium';font-size:8px">r</tspan><tspan x="28.54" y="0" style="font-family:'Asap-Medium';font-size:8px"> </tspan><tspan x="31.31" y="0" style="font-family:'Asap-Medium';font-size:8px">o</tspan><tspan x="35.84" y="0" style="font-family:'Asap-Medium';font-size:8px">f</tspan><tspan x="38.56" y="0" style="font-family:'Asap-Medium';font-size:8px"> </tspan><tspan x="40.72" y="0" style="font-family:'Asap-Medium';font-size:8px">f</tspan><tspan x="43.44" y="0" style="font-family:'Asap-Medium';font-size:8px">a</tspan><tspan x="48.07" y="0" style="font-family:'Asap-Medium';font-size:8px">r</tspan><tspan x="51.29" y="0" style="font-family:'Asap-Medium';font-size:8px">m</tspan><tspan x="58.21" y="0" style="font-family:'Asap-Medium';font-size:8px">e</tspan><tspan x="62.25" y="0" style="font-family:'Asap-Medium';font-size:8px">r</tspan><tspan x="65.46" y="0" style="font-family:'Asap-Medium';font-size:8px">s</tspan></text><line style="fill:none;stroke:#939598;stroke-width:.5;stroke-linecap:square;stroke-linejoin:round;stroke-dasharray:1.417" x1="53.98" y1="88.66" x2="272.77" y2="88.66"/><line style="fill:none;stroke:#939598;stroke-width:.5;stroke-linecap:square;stroke-linejoin:round;stroke-dasharray:1.417" x1="166.09" y1="88.66" x2="166.09" y2="165.14"/><text transform="matrix(.9982 0 0 1 164.566 82.201)" style="font-family:'Asap-Regular';font-size:6px">E</text><text transform="matrix(.9982 0 0 1 93.483 31.702)"><tspan x="0" y="0" style="font-family:'Asap-Regular';font-size:6px">A</tspan><tspan x="3.62" y="0" style="font-family:'Asap-Regular';font-size:6px">P</tspan><tspan x="6.84" y="0" style="font-family:'Asap-Regular';font-size:6px">L</tspan><tspan x="9.63" y="0" style="font-family:'Asap-Regular';font-size:6px"> </tspan><tspan x="11.07" y="0" style="font-family:'Asap-Regular';font-size:6px">a</tspan><tspan x="14.51" y="0" style="font-family:'Asap-Regular';font-size:6px">b</tspan><tspan x="17.81" y="0" style="font-family:'Asap-Regular';font-size:6px">o</tspan><tspan x="21.17" y="0" style="font-family:'Asap-Regular';font-size:6px">v</tspan><tspan x="24.08" y="0" style="font-family:'Asap-Regular';font-size:6px">e</tspan><tspan x="27.14" y="0" style="font-family:'Asap-Regular';font-size:6px"> </tspan><tspan x="28.58" y="0" style="font-family:'Asap-Regular';font-size:6px">s</tspan><tspan x="30.95" y="0" style="font-family:'Asap-Regular';font-size:6px">u</tspan><tspan x="34.23" y="0" style="font-family:'Asap-Regular';font-size:6px">b</tspan><tspan x="37.52" y="0" style="font-family:'Asap-Regular';font-size:6px">s</tspan><tspan x="39.89" y="0" style="font-family:'Asap-Regular';font-size:6px">i</tspan><tspan x="41.6" y="0" style="font-family:'Asap-Regular';font-size:6px">s</tspan><tspan x="43.97" y="0" style="font-family:'Asap-Regular';font-size:6px">t</tspan><tspan x="45.99" y="0" style="font-family:'Asap-Regular';font-size:6px">e</tspan><tspan x="49.05" y="0" style="font-family:'Asap-Regular';font-size:6px">n</tspan><tspan x="52.31" y="0" style="font-family:'Asap-Regular';font-size:6px">c</tspan><tspan x="55.28" y="0" style="font-family:'Asap-Regular';font-size:6px">e</tspan><tspan x="58.34" y="0" style="font-family:'Asap-Regular';font-size:6px">.</tspan><tspan x="16.85" y="9" style="font-family:'Asap-Regular';font-size:6px">P</tspan><tspan x="20.08" y="9" style="font-family:'Asap-Regular';font-size:6px">o</tspan><tspan x="23.44" y="9" style="font-family:'Asap-Regular';font-size:6px">p</tspan><tspan x="26.75" y="9" style="font-family:'Asap-Regular';font-size:6px">u</tspan><tspan x="30.04" y="9" style="font-family:'Asap-Regular';font-size:6px">l</tspan><tspan x="31.88" y="9" style="font-family:'Asap-Regular';font-size:6px">a</tspan><tspan x="35.33" y="9" style="font-family:'Asap-Regular';font-size:6px">t</tspan><tspan x="37.35" y="9" style="font-family:'Asap-Regular';font-size:6px">i</tspan><tspan x="39.05" y="9" style="font-family:'Asap-Regular';font-size:6px">o</tspan><tspan x="42.42" y="9" style="font-family:'Asap-Regular';font-size:6px">n</tspan><tspan x="45.68" y="9" style="font-family:'Asap-Regular';font-size:6px"> </tspan><tspan x="46.73" y="9" style="font-family:'Asap-Regular';font-size:6px">r</tspan><tspan x="48.84" y="9" style="font-family:'Asap-Regular';font-size:6px">i</tspan><tspan x="50.54" y="9" style="font-family:'Asap-Regular';font-size:6px">s</tspan><tspan x="52.91" y="9" style="font-family:'Asap-Regular';font-size:6px">e</tspan><tspan x="55.97" y="9" style="font-family:'Asap-Regular';font-size:6px">s</tspan><tspan x="58.34" y="9" style="font-family:'Asap-Regular';font-size:6px">,</tspan><tspan x="28.79" y="18" style="font-family:'Asap-Regular';font-size:6px">s</tspan><tspan x="31.16" y="18" style="font-family:'Asap-Regular';font-size:6px">o</tspan><tspan x="34.52" y="18" style="font-family:'Asap-Regular';font-size:6px"> </tspan><tspan x="35.96" y="18" style="font-family:'Asap-Regular';font-size:6px">A</tspan><tspan x="39.58" y="18" style="font-family:'Asap-Regular';font-size:6px">P</tspan><tspan x="42.8" y="18" style="font-family:'Asap-Regular';font-size:6px">L</tspan><tspan x="45.59" y="18" style="font-family:'Asap-Regular';font-size:6px"> </tspan><tspan x="47.03" y="18" style="font-family:'Asap-Regular';font-size:6px">f</tspan><tspan x="48.83" y="18" style="font-family:'Asap-Regular';font-size:6px">a</tspan><tspan x="52.28" y="18" style="font-family:'Asap-Regular';font-size:6px">ll</tspan><tspan x="55.97" y="18" style="font-family:'Asap-Regular';font-size:6px">s</tspan><tspan x="58.34" y="18" style="font-family:'Asap-Regular';font-size:6px">.</tspan></text><text transform="matrix(.9982 0 0 1 73.31 98.674)"><tspan x="0" y="0" style="font-family:'Asap-Regular';font-size:6px">S</tspan><tspan x="3" y="0" style="font-family:'Asap-Regular';font-size:6px">u</tspan><tspan x="6.28" y="0" style="font-family:'Asap-Regular';font-size:6px">b</tspan><tspan x="9.58" y="0" style="font-family:'Asap-Regular';font-size:6px">s</tspan><tspan x="11.95" y="0" style="font-family:'Asap-Regular';font-size:6px">i</tspan><tspan x="13.65" y="0" style="font-family:'Asap-Regular';font-size:6px">s</tspan><tspan x="16.02" y="0" style="font-family:'Asap-Regular';font-size:6px">t</tspan><tspan x="18.04" y="0" style="font-family:'Asap-Regular';font-size:6px">e</tspan><tspan x="21.1" y="0" style="font-family:'Asap-Regular';font-size:6px">n</tspan><tspan x="24.37" y="0" style="font-family:'Asap-Regular';font-size:6px">c</tspan><tspan x="27.33" y="0" style="font-family:'Asap-Regular';font-size:6px">e</tspan><tspan x="30.39" y="0" style="font-family:'Asap-Regular';font-size:6px"> </tspan><tspan x="31.83" y="0" style="font-family:'Asap-Regular';font-size:6px">i</tspan><tspan x="33.54" y="0" style="font-family:'Asap-Regular';font-size:6px">n</tspan><tspan x="36.8" y="0" style="font-family:'Asap-Regular';font-size:6px">c</tspan><tspan x="39.77" y="0" style="font-family:'Asap-Regular';font-size:6px">o</tspan><tspan x="43.14" y="0" style="font-family:'Asap-Regular';font-size:6px">m</tspan><tspan x="48.06" y="0" style="font-family:'Asap-Regular';font-size:6px">e</tspan></text><line style="fill:none;stroke:#4971b8;stroke-width:.5;stroke-miterlimit:8" x1="248.44" y1="118.75" x2="197.29" y2="105.72"/><polygon style="fill:#4971b8" points="199.4 104.15 199.64 104.58 197.47 105.76 198.81 107.84 198.39 108.11 196.76 105.58"/><text transform="matrix(.9982 0 0 1 207.563 130.847)"><tspan x="0" y="0" style="font-family:'Asap-Regular';font-size:6px">A</tspan><tspan x="3.62" y="0" style="font-family:'Asap-Regular';font-size:6px">P</tspan><tspan x="6.84" y="0" style="font-family:'Asap-Regular';font-size:6px">L</tspan><tspan x="9.63" y="0" style="font-family:'Asap-Regular';font-size:6px"> </tspan><tspan x="11.07" y="0" style="font-family:'Asap-Regular';font-size:6px">b</tspan><tspan x="14.36" y="0" style="font-family:'Asap-Regular';font-size:6px">e</tspan><tspan x="17.42" y="0" style="font-family:'Asap-Regular';font-size:6px">l</tspan><tspan x="19.27" y="0" style="font-family:'Asap-Regular';font-size:6px">o</tspan><tspan x="22.64" y="0" style="font-family:'Asap-Regular';font-size:6px">w</tspan><tspan x="27.21" y="0" style="font-family:'Asap-Regular';font-size:6px"> </tspan><tspan x="28.65" y="0" style="font-family:'Asap-Regular';font-size:6px">s</tspan><tspan x="31.02" y="0" style="font-family:'Asap-Regular';font-size:6px">u</tspan><tspan x="34.3" y="0" style="font-family:'Asap-Regular';font-size:6px">b</tspan><tspan x="37.59" y="0" style="font-family:'Asap-Regular';font-size:6px">s</tspan><tspan x="39.96" y="0" style="font-family:'Asap-Regular';font-size:6px">i</tspan><tspan x="41.67" y="0" style="font-family:'Asap-Regular';font-size:6px">s</tspan><tspan x="44.04" y="0" style="font-family:'Asap-Regular';font-size:6px">t</tspan><tspan x="46.06" y="0" style="font-family:'Asap-Regular';font-size:6px">e</tspan><tspan x="49.12" y="0" style="font-family:'Asap-Regular';font-size:6px">n</tspan><tspan x="52.38" y="0" style="font-family:'Asap-Regular';font-size:6px">c</tspan><tspan x="55.35" y="0" style="font-family:'Asap-Regular';font-size:6px">e</tspan><tspan x="58.41" y="0" style="font-family:'Asap-Regular';font-size:6px">.</tspan><tspan x="17.23" y="9" style="font-family:'Asap-Regular';font-size:6px">P</tspan><tspan x="20.45" y="9" style="font-family:'Asap-Regular';font-size:6px">o</tspan><tspan x="23.82" y="9" style="font-family:'Asap-Regular';font-size:6px">p</tspan><tspan x="27.13" y="9" style="font-family:'Asap-Regular';font-size:6px">u</tspan><tspan x="30.41" y="9" style="font-family:'Asap-Regular';font-size:6px">l</tspan><tspan x="32.26" y="9" style="font-family:'Asap-Regular';font-size:6px">a</tspan><tspan x="35.7" y="9" style="font-family:'Asap-Regular';font-size:6px">t</tspan><tspan x="37.73" y="9" style="font-family:'Asap-Regular';font-size:6px">i</tspan><tspan x="39.43" y="9" style="font-family:'Asap-Regular';font-size:6px">o</tspan><tspan x="42.8" y="9" style="font-family:'Asap-Regular';font-size:6px">n</tspan><tspan x="46.06" y="9" style="font-family:'Asap-Regular';font-size:6px"> </tspan><tspan x="47.1" y="9" style="font-family:'Asap-Regular';font-size:6px">f</tspan><tspan x="48.9" y="9" style="font-family:'Asap-Regular';font-size:6px">a</tspan><tspan x="52.35" y="9" style="font-family:'Asap-Regular';font-size:6px">ll</tspan><tspan x="56.04" y="9" style="font-family:'Asap-Regular';font-size:6px">s</tspan><tspan x="58.41" y="9" style="font-family:'Asap-Regular';font-size:6px">,</tspan><tspan x="28.55" y="18" style="font-family:'Asap-Regular';font-size:6px">s</tspan><tspan x="30.92" y="18" style="font-family:'Asap-Regular';font-size:6px">o</tspan><tspan x="34.29" y="18" style="font-family:'Asap-Regular';font-size:6px"> </tspan><tspan x="35.73" y="18" style="font-family:'Asap-Regular';font-size:6px">A</tspan><tspan x="39.35" y="18" style="font-family:'Asap-Regular';font-size:6px">P</tspan><tspan x="42.57" y="18" style="font-family:'Asap-Regular';font-size:6px">L</tspan><tspan x="45.36" y="18" style="font-family:'Asap-Regular';font-size:6px"> </tspan><tspan x="46.8" y="18" style="font-family:'Asap-Regular';font-size:6px">r</tspan><tspan x="48.91" y="18" style="font-family:'Asap-Regular';font-size:6px">i</tspan><tspan x="50.62" y="18" style="font-family:'Asap-Regular';font-size:6px">s</tspan><tspan x="52.99" y="18" style="font-family:'Asap-Regular';font-size:6px">e</tspan><tspan x="56.05" y="18" style="font-family:'Asap-Regular';font-size:6px">s</tspan><tspan x="58.41" y="18" style="font-family:'Asap-Regular';font-size:6px">.</tspan></text><line style="fill:none;stroke:#4971b8;stroke-width:.5;stroke-miterlimit:8" x1="147.54" y1="69.8" x2="100.44" y2="45.97"/><polygon style="fill:#4971b8" points="146.99 67.23 146.52 67.4 147.37 69.72 145 70.4 145.14 70.88 148.03 70.05"/><circle style="fill:#3571b1;stroke:#3571b1;stroke-miterlimit:8" cx="166.09" cy="88.66" r="1.13"/><path style="fill:none;stroke:#4a71b7;stroke-width:.5;stroke-linecap:square;stroke-linejoin:round;stroke-miterlimit:10" d="M69.2 31.7c5.15 5.74 10.3 12.48 15.44 17.22 5.15 4.74 10.3 7.93 15.44 11.21s10.3 5.89 15.44 8.47c5.15 2.59 10.3 4.84 15.44 7.05 5.15 2.21 10.3 4.28 15.44 6.21 5.15 1.93 11.58 4.04 15.44 5.37 3.85 1.32 5.15 1.76 7.72 2.59 2.57.83 3.86 1.21 7.72 2.36 3.86 1.16 10.3 3.1 15.44 4.58 5.15 1.48 10.3 2.91 15.44 4.32 5.15 1.41 10.3 2.79 15.44 4.13 5.15 1.34 10.3 2.63 15.44 3.92 5.15 1.29 10.3 2.57 15.44 3.82 5.15 1.25 10.3 2.48 15.44 3.69 5.15 1.21 10.3 2.39 15.44 3.58"/><text transform="matrix(.9982 0 0 1 289 122.391)" style="font-family:'Asap-Regular';font-size:6px">APL</text></svg>