<svg version="1.1" xmlns="http://www.w3.org/2000/svg" x="0" y="0" viewBox="0 0 311.81 164.55" style="enable-background:new 0 0 311.81 164.55" xml:space="preserve"><line style="fill:none;stroke:#6d6e71;stroke-width:.5;stroke-linecap:square" x1="85.47" y1="4.99" x2="85.47" y2="133.35"/><line style="fill:none;stroke:#6d6e71;stroke-width:.5;stroke-linecap:square" x1="265.25" y1="133.35" x2="85.91" y2="133.35"/><rect x="21.75" y="67.3" style="fill:none" width="58.65" height="15.32"/><text transform="translate(42.238 72.564)"><tspan x="0" y="0" style="font-family:'Asap-Regular';font-size:7px">Net utility in</tspan><tspan x="-19.1" y="8.4" style="font-family:'Asap-Regular';font-size:7px">unemployment, $6</tspan></text><polyline style="fill:none;stroke:#000;stroke-width:.5;stroke-linecap:square;stroke-linejoin:round" points="85.46 73.86 87.56 73.86 137.67 73.86 137.67 43.86 265.25 43.86"/><line style="fill:none;stroke:#6d6e71;stroke-width:.5;stroke-linecap:square;stroke-linejoin:round" x1="85.46" y1="43.86" x2="83.33" y2="43.86"/><line style="fill:none;stroke:#6d6e71;stroke-width:.5;stroke-linecap:square;stroke-linejoin:round" x1="85.46" y1="73.86" x2="83.33" y2="73.86"/><polyline style="fill:none;stroke:#000;stroke-width:.5;stroke-linecap:square;stroke-linejoin:round" points="85.46 33.86 87.56 33.86 265.25 33.37"/><line style="fill:none;stroke:#6d6e71;stroke-width:.5;stroke-linecap:square;stroke-linejoin:round" x1="85.46" y1="14.22" x2="83.33" y2="14.22"/><line style="fill:none;stroke:#6d6e71;stroke-width:.5;stroke-linecap:square;stroke-linejoin:round" x1="85.46" y1="33.86" x2="83.33" y2="33.86"/><rect x="73.12" y="130.38" style="fill:none" width="7.28" height="6.92"/><text transform="translate(74.883 135.642)" style="font-family:'Asap-Regular';font-size:7px">0</text><rect x="16.08" y="41.3" style="fill:none" width="64.32" height="15.32"/><text transform="translate(23.695 46.563)"><tspan x="0" y="0" style="font-family:'Asap-Regular';font-size:7px">Average net utility</tspan><tspan x="7.32" y="8.4" style="font-family:'Asap-Regular';font-size:7px">of other jobs, $9</tspan></text><rect x="2.33" y="30.9" style="fill:none" width="78.06" height="6.92"/><text transform="translate(3.416 36.16)" style="font-family:'Asap-Regular';font-size:7px">Wage - cost of effort, $10</text><rect x="12.03" y="11.26" style="fill:none" width="68.36" height="6.92"/><text transform="translate(27 16.52)" style="font-family:'Asap-Regular';font-size:7px">Hourly wage, $12</text><line style="fill:none;stroke:#6d6e71;stroke-width:.5;stroke-linecap:square" x1="137.67" y1="133.54" x2="137.67" y2="135.66"/><line style="fill:none;stroke:#6d6e71;stroke-width:.5;stroke-linecap:square" x1="265.25" y1="133.54" x2="265.25" y2="135.66"/><rect x="133.52" y="138.91" style="fill:none" width="11.91" height="6.92"/><text transform="translate(135.73 144.176)" style="font-family:'Asap-Regular';font-size:7px">44</text><rect x="259.64" y="138.83" style="fill:none" width="13.97" height="6.92"/><text transform="translate(261.009 144.097)" style="font-family:'Asap-Regular';font-size:7px">156</text><rect x="151.91" y="153.09" style="fill:none" width="55.57" height="7.91"/><text transform="translate(151.905 159.115)" style="font-family:'Asap-Medium';font-size:8px">Time in weeks</text><rect x="93.89" y="27.41" style="fill:none" width="173.67" height="5.93"/><text transform="translate(93.887 31.917)" style="font-family:'Asap-Regular';font-size:6px">Total value of current job = $10 × 35 hours × 156 weeks = $54,600</text><rect x="143.72" y="54.47" style="fill:none" width="156.48" height="20.33"/><text transform="translate(143.72 58.983)"><tspan x="0" y="0" style="font-family:'Asap-Regular';font-size:6px">Total value of next best alternative = </tspan><tspan x="0" y="7.2" style="font-family:'Asap-Regular';font-size:6px">$6 × 35 hours × 44 weeks + $9 × 35 hours × 112 weeks = </tspan><tspan x="0" y="14.4" style="font-family:'Asap-Regular';font-size:6px">$44,520</tspan></text><rect x="143.72" y="95.41" style="fill:none" width="156.48" height="5.95"/><text transform="translate(143.72 99.924)" style="font-family:'Asap-Medium';font-size:6px">Total rent = cost of job loss = $54,600 − $44,520 = $10,080</text><rect x="100.5" y="75.76" style="fill:none" width="34.18" height="5.93"/><text transform="translate(100.496 80.273)" style="font-family:'Asap-Regular';font-size:6px">44 weeks</text><line style="fill:none;stroke:#6d6e71;stroke-width:.5;stroke-linecap:square;stroke-linejoin:round" x1="85.46" y1="133.35" x2="83.33" y2="133.35"/></svg>