<svg version="1.1" xmlns="http://www.w3.org/2000/svg" x="0" y="0" viewBox="0 0 311.81 355.55" style="enable-background:new 0 0 311.81 355.55" xml:space="preserve"><text transform="translate(247.013 173.227)" style="font-family:'Asap-Regular';font-size:6px">IC</text><text transform="matrix(.583 0 0 .583 252.425 175.225)" style="font-family:'Asap-Regular';font-size:6px">1</text><text transform="translate(247.013 155.778)" style="font-family:'Asap-Regular';font-size:6px">IC</text><text transform="matrix(.583 0 0 .583 252.425 157.776)" style="font-family:'Asap-Regular';font-size:6px">2</text><g><line style="fill:none;stroke:#6d6e71;stroke-width:.5;stroke-linecap:square;stroke-linejoin:round" x1="76.86" y1="179.78" x2="74.73" y2="179.78"/><line style="fill:none;stroke:#6d6e71;stroke-width:.5;stroke-linecap:square;stroke-linejoin:round" x1="76.86" y1="167.78" x2="74.73" y2="167.78"/><line style="fill:none;stroke:#6d6e71;stroke-width:.5;stroke-linecap:square;stroke-linejoin:round" x1="76.86" y1="155.78" x2="74.73" y2="155.78"/><line style="fill:none;stroke:#6d6e71;stroke-width:.5;stroke-linecap:square;stroke-linejoin:round" x1="76.86" y1="143.78" x2="74.73" y2="143.78"/><line style="fill:none;stroke:#6d6e71;stroke-width:.5;stroke-linecap:square;stroke-linejoin:round" x1="76.86" y1="131.78" x2="74.73" y2="131.78"/><line style="fill:none;stroke:#6d6e71;stroke-width:.5;stroke-linecap:square;stroke-linejoin:round" x1="76.86" y1="119.78" x2="74.73" y2="119.78"/><line style="fill:none;stroke:#6d6e71;stroke-width:.5;stroke-linecap:square;stroke-linejoin:round" x1="76.86" y1="107.78" x2="74.73" y2="107.78"/><line style="fill:none;stroke:#6d6e71;stroke-width:.5;stroke-linecap:square;stroke-linejoin:round" x1="76.86" y1="95.78" x2="74.73" y2="95.78"/><line style="fill:none;stroke:#6d6e71;stroke-width:.5;stroke-linecap:square;stroke-linejoin:round" x1="76.86" y1="83.78" x2="74.73" y2="83.78"/><line style="fill:none;stroke:#6d6e71;stroke-width:.5;stroke-linecap:square;stroke-linejoin:round" x1="76.86" y1="71.78" x2="74.73" y2="71.78"/><line style="fill:none;stroke:#6d6e71;stroke-width:.5;stroke-linecap:square;stroke-linejoin:round" x1="76.86" y1="35.78" x2="74.73" y2="35.78"/><line style="fill:none;stroke:#6d6e71;stroke-width:.5;stroke-linecap:square;stroke-linejoin:round" x1="76.86" y1="23.78" x2="74.73" y2="23.78"/><line style="fill:none;stroke:#6d6e71;stroke-width:.5;stroke-linecap:square;stroke-linejoin:round" x1="76.86" y1="59.78" x2="74.73" y2="59.78"/><line style="fill:none;stroke:#6d6e71;stroke-width:.5;stroke-linecap:square;stroke-linejoin:round" x1="76.86" y1="47.78" x2="74.73" y2="47.78"/><line style="fill:none;stroke:#6d6e71;stroke-width:.5;stroke-linecap:square;stroke-linejoin:round" x1="76.86" y1="11.78" x2="74.73" y2="11.78"/><line style="fill:none;stroke:#6d6e71;stroke-width:.5;stroke-linecap:square" x1="77.13" y1="179.9" x2="77.13" y2="182.03"/><line style="fill:none;stroke:#6d6e71;stroke-width:.5;stroke-linecap:square" x1="84.13" y1="179.9" x2="84.13" y2="182.03"/><line style="fill:none;stroke:#6d6e71;stroke-width:.5;stroke-linecap:square" x1="91.13" y1="179.9" x2="91.13" y2="182.03"/><line style="fill:none;stroke:#6d6e71;stroke-width:.5;stroke-linecap:square" x1="98.13" y1="179.9" x2="98.13" y2="182.03"/><line style="fill:none;stroke:#6d6e71;stroke-width:.5;stroke-linecap:square" x1="105.13" y1="179.9" x2="105.13" y2="182.03"/><line style="fill:none;stroke:#6d6e71;stroke-width:.5;stroke-linecap:square" x1="112.13" y1="179.9" x2="112.13" y2="182.03"/><line style="fill:none;stroke:#6d6e71;stroke-width:.5;stroke-linecap:square" x1="119.13" y1="179.9" x2="119.13" y2="182.03"/><line style="fill:none;stroke:#6d6e71;stroke-width:.5;stroke-linecap:square" x1="126.13" y1="179.9" x2="126.13" y2="182.03"/><line style="fill:none;stroke:#6d6e71;stroke-width:.5;stroke-linecap:square" x1="133.13" y1="179.9" x2="133.13" y2="182.03"/><line style="fill:none;stroke:#6d6e71;stroke-width:.5;stroke-linecap:square" x1="140.13" y1="179.9" x2="140.13" y2="182.03"/><line style="fill:none;stroke:#6d6e71;stroke-width:.5;stroke-linecap:square" x1="147.13" y1="179.9" x2="147.13" y2="182.03"/><line style="fill:none;stroke:#6d6e71;stroke-width:.5;stroke-linecap:square" x1="154.13" y1="179.9" x2="154.13" y2="182.03"/><line style="fill:none;stroke:#6d6e71;stroke-width:.5;stroke-linecap:square" x1="160.13" y1="179.9" x2="160.13" y2="182.03"/><line style="fill:none;stroke:#6d6e71;stroke-width:.5;stroke-linecap:square" x1="167.13" y1="179.9" x2="167.13" y2="182.03"/><line style="fill:none;stroke:#6d6e71;stroke-width:.5;stroke-linecap:square" x1="174.13" y1="179.9" x2="174.13" y2="182.03"/><line style="fill:none;stroke:#6d6e71;stroke-width:.5;stroke-linecap:square" x1="181.13" y1="179.9" x2="181.13" y2="182.03"/><line style="fill:none;stroke:#6d6e71;stroke-width:.5;stroke-linecap:square" x1="188.13" y1="179.9" x2="188.13" y2="182.03"/><line style="fill:none;stroke:#6d6e71;stroke-width:.5;stroke-linecap:square" x1="195.13" y1="179.9" x2="195.13" y2="182.03"/><line style="fill:none;stroke:#6d6e71;stroke-width:.5;stroke-linecap:square" x1="202.13" y1="179.9" x2="202.13" y2="182.03"/><line style="fill:none;stroke:#6d6e71;stroke-width:.5;stroke-linecap:square" x1="209.13" y1="179.9" x2="209.13" y2="182.03"/><line style="fill:none;stroke:#6d6e71;stroke-width:.5;stroke-linecap:square" x1="216.13" y1="179.9" x2="216.13" y2="182.03"/><line style="fill:none;stroke:#6d6e71;stroke-width:.5;stroke-linecap:square" x1="223.13" y1="179.9" x2="223.13" y2="182.03"/><line style="fill:none;stroke:#6d6e71;stroke-width:.5;stroke-linecap:square" x1="230.13" y1="179.9" x2="230.13" y2="182.03"/><line style="fill:none;stroke:#6d6e71;stroke-width:.5;stroke-linecap:square" x1="237.13" y1="179.9" x2="237.13" y2="182.03"/><line style="fill:none;stroke:#6d6e71;stroke-width:.5;stroke-linecap:square" x1="244.13" y1="179.9" x2="244.13" y2="182.03"/><text transform="translate(68.864 182.026)" style="font-family:'Asap-Regular';font-size:7px">0</text><text transform="translate(75.25 189.383)" style="font-family:'Asap-Regular';font-size:7px">0</text><text transform="translate(65.374 158.14)" style="font-family:'Asap-Regular';font-size:7px">10</text><text transform="translate(65.654 133.553)" style="font-family:'Asap-Regular';font-size:7px">20</text><text transform="translate(66.01 110.08)" style="font-family:'Asap-Regular';font-size:7px">30</text><text transform="translate(66.01 85.636)" style="font-family:'Asap-Regular';font-size:7px">40</text><text transform="translate(66.291 62.494)" style="font-family:'Asap-Regular';font-size:7px">50</text><text transform="translate(66.01 37.424)" style="font-family:'Asap-Regular';font-size:7px">60</text><text transform="translate(66.01 13.858)" style="font-family:'Asap-Regular';font-size:7px">70</text><text transform="translate(102.411 189.383)" style="font-family:'Asap-Regular';font-size:7px">4</text><text transform="translate(131.22 189.383)" style="font-family:'Asap-Regular';font-size:7px">8</text><text transform="translate(156.383 189.383)" style="font-family:'Asap-Regular';font-size:7px">12</text><text transform="translate(184.325 189.383)" style="font-family:'Asap-Regular';font-size:7px">16</text><text transform="translate(212.325 189.383)" style="font-family:'Asap-Regular';font-size:7px">20</text><text transform="translate(240.325 189.383)" style="font-family:'Asap-Regular';font-size:7px">24</text><text transform="matrix(0 -.9726 1 0 53.72 119.028)" style="font-family:'Asap-Medium';font-size:8px">Bushels of grain</text><text transform="translate(119.722 201.356)" style="font-family:'Asap-Medium';font-size:8px">Angela’s hours of free time</text><path style="fill:none;stroke:#6d6e71;stroke-width:.5;stroke-linecap:square;stroke-linejoin:round" d="M77.13 11.78v167.81"/><text transform="translate(203.128 79.84)" style="font-family:'Asap-Regular';font-size:6px">Feasible frontier</text><path style="fill:#d5daef;stroke:#f49323;stroke-width:.5;stroke-linecap:square;stroke-linejoin:round" d="M98.13 27.64c-9.95-1.69-17.29-2.14-20.45-2.31M125.25 34.23a199.814 199.814 0 00-27.13-6.59M129.91 35.78c-1.57-.54-3.12-1.06-4.66-1.55M239.06 151.98c-.1-.38-.2-.76-.31-1.15M244.13 179.78a178.22 178.22 0 00-5.06-27.8"/><line style="fill:none;stroke:#6d6e71;stroke-width:.5;stroke-linecap:square" x1="77.13" y1="179.78" x2="244.13" y2="179.78"/><path style="fill:#d5daef;stroke:#0871b9;stroke-width:.5;stroke-miterlimit:10" d="M240.68 152.19c.41.09.81.18 1.21.26M239.9 152.01c.26.06.52.12.78.17M239.78 151.98c.04.01.08.02.13.03"/><path style="fill:#e3e7f4;stroke:#0871b9;stroke-width:.5;stroke-miterlimit:10" d="M131.32 35.78c1.57 4.05 3.31 8.32 5.23 12.77 8.2 18.99 15.45 35.76 29.93 54.13 8.32 10.56 19.87 24.93 40.08 36.43 12.72 7.24 24.58 10.91 33.22 12.87"/><path style="fill:#d5daef;stroke:#0871b9;stroke-width:.5;stroke-miterlimit:10" d="M130.73 34.23c.2.51.39 1.03.6 1.55M123 11.78c1.88 6.14 4.41 13.76 7.73 22.45"/><path style="fill:#d5daef;stroke:#f49323;stroke-width:.5;stroke-linecap:square;stroke-linejoin:round" d="M131.22 36.24c-.44-.15-.87-.31-1.31-.46"/><path style="fill:#e3e7f4;stroke:#f49323;stroke-width:.5;stroke-linecap:square;stroke-linejoin:round" d="M238.76 150.83c-4.84-17.76-13.74-39.45-30.32-60.37-23.22-29.3-52.26-45.38-77.22-54.23"/><text transform="translate(169.703 92.768)" style="font-family:'Asap-Regular';font-size:6px">Feasible set</text><path style="fill:none;stroke:#263a71;stroke-width:.5;stroke-miterlimit:10" d="M118.56 12.21c6.41 23.33 13.7 42.1 19.56 55.56 7.7 17.72 13.39 30.6 24.44 46 7.24 10.09 16.97 23.42 34 35.78 17.31 12.56 34.65 18.67 47.56 21.78"/><path style="fill:none;stroke:#3b54a4;stroke-width:.5;stroke-miterlimit:10" d="M123 11.78a355.47 355.47 0 0013.55 36.77c8.2 18.99 15.45 35.76 29.93 54.13 8.32 10.56 19.87 24.93 40.08 36.43 13.79 7.85 26.58 11.5 35.33 13.33"/></g></svg>