<svg version="1.1" xmlns="http://www.w3.org/2000/svg" x="0" y="0" viewBox="0 0 311.81 148.33" style="enable-background:new 0 0 311.81 148.33" xml:space="preserve"><polygon style="fill:#f2e8f2" points="186.1 86.92 245.01 86.92 245.01 145.83"/><polygon style="fill:#f2e8f2" points="186.1 28.02 245.01 28.02 245.01 86.92"/><polygon style="fill:#f2e8f2" points="245.01 28.02 303.91 28.02 303.91 86.92"/><polygon style="fill:#f2e8f2" points="245.01 86.92 303.91 86.92 303.91 145.83"/><polygon style="fill:#e3e8f5" points="245.01 145.83 186.1 145.83 186.1 86.92"/><polygon style="fill:#e3e8f5" points="303.91 145.83 245.01 145.83 245.01 86.92"/><polygon style="fill:#e3e8f5" points="303.91 86.92 245.01 86.92 245.01 28.02"/><polygon style="fill:#e3e8f5" points="245.18 86.92 186.28 86.92 186.28 28.02"/><line style="fill:#929497;stroke:#fff;stroke-width:.5;stroke-miterlimit:10" x1="186.1" y1="86.62" x2="245.01" y2="145.52"/><line style="fill:none;stroke:#6d6e70;stroke-width:.5;stroke-miterlimit:10" x1="245.01" y1="14.6" x2="245.01" y2="28.02"/><polyline style="fill:#b8519d;stroke:#6d6e70;stroke-width:.499;stroke-miterlimit:10" points="186.1 15.35 186.1 2.95 303.91 2.95 303.91 15.35"/><line style="fill:#929497;stroke:#fff;stroke-width:.5;stroke-miterlimit:10" x1="245.01" y1="28.02" x2="303.91" y2="86.92"/><line style="fill:#929497;stroke:#fff;stroke-width:.5;stroke-miterlimit:10" x1="186.1" y1="28.02" x2="245.01" y2="86.92"/><line style="fill:#929497;stroke:#fff;stroke-width:.5;stroke-miterlimit:10" x1="245.01" y1="86.62" x2="303.91" y2="145.52"/><text transform="translate(211.814 24.272)" style="font-family:'Asap-Regular';font-size:7px">H</text><text transform="translate(271.767 24.272)" style="font-family:'Asap-Regular';font-size:7px">L</text><text transform="translate(239.446 12.043)" style="fill:#fff;font-family:'Asap-Regular';font-size:8px">Kit</text><line style="fill:none;stroke:#6d6e70;stroke-width:.5;stroke-miterlimit:10" x1="303.91" y1="15.35" x2="303.91" y2="28.02"/><line style="fill:none;stroke:#6d6e70;stroke-width:.5;stroke-miterlimit:10" x1="186.1" y1="28.02" x2="186.1" y2="15.35"/><rect x="186.1" y="28.02" style="fill:none;stroke:#6d6e70;stroke-width:.5;stroke-miterlimit:10" width="117.8" height="117.8"/><line style="fill:none;stroke:#6d6e70;stroke-width:.5;stroke-miterlimit:10" x1="245.01" y1="28.02" x2="245.01" y2="145.83"/><line style="fill:none;stroke:#6d6e70;stroke-width:.5;stroke-miterlimit:10" x1="186.1" y1="86.92" x2="303.91" y2="86.92"/><text transform="translate(219.807 48.75)" style="fill:#231f20;font-family:'Asap-Medium';font-size:7px">520</text><text transform="translate(194.18 76.065)" style="fill:#231f20;font-family:'Asap-Medium';font-size:7px">520</text><text transform="translate(279.255 49.282)" style="fill:#231f20;font-family:'Asap-Medium';font-size:7px">490</text><text transform="translate(257.132 75.596)" style="fill:#231f20;font-family:'Asap-Medium';font-size:7px">286</text><text transform="translate(219.807 107.07)" style="fill:#231f20;font-family:'Asap-Medium';font-size:7px">286</text><text transform="translate(194.18 133.55)" style="fill:#231f20;font-family:'Asap-Medium';font-size:7px">490</text><text transform="translate(279.255 107.07)" style="fill:#231f20;font-family:'Asap-Medium';font-size:7px">300</text><text transform="translate(257.132 133.065)" style="fill:#231f20;font-family:'Asap-Medium';font-size:7px">300</text><polyline style="fill:#0872b9;stroke:#6d6e70;stroke-width:.499;stroke-miterlimit:10" points="173.78 145.83 161.38 145.83 161.38 28.02 173.78 28.02"/><text transform="rotate(-90 151.032 -30.668)" style="font-family:'Asap-Regular';font-size:7px">L</text><text transform="rotate(-90 121.855 -59.845)" style="font-family:'Asap-Regular';font-size:7px">H</text><text transform="rotate(-90 135.44 -35.03)" style="fill:#fff;font-family:'Asap-Regular';font-size:8px">Wanda</text><line style="fill:none;stroke:#6d6e70;stroke-width:.5;stroke-miterlimit:10" x1="173.78" y1="28.02" x2="186.45" y2="28.02"/><line style="fill:none;stroke:#6d6e70;stroke-width:.5;stroke-miterlimit:10" x1="186.45" y1="145.83" x2="173.78" y2="145.83"/><line style="fill:none;stroke:#6d6e70;stroke-width:.5;stroke-miterlimit:10" x1="173.78" y1="86.92" x2="186.45" y2="86.92"/><line style="fill:none;stroke:#6d6e70;stroke-width:.5;stroke-miterlimit:10" x1="92.01" y1="14.6" x2="92.01" y2="28.02"/><polyline style="fill:#b8519d;stroke:#6d6e70;stroke-width:.499;stroke-miterlimit:10" points="33.1 15.35 33.1 2.95 150.91 2.95 150.91 15.35"/><text transform="translate(58.814 24.272)" style="font-family:'Asap-Regular';font-size:7px">H</text><text transform="translate(118.767 24.272)" style="font-family:'Asap-Regular';font-size:7px">L</text><text transform="translate(86.446 12.043)" style="fill:#fff;font-family:'Asap-Regular';font-size:8px">Kit</text><line style="fill:none;stroke:#6d6e70;stroke-width:.5;stroke-miterlimit:10" x1="150.91" y1="15.35" x2="150.91" y2="28.02"/><line style="fill:none;stroke:#6d6e70;stroke-width:.5;stroke-miterlimit:10" x1="33.1" y1="28.02" x2="33.1" y2="15.35"/><rect x="33.1" y="28.02" style="fill:none;stroke:#6d6e70;stroke-width:.5;stroke-miterlimit:10" width="117.8" height="117.8"/><line style="fill:none;stroke:#6d6e70;stroke-width:.5;stroke-miterlimit:10" x1="92.01" y1="28.02" x2="92.01" y2="145.83"/><line style="fill:none;stroke:#6d6e70;stroke-width:.5;stroke-miterlimit:10" x1="33.1" y1="86.92" x2="150.91" y2="86.92"/><polyline style="fill:#0872b9;stroke:#6d6e70;stroke-width:.499;stroke-miterlimit:10" points="20.78 145.83 8.38 145.83 8.38 28.02 20.78 28.02"/><text transform="rotate(-90 74.532 45.832)" style="font-family:'Asap-Regular';font-size:7px">L</text><text transform="rotate(-90 45.355 16.655)" style="font-family:'Asap-Regular';font-size:7px">H</text><text transform="rotate(-90 58.94 41.47)" style="fill:#fff;font-family:'Asap-Regular';font-size:8px">Wanda</text><line style="fill:none;stroke:#6d6e70;stroke-width:.5;stroke-miterlimit:10" x1="20.78" y1="28.02" x2="33.45" y2="28.02"/><line style="fill:none;stroke:#6d6e70;stroke-width:.5;stroke-miterlimit:10" x1="33.45" y1="145.83" x2="20.78" y2="145.83"/><line style="fill:none;stroke:#6d6e70;stroke-width:.5;stroke-miterlimit:10" x1="20.78" y1="86.92" x2="33.45" y2="86.92"/><text transform="translate(42.09 46.626)"><tspan x="0" y="0" style="font-family:'Asap-Regular';font-size:7px">40 customers</tspan><tspan x="9.4" y="8.4" style="font-family:'Asap-Regular';font-size:7px">in total</tspan><tspan x="8.39" y="25.2" style="font-family:'Asap-Regular';font-size:7px">20 each</tspan></text><text transform="translate(100.681 104.572)"><tspan x="0" y="0" style="font-family:'Asap-Regular';font-size:7px">60 customers</tspan><tspan x="9.4" y="8.4" style="font-family:'Asap-Regular';font-size:7px">in total</tspan><tspan x="8.39" y="25.2" style="font-family:'Asap-Regular';font-size:7px">30 each</tspan></text><text transform="translate(101.681 39.625)"><tspan x="0" y="0" style="font-family:'Asap-Regular';font-size:7px">60 customers</tspan><tspan x="7.86" y="8.4" style="font-family:'Asap-Regular';font-size:7px">in total, </tspan><tspan x="-7.27" y="16.8" style="font-family:'Asap-Regular';font-size:7px">11 </tspan><tspan x="1.9" y="16.8" style="font-family:'Asap-Regular';font-size:7px">l</tspan><tspan x="3.75" y="16.8" style="font-family:'Asap-Regular';font-size:7px">oy</tspan><tspan x="10.96" y="16.8" style="font-family:'Asap-Regular';font-size:7px">al to </tspan><tspan x="26.59" y="16.8" style="font-family:'Asap-Regular';font-size:7px">W</tspan><tspan x="32.68" y="16.8" style="font-family:'Asap-Regular';font-size:7px">anda</tspan><tspan x="4.94" y="34.8" style="font-family:'Asap-Regular';font-size:7px">49 for Kit, </tspan><tspan x="-.17" y="43.2" style="font-family:'Asap-Regular';font-size:7px">11 for </tspan><tspan x="19.5" y="43.2" style="font-family:'Asap-Regular';font-size:7px">W</tspan><tspan x="25.59" y="43.2" style="font-family:'Asap-Regular';font-size:7px">anda</tspan></text><text transform="translate(42.82 97.91)"><tspan x="0" y="0" style="font-family:'Asap-Regular';font-size:7px">60 customers</tspan><tspan x="7.86" y="8.4" style="font-family:'Asap-Regular';font-size:7px">in total, </tspan><tspan x="-.62" y="16.8" style="font-family:'Asap-Regular';font-size:7px">11 </tspan><tspan x="8.55" y="16.8" style="font-family:'Asap-Regular';font-size:7px">l</tspan><tspan x="10.4" y="16.8" style="font-family:'Asap-Regular';font-size:7px">oy</tspan><tspan x="17.6" y="16.8" style="font-family:'Asap-Regular';font-size:7px">al to Kit</tspan><tspan x="-1.71" y="33.6" style="font-family:'Asap-Regular';font-size:7px">49 for </tspan><tspan x="17.96" y="33.6" style="font-family:'Asap-Regular';font-size:7px">W</tspan><tspan x="24.05" y="33.6" style="font-family:'Asap-Regular';font-size:7px">anda, </tspan><tspan x="6.47" y="42" style="font-family:'Asap-Regular';font-size:7px">11 for Kit</tspan></text></svg>