<svg version="1.1" xmlns="http://www.w3.org/2000/svg" xmlns:xlink="http://www.w3.org/1999/xlink" x="0" y="0" viewBox="0 0 312.81 215.43" style="enable-background:new 0 0 312.81 215.43" xml:space="preserve"><g style="display:none"><g style="display:inline"><defs><polygon id="prefix__a" points="29.59 981.21 311.72 981.21 311.72 774.33 29.59 774.33 29.59 981.21"/></defs><clipPath id="prefix__b"><use xlink:href="#prefix__a" style="overflow:visible"/></clipPath><polyline points="29.91 -699.72 38.88 -100.14 47.22 225.51 56.2 422.18 65.17 549.89 73.51 637.36 82.49 699.94 91.46 745.92 100.44 781.03 108.78 808.49 117.75 830.2 126.73 848.08 135.07 862.13 144.04 874.26 153.02 884.48 162 892.78 170.33 899.8 179.31 906.19 188.29 911.3 196.62 915.77 205.6 920.23 214.58 924.07 223.55 927.26 231.89 929.81 240.87 932.37 249.84 934.92 258.18 936.84 267.16 938.75 276.13 940.67 285.11 941.94 293.45 943.22 302.42 944.5 311.4 945.78"/><g><defs><polygon id="prefix__c" points="29.59 981.21 311.72 981.21 311.72 774.33 29.59 774.33 29.59 981.21"/></defs><clipPath id="prefix__d"><use xlink:href="#prefix__c" style="overflow:visible"/></clipPath><polyline points="29.91 -2215.6 38.88 -1070.07 47.22 -448.14 56.2 -72.68 65.17 171.23 73.51 337.89 82.49 457.3 91.46 545.42 100.44 613.1 108.78 665.46 117.75 706.96 126.73 740.17 135.07 767.63 144.04 790.61 153.02 809.13 162 825.73 170.33 839.14 179.31 851.27 188.29 861.49 196.62 870.43 205.6 878.09 214.58 885.12 223.55 890.86 231.89 896.61 240.87 901.72 249.84 906.19 258.18 910.02 267.16 913.21 276.13 917.04 285.11 919.6 293.45 922.15 302.42 924.7 311.4 927.26"/></g></g><g style="display:inline"><defs><polygon id="prefix__e" points="8.8 1256.75 338.8 1256.75 338.8 1013.63 8.8 1013.63 8.8 1256.75"/></defs><clipPath id="prefix__f"><use xlink:href="#prefix__e" style="overflow:visible"/></clipPath><polyline points="8.92 -718.21 19.24 -13.57 29.44 369.23 39.76 600.11 50.08 749.87 60.4 852.59 70.6 926.03 80.92 980.39 91.24 1021.79 101.56 1053.95 111.76 1079.39 122.08 1100.03 132.4 1116.95 142.6 1130.87 152.92 1142.51 163.24 1152.47 173.56 1160.99 183.76 1168.19 194.08 1174.55 204.4 1180.07 214.72 1184.87 224.92 1189.07 235.24 1192.91 245.56 1196.27 255.76 1199.27 266.08 1202.03 276.4 1204.43 286.72 1206.59 296.92 1208.63 307.24 1210.43 317.56 1212.11 327.88 1213.67 338.08 1215.11"/><g><defs><polygon id="prefix__g" points="8.8 1256.75 338.8 1256.75 338.8 1013.63 8.8 1013.63 8.8 1256.75"/></defs><clipPath id="prefix__h"><use xlink:href="#prefix__g" style="overflow:visible"/></clipPath><polyline points="8.92 -2498.53 19.24 -1152.97 29.44 -421.93 39.76 18.71 50.08 304.79 60.4 500.87 70.6 641.15 80.92 744.95 91.24 823.91 101.56 885.35 111.76 934.07 122.08 973.43 132.4 1005.59 142.6 1032.35 152.92 1054.67 163.24 1073.51 173.56 1089.71 183.76 1103.63 194.08 1115.63 204.4 1126.19 214.72 1135.43 224.92 1143.59 235.24 1150.79 245.56 1157.15 255.76 1162.91 266.08 1168.07 276.4 1172.75 286.72 1176.95 296.92 1180.79 307.24 1184.27 317.56 1187.51 327.88 1190.39 338.08 1193.03"/></g></g><g style="display:inline"><defs><polygon id="prefix__i" points="8.8 1256.75 338.8 1256.75 338.8 1013.63 8.8 1013.63 8.8 1256.75"/></defs><clipPath id="prefix__j"><use xlink:href="#prefix__i" style="overflow:visible"/></clipPath><polyline points="8.92 -718.21 19.24 -13.57 29.44 369.23 39.76 600.11 50.08 749.87 60.4 852.59 70.6 926.03 80.92 980.39 91.24 1021.79 101.56 1053.95 111.76 1079.39 122.08 1100.03 132.4 1116.95 142.6 1130.87 152.92 1142.51 163.24 1152.47 173.56 1160.99 183.76 1168.19 194.08 1174.55 204.4 1180.07 214.72 1184.87 224.92 1189.07 235.24 1192.91 245.56 1196.27 255.76 1199.27 266.08 1202.03 276.4 1204.43 286.72 1206.59 296.92 1208.63 307.24 1210.43 317.56 1212.11 327.88 1213.67 338.08 1215.11"/><g><defs><polygon id="prefix__k" points="8.8 1256.75 338.8 1256.75 338.8 1013.63 8.8 1013.63 8.8 1256.75"/></defs><clipPath id="prefix__l"><use xlink:href="#prefix__k" style="overflow:visible"/></clipPath><polyline points="8.92 -2498.53 19.24 -1152.97 29.44 -421.93 39.76 18.71 50.08 304.79 60.4 500.87 70.6 641.15 80.92 744.95 91.24 823.91 101.56 885.35 111.76 934.07 122.08 973.43 132.4 1005.59 142.6 1032.35 152.92 1054.67 163.24 1073.51 173.56 1089.71 183.76 1103.63 194.08 1115.63 204.4 1126.19 214.72 1135.43 224.92 1143.59 235.24 1150.79 245.56 1157.15 255.76 1162.91 266.08 1168.07 276.4 1172.75 286.72 1176.95 296.92 1180.79 307.24 1184.27 317.56 1187.51 327.88 1190.39 338.08 1193.03"/></g></g><g style="display:inline"><defs><polygon id="prefix__m" points="8.8 1256.75 338.8 1256.75 338.8 1013.63 8.8 1013.63 8.8 1256.75"/></defs><clipPath id="prefix__n"><use xlink:href="#prefix__m" style="overflow:visible"/></clipPath><polyline points="8.92 -718.21 19.24 -13.57 29.44 369.23 39.76 600.11 50.08 749.87 60.4 852.59 70.6 926.03 80.92 980.39 91.24 1021.79 101.56 1053.95 111.76 1079.39 122.08 1100.03 132.4 1116.95 142.6 1130.87 152.92 1142.51 163.24 1152.47 173.56 1160.99 183.76 1168.19 194.08 1174.55 204.4 1180.07 214.72 1184.87 224.92 1189.07 235.24 1192.91 245.56 1196.27 255.76 1199.27 266.08 1202.03 276.4 1204.43 286.72 1206.59 296.92 1208.63 307.24 1210.43 317.56 1212.11 327.88 1213.67 338.08 1215.11"/><g><defs><polygon id="prefix__o" points="8.8 1256.75 338.8 1256.75 338.8 1013.63 8.8 1013.63 8.8 1256.75"/></defs><clipPath id="prefix__p"><use xlink:href="#prefix__o" style="overflow:visible"/></clipPath><polyline points="8.92 -2498.53 19.24 -1152.97 29.44 -421.93 39.76 18.71 50.08 304.79 60.4 500.87 70.6 641.15 80.92 744.95 91.24 823.91 101.56 885.35 111.76 934.07 122.08 973.43 132.4 1005.59 142.6 1032.35 152.92 1054.67 163.24 1073.51 173.56 1089.71 183.76 1103.63 194.08 1115.63 204.4 1126.19 214.72 1135.43 224.92 1143.59 235.24 1150.79 245.56 1157.15 255.76 1162.91 266.08 1168.07 276.4 1172.75 286.72 1176.95 296.92 1180.79 307.24 1184.27 317.56 1187.51 327.88 1190.39 338.08 1193.03"/></g></g></g><line style="fill:none;stroke:#6d6e71;stroke-width:.5;stroke-linecap:square" x1="39" y1="190.61" x2="292" y2="190.61"/><line style="fill:none;stroke:#6d6e71;stroke-width:.5;stroke-linecap:square;stroke-linejoin:round" x1="41.56" y1="19.87" x2="41.56" y2="20.09"/><line style="fill:none;stroke:#6d6e71;stroke-width:.5;stroke-linecap:square;stroke-linejoin:round" x1="41.04" y1="169.88" x2="38.91" y2="169.88"/><line style="fill:none;stroke:#6d6e71;stroke-width:.5;stroke-linecap:square;stroke-linejoin:round" x1="41.04" y1="147.88" x2="38.91" y2="147.88"/><line style="fill:none;stroke:#6d6e71;stroke-width:.5;stroke-linecap:square;stroke-linejoin:round" x1="41.04" y1="125.88" x2="38.91" y2="125.88"/><line style="fill:none;stroke:#6d6e71;stroke-width:.5;stroke-linecap:square;stroke-linejoin:round" x1="41.04" y1="104.88" x2="38.91" y2="104.88"/><line style="fill:none;stroke:#6d6e71;stroke-width:.5;stroke-linecap:square;stroke-linejoin:round" x1="41.04" y1="83.88" x2="38.91" y2="83.88"/><line style="fill:none;stroke:#6d6e71;stroke-width:.5;stroke-linecap:square;stroke-linejoin:round" x1="41.04" y1="61.88" x2="38.91" y2="61.88"/><line style="fill:none;stroke:#6d6e71;stroke-width:.5;stroke-linecap:square;stroke-linejoin:round" x1="41.04" y1="40.88" x2="38.91" y2="40.88"/><line style="fill:none;stroke:#6d6e71;stroke-width:.5;stroke-linecap:square;stroke-linejoin:round" x1="41.04" y1="19.88" x2="38.91" y2="19.88"/><text transform="translate(30.473 192.02)" style="font-family:'Asap-Regular';font-size:7px">0</text><text transform="translate(31.658 128.02)" style="font-family:'Asap-Regular';font-size:7px">6</text><text transform="translate(31.581 107.02)" style="font-family:'Asap-Regular';font-size:7px">8</text><text transform="translate(28.623 86.45)" style="font-family:'Asap-Regular';font-size:7px">10</text><text transform="translate(28.812 63.325)" style="font-family:'Asap-Regular';font-size:7px">12</text><text transform="translate(28.609 42.324)" style="font-family:'Asap-Regular';font-size:7px">14</text><text transform="translate(29.581 21.324)" style="font-family:'Asap-Regular';font-size:7px">16</text><text transform="matrix(0 -.9726 1 0 15.469 140.29)" style="font-family:'Asap-Medium';font-size:8px">Number of nights out</text><text transform="translate(39.222 200.943)" style="font-family:'Asap-Regular';font-size:7px">0</text><text transform="translate(61.222 200.935)" style="font-family:'Asap-Regular';font-size:7px">2</text><text transform="translate(82.222 200.942)" style="font-family:'Asap-Regular';font-size:7px">4</text><text transform="translate(102.35 200.914)" style="font-family:'Asap-Regular';font-size:7px">6</text><text transform="translate(124.35 200.942)" style="font-family:'Asap-Regular';font-size:7px">8</text><text transform="translate(143.35 200.943)" style="font-family:'Asap-Regular';font-size:7px">10</text><text transform="translate(184.35 200.914)" style="font-family:'Asap-Regular';font-size:7px">14</text><text transform="translate(163.493 200.914)" style="font-family:'Asap-Regular';font-size:7px">12</text><text transform="translate(206.493 200.914)" style="font-family:'Asap-Regular';font-size:7px">16</text><text transform="translate(226.064 200.942)" style="font-family:'Asap-Regular';font-size:7px">18</text><text transform="translate(247.064 200.942)" style="font-family:'Asap-Regular';font-size:7px">20</text><text transform="translate(268.493 200.943)" style="font-family:'Asap-Regular';font-size:7px">22</text><text transform="translate(288.493 200.943)" style="font-family:'Asap-Regular';font-size:7px">24</text><line style="fill:none;stroke:#6d6e71;stroke-width:.5;stroke-linecap:square" x1="292.21" y1="190.9" x2="292.21" y2="193.03"/><line style="fill:none;stroke:#6d6e71;stroke-width:.5;stroke-linecap:square" x1="272.21" y1="190.9" x2="272.21" y2="193.03"/><line style="fill:none;stroke:#6d6e71;stroke-width:.5;stroke-linecap:square" x1="250.61" y1="190.85" x2="250.61" y2="192.97"/><line style="fill:none;stroke:#6d6e71;stroke-width:.5;stroke-linecap:square" x1="229.61" y1="190.85" x2="229.61" y2="192.97"/><line style="fill:none;stroke:#6d6e71;stroke-width:.5;stroke-linecap:square" x1="209.61" y1="190.85" x2="209.61" y2="192.97"/><line style="fill:none;stroke:#6d6e71;stroke-width:.5;stroke-linecap:square" x1="188.46" y1="190.85" x2="188.46" y2="192.97"/><line style="fill:none;stroke:#6d6e71;stroke-width:.5;stroke-linecap:square" x1="167.27" y1="190.85" x2="167.27" y2="192.97"/><line style="fill:none;stroke:#6d6e71;stroke-width:.5;stroke-linecap:square" x1="147" y1="190.7" x2="147" y2="192.83"/><line style="fill:none;stroke:#6d6e71;stroke-width:.5;stroke-linecap:square" x1="126.04" y1="190.7" x2="126.04" y2="192.83"/><line style="fill:none;stroke:#6d6e71;stroke-width:.5;stroke-linecap:square" x1="104.46" y1="190.7" x2="104.46" y2="192.83"/><line style="fill:none;stroke:#6d6e71;stroke-width:.5;stroke-linecap:square" x1="84.46" y1="190.7" x2="84.46" y2="192.83"/><line style="fill:none;stroke:#6d6e71;stroke-width:.5;stroke-linecap:square" x1="63.46" y1="190.7" x2="63.46" y2="192.83"/><path style="fill:none;stroke:#e9292a;stroke-width:.5" d="M41.46 29.84c30.9 29.86 61.88 59.66 92.92 89.39 25 23.94 50.03 47.82 75.11 71.67"/><path style="fill:none;stroke:#b92025;stroke-width:.5" d="M41.56 29.76c44.94 28.78 89.87 57.6 134.78 86.44 38.73 24.87 77.45 49.77 116.15 74.69"/><path style="fill:none;stroke:#5b73b8;stroke-width:.5" d="M120 21.89c.33 1.73.86 4.31 1.61 7.42 2.8 11.5 14.82 60.86 55.56 86.96 13.58 8.7 28.18 12.55 57.43 20.08 14.06 3.62 26.8 6.08 37.62 7.78"/><text transform="translate(113.274 211.763)" style="font-family:'Asap-Medium';font-size:8px">Number of cinema tickets</text><path style="fill:none;stroke:#5b73b8;stroke-width:.5" d="M281.62 163.45c-14.22-.97-32.62-2.82-53.81-6.55-41.61-7.33-55.98-10.09-70.31-19-12.16-7.56-19.37-14.74-23-19-7.75-9.1-11.56-17.48-14.2-23.41-8.26-18.57-10-35.42-12.8-62.59-.49-4.71-.81-8.56-1-11"/><text transform="translate(139.03 112.62)" style="font-family:'Asap-Regular';font-size:7px">C</text><text transform="translate(179.03 107.62)" style="font-family:'Asap-Regular';font-size:7px">A</text><circle style="fill:#000101" cx="132.64" cy="117.28" r="1.13"/><circle style="fill:#000101" cx="171.64" cy="113.28" r="1.13"/><text transform="translate(31.18 149.54)" style="font-family:'Asap-Regular';font-size:7px">4</text><text transform="translate(31.18 172.54)" style="font-family:'Asap-Regular';font-size:7px">2</text><line style="fill:none;stroke:#6d6e71;stroke-width:.5;stroke-linecap:square;stroke-linejoin:round" x1="41.56" y1="20.09" x2="41.56" y2="194"/><text transform="translate(280.94 146.4)" style="font-family:'Asap-Regular';font-size:7px">IC</text><text transform="matrix(.583 0 0 .583 287.254 148.73)" style="font-family:'Asap-Regular';font-size:7px">1</text><text transform="translate(289.077 165.4)" style="font-family:'Asap-Regular';font-size:7px">IC</text><text transform="matrix(.583 0 0 .583 295.39 167.73)" style="font-family:'Asap-Regular';font-size:7px">2</text></svg>