<svg version="1.1" xmlns="http://www.w3.org/2000/svg" x="0" y="0" viewBox="0 0 311.81 218.84" style="enable-background:new 0 0 311.81 218.84" xml:space="preserve"><text transform="translate(31.026 190.714)" style="font-family:'Asap-Regular';font-size:7.0788px">0</text><text transform="translate(40.854 199.537)" style="font-family:'Asap-Regular';font-size:7.0788px">0</text><text transform="translate(31.43 117.42)" style="font-family:'Asap-Regular';font-size:7.0788px">8</text><text transform="translate(27.588 97.937)" style="font-family:'Asap-Regular';font-size:7.0788px">10</text><text transform="translate(31.43 155.209)" style="font-family:'Asap-Regular';font-size:7.0788px">4</text><text transform="translate(28.461 80.804)" style="font-family:'Asap-Regular';font-size:7.0788px">12</text><text transform="translate(28.128 62.7)" style="font-family:'Asap-Regular';font-size:7.0788px">14</text><text transform="translate(27.767 25.827)" style="font-family:'Asap-Regular';font-size:7.0788px">18</text><text transform="translate(28.461 7.702)" style="font-family:'Asap-Regular';font-size:7.0788px">20</text><text transform="translate(78.487 199.405)" style="font-family:'Asap-Regular';font-size:7.0788px">4</text><text transform="translate(120.129 199.495)" style="font-family:'Asap-Regular';font-size:7.0788px">8</text><text transform="translate(158.298 199.495)" style="font-family:'Asap-Regular';font-size:7.0788px">12</text><text transform="translate(200.085 199.46)" style="font-family:'Asap-Regular';font-size:7.0788px">16</text><text transform="translate(112.461 213.17)"><tspan x="0" y="0" style="font-family:'Asap-Medium';font-size:8.0901px">Angela’s hours of free time, </tspan><tspan x="99.08" y="0" style="font-family:'Asap-MediumItalic';font-size:8.0901px">t</tspan></text><path style="fill:none;stroke:#6d6e71;stroke-width:.5;stroke-linecap:square;stroke-linejoin:round" d="M39.55 6.11v183.5"/><line style="fill:none;stroke:#6d6e71;stroke-width:.5;stroke-linecap:square" x1="39.55" y1="189.8" x2="286.6" y2="189.8"/><text transform="translate(242.315 199.418)" style="font-family:'Asap-Regular';font-size:7.0788px">20</text><text transform="translate(281.916 199.405)" style="font-family:'Asap-Regular';font-size:7.0788px">24</text><text transform="translate(27.767 45.038)" style="font-family:'Asap-Regular';font-size:7.0788px">16</text><text transform="translate(31.43 135.995)" style="font-family:'Asap-Regular';font-size:7.0788px">6</text><text transform="translate(31.302 172.375)" style="font-family:'Asap-Regular';font-size:7.0788px">2</text><text transform="rotate(-90 72.785 53.324)"><tspan x="0" y="0" style="font-family:'Asap-Medium';font-size:8.0901px">Bushels of grain, </tspan><tspan x="60.42" y="0" style="font-family:'Asap-MediumItalic';font-size:8.0901px">c</tspan></text><line style="fill:none;stroke:#6d6e71;stroke-width:.5;stroke-linecap:square" x1="285.25" y1="189.65" x2="285.25" y2="191.78"/><line style="fill:none;stroke:#6d6e71;stroke-width:.5;stroke-linecap:square" x1="245.45" y1="189.97" x2="245.45" y2="192.1"/><line style="fill:none;stroke:#6d6e71;stroke-width:.5;stroke-linecap:square" x1="202.57" y1="189.8" x2="202.57" y2="191.93"/><line style="fill:none;stroke:#6d6e71;stroke-width:.5;stroke-linecap:square" x1="162.4" y1="189.97" x2="162.4" y2="192.1"/><line style="fill:none;stroke:#6d6e71;stroke-width:.5;stroke-linecap:square" x1="122.09" y1="189.97" x2="122.09" y2="192.1"/><line style="fill:none;stroke:#6d6e71;stroke-width:.5;stroke-linecap:square" x1="80.33" y1="189.99" x2="80.33" y2="192.12"/><line style="fill:none;stroke:#6d6e71;stroke-width:.5;stroke-linecap:square" x1="39.55" y1="189.62" x2="39.55" y2="191.74"/><line style="fill:none;stroke:#6d6e71;stroke-width:.5;stroke-linecap:square" x1="39.02" y1="189.81" x2="36.9" y2="189.8"/><line style="fill:none;stroke:#6d6e71;stroke-width:.5;stroke-linecap:square" x1="39.02" y1="169.74" x2="36.9" y2="169.73"/><line style="fill:none;stroke:#6d6e71;stroke-width:.5;stroke-linecap:square" x1="39.02" y1="152.89" x2="36.9" y2="152.88"/><line style="fill:none;stroke:#6d6e71;stroke-width:.5;stroke-linecap:square" x1="39.02" y1="133.44" x2="36.9" y2="133.43"/><line style="fill:none;stroke:#6d6e71;stroke-width:.5;stroke-linecap:square" x1="39.08" y1="115.44" x2="36.96" y2="115.44"/><line style="fill:none;stroke:#6d6e71;stroke-width:.5;stroke-linecap:square" x1="39.08" y1="95.38" x2="36.96" y2="95.37"/><line style="fill:none;stroke:#6d6e71;stroke-width:.5;stroke-linecap:square" x1="39.27" y1="78.57" x2="37.15" y2="78.57"/><line style="fill:none;stroke:#6d6e71;stroke-width:.5;stroke-linecap:square" x1="39.27" y1="61.02" x2="37.15" y2="61.02"/><line style="fill:none;stroke:#6d6e71;stroke-width:.5;stroke-linecap:square" x1="39.08" y1="43.6" x2="36.96" y2="43.59"/><line style="fill:none;stroke:#6d6e71;stroke-width:.5;stroke-linecap:square" x1="39.08" y1="23.53" x2="36.96" y2="23.53"/><line style="fill:none;stroke:#6d6e71;stroke-width:.5;stroke-linecap:square" x1="39.55" y1="6.12" x2="37.42" y2="6.11"/><g><text transform="translate(184.656 128.689)"><tspan x="0" y="0" style="font-family:'Asap-Italic';font-size:6px">b </tspan><tspan x="4.85" y="0" style="font-family:'Asap-Regular';font-size:6px">= 3</tspan></text><text transform="translate(202.269 113.246)" style="font-family:'Asap-Italic';font-size:6px">P</text><text transform="matrix(.583 0 0 .583 205.689 115.244)" style="font-family:'Asap-Regular';font-size:6px">1</text><text transform="translate(204 150.766)" style="font-family:'Asap-Italic';font-size:6px">P</text><text transform="matrix(.583 0 0 .583 207.42 152.764)" style="font-family:'Asap-Regular';font-size:6px">2</text><text transform="translate(204 170.09)" style="font-family:'Asap-Italic';font-size:6px">P</text><text transform="matrix(.583 0 0 .583 207.42 172.089)" style="font-family:'Asap-Regular';font-size:6px">3</text><text transform="translate(204.6 186.618)" style="font-family:'Asap-Italic';font-size:6px">P</text><text transform="matrix(.583 0 0 .583 208.02 188.616)" style="font-family:'Asap-Regular';font-size:6px">0</text><path style="fill:none;stroke:#3b54a4;stroke-width:.5" d="M39.55 23.83c.24 14 3.69 24.28 6.39 30.51 4.62 10.68 10.48 17.39 21.61 30.15 4.47 5.13 11.06 12.62 21.11 21.11 2.53 2.14 8.71 7.24 23.12 16.58 8.09 5.25 18.22 11.48 35.2 20.83 9.16 5.04 24.36 13.38 45.17 23.38a858.39 858.39 0 0053.31 23.42"/><path style="fill:none;stroke:#3b54a4;stroke-width:.5" d="M41.2 8.45c.46 3.49 1.37 8.36 3.31 13.91.63 1.82 3.17 8.84 10.2 19.21 1.84 2.72 6.64 9.58 15.5 18.81 9.95 10.37 18.5 16.91 27.73 24.03 3.5 2.69 12.34 9.39 24.51 17.19 5.81 3.72 13.17 8.2 25.07 14.65 7 3.79 19.36 10.33 58.04 28.17 18.3 8.44 27.62 12.73 36.34 16.34a621.308 621.308 0 0043.65 16.17"/><path style="fill:none;stroke:#3b54a4;stroke-width:.5" d="M50.84 6.11c1.57 2.8 3.57 6.17 6.06 9.88.8 1.19 3.58 5.29 7.73 10.46 5.44 6.76 10.15 11.53 11.82 13.19 5.55 5.52 10.02 9.09 15.46 13.41 9.84 7.82 17.84 13.06 19.78 14.32 6.98 4.54 7.56 4.39 24.56 14.32 12.5 7.3 12.75 7.71 19.33 11.37 8.88 4.95 15.52 8.15 24.08 12.27 16.31 7.85 29.12 13.3 41.92 18.73 7.5 3.18 14.98 6.35 25.17 10.37 15.7 6.19 29.03 10.92 38.81 14.25M71.54 6.11c4.17 4.56 10.51 11.02 18.96 17.97 2.49 2.05 8.13 6.59 24.73 17.52 10.26 6.76 17.45 11.49 27.31 17.26 20.2 11.83 36.77 19.32 47.66 24.22 15.89 7.14 16.35 6.48 38.13 16.23 11.62 5.2 15.86 7.34 24.48 10.82 13.61 5.49 25.08 9.05 32.76 11.21"/><path style="fill:none;stroke:#f49323;stroke-width:.5" d="M39.55 62.57c14.73 3.73 34.69 9.04 58.2 16.04 17.64 5.25 38.44 11.49 65.32 21.34 0 0 36.89 13.52 67.08 29.41 0 0 13.26 6.98 26.58 17.07 2.28 1.73 6.29 4.85 10.88 9.39 5.58 5.5 8.52 9.61 9.29 10.71 2.11 3 3.88 5.55 5.34 9.39 1.34 3.52 1.97 6.93 2.29 8.65.38 2.04.59 3.78.71 5.06"/><line style="fill:none;stroke:#bcbec0;stroke-width:.5;stroke-linejoin:round" x1="167.23" y1="156.05" x2="237.53" y2="187.47"/><line style="fill:none;stroke:#bcbec0;stroke-width:.5;stroke-linejoin:round" x1="168.85" y1="128.51" x2="239.15" y2="159.92"/><line style="fill:none;stroke:#bcbec0;stroke-width:.5;stroke-linejoin:round" x1="166.17" y1="99.95" x2="237.74" y2="131.93"/><line style="fill:none;stroke:#939598;stroke-width:.5;stroke-linecap:square;stroke-linejoin:round" x1="200.37" y1="116.2" x2="200.37" y2="141.17"/><polygon style="fill:#939598" points="198.32 117.86 198.69 118.2 200.37 116.4 202.05 118.2 202.41 117.86 200.37 115.66"/><polygon style="fill:#939598" points="198.32 139.52 198.69 139.18 200.37 140.98 202.05 139.18 202.41 139.52 200.37 141.72"/><line style="fill:none;stroke:#939598;stroke-width:.25;stroke-linejoin:round" x1="202.57" y1="116.46" x2="202.57" y2="189.8"/></g></svg>