<svg xmlns="http://www.w3.org/2000/svg" viewBox="0 0 810 625"><rect width="100%" height="100%" style="stroke:none;fill:#fff;stroke-linecap:round;stroke-linejoin:round;stroke-miterlimit:10"/><rect x="0" y="0" width="810" height="625" style="stroke-width:1.07;stroke:#fff;fill:#fff;stroke-linecap:round;stroke-linejoin:round;stroke-miterlimit:10"/><rect x="116.16" y="14.17" width="679.67" height="529.93" style="stroke-width:1.07;stroke:none;fill:#fff;stroke-linecap:round;stroke-linejoin:round;stroke-miterlimit:10"/><polyline points="116.16 468.4 795.83 468.4" style="stroke-width:1.07;stroke:#c6c4c4;stroke-linecap:butt;fill:none;stroke-linejoin:round;stroke-miterlimit:10"/><polyline points="116.16 392.69 795.83 392.69" style="stroke-width:1.07;stroke:#c6c4c4;stroke-linecap:butt;fill:none;stroke-linejoin:round;stroke-miterlimit:10"/><polyline points="116.16 316.99 795.83 316.99" style="stroke-width:1.07;stroke:#c6c4c4;stroke-linecap:butt;fill:none;stroke-linejoin:round;stroke-miterlimit:10"/><polyline points="116.16 241.29 795.83 241.29" style="stroke-width:1.07;stroke:#c6c4c4;stroke-linecap:butt;fill:none;stroke-linejoin:round;stroke-miterlimit:10"/><polyline points="116.16 165.58 795.83 165.58" style="stroke-width:1.07;stroke:#c6c4c4;stroke-linecap:butt;fill:none;stroke-linejoin:round;stroke-miterlimit:10"/><polyline points="116.16 89.88 795.83 89.88" style="stroke-width:1.07;stroke:#c6c4c4;stroke-linecap:butt;fill:none;stroke-linejoin:round;stroke-miterlimit:10"/><polyline points="116.16 14.17 795.83 14.17" style="stroke-width:1.07;stroke:#c6c4c4;stroke-linecap:butt;fill:none;stroke-linejoin:round;stroke-miterlimit:10"/><polyline points="167.94 532.69 290.93 532.61 297.4 533.82 303.88 533.34 310.35 532.67 316.82 532.4 323.3 532.61 329.77 532.76 336.24 532.34 342.72 532.2 349.19 529.51 355.66 530.13 362.13 528.69 368.61 527.2 375.08 527.6 381.55 527.69 388.03 527.51 394.5 528.22 400.97 528.11 407.45 528.13 413.92 528.25 420.39 528.84 426.87 528.45 433.34 527.98 439.81 527.23 446.28 526.81 452.76 526.72 459.23 527.43 465.7 527.52 472.18 528.52 478.65 526.02 485.12 526.8 491.6 529.07 498.07 529.02 504.54 527.1 511.01 527.76 517.49 527.4 523.96 529.23 530.43 528.72 536.91 527.3 543.38 525.89 549.85 525.21 556.33 523.34 562.8 520.68 569.27 520.44 575.74 521.89 582.22 519.8 588.69 519.26 595.16 519.07 601.64 518.21 608.11 516.32 614.58 516.21 621.06 515.77 627.53 514.47 634 512.61 640.47 512.84 646.95 511.81 653.42 508.54 659.89 504.54 666.37 498.72 672.84 493.97 679.31 485.72 685.79 480.37 692.26 472.42 698.73 465.78 705.2 456.71 711.68 458.09 718.15 444.84 724.62 420.46 731.1 411.95 737.57 377.95 744.04 337.17 750.52 296.64 756.99 236.83 763.46 141.64 769.93 116.19 775.11 75.52" style="stroke-width:1.2;stroke:#3a53a4;stroke-linecap:butt;fill:none;stroke-linejoin:round;stroke-miterlimit:10"/><polyline points="213.26 535.27 297.4 536.09 407.45 535.85 504.54 534 582.22 533.88 634 531.56 666.37 530.43 679.31 528.45 685.79 527.67 692.26 525.48 698.73 523.01 705.2 518.42 711.68 511.93 718.15 507.1 724.62 500.47 731.1 503.01 737.57 452.61 744.04 371.66 750.52 312.86 756.99 244.93 763.46 222.07 769.93 196.24 775.11 159.85" style="stroke-width:1.2;stroke:#f49323;stroke-linecap:butt;fill:none;stroke-linejoin:round;stroke-miterlimit:10"/><polyline points="316.82 521.91 323.3 523.13 329.77 523.56 336.24 524.01 342.72 522.07 349.19 520.19 355.66 525.19 362.13 522.71 368.61 522.51 375.08 520.33 381.55 519.74 388.03 517.62 394.5 519.23 400.97 518.94 407.45 519.01 413.92 518.8 420.39 520.74 426.87 522.09 433.34 522.62 439.81 522.78 446.28 520.81 452.76 522.86 459.23 523.13 465.7 522.86 472.18 524.36 478.65 524.22 485.12 524.04 491.6 524.42 498.07 525.45 504.54 525.57 511.01 524.54 517.49 524.04 523.96 522.47 530.43 522.72 536.91 523.33 543.38 522.9 549.85 523.77 556.33 523.83 562.8 524.8 569.27 523.75 575.74 522.06 582.22 520.42 588.69 522.16 595.16 522.71 601.64 522.21 608.11 522.33 614.58 524.24 621.06 524.1 627.53 524.57 634 524.01 640.47 524.06 646.95 523 653.42 522.78 659.89 523.15 666.37 524.33 672.84 522.9 679.31 521.25 685.79 520.01 692.26 519.59 698.73 513.37 705.2 501.93 711.68 501.6 718.15 497.2 724.62 499.47 731.1 475.04 737.57 428.23 744.04 377.73 750.52 329.5 756.99 285.25 763.46 251.22 769.93 260.03 775.11 263.31" style="stroke-width:1.2;stroke:#009147;stroke-linecap:butt;fill:none;stroke-linejoin:round;stroke-miterlimit:10"/><polyline points="116.16 531.01 122.63 529.73 129.11 528.72 135.58 528.85 142.05 529.12 148.53 529.38 155 529.63 161.47 530.13 167.94 530.97 174.42 531.71 180.89 532.31 187.36 532.74 193.84 533.03 375.08 532.53 381.55 532.07 388.03 531.72 394.5 531.11 400.97 531.79 407.45 532.53 413.92 532.42 420.39 531.99 426.87 532.75 433.34 532.4 439.81 532.14 446.28 531.82 452.76 532.81 459.23 532.98 465.7 533.04 472.18 532.87 478.65 532.91 485.12 532.7 491.6 532.56 498.07 532.41 504.54 532.11 511.01 531.99 517.49 531.78 562.8 529.87 569.27 528.51 575.74 529.61 582.22 530.52 588.69 531.38 595.16 532.21 601.64 533.11 608.11 533.37 614.58 533.59 621.06 533.79 627.53 534.04 634 534.28 640.47 534.52 646.95 534.69 653.42 535.11 659.89 535.03 666.37 534.28 672.84 533.37 679.31 533.02 685.79 533.15 692.26 533.38 698.73 533.73 705.2 534.24 711.68 534.55 718.15 534.55 731.1 533.5 737.57 531.82 744.04 526.95 750.52 516.91 756.99 501.03 763.46 460.3 769.93 390.51 775.11 335.76" style="stroke-width:1.2;stroke:#b9519e;stroke-linecap:butt;fill:none;stroke-linejoin:round;stroke-miterlimit:10"/><polyline points="504.54 533.78 536.91 534.45 569.27 534.69 601.64 535.37 634 535.48 640.47 536.24 646.95 536.23 653.42 536.38 659.89 535.7 666.37 535.68 679.31 536.03 685.79 535.59 692.26 535.3 698.73 534.4 705.2 533.73 711.68 533.61 718.15 533.59 724.62 534.14 731.1 533.97 737.57 532.2 744.04 530.72 750.52 527.76 756.99 520.98 763.46 507.48 769.93 481.4 775.11 449.81" style="stroke-width:1.2;stroke-linecap:butt;fill:none;stroke:#000;stroke-linejoin:round;stroke-miterlimit:10"/><polyline points="692.26 536.83 698.73 534.37 705.2 534.88 711.68 534.71 718.15 535.49 724.62 535.76 731.1 532.7 737.57 531.69 744.04 527.54 750.52 524.34 756.99 527.26 763.46 526.52 775.11 514.51" style="stroke-width:1.2;stroke:#4dd9ff;stroke-linecap:butt;fill:none;stroke-linejoin:round;stroke-miterlimit:10"/><polygon points="771.31 339.56 778.92 339.56 778.92 331.96 771.31 331.96" style="stroke-width:1.2;stroke:none;fill:#b9519e;stroke-linecap:round;stroke-linejoin:round;stroke-miterlimit:10"/><circle cx="775.11" cy="75.52" r="3.8" style="stroke-width:1.2;stroke:#3a53a4;fill:#3a53a4;stroke-linecap:round;stroke-linejoin:round;stroke-miterlimit:10"/><polygon points="771.31 267.11 778.92 267.11 778.92 259.51 771.31 259.51" style="stroke-width:1.2;stroke:none;fill:#009147;stroke-linecap:round;stroke-linejoin:round;stroke-miterlimit:10"/><circle cx="775.11" cy="159.85" r="3.8" style="stroke-width:1.2;stroke:#f49323;fill:#f49323;stroke-linecap:round;stroke-linejoin:round;stroke-miterlimit:10"/><circle cx="775.11" cy="449.81" r="3.8" style="stroke-width:1.2;fill:#000;stroke:#000;stroke-linecap:round;stroke-linejoin:round;stroke-miterlimit:10"/><polygon points="771.31 518.31 778.92 518.31 778.92 510.71 771.31 510.71" style="stroke-width:1.2;stroke:none;fill:#4dd9ff;stroke-linecap:round;stroke-linejoin:round;stroke-miterlimit:10"/><polyline points="116.16 544.1 116.16 14.17" style="stroke-width:1.07;stroke:#464646;stroke-linecap:butt;fill:none;stroke-linejoin:round;stroke-miterlimit:10"/><text x="57.03" y="472.81" style="font-size:18px;font-family:Asap" textLength="42.08" lengthAdjust="spacingAndGlyphs">5,000</text><text x="47.4" y="397.1" style="font-size:18px;font-family:Asap" textLength="51.71" lengthAdjust="spacingAndGlyphs">10,000</text><text x="47.4" y="321.4" style="font-size:18px;font-family:Asap" textLength="51.71" lengthAdjust="spacingAndGlyphs">15,000</text><text x="47.4" y="245.7" style="font-size:18px;font-family:Asap" textLength="51.71" lengthAdjust="spacingAndGlyphs">20,000</text><text x="47.4" y="169.99" style="font-size:18px;font-family:Asap" textLength="51.71" lengthAdjust="spacingAndGlyphs">25,000</text><text x="47.4" y="94.29" style="font-size:18px;font-family:Asap" textLength="51.71" lengthAdjust="spacingAndGlyphs">30,000</text><text x="47.4" y="18.58" style="font-size:18px;font-family:Asap" textLength="51.71" lengthAdjust="spacingAndGlyphs">35,000</text><polyline points="109.07 468.4 116.16 468.4" style="stroke-width:1.07;stroke:#464646;stroke-linecap:butt;fill:none;stroke-linejoin:round;stroke-miterlimit:10"/><polyline points="109.07 392.69 116.16 392.69" style="stroke-width:1.07;stroke:#464646;stroke-linecap:butt;fill:none;stroke-linejoin:round;stroke-miterlimit:10"/><polyline points="109.07 316.99 116.16 316.99" style="stroke-width:1.07;stroke:#464646;stroke-linecap:butt;fill:none;stroke-linejoin:round;stroke-miterlimit:10"/><polyline points="109.07 241.29 116.16 241.29" style="stroke-width:1.07;stroke:#464646;stroke-linecap:butt;fill:none;stroke-linejoin:round;stroke-miterlimit:10"/><polyline points="109.07 165.58 116.16 165.58" style="stroke-width:1.07;stroke:#464646;stroke-linecap:butt;fill:none;stroke-linejoin:round;stroke-miterlimit:10"/><polyline points="109.07 89.88 116.16 89.88" style="stroke-width:1.07;stroke:#464646;stroke-linecap:butt;fill:none;stroke-linejoin:round;stroke-miterlimit:10"/><polyline points="109.07 14.17 116.16 14.17" style="stroke-width:1.07;stroke:#464646;stroke-linecap:butt;fill:none;stroke-linejoin:round;stroke-miterlimit:10"/><polyline points="116.16 544.1 795.83 544.1" style="stroke-width:1.07;stroke:#464646;stroke-linecap:butt;fill:none;stroke-linejoin:round;stroke-miterlimit:10"/><polyline points="116.16 551.19 116.16 544.1" style="stroke-width:1.07;stroke:#464646;stroke-linecap:butt;fill:none;stroke-linejoin:round;stroke-miterlimit:10"/><polyline points="245.62 551.19 245.62 544.1" style="stroke-width:1.07;stroke:#464646;stroke-linecap:butt;fill:none;stroke-linejoin:round;stroke-miterlimit:10"/><polyline points="375.08 551.19 375.08 544.1" style="stroke-width:1.07;stroke:#464646;stroke-linecap:butt;fill:none;stroke-linejoin:round;stroke-miterlimit:10"/><polyline points="504.54 551.19 504.54 544.1" style="stroke-width:1.07;stroke:#464646;stroke-linecap:butt;fill:none;stroke-linejoin:round;stroke-miterlimit:10"/><polyline points="634 551.19 634 544.1" style="stroke-width:1.07;stroke:#464646;stroke-linecap:butt;fill:none;stroke-linejoin:round;stroke-miterlimit:10"/><polyline points="763.46 551.19 763.46 544.1" style="stroke-width:1.07;stroke:#464646;stroke-linecap:butt;fill:none;stroke-linejoin:round;stroke-miterlimit:10"/><text x="96.9" y="573.79" style="font-size:18px;font-family:Asap" textLength="38.52" lengthAdjust="spacingAndGlyphs">1000</text><text x="226.36" y="573.79" style="font-size:18px;font-family:Asap" textLength="38.52" lengthAdjust="spacingAndGlyphs">1200</text><text x="355.82" y="573.79" style="font-size:18px;font-family:Asap" textLength="38.52" lengthAdjust="spacingAndGlyphs">1400</text><text x="485.28" y="573.79" style="font-size:18px;font-family:Asap" textLength="38.52" lengthAdjust="spacingAndGlyphs">1600</text><text x="614.74" y="573.79" style="font-size:18px;font-family:Asap" textLength="38.52" lengthAdjust="spacingAndGlyphs">1800</text><text x="744.2" y="573.79" style="font-size:18px;font-family:Asap" textLength="38.52" lengthAdjust="spacingAndGlyphs">2000</text><text x="435.9" y="606.59" style="font-size:20px;font-family:Asap Medium" textLength="40.18" lengthAdjust="spacingAndGlyphs">Year</text><text transform="rotate(-90 205.535 177.325)" style="font-size:20px;font-family:Asap Medium" textLength="38.74" lengthAdjust="spacingAndGlyphs">GDP</text><text transform="rotate(-90 183.765 155.555)" style="font-size:20px;font-family:Asap Medium" textLength="29.56" lengthAdjust="spacingAndGlyphs">per</text><text transform="rotate(-90 166.585 138.375)" style="font-size:20px;font-family:Asap Medium" textLength="55.1" lengthAdjust="spacingAndGlyphs">capita</text><text transform="rotate(-90 136.635 108.425)" style="font-size:20px;font-family:Asap Medium" textLength="48.82" lengthAdjust="spacingAndGlyphs">(1990</text><text transform="rotate(-90 109.825 81.615)" style="font-size:20px;font-family:Asap Medium" textLength="16.02" lengthAdjust="spacingAndGlyphs">$)</text><rect x="611.54" y="10.04" width="96.7" height="146.04" style="stroke-width:1.07;stroke:none;fill:#fff;stroke-linecap:round;stroke-linejoin:round;stroke-miterlimit:10"/><line x1="619.86" y1="31.8" x2="642.53" y2="31.8" style="stroke-width:1.2;stroke:#3a53a4;stroke-linecap:butt;fill:none;stroke-linejoin:round;stroke-miterlimit:10"/><circle cx="639.7" cy="31.8" r="5.7" style="stroke-width:1.2;stroke:#3a53a4;fill:#3a53a4;stroke-linecap:round;stroke-linejoin:round;stroke-miterlimit:10"/><line x1="619.86" y1="53.4" x2="642.53" y2="53.4" style="stroke-width:1.2;stroke:#f49323;stroke-linecap:butt;fill:none;stroke-linejoin:round;stroke-miterlimit:10"/><circle cx="639.7" cy="53.4" r="5.7" style="stroke-width:1.2;stroke:#f49323;fill:#f49323;stroke-linecap:round;stroke-linejoin:round;stroke-miterlimit:10"/><line x1="619.86" y1="75" x2="642.53" y2="75" style="stroke-width:1.2;stroke:#009147;stroke-linecap:butt;fill:none;stroke-linejoin:round;stroke-miterlimit:10"/><polygon points="633.99 80.71 645.4 80.71 645.4 69.3 633.99 69.3" style="stroke-width:1.2;stroke:none;fill:#009147;stroke-linecap:round;stroke-linejoin:round;stroke-miterlimit:10"/><line x1="619.86" y1="96.6" x2="642.53" y2="96.6" style="stroke-width:1.2;stroke:#b9519e;stroke-linecap:butt;fill:none;stroke-linejoin:round;stroke-miterlimit:10"/><polygon points="633.99 102.31 645.4 102.31 645.4 90.9 633.99 90.9" style="stroke-width:1.2;stroke:none;fill:#b9519e;stroke-linecap:round;stroke-linejoin:round;stroke-miterlimit:10"/><line x1="619.86" y1="118.2" x2="642.53" y2="118.2" style="stroke-width:1.2;stroke-linecap:butt;fill:none;stroke:#000;stroke-linejoin:round;stroke-miterlimit:10"/><circle cx="639.7" cy="118.2" r="5.7" style="stroke-width:1.2;fill:#000;stroke:#000;stroke-linecap:round;stroke-linejoin:round;stroke-miterlimit:10"/><line x1="619.86" y1="139.8" x2="642.53" y2="139.8" style="stroke-width:1.2;stroke:#4dd9ff;stroke-linecap:butt;fill:none;stroke-linejoin:round;stroke-miterlimit:10"/><polygon points="633.99 145.51 645.4 145.51 645.4 134.1 633.99 134.1" style="stroke-width:1.2;stroke:none;fill:#4dd9ff;stroke-linecap:round;stroke-linejoin:round;stroke-miterlimit:10"/><text x="650.85" y="35.72" style="font-size:16px;font-family:Asap" textLength="46.93" lengthAdjust="spacingAndGlyphs">Britain</text><text x="650.85" y="57.32" style="font-size:16px;font-family:Asap" textLength="41.95" lengthAdjust="spacingAndGlyphs">Japan</text><text x="650.85" y="78.92" style="font-size:16px;font-family:Asap" textLength="31.17" lengthAdjust="spacingAndGlyphs">Italy</text><text x="650.85" y="100.52" style="font-size:16px;font-family:Asap" textLength="40.82" lengthAdjust="spacingAndGlyphs">China</text><text x="650.85" y="122.12" style="font-size:16px;font-family:Asap" textLength="35.44" lengthAdjust="spacingAndGlyphs">India</text><text x="650.85" y="143.72" style="font-size:16px;font-family:Asap" textLength="51.92" lengthAdjust="spacingAndGlyphs">Nigeria</text></svg>