<svg version="1.1" xmlns="http://www.w3.org/2000/svg" x="0" y="0" viewBox="0 0 311.81 144.79" style="enable-background:new 0 0 311.81 144.79" xml:space="preserve"><polyline style="fill:#fee7dc" points="244.68 2.55 236.63 2.55 236.63 117.21 244.68 117.21"/><polygon style="fill:#fee7dc" points="85.5 56 85.5 2.55 236.63 2.55 236.63 117.21 206.47 117.21"/><path style="fill:none;stroke:#27aae1;stroke-width:.5;stroke-miterlimit:10" d="M186.96 107.34s-3.58 3.15-3.58 9.87"/><polyline style="fill:none;stroke:#939598;stroke-width:.5;stroke-linecap:square;stroke-linejoin:round;stroke-miterlimit:10;stroke-dasharray:1.4173" points="146.14 117.21 146.14 86.61 85.5 87.08"/><line style="fill:none;stroke:#ec2426;stroke-width:.5;stroke-linecap:square;stroke-linejoin:round;stroke-dasharray:1.417" x1="85.5" y1="56" x2="206.47" y2="117.21"/><circle cx="102.21" cy="26.93" r="1.13"/><circle cx="236.76" cy="102.73" r="1.13"/><circle cx="146.01" cy="86.93" r="1.13"/><g><text transform="translate(168.692 95.328)" style="font-family:'Asap-Regular';font-size:6px">Cost = £80</text><text transform="translate(239.196 99.996)" style="font-family:'Asap-Regular';font-size:6px">E</text><text transform="translate(148.225 83.515)" style="font-family:'Asap-Regular';font-size:6px">B</text><text transform="translate(104.639 24.199)" style="font-family:'Asap-Regular';font-size:6px">A</text><text transform="translate(148.257 42.265)" style="fill:#ed2124;font-family:'Asap-Regular';font-size:6px">Cost above £80</text><text transform="translate(208.488 112.755)" style="fill:#f15c5b;font-family:'Asap-Regular';font-size:6px">H</text><text transform="translate(88.53 54.198)" style="fill:#f15c5b;font-family:'Asap-Regular';font-size:6px">J</text></g><g><path style="fill:none;stroke:#6d6e71;stroke-width:.5;stroke-miterlimit:10" d="M244.68 117.21H85.5V2.55"/><line style="fill:none;stroke:#6d6e71;stroke-width:.5;stroke-miterlimit:10" x1="85.25" y1="86.17" x2="83.12" y2="86.17"/><line style="fill:none;stroke:#6d6e71;stroke-width:.5;stroke-miterlimit:10" x1="85.25" y1="71.08" x2="83.12" y2="71.08"/><line style="fill:none;stroke:#6d6e71;stroke-width:.5;stroke-miterlimit:10" x1="85.25" y1="56" x2="83.12" y2="56"/><line style="fill:none;stroke:#6d6e71;stroke-width:.5;stroke-miterlimit:10" x1="85.25" y1="40.92" x2="83.12" y2="40.92"/><line style="fill:none;stroke:#6d6e71;stroke-width:.5;stroke-miterlimit:10" x1="85.25" y1="25.84" x2="83.12" y2="25.84"/><line style="fill:none;stroke:#6d6e71;stroke-width:.5;stroke-miterlimit:10" x1="85.25" y1="10.76" x2="83.12" y2="10.76"/><line style="fill:none;stroke:#6d6e71;stroke-width:.5;stroke-miterlimit:10" x1="85.25" y1="101.25" x2="83.12" y2="101.25"/><line style="fill:none;stroke:#6d6e71;stroke-width:.5;stroke-miterlimit:10" x1="191.39" y1="117.48" x2="191.39" y2="119.61"/><line style="fill:none;stroke:#6d6e71;stroke-width:.5;stroke-miterlimit:10" x1="176.31" y1="117.48" x2="176.31" y2="119.61"/><line style="fill:none;stroke:#6d6e71;stroke-width:.5;stroke-miterlimit:10" x1="161.22" y1="117.48" x2="161.22" y2="119.61"/><line style="fill:none;stroke:#6d6e71;stroke-width:.5;stroke-miterlimit:10" x1="146.14" y1="117.48" x2="146.14" y2="119.61"/><line style="fill:none;stroke:#6d6e71;stroke-width:.5;stroke-miterlimit:10" x1="131.06" y1="117.48" x2="131.06" y2="119.61"/><line style="fill:none;stroke:#6d6e71;stroke-width:.5;stroke-miterlimit:10" x1="115.98" y1="117.48" x2="115.98" y2="119.61"/><line style="fill:none;stroke:#6d6e71;stroke-width:.5;stroke-miterlimit:10" x1="100.9" y1="117.48" x2="100.9" y2="119.61"/><line style="fill:none;stroke:#6d6e71;stroke-width:.5;stroke-miterlimit:10" x1="236.63" y1="117.48" x2="236.63" y2="119.61"/><line style="fill:none;stroke:#6d6e71;stroke-width:.5;stroke-miterlimit:10" x1="221.55" y1="117.48" x2="221.55" y2="119.61"/><text transform="translate(73.337 103.992)" style="font-family:'Asap-Regular';font-size:7px">1</text><text transform="translate(98.764 129.727)" style="font-family:'Asap-Regular';font-size:7px">1</text><text transform="translate(114.097 129.727)" style="font-family:'Asap-Regular';font-size:7px">2</text><text transform="translate(129.43 129.727)" style="font-family:'Asap-Regular';font-size:7px">3</text><text transform="translate(144.766 129.727)" style="font-family:'Asap-Regular';font-size:7px">4</text><text transform="translate(160.099 129.727)" style="font-family:'Asap-Regular';font-size:7px">5</text><text transform="translate(175.433 129.727)" style="font-family:'Asap-Regular';font-size:7px">6</text><text transform="translate(190.767 129.727)" style="font-family:'Asap-Regular';font-size:7px">7</text><text transform="translate(206.1 129.727)" style="font-family:'Asap-Regular';font-size:7px">8</text><text transform="translate(221.435 129.727)" style="font-family:'Asap-Regular';font-size:7px">9</text><text transform="translate(234.64 129.727)" style="font-family:'Asap-Regular';font-size:7px">10</text><text transform="translate(73.337 88.895)" style="font-family:'Asap-Regular';font-size:7px">2</text><text transform="translate(73.337 73.797)" style="font-family:'Asap-Regular';font-size:7px">3</text><text transform="translate(73.337 58.7)" style="font-family:'Asap-Regular';font-size:7px">4</text><text transform="translate(73.337 43.602)" style="font-family:'Asap-Regular';font-size:7px">5</text><text transform="translate(73.337 28.505)" style="font-family:'Asap-Regular';font-size:7px">6</text><text transform="translate(73.337 13.408)" style="font-family:'Asap-Regular';font-size:7px">7</text><text transform="rotate(-90 77.611 15.183)" style="font-family:'Asap-Medium';font-size:8px">Amount of coal (tons)</text><text transform="translate(133.746 141.595)" style="font-family:'Asap-Medium';font-size:8px">Number of workers</text><line style="fill:none;stroke:#6d6e71;stroke-width:.5;stroke-miterlimit:10" x1="206.55" y1="117.48" x2="206.55" y2="119.61"/><rect x="182.04" y="6.66" style="fill:none;stroke:#ec2426;stroke-width:.5;stroke-linecap:square" width="49.02" height="13.53"/><text transform="translate(185.167 15.031)"><tspan x="0" y="0" style="fill:#020303;font-family:'Asap-Italic';font-size:6px">w</tspan><tspan x="4.48" y="0" style="fill:#020303;font-family:'Asap-Regular';font-size:6px"> = £10, </tspan><tspan x="22.95" y="0" style="fill:#020303;font-family:'Asap-Italic';font-size:6px">p</tspan><tspan x="26.39" y="0" style="fill:#020303;font-family:'Asap-Regular';font-size:6px"> = £20</tspan></text></g></svg>