<svg xmlns="http://www.w3.org/2000/svg" viewBox="0 0 809 560"><rect width="100%" height="100%" style="stroke:none;fill:#fff;stroke-linecap:round;stroke-linejoin:round;stroke-miterlimit:10"/><rect x="0" y="0" width="809" height="560" style="stroke-width:1.07;stroke:#fff;fill:#fff;stroke-linecap:round;stroke-linejoin:round;stroke-miterlimit:10"/><defs><clipPath id="prefix__a"><rect x="5.48" y="5.48" width="798.04" height="274.52" style="fill:none;stroke:#000;stroke-linecap:round;stroke-linejoin:round;stroke-miterlimit:10"/></clipPath></defs><rect x="5.48" y="5.48" width="798.04" height="274.52" style="stroke-width:1.07;stroke:#fff;fill:#fff;stroke-linecap:round;stroke-linejoin:round;stroke-miterlimit:10" clip-path="url(#prefix__a)"/><defs><clipPath id="prefix__b"><rect x="0" y="0" width="809" height="560" style="fill:none;stroke:#000;stroke-linecap:round;stroke-linejoin:round;stroke-miterlimit:10"/></clipPath></defs><rect x="144.69" y="19.65" width="644.66" height="179.45" style="stroke-width:1.07;stroke:none;fill:#fff;stroke-linecap:round;stroke-linejoin:round;stroke-miterlimit:10" clip-path="url(#prefix__b)"/><polyline points="144.69 199.1 789.35 199.1" style="stroke-width:1.07;stroke:#c6c4c4;stroke-linecap:butt;fill:none;stroke-linejoin:round;stroke-miterlimit:10" clip-path="url(#prefix__b)"/><polyline points="144.69 154.24 789.35 154.24" style="stroke-width:1.07;stroke:#c6c4c4;stroke-linecap:butt;fill:none;stroke-linejoin:round;stroke-miterlimit:10" clip-path="url(#prefix__b)"/><polyline points="144.69 109.38 789.35 109.38" style="stroke-width:1.07;stroke:#c6c4c4;stroke-linecap:butt;fill:none;stroke-linejoin:round;stroke-miterlimit:10" clip-path="url(#prefix__b)"/><polyline points="144.69 64.51 789.35 64.51" style="stroke-width:1.07;stroke:#c6c4c4;stroke-linecap:butt;fill:none;stroke-linejoin:round;stroke-miterlimit:10" clip-path="url(#prefix__b)"/><polyline points="144.69 19.65 789.35 19.65" style="stroke-width:1.07;stroke:#c6c4c4;stroke-linecap:butt;fill:none;stroke-linejoin:round;stroke-miterlimit:10" clip-path="url(#prefix__b)"/><polyline points="151.01 172.63 154.17 172.54 157.33 172.45 160.49 172.36 163.65 172.27 166.81 172.18 169.97 172 173.13 171.92 176.29 171.74 179.45 171.56 182.61 171.38 185.77 171.2 188.93 171.02 192.09 170.84 195.25 170.66 198.41 170.48 201.57 170.3 204.73 170.12 207.89 169.94 211.05 169.76 214.21 169.58 217.37 169.49 220.53 169.31 223.69 169.22 226.85 169.04 230.01 168.95 233.17 168.86 236.33 168.77 239.49 168.68 242.65 168.6 245.81 168.6 248.97 168.51 252.13 168.51 255.29 168.51 258.45 168.6 261.61 168.6 264.77 168.68 267.93 168.77 271.09 168.95 274.25 169.13 277.41 169.31 280.57 169.49 283.73 169.67 286.89 169.94 290.05 170.12 293.21 170.21 296.37 170.39 299.53 170.48 302.69 170.48 305.85 170.48 309.01 170.39 312.17 170.3 315.33 170.21 318.49 170.12 321.65 169.94 324.81 169.85 327.97 169.67 331.13 169.58 334.29 169.49 337.45 169.4 340.61 169.31 343.77 169.22 346.93 169.22 350.09 169.31 353.25 169.4 356.41 169.58 359.57 169.76 362.73 170.03 365.89 170.3 369.05 170.57 372.21 170.84 375.37 171.11 378.53 171.29 381.7 171.56 384.86 171.74 388.02 171.83 391.18 171.92 394.34 171.92 397.5 171.92 400.66 171.83 403.82 171.74 406.98 171.65 410.14 171.56 413.3 171.47 416.46 171.38 419.62 171.38 422.78 171.38 425.94 171.38 429.1 171.47 432.26 171.56 435.42 171.65 438.58 171.65 441.74 171.65 444.9 171.47 448.06 171.29 451.22 171.02 454.38 170.75 457.54 170.48 460.7 170.21 463.86 169.94 467.02 169.76 470.18 169.58 473.34 169.4 476.5 169.31 479.66 169.31 482.82 169.31 485.98 169.4 489.14 169.49 492.3 169.67 495.46 169.85 498.62 170.21 501.78 170.57 504.94 171.11 508.1 171.74 511.26 172.45 514.42 173.26 517.58 173.98 520.74 174.79 523.9 175.41 527.06 175.95 530.22 176.22 533.38 176.4 536.54 176.4 539.7 176.31 542.86 176.13 546.02 175.86 549.18 175.68 552.34 175.5 555.5 175.41 558.66 175.32 561.82 175.32 564.98 175.32 568.14 175.41 571.3 175.41 574.46 175.41 577.62 175.41 580.78 175.32 583.94 175.23 587.1 175.15 590.26 175.06 593.42 174.97 596.58 174.88 599.74 174.88 602.9 174.88 606.06 174.88 609.22 174.97 612.38 174.97 615.54 174.97 618.7 174.88 621.86 174.7 625.02 174.34 628.18 173.98 631.34 173.44 634.5 172.81 637.66 172.09 640.82 171.47 643.98 170.75 647.14 170.12 650.3 169.58 653.46 169.13 656.62 168.77 659.78 168.6 662.94 168.42 666.1 168.33 669.26 168.24 672.42 168.15 675.58 168.06 678.74 167.88 681.9 167.52 685.06 167.07 688.22 166.53 691.38 165.72 694.54 164.83 697.7 163.75 700.86 162.49 704.02 161.15 707.18 159.89 710.34 158.55 713.51 157.2 716.67 155.85 719.83 154.33 722.99 152.89 726.15 151.37 729.31 149.84 732.47 148.41 735.63 147.06 738.79 145.89 741.95 144.82 745.11 143.47 748.27 141.59 750.79 139.91 751.43 139.07 752.06 138.41 752.69 137.69 753.32 137.2 753.95 136.64 754.59 136.26 755.22 135.06 755.85 134.36 756.48 133.57 757.11 132.15 757.75 131.2 758.38 130.62 759.01 129.61 759.64 127.61 760.27 127.16 760.91 126.33 761.54 125.49 762.17 123.89 762.8 122.48 763.43 121.18 764.07 119.33 764.7 118.26 765.33 117.58 765.96 116.08 766.59 114.7 767.23 113.38 767.86 112.1 768.49 110.56 769.12 108.34 769.75 106.88 770.39 105.74 771.02 104.54 771.65 103.9 772.28 103.25 772.91 101.9 773.55 100.24 774.18 98.67 774.81 97.67 775.44 95.29 776.07 93.41 776.71 92.36 777.34 90.92 777.97 89.11 778.6 86.82 779.24 85.2 779.87 83.38 780.5 81.45 781.13 79.86 781.76 77.96 782.4 76.63 783.03 74.6 783.66 72.92 784.29 71.11 784.92 68.65 785.56 66.9 786.19 64.83 786.82 61.74 787.45 59.83 788.08 57.68 788.72 55.48 789.35 53.34" style="stroke-width:1.2;stroke:#009147;stroke-linecap:butt;fill:none;stroke-linejoin:round;stroke-miterlimit:10" clip-path="url(#prefix__b)"/><polyline points="144.69 199.1 144.69 19.65" style="stroke-width:1.07;stroke:#464646;stroke-linecap:butt;fill:none;stroke-linejoin:round;stroke-miterlimit:10" clip-path="url(#prefix__b)"/><g clip-path="url(#prefix__b)"><text x="98.75" y="203.51" style="font-size:18px;font-family:Asap" textLength="28.89" lengthAdjust="spacingAndGlyphs">250</text></g><g clip-path="url(#prefix__b)"><text x="98.75" y="158.65" style="font-size:18px;font-family:Asap" textLength="28.89" lengthAdjust="spacingAndGlyphs">300</text></g><g clip-path="url(#prefix__b)"><text x="98.75" y="113.79" style="font-size:18px;font-family:Asap" textLength="28.89" lengthAdjust="spacingAndGlyphs">350</text></g><g clip-path="url(#prefix__b)"><text x="98.75" y="68.92" style="font-size:18px;font-family:Asap" textLength="28.89" lengthAdjust="spacingAndGlyphs">400</text></g><g clip-path="url(#prefix__b)"><text x="98.75" y="24.06" style="font-size:18px;font-family:Asap" textLength="28.89" lengthAdjust="spacingAndGlyphs">450</text></g><polyline points="137.6 199.1 144.69 199.1" style="stroke-width:1.07;stroke:#464646;stroke-linecap:butt;fill:none;stroke-linejoin:round;stroke-miterlimit:10" clip-path="url(#prefix__b)"/><polyline points="137.6 154.24 144.69 154.24" style="stroke-width:1.07;stroke:#464646;stroke-linecap:butt;fill:none;stroke-linejoin:round;stroke-miterlimit:10" clip-path="url(#prefix__b)"/><polyline points="137.6 109.38 144.69 109.38" style="stroke-width:1.07;stroke:#464646;stroke-linecap:butt;fill:none;stroke-linejoin:round;stroke-miterlimit:10" clip-path="url(#prefix__b)"/><polyline points="137.6 64.51 144.69 64.51" style="stroke-width:1.07;stroke:#464646;stroke-linecap:butt;fill:none;stroke-linejoin:round;stroke-miterlimit:10" clip-path="url(#prefix__b)"/><polyline points="137.6 19.65 144.69 19.65" style="stroke-width:1.07;stroke:#464646;stroke-linecap:butt;fill:none;stroke-linejoin:round;stroke-miterlimit:10" clip-path="url(#prefix__b)"/><polyline points="144.69 199.1 789.35 199.1" style="stroke-width:1.07;stroke:#464646;stroke-linecap:butt;fill:none;stroke-linejoin:round;stroke-miterlimit:10" clip-path="url(#prefix__b)"/><polyline points="144.69 206.19 144.69 199.1" style="stroke-width:1.07;stroke:#464646;stroke-linecap:butt;fill:none;stroke-linejoin:round;stroke-miterlimit:10" clip-path="url(#prefix__b)"/><polyline points="207.89 206.19 207.89 199.1" style="stroke-width:1.07;stroke:#464646;stroke-linecap:butt;fill:none;stroke-linejoin:round;stroke-miterlimit:10" clip-path="url(#prefix__b)"/><polyline points="271.09 206.19 271.09 199.1" style="stroke-width:1.07;stroke:#464646;stroke-linecap:butt;fill:none;stroke-linejoin:round;stroke-miterlimit:10" clip-path="url(#prefix__b)"/><polyline points="334.29 206.19 334.29 199.1" style="stroke-width:1.07;stroke:#464646;stroke-linecap:butt;fill:none;stroke-linejoin:round;stroke-miterlimit:10" clip-path="url(#prefix__b)"/><polyline points="397.5 206.19 397.5 199.1" style="stroke-width:1.07;stroke:#464646;stroke-linecap:butt;fill:none;stroke-linejoin:round;stroke-miterlimit:10" clip-path="url(#prefix__b)"/><polyline points="460.7 206.19 460.7 199.1" style="stroke-width:1.07;stroke:#464646;stroke-linecap:butt;fill:none;stroke-linejoin:round;stroke-miterlimit:10" clip-path="url(#prefix__b)"/><polyline points="523.9 206.19 523.9 199.1" style="stroke-width:1.07;stroke:#464646;stroke-linecap:butt;fill:none;stroke-linejoin:round;stroke-miterlimit:10" clip-path="url(#prefix__b)"/><polyline points="587.1 206.19 587.1 199.1" style="stroke-width:1.07;stroke:#464646;stroke-linecap:butt;fill:none;stroke-linejoin:round;stroke-miterlimit:10" clip-path="url(#prefix__b)"/><polyline points="650.3 206.19 650.3 199.1" style="stroke-width:1.07;stroke:#464646;stroke-linecap:butt;fill:none;stroke-linejoin:round;stroke-miterlimit:10" clip-path="url(#prefix__b)"/><polyline points="713.51 206.19 713.51 199.1" style="stroke-width:1.07;stroke:#464646;stroke-linecap:butt;fill:none;stroke-linejoin:round;stroke-miterlimit:10" clip-path="url(#prefix__b)"/><polyline points="776.71 206.19 776.71 199.1" style="stroke-width:1.07;stroke:#464646;stroke-linecap:butt;fill:none;stroke-linejoin:round;stroke-miterlimit:10" clip-path="url(#prefix__b)"/><g clip-path="url(#prefix__b)"><text x="125.43" y="228.79" style="font-size:18px;font-family:Asap" textLength="38.52" lengthAdjust="spacingAndGlyphs">1000</text></g><g clip-path="url(#prefix__b)"><text x="188.63" y="228.79" style="font-size:18px;font-family:Asap" textLength="38.52" lengthAdjust="spacingAndGlyphs">1100</text></g><g clip-path="url(#prefix__b)"><text x="251.83" y="228.79" style="font-size:18px;font-family:Asap" textLength="38.52" lengthAdjust="spacingAndGlyphs">1200</text></g><g clip-path="url(#prefix__b)"><text x="315.03" y="228.79" style="font-size:18px;font-family:Asap" textLength="38.52" lengthAdjust="spacingAndGlyphs">1300</text></g><g clip-path="url(#prefix__b)"><text x="378.24" y="228.79" style="font-size:18px;font-family:Asap" textLength="38.52" lengthAdjust="spacingAndGlyphs">1400</text></g><g clip-path="url(#prefix__b)"><text x="441.44" y="228.79" style="font-size:18px;font-family:Asap" textLength="38.52" lengthAdjust="spacingAndGlyphs">1500</text></g><g clip-path="url(#prefix__b)"><text x="504.64" y="228.79" style="font-size:18px;font-family:Asap" textLength="38.52" lengthAdjust="spacingAndGlyphs">1600</text></g><g clip-path="url(#prefix__b)"><text x="567.84" y="228.79" style="font-size:18px;font-family:Asap" textLength="38.52" lengthAdjust="spacingAndGlyphs">1700</text></g><g clip-path="url(#prefix__b)"><text x="631.04" y="228.79" style="font-size:18px;font-family:Asap" textLength="38.52" lengthAdjust="spacingAndGlyphs">1800</text></g><g clip-path="url(#prefix__b)"><text x="694.25" y="228.79" style="font-size:18px;font-family:Asap" textLength="38.52" lengthAdjust="spacingAndGlyphs">1900</text></g><g clip-path="url(#prefix__b)"><text x="757.45" y="228.79" style="font-size:18px;font-family:Asap" textLength="38.52" lengthAdjust="spacingAndGlyphs">2000</text></g><g clip-path="url(#prefix__b)"><text x="446.93" y="261.59" style="font-size:20px;font-family:Asap Medium" textLength="40.18" lengthAdjust="spacingAndGlyphs">Year</text></g><g clip-path="url(#prefix__b)"><text transform="rotate(-90 109.515 75.825)" style="font-size:20px;font-family:Asap Medium" textLength="111.56" lengthAdjust="spacingAndGlyphs">Atmospheric</text></g><g clip-path="url(#prefix__b)"><text transform="rotate(-90 51.335 17.645)" style="font-size:20px;font-family:Asap Medium" textLength="27" lengthAdjust="spacingAndGlyphs">CO</text></g><g clip-path="url(#prefix__b)"><text transform="rotate(-90 40.645 1.335)" style="font-size:16px;font-family:Asap Medium" textLength="8.56" lengthAdjust="spacingAndGlyphs">2</text></g><g clip-path="url(#prefix__b)"><text transform="rotate(-90 122.545 65.805)" style="font-size:20px;font-family:Asap Medium" textLength="50.8" lengthAdjust="spacingAndGlyphs">(parts</text></g><g clip-path="url(#prefix__b)"><text transform="rotate(-90 94.745 38.005)" style="font-size:20px;font-family:Asap Medium" textLength="29.56" lengthAdjust="spacingAndGlyphs">per</text></g><g clip-path="url(#prefix__b)"><text transform="rotate(-90 77.565 20.825)" style="font-size:20px;font-family:Asap Medium" textLength="67.98" lengthAdjust="spacingAndGlyphs">million)</text></g><defs><clipPath id="prefix__c"><rect x="5.48" y="280" width="798.04" height="274.52" style="fill:none;stroke:#000;stroke-linecap:round;stroke-linejoin:round;stroke-miterlimit:10"/></clipPath></defs><rect x="5.48" y="280" width="798.04" height="274.52" style="stroke-width:1.07;stroke:#fff;fill:#fff;stroke-linecap:round;stroke-linejoin:round;stroke-miterlimit:10" clip-path="url(#prefix__c)"/><rect x="144.69" y="294.17" width="644.66" height="179.45" style="stroke-width:1.07;stroke:none;fill:#fff;stroke-linecap:round;stroke-linejoin:round;stroke-miterlimit:10" clip-path="url(#prefix__b)"/><polyline points="144.69 473.62 789.35 473.62" style="stroke-width:1.07;stroke:#c6c4c4;stroke-linecap:butt;fill:none;stroke-linejoin:round;stroke-miterlimit:10" clip-path="url(#prefix__b)"/><polyline points="144.69 437.73 789.35 437.73" style="stroke-width:1.07;stroke:#c6c4c4;stroke-linecap:butt;fill:none;stroke-linejoin:round;stroke-miterlimit:10" clip-path="url(#prefix__b)"/><polyline points="144.69 401.84 789.35 401.84" style="stroke-width:1.07;stroke:#c6c4c4;stroke-linecap:butt;fill:none;stroke-linejoin:round;stroke-miterlimit:10" clip-path="url(#prefix__b)"/><polyline points="144.69 365.95 789.35 365.95" style="stroke-width:1.07;stroke:#c6c4c4;stroke-linecap:butt;fill:none;stroke-linejoin:round;stroke-miterlimit:10" clip-path="url(#prefix__b)"/><polyline points="144.69 330.06 789.35 330.06" style="stroke-width:1.07;stroke:#c6c4c4;stroke-linecap:butt;fill:none;stroke-linejoin:round;stroke-miterlimit:10" clip-path="url(#prefix__b)"/><polyline points="144.69 294.17 789.35 294.17" style="stroke-width:1.07;stroke:#c6c4c4;stroke-linecap:butt;fill:none;stroke-linejoin:round;stroke-miterlimit:10" clip-path="url(#prefix__b)"/><polyline points="619.33 473.57 619.97 473.57 620.6 473.57 621.23 473.57 621.86 473.57 622.49 473.57 623.13 473.57 623.76 473.57 624.39 473.57 625.02 473.57 625.65 473.57 626.29 473.57 626.92 473.57 627.55 473.57 628.18 473.57 628.81 473.57 629.45 473.57 630.08 473.57 630.71 473.57 631.34 473.57 631.97 473.56 632.61 473.56 633.24 473.56 633.87 473.56 634.5 473.56 635.13 473.56 635.77 473.56 636.4 473.56 637.03 473.56 637.66 473.56 638.29 473.54 638.93 473.54 639.56 473.54 640.19 473.54 640.82 473.54 641.45 473.54 642.09 473.54 642.72 473.54 643.35 473.54 643.98 473.54 644.61 473.52 645.25 473.52 645.88 473.52 646.51 473.52 647.14 473.52 647.78 473.52 648.41 473.51 649.04 473.51 649.67 473.51 650.3 473.49 650.94 473.49 651.57 473.46 652.2 473.47 652.83 473.47 653.46 473.47 654.1 473.46 654.73 473.46 655.36 473.46 655.99 473.46 656.62 473.46 657.26 473.44 657.89 473.44 658.52 473.44 659.15 473.44 659.78 473.42 660.42 473.41 661.05 473.39 661.68 473.39 662.31 473.39 662.94 473.39 663.58 473.39 664.21 473.38 664.84 473.36 665.47 473.36 666.1 473.34 666.74 473.34 667.37 473.33 668 473.33 668.63 473.33 669.26 473.23 669.9 473.24 670.53 473.24 671.16 473.23 671.79 473.23 672.42 473.21 673.06 473.14 673.69 473.14 674.32 473.13 674.95 473.11 675.58 473.08 676.22 473.06 676.85 473.03 677.48 473.01 678.11 472.98 678.74 472.91 679.38 472.91 680.01 472.86 680.64 472.85 681.27 472.8 681.9 472.73 682.54 472.73 683.17 472.68 683.8 472.65 684.43 472.49 685.06 472.45 685.7 472.37 686.33 472.35 686.96 472.34 687.59 472.26 688.22 472.12 688.86 472.06 689.49 472.03 690.12 471.91 690.75 471.78 691.38 471.66 692.02 471.61 692.65 471.48 693.28 471.4 693.91 471.28 694.54 471.2 695.18 471.05 695.81 470.77 696.44 470.59 697.07 470.76 697.7 470.53 698.34 470.48 698.97 470.43 699.6 470.4 700.23 470.16 700.86 469.74 701.5 469.62 702.13 469.41 702.76 469.14 703.39 469.09 704.02 469.06 704.66 469 705.29 468.77 705.92 468.24 706.55 468.24 707.18 467.76 707.82 467.5 708.45 467.46 709.08 467.53 709.71 467.32 710.34 466.94 710.98 466.72 711.61 466.38 712.24 465.97 712.87 465.27 713.51 464.83 714.14 464.53 714.77 464.3 715.4 463.46 716.03 463.35 716.67 462.71 717.3 461.98 717.93 460.71 718.56 461.27 719.19 460.7 719.83 460.14 720.46 459.86 721.09 459.15 721.72 458.1 722.35 459.63 722.99 459.82 723.62 458.79 724.25 457.9 724.88 458.21 725.51 460.35 726.15 458.28 726.78 460.4 727.41 459.71 728.04 457.65 728.67 457.77 729.31 457.57 729.94 457.44 730.57 456.14 731.2 456.09 731.83 454.77 732.47 456.29 733.1 458.15 733.73 459.68 734.36 458.92 734.99 457.6 735.63 456.71 736.26 455.02 736.89 453.72 737.52 454.82 738.15 454 738.79 452.23 739.42 451.66 740.05 451.53 740.68 450.72 741.31 450.85 741.95 454.52 742.58 453.24 743.21 450.7 743.84 449.44 744.47 450.26 745.11 446.79 745.74 444.53 746.37 444.07 747 443.31 747.63 442.92 748.27 440 748.9 437.78 749.53 436.25 750.16 435.26 750.79 433.83 751.43 431.64 752.06 431.54 752.69 430.04 753.32 427.57 753.95 425.18 754.59 422.93 755.22 420.57 755.85 418.88 756.48 415.88 757.11 412.05 757.75 406.94 758.38 404.24 759.01 401.01 759.64 397.16 760.27 397.49 760.91 397.59 761.54 393.56 762.17 391.37 762.8 388.34 763.43 386.06 764.07 386.49 764.7 388.85 765.33 389.49 765.96 388.68 766.59 386.21 767.23 383.1 767.86 381.82 768.49 378.84 769.12 375.21 769.75 373.73 770.39 371.54 771.02 369.42 771.65 372.66 772.28 371.54 772.91 370.82 773.55 368.6 774.18 365.34 774.81 364.71 775.44 365.11 776.07 363.72 776.71 360.59 777.34 359.64 777.97 357.15 778.6 351.54 779.24 345.81 779.87 341.51 780.5 337.13 781.13 333.05 781.76 329.85 782.4 331.93 783.03 324.65 783.66 319.61 784.29 317.28 784.92 316.53 785.56 315.33 786.19 315.27 786.82 314.64 787.45 312.7 788.08 309.27" style="stroke-width:1.2;stroke:#f49323;stroke-linecap:butt;fill:none;stroke-linejoin:round;stroke-miterlimit:10" clip-path="url(#prefix__b)"/><polyline points="144.69 473.62 144.69 294.17" style="stroke-width:1.07;stroke:#464646;stroke-linecap:butt;fill:none;stroke-linejoin:round;stroke-miterlimit:10" clip-path="url(#prefix__b)"/><g clip-path="url(#prefix__b)"><text x="118.01" y="478.03" style="font-size:18px;font-family:Asap" textLength="9.63" lengthAdjust="spacingAndGlyphs">0</text></g><g clip-path="url(#prefix__b)"><text x="85.55" y="442.14" style="font-size:18px;font-family:Asap" textLength="42.08" lengthAdjust="spacingAndGlyphs">8,000</text></g><g clip-path="url(#prefix__b)"><text x="75.92" y="406.25" style="font-size:18px;font-family:Asap" textLength="51.71" lengthAdjust="spacingAndGlyphs">16,000</text></g><g clip-path="url(#prefix__b)"><text x="75.92" y="370.36" style="font-size:18px;font-family:Asap" textLength="51.71" lengthAdjust="spacingAndGlyphs">24,000</text></g><g clip-path="url(#prefix__b)"><text x="75.92" y="334.47" style="font-size:18px;font-family:Asap" textLength="51.71" lengthAdjust="spacingAndGlyphs">32,000</text></g><g clip-path="url(#prefix__b)"><text x="75.92" y="298.58" style="font-size:18px;font-family:Asap" textLength="51.71" lengthAdjust="spacingAndGlyphs">40,000</text></g><polyline points="137.6 473.62 144.69 473.62" style="stroke-width:1.07;stroke:#464646;stroke-linecap:butt;fill:none;stroke-linejoin:round;stroke-miterlimit:10" clip-path="url(#prefix__b)"/><polyline points="137.6 437.73 144.69 437.73" style="stroke-width:1.07;stroke:#464646;stroke-linecap:butt;fill:none;stroke-linejoin:round;stroke-miterlimit:10" clip-path="url(#prefix__b)"/><polyline points="137.6 401.84 144.69 401.84" style="stroke-width:1.07;stroke:#464646;stroke-linecap:butt;fill:none;stroke-linejoin:round;stroke-miterlimit:10" clip-path="url(#prefix__b)"/><polyline points="137.6 365.95 144.69 365.95" style="stroke-width:1.07;stroke:#464646;stroke-linecap:butt;fill:none;stroke-linejoin:round;stroke-miterlimit:10" clip-path="url(#prefix__b)"/><polyline points="137.6 330.06 144.69 330.06" style="stroke-width:1.07;stroke:#464646;stroke-linecap:butt;fill:none;stroke-linejoin:round;stroke-miterlimit:10" clip-path="url(#prefix__b)"/><polyline points="137.6 294.17 144.69 294.17" style="stroke-width:1.07;stroke:#464646;stroke-linecap:butt;fill:none;stroke-linejoin:round;stroke-miterlimit:10" clip-path="url(#prefix__b)"/><polyline points="144.69 473.62 789.35 473.62" style="stroke-width:1.07;stroke:#464646;stroke-linecap:butt;fill:none;stroke-linejoin:round;stroke-miterlimit:10" clip-path="url(#prefix__b)"/><polyline points="144.69 480.71 144.69 473.62" style="stroke-width:1.07;stroke:#464646;stroke-linecap:butt;fill:none;stroke-linejoin:round;stroke-miterlimit:10" clip-path="url(#prefix__b)"/><polyline points="207.89 480.71 207.89 473.62" style="stroke-width:1.07;stroke:#464646;stroke-linecap:butt;fill:none;stroke-linejoin:round;stroke-miterlimit:10" clip-path="url(#prefix__b)"/><polyline points="271.09 480.71 271.09 473.62" style="stroke-width:1.07;stroke:#464646;stroke-linecap:butt;fill:none;stroke-linejoin:round;stroke-miterlimit:10" clip-path="url(#prefix__b)"/><polyline points="334.29 480.71 334.29 473.62" style="stroke-width:1.07;stroke:#464646;stroke-linecap:butt;fill:none;stroke-linejoin:round;stroke-miterlimit:10" clip-path="url(#prefix__b)"/><polyline points="397.5 480.71 397.5 473.62" style="stroke-width:1.07;stroke:#464646;stroke-linecap:butt;fill:none;stroke-linejoin:round;stroke-miterlimit:10" clip-path="url(#prefix__b)"/><polyline points="460.7 480.71 460.7 473.62" style="stroke-width:1.07;stroke:#464646;stroke-linecap:butt;fill:none;stroke-linejoin:round;stroke-miterlimit:10" clip-path="url(#prefix__b)"/><polyline points="523.9 480.71 523.9 473.62" style="stroke-width:1.07;stroke:#464646;stroke-linecap:butt;fill:none;stroke-linejoin:round;stroke-miterlimit:10" clip-path="url(#prefix__b)"/><polyline points="587.1 480.71 587.1 473.62" style="stroke-width:1.07;stroke:#464646;stroke-linecap:butt;fill:none;stroke-linejoin:round;stroke-miterlimit:10" clip-path="url(#prefix__b)"/><polyline points="650.3 480.71 650.3 473.62" style="stroke-width:1.07;stroke:#464646;stroke-linecap:butt;fill:none;stroke-linejoin:round;stroke-miterlimit:10" clip-path="url(#prefix__b)"/><polyline points="713.51 480.71 713.51 473.62" style="stroke-width:1.07;stroke:#464646;stroke-linecap:butt;fill:none;stroke-linejoin:round;stroke-miterlimit:10" clip-path="url(#prefix__b)"/><polyline points="776.71 480.71 776.71 473.62" style="stroke-width:1.07;stroke:#464646;stroke-linecap:butt;fill:none;stroke-linejoin:round;stroke-miterlimit:10" clip-path="url(#prefix__b)"/><g clip-path="url(#prefix__b)"><text x="125.43" y="503.31" style="font-size:18px;font-family:Asap" textLength="38.52" lengthAdjust="spacingAndGlyphs">1000</text></g><g clip-path="url(#prefix__b)"><text x="188.63" y="503.31" style="font-size:18px;font-family:Asap" textLength="38.52" lengthAdjust="spacingAndGlyphs">1100</text></g><g clip-path="url(#prefix__b)"><text x="251.83" y="503.31" style="font-size:18px;font-family:Asap" textLength="38.52" lengthAdjust="spacingAndGlyphs">1200</text></g><g clip-path="url(#prefix__b)"><text x="315.03" y="503.31" style="font-size:18px;font-family:Asap" textLength="38.52" lengthAdjust="spacingAndGlyphs">1300</text></g><g clip-path="url(#prefix__b)"><text x="378.24" y="503.31" style="font-size:18px;font-family:Asap" textLength="38.52" lengthAdjust="spacingAndGlyphs">1400</text></g><g clip-path="url(#prefix__b)"><text x="441.44" y="503.31" style="font-size:18px;font-family:Asap" textLength="38.52" lengthAdjust="spacingAndGlyphs">1500</text></g><g clip-path="url(#prefix__b)"><text x="504.64" y="503.31" style="font-size:18px;font-family:Asap" textLength="38.52" lengthAdjust="spacingAndGlyphs">1600</text></g><g clip-path="url(#prefix__b)"><text x="567.84" y="503.31" style="font-size:18px;font-family:Asap" textLength="38.52" lengthAdjust="spacingAndGlyphs">1700</text></g><g clip-path="url(#prefix__b)"><text x="631.04" y="503.31" style="font-size:18px;font-family:Asap" textLength="38.52" lengthAdjust="spacingAndGlyphs">1800</text></g><g clip-path="url(#prefix__b)"><text x="694.25" y="503.31" style="font-size:18px;font-family:Asap" textLength="38.52" lengthAdjust="spacingAndGlyphs">1900</text></g><g clip-path="url(#prefix__b)"><text x="757.45" y="503.31" style="font-size:18px;font-family:Asap" textLength="38.52" lengthAdjust="spacingAndGlyphs">2000</text></g><g clip-path="url(#prefix__b)"><text x="446.93" y="536.11" style="font-size:20px;font-family:Asap Medium" textLength="40.18" lengthAdjust="spacingAndGlyphs">Year</text></g><g clip-path="url(#prefix__b)"><text transform="rotate(-90 256.24 222.55)" style="font-size:20px;font-family:Asap Medium" textLength="58.98" lengthAdjust="spacingAndGlyphs">Global</text></g><g clip-path="url(#prefix__b)"><text transform="rotate(-90 224.35 190.66)" style="font-size:20px;font-family:Asap Medium" textLength="27" lengthAdjust="spacingAndGlyphs">CO</text></g><g clip-path="url(#prefix__b)"><text transform="rotate(-90 213.66 174.35)" style="font-size:16px;font-family:Asap Medium" textLength="8.56" lengthAdjust="spacingAndGlyphs">2</text></g><g clip-path="url(#prefix__b)"><text transform="rotate(-90 204.17 170.48)" style="font-size:20px;font-family:Asap Medium" textLength="85.64" lengthAdjust="spacingAndGlyphs">emissions</text></g><g clip-path="url(#prefix__b)"><text transform="rotate(-90 278.065 221.325)" style="font-size:20px;font-family:Asap Medium" textLength="76.24" lengthAdjust="spacingAndGlyphs">(millions</text></g><g clip-path="url(#prefix__b)"><text transform="rotate(-90 237.545 180.805)" style="font-size:20px;font-family:Asap Medium" textLength="17.88" lengthAdjust="spacingAndGlyphs">of</text></g><g clip-path="url(#prefix__b)"><text transform="rotate(-90 226.205 169.465)" style="font-size:20px;font-family:Asap Medium" textLength="56.9" lengthAdjust="spacingAndGlyphs">metric</text></g><g clip-path="url(#prefix__b)"><text transform="rotate(-90 195.355 138.615)" style="font-size:20px;font-family:Asap Medium" textLength="65.56" lengthAdjust="spacingAndGlyphs">tonnes)</text></g></svg>