<svg version="1.1" xmlns="http://www.w3.org/2000/svg" x="0" y="0" viewBox="0 0 311.81 239.93" style="enable-background:new 0 0 311.81 239.93" xml:space="preserve"><line style="fill:none;stroke:#6d6e71;stroke-width:.5;stroke-linecap:square;stroke-linejoin:round" x1="29.77" y1="11.92" x2="29.77" y2="213.92"/><line style="fill:none;stroke:#6d6e71;stroke-width:.5;stroke-linecap:square;stroke-linejoin:round" x1="29.61" y1="78.96" x2="27.49" y2="78.96"/><text transform="translate(21.435 216.68)" style="font-family:'Asap-Regular';font-size:7px">0</text><text transform="translate(13.38 182.356)" style="font-family:'Asap-Regular';font-size:7px">100</text><text transform="translate(13.38 148.942)" style="font-family:'Asap-Regular';font-size:7px">200</text><text transform="translate(13.38 114.855)" style="font-family:'Asap-Regular';font-size:7px">300</text><text transform="translate(13.38 81.246)" style="font-family:'Asap-Regular';font-size:7px">400</text><text transform="translate(13.38 47.246)" style="font-family:'Asap-Regular';font-size:7px">500</text><text transform="translate(13.38 13.603)" style="font-family:'Asap-Regular';font-size:7px">600</text><text transform="matrix(0 -.9726 1 0 8.1 172.762)" style="font-family:'Asap-Medium';font-size:8px">Consumption spending (€)</text><text transform="translate(27.897 223.864)" style="font-family:'Asap-Regular';font-size:7px">8</text><text transform="translate(44.992 223.856)" style="font-family:'Asap-Regular';font-size:7px">9</text><text transform="translate(59.992 223.864)" style="font-family:'Asap-Regular';font-size:7px">10</text><text transform="translate(77.048 223.836)" style="font-family:'Asap-Regular';font-size:7px">11</text><text transform="translate(94.056 223.863)" style="font-family:'Asap-Regular';font-size:7px">12</text><text transform="translate(111.12 223.864)" style="font-family:'Asap-Regular';font-size:7px">13</text><text transform="translate(128.072 223.835)" style="font-family:'Asap-Regular';font-size:7px">14</text><text transform="translate(145.08 223.835)" style="font-family:'Asap-Regular';font-size:7px">15</text><text transform="translate(162.088 223.835)" style="font-family:'Asap-Regular';font-size:7px">16</text><text transform="translate(179.263 223.836)" style="font-family:'Asap-Regular';font-size:7px">17</text><text transform="translate(195.833 223.864)" style="font-family:'Asap-Regular';font-size:7px">18</text><text transform="translate(213.112 223.856)" style="font-family:'Asap-Regular';font-size:7px">19</text><text transform="translate(230.12 223.864)" style="font-family:'Asap-Regular';font-size:7px">20</text><text transform="translate(247.127 223.864)" style="font-family:'Asap-Regular';font-size:7px">21</text><text transform="translate(264.263 223.864)" style="font-family:'Asap-Regular';font-size:7px">22</text><text transform="translate(281.143 223.864)" style="font-family:'Asap-Regular';font-size:7px">23</text><text transform="translate(297.263 223.864)" style="font-family:'Asap-Regular';font-size:7px">24</text><line style="fill:none;stroke:#6d6e71;stroke-width:.5;stroke-linecap:square" x1="284.89" y1="214.92" x2="284.89" y2="216.95"/><line style="fill:none;stroke:#6d6e71;stroke-width:.5;stroke-linecap:square" x1="267.88" y1="214.82" x2="267.88" y2="216.95"/><line style="fill:none;stroke:#6d6e71;stroke-width:.5;stroke-linecap:square" x1="250.87" y1="214.77" x2="250.87" y2="216.9"/><line style="fill:none;stroke:#6d6e71;stroke-width:.5;stroke-linecap:square" x1="199.85" y1="214.77" x2="199.85" y2="216.9"/><line style="fill:none;stroke:#6d6e71;stroke-width:.5;stroke-linecap:square" x1="182.84" y1="214.77" x2="182.84" y2="216.9"/><line style="fill:none;stroke:#6d6e71;stroke-width:.5;stroke-linecap:square" x1="165.27" y1="214.77" x2="165.27" y2="216.9"/><line style="fill:none;stroke:#6d6e71;stroke-width:.5;stroke-linecap:square" x1="148.82" y1="214.63" x2="148.82" y2="216.75"/><line style="fill:none;stroke:#6d6e71;stroke-width:.5;stroke-linecap:square" x1="131.82" y1="214.63" x2="131.82" y2="216.75"/><line style="fill:none;stroke:#6d6e71;stroke-width:.5;stroke-linecap:square" x1="114.81" y1="214.63" x2="114.81" y2="216.75"/><line style="fill:none;stroke:#6d6e71;stroke-width:.5;stroke-linecap:square" x1="97.8" y1="214.63" x2="97.8" y2="216.75"/><line style="fill:none;stroke:#6d6e71;stroke-width:.5;stroke-linecap:square" x1="80.79" y1="214.63" x2="80.79" y2="216.75"/><line style="fill:none;stroke:#6d6e71;stroke-width:.5;stroke-linecap:square" x1="63.79" y1="214.63" x2="63.79" y2="216.75"/><line style="fill:none;stroke:#6d6e71;stroke-width:.5;stroke-linecap:square" x1="46.78" y1="214.63" x2="46.78" y2="216.75"/><text transform="translate(100.22 234.562)" style="font-family:'Asap-Medium';font-size:8px">Hours of free time per day</text><line style="fill:none;stroke:#6d6e71;stroke-width:.5;stroke-linecap:square;stroke-linejoin:round" x1="29.61" y1="146.46" x2="27.49" y2="146.46"/><line style="fill:none;stroke:#6d6e71;stroke-width:.5;stroke-linecap:square;stroke-linejoin:round" x1="29.61" y1="112.71" x2="27.49" y2="112.71"/><line style="fill:none;stroke:#6d6e71;stroke-width:.5;stroke-linecap:square;stroke-linejoin:round" x1="29.61" y1="180.21" x2="27.49" y2="180.21"/><line style="fill:none;stroke:#6d6e71;stroke-width:.5;stroke-linecap:square;stroke-linejoin:round" x1="29.61" y1="45.21" x2="27.49" y2="45.21"/><line style="fill:none;stroke:#6d6e71;stroke-width:.5;stroke-linecap:square" x1="233.86" y1="214.77" x2="233.86" y2="216.9"/><line style="fill:none;stroke:#6d6e71;stroke-width:.5;stroke-linecap:square" x1="216.86" y1="214.77" x2="216.86" y2="216.9"/><line style="fill:none;stroke:#6d6e71;stroke-width:.5;stroke-linecap:square" x1="29.77" y1="214.47" x2="29.77" y2="216.6"/><line style="fill:none;stroke:#6d6e71;stroke-width:.5;stroke-linecap:square" x1="27.49" y1="11.46" x2="29.61" y2="11.46"/><line style="fill:none;stroke:#6d6e71;stroke-width:.5;stroke-linecap:square" x1="27.49" y1="214.53" x2="29.61" y2="214.53"/><text transform="translate(149.47 166.396)" style="font-family:'Asap-Regular';font-size:7px">C</text><text transform="translate(86.928 106.824)" style="font-family:'Asap-Regular';font-size:7px">D</text><text transform="translate(45.5 81.11)" style="font-family:'Asap-Regular';font-size:7px">B</text><text transform="translate(255.483 208.83)" style="font-family:'Asap-Regular';font-size:7px">A</text><text transform="translate(48.412 7.97)" style="font-family:'Asap-Regular';font-size:7px">IC</text><text transform="matrix(.583 0 0 .583 54.726 10.302)" style="font-family:'Asap-Regular';font-size:7px">1</text><text transform="translate(73.477 7.97)" style="font-family:'Asap-Regular';font-size:7px">IC</text><text transform="matrix(.583 0 0 .583 79.79 10.302)" style="font-family:'Asap-Regular';font-size:7px">2</text><text transform="translate(99.242 7.936)" style="font-family:'Asap-Regular';font-size:7px">IC</text><text transform="matrix(.583 0 0 .583 105.556 10.267)" style="font-family:'Asap-Regular';font-size:7px">3</text><text transform="translate(122.264 7.97)" style="font-family:'Asap-Regular';font-size:7px">IC</text><text transform="matrix(.583 0 0 .583 128.578 10.302)" style="font-family:'Asap-Medium';font-size:7px">4</text><path style="fill:none;stroke:#3c54a4;stroke-width:.5;stroke-miterlimit:10" d="M45.5 10.89c1.32 8.27 3.3 19.98 6.01 34 3.09 15.93 4.63 23.9 7.01 33 5.1 19.45 9.23 35.24 20.04 52 1.28 1.99 10.43 15.97 25.05 28 17.94 14.77 39.44 22.69 102.2 30 25.52 2.97 58.08 5.86 96.19 7"/><path style="fill:none;stroke:#3c54a4;stroke-width:.5;stroke-miterlimit:10" d="M72.67 10.89c.98 5.62 2.52 13.58 4.83 23 3.99 16.3 9.46 38.64 22 62 5.84 10.89 13.1 24.41 27 38 25.61 25.04 56.09 33.01 79 39 10.79 2.82 19.53 4.21 37 7 24.83 3.96 45.55 5.93 60 7"/><path style="fill:none;stroke:#3c54a4;stroke-width:.5;stroke-miterlimit:10" d="M97.5 10.89c2.14 7.76 5.36 18.48 10 31 3.7 9.99 9.75 26.31 18 41 4.8 8.53 22.1 38.5 57 60 17.77 10.95 32.74 15.17 57 22 25.43 7.16 47.32 10.4 63 12"/><path style="fill:none;stroke:#3c54a4;stroke-width:.5;stroke-miterlimit:10" d="M120.5 10.89c2.13 6.16 5.38 14.87 10 25 10.37 22.7 28.45 62.31 68 91 21.16 15.35 41.51 22.53 57 28 18.51 6.53 34.8 10.02 47 12"/><line style="fill:none;stroke:#6d6e71;stroke-width:.5;stroke-linecap:square" x1="301.9" y1="214.77" x2="301.9" y2="216.9"/><line style="fill:none;stroke:#e9292a;stroke-width:.5;stroke-linecap:square" x1="29.77" y1="51.4" x2="302" y2="214.39"/><circle style="fill:#000101" cx="55.64" cy="67.25" r="1.13"/><circle style="fill:#000101" cx="97.21" cy="92.25" r="1.13"/><circle style="fill:#000101" cx="156.86" cy="155.79" r="1.13"/><circle style="fill:#000101" cx="266.07" cy="193.11" r="1.13"/><line style="fill:none;stroke:#6d6e71;stroke-width:.5;stroke-linecap:square" x1="29.77" y1="214.53" x2="301.77" y2="214.53"/></svg>