<svg version="1.1" xmlns="http://www.w3.org/2000/svg" x="0" y="0" viewBox="0 0 311.81 243.78" style="enable-background:new 0 0 311.81 243.78" xml:space="preserve"><text transform="translate(36.53 218.489)" style="fill:#231f20;font-family:'Asap-Regular';font-size:7px">0</text><text transform="translate(27.36 172.668)" style="fill:#231f20;font-family:'Asap-Regular';font-size:7px">100</text><text transform="translate(27.36 124.983)" style="fill:#231f20;font-family:'Asap-Regular';font-size:7px">200</text><text transform="translate(27.36 102.14)" style="fill:#231f20;font-family:'Asap-Regular';font-size:7px">250</text><text transform="translate(27.36 79.298)" style="fill:#231f20;font-family:'Asap-Regular';font-size:7px">300</text><text transform="translate(27.36 56.455)" style="fill:#231f20;font-family:'Asap-Regular';font-size:7px">350</text><text transform="translate(27.36 33.483)" style="fill:#231f20;font-family:'Asap-Regular';font-size:7px">400</text><text transform="translate(27.36 11.1)" style="fill:#231f20;font-family:'Asap-Regular';font-size:7px">450</text><text transform="matrix(0 -.9726 1 0 17.469 166.436)" style="fill:#231f20;font-family:'Asap-Medium';font-size:8px">Consumption spending ($)</text><text transform="translate(115.45 238.763)" style="fill:#231f20;font-family:'Asap-Medium';font-size:8px">Hours of free time per day</text><line style="fill:none;stroke:#6d6e70;stroke-width:.5;stroke-linecap:square" x1="74.25" y1="216.85" x2="74.24" y2="219.13"/><text transform="translate(45.491 227.645)" style="fill:#231f20;font-family:'Asap-Regular';font-size:7px">8</text><text transform="translate(70.491 227.645)" style="fill:#231f20;font-family:'Asap-Regular';font-size:7px">10</text><text transform="translate(98.491 227.645)" style="fill:#231f20;font-family:'Asap-Regular';font-size:7px">12</text><text transform="translate(126.491 227.645)" style="fill:#231f20;font-family:'Asap-Regular';font-size:7px">14</text><text transform="translate(153.491 227.645)" style="fill:#231f20;font-family:'Asap-Regular';font-size:7px">16</text><text transform="translate(179.537 227.645)" style="fill:#231f20;font-family:'Asap-Regular';font-size:7px">18</text><text transform="translate(207.537 227.645)" style="fill:#231f20;font-family:'Asap-Regular';font-size:7px">20</text><text transform="translate(235.537 227.645)" style="fill:#231f20;font-family:'Asap-Regular';font-size:7px">22</text><text transform="translate(261.537 227.645)" style="fill:#231f20;font-family:'Asap-Regular';font-size:7px">24</text><text transform="translate(155.764 85.827)" style="fill:#231f20;font-family:'Asap-Regular';font-size:7px">A</text><text transform="translate(224.833 157.827)" style="fill:#231f20;font-family:'Asap-Regular';font-size:7px">B</text><text transform="translate(81.06 175.106)" style="fill:#231f20;font-family:'Asap-Regular';font-size:6px">Feasible set</text><text transform="translate(224.416 197.52)"><tspan x="0" y="0" style="fill:#231f20;font-family:'Asap-Regular';font-size:6px">Feasible </tspan><tspan x="1.74" y="7.2" style="fill:#231f20;font-family:'Asap-Regular';font-size:6px">frontier</tspan></text><path style="fill:none;stroke:#3a53a4;stroke-width:.5" d="M265.45 218.81c0-.49 0-1.28-.03-2.25-.18-6.11-1.25-17.7-8.42-33.55-12.46-27.58-33-52-33-52-5.48-6.51-25.57-29.8-59-53-9.68-6.72-24.92-17.18-47-27-27.77-12.36-71.52-19.7-71.52-19.7M124.88 51.43l62.24 40.13-62.24-40.13zM219.23 121.89l38.27 55.61-38.27-55.61z"/><circle cx="156.67" cy="72.25" r="2.13"/><circle cx="238.67" cy="151.25" r="2.13"/><polyline style="fill:#6d6e70;stroke:#6d6e70;stroke-width:.5;stroke-miterlimit:10" points="43.43 216.63 83.37 216.63 83.43 216.63"/><line style="fill:none;stroke:#6d6e70;stroke-width:.5;stroke-linecap:square" x1="84.06" y1="216.63" x2="124.06" y2="216.63"/><line style="fill:none;stroke:#6d6e70;stroke-width:.5;stroke-linecap:square" x1="129.86" y1="216.88" x2="129.86" y2="219"/><line style="fill:none;stroke:#6d6e70;stroke-width:.5;stroke-linecap:square" x1="101.92" y1="216.88" x2="101.92" y2="219.13"/><line style="fill:none;stroke:#6d6e70;stroke-width:.5;stroke-linecap:square" x1="142.06" y1="216.63" x2="182.06" y2="216.63"/><line style="fill:none;stroke:#6d6e70;stroke-width:.5;stroke-linecap:square" x1="182.43" y1="216.88" x2="182.43" y2="219.13"/><line style="fill:none;stroke:#6d6e70;stroke-width:.5;stroke-linecap:square" x1="156.5" y1="216.88" x2="156.5" y2="219.16"/><line style="fill:none;stroke:#6d6e70;stroke-width:.5;stroke-linecap:square" x1="182.06" y1="216.63" x2="222.06" y2="216.63"/><line style="fill:none;stroke:#6d6e70;stroke-width:.5;stroke-linecap:square" x1="210.86" y1="216.88" x2="210.86" y2="219"/><line style="fill:none;stroke:#6d6e70;stroke-width:.5;stroke-linecap:square" x1="241.06" y1="216.63" x2="281.06" y2="216.63"/><line style="fill:none;stroke:#6d6e70;stroke-width:.5;stroke-linecap:square" x1="239.56" y1="219.13" x2="239.56" y2="216.88"/><line style="fill:none;stroke:#6d6e70;stroke-width:.5;stroke-linecap:square" x1="265.5" y1="216.88" x2="265.5" y2="219.16"/><line style="fill:none;stroke:#6d6e70;stroke-width:.5;stroke-linecap:square" x1="222.06" y1="216.63" x2="240.56" y2="216.63"/><line style="fill:none;stroke:#6d6e70;stroke-width:.5;stroke-linecap:square" x1="124.06" y1="216.63" x2="142.56" y2="216.63"/><text transform="translate(27.361 149.236)" style="fill:#231f20;font-family:'Asap-Regular';font-size:7px">150</text><line style="fill:none;stroke:#6d6e70;stroke-width:.5;stroke-linecap:square" x1="45.71" y1="31.22" x2="43.43" y2="31.21"/><path style="fill:none;stroke:#6d6e70;stroke-width:.5;stroke-linecap:square" d="M46.04 8.53c.01 4.63.04 9.26.09 13.9"/><line style="fill:none;stroke:#6d6e70;stroke-width:.5;stroke-linecap:square" x1="46.13" y1="22.43" x2="46.13" y2="62.43"/><line style="fill:none;stroke:#6d6e70;stroke-width:.5;stroke-linecap:square" x1="45.55" y1="77.23" x2="43.43" y2="77.23"/><line style="fill:none;stroke:#6d6e70;stroke-width:.5;stroke-linecap:square" x1="45.68" y1="54.29" x2="43.43" y2="54.29"/><line style="fill:none;stroke:#6d6e70;stroke-width:.5;stroke-linecap:square" x1="46.13" y1="80.43" x2="46.13" y2="120.43"/><line style="fill:none;stroke:#6d6e70;stroke-width:.5;stroke-linecap:square" x1="45.68" y1="122.8" x2="43.43" y2="122.8"/><line style="fill:none;stroke:#6d6e70;stroke-width:.5;stroke-linecap:square" x1="45.71" y1="99.78" x2="43.43" y2="99.78"/><line style="fill:none;stroke:#6d6e70;stroke-width:.5;stroke-linecap:square" x1="46.13" y1="120.43" x2="46.13" y2="160.43"/><line style="fill:none;stroke:#6d6e70;stroke-width:.5;stroke-linecap:square" x1="45.55" y1="147.23" x2="43.43" y2="147.23"/><line style="fill:none;stroke:#6d6e70;stroke-width:.5;stroke-linecap:square" x1="46.13" y1="179.43" x2="46.13" y2="219.43"/><line style="fill:none;stroke:#6d6e70;stroke-width:.5;stroke-linecap:square" x1="43.43" y1="169.93" x2="45.68" y2="169.93"/><line style="fill:none;stroke:#6d6e70;stroke-width:.5;stroke-linecap:square" x1="46.13" y1="160.43" x2="46.13" y2="178.93"/><line style="fill:none;stroke:#6d6e70;stroke-width:.5;stroke-linecap:square" x1="46.13" y1="62.43" x2="46.13" y2="80.93"/><line style="fill:none;stroke:#6d6e70;stroke-width:.5;stroke-linecap:square" x1="43.43" y1="193.09" x2="45.68" y2="193.09"/><line style="fill:none;stroke:#6d6e70;stroke-width:.5;stroke-linecap:square" x1="43.43" y1="8.53" x2="45.68" y2="8.53"/><path style="fill:#6d6e70;stroke:#6d6e70;stroke-width:.5;stroke-miterlimit:10" d="M83.95 216.63h-.58.58z"/><g><text transform="translate(27.746 195.51)" style="fill:#231f20;font-family:'Asap-Regular';font-size:7px">50</text></g></svg>