<svg version="1.1" xmlns="http://www.w3.org/2000/svg" x="0" y="0" viewBox="0 0 311.81 177.43" style="enable-background:new 0 0 311.81 177.43" xml:space="preserve"><line style="fill:none;stroke:#ed2124;stroke-width:.5;stroke-miterlimit:10" x1="41.58" y1="34.54" x2="50.59" y2="34.54"/><polygon style="fill:#ed2124" points="48.93 36.58 48.59 36.21 50.4 34.54 48.59 32.86 48.93 32.49 51.13 34.54"/><line style="fill:none;stroke:#ed2124;stroke-width:.5;stroke-miterlimit:10" x1="211" y1="128.36" x2="231.84" y2="128.36"/><polygon style="fill:#ed2124" points="230.18 130.4 229.84 130.04 231.65 128.36 229.84 126.68 230.18 126.31 232.38 128.36"/><line style="fill:none;stroke:#ed2124;stroke-width:.5;stroke-miterlimit:10" x1="288" y1="139" x2="288" y2="146.58"/><polygon style="fill:#ed2124" points="285.96 144.93 286.32 144.59 288 146.39 289.68 144.59 290.04 144.93 288 147.13"/><rect x="2.49" y="5.5" style="fill:none;stroke:#3a53a4;stroke-width:.5;stroke-miterlimit:10" width="39" height="39"/><rect x="92.75" y="84.95" style="fill:none;stroke:#3a53a4;stroke-width:.5;stroke-miterlimit:10" width="118.38" height="26.6"/><rect x="160.78" y="116.86" style="fill:none;stroke:#3a53a4;stroke-width:.5;stroke-miterlimit:10" width="49.86" height="20.63"/><rect x="51.99" y="5.5" style="fill:none;stroke:#ec2426;stroke-width:.5;stroke-miterlimit:10" width="39" height="39"/><rect x="108.6" y="54.29" style="fill:none;stroke:#ec2426;stroke-width:.5;stroke-miterlimit:10" width="39" height="24.17"/><rect x="166.44" y="54.87" style="fill:none;stroke:#ec2426;stroke-width:.5;stroke-miterlimit:10" width="39" height="24.17"/><rect x="166.58" y="5.5" style="fill:none;stroke:#ec2426;stroke-width:.5;stroke-miterlimit:10" width="39" height="39.87"/><rect x="216.76" y="5.5" style="fill:none;stroke:#ec2426;stroke-width:.5;stroke-miterlimit:10" width="39" height="39.46"/><rect x="268.32" y="5.5" style="fill:none;stroke:#ec2426;stroke-width:.5;stroke-miterlimit:10" width="39" height="39.46"/><rect x="101.55" y="5.5" style="fill:none;stroke:#ec2426;stroke-width:.471;stroke-miterlimit:10" width="52.14" height="39.46"/><rect x="237.78" y="117.97" style="fill:none;stroke:#ec2426;stroke-width:.5;stroke-miterlimit:10" width="70.71" height="20.63"/><text transform="translate(16.97 18.082)"><tspan x="0" y="0" style="fill:#3a53a4;font-family:'Asap-Regular';font-size:6px">The</tspan><tspan x="-8.33" y="7.2" style="fill:#3a53a4;font-family:'Asap-Regular';font-size:6px">Industrial </tspan><tspan x="-9.41" y="14.4" style="fill:#3a53a4;font-family:'Asap-Regular';font-size:6px">Revolution</tspan></text><text transform="translate(118.056 92.676)"><tspan x="0" y="0" style="fill:#3a53a4;font-family:'Asap-Regular';font-size:6px">Labour market regulation </tspan><tspan x="-11.07" y="7.2" style="fill:#3a53a4;font-family:'Asap-Regular';font-size:6px">(restrictions on employing women </tspan><tspan x="-3.04" y="14.4" style="fill:#3a53a4;font-family:'Asap-Regular';font-size:6px">and children; working hours)</tspan></text><text transform="translate(164.27 125.205)"><tspan x="0" y="0" style="fill:#3a53a4;font-family:'Asap-Regular';font-size:6px">Extension of the </tspan><tspan x="5.77" y="7.2" style="fill:#3a53a4;font-family:'Asap-Regular';font-size:6px">right to vote</tspan></text><text transform="translate(58.6 15.281)"><tspan x="0" y="0" style="fill:#ed2124;font-family:'Asap-Regular';font-size:6px">More and </tspan><tspan x="-5.29" y="7.2" style="fill:#ed2124;font-family:'Asap-Regular';font-size:6px">better capital </tspan><tspan x="-.47" y="14.4" style="fill:#ed2124;font-family:'Asap-Regular';font-size:6px">goods per </tspan><tspan x="4.07" y="21.6" style="fill:#ed2124;font-family:'Asap-Regular';font-size:6px">worker</tspan></text><text transform="translate(107.052 15.281)"><tspan x="0" y="0" style="fill:#ed2124;font-family:'Asap-Regular';font-size:6px">Average output </tspan><tspan x="-.62" y="7.2" style="fill:#ed2124;font-family:'Asap-Regular';font-size:6px">per worker rises,</tspan><tspan x="-3.07" y="14.4" style="fill:#ed2124;font-family:'Asap-Regular';font-size:6px">but some workers </tspan><tspan x="3.35" y="21.6" style="fill:#ed2124;font-family:'Asap-Regular';font-size:6px">are displaced</tspan></text><text transform="translate(167.675 27.272)" style="fill:#ed2124;font-family:'Asap-Regular';font-size:6px">Higher profits</text><text transform="translate(219.082 18.681)"><tspan x="0" y="0" style="fill:#ed2124;font-family:'Asap-Regular';font-size:6px">Expansion of </tspan><tspan x="7.59" y="7.2" style="fill:#ed2124;font-family:'Asap-Regular';font-size:6px">factory </tspan><tspan x="3.11" y="14.4" style="fill:#ed2124;font-family:'Asap-Regular';font-size:6px">production</tspan></text><text transform="translate(271.71 21.681)"><tspan x="0" y="0" style="fill:#ed2124;font-family:'Asap-Regular';font-size:6px">Demand for </tspan><tspan x="1.05" y="7.2" style="fill:#ed2124;font-family:'Asap-Regular';font-size:6px">labour rises</tspan></text><text transform="translate(176.227 65.442)"><tspan x="0" y="0" style="fill:#ed2124;font-family:'Asap-Regular';font-size:6px">Wages </tspan><tspan x="-5.34" y="7.2" style="fill:#ed2124;font-family:'Asap-Regular';font-size:6px">remain low</tspan></text><text transform="translate(115.642 65.019)"><tspan x="0" y="0" style="fill:#ed2124;font-family:'Asap-Regular';font-size:6px">Power of </tspan><tspan x="-4.42" y="7.2" style="fill:#ed2124;font-family:'Asap-Regular';font-size:6px">workers falls</tspan></text><text transform="translate(236.634 94.59)"><tspan x="0" y="0" style="fill:#ed2124;font-family:'Asap-Regular';font-size:6px">Labour supply </tspan><tspan x="13.76" y="7.2" style="fill:#ed2124;font-family:'Asap-Regular';font-size:6px">falls</tspan></text><rect x="236.04" y="83.16" style="fill:none;stroke:#ec2426;stroke-width:.5;stroke-miterlimit:10" width="39" height="24.17"/><rect x="268.95" y="150.14" style="fill:none;stroke:#ec2426;stroke-width:.5;stroke-miterlimit:10" width="39" height="24.17"/><text transform="translate(243.37 130.523)" style="fill:#ed2124;font-family:'Asap-Regular';font-size:6px">Power of workers rises</text><text transform="translate(274.214 163.754)" style="fill:#ed2124;font-family:'Asap-Regular';font-size:6px">Wages rise</text><line style="fill:none;stroke:#ed2124;stroke-width:.5;stroke-miterlimit:10" x1="91" y1="34.82" x2="100.01" y2="34.82"/><polygon style="fill:#ed2124" points="98.35 36.87 98.01 36.5 99.82 34.82 98.01 33.14 98.35 32.78 100.55 34.82"/><line style="fill:none;stroke:#ed2124;stroke-width:.5;stroke-miterlimit:10" x1="154" y1="34.82" x2="163.01" y2="34.82"/><polygon style="fill:#ed2124" points="161.35 36.87 161.01 36.5 162.82 34.82 161.01 33.14 161.35 32.78 163.55 34.82"/><line style="fill:none;stroke:#ed2124;stroke-width:.5;stroke-miterlimit:10" x1="206" y1="34.82" x2="214.73" y2="34.82"/><polygon style="fill:#ed2124" points="213.07 36.87 212.73 36.5 214.53 34.82 212.73 33.14 213.07 32.78 215.27 34.82"/><line style="fill:none;stroke:#ed2124;stroke-width:.5;stroke-miterlimit:10" x1="256" y1="34.82" x2="265.73" y2="34.82"/><polygon style="fill:#ed2124" points="264.07 36.87 263.73 36.5 265.53 34.82 263.73 33.14 264.07 32.78 266.27 34.82"/><g><line style="fill:none;stroke:#ed2124;stroke-width:.5;stroke-miterlimit:10" x1="148" y1="72.82" x2="160.3" y2="72.82"/><polygon style="fill:#ed2124" points="158.64 74.87 158.3 74.5 160.11 72.82 158.3 71.14 158.64 70.78 160.84 72.82"/></g><g><line style="fill:none;stroke:#ed2124;stroke-width:.5;stroke-miterlimit:10" x1="211" y1="98.5" x2="231.46" y2="98.5"/><polygon style="fill:#ed2124" points="229.8 100.54 229.46 100.18 231.27 98.5 229.46 96.82 229.8 96.46 232 98.5"/></g><g><line style="fill:none;stroke:#ed2124;stroke-width:.5;stroke-miterlimit:10" x1="288" y1="45" x2="288" y2="113.46"/><polygon style="fill:#ed2124" points="285.96 111.8 286.32 111.46 288 113.27 289.68 111.46 290.04 111.8 288 114"/></g><g><line style="fill:none;stroke:#ed2124;stroke-width:.5;stroke-miterlimit:10" x1="256" y1="107" x2="256" y2="115.58"/><polygon style="fill:#ed2124" points="253.96 113.93 254.32 113.58 256 115.39 257.68 113.58 258.04 113.93 256 116.12"/></g><g><line style="fill:none;stroke:#ed2124;stroke-width:.5;stroke-miterlimit:10" x1="128.14" y1="44.79" x2="128.14" y2="50.46"/><polygon style="fill:#ed2124" points="126.1 48.8 126.46 48.46 128.14 50.27 129.82 48.46 130.19 48.8 128.14 51"/></g><g><line style="fill:none;stroke:#ed2124;stroke-width:.5;stroke-miterlimit:10" x1="185.5" y1="55" x2="185.5" y2="49.54"/><polygon style="fill:#ed2124" points="187.54 51.2 187.18 51.54 185.5 49.73 183.82 51.54 183.46 51.2 185.5 49"/></g></svg>