<svg version="1.1" xmlns="http://www.w3.org/2000/svg" x="0" y="0" viewBox="0 0 311.81 213.61" style="enable-background:new 0 0 311.81 213.61" xml:space="preserve"><text transform="translate(56.72 186.3)" style="font-family:'Asap-Regular';font-size:7.0788px">0</text><text transform="translate(64.72 193.668)" style="font-family:'Asap-Regular';font-size:7.0788px">0</text><text transform="translate(53.94 81.013)" style="font-family:'Asap-Regular';font-size:7.0788px">12</text><text transform="translate(57.552 151.4)" style="font-family:'Asap-Regular';font-size:7.0788px">4</text><text transform="translate(54.224 46.139)" style="font-family:'Asap-Regular';font-size:7.0788px">16</text><text transform="translate(54.507 9.991)" style="font-family:'Asap-Regular';font-size:7.0788px">20</text><text transform="translate(97.48 193.753)" style="font-family:'Asap-Regular';font-size:7.0788px">4</text><text transform="translate(129.92 193.667)" style="font-family:'Asap-Regular';font-size:7.0788px">8</text><text transform="translate(161.421 193.767)" style="font-family:'Asap-Regular';font-size:7.0788px">12</text><text transform="translate(227.63 193.667)" style="font-family:'Asap-Regular';font-size:7.0788px">20</text><path style="fill:none;stroke:#6d6e71;stroke-width:.5;stroke-linecap:square;stroke-linejoin:round" d="M66.74 7.82V184.18"/><line style="fill:none;stroke:#6d6e71;stroke-width:.5;stroke-linecap:square" x1="67.14" y1="184.17" x2="264.7" y2="184.17"/><text transform="translate(259.985 193.667)" style="font-family:'Asap-Regular';font-size:7.0788px">24</text><line style="fill:none;stroke:#6d6e71;stroke-width:.5;stroke-linecap:square" x1="264.3" y1="184.17" x2="264.3" y2="186.3"/><line style="fill:none;stroke:#6d6e71;stroke-width:.5;stroke-linecap:square" x1="231.54" y1="184.17" x2="231.54" y2="186.3"/><line style="fill:none;stroke:#6d6e71;stroke-width:.5;stroke-linecap:square" x1="198.03" y1="184.17" x2="198.03" y2="186.3"/><line style="fill:none;stroke:#6d6e71;stroke-width:.5;stroke-linecap:square" x1="66.74" y1="184.65" x2="66.74" y2="186.77"/><line style="fill:none;stroke:#6d6e71;stroke-width:.5;stroke-linecap:square" x1="99.63" y1="184.17" x2="99.63" y2="186.3"/><line style="fill:none;stroke:#6d6e71;stroke-width:.5;stroke-linecap:square" x1="132.47" y1="184.17" x2="132.47" y2="186.3"/><line style="fill:none;stroke:#6d6e71;stroke-width:.5;stroke-linecap:square" x1="164.95" y1="184.17" x2="164.95" y2="186.3"/><line style="fill:none;stroke:#6d6e71;stroke-width:.5;stroke-linecap:square" x1="66.52" y1="184.17" x2="64.39" y2="184.17"/><line style="fill:none;stroke:#6d6e71;stroke-width:.5;stroke-linecap:square" x1="66.52" y1="113.54" x2="64.39" y2="113.54"/><line style="fill:none;stroke:#6d6e71;stroke-width:.5;stroke-linecap:square" x1="66.52" y1="7.82" x2="64.39" y2="7.82"/><line style="fill:none;stroke:#6d6e71;stroke-width:.5;stroke-linecap:square" x1="66.52" y1="43.59" x2="64.39" y2="43.59"/><text transform="translate(194.228 193.667)" style="font-family:'Asap-Regular';font-size:7.0788px">16</text><text transform="translate(57.68 116.101)" style="font-family:'Asap-Regular';font-size:7.0788px">8</text><line style="fill:none;stroke:#6d6e71;stroke-width:.5;stroke-linecap:square" x1="66.3" y1="78.53" x2="64.17" y2="78.53"/><line style="fill:none;stroke:#6d6e71;stroke-width:.5;stroke-linecap:square" x1="66.52" y1="148.7" x2="64.39" y2="148.7"/><text transform="translate(129.314 208.654)"><tspan x="0" y="0" style="font-family:'Asap-Medium';font-size:8px">Angela’s hours of free time, </tspan><tspan x="97.97" y="0" style="font-family:'Asap-MediumItalic';font-size:8px">t</tspan></text><text transform="rotate(-90 88.466 43.378)"><tspan x="0" y="0" style="font-family:'Asap-Medium';font-size:8px">Bushels of grain, </tspan><tspan x="59.74" y="0" style="font-family:'Asap-MediumItalic';font-size:8px">c</tspan></text><g><path style="fill:none;stroke:#3b54a4;stroke-width:.5;stroke-linecap:square" d="M75.84 7.74a142.344 142.344 0 0015.09 24.2c5.82 7.53 11.06 12.71 15.05 16.63 6.63 6.52 11.84 10.72 20.82 17.96 5.08 4.09 10.9 8.78 19 14.58 10.48 7.49 18.76 12.52 26.03 16.92 11.84 7.16 20.96 12.04 28.63 16.14 14.6 7.79 26.04 13.29 39.04 19.52 10.01 4.8 18.43 8.7 24.47 11.45"/><path style="fill:none;stroke:#f49323;stroke-width:.5" d="M264.32 183.94c-.07-4.09-.67-9.43-2.8-15.25-2.73-7.46-6.73-12.33-10.25-16.61-3.93-4.77-7.36-7.83-11.28-11.28-7.78-6.85-14.44-11.4-17.24-13.27-5.08-3.39-23.23-15.2-56.18-29.96-2.76-1.24-15.42-6.88-32.5-13.43-9.95-3.81-17.45-6.42-28.93-10.4-9.61-3.33-22.54-7.72-38.02-12.7"/><circle cx="199.07" cy="113.4" r="1.13"/></g></svg>