<svg version="1.1" xmlns="http://www.w3.org/2000/svg" x="0" y="0" viewBox="0 0 311.81 170" style="enable-background:new 0 0 311.81 170" xml:space="preserve"><g style="enable-background:new"><path style="fill:none;stroke:#3a53a4;stroke-width:.5;stroke-linejoin:round" d="M38.61 129.78l267.42-75.12"/></g><g style="enable-background:new"><path style="fill:none;stroke:#ed2124;stroke-width:.5;stroke-linejoin:round" d="M38.61 9.59c79.23 44.51 158.47 89.03 237.7 133.54"/></g><text transform="translate(264.338 130.81)" style="fill:#ed2124;font-family:'Asap-Regular';font-size:6px">Demand curve</text><text transform="translate(264.338 47.401)" style="fill:#3a53a4;font-family:'Asap-Regular';font-size:6px">Supply curve</text><text transform="translate(179.671 85.667)" style="font-family:'Asap-Regular';font-size:6px">A</text><circle cx="181.23" cy="89.71" r="1.13"/><circle cx="110.02" cy="109.74" r="1.13"/><circle cx="217.22" cy="109.93" r="1.13"/><circle cx="256.75" cy="68.5" r="1.13"/><circle cx="143.48" cy="68.5" r="1.13"/><line style="fill:none;stroke:#6d6e71;stroke-width:.5;stroke-linecap:square;stroke-linejoin:round" x1="38.81" y1="9.55" x2="36.68" y2="9.55"/><line style="fill:none;stroke:#6d6e71;stroke-width:.5;stroke-linecap:square;stroke-linejoin:round" x1="38.81" y1="42.87" x2="36.68" y2="42.87"/><line style="fill:none;stroke:#6d6e71;stroke-width:.5;stroke-linecap:square;stroke-linejoin:round" x1="38.81" y1="76.19" x2="36.68" y2="76.19"/><line style="fill:none;stroke:#6d6e71;stroke-width:.5;stroke-linecap:square;stroke-linejoin:round" x1="38.81" y1="109.93" x2="36.68" y2="109.93"/><line style="fill:none;stroke:#6d6e71;stroke-width:.5;stroke-linecap:square;stroke-linejoin:round" x1="38.81" y1="143.25" x2="36.68" y2="143.25"/><line style="fill:none;stroke:#6d6e71;stroke-width:.5;stroke-linecap:square;stroke-linejoin:round" x1="38.81" y1="143.25" x2="38.81" y2="9.55"/><path style="fill:none;stroke:#6d6e71;stroke-width:.5;stroke-linecap:square;stroke-linejoin:round" d="M306.23 143.61v2.13m-29.95-2.13v2.13m-29.53-2.13v2.13m-29.94-2.13v2.13m-29.53-2.13v2.13m-29.95-2.13v2.13m-29.52-2.13v2.13m-29.95-2.13v2.13m-29.52-2.13v2.13m-29.53-2.13v2.13m0-2.49h267.41"/><text transform="translate(142.251 167.818)"><tspan x="0" y="0" style="font-family:'Asap-Medium';font-size:8px">Quantity of books, </tspan><tspan x="66.18" y="0" style="font-family:'Asap-MediumItalic';font-size:8px">Q</tspan></text><text transform="translate(36.913 153.587)" style="font-family:'Asap-Regular';font-size:7px">0</text><text transform="translate(66.438 153.587)" style="font-family:'Asap-Regular';font-size:7px">5</text><text transform="translate(94.698 153.587)" style="font-family:'Asap-Regular';font-size:7px">10</text><text transform="translate(124.224 153.587)" style="font-family:'Asap-Regular';font-size:7px">15</text><text transform="translate(153.749 153.587)" style="font-family:'Asap-Regular';font-size:7px">20</text><text transform="translate(185.696 153.587)" style="font-family:'Asap-Regular';font-size:7px">25</text><text transform="translate(213.222 153.587)" style="font-family:'Asap-Regular';font-size:7px">30</text><text transform="translate(243.169 153.587)" style="font-family:'Asap-Regular';font-size:7px">35</text><text transform="translate(272.694 153.587)" style="font-family:'Asap-Regular';font-size:7px">40</text><text transform="translate(302.64 153.587)" style="font-family:'Asap-Regular';font-size:7px">45</text><text transform="rotate(-90 51.079 41.925)"><tspan x="0" y="0" style="font-family:'Asap-Medium';font-size:8px">Price, </tspan><tspan x="21.3" y="0" style="font-family:'Asap-MediumItalic';font-size:8px">P</tspan><tspan x="25.86" y="0" style="font-family:'Asap-Medium';font-size:8px"> ($)</tspan></text><text transform="translate(27.667 145.573)" style="font-family:'Asap-Regular';font-size:7px">0</text><text transform="translate(27.667 112.251)" style="font-family:'Asap-Regular';font-size:7px">5</text><text transform="translate(24.293 78.93)" style="font-family:'Asap-Regular';font-size:7px">10</text><text transform="translate(24.293 45.608)" style="font-family:'Asap-Regular';font-size:7px">15</text><text transform="translate(24.293 12.287)" style="font-family:'Asap-Regular';font-size:7px">20</text><text transform="translate(176.696 153.587)" style="font-family:'Asap-Regular';font-size:7px">Q*</text><text transform="translate(28.363 91.13)" style="font-family:'Asap-Regular';font-size:7px">P*</text></svg>