<svg version="1.1" xmlns="http://www.w3.org/2000/svg" x="0" y="0" viewBox="0 0 311.81 169.01" style="enable-background:new 0 0 311.81 169.01" xml:space="preserve"><line style="fill:none;stroke:#6d6e71;stroke-width:.5;stroke-linecap:square" x1="94.47" y1="7.51" x2="94.47" y2="135.87"/><line style="fill:none;stroke:#6d6e71;stroke-width:.5;stroke-linecap:square" x1="274.25" y1="135.87" x2="94.91" y2="135.87"/><rect x="30.55" y="69.83" style="fill:none" width="59.85" height="15.32"/><text transform="translate(52.238 75.091)"><tspan x="0" y="0" style="font-family:'Asap-Regular';font-size:7px">Net utility in</tspan><tspan x="-19.1" y="8.4" style="font-family:'Asap-Regular';font-size:7px">unemployment, $6</tspan></text><polyline style="fill:none;stroke:#939598;stroke-width:.5;stroke-linecap:square;stroke-linejoin:round;stroke-dasharray:1.417" points="94.46 76.39 96.56 76.39 146.67 76.39 146.67 46.39 274.25 46.39"/><line style="fill:none;stroke:#6d6e71;stroke-width:.5;stroke-linecap:square;stroke-linejoin:round" x1="94.46" y1="46.39" x2="92.33" y2="46.39"/><line style="fill:none;stroke:#6d6e71;stroke-width:.5;stroke-linecap:square;stroke-linejoin:round" x1="94.46" y1="52.39" x2="92.33" y2="52.39"/><line style="fill:none;stroke:#6d6e71;stroke-width:.5;stroke-linecap:square;stroke-linejoin:round" x1="94.46" y1="76.39" x2="92.33" y2="76.39"/><polyline style="fill:none;stroke:#000;stroke-width:.5;stroke-linecap:square;stroke-linejoin:round" points="94.46 36.39 96.56 36.39 274.25 35.9"/><line style="fill:none;stroke:#6d6e71;stroke-width:.5;stroke-linecap:square;stroke-linejoin:round" x1="94.46" y1="16.75" x2="92.33" y2="16.75"/><line style="fill:none;stroke:#6d6e71;stroke-width:.5;stroke-linecap:square;stroke-linejoin:round" x1="94.46" y1="36.39" x2="92.33" y2="36.39"/><rect x="83.12" y="132.91" style="fill:none" width="7.28" height="6.92"/><text transform="translate(84.883 138.17)" style="font-family:'Asap-Regular';font-size:7px">0</text><rect x="7.97" y="42.17" style="fill:none" width="82.42" height="6.92"/><text transform="translate(8.608 47.43)" style="font-family:'Asap-Regular';font-size:7px">Net utility of other jobs, $9</text><rect x="11.04" y="32.42" style="fill:none" width="79.36" height="6.92"/><text transform="translate(13.416 37.687)" style="font-family:'Asap-Regular';font-size:7px">Wage - cost of effort, $10</text><rect x="22.03" y="13.78" style="fill:none" width="68.36" height="6.92"/><text transform="translate(37 19.048)" style="font-family:'Asap-Regular';font-size:7px">Hourly wage, $12</text><line style="fill:none;stroke:#6d6e71;stroke-width:.5;stroke-linecap:square" x1="146.68" y1="136.06" x2="146.68" y2="138.19"/><line style="fill:none;stroke:#6d6e71;stroke-width:.5;stroke-linecap:square" x1="274.25" y1="136.06" x2="274.25" y2="138.19"/><rect x="142.52" y="141.44" style="fill:none" width="9.84" height="6.92"/><text transform="translate(143.696 146.703)" style="font-family:'Asap-Regular';font-size:7px">44</text><rect x="268.64" y="141.36" style="fill:none" width="14.29" height="6.92"/><text transform="translate(270.168 146.625)" style="font-family:'Asap-Regular';font-size:7px">156</text><rect x="155.75" y="157.98" style="fill:none" width="57.63" height="7.92"/><text transform="translate(155.75 164.005)" style="font-family:'Asap-Medium';font-size:8px">Time in weeks</text><rect x="71.68" y="50.92" style="fill:none" width="18.72" height="6.92"/><text transform="translate(74.274 56.183)" style="font-family:'Asap-Regular';font-size:7px">$8.15</text><polyline style="fill:none;stroke:#000;stroke-width:.5;stroke-linecap:square;stroke-linejoin:round" points="94.46 52.39 96.56 52.39 274.25 51.9"/><rect x="161.58" y="54.44" style="fill:none" width="122.88" height="13.13"/><text transform="translate(161.578 58.955)"><tspan x="0" y="0" style="font-family:'Asap-Regular';font-size:6px">Reservation wage (average value of </tspan><tspan x="0" y="7.2" style="font-family:'Asap-Regular';font-size:6px">reservation option)</tspan></text><rect x="177.68" y="28.95" style="fill:none" width="122.88" height="5.93"/><text transform="translate(177.68 33.464)" style="font-family:'Asap-Regular';font-size:6px">Net utility of current employment</text><rect x="156.09" y="8.43" style="fill:none" width="95.15" height="5.95"/><text transform="translate(156.09 12.953)" style="font-family:'Asap-Medium';font-size:6px">Employment rent = $1.85 per hour</text><line style="fill:none;stroke:#0871b9;stroke-width:.5;stroke-linecap:square;stroke-linejoin:round" x1="118.4" y1="37.73" x2="118.4" y2="51.6"/><polygon style="fill:#0871b9" points="116.36 39.38 116.72 39.72 118.4 37.92 120.08 39.72 120.44 39.38 118.4 37.18"/><polygon style="fill:#0871b9" points="116.36 49.94 116.72 49.6 118.4 51.41 120.08 49.6 120.44 49.94 118.4 52.14"/><g><path style="fill:none;stroke:#939598;stroke-width:.5;stroke-linecap:square;stroke-linejoin:round" d="M123.74 42.1c6.41-1.13 9.24-3.61 10.62-5.73 2.18-3.34.72-5.67 3.24-11.92.93-2.31 2.29-5.57 5.4-8.51 3.39-3.21 7.21-4.45 9.36-4.97"/><polygon style="fill:#939598" points="125.76 43.77 126.02 43.34 123.92 42.05 125.36 40.05 124.96 39.76 123.2 42.19"/></g><line style="fill:none;stroke:#6d6e71;stroke-width:.5;stroke-linecap:square;stroke-linejoin:round" x1="94.47" y1="135.87" x2="92.34" y2="135.87"/></svg>