<svg version="1.1" xmlns="http://www.w3.org/2000/svg" x="0" y="0" viewBox="0 0 311.81 204.09" style="enable-background:new 0 0 311.81 204.09" xml:space="preserve"><path style="fill:none;stroke:#6d6e71;stroke-width:.5;stroke-linecap:square;stroke-linejoin:round" d="M15.46 15.28V91.4"/><line style="fill:none;stroke:#6d6e71;stroke-width:.5;stroke-linecap:square" x1="15.46" y1="91.4" x2="152.37" y2="91.4"/><text transform="translate(148.147 96.74)" style="font-family:'Asap-MediumItalic';font-size:6px">x</text><path style="fill:none;stroke:#6d6e71;stroke-width:.5;stroke-linecap:square;stroke-linejoin:round" d="M161.44 15.28V91.4"/><line style="fill:none;stroke:#6d6e71;stroke-width:.5;stroke-linecap:square" x1="161.44" y1="91.4" x2="298.35" y2="91.4"/><path style="fill:none;stroke:#6d6e71;stroke-width:.5;stroke-linecap:square;stroke-linejoin:round" d="M161.44 117.03V193.15"/><line style="fill:none;stroke:#6d6e71;stroke-width:.5;stroke-linecap:square" x1="161.44" y1="193.15" x2="298.35" y2="193.15"/><path style="fill:none;stroke:#6d6e71;stroke-width:.5;stroke-linecap:square;stroke-linejoin:round" d="M15.46 117.03V193.15"/><line style="fill:none;stroke:#6d6e71;stroke-width:.5;stroke-linecap:square" x1="15.46" y1="193.15" x2="152.37" y2="193.15"/><text transform="translate(197.37 116.856)" style="font-family:'Asap-Medium';font-size:8px">Decreasing and convex</text><text transform="translate(194.406 13.596)" style="font-family:'Asap-Medium';font-size:8px">Increasing and convex</text><text transform="translate(48.075 13.596)" style="font-family:'Asap-Medium';font-size:8px">Increasing and concave</text><text transform="translate(44.994 116.856)" style="font-family:'Asap-Medium';font-size:8px">Decreasing and concave</text><text transform="translate(148.069 198.143)" style="font-family:'Asap-MediumItalic';font-size:6px">x</text><text transform="translate(294.849 96.73)" style="font-family:'Asap-MediumItalic';font-size:6px">x</text><text transform="translate(294.77 198.144)" style="font-family:'Asap-MediumItalic';font-size:6px">x</text><text transform="translate(157.108 120.25)" style="font-family:'Asap-MediumItalic';font-size:6px">y</text><text transform="translate(10.997 120.25)" style="font-family:'Asap-MediumItalic';font-size:6px">y</text><text transform="translate(157.33 18.938)" style="font-family:'Asap-MediumItalic';font-size:6px">y</text><text transform="translate(11.219 18.938)" style="font-family:'Asap-MediumItalic';font-size:6px">y</text><g><path style="fill:none;stroke:#3b54a4;stroke-width:.5;stroke-linecap:square;stroke-linejoin:round" d="M141.25 192.9c-2.14-1.98-5.08-4.67-8.63-7.81-6.31-5.59-11.26-9.71-15.11-12.91-4.53-3.76-7.56-6.28-11.88-9.68-4.48-3.52-9.44-7.42-16.28-12.18-7.22-5.02-13.05-8.59-15.84-10.27-3.97-2.39-7.85-4.71-13.35-7.48-6.19-3.12-11.03-5.08-14.82-6.6-6.31-2.54-9.85-3.96-14.96-5.28-3.66-.94-7.51-1.86-12.18-2.2-1.03-.08-1.88-.11-2.48-.13M151.95 24.65c-5.46 1.06-13.14 2.6-22.31 4.59-17.95 3.88-27.93 6.04-40.87 9.8C74.4 43.22 66 46.57 51.44 52.39c-4.72 1.88-11.78 4.79-19.81 10.43-10.95 7.68-13.56 13.35-14.4 15.42-2.11 5.22-2.08 10.09-1.78 13.16M295.06 15.39c-2.9 2.52-6.84 5.91-11.56 9.86-4.65 3.89-9.42 7.87-15.91 12.94-2.98 2.32-8.05 6.23-14.53 10.93-3.34 2.42-8.86 6.41-16.33 11.35-6.25 4.13-10.47 6.92-16.65 10.39a203.08 203.08 0 01-14.53 7.42c-6.73 3.1-12.2 5.18-15.17 6.26-2.86 1.04-7.98 2.83-14.27 4.52-3.71.99-7.45 1.85-12.18 2.2-1.03.08-1.89.11-2.48.13"/><path style="fill:none;stroke:#3c54a4;stroke-width:.5;stroke-linecap:square;stroke-linejoin:round" d="M164.72 116.82c.78 1.7 1.9 3.89 3.49 6.29.33.5 1.43 2.13 3.15 4.19 2.69 3.23 5.07 5.35 7.34 7.34 4.03 3.54 7.39 5.89 8.21 6.47 4.49 3.12 8.66 5.33 16.08 8.74 4.43 2.03 11.06 4.98 22.37 9.44 9.37 3.69 14.22 5.6 21.14 7.86 7.04 2.3 11.29 3.34 20.44 5.77 7.49 1.98 18.17 4.86 31.28 8.56"/><text transform="translate(243.577 159.803)"><tspan x="0" y="0" style="font-family:'Asap-Italic';font-size:6px">f</tspan><tspan x="1.95" y="0" style="font-family:'SourceSansPro-Regular';font-size:6px">′</tspan><tspan x="3.45" y="0" style="font-family:'Asap-Regular';font-size:6px"> &lt; 0, </tspan><tspan x="15.53" y="0" style="font-family:'Asap-Italic';font-size:6px">f</tspan><tspan x="17.48" y="0" style="font-family:'SourceSansPro-Regular';font-size:6px">″</tspan><tspan x="20.04" y="0" style="font-family:'Asap-Regular';font-size:6px">&gt; 0</tspan></text><text transform="translate(91.128 148.634)"><tspan x="0" y="0" style="font-family:'Asap-Italic';font-size:6px">f</tspan><tspan x="1.95" y="0" style="font-family:'SourceSansPro-Regular';font-size:6px">′</tspan><tspan x="3.45" y="0" style="font-family:'Asap-Regular';font-size:6px"> &lt; 0, </tspan><tspan x="15.53" y="0" style="font-family:'Asap-Italic';font-size:6px">f</tspan><tspan x="17.48" y="0" style="font-family:'SourceSansPro-Regular';font-size:6px">″</tspan><tspan x="20.04" y="0" style="font-family:'Asap-Regular';font-size:6px">&lt; 0</tspan></text><text transform="translate(90.768 46.925)"><tspan x="0" y="0" style="font-family:'Asap-Italic';font-size:6px">f</tspan><tspan x="1.95" y="0" style="font-family:'SourceSansPro-Regular';font-size:6px">′</tspan><tspan x="3.45" y="0" style="font-family:'Asap-Regular';font-size:6px"> &gt; 0, </tspan><tspan x="15.53" y="0" style="font-family:'Asap-Italic';font-size:6px">f</tspan><tspan x="17.48" y="0" style="font-family:'SourceSansPro-Regular';font-size:6px">″</tspan><tspan x="20.04" y="0" style="font-family:'Asap-Regular';font-size:6px">&lt; 0</tspan></text><text transform="translate(250.619 56.78)"><tspan x="0" y="0" style="font-family:'Asap-Italic';font-size:6px">f</tspan><tspan x="1.95" y="0" style="font-family:'SourceSansPro-Regular';font-size:6px">′</tspan><tspan x="3.45" y="0" style="font-family:'Asap-Regular';font-size:6px"> &gt; 0, </tspan><tspan x="15.53" y="0" style="font-family:'Asap-Italic';font-size:6px">f</tspan><tspan x="17.48" y="0" style="font-family:'SourceSansPro-Regular';font-size:6px">″</tspan><tspan x="20.04" y="0" style="font-family:'Asap-Regular';font-size:6px">&gt; 0</tspan></text></g></svg>