<svg version="1.1" xmlns="http://www.w3.org/2000/svg" x="0" y="0" viewBox="0 0 354.33 340.16" style="enable-background:new 0 0 354.33 340.16" xml:space="preserve"><path style="fill:none;stroke:#bf2026;stroke-width:.5;stroke-linecap:round;stroke-linejoin:round;stroke-miterlimit:10" d="M225.14 293.94c-.45-.49-1.8-1.98-2.69-2.96a7899.476 7899.476 0 01-5.38-5.92 7899.476 7899.476 0 01-5.38-5.92 7899.476 7899.476 0 01-5.38-5.92 7899.476 7899.476 0 01-5.38-5.92 7899.476 7899.476 0 01-5.38-5.92 7899.476 7899.476 0 01-5.38-5.92 7899.476 7899.476 0 01-5.38-5.92 7899.476 7899.476 0 01-5.38-5.92 7899.476 7899.476 0 01-5.38-5.92 7899.476 7899.476 0 01-5.38-5.92 7899.476 7899.476 0 01-5.38-5.92 7899.476 7899.476 0 01-5.38-5.92 7899.476 7899.476 0 01-5.38-5.92 7899.476 7899.476 0 01-5.38-5.92 7899.476 7899.476 0 01-5.38-5.92 7899.476 7899.476 0 01-5.38-5.92 7899.476 7899.476 0 01-5.38-5.92 7899.476 7899.476 0 01-5.38-5.92 7899.476 7899.476 0 01-5.38-5.92 7899.476 7899.476 0 01-5.38-5.92 7899.476 7899.476 0 01-5.38-5.92 7899.476 7899.476 0 01-5.38-5.92 7899.476 7899.476 0 01-5.38-5.92 7899.476 7899.476 0 01-5.38-5.92 7899.476 7899.476 0 01-5.38-5.92 7899.476 7899.476 0 01-5.38-5.92 7899.476 7899.476 0 01-5.38-5.92l-2.69-2.96"/><path style="fill:none;stroke:#4971b8;stroke-width:.5;stroke-linecap:round;stroke-linejoin:round;stroke-miterlimit:10" d="M237.12 284.01c-.52-.28-2.11-1.11-3.13-1.66-1.03-.55-2.03-1.11-3.02-1.66-.99-.55-1.96-1.11-2.92-1.66-.96-.55-1.9-1.11-2.83-1.66-.93-.55-1.84-1.11-2.75-1.66-.9-.55-1.79-1.11-2.67-1.66-.88-.55-1.74-1.11-2.59-1.66-.85-.55-1.69-1.11-2.52-1.66-.83-.55-1.65-1.11-2.45-1.66-.81-.55-1.6-1.11-2.39-1.66-.79-.55-1.56-1.11-2.33-1.66-.77-.55-1.53-1.11-2.28-1.66-.75-.55-1.49-1.11-2.22-1.66-.73-.55-1.46-1.11-2.17-1.66-.72-.55-1.42-1.11-2.12-1.66-.7-.55-1.39-1.11-2.08-1.66-.68-.55-1.36-1.11-2.03-1.66-.67-.55-1.33-1.11-1.99-1.66-.66-.55-1.3-1.11-1.95-1.66-.64-.55-1.28-1.11-1.91-1.66-.63-.55-1.25-1.11-1.87-1.66-.62-.55-1.23-1.11-1.83-1.66-.6-.55-1.2-1.11-1.8-1.66-.59-.55-1.18-1.11-1.76-1.66-.58-.55-1.16-1.11-1.73-1.66-.57-.55-1.14-1.11-1.7-1.66-.56-.55-1.12-1.11-1.67-1.66-.55-.55-1.09-1.11-1.63-1.66-.54-.55-1.07-1.11-1.61-1.66a241.69 241.69 0 01-4.65-4.98c-.5-.55-1-1.11-1.5-1.66-.49-.55-.98-1.11-1.47-1.66-.49-.55-.97-1.11-1.44-1.66-.48-.55-.95-1.11-1.42-1.66-.47-.55-.93-1.11-1.4-1.66-.46-.55-.92-1.11-1.37-1.66-.45-.55-.9-1.11-1.35-1.66-.45-.55-.89-1.11-1.33-1.66-.44-.55-.87-1.11-1.3-1.66-.43-.55-.86-1.11-1.28-1.66-.42-.55-.85-1.11-1.26-1.66-.42-.55-.83-1.11-1.24-1.66-.41-.55-.82-1.11-1.22-1.66-.4-.55-.8-1.11-1.2-1.66-.4-.55-.79-1.11-1.18-1.66-.39-.55-.78-1.11-1.16-1.66-.38-.55-.77-1.11-1.14-1.66-.38-.55-.75-1.11-1.13-1.66-.37-.55-.74-1.11-1.11-1.66-.37-.55-.73-1.11-1.09-1.66-.36-.55-.72-1.11-1.07-1.66-.35-.55-.71-1.11-1.05-1.66-.35-.55-.69-1.11-1.04-1.66-.34-.55-.68-1.11-1.02-1.66-.34-.55-.67-1.11-1-1.66-.33-.55-.66-1.11-.99-1.66-.33-.55-.65-1.11-.97-1.66-.32-.55-.64-1.11-.96-1.66-.32-.55-.63-1.11-.94-1.66-.31-.55-.62-1.11-.93-1.66-.31-.55-.61-1.11-.91-1.66-.3-.55-.6-1.11-.9-1.66-.3-.55-.59-1.11-.88-1.66-.29-.55-.58-1.11-.87-1.66-.29-.55-.57-1.11-.85-1.66-.28-.55-.56-1.11-.84-1.66-.28-.55-.55-1.11-.82-1.66-.27-.55-.54-1.11-.81-1.66-.27-.55-.53-1.11-.8-1.66-.26-.55-.52-1.11-.78-1.66-.26-.55-.51-1.11-.77-1.66-.25-.55-.51-1.11-.75-1.66-.25-.55-.5-1.11-.74-1.66-.24-.55-.49-1.11-.73-1.66-.24-.55-.48-1.11-.72-1.66-.24-.55-.47-1.11-.7-1.66-.23-.55-.46-1.11-.69-1.66-.23-.55-.45-1.11-.68-1.66-.22-.55-.45-1.11-.66-1.66-.22-.55-.44-1.11-.65-1.66-.22-.55-.43-1.11-.64-1.66-.21-.55-.42-1.11-.63-1.66-.21-.55-.41-1.11-.62-1.66-.2-.55-.4-1.11-.6-1.66-.2-.55-.4-1.11-.59-1.66-.2-.55-.39-1.11-.58-1.66-.19-.55-.38-1.11-.57-1.66-.19-.55-.37-1.11-.56-1.66-.18-.55-.37-1.11-.55-1.66-.18-.55-.36-1.11-.53-1.66-.18-.55-.35-1.11-.52-1.66l-.51-1.66c-.17-.55-.34-1.11-.5-1.66-.16-.55-.33-1.11-.49-1.66l-.48-1.66c-.16-.55-.31-1.11-.47-1.66-.15-.55-.31-1.11-.46-1.66l-.45-1.66c-.15-.55-.29-1.11-.43-1.66l-.42-1.66c-.14-.55-.28-1.11-.41-1.66-.14-.55-.27-1.11-.4-1.66l-.39-1.66c-.13-.55-.26-1.11-.38-1.66-.13-.55-.25-1.11-.37-1.66l-.36-1.66c-.12-.55-.23-1.11-.35-1.66-.11-.55-.23-1.11-.34-1.66l-.33-1.66c-.11-.55-.21-1.11-.32-1.66-.1-.55-.21-1.11-.31-1.66l-.3-1.66"/><path style="fill:none;stroke:#90aad8;stroke-width:.5;stroke-linecap:round;stroke-linejoin:round;stroke-miterlimit:10" d="M259.78 282.37c-.51-.28-2.07-1.11-3.07-1.66-1-.55-1.98-1.11-2.95-1.66-.96-.55-1.9-1.11-2.83-1.66-.93-.55-1.83-1.11-2.73-1.66a201.348 201.348 0 01-5.17-3.32c-.83-.55-1.65-1.11-2.46-1.66-.81-.55-1.6-1.11-2.39-1.66-.78-.55-1.56-1.11-2.32-1.66-.76-.55-1.51-1.11-2.25-1.66-.74-.55-1.47-1.11-2.19-1.66-.72-.55-1.43-1.11-2.13-1.66-.7-.55-1.39-1.11-2.08-1.66-.68-.55-1.36-1.11-2.02-1.66-.67-.55-1.32-1.11-1.98-1.66-.65-.55-1.29-1.11-1.93-1.66-.64-.55-1.26-1.11-1.88-1.66-.62-.55-1.23-1.11-1.84-1.66-.61-.55-1.21-1.11-1.8-1.66-.59-.55-1.18-1.11-1.76-1.66-.58-.55-1.15-1.11-1.72-1.66-.57-.55-1.13-1.11-1.69-1.66-.56-.55-1.11-1.11-1.65-1.66-.54-.55-1.08-1.11-1.62-1.66-.53-.55-1.06-1.11-1.59-1.66a235.237 235.237 0 01-3.07-3.32c-.5-.55-1-1.11-1.5-1.66-.49-.55-.98-1.11-1.47-1.66-.48-.55-.96-1.11-1.44-1.66-.48-.55-.95-1.11-1.41-1.66-.47-.55-.93-1.11-1.39-1.66-.46-.55-.91-1.11-1.36-1.66a194.967 194.967 0 01-2.65-3.32c-.43-.55-.86-1.11-1.29-1.66-.43-.55-.85-1.11-1.27-1.66-.42-.55-.83-1.11-1.25-1.66-.41-.55-.82-1.11-1.22-1.66-.4-.55-.81-1.11-1.2-1.66-.4-.55-.79-1.11-1.18-1.66-.39-.55-.78-1.11-1.16-1.66-.38-.55-.77-1.11-1.14-1.66-.38-.55-.75-1.11-1.12-1.66-.37-.55-.74-1.11-1.11-1.66-.37-.55-.73-1.11-1.09-1.66-.36-.55-.72-1.11-1.07-1.66-.35-.55-.7-1.11-1.05-1.66-.35-.55-.69-1.11-1.03-1.66-.34-.55-.68-1.11-1.02-1.66-.34-.55-.67-1.11-1-1.66-.33-.55-.66-1.11-.98-1.66-.33-.55-.65-1.11-.97-1.66-.32-.55-.64-1.11-.95-1.66-.31-.55-.63-1.11-.94-1.66-.31-.55-.62-1.11-.92-1.66-.3-.55-.61-1.11-.91-1.66-.3-.55-.6-1.11-.89-1.66-.29-.55-.59-1.11-.88-1.66-.29-.55-.58-1.11-.86-1.66-.28-.55-.57-1.11-.85-1.66-.28-.55-.56-1.11-.83-1.66-.28-.55-.55-1.11-.82-1.66-.27-.55-.54-1.11-.81-1.66-.27-.55-.53-1.11-.79-1.66-.26-.55-.52-1.11-.78-1.66-.26-.55-.51-1.11-.77-1.66-.25-.55-.5-1.11-.75-1.66-.25-.55-.5-1.11-.74-1.66-.24-.55-.49-1.11-.73-1.66-.24-.55-.48-1.11-.71-1.66-.24-.55-.47-1.11-.7-1.66-.23-.55-.46-1.11-.69-1.66-.23-.55-.45-1.11-.68-1.66-.22-.55-.45-1.11-.67-1.66-.22-.55-.44-1.11-.65-1.66-.22-.55-.43-1.11-.64-1.66-.21-.55-.42-1.11-.63-1.66-.21-.55-.41-1.11-.62-1.66-.2-.55-.41-1.11-.61-1.66-.2-.55-.4-1.11-.6-1.66-.2-.55-.39-1.11-.58-1.66-.19-.55-.38-1.11-.57-1.66-.19-.55-.38-1.11-.56-1.66-.19-.55-.37-1.11-.55-1.66-.18-.55-.36-1.11-.54-1.66-.18-.55-.36-1.11-.53-1.66-.18-.55-.35-1.11-.52-1.66l-.51-1.66c-.17-.55-.33-1.11-.5-1.66-.16-.55-.33-1.11-.49-1.66l-.48-1.66c-.16-.55-.31-1.11-.47-1.66-.15-.55-.31-1.11-.46-1.66l-.45-1.66c-.15-.55-.29-1.11-.44-1.66-.14-.55-.29-1.11-.43-1.66l-.42-1.66c-.14-.55-.27-1.11-.41-1.66-.13-.55-.27-1.11-.4-1.66l-.39-1.66c-.13-.55-.25-1.11-.38-1.66-.12-.55-.25-1.11-.37-1.66l-.36-1.66c-.12-.55-.24-1.11-.35-1.66-.12-.55-.23-1.11-.34-1.66l-.33-1.66c-.11-.55-.22-1.11-.32-1.66-.11-.55-.21-1.11-.31-1.66l-.3-1.66c-.1-.55-.2-1.11-.29-1.66-.1-.55-.19-1.11-.29-1.66-.09-.55-.18-1.11-.28-1.66"/><path style="fill:none;stroke:#4971b8;stroke-width:.5;stroke-linecap:round;stroke-linejoin:round;stroke-miterlimit:10" d="M74.3 127.94c.9 1.92 1.8 3.86 2.69 5.76.9 1.9 1.8 3.79 2.69 5.66.9 1.87 1.8 3.72 2.69 5.56.9 1.84 1.8 3.66 2.69 5.46.9 1.8 1.8 3.59 2.69 5.36.9 1.77 1.8 3.52 2.69 5.26.9 1.74 1.8 3.46 2.69 5.16.9 1.7 1.8 3.39 2.69 5.06.9 1.67 1.8 3.33 2.69 4.96.9 1.64 1.8 3.26 2.69 4.86.9 1.6 1.8 3.19 2.69 4.76.9 1.57 1.8 3.13 2.69 4.66.9 1.54 1.8 3.06 2.69 4.57.9 1.5 1.8 2.99 2.69 4.47.9 1.47 1.8 2.93 2.69 4.37.9 1.44 1.8 2.86 2.69 4.27.9 1.41 1.8 2.79 2.69 4.17.9 1.37 1.8 2.73 2.69 4.07.9 1.34 1.8 2.66 2.69 3.97.9 1.31 1.8 2.59 2.69 3.87.9 1.27 1.8 2.53 2.69 3.77.9 1.24 1.8 2.46 2.69 3.67.9 1.21 1.8 2.4 2.69 3.57.9 1.17 1.8 2.33 2.69 3.47.9 1.14 1.8 2.26 2.69 3.37.9 1.11 1.8 2.2 2.69 3.27.9 1.07 1.8 2.13 2.69 3.17.9 1.04 1.8 2.06 2.69 3.07.9 1.01 1.8 2 2.69 2.97.9.97 1.8 1.93 2.69 2.87.9.94 1.8 1.86 2.69 2.77.9.91 1.8 1.8 2.69 2.67.9.87 1.8 1.73 2.69 2.57.9.84 1.8 1.67 2.69 2.47.9.81 1.8 1.6 2.69 2.37.9.77 1.8 1.53 2.69 2.27a149.998 149.998 0 005.38 4.24c.9.68 1.8 1.33 2.69 1.98.9.64 1.8 1.27 2.69 1.88.9.61 1.8 1.2 2.69 1.78.9.58 1.8 1.13 2.69 1.68.9.54 1.8 1.07 2.69 1.58.9.51 1.8 1 2.69 1.48a98.206 98.206 0 008.07 3.84c.9.38 1.8.74 2.69 1.08.9.34 1.8.67 2.69.98.9.31 1.8.59 2.69.88"/><text transform="translate(76.99 123.374)" style="font-family:'Asap-Regular';font-size:6px">A</text><text transform="translate(62.409 295.564)" style="font-family:'Asap-Regular';font-size:7px">0</text><text transform="translate(58.589 278.964)"><tspan x="0" y="0" style="font-family:'Asap-Regular';font-size:7px">1</tspan><tspan x="3.72" y="0" style="font-family:'Asap-Regular';font-size:7px">0</tspan></text><text transform="translate(58.589 262.362)"><tspan x="0" y="0" style="font-family:'Asap-Regular';font-size:7px">2</tspan><tspan x="3.72" y="0" style="font-family:'Asap-Regular';font-size:7px">0</tspan></text><text transform="translate(58.589 245.762)"><tspan x="0" y="0" style="font-family:'Asap-Regular';font-size:7px">3</tspan><tspan x="3.72" y="0" style="font-family:'Asap-Regular';font-size:7px">0</tspan></text><text transform="translate(58.589 229.16)"><tspan x="0" y="0" style="font-family:'Asap-Regular';font-size:7px">4</tspan><tspan x="3.72" y="0" style="font-family:'Asap-Regular';font-size:7px">0</tspan></text><text transform="translate(58.589 212.554)"><tspan x="0" y="0" style="font-family:'Asap-Regular';font-size:7px">5</tspan><tspan x="3.72" y="0" style="font-family:'Asap-Regular';font-size:7px">0</tspan></text><text transform="translate(58.589 195.951)"><tspan x="0" y="0" style="font-family:'Asap-Regular';font-size:7px">6</tspan><tspan x="3.72" y="0" style="font-family:'Asap-Regular';font-size:7px">0</tspan></text><text transform="translate(58.589 179.351)"><tspan x="0" y="0" style="font-family:'Asap-Regular';font-size:7px">7</tspan><tspan x="3.72" y="0" style="font-family:'Asap-Regular';font-size:7px">0</tspan></text><text transform="translate(58.589 162.75)"><tspan x="0" y="0" style="font-family:'Asap-Regular';font-size:7px">8</tspan><tspan x="3.72" y="0" style="font-family:'Asap-Regular';font-size:7px">0</tspan></text><text transform="translate(58.589 146.15)"><tspan x="0" y="0" style="font-family:'Asap-Regular';font-size:7px">9</tspan><tspan x="3.72" y="0" style="font-family:'Asap-Regular';font-size:7px">0</tspan></text><text transform="translate(54.768 129.548)"><tspan x="0" y="0" style="font-family:'Asap-Regular';font-size:7px">1</tspan><tspan x="3.72" y="0" style="font-family:'Asap-Regular';font-size:7px">0</tspan><tspan x="7.53" y="0" style="font-family:'Asap-Regular';font-size:7px">0</tspan></text><text transform="translate(54.768 112.947)"><tspan x="0" y="0" style="font-family:'Asap-Regular';font-size:7px">1</tspan><tspan x="3.72" y="0" style="font-family:'Asap-Regular';font-size:7px">1</tspan><tspan x="7.53" y="0" style="font-family:'Asap-Regular';font-size:7px">0</tspan></text><text transform="translate(54.768 96.339)"><tspan x="0" y="0" style="font-family:'Asap-Regular';font-size:7px">1</tspan><tspan x="3.72" y="0" style="font-family:'Asap-Regular';font-size:7px">2</tspan><tspan x="7.53" y="0" style="font-family:'Asap-Regular';font-size:7px">0</tspan></text><text transform="translate(54.768 79.738)"><tspan x="0" y="0" style="font-family:'Asap-Regular';font-size:7px">1</tspan><tspan x="3.72" y="0" style="font-family:'Asap-Regular';font-size:7px">3</tspan><tspan x="7.53" y="0" style="font-family:'Asap-Regular';font-size:7px">0</tspan></text><text transform="translate(54.768 63.137)"><tspan x="0" y="0" style="font-family:'Asap-Regular';font-size:7px">1</tspan><tspan x="3.72" y="0" style="font-family:'Asap-Regular';font-size:7px">4</tspan><tspan x="7.53" y="0" style="font-family:'Asap-Regular';font-size:7px">0</tspan></text><text transform="translate(54.768 46.536)"><tspan x="0" y="0" style="font-family:'Asap-Regular';font-size:7px">1</tspan><tspan x="3.72" y="0" style="font-family:'Asap-Regular';font-size:7px">5</tspan><tspan x="7.53" y="0" style="font-family:'Asap-Regular';font-size:7px">0</tspan></text><text transform="translate(54.768 29.934)"><tspan x="0" y="0" style="font-family:'Asap-Regular';font-size:7px">1</tspan><tspan x="3.72" y="0" style="font-family:'Asap-Regular';font-size:7px">6</tspan><tspan x="7.53" y="0" style="font-family:'Asap-Regular';font-size:7px">0</tspan></text><text transform="translate(54.768 13.334)"><tspan x="0" y="0" style="font-family:'Asap-Regular';font-size:7px">1</tspan><tspan x="3.72" y="0" style="font-family:'Asap-Regular';font-size:7px">7</tspan><tspan x="7.53" y="0" style="font-family:'Asap-Regular';font-size:7px">0</tspan></text><text transform="translate(72.41 307.092)" style="font-family:'Asap-Regular';font-size:7px">0</text><text transform="translate(97.431 307.092)"><tspan x="0" y="0" style="font-family:'Asap-Regular';font-size:7px">1</tspan><tspan x="3.72" y="0" style="font-family:'Asap-Regular';font-size:7px">0</tspan></text><text transform="translate(124.36 307.092)"><tspan x="0" y="0" style="font-family:'Asap-Regular';font-size:7px">2</tspan><tspan x="3.72" y="0" style="font-family:'Asap-Regular';font-size:7px">0</tspan></text><text transform="translate(151.295 307.092)"><tspan x="0" y="0" style="font-family:'Asap-Regular';font-size:7px">3</tspan><tspan x="3.72" y="0" style="font-family:'Asap-Regular';font-size:7px">0</tspan></text><text transform="translate(178.222 307.092)"><tspan x="0" y="0" style="font-family:'Asap-Regular';font-size:7px">4</tspan><tspan x="3.72" y="0" style="font-family:'Asap-Regular';font-size:7px">0</tspan></text><text transform="translate(205.157 307.092)"><tspan x="0" y="0" style="font-family:'Asap-Regular';font-size:7px">5</tspan><tspan x="3.72" y="0" style="font-family:'Asap-Regular';font-size:7px">0</tspan></text><text transform="translate(232.086 307.092)"><tspan x="0" y="0" style="font-family:'Asap-Regular';font-size:7px">6</tspan><tspan x="3.72" y="0" style="font-family:'Asap-Regular';font-size:7px">0</tspan></text><text transform="translate(259.02 307.092)"><tspan x="0" y="0" style="font-family:'Asap-Regular';font-size:7px">7</tspan><tspan x="3.72" y="0" style="font-family:'Asap-Regular';font-size:7px">0</tspan></text><text transform="translate(285.95 307.092)"><tspan x="0" y="0" style="font-family:'Asap-Regular';font-size:7px">8</tspan><tspan x="3.72" y="0" style="font-family:'Asap-Regular';font-size:7px">0</tspan></text><text transform="translate(312.878 307.092)"><tspan x="0" y="0" style="font-family:'Asap-Regular';font-size:7px">9</tspan><tspan x="3.72" y="0" style="font-family:'Asap-Regular';font-size:7px">0</tspan></text><text transform="translate(337.906 307.092)"><tspan x="0" y="0" style="font-family:'Asap-Regular';font-size:7px">1</tspan><tspan x="3.72" y="0" style="font-family:'Asap-Regular';font-size:7px">0</tspan><tspan x="7.53" y="0" style="font-family:'Asap-Regular';font-size:7px">0</tspan></text><text transform="translate(279.909 207.347)"><tspan x="0" y="0" style="font-family:'Asap-Regular';font-size:6.8612px">E</tspan><tspan x="3.72" y="0" style="font-family:'Asap-Regular';font-size:6.8612px">x</tspan><tspan x="7.05" y="0" style="font-family:'Asap-Regular';font-size:6.8612px">t</tspan><tspan x="9.42" y="0" style="font-family:'Asap-Regular';font-size:6.8612px">r</tspan><tspan x="11.9" y="0" style="font-family:'Asap-Regular';font-size:6.8612px">a</tspan><tspan x="15.66" y="0" style="font-family:'Asap-Regular';font-size:6.8612px"> </tspan><tspan x="17.28" y="0" style="font-family:'Asap-Regular';font-size:6.8612px">c</tspan><tspan x="20.64" y="0" style="font-family:'Asap-Regular';font-size:6.8612px">o</tspan><tspan x="24.52" y="0" style="font-family:'Asap-Regular';font-size:6.8612px">n</tspan><tspan x="28.38" y="0" style="font-family:'Asap-Regular';font-size:6.8612px">s</tspan><tspan x="31.2" y="0" style="font-family:'Asap-Regular';font-size:6.8612px">u</tspan><tspan x="34.98" y="0" style="font-family:'Asap-Regular';font-size:6.8612px">m</tspan><tspan x="40.84" y="0" style="font-family:'Asap-Regular';font-size:6.8612px">p</tspan><tspan x="44.76" y="0" style="font-family:'Asap-Regular';font-size:6.8612px">t</tspan><tspan x="47.13" y="0" style="font-family:'Asap-Regular';font-size:6.8612px">i</tspan><tspan x="48.99" y="0" style="font-family:'Asap-Regular';font-size:6.8612px">o</tspan><tspan x="52.87" y="0" style="font-family:'Asap-Regular';font-size:6.8612px">n</tspan><tspan x="56.73" y="0" style="font-family:'Asap-Regular';font-size:6.8612px"> </tspan><tspan x="58.03" y="0" style="font-family:'Asap-Regular';font-size:6.8612px">l</tspan><tspan x="60.06" y="0" style="font-family:'Asap-Regular';font-size:6.8612px">a</tspan><tspan x="63.82" y="0" style="font-family:'Asap-Regular';font-size:6.8612px">t</tspan><tspan x="66.2" y="0" style="font-family:'Asap-Regular';font-size:6.8612px">e</tspan><tspan x="69.87" y="0" style="font-family:'Asap-Regular';font-size:6.8612px">r</tspan></text><text transform="translate(279.909 217.073)"><tspan x="0" y="0" style="font-family:'Asap-Regular';font-size:6px">(</tspan><tspan x="1.78" y="0" style="font-family:'Asap-Regular';font-size:6px">w</tspan><tspan x="6.25" y="0" style="font-family:'Asap-Regular';font-size:6px">i</tspan><tspan x="7.88" y="0" style="font-family:'Asap-Regular';font-size:6px">t</tspan><tspan x="9.95" y="0" style="font-family:'Asap-Regular';font-size:6px">h</tspan><tspan x="13.31" y="0" style="font-family:'Asap-Regular';font-size:6px"> </tspan><tspan x="14.72" y="0" style="font-family:'Asap-Regular';font-size:6px">i</tspan><tspan x="16.34" y="0" style="font-family:'Asap-Regular';font-size:6px">n</tspan><tspan x="19.71" y="0" style="font-family:'Asap-Regular';font-size:6px">v</tspan><tspan x="22.59" y="0" style="font-family:'Asap-Regular';font-size:6px">e</tspan><tspan x="25.81" y="0" style="font-family:'Asap-Regular';font-size:6px">s</tspan><tspan x="28.28" y="0" style="font-family:'Asap-Regular';font-size:6px">t</tspan><tspan x="30.36" y="0" style="font-family:'Asap-Regular';font-size:6px">m</tspan><tspan x="35.48" y="0" style="font-family:'Asap-Regular';font-size:6px">e</tspan><tspan x="38.7" y="0" style="font-family:'Asap-Regular';font-size:6px">n</tspan><tspan x="42.07" y="0" style="font-family:'Asap-Regular';font-size:6px">t</tspan><tspan x="44.15" y="0" style="font-family:'Asap-Regular';font-size:6px">)</tspan></text><line style="fill:none;stroke:#7f7f7f;stroke-width:.5;stroke-miterlimit:8" x1="272.35" y1="292.61" x2="272.35" y2="233.33"/><polygon style="fill:#7f7f7f" points="274.4 290.95 274.03 290.61 272.35 292.42 270.67 290.61 270.31 290.95 272.35 293.15"/><polygon style="fill:#7f7f7f" points="274.4 234.99 274.03 235.33 272.35 233.52 270.67 235.33 270.31 234.99 272.35 232.79"/><text transform="translate(278.356 260.876)"><tspan x="0" y="0" style="font-family:'Asap-Regular';font-size:6.8612px">C</tspan><tspan x="4.23" y="0" style="font-family:'Asap-Regular';font-size:6.8612px">o</tspan><tspan x="8.1" y="0" style="font-family:'Asap-Regular';font-size:6.8612px">n</tspan><tspan x="11.96" y="0" style="font-family:'Asap-Regular';font-size:6.8612px">s</tspan><tspan x="14.79" y="0" style="font-family:'Asap-Regular';font-size:6.8612px">u</tspan><tspan x="18.57" y="0" style="font-family:'Asap-Regular';font-size:6.8612px">m</tspan><tspan x="24.43" y="0" style="font-family:'Asap-Regular';font-size:6.8612px">p</tspan><tspan x="28.34" y="0" style="font-family:'Asap-Regular';font-size:6.8612px">t</tspan><tspan x="30.72" y="0" style="font-family:'Asap-Regular';font-size:6.8612px">i</tspan><tspan x="32.58" y="0" style="font-family:'Asap-Regular';font-size:6.8612px">o</tspan><tspan x="36.45" y="0" style="font-family:'Asap-Regular';font-size:6.8612px">n</tspan><tspan x="40.31" y="0" style="font-family:'Asap-Regular';font-size:6.8612px"> </tspan><tspan x="41.72" y="0" style="font-family:'Asap-Regular';font-size:6.8612px">l</tspan><tspan x="43.75" y="0" style="font-family:'Asap-Regular';font-size:6.8612px">a</tspan><tspan x="47.51" y="0" style="font-family:'Asap-Regular';font-size:6.8612px">t</tspan><tspan x="49.88" y="0" style="font-family:'Asap-Regular';font-size:6.8612px">e</tspan><tspan x="53.56" y="0" style="font-family:'Asap-Regular';font-size:6.8612px">r</tspan></text><text transform="translate(278.356 270.61)"><tspan x="0" y="0" style="font-family:'Asap-Regular';font-size:6px">(</tspan><tspan x="1.78" y="0" style="font-family:'Asap-Regular';font-size:6px">b</tspan><tspan x="5.18" y="0" style="font-family:'Asap-Regular';font-size:6px">orro</tspan><tspan x="16.31" y="0" style="font-family:'Asap-Regular';font-size:6px">w</tspan><tspan x="20.79" y="0" style="font-family:'Asap-Regular';font-size:6px">i</tspan><tspan x="22.41" y="0" style="font-family:'Asap-Regular';font-size:6px">n</tspan><tspan x="25.78" y="0" style="font-family:'Asap-Regular';font-size:6px">g</tspan><tspan x="29.07" y="0" style="font-family:'Asap-Regular';font-size:6px"> </tspan><tspan x="30.48" y="0" style="font-family:'Asap-Regular';font-size:6px">o</tspan><tspan x="33.87" y="0" style="font-family:'Asap-Regular';font-size:6px">n</tspan><tspan x="37.24" y="0" style="font-family:'Asap-Regular';font-size:6px">l</tspan><tspan x="39.02" y="0" style="font-family:'Asap-Regular';font-size:6px">y</tspan><tspan x="41.88" y="0" style="font-family:'Asap-Regular';font-size:6px">)</tspan></text><text transform="translate(92.644 265.343)"><tspan x="0" y="0" style="font-family:'Asap-Regular';font-size:6px">J</tspan><tspan x="2.4" y="0" style="font-family:'Asap-Regular';font-size:6px">u</tspan><tspan x="5.71" y="0" style="font-family:'Asap-Regular';font-size:6px">l</tspan><tspan x="7.48" y="0" style="font-family:'Asap-Regular';font-size:6px">i</tspan><tspan x="9.11" y="0" style="font-family:'Asap-Regular';font-size:6px">a’</tspan><tspan x="13.69" y="0" style="font-family:'Asap-Regular';font-size:6px">s</tspan><tspan x="16.16" y="0" style="font-family:'Asap-Regular';font-size:6px"> </tspan><tspan x="17.48" y="0" style="font-family:'Asap-Regular';font-size:6px">r</tspan><tspan x="19.65" y="0" style="font-family:'Asap-Regular';font-size:6px">e</tspan><tspan x="22.87" y="0" style="font-family:'Asap-Regular';font-size:6px">s</tspan><tspan x="25.34" y="0" style="font-family:'Asap-Regular';font-size:6px">e</tspan><tspan x="28.55" y="0" style="font-family:'Asap-Regular';font-size:6px">r</tspan><tspan x="30.73" y="0" style="font-family:'Asap-Regular';font-size:6px">v</tspan><tspan x="33.6" y="0" style="font-family:'Asap-Regular';font-size:6px">a</tspan><tspan x="36.89" y="0" style="font-family:'Asap-Regular';font-size:6px">t</tspan><tspan x="38.97" y="0" style="font-family:'Asap-Regular';font-size:6px">i</tspan><tspan x="40.59" y="0" style="font-family:'Asap-Regular';font-size:6px">o</tspan><tspan x="43.98" y="0" style="font-family:'Asap-Regular';font-size:6px">n</tspan><tspan x="47.36" y="0" style="font-family:'Asap-Regular';font-size:6px"> </tspan><tspan x="48.68" y="0" style="font-family:'Asap-Regular';font-size:6px">I</tspan><tspan x="50.4" y="0" style="font-family:'Asap-Regular';font-size:6px">C</tspan></text><text transform="translate(14.86 121.428)"><tspan x="0" y="0" style="font-family:'Asap-Regular';font-size:6px">J</tspan><tspan x="2.4" y="0" style="font-family:'Asap-Regular';font-size:6px">u</tspan><tspan x="5.71" y="0" style="font-family:'Asap-Regular';font-size:6px">l</tspan><tspan x="7.48" y="0" style="font-family:'Asap-Regular';font-size:6px">i</tspan><tspan x="9.11" y="0" style="font-family:'Asap-Regular';font-size:6px">a’</tspan><tspan x="13.69" y="0" style="font-family:'Asap-Regular';font-size:6px">s</tspan><tspan x="16.16" y="0" style="font-family:'Asap-Regular';font-size:6px"> </tspan><tspan x="17.48" y="0" style="font-family:'Asap-Regular';font-size:6px">e</tspan><tspan x="20.69" y="0" style="font-family:'Asap-Regular';font-size:6px">n</tspan><tspan x="24.07" y="0" style="font-family:'Asap-Regular';font-size:6px">d</tspan><tspan x="27.44" y="0" style="font-family:'Asap-Regular';font-size:6px">o</tspan><tspan x="30.83" y="0" style="font-family:'Asap-Regular';font-size:6px">w</tspan><tspan x="35.31" y="0" style="font-family:'Asap-Regular';font-size:6px">m</tspan><tspan x="40.43" y="0" style="font-family:'Asap-Regular';font-size:6px">e</tspan><tspan x="43.65" y="0" style="font-family:'Asap-Regular';font-size:6px">n</tspan><tspan x="47.02" y="0" style="font-family:'Asap-Regular';font-size:6px">t</tspan></text><text transform="translate(106.845 66.71)"><tspan x="0" y="0" style="font-family:'Asap-Regular';font-size:6px">FF</tspan><tspan x="6.01" y="0" style="font-family:'Asap-Regular';font-size:6px"> (</tspan><tspan x="9.2" y="0" style="font-family:'Asap-Regular';font-size:6px">b</tspan><tspan x="12.61" y="0" style="font-family:'Asap-Regular';font-size:6px">orro</tspan><tspan x="23.73" y="0" style="font-family:'Asap-Regular';font-size:6px">w</tspan><tspan x="28.21" y="0" style="font-family:'Asap-Regular';font-size:6px"> </tspan><tspan x="29.69" y="0" style="font-family:'Asap-Regular';font-size:6px">a</tspan><tspan x="32.98" y="0" style="font-family:'Asap-Regular';font-size:6px">t</tspan><tspan x="35.06" y="0" style="font-family:'Asap-Regular';font-size:6px"> </tspan><tspan x="36.47" y="0" style="font-family:'Asap-Regular';font-size:6px">78%</tspan><tspan x="47.41" y="0" style="font-family:'Asap-Regular';font-size:6px">;</tspan><tspan x="48.61" y="0" style="font-family:'Asap-Regular';font-size:6px"> </tspan><tspan x="50.02" y="0" style="font-family:'Asap-Regular';font-size:6px">i</tspan><tspan x="51.65" y="0" style="font-family:'Asap-Regular';font-size:6px">n</tspan><tspan x="55.02" y="0" style="font-family:'Asap-Regular';font-size:6px">v</tspan><tspan x="57.9" y="0" style="font-family:'Asap-Regular';font-size:6px">e</tspan><tspan x="61.11" y="0" style="font-family:'Asap-Regular';font-size:6px">s</tspan><tspan x="63.59" y="0" style="font-family:'Asap-Regular';font-size:6px">t</tspan><tspan x="65.66" y="0" style="font-family:'Asap-Regular';font-size:6px"> </tspan><tspan x="66.98" y="0" style="font-family:'Asap-Regular';font-size:6px">w</tspan><tspan x="71.46" y="0" style="font-family:'Asap-Regular';font-size:6px">i</tspan><tspan x="73.08" y="0" style="font-family:'Asap-Regular';font-size:6px">t</tspan><tspan x="75.16" y="0" style="font-family:'Asap-Regular';font-size:6px">h</tspan><tspan x="78.51" y="0" style="font-family:'Asap-Regular';font-size:6px"> </tspan><tspan x="79.92" y="0" style="font-family:'Asap-Regular';font-size:6px">200%</tspan><tspan x="94.05" y="0" style="font-family:'Asap-Regular';font-size:6px"> </tspan><tspan x="95.46" y="0" style="font-family:'Asap-Regular';font-size:6px">r</tspan><tspan x="97.63" y="0" style="font-family:'Asap-Regular';font-size:6px">e</tspan><tspan x="100.85" y="0" style="font-family:'Asap-Regular';font-size:6px">t</tspan><tspan x="102.92" y="0" style="font-family:'Asap-Regular';font-size:6px">u</tspan><tspan x="106.23" y="0" style="font-family:'Asap-Regular';font-size:6px">r</tspan><tspan x="108.4" y="0" style="font-family:'Asap-Regular';font-size:6px">n</tspan><tspan x="111.77" y="0" style="font-family:'Asap-Regular';font-size:6px">)</tspan></text><text transform="translate(100.338 316.506)"><tspan x="0" y="0" style="font-family:'Asap-Regular';font-size:6.8612px">C</tspan><tspan x="4.23" y="0" style="font-family:'Asap-Regular';font-size:6.8612px">o</tspan><tspan x="8.1" y="0" style="font-family:'Asap-Regular';font-size:6.8612px">n</tspan><tspan x="11.96" y="0" style="font-family:'Asap-Regular';font-size:6.8612px">s</tspan><tspan x="14.79" y="0" style="font-family:'Asap-Regular';font-size:6.8612px">u</tspan><tspan x="18.57" y="0" style="font-family:'Asap-Regular';font-size:6.8612px">m</tspan><tspan x="24.43" y="0" style="font-family:'Asap-Regular';font-size:6.8612px">p</tspan><tspan x="28.34" y="0" style="font-family:'Asap-Regular';font-size:6.8612px">t</tspan><tspan x="30.72" y="0" style="font-family:'Asap-Regular';font-size:6.8612px">i</tspan><tspan x="32.58" y="0" style="font-family:'Asap-Regular';font-size:6.8612px">o</tspan><tspan x="36.45" y="0" style="font-family:'Asap-Regular';font-size:6.8612px">n</tspan></text><text transform="translate(113.652 326.24)"><tspan x="0" y="0" style="font-family:'Asap-Regular';font-size:6.8612px">n</tspan><tspan x="3.86" y="0" style="font-family:'Asap-Regular';font-size:6.8612px">o</tspan><tspan x="7.73" y="0" style="font-family:'Asap-Regular';font-size:6.8612px">w</tspan></text><text transform="translate(178.323 316.592)"><tspan x="0" y="0" style="font-family:'Asap-Regular';font-size:6.8612px">In</tspan><tspan x="5.83" y="0" style="font-family:'Asap-Regular';font-size:6.8612px">v</tspan><tspan x="9.12" y="0" style="font-family:'Asap-Regular';font-size:6.8612px">e</tspan><tspan x="12.8" y="0" style="font-family:'Asap-Regular';font-size:6.8612px">s</tspan><tspan x="15.63" y="0" style="font-family:'Asap-Regular';font-size:6.8612px">t</tspan><tspan x="18" y="0" style="font-family:'Asap-Regular';font-size:6.8612px">m</tspan><tspan x="23.86" y="0" style="font-family:'Asap-Regular';font-size:6.8612px">e</tspan><tspan x="27.54" y="0" style="font-family:'Asap-Regular';font-size:6.8612px">n</tspan><tspan x="31.4" y="0" style="font-family:'Asap-Regular';font-size:6.8612px">t</tspan></text><text transform="translate(90.877 29.222)"><tspan x="0" y="0" style="font-family:'Asap-Regular';font-size:6px">FF</tspan><tspan x="6.01" y="0" style="font-family:'Asap-Regular';font-size:6px"> (</tspan><tspan x="9.2" y="0" style="font-family:'Asap-Regular';font-size:6px">b</tspan><tspan x="12.61" y="0" style="font-family:'Asap-Regular';font-size:6px">orro</tspan><tspan x="23.73" y="0" style="font-family:'Asap-Regular';font-size:6px">w</tspan><tspan x="28.21" y="0" style="font-family:'Asap-Regular';font-size:6px">;</tspan><tspan x="29.41" y="0" style="font-family:'Asap-Regular';font-size:6px"> </tspan><tspan x="30.9" y="0" style="font-family:'Asap-Regular';font-size:6px">i</tspan><tspan x="32.53" y="0" style="font-family:'Asap-Regular';font-size:6px">n</tspan><tspan x="35.9" y="0" style="font-family:'Asap-Regular';font-size:6px">t</tspan><tspan x="37.97" y="0" style="font-family:'Asap-Regular';font-size:6px">e</tspan><tspan x="41.19" y="0" style="font-family:'Asap-Regular';font-size:6px">r</tspan><tspan x="43.36" y="0" style="font-family:'Asap-Regular';font-size:6px">e</tspan><tspan x="46.58" y="0" style="font-family:'Asap-Regular';font-size:6px">s</tspan><tspan x="49.05" y="0" style="font-family:'Asap-Regular';font-size:6px">t</tspan><tspan x="51.12" y="0" style="font-family:'Asap-Regular';font-size:6px"> </tspan><tspan x="52.44" y="0" style="font-family:'Asap-Regular';font-size:6px">r</tspan><tspan x="54.62" y="0" style="font-family:'Asap-Regular';font-size:6px">a</tspan><tspan x="57.9" y="0" style="font-family:'Asap-Regular';font-size:6px">t</tspan><tspan x="59.98" y="0" style="font-family:'Asap-Regular';font-size:6px">e</tspan><tspan x="63.2" y="0" style="font-family:'Asap-Regular';font-size:6px"> </tspan><tspan x="64.61" y="0" style="font-family:'Asap-Regular';font-size:6px">=</tspan><tspan x="67.94" y="0" style="font-family:'Asap-Regular';font-size:6px"> </tspan><tspan x="69.35" y="0" style="font-family:'Asap-Regular';font-size:6px">78%</tspan><tspan x="80.29" y="0" style="font-family:'Asap-Regular';font-size:6px">)</tspan></text><line style="fill:none;stroke:#7f7f7f;stroke-width:.5;stroke-miterlimit:8" x1="271.94" y1="229.73" x2="271.94" y2="190.67"/><polygon style="fill:#7f7f7f" points="273.99 228.07 273.62 227.73 271.94 229.54 270.26 227.73 269.9 228.07 271.94 230.27"/><polygon style="fill:#7f7f7f" points="273.99 192.32 273.62 192.66 271.94 190.86 270.26 192.66 269.9 192.32 271.94 190.12"/><text transform="translate(165.668 307.092)"><tspan x="0" y="0" style="font-family:'Asap-Regular';font-size:7px">3</tspan><tspan x="3.72" y="0" style="font-family:'Asap-Regular';font-size:7px">5</tspan></text><text transform="translate(58.589 190.243)"><tspan x="0" y="0" style="font-family:'Asap-Regular';font-size:7px">6</tspan><tspan x="3.72" y="0" style="font-family:'Asap-Regular';font-size:7px">3</tspan></text><text transform="translate(58.489 234.894)"><tspan x="0" y="0" style="font-family:'Asap-Regular';font-size:7px">3</tspan><tspan x="3.72" y="0" style="font-family:'Asap-Regular';font-size:7px">8</tspan></text><text transform="rotate(-90 107.052 96.915)" style="font-family:'Asap-Medium';font-size:8px">Consumption later ($)</text><line style="fill:none;stroke:#6d6e71;stroke-width:.5;stroke-linecap:square" x1="74.5" y1="294.76" x2="74.5" y2="11.55"/><line style="fill:none;stroke:#6d6e71;stroke-width:.5;stroke-linecap:square" x1="72.08" y1="294.17" x2="74.31" y2="294.17"/><line style="fill:none;stroke:#6d6e71;stroke-width:.5;stroke-linecap:square" x1="74.5" y1="294.76" x2="74.5" y2="296.98"/><line style="fill:none;stroke:#6d6e71;stroke-width:.5;stroke-linecap:square" x1="343.94" y1="294.46" x2="343.94" y2="296.67"/><line style="fill:none;stroke:#6d6e71;stroke-width:.5;stroke-linecap:square" x1="316.99" y1="294.76" x2="316.99" y2="296.98"/><line style="fill:none;stroke:#6d6e71;stroke-width:.5;stroke-linecap:square" x1="290.05" y1="294.76" x2="290.05" y2="296.98"/><line style="fill:none;stroke:#6d6e71;stroke-width:.5;stroke-linecap:square" x1="263.11" y1="294.76" x2="263.11" y2="296.98"/><line style="fill:none;stroke:#6d6e71;stroke-width:.5;stroke-linecap:square" x1="236.16" y1="294.76" x2="236.16" y2="296.98"/><line style="fill:none;stroke:#6d6e71;stroke-width:.5;stroke-linecap:square" x1="209.22" y1="294.76" x2="209.22" y2="296.98"/><line style="fill:none;stroke:#6d6e71;stroke-width:.5;stroke-linecap:square" x1="182.28" y1="294.76" x2="182.28" y2="296.98"/><line style="fill:none;stroke:#6d6e71;stroke-width:.5;stroke-linecap:square" x1="155.33" y1="294.76" x2="155.33" y2="296.98"/><line style="fill:none;stroke:#6d6e71;stroke-width:.5;stroke-linecap:square" x1="168.81" y1="294.6" x2="168.81" y2="296.81"/><line style="fill:none;stroke:#6d6e71;stroke-width:.5;stroke-linecap:square" x1="128.39" y1="294.76" x2="128.39" y2="296.98"/><line style="fill:none;stroke:#6d6e71;stroke-width:.5;stroke-linecap:square" x1="101.45" y1="294.76" x2="101.45" y2="296.98"/><line style="fill:none;stroke:#6d6e71;stroke-width:.5;stroke-linecap:square" x1="72.15" y1="11.55" x2="74.37" y2="11.55"/><line style="fill:none;stroke:#6d6e71;stroke-width:.5;stroke-linecap:square" x1="72.08" y1="28.17" x2="74.31" y2="28.17"/><line style="fill:none;stroke:#6d6e71;stroke-width:.5;stroke-linecap:square" x1="72.08" y1="44.8" x2="74.31" y2="44.8"/><line style="fill:none;stroke:#6d6e71;stroke-width:.5;stroke-linecap:square" x1="72.08" y1="61.42" x2="74.31" y2="61.42"/><line style="fill:none;stroke:#6d6e71;stroke-width:.5;stroke-linecap:square" x1="72.08" y1="78.05" x2="74.31" y2="78.05"/><line style="fill:none;stroke:#6d6e71;stroke-width:.5;stroke-linecap:square" x1="72.08" y1="94.67" x2="74.31" y2="94.67"/><line style="fill:none;stroke:#6d6e71;stroke-width:.5;stroke-linecap:square" x1="72.08" y1="111.3" x2="74.31" y2="111.3"/><line style="fill:none;stroke:#6d6e71;stroke-width:.5;stroke-linecap:square" x1="72.08" y1="127.92" x2="74.31" y2="127.92"/><line style="fill:none;stroke:#6d6e71;stroke-width:.5;stroke-linecap:square" x1="72.08" y1="144.55" x2="74.31" y2="144.55"/><line style="fill:none;stroke:#6d6e71;stroke-width:.5;stroke-linecap:square" x1="72.08" y1="161.17" x2="74.31" y2="161.17"/><line style="fill:none;stroke:#6d6e71;stroke-width:.5;stroke-linecap:square" x1="72.08" y1="177.8" x2="74.31" y2="177.8"/><line style="fill:none;stroke:#6d6e71;stroke-width:.5;stroke-linecap:square" x1="72.08" y1="189.38" x2="74.31" y2="189.38"/><line style="fill:none;stroke:#6d6e71;stroke-width:.5;stroke-linecap:square" x1="72.08" y1="194.42" x2="74.31" y2="194.42"/><line style="fill:none;stroke:#6d6e71;stroke-width:.5;stroke-linecap:square" x1="72.08" y1="211.05" x2="74.31" y2="211.05"/><line style="fill:none;stroke:#6d6e71;stroke-width:.5;stroke-linecap:square" x1="72.08" y1="227.67" x2="74.31" y2="227.67"/><line style="fill:none;stroke:#6d6e71;stroke-width:.5;stroke-linecap:square" x1="71.82" y1="231.79" x2="74.04" y2="231.79"/><line style="fill:none;stroke:#6d6e71;stroke-width:.5;stroke-linecap:square" x1="72.08" y1="244.3" x2="74.31" y2="244.3"/><line style="fill:none;stroke:#6d6e71;stroke-width:.5;stroke-linecap:square" x1="72.08" y1="260.92" x2="74.31" y2="260.92"/><line style="fill:none;stroke:#6d6e71;stroke-width:.5;stroke-linecap:square" x1="72.08" y1="277.55" x2="74.31" y2="277.55"/><circle cx="74.5" cy="127.92" r="1.13"/><line style="fill:none;stroke:#ec2426;stroke-width:.5;stroke-linecap:square;stroke-linejoin:round;stroke-dasharray:1.417" x1="74.79" y1="16.87" x2="225.14" y2="293.93"/><line style="fill:none;stroke:#939598;stroke-width:.5;stroke-linecap:square;stroke-linejoin:round;stroke-dasharray:1.417" x1="74.52" y1="189.38" x2="281.96" y2="189.38"/><line style="fill:none;stroke:#939598;stroke-width:.5;stroke-linecap:square;stroke-linejoin:round;stroke-dasharray:1.417" x1="168.81" y1="293.58" x2="168.81" y2="189.04"/><line style="fill:none;stroke:#6d6e71;stroke-width:.5;stroke-linecap:square" x1="74.5" y1="294.17" x2="343.94" y2="294.17"/><line style="fill:none;stroke:#939598;stroke-width:.5;stroke-linecap:square;stroke-linejoin:round;stroke-dasharray:1.417" x1="74.52" y1="231.79" x2="281.96" y2="231.79"/><text transform="translate(171.941 335.359)" style="font-family:'Asap-Medium';font-size:8px">Consumption now ($)</text><line style="fill:none;stroke:#a6a5a5;stroke-width:.5;stroke-miterlimit:8" x1="92.12" y1="32.29" x2="92.12" y2="142.55"/><polygon style="fill:#a6a5a5" points="90.07 140.89 90.44 140.55 92.12 142.36 93.8 140.55 94.16 140.89 92.12 143.09"/><text transform="translate(54.768 19.376)"><tspan x="0" y="0" style="font-family:'Asap-Regular';font-size:7px">16</tspan><tspan x="7.45" y="0" style="font-family:'Asap-Regular';font-size:7px">8</tspan></text><text transform="translate(220.105 307.092)"><tspan x="0" y="0" style="font-family:'Asap-Regular';font-size:7px">5</tspan><tspan x="3.72" y="0" style="font-family:'Asap-Regular';font-size:7px">6</tspan></text><line style="fill:none;stroke:#6d6e71;stroke-width:.5;stroke-linecap:square" x1="225.14" y1="294.76" x2="225.14" y2="296.98"/><line style="fill:none;stroke:#6d6e71;stroke-width:.5;stroke-linecap:square" x1="72.15" y1="16.55" x2="74.37" y2="16.55"/><circle cx="74.5" cy="16.46" r="1.13"/></svg>