<svg xmlns="http://www.w3.org/2000/svg" class="prefix__svglite" viewBox="0 0 810 423"><rect width="100%" height="100%" style="stroke:none;fill:#fff;stroke-linecap:round;stroke-linejoin:round;stroke-miterlimit:10"/><defs><clipPath id="prefix__a"><rect x="0" y="0" width="810" height="423" style="fill:none;stroke:#000;stroke-linecap:round;stroke-linejoin:round;stroke-miterlimit:10"/></clipPath></defs><g clip-path="url(#prefix__a)"><rect x="0" y="0" width="810" height="423" style="stroke-width:1.07;stroke:#fff;fill:#fff;stroke-linecap:round;stroke-linejoin:round;stroke-miterlimit:10"/><rect x="83.72" y="14.17" width="488.54" height="327.92" style="stroke-width:1.07;stroke:none;fill:#fff;stroke-linecap:round;stroke-linejoin:round;stroke-miterlimit:10"/><polyline points="83.72 342.09 572.26 342.09" style="stroke-width:1.07;stroke:#c6c4c4;stroke-linecap:butt;fill:none;stroke-linejoin:round;stroke-miterlimit:10"/><polyline points="83.72 260.11 572.26 260.11" style="stroke-width:1.07;stroke:#c6c4c4;stroke-linecap:butt;fill:none;stroke-linejoin:round;stroke-miterlimit:10"/><polyline points="83.72 178.13 572.26 178.13" style="stroke-width:1.07;stroke:#c6c4c4;stroke-linecap:butt;fill:none;stroke-linejoin:round;stroke-miterlimit:10"/><polyline points="83.72 96.15 572.26 96.15" style="stroke-width:1.07;stroke:#c6c4c4;stroke-linecap:butt;fill:none;stroke-linejoin:round;stroke-miterlimit:10"/><polyline points="83.72 14.17 572.26 14.17" style="stroke-width:1.07;stroke:#c6c4c4;stroke-linecap:butt;fill:none;stroke-linejoin:round;stroke-miterlimit:10"/><polyline points="109.43 53.05 160.86 52.45 212.28 60.89 263.71 77.77 315.13 89.22 366.56 102.78 417.98 121.17 469.41 124.18 520.83 141.97 572.26 233.59" style="stroke-width:1.07;stroke:#ed1f24;stroke-linecap:butt;fill:none;stroke-linejoin:round;stroke-miterlimit:10"/><polyline points="109.43 117.58 160.86 83.11 212.28 94.76 263.71 112.92 315.13 111.06 366.56 127.36 417.98 148.32 469.41 130.16 520.83 157.17 572.26 164.16" style="stroke-width:1.07;stroke:#009147;stroke-dasharray:2.85,2.85;stroke-linecap:butt;fill:none;stroke-linejoin:round;stroke-miterlimit:10"/><polyline points="109.43 79.88 160.86 89.22 212.28 84.1 263.71 90.73 315.13 99.77 366.56 139.55 417.98 139.55 469.41 169.39 520.83 172.71 572.26 199.83" style="stroke-width:1.07;stroke:#b9519e;stroke-linecap:butt;fill:none;stroke-linejoin:round;stroke-miterlimit:10"/><polyline points="109.43 61.57 160.86 79.71 212.28 88.89 263.71 124.76 315.13 116.86 366.56 122.63 417.98 134.15 469.41 147.18 520.83 190.94 572.26 281.04" style="stroke-width:1.07;stroke:#4dd9ff;stroke-linecap:butt;fill:none;stroke-linejoin:round;stroke-miterlimit:10"/><polyline points="109.43 146.6 160.86 117.04 212.28 106.01 263.71 130.84 315.13 140.69 366.56 131.23 417.98 133.2 469.41 134.78 520.83 146.21 572.26 187.99" style="stroke-width:1.07;stroke:#f49323;stroke-dasharray:2.85,2.85;stroke-linecap:butt;fill:none;stroke-linejoin:round;stroke-miterlimit:10"/><polyline points="109.43 119.88 160.86 106.4 212.28 101.82 263.71 110.31 315.13 130.27 366.56 132.96 417.98 163.44 469.41 173.28 520.83 174.49 572.26 228.16" style="stroke-width:1.07;stroke:#7f8182;stroke-linecap:butt;fill:none;stroke-linejoin:round;stroke-miterlimit:10"/><polyline points="109.43 114.94 160.86 92.74 212.28 121.13 263.71 124.12 315.13 167.46 366.56 196.49 417.98 190.09 469.41 192.22 520.83 214.64 572.26 265.88" style="stroke-width:1.07;stroke-linecap:butt;fill:none;stroke:#000;stroke-linejoin:round;stroke-miterlimit:10"/><polyline points="109.43 76.39 160.86 81.51 212.28 81.51 263.71 109.33 315.13 115.92 366.56 134.21 417.98 156.54 469.41 215.46 520.83 256.82 572.26 281.71" style="stroke-width:1.07;stroke:#ed1f24;stroke-dasharray:2.85,2.85;stroke-linecap:butt;fill:none;stroke-linejoin:round;stroke-miterlimit:10"/><polyline points="109.43 119.72 160.86 120.75 212.28 106.06 263.71 122.8 315.13 122.8 366.56 149.1 417.98 184.62 469.41 166.52 520.83 190.43 572.26 260.11" style="stroke-width:1.07;stroke:#f49323;stroke-linecap:butt;fill:none;stroke-linejoin:round;stroke-miterlimit:10"/><polyline points="109.43 137.14 160.86 137.91 212.28 132.53 263.71 136.89 315.13 155.59 366.56 184.28 417.98 206.06 469.41 218.87 520.83 249.61 572.26 292.91" style="stroke-width:1.07;stroke:#b9519e;stroke-dasharray:2.85,2.85;stroke-linecap:butt;fill:none;stroke-linejoin:round;stroke-miterlimit:10"/><polyline points="109.43 173.01 160.86 154.71 212.28 139.34 263.71 143.98 315.13 157.39 366.56 166.67 417.98 180.33 469.41 195.94 520.83 222.05 572.26 264.02" style="stroke-width:1.07;stroke:#4dd9ff;stroke-dasharray:2.85,2.85;stroke-linecap:butt;fill:none;stroke-linejoin:round;stroke-miterlimit:10"/><polyline points="109.43 178.99 160.86 183.68 212.28 194.79 263.71 180.7 315.13 180.27 366.56 182.4 417.98 175.14 469.41 172.16 520.83 187.53 572.26 221.69" style="stroke-width:1.07;stroke:#ed1f24;stroke-dasharray:2.85,2.85;stroke-linecap:butt;fill:none;stroke-linejoin:round;stroke-miterlimit:10"/><polyline points="109.43 118.11 160.86 126.16 212.28 155.08 263.71 158 315.13 176.67 366.56 231.2 417.98 232.66 469.41 246.57 520.83 259.02 572.26 293.05" style="stroke-width:1.07;stroke:#1f3bff;stroke-linecap:butt;fill:none;stroke-linejoin:round;stroke-miterlimit:10"/><polyline points="109.43 175.34 160.86 213.53 212.28 210.74 263.71 212.6 315.13 204.22 366.56 212.6 417.98 221.92 469.41 214 520.83 220.99 572.26 232.17" style="stroke-width:1.07;stroke:#009147;stroke-linecap:butt;fill:none;stroke-linejoin:round;stroke-miterlimit:10"/><polyline points="109.43 158.92 160.86 157.32 212.28 169.17 263.71 200.23 315.13 222.97 366.56 248.91 417.98 261.71 469.41 277.41 520.83 297.58 572.26 314.23" style="stroke-width:1.07;stroke:#7f8182;stroke-dasharray:2.85,2.85;stroke-linecap:butt;fill:none;stroke-linejoin:round;stroke-miterlimit:10"/><polyline points="109.43 173.52 160.86 191.97 212.28 214 263.71 219.64 315.13 230.91 366.56 238.59 417.98 254.48 469.41 276.51 520.83 294.96 572.26 315.45" style="stroke-width:1.07;stroke:#b9519e;stroke-linecap:butt;fill:none;stroke-linejoin:round;stroke-miterlimit:10"/><rect x="106.06" y="49.68" width="6.74" height="6.74" style="stroke-width:1.2;stroke:#ed1f24;fill:#fff;stroke-linecap:round;stroke-linejoin:round;stroke-miterlimit:10"/><rect x="157.49" y="49.08" width="6.74" height="6.74" style="stroke-width:1.2;stroke:#ed1f24;fill:#fff;stroke-linecap:round;stroke-linejoin:round;stroke-miterlimit:10"/><rect x="208.91" y="57.52" width="6.74" height="6.74" style="stroke-width:1.2;stroke:#ed1f24;fill:#fff;stroke-linecap:round;stroke-linejoin:round;stroke-miterlimit:10"/><rect x="260.34" y="74.4" width="6.74" height="6.74" style="stroke-width:1.2;stroke:#ed1f24;fill:#fff;stroke-linecap:round;stroke-linejoin:round;stroke-miterlimit:10"/><rect x="311.76" y="85.85" width="6.74" height="6.74" style="stroke-width:1.2;stroke:#ed1f24;fill:#fff;stroke-linecap:round;stroke-linejoin:round;stroke-miterlimit:10"/><rect x="363.19" y="99.41" width="6.74" height="6.74" style="stroke-width:1.2;stroke:#ed1f24;fill:#fff;stroke-linecap:round;stroke-linejoin:round;stroke-miterlimit:10"/><rect x="414.61" y="117.8" width="6.74" height="6.74" style="stroke-width:1.2;stroke:#ed1f24;fill:#fff;stroke-linecap:round;stroke-linejoin:round;stroke-miterlimit:10"/><rect x="466.04" y="120.81" width="6.74" height="6.74" style="stroke-width:1.2;stroke:#ed1f24;fill:#fff;stroke-linecap:round;stroke-linejoin:round;stroke-miterlimit:10"/><rect x="517.46" y="138.6" width="6.74" height="6.74" style="stroke-width:1.2;stroke:#ed1f24;fill:#fff;stroke-linecap:round;stroke-linejoin:round;stroke-miterlimit:10"/><rect x="568.89" y="230.22" width="6.74" height="6.74" style="stroke-width:1.2;stroke:#ed1f24;fill:#fff;stroke-linecap:round;stroke-linejoin:round;stroke-miterlimit:10"/><polygon points="109.43 111.67 114.55 120.54 104.31 120.54" style="stroke-width:1.2;stroke:#009147;fill:#fff;stroke-linecap:round;stroke-linejoin:round;stroke-miterlimit:10"/><polygon points="160.86 77.2 165.98 86.07 155.74 86.07" style="stroke-width:1.2;stroke:#009147;fill:#fff;stroke-linecap:round;stroke-linejoin:round;stroke-miterlimit:10"/><polygon points="212.28 88.84 217.4 97.71 207.16 97.71" style="stroke-width:1.2;stroke:#009147;fill:#fff;stroke-linecap:round;stroke-linejoin:round;stroke-miterlimit:10"/><polygon points="263.71 107.01 268.83 115.88 258.59 115.88" style="stroke-width:1.2;stroke:#009147;fill:#fff;stroke-linecap:round;stroke-linejoin:round;stroke-miterlimit:10"/><polygon points="315.13 105.15 320.25 114.01 310.01 114.01" style="stroke-width:1.2;stroke:#009147;fill:#fff;stroke-linecap:round;stroke-linejoin:round;stroke-miterlimit:10"/><polygon points="366.56 121.45 371.68 130.32 361.44 130.32" style="stroke-width:1.2;stroke:#009147;fill:#fff;stroke-linecap:round;stroke-linejoin:round;stroke-miterlimit:10"/><polygon points="417.98 142.41 423.1 151.28 412.86 151.28" style="stroke-width:1.2;stroke:#009147;fill:#fff;stroke-linecap:round;stroke-linejoin:round;stroke-miterlimit:10"/><polygon points="469.41 124.24 474.53 133.11 464.29 133.11" style="stroke-width:1.2;stroke:#009147;fill:#fff;stroke-linecap:round;stroke-linejoin:round;stroke-miterlimit:10"/><polygon points="520.83 151.26 525.95 160.13 515.71 160.13" style="stroke-width:1.2;stroke:#009147;fill:#fff;stroke-linecap:round;stroke-linejoin:round;stroke-miterlimit:10"/><polygon points="572.26 158.25 577.38 167.12 567.14 167.12" style="stroke-width:1.2;stroke:#009147;fill:#fff;stroke-linecap:round;stroke-linejoin:round;stroke-miterlimit:10"/><circle cx="109.43" cy="79.88" r="3.8" style="stroke-width:1.2;stroke:#b9519e;fill:#fff;stroke-linecap:round;stroke-linejoin:round;stroke-miterlimit:10"/><circle cx="160.86" cy="89.22" r="3.8" style="stroke-width:1.2;stroke:#b9519e;fill:#fff;stroke-linecap:round;stroke-linejoin:round;stroke-miterlimit:10"/><circle cx="212.28" cy="84.1" r="3.8" style="stroke-width:1.2;stroke:#b9519e;fill:#fff;stroke-linecap:round;stroke-linejoin:round;stroke-miterlimit:10"/><circle cx="263.71" cy="90.73" r="3.8" style="stroke-width:1.2;stroke:#b9519e;fill:#fff;stroke-linecap:round;stroke-linejoin:round;stroke-miterlimit:10"/><circle cx="315.13" cy="99.77" r="3.8" style="stroke-width:1.2;stroke:#b9519e;fill:#fff;stroke-linecap:round;stroke-linejoin:round;stroke-miterlimit:10"/><circle cx="366.56" cy="139.55" r="3.8" style="stroke-width:1.2;stroke:#b9519e;fill:#fff;stroke-linecap:round;stroke-linejoin:round;stroke-miterlimit:10"/><circle cx="417.98" cy="139.55" r="3.8" style="stroke-width:1.2;stroke:#b9519e;fill:#fff;stroke-linecap:round;stroke-linejoin:round;stroke-miterlimit:10"/><circle cx="469.41" cy="169.39" r="3.8" style="stroke-width:1.2;stroke:#b9519e;fill:#fff;stroke-linecap:round;stroke-linejoin:round;stroke-miterlimit:10"/><circle cx="520.83" cy="172.71" r="3.8" style="stroke-width:1.2;stroke:#b9519e;fill:#fff;stroke-linecap:round;stroke-linejoin:round;stroke-miterlimit:10"/><circle cx="572.26" cy="199.83" r="3.8" style="stroke-width:1.2;stroke:#b9519e;fill:#fff;stroke-linecap:round;stroke-linejoin:round;stroke-miterlimit:10"/><circle cx="109.43" cy="61.57" r="3.8" style="stroke-width:1.2;stroke:#4dd9ff;fill:#fff;stroke-linecap:round;stroke-linejoin:round;stroke-miterlimit:10"/><circle cx="160.86" cy="79.71" r="3.8" style="stroke-width:1.2;stroke:#4dd9ff;fill:#fff;stroke-linecap:round;stroke-linejoin:round;stroke-miterlimit:10"/><circle cx="212.28" cy="88.89" r="3.8" style="stroke-width:1.2;stroke:#4dd9ff;fill:#fff;stroke-linecap:round;stroke-linejoin:round;stroke-miterlimit:10"/><circle cx="263.71" cy="124.76" r="3.8" style="stroke-width:1.2;stroke:#4dd9ff;fill:#fff;stroke-linecap:round;stroke-linejoin:round;stroke-miterlimit:10"/><circle cx="315.13" cy="116.86" r="3.8" style="stroke-width:1.2;stroke:#4dd9ff;fill:#fff;stroke-linecap:round;stroke-linejoin:round;stroke-miterlimit:10"/><circle cx="366.56" cy="122.63" r="3.8" style="stroke-width:1.2;stroke:#4dd9ff;fill:#fff;stroke-linecap:round;stroke-linejoin:round;stroke-miterlimit:10"/><circle cx="417.98" cy="134.15" r="3.8" style="stroke-width:1.2;stroke:#4dd9ff;fill:#fff;stroke-linecap:round;stroke-linejoin:round;stroke-miterlimit:10"/><circle cx="469.41" cy="147.18" r="3.8" style="stroke-width:1.2;stroke:#4dd9ff;fill:#fff;stroke-linecap:round;stroke-linejoin:round;stroke-miterlimit:10"/><circle cx="520.83" cy="190.94" r="3.8" style="stroke-width:1.2;stroke:#4dd9ff;fill:#fff;stroke-linecap:round;stroke-linejoin:round;stroke-miterlimit:10"/><circle cx="572.26" cy="281.04" r="3.8" style="stroke-width:1.2;stroke:#4dd9ff;fill:#fff;stroke-linecap:round;stroke-linejoin:round;stroke-miterlimit:10"/><circle cx="109.43" cy="146.6" r="3.8" style="stroke-width:1.2;stroke:#f49323;fill:#fff;stroke-linecap:round;stroke-linejoin:round;stroke-miterlimit:10"/><circle cx="160.86" cy="117.04" r="3.8" style="stroke-width:1.2;stroke:#f49323;fill:#fff;stroke-linecap:round;stroke-linejoin:round;stroke-miterlimit:10"/><circle cx="212.28" cy="106.01" r="3.8" style="stroke-width:1.2;stroke:#f49323;fill:#fff;stroke-linecap:round;stroke-linejoin:round;stroke-miterlimit:10"/><circle cx="263.71" cy="130.84" r="3.8" style="stroke-width:1.2;stroke:#f49323;fill:#fff;stroke-linecap:round;stroke-linejoin:round;stroke-miterlimit:10"/><circle cx="315.13" cy="140.69" r="3.8" style="stroke-width:1.2;stroke:#f49323;fill:#fff;stroke-linecap:round;stroke-linejoin:round;stroke-miterlimit:10"/><circle cx="366.56" cy="131.23" r="3.8" style="stroke-width:1.2;stroke:#f49323;fill:#fff;stroke-linecap:round;stroke-linejoin:round;stroke-miterlimit:10"/><circle cx="417.98" cy="133.2" r="3.8" style="stroke-width:1.2;stroke:#f49323;fill:#fff;stroke-linecap:round;stroke-linejoin:round;stroke-miterlimit:10"/><circle cx="469.41" cy="134.78" r="3.8" style="stroke-width:1.2;stroke:#f49323;fill:#fff;stroke-linecap:round;stroke-linejoin:round;stroke-miterlimit:10"/><circle cx="520.83" cy="146.21" r="3.8" style="stroke-width:1.2;stroke:#f49323;fill:#fff;stroke-linecap:round;stroke-linejoin:round;stroke-miterlimit:10"/><circle cx="572.26" cy="187.99" r="3.8" style="stroke-width:1.2;stroke:#f49323;fill:#fff;stroke-linecap:round;stroke-linejoin:round;stroke-miterlimit:10"/><polygon points="109.43 113.97 114.55 122.84 104.31 122.84" style="stroke-width:1.2;stroke:#7f8182;fill:#fff;stroke-linecap:round;stroke-linejoin:round;stroke-miterlimit:10"/><polygon points="160.86 100.49 165.98 109.36 155.74 109.36" style="stroke-width:1.2;stroke:#7f8182;fill:#fff;stroke-linecap:round;stroke-linejoin:round;stroke-miterlimit:10"/><polygon points="212.28 95.9 217.4 104.77 207.16 104.77" style="stroke-width:1.2;stroke:#7f8182;fill:#fff;stroke-linecap:round;stroke-linejoin:round;stroke-miterlimit:10"/><polygon points="263.71 104.4 268.83 113.27 258.59 113.27" style="stroke-width:1.2;stroke:#7f8182;fill:#fff;stroke-linecap:round;stroke-linejoin:round;stroke-miterlimit:10"/><polygon points="315.13 124.35 320.25 133.22 310.01 133.22" style="stroke-width:1.2;stroke:#7f8182;fill:#fff;stroke-linecap:round;stroke-linejoin:round;stroke-miterlimit:10"/><polygon points="366.56 127.05 371.68 135.92 361.44 135.92" style="stroke-width:1.2;stroke:#7f8182;fill:#fff;stroke-linecap:round;stroke-linejoin:round;stroke-miterlimit:10"/><polygon points="417.98 157.52 423.1 166.39 412.86 166.39" style="stroke-width:1.2;stroke:#7f8182;fill:#fff;stroke-linecap:round;stroke-linejoin:round;stroke-miterlimit:10"/><polygon points="469.41 167.37 474.53 176.24 464.29 176.24" style="stroke-width:1.2;stroke:#7f8182;fill:#fff;stroke-linecap:round;stroke-linejoin:round;stroke-miterlimit:10"/><polygon points="520.83 168.58 525.95 177.45 515.71 177.45" style="stroke-width:1.2;stroke:#7f8182;fill:#fff;stroke-linecap:round;stroke-linejoin:round;stroke-miterlimit:10"/><polygon points="572.26 222.24 577.38 231.11 567.14 231.11" style="stroke-width:1.2;stroke:#7f8182;fill:#fff;stroke-linecap:round;stroke-linejoin:round;stroke-miterlimit:10"/><circle cx="109.43" cy="114.94" r="3.8" style="stroke-width:1.2;fill:#fff;stroke:#000;stroke-linecap:round;stroke-linejoin:round;stroke-miterlimit:10"/><circle cx="160.86" cy="92.74" r="3.8" style="stroke-width:1.2;fill:#fff;stroke:#000;stroke-linecap:round;stroke-linejoin:round;stroke-miterlimit:10"/><circle cx="212.28" cy="121.13" r="3.8" style="stroke-width:1.2;fill:#fff;stroke:#000;stroke-linecap:round;stroke-linejoin:round;stroke-miterlimit:10"/><circle cx="263.71" cy="124.12" r="3.8" style="stroke-width:1.2;fill:#fff;stroke:#000;stroke-linecap:round;stroke-linejoin:round;stroke-miterlimit:10"/><circle cx="315.13" cy="167.46" r="3.8" style="stroke-width:1.2;fill:#fff;stroke:#000;stroke-linecap:round;stroke-linejoin:round;stroke-miterlimit:10"/><circle cx="366.56" cy="196.49" r="3.8" style="stroke-width:1.2;fill:#fff;stroke:#000;stroke-linecap:round;stroke-linejoin:round;stroke-miterlimit:10"/><circle cx="417.98" cy="190.09" r="3.8" style="stroke-width:1.2;fill:#fff;stroke:#000;stroke-linecap:round;stroke-linejoin:round;stroke-miterlimit:10"/><circle cx="469.41" cy="192.22" r="3.8" style="stroke-width:1.2;fill:#fff;stroke:#000;stroke-linecap:round;stroke-linejoin:round;stroke-miterlimit:10"/><circle cx="520.83" cy="214.64" r="3.8" style="stroke-width:1.2;fill:#fff;stroke:#000;stroke-linecap:round;stroke-linejoin:round;stroke-miterlimit:10"/><circle cx="572.26" cy="265.88" r="3.8" style="stroke-width:1.2;fill:#fff;stroke:#000;stroke-linecap:round;stroke-linejoin:round;stroke-miterlimit:10"/><polygon points="109.43 81.15 114.2 76.39 109.43 71.62 104.67 76.39" style="stroke-width:1.2;stroke:#ed1f24;fill:#fff;stroke-linecap:round;stroke-linejoin:round;stroke-miterlimit:10"/><polygon points="160.86 86.28 165.62 81.51 160.86 76.75 156.09 81.51" style="stroke-width:1.2;stroke:#ed1f24;fill:#fff;stroke-linecap:round;stroke-linejoin:round;stroke-miterlimit:10"/><polygon points="212.28 86.28 217.05 81.51 212.28 76.75 207.52 81.51" style="stroke-width:1.2;stroke:#ed1f24;fill:#fff;stroke-linecap:round;stroke-linejoin:round;stroke-miterlimit:10"/><polygon points="263.71 114.09 268.47 109.33 263.71 104.56 258.94 109.33" style="stroke-width:1.2;stroke:#ed1f24;fill:#fff;stroke-linecap:round;stroke-linejoin:round;stroke-miterlimit:10"/><polygon points="315.13 120.68 319.9 115.92 315.13 111.15 310.37 115.92" style="stroke-width:1.2;stroke:#ed1f24;fill:#fff;stroke-linecap:round;stroke-linejoin:round;stroke-miterlimit:10"/><polygon points="366.56 138.98 371.32 134.21 366.56 129.45 361.79 134.21" style="stroke-width:1.2;stroke:#ed1f24;fill:#fff;stroke-linecap:round;stroke-linejoin:round;stroke-miterlimit:10"/><polygon points="417.98 161.31 422.75 156.54 417.98 151.78 413.22 156.54" style="stroke-width:1.2;stroke:#ed1f24;fill:#fff;stroke-linecap:round;stroke-linejoin:round;stroke-miterlimit:10"/><polygon points="469.41 220.23 474.17 215.46 469.41 210.7 464.64 215.46" style="stroke-width:1.2;stroke:#ed1f24;fill:#fff;stroke-linecap:round;stroke-linejoin:round;stroke-miterlimit:10"/><polygon points="520.83 261.58 525.6 256.82 520.83 252.05 516.07 256.82" style="stroke-width:1.2;stroke:#ed1f24;fill:#fff;stroke-linecap:round;stroke-linejoin:round;stroke-miterlimit:10"/><polygon points="572.26 286.47 577.02 281.71 572.26 276.94 567.49 281.71" style="stroke-width:1.2;stroke:#ed1f24;fill:#fff;stroke-linecap:round;stroke-linejoin:round;stroke-miterlimit:10"/><polygon points="109.43 124.49 114.2 119.72 109.43 114.96 104.67 119.72" style="stroke-width:1.2;stroke:#f49323;fill:#fff;stroke-linecap:round;stroke-linejoin:round;stroke-miterlimit:10"/><polygon points="160.86 125.51 165.62 120.75 160.86 115.98 156.09 120.75" style="stroke-width:1.2;stroke:#f49323;fill:#fff;stroke-linecap:round;stroke-linejoin:round;stroke-miterlimit:10"/><polygon points="212.28 110.82 217.05 106.06 212.28 101.29 207.52 106.06" style="stroke-width:1.2;stroke:#f49323;fill:#fff;stroke-linecap:round;stroke-linejoin:round;stroke-miterlimit:10"/><polygon points="263.71 127.56 268.47 122.8 263.71 118.03 258.94 122.8" style="stroke-width:1.2;stroke:#f49323;fill:#fff;stroke-linecap:round;stroke-linejoin:round;stroke-miterlimit:10"/><polygon points="315.13 127.56 319.9 122.8 315.13 118.03 310.37 122.8" style="stroke-width:1.2;stroke:#f49323;fill:#fff;stroke-linecap:round;stroke-linejoin:round;stroke-miterlimit:10"/><polygon points="366.56 153.86 371.32 149.1 366.56 144.33 361.79 149.1" style="stroke-width:1.2;stroke:#f49323;fill:#fff;stroke-linecap:round;stroke-linejoin:round;stroke-miterlimit:10"/><polygon points="417.98 189.39 422.75 184.62 417.98 179.86 413.22 184.62" style="stroke-width:1.2;stroke:#f49323;fill:#fff;stroke-linecap:round;stroke-linejoin:round;stroke-miterlimit:10"/><polygon points="469.41 171.28 474.17 166.52 469.41 161.75 464.64 166.52" style="stroke-width:1.2;stroke:#f49323;fill:#fff;stroke-linecap:round;stroke-linejoin:round;stroke-miterlimit:10"/><polygon points="520.83 195.2 525.6 190.43 520.83 185.67 516.07 190.43" style="stroke-width:1.2;stroke:#f49323;fill:#fff;stroke-linecap:round;stroke-linejoin:round;stroke-miterlimit:10"/><polygon points="572.26 264.88 577.02 260.11 572.26 255.35 567.49 260.11" style="stroke-width:1.2;stroke:#f49323;fill:#fff;stroke-linecap:round;stroke-linejoin:round;stroke-miterlimit:10"/><rect x="106.06" y="133.77" width="6.74" height="6.74" style="stroke-width:1.2;stroke:#b9519e;fill:#fff;stroke-linecap:round;stroke-linejoin:round;stroke-miterlimit:10"/><rect x="157.49" y="134.54" width="6.74" height="6.74" style="stroke-width:1.2;stroke:#b9519e;fill:#fff;stroke-linecap:round;stroke-linejoin:round;stroke-miterlimit:10"/><rect x="208.91" y="129.16" width="6.74" height="6.74" style="stroke-width:1.2;stroke:#b9519e;fill:#fff;stroke-linecap:round;stroke-linejoin:round;stroke-miterlimit:10"/><rect x="260.34" y="133.52" width="6.74" height="6.74" style="stroke-width:1.2;stroke:#b9519e;fill:#fff;stroke-linecap:round;stroke-linejoin:round;stroke-miterlimit:10"/><rect x="311.76" y="152.22" width="6.74" height="6.74" style="stroke-width:1.2;stroke:#b9519e;fill:#fff;stroke-linecap:round;stroke-linejoin:round;stroke-miterlimit:10"/><rect x="363.19" y="180.91" width="6.74" height="6.74" style="stroke-width:1.2;stroke:#b9519e;fill:#fff;stroke-linecap:round;stroke-linejoin:round;stroke-miterlimit:10"/><rect x="414.61" y="202.69" width="6.74" height="6.74" style="stroke-width:1.2;stroke:#b9519e;fill:#fff;stroke-linecap:round;stroke-linejoin:round;stroke-miterlimit:10"/><rect x="466.04" y="215.5" width="6.74" height="6.74" style="stroke-width:1.2;stroke:#b9519e;fill:#fff;stroke-linecap:round;stroke-linejoin:round;stroke-miterlimit:10"/><rect x="517.46" y="246.24" width="6.74" height="6.74" style="stroke-width:1.2;stroke:#b9519e;fill:#fff;stroke-linecap:round;stroke-linejoin:round;stroke-miterlimit:10"/><rect x="568.89" y="289.54" width="6.74" height="6.74" style="stroke-width:1.2;stroke:#b9519e;fill:#fff;stroke-linecap:round;stroke-linejoin:round;stroke-miterlimit:10"/><polygon points="109.43 167.1 114.55 175.97 104.31 175.97" style="stroke-width:1.2;stroke:#4dd9ff;fill:#fff;stroke-linecap:round;stroke-linejoin:round;stroke-miterlimit:10"/><polygon points="160.86 148.8 165.98 157.67 155.74 157.67" style="stroke-width:1.2;stroke:#4dd9ff;fill:#fff;stroke-linecap:round;stroke-linejoin:round;stroke-miterlimit:10"/><polygon points="212.28 133.43 217.4 142.3 207.16 142.3" style="stroke-width:1.2;stroke:#4dd9ff;fill:#fff;stroke-linecap:round;stroke-linejoin:round;stroke-miterlimit:10"/><polygon points="263.71 138.06 268.83 146.93 258.59 146.93" style="stroke-width:1.2;stroke:#4dd9ff;fill:#fff;stroke-linecap:round;stroke-linejoin:round;stroke-miterlimit:10"/><polygon points="315.13 151.48 320.25 160.35 310.01 160.35" style="stroke-width:1.2;stroke:#4dd9ff;fill:#fff;stroke-linecap:round;stroke-linejoin:round;stroke-miterlimit:10"/><polygon points="366.56 160.75 371.68 169.62 361.44 169.62" style="stroke-width:1.2;stroke:#4dd9ff;fill:#fff;stroke-linecap:round;stroke-linejoin:round;stroke-miterlimit:10"/><polygon points="417.98 174.42 423.1 183.29 412.86 183.29" style="stroke-width:1.2;stroke:#4dd9ff;fill:#fff;stroke-linecap:round;stroke-linejoin:round;stroke-miterlimit:10"/><polygon points="469.41 190.03 474.53 198.9 464.29 198.9" style="stroke-width:1.2;stroke:#4dd9ff;fill:#fff;stroke-linecap:round;stroke-linejoin:round;stroke-miterlimit:10"/><polygon points="520.83 216.14 525.95 225.01 515.71 225.01" style="stroke-width:1.2;stroke:#4dd9ff;fill:#fff;stroke-linecap:round;stroke-linejoin:round;stroke-miterlimit:10"/><polygon points="572.26 258.1 577.38 266.97 567.14 266.97" style="stroke-width:1.2;stroke:#4dd9ff;fill:#fff;stroke-linecap:round;stroke-linejoin:round;stroke-miterlimit:10"/><circle cx="109.43" cy="178.99" r="3.8" style="stroke-width:1.2;stroke:#ed1f24;fill:#fff;stroke-linecap:round;stroke-linejoin:round;stroke-miterlimit:10"/><circle cx="160.86" cy="183.68" r="3.8" style="stroke-width:1.2;stroke:#ed1f24;fill:#fff;stroke-linecap:round;stroke-linejoin:round;stroke-miterlimit:10"/><circle cx="212.28" cy="194.79" r="3.8" style="stroke-width:1.2;stroke:#ed1f24;fill:#fff;stroke-linecap:round;stroke-linejoin:round;stroke-miterlimit:10"/><circle cx="263.71" cy="180.7" r="3.8" style="stroke-width:1.2;stroke:#ed1f24;fill:#fff;stroke-linecap:round;stroke-linejoin:round;stroke-miterlimit:10"/><circle cx="315.13" cy="180.27" r="3.8" style="stroke-width:1.2;stroke:#ed1f24;fill:#fff;stroke-linecap:round;stroke-linejoin:round;stroke-miterlimit:10"/><circle cx="366.56" cy="182.4" r="3.8" style="stroke-width:1.2;stroke:#ed1f24;fill:#fff;stroke-linecap:round;stroke-linejoin:round;stroke-miterlimit:10"/><circle cx="417.98" cy="175.14" r="3.8" style="stroke-width:1.2;stroke:#ed1f24;fill:#fff;stroke-linecap:round;stroke-linejoin:round;stroke-miterlimit:10"/><circle cx="469.41" cy="172.16" r="3.8" style="stroke-width:1.2;stroke:#ed1f24;fill:#fff;stroke-linecap:round;stroke-linejoin:round;stroke-miterlimit:10"/><circle cx="520.83" cy="187.53" r="3.8" style="stroke-width:1.2;stroke:#ed1f24;fill:#fff;stroke-linecap:round;stroke-linejoin:round;stroke-miterlimit:10"/><circle cx="572.26" cy="221.69" r="3.8" style="stroke-width:1.2;stroke:#ed1f24;fill:#fff;stroke-linecap:round;stroke-linejoin:round;stroke-miterlimit:10"/><rect x="106.06" y="114.74" width="6.74" height="6.74" style="stroke-width:1.2;stroke:#1f3bff;fill:#fff;stroke-linecap:round;stroke-linejoin:round;stroke-miterlimit:10"/><rect x="157.49" y="122.79" width="6.74" height="6.74" style="stroke-width:1.2;stroke:#1f3bff;fill:#fff;stroke-linecap:round;stroke-linejoin:round;stroke-miterlimit:10"/><rect x="208.91" y="151.71" width="6.74" height="6.74" style="stroke-width:1.2;stroke:#1f3bff;fill:#fff;stroke-linecap:round;stroke-linejoin:round;stroke-miterlimit:10"/><rect x="260.34" y="154.63" width="6.74" height="6.74" style="stroke-width:1.2;stroke:#1f3bff;fill:#fff;stroke-linecap:round;stroke-linejoin:round;stroke-miterlimit:10"/><rect x="311.76" y="173.3" width="6.74" height="6.74" style="stroke-width:1.2;stroke:#1f3bff;fill:#fff;stroke-linecap:round;stroke-linejoin:round;stroke-miterlimit:10"/><rect x="363.19" y="227.83" width="6.74" height="6.74" style="stroke-width:1.2;stroke:#1f3bff;fill:#fff;stroke-linecap:round;stroke-linejoin:round;stroke-miterlimit:10"/><rect x="414.61" y="229.3" width="6.74" height="6.74" style="stroke-width:1.2;stroke:#1f3bff;fill:#fff;stroke-linecap:round;stroke-linejoin:round;stroke-miterlimit:10"/><rect x="466.04" y="243.2" width="6.74" height="6.74" style="stroke-width:1.2;stroke:#1f3bff;fill:#fff;stroke-linecap:round;stroke-linejoin:round;stroke-miterlimit:10"/><rect x="517.46" y="255.65" width="6.74" height="6.74" style="stroke-width:1.2;stroke:#1f3bff;fill:#fff;stroke-linecap:round;stroke-linejoin:round;stroke-miterlimit:10"/><rect x="568.89" y="289.68" width="6.74" height="6.74" style="stroke-width:1.2;stroke:#1f3bff;fill:#fff;stroke-linecap:round;stroke-linejoin:round;stroke-miterlimit:10"/><circle cx="109.43" cy="175.34" r="3.8" style="stroke-width:1.2;stroke:#009147;fill:#fff;stroke-linecap:round;stroke-linejoin:round;stroke-miterlimit:10"/><circle cx="160.86" cy="213.53" r="3.8" style="stroke-width:1.2;stroke:#009147;fill:#fff;stroke-linecap:round;stroke-linejoin:round;stroke-miterlimit:10"/><circle cx="212.28" cy="210.74" r="3.8" style="stroke-width:1.2;stroke:#009147;fill:#fff;stroke-linecap:round;stroke-linejoin:round;stroke-miterlimit:10"/><circle cx="263.71" cy="212.6" r="3.8" style="stroke-width:1.2;stroke:#009147;fill:#fff;stroke-linecap:round;stroke-linejoin:round;stroke-miterlimit:10"/><circle cx="315.13" cy="204.22" r="3.8" style="stroke-width:1.2;stroke:#009147;fill:#fff;stroke-linecap:round;stroke-linejoin:round;stroke-miterlimit:10"/><circle cx="366.56" cy="212.6" r="3.8" style="stroke-width:1.2;stroke:#009147;fill:#fff;stroke-linecap:round;stroke-linejoin:round;stroke-miterlimit:10"/><circle cx="417.98" cy="221.92" r="3.8" style="stroke-width:1.2;stroke:#009147;fill:#fff;stroke-linecap:round;stroke-linejoin:round;stroke-miterlimit:10"/><circle cx="469.41" cy="214" r="3.8" style="stroke-width:1.2;stroke:#009147;fill:#fff;stroke-linecap:round;stroke-linejoin:round;stroke-miterlimit:10"/><circle cx="520.83" cy="220.99" r="3.8" style="stroke-width:1.2;stroke:#009147;fill:#fff;stroke-linecap:round;stroke-linejoin:round;stroke-miterlimit:10"/><circle cx="572.26" cy="232.17" r="3.8" style="stroke-width:1.2;stroke:#009147;fill:#fff;stroke-linecap:round;stroke-linejoin:round;stroke-miterlimit:10"/><circle cx="109.43" cy="158.92" r="3.8" style="stroke-width:1.2;stroke:#7f8182;fill:#fff;stroke-linecap:round;stroke-linejoin:round;stroke-miterlimit:10"/><circle cx="160.86" cy="157.32" r="3.8" style="stroke-width:1.2;stroke:#7f8182;fill:#fff;stroke-linecap:round;stroke-linejoin:round;stroke-miterlimit:10"/><circle cx="212.28" cy="169.17" r="3.8" style="stroke-width:1.2;stroke:#7f8182;fill:#fff;stroke-linecap:round;stroke-linejoin:round;stroke-miterlimit:10"/><circle cx="263.71" cy="200.23" r="3.8" style="stroke-width:1.2;stroke:#7f8182;fill:#fff;stroke-linecap:round;stroke-linejoin:round;stroke-miterlimit:10"/><circle cx="315.13" cy="222.97" r="3.8" style="stroke-width:1.2;stroke:#7f8182;fill:#fff;stroke-linecap:round;stroke-linejoin:round;stroke-miterlimit:10"/><circle cx="366.56" cy="248.91" r="3.8" style="stroke-width:1.2;stroke:#7f8182;fill:#fff;stroke-linecap:round;stroke-linejoin:round;stroke-miterlimit:10"/><circle cx="417.98" cy="261.71" r="3.8" style="stroke-width:1.2;stroke:#7f8182;fill:#fff;stroke-linecap:round;stroke-linejoin:round;stroke-miterlimit:10"/><circle cx="469.41" cy="277.41" r="3.8" style="stroke-width:1.2;stroke:#7f8182;fill:#fff;stroke-linecap:round;stroke-linejoin:round;stroke-miterlimit:10"/><circle cx="520.83" cy="297.58" r="3.8" style="stroke-width:1.2;stroke:#7f8182;fill:#fff;stroke-linecap:round;stroke-linejoin:round;stroke-miterlimit:10"/><circle cx="572.26" cy="314.23" r="3.8" style="stroke-width:1.2;stroke:#7f8182;fill:#fff;stroke-linecap:round;stroke-linejoin:round;stroke-miterlimit:10"/><polygon points="109.43 178.29 114.2 173.52 109.43 168.76 104.67 173.52" style="stroke-width:1.2;stroke:#b9519e;fill:#fff;stroke-linecap:round;stroke-linejoin:round;stroke-miterlimit:10"/><polygon points="160.86 196.73 165.62 191.97 160.86 187.2 156.09 191.97" style="stroke-width:1.2;stroke:#b9519e;fill:#fff;stroke-linecap:round;stroke-linejoin:round;stroke-miterlimit:10"/><polygon points="212.28 218.76 217.05 214 212.28 209.23 207.52 214" style="stroke-width:1.2;stroke:#b9519e;fill:#fff;stroke-linecap:round;stroke-linejoin:round;stroke-miterlimit:10"/><polygon points="263.71 224.4 268.47 219.64 263.71 214.87 258.94 219.64" style="stroke-width:1.2;stroke:#b9519e;fill:#fff;stroke-linecap:round;stroke-linejoin:round;stroke-miterlimit:10"/><polygon points="315.13 235.67 319.9 230.91 315.13 226.14 310.37 230.91" style="stroke-width:1.2;stroke:#b9519e;fill:#fff;stroke-linecap:round;stroke-linejoin:round;stroke-miterlimit:10"/><polygon points="366.56 243.36 371.32 238.59 366.56 233.83 361.79 238.59" style="stroke-width:1.2;stroke:#b9519e;fill:#fff;stroke-linecap:round;stroke-linejoin:round;stroke-miterlimit:10"/><polygon points="417.98 259.24 422.75 254.48 417.98 249.71 413.22 254.48" style="stroke-width:1.2;stroke:#b9519e;fill:#fff;stroke-linecap:round;stroke-linejoin:round;stroke-miterlimit:10"/><polygon points="469.41 281.27 474.17 276.51 469.41 271.74 464.64 276.51" style="stroke-width:1.2;stroke:#b9519e;fill:#fff;stroke-linecap:round;stroke-linejoin:round;stroke-miterlimit:10"/><polygon points="520.83 299.72 525.6 294.96 520.83 290.19 516.07 294.96" style="stroke-width:1.2;stroke:#b9519e;fill:#fff;stroke-linecap:round;stroke-linejoin:round;stroke-miterlimit:10"/><polygon points="572.26 320.22 577.02 315.45 572.26 310.69 567.49 315.45" style="stroke-width:1.2;stroke:#b9519e;fill:#fff;stroke-linecap:round;stroke-linejoin:round;stroke-miterlimit:10"/><polyline points="83.72 342.09 83.72 14.17" style="stroke-width:1.07;stroke:#464646;stroke-linecap:butt;fill:none;stroke-linejoin:round;stroke-miterlimit:10"/><text x="57.04" y="346.5" style="font-size:18px;font-family:Asap" textLength="9.63" lengthAdjust="spacingAndGlyphs">0</text><text x="57.04" y="264.52" style="font-size:18px;font-family:Asap" textLength="9.63" lengthAdjust="spacingAndGlyphs">4</text><text x="57.04" y="182.54" style="font-size:18px;font-family:Asap" textLength="9.63" lengthAdjust="spacingAndGlyphs">8</text><text x="47.41" y="100.56" style="font-size:18px;font-family:Asap" textLength="19.27" lengthAdjust="spacingAndGlyphs">12</text><text x="47.41" y="18.58" style="font-size:18px;font-family:Asap" textLength="19.27" lengthAdjust="spacingAndGlyphs">16</text><polyline points="76.64 342.09 83.72 342.09" style="stroke-width:1.07;stroke:#464646;stroke-linecap:butt;fill:none;stroke-linejoin:round;stroke-miterlimit:10"/><polyline points="76.64 260.11 83.72 260.11" style="stroke-width:1.07;stroke:#464646;stroke-linecap:butt;fill:none;stroke-linejoin:round;stroke-miterlimit:10"/><polyline points="76.64 178.13 83.72 178.13" style="stroke-width:1.07;stroke:#464646;stroke-linecap:butt;fill:none;stroke-linejoin:round;stroke-miterlimit:10"/><polyline points="76.64 96.15 83.72 96.15" style="stroke-width:1.07;stroke:#464646;stroke-linecap:butt;fill:none;stroke-linejoin:round;stroke-miterlimit:10"/><polyline points="76.64 14.17 83.72 14.17" style="stroke-width:1.07;stroke:#464646;stroke-linecap:butt;fill:none;stroke-linejoin:round;stroke-miterlimit:10"/><polyline points="83.72 342.09 572.26 342.09" style="stroke-width:1.07;stroke:#464646;stroke-linecap:butt;fill:none;stroke-linejoin:round;stroke-miterlimit:10"/><polyline points="109.43 349.18 109.43 342.09" style="stroke-width:1.07;stroke:#464646;stroke-linecap:butt;fill:none;stroke-linejoin:round;stroke-miterlimit:10"/><polyline points="160.86 349.18 160.86 342.09" style="stroke-width:1.07;stroke:#464646;stroke-linecap:butt;fill:none;stroke-linejoin:round;stroke-miterlimit:10"/><polyline points="212.28 349.18 212.28 342.09" style="stroke-width:1.07;stroke:#464646;stroke-linecap:butt;fill:none;stroke-linejoin:round;stroke-miterlimit:10"/><polyline points="263.71 349.18 263.71 342.09" style="stroke-width:1.07;stroke:#464646;stroke-linecap:butt;fill:none;stroke-linejoin:round;stroke-miterlimit:10"/><polyline points="315.13 349.18 315.13 342.09" style="stroke-width:1.07;stroke:#464646;stroke-linecap:butt;fill:none;stroke-linejoin:round;stroke-miterlimit:10"/><polyline points="366.56 349.18 366.56 342.09" style="stroke-width:1.07;stroke:#464646;stroke-linecap:butt;fill:none;stroke-linejoin:round;stroke-miterlimit:10"/><polyline points="417.98 349.18 417.98 342.09" style="stroke-width:1.07;stroke:#464646;stroke-linecap:butt;fill:none;stroke-linejoin:round;stroke-miterlimit:10"/><polyline points="469.41 349.18 469.41 342.09" style="stroke-width:1.07;stroke:#464646;stroke-linecap:butt;fill:none;stroke-linejoin:round;stroke-miterlimit:10"/><polyline points="520.83 349.18 520.83 342.09" style="stroke-width:1.07;stroke:#464646;stroke-linecap:butt;fill:none;stroke-linejoin:round;stroke-miterlimit:10"/><polyline points="572.26 349.18 572.26 342.09" style="stroke-width:1.07;stroke:#464646;stroke-linecap:butt;fill:none;stroke-linejoin:round;stroke-miterlimit:10"/><text x="104.62" y="371.78" style="font-size:18px;font-family:Asap" textLength="9.63" lengthAdjust="spacingAndGlyphs">1</text><text x="156.04" y="371.78" style="font-size:18px;font-family:Asap" textLength="9.63" lengthAdjust="spacingAndGlyphs">2</text><text x="207.47" y="371.78" style="font-size:18px;font-family:Asap" textLength="9.63" lengthAdjust="spacingAndGlyphs">3</text><text x="258.89" y="371.78" style="font-size:18px;font-family:Asap" textLength="9.63" lengthAdjust="spacingAndGlyphs">4</text><text x="310.32" y="371.78" style="font-size:18px;font-family:Asap" textLength="9.63" lengthAdjust="spacingAndGlyphs">5</text><text x="361.74" y="371.78" style="font-size:18px;font-family:Asap" textLength="9.63" lengthAdjust="spacingAndGlyphs">6</text><text x="413.17" y="371.78" style="font-size:18px;font-family:Asap" textLength="9.63" lengthAdjust="spacingAndGlyphs">7</text><text x="464.59" y="371.78" style="font-size:18px;font-family:Asap" textLength="9.63" lengthAdjust="spacingAndGlyphs">8</text><text x="516.02" y="371.78" style="font-size:18px;font-family:Asap" textLength="9.63" lengthAdjust="spacingAndGlyphs">9</text><text x="562.62" y="371.78" style="font-size:18px;font-family:Asap" textLength="19.27" lengthAdjust="spacingAndGlyphs">10</text><text x="299.25" y="404.59" style="font-size:20px;font-weight:600;font-family:Asap" textLength="57.48" lengthAdjust="spacingAndGlyphs">Period</text><text transform="rotate(-90 181.595 153.375)" style="font-size:20px;font-weight:600;font-family:Asap" textLength="49.68" lengthAdjust="spacingAndGlyphs">Mean</text><text transform="rotate(-90 154.355 126.135)" style="font-size:20px;font-weight:600;font-family:Asap" textLength="108.86" lengthAdjust="spacingAndGlyphs">contribution</text><text transform="rotate(-90 97.52 69.3)" style="font-size:20px;font-weight:600;font-family:Asap" textLength="18.22" lengthAdjust="spacingAndGlyphs">to</text><text transform="rotate(-90 86.01 57.79)" style="font-size:20px;font-weight:600;font-family:Asap" textLength="77.53" lengthAdjust="spacingAndGlyphs">common</text><text transform="rotate(-90 44.84 16.62)" style="font-size:20px;font-weight:600;font-family:Asap" textLength="40.17" lengthAdjust="spacingAndGlyphs">pool</text><rect x="583.22" y="-2.89" width="212.61" height="362.04" style="stroke-width:1.07;stroke:none;fill:none;stroke-linecap:round;stroke-linejoin:round;stroke-miterlimit:10"/><line x1="590.86" y1="18.87" x2="608.14" y2="18.87" style="stroke-width:1.07;stroke:#ed1f24;stroke-linecap:butt;fill:none;stroke-linejoin:round;stroke-miterlimit:10"/><rect x="600.92" y="13.82" width="10.11" height="10.11" style="stroke-width:1.2;stroke:#ed1f24;fill:#fff;stroke-linecap:round;stroke-linejoin:round;stroke-miterlimit:10"/><line x1="590.86" y1="40.47" x2="608.14" y2="40.47" style="stroke-width:1.07;stroke:#009147;stroke-dasharray:2.85,2.85;stroke-linecap:butt;fill:none;stroke-linejoin:round;stroke-miterlimit:10"/><polygon points="605.98 31.6 613.66 44.91 598.3 44.91" style="stroke-width:1.2;stroke:#009147;fill:#fff;stroke-linecap:round;stroke-linejoin:round;stroke-miterlimit:10"/><line x1="590.86" y1="62.07" x2="608.14" y2="62.07" style="stroke-width:1.07;stroke:#b9519e;stroke-linecap:butt;fill:none;stroke-linejoin:round;stroke-miterlimit:10"/><circle cx="605.98" cy="62.07" r="5.7" style="stroke-width:1.2;stroke:#b9519e;fill:#fff;stroke-linecap:round;stroke-linejoin:round;stroke-miterlimit:10"/><line x1="590.86" y1="83.67" x2="608.14" y2="83.67" style="stroke-width:1.07;stroke:#4dd9ff;stroke-linecap:butt;fill:none;stroke-linejoin:round;stroke-miterlimit:10"/><circle cx="605.98" cy="83.67" r="5.7" style="stroke-width:1.2;stroke:#4dd9ff;fill:#fff;stroke-linecap:round;stroke-linejoin:round;stroke-miterlimit:10"/><line x1="590.86" y1="105.27" x2="608.14" y2="105.27" style="stroke-width:1.07;stroke:#f49323;stroke-dasharray:2.85,2.85;stroke-linecap:butt;fill:none;stroke-linejoin:round;stroke-miterlimit:10"/><circle cx="605.98" cy="105.27" r="5.7" style="stroke-width:1.2;stroke:#f49323;fill:#fff;stroke-linecap:round;stroke-linejoin:round;stroke-miterlimit:10"/><line x1="590.86" y1="126.87" x2="608.14" y2="126.87" style="stroke-width:1.07;stroke:#7f8182;stroke-linecap:butt;fill:none;stroke-linejoin:round;stroke-miterlimit:10"/><polygon points="605.98 118 613.66 131.31 598.3 131.31" style="stroke-width:1.2;stroke:#7f8182;fill:#fff;stroke-linecap:round;stroke-linejoin:round;stroke-miterlimit:10"/><line x1="590.86" y1="148.47" x2="608.14" y2="148.47" style="stroke-width:1.07;stroke-linecap:butt;fill:none;stroke:#000;stroke-linejoin:round;stroke-miterlimit:10"/><circle cx="605.98" cy="148.47" r="5.7" style="stroke-width:1.2;fill:#fff;stroke:#000;stroke-linecap:round;stroke-linejoin:round;stroke-miterlimit:10"/><line x1="590.86" y1="170.07" x2="608.14" y2="170.07" style="stroke-width:1.07;stroke:#ed1f24;stroke-dasharray:2.85,2.85;stroke-linecap:butt;fill:none;stroke-linejoin:round;stroke-miterlimit:10"/><polygon points="605.98 177.22 613.12 170.07 605.98 162.93 598.83 170.07" style="stroke-width:1.2;stroke:#ed1f24;fill:#fff;stroke-linecap:round;stroke-linejoin:round;stroke-miterlimit:10"/><line x1="590.86" y1="191.67" x2="608.14" y2="191.67" style="stroke-width:1.07;stroke:#f49323;stroke-linecap:butt;fill:none;stroke-linejoin:round;stroke-miterlimit:10"/><polygon points="605.98 198.82 613.12 191.67 605.98 184.53 598.83 191.67" style="stroke-width:1.2;stroke:#f49323;fill:#fff;stroke-linecap:round;stroke-linejoin:round;stroke-miterlimit:10"/><line x1="590.86" y1="213.27" x2="608.14" y2="213.27" style="stroke-width:1.07;stroke:#b9519e;stroke-dasharray:2.85,2.85;stroke-linecap:butt;fill:none;stroke-linejoin:round;stroke-miterlimit:10"/><rect x="600.92" y="208.22" width="10.11" height="10.11" style="stroke-width:1.2;stroke:#b9519e;fill:#fff;stroke-linecap:round;stroke-linejoin:round;stroke-miterlimit:10"/><line x1="590.86" y1="234.87" x2="608.14" y2="234.87" style="stroke-width:1.07;stroke:#4dd9ff;stroke-dasharray:2.85,2.85;stroke-linecap:butt;fill:none;stroke-linejoin:round;stroke-miterlimit:10"/><polygon points="605.98 226 613.66 239.31 598.3 239.31" style="stroke-width:1.2;stroke:#4dd9ff;fill:#fff;stroke-linecap:round;stroke-linejoin:round;stroke-miterlimit:10"/><line x1="590.86" y1="256.47" x2="608.14" y2="256.47" style="stroke-width:1.07;stroke:#ed1f24;stroke-dasharray:2.85,2.85;stroke-linecap:butt;fill:none;stroke-linejoin:round;stroke-miterlimit:10"/><circle cx="605.98" cy="256.47" r="5.7" style="stroke-width:1.2;stroke:#ed1f24;fill:#fff;stroke-linecap:round;stroke-linejoin:round;stroke-miterlimit:10"/><line x1="590.86" y1="278.07" x2="608.14" y2="278.07" style="stroke-width:1.07;stroke:#1f3bff;stroke-linecap:butt;fill:none;stroke-linejoin:round;stroke-miterlimit:10"/><rect x="600.92" y="273.02" width="10.11" height="10.11" style="stroke-width:1.2;stroke:#1f3bff;fill:#fff;stroke-linecap:round;stroke-linejoin:round;stroke-miterlimit:10"/><line x1="590.86" y1="299.67" x2="608.14" y2="299.67" style="stroke-width:1.07;stroke:#009147;stroke-linecap:butt;fill:none;stroke-linejoin:round;stroke-miterlimit:10"/><circle cx="605.98" cy="299.67" r="5.7" style="stroke-width:1.2;stroke:#009147;fill:#fff;stroke-linecap:round;stroke-linejoin:round;stroke-miterlimit:10"/><line x1="590.86" y1="321.27" x2="608.14" y2="321.27" style="stroke-width:1.07;stroke:#7f8182;stroke-dasharray:2.85,2.85;stroke-linecap:butt;fill:none;stroke-linejoin:round;stroke-miterlimit:10"/><circle cx="605.98" cy="321.27" r="5.7" style="stroke-width:1.2;stroke:#7f8182;fill:#fff;stroke-linecap:round;stroke-linejoin:round;stroke-miterlimit:10"/><line x1="590.86" y1="342.87" x2="608.14" y2="342.87" style="stroke-width:1.07;stroke:#b9519e;stroke-linecap:butt;fill:none;stroke-linejoin:round;stroke-miterlimit:10"/><polygon points="605.98 350.02 613.12 342.87 605.98 335.73 598.83 342.87" style="stroke-width:1.2;stroke:#b9519e;fill:#fff;stroke-linecap:round;stroke-linejoin:round;stroke-miterlimit:10"/><text x="615.78" y="22.79" style="font-size:16px;font-family:Asap" textLength="89.73" lengthAdjust="spacingAndGlyphs">Copenhagen</text><text x="615.78" y="44.39" style="font-size:16px;font-family:Asap" textLength="112.71" lengthAdjust="spacingAndGlyphs">Dnipropetrovs’k</text><text x="732.32" y="44.39" style="font-size:16px;font-family:Asap" textLength="58.02" lengthAdjust="spacingAndGlyphs">(Dnipro)</text><text x="615.78" y="65.99" style="font-size:16px;font-family:Asap" textLength="41.59" lengthAdjust="spacingAndGlyphs">Minsk</text><text x="615.78" y="87.59" style="font-size:16px;font-family:Asap" textLength="16.64" lengthAdjust="spacingAndGlyphs">St.</text><text x="636.25" y="87.59" style="font-size:16px;font-family:Asap" textLength="46.51" lengthAdjust="spacingAndGlyphs">Gallen</text><text x="615.78" y="109.19" style="font-size:16px;font-family:Asap" textLength="50.96" lengthAdjust="spacingAndGlyphs">Muscat</text><text x="615.78" y="130.79" style="font-size:16px;font-family:Asap" textLength="53.58" lengthAdjust="spacingAndGlyphs">Samara</text><text x="615.78" y="152.39" style="font-size:16px;font-family:Asap" textLength="45.66" lengthAdjust="spacingAndGlyphs">Zurich</text><text x="615.78" y="173.99" style="font-size:16px;font-family:Asap" textLength="48.69" lengthAdjust="spacingAndGlyphs">Boston</text><text x="615.78" y="195.59" style="font-size:16px;font-family:Asap" textLength="36.42" lengthAdjust="spacingAndGlyphs">Bonn</text><text x="615.78" y="217.19" style="font-size:16px;font-family:Asap" textLength="63.16" lengthAdjust="spacingAndGlyphs">Chengdu</text><text x="615.78" y="238.79" style="font-size:16px;font-family:Asap" textLength="39.39" lengthAdjust="spacingAndGlyphs">Seoul</text><text x="615.78" y="260.39" style="font-size:16px;font-family:Asap" textLength="48.48" lengthAdjust="spacingAndGlyphs">Riyadh</text><text x="615.78" y="281.99" style="font-size:16px;font-family:Asap" textLength="84.76" lengthAdjust="spacingAndGlyphs">Nottingham</text><text x="615.78" y="303.59" style="font-size:16px;font-family:Asap" textLength="48.46" lengthAdjust="spacingAndGlyphs">Athens</text><text x="615.78" y="325.19" style="font-size:16px;font-family:Asap" textLength="57.01" lengthAdjust="spacingAndGlyphs">Istanbul</text><text x="615.78" y="346.79" style="font-size:16px;font-family:Asap" textLength="77.37" lengthAdjust="spacingAndGlyphs">Melbourne</text></g></svg>