<svg version="1.1" xmlns="http://www.w3.org/2000/svg" x="0" y="0" viewBox="0 0 311.81 228.58" style="enable-background:new 0 0 311.81 228.58" xml:space="preserve"><line x1="41.76" y1="199.36" x2="41.76" y2="6.4" style="fill:none;stroke-width:.5;stroke:#6d6e71;stroke-linecap:square"/><line x1="41.76" y1="199.36" x2="296.82" y2="199.36" style="fill:none;stroke-width:.5;stroke:#6d6e71;stroke-linecap:square"/><path d="M176.26 135.87l2.32 1.93 2.32 1.93 2.32 1.93 2.32 1.93 2.32 1.93 2.32 1.93 2.32 1.93 2.32 1.93 2.32 1.93 2.32 1.93 2.32 1.93 2.32 1.93 2.32 1.93 2.32 1.93 2.32 1.93 2.32 1.93 2.32 1.93 2.32 1.93 2.32 1.93 2.32 1.93 2.32 1.93 2.32 1.93c.21.18 1.16.96 2.32 1.93 4.22 3.51 15.32 12.75 22.98 19.12" style="fill:none;stroke-width:.5;stroke:#ed1f24;stroke-linejoin:round;stroke-dasharray:1.417"/><path d="M122.92 91.49l2.32 1.93 2.32 1.93 2.32 1.93 2.32 1.93 2.32 1.93 2.32 1.93 2.32 1.93 2.32 1.93 2.32 1.93 2.32 1.93 2.32 1.93 2.32 1.93 2.32 1.93 2.32 1.93 2.32 1.93 2.32 1.93 2.32 1.93 2.32 1.93 2.32 1.93 2.32 1.93 2.32 1.93 2.32 1.93 2.32 1.93" style="stroke:#ed1f24;stroke-linejoin:round;fill:none;stroke-width:.5"/><path d="M41.76 23.96l2.32 1.93 2.32 1.93 2.32 1.93 2.32 1.93 2.32 1.93 2.32 1.93L58 37.47l2.32 1.93 2.32 1.93 2.32 1.93 2.32 1.93 2.32 1.93 2.32 1.93 2.32 1.93 2.32 1.93 2.32 1.93 2.32 1.93 2.32 1.93 2.32 1.93 2.32 1.93 2.32 1.93 2.32 1.93 2.32 1.93 2.32 1.93 2.32 1.93 2.32 1.93 2.32 1.93 2.32 1.93 2.32 1.93 2.32 1.93 2.32 1.93 2.32 1.93 2.32 1.93 2.32 1.93 2.32 1.93" style="fill:none;stroke-width:.5;stroke:#ed1f24;stroke-linejoin:round;stroke-dasharray:1.417"/><path d="M122.93 91.48c-.35-.29-.53-.44-1.04-.88s-1.36-1.17-2.03-1.75c-.66-.58-1.31-1.17-1.95-1.75-.64-.58-1.26-1.17-1.87-1.75-.61-.58-1.21-1.17-1.8-1.75-.59-.58-1.16-1.17-1.73-1.75-.56-.58-1.12-1.17-1.66-1.75-.54-.58-1.07-1.17-1.59-1.75-.52-.58-1.03-1.17-1.52-1.75-.5-.58-.98-1.17-1.46-1.75-.48-.58-.94-1.17-1.4-1.75-.46-.58-.9-1.17-1.34-1.75-.44-.58-.86-1.17-1.28-1.75-.42-.58-.83-1.17-1.22-1.75a88.845 88.845 0 01-2.28-3.5c-.36-.58-.71-1.17-1.06-1.75-.34-.58-.68-1.17-1.01-1.75-.33-.58-.64-1.17-.95-1.75-.31-.58-.61-1.17-.9-1.75-.29-.58-.58-1.17-.85-1.75-.28-.58-.54-1.17-.8-1.75-.26-.58-.51-1.17-.75-1.75-.24-.58-.48-1.17-.7-1.75-.23-.58-.45-1.17-.66-1.75-.21-.58-.41-1.17-.61-1.75-.2-.58-.38-1.17-.56-1.75-.18-.58-.35-1.17-.52-1.75-.16-.58-.32-1.17-.47-1.75-.15-.58-.29-1.17-.42-1.75-.13-.58-.26-1.17-.38-1.75-.12-.58-.23-1.17-.33-1.75s-.2-1.17-.29-1.75c-.09-.58-.17-1.17-.24-1.75-.07-.58-.14-1.17-.2-1.75-.06-.58-.11-1.17-.15-1.75-.04-.58-.08-1.17-.11-1.75-.03-.58-.05-1.17-.07-1.75-.01-.58-.01-1.17-.02-1.75M264.58 137.95c-8.26-.58-18.49-1.17-24.79-1.75-6.3-.58-9.16-1.17-12.99-1.75-3.82-.58-6.91-1.17-9.95-1.75-3.05-.58-5.73-1.17-8.33-1.75-2.6-.58-4.97-1.17-7.26-1.75a261.049 261.049 0 01-12.39-3.5c-1.89-.58-3.68-1.17-5.42-1.75-1.74-.58-3.41-1.17-5.03-1.75-1.62-.58-3.18-1.17-4.69-1.75-1.52-.58-2.98-1.17-4.4-1.75-1.43-.58-2.8-1.17-4.15-1.75-1.35-.58-2.65-1.17-3.92-1.75-1.27-.58-2.51-1.17-3.72-1.75-1.21-.58-2.39-1.17-3.54-1.75-1.15-.58-2.54-1.32-3.37-1.75-.82-.43-1.1-.59-1.62-.88-.54-.29-.81-.44-1.59-.88s-2.07-1.17-3.07-1.75c-1-.58-1.98-1.17-2.93-1.75-.96-.58-1.89-1.17-2.81-1.75-.92-.58-1.81-1.17-2.69-1.75-.88-.58-1.74-1.17-2.58-1.75-.84-.58-1.67-1.17-2.48-1.75-.81-.58-1.6-1.17-2.38-1.75-.78-.58-1.54-1.17-2.28-1.75-.75-.58-1.65-1.32-2.19-1.75-.54-.43-.72-.59-1.06-.88" style="stroke:#3a53a4;stroke-linecap:round;stroke-linejoin:round;stroke-miterlimit:10;fill:none;stroke-width:.5"/><path d="M220.33 146.78c-3.28-.58-6.81-1.17-9.85-1.75-3.04-.58-5.76-1.17-8.39-1.75-2.63-.58-5.06-1.17-7.4-1.75-2.35-.58-4.54-1.17-6.67-1.75-2.13-.58-4.14-1.17-6.1-1.75s-3.82-1.17-5.63-1.75a267.575 267.575 0 01-10.15-3.5 255.156 255.156 0 01-8.99-3.5c-1.42-.58-2.8-1.17-4.14-1.75a224.958 224.958 0 01-14.7-7 222.806 222.806 0 01-6.43-3.5c-1.03-.58-2.04-1.17-3.02-1.75-.99-.58-1.96-1.17-2.91-1.75-.95-.58-1.88-1.17-2.8-1.75-.91-.58-2.02-1.32-2.69-1.75-.66-.43-.88-.59-1.31-.88-.43-.29-.65-.44-1.28-.88s-1.68-1.17-2.5-1.75c-.82-.58-1.62-1.17-2.41-1.75-.79-.58-1.56-1.17-2.32-1.75-.76-.58-1.51-1.17-2.24-1.75-.73-.58-1.45-1.17-2.16-1.75-.71-.58-1.4-1.17-2.08-1.75-.68-.58-1.35-1.17-2.01-1.75-.66-.58-1.3-1.17-1.94-1.75-.63-.58-1.41-1.32-1.87-1.75-.46-.43-.61-.59-.91-.88-.3-.29-.45-.44-.89-.88s-1.17-1.17-1.74-1.75a135.963 135.963 0 01-3.3-3.5 122.714 122.714 0 01-3.06-3.5c-.49-.58-.97-1.17-1.44-1.75-.47-.58-.93-1.17-1.39-1.75-.45-.58-.9-1.17-1.33-1.75-.44-.58-.86-1.17-1.28-1.75-.42-.58-.83-1.17-1.23-1.75-.4-.58-.79-1.17-1.18-1.75-.38-.58-.76-1.17-1.13-1.75-.37-.58-.73-1.17-1.08-1.75-.35-.58-.7-1.17-1.03-1.75-.34-.58-.67-1.17-.99-1.75-.32-.58-.63-1.17-.94-1.75-.31-.58-.6-1.17-.89-1.75-.29-.58-.57-1.17-.85-1.75-.28-.58-.54-1.17-.8-1.75-.26-.58-.51-1.17-.76-1.75-.25-.58-.48-1.17-.72-1.75-.23-.58-.46-1.17-.67-1.75-.22-.58-.43-1.17-.63-1.75-.2-.58-.4-1.17-.59-1.75-.19-.58-.37-1.17-.55-1.75-.17-.58-.34-1.17-.5-1.75-.16-.58-.32-1.17-.46-1.75-.15-.58-.29-1.17-.42-1.75-.13-.58-.26-1.17-.38-1.75-.12-.58-.23-1.17-.34-1.75-.11-.58-.21-1.17-.3-1.75-.09-.58-.18-1.17-.26-1.75-.08-.58-.15-1.17-.22-1.75-.07-.58-.13-1.17-.18-1.75-.05-.58-.1-1.17-.14-1.75-.04-.58-.07-1.17-.1-1.75-.03-.58-.05-1.17-.06-1.75-.01-.58-.01-1.17-.02-1.75" style="stroke:#3a53a4;stroke-linecap:round;stroke-linejoin:round;stroke-miterlimit:10;fill:none;stroke-width:.5"/><text transform="translate(124.354 88.868)" style="font-size:6px;font-family:'Asap-Regular'">F</text><text transform="translate(178.486 133.602)" style="font-size:6px;font-family:'Asap-Regular'">E</text><text transform="translate(70.707 42.364)" style="font-size:6px;font-family:'Asap-Regular'">C</text><text transform="translate(32.075 201.509)" style="font-size:7px;font-family:'Asap-Regular'">0</text><text transform="translate(28.351 183.967)"><tspan x="0" y="0" style="font-size:7px;font-family:'Asap-Regular'">1</tspan><tspan x="3.72" y="0" style="font-size:7px;font-family:'Asap-Regular'">0</tspan></text><text transform="translate(28.351 166.425)"><tspan x="0" y="0" style="font-size:7px;font-family:'Asap-Regular'">2</tspan><tspan x="3.72" y="0" style="font-size:7px;font-family:'Asap-Regular'">0</tspan></text><text transform="translate(28.351 148.883)"><tspan x="0" y="0" style="font-size:7px;font-family:'Asap-Regular'">3</tspan><tspan x="3.72" y="0" style="font-size:7px;font-family:'Asap-Regular'">0</tspan></text><text transform="translate(28.351 131.341)"><tspan x="0" y="0" style="font-size:7px;font-family:'Asap-Regular'">4</tspan><tspan x="3.72" y="0" style="font-size:7px;font-family:'Asap-Regular'">0</tspan></text><text transform="translate(28.351 113.8)"><tspan x="0" y="0" style="font-size:7px;font-family:'Asap-Regular'">5</tspan><tspan x="3.72" y="0" style="font-size:7px;font-family:'Asap-Regular'">0</tspan></text><text transform="translate(28.351 96.258)"><tspan x="0" y="0" style="font-size:7px;font-family:'Asap-Regular'">6</tspan><tspan x="3.72" y="0" style="font-size:7px;font-family:'Asap-Regular'">0</tspan></text><text transform="translate(28.351 78.716)"><tspan x="0" y="0" style="font-size:7px;font-family:'Asap-Regular'">7</tspan><tspan x="3.72" y="0" style="font-size:7px;font-family:'Asap-Regular'">0</tspan></text><text transform="translate(28.351 61.174)"><tspan x="0" y="0" style="font-size:7px;font-family:'Asap-Regular'">8</tspan><tspan x="3.72" y="0" style="font-size:7px;font-family:'Asap-Regular'">0</tspan></text><text transform="translate(28.351 43.633)"><tspan x="0" y="0" style="font-size:7px;font-family:'Asap-Regular'">9</tspan><tspan x="3.72" y="0" style="font-size:7px;font-family:'Asap-Regular'">0</tspan></text><text transform="translate(24.543 26.09)"><tspan x="0" y="0" style="font-size:7px;font-family:'Asap-Regular'">1</tspan><tspan x="3.72" y="0" style="font-size:7px;font-family:'Asap-Regular'">0</tspan><tspan x="7.53" y="0" style="font-size:7px;font-family:'Asap-Regular'">0</tspan></text><text transform="translate(24.543 8.55)"><tspan x="0" y="0" style="font-size:7px;font-family:'Asap-Regular'">1</tspan><tspan x="3.72" y="0" style="font-size:7px;font-family:'Asap-Regular'">1</tspan><tspan x="7.53" y="0" style="font-size:7px;font-family:'Asap-Regular'">0</tspan></text><text transform="translate(39.888 211.619)" style="font-size:7px;font-family:'Asap-Regular'">0</text><text transform="translate(61.213 211.619)"><tspan x="0" y="0" style="font-size:7px;font-family:'Asap-Regular'">1</tspan><tspan x="3.72" y="0" style="font-size:7px;font-family:'Asap-Regular'">0</tspan></text><text transform="translate(84.4 211.619)"><tspan x="0" y="0" style="font-size:7px;font-family:'Asap-Regular'">2</tspan><tspan x="3.72" y="0" style="font-size:7px;font-family:'Asap-Regular'">0</tspan></text><text transform="translate(107.588 211.619)"><tspan x="0" y="0" style="font-size:7px;font-family:'Asap-Regular'">3</tspan><tspan x="3.72" y="0" style="font-size:7px;font-family:'Asap-Regular'">0</tspan></text><text transform="translate(130.776 211.619)"><tspan x="0" y="0" style="font-size:7px;font-family:'Asap-Regular'">4</tspan><tspan x="3.72" y="0" style="font-size:7px;font-family:'Asap-Regular'">0</tspan></text><text transform="translate(153.964 211.619)"><tspan x="0" y="0" style="font-size:7px;font-family:'Asap-Regular'">5</tspan><tspan x="3.72" y="0" style="font-size:7px;font-family:'Asap-Regular'">0</tspan></text><text transform="translate(177.151 211.619)"><tspan x="0" y="0" style="font-size:7px;font-family:'Asap-Regular'">6</tspan><tspan x="3.72" y="0" style="font-size:7px;font-family:'Asap-Regular'">0</tspan></text><text transform="translate(200.34 211.619)"><tspan x="0" y="0" style="font-size:7px;font-family:'Asap-Regular'">7</tspan><tspan x="3.72" y="0" style="font-size:7px;font-family:'Asap-Regular'">0</tspan></text><text transform="translate(223.527 211.619)"><tspan x="0" y="0" style="font-size:7px;font-family:'Asap-Regular'">8</tspan><tspan x="3.72" y="0" style="font-size:7px;font-family:'Asap-Regular'">0</tspan></text><text transform="translate(246.714 211.619)"><tspan x="0" y="0" style="font-size:7px;font-family:'Asap-Regular'">9</tspan><tspan x="3.72" y="0" style="font-size:7px;font-family:'Asap-Regular'">0</tspan></text><text transform="translate(267.998 211.619)"><tspan x="0" y="0" style="font-size:7px;font-family:'Asap-Regular'">1</tspan><tspan x="3.72" y="0" style="font-size:7px;font-family:'Asap-Regular'">0</tspan><tspan x="7.53" y="0" style="font-size:7px;font-family:'Asap-Regular'">0</tspan></text><text transform="translate(291.186 211.619)"><tspan x="0" y="0" style="font-size:7px;font-family:'Asap-Regular'">1</tspan><tspan x="3.72" y="0" style="font-size:7px;font-family:'Asap-Regular'">1</tspan><tspan x="7.53" y="0" style="font-size:7px;font-family:'Asap-Regular'">0</tspan></text><text transform="rotate(-90 78.468 62.665)"><tspan x="0" y="0" style="font-size:8px;font-family:'Asap-Medium'">C</tspan><tspan x="4.92" y="0" style="font-size:8px;font-family:'Asap-Medium'">o</tspan><tspan x="9.47" y="0" style="font-size:8px;font-family:'Asap-Medium'">n</tspan><tspan x="13.9" y="0" style="font-size:8px;font-family:'Asap-Medium'">s</tspan><tspan x="17.22" y="0" style="font-size:8px;font-family:'Asap-Medium'">u</tspan><tspan x="21.66" y="0" style="font-size:8px;font-family:'Asap-Medium'">m</tspan><tspan x="28.46" y="0" style="font-size:8px;font-family:'Asap-Medium'">pt</tspan><tspan x="35.78" y="0" style="font-size:8px;font-family:'Asap-Medium'">i</tspan><tspan x="37.86" y="0" style="font-size:8px;font-family:'Asap-Medium'">o</tspan><tspan x="42.42" y="0" style="font-size:8px;font-family:'Asap-Medium'">n</tspan><tspan x="46.84" y="0" style="font-size:8px;font-family:'Asap-Medium'"> </tspan><tspan x="49.08" y="0" style="font-size:8px;font-family:'Asap-Medium'">l</tspan><tspan x="51.45" y="0" style="font-size:8px;font-family:'Asap-Medium'">a</tspan><tspan x="55.82" y="0" style="font-size:8px;font-family:'Asap-Medium'">t</tspan><tspan x="58.56" y="0" style="font-size:8px;font-family:'Asap-Medium'">e</tspan><tspan x="62.85" y="0" style="font-size:8px;font-family:'Asap-Medium'">r</tspan><tspan x="65.8" y="0" style="font-size:8px;font-family:'Asap-Medium'"> </tspan><tspan x="67.75" y="0" style="font-size:8px;font-family:'Asap-Medium'">(</tspan><tspan x="70.15" y="0" style="font-size:8px;font-family:'Asap-Medium'">$</tspan><tspan x="74.09" y="0" style="font-size:8px;font-family:'Asap-Medium'">)</tspan></text><text transform="translate(131.909 224.239)"><tspan x="0" y="0" style="font-size:8px;font-family:'Asap-Medium'">C</tspan><tspan x="4.92" y="0" style="font-size:8px;font-family:'Asap-Medium'">o</tspan><tspan x="9.47" y="0" style="font-size:8px;font-family:'Asap-Medium'">n</tspan><tspan x="13.9" y="0" style="font-size:8px;font-family:'Asap-Medium'">s</tspan><tspan x="17.22" y="0" style="font-size:8px;font-family:'Asap-Medium'">u</tspan><tspan x="21.66" y="0" style="font-size:8px;font-family:'Asap-Medium'">m</tspan><tspan x="28.46" y="0" style="font-size:8px;font-family:'Asap-Medium'">pt</tspan><tspan x="35.78" y="0" style="font-size:8px;font-family:'Asap-Medium'">i</tspan><tspan x="37.86" y="0" style="font-size:8px;font-family:'Asap-Medium'">o</tspan><tspan x="42.42" y="0" style="font-size:8px;font-family:'Asap-Medium'">n</tspan><tspan x="46.84" y="0" style="font-size:8px;font-family:'Asap-Medium'"> </tspan><tspan x="49.08" y="0" style="font-size:8px;font-family:'Asap-Medium'">n</tspan><tspan x="53.5" y="0" style="font-size:8px;font-family:'Asap-Medium'">o</tspan><tspan x="58.05" y="0" style="font-size:8px;font-family:'Asap-Medium'">w </tspan><tspan x="66.01" y="0" style="font-size:8px;font-family:'Asap-Medium'">(</tspan><tspan x="68.42" y="0" style="font-size:8px;font-family:'Asap-Medium'">$</tspan><tspan x="72.36" y="0" style="font-size:8px;font-family:'Asap-Medium'">)</tspan></text><text transform="translate(221.793 120.804)"><tspan x="0" y="0" style="font-size:6px;font-family:'Asap-Regular'">J</tspan><tspan x="2.4" y="0" style="font-size:6px;font-family:'Asap-Regular'">u</tspan><tspan x="5.71" y="0" style="font-size:6px;font-family:'Asap-Regular'">l</tspan><tspan x="7.48" y="0" style="font-size:6px;font-family:'Asap-Regular'">i</tspan><tspan x="9.03" y="0" style="font-size:6px;font-family:'Asap-Regular'">a</tspan><tspan x="12.32" y="0" style="font-size:6px;font-family:'Asap-Regular'">’</tspan><tspan x="13.61" y="0" style="font-size:6px;font-family:'Asap-Regular'">s</tspan><tspan x="16.09" y="0" style="font-size:6px;font-family:'Asap-Regular'"> </tspan><tspan x="17.5" y="0" style="font-size:6px;font-family:'Asap-Regular'">i</tspan><tspan x="19.04" y="0" style="font-size:6px;font-family:'Asap-Regular'">n</tspan><tspan x="22.42" y="0" style="font-size:6px;font-family:'Asap-Regular'">d</tspan><tspan x="25.79" y="0" style="font-size:6px;font-family:'Asap-Regular'">i</tspan><tspan x="27.34" y="0" style="font-size:6px;font-family:'Asap-Regular'">ff</tspan><tspan x="31.28" y="0" style="font-size:6px;font-family:'Asap-Regular'">ere</tspan><tspan x="39.89" y="0" style="font-size:6px;font-family:'Asap-Regular'">nc</tspan><tspan x="46.21" y="0" style="font-size:6px;font-family:'Asap-Regular'">e</tspan><tspan x="49.42" y="0" style="font-size:6px;font-family:'Asap-Regular'"> </tspan><tspan x="50.74" y="0" style="font-size:6px;font-family:'Asap-Regular'">c</tspan><tspan x="53.69" y="0" style="font-size:6px;font-family:'Asap-Regular'">u</tspan><tspan x="56.99" y="0" style="font-size:6px;font-family:'Asap-Regular'">r</tspan><tspan x="59.17" y="0" style="font-size:6px;font-family:'Asap-Regular'">v</tspan><tspan x="62.06" y="0" style="font-size:6px;font-family:'Asap-Regular'">e</tspan><tspan x="65.27" y="0" style="font-size:6px;font-family:'Asap-Regular'"> </tspan><tspan x="0" y="7.2" style="font-size:6px;font-family:'Asap-Regular'">(</tspan><tspan x="1.78" y="7.2" style="font-size:6px;font-family:'Asap-Regular'">h</tspan><tspan x="5.14" y="7.2" style="font-size:6px;font-family:'Asap-Regular'">i</tspan><tspan x="6.68" y="7.2" style="font-size:6px;font-family:'Asap-Regular'">g</tspan><tspan x="9.98" y="7.2" style="font-size:6px;font-family:'Asap-Regular'">h</tspan><tspan x="13.33" y="7.2" style="font-size:6px;font-family:'Asap-Regular'">er</tspan><tspan x="18.73" y="7.2" style="font-size:6px;font-family:'Asap-Regular'"> </tspan><tspan x="20.21" y="7.2" style="font-size:6px;font-family:'Asap-Regular'">u</tspan><tspan x="23.52" y="7.2" style="font-size:6px;font-family:'Asap-Regular'">t</tspan><tspan x="25.6" y="7.2" style="font-size:6px;font-family:'Asap-Regular'">i</tspan><tspan x="27.15" y="7.2" style="font-size:6px;font-family:'Asap-Regular'">l</tspan><tspan x="28.93" y="7.2" style="font-size:6px;font-family:'Asap-Regular'">i</tspan><tspan x="30.47" y="7.2" style="font-size:6px;font-family:'Asap-Regular'">t</tspan><tspan x="32.56" y="7.2" style="font-size:6px;font-family:'Asap-Regular'">y</tspan><tspan x="35.42" y="7.2" style="font-size:6px;font-family:'Asap-Regular'">)</tspan></text><text transform="translate(224.272 150.505)"><tspan x="0" y="0" style="font-size:6px;font-family:'Asap-Regular'">J</tspan><tspan x="2.4" y="0" style="font-size:6px;font-family:'Asap-Regular'">u</tspan><tspan x="5.71" y="0" style="font-size:6px;font-family:'Asap-Regular'">l</tspan><tspan x="7.48" y="0" style="font-size:6px;font-family:'Asap-Regular'">i</tspan><tspan x="9.03" y="0" style="font-size:6px;font-family:'Asap-Regular'">a</tspan><tspan x="12.32" y="0" style="font-size:6px;font-family:'Asap-Regular'">’</tspan><tspan x="13.61" y="0" style="font-size:6px;font-family:'Asap-Regular'">s</tspan><tspan x="16.09" y="0" style="font-size:6px;font-family:'Asap-Regular'"> </tspan><tspan x="17.5" y="0" style="font-size:6px;font-family:'Asap-Regular'">i</tspan><tspan x="19.04" y="0" style="font-size:6px;font-family:'Asap-Regular'">n</tspan><tspan x="22.42" y="0" style="font-size:6px;font-family:'Asap-Regular'">d</tspan><tspan x="25.79" y="0" style="font-size:6px;font-family:'Asap-Regular'">i</tspan><tspan x="27.34" y="0" style="font-size:6px;font-family:'Asap-Regular'">ff</tspan><tspan x="31.28" y="0" style="font-size:6px;font-family:'Asap-Regular'">ere</tspan><tspan x="39.89" y="0" style="font-size:6px;font-family:'Asap-Regular'">nc</tspan><tspan x="46.21" y="0" style="font-size:6px;font-family:'Asap-Regular'">e</tspan><tspan x="49.42" y="0" style="font-size:6px;font-family:'Asap-Regular'"> </tspan><tspan x="50.74" y="0" style="font-size:6px;font-family:'Asap-Regular'">c</tspan><tspan x="53.69" y="0" style="font-size:6px;font-family:'Asap-Regular'">u</tspan><tspan x="56.99" y="0" style="font-size:6px;font-family:'Asap-Regular'">r</tspan><tspan x="59.17" y="0" style="font-size:6px;font-family:'Asap-Regular'">v</tspan><tspan x="62.06" y="0" style="font-size:6px;font-family:'Asap-Regular'">e</tspan></text><line x1="60.84" y1="13.18" x2="76.24" y2="82.47" style="stroke:#bcbec0;stroke-miterlimit:8;fill:none;stroke-width:.5"/><line x1="139.28" y1="125.55" x2="214.11" y2="148.27" style="stroke:#bcbec0;stroke-miterlimit:8;fill:none;stroke-width:.5"/><text transform="translate(245.845 188.056)"><tspan x="0" y="0" style="fill:#ed1f24;font-size:6px;font-family:'Asap-Regular'">F</tspan><tspan x="3" y="0" style="fill:#ed1f24;font-size:6px;font-family:'Asap-Regular'">e</tspan><tspan x="6.25" y="0" style="fill:#ed1f24;font-size:6px;font-family:'Asap-Regular'">a</tspan><tspan x="9.55" y="0" style="fill:#ed1f24;font-size:6px;font-family:'Asap-Regular'">s</tspan><tspan x="12.02" y="0" style="fill:#ed1f24;font-size:6px;font-family:'Asap-Regular'">i</tspan><tspan x="13.63" y="0" style="fill:#ed1f24;font-size:6px;font-family:'Asap-Regular'">b</tspan><tspan x="17.05" y="0" style="fill:#ed1f24;font-size:6px;font-family:'Asap-Regular'">l</tspan><tspan x="18.8" y="0" style="fill:#ed1f24;font-size:6px;font-family:'Asap-Regular'">e</tspan><tspan x="22.04" y="0" style="fill:#ed1f24;font-size:6px;font-family:'Asap-Regular'"> </tspan><tspan x="23.48" y="0" style="fill:#ed1f24;font-size:6px;font-family:'Asap-Regular'">f</tspan><tspan x="25.46" y="0" style="fill:#ed1f24;font-size:6px;font-family:'Asap-Regular'">r</tspan><tspan x="27.67" y="0" style="fill:#ed1f24;font-size:6px;font-family:'Asap-Regular'">o</tspan><tspan x="31.12" y="0" style="fill:#ed1f24;font-size:6px;font-family:'Asap-Regular'">n</tspan><tspan x="34.46" y="0" style="fill:#ed1f24;font-size:6px;font-family:'Asap-Regular'">t</tspan><tspan x="36.53" y="0" style="fill:#ed1f24;font-size:6px;font-family:'Asap-Regular'">i</tspan><tspan x="38.15" y="0" style="fill:#ed1f24;font-size:6px;font-family:'Asap-Regular'">e</tspan><tspan x="41.39" y="0" style="fill:#ed1f24;font-size:6px;font-family:'Asap-Regular'">r</tspan></text><line x1="41.76" y1="199.36" x2="41.76" y2="201.49" style="stroke:#6d6e71;stroke-linecap:square;fill:none;stroke-width:.5"/><line x1="64.95" y1="199.36" x2="64.95" y2="201.49" style="stroke:#6d6e71;stroke-linecap:square;fill:none;stroke-width:.5"/><line x1="88.14" y1="199.36" x2="88.14" y2="201.49" style="stroke:#6d6e71;stroke-linecap:square;fill:none;stroke-width:.5"/><line x1="111.32" y1="199.36" x2="111.32" y2="201.49" style="stroke:#6d6e71;stroke-linecap:square;fill:none;stroke-width:.5"/><line x1="134.51" y1="199.36" x2="134.51" y2="201.49" style="stroke:#6d6e71;stroke-linecap:square;fill:none;stroke-width:.5"/><line x1="157.7" y1="199.36" x2="157.7" y2="201.49" style="stroke:#6d6e71;stroke-linecap:square;fill:none;stroke-width:.5"/><line x1="180.89" y1="199.36" x2="180.89" y2="201.49" style="stroke:#6d6e71;stroke-linecap:square;fill:none;stroke-width:.5"/><line x1="204.07" y1="199.36" x2="204.07" y2="201.49" style="stroke:#6d6e71;stroke-linecap:square;fill:none;stroke-width:.5"/><line x1="227.26" y1="199.36" x2="227.26" y2="201.49" style="stroke:#6d6e71;stroke-linecap:square;fill:none;stroke-width:.5"/><line x1="250.45" y1="199.36" x2="250.45" y2="201.49" style="stroke:#6d6e71;stroke-linecap:square;fill:none;stroke-width:.5"/><line x1="273.64" y1="199.36" x2="273.64" y2="201.49" style="stroke:#6d6e71;stroke-linecap:square;fill:none;stroke-width:.5"/><line x1="296.82" y1="199.36" x2="296.82" y2="201.49" style="stroke:#6d6e71;stroke-linecap:square;fill:none;stroke-width:.5"/><line x1="39.63" y1="199.36" x2="41.76" y2="199.36" style="stroke:#6d6e71;stroke-linecap:square;fill:none;stroke-width:.5"/><line x1="39.63" y1="181.82" x2="41.76" y2="181.82" style="stroke:#6d6e71;stroke-linecap:square;fill:none;stroke-width:.5"/><line x1="39.63" y1="164.28" x2="41.76" y2="164.28" style="stroke:#6d6e71;stroke-linecap:square;fill:none;stroke-width:.5"/><line x1="39.63" y1="146.74" x2="41.76" y2="146.74" style="stroke:#6d6e71;stroke-linecap:square;fill:none;stroke-width:.5"/><line x1="39.63" y1="129.2" x2="41.76" y2="129.2" style="stroke:#6d6e71;stroke-linecap:square;fill:none;stroke-width:.5"/><line x1="39.63" y1="111.65" x2="41.76" y2="111.65" style="stroke:#6d6e71;stroke-linecap:square;fill:none;stroke-width:.5"/><line x1="39.63" y1="94.11" x2="41.76" y2="94.11" style="stroke:#6d6e71;stroke-linecap:square;fill:none;stroke-width:.5"/><line x1="39.63" y1="76.57" x2="41.76" y2="76.57" style="stroke:#6d6e71;stroke-linecap:square;fill:none;stroke-width:.5"/><line x1="39.63" y1="59.03" x2="41.76" y2="59.03" style="stroke:#6d6e71;stroke-linecap:square;fill:none;stroke-width:.5"/><line x1="39.63" y1="41.49" x2="41.76" y2="41.49" style="stroke:#6d6e71;stroke-linecap:square;fill:none;stroke-width:.5"/><line x1="39.63" y1="23.95" x2="41.76" y2="23.95" style="stroke:#6d6e71;stroke-linecap:square;fill:none;stroke-width:.5"/><line x1="39.63" y1="6.4" x2="41.76" y2="6.4" style="stroke:#6d6e71;stroke-linecap:square;fill:none;stroke-width:.5"/><path d="M69.59 47.12l2.32 1.93 2.32 1.93 2.32 1.93 2.32 1.93 2.32 1.93 2.32 1.93 2.32 1.93 2.32 1.93 2.32 1.93 2.32 1.93 2.32 1.93 2.32 1.93 2.32 1.93 2.32 1.93 2.32 1.93 2.32 1.93 2.32 1.93 2.32 1.93 2.32 1.93 2.32 1.93 2.32 1.93 2.32 1.93 2.32 1.93.18.15" style="stroke:#ed1f24;stroke-linejoin:round;fill:none;stroke-width:.5"/><path d="M69.92 46.12a1.129 1.129 0 11-2.26 0c0-.63.51-1.13 1.13-1.13s1.13.5 1.13 1.13zM175.34 135.32c.21-.21.49-.33.8-.33.63 0 1.13.51 1.13 1.13a1.129 1.129 0 11-2.26 0c-.01-.31.12-.6.33-.8M124 91.38a1.129 1.129 0 11-2.26 0c0-.63.51-1.13 1.13-1.13.62-.01 1.13.5 1.13 1.13z"/></svg>