<svg version="1.1" xmlns="http://www.w3.org/2000/svg" x="0" y="0" viewBox="0 0 311.81 173.93" style="enable-background:new 0 0 311.81 173.93" xml:space="preserve"><path style="opacity:.7;fill:none;stroke:#000;stroke-width:.5006;stroke-miterlimit:10" d="M47.21 126.26h222.01"/><path style="opacity:.7;fill:none;stroke:#000;stroke-width:.4988;stroke-miterlimit:10" d="M269.02 126.37l40.46-23.33"/><path style="opacity:.7;fill:none;stroke:#000;stroke-width:.5006;stroke-miterlimit:10" d="M88.02 102.78h222.01"/><g><path style="opacity:.7;fill:none;stroke:#000;stroke-width:.502;stroke-miterlimit:10" d="M309.56 2.73v100.31"/><path style="opacity:.3;fill:none;stroke:#000;stroke-width:.5;stroke-miterlimit:10" d="M47.21 113.88l40.72-23.6h221.62"/><path style="opacity:.3;fill:none;stroke:#000;stroke-width:.5;stroke-miterlimit:10" d="M47.21 101.37l40.72-23.6h221.62"/><path style="opacity:.3;fill:none;stroke:#000;stroke-width:.5;stroke-miterlimit:10" d="M47.21 88.86l40.72-23.6h221.62"/><path style="opacity:.3;fill:none;stroke:#000;stroke-width:.5;stroke-miterlimit:10" d="M47.21 76.36l40.72-23.6h221.62"/><path style="opacity:.3;fill:none;stroke:#000;stroke-width:.5;stroke-miterlimit:10" d="M47.21 63.85l40.72-23.6h221.62"/><path style="opacity:.3;fill:none;stroke:#000;stroke-width:.5;stroke-miterlimit:10" d="M47.21 51.34l40.72-23.6h221.62"/><path style="opacity:.3;fill:none;stroke:#000;stroke-width:.5;stroke-miterlimit:10" d="M47.21 38.83l40.72-23.6h221.62"/><path style="opacity:.3;fill:none;stroke:#000;stroke-width:.5003;stroke-miterlimit:10" d="M47.21 26.32l40.86-23.6H309.9"/><path style="fill:#488b00;stroke:#5aae00;stroke-width:.2881;stroke-miterlimit:10" d="M288.82 105.49l4.51-2.21h1.2l-4.51 2.21h-1.2z"/><path style="fill:none;stroke:#5aae00;stroke-width:.2881;stroke-miterlimit:10" d="M288.82 105.49l4.51-2.21h1.2"/><path style="fill:#488b00;stroke:#5aae00;stroke-width:.2881;stroke-miterlimit:10" d="M293.33 103.28V50.52h1.2v52.76h-1.2z"/><path style="fill:none;stroke:#5aae00;stroke-width:.2881;stroke-miterlimit:10" d="M293.33 103.28V50.52"/><path style="fill:#488b00;stroke:#5aae00;stroke-width:.2881;stroke-miterlimit:10" d="M288.82 105.49V52.73l4.51-2.21v52.76l-4.51 2.21z"/><path style="fill:#488b00;stroke:#5aae00;stroke-width:.2881;stroke-miterlimit:10" d="M290.02 105.49V52.73l4.51-2.21v52.76l-4.51 2.21z"/><path style="fill:none;stroke:#5aae00;stroke-width:.2881;stroke-miterlimit:10" d="M290.02 105.49l4.51-2.21V50.52l-4.51 2.21"/><path style="fill:#6cd100;stroke:#5aae00;stroke-width:.2881;stroke-miterlimit:10" d="M288.82 52.73l4.51-2.21h1.2l-4.51 2.21h-1.2z"/><path style="fill:none;stroke:#5aae00;stroke-width:.2881;stroke-miterlimit:10" d="M288.82 52.73l4.51-2.21h1.2"/><path style="fill:#5aae00;stroke:#5aae00;stroke-width:.2881;stroke-miterlimit:10" d="M288.82 105.49V52.73h1.2v52.76h-1.2z"/><path style="fill:#458a00;stroke:#56ac00;stroke-width:.2881;stroke-miterlimit:10" d="M290.02 105.49l4.51-2.21h1.2l-4.51 2.21h-1.2z"/><path style="fill:none;stroke:#56ac00;stroke-width:.2881;stroke-miterlimit:10" d="M290.02 105.49l4.51-2.21h1.2"/><path style="fill:#458a00;stroke:#56ac00;stroke-width:.2881;stroke-miterlimit:10" d="M294.53 103.28V55.77h1.2v47.51h-1.2z"/><path style="fill:none;stroke:#56ac00;stroke-width:.2881;stroke-miterlimit:10" d="M294.53 103.28V55.77"/><path style="fill:#458a00;stroke:#56ac00;stroke-width:.2881;stroke-miterlimit:10" d="M290.02 105.49V57.98l4.51-2.21v47.51l-4.51 2.21z"/><path style="fill:#458a00;stroke:#56ac00;stroke-width:.2881;stroke-miterlimit:10" d="M291.22 105.49V57.98l4.51-2.21v47.51l-4.51 2.21z"/><path style="fill:none;stroke:#56ac00;stroke-width:.2881;stroke-miterlimit:10" d="M291.22 105.49l4.51-2.21V55.77l-4.51 2.21"/><path style="fill:#67ce00;stroke:#56ac00;stroke-width:.2881;stroke-miterlimit:10" d="M290.02 57.98l4.51-2.21h1.2l-4.51 2.21h-1.2z"/><path style="fill:none;stroke:#56ac00;stroke-width:.2881;stroke-miterlimit:10" d="M290.02 57.98l4.51-2.21h1.2"/><path style="fill:#56ac00;stroke:#56ac00;stroke-width:.2881;stroke-miterlimit:10" d="M290.02 105.49V57.98h1.2v47.51h-1.2z"/><path style="fill:#167000;stroke:#1c8c00;stroke-width:.2881;stroke-miterlimit:10" d="M291.22 105.49l4.51-2.21h1.2l-4.51 2.21h-1.2z"/><path style="fill:none;stroke:#1c8c00;stroke-width:.2881;stroke-miterlimit:10" d="M291.22 105.49l4.51-2.21h1.2"/><path style="fill:#167000;stroke:#1c8c00;stroke-width:.2881;stroke-miterlimit:10" d="M295.73 103.28V57.15h1.2v46.13h-1.2z"/><path style="fill:none;stroke:#1c8c00;stroke-width:.2881;stroke-miterlimit:10" d="M295.73 103.28V57.15"/><path style="fill:#167000;stroke:#1c8c00;stroke-width:.2881;stroke-miterlimit:10" d="M291.22 105.49V59.36l4.51-2.21v46.13l-4.51 2.21z"/><path style="fill:#167000;stroke:#1c8c00;stroke-width:.2881;stroke-miterlimit:10" d="M292.42 105.49V59.36l4.51-2.21v46.13l-4.51 2.21z"/><path style="fill:none;stroke:#1c8c00;stroke-width:.2881;stroke-miterlimit:10" d="M292.42 105.49l4.51-2.21V57.15l-4.51 2.21"/><path style="fill:#22a800;stroke:#1c8c00;stroke-width:.2881;stroke-miterlimit:10" d="M291.22 59.36l4.51-2.21h1.2l-4.51 2.21h-1.2z"/><path style="fill:none;stroke:#1c8c00;stroke-width:.2881;stroke-miterlimit:10" d="M291.22 59.36l4.51-2.21h1.2"/><path style="fill:#1c8c00;stroke:#1c8c00;stroke-width:.2881;stroke-miterlimit:10" d="M291.22 105.49V59.36h1.2v46.13h-1.2z"/><path style="fill:#a3bb00;stroke:#ccea00;stroke-width:.2881;stroke-miterlimit:10" d="M292.42 105.49l4.51-2.21h1.2l-4.51 2.21h-1.2z"/><path style="fill:none;stroke:#ccea00;stroke-width:.2881;stroke-miterlimit:10" d="M292.42 105.49l4.51-2.21h1.2"/><path style="fill:#a3bb00;stroke:#ccea00;stroke-width:.2881;stroke-miterlimit:10" d="M296.93 103.28V45.82h1.2v57.45h-1.2z"/><path style="fill:none;stroke:#ccea00;stroke-width:.2881;stroke-miterlimit:10" d="M296.93 103.28V45.82"/><path style="fill:#a3bb00;stroke:#ccea00;stroke-width:.2881;stroke-miterlimit:10" d="M292.42 105.49V48.03l4.51-2.21v57.45l-4.51 2.22z"/><path style="fill:#a3bb00;stroke:#ccea00;stroke-width:.2881;stroke-miterlimit:10" d="M293.63 105.49V48.03l4.51-2.21v57.45l-4.51 2.22z"/><path style="fill:none;stroke:#ccea00;stroke-width:.2881;stroke-miterlimit:10" d="M293.63 105.49l4.51-2.21V45.82l-4.51 2.21"/><path style="fill:#f5ff00;stroke:#ccea00;stroke-width:.2881;stroke-miterlimit:10" d="M292.42 48.03l4.51-2.21h1.2l-4.51 2.21h-1.2z"/><path style="fill:none;stroke:#ccea00;stroke-width:.2881;stroke-miterlimit:10" d="M292.42 48.03l4.51-2.21h1.2"/><path style="fill:#ccea00;stroke:#ccea00;stroke-width:.2881;stroke-miterlimit:10" d="M292.42 105.49V48.03h1.2v57.45h-1.2z"/><path style="fill:#2a7a00;stroke:#349900;stroke-width:.2881;stroke-miterlimit:10" d="M293.63 105.49l4.51-2.21h1.2l-4.51 2.21h-1.2z"/><path style="fill:none;stroke:#349900;stroke-width:.2881;stroke-miterlimit:10" d="M293.63 105.49l4.51-2.21h1.2"/><path style="fill:#2a7a00;stroke:#349900;stroke-width:.2881;stroke-miterlimit:10" d="M298.13 103.28v-55.8h1.2v55.79h-1.2z"/><path style="fill:none;stroke:#349900;stroke-width:.2881;stroke-miterlimit:10" d="M298.13 103.28v-55.8"/><path style="fill:#2a7a00;stroke:#349900;stroke-width:.2881;stroke-miterlimit:10" d="M293.63 105.49v-55.8l4.51-2.21v55.79l-4.51 2.22z"/><path style="fill:#2a7a00;stroke:#349900;stroke-width:.2881;stroke-miterlimit:10" d="M294.83 105.49v-55.8l4.51-2.21v55.79l-4.51 2.22z"/><path style="fill:none;stroke:#349900;stroke-width:.2881;stroke-miterlimit:10" d="M294.83 105.49l4.51-2.21v-55.8l-4.51 2.21"/><path style="fill:#3eb800;stroke:#349900;stroke-width:.2881;stroke-miterlimit:10" d="M293.63 49.69l4.51-2.21h1.2l-4.51 2.21h-1.2z"/><path style="fill:none;stroke:#349900;stroke-width:.2881;stroke-miterlimit:10" d="M293.63 49.69l4.51-2.21h1.2"/><path style="fill:#349900;stroke:#349900;stroke-width:.2881;stroke-miterlimit:10" d="M293.63 105.49v-55.8h1.2v55.79h-1.2z"/><path style="fill:#136f00;stroke:#188b00;stroke-width:.2881;stroke-miterlimit:10" d="M294.53 105.49l4.51-2.21h1.2l-4.51 2.21h-1.2z"/><path style="fill:none;stroke:#188b00;stroke-width:.2881;stroke-miterlimit:10" d="M294.53 105.49l4.51-2.21h1.2"/><path style="fill:#136f00;stroke:#188b00;stroke-width:.2881;stroke-miterlimit:10" d="M299.04 103.28V48.03h1.2v55.24h-1.2z"/><path style="fill:none;stroke:#188b00;stroke-width:.2881;stroke-miterlimit:10" d="M299.04 103.28V48.03"/><path style="fill:#136f00;stroke:#188b00;stroke-width:.2881;stroke-miterlimit:10" d="M294.53 105.49V50.24l4.51-2.21v55.24l-4.51 2.22z"/><path style="fill:#136f00;stroke:#188b00;stroke-width:.2881;stroke-miterlimit:10" d="M295.73 105.49V50.24l4.51-2.21v55.24l-4.51 2.22z"/><path style="fill:none;stroke:#188b00;stroke-width:.2881;stroke-miterlimit:10" d="M295.73 105.49l4.51-2.21V48.03l-4.51 2.21"/><path style="fill:#1da700;stroke:#188b00;stroke-width:.2881;stroke-miterlimit:10" d="M294.53 50.24l4.51-2.21h1.2l-4.51 2.21h-1.2z"/><path style="fill:none;stroke:#188b00;stroke-width:.2881;stroke-miterlimit:10" d="M294.53 50.24l4.51-2.21h1.2"/><path style="fill:#188b00;stroke:#188b00;stroke-width:.2881;stroke-miterlimit:10" d="M294.53 105.49V50.24h1.2v55.24h-1.2z"/><path style="fill:#066700;stroke:#078100;stroke-width:.2881;stroke-miterlimit:10" d="M295.73 105.49l4.51-2.21h1.2l-4.51 2.21h-1.2z"/><path style="fill:none;stroke:#078100;stroke-width:.2881;stroke-miterlimit:10" d="M295.73 105.49l4.51-2.21h1.2"/><path style="fill:#066700;stroke:#078100;stroke-width:.2881;stroke-miterlimit:10" d="M300.24 103.28V6.6h1.2v96.67h-1.2z"/><path style="fill:none;stroke:#078100;stroke-width:.2881;stroke-miterlimit:10" d="M300.24 103.28V6.6"/><path style="fill:#066700;stroke:#078100;stroke-width:.2881;stroke-miterlimit:10" d="M295.73 105.49V8.81l4.51-2.21v96.67l-4.51 2.22z"/><path style="fill:#066700;stroke:#078100;stroke-width:.2881;stroke-miterlimit:10" d="M296.93 105.49V8.81l4.51-2.21v96.67l-4.51 2.22z"/><path style="fill:none;stroke:#078100;stroke-width:.2881;stroke-miterlimit:10" d="M296.93 105.49l4.51-2.21V6.6l-4.51 2.21"/><path style="fill:#089b00;stroke:#078100;stroke-width:.2881;stroke-miterlimit:10" d="M295.73 8.81l4.51-2.21h1.2l-4.51 2.21h-1.2z"/><path style="fill:none;stroke:#078100;stroke-width:.2881;stroke-miterlimit:10" d="M295.73 8.81l4.51-2.21h1.2"/><path style="fill:#078100;stroke:#078100;stroke-width:.2881;stroke-miterlimit:10" d="M295.73 105.49V8.81h1.2v96.67h-1.2z"/><path style="fill:#1c7300;stroke:#239000;stroke-width:.2881;stroke-miterlimit:10" d="M296.93 105.49l4.51-2.21h1.2l-4.51 2.21h-1.2z"/><path style="fill:none;stroke:#239000;stroke-width:.2881;stroke-miterlimit:10" d="M296.93 105.49l4.51-2.21h1.2"/><path style="fill:#1c7300;stroke:#239000;stroke-width:.2881;stroke-miterlimit:10" d="M301.44 103.28V20.97h1.2v82.31h-1.2z"/><path style="fill:none;stroke:#239000;stroke-width:.2881;stroke-miterlimit:10" d="M301.44 103.28V20.97"/><path style="fill:#1c7300;stroke:#239000;stroke-width:.2881;stroke-miterlimit:10" d="M296.93 105.49V23.18l4.51-2.21v82.31l-4.51 2.21z"/><path style="fill:#1c7300;stroke:#239000;stroke-width:.2881;stroke-miterlimit:10" d="M298.13 105.49V23.18l4.51-2.21v82.31l-4.51 2.21z"/><path style="fill:none;stroke:#239000;stroke-width:.2881;stroke-miterlimit:10" d="M298.13 105.49l4.51-2.21V20.97l-4.51 2.21"/><path style="fill:#2aad00;stroke:#239000;stroke-width:.2881;stroke-miterlimit:10" d="M296.93 23.18l4.51-2.21h1.2l-4.51 2.21h-1.2z"/><path style="fill:none;stroke:#239000;stroke-width:.2881;stroke-miterlimit:10" d="M296.93 23.18l4.51-2.21h1.2"/><path style="fill:#239000;stroke:#239000;stroke-width:.2881;stroke-miterlimit:10" d="M296.93 105.49V23.18h1.2v82.31h-1.2z"/><path style="fill:#1c7300;stroke:#239000;stroke-width:.2881;stroke-miterlimit:10" d="M298.13 105.49l4.51-2.21h1.2l-4.51 2.21h-1.2z"/><path style="fill:none;stroke:#239000;stroke-width:.2881;stroke-miterlimit:10" d="M298.13 105.49l4.51-2.21h1.2"/><path style="fill:#1c7300;stroke:#239000;stroke-width:.2881;stroke-miterlimit:10" d="M302.64 103.28V20.97h1.2v82.31h-1.2z"/><path style="fill:none;stroke:#239000;stroke-width:.2881;stroke-miterlimit:10" d="M302.64 103.28V20.97"/><path style="fill:#1c7300;stroke:#239000;stroke-width:.2881;stroke-miterlimit:10" d="M298.13 105.49V23.18l4.51-2.21v82.31l-4.51 2.21z"/><path style="fill:#1c7300;stroke:#239000;stroke-width:.2881;stroke-miterlimit:10" d="M299.34 105.49V23.18l4.51-2.21v82.31l-4.51 2.21z"/><path style="fill:none;stroke:#239000;stroke-width:.2881;stroke-miterlimit:10" d="M299.34 105.49l4.51-2.21V20.97l-4.51 2.21"/><path style="fill:#2aad00;stroke:#239000;stroke-width:.2881;stroke-miterlimit:10" d="M298.13 23.18l4.51-2.21h1.2l-4.51 2.21h-1.2z"/><path style="fill:none;stroke:#239000;stroke-width:.2881;stroke-miterlimit:10" d="M298.13 23.18l4.51-2.21h1.2"/><path style="fill:#239000;stroke:#239000;stroke-width:.2881;stroke-miterlimit:10" d="M298.13 105.49V23.18h1.2v82.31h-1.2z"/><path style="fill:#1c7300;stroke:#239000;stroke-width:.2881;stroke-miterlimit:10" d="M299.34 105.49l4.51-2.21h1.2l-4.51 2.21h-1.2z"/><path style="fill:none;stroke:#239000;stroke-width:.2881;stroke-miterlimit:10" d="M299.34 105.49l4.51-2.21h1.2"/><path style="fill:#1c7300;stroke:#239000;stroke-width:.2881;stroke-miterlimit:10" d="M303.84 103.28V20.97h1.2v82.31h-1.2z"/><path style="fill:none;stroke:#239000;stroke-width:.2881;stroke-miterlimit:10" d="M303.84 103.28V20.97"/><path style="fill:#1c7300;stroke:#239000;stroke-width:.2881;stroke-miterlimit:10" d="M299.34 105.49V23.18l4.51-2.21v82.31l-4.51 2.21z"/><path style="fill:#1c7300;stroke:#239000;stroke-width:.2881;stroke-miterlimit:10" d="M300.54 105.49V23.18l4.51-2.21v82.31l-4.51 2.21z"/><path style="fill:none;stroke:#239000;stroke-width:.2881;stroke-miterlimit:10" d="M300.54 105.49l4.51-2.21V20.97l-4.51 2.21"/><path style="fill:#2aad00;stroke:#239000;stroke-width:.2881;stroke-miterlimit:10" d="M299.34 23.18l4.51-2.21h1.2l-4.51 2.21h-1.2z"/><path style="fill:none;stroke:#239000;stroke-width:.2881;stroke-miterlimit:10" d="M299.34 23.18l4.51-2.21h1.2"/><path style="fill:#239000;stroke:#239000;stroke-width:.2881;stroke-miterlimit:10" d="M299.34 105.49V23.18h1.2v82.31h-1.2z"/><path style="fill:#1c7300;stroke:#239000;stroke-width:.2881;stroke-miterlimit:10" d="M300.54 105.49l4.51-2.21h1.2l-4.51 2.21h-1.2z"/><path style="fill:none;stroke:#239000;stroke-width:.2881;stroke-miterlimit:10" d="M300.54 105.49l4.51-2.21h1.2"/><path style="fill:#1c7300;stroke:#239000;stroke-width:.2881;stroke-miterlimit:10" d="M305.05 103.28V20.97h1.2v82.31h-1.2z"/><path style="fill:none;stroke:#239000;stroke-width:.2881;stroke-miterlimit:10" d="M305.05 103.28V20.97"/><path style="fill:#1c7300;stroke:#239000;stroke-width:.2881;stroke-miterlimit:10" d="M300.54 105.49V23.18l4.51-2.21v82.31l-4.51 2.21z"/><path style="fill:#1c7300;stroke:#239000;stroke-width:.2881;stroke-miterlimit:10" d="M301.74 105.49V23.18l4.51-2.21v82.31l-4.51 2.21z"/><path style="fill:none;stroke:#239000;stroke-width:.2881;stroke-miterlimit:10" d="M301.74 105.49l4.51-2.21V20.97l-4.51 2.21"/><path style="fill:#2aad00;stroke:#239000;stroke-width:.2881;stroke-miterlimit:10" d="M300.54 23.18l4.51-2.21h1.2l-4.51 2.21h-1.2z"/><path style="fill:none;stroke:#239000;stroke-width:.2881;stroke-miterlimit:10" d="M300.54 23.18l4.51-2.21h1.2"/><path style="fill:#239000;stroke:#239000;stroke-width:.2881;stroke-miterlimit:10" d="M300.54 105.49V23.18h1.2v82.31h-1.2z"/><path style="fill:#1c7300;stroke:#239000;stroke-width:.2881;stroke-miterlimit:10" d="M301.44 105.49l4.51-2.21h1.2l-4.51 2.21h-1.2z"/><path style="fill:none;stroke:#239000;stroke-width:.2881;stroke-miterlimit:10" d="M301.44 105.49l4.51-2.21h1.2"/><path style="fill:#1c7300;stroke:#239000;stroke-width:.2881;stroke-miterlimit:10" d="M305.95 103.28V20.97h1.2v82.31h-1.2z"/><path style="fill:none;stroke:#239000;stroke-width:.2881;stroke-miterlimit:10" d="M305.95 103.28V20.97"/><path style="fill:#1c7300;stroke:#239000;stroke-width:.2881;stroke-miterlimit:10" d="M301.44 105.49V23.18l4.51-2.21v82.31l-4.51 2.21z"/><path style="fill:#1c7300;stroke:#239000;stroke-width:.2881;stroke-miterlimit:10" d="M302.64 105.49V23.18l4.51-2.21v82.31l-4.51 2.21z"/><path style="fill:none;stroke:#239000;stroke-width:.2881;stroke-miterlimit:10" d="M302.64 105.49l4.51-2.21V20.97l-4.51 2.21"/><path style="fill:#2aad00;stroke:#239000;stroke-width:.2881;stroke-miterlimit:10" d="M301.44 23.18l4.51-2.21h1.2l-4.51 2.21h-1.2z"/><path style="fill:none;stroke:#239000;stroke-width:.2881;stroke-miterlimit:10" d="M301.44 23.18l4.51-2.21h1.2"/><path style="fill:#239000;stroke:#239000;stroke-width:.2881;stroke-miterlimit:10" d="M301.44 105.49V23.18h1.2v82.31h-1.2z"/><path style="fill:#3a8300;stroke:#48a400;stroke-width:.2881;stroke-miterlimit:10" d="M302.64 105.49l4.51-2.21h1.2l-4.51 2.21h-1.2z"/><path style="fill:none;stroke:#48a400;stroke-width:.2881;stroke-miterlimit:10" d="M302.64 105.49l4.51-2.21h1.2"/><path style="fill:#3a8300;stroke:#48a400;stroke-width:.2881;stroke-miterlimit:10" d="M307.15 103.28V48.03h1.2v55.24h-1.2z"/><path style="fill:none;stroke:#48a400;stroke-width:.2881;stroke-miterlimit:10" d="M307.15 103.28V48.03"/><path style="fill:#3a8300;stroke:#48a400;stroke-width:.2881;stroke-miterlimit:10" d="M302.64 105.49V50.24l4.51-2.21v55.24l-4.51 2.22z"/><path style="fill:#3a8300;stroke:#48a400;stroke-width:.2881;stroke-miterlimit:10" d="M303.84 105.49V50.24l4.51-2.21v55.24l-4.51 2.22z"/><path style="fill:none;stroke:#48a400;stroke-width:.2881;stroke-miterlimit:10" d="M303.84 105.49l4.51-2.21V48.03l-4.51 2.21"/><path style="fill:#56c500;stroke:#48a400;stroke-width:.2881;stroke-miterlimit:10" d="M302.64 50.24l4.51-2.21h1.2l-4.51 2.21h-1.2z"/><path style="fill:none;stroke:#48a400;stroke-width:.2881;stroke-miterlimit:10" d="M302.64 50.24l4.51-2.21h1.2"/><path style="fill:#48a400;stroke:#48a400;stroke-width:.2881;stroke-miterlimit:10" d="M302.64 105.49V50.24h1.2v55.24h-1.2z"/><path style="fill:#036600;stroke:#048000;stroke-width:.2881;stroke-miterlimit:10" d="M303.84 105.49l4.51-2.21h1.2l-4.51 2.21h-1.2z"/><path style="fill:none;stroke:#048000;stroke-width:.2881;stroke-miterlimit:10" d="M303.84 105.49l4.51-2.21h1.2"/><path style="fill:#036600;stroke:#048000;stroke-width:.2881;stroke-miterlimit:10" d="M308.35 103.28V5.22h1.2v98.05h-1.2z"/><path style="fill:none;stroke:#048000;stroke-width:.2881;stroke-miterlimit:10" d="M308.35 103.28V5.22"/><path style="fill:#036600;stroke:#048000;stroke-width:.2881;stroke-miterlimit:10" d="M303.84 105.49V7.43l4.51-2.21v98.05l-4.51 2.22z"/><path style="fill:#036600;stroke:#048000;stroke-width:.2881;stroke-miterlimit:10" d="M305.05 105.49V7.43l4.51-2.21v98.05l-4.51 2.22z"/><path style="fill:none;stroke:#048000;stroke-width:.2881;stroke-miterlimit:10" d="M305.05 105.49l4.51-2.21V5.22l-4.51 2.21"/><path style="fill:#059a00;stroke:#048000;stroke-width:.2881;stroke-miterlimit:10" d="M303.84 7.43l4.51-2.21h1.2l-4.51 2.21h-1.2z"/><path style="fill:none;stroke:#048000;stroke-width:.2881;stroke-miterlimit:10" d="M303.84 7.43l4.51-2.21h1.2"/><path style="fill:#048000;stroke:#048000;stroke-width:.2881;stroke-miterlimit:10" d="M303.84 105.49V7.43h1.2v98.05h-1.2z"/><polyline style="opacity:.7;fill:none;stroke:#000;stroke-width:.5;stroke-miterlimit:10" points="88.02 2.73 88.02 102.97 47.21 126.37 47.21 26.13"/><g><path style="opacity:.7;fill:none;stroke:#000;stroke-width:.5;stroke-miterlimit:10" d="M45.78 38.78h1.67M45.78 26.29h1.67M45.78 126.26h1.67"/><path d="M7.28 116.7c0 .26-.05.38-.14.38-.02 0-.04 0-.06-.01-.02 0-.04-.01-.07-.02l-5.22-1.86c-.09-.03-.14-.15-.14-.36v-.28c0-.21.05-.33.14-.36l5.23-1.86c.04-.02.08-.02.12-.02.1 0 .14.12.14.36v.14c0 .09-.01.17-.03.23-.02.06-.06.11-.1.13l-1.22.42v2.21l1.22.42c.05.02.08.06.1.12.02.06.03.13.03.21v.15zm-2.08-1.13v-1.7l-2.11.73c-.08.02-.15.04-.24.06-.08.02-.16.03-.24.05v.02c.08.02.16.03.24.05s.16.04.24.07l2.11.72zM7.28 111.25c0 .25-.07.37-.2.37H4.36c-.23 0-.42.01-.57.02-.14.02-.25.03-.33.05-.08.02-.12.02-.14.02-.04 0-.08-.02-.1-.07a.382.382 0 01-.06-.16.628.628 0 01-.03-.19c0-.06-.01-.11-.01-.14 0-.07.03-.12.09-.16.06-.04.13-.06.21-.08.08-.02.16-.03.23-.05-.18-.15-.33-.34-.44-.56-.11-.22-.17-.44-.17-.68 0-.41.11-.72.34-.94.22-.22.54-.33.96-.33H7.1c.13 0 .2.12.2.37v.09c0 .25-.07.37-.2.37H4.42c-.22 0-.39.06-.51.18s-.18.3-.18.54c0 .18.05.34.15.5.1.16.23.29.38.4h2.82c.13 0 .2.12.2.37v.08zM7.28 106.79c0 .25-.07.37-.2.37H4.36c-.23 0-.42.01-.57.02-.14.02-.25.03-.33.05-.08.02-.12.02-.14.02-.04 0-.08-.02-.1-.07a.442.442 0 01-.06-.16.628.628 0 01-.03-.19c0-.06-.01-.11-.01-.14 0-.07.03-.12.09-.16s.13-.06.21-.08c.08-.02.16-.03.23-.05-.18-.15-.33-.34-.44-.56-.11-.22-.17-.44-.17-.68 0-.41.11-.73.34-.94.22-.22.54-.33.96-.33H7.1c.13 0 .2.12.2.37v.09c0 .24-.07.37-.2.37H4.42c-.22 0-.39.06-.51.18s-.18.3-.18.54c0 .18.05.34.15.5.1.16.23.29.38.4h2.82c.13 0 .2.12.2.37v.08zM7.32 101.5c0 .41-.11.72-.34.94-.22.22-.54.33-.96.33H3.27c-.13 0-.2-.12-.2-.37v-.09c0-.24.07-.37.2-.37h2.66c.22 0 .39-.06.51-.18s.18-.3.18-.54c0-.18-.05-.34-.15-.5-.1-.16-.23-.29-.38-.4H3.27c-.13 0-.2-.12-.2-.37v-.09c0-.25.07-.37.2-.37h2.75c.23 0 .42-.01.57-.02.14-.02.25-.03.33-.05.07-.02.12-.02.15-.02.04 0 .08.02.1.07.03.05.05.1.06.16.02.06.03.13.03.19s.01.11.01.14c0 .07-.03.12-.09.16s-.14.06-.22.08c-.09.02-.17.03-.24.05.18.15.32.34.44.56.11.23.16.46.16.69zM7.32 97.19c0 .4-.1.72-.31.96s-.5.36-.88.36c-.29 0-.53-.06-.72-.19-.18-.14-.33-.32-.44-.55-.11-.23-.19-.5-.23-.81-.04-.31-.07-.65-.07-1.01h-.35c-.18 0-.32.06-.44.18s-.18.33-.18.63a2.105 2.105 0 00.24.99c.05.1.08.16.08.2 0 .04-.03.09-.1.14-.06.05-.13.09-.21.13s-.13.06-.16.06c-.08 0-.15-.07-.24-.21-.08-.14-.15-.32-.21-.55-.06-.23-.08-.48-.08-.75 0-.36.05-.66.16-.9.1-.24.25-.42.44-.54.19-.12.42-.18.68-.18h1.71c.23 0 .42-.01.57-.02.14-.02.25-.03.33-.05.07-.02.12-.02.15-.02.04 0 .08.02.1.07.03.04.05.1.06.16.02.06.03.13.03.19s.01.11.01.14c0 .07-.03.12-.09.16-.06.04-.14.07-.22.08-.09.02-.17.04-.24.05.09.08.18.17.28.3.09.12.17.26.24.43.06.14.09.33.09.55zm-.68-.14c0-.26-.05-.47-.16-.64s-.23-.33-.38-.46h-.8c0 .2.01.4.02.6.02.2.05.38.1.55.05.17.12.3.23.4.1.1.24.15.42.15s.32-.05.42-.15c.1-.1.15-.25.15-.45zM7.32 92.84a1.193 1.193 0 01-.24.71c-.09.1-.2.19-.36.25-.15.06-.34.1-.56.1H1.44c-.13 0-.2-.12-.2-.36v-.09c0-.25.07-.37.2-.37h4.68c.2 0 .34-.04.41-.11.07-.07.11-.17.11-.28 0-.09-.01-.16-.02-.2-.01-.04-.02-.08-.02-.11 0-.04.03-.08.1-.1.06-.03.13-.05.2-.06.07-.02.12-.02.14-.02.09 0 .15.04.19.11.04.08.07.16.08.26.01.1.01.19.01.27zM2.56 89.16c0 .15-.02.26-.05.32-.04.07-.08.1-.15.1h-.52c-.06 0-.11-.03-.15-.1-.03-.07-.05-.17-.05-.32s.02-.26.05-.32c.04-.07.08-.1.15-.1h.52c.06 0 .11.03.15.1.03.06.05.17.05.32zm4.72.04c0 .25-.07.37-.2.37H3.27c-.13 0-.2-.12-.2-.37v-.08c0-.25.07-.37.2-.37h3.82c.13 0 .2.12.2.37v.08zM7.28 87.1c0 .25-.07.37-.2.37H4.36c-.23 0-.42.01-.57.02-.14.02-.25.03-.33.05-.08.02-.12.02-.14.02-.04 0-.08-.02-.1-.07a.442.442 0 01-.06-.16.628.628 0 01-.03-.19c0-.06-.01-.11-.01-.14 0-.07.03-.12.09-.16s.13-.06.21-.08c.08-.02.16-.03.23-.05-.18-.15-.33-.34-.44-.56-.11-.22-.17-.44-.17-.68 0-.41.11-.73.34-.94.22-.22.54-.33.96-.33H7.1c.13 0 .2.12.2.37v.09c0 .24-.07.37-.2.37H4.42c-.22 0-.39.06-.51.18s-.18.3-.18.54c0 .18.05.34.15.5.1.16.23.29.38.4h2.82c.13 0 .2.12.2.37v.08zM7.32 81.27c0 .66-.17 1.15-.51 1.48-.34.33-.89.5-1.64.5-.4 0-.74-.05-1.01-.15-.27-.1-.49-.24-.66-.42-.17-.18-.29-.38-.36-.62s-.11-.49-.11-.75c0-.2.02-.4.06-.59.04-.19.09-.34.15-.46s.14-.18.22-.18c.04 0 .1.02.18.05.08.04.15.08.21.12.06.04.09.09.09.13 0 .01 0 .02-.01.03a5.418 5.418 0 00-.15.38c-.05.14-.07.31-.07.51 0 .35.11.62.34.8.22.19.59.28 1.1.28.52 0 .9-.08 1.14-.26.24-.17.36-.46.36-.87 0-.21-.03-.39-.08-.54-.05-.15-.09-.26-.13-.33-.01-.03-.02-.05-.02-.06 0-.02-.01-.03-.01-.04 0-.04.03-.09.09-.14.06-.05.13-.09.2-.12.07-.04.13-.05.17-.05.07 0 .13.04.18.12.05.08.1.18.14.31s.07.27.1.42c.02.16.03.31.03.45zM7.32 77.48c0 .61-.18 1.07-.55 1.4-.37.32-.9.48-1.58.48-.69 0-1.23-.16-1.6-.48-.37-.32-.56-.79-.56-1.4 0-.6.19-1.06.56-1.38.37-.32.91-.48 1.6-.48.69 0 1.22.16 1.59.47s.54.78.54 1.39zm-.68.02c0-.36-.12-.62-.36-.79-.24-.16-.61-.25-1.1-.25s-.87.08-1.11.25c-.24.17-.36.43-.36.79 0 .35.12.61.36.77s.61.24 1.11.24c.5 0 .86-.08 1.1-.24.24-.16.36-.42.36-.77zM7.28 74.22c0 .25-.07.37-.2.37H4.36c-.23 0-.42.01-.57.02-.14.02-.25.03-.33.05-.08.02-.12.02-.14.02-.04 0-.08-.02-.1-.07a.382.382 0 01-.06-.16.628.628 0 01-.03-.19c0-.06-.01-.11-.01-.14 0-.07.03-.12.09-.16.06-.04.13-.07.21-.08.08-.02.16-.04.23-.05a2.1 2.1 0 01-.42-.5c-.13-.21-.19-.44-.19-.7 0-.15.02-.3.06-.44.04-.14.1-.28.2-.4s.23-.21.39-.28c-.17-.14-.32-.33-.45-.55s-.2-.46-.2-.72c0-.15.02-.3.06-.44s.11-.28.2-.4c.1-.12.23-.22.4-.29.17-.07.38-.11.64-.11H7.1c.13 0 .2.12.2.37v.09c0 .25-.07.37-.2.37H4.42c-.21 0-.38.06-.5.17-.13.11-.19.28-.19.51 0 .14.03.26.08.37s.12.21.2.29.15.15.21.19c.06.04.1.07.11.08l-.38.01c.06-.03.12-.04.19-.05.07-.01.13-.01.2-.01h2.74c.13 0 .2.12.2.37v.08c0 .25-.07.37-.2.37H4.42c-.21 0-.38.06-.5.17-.13.11-.19.29-.19.52 0 .12.02.24.07.34.05.11.1.2.17.28.06.08.12.14.18.18.06.04.09.07.1.07h2.83c.13 0 .2.12.2.37v.08zM7.32 66.02c0 .68-.18 1.19-.54 1.51-.36.33-.89.49-1.58.49-.49 0-.9-.07-1.22-.22-.32-.15-.56-.37-.72-.65-.16-.28-.24-.62-.24-1.02 0-.38.09-.7.26-.94.17-.25.41-.43.72-.55.31-.12.68-.18 1.11-.18.03 0 .08.02.14.06s.11.08.16.13.07.09.07.12v2.39c.41-.03.7-.14.88-.33.18-.19.28-.46.28-.82 0-.22-.03-.4-.08-.56-.05-.15-.11-.27-.16-.37a.528.528 0 01-.07-.18c0-.04.03-.09.09-.14s.13-.09.2-.13a.4.4 0 01.16-.06c.06 0 .13.04.19.12.06.08.12.19.17.33s.09.29.12.46c.05.19.06.37.06.54zm-2.48 1.14V65.3c-.37 0-.65.07-.84.21-.2.14-.29.35-.29.64 0 .29.09.53.28.7.18.17.46.27.85.31zM8.96 60.19c0 .06-.04.12-.1.18-.3.28-.65.53-1.06.74-.41.21-.85.37-1.32.48s-.97.17-1.49.17c-.53 0-1.03-.06-1.5-.17s-.91-.28-1.32-.48c-.4-.21-.76-.45-1.06-.74-.07-.05-.11-.11-.11-.18 0-.04.01-.08.04-.13.02-.05.05-.09.09-.12.04-.03.08-.05.12-.05.03 0 .05 0 .08.02.03.01.06.03.08.05.48.35 1.02.62 1.62.81.6.19 1.25.28 1.94.28s1.33-.09 1.94-.28c.6-.18 1.14-.45 1.62-.8.03-.02.05-.04.08-.05.03-.01.05-.02.08-.02s.07.02.11.05c.04.03.08.07.11.11.03.04.05.08.05.13zM7.27 59.24c0 .04-.03.07-.08.1s-.11.05-.18.06c-.07.02-.14.02-.2.02s-.11-.01-.13-.03l-2.56-2.06c-.18-.14-.33-.24-.44-.3a1.29 1.29 0 00-.31-.13 1.36 1.36 0 00-.3-.04c-.25 0-.44.08-.57.25-.14.17-.2.39-.2.68 0 .22.03.4.1.56.06.15.13.27.19.36.06.09.1.16.1.2 0 .04-.03.09-.08.14-.05.05-.11.09-.18.12s-.13.05-.18.05c-.1 0-.18-.05-.26-.15-.07-.1-.14-.23-.2-.38s-.1-.32-.13-.49a2.79 2.79 0 01-.05-.46c0-.53.13-.95.39-1.26.26-.3.6-.46 1.04-.46.14 0 .27.01.39.03s.24.06.36.12.26.14.42.25c.16.11.35.25.56.42.22.17.47.38.77.62l1.05.85v-2.17c0-.12.1-.18.29-.18h.1c.19 0 .29.06.29.18v3.1zM7.32 53.38c0 .34-.1.65-.31.93s-.52.5-.94.66c-.42.17-.95.25-1.6.25-.65 0-1.19-.08-1.6-.25-.42-.17-.73-.39-.94-.66s-.31-.59-.31-.93c0-.35.1-.66.31-.94s.52-.5.94-.67c.42-.17.95-.25 1.6-.25.65 0 1.18.08 1.6.25.42.17.74.39.94.67s.31.59.31.94zm-.68 0c0-.18-.07-.35-.22-.5-.15-.16-.38-.28-.7-.38-.32-.1-.74-.14-1.26-.14s-.93.04-1.25.14c-.32.1-.55.22-.7.38-.15.15-.22.32-.22.5s.07.34.22.5c.15.16.38.28.7.37.32.09.74.14 1.26.14s.94-.05 1.26-.14c.32-.09.55-.22.7-.37a.76.76 0 00.21-.5zM7.27 50.68c0 .04-.03.07-.08.1s-.11.05-.18.06c-.07.02-.14.02-.2.02s-.11-.01-.13-.03l-2.56-2.06c-.18-.14-.33-.24-.44-.3a1.29 1.29 0 00-.31-.13 1.36 1.36 0 00-.3-.04c-.25 0-.44.08-.57.25-.14.17-.2.39-.2.68 0 .22.03.4.1.56.06.15.13.27.19.36.06.09.1.16.1.2 0 .04-.03.09-.08.14-.05.05-.11.09-.18.12-.07.04-.13.05-.18.05-.1 0-.18-.05-.26-.15-.07-.1-.14-.23-.2-.38-.06-.16-.1-.32-.13-.49a2.79 2.79 0 01-.05-.46c0-.53.13-.95.39-1.26.26-.3.6-.46 1.04-.46.14 0 .27.01.39.03.12.02.24.06.36.12s.26.14.42.25c.16.11.35.25.56.42.22.17.47.38.77.62l1.05.85v-2.17c0-.12.1-.18.29-.18h.1c.19 0 .29.06.29.18v3.1zM7.27 46.3c0 .12-.1.18-.29.18h-.1c-.19 0-.29-.06-.29-.18V45h-4.1l.22 1.32c0 .05-.03.08-.08.11-.06.03-.12.04-.2.06-.08.01-.14.02-.2.02-.1 0-.15-.05-.18-.16l-.4-1.9c0-.06.02-.12.05-.18.04-.06.08-.09.12-.09h4.77v-1.06c0-.12.1-.18.29-.18h.1c.19 0 .29.06.29.18v3.18zM7.32 37.9c0 .71-.17 1.26-.5 1.65-.33.38-.79.58-1.38.58h-3.6c-.13 0-.2-.12-.2-.37v-.12c0-.25.07-.37.2-.37h3.59c.22 0 .42-.06.6-.18.17-.12.31-.28.4-.49.1-.21.14-.44.14-.7 0-.27-.05-.5-.15-.71-.1-.21-.23-.37-.4-.48-.17-.12-.37-.18-.59-.18H1.85c-.13 0-.2-.12-.2-.37v-.12c0-.25.07-.37.2-.37h3.6c.59 0 1.05.19 1.38.58.33.4.49.94.49 1.65zM7.32 33.07c0 .36-.04.68-.12.95-.08.27-.17.47-.27.6-.08.11-.16.17-.23.17-.05 0-.12-.02-.2-.06-.08-.04-.15-.09-.22-.14-.06-.06-.1-.1-.1-.13 0-.02.01-.05.02-.08.02-.03.04-.07.06-.1.05-.11.12-.26.2-.45.08-.19.12-.42.12-.69 0-.18-.03-.34-.1-.49a.872.872 0 00-.28-.35.768.768 0 00-.45-.13c-.2 0-.36.06-.48.18s-.22.27-.3.46-.17.38-.25.58c-.06.17-.14.33-.22.48-.08.16-.18.29-.29.42-.12.12-.26.22-.43.3-.17.08-.39.11-.64.11-.31 0-.59-.08-.81-.24-.23-.16-.4-.37-.52-.65-.12-.27-.18-.58-.18-.92 0-.14.01-.28.04-.43.02-.15.06-.29.1-.42.04-.13.09-.24.15-.32.07-.11.14-.17.22-.17.05 0 .11.02.19.06s.15.08.22.13c.06.05.1.09.1.13 0 .02-.01.05-.03.09-.02.04-.04.09-.07.14-.04.08-.08.19-.12.31-.04.12-.06.28-.06.46 0 .2.03.38.09.52s.15.25.26.32c.11.08.25.11.41.11.18 0 .33-.05.43-.14.11-.1.19-.22.26-.38s.14-.32.21-.5c.07-.17.15-.34.23-.52.08-.18.19-.34.31-.49.12-.15.28-.27.46-.36.18-.09.41-.13.68-.13.27 0 .5.04.7.13.2.09.37.21.5.38.14.16.24.35.31.57.07.2.1.44.1.69zM7.27 30.06c0 .18-.09.26-.26.26H1.93c-.18 0-.26-.09-.26-.26v-1.64c0-.49.09-.92.28-1.29.19-.38.49-.67.9-.88.41-.21.95-.32 1.62-.32.5 0 .93.06 1.28.18s.64.29.86.52c.22.22.39.48.49.79.11.3.16.64.16 1.01v1.63zm-.74-.59v-1.01c0-.33-.07-.61-.21-.86-.14-.25-.36-.44-.66-.58-.3-.14-.7-.21-1.19-.21s-.89.07-1.19.21c-.3.14-.52.34-.66.58-.14.25-.21.54-.21.86v1.01h4.12zM8.95 25.1c0 .04-.01.09-.04.14-.02.05-.06.09-.1.12-.04.03-.08.05-.12.05-.02 0-.04 0-.06-.02a.21.21 0 01-.06-.04c-.47-.35-1.02-.62-1.62-.82a6.54 6.54 0 00-1.96-.29c-.69 0-1.34.09-1.94.28-.6.18-1.14.45-1.62.8-.03.02-.05.04-.08.05s-.07.03-.09.03c-.04 0-.08-.02-.12-.05a.4.4 0 01-.1-.12.201.201 0 01-.04-.13c0-.06.04-.13.1-.18.3-.29.65-.53 1.06-.74.4-.21.84-.37 1.32-.48a6.695 6.695 0 012.99 0c.48.11.92.28 1.32.48.4.21.76.45 1.06.74.07.05.1.12.1.18z"/><path style="opacity:.7;fill:none;stroke:#000;stroke-width:.5;stroke-miterlimit:10" d="M45.78 51.28h1.67M45.78 63.78h1.67M45.78 76.27h1.67M45.78 101.27h1.67M45.78 88.77h1.67M45.78 113.76h1.67"/><g><path d="M49.53 173.48c-.25 0-.37-.07-.37-.2v-5.15c0-.18.09-.26.26-.26h1.64c.18 0 .37.02.58.06s.41.11.6.22.35.28.47.49c.12.22.18.5.18.85 0 .29-.05.54-.14.74-.09.2-.21.37-.35.49-.14.12-.29.22-.46.28a2.134 2.134 0 01-.8.16h-1.13v2.12c0 .13-.12.2-.36.2h-.12zm.49-3.05h1.1c.08 0 .17-.01.27-.04a.806.806 0 00.52-.42c.06-.12.09-.28.09-.48 0-.25-.05-.43-.15-.56s-.23-.21-.38-.26-.3-.07-.44-.07h-1.02v1.83zM55.22 173.52c-.61 0-1.07-.18-1.4-.55-.32-.37-.48-.9-.48-1.58 0-.69.16-1.23.48-1.6.32-.37.79-.56 1.4-.56.6 0 1.06.19 1.38.56.32.37.48.91.48 1.6 0 .69-.16 1.22-.47 1.59-.32.36-.78.54-1.39.54zm-.02-.68c.36 0 .62-.12.78-.36.17-.24.25-.61.25-1.1s-.08-.87-.25-1.11c-.17-.24-.43-.36-.78-.36-.35 0-.61.12-.77.36-.16.24-.24.61-.24 1.11 0 .5.08.86.24 1.1.16.24.42.36.77.36zM59.77 173.52c-.61 0-1.07-.18-1.4-.55-.32-.37-.48-.9-.48-1.58 0-.69.16-1.23.48-1.6.32-.37.79-.56 1.4-.56.6 0 1.06.19 1.38.56.32.37.48.91.48 1.6 0 .69-.16 1.22-.47 1.59-.32.36-.78.54-1.39.54zm-.02-.68c.36 0 .62-.12.78-.36.17-.24.25-.61.25-1.1s-.08-.87-.25-1.11c-.17-.24-.43-.36-.78-.36-.35 0-.61.12-.77.36-.16.24-.24.61-.24 1.11 0 .5.08.86.24 1.1.16.24.42.36.77.36zM63.06 173.48c-.25 0-.37-.07-.37-.2v-2.73c0-.23-.01-.42-.02-.57-.02-.14-.03-.25-.05-.33-.02-.08-.02-.12-.02-.14 0-.04.02-.08.07-.1.05-.03.1-.05.16-.06.06-.02.13-.03.19-.03s.11-.01.15-.01c.07 0 .12.03.16.09s.06.13.08.21c.02.08.04.16.05.23.12-.18.26-.33.41-.44.15-.11.32-.17.5-.17.17 0 .28.03.36.09.07.06.11.15.11.26 0 .05-.01.11-.02.19-.02.08-.04.15-.06.21-.03.06-.06.09-.1.09-.05 0-.11-.01-.16-.04s-.14-.04-.26-.04a.63.63 0 00-.35.11 1.398 1.398 0 00-.36.36v2.82c0 .13-.12.2-.36.2h-.11zM67.21 173.52c-.68 0-1.19-.18-1.51-.54-.33-.36-.49-.89-.49-1.58 0-.49.07-.9.22-1.22.15-.32.37-.56.65-.72.28-.16.62-.24 1.02-.24.38 0 .7.09.94.26.25.17.43.41.55.72.12.31.18.68.18 1.11 0 .03-.02.08-.06.14-.04.06-.08.11-.13.16s-.09.07-.12.07h-2.39c.03.41.14.7.33.88.19.18.46.28.82.28.22 0 .4-.03.56-.08.15-.05.27-.11.37-.16a.58.58 0 01.19-.08c.04 0 .09.03.14.09s.09.13.13.2a.4.4 0 01.06.16c0 .06-.04.13-.12.19-.08.06-.19.12-.33.17s-.29.09-.46.12-.38.07-.55.07zm-1.14-2.48h1.86c0-.37-.07-.65-.21-.84-.14-.2-.35-.29-.64-.29-.29 0-.53.09-.7.28-.17.18-.27.46-.31.85zM70.13 173.48c-.25 0-.37-.07-.37-.2v-2.73c0-.23-.01-.42-.02-.57-.02-.14-.03-.25-.05-.33-.02-.08-.02-.12-.02-.14 0-.04.02-.08.07-.1.04-.03.1-.05.16-.06.06-.02.13-.03.19-.03s.11-.01.15-.01c.07 0 .12.03.16.09.03.06.06.13.08.21.02.08.04.16.05.23.12-.18.26-.33.41-.44.15-.11.32-.17.5-.17.17 0 .28.03.36.09.07.06.11.15.11.26 0 .05-.01.11-.02.19-.02.08-.04.15-.06.21-.03.06-.06.09-.1.09-.05 0-.11-.01-.16-.04s-.14-.04-.26-.04a.63.63 0 00-.35.11 1.398 1.398 0 00-.36.36v2.82c0 .13-.12.2-.36.2h-.11zM76.33 173.52c-.66 0-1.15-.17-1.48-.51-.33-.34-.5-.89-.5-1.64 0-.4.05-.74.15-1.01.1-.27.24-.49.42-.66.18-.17.39-.29.62-.36.24-.07.49-.11.75-.11.2 0 .4.02.59.06.19.04.34.09.46.15s.18.14.18.22c0 .04-.02.1-.05.18-.04.08-.08.15-.12.21-.05.06-.09.09-.13.09-.01 0-.02 0-.03-.01a5.418 5.418 0 00-.38-.15c-.14-.05-.31-.07-.51-.07-.35 0-.62.11-.8.34-.19.22-.28.59-.28 1.1 0 .52.09.9.26 1.14.17.24.46.36.87.36.21 0 .39-.03.54-.08.15-.05.26-.09.33-.13.03-.01.05-.02.06-.02.02 0 .03-.01.04-.01.04 0 .09.03.14.09.05.06.09.13.12.2.04.07.05.13.05.17 0 .07-.04.13-.12.18-.08.05-.18.1-.31.14s-.27.07-.42.1c-.15.02-.3.03-.45.03zM80.13 173.52c-.61 0-1.07-.18-1.4-.55-.32-.37-.48-.9-.48-1.58 0-.69.16-1.23.48-1.6.32-.37.79-.56 1.4-.56.6 0 1.06.19 1.38.56.32.37.48.91.48 1.6 0 .69-.16 1.22-.47 1.59-.32.36-.78.54-1.39.54zm-.02-.68c.36 0 .62-.12.78-.36.17-.24.25-.61.25-1.1s-.08-.87-.25-1.11c-.17-.24-.43-.36-.78-.36-.35 0-.61.12-.77.36-.16.24-.24.61-.24 1.11 0 .5.08.86.24 1.1.16.24.42.36.77.36zM84.22 173.52c-.41 0-.72-.11-.94-.34-.22-.22-.33-.54-.33-.96v-2.76c0-.13.12-.2.37-.2h.09c.25 0 .37.07.37.2v2.66c0 .22.06.39.18.51s.3.18.54.18c.18 0 .34-.05.5-.15s.29-.23.4-.38v-2.82c0-.13.12-.2.37-.2h.09c.25 0 .37.07.37.2v2.75c0 .23.01.42.02.57.02.14.03.25.05.33.02.07.02.12.02.15 0 .04-.02.08-.07.1-.05.03-.1.05-.16.06-.06.02-.13.03-.19.03s-.11.01-.14.01c-.07 0-.12-.03-.16-.09s-.06-.14-.08-.22c-.02-.09-.03-.17-.05-.24-.16.18-.34.32-.56.44-.23.12-.45.17-.69.17zM87.85 173.48c-.25 0-.37-.07-.37-.2v-2.73c0-.23-.01-.42-.02-.57-.02-.14-.03-.25-.05-.33-.02-.08-.02-.12-.02-.14 0-.04.02-.08.07-.1.04-.03.1-.05.16-.06.06-.02.13-.03.19-.03s.11-.01.14-.01c.07 0 .12.03.16.09.04.06.06.13.08.21.02.08.03.16.05.23.15-.18.34-.33.56-.44.22-.11.44-.17.68-.17.41 0 .73.11.94.34.22.22.33.54.33.96v2.76c0 .13-.12.2-.37.2h-.09c-.25 0-.37-.07-.37-.2v-2.66c0-.22-.06-.39-.18-.51s-.3-.18-.54-.18c-.18 0-.34.05-.5.15s-.29.23-.4.38v2.82c0 .13-.12.2-.37.2h-.08zM93.16 173.52c-.12 0-.25-.02-.38-.06s-.24-.1-.35-.18a.89.89 0 01-.25-.36c-.06-.15-.1-.34-.1-.56v-2.4h-.32c-.12 0-.18-.1-.18-.29v-.1c0-.19.06-.29.18-.29h.32l.1-.82c.02-.13.12-.2.3-.2h.13c.19 0 .29.07.29.2v.82h.59c.12 0 .18.1.18.29v.1c0 .19-.06.29-.18.29h-.59v2.36c0 .2.04.34.11.41.07.07.17.11.28.11.09 0 .16-.01.2-.02.04-.01.08-.02.11-.02.04 0 .08.03.1.1.03.06.05.13.06.2.02.07.02.12.02.14 0 .09-.04.15-.11.19-.07.04-.16.07-.26.08-.08.01-.17.01-.25.01zM95.06 173.48c-.25 0-.37-.07-.37-.2v-2.73c0-.23-.01-.42-.02-.57-.02-.14-.03-.25-.05-.33-.02-.08-.02-.12-.02-.14 0-.04.02-.08.07-.1.04-.03.1-.05.16-.06.06-.02.13-.03.19-.03s.11-.01.15-.01c.07 0 .12.03.16.09.03.06.06.13.08.21.02.08.04.16.05.23.12-.18.26-.33.41-.44.15-.11.32-.17.5-.17.17 0 .28.03.36.09.07.06.11.15.11.26 0 .05-.01.11-.02.19-.02.08-.04.15-.06.21-.03.06-.06.09-.1.09-.05 0-.11-.01-.16-.04s-.14-.04-.26-.04a.63.63 0 00-.35.11 1.398 1.398 0 00-.36.36v2.82c0 .13-.12.2-.36.2h-.11zM98.03 168.76c-.15 0-.26-.02-.32-.05-.07-.04-.1-.08-.1-.15v-.52c0-.06.03-.11.1-.15.07-.03.17-.05.32-.05s.26.02.32.05c.07.04.1.08.1.15v.52c0 .06-.03.11-.1.15-.06.03-.17.05-.32.05zm-.04 4.72c-.25 0-.37-.07-.37-.2v-3.82c0-.13.12-.2.37-.2h.08c.25 0 .37.07.37.2v3.82c0 .13-.12.2-.37.2h-.08zM101.49 173.52c-.68 0-1.19-.18-1.51-.54-.33-.36-.49-.89-.49-1.58 0-.49.07-.9.22-1.22.15-.32.37-.56.65-.72.28-.16.62-.24 1.02-.24.38 0 .7.09.94.26.25.17.43.41.55.72.12.31.18.68.18 1.11 0 .03-.02.08-.06.14-.04.06-.08.11-.13.16s-.09.07-.12.07h-2.39c.03.41.14.7.33.88.19.18.46.28.82.28.22 0 .4-.03.56-.08.15-.05.27-.11.37-.16a.58.58 0 01.19-.08c.04 0 .09.03.14.09s.09.13.13.2a.4.4 0 01.06.16c0 .06-.04.13-.12.19-.08.06-.19.12-.33.17s-.29.09-.46.12-.37.07-.55.07zm-1.13-2.48h1.86c0-.37-.07-.65-.21-.84-.14-.2-.35-.29-.64-.29-.29 0-.53.09-.7.28-.17.18-.28.46-.31.85zM104.97 173.54c-.23 0-.44-.03-.64-.08-.2-.06-.35-.12-.47-.2-.12-.08-.18-.16-.18-.23 0-.04.02-.1.06-.17.04-.07.08-.14.13-.2s.09-.09.14-.09c.03 0 .08.03.15.08.08.05.18.1.3.15.13.05.28.07.45.07.46 0 .7-.17.7-.52 0-.19-.07-.32-.21-.41s-.32-.17-.54-.24c-.17-.06-.34-.14-.5-.23-.17-.09-.3-.21-.41-.37-.11-.16-.16-.38-.16-.65 0-.24.06-.45.17-.63.11-.18.27-.32.48-.42s.44-.15.71-.15c.18 0 .35.01.52.04.17.03.31.07.42.13.11.06.17.13.17.2 0 .05-.02.11-.05.19-.03.08-.07.15-.11.21-.04.06-.09.09-.13.09-.03 0-.1-.03-.22-.1-.12-.06-.29-.1-.5-.1-.18 0-.33.04-.45.12-.12.08-.18.19-.18.35 0 .14.05.26.14.34.1.08.26.16.5.24.21.07.41.16.59.26s.32.24.43.4c.11.17.16.38.16.65 0 .25-.06.47-.18.66-.12.19-.29.34-.51.46-.24.09-.49.15-.78.15z"/></g><g><path d="M240.85 173.48c-.25 0-.37-.07-.37-.2v-5.15c0-.18.09-.26.26-.26h1.41c.64 0 1.12.12 1.45.35s.49.6.49 1.09c0 .33-.08.61-.25.83-.17.22-.39.39-.68.5v.03c.15.05.28.15.39.32.1.17.2.37.29.61l.65 1.62c.02.06.03.1.03.13 0 .09-.13.14-.38.14h-.15c-.09 0-.17-.01-.23-.04a.229.229 0 01-.13-.1l-.62-1.57c-.11-.27-.24-.46-.4-.55-.16-.1-.39-.14-.68-.14h-.6v2.2c0 .13-.12.2-.37.2h-.11zm.48-3.14h.97a.902.902 0 00.79-.45c.08-.14.12-.29.12-.45 0-.28-.09-.49-.26-.63-.18-.14-.41-.21-.7-.21h-.91v1.74zM245.71 168.76c-.15 0-.26-.02-.32-.05-.07-.04-.1-.08-.1-.15v-.52c0-.06.03-.11.1-.15.07-.03.17-.05.32-.05s.26.02.32.05c.07.04.1.08.1.15v.52c0 .06-.03.11-.1.15-.06.03-.17.05-.32.05zm-.04 4.72c-.25 0-.37-.07-.37-.2v-3.82c0-.13.12-.2.37-.2h.08c.25 0 .37.07.37.2v3.82c0 .13-.12.2-.37.2h-.08zM249.14 173.52c-.66 0-1.15-.17-1.48-.51-.33-.34-.5-.89-.5-1.64 0-.4.05-.74.15-1.01.1-.27.24-.49.42-.66.18-.17.39-.29.62-.36.24-.07.49-.11.75-.11.2 0 .4.02.59.06.19.04.34.09.46.15s.18.14.18.22c0 .04-.02.1-.05.18-.04.08-.08.15-.12.21-.05.06-.09.09-.13.09-.01 0-.02 0-.03-.01a5.418 5.418 0 00-.38-.15c-.14-.05-.31-.07-.51-.07-.35 0-.62.11-.8.34-.19.22-.28.59-.28 1.1 0 .52.09.9.26 1.14.17.24.46.36.87.36.21 0 .39-.03.54-.08.15-.05.26-.09.33-.13.03-.01.05-.02.06-.02.02 0 .03-.01.04-.01.04 0 .09.03.14.09.05.06.09.13.12.2.04.07.05.13.05.17 0 .07-.04.13-.12.18-.08.05-.18.1-.31.14s-.27.07-.42.1c-.16.02-.3.03-.45.03zM251.68 173.48c-.24 0-.36-.07-.36-.2v-5.64c0-.13.12-.2.36-.2h.09c.25 0 .37.07.37.2v2.14c.13-.14.3-.26.51-.38.21-.11.43-.17.68-.17.15 0 .3.02.45.06.15.04.28.11.4.2.12.1.22.23.29.4.07.17.11.38.11.64v2.76c0 .13-.12.2-.37.2h-.08c-.25 0-.37-.07-.37-.2v-2.66c0-.21-.06-.38-.18-.5-.12-.13-.3-.19-.55-.19-.13 0-.25.02-.36.07s-.2.11-.28.17c-.08.07-.14.13-.19.18-.04.05-.07.09-.08.1v2.82c0 .13-.12.2-.37.2h-.07zM257.57 173.52c-.68 0-1.19-.18-1.51-.54-.33-.36-.49-.89-.49-1.58 0-.49.07-.9.22-1.22.15-.32.37-.56.65-.72.28-.16.62-.24 1.02-.24.38 0 .7.09.94.26.25.17.43.41.55.72.12.31.18.68.18 1.11 0 .03-.02.08-.06.14-.04.06-.08.11-.13.16s-.09.07-.12.07h-2.39c.03.41.14.7.33.88.19.18.46.28.82.28.22 0 .4-.03.56-.08.15-.05.27-.11.37-.16a.58.58 0 01.19-.08c.04 0 .09.03.14.09s.09.13.13.2a.4.4 0 01.06.16c0 .06-.04.13-.12.19-.08.06-.19.12-.33.17s-.29.09-.46.12-.37.07-.55.07zm-1.13-2.48h1.86c0-.37-.07-.65-.21-.84-.14-.2-.35-.29-.64-.29-.29 0-.53.09-.7.28-.17.18-.28.46-.31.85zM260.5 173.48c-.25 0-.37-.07-.37-.2v-2.73c0-.23-.01-.42-.02-.57-.02-.14-.03-.25-.05-.33-.02-.08-.02-.12-.02-.14 0-.04.02-.08.07-.1.04-.03.1-.05.16-.06.06-.02.13-.03.19-.03s.11-.01.15-.01c.07 0 .12.03.16.09.03.06.06.13.08.21.02.08.04.16.05.23.12-.18.26-.33.41-.44.15-.11.32-.17.5-.17.17 0 .28.03.36.09.07.06.11.15.11.26 0 .05-.01.11-.02.19-.02.08-.04.15-.06.21-.03.06-.06.09-.1.09-.05 0-.11-.01-.16-.04s-.14-.04-.26-.04a.63.63 0 00-.35.11 1.398 1.398 0 00-.36.36v2.82c0 .13-.12.2-.36.2h-.11zM266.7 173.52c-.66 0-1.15-.17-1.48-.51-.33-.34-.5-.89-.5-1.64 0-.4.05-.74.15-1.01.1-.27.24-.49.42-.66.18-.17.39-.29.62-.36.24-.07.49-.11.75-.11.2 0 .4.02.59.06.19.04.34.09.46.15s.18.14.18.22c0 .04-.02.1-.05.18-.04.08-.08.15-.12.21-.05.06-.09.09-.13.09-.01 0-.02 0-.03-.01a5.418 5.418 0 00-.38-.15c-.14-.05-.31-.07-.51-.07-.35 0-.62.11-.8.34-.19.22-.28.59-.28 1.1 0 .52.09.9.26 1.14.17.24.46.36.87.36.21 0 .39-.03.54-.08.15-.05.26-.09.33-.13.03-.01.05-.02.06-.02.02 0 .03-.01.04-.01.04 0 .09.03.14.09.05.06.09.13.12.2.04.07.05.13.05.17 0 .07-.04.13-.12.18-.08.05-.18.1-.31.14s-.27.07-.42.1c-.16.02-.3.03-.45.03zM270.49 173.52c-.61 0-1.07-.18-1.4-.55-.32-.37-.48-.9-.48-1.58 0-.69.16-1.23.48-1.6.32-.37.79-.56 1.4-.56.6 0 1.06.19 1.38.56.32.37.48.91.48 1.6 0 .69-.16 1.22-.47 1.59-.31.36-.77.54-1.39.54zm-.01-.68c.36 0 .62-.12.78-.36.17-.24.25-.61.25-1.1s-.08-.87-.25-1.11c-.17-.24-.43-.36-.78-.36-.35 0-.61.12-.77.36-.16.24-.24.61-.24 1.11 0 .5.08.86.24 1.1.16.24.41.36.77.36zM274.59 173.52c-.41 0-.72-.11-.94-.34-.22-.22-.33-.54-.33-.96v-2.76c0-.13.12-.2.37-.2h.09c.25 0 .37.07.37.2v2.66c0 .22.06.39.18.51s.3.18.54.18c.18 0 .34-.05.5-.15s.29-.23.4-.38v-2.82c0-.13.12-.2.37-.2h.09c.25 0 .37.07.37.2v2.75c0 .23.01.42.02.57.02.14.03.25.05.33.02.07.02.12.02.15 0 .04-.02.08-.07.1-.05.03-.1.05-.16.06-.06.02-.13.03-.19.03s-.11.01-.14.01c-.07 0-.12-.03-.16-.09s-.06-.14-.08-.22c-.02-.09-.03-.17-.05-.24-.16.18-.34.32-.56.44-.23.12-.46.17-.69.17zM278.21 173.48c-.25 0-.37-.07-.37-.2v-2.73c0-.23-.01-.42-.02-.57-.02-.14-.03-.25-.05-.33-.02-.08-.02-.12-.02-.14 0-.04.02-.08.07-.1.04-.03.1-.05.16-.06.06-.02.13-.03.19-.03s.11-.01.14-.01c.07 0 .12.03.16.09.04.06.06.13.08.21.02.08.03.16.05.23.15-.18.34-.33.56-.44.22-.11.44-.17.68-.17.41 0 .73.11.94.34.22.22.33.54.33.96v2.76c0 .13-.12.2-.37.2h-.09c-.25 0-.37-.07-.37-.2v-2.66c0-.22-.06-.39-.18-.51s-.3-.18-.54-.18c-.18 0-.34.05-.5.15s-.29.23-.4.38v2.82c0 .13-.12.2-.37.2h-.08zM283.52 173.52c-.12 0-.25-.02-.38-.06s-.24-.1-.35-.18a.89.89 0 01-.25-.36c-.06-.15-.1-.34-.1-.56v-2.4h-.32c-.12 0-.18-.1-.18-.29v-.1c0-.19.06-.29.18-.29h.32l.1-.82c.02-.13.12-.2.3-.2h.13c.19 0 .29.07.29.2v.82h.59c.12 0 .18.1.18.29v.1c0 .19-.06.29-.18.29h-.59v2.36c0 .2.04.34.11.41.07.07.17.11.28.11.09 0 .16-.01.2-.02.04-.01.08-.02.11-.02.04 0 .08.03.1.1.03.06.05.13.06.2s.02.12.02.14c0 .09-.04.15-.11.19a.72.72 0 01-.26.08c-.08.01-.17.01-.25.01zM285.43 173.48c-.25 0-.37-.07-.37-.2v-2.73c0-.23-.01-.42-.02-.57-.02-.14-.03-.25-.05-.33-.02-.08-.02-.12-.02-.14 0-.04.02-.08.07-.1.04-.03.1-.05.16-.06.06-.02.13-.03.19-.03s.11-.01.15-.01c.07 0 .12.03.16.09.03.06.06.13.08.21.02.08.04.16.05.23.12-.18.26-.33.41-.44.15-.11.32-.17.5-.17.17 0 .28.03.36.09.07.06.11.15.11.26 0 .05-.01.11-.02.19-.02.08-.04.15-.06.21-.03.06-.06.09-.1.09-.05 0-.11-.01-.16-.04s-.14-.04-.26-.04a.63.63 0 00-.35.11 1.398 1.398 0 00-.36.36v2.82c0 .13-.12.2-.36.2h-.11zM288.4 168.76c-.15 0-.26-.02-.32-.05-.07-.04-.1-.08-.1-.15v-.52c0-.06.03-.11.1-.15.07-.03.17-.05.32-.05s.26.02.32.05c.07.04.1.08.1.15v.52c0 .06-.03.11-.1.15-.07.03-.17.05-.32.05zm-.04 4.72c-.25 0-.37-.07-.37-.2v-3.82c0-.13.12-.2.37-.2h.08c.25 0 .37.07.37.2v3.82c0 .13-.12.2-.37.2h-.08zM291.86 173.52c-.68 0-1.19-.18-1.51-.54-.33-.36-.49-.89-.49-1.58 0-.49.07-.9.22-1.22.15-.32.37-.56.65-.72.28-.16.62-.24 1.02-.24.38 0 .7.09.94.26.25.17.43.41.55.72.12.31.18.68.18 1.11 0 .03-.02.08-.06.14-.04.06-.08.11-.13.16s-.09.07-.12.07h-2.39c.03.41.14.7.33.88.19.18.46.28.82.28.22 0 .4-.03.56-.08.15-.05.27-.11.37-.16a.58.58 0 01.19-.08c.04 0 .09.03.14.09s.09.13.13.2a.4.4 0 01.06.16c0 .06-.04.13-.12.19-.08.06-.19.12-.33.17s-.29.09-.46.12-.37.07-.55.07zm-1.14-2.48h1.86c0-.37-.07-.65-.21-.84-.14-.2-.35-.29-.64-.29-.29 0-.53.09-.7.28-.16.18-.27.46-.31.85zM295.34 173.54c-.23 0-.44-.03-.64-.08-.2-.06-.35-.12-.47-.2-.12-.08-.18-.16-.18-.23 0-.04.02-.1.06-.17.04-.07.08-.14.13-.2s.09-.09.14-.09c.03 0 .08.03.15.08.08.05.18.1.3.15.13.05.28.07.45.07.46 0 .7-.17.7-.52 0-.19-.07-.32-.21-.41s-.32-.17-.54-.24c-.17-.06-.34-.14-.5-.23-.17-.09-.3-.21-.41-.37-.11-.16-.16-.38-.16-.65 0-.24.06-.45.17-.63.11-.18.27-.32.48-.42s.44-.15.71-.15c.18 0 .35.01.52.04.17.03.31.07.42.13.11.06.17.13.17.2 0 .05-.02.11-.05.19-.03.08-.07.15-.11.21-.04.06-.09.09-.13.09-.03 0-.1-.03-.22-.1-.12-.06-.29-.1-.5-.1-.18 0-.33.04-.45.12-.12.08-.18.19-.18.35 0 .14.05.26.14.34.1.08.26.16.5.24.21.07.41.16.59.26s.32.24.43.4c.11.17.16.38.16.65 0 .25-.06.47-.18.66-.12.19-.29.34-.51.46-.24.09-.49.15-.78.15z"/></g><g><path d="M22.98 27.98c-.14 0-.21-.05-.21-.15V26.8h-2.13c-.02 0-.05-.02-.08-.06a.523.523 0 01-.07-.15c-.02-.06-.02-.11-.02-.15s0-.07.01-.08l2.3-3.21c.02-.03.06-.06.1-.07.04-.02.09-.02.14-.02h.11c.14 0 .21.05.21.15v3.09h.47c.09 0 .14.07.14.21v.08c0 .14-.05.21-.14.21h-.47v1.03c0 .1-.07.15-.21.15h-.15zm-1.81-1.69h1.6v-1.74c0-.08 0-.17.01-.27 0-.1.01-.19.03-.27l-.03-.01-1.61 2.29zM25.97 28.01c-.28 0-.54-.09-.78-.26s-.44-.44-.58-.81c-.15-.37-.22-.84-.22-1.42s.07-1.06.22-1.42c.15-.37.34-.64.58-.81.24-.17.5-.26.78-.26.29 0 .55.09.79.26s.44.44.59.81c.15.37.22.84.22 1.42s-.08 1.05-.22 1.42c-.15.37-.34.64-.59.81-.25.17-.51.26-.79.26zm0-.51c.17 0 .33-.06.48-.19.15-.13.28-.34.38-.63.1-.29.15-.68.15-1.17s-.05-.88-.15-1.17c-.1-.29-.22-.5-.38-.63-.15-.13-.32-.19-.48-.19s-.33.06-.48.19c-.15.13-.28.34-.37.63s-.14.68-.14 1.17.05.88.14 1.17c.1.29.22.5.37.63s.31.19.48.19zM29.71 28.01c-.28 0-.54-.09-.78-.26s-.43-.44-.58-.81c-.15-.37-.22-.84-.22-1.42s.08-1.06.22-1.42c.15-.37.34-.64.58-.81.24-.17.5-.26.78-.26s.55.09.79.26.44.44.59.81c.15.37.22.84.22 1.42s-.07 1.05-.22 1.42c-.15.37-.35.64-.59.81-.24.17-.5.26-.79.26zm0-.51c.17 0 .33-.06.48-.19.15-.13.28-.34.38-.63.1-.29.15-.68.15-1.17s-.05-.88-.15-1.17c-.1-.29-.22-.5-.38-.63-.15-.13-.31-.19-.48-.19s-.33.06-.48.19c-.15.13-.28.34-.37.63s-.14.68-.14 1.17.05.88.14 1.17c.1.29.22.5.37.63s.31.19.48.19zM31.89 28.78c-.04 0-.08-.01-.13-.02s-.07-.04-.07-.08c0-.02.01-.05.02-.08s.03-.06.04-.09c.08-.15.14-.32.18-.49.04-.17.06-.37.06-.58 0-.07.02-.12.07-.16s.12-.06.21-.06h.06c.09 0 .16.02.21.05.05.03.07.08.07.14 0 .21-.03.4-.08.57a1.557 1.557 0 01-.44.71c-.08.06-.15.09-.2.09zM34.84 28.01c-.28 0-.54-.09-.78-.26s-.43-.44-.58-.81c-.15-.37-.22-.84-.22-1.42s.08-1.06.22-1.42c.15-.37.34-.64.58-.81.24-.17.5-.26.78-.26s.55.09.79.26.44.44.59.81c.15.37.22.84.22 1.42s-.07 1.05-.22 1.42c-.15.37-.35.64-.59.81-.24.17-.5.26-.79.26zm0-.51c.17 0 .33-.06.48-.19.15-.13.28-.34.38-.63.1-.29.15-.68.15-1.17s-.05-.88-.15-1.17c-.1-.29-.22-.5-.38-.63-.15-.13-.31-.19-.48-.19s-.33.06-.48.19c-.15.13-.28.34-.37.63s-.14.68-.14 1.17.05.88.14 1.17c.1.29.22.5.37.63s.31.19.48.19zM38.59 28.01c-.28 0-.54-.09-.78-.26s-.43-.44-.58-.81c-.16-.37-.23-.85-.23-1.42 0-.58.08-1.06.22-1.42.15-.37.34-.64.58-.81.24-.17.5-.26.78-.26s.55.09.79.26.44.44.59.81c.15.37.22.84.22 1.42s-.07 1.05-.22 1.42c-.15.37-.35.64-.59.81-.23.17-.5.26-.78.26zm0-.51c.17 0 .33-.06.48-.19.15-.13.28-.34.38-.63.1-.29.15-.68.15-1.17s-.05-.88-.15-1.17c-.1-.29-.22-.5-.38-.63-.15-.13-.31-.19-.48-.19s-.33.06-.48.19c-.15.13-.28.34-.37.63s-.14.68-.14 1.17.05.88.14 1.17c.1.29.22.5.37.63s.31.19.48.19zM42.33 28.01c-.28 0-.54-.09-.78-.26s-.44-.44-.58-.81c-.15-.37-.22-.84-.22-1.42s.07-1.06.22-1.42c.15-.37.34-.64.58-.81.24-.17.5-.26.78-.26.29 0 .55.09.79.26s.44.44.59.81c.15.37.22.84.22 1.42s-.08 1.05-.22 1.42c-.15.37-.34.64-.59.81-.24.17-.5.26-.79.26zm0-.51c.17 0 .33-.06.48-.19.15-.13.28-.34.38-.63.1-.29.15-.68.15-1.17s-.05-.88-.15-1.17c-.1-.29-.22-.5-.38-.63-.15-.13-.32-.19-.48-.19s-.33.06-.48.19c-.15.13-.28.34-.37.63s-.14.68-.14 1.17.05.88.14 1.17c.1.29.22.5.37.63s.31.19.48.19z"/></g><g><path d="M22.07 52.98c-.21 0-.39-.01-.56-.04-.17-.03-.32-.06-.45-.1a.992.992 0 01-.29-.13c-.07-.05-.1-.09-.1-.13 0-.05.01-.1.04-.15s.07-.1.11-.14c.04-.04.07-.06.09-.06.05 0 .12.02.21.06.09.04.21.08.36.12s.33.06.53.06c.14 0 .29-.03.44-.08s.29-.15.4-.29c.11-.14.16-.34.16-.59 0-.36-.1-.6-.29-.73-.19-.13-.45-.19-.76-.19h-.23c-.09 0-.14-.07-.14-.21v-.08c0-.14.05-.21.14-.21h.2c.24 0 .43-.05.56-.16.13-.11.23-.23.28-.38a.96.96 0 00.08-.38c0-.09-.02-.19-.07-.29a.634.634 0 00-.25-.27c-.12-.07-.29-.11-.52-.11-.21 0-.38.02-.52.06-.13.04-.24.08-.31.12-.08.04-.13.06-.17.06-.02 0-.05-.02-.09-.07a.864.864 0 01-.1-.16.301.301 0 01-.04-.14c0-.05.04-.1.13-.15.09-.05.2-.09.33-.12s.27-.06.41-.08c.14-.02.27-.03.37-.03.42 0 .75.1 1.02.31s.4.52.4.93c0 .24-.07.45-.22.61-.15.16-.31.28-.5.36v.03c.14.04.28.11.41.22.13.11.25.25.34.43.09.18.13.39.13.64 0 .27-.05.5-.14.69-.1.19-.22.34-.38.45s-.33.2-.51.25c-.15.04-.32.07-.5.07zM25.97 52.98c-.28 0-.54-.09-.78-.26s-.44-.44-.58-.81c-.15-.37-.22-.84-.22-1.42s.07-1.06.22-1.42c.15-.37.34-.64.58-.81.24-.17.5-.26.78-.26.29 0 .55.09.79.26s.44.44.59.81c.15.37.22.84.22 1.42s-.08 1.05-.22 1.42c-.15.37-.34.64-.59.81-.25.17-.51.26-.79.26zm0-.51c.17 0 .33-.06.48-.19.15-.13.28-.34.38-.63.1-.29.15-.68.15-1.17s-.05-.88-.15-1.17c-.1-.29-.22-.5-.38-.63-.15-.13-.32-.19-.48-.19s-.33.06-.48.19c-.15.13-.28.34-.37.63s-.14.68-.14 1.17.05.88.14 1.17c.1.29.22.5.37.63s.31.19.48.19zM29.71 52.98c-.28 0-.54-.09-.78-.26s-.43-.44-.58-.81c-.15-.37-.22-.84-.22-1.42s.08-1.06.22-1.42c.15-.37.34-.64.58-.81.24-.17.5-.26.78-.26s.55.09.79.26.44.44.59.81c.15.37.22.84.22 1.42s-.07 1.05-.22 1.42c-.15.37-.35.64-.59.81-.24.17-.5.26-.79.26zm0-.51c.17 0 .33-.06.48-.19.15-.13.28-.34.38-.63.1-.29.15-.68.15-1.17s-.05-.88-.15-1.17c-.1-.29-.22-.5-.38-.63-.15-.13-.31-.19-.48-.19s-.33.06-.48.19c-.15.13-.28.34-.37.63s-.14.68-.14 1.17.05.88.14 1.17c.1.29.22.5.37.63s.31.19.48.19zM31.89 53.75c-.04 0-.08-.01-.13-.02s-.07-.04-.07-.08c0-.02.01-.05.02-.08s.03-.06.04-.09c.08-.15.14-.32.18-.49.04-.17.06-.37.06-.58 0-.07.02-.12.07-.16s.12-.06.21-.06h.06c.09 0 .16.02.21.05.05.03.07.08.07.14 0 .21-.03.4-.08.57a1.557 1.557 0 01-.44.71c-.08.05-.15.09-.2.09zM34.84 52.98c-.28 0-.54-.09-.78-.26s-.43-.44-.58-.81c-.15-.37-.22-.84-.22-1.42s.08-1.06.22-1.42c.15-.37.34-.64.58-.81.24-.17.5-.26.78-.26s.55.09.79.26.44.44.59.81c.15.37.22.84.22 1.42s-.07 1.05-.22 1.42c-.15.37-.35.64-.59.81-.24.17-.5.26-.79.26zm0-.51c.17 0 .33-.06.48-.19.15-.13.28-.34.38-.63.1-.29.15-.68.15-1.17s-.05-.88-.15-1.17c-.1-.29-.22-.5-.38-.63-.15-.13-.31-.19-.48-.19s-.33.06-.48.19c-.15.13-.28.34-.37.63s-.14.68-.14 1.17.05.88.14 1.17c.1.29.22.5.37.63s.31.19.48.19zM38.59 52.98c-.28 0-.54-.09-.78-.26s-.43-.44-.58-.81c-.16-.37-.23-.85-.23-1.43s.08-1.06.22-1.42c.15-.37.34-.64.58-.81.24-.17.5-.26.78-.26s.55.09.79.26.44.44.59.81c.15.37.22.84.22 1.42s-.07 1.05-.22 1.42c-.15.37-.35.64-.59.81-.23.18-.5.27-.78.27zm0-.51c.17 0 .33-.06.48-.19.15-.13.28-.34.38-.63.1-.29.15-.68.15-1.17s-.05-.88-.15-1.17c-.1-.29-.22-.5-.38-.63-.15-.13-.31-.19-.48-.19s-.33.06-.48.19c-.15.13-.28.34-.37.63s-.14.68-.14 1.17.05.88.14 1.17c.1.29.22.5.37.63s.31.19.48.19zM42.33 52.98c-.28 0-.54-.09-.78-.26s-.44-.44-.58-.81c-.15-.37-.22-.84-.22-1.42s.07-1.06.22-1.42c.15-.37.34-.64.58-.81.24-.17.5-.26.78-.26.29 0 .55.09.79.26s.44.44.59.81c.15.37.22.84.22 1.42s-.08 1.05-.22 1.42c-.15.37-.34.64-.59.81-.24.17-.5.26-.79.26zm0-.51c.17 0 .33-.06.48-.19.15-.13.28-.34.38-.63.1-.29.15-.68.15-1.17s-.05-.88-.15-1.17c-.1-.29-.22-.5-.38-.63-.15-.13-.32-.19-.48-.19s-.33.06-.48.19c-.15.13-.28.34-.37.63s-.14.68-.14 1.17.05.88.14 1.17c.1.29.22.5.37.63s.31.19.48.19z"/></g><g><path d="M22.07 40.49c-.21 0-.39-.01-.56-.04-.17-.03-.32-.06-.45-.1a.992.992 0 01-.29-.13c-.07-.05-.1-.09-.1-.13 0-.05.01-.1.04-.15s.07-.1.11-.14c.04-.04.07-.06.09-.06.05 0 .12.02.21.06.09.04.21.08.36.12s.33.06.53.06c.14 0 .29-.03.44-.08s.29-.15.4-.29c.11-.14.16-.34.16-.59 0-.36-.1-.6-.29-.73-.19-.13-.45-.19-.76-.19h-.23c-.09 0-.14-.07-.14-.21v-.08c0-.14.05-.21.14-.21h.2c.24 0 .43-.05.56-.16.13-.11.23-.23.28-.38a.96.96 0 00.08-.38c0-.09-.02-.19-.07-.29a.634.634 0 00-.25-.27c-.12-.07-.29-.11-.52-.11-.21 0-.38.02-.52.06-.13.04-.24.08-.31.12-.08.04-.13.06-.17.06-.02 0-.05-.02-.09-.07a.864.864 0 01-.1-.16.301.301 0 01-.04-.14c0-.05.04-.1.13-.15.09-.05.2-.09.33-.12s.27-.06.41-.08c.14-.02.27-.03.37-.03.42 0 .75.1 1.02.31s.4.52.4.93c0 .24-.07.45-.22.61-.15.16-.31.28-.5.36v.03c.14.04.28.11.41.22.13.11.25.25.34.43.09.18.13.39.13.64 0 .27-.05.5-.14.69-.1.19-.22.34-.38.45a1.727 1.727 0 01-1.01.32zM25.74 40.49c-.26 0-.48-.02-.68-.07-.2-.05-.35-.1-.46-.17-.11-.07-.17-.13-.17-.18 0-.05.02-.1.05-.15s.07-.1.1-.14c.04-.04.07-.06.09-.06.05 0 .11.02.2.07.09.04.2.09.34.13.14.04.31.07.51.07.19 0 .37-.04.53-.11.16-.07.3-.19.4-.34s.15-.35.15-.57c0-.31-.11-.55-.32-.71-.2-.18-.52-.26-.93-.26h-.59c-.08 0-.13-.02-.15-.05-.03-.03-.04-.09-.04-.16l.12-2.03c0-.07.02-.13.06-.16.04-.03.09-.05.16-.05h1.86c.09 0 .14.07.14.21v.08c0 .14-.05.21-.14.21h-1.52l-.09 1.44h.36c.19 0 .38.02.58.07s.38.12.55.23c.17.11.31.26.41.45.1.19.15.43.15.71 0 .3-.05.55-.15.75-.1.2-.23.35-.4.47-.17.11-.35.2-.55.24-.18.06-.38.08-.57.08zM29.71 40.49c-.28 0-.54-.09-.78-.26s-.43-.44-.58-.81c-.15-.37-.22-.84-.22-1.42s.08-1.06.22-1.42c.15-.37.34-.64.58-.81.24-.17.5-.26.78-.26s.55.09.79.26.44.44.59.81c.15.37.22.84.22 1.42s-.07 1.05-.22 1.42c-.15.37-.35.64-.59.81-.24.18-.5.26-.79.26zm0-.5c.17 0 .33-.06.48-.19.15-.13.28-.34.38-.63.1-.29.15-.68.15-1.17s-.05-.88-.15-1.17c-.1-.29-.22-.5-.38-.63-.15-.13-.31-.19-.48-.19s-.33.06-.48.19c-.15.13-.28.34-.37.63s-.14.68-.14 1.17.05.88.14 1.17c.1.29.22.5.37.63.15.12.31.19.48.19zM31.89 41.26c-.04 0-.08-.01-.13-.02s-.07-.04-.07-.08c0-.02.01-.05.02-.08s.03-.06.04-.09c.08-.15.14-.32.18-.49.04-.17.06-.37.06-.58 0-.07.02-.12.07-.16s.12-.06.21-.06h.06c.09 0 .16.02.21.05.05.03.07.08.07.14 0 .21-.03.4-.08.57a1.557 1.557 0 01-.44.71c-.08.06-.15.09-.2.09zM34.84 40.49c-.28 0-.54-.09-.78-.26s-.43-.44-.58-.81c-.15-.37-.22-.84-.22-1.42s.08-1.06.22-1.42c.15-.37.34-.64.58-.81.24-.17.5-.26.78-.26s.55.09.79.26.44.44.59.81c.15.37.22.84.22 1.42s-.07 1.05-.22 1.42c-.15.37-.35.64-.59.81-.24.18-.5.26-.79.26zm0-.5c.17 0 .33-.06.48-.19.15-.13.28-.34.38-.63.1-.29.15-.68.15-1.17s-.05-.88-.15-1.17c-.1-.29-.22-.5-.38-.63-.15-.13-.31-.19-.48-.19s-.33.06-.48.19c-.15.13-.28.34-.37.63s-.14.68-.14 1.17.05.88.14 1.17c.1.29.22.5.37.63.15.12.31.19.48.19zM38.59 40.49c-.28 0-.54-.09-.78-.26s-.43-.44-.58-.81c-.16-.37-.23-.84-.23-1.42s.08-1.06.22-1.42c.15-.37.34-.64.58-.81.24-.17.5-.26.78-.26s.55.09.79.26.44.44.59.81c.15.37.22.84.22 1.42s-.07 1.05-.22 1.42c-.15.37-.35.64-.59.81-.23.18-.5.26-.78.26zm0-.5c.17 0 .33-.06.48-.19.15-.13.28-.34.38-.63.1-.29.15-.68.15-1.17s-.05-.88-.15-1.17c-.1-.29-.22-.5-.38-.63-.15-.13-.31-.19-.48-.19s-.33.06-.48.19c-.15.13-.28.34-.37.63s-.14.68-.14 1.17.05.88.14 1.17c.1.29.22.5.37.63.15.12.31.19.48.19zM42.33 40.49c-.28 0-.54-.09-.78-.26s-.44-.44-.58-.81c-.15-.37-.22-.84-.22-1.42s.07-1.06.22-1.42c.15-.37.34-.64.58-.81.24-.17.5-.26.78-.26.29 0 .55.09.79.26s.44.44.59.81c.15.37.22.84.22 1.42s-.08 1.05-.22 1.42c-.15.37-.34.64-.59.81-.24.18-.5.26-.79.26zm0-.5c.17 0 .33-.06.48-.19.15-.13.28-.34.38-.63.1-.29.15-.68.15-1.17s-.05-.88-.15-1.17c-.1-.29-.22-.5-.38-.63-.15-.13-.32-.19-.48-.19s-.33.06-.48.19c-.15.13-.28.34-.37.63s-.14.68-.14 1.17.05.88.14 1.17c.1.29.22.5.37.63.15.12.31.19.48.19z"/></g><g><path d="M20.85 65.42c-.03 0-.05-.02-.07-.05a.334.334 0 01-.05-.12c-.01-.05-.02-.09-.02-.14 0-.06.01-.1.03-.12l1.81-2.27c.15-.2.26-.35.32-.46.07-.11.11-.21.13-.29.02-.08.03-.17.03-.27 0-.22-.08-.4-.23-.53-.16-.13-.37-.2-.64-.2-.21 0-.39.03-.53.09s-.25.12-.34.18c-.08.06-.14.09-.19.09-.02 0-.05-.02-.09-.07s-.07-.09-.09-.15a.301.301 0 01-.04-.13c0-.08.04-.14.13-.2s.2-.11.34-.16.27-.08.42-.11.27-.04.37-.04c.46 0 .82.11 1.09.32.27.21.4.5.4.87 0 .14-.01.26-.03.37-.02.11-.06.23-.12.35-.06.12-.15.27-.27.43-.12.17-.27.37-.47.61s-.43.53-.71.88l-.51.62h2.02c.09 0 .14.07.14.21v.08c0 .14-.05.21-.14.21h-2.69zM25.74 65.46c-.26 0-.48-.02-.68-.07-.2-.05-.35-.1-.46-.17s-.16-.13-.16-.18c0-.05.01-.1.04-.15s.07-.1.11-.14c.04-.04.07-.06.09-.06.05 0 .11.02.2.07.09.04.2.09.34.13.14.04.31.07.51.07.19 0 .37-.04.53-.11.16-.07.3-.19.4-.34s.15-.35.15-.57c0-.31-.11-.55-.32-.71s-.53-.25-.94-.25h-.6c-.07 0-.13-.02-.15-.05-.03-.03-.04-.09-.04-.16l.12-2.03c0-.07.02-.13.06-.16.04-.03.09-.05.17-.05h1.86c.09 0 .14.07.14.21v.08c0 .14-.05.21-.14.21h-1.52l-.09 1.44h.36c.19 0 .38.02.58.07.2.05.38.12.55.23.17.11.31.26.41.45.1.19.15.43.15.71 0 .3-.05.55-.15.75s-.23.35-.4.47c-.17.11-.35.2-.55.24-.18.05-.38.07-.57.07zM29.71 65.46c-.28 0-.54-.09-.78-.26s-.44-.44-.58-.81c-.15-.37-.22-.84-.22-1.42s.07-1.06.22-1.42c.15-.37.34-.64.58-.81.24-.17.5-.26.78-.26.29 0 .55.09.79.26s.44.44.59.81c.15.37.22.84.22 1.42s-.08 1.05-.22 1.42c-.15.37-.34.64-.59.81-.24.18-.5.26-.79.26zm0-.5c.17 0 .33-.06.48-.19.15-.13.28-.34.38-.63.1-.29.15-.68.15-1.17s-.05-.88-.15-1.17c-.1-.29-.22-.5-.38-.63-.15-.13-.32-.19-.48-.19s-.33.06-.48.19c-.15.13-.28.34-.37.63s-.14.68-.14 1.17.05.88.14 1.17c.1.29.22.5.37.63.15.12.31.19.48.19zM31.89 66.23c-.04 0-.08-.01-.13-.02s-.07-.04-.07-.08c0-.02.01-.05.02-.08s.03-.06.04-.09c.08-.15.14-.32.18-.49.04-.17.06-.37.06-.58 0-.07.02-.12.07-.16.05-.04.12-.06.21-.06h.06c.09 0 .16.02.21.05.05.03.07.08.07.14 0 .21-.03.4-.08.57a1.557 1.557 0 01-.44.71c-.08.06-.15.09-.2.09zM34.84 65.46c-.28 0-.54-.09-.78-.26s-.44-.44-.58-.81c-.15-.37-.22-.84-.22-1.42s.07-1.06.22-1.42c.15-.37.34-.64.58-.81.24-.17.5-.26.78-.26.29 0 .55.09.79.26s.44.44.59.81c.15.37.22.84.22 1.42s-.08 1.05-.22 1.42c-.15.37-.34.64-.59.81-.24.18-.5.26-.79.26zm0-.5c.17 0 .33-.06.48-.19.15-.13.28-.34.38-.63.1-.29.15-.68.15-1.17s-.05-.88-.15-1.17c-.1-.29-.22-.5-.38-.63-.15-.13-.32-.19-.48-.19s-.33.06-.48.19c-.15.13-.28.34-.37.63s-.14.68-.14 1.17.05.88.14 1.17c.1.29.22.5.37.63.15.12.31.19.48.19zM38.59 65.46c-.28 0-.54-.09-.78-.26s-.44-.44-.58-.81c-.16-.37-.23-.84-.23-1.42s.07-1.06.22-1.42c.15-.37.34-.64.58-.81.24-.17.5-.26.78-.26.29 0 .55.09.79.26s.44.44.59.81c.15.37.22.84.22 1.42s-.08 1.05-.22 1.42c-.15.37-.34.64-.59.81-.23.18-.5.26-.78.26zm0-.5c.17 0 .33-.06.48-.19.15-.13.28-.34.38-.63.1-.29.15-.68.15-1.17s-.05-.88-.15-1.17c-.1-.29-.22-.5-.38-.63-.15-.13-.32-.19-.48-.19s-.33.06-.48.19c-.15.13-.28.34-.37.63s-.14.68-.14 1.17.05.88.14 1.17c.1.29.22.5.37.63.15.12.31.19.48.19zM42.33 65.46c-.28 0-.54-.09-.78-.26s-.43-.44-.58-.81c-.15-.37-.22-.84-.22-1.42s.08-1.06.22-1.42c.15-.37.34-.64.58-.81.24-.17.5-.26.78-.26s.55.09.79.26.44.44.59.81c.15.37.22.84.22 1.42s-.07 1.05-.22 1.42c-.15.37-.35.64-.59.81-.24.18-.5.26-.79.26zm0-.5c.17 0 .33-.06.48-.19.15-.13.28-.34.38-.63.1-.29.15-.68.15-1.17s-.05-.88-.15-1.17c-.1-.29-.22-.5-.38-.63-.15-.13-.31-.19-.48-.19s-.33.06-.48.19c-.15.13-.28.34-.37.63s-.14.68-.14 1.17.05.88.14 1.17c.1.29.22.5.37.63.15.12.31.19.48.19z"/></g><g><path d="M20.91 90.39c-.09 0-.14-.07-.14-.21v-.08c0-.14.05-.21.14-.21h1.22v-3.77l-1.24.21c-.03 0-.06-.02-.08-.06a.527.527 0 01-.05-.15c-.01-.06-.01-.1-.01-.15 0-.07.04-.11.13-.13l1.62-.36c.05 0 .1.01.15.04.05.03.07.06.07.11v4.26h1.04c.09 0 .14.07.14.21v.08c0 .14-.05.21-.14.21h-2.85zM25.74 90.43c-.26 0-.48-.02-.68-.07-.2-.05-.35-.1-.46-.17-.11-.07-.17-.13-.17-.18 0-.05.02-.1.05-.15s.07-.1.1-.14c.04-.04.07-.06.09-.06.05 0 .11.02.2.07.09.04.2.09.34.13.14.04.31.07.51.07.19 0 .37-.04.53-.11.16-.07.3-.19.4-.34s.15-.35.15-.57c0-.31-.11-.55-.32-.71-.21-.16-.53-.25-.94-.25h-.59c-.08 0-.13-.02-.15-.05-.03-.03-.04-.09-.04-.16l.12-2.03c0-.07.02-.13.06-.16.04-.03.09-.05.16-.05h1.86c.09 0 .14.07.14.21v.08c0 .14-.05.21-.14.21h-1.52l-.09 1.44h.36c.19 0 .38.02.58.07s.38.12.55.23c.17.11.31.26.41.45.1.19.15.43.15.71 0 .3-.05.55-.15.75-.1.2-.23.35-.4.47-.17.11-.35.2-.55.24-.17.05-.37.07-.56.07zM29.71 90.43c-.28 0-.54-.09-.78-.26s-.43-.44-.58-.81c-.15-.37-.22-.84-.22-1.42s.08-1.06.22-1.42c.15-.37.34-.64.58-.81.24-.17.5-.26.78-.26s.55.09.79.26.44.44.59.81c.15.37.22.84.22 1.42s-.07 1.05-.22 1.42c-.15.37-.35.64-.59.81-.24.17-.5.26-.79.26zm0-.5c.17 0 .33-.06.48-.19.15-.13.28-.34.38-.63.1-.29.15-.68.15-1.17s-.05-.88-.15-1.17c-.1-.29-.22-.5-.38-.63-.15-.13-.31-.19-.48-.19s-.33.06-.48.19c-.15.13-.28.34-.37.63s-.14.68-.14 1.17.05.88.14 1.17c.1.29.22.5.37.63.15.12.31.19.48.19zM31.89 91.2c-.04 0-.08-.01-.13-.02s-.07-.04-.07-.08c0-.02.01-.05.02-.08s.03-.06.04-.09c.08-.15.14-.32.18-.49.04-.17.06-.37.06-.58 0-.07.02-.12.07-.16s.12-.06.21-.06h.06c.09 0 .16.02.21.05.05.03.07.08.07.14 0 .21-.03.4-.08.57a1.557 1.557 0 01-.44.71c-.08.06-.15.09-.2.09zM34.84 90.43c-.28 0-.54-.09-.78-.26s-.43-.44-.58-.81c-.15-.37-.22-.84-.22-1.42s.08-1.06.22-1.42c.15-.37.34-.64.58-.81.24-.17.5-.26.78-.26s.55.09.79.26.44.44.59.81c.15.37.22.84.22 1.42s-.07 1.05-.22 1.42c-.15.37-.35.64-.59.81-.24.17-.5.26-.79.26zm0-.5c.17 0 .33-.06.48-.19.15-.13.28-.34.38-.63.1-.29.15-.68.15-1.17s-.05-.88-.15-1.17c-.1-.29-.22-.5-.38-.63-.15-.13-.31-.19-.48-.19s-.33.06-.48.19c-.15.13-.28.34-.37.63s-.14.68-.14 1.17.05.88.14 1.17c.1.29.22.5.37.63.15.12.31.19.48.19zM38.59 90.43c-.28 0-.54-.09-.78-.26s-.43-.44-.58-.81c-.16-.37-.23-.84-.23-1.42s.08-1.06.22-1.42c.15-.37.34-.64.58-.81.24-.17.5-.26.78-.26s.55.09.79.26.44.44.59.81c.15.37.22.84.22 1.42s-.07 1.05-.22 1.42c-.15.37-.35.64-.59.81-.23.17-.5.26-.78.26zm0-.5c.17 0 .33-.06.48-.19.15-.13.28-.34.38-.63.1-.29.15-.68.15-1.17s-.05-.88-.15-1.17c-.1-.29-.22-.5-.38-.63-.15-.13-.31-.19-.48-.19s-.33.06-.48.19c-.15.13-.28.34-.37.63s-.14.68-.14 1.17.05.88.14 1.17c.1.29.22.5.37.63.15.12.31.19.48.19zM42.33 90.43c-.28 0-.54-.09-.78-.26s-.44-.44-.58-.81c-.15-.37-.22-.84-.22-1.42s.07-1.06.22-1.42c.15-.37.34-.64.58-.81.24-.17.5-.26.78-.26.29 0 .55.09.79.26s.44.44.59.81c.15.37.22.84.22 1.42s-.08 1.05-.22 1.42c-.15.37-.34.64-.59.81-.24.17-.5.26-.79.26zm0-.5c.17 0 .33-.06.48-.19.15-.13.28-.34.38-.63.1-.29.15-.68.15-1.17s-.05-.88-.15-1.17c-.1-.29-.22-.5-.38-.63-.15-.13-.32-.19-.48-.19s-.33.06-.48.19c-.15.13-.28.34-.37.63s-.14.68-.14 1.17.05.88.14 1.17c.1.29.22.5.37.63.15.12.31.19.48.19z"/></g><g><path d="M20.85 77.9c-.03 0-.05-.02-.07-.05a.334.334 0 01-.05-.12c-.01-.05-.02-.09-.02-.14 0-.06.01-.1.03-.12l1.81-2.27c.15-.2.26-.35.32-.46.06-.11.11-.21.13-.29.02-.08.03-.17.03-.27 0-.22-.08-.4-.23-.53s-.37-.2-.64-.2c-.21 0-.39.03-.53.09s-.25.12-.34.18c-.08.06-.14.09-.19.09-.02 0-.05-.02-.09-.07-.03-.04-.07-.09-.09-.15a.301.301 0 01-.04-.13c0-.08.04-.14.13-.2s.2-.11.34-.16c.13-.05.27-.08.42-.11.14-.03.27-.04.38-.04.46 0 .82.11 1.09.32.27.21.4.5.4.87 0 .14-.01.26-.03.37-.02.11-.06.23-.12.35-.06.12-.15.27-.27.43-.12.17-.27.37-.47.61s-.43.53-.71.88l-.51.62h2.02c.09 0 .14.07.14.21v.08c0 .14-.05.21-.14.21h-2.7zM25.97 77.95c-.28 0-.54-.09-.78-.26s-.44-.44-.58-.81c-.15-.37-.22-.84-.22-1.42s.07-1.06.22-1.42c.15-.37.34-.64.58-.81.24-.17.5-.26.78-.26.29 0 .55.09.79.26s.44.44.59.81c.15.37.22.84.22 1.42s-.08 1.05-.22 1.42c-.15.37-.34.64-.59.81-.25.17-.51.26-.79.26zm0-.51c.17 0 .33-.06.48-.19.15-.13.28-.34.38-.63.1-.29.15-.68.15-1.17s-.05-.88-.15-1.17c-.1-.29-.22-.5-.38-.63-.15-.13-.32-.19-.48-.19s-.33.06-.48.19c-.15.13-.28.34-.37.63s-.14.68-.14 1.17.05.88.14 1.17c.1.29.22.5.37.63s.31.19.48.19zM29.71 77.95c-.28 0-.54-.09-.78-.26s-.43-.44-.58-.81c-.15-.37-.22-.84-.22-1.42s.08-1.06.22-1.42c.15-.37.34-.64.58-.81.24-.17.5-.26.78-.26s.55.09.79.26.44.44.59.81c.15.37.22.84.22 1.42s-.07 1.05-.22 1.42c-.15.37-.35.64-.59.81-.24.17-.5.26-.79.26zm0-.51c.17 0 .33-.06.48-.19.15-.13.28-.34.38-.63.1-.29.15-.68.15-1.17s-.05-.88-.15-1.17c-.1-.29-.22-.5-.38-.63-.15-.13-.31-.19-.48-.19s-.33.06-.48.19c-.15.13-.28.34-.37.63s-.14.68-.14 1.17.05.88.14 1.17c.1.29.22.5.37.63s.31.19.48.19zM31.89 78.72c-.04 0-.08-.01-.13-.02s-.07-.04-.07-.08c0-.02.01-.05.02-.08s.03-.06.04-.09c.08-.15.14-.32.18-.49.04-.17.06-.37.06-.58 0-.07.02-.12.07-.16s.12-.06.21-.06h.06c.09 0 .16.02.21.05.05.03.07.08.07.14 0 .21-.03.4-.08.57a1.557 1.557 0 01-.44.71c-.08.05-.15.09-.2.09zM34.84 77.95c-.28 0-.54-.09-.78-.26s-.43-.44-.58-.81c-.15-.37-.22-.84-.22-1.42s.08-1.06.22-1.42c.15-.37.34-.64.58-.81.24-.17.5-.26.78-.26s.55.09.79.26.44.44.59.81c.15.37.22.84.22 1.42s-.07 1.05-.22 1.42c-.15.37-.35.64-.59.81-.24.17-.5.26-.79.26zm0-.51c.17 0 .33-.06.48-.19.15-.13.28-.34.38-.63.1-.29.15-.68.15-1.17s-.05-.88-.15-1.17c-.1-.29-.22-.5-.38-.63-.15-.13-.31-.19-.48-.19s-.33.06-.48.19c-.15.13-.28.34-.37.63s-.14.68-.14 1.17.05.88.14 1.17c.1.29.22.5.37.63s.31.19.48.19zM38.59 77.95c-.28 0-.54-.09-.78-.26s-.43-.44-.58-.81c-.16-.37-.23-.85-.23-1.43s.08-1.06.22-1.42c.15-.37.34-.64.58-.81.24-.17.5-.26.78-.26s.55.09.79.26.44.44.59.81c.15.37.22.84.22 1.42s-.07 1.05-.22 1.42c-.15.37-.35.64-.59.81-.23.18-.5.27-.78.27zm0-.51c.17 0 .33-.06.48-.19.15-.13.28-.34.38-.63.1-.29.15-.68.15-1.17s-.05-.88-.15-1.17c-.1-.29-.22-.5-.38-.63-.15-.13-.31-.19-.48-.19s-.33.06-.48.19c-.15.13-.28.34-.37.63s-.14.68-.14 1.17.05.88.14 1.17c.1.29.22.5.37.63s.31.19.48.19zM42.33 77.95c-.28 0-.54-.09-.78-.26s-.44-.44-.58-.81c-.15-.37-.22-.84-.22-1.42s.07-1.06.22-1.42c.15-.37.34-.64.58-.81.24-.17.5-.26.78-.26.29 0 .55.09.79.26s.44.44.59.81c.15.37.22.84.22 1.42s-.08 1.05-.22 1.42c-.15.37-.34.64-.59.81-.24.17-.5.26-.79.26zm0-.51c.17 0 .33-.06.48-.19.15-.13.28-.34.38-.63.1-.29.15-.68.15-1.17s-.05-.88-.15-1.17c-.1-.29-.22-.5-.38-.63-.15-.13-.32-.19-.48-.19s-.33.06-.48.19c-.15.13-.28.34-.37.63s-.14.68-.14 1.17.05.88.14 1.17c.1.29.22.5.37.63s.31.19.48.19z"/></g><g><path d="M20.91 102.87c-.09 0-.14-.07-.14-.21v-.08c0-.14.05-.21.14-.21h1.22V98.6l-1.24.21c-.03 0-.06-.02-.08-.06a.527.527 0 01-.05-.15c-.01-.06-.01-.1-.01-.15 0-.07.04-.11.13-.13l1.62-.36c.05 0 .1.01.15.04.05.03.07.06.07.11v4.26h1.04c.09 0 .14.07.14.21v.08c0 .14-.05.21-.14.21h-2.85zM25.97 102.92c-.28 0-.54-.09-.78-.26s-.44-.44-.58-.81c-.15-.37-.22-.84-.22-1.42s.07-1.06.22-1.42c.15-.37.34-.64.58-.81.24-.17.5-.26.78-.26.29 0 .55.09.79.26.24.16.44.43.59.8.15.37.22.84.22 1.42s-.08 1.05-.22 1.42c-.15.37-.34.64-.59.81-.25.18-.51.27-.79.27zm0-.51c.17 0 .33-.06.48-.19.15-.13.28-.34.38-.63.1-.29.15-.68.15-1.17s-.05-.88-.15-1.17c-.1-.29-.22-.5-.38-.63-.15-.13-.32-.19-.48-.19s-.33.06-.48.19c-.15.13-.28.34-.37.63s-.14.68-.14 1.17.05.88.14 1.17c.1.29.22.5.37.63s.31.19.48.19zM29.71 102.92c-.28 0-.54-.09-.78-.26s-.43-.44-.58-.81c-.15-.37-.22-.84-.22-1.42s.08-1.06.22-1.42c.15-.37.34-.64.58-.81.24-.17.5-.26.78-.26s.55.09.79.26.44.44.59.81c.15.37.22.84.22 1.42s-.07 1.05-.22 1.42c-.15.37-.35.64-.59.81-.24.17-.5.26-.79.26zm0-.51c.17 0 .33-.06.48-.19.15-.13.28-.34.38-.63.1-.29.15-.68.15-1.17s-.05-.88-.15-1.17c-.1-.29-.22-.5-.38-.63-.15-.13-.31-.19-.48-.19s-.33.06-.48.19c-.15.13-.28.34-.37.63s-.14.68-.14 1.17.05.88.14 1.17c.1.29.22.5.37.63s.31.19.48.19zM31.89 103.68c-.04 0-.08-.01-.13-.02s-.07-.04-.07-.08c0-.02.01-.05.02-.08s.03-.06.04-.09c.08-.15.14-.32.18-.49.04-.17.06-.37.06-.58 0-.07.02-.12.07-.16s.12-.06.21-.06h.06c.09 0 .16.02.21.05.05.03.07.08.07.14 0 .21-.03.4-.08.57a1.557 1.557 0 01-.44.71c-.08.06-.15.09-.2.09zM34.84 102.92c-.28 0-.54-.09-.78-.26s-.43-.44-.58-.81c-.15-.37-.22-.84-.22-1.42s.08-1.06.22-1.42c.15-.37.34-.64.58-.81.24-.17.5-.26.78-.26s.55.09.79.26.44.44.59.81c.15.37.22.84.22 1.42s-.07 1.05-.22 1.42c-.15.37-.35.64-.59.81-.24.17-.5.26-.79.26zm0-.51c.17 0 .33-.06.48-.19.15-.13.28-.34.38-.63.1-.29.15-.68.15-1.17s-.05-.88-.15-1.17c-.1-.29-.22-.5-.38-.63-.15-.13-.31-.19-.48-.19s-.33.06-.48.19c-.15.13-.28.34-.37.63s-.14.68-.14 1.17.05.88.14 1.17c.1.29.22.5.37.63s.31.19.48.19zM38.59 102.92c-.28 0-.54-.09-.78-.26s-.43-.44-.58-.81c-.16-.37-.23-.85-.23-1.43s.08-1.06.22-1.42c.15-.37.34-.64.58-.81.24-.17.5-.26.78-.26s.55.09.79.26.44.44.59.81c.15.37.22.84.22 1.42s-.07 1.05-.22 1.42c-.15.37-.35.64-.59.81-.23.18-.5.27-.78.27zm0-.51c.17 0 .33-.06.48-.19.15-.13.28-.34.38-.63.1-.29.15-.68.15-1.17s-.05-.88-.15-1.17c-.1-.29-.22-.5-.38-.63-.15-.13-.31-.19-.48-.19s-.33.06-.48.19c-.15.13-.28.34-.37.63s-.14.68-.14 1.17.05.88.14 1.17c.1.29.22.5.37.63s.31.19.48.19zM42.33 102.92c-.28 0-.54-.09-.78-.26s-.44-.44-.58-.81c-.15-.37-.22-.84-.22-1.42s.07-1.06.22-1.42c.15-.37.34-.64.58-.81.24-.17.5-.26.78-.26.29 0 .55.09.79.26s.44.44.59.81c.15.37.22.84.22 1.42s-.08 1.05-.22 1.42c-.15.37-.34.64-.59.81-.24.17-.5.26-.79.26zm0-.51c.17 0 .33-.06.48-.19.15-.13.28-.34.38-.63.1-.29.15-.68.15-1.17s-.05-.88-.15-1.17c-.1-.29-.22-.5-.38-.63-.15-.13-.32-.19-.48-.19s-.33.07-.48.2c-.15.13-.28.34-.37.63s-.14.68-.14 1.17.05.88.14 1.17c.1.29.22.5.37.63.15.12.31.18.48.18z"/></g><g><path d="M25.74 115.4c-.26 0-.48-.02-.68-.07-.2-.05-.35-.1-.46-.17-.11-.07-.17-.13-.17-.18 0-.05.02-.1.05-.15s.07-.1.1-.14c.04-.04.07-.06.09-.06.05 0 .11.02.2.07.09.04.2.09.34.13.14.04.31.07.51.07.19 0 .37-.04.53-.11.16-.07.3-.19.4-.34s.15-.35.15-.57c0-.31-.11-.55-.32-.71-.21-.16-.53-.25-.94-.25h-.59c-.08 0-.13-.02-.15-.05-.03-.03-.04-.09-.04-.16l.12-2.03c0-.07.02-.13.06-.16.04-.03.09-.05.16-.05h1.86c.09 0 .14.07.14.21v.08c0 .14-.05.21-.14.21h-1.52l-.09 1.44h.36c.19 0 .38.02.58.07s.38.12.55.23c.17.11.31.26.41.45.1.19.15.43.15.71 0 .3-.05.55-.15.75-.1.2-.23.35-.4.47-.17.11-.35.2-.55.24-.17.05-.37.07-.56.07zM29.71 115.4c-.28 0-.54-.09-.78-.26s-.44-.44-.58-.81c-.15-.37-.22-.84-.22-1.42s.07-1.06.22-1.42c.15-.37.34-.64.58-.81.24-.17.5-.26.78-.26.29 0 .55.09.79.26s.44.44.59.81c.15.37.22.84.22 1.42s-.08 1.05-.22 1.42c-.15.37-.34.64-.59.81-.24.17-.5.26-.79.26zm0-.51c.17 0 .33-.06.48-.19.15-.13.28-.34.38-.63.1-.29.15-.68.15-1.17s-.05-.88-.15-1.17c-.1-.29-.22-.5-.38-.63-.15-.13-.32-.19-.48-.19s-.33.06-.48.19c-.15.13-.28.34-.37.63s-.14.68-.14 1.17.05.88.14 1.17c.1.29.22.5.37.63s.31.19.48.19zM31.89 116.17c-.04 0-.08-.01-.13-.02s-.07-.04-.07-.08c0-.02.01-.05.02-.08s.03-.06.04-.09c.08-.15.14-.32.18-.49.04-.17.06-.37.06-.58 0-.07.02-.12.07-.16s.12-.06.21-.06h.06c.09 0 .16.02.21.05.05.03.07.08.07.14 0 .21-.03.4-.08.57a1.557 1.557 0 01-.44.71c-.08.06-.15.09-.2.09zM34.84 115.4c-.28 0-.54-.09-.78-.26s-.44-.44-.58-.81c-.15-.37-.22-.84-.22-1.42s.07-1.06.22-1.42c.15-.37.34-.64.58-.81.24-.17.5-.26.78-.26.29 0 .55.09.79.26s.44.44.59.81c.15.37.22.84.22 1.42s-.08 1.05-.22 1.42c-.15.37-.34.64-.59.81-.24.17-.5.26-.79.26zm0-.51c.17 0 .33-.06.48-.19.15-.13.28-.34.38-.63.1-.29.15-.68.15-1.17s-.05-.88-.15-1.17c-.1-.29-.22-.5-.38-.63-.15-.13-.32-.19-.48-.19s-.33.06-.48.19c-.15.13-.28.34-.37.63s-.14.68-.14 1.17.05.88.14 1.17c.1.29.22.5.37.63s.31.19.48.19zM38.59 115.4c-.28 0-.54-.09-.78-.26s-.43-.44-.58-.81c-.15-.37-.22-.84-.22-1.42s.08-1.06.22-1.42c.15-.37.34-.64.58-.81.24-.17.5-.26.78-.26s.55.09.79.26.44.44.59.81c.15.37.22.84.22 1.42s-.07 1.05-.22 1.42c-.15.37-.35.64-.59.81-.24.17-.51.26-.79.26zm0-.51c.17 0 .33-.06.48-.19.15-.13.28-.34.38-.63.1-.29.15-.68.15-1.17s-.05-.88-.15-1.17c-.1-.29-.22-.5-.38-.63-.15-.13-.31-.19-.48-.19s-.33.06-.48.19c-.15.13-.28.34-.37.63s-.14.68-.14 1.17.05.88.14 1.17c.1.29.22.5.37.63s.31.19.48.19zM42.33 115.4c-.28 0-.54-.09-.78-.26s-.43-.44-.58-.81c-.15-.37-.22-.84-.22-1.42s.08-1.06.22-1.42c.15-.37.34-.64.58-.81.24-.17.5-.26.78-.26s.55.09.79.26.44.44.59.81c.15.37.22.84.22 1.42s-.07 1.05-.22 1.42c-.15.37-.35.64-.59.81-.24.17-.5.26-.79.26zm0-.51c.17 0 .33-.06.48-.19.15-.13.28-.34.38-.63.1-.29.15-.68.15-1.17s-.05-.88-.15-1.17c-.1-.29-.22-.5-.38-.63-.15-.13-.31-.19-.48-.19s-.33.06-.48.19c-.15.13-.28.34-.37.63s-.14.68-.14 1.17.05.88.14 1.17c.1.29.22.5.37.63s.31.19.48.19z"/></g><g><path d="M42.33 127.88c-.28 0-.54-.09-.78-.26s-.43-.44-.58-.81c-.15-.37-.22-.84-.22-1.42s.08-1.06.22-1.42c.15-.37.34-.64.58-.81.24-.17.5-.26.78-.26s.55.09.79.26.44.44.59.81c.15.37.22.84.22 1.42s-.07 1.05-.22 1.42c-.15.37-.35.64-.59.81-.24.18-.5.26-.79.26zm0-.5c.17 0 .33-.06.48-.19.15-.13.28-.34.38-.63.1-.29.15-.68.15-1.17s-.05-.88-.15-1.17c-.1-.29-.22-.5-.38-.63-.15-.13-.31-.19-.48-.19s-.33.06-.48.19c-.15.13-.28.34-.37.63s-.14.68-.14 1.17.05.88.14 1.17c.1.29.22.5.37.63s.31.19.48.19z"/></g></g></g><defs><style>@import url("https://fonts.googleapis.com/css?family=Asap:400,400i,600,600i");</style></defs></svg>