<svg xmlns="http://www.w3.org/2000/svg" viewBox="0 0 311.81 198.58"><path d="M35.13 52.18c1.58 2.12 3.38 4.48 5.42 7 2.46 3.05 4.58 5.52 6.09 7.23 2.28 2.58 5.61 6.23 9.79 10.39 2.37 2.35 7.56 7.39 14.66 13.28 2.62 2.17 12.36 10.14 26.53 18.97 11.83 7.37 21.38 11.96 29.21 15.7 5.08 2.43 10.05 4.79 16.89 7.48 4.26 1.67 10.89 4.12 25.79 8.3 9.89 2.77 21.22 5.93 36.76 9.15 7.94 1.65 20.84 4.29 37.73 6.27 7.61.89 17.79 1.8 38.14 3.6 3.7.33 6.75.59 8.8.77v7.24H35.13V52.18z" style="fill:#fee6da"/><g><path d="M290.93 160.31c-4.47-.39-11.05-.96-19.01-1.69-18.01-1.65-27.02-2.48-33.83-3.39-14.99-2-26.44-4.41-33.55-5.93-12.58-2.68-21.98-5.21-28.79-7.06-8.76-2.37-15-4.27-20.13-5.93-5.18-1.67-8.78-2.85-13.7-4.8-5.84-2.32-10.28-4.46-15.1-6.78-5.07-2.44-8.92-4.45-11.74-5.93-4.56-2.39-8.89-4.75-11.46-6.21-16.15-9.15-30.2-20.6-31.59-21.74-9.16-7.51-15.65-14.05-18.45-16.94a214.94 214.94 0 01-18.45-21.74" style="fill:none;stroke:#ed1f24;stroke-miterlimit:10;stroke-width:.5px"/><line x1="291.38" y1="135.29" x2="35.13" y2="135.29" style="fill:none;stroke:#d5daef;stroke-width:.5px"/><line x1="290.93" y1="167.55" x2="34.73" y2="167.55" style="fill:none;stroke:#6d6e71;stroke-miterlimit:10;stroke-width:.5px"/><line x1="35.13" y1="6" x2="35.13" y2="167.55" style="fill:none;stroke:#6d6e71;stroke-miterlimit:10;stroke-width:.5px"/><line x1="290.74" y1="167.55" x2="290.74" y2="170.07" style="fill:none;stroke:#6d6e70;stroke-linecap:square;stroke-width:.5px"/><line x1="35.13" y1="167.55" x2="35.13" y2="170.07" style="fill:none;stroke:#6d6e70;stroke-linecap:square;stroke-width:.5px"/><line x1="35.13" y1="167.55" x2="32.6" y2="167.55" style="fill:none;stroke:#6d6e70;stroke-linecap:square;stroke-width:.5px"/><line x1="35.13" y1="151.42" x2="32.6" y2="151.42" style="fill:none;stroke:#6d6e70;stroke-linecap:square;stroke-width:.5px"/><line x1="35.13" y1="135.29" x2="32.6" y2="135.29" style="fill:none;stroke:#6d6e70;stroke-linecap:square;stroke-width:.5px"/><line x1="35.13" y1="119.17" x2="32.6" y2="119.17" style="fill:none;stroke:#6d6e70;stroke-linecap:square;stroke-width:.5px"/><line x1="35.13" y1="54.66" x2="32.6" y2="54.66" style="fill:none;stroke:#6d6e70;stroke-linecap:square;stroke-width:.5px"/><line x1="35.13" y1="70.79" x2="32.6" y2="70.79" style="fill:none;stroke:#6d6e70;stroke-linecap:square;stroke-width:.5px"/><line x1="35.13" y1="86.92" x2="32.6" y2="86.92" style="fill:none;stroke:#6d6e70;stroke-linecap:square;stroke-width:.5px"/><line x1="35.13" y1="103.04" x2="32.6" y2="103.04" style="fill:none;stroke:#6d6e70;stroke-linecap:square;stroke-width:.5px"/><line x1="35.13" y1="6.28" x2="32.6" y2="6.28" style="fill:none;stroke:#6d6e70;stroke-linecap:square;stroke-width:.5px"/><line x1="35.13" y1="22.41" x2="32.6" y2="22.41" style="fill:none;stroke:#6d6e70;stroke-linecap:square;stroke-width:.5px"/><line x1="35.13" y1="38.54" x2="32.6" y2="38.54" style="fill:none;stroke:#6d6e70;stroke-linecap:square;stroke-width:.5px"/><line x1="259.35" y1="167.55" x2="259.35" y2="170.07" style="fill:none;stroke:#6d6e70;stroke-linecap:square;stroke-width:.5px"/><line x1="195.29" y1="167.55" x2="195.29" y2="170.07" style="fill:none;stroke:#6d6e70;stroke-linecap:square;stroke-width:.5px"/><line x1="227.32" y1="167.55" x2="227.32" y2="170.07" style="fill:none;stroke:#6d6e70;stroke-linecap:square;stroke-width:.5px"/><line x1="163.25" y1="167.55" x2="163.25" y2="170.07" style="fill:none;stroke:#6d6e70;stroke-linecap:square;stroke-width:.5px"/><line x1="131.22" y1="167.55" x2="131.22" y2="170.07" style="fill:none;stroke:#6d6e70;stroke-linecap:square;stroke-width:.5px"/><line x1="99.19" y1="167.55" x2="99.19" y2="170.07" style="fill:none;stroke:#6d6e70;stroke-linecap:square;stroke-width:.5px"/><line x1="67.16" y1="167.55" x2="67.16" y2="170.07" style="fill:none;stroke:#6d6e70;stroke-linecap:square;stroke-width:.5px"/><path d="M117.45 195.12c-.41-.17-.81-.33-1.18-.47-1-.39-1.5-1.3-1.5-2.71 0-.93.21-1.65.64-2.14s1.04-.74 1.85-.74 1.43.25 1.86.74.64 1.2.64 2.14c0 .72-.13 1.31-.38 1.76-.26.46-.63.76-1.12.92v.04l1.47.47c.07.03.11.07.11.13 0 .04-.02.12-.05.22s-.08.2-.14.29c-.06.08-.11.13-.17.13-.04 0-.72-.26-2.02-.78zm1.01-1.6c.28-.37.42-.89.42-1.58s-.14-1.21-.42-1.58-.68-.55-1.2-.55-.91.18-1.19.55-.42.89-.42 1.58.14 1.21.42 1.58.67.55 1.19.55.92-.18 1.2-.55zM121.07 194.44c-.22-.23-.33-.54-.33-.96v-2.76c0-.13.12-.2.37-.2h.09c.25 0 .37.07.37.2v2.66c0 .22.06.39.18.51s.3.18.54.18c.17 0 .34-.05.5-.15.16-.1.29-.23.4-.38v-2.82c0-.13.12-.2.37-.2h.09c.25 0 .37.07.37.2v2.75c0 .36.02.62.05.78.03.16.05.25.05.27 0 .08-.07.13-.2.16s-.26.05-.37.05a.17.17 0 01-.17-.12c-.04-.08-.06-.17-.08-.26-.02-.09-.03-.15-.04-.18-.15.19-.34.33-.56.44-.22.11-.44.16-.67.16-.41 0-.72-.11-.94-.34zM125.37 194.47c-.23-.21-.35-.5-.35-.88 0-.54.22-.92.67-1.13.45-.22 1.07-.33 1.88-.33v-.34c0-.19-.06-.34-.19-.45-.13-.11-.33-.17-.62-.17-.22 0-.41.03-.57.08-.16.05-.3.1-.42.16-.11.06-.18.08-.2.08-.06 0-.13-.06-.2-.19-.08-.13-.12-.22-.12-.28 0-.08.07-.15.21-.24.14-.08.33-.15.56-.21.23-.06.48-.08.74-.08.53 0 .93.11 1.2.34.27.23.41.54.41.94v1.71c0 .36.02.62.05.78s.05.25.05.27c0 .08-.07.13-.2.16s-.25.05-.36.05c-.08 0-.15-.04-.18-.12s-.06-.17-.08-.26-.03-.15-.04-.18a1.8 1.8 0 01-.54.43c-.22.12-.47.18-.76.18-.41 0-.73-.1-.96-.31zm1.71-.52c.18-.1.34-.23.49-.39v-.8c-.52 0-.93.05-1.24.15-.31.1-.46.31-.46.62 0 .18.05.32.16.42s.25.15.44.15c.23 0 .44-.05.62-.14zM129.63 194.54v-2.73c0-.35-.02-.61-.05-.77s-.05-.25-.05-.27c0-.07.07-.13.2-.16s.26-.05.37-.05c.08 0 .14.04.17.11s.06.15.08.24c.02.08.03.14.04.18.16-.19.35-.33.57-.44s.44-.16.66-.16c.41 0 .72.11.94.34.22.23.33.55.33.96v2.76c0 .13-.12.2-.37.2h-.09c-.25 0-.37-.07-.37-.2v-2.66c0-.22-.06-.39-.18-.51s-.3-.18-.54-.18c-.17 0-.34.05-.5.15s-.29.22-.4.38v2.82c0 .13-.12.2-.37.2h-.09c-.25 0-.37-.07-.37-.2zM134.55 194.51c-.21-.18-.32-.48-.32-.89v-2.4h-.32c-.06 0-.11-.02-.14-.07-.03-.04-.04-.12-.04-.22v-.1c0-.1.01-.17.04-.22.03-.04.08-.07.14-.07h.32l.1-.82c.02-.13.12-.2.3-.2h.13c.19 0 .29.07.29.2v.82h.59c.06 0 .11.02.14.07.03.05.04.12.04.22v.1c0 .1-.01.17-.04.22-.03.05-.08.07-.14.07h-.59v2.36c0 .19.03.33.1.4.07.08.16.12.29.12.07 0 .14 0 .19-.02.05-.01.09-.02.12-.02.05 0 .1.06.14.17.04.12.06.2.06.26 0 .19-.21.29-.64.29-.29 0-.55-.09-.76-.27zM136.83 189.63v-.47c0-.15.14-.22.43-.22s.42.08.42.22v.47c0 .15-.14.22-.43.22s-.42-.07-.42-.22zm.02 4.91v-3.82c0-.13.12-.2.37-.2h.08c.25 0 .37.07.37.2v3.82c0 .13-.12.2-.37.2h-.08c-.25 0-.37-.07-.37-.2zM139.41 194.51c-.21-.18-.32-.48-.32-.89v-2.4h-.32c-.06 0-.11-.02-.14-.07-.03-.04-.04-.12-.04-.22v-.1c0-.1.01-.17.04-.22.03-.04.08-.07.14-.07h.32l.1-.82c.02-.13.12-.2.3-.2h.13c.19 0 .29.07.29.2v.82h.59c.06 0 .11.02.14.07.03.05.04.12.04.22v.1c0 .1-.01.17-.04.22-.03.05-.08.07-.14.07h-.59v2.36c0 .19.03.33.1.4.07.08.16.12.29.12.07 0 .14 0 .19-.02.05-.01.09-.02.12-.02.05 0 .1.06.14.17.04.12.06.2.06.26 0 .19-.21.29-.64.29-.29 0-.55-.09-.76-.27zM144.77 190.67s0 .07-.02.13l-1.99 5.42c-.04.11-.17.17-.39.17h-.13c-.22 0-.33-.05-.33-.14 0-.02.01-.06.04-.14l.62-1.55-1.38-3.77c-.02-.06-.02-.1-.02-.12 0-.1.13-.14.38-.14h.12c.21 0 .33.05.35.14l.72 1.98c.07.18.15.46.25.85h.02l.06-.22c.07-.26.14-.47.19-.63l.7-1.98c.03-.09.15-.14.37-.14h.07c.24 0 .36.05.36.14zM147.7 194.23c-.32-.37-.48-.89-.48-1.59s.16-1.23.49-1.6c.33-.37.79-.56 1.39-.56s1.06.19 1.38.56c.32.37.48.91.48 1.6s-.16 1.22-.47 1.59c-.31.37-.78.55-1.38.55s-1.08-.18-1.4-.55zm2.16-.49c.17-.24.25-.61.25-1.1s-.08-.87-.25-1.11c-.17-.24-.43-.36-.78-.36s-.6.12-.77.36c-.17.24-.25.61-.25 1.11s.08.86.24 1.1c.16.24.42.36.77.36s.61-.12.78-.36zM152.17 194.54v-3.32h-.27c-.06 0-.11-.02-.14-.07-.03-.04-.04-.12-.04-.22v-.1c0-.1.01-.17.04-.22.03-.04.08-.07.14-.07h.27v-.71c0-.43.1-.73.31-.9.21-.17.46-.26.76-.26.43 0 .64.09.64.28 0 .06-.02.15-.06.26-.04.12-.08.18-.14.18-.03 0-.07 0-.12-.02-.05-.01-.12-.02-.19-.02-.13 0-.23.04-.29.1-.07.07-.1.21-.1.42v.67h.61c.06 0 .11.02.14.07.03.05.04.12.04.22v.1c0 .1-.02.17-.04.22-.03.05-.08.07-.14.07h-.61v3.32c0 .13-.12.2-.37.2h-.09c-.24 0-.36-.07-.36-.2zM156.95 194.08c-.42-.46-.63-1.19-.63-2.17 0-1.9.87-2.85 2.61-2.85.26 0 .52.03.77.08.25.06.46.13.6.21.13.08.2.16.2.22 0 .08-.04.2-.12.34-.08.14-.16.21-.22.21-.02 0-.08-.03-.2-.09s-.26-.11-.43-.16c-.17-.05-.37-.07-.59-.07-.59 0-1.03.17-1.31.51-.28.34-.42.87-.42 1.6s.14 1.25.42 1.6c.28.35.71.52 1.29.52.26 0 .48-.03.66-.09.19-.06.37-.13.54-.22.08-.04.13-.06.15-.06.05 0 .1.03.15.1.05.07.09.14.13.22.04.08.06.14.06.18 0 .11-.09.21-.26.3-.16.09-.37.17-.63.22-.26.06-.53.09-.79.09-.89 0-1.54-.23-1.96-.7zM161.52 194.54v-5.64c0-.13.12-.2.36-.2h.09c.25 0 .37.07.37.2v2.14c.15-.16.33-.29.54-.4.21-.1.42-.16.66-.16.35 0 .65.1.89.3s.36.53.36 1v2.76c0 .13-.12.2-.37.2h-.08c-.25 0-.37-.07-.37-.2v-2.66c0-.22-.06-.39-.18-.51s-.3-.18-.54-.18c-.16 0-.3.04-.43.11s-.24.15-.32.24c-.08.09-.13.15-.15.18v2.82c0 .13-.12.2-.37.2h-.09c-.24 0-.36-.07-.36-.2zM165.77 192.66c0-.72.16-1.26.49-1.63.33-.37.79-.55 1.4-.55.56 0 .98.18 1.26.54.28.36.42.88.42 1.54 0 .05-.04.13-.12.22-.08.1-.14.14-.19.14h-2.39c.03.41.14.7.33.88.19.18.46.28.82.28.2 0 .38-.02.53-.07.15-.05.28-.1.39-.16.11-.06.17-.08.19-.08.06 0 .13.06.2.18.08.12.12.21.12.27 0 .09-.07.17-.21.25-.14.08-.32.15-.55.2-.22.05-.45.08-.68.08-1.33 0-2-.71-2-2.12zm2.72-.36c0-.37-.07-.65-.21-.84-.14-.2-.35-.29-.64-.29-.6 0-.94.38-1.01 1.14h1.86zM170.08 192.66c0-.72.16-1.26.49-1.63.33-.37.79-.55 1.4-.55.56 0 .98.18 1.26.54.28.36.42.88.42 1.54 0 .05-.04.13-.12.22-.08.1-.14.14-.19.14h-2.39c.03.41.14.7.33.88.19.18.46.28.82.28.2 0 .38-.02.53-.07.15-.05.28-.1.39-.16.11-.06.17-.08.19-.08.06 0 .13.06.2.18.08.12.12.21.12.27 0 .09-.07.17-.21.25-.14.08-.32.15-.55.2-.22.05-.45.08-.68.08-1.33 0-2-.71-2-2.12zm2.72-.36c0-.37-.07-.65-.21-.84-.14-.2-.35-.29-.64-.29-.6 0-.94.38-1.01 1.14h1.86zM174.64 194.54v-2.73c0-.35-.02-.61-.05-.77-.03-.16-.05-.25-.05-.27 0-.07.07-.13.2-.16s.26-.05.37-.05c.08 0 .14.04.17.11.04.07.06.15.08.24.02.08.03.14.04.18.27-.41.58-.61.91-.61.15 0 .27.04.35.1s.12.15.12.25-.02.2-.06.32c-.04.12-.08.18-.13.18a.45.45 0 01-.16-.04.71.71 0 00-.26-.04c-.17 0-.31.05-.44.16s-.22.21-.28.3v2.82c0 .13-.12.2-.36.2H175c-.25 0-.37-.07-.37-.2zM177.55 189.63v-.47c0-.15.14-.22.43-.22s.42.08.42.22v.47c0 .15-.14.22-.43.22s-.42-.07-.42-.22zm.02 4.91v-3.82c0-.13.12-.2.37-.2h.08c.25 0 .37.07.37.2v3.82c0 .13-.12.2-.37.2h-.08c-.25 0-.37-.07-.37-.2zM179.92 194.23c-.32-.37-.48-.89-.48-1.59s.16-1.23.49-1.6c.33-.37.79-.56 1.39-.56s1.06.19 1.38.56c.32.37.48.91.48 1.6s-.16 1.22-.47 1.59-.78.55-1.38.55-1.08-.18-1.4-.55zm2.16-.49c.17-.24.25-.61.25-1.1s-.08-.87-.25-1.11c-.17-.24-.43-.36-.78-.36s-.6.12-.77.36c-.17.24-.25.61-.25 1.11s.08.86.24 1.1c.16.24.42.36.77.36s.61-.12.78-.36zM184.51 194.71c-.2-.05-.36-.12-.48-.2s-.18-.16-.18-.24c0-.07.04-.16.12-.28.08-.12.15-.18.2-.18.01 0 .06.03.16.08s.21.11.33.15c.12.04.26.06.42.06.46 0 .7-.19.7-.56a.47.47 0 00-.18-.39c-.12-.09-.31-.18-.59-.28-.37-.11-.64-.26-.81-.44-.17-.18-.25-.44-.25-.76 0-.36.12-.65.38-.87.25-.22.58-.33.98-.33.28 0 .53.04.76.11.23.07.34.16.34.27 0 .08-.03.18-.1.3s-.13.18-.19.18c-.02 0-.09-.04-.22-.1-.12-.06-.29-.09-.5-.09-.19 0-.34.04-.46.12s-.18.19-.18.32c0 .17.06.3.17.4.11.1.29.19.53.28.28.1.5.19.66.3.16.1.27.23.34.38s.11.34.11.57c0 .25-.06.47-.19.66-.13.2-.3.35-.52.46-.22.11-.47.16-.75.16-.22 0-.43-.03-.63-.08zM187.02 195.64c-.06-.02-.09-.06-.09-.1 0-.04.02-.11.07-.22.08-.19.15-.38.2-.58.05-.2.07-.44.07-.71 0-.08.03-.15.09-.2.06-.05.15-.08.28-.08h.1c.12 0 .21.02.27.07.06.05.1.11.1.19 0 .29-.05.57-.16.82-.11.26-.23.46-.38.61-.14.15-.27.23-.37.23-.06 0-.13-.01-.18-.03zM192.62 194.87l-.55-.22c-.82-.33-1.24-1.05-1.25-2.17 0-.69.11-1.3.33-1.81.22-.51.54-.91.97-1.18.42-.28.93-.42 1.53-.42.73 0 1.28.2 1.66.59s.57.97.57 1.73c0 .86-.16 1.57-.48 2.12s-.77.92-1.33 1.1v.03l1.43.49s.07.04.08.06c.01.02.02.06.02.12 0 .27-.02.45-.05.54-.04.09-.08.13-.13.13-.06 0-.99-.37-2.79-1.11zm1.49-1.11c.28-.2.49-.49.65-.88.15-.39.23-.85.23-1.4s-.12-.96-.36-1.25c-.24-.29-.59-.43-1.04-.43-.37 0-.7.1-.98.3-.28.2-.5.49-.65.88-.15.39-.23.85-.23 1.4s.12.97.36 1.25c.24.29.59.43 1.05.43.37 0 .7-.1.98-.3zM199.98 196.31c-.43-.45-.77-1.02-1.02-1.7-.25-.68-.37-1.4-.37-2.18s.12-1.49.37-2.16.59-1.25 1.02-1.72c.06-.06.12-.1.18-.1s.13.03.2.08.1.11.1.17c0 .05-.02.11-.06.17-.35.48-.62 1.02-.81 1.63-.19.61-.28 1.25-.28 1.93s.09 1.33.28 1.94c.18.6.45 1.14.8 1.62.04.06.06.11.06.16s-.03.11-.1.17-.13.09-.2.09-.13-.04-.18-.1zM201.21 196.19v-4.38c0-.35-.02-.61-.05-.77-.03-.16-.05-.25-.05-.27 0-.07.07-.13.2-.16s.26-.05.37-.05c.08 0 .14.04.18.12s.07.16.08.24c.02.08.03.14.04.16.17-.19.35-.34.56-.44.21-.1.42-.16.65-.16.31 0 .59.09.82.27.23.18.41.43.53.76.12.33.18.7.18 1.13 0 .67-.15 1.2-.44 1.58s-.69.57-1.2.57c-.21 0-.4-.03-.57-.1a1.64 1.64 0 01-.48-.27v1.78c0 .13-.12.19-.37.19h-.09c-.25 0-.37-.06-.37-.19zm2.42-2.46c.16-.24.24-.59.24-1.05s-.07-.85-.22-1.11-.37-.39-.66-.39c-.17 0-.34.05-.5.14-.17.09-.32.22-.46.39v2.08c.25.2.53.3.86.3s.57-.12.73-.36zM206.04 194.23c-.32-.37-.48-.89-.48-1.59s.16-1.23.49-1.6c.33-.37.79-.56 1.39-.56s1.06.19 1.38.56c.32.37.48.91.48 1.6s-.16 1.22-.47 1.59-.78.55-1.38.55-1.08-.18-1.4-.55zm2.16-.49c.17-.24.25-.61.25-1.1s-.08-.87-.25-1.11c-.17-.24-.43-.36-.78-.36s-.6.12-.77.36c-.17.24-.25.61-.25 1.11s.08.86.24 1.1c.16.24.42.36.77.36s.61-.12.78-.36zM210.59 194.44c-.22-.23-.33-.54-.33-.96v-2.76c0-.13.12-.2.37-.2h.09c.25 0 .37.07.37.2v2.66c0 .22.06.39.18.51s.3.18.54.18c.17 0 .34-.05.5-.15.16-.1.29-.23.4-.38v-2.82c0-.13.12-.2.37-.2h.09c.25 0 .37.07.37.2v2.75c0 .36.02.62.05.78s.05.25.05.27c0 .08-.07.13-.2.16s-.26.05-.37.05a.17.17 0 01-.17-.12c-.03-.08-.06-.17-.08-.26s-.03-.15-.04-.18c-.16.19-.34.33-.56.44-.22.11-.44.16-.67.16-.41 0-.72-.11-.94-.34zM214.79 194.54v-2.73c0-.35-.02-.61-.05-.77s-.05-.25-.05-.27c0-.07.07-.13.2-.16s.26-.05.37-.05c.08 0 .14.04.17.11s.06.15.08.24c.02.08.03.14.04.18.16-.19.35-.33.57-.44s.44-.16.66-.16c.41 0 .72.11.94.34.22.23.33.55.33.96v2.76c0 .13-.12.2-.37.2h-.09c-.25 0-.37-.07-.37-.2v-2.66c0-.22-.06-.39-.18-.51s-.3-.18-.54-.18c-.17 0-.34.05-.5.15-.16.1-.29.22-.4.38v2.82c0 .13-.12.2-.37.2h-.09c-.25 0-.37-.07-.37-.2zM219.74 194.51c-.23-.18-.41-.43-.54-.76s-.19-.7-.19-1.12c0-.45.07-.83.2-1.16.14-.32.33-.57.57-.74.25-.17.53-.26.86-.26.21 0 .4.03.57.1.17.06.33.15.48.27v-1.95c0-.13.12-.2.36-.2h.09c.25 0 .37.07.37.2v4.58c0 .36.02.62.05.78s.05.25.05.27c0 .08-.07.13-.2.16s-.26.05-.37.05a.17.17 0 01-.17-.12c-.03-.08-.06-.16-.08-.25s-.03-.15-.04-.18c-.35.4-.76.6-1.22.6-.3 0-.57-.09-.8-.27zm1.5-.57c.17-.09.32-.22.46-.39v-2.08c-.26-.2-.54-.3-.86-.3s-.57.12-.74.36c-.17.24-.25.59-.25 1.05s.08.85.23 1.11c.15.26.37.39.66.39.17 0 .33-.05.5-.14zM224.06 194.71c-.2-.05-.36-.12-.48-.2s-.18-.16-.18-.24c0-.07.04-.16.12-.28.08-.12.15-.18.2-.18.01 0 .06.03.16.08s.21.11.33.15c.12.04.26.06.42.06.46 0 .7-.19.7-.56a.47.47 0 00-.18-.39c-.12-.09-.31-.18-.59-.28-.37-.11-.64-.26-.81-.44-.17-.18-.25-.44-.25-.76 0-.36.12-.65.38-.87.25-.22.58-.33.98-.33.28 0 .53.04.76.11.23.07.34.16.34.27 0 .08-.03.18-.1.3s-.13.18-.19.18c-.02 0-.09-.04-.22-.1-.12-.06-.29-.09-.5-.09-.19 0-.34.04-.46.12s-.18.19-.18.32c0 .17.06.3.17.4.11.1.29.19.53.28.28.1.5.19.66.3.16.1.27.23.34.38s.11.34.11.57c0 .25-.06.47-.19.66-.13.2-.3.35-.52.46-.22.11-.47.16-.75.16-.22 0-.43-.03-.63-.08zM226.62 196.32c-.07-.06-.11-.11-.11-.17 0-.03.02-.07.06-.13.36-.48.63-1.02.82-1.63s.28-1.26.28-1.95-.09-1.33-.28-1.94c-.18-.61-.45-1.15-.8-1.62a.29.29 0 01-.06-.16c0-.05.03-.11.1-.17.07-.06.13-.09.2-.09s.13.04.18.1c.43.45.77 1.02 1.02 1.7.25.68.37 1.41.37 2.18s-.12 1.49-.37 2.16-.59 1.24-1.02 1.71c-.05.06-.11.1-.18.1-.06 0-.13-.03-.2-.08zM10.16 131.33H5.01c-.09 0-.16-.02-.2-.06s-.06-.11-.06-.2v-1.64c0-.48.11-.9.34-1.27.23-.37.66-.55 1.28-.55.45 0 .8.11 1.04.32s.41.45.5.71c.08.26.13.5.13.72v1.13h2.12c.13 0 .2.12.2.36v.13c0 .25-.07.37-.2.37zm-2.86-1.95c0-.22-.07-.42-.21-.61-.14-.19-.38-.28-.73-.28s-.56.09-.69.28-.2.42-.2.68v1.02h1.82v-1.1zM10.16 126.75H7.43c-.35 0-.61.02-.77.05s-.25.05-.27.05c-.07 0-.13-.07-.16-.2s-.05-.26-.05-.37c0-.08.04-.14.11-.17s.15-.06.24-.08c.08-.02.14-.03.18-.04-.41-.27-.61-.58-.61-.91 0-.15.04-.27.1-.35.07-.08.15-.12.25-.12s.2.02.32.06c.12.04.18.08.18.13 0 .03-.01.09-.04.16a.71.71 0 00-.04.26c0 .17.05.31.16.44s.21.22.3.28h2.82c.13 0 .2.12.2.36v.09c0 .25-.07.37-.2.37zM5.25 123.84h-.47c-.15 0-.22-.14-.22-.43s.08-.42.22-.42h.47c.15 0 .22.14.22.43s-.07.42-.22.42zm4.91-.02H6.34c-.13 0-.2-.12-.2-.37v-.08c0-.25.07-.37.2-.37h3.82c.13 0 .2.12.2.37v.08c0 .25-.07.37-.2.37zM9.88 121.48c-.34.32-.89.49-1.64.49s-1.3-.18-1.64-.53c-.34-.35-.51-.82-.51-1.41 0-.31.04-.59.12-.85.08-.26.18-.39.3-.39.08 0 .17.04.3.11.12.07.19.14.19.2 0 0-.01.04-.04.1-.05.12-.1.25-.14.37s-.06.27-.06.44c0 .36.12.63.35.81.23.18.6.28 1.09.28.52 0 .9-.09 1.14-.26.24-.17.36-.46.36-.87 0-.19-.02-.35-.06-.48-.04-.14-.09-.27-.15-.39-.02-.06-.03-.1-.03-.1 0-.06.06-.12.18-.2.12-.08.21-.11.28-.11.12 0 .23.14.32.42.09.28.14.57.14.88 0 .67-.17 1.17-.52 1.5zM8.28 118.07c-.72 0-1.26-.16-1.63-.49-.37-.33-.55-.79-.55-1.4 0-.56.18-.98.54-1.26.36-.28.88-.42 1.54-.42.05 0 .13.04.22.12.1.08.14.14.14.19v2.39c.41-.03.7-.14.88-.33.18-.19.28-.46.28-.82 0-.2-.02-.38-.07-.53-.05-.15-.1-.28-.16-.39a.597.597 0 01-.08-.19c0-.06.06-.13.18-.2s.21-.12.27-.12c.09 0 .17.07.25.21.08.14.15.32.2.55.05.22.08.45.08.68 0 1.33-.71 2-2.12 2zm-.36-2.72c-.37 0-.65.07-.84.21-.2.14-.29.35-.29.64 0 .6.38.94 1.14 1.01v-1.86zM11.26 114.03c-.02.06-.06.09-.1.09a.63.63 0 01-.22-.07c-.19-.08-.38-.15-.58-.2-.2-.05-.44-.07-.71-.07-.08 0-.15-.03-.2-.09-.05-.06-.08-.15-.08-.28v-.1c0-.12.02-.21.07-.27.05-.06.11-.1.19-.1.29 0 .57.05.82.16.26.11.46.23.61.38.15.14.23.27.23.37 0 .06-.01.12-.03.18zM10.31 110.23c-.03.05-.08.08-.15.08l-5.15-.54c-.09 0-.16-.03-.2-.08a.328.328 0 01-.06-.21v-1.66c0-.44.1-.83.3-1.17s.56-.5 1.08-.5.92.12 1.2.36c.29.24.48.5.57.8.1.29.14.55.14.78v1.14l2.12.21c.13.02.2.15.2.39v.12c0 .13-.02.22-.05.27zm-3.01-2.18c0-.14-.03-.28-.09-.44-.06-.15-.17-.28-.33-.4s-.38-.17-.66-.17-.47.09-.58.26c-.11.17-.17.38-.17.63v1.02l1.82.19v-1.1zM11.93 102.36c-.45.43-1.02.77-1.7 1.02-.68.25-1.4.37-2.18.37s-1.49-.12-2.16-.37-1.25-.59-1.72-1.02c-.06-.06-.1-.12-.1-.18s.03-.13.08-.2.11-.1.17-.1c.05 0 .11.02.17.06.48.35 1.02.62 1.63.81.61.19 1.25.28 1.93.28s1.33-.09 1.94-.28c.6-.18 1.14-.45 1.62-.8a.29.29 0 01.16-.06c.05 0 .11.03.17.1s.09.13.09.2-.04.13-.1.18zM10.13 100.65c-.18.23-.43.41-.76.54s-.7.19-1.12.19c-.45 0-.83-.07-1.16-.21-.32-.13-.57-.33-.74-.57-.17-.25-.26-.53-.26-.86 0-.21.03-.4.1-.57.06-.17.15-.33.27-.48H4.51c-.13 0-.2-.12-.2-.36v-.09c0-.25.07-.37.2-.37h4.58c.36 0 .62-.02.78-.05.16-.03.25-.05.27-.05.08 0 .13.07.16.2s.05.26.05.37c0 .08-.04.14-.12.17s-.16.06-.25.08c-.09.02-.15.03-.18.04.4.35.6.76.6 1.21 0 .3-.09.57-.27.8zm-.57-1.5a1.52 1.52 0 00-.39-.46H7.09c-.2.26-.3.54-.3.86s.12.57.36.74c.24.16.59.25 1.05.25s.85-.08 1.11-.23.39-.37.39-.66c0-.17-.05-.33-.14-.5zM9.85 96.37c-.37.32-.89.48-1.59.48s-1.23-.16-1.6-.49c-.37-.33-.56-.79-.56-1.39s.19-1.06.56-1.38c.37-.32.91-.48 1.6-.48s1.22.16 1.59.47.55.78.55 1.38-.18 1.08-.55 1.4zm-.49-2.16c-.24-.17-.61-.25-1.1-.25s-.87.08-1.11.25c-.24.17-.36.43-.36.78s.12.6.36.77c.24.17.61.25 1.11.25s.86-.08 1.1-.24c.24-.16.36-.42.36-.77s-.12-.61-.36-.78zM10.13 91.78c-.18.21-.48.31-.89.31H4.52c-.13 0-.2-.12-.2-.36v-.09c0-.25.07-.37.2-.37H9.2c.19 0 .33-.03.4-.1.08-.07.12-.16.12-.29 0-.07 0-.14-.02-.19-.01-.05-.02-.09-.02-.12 0-.05.06-.1.17-.13.12-.04.2-.06.26-.06.19 0 .29.21.29.64 0 .29-.09.54-.27.75zM10.13 89.4c-.18.21-.48.31-.89.31H4.52c-.13 0-.2-.12-.2-.36v-.09c0-.25.07-.37.2-.37H9.2c.19 0 .33-.04.4-.1s.12-.17.12-.29c0-.07 0-.14-.02-.19-.01-.05-.02-.09-.02-.12 0-.05.06-.1.17-.14.12-.04.2-.06.26-.06.19 0 .29.21.29.64 0 .29-.09.54-.27.75zM10.09 87.23c-.21.23-.5.35-.88.35-.54 0-.92-.22-1.13-.67-.22-.45-.33-1.08-.33-1.88h-.34c-.19 0-.34.06-.45.19-.11.13-.17.33-.17.62 0 .22.03.41.08.57.05.16.1.3.16.42.06.11.08.18.08.2 0 .06-.06.13-.19.2-.13.08-.22.12-.28.12-.08 0-.15-.07-.24-.21-.08-.14-.15-.33-.21-.56-.06-.23-.08-.48-.08-.74 0-.53.11-.93.34-1.2.23-.27.54-.41.94-.41H9.1c.36 0 .62-.02.78-.05s.25-.05.27-.05c.08 0 .13.07.16.2s.05.25.05.36c0 .09-.04.15-.12.18-.08.03-.17.06-.26.08-.09.02-.15.03-.18.04.17.14.31.32.43.54.12.22.18.47.18.76 0 .41-.1.73-.31.96zm-.52-1.71c-.1-.18-.23-.34-.39-.49h-.8c0 .52.05.93.15 1.24.1.31.31.46.62.46.18 0 .32-.05.42-.16.1-.1.15-.25.15-.44 0-.23-.05-.44-.14-.62zM10.16 82.94H7.43c-.35 0-.61.02-.77.05-.16.03-.25.05-.27.05-.07 0-.13-.07-.16-.2s-.05-.26-.05-.37c0-.08.04-.14.11-.17.07-.04.15-.06.24-.08.08-.02.14-.03.18-.04-.41-.27-.61-.58-.61-.91 0-.15.04-.27.1-.35s.15-.12.25-.12.2.02.32.06c.12.04.18.08.18.13 0 .03-.01.09-.04.16a.71.71 0 00-.04.26c0 .17.05.31.16.44s.21.22.3.28h2.82c.13 0 .2.12.2.36v.09c0 .25-.07.37-.2.37zM10.33 79.74c-.05.2-.12.36-.2.48s-.16.18-.24.18c-.07 0-.16-.04-.28-.12-.12-.08-.18-.15-.18-.2 0-.01.03-.06.08-.16s.11-.21.15-.33c.04-.12.06-.26.06-.42 0-.46-.19-.7-.56-.7a.47.47 0 00-.39.18c-.09.12-.18.31-.28.59-.11.37-.26.64-.44.81-.18.17-.44.25-.76.25-.36 0-.65-.12-.87-.38-.22-.25-.33-.58-.33-.98 0-.28.04-.53.11-.76.07-.23.16-.34.27-.34.08 0 .18.03.3.1s.18.13.18.19c0 .02-.04.09-.1.22-.06.12-.09.29-.09.5 0 .19.04.34.12.46s.19.18.32.18c.17 0 .3-.06.4-.17.1-.11.19-.29.28-.53.1-.28.19-.5.3-.66.1-.16.23-.27.38-.34s.34-.11.57-.11c.25 0 .47.06.66.19.2.13.35.3.46.52.11.22.16.47.16.75 0 .22-.03.43-.08.63zM11.81 74.79H7.43c-.35 0-.61.02-.77.05-.16.03-.25.05-.27.05-.07 0-.13-.07-.16-.2s-.05-.26-.05-.37c0-.08.04-.14.12-.18s.16-.07.24-.08c.08-.02.14-.03.16-.04-.19-.17-.34-.35-.44-.56-.1-.21-.16-.42-.16-.65 0-.31.09-.59.27-.82.18-.23.43-.41.76-.53.33-.12.7-.18 1.13-.18.67 0 1.2.15 1.58.44s.57.69.57 1.2c0 .21-.03.4-.1.57-.06.17-.15.33-.27.48h1.78c.13 0 .19.12.19.37v.09c0 .25-.06.37-.19.37zm-2.46-2.42c-.24-.16-.59-.24-1.05-.24s-.85.07-1.11.22-.39.37-.39.66c0 .17.05.34.14.5.09.17.22.32.39.46h2.08c.2-.25.3-.53.3-.86s-.12-.57-.36-.73zM8.28 70.45c-.72 0-1.26-.16-1.63-.49-.37-.33-.55-.79-.55-1.4 0-.56.18-.98.54-1.26.36-.28.88-.42 1.54-.42.05 0 .13.04.22.12.1.08.14.14.14.19v2.39c.41-.03.7-.14.88-.33.18-.19.28-.46.28-.82 0-.2-.02-.38-.07-.53-.05-.15-.1-.28-.16-.39a.597.597 0 01-.08-.19c0-.06.06-.13.18-.2.12-.08.21-.12.27-.12.09 0 .17.07.25.21.08.14.15.32.2.55.05.22.08.45.08.68 0 1.33-.71 2-2.12 2zm-.36-2.72c-.37 0-.65.07-.84.21-.2.14-.29.35-.29.64 0 .6.38.94 1.14 1.01v-1.86zM10.16 65.89H7.43c-.35 0-.61.02-.77.05-.16.03-.25.05-.27.05-.07 0-.13-.07-.16-.2s-.05-.26-.05-.37c0-.08.04-.14.11-.17.07-.04.15-.06.24-.08.08-.02.14-.03.18-.04-.41-.27-.61-.58-.61-.91 0-.15.04-.27.1-.35s.15-.12.25-.12.2.02.32.06c.12.04.18.08.18.13 0 .03-.01.09-.04.16a.71.71 0 00-.04.26c0 .17.05.31.16.44s.21.22.3.28h2.82c.13 0 .2.12.2.36v.09c0 .25-.07.37-.2.37zM11.81 61.05H7.43c-.35 0-.61.02-.77.05-.16.03-.25.05-.27.05-.07 0-.13-.07-.16-.2s-.05-.26-.05-.37c0-.08.04-.14.12-.18s.16-.07.24-.08c.08-.02.14-.03.16-.04-.19-.17-.34-.35-.44-.56-.1-.21-.16-.42-.16-.65 0-.31.09-.59.27-.82.18-.23.43-.41.76-.53.33-.12.7-.18 1.13-.18.67 0 1.2.15 1.58.44s.57.69.57 1.2c0 .21-.03.4-.1.57-.06.17-.15.33-.27.48h1.78c.13 0 .19.12.19.37v.09c0 .25-.06.37-.19.37zm-2.46-2.42c-.24-.16-.59-.24-1.05-.24s-.85.07-1.11.22-.39.37-.39.66c0 .17.05.34.14.5.09.17.22.32.39.46h2.08c.2-.25.3-.53.3-.86s-.12-.57-.36-.73zM9.85 56.23c-.37.32-.89.48-1.59.48s-1.23-.16-1.6-.49c-.37-.33-.56-.79-.56-1.39s.19-1.06.56-1.38c.37-.32.91-.48 1.6-.48s1.22.16 1.59.47.55.78.55 1.38-.18 1.08-.55 1.4zm-.49-2.16c-.24-.17-.61-.25-1.1-.25s-.87.08-1.11.25c-.24.17-.36.43-.36.78s.12.6.36.77c.24.17.61.25 1.11.25s.86-.08 1.1-.24c.24-.16.36-.42.36-.77s-.12-.61-.36-.78zM10.06 51.67c-.23.22-.54.33-.96.33H6.34c-.13 0-.2-.12-.2-.37v-.09c0-.25.07-.37.2-.37H9c.22 0 .39-.06.51-.18s.18-.3.18-.54c0-.17-.05-.34-.15-.5-.1-.16-.23-.29-.38-.4H6.34c-.13 0-.2-.12-.2-.37v-.09c0-.25.07-.37.2-.37h2.75c.36 0 .62-.02.78-.05s.25-.05.27-.05c.08 0 .13.07.16.2s.05.26.05.37c0 .08-.04.14-.12.17-.08.03-.17.06-.26.08s-.15.03-.18.04c.19.16.33.34.44.56.11.22.16.44.16.67 0 .41-.11.72-.34.94zM10.16 47.47H7.43c-.35 0-.61.02-.77.05s-.25.05-.27.05c-.07 0-.13-.07-.16-.2s-.05-.26-.05-.37c0-.08.04-.14.11-.17s.15-.06.24-.08c.08-.02.14-.03.18-.04-.19-.16-.33-.35-.44-.57s-.16-.44-.16-.66c0-.41.11-.72.34-.94.23-.22.55-.33.96-.33h2.76c.13 0 .2.12.2.37v.09c0 .25-.07.37-.2.37H7.51c-.22 0-.39.06-.51.18s-.18.3-.18.54c0 .17.05.34.15.5.1.16.22.29.38.4h2.82c.13 0 .2.12.2.37v.09c0 .25-.07.37-.2.37zM10.13 42.53c-.18.23-.43.41-.76.54s-.7.19-1.12.19c-.45 0-.83-.07-1.16-.2-.32-.14-.57-.33-.74-.57-.17-.25-.26-.53-.26-.86 0-.21.03-.4.1-.57.06-.17.15-.33.27-.48H4.51c-.13 0-.2-.12-.2-.36v-.09c0-.25.07-.37.2-.37h4.58c.36 0 .62-.02.78-.05s.25-.05.27-.05c.08 0 .13.07.16.2s.05.26.05.37c0 .08-.04.14-.12.17-.08.03-.16.06-.25.08s-.15.03-.18.04c.4.35.6.76.6 1.22 0 .3-.09.57-.27.8zm-.57-1.5a1.52 1.52 0 00-.39-.46H7.09c-.2.26-.3.54-.3.86s.12.57.36.74c.24.17.59.25 1.05.25s.85-.08 1.11-.23a.72.72 0 00.39-.66c0-.17-.05-.33-.14-.5zM11.94 38.94c-.06.07-.11.11-.17.11-.03 0-.07-.02-.13-.06-.48-.36-1.02-.63-1.63-.82s-1.26-.28-1.95-.28-1.33.09-1.94.28c-.61.18-1.15.45-1.62.8a.29.29 0 01-.16.06c-.05 0-.11-.03-.17-.1-.06-.07-.09-.13-.09-.2s.04-.13.1-.18c.45-.43 1.02-.77 1.7-1.02.68-.25 1.41-.37 2.18-.37s1.49.12 2.16.37 1.24.59 1.71 1.02c.06.05.1.11.1.18 0 .06-.03.13-.08.2zM26.38 169.85c-.24-.18-.43-.46-.57-.83-.15-.37-.22-.84-.22-1.39s.07-1.02.22-1.39c.14-.37.34-.65.57-.83s.5-.27.8-.27.56.09.81.27.44.46.58.83.22.84.22 1.39-.07 1.02-.22 1.39c-.14.37-.34.65-.58.83s-.51.27-.81.27-.56-.09-.8-.27zm1.3-.44c.15-.14.27-.35.37-.65.09-.3.14-.68.14-1.14s-.05-.84-.14-1.14c-.09-.3-.22-.51-.37-.65-.15-.13-.32-.2-.5-.2s-.34.07-.49.2c-.15.13-.27.35-.36.65-.09.3-.14.68-.14 1.14s.05.84.14 1.14c.09.3.21.51.36.65.15.13.32.2.49.2s.35-.07.5-.2zM34.67 179.52c-.24-.18-.43-.46-.57-.83-.15-.37-.22-.84-.22-1.39s.07-1.02.22-1.39c.14-.37.34-.65.57-.83s.5-.27.8-.27.56.09.81.27.44.46.58.83.22.84.22 1.39-.07 1.02-.22 1.39c-.14.37-.34.65-.58.83s-.51.27-.81.27-.56-.09-.8-.27zm1.3-.44c.15-.14.27-.35.37-.65.09-.3.14-.68.14-1.14s-.05-.84-.14-1.14c-.09-.3-.22-.51-.37-.65-.15-.13-.32-.2-.5-.2s-.34.07-.49.2c-.15.13-.27.35-.36.65-.09.3-.14.68-.14 1.14s.05.84.14 1.14c.09.3.21.51.36.65.15.13.32.2.49.2s.35-.07.5-.2z"/><g><path d="M21.91 7.92s-.04-.09-.04-.16v-.08c0-.07.01-.13.04-.16.02-.03.06-.05.1-.05h1.22V3.7l-1.24.21s-.08-.04-.1-.12a.672.672 0 01-.04-.24c0-.07.04-.11.13-.13l1.62-.36c.06 0 .11.01.15.04.04.03.07.06.07.11v4.26h1.04c.05 0 .09.02.11.05.02.03.03.09.03.16v.08c0 .08-.01.13-.03.16-.02.03-.06.05-.11.05h-2.84s-.08-.02-.1-.05zM26.38 7.74c-.24-.18-.43-.46-.57-.83-.15-.37-.22-.84-.22-1.39s.07-1.02.22-1.39c.14-.37.34-.65.57-.83s.5-.27.8-.27.56.09.81.27.44.46.58.83.22.84.22 1.39-.07 1.02-.22 1.39-.34.65-.58.83-.51.27-.81.27-.56-.09-.8-.27zm1.3-.44c.15-.13.27-.35.37-.65.09-.3.14-.67.14-1.14s-.05-.84-.14-1.14c-.09-.3-.22-.51-.37-.65s-.32-.2-.5-.2-.34.07-.49.2c-.15.13-.27.35-.36.65-.09.3-.14.68-.14 1.14s.05.84.14 1.14c.09.3.21.51.36.65.15.13.32.2.49.2s.35-.07.5-.2z"/></g><g><path d="M289.7 179.41c-.28-.25-.42-.61-.42-1.08 0-.34.07-.6.2-.79.14-.19.33-.34.57-.46-.18-.11-.32-.25-.42-.43-.11-.18-.16-.39-.16-.64 0-.38.12-.68.38-.89.25-.21.57-.32.96-.32s.71.11.96.32c.25.21.38.51.38.89 0 .5-.23.85-.68 1.06.27.12.47.27.62.46.15.18.22.45.22.8 0 .48-.14.84-.42 1.08-.28.25-.65.37-1.1.37s-.81-.12-1.09-.37zm1.74-.38c.17-.17.26-.4.26-.7a.763.763 0 00-.45-.74c-.13-.06-.3-.13-.52-.21l-.22-.08c-.2.12-.36.26-.47.42-.12.16-.17.37-.17.61 0 .3.09.54.26.7.17.17.39.25.65.25s.48-.08.65-.25zm.12-3.02c0-.24-.07-.42-.21-.53-.14-.12-.32-.18-.55-.18s-.4.06-.54.18-.21.29-.21.53c0 .18.04.32.12.43s.18.19.3.25.28.13.48.2c.4-.23.6-.52.6-.88zM293.73 179.52c-.24-.18-.43-.46-.57-.83-.14-.37-.22-.84-.22-1.39s.07-1.02.22-1.39.34-.65.57-.83c.24-.18.5-.27.8-.27s.56.09.8.27c.24.18.44.46.58.83s.22.84.22 1.39-.07 1.02-.22 1.39c-.14.37-.34.65-.58.83-.24.18-.51.27-.8.27s-.56-.09-.8-.27zm1.3-.44c.15-.14.27-.35.37-.65.09-.3.14-.68.14-1.14s-.05-.84-.14-1.14c-.09-.3-.22-.51-.37-.65-.15-.13-.32-.2-.5-.2s-.34.07-.49.2c-.15.13-.27.35-.36.65-.09.3-.14.68-.14 1.14s.04.84.14 1.14c.09.3.21.51.36.65.15.13.32.2.49.2s.35-.07.5-.2zM296.56 180.53s-.06-.04-.06-.08c0-.03.02-.08.06-.17.16-.32.24-.67.24-1.07 0-.07.02-.12.07-.16.05-.04.12-.06.21-.06h.06c.09 0 .16.02.21.05.05.03.07.08.07.14 0 .26-.04.5-.13.7s-.18.37-.3.49-.21.18-.3.18c-.05 0-.1 0-.14-.02zM298.86 179.52c-.24-.18-.43-.46-.57-.83-.14-.37-.22-.84-.22-1.39s.07-1.02.22-1.39.34-.65.57-.83c.24-.18.5-.27.8-.27s.56.09.8.27c.24.18.44.46.58.83s.22.84.22 1.39-.07 1.02-.22 1.39c-.14.37-.34.65-.58.83-.24.18-.51.27-.8.27s-.56-.09-.8-.27zm1.3-.44c.15-.14.27-.35.37-.65.09-.3.14-.68.14-1.14s-.05-.84-.14-1.14c-.09-.3-.22-.51-.37-.65-.15-.13-.32-.2-.5-.2s-.34.07-.49.2c-.15.13-.27.35-.36.65-.09.3-.14.68-.14 1.14s.04.84.14 1.14c.09.3.21.51.36.65.15.13.32.2.49.2s.35-.07.5-.2zM302.61 179.52c-.24-.18-.43-.46-.57-.83-.14-.37-.22-.84-.22-1.39s.07-1.02.22-1.39.34-.65.57-.83c.24-.18.5-.27.8-.27s.56.09.8.27c.24.18.44.46.58.83s.22.84.22 1.39-.07 1.02-.22 1.39c-.14.37-.34.65-.58.83-.24.18-.51.27-.8.27s-.56-.09-.8-.27zm1.3-.44c.15-.14.27-.35.37-.65.09-.3.14-.68.14-1.14s-.05-.84-.14-1.14c-.09-.3-.22-.51-.37-.65-.15-.13-.32-.2-.5-.2s-.34.07-.49.2c-.15.13-.27.35-.36.65-.09.3-.14.68-.14 1.14s.04.84.14 1.14c.09.3.21.51.36.65.15.13.32.2.49.2s.35-.07.5-.2zM306.35 179.52c-.24-.18-.43-.46-.57-.83-.14-.37-.22-.84-.22-1.39s.07-1.02.22-1.39.34-.65.57-.83c.24-.18.5-.27.8-.27s.56.09.8.27c.24.18.44.46.58.83s.22.84.22 1.39-.07 1.02-.22 1.39c-.14.37-.34.65-.58.83-.24.18-.51.27-.8.27s-.56-.09-.8-.27zm1.3-.44c.15-.14.27-.35.37-.65.09-.3.14-.68.14-1.14s-.05-.84-.14-1.14c-.09-.3-.22-.51-.37-.65-.15-.13-.32-.2-.5-.2s-.34.07-.49.2c-.15.13-.27.35-.36.65-.09.3-.14.68-.14 1.14s.04.84.14 1.14c.09.3.21.51.36.65.15.13.32.2.49.2s.35-.07.5-.2z"/></g><g><path d="M255.71 179.73s-.07-.05-.07-.1c0 0 0-.04.03-.08l2.02-4.2h-2.21s-.08-.02-.11-.05a.31.31 0 01-.04-.16v-.08c0-.07.01-.13.04-.16.02-.03.06-.05.11-.05h2.76s.06.04.09.13c.03.08.05.16.05.23 0 .02 0 .05-.01.08l-2.07 4.37s-.05.06-.1.08c-.05.02-.11.03-.18.03h-.08c-.11 0-.18 0-.23-.03zM259.77 179.52c-.24-.18-.43-.46-.57-.83-.14-.37-.22-.84-.22-1.39s.07-1.02.22-1.39.34-.65.57-.83c.24-.18.5-.27.8-.27s.56.09.8.27c.24.18.44.46.58.83s.22.84.22 1.39-.07 1.02-.22 1.39c-.14.37-.34.65-.58.83-.24.18-.51.27-.8.27s-.56-.09-.8-.27zm1.3-.44c.15-.14.27-.35.37-.65.09-.3.14-.68.14-1.14s-.05-.84-.14-1.14c-.09-.3-.22-.51-.37-.65-.15-.13-.32-.2-.5-.2s-.34.07-.49.2c-.15.13-.27.35-.36.65-.09.3-.14.68-.14 1.14s.04.84.14 1.14c.09.3.21.51.36.65.15.13.32.2.49.2s.35-.07.5-.2zM262.6 180.53s-.06-.04-.06-.08c0-.03.02-.08.06-.17.16-.32.24-.67.24-1.07 0-.07.02-.12.07-.16.05-.04.12-.06.21-.06h.06c.09 0 .16.02.21.05.05.03.07.08.07.14 0 .26-.04.5-.13.7s-.18.37-.3.49-.21.18-.3.18c-.05 0-.1 0-.14-.02zM264.9 179.52c-.24-.18-.43-.46-.57-.83-.14-.37-.22-.84-.22-1.39s.07-1.02.22-1.39.34-.65.57-.83c.24-.18.5-.27.8-.27s.56.09.8.27c.24.18.44.46.58.83s.22.84.22 1.39-.07 1.02-.22 1.39c-.14.37-.34.65-.58.83-.24.18-.51.27-.8.27s-.56-.09-.8-.27zm1.3-.44c.15-.14.27-.35.37-.65.09-.3.14-.68.14-1.14s-.05-.84-.14-1.14c-.09-.3-.22-.51-.37-.65-.15-.13-.32-.2-.5-.2s-.34.07-.49.2c-.15.13-.27.35-.36.65-.09.3-.14.68-.14 1.14s.04.84.14 1.14c.09.3.21.51.36.65.15.13.32.2.49.2s.35-.07.5-.2zM268.65 179.52c-.24-.18-.43-.46-.57-.83-.14-.37-.22-.84-.22-1.39s.07-1.02.22-1.39.34-.65.57-.83c.24-.18.5-.27.8-.27s.56.09.8.27c.24.18.44.46.58.83s.22.84.22 1.39-.07 1.02-.22 1.39c-.14.37-.34.65-.58.83-.24.18-.51.27-.8.27s-.56-.09-.8-.27zm1.3-.44c.15-.14.27-.35.37-.65.09-.3.14-.68.14-1.14s-.05-.84-.14-1.14c-.09-.3-.22-.51-.37-.65-.15-.13-.32-.2-.5-.2s-.34.07-.49.2c-.15.13-.27.35-.36.65-.09.3-.14.68-.14 1.14s.04.84.14 1.14c.09.3.21.51.36.65.15.13.32.2.49.2s.35-.07.5-.2zM272.39 179.52c-.24-.18-.43-.46-.57-.83-.14-.37-.22-.84-.22-1.39s.07-1.02.22-1.39.34-.65.57-.83c.24-.18.5-.27.8-.27s.56.09.8.27c.24.18.44.46.58.83s.22.84.22 1.39-.07 1.02-.22 1.39c-.14.37-.34.65-.58.83-.24.18-.51.27-.8.27s-.56-.09-.8-.27zm1.3-.44c.15-.14.27-.35.37-.65.09-.3.14-.68.14-1.14s-.05-.84-.14-1.14c-.09-.3-.22-.51-.37-.65-.15-.13-.32-.2-.5-.2s-.34.07-.49.2c-.15.13-.27.35-.36.65-.09.3-.14.68-.14 1.14s.04.84.14 1.14c.09.3.21.51.36.65.15.13.32.2.49.2s.35-.07.5-.2z"/></g><g><path d="M221.74 179.32c-.25-.31-.38-.74-.38-1.3 0-.62.15-1.17.44-1.65.29-.48.62-.86.99-1.13.37-.27.65-.41.84-.41.07 0 .12.05.17.14.04.09.07.17.07.23 0 .04-.02.06-.06.08-.46.19-.84.45-1.12.77-.29.32-.49.68-.61 1.1.27-.15.58-.23.95-.23.25 0 .47.06.67.17.2.12.36.28.48.5s.18.46.18.74-.07.54-.2.77c-.13.22-.31.39-.54.51s-.49.18-.77.18c-.49 0-.86-.15-1.11-.46zm1.55-.15c.13-.07.25-.17.34-.31.09-.14.14-.31.14-.51 0-.32-.09-.55-.27-.71a.974.974 0 00-.65-.23c-.3 0-.59.08-.88.24-.02.19-.03.33-.03.42 0 .44.09.75.27.93s.4.27.67.27c.14 0 .27-.03.41-.1zM225.81 179.52c-.24-.18-.43-.46-.57-.83-.14-.37-.22-.84-.22-1.39s.07-1.02.22-1.39.34-.65.57-.83c.24-.18.5-.27.8-.27s.56.09.8.27c.24.18.44.46.58.83s.22.84.22 1.39-.07 1.02-.22 1.39c-.14.37-.34.65-.58.83-.24.18-.51.27-.8.27s-.56-.09-.8-.27zm1.3-.44c.15-.14.27-.35.37-.65.09-.3.14-.68.14-1.14s-.05-.84-.14-1.14c-.09-.3-.22-.51-.37-.65-.15-.13-.32-.2-.5-.2s-.34.07-.49.2c-.15.13-.27.35-.36.65-.09.3-.14.68-.14 1.14s.04.84.14 1.14c.09.3.21.51.36.65.15.13.32.2.49.2s.35-.07.5-.2zM228.64 180.53s-.06-.04-.06-.08c0-.03.02-.08.06-.17.16-.32.24-.67.24-1.07 0-.07.02-.12.07-.16.05-.04.12-.06.21-.06h.06c.09 0 .16.02.21.05.05.03.07.08.07.14 0 .26-.04.5-.13.7s-.18.37-.3.49-.21.18-.3.18c-.05 0-.1 0-.14-.02zM230.94 179.52c-.24-.18-.43-.46-.57-.83-.14-.37-.22-.84-.22-1.39s.07-1.02.22-1.39.34-.65.57-.83c.24-.18.5-.27.8-.27s.56.09.8.27c.24.18.44.46.58.83s.22.84.22 1.39-.07 1.02-.22 1.39c-.14.37-.34.65-.58.83-.24.18-.51.27-.8.27s-.56-.09-.8-.27zm1.3-.44c.15-.14.27-.35.37-.65.09-.3.14-.68.14-1.14s-.05-.84-.14-1.14c-.09-.3-.22-.51-.37-.65-.15-.13-.32-.2-.5-.2s-.34.07-.49.2c-.15.13-.27.35-.36.65-.09.3-.14.68-.14 1.14s.04.84.14 1.14c.09.3.21.51.36.65.15.13.32.2.49.2s.35-.07.5-.2zM234.69 179.52c-.24-.18-.43-.46-.57-.83-.14-.37-.22-.84-.22-1.39s.07-1.02.22-1.39.34-.65.57-.83c.24-.18.5-.27.8-.27s.56.09.8.27c.24.18.44.46.58.83s.22.84.22 1.39-.07 1.02-.22 1.39c-.14.37-.34.65-.58.83-.24.18-.51.27-.8.27s-.56-.09-.8-.27zm1.3-.44c.15-.14.27-.35.37-.65.09-.3.14-.68.14-1.14s-.05-.84-.14-1.14c-.09-.3-.22-.51-.37-.65-.15-.13-.32-.2-.5-.2s-.34.07-.49.2c-.15.13-.27.35-.36.65-.09.3-.14.68-.14 1.14s.04.84.14 1.14c.09.3.21.51.36.65.15.13.32.2.49.2s.35-.07.5-.2zM238.43 179.52c-.24-.18-.43-.46-.57-.83-.14-.37-.22-.84-.22-1.39s.07-1.02.22-1.39.34-.65.57-.83c.24-.18.5-.27.8-.27s.56.09.8.27c.24.18.44.46.58.83s.22.84.22 1.39-.07 1.02-.22 1.39c-.14.37-.34.65-.58.83-.24.18-.51.27-.8.27s-.56-.09-.8-.27zm1.3-.44c.15-.14.27-.35.37-.65.09-.3.14-.68.14-1.14s-.05-.84-.14-1.14c-.09-.3-.22-.51-.37-.65-.15-.13-.32-.2-.5-.2s-.34.07-.49.2c-.15.13-.27.35-.36.65-.09.3-.14.68-.14 1.14s.04.84.14 1.14c.09.3.21.51.36.65.15.13.32.2.49.2s.35-.07.5-.2z"/></g><g><path d="M188.01 179.72c-.2-.04-.36-.1-.47-.17-.12-.06-.17-.13-.17-.19 0-.07.03-.14.09-.22s.11-.13.15-.13c.02 0 .09.02.19.06.14.06.27.11.4.15.13.04.29.06.47.06.3 0 .56-.09.77-.27s.31-.43.31-.76-.11-.55-.32-.71c-.21-.16-.53-.25-.94-.25h-.59c-.08 0-.13-.02-.15-.05-.03-.03-.04-.09-.04-.16l.12-2.03c0-.07.02-.13.06-.16.04-.03.09-.05.16-.05h1.86c.05 0 .09.02.11.05.02.03.03.09.03.16v.08c0 .08-.01.13-.03.16-.02.03-.06.05-.11.05h-1.52l-.09 1.44h.36c.28 0 .55.05.8.14.26.09.47.25.64.47s.25.5.25.86c0 .56-.16.95-.49 1.18-.32.23-.72.35-1.19.35-.24 0-.46-.02-.67-.07zM191.85 179.52c-.24-.18-.43-.46-.57-.83-.14-.37-.22-.84-.22-1.39s.07-1.02.22-1.39.34-.65.57-.83c.24-.18.5-.27.8-.27s.56.09.8.27c.24.18.44.46.58.83s.22.84.22 1.39-.07 1.02-.22 1.39c-.14.37-.34.65-.58.83-.24.18-.51.27-.8.27s-.56-.09-.8-.27zm1.3-.44c.15-.14.27-.35.37-.65.09-.3.14-.68.14-1.14s-.05-.84-.14-1.14c-.09-.3-.22-.51-.37-.65-.15-.13-.32-.2-.5-.2s-.34.07-.49.2c-.15.13-.27.35-.36.65-.09.3-.14.68-.14 1.14s.04.84.14 1.14c.09.3.21.51.36.65.15.13.32.2.49.2s.35-.07.5-.2zM194.68 180.53s-.06-.04-.06-.08c0-.03.02-.08.06-.17.16-.32.24-.67.24-1.07 0-.07.02-.12.07-.16.05-.04.12-.06.21-.06h.06c.09 0 .16.02.21.05.05.03.07.08.07.14 0 .26-.04.5-.13.7s-.18.37-.3.49-.21.18-.3.18c-.05 0-.1 0-.14-.02zM196.98 179.52c-.24-.18-.43-.46-.57-.83-.14-.37-.22-.84-.22-1.39s.07-1.02.22-1.39.34-.65.57-.83c.24-.18.5-.27.8-.27s.56.09.8.27c.24.18.44.46.58.83s.22.84.22 1.39-.07 1.02-.22 1.39c-.14.37-.34.65-.58.83-.24.18-.51.27-.8.27s-.56-.09-.8-.27zm1.3-.44c.15-.14.27-.35.37-.65.09-.3.14-.68.14-1.14s-.05-.84-.14-1.14c-.09-.3-.22-.51-.37-.65-.15-.13-.32-.2-.5-.2s-.34.07-.49.2c-.15.13-.27.35-.36.65-.09.3-.14.68-.14 1.14s.04.84.14 1.14c.09.3.21.51.36.65.15.13.32.2.49.2s.35-.07.5-.2zM200.73 179.52c-.24-.18-.43-.46-.57-.83-.14-.37-.22-.84-.22-1.39s.07-1.02.22-1.39.34-.65.57-.83c.24-.18.5-.27.8-.27s.56.09.8.27c.24.18.44.46.58.83s.22.84.22 1.39-.07 1.02-.22 1.39c-.14.37-.34.65-.58.83-.24.18-.51.27-.8.27s-.56-.09-.8-.27zm1.3-.44c.15-.14.27-.35.37-.65.09-.3.14-.68.14-1.14s-.05-.84-.14-1.14c-.09-.3-.22-.51-.37-.65-.15-.13-.32-.2-.5-.2s-.34.07-.49.2c-.15.13-.27.35-.36.65-.09.3-.14.68-.14 1.14s.04.84.14 1.14c.09.3.21.51.36.65.15.13.32.2.49.2s.35-.07.5-.2zM204.47 179.52c-.24-.18-.43-.46-.57-.83-.14-.37-.22-.84-.22-1.39s.07-1.02.22-1.39.34-.65.57-.83c.24-.18.5-.27.8-.27s.56.09.8.27c.24.18.44.46.58.83s.22.84.22 1.39-.07 1.02-.22 1.39c-.14.37-.34.65-.58.83-.24.18-.51.27-.8.27s-.56-.09-.8-.27zm1.3-.44c.15-.14.27-.35.37-.65.09-.3.14-.68.14-1.14s-.05-.84-.14-1.14c-.09-.3-.22-.51-.37-.65-.15-.13-.32-.2-.5-.2s-.34.07-.49.2c-.15.13-.27.35-.36.65-.09.3-.14.68-.14 1.14s.04.84.14 1.14c.09.3.21.51.36.65.15.13.32.2.49.2s.35-.07.5-.2z"/></g><g><path d="M155.5 179.6v-1.03h-2.13s-.07-.04-.11-.13a.525.525 0 01-.06-.23c0-.04 0-.07.01-.08l2.3-3.21a.3.3 0 01.24-.1h.11c.14 0 .21.05.21.15v3.09h.47c.05 0 .09.02.11.05.02.03.03.09.03.16v.08c0 .07-.01.13-.03.16-.02.03-.06.05-.11.05h-.47v1.03c0 .1-.07.15-.21.15h-.16c-.14 0-.21-.05-.21-.15zm0-1.53v-2.06c0-.05.01-.12.04-.22h-.03l-1.61 2.28h1.6zM157.89 179.52c-.24-.18-.43-.46-.57-.83-.15-.37-.22-.84-.22-1.39s.07-1.02.22-1.39c.14-.37.34-.65.57-.83a1.337 1.337 0 011.61 0c.24.18.44.46.58.83s.22.84.22 1.39-.07 1.02-.22 1.39c-.14.37-.34.65-.58.83-.24.18-.51.27-.81.27s-.56-.09-.8-.27zm1.3-.44c.15-.14.27-.35.37-.65.09-.3.14-.68.14-1.14s-.05-.84-.14-1.14c-.09-.3-.22-.51-.37-.65-.15-.13-.32-.2-.5-.2s-.34.07-.49.2-.27.35-.36.65c-.09.3-.14.68-.14 1.14s.04.84.14 1.14c.09.3.21.51.36.65.15.13.32.2.49.2s.35-.07.5-.2zM160.72 180.53s-.06-.04-.06-.08c0-.03.02-.08.06-.17.16-.32.24-.67.24-1.07 0-.07.02-.12.07-.16.05-.04.12-.06.21-.06h.06c.09 0 .16.02.21.05.05.03.07.08.07.14 0 .26-.04.5-.13.7s-.18.37-.3.49-.21.18-.3.18c-.05 0-.1 0-.14-.02zM163.02 179.52c-.24-.18-.43-.46-.57-.83-.14-.37-.22-.84-.22-1.39s.07-1.02.22-1.39.34-.65.57-.83c.24-.18.5-.27.8-.27s.56.09.8.27c.24.18.44.46.58.83s.22.84.22 1.39-.07 1.02-.22 1.39c-.14.37-.34.65-.58.83-.24.18-.51.27-.8.27s-.56-.09-.8-.27zm1.3-.44c.15-.14.27-.35.37-.65.09-.3.14-.68.14-1.14s-.05-.84-.14-1.14c-.09-.3-.22-.51-.37-.65-.15-.13-.32-.2-.5-.2s-.34.07-.49.2c-.15.13-.27.35-.36.65-.09.3-.14.68-.14 1.14s.04.84.14 1.14c.09.3.21.51.36.65.15.13.32.2.49.2s.35-.07.5-.2zM166.76 179.52c-.24-.18-.43-.46-.57-.83-.14-.37-.22-.84-.22-1.39s.07-1.02.22-1.39.34-.65.57-.83c.24-.18.5-.27.8-.27s.56.09.8.27c.24.18.44.46.58.83s.22.84.22 1.39-.07 1.02-.22 1.39c-.14.37-.34.65-.58.83-.24.18-.51.27-.8.27s-.56-.09-.8-.27zm1.3-.44c.15-.14.27-.35.37-.65.09-.3.14-.68.14-1.14s-.05-.84-.14-1.14c-.09-.3-.22-.51-.37-.65-.15-.13-.32-.2-.5-.2s-.34.07-.49.2c-.15.13-.27.35-.36.65-.09.3-.14.68-.14 1.14s.04.84.14 1.14c.09.3.21.51.36.65.15.13.32.2.49.2s.35-.07.5-.2zM170.51 179.52c-.24-.18-.43-.46-.57-.83-.14-.37-.22-.84-.22-1.39s.07-1.02.22-1.39.34-.65.57-.83c.24-.18.5-.27.8-.27s.56.09.8.27c.24.18.44.46.58.83s.22.84.22 1.39-.07 1.02-.22 1.39c-.14.37-.34.65-.58.83-.24.18-.51.27-.8.27s-.56-.09-.8-.27zm1.3-.44c.15-.14.27-.35.37-.65.09-.3.14-.68.14-1.14s-.05-.84-.14-1.14c-.09-.3-.22-.51-.37-.65-.15-.13-.32-.2-.5-.2s-.34.07-.49.2c-.15.13-.27.35-.36.65-.09.3-.14.68-.14 1.14s.04.84.14 1.14c.09.3.21.51.36.65.15.13.32.2.49.2s.35-.07.5-.2z"/></g><g><path d="M120.13 179.72c-.21-.04-.38-.09-.51-.15s-.19-.12-.19-.18.03-.14.09-.22c.06-.08.11-.13.15-.13.03 0 .1.02.2.06.3.13.6.19.91.19.26 0 .49-.07.7-.22.21-.15.31-.4.31-.74s-.09-.57-.27-.71c-.18-.14-.44-.21-.78-.21h-.23s-.08-.02-.1-.05a.31.31 0 01-.04-.16v-.08c0-.08.01-.13.04-.16.02-.03.06-.05.1-.05h.2c.22 0 .4-.05.54-.15.14-.1.24-.22.3-.36.06-.14.09-.28.09-.41 0-.17-.06-.33-.19-.47s-.34-.21-.64-.21c-.2 0-.36.02-.49.05s-.25.08-.37.13c-.08.03-.13.05-.15.05-.04 0-.09-.05-.14-.14a.458.458 0 01-.09-.22c0-.1.15-.18.44-.26.29-.07.56-.11.81-.11.43 0 .77.11 1.03.32.26.21.39.52.39.92 0 .23-.07.43-.21.59s-.31.29-.51.37v.03c.23.06.44.21.62.43.18.23.27.51.27.85s-.08.61-.23.83-.35.38-.59.48-.48.15-.73.15-.5-.02-.71-.06zM123.93 179.52c-.24-.18-.43-.46-.57-.83-.15-.37-.22-.84-.22-1.39s.07-1.02.22-1.39c.14-.37.34-.65.57-.83s.5-.27.8-.27.56.09.81.27.44.46.58.83.22.84.22 1.39-.07 1.02-.22 1.39c-.14.37-.34.65-.58.83s-.51.27-.81.27-.56-.09-.8-.27zm1.3-.44c.15-.14.27-.35.37-.65.09-.3.14-.68.14-1.14s-.05-.84-.14-1.14c-.09-.3-.22-.51-.37-.65-.15-.13-.32-.2-.5-.2s-.34.07-.49.2c-.15.13-.27.35-.36.65-.09.3-.14.68-.14 1.14s.05.84.14 1.14c.09.3.21.51.36.65.15.13.32.2.49.2s.35-.07.5-.2zM126.76 180.53s-.06-.04-.06-.08c0-.03.02-.08.06-.17.16-.32.24-.67.24-1.07 0-.07.02-.12.07-.16.05-.04.12-.06.21-.06h.06c.09 0 .16.02.21.05.05.03.07.08.07.14 0 .26-.04.5-.13.7s-.18.37-.3.49-.21.18-.3.18c-.05 0-.1 0-.14-.02zM129.06 179.52c-.24-.18-.43-.46-.57-.83-.15-.37-.22-.84-.22-1.39s.07-1.02.22-1.39c.14-.37.34-.65.57-.83s.5-.27.8-.27.56.09.81.27.44.46.58.83.22.84.22 1.39-.07 1.02-.22 1.39c-.14.37-.34.65-.58.83s-.51.27-.81.27-.56-.09-.8-.27zm1.3-.44c.15-.14.27-.35.37-.65.09-.3.14-.68.14-1.14s-.05-.84-.14-1.14c-.09-.3-.22-.51-.37-.65-.15-.13-.32-.2-.5-.2s-.34.07-.49.2c-.15.13-.27.35-.36.65-.09.3-.14.68-.14 1.14s.05.84.14 1.14c.09.3.21.51.36.65.15.13.32.2.49.2s.35-.07.5-.2zM132.8 179.52c-.24-.18-.43-.46-.57-.83-.15-.37-.22-.84-.22-1.39s.07-1.02.22-1.39c.14-.37.34-.65.57-.83s.5-.27.8-.27.56.09.81.27.44.46.58.83.22.84.22 1.39-.07 1.02-.22 1.39c-.14.37-.34.65-.58.83s-.51.27-.81.27-.56-.09-.8-.27zm1.3-.44c.15-.14.27-.35.37-.65.09-.3.14-.68.14-1.14s-.05-.84-.14-1.14c-.09-.3-.22-.51-.37-.65-.15-.13-.32-.2-.5-.2s-.34.07-.49.2c-.15.13-.27.35-.36.65-.09.3-.14.68-.14 1.14s.05.84.14 1.14c.09.3.21.51.36.65.15.13.32.2.49.2s.35-.07.5-.2zM136.55 179.52c-.24-.18-.43-.46-.57-.83-.15-.37-.22-.84-.22-1.39s.07-1.02.22-1.39c.14-.37.34-.65.57-.83s.5-.27.8-.27.56.09.81.27.44.46.58.83.22.84.22 1.39-.07 1.02-.22 1.39c-.14.37-.34.65-.58.83s-.51.27-.81.27-.56-.09-.8-.27zm1.3-.44c.15-.14.27-.35.37-.65.09-.3.14-.68.14-1.14s-.05-.84-.14-1.14c-.09-.3-.22-.51-.37-.65-.15-.13-.32-.2-.5-.2s-.34.07-.49.2c-.15.13-.27.35-.36.65-.09.3-.14.68-.14 1.14s.05.84.14 1.14c.09.3.21.51.36.65.15.13.32.2.49.2s.35-.07.5-.2z"/></g><g><path d="M85.56 179.65a.522.522 0 01-.04-.21c0-.06 0-.1.03-.12l1.81-2.27c.14-.19.25-.34.32-.46.07-.11.11-.21.13-.28.02-.08.03-.17.03-.28 0-.22-.08-.4-.23-.53-.16-.13-.37-.2-.64-.2-.2 0-.36.03-.49.08s-.26.12-.4.2a.54.54 0 01-.16.08c-.03 0-.08-.05-.14-.14-.06-.09-.09-.16-.09-.21 0-.09.07-.18.22-.26s.32-.14.52-.19.38-.07.52-.07c.46 0 .82.11 1.09.32.27.21.4.5.4.87 0 .23-.04.44-.1.61s-.2.39-.4.65-.56.72-1.1 1.37l-.51.62h2.02c.05 0 .09.02.11.05.02.03.03.09.03.16v.08c0 .07-.01.13-.03.16-.02.03-.06.05-.11.05h-2.67s-.07-.03-.1-.1zM89.97 179.52c-.24-.18-.43-.46-.57-.83-.15-.37-.22-.84-.22-1.39s.07-1.02.22-1.39c.14-.37.34-.65.57-.83s.5-.27.8-.27.56.09.81.27.44.46.58.83.22.84.22 1.39-.07 1.02-.22 1.39c-.14.37-.34.65-.58.83s-.51.27-.81.27-.56-.09-.8-.27zm1.3-.44c.15-.14.27-.35.37-.65.09-.3.14-.68.14-1.14s-.05-.84-.14-1.14c-.09-.3-.22-.51-.37-.65-.15-.13-.32-.2-.5-.2s-.34.07-.49.2c-.15.13-.27.35-.36.65-.09.3-.14.68-.14 1.14s.05.84.14 1.14c.09.3.21.51.36.65.15.13.32.2.49.2s.35-.07.5-.2zM92.8 180.53s-.06-.04-.06-.08c0-.03.02-.08.06-.17.16-.32.24-.67.24-1.07 0-.07.02-.12.07-.16.05-.04.12-.06.21-.06h.06c.09 0 .16.02.21.05.05.03.07.08.07.14 0 .26-.04.5-.13.7s-.18.37-.3.49-.21.18-.3.18c-.05 0-.1 0-.14-.02zM95.1 179.52c-.24-.18-.43-.46-.57-.83-.15-.37-.22-.84-.22-1.39s.07-1.02.22-1.39c.14-.37.34-.65.57-.83s.5-.27.8-.27.56.09.81.27.44.46.58.83.22.84.22 1.39-.07 1.02-.22 1.39c-.14.37-.34.65-.58.83s-.51.27-.81.27-.56-.09-.8-.27zm1.3-.44c.15-.14.27-.35.37-.65.09-.3.14-.68.14-1.14s-.05-.84-.14-1.14c-.09-.3-.22-.51-.37-.65-.15-.13-.32-.2-.5-.2s-.34.07-.49.2c-.15.13-.27.35-.36.65-.09.3-.14.68-.14 1.14s.05.84.14 1.14c.09.3.21.51.36.65.15.13.32.2.49.2s.35-.07.5-.2zM98.84 179.52c-.24-.18-.43-.46-.57-.83-.15-.37-.22-.84-.22-1.39s.07-1.02.22-1.39c.14-.37.34-.65.57-.83s.5-.27.8-.27.56.09.81.27.44.46.58.83.22.84.22 1.39-.07 1.02-.22 1.39c-.14.37-.34.65-.58.83s-.51.27-.81.27-.56-.09-.8-.27zm1.3-.44c.15-.14.27-.35.37-.65.09-.3.14-.68.14-1.14s-.05-.84-.14-1.14c-.09-.3-.22-.51-.37-.65-.15-.13-.32-.2-.5-.2s-.34.07-.49.2c-.15.13-.27.35-.36.65-.09.3-.14.68-.14 1.14s.05.84.14 1.14c.09.3.21.51.36.65.15.13.32.2.49.2s.35-.07.5-.2zM102.59 179.52c-.24-.18-.43-.46-.57-.83-.15-.37-.22-.84-.22-1.39s.07-1.02.22-1.39c.14-.37.34-.65.57-.83s.5-.27.8-.27.56.09.81.27.44.46.58.83.22.84.22 1.39-.07 1.02-.22 1.39c-.14.37-.34.65-.58.83s-.51.27-.81.27-.56-.09-.8-.27zm1.3-.44c.15-.14.27-.35.37-.65.09-.3.14-.68.14-1.14s-.05-.84-.14-1.14c-.09-.3-.22-.51-.37-.65-.15-.13-.32-.2-.5-.2s-.34.07-.49.2c-.15.13-.27.35-.36.65-.09.3-.14.68-.14 1.14s.05.84.14 1.14c.09.3.21.51.36.65.15.13.32.2.49.2s.35-.07.5-.2z"/></g><g><path d="M51.54 179.69s-.04-.09-.04-.16v-.08c0-.07.01-.13.04-.16.02-.03.06-.05.1-.05h1.22v-3.77l-1.24.21s-.08-.04-.1-.12a.672.672 0 01-.04-.24c0-.07.04-.11.13-.13l1.62-.36c.06 0 .11.01.15.04.04.03.07.06.07.11v4.26h1.04c.05 0 .09.02.11.05.02.03.03.09.03.16v.08c0 .07-.01.13-.03.16-.02.03-.06.05-.11.05h-2.84s-.08-.02-.1-.05zM56.01 179.52c-.24-.18-.43-.46-.57-.83-.15-.37-.22-.84-.22-1.39s.07-1.02.22-1.39c.14-.37.34-.65.57-.83s.5-.27.8-.27.56.09.81.27.44.46.58.83.22.84.22 1.39-.07 1.02-.22 1.39c-.14.37-.34.65-.58.83s-.51.27-.81.27-.56-.09-.8-.27zm1.3-.44c.15-.14.27-.35.37-.65.09-.3.14-.68.14-1.14s-.05-.84-.14-1.14c-.09-.3-.22-.51-.37-.65-.15-.13-.32-.2-.5-.2s-.34.07-.49.2c-.15.13-.27.35-.36.65-.09.3-.14.68-.14 1.14s.05.84.14 1.14c.09.3.21.51.36.65.15.13.32.2.49.2s.35-.07.5-.2zM58.84 180.53s-.06-.04-.06-.08c0-.03.02-.08.06-.17.16-.32.24-.67.24-1.07 0-.07.02-.12.07-.16.05-.04.12-.06.21-.06h.06c.09 0 .16.02.21.05.05.03.07.08.07.14 0 .26-.04.5-.13.7s-.18.37-.3.49-.21.18-.3.18c-.05 0-.1 0-.14-.02zM61.14 179.52c-.24-.18-.43-.46-.57-.83-.15-.37-.22-.84-.22-1.39s.07-1.02.22-1.39c.14-.37.34-.65.57-.83s.5-.27.8-.27.56.09.81.27.44.46.58.83.22.84.22 1.39-.07 1.02-.22 1.39c-.14.37-.34.65-.58.83s-.51.27-.81.27-.56-.09-.8-.27zm1.3-.44c.15-.14.27-.35.37-.65.09-.3.14-.68.14-1.14s-.05-.84-.14-1.14c-.09-.3-.22-.51-.37-.65-.15-.13-.32-.2-.5-.2s-.34.07-.49.2c-.15.13-.27.35-.36.65-.09.3-.14.68-.14 1.14s.05.84.14 1.14c.09.3.21.51.36.65.15.13.32.2.49.2s.35-.07.5-.2zM64.88 179.52c-.24-.18-.43-.46-.57-.83-.15-.37-.22-.84-.22-1.39s.07-1.02.22-1.39c.14-.37.34-.65.57-.83s.5-.27.8-.27.56.09.81.27.44.46.58.83.22.84.22 1.39-.07 1.02-.22 1.39c-.14.37-.34.65-.58.83s-.51.27-.81.27-.56-.09-.8-.27zm1.3-.44c.15-.14.27-.35.37-.65.09-.3.14-.68.14-1.14s-.05-.84-.14-1.14c-.09-.3-.22-.51-.37-.65-.15-.13-.32-.2-.5-.2s-.34.07-.49.2c-.15.13-.27.35-.36.65-.09.3-.14.68-.14 1.14s.05.84.14 1.14c.09.3.21.51.36.65.15.13.32.2.49.2s.35-.07.5-.2zM68.63 179.52c-.24-.18-.43-.46-.57-.83-.15-.37-.22-.84-.22-1.39s.07-1.02.22-1.39c.14-.37.34-.65.57-.83s.5-.27.8-.27.56.09.81.27.44.46.58.83.22.84.22 1.39-.07 1.02-.22 1.39c-.14.37-.34.65-.58.83s-.51.27-.81.27-.56-.09-.8-.27zm1.3-.44c.15-.14.27-.35.37-.65.09-.3.14-.68.14-1.14s-.05-.84-.14-1.14c-.09-.3-.22-.51-.37-.65-.15-.13-.32-.2-.5-.2s-.34.07-.49.2c-.15.13-.27.35-.36.65-.09.3-.14.68-.14 1.14s.05.84.14 1.14c.09.3.21.51.36.65.15.13.32.2.49.2s.35-.07.5-.2z"/></g><path d="M26.27 24.05a.648.648 0 01-.07-.23c0-.04.02-.06.06-.08.46-.19.84-.45 1.12-.77.29-.32.49-.68.61-1.09-.27.15-.58.23-.94.23-.25 0-.47-.06-.68-.17s-.36-.28-.48-.5-.18-.46-.18-.74.07-.54.2-.77.31-.39.54-.51.49-.18.77-.18c.49 0 .86.15 1.11.46.25.31.38.74.38 1.31 0 .62-.15 1.16-.44 1.64-.29.48-.62.86-.99 1.13-.37.27-.65.41-.84.41-.07 0-.12-.05-.16-.14zm1.82-2.68c.02-.19.03-.33.03-.42 0-.44-.09-.75-.27-.93s-.4-.27-.67-.27a.885.885 0 00-.75.41c-.09.14-.14.31-.14.51 0 .32.09.55.27.71.18.15.39.23.65.23.31 0 .6-.08.88-.24zM26.1 40.06c-.28-.25-.42-.61-.42-1.08 0-.34.07-.6.2-.79.14-.19.33-.34.57-.46-.18-.11-.32-.25-.42-.43s-.16-.39-.16-.64c0-.38.12-.68.37-.89.25-.21.57-.32.96-.32s.71.11.96.32c.25.21.38.51.38.89 0 .5-.23.85-.68 1.06.27.12.47.27.62.46s.22.45.22.8c0 .48-.14.84-.42 1.08s-.65.37-1.1.37-.81-.12-1.09-.37zm1.74-.38c.18-.17.26-.4.26-.7 0-.19-.04-.35-.13-.46-.08-.12-.19-.21-.31-.27s-.3-.13-.52-.21l-.22-.08c-.2.12-.36.26-.47.42s-.17.37-.17.61c0 .3.09.54.26.7.17.17.39.25.65.25s.48-.08.65-.25zm.12-3.02c0-.24-.07-.42-.21-.53-.14-.12-.32-.17-.55-.17s-.4.06-.54.17c-.14.12-.21.29-.21.53 0 .18.04.32.12.43.08.11.18.19.3.25s.28.13.48.2c.4-.23.6-.53.6-.88zM26.07 56.59s-.07-.05-.07-.1c0 0 0-.04.03-.08l2.02-4.2h-2.21s-.08-.02-.1-.05a.31.31 0 01-.04-.16v-.08c0-.08.01-.13.04-.16.02-.03.06-.05.1-.05h2.77s.06.04.09.13.05.16.05.23c0 .02 0 .05-.01.08l-2.07 4.37s-.05.06-.1.08c-.05.02-.11.03-.18.03h-.08c-.11 0-.18 0-.23-.03zM26.05 72.39c-.25-.31-.38-.74-.38-1.31 0-.62.15-1.16.44-1.64s.62-.86.99-1.13c.37-.27.65-.41.84-.41.07 0 .12.05.16.14.04.09.07.17.07.23 0 .04-.02.06-.06.08-.46.19-.84.45-1.12.77-.29.32-.49.69-.61 1.1.27-.15.58-.23.94-.23.25 0 .47.06.68.17.2.12.36.28.48.5.12.21.18.46.18.74s-.07.54-.2.77c-.13.22-.31.39-.54.51-.23.12-.49.18-.77.18-.49 0-.86-.15-1.11-.46zm1.55-.15c.14-.07.25-.17.34-.31.09-.14.14-.31.14-.51 0-.32-.09-.55-.27-.71a.974.974 0 00-.65-.23c-.3 0-.6.08-.88.24-.02.19-.03.33-.03.42 0 .44.09.75.27.93s.4.27.67.27c.14 0 .27-.03.41-.1zM26.29 89c-.2-.04-.36-.1-.47-.16s-.17-.13-.17-.19c0-.07.03-.14.09-.22s.11-.13.15-.13c.02 0 .09.02.19.06.14.06.27.11.4.15.13.04.29.06.47.06.3 0 .56-.09.77-.27s.31-.43.31-.76-.11-.55-.32-.71c-.21-.16-.53-.25-.94-.25h-.6c-.07 0-.13-.02-.15-.05-.03-.03-.04-.09-.04-.16l.12-2.03c0-.08.02-.13.06-.16.04-.03.09-.05.16-.05h1.86c.05 0 .09.02.11.05.02.03.03.09.03.16v.08c0 .07-.01.13-.03.16-.02.03-.06.05-.11.05h-1.52l-.09 1.44h.36c.28 0 .55.05.81.14.26.09.47.25.64.46.17.22.25.5.25.86 0 .56-.16.95-.49 1.18s-.72.35-1.19.35c-.24 0-.46-.02-.67-.07zM27.74 105.09v-1.03h-2.13s-.07-.04-.11-.13a.525.525 0 01-.06-.23c0-.04 0-.07.01-.08l2.3-3.21a.3.3 0 01.24-.1h.11c.14 0 .21.05.21.15v3.09h.47c.05 0 .09.02.11.05.02.03.03.09.03.16v.08c0 .07-.01.13-.03.16-.02.03-.06.05-.11.05h-.47v1.03c0 .1-.07.15-.21.15h-.16c-.14 0-.21-.05-.21-.15zm0-1.53v-2.06c0-.05.01-.12.04-.22h-.03l-1.61 2.28h1.6zM26.33 121.42c-.21-.04-.38-.09-.51-.15s-.19-.12-.19-.18.03-.14.09-.22c.06-.08.11-.13.15-.13.03 0 .1.02.2.06.3.13.6.19.91.19.26 0 .49-.07.7-.22.21-.15.31-.4.31-.74s-.09-.57-.27-.71c-.18-.14-.44-.21-.78-.21h-.23s-.08-.02-.1-.05a.31.31 0 01-.04-.16v-.08c0-.08.01-.13.04-.16.02-.03.06-.05.1-.05h.2c.22 0 .4-.05.54-.15.14-.1.24-.22.3-.36.06-.14.09-.28.09-.41 0-.17-.06-.33-.19-.47s-.34-.21-.64-.21c-.2 0-.36.02-.49.05s-.25.08-.37.13c-.08.03-.13.05-.15.05-.04 0-.09-.05-.14-.14a.458.458 0 01-.09-.22c0-.1.15-.18.44-.26.29-.07.56-.11.81-.11.43 0 .77.11 1.03.32.26.21.39.52.39.92 0 .23-.07.43-.21.59s-.31.29-.51.37v.03c.23.06.44.21.62.43.18.23.27.51.27.85s-.08.61-.23.83-.35.38-.59.48-.48.15-.73.15-.5-.02-.71-.06zM25.72 137.55a.522.522 0 01-.04-.21c0-.06 0-.1.03-.12l1.81-2.27c.14-.19.25-.34.32-.46.07-.11.11-.21.13-.28.02-.08.03-.17.03-.28 0-.22-.08-.4-.23-.53-.16-.13-.37-.2-.64-.2-.2 0-.36.03-.49.08s-.26.12-.4.2a.54.54 0 01-.16.08c-.03 0-.08-.05-.14-.14-.06-.09-.09-.16-.09-.21 0-.09.07-.18.22-.26s.32-.14.52-.19.38-.07.52-.07c.46 0 .82.11 1.09.32.27.21.4.5.4.87 0 .23-.04.44-.1.61s-.2.39-.4.65-.56.72-1.1 1.37l-.51.62h2.02c.05 0 .09.02.11.05.02.03.03.09.03.16v.08c0 .07-.01.13-.03.16-.02.03-.06.05-.11.05h-2.67s-.07-.03-.1-.1zM25.65 153.81s-.04-.09-.04-.16v-.08c0-.07.01-.13.04-.16.02-.03.06-.05.1-.05h1.22v-3.77l-1.24.21s-.08-.04-.1-.12a.672.672 0 01-.04-.24c0-.07.04-.11.13-.13l1.62-.36c.06 0 .11.01.15.04.04.03.07.06.07.11v4.26h1.04c.05 0 .09.02.11.05.02.03.03.09.03.16v.08c0 .07-.01.13-.03.16-.02.03-.06.05-.11.05h-2.84s-.08-.02-.1-.05z"/><path d="M38.69 6.28c.87 13.53 1.52 24.49 1.94 31.96 0 0 .53 9.34 1.94 27.55.72 9.23 1.25 15.3 3.33 23.14 1.08 4.06 2.08 8.23 4.44 12.95 1.21 2.41 2.95 5.84 6.11 9.37 4.93 5.51 10.45 8 14.15 9.64 4.44 1.98 7.83 2.73 13.88 4.06 3.15.69 8.5 1.75 19.01 2.97 2.72.32 11.16 1.26 25.17 2.1 5.83.35 11.15.59 19.36.87 18.53.64 32.71.86 33.79.87 20.96.31 59.47.9 109.28 1.57" style="fill:none;stroke:#a1b0da;stroke-width:.5px"/><path d="M48.34 6.28c.55 5.24 1.41 12.37 2.78 20.8 1.43 8.78 2.76 16.78 5.56 26.9 2.77 9.99 4.51 16.27 8.9 24.13 2.08 3.72 5.62 9.94 12.24 16.36 7.61 7.38 15.16 11.01 19.47 13.04 1.76.83 6.36 2.92 16.97 5.82 13.66 3.75 24.49 5.34 27.82 5.82 18.09 2.61 33.88 3.9 50.07 4.99 9.36.63 24.27 1.55 46.74 2.5 13.7.58 31.35 1.21 52.02 1.66" style="fill:none;stroke:#5b73b8;stroke-width:.5px"/><path d="M58.92 6.28c.61 3.6 1.49 8.25 2.78 13.62.81 3.37 2.8 11.28 6.4 21.4 2.57 7.24 3.86 10.87 6.4 15.84 4.39 8.62 9.05 14.5 10.85 16.68 7.16 8.69 14.12 13.77 15.86 15.01 5.54 3.96 10.19 6.18 14.74 8.34 4.12 1.95 10.03 4.47 20.03 7.51 12.81 3.88 22.71 5.68 34.5 7.78 11.36 2.03 21.05 3.32 28.38 4.17 3.5.41 5.99.65 28.38 2.5 17.61 1.45 26.5 2.19 31.16 2.5 8.06.54 19.17 1.2 32.55 1.67" style="fill:none;stroke:#273a71;stroke-width:.5px"/><circle cx="83.23" cy="99.29" r="1.13" style="fill:#231f20"/><g><path d="M56.77 148.83v-3.9c0-.06.01-.11.04-.14.03-.03.07-.04.14-.04h1.89s.07.01.09.04c.02.03.03.07.03.14v.1c0 .06 0 .11-.03.14-.02.03-.05.04-.09.04H57.3v1.37h1.43s.08.01.09.04c.02.03.03.07.03.14v.1c0 .06 0 .11-.03.14-.02.03-.05.04-.09.04H57.3v1.8c0 .09-.08.13-.24.13h-.05c-.16 0-.24-.04-.24-.13zM59.9 148.6c-.24-.26-.36-.66-.36-1.19s.12-.94.35-1.21c.24-.28.58-.41 1.04-.41.41 0 .72.13.92.4.21.27.31.66.31 1.17 0 .04-.02.09-.07.15s-.09.1-.13.1h-1.9c.02.33.11.58.26.73.15.16.37.23.67.23a1.418 1.418 0 00.73-.19c.08-.05.13-.06.14-.06.04 0 .08.04.13.12s.08.14.08.18c0 .05-.05.1-.15.16-.1.06-.23.12-.4.16-.17.04-.34.06-.53.06-.5 0-.87-.13-1.11-.39zm1.74-1.44c0-.63-.24-.95-.72-.95-.52 0-.8.32-.84.95h1.56zM63.02 148.76c-.19-.15-.28-.38-.28-.67 0-.32.09-.55.29-.71.19-.16.42-.26.7-.31.28-.05.61-.07 1.01-.08v-.28c0-.15-.05-.27-.16-.36-.1-.09-.27-.14-.5-.14-.18 0-.33.02-.46.06-.13.04-.24.08-.33.13-.09.04-.14.06-.14.06-.04 0-.09-.04-.14-.12s-.07-.14-.07-.18c0-.05.05-.11.16-.17.11-.06.25-.11.42-.15.18-.04.36-.06.55-.06.37 0 .66.08.87.25s.31.4.31.69v1.34c0 .26.01.45.04.57.02.11.04.18.04.19 0 .05-.04.08-.11.1-.08.02-.15.03-.21.03s-.1-.03-.12-.09-.05-.13-.06-.2a.49.49 0 00-.03-.13c-.27.3-.61.45-1.01.45-.31 0-.56-.08-.74-.23zm1.27-.32c.14-.07.29-.17.44-.31v-.71c-.3 0-.54.02-.74.04-.19.02-.36.08-.5.17-.14.09-.22.23-.22.43 0 .16.04.28.13.37s.21.12.38.12c.2 0 .37-.04.51-.11zM66.4 148.94c-.15-.04-.26-.09-.35-.15s-.13-.11-.13-.16c0-.04.03-.1.08-.18s.09-.12.13-.12c0 0 .05.02.11.07.07.04.15.08.25.12.1.04.21.05.34.05.39 0 .59-.16.59-.49 0-.14-.04-.24-.13-.32s-.24-.15-.47-.22c-.32-.09-.53-.21-.65-.34s-.18-.32-.18-.56c0-.17.04-.32.13-.45s.2-.24.35-.31c.15-.07.32-.11.51-.11.2 0 .39.03.55.08.16.05.24.11.24.18 0 .05-.02.12-.07.2s-.09.12-.12.12c-.01 0-.07-.03-.16-.08s-.22-.07-.39-.07c-.15 0-.28.03-.38.1-.1.07-.15.16-.15.28 0 .14.04.24.11.32.07.08.19.15.36.2.26.08.45.16.58.24.13.08.23.17.29.29.06.11.09.26.09.45s-.05.33-.14.48c-.09.14-.22.25-.38.34-.16.08-.34.12-.54.12-.17 0-.33-.02-.48-.06zM68.71 145.11v-.34c0-.1.1-.14.29-.14.18 0 .26.05.26.14v.34c0 .1-.1.14-.29.14-.18 0-.26-.05-.26-.14zm.02 3.72v-2.9c0-.09.08-.13.24-.13h.02c.16 0 .24.04.24.13v2.9c0 .09-.08.13-.24.13h-.02c-.16 0-.24-.04-.24-.13zM70.75 148.53c-.02.12-.05.24-.1.35-.02.05-.07.07-.16.07h-.02c-.12 0-.18-.04-.18-.13v-4.26c0-.09.08-.13.24-.13h.02c.16 0 .24.04.24.13v1.51c.13-.1.26-.18.39-.23.13-.05.29-.08.46-.08.24 0 .45.06.64.19.18.12.33.31.43.55.1.24.15.53.15.87 0 .31-.05.59-.14.83-.09.24-.23.43-.41.57-.18.14-.38.2-.62.2-.35 0-.67-.15-.95-.45zm1.4-.3c.13-.21.19-.51.19-.9 0-.36-.07-.64-.2-.83a.704.704 0 00-.6-.29c-.13 0-.26.02-.39.07s-.25.11-.35.2v1.64c.12.13.25.23.39.31.14.07.28.11.42.11.24 0 .42-.1.55-.31zM73.92 148.8c-.16-.12-.24-.34-.24-.65v-3.59c0-.09.08-.13.24-.13h.02c.16 0 .24.04.24.13v3.54c0 .17.03.28.09.35s.14.1.24.1c.08 0 .13 0 .17-.01.04 0 .07-.01.09-.01.04 0 .07.04.09.11s.04.13.04.17c0 .12-.15.18-.44.18-.2 0-.38-.06-.54-.18zM75.67 148.6c-.24-.26-.36-.66-.36-1.19s.12-.94.35-1.21c.24-.28.58-.41 1.04-.41.41 0 .72.13.92.4.21.27.31.66.31 1.17 0 .04-.02.09-.07.15s-.09.1-.13.1h-1.9c.02.33.11.58.26.73.15.16.37.23.67.23a1.418 1.418 0 00.73-.19c.08-.05.13-.06.14-.06.04 0 .08.04.13.12s.08.14.08.18c0 .05-.05.1-.15.16-.1.06-.23.12-.4.16-.17.04-.34.06-.53.06-.5 0-.87-.13-1.11-.39zm1.74-1.44c0-.63-.24-.95-.72-.95-.52 0-.8.32-.84.95h1.56zM80.34 148.94c-.15-.04-.26-.09-.35-.15s-.13-.11-.13-.16c0-.04.03-.1.08-.18s.09-.12.13-.12c0 0 .05.02.11.07.07.04.15.08.25.12.1.04.21.05.34.05.39 0 .59-.16.59-.49 0-.14-.04-.24-.13-.32s-.24-.15-.47-.22c-.32-.09-.53-.21-.65-.34s-.18-.32-.18-.56c0-.17.04-.32.13-.45s.2-.24.35-.31c.15-.07.32-.11.51-.11.2 0 .39.03.55.08.16.05.24.11.24.18 0 .05-.02.12-.07.2s-.09.12-.12.12c-.01 0-.07-.03-.16-.08s-.22-.07-.39-.07c-.15 0-.28.03-.38.1-.1.07-.15.16-.15.28 0 .14.04.24.11.32.07.08.19.15.36.2.26.08.45.16.58.24.13.08.23.17.29.29.06.11.09.26.09.45s-.05.33-.14.48c-.09.14-.22.25-.38.34-.16.08-.34.12-.54.12-.17 0-.33-.02-.48-.06zM82.82 148.6c-.24-.26-.36-.66-.36-1.19s.12-.94.35-1.21c.24-.28.58-.41 1.04-.41.41 0 .72.13.92.4.21.27.31.66.31 1.17 0 .04-.02.09-.07.15s-.09.1-.13.1h-1.9c.02.33.11.58.26.73.15.16.37.23.67.23a1.418 1.418 0 00.73-.19c.08-.05.13-.06.14-.06.04 0 .08.04.13.12s.08.14.08.18c0 .05-.05.1-.15.16-.1.06-.23.12-.4.16-.17.04-.34.06-.53.06-.5 0-.87-.13-1.11-.39zm1.74-1.44c0-.63-.24-.95-.72-.95-.52 0-.8.32-.84.95h1.56zM86.24 148.8c-.16-.12-.24-.34-.24-.65v-1.91h-.3s-.07-.01-.09-.04c-.02-.03-.03-.07-.03-.14v-.07c0-.06.01-.11.03-.14.02-.03.05-.04.09-.04h.3l.07-.63c.01-.09.08-.13.19-.13h.06c.12 0 .18.04.18.13v.63h.5s.07.01.09.04c.02.03.03.07.03.14v.07c0 .06 0 .11-.03.14-.02.03-.05.04-.09.04h-.5v1.87c0 .17.03.28.09.35.06.06.14.1.24.1.08 0 .13 0 .17-.01.04 0 .07-.01.09-.01.04 0 .07.04.09.11.02.07.04.13.04.17 0 .12-.15.18-.44.18-.2 0-.38-.06-.54-.18z" style="fill:#ed1f24"/></g><path d="M86.29 96.37s-.04-.07-.04-.14v-3.84c0-.06.01-.11.04-.14.03-.03.07-.04.14-.04h2.09s.07.01.09.04c.02.03.03.07.03.14v.1c0 .06 0 .11-.03.14-.02.03-.05.04-.09.04h-1.75v1.37h1.57s.08.01.09.04c.02.03.03.07.03.14v.1c0 .06 0 .11-.03.14-.02.03-.05.04-.09.04h-1.57v1.46h1.75s.07.01.09.04c.02.03.03.07.03.14v.1c0 .06 0 .11-.03.14-.02.03-.05.04-.09.04h-2.1c-.06 0-.11-.01-.14-.04z"/><g><path d="M230.07 17.96s-.04-.07-.04-.14v-3.84c0-.06.01-.11.04-.14.03-.03.07-.04.14-.04h1.21c.56 0 1.01.17 1.35.5.34.33.51.87.51 1.6s-.17 1.27-.51 1.6-.79.5-1.35.5h-1.21c-.06 0-.11-.01-.14-.04zm1.31-.41c.4 0 .73-.13.98-.4.25-.26.37-.68.37-1.25s-.12-.98-.37-1.25-.57-.4-.98-.4h-.82v3.29h.82zM234.3 17.64c-.24-.26-.36-.66-.36-1.19s.12-.94.35-1.21c.24-.28.58-.41 1.04-.41.41 0 .72.13.92.4.21.27.31.65.31 1.17 0 .04-.02.09-.07.15s-.09.1-.13.1h-1.9c.02.33.11.58.26.73s.37.23.67.23a1.418 1.418 0 00.73-.19c.08-.05.13-.06.14-.06.04 0 .08.04.13.12s.08.14.08.18c0 .05-.05.1-.15.17a1.835 1.835 0 01-.93.22c-.5 0-.87-.13-1.11-.39zm1.74-1.44c0-.63-.24-.95-.72-.95-.52 0-.8.32-.84.95h1.56zM241.2 15.04c.19.14.28.4.28.76v2.08c0 .09-.08.13-.24.13h-.02c-.16 0-.24-.04-.24-.13v-2.03c0-.18-.05-.32-.15-.43a.58.58 0 00-.43-.16c-.26 0-.5.14-.74.42v2.2c0 .09-.08.13-.24.13h-.02c-.16 0-.24-.04-.24-.13v-2.03c0-.18-.05-.32-.15-.43a.58.58 0 00-.43-.16.74.74 0 00-.36.09c-.11.06-.2.13-.27.2a.66.66 0 00-.11.12v2.2c0 .09-.08.13-.24.13h-.02c-.16 0-.24-.04-.24-.13v-2.11c0-.26-.01-.45-.04-.57-.02-.11-.04-.18-.04-.19 0-.05.04-.08.11-.11.08-.02.15-.03.21-.03s.1.03.12.09c.03.06.05.12.06.18.01.06.02.11.03.13.11-.13.25-.24.41-.32s.33-.13.51-.13.35.04.51.11c.16.07.28.2.35.39.12-.14.27-.26.43-.36a1.096 1.096 0 011.18.07zM242.51 17.81c-.19-.15-.28-.38-.28-.67 0-.32.09-.55.29-.71.19-.16.42-.26.7-.31.28-.05.61-.07 1.01-.08v-.28c0-.15-.05-.27-.16-.36-.1-.09-.27-.14-.5-.14-.18 0-.33.02-.46.06s-.24.08-.33.13-.14.06-.14.06c-.04 0-.09-.04-.14-.12s-.07-.14-.07-.18c0-.05.05-.11.16-.17.11-.06.25-.11.42-.15.18-.04.36-.06.55-.06.37 0 .66.08.87.25s.31.4.31.69v1.34c0 .26.01.45.04.57.02.11.04.18.04.19 0 .05-.04.08-.11.11-.08.02-.15.03-.21.03s-.1-.03-.12-.09a.664.664 0 01-.06-.2.49.49 0 00-.03-.13c-.27.3-.61.45-1.01.45-.31 0-.56-.08-.74-.23zm1.27-.32c.14-.07.29-.17.44-.31v-.71c-.3 0-.54.02-.74.04-.19.02-.36.08-.5.17-.14.09-.22.23-.22.43 0 .16.04.28.13.37s.21.13.38.13c.2 0 .37-.04.51-.11zM245.72 17.88v-2.11c0-.26-.01-.45-.04-.57-.02-.11-.04-.18-.04-.19 0-.05.04-.08.11-.11.08-.02.15-.03.21-.03s.1.03.12.09c.03.06.05.12.06.18.01.06.02.11.03.13.13-.14.27-.25.44-.33s.33-.12.5-.12c.3 0 .54.09.72.26s.26.41.26.71v2.08c0 .09-.08.13-.24.13h-.02c-.16 0-.24-.04-.24-.13v-2.03c0-.18-.05-.33-.16-.43-.11-.1-.26-.15-.45-.15a.9.9 0 00-.41.11c-.13.08-.25.18-.35.31v2.2c0 .09-.08.13-.24.13h-.02c-.16 0-.24-.04-.24-.13zM249.41 17.83c-.18-.14-.31-.33-.41-.57-.09-.24-.14-.52-.14-.83 0-.34.05-.63.15-.87.1-.24.25-.42.43-.55.18-.12.4-.19.64-.19.18 0 .33.03.46.08s.26.13.39.23v-1.51c0-.09.08-.13.24-.13h.02c.16 0 .24.04.24.13v3.49c0 .26.01.45.04.57.02.11.04.18.04.19 0 .05-.04.08-.11.11-.08.02-.15.03-.21.03s-.1-.03-.12-.09a.664.664 0 01-.06-.2.49.49 0 00-.03-.13c-.29.3-.61.45-.95.45-.24 0-.44-.07-.62-.2zm1.14-.34c.14-.07.27-.17.39-.31v-1.64c-.22-.18-.46-.27-.74-.27s-.47.1-.61.29c-.14.19-.2.47-.2.83 0 .39.06.69.19.9s.31.32.55.32c.14 0 .27-.04.42-.11zM254.05 17.65c-.24-.26-.37-.67-.37-1.24s.14-.98.41-1.22c.27-.24.61-.37 1.01-.37.23 0 .44.03.62.08.18.06.28.12.28.19 0 .05-.02.12-.07.2-.05.08-.09.12-.12.12h-.03c-.01 0-.02-.01-.04-.01-.22-.1-.43-.14-.65-.14-.58 0-.87.38-.87 1.15 0 .42.07.73.21.92.14.19.38.28.72.28.24 0 .47-.05.68-.16l.07-.02s.08.04.13.12.07.14.07.19-.04.09-.13.14-.2.08-.34.12c-.14.03-.3.05-.47.05-.5 0-.87-.13-1.11-.38zM257 17.78c-.17-.17-.26-.41-.26-.71v-2.08c0-.09.08-.13.24-.13h.02c.16 0 .24.04.24.13v2.03c0 .18.05.33.16.43.11.1.26.15.45.15.14 0 .27-.04.4-.11s.25-.18.35-.31v-2.2c0-.09.08-.13.24-.13h.02c.16 0 .24.04.24.13v2.13c0 .26.01.45.04.57.02.11.04.18.04.19 0 .05-.04.08-.11.11-.08.02-.15.03-.21.03s-.1-.03-.12-.09a.664.664 0 01-.06-.2.49.49 0 00-.03-.13c-.13.14-.27.25-.44.33s-.33.12-.5.12c-.3 0-.54-.09-.72-.26zM260.17 17.88v-2.11c0-.26-.01-.45-.04-.57-.02-.11-.04-.18-.04-.19 0-.05.04-.08.11-.11.08-.02.15-.03.21-.03s.1.03.12.09c.03.06.05.12.06.18.01.06.02.11.03.13.21-.3.44-.45.7-.45.11 0 .2.02.26.07s.09.1.09.17-.01.14-.04.21c-.02.07-.05.11-.08.11-.02 0-.06-.01-.12-.03a.665.665 0 00-.21-.03c-.09 0-.18.03-.26.08s-.15.11-.21.18c-.06.06-.08.1-.08.11v2.2c0 .09-.08.13-.24.13h-.02c-.16 0-.24-.04-.24-.13zM262.94 17.91l-.97-2.89s-.02-.06-.02-.08c0-.07.09-.1.26-.1h.03c.14 0 .22.03.24.1l.61 1.91c.04.13.11.38.21.75h.02l.04-.18c.04-.23.09-.41.14-.56l.62-1.93c.02-.06.1-.1.25-.1h.02c.15 0 .22.03.22.1 0 .02 0 .05-.02.08l-.97 2.88c-.02.06-.1.1-.24.1h-.21c-.14 0-.22-.03-.24-.1zM265.42 17.64c-.24-.26-.36-.66-.36-1.19s.12-.94.35-1.21c.24-.28.58-.41 1.04-.41.41 0 .72.13.92.4.21.27.31.65.31 1.17 0 .04-.02.09-.07.15s-.09.1-.13.1h-1.9c.02.33.11.58.26.73s.37.23.67.23a1.418 1.418 0 00.73-.19c.08-.05.13-.06.14-.06.04 0 .08.04.13.12s.08.14.08.18c0 .05-.05.1-.15.17a1.835 1.835 0 01-.93.22c-.5 0-.87-.13-1.11-.39zm1.74-1.44c0-.63-.24-.95-.72-.95-.52 0-.8.32-.84.95h1.56z"/><circle cx="223.26" cy="16.16" r="2.13" style="fill:#ed1f24"/></g><g><path d="M230.03 54.56V50.6c0-.09.08-.13.24-.13h.05c.16 0 .24.04.24.13v3.96c0 .09-.08.13-.24.13h-.05c-.16 0-.24-.04-.24-.13zM231.83 54.68c-.15-.04-.26-.09-.35-.15-.09-.06-.13-.11-.13-.16 0-.04.03-.1.08-.18s.09-.12.13-.12c0 0 .05.02.11.07.07.04.15.08.25.12.1.04.21.05.34.05.39 0 .59-.16.59-.49 0-.14-.04-.24-.13-.32s-.24-.15-.47-.22c-.32-.09-.53-.21-.65-.34s-.18-.32-.18-.55c0-.17.04-.32.13-.45s.2-.24.35-.31c.15-.07.32-.11.51-.11.2 0 .39.03.55.08s.24.11.24.18c0 .05-.02.12-.07.2s-.09.12-.12.12c-.01 0-.07-.03-.16-.08s-.22-.08-.39-.08c-.15 0-.28.03-.38.1-.1.07-.15.16-.15.28 0 .14.04.24.11.32.07.08.19.15.36.2.26.08.45.16.58.24.13.08.23.17.29.29.06.11.09.26.09.45s-.05.33-.14.48c-.09.14-.22.25-.38.34-.16.08-.34.12-.54.12-.17 0-.33-.02-.48-.06zM234.31 54.31c-.24-.27-.36-.67-.36-1.18s.12-.92.36-1.2c.24-.28.58-.42 1.03-.42s.78.14 1.01.42c.23.28.35.68.35 1.2s-.12.92-.34 1.18c-.23.27-.57.41-1.02.41s-.8-.14-1.04-.41zm1.67-.31c.14-.19.21-.49.21-.88s-.07-.7-.21-.89c-.14-.19-.36-.29-.65-.29s-.51.1-.64.29c-.14.19-.2.49-.2.89s.07.69.2.88c.14.19.35.29.64.29s.51-.1.65-.29zM237.55 55.8v-3.34c0-.26-.01-.45-.04-.57-.02-.11-.04-.18-.04-.19 0-.05.04-.08.11-.11.08-.02.15-.03.21-.03s.1.03.12.09c.03.06.05.12.06.18.01.06.02.11.03.13.29-.3.61-.45.95-.45.24 0 .45.07.63.21.17.14.31.33.4.57s.14.52.14.83c0 .34-.05.63-.15.87-.1.24-.25.42-.43.55-.18.12-.4.19-.64.19-.18 0-.33-.03-.46-.08s-.26-.13-.39-.23v1.39c0 .09-.08.13-.24.13h-.02c-.16 0-.24-.04-.24-.13zm1.85-1.81c.14-.19.2-.47.2-.83 0-.39-.06-.69-.19-.9s-.31-.31-.55-.31a.94.94 0 00-.42.11c-.14.07-.27.17-.39.31v1.64c.22.18.46.27.74.27.26 0 .46-.1.6-.29zM241.01 54.56v-2.11c0-.26-.01-.45-.04-.57-.02-.11-.04-.18-.04-.19 0-.05.04-.08.11-.11.08-.02.15-.03.21-.03s.1.03.12.09c.03.06.05.12.06.18.01.06.02.11.03.13.21-.3.44-.45.7-.45.11 0 .2.02.26.07s.09.1.09.17-.01.14-.04.21c-.02.07-.05.11-.08.11-.02 0-.06-.01-.12-.03a.665.665 0 00-.21-.03c-.09 0-.18.03-.26.08s-.15.11-.21.18c-.06.06-.08.1-.08.11v2.2c0 .09-.08.13-.24.13h-.02c-.16 0-.24-.04-.24-.13zM243.35 54.31c-.24-.27-.36-.67-.36-1.18s.12-.92.36-1.2c.24-.28.58-.42 1.03-.42s.78.14 1.01.42c.23.28.35.68.35 1.2s-.12.92-.34 1.18c-.23.27-.57.41-1.02.41s-.8-.14-1.04-.41zm1.67-.31c.14-.19.21-.49.21-.88s-.07-.7-.21-.89c-.14-.19-.36-.29-.65-.29s-.51.1-.64.29c-.14.19-.2.49-.2.89s.07.69.2.88c.14.19.35.29.64.29s.51-.1.65-.29zM248.92 51.68v2.89c0 .09-.08.13-.24.13h-.02c-.16 0-.24-.04-.24-.13v-2.59h-1.18v2.59c0 .09-.08.13-.24.13h-.02c-.16 0-.24-.04-.24-.13v-2.59h-.24s-.07-.01-.09-.04c-.02-.03-.03-.07-.03-.14v-.07c0-.06 0-.11.03-.14.02-.03.05-.04.09-.04h.24v-.57c0-.32.08-.53.23-.65.16-.12.34-.18.54-.18.29 0 .44.06.44.18 0 .04-.01.1-.04.17-.02.07-.05.11-.09.11-.02 0-.05 0-.09-.01-.04 0-.1-.01-.17-.01-.1 0-.18.03-.24.09s-.08.18-.08.36v.52h1.45c.16 0 .24.04.24.13zm.02-1.17v.34c0 .1-.1.14-.29.14-.18 0-.26-.05-.26-.14v-.34c0-.1.1-.14.29-.14.18 0 .26.05.26.14zM250.34 54.54c-.16-.12-.24-.34-.24-.65v-1.91h-.3s-.07-.01-.09-.04c-.02-.03-.03-.07-.03-.14v-.07c0-.06.01-.11.03-.14s.05-.04.09-.04h.3l.07-.63c.01-.09.08-.13.19-.13h.06c.12 0 .18.04.18.13v.63h.5s.07.01.09.04c.02.03.03.07.03.14v.07c0 .06 0 .11-.03.14-.02.03-.05.04-.09.04h-.5v1.87c0 .17.03.28.09.35.06.06.14.1.24.1.08 0 .13 0 .17-.02.04 0 .07-.01.09-.01.04 0 .07.04.09.11.02.07.04.13.04.17 0 .12-.15.18-.44.18-.2 0-.38-.06-.54-.18zM253.63 54.34c-.24-.26-.37-.67-.37-1.24s.14-.98.41-1.22c.27-.24.61-.37 1.01-.37.23 0 .44.03.62.08.18.06.28.12.28.19 0 .05-.02.12-.07.2-.05.08-.09.12-.12.12h-.03c-.01 0-.02-.01-.04-.01-.22-.1-.43-.14-.65-.14-.58 0-.87.38-.87 1.15 0 .42.07.73.21.92.14.19.38.28.72.28.24 0 .47-.05.68-.16l.07-.02s.08.04.13.12.07.14.07.19-.04.09-.13.14-.2.08-.34.12c-.14.03-.3.05-.47.05-.5 0-.87-.13-1.11-.38zM256.57 54.46c-.17-.17-.26-.41-.26-.71v-2.08c0-.09.08-.13.24-.13h.02c.16 0 .24.04.24.13v2.03c0 .18.05.33.16.43.11.1.26.15.45.15.14 0 .27-.04.4-.11s.25-.18.35-.31v-2.2c0-.09.08-.13.24-.13h.02c.16 0 .24.04.24.13v2.13c0 .26.01.45.04.57.02.11.04.18.04.19 0 .05-.04.08-.11.11-.08.02-.15.03-.21.03s-.1-.03-.12-.09a.664.664 0 01-.06-.2.49.49 0 00-.03-.13c-.13.14-.27.25-.44.33s-.33.12-.5.12c-.3 0-.54-.09-.72-.26zM259.74 54.56v-2.11c0-.26-.01-.45-.04-.57-.02-.11-.04-.18-.04-.19 0-.05.04-.08.11-.11.08-.02.15-.03.21-.03s.1.03.12.09c.03.06.05.12.06.18.01.06.02.11.03.13.21-.3.44-.45.7-.45.11 0 .2.02.26.07s.09.1.09.17-.01.14-.04.21c-.02.07-.05.11-.08.11-.02 0-.06-.01-.12-.03a.665.665 0 00-.21-.03c-.09 0-.18.03-.26.08s-.15.11-.21.18c-.06.06-.08.1-.08.11v2.2c0 .09-.08.13-.24.13h-.02c-.16 0-.24-.04-.24-.13zM262.51 54.6l-.97-2.89s-.02-.06-.02-.08c0-.07.09-.1.26-.1h.03c.14 0 .22.03.24.1l.61 1.91c.04.13.11.38.21.75h.02l.04-.18c.04-.23.09-.41.14-.56l.62-1.93c.02-.06.1-.1.25-.1h.02c.15 0 .22.03.22.1 0 .02 0 .05-.02.08l-.97 2.88c-.02.06-.1.1-.24.1h-.21c-.14 0-.22-.03-.24-.1zM265 54.33c-.24-.26-.36-.66-.36-1.19s.12-.94.35-1.21c.24-.28.58-.41 1.04-.41.41 0 .72.13.92.4.21.27.31.65.31 1.17 0 .04-.02.09-.07.15s-.09.1-.13.1h-1.9c.02.33.11.58.26.73s.37.23.67.23a1.418 1.418 0 00.73-.19c.08-.05.13-.06.14-.06.04 0 .08.04.13.12s.08.14.08.18c0 .05-.05.1-.15.17a1.835 1.835 0 01-.93.22c-.5 0-.87-.13-1.11-.39zm1.74-1.44c0-.63-.24-.95-.72-.95-.52 0-.8.32-.84.95h1.56zM267.85 52.06v-.4c0-.09.08-.13.24-.13h.1c.16 0 .24.04.24.13v.4c0 .09-.08.13-.24.13h-.1c-.16 0-.24-.04-.24-.13zm0 2.5v-.4c0-.09.08-.13.24-.13h.1c.16 0 .24.04.24.13v.4c0 .09-.08.13-.24.13h-.1c-.16 0-.24-.04-.24-.13zM271.69 55.11c-.08 0-.12-.03-.12-.1v-.29c-.27 0-.53-.05-.77-.14a.839.839 0 01-.3-.15c-.07-.06-.11-.11-.11-.15 0-.05.03-.11.08-.2s.1-.13.13-.13c.02 0 .06.02.13.07.12.07.25.13.38.18s.29.08.47.08v-1.55c-.24-.1-.44-.18-.58-.26-.14-.08-.27-.19-.37-.34-.1-.15-.16-.34-.16-.58 0-.29.1-.53.3-.73.2-.19.47-.31.81-.34v-.25c0-.06.04-.1.12-.1h.01c.07 0 .11.03.11.1v.24c.13 0 .27.02.42.05.15.03.27.07.37.12.11.05.16.11.16.17 0 .04-.03.11-.08.19s-.09.13-.12.13c-.02 0-.05-.01-.1-.04a.305.305 0 01-.09-.05 1.33 1.33 0 00-.57-.14v1.4c.24.09.44.17.59.25.15.08.28.2.39.36s.16.37.16.62c0 .34-.1.61-.31.82-.2.21-.48.33-.84.36v.3c0 .06-.04.1-.11.1zm-.12-4.19c-.18.03-.31.1-.41.21-.1.11-.15.26-.15.44 0 .16.05.28.14.38.1.1.24.18.42.26v-1.29zm.67 3.1a.73.73 0 00.17-.49c0-.17-.05-.31-.16-.42-.1-.11-.25-.2-.44-.29v1.43a.68.68 0 00.44-.25zM274.06 54.49c-.2-.15-.37-.39-.49-.71-.12-.32-.19-.72-.19-1.19s.06-.87.19-1.19c.12-.32.29-.56.49-.71s.43-.23.68-.23.48.08.69.23.37.39.5.71c.12.32.19.72.19 1.19s-.06.87-.19 1.19c-.12.32-.29.56-.5.71-.21.15-.44.23-.69.23s-.48-.08-.68-.23zm1.11-.38c.13-.12.23-.3.31-.56s.12-.58.12-.97-.04-.72-.12-.98c-.08-.25-.18-.44-.31-.55-.13-.12-.27-.17-.43-.17s-.29.06-.42.17-.23.3-.31.55c-.08.26-.12.58-.12.98s.04.72.12.98.18.44.31.56c.13.11.27.17.42.17s.3-.06.43-.17z"/><circle cx="223.26" cy="52.84" r="2.13" style="fill:#d5daef"/></g><g><path d="M230.03 45.39v-3.96c0-.09.08-.13.24-.13h.05c.16 0 .24.04.24.13v3.96c0 .09-.08.13-.24.13h-.05c-.16 0-.24-.04-.24-.13zM231.83 45.5c-.15-.04-.26-.09-.35-.15-.09-.06-.13-.11-.13-.16 0-.04.03-.1.08-.18s.09-.12.13-.12c0 0 .05.02.11.07.07.04.15.08.25.12.1.04.21.05.34.05.39 0 .59-.16.59-.49 0-.14-.04-.24-.13-.32s-.24-.15-.47-.22c-.32-.09-.53-.21-.65-.34s-.18-.32-.18-.55c0-.17.04-.32.13-.45s.2-.24.35-.31c.15-.07.32-.11.51-.11.2 0 .39.03.55.08s.24.11.24.18c0 .05-.02.12-.07.2s-.09.12-.12.12c-.01 0-.07-.03-.16-.08s-.22-.08-.39-.08c-.15 0-.28.03-.38.1-.1.07-.15.16-.15.28 0 .14.04.24.11.32.07.08.19.15.36.2.26.08.45.16.58.24.13.08.23.17.29.29.06.11.09.26.09.45s-.05.33-.14.48c-.09.14-.22.25-.38.34-.16.08-.34.12-.54.12-.17 0-.33-.02-.48-.06zM234.31 45.14c-.24-.27-.36-.67-.36-1.18s.12-.92.36-1.2c.24-.28.58-.42 1.03-.42s.78.14 1.01.42c.23.28.35.68.35 1.2s-.12.92-.34 1.18c-.23.27-.57.41-1.02.41s-.8-.14-1.04-.41zm1.67-.31c.14-.19.21-.49.21-.88s-.07-.7-.21-.89c-.14-.19-.36-.29-.65-.29s-.51.1-.64.29c-.14.19-.2.49-.2.89s.07.69.2.88c.14.19.35.29.64.29s.51-.1.65-.29zM237.55 46.63v-3.34c0-.26-.01-.45-.04-.57-.02-.11-.04-.18-.04-.19 0-.05.04-.08.11-.11.08-.02.15-.03.21-.03s.1.03.12.09c.03.06.05.12.06.18.01.06.02.11.03.13.29-.3.61-.45.95-.45.24 0 .45.07.63.21.17.14.31.33.4.57s.14.52.14.83c0 .34-.05.63-.15.87-.1.24-.25.42-.43.55-.18.12-.4.19-.64.19-.18 0-.33-.03-.46-.08s-.26-.13-.39-.23v1.39c0 .09-.08.13-.24.13h-.02c-.16 0-.24-.04-.24-.13zm1.85-1.81c.14-.19.2-.47.2-.83 0-.39-.06-.69-.19-.9s-.31-.31-.55-.31a.94.94 0 00-.42.11c-.14.07-.27.17-.39.31v1.64c.22.18.46.27.74.27.26 0 .46-.1.6-.29zM241.01 45.39v-2.11c0-.26-.01-.45-.04-.57-.02-.11-.04-.18-.04-.19 0-.05.04-.08.11-.11.08-.02.15-.03.21-.03s.1.03.12.09c.03.06.05.12.06.18.01.06.02.11.03.13.21-.3.44-.45.7-.45.11 0 .2.02.26.07s.09.1.09.17-.01.14-.04.21c-.02.07-.05.11-.08.11-.02 0-.06-.01-.12-.03a.665.665 0 00-.21-.03c-.09 0-.18.03-.26.08s-.15.11-.21.18c-.06.06-.08.1-.08.11v2.2c0 .09-.08.13-.24.13h-.02c-.16 0-.24-.04-.24-.13zM243.35 45.14c-.24-.27-.36-.67-.36-1.18s.12-.92.36-1.2c.24-.28.58-.42 1.03-.42s.78.14 1.01.42c.23.28.35.68.35 1.2s-.12.92-.34 1.18c-.23.27-.57.41-1.02.41s-.8-.14-1.04-.41zm1.67-.31c.14-.19.21-.49.21-.88s-.07-.7-.21-.89c-.14-.19-.36-.29-.65-.29s-.51.1-.64.29c-.14.19-.2.49-.2.89s.07.69.2.88c.14.19.35.29.64.29s.51-.1.65-.29zM248.92 42.51v2.89c0 .09-.08.13-.24.13h-.02c-.16 0-.24-.04-.24-.13v-2.59h-1.18v2.59c0 .09-.08.13-.24.13h-.02c-.16 0-.24-.04-.24-.13v-2.59h-.24s-.07-.01-.09-.04c-.02-.03-.03-.07-.03-.14v-.07c0-.06 0-.11.03-.14.02-.03.05-.04.09-.04h.24v-.57c0-.32.08-.53.23-.65.16-.12.34-.18.54-.18.29 0 .44.06.44.18 0 .04-.01.1-.04.17-.02.07-.05.11-.09.11-.02 0-.05 0-.09-.01-.04 0-.1-.01-.17-.01-.1 0-.18.03-.24.09s-.08.18-.08.36v.52h1.45c.16 0 .24.04.24.13zm.02-1.17v.34c0 .1-.1.14-.29.14-.18 0-.26-.05-.26-.14v-.34c0-.1.1-.14.29-.14.18 0 .26.05.26.14zM250.34 45.37c-.16-.12-.24-.34-.24-.65v-1.91h-.3s-.07-.01-.09-.04c-.02-.03-.03-.07-.03-.14v-.07c0-.06.01-.11.03-.14s.05-.04.09-.04h.3l.07-.63c.01-.09.08-.13.19-.13h.06c.12 0 .18.04.18.13v.63h.5s.07.01.09.04c.02.03.03.07.03.14v.07c0 .06 0 .11-.03.14-.02.03-.05.04-.09.04h-.5v1.87c0 .17.03.28.09.35.06.06.14.1.24.1.08 0 .13 0 .17-.02.04 0 .07-.01.09-.01.04 0 .07.04.09.11.02.07.04.13.04.17 0 .12-.15.18-.44.18-.2 0-.38-.06-.54-.18zM253.63 45.16c-.24-.26-.37-.67-.37-1.24s.14-.98.41-1.22c.27-.24.61-.37 1.01-.37.23 0 .44.03.62.08.18.06.28.12.28.19 0 .05-.02.12-.07.2-.05.08-.09.12-.12.12h-.03c-.01 0-.02-.01-.04-.01-.22-.1-.43-.14-.65-.14-.58 0-.87.38-.87 1.15 0 .42.07.73.21.92.14.19.38.28.72.28.24 0 .47-.05.68-.16l.07-.02s.08.04.13.12.07.14.07.19-.04.09-.13.14-.2.08-.34.12c-.14.03-.3.05-.47.05-.5 0-.87-.13-1.11-.38zM256.57 45.29c-.17-.17-.26-.41-.26-.71V42.5c0-.09.08-.13.24-.13h.02c.16 0 .24.04.24.13v2.03c0 .18.05.33.16.43.11.1.26.15.45.15.14 0 .27-.04.4-.11s.25-.18.35-.31v-2.2c0-.09.08-.13.24-.13h.02c.16 0 .24.04.24.13v2.13c0 .26.01.45.04.57.02.11.04.18.04.19 0 .05-.04.08-.11.11-.08.02-.15.03-.21.03s-.1-.03-.12-.09a.664.664 0 01-.06-.2.49.49 0 00-.03-.13c-.13.14-.27.25-.44.33s-.33.12-.5.12c-.3 0-.54-.09-.72-.26zM259.74 45.39v-2.11c0-.26-.01-.45-.04-.57-.02-.11-.04-.18-.04-.19 0-.05.04-.08.11-.11.08-.02.15-.03.21-.03s.1.03.12.09c.03.06.05.12.06.18.01.06.02.11.03.13.21-.3.44-.45.7-.45.11 0 .2.02.26.07s.09.1.09.17-.01.14-.04.21c-.02.07-.05.11-.08.11-.02 0-.06-.01-.12-.03a.665.665 0 00-.21-.03c-.09 0-.18.03-.26.08s-.15.11-.21.18c-.06.06-.08.1-.08.11v2.2c0 .09-.08.13-.24.13h-.02c-.16 0-.24-.04-.24-.13zM262.51 45.43l-.97-2.89s-.02-.06-.02-.08c0-.07.09-.1.26-.1h.03c.14 0 .22.03.24.1l.61 1.91c.04.13.11.38.21.75h.02l.04-.18c.04-.23.09-.41.14-.56l.62-1.93c.02-.06.1-.1.25-.1h.02c.15 0 .22.03.22.1 0 .02 0 .05-.02.08l-.97 2.88c-.02.06-.1.1-.24.1h-.21c-.14 0-.22-.03-.24-.1zM265 45.16c-.24-.26-.36-.66-.36-1.19s.12-.94.35-1.21c.24-.28.58-.41 1.04-.41.41 0 .72.13.92.4.21.27.31.65.31 1.17 0 .04-.02.09-.07.15s-.09.1-.13.1h-1.9c.02.33.11.58.26.73s.37.23.67.23a1.418 1.418 0 00.73-.19c.08-.05.13-.06.14-.06.04 0 .08.04.13.12s.08.14.08.18c0 .05-.05.1-.15.17a1.835 1.835 0 01-.93.22c-.5 0-.87-.13-1.11-.39zm1.74-1.44c0-.63-.24-.95-.72-.95-.52 0-.8.32-.84.95h1.56zM267.85 42.89v-.4c0-.09.08-.13.24-.13h.1c.16 0 .24.04.24.13v.4c0 .09-.08.13-.24.13h-.1c-.16 0-.24-.04-.24-.13zm0 2.5v-.4c0-.09.08-.13.24-.13h.1c.16 0 .24.04.24.13v.4c0 .09-.08.13-.24.13h-.1c-.16 0-.24-.04-.24-.13zM271.69 45.94c-.08 0-.12-.03-.12-.1v-.29c-.27 0-.53-.05-.77-.14a.839.839 0 01-.3-.15c-.07-.06-.11-.11-.11-.15 0-.05.03-.11.08-.2s.1-.13.13-.13c.02 0 .06.02.13.07.12.07.25.13.38.18s.29.08.47.08v-1.55c-.24-.1-.44-.18-.58-.26-.14-.08-.27-.19-.37-.34-.1-.15-.16-.34-.16-.58 0-.29.1-.53.3-.73.2-.19.47-.31.81-.34v-.25c0-.06.04-.1.12-.1h.01c.07 0 .11.03.11.1v.24c.13 0 .27.02.42.05.15.03.27.07.37.12.11.05.16.11.16.17 0 .04-.03.11-.08.19s-.09.13-.12.13c-.02 0-.05-.01-.1-.04a.305.305 0 01-.09-.05 1.33 1.33 0 00-.57-.14v1.4c.24.09.44.17.59.25.15.08.28.2.39.36s.16.37.16.62c0 .34-.1.61-.31.82-.2.21-.48.33-.84.36v.3c0 .06-.04.1-.11.1zm-.12-4.19c-.18.03-.31.1-.41.21-.1.11-.15.26-.15.44 0 .16.05.28.14.38.1.1.24.18.42.26v-1.29zm.67 3.1a.73.73 0 00.17-.49c0-.17-.05-.31-.16-.42-.1-.11-.25-.2-.44-.29v1.43a.68.68 0 00.44-.25zM273.43 45.47s-.03-.07-.03-.14v-.07c0-.06 0-.11.03-.14.02-.03.05-.04.09-.04h1.04v-3.23l-1.06.18s-.07-.03-.09-.1a.747.747 0 01-.03-.2c0-.06.04-.1.11-.11l1.39-.31s.09.01.13.04.06.05.06.09v3.65h.89s.07.01.09.04c.02.03.03.07.03.14v.07c0 .06 0 .11-.03.14-.02.03-.05.04-.09.04h-2.44s-.07-.01-.09-.04zM277.27 45.32c-.2-.15-.37-.39-.49-.71-.12-.32-.19-.72-.19-1.19s.06-.87.19-1.19c.12-.32.29-.56.49-.71s.43-.23.68-.23.48.08.69.23.37.39.5.71c.12.32.19.72.19 1.19s-.06.87-.19 1.19c-.12.32-.29.56-.5.71-.21.15-.44.23-.69.23s-.48-.08-.68-.23zm1.11-.38c.13-.12.23-.3.31-.56s.12-.58.12-.97-.04-.72-.12-.98c-.08-.25-.18-.44-.31-.55-.13-.12-.27-.17-.43-.17s-.29.06-.42.17-.23.3-.31.55c-.08.26-.12.58-.12.98s.04.72.12.98.18.44.31.56c.13.11.27.17.42.17s.3-.06.43-.17zM279.69 46.19s-.05-.04-.05-.07c0-.02.02-.07.05-.14.14-.27.2-.58.2-.92 0-.06.02-.11.06-.14s.1-.05.18-.05h.05c.08 0 .13.01.18.04.04.03.06.07.06.12 0 .22-.04.42-.11.6s-.16.32-.25.42c-.1.1-.18.15-.25.15-.04 0-.08 0-.12-.02zM281.67 45.32c-.2-.15-.37-.39-.49-.71-.12-.32-.19-.72-.19-1.19s.06-.87.19-1.19c.12-.32.29-.56.49-.71s.43-.23.68-.23.48.08.69.23.37.39.5.71c.12.32.19.72.19 1.19s-.06.87-.19 1.19c-.12.32-.29.56-.5.71-.21.15-.44.23-.69.23s-.48-.08-.68-.23zm1.11-.38c.13-.12.23-.3.31-.56s.12-.58.12-.97-.04-.72-.12-.98c-.08-.25-.18-.44-.31-.55-.13-.12-.27-.17-.43-.17s-.29.06-.42.17-.23.3-.31.55c-.08.26-.12.58-.12.98s.04.72.12.98.18.44.31.56c.13.11.27.17.42.17s.3-.06.43-.17zM284.88 45.32c-.2-.15-.37-.39-.49-.71-.12-.32-.19-.72-.19-1.19s.06-.87.19-1.19c.12-.32.29-.56.49-.71s.43-.23.68-.23.48.08.69.23.37.39.5.71c.12.32.19.72.19 1.19s-.06.87-.19 1.19c-.12.32-.29.56-.5.71-.21.15-.44.23-.69.23s-.48-.08-.68-.23zm1.11-.38c.13-.12.23-.3.31-.56s.12-.58.12-.97-.04-.72-.12-.98c-.08-.25-.18-.44-.31-.55-.13-.12-.27-.17-.43-.17s-.29.06-.42.17-.23.3-.31.55c-.08.26-.12.58-.12.98s.04.72.12.98.18.44.31.56c.13.11.27.17.42.17s.3-.06.43-.17zM288.09 45.32c-.2-.15-.37-.39-.49-.71-.12-.32-.19-.72-.19-1.19s.06-.87.19-1.19c.12-.32.29-.56.49-.71s.43-.23.68-.23.48.08.69.23.37.39.5.71c.12.32.19.72.19 1.19s-.06.87-.19 1.19c-.12.32-.29.56-.5.71-.21.15-.44.23-.69.23s-.48-.08-.68-.23zm1.11-.38c.13-.12.23-.3.31-.56s.12-.58.12-.97-.04-.72-.12-.98c-.08-.25-.18-.44-.31-.55-.13-.12-.27-.17-.43-.17s-.29.06-.42.17-.23.3-.31.55c-.08.26-.12.58-.12.98s.04.72.12.98.18.44.31.56c.13.11.27.17.42.17s.3-.06.43-.17z"/><circle cx="223.26" cy="43.67" r="2.13" style="fill:#a1b0da"/></g><g><path d="M230.03 36.22v-3.96c0-.09.08-.13.24-.13h.05c.16 0 .24.04.24.13v3.96c0 .09-.08.13-.24.13h-.05c-.16 0-.24-.04-.24-.13zM231.83 36.33c-.15-.04-.26-.09-.35-.15-.09-.06-.13-.11-.13-.16 0-.04.03-.1.08-.18s.09-.12.13-.12c0 0 .05.02.11.07.07.04.15.08.25.12.1.04.21.05.34.05.39 0 .59-.16.59-.49 0-.14-.04-.24-.13-.32s-.24-.15-.47-.22c-.32-.09-.53-.21-.65-.34-.12-.14-.18-.32-.18-.56 0-.17.04-.32.13-.45s.2-.24.35-.31c.15-.07.32-.11.51-.11.2 0 .39.03.55.08.16.05.24.11.24.18 0 .05-.02.12-.07.2-.05.08-.09.12-.12.12-.01 0-.07-.03-.16-.08s-.22-.07-.39-.07c-.15 0-.28.03-.38.1-.1.07-.15.16-.15.28 0 .14.04.24.11.32.07.08.19.15.36.2.26.08.45.16.58.24.13.08.23.17.29.29.06.11.09.26.09.45s-.05.33-.14.48-.22.25-.38.34-.34.12-.54.12c-.17 0-.33-.02-.48-.06zM234.31 35.97c-.24-.27-.36-.67-.36-1.18s.12-.92.36-1.2c.24-.28.58-.42 1.03-.42s.78.14 1.01.42c.23.28.35.68.35 1.2s-.12.92-.34 1.19c-.23.27-.57.41-1.02.41s-.8-.14-1.04-.41zm1.67-.31c.14-.19.21-.48.21-.88s-.07-.7-.21-.89c-.14-.19-.36-.29-.65-.29s-.51.09-.64.29c-.14.19-.2.49-.2.89s.07.7.2.88c.14.19.35.29.64.29s.51-.09.65-.29zM237.55 37.46v-3.34c0-.26-.01-.45-.04-.57-.02-.11-.04-.18-.04-.19 0-.05.04-.08.11-.1.08-.02.15-.03.21-.03s.1.03.12.09c.03.06.05.12.06.18.01.06.02.11.03.13.29-.3.61-.45.95-.45.24 0 .45.07.63.21.17.14.31.33.4.57s.14.52.14.83c0 .34-.05.63-.15.87-.1.24-.25.42-.43.55-.18.12-.4.19-.64.19-.18 0-.33-.03-.46-.08s-.26-.13-.39-.23v1.39c0 .09-.08.13-.24.13h-.02c-.16 0-.24-.04-.24-.13zm1.85-1.81c.14-.19.2-.47.2-.83 0-.39-.06-.69-.19-.9s-.31-.32-.55-.32a.94.94 0 00-.42.11c-.14.07-.27.17-.39.31v1.64c.22.18.46.27.74.27.26 0 .46-.1.6-.29zM241.01 36.22v-2.11c0-.26-.01-.45-.04-.57-.02-.11-.04-.18-.04-.19 0-.05.04-.08.11-.1.08-.02.15-.03.21-.03s.1.03.12.09.05.12.06.18c.01.06.02.11.03.13.21-.3.44-.45.7-.45.11 0 .2.02.26.07s.09.1.09.17-.01.14-.04.21c-.02.07-.05.11-.08.11-.02 0-.06-.01-.12-.03a.665.665 0 00-.21-.03c-.09 0-.18.03-.26.08a.91.91 0 00-.21.18c-.06.06-.08.1-.08.11v2.2c0 .09-.08.13-.24.13h-.02c-.16 0-.24-.04-.24-.13zM243.35 35.97c-.24-.27-.36-.67-.36-1.18s.12-.92.36-1.2c.24-.28.58-.42 1.03-.42s.78.14 1.01.42c.23.28.35.68.35 1.2s-.12.92-.34 1.19c-.23.27-.57.41-1.02.41s-.8-.14-1.04-.41zm1.67-.31c.14-.19.21-.48.21-.88s-.07-.7-.21-.89c-.14-.19-.36-.29-.65-.29s-.51.09-.64.29c-.14.19-.2.49-.2.89s.07.7.2.88c.14.19.35.29.64.29s.51-.09.65-.29zM248.92 33.34v2.89c0 .09-.08.13-.24.13h-.02c-.16 0-.24-.04-.24-.13v-2.59h-1.18v2.59c0 .09-.08.13-.24.13h-.02c-.16 0-.24-.04-.24-.13v-2.59h-.24s-.07-.01-.09-.04c-.02-.03-.03-.07-.03-.14v-.07c0-.06 0-.11.03-.14.02-.03.05-.04.09-.04h.24v-.57c0-.32.08-.53.23-.65s.34-.18.54-.18c.29 0 .44.06.44.18 0 .04-.01.1-.04.17-.02.07-.05.11-.09.11-.02 0-.05 0-.09-.01a.718.718 0 00-.17-.02c-.1 0-.18.03-.24.09s-.08.18-.08.36v.52h1.45c.16 0 .24.04.24.13zm.02-1.17v.34c0 .1-.1.14-.29.14-.18 0-.26-.05-.26-.14v-.34c0-.1.1-.14.29-.14.18 0 .26.05.26.14zM250.34 36.19c-.16-.12-.24-.34-.24-.64v-1.91h-.3s-.07-.01-.09-.04-.03-.07-.03-.14v-.07c0-.06.01-.11.03-.14.02-.03.05-.04.09-.04h.3l.07-.63c.01-.09.08-.13.19-.13h.06c.12 0 .18.04.18.13v.63h.5s.07.01.09.04c.02.03.03.07.03.14v.07c0 .06 0 .11-.03.14-.02.03-.05.04-.09.04h-.5v1.87c0 .17.03.28.09.35.06.06.14.1.24.1.08 0 .13 0 .17-.01s.07-.01.09-.01c.04 0 .07.04.09.11.02.07.04.13.04.17 0 .12-.15.18-.44.18-.2 0-.38-.06-.54-.18zM253.63 35.99c-.24-.26-.37-.67-.37-1.24s.14-.98.41-1.22c.27-.24.61-.37 1.01-.37.23 0 .44.03.62.08.18.06.28.12.28.19 0 .05-.02.12-.07.2-.05.08-.09.12-.12.12h-.03c-.01 0-.02-.01-.04-.02-.22-.1-.43-.14-.65-.14-.58 0-.87.38-.87 1.15 0 .42.07.73.21.92.14.19.38.28.72.28.24 0 .47-.05.68-.16l.07-.02s.08.04.13.12.07.14.07.19-.04.1-.13.14-.2.08-.34.12c-.14.03-.3.05-.47.05-.5 0-.87-.13-1.11-.38zM256.57 36.12c-.17-.17-.26-.41-.26-.71v-2.08c0-.09.08-.13.24-.13h.02c.16 0 .24.04.24.13v2.03c0 .18.05.33.16.43.11.1.26.15.45.15.14 0 .27-.04.4-.11.13-.08.25-.18.35-.31v-2.2c0-.09.08-.13.24-.13h.02c.16 0 .24.04.24.13v2.13c0 .26.01.45.04.57.02.11.04.18.04.19 0 .05-.04.08-.11.1-.08.02-.15.03-.21.03s-.1-.03-.12-.09a.664.664 0 01-.06-.2l-.03-.13c-.13.14-.27.25-.44.33s-.33.12-.5.12c-.3 0-.54-.09-.72-.26zM259.74 36.22v-2.11c0-.26-.01-.45-.04-.57-.02-.11-.04-.18-.04-.19 0-.05.04-.08.11-.1.08-.02.15-.03.21-.03s.1.03.12.09.05.12.06.18c.01.06.02.11.03.13.21-.3.44-.45.7-.45.11 0 .2.02.26.07s.09.1.09.17-.01.14-.04.21c-.02.07-.05.11-.08.11-.02 0-.06-.01-.12-.03a.665.665 0 00-.21-.03c-.09 0-.18.03-.26.08a.91.91 0 00-.21.18c-.06.06-.08.1-.08.11v2.2c0 .09-.08.13-.24.13h-.02c-.16 0-.24-.04-.24-.13zM262.51 36.26l-.97-2.89s-.02-.06-.02-.08c0-.07.09-.1.26-.1h.03c.14 0 .22.03.24.1l.61 1.91c.04.13.11.38.21.75h.02l.04-.18c.04-.23.09-.41.14-.56l.62-1.93c.02-.06.1-.1.25-.1h.02c.15 0 .22.03.22.1 0 .02 0 .05-.02.08l-.97 2.88c-.02.06-.1.1-.24.1h-.21c-.14 0-.22-.03-.24-.1zM265 35.99c-.24-.26-.36-.66-.36-1.19s.12-.94.35-1.21c.24-.28.58-.41 1.04-.41.41 0 .72.13.92.4.21.27.31.66.31 1.17 0 .04-.02.09-.07.15s-.09.1-.13.1h-1.9c.02.33.11.58.26.73.15.16.37.23.67.23a1.418 1.418 0 00.73-.19c.08-.05.13-.06.14-.06.04 0 .08.04.13.12s.08.14.08.18c0 .05-.05.1-.15.17a1.835 1.835 0 01-.93.22c-.5 0-.87-.13-1.11-.39zm1.74-1.44c0-.63-.24-.95-.72-.95-.52 0-.8.32-.84.95h1.56zM267.85 33.72v-.4c0-.09.08-.13.24-.13h.1c.16 0 .24.04.24.13v.4c0 .09-.08.13-.24.13h-.1c-.16 0-.24-.04-.24-.13zm0 2.5v-.4c0-.09.08-.13.24-.13h.1c.16 0 .24.04.24.13v.4c0 .09-.08.13-.24.13h-.1c-.16 0-.24-.04-.24-.13zM271.69 36.77c-.08 0-.12-.03-.12-.1v-.29c-.27 0-.53-.05-.77-.14a.839.839 0 01-.3-.15c-.07-.06-.11-.11-.11-.15 0-.05.03-.11.08-.2s.1-.13.13-.13c.02 0 .06.02.13.07.12.07.25.13.38.18.13.05.29.08.47.08v-1.55c-.24-.1-.44-.18-.58-.26-.14-.08-.27-.19-.37-.34-.1-.15-.16-.35-.16-.58 0-.29.1-.53.3-.73.2-.19.47-.31.81-.34v-.25c0-.06.04-.1.12-.1h.01c.07 0 .11.03.11.1v.24c.13 0 .27.02.42.05.15.03.27.07.37.12.11.05.16.11.16.17 0 .04-.03.11-.08.19s-.09.13-.12.13c-.02 0-.05-.01-.1-.04a.305.305 0 01-.09-.05 1.33 1.33 0 00-.57-.14v1.4c.24.09.44.17.59.25.15.08.28.2.39.36.11.16.16.37.16.62 0 .34-.1.61-.31.82-.2.21-.48.33-.84.36v.3c0 .06-.04.1-.11.1zm-.12-4.19c-.18.03-.31.1-.41.21-.1.11-.15.26-.15.44 0 .16.05.28.14.38s.24.18.42.26v-1.29zm.67 3.1a.73.73 0 00.17-.49c0-.17-.05-.31-.16-.42-.1-.11-.25-.2-.44-.29v1.43a.68.68 0 00.44-.25zM274.01 36.32c-.18-.04-.33-.08-.44-.13-.11-.05-.16-.1-.16-.16s.03-.12.08-.19.1-.11.13-.11.08.02.17.05c.26.11.52.16.78.16.22 0 .42-.06.6-.19s.26-.34.26-.64-.08-.49-.23-.61c-.15-.12-.38-.18-.67-.18h-.2s-.07-.01-.09-.04c-.02-.03-.03-.07-.03-.14v-.07c0-.06 0-.11.03-.14.02-.03.05-.04.09-.04h.17c.19 0 .35-.04.46-.13s.2-.19.25-.31.08-.24.08-.35c0-.15-.05-.28-.16-.4s-.29-.18-.55-.18c-.17 0-.31.02-.42.05-.11.03-.21.07-.32.11-.07.03-.11.04-.13.04-.03 0-.07-.04-.12-.12s-.08-.14-.08-.19c0-.08.13-.16.38-.22s.48-.1.7-.1c.37 0 .66.09.88.27.22.18.33.44.33.79 0 .2-.06.37-.18.51s-.26.25-.44.32V34c.2.05.38.18.53.37s.23.44.23.73-.07.53-.2.71c-.13.19-.3.32-.51.41-.2.09-.41.13-.63.13s-.43-.02-.61-.05zM278.43 36.22v-.88h-1.82s-.06-.04-.1-.11a.534.534 0 01-.05-.2c0-.04 0-.06.01-.07l1.97-2.75c.04-.06.11-.08.2-.08h.1c.12 0 .18.04.18.13v2.65h.4s.08.01.09.04c.02.03.03.07.03.14v.07c0 .06 0 .11-.03.14-.02.03-.05.04-.09.04h-.4v.88c0 .09-.06.13-.18.13h-.14c-.12 0-.18-.04-.18-.13zm0-1.31v-1.76s0-.11.03-.19h-.02l-1.38 1.95h1.37zM279.69 37.02s-.05-.04-.05-.07c0-.02.02-.07.05-.14.14-.27.2-.58.2-.92 0-.06.02-.11.06-.14.04-.03.1-.05.18-.05h.05c.08 0 .13.02.18.04.04.03.06.07.06.12 0 .22-.04.42-.11.6s-.16.32-.25.42c-.1.1-.18.15-.25.15-.04 0-.08 0-.12-.02zM281.67 36.15c-.2-.15-.37-.39-.49-.71s-.19-.72-.19-1.19.06-.87.19-1.19c.12-.32.29-.56.49-.71.2-.15.43-.23.68-.23s.48.08.69.23c.21.15.37.39.5.71.12.32.19.72.19 1.19s-.06.87-.19 1.19-.29.56-.5.71-.44.23-.69.23-.48-.08-.68-.23zm1.11-.38c.13-.12.23-.3.31-.55s.12-.58.12-.98-.04-.72-.12-.97-.18-.44-.31-.55c-.13-.12-.27-.17-.43-.17s-.29.06-.42.17c-.13.11-.23.3-.31.55s-.12.58-.12.98.04.72.12.98.18.44.31.55.27.17.42.17.3-.06.43-.17zM284.88 36.15c-.2-.15-.37-.39-.49-.71s-.19-.72-.19-1.19.06-.87.19-1.19c.12-.32.29-.56.49-.71.2-.15.43-.23.68-.23s.48.08.69.23c.21.15.37.39.5.71.12.32.19.72.19 1.19s-.06.87-.19 1.19-.29.56-.5.71-.44.23-.69.23-.48-.08-.68-.23zm1.11-.38c.13-.12.23-.3.31-.55s.12-.58.12-.98-.04-.72-.12-.97-.18-.44-.31-.55c-.13-.12-.27-.17-.43-.17s-.29.06-.42.17c-.13.11-.23.3-.31.55s-.12.58-.12.98.04.72.12.98.18.44.31.55.27.17.42.17.3-.06.43-.17zM288.09 36.15c-.2-.15-.37-.39-.49-.71s-.19-.72-.19-1.19.06-.87.19-1.19c.12-.32.29-.56.49-.71.2-.15.43-.23.68-.23s.48.08.69.23c.21.15.37.39.5.71.12.32.19.72.19 1.19s-.06.87-.19 1.19-.29.56-.5.71-.44.23-.69.23-.48-.08-.68-.23zm1.11-.38c.13-.12.23-.3.31-.55s.12-.58.12-.98-.04-.72-.12-.97-.18-.44-.31-.55c-.13-.12-.27-.17-.43-.17s-.29.06-.42.17c-.13.11-.23.3-.31.55s-.12.58-.12.98.04.72.12.98.18.44.31.55.27.17.42.17.3-.06.43-.17z"/><circle cx="223.26" cy="34.5" r="2.13" style="fill:#5b73b8"/></g><g><path d="M230.03 27.05v-3.96c0-.09.08-.13.24-.13h.05c.16 0 .24.04.24.13v3.96c0 .09-.08.13-.24.13h-.05c-.16 0-.24-.04-.24-.13zM231.83 27.16c-.15-.04-.26-.09-.35-.15-.09-.06-.13-.11-.13-.16 0-.04.03-.1.08-.18s.09-.12.13-.12c0 0 .05.02.11.07.07.04.15.08.25.12.1.04.21.05.34.05.39 0 .59-.16.59-.49 0-.14-.04-.24-.13-.32s-.24-.15-.47-.22c-.32-.09-.53-.21-.65-.34-.12-.14-.18-.32-.18-.56 0-.17.04-.32.13-.45s.2-.24.35-.31c.15-.07.32-.11.51-.11.2 0 .39.03.55.08.16.05.24.11.24.18 0 .05-.02.12-.07.2-.05.08-.09.12-.12.12-.01 0-.07-.03-.16-.08s-.22-.07-.39-.07c-.15 0-.28.03-.38.1-.1.07-.15.16-.15.28 0 .14.04.24.11.32.07.08.19.15.36.2.26.08.45.16.58.24.13.08.23.17.29.29.06.11.09.26.09.45s-.05.33-.14.48-.22.25-.38.34-.34.12-.54.12c-.17 0-.33-.02-.48-.06zM234.31 26.8c-.24-.27-.36-.67-.36-1.18s.12-.92.36-1.2c.24-.28.58-.42 1.03-.42s.78.14 1.01.42c.23.28.35.68.35 1.2s-.12.92-.34 1.19c-.23.27-.57.41-1.02.41s-.8-.14-1.04-.41zm1.67-.31c.14-.19.21-.48.21-.88s-.07-.7-.21-.89c-.14-.19-.36-.29-.65-.29s-.51.09-.64.29c-.14.19-.2.49-.2.89s.07.7.2.88c.14.19.35.29.64.29s.51-.09.65-.29zM237.55 28.29v-3.34c0-.26-.01-.45-.04-.57-.02-.11-.04-.18-.04-.19 0-.05.04-.08.11-.1.08-.02.15-.03.21-.03s.1.03.12.09c.03.06.05.12.06.18.01.06.02.11.03.13.29-.3.61-.45.95-.45.24 0 .45.07.63.21.17.14.31.33.4.57s.14.52.14.83c0 .34-.05.63-.15.87-.1.24-.25.42-.43.55-.18.12-.4.19-.64.19-.18 0-.33-.03-.46-.08s-.26-.13-.39-.23v1.39c0 .09-.08.13-.24.13h-.02c-.16 0-.24-.04-.24-.13zm1.85-1.81c.14-.19.2-.47.2-.83 0-.39-.06-.69-.19-.9s-.31-.32-.55-.32a.94.94 0 00-.42.11c-.14.07-.27.17-.39.31v1.64c.22.18.46.27.74.27.26 0 .46-.1.6-.29zM241.01 27.05v-2.11c0-.26-.01-.45-.04-.57-.02-.11-.04-.18-.04-.19 0-.05.04-.08.11-.1.08-.02.15-.03.21-.03s.1.03.12.09.05.12.06.18c.01.06.02.11.03.13.21-.3.44-.45.7-.45.11 0 .2.02.26.07s.09.1.09.17-.01.14-.04.21c-.02.07-.05.11-.08.11-.02 0-.06-.01-.12-.03a.665.665 0 00-.21-.03c-.09 0-.18.03-.26.08a.91.91 0 00-.21.18c-.06.06-.08.1-.08.11v2.2c0 .09-.08.13-.24.13h-.02c-.16 0-.24-.04-.24-.13zM243.35 26.8c-.24-.27-.36-.67-.36-1.18s.12-.92.36-1.2c.24-.28.58-.42 1.03-.42s.78.14 1.01.42c.23.28.35.68.35 1.2s-.12.92-.34 1.19c-.23.27-.57.41-1.02.41s-.8-.14-1.04-.41zm1.67-.31c.14-.19.21-.48.21-.88s-.07-.7-.21-.89c-.14-.19-.36-.29-.65-.29s-.51.09-.64.29c-.14.19-.2.49-.2.89s.07.7.2.88c.14.19.35.29.64.29s.51-.09.65-.29zM248.92 24.16v2.89c0 .09-.08.13-.24.13h-.02c-.16 0-.24-.04-.24-.13v-2.59h-1.18v2.59c0 .09-.08.13-.24.13h-.02c-.16 0-.24-.04-.24-.13v-2.59h-.24s-.07-.01-.09-.04c-.02-.03-.03-.07-.03-.14v-.07c0-.06 0-.11.03-.14.02-.03.05-.04.09-.04h.24v-.57c0-.32.08-.53.23-.65s.34-.18.54-.18c.29 0 .44.06.44.18 0 .04-.01.1-.04.17-.02.07-.05.11-.09.11-.02 0-.05 0-.09-.01a.718.718 0 00-.17-.02c-.1 0-.18.03-.24.09s-.08.18-.08.36v.52h1.45c.16 0 .24.04.24.13zm.02-1.17v.34c0 .1-.1.14-.29.14-.18 0-.26-.05-.26-.14v-.34c0-.1.1-.14.29-.14.18 0 .26.05.26.14zM250.34 27.02c-.16-.12-.24-.34-.24-.64v-1.91h-.3s-.07-.01-.09-.04-.03-.07-.03-.14v-.07c0-.06.01-.11.03-.14.02-.03.05-.04.09-.04h.3l.07-.63c.01-.09.08-.13.19-.13h.06c.12 0 .18.04.18.13v.63h.5s.07.01.09.04c.02.03.03.07.03.14v.07c0 .06 0 .11-.03.14-.02.03-.05.04-.09.04h-.5v1.87c0 .17.03.28.09.35.06.06.14.1.24.1.08 0 .13 0 .17-.01s.07-.01.09-.01c.04 0 .07.04.09.11.02.07.04.13.04.17 0 .12-.15.18-.44.18-.2 0-.38-.06-.54-.18zM253.63 26.82c-.24-.26-.37-.67-.37-1.24s.14-.98.41-1.22c.27-.24.61-.37 1.01-.37.23 0 .44.03.62.08.18.06.28.12.28.19 0 .05-.02.12-.07.2-.05.08-.09.12-.12.12h-.03c-.01 0-.02-.01-.04-.02-.22-.1-.43-.14-.65-.14-.58 0-.87.38-.87 1.15 0 .42.07.73.21.92.14.19.38.28.72.28.24 0 .47-.05.68-.16l.07-.02s.08.04.13.12.07.14.07.19-.04.1-.13.14-.2.08-.34.12c-.14.03-.3.05-.47.05-.5 0-.87-.13-1.11-.38zM256.57 26.95c-.17-.17-.26-.41-.26-.71v-2.08c0-.09.08-.13.24-.13h.02c.16 0 .24.04.24.13v2.03c0 .18.05.33.16.43.11.1.26.15.45.15.14 0 .27-.04.4-.11.13-.08.25-.18.35-.31v-2.2c0-.09.08-.13.24-.13h.02c.16 0 .24.04.24.13v2.13c0 .26.01.45.04.57.02.11.04.18.04.19 0 .05-.04.08-.11.1-.08.02-.15.03-.21.03s-.1-.03-.12-.09a.664.664 0 01-.06-.2l-.03-.13c-.13.14-.27.25-.44.33s-.33.12-.5.12c-.3 0-.54-.09-.72-.26zM259.74 27.05v-2.11c0-.26-.01-.45-.04-.57-.02-.11-.04-.18-.04-.19 0-.05.04-.08.11-.1.08-.02.15-.03.21-.03s.1.03.12.09.05.12.06.18c.01.06.02.11.03.13.21-.3.44-.45.7-.45.11 0 .2.02.26.07s.09.1.09.17-.01.14-.04.21c-.02.07-.05.11-.08.11-.02 0-.06-.01-.12-.03a.665.665 0 00-.21-.03c-.09 0-.18.03-.26.08a.91.91 0 00-.21.18c-.06.06-.08.1-.08.11v2.2c0 .09-.08.13-.24.13h-.02c-.16 0-.24-.04-.24-.13zM262.51 27.09l-.97-2.89s-.02-.06-.02-.08c0-.07.09-.1.26-.1h.03c.14 0 .22.03.24.1l.61 1.91c.04.13.11.38.21.75h.02l.04-.18c.04-.23.09-.41.14-.56l.62-1.93c.02-.06.1-.1.25-.1h.02c.15 0 .22.03.22.1 0 .02 0 .05-.02.08l-.97 2.88c-.02.06-.1.1-.24.1h-.21c-.14 0-.22-.03-.24-.1zM265 26.81c-.24-.26-.36-.66-.36-1.19s.12-.94.35-1.21c.24-.28.58-.41 1.04-.41.41 0 .72.13.92.4.21.27.31.66.31 1.17 0 .04-.02.09-.07.15s-.09.1-.13.1h-1.9c.02.33.11.58.26.73.15.16.37.23.67.23a1.418 1.418 0 00.73-.19c.08-.05.13-.06.14-.06.04 0 .08.04.13.12s.08.14.08.18c0 .05-.05.1-.15.17a1.835 1.835 0 01-.93.22c-.5 0-.87-.13-1.11-.39zm1.74-1.44c0-.63-.24-.95-.72-.95-.52 0-.8.32-.84.95h1.56zM267.85 24.55v-.4c0-.09.08-.13.24-.13h.1c.16 0 .24.04.24.13v.4c0 .09-.08.13-.24.13h-.1c-.16 0-.24-.04-.24-.13zm0 2.5v-.4c0-.09.08-.13.24-.13h.1c.16 0 .24.04.24.13v.4c0 .09-.08.13-.24.13h-.1c-.16 0-.24-.04-.24-.13zM271.69 27.6c-.08 0-.12-.03-.12-.1v-.29c-.27 0-.53-.05-.77-.14a.839.839 0 01-.3-.15c-.07-.06-.11-.11-.11-.15 0-.05.03-.11.08-.2s.1-.13.13-.13c.02 0 .06.02.13.07.12.07.25.13.38.18.13.05.29.08.47.08v-1.55c-.24-.1-.44-.18-.58-.26-.14-.08-.27-.19-.37-.34-.1-.15-.16-.35-.16-.58 0-.29.1-.53.3-.73.2-.19.47-.31.81-.34v-.25c0-.06.04-.1.12-.1h.01c.07 0 .11.03.11.1v.24c.13 0 .27.02.42.05.15.03.27.07.37.12.11.05.16.11.16.17 0 .04-.03.11-.08.19s-.09.13-.12.13c-.02 0-.05-.01-.1-.04a.305.305 0 01-.09-.05 1.33 1.33 0 00-.57-.14v1.4c.24.09.44.17.59.25.15.08.28.2.39.36.11.16.16.37.16.62 0 .34-.1.61-.31.82-.2.21-.48.33-.84.36v.3c0 .06-.04.1-.11.1zm-.12-4.19c-.18.03-.31.1-.41.21-.1.11-.15.26-.15.44 0 .16.05.28.14.38s.24.18.42.26v-1.29zm.67 3.1a.73.73 0 00.17-.49c0-.17-.05-.31-.16-.42-.1-.11-.25-.2-.44-.29v1.43a.68.68 0 00.44-.25zM273.78 26.81c-.22-.26-.32-.63-.32-1.12 0-.53.12-1 .38-1.41.25-.41.53-.73.85-.97.32-.23.56-.35.72-.35.06 0 .1.04.14.12.04.08.06.15.06.2 0 .03-.02.05-.05.07-.4.16-.72.38-.96.66-.25.27-.42.59-.52.94.23-.13.5-.2.81-.2.21 0 .4.05.58.15.17.1.31.24.41.43.1.18.15.4.15.64s-.06.47-.17.66c-.11.19-.27.34-.46.44-.2.1-.42.15-.66.15-.42 0-.74-.13-.95-.39zm1.33-.13a.783.783 0 00.41-.71c0-.27-.08-.47-.23-.61a.834.834 0 00-.56-.2c-.26 0-.51.07-.75.2-.02.16-.02.28-.02.36 0 .38.08.65.23.8a.776.776 0 00.92.14zM277.27 26.97c-.2-.15-.37-.39-.49-.71s-.19-.72-.19-1.19.06-.87.19-1.19c.12-.32.29-.56.49-.71.2-.15.43-.23.68-.23s.48.08.69.23c.21.15.37.39.5.71.12.32.19.72.19 1.19s-.06.87-.19 1.19-.29.56-.5.71-.44.23-.69.23-.48-.08-.68-.23zm1.11-.38c.13-.12.23-.3.31-.55s.12-.58.12-.98-.04-.72-.12-.97-.18-.44-.31-.55c-.13-.12-.27-.17-.43-.17s-.29.06-.42.17c-.13.11-.23.3-.31.55s-.12.58-.12.98.04.72.12.98.18.44.31.55.27.17.42.17.3-.06.43-.17zM279.69 27.84s-.05-.04-.05-.07c0-.02.02-.07.05-.14.14-.27.2-.58.2-.92 0-.06.02-.11.06-.14.04-.03.1-.05.18-.05h.05c.08 0 .13.02.18.04.04.03.06.07.06.12 0 .22-.04.42-.11.6s-.16.32-.25.42c-.1.1-.18.15-.25.15-.04 0-.08 0-.12-.02zM281.67 26.97c-.2-.15-.37-.39-.49-.71s-.19-.72-.19-1.19.06-.87.19-1.19c.12-.32.29-.56.49-.71.2-.15.43-.23.68-.23s.48.08.69.23c.21.15.37.39.5.71.12.32.19.72.19 1.19s-.06.87-.19 1.19-.29.56-.5.71-.44.23-.69.23-.48-.08-.68-.23zm1.11-.38c.13-.12.23-.3.31-.55s.12-.58.12-.98-.04-.72-.12-.97-.18-.44-.31-.55c-.13-.12-.27-.17-.43-.17s-.29.06-.42.17c-.13.11-.23.3-.31.55s-.12.58-.12.98.04.72.12.98.18.44.31.55.27.17.42.17.3-.06.43-.17zM284.88 26.97c-.2-.15-.37-.39-.49-.71s-.19-.72-.19-1.19.06-.87.19-1.19c.12-.32.29-.56.49-.71.2-.15.43-.23.68-.23s.48.08.69.23c.21.15.37.39.5.71.12.32.19.72.19 1.19s-.06.87-.19 1.19-.29.56-.5.71-.44.23-.69.23-.48-.08-.68-.23zm1.11-.38c.13-.12.23-.3.31-.55s.12-.58.12-.98-.04-.72-.12-.97-.18-.44-.31-.55c-.13-.12-.27-.17-.43-.17s-.29.06-.42.17c-.13.11-.23.3-.31.55s-.12.58-.12.98.04.72.12.98.18.44.31.55.27.17.42.17.3-.06.43-.17zM288.09 26.97c-.2-.15-.37-.39-.49-.71s-.19-.72-.19-1.19.06-.87.19-1.19c.12-.32.29-.56.49-.71.2-.15.43-.23.68-.23s.48.08.69.23c.21.15.37.39.5.71.12.32.19.72.19 1.19s-.06.87-.19 1.19-.29.56-.5.71-.44.23-.69.23-.48-.08-.68-.23zm1.11-.38c.13-.12.23-.3.31-.55s.12-.58.12-.98-.04-.72-.12-.97-.18-.44-.31-.55c-.13-.12-.27-.17-.43-.17s-.29.06-.42.17c-.13.11-.23.3-.31.55s-.12.58-.12.98.04.72.12.98.18.44.31.55.27.17.42.17.3-.06.43-.17z"/><circle cx="223.26" cy="25.33" r="2.13" style="fill:#273a71"/></g></g></svg>