<svg version="1.1" xmlns="http://www.w3.org/2000/svg" x="0" y="0" viewBox="0 0 311.81 233.74" style="enable-background:new 0 0 311.81 233.74" xml:space="preserve"><line style="fill:none;stroke:#6d6e71;stroke-width:.5;stroke-linecap:square" x1="30" y1="209.33" x2="302" y2="209.33"/><line style="fill:none;stroke:#6d6e71;stroke-width:.5;stroke-linecap:square;stroke-linejoin:round" x1="30" y1="6.72" x2="30" y2="208.72"/><line style="fill:none;stroke:#6d6e71;stroke-width:.5;stroke-linecap:square;stroke-linejoin:round" x1="29.84" y1="73.76" x2="27.72" y2="73.76"/><text transform="translate(21.665 211.48)" style="font-family:'Asap-Regular';font-size:7px">0</text><text transform="translate(13.61 177.156)" style="font-family:'Asap-Regular';font-size:7px">100</text><text transform="translate(13.61 143.742)" style="font-family:'Asap-Regular';font-size:7px">200</text><text transform="translate(13.61 109.655)" style="font-family:'Asap-Regular';font-size:7px">300</text><text transform="translate(13.61 76.046)" style="font-family:'Asap-Regular';font-size:7px">400</text><text transform="translate(13.61 42.046)" style="font-family:'Asap-Regular';font-size:7px">500</text><text transform="translate(13.61 8.403)" style="font-family:'Asap-Regular';font-size:7px">600</text><text transform="matrix(0 -.9726 1 0 8.33 167.485)" style="font-family:'Asap-Medium';font-size:8px">Consumption spending (€)</text><text transform="translate(28.128 218.665)" style="font-family:'Asap-Regular';font-size:7px">8</text><text transform="translate(45.222 218.657)" style="font-family:'Asap-Regular';font-size:7px">9</text><text transform="translate(60.222 218.664)" style="font-family:'Asap-Regular';font-size:7px">10</text><text transform="translate(77.278 218.636)" style="font-family:'Asap-Regular';font-size:7px">11</text><text transform="translate(94.286 218.664)" style="font-family:'Asap-Regular';font-size:7px">12</text><text transform="translate(111.35 218.664)" style="font-family:'Asap-Regular';font-size:7px">13</text><text transform="translate(128.302 218.635)" style="font-family:'Asap-Regular';font-size:7px">14</text><text transform="translate(145.31 218.636)" style="font-family:'Asap-Regular';font-size:7px">15</text><text transform="translate(162.318 218.636)" style="font-family:'Asap-Regular';font-size:7px">16</text><text transform="translate(179.493 218.636)" style="font-family:'Asap-Regular';font-size:7px">17</text><text transform="translate(196.064 218.664)" style="font-family:'Asap-Regular';font-size:7px">18</text><text transform="translate(213.342 218.656)" style="font-family:'Asap-Regular';font-size:7px">19</text><text transform="translate(230.35 218.664)" style="font-family:'Asap-Regular';font-size:7px">20</text><text transform="translate(247.357 218.664)" style="font-family:'Asap-Regular';font-size:7px">21</text><text transform="translate(264.493 218.664)" style="font-family:'Asap-Regular';font-size:7px">22</text><text transform="translate(281.373 218.664)" style="font-family:'Asap-Regular';font-size:7px">23</text><text transform="translate(297.493 218.664)" style="font-family:'Asap-Regular';font-size:7px">24</text><line style="fill:none;stroke:#6d6e71;stroke-width:.5;stroke-linecap:square" x1="285.12" y1="209.72" x2="285.12" y2="211.75"/><line style="fill:none;stroke:#6d6e71;stroke-width:.5;stroke-linecap:square" x1="268.11" y1="209.62" x2="268.11" y2="211.75"/><line style="fill:none;stroke:#6d6e71;stroke-width:.5;stroke-linecap:square" x1="251.1" y1="209.57" x2="251.1" y2="211.7"/><line style="fill:none;stroke:#6d6e71;stroke-width:.5;stroke-linecap:square" x1="200.08" y1="209.57" x2="200.08" y2="211.7"/><line style="fill:none;stroke:#6d6e71;stroke-width:.5;stroke-linecap:square" x1="302.13" y1="209.57" x2="302.13" y2="211.7"/><line style="fill:none;stroke:#6d6e71;stroke-width:.5;stroke-linecap:square" x1="183.07" y1="209.57" x2="183.07" y2="211.7"/><line style="fill:none;stroke:#6d6e71;stroke-width:.5;stroke-linecap:square" x1="165.5" y1="209.57" x2="165.5" y2="211.7"/><line style="fill:none;stroke:#6d6e71;stroke-width:.5;stroke-linecap:square" x1="149.06" y1="209.43" x2="149.06" y2="211.55"/><line style="fill:none;stroke:#6d6e71;stroke-width:.5;stroke-linecap:square" x1="132.05" y1="209.43" x2="132.05" y2="211.55"/><line style="fill:none;stroke:#6d6e71;stroke-width:.5;stroke-linecap:square" x1="115.04" y1="209.43" x2="115.04" y2="211.55"/><line style="fill:none;stroke:#6d6e71;stroke-width:.5;stroke-linecap:square" x1="98.03" y1="209.43" x2="98.03" y2="211.55"/><line style="fill:none;stroke:#6d6e71;stroke-width:.5;stroke-linecap:square" x1="81.02" y1="209.43" x2="81.02" y2="211.55"/><line style="fill:none;stroke:#6d6e71;stroke-width:.5;stroke-linecap:square" x1="64.02" y1="209.43" x2="64.02" y2="211.55"/><line style="fill:none;stroke:#6d6e71;stroke-width:.5;stroke-linecap:square" x1="47.01" y1="209.43" x2="47.01" y2="211.55"/><text transform="translate(100.45 229.362)" style="font-family:'Asap-Medium';font-size:8px">Hours of free time per day</text><line style="fill:none;stroke:#6d6e71;stroke-width:.5;stroke-linecap:square;stroke-linejoin:round" x1="29.84" y1="141.26" x2="27.72" y2="141.26"/><line style="fill:none;stroke:#6d6e71;stroke-width:.5;stroke-linecap:square;stroke-linejoin:round" x1="29.84" y1="107.51" x2="27.72" y2="107.51"/><line style="fill:none;stroke:#6d6e71;stroke-width:.5;stroke-linecap:square;stroke-linejoin:round" x1="29.84" y1="175.01" x2="27.72" y2="175.01"/><line style="fill:none;stroke:#6d6e71;stroke-width:.5;stroke-linecap:square;stroke-linejoin:round" x1="29.84" y1="40.01" x2="27.72" y2="40.01"/><line style="fill:none;stroke:#6d6e71;stroke-width:.5;stroke-linecap:square" x1="234.09" y1="209.57" x2="234.09" y2="211.7"/><line style="fill:none;stroke:#6d6e71;stroke-width:.5;stroke-linecap:square" x1="217.09" y1="209.57" x2="217.09" y2="211.7"/><line style="fill:none;stroke:#6d6e71;stroke-width:.5;stroke-linecap:square" x1="30" y1="209.27" x2="30" y2="211.4"/><line style="fill:none;stroke:#6d6e71;stroke-width:.5;stroke-linecap:square" x1="27.72" y1="6.26" x2="29.84" y2="6.26"/><line style="fill:none;stroke:#6d6e71;stroke-width:.5;stroke-linecap:square" x1="27.72" y1="209.33" x2="29.84" y2="209.33"/><path style="fill:none;stroke:#3c54a4;stroke-width:.5;stroke-miterlimit:10" d="M123.81 6.09c5.81 30.75 24.22 68.04 46.12 89.55 23.02 22.61 50.52 40.82 80.55 52.69 18.41 7.28 31.05 11.47 50.89 12.2"/><line style="fill:none;stroke:#ea2728;stroke-width:.5;stroke-linejoin:round" x1="29.63" y1="53.33" x2="301.37" y2="208.93"/><text transform="translate(170.274 148.803)" style="font-family:'Asap-Regular';font-size:7.5609px">E</text><path style="fill:none;stroke:#3c54a4;stroke-width:.5;stroke-miterlimit:10" d="M93.54 6.09c6.54 95.89 106.56 170.64 207.83 166.08"/><line style="fill:none;stroke:#ea2728;stroke-width:.5;stroke-linejoin:round" x1="66.28" y1="6.89" x2="301.37" y2="208.93"/><circle style="fill:#000101" cx="189.53" cy="112.23" r="1.13"/><circle style="fill:#000101" cx="183.53" cy="141.31" r="1.13"/><text transform="translate(190.84 107.509)" style="font-family:'Asap-Regular';font-size:7.5609px">F</text></svg>