<svg version="1.1" xmlns="http://www.w3.org/2000/svg" x="0" y="0" viewBox="0 0 311.81 243.78" style="enable-background:new 0 0 311.81 243.78" xml:space="preserve"><text transform="translate(168.512 151.737)" style="font-family:'Asap-Regular';font-size:6px">A</text><polygon style="fill:#fee6da;stroke:#fee6da;stroke-width:.5;stroke-linecap:square" points="102.76 75.67 207.05 177.53 102.76 177.53"/><line style="fill:none;stroke:#6d6e70;stroke-width:.5;stroke-linecap:square" x1="102.44" y1="177.27" x2="102.44" y2="179.51"/><line style="fill:none;stroke:#6d6e70;stroke-width:.5;stroke-linecap:square" x1="100.19" y1="177.27" x2="102.44" y2="177.27"/><line style="fill:none;stroke:#6d6e70;stroke-width:.5;stroke-linecap:square" x1="102.44" y1="156.89" x2="100.19" y2="156.89"/><line style="fill:none;stroke:#6d6e70;stroke-width:.5;stroke-linecap:square" x1="102.44" y1="136.52" x2="100.19" y2="136.52"/><line style="fill:none;stroke:#6d6e70;stroke-width:.5;stroke-linecap:square" x1="102.44" y1="116.15" x2="100.19" y2="116.15"/><line style="fill:none;stroke:#6d6e70;stroke-width:.5;stroke-linecap:square" x1="102.44" y1="95.78" x2="100.19" y2="95.78"/><line style="fill:none;stroke:#6d6e70;stroke-width:.5;stroke-linecap:square" x1="100.19" y1="75.4" x2="102.44" y2="75.4"/><line style="fill:none;stroke:#6d6e70;stroke-width:.5;stroke-linecap:square" x1="102.44" y1="55.03" x2="100.19" y2="55.03"/><line style="fill:none;stroke:#6d6e70;stroke-width:.5;stroke-linecap:square" x1="227.58" y1="177.27" x2="227.58" y2="179.51"/><line style="fill:none;stroke:#6d6e70;stroke-width:.5;stroke-linecap:square" x1="185.87" y1="177.27" x2="185.87" y2="179.51"/><line style="fill:none;stroke:#6d6e70;stroke-width:.5;stroke-linecap:square" x1="165.01" y1="177.27" x2="165.01" y2="179.51"/><line style="fill:none;stroke:#6d6e70;stroke-width:.5;stroke-linecap:square" x1="144.15" y1="177.27" x2="144.15" y2="179.51"/><line style="fill:none;stroke:#6d6e70;stroke-width:.5;stroke-linecap:square" x1="123.29" y1="177.27" x2="123.29" y2="179.51"/><text transform="translate(109.361 148.48)" style="font-family:'Asap-Regular';font-size:6px">Feasible set</text><path style="fill:none;stroke:#3a53a4;stroke-width:.5" d="M168.51 49.36a449.525 449.525 0 003.32 13.78c.4 1.56 1.06 4.11 1.99 7.46.67 2.42 1.18 4.23 1.83 6.32 1.04 3.37 1.95 5.78 3.49 9.89 1.09 2.92 1.77 4.75 2.82 7.3.91 2.2 2.1 5.09 3.82 8.59 2.48 5.06 4.75 8.78 5.65 10.21 2.48 3.98 4.6 6.84 5.31 7.78 1.81 2.41 3.38 4.26 4.32 5.35 1.18 1.37 2.77 3.19 4.98 5.35 2.82 2.75 5.14 4.56 7.8 6.65 2.29 1.79 3.78 2.95 5.98 4.38 2.87 1.86 5.43 3.17 7.31 4.05"/><path style="fill:none;stroke:#3a53a4;stroke-width:.5;stroke-miterlimit:10" d="M149.33 49.36c.26 2.06.63 4.88 1.15 8.21.37 2.41 1.06 6.62 2.46 13.69 1.33 6.69 2.17 10.95 3.61 16.75 1.6 6.47 3.04 12.2 5.74 19.48 1.76 4.74 3.76 9.07 4.76 11.27 1.78 3.92 2.68 5.62 2.95 6.12 2.32 4.32 4.56 7.48 5.58 8.86 1.87 2.54 5.18 6.99 10.66 11.59 3.49 2.93 6.89 4.94 10.17 6.92 2.29 1.39 3.68 2.12 4.26 2.42 3.22 1.66 5.74 2.57 8.85 3.7 2.32.84 5.37 1.87 9.02 2.9"/><path style="fill:none;stroke:#000;stroke-width:.5;stroke-miterlimit:10" d="M143.86 49.36c.29 3.3.71 7.45 1.31 12.25 1.05 8.41 2.14 14.68 2.41 16.19.84 4.79 1.94 10.93 3.94 18.82 1.47 5.8 3.07 12.02 6.13 19.91 2.2 5.69 4.21 10.82 8.1 17.07 2.15 3.46 4.95 7.9 9.85 12.69 5.28 5.16 10.32 8.04 13.13 9.63 5.27 2.98 9.58 4.49 10.5 4.81 2.48.86 4.6 1.4 7.66 2.19 3.49.9 6.43 1.54 8.53 1.97"/><text transform="translate(134.258 40.033)" style="font-family:'Asap-Medium';font-size:8px">Altruistic preferences</text><text transform="translate(138.83 207.276)" style="font-family:'Asap-Medium';font-size:8px">Amount for Zoë (£)</text><text transform="translate(83.308 57.314)" style="font-family:'Asap-Regular';font-size:7px">240</text><text transform="translate(83.308 77.7)" style="font-family:'Asap-Regular';font-size:7px">200</text><text transform="translate(83.308 98.088)" style="font-family:'Asap-Regular';font-size:7px">160</text><text transform="translate(83.308 118.474)" style="font-family:'Asap-Regular';font-size:7px">120</text><text transform="translate(87.155 138.862)" style="font-family:'Asap-Regular';font-size:7px">80</text><text transform="translate(87.154 159.249)" style="font-family:'Asap-Regular';font-size:7px">40</text><text transform="translate(91.004 179.636)" style="font-family:'Asap-Regular';font-size:7px">0</text><text transform="translate(100.62 190.278)" style="font-family:'Asap-Regular';font-size:7px">0</text><text transform="translate(118.862 190.278)" style="font-family:'Asap-Regular';font-size:7px">40</text><text transform="translate(139.851 190.278)" style="font-family:'Asap-Regular';font-size:7px">80</text><text transform="translate(158.839 190.278)" style="font-family:'Asap-Regular';font-size:7px">120</text><text transform="translate(179.573 190.278)" style="font-family:'Asap-Regular';font-size:7px">160</text><text transform="translate(200.305 190.278)" style="font-family:'Asap-Regular';font-size:7px">200</text><text transform="translate(222.038 190.278)" style="font-family:'Asap-Regular';font-size:7px">240</text><text transform="rotate(-90 107.173 39.907)" style="font-family:'Asap-Medium';font-size:8px">Amount for Yvonne (£)</text><text transform="translate(105.354 52.372)"><tspan x="0" y="0" style="font-family:'Asap-Regular';font-size:6px">Feasible </tspan><tspan x="1.74" y="7.2" style="font-family:'Asap-Regular';font-size:6px">frontier</tspan><tspan x=".75" y="14.4" style="font-family:'Asap-Regular';font-size:6px">(budget </tspan><tspan x="-2.5" y="21.6" style="font-family:'Asap-Regular';font-size:6px">constraint)</tspan></text><g style="opacity:.5"><line style="fill:none;stroke:#939598;stroke-width:.5;stroke-linecap:square" x1="117.29" y1="86.73" x2="117.29" y2="76.62"/><polygon style="fill:#939598" points="119.34 85.07 118.97 84.73 117.29 86.54 115.62 84.73 115.25 85.07 117.29 87.27"/></g><line style="fill:none;stroke:#ed1f24;stroke-width:.4994;stroke-linecap:square" x1="102.44" y1="75.67" x2="206.72" y2="177.27"/><circle style="fill:#231f20" cx="175.39" cy="146.09" r="1.13"/><path style="fill:none;stroke:#3a53a4;stroke-width:.5" d="M130.94 49.36c.22 4.41.57 10.29 1.16 17.2.44 5.2 1.12 13.09 2.55 23.39.27 1.97 1.42 10.15 3.47 20.87 2.2 11.52 3.67 16.69 4.86 20.41 1.42 4.45 2.23 6.96 3.93 10.32 1.48 2.92 4.52 8.79 10.64 14.22 3.57 3.17 7.06 5.17 9.26 6.42 3.06 1.74 5.55 2.82 6.48 3.21 4.32 1.82 8.17 2.81 12.5 3.67 10.35 2.07 20.8 2.89 25.68 3.21"/><line style="fill:none;stroke:#6d6e70;stroke-width:.5;stroke-linecap:square" x1="102.44" y1="177.27" x2="102.44" y2="50.06"/><line style="fill:none;stroke:#6d6e70;stroke-width:.5;stroke-linecap:square" x1="102.44" y1="177.27" x2="232.62" y2="177.27"/><line style="fill:none;stroke:#6d6e70;stroke-width:.5;stroke-linecap:square" x1="206.72" y1="177.27" x2="206.72" y2="179.51"/><text transform="translate(175.793 143.969)" style="font-family:'Asap-Regular';font-size:6px">A</text></svg>