<svg version="1.1" xmlns="http://www.w3.org/2000/svg" x="0" y="0" viewBox="0 0 311.81 205.92" style="enable-background:new 0 0 311.81 205.92" xml:space="preserve"><polygon style="fill:#d5daef" points="56 9.12 56.37 122.76 283.85 27.36 283.85 9.12"/><line style="fill:none;stroke:#6d6e71;stroke-width:.5;stroke-linecap:square" x1="56.37" y1="175.71" x2="283.85" y2="175.71"/><line style="fill:none;stroke:#6d6e71;stroke-width:.5;stroke-linecap:square;stroke-linejoin:round" x1="56" y1="175.71" x2="53.88" y2="175.71"/><line style="fill:none;stroke:#6d6e71;stroke-width:.5;stroke-linecap:square;stroke-linejoin:round" x1="56" y1="151.91" x2="53.88" y2="151.91"/><line style="fill:none;stroke:#6d6e71;stroke-width:.5;stroke-linecap:square;stroke-linejoin:round" x1="56" y1="128.11" x2="53.88" y2="128.11"/><line style="fill:none;stroke:#6d6e71;stroke-width:.5;stroke-linecap:square;stroke-linejoin:round" x1="56" y1="104.32" x2="53.88" y2="104.32"/><line style="fill:none;stroke:#6d6e71;stroke-width:.5;stroke-linecap:square;stroke-linejoin:round" x1="56" y1="80.52" x2="53.88" y2="80.52"/><line style="fill:none;stroke:#6d6e71;stroke-width:.5;stroke-linecap:square;stroke-linejoin:round" x1="56" y1="56.72" x2="53.88" y2="56.72"/><line style="fill:none;stroke:#6d6e71;stroke-width:.5;stroke-linecap:square;stroke-linejoin:round" x1="56" y1="32.92" x2="53.88" y2="32.92"/><line style="fill:none;stroke:#6d6e71;stroke-width:.5;stroke-linecap:square;stroke-linejoin:round" x1="56" y1="9.12" x2="53.88" y2="9.12"/><text transform="translate(38.184 177.208)" style="font-family:'Asap-Regular';font-size:7.7421px">500</text><text transform="translate(38.184 106.672)" style="font-family:'Asap-Regular';font-size:7.7421px">650</text><text transform="translate(38.184 83.16)" style="font-family:'Asap-Regular';font-size:7.7421px">700</text><text transform="translate(38.184 59.648)" style="font-family:'Asap-Regular';font-size:7.7421px">750</text><text transform="translate(38.185 36.135)" style="font-family:'Asap-Regular';font-size:7.7421px">800</text><text transform="translate(38.185 12.623)" style="font-family:'Asap-Regular';font-size:7.7421px">850</text><text transform="matrix(0 -.934 1 0 26.8 106.871)"><tspan x="0" y="0" style="font-family:'Asap-Medium';font-size:8px">Wage,</tspan><tspan x="21.68" y="0" style="font-family:'Asap-Regular';font-size:8px"> </tspan><tspan x="23.6" y="0" style="font-family:'Asap-MediumItalic';font-size:8px">w</tspan></text><text transform="translate(54.115 186.591)" style="font-family:'Asap-Regular';font-size:7px">0</text><text transform="translate(80.726 186.583)" style="font-family:'Asap-Regular';font-size:7px">10</text><text transform="translate(109.209 186.59)" style="font-family:'Asap-Regular';font-size:7px">20</text><text transform="translate(137.692 186.563)" style="font-family:'Asap-Regular';font-size:7px">30</text><text transform="translate(166.175 186.59)" style="font-family:'Asap-Regular';font-size:7px">40</text><text transform="translate(194.657 186.591)" style="font-family:'Asap-Regular';font-size:7px">50</text><text transform="translate(251.623 186.562)" style="font-family:'Asap-Regular';font-size:7px">70</text><text transform="translate(223.14 186.563)" style="font-family:'Asap-Regular';font-size:7px">60</text><text transform="translate(280.106 186.563)" style="font-family:'Asap-Regular';font-size:7px">80</text><line style="fill:none;stroke:#6d6e71;stroke-width:.5;stroke-linecap:square" x1="56" y1="175.83" x2="56" y2="177.96"/><line style="fill:none;stroke:#6d6e71;stroke-width:.5;stroke-linecap:square" x1="84.48" y1="175.83" x2="84.48" y2="177.96"/><line style="fill:none;stroke:#6d6e71;stroke-width:.5;stroke-linecap:square" x1="112.96" y1="175.83" x2="112.96" y2="177.96"/><line style="fill:none;stroke:#6d6e71;stroke-width:.5;stroke-linecap:square" x1="141.44" y1="175.83" x2="141.44" y2="177.96"/><line style="fill:none;stroke:#6d6e71;stroke-width:.5;stroke-linecap:square" x1="169.93" y1="175.83" x2="169.93" y2="177.96"/><line style="fill:none;stroke:#6d6e71;stroke-width:.5;stroke-linecap:square" x1="198.41" y1="175.83" x2="198.41" y2="177.96"/><line style="fill:none;stroke:#6d6e71;stroke-width:.5;stroke-linecap:square" x1="226.89" y1="175.83" x2="226.89" y2="177.96"/><line style="fill:none;stroke:#6d6e71;stroke-width:.5;stroke-linecap:square" x1="255.37" y1="175.83" x2="255.37" y2="177.96"/><line style="fill:none;stroke:#6d6e71;stroke-width:.5;stroke-linecap:square" x1="283.85" y1="175.71" x2="283.85" y2="177.84"/><text transform="translate(145.052 199.51)"><tspan x="0" y="0" style="font-family:'Asap-Medium';font-size:8px">Employment, </tspan><tspan x="48.3" y="0" style="font-family:'Asap-MediumItalic';font-size:8px">N</tspan></text><text transform="translate(38.185 130.184)" style="font-family:'Asap-Regular';font-size:7.7421px">600</text><text transform="translate(38.185 153.696)" style="font-family:'Asap-Regular';font-size:7.7421px">550</text><line style="fill:none;stroke:#6d6e71;stroke-width:.5;stroke-linecap:square;stroke-linejoin:round" x1="56" y1="9.12" x2="56" y2="175.38"/><text transform="rotate(-23.142 311.24 -475.844)" style="font-family:'Asap-Regular';font-size:6px">Reservation wage curve</text><line style="fill:none;stroke:#009147;stroke-width:.5;stroke-linecap:square;stroke-linejoin:round" x1="56" y1="151.91" x2="283.85" y2="56.72"/><polyline style="fill:none;stroke:#939598;stroke-width:.5;stroke-linecap:square;stroke-linejoin:round;stroke-dasharray:1.417" points="56 75.24 169.93 75.24 169.93 176.77"/><line style="fill:none;stroke:#f15a27;stroke-width:.5;stroke-linecap:square;stroke-linejoin:round" x1="56.37" y1="122.76" x2="283.85" y2="27.36"/><text transform="rotate(-23.142 238.35 -490.769)" style="font-family:'Asap-Regular';font-size:6px">No-shirking wage curve</text><text transform="translate(285.308 44.571)" style="font-family:'Asap-Regular';font-size:7px">€60</text><text transform="translate(73.242 30.67)" style="font-family:'Asap-Regular';font-size:6px">Feasible set</text><line style="fill:none;stroke:#3a53a4;stroke-width:.5;stroke-miterlimit:10" x1="280.46" y1="31.21" x2="280.46" y2="56.18"/><polygon style="fill:#3a53a4" points="278.42 32.87 278.78 33.21 280.46 31.4 282.14 33.21 282.51 32.87 280.46 30.67"/><polygon style="fill:#3a53a4" points="278.42 54.52 278.78 54.18 280.46 55.99 282.14 54.18 282.51 54.52 280.46 56.72"/><polyline style="fill:none;stroke:#939598;stroke-width:.5;stroke-linecap:square;stroke-linejoin:round;stroke-dasharray:1.417" points="56 63.36 169.93 63.36 169.93 75.06"/><line style="fill:none;stroke:#939598;stroke-width:.5;stroke-linecap:square;stroke-linejoin:round;stroke-dasharray:1.417" x1="169.93" y1="63.36" x2="198.68" y2="63.36"/><circle cx="169.93" cy="63.36" r="1.13"/><circle cx="169.93" cy="75.24" r="1.13"/><circle cx="198.68" cy="63.36" r="1.13"/></svg>