<svg version="1.1" xmlns="http://www.w3.org/2000/svg" x="0" y="0" viewBox="0 0 311.81 191.68" style="enable-background:new 0 0 311.81 191.68" xml:space="preserve"><line style="fill:none;stroke:#000;stroke-width:.5;stroke-linecap:square;stroke-linejoin:round" x1="73.47" y1="125.24" x2="241.58" y2="23.88"/><line style="fill:none;stroke:#6d6e71;stroke-width:.5;stroke-linecap:square" x1="73.47" y1="23.88" x2="73.47" y2="152.24"/><line style="fill:none;stroke:#6d6e71;stroke-width:.5;stroke-linecap:square" x1="241.58" y1="152.24" x2="73.91" y2="152.24"/><rect x="49.77" y="122.78" style="fill:none" width="21.98" height="5.93"/><text transform="translate(54.201 127.293)" style="font-family:'Asap-Regular';font-size:6px">€550</text><rect x="221.6" y="38.78" style="fill:none" width="49.14" height="16.26"/><text transform="translate(221.601 43.296)"><tspan x="0" y="0" style="font-family:'Asap-Regular';font-size:6px">Hi</tspan><tspan x="5.99" y="0" style="font-family:'Asap-Regular';font-size:6px">r</tspan><tspan x="8.06" y="0" style="font-family:'Asap-Regular';font-size:6px">es per</tspan><tspan x="0" y="7.2" style="font-family:'Asap-Regular';font-size:6px">we</tspan><tspan x="7.6" y="7.2" style="font-family:'Asap-Regular';font-size:6px">ek</tspan></text><rect x="92.15" y="173.06" style="fill:none" width="128.84" height="17.51"/><text transform="translate(108.114 179.081)"><tspan x="0" y="0" style="font-family:'Asap-Medium';font-size:8px">A</tspan><tspan x="4.9" y="0" style="font-family:'Asap-Medium';font-size:8px">v</tspan><tspan x="8.7" y="0" style="font-family:'Asap-Medium';font-size:8px">e</tspan><tspan x="13.02" y="0" style="font-family:'Asap-Medium';font-size:8px">r</tspan><tspan x="15.78" y="0" style="font-family:'Asap-Medium';font-size:8px">a</tspan><tspan x="20.14" y="0" style="font-family:'Asap-Medium';font-size:8px">g</tspan><tspan x="24.35" y="0" style="font-family:'Asap-Medium';font-size:8px">e number of </tspan><tspan x="69.06" y="0" style="font-family:'Asap-Medium';font-size:8px">w</tspan><tspan x="74.96" y="0" style="font-family:'Asap-Medium';font-size:8px">or</tspan><tspan x="82.44" y="0" style="font-family:'Asap-Medium';font-size:8px">k</tspan><tspan x="86.37" y="0" style="font-family:'Asap-Medium';font-size:8px">ers</tspan><tspan x="3.25" y="9.6" style="font-family:'Asap-Medium';font-size:8px">arriving/</tspan><tspan x="33.78" y="9.6" style="font-family:'Asap-Medium';font-size:8px">l</tspan><tspan x="35.9" y="9.6" style="font-family:'Asap-Medium';font-size:8px">eaving per </tspan><tspan x="75.06" y="9.6" style="font-family:'Asap-Medium';font-size:8px">we</tspan><tspan x="85.18" y="9.6" style="font-family:'Asap-Medium';font-size:8px">ek</tspan></text><text transform="rotate(-90 70.958 38.548)"><tspan x="0" y="0" style="font-family:'Asap-Medium';font-size:8px">W</tspan><tspan x="6.96" y="0" style="font-family:'Asap-Medium';font-size:8px">e</tspan><tspan x="11.19" y="0" style="font-family:'Asap-Medium';font-size:8px">ek</tspan><tspan x="19.67" y="0" style="font-family:'Asap-Medium';font-size:8px">l</tspan><tspan x="21.97" y="0" style="font-family:'Asap-Medium';font-size:8px">y </tspan><tspan x="27.74" y="0" style="font-family:'Asap-Medium';font-size:8px">w</tspan><tspan x="33.63" y="0" style="font-family:'Asap-Medium';font-size:8px">a</tspan><tspan x="37.99" y="0" style="font-family:'Asap-Medium';font-size:8px">g</tspan><tspan x="42.2" y="0" style="font-family:'Asap-Medium';font-size:8px">e, </tspan><tspan x="50.02" y="0" style="font-family:'Asap-MediumItalic';font-size:8px">w</tspan></text><line style="fill:none;stroke:#6d6e71;stroke-width:.5;stroke-linecap:square;stroke-linejoin:round" x1="73.47" y1="125.24" x2="71.34" y2="125.24"/></svg>