<svg xmlns="http://www.w3.org/2000/svg" class="prefix__svglite" viewBox="0 0 810 530"><rect width="100%" height="100%" style="stroke:none;fill:#fff;stroke-linecap:round;stroke-linejoin:round;stroke-miterlimit:10"/><defs><clipPath id="prefix__a"><rect x="0" y="0" width="810" height="530" style="fill:none;stroke:#000;stroke-linecap:round;stroke-linejoin:round;stroke-miterlimit:10"/></clipPath></defs><g clip-path="url(#prefix__a)"><rect x="0" y="0" width="810" height="530" style="stroke-width:1.07;stroke:#fff;fill:#fff;stroke-linecap:round;stroke-linejoin:round;stroke-miterlimit:10"/></g><defs><clipPath id="prefix__b"><rect x="93.36" y="14.17" width="632.92" height="434.92" style="fill:none;stroke:#000;stroke-linecap:round;stroke-linejoin:round;stroke-miterlimit:10"/></clipPath></defs><g clip-path="url(#prefix__b)"><rect x="93.36" y="14.17" width="632.92" height="434.92" style="stroke-width:1.07;stroke:none;fill:#fff;stroke-linecap:round;stroke-linejoin:round;stroke-miterlimit:10"/><polyline points="93.36 449.09 726.28 449.09" style="stroke-width:1.07;stroke:#c6c4c4;stroke-linecap:butt;fill:none;stroke-linejoin:round;stroke-miterlimit:10"/><polyline points="93.36 340.36 726.28 340.36" style="stroke-width:1.07;stroke:#c6c4c4;stroke-linecap:butt;fill:none;stroke-linejoin:round;stroke-miterlimit:10"/><polyline points="93.36 231.63 726.28 231.63" style="stroke-width:1.07;stroke:#c6c4c4;stroke-linecap:butt;fill:none;stroke-linejoin:round;stroke-miterlimit:10"/><polyline points="93.36 122.9 726.28 122.9" style="stroke-width:1.07;stroke:#c6c4c4;stroke-linecap:butt;fill:none;stroke-linejoin:round;stroke-miterlimit:10"/><polyline points="93.36 14.17 726.28 14.17" style="stroke-width:1.07;stroke:#c6c4c4;stroke-linecap:butt;fill:none;stroke-linejoin:round;stroke-miterlimit:10"/><polyline points="-55.47 436.7 -54.61 436.6 -53.76 436.5 -52.9 436.41 -52.05 436.31 -51.19 436.21 -50.34 436.12 -49.48 436.02 -48.62 435.92 -47.77 435.83 -46.91 435.73 -46.06 435.63 -45.2 435.54 -44.35 435.44 -43.49 435.34 -42.64 435.25 -41.78 435.15 -40.93 435.05 -40.07 434.95 -39.22 434.86 -38.36 434.76 -37.51 434.66 -36.65 434.57 -35.8 434.47 -34.94 434.37 -34.08 434.28 -33.23 434.18 -32.37 434.08 -31.52 433.99 -30.66 433.89 -29.81 433.79 -28.95 433.7 -28.1 433.6 -27.24 433.5 -26.39 433.4 -25.53 433.31 -24.68 433.21 -23.82 433.11 -22.97 433.02 -22.11 432.92 -21.26 432.82 -20.4 432.73 -19.54 432.63 -18.69 432.53 -17.83 432.44 -16.98 432.34 -16.12 432.24 -15.27 432.14 -14.41 432.05 -13.56 431.95 -12.7 431.85 -11.85 431.76 -10.99 431.66 -10.14 431.56 -9.28 431.47 -8.43 431.37 -7.57 431.27 -6.72 431.18 -5.86 431.08 -5 430.98 -4.15 430.89 -3.29 430.79 -2.44 430.69 -1.58 430.59 -.73 430.5 .13 430.4 .98 430.3 1.84 430.21 2.69 430.11 3.55 430.01 4.4 429.92 5.26 429.82 6.11 429.72 6.97 429.63 7.83 429.53 8.68 429.43 9.54 429.34 10.39 429.24 11.25 429.14 12.1 429.04 12.96 428.95 13.81 428.85 14.67 428.75 15.52 428.66 16.38 428.56 17.23 428.46 18.09 428.37 18.94 428.27 19.8 428.17 20.65 428.08 21.51 427.98 22.37 427.88 23.22 427.79 24.08 427.69 24.93 427.59 25.79 427.49 26.64 427.4 27.5 427.3 28.35 427.2 29.21 427.11 30.06 427.01 30.92 426.91 31.77 426.82 32.63 426.72 33.48 426.62 34.34 426.41 35.19 426.2 36.05 425.99 36.91 425.78 37.76 425.57 38.62 425.36 39.47 425.15 40.33 424.94 41.18 424.73 42.04 424.52 42.89 424.31 43.75 424.1 44.6 423.89 45.46 423.68 46.31 423.47 47.17 423.26 48.02 423.05 48.88 422.84 49.73 422.63 50.59 422.42 51.45 422.21 52.3 422 53.16 421.79 54.01 421.58 54.87 421.37 55.72 421.16 56.58 420.95 57.43 420.74 58.29 420.53 59.14 420.32 60 420.25 60.85 420.19 61.71 420.13 62.56 420.07 63.42 420 64.27 419.94 65.13 419.88 65.99 419.81 66.84 419.75 67.7 419.69 68.55 419.63 69.41 419.56 70.26 419.5 71.12 419.44 71.97 419.37 72.83 419.31 73.68 419.25 74.54 419.19 75.39 419.12 76.25 419.06 77.1 419 77.96 418.93 78.82 418.87 79.67 418.81 80.53 418.75 81.38 418.68 82.24 418.62 83.09 418.56 83.95 418.49 84.8 418.43 85.66 418.38 86.51 418.33 87.37 418.28 88.22 418.23 89.08 418.18 89.93 418.13 90.79 418.08 91.64 418.03 92.5 417.98 93.36 417.93 94.21 417.88 95.07 417.83 95.92 417.78 96.78 417.73 97.63 417.68 98.49 417.63 99.34 417.58 100.2 417.53 101.05 417.48 101.91 417.43 102.76 417.38 103.62 417.33 104.47 417.28 105.33 417.23 106.18 417.18 107.04 417.13 107.9 417.08 108.75 417.03 109.61 416.98 110.46 416.77 111.32 416.56 112.17 416.35 113.03 416.14 113.88 415.93 114.74 415.72 115.59 415.51 116.45 415.29 117.3 415.08 118.16 414.87 119.01 414.66 119.87 414.68 120.72 414.7 121.58 414.71 122.44 414.73 123.29 414.75 124.15 414.77 125 414.78 125.86 414.8 126.71 414.82 127.57 414.84 128.42 414.85 129.28 414.87 130.13 414.89 130.99 414.91 131.84 414.92 132.7 414.94 133.55 414.96 134.41 414.98 135.27 414.99 136.12 415.01 136.98 415.03 137.83 415.05 138.69 415.06 139.54 415.08 140.4 415.1 141.25 415.51 142.11 415.92 142.96 416.34 143.82 416.75 144.67 417.16 145.53 417.58 146.38 417.99 147.24 418.4 148.09 418.82 148.95 419.23 149.81 419.01 150.66 418.79 151.52 418.58 152.37 418.36 153.23 418.14 154.08 417.92 154.94 417.71 155.79 417.49 156.65 417.27 157.5 417.05 158.36 416.84 159.21 416.62 160.07 416.4 160.92 416.18 161.78 415.97 162.63 415.75 163.49 415.53 164.35 415.31 165.2 415.1 166.06 414.88 166.91 414.66 167.77 414.44 168.62 414.23 169.48 419.57 170.33 424.91 171.19 430.25 172.04 430.27 172.9 430.3 173.75 430.33 174.61 430.36 175.46 430.39 176.32 430.41 177.17 430.44 178.03 430.47 178.89 430.5 179.74 430.53 180.6 430.55 181.45 430.58 182.31 430.61 183.16 430.64 184.02 430.67 184.87 430.69 185.73 430.72 186.58 430.75 187.44 430.78 188.29 430.8 189.15 430.83 190 430.86 190.86 430.89 191.71 430.92 192.57 430.94 193.43 430.97 194.28 431.1 195.14 431.24 195.99 431.37 196.85 431.5 197.7 431.63 198.56 431.77 199.41 431.9 200.27 432.03 201.12 432.16 201.98 432.3 202.83 432.43 203.69 432.56 204.54 432.69 205.4 432.83 206.26 432.96 207.11 433.09 207.97 433.22 208.82 433.35 209.68 433.49 210.53 433.62 211.39 433.75 212.24 433.88 213.1 434.02 213.95 434.03 214.81 434.05 215.66 434.06 216.52 434.07 217.37 434.09 218.23 434.1 219.08 434.12 219.94 434.13 220.8 434.15 221.65 434.16 222.51 434.18 223.36 434.19 224.22 434.2 225.07 434.22 225.93 434.23 226.78 434.25 227.64 434.26 228.49 434.28 229.35 434.29 230.2 434.31 231.06 434.32 231.91 434.34 232.77 434.35 233.62 434.36 234.48 434.38 235.34 434.39 236.19 434.41 237.05 434.42 237.9 434.44 238.76 434.45 239.61 434.49 240.47 434.54 241.32 434.58 242.18 434.63 243.03 434.67 243.89 434.71 244.74 434.76 245.6 434.8 246.45 434.84 247.31 434.89 248.16 434.93 249.02 434.97 249.88 435.02 250.73 435.06 251.59 435.1 252.44 435.15 253.3 435.19 254.15 435.23 255.01 435.28 255.86 435.32 256.72 435.28 257.57 435.23 258.43 435.19 259.28 435.14 260.14 435.09 260.99 435.05 261.85 435 262.7 434.96 263.56 434.91 264.42 434.87 265.27 434.82 266.13 434.78 266.98 434.73 267.84 434.69 268.69 434.64 269.55 434.6 270.4 434.55 271.26 434.51 272.11 434.46 272.97 434.41 273.82 434.37 274.68 434.32 275.53 434.28 276.39 434.23 277.25 434.19 278.1 434.14 278.96 434.1 279.81 434.05 280.67 434.01 281.52 433.96 282.38 433.92 283.23 433.87 284.09 433.83 284.94 433.78 285.8 433.74 286.65 433.69 287.51 433.64 288.36 433.6 289.22 433.55 290.07 433.51 290.93 433.46 291.79 433.42 292.64 433.37 293.5 433.33 294.35 433.28 295.21 433.24 296.06 433.19 296.92 433.15 297.77 433.1 298.63 433.06 299.48 433.01 300.34 432.97 301.19 432.92 302.05 432.87 302.9 432.83 303.76 432.78 304.61 432.74 305.47 432.69 306.33 432.65 307.18 432.6 308.04 432.56 308.89 432.51 309.75 432.47 310.6 432.42 311.46 432.38 312.31 432.33 313.17 432.29 314.02 432.24 314.88 432.2 315.73 432.15 316.59 432.1 317.44 432.06 318.3 431.88 319.15 431.69 320.01 431.51 320.87 431.33 321.72 431.14 322.58 430.96 323.43 430.78 324.29 430.59 325.14 430.41 326 430.23 326.85 430.04 327.71 429.86 328.56 429.68 329.42 429.5 330.27 429.31 331.13 429.13 331.98 428.95 332.84 428.76 333.69 428.58 334.55 428.31 335.41 428.05 336.26 427.78 337.12 427.52 337.97 427.25 338.83 426.99 339.68 426.72 340.54 426.45 341.39 426.19 342.25 425.92 343.1 425.66 343.96 425.39 344.81 425.13 345.67 424.86 346.52 424.59 347.38 424.33 348.24 424.06 349.09 423.8 349.95 423.53 350.8 423.27 351.66 423 352.51 422.73 353.37 422.47 354.22 422.2 355.08 421.94 355.93 421.67 356.79 421.4 357.64 421.14 358.5 420.87 359.35 420.61 360.21 420.34 361.06 420.08 361.92 419.81 362.78 419.54 363.63 419.28 364.49 419.01 365.34 418.75 366.2 418.48 367.05 418.22 367.91 417.95 368.76 417.68 369.62 417.42 370.47 417.15 371.33 416.89 372.18 416.62 373.04 416.36 373.89 416.09 374.75 415.82 375.6 415.56 376.46 415.29 377.32 415.03 378.17 414.76 379.03 414.5 379.88 414.23 380.74 413.96 381.59 413.7 382.45 413.43 383.3 413.17 384.16 412.9 385.01 412.64 385.87 412.37 386.72 412.1 387.58 411.84 388.43 411.57 389.29 411.31 390.14 411.04 391 410.78 391.86 410.51 392.71 410.24 393.57 409.98 394.42 409.71 395.28 409.45 396.13 409.18 396.99 408.92 397.84 408.65 398.7 408.38 399.55 408.12 400.41 407.85 401.26 407.59 402.12 407.32 402.97 407.05 403.83 406.79 404.68 406.52 405.54 406.26 406.4 405.99 407.25 405.73 408.11 405.46 408.96 405.19 409.82 404.93 410.67 404.66 411.53 404.4 412.38 404.13 413.24 403.87 414.09 403.6 414.95 403.33 415.8 403.07 416.66 402.8 417.51 402.54 418.37 402.27 419.23 402.01 420.08 401.74 420.94 401.47 421.79 401.21 422.65 400.94 423.5 400.68 424.36 400.41 425.21 400.15 426.07 399.88 426.92 399.61 427.78 399.35 428.63 399.08 429.49 398.82 430.34 398.55 431.2 398.29 432.05 398.02 432.91 397.75 433.77 397.49 434.62 397.22 435.48 396.96 436.33 396.69 437.19 396.43 438.04 396.16 438.9 395.89 439.75 395.63 440.61 395.36 441.46 395.1 442.32 394.83 443.17 394.57 444.03 394.3 444.88 394.03 445.74 393.77 446.59 393.5 447.45 393.24 448.31 392.97 449.16 392.71 450.02 392.44 450.87 392.17 451.73 391.91 452.58 391.64 453.44 391.38 454.29 391.11 455.15 390.84 456 390.58 456.86 390.31 457.71 390.05 458.57 389.78 459.42 389.52 460.28 389.25 461.13 388.98 461.99 388.72 462.85 388.45 463.7 388.19 464.56 387.92 465.41 387.66 466.27 387.39 467.12 387.12 467.98 386.86 468.83 386.85 469.69 386.33 470.54 385.94 471.4 385.49 472.25 384.94 473.11 384.63 473.96 384.48 474.82 384.27 475.68 384.03 476.53 383.8 477.39 383.65 478.24 383.47 479.1 383.54 479.95 383.67 480.81 383.56 481.66 383.32 482.52 383.24 483.37 382.84 484.23 382.38 485.08 381.93 485.94 381.48 486.79 381.7 487.65 381.78 488.5 381.72 489.36 381.46 490.22 381.22 491.07 380.97 491.93 380.39 492.78 379.98 493.64 380.65 494.49 381.75 495.35 382.57 496.2 382.62 497.06 382.33 497.91 381.97 498.77 381.27 499.62 380.67 500.48 380.12 501.33 379.69 502.19 379.38 503.04 378.93 503.9 378.55 504.76 378.38 505.61 379.11 506.47 379.14 507.32 378.65 508.18 377.93 509.03 377.49 509.89 377.16 510.74 377 511.6 376.53 512.45 376.05 513.31 375.6 514.16 375.14 515.02 374.61 515.87 374.08 516.73 373.58 517.58 372.98 518.44 372.67 519.3 372.48 520.15 372.21 521.01 371.76 521.86 371.23 522.72 370.94 523.57 371.12 524.43 370.74 525.28 370.14 526.14 369.79 526.99 369.6 527.85 369.4 528.7 368.89 529.56 368.34 530.41 367.84 531.27 367.23 532.12 366.6 532.98 366.02 533.84 365.15 534.69 364.37 535.55 363.56 536.4 362.67 537.26 361.87 538.11 361.41 538.97 360.46 539.82 359.78 540.68 359.62 541.53 358.77 542.39 357.93 543.24 356.96 544.1 355.88 544.95 354.93 545.81 353.67 546.67 352.58 547.52 351.37 548.38 350.25 549.23 349.22 550.09 348.34 550.94 347.19 551.8 346.17 552.65 344.82 553.51 343.62 554.36 342.38 555.22 341.73 556.07 341 556.93 340.11 557.78 338.86 558.64 337.33 559.49 335.64 560.35 334 561.21 332.4 562.06 330.88 562.92 329.34 563.77 327.82 564.63 326.23 565.48 324.36 566.34 322.37 567.19 320.37 568.05 318.23 568.9 316.02 569.76 313.91 570.61 311.83 571.47 309.85 572.32 307.74 573.18 305.39 574.03 302.96 574.89 300.59 575.75 298.37 576.6 296.27 577.46 294.25 578.31 292.24 579.17 290.01 580.02 287.84 580.88 285.73 581.73 283.74 582.59 282.04 583.44 280.32 584.3 278.59 585.15 276.84 586.01 275.06 586.86 273.35 587.72 271.62 588.57 269.86 589.43 268.09 590.29 266.34 591.14 264.49 592 262.9 592.85 261.05 593.71 259.32 594.56 257.76 595.42 258.8 596.27 261.74 597.13 263.46 597.98 265.14 598.84 266.74 599.69 265.85 600.55 264.69 601.4 263.35 602.26 261.65 603.11 259.74 603.97 258.34 604.83 256.74 605.68 255.13 606.54 253.59 607.39 251.97 608.25 250.12 609.1 248.57 609.96 247.13 610.81 245.46 611.67 243.93 612.52 242.19 613.38 240.34 614.23 238.43 615.09 236.58 615.94 234.66 616.8 233.38 617.66 231.33 618.51 229.13 619.37 226.85 620.22 224.41 621.08 221.86 621.93 219.45 622.79 216.93 623.64 214.77 624.5 212.66 625.35 210.83 626.21 209.18 627.06 207.32 627.92 205.35 628.77 203.33 629.63 201.41 630.48 199.49 631.34 197.48 632.2 195.4 633.05 193.26 633.91 191.01 634.76 188.61 635.62 186.1 636.47 183.65 637.33 181.1 638.18 178.47 639.04 175.8 639.89 173.15 640.75 170.56 641.6 167.98 642.46 165.57 643.31 163.18 644.17 160.71 645.02 158.21 645.88 155.64 646.74 153.09 647.59 150.47 648.45 147.8 649.3 145.11 650.16 142.73 651.01 141.66 651.87 140.16 652.72 137.44 653.58 135.47 654.43 134.3 655.29 133.62 656.14 133.89 657 134.16 657.85 132.22 658.71 129.63 659.56 127.46 660.42 125.83 661.28 123.52 662.13 122.48 662.99 121.22 663.84 120.08 664.7 118.71 665.55 118.03 666.41 116.63 667.26 115.12 668.12 113.23 668.97 111.89 669.83 110.83 670.68 109.36 671.54 107.82 672.39 106.31 673.25 104.83 674.1 101.22 674.96 99.52 675.82 99.59 676.67 98.26 677.53 95.44 678.38 93.79 679.24 92.59 680.09 94.35 680.95 91.81 681.8 88.6 682.66 86.46 683.51 84.63 684.37 84.57 685.22 83.39 686.08 82.36 686.93 81.11 687.79 79.8 688.65 78.08 689.5 76.29 690.36 74.68 691.21 72.48 692.07 69.46 692.92 66.31 693.78 62.8 694.63 60.38 695.49 57.73 696.34 55.13 697.2 53 698.05 50.71 698.91 48.87 699.76 47.07 700.62 45.84 701.47 43.69 702.33 42.46 703.19 41.55 704.04 41.46 704.9 41.53 705.75 41.6 706.61 41.79 707.46 41.88 708.32 41.43 709.17 40.78 710.03 40.57 710.88 41.06 711.74 40.88 712.59 40.2 713.45 39.15 714.3 38.21 715.16 37.34 716.01 36.53 716.87 35.36 717.73 34.19 718.58 32.74 719.44 31.68 720.29 30.74 721.15 29.67 722 28.49 722.86 27.48 723.71 26.39 724.57 25.23 725.42 23.71 726.28 22.25 727.13 20.6 727.99 18.77 728.84 16.8 729.7 14.54 730.55 11.18 731.41 8.18 732.27 4.61 733.12 .95 733.98 -2.21 734.83 -5.83 735.69 -9.64 736.54 -12.68 737.4 -15.59 738.25 -19.15 739.11 -22.77" style="stroke-width:1.07;stroke:#3a53a4;stroke-linecap:butt;fill:none;stroke-linejoin:round;stroke-miterlimit:10"/><polyline points="100.2 413.75 101.05 414.94 101.91 415.89 102.76 416.94 103.62 417.75 104.47 417.64 105.33 418.25 106.18 417.64 107.04 417.46 107.9 417.46 108.75 417.09 109.61 416.66 110.46 416.88 111.32 416.93 112.17 417.3 113.03 418.22 113.88 417.99 114.74 417.85 115.59 417.23 116.45 415.21 117.3 413.48 118.16 412.89 119.01 413.88 119.87 414.4 120.72 416.29 121.58 418.52 122.44 420.7 123.29 420.64 124.15 420.28 125 420.32 125.86 419.44 126.71 418.6 127.57 418 128.42 417.58 129.28 416.87 130.13 415.86 130.99 415.12 131.84 414.34 132.7 413.72 133.55 413.35 134.41 414.35 135.27 414.98 136.12 415.76 136.98 415.78 137.83 415.27 138.69 414.07 139.54 413.62 140.4 415.42 141.25 418.52 142.11 419.95 142.96 419.71 143.82 418.12 144.67 415.41 145.53 414.48 146.38 414.87 147.24 415.74 148.09 416.75 148.95 416.41 149.81 413.14 150.66 410.31 151.52 409.66 152.37 409.33 153.23 410.4 154.08 412.27 154.94 412.79 155.79 411.79 156.65 410.64 157.5 409.34 158.36 408.07 159.21 407.14 160.07 406.88 160.92 407.86 161.78 407.06 162.63 407.7 163.49 409.51 164.35 411.65 165.2 411.98 166.06 413.62 166.91 415.33 167.77 417.02 168.62 416.88 169.48 417.95 170.33 419.85 171.19 419.91 172.04 419.26 172.9 418.2 173.75 416.87 174.61 414.69 175.46 413.56 176.32 412.87 177.17 413.12 178.03 413.67 178.89 414.17 179.74 412.62 180.6 411.79 181.45 411.43 182.31 410.15 183.16 407.88 184.02 407.83 184.87 407.72 185.73 407.36 186.58 409.25 187.44 411.25 188.29 411.6 189.15 411.51 190 411.1 190.86 409.37 191.71 408.25 192.57 407.11 193.43 404.89 194.28 403.29 195.14 402.31 195.99 401.7 196.85 401.99 197.7 403.43 198.56 404.87 199.41 405.18 200.27 405.1 201.12 404.34 201.98 402.88 202.83 401.15 203.69 400.54 204.54 401.39 205.4 401.9 206.26 402 207.11 402.8 207.97 401.82 208.82 400.35 209.68 400.82 210.53 402.07 211.39 402.61 212.24 403.64 213.1 404.98 213.95 405.41 214.81 405.75 215.66 404.42 216.52 403.16 217.37 400.15 218.23 398.11 219.08 396.64 219.94 398.52 220.8 400.59 221.65 401.81 222.51 401.93 223.36 402.52 224.22 400.81 225.07 398.91 225.93 399.16 226.78 400.26 227.64 399.36 228.49 399.8 229.35 399.33 230.2 398.46 231.06 396.91 231.91 396.33 232.77 395.2 233.62 395.75 234.48 395.13 235.34 394.41 236.19 394.13 237.05 396.56 237.9 398.07 238.76 399.49 239.61 400.68 240.47 402.71 241.32 401.66 242.18 400.35 243.03 399.94 243.89 400.14 244.74 400.77 245.6 403.44 246.45 404.66 247.31 404.15 248.16 403.56 249.02 401.73 249.88 398.31 250.73 396.14 251.59 397.37 252.44 397.84 253.3 398.04 254.15 398.31 255.01 398.86 255.86 398.73 256.72 398.96 257.57 398.83 258.43 398.63 259.28 398.02 260.14 397 260.99 396.28 261.85 396.45 262.7 396.49 263.56 397.03 264.42 398.02 265.27 399.23 266.13 398.09 266.98 397.1 267.84 396.9 268.69 396.05 269.55 395.19 270.4 396.22 271.26 397.31 272.11 398.11 272.97 398.61 273.82 398.94 274.68 398.15 275.53 397.38 276.39 396.69 277.25 396.17 278.1 395.48 278.96 396.65 279.81 398.11 280.67 398.72 281.52 399.47 282.38 401.48 283.23 403.31 284.09 403.55 284.94 403.21 285.8 402.11 286.65 400.47 287.51 398.33 288.36 397.42 289.22 397.7 290.07 398.25 290.93 398.48 291.79 397.64 292.64 396.68 293.5 395.78 294.35 395.2 295.21 394.92 296.06 395.27 296.92 396.21 297.77 396.51 298.63 397.55 299.48 398.91 300.34 400.47 301.19 401.04 302.05 401.57 302.9 400.83 303.76 399.36 304.61 398.17 305.47 397.23 306.33 396.02 307.18 395.48 308.04 395.9 308.89 397.47 309.75 398.32 310.6 399.71 311.46 401.33 312.31 401.73 313.17 401.15 314.02 401.46 314.88 402.72 315.73 403.82 316.59 404.42 317.44 404 318.3 403.35 319.15 402.26 320.01 400.94 320.87 400.94 321.72 403.64 322.58 405.35 323.43 406.64 324.29 407.7 325.14 408.47 326 406.87 326.85 406.45 327.71 405.59 328.56 406.38 329.42 406.92 330.27 406.54 331.13 406.71 331.98 406.84 332.84 405.34 333.69 405.07 334.55 406.14 335.41 407.07 336.26 408.17 337.12 410.31 337.97 410.18 338.83 409.31 339.68 409.29 340.54 411.06 341.39 412 342.25 411.83 343.1 412.19 343.96 411.61 344.81 410.59 345.67 411.05 346.52 413.29 347.38 413.44 348.24 413.48 349.09 413.34 349.95 412.08 350.8 410.28 351.66 412.4 352.51 412.47 353.37 411.78 354.22 411.37 355.08 410.92 355.93 408.74 356.79 409.23 357.64 409.04 358.5 408.12 359.35 408.55 360.21 409.49 361.06 411.29 361.92 411.88 362.78 411.85 363.63 412.05 364.49 411.35 365.34 408.45 366.2 407.47 367.05 407.42 367.91 406.55 368.76 406.12 369.62 406.3 370.47 406.51 371.33 408.13 372.18 411.07 373.04 411.19 373.89 411.2 374.75 412.27 375.6 412.15 376.46 409.55 377.32 410.06 378.17 411.07 379.03 413.2 379.88 414.74 380.74 418.37 381.59 421.08 382.45 421.91 383.3 420.87 384.16 419.97 385.01 417.59 385.87 415.15 386.72 414.49 387.58 414.05 388.43 413.28 389.29 413.36 390.14 414.97 391 416.25 391.86 416 392.71 416.08 393.57 416.91 394.42 416.82 395.28 417.01 396.13 417.85 396.99 418.86 397.84 418.79 398.7 418.9 399.55 417.98 400.41 417.11 401.26 414.63 402.12 413.47 402.97 412.73 403.83 412.58 404.68 412.94 405.54 414.39 406.4 413.58 407.25 411.56 408.11 410.83 408.96 411.1 409.82 411.01 410.67 410.98 411.53 411.92 412.38 411.69 413.24 410.18 414.09 409.45 414.95 409.57 415.8 410.31 416.66 409.82 417.51 408.64 418.37 408.24 419.23 407.46 420.08 405.8 420.94 405.35 421.79 405.52 422.65 405.39 423.5 406.61 424.36 409.2 425.21 411.95 426.07 415.03 426.92 416.55 427.78 416.47 428.63 413.83 429.49 410.4 430.34 406.57 431.2 404.94 432.05 404.51 432.91 406.32 433.77 408.98 434.62 411.66 435.48 411.6 436.33 412.37 437.19 409.93 438.04 407.37 438.9 404.71 439.75 402.91 440.61 398.99 441.46 397.56 442.32 397.36 443.17 396.98 444.03 398.96 444.88 401.84 445.74 404.52 446.59 407.26 447.45 410.28 448.31 410.24 449.16 410.05 450.02 410.8 450.87 410.72 451.73 409.85 452.58 410.42 453.44 410.72 454.29 410.04 455.15 408.88 456 409.36 456.86 408.42 457.71 408.2 458.57 407.35 459.42 406.49 460.28 405.62 461.13 405.64 461.99 406.27 462.85 408.25 463.7 410.85 464.56 411.25 465.41 412.87 466.27 413.59 467.12 413.87 467.98 413.32 468.83 413.35 469.69 411.9 470.54 410.29 471.4 408.09 472.25 407.09 473.11 406.28 473.96 405.72 474.82 405.23 475.68 405.32 476.53 406.11 477.39 408.46 478.24 410.16 479.1 411.63 479.95 412.36 480.81 411.89 481.66 409.78 482.52 409.15 483.37 408.76 484.23 408.22 485.08 406.85 485.94 406.76 486.79 406.33 487.65 405.72 488.5 405.73 489.36 406.3 490.22 406.8 491.07 407.6 491.93 408.1 492.78 409.32 493.64 410.3 494.49 409.83 495.35 408.69 496.2 407.65 497.06 405.81 497.91 404.59 498.77 404.68 499.62 405.11 500.48 404.43 501.33 403.23 502.19 401.86 503.04 401.3 503.9 401 504.76 400.99 505.61 400.79 506.47 400.12 507.32 398.38 508.18 397.14 509.03 397.2 509.89 397.8 510.74 398.68 511.6 399.46 512.45 399.17 513.31 399.33 514.16 399.71 515.02 399.85 515.87 399.58 516.73 400.11 517.58 401.81 518.44 402.77 519.3 403.23 520.15 403.67 521.01 403.5 521.86 401.1 522.72 399.84 523.57 399.44 524.43 400.16 525.28 401.65 526.14 403.52 526.99 405.7 527.85 407.47 528.7 407.75 529.56 407.46 530.41 407.96 531.27 408.31 532.12 408.87 532.98 410.14 533.84 411.2 534.69 410.21 535.55 409.18 536.4 407.89 537.26 406.21 538.11 404.43 538.97 404.86 539.82 404.61 540.68 404.53 541.53 404.78 542.39 404.9 543.24 404.09 544.1 403.54 544.95 403.38 545.81 403.55 546.67 404.38 547.52 405.18 548.38 405.61 549.23 406.23 550.09 407.03 550.94 408.59 551.8 410.36 552.65 410.7 553.51 410.24 554.36 410.2 555.22 410.72 556.07 411.24 556.93 411.28 557.78 411.35 558.64 410.97 559.49 409.47 560.35 407.44 561.21 407.09 562.06 407.52 562.92 407.88 563.77 407.17 564.63 408.27 565.48 409.48 566.34 410.02 567.19 409.18 568.05 407.87 568.9 406.4 569.76 405.65 570.61 404.45 571.47 404.89 572.32 405.9 573.18 405.17 574.03 403.26 574.89 402.14 575.75 401.03 576.6 400.77 577.46 400.48 578.31 400.76 579.17 400.8 580.02 400.84 580.88 400.11 581.73 400.15 582.59 399.94 583.44 399.43 584.3 398.24 585.15 396.73 586.01 395.9 586.86 396.09 587.72 396.86 588.57 398.53 589.43 400.72 590.29 401.87 591.14 402.06 592 401.04 592.85 399.73 593.71 398.37 594.56 398.5 595.42 400 596.27 400.87 597.13 401 597.98 400.61 598.84 398.49 599.69 395.56 600.55 394.84 601.4 395.33 602.26 396.62 603.11 398.4 603.97 399.68 604.83 399.19 605.68 397.93 606.54 397.34 607.39 396.61 608.25 396.16 609.1 396.35 609.96 396.28 610.81 394.78 611.67 393.44 612.52 392.97 613.38 392.63 614.23 391.43 615.09 390.91 615.94 390.72 616.8 389.45 617.66 387.98 618.51 386.93 619.37 385.61 620.22 383.99 621.08 382.58 621.93 381.38 622.79 380.11 623.64 379.35 624.5 378.36 625.35 377.42 626.21 376.9 627.06 376.53 627.92 375.32 628.77 374.17 629.63 372.67 630.48 371.13 631.34 370.22 632.2 369.93 633.05 369.89 633.91 370.25 634.76 369.65 635.62 368.5 636.47 367.03 637.33 365.4 638.18 364.04 639.04 363.96 639.89 363.04 640.75 363.04 641.6 363.03 642.46 362.68 643.31 362.21 644.17 362.97 645.02 363.1 645.88 363.27 646.74 363.72 647.59 364.19 648.45 364.76 649.3 365.61 650.16 366.51 651.01 367.6 651.87 368.56 652.72 368.18 653.58 369.81 654.43 373.3 655.29 377.33 656.14 381.21 657 382.38 657.85 377.76 658.71 372.39 659.56 366.16 660.42 358.98 661.28 354.3 662.13 353.04 662.99 350.25 663.84 346.69 664.7 343.94 665.55 342.51 666.41 340.79 667.26 338.66 668.12 336.63 668.97 334.69 669.83 333.24 670.68 330.94 671.54 329.59 672.39 329.15 673.25 328.43 674.1 327.06 674.96 328.72 675.82 330.94 676.67 332.45 677.53 333.15 678.38 333.63 679.24 331.42 680.09 324.58 680.95 315.12 681.8 308.77 682.66 303.35 683.51 299.01 684.37 298.89 685.22 301.96 686.08 302.56 686.93 301.7 687.79 299.65 688.65 295.96 689.5 291.79 690.36 287.91 691.21 284.58 692.07 280.34 692.92 274.67 693.78 268.8 694.63 263.05 695.49 255.48 696.34 248.02 697.2 242.06 698.05 235.04 698.91 227.29 699.76 221.73 700.62 215.75 701.47 209.27 702.33 197.3 703.19 183.84 704.04 169.61 704.9 155.6 705.75 146.43 706.61 147.37 707.46 148.98 708.32 150.67 709.17 151.76 710.03 152.09 710.88 149.43 711.74 147.09 712.59 144.91 713.45 144.88 714.3 140.49 715.16 134.18 716.01 126.29 716.87 118.3 717.73 111.08 718.58 106.05 719.44 100.1 720.29 97.74 721.15 97.37 722 94.47 722.86 90.72 723.71 90.16 724.57 90.21 725.42 86.26 726.28 82.04 727.13 75.28" style="stroke-width:1.07;stroke:#f49323;stroke-linecap:butt;fill:none;stroke-linejoin:round;stroke-miterlimit:10"/><circle cx="532.12" cy="408.86" r="2.2" style="stroke-width:1.2;fill:#000;stroke:#000;stroke-linecap:round;stroke-linejoin:round;stroke-miterlimit:10"/><circle cx="551.8" cy="411.04" r="2.2" style="stroke-width:1.2;fill:#000;stroke:#000;stroke-linecap:round;stroke-linejoin:round;stroke-miterlimit:10"/><text x="569.22" y="150.58" style="font-size:14px;fill:#3a53a4;font-family:Asap" textLength="67.8" lengthAdjust="spacingAndGlyphs">Population</text><text x="575.15" y="167.32" style="font-size:14px;fill:#3a53a4;font-family:Asap" textLength="11.51" lengthAdjust="spacingAndGlyphs">in</text><text x="590.02" y="167.32" style="font-size:14px;fill:#3a53a4;font-family:Asap" textLength="41.05" lengthAdjust="spacingAndGlyphs">Britain</text><text x="622.19" y="278.55" style="font-size:14px;fill:#f49323;font-family:Asap" textLength="27.86" lengthAdjust="spacingAndGlyphs">Real</text><text x="653.41" y="278.55" style="font-size:14px;fill:#f49323;font-family:Asap" textLength="33.26" lengthAdjust="spacingAndGlyphs">wage</text><text x="181.25" y="381.85" style="font-size:14px;font-family:Asap" textLength="68.98" lengthAdjust="spacingAndGlyphs">Malthusian</text><text x="253.6" y="381.85" style="font-size:14px;font-family:Asap" textLength="25.56" lengthAdjust="spacingAndGlyphs">trap</text><text x="499.09" y="430.77" style="font-size:14px;font-family:Asap" textLength="35.27" lengthAdjust="spacingAndGlyphs">Smith</text><text x="545.69" y="430.77" style="font-size:14px;font-family:Asap" textLength="49.85" lengthAdjust="spacingAndGlyphs">Malthus</text><text x="563.9" y="392.72" style="font-size:14px;font-family:Asap" textLength="43.4" lengthAdjust="spacingAndGlyphs">Escape</text></g><g clip-path="url(#prefix__a)"><polyline points="93.36 449.09 93.36 14.17" style="stroke-width:1.07;stroke:#464646;stroke-linecap:butt;fill:none;stroke-linejoin:round;stroke-miterlimit:10"/><text x="66.67" y="453.5" style="font-size:18px;font-family:Asap" textLength="9.63" lengthAdjust="spacingAndGlyphs">0</text><text x="47.41" y="344.77" style="font-size:18px;font-family:Asap" textLength="28.9" lengthAdjust="spacingAndGlyphs">200</text><text x="47.41" y="236.04" style="font-size:18px;font-family:Asap" textLength="28.9" lengthAdjust="spacingAndGlyphs">400</text><text x="47.41" y="127.31" style="font-size:18px;font-family:Asap" textLength="28.9" lengthAdjust="spacingAndGlyphs">600</text><text x="47.41" y="18.58" style="font-size:18px;font-family:Asap" textLength="28.9" lengthAdjust="spacingAndGlyphs">800</text><polyline points="86.27 449.09 93.36 449.09" style="stroke-width:1.07;stroke:#464646;stroke-linecap:butt;fill:none;stroke-linejoin:round;stroke-miterlimit:10"/><polyline points="86.27 340.36 93.36 340.36" style="stroke-width:1.07;stroke:#464646;stroke-linecap:butt;fill:none;stroke-linejoin:round;stroke-miterlimit:10"/><polyline points="86.27 231.63 93.36 231.63" style="stroke-width:1.07;stroke:#464646;stroke-linecap:butt;fill:none;stroke-linejoin:round;stroke-miterlimit:10"/><polyline points="86.27 122.9 93.36 122.9" style="stroke-width:1.07;stroke:#464646;stroke-linecap:butt;fill:none;stroke-linejoin:round;stroke-miterlimit:10"/><polyline points="86.27 14.17 93.36 14.17" style="stroke-width:1.07;stroke:#464646;stroke-linecap:butt;fill:none;stroke-linejoin:round;stroke-miterlimit:10"/><polyline points="726.28 449.09 726.28 14.17" style="stroke-width:1.07;stroke:#464646;stroke-linecap:butt;fill:none;stroke-linejoin:round;stroke-miterlimit:10"/><polyline points="726.28 449.09 733.36 449.09" style="stroke-width:1.07;stroke:#464646;stroke-linecap:butt;fill:none;stroke-linejoin:round;stroke-miterlimit:10"/><polyline points="726.28 340.36 733.36 340.36" style="stroke-width:1.07;stroke:#464646;stroke-linecap:butt;fill:none;stroke-linejoin:round;stroke-miterlimit:10"/><polyline points="726.28 231.63 733.36 231.63" style="stroke-width:1.07;stroke:#464646;stroke-linecap:butt;fill:none;stroke-linejoin:round;stroke-miterlimit:10"/><polyline points="726.28 122.9 733.36 122.9" style="stroke-width:1.07;stroke:#464646;stroke-linecap:butt;fill:none;stroke-linejoin:round;stroke-miterlimit:10"/><polyline points="726.28 14.17 733.36 14.17" style="stroke-width:1.07;stroke:#464646;stroke-linecap:butt;fill:none;stroke-linejoin:round;stroke-miterlimit:10"/><text x="743.33" y="455.41" style="font-size:18px;font-family:Asap" textLength="9.63" lengthAdjust="spacingAndGlyphs">0</text><text x="743.33" y="346.68" style="font-size:18px;font-family:Asap" textLength="19.27" lengthAdjust="spacingAndGlyphs">15</text><text x="743.33" y="237.95" style="font-size:18px;font-family:Asap" textLength="19.27" lengthAdjust="spacingAndGlyphs">30</text><text x="743.33" y="129.22" style="font-size:18px;font-family:Asap" textLength="19.27" lengthAdjust="spacingAndGlyphs">45</text><text x="743.33" y="20.49" style="font-size:18px;font-family:Asap" textLength="19.27" lengthAdjust="spacingAndGlyphs">60</text><polyline points="93.36 449.09 726.28 449.09" style="stroke-width:1.07;stroke:#464646;stroke-linecap:butt;fill:none;stroke-linejoin:round;stroke-miterlimit:10"/><polyline points="93.36 456.18 93.36 449.09" style="stroke-width:1.07;stroke:#464646;stroke-linecap:butt;fill:none;stroke-linejoin:round;stroke-miterlimit:10"/><polyline points="127.57 456.18 127.57 449.09" style="stroke-width:1.07;stroke:#464646;stroke-linecap:butt;fill:none;stroke-linejoin:round;stroke-miterlimit:10"/><polyline points="213.1 456.18 213.1 449.09" style="stroke-width:1.07;stroke:#464646;stroke-linecap:butt;fill:none;stroke-linejoin:round;stroke-miterlimit:10"/><polyline points="298.63 456.18 298.63 449.09" style="stroke-width:1.07;stroke:#464646;stroke-linecap:butt;fill:none;stroke-linejoin:round;stroke-miterlimit:10"/><polyline points="384.16 456.18 384.16 449.09" style="stroke-width:1.07;stroke:#464646;stroke-linecap:butt;fill:none;stroke-linejoin:round;stroke-miterlimit:10"/><polyline points="469.69 456.18 469.69 449.09" style="stroke-width:1.07;stroke:#464646;stroke-linecap:butt;fill:none;stroke-linejoin:round;stroke-miterlimit:10"/><polyline points="555.22 456.18 555.22 449.09" style="stroke-width:1.07;stroke:#464646;stroke-linecap:butt;fill:none;stroke-linejoin:round;stroke-miterlimit:10"/><polyline points="640.75 456.18 640.75 449.09" style="stroke-width:1.07;stroke:#464646;stroke-linecap:butt;fill:none;stroke-linejoin:round;stroke-miterlimit:10"/><polyline points="726.28 456.18 726.28 449.09" style="stroke-width:1.07;stroke:#464646;stroke-linecap:butt;fill:none;stroke-linejoin:round;stroke-miterlimit:10"/><text x="66.38" y="478.78" style="font-size:18px;font-family:Asap" textLength="38.53" lengthAdjust="spacingAndGlyphs">1260</text><text x="108.3" y="478.78" style="font-size:18px;font-family:Asap" textLength="38.53" lengthAdjust="spacingAndGlyphs">1300</text><text x="193.83" y="478.78" style="font-size:18px;font-family:Asap" textLength="38.53" lengthAdjust="spacingAndGlyphs">1400</text><text x="279.36" y="478.78" style="font-size:18px;font-family:Asap" textLength="38.53" lengthAdjust="spacingAndGlyphs">1500</text><text x="364.89" y="478.78" style="font-size:18px;font-family:Asap" textLength="38.53" lengthAdjust="spacingAndGlyphs">1600</text><text x="450.42" y="478.78" style="font-size:18px;font-family:Asap" textLength="38.53" lengthAdjust="spacingAndGlyphs">1700</text><text x="535.95" y="478.78" style="font-size:18px;font-family:Asap" textLength="38.53" lengthAdjust="spacingAndGlyphs">1800</text><text x="621.48" y="478.78" style="font-size:18px;font-family:Asap" textLength="38.53" lengthAdjust="spacingAndGlyphs">1900</text><text x="707.01" y="478.78" style="font-size:18px;font-family:Asap" textLength="38.53" lengthAdjust="spacingAndGlyphs">2000</text><text x="389.73" y="511.59" style="font-size:20px;font-weight:600;font-family:Asap" textLength="40.18" lengthAdjust="spacingAndGlyphs">Year</text><text transform="rotate(-90 194.36 166.14)" style="font-size:20px;font-weight:600;fill:#f49323;font-family:Asap" textLength="39.82" lengthAdjust="spacingAndGlyphs">Real</text><text transform="rotate(-90 172.045 143.825)" style="font-size:20px;font-weight:600;fill:#f49323;font-family:Asap" textLength="47.54" lengthAdjust="spacingAndGlyphs">wage</text><text transform="rotate(-90 145.875 117.655)" style="font-size:20px;font-weight:600;fill:#f49323;font-family:Asap" textLength="48.22" lengthAdjust="spacingAndGlyphs">index</text><text transform="rotate(-90 119.365 91.145)" style="font-size:20px;font-weight:600;fill:#f49323;font-family:Asap" textLength="48.82" lengthAdjust="spacingAndGlyphs">(1850</text><text transform="rotate(-90 92.555 64.335)" style="font-size:20px;font-weight:600;fill:#f49323;font-family:Asap" textLength="11.2" lengthAdjust="spacingAndGlyphs">=</text><text transform="rotate(-90 84.55 56.33)" style="font-size:20px;font-weight:600;fill:#f49323;font-family:Asap" textLength="38.12" lengthAdjust="spacingAndGlyphs">100)</text><text transform="rotate(-90 557.6 -233.99)" style="font-size:20px;font-weight:600;fill:#3a53a4;font-family:Asap" textLength="96.88" lengthAdjust="spacingAndGlyphs">Population</text><text transform="rotate(-90 506.755 -284.835)" style="font-size:20px;font-weight:600;fill:#3a53a4;font-family:Asap" textLength="82.26" lengthAdjust="spacingAndGlyphs">(millions)</text></g></svg>