<svg version="1.1" xmlns="http://www.w3.org/2000/svg" x="0" y="0" viewBox="0 0 311.81 177.43" style="enable-background:new 0 0 311.81 177.43" xml:space="preserve"><line style="fill:none;stroke:#ed2124;stroke-width:.5;stroke-miterlimit:10" x1="41.58" y1="34.96" x2="50.59" y2="34.96"/><polygon style="fill:#ed2124" points="48.93 37.01 48.59 36.64 50.4 34.96 48.59 33.29 48.93 32.92 51.13 34.96"/><rect x="2.49" y="5.5" style="fill:none;stroke:#3a53a4;stroke-width:.5;stroke-miterlimit:10" width="39" height="39"/><rect x="51.99" y="5.5" style="fill:none;stroke:#ec2426;stroke-width:.5;stroke-miterlimit:10" width="39" height="39"/><text transform="translate(16.97 18.082)"><tspan x="0" y="0" style="fill:#3a53a4;font-family:'Asap-Regular';font-size:6px">The</tspan><tspan x="-8.33" y="7.2" style="fill:#3a53a4;font-family:'Asap-Regular';font-size:6px">Industrial </tspan><tspan x="-9.41" y="14.4" style="fill:#3a53a4;font-family:'Asap-Regular';font-size:6px">Revolution</tspan></text><text transform="translate(58.6 15.281)"><tspan x="0" y="0" style="fill:#ed2124;font-family:'Asap-Regular';font-size:6px">More and </tspan><tspan x="-5.29" y="7.2" style="fill:#ed2124;font-family:'Asap-Regular';font-size:6px">better capital </tspan><tspan x="-.47" y="14.4" style="fill:#ed2124;font-family:'Asap-Regular';font-size:6px">goods per </tspan><tspan x="4.07" y="21.6" style="fill:#ed2124;font-family:'Asap-Regular';font-size:6px">worker</tspan></text><line style="fill:none;stroke:#ed2124;stroke-width:.5;stroke-miterlimit:10" x1="91" y1="34.82" x2="100.01" y2="34.82"/><polygon style="fill:#ed2124" points="98.35 36.87 98.01 36.5 99.82 34.82 98.01 33.14 98.35 32.78 100.55 34.82"/><rect x="101.55" y="5.5" style="fill:none;stroke:#ec2426;stroke-width:.471;stroke-miterlimit:10" width="52.14" height="39.46"/><text transform="translate(107.052 15.281)"><tspan x="0" y="0" style="fill:#ed2124;font-family:'Asap-Regular';font-size:6px">Average output </tspan><tspan x="-.62" y="7.2" style="fill:#ed2124;font-family:'Asap-Regular';font-size:6px">per worker rises,</tspan><tspan x="-3.07" y="14.4" style="fill:#ed2124;font-family:'Asap-Regular';font-size:6px">but some workers </tspan><tspan x="3.35" y="21.6" style="fill:#ed2124;font-family:'Asap-Regular';font-size:6px">are displaced</tspan></text></svg>