<svg version="1.1" xmlns="http://www.w3.org/2000/svg" x="0" y="0" viewBox="0 0 311.81 170" style="enable-background:new 0 0 311.81 170" xml:space="preserve"><text transform="translate(74.338 117)" style="fill:#3a53a4;font-family:'Asap-Regular';font-size:7px">Supply curve</text><line style="fill:none;stroke:#939598;stroke-width:.5;stroke-linejoin:round" x1="157.74" y1="139.33" x2="157.74" y2="138.62"/><line style="fill:none;stroke:#939598;stroke-width:.5;stroke-linejoin:round;stroke-dasharray:1.4031,1.4031" x1="157.74" y1="137.22" x2="157.74" y2="73.38"/><polyline style="fill:none;stroke:#939598;stroke-width:.5;stroke-linejoin:round" points="157.74 72.68 157.74 71.97 157.03 71.97"/><line style="fill:none;stroke:#939598;stroke-width:.5;stroke-linejoin:round;stroke-dasharray:1.4204,1.4204" x1="155.61" y1="71.97" x2="39.85" y2="71.97"/><line style="fill:none;stroke:#939598;stroke-width:.5;stroke-linejoin:round" x1="39.14" y1="71.97" x2="38.43" y2="71.97"/><circle cx="157.74" cy="72.18" r="1.13"/><path style="fill:none;stroke:#3a53a4;stroke-width:.5;stroke-linejoin:round" d="M38.44 120.2c89.54-36.04 179.08-72.09 268.61-108.13"/><g><line style="fill:none;stroke:#6d6e71;stroke-width:.5;stroke-linecap:square;stroke-linejoin:round" x1="38.64" y1="139.54" x2="38.64" y2="4.81"/><path style="fill:none;stroke:#6d6e71;stroke-width:.5;stroke-linecap:square;stroke-linejoin:round" d="M307.25 139.9v2.13m-29.98-2.13v2.13m-29.99-2.13v2.13m-29.56-2.13v2.13m-29.99-2.13v2.13m-29.99-2.13v2.13m-29.56-2.13v2.13m-29.99-2.13v2.13m-29.98-2.13v2.13m-29.57-2.13v2.13m0-2.49h268.61"/><text transform="translate(36.741 149.89)" style="font-family:'Asap-Regular';font-size:7px">0</text><text transform="translate(66.728 149.89)" style="font-family:'Asap-Regular';font-size:7px">5</text><rect x="65.88" y="143.13" style="fill:none" width="4.81" height="8.87"/><text transform="translate(94.602 149.89)" style="font-family:'Asap-Regular';font-size:7px">10</text><rect x="93.96" y="143.13" style="fill:none" width="8.35" height="8.87"/><text transform="translate(124.589 149.89)" style="font-family:'Asap-Regular';font-size:7px">15</text><rect x="123.8" y="143.13" style="fill:none" width="8.35" height="8.87"/><text transform="translate(154.152 149.89)" style="font-family:'Asap-Regular';font-size:7px">20</text><rect x="153.65" y="143.13" style="fill:none" width="8.35" height="8.87"/><text transform="translate(184.14 149.89)" style="font-family:'Asap-Regular';font-size:7px">25</text><rect x="183.5" y="143.13" style="fill:none" width="8.35" height="8.87"/><text transform="translate(214.125 149.89)" style="font-family:'Asap-Regular';font-size:7px">30</text><rect x="213.34" y="143.13" style="fill:none" width="8.35" height="8.87"/><text transform="translate(243.69 149.89)" style="font-family:'Asap-Regular';font-size:7px">35</text><rect x="243.19" y="143.13" style="fill:none" width="8.35" height="8.87"/><text transform="translate(273.677 149.89)" style="font-family:'Asap-Regular';font-size:7px">40</text><rect x="273.03" y="143.13" style="fill:none" width="8.35" height="8.87"/><text transform="translate(303.663 149.89)" style="font-family:'Asap-Regular';font-size:7px">45</text><rect x="302.88" y="143.13" style="fill:none" width="7.93" height="8.87"/><line style="fill:none;stroke:#6d6e71;stroke-width:.5;stroke-linecap:square;stroke-linejoin:round" x1="38.07" y1="4.81" x2="35.94" y2="4.81"/><line style="fill:none;stroke:#6d6e71;stroke-width:.5;stroke-linecap:square;stroke-linejoin:round" x1="38.07" y1="43.31" x2="35.94" y2="43.31"/><line style="fill:none;stroke:#6d6e71;stroke-width:.5;stroke-linecap:square;stroke-linejoin:round" x1="38.07" y1="81.8" x2="35.94" y2="81.8"/><line style="fill:none;stroke:#6d6e71;stroke-width:.5;stroke-linecap:square;stroke-linejoin:round" x1="38.07" y1="120.3" x2="35.94" y2="120.3"/><line style="fill:none;stroke:#6d6e71;stroke-width:.5;stroke-linecap:square;stroke-linejoin:round" x1="38.07" y1="139.54" x2="35.94" y2="139.54"/><line style="fill:none;stroke:#6d6e71;stroke-width:.5;stroke-linecap:square;stroke-linejoin:round" x1="38.07" y1="101.05" x2="35.94" y2="101.05"/><line style="fill:none;stroke:#6d6e71;stroke-width:.5;stroke-linecap:square;stroke-linejoin:round" x1="38.07" y1="62.56" x2="35.94" y2="62.56"/><line style="fill:none;stroke:#6d6e71;stroke-width:.5;stroke-linecap:square;stroke-linejoin:round" x1="38.07" y1="24.06" x2="35.94" y2="24.06"/><text transform="translate(26.468 141.866)" style="font-family:'Asap-Regular';font-size:7px">0</text><text transform="translate(26.468 122.533)" style="font-family:'Asap-Regular';font-size:7px">2</text><text transform="translate(26.468 103.2)" style="font-family:'Asap-Regular';font-size:7px">4</text><text transform="translate(26.468 85)" style="font-family:'Asap-Regular';font-size:7px">6</text><text transform="translate(26.468 64.667)" style="font-family:'Asap-Regular';font-size:7px">8</text><text transform="translate(23.09 7.56)" style="font-family:'Asap-Regular';font-size:7px">14</text><text transform="translate(23.09 26.227)" style="font-family:'Asap-Regular';font-size:7px">12</text><text transform="translate(23.09 45.894)" style="font-family:'Asap-Regular';font-size:7px">10</text></g><text transform="translate(133.117 162.139)"><tspan x="0" y="0" style="font-family:'Asap-Medium';font-size:8px">Quantity of books, </tspan><tspan x="66.18" y="0" style="font-family:'Asap-MediumItalic';font-size:8px">Q</tspan></text><text transform="rotate(-90 75.635 66.693)"><tspan x="0" y="0" style="font-family:'Asap-Medium';font-size:8px">Price, </tspan><tspan x="21.3" y="0" style="font-family:'Asap-MediumItalic';font-size:8px">P</tspan><tspan x="25.86" y="0" style="font-family:'Asap-Medium';font-size:8px"> (sellers’ reservation price), ($)</tspan></text></svg>