<svg version="1.1" xmlns="http://www.w3.org/2000/svg" x="0" y="0" viewBox="0 0 311.81 148.5" style="enable-background:new 0 0 311.81 148.5" xml:space="preserve"><polyline style="fill:none;stroke:#939598;stroke-width:.5;stroke-miterlimit:10;stroke-dasharray:1.4173" points="144.36 115 144.36 81.41 42.03 81.41"/><path style="fill:none;stroke:#ed2124;stroke-width:.5;stroke-miterlimit:10" d="M42.06 16.35c80.75 33.33 161.51 66.66 242.26 99.99"/><path style="fill:none;stroke:#3a53a4;stroke-width:.5;stroke-linejoin:round" d="M42.06 107.57c85-21.93 170.01-43.85 255.02-65.78"/><line style="fill:none;stroke:#6d6e71;stroke-width:.5;stroke-linecap:square;stroke-linejoin:round" x1="42.8" y1="4.75" x2="41.26" y2="4.75"/><line style="fill:none;stroke:#6d6e71;stroke-width:.5;stroke-linecap:square;stroke-linejoin:round" x1="42.23" y1="28.58" x2="40.68" y2="28.58"/><line style="fill:none;stroke:#6d6e71;stroke-width:.5;stroke-linecap:square;stroke-linejoin:round" x1="42.23" y1="50.55" x2="40.68" y2="50.55"/><line style="fill:none;stroke:#6d6e71;stroke-width:.5;stroke-linecap:square;stroke-linejoin:round" x1="42.23" y1="94.49" x2="40.68" y2="94.49"/><line style="fill:none;stroke:#6d6e71;stroke-width:.5;stroke-linecap:square;stroke-linejoin:round" x1="42.23" y1="116.46" x2="40.68" y2="116.46"/><line style="fill:none;stroke:#6d6e71;stroke-width:.5;stroke-linecap:square;stroke-linejoin:round" x1="42.25" y1="116.46" x2="42.55" y2="4.75"/><line style="fill:none;stroke:#6d6e71;stroke-width:.5;stroke-linecap:square;stroke-linejoin:round" x1="297.24" y1="116.82" x2="297.24" y2="118.95"/><line style="fill:none;stroke:#6d6e71;stroke-width:.5;stroke-linecap:square;stroke-linejoin:round" x1="275.63" y1="116.82" x2="275.63" y2="118.95"/><line style="fill:none;stroke:#6d6e71;stroke-width:.5;stroke-linecap:square;stroke-linejoin:round" x1="254.41" y1="116.82" x2="254.41" y2="118.95"/><line style="fill:none;stroke:#6d6e71;stroke-width:.5;stroke-linecap:square;stroke-linejoin:round" x1="233.19" y1="116.82" x2="233.19" y2="118.95"/><line style="fill:none;stroke:#6d6e71;stroke-width:.5;stroke-linecap:square;stroke-linejoin:round" x1="211.98" y1="116.82" x2="211.98" y2="118.95"/><line style="fill:none;stroke:#6d6e71;stroke-width:.5;stroke-linecap:square;stroke-linejoin:round" x1="190.76" y1="116.82" x2="190.76" y2="118.95"/><line style="fill:none;stroke:#6d6e71;stroke-width:.5;stroke-linecap:square;stroke-linejoin:round" x1="169.54" y1="116.82" x2="169.54" y2="118.95"/><line style="fill:none;stroke:#6d6e71;stroke-width:.5;stroke-linecap:square;stroke-linejoin:round" x1="148.33" y1="116.82" x2="148.33" y2="118.95"/><line style="fill:none;stroke:#6d6e71;stroke-width:.5;stroke-linecap:square;stroke-linejoin:round" x1="127.11" y1="116.82" x2="127.11" y2="118.95"/><line style="fill:none;stroke:#6d6e71;stroke-width:.5;stroke-linecap:square;stroke-linejoin:round" x1="105.9" y1="116.82" x2="105.9" y2="118.95"/><line style="fill:none;stroke:#6d6e71;stroke-width:.5;stroke-linecap:square;stroke-linejoin:round" x1="84.68" y1="116.82" x2="84.68" y2="118.95"/><line style="fill:none;stroke:#6d6e71;stroke-width:.5;stroke-linecap:square;stroke-linejoin:round" x1="63.46" y1="116.82" x2="63.46" y2="118.95"/><line style="fill:none;stroke:#6d6e71;stroke-width:.5;stroke-linecap:square;stroke-linejoin:round" x1="42.25" y1="116.82" x2="42.25" y2="118.95"/><line style="fill:none;stroke:#6d6e71;stroke-width:.5;stroke-linecap:square;stroke-linejoin:round" x1="42.25" y1="116.46" x2="297.24" y2="116.46"/><text transform="translate(40.445 126.264)" style="font-family:'Asap-Regular';font-size:7px">0</text><rect x="39.78" y="119.86" style="fill:none" width="4.56" height="8.41"/><text transform="translate(61.661 126.264)" style="font-family:'Asap-Regular';font-size:7px">5</text><rect x="61.03" y="119.86" style="fill:none" width="4.56" height="8.41"/><text transform="translate(81.276 126.264)" style="font-family:'Asap-Regular';font-size:7px">10</text><rect x="80.6" y="119.86" style="fill:none" width="7.92" height="8.41"/><text transform="translate(102.493 126.264)" style="font-family:'Asap-Regular';font-size:7px">15</text><rect x="101.85" y="119.86" style="fill:none" width="7.92" height="8.41"/><text transform="translate(123.709 126.264)" style="font-family:'Asap-Regular';font-size:7px">20</text><rect x="123.1" y="119.86" style="fill:none" width="7.92" height="8.41"/><text transform="translate(144.925 126.264)" style="font-family:'Asap-Regular';font-size:7px">25</text><rect x="144.36" y="119.86" style="fill:none" width="7.92" height="8.41"/><text transform="translate(166.142 126.264)" style="font-family:'Asap-Regular';font-size:7px">30</text><rect x="165.61" y="119.86" style="fill:none" width="7.92" height="8.41"/><text transform="translate(187.358 126.264)" style="font-family:'Asap-Regular';font-size:7px">35</text><rect x="186.86" y="119.86" style="fill:none" width="7.92" height="8.41"/><text transform="translate(208.574 126.264)" style="font-family:'Asap-Regular';font-size:7px">40</text><rect x="208.11" y="119.86" style="fill:none" width="7.92" height="8.41"/><text transform="translate(229.791 126.264)" style="font-family:'Asap-Regular';font-size:7px">45</text><rect x="229.36" y="119.86" style="fill:none" width="7.92" height="8.41"/><text transform="translate(251.407 126.264)" style="font-family:'Asap-Regular';font-size:7px">50</text><rect x="250.61" y="119.86" style="fill:none" width="7.92" height="8.41"/><text transform="translate(272.624 126.264)" style="font-family:'Asap-Regular';font-size:7px">55</text><rect x="271.86" y="119.86" style="fill:none" width="7.92" height="8.41"/><text transform="translate(293.84 126.264)" style="font-family:'Asap-Regular';font-size:7px">60</text><rect x="293.11" y="119.86" style="fill:none" width="7.54" height="8.41"/><text transform="translate(83.14 103.264)" style="font-family:'Asap-Regular';font-size:6px">Supply</text><text transform="translate(138.44 52.7)" style="font-family:'Asap-Regular';font-size:6px">New demand</text><line style="fill:none;stroke:#6d6e71;stroke-width:.5;stroke-linecap:square;stroke-linejoin:round" x1="42.23" y1="72.52" x2="40.68" y2="72.52"/><text transform="translate(138.44 89.096)" style="font-family:'Asap-Regular';font-size:6px">A</text><text transform="translate(113.125 140.872)" style="font-family:'Asap-Medium';font-size:8px">Quantity of hats (thousands)</text><text transform="rotate(-90 44.442 32.241)" style="font-family:'Asap-Medium';font-size:8px">Price ($)</text><text transform="translate(33.23 118.657)" style="font-family:'Asap-Regular';font-size:7px">0</text><text transform="translate(33.23 96.657)" style="font-family:'Asap-Regular';font-size:7px">5</text><text transform="translate(29.23 74.657)" style="font-family:'Asap-Regular';font-size:7px">10</text><text transform="translate(29.23 52.657)" style="font-family:'Asap-Regular';font-size:7px">15</text><text transform="translate(29.23 30.657)" style="font-family:'Asap-Regular';font-size:7px">20</text><text transform="translate(29.23 8.657)" style="font-family:'Asap-Regular';font-size:7px">25</text><path style="fill:none;stroke:#ed2124;stroke-width:.5;stroke-linejoin:round" d="M42.06 28.63c.21.11.42.22.63.32"/><path style="fill:none;stroke:#ed2124;stroke-width:.5;stroke-linejoin:round;stroke-dasharray:1.4277,1.4277" d="M43.96 29.61C99.57 58.3 155.19 87 210.8 115.69"/><path style="fill:none;stroke:#ed2124;stroke-width:.5;stroke-linejoin:round" d="M211.44 116.01c.21.11.42.22.63.32"/><circle cx="144.36" cy="81.41" r="1.13"/><g><line style="fill:none;stroke:#939598;stroke-width:.5;stroke-miterlimit:10" x1="185.34" y1="94.49" x2="215.49" y2="94.49"/><polygon style="fill:#939598" points="213.83 96.53 213.49 96.16 215.29 94.49 213.49 92.81 213.83 92.44 216.03 94.49"/></g><text transform="translate(47.13 60.604)" style="font-family:'Asap-Regular';font-size:6px">Original demand</text></svg>