<svg version="1.1" xmlns="http://www.w3.org/2000/svg" x="0" y="0" viewBox="0 0 311.81 204.09" style="enable-background:new 0 0 311.81 204.09" xml:space="preserve"><line style="fill:none;stroke:#6d6e71;stroke-width:.5;stroke-linecap:square;stroke-linejoin:round" x1="46.99" y1="169.6" x2="44.84" y2="169.6"/><line style="fill:none;stroke:#6d6e71;stroke-width:.5;stroke-linecap:square;stroke-linejoin:round" x1="46.99" y1="149.74" x2="44.84" y2="149.74"/><line style="fill:none;stroke:#6d6e71;stroke-width:.5;stroke-linecap:square;stroke-linejoin:round" x1="46.99" y1="129.56" x2="44.84" y2="129.56"/><line style="fill:none;stroke:#6d6e71;stroke-width:.5;stroke-linecap:square;stroke-linejoin:round" x1="46.99" y1="110.07" x2="44.84" y2="110.07"/><line style="fill:none;stroke:#6d6e71;stroke-width:.5;stroke-linecap:square;stroke-linejoin:round" x1="46.99" y1="89.93" x2="44.84" y2="89.93"/><line style="fill:none;stroke:#6d6e71;stroke-width:.5;stroke-linecap:square;stroke-linejoin:round" x1="46.99" y1="70.23" x2="44.84" y2="70.23"/><line style="fill:none;stroke:#6d6e71;stroke-width:.5;stroke-linecap:square;stroke-linejoin:round" x1="46.99" y1="30.49" x2="44.84" y2="30.49"/><line style="fill:none;stroke:#6d6e71;stroke-width:.5;stroke-linecap:square;stroke-linejoin:round" x1="46.99" y1="10.58" x2="44.84" y2="10.58"/><line style="fill:none;stroke:#6d6e71;stroke-width:.5;stroke-linecap:square;stroke-linejoin:round" x1="46.99" y1="49.97" x2="44.84" y2="49.97"/><line style="fill:none;stroke:#6d6e71;stroke-width:.5;stroke-linecap:square" x1="47.26" y1="169.67" x2="47.26" y2="171.88"/><line style="fill:none;stroke:#6d6e71;stroke-width:.5;stroke-linecap:square" x1="97.22" y1="169.74" x2="97.22" y2="171.89"/><line style="fill:none;stroke:#6d6e71;stroke-width:.5;stroke-linecap:square" x1="147.33" y1="169.73" x2="147.33" y2="171.88"/><line style="fill:none;stroke:#6d6e71;stroke-width:.5;stroke-linecap:square" x1="197.81" y1="169.62" x2="197.81" y2="171.77"/><line style="fill:none;stroke:#6d6e71;stroke-width:.5;stroke-linecap:square" x1="248.02" y1="169.55" x2="248.02" y2="171.7"/><text transform="translate(37.057 171.771)" style="font-family:'Asap-Regular';font-size:7.0788px">0</text><text transform="translate(45.364 181.285)" style="font-family:'Asap-Regular';font-size:7.0788px">0</text><text transform="translate(33.398 132.059)" style="font-family:'Asap-Regular';font-size:7.0788px">10</text><text transform="translate(33.398 92.348)" style="font-family:'Asap-Regular';font-size:7.0788px">20</text><text transform="translate(36.546 152.245)" style="font-family:'Asap-Regular';font-size:7.0788px">5</text><text transform="translate(33.631 72.468)" style="font-family:'Asap-Regular';font-size:7.0788px">25</text><text transform="translate(33.398 52.635)" style="font-family:'Asap-Regular';font-size:7.0788px">30</text><text transform="translate(32.966 32.55)" style="font-family:'Asap-Regular';font-size:7.0788px">35</text><text transform="translate(33.01 13.196)" style="font-family:'Asap-Regular';font-size:7.0788px">40</text><text transform="translate(95.686 181.386)" style="font-family:'Asap-Regular';font-size:7.0788px">5</text><text transform="translate(144.429 181.285)" style="font-family:'Asap-Regular';font-size:7.0788px">10</text><text transform="translate(194.269 181.385)" style="font-family:'Asap-Regular';font-size:7.0788px">15</text><text transform="translate(244.411 181.343)" style="font-family:'Asap-Regular';font-size:7.0788px">20</text><path style="fill:none;stroke:#6d6e71;stroke-width:.5;stroke-linecap:square;stroke-linejoin:round" d="M47.26 10.58v158.78"/><line style="fill:none;stroke:#6d6e71;stroke-width:.5;stroke-linecap:square" x1="47.26" y1="169.55" x2="288.61" y2="169.55"/><text transform="translate(33.398 112.16)" style="font-family:'Asap-Regular';font-size:7.0788px">15</text><text transform="translate(139.173 194.135)"><tspan x="0" y="0" style="font-family:'Asap-Medium';font-size:8px">Hours of work, </tspan><tspan x="53.22" y="0" style="font-family:'Asap-MediumItalic';font-size:8px">h</tspan></text><text transform="rotate(-90 74.829 52.68)"><tspan x="0" y="0" style="font-family:'Asap-Medium';font-size:8px">Bushels of grain, </tspan><tspan x="59.74" y="0" style="font-family:'Asap-MediumItalic';font-size:8px">y</tspan></text><g><path style="fill:none;stroke:#3b54a4;stroke-width:.5;stroke-linecap:square;stroke-linejoin:round" d="M288.61 169.55c.03-4.38-.3-10.8-2.19-18.21-7.54-29.63-32.64-46.7-47.3-56.52-11.92-7.98-21.45-12.21-40.12-20.49-19.27-8.54-36.43-14.36-45.93-17.59-13.07-4.43-24.4-7.78-26.98-8.54-6.3-1.85-11.79-3.37-18.78-5.29-2.22-.61-9.68-2.66-19.64-5.29-6.48-1.71-11.04-2.88-19.12-4.95-5.32-1.36-12.51-3.2-21.08-5.36"/></g></svg>