<svg version="1.1" xmlns="http://www.w3.org/2000/svg" x="0" y="0" viewBox="0 0 311.81 202.97" style="enable-background:new 0 0 311.81 202.97" xml:space="preserve"><switch><g><text transform="rotate(-90 58.987 45.148)"><tspan x="0" y="0" style="font-family:'Asap-Medium';font-size:8px">Price, </tspan><tspan x="21.3" y="0" style="font-family:'Asap-MediumItalic';font-size:8px">P </tspan><tspan x="27.78" y="0" style="font-family:'Asap-Medium';font-size:8px">($)</tspan></text><text transform="translate(140.68 197.927)"><tspan x="0" y="0" style="font-family:'Asap-Medium';font-size:8px">Quantity, </tspan><tspan x="34.06" y="0" style="font-family:'Asap-MediumItalic';font-size:8px">Q</tspan></text><line style="fill:none;stroke:#3a53a4;stroke-width:.5;stroke-miterlimit:10" x1="23.91" y1="88.97" x2="276.76" y2="182.2"/><line style="fill:none;stroke:#ed2124;stroke-width:.5;stroke-miterlimit:10" x1="23.91" y1="16.97" x2="115.76" y2="182.47"/><circle cx="41.6" cy="48.64" r="1.13"/><text transform="translate(46.93 47.22)" style="font-family:'Asap-Regular';font-size:6px">A</text><text transform="translate(63.93 77.22)" style="fill:#ed2124;font-family:'Asap-Regular';font-size:6px">D</text><text transform="matrix(.583 0 0 .583 68.1 79.218)" style="fill:#ed2124;font-family:'Asap-Regular';font-size:6px">1</text><text transform="translate(176.93 139.553)" style="fill:#3a53a4;font-family:'Asap-Regular';font-size:6px">D</text><text transform="matrix(.583 0 0 .583 181.1 141.552)" style="fill:#3a53a4;font-family:'Asap-Regular';font-size:6px">2</text><circle cx="95.26" cy="145.64" r="1.13"/><text transform="translate(100.597 144.22)" style="font-family:'Asap-Regular';font-size:6px">C</text><circle cx="127.26" cy="127.14" r="1.13"/><text transform="translate(132.597 125.721)" style="font-family:'Asap-Regular';font-size:6px">B</text><circle cx="74.26" cy="107.55" r="1.13"/><text transform="translate(78.597 104.135)" style="font-family:'Asap-Regular';font-size:6px">E</text><g><line style="fill:none;stroke:#6d6e71;stroke-width:.5;stroke-linecap:square;stroke-linejoin:round" x1="23.74" y1="2.7" x2="21.62" y2="2.7"/><line style="fill:none;stroke:#6d6e71;stroke-width:.5272;stroke-linecap:square;stroke-linejoin:round" x1="23.18" y1="182.47" x2="21.06" y2="182.47"/><line style="fill:none;stroke:#6d6e71;stroke-width:.5;stroke-linecap:square;stroke-linejoin:round" x1="23.91" y1="182.47" x2="23.91" y2="2.7"/><line style="fill:none;stroke:#6d6e71;stroke-width:.5;stroke-linecap:square;stroke-linejoin:round" x1="309.81" y1="182.93" x2="309.81" y2="185.06"/><line style="fill:none;stroke:#6d6e71;stroke-width:.5272;stroke-linecap:square;stroke-linejoin:round" x1="23.91" y1="182.93" x2="23.91" y2="185.06"/><line style="fill:none;stroke:#6d6e71;stroke-width:.5;stroke-linecap:square;stroke-linejoin:round" x1="21.91" y1="182.47" x2="309.81" y2="182.47"/></g></g></switch></svg>