<svg version="1.1" xmlns="http://www.w3.org/2000/svg" x="0" y="0" viewBox="0 0 311.81 167.5" style="enable-background:new 0 0 311.81 167.5" xml:space="preserve"><rect x="6.66" y="7.71" style="fill:none;stroke:#000;stroke-miterlimit:10" width="77" height="39"/><rect x="6.66" y="120.21" style="fill:none;stroke:#000;stroke-miterlimit:10" width="77" height="39"/><rect x="110.66" y="63.96" style="fill:none;stroke:#000;stroke-miterlimit:10" width="77" height="39"/><rect x="228.16" y="63.96" style="fill:none;stroke:#000;stroke-miterlimit:10" width="77" height="39"/><text transform="translate(124.716 79.5)"><tspan x="0" y="0" style="font-family:'Asap-Medium';font-size:8px">Differences in</tspan><tspan x="1.74" y="9.6" style="font-family:'Asap-Medium';font-size:8px">endowments</tspan></text><text transform="translate(24.528 28.5)" style="font-family:'Asap-Medium';font-size:8px">Technology</text><text transform="translate(25.536 137.5)"><tspan x="0" y="0" style="font-family:'Asap-Medium';font-size:8px">Institutions</tspan><tspan x="-1.63" y="9.6" style="font-family:'Asap-Medium';font-size:8px">and policies</tspan></text><text transform="translate(249.36 79.5)"><tspan x="0" y="0" style="font-family:'Asap-Medium';font-size:8px">Economic</tspan><tspan x="-.36" y="9.6" style="font-family:'Asap-Medium';font-size:8px">inequality</tspan></text><line style="fill:none;stroke:#000;stroke-miterlimit:10" x1="45.16" y1="53.08" x2="45.16" y2="113.92"/><polygon points="41.07 56.4 41.8 57.08 45.15 53.47 48.51 57.08 49.24 56.4 45.15 52"/><polygon points="41.07 110.6 41.8 109.92 45.15 113.53 48.51 109.92 49.24 110.6 45.15 115"/><line style="fill:none;stroke:#000;stroke-miterlimit:10" x1="83.66" y1="46.71" x2="104.74" y2="59.92"/><polygon points="99.76 61.63 99.57 60.65 104.41 59.72 103.13 54.96 104.1 54.7 105.65 60.5"/><line style="fill:none;stroke:#000;stroke-miterlimit:10" x1="83.66" y1="120.21" x2="104.77" y2="105.13"/><polygon points="104.45 110.38 103.47 110.18 104.46 105.35 99.57 104.72 99.7 103.73 105.66 104.5"/><g><line style="fill:none;stroke:#000;stroke-miterlimit:10" x1="187.66" y1="83.5" x2="223.07" y2="83.5"/><polygon points="219.76 87.59 219.08 86.86 222.69 83.5 219.08 80.14 219.76 79.41 224.16 83.5"/></g><g><line style="fill:none;stroke:#000;stroke-miterlimit:10" x1="83.66" y1="27.21" x2="223.1" y2="60.25"/><polygon points="218.93 63.47 218.44 62.6 222.73 60.16 219.99 56.06 220.82 55.51 224.16 60.5"/></g><g><line style="fill:none;stroke:#000;stroke-miterlimit:10" x1="83.66" y1="159.21" x2="223.14" y2="104.89"/><polygon points="221.54 109.91 220.64 109.47 222.79 105.03 218.2 103.22 218.57 102.29 224.16 104.5"/></g></svg>