<svg version="1.1" xmlns="http://www.w3.org/2000/svg" x="0" y="0" viewBox="0 0 311.81 167.76" style="enable-background:new 0 0 311.81 167.76" xml:space="preserve"><rect x="4.97" y="4.27" style="fill:#e2eae1" width="303.72" height="159.61"/><rect x="22.17" y="19.77" style="fill:#fff" width="268.49" height="128.64"/><polyline style="fill:none;stroke:#3a53a4;stroke-width:.5;stroke-miterlimit:10" points="173.92 108.91 173.92 104.49 139.74 104.49 139.74 109.45"/><polygon style="fill:#3a53a4" points="175.96 107.25 175.59 106.91 173.92 108.72 172.24 106.91 171.87 107.25 173.92 109.45"/><polyline style="fill:none;stroke:#f49323;stroke-width:.5;stroke-miterlimit:10" points="66.34 56.65 54.14 56.65 54.14 66.84 65.8 66.84"/><polygon style="fill:#f49323" points="64.14 68.88 63.8 68.52 65.61 66.84 63.8 65.16 64.14 64.8 66.34 66.84"/><line style="fill:none;stroke:#f49323;stroke-width:.5;stroke-linecap:square;stroke-linejoin:round" x1="83.94" y1="20.32" x2="83.94" y2="50.22"/><polygon style="fill:#f49323" points="81.89 21.97 82.26 22.31 83.94 20.51 85.61 22.31 85.98 21.97 83.94 19.77"/><polyline style="fill:none;stroke:#f49323;stroke-width:.5;stroke-linecap:square;stroke-linejoin:round" points="83.94 73 83.94 124.09 134.12 124.09"/><polygon style="fill:#f49323" points="132.46 126.14 132.12 125.77 133.93 124.09 132.12 122.42 132.46 122.05 134.66 124.09"/><line style="fill:none;stroke:#009147;stroke-width:.5;stroke-linecap:square;stroke-linejoin:round" x1="93.18" y1="20.01" x2="93.18" y2="49.67"/><polygon style="fill:#009147" points="91.14 48.01 91.51 47.67 93.18 49.47 94.86 47.67 95.23 48.01 93.18 50.21"/><polyline style="fill:none;stroke:#3a53a4;stroke-width:.5;stroke-linecap:square;stroke-linejoin:round" points="93.18 72.83 93.18 114.68 134.66 114.68"/><polygon style="fill:#3a53a4" points="91.14 74.49 91.51 74.83 93.18 73.02 94.86 74.83 95.23 74.49 93.18 72.29"/><line style="fill:none;stroke:#3a53a4;stroke-width:.5;stroke-linecap:square;stroke-linejoin:round" x1="152.94" y1="130.53" x2="152.94" y2="147.87"/><polygon style="fill:#3a53a4" points="150.9 146.22 151.27 145.87 152.94 147.68 154.62 145.87 154.99 146.22 152.94 148.41"/><line style="fill:none;stroke:#009147;stroke-width:.5;stroke-linecap:square;stroke-linejoin:round" x1="160.62" y1="131.08" x2="160.62" y2="148.41"/><polygon style="fill:#009147" points="158.58 132.73 158.95 133.08 160.62 131.27 162.3 133.08 162.67 132.73 160.62 130.53"/><polyline style="fill:none;stroke:#3a53a4;stroke-width:.5;stroke-linecap:square;stroke-linejoin:round" points="218.7 72.83 218.7 114.68 179.22 114.68"/><polygon style="fill:#3a53a4" points="216.66 74.49 217.02 74.83 218.7 73.02 220.38 74.83 220.75 74.49 218.7 72.29"/><polyline style="fill:none;stroke:#ed1f24;stroke-width:.5;stroke-linecap:square;stroke-linejoin:round" points="228.07 73 228.07 124.09 179.92 124.09"/><polygon style="fill:#ed1f24" points="181.58 122.05 181.92 122.42 180.12 124.09 181.92 125.77 181.58 126.14 179.38 124.09"/><line style="fill:none;stroke:#ed1f24;stroke-width:.5;stroke-linecap:square;stroke-linejoin:round" x1="218.84" y1="20.32" x2="218.84" y2="50.36"/><polygon style="fill:#ed1f24" points="216.8 21.97 217.16 22.31 218.84 20.51 220.52 22.31 220.89 21.97 218.84 19.77"/><line style="fill:none;stroke:#009147;stroke-width:.5;stroke-linecap:square;stroke-linejoin:round" x1="228.09" y1="20.07" x2="228.09" y2="49.8"/><polygon style="fill:#009147" points="226.05 48.15 226.41 47.81 228.09 49.61 229.77 47.81 230.13 48.15 228.09 50.35"/><polyline style="fill:none;stroke:#ed1f24;stroke-width:.5;stroke-miterlimit:10" points="248.07 56.64 260.42 56.64 260.42 66.82 248.61 66.82"/><polygon style="fill:#ed1f24" points="250.27 64.78 250.61 65.14 248.8 66.82 250.61 68.5 250.27 68.87 248.07 66.82"/><line style="fill:none;stroke:#f49323;stroke-width:.5;stroke-linecap:square;stroke-linejoin:round" x1="110.76" y1="56.64" x2="203.05" y2="56.64"/><polygon style="fill:#f49323" points="201.39 58.68 201.05 58.31 202.86 56.64 201.05 54.96 201.39 54.59 203.59 56.64"/><line style="fill:none;stroke:#ed1f24;stroke-width:.5;stroke-linecap:square;stroke-linejoin:round" x1="111.54" y1="66.84" x2="203.84" y2="66.84"/><polygon style="fill:#ed1f24" points="113.2 68.88 113.54 68.52 111.73 66.84 113.54 65.16 113.2 64.8 111 66.84"/><text transform="rotate(90 137.375 161.002)"><tspan x="0" y="0" style="font-family:'Asap-Regular';font-size:6px">B</tspan><tspan x="3.56" y="0" style="font-family:'Asap-Regular';font-size:6px">I</tspan><tspan x="5.25" y="0" style="font-family:'Asap-Regular';font-size:6px">O</tspan><tspan x="9.62" y="0" style="font-family:'Asap-Regular';font-size:6px">S</tspan><tspan x="12.61" y="0" style="font-family:'Asap-Regular';font-size:6px">P</tspan><tspan x="16.03" y="0" style="font-family:'Asap-Regular';font-size:6px">H</tspan><tspan x="20.44" y="0" style="font-family:'Asap-Regular';font-size:6px">E</tspan><tspan x="23.73" y="0" style="font-family:'Asap-Regular';font-size:6px">R</tspan><tspan x="27.38" y="0" style="font-family:'Asap-Regular';font-size:6px">E AND PHYSICAL ENVIRONMENT</tspan></text><text transform="rotate(-90 76.542 61.564)"><tspan x="0" y="0" style="font-family:'Asap-Regular';font-size:6px">B</tspan><tspan x="3.56" y="0" style="font-family:'Asap-Regular';font-size:6px">I</tspan><tspan x="5.25" y="0" style="font-family:'Asap-Regular';font-size:6px">O</tspan><tspan x="9.62" y="0" style="font-family:'Asap-Regular';font-size:6px">S</tspan><tspan x="12.61" y="0" style="font-family:'Asap-Regular';font-size:6px">P</tspan><tspan x="16.03" y="0" style="font-family:'Asap-Regular';font-size:6px">H</tspan><tspan x="20.44" y="0" style="font-family:'Asap-Regular';font-size:6px">E</tspan><tspan x="23.73" y="0" style="font-family:'Asap-Regular';font-size:6px">R</tspan><tspan x="27.38" y="0" style="font-family:'Asap-Regular';font-size:6px">E AND PHYSICAL ENVIRONMENT</tspan></text><text transform="translate(115.032 15.216)"><tspan x="0" y="0" style="font-family:'Asap-Regular';font-size:6px">An</tspan><tspan x="7.03" y="0" style="font-family:'Asap-Regular';font-size:6px">i</tspan><tspan x="8.61" y="0" style="font-family:'Asap-Regular';font-size:6px">m</tspan><tspan x="13.7" y="0" style="font-family:'Asap-Regular';font-size:6px">a</tspan><tspan x="16.97" y="0" style="font-family:'Asap-Regular';font-size:6px">l</tspan><tspan x="18.74" y="0" style="font-family:'Asap-Regular';font-size:6px">s</tspan></text><text transform="translate(235.176 15.049)"><tspan x="0" y="0" style="font-family:'Asap-Regular';font-size:6px">So</tspan><tspan x="6.41" y="0" style="font-family:'Asap-Regular';font-size:6px">i</tspan><tspan x="7.99" y="0" style="font-family:'Asap-Regular';font-size:6px">l</tspan></text><text transform="translate(63.9 14.877)"><tspan x="0" y="0" style="font-family:'Asap-Regular';font-size:6px">Pl</tspan><tspan x="5.17" y="0" style="font-family:'Asap-Regular';font-size:6px">a</tspan><tspan x="8.44" y="0" style="font-family:'Asap-Regular';font-size:6px">n</tspan><tspan x="11.75" y="0" style="font-family:'Asap-Regular';font-size:6px">t</tspan><tspan x="13.8" y="0" style="font-family:'Asap-Regular';font-size:6px">s</tspan></text><text transform="translate(184.422 15.049)"><tspan x="0" y="0" style="font-family:'Asap-Regular';font-size:6px">La</tspan><tspan x="6.17" y="0" style="font-family:'Asap-Regular';font-size:6px">nd</tspan></text><text transform="translate(225.667 157.894)"><tspan x="0" y="0" style="font-family:'Asap-Regular';font-size:6px">W</tspan><tspan x="5.08" y="0" style="font-family:'Asap-Regular';font-size:6px">a</tspan><tspan x="8.32" y="0" style="font-family:'Asap-Regular';font-size:6px">t</tspan><tspan x="10.28" y="0" style="font-family:'Asap-Regular';font-size:6px">e</tspan><tspan x="13.53" y="0" style="font-family:'Asap-Regular';font-size:6px">r</tspan></text><text transform="translate(65.907 157.894)"><tspan x="0" y="0" style="font-family:'Asap-Regular';font-size:6px">E</tspan><tspan x="3.27" y="0" style="font-family:'Asap-Regular';font-size:6px">ne</tspan><tspan x="9.86" y="0" style="font-family:'Asap-Regular';font-size:6px">r</tspan><tspan x="11.97" y="0" style="font-family:'Asap-Regular';font-size:6px">g</tspan><tspan x="15.26" y="0" style="font-family:'Asap-Regular';font-size:6px">y</tspan></text><text transform="translate(112.417 157.55)"><tspan x="0" y="0" style="font-family:'Asap-Regular';font-size:6px">M</tspan><tspan x="5.05" y="0" style="font-family:'Asap-Regular';font-size:6px">i</tspan><tspan x="6.63" y="0" style="font-family:'Asap-Regular';font-size:6px">n</tspan><tspan x="9.98" y="0" style="font-family:'Asap-Regular';font-size:6px">e</tspan><tspan x="13.22" y="0" style="font-family:'Asap-Regular';font-size:6px">r</tspan><tspan x="15.29" y="0" style="font-family:'Asap-Regular';font-size:6px">a</tspan><tspan x="18.56" y="0" style="font-family:'Asap-Regular';font-size:6px">l</tspan><tspan x="20.33" y="0" style="font-family:'Asap-Regular';font-size:6px">s</tspan></text><text transform="translate(184.739 157.55)"><tspan x="0" y="0" style="font-family:'Asap-Regular';font-size:6px">A</tspan><tspan x="3.68" y="0" style="font-family:'Asap-Regular';font-size:6px">i</tspan><tspan x="5.26" y="0" style="font-family:'Asap-Regular';font-size:6px">r</tspan></text><text transform="translate(137.731 122.43)" style="fill:#3a53a4;font-family:'Asap-Bold';font-size:6px">HOUSEHOLDS</text><rect x="134.66" y="109.61" style="fill:none;stroke:#3a53a4;stroke-width:.5;stroke-linecap:square" width="44.33" height="20.92"/><text transform="translate(217.087 63.547)"><tspan x="0" y="0" style="fill:#ed1f24;font-family:'Asap-Bold';font-size:6px">FIRMS</tspan></text><rect x="203.59" y="51.27" style="fill:none;stroke:#ed1f24;stroke-width:.5;stroke-linecap:square" width="44.33" height="20.92"/><g><text transform="translate(68.908 64.183)" style="fill:#f49323;font-family:'Asap-Bold';font-size:6px">GOVERNMENT</text><rect x="66.34" y="51.27" style="fill:none;stroke:#f49323;stroke-width:.5;stroke-linecap:square" width="44.33" height="20.92"/></g><text transform="translate(36.964 63.547)" style="font-family:'Asap-Regular';font-size:6px">Laws</text><text transform="translate(54.145 36.52)" style="font-family:'Asap-Regular';font-size:6px">Pollution</text><text transform="translate(98.466 36.52)" style="font-family:'Asap-Regular';font-size:6px">Resources</text><text transform="translate(47.917 94.061)"><tspan x="0" y="0" style="font-family:'Asap-Regular';font-size:6px">Laws</tspan><tspan x="-12.9" y="7.2" style="font-family:'Asap-Regular';font-size:6px">Public services</tspan></text><text transform="translate(101.706 94.876)"><tspan x="0" y="0" style="font-family:'Asap-Regular';font-size:6px">Taxes</tspan><tspan x="-1.68" y="7.2" style="font-family:'Asap-Regular';font-size:6px">Labour</tspan></text><text transform="translate(123.437 140.475)" style="font-family:'Asap-Regular';font-size:6px">Pollution</text><text transform="translate(165.677 140.475)" style="font-family:'Asap-Regular';font-size:6px">Resources</text><text transform="translate(150.212 94.876)"><tspan x="0" y="0" style="font-family:'Asap-Regular';font-size:6px">Care</tspan><tspan x="-15.54" y="7.2" style="font-family:'Asap-Regular';font-size:6px">Household work</tspan></text><text transform="translate(197.49 98.832)" style="font-family:'Asap-Regular';font-size:6px">Labour</text><text transform="translate(236.107 94.115)"><tspan x="0" y="0" style="font-family:'Asap-Regular';font-size:6px">Goods and</tspan><tspan x="3.57" y="7.2" style="font-family:'Asap-Regular';font-size:6px">services</tspan></text><text transform="translate(189.05 36.674)" style="font-family:'Asap-Regular';font-size:6px">Pollution</text><text transform="translate(233.371 36.674)" style="font-family:'Asap-Regular';font-size:6px">Resources</text><text transform="translate(262.244 55.116)"><tspan x="0" y="0" style="font-family:'Asap-Regular';font-size:6px">Machinery</tspan><tspan x="8.94" y="7.2" style="font-family:'Asap-Regular';font-size:6px">and</tspan><tspan x="1.84" y="14.4" style="font-family:'Asap-Regular';font-size:6px">buildings</tspan></text><text transform="translate(149.338 46.224)"><tspan x="0" y="0" style="font-family:'Asap-Regular';font-size:6px">Laws</tspan><tspan x="-12.9" y="7.2" style="font-family:'Asap-Regular';font-size:6px">Public services</tspan></text><text transform="translate(149.824 73.862)"><tspan x="0" y="0" style="font-family:'Asap-Regular';font-size:6px">Taxes</tspan><tspan x="-17.73" y="7.2" style="font-family:'Asap-Regular';font-size:6px">Goods and services</tspan></text></svg>