<svg version="1.1" xmlns="http://www.w3.org/2000/svg" x="0" y="0" viewBox="0 0 311.81 159.82" style="enable-background:new 0 0 311.81 159.82" xml:space="preserve"><rect x="109.81" y="4.95" style="fill:#f3e9f3" width="54.03" height="49.54"/><rect x="82.79" y="4.95" style="fill:#e3e3f2" width="27.02" height="74.31"/><rect x="109.29" y="54.5" style="fill:#e3e3f2" width="54.34" height="24.37"/><line style="fill:none;stroke:#939598;stroke-width:.5;stroke-linejoin:round" x1="30.91" y1="104.04" x2="31.61" y2="104.04"/><line style="fill:none;stroke:#939598;stroke-width:.5;stroke-linejoin:round;stroke-dasharray:1.4316,1.4316" x1="33.05" y1="104.04" x2="135.4" y2="104.04"/><line style="fill:none;stroke:#939598;stroke-width:.5;stroke-linejoin:round" x1="136.12" y1="104.04" x2="136.83" y2="104.04"/><line style="fill:none;stroke:#939598;stroke-width:.5;stroke-linejoin:round;stroke-dasharray:1.4173" x1="136.83" y1="104.04" x2="136.83" y2="128.58"/><circle cx="136.83" cy="104.04" r="1.13"/><line style="fill:none;stroke:#939598;stroke-width:.5;stroke-linejoin:round;stroke-dasharray:1.4173" x1="55.78" y1="29.73" x2="28.99" y2="29.73"/><polyline style="fill:none;stroke:#b9519e;stroke-width:.5;stroke-miterlimit:10" points="109.81 4.95 109.81 54.5 163.85 54.5"/><polyline style="fill:none;stroke:#3a53a4;stroke-width:.5;stroke-miterlimit:10" points="82.79 4.95 82.79 79.27 163.85 79.27"/><text transform="translate(27.61 141.187)" style="font-family:'Asap-Regular';font-size:7px">0</text><text transform="translate(53.693 141.187)" style="font-family:'Asap-Regular';font-size:7px">1</text><text transform="translate(17.929 106.499)" style="font-family:'Asap-Regular';font-size:7px">1</text><text transform="translate(81.121 141.187)" style="font-family:'Asap-Regular';font-size:7px">2</text><text transform="translate(17.929 82.297)" style="font-family:'Asap-Regular';font-size:7px">2</text><text transform="translate(107.474 141.187)" style="font-family:'Asap-Regular';font-size:7px">3</text><text transform="translate(17.929 56.483)" style="font-family:'Asap-Regular';font-size:7px">3</text><text transform="translate(135.17 141.187)" style="font-family:'Asap-Regular';font-size:7px">4</text><text transform="translate(17.929 32.013)" style="font-family:'Asap-Regular';font-size:7px">4</text><text transform="translate(161.792 141.187)" style="font-family:'Asap-Regular';font-size:7px">5</text><text transform="translate(17.929 7.273)" style="font-family:'Asap-Regular';font-size:7px">5</text><text transform="translate(17.929 131.507)" style="font-family:'Asap-Regular';font-size:7px">0</text><line style="fill:none;stroke:#939598;stroke-width:.5;stroke-linejoin:round" x1="82.79" y1="127.21" x2="82.79" y2="126.5"/><line style="fill:none;stroke:#939598;stroke-width:.5;stroke-linejoin:round;stroke-dasharray:1.4097,1.4097" x1="82.79" y1="125.09" x2="82.79" y2="80.68"/><polyline style="fill:none;stroke:#939598;stroke-width:.5;stroke-linejoin:round" points="82.79 79.98 82.79 79.27 82.09 79.27"/><line style="fill:none;stroke:#939598;stroke-width:.5;stroke-linejoin:round;stroke-dasharray:1.442,1.442" x1="80.64" y1="79.27" x2="32.34" y2="79.27"/><line style="fill:none;stroke:#939598;stroke-width:.5;stroke-linejoin:round" x1="31.61" y1="79.27" x2="30.91" y2="79.27"/><polyline style="fill:none;stroke:#939598;stroke-width:.5;stroke-linejoin:round;stroke-dasharray:1.4173" points="30.91 54.5 109.81 54.5 109.81 128.58"/><line style="fill:none;stroke:#939598;stroke-width:.5;stroke-linejoin:round;stroke-dasharray:1.4173" x1="55.78" y1="127.21" x2="55.78" y2="29.73"/><circle cx="82.79" cy="79.56" r="1.13"/><circle cx="55.78" cy="29.73" r="1.13"/><circle cx="109.81" cy="54.5" r="1.13"/><rect x="189.34" y="4.55" style="fill:#f2e8f3" width="16.55" height="16.55"/><rect x="189.34" y="24.39" style="fill:#e3e3f2" width="16.55" height="16.55"/><text transform="translate(142.232 100.364)" style="font-family:'Asap-Regular';font-size:6.4537px">T, I</text><text transform="translate(46.53 26.201)" style="font-family:'Asap-Regular';font-size:6px">I, T</text><text transform="translate(189.154 98.796)" style="font-family:'Asap-Regular';font-size:6px">I, I = Both use Integrated Pest Control (IPC)</text><text transform="translate(210.477 15.148)" style="font-family:'Asap-Regular';font-size:6px">Outcomes better for both than I, I</text><text transform="translate(210.477 34.842)" style="font-family:'Asap-Regular';font-size:6px">Outcomes better for both than T, T</text><text transform="translate(112.41 51.155)" style="font-family:'Asap-Regular';font-size:6.4537px">I, I</text><text transform="translate(71.538 88.263)" style="font-family:'Asap-Regular';font-size:6px">T, T</text><text transform="translate(77.157 155.708)" style="font-family:'Asap-Medium';font-size:8px">Anil’s pay-off</text><text transform="rotate(-90 51.542 41.782)" style="font-family:'Asap-Medium';font-size:8px">Bala’s pay-off</text><text transform="translate(187.944 138.061)" style="font-family:'Asap-Regular';font-size:6px">I, T = Anil uses IPC, Bala uses Toxic Tide</text><text transform="translate(187.824 124.969)" style="font-family:'Asap-Regular';font-size:6px">T, I = Anil uses Toxic Tide, Bala uses IPC</text><text transform="translate(186.154 112.062)" style="font-family:'Asap-Regular';font-size:6px">T, T = Both use Toxic Tide</text><g><line style="fill:none;stroke:#6d6e71;stroke-width:.5378;stroke-linecap:square;stroke-linejoin:round" x1="28.36" y1="4.95" x2="26.24" y2="4.95"/><line style="fill:none;stroke:#6d6e71;stroke-width:.5378;stroke-linecap:square;stroke-linejoin:round" x1="28.36" y1="29.73" x2="26.24" y2="29.73"/><line style="fill:none;stroke:#6d6e71;stroke-width:.5378;stroke-linecap:square;stroke-linejoin:round" x1="28.36" y1="54.5" x2="26.24" y2="54.5"/><line style="fill:none;stroke:#6d6e71;stroke-width:.5378;stroke-linecap:square;stroke-linejoin:round" x1="28.36" y1="79.27" x2="26.24" y2="79.27"/><line style="fill:none;stroke:#6d6e71;stroke-width:.5378;stroke-linecap:square;stroke-linejoin:round" x1="28.36" y1="104.04" x2="26.24" y2="104.04"/><line style="fill:none;stroke:#6d6e71;stroke-width:.5378;stroke-linecap:square;stroke-linejoin:round" x1="28.36" y1="128.81" x2="26.24" y2="128.81"/><line style="fill:none;stroke:#6d6e71;stroke-width:.5378;stroke-linecap:square;stroke-linejoin:round" x1="28.76" y1="128.81" x2="28.76" y2="4.95"/><line style="fill:none;stroke:#6d6e71;stroke-width:.5378;stroke-linecap:square;stroke-linejoin:round" x1="28.76" y1="128.81" x2="163.85" y2="128.81"/><g><line style="fill:none;stroke:#6d6e71;stroke-width:.5378;stroke-linecap:square;stroke-linejoin:round" x1="163.85" y1="129.21" x2="163.85" y2="131.33"/><line style="fill:none;stroke:#6d6e71;stroke-width:.5378;stroke-linecap:square;stroke-linejoin:round" x1="109.81" y1="129.21" x2="109.81" y2="131.33"/><line style="fill:none;stroke:#6d6e71;stroke-width:.5378;stroke-linecap:square;stroke-linejoin:round" x1="82.79" y1="129.21" x2="82.79" y2="131.33"/><line style="fill:none;stroke:#6d6e71;stroke-width:.5378;stroke-linecap:square;stroke-linejoin:round" x1="55.78" y1="129.21" x2="55.78" y2="131.33"/><line style="fill:none;stroke:#6d6e71;stroke-width:.5378;stroke-linecap:square;stroke-linejoin:round" x1="28.76" y1="129.21" x2="28.76" y2="131.33"/><line style="fill:none;stroke:#6d6e71;stroke-width:.5378;stroke-linecap:square;stroke-linejoin:round" x1="136.83" y1="129.21" x2="136.83" y2="131.33"/></g></g></svg>