<svg xmlns="http://www.w3.org/2000/svg" viewBox="0 0 810 426"><rect width="100%" height="100%" style="stroke:none;fill:#fff;stroke-linecap:round;stroke-linejoin:round;stroke-miterlimit:10"/><rect x="0" y="0" width="810" height="426" style="stroke-width:1.07;stroke:#fff;fill:#fff;stroke-linecap:round;stroke-linejoin:round;stroke-miterlimit:10"/><rect x="93.34" y="14.17" width="688.32" height="330.93" style="stroke-width:1.07;stroke:none;fill:#fff;stroke-linecap:round;stroke-linejoin:round;stroke-miterlimit:10"/><polyline points="93.34 345.1 781.65 345.1" style="stroke-width:1.07;stroke:#c6c4c4;stroke-linecap:butt;fill:none;stroke-linejoin:round;stroke-miterlimit:10"/><polyline points="93.34 262.37 781.65 262.37" style="stroke-width:1.07;stroke:#c6c4c4;stroke-linecap:butt;fill:none;stroke-linejoin:round;stroke-miterlimit:10"/><polyline points="93.34 179.64 781.65 179.64" style="stroke-width:1.07;stroke:#c6c4c4;stroke-linecap:butt;fill:none;stroke-linejoin:round;stroke-miterlimit:10"/><polyline points="93.34 96.91 781.65 96.91" style="stroke-width:1.07;stroke:#c6c4c4;stroke-linecap:butt;fill:none;stroke-linejoin:round;stroke-miterlimit:10"/><polyline points="93.34 14.17 781.65 14.17" style="stroke-width:1.07;stroke:#c6c4c4;stroke-linecap:butt;fill:none;stroke-linejoin:round;stroke-miterlimit:10"/><polyline points="429.06 229.69 459.43 271.73 459.19 225.77 479.5 234 435.5 205.74 415.45 167.83 395.52 224.92 337.33 228 311.48 172.39 311 133.8 286.83 104.08 287.34 102.75 275.06 94.24 268.03 66.69 263.32 44.64 266.1 100.53 249.8 50.5 250.26 50.81 253.09 50.63 257.16 52.63 258.73 80.07 252.66 37.01 269.54 63.46 286.58 87.65 295.78 119.98 301.19 137.53 299.32 171.54 316.42 194.94 314.31 179.43 334.26 172.1 337.97 169.29 379.68 245.62 396.27 225.55 419.12 250.01" style="stroke-width:1.2;stroke:#ed1f24;stroke-linecap:butt;fill:none;stroke-linejoin:round;stroke-miterlimit:10"/><line x1="429.06" y1="229.69" x2="566.73" y2="262.78" style="stroke-width:.53;stroke-linecap:butt;fill:none;stroke:#000;stroke-linejoin:round;stroke-miterlimit:10"/><line x1="459.43" y1="271.73" x2="542.03" y2="282.76" style="stroke-width:.53;stroke-linecap:butt;fill:none;stroke:#000;stroke-linejoin:round;stroke-miterlimit:10"/><line x1="415.45" y1="167.83" x2="415.45" y2="156.8" style="stroke-width:.53;stroke-linecap:butt;fill:none;stroke:#000;stroke-linejoin:round;stroke-miterlimit:10"/><line x1="337.33" y1="228" x2="268.49" y2="233.51" style="stroke-width:.53;stroke-linecap:butt;fill:none;stroke:#000;stroke-linejoin:round;stroke-miterlimit:10"/><line x1="311" y1="133.8" x2="242.17" y2="133.8" style="stroke-width:.53;stroke-linecap:butt;fill:none;stroke:#000;stroke-linejoin:round;stroke-miterlimit:10"/><line x1="263.32" y1="44.64" x2="332.15" y2="44.64" style="stroke-width:.53;stroke-linecap:butt;fill:none;stroke:#000;stroke-linejoin:round;stroke-miterlimit:10"/><line x1="266.1" y1="100.53" x2="197.26" y2="111.56" style="stroke-width:.53;stroke-linecap:butt;fill:none;stroke:#000;stroke-linejoin:round;stroke-miterlimit:10"/><line x1="252.66" y1="37.01" x2="149.41" y2="37.01" style="stroke-width:.53;stroke-linecap:butt;fill:none;stroke:#000;stroke-linejoin:round;stroke-miterlimit:10"/><line x1="334.26" y1="172.1" x2="368.67" y2="133.49" style="stroke-width:.53;stroke-linecap:butt;fill:none;stroke:#000;stroke-linejoin:round;stroke-miterlimit:10"/><line x1="379.68" y1="245.62" x2="310.84" y2="251.13" style="stroke-width:.53;stroke-linecap:butt;fill:none;stroke:#000;stroke-linejoin:round;stroke-miterlimit:10"/><line x1="396.27" y1="225.55" x2="396.27" y2="280.71" style="stroke-width:.53;stroke-linecap:butt;fill:none;stroke:#000;stroke-linejoin:round;stroke-miterlimit:10"/><line x1="419.12" y1="250.01" x2="439.77" y2="294.14" style="stroke-width:.53;stroke-linecap:butt;fill:none;stroke:#000;stroke-linejoin:round;stroke-miterlimit:10"/><polygon points="547.42 271.3 586.04 271.3 585.95 271.3 586.3 271.28 586.64 271.21 586.96 271.09 587.27 270.91 587.53 270.69 587.77 270.43 587.95 270.14 588.09 269.82 588.17 269.48 588.2 269.14 588.2 269.14 588.2 256.43 588.2 256.43 588.17 256.08 588.09 255.75 587.95 255.43 587.77 255.13 587.53 254.87 587.27 254.65 586.96 254.48 586.64 254.35 586.3 254.28 586.04 254.27 547.42 254.27 547.68 254.28 547.33 254.27 546.98 254.31 546.65 254.41 546.34 254.56 546.05 254.76 545.8 255 545.59 255.27 545.43 255.58 545.32 255.91 545.26 256.26 545.26 256.43 545.26 269.14 545.26 268.96 545.26 269.31 545.32 269.65 545.43 269.98 545.59 270.29 545.8 270.57 546.05 270.81 546.34 271.01 546.65 271.16 546.98 271.25 547.33 271.3" style="stroke-width:nan;stroke:none;fill:#fff;stroke-linecap:round;stroke-linejoin:round;stroke-miterlimit:10"/><text x="548.86" y="267.7" style="font-size:14px;font-family:Asap" textLength="35.74" lengthAdjust="spacingAndGlyphs">1280s</text><polygon points="522.72 291.27 561.34 291.27 561.25 291.27 561.6 291.26 561.94 291.19 562.27 291.06 562.57 290.89 562.84 290.67 563.07 290.41 563.25 290.12 563.39 289.8 563.47 289.46 563.5 289.11 563.5 289.11 563.5 276.4 563.5 276.4 563.47 276.06 563.39 275.72 563.25 275.4 563.07 275.11 562.84 274.85 562.57 274.63 562.27 274.45 561.94 274.33 561.6 274.26 561.34 274.24 522.72 274.24 522.98 274.26 522.63 274.25 522.29 274.29 521.95 274.38 521.64 274.53 521.35 274.73 521.1 274.97 520.89 275.25 520.73 275.56 520.62 275.89 520.57 276.23 520.56 276.4 520.56 289.11 520.57 288.94 520.57 289.29 520.62 289.63 520.73 289.96 520.89 290.27 521.1 290.54 521.35 290.79 521.64 290.98 521.95 291.13 522.29 291.23 522.63 291.27" style="stroke-width:nan;stroke:none;fill:#fff;stroke-linecap:round;stroke-linejoin:round;stroke-miterlimit:10"/><text x="524.16" y="287.67" style="font-size:14px;font-family:Asap" textLength="35.74" lengthAdjust="spacingAndGlyphs">1290s</text><polygon points="396.14 165.32 434.77 165.32 434.68 165.31 435.03 165.3 435.37 165.23 435.69 165.11 435.99 164.93 436.26 164.71 436.49 164.45 436.68 164.16 436.81 163.84 436.9 163.5 436.93 163.16 436.93 163.16 436.93 150.45 436.93 150.45 436.9 150.1 436.81 149.76 436.68 149.44 436.49 149.15 436.26 148.89 435.99 148.67 435.69 148.5 435.37 148.37 435.03 148.3 434.77 148.29 396.14 148.29 396.4 148.3 396.06 148.29 395.71 148.33 395.38 148.43 395.06 148.58 394.78 148.77 394.53 149.02 394.32 149.29 394.16 149.6 394.05 149.93 393.99 150.27 393.98 150.45 393.98 163.16 393.99 162.98 393.99 163.33 394.05 163.67 394.16 164 394.32 164.31 394.53 164.59 394.78 164.83 395.06 165.03 395.38 165.18 395.71 165.27 396.06 165.31" style="stroke-width:nan;stroke:none;fill:#fff;stroke-linecap:round;stroke-linejoin:round;stroke-miterlimit:10"/><text x="397.58" y="161.72" style="font-size:14px;font-family:Asap" textLength="35.74" lengthAdjust="spacingAndGlyphs">1330s</text><polygon points="249.18 242.03 287.81 242.03 287.72 242.02 288.07 242.01 288.41 241.94 288.73 241.82 289.03 241.64 289.3 241.42 289.53 241.16 289.72 240.87 289.85 240.55 289.94 240.21 289.97 239.87 289.97 239.87 289.97 227.16 289.97 227.16 289.94 226.81 289.85 226.47 289.72 226.15 289.53 225.86 289.3 225.6 289.03 225.38 288.73 225.21 288.41 225.08 288.07 225.01 287.81 225 249.18 225 249.44 225.01 249.1 225 248.75 225.04 248.42 225.14 248.1 225.29 247.82 225.48 247.57 225.72 247.36 226 247.2 226.31 247.09 226.64 247.03 226.98 247.02 227.16 247.02 239.87 247.03 239.69 247.03 240.04 247.09 240.38 247.2 240.71 247.36 241.02 247.57 241.3 247.82 241.54 248.1 241.74 248.42 241.88 248.75 241.98 249.1 242.02" style="stroke-width:nan;stroke:none;fill:#fff;stroke-linecap:round;stroke-linejoin:round;stroke-miterlimit:10"/><text x="250.62" y="238.43" style="font-size:14px;font-family:Asap" textLength="35.74" lengthAdjust="spacingAndGlyphs">1350s</text><polygon points="222.86 142.32 261.48 142.32 261.39 142.31 261.74 142.3 262.08 142.23 262.41 142.11 262.71 141.93 262.98 141.71 263.21 141.45 263.39 141.16 263.53 140.84 263.61 140.5 263.64 140.16 263.64 140.16 263.64 127.45 263.64 127.45 263.61 127.1 263.53 126.76 263.39 126.44 263.21 126.15 262.98 125.89 262.71 125.67 262.41 125.5 262.08 125.37 261.74 125.3 261.48 125.29 222.86 125.29 223.12 125.3 222.77 125.29 222.43 125.33 222.09 125.43 221.78 125.58 221.49 125.77 221.24 126.02 221.03 126.29 220.87 126.6 220.76 126.93 220.71 127.27 220.7 127.45 220.7 140.16 220.71 139.98 220.71 140.33 220.76 140.67 220.87 141 221.03 141.31 221.24 141.59 221.49 141.83 221.78 142.03 222.09 142.18 222.43 142.27 222.77 142.31" style="stroke-width:nan;stroke:none;fill:#fff;stroke-linecap:round;stroke-linejoin:round;stroke-miterlimit:10"/><text x="224.3" y="138.72" style="font-size:14px;font-family:Asap" textLength="35.74" lengthAdjust="spacingAndGlyphs">1370s</text><polygon points="312.84 53.15 351.46 53.15 351.37 53.15 351.72 53.13 352.06 53.06 352.38 52.94 352.69 52.77 352.96 52.55 353.19 52.29 353.37 51.99 353.51 51.67 353.59 51.34 353.62 50.99 353.62 50.99 353.62 38.28 353.62 38.28 353.59 37.94 353.51 37.6 353.37 37.28 353.19 36.98 352.96 36.72 352.69 36.5 352.38 36.33 352.06 36.21 351.72 36.14 351.46 36.12 312.84 36.12 313.1 36.14 312.75 36.12 312.4 36.17 312.07 36.26 311.76 36.41 311.47 36.61 311.22 36.85 311.01 37.13 310.85 37.44 310.74 37.76 310.68 38.11 310.68 38.28 310.68 50.99 310.68 50.82 310.68 51.16 310.74 51.51 310.85 51.84 311.01 52.14 311.22 52.42 311.47 52.66 311.76 52.86 312.07 53.01 312.4 53.11 312.75 53.15" style="stroke-width:nan;stroke:none;fill:#fff;stroke-linecap:round;stroke-linejoin:round;stroke-miterlimit:10"/><text x="314.28" y="49.55" style="font-size:14px;font-family:Asap" textLength="35.74" lengthAdjust="spacingAndGlyphs">1420s</text><polygon points="177.95 120.08 216.58 120.08 216.49 120.08 216.84 120.06 217.18 119.99 217.5 119.87 217.8 119.7 218.07 119.48 218.3 119.22 218.49 118.92 218.62 118.6 218.71 118.26 218.74 117.92 218.74 117.92 218.74 105.21 218.74 105.21 218.71 104.86 218.62 104.53 218.49 104.21 218.3 103.91 218.07 103.65 217.8 103.43 217.5 103.26 217.18 103.14 216.84 103.07 216.58 103.05 177.95 103.05 178.21 103.07 177.87 103.05 177.52 103.09 177.19 103.19 176.87 103.34 176.59 103.54 176.34 103.78 176.13 104.06 175.97 104.36 175.86 104.69 175.8 105.04 175.79 105.21 175.79 117.92 175.8 117.74 175.8 118.09 175.86 118.43 175.97 118.76 176.13 119.07 176.34 119.35 176.59 119.59 176.87 119.79 177.19 119.94 177.52 120.03 177.87 120.08" style="stroke-width:nan;stroke:none;fill:#fff;stroke-linecap:round;stroke-linejoin:round;stroke-miterlimit:10"/><text x="179.39" y="116.48" style="font-size:14px;font-family:Asap" textLength="35.74" lengthAdjust="spacingAndGlyphs">1430s</text><polygon points="130.1 45.53 168.72 45.53 168.64 45.53 168.99 45.51 169.33 45.44 169.65 45.32 169.95 45.15 170.22 44.93 170.45 44.67 170.64 44.37 170.77 44.05 170.86 43.71 170.88 43.37 170.88 43.37 170.88 30.66 170.88 30.66 170.86 30.31 170.77 29.98 170.64 29.66 170.45 29.36 170.22 29.1 169.95 28.88 169.65 28.71 169.33 28.59 168.99 28.52 168.72 28.5 130.1 28.5 130.36 28.52 130.02 28.5 129.67 28.54 129.34 28.64 129.02 28.79 128.74 28.99 128.49 29.23 128.28 29.51 128.12 29.81 128.01 30.14 127.95 30.49 127.94 30.66 127.94 43.37 127.95 43.19 127.95 43.54 128.01 43.88 128.12 44.21 128.28 44.52 128.49 44.8 128.74 45.04 129.02 45.24 129.34 45.39 129.67 45.48 130.02 45.53" style="stroke-width:nan;stroke:none;fill:#fff;stroke-linecap:round;stroke-linejoin:round;stroke-miterlimit:10"/><text x="131.54" y="41.93" style="font-size:14px;font-family:Asap" textLength="35.74" lengthAdjust="spacingAndGlyphs">1490s</text><polygon points="349.36 142.01 387.98 142.01 387.9 142.01 388.24 141.99 388.58 141.92 388.91 141.8 389.21 141.63 389.48 141.41 389.71 141.15 389.9 140.85 390.03 140.53 390.12 140.19 390.14 139.85 390.14 139.85 390.14 127.14 390.14 127.14 390.12 126.79 390.03 126.46 389.9 126.14 389.71 125.84 389.48 125.58 389.21 125.36 388.91 125.19 388.58 125.06 388.24 125 387.98 124.98 349.36 124.98 349.62 125 349.27 124.98 348.93 125.02 348.6 125.12 348.28 125.27 348 125.47 347.74 125.71 347.54 125.99 347.37 126.29 347.26 126.62 347.21 126.97 347.2 127.14 347.2 139.85 347.21 139.67 347.21 140.02 347.26 140.36 347.37 140.69 347.54 141 347.74 141.28 348 141.52 348.28 141.72 348.6 141.87 348.93 141.96 349.27 142.01" style="stroke-width:nan;stroke:none;fill:#fff;stroke-linecap:round;stroke-linejoin:round;stroke-miterlimit:10"/><text x="350.8" y="138.41" style="font-size:14px;font-family:Asap" textLength="35.74" lengthAdjust="spacingAndGlyphs">1570s</text><polygon points="291.53 259.65 330.16 259.65 330.07 259.65 330.42 259.63 330.76 259.56 331.08 259.44 331.38 259.27 331.65 259.05 331.88 258.79 332.07 258.49 332.2 258.17 332.29 257.83 332.32 257.49 332.32 257.49 332.32 244.78 332.32 244.78 332.29 244.43 332.2 244.1 332.07 243.78 331.88 243.48 331.65 243.22 331.38 243 331.08 242.83 330.76 242.71 330.42 242.64 330.16 242.62 291.53 242.62 291.79 242.64 291.45 242.62 291.1 242.66 290.77 242.76 290.45 242.91 290.17 243.11 289.92 243.35 289.71 243.63 289.55 243.93 289.44 244.26 289.38 244.61 289.37 244.78 289.37 257.49 289.38 257.31 289.38 257.66 289.44 258.01 289.55 258.33 289.71 258.64 289.92 258.92 290.17 259.16 290.45 259.36 290.77 259.51 291.1 259.6 291.45 259.65" style="stroke-width:nan;stroke:none;fill:#fff;stroke-linecap:round;stroke-linejoin:round;stroke-miterlimit:10"/><text x="292.97" y="256.05" style="font-size:14px;font-family:Asap" textLength="35.74" lengthAdjust="spacingAndGlyphs">1590s</text><polygon points="376.96 289.22 415.58 289.22 415.49 289.22 415.84 289.21 416.18 289.14 416.51 289.01 416.81 288.84 417.08 288.62 417.31 288.36 417.49 288.07 417.63 287.75 417.71 287.41 417.74 287.06 417.74 287.06 417.74 274.35 417.74 274.35 417.71 274.01 417.63 273.67 417.49 273.35 417.31 273.06 417.08 272.8 416.81 272.58 416.51 272.4 416.18 272.28 415.84 272.21 415.58 272.19 376.96 272.19 377.22 272.21 376.87 272.2 376.53 272.24 376.19 272.33 375.88 272.48 375.59 272.68 375.34 272.92 375.13 273.2 374.97 273.51 374.86 273.84 374.81 274.18 374.8 274.35 374.8 287.06 374.81 286.89 374.81 287.24 374.86 287.58 374.97 287.91 375.13 288.22 375.34 288.49 375.59 288.74 375.88 288.93 376.19 289.08 376.53 289.18 376.87 289.22" style="stroke-width:nan;stroke:none;fill:#fff;stroke-linecap:round;stroke-linejoin:round;stroke-miterlimit:10"/><text x="378.4" y="285.62" style="font-size:14px;font-family:Asap" textLength="35.74" lengthAdjust="spacingAndGlyphs">1600s</text><polygon points="420.46 302.65 459.08 302.65 459 302.65 459.35 302.64 459.69 302.57 460.01 302.44 460.31 302.27 460.58 302.05 460.81 301.79 461 301.5 461.13 301.18 461.22 300.84 461.24 300.49 461.24 300.49 461.24 287.78 461.24 287.78 461.22 287.44 461.13 287.1 461 286.78 460.81 286.49 460.58 286.23 460.31 286.01 460.01 285.83 459.69 285.71 459.35 285.64 459.08 285.62 420.46 285.62 420.72 285.64 420.38 285.63 420.03 285.67 419.7 285.76 419.38 285.91 419.1 286.11 418.85 286.35 418.64 286.63 418.48 286.94 418.37 287.27 418.31 287.61 418.3 287.78 418.3 300.49 418.31 300.32 418.31 300.67 418.37 301.01 418.48 301.34 418.64 301.65 418.85 301.92 419.1 302.17 419.38 302.36 419.7 302.51 420.03 302.61 420.38 302.65" style="stroke-width:nan;stroke:none;fill:#fff;stroke-linecap:round;stroke-linejoin:round;stroke-miterlimit:10"/><text x="421.9" y="299.05" style="font-size:14px;font-family:Asap" textLength="35.74" lengthAdjust="spacingAndGlyphs">1610s</text><circle cx="429.06" cy="229.69" r="2.2" style="stroke-width:1.2;stroke:#ed1f24;fill:#ed1f24;stroke-linecap:round;stroke-linejoin:round;stroke-miterlimit:10"/><circle cx="459.43" cy="271.73" r="2.2" style="stroke-width:1.2;stroke:#ed1f24;fill:#ed1f24;stroke-linecap:round;stroke-linejoin:round;stroke-miterlimit:10"/><circle cx="459.19" cy="225.77" r="2.2" style="stroke-width:1.2;stroke:#ed1f24;fill:#ed1f24;stroke-linecap:round;stroke-linejoin:round;stroke-miterlimit:10"/><circle cx="479.5" cy="234" r="2.2" style="stroke-width:1.2;stroke:#ed1f24;fill:#ed1f24;stroke-linecap:round;stroke-linejoin:round;stroke-miterlimit:10"/><circle cx="435.5" cy="205.74" r="2.2" style="stroke-width:1.2;stroke:#ed1f24;fill:#ed1f24;stroke-linecap:round;stroke-linejoin:round;stroke-miterlimit:10"/><circle cx="415.45" cy="167.83" r="2.2" style="stroke-width:1.2;stroke:#ed1f24;fill:#ed1f24;stroke-linecap:round;stroke-linejoin:round;stroke-miterlimit:10"/><circle cx="395.52" cy="224.92" r="2.2" style="stroke-width:1.2;stroke:#ed1f24;fill:#ed1f24;stroke-linecap:round;stroke-linejoin:round;stroke-miterlimit:10"/><circle cx="337.33" cy="228" r="2.2" style="stroke-width:1.2;stroke:#ed1f24;fill:#ed1f24;stroke-linecap:round;stroke-linejoin:round;stroke-miterlimit:10"/><circle cx="311.48" cy="172.39" r="2.2" style="stroke-width:1.2;stroke:#ed1f24;fill:#ed1f24;stroke-linecap:round;stroke-linejoin:round;stroke-miterlimit:10"/><circle cx="311" cy="133.8" r="2.2" style="stroke-width:1.2;stroke:#ed1f24;fill:#ed1f24;stroke-linecap:round;stroke-linejoin:round;stroke-miterlimit:10"/><circle cx="286.83" cy="104.08" r="2.2" style="stroke-width:1.2;stroke:#ed1f24;fill:#ed1f24;stroke-linecap:round;stroke-linejoin:round;stroke-miterlimit:10"/><circle cx="287.34" cy="102.75" r="2.2" style="stroke-width:1.2;stroke:#ed1f24;fill:#ed1f24;stroke-linecap:round;stroke-linejoin:round;stroke-miterlimit:10"/><circle cx="275.06" cy="94.24" r="2.2" style="stroke-width:1.2;stroke:#ed1f24;fill:#ed1f24;stroke-linecap:round;stroke-linejoin:round;stroke-miterlimit:10"/><circle cx="268.03" cy="66.69" r="2.2" style="stroke-width:1.2;stroke:#ed1f24;fill:#ed1f24;stroke-linecap:round;stroke-linejoin:round;stroke-miterlimit:10"/><circle cx="263.32" cy="44.64" r="2.2" style="stroke-width:1.2;stroke:#ed1f24;fill:#ed1f24;stroke-linecap:round;stroke-linejoin:round;stroke-miterlimit:10"/><circle cx="266.1" cy="100.53" r="2.2" style="stroke-width:1.2;stroke:#ed1f24;fill:#ed1f24;stroke-linecap:round;stroke-linejoin:round;stroke-miterlimit:10"/><circle cx="249.8" cy="50.5" r="2.2" style="stroke-width:1.2;stroke:#ed1f24;fill:#ed1f24;stroke-linecap:round;stroke-linejoin:round;stroke-miterlimit:10"/><circle cx="250.26" cy="50.81" r="2.2" style="stroke-width:1.2;stroke:#ed1f24;fill:#ed1f24;stroke-linecap:round;stroke-linejoin:round;stroke-miterlimit:10"/><circle cx="253.09" cy="50.63" r="2.2" style="stroke-width:1.2;stroke:#ed1f24;fill:#ed1f24;stroke-linecap:round;stroke-linejoin:round;stroke-miterlimit:10"/><circle cx="257.16" cy="52.63" r="2.2" style="stroke-width:1.2;stroke:#ed1f24;fill:#ed1f24;stroke-linecap:round;stroke-linejoin:round;stroke-miterlimit:10"/><circle cx="258.73" cy="80.07" r="2.2" style="stroke-width:1.2;stroke:#ed1f24;fill:#ed1f24;stroke-linecap:round;stroke-linejoin:round;stroke-miterlimit:10"/><circle cx="252.66" cy="37.01" r="2.2" style="stroke-width:1.2;stroke:#ed1f24;fill:#ed1f24;stroke-linecap:round;stroke-linejoin:round;stroke-miterlimit:10"/><circle cx="269.54" cy="63.46" r="2.2" style="stroke-width:1.2;stroke:#ed1f24;fill:#ed1f24;stroke-linecap:round;stroke-linejoin:round;stroke-miterlimit:10"/><circle cx="286.58" cy="87.65" r="2.2" style="stroke-width:1.2;stroke:#ed1f24;fill:#ed1f24;stroke-linecap:round;stroke-linejoin:round;stroke-miterlimit:10"/><circle cx="295.78" cy="119.98" r="2.2" style="stroke-width:1.2;stroke:#ed1f24;fill:#ed1f24;stroke-linecap:round;stroke-linejoin:round;stroke-miterlimit:10"/><circle cx="301.19" cy="137.53" r="2.2" style="stroke-width:1.2;stroke:#ed1f24;fill:#ed1f24;stroke-linecap:round;stroke-linejoin:round;stroke-miterlimit:10"/><circle cx="299.32" cy="171.54" r="2.2" style="stroke-width:1.2;stroke:#ed1f24;fill:#ed1f24;stroke-linecap:round;stroke-linejoin:round;stroke-miterlimit:10"/><circle cx="316.42" cy="194.94" r="2.2" style="stroke-width:1.2;stroke:#ed1f24;fill:#ed1f24;stroke-linecap:round;stroke-linejoin:round;stroke-miterlimit:10"/><circle cx="314.31" cy="179.43" r="2.2" style="stroke-width:1.2;stroke:#ed1f24;fill:#ed1f24;stroke-linecap:round;stroke-linejoin:round;stroke-miterlimit:10"/><circle cx="334.26" cy="172.1" r="2.2" style="stroke-width:1.2;stroke:#ed1f24;fill:#ed1f24;stroke-linecap:round;stroke-linejoin:round;stroke-miterlimit:10"/><circle cx="337.97" cy="169.29" r="2.2" style="stroke-width:1.2;stroke:#ed1f24;fill:#ed1f24;stroke-linecap:round;stroke-linejoin:round;stroke-miterlimit:10"/><circle cx="379.68" cy="245.62" r="2.2" style="stroke-width:1.2;stroke:#ed1f24;fill:#ed1f24;stroke-linecap:round;stroke-linejoin:round;stroke-miterlimit:10"/><circle cx="396.27" cy="225.55" r="2.2" style="stroke-width:1.2;stroke:#ed1f24;fill:#ed1f24;stroke-linecap:round;stroke-linejoin:round;stroke-miterlimit:10"/><circle cx="419.12" cy="250.01" r="2.2" style="stroke-width:1.2;stroke:#ed1f24;fill:#ed1f24;stroke-linecap:round;stroke-linejoin:round;stroke-miterlimit:10"/><polygon points="425.26 233.49 432.87 233.49 432.87 225.89 425.26 225.89" style="stroke-width:1.2;stroke:none;fill:#000;stroke-linecap:round;stroke-linejoin:round;stroke-miterlimit:10"/><circle cx="419.12" cy="250.01" r="3.8" style="stroke-width:1.2;fill:#000;stroke:#000;stroke-linecap:round;stroke-linejoin:round;stroke-miterlimit:10"/><polyline points="93.34 345.1 93.34 14.17" style="stroke-width:1.07;stroke:#464646;stroke-linecap:butt;fill:none;stroke-linejoin:round;stroke-miterlimit:10"/><text x="57.03" y="349.51" style="font-size:18px;font-family:Asap" textLength="19.26" lengthAdjust="spacingAndGlyphs">40</text><text x="57.03" y="266.78" style="font-size:18px;font-family:Asap" textLength="19.26" lengthAdjust="spacingAndGlyphs">55</text><text x="57.03" y="184.05" style="font-size:18px;font-family:Asap" textLength="19.26" lengthAdjust="spacingAndGlyphs">70</text><text x="57.03" y="101.32" style="font-size:18px;font-family:Asap" textLength="19.26" lengthAdjust="spacingAndGlyphs">85</text><text x="47.4" y="18.58" style="font-size:18px;font-family:Asap" textLength="28.89" lengthAdjust="spacingAndGlyphs">100</text><polyline points="86.25 345.1 93.34 345.1" style="stroke-width:1.07;stroke:#464646;stroke-linecap:butt;fill:none;stroke-linejoin:round;stroke-miterlimit:10"/><polyline points="86.25 262.37 93.34 262.37" style="stroke-width:1.07;stroke:#464646;stroke-linecap:butt;fill:none;stroke-linejoin:round;stroke-miterlimit:10"/><polyline points="86.25 179.64 93.34 179.64" style="stroke-width:1.07;stroke:#464646;stroke-linecap:butt;fill:none;stroke-linejoin:round;stroke-miterlimit:10"/><polyline points="86.25 96.91 93.34 96.91" style="stroke-width:1.07;stroke:#464646;stroke-linecap:butt;fill:none;stroke-linejoin:round;stroke-miterlimit:10"/><polyline points="86.25 14.17 93.34 14.17" style="stroke-width:1.07;stroke:#464646;stroke-linecap:butt;fill:none;stroke-linejoin:round;stroke-miterlimit:10"/><polyline points="93.34 345.1 781.65 345.1" style="stroke-width:1.07;stroke:#464646;stroke-linecap:butt;fill:none;stroke-linejoin:round;stroke-miterlimit:10"/><polyline points="93.34 352.19 93.34 345.1" style="stroke-width:1.07;stroke:#464646;stroke-linecap:butt;fill:none;stroke-linejoin:round;stroke-miterlimit:10"/><polyline points="231 352.19 231 345.1" style="stroke-width:1.07;stroke:#464646;stroke-linecap:butt;fill:none;stroke-linejoin:round;stroke-miterlimit:10"/><polyline points="368.66 352.19 368.66 345.1" style="stroke-width:1.07;stroke:#464646;stroke-linecap:butt;fill:none;stroke-linejoin:round;stroke-miterlimit:10"/><polyline points="506.33 352.19 506.33 345.1" style="stroke-width:1.07;stroke:#464646;stroke-linecap:butt;fill:none;stroke-linejoin:round;stroke-miterlimit:10"/><polyline points="643.99 352.19 643.99 345.1" style="stroke-width:1.07;stroke:#464646;stroke-linecap:butt;fill:none;stroke-linejoin:round;stroke-miterlimit:10"/><polyline points="781.65 352.19 781.65 345.1" style="stroke-width:1.07;stroke:#464646;stroke-linecap:butt;fill:none;stroke-linejoin:round;stroke-miterlimit:10"/><text x="88.52" y="374.79" style="font-size:18px;font-family:Asap" textLength="9.63" lengthAdjust="spacingAndGlyphs">0</text><text x="226.18" y="374.79" style="font-size:18px;font-family:Asap" textLength="9.63" lengthAdjust="spacingAndGlyphs">2</text><text x="363.85" y="374.79" style="font-size:18px;font-family:Asap" textLength="9.63" lengthAdjust="spacingAndGlyphs">4</text><text x="501.51" y="374.79" style="font-size:18px;font-family:Asap" textLength="9.63" lengthAdjust="spacingAndGlyphs">6</text><text x="639.18" y="374.79" style="font-size:18px;font-family:Asap" textLength="9.63" lengthAdjust="spacingAndGlyphs">8</text><text x="772.02" y="374.79" style="font-size:18px;font-family:Asap" textLength="19.26" lengthAdjust="spacingAndGlyphs">10</text><text x="345.52" y="407.59" style="font-size:20px;font-family:Asap Medium" textLength="96.88" lengthAdjust="spacingAndGlyphs">Population</text><text x="447.2" y="407.59" style="font-size:20px;font-family:Asap Medium" textLength="82.26" lengthAdjust="spacingAndGlyphs">(millions)</text><text transform="rotate(-90 158.015 129.805)" style="font-size:20px;font-family:Asap Medium" textLength="50.8" lengthAdjust="spacingAndGlyphs">Wage</text><text transform="rotate(-90 130.215 102.005)" style="font-size:20px;font-family:Asap Medium" textLength="48.22" lengthAdjust="spacingAndGlyphs">index</text><text transform="rotate(-90 103.705 75.495)" style="font-size:20px;font-family:Asap Medium" textLength="48.82" lengthAdjust="spacingAndGlyphs">(1860</text><text transform="rotate(-90 76.895 48.685)" style="font-size:20px;font-family:Asap Medium" textLength="11.2" lengthAdjust="spacingAndGlyphs">=</text><text transform="rotate(-90 68.895 40.685)" style="font-size:20px;font-family:Asap Medium" textLength="38.12" lengthAdjust="spacingAndGlyphs">100)</text></svg>