<svg version="1.1" xmlns="http://www.w3.org/2000/svg" x="0" y="0" viewBox="0 0 311.81 198.71" style="enable-background:new 0 0 311.81 198.71" xml:space="preserve"><line style="fill:none;stroke:#d5daef;stroke-width:.5" x1="291.38" y1="135.29" x2="35.13" y2="135.29"/><line style="fill:none;stroke:#6d6e71;stroke-width:.5;stroke-miterlimit:10" x1="290.93" y1="167.55" x2="34.73" y2="167.55"/><line style="fill:none;stroke:#6d6e71;stroke-width:.5;stroke-miterlimit:10" x1="35.13" y1="6" x2="35.13" y2="167.55"/><line style="fill:none;stroke:#6d6e70;stroke-width:.5;stroke-linecap:square" x1="290.74" y1="167.55" x2="290.74" y2="170.07"/><line style="fill:none;stroke:#6d6e70;stroke-width:.5;stroke-linecap:square" x1="35.13" y1="167.55" x2="35.13" y2="170.07"/><line style="fill:none;stroke:#6d6e70;stroke-width:.5;stroke-linecap:square" x1="35.13" y1="167.55" x2="32.6" y2="167.55"/><line style="fill:none;stroke:#6d6e70;stroke-width:.5;stroke-linecap:square" x1="35.13" y1="151.42" x2="32.6" y2="151.42"/><line style="fill:none;stroke:#6d6e70;stroke-width:.5;stroke-linecap:square" x1="35.13" y1="135.29" x2="32.6" y2="135.29"/><line style="fill:none;stroke:#6d6e70;stroke-width:.5;stroke-linecap:square" x1="35.13" y1="119.17" x2="32.6" y2="119.17"/><line style="fill:none;stroke:#6d6e70;stroke-width:.5;stroke-linecap:square" x1="35.13" y1="54.66" x2="32.6" y2="54.66"/><line style="fill:none;stroke:#6d6e70;stroke-width:.5;stroke-linecap:square" x1="35.13" y1="70.79" x2="32.6" y2="70.79"/><line style="fill:none;stroke:#6d6e70;stroke-width:.5;stroke-linecap:square" x1="35.13" y1="86.92" x2="32.6" y2="86.92"/><line style="fill:none;stroke:#6d6e70;stroke-width:.5;stroke-linecap:square" x1="35.13" y1="103.04" x2="32.6" y2="103.04"/><line style="fill:none;stroke:#6d6e70;stroke-width:.5;stroke-linecap:square" x1="35.13" y1="6.28" x2="32.6" y2="6.28"/><line style="fill:none;stroke:#6d6e70;stroke-width:.5;stroke-linecap:square" x1="35.13" y1="22.41" x2="32.6" y2="22.41"/><line style="fill:none;stroke:#6d6e70;stroke-width:.5;stroke-linecap:square" x1="35.13" y1="38.54" x2="32.6" y2="38.54"/><line style="fill:none;stroke:#6d6e70;stroke-width:.5;stroke-linecap:square" x1="259.35" y1="167.55" x2="259.35" y2="170.07"/><line style="fill:none;stroke:#6d6e70;stroke-width:.5;stroke-linecap:square" x1="195.29" y1="167.55" x2="195.29" y2="170.07"/><line style="fill:none;stroke:#6d6e70;stroke-width:.5;stroke-linecap:square" x1="227.32" y1="167.55" x2="227.32" y2="170.07"/><line style="fill:none;stroke:#6d6e70;stroke-width:.5;stroke-linecap:square" x1="163.25" y1="167.55" x2="163.25" y2="170.07"/><line style="fill:none;stroke:#6d6e70;stroke-width:.5;stroke-linecap:square" x1="131.22" y1="167.55" x2="131.22" y2="170.07"/><line style="fill:none;stroke:#6d6e70;stroke-width:.5;stroke-linecap:square" x1="99.19" y1="167.55" x2="99.19" y2="170.07"/><line style="fill:none;stroke:#6d6e70;stroke-width:.5;stroke-linecap:square" x1="67.16" y1="167.55" x2="67.16" y2="170.07"/><text transform="translate(114.334 194.722)"><tspan x="0" y="0" style="font-family:'Asap-Medium';font-size:8px">Quantity of Ch</tspan><tspan x="51.02" y="0" style="font-family:'Asap-Medium';font-size:8px">e</tspan><tspan x="55.25" y="0" style="font-family:'Asap-Medium';font-size:8px">erios, </tspan><tspan x="75.97" y="0" style="font-family:'Asap-MediumItalic';font-size:8px">Q</tspan><tspan x="81.82" y="0" style="font-family:'Asap-Medium';font-size:8px"> (pounds)</tspan></text><text transform="rotate(-90 71.155 60.814)"><tspan x="0" y="0" style="font-family:'Asap-Medium';font-size:8px">Price, </tspan><tspan x="21.3" y="0" style="font-family:'Asap-MediumItalic';font-size:8px">P</tspan><tspan x="25.86" y="0" style="font-family:'Asap-Medium';font-size:8px"> (dollars per pound)</tspan></text><text transform="translate(25.318 170.073)" style="font-family:'Asap-Regular';font-size:7px">0</text><text transform="translate(33.604 179.743)" style="font-family:'Asap-Regular';font-size:7px">0</text><text transform="translate(21.574 7.97)" style="font-family:'Asap-Regular';font-size:7px">10</text><text transform="translate(288.922 179.743)" style="font-family:'Asap-Regular';font-size:7px">80,000</text><text transform="translate(254.962 179.743)" style="font-family:'Asap-Regular';font-size:7px">70,000</text><text transform="translate(221 179.743)" style="font-family:'Asap-Regular';font-size:7px">60,000</text><text transform="translate(187.04 179.743)" style="font-family:'Asap-Regular';font-size:7px">50,000</text><text transform="translate(153.08 179.743)" style="font-family:'Asap-Regular';font-size:7px">40,000</text><text transform="translate(119.12 179.743)" style="font-family:'Asap-Regular';font-size:7px">30,000</text><text transform="translate(85.16 179.743)" style="font-family:'Asap-Regular';font-size:7px">20,000</text><text transform="translate(51.2 179.743)" style="font-family:'Asap-Regular';font-size:7px">10,000</text><text transform="translate(25.318 24.18)" style="font-family:'Asap-Regular';font-size:7px">9</text><text transform="translate(25.318 40.39)" style="font-family:'Asap-Regular';font-size:7px">8</text><text transform="translate(25.318 56.6)" style="font-family:'Asap-Regular';font-size:7px">7</text><text transform="translate(25.318 72.81)" style="font-family:'Asap-Regular';font-size:7px">6</text><text transform="translate(25.318 89.02)" style="font-family:'Asap-Regular';font-size:7px">5</text><text transform="translate(25.318 105.23)" style="font-family:'Asap-Regular';font-size:7px">4</text><text transform="translate(25.318 121.441)" style="font-family:'Asap-Regular';font-size:7px">3</text><text transform="translate(25.318 137.652)" style="font-family:'Asap-Regular';font-size:7px">2</text><text transform="translate(25.318 153.862)" style="font-family:'Asap-Regular';font-size:7px">1</text><text transform="translate(230.053 43.503)"><tspan x="0" y="0" style="font-family:'Asap-Regular';font-size:6px">Isop</tspan><tspan x="11.03" y="0" style="font-family:'Asap-Regular';font-size:6px">r</tspan><tspan x="13.1" y="0" style="font-family:'Asap-Regular';font-size:6px">ofit cur</tspan><tspan x="31.84" y="0" style="font-family:'Asap-Regular';font-size:6px">v</tspan><tspan x="34.69" y="0" style="font-family:'Asap-Regular';font-size:6px">e: $0</tspan></text><circle style="fill:#d5daef" cx="223.87" cy="41.66" r="2.13"/></svg>