<svg version="1.1" xmlns="http://www.w3.org/2000/svg" x="0" y="0" viewBox="0 0 311.81 146.7" style="enable-background:new 0 0 311.81 146.7" xml:space="preserve"><text transform="translate(113.338 69.804)" style="font-family:'Asap-Medium';font-size:8px">8</text><text transform="translate(191.503 69.804)" style="font-family:'Asap-Medium';font-size:8px">10</text><circle style="fill:#3a53a4" cx="155.91" cy="32.87" r="23.2"/><text transform="translate(151.406 36.352)" style="fill:#fff;font-family:'Asap-Medium';font-size:8px">12</text><circle style="fill:#3a53a4" cx="109.5" cy="109.35" r="23.2"/><text transform="translate(106.421 112.827)" style="fill:#fff;font-family:'Asap-Medium';font-size:8px">4</text><circle style="fill:#3a53a4" cx="202.31" cy="109.35" r="23.2"/><text transform="translate(199.225 112.827)" style="fill:#fff;font-family:'Asap-Medium';font-size:8px">2</text><line style="fill:none;stroke:#3a53a4;stroke-miterlimit:10" x1="176.7" y1="59.85" x2="187.81" y2="79.76"/><polygon style="fill:#3a53a4" points="174.75 64.74 175.72 64.98 176.89 60.19 181.58 61.71 181.89 60.75 176.17 58.91"/><polygon style="fill:#3a53a4" points="182.62 78.86 182.93 77.9 187.62 79.42 188.79 74.63 189.77 74.87 188.34 80.7"/><line style="fill:none;stroke:#3a53a4;stroke-miterlimit:10" x1="171.75" y1="112.83" x2="142.42" y2="112.83"/><polygon style="fill:#3a53a4" points="168.44 108.74 167.76 109.47 171.37 112.83 167.76 116.18 168.44 116.92 172.84 112.83"/><polygon style="fill:#3a53a4" points="145.74 108.74 146.42 109.47 142.81 112.83 146.42 116.18 145.74 116.92 141.34 112.83"/><g><line style="fill:none;stroke:#3a53a4;stroke-miterlimit:10" x1="119.77" y1="79.78" x2="132.13" y2="59.83"/><polygon style="fill:#3a53a4" points="124.99 79.12 124.73 78.15 119.97 79.46 119.02 74.62 118.04 74.81 119.2 80.7"/><polygon style="fill:#3a53a4" points="133.86 64.8 132.88 64.99 131.93 60.15 127.18 61.46 126.91 60.49 132.71 58.91"/></g><text transform="translate(155.906 132.547)" style="font-family:'Asap-Medium';font-size:8px">2</text></svg>