<svg version="1.1" xmlns="http://www.w3.org/2000/svg" x="0" y="0" viewBox="0 0 311.81 197.85" style="enable-background:new 0 0 311.81 197.85" xml:space="preserve"><switch><g><text transform="rotate(-90 58.853 50.52)"><tspan x="0" y="0" style="font-family:'Asap-Medium';font-size:8px">Price, </tspan><tspan x="21.3" y="0" style="font-family:'Asap-MediumItalic';font-size:8px">P</tspan><tspan x="25.86" y="0" style="font-family:'Asap-Medium';font-size:8px">, MC (€)</tspan></text><text transform="translate(132.888 189.069)"><tspan x="0" y="0" style="font-family:'Asap-Medium';font-size:8px">Quantity of loaves, </tspan><tspan x="67.84" y="0" style="font-family:'Asap-MediumItalic';font-size:8px">Q</tspan></text><line style="fill:none;stroke:#6d6e71;stroke-width:.5;stroke-linecap:square" x1="32.24" y1="9.59" x2="34.38" y2="9.59"/><line style="fill:none;stroke:#6d6e71;stroke-width:.5;stroke-linecap:square" x1="32.24" y1="39.4" x2="34.38" y2="39.4"/><line style="fill:none;stroke:#6d6e71;stroke-width:.5;stroke-linecap:square" x1="32.24" y1="69.2" x2="34.38" y2="69.2"/><line style="fill:none;stroke:#6d6e71;stroke-width:.5;stroke-linecap:square" x1="32.24" y1="99.01" x2="34.38" y2="99.01"/><line style="fill:none;stroke:#6d6e71;stroke-width:.5;stroke-linecap:square" x1="32.24" y1="84.11" x2="34.38" y2="84.11"/><line style="fill:none;stroke:#6d6e71;stroke-width:.5;stroke-linecap:square" x1="32.24" y1="128.82" x2="34.38" y2="128.82"/><line style="fill:none;stroke:#6d6e71;stroke-width:.5;stroke-linecap:square" x1="32.24" y1="158.63" x2="34.38" y2="158.63"/><line style="fill:none;stroke:#6d6e71;stroke-width:.5;stroke-linecap:square" x1="34.38" y1="158.63" x2="306.69" y2="158.63"/><path style="fill:none;stroke:#6d6e71;stroke-width:.5;stroke-linecap:square" d="M306.69 158.63v2.15m-27.49-2.15v2.15m-27.06-2.15v2.15m-27.06-2.15v2.15m-27.49-2.15v2.15m-27.05-2.15v2.15m-27.06-2.15v2.15m-27.49-2.15v2.15m-27.06-2.15v2.15m-27.06-2.15v2.15m-27.49-2.15v2.15"/><line style="fill:none;stroke:#6d6e71;stroke-width:.5;stroke-linecap:square" x1="32.02" y1="143.72" x2="34.16" y2="143.72"/><line style="fill:none;stroke:#6d6e71;stroke-width:.5;stroke-linecap:square" x1="32.02" y1="54.3" x2="34.16" y2="54.3"/><line style="fill:none;stroke:#6d6e71;stroke-width:.5;stroke-linecap:square" x1="32.02" y1="24.49" x2="34.16" y2="24.49"/><line style="fill:none;stroke:#6d6e71;stroke-width:.5;stroke-linecap:square" x1="32.05" y1="113.91" x2="34.2" y2="113.91"/><path style="fill:#fee6da" d="M34.4 88.53h244.8v69.76H34.4V88.53z"/><text transform="translate(24.606 160.49)" style="font-family:'Asap-Regular';font-size:7px">0</text><text transform="translate(19.475 130.679)" style="font-family:'Asap-Regular';font-size:7px">1.0</text><text transform="translate(19.475 100.869)" style="font-family:'Asap-Regular';font-size:7px">2.0</text><text transform="translate(19.475 71.059)" style="font-family:'Asap-Regular';font-size:7px">3.0</text><text transform="translate(19.475 41.248)" style="font-family:'Asap-Regular';font-size:7px">4.0</text><text transform="translate(19.475 11.438)" style="font-family:'Asap-Regular';font-size:7px">5.0</text><text transform="translate(33.273 170.823)" style="font-family:'Asap-Regular';font-size:7px">0</text><text transform="translate(57.678 170.823)" style="font-family:'Asap-Regular';font-size:7px">20</text><text transform="translate(84.829 170.823)" style="font-family:'Asap-Regular';font-size:7px">40</text><text transform="translate(111.978 170.823)" style="font-family:'Asap-Regular';font-size:7px">60</text><text transform="translate(139.129 170.823)" style="font-family:'Asap-Regular';font-size:7px">80</text><text transform="translate(165.278 170.823)" style="font-family:'Asap-Regular';font-size:7px">100</text><text transform="translate(192.174 170.823)" style="font-family:'Asap-Regular';font-size:7px">120</text><text transform="translate(219.07 170.823)" style="font-family:'Asap-Regular';font-size:7px">140</text><text transform="translate(246.964 170.823)" style="font-family:'Asap-Regular';font-size:7px">160</text><text transform="translate(273.86 170.823)" style="font-family:'Asap-Regular';font-size:7px">180</text><text transform="translate(299.755 170.823)" style="font-family:'Asap-Regular';font-size:7px">200</text><text transform="translate(208.397 75.492)" style="font-family:'Asap-Regular';font-size:6px">Marginal cost of a loaf</text><text transform="translate(42.427 145.626)" style="fill:#ec2326;font-family:'Asap-Regular';font-size:6px">Feasible set</text><text transform="translate(42.426 83.488)" style="font-family:'Asap-Regular';font-size:6px">Market price</text><line style="fill:none;stroke:#939598;stroke-width:.5;stroke-miterlimit:10;stroke-dasharray:1.4" x1="279.2" y1="158.48" x2="279.2" y2="9.59"/><line style="fill:none;stroke:#ec2326;stroke-width:.5;stroke-miterlimit:10" x1="34.38" y1="88.29" x2="306.69" y2="88.29"/><line style="fill:none;stroke:#6d6e71;stroke-width:.5;stroke-linecap:square" x1="34.38" y1="158.63" x2="34.38" y2="9.59"/><text transform="translate(19.475 26.343)" style="font-family:'Asap-Regular';font-size:7px">4.5</text><text transform="translate(19.475 56.154)" style="font-family:'Asap-Regular';font-size:7px">3.5</text><text transform="translate(19.476 85.964)" style="font-family:'Asap-Regular';font-size:7px">2.5</text><text transform="translate(19.476 115.773)" style="font-family:'Asap-Regular';font-size:7px">1.5</text><text transform="translate(19.475 145.584)" style="font-family:'Asap-Regular';font-size:7px">0.5</text><polyline style="fill:none;stroke:#3b54a4;stroke-width:.5;stroke-miterlimit:10" points="197.81 113.98 197.81 81.02 279.2 81.02"/><path style="fill:none;stroke:#3b54a4;stroke-width:.5;stroke-miterlimit:10" d="M34.6 113.74H197.8"/></g></switch></svg>