<svg version="1.1" xmlns="http://www.w3.org/2000/svg" x="0" y="0" viewBox="0 0 359.34 191.68" style="enable-background:new 0 0 359.34 191.68" xml:space="preserve"><text transform="translate(20.133 171.229)" style="fill:#231f20;font-family:'Asap-Regular';font-size:7px">1970</text><text transform="translate(151.69 185.933)" style="font-family:'Asap-Medium';font-size:8px">Year</text><text transform="rotate(-90 73.817 58.224)" style="font-family:'Asap-Medium';font-size:8px">Biodiversity indicator value</text><line style="fill:#3a53a4;stroke:#6d6e71;stroke-width:.5;stroke-linecap:square" x1="27.01" y1="162.02" x2="27.01" y2="159.89"/><line style="fill:#3a53a4;stroke:#6d6e71;stroke-width:.5;stroke-linecap:square" x1="46.37" y1="162.02" x2="46.37" y2="160.37"/><line style="fill:#3a53a4;stroke:#6d6e71;stroke-width:.5;stroke-linecap:square" x1="65.37" y1="162.02" x2="65.37" y2="160.37"/><line style="fill:#3a53a4;stroke:#6d6e71;stroke-width:.5;stroke-linecap:square" x1="84.37" y1="162.02" x2="84.37" y2="160.37"/><line style="fill:#3a53a4;stroke:#6d6e71;stroke-width:.5;stroke-linecap:square" x1="103.37" y1="162.02" x2="103.37" y2="160.37"/><line style="fill:#3a53a4;stroke:#6d6e71;stroke-width:.5;stroke-linecap:square" x1="123.37" y1="162.02" x2="123.37" y2="160.37"/><line style="fill:#3a53a4;stroke:#6d6e71;stroke-width:.5;stroke-linecap:square" x1="142.37" y1="162.02" x2="142.37" y2="160.37"/><line style="fill:#3a53a4;stroke:#6d6e71;stroke-width:.5;stroke-linecap:square" x1="161.37" y1="162.02" x2="161.37" y2="160.37"/><line style="fill:#3a53a4;stroke:#6d6e71;stroke-width:.5;stroke-linecap:square" x1="180.37" y1="162.02" x2="180.37" y2="160.37"/><line style="fill:#3a53a4;stroke:#6d6e71;stroke-width:.5;stroke-linecap:square" x1="200.37" y1="162.02" x2="200.37" y2="160.37"/><line style="fill:#3a53a4;stroke:#6d6e71;stroke-width:.5;stroke-linecap:square" x1="219.37" y1="162.02" x2="219.37" y2="160.37"/><line style="fill:#3a53a4;stroke:#6d6e71;stroke-width:.5;stroke-linecap:square" x1="238.37" y1="162.02" x2="238.37" y2="160.37"/><line style="fill:#3a53a4;stroke:#6d6e71;stroke-width:.5;stroke-linecap:square" x1="257.37" y1="162.02" x2="257.37" y2="160.37"/><line style="fill:#3a53a4;stroke:#6d6e71;stroke-width:.5;stroke-linecap:square" x1="276.37" y1="162.02" x2="276.37" y2="160.37"/><text transform="translate(39.413 171.229)" style="fill:#231f20;font-family:'Asap-Regular';font-size:7px">1980</text><text transform="translate(58.693 171.229)" style="fill:#231f20;font-family:'Asap-Regular';font-size:7px">1990</text><text transform="translate(77.973 171.229)" style="fill:#231f20;font-family:'Asap-Regular';font-size:7px">2000</text><text transform="translate(97.253 171.439)" style="fill:#231f20;font-family:'Asap-Regular';font-size:7px">2010</text><text transform="translate(116.533 171.48)" style="fill:#231f20;font-family:'Asap-Regular';font-size:7px">2020</text><text transform="translate(135.813 171.523)" style="fill:#231f20;font-family:'Asap-Regular';font-size:7px">2030</text><text transform="translate(155.093 171.565)" style="fill:#231f20;font-family:'Asap-Regular';font-size:7px">2040</text><text transform="translate(174.258 171.607)" style="fill:#231f20;font-family:'Asap-Regular';font-size:7px">2050</text><text transform="translate(193.538 171.649)" style="fill:#231f20;font-family:'Asap-Regular';font-size:7px">2060</text><text transform="translate(212.82 171.69)" style="fill:#231f20;font-family:'Asap-Regular';font-size:7px">2070</text><text transform="translate(232.1 171.649)" style="fill:#231f20;font-family:'Asap-Regular';font-size:7px">2080</text><text transform="translate(251.38 171.733)" style="fill:#231f20;font-family:'Asap-Regular';font-size:7px">2090</text><text transform="translate(270.661 171.649)" style="fill:#231f20;font-family:'Asap-Regular';font-size:7px">2100</text><path style="fill:none;stroke:#000;stroke-width:.5;stroke-linecap:square;stroke-miterlimit:10" d="M27.29 11.96c11.35 3.35 20.43 10.7 26.35 20.9 6.52 11.23 15.14 20.56 25.91 27.86 6.82 4.62 14.38 7.91 21.67 11.7"/><path style="fill:none;stroke:#39b54a;stroke-width:.5;stroke-linecap:square;stroke-miterlimit:10" d="M101.86 72.78c7.9 5.5 14.28 10.07 18.61 13.2 9.03 6.54 13.22 9.77 20.71 14.32 8.4 5.1 13.11 7.11 18.18 8.37 4.94 1.23 8.84 1.4 11.4 1.49 22.74.8 35.39-.5 35.39-.5 18.41-1.89 41.88-4.48 69.34-8.05"/><path style="fill:none;stroke:#7f8182;stroke-width:.5;stroke-miterlimit:10" d="M101.51 72.59c8.31 6.04 20.82 15.26 35.92 26.88 16.5 12.7 15.51 12.42 20.08 15.62 21.89 15.3 43.1 20.54 65.08 25.97 13.19 3.26 31.09 6.74 52.71 8.23"/><path style="fill-rule:evenodd;clip-rule:evenodd" d="M179.24 110.41c0-.61.51-1.11 1.13-1.11.63 0 1.13.5 1.13 1.11 0 .61-.51 1.11-1.13 1.11-.62 0-1.13-.49-1.13-1.11z"/><polyline style="fill:none;stroke:#6d6e71;stroke-width:.5;stroke-linecap:square;stroke-miterlimit:10" points="27.01 5.93 27.01 159.65 276.37 159.65"/><path style="fill:none;stroke:#fbb038;stroke-width:.5;stroke-linecap:square;stroke-miterlimit:10" d="M275.07 65.82C267.95 67 200.36 78.21 185.8 82.3c-15.67 4.41-16.33 4.64-16.33 4.64-4.29 1.52-6.08 2.4-9.6 2.76-3.21.33-6.11.02-11.77-.6-3.09-.34-5.62-.7-7.31-.96-3.92-1.26-12.58-4.68-19.91-7.44h-.01c-8.06-3.19-14.66-6.03-19.2-8.04"/><path style="fill-rule:evenodd;clip-rule:evenodd" d="M160.24 89.86a1.129 1.129 0 112.26 0c0 .63-.51 1.13-1.13 1.13-.62 0-1.13-.5-1.13-1.13z"/><text transform="translate(280.996 65.087)" style="fill:#231f20;font-family:'Asap-Regular';font-size:6px">Integrated Action Portfolio</text><polyline style="fill:none;stroke:#939598;stroke-width:.5;stroke-linecap:square;stroke-linejoin:round;stroke-miterlimit:8;stroke-dasharray:1.417,0,0" points="26.98 72.6 272.59 73.45 275.48 73.46"/><text transform="translate(280.155 74.967)" style="fill:#231f20;font-family:'Asap-Regular';font-size:6px">2010 levels of biodiversity</text><text transform="translate(280.46 102.183)"><tspan x="0" y="0" style="fill:#231f20;font-family:'Asap-Regular';font-size:6px">Increased conservation</tspan><tspan x="0" y="8" style="fill:#231f20;font-family:'Asap-Regular';font-size:6px">efforts only</tspan></text><text transform="translate(280.46 150.283)" style="fill:#231f20;font-family:'Asap-Regular';font-size:6px">Business as usual</text></svg>