<svg version="1.1" xmlns="http://www.w3.org/2000/svg" xmlns:xlink="http://www.w3.org/1999/xlink" x="0" y="0" viewBox="0 0 311.81 215.43" style="enable-background:new 0 0 311.81 215.43" xml:space="preserve"><g style="display:none"><g style="display:inline;opacity:.29"><defs><polygon id="prefix__a" points="37.3 421.81 298.34 421.81 298.34 239.51 37.3 239.51 37.3 421.81"/></defs><clipPath id="prefix__b"><use xlink:href="#prefix__a" style="overflow:visible"/></clipPath><line x1="63.44" y1="312.26" x2="89.49" y2="203.18"/></g></g><line style="fill:none;stroke:#009147;stroke-width:.5;stroke-linejoin:round;stroke-dasharray:1.417" x1="38.11" y1="62.98" x2="116.76" y2="62.98"/><line style="fill:none;stroke:#009147;stroke-width:.5;stroke-linejoin:round;stroke-dasharray:1.417" x1="116.61" y1="189.91" x2="116.61" y2="62.66"/><line style="fill:none;stroke:#ec2426;stroke-width:.5;stroke-linejoin:round;stroke-dasharray:1.417" x1="37.72" y1="80.9" x2="64.76" y2="80.9"/><line style="fill:none;stroke:#ec2426;stroke-width:.5;stroke-linejoin:round;stroke-dasharray:1.417" x1="64.6" y1="190.91" x2="64.6" y2="80.91"/><line style="fill:none;stroke:#f49323;stroke-width:.5;stroke-linejoin:round;stroke-dasharray:1.417" x1="37.81" y1="99.27" x2="166.76" y2="99.27"/><line style="fill:none;stroke:#f49323;stroke-width:.5;stroke-linejoin:round;stroke-dasharray:1.417" x1="168.08" y1="190.91" x2="168.08" y2="97.91"/><line style="fill:none;stroke:#3b54a4;stroke-width:.5;stroke-linejoin:round;stroke-dasharray:1.417" x1="38.76" y1="154.34" x2="142" y2="154.34"/><line style="fill:none;stroke:#3b54a4;stroke-width:.5;stroke-linejoin:round;stroke-dasharray:1.417" x1="142.4" y1="190.91" x2="142.4" y2="155"/><line style="fill:none;stroke:#b9519e;stroke-width:.5;stroke-linejoin:round;stroke-dasharray:1.417" x1="37.76" y1="172.28" x2="298.76" y2="172.28"/><line style="fill:none;stroke:#b9519e;stroke-width:.5;stroke-linejoin:round;stroke-dasharray:1.417" x1="298.29" y1="190.91" x2="298.29" y2="171.91"/><line style="fill:#6d6e71;stroke:#6d6e71;stroke-width:.5;stroke-linecap:square" x1="37.72" y1="190.76" x2="82.51" y2="11.2"/><line style="fill:none;stroke:#6d6e71;stroke-width:.5;stroke-linecap:square" x1="36" y1="190.76" x2="298" y2="190.76"/><line style="fill:none;stroke:#6d6e71;stroke-width:.5;stroke-linecap:square;stroke-linejoin:round" x1="37.77" y1="9" x2="37.77" y2="193"/><line style="fill:none;stroke:#6d6e71;stroke-width:.5;stroke-linecap:square" x1="64.6" y1="191.1" x2="64.6" y2="192.85"/><line style="fill:none;stroke:#6d6e71;stroke-width:.5;stroke-linecap:square" x1="89.89" y1="190.7" x2="89.89" y2="192.83"/><line style="fill:none;stroke:#6d6e71;stroke-width:.5;stroke-linecap:square" x1="116.61" y1="190.7" x2="116.61" y2="192.83"/><line style="fill:none;stroke:#6d6e71;stroke-width:.5;stroke-linecap:square" x1="142.4" y1="190.7" x2="142.4" y2="192.83"/><line style="fill:none;stroke:#6d6e71;stroke-width:.5;stroke-linecap:square" x1="168.08" y1="190.7" x2="168.08" y2="192.83"/><line style="fill:none;stroke:#6d6e71;stroke-width:.5;stroke-linecap:square" x1="193.32" y1="190.7" x2="193.32" y2="192.83"/><line style="fill:none;stroke:#6d6e71;stroke-width:.5;stroke-linecap:square" x1="220.32" y1="190.7" x2="220.32" y2="192.83"/><line style="fill:none;stroke:#6d6e71;stroke-width:.5;stroke-linecap:square" x1="245.75" y1="190.7" x2="245.75" y2="192.83"/><line style="fill:none;stroke:#6d6e71;stroke-width:.5;stroke-linecap:square" x1="271.75" y1="190.7" x2="271.75" y2="192.83"/><line style="fill:none;stroke:#6d6e71;stroke-width:.5;stroke-linecap:square" x1="298.29" y1="190.76" x2="298.29" y2="192.88"/><line style="fill:none;stroke:#6d6e71;stroke-width:.5;stroke-linecap:square;stroke-linejoin:round" x1="37.21" y1="172.37" x2="35.08" y2="172.37"/><line style="fill:none;stroke:#6d6e71;stroke-width:.5;stroke-linecap:square;stroke-linejoin:round" x1="37.37" y1="154.42" x2="35.24" y2="154.42"/><line style="fill:none;stroke:#6d6e71;stroke-width:.5;stroke-linecap:square;stroke-linejoin:round" x1="37.38" y1="135.62" x2="35.26" y2="135.62"/><line style="fill:none;stroke:#6d6e71;stroke-width:.5;stroke-linecap:square;stroke-linejoin:round" x1="37.38" y1="117.48" x2="35.26" y2="117.48"/><line style="fill:none;stroke:#6d6e71;stroke-width:.5;stroke-linecap:square;stroke-linejoin:round" x1="37.38" y1="99.36" x2="35.26" y2="99.36"/><line style="fill:none;stroke:#6d6e71;stroke-width:.5;stroke-linecap:square;stroke-linejoin:round" x1="37.38" y1="80.99" x2="35.26" y2="80.99"/><line style="fill:none;stroke:#6d6e71;stroke-width:.5;stroke-linecap:square;stroke-linejoin:round" x1="37.38" y1="62.91" x2="35.26" y2="62.91"/><line style="fill:none;stroke:#6d6e71;stroke-width:.5;stroke-linecap:square;stroke-linejoin:round" x1="37.38" y1="44.91" x2="35.26" y2="44.91"/><line style="fill:none;stroke:#6d6e71;stroke-width:.5;stroke-linecap:square;stroke-linejoin:round" x1="37.38" y1="26.62" x2="35.26" y2="26.62"/><line style="fill:none;stroke:#6d6e71;stroke-width:.5;stroke-linecap:square;stroke-linejoin:round" x1="37.77" y1="8.62" x2="35.64" y2="8.62"/><text transform="translate(25.928 192.217)" style="font-family:'Asap-Regular';font-size:7px">0</text><text transform="translate(35.65 201.396)" style="font-family:'Asap-Regular';font-size:7px">0</text><text transform="translate(61.65 202)" style="font-family:'Asap-Regular';font-size:7px">1</text><text transform="translate(87.99 202)" style="font-family:'Asap-Regular';font-size:7px">2</text><text transform="translate(113.99 201.958)" style="font-family:'Asap-Regular';font-size:7px">3</text><text transform="translate(140.276 201.986)" style="font-family:'Asap-Regular';font-size:7px">4</text><text transform="translate(165.276 201.958)" style="font-family:'Asap-Regular';font-size:7px">5</text><text transform="translate(191.276 201.965)" style="font-family:'Asap-Regular';font-size:7px">6</text><text transform="translate(218.419 201.986)" style="font-family:'Asap-Regular';font-size:7px">7</text><text transform="translate(243.419 201.958)" style="font-family:'Asap-Regular';font-size:7px">8</text><text transform="translate(269.276 201.986)" style="font-family:'Asap-Regular';font-size:7px">9</text><text transform="translate(294.276 201.958)" style="font-family:'Asap-Regular';font-size:7px">10</text><text transform="translate(25.921 173.646)" style="font-family:'Asap-Regular';font-size:7px">1</text><text transform="translate(25.844 156.252)" style="font-family:'Asap-Regular';font-size:7px">2</text><text transform="translate(25.886 137.395)" style="font-family:'Asap-Regular';font-size:7px">3</text><text transform="translate(26.075 119.395)" style="font-family:'Asap-Regular';font-size:7px">4</text><text transform="translate(25.872 101.395)" style="font-family:'Asap-Regular';font-size:7px">5</text><text transform="translate(25.844 82.824)" style="font-family:'Asap-Regular';font-size:7px">6</text><text transform="translate(25.816 65.11)" style="font-family:'Asap-Regular';font-size:7px">7</text><text transform="translate(25.844 47.11)" style="font-family:'Asap-Regular';font-size:7px">8</text><text transform="translate(25.816 29.11)" style="font-family:'Asap-Regular';font-size:7px">9</text><text transform="translate(25.92 10.68)" style="font-family:'Asap-Regular';font-size:7px">10</text><circle style="fill:#000101" cx="64.96" cy="81.11" r="2.13"/><line style="fill:#6d6e71;stroke:#6d6e71;stroke-width:.5;stroke-linecap:square" x1="37.77" y1="190.61" x2="300.44" y2="99.71"/><circle style="fill:#000101" cx="141.84" cy="154.26" r="2.13"/><circle style="fill:#000101" cx="167.55" cy="98.97" r="2.13"/><circle style="fill:#000101" cx="115.84" cy="62.69" r="2.13"/><line style="fill:#6d6e71;stroke:#6d6e71;stroke-width:.5;stroke-linecap:square" x1="37.77" y1="190.75" x2="298.01" y2="173.16"/><circle style="fill:#000101" cx="298.59" cy="172.76" r="2.13"/><text transform="translate(142.99 149.07)" style="font-family:'Asap-Regular';font-size:6px">B</text><text transform="translate(170.812 95.07)" style="font-family:'Asap-Regular';font-size:6px">D</text><text transform="translate(119.812 58.07)" style="font-family:'Asap-Regular';font-size:6px">C</text><text transform="translate(299.812 166.07)" style="font-family:'Asap-Regular';font-size:6px">E</text><text transform="translate(221.607 98.8)" style="font-family:'Asap-Medium';font-size:6px">Coal−labour ratio = 1:2</text><text transform="translate(221.607 169.925)" style="font-family:'Asap-Medium';font-size:6px">Coal−labour ratio = 1:10</text><text transform="translate(92.212 13.21)" style="font-family:'Asap-Medium';font-size:6px">Coal−labour ratio = 6:1</text><text transform="translate(70.02 79.928)" style="font-family:'Asap-Regular';font-size:6px">A</text><text transform="translate(132.048 213.764)" style="font-family:'Asap-Medium';font-size:8px">Number of workers</text><text transform="rotate(-90 74.417 62.06)" style="font-family:'Asap-Medium';font-size:8px">Amount of coal (tons)</text></svg>