<svg version="1.1" xmlns="http://www.w3.org/2000/svg" x="0" y="0" viewBox="0 0 311.81 182.32" style="enable-background:new 0 0 311.81 182.32" xml:space="preserve"><polygon style="fill:#fee6da;stroke:#fee6da;stroke-width:.5;stroke-linecap:square" points="103.44 47.4 207.72 149.27 103.44 149.27"/><line style="fill:none;stroke:#6d6e70;stroke-width:.5;stroke-linecap:square" x1="103.44" y1="149.27" x2="103.44" y2="151.51"/><line style="fill:none;stroke:#6d6e70;stroke-width:.5;stroke-linecap:square" x1="101.19" y1="149.27" x2="103.44" y2="149.27"/><line style="fill:none;stroke:#6d6e70;stroke-width:.5;stroke-linecap:square" x1="103.44" y1="128.89" x2="101.19" y2="128.89"/><line style="fill:none;stroke:#6d6e70;stroke-width:.5;stroke-linecap:square" x1="103.44" y1="108.52" x2="101.19" y2="108.52"/><line style="fill:none;stroke:#6d6e70;stroke-width:.5;stroke-linecap:square" x1="103.44" y1="88.15" x2="101.19" y2="88.15"/><line style="fill:none;stroke:#6d6e70;stroke-width:.5;stroke-linecap:square" x1="103.44" y1="67.78" x2="101.19" y2="67.78"/><line style="fill:none;stroke:#6d6e70;stroke-width:.5;stroke-linecap:square" x1="101.19" y1="47.4" x2="103.44" y2="47.4"/><line style="fill:none;stroke:#6d6e70;stroke-width:.5;stroke-linecap:square" x1="103.44" y1="27.03" x2="101.19" y2="27.03"/><line style="fill:none;stroke:#6d6e70;stroke-width:.5;stroke-linecap:square" x1="228.58" y1="149.27" x2="228.58" y2="151.51"/><line style="fill:none;stroke:#6d6e70;stroke-width:.5;stroke-linecap:square" x1="207.72" y1="149.27" x2="207.72" y2="151.51"/><line style="fill:none;stroke:#6d6e70;stroke-width:.5;stroke-linecap:square" x1="186.87" y1="149.27" x2="186.87" y2="151.51"/><line style="fill:none;stroke:#6d6e70;stroke-width:.5;stroke-linecap:square" x1="166.01" y1="149.27" x2="166.01" y2="151.51"/><line style="fill:none;stroke:#6d6e70;stroke-width:.5;stroke-linecap:square" x1="145.15" y1="149.27" x2="145.15" y2="151.51"/><line style="fill:none;stroke:#6d6e70;stroke-width:.5;stroke-linecap:square" x1="124.29" y1="149.27" x2="124.29" y2="151.51"/><text transform="translate(110.361 120.48)"><tspan x="0" y="0" style="font-family:'Asap-Regular';font-size:6px">F</tspan><tspan x="2.84" y="0" style="font-family:'Asap-Regular';font-size:6px">easib</tspan><tspan x="16.82" y="0" style="font-family:'Asap-Regular';font-size:6px">l</tspan><tspan x="18.41" y="0" style="font-family:'Asap-Regular';font-size:6px">e set</tspan></text><path style="fill:none;stroke:#3a53a4;stroke-width:.5" d="M169.51 21.36a449.525 449.525 0 003.32 13.78c.4 1.56 1.06 4.11 1.99 7.46.67 2.42 1.18 4.23 1.83 6.32 1.04 3.37 1.95 5.78 3.49 9.89 1.09 2.92 1.77 4.75 2.82 7.3.91 2.2 2.1 5.09 3.82 8.59 2.48 5.06 4.75 8.78 5.65 10.21 2.48 3.98 4.6 6.84 5.31 7.78 1.81 2.41 3.38 4.26 4.32 5.35 1.18 1.37 2.77 3.19 4.98 5.35 2.82 2.75 5.14 4.56 7.8 6.65 2.29 1.79 3.78 2.95 5.98 4.38 2.87 1.86 5.43 3.17 7.31 4.05"/><path style="fill:none;stroke:#3a53a4;stroke-width:.5;stroke-miterlimit:10" d="M150.33 21.36c.26 2.06.63 4.88 1.15 8.21.37 2.41 1.06 6.62 2.46 13.69 1.33 6.69 2.17 10.95 3.61 16.75 1.6 6.47 3.04 12.2 5.74 19.48 1.76 4.74 3.76 9.07 4.76 11.27 1.78 3.92 2.68 5.62 2.95 6.12 2.32 4.32 4.56 7.48 5.58 8.86 1.87 2.54 5.18 6.99 10.66 11.59 3.49 2.93 6.89 4.94 10.17 6.92 2.29 1.39 3.68 2.12 4.26 2.42 3.22 1.66 5.74 2.57 8.85 3.7 2.32.84 5.37 1.87 9.02 2.9"/><text transform="translate(135.418 12.033)"><tspan x="0" y="0" style="font-family:'Asap-Medium';font-size:8px">Altruistic p</tspan><tspan x="38.06" y="0" style="font-family:'Asap-Medium';font-size:8px">r</tspan><tspan x="40.83" y="0" style="font-family:'Asap-Medium';font-size:8px">efe</tspan><tspan x="52.05" y="0" style="font-family:'Asap-Medium';font-size:8px">r</tspan><tspan x="54.82" y="0" style="font-family:'Asap-Medium';font-size:8px">ences</tspan></text><text transform="translate(139.673 179.276)" style="font-family:'Asap-Medium';font-size:8px">Amount for Zoë (£)</text><text transform="translate(84.308 29.314)" style="font-family:'Asap-Regular';font-size:7px">240</text><text transform="translate(84.308 49.7)" style="font-family:'Asap-Regular';font-size:7px">200</text><text transform="translate(84.308 70.088)" style="font-family:'Asap-Regular';font-size:7px">160</text><text transform="translate(84.308 90.474)" style="font-family:'Asap-Regular';font-size:7px">120</text><text transform="translate(88.155 110.862)" style="font-family:'Asap-Regular';font-size:7px">80</text><text transform="translate(88.154 131.249)" style="font-family:'Asap-Regular';font-size:7px">40</text><text transform="translate(92.004 151.636)" style="font-family:'Asap-Regular';font-size:7px">0</text><text transform="translate(101.62 162.278)" style="font-family:'Asap-Regular';font-size:7px">0</text><text transform="translate(119.862 162.278)" style="font-family:'Asap-Regular';font-size:7px">40</text><text transform="translate(140.851 162.278)" style="font-family:'Asap-Regular';font-size:7px">80</text><text transform="translate(159.839 162.278)" style="font-family:'Asap-Regular';font-size:7px">120</text><text transform="translate(180.573 162.278)" style="font-family:'Asap-Regular';font-size:7px">160</text><text transform="translate(201.305 162.278)" style="font-family:'Asap-Regular';font-size:7px">200</text><text transform="translate(223.038 162.278)" style="font-family:'Asap-Regular';font-size:7px">240</text><text transform="rotate(-90 93.631 25.365)"><tspan x="0" y="0" style="font-family:'Asap-Medium';font-size:8px">Amount for </tspan><tspan x="41.81" y="0" style="font-family:'Asap-Medium';font-size:8px">Y</tspan><tspan x="45.88" y="0" style="font-family:'Asap-Medium';font-size:8px">v</tspan><tspan x="49.68" y="0" style="font-family:'Asap-Medium';font-size:8px">onne (£)</tspan></text><text transform="translate(106.543 24.372)"><tspan x="0" y="0" style="font-family:'Asap-Regular';font-size:6px">F</tspan><tspan x="2.84" y="0" style="font-family:'Asap-Regular';font-size:6px">easib</tspan><tspan x="16.82" y="0" style="font-family:'Asap-Regular';font-size:6px">l</tspan><tspan x="18.41" y="0" style="font-family:'Asap-Regular';font-size:6px">e </tspan><tspan x="1.61" y="7.2" style="font-family:'Asap-Regular';font-size:6px">f</tspan><tspan x="3.56" y="7.2" style="font-family:'Asap-Regular';font-size:6px">r</tspan><tspan x="5.64" y="7.2" style="font-family:'Asap-Regular';font-size:6px">ontier</tspan><tspan x=".62" y="14.4" style="font-family:'Asap-Regular';font-size:6px">(bud</tspan><tspan x="12.58" y="14.4" style="font-family:'Asap-Regular';font-size:6px">g</tspan><tspan x="15.73" y="14.4" style="font-family:'Asap-Regular';font-size:6px">et </tspan><tspan x="-2.62" y="21.6" style="font-family:'Asap-Regular';font-size:6px">const</tspan><tspan x="11.57" y="21.6" style="font-family:'Asap-Regular';font-size:6px">r</tspan><tspan x="13.65" y="21.6" style="font-family:'Asap-Regular';font-size:6px">aint)</tspan></text><g style="opacity:.5"><line style="fill:none;stroke:#939598;stroke-width:.5;stroke-linecap:square" x1="118.29" y1="58.73" x2="118.29" y2="48.62"/><polygon style="fill:#939598" points="120.34 57.07 119.97 56.73 118.29 58.54 116.62 56.73 116.25 57.07 118.29 59.27"/></g><path style="fill:none;stroke:#3a53a4;stroke-width:.5" d="M131.94 21.36c.22 4.41.57 10.29 1.16 17.2.44 5.2 1.12 13.09 2.55 23.39.27 1.97 1.42 10.15 3.47 20.87 2.2 11.52 3.67 16.69 4.86 20.41 1.42 4.45 2.23 6.96 3.93 10.32 1.48 2.92 4.52 8.79 10.64 14.22 3.57 3.17 7.06 5.17 9.26 6.42 3.06 1.74 5.55 2.82 6.48 3.21 4.32 1.82 8.17 2.81 12.5 3.67 10.35 2.07 20.8 2.89 25.68 3.21"/><line style="fill:none;stroke:#ed1f24;stroke-width:.4994;stroke-linecap:square" x1="103.44" y1="47.67" x2="207.72" y2="149.27"/><line style="fill:none;stroke:#6d6e70;stroke-width:.5;stroke-linecap:square" x1="103.44" y1="149.27" x2="103.44" y2="22.06"/><line style="fill:none;stroke:#6d6e70;stroke-width:.5;stroke-linecap:square" x1="103.44" y1="149.27" x2="233.62" y2="149.27"/></svg>