<svg version="1.1" xmlns="http://www.w3.org/2000/svg" x="0" y="0" viewBox="0 0 311.81 255.75" style="enable-background:new 0 0 311.81 255.75" xml:space="preserve"><path d="M224.37 204.16c-.67-.23-2.72-.94-4.03-1.4-1.31-.47-2.59-.94-3.84-1.4-1.25-.47-2.47-.94-3.67-1.4-1.2-.47-2.36-.94-3.51-1.4-1.15-.47-2.27-.94-3.37-1.4-1.1-.47-2.18-.94-3.24-1.4-1.06-.47-2.1-.94-3.13-1.4-1.02-.47-2.03-.94-3.02-1.4-.99-.47-1.96-.94-2.92-1.4-.96-.47-1.9-.94-2.83-1.4-.93-.47-1.84-.94-2.75-1.4-.9-.47-1.79-.94-2.67-1.4-.88-.47-1.74-.94-2.59-1.4-.85-.47-1.69-.94-2.52-1.4-.83-.47-1.65-.94-2.45-1.4-.81-.47-1.6-.94-2.39-1.4-.79-.47-1.56-.94-2.33-1.4-.77-.47-1.52-.94-2.27-1.4-.75-.47-1.49-.94-2.22-1.4-.73-.47-1.45-.94-2.17-1.4-.71-.47-1.42-.94-2.12-1.4-.7-.47-1.39-.94-2.07-1.4-.68-.47-1.36-.94-2.03-1.4-.67-.47-1.33-.94-1.98-1.4-.65-.47-1.3-.94-1.94-1.4-.64-.47-1.27-.94-1.9-1.4-.63-.47-1.25-.94-1.86-1.4-.61-.47-1.22-.94-1.82-1.4-.6-.47-1.2-.94-1.79-1.4-.59-.47-1.17-.94-1.75-1.4-.58-.47-1.15-.94-1.72-1.4-.57-.47-1.13-.94-1.68-1.4-.56-.47-1.11-.94-1.65-1.4-.55-.47-1.09-.94-1.62-1.4-.53-.47-1.06-.94-1.59-1.4-.52-.47-1.04-.94-1.56-1.4-.52-.47-1.03-.94-1.53-1.4-.51-.47-1.01-.94-1.5-1.4-.5-.47-.99-.94-1.48-1.4-.49-.47-.97-.94-1.45-1.4-.48-.47-.95-.94-1.42-1.4l-1.4-1.4-1.37-1.4c-.45-.47-.9-.94-1.35-1.4-.45-.47-.89-.94-1.33-1.4-.44-.47-.87-.94-1.3-1.4l-1.28-1.4c-.42-.47-.84-.94-1.26-1.4-.42-.47-.83-.94-1.23-1.4-.41-.47-.81-.94-1.21-1.4l-1.19-1.4c-.39-.47-.78-.94-1.17-1.4-.39-.47-.77-.94-1.15-1.4-.38-.47-.76-.94-1.13-1.4-.37-.47-.74-.94-1.11-1.4-.37-.47-.73-.94-1.09-1.4-.36-.47-.72-.94-1.07-1.4-.35-.47-.71-.94-1.05-1.4-.35-.47-.69-.94-1.04-1.4-.34-.47-.68-.94-1.02-1.4-.34-.47-.67-.94-1-1.4-.33-.47-.66-.94-.98-1.4-.32-.47-.65-.94-.96-1.4-.32-.47-.63-.94-.95-1.4-.31-.47-.62-.94-.93-1.4-.31-.47-.61-.94-.91-1.4-.3-.47-.6-.94-.9-1.4-.3-.47-.59-.94-.88-1.4-.29-.47-.58-.94-.87-1.4-.29-.47-.57-.94-.85-1.4-.28-.47-.56-.94-.83-1.4-.28-.47-.55-.94-.82-1.4-.27-.47-.54-.94-.8-1.4-.27-.47-.53-.94-.79-1.4-.26-.47-.52-.94-.77-1.4-.26-.47-.51-.94-.76-1.4-.25-.47-.5-.94-.74-1.4-.25-.47-.49-.94-.73-1.4-.24-.47-.48-.94-.71-1.4-.24-.47-.47-.94-.7-1.4-.23-.47-.46-.94-.69-1.4-.23-.47-.45-.94-.67-1.4-.22-.47-.44-.94-.66-1.4-.22-.47-.43-.94-.64-1.4s-.42-.94-.63-1.4c-.21-.47-.41-.94-.62-1.4-.2-.47-.4-.94-.6-1.4-.2-.47-.4-.94-.59-1.4-.19-.47-.39-.94-.58-1.4-.19-.47-.38-.94-.56-1.4-.19-.47-.37-.94-.55-1.4-.18-.47-.36-.94-.54-1.4-.18-.47-.35-.94-.53-1.4-.17-.47-.34-.94-.51-1.4-.17-.47-.34-.94-.5-1.4-.16-.47-.33-.94-.49-1.4-.16-.47-.32-.94-.48-1.4-.16-.47-.31-.94-.46-1.4-.15-.47-.3-.94-.45-1.4-.15-.47-.29-.94-.44-1.4-.14-.47-.29-.94-.43-1.4-.14-.47-.28-.94-.41-1.4-.14-.47-.27-.94-.4-1.4-.13-.47-.26-.94-.39-1.4-.13-.47-.25-.94-.38-1.4-.12-.47-.25-.94-.37-1.4-.12-.47-.24-.94-.35-1.4-.12-.47-.23-.94-.34-1.4" style="stroke:#4971b8;stroke-linecap:round;stroke-linejoin:round;stroke-miterlimit:10;fill:none;stroke-width:.5"/><path d="M76.77 94.7c.55.88 1.11 1.76 1.66 2.63.55.87 1.11 1.74 1.66 2.6.55.86 1.11 1.72 1.66 2.57.55.85 1.11 1.7 1.66 2.55.55.84 1.11 1.68 1.66 2.52.55.83 1.11 1.67 1.66 2.49.55.83 1.11 1.65 1.66 2.46.55.82 1.11 1.63 1.66 2.44.55.81 1.11 1.61 1.66 2.41.55.8 1.11 1.59 1.66 2.38.55.79 1.11 1.57 1.66 2.35.55.78 1.11 1.56 1.66 2.33.55.77 1.11 1.54 1.66 2.3.55.76 1.11 1.52 1.66 2.27.55.75 1.11 1.5 1.66 2.24.55.74 1.11 1.48 1.66 2.22.55.73 1.11 1.46 1.66 2.19.55.72 1.11 1.45 1.66 2.16.55.72 1.11 1.43 1.66 2.13.55.71 1.11 1.41 1.66 2.11.55.7 1.11 1.39 1.66 2.08.55.69 1.11 1.37 1.66 2.05.55.68 1.11 1.35 1.66 2.02.55.67 1.11 1.34 1.66 2 .55.66 1.11 1.32 1.66 1.97.55.65 1.11 1.3 1.66 1.94.55.64 1.11 1.28 1.66 1.91.55.63 1.11 1.26 1.66 1.89.55.62 1.11 1.24 1.66 1.86.55.61 1.11 1.23 1.66 1.83.55.61 1.11 1.21 1.66 1.8.55.6 1.11 1.19 1.66 1.78.55.59 1.11 1.17 1.66 1.75.55.58 1.11 1.15 1.66 1.72.55.57 1.11 1.13 1.66 1.69a262.159 262.159 0 004.98 4.92c.55.53 1.11 1.06 1.66 1.58.55.52 1.11 1.04 1.66 1.56.55.51 1.11 1.02 1.66 1.53.55.5 1.11 1 1.66 1.5.55.5 1.11.99 1.66 1.47.55.49 1.11.97 1.66 1.45.55.48 1.11.95 1.66 1.42.55.47 1.11.93 1.66 1.39.55.46 1.11.91 1.66 1.36.55.45 1.11.89 1.66 1.34a189.88 189.88 0 004.98 3.84c.55.41 1.11.82 1.66 1.23.55.4 1.11.8 1.66 1.2.55.39 1.11.78 1.66 1.17.55.39 1.11.77 1.66 1.14.55.38 1.11.75 1.66 1.12.55.37 1.11.73 1.66 1.09.55.36 1.11.71 1.66 1.06.55.35 1.11.69 1.66 1.03.55.34 1.11.67 1.66 1a143.843 143.843 0 004.98 2.85c.55.3 1.11.6 1.66.89.55.29 1.11.58 1.66.87.55.28 1.11.56 1.66.84.55.28 1.11.55 1.66.81.55.27 1.11.53 1.66.78.55.26 1.11.51 1.66.76.55.25 1.11.49 1.66.73.55.24 1.11.47 1.66.7.55.23 1.11.45 1.66.67a113.77 113.77 0 004.98 1.86c.55.19 1.11.38 1.66.56.55.18 1.11.36 1.66.54l1.66.51c.55.17 1.11.33 1.66.48.55.16 1.11.31 1.66.45.55.15 1.11.29 1.66.43.55.14 1.11.27 1.66.4.55.13 1.11.25 1.66.37.55.12 1.11.23 1.66.34a97.022 97.022 0 006.64 1.1" style="stroke:#4971b8;stroke-linecap:round;stroke-linejoin:round;stroke-miterlimit:10;fill:none;stroke-width:.5"/><text transform="translate(31.39 222.213)" style="font-size:7px;font-family:'Asap-Regular'">0</text><text transform="translate(28.457 208.165)"><tspan x="0" y="0" style="font-size:7px;font-family:'Asap-Regular'">1</tspan><tspan x="3.72" y="0" style="font-size:7px;font-family:'Asap-Regular'">0</tspan></text><text transform="translate(28.457 194.122)"><tspan x="0" y="0" style="font-size:7px;font-family:'Asap-Regular'">2</tspan><tspan x="3.72" y="0" style="font-size:7px;font-family:'Asap-Regular'">0</tspan></text><text transform="translate(28.457 180.072)"><tspan x="0" y="0" style="font-size:7px;font-family:'Asap-Regular'">3</tspan><tspan x="3.72" y="0" style="font-size:7px;font-family:'Asap-Regular'">0</tspan></text><text transform="translate(28.457 166.034)"><tspan x="0" y="0" style="font-size:7px;font-family:'Asap-Regular'">4</tspan><tspan x="3.72" y="0" style="font-size:7px;font-family:'Asap-Regular'">0</tspan></text><text transform="translate(28.457 151.99)"><tspan x="0" y="0" style="font-size:7px;font-family:'Asap-Regular'">5</tspan><tspan x="3.72" y="0" style="font-size:7px;font-family:'Asap-Regular'">0</tspan></text><text transform="translate(28.457 137.942)"><tspan x="0" y="0" style="font-size:7px;font-family:'Asap-Regular'">6</tspan><tspan x="3.72" y="0" style="font-size:7px;font-family:'Asap-Regular'">0</tspan></text><text transform="translate(28.457 123.898)"><tspan x="0" y="0" style="font-size:7px;font-family:'Asap-Regular'">7</tspan><tspan x="3.72" y="0" style="font-size:7px;font-family:'Asap-Regular'">0</tspan></text><text transform="translate(28.457 109.85)"><tspan x="0" y="0" style="font-size:7px;font-family:'Asap-Regular'">8</tspan><tspan x="3.72" y="0" style="font-size:7px;font-family:'Asap-Regular'">0</tspan></text><text transform="translate(28.457 95.81)"><tspan x="0" y="0" style="font-size:7px;font-family:'Asap-Regular'">9</tspan><tspan x="3.72" y="0" style="font-size:7px;font-family:'Asap-Regular'">0</tspan></text><text transform="translate(25.535 81.767)"><tspan x="0" y="0" style="font-size:7px;font-family:'Asap-Regular'">1</tspan><tspan x="3.72" y="0" style="font-size:7px;font-family:'Asap-Regular'">0</tspan><tspan x="7.53" y="0" style="font-size:7px;font-family:'Asap-Regular'">0</tspan></text><text transform="translate(25.535 67.718)"><tspan x="0" y="0" style="font-size:7px;font-family:'Asap-Regular'">1</tspan><tspan x="3.72" y="0" style="font-size:7px;font-family:'Asap-Regular'">1</tspan><tspan x="7.53" y="0" style="font-size:7px;font-family:'Asap-Regular'">0</tspan></text><text transform="translate(25.535 53.675)"><tspan x="0" y="0" style="font-size:7px;font-family:'Asap-Regular'">1</tspan><tspan x="3.72" y="0" style="font-size:7px;font-family:'Asap-Regular'">2</tspan><tspan x="7.53" y="0" style="font-size:7px;font-family:'Asap-Regular'">0</tspan></text><text transform="translate(25.535 39.626)"><tspan x="0" y="0" style="font-size:7px;font-family:'Asap-Regular'">1</tspan><tspan x="3.72" y="0" style="font-size:7px;font-family:'Asap-Regular'">3</tspan><tspan x="7.53" y="0" style="font-size:7px;font-family:'Asap-Regular'">0</tspan></text><text transform="translate(25.535 25.582)"><tspan x="0" y="0" style="font-size:7px;font-family:'Asap-Regular'">1</tspan><tspan x="3.72" y="0" style="font-size:7px;font-family:'Asap-Regular'">4</tspan><tspan x="7.53" y="0" style="font-size:7px;font-family:'Asap-Regular'">0</tspan></text><text transform="translate(25.535 11.539)"><tspan x="0" y="0" style="font-size:7px;font-family:'Asap-Regular'">1</tspan><tspan x="3.72" y="0" style="font-size:7px;font-family:'Asap-Regular'">5</tspan><tspan x="7.53" y="0" style="font-size:7px;font-family:'Asap-Regular'">0</tspan></text><text transform="translate(41.048 231.042)" style="font-size:7px;font-family:'Asap-Regular'">0</text><text transform="translate(57.619 231.042)"><tspan x="0" y="0" style="font-size:7px;font-family:'Asap-Regular'">1</tspan><tspan x="3.72" y="0" style="font-size:7px;font-family:'Asap-Regular'">0</tspan></text><text transform="translate(75.663 231.042)"><tspan x="0" y="0" style="font-size:7px;font-family:'Asap-Regular'">2</tspan><tspan x="3.72" y="0" style="font-size:7px;font-family:'Asap-Regular'">0</tspan></text><text transform="translate(93.697 231.042)"><tspan x="0" y="0" style="font-size:7px;font-family:'Asap-Regular'">3</tspan><tspan x="3.72" y="0" style="font-size:7px;font-family:'Asap-Regular'">0</tspan></text><text transform="translate(111.736 231.042)"><tspan x="0" y="0" style="font-size:7px;font-family:'Asap-Regular'">4</tspan><tspan x="3.72" y="0" style="font-size:7px;font-family:'Asap-Regular'">0</tspan></text><text transform="translate(129.774 231.042)"><tspan x="0" y="0" style="font-size:7px;font-family:'Asap-Regular'">5</tspan><tspan x="3.72" y="0" style="font-size:7px;font-family:'Asap-Regular'">0</tspan></text><text transform="translate(147.813 231.042)"><tspan x="0" y="0" style="font-size:7px;font-family:'Asap-Regular'">6</tspan><tspan x="3.72" y="0" style="font-size:7px;font-family:'Asap-Regular'">0</tspan></text><text transform="translate(165.851 231.042)"><tspan x="0" y="0" style="font-size:7px;font-family:'Asap-Regular'">7</tspan><tspan x="3.72" y="0" style="font-size:7px;font-family:'Asap-Regular'">0</tspan></text><text transform="translate(183.89 231.042)"><tspan x="0" y="0" style="font-size:7px;font-family:'Asap-Regular'">8</tspan><tspan x="3.72" y="0" style="font-size:7px;font-family:'Asap-Regular'">0</tspan></text><text transform="translate(201.923 231.042)"><tspan x="0" y="0" style="font-size:7px;font-family:'Asap-Regular'">9</tspan><tspan x="3.72" y="0" style="font-size:7px;font-family:'Asap-Regular'">0</tspan></text><text transform="translate(218.5 231.042)"><tspan x="0" y="0" style="font-size:7px;font-family:'Asap-Regular'">1</tspan><tspan x="3.72" y="0" style="font-size:7px;font-family:'Asap-Regular'">0</tspan><tspan x="7.53" y="0" style="font-size:7px;font-family:'Asap-Regular'">0</tspan></text><text transform="translate(236.539 231.042)"><tspan x="0" y="0" style="font-size:7px;font-family:'Asap-Regular'">1</tspan><tspan x="3.72" y="0" style="font-size:7px;font-family:'Asap-Regular'">1</tspan><tspan x="7.53" y="0" style="font-size:7px;font-family:'Asap-Regular'">0</tspan></text><text transform="translate(254.573 231.042)"><tspan x="0" y="0" style="font-size:7px;font-family:'Asap-Regular'">1</tspan><tspan x="3.72" y="0" style="font-size:7px;font-family:'Asap-Regular'">2</tspan><tspan x="7.53" y="0" style="font-size:7px;font-family:'Asap-Regular'">0</tspan></text><text transform="translate(225.937 208.682)"><tspan x="0" y="0" style="font-size:6px;font-family:'Asap-Regular'">M</tspan><tspan x="5.03" y="0" style="font-size:6px;font-family:'Asap-Regular'">a</tspan><tspan x="8.32" y="0" style="font-size:6px;font-family:'Asap-Regular'">rc</tspan><tspan x="13.43" y="0" style="font-size:6px;font-family:'Asap-Regular'">o</tspan><tspan x="16.85" y="0" style="font-size:6px;font-family:'Asap-Regular'">’</tspan><tspan x="18.14" y="0" style="font-size:6px;font-family:'Asap-Regular'">s IC (low utility)</tspan></text><text transform="translate(225.72 219.051)"><tspan x="0" y="0" style="font-size:6px;font-family:'Asap-Regular'">M</tspan><tspan x="5.03" y="0" style="font-size:6px;font-family:'Asap-Regular'">a</tspan><tspan x="8.32" y="0" style="font-size:6px;font-family:'Asap-Regular'">rc</tspan><tspan x="13.43" y="0" style="font-size:6px;font-family:'Asap-Regular'">o</tspan><tspan x="16.85" y="0" style="font-size:6px;font-family:'Asap-Regular'">’</tspan><tspan x="18.14" y="0" style="font-size:6px;font-family:'Asap-Regular'">s reservation IC</tspan></text><text transform="translate(228.039 239.915)"><tspan x="0" y="0" style="font-size:6px;font-family:'Asap-Regular'">M</tspan><tspan x="5.03" y="0" style="font-size:6px;font-family:'Asap-Regular'">a</tspan><tspan x="8.32" y="0" style="font-size:6px;font-family:'Asap-Regular'">rc</tspan><tspan x="13.43" y="0" style="font-size:6px;font-family:'Asap-Regular'">o</tspan><tspan x="16.85" y="0" style="font-size:6px;font-family:'Asap-Regular'">’</tspan><tspan x="18.14" y="0" style="font-size:6px;font-family:'Asap-Regular'">s </tspan><tspan x="22.05" y="0" style="font-size:6px;font-family:'Asap-Regular'">e</tspan><tspan x="25.28" y="0" style="font-size:6px;font-family:'Asap-Regular'">n</tspan><tspan x="28.59" y="0" style="font-size:6px;font-family:'Asap-Regular'">do</tspan><tspan x="35.4" y="0" style="font-size:6px;font-family:'Asap-Regular'">w</tspan><tspan x="39.9" y="0" style="font-size:6px;font-family:'Asap-Regular'">m</tspan><tspan x="45" y="0" style="font-size:6px;font-family:'Asap-Regular'">e</tspan><tspan x="48.23" y="0" style="font-size:6px;font-family:'Asap-Regular'">n</tspan><tspan x="51.54" y="0" style="font-size:6px;font-family:'Asap-Regular'">t</tspan></text><text transform="translate(112.744 251.592)"><tspan x="0" y="0" style="font-size:8px;font-family:'Asap-Medium'">C</tspan><tspan x="4.92" y="0" style="font-size:8px;font-family:'Asap-Medium'">o</tspan><tspan x="9.47" y="0" style="font-size:8px;font-family:'Asap-Medium'">n</tspan><tspan x="13.9" y="0" style="font-size:8px;font-family:'Asap-Medium'">s</tspan><tspan x="17.22" y="0" style="font-size:8px;font-family:'Asap-Medium'">u</tspan><tspan x="21.66" y="0" style="font-size:8px;font-family:'Asap-Medium'">m</tspan><tspan x="28.46" y="0" style="font-size:8px;font-family:'Asap-Medium'">pt</tspan><tspan x="35.78" y="0" style="font-size:8px;font-family:'Asap-Medium'">i</tspan><tspan x="37.86" y="0" style="font-size:8px;font-family:'Asap-Medium'">o</tspan><tspan x="42.42" y="0" style="font-size:8px;font-family:'Asap-Medium'">n</tspan><tspan x="46.84" y="0" style="font-size:8px;font-family:'Asap-Medium'"> </tspan><tspan x="49.08" y="0" style="font-size:8px;font-family:'Asap-Medium'">n</tspan><tspan x="53.5" y="0" style="font-size:8px;font-family:'Asap-Medium'">o</tspan><tspan x="58.06" y="0" style="font-size:8px;font-family:'Asap-Medium'">w </tspan><tspan x="66.02" y="0" style="font-size:8px;font-family:'Asap-Medium'">(</tspan><tspan x="68.42" y="0" style="font-size:8px;font-family:'Asap-Medium'">$</tspan><tspan x="72.36" y="0" style="font-size:8px;font-family:'Asap-Medium'">)</tspan></text><line x1="42.48" y1="220.95" x2="42.48" y2="9.54" style="fill:none;stroke:#6d6e71;stroke-width:.5;stroke-linecap:square"/><line x1="41.28" y1="220.95" x2="258.97" y2="220.95" style="fill:none;stroke:#6d6e71;stroke-width:.5;stroke-linecap:square"/><line x1="39.88" y1="220.95" x2="42.21" y2="220.95" style="stroke:#6d6e71;stroke-linecap:square;fill:none;stroke-width:.5"/><line x1="39.88" y1="206.86" x2="42.21" y2="206.86" style="stroke:#6d6e71;stroke-linecap:square;fill:none;stroke-width:.5"/><line x1="39.88" y1="192.77" x2="42.21" y2="192.77" style="stroke:#6d6e71;stroke-linecap:square;fill:none;stroke-width:.5"/><line x1="39.88" y1="178.67" x2="42.21" y2="178.67" style="stroke:#6d6e71;stroke-linecap:square;fill:none;stroke-width:.5"/><line x1="39.88" y1="164.58" x2="42.21" y2="164.58" style="stroke:#6d6e71;stroke-linecap:square;fill:none;stroke-width:.5"/><line x1="39.88" y1="150.48" x2="42.21" y2="150.48" style="stroke:#6d6e71;stroke-linecap:square;fill:none;stroke-width:.5"/><line x1="39.88" y1="136.39" x2="42.21" y2="136.39" style="stroke:#6d6e71;stroke-linecap:square;fill:none;stroke-width:.5"/><line x1="39.88" y1="122.3" x2="42.21" y2="122.3" style="stroke:#6d6e71;stroke-linecap:square;fill:none;stroke-width:.5"/><line x1="39.88" y1="51.83" x2="42.21" y2="51.83" style="stroke:#6d6e71;stroke-linecap:square;fill:none;stroke-width:.5"/><line x1="39.88" y1="37.73" x2="42.21" y2="37.73" style="stroke:#6d6e71;stroke-linecap:square;fill:none;stroke-width:.5"/><line x1="39.88" y1="23.64" x2="42.21" y2="23.64" style="stroke:#6d6e71;stroke-linecap:square;fill:none;stroke-width:.5"/><line x1="39.88" y1="9.54" x2="42.21" y2="9.54" style="stroke:#6d6e71;stroke-linecap:square;fill:none;stroke-width:.5"/><line x1="39.35" y1="65.92" x2="41.68" y2="65.92" style="stroke:#6d6e71;stroke-linecap:square;fill:none;stroke-width:.5"/><line x1="39.35" y1="80.01" x2="41.68" y2="80.01" style="stroke:#6d6e71;stroke-linecap:square;fill:none;stroke-width:.5"/><line x1="39.35" y1="94.11" x2="41.68" y2="94.11" style="stroke:#6d6e71;stroke-linecap:square;fill:none;stroke-width:.5"/><line x1="39.35" y1="108.2" x2="41.68" y2="108.2" style="stroke:#6d6e71;stroke-linecap:square;fill:none;stroke-width:.5"/><line x1="42.48" y1="221.31" x2="42.48" y2="223.12" style="stroke:#6d6e71;stroke-linecap:square;fill:none;stroke-width:.5"/><line x1="60.52" y1="221.31" x2="60.52" y2="223.12" style="stroke:#6d6e71;stroke-linecap:square;fill:none;stroke-width:.5"/><line x1="78.56" y1="221.31" x2="78.56" y2="223.12" style="stroke:#6d6e71;stroke-linecap:square;fill:none;stroke-width:.5"/><line x1="96.6" y1="221.31" x2="96.6" y2="223.12" style="stroke:#6d6e71;stroke-linecap:square;fill:none;stroke-width:.5"/><line x1="114.64" y1="221.31" x2="114.64" y2="223.12" style="stroke:#6d6e71;stroke-linecap:square;fill:none;stroke-width:.5"/><line x1="132.69" y1="221.31" x2="132.69" y2="223.12" style="stroke:#6d6e71;stroke-linecap:square;fill:none;stroke-width:.5"/><line x1="150.73" y1="221.31" x2="150.73" y2="223.12" style="stroke:#6d6e71;stroke-linecap:square;fill:none;stroke-width:.5"/><line x1="168.77" y1="221.31" x2="168.77" y2="223.12" style="stroke:#6d6e71;stroke-linecap:square;fill:none;stroke-width:.5"/><line x1="204.85" y1="221.31" x2="204.85" y2="223.12" style="stroke:#6d6e71;stroke-linecap:square;fill:none;stroke-width:.5"/><line x1="222.89" y1="221.31" x2="222.89" y2="223.12" style="stroke:#6d6e71;stroke-linecap:square;fill:none;stroke-width:.5"/><line x1="240.93" y1="221.31" x2="240.93" y2="223.12" style="stroke:#6d6e71;stroke-linecap:square;fill:none;stroke-width:.5"/><line x1="258.97" y1="221.31" x2="258.97" y2="223.12" style="stroke:#6d6e71;stroke-linecap:square;fill:none;stroke-width:.5"/><line x1="186.81" y1="221.38" x2="186.81" y2="223.19" style="stroke:#6d6e71;stroke-linecap:square;fill:none;stroke-width:.5"/><text transform="rotate(-90 84.714 68.786)"><tspan x="0" y="0" style="font-size:8px;font-family:'Asap-Medium'">C</tspan><tspan x="4.92" y="0" style="font-size:8px;font-family:'Asap-Medium'">o</tspan><tspan x="9.47" y="0" style="font-size:8px;font-family:'Asap-Medium'">n</tspan><tspan x="13.9" y="0" style="font-size:8px;font-family:'Asap-Medium'">s</tspan><tspan x="17.22" y="0" style="font-size:8px;font-family:'Asap-Medium'">u</tspan><tspan x="21.66" y="0" style="font-size:8px;font-family:'Asap-Medium'">m</tspan><tspan x="28.46" y="0" style="font-size:8px;font-family:'Asap-Medium'">pt</tspan><tspan x="35.78" y="0" style="font-size:8px;font-family:'Asap-Medium'">i</tspan><tspan x="37.86" y="0" style="font-size:8px;font-family:'Asap-Medium'">o</tspan><tspan x="42.42" y="0" style="font-size:8px;font-family:'Asap-Medium'">n</tspan><tspan x="46.84" y="0" style="font-size:8px;font-family:'Asap-Medium'"> </tspan><tspan x="49.08" y="0" style="font-size:8px;font-family:'Asap-Medium'">l</tspan><tspan x="51.45" y="0" style="font-size:8px;font-family:'Asap-Medium'">a</tspan><tspan x="55.82" y="0" style="font-size:8px;font-family:'Asap-Medium'">t</tspan><tspan x="58.56" y="0" style="font-size:8px;font-family:'Asap-Medium'">e</tspan><tspan x="62.85" y="0" style="font-size:8px;font-family:'Asap-Medium'">r</tspan><tspan x="65.8" y="0" style="font-size:8px;font-family:'Asap-Medium'"> </tspan><tspan x="67.75" y="0" style="font-size:8px;font-family:'Asap-Medium'">(</tspan><tspan x="70.15" y="0" style="font-size:8px;font-family:'Asap-Medium'">$</tspan><tspan x="74.09" y="0" style="font-size:8px;font-family:'Asap-Medium'">)</tspan></text><circle cx="222.85" cy="220.68" r="1.13"/></svg>