<svg version="1.1" xmlns="http://www.w3.org/2000/svg" x="0" y="0" viewBox="0 0 311.81 169.34" style="enable-background:new 0 0 311.81 169.34" xml:space="preserve"><line style="fill:none;stroke:#000;stroke-width:.5;stroke-linecap:square;stroke-linejoin:round" x1="68.87" y1="110.31" x2="236.48" y2="9.2"/><rect x="45.05" y="37.97" style="fill:none" width="21.98" height="6.92"/><text transform="translate(48.325 43.236)" style="font-family:'Asap-Regular';font-size:7px">€725</text><rect x="45.05" y="56.71" style="fill:none" width="21.98" height="6.92"/><text transform="translate(48.325 61.974)" style="font-family:'Asap-Regular';font-size:7px">€675</text><rect x="45.05" y="89.75" style="fill:none" width="21.98" height="6.92"/><text transform="translate(48.325 95.01)" style="font-family:'Asap-Regular';font-size:7px">€600</text><rect x="45.05" y="107.44" style="fill:none" width="21.98" height="6.92"/><text transform="translate(48.325 112.702)" style="font-family:'Asap-Regular';font-size:7px">€550</text><rect x="201.63" y="23.42" style="fill:none" width="70.47" height="28.93"/><text transform="translate(233.2 28.525)"><tspan x="0" y="0" style="font-family:'Asap-Regular';font-size:6px">W</tspan><tspan x="5.11" y="0" style="font-family:'Asap-Regular';font-size:6px">age required</tspan><tspan x="-16.16" y="7.2" style="font-family:'Asap-Regular';font-size:6px">to employ </tspan><tspan x="12.03" y="7.2" style="font-family:'Asap-Italic';font-size:6px">N</tspan><tspan x="16.34" y="7.2" style="font-family:'Asap-Regular';font-size:6px"> workers</tspan></text><rect x="96.43" y="159.16" style="fill:none" width="117.02" height="7.91"/><text transform="translate(96.43 165.187)"><tspan x="0" y="0" style="font-family:'Asap-Medium';font-size:8px">Number of workers employed, </tspan><tspan x="108.65" y="0" style="font-family:'Asap-MediumItalic';font-size:8px">N</tspan></text><circle cx="154.03" cy="58.96" r="1.13"/><circle cx="98.21" cy="92.67" r="1.13"/><line style="fill:none;stroke:#6d6e71;stroke-width:.5;stroke-linecap:square" x1="236.87" y1="137.8" x2="69.19" y2="137.8"/><line style="fill:none;stroke:#6d6e71;stroke-width:.5;stroke-linecap:square" x1="68.75" y1="9.44" x2="68.75" y2="137.8"/><text transform="rotate(-90 59.345 34.703)"><tspan x="0" y="0" style="font-family:'Asap-Medium';font-size:8px">W</tspan><tspan x="6.9" y="0" style="font-family:'Asap-Medium';font-size:8px">eekly wage, </tspan><tspan x="50.35" y="0" style="font-family:'Asap-MediumItalic';font-size:8px">w</tspan></text><line style="fill:none;stroke:#6d6e71;stroke-width:.5;stroke-linecap:square;stroke-linejoin:round" x1="68.75" y1="110.31" x2="66.63" y2="110.31"/><line style="fill:none;stroke:#6d6e71;stroke-width:.5;stroke-linecap:square;stroke-linejoin:round" x1="68.75" y1="92.67" x2="66.63" y2="92.67"/><line style="fill:none;stroke:#6d6e71;stroke-width:.5;stroke-linecap:square;stroke-linejoin:round" x1="68.75" y1="58.96" x2="66.63" y2="58.96"/><line style="fill:none;stroke:#6d6e71;stroke-width:.5;stroke-linecap:square;stroke-linejoin:round" x1="68.75" y1="40.6" x2="66.63" y2="40.6"/><line style="fill:none;stroke:#6d6e71;stroke-width:.5;stroke-linecap:square;stroke-linejoin:round" x1="183.94" y1="137.8" x2="183.94" y2="139.92"/><line style="fill:none;stroke:#6d6e71;stroke-width:.5;stroke-linecap:square;stroke-linejoin:round" x1="153.74" y1="137.8" x2="153.74" y2="139.92"/><line style="fill:none;stroke:#6d6e71;stroke-width:.5;stroke-linecap:square;stroke-linejoin:round" x1="98.15" y1="137.8" x2="98.15" y2="139.92"/><rect x="133.84" y="11.67" style="fill:none" width="70.47" height="28.93"/><text transform="translate(147.954 16.77)"><tspan x="0" y="0" style="font-family:'Asap-Regular';font-size:6px">Reservation wages of </tspan><tspan x="27.58" y="7.2" style="font-family:'Asap-Regular';font-size:6px">employees</tspan></text><circle cx="184.23" cy="40.6" r="1.13"/><g><line style="fill:none;stroke:#939598;stroke-width:.5;stroke-linecap:square;stroke-linejoin:round;stroke-dasharray:1.417" x1="183.94" y1="41.94" x2="183.94" y2="137.58"/><line style="fill:none;stroke:#939598;stroke-width:.5;stroke-linecap:square;stroke-linejoin:round;stroke-dasharray:1.417" x1="98.15" y1="94.57" x2="98.15" y2="137.25"/><line style="fill:none;stroke:#939598;stroke-width:.5;stroke-linecap:square;stroke-linejoin:round;stroke-dasharray:1.417" x1="153.75" y1="60.59" x2="153.75" y2="137.25"/><line style="fill:none;stroke:#939598;stroke-width:.5;stroke-linecap:square;stroke-linejoin:round;stroke-dasharray:1.417" x1="69.19" y1="58.96" x2="152.9" y2="58.96"/><line style="fill:none;stroke:#939598;stroke-width:.5;stroke-linecap:square;stroke-linejoin:round;stroke-dasharray:1.417" x1="68.74" y1="40.6" x2="183.1" y2="40.6"/><line style="fill:none;stroke:#939598;stroke-width:.5;stroke-linecap:square;stroke-linejoin:round;stroke-dasharray:1.417" x1="69.05" y1="92.67" x2="97.08" y2="92.67"/><rect x="81.72" y="143.43" style="fill:none" width="33.43" height="6.92"/><text transform="translate(94.687 148.696)" style="font-family:'Asap-Regular';font-size:7px">20</text><rect x="137.31" y="143.43" style="fill:none" width="33.43" height="6.92"/><text transform="translate(150.287 148.696)" style="font-family:'Asap-Regular';font-size:7px">50</text><rect x="167.51" y="143.43" style="fill:none" width="33.43" height="6.92"/><text transform="translate(180.486 148.696)" style="font-family:'Asap-Regular';font-size:7px">70</text></g></svg>