<svg version="1.1" xmlns="http://www.w3.org/2000/svg" xmlns:xlink="http://www.w3.org/1999/xlink" x="0" y="0" viewBox="0 0 311.81 209.43" style="enable-background:new 0 0 311.81 209.43" xml:space="preserve"><g style="display:none"><g style="display:inline"><defs><polygon id="prefix__a" points="29.59 1922.95 311.72 1922.95 311.72 1716.07 29.59 1716.07 29.59 1922.95"/></defs><clipPath id="prefix__b"><use xlink:href="#prefix__a" style="overflow:visible"/></clipPath><polyline points="29.91 -1273.87 38.88 -128.34 47.22 493.59 56.2 869.05 65.17 1112.97 73.51 1279.63 82.49 1399.04 91.46 1487.15 100.44 1554.84 108.78 1607.2 117.75 1648.7 126.73 1681.91 135.07 1709.36 144.04 1732.35 153.02 1750.87 162 1767.47 170.33 1780.88 179.31 1793.01 188.29 1803.23 196.62 1812.17 205.6 1819.83 214.58 1826.85 223.55 1832.6 231.89 1838.35 240.87 1843.45 249.84 1847.92 258.18 1851.76 267.16 1854.95 276.13 1858.78 285.11 1861.33 293.45 1863.89 302.42 1866.44 311.4 1869"/></g><g style="display:inline"><defs><polygon id="prefix__c" points="8.8 2198.49 338.8 2198.49 338.8 1955.37 8.8 1955.37 8.8 2198.49"/></defs><clipPath id="prefix__d"><use xlink:href="#prefix__c" style="overflow:visible"/></clipPath><polyline points="8.92 -1556.79 19.24 -211.23 29.44 519.81 39.76 960.45 50.08 1246.53 60.4 1442.61 70.6 1582.89 80.92 1686.69 91.24 1765.65 101.56 1827.09 111.76 1875.81 122.08 1915.17 132.4 1947.33 142.6 1974.09 152.92 1996.41 163.24 2015.25 173.56 2031.45 183.76 2045.37 194.08 2057.37 204.4 2067.93 214.72 2077.17 224.92 2085.33 235.24 2092.53 245.56 2098.89 255.76 2104.65 266.08 2109.81 276.4 2114.49 286.72 2118.69 296.92 2122.53 307.24 2126.01 317.56 2129.25 327.88 2132.13 338.08 2134.77"/></g><g style="display:inline"><defs><polygon id="prefix__e" points="8.8 2198.49 338.8 2198.49 338.8 1955.37 8.8 1955.37 8.8 2198.49"/></defs><clipPath id="prefix__f"><use xlink:href="#prefix__e" style="overflow:visible"/></clipPath><polyline points="8.92 -1556.79 19.24 -211.23 29.44 519.81 39.76 960.45 50.08 1246.53 60.4 1442.61 70.6 1582.89 80.92 1686.69 91.24 1765.65 101.56 1827.09 111.76 1875.81 122.08 1915.17 132.4 1947.33 142.6 1974.09 152.92 1996.41 163.24 2015.25 173.56 2031.45 183.76 2045.37 194.08 2057.37 204.4 2067.93 214.72 2077.17 224.92 2085.33 235.24 2092.53 245.56 2098.89 255.76 2104.65 266.08 2109.81 276.4 2114.49 286.72 2118.69 296.92 2122.53 307.24 2126.01 317.56 2129.25 327.88 2132.13 338.08 2134.77"/></g><g style="display:inline"><defs><polygon id="prefix__g" points="8.8 2198.49 338.8 2198.49 338.8 1955.37 8.8 1955.37 8.8 2198.49"/></defs><clipPath id="prefix__h"><use xlink:href="#prefix__g" style="overflow:visible"/></clipPath><polyline points="8.92 -1556.79 19.24 -211.23 29.44 519.81 39.76 960.45 50.08 1246.53 60.4 1442.61 70.6 1582.89 80.92 1686.69 91.24 1765.65 101.56 1827.09 111.76 1875.81 122.08 1915.17 132.4 1947.33 142.6 1974.09 152.92 1996.41 163.24 2015.25 173.56 2031.45 183.76 2045.37 194.08 2057.37 204.4 2067.93 214.72 2077.17 224.92 2085.33 235.24 2092.53 245.56 2098.89 255.76 2104.65 266.08 2109.81 276.4 2114.49 286.72 2118.69 296.92 2122.53 307.24 2126.01 317.56 2129.25 327.88 2132.13 338.08 2134.77"/></g><g style="display:inline;opacity:.46"><defs><polygon id="prefix__i" points="41.16 425.86 289.45 425.86 289.45 242.94 41.16 242.94 41.16 425.86"/></defs><clipPath id="prefix__j"><use xlink:href="#prefix__i" style="overflow:visible"/></clipPath><polyline points="41.16 -148.36 48.92 53.61 56.69 163.4 64.45 229.49 72.13 272.46 79.89 301.9 87.66 322.93 95.33 338.55 103.09 350.38 110.86 359.59 118.62 366.9 126.3 372.86 134.06 377.65 141.83 381.62 149.59 385.05 157.27 387.85 165.03 390.29 172.8 392.36 180.56 394.17 188.23 395.79 196 397.15 203.76 398.32 211.44 399.41 219.2 400.4 226.97 401.3 234.73 402.02 242.41 402.75 250.17 403.38 257.94 403.92 265.7 404.46 273.37 404.91 281.14 405.36 288.9 405.82"/><g><defs><polygon id="prefix__k" points="41.16 425.86 289.45 425.86 289.45 242.94 41.16 242.94 41.16 425.86"/></defs><clipPath id="prefix__l"><use xlink:href="#prefix__k" style="overflow:visible"/></clipPath><polyline points="41.16 -1059.98 48.92 -529.82 56.69 -241.81 64.45 -68.19 72.13 44.49 79.89 121.78 87.66 177.12 95.33 218.02 103.09 249.08 110.86 273.28 118.62 292.51 126.3 307.95 134.06 320.68 141.83 331.15 149.59 340 157.27 347.4 165.03 353.81 172.8 359.32 180.56 364.01 188.23 368.17 196 371.78 203.76 375.03 211.44 377.83 219.2 380.35 226.97 382.7 234.73 384.69 242.41 386.49 250.17 388.21 257.94 389.74 265.7 391.1 273.37 392.36 281.14 393.45 288.9 394.53"/></g><g><defs><polygon id="prefix__m" points="41.16 425.86 289.45 425.86 289.45 242.94 41.16 242.94 41.16 425.86"/></defs><clipPath id="prefix__n"><use xlink:href="#prefix__m" style="overflow:visible"/></clipPath><polyline points="41.16 -2399.47 48.92 -1387.09 56.69 -837.15 64.45 -505.53 72.13 -290.29 79.89 -142.76 87.66 -37.22 95.33 40.88 103.09 100.29 110.86 146.51 118.62 183.17 126.3 212.69 134.06 236.98 141.83 257.02 149.59 273.82 157.27 288.08 165.03 300.27 172.8 310.65 180.56 319.77 188.23 327.63 196 334.58 203.76 340.72 211.44 346.14 219.2 351.01 226.97 355.35 234.73 359.23 242.41 362.75 250.17 365.91 257.94 368.8 265.7 371.42 273.37 373.76 281.14 376.02 288.9 378.01"/></g></g></g><line style="fill:none;stroke:#939598;stroke-width:.5;stroke-linecap:square;stroke-linejoin:round;stroke-dasharray:1.4173" x1="231.29" y1="182.67" x2="231.29" y2="112.67"/><line style="fill:none;stroke:#939598;stroke-width:.5;stroke-linecap:square;stroke-linejoin:round;stroke-dasharray:1.4173" x1="169.36" y1="181.33" x2="169.36" y2="54.83"/><line style="fill:none;stroke:#939598;stroke-width:.5;stroke-linecap:square;stroke-linejoin:round;stroke-dasharray:1.4173" x1="153.88" y1="181.82" x2="153.88" y2="29.83"/><line style="fill:none;stroke:#6d6e71;stroke-width:.5;stroke-linecap:square" x1="45.5" y1="181.89" x2="293" y2="181.89"/><text transform="translate(35.473 184.02)" style="font-family:'Asap-Regular';font-size:7px">0</text><text transform="translate(28.658 155.904)" style="font-family:'Asap-Regular';font-size:7px">100</text><text transform="translate(28.581 127.788)" style="font-family:'Asap-Regular';font-size:7px">200</text><text transform="translate(28.623 99.672)" style="font-family:'Asap-Regular';font-size:7px">300</text><text transform="translate(28.812 71.556)" style="font-family:'Asap-Regular';font-size:7px">400</text><text transform="translate(28.609 43.44)" style="font-family:'Asap-Regular';font-size:7px">500</text><text transform="translate(28.581 15.324)" style="font-family:'Asap-Regular';font-size:7px">600</text><text transform="matrix(0 -.9726 1 0 17.469 139.763)" style="font-family:'Asap-Medium';font-size:8px">Consumption spending (€)</text><text transform="translate(56.212 192.913)" style="font-family:'Asap-Regular';font-size:7px">9</text><text transform="translate(68.203 192.914)" style="font-family:'Asap-Regular';font-size:7px">10</text><text transform="translate(83.938 192.913)" style="font-family:'Asap-Regular';font-size:7px">11</text><text transform="translate(99.673 192.914)" style="font-family:'Asap-Regular';font-size:7px">12</text><text transform="translate(115.408 192.913)" style="font-family:'Asap-Regular';font-size:7px">13</text><text transform="translate(131.143 192.914)" style="font-family:'Asap-Regular';font-size:7px">14</text><text transform="translate(146.878 192.913)" style="font-family:'Asap-Regular';font-size:7px">15</text><text transform="translate(162.613 192.913)" style="font-family:'Asap-Regular';font-size:7px">16</text><text transform="translate(178.348 192.914)" style="font-family:'Asap-Regular';font-size:7px">17</text><text transform="translate(194.083 192.914)" style="font-family:'Asap-Regular';font-size:7px">18</text><text transform="translate(209.818 192.914)" style="font-family:'Asap-Regular';font-size:7px">19</text><text transform="translate(225.553 192.914)" style="font-family:'Asap-Regular';font-size:7px">20</text><text transform="translate(241.288 192.913)" style="font-family:'Asap-Regular';font-size:7px">21</text><text transform="translate(257.024 192.913)" style="font-family:'Asap-Regular';font-size:7px">22</text><text transform="translate(272.758 192.913)" style="font-family:'Asap-Regular';font-size:7px">23</text><text transform="translate(288.493 192.913)" style="font-family:'Asap-Regular';font-size:7px">24</text><text transform="translate(236.422 109.485)" style="font-family:'Asap-Regular';font-size:7px">D</text><text transform="translate(174.422 54.485)" style="font-family:'Asap-Regular';font-size:7px">E</text><text transform="translate(159.422 29.485)" style="font-family:'Asap-Regular';font-size:7px">A</text><text transform="translate(122.45 206.763)" style="font-family:'Asap-Medium';font-size:8px">Hours of free time per day</text><text transform="translate(115.704 26.51)" style="font-family:'Asap-Regular';font-size:7px">B</text><line style="fill:none;stroke:#6d6e71;stroke-width:.5;stroke-linecap:square" x1="293.21" y1="184.02" x2="293.21" y2="181.89"/><line style="fill:none;stroke:#6d6e71;stroke-width:.5;stroke-linecap:square" x1="277.73" y1="181.89" x2="277.73" y2="184.02"/><line style="fill:none;stroke:#6d6e71;stroke-width:.5;stroke-linecap:square" x1="262.25" y1="181.89" x2="262.25" y2="184.02"/><line style="fill:none;stroke:#6d6e71;stroke-width:.5;stroke-linecap:square" x1="246.77" y1="181.89" x2="246.77" y2="184.02"/><line style="fill:none;stroke:#6d6e71;stroke-width:.5;stroke-linecap:square" x1="231.29" y1="181.89" x2="231.29" y2="184.02"/><line style="fill:none;stroke:#6d6e71;stroke-width:.5;stroke-linecap:square" x1="215.8" y1="181.89" x2="215.8" y2="184.02"/><line style="fill:none;stroke:#6d6e71;stroke-width:.5;stroke-linecap:square" x1="200.32" y1="181.89" x2="200.32" y2="184.02"/><line style="fill:none;stroke:#6d6e71;stroke-width:.5;stroke-linecap:square" x1="184.84" y1="181.89" x2="184.84" y2="184.02"/><line style="fill:none;stroke:#6d6e71;stroke-width:.5;stroke-linecap:square" x1="169.36" y1="181.89" x2="169.36" y2="184.02"/><line style="fill:none;stroke:#6d6e71;stroke-width:.5;stroke-linecap:square" x1="153.88" y1="181.89" x2="153.88" y2="184.02"/><line style="fill:none;stroke:#6d6e71;stroke-width:.5;stroke-linecap:square" x1="138.39" y1="181.89" x2="138.39" y2="184.02"/><line style="fill:none;stroke:#6d6e71;stroke-width:.5;stroke-linecap:square" x1="122.91" y1="181.89" x2="122.91" y2="184.02"/><line style="fill:none;stroke:#6d6e71;stroke-width:.5;stroke-linecap:square" x1="107.43" y1="181.89" x2="107.43" y2="184.02"/><line style="fill:none;stroke:#6d6e71;stroke-width:.5;stroke-linecap:square" x1="91.95" y1="181.89" x2="91.95" y2="184.02"/><line style="fill:none;stroke:#6d6e71;stroke-width:.5;stroke-linecap:square" x1="76.46" y1="181.89" x2="76.46" y2="184.02"/><line style="fill:none;stroke:#6d6e71;stroke-width:.5;stroke-linecap:square" x1="60.98" y1="181.89" x2="60.98" y2="184.02"/><line style="fill:none;stroke:#6d6e71;stroke-width:.5;stroke-linecap:square" x1="45.5" y1="181.89" x2="45.5" y2="184.02"/><line style="fill:none;stroke:#6d6e71;stroke-width:.5;stroke-linecap:square;stroke-linejoin:round" x1="45.04" y1="41.02" x2="42.91" y2="41.02"/><line style="fill:none;stroke:#6d6e71;stroke-width:.5;stroke-linecap:square;stroke-linejoin:round" x1="45.04" y1="13.02" x2="42.91" y2="13.02"/><line style="fill:none;stroke:#6d6e71;stroke-width:.5;stroke-linecap:square;stroke-linejoin:round" x1="45.04" y1="68.59" x2="42.91" y2="68.59"/><line style="fill:none;stroke:#6d6e71;stroke-width:.5;stroke-linecap:square;stroke-linejoin:round" x1="45.04" y1="96.88" x2="42.91" y2="96.88"/><line style="fill:none;stroke:#6d6e71;stroke-width:.5;stroke-linecap:square;stroke-linejoin:round" x1="45.04" y1="125.3" x2="42.91" y2="125.3"/><line style="fill:none;stroke:#6d6e71;stroke-width:.5;stroke-linecap:square;stroke-linejoin:round" x1="45.04" y1="152.88" x2="42.91" y2="152.88"/><text transform="translate(44.222 192.913)" style="font-family:'Asap-Regular';font-size:7px">8</text><line style="fill:none;stroke:#6d6e71;stroke-width:.5;stroke-linecap:square;stroke-linejoin:round" x1="45.04" y1="181.89" x2="42.91" y2="181.89"/><circle style="fill:#000101" cx="231.14" cy="158.36" r="1.13"/><line style="fill:none;stroke:#939598;stroke-width:.5;stroke-linecap:square;stroke-linejoin:round;stroke-dasharray:1.4173" x1="45.51" y1="113.02" x2="231" y2="113.02"/><line style="fill:none;stroke:#939598;stroke-width:.5;stroke-linecap:square;stroke-linejoin:round;stroke-dasharray:1.4173" x1="46" y1="55.15" x2="168.11" y2="55.15"/><line style="fill:none;stroke:#939598;stroke-width:.5;stroke-linecap:square;stroke-linejoin:round;stroke-dasharray:1.4173" x1="46" y1="30.33" x2="154" y2="30.33"/><circle style="fill:#000101" cx="168.96" cy="55.48" r="1.13"/><circle style="fill:#000101" cx="153.96" cy="30.48" r="1.13"/><line style="fill:none;stroke:#6d6e71;stroke-width:.5;stroke-linecap:square;stroke-linejoin:round" x1="45.5" y1="181.89" x2="45.5" y2="4.39"/><circle style="fill:#000101" cx="231.14" cy="113.36" r="1.13"/><circle style="fill:#000101" cx="113.96" cy="30.48" r="1.13"/><text transform="translate(235.194 166.435)" style="font-family:'Asap-Regular';font-size:7px">C</text></svg>