<svg version="1.1" xmlns="http://www.w3.org/2000/svg" x="0" y="0" viewBox="0 0 311.81 195.59" style="enable-background:new 0 0 311.81 195.59" xml:space="preserve"><rect x="230.99" y="9.16" style="fill:none;stroke:#ec2426;stroke-width:.5;stroke-linecap:square" width="49.02" height="13.53"/><text transform="translate(234.726 17.537)"><tspan x="0" y="0" style="fill:#020303;font-family:'Asap-Italic';font-size:6px">w</tspan><tspan x="4.48" y="0" style="fill:#020303;font-family:'Asap-Regular';font-size:6px"> = £10, </tspan><tspan x="22.95" y="0" style="fill:#020303;font-family:'Asap-Italic';font-size:6px">p</tspan><tspan x="26.39" y="0" style="fill:#020303;font-family:'Asap-Regular';font-size:6px"> = £20</tspan></text><polyline style="fill:none;stroke:#939598;stroke-width:.5;stroke-linecap:square;stroke-linejoin:round;stroke-miterlimit:10;stroke-dasharray:1.0006" points="88.69 161.24 88.69 114.17 57.85 114.17"/><polyline style="fill:none;stroke:#939598;stroke-width:.5;stroke-linecap:square;stroke-linejoin:round;stroke-miterlimit:10;stroke-dasharray:1.0006" points="58.01 145.25 149.89 145.25 149.89 161.46"/><text transform="translate(89.841 111.213)" style="font-family:'Asap-Regular';font-size:6px">P</text><text transform="matrix(.583 0 0 .583 93.261 113.211)" style="font-family:'Asap-Regular';font-size:6px">1</text><text transform="translate(152.634 140.98)" style="font-family:'Asap-Regular';font-size:6px">P</text><text transform="matrix(.583 0 0 .583 156.054 142.979)" style="font-family:'Asap-Regular';font-size:6px">2</text><circle cx="88.71" cy="114.9" r="1.13"/><circle cx="149.44" cy="145.46" r="1.13"/><line style="fill:none;stroke:#939598;stroke-width:.5;stroke-miterlimit:10" x1="57.86" y1="129.5" x2="55.74" y2="129.5"/><line style="fill:none;stroke:#939598;stroke-width:.5;stroke-miterlimit:10" x1="57.86" y1="114.24" x2="55.74" y2="114.24"/><line style="fill:none;stroke:#939598;stroke-width:.5;stroke-miterlimit:10" x1="57.86" y1="98.98" x2="55.74" y2="98.98"/><line style="fill:none;stroke:#939598;stroke-width:.5;stroke-miterlimit:10" x1="57.86" y1="83.73" x2="55.74" y2="83.73"/><line style="fill:none;stroke:#939598;stroke-width:.5;stroke-miterlimit:10" x1="57.86" y1="68.47" x2="55.74" y2="68.47"/><line style="fill:none;stroke:#939598;stroke-width:.5;stroke-miterlimit:10" x1="57.86" y1="53.21" x2="55.74" y2="53.21"/><line style="fill:none;stroke:#939598;stroke-width:.5;stroke-miterlimit:10" x1="57.86" y1="37.95" x2="55.74" y2="37.95"/><line style="fill:none;stroke:#939598;stroke-width:.5;stroke-miterlimit:10" x1="57.86" y1="22.69" x2="55.74" y2="22.69"/><line style="fill:none;stroke:#939598;stroke-width:.5;stroke-miterlimit:10" x1="57.86" y1="7.43" x2="55.74" y2="7.43"/><line style="fill:none;stroke:#939598;stroke-width:.5;stroke-miterlimit:10" x1="57.86" y1="144.76" x2="55.74" y2="144.76"/><text transform="translate(43.508 146.594)" style="font-family:'Asap-Regular';font-size:7px">1</text><text transform="translate(43.508 131.32)" style="font-family:'Asap-Regular';font-size:7px">2</text><text transform="translate(43.508 116.044)" style="font-family:'Asap-Regular';font-size:7px">3</text><text transform="translate(43.508 100.769)" style="font-family:'Asap-Regular';font-size:7px">4</text><text transform="translate(43.508 85.495)" style="font-family:'Asap-Regular';font-size:7px">5</text><text transform="translate(43.508 70.22)" style="font-family:'Asap-Regular';font-size:7px">6</text><text transform="translate(43.508 54.945)" style="font-family:'Asap-Regular';font-size:7px">7</text><text transform="translate(43.508 39.67)" style="font-family:'Asap-Regular';font-size:7px">8</text><text transform="translate(43.508 24.395)" style="font-family:'Asap-Regular';font-size:7px">9</text><text transform="translate(41.207 9.12)" style="font-family:'Asap-Regular';font-size:7px">10</text><line style="fill:none;stroke:#939598;stroke-width:.5;stroke-miterlimit:10" x1="164.98" y1="161.24" x2="164.98" y2="163.36"/><line style="fill:none;stroke:#939598;stroke-width:.5;stroke-miterlimit:10" x1="149.72" y1="161.24" x2="149.72" y2="163.36"/><line style="fill:none;stroke:#939598;stroke-width:.5;stroke-miterlimit:10" x1="134.47" y1="161.24" x2="134.47" y2="163.36"/><line style="fill:none;stroke:#939598;stroke-width:.5;stroke-miterlimit:10" x1="119.21" y1="161.24" x2="119.21" y2="163.36"/><line style="fill:none;stroke:#939598;stroke-width:.5;stroke-miterlimit:10" x1="103.95" y1="161.24" x2="103.95" y2="163.36"/><line style="fill:none;stroke:#939598;stroke-width:.5;stroke-miterlimit:10" x1="88.69" y1="161.24" x2="88.69" y2="163.36"/><line style="fill:none;stroke:#939598;stroke-width:.5;stroke-miterlimit:10" x1="73.43" y1="161.24" x2="73.43" y2="163.36"/><line style="fill:none;stroke:#939598;stroke-width:.5;stroke-miterlimit:10" x1="195.5" y1="161.24" x2="195.5" y2="163.36"/><line style="fill:none;stroke:#939598;stroke-width:.5;stroke-miterlimit:10" x1="225.37" y1="161.24" x2="225.37" y2="163.36"/><line style="fill:none;stroke:#939598;stroke-width:.5;stroke-miterlimit:10" x1="240.37" y1="161.24" x2="240.37" y2="163.36"/><text transform="translate(71.269 175.054)" style="font-family:'Asap-Regular';font-size:7px">1</text><text transform="translate(86.783 175.054)" style="font-family:'Asap-Regular';font-size:7px">2</text><text transform="translate(102.297 175.054)" style="font-family:'Asap-Regular';font-size:7px">3</text><text transform="translate(117.81 175.054)" style="font-family:'Asap-Regular';font-size:7px">4</text><text transform="translate(132.325 175.054)" style="font-family:'Asap-Regular';font-size:7px">5</text><text transform="translate(147.84 175.054)" style="font-family:'Asap-Regular';font-size:7px">6</text><text transform="translate(163.354 175.054)" style="font-family:'Asap-Regular';font-size:7px">7</text><text transform="translate(178.868 175.054)" style="font-family:'Asap-Regular';font-size:7px">8</text><text transform="translate(194.383 175.054)" style="font-family:'Asap-Regular';font-size:7px">9</text><text transform="translate(206.744 175.054)" style="font-family:'Asap-Regular';font-size:7px">10</text><text transform="translate(221.91 175.054)" style="font-family:'Asap-Regular';font-size:7px">11</text><text transform="translate(236.077 175.054)" style="font-family:'Asap-Regular';font-size:7px">12</text><text transform="translate(251.077 175.054)" style="font-family:'Asap-Regular';font-size:7px">13</text><line style="fill:none;stroke:#939598;stroke-width:.5;stroke-miterlimit:10" x1="180.5" y1="161.24" x2="180.5" y2="163.36"/><line style="fill:none;stroke:#939598;stroke-width:.5;stroke-miterlimit:10" x1="210.37" y1="161.24" x2="210.37" y2="163.36"/><line style="fill:none;stroke:#939598;stroke-width:.5;stroke-miterlimit:10" x1="255.37" y1="161.24" x2="255.37" y2="163.36"/><line style="fill:none;stroke:#939598;stroke-width:.5;stroke-miterlimit:10" x1="270.37" y1="161.24" x2="270.37" y2="163.36"/><text transform="translate(267.077 175.054)" style="font-family:'Asap-Regular';font-size:7px">14</text><text transform="translate(282.811 175.054)" style="font-family:'Asap-Regular';font-size:7px">15</text><polyline style="fill:none;stroke:#939598;stroke-width:.5;stroke-miterlimit:10" points="285.22 163.09 285.22 160.96 57.86 162.04 57.86 7.21"/><g><text transform="rotate(-90 71.78 41.263)" style="font-family:'Asap-Medium';font-size:8px">Amount of coal (tons)</text><text transform="translate(125.88 189.93)" style="font-family:'Asap-Medium';font-size:8px">Number of workers</text></g></svg>