<svg version="1.1" xmlns="http://www.w3.org/2000/svg" x="0" y="0" viewBox="0 0 311.81 212.92" style="enable-background:new 0 0 311.81 212.92" xml:space="preserve"><line style="fill:none;stroke:#ea2628;stroke-width:.5;stroke-linejoin:round" x1="77.5" y1="3.5" x2="306.57" y2="175.23"/><path style="fill:none;stroke:#ea2628;stroke-width:.5;stroke-linejoin:round" d="M42.35 46.05l261.78 127.81L42.35 46.05z"/><text transform="translate(181.458 77.55)" style="fill:#231f20;font-family:'Asap-Regular';font-size:6px">D</text><text transform="translate(173.142 120.027)" style="fill:#231f20;font-family:'Asap-Regular';font-size:6px">A</text><line style="fill:none" x1="50.84" y1="14.01" x2="310.73" y2="149.3"/><line style="fill:none;stroke:#e8292a;stroke-width:.5;stroke-linejoin:round;stroke-dasharray:1.417" x1="42.84" y1="16.38" x2="304.19" y2="143.96"/><text transform="translate(215.23 95.652)" style="fill:#231f20;font-family:'Asap-Regular';font-size:6px">C</text><text transform="matrix(1.0286 0 0 1 174.966 108.428)" style="fill:#231f20;font-family:'Asap-Regular';font-size:6px">Income effect</text><text transform="translate(175.731 67.555)" style="fill:#231f20;font-family:'Asap-Regular';font-size:6px">Substitution effect</text><line style="fill:none;stroke:#6d6e70;stroke-width:.5;stroke-linecap:square" x1="30.5" y1="175.5" x2="70.5" y2="175.5"/><line style="fill:none;stroke:#6d6e70;stroke-width:.5;stroke-linecap:square" x1="70.88" y1="175.75" x2="70.88" y2="178"/><line style="fill:none;stroke:#6d6e70;stroke-width:.5;stroke-linecap:square" x1="31.34" y1="178" x2="31.34" y2="175.75"/><line style="fill:none;stroke:#6d6e70;stroke-width:.5;stroke-linecap:square" x1="50.94" y1="175.75" x2="50.94" y2="178.03"/><line style="fill:none;stroke:#6d6e70;stroke-width:.5;stroke-linecap:square" x1="70.5" y1="175.5" x2="110.5" y2="175.5"/><line style="fill:none;stroke:#6d6e70;stroke-width:.5;stroke-linecap:square" x1="110.3" y1="175.75" x2="110.3" y2="177.87"/><line style="fill:none;stroke:#6d6e70;stroke-width:.5;stroke-linecap:square" x1="90.36" y1="175.75" x2="90.36" y2="178"/><line style="fill:none;stroke:#6d6e70;stroke-width:.5;stroke-linecap:square" x1="128.5" y1="175.5" x2="168.5" y2="175.5"/><line style="fill:none;stroke:#6d6e70;stroke-width:.5;stroke-linecap:square" x1="168.88" y1="175.75" x2="168.88" y2="178"/><line style="fill:none;stroke:#6d6e70;stroke-width:.5;stroke-linecap:square" x1="129" y1="178" x2="129" y2="175.75"/><line style="fill:none;stroke:#6d6e70;stroke-width:.5;stroke-linecap:square" x1="148.94" y1="175.75" x2="148.94" y2="178.03"/><line style="fill:none;stroke:#6d6e70;stroke-width:.5;stroke-linecap:square" x1="168.5" y1="175.5" x2="208.5" y2="175.5"/><line style="fill:none;stroke:#6d6e70;stroke-width:.5;stroke-linecap:square" x1="208.3" y1="175.75" x2="208.3" y2="177.87"/><line style="fill:none;stroke:#6d6e70;stroke-width:.5;stroke-linecap:square" x1="188.36" y1="175.75" x2="188.36" y2="178"/><line style="fill:none;stroke:#6d6e70;stroke-width:.5;stroke-linecap:square" x1="227.5" y1="175.5" x2="267.5" y2="175.5"/><line style="fill:none;stroke:#6d6e70;stroke-width:.5;stroke-linecap:square" x1="267.88" y1="175.75" x2="267.88" y2="178"/><line style="fill:none;stroke:#6d6e70;stroke-width:.5;stroke-linecap:square" x1="228" y1="178" x2="228" y2="175.75"/><line style="fill:none;stroke:#6d6e70;stroke-width:.5;stroke-linecap:square" x1="247.94" y1="175.75" x2="247.94" y2="178.03"/><line style="fill:none;stroke:#6d6e70;stroke-width:.5;stroke-linecap:square" x1="267.5" y1="175.5" x2="307.5" y2="175.5"/><line style="fill:none;stroke:#6d6e70;stroke-width:.5;stroke-linecap:square" x1="307.3" y1="175.75" x2="307.3" y2="177.87"/><line style="fill:none;stroke:#6d6e70;stroke-width:.5;stroke-linecap:square" x1="287.43" y1="175.75" x2="287.43" y2="178"/><line style="fill:none;stroke:#6d6e70;stroke-width:.5;stroke-linecap:square" x1="208.5" y1="175.5" x2="227" y2="175.5"/><line style="fill:none;stroke:#6d6e70;stroke-width:.5;stroke-linecap:square" x1="110.5" y1="175.5" x2="129" y2="175.5"/><line style="fill:none;stroke:#6d6e70;stroke-width:.5;stroke-linecap:square" x1="31.14" y1="14.89" x2="28.89" y2="14.89"/><line style="fill:none;stroke:#6d6e70;stroke-width:.5;stroke-linecap:square" x1="31.36" y1="15" x2="31.36" y2="58.51"/><line style="fill:none;stroke:#6d6e70;stroke-width:.5;stroke-linecap:square" x1="31.48" y1="57.31" x2="29.36" y2="57.31"/><line style="fill:none;stroke:#6d6e70;stroke-width:.5;stroke-linecap:square" x1="31.48" y1="38.38" x2="29.23" y2="38.38"/><line style="fill:none;stroke:#6d6e70;stroke-width:.5;stroke-linecap:square" x1="31.36" y1="76.51" x2="31.36" y2="116.51"/><line style="fill:none;stroke:#6d6e70;stroke-width:.5;stroke-linecap:square" x1="31.14" y1="116.89" x2="28.89" y2="116.89"/><line style="fill:none;stroke:#6d6e70;stroke-width:.5;stroke-linecap:square" x1="28.89" y1="77.01" x2="31.14" y2="77.01"/><line style="fill:none;stroke:#6d6e70;stroke-width:.5;stroke-linecap:square" x1="31.14" y1="96.95" x2="28.86" y2="96.95"/><line style="fill:none;stroke:#6d6e70;stroke-width:.5;stroke-linecap:square" x1="31.36" y1="116.51" x2="31.36" y2="156.51"/><line style="fill:none;stroke:#6d6e70;stroke-width:.5;stroke-linecap:square" x1="31.48" y1="156.31" x2="29.36" y2="156.31"/><line style="fill:none;stroke:#6d6e70;stroke-width:.5;stroke-linecap:square" x1="31.48" y1="136.38" x2="29.23" y2="136.38"/><line style="fill:none;stroke:#6d6e70;stroke-width:.5;stroke-linecap:square" x1="31.36" y1="156.51" x2="31.36" y2="175.01"/><line style="fill:none;stroke:#6d6e70;stroke-width:.5;stroke-linecap:square" x1="31.36" y1="58.51" x2="31.36" y2="77.01"/><text transform="translate(123.124 205.967)"><tspan x="0" y="0" style="fill:#231f20;font-family:'Asap-Medium';font-size:7.0207px">Days of free time, </tspan><tspan x="55.81" y="0" style="fill:#231f20;font-family:'Asap-MediumItalic';font-size:7.0207px">t</tspan></text><text transform="matrix(0 -.9726 1 0 6.448 125.052)"><tspan x="0" y="0" style="fill:#231f20;font-family:'Asap-Medium';font-size:7.1133px">Consumption, </tspan><tspan x="44.86" y="0" style="fill:#231f20;font-family:'Asap-MediumItalic';font-size:7.1133px">c</tspan><tspan x="48.31" y="0" style="fill:#231f20;font-family:'Asap-Medium';font-size:7.1133px"> ($)</tspan></text><text transform="translate(28.983 186.571)" style="fill:#231f20;font-family:'Asap-Regular';font-size:8.0422px">0</text><text transform="translate(48.523 186.561)" style="fill:#231f20;font-family:'Asap-Regular';font-size:8.0422px">5</text><text transform="translate(66.913 186.57)" style="fill:#231f20;font-family:'Asap-Regular';font-size:8.0422px">10</text><text transform="translate(86.453 186.54)" style="fill:#231f20;font-family:'Asap-Regular';font-size:8.0422px">15</text><text transform="translate(106.993 186.57)" style="fill:#231f20;font-family:'Asap-Regular';font-size:8.0422px">20</text><text transform="translate(123.534 186.571)" style="fill:#231f20;font-family:'Asap-Regular';font-size:8.0422px">25</text><text transform="translate(145.074 186.538)" style="fill:#231f20;font-family:'Asap-Regular';font-size:8.0422px">30</text><text transform="translate(164.613 186.538)" style="fill:#231f20;font-family:'Asap-Regular';font-size:8.0422px">35</text><text transform="translate(184.153 186.538)" style="fill:#231f20;font-family:'Asap-Regular';font-size:8.0422px">40</text><text transform="translate(203.693 186.54)" style="fill:#231f20;font-family:'Asap-Regular';font-size:8.0422px">45</text><text transform="translate(223.234 186.57)" style="fill:#231f20;font-family:'Asap-Regular';font-size:8.0422px">50</text><text transform="translate(243.773 186.561)" style="fill:#231f20;font-family:'Asap-Regular';font-size:8.0422px">55</text><text transform="translate(263.315 186.57)" style="fill:#231f20;font-family:'Asap-Regular';font-size:8.0422px">60</text><text transform="translate(283.854 186.571)" style="fill:#231f20;font-family:'Asap-Regular';font-size:8.0422px">65</text><text transform="translate(302.394 186.571)" style="fill:#231f20;font-family:'Asap-Regular';font-size:8.0422px">70</text><text transform="translate(11.01 158.51)" style="fill:#231f20;font-family:'Asap-Regular';font-size:7px">1000</text><text transform="translate(11.01 138.668)" style="fill:#231f20;font-family:'Asap-Regular';font-size:7px">2000</text><text transform="translate(11.01 119.825)" style="fill:#231f20;font-family:'Asap-Regular';font-size:7px">3000</text><text transform="translate(11.01 99.983)" style="fill:#231f20;font-family:'Asap-Regular';font-size:7px">4000</text><text transform="translate(11.01 79.14)" style="fill:#231f20;font-family:'Asap-Regular';font-size:7px">5000</text><text transform="translate(11.01 59.298)" style="fill:#231f20;font-family:'Asap-Regular';font-size:7px">6000</text><text transform="translate(11.01 40.455)" style="fill:#231f20;font-family:'Asap-Regular';font-size:7px">7000</text><text transform="translate(11.01 17.483)" style="fill:#231f20;font-family:'Asap-Regular';font-size:7px">8000</text><path style="fill:none;stroke:#ea2628;stroke-width:.5;stroke-linejoin:round" d="M31.36 40.82l10.99 5.23-10.99-5.23zM306.57 175.23l-2.45-1.38 2.45 1.38z"/><path style="fill:none;stroke:#5b74b8;stroke-width:.5;stroke-linejoin:round" d="M94.5 14.09c4.83 14.44 14.05 35.81 32 57 7.23 8.54 20.01 21.93 39 34 16.04 10.19 29.17 14.78 47 21 22.39 7.81 40.74 11.52 58 15 14.31 2.89 26.36 4.78 35 6"/><path style="fill:none;stroke:#5b74b8;stroke-width:.5;stroke-linejoin:round" d="M124.5 15.87a188.169 188.169 0 0031 43 189.06 189.06 0 0020 18c8.77 6.84 23.33 16.94 52 29 18.42 7.75 44.67 17.15 78 24"/><circle style="fill:#000100" cx="180.56" cy="113.54" r="1.23"/><circle style="fill:#000100" cx="211.31" cy="98.6" r="1.23"/><circle style="fill:#000100" cx="176.56" cy="77.88" r="1.23"/><polyline style="fill:none;stroke:#939598;stroke-width:.5;stroke-miterlimit:10" points="175.56 70.5 222.97 70.5 176.1 70.5"/><polygon style="fill:#939598" points="177.76 68.46 178.1 68.82 176.29 70.5 178.1 72.18 177.76 72.54 175.56 70.5"/><polyline style="fill:none;stroke:#939598;stroke-width:.5;stroke-miterlimit:10" points="217 109.5 179.81 109.5 216.46 109.5"/><polygon style="fill:#939598" points="214.8 111.54 214.46 111.18 216.27 109.5 214.46 107.82 214.8 107.46 217 109.5"/><path style="fill:#231f20;stroke:#939598;stroke-width:.5;stroke-miterlimit:10" d="M175.95 109.5h3.85-3.85z"/><text transform="translate(22.056 177.783)" style="fill:#231f20;font-family:'Asap-Regular';font-size:8.0422px">0</text></svg>