<svg width="186" height="142" viewBox="0 0 186 142" fill="none" xmlns="http://www.w3.org/2000/svg">
<g filter="url(#filter0_d_698_13163)">
<circle cx="53.814" cy="52.2146" r="8.12307" fill="url(#paint0_linear_698_13163)"/>
<path d="M45.8557 93.8612C49.2614 96.526 41.3797 112.287 37.9089 116.382C34.438 120.476 29.1924 127.39 25.0297 125.775C19.6684 118.688 28.811 115.687 32.8142 103.775C35.8416 94.7664 35.6383 85.8668 45.8557 93.8612Z" fill="#FFE8B3"/>
<path d="M80.4993 60.875C81.4142 63.0135 77.201 67.6114 73.7301 71.7059C70.2592 75.8003 56.1301 78.8136 60.8686 72.0443C60.8686 61.8906 59.9541 71.8008 70.007 64.2598C72.7147 62.2287 77.4583 53.7675 80.4993 60.875Z" fill="#FFD87C"/>
<path d="M61.9222 93.6207C65.9837 96.5578 63.4439 100.729 62.767 105.806C62.0901 110.883 60.0362 120.101 51.7683 116.974C46.9732 111.117 55.8996 101.003 53.1223 100.39C30.1068 95.3131 52.784 87.012 61.9222 93.6207Z" fill="#FFE8B3"/>
<path d="M60.9111 114.885L17.3599 123.786C16.5147 123.958 15.9077 124.702 15.9077 125.565C15.9077 126.601 16.7732 127.427 17.8081 127.378L127.233 122.274C129.901 122.15 132 119.95 132 117.279V88.4302C132 85.3148 129.182 82.958 126.116 83.509L90.1124 89.9783C89.1749 90.1468 88.3051 90.5795 87.6052 91.2255L63.3013 113.66C62.6312 114.279 61.8046 114.702 60.9111 114.885Z" fill="#D9D9D9"/>
<path d="M84.6147 116.636L16.584 127.129L131.661 121.713V92.6055L103.23 97.3439L84.6147 116.636Z" fill="url(#paint1_linear_698_13163)"/>
<path d="M45.5683 93.9341C48.8331 96.5939 41.2777 112.326 37.9506 116.413C34.6234 120.5 29.5951 127.401 25.6047 125.788C20.4655 118.715 29.2295 115.719 33.067 103.829C35.9689 94.8375 35.7741 85.9544 45.5683 93.9341Z" fill="#3F3D56"/>
<path d="M22 122.643L22.6769 121.29C22.6769 120.5 22.7446 118.582 24.3692 118.582C24.3692 121.29 28.4308 119.597 36.5538 118.582C39.5323 118.311 39.8256 121.177 39.6 122.643H22Z" fill="black"/>
<path d="M81.5159 60.9039C82.4308 63.0423 78.2176 67.6403 74.7467 71.7347C71.2758 75.8291 57.1467 78.8424 61.8852 72.0731C61.8852 61.9194 60.9707 71.8296 71.0236 64.2886C73.7313 62.2575 78.4749 53.7963 81.5159 60.9039Z" fill="url(#paint2_linear_698_13163)"/>
<path d="M124 7C124 6.44771 124.448 6 125 6V6C125.552 6 126 6.44772 126 7V84H124V7Z" fill="#9A480C"/>
<path d="M61.7251 93.826C65.7738 96.6087 63.2421 100.56 62.5673 105.37C61.8925 110.18 59.8451 118.914 51.6032 115.951C47.892 110.713 55.7214 100.82 52.9529 100.239C30.0098 95.4294 52.6157 87.565 61.7251 93.826Z" fill="#3F3D56"/>
<path d="M48.3994 117.922L49.0763 116.568C49.0763 115.779 49.144 113.861 50.7686 113.861C50.7686 116.568 54.8302 114.876 62.9533 113.861C65.9317 113.59 66.225 116.456 65.9994 117.922H48.3994Z" fill="black"/>
<path d="M59.9634 64.2018C67.3533 69.619 55.4267 91.2806 51.4456 95.6806C47.4645 100.081 42.3071 98.7267 38.584 97.3729C33.7891 91.4347 32.7175 87.896 38.5841 79.0959C42.6456 73.0035 44.9912 53.2264 59.9634 64.2018Z" fill="#3F3D56"/>
<path d="M126 13.0288C126 13.0288 137.395 4.15937 145.131 9.97867C156.638 18.6354 175.254 11.3324 175.254 11.3324V35.7017C175.254 35.7017 156.3 43.0044 146.485 35.7017C136.669 28.3989 126 34.0288 126 34.0288L127.5 23.5288L126 13.0288Z" fill="white"/>
<path d="M150.416 15.1204C150.576 15.1068 150.815 15.1068 151.16 15.0933C151.359 15.1068 151.598 15.1325 151.863 15.1989C152.234 15.2924 152.527 15.4252 152.752 15.5566L152.765 15.5701C152.951 15.6758 153.203 15.8357 153.482 16.0741C153.88 16.3924 154.623 17.0034 155.035 18.0506C155.114 18.2633 155.234 18.541 155.273 18.9258C155.312 19.2577 155.3 19.5625 155.259 20.1599C155.232 20.6639 155.207 20.7303 155.232 20.9687C155.259 21.1543 155.285 21.4727 155.471 21.7775C155.617 22.0037 155.736 22.0566 156.187 22.4941C156.572 22.8653 156.479 22.826 156.718 23.0387C157.183 23.4506 157.422 23.5034 157.581 23.8475C157.609 23.9139 157.621 23.9667 157.634 23.9938C157.648 24.0331 157.714 24.2986 157.607 24.5506C157.541 24.7105 157.474 24.6834 157.25 24.9624C157.117 25.1223 157.023 25.228 156.97 25.4136C156.943 25.4799 156.891 25.652 156.918 25.8918C156.931 26.0245 156.945 26.1573 157.037 26.3036C157.183 26.5163 157.355 26.4757 157.488 26.7019C157.515 26.7547 157.568 26.8482 157.568 26.9674C157.554 27.153 157.396 27.2858 157.355 27.3251C157.236 27.4308 157.183 27.3915 157.076 27.5107C157.037 27.55 156.957 27.6434 156.983 27.7491C156.996 27.8155 157.035 27.8548 157.076 27.8954C157.222 28.0282 157.342 27.9754 157.422 28.081C157.474 28.1474 157.474 28.2409 157.474 28.3073C157.474 28.3465 157.474 28.4536 157.394 28.5592C157.342 28.6392 157.289 28.6649 157.222 28.7056C157.05 28.8519 157.037 29.1038 157.023 29.2366C157.01 29.475 157.076 29.5821 157.117 29.7934C157.21 30.3109 156.957 30.7756 156.918 30.8555C156.691 31.2795 156.32 31.4787 156.187 31.5451C155.683 31.8106 155.072 31.7835 153.838 31.7307C153.786 31.7307 153.612 31.7171 153.401 31.7442C153.401 31.7442 153.229 31.7577 153.069 31.797C152.883 31.8363 152.446 31.9163 152.02 32.1818C151.264 32.66 150.946 33.3888 150.853 33.6544L150.68 33.84C150.548 33.9334 150.335 34.0391 150.069 34.1312C149.87 34.1976 149.712 34.2247 149.433 34.264C148.968 34.3304 148.703 34.3697 148.304 34.3832C147.668 34.4103 147.203 34.3561 146.805 34.3033C146.115 34.2234 145.491 34.1041 144.947 33.9578L145.625 34.0378C145.943 34.0648 146.302 34.0906 146.753 34.077C147.151 34.0635 147.43 34.0242 147.894 33.9578C148.185 33.9185 148.345 33.8914 148.531 33.8251C148.796 33.7451 149.009 33.6259 149.141 33.546L149.327 33.3739C149.433 33.1084 149.751 32.4053 150.508 31.9406C150.932 31.6887 151.384 31.5952 151.571 31.5559C151.743 31.5166 151.916 31.5031 151.916 31.5031C152.142 31.476 152.301 31.4895 152.367 31.4895C153.601 31.5423 154.224 31.5694 154.742 31.3039C154.888 31.2375 155.246 31.0384 155.486 30.6266C155.525 30.5466 155.777 30.109 155.685 29.5915C155.646 29.3789 155.566 29.2867 155.591 29.0469C155.605 28.9142 155.618 28.6757 155.79 28.5294C155.843 28.4766 155.91 28.4631 155.963 28.3831C156.029 28.2775 156.042 28.1704 156.042 28.1311C156.042 28.0648 156.042 27.9848 155.99 27.9185C155.91 27.8128 155.777 27.8656 155.644 27.7329C155.605 27.6936 155.564 27.6529 155.551 27.6001C155.537 27.4944 155.617 27.4145 155.656 27.3739C155.762 27.2682 155.816 27.2939 155.935 27.1883C155.975 27.149 156.135 27.0284 156.148 26.8428C156.162 26.7371 156.109 26.6437 156.068 26.5908C155.935 26.3646 155.763 26.4052 155.617 26.2061C155.524 26.0733 155.511 25.9406 155.498 25.8078C155.471 25.5816 155.537 25.396 155.551 25.3431C155.617 25.1711 155.711 25.064 155.83 24.9055C156.056 24.64 156.121 24.6671 156.187 24.5073C156.293 24.2553 156.227 23.9897 156.215 23.9627C156.215 23.9356 156.187 23.8827 156.162 23.8299C156.002 23.498 155.763 23.4451 155.299 23.0469C155.06 22.8477 155.152 22.887 154.754 22.5158C154.303 22.0918 154.17 22.0376 154.037 21.8263C153.852 21.535 153.825 21.2288 153.799 21.0432C153.772 20.817 153.799 20.752 153.826 20.2602C153.865 19.6763 153.879 19.385 153.84 19.0653C153.787 18.6941 153.68 18.4151 153.601 18.2159C153.177 17.208 152.433 16.6106 152.035 16.3057C151.85 16.1594 151.678 16.0402 151.518 15.9481C151.398 15.8424 151.199 15.6826 150.947 15.5498C150.51 15.3236 150.151 15.2978 150.151 15.245C150.151 15.2314 150.19 15.2057 150.323 15.1922L150.416 15.1122V15.1204Z" fill="#F27F2E"/>
<path d="M149.236 34.2397C148.891 34.2926 148.652 34.3197 148.347 34.3332L149.236 34.2397Z" fill="#F27F2E"/>
<path d="M144.896 33.9215H144.883L145.56 34.0015C145.879 34.0286 146.238 34.0543 146.689 34.0408C147.087 34.0272 147.366 33.9879 147.829 33.9215C148.121 33.8823 148.28 33.8552 148.466 33.7888C148.732 33.7089 148.944 33.5896 149.077 33.5097L149.263 33.3377C149.368 33.0721 149.687 32.369 150.444 31.9044C150.868 31.6524 151.319 31.5589 151.506 31.5196C151.678 31.4803 151.852 31.4668 151.852 31.4668C152.078 31.4397 152.236 31.4532 152.303 31.4532C153.537 31.5061 154.16 31.5332 154.677 31.2676C154.824 31.2013 155.181 31.0021 155.421 30.5903C155.461 30.5103 155.712 30.0728 155.62 29.5553C155.581 29.3426 155.501 29.2504 155.527 29.0107C155.54 28.8779 155.554 28.6395 155.726 28.4932C155.779 28.4403 155.845 28.4268 155.898 28.3468C155.964 28.2412 155.978 28.1342 155.978 28.0949C155.978 28.0285 155.978 27.9486 155.925 27.8822C155.845 27.7765 155.712 27.8293 155.58 27.6966C155.54 27.6573 155.5 27.6166 155.486 27.5638C155.473 27.4581 155.553 27.3782 155.592 27.3376C155.698 27.2319 155.752 27.2576 155.871 27.152C155.91 27.1127 156.07 26.9921 156.084 26.8065C156.097 26.7009 156.044 26.6074 156.004 26.5545C155.871 26.3283 155.699 26.3689 155.553 26.1698C155.459 26.037 155.447 25.9043 155.433 25.7715C155.406 25.5453 155.473 25.3597 155.486 25.3068C155.553 25.1348 155.646 25.0278 155.765 24.8693C155.992 24.6037 156.057 24.6308 156.123 24.471C156.229 24.219 156.162 23.9535 156.15 23.9264C156.15 23.8993 156.123 23.8464 156.097 23.7936C155.937 23.4617 155.699 23.4089 155.234 23.0106C154.996 22.8114 155.088 22.8507 154.69 22.4795C154.239 22.0555 154.106 22.0013 153.973 21.79C153.787 21.4987 153.76 21.1925 153.735 21.0069C153.707 20.7807 153.735 20.7157 153.762 20.2239C153.801 19.64 153.815 19.3488 153.775 19.029C153.722 18.6578 153.615 18.3788 153.537 18.1796C153.113 17.1717 152.369 16.5743 151.971 16.2695C151.785 16.1232 151.613 16.0039 151.453 15.9118C151.334 15.8061 151.135 15.6463 150.883 15.5135C150.445 15.2873 150.086 15.2615 150.086 15.2087C150.086 15.1952 150.126 15.1694 150.258 15.1559L150.444 15.1423C150.604 15.1288 150.842 15.1288 151.188 15.1152C151.387 15.1288 151.625 15.1545 151.891 15.2209C152.262 15.3144 152.555 15.4471 152.78 15.5786L152.793 15.5921C152.979 15.6978 153.231 15.8576 153.51 16.0961C153.908 16.4144 154.65 17.0254 155.062 18.0726C155.142 18.2853 155.261 18.563 155.301 18.9478C155.34 19.2797 155.328 19.5845 155.287 20.1819C155.26 20.6859 155.234 20.7523 155.26 20.9907C155.287 21.1763 155.313 21.4946 155.498 21.7995C155.645 22.0257 155.764 22.0785 156.215 22.5161C156.6 22.8873 156.506 22.848 156.746 23.0607C157.211 23.4725 157.449 23.5254 157.609 23.8695C157.636 23.9359 157.648 23.9887 157.662 24.0158C157.675 24.0551 157.742 24.3206 157.635 24.5726C157.568 24.7324 157.502 24.7053 157.277 24.9844C157.144 25.1443 157.051 25.2499 156.998 25.4355C156.971 25.5019 156.918 25.674 156.945 25.9138C156.959 26.0465 156.972 26.1793 157.065 26.3256C157.211 26.5383 157.383 26.4976 157.516 26.7239C157.543 26.7767 157.596 26.8702 157.596 26.9894C157.582 27.175 157.424 27.3078 157.383 27.3471C157.264 27.4527 157.211 27.4134 157.104 27.5327C157.065 27.5719 156.985 27.6654 157.01 27.7711C157.024 27.8375 157.063 27.8768 157.104 27.9174C157.25 28.0502 157.369 27.9973 157.449 28.103C157.502 28.1694 157.502 28.2629 157.502 28.3292C157.502 28.3685 157.502 28.4755 157.422 28.5812C157.369 28.6611 157.316 28.6869 157.25 28.7275C157.078 28.8738 157.065 29.1258 157.051 29.2586C157.037 29.497 157.104 29.604 157.144 29.8154C157.238 30.3329 156.985 30.7975 156.945 30.8775C156.719 31.3015 156.348 31.5006 156.215 31.567C155.711 31.8326 155.1 31.8055 153.866 31.7526C153.813 31.7526 153.64 31.7391 153.428 31.7662C153.428 31.7662 153.256 31.7797 153.097 31.819C152.911 31.8583 152.473 31.9382 152.048 32.2038C151.292 32.682 150.974 33.4108 150.88 33.6763L150.708 33.8619C150.575 33.9554 150.363 34.0611 150.097 34.1532C149.898 34.2196 149.74 34.2467 149.46 34.286C149.408 34.2995 149.355 34.2995 149.314 34.3131" fill="#F27F2E"/>
<path d="M149.275 34.2398C149.302 34.2398 149.342 34.2263 149.369 34.2263C149.648 34.187 149.82 34.1599 150.005 34.0935C150.271 34.0001 150.47 33.8944 150.616 33.8023L150.789 33.6167C150.894 33.3376 151.2 32.6209 151.956 32.1441C152.38 31.8786 152.819 31.7864 153.005 31.7593C153.177 31.7201 153.337 31.7065 153.337 31.7065C153.563 31.6794 153.721 31.693 153.774 31.693C154.013 31.7065 154.225 31.7065 154.411 31.7201H154.69C155.168 31.7201 155.606 31.6537 155.977 31.5602H156.016C156.043 31.5467 156.083 31.5331 156.11 31.5209C156.256 31.441 156.614 31.2554 156.84 30.8314C156.879 30.7514 157.131 30.2868 157.039 29.7693C157 29.543 156.934 29.4509 156.946 29.2125C156.959 29.0797 156.973 28.8277 157.145 28.6814C157.198 28.6286 157.251 28.615 157.317 28.5351C157.383 28.4294 157.397 28.3224 157.397 28.2831C157.397 28.2167 157.397 28.1368 157.344 28.0569C157.264 27.9377 157.145 28.004 156.999 27.8713C156.959 27.832 156.919 27.7913 156.905 27.725C156.892 27.6193 156.971 27.5258 156.999 27.4865C157.092 27.3673 157.158 27.4066 157.278 27.3009C157.317 27.2617 157.477 27.1411 157.49 26.9433C157.504 26.8241 157.451 26.7306 157.41 26.6778C157.278 26.4515 157.106 26.4922 156.959 26.2795C156.866 26.1467 156.854 26.0004 156.84 25.8676C156.813 25.6292 156.879 25.4436 156.893 25.3894C156.959 25.2174 157.053 25.0982 157.172 24.9383C157.398 24.6592 157.463 24.6999 157.53 24.5265C157.635 24.2745 157.569 23.9954 157.557 23.9697C157.557 23.9426 157.53 23.8897 157.504 23.8234C157.344 23.4779 157.106 23.4251 156.641 23.0146C156.402 22.8019 156.495 22.8425 156.11 22.47C155.659 22.0324 155.54 21.9796 155.393 21.7533C155.208 21.4485 155.181 21.1424 155.155 20.9446C155.128 20.7061 155.155 20.6398 155.182 20.1358C155.221 19.5384 155.235 19.2335 155.195 18.9016C155.143 18.5169 155.036 18.2378 154.957 18.0265C154.545 16.9915 153.803 16.3805 153.404 16.0499C153.125 15.8237 152.873 15.6652 152.688 15.546L152.674 15.5324C152.462 15.4132 152.157 15.2669 151.786 15.1748C151.52 15.1084 151.282 15.0813 151.082 15.0691H150.751L150.352 15.1084L150.604 15.0556C150.989 14.9892 151.294 15.0027 151.534 15.0163C152.264 15.0691 152.807 15.3075 153.219 15.5067C153.498 15.6259 153.736 15.7587 153.949 15.8914L153.988 15.9185C154.215 16.0648 154.453 16.2369 154.691 16.436C154.811 16.5295 154.918 16.6216 155.01 16.7151L155.023 16.7287C155.475 17.0606 156.072 17.5645 156.47 18.3476C156.564 18.5467 156.696 18.8122 156.761 19.1699C156.814 19.4882 156.814 19.7809 156.789 20.3647C156.775 20.843 156.749 20.9215 156.789 21.1342C156.816 21.3198 156.855 21.6124 157.068 21.9037C157.228 22.1164 157.359 22.1557 157.876 22.5675C158.314 22.913 158.208 22.8859 158.474 23.0715C158.991 23.4427 159.257 23.4833 159.442 23.8152C159.482 23.8816 159.495 23.9209 159.509 23.948C159.522 23.9873 159.602 24.2393 159.495 24.4926C159.429 24.6524 159.349 24.6254 159.111 24.9044C158.978 25.0643 158.884 25.17 158.819 25.342C158.792 25.4084 158.739 25.5804 158.78 25.8067C158.794 25.9259 158.819 26.0722 158.926 26.1914C159.086 26.3906 159.272 26.3377 159.43 26.5626C159.47 26.6154 159.524 26.6954 159.524 26.8146C159.524 27.0002 159.352 27.133 159.311 27.16C159.178 27.2657 159.125 27.24 159.02 27.3456C158.981 27.3849 158.901 27.4784 158.914 27.5841C158.928 27.6505 158.981 27.6897 159.02 27.7168C159.18 27.8361 159.311 27.7832 159.405 27.8889C159.471 27.9553 159.471 28.0352 159.471 28.1016C159.471 28.1409 159.471 28.2479 159.405 28.3536C159.352 28.4335 159.285 28.4592 159.233 28.4999C159.047 28.6462 159.047 28.8846 159.033 29.0174C159.02 29.2558 159.113 29.3493 159.153 29.562C159.272 30.0659 159.02 30.5035 158.967 30.5834C158.729 30.9953 158.344 31.2066 158.198 31.273C158.118 31.3123 158.038 31.3394 157.959 31.3665L156.977 31.5927C156.221 31.8447 155.637 31.9111 155.225 31.9111C154.907 31.9111 154.403 31.884 153.778 32.0967C153.606 32.1495 153.46 32.2159 153.367 32.2565L153.339 32.2836C152.769 32.7483 152.517 33.2915 152.437 33.5178L152.252 33.7034C152.105 33.7969 151.88 33.9025 151.601 34.0082C151.389 34.0746 151.217 34.1139 150.912 34.168C150.408 34.248 150.115 34.3008 149.678 34.3279C149.465 34.3415 149.254 34.355 149.067 34.355H148.403" fill="#F2AA79"/>
<path d="M141.155 23.7188C141.792 23.7188 142.309 23.2019 142.309 22.5642C142.309 21.9266 141.792 21.4097 141.155 21.4097C140.517 21.4097 140 21.9266 140 22.5642C140 23.2019 140.517 23.7188 141.155 23.7188Z" fill="#F27F2E"/>
<path d="M141.272 22.4967L144.006 28.0429L141.02 22.6294C140.981 22.563 141.007 22.4831 141.073 22.4438C141.153 22.4045 141.233 22.4303 141.272 22.4967Z" fill="#F17F2D"/>
<path d="M142.681 18.2642C143.201 18.2642 143.623 17.8426 143.623 17.3224C143.623 16.8023 143.201 16.3806 142.681 16.3806C142.161 16.3806 141.739 16.8023 141.739 17.3224C141.739 17.8426 142.161 18.2642 142.681 18.2642Z" fill="#F27F2E"/>
<path d="M143.94 28.6272C144.46 28.6272 144.882 28.2056 144.882 27.6854C144.882 27.1653 144.46 26.7437 143.94 26.7437C143.42 26.7437 142.998 27.1653 142.998 27.6854C142.998 28.2056 143.42 28.6272 143.94 28.6272Z" fill="#F27F2E"/>
<path d="M143.994 27.5532L148.239 29.4106L143.887 27.8187C143.82 27.7917 143.781 27.7131 143.807 27.6467C143.834 27.5532 143.912 27.5139 143.992 27.5532C143.979 27.5532 143.992 27.5532 143.992 27.5532H143.994Z" fill="#F17F2D"/>
<path d="M144.074 27.6723L144.976 32.6211L143.795 27.7251C143.781 27.6452 143.822 27.5788 143.9 27.5531C143.98 27.5395 144.06 27.5802 144.072 27.6723C144.072 27.6633 144.072 27.6633 144.072 27.6723H144.074Z" fill="#F17F2D"/>
<path d="M148.134 29.994C148.464 29.994 148.732 29.7265 148.732 29.3964C148.732 29.0664 148.464 28.7988 148.134 28.7988C147.804 28.7988 147.537 29.0664 147.537 29.3964C147.537 29.7265 147.804 29.994 148.134 29.994Z" fill="#F27F2E"/>
<path d="M144.977 32.9279C145.307 32.9279 145.574 32.6603 145.574 32.3303C145.574 32.0002 145.307 31.7327 144.977 31.7327C144.646 31.7327 144.379 32.0002 144.379 32.3303C144.379 32.6603 144.646 32.9279 144.977 32.9279Z" fill="#F27F2E"/>
<path d="M143.873 27.5664L147.497 25.1909L144.033 27.7927C143.967 27.832 143.887 27.832 143.834 27.7656C143.795 27.7128 143.807 27.6193 143.873 27.5664C143.873 27.5664 143.86 27.58 143.873 27.5664Z" fill="#F17F2D"/>
<path d="M147.193 26.0148C147.523 26.0148 147.79 25.7472 147.79 25.4172C147.79 25.0871 147.523 24.8196 147.193 24.8196C146.863 24.8196 146.595 25.0871 146.595 25.4172C146.595 25.7472 146.863 26.0148 147.193 26.0148Z" fill="#F27F2E"/>
<path d="M142.826 17.361L141.167 22.6689L142.56 17.2825C142.574 17.2025 142.654 17.1633 142.732 17.189C142.799 17.2025 142.838 17.2825 142.826 17.361Z" fill="#F17F2D"/>
<path d="M142.734 17.1508L148.878 19.3265L142.641 17.415C142.561 17.3879 142.522 17.3093 142.547 17.2429C142.574 17.163 142.653 17.1237 142.733 17.1494C142.719 17.1494 142.733 17.1494 142.733 17.1494L142.734 17.1508Z" fill="#F17F2D"/>
<path d="M148.931 19.9376C149.261 19.9376 149.528 19.6701 149.528 19.34C149.528 19.01 149.261 18.7424 148.931 18.7424C148.601 18.7424 148.333 19.01 148.333 19.34C148.333 19.6701 148.601 19.9376 148.931 19.9376Z" fill="#F27F2E"/>
<path d="M142.801 17.19L146.396 22.0332L142.575 17.3621C142.522 17.2957 142.535 17.2158 142.588 17.1629C142.654 17.1236 142.748 17.1358 142.801 17.19Z" fill="#F17F2D"/>
<path d="M146.383 22.6967C146.713 22.6967 146.98 22.4291 146.98 22.0991C146.98 21.769 146.713 21.5015 146.383 21.5015C146.053 21.5015 145.785 21.769 145.785 22.0991C145.785 22.4291 146.053 22.6967 146.383 22.6967Z" fill="#F27F2E"/>
<path d="M142.653 17.15L148.518 15.6638L142.733 17.4141C142.653 17.4412 142.587 17.4006 142.561 17.3206C142.534 17.2407 142.575 17.1743 142.655 17.1486C142.641 17.1486 142.655 17.1486 142.655 17.1486L142.653 17.15Z" fill="#F17F2D"/>
<path d="M148.546 16.1952C148.876 16.1952 149.143 15.9276 149.143 15.5976C149.143 15.2676 148.876 15 148.546 15C148.216 15 147.948 15.2676 147.948 15.5976C147.948 15.9276 148.216 16.1952 148.546 16.1952Z" fill="#F27F2E"/>
<path d="M83.0158 58.5145C87.3987 59.4078 91.2437 54.703 92.5389 52.0137C92.6923 52.248 93.4478 52.4586 94.5879 53.4533C90.5425 60.1194 85.2717 61.6672 83.2329 61.1045C83.2535 60.7004 83.0277 59.5782 83.0158 58.5145Z" fill="url(#paint3_linear_698_13163)"/>
<path d="M119.498 50.5347C123.315 49.4179 124.128 44.1775 124.007 41.5324C124.226 41.6525 124.908 41.5043 126.223 41.8114C125.869 48.7142 122.191 51.7134 120.353 52.1175C120.199 51.7922 119.957 51.3636 119.498 50.5347Z" fill="url(#paint4_linear_698_13163)"/>
<path d="M118.635 22.2245C118.423 20.4336 116.799 19.1537 115.008 19.3657L89.1996 22.4219C87.4087 22.6339 86.1288 24.2577 86.3408 26.0486L87.2961 34.116C88.1444 41.2798 94.6395 46.3994 101.803 45.5512L108.155 44.799C115.319 43.9507 120.439 37.4557 119.59 30.2919L118.635 22.2245Z" fill="url(#paint5_linear_698_13163)"/>
<rect width="4.89019" height="2.93411" rx="1.46706" transform="matrix(-0.991915 0.126901 0.126901 0.991915 109.893 17.3862)" fill="#EC7115"/>
<rect width="4.89019" height="2.93411" rx="1.46706" transform="matrix(-0.991915 0.126901 0.126901 0.991915 96.2012 19.0979)" fill="#EC7115"/>
<path d="M107.002 12.1837C106.965 12.045 106.839 11.9484 106.696 11.9484V11.9484C106.521 11.9484 106.379 12.0904 106.379 12.2656L106.379 17.1993C106.379 17.7893 106.903 18.2412 107.487 18.1537V18.1537C108.056 18.0683 108.425 17.5065 108.276 16.9501L107.002 12.1837Z" fill="#D9D9D9"/>
<path d="M93.3088 13.8956C93.2717 13.7569 93.146 13.6603 93.0024 13.6603V13.6603C92.8272 13.6603 92.6852 13.8023 92.6852 13.9775L92.6852 18.9112C92.6852 19.5012 93.2099 19.9531 93.7933 19.8656V19.8656C94.3628 19.7803 94.7312 19.2184 94.5826 18.6621L93.3088 13.8956Z" fill="#D9D9D9"/>
<circle r="0.856021" transform="matrix(-1 0 0 1 106.721 11.8848)" fill="#F27F2E"/>
<circle r="0.856021" transform="matrix(-1 0 0 1 93.0273 13.5965)" fill="#F27F2E"/>
<path d="M93.3088 13.8956C93.2717 13.7569 93.146 13.6603 93.0024 13.6603V13.6603C92.8272 13.6603 92.6852 13.8023 92.6852 13.9775L92.6852 18.9112C92.6852 19.5012 93.2099 19.9531 93.7933 19.8656V19.8656C94.3628 19.7803 94.7312 19.2184 94.5826 18.6621L93.3088 13.8956Z" fill="#D9D9D9"/>
<rect width="4.89019" height="2.93411" rx="1.46706" transform="matrix(-0.991915 0.126901 0.126901 0.991915 106.635 85.0222)" fill="#EC7115"/>
<path d="M102.608 67.5282C102.535 67.2239 102.269 67.005 101.956 66.9918V66.9918C101.548 66.9747 101.212 67.3077 101.226 67.7153L101.777 84.4171C101.797 85.0148 102.333 85.4617 102.925 85.373L105.684 84.9594C106.264 84.8724 106.645 84.307 106.508 83.7365L102.608 67.5282Z" fill="url(#paint6_linear_698_13163)"/>
<rect width="4.89019" height="2.93411" rx="1.46706" transform="matrix(-0.991915 0.126901 0.126901 0.991915 116.789 82.991)" fill="#EC7115"/>
<path d="M112.761 65.4974C112.688 65.1931 112.422 64.9742 112.109 64.9611V64.9611C111.702 64.9439 111.366 65.2769 111.379 65.6845L111.93 82.3863C111.95 82.9841 112.487 83.4309 113.078 83.3423L115.837 82.9287C116.417 82.8417 116.798 82.2762 116.661 81.7058L112.761 65.4974Z" fill="url(#paint7_linear_698_13163)"/>
<circle r="0.856021" transform="matrix(-1 0 0 1 93.0273 13.5965)" fill="#F27F2E"/>
<path d="M118.301 51.2084C117.686 47.8334 114.564 45.5097 111.154 45.8889L99.9205 47.138C96.5092 47.5173 93.9736 50.4726 94.1171 53.9019L94.4078 60.8486C94.5624 64.5427 97.75 67.372 101.436 67.087L113.701 66.139C117.562 65.8405 120.317 62.2664 119.622 58.4562L118.301 51.2084Z" fill="url(#paint8_linear_698_13163)"/>
<path d="M109.165 44.6492L101.361 45.6282V45.6282C101.629 47.4996 103.363 48.7993 105.235 48.5311L106.278 48.3817C108.091 48.1219 109.369 46.469 109.165 44.6492V44.6492Z" fill="url(#paint9_linear_698_13163)"/>
<path d="M120.738 48.9951L116.677 48.2595L118.369 52.998H120.738V48.9951Z" fill="#F27F2E"/>
<path d="M114.645 68.5669L113.291 65.8594L110.922 66.1978L109.907 68.567L114.645 68.5669Z" fill="#F27F2E"/>
<path d="M95.0142 50.6292L92.0489 51.8622L93.3937 55.0409L94.3372 54.6907L95.0142 50.6292Z" fill="#F37F2F"/>
<path d="M100.43 66.5366L99.7534 69.2443L104.492 69.2443L103.138 66.5366L100.43 66.5366Z" fill="#F37F2F"/>
<path fill-rule="evenodd" clip-rule="evenodd" d="M124.36 39.2758C125.412 40.0429 127.202 39.3805 128.357 37.7962C128.87 37.0934 129.172 36.3272 129.257 35.6252C129.92 36.6327 130.179 37.9026 129.871 39.167C129.283 41.5818 126.848 43.0622 124.433 42.4736C122.018 41.885 120.538 39.4503 121.126 37.0355C121.675 34.7861 123.825 33.3474 126.069 33.6367C125.52 33.9446 124.988 34.4144 124.548 35.0179C123.392 36.6023 123.308 38.5086 124.36 39.2758Z" fill="url(#paint10_linear_698_13163)"/>
<path fill-rule="evenodd" clip-rule="evenodd" d="M81.223 60.6857C80.6274 59.528 78.7309 59.3168 76.9872 60.214C76.2141 60.6117 75.6009 61.1606 75.2096 61.7492C75.0689 60.5512 75.4074 59.3003 76.2502 58.3088C77.86 56.415 80.7002 56.1848 82.5939 57.7946C84.4877 59.4044 84.7179 62.2445 83.1081 64.1383C81.6088 65.9021 79.0422 66.2228 77.167 64.958C77.7948 64.9287 78.4805 64.7478 79.1442 64.4063C80.8879 63.5091 81.8186 61.8434 81.223 60.6857Z" fill="url(#paint11_linear_698_13163)"/>
<path d="M101.13 30.5623C101.327 31.9173 102.148 33.0315 103.271 33.6698C104.019 33.2995 104.989 32.9174 105.944 32.7788C106.898 32.6403 107.936 32.7311 108.759 32.8735C109.654 31.9424 110.125 30.6406 109.929 29.2855C109.585 26.9205 107.338 25.289 104.908 25.6415C102.478 25.9941 100.787 28.1972 101.13 30.5623Z" fill="white"/>
<path d="M90.3763 32.1227C90.573 33.4777 91.3948 34.592 92.5178 35.2302C93.2657 34.8599 94.2349 34.4778 95.1899 34.3393C96.1448 34.2007 97.1826 34.2915 98.005 34.434C98.9002 33.5029 99.3715 32.201 99.1748 30.846C98.8316 28.4809 96.5838 26.8494 94.1542 27.202C91.7245 27.5545 90.0331 29.7576 90.3763 32.1227Z" fill="white"/>
<path d="M104.571 32.7489C102.941 32.9854 101.434 31.896 101.205 30.3158C100.975 28.7355 102.111 27.2628 103.74 27.0263C105.37 26.7898 106.877 27.8792 107.106 29.4594C107.335 31.0397 106.2 32.5124 104.571 32.7489Z" fill="#28282A"/>
<path d="M94.7349 34.1761C93.1053 34.4126 91.5983 33.3233 91.369 31.743C91.1397 30.1628 92.2749 28.69 93.9045 28.4536C95.5341 28.2171 97.0411 29.3064 97.2704 30.8867C97.4997 32.4669 96.3645 33.9397 94.7349 34.1761Z" fill="#28282A"/>
<g filter="url(#filter1_i_698_13163)">
<path d="M102.458 43.175C108.005 42.5979 107.428 37.0505 107.428 37.0505L96.3334 38.2046C96.3334 38.2046 96.9105 43.752 102.458 43.175Z" fill="#A30A0A"/>
</g>
<path d="M106.842 37.4227L106.81 37.1145L96.948 38.1404L96.9801 38.4486C97.0155 38.789 97.3202 39.0362 97.6606 39.0008L106.29 38.1032C106.63 38.0678 106.878 37.7631 106.842 37.4227Z" fill="white"/>
<path d="M61.7003 114.708L13.5438 123.256C11.2723 123.66 11.3754 126.952 13.6676 127.213L15.7487 127.449C15.8545 127.461 15.9612 127.465 16.0676 127.46L130.093 122.141C131.16 122.091 132 121.211 132 120.143V84.735C132 83.4868 130.869 82.5436 129.641 82.7675L89.2481 90.1322C88.875 90.2003 88.5289 90.373 88.2503 90.6302L62.7073 114.208C62.4263 114.468 62.0768 114.641 61.7003 114.708Z" fill="url(#paint12_linear_698_13163)"/>
<path d="M70.9742 122.111L16.5842 127.353L126.896 122.162C129.563 122.036 131.661 119.837 131.661 117.167V98.8368C131.661 95.6023 128.637 93.219 125.492 93.9754L94.1154 101.523C93.2149 101.739 92.3922 102.202 91.7392 102.859L74.0401 120.659C73.2185 121.485 72.1341 121.999 70.9742 122.111Z" fill="url(#paint13_linear_698_13163)"/>
<path d="M52.3453 51.1891C51.8037 49.8352 56.8581 47.2403 59.453 46.1121C55.0528 42.3891 49.2992 44.7583 48.2838 45.7737C42.0561 51.1891 46.1402 57.2814 48.9607 59.6506L52.0069 58.9737L53.0222 55.9275C53.0222 55.2506 52.8868 53.3552 52.3453 51.1891Z" fill="#28282A"/>
<path d="M50.769 58.9832C50.774 59.0164 50.7773 59.0506 50.779 59.0857C50.9477 59.9103 53.2211 59.4671 54.8306 59.6601L55.846 64.0601C55.0098 63.4584 52.6206 62.1346 49.7537 61.6532C50.0285 61.1918 50.8192 59.8987 50.779 59.0857C50.7724 59.0535 50.769 59.0194 50.769 58.9832Z" fill="url(#paint14_linear_698_13163)"/>
<path d="M39.5991 74.2146C42.8484 63.9254 47.4692 60.6128 49.5 60.5C52.5462 62.8692 56.0859 61.5 55.5 61.5C57.5308 61.8385 60.4846 63.9692 61.5 66C63.3954 66.8123 64.8709 66.9941 65.6607 66.43C66.2248 68.2352 67.4884 73.1316 68.0299 75.5685C64.6453 76.9223 63.5308 76.8385 61.5 76.5C61.2292 80.8323 56.7564 88.1154 54.5 91.5L44.3376 86.3993C43.5479 86.3993 41.6976 86.3316 40.6145 86.0608C39.5314 85.79 38.5838 84.8198 38.2453 84.3685C37.794 84.4813 34.8954 84.6393 33 84.3685C33.6769 84.03 37.5684 78.9531 39.5991 74.2146Z" fill="#30D791"/>
<path d="M124 7C124 6.44772 124.448 6 125 6V6C125.552 6 126 6.44772 126 7V37H124V7Z" fill="url(#paint15_linear_698_13163)"/>
</g>
<defs>
<filter id="filter0_d_698_13163" x="1.89331" y="0" width="183.361" height="141.462" filterUnits="userSpaceOnUse" color-interpolation-filters="sRGB">
<feFlood flood-opacity="0" result="BackgroundImageFix"/>
<feColorMatrix in="SourceAlpha" type="matrix" values="0 0 0 0 0 0 0 0 0 0 0 0 0 0 0 0 0 0 127 0" result="hardAlpha"/>
<feOffset dy="4"/>
<feGaussianBlur stdDeviation="5"/>
<feComposite in2="hardAlpha" operator="out"/>
<feColorMatrix type="matrix" values="0 0 0 0 0.156863 0 0 0 0 0.156863 0 0 0 0 0.164706 0 0 0 0.25 0"/>
<feBlend mode="normal" in2="BackgroundImageFix" result="effect1_dropShadow_698_13163"/>
<feBlend mode="normal" in="SourceGraphic" in2="effect1_dropShadow_698_13163" result="shape"/>
</filter>
<filter id="filter1_i_698_13163" x="96.3335" y="37.0505" width="11.1118" height="10.1665" filterUnits="userSpaceOnUse" color-interpolation-filters="sRGB">
<feFlood flood-opacity="0" result="BackgroundImageFix"/>
<feBlend mode="normal" in="SourceGraphic" in2="BackgroundImageFix" result="shape"/>
<feColorMatrix in="SourceAlpha" type="matrix" values="0 0 0 0 0 0 0 0 0 0 0 0 0 0 0 0 0 0 127 0" result="hardAlpha"/>
<feOffset dy="4"/>
<feGaussianBlur stdDeviation="2"/>
<feComposite in2="hardAlpha" operator="arithmetic" k2="-1" k3="1"/>
<feColorMatrix type="matrix" values="0 0 0 0 0 0 0 0 0 0 0 0 0 0 0 0 0 0 0.25 0"/>
<feBlend mode="normal" in2="shape" result="effect1_innerShadow_698_13163"/>
</filter>
<linearGradient id="paint0_linear_698_13163" x1="53.814" y1="44.0916" x2="53.814" y2="60.3377" gradientUnits="userSpaceOnUse">
<stop stop-color="#E29999"/>
<stop offset="1" stop-color="#FFE8B3"/>
</linearGradient>
<linearGradient id="paint1_linear_698_13163" x1="83.2609" y1="92.6055" x2="117.784" y2="140.329" gradientUnits="userSpaceOnUse">
<stop stop-color="#D9D9D9"/>
<stop offset="1" stop-color="#BFBFBF" stop-opacity="0"/>
</linearGradient>
<linearGradient id="paint2_linear_698_13163" x1="71.2831" y1="58.1113" x2="71.2831" y2="76.0711" gradientUnits="userSpaceOnUse">
<stop stop-color="#E48B8B"/>
<stop offset="1" stop-color="#FFE8B3"/>
</linearGradient>
<linearGradient id="paint3_linear_698_13163" x1="90.797" y1="53.8824" x2="98.9943" y2="70.1355" gradientUnits="userSpaceOnUse">
<stop stop-color="#BFBFBF"/>
<stop offset="1"/>
</linearGradient>
<linearGradient id="paint4_linear_698_13163" x1="120.745" y1="43.7178" x2="138.695" y2="43.4529" gradientUnits="userSpaceOnUse">
<stop stop-color="#BFBFBF"/>
<stop offset="1"/>
</linearGradient>
<linearGradient id="paint5_linear_698_13163" x1="113.689" y1="19.0974" x2="127.626" y2="60.175" gradientUnits="userSpaceOnUse">
<stop stop-color="#F27F2E"/>
<stop offset="1" stop-color="#FF3838"/>
</linearGradient>
<linearGradient id="paint6_linear_698_13163" x1="98.3997" y1="71.2751" x2="119.046" y2="100.044" gradientUnits="userSpaceOnUse">
<stop stop-color="#D9D9D9"/>
<stop offset="1" stop-color="#D9D9D9" stop-opacity="0"/>
</linearGradient>
<linearGradient id="paint7_linear_698_13163" x1="105.845" y1="63.8289" x2="123.784" y2="91.5828" gradientUnits="userSpaceOnUse">
<stop offset="0.413994" stop-color="#D9D9D9"/>
<stop offset="1" stop-color="#D9D9D9" stop-opacity="0"/>
</linearGradient>
<linearGradient id="paint8_linear_698_13163" x1="116.012" y1="45.0154" x2="91.6836" y2="96.6068" gradientUnits="userSpaceOnUse">
<stop stop-color="#F27F2E"/>
<stop offset="1" stop-color="#FF3838"/>
</linearGradient>
<linearGradient id="paint9_linear_698_13163" x1="109.449" y1="49.0975" x2="98.3662" y2="68.1316" gradientUnits="userSpaceOnUse">
<stop/>
<stop offset="1" stop-color="#F27F2E" stop-opacity="0"/>
</linearGradient>
<linearGradient id="paint10_linear_698_13163" x1="126.558" y1="33.7559" x2="124.433" y2="42.4734" gradientUnits="userSpaceOnUse">
<stop stop-color="#F27F2E"/>
<stop offset="1" stop-color="#FF3838"/>
</linearGradient>
<linearGradient id="paint11_linear_698_13163" x1="76.7825" y1="64.6311" x2="82.5939" y2="57.7946" gradientUnits="userSpaceOnUse">
<stop stop-color="#F27F2E"/>
<stop offset="1" stop-color="#FF3838"/>
</linearGradient>
<linearGradient id="paint12_linear_698_13163" x1="80.8923" y1="71.1682" x2="84.9538" y2="151.045" gradientUnits="userSpaceOnUse">
<stop stop-color="#00A3FF"/>
<stop offset="1" stop-color="#4550BB"/>
</linearGradient>
<linearGradient id="paint13_linear_698_13163" x1="145.877" y1="60.6761" x2="48.3996" y2="157.815" gradientUnits="userSpaceOnUse">
<stop stop-color="#6C63FF"/>
<stop offset="1" stop-color="#83CBFF"/>
</linearGradient>
<linearGradient id="paint14_linear_698_13163" x1="55.846" y1="72.5216" x2="52.7998" y2="64.0601" gradientUnits="userSpaceOnUse">
<stop stop-color="#E48B8B"/>
<stop offset="1" stop-color="#FFE8B3"/>
</linearGradient>
<linearGradient id="paint15_linear_698_13163" x1="125" y1="6" x2="125" y2="37" gradientUnits="userSpaceOnUse">
<stop stop-color="#F27F2E"/>
<stop offset="1" stop-color="#9A480C"/>
</linearGradient>
</defs>
</svg>
