<svg width="357" height="142" viewBox="0 0 357 142" fill="none" xmlns="http://www.w3.org/2000/svg">
<g filter="url(#filter0_d_703_13560)">
<circle cx="144.814" cy="52.2146" r="8.12307" fill="url(#paint0_linear_703_13560)"/>
<path d="M136.856 93.8612C140.261 96.526 132.38 112.287 128.909 116.382C125.438 120.476 120.192 127.39 116.03 125.775C110.668 118.688 119.811 115.687 123.814 103.775C126.842 94.7664 126.638 85.8668 136.856 93.8612Z" fill="#FFE8B3"/>
<path d="M171.499 60.875C172.414 63.0135 168.201 67.6114 164.73 71.7059C161.259 75.8003 147.13 78.8136 151.869 72.0443C151.869 61.8906 150.954 71.8008 161.007 64.2598C163.715 62.2287 168.458 53.7675 171.499 60.875Z" fill="#FFD87C"/>
<path d="M152.922 93.6207C156.984 96.5578 154.444 100.729 153.767 105.806C153.09 110.883 151.036 120.101 142.768 116.974C137.973 111.117 146.9 101.003 144.122 100.39C121.107 95.3131 143.784 87.012 152.922 93.6207Z" fill="#FFE8B3"/>
<path d="M151.911 114.885L108.36 123.786C107.515 123.958 106.908 124.702 106.908 125.565C106.908 126.601 107.773 127.427 108.808 127.378L218.233 122.274C220.901 122.15 223 119.95 223 117.279V88.4301C223 85.3148 220.182 82.958 217.116 83.5089L181.112 89.9783C180.175 90.1467 179.305 90.5794 178.605 91.2254L154.301 113.66C153.631 114.278 152.805 114.702 151.911 114.885Z" fill="#D9D9D9"/>
<path d="M175.615 116.636L107.584 127.128L222.661 121.713V92.6054L194.23 97.3439L175.615 116.636Z" fill="url(#paint1_linear_703_13560)"/>
<path d="M136.568 93.9341C139.833 96.594 132.278 112.326 128.951 116.413C125.623 120.5 120.595 127.401 116.605 125.788C111.466 118.715 120.23 115.72 124.067 103.829C126.969 94.8376 126.774 85.9545 136.568 93.9341Z" fill="#3F3D56"/>
<path d="M113 122.643L113.677 121.289C113.677 120.5 113.745 118.582 115.369 118.582C115.369 121.29 119.431 119.597 127.554 118.582C130.532 118.311 130.826 121.177 130.6 122.643H113Z" fill="black"/>
<path d="M172.516 60.9039C173.431 63.0423 169.218 67.6403 165.747 71.7347C162.276 75.8291 148.147 78.8424 152.885 72.0731C152.885 61.9194 151.971 71.8296 162.024 64.2886C164.731 62.2575 169.475 53.7963 172.516 60.9039Z" fill="url(#paint2_linear_703_13560)"/>
<path d="M215 7C215 6.44771 215.448 6 216 6V6C216.552 6 217 6.44772 217 7V84H215V7Z" fill="#9A480C"/>
<path d="M152.725 93.8261C156.774 96.6088 154.242 100.56 153.568 105.37C152.893 110.18 150.845 118.914 142.603 115.952C138.892 110.713 146.722 100.82 143.953 100.24C121.01 95.4295 143.616 87.5651 152.725 93.8261Z" fill="#3F3D56"/>
<path d="M139.399 117.922L140.076 116.568C140.076 115.779 140.144 113.861 141.769 113.861C141.769 116.568 145.83 114.876 153.953 113.861C156.932 113.59 157.225 116.456 156.999 117.922H139.399Z" fill="black"/>
<path d="M150.964 64.2019C158.354 69.6191 146.427 91.2807 142.446 95.6807C138.465 100.081 133.307 98.7268 129.584 97.373C124.789 91.4348 123.718 87.896 129.584 79.096C133.646 73.0036 135.991 53.2265 150.964 64.2019Z" fill="#3F3D56"/>
<path d="M217 13.0288C217 13.0288 228.395 4.15937 236.131 9.97867C247.638 18.6354 266.254 11.3324 266.254 11.3324V35.7017C266.254 35.7017 247.3 43.0044 237.485 35.7017C227.669 28.3989 217 34.0288 217 34.0288L218.5 23.5288L217 13.0288Z" fill="white"/>
<path d="M241.416 15.1203C241.576 15.1068 241.815 15.1068 242.16 15.0932C242.359 15.1068 242.598 15.1325 242.863 15.1989C243.234 15.2924 243.527 15.4252 243.752 15.5566L243.765 15.5701C243.951 15.6758 244.203 15.8356 244.482 16.0741C244.88 16.3924 245.623 17.0034 246.035 18.0506C246.114 18.2633 246.234 18.541 246.273 18.9258C246.312 19.2577 246.3 19.5625 246.259 20.1599C246.232 20.6639 246.207 20.7303 246.232 20.9687C246.259 21.1543 246.285 21.4727 246.471 21.7775C246.617 22.0037 246.736 22.0565 247.187 22.4941C247.572 22.8653 247.479 22.826 247.718 23.0387C248.183 23.4506 248.422 23.5034 248.581 23.8475C248.609 23.9139 248.621 23.9667 248.634 23.9938C248.648 24.0331 248.714 24.2986 248.607 24.5506C248.541 24.7104 248.474 24.6834 248.25 24.9624C248.117 25.1223 248.023 25.228 247.97 25.4136C247.943 25.4799 247.891 25.652 247.918 25.8918C247.931 26.0245 247.945 26.1573 248.037 26.3036C248.183 26.5163 248.355 26.4757 248.488 26.7019C248.515 26.7547 248.568 26.8482 248.568 26.9674C248.554 27.153 248.396 27.2858 248.355 27.3251C248.236 27.4307 248.183 27.3915 248.076 27.5107C248.037 27.55 247.957 27.6434 247.983 27.7491C247.996 27.8155 248.035 27.8548 248.076 27.8954C248.222 28.0282 248.342 27.9753 248.422 28.081C248.474 28.1474 248.474 28.2409 248.474 28.3072C248.474 28.3465 248.474 28.4536 248.394 28.5592C248.342 28.6392 248.289 28.6649 248.222 28.7055C248.05 28.8518 248.037 29.1038 248.023 29.2366C248.01 29.475 248.076 29.582 248.117 29.7934C248.21 30.3109 247.957 30.7756 247.918 30.8555C247.691 31.2795 247.32 31.4787 247.187 31.545C246.683 31.8106 246.072 31.7835 244.838 31.7306C244.786 31.7306 244.612 31.7171 244.401 31.7442C244.401 31.7442 244.229 31.7577 244.069 31.797C243.883 31.8363 243.446 31.9162 243.02 32.1818C242.264 32.66 241.946 33.3888 241.853 33.6544L241.68 33.8399C241.548 33.9334 241.335 34.0391 241.069 34.1312C240.87 34.1976 240.712 34.2247 240.433 34.264C239.968 34.3304 239.703 34.3696 239.304 34.3832C238.668 34.4103 238.203 34.3561 237.805 34.3033C237.115 34.2233 236.491 34.1041 235.947 33.9578L236.625 34.0377C236.943 34.0648 237.302 34.0906 237.753 34.077C238.151 34.0635 238.43 34.0242 238.894 33.9578C239.185 33.9185 239.345 33.8914 239.531 33.825C239.796 33.7451 240.009 33.6259 240.141 33.546L240.327 33.3739C240.433 33.1084 240.751 32.4053 241.508 31.9406C241.932 31.6886 242.384 31.5952 242.571 31.5559C242.743 31.5166 242.916 31.503 242.916 31.503C243.142 31.476 243.301 31.4895 243.367 31.4895C244.601 31.5423 245.224 31.5694 245.742 31.3039C245.888 31.2375 246.246 31.0384 246.486 30.6265C246.525 30.5466 246.777 30.109 246.685 29.5915C246.646 29.3788 246.566 29.2867 246.591 29.0469C246.605 28.9142 246.618 28.6757 246.79 28.5294C246.843 28.4766 246.91 28.463 246.963 28.3831C247.029 28.2774 247.042 28.1704 247.042 28.1311C247.042 28.0648 247.042 27.9848 246.99 27.9184C246.91 27.8128 246.777 27.8656 246.644 27.7328C246.605 27.6936 246.564 27.6529 246.551 27.6001C246.537 27.4944 246.617 27.4145 246.656 27.3738C246.762 27.2682 246.816 27.2939 246.935 27.1882C246.975 27.149 247.135 27.0284 247.148 26.8428C247.162 26.7371 247.109 26.6436 247.068 26.5908C246.935 26.3646 246.763 26.4052 246.617 26.2061C246.524 26.0733 246.511 25.9405 246.498 25.8078C246.471 25.5815 246.537 25.3959 246.551 25.3431C246.617 25.1711 246.711 25.064 246.83 24.9055C247.056 24.64 247.121 24.6671 247.187 24.5072C247.293 24.2553 247.227 23.9897 247.215 23.9626C247.215 23.9355 247.187 23.8827 247.162 23.8299C247.002 23.498 246.763 23.4451 246.299 23.0468C246.06 22.8477 246.152 22.887 245.754 22.5158C245.303 22.0918 245.17 22.0376 245.037 21.8262C244.852 21.535 244.825 21.2288 244.799 21.0432C244.772 20.817 244.799 20.7519 244.826 20.2602C244.865 19.6763 244.879 19.385 244.84 19.0653C244.787 18.6941 244.68 18.415 244.601 18.2159C244.177 17.208 243.433 16.6105 243.035 16.3057C242.85 16.1594 242.678 16.0402 242.518 15.9481C242.398 15.8424 242.199 15.6826 241.947 15.5498C241.51 15.3235 241.151 15.2978 241.151 15.245C241.151 15.2314 241.19 15.2057 241.323 15.1921L241.416 15.1122V15.1203Z" fill="#F27F2E"/>
<path d="M240.236 34.2399C239.891 34.2927 239.652 34.3198 239.347 34.3334Z" fill="#F27F2E"/>
<path d="M235.896 33.9216H235.883L236.56 34.0015C236.879 34.0286 237.238 34.0543 237.689 34.0408C238.087 34.0272 238.366 33.988 238.829 33.9216C239.121 33.8823 239.28 33.8552 239.466 33.7888C239.732 33.7089 239.944 33.5897 240.077 33.5097L240.263 33.3377C240.368 33.0722 240.687 32.3691 241.444 31.9044C241.868 31.6524 242.319 31.5589 242.506 31.5196C242.678 31.4804 242.852 31.4668 242.852 31.4668C243.078 31.4397 243.236 31.4533 243.303 31.4533C244.537 31.5061 245.16 31.5332 245.677 31.2677C245.824 31.2013 246.181 31.0021 246.421 30.5903C246.461 30.5104 246.712 30.0728 246.62 29.5553C246.581 29.3426 246.501 29.2505 246.527 29.0107C246.54 28.8779 246.554 28.6395 246.726 28.4932C246.779 28.4404 246.845 28.4268 246.898 28.3469C246.964 28.2412 246.978 28.1342 246.978 28.0949C246.978 28.0285 246.978 27.9486 246.925 27.8822C246.845 27.7765 246.712 27.8294 246.58 27.6966C246.54 27.6573 246.5 27.6167 246.486 27.5638C246.473 27.4582 246.553 27.3782 246.592 27.3376C246.698 27.2319 246.752 27.2577 246.871 27.152C246.91 27.1127 247.07 26.9921 247.084 26.8066C247.097 26.7009 247.044 26.6074 247.004 26.5546C246.871 26.3283 246.699 26.369 246.553 26.1698C246.459 26.0371 246.447 25.9043 246.433 25.7715C246.406 25.5453 246.473 25.3597 246.486 25.3069C246.553 25.1348 246.646 25.0278 246.765 24.8693C246.992 24.6038 247.057 24.6309 247.123 24.471C247.229 24.219 247.162 23.9535 247.15 23.9264C247.15 23.8993 247.123 23.8465 247.097 23.7936C246.937 23.4617 246.699 23.4089 246.234 23.0106C245.996 22.8115 246.088 22.8508 245.69 22.4796C245.239 22.0555 245.106 22.0013 244.973 21.79C244.787 21.4987 244.76 21.1926 244.735 21.007C244.707 20.7807 244.735 20.7157 244.762 20.2239C244.801 19.6401 244.815 19.3488 244.775 19.0291C244.722 18.6579 244.615 18.3788 244.537 18.1797C244.113 17.1717 243.369 16.5743 242.971 16.2695C242.785 16.1232 242.613 16.004 242.453 15.9118C242.334 15.8062 242.135 15.6463 241.883 15.5136C241.445 15.2873 241.086 15.2616 241.086 15.2087C241.086 15.1952 241.126 15.1695 241.258 15.1559L241.444 15.1424C241.604 15.1288 241.842 15.1288 242.188 15.1153C242.387 15.1288 242.625 15.1546 242.891 15.2209C243.262 15.3144 243.555 15.4472 243.78 15.5786L243.793 15.5921C243.979 15.6978 244.231 15.8577 244.51 16.0961C244.908 16.4144 245.65 17.0254 246.062 18.0726C246.142 18.2853 246.261 18.563 246.301 18.9478C246.34 19.2797 246.328 19.5845 246.287 20.1819C246.26 20.6859 246.234 20.7523 246.26 20.9907C246.287 21.1763 246.313 21.4947 246.498 21.7995C246.645 22.0257 246.764 22.0786 247.215 22.5161C247.6 22.8873 247.506 22.848 247.746 23.0607C248.211 23.4726 248.449 23.5254 248.609 23.8695C248.636 23.9359 248.648 23.9887 248.662 24.0158C248.675 24.0551 248.742 24.3206 248.635 24.5726C248.568 24.7325 248.502 24.7054 248.277 24.9844C248.144 25.1443 248.051 25.25 247.998 25.4356C247.971 25.502 247.918 25.674 247.945 25.9138C247.959 26.0466 247.972 26.1793 248.065 26.3256C248.211 26.5383 248.383 26.4977 248.516 26.7239C248.543 26.7767 248.596 26.8702 248.596 26.9894C248.582 27.175 248.424 27.3078 248.383 27.3471C248.264 27.4528 248.211 27.4135 248.104 27.5327C248.065 27.572 247.985 27.6654 248.01 27.7711C248.024 27.8375 248.063 27.8768 248.104 27.9174C248.25 28.0502 248.369 27.9974 248.449 28.103C248.502 28.1694 248.502 28.2629 248.502 28.3293C248.502 28.3686 248.502 28.4756 248.422 28.5812C248.369 28.6612 248.316 28.6869 248.25 28.7276C248.078 28.8739 248.065 29.1258 248.051 29.2586C248.037 29.497 248.104 29.6041 248.144 29.8154C248.238 30.3329 247.985 30.7976 247.945 30.8775C247.719 31.3015 247.348 31.5007 247.215 31.5671C246.711 31.8326 246.1 31.8055 244.866 31.7527C244.813 31.7527 244.64 31.7391 244.428 31.7662C244.428 31.7662 244.256 31.7798 244.097 31.819C243.911 31.8583 243.473 31.9383 243.048 32.2038C242.292 32.682 241.974 33.4108 241.88 33.6764L241.708 33.862C241.575 33.9554 241.363 34.0611 241.097 34.1532C240.898 34.2196 240.74 34.2467 240.46 34.286C240.408 34.2995 240.355 34.2995 240.314 34.3131" fill="#F27F2E"/>
<path d="M240.275 34.2399C240.302 34.2399 240.342 34.2264 240.369 34.2264C240.648 34.1871 240.82 34.16 241.005 34.0936C241.271 34.0002 241.47 33.8945 241.616 33.8024L241.789 33.6168C241.894 33.3377 242.2 32.621 242.956 32.1442C243.38 31.8787 243.819 31.7865 244.005 31.7594C244.177 31.7201 244.337 31.7066 244.337 31.7066C244.563 31.6795 244.721 31.6931 244.774 31.6931C245.013 31.7066 245.225 31.7066 245.411 31.7201H245.69C246.168 31.7201 246.606 31.6538 246.977 31.5603H247.016C247.043 31.5467 247.083 31.5332 247.11 31.521C247.256 31.4411 247.614 31.2555 247.84 30.8314C247.879 30.7515 248.131 30.2868 248.039 29.7693C248 29.5431 247.934 29.451 247.946 29.2125C247.959 29.0798 247.973 28.8278 248.145 28.6815C248.198 28.6287 248.251 28.6151 248.317 28.5352C248.383 28.4295 248.397 28.3225 248.397 28.2832C248.397 28.2168 248.397 28.1369 248.344 28.057C248.264 27.9378 248.145 28.0041 247.999 27.8714C247.959 27.8321 247.919 27.7914 247.905 27.7251C247.892 27.6194 247.971 27.5259 247.999 27.4866C248.092 27.3674 248.158 27.4067 248.278 27.301C248.317 27.2617 248.477 27.1412 248.49 26.9434C248.504 26.8242 248.451 26.7307 248.41 26.6779C248.278 26.4516 248.106 26.4923 247.959 26.2796C247.866 26.1468 247.854 26.0005 247.84 25.8677C247.813 25.6293 247.879 25.4437 247.893 25.3895C247.959 25.2175 248.053 25.0982 248.172 24.9384C248.398 24.6593 248.463 24.7 248.53 24.5266C248.635 24.2746 248.569 23.9955 248.557 23.9698C248.557 23.9427 248.53 23.8898 248.504 23.8234C248.344 23.478 248.106 23.4252 247.641 23.0147C247.402 22.802 247.495 22.8426 247.11 22.4701C246.659 22.0325 246.54 21.9797 246.393 21.7534C246.208 21.4486 246.181 21.1424 246.155 20.9447C246.128 20.7062 246.155 20.6398 246.182 20.1359C246.221 19.5384 246.235 19.2336 246.195 18.9017C246.143 18.517 246.036 18.2379 245.957 18.0266C245.545 16.9916 244.803 16.3806 244.404 16.05C244.125 15.8238 243.873 15.6653 243.688 15.5461L243.674 15.5325C243.462 15.4133 243.157 15.267 242.786 15.1749C242.52 15.1085 242.282 15.0814 242.082 15.0692H241.751L241.352 15.1085L241.604 15.0557C241.989 14.9893 242.294 15.0028 242.534 15.0164C243.264 15.0692 243.807 15.3076 244.219 15.5068C244.498 15.626 244.736 15.7588 244.949 15.8915L244.988 15.9186C245.215 16.0649 245.453 16.237 245.691 16.4361C245.811 16.5296 245.918 16.6217 246.01 16.7152L246.023 16.7287C246.475 17.0607 247.072 17.5646 247.47 18.3476C247.564 18.5468 247.696 18.8123 247.761 19.17C247.814 19.4883 247.814 19.7809 247.789 20.3648C247.775 20.8431 247.749 20.9216 247.789 21.1343C247.816 21.3199 247.855 21.6125 248.068 21.9038C248.228 22.1165 248.359 22.1558 248.876 22.5676C249.314 22.9131 249.208 22.886 249.474 23.0716C249.991 23.4428 250.257 23.4834 250.442 23.8153C250.482 23.8817 250.495 23.921 250.509 23.9481C250.522 23.9874 250.602 24.2393 250.495 24.4927C250.429 24.6525 250.349 24.6254 250.111 24.9045C249.978 25.0644 249.884 25.17 249.819 25.3421C249.792 25.4085 249.739 25.5805 249.78 25.8068C249.794 25.926 249.819 26.0723 249.926 26.1915C250.086 26.3907 250.272 26.3378 250.43 26.5627C250.47 26.6155 250.524 26.6955 250.524 26.8147C250.524 27.0003 250.352 27.133 250.311 27.1601C250.178 27.2658 250.125 27.2401 250.02 27.3457C249.981 27.385 249.901 27.4785 249.914 27.5842C249.928 27.6506 249.981 27.6898 250.02 27.7169C250.18 27.8361 250.311 27.7833 250.405 27.889C250.471 27.9554 250.471 28.0353 250.471 28.1017C250.471 28.141 250.471 28.248 250.405 28.3537C250.352 28.4336 250.285 28.4593 250.233 28.5C250.047 28.6463 250.047 28.8847 250.033 29.0175C250.02 29.2559 250.113 29.3494 250.153 29.5621C250.272 30.066 250.02 30.5036 249.967 30.5835C249.729 30.9954 249.344 31.2067 249.198 31.2731C249.118 31.3124 249.038 31.3395 248.959 31.3666L247.977 31.5928C247.221 31.8448 246.637 31.9112 246.225 31.9112C245.907 31.9112 245.403 31.8841 244.778 32.0968C244.606 32.1496 244.46 32.216 244.367 32.2566L244.339 32.2837C243.769 32.7484 243.517 33.2916 243.437 33.5179L243.252 33.7035C243.105 33.7969 242.88 33.9026 242.601 34.0083C242.389 34.0747 242.217 34.1139 241.912 34.1681C241.408 34.2481 241.115 34.3009 240.678 34.328C240.465 34.3415 240.254 34.3551 240.067 34.3551H239.403" fill="#F2AA79"/>
<path d="M232.155 23.7187C232.792 23.7187 233.309 23.2018 233.309 22.5641C233.309 21.9265 232.792 21.4096 232.155 21.4096C231.517 21.4096 231 21.9265 231 22.5641C231 23.2018 231.517 23.7187 232.155 23.7187Z" fill="#F27F2E"/>
<path d="M232.272 22.4967L235.006 28.043L232.02 22.6295C231.981 22.5631 232.007 22.4832 232.073 22.4439C232.153 22.4046 232.233 22.4303 232.272 22.4967V22.4967Z" fill="#F17F2D"/>
<path d="M233.681 18.2642C234.201 18.2642 234.623 17.8425 234.623 17.3224C234.623 16.8023 234.201 16.3806 233.681 16.3806C233.161 16.3806 232.739 16.8023 232.739 17.3224C232.739 17.8425 233.161 18.2642 233.681 18.2642Z" fill="#F27F2E"/>
<path d="M234.94 28.6272C235.46 28.6272 235.882 28.2055 235.882 27.6854C235.882 27.1653 235.46 26.7436 234.94 26.7436C234.42 26.7436 233.998 27.1653 233.998 27.6854C233.998 28.2055 234.42 28.6272 234.94 28.6272Z" fill="#F27F2E"/>
<path d="M234.994 27.5531L239.239 29.4104L234.887 27.8186C234.82 27.7915 234.781 27.713 234.807 27.6466C234.834 27.5531 234.912 27.5138 234.992 27.5531C234.979 27.5531 234.992 27.5531 234.992 27.5531H234.994Z" fill="#F17F2D"/>
<path d="M235.074 27.6724L235.976 32.6212L234.795 27.7253C234.781 27.6453 234.822 27.5789 234.9 27.5532C234.98 27.5397 235.06 27.5803 235.072 27.6724C235.072 27.6634 235.072 27.6634 235.072 27.6724H235.074Z" fill="#F17F2D"/>
<path d="M239.134 29.9941C239.464 29.9941 239.732 29.7266 239.732 29.3965C239.732 29.0665 239.464 28.7989 239.134 28.7989C238.804 28.7989 238.537 29.0665 238.537 29.3965C238.537 29.7266 238.804 29.9941 239.134 29.9941Z" fill="#F27F2E"/>
<path d="M235.977 32.9279C236.307 32.9279 236.574 32.6604 236.574 32.3303C236.574 32.0003 236.307 31.7327 235.977 31.7327C235.646 31.7327 235.379 32.0003 235.379 32.3303C235.379 32.6604 235.646 32.9279 235.977 32.9279Z" fill="#F27F2E"/>
<path d="M234.873 27.5664L238.497 25.1909L235.033 27.7927C234.967 27.832 234.887 27.832 234.834 27.7656C234.795 27.7127 234.807 27.6192 234.873 27.5664C234.86 27.5799 234.873 27.5664 234.873 27.5664V27.5664Z" fill="#F17F2D"/>
<path d="M238.193 26.0148C238.523 26.0148 238.79 25.7472 238.79 25.4172C238.79 25.0871 238.523 24.8196 238.193 24.8196C237.863 24.8196 237.595 25.0871 237.595 25.4172C237.595 25.7472 237.863 26.0148 238.193 26.0148Z" fill="#F27F2E"/>
<path d="M233.826 17.3611L232.167 22.6689L233.56 17.2825C233.574 17.2026 233.654 17.1633 233.732 17.189C233.799 17.2026 233.838 17.2825 233.826 17.3611Z" fill="#F17F2D"/>
<path d="M233.734 17.1508L239.878 19.3265L233.641 17.4149C233.561 17.3878 233.522 17.3093 233.547 17.2429C233.574 17.163 233.653 17.1237 233.733 17.1494C233.719 17.1494 233.733 17.1494 233.733 17.1494L233.734 17.1508Z" fill="#F17F2D"/>
<path d="M239.931 19.9377C240.261 19.9377 240.528 19.6701 240.528 19.3401C240.528 19.01 240.261 18.7425 239.931 18.7425C239.601 18.7425 239.333 19.01 239.333 19.3401C239.333 19.6701 239.601 19.9377 239.931 19.9377Z" fill="#F27F2E"/>
<path d="M233.801 17.1902L237.396 22.0333L233.575 17.3622C233.522 17.2958 233.535 17.2159 233.588 17.1631C233.654 17.1238 233.748 17.136 233.801 17.1902Z" fill="#F17F2D"/>
<path d="M237.383 22.6967C237.713 22.6967 237.98 22.4292 237.98 22.0991C237.98 21.7691 237.713 21.5015 237.383 21.5015C237.053 21.5015 236.785 21.7691 236.785 22.0991C236.785 22.4292 237.053 22.6967 237.383 22.6967Z" fill="#F27F2E"/>
<path d="M233.653 17.15L239.518 15.6639L233.733 17.4142C233.653 17.4413 233.587 17.4007 233.561 17.3207C233.534 17.2408 233.575 17.1744 233.655 17.1487C233.641 17.1487 233.655 17.1487 233.655 17.1487L233.653 17.15Z" fill="#F17F2D"/>
<path d="M239.546 16.1952C239.876 16.1952 240.143 15.9277 240.143 15.5976C240.143 15.2676 239.876 15 239.546 15C239.216 15 238.948 15.2676 238.948 15.5976C238.948 15.9277 239.216 16.1952 239.546 16.1952Z" fill="#F27F2E"/>
<path d="M174.016 58.5144C178.399 59.4077 182.244 54.7029 183.539 52.0136C183.692 52.248 184.448 52.4585 185.588 53.4533C181.542 60.1193 176.272 61.6671 174.233 61.1044C174.254 60.7003 174.028 59.5781 174.016 58.5144Z" fill="url(#paint3_linear_703_13560)"/>
<path d="M210.498 50.5347C214.315 49.4178 215.128 44.1774 215.007 41.5323C215.226 41.6524 215.908 41.5043 217.223 41.8114C216.869 48.7141 213.191 51.7133 211.353 52.1175C211.199 51.7921 210.957 51.3636 210.498 50.5347Z" fill="url(#paint4_linear_703_13560)"/>
<path d="M209.635 22.2245C209.423 20.4336 207.799 19.1536 206.008 19.3657L180.2 22.4218C178.409 22.6339 177.129 24.2577 177.341 26.0486L178.296 34.116C179.144 41.2797 185.639 46.3994 192.803 45.5511L199.155 44.799C206.319 43.9507 211.439 37.4556 210.59 30.2919L209.635 22.2245Z" fill="url(#paint5_linear_703_13560)"/>
<rect width="4.89019" height="2.93411" rx="1.46706" transform="matrix(-0.991915 0.126901 0.126901 0.991915 200.893 17.3863)" fill="#EC7115"/>
<rect width="4.89019" height="2.93411" rx="1.46706" transform="matrix(-0.991915 0.126901 0.126901 0.991915 187.201 19.0978)" fill="#EC7115"/>
<path d="M198.002 12.1839C197.965 12.0451 197.839 11.9486 197.696 11.9486V11.9486C197.521 11.9486 197.379 12.0906 197.379 12.2658L197.379 17.1994C197.379 17.7894 197.903 18.2413 198.487 18.1538V18.1538C199.056 18.0685 199.425 17.5066 199.276 16.9503L198.002 12.1839Z" fill="#D9D9D9"/>
<path d="M184.309 13.8956C184.272 13.7568 184.146 13.6603 184.002 13.6603V13.6603C183.827 13.6603 183.685 13.8023 183.685 13.9775L183.685 18.9112C183.685 19.5011 184.21 19.953 184.793 19.8656V19.8656C185.363 19.7802 185.731 19.2183 185.583 18.662L184.309 13.8956Z" fill="#D9D9D9"/>
<circle r="0.856021" transform="matrix(-1 0 0 1 197.721 11.8848)" fill="#F27F2E"/>
<circle r="0.856021" transform="matrix(-1 0 0 1 184.027 13.5966)" fill="#F27F2E"/>
<path d="M184.309 13.8956C184.272 13.7568 184.146 13.6603 184.002 13.6603V13.6603C183.827 13.6603 183.685 13.8023 183.685 13.9775L183.685 18.9112C183.685 19.5011 184.21 19.953 184.793 19.8656V19.8656C185.363 19.7802 185.731 19.2183 185.583 18.662L184.309 13.8956Z" fill="#D9D9D9"/>
<rect width="4.89019" height="2.93411" rx="1.46706" transform="matrix(-0.991915 0.126901 0.126901 0.991915 197.635 85.0222)" fill="#EC7115"/>
<path d="M193.608 67.5281C193.535 67.2238 193.269 67.0049 192.956 66.9918V66.9918C192.548 66.9746 192.212 67.3076 192.226 67.7152L192.777 84.417C192.797 85.0148 193.333 85.4616 193.925 85.373L196.684 84.9594C197.264 84.8724 197.645 84.3069 197.508 83.7365L193.608 67.5281Z" fill="url(#paint6_linear_703_13560)"/>
<rect width="4.89019" height="2.93411" rx="1.46706" transform="matrix(-0.991915 0.126901 0.126901 0.991915 207.789 82.9909)" fill="#EC7115"/>
<path d="M203.761 65.4974C203.688 65.1931 203.422 64.9742 203.109 64.9611V64.9611C202.702 64.9439 202.366 65.2769 202.379 65.6845L202.93 82.3863C202.95 82.9841 203.487 83.4309 204.078 83.3423L206.837 82.9287C207.417 82.8417 207.798 82.2762 207.661 81.7058L203.761 65.4974Z" fill="url(#paint7_linear_703_13560)"/>
<circle r="0.856021" transform="matrix(-1 0 0 1 184.027 13.5966)" fill="#F27F2E"/>
<path d="M209.301 51.2084C208.686 47.8333 205.564 45.5097 202.154 45.8888L190.921 47.138C187.509 47.5173 184.974 50.4725 185.117 53.9019L185.408 60.8486C185.562 64.5427 188.75 67.3719 192.436 67.087L204.701 66.1389C208.562 65.8405 211.317 62.2663 210.622 58.4562L209.301 51.2084Z" fill="url(#paint8_linear_703_13560)"/>
<path d="M200.165 44.6491L192.361 45.6281V45.6281C192.629 47.4995 194.363 48.7992 196.235 48.531L197.278 48.3816C199.091 48.1218 200.369 46.4689 200.165 44.6491V44.6491Z" fill="url(#paint9_linear_703_13560)"/>
<path d="M211.738 48.995L207.677 48.2594L209.369 52.9979H211.738V48.995Z" fill="#F27F2E"/>
<path d="M205.645 68.5669L204.291 65.8594L201.922 66.1978L200.907 68.567L205.645 68.5669Z" fill="#F27F2E"/>
<path d="M186.014 50.6291L183.049 51.8621L184.394 55.0408L185.337 54.6906L186.014 50.6291Z" fill="#F37F2F"/>
<path d="M191.43 66.5366L190.753 69.2443L195.492 69.2443L194.138 66.5366L191.43 66.5366Z" fill="#F37F2F"/>
<path fill-rule="evenodd" clip-rule="evenodd" d="M215.36 39.2759C216.412 40.0431 218.202 39.3806 219.357 37.7963C219.87 37.0935 220.172 36.3273 220.257 35.6253C220.92 36.6328 221.179 37.9027 220.871 39.1671C220.283 41.5819 217.848 43.0623 215.433 42.4737C213.018 41.8851 211.538 39.4504 212.126 37.0356C212.675 34.7862 214.825 33.3475 217.069 33.6368C216.52 33.9447 215.988 34.4145 215.548 35.018C214.392 36.6024 214.308 38.5087 215.36 39.2759Z" fill="url(#paint10_linear_703_13560)"/>
<path fill-rule="evenodd" clip-rule="evenodd" d="M172.223 60.6856C171.627 59.5279 169.731 59.3168 167.987 60.2139C167.214 60.6117 166.601 61.1605 166.21 61.7492C166.069 60.5512 166.407 59.3002 167.25 58.3087C168.86 56.4149 171.7 56.1847 173.594 57.7945C175.488 59.4043 175.718 62.2445 174.108 64.1382C172.609 65.902 170.042 66.2227 168.167 64.9579C168.795 64.9286 169.481 64.7477 170.144 64.4062C171.888 63.5091 172.819 61.8433 172.223 60.6856Z" fill="url(#paint11_linear_703_13560)"/>
<path d="M192.13 30.5624C192.327 31.9174 193.148 33.0316 194.271 33.6699C195.019 33.2995 195.989 32.9175 196.944 32.7789C197.898 32.6403 198.936 32.7312 199.759 32.8736C200.654 31.9425 201.125 30.6406 200.929 29.2856C200.585 26.9205 198.338 25.2891 195.908 25.6416C193.478 25.9942 191.787 28.1973 192.13 30.5624Z" fill="white"/>
<path d="M181.376 32.1228C181.573 33.4778 182.395 34.592 183.518 35.2303C184.266 34.86 185.235 34.4779 186.19 34.3394C187.145 34.2008 188.183 34.2916 189.005 34.4341C189.9 33.5029 190.371 32.2011 190.175 30.8461C189.832 28.481 187.584 26.8495 185.154 27.2021C182.725 27.5546 181.033 29.7577 181.376 32.1228Z" fill="white"/>
<path d="M195.571 32.749C193.941 32.9854 192.434 31.8961 192.205 30.3158C191.975 28.7356 193.111 27.2628 194.74 27.0264C196.37 26.7899 197.877 27.8792 198.106 29.4595C198.335 31.0397 197.2 32.5125 195.571 32.749Z" fill="#28282A"/>
<path d="M185.735 34.1762C184.105 34.4127 182.598 33.3233 182.369 31.7431C182.14 30.1628 183.275 28.6901 184.904 28.4536C186.534 28.2171 188.041 29.3065 188.27 30.8867C188.5 32.467 187.365 33.9397 185.735 34.1762Z" fill="#28282A"/>
<g filter="url(#filter1_i_703_13560)">
<path d="M193.458 43.175C199.005 42.5979 198.428 37.0505 198.428 37.0505L187.333 38.2046C187.333 38.2046 187.91 43.752 193.458 43.175Z" fill="#A30A0A"/>
</g>
<path d="M197.842 37.4227L197.81 37.1145L187.948 38.1403L187.98 38.4485C188.015 38.789 188.32 39.0362 188.661 39.0008L197.29 38.1032C197.63 38.0677 197.878 37.7631 197.842 37.4227Z" fill="white"/>
<path d="M152.7 114.708L104.544 123.256C102.272 123.66 102.375 126.952 104.668 127.213L106.749 127.449C106.855 127.461 106.961 127.465 107.068 127.46L221.093 122.141C222.16 122.091 223 121.211 223 120.143V84.735C223 83.4868 221.869 82.5436 220.641 82.7675L180.248 90.1322C179.875 90.2003 179.529 90.373 179.25 90.6302L153.707 114.208C153.426 114.468 153.077 114.641 152.7 114.708Z" fill="url(#paint12_linear_703_13560)"/>
<path d="M161.974 122.111L107.584 127.353L217.896 122.162C220.563 122.036 222.661 119.837 222.661 117.167V98.8368C222.661 95.6023 219.637 93.219 216.492 93.9754L185.116 101.523C184.215 101.739 183.392 102.202 182.739 102.859L165.04 120.659C164.219 121.485 163.134 121.999 161.974 122.111Z" fill="url(#paint13_linear_703_13560)"/>
<path d="M143.345 51.1889C142.804 49.8351 147.858 47.2402 150.453 46.112C146.053 42.3889 140.299 44.7582 139.284 45.7736C133.056 51.1889 137.14 57.2812 139.961 59.6505L143.007 58.9735L144.022 55.9274C144.022 55.2505 143.887 53.3551 143.345 51.1889Z" fill="#28282A"/>
<path d="M141.769 58.9832C141.774 59.0164 141.778 59.0506 141.779 59.0858C141.948 59.9103 144.221 59.4671 145.831 59.6601L146.846 64.0601C146.01 63.4584 143.621 62.1346 140.754 61.6533C141.029 61.1918 141.819 59.8988 141.779 59.0858C141.773 59.0535 141.769 59.0194 141.769 58.9832Z" fill="url(#paint14_linear_703_13560)"/>
<path d="M130.599 74.2147C133.848 63.9254 138.469 60.6129 140.5 60.5C143.546 62.8693 147.086 61.5 146.5 61.5C148.531 61.8385 151.485 63.9693 152.5 66C154.395 66.8123 155.871 66.9942 156.661 66.4301C157.225 68.2352 158.488 73.1316 159.03 75.5685C155.645 76.9224 154.531 76.8385 152.5 76.5C152.229 80.8323 147.756 88.1154 145.5 91.5L135.338 86.3993C134.548 86.3993 132.698 86.3316 131.615 86.0608C130.531 85.7901 129.584 84.8198 129.245 84.3685C128.794 84.4813 125.895 84.6393 124 84.3685C124.677 84.0301 128.568 78.9531 130.599 74.2147Z" fill="#30D791"/>
<path d="M215 7C215 6.44772 215.448 6 216 6V6C216.552 6 217 6.44772 217 7V37H215V7Z" fill="url(#paint15_linear_703_13560)"/>
</g>
<defs>
<filter id="filter0_d_703_13560" x="92.8931" y="0" width="183.361" height="141.462" filterUnits="userSpaceOnUse" color-interpolation-filters="sRGB">
<feFlood flood-opacity="0" result="BackgroundImageFix"/>
<feColorMatrix in="SourceAlpha" type="matrix" values="0 0 0 0 0 0 0 0 0 0 0 0 0 0 0 0 0 0 127 0" result="hardAlpha"/>
<feOffset dy="4"/>
<feGaussianBlur stdDeviation="5"/>
<feComposite in2="hardAlpha" operator="out"/>
<feColorMatrix type="matrix" values="0 0 0 0 0.156863 0 0 0 0 0.156863 0 0 0 0 0.164706 0 0 0 0.25 0"/>
<feBlend mode="normal" in2="BackgroundImageFix" result="effect1_dropShadow_703_13560"/>
<feBlend mode="normal" in="SourceGraphic" in2="effect1_dropShadow_703_13560" result="shape"/>
</filter>
<filter id="filter1_i_703_13560" x="187.333" y="37.0505" width="11.1118" height="10.1665" filterUnits="userSpaceOnUse" color-interpolation-filters="sRGB">
<feFlood flood-opacity="0" result="BackgroundImageFix"/>
<feBlend mode="normal" in="SourceGraphic" in2="BackgroundImageFix" result="shape"/>
<feColorMatrix in="SourceAlpha" type="matrix" values="0 0 0 0 0 0 0 0 0 0 0 0 0 0 0 0 0 0 127 0" result="hardAlpha"/>
<feOffset dy="4"/>
<feGaussianBlur stdDeviation="2"/>
<feComposite in2="hardAlpha" operator="arithmetic" k2="-1" k3="1"/>
<feColorMatrix type="matrix" values="0 0 0 0 0 0 0 0 0 0 0 0 0 0 0 0 0 0 0.25 0"/>
<feBlend mode="normal" in2="shape" result="effect1_innerShadow_703_13560"/>
</filter>
<linearGradient id="paint0_linear_703_13560" x1="144.814" y1="44.0915" x2="144.814" y2="60.3377" gradientUnits="userSpaceOnUse">
<stop stop-color="#E29999"/>
<stop offset="1" stop-color="#FFE8B3"/>
</linearGradient>
<linearGradient id="paint1_linear_703_13560" x1="174.261" y1="92.6054" x2="208.784" y2="140.328" gradientUnits="userSpaceOnUse">
<stop stop-color="#D9D9D9"/>
<stop offset="1" stop-color="#BFBFBF" stop-opacity="0"/>
</linearGradient>
<linearGradient id="paint2_linear_703_13560" x1="162.283" y1="58.1113" x2="162.283" y2="76.0711" gradientUnits="userSpaceOnUse">
<stop stop-color="#E48B8B"/>
<stop offset="1" stop-color="#FFE8B3"/>
</linearGradient>
<linearGradient id="paint3_linear_703_13560" x1="181.797" y1="53.8823" x2="189.994" y2="70.1354" gradientUnits="userSpaceOnUse">
<stop stop-color="#BFBFBF"/>
<stop offset="1"/>
</linearGradient>
<linearGradient id="paint4_linear_703_13560" x1="211.745" y1="43.7177" x2="229.695" y2="43.4528" gradientUnits="userSpaceOnUse">
<stop stop-color="#BFBFBF"/>
<stop offset="1"/>
</linearGradient>
<linearGradient id="paint5_linear_703_13560" x1="204.689" y1="19.0974" x2="218.626" y2="60.175" gradientUnits="userSpaceOnUse">
<stop stop-color="#F27F2E"/>
<stop offset="1" stop-color="#FF3838"/>
</linearGradient>
<linearGradient id="paint6_linear_703_13560" x1="189.4" y1="71.275" x2="210.046" y2="100.044" gradientUnits="userSpaceOnUse">
<stop stop-color="#D9D9D9"/>
<stop offset="1" stop-color="#D9D9D9" stop-opacity="0"/>
</linearGradient>
<linearGradient id="paint7_linear_703_13560" x1="196.845" y1="63.8289" x2="214.784" y2="91.5828" gradientUnits="userSpaceOnUse">
<stop offset="0.413994" stop-color="#D9D9D9"/>
<stop offset="1" stop-color="#D9D9D9" stop-opacity="0"/>
</linearGradient>
<linearGradient id="paint8_linear_703_13560" x1="207.012" y1="45.0154" x2="182.684" y2="96.6068" gradientUnits="userSpaceOnUse">
<stop stop-color="#F27F2E"/>
<stop offset="1" stop-color="#FF3838"/>
</linearGradient>
<linearGradient id="paint9_linear_703_13560" x1="200.449" y1="49.0974" x2="189.366" y2="68.1315" gradientUnits="userSpaceOnUse">
<stop/>
<stop offset="1" stop-color="#F27F2E" stop-opacity="0"/>
</linearGradient>
<linearGradient id="paint10_linear_703_13560" x1="217.558" y1="33.756" x2="215.433" y2="42.4736" gradientUnits="userSpaceOnUse">
<stop stop-color="#F27F2E"/>
<stop offset="1" stop-color="#FF3838"/>
</linearGradient>
<linearGradient id="paint11_linear_703_13560" x1="167.782" y1="64.6311" x2="173.594" y2="57.7946" gradientUnits="userSpaceOnUse">
<stop stop-color="#F27F2E"/>
<stop offset="1" stop-color="#FF3838"/>
</linearGradient>
<linearGradient id="paint12_linear_703_13560" x1="171.892" y1="71.1682" x2="175.954" y2="151.045" gradientUnits="userSpaceOnUse">
<stop stop-color="#00A3FF"/>
<stop offset="1" stop-color="#4550BB"/>
</linearGradient>
<linearGradient id="paint13_linear_703_13560" x1="236.877" y1="60.6761" x2="139.4" y2="157.815" gradientUnits="userSpaceOnUse">
<stop stop-color="#6C63FF"/>
<stop offset="1" stop-color="#83CBFF"/>
</linearGradient>
<linearGradient id="paint14_linear_703_13560" x1="146.846" y1="72.5216" x2="143.8" y2="64.0601" gradientUnits="userSpaceOnUse">
<stop stop-color="#E48B8B"/>
<stop offset="1" stop-color="#FFE8B3"/>
</linearGradient>
<linearGradient id="paint15_linear_703_13560" x1="216" y1="6" x2="216" y2="37" gradientUnits="userSpaceOnUse">
<stop stop-color="#F27F2E"/>
<stop offset="1" stop-color="#9A480C"/>
</linearGradient>
</defs>
</svg>
