<svg xmlns="http://www.w3.org/2000/svg" xmlns:xlink="http://www.w3.org/1999/xlink" viewBox="0 0 388.63 332.7"><defs><style>.cls-1,.cls-14,.cls-16,.cls-2,.cls-23,.cls-26,.cls-27,.cls-6,.cls-7,.cls-8{fill:none;}.cls-2{stroke:#f6eeca;stroke-width:1.95px;stroke-dasharray:8.76;}.cls-14,.cls-2,.cls-23,.cls-6,.cls-8{stroke-linecap:round;}.cls-14,.cls-16,.cls-2,.cls-23,.cls-26,.cls-27,.cls-6,.cls-7,.cls-8{stroke-miterlimit:10;}.cls-3{fill:#f6eeca;}.cls-4{fill:#f3792f;}.cls-5{fill:#4f6ddb;}.cls-23,.cls-6,.cls-7{stroke:#f3792f;}.cls-6{stroke-width:1.5px;stroke-dasharray:6.93 6.93;}.cls-7{stroke-width:1.2px;}.cls-8{stroke:#4f6ddb;stroke-width:2px;}.cls-9{fill:#a20a0a;}.cls-10{fill:#029d41;}.cls-11{fill:#fec2a0;}.cls-12{fill:#fe3737;}.cls-13{fill:#f99979;}.cls-14,.cls-16{stroke:#303134;}.cls-14{stroke-width:0.74px;}.cls-15{fill:#303134;}.cls-16{stroke-width:0.77px;}.cls-17{fill:#d9d9d9;}.cls-18{fill:#f2792e;}.cls-19{fill:#fff;}.cls-20{fill:#28282a;}.cls-21{fill:#f2aa79;}.cls-22{fill:#f37f2f;}.cls-23{stroke-width:3.77px;}.cls-24{fill:#c26125;}.cls-25{clip-path:url(#clip-path);}.cls-26{stroke:#028537;}.cls-27{stroke:#cf2d2d;}.cls-28{fill:#cf2d2d;}</style><clipPath id="clip-path" transform="translate(-24.63 -28.5)"><path class="cls-1" d="M165.49,152.37a18.6,18.6,0,0,1,.37-5.26c.78-2.56.27-10.11-4.48-12.41s-12.29-.52-14.47,8.45S141,153.52,141,153.52s.19-10-7.36-9.6-7,12.68,1.53,15a22,22,0,0,1-3.2,8.79c-4.51-12.58-12.38-10-15.76-18.81-2.58-6.75-.78-22.69,8.82-21.74s10.92-18.63,25.36-8.75c9.91,6.78,20.59,1,23.19,9.69s-5,11-5.66,16.32C167.29,149.08,167.13,150.69,165.49,152.37Z"/></clipPath></defs><title>1Cademy AI assistant motivates the development of valuable habits_light_mode</title><g id="Слой_1" data-name="Слой 1"><rect class="cls-2" x="16.4" y="78.15" width="210.62" height="158.99"/><line class="cls-2" x1="16.4" y1="105.58" x2="227.02" y2="105.58"/><rect class="cls-3" x="30.16" y="122.08" width="31.5" height="25"/><rect class="cls-3" x="30.16" y="157.65" width="31.5" height="25"/><rect class="cls-3" x="30.16" y="193.22" width="31.5" height="25"/><rect class="cls-3" x="78.16" y="122.08" width="31.5" height="25"/><rect class="cls-3" x="78.16" y="157.65" width="31.5" height="25"/><rect class="cls-3" x="78.16" y="193.22" width="31.5" height="25"/><rect class="cls-3" x="126.16" y="122.08" width="31.5" height="25"/><rect class="cls-3" x="126.16" y="157.65" width="31.5" height="25"/><rect class="cls-3" x="126.16" y="193.22" width="31.5" height="25"/><rect class="cls-3" x="174.16" y="122.08" width="31.5" height="25"/><rect class="cls-3" x="174.16" y="157.65" width="31.5" height="25"/><path class="cls-4" d="M365,215.91a78.19,78.19,0,0,0,1.45-9c.07-2.56-.95-7-.44-8.59s1-3.16,2.5-3,1.67,2,1.67,2a5.71,5.71,0,0,1,3.87-1.54c2.1.17,2.76,1.56,3.37,2.86a3.67,3.67,0,0,1,2.55,2.16c.3,1-.06,2.52.35,3.25s.44,2.27.24,4.3-.16,2.44-1,3-1.88,1.08-2.2,1.62a59.07,59.07,0,0,1-5.14,3.91Z" transform="translate(-24.63 -28.5)"/><rect class="cls-5" x="4.08" y="318.88" width="83.62" height="13.82" rx="2.09" ry="2.09"/><rect class="cls-5" x="87.7" y="296.74" width="83.62" height="13.82" rx="2.09" ry="2.09"/><rect class="cls-5" x="167.32" y="276.57" width="83.62" height="13.82" rx="2.09" ry="2.09"/><rect class="cls-5" x="251.82" y="254.7" width="118.95" height="13.82" rx="2.09" ry="2.09"/><rect class="cls-4" x="267.19" y="199.6" width="13.17" height="38.25" rx="6.19" ry="6.19" transform="translate(121.41 -136.08) rotate(30)"/><path class="cls-4" d="M239.42,239.37l15-7.87a5.36,5.36,0,0,1,6.88,3.12l.87,2.32a5.36,5.36,0,0,1-3.12,6.88l-19.23,2.83Z" transform="translate(-24.63 -28.5)"/><circle class="cls-4" cx="237.43" cy="206.14" r="4.75"/><rect class="cls-4" x="339.46" y="199.6" width="13.17" height="38.25" rx="6.19" ry="6.19" transform="translate(730.45 206.63) rotate(150)"/><path class="cls-4" d="M365,215.91l-9,14.35a5.36,5.36,0,0,0,2.58,7.1l2.25,1a5.36,5.36,0,0,0,7.1-2.58l4.3-19Z" transform="translate(-24.63 -28.5)"/><circle class="cls-4" cx="333.12" cy="203.66" r="4.75"/><circle class="cls-6" cx="18.4" cy="29.37" r="17.65"/><circle class="cls-6" cx="70.6" cy="29.37" r="17.65"/><circle class="cls-6" cx="122.8" cy="29.37" r="17.65"/><circle class="cls-6" cx="175.01" cy="29.37" r="17.65"/><circle class="cls-6" cx="227.21" cy="29.37" r="17.65"/><line class="cls-7" x1="36.04" y1="29.37" x2="52.95" y2="29.37"/><line class="cls-7" x1="88.25" y1="29.37" x2="105.16" y2="29.37"/><line class="cls-7" x1="140.45" y1="29.37" x2="157.36" y2="29.37"/><line class="cls-7" x1="192.65" y1="29.37" x2="209.56" y2="29.37"/><path class="cls-8" d="M30.91,40l10,17.78a1.84,1.84,0,0,0,3.43-.31l8.57-28" transform="translate(-24.63 -28.5)"/><path class="cls-8" d="M84.23,41l10,17.78a1.84,1.84,0,0,0,3.43-.31l8.57-28" transform="translate(-24.63 -28.5)"/><path class="cls-8" d="M137.56,41l10,17.78a1.84,1.84,0,0,0,3.43-.31l8.57-28" transform="translate(-24.63 -28.5)"/><path class="cls-8" d="M190.89,41l10,17.78a1.84,1.84,0,0,0,3.43-.31l8.57-28" transform="translate(-24.63 -28.5)"/></g><g id="Слой_2" data-name="Слой 2"><polygon class="cls-9" points="275.24 163.03 273.38 171.87 297.27 174.78 295.83 165.43 275.24 163.03"/><path class="cls-10" d="M165.49,152.37a18.6,18.6,0,0,1,.37-5.26c.78-2.56.27-10.11-4.48-12.41s-12.29-.52-14.47,8.45S141,153.52,141,153.52s.19-10-7.36-9.6-7,12.68,1.53,15a22,22,0,0,1-3.2,8.79c-4.51-12.58-12.38-10-15.76-18.81-2.58-6.75-.78-22.69,8.82-21.74s10.92-18.63,25.36-8.75c9.91,6.78,20.59,1,23.19,9.69s-5,11-5.66,16.32C167.29,149.08,167.13,150.69,165.49,152.37Z" transform="translate(-24.63 -28.5)"/><path class="cls-11" d="M152.68,172.47c-.75,2.12-2.69,4.48.63,9.22-4.49,4.73-11.28,20.46-11.28,20.46L126.49,177c.53-.77,1.06-1.55,1.58-2.37a54.79,54.79,0,0,0,7.07-15.77,9.14,9.14,0,0,1-6.64-7c-.8-3.82.9-7.74,5.11-7.95,7.55-.38,7.36,9.6,7.36,9.6s3.78-1.41,5.95-10.36,9.73-10.76,14.47-8.45,5.26,9.85,4.48,12.41a18.6,18.6,0,0,0-.37,5.26,62.62,62.62,0,0,0,.66,7.29C166.75,163.77,162.14,174.65,152.68,172.47Z" transform="translate(-24.63 -28.5)"/><path class="cls-12" d="M189.42,220.75a44,44,0,0,1-6.56,2.73l-17.41,40.45c-.6,18.51.75,41.13-18.53,33.56-26.22-10.29-47,4.67-57-7.83s2-28.88-.23-45.76c-2.69-20.33-13.8-39.69,0-53,5-4.81,34-9.91,36.81-13.86l1.64,2.67a15.73,15.73,0,0,0,25,2.13l.15-.15a1.26,1.26,0,0,0,.26.38C160,187.52,184.13,201.57,189.42,220.75Z" transform="translate(-24.63 -28.5)"/><path class="cls-13" d="M182.86,223.48c-10.14,6.89-17.41,11.28-17.41,11.28s-5,29.92.93,32.67c7.57,3.49,11,4.17,17.3-5.2C188.33,255.34,184.33,239.63,182.86,223.48Z" transform="translate(-24.63 -28.5)"/><path class="cls-14" d="M155.72,146.19s-1.68-1.09-5.37.59" transform="translate(-24.63 -28.5)"/><path class="cls-14" d="M163.43,146.61a3.7,3.7,0,0,1,2.71-1.36" transform="translate(-24.63 -28.5)"/><ellipse class="cls-15" cx="129.02" cy="123.2" rx="1.32" ry="2.69"/><ellipse class="cls-15" cx="139.54" cy="122.87" rx="1.08" ry="2.53"/><path class="cls-14" d="M161.5,155.1c1.93,1.84,1.93,6-1.48,4.42" transform="translate(-24.63 -28.5)"/><path class="cls-14" d="M155,160.82s.53,3.7,5.67,2.26" transform="translate(-24.63 -28.5)"/><path class="cls-13" d="M152.68,172.47s-4.42-1.54-5.76-5.08c0,5.08,4.61,8.25,4.61,8.25Z" transform="translate(-24.63 -28.5)"/><circle class="cls-16" cx="128.42" cy="124.51" r="5.07"/><ellipse class="cls-16" cx="140.81" cy="124.12" rx="4.14" ry="5.07"/><line class="cls-16" x1="133.29" y1="123.1" x2="136.67" y2="123.1"/><line class="cls-16" x1="123.35" y1="122.92" x2="115.69" y2="120.73"/><path class="cls-11" d="M96.64,243.21c4.32,10.39,9.33,26.55,18.89,31.93,2.88,1.62,12.92,2.61,18.35-1.54,6.68-5.09,4.51-10.25,3.52-12.82s-13-27-13-27S107.61,239.26,96.64,243.21Z" transform="translate(-24.63 -28.5)"/><path class="cls-4" d="M285.18,152.5s.35-8.12,6.06-12.13c5.24-3.68,6-3.72,25-1.38,18.45,2.28,20.17,2,24.21,7.21,4.54,5.88,3.12,14,3.12,14s4.92.23,6,.74,1.79,1.47,1.52,4.41-.69,7.12-.87,7.95a3.26,3.26,0,0,1-3,2c-1.42-.09-5.51-.41-5.51-.41s-.41,7.76-1.88,11.21a14.73,14.73,0,0,1-10.38,9c-5.88,1.33-16.4-.64-23.84-1.47s-11.58-.46-16.91-4.27-5.7-8.77-6.11-11.07.83-11,.83-11a33.72,33.72,0,0,1-4.82-.55c-1.24-.37-1.84-1.52-1.84-3.45s.6-8.22,1.24-9.51S280.12,151.71,285.18,152.5Z" transform="translate(-24.63 -28.5)"/><polygon class="cls-17" points="255.26 123.85 259.15 108.62 260.94 108.89 260.54 124 255.26 123.85"/><circle class="cls-18" cx="259.91" cy="106.79" r="2.83"/><circle class="cls-18" cx="269.9" cy="96.04" r="3.26"/><circle class="cls-18" cx="313.91" cy="100.45" r="3.26"/><circle class="cls-18" cx="293.28" cy="92.77" r="4.93"/><circle class="cls-18" cx="275.79" cy="103.97" r="1.87"/><circle class="cls-18" cx="303.59" cy="108.62" r="1.87"/><polygon class="cls-17" points="319.14 128.77 321.69 115.36 323.25 115.36 323.58 132.08 318.93 131.67 319.14 128.77"/><circle class="cls-18" cx="322.62" cy="113.04" r="2.83"/><polygon class="cls-18" points="261.31 104.61 267.93 97.96 268.22 98.26 261.43 104.74 261.31 104.61"/><polygon class="cls-18" points="275.17 103.38 271.36 98.53 271.69 98.28 275.31 103.27 275.17 103.38"/><polygon class="cls-18" points="272.12 96.06 289.13 93.48 289.19 93.89 272.14 96.23 272.12 96.06"/><polygon class="cls-18" points="311.69 99.87 297.21 94.91 297.34 94.52 311.75 99.7 311.69 99.87"/><polygon class="cls-18" points="302.73 107.55 295.65 96.48 296 96.26 302.88 107.46 302.73 107.55"/><polygon class="cls-18" points="304.44 108.08 311.51 101.78 311.78 102.09 304.56 108.21 304.44 108.08"/><polygon class="cls-18" points="321.18 111.42 315.55 102.94 315.89 102.72 321.33 111.33 321.18 111.42"/><polygon class="cls-18" points="276.8 103.89 289.19 95.02 289.43 95.36 276.9 104.04 276.8 103.89"/><path class="cls-19" d="M311.55,155.36a10.54,10.54,0,0,1-5.2,9.1,16.06,16.06,0,0,0-8.58-2.32,17.79,17.79,0,0,0-4.37.54,10.55,10.55,0,1,1,18.16-7.31Z" transform="translate(-24.63 -28.5)"/><circle class="cls-20" cx="277.41" cy="126.38" r="7.03"/><path class="cls-19" d="M316.9,156a10.54,10.54,0,0,0,2.46,10.19,16.06,16.06,0,0,1,8.89.16,17.79,17.79,0,0,1,4.05,1.73A10.55,10.55,0,1,0,316.9,156Z" transform="translate(-24.63 -28.5)"/><circle class="cls-20" cx="326.16" cy="158.23" r="7.03" transform="translate(58.73 398.93) rotate(-73.83)"/><path class="cls-9" d="M325.58,175.46s-1.4,13.62-15,12.17-11.9-14.79-11.9-14.79l1.53.15,0,.72a1.71,1.71,0,0,0,1.54,1.79l20.45,2a1.71,1.71,0,0,0,1.87-1.6l0-.56Z" transform="translate(-24.63 -28.5)"/><path class="cls-19" d="M324,175.31l0,.56a1.71,1.71,0,0,1-1.87,1.6l-20.45-2a1.71,1.71,0,0,1-1.54-1.79l0-.72Z" transform="translate(-24.63 -28.5)"/><path class="cls-13" d="M226,229.59c-.62,0-1.32.82-1.94,1.2s-2,.1-2.88.9-1.68,4.89-2.1,6.78-1.66,5.88-1.66,5.88l-18,2.29c-11,.85-14.16-3.1-21.14-2.47-15.52,1.39-18.69,18.65-8.22,24.25,9.8,5.24,21-6.12,36.1-12.4l-.12-.55c4.86-3.47,10.34-9,11.33-9.79,1.85-1.47,3.46-6.76,3.82-8.61a1.94,1.94,0,0,1,1.49-1.72,17.69,17.69,0,0,1,1.69-.57c1.05-.3,1.67-.56,2.43-2.47a3.89,3.89,0,0,0,.27-1.09C227.15,230.09,226.47,229.6,226,229.59Z" transform="translate(-24.63 -28.5)"/><path class="cls-4" d="M331.27,260.79H286.88c-8.47,0-14.92-8.06-13.56-16.94l4.94-32.3c1.08-7.06,6.82-12.25,13.56-12.25h34.5c6.73,0,12.48,5.19,13.56,12.25l4.94,32.3C346.18,252.73,339.73,260.79,331.27,260.79Z" transform="translate(-24.63 -28.5)"/><path class="cls-4" d="M241.59,238.54c-.86-1.94-1.19-3.6-3-4.68-1.45.25-2.91.78-4.36,1,.25.34.28.58-.07.88-.82.68-8.66-4.28-10.6-3.42s-1,2.62.32,3.12,4.67,1.66,4.41,2.37-6.87-1.65-7.29.35,1.06,3.26,3.38,3.28,3.49.14,3.47.7-5.57.59-4.91,2.09,1.75,1.88,3.75,1.53,2.19,0,2.35.66-3.69.09-3.27,1.83,3.28,1.14,5.79.72,5.89.88,8.19-1.29S242.56,240.74,241.59,238.54Z" transform="translate(-24.63 -28.5)"/><path class="cls-11" d="M246.22,239.28c-1.43-1-7.15-.33-11.55.26s-6.82,1.44-7.62.53,2.09-4.37,2.85-5,2.69,1,4.52.43-1-2.66-3.55-3.59c-2.25-.83-3.36-.85-3.8-.71a3.89,3.89,0,0,1-.27,1.09c-.76,1.92-1.37,2.17-2.43,2.47a17.69,17.69,0,0,0-1.69.57,1.94,1.94,0,0,0-1.49,1.72c-.36,1.85-2,7.14-3.82,8.61-1.27,1-4.8,3-14.51,3.89-16.85.87-84.22,2.87-84.66,3-15.61,4-7.37,21.84-1.25,23.17,13.58,2.95,48.76-1.46,75.41-7.39,17.75-4,31.34-9.87,33.65-10,4.29-.32,16.5-2.39,17.36-3.15s1.68-1.49,1.23-3.22a3.86,3.86,0,0,0,.42-3.27c1.16-1.46,1.73-2.39.63-4.75C247.66,242.15,247.65,240.3,246.22,239.28Z" transform="translate(-24.63 -28.5)"/><path class="cls-13" d="M239.41,244.43a14.35,14.35,0,0,1,3.19-.56,14.18,14.18,0,0,1,3.24.09,14.19,14.19,0,0,1-3.19.56A14.35,14.35,0,0,1,239.41,244.43Z" transform="translate(-24.63 -28.5)"/><path class="cls-13" d="M239.79,248.29a10.5,10.5,0,0,1,2.74-.36,10.38,10.38,0,0,1,2.75.29,10.38,10.38,0,0,1-2.74.36A10.5,10.5,0,0,1,239.79,248.29Z" transform="translate(-24.63 -28.5)"/><path class="cls-13" d="M238.11,252.54a14.7,14.7,0,0,1,3.22-.63,14.53,14.53,0,0,1,3.28,0,14.53,14.53,0,0,1-3.22.63A14.7,14.7,0,0,1,238.11,252.54Z" transform="translate(-24.63 -28.5)"/><path class="cls-4" d="M237.87,233.47c-2.46-1-3.3-3.54-3.71-4.86s-3.09,2-1.7,4c.78,1.18,1.85,3,2.17,3.46,1.45-.24,2.54-2,4-2.24A5.78,5.78,0,0,0,237.87,233.47Z" transform="translate(-24.63 -28.5)"/><path class="cls-3" d="M408.35,62.31S399,76.14,396,88s-.73,25.77-.73,25.77-18.62-13.51-34.26-12-18.44,12.84-51.93,2.43c-24.3-7.56-28.34-12.36-28.34-12.36l13.78-59.11a91.76,91.76,0,0,0,40.67,13.79c24.39,2.33,24.44-9.33,45.77-3.9C400.72,47.7,408.35,62.31,408.35,62.31Z" transform="translate(-24.63 -28.5)"/><path class="cls-21" d="M369.53,76.64c-.39-1.82-5-4.34-6.12-6.72-.64-1.4.17-5.34,0-7.19s-1-5-6.1-8.71c-2.91-2.13-4.24-2.58-8.05-3.21a27.66,27.66,0,0,0-3-.23c1.41.56,2.62.57,3.23.83a11.62,11.62,0,0,1,5.36,2.37c4.9,4,4.32,6.71,4.48,8.56s-.64,5.79,0,7.19c1.1,2.38,4.65,4.8,5,6.62.23,1.11-.46,1.29-1.91,2.7-1.74,1.69,1.27,3.53,1.18,4.5s-1,.74-1.57,1.25a.67.67,0,0,0,0,1.08c.27.18,1.53.59,1.45,1.4,0,.52-.77.79-1.33,1.1-.74.41-1.12,1.41-.71,2.8.49,1.67-.76,3.71-3.46,4.4s-6.9.15-9,.47c-3.62.55-4.39,4.33-7.18,5-.41.1-9.91-.59-9.91-.59a39.81,39.81,0,0,0,8.19,1.11,44.91,44.91,0,0,0,5.77-.14c2.78-.7,4-4.45,6.33-4.84,1.51-.25,8.09.15,10.92-.56s4.48-2.67,4-4.34c-.41-1.39-.57-2.44.18-2.85.56-.31,1.28-.57,1.33-1.1.08-.81-1.18-1.21-1.46-1.4a.68.68,0,0,1,0-1.08c.62-.51,1.48-.26,1.57-1.25s-2.92-2.8-1.18-4.5C369.07,77.92,369.76,77.75,369.53,76.64Z" transform="translate(-24.63 -28.5)"/><path class="cls-22" d="M364.67,76.18c-.39-1.82-3.94-4.24-5-6.62-.64-1.4.17-5.34,0-7.19s.42-4.53-4.48-8.56c-2.26-1.86-4.73-2.47-7.43-2.94l-1.27-.22A26.73,26.73,0,0,1,349,51.93a10.09,10.09,0,0,1,2.25,1.81c4.21,4.46,4.09,6.43,4.25,8.25s-.64,5.79,0,7.19c1.1,2.38,4.65,4.8,5,6.62.23,1.11-.46,1.29-1.92,2.7-1.74,1.69,1.27,3.53,1.18,4.5s-1,.74-1.58,1.25a.67.67,0,0,0,0,1.08c.27.18,1.53.59,1.45,1.4,0,.52-.77.79-1.32,1.1-.75.41-1.13,1.41-.72,2.8.49,1.67-1.51,4.2-4.6,4.38-2.67.16-6.75-1.88-9.77.58-1.84,1.49-2.39,3.47-5.17,4.16-.46.11-7.16.46-9.58-.29.09.36,4.84,1.34,7.75,1.62a19.23,19.23,0,0,0,5.86-.16c2.78-.7,3.55-4.48,7.18-5,2.1-.32,6.17.24,9-.47s3.95-2.72,3.46-4.4c-.41-1.39,0-2.39.71-2.8.56-.31,1.28-.57,1.33-1.1.08-.81-1.18-1.21-1.45-1.4a.67.67,0,0,1,0-1.08c.62-.51,1.48-.26,1.57-1.25s-2.92-2.8-1.18-4.5C364.22,77.47,364.91,77.29,364.67,76.18Z" transform="translate(-24.63 -28.5)"/><circle class="cls-22" cx="326.32" cy="54.6" r="2.57" transform="translate(216.71 345.85) rotate(-84.62)"/><circle class="cls-22" cx="327.16" cy="82.4" r="2.57" transform="translate(189.8 371.88) rotate(-84.62)"/><circle class="cls-22" cx="321.07" cy="68.14" r="3.06" transform="translate(198.48 352.91) rotate(-84.62)"/><circle class="cls-22" cx="342.46" cy="61.37" r="1.89" transform="translate(224.6 368.06) rotate(-84.62)"/><circle class="cls-22" cx="342.43" cy="51.44" r="1.7" transform="translate(234.47 359.04) rotate(-84.62)"/><circle class="cls-22" cx="335.09" cy="68.28" r="1.89" transform="translate(211.03 366.99) rotate(-84.62)"/><circle class="cls-22" cx="336.44" cy="77.2" r="1.65" transform="translate(203.39 376.41) rotate(-84.62)"/><circle class="cls-22" cx="338.04" cy="88.05" r="1.65" transform="translate(194.04 387.84) rotate(-84.62)"/><circle class="cls-22" cx="328.79" cy="95.06" r="1.65" transform="translate(178.67 384.98) rotate(-84.62)"/><rect class="cls-22" x="328" y="52.62" width="13.58" height="0.54" transform="translate(-28.71 31.58) rotate(-10.19)"/><rect class="cls-22" x="334.65" y="50.63" width="0.54" height="14.89" transform="translate(122.45 312.88) rotate(-66.29)"/><rect class="cls-22" x="330.71" y="54.88" width="0.54" height="13.95" transform="translate(-5.37 160.66) rotate(-32.8)"/><rect class="cls-22" x="318.1" y="61.06" width="11.21" height="0.54" transform="translate(113.71 305.2) rotate(-66.49)"/><path class="cls-22" d="M326.2,81.08c-1.76-4.2-4.43-10.56-4.6-10.86l.22-.13,0-.29c.23,0,.23,0,4.85,11.07Z" transform="translate(-24.63 -28.5)"/><rect class="cls-22" x="328.28" y="79.23" width="8.19" height="0.54" transform="translate(-21.38 143.04) rotate(-29.08)"/><path class="cls-22" d="M337.76,88.27c-2.56-1.3-9.26-4.69-9.52-4.81l.09-.22,0-.3c.07,0,.12,0,9.64,4.84Z" transform="translate(-24.63 -28.5)"/><rect class="cls-22" x="327.75" y="83.95" width="0.54" height="10.16" transform="translate(-32.96 11.59) rotate(-6.91)"/><line class="cls-23" x1="386.75" y1="21.93" x2="333.66" y2="230.04"/><path class="cls-4" d="M378.1,202.79c-.32-1.57-.23-3.12-.74-4.18a7.2,7.2,0,0,0-1.64-2.29c-2.69-1.79-5.59,1-5.59,1a2,2,0,0,0-1,2.07,1.8,1.8,0,0,0,1.36,1.5s-1,1-.83,1.63a2.92,2.92,0,0,0,1,1.83,2.09,2.09,0,0,0-.38,1.79c.3,1,.66,1.61,1.75,1.56.22,0,.6,0,1.08-.11-.16.07-1.45.74-1.29,1.7s.21,1.43,1,1.75a29.8,29.8,0,0,0,5.1.14A17,17,0,0,0,378.1,202.79Z" transform="translate(-24.63 -28.5)"/><path class="cls-24" d="M370.12,197.29a1.9,1.9,0,0,0-.82,1.86,2,2,0,0,0,.44.89,1.38,1.38,0,0,0,.75.45l-.26.06a11.68,11.68,0,0,1,3.13-1.57,6.81,6.81,0,0,1,3.46-.26,10.07,10.07,0,0,0-1.66.31,14.68,14.68,0,0,0-1.57.55,19.26,19.26,0,0,0-2.93,1.55l-.14.09-.12,0a1.93,1.93,0,0,1-1.16-.77,2.45,2.45,0,0,1-.44-1.23,1.75,1.75,0,0,1,.37-1.22A2.24,2.24,0,0,1,370.12,197.29Z" transform="translate(-24.63 -28.5)"/><path class="cls-24" d="M370.44,200.86a5.12,5.12,0,0,0-.51.85,1,1,0,0,0-.07.84,2.67,2.67,0,0,0,1,1.49h-.37a10,10,0,0,1,1.89-.92,11.11,11.11,0,0,1,2-.53,8.8,8.8,0,0,1,4.11.25,18.83,18.83,0,0,0-2,.08,17.32,17.32,0,0,0-2,.33,15.67,15.67,0,0,0-3.69,1.36l-.2.11-.16-.12a2.87,2.87,0,0,1-1-1.93,1.06,1.06,0,0,1,0-.6,2,2,0,0,1,.27-.48A3.41,3.41,0,0,1,370.44,200.86Z" transform="translate(-24.63 -28.5)"/><path class="cls-24" d="M370.62,204.32a2.29,2.29,0,0,0-.28,1.26,3.27,3.27,0,0,0,.45,1.16,1,1,0,0,0,.84.56,5.91,5.91,0,0,0,1.25-.1,44.47,44.47,0,0,1,5.43-.5,28.69,28.69,0,0,1-5.33,1.24,5.75,5.75,0,0,1-1.46.06,1.64,1.64,0,0,1-1.25-1,3.08,3.08,0,0,1-.3-1.44A2.14,2.14,0,0,1,370.62,204.32Z" transform="translate(-24.63 -28.5)"/><path class="cls-24" d="M373.07,207.55c-.62.48-1.23,1.15-1,1.76a3.38,3.38,0,0,0,.33,1,1.17,1.17,0,0,0,.78.39c.73.11,1.54.13,2.32.19s1.59.13,2.39.25a15.53,15.53,0,0,1-2.39.34,12.14,12.14,0,0,1-2.45,0,2.21,2.21,0,0,1-.35-.09,2.38,2.38,0,0,1-.32-.14,1.44,1.44,0,0,1-.57-.52,3.17,3.17,0,0,1-.31-1.29,1.34,1.34,0,0,1,.08-.71,1.68,1.68,0,0,1,.4-.55A2.87,2.87,0,0,1,373.07,207.55Z" transform="translate(-24.63 -28.5)"/><g class="cls-25"><path class="cls-26" d="M156.28,136.38c-.62-.12-28.25-5-28.25-18.25" transform="translate(-24.63 -28.5)"/><path class="cls-26" d="M154.16,137.12c-.62-.12-29.38-.85-29.38-14.1" transform="translate(-24.63 -28.5)"/></g><path class="cls-27" d="M122.91,183.25s12.88,15,27.44,6" transform="translate(-24.63 -28.5)"/><polygon class="cls-28" points="140.81 206.26 132.77 222.75 139.32 222.53 140.81 206.26"/><polygon class="cls-28" points="164.78 192.25 158.88 201.09 158.22 194.98 164.78 192.25"/></g></svg>