<svg xmlns="http://www.w3.org/2000/svg" viewBox="0 0 406.71 176"><defs><style>.cls-1{font-size:34.36px;}.cls-1,.cls-10,.cls-2{fill:#fff;}.cls-1,.cls-2{font-family:MyriadPro-Regular, Myriad Pro;}.cls-2{font-size:29.29px;}.cls-3{letter-spacing:0.01em;}.cls-4{letter-spacing:0em;}.cls-5{letter-spacing:-0.01em;}.cls-6{letter-spacing:0em;}.cls-7{letter-spacing:0em;}.cls-8{letter-spacing:-0.01em;}.cls-9{fill:#f3a170;}.cls-11{fill:#f3792f;}.cls-12{fill:#28282a;}.cls-13{fill:#a20a0a;}.cls-14{fill:#d9d9d9;}.cls-15{fill:#f2792e;}.cls-16{fill:#cc6627;}.cls-17{fill:#4f6ddb;}.cls-18{fill:#fe3737;}.cls-19{fill:#029d41;}.cls-20,.cls-21{fill:none;stroke:#f6eeca;stroke-linecap:round;stroke-miterlimit:10;stroke-width:2.07px;}.cls-20{stroke-dasharray:9.87;}</style></defs><title>Uses scientifically.....long-term learning_dark_mode</title><g id="Слой_1" data-name="Слой 1"><text class="cls-1" transform="translate(169.37 28.76) scale(0.95 1)">Spacing</text><text class="cls-2" transform="translate(154.35 168.68) scale(0.95 1)"><tspan class="cls-3">I</tspan><tspan class="cls-4" x="7.29" y="0">n</tspan><tspan class="cls-5" x="23.43" y="0">t</tspan><tspan x="32.95" y="0">e</tspan><tspan class="cls-6" x="47.63" y="0">r</tspan><tspan class="cls-7" x="57.32" y="0">le</tspan><tspan class="cls-8" x="78.91" y="0">a</tspan><tspan x="92.79" y="0">ving</tspan></text></g><g id="Слой_2" data-name="Слой 2"><path class="cls-9" d="M376.14,172.65V256s-.35.21-1,.53c-2.89,1.49-11.72,5.26-18.69.12a11.6,11.6,0,0,1-3.93-5.42,19.3,19.3,0,0,1-.78-2.66c-.36-.12-.84-.3-1.4-.55a18.8,18.8,0,0,1-11.05-13.56,12.81,12.81,0,0,1,1.31-9.45h0a8,8,0,0,1,.52-.77c-.25-.33-.57-.77-.93-1.32-3.23-4.84-9.92-17.64,1-28.08q.48-.46,1-.93c-.07-.15-.13-.28-.18-.42a12.73,12.73,0,0,1-.61-2c-1.76-8.46,5.36-18.87,16.67-13.76a10.29,10.29,0,0,1,9.33-7.94C372.14,169.32,376.14,172.65,376.14,172.65Z" transform="translate(-10.49 -125.1)"/><path class="cls-9" d="M411.3,224.46a12.65,12.65,0,0,1,1.65,10A18.78,18.78,0,0,1,402,247.91a16.47,16.47,0,0,1-1.53.61,13.4,13.4,0,0,1-.35,1.31,14.39,14.39,0,0,1-4.36,6.78c-6.59,5.68-15.75,1.5-18.69-.1-.62-.33-1-.55-1-.55V172.65s4-3.33,8.68-2.93c3.13.26,7.54,2.09,9.33,7.94,11.28-5.1,18.39,5.24,16.67,13.69a10.7,10.7,0,0,1-.62,2.09,2.59,2.59,0,0,1-.1.25c.37.31.72.62,1,.94,11,10.36,4.34,23,1,28.06-.41.6-.77,1.09-1,1.45Z" transform="translate(-10.49 -125.1)"/><path class="cls-10" d="M357.78,200.82a14.51,14.51,0,0,1-4.67.8,12.56,12.56,0,0,1-5.92-1.47,17.11,17.11,0,0,1-6-5.36q.48-.46,1-.93c-.07-.15.55.4,1.57,1.36,3.31,3.13,7.11,5.88,13.34,3.77a1,1,0,1,1,.62,1.82Z" transform="translate(-10.49 -125.1)"/><path class="cls-10" d="M355.87,237.2a.93.93,0,0,1-.7-.29.92.92,0,0,1,0-1.3l.13-.12.14-.13A15.35,15.35,0,0,1,367,232.43a1,1,0,1,1-.23,1.91,13.5,13.5,0,0,0-10.06,2.51l-.13.12A1,1,0,0,1,355.87,237.2Z" transform="translate(-10.49 -125.1)"/><path class="cls-10" d="M356.76,236.34a1,1,0,0,1-.24.64,0,0,0,0,1,0,0,1.07,1.07,0,0,1-.16.14c-2,1.73-3,4.4-3.89,7.45a17.72,17.72,0,0,0-.68,3.95c-.36-.12-.84-.3-1.4-.55.09-4.49,1.76-9.78,4.73-12.32l.25-.27h.44A1,1,0,0,1,356.76,236.34Z" transform="translate(-10.49 -125.1)"/><path class="cls-10" d="M351.36,220.05a1,1,0,0,1-1,.91c-2.21-.09-5.15,1-7.54,2.22-.7.36-1.27.78-1.66,1-.25-.33-.57-.77-.93-1.32,3-2.14,7.19-4,10.22-3.83A1,1,0,0,1,351.36,220.05Z" transform="translate(-10.49 -125.1)"/><path class="cls-10" d="M344,210.36a1,1,0,0,1-.21-1.9c4.9-1.12,3.5-7.6,3.44-7.88a1,1,0,1,1,1.88-.42c.67,3,.52,8.94-4.88,10.17Z" transform="translate(-10.49 -125.1)"/><path class="cls-10" d="M376.13,184.93a1,1,0,0,1-.9-.62,5.76,5.76,0,0,0-3.14-3.56c-2.53-1-5.44.39-5.47.4a1,1,0,0,1-.85-1.73c.15-.07,3.68-1.78,7-.47a7.58,7.58,0,0,1,4.24,4.67,1,1,0,0,1-.9,1.3Z" transform="translate(-10.49 -125.1)"/><path class="cls-10" d="M357.28,213.35a1,1,0,0,1-.06-1.92c.06,0,6.51-.44,9.7-4.6,1.7-2.22,2.19-5.16,1.45-8.73a9.82,9.82,0,0,0-4-6.59,10.81,10.81,0,0,0-7.36-1.28,1,1,0,0,1-.41-1.88,12.61,12.61,0,0,1,8.8,1.54c2.5,1.62,4.14,4.25,4.88,7.83.86,4.15.25,7.61-1.82,10.3-3.73,4.86-10.8,5.32-11.1,5.34Z" transform="translate(-10.49 -125.1)"/><path class="cls-10" d="M369.39,219.71a1,1,0,0,1-.25,0,1,1,0,0,1-.68-1.18c1.71-6.29-1.47-9-1.61-9.07a1,1,0,0,1,1.19-1.51c.18.14,4.33,3.5,2.27,11.08A1,1,0,0,1,369.39,219.71Z" transform="translate(-10.49 -125.1)"/><path class="cls-10" d="M355.87,237.2a.93.93,0,0,1-.7-.29.92.92,0,0,1,0-1.3l.13-.12.1-.09c.79-.72,3.4-3.29,3.47-6.3a6,6,0,0,0-2-4.43,1,1,0,0,1,1.36-1.36,7.85,7.85,0,0,1,2.58,5.84c-.09,3.77-3.17,6.83-4.1,7.68l-.15.13A1,1,0,0,1,355.87,237.2Z" transform="translate(-10.49 -125.1)"/><path class="cls-10" d="M411.08,224.14l.22.32c-2.54-1.91-6.58-3.64-9.38-3.5a.94.94,0,0,1-1-.91,1,1,0,0,1,.91-1c3.17-.14,7.41,1.59,10.29,3.65C411.71,223.29,411.35,223.78,411.08,224.14Z" transform="translate(-10.49 -125.1)"/><path class="cls-10" d="M408.31,210.36l-.21,0c-5.4-1.23-5.55-7.22-4.88-10.21a1,1,0,0,1,1.88.42c-.06.28-1.45,6.8,3.43,7.91a1,1,0,0,1-.21,1.9Z" transform="translate(-10.49 -125.1)"/><path class="cls-10" d="M395.1,213.92H395c-.3,0-7.46-.77-11.2-5.83-2-2.77-2.65-6.26-1.8-10.37.74-3.58,2.38-6.21,4.87-7.83a12.62,12.62,0,0,1,8.8-1.54,1,1,0,0,1-.41,1.88h0a10.81,10.81,0,0,0-7.36,1.28,9.82,9.82,0,0,0-4,6.59c-.74,3.56-.24,6.53,1.46,8.84,3.23,4.38,9.77,5.05,9.83,5.06a1,1,0,0,1-.09,1.92Z" transform="translate(-10.49 -125.1)"/><path class="cls-10" d="M382.6,219.71a1,1,0,0,1-.93-.71c-2.07-7.6,2.38-11,2.57-11.1a1,1,0,0,1,1.14,1.55c-.16.12-3.56,2.79-1.86,9a1,1,0,0,1-.68,1.18A1,1,0,0,1,382.6,219.71Z" transform="translate(-10.49 -125.1)"/><path class="cls-10" d="M395.17,236.93a16.43,16.43,0,0,1-2.82-2.95,7.84,7.84,0,0,1-.94-3.15,9.2,9.2,0,0,1,.58-4.23,10.11,10.11,0,0,1,2.07-3.29,1,1,0,1,1,1.47,1.25l0,0-.07.07a8.34,8.34,0,0,0-1.88,2.55,5.91,5.91,0,0,0-.54,3.08,9,9,0,0,0,.91,3.16,12.44,12.44,0,0,0,1.89,2.81l0,0a.45.45,0,0,1-.64.62Z" transform="translate(-10.49 -125.1)"/><rect class="cls-11" x="99.84" y="207.27" width="12.1" height="35.15" rx="5.69" ry="5.69" transform="translate(299.53 241.52) rotate(150)"/><path class="cls-11" d="M130.23,223.87l-13.65,7.49a4.92,4.92,0,0,0-1.11,6.85l1.33,1.85a4.92,4.92,0,0,0,6.85,1.11l11.93-13.28Z" transform="translate(-10.49 -125.1)"/><circle class="cls-12" cx="106.16" cy="112.29" r="4.36"/><polygon class="cls-13" points="72.79 75.93 74.5 84.05 52.54 86.73 54.21 75.93 72.79 75.93"/><path class="cls-11" d="M52.3,164.74s.32-7.46,5.57-11.14c4.81-3.38,5.53-3.42,23-1.27,17,2.09,18.53,1.82,22.25,6.63,4.17,5.41,2.87,12.83,2.87,12.83s4.52.21,5.53.68,1.65,1.35,1.39,4.05-.63,6.54-.8,7.3a3,3,0,0,1-2.79,1.82c-1.31-.08-5.07-.38-5.07-.38s-.38,7.13-1.73,10.3A13.54,13.54,0,0,1,93,203.83c-5.4,1.22-15.07-.59-21.91-1.35s-10.64-.42-15.53-3.93-5.23-8.06-5.61-10.17.76-10.09.76-10.09a31,31,0,0,1-4.43-.51c-1.14-.34-1.69-1.39-1.69-3.17s.55-7.56,1.14-8.74S47.66,164,52.3,164.74Z" transform="translate(-10.49 -125.1)"/><polygon class="cls-14" points="36.96 39.51 40.53 25.51 42.18 25.76 41.81 39.64 36.96 39.51"/><circle class="cls-15" cx="41.23" cy="23.83" r="2.6"/><circle class="cls-15" cx="50.41" cy="13.96" r="2.99"/><circle class="cls-15" cx="90.85" cy="18.01" r="2.99"/><circle class="cls-15" cx="71.9" cy="10.95" r="4.53"/><circle class="cls-15" cx="55.83" cy="21.24" r="1.72"/><circle class="cls-15" cx="81.36" cy="25.51" r="1.72"/><polygon class="cls-14" points="95.66 44.03 98 31.71 99.43 31.71 99.73 47.07 95.46 46.69 95.66 44.03"/><circle class="cls-15" cx="98.85" cy="29.58" r="2.6"/><polygon class="cls-15" points="42.51 21.83 48.6 15.72 48.87 15.99 42.63 21.95 42.51 21.83"/><polygon class="cls-15" points="55.25 20.7 51.75 16.24 52.05 16.01 55.38 20.6 55.25 20.7"/><polygon class="cls-15" points="52.45 13.97 68.08 11.6 68.14 11.98 52.47 14.13 52.45 13.97"/><polygon class="cls-15" points="88.81 17.47 75.5 12.92 75.63 12.56 88.86 17.32 88.81 17.47"/><polygon class="cls-15" points="80.58 24.53 74.07 14.36 74.39 14.16 80.72 24.45 80.58 24.53"/><polygon class="cls-15" points="82.15 25.02 88.64 19.23 88.89 19.52 82.25 25.14 82.15 25.02"/><polygon class="cls-15" points="97.53 28.09 92.35 20.3 92.67 20.09 97.67 28 97.53 28.09"/><polygon class="cls-15" points="56.75 21.17 68.13 13.02 68.35 13.33 56.84 21.3 56.75 21.17"/><path class="cls-10" d="M76.53,167.37a9.69,9.69,0,0,1-4.78,8.36,14.76,14.76,0,0,0-7.89-2.14,16.35,16.35,0,0,0-4,.49,9.7,9.7,0,1,1,16.69-6.72Z" transform="translate(-10.49 -125.1)"/><circle class="cls-12" cx="57.31" cy="41.84" r="6.46"/><path class="cls-10" d="M81.45,168a9.69,9.69,0,0,0,2.27,9.36,14.76,14.76,0,0,1,8.17.15,16.35,16.35,0,0,1,3.72,1.59A9.7,9.7,0,1,0,81.45,168Z" transform="translate(-10.49 -125.1)"/><circle class="cls-12" cx="89.96" cy="170.01" r="6.46" transform="translate(-108.87 83.97) rotate(-73.83)"/><path class="cls-13" d="M89.43,185.85S88.14,198.37,75.6,197s-10.93-13.59-10.93-13.59l1.41.14,0,.66a1.57,1.57,0,0,0,1.42,1.65l18.79,1.8A1.57,1.57,0,0,0,88,186.22l0-.51Z" transform="translate(-10.49 -125.1)"/><path class="cls-10" d="M88,185.71l0,.51a1.57,1.57,0,0,1-1.72,1.47l-18.79-1.8A1.57,1.57,0,0,1,66,184.24l0-.66Z" transform="translate(-10.49 -125.1)"/><path class="cls-11" d="M53.61,264.25H94.4c7.78,0,13.71-7.41,12.46-15.57L102.32,219a12.88,12.88,0,0,0-12.46-11.26H58.15A12.88,12.88,0,0,0,45.7,219l-4.54,29.69C39.91,256.85,45.83,264.25,53.61,264.25Z" transform="translate(-10.49 -125.1)"/><rect class="cls-11" x="36.66" y="208.03" width="12.1" height="35.15" rx="5.69" ry="5.69" transform="translate(108.04 -116.23) rotate(30)"/><path class="cls-11" d="M24.12,260.42,26,245a4.92,4.92,0,0,1,6-3.57l2.21.55a4.92,4.92,0,0,1,3.57,6l-7.9,16Z" transform="translate(-10.49 -125.1)"/><circle class="cls-12" cx="23.19" cy="116.15" r="4.36"/><path class="cls-11" d="M24.63,258.34c-1.92-.37-3.35-1-5.09-.2-.57,1.23-.93,2.61-1.51,3.83.39,0,.59.09.62.51.09,1-7.76,4.32-8.12,6.23s1.49,2.09,2.53,1.39,3.7-2.67,4.09-2.1-4.83,4.33-3.54,5.69,3,.9,4.24-.84,1.92-2.57,2.34-2.26-2.46,4.52-1,4.81,2.34-.34,3.12-2,1.13-1.67,1.73-1.43-1.86,2.84-.32,3.43,2.57-1.89,3.57-4,3.74-4,3.3-6.87S26.79,258.76,24.63,258.34Z" transform="translate(-10.49 -125.1)"/><path class="cls-11" d="M18.85,258.51c-2.07,1.31-4.4.65-5.61.27s-.14,3.35,2.16,3.39c1.3,0,3.25.18,3.75.16.58-1.22-.18-3,.39-4.19A5.31,5.31,0,0,0,18.85,258.51Z" transform="translate(-10.49 -125.1)"/><path class="cls-11" d="M153.54,208.91c-.12,1.12-7.28,5-7.28,5s-4.54,2.74-4.91,3.73a2.15,2.15,0,0,0,1.68,2.55,2,2,0,0,0,1.74,2.67c0,1.7.64,2.24,1.74,2v0s-2.55,2.73-4.73,3.29-3.79.06-6.35,1.12S132.7,231,132.7,231s-5.59-5.43-4.11-6.22c.52-.28.94-.53,1.64-.9a5,5,0,0,0,3-3.58c.56-3.23-.41-3.55,1.74-6.91,1-1.55-.38-6.71.56-7s2.74-.31,3.42,2.49a20.48,20.48,0,0,1,.5,5.54s11.2-7.65,12.5-7.59S153.67,207.79,153.54,208.91Z" transform="translate(-10.49 -125.1)"/><path class="cls-11" d="M149.38,223.53a9.31,9.31,0,0,1-2.86,1.39c-1.1.23-1.74-.31-1.74-2a2,2,0,0,1-1.74-2.67,2.15,2.15,0,0,1-1.68-2.55c.37-1,4.91-3.73,4.91-3.73s2.74.75,1.56,2.8c1.24-.06,2.67,1.68,1.62,3C151.12,220.1,152.17,221.72,149.38,223.53Z" transform="translate(-10.49 -125.1)"/><path class="cls-16" d="M147.82,216.75a6.87,6.87,0,0,1-1.83,1.53,6.79,6.79,0,0,1-2.21.89,6.79,6.79,0,0,1,1.83-1.53A6.87,6.87,0,0,1,147.82,216.75Z" transform="translate(-10.49 -125.1)"/><path class="cls-16" d="M149.44,219.73a6.13,6.13,0,0,1-1.6,1.58,6.06,6.06,0,0,1-2,1,6.06,6.06,0,0,1,1.6-1.58A6.13,6.13,0,0,1,149.44,219.73Z" transform="translate(-10.49 -125.1)"/><path class="cls-16" d="M146.27,213.95a8.23,8.23,0,0,1-2,1.71,8.13,8.13,0,0,1-2.38,1.09,8.13,8.13,0,0,1,2-1.71A8.23,8.23,0,0,1,146.27,213.95Z" transform="translate(-10.49 -125.1)"/><rect class="cls-17" x="154.35" y="98.58" width="15.02" height="34.48" rx="2.92" ry="2.92"/><rect class="cls-18" x="175.38" y="98.58" width="15.02" height="34.48" rx="2.92" ry="2.92"/><rect class="cls-17" x="195.73" y="98.58" width="15.02" height="34.48" rx="2.92" ry="2.92"/><rect class="cls-18" x="216.77" y="98.58" width="15.02" height="34.48" rx="2.92" ry="2.92"/><rect class="cls-17" x="237.11" y="98.58" width="15.02" height="34.48" rx="2.92" ry="2.92"/><rect class="cls-18" x="258.15" y="98.58" width="15.02" height="34.48" rx="2.92" ry="2.92"/><rect class="cls-17" x="278.5" y="98.58" width="15.02" height="34.48" rx="2.92" ry="2.92"/><rect class="cls-19" x="154.35" y="45.95" width="15.02" height="34.48" rx="2.92" ry="2.92"/><rect class="cls-19" x="216.77" y="45.95" width="15.02" height="34.48" rx="2.92" ry="2.92"/><rect class="cls-19" x="278.5" y="45.95" width="15.02" height="34.48" rx="2.92" ry="2.92"/><line class="cls-20" x1="312.88" y1="89.57" x2="145.71" y2="89.57"/><polyline class="cls-21" points="304.09 81.53 315.76 89.57 304.09 96.64"/><path class="cls-10" d="M402,247.91a16.47,16.47,0,0,1-1.53.61c-.23-1-.46-1.71-.87-3.23a16.7,16.7,0,0,0-3.69-6.83,11.9,11.9,0,0,0-10.4-4.13,1,1,0,0,1-1.07-.84,1,1,0,0,1,.84-1.07,13.23,13.23,0,0,1,7.38,1.21,13.48,13.48,0,0,1,2,1.15,15.91,15.91,0,0,1,2.71,2.39A18.61,18.61,0,0,1,402,247.91Z" transform="translate(-10.49 -125.1)"/><path class="cls-10" d="M411.15,194.63a16.68,16.68,0,0,1-6,5.56,11.53,11.53,0,0,1-2,.85,12.46,12.46,0,0,1-3.84.6,14.68,14.68,0,0,1-4.73-.82,1,1,0,0,1,.62-1.82,11.32,11.32,0,0,0,8.94-.39,14,14,0,0,0,4.32-3.29c1.15-1.11,1.46-1.4,1.74-1.63C410.47,194,410.82,194.31,411.15,194.63Z" transform="translate(-10.49 -125.1)"/><path class="cls-10" d="M386.93,180.71a1,1,0,0,1-1.28.44s-2.94-1.41-5.47-.4a5.63,5.63,0,0,0-3.08,3.4v72.36c-.62-.33-1-.55-1-.55s-.35.21-1,.53v-72.7l.06-.17a9.86,9.86,0,0,1,.9-1.81,6.88,6.88,0,0,1,3.34-2.86c3.33-1.31,6.87.4,7,.47A1,1,0,0,1,386.93,180.71Z" transform="translate(-10.49 -125.1)"/></g></svg>