<svg xmlns="http://www.w3.org/2000/svg" viewBox="0 0 406.71 176"><defs><style>.cls-1{font-size:34.36px;}.cls-1,.cls-16,.cls-2{fill:#28282a;}.cls-1,.cls-2{font-family:MyriadPro-Regular, Myriad Pro;}.cls-2{font-size:29.29px;}.cls-3{letter-spacing:0.01em;}.cls-4{letter-spacing:0em;}.cls-5{letter-spacing:-0.01em;}.cls-6{letter-spacing:0em;}.cls-7{letter-spacing:0em;}.cls-8{letter-spacing:-0.01em;}.cls-9{fill:#f3a170;}.cls-10{fill:#fff;}.cls-11,.cls-21,.cls-22{fill:none;stroke-linecap:round;stroke-miterlimit:10;}.cls-11{stroke:#fff;stroke-width:1.92px;}.cls-12{fill:#f3792f;}.cls-13{fill:#a20a0a;}.cls-14{fill:#d9d9d9;}.cls-15{fill:#f2792e;}.cls-17{fill:#cc6627;}.cls-18{fill:#4f6ddb;}.cls-19{fill:#fe3737;}.cls-20{fill:#029d41;}.cls-21,.cls-22{stroke:#28282a;stroke-width:2.07px;}.cls-21{stroke-dasharray:9.87;}</style></defs><title>Uses scientifically.....long-term learning_light_mode</title><g id="Слой_1" data-name="Слой 1"><text class="cls-1" transform="translate(169.37 28.76) scale(0.95 1)">Spacing</text><text class="cls-2" transform="translate(154.35 168.68) scale(0.95 1)"><tspan class="cls-3">I</tspan><tspan class="cls-4" x="7.29" y="0">n</tspan><tspan class="cls-5" x="23.43" y="0">t</tspan><tspan x="32.95" y="0">e</tspan><tspan class="cls-6" x="47.63" y="0">r</tspan><tspan class="cls-7" x="57.32" y="0">le</tspan><tspan class="cls-8" x="78.91" y="0">a</tspan><tspan x="92.79" y="0">ving</tspan></text></g><g id="Слой_2" data-name="Слой 2"><path class="cls-9" d="M376.84,172.65V256s-11.19,6.89-19.65.65a13.09,13.09,0,0,1-4.71-8.08A19,19,0,0,1,340,234.42a12.47,12.47,0,0,1,1.84-10.23c-2.49-3.33-12.6-18.56,1.08-30.33-.06-.15-.13-.29-.18-.42-3.5-8.68,3.83-21.31,16.06-15.77a10.3,10.3,0,0,1,9.34-7.95C372.84,169.32,376.84,172.65,376.84,172.65Z" transform="translate(-11.2 -125.1)"/><path class="cls-9" d="M411.79,224.14a12.54,12.54,0,0,1,1.87,10.28,18.94,18.94,0,0,1-12.45,14.1,14.63,14.63,0,0,1-4.71,8.09c-8,6.87-19.65-.65-19.65-.65V172.65s4-3.33,8.68-2.93c3.13.27,7.54,2.09,9.34,7.95,12.23-5.54,19.56,7.1,16.05,15.77a2.6,2.6,0,0,1-.11.25C424.66,205.43,414.43,220.67,411.79,224.14Z" transform="translate(-11.2 -125.1)"/><path class="cls-10" d="M341.35,191.24a20.28,20.28,0,0,0,3.07,4.1,15.49,15.49,0,0,0,4,3,11.06,11.06,0,0,0,4.65,1.3,14.85,14.85,0,0,0,4.81-.65h0a1,1,0,0,1,.57,1.83,14.16,14.16,0,0,1-5.57.77,12.2,12.2,0,0,1-5.36-1.73,15.72,15.72,0,0,1-4.12-3.66,16.64,16.64,0,0,1-2.63-4.73.3.3,0,0,1,.54-.25Z" transform="translate(-11.2 -125.1)"/><path class="cls-11" d="M367.56,233.38a14.31,14.31,0,0,0-10.81,2.74l-.19.17" transform="translate(-11.2 -125.1)"/><path class="cls-10" d="M356.51,237.3a.91.91,0,0,0,.66-.27l-.06.05a8.93,8.93,0,0,0-2.26,2.84,17.36,17.36,0,0,0-1.4,3.6,18.92,18.92,0,0,0-.53,7.81h0a.26.26,0,0,1-.51.1,19.76,19.76,0,0,1-.15-8.19,18.74,18.74,0,0,1,1.17-4,10.63,10.63,0,0,1,2.44-3.64l-.06.05a1,1,0,0,1,.7-.29,1,1,0,0,1,0,1.92Z" transform="translate(-11.2 -125.1)"/><path class="cls-10" d="M340.64,225a13.59,13.59,0,0,1,4.48-4.12,12.44,12.44,0,0,1,6-1.82h0a1,1,0,1,1,0,1.93h-.13a10.92,10.92,0,0,0-5.42.94,12.82,12.82,0,0,0-4.68,3.32h0a.2.2,0,0,1-.32-.24Z" transform="translate(-11.2 -125.1)"/><path class="cls-11" d="M348.83,200.38s1.73,7.68-4.16,9" transform="translate(-11.2 -125.1)"/><path class="cls-11" d="M366.91,180.29s7.18-3.53,9.93,3.68" transform="translate(-11.2 -125.1)"/><path class="cls-11" d="M357.5,189.29S367.77,187,370,197.91c2.81,13.62-12,14.48-12,14.48" transform="translate(-11.2 -125.1)"/><path class="cls-11" d="M368.16,208.68s3.85,3,1.94,10.07" transform="translate(-11.2 -125.1)"/><path class="cls-11" d="M358.24,224c5.38,5.36-.17,10.94-1.49,12.12l-.19.17" transform="translate(-11.2 -125.1)"/><path class="cls-10" d="M402.53,219a10.67,10.67,0,0,1,3.6.73,18.76,18.76,0,0,1,3.15,1.53,22.05,22.05,0,0,1,2.82,2,13.54,13.54,0,0,1,2.39,2.52.31.31,0,0,1-.49.38h0a12.81,12.81,0,0,0-2.46-2.14,21,21,0,0,0-2.85-1.64,17.33,17.33,0,0,0-3-1.13,9,9,0,0,0-3-.33h0a1,1,0,1,1-.18-1.92Z" transform="translate(-11.2 -125.1)"/><path class="cls-11" d="M404.86,200.34s-1.74,7.71,4.15,9.06" transform="translate(-11.2 -125.1)"/><path class="cls-11" d="M396.19,189.29s-10.27-2.27-12.52,8.62C380.85,211.53,395.81,213,395.81,213" transform="translate(-11.2 -125.1)"/><path class="cls-11" d="M385.52,208.68s-4.13,3-2.21,10.07" transform="translate(-11.2 -125.1)"/><path class="cls-10" d="M395.88,236.93A13.39,13.39,0,0,1,393.6,234a10.23,10.23,0,0,1-1.29-3.54,7.45,7.45,0,0,1,.4-3.87,10.11,10.11,0,0,1,2.07-3.29,1,1,0,1,1,1.47,1.25l0,0-.07.07a8.34,8.34,0,0,0-1.88,2.55,5.91,5.91,0,0,0-.54,3.08,9,9,0,0,0,.91,3.16,12.44,12.44,0,0,0,1.89,2.81l0,0a.45.45,0,0,1-.64.62Z" transform="translate(-11.2 -125.1)"/><rect class="cls-12" x="100.55" y="207.27" width="12.1" height="35.15" rx="5.69" ry="5.69" transform="translate(300.15 241.16) rotate(150)"/><path class="cls-12" d="M130.94,223.87l-13.65,7.49a4.92,4.92,0,0,0-1.11,6.85l1.33,1.85a4.92,4.92,0,0,0,6.85,1.11l11.93-13.28Z" transform="translate(-11.2 -125.1)"/><circle class="cls-12" cx="105.44" cy="113.02" r="5.09"/><polygon class="cls-13" points="72.79 75.93 74.5 84.05 52.54 86.73 54.21 75.93 72.79 75.93"/><path class="cls-12" d="M53,164.74s.32-7.46,5.57-11.14c4.81-3.38,5.53-3.42,23-1.27,17,2.09,18.53,1.82,22.25,6.63,4.17,5.41,2.87,12.83,2.87,12.83s4.52.21,5.53.68,1.65,1.35,1.39,4.05-.63,6.54-.8,7.3a3,3,0,0,1-2.79,1.82c-1.31-.08-5.07-.38-5.07-.38s-.38,7.13-1.73,10.3a13.54,13.54,0,0,1-9.54,8.27c-5.4,1.22-15.07-.59-21.91-1.35s-10.64-.42-15.53-3.93S51,190.49,50.6,188.38s.76-10.09.76-10.09a31,31,0,0,1-4.43-.51c-1.14-.34-1.69-1.39-1.69-3.17s.55-7.56,1.14-8.74S48.36,164,53,164.74Z" transform="translate(-11.2 -125.1)"/><polygon class="cls-14" points="36.96 39.51 40.53 25.51 42.18 25.76 41.81 39.64 36.96 39.51"/><circle class="cls-15" cx="41.23" cy="23.83" r="2.6"/><circle class="cls-15" cx="50.41" cy="13.96" r="2.99"/><circle class="cls-15" cx="90.85" cy="18.01" r="2.99"/><circle class="cls-15" cx="71.9" cy="10.95" r="4.53"/><circle class="cls-15" cx="55.83" cy="21.24" r="1.72"/><circle class="cls-15" cx="81.36" cy="25.51" r="1.72"/><polygon class="cls-14" points="95.66 44.03 98 31.71 99.43 31.71 99.73 47.07 95.46 46.69 95.66 44.03"/><circle class="cls-15" cx="98.85" cy="29.58" r="2.6"/><polygon class="cls-15" points="42.51 21.83 48.6 15.72 48.87 15.99 42.63 21.95 42.51 21.83"/><polygon class="cls-15" points="55.25 20.7 51.75 16.24 52.05 16.01 55.38 20.6 55.25 20.7"/><polygon class="cls-15" points="52.45 13.97 68.08 11.6 68.14 11.98 52.47 14.13 52.45 13.97"/><polygon class="cls-15" points="88.81 17.47 75.5 12.92 75.63 12.56 88.86 17.32 88.81 17.47"/><polygon class="cls-15" points="80.58 24.53 74.07 14.36 74.39 14.16 80.72 24.45 80.58 24.53"/><polygon class="cls-15" points="82.15 25.02 88.64 19.23 88.89 19.52 82.25 25.14 82.15 25.02"/><polygon class="cls-15" points="97.53 28.09 92.35 20.3 92.67 20.09 97.67 28 97.53 28.09"/><polygon class="cls-15" points="56.75 21.17 68.13 13.02 68.35 13.33 56.84 21.3 56.75 21.17"/><path class="cls-10" d="M77.24,167.37a9.69,9.69,0,0,1-4.78,8.36,14.76,14.76,0,0,0-7.89-2.14,16.35,16.35,0,0,0-4,.49,9.7,9.7,0,1,1,16.69-6.72Z" transform="translate(-11.2 -125.1)"/><circle class="cls-16" cx="57.31" cy="41.84" r="6.46"/><path class="cls-10" d="M82.15,168a9.69,9.69,0,0,0,2.27,9.36,14.76,14.76,0,0,1,8.17.15,16.35,16.35,0,0,1,3.72,1.59A9.7,9.7,0,1,0,82.15,168Z" transform="translate(-11.2 -125.1)"/><circle class="cls-16" cx="90.66" cy="170.01" r="6.46" transform="translate(-109.07 84.65) rotate(-73.83)"/><path class="cls-13" d="M90.13,185.85S88.84,198.37,76.31,197s-10.93-13.59-10.93-13.59l1.41.14,0,.66a1.57,1.57,0,0,0,1.42,1.65l18.79,1.8a1.57,1.57,0,0,0,1.72-1.47l0-.51Z" transform="translate(-11.2 -125.1)"/><path class="cls-10" d="M88.7,185.71l0,.51a1.57,1.57,0,0,1-1.72,1.47l-18.79-1.8a1.57,1.57,0,0,1-1.42-1.65l0-.66Z" transform="translate(-11.2 -125.1)"/><path class="cls-12" d="M54.32,264.25H95.11c7.78,0,13.71-7.41,12.46-15.57L103,219a12.88,12.88,0,0,0-12.46-11.26H58.86A12.88,12.88,0,0,0,46.4,219l-4.54,29.69C40.61,256.85,46.54,264.25,54.32,264.25Z" transform="translate(-11.2 -125.1)"/><rect class="cls-12" x="37.37" y="208.03" width="12.1" height="35.15" rx="5.69" ry="5.69" transform="translate(107.42 -116.59) rotate(30)"/><path class="cls-12" d="M24.83,260.42,26.71,245a4.92,4.92,0,0,1,6-3.57l2.21.55a4.92,4.92,0,0,1,3.57,6l-7.9,16Z" transform="translate(-11.2 -125.1)"/><circle class="cls-12" cx="23.19" cy="116.15" r="4.36"/><path class="cls-12" d="M25.33,258.34c-1.92-.37-3.35-1-5.09-.2-.57,1.23-.93,2.61-1.51,3.83.39,0,.59.09.62.51.09,1-7.76,4.32-8.12,6.23s1.49,2.09,2.53,1.39,3.7-2.67,4.09-2.1-4.83,4.33-3.54,5.69,3,.9,4.24-.84,1.92-2.57,2.34-2.26-2.46,4.52-1,4.81,2.34-.34,3.12-2,1.13-1.67,1.73-1.43-1.86,2.84-.32,3.43,2.57-1.89,3.57-4,3.74-4,3.3-6.87S27.5,258.76,25.33,258.34Z" transform="translate(-11.2 -125.1)"/><path class="cls-12" d="M19.56,258.51c-2.07,1.31-4.4.65-5.61.27s-.14,3.35,2.16,3.39c1.3,0,3.25.18,3.75.16.58-1.22-.18-3,.39-4.19A5.31,5.31,0,0,0,19.56,258.51Z" transform="translate(-11.2 -125.1)"/><path class="cls-12" d="M154.25,208.91c-.12,1.12-7.28,5-7.28,5s-4.54,2.74-4.91,3.73a2.15,2.15,0,0,0,1.68,2.55,2,2,0,0,0,1.74,2.67c0,1.7.64,2.24,1.74,2v0s-2.55,2.73-4.73,3.29-3.79.06-6.35,1.12-2.74,1.62-2.74,1.62-5.59-5.43-4.11-6.22c.52-.28.94-.53,1.64-.9a5,5,0,0,0,3-3.58c.56-3.23-.41-3.55,1.74-6.91,1-1.55-.38-6.71.56-7s2.74-.31,3.42,2.49a20.48,20.48,0,0,1,.5,5.54s11.2-7.65,12.5-7.59S154.38,207.79,154.25,208.91Z" transform="translate(-11.2 -125.1)"/><path class="cls-12" d="M150.08,223.53a9.31,9.31,0,0,1-2.86,1.39c-1.1.23-1.74-.31-1.74-2a2,2,0,0,1-1.74-2.67,2.15,2.15,0,0,1-1.68-2.55c.37-1,4.91-3.73,4.91-3.73s2.74.75,1.56,2.8c1.24-.06,2.67,1.68,1.62,3C151.83,220.1,152.88,221.72,150.08,223.53Z" transform="translate(-11.2 -125.1)"/><path class="cls-17" d="M148.53,216.75a6.87,6.87,0,0,1-1.83,1.53,6.79,6.79,0,0,1-2.21.89,6.79,6.79,0,0,1,1.83-1.53A6.87,6.87,0,0,1,148.53,216.75Z" transform="translate(-11.2 -125.1)"/><path class="cls-17" d="M150.15,219.73a6.13,6.13,0,0,1-1.6,1.58,6.06,6.06,0,0,1-2,1,6.06,6.06,0,0,1,1.6-1.58A6.13,6.13,0,0,1,150.15,219.73Z" transform="translate(-11.2 -125.1)"/><path class="cls-17" d="M147,213.95a8.23,8.23,0,0,1-2,1.71,8.13,8.13,0,0,1-2.38,1.09,8.13,8.13,0,0,1,2-1.71A8.23,8.23,0,0,1,147,213.95Z" transform="translate(-11.2 -125.1)"/><rect class="cls-18" x="154.35" y="98.58" width="15.02" height="34.48" rx="2.92" ry="2.92"/><rect class="cls-19" x="175.38" y="98.58" width="15.02" height="34.48" rx="2.92" ry="2.92"/><rect class="cls-18" x="195.73" y="98.58" width="15.02" height="34.48" rx="2.92" ry="2.92"/><rect class="cls-19" x="216.77" y="98.58" width="15.02" height="34.48" rx="2.92" ry="2.92"/><rect class="cls-18" x="237.11" y="98.58" width="15.02" height="34.48" rx="2.92" ry="2.92"/><rect class="cls-19" x="258.15" y="98.58" width="15.02" height="34.48" rx="2.92" ry="2.92"/><rect class="cls-18" x="278.5" y="98.58" width="15.02" height="34.48" rx="2.92" ry="2.92"/><rect class="cls-20" x="154.35" y="45.95" width="15.02" height="34.48" rx="2.92" ry="2.92"/><rect class="cls-20" x="216.77" y="45.95" width="15.02" height="34.48" rx="2.92" ry="2.92"/><rect class="cls-20" x="278.5" y="45.95" width="15.02" height="34.48" rx="2.92" ry="2.92"/><line class="cls-21" x1="312.88" y1="89.57" x2="145.71" y2="89.57"/><polyline class="cls-22" points="304.09 81.53 315.76 89.57 304.09 96.64"/><path class="cls-10" d="M386,232.43a13.55,13.55,0,0,1,7.07,1.22,14.25,14.25,0,0,1,5.38,4.57,17,17,0,0,1,2.81,6.36,15.45,15.45,0,0,1,0,6.88.25.25,0,0,1-.31.19.26.26,0,0,1-.19-.3,15.68,15.68,0,0,0-3.25-12.4,12.85,12.85,0,0,0-5.06-3.87,11.79,11.79,0,0,0-6.2-.74h0a1,1,0,1,1-.27-1.9Z" transform="translate(-11.2 -125.1)"/><path class="cls-10" d="M395.81,199a15.66,15.66,0,0,0,4.83.66,11.27,11.27,0,0,0,4.66-1.27,15.62,15.62,0,0,0,4-3,20.86,20.86,0,0,0,3.14-4.1h0a.17.17,0,0,1,.31.14,15.64,15.64,0,0,1-2.49,4.8,14.85,14.85,0,0,1-4.1,3.7,11.93,11.93,0,0,1-5.38,1.72,14.32,14.32,0,0,1-5.57-.8,1,1,0,0,1,.56-1.84Z" transform="translate(-11.2 -125.1)"/><path class="cls-11" d="M376.84,255.23V184c2.76-7.21,9.93-3.68,9.93-3.68" transform="translate(-11.2 -125.1)"/></g></svg>