<svg xmlns="http://www.w3.org/2000/svg" viewBox="0 0 415.19 356.77"><defs><style>.cls-1{fill:#ed1b24;}.cls-2{fill:#029d41;}.cls-3{fill:#fe3737;}.cls-4{fill:#015c26;}.cls-5{fill:none;stroke:#f6eeca;stroke-linecap:round;stroke-miterlimit:10;stroke-width:2px;stroke-dasharray:9.3;}.cls-6{fill:#ffc61a;}.cls-7{font-size:19.56px;fill:#f6eeca;}.cls-7,.cls-8{font-family:MyriadPro-Regular, Myriad Pro;}.cls-8{font-size:19px;fill:#4f6ddb;}</style></defs><title>Leverages methods......reduce burn-out_dark_mode</title><g id="Слой_2" data-name="Слой 2"><path class="cls-1" d="M42.71,135.05c0,16.32,15.37,29.55,34.34,29.55s34.33-13.23,34.33-29.55c0-12-3.32-21.69-15.95-24.55a19.7,19.7,0,0,0-6.83.05,74.93,74.93,0,0,1-10.64,1.08c-4.43,0-8.35-.94-11.81-1.34a16.77,16.77,0,0,0-5.2,0C47.19,113.09,42.71,122.81,42.71,135.05Z" transform="translate(-7.25 -16.08)"/><path class="cls-2" d="M58.43,101.12a72.28,72.28,0,0,1,7.71,9.17c3.46.4,7.39,1.34,11.81,1.34a74.93,74.93,0,0,0,10.64-1.08,80.22,80.22,0,0,1,8.08-9.43c-3.06-.09-3.78,1.68-6.13,4.32-3.21,3.61-6,3-6.23,3.09.14-.23,3-4.65,1.61-6.73-.85,3.92-7.83,7.41-7.83,7.41l.67-7.81a1.67,1.67,0,0,0-.51-1.35L76.1,98v11.22s-6.08-3.49-6.94-7.41c-1.41,2.08,1.74,6.74,1.88,7-.2-.07-4-.73-6.08-3.47S60,100.61,58.43,101.12Z" transform="translate(-7.25 -16.08)"/><path class="cls-1" d="M144.37,286.83c0,16.32-15.37,29.55-34.34,29.55S75.7,303.15,75.7,286.83c0-12,3.32-21.69,15.95-24.55a19.7,19.7,0,0,1,6.83.05,74.93,74.93,0,0,0,10.64,1.08c4.43,0,8.35-.94,11.81-1.34a16.77,16.77,0,0,1,5.2,0C139.88,264.88,144.37,274.59,144.37,286.83Z" transform="translate(-7.25 -16.08)"/><path class="cls-2" d="M128.64,252.9a72.28,72.28,0,0,0-7.71,9.17c-3.46.4-7.39,1.34-11.81,1.34a74.93,74.93,0,0,1-10.64-1.08,80.22,80.22,0,0,0-8.08-9.43c3.06-.09,3.78,1.68,6.13,4.32,3.21,3.61,6,3,6.23,3.09-.14-.23-3-4.65-1.61-6.73C102,257.5,109,261,109,261l-.67-7.81a1.67,1.67,0,0,1,.51-1.35l2.15-2.06V261s6.08-3.49,6.94-7.41c1.41,2.08-1.74,6.74-1.88,7,.2-.07,4-.73,6.08-3.47S127,252.39,128.64,252.9Z" transform="translate(-7.25 -16.08)"/><circle class="cls-3" cx="203.95" cy="154.52" r="65.17"/><circle class="cls-2" cx="203.95" cy="154.52" r="13"/><circle class="cls-4" cx="203.95" cy="154.52" r="6"/><path class="cls-2" d="M205.19,164.6l5.24-45.32a.57.57,0,0,1,1.12,0l5.64,45.32Z" transform="translate(-7.25 -16.08)"/><path class="cls-2" d="M221.44,173.35l17.35,24.19a.57.57,0,0,1-.78.79l-24.85-17.19Z" transform="translate(-7.25 -16.08)"/><path class="cls-2" d="M217.23,158.29l5.72-1.17a1,1,0,0,1,1.25,1v7.82a1,1,0,0,0,.28.71l4.1,4.36a1,1,0,0,1-.13,1.54l-4.24,3.22a1,1,0,0,1-1.59-.45l-6.14-15.65A1,1,0,0,1,217.23,158.29Z" transform="translate(-7.25 -16.08)"/><path class="cls-2" d="M205.09,158.27l-5.5-1.13a1,1,0,0,0-1.24,1.13l.77,6.71a1,1,0,0,1-.42,1l-6.4,4.65a1,1,0,0,0,.08,1.73l6.87,4a1,1,0,0,1,.49.69l1.67,8.35a1,1,0,0,0,1.5.72l4.82-2.53a1,1,0,0,1,1.13.11l4.54,3.62a1,1,0,0,0,1.66-.57l.78-3.34a1,1,0,0,0-.48-1.13l-8.21-4.85a1,1,0,0,1-.24-.19l-5.6-6.13a1,1,0,0,1-.18-1.13l4.68-10.26A1,1,0,0,0,205.09,158.27Z" transform="translate(-7.25 -16.08)"/><path class="cls-5" d="M345.57,87.91S219.19-6,76.82,87.91" transform="translate(-7.25 -16.08)"/><path class="cls-5" d="M39.78,157.43s-26,65.74,24.65,124.89" transform="translate(-7.25 -16.08)"/><path class="cls-1" d="M386.37,135.05c0,16.32-15.37,29.55-34.34,29.55s-34.33-13.23-34.33-29.55c0-12,3.32-21.69,15.95-24.55a19.7,19.7,0,0,1,6.83.05,74.93,74.93,0,0,0,10.64,1.08c4.43,0,8.35-.94,11.81-1.34a16.77,16.77,0,0,1,5.2,0C381.88,113.09,386.37,122.81,386.37,135.05Z" transform="translate(-7.25 -16.08)"/><path class="cls-2" d="M370.64,101.12a72.28,72.28,0,0,0-7.71,9.17c-3.46.4-7.39,1.34-11.81,1.34a74.93,74.93,0,0,1-10.64-1.08,80.22,80.22,0,0,0-8.08-9.43c3.06-.09,3.78,1.68,6.13,4.32,3.21,3.61,6,3,6.23,3.09-.14-.23-3-4.65-1.61-6.73.85,3.92,7.83,7.41,7.83,7.41l-.67-7.81a1.67,1.67,0,0,1,.51-1.35L353,98v11.22s6.08-3.49,6.94-7.41c1.41,2.08-1.74,6.74-1.88,7,.2-.07,4-.73,6.08-3.47S369,100.61,370.64,101.12Z" transform="translate(-7.25 -16.08)"/><path class="cls-1" d="M284.71,286.83c0,16.32,15.37,29.55,34.34,29.55s34.33-13.23,34.33-29.55c0-12-3.32-21.69-15.95-24.55a19.7,19.7,0,0,0-6.83.05,74.93,74.93,0,0,1-10.64,1.08c-4.43,0-8.35-.94-11.81-1.34a16.77,16.77,0,0,0-5.2,0C289.19,264.88,284.71,274.59,284.71,286.83Z" transform="translate(-7.25 -16.08)"/><path class="cls-2" d="M300.43,252.9a72.28,72.28,0,0,1,7.71,9.17c3.46.4,7.39,1.34,11.81,1.34a74.93,74.93,0,0,0,10.64-1.08,80.22,80.22,0,0,1,8.08-9.43c-3.06-.09-3.78,1.68-6.13,4.32-3.21,3.61-6,3-6.23,3.09.14-.23,3-4.65,1.61-6.73-.85,3.92-7.83,7.41-7.83,7.41l.67-7.81a1.67,1.67,0,0,0-.51-1.35l-2.15-2.06V261s-6.08-3.49-6.94-7.41c-1.41,2.08,1.74,6.74,1.88,7-.2-.07-4-.73-6.08-3.47S302,252.39,300.43,252.9Z" transform="translate(-7.25 -16.08)"/><path class="cls-5" d="M389.29,157.43S417,227.6,359.35,288.18" transform="translate(-7.25 -16.08)"/><path class="cls-5" d="M132.69,334.35s65,33.5,157,0" transform="translate(-7.25 -16.08)"/><path class="cls-6" d="M117.41,30.2l2-.57L123,42.27c2.52-.71,3.78-1.06,6.31-1.72l.4,1.54c-3.28.86-4.91,1.31-8.17,2.26Z" transform="translate(-7.25 -16.08)"/><path class="cls-6" d="M139.86,34.09a5.31,5.31,0,0,1-4.06,6.71,5.16,5.16,0,0,1-6.44-4,5.26,5.26,0,0,1,4-6.79A5.1,5.1,0,0,1,139.86,34.09Zm-8.53,2.14c.57,2.25,2.33,3.6,4.22,3.14s2.85-2.44,2.32-4.77c-.4-1.75-1.84-3.75-4.19-3.19S130.84,34.28,131.33,36.23Z" transform="translate(-7.25 -16.08)"/><path class="cls-6" d="M141.85,31.26c-.23-1.07-.44-1.94-.69-2.78l1.77-.38.47,1.69h0a4.13,4.13,0,0,1,3.24-2.69c1.53-.3,4.06.11,4.72,3.68L152.57,37l-1.94.37-1.15-6c-.32-1.67-1.25-2.95-3.13-2.57a2.84,2.84,0,0,0-2.27,2.47,2.61,2.61,0,0,0,0,.9l1.3,6.22-1.94.41Z" transform="translate(-7.25 -16.08)"/><path class="cls-6" d="M163.46,24.46c.06.76.14,1.61.33,2.89l.88,6.08c.35,2.4.05,3.94-.82,5a6,6,0,0,1-3.66,1.86,7.15,7.15,0,0,1-3.67-.27l.23-1.53a6.29,6.29,0,0,0,3.26.29c2-.32,3.27-1.55,2.87-4.19l-.18-1.17h0a4,4,0,0,1-3.15,2.29c-2.66.43-5-1.42-5.47-4.3-.63-3.53,1.46-6,4-6.38a3.73,3.73,0,0,1,3.74,1.27h0l-.15-1.59ZM162,28.89a2.63,2.63,0,0,0-.24-.85,2.88,2.88,0,0,0-3.11-1.57c-1.92.31-3,2.07-2.61,4.49.35,2,1.71,3.56,3.82,3.22a2.92,2.92,0,0,0,2.42-2.37,3.23,3.23,0,0,0,0-1Z" transform="translate(-7.25 -16.08)"/><path class="cls-6" d="M171.19,19.44a20,20,0,0,1,3.67-.73,6.94,6.94,0,0,1,4.42.63,3.08,3.08,0,0,1,1.54,2.47,3.56,3.56,0,0,1-2.31,3.47v0A3.82,3.82,0,0,1,182,28.7a3.91,3.91,0,0,1-1,3.06c-.93,1-2.61,1.63-5.07,1.9a25.18,25.18,0,0,1-3,.17Zm2.71,5.75,1.81-.2c2.1-.23,3.24-1.39,3.1-2.8-.17-1.72-1.63-2.26-3.67-2a9,9,0,0,0-1.77.33Zm.8,7a11.17,11.17,0,0,0,1.64-.09c2-.22,3.81-1.12,3.6-3.25s-2.07-2.66-4.24-2.42l-1.64.18Z" transform="translate(-7.25 -16.08)"/><path class="cls-6" d="M184.35,25.4c-.1-1.24-.21-2.31-.36-3.28l1.78-.14L186,24h.09A3.3,3.3,0,0,1,189,21.51a2.3,2.3,0,0,1,.58,0l.12,1.81a3.15,3.15,0,0,0-.69,0A2.76,2.76,0,0,0,186.49,26a5.14,5.14,0,0,0,0,.9l.43,5.62-1.94.15Z" transform="translate(-7.25 -16.08)"/><path class="cls-6" d="M192.85,27.16a3.47,3.47,0,0,0,3.93,3.48,7.53,7.53,0,0,0,3-.67l.39,1.36a9.23,9.23,0,0,1-3.58.8,5,5,0,0,1-5.65-5c-.2-3.18,1.63-5.83,4.89-6,3.65-.17,4.72,2.85,4.79,4.8a6.86,6.86,0,0,1,0,.9C197.49,26.92,195.94,27,192.85,27.16Zm5.81-1.65a2.77,2.77,0,0,0-2.93-3,3.23,3.23,0,0,0-2.93,3.28C195.14,25.65,196.32,25.6,198.66,25.51Z" transform="translate(-7.25 -16.08)"/><path class="cls-6" d="M209.25,31.59l-.17-1.33H209a4.12,4.12,0,0,1-3.3,1.61,3.08,3.08,0,0,1-3.39-3c-.07-2.56,2.27-4,6.54-4v-.22a2.22,2.22,0,0,0-2.55-2.42,5.68,5.68,0,0,0-2.88.84l-.49-1.26a7.11,7.11,0,0,1,3.66-1c3.42,0,4.26,2.18,4.26,4.3,0,1.58,0,2.37,0,4a14.6,14.6,0,0,0,.18,2.54Zm-.33-5.4c-2.19,0-4.66.39-4.62,2.45a1.73,1.73,0,0,0,1.9,1.8,2.72,2.72,0,0,0,2.62-1.8,2,2,0,0,0,.11-.61Z" transform="translate(-7.25 -16.08)"/><path class="cls-6" d="M216.07,25.89h0c.28-.37.67-.82,1-1.19,1.33-1.44,2-2.15,3.35-3.57l2.45.08c-1.79,1.68-2.67,2.52-4.42,4.22,1.89,2.53,2.81,3.81,4.63,6.37l-2.39-.08c-1.44-2.07-2.16-3.1-3.65-5.16l-1,1.08-.06,4-1.95,0c.05-6.21.08-9.31.14-15.51l2,0C216.16,20,216.13,22,216.07,25.89Z" transform="translate(-7.25 -16.08)"/><path class="cls-6" d="M234.31,25.78l-.1,1.42c-2.24-.16-3.37-.23-5.61-.35l.08-1.42C230.93,25.55,232.06,25.62,234.31,25.78Z" transform="translate(-7.25 -16.08)"/><path class="cls-6" d="M245.8,21h0L243,22l-.25-1.49,3.46-1.32,1.75.19-1.56,14.12-1.9-.2Z" transform="translate(-7.25 -16.08)"/><path class="cls-6" d="M262.24,22.92c-2.29-.35-3.43-.52-5.72-.83l-1.07,3.54a8.18,8.18,0,0,1,1.22.08,6.65,6.65,0,0,1,3.08,1.22,4,4,0,0,1,1.56,3.93c-.43,2.74-3,4.44-6.12,4a7.45,7.45,0,0,1-3.49-1.34l.68-1.39a6.86,6.86,0,0,0,3,1.19,3.22,3.22,0,0,0,3.89-2.55c.26-1.81-.83-3.32-3.79-3.72a15.46,15.46,0,0,0-2.07-.12c.73-2.65,1.1-4,1.85-6.63,2.89.38,4.33.59,7.21,1Z" transform="translate(-7.25 -16.08)"/><path class="cls-6" d="M269.78,29.13c.19-1.08.33-2,.42-2.83l1.76.32-.22,1.69h.07a3.86,3.86,0,0,1,3.83-1.25,3.28,3.28,0,0,1,2.69,2.71h0a4.38,4.38,0,0,1,1.51-1.09,4,4,0,0,1,2.59-.2c1.45.32,3.4,1.71,2.58,5.29l-1.4,6.07-1.89-.43,1.31-5.84c.45-2-.05-3.35-1.66-3.7a2.6,2.6,0,0,0-2.71,1.21,3,3,0,0,0-.36.91L277,38.39,275.1,38l1.26-6.21c.33-1.65-.19-3-1.71-3.3a2.73,2.73,0,0,0-2.83,1.42,2.53,2.53,0,0,0-.33.89l-1.17,6.27-1.9-.35Z" transform="translate(-7.25 -16.08)"/><path class="cls-6" d="M292.2,28a1.29,1.29,0,0,1-2.49-.61,1.22,1.22,0,0,1,1.54-.86A1.2,1.2,0,0,1,292.2,28ZM286.78,40.6l2.49-10.28,2,.49L288.7,41.07Z" transform="translate(-7.25 -16.08)"/><path class="cls-6" d="M293.83,34.41c.27-1.06.48-1.93.63-2.79l1.76.46-.34,1.72h0a4.15,4.15,0,0,1,4.12-.94c1.51.42,3.6,1.93,2.59,5.41l-1.76,6.06L299,43.8l1.66-5.87c.47-1.64.21-3.19-1.65-3.71a2.85,2.85,0,0,0-3.15,1.18,2.61,2.61,0,0,0-.36.83l-1.63,6.14-1.92-.5Z" transform="translate(-7.25 -16.08)"/><text class="cls-7" transform="translate(317.57 124.94)">25 min</text><text class="cls-7" transform="translate(284.9 277.61)">25 min</text><text class="cls-7" transform="translate(75.57 277.61)">25 min</text><text class="cls-7" transform="translate(40.23 125.61)">25 min</text><path class="cls-2" d="M37,272.56a7.27,7.27,0,0,0-.45-3.6c-.75-1.84-2.12-2.56-3.5-2s-1.76,1.57-1.66,3.76c.12,2.62-.37,4.59-2.28,5.4-2.11.9-4.5-.34-5.66-3.23a7.51,7.51,0,0,1-.61-3.56l1.65,0a6.53,6.53,0,0,0,.45,3.06c.81,2,2.24,2.32,3.17,1.93,1.27-.53,1.52-1.67,1.46-4-.08-2.8.59-4.46,2.61-5.23s4.55.11,5.87,3.37a8.12,8.12,0,0,1,.6,3.89Z" transform="translate(-7.25 -16.08)"/><path class="cls-2" d="M20.44,266.58c-.29-.79-.43-1.18-.71-2l6.22-2.2,0,0a3.69,3.69,0,0,1-1.76-.93A4.41,4.41,0,0,1,23,259.64c-.48-1.43-.38-4,3.1-5.1l6-1.89c.23.74.35,1.11.59,1.85l-5.78,1.88c-1.62.53-2.79,1.61-2.18,3.43a2.86,2.86,0,0,0,2.7,1.94,2.22,2.22,0,0,0,.91-.17l6-2.12c.26.74.39,1.1.66,1.84Z" transform="translate(-7.25 -16.08)"/><path class="cls-2" d="M23.4,241.59a5.29,5.29,0,0,1,6.8,3.79,5.14,5.14,0,0,1-3.79,6.49,5.22,5.22,0,0,1-6.92-3.73A5.06,5.06,0,0,1,23.4,241.59ZM25.77,250c2.22-.65,3.52-2.44,3-4.28S26.27,243,24,243.55c-1.73.45-3.71,1.94-3.07,4.25S23.84,250.52,25.77,250Z" transform="translate(-7.25 -16.08)"/><path class="cls-2" d="M21,239.59c-1.21.29-2.25.55-3.19.85-.16-.69-.25-1-.4-1.74l2-.53,0-.09a3.29,3.29,0,0,1-2.93-2.52,2.3,2.3,0,0,1-.05-.58l1.77-.37a3.13,3.13,0,0,0,.08.69,2.75,2.75,0,0,0,3,2.11,5.27,5.27,0,0,0,.89-.11L27.6,236c.17.75.26,1.12.43,1.87Z" transform="translate(-7.25 -16.08)"/><path class="cls-2" d="M12.57,230.54l3-.56c-.21-1.15-.32-1.72-.52-2.87l1.44-.25c.2,1.14.3,1.71.51,2.85l5.61-1c1.29-.24,1.95-.75,1.76-1.82a4.46,4.46,0,0,0-.33-1.09l1.41-.33a4.88,4.88,0,0,1,.56,1.65,2.83,2.83,0,0,1-.41,2.21A4,4,0,0,1,23,230.55l-5.66,1.11c.13.68.2,1,.34,1.69l-1.44.29c-.14-.68-.21-1-.34-1.7l-2.49.49Z" transform="translate(-7.25 -16.08)"/><path class="cls-2" d="M10,220.47a19.67,19.67,0,0,1-.79-3.68,6.94,6.94,0,0,1,.58-4.45,3.07,3.07,0,0,1,2.46-1.56,3.57,3.57,0,0,1,3.48,2.29h0a3.8,3.8,0,0,1,3.36-3.51,3.94,3.94,0,0,1,3.06,1c1,.91,1.64,2.56,1.94,5a25.33,25.33,0,0,1,.21,3Zm5.71-2.81c-.09-.72-.14-1.08-.23-1.8-.25-2.1-1.42-3.22-2.83-3.07-1.72.18-2.25,1.65-2,3.7a8.94,8.94,0,0,0,.36,1.78Zm7-.91a11,11,0,0,0-.11-1.62c-.24-2-1.15-3.74-3.28-3.52s-2.64,2.08-2.38,4.23c.08.65.12,1,.2,1.63Z" transform="translate(-7.25 -16.08)"/><path class="cls-2" d="M15.85,207.24c-1.24.1-2.31.21-3.28.36-.06-.71-.09-1.07-.14-1.78l2.07-.22v-.09A3.29,3.29,0,0,1,12,202.57a2.3,2.3,0,0,1,0-.58l1.81-.1a3.14,3.14,0,0,0,0,.69,2.75,2.75,0,0,0,2.64,2.53,5.16,5.16,0,0,0,.9,0l5.62-.41c.06.77.08,1.15.15,1.91Z" transform="translate(-7.25 -16.08)"/><path class="cls-2" d="M17.66,198.8A3.46,3.46,0,0,0,21.21,195a7.48,7.48,0,0,0-.6-3l1.37-.35a9.14,9.14,0,0,1,.72,3.55,5,5,0,0,1-5.12,5.52c-3.18.16-5.81-1.7-5.9-5-.1-3.67,3-4.67,4.9-4.68a6.89,6.89,0,0,1,.9.06C17.5,194.19,17.53,195.73,17.66,198.8ZM16.12,193c-1.22,0-3.13.58-3.06,2.86a3.22,3.22,0,0,0,3.23,3C16.19,196.5,16.16,195.33,16.12,193Z" transform="translate(-7.25 -16.08)"/><path class="cls-2" d="M22.52,182.67l-1.34.11v.07a4.09,4.09,0,0,1,1.49,3.32,3.07,3.07,0,0,1-3.07,3.27c-2.56,0-4-2.38-3.83-6.65h-.22a2.21,2.21,0,0,0-2.51,2.47,5.66,5.66,0,0,0,.75,2.92l-1.27.46a7.09,7.09,0,0,1-.89-3.7c.07-3.44,2.34-4.19,4.46-4.11l4,.16a14.78,14.78,0,0,0,2.54-.07C22.56,181.61,22.55,182,22.52,182.67Zm-5.4.12c-.11,2.18.23,4.66,2.28,4.68a1.73,1.73,0,0,0,1.86-1.83,2.71,2.71,0,0,0-1.7-2.66,2,2,0,0,0-.61-.13Z" transform="translate(-7.25 -16.08)"/><path class="cls-2" d="M17.14,175.63v0c-.35-.3-.78-.72-1.13-1.06-1.37-1.4-2-2.11-3.38-3.55.08-1,.13-1.48.22-2.46,1.56,1.9,2.36,2.84,4,4.68,2.63-1.75,4-2.6,6.62-4.24-.09.95-.14,1.42-.22,2.37-2.15,1.3-3.22,2-5.35,3.34l1,1.09,4,.26c-.05.77-.07,1.16-.12,1.93l-15.49-.87c0-.83.07-1.24.13-2.07Z" transform="translate(-7.25 -16.08)"/><path class="cls-2" d="M47.74,233.09c.81,2.34,1.25,3.5,2.19,5.8l3.61-.82a8.46,8.46,0,0,1-.57-1.16,6.92,6.92,0,0,1-.49-3.43,4,4,0,0,1,2.71-3.29c2.63-.9,5.29.55,6.46,3.45a7.72,7.72,0,0,1,.61,3.66l-1.54.14a7.21,7.21,0,0,0-.5-3.2c-.7-1.73-2.37-2.84-4.14-2.18s-2.53,2.37-1.34,5.24a15.07,15.07,0,0,0,1,1.92c-2.66.72-4,1.07-6.67,1.75-1.24-2.91-1.81-4.39-2.83-7.37Z" transform="translate(-7.25 -16.08)"/><path class="cls-2" d="M49.85,223.16c-1.06.27-1.92.51-2.75.8-.19-.73-.28-1.1-.45-1.83l1.64-.49,0-.07a4,4,0,0,1-2.69-3.19,3.38,3.38,0,0,1,1.48-3.65v0a4.33,4.33,0,0,1-1.57-1.07,4.19,4.19,0,0,1-1.11-2.48c-.2-1.56.47-4,4.13-4.31l6.2-.59c.07.76.11,1.13.2,1.89l-5.95.68c-2,.23-3.15,1.19-2.91,2.89a2.65,2.65,0,0,0,2.1,2.2,2.91,2.91,0,0,0,1,0l6.45-1.06c.12.75.19,1.12.33,1.87l-6.23,1.15c-1.65.3-2.72,1.34-2.39,2.92a2.78,2.78,0,0,0,2.44,2.13,2.45,2.45,0,0,0,1-.05l6.21-1.46c.17.74.26,1.11.45,1.85Z" transform="translate(-7.25 -16.08)"/><path class="cls-2" d="M40.81,201.47c.64,0,1.2.47,1.24,1.34a1.24,1.24,0,0,1-1.1,1.39,1.27,1.27,0,0,1-1.28-1.32A1.24,1.24,0,0,1,40.81,201.47Zm13.65,1.61-10.55.67c-.05-.86-.08-1.29-.11-2.15l10.57-.46C54.39,201.92,54.41,202.31,54.45,203.08Z" transform="translate(-7.25 -16.08)"/><path class="cls-2" d="M46.55,198c-1.09,0-2,0-2.86.13,0-.76,0-1.15,0-1.91l1.75-.11v0a4.29,4.29,0,0,1-1.89-4c.07-1.65,1.14-4.14,4.75-3.84l6.29.52c-.06.78-.09,1.17-.14,2l-6.08-.38c-1.7-.11-3.18.51-3.25,2.52a2.91,2.91,0,0,0,1.9,2.88,2.53,2.53,0,0,0,.89.15l6.36.06c0,.78,0,1.17,0,1.95Z" transform="translate(-7.25 -16.08)"/><path class="cls-2" d="M408.76,171.41A7.27,7.27,0,0,0,408,175c.1,2,1.16,3.11,2.65,3.06s2.18-.91,2.8-3c.75-2.52,1.85-4.22,3.92-4.36,2.29-.16,4.14,1.8,4.28,4.91a7.51,7.51,0,0,1-.59,3.56l-1.57-.52a6.53,6.53,0,0,0,.58-3c-.1-2.17-1.36-2.93-2.36-2.87-1.37.08-2,1.08-2.68,3.26-.84,2.67-2,4-4.18,4.08s-4.26-1.59-4.44-5.11a8.12,8.12,0,0,1,.71-3.87Z" transform="translate(-7.25 -16.08)"/><path class="cls-2" d="M422.41,182.47c0,.84,0,1.26,0,2.09l-6.6,0v0a3.69,3.69,0,0,1,1.36,1.46,4.41,4.41,0,0,1,.53,2.1c0,1.51-1,3.9-4.6,3.8l-6.29-.18c0-.78,0-1.17,0-1.95L413,190c1.7,0,3.17-.61,3.18-2.52a2.86,2.86,0,0,0-1.92-2.72,2.22,2.22,0,0,0-.92-.13l-6.38,0c0-.78,0-1.17,0-1.95Z" transform="translate(-7.25 -16.08)"/><path class="cls-2" d="M411.41,205.11a5.29,5.29,0,0,1-5.18-5.81,5.14,5.14,0,0,1,5.71-4.89,5.22,5.22,0,0,1,5.31,5.8A5.06,5.06,0,0,1,411.41,205.11Zm.5-8.68c-2.31-.12-4.12,1.15-4.25,3.06s1.48,3.4,3.85,3.59c1.79.15,4.14-.61,4.3-3S413.92,196.53,411.91,196.43Z" transform="translate(-7.25 -16.08)"/><path class="cls-2" d="M413.06,207.81c1.24.13,2.31.21,3.29.25-.07.71-.11,1.07-.19,1.77l-2.07-.16v.09A3.29,3.29,0,0,1,416,213.1a2.3,2.3,0,0,1-.14.57l-1.8-.23a3.13,3.13,0,0,0,.15-.68,2.75,2.75,0,0,0-2.13-3,5.27,5.27,0,0,0-.88-.19l-5.6-.63c.09-.76.13-1.15.2-1.91Z" transform="translate(-7.25 -16.08)"/><path class="cls-2" d="M418,219.1l-3-.45c-.17,1.15-.27,1.73-.46,2.88l-1.45-.24c.19-1.14.28-1.72.45-2.86l-5.64-.85c-1.3-.2-2.08.07-2.25,1.14a4.46,4.46,0,0,0-.05,1.14l-1.44-.15a4.88,4.88,0,0,1,0-1.74,2.83,2.83,0,0,1,1.11-2,4,4,0,0,1,2.83-.36l5.71.81c.1-.68.14-1,.24-1.71l1.45.19c-.09.69-.14,1-.24,1.72l2.51.36C417.89,217.86,417.94,218.27,418,219.1Z" transform="translate(-7.25 -16.08)"/><path class="cls-2" d="M417.13,229.46a19.67,19.67,0,0,1-.46,3.74,6.94,6.94,0,0,1-2,4,3.06,3.06,0,0,1-2.83.66,3.57,3.57,0,0,1-2.54-3.3h0a3.8,3.8,0,0,1-4.32,2.21,3.94,3.94,0,0,1-2.57-1.93c-.68-1.2-.71-3-.2-5.33a25.3,25.3,0,0,1,.77-2.88Zm-6.31.78c-.15.71-.22,1.06-.38,1.77-.45,2.06.28,3.51,1.67,3.83,1.68.39,2.67-.82,3.1-2.84a9,9,0,0,0,.25-1.79Zm-6.91-1.44a11,11,0,0,0-.42,1.57c-.42,2-.14,3.91,1.94,4.4s3.18-1.1,3.64-3.22c.14-.64.21-1,.34-1.61Z" transform="translate(-7.25 -16.08)"/><path class="cls-2" d="M407.27,240c1.21.31,2.25.56,3.22.74-.18.69-.27,1-.45,1.73l-2-.47,0,.09a3.29,3.29,0,0,1,1.41,3.6,2.3,2.3,0,0,1-.22.54l-1.74-.5a3.13,3.13,0,0,0,.25-.65,2.75,2.75,0,0,0-1.66-3.26,5.16,5.16,0,0,0-.84-.32l-5.44-1.46c.2-.74.3-1.11.49-1.86Z" transform="translate(-7.25 -16.08)"/><path class="cls-2" d="M402.78,247.41a3.46,3.46,0,0,0-4.61,2.47,7.47,7.47,0,0,0-.41,3l-1.41-.12a9.14,9.14,0,0,1,.48-3.59,5,5,0,0,1,6.65-3.54c3.06.89,4.93,3.51,3.94,6.64-1.11,3.5-4.33,3.44-6.17,2.81a6.89,6.89,0,0,1-.83-.35C401.43,251.82,401.9,250.36,402.78,247.41Zm-.45,6c1.15.41,3.14.48,3.83-1.7a3.22,3.22,0,0,0-2.08-3.88C403.42,250.07,403.07,251.19,402.34,253.41Z" transform="translate(-7.25 -16.08)"/><path class="cls-2" d="M392.9,261.06l1.3.33,0-.06a4.09,4.09,0,0,1-.32-3.63,3.07,3.07,0,0,1,4-2.08c2.41.84,3,3.55,1.43,7.54l.2.08a2.21,2.21,0,0,0,3.18-1.5,5.66,5.66,0,0,0,.25-3h1.35a7.09,7.09,0,0,1-.37,3.79c-1.2,3.23-3.58,3.19-5.56,2.42l-3.68-1.45a14.78,14.78,0,0,0-2.42-.76Zm5.14,1.66c.82-2,1.31-4.47-.62-5.17a1.73,1.73,0,0,0-2.36,1.12,2.71,2.71,0,0,0,.74,3.07,2,2,0,0,0,.53.32Z" transform="translate(-7.25 -16.08)"/><path class="cls-2" d="M395.68,269.47l0,0c.24.4.51.93.72,1.37.83,1.77,1.24,2.66,2,4.47-.4.9-.61,1.35-1,2.25-.85-2.31-1.29-3.46-2.21-5.72-3.06.79-4.59,1.16-7.65,1.83.4-.86.6-1.3,1-2.16,2.46-.52,3.69-.8,6.15-1.4l-.61-1.37-3.66-1.55.74-1.78,14.35,5.9-.8,1.91Z" transform="translate(-7.25 -16.08)"/><path class="cls-2" d="M385.63,205.15c0-2.48,0-3.72-.16-6.2l-3.68-.41a8.47,8.47,0,0,1,.16,1.28,6.92,6.92,0,0,1-.66,3.4,4,4,0,0,1-3.64,2.21c-2.77,0-4.81-2.26-5-5.38a7.72,7.72,0,0,1,.63-3.66l1.5.37a7.21,7.21,0,0,0-.58,3.19c.09,1.87,1.3,3.45,3.19,3.41s3.16-1.41,3-4.51a15.06,15.06,0,0,0-.3-2.14c2.75.19,4.13.3,6.87.54.21,3.16.27,4.74.26,7.89Z" transform="translate(-7.25 -16.08)"/><path class="cls-2" d="M380.38,213.83c1.09.09,2,.14,2.86.14-.06.75-.1,1.13-.17,1.88l-1.71-.08v.07a4,4,0,0,1,1.49,3.9,3.38,3.38,0,0,1-2.6,3v0a4.33,4.33,0,0,1,1.13,1.52,4.19,4.19,0,0,1,.23,2.71c-.32,1.54-1.75,3.59-5.31,2.72l-6-1.48c.18-.74.27-1.11.43-1.85l5.84,1.31c2,.44,3.37-.09,3.7-1.77a2.65,2.65,0,0,0-1.26-2.77,2.91,2.91,0,0,0-.92-.33l-6.44-1.11c.13-.75.19-1.12.31-1.87l6.26,1c1.66.26,3-.37,3.21-2a2.78,2.78,0,0,0-1.6-2.82,2.45,2.45,0,0,0-.92-.26l-6.35-.66c.08-.76.11-1.13.18-1.89Z" transform="translate(-7.25 -16.08)"/><path class="cls-2" d="M381.8,237.29a1.39,1.39,0,0,1,.76-2.63,1.27,1.27,0,0,1,.78,1.67A1.24,1.24,0,0,1,381.8,237.29Zm-12.36-6,10.19,2.83c-.23.83-.35,1.24-.6,2.07l-10.13-3C369.12,232.42,369.23,232,369.44,231.29Z" transform="translate(-7.25 -16.08)"/><path class="cls-2" d="M375.23,238.7c1,.35,1.89.61,2.75.82-.24.73-.37,1.09-.62,1.81l-1.69-.47,0,0a4.29,4.29,0,0,1,.49,4.35c-.61,1.53-2.43,3.54-5.75,2.07l-5.77-2.56c.32-.72.47-1.08.77-1.8l5.62,2.36c1.57.66,3.17.56,3.9-1.31a2.91,2.91,0,0,0-.85-3.35,2.53,2.53,0,0,0-.79-.44l-6-2.14c.26-.73.39-1.1.64-1.84Z" transform="translate(-7.25 -16.08)"/><path class="cls-2" d="M160.59,328.12a7,7,0,0,0,3.05,1.76c1.88.5,3.22-.14,3.55-1.46s-.28-2.14-2-3.28c-2-1.37-3.13-2.86-2.6-4.69.58-2,2.72-3,5.31-2.34a6.63,6.63,0,0,1,2.8,1.38l-.82,1.26a5.85,5.85,0,0,0-2.4-1.27c-1.83-.48-2.82.38-3.07,1.27-.34,1.21.32,2.05,2,3.24,2.11,1.46,3.07,2.81,2.61,4.73s-2.56,3.41-6,2.5a8,8,0,0,1-3.42-1.85Z" transform="translate(-7.25 -16.08)"/><path class="cls-2" d="M173.83,319l1.75.38-1.26,5.91h0a3.48,3.48,0,0,1,1.55-.94,4.05,4.05,0,0,1,1.94-.12c1.33.26,3.32,1.42,2.75,4.71l-1,5.68-1.9-.34,1-5.47c.28-1.53-.08-2.93-1.79-3.27a2.68,2.68,0,0,0-2.79,1.22,2,2,0,0,0-.3.8l-1.22,5.71-1.89-.41Z" transform="translate(-7.25 -16.08)"/><path class="cls-2" d="M192.73,331.51A4.86,4.86,0,0,1,187,336a4.72,4.72,0,0,1-4.26-5.65,4.92,4.92,0,0,1,5.75-4.36A4.76,4.76,0,0,1,192.73,331.51Zm-8.15-.93c-.31,2.1.77,3.88,2.63,4.13s3.36-1.18,3.6-3.35c.19-1.63-.43-3.78-2.59-4.07S184.86,328.76,184.59,330.58Z" transform="translate(-7.25 -16.08)"/><path class="cls-2" d="M195.24,330c.1-1.14.17-2.11.19-3l1.59.14-.09,1.9H197a3,3,0,0,1,2.94-1.91,2.06,2.06,0,0,1,.51.09l-.1,1.66a2.93,2.93,0,0,0-.62-.1,2.57,2.57,0,0,0-2.64,2.08,4.7,4.7,0,0,0-.15.81l-.41,5.14-1.9-.16Z" transform="translate(-7.25 -16.08)"/><path class="cls-2" d="M205.07,324.81l-.1,2.78,2.61.07,0,1.34-2.63-.07-.19,5.22c0,1.2.3,1.9,1.37,1.92a4.45,4.45,0,0,0,1.11-.09l.06,1.32a5,5,0,0,1-1.71.2,2.85,2.85,0,0,1-2-.81,3.47,3.47,0,0,1-.63-2.55l.24-5.28-1.57-.08.07-1.34,1.55.08.11-2.32Z" transform="translate(-7.25 -16.08)"/><path class="cls-2" d="M214,324.05a19.16,19.16,0,0,1,3.22-.36,6.13,6.13,0,0,1,3.8.81,2.9,2.9,0,0,1,1.29,2.31,3.18,3.18,0,0,1-2.21,3.09v0a3.59,3.59,0,0,1,3.15,3.2,3.44,3.44,0,0,1-1.06,2.77q-1.41,1.38-5,1.49a21.45,21.45,0,0,1-3-.09Zm1.91,5.48,1.66-.05c1.93-.07,3-1.1,2.94-2.39-.08-1.58-1.34-2.13-3.14-2.06a8.27,8.27,0,0,0-1.57.17Zm.17,6.46a10.4,10.4,0,0,0,1.59,0c2-.07,3.72-.83,3.61-2.79s-1.81-2.5-3.82-2.43l-1.52,0Z" transform="translate(-7.25 -16.08)"/><path class="cls-2" d="M225.5,330.14c-.09-1.14-.19-2.11-.33-3l1.59-.13.23,1.89h.08a3,3,0,0,1,2.58-2.38,2.07,2.07,0,0,1,.52,0l.18,1.65a2.94,2.94,0,0,0-.63,0,2.57,2.57,0,0,0-2.25,2.49,4.69,4.69,0,0,0,0,.82l.47,5.14-1.9.16Z" transform="translate(-7.25 -16.08)"/><path class="cls-2" d="M233.46,331.48c.34,2.36,2.1,3.13,4,2.85a7.15,7.15,0,0,0,2.81-.93l.52,1.19a8.86,8.86,0,0,1-3.4,1.13c-3.24.46-5.41-1.28-5.74-4.18s1.18-5.37,4.08-5.78c3.25-.46,4.56,2.11,4.85,3.87a6.35,6.35,0,0,1,.07.82C237.79,330.91,236.35,331.12,233.46,331.48Zm5.27-2a2.57,2.57,0,0,0-3-2.45,3,3,0,0,0-2.44,3.21C235.49,330,236.57,329.8,238.73,329.47Z" transform="translate(-7.25 -16.08)"/><path class="cls-2" d="M249.6,333.35l-.4-1.16h-.06a4,4,0,0,1-2.9,2.05c-2.12.41-3.44-.77-3.68-2.15-.4-2.31,1.56-3.92,5.45-4.71l0-.2a2.05,2.05,0,0,0-2.72-1.73,5.39,5.39,0,0,0-2.47,1.2l-.62-1.07a6.69,6.69,0,0,1,3.1-1.46c3-.6,4.19,1.19,4.6,3.08l.78,3.54a12.34,12.34,0,0,0,.67,2.23Zm-1.3-4.78c-2,.38-4.25,1.15-3.91,3a1.62,1.62,0,0,0,2.09,1.31,2.59,2.59,0,0,0,2.17-2.09,1.7,1.7,0,0,0,0-.57Z" transform="translate(-7.25 -16.08)"/><path class="cls-2" d="M254.79,326.77h0c.17-.39.42-.89.62-1.29.84-1.59,1.25-2.39,2-4l2.14-.6c-1.07,2-1.62,2.94-2.76,4.89,2.34,1.74,3.54,2.59,6,4.26l-2.27.65c-1.92-1.4-2.86-2.11-4.71-3.55l-.69,1.21.88,3.53-1.86.46-3.3-13.81,1.72-.42Z" transform="translate(-7.25 -16.08)"/><path class="cls-2" d="M195.93,359.95c-2-.38-3-.6-5-1.1-.53,1.25-.8,1.87-1.34,3.11a9.14,9.14,0,0,1,1.13.2,7.07,7.07,0,0,1,2.82,1.35,3.8,3.8,0,0,1,1.39,3.67c-.46,2.5-3.16,4-6.43,3.16a8,8,0,0,1-3.51-1.77l.87-1.14a7.19,7.19,0,0,0,3,1.53c1.89.47,3.75-.27,4.09-2s-.65-3-3.43-3.75c-.79-.2-1.43-.29-2-.38,1-2.3,1.53-3.46,2.51-5.78,2.46.66,3.71.94,6.2,1.41Z" transform="translate(-7.25 -16.08)"/><path class="cls-2" d="M203,365.43c.09-1,.14-1.81.15-2.62l1.63.13c0,.62,0,.94,0,1.56h.06a3.74,3.74,0,0,1,3.33-1.61,3.14,3.14,0,0,1,2.9,2h0a4.29,4.29,0,0,1,1.15-1.27,3.81,3.81,0,0,1,2.25-.75c1.35-.06,3.42.63,3.7,4l.47,5.68-2,.15-.34-5.47c-.11-1.86-.91-2.92-2.43-2.87a2.5,2.5,0,0,0-2.22,1.65,2.68,2.68,0,0,0-.15.88c0,2.39,0,3.59,0,6h-2l.09-5.8c0-1.54-.69-2.66-2.13-2.72a2.63,2.63,0,0,0-2.46,1.63,2.25,2.25,0,0,0-.21.85l-.41,5.83-2-.16Z" transform="translate(-7.25 -16.08)"/><path class="cls-2" d="M222.56,359.61a1.12,1.12,0,0,1-2.22.29,1.09,1.09,0,0,1,1-1.23A1.07,1.07,0,0,1,222.56,359.61ZM222,372.19l-1.15-9.61,1.85-.24,1.36,9.59Z" transform="translate(-7.25 -16.08)"/><path class="cls-2" d="M226.26,364.42c-.18-1-.34-1.79-.55-2.56l1.63-.31.42,1.55h0a4,4,0,0,1,3-2.52c1.38-.34,3.74-.17,4.67,3l1.61,5.55-2,.56-1.44-5.39c-.4-1.51-1.34-2.59-3.09-2.17a2.76,2.76,0,0,0-2.13,2.31,2.33,2.33,0,0,0,0,.83l1.16,5.7-2.05.39Z" transform="translate(-7.25 -16.08)"/><text class="cls-8" transform="translate(25.66 126.4) rotate(-94.23)">F</text><text class="cls-8" transform="matrix(0.06, -1, 1, 0.06, 24.93, 118.18)">o</text><text class="cls-8" transform="translate(25.53 108.27) rotate(-77.17)">c</text><text class="cls-8" transform="matrix(0.42, -0.91, 0.91, 0.42, 27.09, 100.51)">u</text><text class="cls-8" transform="translate(31.22 91.69) rotate(-51.63)">s</text><text class="cls-8" transform="translate(35.29 86.23) rotate(-37.83)">e</text><text class="cls-8" transform="translate(42.12 80.75) rotate(-22.73)">d</text><text class="cls-8" transform="translate(365.03 79.88) rotate(27.73)">F</text><text class="cls-8" transform="matrix(0.77, 0.64, -0.64, 0.77, 372.23, 83.48)">o</text><text class="cls-8" transform="matrix(0.62, 0.78, -0.78, 0.62, 379.76, 89.77)">c</text><text class="cls-8" transform="translate(384.82 95.86) rotate(62.85)">u</text><text class="cls-8" transform="translate(389.26 104.73) rotate(72.89)">s</text><text class="cls-8" transform="translate(391.43 111.46) rotate(81.27)">e</text><text class="cls-8" transform="translate(392.85 120.43) rotate(89.63)">d</text><text class="cls-8" transform="translate(48.59 291.73) rotate(51.53)">F</text><text class="cls-8" transform="matrix(0.7, 0.72, -0.72, 0.7, 54.48, 299.16)">o</text><text class="cls-8" transform="translate(62.36 307.2) rotate(40.07)">c</text><text class="cls-8" transform="translate(69.59 313.29) rotate(33.46)">u</text><text class="cls-8" transform="translate(79.25 319.5) rotate(26.34)">s</text><text class="cls-8" transform="translate(86.99 323.34) rotate(18.78)">e</text><text class="cls-8" transform="translate(97.36 326.8) rotate(9.07)">d</text><text class="cls-8" transform="translate(309.08 329.39) rotate(-15.27)">F</text><text class="cls-8" transform="translate(318.22 326.9) rotate(-20.83)">o</text><text class="cls-8" transform="translate(328.72 322.82) rotate(-26.73)">c</text><text class="cls-8" transform="translate(337.17 318.58) rotate(-33.34)">u</text><text class="cls-8" transform="matrix(0.76, -0.65, 0.65, 0.76, 346.68, 312.15)">s</text><text class="cls-8" transform="matrix(0.67, -0.74, 0.74, 0.67, 353.26, 306.54)">e</text><text class="cls-8" transform="matrix(0.53, -0.85, 0.85, 0.53, 360.52, 298.38)">d</text></g></svg>