<svg xmlns="http://www.w3.org/2000/svg" xmlns:xlink="http://www.w3.org/1999/xlink" viewBox="0 0 387.4 329.31"><defs><style>.cls-1,.cls-12,.cls-4,.cls-5,.cls-6,.cls-7,.cls-8,.cls-9{fill:none;}.cls-2{fill:#029d41;}.cls-3{clip-path:url(#clip-path);}.cls-4{stroke:#028537;stroke-width:1.64px;}.cls-12,.cls-4,.cls-5,.cls-6,.cls-7,.cls-8,.cls-9{stroke-miterlimit:10;}.cls-5,.cls-9{stroke:#029d41;}.cls-12,.cls-5,.cls-6,.cls-7,.cls-8,.cls-9{stroke-linecap:round;}.cls-5,.cls-6,.cls-7{stroke-width:2px;}.cls-5,.cls-6{stroke-dasharray:8.96;}.cls-6,.cls-8{stroke:#fe3737;}.cls-7{stroke:#f6eeca;}.cls-8,.cls-9{stroke-width:4px;}.cls-10{font-size:46.1px;fill:#ffc61a;font-family:MyriadPro-Regular, Myriad Pro;}.cls-11{fill:#fec2a0;}.cls-12{stroke:#303134;stroke-width:1.21px;}.cls-13{fill:#303134;}.cls-14{fill:#fff;}.cls-15{clip-path:url(#clip-path-2);}</style><clipPath id="clip-path" transform="translate(-18.04 -31.14)"><path class="cls-1" d="M144.23,128.9c-8.08,1.91-49.35,1.91-52.37.18-14.08-4.1-21.89-17-16-26.15,8-12.57-11.45-27.21,10.26-32.12,19.81-4.49,19.85-24.58,43.61-8.32,16.3,11.16,26.59,3.8,30.87,18.14S150,95.56,155.48,104C161.32,113,155.65,124.82,144.23,128.9Z"/></clipPath><clipPath id="clip-path-2" transform="translate(-18.04 -31.14)"><path class="cls-1" d="M325.31,308.81c-8.08,1.91-49.35,1.91-52.37.18-14.08-4.1-21.89-17-16-26.15,8-12.57-11.45-27.21,10.26-32.12,19.81-4.49,19.85-24.58,43.61-8.32,16.3,11.16,26.59,3.8,30.87,18.14s-10.55,14.93-5.07,23.36C342.39,292.87,336.73,304.73,325.31,308.81Z"/></clipPath></defs><title>Leverages the psychology of motivation_dark_mode</title><g id="Слой_2" data-name="Слой 2"><path class="cls-2" d="M144.23,128.9c-8.08,1.91-49.35,1.91-52.37.18-12.45,5.15-21.89-17-16-26.15,8-12.57-11.45-27.21,10.26-32.12,19.81-4.49,19.85-24.58,43.61-8.32,16.3,11.16,26.59,3.8,30.87,18.14S150,95.56,155.48,104C161.32,113,155.65,124.82,144.23,128.9Z" transform="translate(-18.04 -31.14)"/><g class="cls-3"><path class="cls-4" d="M108.72,95.52S89.54,83.69,95.37,58" transform="translate(-18.04 -31.14)"/><path class="cls-4" d="M115,97.85c.25-.75,21-25.5,5.5-47.25" transform="translate(-18.04 -31.14)"/><path class="cls-4" d="M122.18,97.85c.85.5,28.85-26.5,17.6-48.5" transform="translate(-18.04 -31.14)"/></g><line class="cls-5" x1="229.46" y1="110.91" x2="229.46" y2="162.03"/><line class="cls-5" x1="287.18" y1="93.84" x2="287.18" y2="162.03"/><line class="cls-5" x1="344.9" y1="89.04" x2="344.9" y2="162.03"/><line class="cls-6" x1="15.5" y1="165.11" x2="15.5" y2="302.7"/><line class="cls-6" x1="73.22" y1="165.11" x2="73.22" y2="290.43"/><line class="cls-6" x1="130.94" y1="165.11" x2="130.94" y2="254.06"/><line class="cls-7" x1="183.13" y1="3.72" x2="183.13" y2="328.31"/><line class="cls-7" x1="356.5" y1="165.87" x2="1" y2="165.87"/><path class="cls-8" d="M201.17,199.41C201.17,239.85,133,333.9,32,333.85" transform="translate(-18.04 -31.14)"/><path class="cls-9" d="M362.94,120.18c-74.79,0-161.77,24.25-161.77,79.23" transform="translate(-18.04 -31.14)"/><text class="cls-10" transform="translate(363.75 178.72)">$</text><path class="cls-11" d="M142.89,107.88a60.31,60.31,0,0,1-2.39-12.43c-1.25-12.73-10.25-3.18-22.1-3.18s-22.12-9.78-23.06,3.16a58.66,58.66,0,0,1-2.72,14.35C86.13,129.17,97.26,154,118.13,154,139.78,154,149.47,128.54,142.89,107.88Z" transform="translate(-18.04 -31.14)"/><path class="cls-12" d="M124.74,106.24s5.79-3.7,9.88,1.69" transform="translate(-18.04 -31.14)"/><path class="cls-12" d="M110.6,106.24s-5.79-3.7-9.88,1.69" transform="translate(-18.04 -31.14)"/><ellipse class="cls-13" cx="87.85" cy="83.71" rx="2.83" ry="4.88"/><ellipse class="cls-13" cx="111.64" cy="83.75" rx="2.83" ry="4.88"/><path class="cls-14" d="M105.88,133.73h25s-3.25,10.51-12.51,10.51S105.88,133.73,105.88,133.73Z" transform="translate(-18.04 -31.14)"/><path class="cls-11" d="M92.55,111s-5.26-5-8.06.89S89.82,132,92.55,132,92.55,111,92.55,111Z" transform="translate(-18.04 -31.14)"/><path class="cls-11" d="M143.77,111s5.26-5,8.06.89S146.5,132,143.77,132,143.77,111,143.77,111Z" transform="translate(-18.04 -31.14)"/><path class="cls-12" d="M120.29,116s1.59,2.74,1.44,9.75-6.57,2.63-6.57,2.63" transform="translate(-18.04 -31.14)"/><path class="cls-2" d="M325.31,308.81c-8.08,1.91-49.35,1.91-52.37.18-12.45,5.15-21.89-17-16-26.15,8-12.57-11.45-27.21,10.26-32.12,19.81-4.49,19.85-24.58,43.61-8.32,16.3,11.16,26.59,3.8,30.87,18.14s-10.55,14.93-5.07,23.36C342.39,292.87,336.73,304.73,325.31,308.81Z" transform="translate(-18.04 -31.14)"/><g class="cls-15"><path class="cls-4" d="M289.8,275.43s-19.18-11.83-13.35-37.5" transform="translate(-18.04 -31.14)"/><path class="cls-4" d="M296.11,277.76c.25-.75,21-25.5,5.5-47.25" transform="translate(-18.04 -31.14)"/><path class="cls-4" d="M303.26,277.76c.85.5,28.85-26.5,17.6-48.5" transform="translate(-18.04 -31.14)"/></g><path class="cls-11" d="M324,287.79a60.31,60.31,0,0,1-2.39-12.43c-1.25-12.73-10.25-3.18-22.1-3.18s-22.12-9.78-23.06,3.16a58.66,58.66,0,0,1-2.72,14.35c-6.48,19.4,4.64,44.26,25.51,44.26C320.86,333.93,330.55,308.45,324,287.79Z" transform="translate(-18.04 -31.14)"/><path class="cls-12" d="M305.81,286.15s5.79-3.7,9.88,1.69" transform="translate(-18.04 -31.14)"/><path class="cls-12" d="M291,281.85a14.9,14.9,0,0,0-9.24,6" transform="translate(-18.04 -31.14)"/><ellipse class="cls-13" cx="268.93" cy="263.62" rx="2.83" ry="4.88"/><ellipse class="cls-13" cx="292.72" cy="263.66" rx="2.83" ry="4.88"/><path class="cls-11" d="M273.63,290.88s-5.26-5-8.06.89,5.33,20.1,8.06,20.11S273.63,290.88,273.63,290.88Z" transform="translate(-18.04 -31.14)"/><path class="cls-11" d="M324.84,290.88s5.26-5,8.06.89-5.33,20.1-8.06,20.11S324.84,290.88,324.84,290.88Z" transform="translate(-18.04 -31.14)"/><path class="cls-12" d="M301.36,295.89s1.59,2.74,1.44,9.75-6.57,2.63-6.57,2.63" transform="translate(-18.04 -31.14)"/><path class="cls-12" d="M293.33,323.35s2.57-4.31,7.53-4.31a9.57,9.57,0,0,1,7.53,3.75" transform="translate(-18.04 -31.14)"/><polyline class="cls-7" points="350.82 157.71 358.82 166.02 350.82 174.28"/><polyline class="cls-7" points="175.5 11.79 183.13 1.71 190 11.79"/></g></svg>