<svg width="303" height="100" viewBox="0 0 303 100" fill="none" xmlns="http://www.w3.org/2000/svg">
<path d="M7.18799 32.4321H3.30176V30.3916H7.18799C7.86475 30.3916 8.41162 30.2822 8.82861 30.0635C9.24561 29.8447 9.5498 29.5439 9.74121 29.1611C9.93945 28.7715 10.0386 28.3271 10.0386 27.8281C10.0386 27.3564 9.93945 26.9155 9.74121 26.5054C9.5498 26.0884 9.24561 25.7534 8.82861 25.5005C8.41162 25.2476 7.86475 25.1211 7.18799 25.1211H4.09131V38H1.51758V23.0703H7.18799C8.34326 23.0703 9.32422 23.2754 10.1309 23.6855C10.9443 24.0889 11.563 24.6494 11.9868 25.3672C12.4106 26.0781 12.6226 26.8916 12.6226 27.8076C12.6226 28.7715 12.4106 29.5986 11.9868 30.2891C11.563 30.9795 10.9443 31.5093 10.1309 31.8784C9.32422 32.2476 8.34326 32.4321 7.18799 32.4321ZM16.934 29.0176V38H14.4628V26.9053H16.8212L16.934 29.0176ZM20.3281 26.8335L20.3076 29.1304C20.1572 29.103 19.9931 29.0825 19.8154 29.0688C19.6445 29.0552 19.4736 29.0483 19.3027 29.0483C18.8789 29.0483 18.5063 29.1099 18.185 29.2329C17.8637 29.3491 17.5937 29.52 17.375 29.7456C17.163 29.9644 16.999 30.231 16.8828 30.5454C16.7666 30.8599 16.6982 31.2119 16.6777 31.6016L16.1137 31.6426C16.1137 30.9453 16.1821 30.2993 16.3188 29.7046C16.4555 29.1099 16.6606 28.5869 16.934 28.1357C17.2143 27.6846 17.5629 27.3325 17.9799 27.0796C18.4038 26.8267 18.8925 26.7002 19.4462 26.7002C19.5966 26.7002 19.7573 26.7139 19.9282 26.7412C20.1059 26.7686 20.2392 26.7993 20.3281 26.8335ZM20.9071 32.5757V32.3398C20.9071 31.54 21.0234 30.7983 21.2558 30.1147C21.4882 29.4243 21.8232 28.8262 22.2607 28.3203C22.705 27.8076 23.245 27.4111 23.8808 27.1309C24.5234 26.8438 25.248 26.7002 26.0546 26.7002C26.8681 26.7002 27.5927 26.8438 28.2284 27.1309C28.871 27.4111 29.4145 27.8076 29.8588 28.3203C30.3031 28.8262 30.6415 29.4243 30.8739 30.1147C31.1064 30.7983 31.2226 31.54 31.2226 32.3398V32.5757C31.2226 33.3755 31.1064 34.1172 30.8739 34.8008C30.6415 35.4844 30.3031 36.0825 29.8588 36.5952C29.4145 37.1011 28.8744 37.4976 28.2387 37.7847C27.6029 38.0649 26.8818 38.2051 26.0751 38.2051C25.2616 38.2051 24.5336 38.0649 23.891 37.7847C23.2553 37.4976 22.7152 37.1011 22.2709 36.5952C21.8266 36.0825 21.4882 35.4844 21.2558 34.8008C21.0234 34.1172 20.9071 33.3755 20.9071 32.5757ZM23.3783 32.3398V32.5757C23.3783 33.0747 23.4296 33.5464 23.5321 33.9907C23.6347 34.4351 23.7953 34.8247 24.0141 35.1597C24.2328 35.4946 24.5131 35.7578 24.8549 35.9492C25.1967 36.1406 25.6034 36.2363 26.0751 36.2363C26.5331 36.2363 26.9296 36.1406 27.2646 35.9492C27.6064 35.7578 27.8866 35.4946 28.1054 35.1597C28.3241 34.8247 28.4848 34.4351 28.5873 33.9907C28.6967 33.5464 28.7514 33.0747 28.7514 32.5757V32.3398C28.7514 31.8477 28.6967 31.3828 28.5873 30.9453C28.4848 30.501 28.3207 30.1079 28.0951 29.7661C27.8764 29.4243 27.5961 29.1577 27.2543 28.9663C26.9193 28.7681 26.5194 28.6689 26.0546 28.6689C25.5898 28.6689 25.1864 28.7681 24.8446 28.9663C24.5097 29.1577 24.2328 29.4243 24.0141 29.7661C23.7953 30.1079 23.6347 30.501 23.5321 30.9453C23.4296 31.3828 23.3783 31.8477 23.3783 32.3398ZM39.287 34.9956C39.287 34.7495 39.2255 34.5273 39.1024 34.3291C38.9794 34.124 38.7435 33.9395 38.3949 33.7754C38.0531 33.6113 37.5472 33.4609 36.8773 33.3242C36.2894 33.1943 35.7494 33.0405 35.2572 32.8628C34.7718 32.6782 34.3549 32.4561 34.0062 32.1963C33.6576 31.9365 33.3876 31.6289 33.1962 31.2734C33.0048 30.918 32.909 30.5078 32.909 30.043C32.909 29.5918 33.0082 29.1646 33.2064 28.7612C33.4047 28.3579 33.6883 28.0024 34.0575 27.6948C34.4266 27.3872 34.8744 27.1445 35.4007 26.9668C35.934 26.7891 36.5287 26.7002 37.1849 26.7002C38.1146 26.7002 38.911 26.8574 39.5741 27.1719C40.244 27.4795 40.7567 27.8999 41.1122 28.4331C41.4676 28.9595 41.6454 29.5542 41.6454 30.2173H39.1742C39.1742 29.9233 39.099 29.6499 38.9486 29.397C38.805 29.1372 38.5863 28.9287 38.2924 28.7715C37.9984 28.6074 37.6293 28.5254 37.1849 28.5254C36.7611 28.5254 36.409 28.5938 36.1288 28.7305C35.8553 28.8604 35.6503 29.0312 35.5135 29.2432C35.3837 29.4551 35.3187 29.6875 35.3187 29.9404C35.3187 30.125 35.3529 30.2925 35.4213 30.4429C35.4965 30.5864 35.6195 30.7197 35.7904 30.8428C35.9613 30.959 36.1937 31.0684 36.4877 31.1709C36.7884 31.2734 37.1644 31.3726 37.6156 31.4683C38.4632 31.646 39.1913 31.875 39.7997 32.1553C40.4149 32.4287 40.8866 32.7842 41.2147 33.2217C41.5428 33.6523 41.7069 34.1992 41.7069 34.8623C41.7069 35.3545 41.6009 35.8057 41.389 36.2158C41.184 36.6191 40.8832 36.9712 40.4867 37.272C40.0902 37.5659 39.6151 37.7949 39.0614 37.959C38.5145 38.123 37.8993 38.2051 37.2157 38.2051C36.2108 38.2051 35.3597 38.0273 34.6625 37.6719C33.9652 37.3096 33.4354 36.8481 33.0731 36.2876C32.7176 35.7202 32.5399 35.1323 32.5399 34.5239H34.9291C34.9564 34.9819 35.0829 35.3477 35.3085 35.6211C35.5409 35.8877 35.828 36.0825 36.1698 36.2056C36.5184 36.3218 36.8773 36.3799 37.2465 36.3799C37.6908 36.3799 38.0633 36.3218 38.3641 36.2056C38.6649 36.0825 38.8939 35.9185 39.0511 35.7134C39.2084 35.5015 39.287 35.2622 39.287 34.9956ZM46.1209 29.0381V42.2656H43.6497V26.9053H45.9261L46.1209 29.0381ZM53.3499 32.3501V32.5654C53.3499 33.3721 53.2542 34.1206 53.0628 34.811C52.8782 35.4946 52.6014 36.0928 52.2323 36.6055C51.8699 37.1113 51.4222 37.5044 50.889 37.7847C50.3558 38.0649 49.7406 38.2051 49.0433 38.2051C48.3529 38.2051 47.7479 38.0786 47.2283 37.8257C46.7156 37.5659 46.2816 37.2002 45.9261 36.7285C45.5706 36.2568 45.2835 35.7031 45.0648 35.0674C44.8529 34.4248 44.7025 33.7207 44.6136 32.9551V32.1245C44.7025 31.311 44.8529 30.5728 45.0648 29.9097C45.2835 29.2466 45.5706 28.6758 45.9261 28.1973C46.2816 27.7188 46.7156 27.3496 47.2283 27.0898C47.741 26.8301 48.3392 26.7002 49.0228 26.7002C49.72 26.7002 50.3387 26.8369 50.8787 27.1104C51.4188 27.377 51.8734 27.7598 52.2425 28.2588C52.6116 28.751 52.8885 29.3457 53.0731 30.043C53.2576 30.7334 53.3499 31.5024 53.3499 32.3501ZM50.8787 32.5654V32.3501C50.8787 31.8374 50.8309 31.3623 50.7352 30.9248C50.6395 30.4805 50.4891 30.0908 50.284 29.7559C50.0789 29.4209 49.8157 29.1611 49.4945 28.9766C49.18 28.7852 48.8006 28.6895 48.3563 28.6895C47.9188 28.6895 47.5428 28.7646 47.2283 28.915C46.9139 29.0586 46.6507 29.2603 46.4388 29.52C46.2269 29.7798 46.0628 30.084 45.9466 30.4326C45.8304 30.7744 45.7484 31.147 45.7005 31.5503V33.5396C45.7825 34.0317 45.9227 34.4829 46.1209 34.8931C46.3192 35.3032 46.5994 35.6313 46.9617 35.8774C47.3309 36.1167 47.8026 36.2363 48.3768 36.2363C48.8211 36.2363 49.2005 36.1406 49.515 35.9492C49.8294 35.7578 50.0858 35.4946 50.284 35.1597C50.4891 34.8179 50.6395 34.4248 50.7352 33.9805C50.8309 33.5361 50.8787 33.0645 50.8787 32.5654ZM60.1121 38.2051C59.2918 38.2051 58.5501 38.0718 57.887 37.8052C57.2307 37.5317 56.6702 37.1523 56.2054 36.667C55.7473 36.1816 55.3953 35.6108 55.1492 34.9546C54.9031 34.2983 54.7801 33.5908 54.7801 32.832V32.4219C54.7801 31.5537 54.9065 30.7676 55.1595 30.0635C55.4124 29.3594 55.7644 28.7578 56.2156 28.2588C56.6668 27.7529 57.2 27.3667 57.8152 27.1001C58.4305 26.8335 59.097 26.7002 59.8147 26.7002C60.6077 26.7002 61.3015 26.8335 61.8963 27.1001C62.491 27.3667 62.9832 27.7427 63.3728 28.228C63.7693 28.7065 64.0633 29.2773 64.2547 29.9404C64.4529 30.6035 64.552 31.335 64.552 32.1348V33.1909H55.9798V31.417H62.1116V31.2222C62.0979 30.7778 62.0091 30.3608 61.845 29.9712C61.6878 29.5815 61.4451 29.2671 61.117 29.0278C60.7888 28.7886 60.3513 28.6689 59.8045 28.6689C59.3943 28.6689 59.0286 28.7578 58.7073 28.9355C58.3929 29.1064 58.1297 29.356 57.9178 29.6841C57.7058 30.0122 57.5418 30.4087 57.4256 30.8735C57.3162 31.3315 57.2615 31.8477 57.2615 32.4219V32.832C57.2615 33.3174 57.3264 33.7686 57.4563 34.1855C57.593 34.5957 57.7913 34.9546 58.0511 35.2622C58.3108 35.5698 58.6253 35.8125 58.9944 35.9902C59.3636 36.1611 59.784 36.2466 60.2556 36.2466C60.8504 36.2466 61.3802 36.127 61.845 35.8877C62.3098 35.6484 62.7132 35.3101 63.055 34.8726L64.3572 36.1338C64.118 36.4824 63.8069 36.8174 63.4241 37.1387C63.0413 37.4531 62.573 37.7095 62.0193 37.9077C61.4724 38.106 60.8367 38.2051 60.1121 38.2051ZM70.781 36.2363C71.1843 36.2363 71.5466 36.1577 71.8679 36.0005C72.196 35.8364 72.4592 35.6108 72.6575 35.3237C72.8625 35.0366 72.9753 34.7051 72.9958 34.3291H75.3235C75.3098 35.0469 75.0979 35.6997 74.6877 36.2876C74.2776 36.8755 73.7341 37.3438 73.0574 37.6924C72.3806 38.0342 71.6321 38.2051 70.8118 38.2051C69.9641 38.2051 69.2258 38.0615 68.5969 37.7744C67.968 37.4805 67.4451 37.0771 67.0281 36.5645C66.6111 36.0518 66.2966 35.4604 66.0847 34.7905C65.8796 34.1206 65.7771 33.4028 65.7771 32.6372V32.2783C65.7771 31.5127 65.8796 30.7949 66.0847 30.125C66.2966 29.4482 66.6111 28.8535 67.0281 28.3408C67.4451 27.8281 67.968 27.4282 68.5969 27.1411C69.2258 26.8472 69.9607 26.7002 70.8015 26.7002C71.6902 26.7002 72.4695 26.8779 73.1394 27.2334C73.8093 27.582 74.3357 28.0708 74.7185 28.6997C75.1081 29.3218 75.3098 30.0464 75.3235 30.8735H72.9958C72.9753 30.4634 72.8728 30.0942 72.6882 29.7661C72.5105 29.4312 72.2576 29.1646 71.9294 28.9663C71.6081 28.7681 71.2219 28.6689 70.7707 28.6689C70.2717 28.6689 69.8581 28.7715 69.53 28.9766C69.2019 29.1748 68.9455 29.4482 68.761 29.7969C68.5764 30.1387 68.4431 30.5249 68.3611 30.9556C68.2859 31.3794 68.2483 31.8203 68.2483 32.2783V32.6372C68.2483 33.0952 68.2859 33.5396 68.3611 33.9702C68.4363 34.4009 68.5661 34.7871 68.7507 35.1289C68.9421 35.4639 69.2019 35.7339 69.53 35.939C69.8581 36.1372 70.2751 36.2363 70.781 36.2363ZM82.0754 26.9053V28.71H75.8205V26.9053H82.0754ZM77.6252 24.188H80.0964V34.9341C80.0964 35.2759 80.1442 35.5391 80.2399 35.7236C80.3425 35.9014 80.4826 36.021 80.6603 36.0825C80.8381 36.144 81.0466 36.1748 81.2858 36.1748C81.4567 36.1748 81.6208 36.1646 81.778 36.144C81.9352 36.1235 82.0617 36.103 82.1574 36.0825L82.1677 37.9692C81.9626 38.0308 81.7233 38.0854 81.4499 38.1333C81.1833 38.1812 80.8757 38.2051 80.527 38.2051C79.9597 38.2051 79.4572 38.106 79.0197 37.9077C78.5822 37.7026 78.2404 37.3711 77.9943 36.9131C77.7482 36.4551 77.6252 35.8467 77.6252 35.0879V24.188ZM94.6461 23.0703V38H92.0929V23.0703H94.6461ZM99.3321 23.0703V25.1211H87.4479V23.0703H99.3321ZM103.264 22.25V38H100.803V22.25H103.264ZM102.834 32.0425L102.034 32.0322C102.041 31.2666 102.147 30.5591 102.352 29.9097C102.564 29.2603 102.857 28.6963 103.233 28.2178C103.616 27.7324 104.074 27.3599 104.607 27.1001C105.141 26.8335 105.732 26.7002 106.381 26.7002C106.928 26.7002 107.42 26.7754 107.858 26.9258C108.302 27.0762 108.685 27.3188 109.006 27.6538C109.328 27.9819 109.57 28.4126 109.734 28.9458C109.905 29.4722 109.991 30.1147 109.991 30.8735V38H107.509V30.853C107.509 30.3198 107.431 29.896 107.273 29.5815C107.123 29.2671 106.901 29.0415 106.607 28.9048C106.313 28.7612 105.954 28.6895 105.53 28.6895C105.086 28.6895 104.693 28.7783 104.351 28.9561C104.016 29.1338 103.736 29.3765 103.51 29.6841C103.285 29.9917 103.114 30.3472 102.998 30.7505C102.888 31.1538 102.834 31.5845 102.834 32.0425ZM117.153 38.2051C116.333 38.2051 115.591 38.0718 114.928 37.8052C114.271 37.5317 113.711 37.1523 113.246 36.667C112.788 36.1816 112.436 35.6108 112.19 34.9546C111.944 34.2983 111.821 33.5908 111.821 32.832V32.4219C111.821 31.5537 111.947 30.7676 112.2 30.0635C112.453 29.3594 112.805 28.7578 113.256 28.2588C113.708 27.7529 114.241 27.3667 114.856 27.1001C115.471 26.8335 116.138 26.7002 116.855 26.7002C117.648 26.7002 118.342 26.8335 118.937 27.1001C119.532 27.3667 120.024 27.7427 120.414 28.228C120.81 28.7065 121.104 29.2773 121.295 29.9404C121.494 30.6035 121.593 31.335 121.593 32.1348V33.1909H113.021V31.417H119.152V31.2222C119.139 30.7778 119.05 30.3608 118.886 29.9712C118.729 29.5815 118.486 29.2671 118.158 29.0278C117.83 28.7886 117.392 28.6689 116.845 28.6689C116.435 28.6689 116.069 28.7578 115.748 28.9355C115.434 29.1064 115.17 29.356 114.959 29.6841C114.747 30.0122 114.583 30.4087 114.466 30.8735C114.357 31.3315 114.302 31.8477 114.302 32.4219V32.832C114.302 33.3174 114.367 33.7686 114.497 34.1855C114.634 34.5957 114.832 34.9546 115.092 35.2622C115.352 35.5698 115.666 35.8125 116.035 35.9902C116.404 36.1611 116.825 36.2466 117.296 36.2466C117.891 36.2466 118.421 36.127 118.886 35.8877C119.351 35.6484 119.754 35.3101 120.096 34.8726L121.398 36.1338C121.159 36.4824 120.848 36.8174 120.465 37.1387C120.082 37.4531 119.614 37.7095 119.06 37.9077C118.513 38.106 117.877 38.2051 117.153 38.2051ZM122.818 32.5757V32.3398C122.818 31.54 122.934 30.7983 123.166 30.1147C123.399 29.4243 123.734 28.8262 124.171 28.3203C124.616 27.8076 125.156 27.4111 125.791 27.1309C126.434 26.8438 127.159 26.7002 127.965 26.7002C128.779 26.7002 129.503 26.8438 130.139 27.1309C130.782 27.4111 131.325 27.8076 131.77 28.3203C132.214 28.8262 132.552 29.4243 132.785 30.1147C133.017 30.7983 133.133 31.54 133.133 32.3398V32.5757C133.133 33.3755 133.017 34.1172 132.785 34.8008C132.552 35.4844 132.214 36.0825 131.77 36.5952C131.325 37.1011 130.785 37.4976 130.149 37.7847C129.514 38.0649 128.792 38.2051 127.986 38.2051C127.172 38.2051 126.444 38.0649 125.802 37.7847C125.166 37.4976 124.626 37.1011 124.182 36.5952C123.737 36.0825 123.399 35.4844 123.166 34.8008C122.934 34.1172 122.818 33.3755 122.818 32.5757ZM125.289 32.3398V32.5757C125.289 33.0747 125.34 33.5464 125.443 33.9907C125.545 34.4351 125.706 34.8247 125.925 35.1597C126.144 35.4946 126.424 35.7578 126.766 35.9492C127.107 36.1406 127.514 36.2363 127.986 36.2363C128.444 36.2363 128.84 36.1406 129.175 35.9492C129.517 35.7578 129.797 35.4946 130.016 35.1597C130.235 34.8247 130.395 34.4351 130.498 33.9907C130.607 33.5464 130.662 33.0747 130.662 32.5757V32.3398C130.662 31.8477 130.607 31.3828 130.498 30.9453C130.395 30.501 130.231 30.1079 130.006 29.7661C129.787 29.4243 129.507 29.1577 129.165 28.9663C128.83 28.7681 128.43 28.6689 127.965 28.6689C127.5 28.6689 127.097 28.7681 126.755 28.9663C126.42 29.1577 126.144 29.4243 125.925 29.7661C125.706 30.1079 125.545 30.501 125.443 30.9453C125.34 31.3828 125.289 31.8477 125.289 32.3398ZM137.455 29.0176V38H134.984V26.9053H137.342L137.455 29.0176ZM140.849 26.8335L140.829 29.1304C140.678 29.103 140.514 29.0825 140.336 29.0688C140.165 29.0552 139.995 29.0483 139.824 29.0483C139.4 29.0483 139.027 29.1099 138.706 29.2329C138.385 29.3491 138.115 29.52 137.896 29.7456C137.684 29.9644 137.52 30.231 137.404 30.5454C137.288 30.8599 137.219 31.2119 137.199 31.6016L136.635 31.6426C136.635 30.9453 136.703 30.2993 136.84 29.7046C136.976 29.1099 137.182 28.5869 137.455 28.1357C137.735 27.6846 138.084 27.3325 138.501 27.0796C138.925 26.8267 139.413 26.7002 139.967 26.7002C140.118 26.7002 140.278 26.7139 140.449 26.7412C140.627 26.7686 140.76 26.7993 140.849 26.8335ZM145.571 36.79L148.585 26.9053H151.231L146.781 39.6919C146.678 39.9653 146.545 40.2627 146.381 40.584C146.217 40.9053 146.001 41.2095 145.735 41.4966C145.475 41.7905 145.15 42.0264 144.761 42.2041C144.371 42.3887 143.899 42.481 143.346 42.481C143.127 42.481 142.915 42.4604 142.71 42.4194C142.512 42.3853 142.324 42.3477 142.146 42.3066L142.136 40.4199C142.204 40.4268 142.286 40.4336 142.382 40.4404C142.484 40.4473 142.566 40.4507 142.628 40.4507C143.038 40.4507 143.38 40.3994 143.653 40.2969C143.927 40.2012 144.149 40.0439 144.32 39.8252C144.497 39.6064 144.648 39.3125 144.771 38.9434L145.571 36.79ZM143.869 26.9053L146.504 35.2109L146.945 37.8154L145.232 38.2563L141.203 26.9053H143.869ZM10.8691 67.9595V70H3.37354V67.9595H10.8691ZM4.09131 55.0703V70H1.51758V55.0703H4.09131ZM11.9096 64.5757V64.3398C11.9096 63.54 12.0258 62.7983 12.2583 62.1147C12.4907 61.4243 12.8256 60.8262 13.2631 60.3203C13.7075 59.8076 14.2475 59.4111 14.8833 59.1309C15.5258 58.8438 16.2504 58.7002 17.0571 58.7002C17.8706 58.7002 18.5952 58.8438 19.2309 59.1309C19.8735 59.4111 20.4169 59.8076 20.8613 60.3203C21.3056 60.8262 21.644 61.4243 21.8764 62.1147C22.1088 62.7983 22.2251 63.54 22.2251 64.3398V64.5757C22.2251 65.3755 22.1088 66.1172 21.8764 66.8008C21.644 67.4844 21.3056 68.0825 20.8613 68.5952C20.4169 69.1011 19.8769 69.4976 19.2412 69.7847C18.6054 70.0649 17.8842 70.2051 17.0776 70.2051C16.2641 70.2051 15.5361 70.0649 14.8935 69.7847C14.2578 69.4976 13.7177 69.1011 13.2734 68.5952C12.8291 68.0825 12.4907 67.4844 12.2583 66.8008C12.0258 66.1172 11.9096 65.3755 11.9096 64.5757ZM14.3808 64.3398V64.5757C14.3808 65.0747 14.4321 65.5464 14.5346 65.9907C14.6372 66.4351 14.7978 66.8247 15.0166 67.1597C15.2353 67.4946 15.5156 67.7578 15.8574 67.9492C16.1992 68.1406 16.6059 68.2363 17.0776 68.2363C17.5356 68.2363 17.9321 68.1406 18.267 67.9492C18.6088 67.7578 18.8891 67.4946 19.1079 67.1597C19.3266 66.8247 19.4873 66.4351 19.5898 65.9907C19.6992 65.5464 19.7539 65.0747 19.7539 64.5757V64.3398C19.7539 63.8477 19.6992 63.3828 19.5898 62.9453C19.4873 62.501 19.3232 62.1079 19.0976 61.7661C18.8789 61.4243 18.5986 61.1577 18.2568 60.9663C17.9218 60.7681 17.5219 60.6689 17.0571 60.6689C16.5922 60.6689 16.1889 60.7681 15.8471 60.9663C15.5122 61.1577 15.2353 61.4243 15.0166 61.7661C14.7978 62.1079 14.6372 62.501 14.5346 62.9453C14.4321 63.3828 14.3808 63.8477 14.3808 64.3398ZM30.2895 66.9956C30.2895 66.7495 30.2279 66.5273 30.1049 66.3291C29.9818 66.124 29.746 65.9395 29.3974 65.7754C29.0556 65.6113 28.5497 65.4609 27.8798 65.3242C27.2919 65.1943 26.7519 65.0405 26.2597 64.8628C25.7743 64.6782 25.3573 64.4561 25.0087 64.1963C24.6601 63.9365 24.3901 63.6289 24.1986 63.2734C24.0072 62.918 23.9115 62.5078 23.9115 62.043C23.9115 61.5918 24.0107 61.1646 24.2089 60.7612C24.4071 60.3579 24.6908 60.0024 25.06 59.6948C25.4291 59.3872 25.8769 59.1445 26.4032 58.9668C26.9364 58.7891 27.5312 58.7002 28.1874 58.7002C29.1171 58.7002 29.9135 58.8574 30.5766 59.1719C31.2465 59.4795 31.7592 59.8999 32.1147 60.4331C32.4701 60.9595 32.6479 61.5542 32.6479 62.2173H30.1767C30.1767 61.9233 30.1015 61.6499 29.9511 61.397C29.8075 61.1372 29.5888 60.9287 29.2948 60.7715C29.0009 60.6074 28.6318 60.5254 28.1874 60.5254C27.7636 60.5254 27.4115 60.5938 27.1313 60.7305C26.8578 60.8604 26.6527 61.0312 26.516 61.2432C26.3861 61.4551 26.3212 61.6875 26.3212 61.9404C26.3212 62.125 26.3554 62.2925 26.4237 62.4429C26.4989 62.5864 26.622 62.7197 26.7929 62.8428C26.9638 62.959 27.1962 63.0684 27.4901 63.1709C27.7909 63.2734 28.1669 63.3726 28.6181 63.4683C29.4657 63.646 30.1938 63.875 30.8022 64.1553C31.4174 64.4287 31.8891 64.7842 32.2172 65.2217C32.5453 65.6523 32.7094 66.1992 32.7094 66.8623C32.7094 67.3545 32.6034 67.8057 32.3915 68.2158C32.1864 68.6191 31.8857 68.9712 31.4892 69.272C31.0927 69.5659 30.6176 69.7949 30.0639 69.959C29.517 70.123 28.9018 70.2051 28.2182 70.2051C27.2133 70.2051 26.3622 70.0273 25.665 69.6719C24.9677 69.3096 24.4379 68.8481 24.0756 68.2876C23.7201 67.7202 23.5424 67.1323 23.5424 66.5239H25.9316C25.9589 66.9819 26.0854 67.3477 26.3109 67.6211C26.5434 67.8877 26.8305 68.0825 27.1723 68.2056C27.5209 68.3218 27.8798 68.3799 28.2489 68.3799C28.6933 68.3799 29.0658 68.3218 29.3666 68.2056C29.6674 68.0825 29.8964 67.9185 30.0536 67.7134C30.2109 67.5015 30.2895 67.2622 30.2895 66.9956ZM40.8661 66.9956C40.8661 66.7495 40.8046 66.5273 40.6815 66.3291C40.5585 66.124 40.3226 65.9395 39.974 65.7754C39.6322 65.6113 39.1263 65.4609 38.4564 65.3242C37.8685 65.1943 37.3285 65.0405 36.8363 64.8628C36.3509 64.6782 35.934 64.4561 35.5853 64.1963C35.2367 63.9365 34.9667 63.6289 34.7753 63.2734C34.5839 62.918 34.4882 62.5078 34.4882 62.043C34.4882 61.5918 34.5873 61.1646 34.7855 60.7612C34.9838 60.3579 35.2674 60.0024 35.6366 59.6948C36.0057 59.3872 36.4535 59.1445 36.9799 58.9668C37.5131 58.7891 38.1078 58.7002 38.764 58.7002C39.6937 58.7002 40.4901 58.8574 41.1532 59.1719C41.8231 59.4795 42.3358 59.8999 42.6913 60.4331C43.0467 60.9595 43.2245 61.5542 43.2245 62.2173H40.7533C40.7533 61.9233 40.6781 61.6499 40.5277 61.397C40.3841 61.1372 40.1654 60.9287 39.8715 60.7715C39.5775 60.6074 39.2084 60.5254 38.764 60.5254C38.3402 60.5254 37.9882 60.5938 37.7079 60.7305C37.4344 60.8604 37.2294 61.0312 37.0926 61.2432C36.9628 61.4551 36.8978 61.6875 36.8978 61.9404C36.8978 62.125 36.932 62.2925 37.0004 62.4429C37.0756 62.5864 37.1986 62.7197 37.3695 62.8428C37.5404 62.959 37.7728 63.0684 38.0668 63.1709C38.3675 63.2734 38.7435 63.3726 39.1947 63.4683C40.0424 63.646 40.7704 63.875 41.3788 64.1553C41.994 64.4287 42.4657 64.7842 42.7938 65.2217C43.1219 65.6523 43.286 66.1992 43.286 66.8623C43.286 67.3545 43.18 67.8057 42.9681 68.2158C42.7631 68.6191 42.4623 68.9712 42.0658 69.272C41.6693 69.5659 41.1942 69.7949 40.6405 69.959C40.0936 70.123 39.4784 70.2051 38.7948 70.2051C37.7899 70.2051 36.9388 70.0273 36.2416 69.6719C35.5443 69.3096 35.0145 68.8481 34.6522 68.2876C34.2967 67.7202 34.119 67.1323 34.119 66.5239H36.5082C36.5355 66.9819 36.662 67.3477 36.8876 67.6211C37.12 67.8877 37.4071 68.0825 37.7489 68.2056C38.0975 68.3218 38.4564 68.3799 38.8256 68.3799C39.2699 68.3799 39.6424 68.3218 39.9432 68.2056C40.244 68.0825 40.473 67.9185 40.6302 67.7134C40.7875 67.5015 40.8661 67.2622 40.8661 66.9956ZM56.2771 57.0596L51.8167 70H49.1199L54.739 55.0703H56.4617L56.2771 57.0596ZM60.0096 70L55.5388 57.0596L55.344 55.0703H57.0769L62.7166 70H60.0096ZM59.7942 64.4629V66.5034H51.6731V64.4629H59.7942ZM67.0076 68.0415L69.7248 58.9053H72.2883L68.4328 70H66.8332L67.0076 68.0415ZM64.926 58.9053L67.6946 68.0825L67.8279 70H66.2283L62.3523 58.9053H64.926ZM78.3327 70.2051C77.5124 70.2051 76.7707 70.0718 76.1076 69.8052C75.4514 69.5317 74.8908 69.1523 74.426 68.667C73.968 68.1816 73.6159 67.6108 73.3698 66.9546C73.1237 66.2983 73.0007 65.5908 73.0007 64.832V64.4219C73.0007 63.5537 73.1271 62.7676 73.3801 62.0635C73.633 61.3594 73.9851 60.7578 74.4362 60.2588C74.8874 59.7529 75.4206 59.3667 76.0358 59.1001C76.6511 58.8335 77.3176 58.7002 78.0353 58.7002C78.8283 58.7002 79.5222 58.8335 80.1169 59.1001C80.7116 59.3667 81.2038 59.7427 81.5935 60.228C81.9899 60.7065 82.2839 61.2773 82.4753 61.9404C82.6735 62.6035 82.7727 63.335 82.7727 64.1348V65.1909H74.2004V63.417H80.3322V63.2222C80.3186 62.7778 80.2297 62.3608 80.0656 61.9712C79.9084 61.5815 79.6657 61.2671 79.3376 61.0278C79.0095 60.7886 78.572 60.6689 78.0251 60.6689C77.6149 60.6689 77.2492 60.7578 76.9279 60.9355C76.6135 61.1064 76.3503 61.356 76.1384 61.6841C75.9265 62.0122 75.7624 62.4087 75.6462 62.8735C75.5368 63.3315 75.4821 63.8477 75.4821 64.4219V64.832C75.4821 65.3174 75.5471 65.7686 75.6769 66.1855C75.8137 66.5957 76.0119 66.9546 76.2717 67.2622C76.5314 67.5698 76.8459 67.8125 77.215 67.9902C77.5842 68.1611 78.0046 68.2466 78.4763 68.2466C79.071 68.2466 79.6008 68.127 80.0656 67.8877C80.5305 67.6484 80.9338 67.3101 81.2756 66.8726L82.5778 68.1338C82.3386 68.4824 82.0275 68.8174 81.6447 69.1387C81.2619 69.4531 80.7936 69.7095 80.2399 69.9077C79.6931 70.106 79.0573 70.2051 78.3327 70.2051ZM86.9508 61.0176V70H84.4796V58.9053H86.838L86.9508 61.0176ZM90.3449 58.8335L90.3244 61.1304C90.174 61.103 90.0099 61.0825 89.8322 61.0688C89.6613 61.0552 89.4904 61.0483 89.3195 61.0483C88.8957 61.0483 88.5231 61.1099 88.2018 61.2329C87.8805 61.3491 87.6105 61.52 87.3917 61.7456C87.1798 61.9644 87.0158 62.231 86.8996 62.5454C86.7833 62.8599 86.715 63.2119 86.6945 63.6016L86.1305 63.6426C86.1305 62.9453 86.1989 62.2993 86.3356 61.7046C86.4723 61.1099 86.6774 60.5869 86.9508 60.1357C87.2311 59.6846 87.5797 59.3325 87.9967 59.0796C88.4206 58.8267 88.9093 58.7002 89.463 58.7002C89.6134 58.7002 89.7741 58.7139 89.945 58.7412C90.1227 58.7686 90.256 58.7993 90.3449 58.8335ZM97.8863 66.9956C97.8863 66.7495 97.8248 66.5273 97.7018 66.3291C97.5787 66.124 97.3429 65.9395 96.9942 65.7754C96.6524 65.6113 96.1466 65.4609 95.4767 65.3242C94.8888 65.1943 94.3487 65.0405 93.8565 64.8628C93.3712 64.6782 92.9542 64.4561 92.6056 64.1963C92.2569 63.9365 91.9869 63.6289 91.7955 63.2734C91.6041 62.918 91.5084 62.5078 91.5084 62.043C91.5084 61.5918 91.6075 61.1646 91.8058 60.7612C92.004 60.3579 92.2877 60.0024 92.6568 59.6948C93.026 59.3872 93.4737 59.1445 94.0001 58.9668C94.5333 58.7891 95.128 58.7002 95.7843 58.7002C96.714 58.7002 97.5104 58.8574 98.1734 59.1719C98.8434 59.4795 99.3561 59.8999 99.7115 60.4331C100.067 60.9595 100.245 61.5542 100.245 62.2173H97.7735C97.7735 61.9233 97.6983 61.6499 97.548 61.397C97.4044 61.1372 97.1856 60.9287 96.8917 60.7715C96.5978 60.6074 96.2286 60.5254 95.7843 60.5254C95.3605 60.5254 95.0084 60.5938 94.7281 60.7305C94.4547 60.8604 94.2496 61.0312 94.1129 61.2432C93.983 61.4551 93.9181 61.6875 93.9181 61.9404C93.9181 62.125 93.9522 62.2925 94.0206 62.4429C94.0958 62.5864 94.2188 62.7197 94.3897 62.8428C94.5606 62.959 94.7931 63.0684 95.087 63.1709C95.3878 63.2734 95.7638 63.3726 96.2149 63.4683C97.0626 63.646 97.7906 63.875 98.399 64.1553C99.0143 64.4287 99.4859 64.7842 99.8141 65.2217C100.142 65.6523 100.306 66.1992 100.306 66.8623C100.306 67.3545 100.2 67.8057 99.9884 68.2158C99.7833 68.6191 99.4825 68.9712 99.086 69.272C98.6896 69.5659 98.2145 69.7949 97.6607 69.959C97.1139 70.123 96.4986 70.2051 95.815 70.2051C94.8102 70.2051 93.9591 70.0273 93.2618 69.6719C92.5646 69.3096 92.0348 68.8481 91.6725 68.2876C91.317 67.7202 91.1393 67.1323 91.1393 66.5239H93.5284C93.5558 66.9819 93.6822 67.3477 93.9078 67.6211C94.1402 67.8877 94.4273 68.0825 94.7691 68.2056C95.1178 68.3218 95.4767 68.3799 95.8458 68.3799C96.2901 68.3799 96.6627 68.3218 96.9635 68.2056C97.2643 68.0825 97.4933 67.9185 97.6505 67.7134C97.8077 67.5015 97.8863 67.2622 97.8863 66.9956ZM104.884 58.9053V70H102.403V58.9053H104.884ZM102.239 55.9932C102.239 55.6172 102.362 55.3062 102.608 55.0601C102.861 54.8071 103.21 54.6807 103.654 54.6807C104.091 54.6807 104.437 54.8071 104.69 55.0601C104.942 55.3062 105.069 55.6172 105.069 55.9932C105.069 56.3623 104.942 56.6699 104.69 56.916C104.437 57.1621 104.091 57.2852 103.654 57.2852C103.21 57.2852 102.861 57.1621 102.608 56.916C102.362 56.6699 102.239 56.3623 102.239 55.9932ZM106.889 64.5757V64.3398C106.889 63.54 107.005 62.7983 107.237 62.1147C107.47 61.4243 107.805 60.8262 108.242 60.3203C108.687 59.8076 109.227 59.4111 109.862 59.1309C110.505 58.8438 111.23 58.7002 112.036 58.7002C112.85 58.7002 113.574 58.8438 114.21 59.1309C114.853 59.4111 115.396 59.8076 115.84 60.3203C116.285 60.8262 116.623 61.4243 116.855 62.1147C117.088 62.7983 117.204 63.54 117.204 64.3398V64.5757C117.204 65.3755 117.088 66.1172 116.855 66.8008C116.623 67.4844 116.285 68.0825 115.84 68.5952C115.396 69.1011 114.856 69.4976 114.22 69.7847C113.584 70.0649 112.863 70.2051 112.057 70.2051C111.243 70.2051 110.515 70.0649 109.873 69.7847C109.237 69.4976 108.697 69.1011 108.252 68.5952C107.808 68.0825 107.47 67.4844 107.237 66.8008C107.005 66.1172 106.889 65.3755 106.889 64.5757ZM109.36 64.3398V64.5757C109.36 65.0747 109.411 65.5464 109.514 65.9907C109.616 66.4351 109.777 66.8247 109.996 67.1597C110.214 67.4946 110.495 67.7578 110.836 67.9492C111.178 68.1406 111.585 68.2363 112.057 68.2363C112.515 68.2363 112.911 68.1406 113.246 67.9492C113.588 67.7578 113.868 67.4946 114.087 67.1597C114.306 66.8247 114.466 66.4351 114.569 65.9907C114.678 65.5464 114.733 65.0747 114.733 64.5757V64.3398C114.733 63.8477 114.678 63.3828 114.569 62.9453C114.466 62.501 114.302 62.1079 114.077 61.7661C113.858 61.4243 113.578 61.1577 113.236 60.9663C112.901 60.7681 112.501 60.6689 112.036 60.6689C111.571 60.6689 111.168 60.7681 110.826 60.9663C110.491 61.1577 110.214 61.4243 109.996 61.7661C109.777 62.1079 109.616 62.501 109.514 62.9453C109.411 63.3828 109.36 63.8477 109.36 64.3398ZM121.495 61.2739V70H119.024V58.9053H121.352L121.495 61.2739ZM121.054 64.0425L120.254 64.0322C120.261 63.2461 120.371 62.5249 120.582 61.8687C120.801 61.2124 121.102 60.6484 121.485 60.1768C121.874 59.7051 122.339 59.3428 122.879 59.0898C123.419 58.8301 124.021 58.7002 124.684 58.7002C125.217 58.7002 125.699 58.7754 126.13 58.9258C126.567 59.0693 126.94 59.3052 127.248 59.6333C127.562 59.9614 127.801 60.3887 127.965 60.915C128.129 61.4346 128.211 62.0737 128.211 62.8325V70H125.73V62.8223C125.73 62.2891 125.651 61.8687 125.494 61.561C125.344 61.2466 125.122 61.0244 124.828 60.8945C124.54 60.7578 124.182 60.6895 123.751 60.6895C123.327 60.6895 122.948 60.7783 122.613 60.9561C122.278 61.1338 121.994 61.3765 121.762 61.6841C121.536 61.9917 121.362 62.3472 121.239 62.7505C121.116 63.1538 121.054 63.5845 121.054 64.0425Z" fill="#28282A"/>
<path d="M191 48.0227H237C237 48.0227 240.5 33.3355 253 28.4397C265.5 23.544 280 23 280 23V49.6545H237C237 49.6545 236 66.5178 226 79.0291C216 91.5405 191 90.9965 191 90.9965V48.0227Z" fill="url(#paint0_linear_703_13392)"/>
<path fill-rule="evenodd" clip-rule="evenodd" d="M277.5 42.7498L283.061 47.6892C283.646 48.2749 283.646 49.2247 283.061 49.8105L277.5 54.7498C276.914 55.3356 276.586 55.3356 276 54.7498C275.414 54.164 275.414 53.8356 276 53.2498L278.379 50.2498L191 50.2498L191 47.2498L278.379 47.2498L276 44.2499C275.414 43.6642 275.414 43.3357 276 42.7499C276.586 42.1641 276.914 42.164 277.5 42.7498Z" fill="#F27F2E"/>
<path fill-rule="evenodd" clip-rule="evenodd" d="M231.25 8.5L236.189 2.93934C236.775 2.35355 237.725 2.35355 238.31 2.93934L243.25 8.5C243.836 9.08578 243.836 9.41421 243.25 10C242.664 10.5858 242.336 10.5858 241.75 10L238.75 7.62132L238.75 95H235.75L235.75 7.62132L232.75 10C232.164 10.5858 231.836 10.5858 231.25 10C230.664 9.41421 230.664 9.08578 231.25 8.5Z" fill="#F27F2E"/>
<path d="M217.999 22.4983C225 22.4983 228.498 17.7977 228.498 11.9992C228.498 6.20064 225 1.5 217.999 1.5C210.998 1.5 207.5 6.20064 207.5 11.9992C207.5 17.7977 210.998 22.4983 217.999 22.4983Z" fill="#FFB02E"/>
<path d="M217.25 7.875C217.25 8.94291 216.754 9.89498 215.98 10.5134C215.377 10.3114 214.608 10.125 213.875 10.125C213.142 10.125 212.373 10.3114 211.77 10.5134C210.996 9.89498 210.5 8.94291 210.5 7.875C210.5 6.01104 212.011 4.5 213.875 4.5C215.739 4.5 217.25 6.01104 217.25 7.875Z" fill="white"/>
<path d="M225.5 7.875C225.5 8.94291 225.004 9.89498 224.23 10.5134C223.627 10.3114 222.858 10.125 222.125 10.125C221.392 10.125 220.623 10.3114 220.02 10.5134C219.246 9.89498 218.75 8.94291 218.75 7.875C218.75 6.01104 220.261 4.5 222.125 4.5C223.989 4.5 225.5 6.01104 225.5 7.875Z" fill="white"/>
<path d="M214.25 9.75C215.493 9.75 216.5 8.74264 216.5 7.5C216.5 6.25736 215.493 5.25 214.25 5.25C213.007 5.25 212 6.25736 212 7.5C212 8.74264 213.007 9.75 214.25 9.75Z" fill="#402A32"/>
<path d="M221.75 9.75C222.993 9.75 224 8.74264 224 7.5C224 6.25736 222.993 5.25 221.75 5.25C220.507 5.25 219.5 6.25736 219.5 7.5C219.5 8.74264 220.507 9.75 221.75 9.75Z" fill="#402A32"/>
<path d="M218 18.75C211.25 18.75 211.25 12 211.25 12H224.75C224.75 12 224.75 18.75 218 18.75Z" fill="#BB1D80"/>
<path d="M212 12.375V12H224V12.375C224 12.7892 223.664 13.125 223.25 13.125H212.75C212.336 13.125 212 12.7892 212 12.375Z" fill="white"/>
<path d="M252.499 98.5609C259.208 98.5609 262.561 94.0561 262.561 88.4992C262.561 82.9423 259.208 78.4375 252.499 78.4375C245.79 78.4375 242.438 82.9423 242.438 88.4992C242.438 94.0561 245.79 98.5609 252.499 98.5609Z" fill="#F8312F"/>
<path d="M248.547 92.0938C250.333 92.0938 251.781 90.6457 251.781 88.8594C251.781 87.0731 250.333 85.625 248.547 85.625C246.761 85.625 245.312 87.0731 245.312 88.8594C245.312 90.6457 246.761 92.0938 248.547 92.0938Z" fill="white"/>
<path d="M256.453 92.0938C258.239 92.0938 259.688 90.6457 259.688 88.8594C259.688 87.0731 258.239 85.625 256.453 85.625C254.667 85.625 253.219 87.0731 253.219 88.8594C253.219 90.6457 254.667 92.0938 256.453 92.0938Z" fill="white"/>
<path d="M251.271 85.9851C251.568 86.0009 251.796 86.2548 251.781 86.5521C251.765 86.8494 251.511 87.0775 251.214 87.0617C250.483 87.0227 249.784 86.8435 249.189 86.429C248.589 86.0109 248.14 85.3857 247.856 84.5381C247.762 84.2558 247.914 83.9504 248.196 83.8559C248.479 83.7615 248.784 83.9138 248.879 84.1962C249.102 84.863 249.426 85.2805 249.805 85.5443C250.189 85.8116 250.675 85.9533 251.271 85.9851Z" fill="#402A32"/>
<path d="M253.729 85.9851C253.432 86.0009 253.204 86.2548 253.22 86.5521C253.236 86.8494 253.489 87.0775 253.787 87.0617C254.518 87.0227 255.216 86.8435 255.811 86.429C256.412 86.0109 256.861 85.3857 257.144 84.5381C257.239 84.2558 257.086 83.9504 256.804 83.8559C256.522 83.7615 256.216 83.9138 256.122 84.1962C255.899 84.863 255.574 85.2805 255.195 85.5443C254.811 85.8116 254.325 85.9533 253.729 85.9851Z" fill="#402A32"/>
<path d="M252.5 94.25C251.059 94.25 250.391 95.0436 250.268 95.2901C250.09 95.6452 249.659 95.7891 249.304 95.6116C248.949 95.4341 248.805 95.0023 248.982 94.6473C249.338 93.9355 250.491 92.8125 252.5 92.8125C254.509 92.8125 255.662 93.9355 256.018 94.6473C256.196 95.0023 256.052 95.4341 255.697 95.6116C255.342 95.7891 254.91 95.6452 254.732 95.2901C254.609 95.0436 253.941 94.25 252.5 94.25Z" fill="#402A32"/>
<path d="M251.063 89.2187C251.063 90.0126 250.419 90.6562 249.625 90.6562C248.831 90.6562 248.188 90.0126 248.188 89.2187C248.188 88.4248 248.831 87.7812 249.625 87.7812C250.419 87.7812 251.063 88.4248 251.063 89.2187Z" fill="#402A32"/>
<path d="M256.813 89.2187C256.813 90.0126 256.169 90.6562 255.375 90.6562C254.581 90.6562 253.938 90.0126 253.938 89.2187C253.938 88.4248 254.581 87.7812 255.375 87.7812C256.169 87.7812 256.813 88.4248 256.813 89.2187Z" fill="#402A32"/>
<path d="M296.12 64.4537H294.56L294.544 59.6656C293.452 59.6444 292.36 59.5171 291.268 59.2838C290.176 59.0399 289.079 58.6793 287.976 58.2021V55.3388C289.037 56.0175 290.108 56.5318 291.19 56.8818C292.282 57.2211 293.405 57.3961 294.56 57.4067V50.153C292.261 49.7712 290.587 49.1243 289.536 48.2123C288.496 47.3002 287.976 46.0489 287.976 44.4581C287.976 42.7295 288.543 41.3668 289.677 40.3699C290.81 39.3731 292.438 38.8004 294.56 38.6519V34.9137H296.12V38.6042C297.087 38.6466 298.023 38.7527 298.928 38.9224C299.833 39.0814 300.717 39.3042 301.58 39.5905V42.3743C300.717 41.9289 299.828 41.5842 298.913 41.3403C298.008 41.0964 297.077 40.9532 296.12 40.9108V47.7032C298.481 48.0744 300.218 48.7372 301.331 49.6916C302.444 50.6461 303 51.9505 303 53.6049C303 55.3971 302.407 56.8128 301.221 57.8521C300.046 58.8808 298.346 59.4747 296.12 59.6337V64.4537ZM294.56 47.4169V40.8949C293.353 41.0327 292.433 41.3827 291.798 41.9448C291.164 42.5068 290.847 43.2545 290.847 44.1877C290.847 45.0997 291.138 45.8103 291.72 46.3193C292.313 46.8283 293.26 47.1942 294.56 47.4169ZM296.12 50.4711V57.359C297.441 57.1787 298.434 56.7969 299.1 56.2137C299.776 55.6304 300.114 54.8615 300.114 53.9071C300.114 52.9739 299.791 52.2315 299.147 51.6801C298.512 51.1286 297.503 50.7256 296.12 50.4711Z" fill="#FFAD00"/>
<path d="M295.144 63.54H293.584L293.568 58.7519C292.476 58.7307 291.384 58.6034 290.292 58.3701C289.2 58.1262 288.102 57.7656 287 57.2884V54.4251C288.061 55.1038 289.132 55.6181 290.214 55.9681C291.306 56.3074 292.429 56.4824 293.584 56.493V49.2393C291.285 48.8575 289.611 48.2106 288.56 47.2986C287.52 46.3866 287 45.1352 287 43.5444C287 41.8158 287.567 40.4531 288.701 39.4562C289.834 38.4594 291.462 37.8867 293.584 37.7382V34H295.144V37.6905C296.111 37.733 297.047 37.839 297.952 38.0087C298.857 38.1678 299.741 38.3905 300.604 38.6768V41.4606C299.741 41.0152 298.852 40.6705 297.936 40.4266C297.032 40.1827 296.101 40.0395 295.144 39.9971V46.7895C297.505 47.1607 299.242 47.8235 300.355 48.7779C301.467 49.7324 302.024 51.0368 302.024 52.6912C302.024 54.4834 301.431 55.8991 300.245 56.9384C299.07 57.9671 297.37 58.561 295.144 58.7201V63.54ZM293.584 46.5032V39.9812C292.377 40.1191 291.457 40.469 290.822 41.0311C290.188 41.5931 289.871 42.3408 289.871 43.274C289.871 44.186 290.162 44.8966 290.744 45.4056C291.337 45.9146 292.284 46.2805 293.584 46.5032ZM295.144 49.5574V56.4453C296.465 56.265 297.458 55.8832 298.124 55.3C298.8 54.7167 299.138 53.9478 299.138 52.9934C299.138 52.0602 298.815 51.3178 298.17 50.7664C297.536 50.2149 296.527 49.8119 295.144 49.5574Z" fill="#FFE400"/>
<defs>
<linearGradient id="paint0_linear_703_13392" x1="235.5" y1="23" x2="235.5" y2="91" gradientUnits="userSpaceOnUse">
<stop stop-color="#24FF00"/>
<stop offset="0.379562" stop-color="#FFEE00"/>
<stop offset="1" stop-color="#FF0000"/>
</linearGradient>
</defs>
</svg>
