<svg width="94" height="105" viewBox="0 0 94 105" fill="none" xmlns="http://www.w3.org/2000/svg">
<path d="M23.0001 16.9961C25.2093 16.9961 27.0001 15.2052 27.0001 12.9961C27.0001 10.787 25.2093 8.99609 23.0001 8.99609C20.791 8.99609 19.0001 10.787 19.0001 12.9961C19.0001 15.2052 20.791 16.9961 23.0001 16.9961Z" fill="#F37F2F"/>
<circle cx="52.0001" cy="8.99609" r="6" fill="#F27F2E"/>
<path d="M23.107 13.4894L10.5053 25.5347L22.2801 13.3446C22.646 12.7829 23.1953 13.3379 23.107 13.4894Z" fill="#F27F2D"/>
<path d="M23.107 13.4894L10.5053 25.5347L22.2801 13.3446C22.646 12.7829 23.1953 13.3379 23.107 13.4894Z" fill="#F27F2D"/>
<path d="M76.6132 22.3578C74.6178 21.7306 73.5085 19.6046 74.1357 17.6091C74.7628 15.6136 76.8889 14.5044 78.8843 15.1315C80.8798 15.7587 81.989 17.8847 81.3619 19.8802C80.7347 21.8757 78.6087 22.9849 76.6132 22.3578Z" fill="#F37F2F"/>
<path d="M54.1752 10.9755L79.3284 19.3865L55.2157 10.2355C54.347 9.69854 53.9552 10.8239 54.1752 10.9755Z" fill="#F27F2D"/>
<path d="M54.1752 10.9755L79.3284 19.3865L55.2157 10.2355C54.347 9.69854 53.9552 10.8239 54.1752 10.9755Z" fill="#F27F2D"/>
<path d="M52.0729 9.25013L65.0001 28.9961L52.6346 8.37334C52.1943 7.30772 51.9618 8.95599 52.0729 9.25013Z" fill="#F27F2D"/>
<path d="M52.0729 9.25013L65.0001 28.9961L52.6346 8.37334C52.1943 7.30772 51.9618 8.95599 52.0729 9.25013Z" fill="#F27F2D"/>
<path d="M52.0033 8.88185L30.0001 23.9962L50.8475 8.34147C51.5517 7.55543 52.1782 8.66608 52.0033 8.88185Z" fill="#F27F2D"/>
<path d="M52.0033 8.88185L30.0001 23.9962L50.8475 8.34147C51.5517 7.55543 52.1782 8.66608 52.0033 8.88185Z" fill="#F27F2D"/>
<path d="M48.334 10.4556L22 13.6094L47.4646 9.52062C48.4239 9.17029 48.5802 10.3517 48.334 10.4556Z" fill="#F27F2D"/>
<path d="M48.334 10.4556L22 13.6094L47.4646 9.52062C48.4239 9.17029 48.5802 10.3517 48.334 10.4556Z" fill="#F27F2D"/>
<path d="M21.5419 10.5956L31.5064 24.9195L21.2119 11.3632C20.6996 10.9082 21.4015 10.4828 21.5419 10.5956Z" fill="#F27F2D"/>
<path d="M21.5419 10.5956L31.5064 24.9195L21.2119 11.3632C20.6996 10.9082 21.4015 10.4828 21.5419 10.5956Z" fill="#F27F2D"/>
<path d="M11.3038 45.52C12.5378 35.0994 21.9857 27.6522 32.4063 28.8861L67.6015 33.0537C78.0221 34.2877 85.4694 43.7356 84.2354 54.1562L80.6729 84.2413C79.374 95.2103 69.4289 103.05 58.4598 101.751L25.2507 97.8182C14.2816 96.5193 6.44242 86.5742 7.74132 75.6051L11.3038 45.52Z" fill="url(#paint0_linear_1600_2764)"/>
<path d="M9.70775 27.2372C9.80937 26.8275 10.1716 26.5358 10.5936 26.5239C11.1316 26.5088 11.5724 26.9477 11.5596 27.4857L11.0663 48.2622C11.052 48.8639 10.5135 49.3167 9.91834 49.2275L5.54337 48.5716C4.9604 48.4842 4.57913 47.914 4.72104 47.3419L9.70775 27.2372Z" fill="#D9D9D9"/>
<path d="M44.084 53.3289C43.4893 57.4277 41.0034 60.7981 37.6064 62.7287C35.3439 61.6086 32.4122 60.4529 29.5237 60.0337C26.6351 59.6146 23.4958 59.8893 21.0083 60.3202C18.3002 57.5037 16.8748 53.5657 17.4696 49.4669C18.5077 42.3128 25.3071 37.3777 32.6565 38.4442C40.0059 39.5106 45.1222 46.1747 44.084 53.3289Z" fill="white"/>
<path d="M76.6128 58.0491C76.0181 62.1479 73.5322 65.5183 70.1352 67.4489C67.8727 66.3288 64.941 65.173 62.0525 64.7539C59.1639 64.3347 56.0246 64.6095 53.5371 65.0404C50.829 62.2238 49.4036 58.2859 49.9984 54.1871C51.0365 47.0329 57.8359 42.0979 65.1853 43.1644C72.5347 44.2308 77.651 50.8949 76.6128 58.0491Z" fill="white"/>
<path d="M30.9258 59.6015C35.8553 60.3168 40.4137 57.0216 41.1073 52.2416C41.801 47.4615 38.3671 43.0066 33.4377 42.2913C28.5082 41.576 23.9498 44.8711 23.2562 49.6512C22.5625 54.4313 25.9964 58.8862 30.9258 59.6015Z" fill="#28282A"/>
<path d="M60.6778 63.9187C65.6072 64.634 70.1657 61.3389 70.8593 56.5588C71.5529 51.7787 68.1191 47.3238 63.1896 46.6085C58.2602 45.8932 53.7017 49.1884 53.0081 53.9685C52.3145 58.7485 55.7483 63.2034 60.6778 63.9187Z" fill="#28282A"/>
<g filter="url(#filter0_i_1600_2764)">
<path d="M42.8535 91.7509C26.0732 90.0054 27.8187 73.2251 27.8187 73.2251L61.3792 76.7162C61.3792 76.7162 59.6337 93.4964 42.8535 91.7509Z" fill="#A30A0A"/>
</g>
<path d="M29.5861 74.3512L29.6831 73.4189L59.5147 76.5221L59.4177 77.4543C59.3106 78.4841 58.389 79.232 57.3593 79.1249L31.2567 76.4096C30.2269 76.3025 29.479 75.3809 29.5861 74.3512Z" fill="white"/>
<path d="M75.5242 19.2263L65.0001 28.9961L77.5611 19.1722C77.7205 19.0471 77.395 18.9566 76.8392 18.9684C76.2782 18.9806 75.6987 19.0915 75.5392 19.2155C75.5341 19.2181 75.5292 19.2227 75.5242 19.2263Z" fill="#F27F2D"/>
<path d="M79.1408 19.3195L88.0002 33.9961L78.3082 19.993C78.1111 19.6924 78.1359 19.2948 78.3598 19.1024C78.5862 18.9091 78.9273 18.9968 79.1233 19.2942C79.128 19.2995 79.135 19.3111 79.1408 19.3195Z" fill="#F27F2D"/>
<path d="M9.33921 29.7235C7.49515 29.144 6.47007 27.1792 7.04963 25.3352C7.62919 23.4911 9.59393 22.466 11.438 23.0456C13.2821 23.6251 14.3071 25.5899 13.7276 27.4339C13.148 29.278 11.1833 30.3031 9.33921 29.7235Z" fill="#F37B2F"/>
<path d="M29.561 25.0789C28.3481 24.6977 27.6738 23.4054 28.055 22.1924C28.4362 20.9795 29.7285 20.3053 30.9415 20.6865C32.1544 21.0677 32.8287 22.36 32.4475 23.5729C32.0662 24.7859 30.7739 25.4601 29.561 25.0789Z" fill="#F37B2F"/>
<path d="M64.1964 31.0789C62.9834 30.6977 62.3092 29.4054 62.6904 28.1924C63.0716 26.9795 64.3639 26.3053 65.5769 26.6865C66.7898 27.0677 67.464 28.36 67.0828 29.5729C66.7016 30.7859 65.4093 31.4601 64.1964 31.0789Z" fill="#F37B2F"/>
<path d="M1.50491 50.9743C1.73526 48.7772 3.7031 47.1828 5.90019 47.4132L13.7443 48.2356L11.8224 66.5663L3.97833 65.7439C1.78124 65.5135 0.186873 63.5457 0.417225 61.3486L1.50491 50.9743Z" fill="#F56F31"/>
<path d="M89.3935 36.38C89.3864 35.9666 89.107 35.6077 88.7081 35.4994C88.1823 35.3567 87.6472 35.6949 87.5505 36.231L83.3711 59.4085C83.2652 59.9954 83.6933 60.5438 84.2883 60.5837L88.7289 60.8813C89.313 60.9205 89.8057 60.4517 89.7956 59.8664L89.3935 36.38Z" fill="#D9D9D9"/>
<path d="M88.5001 37.9961C90.4331 37.9961 92.0001 36.4291 92.0001 34.4961C92.0001 32.5631 90.4331 30.9961 88.5001 30.9961C86.5671 30.9961 85.0001 32.5631 85.0001 34.4961C85.0001 36.4291 86.5671 37.9961 88.5001 37.9961Z" fill="#F37B2F"/>
<path d="M93.4161 62.5751C93.6614 60.3796 92.0804 58.401 89.885 58.1557L82.0466 57.28L80.0001 75.5972L87.8384 76.4729C90.0339 76.7182 92.0126 75.1373 92.2578 72.9418L93.4161 62.5751Z" fill="#F3792F"/>
<defs>
<filter id="filter0_i_1600_2764" x="27.767" y="73.2251" width="33.6123" height="22.6531" filterUnits="userSpaceOnUse" color-interpolation-filters="sRGB">
<feFlood flood-opacity="0" result="BackgroundImageFix"/>
<feBlend mode="normal" in="SourceGraphic" in2="BackgroundImageFix" result="shape"/>
<feColorMatrix in="SourceAlpha" type="matrix" values="0 0 0 0 0 0 0 0 0 0 0 0 0 0 0 0 0 0 127 0" result="hardAlpha"/>
<feOffset dy="4"/>
<feGaussianBlur stdDeviation="2"/>
<feComposite in2="hardAlpha" operator="arithmetic" k2="-1" k3="1"/>
<feColorMatrix type="matrix" values="0 0 0 0 0 0 0 0 0 0 0 0 0 0 0 0 0 0 0.25 0"/>
<feBlend mode="normal" in2="shape" result="effect1_innerShadow_1600_2764"/>
</filter>
<linearGradient id="paint0_linear_1600_2764" x1="23.8699" y1="26.672" x2="-20.9802" y2="139.524" gradientUnits="userSpaceOnUse">
<stop stop-color="#F27F2E"/>
<stop offset="1" stop-color="#FF3838"/>
</linearGradient>
</defs>
</svg>
