<svg width="335" height="114" viewBox="0 0 335 114" fill="none" xmlns="http://www.w3.org/2000/svg">
<g filter="url(#filter0_d_789_4033)">
<path d="M40.9092 72.6913C41.8513 67.5235 46.6313 63.9656 51.8522 64.5461L71.9 66.7753C77.1234 67.3561 81.0058 71.8812 80.7861 77.1322L80.2399 90.1831C80.0032 95.8395 75.1224 100.172 69.4779 99.7352L47.5004 98.0364C41.5878 97.5793 37.3696 92.1067 38.4332 86.2726L40.9092 72.6913Z" fill="url(#paint0_linear_789_4033)"/>
<path d="M55.8778 62.5786L68.7786 64.1971L68.6852 64.8493C68.2935 67.5828 65.76 69.4812 63.0265 69.0895L60.0722 68.6662C57.3975 68.2829 55.5111 65.8439 55.8127 63.1587L55.8778 62.5786Z" fill="url(#paint1_linear_789_4033)"/>
<path d="M37.6885 70.2584L41.5285 69.6521L40.3158 76.5236H37.6885V70.2584Z" fill="#F27F2E"/>
<path d="M80.9384 73.0879L84.1721 74.5026L81.949 79.7573L80.7363 79.3531L80.9384 73.0879Z" fill="#F37F2F"/>
<path d="M100.139 76.3216C95.4902 80.97 87.2453 77.9904 83.5056 75.7153C83.5056 76.129 82.7497 77.0001 82.1514 79.1511C92.4431 84.1149 99.7111 81.1617 101.755 78.8177C101.406 78.3351 100.976 77.6453 100.139 76.3216Z" fill="url(#paint2_linear_789_4033)"/>
<path d="M37.828 75.8195C30.6476 74.3002 24.7941 82.119 22.7054 86.5306C22.4518 86.1431 21.2134 85.7881 19.3371 84.1382C25.8806 73.2127 34.4863 70.7244 37.828 71.6733C37.7988 72.3382 37.7967 74.0688 37.828 75.8195Z" fill="url(#paint3_linear_789_4033)"/>
<path fill-rule="evenodd" clip-rule="evenodd" d="M104.349 75.3882C105.054 77.4218 108.108 78.21 111.172 77.1487C112.53 76.678 113.662 75.9224 114.44 75.0499C114.391 77.0439 113.545 79.0129 111.934 80.4393C108.858 83.1629 104.156 82.8768 101.432 79.8002C98.7085 76.7237 98.9946 72.0218 102.071 69.2983C104.936 66.7618 109.211 66.8357 111.985 69.3429C110.951 69.2442 109.786 69.3802 108.62 69.7842C105.557 70.8455 103.645 73.3545 104.349 75.3882Z" fill="url(#paint4_linear_789_4033)"/>
<path fill-rule="evenodd" clip-rule="evenodd" d="M19.3181 87.7565C17.3752 86.8305 14.6695 88.4523 13.2749 91.3788C12.6563 92.6769 12.3995 94.0136 12.4749 95.1801C11.0892 93.7453 10.2808 91.7606 10.3962 89.6117C10.6164 85.5087 14.1211 82.3612 18.2241 82.5815C22.327 82.8018 25.4745 86.3064 25.2543 90.4094C25.0491 94.2305 21.9954 97.2229 18.2626 97.4381C19.0591 96.7708 19.7799 95.8458 20.3108 94.7318C21.7055 91.8053 21.261 88.6824 19.3181 87.7565Z" fill="url(#paint5_linear_789_4033)"/>
<path d="M47.3014 36.1147C47.9196 30.7332 52.7832 26.8717 58.1647 27.4899L76.3405 29.5777C81.722 30.1959 85.5834 35.0596 84.9653 40.4411L83.1806 55.9778C82.5299 61.6425 77.4102 65.7072 71.7455 65.0565L54.5954 63.0865C48.9307 62.4358 44.866 57.3161 45.5167 51.6514L47.3014 36.1147Z" fill="url(#paint6_linear_789_4033)"/>
<path d="M46.4447 26.6799C46.4964 26.4682 46.6829 26.317 46.9007 26.3101C47.1784 26.3013 47.4067 26.5271 47.4011 26.8049L47.184 37.5309C47.1777 37.8415 46.9005 38.0762 46.5931 38.0312L44.3335 37.7005C44.0324 37.6565 43.8346 37.3629 43.9068 37.0673L46.4447 26.6799Z" fill="#D9D9D9"/>
<path d="M42.2533 38.948C42.3682 37.8134 43.3812 36.9868 44.5158 37.1018L48.5665 37.5121L47.6075 46.9782L43.5568 46.5678C42.4222 46.4529 41.5956 45.4399 41.7105 44.3053L42.2533 38.948Z" fill="#F56F31"/>
<path d="M87.5961 31.2554C87.5917 31.042 87.4469 30.8573 87.2407 30.8021C86.9691 30.7294 86.6934 30.9049 86.6445 31.1818L84.5289 43.1539C84.4753 43.457 84.6973 43.7394 85.0045 43.7589L87.2973 43.9045C87.5989 43.9237 87.8524 43.6808 87.8461 43.3787L87.5961 31.2554Z" fill="#D9D9D9"/>
<path d="M89.7203 44.7705C89.843 43.6367 89.0233 42.6182 87.8895 42.4955L83.8417 42.0576L82.8183 51.5169L86.8661 51.9548C87.9999 52.0774 89.0185 51.2578 89.1411 50.124L89.7203 44.7705Z" fill="#F3792F"/>
<path d="M64.2371 40.0864C63.9375 42.2033 62.6603 43.9476 60.9102 44.9504C59.7403 44.3762 58.2248 43.7849 56.733 43.5738C55.2411 43.3626 53.6211 43.5101 52.3377 43.7371C50.9347 42.288 50.1918 40.2578 50.4914 38.1408C51.0144 34.4459 54.5154 31.8861 58.3112 32.4233C62.1069 32.9606 64.7601 36.3914 64.2371 40.0864Z" fill="white"/>
<path d="M81.0374 42.4642C80.7378 44.5812 79.4606 46.3255 77.7106 47.3283C76.5406 46.7541 75.0251 46.1628 73.5333 45.9517C72.0414 45.7405 70.4214 45.888 69.138 46.1149C67.735 44.6659 66.9921 42.6356 67.2917 40.5187C67.8147 36.8238 71.3157 34.264 75.1115 34.8012C78.9073 35.3384 81.5604 38.7693 81.0374 42.4642Z" fill="white"/>
<path d="M57.4559 43.3484C60.0018 43.7087 62.349 41.9995 62.6984 39.5307C63.0478 37.0619 61.2672 34.7684 58.7213 34.4081C56.1753 34.0477 53.8281 35.757 53.4787 38.2258C53.1293 40.6946 54.9099 42.988 57.4559 43.3484Z" fill="#28282A"/>
<path d="M72.822 45.5233C75.368 45.8836 77.7151 44.1744 78.0646 41.7056C78.414 39.2368 76.6334 36.9433 74.0874 36.583C71.5415 36.2226 69.1943 37.9319 68.8449 40.4007C68.4954 42.8695 70.2761 45.1629 72.822 45.5233Z" fill="#28282A"/>
<g filter="url(#filter1_i_789_4033)">
<path d="M63.6715 59.9226C55.0062 59.0519 55.8769 50.3865 55.8769 50.3865L73.2076 52.128C73.2076 52.128 72.3369 60.7934 63.6715 59.9226Z" fill="#A30A0A"/>
</g>
<path d="M56.7914 50.9645L56.8398 50.4831L72.2448 52.0311L72.1965 52.5125C72.143 53.0442 71.6686 53.432 71.1369 53.3786L57.6575 52.024C57.1257 51.9706 56.738 51.4962 56.7914 50.9645Z" fill="white"/>
<path d="M53.2878 21.3691C54.4282 21.3651 55.3494 20.4374 55.3454 19.297C55.3414 18.1566 54.4137 17.2354 53.2733 17.2394C52.133 17.2433 51.2117 18.171 51.2157 19.3114C51.2197 20.4518 52.1474 21.3731 53.2878 21.3691Z" fill="#F37F2F"/>
<circle cx="68.2434" cy="17.1868" r="3.0973" transform="rotate(-0.200431 68.2434 17.1868)" fill="#F27F2E"/>
<path d="M53.3362 19.5587L46.8528 25.7994L52.9091 19.4854C53.0969 19.1948 53.3815 19.4803 53.3362 19.5587Z" fill="#F27F2D"/>
<path d="M53.3362 19.5587L46.8528 25.7994L52.9091 19.4854C53.0969 19.1948 53.3815 19.4803 53.3362 19.5587Z" fill="#F27F2D"/>
<path d="M80.973 24.04C79.9418 23.7198 79.3653 22.6243 79.6855 21.5931C80.0056 20.5619 81.1011 19.9855 82.1323 20.3056C83.1635 20.6257 83.74 21.7212 83.4199 22.7524C83.0997 23.7837 82.0042 24.3601 80.973 24.04Z" fill="#F37F2F"/>
<path d="M69.3696 18.2047L82.3692 22.5011L69.9053 17.8208C69.4559 17.5452 69.2557 18.1269 69.3696 18.2047Z" fill="#F27F2D"/>
<path d="M69.3696 18.2047L82.3692 22.5011L69.9053 17.8208C69.4559 17.5452 69.2557 18.1269 69.3696 18.2047Z" fill="#F27F2D"/>
<path d="M68.2813 17.3178L74.9901 27.4876L68.5696 16.8642C68.3404 16.3149 68.2233 17.1662 68.2813 17.3178Z" fill="#F27F2D"/>
<path d="M68.2813 17.3178L74.9901 27.4876L68.5696 16.8642C68.3404 16.3149 68.2233 17.1662 68.2813 17.3178Z" fill="#F27F2D"/>
<path d="M68.2447 17.1278L56.9137 24.9698L67.6472 16.851C68.0092 16.4439 68.3346 17.0161 68.2447 17.1278Z" fill="#F27F2D"/>
<path d="M68.2447 17.1278L56.9137 24.9698L67.6472 16.851C68.0092 16.4439 68.3346 17.0161 68.2447 17.1278Z" fill="#F27F2D"/>
<path d="M66.3534 17.9469L52.7651 19.6225L65.9029 17.4658C66.3974 17.2832 66.4802 17.8928 66.3534 17.9469Z" fill="#F27F2D"/>
<path d="M66.3534 17.9469L52.7651 19.6225L65.9029 17.4658C66.3974 17.2832 66.4802 17.8928 66.3534 17.9469Z" fill="#F27F2D"/>
<path d="M52.5231 18.0674L57.6928 25.4436L52.3541 18.4643C52.0889 18.2303 52.4504 18.0095 52.5231 18.0674Z" fill="#F27F2D"/>
<path d="M52.5231 18.0674L57.6928 25.4436L52.3541 18.4643C52.0889 18.2303 52.4504 18.0095 52.5231 18.0674Z" fill="#F27F2D"/>
<path d="M80.4054 22.4254L74.9904 27.4877L81.4568 22.3938C81.5389 22.3289 81.3707 22.2828 81.0838 22.2899C80.7942 22.2972 80.4953 22.3555 80.4132 22.4198C80.4105 22.4211 80.408 22.4235 80.4054 22.4254Z" fill="#F27F2D"/>
<path d="M82.2724 22.4669L86.8722 30.0272L81.8438 22.8161C81.7415 22.6613 81.7536 22.456 81.8688 22.3563C81.9854 22.2561 82.1616 22.3007 82.2633 22.4539C82.2658 22.4566 82.2694 22.4626 82.2724 22.4669Z" fill="#F27F2D"/>
<path d="M46.2588 27.9637C45.3058 27.6679 44.7731 26.6555 45.0689 25.7025C45.3648 24.7495 46.3772 24.2168 47.3301 24.5127C48.2831 24.8085 48.8158 25.8209 48.52 26.7739C48.2241 27.7268 47.2118 28.2595 46.2588 27.9637Z" fill="#F37B2F"/>
<path d="M56.6887 25.5296C56.0618 25.335 55.7115 24.6692 55.906 24.0423C56.1006 23.4155 56.7665 23.0651 57.3934 23.2597C58.0202 23.4543 58.3706 24.1202 58.176 24.747C57.9814 25.3738 57.3155 25.7242 56.6887 25.5296Z" fill="#F37B2F"/>
<path d="M74.5793 28.5643C73.9525 28.3697 73.6021 27.7038 73.7967 27.077C73.9913 26.4502 74.6572 26.0998 75.284 26.2944C75.9108 26.489 76.2612 27.1549 76.0666 27.7817C75.872 28.4085 75.2061 28.7589 74.5793 28.5643Z" fill="#F37B2F"/>
<path d="M87.1373 32.0911C88.1351 32.0876 88.9412 31.2758 88.9377 30.278C88.9342 29.2802 88.1225 28.4741 87.1246 28.4776C86.1268 28.4811 85.3207 29.2928 85.3242 30.2906C85.3277 31.2885 86.1394 32.0945 87.1373 32.0911Z" fill="#F37B2F"/>
</g>
<rect x="127.606" y="1.5" width="204.972" height="104" rx="8.5" fill="#3F3D56" stroke="#FF3838" stroke-width="3"/>
<line x1="306.949" y1="28.4431" x2="150.97" y2="27.886" stroke="white" stroke-dasharray="6 6"/>
<line x1="306.949" y1="54.5024" x2="150.97" y2="53.9454" stroke="white" stroke-dasharray="6 6"/>
<line x1="306.949" y1="80.5979" x2="150.97" y2="80.0408" stroke="white" stroke-dasharray="6 6"/>
<line x1="168.671" y1="9.00404" x2="168.078" y2="98.5585" stroke="white" stroke-dasharray="6 6"/>
<line x1="230.351" y1="9.00735" x2="229.165" y2="98.5617" stroke="white" stroke-dasharray="6 6"/>
<line x1="291.438" y1="9.00404" x2="290.845" y2="98.5583" stroke="white" stroke-dasharray="6 6"/>
<path d="M140.823 16.803C140.823 16.6272 140.796 16.4709 140.741 16.3342C140.69 16.1975 140.598 16.0725 140.465 15.9592C140.333 15.8459 140.145 15.7366 139.903 15.6311C139.665 15.5217 139.36 15.4104 138.989 15.2971C138.583 15.1721 138.208 15.0334 137.864 14.8811C137.524 14.7249 137.227 14.5452 136.973 14.342C136.719 14.135 136.522 13.8987 136.382 13.6331C136.241 13.3635 136.171 13.053 136.171 12.7014C136.171 12.3538 136.243 12.0374 136.387 11.7522C136.536 11.467 136.745 11.2209 137.014 11.0139C137.288 10.803 137.61 10.6409 137.981 10.5276C138.352 10.4104 138.762 10.3518 139.212 10.3518C139.844 10.3518 140.389 10.469 140.846 10.7034C141.307 10.9377 141.661 11.2522 141.907 11.6467C142.157 12.0413 142.282 12.4768 142.282 12.9534H140.823C140.823 12.6721 140.762 12.4241 140.641 12.2092C140.524 11.9905 140.344 11.8186 140.102 11.6936C139.864 11.5686 139.561 11.5061 139.194 11.5061C138.846 11.5061 138.557 11.5588 138.327 11.6643C138.096 11.7698 137.924 11.9124 137.811 12.092C137.698 12.2717 137.641 12.4749 137.641 12.7014C137.641 12.8616 137.678 13.0081 137.753 13.1409C137.827 13.2698 137.94 13.3909 138.092 13.5042C138.245 13.6135 138.436 13.717 138.667 13.8147C138.897 13.9124 139.169 14.0061 139.481 14.0959C139.954 14.2366 140.366 14.3928 140.717 14.5647C141.069 14.7327 141.362 14.9241 141.596 15.1389C141.831 15.3538 142.007 15.5979 142.124 15.8713C142.241 16.1409 142.299 16.4475 142.299 16.7913C142.299 17.1506 142.227 17.4749 142.083 17.7639C141.938 18.0491 141.731 18.2932 141.462 18.4963C141.196 18.6956 140.876 18.8499 140.501 18.9592C140.13 19.0647 139.715 19.1174 139.258 19.1174C138.848 19.1174 138.444 19.0627 138.046 18.9534C137.651 18.844 137.292 18.678 136.967 18.4553C136.643 18.2288 136.385 17.9475 136.194 17.6116C136.003 17.2717 135.907 16.8752 135.907 16.4221H137.378C137.378 16.6995 137.424 16.9358 137.518 17.1311C137.616 17.3264 137.751 17.4866 137.923 17.6116C138.094 17.7327 138.294 17.8225 138.52 17.8811C138.751 17.9397 138.997 17.969 139.258 17.969C139.602 17.969 139.889 17.9202 140.12 17.8225C140.354 17.7249 140.53 17.5881 140.647 17.4124C140.764 17.2366 140.823 17.0334 140.823 16.803ZM147.142 17.5061V12.6604H148.56V19.0002H147.224L147.142 17.5061ZM147.341 16.1877L147.816 16.176C147.816 16.6018 147.769 16.9944 147.675 17.3538C147.582 17.7092 147.437 18.0198 147.242 18.2854C147.046 18.5471 146.796 18.7522 146.492 18.9006C146.187 19.0452 145.822 19.1174 145.396 19.1174C145.087 19.1174 144.804 19.0725 144.546 18.9827C144.289 18.8928 144.066 18.7542 143.878 18.5667C143.695 18.3792 143.552 18.135 143.451 17.8342C143.349 17.5334 143.298 17.1741 143.298 16.7561V12.6604H144.71V16.7678C144.71 16.9983 144.738 17.1917 144.792 17.3479C144.847 17.5002 144.921 17.6233 145.015 17.717C145.109 17.8108 145.218 17.8772 145.343 17.9163C145.468 17.9553 145.601 17.9749 145.742 17.9749C146.144 17.9749 146.46 17.8967 146.691 17.7405C146.925 17.5803 147.091 17.3655 147.189 17.0959C147.291 16.8264 147.341 16.5237 147.341 16.1877ZM151.276 14.0139V19.0002H149.864V12.6604H151.194L151.276 14.0139ZM151.024 15.5959L150.567 15.5901C150.571 15.1409 150.633 14.7288 150.754 14.3538C150.879 13.9788 151.051 13.6565 151.27 13.387C151.493 13.1174 151.758 12.9104 152.067 12.7659C152.375 12.6174 152.719 12.5432 153.098 12.5432C153.403 12.5432 153.678 12.5862 153.924 12.6721C154.174 12.7542 154.387 12.8889 154.563 13.0764C154.743 13.2639 154.879 13.5081 154.973 13.8088C155.067 14.1057 155.114 14.4709 155.114 14.9045V19.0002H153.696V14.8987C153.696 14.594 153.651 14.3538 153.561 14.178C153.475 13.9983 153.348 13.8713 153.18 13.7971C153.016 13.719 152.811 13.6799 152.565 13.6799C152.323 13.6799 152.106 13.7307 151.914 13.8323C151.723 13.9338 151.561 14.0725 151.428 14.2483C151.299 14.4241 151.2 14.6272 151.129 14.8577C151.059 15.0881 151.024 15.3342 151.024 15.5959Z" fill="white"/>
<path d="M190.751 10.469H192.063L194.53 17.0491L196.991 10.469H198.303L195.046 19.0002H194.003L190.751 10.469ZM190.153 10.469H191.401L191.618 16.1643V19.0002H190.153V10.469ZM197.653 10.469H198.907V19.0002H197.436V16.1643L197.653 10.469ZM200.111 15.9006V15.7659C200.111 15.3088 200.177 14.885 200.31 14.4944C200.443 14.0999 200.634 13.7581 200.884 13.469C201.138 13.176 201.447 12.9495 201.81 12.7893C202.177 12.6252 202.591 12.5432 203.052 12.5432C203.517 12.5432 203.931 12.6252 204.294 12.7893C204.662 12.9495 204.972 13.176 205.226 13.469C205.48 13.7581 205.673 14.0999 205.806 14.4944C205.939 14.885 206.005 15.3088 206.005 15.7659V15.9006C206.005 16.3577 205.939 16.7815 205.806 17.1721C205.673 17.5627 205.48 17.9045 205.226 18.1975C204.972 18.4866 204.664 18.7131 204.3 18.8772C203.937 19.0374 203.525 19.1174 203.064 19.1174C202.599 19.1174 202.183 19.0374 201.816 18.8772C201.453 18.7131 201.144 18.4866 200.89 18.1975C200.636 17.9045 200.443 17.5627 200.31 17.1721C200.177 16.7815 200.111 16.3577 200.111 15.9006ZM201.523 15.7659V15.9006C201.523 16.1858 201.552 16.4553 201.611 16.7092C201.669 16.9631 201.761 17.1858 201.886 17.3772C202.011 17.5686 202.171 17.719 202.367 17.8284C202.562 17.9377 202.794 17.9924 203.064 17.9924C203.326 17.9924 203.552 17.9377 203.744 17.8284C203.939 17.719 204.099 17.5686 204.224 17.3772C204.349 17.1858 204.441 16.9631 204.5 16.7092C204.562 16.4553 204.593 16.1858 204.593 15.9006V15.7659C204.593 15.4846 204.562 15.219 204.5 14.969C204.441 14.7151 204.347 14.4905 204.218 14.2952C204.093 14.0999 203.933 13.9475 203.738 13.8381C203.546 13.7249 203.318 13.6682 203.052 13.6682C202.787 13.6682 202.556 13.7249 202.361 13.8381C202.169 13.9475 202.011 14.0999 201.886 14.2952C201.761 14.4905 201.669 14.7151 201.611 14.969C201.552 15.219 201.523 15.4846 201.523 15.7659ZM208.457 14.0139V19.0002H207.045V12.6604H208.375L208.457 14.0139ZM208.205 15.5959L207.748 15.5901C207.752 15.1409 207.815 14.7288 207.936 14.3538C208.061 13.9788 208.233 13.6565 208.451 13.387C208.674 13.1174 208.94 12.9104 209.248 12.7659C209.557 12.6174 209.901 12.5432 210.28 12.5432C210.584 12.5432 210.86 12.5862 211.106 12.6721C211.356 12.7542 211.569 12.8889 211.744 13.0764C211.924 13.2639 212.061 13.5081 212.155 13.8088C212.248 14.1057 212.295 14.4709 212.295 14.9045V19.0002H210.877V14.8987C210.877 14.594 210.832 14.3538 210.743 14.178C210.657 13.9983 210.53 13.8713 210.362 13.7971C210.198 13.719 209.993 13.6799 209.746 13.6799C209.504 13.6799 209.287 13.7307 209.096 13.8323C208.905 13.9338 208.743 14.0725 208.61 14.2483C208.481 14.4241 208.381 14.6272 208.311 14.8577C208.241 15.0881 208.205 15.3342 208.205 15.5959Z" fill="white"/>
<path d="M250.69 10.469V19.0002H249.231V10.469H250.69ZM253.368 10.469V11.6409H246.577V10.469H253.368ZM257.542 17.5061V12.6604H258.96V19.0002H257.625L257.542 17.5061ZM257.742 16.1877L258.216 16.176C258.216 16.6018 258.169 16.9944 258.076 17.3538C257.982 17.7092 257.837 18.0198 257.642 18.2854C257.447 18.5471 257.197 18.7522 256.892 18.9006C256.587 19.0452 256.222 19.1174 255.796 19.1174C255.488 19.1174 255.205 19.0725 254.947 18.9827C254.689 18.8928 254.466 18.7542 254.279 18.5667C254.095 18.3792 253.953 18.135 253.851 17.8342C253.75 17.5334 253.699 17.1741 253.699 16.7561V12.6604H255.111V16.7678C255.111 16.9983 255.138 17.1917 255.193 17.3479C255.248 17.5002 255.322 17.6233 255.416 17.717C255.509 17.8108 255.619 17.8772 255.744 17.9163C255.869 17.9553 256.001 17.9749 256.142 17.9749C256.544 17.9749 256.861 17.8967 257.091 17.7405C257.326 17.5803 257.492 17.3655 257.589 17.0959C257.691 16.8264 257.742 16.5237 257.742 16.1877ZM263.071 19.1174C262.602 19.1174 262.178 19.0413 261.799 18.8889C261.424 18.7327 261.104 18.5159 260.838 18.2385C260.576 17.9612 260.375 17.635 260.235 17.26C260.094 16.885 260.024 16.4807 260.024 16.0471V15.8127C260.024 15.3167 260.096 14.8674 260.241 14.4651C260.385 14.0627 260.586 13.719 260.844 13.4338C261.102 13.1448 261.407 12.9241 261.758 12.7717C262.11 12.6194 262.491 12.5432 262.901 12.5432C263.354 12.5432 263.75 12.6194 264.09 12.7717C264.43 12.9241 264.711 13.1389 264.934 13.4163C265.16 13.6897 265.328 14.0159 265.438 14.3948C265.551 14.7737 265.608 15.1917 265.608 15.6487V16.2522H260.709V15.2385H264.213V15.1272C264.205 14.8733 264.155 14.635 264.061 14.4124C263.971 14.1897 263.832 14.01 263.645 13.8733C263.457 13.7366 263.207 13.6682 262.895 13.6682C262.66 13.6682 262.451 13.719 262.268 13.8206C262.088 13.9182 261.938 14.0608 261.817 14.2483C261.696 14.4358 261.602 14.6624 261.535 14.928C261.473 15.1897 261.442 15.4846 261.442 15.8127V16.0471C261.442 16.3245 261.479 16.5823 261.553 16.8206C261.631 17.0549 261.744 17.26 261.893 17.4358C262.041 17.6116 262.221 17.7502 262.432 17.8518C262.643 17.9495 262.883 17.9983 263.153 17.9983C263.493 17.9983 263.795 17.9299 264.061 17.7932C264.326 17.6565 264.557 17.4631 264.752 17.2131L265.496 17.9338C265.36 18.1331 265.182 18.3245 264.963 18.5081C264.744 18.6877 264.477 18.8342 264.16 18.9475C263.848 19.0608 263.485 19.1174 263.071 19.1174Z" fill="white"/>
<path d="M302.497 17.0842L304.196 10.469H305.087L304.987 12.1741L303.171 19.0002H302.245L302.497 17.0842ZM301.225 10.469L302.602 17.0315L302.725 19.0002H301.741L299.766 10.469H301.225ZM307.014 17.0139L308.374 10.469H309.839L307.864 19.0002H306.88L307.014 17.0139ZM305.432 10.469L307.114 17.1018L307.36 19.0002H306.434L304.647 12.1741L304.553 10.469H305.432ZM313.263 19.1174C312.794 19.1174 312.371 19.0413 311.992 18.8889C311.617 18.7327 311.296 18.5159 311.031 18.2385C310.769 17.9612 310.568 17.635 310.427 17.26C310.287 16.885 310.216 16.4807 310.216 16.0471V15.8127C310.216 15.3167 310.289 14.8674 310.433 14.4651C310.578 14.0627 310.779 13.719 311.037 13.4338C311.294 13.1448 311.599 12.9241 311.951 12.7717C312.302 12.6194 312.683 12.5432 313.093 12.5432C313.546 12.5432 313.943 12.6194 314.283 12.7717C314.623 12.9241 314.904 13.1389 315.126 13.4163C315.353 13.6897 315.521 14.0159 315.63 14.3948C315.744 14.7737 315.8 15.1917 315.8 15.6487V16.2522H310.902V15.2385H314.406V15.1272C314.398 14.8733 314.347 14.635 314.253 14.4124C314.164 14.1897 314.025 14.01 313.837 13.8733C313.65 13.7366 313.4 13.6682 313.087 13.6682C312.853 13.6682 312.644 13.719 312.46 13.8206C312.281 13.9182 312.13 14.0608 312.009 14.2483C311.888 14.4358 311.794 14.6624 311.728 14.928C311.666 15.1897 311.634 15.4846 311.634 15.8127V16.0471C311.634 16.3245 311.671 16.5823 311.746 16.8206C311.824 17.0549 311.937 17.26 312.085 17.4358C312.234 17.6116 312.414 17.7502 312.625 17.8518C312.835 17.9495 313.076 17.9983 313.345 17.9983C313.685 17.9983 313.988 17.9299 314.253 17.7932C314.519 17.6565 314.75 17.4631 314.945 17.2131L315.689 17.9338C315.552 18.1331 315.375 18.3245 315.156 18.5081C314.937 18.6877 314.669 18.8342 314.353 18.9475C314.041 19.0608 313.677 19.1174 313.263 19.1174ZM320.637 17.6877V10.0002H322.055V19.0002H320.772L320.637 17.6877ZM316.512 15.9006V15.7776C316.512 15.2971 316.569 14.8596 316.682 14.4651C316.795 14.0667 316.959 13.7249 317.174 13.4397C317.389 13.1506 317.651 12.9299 317.959 12.7776C318.268 12.6213 318.616 12.5432 319.002 12.5432C319.385 12.5432 319.721 12.6174 320.01 12.7659C320.299 12.9143 320.545 13.1272 320.748 13.4045C320.951 13.678 321.114 14.0061 321.235 14.3889C321.356 14.7678 321.442 15.1897 321.493 15.6545V16.0471C321.442 16.5002 321.356 16.9143 321.235 17.2893C321.114 17.6643 320.951 17.9885 320.748 18.262C320.545 18.5354 320.297 18.7463 320.004 18.8948C319.715 19.0432 319.377 19.1174 318.991 19.1174C318.608 19.1174 318.262 19.0374 317.953 18.8772C317.649 18.717 317.389 18.4924 317.174 18.2034C316.959 17.9143 316.795 17.5745 316.682 17.1838C316.569 16.7893 316.512 16.3616 316.512 15.9006ZM317.924 15.7776V15.9006C317.924 16.1897 317.95 16.4592 318 16.7092C318.055 16.9592 318.139 17.1799 318.252 17.3713C318.366 17.5588 318.512 17.7073 318.692 17.8167C318.875 17.9221 319.094 17.9749 319.348 17.9749C319.668 17.9749 319.932 17.9045 320.139 17.7639C320.346 17.6233 320.508 17.4338 320.625 17.1956C320.746 16.9534 320.828 16.6838 320.871 16.387V15.3264C320.848 15.0959 320.799 14.8811 320.725 14.6819C320.655 14.4827 320.559 14.3088 320.438 14.1604C320.317 14.0081 320.166 13.8909 319.987 13.8088C319.811 13.7229 319.602 13.6799 319.36 13.6799C319.102 13.6799 318.883 13.7346 318.703 13.844C318.524 13.9534 318.375 14.1038 318.258 14.2952C318.145 14.4866 318.061 14.7092 318.006 14.9631C317.951 15.217 317.924 15.4885 317.924 15.7776Z" fill="white"/>
<rect x="237.627" y="58.7288" width="45.2113" height="18.0845" rx="2" fill="#FF7107"/>
<g clip-path="url(#clip0_789_4033)">
<path d="M242.272 64.6966C242.247 64.6828 242.213 64.6911 242.206 64.6966C242.186 64.6212 242.117 64.5948 242.036 64.612C242.028 64.4905 241.881 64.4385 241.791 64.508C241.712 64.4185 241.598 64.4306 241.531 64.5503C241.476 64.4896 241.392 64.4737 241.342 64.5218C241.183 64.4354 241.082 64.5914 241.089 64.7095C241.091 64.7507 241.128 64.7791 241.146 64.7858C241.127 64.8045 241.129 64.8407 241.129 64.8564L241.129 64.8576C241.055 64.8336 241.007 64.9224 241.02 64.9707C240.911 64.9357 240.839 64.9909 240.854 65.1022C240.734 65.0792 240.69 65.1823 240.717 65.2466C240.661 65.1859 240.583 65.1869 240.551 65.2466C240.491 65.2265 240.423 65.2663 240.423 65.3202C240.342 65.311 240.296 65.3551 240.3 65.4415C240.215 65.4341 240.178 65.5483 240.227 65.5934C240.149 65.6089 240.12 65.707 240.185 65.7562C240.126 65.7765 240.106 65.8504 240.139 65.9016C240.064 65.9144 240.071 66.0065 240.084 66.034C239.994 66.034 239.979 66.1237 240.001 66.1793C239.928 66.1471 239.86 66.2145 239.872 66.2879C239.718 66.2253 239.718 66.4055 239.759 66.4866C239.672 66.5877 239.798 66.648 239.886 66.6108C239.886 66.6314 239.908 66.6518 239.919 66.6595C239.919 66.7067 239.928 66.7542 239.994 66.768C239.988 66.776 239.976 66.7951 239.976 66.8076C239.918 66.801 239.883 66.8337 239.873 66.8508C239.776 66.8188 239.706 66.9042 239.741 66.9971L239.741 66.9982C239.758 67.0411 239.775 67.0879 239.886 67.1728C239.819 67.1926 239.808 67.2586 239.81 67.2914C239.716 67.2356 239.623 67.2896 239.689 67.4046C239.703 67.4273 239.755 67.4735 239.779 67.4929C239.675 67.5296 239.616 67.6661 239.726 67.7854C239.667 67.8356 239.687 67.9231 239.742 67.9666C239.613 67.9666 239.568 68.158 239.709 68.1956C239.636 68.2168 239.597 68.3278 239.666 68.3864C239.594 68.4185 239.607 68.5462 239.679 68.5602C239.65 68.6704 239.71 68.7137 239.772 68.7181C239.699 68.7806 239.743 68.8791 239.778 68.9103C239.689 68.9811 239.717 69.1152 239.8 69.1439C239.725 69.1994 239.761 69.3083 239.836 69.3426C239.828 69.342 239.815 69.3615 239.823 69.4199C239.832 69.488 239.908 69.5303 239.957 69.5671C239.847 69.6406 239.917 69.7713 240.014 69.7713C239.914 69.9313 240.06 70.042 240.148 70.0555C239.934 70.2303 240.256 70.5007 240.324 70.3094C240.353 70.3232 240.395 70.3149 240.4 70.3094C240.41 70.3443 240.446 70.3968 240.491 70.4299C240.471 70.4933 240.543 70.5467 240.585 70.5467C240.602 70.6532 240.694 70.6366 240.722 70.6316L240.723 70.6313C240.723 70.7454 240.904 70.8171 240.962 70.6856C240.989 70.7032 241.024 70.6972 241.039 70.692C241.069 70.7877 241.114 70.8355 241.212 70.841C241.29 70.8454 241.347 70.7484 241.368 70.6994C241.319 70.8127 241.4 70.8754 241.509 70.8613C241.5 70.9928 241.671 71.0397 241.714 70.9027C241.712 70.9361 241.725 71.0044 241.797 71.0103C241.868 71.0162 241.897 70.9214 241.903 70.8732C241.917 70.8886 241.957 70.9196 241.999 70.9211C242.052 70.9229 242.087 70.8861 242.108 70.8539C242.146 70.9358 242.257 71.0498 242.368 70.944C242.378 70.9594 242.405 70.9911 242.436 70.9956C242.467 71 242.497 70.9808 242.508 70.9707C242.523 70.9772 242.621 71.0001 242.669 70.9845C242.733 70.964 242.733 70.9102 242.734 70.8694L242.734 70.8668C242.739 70.8778 242.758 70.9063 242.817 70.956C242.908 71.0334 243.099 71.0489 243.058 70.8732C243.053 70.8528 243.051 70.8539 243.058 70.8456C243.064 70.8373 243.073 70.8401 243.077 70.8539C243.113 70.9266 243.192 70.9919 243.26 70.979C243.328 70.9661 243.319 70.8824 243.323 70.8879C243.326 70.8924 243.337 70.9063 243.362 70.9063C243.418 71.0195 243.55 70.9883 243.62 70.9303C243.668 70.9678 243.717 70.9631 243.735 70.956C243.771 70.9509 243.786 70.8971 243.788 70.8732C243.867 70.956 244.092 71.0195 244.106 70.8079C244.202 70.8739 244.446 70.8376 244.404 70.6828H244.428C244.425 70.7012 244.423 70.7479 244.439 70.7877C244.46 70.8373 244.53 70.8806 244.616 70.8521C244.685 70.8293 244.75 70.7524 244.773 70.7169C244.839 70.7359 244.915 70.7282 244.954 70.6686C245.043 70.6885 245.142 70.6329 245.152 70.5425C245.275 70.5425 245.323 70.4932 245.336 70.4308C245.362 70.4372 245.413 70.4179 245.429 70.405C245.559 70.6015 245.876 70.3342 245.717 70.1613C245.837 70.1183 245.883 70 245.822 69.9111C245.891 69.8397 245.919 69.7452 245.924 69.7069C246.027 69.6416 245.983 69.5074 245.864 69.5386V69.4852C245.954 69.4625 246.02 69.3911 245.998 69.2376C246.23 69.1555 246.094 68.9351 245.989 68.857C246.096 68.937 246.265 68.8083 246.154 68.652C246.187 68.5497 246.137 68.5086 246.089 68.481C246.121 68.401 246.069 68.3477 246.045 68.3299C246.066 68.3064 246.065 68.2441 246.062 68.2158C246.13 68.2158 246.171 68.0889 246.089 68.0337C246.118 68.0089 246.12 67.8972 246.069 67.8755C246.077 67.8525 246.069 67.836 246.049 67.8166C246.062 67.8028 246.062 67.7872 246.054 67.7587C246.097 67.6934 246.07 67.5857 245.991 67.5563C245.985 67.5067 245.942 67.4717 245.925 67.4634C245.973 67.4027 245.968 67.3052 245.865 67.2905C245.863 67.2828 245.856 67.2675 245.849 67.2675C245.862 67.2592 245.904 67.2377 245.957 67.1972C246.052 67.1239 245.971 67.0032 245.865 67.0302C245.873 67.0063 245.865 66.9787 245.865 66.9621C245.895 66.932 245.905 66.8791 245.871 66.8247C245.925 66.7407 245.893 66.6554 245.829 66.6273C245.957 66.6273 245.906 66.4051 245.797 66.436C245.905 66.4055 245.888 66.2324 245.768 66.2324C245.831 66.1892 245.849 66.0642 245.716 66.0451C245.731 65.9662 245.699 65.9173 245.631 65.8795C245.667 65.7954 245.613 65.7109 245.527 65.6854C245.512 65.6374 245.5 65.6005 245.46 65.5667C245.46 65.5306 245.444 65.4954 245.422 65.4674C245.436 65.4023 245.429 65.3533 245.38 65.2991C245.4 65.2206 245.357 65.1261 245.276 65.1032C245.232 65.0026 245.079 64.9473 244.995 65.0378C244.961 64.9348 244.841 64.8916 244.745 64.9548C244.745 64.9122 244.689 64.8677 244.646 64.852C244.604 64.7784 244.505 64.7372 244.423 64.7683C244.413 64.7661 244.374 64.7573 244.336 64.7573C244.299 64.6714 244.238 64.6393 244.138 64.6414C244.076 64.5616 243.963 64.5889 243.895 64.6368C243.802 64.6272 243.692 64.6662 243.682 64.772C243.636 64.7705 243.575 64.8079 243.562 64.8355C243.534 64.8235 243.511 64.8143 243.415 64.7959C243.318 64.7775 243.246 64.7849 243.204 64.7959C243.269 64.7288 243.204 64.5393 243.08 64.5954C243.054 64.5245 242.954 64.5016 242.902 64.5568C242.873 64.5186 242.792 64.5112 242.751 64.5329C242.735 64.4308 242.627 64.3425 242.539 64.462C242.474 64.4315 242.371 64.4662 242.387 64.5605C242.306 64.548 242.243 64.5936 242.272 64.6966Z" fill="#433D3D"/>
<path d="M239.778 67.4928L239.776 67.4956C239.824 67.5224 239.874 67.5405 239.916 67.5343C239.979 67.5247 239.986 67.4428 239.99 67.3931C239.99 67.3876 239.99 67.3825 239.991 67.3779C239.996 67.3811 240.002 67.3869 240.008 67.3934C240.024 67.4093 240.044 67.43 240.077 67.4322C240.148 67.4368 240.187 67.3724 240.194 67.3015C240.202 67.2307 240.177 67.0464 240.066 67.0587C239.994 67.0668 239.986 67.1418 239.991 67.1783C239.957 67.1654 239.922 67.1672 239.879 67.1718L239.875 67.1719C239.818 67.1957 239.807 67.2604 239.81 67.2914C239.78 67.2736 239.711 67.2478 239.675 67.2868C239.631 67.3355 239.655 67.3944 239.681 67.4147C239.702 67.4308 239.755 67.4735 239.778 67.4928Z" fill="#212121"/>
<path d="M245.825 69.9159C245.822 69.9132 245.819 69.9106 245.816 69.9083C245.756 69.8626 245.71 69.8621 245.653 69.8846C245.687 69.8018 245.604 69.7167 245.522 69.7574C245.551 69.6706 245.496 69.6067 245.403 69.6262C245.471 69.5518 245.428 69.4383 245.317 69.4476C245.395 69.3708 245.367 69.2656 245.256 69.2461C245.344 69.2156 245.382 69.0996 245.269 69.0467C245.382 69.0467 245.428 68.8469 245.317 68.804C245.076 68.7119 245.017 68.8993 245.041 68.973C244.963 69.0335 244.931 69.2645 245.098 69.3089C244.987 69.3993 245.041 69.5411 245.143 69.5411C245.051 69.6426 245.098 69.7681 245.256 69.7362C245.162 69.8709 245.304 69.956 245.382 69.9083C245.354 70.0571 245.478 70.0819 245.539 70.0449C245.557 70.1062 245.6 70.142 245.647 70.1569C245.62 70.1635 245.593 70.18 245.566 70.2091C245.542 70.1153 245.434 70.1079 245.368 70.1695C245.388 70.0667 245.308 70.0085 245.219 70.0481C245.273 69.9535 245.198 69.8832 245.099 69.9009C245.177 69.8034 245.111 69.7255 245.024 69.7255C245.089 69.6282 245.013 69.5544 244.953 69.5404C245.052 69.4206 244.99 69.3195 244.916 69.2947C244.831 69.3556 244.803 69.5122 244.783 69.6172L244.781 69.627L244.778 69.6418C244.759 69.808 244.799 69.8515 244.897 69.8777C244.832 70.038 244.936 70.1188 245.034 70.0926C245.006 70.2544 245.144 70.3319 245.224 70.2953C245.252 70.4001 245.305 70.4336 245.356 70.4317C245.379 70.4294 245.407 70.4185 245.423 70.409C245.425 70.408 245.426 70.4068 245.428 70.4057L245.429 70.405C245.558 70.6002 245.871 70.3377 245.72 70.1647L245.718 70.1639L245.719 70.1638L245.717 70.1613C245.835 70.119 245.881 70.0042 245.825 69.9159Z" fill="#212121"/>
<path d="M245.584 68.5042C245.52 68.5483 245.541 68.6767 245.626 68.6885C245.527 68.7071 245.542 68.8744 245.65 68.8864C245.554 68.9579 245.626 69.0875 245.74 69.051C245.75 69.1806 246.017 69.1347 245.91 68.9396C245.989 68.8864 245.956 68.7961 245.87 68.7806C245.974 68.7381 245.948 68.6262 245.857 68.5947C245.942 68.5592 245.925 68.4561 245.857 68.4286C245.922 68.3918 245.916 68.2967 245.845 68.2609C245.913 68.2213 245.915 68.1009 245.817 68.0791C245.884 68.0018 245.853 67.9028 245.772 67.8817C245.844 67.817 245.781 67.6762 245.677 67.6762C245.677 67.5213 245.423 67.4897 245.349 67.7163C245.313 67.8284 245.418 68.064 245.501 68.2489C245.56 68.3812 245.608 68.4875 245.584 68.5042Z" fill="#212121"/>
<path d="M240.505 69.0309C240.465 68.92 240.54 68.7841 240.757 68.8509C240.974 68.9177 240.9 69.3017 240.671 69.3171C240.737 69.4089 240.683 69.5375 240.587 69.5214C240.638 69.6191 240.634 69.6923 240.523 69.723C240.56 69.8634 240.34 69.9549 240.293 69.7917C240.113 69.8232 240.106 69.5671 240.282 69.5858C240.233 69.4617 240.32 69.4142 240.368 69.4089C240.306 69.2745 240.394 69.2327 240.445 69.2286C240.379 69.1385 240.421 69.0476 240.505 69.0309Z" fill="#212121"/>
<path d="M239.972 68.4816C239.881 68.3792 239.926 68.3034 239.959 68.2672C239.862 68.1978 239.876 68.0639 239.998 68.0403C239.881 67.9448 239.942 67.7732 240.1 67.7998C240.004 67.6552 240.23 67.5402 240.37 67.7242C240.532 68.0144 240.319 68.7441 240.319 68.7441C240.385 68.8274 240.352 68.9041 240.292 68.9331C240.352 69.0308 240.292 69.095 240.228 69.1087C240.274 69.2248 240.226 69.2751 240.159 69.2953C240.225 69.4239 240.14 69.4663 240.092 69.4752C240.074 69.6107 239.956 69.5998 239.874 69.5225C239.792 69.4451 239.8 69.3796 239.833 69.3409C239.859 69.3099 239.894 69.3091 239.908 69.3126C239.833 69.1998 239.916 69.1246 239.972 69.1087C239.922 68.998 239.987 68.9363 240.029 68.921C239.94 68.854 239.959 68.7585 240.029 68.7027C239.908 68.6662 239.908 68.5395 239.972 68.4816Z" fill="#212121"/>
<path d="M241.364 70.7072C241.341 70.758 241.286 70.8452 241.212 70.841C241.114 70.8355 241.069 70.7877 241.039 70.692L241.037 70.6925C241.028 70.6369 241.07 70.5601 241.151 70.5427C241.136 70.482 241.152 70.408 241.243 70.3861C241.224 70.3467 241.225 70.2381 241.343 70.221C241.287 70.1287 241.42 69.9438 241.581 70.0887C241.744 70.2347 241.555 70.4008 241.485 70.4094C241.503 70.4697 241.488 70.6018 241.389 70.6018C241.389 70.6378 241.375 70.6801 241.364 70.7072Z" fill="#212121"/>
<path d="M240.49 70.4298L240.49 70.4309C240.592 70.4823 240.728 70.43 240.65 70.2992C240.77 70.3139 240.787 70.178 240.74 70.1085C240.831 70.1416 240.905 70.0348 240.87 69.9236C240.983 69.9571 241.019 69.7855 240.983 69.7128C241.421 69.5246 240.925 69.0622 240.87 69.502C240.759 69.487 240.666 69.6278 240.74 69.7648C240.659 69.7006 240.563 69.846 240.633 69.9571C240.544 69.9016 240.449 70.0384 240.507 70.1432C240.428 70.1161 240.362 70.202 240.397 70.311C240.399 70.3104 240.4 70.3099 240.4 70.3093C240.409 70.3443 240.446 70.3967 240.49 70.4298Z" fill="#212121"/>
<path d="M240.723 70.634L240.723 70.6313L240.722 70.6314C240.705 70.5741 240.697 70.4921 240.804 70.4763C240.773 70.4121 240.786 70.322 240.893 70.322C240.893 70.322 240.832 70.1861 240.964 70.1861C240.914 70.0903 240.967 70.0212 241.05 70.0146C240.995 69.8902 241.098 69.8205 241.147 69.8087C241.163 69.8226 241.384 69.9935 241.384 69.9935L241.373 69.9972C241.269 70.0329 241.2 70.0565 241.226 70.1606C241.138 70.1606 241.096 70.2589 241.132 70.322C241.05 70.3301 241.009 70.4266 241.056 70.4942C240.944 70.5414 240.952 70.6094 240.959 70.6661C240.96 70.6731 240.96 70.6799 240.961 70.6865C240.916 70.8073 240.767 70.7697 240.731 70.6743L240.73 70.6672C240.728 70.6558 240.726 70.6445 240.723 70.634Z" fill="#212121"/>
<path d="M245.864 69.4852C245.865 69.4848 245.866 69.4841 245.868 69.4831C245.758 69.5019 245.679 69.3499 245.751 69.2801C245.65 69.3481 245.554 69.2394 245.606 69.1531C245.521 69.177 245.474 69.0845 245.506 68.9793C245.406 68.9793 245.357 69.1758 245.457 69.2503C245.386 69.3525 245.458 69.505 245.568 69.4769C245.495 69.5743 245.594 69.7184 245.712 69.6724C245.724 69.7851 245.805 69.8289 245.885 69.8205C245.909 69.7738 245.921 69.73 245.924 69.7069C245.989 69.6656 245.985 69.6063 245.975 69.5818C245.948 69.5165 245.864 69.5385 245.864 69.5385V69.4852Z" fill="#212121"/>
<path d="M242.108 70.8548L242.107 70.8539C242.086 70.8861 242.051 70.9229 241.999 70.921C241.957 70.9196 241.917 70.8885 241.902 70.8732C241.897 70.9213 241.868 71.0161 241.797 71.0102C241.739 71.0055 241.719 70.9604 241.715 70.9256C241.718 70.7981 241.725 70.6183 241.881 70.6451C241.903 70.6079 241.933 70.5709 242.02 70.5881C242.1 70.6038 242.14 70.715 242.108 70.8548Z" fill="#212121"/>
<path d="M242.734 70.8668C242.734 70.8676 242.735 70.8685 242.735 70.8696C242.714 70.7654 242.601 70.6806 242.532 70.6903C242.448 70.702 242.456 70.7843 242.471 70.8241C242.394 70.8231 242.371 70.8783 242.371 70.9494C242.383 70.9658 242.408 70.9916 242.436 70.9955C242.467 70.9999 242.497 70.9808 242.508 70.9707C242.522 70.9771 242.621 71.0001 242.669 70.9845C242.732 70.964 242.733 70.9102 242.734 70.8694L242.734 70.8668Z" fill="#212121"/>
<path d="M243.324 70.889C243.323 70.8886 243.323 70.8882 243.323 70.8879C243.322 70.8868 243.322 70.8893 243.321 70.894C243.319 70.913 243.314 70.9687 243.26 70.979C243.192 70.9919 243.113 70.9265 243.077 70.8539C243.075 70.8484 243.073 70.8447 243.07 70.8427C243.061 70.8183 243.055 70.7945 243.051 70.7751L243.05 70.7739C243.029 70.6883 243.179 70.6524 243.246 70.767C243.252 70.7764 243.26 70.7865 243.268 70.7972C243.29 70.8258 243.315 70.858 243.324 70.889Z" fill="#212121"/>
<path d="M243.787 70.8732L243.789 70.8747C243.785 70.8515 243.774 70.8296 243.762 70.8171C243.851 70.7913 243.924 70.6975 243.833 70.6313C243.742 70.5651 243.619 70.6433 243.563 70.7251C243.513 70.7973 243.561 70.888 243.625 70.9343C243.672 70.9674 243.717 70.9628 243.735 70.956C243.771 70.9508 243.786 70.8971 243.787 70.8732Z" fill="#212121"/>
<path d="M244.769 70.7208L244.768 70.7205C244.744 70.7561 244.679 70.8329 244.61 70.8557C244.524 70.8842 244.454 70.841 244.434 70.7913C244.418 70.7516 244.42 70.7049 244.423 70.6865H244.421L244.421 70.6856C244.356 70.6911 244.249 70.6193 244.327 70.5062C244.283 70.501 244.192 70.473 244.204 70.4041C244.215 70.3352 244.368 70.2087 244.443 70.1541C244.463 70.1786 244.496 70.2443 244.472 70.3107C244.52 70.3204 244.605 70.3667 244.561 70.4746C244.6 70.4784 244.676 70.5062 244.665 70.5867C244.715 70.5805 244.794 70.6066 244.769 70.7208Z" fill="#212121"/>
<path d="M244.992 70.3708C245.097 70.3559 245.171 70.397 245.153 70.5424L245.152 70.5425C245.142 70.6287 245.052 70.6832 244.966 70.6709C244.962 70.6691 244.959 70.6676 244.956 70.6666C244.981 70.5669 244.924 70.463 244.819 70.501C244.835 70.4038 244.781 70.3583 244.703 70.3708C244.727 70.3178 244.703 70.2262 244.594 70.2376C244.632 70.176 244.636 70.0924 244.512 70.053C244.384 70.0122 244.462 69.8253 244.632 69.8707C244.723 69.8847 244.778 69.9935 244.749 70.0996C244.808 70.0996 244.868 70.1346 244.859 70.2376C244.956 70.2216 245.004 70.2817 244.992 70.3708Z" fill="#212121"/>
<path d="M245.727 68.2179C245.727 68.608 245.411 68.9243 245.021 68.9243C244.631 68.9243 244.314 68.608 244.314 68.2179C244.314 67.8278 244.631 67.5115 245.021 67.5115C245.411 67.5115 245.727 67.8278 245.727 68.2179Z" fill="#F4C6AD"/>
<path d="M241.489 68.2414C241.489 68.6316 241.172 68.9479 240.782 68.9479C240.392 68.9479 240.076 68.6316 240.076 68.2414C240.076 67.8513 240.392 67.535 240.782 67.535C241.172 67.535 241.489 67.8513 241.489 68.2414Z" fill="#F4C6AD"/>
<path d="M241.557 66.1127C241.621 66.1065 241.629 66.0199 241.615 65.9799C241.66 65.9799 241.687 65.9335 241.687 65.8866C241.709 65.8967 241.765 65.8802 241.782 65.8395C241.815 65.8508 241.871 65.8526 241.909 65.8029C241.982 65.8555 242.14 65.7454 242.099 65.657C242.115 65.67 242.159 65.686 242.204 65.6462C242.194 65.7462 242.297 65.8104 242.389 65.8104C242.384 65.9241 242.482 65.947 242.571 65.914C242.438 65.9784 242.45 66.1144 242.571 66.1516C242.314 66.3404 242.711 66.5934 242.817 66.3741C242.87 66.4546 243.003 66.405 243.035 66.3643C243.059 66.3615 243.11 66.3481 243.12 66.3179C243.133 66.2801 243.13 66.2348 243.109 66.2142C243.152 66.189 243.239 66.1376 243.245 66.1332C243.246 66.1321 243.245 66.1346 243.244 66.1398C243.239 66.1585 243.226 66.2114 243.269 66.2477C243.313 66.2849 243.372 66.2812 243.396 66.2747C243.381 66.301 243.359 66.3646 243.396 66.4086C243.441 66.4637 243.555 66.4561 243.605 66.4324C243.656 66.4086 243.688 66.3751 243.686 66.3363C243.684 66.2974 243.66 66.2542 243.605 66.2553C243.612 66.2488 243.625 66.2261 243.62 66.1872C243.616 66.1484 243.609 66.135 243.605 66.1332L243.661 66.1127C243.668 66.1318 243.695 66.1717 243.75 66.1786C243.803 66.402 244.021 66.2757 243.99 66.1786C244.008 66.171 244.031 66.1073 244.032 66.0771L244.044 66.0847C244.043 66.1134 244.051 66.171 244.094 66.171C244.148 66.171 244.225 66.1311 244.256 66.0847C244.264 66.099 244.304 66.1248 244.405 66.1127C244.474 66.1045 244.498 66.0715 244.503 66.0652C244.503 66.0646 244.504 66.0641 244.504 66.0641C244.504 66.0641 244.504 66.0643 244.503 66.0648C244.499 66.0698 244.476 66.1005 244.495 66.1332C244.446 66.1763 244.443 66.2715 244.527 66.2985C244.44 66.3532 244.431 66.4529 244.515 66.5198C244.484 66.5306 244.427 66.5738 244.443 66.6602C244.464 66.7682 244.611 66.8168 244.644 66.8211C244.749 66.8346 244.756 66.7026 244.685 66.6537C244.785 66.6153 244.835 66.5267 244.732 66.4529C244.721 66.4461 244.709 66.4367 244.702 66.4303C244.698 66.427 244.695 66.4246 244.694 66.4237C244.71 66.4226 244.745 66.4181 244.76 66.4086C244.76 66.4529 244.808 66.5029 244.871 66.5029C244.837 66.5547 244.836 66.6602 244.935 66.6872C244.893 66.7308 244.845 66.833 244.981 66.8935C244.935 66.9118 244.851 67.0176 244.981 67.104C244.935 67.1321 244.85 67.2649 244.994 67.3459C245.051 67.3744 245.088 67.3866 245.1 67.3891L245.136 67.5164L245.086 68.7495C245.032 69.9952 244.072 70.8316 242.899 70.8316C241.726 70.8316 240.765 69.9952 240.711 68.7495L240.668 67.6834H240.674L240.669 67.5654L240.665 67.4294C240.667 67.3309 240.672 67.2483 240.679 67.1784C240.681 67.1817 240.683 67.185 240.685 67.1883C240.711 67.2095 240.793 67.212 240.813 67.1516C240.835 67.0831 240.783 67.0364 240.733 67.0111C240.784 67.0282 240.852 67.0345 240.875 66.9766C240.903 66.9074 240.841 66.8602 240.8 66.8424C240.83 66.853 240.891 66.8564 240.921 66.8071C240.954 66.7535 240.91 66.7009 240.887 66.6797C240.906 66.6905 240.953 66.7023 240.993 66.6635C241.033 66.6246 241.006 66.5594 240.988 66.5317C241.01 66.5404 241.063 66.5525 241.095 66.5317C241.127 66.511 241.134 66.4468 241.133 66.4173C241.151 66.4475 241.202 66.4369 241.231 66.4173C241.21 66.6264 241.506 66.5854 241.487 66.4477C241.588 66.4389 241.593 66.3235 241.522 66.2801C241.615 66.2635 241.615 66.1516 241.557 66.1127Z" fill="#FFD7C2"/>
<path d="M242.901 69.5121C242.678 69.5121 242.469 69.4597 242.293 69.3679C242.233 69.3373 242.168 69.405 242.206 69.4597C242.353 69.6825 242.609 69.8311 242.901 69.8311C243.193 69.8311 243.449 69.6825 243.596 69.4597C243.634 69.4029 243.57 69.3373 243.509 69.3679C243.333 69.4597 243.126 69.5121 242.901 69.5121Z" fill="#990838"/>
<path d="M242.733 68.1301L242.5 68.8764C242.453 69.03 242.567 69.1835 242.729 69.1835H243.074C243.236 69.1835 243.35 69.0276 243.303 68.8764L243.069 68.1301C243.019 67.9648 242.786 67.9648 242.733 68.1301Z" fill="#E5AF93"/>
<path d="M241.724 67.6292C241.959 67.6292 242.201 67.8175 242.318 68.0059C242.177 68.0493 242.046 68.0827 241.918 68.1153C241.769 68.1535 241.623 68.1906 241.471 68.2414L241.235 68.0766C241.141 68.0059 241.117 67.8882 241.259 67.794C241.4 67.6762 241.559 67.6292 241.724 67.6292Z" fill="black"/>
<path d="M244.126 67.6292C243.89 67.6292 243.649 67.8175 243.531 68.0059C243.672 68.0493 243.803 68.0827 243.931 68.1153C244.081 68.1535 244.226 68.1906 244.379 68.2414L244.614 68.0766C244.708 68.0059 244.732 67.8882 244.591 67.794C244.449 67.6762 244.291 67.6292 244.126 67.6292Z" fill="black"/>
<path d="M241.256 68.0924C241.324 67.827 241.566 67.6292 241.852 67.6292C242.149 67.6292 242.398 67.841 242.454 68.1227C242.465 68.1855 242.417 68.2414 242.354 68.2414H241.375C241.296 68.2414 241.238 68.1692 241.256 68.0924Z" fill="white"/>
<path d="M244.546 68.0924C244.479 67.827 244.237 67.6292 243.951 67.6292C243.651 67.6292 243.405 67.841 243.349 68.1227C243.337 68.1855 243.386 68.2414 243.449 68.2414H244.428C244.507 68.2414 244.565 68.1692 244.546 68.0924Z" fill="white"/>
<path d="M241.549 68.137C241.549 67.919 241.726 67.7451 241.942 67.7451C242.158 67.7451 242.333 67.919 242.333 68.137C242.333 68.1741 242.328 68.2089 242.319 68.2414H241.563C241.554 68.2066 241.549 68.1741 241.549 68.137Z" fill="#7D4533"/>
<path d="M244.253 68.137C244.253 67.919 244.076 67.7451 243.86 67.7451C243.644 67.7451 243.467 67.919 243.47 68.137C243.47 68.1741 243.474 68.2089 243.484 68.2414H244.239C244.248 68.2066 244.253 68.1741 244.253 68.137Z" fill="#7D4533"/>
<path d="M241.942 67.9146C242.066 67.9146 242.166 68.0143 242.166 68.1372C242.166 68.1743 242.156 68.2091 242.14 68.2415H241.745C241.729 68.2091 241.719 68.1743 241.719 68.1372C241.719 68.0143 241.819 67.9146 241.942 67.9146Z" fill="black"/>
<path d="M243.858 67.9146C243.735 67.9146 243.635 68.0143 243.635 68.1372C243.635 68.1743 243.644 68.2091 243.66 68.2415H244.056C244.072 68.2091 244.081 68.1743 244.081 68.1372C244.081 68.0143 243.981 67.9146 243.858 67.9146Z" fill="black"/>
<path d="M241.877 67.9871C241.877 68.0262 241.846 68.0578 241.808 68.0578C241.769 68.0578 241.738 68.0262 241.738 67.9871C241.738 67.9481 241.769 67.9165 241.808 67.9165C241.846 67.9165 241.877 67.9481 241.877 67.9871Z" fill="white"/>
<path d="M243.807 67.9871C243.807 68.0262 243.776 68.0578 243.737 68.0578C243.699 68.0578 243.667 68.0262 243.667 67.9871C243.667 67.9481 243.699 67.9165 243.737 67.9165C243.776 67.9165 243.807 67.9481 243.807 67.9871Z" fill="white"/>
<path d="M241.408 67.4005L241.41 67.3994C241.412 67.3983 241.415 67.3965 241.419 67.3941C241.428 67.3893 241.442 67.3823 241.459 67.3738C241.495 67.3569 241.546 67.3348 241.61 67.3146C241.737 67.2739 241.905 67.2433 242.08 67.2742C242.144 67.2855 242.205 67.2428 242.217 67.1787C242.228 67.1147 242.185 67.0536 242.121 67.0423C241.896 67.0026 241.687 67.0426 241.538 67.0903C241.463 67.1142 241.401 67.1407 241.358 67.1613C241.336 67.1716 241.319 67.1805 241.307 67.1871C241.301 67.1904 241.296 67.193 241.293 67.195L241.289 67.1974L241.287 67.1981L241.287 67.1984L241.287 67.1986C241.231 67.232 241.213 67.3044 241.246 67.3601C241.28 67.4158 241.352 67.4338 241.408 67.4005Z" fill="#212121"/>
<path d="M244.556 67.3601C244.59 67.3044 244.572 67.232 244.516 67.1986L244.516 67.1984L244.515 67.1981L244.514 67.1974L244.51 67.195C244.506 67.193 244.502 67.1904 244.496 67.1871C244.484 67.1805 244.466 67.1716 244.445 67.1613C244.401 67.1407 244.34 67.1142 244.265 67.0903C244.115 67.0426 243.907 67.0026 243.682 67.0423C243.617 67.0536 243.575 67.1147 243.586 67.1787C243.597 67.2428 243.658 67.2855 243.722 67.2742C243.897 67.2433 244.066 67.2739 244.193 67.3146C244.256 67.3348 244.308 67.3569 244.343 67.3738C244.361 67.3823 244.375 67.3893 244.383 67.3941C244.388 67.3965 244.391 67.3983 244.393 67.3994L244.395 67.4005L244.395 67.4007C244.451 67.4339 244.523 67.4158 244.556 67.3601Z" fill="#212121"/>
<path d="M242.392 64.9394C242.392 64.9394 242.392 64.7655 242.554 64.8012C242.498 64.7168 242.532 64.6147 242.648 64.6147C242.651 64.6147 242.655 64.6148 242.658 64.6148C242.695 64.6156 242.743 64.6165 242.755 64.5342C242.756 64.5297 242.756 64.5253 242.757 64.5208C242.759 64.4135 242.599 64.3289 242.532 64.4519C242.475 64.4089 242.367 64.4669 242.381 64.5485C242.294 64.5353 242.211 64.599 242.265 64.6919L242.263 64.6915C242.265 64.6938 242.267 64.6961 242.269 64.6984C242.297 64.7311 242.3 64.7902 242.269 64.8226C242.344 64.8302 242.362 64.8708 242.392 64.9387L242.392 64.9394Z" fill="#212121"/>
<path d="M241.807 64.7415C241.814 64.7992 241.883 64.8368 241.94 64.8039C241.866 64.8569 241.9 64.9786 242.019 64.9458C242.047 65.1109 242.353 65.005 242.192 64.8245C242.205 64.8048 242.228 64.7557 242.214 64.6985C242.213 64.6991 242.212 64.6997 242.211 64.7002C242.211 64.6993 242.211 64.6981 242.211 64.6969C242.208 64.6847 242.202 64.6584 242.161 64.6276C242.125 64.6003 242.063 64.6043 242.04 64.6092C242.04 64.5944 242.022 64.5163 241.962 64.485C241.889 64.4465 241.827 64.4767 241.795 64.5015C241.793 64.4999 241.792 64.4982 241.79 64.4963C241.776 64.48 241.755 64.4549 241.714 64.4454C241.626 64.4252 241.565 64.4795 241.532 64.5383C241.532 64.5383 241.524 64.5015 241.49 64.485C241.437 64.4585 241.367 64.4776 241.342 64.5015C241.277 64.4454 241.182 64.485 241.136 64.5383C241.09 64.5917 241.084 64.6588 241.087 64.7103C241.087 64.725 241.092 64.7375 241.1 64.7478C241.13 64.7119 241.178 64.6777 241.248 64.6917C241.284 64.6187 241.388 64.6208 241.435 64.6648C241.499 64.6102 241.577 64.6335 241.609 64.6791C241.677 64.6282 241.798 64.6664 241.807 64.7415Z" fill="#212121"/>
<path d="M241.137 65.5798C241.205 65.5699 241.23 65.49 241.176 65.426C241.248 65.3899 241.262 65.3425 241.217 65.2678C241.293 65.2678 241.305 65.2115 241.293 65.138C241.366 65.1791 241.417 65.1152 241.417 65.0555C241.449 65.1077 241.555 65.1075 241.601 65.0555C241.616 65.1206 241.739 65.1289 241.765 65.0555C241.913 65.0771 241.956 64.8492 241.739 64.8143C241.751 64.7482 241.652 64.6964 241.588 64.7545C241.569 64.6994 241.459 64.677 241.417 64.7391C241.402 64.6984 241.294 64.6831 241.265 64.7545C241.212 64.7102 241.11 64.787 241.121 64.8492C241.053 64.8293 240.983 64.9157 241.018 64.9781C240.938 64.9781 240.929 65.1153 240.995 65.138C240.889 65.1194 240.85 65.2565 240.938 65.3101C240.831 65.3101 240.829 65.4452 240.912 65.4894C240.777 65.5464 240.858 65.6725 240.938 65.7091C241.019 65.7457 241.159 65.7039 241.137 65.5798Z" fill="#212121"/>
<path d="M243.047 65.207C243.035 65.1436 242.968 65.116 242.904 65.1411C242.893 65.059 242.831 65.0249 242.732 65.0406C242.681 64.9293 242.561 64.932 242.469 64.9628C242.469 64.8978 242.511 64.8226 242.62 64.8448C242.647 64.7716 242.733 64.7666 242.791 64.8001C242.822 64.7591 242.925 64.7564 242.949 64.8226C242.997 64.783 243.089 64.8001 243.089 64.8848C243.164 64.8538 243.256 64.9237 243.236 64.9796C243.32 64.9617 243.375 65.0122 243.375 65.0893C243.431 65.0893 243.493 65.1438 243.484 65.2144C243.576 65.228 243.588 65.2807 243.588 65.3404C243.65 65.3523 243.708 65.4123 243.674 65.4944C243.749 65.4912 243.805 65.566 243.777 65.6504C243.857 65.6726 243.894 65.7418 243.857 65.8206C243.939 65.8386 243.977 65.9273 243.931 65.9963C244.026 66.0071 244.062 66.0998 244.001 66.1719C244.115 66.1629 244.144 66.352 244.007 66.3391C244.015 66.4536 243.83 66.4835 243.826 66.352C243.688 66.3738 243.683 66.2182 243.742 66.1784C243.627 66.1425 243.647 66.0337 243.674 65.9963C243.572 65.981 243.576 65.8934 243.619 65.8326C243.502 65.8326 243.478 65.7468 243.507 65.6817C243.409 65.69 243.371 65.5988 243.404 65.5354C243.317 65.5612 243.256 65.4701 243.295 65.402C243.198 65.4223 243.154 65.3496 243.174 65.2953C243.089 65.3092 243.059 65.2705 243.047 65.207Z" fill="#212121"/>
<path d="M243.12 66.3181C243.13 66.2888 243.131 66.255 243.12 66.2317C243.097 66.1967 243.05 66.1675 242.986 66.1629C243.109 66.1122 243.096 65.9521 242.972 65.9044C242.995 65.8467 242.996 65.7392 242.856 65.6998C242.877 65.6306 242.856 65.5234 242.732 65.5303C242.739 65.4476 242.678 65.4147 242.597 65.4312C242.587 65.3631 242.504 65.3445 242.438 65.3706C242.424 65.3364 242.356 65.2954 242.29 65.347C242.12 65.2548 241.981 65.5818 242.275 65.593C242.257 65.6744 242.376 65.7429 242.454 65.6901C242.434 65.7802 242.518 65.8465 242.597 65.7943C242.554 65.8651 242.606 65.9424 242.718 65.9322C242.651 66.0058 242.734 66.128 242.824 66.1086C242.718 66.2876 242.879 66.39 243.033 66.3665L243.035 66.3645C243.059 66.3616 243.11 66.3483 243.12 66.3181Z" fill="#212121"/>
<path d="M243.62 66.1874C243.618 66.1656 243.614 66.1518 243.611 66.1436L243.608 66.137L243.607 66.135C243.606 66.1342 243.606 66.1337 243.605 66.1334L243.606 66.1331C243.576 66.0748 243.556 66.05 243.506 66.0269C243.541 65.9378 243.486 65.8728 243.42 65.8685C243.469 65.7302 243.361 65.6692 243.3 65.6686C243.316 65.535 243.217 65.5007 243.161 65.4974C243.163 65.4039 243.126 65.3539 243.022 65.3539C243.034 65.2464 242.937 65.2041 242.861 65.2177C242.87 65.1258 242.77 65.0852 242.693 65.1241C242.693 65.0387 242.566 65.013 242.514 65.0525C242.46 64.9901 242.349 64.9817 242.304 65.0709C242.135 65.04 242.029 65.2028 242.122 65.3257C242.159 65.2503 242.234 65.2177 242.304 65.2914C242.359 65.2115 242.461 65.2353 242.475 65.3184C242.557 65.2634 242.632 65.3001 242.64 65.3789C242.735 65.3539 242.8 65.3886 242.779 65.4867C242.89 65.461 242.967 65.5528 242.931 65.6554C243.014 65.6554 243.089 65.731 243.044 65.8432C243.044 65.8432 243.069 65.9177 243.142 65.9177C243.099 66.0008 243.162 66.1231 243.253 66.1048C243.248 66.1151 243.245 66.1251 243.242 66.1348C243.243 66.1342 243.244 66.1337 243.244 66.1334C243.246 66.1322 243.245 66.1348 243.244 66.14C243.239 66.1587 243.226 66.2115 243.269 66.2479C243.313 66.285 243.372 66.2813 243.396 66.2749C243.38 66.3011 243.359 66.3647 243.396 66.4088C243.441 66.4638 243.554 66.4563 243.605 66.4325C243.656 66.4088 243.688 66.3753 243.686 66.3364C243.684 66.2975 243.66 66.2544 243.605 66.2554C243.612 66.249 243.624 66.2263 243.62 66.1874Z" fill="#212121"/>
<path d="M241.737 65.582C241.729 65.6521 241.654 65.699 241.586 65.6514C241.586 65.7277 241.527 65.7834 241.438 65.7532C241.473 65.8432 241.414 65.8998 241.328 65.8905C241.414 65.9259 241.386 66.053 241.314 66.0651C241.506 66.2095 241.182 66.3472 241.174 66.1832C241.006 66.2089 240.954 65.9764 241.124 65.9342C241.027 65.847 241.068 65.7075 241.228 65.7142C241.152 65.621 241.211 65.478 241.367 65.5105C241.318 65.3928 241.416 65.3063 241.538 65.3654C241.514 65.27 241.633 65.1812 241.763 65.2743C241.763 65.1292 242.023 65.1422 241.989 65.3133C242.145 65.2967 242.119 65.6471 241.903 65.5482C241.865 65.6254 241.775 65.6449 241.737 65.582Z" fill="#212121"/>
<path d="M243.443 64.7891C243.239 64.7567 243.18 64.805 243.145 64.8341L243.141 64.8373C243.199 64.8161 243.292 64.8373 243.301 64.922C243.389 64.8917 243.461 64.9682 243.438 65.0452C243.529 65.0235 243.578 65.0934 243.554 65.162C243.645 65.1693 243.672 65.2133 243.672 65.2993C243.763 65.316 243.799 65.3513 243.799 65.4459C243.901 65.4608 243.938 65.5406 243.912 65.6378C244.005 65.6378 244.114 65.6763 244.044 65.847C243.969 66.0281 244.379 66.0826 244.271 65.7824C244.368 65.7249 244.329 65.5659 244.214 65.5368C244.315 65.4607 244.206 65.292 244.09 65.3402C244.145 65.2228 244.065 65.1538 243.969 65.1713C244.006 65.0655 243.92 65.0025 243.83 65.0452C243.854 64.9524 243.77 64.875 243.69 64.922C243.701 64.8373 243.632 64.8033 243.566 64.8281L243.564 64.8257C243.55 64.8113 243.543 64.8049 243.443 64.7891Z" fill="#212121"/>
<path d="M243.75 64.6607C243.721 64.6829 243.687 64.7187 243.678 64.7651C243.677 64.7978 243.688 64.8248 243.715 64.8474C243.76 64.8837 243.827 64.8773 243.849 64.8326C243.855 64.8712 243.935 64.8906 243.978 64.8612C243.972 64.9099 244.041 64.9678 244.098 64.9389C244.06 64.9933 244.126 65.0655 244.196 65.04C244.17 65.1173 244.208 65.1761 244.297 65.1651C244.239 65.2373 244.277 65.3207 244.369 65.3207C244.326 65.4288 244.436 65.4952 244.526 65.4593C244.685 65.3952 244.657 65.2142 244.543 65.13C244.602 65.0456 244.534 64.9389 244.462 64.9389C244.484 64.8715 244.471 64.7885 244.358 64.7566L244.341 64.7545C244.334 64.7392 244.312 64.7006 244.276 64.6689C244.241 64.6373 244.173 64.6306 244.143 64.6312C244.134 64.619 244.101 64.5926 244.045 64.5852C243.975 64.576 243.946 64.5935 243.893 64.6312C243.84 64.6257 243.782 64.6368 243.75 64.6607Z" fill="#212121"/>
<path d="M244.761 66.4167L244.777 66.4509C244.768 66.4382 244.763 66.4257 244.761 66.4167Z" fill="#212121"/>
<path d="M244.759 66.4102L244.759 66.4088C244.745 66.4183 244.709 66.4228 244.694 66.4239C244.815 66.4887 244.83 66.6139 244.685 66.6539C244.759 66.7015 244.74 66.8356 244.635 66.8221C244.553 66.8115 244.455 66.7706 244.435 66.6626C244.418 66.5762 244.484 66.5308 244.514 66.52C244.426 66.4458 244.44 66.3533 244.527 66.2986C244.435 66.2619 244.446 66.1764 244.495 66.1334C244.485 66.1254 244.477 66.1199 244.47 66.1161L244.47 66.1158C244.396 66.0094 244.49 65.9288 244.497 65.9318C244.414 65.897 244.42 65.7382 244.514 65.722C244.396 65.4678 244.84 65.4958 244.709 65.7548C244.765 65.7919 244.82 65.8911 244.744 65.9765C244.811 66.033 244.837 66.158 244.733 66.2078C244.811 66.2456 244.83 66.3604 244.759 66.4102Z" fill="#212121"/>
<path d="M240.583 65.7321C240.618 65.7345 240.687 65.7056 240.679 65.5703C240.773 65.5703 240.855 65.3993 240.718 65.2356C240.609 65.1062 240.459 65.2751 240.583 65.4021C240.449 65.3285 240.341 65.4756 240.473 65.5952C240.346 65.5703 240.254 65.712 240.373 65.8016C240.301 65.8338 240.192 65.9267 240.332 66.0413C240.269 66.0938 240.205 66.1903 240.332 66.2809C240.158 66.4359 240.433 66.6392 240.468 66.3888C240.613 66.3687 240.665 66.2114 240.507 66.1616C240.624 66.119 240.628 66.0161 240.534 65.9406C240.625 65.9214 240.665 65.7885 240.583 65.7321Z" fill="#212121"/>
<path d="M245.09 66.5832C244.945 66.6048 244.906 66.4407 245.004 66.3798C244.858 66.3896 244.845 66.2594 244.89 66.1819C244.923 66.1247 244.898 66.0208 244.811 65.9766C244.89 65.9199 244.861 65.7911 244.777 65.753C244.811 65.6414 245.034 65.6777 244.994 65.8507C245.089 65.8583 245.134 65.9518 245.077 66.0393C245.176 66.0443 245.212 66.1336 245.157 66.2269C245.237 66.2269 245.318 66.3119 245.266 66.4028C245.37 66.4187 245.39 66.5575 245.3 66.6034C245.343 66.8145 245.004 66.768 245.09 66.5832Z" fill="#212121"/>
<path d="M244.993 65.0369L244.993 65.0365C244.952 65.0953 244.972 65.2167 245.102 65.2167C245.082 65.2623 245.078 65.3554 245.194 65.3691C245.171 65.4068 245.18 65.4877 245.27 65.4993C245.334 65.5075 245.383 65.5713 245.363 65.6421C245.469 65.6421 245.526 65.7447 245.488 65.8115C245.532 65.8115 245.585 65.8177 245.634 65.8748C245.666 65.7904 245.616 65.7029 245.531 65.678C245.531 65.6274 245.515 65.5989 245.468 65.5704C245.479 65.5391 245.469 65.4996 245.425 65.4628C245.454 65.4085 245.451 65.3423 245.388 65.2972C245.407 65.2187 245.381 65.1178 245.285 65.0985C245.227 64.9762 245.077 64.9464 244.993 65.0369Z" fill="#212121"/>
<path d="M244.652 64.8459C244.591 64.7323 244.481 64.7449 244.411 64.7664C244.479 64.7664 244.552 64.8017 244.545 64.9175C244.545 64.9175 244.674 64.961 244.631 65.1251C244.727 65.1485 244.755 65.2556 244.704 65.3545C244.631 65.5297 244.908 65.6141 244.93 65.382C245.091 65.3545 245.017 65.1626 244.908 65.1682C244.946 65.0524 244.848 64.9928 244.781 65.0011C244.804 64.9068 244.724 64.8459 244.652 64.8459Z" fill="#212121"/>
<path d="M245.286 65.7047C245.347 65.6973 245.464 65.7304 245.411 65.885C245.479 65.8892 245.572 65.9567 245.504 66.0708C245.572 66.0634 245.672 66.1738 245.571 66.2658C245.67 66.2842 245.72 66.4074 245.65 66.4884C245.773 66.6024 245.495 66.7275 245.495 66.5215C245.389 66.5215 245.349 66.4107 245.411 66.3136C245.309 66.3265 245.24 66.1885 245.309 66.1278C245.221 66.1186 245.181 66.0634 245.21 65.9512C245.14 65.9751 245.05 65.8095 245.14 65.7654C244.952 65.5821 245.286 65.4552 245.286 65.7047Z" fill="#212121"/>
<path d="M245.865 66.9583C245.88 66.9887 245.876 66.9998 245.867 67.0227L245.865 67.0292C245.893 67.0173 245.95 67.0203 245.978 67.0516C246.005 67.0829 246.013 67.1515 245.96 67.192C245.915 67.2269 245.871 67.2543 245.851 67.2665C245.707 67.3208 245.639 67.2009 245.682 67.138C245.516 67.1677 245.479 67.0244 245.523 66.958C245.423 66.9331 245.394 66.8183 245.458 66.7449C245.556 66.6321 245.804 66.6843 245.736 66.9116C245.801 66.8953 245.846 66.9301 245.865 66.9583Z" fill="#212121"/>
<path d="M244.981 67.1042C244.979 67.1053 244.977 67.1063 244.975 67.1074C244.952 67.1248 244.935 67.1428 244.923 67.1608C244.873 67.2519 244.958 67.3764 245.09 67.3994C245.121 67.4033 245.153 67.4005 245.182 67.3892C245.269 67.3546 245.265 67.2495 245.2 67.2049C245.314 67.1572 245.268 67.031 245.173 66.9944C245.237 67.0045 245.289 66.9334 245.268 66.8121C245.268 66.8121 245.058 66.879 245.024 66.6741C244.99 66.6615 244.956 66.6714 244.93 66.6919C244.89 66.7377 244.849 66.8352 244.981 66.8936C244.934 66.912 244.851 67.0178 244.981 67.1042Z" fill="#212121"/>
<path d="M241.133 66.4174L241.135 66.418L241.134 66.4166C241.121 66.3146 241.108 66.2759 241.052 66.24C241.014 66.2158 240.901 66.218 240.909 66.3146C240.836 66.3099 240.733 66.3222 240.753 66.4801C240.704 66.4932 240.619 66.5512 240.653 66.6788C240.608 66.696 240.535 66.7619 240.59 66.8931C240.51 66.9124 240.461 67.0978 240.68 67.1877C240.693 67.1929 240.71 67.1982 240.729 67.2027C240.762 67.203 240.8 67.1919 240.813 67.1517C240.836 67.0798 240.787 67.0371 240.738 67.013C240.789 67.0287 240.853 67.0327 240.875 66.9768C240.903 66.9076 240.841 66.8604 240.8 66.8426C240.83 66.8532 240.89 66.8565 240.921 66.8073C240.953 66.7537 240.909 66.7011 240.887 66.6798C240.906 66.6906 240.953 66.7025 240.993 66.6636C241.033 66.6248 241.006 66.5596 240.987 66.5319C241.01 66.5405 241.062 66.5526 241.094 66.5319C241.126 66.5112 241.134 66.4469 241.133 66.4174Z" fill="#212121"/>
<path d="M239.879 66.6152C239.855 66.6247 239.802 66.6382 239.766 66.6217C239.719 66.6006 239.702 66.527 239.743 66.4801C239.735 66.4645 239.719 66.4185 239.721 66.3596C239.722 66.286 239.806 66.2354 239.859 66.2731C239.856 66.2492 239.858 66.1959 239.896 66.1738C239.935 66.1517 239.974 66.1591 239.988 66.1655C239.979 66.1431 239.97 66.0906 240.004 66.0597C240.038 66.0288 240.069 66.0297 240.08 66.034L240.08 66.0329C240.083 66.0343 240.086 66.0359 240.088 66.0377C240.22 66.119 240.242 66.2575 240.19 66.3614C240.164 66.4119 240.094 66.4265 240.071 66.4194C240.054 66.5018 240.031 66.5463 239.929 66.5227C239.928 66.5454 239.903 66.5889 239.879 66.6152Z" fill="#212121"/>
<path d="M245.857 67.6869C245.926 67.7125 246.004 67.6789 245.993 67.5571C246.07 67.5876 246.096 67.6939 246.054 67.7586C246.062 67.7872 246.062 67.8028 246.049 67.8166C246.069 67.8359 246.077 67.8525 246.069 67.8755C246.12 67.8971 246.118 68.0088 246.089 68.0337C246.17 68.0889 246.13 68.2158 246.062 68.2158L246.062 68.2197C245.949 68.2426 245.889 68.1403 245.944 68.0616C246.005 67.9739 245.953 67.8635 245.877 67.8635C245.934 67.8397 245.925 67.7122 245.857 67.6869Z" fill="#212121"/>
<path d="M239.782 67.0754C239.841 67.1139 239.948 67.1071 239.996 66.9502C240.096 67.042 240.262 67.0024 240.29 66.8572C240.415 66.937 240.535 66.8436 240.522 66.7001C240.506 66.5303 240.331 66.557 240.318 66.6623C240.23 66.5964 240.123 66.6507 240.142 66.7577C240.077 66.705 240.02 66.7281 239.992 66.7677L239.994 66.768C239.988 66.776 239.976 66.795 239.976 66.8076C239.918 66.8009 239.883 66.8336 239.872 66.8508C239.776 66.8187 239.706 66.9041 239.741 66.997L239.741 66.9981C239.75 67.0211 239.759 67.0451 239.782 67.0754Z" fill="#212121"/>
<path d="M245.862 67.2937L245.867 67.2907C245.963 67.3054 245.972 67.3938 245.931 67.4544C245.929 67.4556 245.928 67.4568 245.926 67.4579C245.879 67.531 245.801 67.537 245.745 67.4822C245.701 67.5431 245.567 67.5078 245.567 67.4274C245.464 67.5392 245.33 67.425 245.39 67.3189C245.282 67.3082 245.271 67.1957 245.343 67.1397C245.273 67.1089 245.294 66.9865 245.373 66.9522C245.354 67.0133 245.39 67.0852 245.464 67.0986C245.426 67.1473 245.472 67.2937 245.612 67.2236C245.589 67.3199 245.753 67.4182 245.862 67.2937Z" fill="#212121"/>
<path d="M240.323 67.5612C240.186 67.5278 240.227 67.3758 240.303 67.3576C240.223 67.2771 240.251 67.2039 240.303 67.1639C240.224 67.1148 240.264 67.0084 240.303 66.9836C240.36 67.0062 240.421 67.0007 240.477 66.9501C240.424 67.0311 240.412 67.1337 240.529 67.1639C240.428 67.2255 240.432 67.2933 240.511 67.3648C240.593 67.4378 240.515 67.6081 240.323 67.5612Z" fill="#212121"/>
<path d="M240.738 65.8769C240.672 65.9199 240.671 66.0508 240.738 66.0791C240.645 66.1467 240.682 66.2407 240.716 66.3066C240.736 66.2533 240.786 66.2178 240.857 66.2407C240.845 66.172 240.91 66.1291 240.971 66.141C240.922 66.1098 240.9 66.0212 240.932 65.9485C240.869 65.9216 240.833 65.8545 240.891 65.7708C240.819 65.7547 240.784 65.721 240.784 65.6173C240.706 65.7156 240.678 65.7775 240.738 65.8769Z" fill="#212121"/>
</g>
<rect x="247.423" y="62.4961" width="33.9085" height="3.01408" rx="1.50704" fill="white" fill-opacity="0.6"/>
<rect x="247.423" y="67.7708" width="22.6056" height="3.01408" rx="1.50704" fill="white" fill-opacity="0.6"/>
<rect x="237.627" y="31.606" width="45.2113" height="18.0845" rx="2" fill="#F34040"/>
<path d="M242.901 36.8804C240.829 36.8804 239.134 38.5758 239.134 40.648C239.134 42.7202 240.829 44.4156 242.901 44.4156C244.974 44.4156 246.669 42.7202 246.669 40.648C246.669 38.5758 244.974 36.8804 242.901 36.8804ZM242.901 43.6621C241.24 43.6621 239.887 42.3095 239.887 40.648C239.887 38.9865 241.24 37.6339 242.901 37.6339C244.563 37.6339 245.915 38.9865 245.915 40.648C245.915 42.3095 244.563 43.6621 242.901 43.6621ZM244.631 38.9827L242.148 41.4655L241.172 40.4935L240.641 41.0247L242.148 42.5318L245.162 39.5177L244.631 38.9827Z" fill="white"/>
<rect x="247.423" y="35.3735" width="33.9085" height="3.01408" rx="1.50704" fill="white" fill-opacity="0.6"/>
<rect x="247.423" y="40.6482" width="22.6056" height="3.01408" rx="1.50704" fill="white" fill-opacity="0.6"/>
<rect x="176" y="33" width="45.2113" height="8.28873" rx="2" fill="#FF8A33"/>
<path d="M186.042 37.4795H184.955V36.7939H186.042C186.21 36.7939 186.347 36.7666 186.452 36.7119C186.558 36.6553 186.635 36.5771 186.684 36.4775C186.732 36.3779 186.757 36.2656 186.757 36.1406C186.757 36.0137 186.732 35.8955 186.684 35.7861C186.635 35.6768 186.558 35.5889 186.452 35.5225C186.347 35.4561 186.21 35.4229 186.042 35.4229H185.26V39H184.381V34.7344H186.042C186.376 34.7344 186.662 34.7949 186.9 34.916C187.141 35.0352 187.324 35.2002 187.451 35.4111C187.578 35.6221 187.642 35.8633 187.642 36.1348C187.642 36.4102 187.578 36.6484 187.451 36.8496C187.324 37.0508 187.141 37.2061 186.9 37.3154C186.662 37.4248 186.376 37.4795 186.042 37.4795ZM188.973 36.5215V39H188.129V35.8301H188.923L188.973 36.5215ZM189.928 35.8096L189.913 36.5918C189.872 36.5859 189.823 36.5811 189.764 36.5771C189.707 36.5713 189.656 36.5684 189.609 36.5684C189.49 36.5684 189.386 36.584 189.298 36.6152C189.212 36.6445 189.14 36.6885 189.081 36.7471C189.025 36.8057 188.982 36.877 188.953 36.9609C188.925 37.0449 188.91 37.1406 188.906 37.248L188.736 37.1953C188.736 36.9902 188.756 36.8018 188.797 36.6299C188.838 36.4561 188.898 36.3047 188.976 36.1758C189.056 36.0469 189.154 35.9473 189.269 35.877C189.384 35.8066 189.516 35.7715 189.664 35.7715C189.711 35.7715 189.759 35.7754 189.808 35.7832C189.857 35.7891 189.897 35.7979 189.928 35.8096ZM190.038 37.4473V37.3857C190.038 37.1533 190.071 36.9395 190.138 36.7441C190.204 36.5469 190.301 36.376 190.428 36.2314C190.555 36.0869 190.711 35.9746 190.896 35.8945C191.082 35.8125 191.295 35.7715 191.535 35.7715C191.775 35.7715 191.989 35.8125 192.177 35.8945C192.364 35.9746 192.521 36.0869 192.648 36.2314C192.777 36.376 192.875 36.5469 192.941 36.7441C193.008 36.9395 193.041 37.1533 193.041 37.3857V37.4473C193.041 37.6777 193.008 37.8916 192.941 38.0889C192.875 38.2842 192.777 38.4551 192.648 38.6016C192.521 38.7461 192.365 38.8584 192.18 38.9385C191.994 39.0186 191.781 39.0586 191.541 39.0586C191.301 39.0586 191.087 39.0186 190.899 38.9385C190.714 38.8584 190.556 38.7461 190.428 38.6016C190.301 38.4551 190.204 38.2842 190.138 38.0889C190.071 37.8916 190.038 37.6777 190.038 37.4473ZM190.882 37.3857V37.4473C190.882 37.5801 190.893 37.7041 190.917 37.8193C190.94 37.9346 190.977 38.0361 191.028 38.124C191.081 38.21 191.149 38.2773 191.233 38.3262C191.317 38.375 191.42 38.3994 191.541 38.3994C191.658 38.3994 191.759 38.375 191.843 38.3262C191.927 38.2773 191.994 38.21 192.045 38.124C192.096 38.0361 192.133 37.9346 192.156 37.8193C192.181 37.7041 192.194 37.5801 192.194 37.4473V37.3857C192.194 37.2568 192.181 37.1357 192.156 37.0225C192.133 36.9072 192.095 36.8057 192.042 36.7178C191.991 36.6279 191.924 36.5576 191.84 36.5068C191.756 36.4561 191.654 36.4307 191.535 36.4307C191.416 36.4307 191.314 36.4561 191.23 36.5068C191.148 36.5576 191.081 36.6279 191.028 36.7178C190.977 36.8057 190.94 36.9072 190.917 37.0225C190.893 37.1357 190.882 37.2568 190.882 37.3857ZM193.54 35.8301H194.387V39.1904C194.387 39.4248 194.344 39.623 194.258 39.7852C194.172 39.9473 194.048 40.0703 193.886 40.1543C193.724 40.2383 193.528 40.2803 193.297 40.2803C193.225 40.2803 193.155 40.2764 193.086 40.2686C193.016 40.2607 192.944 40.248 192.869 40.2305L192.872 39.583C192.919 39.5908 192.965 39.5967 193.01 39.6006C193.053 39.6064 193.097 39.6094 193.142 39.6094C193.23 39.6094 193.303 39.5947 193.362 39.5654C193.42 39.5361 193.464 39.4902 193.493 39.4277C193.525 39.3672 193.54 39.2881 193.54 39.1904V35.8301ZM193.473 35.0039C193.473 34.8809 193.516 34.7793 193.602 34.6992C193.69 34.6191 193.805 34.5791 193.948 34.5791C194.092 34.5791 194.207 34.6191 194.293 34.6992C194.379 34.7793 194.422 34.8809 194.422 35.0039C194.422 35.127 194.379 35.2285 194.293 35.3086C194.207 35.3887 194.092 35.4287 193.948 35.4287C193.805 35.4287 193.69 35.3887 193.602 35.3086C193.516 35.2285 193.473 35.127 193.473 35.0039ZM196.451 39.0586C196.205 39.0586 195.984 39.0195 195.789 38.9414C195.593 38.8613 195.427 38.751 195.291 38.6104C195.156 38.4697 195.052 38.3066 194.98 38.1211C194.908 37.9336 194.872 37.7344 194.872 37.5234V37.4062C194.872 37.166 194.906 36.9463 194.974 36.7471C195.043 36.5479 195.14 36.375 195.267 36.2285C195.396 36.082 195.552 35.9697 195.736 35.8916C195.92 35.8115 196.127 35.7715 196.357 35.7715C196.582 35.7715 196.781 35.8086 196.955 35.8828C197.129 35.957 197.274 36.0625 197.391 36.1992C197.51 36.3359 197.6 36.5 197.661 36.6914C197.721 36.8809 197.752 37.0918 197.752 37.3242V37.6758H195.232V37.1133H196.923V37.0488C196.923 36.9316 196.901 36.8271 196.858 36.7354C196.817 36.6416 196.755 36.5674 196.671 36.5127C196.587 36.458 196.479 36.4307 196.348 36.4307C196.237 36.4307 196.141 36.4551 196.061 36.5039C195.981 36.5527 195.916 36.6211 195.865 36.709C195.816 36.7969 195.779 36.9004 195.754 37.0195C195.73 37.1367 195.718 37.2656 195.718 37.4062V37.5234C195.718 37.6504 195.736 37.7676 195.771 37.875C195.808 37.9824 195.86 38.0752 195.926 38.1533C195.995 38.2314 196.077 38.292 196.173 38.335C196.27 38.3779 196.381 38.3994 196.504 38.3994C196.656 38.3994 196.798 38.3701 196.928 38.3115C197.061 38.251 197.175 38.1602 197.271 38.0391L197.681 38.4844C197.615 38.5801 197.524 38.6719 197.409 38.7598C197.296 38.8477 197.159 38.9199 196.999 38.9766C196.839 39.0312 196.656 39.0586 196.451 39.0586ZM199.476 38.3994C199.579 38.3994 199.671 38.3799 199.751 38.3408C199.831 38.2998 199.894 38.2432 199.939 38.1709C199.985 38.0967 200.01 38.0098 200.012 37.9102H200.806C200.804 38.1328 200.744 38.3311 200.627 38.5049C200.51 38.6768 200.353 38.8125 200.155 38.9121C199.958 39.0098 199.737 39.0586 199.493 39.0586C199.247 39.0586 199.032 39.0176 198.849 38.9355C198.667 38.8535 198.516 38.7402 198.395 38.5957C198.274 38.4492 198.183 38.2793 198.122 38.0859C198.062 37.8906 198.031 37.6816 198.031 37.459V37.374C198.031 37.1494 198.062 36.9404 198.122 36.7471C198.183 36.5518 198.274 36.3818 198.395 36.2373C198.516 36.0908 198.667 35.9766 198.849 35.8945C199.03 35.8125 199.243 35.7715 199.487 35.7715C199.747 35.7715 199.975 35.8213 200.17 35.9209C200.367 36.0205 200.522 36.1631 200.633 36.3486C200.746 36.5322 200.804 36.75 200.806 37.002H200.012C200.01 36.8965 199.987 36.8008 199.944 36.7148C199.903 36.6289 199.843 36.5605 199.763 36.5098C199.685 36.457 199.588 36.4307 199.473 36.4307C199.35 36.4307 199.249 36.457 199.171 36.5098C199.093 36.5605 199.032 36.6309 198.989 36.7207C198.946 36.8086 198.916 36.9092 198.899 37.0225C198.883 37.1338 198.875 37.251 198.875 37.374V37.459C198.875 37.582 198.883 37.7002 198.899 37.8135C198.914 37.9268 198.943 38.0273 198.986 38.1152C199.031 38.2031 199.093 38.2725 199.171 38.3232C199.249 38.374 199.351 38.3994 199.476 38.3994ZM202.782 35.8301V36.4277H200.936V35.8301H202.782ZM201.393 35.0479H202.237V38.0449C202.237 38.1367 202.249 38.207 202.272 38.2559C202.297 38.3047 202.334 38.3389 202.383 38.3584C202.432 38.376 202.494 38.3848 202.568 38.3848C202.621 38.3848 202.667 38.3828 202.708 38.3789C202.751 38.373 202.788 38.3672 202.817 38.3613L202.82 38.9824C202.748 39.0059 202.669 39.0244 202.585 39.0381C202.501 39.0518 202.409 39.0586 202.307 39.0586C202.122 39.0586 201.959 39.0283 201.821 38.9678C201.684 38.9053 201.579 38.8057 201.504 38.6689C201.43 38.5322 201.393 38.3525 201.393 38.1299V35.0479ZM206.496 38.3086V34.5H207.346V39H206.581L206.496 38.3086ZM204.493 37.4531V37.3916C204.493 37.1494 204.52 36.9297 204.575 36.7324C204.629 36.5332 204.709 36.3623 204.815 36.2197C204.92 36.0771 205.05 35.9668 205.204 35.8887C205.359 35.8105 205.535 35.7715 205.732 35.7715C205.917 35.7715 206.079 35.8105 206.218 35.8887C206.359 35.9668 206.478 36.0781 206.576 36.2227C206.675 36.3652 206.755 36.5342 206.816 36.7295C206.876 36.9229 206.92 37.1348 206.948 37.3652V37.5C206.92 37.7207 206.876 37.9258 206.816 38.1152C206.755 38.3047 206.675 38.4707 206.576 38.6133C206.478 38.7539 206.359 38.8633 206.218 38.9414C206.077 39.0195 205.913 39.0586 205.726 39.0586C205.529 39.0586 205.353 39.0186 205.199 38.9385C205.046 38.8584 204.917 38.7461 204.812 38.6016C204.708 38.457 204.629 38.2871 204.575 38.0918C204.52 37.8965 204.493 37.6836 204.493 37.4531ZM205.336 37.3916V37.4531C205.336 37.584 205.346 37.7061 205.366 37.8193C205.387 37.9326 205.421 38.0332 205.468 38.1211C205.517 38.207 205.579 38.2744 205.656 38.3232C205.734 38.3701 205.828 38.3936 205.94 38.3936C206.084 38.3936 206.203 38.3613 206.297 38.2969C206.391 38.2305 206.462 38.1396 206.511 38.0244C206.562 37.9092 206.591 37.7764 206.599 37.626V37.2422C206.593 37.1191 206.576 37.0088 206.546 36.9111C206.519 36.8115 206.478 36.7266 206.423 36.6562C206.37 36.5859 206.304 36.5312 206.224 36.4922C206.146 36.4531 206.053 36.4336 205.946 36.4336C205.836 36.4336 205.743 36.459 205.664 36.5098C205.586 36.5586 205.523 36.626 205.474 36.7119C205.427 36.7979 205.392 36.8994 205.368 37.0166C205.347 37.1318 205.336 37.2568 205.336 37.3916ZM208.83 35.8301V39H207.983V35.8301H208.83ZM207.93 35.0039C207.93 34.8809 207.973 34.7793 208.059 34.6992C208.145 34.6191 208.26 34.5791 208.405 34.5791C208.548 34.5791 208.662 34.6191 208.748 34.6992C208.836 34.7793 208.88 34.8809 208.88 35.0039C208.88 35.127 208.836 35.2285 208.748 35.3086C208.662 35.3887 208.548 35.4287 208.405 35.4287C208.26 35.4287 208.145 35.3887 208.059 35.3086C207.973 35.2285 207.93 35.127 207.93 35.0039ZM211.175 38.124C211.175 38.0635 211.157 38.0088 211.122 37.96C211.087 37.9111 211.022 37.8662 210.926 37.8252C210.832 37.7822 210.696 37.7432 210.519 37.708C210.359 37.6729 210.209 37.6289 210.07 37.5762C209.934 37.5215 209.815 37.4561 209.713 37.3799C209.613 37.3037 209.535 37.2139 209.479 37.1104C209.422 37.0049 209.394 36.8848 209.394 36.75C209.394 36.6172 209.422 36.4922 209.479 36.375C209.537 36.2578 209.62 36.1543 209.728 36.0645C209.837 35.9727 209.97 35.9014 210.126 35.8506C210.284 35.7979 210.462 35.7715 210.659 35.7715C210.935 35.7715 211.171 35.8154 211.368 35.9033C211.568 35.9912 211.72 36.1123 211.825 36.2666C211.933 36.4189 211.986 36.5928 211.986 36.7881H211.143C211.143 36.7061 211.125 36.6328 211.09 36.5684C211.057 36.502 211.004 36.4502 210.932 36.4131C210.861 36.374 210.77 36.3545 210.656 36.3545C210.563 36.3545 210.482 36.3711 210.413 36.4043C210.345 36.4355 210.292 36.4785 210.255 36.5332C210.22 36.5859 210.202 36.6445 210.202 36.709C210.202 36.7578 210.212 36.8018 210.232 36.8408C210.253 36.8779 210.287 36.9121 210.334 36.9434C210.381 36.9746 210.442 37.0039 210.516 37.0312C210.592 37.0566 210.686 37.0801 210.797 37.1016C211.026 37.1484 211.23 37.21 211.409 37.2861C211.589 37.3604 211.732 37.4619 211.837 37.5908C211.943 37.7178 211.995 37.8848 211.995 38.0918C211.995 38.2324 211.964 38.3613 211.902 38.4785C211.839 38.5957 211.749 38.6982 211.632 38.7861C211.515 38.8721 211.374 38.9395 211.21 38.9883C211.048 39.0352 210.865 39.0586 210.662 39.0586C210.367 39.0586 210.117 39.0059 209.912 38.9004C209.709 38.7949 209.555 38.6611 209.449 38.499C209.346 38.335 209.294 38.167 209.294 37.9951H210.094C210.098 38.1104 210.127 38.2031 210.182 38.2734C210.238 38.3438 210.31 38.3945 210.396 38.4258C210.484 38.457 210.578 38.4727 210.68 38.4727C210.789 38.4727 210.88 38.458 210.952 38.4287C211.025 38.3975 211.079 38.3564 211.116 38.3057C211.155 38.2529 211.175 38.1924 211.175 38.124ZM212.518 38.5928C212.518 38.4678 212.561 38.3633 212.647 38.2793C212.735 38.1953 212.851 38.1533 212.996 38.1533C213.14 38.1533 213.255 38.1953 213.341 38.2793C213.429 38.3633 213.473 38.4678 213.473 38.5928C213.473 38.7178 213.429 38.8223 213.341 38.9062C213.255 38.9902 213.14 39.0322 212.996 39.0322C212.851 39.0322 212.735 38.9902 212.647 38.9062C212.561 38.8223 212.518 38.7178 212.518 38.5928ZM214.192 38.5928C214.192 38.4678 214.235 38.3633 214.321 38.2793C214.409 38.1953 214.525 38.1533 214.67 38.1533C214.814 38.1533 214.93 38.1953 215.016 38.2793C215.104 38.3633 215.147 38.4678 215.147 38.5928C215.147 38.7178 215.104 38.8223 215.016 38.9062C214.93 38.9902 214.814 39.0322 214.67 39.0322C214.525 39.0322 214.409 38.9902 214.321 38.9062C214.235 38.8223 214.192 38.7178 214.192 38.5928Z" fill="white"/>
<g clip-path="url(#clip1_789_4033)">
<path d="M181.758 35.5582L181.626 35.4926C181.527 35.4434 181.445 35.3942 181.379 35.3122L181.131 35.0663C180.934 34.886 180.653 34.8204 180.406 34.9024C180.241 34.9516 180.06 34.9516 179.895 34.9024C179.664 34.7876 179.4 34.8368 179.219 35.0008L178.922 35.3122C178.84 35.3778 178.757 35.4434 178.675 35.4926L178.543 35.5582C178.312 35.6729 178.18 35.9352 178.213 36.1975L178.394 37.132C178.411 37.2304 178.493 37.2959 178.592 37.2959C179.568 37.2959 180.639 37.3123 181.709 37.3123C181.807 37.3123 181.873 37.2468 181.89 37.1484L182.071 36.2139C182.121 35.9352 181.989 35.6729 181.758 35.5582Z" fill="#212121"/>
<path d="M181.73 36.9901C181.718 37.1426 181.708 37.3122 181.708 37.3122C181.807 37.3122 181.873 37.2466 181.89 37.1483L181.906 37.0648C182.037 37.1538 182.122 37.3039 182.122 37.474C182.122 37.7471 181.901 37.9685 181.628 37.9685C181.355 37.9685 181.133 37.7471 181.133 37.474C181.133 37.2009 181.355 36.9795 181.628 36.9795C181.663 36.9795 181.697 36.9832 181.73 36.9901Z" fill="#F4C6AD"/>
<path d="M178.381 37.0661L178.394 37.1319C178.411 37.2302 178.493 37.2958 178.592 37.2958C178.592 37.2958 178.582 37.1412 178.57 36.9878C178.6 36.9823 178.63 36.9795 178.661 36.9795C178.934 36.9795 179.156 37.2009 179.156 37.474C179.156 37.7471 178.934 37.9685 178.661 37.9685C178.388 37.9685 178.167 37.7471 178.167 37.474C178.167 37.3047 178.252 37.1553 178.381 37.0661Z" fill="#F4C6AD"/>
<path d="M178.577 37.2954C178.582 37.2958 178.587 37.2959 178.592 37.2959C178.592 37.2959 178.576 37.0336 178.559 36.8533C178.559 36.7713 178.592 36.673 178.658 36.6238L178.707 36.5746C178.79 36.509 178.823 36.4107 178.823 36.3123V36.05C178.823 35.968 178.872 35.9024 178.955 35.886C179.153 35.8369 179.565 35.7549 180.158 35.7549C180.752 35.7549 181.164 35.8369 181.362 35.886C181.428 35.9024 181.494 35.968 181.494 36.05V36.3123C181.494 36.4107 181.543 36.509 181.609 36.5746L181.642 36.6402C181.708 36.7057 181.741 36.7877 181.741 36.8697C181.725 37.0336 181.708 37.3123 181.708 37.3123C181.71 37.3123 181.712 37.3123 181.714 37.3123L181.632 38.529C181.583 39.073 181.155 39.4521 180.645 39.4521H179.658C179.132 39.4521 178.721 39.073 178.672 38.529L178.577 37.2954Z" fill="#FFD7C2"/>
<path d="M180.027 37.3961L179.864 37.9186C179.83 38.026 179.91 38.1335 180.024 38.1335H180.265C180.379 38.1335 180.459 38.0244 180.425 37.9186L180.262 37.3961C180.227 37.2804 180.064 37.2804 180.027 37.3961Z" fill="#E5AF93"/>
<path d="M180.145 38.4457C179.989 38.4457 179.842 38.409 179.719 38.3448C179.677 38.3234 179.632 38.3708 179.658 38.409C179.761 38.565 179.941 38.669 180.145 38.669C180.349 38.669 180.529 38.565 180.631 38.409C180.658 38.3693 180.613 38.3234 180.571 38.3448C180.447 38.409 180.302 38.4457 180.145 38.4457Z" fill="#990838"/>
<path d="M178.993 37.3697C179.04 37.1839 179.21 37.0454 179.41 37.0454C179.618 37.0454 179.792 37.1937 179.831 37.3909C179.839 37.4349 179.805 37.474 179.761 37.474H179.076C179.021 37.474 178.98 37.4235 178.993 37.3697Z" fill="white"/>
<path d="M181.296 37.3697C181.249 37.1839 181.079 37.0454 180.879 37.0454C180.669 37.0454 180.497 37.1937 180.458 37.3909C180.45 37.4349 180.484 37.474 180.528 37.474H181.213C181.268 37.474 181.309 37.4235 181.296 37.3697Z" fill="white"/>
<path d="M179.198 37.4011C179.198 37.2485 179.322 37.1267 179.473 37.1267C179.625 37.1267 179.747 37.2485 179.747 37.4011C179.747 37.427 179.743 37.4514 179.737 37.4741H179.208C179.201 37.4498 179.198 37.427 179.198 37.4011Z" fill="#7D4533"/>
<path d="M181.091 37.4011C181.091 37.2485 180.967 37.1267 180.816 37.1267C180.665 37.1267 180.541 37.2485 180.542 37.4011C180.542 37.427 180.546 37.4514 180.552 37.4741H181.081C181.088 37.4498 181.091 37.427 181.091 37.4011Z" fill="#7D4533"/>
<path d="M179.473 37.2451C179.559 37.2451 179.629 37.3149 179.629 37.401C179.629 37.4269 179.623 37.4513 179.611 37.474H179.335C179.323 37.4513 179.317 37.4269 179.317 37.401C179.317 37.3149 179.387 37.2451 179.473 37.2451Z" fill="black"/>
<path d="M180.814 37.2451C180.728 37.2451 180.658 37.3149 180.658 37.401C180.658 37.4269 180.664 37.4513 180.676 37.474H180.952C180.964 37.4513 180.97 37.4269 180.97 37.401C180.97 37.3149 180.9 37.2451 180.814 37.2451Z" fill="black"/>
<path d="M179.428 37.296C179.428 37.3233 179.406 37.3455 179.379 37.3455C179.352 37.3455 179.33 37.3233 179.33 37.296C179.33 37.2687 179.352 37.2466 179.379 37.2466C179.406 37.2466 179.428 37.2687 179.428 37.296Z" fill="white"/>
<path d="M180.778 37.296C180.778 37.3233 180.757 37.3455 180.73 37.3455C180.703 37.3455 180.681 37.3233 180.681 37.296C180.681 37.2687 180.703 37.2466 180.73 37.2466C180.757 37.2466 180.778 37.2687 180.778 37.296Z" fill="white"/>
<path d="M178.985 36.6478L178.985 36.6476L178.985 36.6474L178.986 36.6469L178.987 36.6458L178.991 36.6428C178.994 36.6406 178.998 36.6378 179.002 36.6345C179.011 36.6279 179.023 36.6194 179.039 36.6098C179.069 36.5906 179.113 36.5667 179.168 36.545C179.278 36.5014 179.435 36.4662 179.626 36.4964C179.716 36.5105 179.777 36.5945 179.763 36.684C179.749 36.7735 179.665 36.8346 179.575 36.8205C179.453 36.8012 179.355 36.8237 179.288 36.8501C179.255 36.8634 179.229 36.8777 179.213 36.8878C179.205 36.8929 179.199 36.8969 179.196 36.8992C179.195 36.9001 179.194 36.9007 179.193 36.901C179.124 36.9577 179.021 36.948 178.964 36.8788C178.906 36.8092 178.915 36.7058 178.985 36.6478Z" fill="#212121"/>
<path d="M181.288 36.6477L181.288 36.6474L181.287 36.6469L181.286 36.6458L181.282 36.6428C181.279 36.6406 181.276 36.6378 181.271 36.6345C181.262 36.6279 181.25 36.6194 181.235 36.6098C181.204 36.5906 181.16 36.5667 181.105 36.545C180.995 36.5014 180.838 36.4662 180.647 36.4964C180.557 36.5105 180.496 36.5945 180.51 36.684C180.524 36.7735 180.608 36.8346 180.698 36.8205C180.82 36.8012 180.918 36.8237 180.985 36.8501C181.018 36.8634 181.044 36.8777 181.06 36.8878C181.068 36.8929 181.074 36.8969 181.077 36.8992C181.078 36.9001 181.079 36.9007 181.08 36.901C181.149 36.9577 181.252 36.948 181.309 36.8788C181.367 36.8092 181.358 36.7057 181.288 36.6477Z" fill="#212121"/>
</g>
<rect x="175.838" y="57.2219" width="45.2113" height="18.0845" rx="2" fill="#00ADFF"/>
<rect x="185.634" y="60.9895" width="33.9085" height="3.01408" rx="1.50704" fill="white" fill-opacity="0.6"/>
<rect x="185.634" y="66.2644" width="22.6056" height="3.01408" rx="1.50704" fill="white" fill-opacity="0.6"/>
<path d="M181.113 68.5246C180.314 68.5246 179.547 68.2071 178.982 67.6418C178.417 67.0766 178.099 66.3099 178.099 65.5105C178.099 64.7111 178.417 63.9445 178.982 63.3792C179.547 62.814 180.314 62.4964 181.113 62.4964C181.913 62.4964 182.679 62.814 183.245 63.3792C183.81 63.9445 184.127 64.7111 184.127 65.5105C184.127 66.3099 183.81 67.0766 183.245 67.6418C182.679 68.2071 181.913 68.5246 181.113 68.5246M181.113 61.7429C180.619 61.7429 180.129 61.8404 179.672 62.0297C179.214 62.2191 178.799 62.4966 178.449 62.8464C177.743 63.553 177.346 64.5113 177.346 65.5105C177.346 66.5098 177.743 67.4681 178.449 68.1746C178.799 68.5245 179.214 68.802 179.672 68.9913C180.129 69.1807 180.619 69.2781 181.113 69.2781C182.113 69.2781 183.071 68.8812 183.777 68.1746C184.484 67.4681 184.881 66.5098 184.881 65.5105C184.881 65.0158 184.783 64.5258 184.594 64.0687C184.405 63.6116 184.127 63.1963 183.777 62.8464C183.428 62.4966 183.012 62.2191 182.555 62.0297C182.098 61.8404 181.608 61.7429 181.113 61.7429V61.7429Z" fill="white"/>
<rect x="109" y="57.2219" width="45.2113" height="18.0845" rx="2" fill="#00ADFF"/>
<rect x="118.796" y="60.9895" width="33.9085" height="3.01408" rx="1.50704" fill="white" fill-opacity="0.6"/>
<rect x="118.796" y="66.2644" width="22.6056" height="3.01408" rx="1.50704" fill="white" fill-opacity="0.6"/>
<path d="M114.274 68.5246C113.475 68.5246 112.708 68.2071 112.143 67.6418C111.578 67.0766 111.26 66.3099 111.26 65.5105C111.26 64.7111 111.578 63.9445 112.143 63.3792C112.708 62.814 113.475 62.4964 114.274 62.4964C115.074 62.4964 115.84 62.814 116.406 63.3792C116.971 63.9445 117.289 64.7111 117.289 65.5105C117.289 66.3099 116.971 67.0766 116.406 67.6418C115.84 68.2071 115.074 68.5246 114.274 68.5246M114.274 61.7429C113.78 61.7429 113.29 61.8404 112.833 62.0297C112.376 62.2191 111.96 62.4966 111.61 62.8464C110.904 63.553 110.507 64.5113 110.507 65.5105C110.507 66.5098 110.904 67.4681 111.61 68.1746C111.96 68.5245 112.376 68.802 112.833 68.9913C113.29 69.1807 113.78 69.2781 114.274 69.2781C115.274 69.2781 116.232 68.8812 116.939 68.1746C117.645 67.4681 118.042 66.5098 118.042 65.5105C118.042 65.0158 117.945 64.5258 117.755 64.0687C117.566 63.6116 117.288 63.1963 116.939 62.8464C116.589 62.4966 116.173 62.2191 115.716 62.0297C115.259 61.8404 114.769 61.7429 114.274 61.7429V61.7429Z" fill="white"/>
<defs>
<filter id="filter0_d_789_4033" x="0.385254" y="8.0896" width="124.055" height="105.676" filterUnits="userSpaceOnUse" color-interpolation-filters="sRGB">
<feFlood flood-opacity="0" result="BackgroundImageFix"/>
<feColorMatrix in="SourceAlpha" type="matrix" values="0 0 0 0 0 0 0 0 0 0 0 0 0 0 0 0 0 0 127 0" result="hardAlpha"/>
<feOffset dy="4"/>
<feGaussianBlur stdDeviation="5"/>
<feComposite in2="hardAlpha" operator="out"/>
<feColorMatrix type="matrix" values="0 0 0 0 0.156863 0 0 0 0 0.156863 0 0 0 0 0.164706 0 0 0 0.25 0"/>
<feBlend mode="normal" in2="BackgroundImageFix" result="effect1_dropShadow_789_4033"/>
<feBlend mode="normal" in="SourceGraphic" in2="effect1_dropShadow_789_4033" result="shape"/>
</filter>
<filter id="filter1_i_789_4033" x="55.8525" y="50.3865" width="17.355" height="13.5977" filterUnits="userSpaceOnUse" color-interpolation-filters="sRGB">
<feFlood flood-opacity="0" result="BackgroundImageFix"/>
<feBlend mode="normal" in="SourceGraphic" in2="BackgroundImageFix" result="shape"/>
<feColorMatrix in="SourceAlpha" type="matrix" values="0 0 0 0 0 0 0 0 0 0 0 0 0 0 0 0 0 0 127 0" result="hardAlpha"/>
<feOffset dy="4"/>
<feGaussianBlur stdDeviation="2"/>
<feComposite in2="hardAlpha" operator="arithmetic" k2="-1" k3="1"/>
<feColorMatrix type="matrix" values="0 0 0 0 0 0 0 0 0 0 0 0 0 0 0 0 0 0 0.25 0"/>
<feBlend mode="normal" in2="shape" result="effect1_innerShadow_789_4033"/>
</filter>
<linearGradient id="paint0_linear_789_4033" x1="44.5597" y1="63.1847" x2="84.7784" y2="148.473" gradientUnits="userSpaceOnUse">
<stop stop-color="#F27F2E"/>
<stop offset="1" stop-color="#FF3838"/>
</linearGradient>
<linearGradient id="paint1_linear_789_4033" x1="55.407" y1="69.9323" x2="73.7291" y2="101.398" gradientUnits="userSpaceOnUse">
<stop/>
<stop offset="1" stop-color="#F27F2E" stop-opacity="0"/>
</linearGradient>
<linearGradient id="paint2_linear_789_4033" x1="89.263" y1="72.7204" x2="74.6344" y2="98.5398" gradientUnits="userSpaceOnUse">
<stop stop-color="#BFBFBF"/>
<stop offset="1"/>
</linearGradient>
<linearGradient id="paint3_linear_789_4033" x1="25.5342" y1="83.4746" x2="12.0305" y2="56.5884" gradientUnits="userSpaceOnUse">
<stop stop-color="#BFBFBF"/>
<stop offset="1"/>
</linearGradient>
<linearGradient id="paint4_linear_789_4033" x1="112.538" y1="69.968" x2="101.432" y2="79.8002" gradientUnits="userSpaceOnUse">
<stop stop-color="#F27F2E"/>
<stop offset="1" stop-color="#FF3838"/>
</linearGradient>
<linearGradient id="paint5_linear_789_4033" x1="17.4289" y1="97.3931" x2="18.2241" y2="82.5813" gradientUnits="userSpaceOnUse">
<stop stop-color="#F27F2E"/>
<stop offset="1" stop-color="#FF3838"/>
</linearGradient>
<linearGradient id="paint6_linear_789_4033" x1="53.7541" y1="26.3623" x2="30.8057" y2="84.699" gradientUnits="userSpaceOnUse">
<stop stop-color="#F27F2E"/>
<stop offset="1" stop-color="#FF3838"/>
</linearGradient>
<clipPath id="clip0_789_4033">
<rect width="7.53521" height="7.53521" fill="white" transform="translate(239.134 64.0029)"/>
</clipPath>
<clipPath id="clip1_789_4033">
<rect width="5.27465" height="5.27465" fill="white" transform="translate(177.507 34.5071)"/>
</clipPath>
</defs>
</svg>
