<svg xmlns="http://www.w3.org/2000/svg" viewBox="0 0 387.76 275.94"><defs><style>.cls-1{fill:#4f6ddb;}.cls-2{fill:#ffc61a;}.cls-10,.cls-3,.cls-5,.cls-8{font-size:23.97px;font-family:MyriadPro-Regular, Myriad Pro;}.cls-10,.cls-16,.cls-3,.cls-5,.cls-8{fill:#fff;}.cls-4{fill:#ff9c1a;}.cls-5{letter-spacing:0.01em;}.cls-6{letter-spacing:0em;}.cls-7{fill:#029d41;}.cls-8{letter-spacing:-0.05em;}.cls-9{fill:#fe3737;}.cls-10{letter-spacing:-0.03em;}.cls-11{letter-spacing:0em;}.cls-12,.cls-13,.cls-14,.cls-15,.cls-17{fill:none;stroke-miterlimit:10;}.cls-12,.cls-13,.cls-14,.cls-15{stroke:#f6eeca;stroke-linecap:round;stroke-width:1.95px;}.cls-12{stroke-dasharray:8.76;}.cls-13{stroke-dasharray:11;}.cls-14{stroke-dasharray:10.5;}.cls-15{stroke-dasharray:9.3;}.cls-17{stroke:#fff;}.cls-18{fill:#f3792f;}.cls-19{fill:#a20a0a;}.cls-20{fill:#d9d9d9;}.cls-21{fill:#f2792e;}.cls-22{fill:#28282a;}</style></defs><title>Auto-schedules your tasks_light_mode</title><g id="Слой_2" data-name="Слой 2"><rect class="cls-1" width="336.58" height="151.33" rx="12.87" ry="12.87"/><rect class="cls-2" x="17.99" y="11" width="61.5" height="29.75" rx="3.96" ry="3.96"/><text class="cls-3" transform="translate(29.58 32.02)">Sun</text><rect class="cls-4" x="97.68" y="11" width="61.5" height="29.75" rx="3.96" ry="3.96"/><text class="cls-5" transform="translate(105.48 32.91)">M<tspan class="cls-6" x="19.42" y="0">on</tspan></text><rect class="cls-7" x="177.36" y="11" width="61.5" height="29.75" rx="3.96" ry="3.96"/><text class="cls-8" transform="translate(190.09 32.91)">T<tspan class="cls-6" x="10.84" y="0">ue</tspan></text><rect class="cls-9" x="257.04" y="11" width="61.5" height="29.75" rx="3.96" ry="3.96"/><text class="cls-10" transform="translate(265.28 32.91)">W<tspan class="cls-11" x="19.49" y="0">ed</tspan></text><line class="cls-12" x1="87.08" y1="44.67" x2="87.08" y2="144.67"/><line class="cls-13" x1="168.29" y1="44.67" x2="168.29" y2="144.67"/><line class="cls-14" x1="249.5" y1="44.67" x2="249.5" y2="144.67"/><line class="cls-15" x1="287.79" y1="80.67" x2="48.74" y2="80.67"/><line class="cls-12" x1="287.79" y1="126" x2="48.74" y2="126"/><rect class="cls-4" x="97.68" y="56.67" width="61.5" height="12" rx="6" ry="6"/><rect class="cls-16" x="97.68" y="88.25" width="61.5" height="30.5" rx="5.58" ry="5.58"/><rect class="cls-4" x="180.34" y="88.25" width="61.5" height="30.5" rx="5.58" ry="5.58"/><rect class="cls-9" x="180.34" y="49.71" width="61.5" height="22" rx="4.7" ry="4.7"/><circle class="cls-17" cx="188.58" cy="60.71" r="5.04"/><rect class="cls-16" x="200.16" y="53.42" width="33.92" height="4.33" rx="2.17" ry="2.17"/><rect class="cls-16" x="111.47" y="60.5" width="33.92" height="4.33" rx="2.17" ry="2.17"/><rect class="cls-1" x="103.19" y="95.25" width="48.99" height="5.96" rx="2.98" ry="2.98"/><rect class="cls-1" x="103.19" y="106.71" width="48.99" height="5.96" rx="2.98" ry="2.98"/><rect class="cls-16" x="200.16" y="61.42" width="33.92" height="4.33" rx="2.17" ry="2.17"/><rect class="cls-16" x="186.91" y="94.08" width="47.17" height="6.5" rx="3.04" ry="3.04"/><rect class="cls-16" x="186.91" y="106.08" width="47.17" height="6.5" rx="3.04" ry="3.04"/><path class="cls-18" d="M270.6,274.28a4.82,4.82,0,0,0-2.82.7c-1.75,1.17-1.65,2.71-1.55,4.14a3.67,3.67,0,0,0-1.18,3.13c.24,1,1.28,2.17,1.28,3s-.77,3.25.39,4.93,5.25,1.18,5.83,1.26C272.67,285.51,274.21,279.65,270.6,274.28Z" transform="translate(-28.06 -68.41)"/><rect class="cls-18" x="305.41" y="270.12" width="13.17" height="38.25" rx="6.19" ry="6.19" transform="translate(158.37 -185.66) rotate(30)"/><path class="cls-18" d="M285.5,288.19l14.85,8.15a5.36,5.36,0,0,1,1.2,7.46l-1.45,2a5.36,5.36,0,0,1-7.46,1.2l-13-14.46Z" transform="translate(-28.06 -68.41)"/><circle class="cls-18" cx="272.22" cy="234.87" r="6.13"/><polygon class="cls-19" points="308.55 194.92 306.69 203.76 330.58 206.67 329.13 197.32 308.55 194.92"/><path class="cls-18" d="M322.79,223.84s.35-8.12,6.06-12.13c5.24-3.68,6-3.72,25-1.38,18.45,2.28,20.17,2,24.21,7.21,4.54,5.88,3.12,14,3.12,14s4.92.23,6,.74,1.79,1.47,1.52,4.41-.69,7.12-.87,7.95a3.26,3.26,0,0,1-3,2c-1.42-.09-5.51-.41-5.51-.41s-.41,7.76-1.88,11.21a14.73,14.73,0,0,1-10.38,9c-5.88,1.33-16.4-.64-23.84-1.47s-11.58-.46-16.91-4.27-5.7-8.77-6.11-11.07.83-11,.83-11a33.72,33.72,0,0,1-4.82-.55c-1.24-.37-1.84-1.52-1.84-3.45s.6-8.22,1.24-9.51S317.74,223.06,322.79,223.84Z" transform="translate(-28.06 -68.41)"/><polygon class="cls-20" points="289.45 155.28 293.35 140.05 295.14 140.32 294.74 155.43 289.45 155.28"/><circle class="cls-21" cx="294.11" cy="138.23" r="2.83"/><circle class="cls-21" cx="304.1" cy="127.48" r="3.26"/><circle class="cls-21" cx="348.11" cy="131.89" r="3.26"/><circle class="cls-21" cx="327.48" cy="124.21" r="4.93"/><circle class="cls-21" cx="309.99" cy="135.4" r="1.87"/><circle class="cls-21" cx="337.78" cy="140.05" r="1.87"/><polygon class="cls-20" points="353.34 160.21 355.88 146.79 357.44 146.79 357.77 163.51 353.13 163.1 353.34 160.21"/><circle class="cls-21" cx="356.81" cy="144.47" r="2.83"/><polygon class="cls-21" points="295.5 136.05 302.13 129.4 302.42 129.69 295.63 136.18 295.5 136.05"/><polygon class="cls-21" points="309.37 134.81 305.55 129.96 305.88 129.71 309.51 134.7 309.37 134.81"/><polygon class="cls-21" points="306.31 127.49 323.33 124.91 323.39 125.32 306.34 127.67 306.31 127.49"/><polygon class="cls-21" points="345.88 131.3 331.4 126.34 331.54 125.95 345.94 131.14 345.88 131.3"/><polygon class="cls-21" points="336.93 138.99 329.85 127.91 330.2 127.69 337.08 138.89 336.93 138.99"/><polygon class="cls-21" points="338.63 139.51 345.7 133.22 345.98 133.53 338.75 139.65 338.63 139.51"/><polygon class="cls-21" points="355.38 142.86 349.74 134.38 350.09 134.15 355.52 142.76 355.38 142.86"/><polygon class="cls-21" points="311 135.33 323.38 126.46 323.62 126.8 311.1 135.47 311 135.33"/><path class="cls-16" d="M349.17,226.71a10.54,10.54,0,0,1-5.2,9.1,16.06,16.06,0,0,0-8.58-2.32A17.79,17.79,0,0,0,331,234a10.55,10.55,0,1,1,18.16-7.31Z" transform="translate(-28.06 -68.41)"/><circle class="cls-22" cx="311.61" cy="157.82" r="7.03"/><path class="cls-16" d="M354.51,227.39A10.54,10.54,0,0,0,357,237.57a16.06,16.06,0,0,1,8.89.16,17.79,17.79,0,0,1,4.05,1.73,10.55,10.55,0,1,0-15.41-12.08Z" transform="translate(-28.06 -68.41)"/><circle class="cls-22" cx="363.78" cy="229.58" r="7.03" transform="translate(13.93 446.63) rotate(-73.83)"/><path class="cls-19" d="M363.2,246.81s-1.4,13.62-15,12.17-11.9-14.79-11.9-14.79l1.53.15,0,.72a1.71,1.71,0,0,0,1.54,1.79l20.45,2a1.71,1.71,0,0,0,1.87-1.6l0-.56Z" transform="translate(-28.06 -68.41)"/><path class="cls-16" d="M361.63,246.66l0,.56a1.71,1.71,0,0,1-1.87,1.6l-20.45-2a1.71,1.71,0,0,1-1.54-1.79l0-.72Z" transform="translate(-28.06 -68.41)"/><path class="cls-18" d="M368.88,332.14H324.5c-8.47,0-14.92-8.06-13.56-16.94l4.94-32.3c1.08-7.06,6.82-12.25,13.56-12.25h34.5c6.73,0,12.48,5.19,13.56,12.25l4.94,32.3C383.8,324.08,377.35,332.14,368.88,332.14Z" transform="translate(-28.06 -68.41)"/><rect class="cls-18" x="374.16" y="270.95" width="13.17" height="38.25" rx="6.19" ry="6.19" transform="translate(827.47 282.5) rotate(150)"/><path class="cls-18" d="M401,328l-2-16.82a5.36,5.36,0,0,0-6.48-3.89l-2.41.6a5.36,5.36,0,0,0-3.89,6.48l8.6,17.43Z" transform="translate(-28.06 -68.41)"/><circle class="cls-18" cx="362.52" cy="238.68" r="4.75"/><path class="cls-18" d="M400.43,325.71c2.09-.4,3.64-1.06,5.53-.22.62,1.34,1,2.84,1.64,4.17-.42,0-.64.09-.68.56-.09,1.06,8.45,4.7,8.84,6.78s-1.62,2.27-2.75,1.51-4-2.9-4.45-2.28,5.26,4.71,3.85,6.2-3.28,1-4.62-.92-2.09-2.79-2.55-2.46,2.68,4.91,1.07,5.23-2.54-.37-3.39-2.22-1.23-1.81-1.88-1.56,2,3.09.35,3.73-2.8-2.05-3.88-4.36-4.07-4.34-3.6-7.47S398.07,326.16,400.43,325.71Z" transform="translate(-28.06 -68.41)"/><path class="cls-18" d="M406.72,325.89c2.26,1.43,4.79.71,6.1.29s.15,3.65-2.35,3.69c-1.41,0-3.53.19-4.08.18-.63-1.33.19-3.22-.42-4.56A5.78,5.78,0,0,1,406.72,325.89Z" transform="translate(-28.06 -68.41)"/><rect class="cls-9" x="200.93" y="248.43" width="73.47" height="41.56" rx="3.58" ry="3.58" transform="translate(16.15 -101.75) rotate(8.84)"/><rect class="cls-16" x="221.29" y="253.86" width="44.23" height="14.43" rx="4.37" ry="4.37" transform="translate(14.97 -102.73) rotate(8.84)"/><rect class="cls-16" x="208.6" y="270.81" width="54.22" height="14.43" rx="4.37" ry="4.37" transform="matrix(0.99, 0.15, -0.15, 0.99, 17.48, -101.34)"/><path class="cls-18" d="M279.85,281c-1.31-2.2-2.59-6.58-3.79-7.71s-4-4.05-5.2-3.21-2.11,1.35.38,4.17,1.44,11.23,1.33,17.17l7.09,1.1,5.84-4.37A78.19,78.19,0,0,1,279.85,281Z" transform="translate(-28.06 -68.41)"/><rect class="cls-17" x="178.18" y="180.11" width="12" height="12" rx="6" ry="6"/></g></svg>