<svg width="335" height="114" viewBox="0 0 335 114" fill="none" xmlns="http://www.w3.org/2000/svg">
<g filter="url(#filter0_d_696_8197)">
<path d="M40.2695 25.1128C40.5942 22.3705 43.0805 20.4107 45.8227 20.7354L89.2788 25.8812C92.021 26.206 93.9808 28.6923 93.6561 31.4345L91.8427 46.7483C90.5438 57.7174 80.5987 65.5566 69.6296 64.2577L55.9655 62.6396C44.9964 61.3408 37.1572 51.3956 38.4561 40.4266L40.2695 25.1128Z" fill="url(#paint0_linear_696_8197)"/>
<rect x="54.6738" y="17.5095" width="8.08416" height="4.85049" rx="2" transform="rotate(7.29054 54.6738 17.5095)" fill="#EC7115"/>
<rect x="77.3096" y="20.3389" width="8.08416" height="4.85049" rx="2" transform="rotate(7.29054 77.3096 20.3389)" fill="#EC7115"/>
<path d="M59.4545 8.90972C59.5158 8.68031 59.7236 8.52073 59.9611 8.52073V8.52073C60.2507 8.52072 60.4855 8.7555 60.4855 9.04511L60.4855 17.8925C60.4855 18.5038 59.9418 18.9721 59.3372 18.8814L57.9946 18.6801C57.4045 18.5917 57.0227 18.0095 57.1767 17.433L59.4545 8.90972Z" fill="#D9D9D9"/>
<path d="M82.0902 11.7391C82.1516 11.5097 82.3594 11.3501 82.5968 11.3501V11.3501C82.8864 11.3501 83.1212 11.5848 83.1212 11.8745L83.1212 20.7218C83.1212 21.3332 82.5775 21.8014 81.9729 21.7108L80.6303 21.5095C80.0402 21.421 79.6584 20.8388 79.8125 20.2624L82.0902 11.7391Z" fill="#D9D9D9"/>
<circle cx="59.9196" cy="8.41473" r="1.41473" fill="#F27F2E"/>
<circle cx="82.5554" cy="11.2441" r="1.41473" fill="#F27F2E"/>
<path d="M40.9092 72.6913C41.8513 67.5235 46.6313 63.9656 51.8522 64.5461L71.9 66.7753C77.1234 67.3561 81.0058 71.8812 80.7861 77.1322L80.2399 90.1831C80.0032 95.8395 75.1224 100.172 69.4779 99.7352L47.5004 98.0364C41.5878 97.5793 37.3696 92.1067 38.4332 86.2726L40.9092 72.6913Z" fill="url(#paint1_linear_696_8197)"/>
<path d="M55.8773 62.5786L68.7782 64.1971L68.6847 64.8493C68.293 67.5828 65.7595 69.4812 63.026 69.0895L60.0717 68.6662C57.397 68.2829 55.5107 65.8439 55.8122 63.1587L55.8773 62.5786Z" fill="url(#paint2_linear_696_8197)"/>
<path d="M37.688 70.2584L41.528 69.6521L40.3153 76.5236H37.688V70.2584Z" fill="#F27F2E"/>
<path d="M80.9384 73.0879L84.1721 74.5026L81.949 79.7573L80.7363 79.3531L80.9384 73.0879Z" fill="#F37F2F"/>
<path d="M100.138 76.3216C95.4897 80.97 87.2449 77.9904 83.5051 75.7153C83.5051 76.129 82.7492 77.0001 82.1509 79.1511C92.4426 84.1149 99.7106 81.1617 101.755 78.8177C101.406 78.3351 100.976 77.6453 100.138 76.3216Z" fill="url(#paint3_linear_696_8197)"/>
<path d="M37.8276 75.8195C30.6471 74.3002 24.7936 82.119 22.7049 86.5306C22.4513 86.1431 21.2129 85.7881 19.3366 84.1382C25.8801 73.2127 34.4858 70.7244 37.8276 71.6733C37.7983 72.3382 37.7963 74.0688 37.8276 75.8195Z" fill="url(#paint4_linear_696_8197)"/>
<path fill-rule="evenodd" clip-rule="evenodd" d="M104.349 75.3881C105.054 77.4217 108.108 78.21 111.172 77.1486C112.53 76.6779 113.662 75.9224 114.44 75.0498C114.391 77.0438 113.545 79.0128 111.934 80.4392C108.857 83.1628 104.156 82.8767 101.432 79.8002C98.7085 76.7237 98.9946 72.0218 102.071 69.2982C104.936 66.7617 109.211 66.8356 111.985 69.3428C110.951 69.2441 109.786 69.3801 108.62 69.7841C105.557 70.8455 103.645 73.3544 104.349 75.3881Z" fill="url(#paint5_linear_696_8197)"/>
<path fill-rule="evenodd" clip-rule="evenodd" d="M19.3181 87.7565C17.3752 86.8306 14.6696 88.4524 13.2749 91.3789C12.6563 92.6769 12.3995 94.0136 12.4749 95.1801C11.0892 93.7454 10.2808 91.7606 10.3962 89.6117C10.6165 85.5088 14.1211 82.3613 18.2241 82.5815C22.327 82.8018 25.4746 86.3065 25.2543 90.4094C25.0491 94.2305 21.9954 97.2229 18.2627 97.4381C19.0591 96.7708 19.7799 95.8459 20.3108 94.7319C21.7055 91.8054 21.261 88.6824 19.3181 87.7565Z" fill="url(#paint6_linear_696_8197)"/>
<path d="M69.1614 39.2918C68.8364 41.5318 67.4778 43.3738 65.6213 44.4289C64.3848 43.8167 62.7826 43.1851 61.204 42.956C59.6254 42.727 57.9097 42.8771 56.5502 43.1126C55.0702 41.5733 54.2912 39.4212 54.6163 37.1812C55.1836 33.2713 58.8996 30.5743 62.9161 31.1571C66.9326 31.7399 69.7288 35.382 69.1614 39.2918Z" fill="white"/>
<path d="M86.9388 41.8714C86.6137 44.1115 85.2552 45.9534 83.3987 47.0085C82.1622 46.3964 80.56 45.7648 78.9814 45.5357C77.4027 45.3066 75.6871 45.4568 74.3276 45.6923C72.8476 44.153 72.0686 42.0008 72.3937 39.7608C72.961 35.851 76.677 33.1539 80.6935 33.7368C84.71 34.3196 87.5061 37.9616 86.9388 41.8714Z" fill="white"/>
<path d="M62.0735 42.3041C64.7675 42.695 67.2588 40.8941 67.6379 38.2818C68.0169 35.6694 66.1403 33.2347 63.4463 32.8438C60.7523 32.4529 58.2611 34.2537 57.882 36.8661C57.5029 39.4785 59.3795 41.9131 62.0735 42.3041Z" fill="#28282A"/>
<path d="M78.3333 44.6635C81.0273 45.0544 83.5186 43.2536 83.8976 40.6412C84.2767 38.0288 82.4001 35.5942 79.7061 35.2032C77.0121 34.8123 74.5208 36.6132 74.1418 39.2255C73.7627 41.8379 75.6393 44.2726 78.3333 44.6635Z" fill="#28282A"/>
<g filter="url(#filter1_i_696_8197)">
<path d="M66.9671 60.1414C57.7965 59.1875 58.7505 50.0168 58.7505 50.0168L77.0917 51.9248C77.0917 51.9248 76.1377 61.0954 66.9671 60.1414Z" fill="#A30A0A"/>
</g>
<path d="M59.7165 50.6323L59.7695 50.1228L76.0728 51.8187L76.0198 52.3282C75.9613 52.891 75.4576 53.2997 74.8949 53.2412L60.6295 51.7572C60.0667 51.6987 59.658 51.195 59.7165 50.6323Z" fill="white"/>
</g>
<rect x="127.606" y="1.5" width="204.972" height="104" rx="8.5" fill="#3F3D56" stroke="#FF3838" stroke-width="3"/>
<line x1="306.949" y1="28.4431" x2="150.97" y2="27.886" stroke="white" stroke-dasharray="6 6"/>
<line x1="306.949" y1="54.5024" x2="150.97" y2="53.9454" stroke="white" stroke-dasharray="6 6"/>
<line x1="306.949" y1="80.5979" x2="150.97" y2="80.0408" stroke="white" stroke-dasharray="6 6"/>
<line x1="168.671" y1="9.00404" x2="168.078" y2="98.5585" stroke="white" stroke-dasharray="6 6"/>
<line x1="230.351" y1="9.00735" x2="229.165" y2="98.5617" stroke="white" stroke-dasharray="6 6"/>
<line x1="291.438" y1="9.00404" x2="290.845" y2="98.5583" stroke="white" stroke-dasharray="6 6"/>
<path d="M140.823 16.803C140.823 16.6272 140.796 16.4709 140.741 16.3342C140.69 16.1975 140.598 16.0725 140.465 15.9592C140.333 15.8459 140.145 15.7366 139.903 15.6311C139.665 15.5217 139.36 15.4104 138.989 15.2971C138.583 15.1721 138.208 15.0334 137.864 14.8811C137.524 14.7249 137.227 14.5452 136.973 14.342C136.719 14.135 136.522 13.8987 136.382 13.6331C136.241 13.3635 136.171 13.053 136.171 12.7014C136.171 12.3538 136.243 12.0374 136.387 11.7522C136.536 11.467 136.745 11.2209 137.014 11.0139C137.288 10.803 137.61 10.6409 137.981 10.5276C138.352 10.4104 138.762 10.3518 139.212 10.3518C139.844 10.3518 140.389 10.469 140.846 10.7034C141.307 10.9377 141.661 11.2522 141.907 11.6467C142.157 12.0413 142.282 12.4768 142.282 12.9534H140.823C140.823 12.6721 140.762 12.4241 140.641 12.2092C140.524 11.9905 140.344 11.8186 140.102 11.6936C139.864 11.5686 139.561 11.5061 139.194 11.5061C138.846 11.5061 138.557 11.5588 138.327 11.6643C138.096 11.7698 137.924 11.9124 137.811 12.092C137.698 12.2717 137.641 12.4749 137.641 12.7014C137.641 12.8616 137.678 13.0081 137.753 13.1409C137.827 13.2698 137.94 13.3909 138.092 13.5042C138.245 13.6135 138.436 13.717 138.667 13.8147C138.897 13.9124 139.169 14.0061 139.481 14.0959C139.954 14.2366 140.366 14.3928 140.717 14.5647C141.069 14.7327 141.362 14.9241 141.596 15.1389C141.831 15.3538 142.007 15.5979 142.124 15.8713C142.241 16.1409 142.299 16.4475 142.299 16.7913C142.299 17.1506 142.227 17.4749 142.083 17.7639C141.938 18.0491 141.731 18.2932 141.462 18.4963C141.196 18.6956 140.876 18.8499 140.501 18.9592C140.13 19.0647 139.715 19.1174 139.258 19.1174C138.848 19.1174 138.444 19.0627 138.046 18.9534C137.651 18.844 137.292 18.678 136.967 18.4553C136.643 18.2288 136.385 17.9475 136.194 17.6116C136.003 17.2717 135.907 16.8752 135.907 16.4221H137.378C137.378 16.6995 137.424 16.9358 137.518 17.1311C137.616 17.3264 137.751 17.4866 137.923 17.6116C138.094 17.7327 138.294 17.8225 138.52 17.8811C138.751 17.9397 138.997 17.969 139.258 17.969C139.602 17.969 139.889 17.9202 140.12 17.8225C140.354 17.7249 140.53 17.5881 140.647 17.4124C140.764 17.2366 140.823 17.0334 140.823 16.803ZM147.142 17.5061V12.6604H148.56V19.0002H147.224L147.142 17.5061ZM147.341 16.1877L147.816 16.176C147.816 16.6018 147.769 16.9944 147.675 17.3538C147.582 17.7092 147.437 18.0198 147.242 18.2854C147.046 18.5471 146.796 18.7522 146.492 18.9006C146.187 19.0452 145.822 19.1174 145.396 19.1174C145.087 19.1174 144.804 19.0725 144.546 18.9827C144.289 18.8928 144.066 18.7542 143.878 18.5667C143.695 18.3792 143.552 18.135 143.451 17.8342C143.349 17.5334 143.298 17.1741 143.298 16.7561V12.6604H144.71V16.7678C144.71 16.9983 144.738 17.1917 144.792 17.3479C144.847 17.5002 144.921 17.6233 145.015 17.717C145.109 17.8108 145.218 17.8772 145.343 17.9163C145.468 17.9553 145.601 17.9749 145.742 17.9749C146.144 17.9749 146.46 17.8967 146.691 17.7405C146.925 17.5803 147.091 17.3655 147.189 17.0959C147.291 16.8264 147.341 16.5237 147.341 16.1877ZM151.276 14.0139V19.0002H149.864V12.6604H151.194L151.276 14.0139ZM151.024 15.5959L150.567 15.5901C150.571 15.1409 150.633 14.7288 150.754 14.3538C150.879 13.9788 151.051 13.6565 151.27 13.387C151.493 13.1174 151.758 12.9104 152.067 12.7659C152.375 12.6174 152.719 12.5432 153.098 12.5432C153.403 12.5432 153.678 12.5862 153.924 12.6721C154.174 12.7542 154.387 12.8889 154.563 13.0764C154.743 13.2639 154.879 13.5081 154.973 13.8088C155.067 14.1057 155.114 14.4709 155.114 14.9045V19.0002H153.696V14.8987C153.696 14.594 153.651 14.3538 153.561 14.178C153.475 13.9983 153.348 13.8713 153.18 13.7971C153.016 13.719 152.811 13.6799 152.565 13.6799C152.323 13.6799 152.106 13.7307 151.914 13.8323C151.723 13.9338 151.561 14.0725 151.428 14.2483C151.299 14.4241 151.2 14.6272 151.129 14.8577C151.059 15.0881 151.024 15.3342 151.024 15.5959Z" fill="white"/>
<path d="M190.751 10.469H192.063L194.53 17.0491L196.991 10.469H198.303L195.046 19.0002H194.003L190.751 10.469ZM190.153 10.469H191.401L191.618 16.1643V19.0002H190.153V10.469ZM197.653 10.469H198.907V19.0002H197.436V16.1643L197.653 10.469ZM200.111 15.9006V15.7659C200.111 15.3088 200.177 14.885 200.31 14.4944C200.443 14.0999 200.634 13.7581 200.884 13.469C201.138 13.176 201.447 12.9495 201.81 12.7893C202.177 12.6252 202.591 12.5432 203.052 12.5432C203.517 12.5432 203.931 12.6252 204.294 12.7893C204.662 12.9495 204.972 13.176 205.226 13.469C205.48 13.7581 205.673 14.0999 205.806 14.4944C205.939 14.885 206.005 15.3088 206.005 15.7659V15.9006C206.005 16.3577 205.939 16.7815 205.806 17.1721C205.673 17.5627 205.48 17.9045 205.226 18.1975C204.972 18.4866 204.664 18.7131 204.3 18.8772C203.937 19.0374 203.525 19.1174 203.064 19.1174C202.599 19.1174 202.183 19.0374 201.816 18.8772C201.453 18.7131 201.144 18.4866 200.89 18.1975C200.636 17.9045 200.443 17.5627 200.31 17.1721C200.177 16.7815 200.111 16.3577 200.111 15.9006ZM201.523 15.7659V15.9006C201.523 16.1858 201.552 16.4553 201.611 16.7092C201.669 16.9631 201.761 17.1858 201.886 17.3772C202.011 17.5686 202.171 17.719 202.367 17.8284C202.562 17.9377 202.794 17.9924 203.064 17.9924C203.326 17.9924 203.552 17.9377 203.744 17.8284C203.939 17.719 204.099 17.5686 204.224 17.3772C204.349 17.1858 204.441 16.9631 204.5 16.7092C204.562 16.4553 204.593 16.1858 204.593 15.9006V15.7659C204.593 15.4846 204.562 15.219 204.5 14.969C204.441 14.7151 204.347 14.4905 204.218 14.2952C204.093 14.0999 203.933 13.9475 203.738 13.8381C203.546 13.7249 203.318 13.6682 203.052 13.6682C202.787 13.6682 202.556 13.7249 202.361 13.8381C202.169 13.9475 202.011 14.0999 201.886 14.2952C201.761 14.4905 201.669 14.7151 201.611 14.969C201.552 15.219 201.523 15.4846 201.523 15.7659ZM208.457 14.0139V19.0002H207.045V12.6604H208.375L208.457 14.0139ZM208.205 15.5959L207.748 15.5901C207.752 15.1409 207.815 14.7288 207.936 14.3538C208.061 13.9788 208.233 13.6565 208.451 13.387C208.674 13.1174 208.94 12.9104 209.248 12.7659C209.557 12.6174 209.901 12.5432 210.28 12.5432C210.584 12.5432 210.86 12.5862 211.106 12.6721C211.356 12.7542 211.569 12.8889 211.744 13.0764C211.924 13.2639 212.061 13.5081 212.155 13.8088C212.248 14.1057 212.295 14.4709 212.295 14.9045V19.0002H210.877V14.8987C210.877 14.594 210.832 14.3538 210.743 14.178C210.657 13.9983 210.53 13.8713 210.362 13.7971C210.198 13.719 209.993 13.6799 209.746 13.6799C209.504 13.6799 209.287 13.7307 209.096 13.8323C208.905 13.9338 208.743 14.0725 208.61 14.2483C208.481 14.4241 208.381 14.6272 208.311 14.8577C208.241 15.0881 208.205 15.3342 208.205 15.5959Z" fill="white"/>
<path d="M250.69 10.469V19.0002H249.231V10.469H250.69ZM253.368 10.469V11.6409H246.577V10.469H253.368ZM257.542 17.5061V12.6604H258.96V19.0002H257.625L257.542 17.5061ZM257.742 16.1877L258.216 16.176C258.216 16.6018 258.169 16.9944 258.076 17.3538C257.982 17.7092 257.837 18.0198 257.642 18.2854C257.447 18.5471 257.197 18.7522 256.892 18.9006C256.587 19.0452 256.222 19.1174 255.796 19.1174C255.488 19.1174 255.205 19.0725 254.947 18.9827C254.689 18.8928 254.466 18.7542 254.279 18.5667C254.095 18.3792 253.953 18.135 253.851 17.8342C253.75 17.5334 253.699 17.1741 253.699 16.7561V12.6604H255.111V16.7678C255.111 16.9983 255.138 17.1917 255.193 17.3479C255.248 17.5002 255.322 17.6233 255.416 17.717C255.509 17.8108 255.619 17.8772 255.744 17.9163C255.869 17.9553 256.001 17.9749 256.142 17.9749C256.544 17.9749 256.861 17.8967 257.091 17.7405C257.326 17.5803 257.492 17.3655 257.589 17.0959C257.691 16.8264 257.742 16.5237 257.742 16.1877ZM263.071 19.1174C262.602 19.1174 262.178 19.0413 261.799 18.8889C261.424 18.7327 261.104 18.5159 260.838 18.2385C260.576 17.9612 260.375 17.635 260.235 17.26C260.094 16.885 260.024 16.4807 260.024 16.0471V15.8127C260.024 15.3167 260.096 14.8674 260.241 14.4651C260.385 14.0627 260.586 13.719 260.844 13.4338C261.102 13.1448 261.407 12.9241 261.758 12.7717C262.11 12.6194 262.491 12.5432 262.901 12.5432C263.354 12.5432 263.75 12.6194 264.09 12.7717C264.43 12.9241 264.711 13.1389 264.934 13.4163C265.16 13.6897 265.328 14.0159 265.438 14.3948C265.551 14.7737 265.608 15.1917 265.608 15.6487V16.2522H260.709V15.2385H264.213V15.1272C264.205 14.8733 264.155 14.635 264.061 14.4124C263.971 14.1897 263.832 14.01 263.645 13.8733C263.457 13.7366 263.207 13.6682 262.895 13.6682C262.66 13.6682 262.451 13.719 262.268 13.8206C262.088 13.9182 261.938 14.0608 261.817 14.2483C261.696 14.4358 261.602 14.6624 261.535 14.928C261.473 15.1897 261.442 15.4846 261.442 15.8127V16.0471C261.442 16.3245 261.479 16.5823 261.553 16.8206C261.631 17.0549 261.744 17.26 261.893 17.4358C262.041 17.6116 262.221 17.7502 262.432 17.8518C262.643 17.9495 262.883 17.9983 263.153 17.9983C263.493 17.9983 263.795 17.9299 264.061 17.7932C264.326 17.6565 264.557 17.4631 264.752 17.2131L265.496 17.9338C265.36 18.1331 265.182 18.3245 264.963 18.5081C264.744 18.6877 264.477 18.8342 264.16 18.9475C263.848 19.0608 263.485 19.1174 263.071 19.1174Z" fill="white"/>
<path d="M302.497 17.0842L304.196 10.469H305.087L304.987 12.1741L303.171 19.0002H302.245L302.497 17.0842ZM301.225 10.469L302.602 17.0315L302.725 19.0002H301.741L299.766 10.469H301.225ZM307.014 17.0139L308.374 10.469H309.839L307.864 19.0002H306.88L307.014 17.0139ZM305.432 10.469L307.114 17.1018L307.36 19.0002H306.434L304.647 12.1741L304.553 10.469H305.432ZM313.263 19.1174C312.794 19.1174 312.371 19.0413 311.992 18.8889C311.617 18.7327 311.296 18.5159 311.031 18.2385C310.769 17.9612 310.568 17.635 310.427 17.26C310.287 16.885 310.216 16.4807 310.216 16.0471V15.8127C310.216 15.3167 310.289 14.8674 310.433 14.4651C310.578 14.0627 310.779 13.719 311.037 13.4338C311.294 13.1448 311.599 12.9241 311.951 12.7717C312.302 12.6194 312.683 12.5432 313.093 12.5432C313.546 12.5432 313.943 12.6194 314.283 12.7717C314.623 12.9241 314.904 13.1389 315.126 13.4163C315.353 13.6897 315.521 14.0159 315.63 14.3948C315.744 14.7737 315.8 15.1917 315.8 15.6487V16.2522H310.902V15.2385H314.406V15.1272C314.398 14.8733 314.347 14.635 314.253 14.4124C314.164 14.1897 314.025 14.01 313.837 13.8733C313.65 13.7366 313.4 13.6682 313.087 13.6682C312.853 13.6682 312.644 13.719 312.46 13.8206C312.281 13.9182 312.13 14.0608 312.009 14.2483C311.888 14.4358 311.794 14.6624 311.728 14.928C311.666 15.1897 311.634 15.4846 311.634 15.8127V16.0471C311.634 16.3245 311.671 16.5823 311.746 16.8206C311.824 17.0549 311.937 17.26 312.085 17.4358C312.234 17.6116 312.414 17.7502 312.625 17.8518C312.835 17.9495 313.076 17.9983 313.345 17.9983C313.685 17.9983 313.988 17.9299 314.253 17.7932C314.519 17.6565 314.75 17.4631 314.945 17.2131L315.689 17.9338C315.552 18.1331 315.375 18.3245 315.156 18.5081C314.937 18.6877 314.669 18.8342 314.353 18.9475C314.041 19.0608 313.677 19.1174 313.263 19.1174ZM320.637 17.6877V10.0002H322.055V19.0002H320.772L320.637 17.6877ZM316.512 15.9006V15.7776C316.512 15.2971 316.569 14.8596 316.682 14.4651C316.795 14.0667 316.959 13.7249 317.174 13.4397C317.389 13.1506 317.651 12.9299 317.959 12.7776C318.268 12.6213 318.616 12.5432 319.002 12.5432C319.385 12.5432 319.721 12.6174 320.01 12.7659C320.299 12.9143 320.545 13.1272 320.748 13.4045C320.951 13.678 321.114 14.0061 321.235 14.3889C321.356 14.7678 321.442 15.1897 321.493 15.6545V16.0471C321.442 16.5002 321.356 16.9143 321.235 17.2893C321.114 17.6643 320.951 17.9885 320.748 18.262C320.545 18.5354 320.297 18.7463 320.004 18.8948C319.715 19.0432 319.377 19.1174 318.991 19.1174C318.608 19.1174 318.262 19.0374 317.953 18.8772C317.649 18.717 317.389 18.4924 317.174 18.2034C316.959 17.9143 316.795 17.5745 316.682 17.1838C316.569 16.7893 316.512 16.3616 316.512 15.9006ZM317.924 15.7776V15.9006C317.924 16.1897 317.95 16.4592 318 16.7092C318.055 16.9592 318.139 17.1799 318.252 17.3713C318.366 17.5588 318.512 17.7073 318.692 17.8167C318.875 17.9221 319.094 17.9749 319.348 17.9749C319.668 17.9749 319.932 17.9045 320.139 17.7639C320.346 17.6233 320.508 17.4338 320.625 17.1956C320.746 16.9534 320.828 16.6838 320.871 16.387V15.3264C320.848 15.0959 320.799 14.8811 320.725 14.6819C320.655 14.4827 320.559 14.3088 320.438 14.1604C320.317 14.0081 320.166 13.8909 319.987 13.8088C319.811 13.7229 319.602 13.6799 319.36 13.6799C319.102 13.6799 318.883 13.7346 318.703 13.844C318.524 13.9534 318.375 14.1038 318.258 14.2952C318.145 14.4866 318.061 14.7092 318.006 14.9631C317.951 15.217 317.924 15.4885 317.924 15.7776Z" fill="white"/>
<rect x="237.627" y="58.7292" width="45.2113" height="18.0845" rx="2" fill="#FF7107"/>
<g clip-path="url(#clip0_696_8197)">
<path d="M242.272 64.6971C242.247 64.6833 242.213 64.6916 242.206 64.6971C242.186 64.6217 242.117 64.5953 242.036 64.6124C242.028 64.491 241.881 64.439 241.791 64.5085C241.712 64.419 241.598 64.4311 241.531 64.5508C241.476 64.4901 241.392 64.4742 241.342 64.5223C241.183 64.4358 241.082 64.5918 241.089 64.71C241.091 64.7512 241.128 64.7796 241.146 64.7863C241.127 64.805 241.129 64.8412 241.129 64.8569L241.129 64.858C241.055 64.8341 241.007 64.9229 241.02 64.9712C240.911 64.9362 240.839 64.9914 240.854 65.1027C240.734 65.0797 240.69 65.1827 240.717 65.2471C240.661 65.1864 240.583 65.1874 240.551 65.2471C240.491 65.227 240.423 65.2668 240.423 65.3207C240.342 65.3115 240.296 65.3556 240.3 65.442C240.215 65.4346 240.178 65.5488 240.227 65.5939C240.149 65.6094 240.12 65.7075 240.185 65.7567C240.126 65.777 240.106 65.8509 240.139 65.9021C240.064 65.9149 240.071 66.007 240.084 66.0345C239.994 66.0345 239.979 66.1242 240.001 66.1798C239.928 66.1476 239.86 66.2149 239.872 66.2884C239.718 66.2258 239.718 66.406 239.759 66.4871C239.672 66.5882 239.798 66.6484 239.886 66.6112C239.886 66.6318 239.908 66.6523 239.919 66.66C239.919 66.7072 239.928 66.7547 239.994 66.7685C239.988 66.7765 239.976 66.7956 239.976 66.8081C239.918 66.8015 239.883 66.8341 239.873 66.8513C239.776 66.8193 239.706 66.9046 239.741 66.9976L239.741 66.9987C239.758 67.0416 239.775 67.0884 239.886 67.1732C239.819 67.1931 239.808 67.2591 239.81 67.2919C239.716 67.2361 239.623 67.2901 239.689 67.405C239.703 67.4277 239.755 67.474 239.779 67.4934C239.675 67.5301 239.616 67.6666 239.726 67.7859C239.667 67.8361 239.687 67.9236 239.742 67.9671C239.613 67.9671 239.568 68.1585 239.709 68.1961C239.636 68.2173 239.597 68.3283 239.666 68.3868C239.594 68.419 239.607 68.5467 239.679 68.5607C239.65 68.6708 239.71 68.7142 239.772 68.7186C239.699 68.7811 239.743 68.8796 239.778 68.9108C239.689 68.9816 239.717 69.1157 239.8 69.1444C239.725 69.1999 239.761 69.3088 239.836 69.3431C239.828 69.3425 239.815 69.362 239.823 69.4204C239.832 69.4884 239.908 69.5308 239.957 69.5676C239.847 69.6411 239.917 69.7718 240.014 69.7718C239.914 69.9318 240.06 70.0425 240.148 70.056C239.934 70.2307 240.256 70.5012 240.324 70.3099C240.353 70.3237 240.395 70.3154 240.4 70.3099C240.41 70.3448 240.446 70.3972 240.491 70.4304C240.471 70.4938 240.543 70.5472 240.585 70.5472C240.602 70.6537 240.694 70.6371 240.722 70.6321L240.723 70.6318C240.723 70.7458 240.904 70.8176 240.962 70.6861C240.989 70.7037 241.024 70.6977 241.039 70.6925C241.069 70.7882 241.114 70.836 241.212 70.8415C241.29 70.8459 241.347 70.7489 241.368 70.6999C241.319 70.8132 241.4 70.8759 241.509 70.8618C241.5 70.9933 241.671 71.0402 241.714 70.9031C241.712 70.9366 241.725 71.0049 241.797 71.0108C241.868 71.0167 241.897 70.9218 241.903 70.8737C241.917 70.889 241.957 70.9201 241.999 70.9215C242.052 70.9234 242.087 70.8866 242.108 70.8544C242.146 70.9363 242.257 71.0503 242.368 70.9445C242.378 70.9599 242.405 70.9916 242.436 70.996C242.467 71.0005 242.497 70.9813 242.508 70.9712C242.523 70.9776 242.621 71.0006 242.669 70.985C242.733 70.9645 242.733 70.9107 242.734 70.8699L242.734 70.8673C242.739 70.8783 242.758 70.9068 242.817 70.9565C242.908 71.0338 243.099 71.0494 243.058 70.8737C243.053 70.8533 243.051 70.8544 243.058 70.8461C243.064 70.8378 243.073 70.8406 243.077 70.8544C243.113 70.9271 243.192 70.9924 243.26 70.9795C243.328 70.9666 243.319 70.8829 243.323 70.8884C243.326 70.8928 243.337 70.9068 243.362 70.9068C243.418 71.02 243.55 70.9887 243.62 70.9307C243.668 70.9683 243.717 70.9635 243.735 70.9565C243.771 70.9513 243.786 70.8976 243.788 70.8737C243.867 70.9565 244.092 71.02 244.106 70.8084C244.202 70.8744 244.446 70.8381 244.404 70.6833H244.428C244.425 70.7017 244.423 70.7484 244.439 70.7882C244.46 70.8378 244.53 70.8811 244.616 70.8526C244.685 70.8297 244.75 70.7529 244.773 70.7173C244.839 70.7364 244.915 70.7287 244.954 70.6691C245.043 70.689 245.142 70.6334 245.152 70.5429C245.275 70.5429 245.323 70.4937 245.336 70.4313C245.362 70.4377 245.413 70.4184 245.429 70.4055C245.559 70.602 245.876 70.3346 245.717 70.1618C245.837 70.1188 245.883 70.0005 245.822 69.9116C245.891 69.8402 245.919 69.7457 245.924 69.7074C246.027 69.6421 245.983 69.5079 245.864 69.539V69.4857C245.954 69.463 246.02 69.3916 245.998 69.2381C246.23 69.156 246.094 68.9355 245.989 68.8575C246.096 68.9375 246.265 68.8088 246.154 68.6525C246.187 68.5501 246.137 68.5091 246.089 68.4815C246.121 68.4015 246.069 68.3482 246.045 68.3304C246.066 68.3068 246.065 68.2445 246.062 68.2163C246.13 68.2163 246.171 68.0894 246.089 68.0342C246.118 68.0094 246.12 67.8977 246.069 67.876C246.077 67.853 246.069 67.8364 246.049 67.8171C246.062 67.8033 246.062 67.7877 246.054 67.7592C246.097 67.6939 246.07 67.5862 245.991 67.5568C245.985 67.5071 245.942 67.4722 245.925 67.4639C245.973 67.4032 245.968 67.3057 245.865 67.291C245.863 67.2833 245.856 67.268 245.849 67.268C245.862 67.2597 245.904 67.2382 245.957 67.1977C246.052 67.1244 245.971 67.0037 245.865 67.0307C245.873 67.0068 245.865 66.9792 245.865 66.9626C245.895 66.9324 245.905 66.8796 245.871 66.8252C245.925 66.7412 245.893 66.6559 245.829 66.6278C245.957 66.6278 245.906 66.4055 245.797 66.4365C245.905 66.406 245.888 66.2328 245.768 66.2328C245.831 66.1897 245.849 66.0647 245.716 66.0455C245.731 65.9667 245.699 65.9178 245.631 65.88C245.667 65.7959 245.613 65.7114 245.527 65.6859C245.512 65.6378 245.5 65.601 245.46 65.5672C245.46 65.5311 245.444 65.4959 245.422 65.4679C245.436 65.4028 245.429 65.3538 245.38 65.2996C245.4 65.221 245.357 65.1266 245.276 65.1036C245.232 65.0031 245.079 64.9478 244.995 65.0383C244.961 64.9353 244.841 64.8921 244.745 64.9553C244.745 64.9127 244.689 64.8682 244.646 64.8525C244.604 64.7788 244.505 64.7377 244.423 64.7688C244.413 64.7666 244.374 64.7578 244.336 64.7578C244.299 64.6718 244.238 64.6398 244.138 64.6419C244.076 64.5621 243.963 64.5894 243.895 64.6373C243.802 64.6277 243.692 64.6667 243.682 64.7725C243.636 64.771 243.575 64.8084 243.562 64.836C243.534 64.824 243.511 64.8148 243.415 64.7964C243.318 64.778 243.246 64.7854 243.204 64.7964C243.269 64.7293 243.204 64.5398 243.08 64.5959C243.054 64.525 242.954 64.5021 242.902 64.5573C242.873 64.5191 242.792 64.5117 242.751 64.5333C242.735 64.4313 242.627 64.343 242.539 64.4625C242.474 64.432 242.371 64.4667 242.387 64.5609C242.306 64.5485 242.243 64.5941 242.272 64.6971Z" fill="#433D3D"/>
<path d="M239.778 67.4933L239.776 67.4961C239.824 67.5229 239.874 67.541 239.916 67.5347C239.979 67.5251 239.986 67.4433 239.99 67.3936C239.99 67.3881 239.99 67.383 239.991 67.3784C239.996 67.3816 240.002 67.3874 240.008 67.3939C240.024 67.4098 240.044 67.4305 240.077 67.4326C240.148 67.4372 240.187 67.3729 240.194 67.302C240.202 67.2312 240.177 67.0469 240.066 67.0592C239.994 67.0673 239.986 67.1423 239.991 67.1788C239.957 67.1659 239.922 67.1677 239.879 67.1723L239.875 67.1724C239.818 67.1962 239.807 67.2609 239.81 67.2919C239.78 67.2741 239.711 67.2483 239.675 67.2873C239.631 67.336 239.655 67.3949 239.681 67.4151C239.702 67.4313 239.755 67.474 239.778 67.4933Z" fill="#212121"/>
<path d="M245.825 69.9164C245.822 69.9137 245.819 69.9111 245.816 69.9088C245.756 69.8631 245.71 69.8626 245.653 69.8851C245.687 69.8023 245.604 69.7172 245.522 69.7579C245.551 69.6711 245.496 69.6072 245.403 69.6267C245.471 69.5523 245.428 69.4388 245.317 69.4481C245.395 69.3713 245.367 69.266 245.256 69.2465C245.344 69.2161 245.382 69.1001 245.269 69.0472C245.382 69.0472 245.428 68.8474 245.317 68.8045C245.076 68.7123 245.017 68.8998 245.041 68.9735C244.963 69.034 244.931 69.265 245.098 69.3094C244.987 69.3998 245.041 69.5416 245.143 69.5416C245.051 69.6431 245.098 69.7686 245.256 69.7367C245.162 69.8714 245.304 69.9565 245.382 69.9088C245.354 70.0576 245.478 70.0824 245.539 70.0454C245.557 70.1067 245.6 70.1425 245.647 70.1574C245.62 70.164 245.593 70.1805 245.566 70.2096C245.542 70.1157 245.434 70.1084 245.368 70.17C245.388 70.0672 245.308 70.009 245.219 70.0486C245.273 69.954 245.198 69.8837 245.099 69.9014C245.177 69.8039 245.111 69.726 245.024 69.726C245.089 69.6287 245.013 69.5549 244.953 69.5409C245.052 69.421 244.99 69.32 244.916 69.2951C244.831 69.3561 244.803 69.5127 244.783 69.6177L244.781 69.6275L244.778 69.6423C244.759 69.8084 244.799 69.8519 244.897 69.8782C244.832 70.0385 244.936 70.1193 245.034 70.0931C245.006 70.2549 245.144 70.3324 245.224 70.2957C245.252 70.4005 245.305 70.434 245.356 70.4321C245.379 70.4299 245.407 70.419 245.423 70.4095C245.425 70.4084 245.426 70.4073 245.428 70.4062L245.429 70.4055C245.558 70.6007 245.871 70.3381 245.72 70.1652L245.718 70.1644L245.719 70.1643L245.717 70.1618C245.835 70.1195 245.881 70.0047 245.825 69.9164Z" fill="#212121"/>
<path d="M245.584 68.5047C245.52 68.5488 245.541 68.6772 245.626 68.689C245.527 68.7075 245.542 68.8749 245.65 68.8869C245.554 68.9584 245.626 69.088 245.74 69.0514C245.75 69.1811 246.017 69.1352 245.91 68.9401C245.989 68.8869 245.956 68.7966 245.87 68.7811C245.974 68.7386 245.948 68.6267 245.857 68.5952C245.942 68.5597 245.925 68.4566 245.857 68.429C245.922 68.3922 245.916 68.2972 245.845 68.2614C245.913 68.2218 245.915 68.1014 245.817 68.0796C245.884 68.0023 245.853 67.9033 245.772 67.8821C245.844 67.8175 245.781 67.6767 245.677 67.6767C245.677 67.5218 245.423 67.4902 245.349 67.7168C245.313 67.8289 245.418 68.0645 245.501 68.2494C245.56 68.3817 245.608 68.488 245.584 68.5047Z" fill="#212121"/>
<path d="M240.505 69.0314C240.465 68.9205 240.54 68.7846 240.757 68.8514C240.974 68.9182 240.9 69.3022 240.671 69.3176C240.737 69.4094 240.683 69.5379 240.587 69.5219C240.638 69.6196 240.634 69.6928 240.523 69.7235C240.56 69.8638 240.34 69.9554 240.293 69.7922C240.113 69.8237 240.106 69.5676 240.282 69.5863C240.233 69.4622 240.32 69.4146 240.368 69.4094C240.306 69.275 240.394 69.2332 240.445 69.2291C240.379 69.139 240.421 69.0481 240.505 69.0314Z" fill="#212121"/>
<path d="M239.972 68.4821C239.881 68.3797 239.926 68.3039 239.959 68.2677C239.862 68.1983 239.876 68.0644 239.998 68.0408C239.881 67.9453 239.942 67.7736 240.1 67.8003C240.004 67.6557 240.23 67.5407 240.37 67.7247C240.532 68.0149 240.319 68.7446 240.319 68.7446C240.385 68.8279 240.352 68.9046 240.292 68.9336C240.352 69.0313 240.292 69.0955 240.228 69.1092C240.274 69.2253 240.226 69.2756 240.159 69.2958C240.225 69.4243 240.14 69.4668 240.092 69.4757C240.074 69.6111 239.956 69.6003 239.874 69.5229C239.792 69.4456 239.8 69.3801 239.833 69.3414C239.859 69.3104 239.894 69.3096 239.908 69.3131C239.833 69.2003 239.916 69.1251 239.972 69.1092C239.922 68.9985 239.987 68.9368 240.029 68.9214C239.94 68.8545 239.959 68.759 240.029 68.7032C239.908 68.6667 239.908 68.54 239.972 68.4821Z" fill="#212121"/>
<path d="M241.364 70.7077C241.341 70.7585 241.286 70.8457 241.212 70.8415C241.114 70.836 241.069 70.7881 241.039 70.6925L241.037 70.693C241.028 70.6374 241.07 70.5606 241.151 70.5432C241.136 70.4825 241.152 70.4085 241.243 70.3866C241.224 70.3472 241.225 70.2385 241.343 70.2214C241.287 70.1292 241.42 69.9443 241.581 70.0892C241.744 70.2352 241.555 70.4013 241.485 70.4099C241.503 70.4702 241.488 70.6023 241.389 70.6023C241.389 70.6383 241.375 70.6805 241.364 70.7077Z" fill="#212121"/>
<path d="M240.49 70.4303L240.49 70.4314C240.592 70.4828 240.728 70.4305 240.65 70.2997C240.77 70.3144 240.787 70.1785 240.74 70.109C240.831 70.1421 240.905 70.0353 240.87 69.9241C240.983 69.9576 241.019 69.786 240.983 69.7133C241.421 69.5251 240.925 69.0627 240.87 69.5024C240.759 69.4875 240.666 69.6283 240.74 69.7653C240.659 69.7011 240.563 69.8465 240.633 69.9576C240.544 69.902 240.449 70.0389 240.507 70.1437C240.428 70.1166 240.362 70.2024 240.397 70.3115C240.399 70.3109 240.4 70.3103 240.4 70.3098C240.409 70.3448 240.446 70.3972 240.49 70.4303Z" fill="#212121"/>
<path d="M240.723 70.6345L240.723 70.6318L240.722 70.6319C240.705 70.5746 240.697 70.4925 240.804 70.4768C240.773 70.4126 240.786 70.3225 240.893 70.3225C240.893 70.3225 240.832 70.1866 240.964 70.1866C240.914 70.0908 240.967 70.0217 241.05 70.0151C240.995 69.8907 241.098 69.821 241.147 69.8092C241.163 69.8231 241.384 69.994 241.384 69.994L241.373 69.9977C241.269 70.0334 241.2 70.057 241.226 70.161C241.138 70.161 241.096 70.2594 241.132 70.3225C241.05 70.3306 241.009 70.4271 241.056 70.4947C240.944 70.5419 240.952 70.6099 240.959 70.6666C240.96 70.6736 240.96 70.6804 240.961 70.687C240.916 70.8078 240.767 70.7702 240.731 70.6748L240.73 70.6677C240.728 70.6562 240.726 70.6449 240.723 70.6345Z" fill="#212121"/>
<path d="M245.864 69.4857C245.865 69.4853 245.866 69.4846 245.868 69.4836C245.758 69.5024 245.679 69.3504 245.751 69.2806C245.65 69.3486 245.554 69.2399 245.606 69.1536C245.521 69.1775 245.474 69.085 245.506 68.9798C245.406 68.9798 245.357 69.1763 245.457 69.2508C245.386 69.3529 245.458 69.5055 245.568 69.4774C245.495 69.5748 245.594 69.7189 245.712 69.6729C245.724 69.7856 245.805 69.8294 245.885 69.821C245.909 69.7743 245.921 69.7305 245.924 69.7073C245.989 69.6661 245.985 69.6068 245.975 69.5822C245.948 69.5169 245.864 69.539 245.864 69.539V69.4857Z" fill="#212121"/>
<path d="M242.108 70.8553L242.107 70.8544C242.086 70.8866 242.051 70.9234 241.999 70.9215C241.957 70.92 241.917 70.889 241.902 70.8737C241.897 70.9218 241.868 71.0166 241.797 71.0107C241.739 71.006 241.719 70.9609 241.715 70.9261C241.718 70.7986 241.725 70.6188 241.881 70.6456C241.903 70.6084 241.933 70.5714 242.02 70.5885C242.1 70.6042 242.14 70.7155 242.108 70.8553Z" fill="#212121"/>
<path d="M242.734 70.8672C242.734 70.8681 242.735 70.869 242.735 70.87C242.714 70.7659 242.601 70.6811 242.532 70.6908C242.448 70.7025 242.456 70.7848 242.471 70.8245C242.394 70.8236 242.371 70.8788 242.371 70.9499C242.383 70.9663 242.408 70.9921 242.436 70.996C242.467 71.0004 242.497 70.9813 242.508 70.9712C242.522 70.9776 242.621 71.0006 242.669 70.985C242.732 70.9645 242.733 70.9107 242.734 70.8699L242.734 70.8672Z" fill="#212121"/>
<path d="M243.324 70.8895C243.323 70.8891 243.323 70.8887 243.323 70.8884C243.322 70.8873 243.322 70.8898 243.321 70.8945C243.319 70.9135 243.314 70.9692 243.26 70.9795C243.192 70.9923 243.113 70.927 243.077 70.8544C243.075 70.8489 243.073 70.8452 243.07 70.8432C243.061 70.8187 243.055 70.795 243.051 70.7756L243.05 70.7744C243.029 70.6888 243.179 70.6529 243.246 70.7675C243.252 70.7769 243.26 70.787 243.268 70.7977C243.29 70.8263 243.315 70.8585 243.324 70.8895Z" fill="#212121"/>
<path d="M243.787 70.8737L243.789 70.8752C243.785 70.852 243.774 70.8301 243.762 70.8176C243.851 70.7918 243.924 70.698 243.833 70.6318C243.742 70.5656 243.619 70.6437 243.563 70.7256C243.513 70.7978 243.561 70.8885 243.625 70.9348C243.672 70.9679 243.717 70.9633 243.735 70.9565C243.771 70.9513 243.786 70.8976 243.787 70.8737Z" fill="#212121"/>
<path d="M244.769 70.7212L244.768 70.721C244.744 70.7566 244.679 70.8334 244.61 70.8562C244.524 70.8847 244.454 70.8415 244.434 70.7918C244.418 70.7521 244.42 70.7054 244.423 70.687H244.421L244.421 70.686C244.356 70.6916 244.249 70.6198 244.327 70.5067C244.283 70.5015 244.192 70.4735 244.204 70.4046C244.215 70.3357 244.368 70.2092 244.443 70.1546C244.463 70.1791 244.496 70.2448 244.472 70.3112C244.52 70.3209 244.605 70.3672 244.561 70.4751C244.6 70.4789 244.676 70.5066 244.665 70.5872C244.715 70.581 244.794 70.6071 244.769 70.7212Z" fill="#212121"/>
<path d="M244.992 70.3713C245.097 70.3564 245.171 70.3975 245.153 70.5429L245.152 70.5429C245.142 70.6292 245.052 70.6837 244.966 70.6714C244.962 70.6696 244.959 70.6681 244.956 70.6671C244.981 70.5674 244.924 70.4635 244.819 70.5015C244.835 70.4043 244.781 70.3587 244.703 70.3713C244.727 70.3183 244.703 70.2266 244.594 70.2381C244.632 70.1765 244.636 70.0929 244.512 70.0535C244.384 70.0126 244.462 69.8257 244.632 69.8712C244.723 69.8852 244.778 69.994 244.749 70.1001C244.808 70.1001 244.868 70.1351 244.859 70.2381C244.956 70.2221 245.004 70.2822 244.992 70.3713Z" fill="#212121"/>
<path d="M245.727 68.2184C245.727 68.6085 245.411 68.9248 245.021 68.9248C244.631 68.9248 244.314 68.6085 244.314 68.2184C244.314 67.8282 244.631 67.512 245.021 67.512C245.411 67.512 245.727 67.8282 245.727 68.2184Z" fill="#F4C6AD"/>
<path d="M241.489 68.2419C241.489 68.6321 241.172 68.9484 240.782 68.9484C240.392 68.9484 240.076 68.6321 240.076 68.2419C240.076 67.8518 240.392 67.5355 240.782 67.5355C241.172 67.5355 241.489 67.8518 241.489 68.2419Z" fill="#F4C6AD"/>
<path d="M241.557 66.1132C241.621 66.107 241.629 66.0204 241.615 65.9804C241.66 65.9804 241.687 65.934 241.687 65.8871C241.709 65.8972 241.765 65.8807 241.782 65.84C241.815 65.8512 241.871 65.8531 241.909 65.8034C241.982 65.856 242.14 65.7459 242.099 65.6575C242.115 65.6705 242.159 65.6865 242.204 65.6467C242.194 65.7466 242.297 65.8109 242.389 65.8109C242.384 65.9246 242.482 65.9474 242.571 65.9145C242.438 65.9789 242.45 66.1149 242.571 66.1521C242.314 66.3409 242.711 66.5939 242.817 66.3745C242.87 66.4551 243.003 66.4055 243.035 66.3648C243.059 66.3619 243.11 66.3486 243.12 66.3184C243.133 66.2806 243.13 66.2352 243.109 66.2147C243.152 66.1895 243.239 66.1381 243.245 66.1337C243.246 66.1326 243.245 66.1351 243.244 66.1403C243.239 66.159 243.226 66.2119 243.269 66.2482C243.313 66.2853 243.372 66.2817 243.396 66.2752C243.381 66.3015 243.359 66.365 243.396 66.4091C243.441 66.4642 243.555 66.4566 243.605 66.4329C243.656 66.4091 243.688 66.3756 243.686 66.3367C243.684 66.2979 243.66 66.2547 243.605 66.2558C243.612 66.2493 243.625 66.2266 243.62 66.1877C243.616 66.1489 243.609 66.1355 243.605 66.1337L243.661 66.1132C243.668 66.1323 243.695 66.1722 243.75 66.1791C243.803 66.4025 244.021 66.2762 243.99 66.1791C244.008 66.1715 244.031 66.1078 244.032 66.0776L244.044 66.0851C244.043 66.1139 244.051 66.1715 244.094 66.1715C244.148 66.1715 244.225 66.1316 244.256 66.0851C244.264 66.0995 244.304 66.1253 244.405 66.1132C244.474 66.105 244.498 66.072 244.503 66.0657C244.503 66.0651 244.504 66.0646 244.504 66.0646C244.504 66.0646 244.504 66.0648 244.503 66.0653C244.499 66.0703 244.476 66.101 244.495 66.1337C244.446 66.1768 244.443 66.2719 244.527 66.299C244.44 66.3537 244.431 66.4534 244.515 66.5203C244.484 66.5311 244.427 66.5743 244.443 66.6607C244.464 66.7687 244.611 66.8173 244.644 66.8216C244.749 66.8351 244.756 66.7031 244.685 66.6542C244.785 66.6158 244.835 66.5272 244.732 66.4534C244.721 66.4466 244.709 66.4372 244.702 66.4308C244.698 66.4275 244.695 66.4251 244.694 66.4242C244.71 66.4231 244.745 66.4186 244.76 66.4091C244.76 66.4534 244.808 66.5033 244.871 66.5033C244.837 66.5552 244.836 66.6607 244.935 66.6877C244.893 66.7313 244.845 66.8335 244.981 66.894C244.935 66.9123 244.851 67.0181 244.981 67.1045C244.935 67.1326 244.85 67.2654 244.994 67.3464C245.051 67.3749 245.088 67.3871 245.1 67.3896L245.136 67.5169L245.086 68.75C245.032 69.9957 244.072 70.8321 242.899 70.8321C241.726 70.8321 240.765 69.9957 240.711 68.75L240.668 67.6838H240.674L240.669 67.5659L240.665 67.4299C240.667 67.3314 240.672 67.2488 240.679 67.1789C240.681 67.1822 240.683 67.1855 240.685 67.1888C240.711 67.21 240.793 67.2125 240.813 67.152C240.835 67.0835 240.783 67.0369 240.733 67.0116C240.784 67.0287 240.852 67.035 240.875 66.9771C240.903 66.9079 240.841 66.8607 240.8 66.8429C240.83 66.8535 240.891 66.8568 240.921 66.8076C240.954 66.754 240.91 66.7014 240.887 66.6801C240.906 66.6909 240.953 66.7028 240.993 66.6639C241.033 66.6251 241.006 66.5599 240.988 66.5322C241.01 66.5408 241.063 66.5529 241.095 66.5322C241.127 66.5115 241.134 66.4473 241.133 66.4177C241.151 66.448 241.202 66.4374 241.231 66.4177C241.21 66.6269 241.506 66.5859 241.487 66.4481C241.588 66.4394 241.593 66.3239 241.522 66.2806C241.615 66.2639 241.615 66.1521 241.557 66.1132Z" fill="#FFD7C2"/>
<path d="M242.901 69.5126C242.678 69.5126 242.469 69.4601 242.293 69.3684C242.233 69.3378 242.168 69.4055 242.206 69.4601C242.353 69.683 242.609 69.8315 242.901 69.8315C243.193 69.8315 243.449 69.683 243.596 69.4601C243.634 69.4033 243.57 69.3378 243.509 69.3684C243.333 69.4601 243.126 69.5126 242.901 69.5126Z" fill="#990838"/>
<path d="M242.733 68.1306L242.5 68.8769C242.453 69.0304 242.567 69.184 242.729 69.184H243.074C243.236 69.184 243.35 69.0281 243.303 68.8769L243.069 68.1306C243.019 67.9653 242.786 67.9653 242.733 68.1306Z" fill="#E5AF93"/>
<path d="M241.724 67.6296C241.959 67.6296 242.201 67.818 242.318 68.0064C242.177 68.0498 242.046 68.0832 241.918 68.1158C241.769 68.154 241.623 68.1911 241.471 68.2419L241.235 68.077C241.141 68.0064 241.117 67.8887 241.259 67.7945C241.4 67.6767 241.559 67.6296 241.724 67.6296Z" fill="black"/>
<path d="M244.126 67.6296C243.89 67.6296 243.649 67.818 243.531 68.0064C243.672 68.0498 243.803 68.0832 243.931 68.1158C244.081 68.154 244.226 68.1911 244.379 68.2419L244.614 68.077C244.708 68.0064 244.732 67.8887 244.591 67.7945C244.449 67.6767 244.291 67.6296 244.126 67.6296Z" fill="black"/>
<path d="M241.256 68.0929C241.324 67.8275 241.566 67.6296 241.852 67.6296C242.149 67.6296 242.398 67.8415 242.454 68.1232C242.465 68.186 242.417 68.2419 242.354 68.2419H241.375C241.296 68.2419 241.238 68.1697 241.256 68.0929Z" fill="white"/>
<path d="M244.546 68.0929C244.479 67.8275 244.237 67.6296 243.951 67.6296C243.651 67.6296 243.405 67.8415 243.349 68.1232C243.337 68.186 243.386 68.2419 243.449 68.2419H244.428C244.507 68.2419 244.565 68.1697 244.546 68.0929Z" fill="white"/>
<path d="M241.549 68.1375C241.549 67.9195 241.726 67.7456 241.942 67.7456C242.158 67.7456 242.333 67.9195 242.333 68.1375C242.333 68.1746 242.328 68.2094 242.319 68.2419H241.563C241.554 68.2071 241.549 68.1746 241.549 68.1375Z" fill="#7D4533"/>
<path d="M244.253 68.1375C244.253 67.9195 244.076 67.7456 243.86 67.7456C243.644 67.7456 243.467 67.9195 243.47 68.1375C243.47 68.1746 243.474 68.2094 243.484 68.2419H244.239C244.248 68.2071 244.253 68.1746 244.253 68.1375Z" fill="#7D4533"/>
<path d="M241.942 67.915C242.066 67.915 242.166 68.0148 242.166 68.1377C242.166 68.1748 242.156 68.2096 242.14 68.242H241.745C241.729 68.2096 241.719 68.1748 241.719 68.1377C241.719 68.0148 241.819 67.915 241.942 67.915Z" fill="black"/>
<path d="M243.858 67.915C243.735 67.915 243.635 68.0148 243.635 68.1377C243.635 68.1748 243.644 68.2096 243.66 68.242H244.056C244.072 68.2096 244.081 68.1748 244.081 68.1377C244.081 68.0148 243.981 67.915 243.858 67.915Z" fill="black"/>
<path d="M241.877 67.9876C241.877 68.0266 241.846 68.0583 241.808 68.0583C241.769 68.0583 241.738 68.0266 241.738 67.9876C241.738 67.9486 241.769 67.917 241.808 67.917C241.846 67.917 241.877 67.9486 241.877 67.9876Z" fill="white"/>
<path d="M243.807 67.9876C243.807 68.0266 243.776 68.0583 243.737 68.0583C243.699 68.0583 243.667 68.0266 243.667 67.9876C243.667 67.9486 243.699 67.917 243.737 67.917C243.776 67.917 243.807 67.9486 243.807 67.9876Z" fill="white"/>
<path d="M241.408 67.401L241.41 67.3999C241.412 67.3988 241.415 67.397 241.419 67.3946C241.428 67.3898 241.442 67.3828 241.459 67.3743C241.495 67.3574 241.546 67.3353 241.61 67.3151C241.737 67.2744 241.905 67.2438 242.08 67.2747C242.144 67.286 242.205 67.2433 242.217 67.1792C242.228 67.1152 242.185 67.0541 242.121 67.0428C241.896 67.0031 241.687 67.0431 241.538 67.0908C241.463 67.1147 241.401 67.1411 241.358 67.1618C241.336 67.1721 241.319 67.181 241.307 67.1876C241.301 67.1908 241.296 67.1935 241.293 67.1955L241.289 67.1979L241.287 67.1986L241.287 67.1989L241.287 67.1991C241.231 67.2325 241.213 67.3049 241.246 67.3606C241.28 67.4163 241.352 67.4343 241.408 67.401Z" fill="#212121"/>
<path d="M244.556 67.3606C244.59 67.3049 244.572 67.2325 244.516 67.1991L244.516 67.1989L244.515 67.1986L244.514 67.1979L244.51 67.1955C244.506 67.1935 244.502 67.1908 244.496 67.1876C244.484 67.181 244.466 67.1721 244.445 67.1618C244.401 67.1411 244.34 67.1147 244.265 67.0908C244.115 67.0431 243.907 67.0031 243.682 67.0428C243.617 67.0541 243.575 67.1152 243.586 67.1792C243.597 67.2433 243.658 67.286 243.722 67.2747C243.897 67.2438 244.066 67.2744 244.193 67.3151C244.256 67.3353 244.308 67.3574 244.343 67.3743C244.361 67.3828 244.375 67.3898 244.383 67.3946C244.388 67.397 244.391 67.3988 244.393 67.3999L244.395 67.401L244.395 67.4011C244.451 67.4344 244.523 67.4163 244.556 67.3606Z" fill="#212121"/>
<path d="M242.392 64.9399C242.392 64.9399 242.392 64.766 242.554 64.8017C242.498 64.7173 242.532 64.6152 242.648 64.6152C242.651 64.6152 242.655 64.6153 242.658 64.6153C242.695 64.616 242.743 64.617 242.755 64.5347C242.756 64.5302 242.756 64.5257 242.757 64.5213C242.759 64.414 242.599 64.3294 242.532 64.4524C242.475 64.4094 242.367 64.4674 242.381 64.5489C242.294 64.5358 242.211 64.5995 242.265 64.6924L242.263 64.692C242.265 64.6943 242.267 64.6966 242.269 64.6989C242.297 64.7316 242.3 64.7907 242.269 64.8231C242.344 64.8307 242.362 64.8713 242.392 64.9392L242.392 64.9399Z" fill="#212121"/>
<path d="M241.807 64.742C241.814 64.7997 241.883 64.8372 241.94 64.8044C241.866 64.8573 241.9 64.9791 242.019 64.9463C242.047 65.1114 242.353 65.0055 242.192 64.825C242.205 64.8053 242.228 64.7562 242.214 64.699C242.213 64.6996 242.212 64.7002 242.211 64.7007C242.211 64.6998 242.211 64.6986 242.211 64.6974C242.208 64.6852 242.202 64.6589 242.161 64.628C242.125 64.6008 242.063 64.6047 242.04 64.6097C242.04 64.5949 242.022 64.5167 241.962 64.4855C241.889 64.447 241.827 64.4772 241.795 64.502C241.793 64.5004 241.792 64.4987 241.79 64.4968C241.776 64.4805 241.755 64.4554 241.714 64.4459C241.626 64.4257 241.565 64.48 241.532 64.5388C241.532 64.5388 241.524 64.502 241.49 64.4855C241.437 64.459 241.367 64.4781 241.342 64.502C241.277 64.4459 241.182 64.4855 241.136 64.5388C241.09 64.5922 241.084 64.6593 241.087 64.7108C241.087 64.7255 241.092 64.738 241.1 64.7483C241.13 64.7124 241.178 64.6781 241.248 64.6922C241.284 64.6192 241.388 64.6213 241.435 64.6653C241.499 64.6107 241.577 64.634 241.609 64.6796C241.677 64.6287 241.798 64.6669 241.807 64.742Z" fill="#212121"/>
<path d="M241.137 65.5803C241.205 65.5704 241.23 65.4905 241.176 65.4265C241.248 65.3904 241.262 65.343 241.217 65.2683C241.293 65.2683 241.305 65.212 241.293 65.1385C241.366 65.1796 241.417 65.1157 241.417 65.056C241.449 65.1082 241.555 65.108 241.601 65.056C241.616 65.1211 241.739 65.1293 241.765 65.056C241.913 65.0776 241.956 64.8497 241.739 64.8148C241.751 64.7487 241.652 64.6969 241.588 64.755C241.569 64.6999 241.459 64.6775 241.417 64.7395C241.402 64.6989 241.294 64.6836 241.265 64.755C241.212 64.7107 241.11 64.7875 241.121 64.8497C241.053 64.8297 240.983 64.9162 241.018 64.9786C240.938 64.9786 240.929 65.1158 240.995 65.1385C240.889 65.1198 240.85 65.257 240.938 65.3105C240.831 65.3105 240.829 65.4457 240.912 65.4899C240.777 65.5469 240.858 65.673 240.938 65.7096C241.019 65.7462 241.159 65.7044 241.137 65.5803Z" fill="#212121"/>
<path d="M243.047 65.2075C243.035 65.1441 242.968 65.1165 242.904 65.1416C242.893 65.0595 242.831 65.0254 242.732 65.041C242.681 64.9298 242.561 64.9325 242.469 64.9632C242.469 64.8983 242.511 64.823 242.62 64.8453C242.647 64.7721 242.733 64.7671 242.791 64.8006C242.822 64.7596 242.925 64.7568 242.949 64.823C242.997 64.7835 243.089 64.8006 243.089 64.8853C243.164 64.8543 243.256 64.9242 243.236 64.9801C243.32 64.9622 243.375 65.0127 243.375 65.0898C243.431 65.0898 243.493 65.1443 243.484 65.2148C243.576 65.2285 243.588 65.2812 243.588 65.3409C243.65 65.3528 243.708 65.4128 243.674 65.4949C243.749 65.4917 243.805 65.5665 243.777 65.6509C243.857 65.6731 243.894 65.7423 243.857 65.8211C243.939 65.8391 243.977 65.9278 243.931 65.9967C244.026 66.0075 244.062 66.1002 244.001 66.1724C244.115 66.1633 244.144 66.3525 244.007 66.3396C244.015 66.4541 243.83 66.484 243.826 66.3525C243.688 66.3743 243.683 66.2187 243.742 66.1789C243.627 66.143 243.647 66.0341 243.674 65.9967C243.572 65.9815 243.576 65.8939 243.619 65.8331C243.502 65.8331 243.478 65.7473 243.507 65.6822C243.409 65.6905 243.371 65.5993 243.404 65.5359C243.317 65.5617 243.256 65.4706 243.295 65.4025C243.198 65.4228 243.154 65.3501 243.174 65.2958C243.089 65.3097 243.059 65.271 243.047 65.2075Z" fill="#212121"/>
<path d="M243.12 66.3186C243.13 66.2893 243.131 66.2555 243.12 66.2322C243.097 66.1972 243.05 66.168 242.986 66.1634C243.109 66.1127 243.096 65.9526 242.972 65.9049C242.995 65.8472 242.996 65.7397 242.856 65.7003C242.877 65.631 242.856 65.5239 242.732 65.5308C242.739 65.4481 242.678 65.4152 242.597 65.4317C242.587 65.3636 242.504 65.345 242.438 65.3711C242.424 65.3369 242.356 65.2959 242.29 65.3474C242.12 65.2553 241.981 65.5823 242.275 65.5935C242.257 65.6749 242.376 65.7434 242.454 65.6906C242.434 65.7807 242.518 65.847 242.597 65.7948C242.554 65.8656 242.606 65.9429 242.718 65.9327C242.651 66.0062 242.734 66.1285 242.824 66.1091C242.718 66.2881 242.879 66.3905 243.033 66.367L243.035 66.365C243.059 66.3621 243.11 66.3488 243.12 66.3186Z" fill="#212121"/>
<path d="M243.62 66.1879C243.618 66.166 243.614 66.1523 243.611 66.1441L243.608 66.1375L243.607 66.1355C243.606 66.1347 243.606 66.1342 243.605 66.1339L243.606 66.1336C243.576 66.0753 243.556 66.0505 243.506 66.0273C243.541 65.9383 243.486 65.8733 243.42 65.869C243.469 65.7307 243.361 65.6697 243.3 65.6691C243.316 65.5355 243.217 65.5012 243.161 65.4978C243.163 65.4044 243.126 65.3544 243.022 65.3544C243.034 65.2468 242.937 65.2046 242.861 65.2182C242.87 65.1263 242.77 65.0857 242.693 65.1245C242.693 65.0392 242.566 65.0135 242.514 65.053C242.46 64.9906 242.349 64.9822 242.304 65.0714C242.135 65.0404 242.029 65.2033 242.122 65.3262C242.159 65.2508 242.234 65.2182 242.304 65.2919C242.359 65.212 242.461 65.2358 242.475 65.3189C242.557 65.2638 242.632 65.3006 242.64 65.3794C242.735 65.3544 242.8 65.3891 242.779 65.4872C242.89 65.4615 242.967 65.5533 242.931 65.6559C243.014 65.6559 243.089 65.7315 243.044 65.8437C243.044 65.8437 243.069 65.9182 243.142 65.9182C243.099 66.0013 243.162 66.1236 243.253 66.1053C243.248 66.1156 243.245 66.1256 243.242 66.1353C243.243 66.1347 243.244 66.1342 243.244 66.1339C243.246 66.1327 243.245 66.1353 243.244 66.1405C243.239 66.1592 243.226 66.212 243.269 66.2484C243.313 66.2855 243.372 66.2818 243.396 66.2754C243.38 66.3016 243.359 66.3652 243.396 66.4093C243.441 66.4643 243.554 66.4568 243.605 66.433C243.656 66.4093 243.688 66.3758 243.686 66.3369C243.684 66.298 243.66 66.2548 243.605 66.2559C243.612 66.2494 243.624 66.2268 243.62 66.1879Z" fill="#212121"/>
<path d="M241.737 65.5825C241.729 65.6526 241.654 65.6995 241.586 65.6519C241.586 65.7282 241.527 65.7839 241.438 65.7537C241.473 65.8436 241.414 65.9003 241.328 65.891C241.414 65.9264 241.386 66.0535 241.314 66.0656C241.506 66.2099 241.182 66.3477 241.174 66.1837C241.006 66.2094 240.954 65.9769 241.124 65.9347C241.027 65.8475 241.068 65.708 241.228 65.7147C241.152 65.6215 241.211 65.4785 241.367 65.511C241.318 65.3932 241.416 65.3068 241.538 65.3658C241.514 65.2705 241.633 65.1817 241.763 65.2748C241.763 65.1297 242.023 65.1427 241.989 65.3138C242.145 65.2972 242.119 65.6476 241.903 65.5487C241.865 65.6259 241.775 65.6454 241.737 65.5825Z" fill="#212121"/>
<path d="M243.443 64.7896C243.239 64.7572 243.18 64.8055 243.145 64.8346L243.141 64.8378C243.199 64.8166 243.292 64.8378 243.301 64.9225C243.389 64.8922 243.461 64.9687 243.438 65.0457C243.529 65.024 243.578 65.0939 243.554 65.1625C243.645 65.1698 243.672 65.2138 243.672 65.2998C243.763 65.3165 243.799 65.3518 243.799 65.4464C243.901 65.4613 243.938 65.5411 243.912 65.6383C244.005 65.6383 244.114 65.6768 244.044 65.8475C243.969 66.0286 244.379 66.0831 244.271 65.7829C244.368 65.7254 244.329 65.5664 244.214 65.5373C244.315 65.4612 244.206 65.2925 244.09 65.3407C244.145 65.2233 244.065 65.1543 243.969 65.1718C244.006 65.066 243.92 65.003 243.83 65.0457C243.854 64.9528 243.77 64.8755 243.69 64.9225C243.701 64.8378 243.632 64.8037 243.566 64.8286L243.564 64.8261C243.55 64.8118 243.543 64.8054 243.443 64.7896Z" fill="#212121"/>
<path d="M243.75 64.6612C243.721 64.6834 243.687 64.7192 243.678 64.7656C243.677 64.7982 243.688 64.8253 243.715 64.8479C243.76 64.8842 243.827 64.8778 243.849 64.8331C243.855 64.8717 243.935 64.8911 243.978 64.8617C243.972 64.9104 244.041 64.9683 244.098 64.9394C244.06 64.9938 244.126 65.0659 244.196 65.0405C244.17 65.1178 244.208 65.1766 244.297 65.1656C244.239 65.2378 244.277 65.3212 244.369 65.3212C244.326 65.4293 244.436 65.4957 244.526 65.4598C244.685 65.3957 244.657 65.2147 244.543 65.1304C244.602 65.0461 244.534 64.9394 244.462 64.9394C244.484 64.872 244.471 64.789 244.358 64.7571L244.341 64.755C244.334 64.7397 244.312 64.7011 244.276 64.6694C244.241 64.6378 244.173 64.6311 244.143 64.6317C244.134 64.6195 244.101 64.5931 244.045 64.5857C243.975 64.5765 243.946 64.594 243.893 64.6317C243.84 64.6262 243.782 64.6372 243.75 64.6612Z" fill="#212121"/>
<path d="M244.761 66.4172L244.777 66.4514C244.768 66.4387 244.763 66.4262 244.761 66.4172Z" fill="#212121"/>
<path d="M244.759 66.4107L244.759 66.4093C244.745 66.4188 244.709 66.4233 244.694 66.4244C244.815 66.4892 244.83 66.6143 244.685 66.6544C244.759 66.702 244.74 66.8361 244.635 66.8226C244.553 66.812 244.455 66.771 244.435 66.6631C244.418 66.5767 244.484 66.5313 244.514 66.5205C244.426 66.4463 244.44 66.3538 244.527 66.2991C244.435 66.2624 244.446 66.1769 244.495 66.1339C244.485 66.1259 244.477 66.1203 244.47 66.1166L244.47 66.1163C244.396 66.0098 244.49 65.9293 244.497 65.9323C244.414 65.8975 244.42 65.7387 244.514 65.7225C244.396 65.4683 244.84 65.4963 244.709 65.7552C244.765 65.7924 244.82 65.8916 244.744 65.977C244.811 66.0335 244.837 66.1585 244.733 66.2083C244.811 66.2461 244.83 66.3609 244.759 66.4107Z" fill="#212121"/>
<path d="M240.583 65.7326C240.618 65.735 240.687 65.706 240.679 65.5708C240.773 65.5708 240.855 65.3998 240.718 65.2361C240.609 65.1067 240.459 65.2756 240.583 65.4025C240.449 65.3289 240.341 65.4761 240.473 65.5957C240.346 65.5708 240.254 65.7125 240.373 65.8021C240.301 65.8343 240.192 65.9272 240.332 66.0418C240.269 66.0942 240.205 66.1908 240.332 66.2814C240.158 66.4364 240.433 66.6397 240.468 66.3893C240.613 66.3692 240.665 66.2119 240.507 66.1621C240.624 66.1195 240.628 66.0166 240.534 65.9411C240.625 65.9219 240.665 65.789 240.583 65.7326Z" fill="#212121"/>
<path d="M245.09 66.5837C244.945 66.6053 244.906 66.4412 245.004 66.3803C244.858 66.3901 244.845 66.2599 244.89 66.1824C244.923 66.1251 244.898 66.0213 244.811 65.9771C244.89 65.9204 244.861 65.7916 244.777 65.7535C244.811 65.6419 245.034 65.6782 244.994 65.8511C245.089 65.8588 245.134 65.9523 245.077 66.0398C245.176 66.0448 245.212 66.1341 245.157 66.2274C245.237 66.2274 245.318 66.3124 245.266 66.4033C245.37 66.4192 245.39 66.5579 245.3 66.6039C245.343 66.815 245.004 66.7685 245.09 66.5837Z" fill="#212121"/>
<path d="M244.993 65.0374L244.993 65.037C244.952 65.0958 244.972 65.2172 245.102 65.2172C245.082 65.2627 245.078 65.3559 245.194 65.3696C245.171 65.4073 245.18 65.4881 245.27 65.4998C245.334 65.508 245.383 65.5718 245.363 65.6426C245.469 65.6426 245.526 65.7452 245.488 65.812C245.532 65.812 245.585 65.8182 245.634 65.8753C245.666 65.7909 245.616 65.7034 245.531 65.6785C245.531 65.6279 245.515 65.5994 245.468 65.5709C245.479 65.5396 245.469 65.5 245.425 65.4633C245.454 65.409 245.451 65.3428 245.388 65.2977C245.407 65.2192 245.381 65.1183 245.285 65.099C245.227 64.9767 245.077 64.9469 244.993 65.0374Z" fill="#212121"/>
<path d="M244.652 64.8464C244.591 64.7328 244.481 64.7454 244.411 64.7669C244.479 64.7669 244.552 64.8022 244.545 64.918C244.545 64.918 244.674 64.9615 244.631 65.1256C244.727 65.149 244.755 65.2561 244.704 65.355C244.631 65.5302 244.908 65.6146 244.93 65.3825C245.091 65.355 245.017 65.163 244.908 65.1687C244.946 65.0529 244.848 64.9933 244.781 65.0016C244.804 64.9073 244.724 64.8464 244.652 64.8464Z" fill="#212121"/>
<path d="M245.286 65.7052C245.347 65.6978 245.464 65.7309 245.411 65.8854C245.479 65.8897 245.572 65.9572 245.504 66.0713C245.572 66.0639 245.672 66.1743 245.571 66.2662C245.67 66.2846 245.72 66.4079 245.65 66.4889C245.773 66.6029 245.495 66.728 245.495 66.522C245.389 66.522 245.349 66.4112 245.411 66.3141C245.309 66.327 245.24 66.189 245.309 66.1283C245.221 66.1191 245.181 66.0639 245.21 65.9517C245.14 65.9756 245.05 65.81 245.14 65.7659C244.952 65.5826 245.286 65.4557 245.286 65.7052Z" fill="#212121"/>
<path d="M245.865 66.9588C245.88 66.9892 245.876 67.0003 245.867 67.0231L245.865 67.0297C245.893 67.0178 245.95 67.0208 245.978 67.0521C246.005 67.0834 246.013 67.152 245.96 67.1925C245.915 67.2274 245.871 67.2548 245.851 67.267C245.707 67.3213 245.639 67.2014 245.682 67.1385C245.516 67.1682 245.479 67.0249 245.523 66.9585C245.423 66.9336 245.394 66.8188 245.458 66.7454C245.556 66.6326 245.804 66.6848 245.736 66.912C245.801 66.8958 245.846 66.9306 245.865 66.9588Z" fill="#212121"/>
<path d="M244.981 67.1047C244.979 67.1057 244.977 67.1068 244.975 67.1079C244.952 67.1253 244.935 67.1433 244.923 67.1613C244.873 67.2524 244.958 67.3769 245.09 67.3999C245.121 67.4038 245.153 67.401 245.182 67.3897C245.269 67.3551 245.265 67.25 245.2 67.2054C245.314 67.1576 245.268 67.0315 245.173 66.9949C245.237 67.005 245.289 66.9339 245.268 66.8126C245.268 66.8126 245.058 66.8795 245.024 66.6746C244.99 66.662 244.956 66.6719 244.93 66.6924C244.89 66.7382 244.849 66.8357 244.981 66.8941C244.934 66.9125 244.851 67.0183 244.981 67.1047Z" fill="#212121"/>
<path d="M241.133 66.4179L241.135 66.4185L241.134 66.4171C241.121 66.3151 241.108 66.2764 241.052 66.2405C241.014 66.2163 240.901 66.2184 240.909 66.3151C240.836 66.3104 240.733 66.3226 240.753 66.4806C240.704 66.4937 240.619 66.5517 240.653 66.6792C240.608 66.6965 240.535 66.7624 240.59 66.8936C240.51 66.9129 240.461 67.0983 240.68 67.1882C240.693 67.1934 240.71 67.1987 240.729 67.2032C240.762 67.2035 240.8 67.1923 240.813 67.1522C240.836 67.0802 240.787 67.0376 240.738 67.0135C240.789 67.0292 240.853 67.0332 240.875 66.9773C240.903 66.908 240.841 66.8609 240.8 66.8431C240.83 66.8537 240.89 66.857 240.921 66.8077C240.953 66.7542 240.909 66.7016 240.887 66.6803C240.906 66.6911 240.953 66.703 240.993 66.6641C241.033 66.6252 241.006 66.5601 240.987 66.5324C241.01 66.541 241.062 66.5531 241.094 66.5324C241.126 66.5116 241.134 66.4474 241.133 66.4179Z" fill="#212121"/>
<path d="M239.879 66.6157C239.855 66.6252 239.802 66.6387 239.766 66.6222C239.719 66.6011 239.702 66.5275 239.743 66.4806C239.735 66.4649 239.719 66.419 239.721 66.3601C239.722 66.2865 239.806 66.2359 239.859 66.2736C239.856 66.2497 239.858 66.1964 239.896 66.1743C239.935 66.1522 239.974 66.1596 239.988 66.166C239.979 66.1436 239.97 66.0911 240.004 66.0602C240.038 66.0293 240.069 66.0302 240.08 66.0345L240.08 66.0333C240.083 66.0348 240.086 66.0364 240.088 66.0382C240.22 66.1195 240.242 66.258 240.19 66.3619C240.164 66.4124 240.094 66.427 240.071 66.4199C240.054 66.5023 240.031 66.5468 239.929 66.5232C239.928 66.5459 239.903 66.5894 239.879 66.6157Z" fill="#212121"/>
<path d="M245.857 67.6874C245.926 67.713 246.004 67.6794 245.993 67.5576C246.07 67.5881 246.096 67.6944 246.054 67.7591C246.062 67.7876 246.062 67.8033 246.049 67.8171C246.069 67.8364 246.077 67.8529 246.069 67.876C246.12 67.8976 246.118 68.0093 246.089 68.0342C246.17 68.0893 246.13 68.2163 246.062 68.2163L246.062 68.2202C245.949 68.2431 245.889 68.1408 245.944 68.0621C246.005 67.9744 245.953 67.864 245.877 67.864C245.934 67.8402 245.925 67.7127 245.857 67.6874Z" fill="#212121"/>
<path d="M239.782 67.0759C239.841 67.1143 239.948 67.1076 239.996 66.9507C240.096 67.0425 240.262 67.0028 240.29 66.8577C240.415 66.9375 240.535 66.8441 240.522 66.7006C240.506 66.5308 240.331 66.5574 240.318 66.6628C240.23 66.5969 240.123 66.6512 240.142 66.7582C240.077 66.7054 240.02 66.7286 239.992 66.7682L239.994 66.7685C239.988 66.7765 239.976 66.7955 239.976 66.808C239.918 66.8014 239.883 66.8341 239.872 66.8513C239.776 66.8192 239.706 66.9046 239.741 66.9975L239.741 66.9986C239.75 67.0215 239.759 67.0456 239.782 67.0759Z" fill="#212121"/>
<path d="M245.862 67.2942L245.867 67.2912C245.963 67.3059 245.972 67.3943 245.931 67.4548C245.929 67.4561 245.928 67.4573 245.926 67.4584C245.879 67.5315 245.801 67.5375 245.745 67.4827C245.701 67.5436 245.567 67.5083 245.567 67.4279C245.464 67.5397 245.33 67.4255 245.39 67.3194C245.282 67.3087 245.271 67.1961 245.343 67.1402C245.273 67.1094 245.294 66.987 245.373 66.9527C245.354 67.0138 245.39 67.0857 245.464 67.0991C245.426 67.1478 245.472 67.2942 245.612 67.2241C245.589 67.3204 245.753 67.4187 245.862 67.2942Z" fill="#212121"/>
<path d="M240.323 67.5617C240.186 67.5283 240.227 67.3763 240.303 67.3581C240.223 67.2776 240.251 67.2043 240.303 67.1644C240.224 67.1153 240.264 67.0089 240.303 66.984C240.36 67.0067 240.421 67.0012 240.477 66.9506C240.424 67.0316 240.412 67.1342 240.529 67.1644C240.428 67.226 240.432 67.2938 240.511 67.3653C240.593 67.4383 240.515 67.6086 240.323 67.5617Z" fill="#212121"/>
<path d="M240.738 65.8774C240.672 65.9204 240.671 66.0513 240.738 66.0796C240.645 66.1472 240.682 66.2412 240.716 66.3071C240.736 66.2538 240.786 66.2183 240.857 66.2412C240.845 66.1725 240.91 66.1296 240.971 66.1415C240.922 66.1103 240.9 66.0217 240.932 65.949C240.869 65.9221 240.833 65.855 240.891 65.7713C240.819 65.7551 240.784 65.7215 240.784 65.6178C240.706 65.7161 240.678 65.778 240.738 65.8774Z" fill="#212121"/>
</g>
<rect x="247.423" y="62.4966" width="33.9085" height="3.01408" rx="1.50704" fill="white" fill-opacity="0.6"/>
<rect x="247.423" y="67.7712" width="22.6056" height="3.01408" rx="1.50704" fill="white" fill-opacity="0.6"/>
<rect x="237.627" y="31.606" width="45.2113" height="18.0845" rx="2" fill="#F34040"/>
<path d="M242.901 36.8804C240.829 36.8804 239.134 38.5758 239.134 40.648C239.134 42.7202 240.829 44.4156 242.901 44.4156C244.974 44.4156 246.669 42.7202 246.669 40.648C246.669 38.5758 244.974 36.8804 242.901 36.8804ZM242.901 43.6621C241.24 43.6621 239.887 42.3095 239.887 40.648C239.887 38.9865 241.24 37.6339 242.901 37.6339C244.563 37.6339 245.915 38.9865 245.915 40.648C245.915 42.3095 244.563 43.6621 242.901 43.6621ZM244.631 38.9827L242.148 41.4655L241.172 40.4935L240.641 41.0247L242.148 42.5318L245.162 39.5177L244.631 38.9827Z" fill="white"/>
<rect x="247.423" y="35.3735" width="33.9085" height="3.01408" rx="1.50704" fill="white" fill-opacity="0.6"/>
<rect x="247.423" y="40.6482" width="22.6056" height="3.01408" rx="1.50704" fill="white" fill-opacity="0.6"/>
<rect x="176" y="33" width="45.2113" height="8.28873" rx="2" fill="#FF8A33"/>
<path d="M186.042 37.4795H184.955V36.7939H186.042C186.21 36.7939 186.347 36.7666 186.452 36.7119C186.558 36.6553 186.635 36.5771 186.684 36.4775C186.732 36.3779 186.757 36.2656 186.757 36.1406C186.757 36.0137 186.732 35.8955 186.684 35.7861C186.635 35.6768 186.558 35.5889 186.452 35.5225C186.347 35.4561 186.21 35.4229 186.042 35.4229H185.26V39H184.381V34.7344H186.042C186.376 34.7344 186.662 34.7949 186.9 34.916C187.141 35.0352 187.324 35.2002 187.451 35.4111C187.578 35.6221 187.642 35.8633 187.642 36.1348C187.642 36.4102 187.578 36.6484 187.451 36.8496C187.324 37.0508 187.141 37.2061 186.9 37.3154C186.662 37.4248 186.376 37.4795 186.042 37.4795ZM188.973 36.5215V39H188.129V35.8301H188.923L188.973 36.5215ZM189.928 35.8096L189.913 36.5918C189.872 36.5859 189.823 36.5811 189.764 36.5771C189.707 36.5713 189.656 36.5684 189.609 36.5684C189.49 36.5684 189.386 36.584 189.298 36.6152C189.212 36.6445 189.14 36.6885 189.081 36.7471C189.025 36.8057 188.982 36.877 188.953 36.9609C188.925 37.0449 188.91 37.1406 188.906 37.248L188.736 37.1953C188.736 36.9902 188.756 36.8018 188.797 36.6299C188.838 36.4561 188.898 36.3047 188.976 36.1758C189.056 36.0469 189.154 35.9473 189.269 35.877C189.384 35.8066 189.516 35.7715 189.664 35.7715C189.711 35.7715 189.759 35.7754 189.808 35.7832C189.857 35.7891 189.897 35.7979 189.928 35.8096ZM190.038 37.4473V37.3857C190.038 37.1533 190.071 36.9395 190.138 36.7441C190.204 36.5469 190.301 36.376 190.428 36.2314C190.555 36.0869 190.711 35.9746 190.896 35.8945C191.082 35.8125 191.295 35.7715 191.535 35.7715C191.775 35.7715 191.989 35.8125 192.177 35.8945C192.364 35.9746 192.521 36.0869 192.648 36.2314C192.777 36.376 192.875 36.5469 192.941 36.7441C193.008 36.9395 193.041 37.1533 193.041 37.3857V37.4473C193.041 37.6777 193.008 37.8916 192.941 38.0889C192.875 38.2842 192.777 38.4551 192.648 38.6016C192.521 38.7461 192.365 38.8584 192.18 38.9385C191.994 39.0186 191.781 39.0586 191.541 39.0586C191.301 39.0586 191.087 39.0186 190.899 38.9385C190.714 38.8584 190.556 38.7461 190.428 38.6016C190.301 38.4551 190.204 38.2842 190.138 38.0889C190.071 37.8916 190.038 37.6777 190.038 37.4473ZM190.882 37.3857V37.4473C190.882 37.5801 190.893 37.7041 190.917 37.8193C190.94 37.9346 190.977 38.0361 191.028 38.124C191.081 38.21 191.149 38.2773 191.233 38.3262C191.317 38.375 191.42 38.3994 191.541 38.3994C191.658 38.3994 191.759 38.375 191.843 38.3262C191.927 38.2773 191.994 38.21 192.045 38.124C192.096 38.0361 192.133 37.9346 192.156 37.8193C192.181 37.7041 192.194 37.5801 192.194 37.4473V37.3857C192.194 37.2568 192.181 37.1357 192.156 37.0225C192.133 36.9072 192.095 36.8057 192.042 36.7178C191.991 36.6279 191.924 36.5576 191.84 36.5068C191.756 36.4561 191.654 36.4307 191.535 36.4307C191.416 36.4307 191.314 36.4561 191.23 36.5068C191.148 36.5576 191.081 36.6279 191.028 36.7178C190.977 36.8057 190.94 36.9072 190.917 37.0225C190.893 37.1357 190.882 37.2568 190.882 37.3857ZM193.54 35.8301H194.387V39.1904C194.387 39.4248 194.344 39.623 194.258 39.7852C194.172 39.9473 194.048 40.0703 193.886 40.1543C193.724 40.2383 193.528 40.2803 193.297 40.2803C193.225 40.2803 193.155 40.2764 193.086 40.2686C193.016 40.2607 192.944 40.248 192.869 40.2305L192.872 39.583C192.919 39.5908 192.965 39.5967 193.01 39.6006C193.053 39.6064 193.097 39.6094 193.142 39.6094C193.23 39.6094 193.303 39.5947 193.362 39.5654C193.42 39.5361 193.464 39.4902 193.493 39.4277C193.525 39.3672 193.54 39.2881 193.54 39.1904V35.8301ZM193.473 35.0039C193.473 34.8809 193.516 34.7793 193.602 34.6992C193.69 34.6191 193.805 34.5791 193.948 34.5791C194.092 34.5791 194.207 34.6191 194.293 34.6992C194.379 34.7793 194.422 34.8809 194.422 35.0039C194.422 35.127 194.379 35.2285 194.293 35.3086C194.207 35.3887 194.092 35.4287 193.948 35.4287C193.805 35.4287 193.69 35.3887 193.602 35.3086C193.516 35.2285 193.473 35.127 193.473 35.0039ZM196.451 39.0586C196.205 39.0586 195.984 39.0195 195.789 38.9414C195.593 38.8613 195.427 38.751 195.291 38.6104C195.156 38.4697 195.052 38.3066 194.98 38.1211C194.908 37.9336 194.872 37.7344 194.872 37.5234V37.4062C194.872 37.166 194.906 36.9463 194.974 36.7471C195.043 36.5479 195.14 36.375 195.267 36.2285C195.396 36.082 195.552 35.9697 195.736 35.8916C195.92 35.8115 196.127 35.7715 196.357 35.7715C196.582 35.7715 196.781 35.8086 196.955 35.8828C197.129 35.957 197.274 36.0625 197.391 36.1992C197.51 36.3359 197.6 36.5 197.661 36.6914C197.721 36.8809 197.752 37.0918 197.752 37.3242V37.6758H195.232V37.1133H196.923V37.0488C196.923 36.9316 196.901 36.8271 196.858 36.7354C196.817 36.6416 196.755 36.5674 196.671 36.5127C196.587 36.458 196.479 36.4307 196.348 36.4307C196.237 36.4307 196.141 36.4551 196.061 36.5039C195.981 36.5527 195.916 36.6211 195.865 36.709C195.816 36.7969 195.779 36.9004 195.754 37.0195C195.73 37.1367 195.718 37.2656 195.718 37.4062V37.5234C195.718 37.6504 195.736 37.7676 195.771 37.875C195.808 37.9824 195.86 38.0752 195.926 38.1533C195.995 38.2314 196.077 38.292 196.173 38.335C196.27 38.3779 196.381 38.3994 196.504 38.3994C196.656 38.3994 196.798 38.3701 196.928 38.3115C197.061 38.251 197.175 38.1602 197.271 38.0391L197.681 38.4844C197.615 38.5801 197.524 38.6719 197.409 38.7598C197.296 38.8477 197.159 38.9199 196.999 38.9766C196.839 39.0312 196.656 39.0586 196.451 39.0586ZM199.476 38.3994C199.579 38.3994 199.671 38.3799 199.751 38.3408C199.831 38.2998 199.894 38.2432 199.939 38.1709C199.985 38.0967 200.01 38.0098 200.012 37.9102H200.806C200.804 38.1328 200.744 38.3311 200.627 38.5049C200.51 38.6768 200.353 38.8125 200.155 38.9121C199.958 39.0098 199.737 39.0586 199.493 39.0586C199.247 39.0586 199.032 39.0176 198.849 38.9355C198.667 38.8535 198.516 38.7402 198.395 38.5957C198.274 38.4492 198.183 38.2793 198.122 38.0859C198.062 37.8906 198.031 37.6816 198.031 37.459V37.374C198.031 37.1494 198.062 36.9404 198.122 36.7471C198.183 36.5518 198.274 36.3818 198.395 36.2373C198.516 36.0908 198.667 35.9766 198.849 35.8945C199.03 35.8125 199.243 35.7715 199.487 35.7715C199.747 35.7715 199.975 35.8213 200.17 35.9209C200.367 36.0205 200.522 36.1631 200.633 36.3486C200.746 36.5322 200.804 36.75 200.806 37.002H200.012C200.01 36.8965 199.987 36.8008 199.944 36.7148C199.903 36.6289 199.843 36.5605 199.763 36.5098C199.685 36.457 199.588 36.4307 199.473 36.4307C199.35 36.4307 199.249 36.457 199.171 36.5098C199.093 36.5605 199.032 36.6309 198.989 36.7207C198.946 36.8086 198.916 36.9092 198.899 37.0225C198.883 37.1338 198.875 37.251 198.875 37.374V37.459C198.875 37.582 198.883 37.7002 198.899 37.8135C198.914 37.9268 198.943 38.0273 198.986 38.1152C199.031 38.2031 199.093 38.2725 199.171 38.3232C199.249 38.374 199.351 38.3994 199.476 38.3994ZM202.782 35.8301V36.4277H200.936V35.8301H202.782ZM201.393 35.0479H202.237V38.0449C202.237 38.1367 202.249 38.207 202.272 38.2559C202.297 38.3047 202.334 38.3389 202.383 38.3584C202.432 38.376 202.494 38.3848 202.568 38.3848C202.621 38.3848 202.667 38.3828 202.708 38.3789C202.751 38.373 202.788 38.3672 202.817 38.3613L202.82 38.9824C202.748 39.0059 202.669 39.0244 202.585 39.0381C202.501 39.0518 202.409 39.0586 202.307 39.0586C202.122 39.0586 201.959 39.0283 201.821 38.9678C201.684 38.9053 201.579 38.8057 201.504 38.6689C201.43 38.5322 201.393 38.3525 201.393 38.1299V35.0479ZM206.496 38.3086V34.5H207.346V39H206.581L206.496 38.3086ZM204.493 37.4531V37.3916C204.493 37.1494 204.52 36.9297 204.575 36.7324C204.629 36.5332 204.709 36.3623 204.815 36.2197C204.92 36.0771 205.05 35.9668 205.204 35.8887C205.359 35.8105 205.535 35.7715 205.732 35.7715C205.917 35.7715 206.079 35.8105 206.218 35.8887C206.359 35.9668 206.478 36.0781 206.576 36.2227C206.675 36.3652 206.755 36.5342 206.816 36.7295C206.876 36.9229 206.92 37.1348 206.948 37.3652V37.5C206.92 37.7207 206.876 37.9258 206.816 38.1152C206.755 38.3047 206.675 38.4707 206.576 38.6133C206.478 38.7539 206.359 38.8633 206.218 38.9414C206.077 39.0195 205.913 39.0586 205.726 39.0586C205.529 39.0586 205.353 39.0186 205.199 38.9385C205.046 38.8584 204.917 38.7461 204.812 38.6016C204.708 38.457 204.629 38.2871 204.575 38.0918C204.52 37.8965 204.493 37.6836 204.493 37.4531ZM205.336 37.3916V37.4531C205.336 37.584 205.346 37.7061 205.366 37.8193C205.387 37.9326 205.421 38.0332 205.468 38.1211C205.517 38.207 205.579 38.2744 205.656 38.3232C205.734 38.3701 205.828 38.3936 205.94 38.3936C206.084 38.3936 206.203 38.3613 206.297 38.2969C206.391 38.2305 206.462 38.1396 206.511 38.0244C206.562 37.9092 206.591 37.7764 206.599 37.626V37.2422C206.593 37.1191 206.576 37.0088 206.546 36.9111C206.519 36.8115 206.478 36.7266 206.423 36.6562C206.37 36.5859 206.304 36.5312 206.224 36.4922C206.146 36.4531 206.053 36.4336 205.946 36.4336C205.836 36.4336 205.743 36.459 205.664 36.5098C205.586 36.5586 205.523 36.626 205.474 36.7119C205.427 36.7979 205.392 36.8994 205.368 37.0166C205.347 37.1318 205.336 37.2568 205.336 37.3916ZM208.83 35.8301V39H207.983V35.8301H208.83ZM207.93 35.0039C207.93 34.8809 207.973 34.7793 208.059 34.6992C208.145 34.6191 208.26 34.5791 208.405 34.5791C208.548 34.5791 208.662 34.6191 208.748 34.6992C208.836 34.7793 208.88 34.8809 208.88 35.0039C208.88 35.127 208.836 35.2285 208.748 35.3086C208.662 35.3887 208.548 35.4287 208.405 35.4287C208.26 35.4287 208.145 35.3887 208.059 35.3086C207.973 35.2285 207.93 35.127 207.93 35.0039ZM211.175 38.124C211.175 38.0635 211.157 38.0088 211.122 37.96C211.087 37.9111 211.022 37.8662 210.926 37.8252C210.832 37.7822 210.696 37.7432 210.519 37.708C210.359 37.6729 210.209 37.6289 210.07 37.5762C209.934 37.5215 209.815 37.4561 209.713 37.3799C209.613 37.3037 209.535 37.2139 209.479 37.1104C209.422 37.0049 209.394 36.8848 209.394 36.75C209.394 36.6172 209.422 36.4922 209.479 36.375C209.537 36.2578 209.62 36.1543 209.728 36.0645C209.837 35.9727 209.97 35.9014 210.126 35.8506C210.284 35.7979 210.462 35.7715 210.659 35.7715C210.935 35.7715 211.171 35.8154 211.368 35.9033C211.568 35.9912 211.72 36.1123 211.825 36.2666C211.933 36.4189 211.986 36.5928 211.986 36.7881H211.143C211.143 36.7061 211.125 36.6328 211.09 36.5684C211.057 36.502 211.004 36.4502 210.932 36.4131C210.861 36.374 210.77 36.3545 210.656 36.3545C210.563 36.3545 210.482 36.3711 210.413 36.4043C210.345 36.4355 210.292 36.4785 210.255 36.5332C210.22 36.5859 210.202 36.6445 210.202 36.709C210.202 36.7578 210.212 36.8018 210.232 36.8408C210.253 36.8779 210.287 36.9121 210.334 36.9434C210.381 36.9746 210.442 37.0039 210.516 37.0312C210.592 37.0566 210.686 37.0801 210.797 37.1016C211.026 37.1484 211.23 37.21 211.409 37.2861C211.589 37.3604 211.732 37.4619 211.837 37.5908C211.943 37.7178 211.995 37.8848 211.995 38.0918C211.995 38.2324 211.964 38.3613 211.902 38.4785C211.839 38.5957 211.749 38.6982 211.632 38.7861C211.515 38.8721 211.374 38.9395 211.21 38.9883C211.048 39.0352 210.865 39.0586 210.662 39.0586C210.367 39.0586 210.117 39.0059 209.912 38.9004C209.709 38.7949 209.555 38.6611 209.449 38.499C209.346 38.335 209.294 38.167 209.294 37.9951H210.094C210.098 38.1104 210.127 38.2031 210.182 38.2734C210.238 38.3438 210.31 38.3945 210.396 38.4258C210.484 38.457 210.578 38.4727 210.68 38.4727C210.789 38.4727 210.88 38.458 210.952 38.4287C211.025 38.3975 211.079 38.3564 211.116 38.3057C211.155 38.2529 211.175 38.1924 211.175 38.124ZM212.518 38.5928C212.518 38.4678 212.561 38.3633 212.647 38.2793C212.735 38.1953 212.851 38.1533 212.996 38.1533C213.14 38.1533 213.255 38.1953 213.341 38.2793C213.429 38.3633 213.473 38.4678 213.473 38.5928C213.473 38.7178 213.429 38.8223 213.341 38.9062C213.255 38.9902 213.14 39.0322 212.996 39.0322C212.851 39.0322 212.735 38.9902 212.647 38.9062C212.561 38.8223 212.518 38.7178 212.518 38.5928ZM214.192 38.5928C214.192 38.4678 214.235 38.3633 214.321 38.2793C214.409 38.1953 214.525 38.1533 214.67 38.1533C214.814 38.1533 214.93 38.1953 215.016 38.2793C215.104 38.3633 215.147 38.4678 215.147 38.5928C215.147 38.7178 215.104 38.8223 215.016 38.9062C214.93 38.9902 214.814 39.0322 214.67 39.0322C214.525 39.0322 214.409 38.9902 214.321 38.9062C214.235 38.8223 214.192 38.7178 214.192 38.5928Z" fill="white"/>
<g clip-path="url(#clip1_696_8197)">
<path d="M181.758 35.5582L181.626 35.4926C181.527 35.4434 181.445 35.3942 181.379 35.3122L181.131 35.0663C180.934 34.886 180.653 34.8204 180.406 34.9024C180.241 34.9516 180.06 34.9516 179.895 34.9024C179.664 34.7876 179.4 34.8368 179.219 35.0008L178.922 35.3122C178.84 35.3778 178.757 35.4434 178.675 35.4926L178.543 35.5582C178.312 35.6729 178.18 35.9352 178.213 36.1975L178.394 37.132C178.411 37.2304 178.493 37.2959 178.592 37.2959C179.568 37.2959 180.639 37.3123 181.709 37.3123C181.807 37.3123 181.873 37.2468 181.89 37.1484L182.071 36.2139C182.121 35.9352 181.989 35.6729 181.758 35.5582Z" fill="#212121"/>
<path d="M181.73 36.9901C181.718 37.1426 181.708 37.3122 181.708 37.3122C181.807 37.3122 181.873 37.2466 181.89 37.1483L181.906 37.0648C182.037 37.1538 182.122 37.3039 182.122 37.474C182.122 37.7471 181.901 37.9685 181.628 37.9685C181.355 37.9685 181.133 37.7471 181.133 37.474C181.133 37.2009 181.355 36.9795 181.628 36.9795C181.663 36.9795 181.697 36.9832 181.73 36.9901Z" fill="#F4C6AD"/>
<path d="M178.381 37.0661L178.394 37.1319C178.411 37.2302 178.493 37.2958 178.592 37.2958C178.592 37.2958 178.582 37.1412 178.57 36.9878C178.6 36.9823 178.63 36.9795 178.661 36.9795C178.934 36.9795 179.156 37.2009 179.156 37.474C179.156 37.7471 178.934 37.9685 178.661 37.9685C178.388 37.9685 178.167 37.7471 178.167 37.474C178.167 37.3047 178.252 37.1553 178.381 37.0661Z" fill="#F4C6AD"/>
<path d="M178.577 37.2954C178.582 37.2958 178.587 37.2959 178.592 37.2959C178.592 37.2959 178.576 37.0336 178.559 36.8533C178.559 36.7713 178.592 36.673 178.658 36.6238L178.707 36.5746C178.79 36.509 178.823 36.4107 178.823 36.3123V36.05C178.823 35.968 178.872 35.9024 178.955 35.886C179.153 35.8369 179.565 35.7549 180.158 35.7549C180.752 35.7549 181.164 35.8369 181.362 35.886C181.428 35.9024 181.494 35.968 181.494 36.05V36.3123C181.494 36.4107 181.543 36.509 181.609 36.5746L181.642 36.6402C181.708 36.7057 181.741 36.7877 181.741 36.8697C181.725 37.0336 181.708 37.3123 181.708 37.3123C181.71 37.3123 181.712 37.3123 181.714 37.3123L181.632 38.529C181.583 39.073 181.155 39.4521 180.645 39.4521H179.658C179.132 39.4521 178.721 39.073 178.672 38.529L178.577 37.2954Z" fill="#FFD7C2"/>
<path d="M180.027 37.3961L179.864 37.9186C179.83 38.026 179.91 38.1335 180.024 38.1335H180.265C180.379 38.1335 180.459 38.0244 180.425 37.9186L180.262 37.3961C180.227 37.2804 180.064 37.2804 180.027 37.3961Z" fill="#E5AF93"/>
<path d="M180.145 38.4457C179.989 38.4457 179.842 38.409 179.719 38.3448C179.677 38.3234 179.632 38.3708 179.658 38.409C179.761 38.565 179.941 38.669 180.145 38.669C180.349 38.669 180.529 38.565 180.631 38.409C180.658 38.3693 180.613 38.3234 180.571 38.3448C180.447 38.409 180.302 38.4457 180.145 38.4457Z" fill="#990838"/>
<path d="M178.993 37.3697C179.04 37.1839 179.21 37.0454 179.41 37.0454C179.618 37.0454 179.792 37.1937 179.831 37.3909C179.839 37.4349 179.805 37.474 179.761 37.474H179.076C179.021 37.474 178.98 37.4235 178.993 37.3697Z" fill="white"/>
<path d="M181.296 37.3697C181.249 37.1839 181.079 37.0454 180.879 37.0454C180.669 37.0454 180.497 37.1937 180.458 37.3909C180.45 37.4349 180.484 37.474 180.528 37.474H181.213C181.268 37.474 181.309 37.4235 181.296 37.3697Z" fill="white"/>
<path d="M179.198 37.4011C179.198 37.2485 179.322 37.1267 179.473 37.1267C179.625 37.1267 179.747 37.2485 179.747 37.4011C179.747 37.427 179.743 37.4514 179.737 37.4741H179.208C179.201 37.4498 179.198 37.427 179.198 37.4011Z" fill="#7D4533"/>
<path d="M181.091 37.4011C181.091 37.2485 180.967 37.1267 180.816 37.1267C180.665 37.1267 180.541 37.2485 180.542 37.4011C180.542 37.427 180.546 37.4514 180.552 37.4741H181.081C181.088 37.4498 181.091 37.427 181.091 37.4011Z" fill="#7D4533"/>
<path d="M179.473 37.2451C179.559 37.2451 179.629 37.3149 179.629 37.401C179.629 37.4269 179.623 37.4513 179.611 37.474H179.335C179.323 37.4513 179.317 37.4269 179.317 37.401C179.317 37.3149 179.387 37.2451 179.473 37.2451Z" fill="black"/>
<path d="M180.814 37.2451C180.728 37.2451 180.658 37.3149 180.658 37.401C180.658 37.4269 180.664 37.4513 180.676 37.474H180.952C180.964 37.4513 180.97 37.4269 180.97 37.401C180.97 37.3149 180.9 37.2451 180.814 37.2451Z" fill="black"/>
<path d="M179.428 37.296C179.428 37.3233 179.406 37.3455 179.379 37.3455C179.352 37.3455 179.33 37.3233 179.33 37.296C179.33 37.2687 179.352 37.2466 179.379 37.2466C179.406 37.2466 179.428 37.2687 179.428 37.296Z" fill="white"/>
<path d="M180.778 37.296C180.778 37.3233 180.757 37.3455 180.73 37.3455C180.703 37.3455 180.681 37.3233 180.681 37.296C180.681 37.2687 180.703 37.2466 180.73 37.2466C180.757 37.2466 180.778 37.2687 180.778 37.296Z" fill="white"/>
<path d="M178.985 36.6478L178.985 36.6476L178.985 36.6474L178.986 36.6469L178.987 36.6458L178.991 36.6428C178.994 36.6406 178.998 36.6378 179.002 36.6345C179.011 36.6279 179.023 36.6194 179.039 36.6098C179.069 36.5906 179.113 36.5667 179.168 36.545C179.278 36.5014 179.435 36.4662 179.626 36.4964C179.716 36.5105 179.777 36.5945 179.763 36.684C179.749 36.7735 179.665 36.8346 179.575 36.8205C179.453 36.8012 179.355 36.8237 179.288 36.8501C179.255 36.8634 179.229 36.8777 179.213 36.8878C179.205 36.8929 179.199 36.8969 179.196 36.8992C179.195 36.9001 179.194 36.9007 179.193 36.901C179.124 36.9577 179.021 36.948 178.964 36.8788C178.906 36.8092 178.915 36.7058 178.985 36.6478Z" fill="#212121"/>
<path d="M181.288 36.6477L181.288 36.6474L181.287 36.6469L181.286 36.6458L181.282 36.6428C181.279 36.6406 181.276 36.6378 181.271 36.6345C181.262 36.6279 181.25 36.6194 181.235 36.6098C181.204 36.5906 181.16 36.5667 181.105 36.545C180.995 36.5014 180.838 36.4662 180.647 36.4964C180.557 36.5105 180.496 36.5945 180.51 36.684C180.524 36.7735 180.608 36.8346 180.698 36.8205C180.82 36.8012 180.918 36.8237 180.985 36.8501C181.018 36.8634 181.044 36.8777 181.06 36.8878C181.068 36.8929 181.074 36.8969 181.077 36.8992C181.078 36.9001 181.079 36.9007 181.08 36.901C181.149 36.9577 181.252 36.948 181.309 36.8788C181.367 36.8092 181.358 36.7057 181.288 36.6477Z" fill="#212121"/>
</g>
<rect x="175.838" y="57.2224" width="45.2113" height="18.0845" rx="2" fill="#00ADFF"/>
<rect x="185.634" y="60.99" width="33.9085" height="3.01408" rx="1.50704" fill="white" fill-opacity="0.6"/>
<rect x="185.634" y="66.2649" width="22.6056" height="3.01408" rx="1.50704" fill="white" fill-opacity="0.6"/>
<path d="M181.113 68.5251C180.314 68.5251 179.547 68.2075 178.982 67.6423C178.417 67.077 178.099 66.3104 178.099 65.511C178.099 64.7116 178.417 63.945 178.982 63.3797C179.547 62.8145 180.314 62.4969 181.113 62.4969C181.913 62.4969 182.679 62.8145 183.245 63.3797C183.81 63.945 184.127 64.7116 184.127 65.511C184.127 66.3104 183.81 67.077 183.245 67.6423C182.679 68.2075 181.913 68.5251 181.113 68.5251M181.113 61.7434C180.619 61.7434 180.129 61.8409 179.672 62.0302C179.214 62.2195 178.799 62.4971 178.449 62.8469C177.743 63.5535 177.346 64.5118 177.346 65.511C177.346 66.5102 177.743 67.4685 178.449 68.1751C178.799 68.525 179.214 68.8025 179.672 68.9918C180.129 69.1812 180.619 69.2786 181.113 69.2786C182.113 69.2786 183.071 68.8817 183.777 68.1751C184.484 67.4685 184.881 66.5102 184.881 65.511C184.881 65.0162 184.783 64.5263 184.594 64.0692C184.405 63.6121 184.127 63.1968 183.777 62.8469C183.428 62.4971 183.012 62.2195 182.555 62.0302C182.098 61.8409 181.608 61.7434 181.113 61.7434V61.7434Z" fill="white"/>
<rect x="109" y="57.2224" width="45.2113" height="18.0845" rx="2" fill="#00ADFF"/>
<rect x="118.796" y="60.99" width="33.9085" height="3.01408" rx="1.50704" fill="white" fill-opacity="0.6"/>
<rect x="118.796" y="66.2649" width="22.6056" height="3.01408" rx="1.50704" fill="white" fill-opacity="0.6"/>
<path d="M114.274 68.5251C113.475 68.5251 112.708 68.2075 112.143 67.6423C111.578 67.077 111.26 66.3104 111.26 65.511C111.26 64.7116 111.578 63.945 112.143 63.3797C112.708 62.8145 113.475 62.4969 114.274 62.4969C115.074 62.4969 115.84 62.8145 116.406 63.3797C116.971 63.945 117.289 64.7116 117.289 65.511C117.289 66.3104 116.971 67.077 116.406 67.6423C115.84 68.2075 115.074 68.5251 114.274 68.5251M114.274 61.7434C113.78 61.7434 113.29 61.8409 112.833 62.0302C112.376 62.2195 111.96 62.4971 111.61 62.8469C110.904 63.5535 110.507 64.5118 110.507 65.511C110.507 66.5102 110.904 67.4685 111.61 68.1751C111.96 68.525 112.376 68.8025 112.833 68.9918C113.29 69.1812 113.78 69.2786 114.274 69.2786C115.274 69.2786 116.232 68.8817 116.939 68.1751C117.645 67.4685 118.042 66.5102 118.042 65.511C118.042 65.0162 117.945 64.5263 117.755 64.0692C117.566 63.6121 117.288 63.1968 116.939 62.8469C116.589 62.4971 116.173 62.2195 115.716 62.0302C115.259 61.8409 114.769 61.7434 114.274 61.7434V61.7434Z" fill="white"/>
<defs>
<filter id="filter0_d_696_8197" x="0.385254" y="1" width="124.055" height="112.766" filterUnits="userSpaceOnUse" color-interpolation-filters="sRGB">
<feFlood flood-opacity="0" result="BackgroundImageFix"/>
<feColorMatrix in="SourceAlpha" type="matrix" values="0 0 0 0 0 0 0 0 0 0 0 0 0 0 0 0 0 0 127 0" result="hardAlpha"/>
<feOffset dy="4"/>
<feGaussianBlur stdDeviation="5"/>
<feComposite in2="hardAlpha" operator="out"/>
<feColorMatrix type="matrix" values="0 0 0 0 0.156863 0 0 0 0 0.156863 0 0 0 0 0.164706 0 0 0 0.25 0"/>
<feBlend mode="normal" in2="BackgroundImageFix" result="effect1_dropShadow_696_8197"/>
<feBlend mode="normal" in="SourceGraphic" in2="effect1_dropShadow_696_8197" result="shape"/>
</filter>
<filter id="filter1_i_696_8197" x="58.7222" y="50.0168" width="18.3696" height="14.1941" filterUnits="userSpaceOnUse" color-interpolation-filters="sRGB">
<feFlood flood-opacity="0" result="BackgroundImageFix"/>
<feBlend mode="normal" in="SourceGraphic" in2="BackgroundImageFix" result="shape"/>
<feColorMatrix in="SourceAlpha" type="matrix" values="0 0 0 0 0 0 0 0 0 0 0 0 0 0 0 0 0 0 127 0" result="hardAlpha"/>
<feOffset dy="4"/>
<feGaussianBlur stdDeviation="2"/>
<feComposite in2="hardAlpha" operator="arithmetic" k2="-1" k3="1"/>
<feColorMatrix type="matrix" values="0 0 0 0 0 0 0 0 0 0 0 0 0 0 0 0 0 0 0.25 0"/>
<feBlend mode="normal" in2="shape" result="effect1_innerShadow_696_8197"/>
</filter>
<linearGradient id="paint0_linear_696_8197" x1="48.3995" y1="20.3387" x2="25.3597" y2="88.2456" gradientUnits="userSpaceOnUse">
<stop stop-color="#F27F2E"/>
<stop offset="1" stop-color="#FF3838"/>
</linearGradient>
<linearGradient id="paint1_linear_696_8197" x1="44.5597" y1="63.1847" x2="84.7784" y2="148.473" gradientUnits="userSpaceOnUse">
<stop stop-color="#F27F2E"/>
<stop offset="1" stop-color="#FF3838"/>
</linearGradient>
<linearGradient id="paint2_linear_696_8197" x1="55.4065" y1="69.9323" x2="73.7286" y2="101.398" gradientUnits="userSpaceOnUse">
<stop/>
<stop offset="1" stop-color="#F27F2E" stop-opacity="0"/>
</linearGradient>
<linearGradient id="paint3_linear_696_8197" x1="89.2625" y1="72.7204" x2="74.6339" y2="98.5398" gradientUnits="userSpaceOnUse">
<stop stop-color="#BFBFBF"/>
<stop offset="1"/>
</linearGradient>
<linearGradient id="paint4_linear_696_8197" x1="25.5337" y1="83.4746" x2="12.03" y2="56.5884" gradientUnits="userSpaceOnUse">
<stop stop-color="#BFBFBF"/>
<stop offset="1"/>
</linearGradient>
<linearGradient id="paint5_linear_696_8197" x1="112.538" y1="69.968" x2="101.432" y2="79.8002" gradientUnits="userSpaceOnUse">
<stop stop-color="#F27F2E"/>
<stop offset="1" stop-color="#FF3838"/>
</linearGradient>
<linearGradient id="paint6_linear_696_8197" x1="17.4289" y1="97.3934" x2="18.2241" y2="82.5815" gradientUnits="userSpaceOnUse">
<stop stop-color="#F27F2E"/>
<stop offset="1" stop-color="#FF3838"/>
</linearGradient>
<clipPath id="clip0_696_8197">
<rect width="7.53521" height="7.53521" fill="white" transform="translate(239.134 64.0034)"/>
</clipPath>
<clipPath id="clip1_696_8197">
<rect width="5.27465" height="5.27465" fill="white" transform="translate(177.507 34.5071)"/>
</clipPath>
</defs>
</svg>
