<svg xmlns="http://www.w3.org/2000/svg" xmlns:xlink="http://www.w3.org/1999/xlink" viewBox="0 0 384.45 344.51"><defs><style>.cls-1,.cls-18,.cls-2,.cls-26,.cls-28,.cls-30,.cls-35,.cls-5{fill:none;}.cls-2{stroke:#f3792f;}.cls-18,.cls-2,.cls-35{stroke-linecap:round;}.cls-18,.cls-2,.cls-26,.cls-28,.cls-30,.cls-35,.cls-5{stroke-miterlimit:10;}.cls-2,.cls-35{stroke-width:2px;}.cls-18,.cls-2{stroke-dasharray:8.76;}.cls-3{fill:#4f6ddb;}.cls-4{fill:#f3792f;}.cls-5{stroke:#fff;stroke-width:5.45px;}.cls-6,.cls-9{fill:#fff;}.cls-7{fill:#c46226;}.cls-8{fill:#ff9c1a;}.cls-9{font-size:11.24px;font-family:MyriadPro-Regular, Myriad Pro;}.cls-10{letter-spacing:0.01em;}.cls-11{fill:#029d41;}.cls-12{letter-spacing:-0.05em;}.cls-13{fill:#fe3737;}.cls-14{letter-spacing:-0.03em;}.cls-15{fill:#794300;}.cls-16{fill:#303134;}.cls-17{fill:#663800;}.cls-18{stroke:#f6eeca;}.cls-19{fill:#232426;}.cls-20{fill:#fec519;}.cls-21{fill:#e39d76;}.cls-22{fill:#cc855e;}.cls-23{fill:#fec2a0;}.cls-24{fill:#f99979;}.cls-25{clip-path:url(#clip-path);}.cls-26{stroke:#e6b217;}.cls-27{clip-path:url(#clip-path-2);}.cls-28{stroke:#028f3b;}.cls-29{clip-path:url(#clip-path-3);}.cls-30{stroke:#151617;}.cls-31{fill:#28282a;}.cls-32{fill:#a20a0a;}.cls-33{fill:#d9d9d9;}.cls-34{fill:#f2792e;}.cls-35{stroke:#4f6ddb;}</style><clipPath id="clip-path" transform="translate(-22.75 -23.82)"><path class="cls-1" d="M65.31,33.61c-5.36.24-18-.22-21.68,6.59-3.58,6.56,6,23.69,6.7,24.92l0,.07A31.16,31.16,0,0,0,52.62,59c-5.84-1.69-6.18-10.11-1-10.34,4.94-.21,5,6,5,6.59v0c1.23-.21,2-4,2.31-5.16,0,0,7.41.74,9.14-5.77,2.91-.11,7.18,10,7.08,13a37.52,37.52,0,0,0,2.13-13C77.31,37.43,71.62,33.32,65.31,33.61Z"/></clipPath><clipPath id="clip-path-2" transform="translate(-22.75 -23.82)"><path class="cls-1" d="M275.61,107.6h0l0,.08a32.93,32.93,0,0,1-2.37-6.53c6.18-1.79,6.53-10.69,1.07-10.93-5.24-.23-5.35,6.41-5.35,7v0a3.44,3.44,0,0,1-2.71-2.44s-18,3.69-23.52,6.19c-.64-2.46-.51-11.44,2.5-18.19s7.19-9.06,12.36-7.5c8.3,2.51,16.82-6.71,25.15,6C287,87.85,276.45,106.17,275.61,107.6Z"/></clipPath><clipPath id="clip-path-3" transform="translate(-22.75 -23.82)"><path class="cls-1" d="M81,245.84c8.41-12.8,21-4.27,29.7-4,3.81.1,8.24.68,7.24,4.36-1.18,4.37-3.32,8.56-4.12,10.66a17.75,17.75,0,0,0-1.43-7.45c-.36-1.08-2.18.8-5.28.93s-6.82-.21-6.94.39l-2.53,8.81A3.46,3.46,0,0,1,94.94,262h0s.12-7.31-5.39-7.07-5.15,9.23,1.08,11a33.07,33.07,0,0,1-2.4,6.59S76.5,252.76,81,245.84Z"/></clipPath></defs><title>Schedules your 1-to-1 and group meetings_light_mode</title><g id="Слой_1" data-name="Слой 1"><circle class="cls-2" cx="190.63" cy="196.43" r="102.44" transform="translate(-31.93 -14.47) rotate(-2.74)"/><rect class="cls-3" x="32.63" y="16.1" width="137.06" height="107.82" rx="6.85" ry="6.85"/><rect class="cls-3" x="243.59" y="55.15" width="137.06" height="110.74" rx="6.85" ry="6.85"/><rect class="cls-3" x="76.04" y="224.15" width="137.06" height="107.8" rx="6.85" ry="6.85"/><path class="cls-4" d="M194.8,165.57h0A6.62,6.62,0,0,1,205.38,169h0a6.62,6.62,0,0,0,6.76,4.91h0a6.62,6.62,0,0,1,6.54,9h0a6.62,6.62,0,0,0,2.58,7.95h0a6.62,6.62,0,0,1,0,11.12h0a6.62,6.62,0,0,0-2.58,7.95h0a6.62,6.62,0,0,1-6.54,9h0a6.62,6.62,0,0,0-6.76,4.91h0a6.62,6.62,0,0,1-10.58,3.44h0a6.62,6.62,0,0,0-8.35,0h0a6.62,6.62,0,0,1-10.58-3.44h0a6.62,6.62,0,0,0-6.76-4.91h0a6.62,6.62,0,0,1-6.54-9h0A6.62,6.62,0,0,0,160,202h0a6.62,6.62,0,0,1,0-11.12h0a6.62,6.62,0,0,0,2.58-7.95h0a6.62,6.62,0,0,1,6.54-9h0a6.62,6.62,0,0,0,6.76-4.91h0a6.62,6.62,0,0,1,10.58-3.44h0A6.62,6.62,0,0,0,194.8,165.57Z" transform="translate(-22.75 -23.82)"/><path class="cls-5" d="M178.27,189.08v-3.83a12.35,12.35,0,0,1,12.35-12.35h0A12.35,12.35,0,0,1,203,185.25v3.83" transform="translate(-22.75 -23.82)"/><path class="cls-6" d="M206.77,189.08H174.33a2.13,2.13,0,0,0-2.13,2.13v22.18a2.13,2.13,0,0,0,2.13,2.13h32.44a2.13,2.13,0,0,0,2.13-2.13V191.21A2.13,2.13,0,0,0,206.77,189.08Zm-13.71,12.53V209h-4.42v-7.36a3.91,3.91,0,1,1,4.42,0Z" transform="translate(-22.75 -23.82)"/><path class="cls-4" d="M285.78,321.24c-.4-4.31-3.19-7.31-4.29-8.63s-4.68-1.71-6.44-3.69-3.14-6.88-4.13-7.27-2.53.72-2.81,1.54a1.75,1.75,0,0,1-.2.42,1.64,1.64,0,0,0-.57-.87c-2-1.37-3.47,1-3.63,2.76a45.3,45.3,0,0,1-1.84,6.62h0c-.25.76-.47,1.37-.58,1.69a40.09,40.09,0,0,0-.64,5.79h0c-.19,3.1-.22,4.18.48,5.25s3.82,4.47,6.88,5.3,6.14-1.84,10.71.38a20.93,20.93,0,0,1,5.76,3.81l3.68-6.77A10.74,10.74,0,0,1,285.78,321.24Zm-18.66-7.31s.53-2.28.84-4.79l4.12,4.79Z" transform="translate(-22.75 -23.82)"/><path class="cls-7" d="M268,309.14a9.55,9.55,0,0,1-.27-2.78c0-.91.11-1.76.22-2.74a3,3,0,0,1,.63,1.34,5.83,5.83,0,0,1,.14,1.43A5.93,5.93,0,0,1,268,309.14Z" transform="translate(-22.75 -23.82)"/><path class="cls-7" d="M264.31,321c.22-1.19.48-2.36.73-3.54s.52-2.35.79-3.53l.05-.23h.25c2.3-.06,4.61-.08,6.92,0,1.16,0,2.3.07,3.48.19a3.87,3.87,0,0,1,1.85.59,3,3,0,0,1,1.19,1.64,2.74,2.74,0,0,1,.1.52v.15c0-.05,0-.17-.06-.19s0,0,0,0c.18.07.5.14.79.23a3.29,3.29,0,0,1,.91.43,1.93,1.93,0,0,1,.68.87,2.21,2.21,0,0,1,.14.53c0,.17,0,.3,0,.46a3.21,3.21,0,0,1-.07,1,1.46,1.46,0,0,1-.7.94,2.65,2.65,0,0,1-1,.31,24,24,0,0,1-3.51,0c-1.16,0-2.31-.06-3.46-.12l.19-.14c-.35,1.18-.69,2.36-1.07,3.53.21-1.21.46-2.42.7-3.62l0-.14h.16c1.15-.06,2.29-.09,3.44-.12a24,24,0,0,0,3.38-.21,2.13,2.13,0,0,0,.67-.23.58.58,0,0,0,.29-.42,2.41,2.41,0,0,0,0-.72,2.18,2.18,0,0,0-.14-.7,1.45,1.45,0,0,0-1-.74c-.26-.08-.51-.12-.87-.25a.93.93,0,0,1-.38-.27.74.74,0,0,1-.14-.39v-.07a1.79,1.79,0,0,0-.07-.33,2.28,2.28,0,0,0-2.21-1.53c-1.11-.13-2.26-.17-3.4-.23l-6.88-.28.3-.23c-.34,1.16-.66,2.32-1,3.46S264.7,319.83,264.31,321Z" transform="translate(-22.75 -23.82)"/><path class="cls-7" d="M268.11,323.83a52.7,52.7,0,0,1,1.52-6.64l.09-.31.34,0c1.51-.13,3-.2,4.55-.24.76,0,1.52,0,2.28,0s1.52,0,2.29.12c-.75.17-1.5.29-2.25.42s-1.51.21-2.26.3c-1.51.16-3,.3-4.54.36l.43-.34A52.7,52.7,0,0,1,268.11,323.83Z" transform="translate(-22.75 -23.82)"/><path class="cls-4" d="M261.87,312.12h0c-.25.76-.47,1.37-.58,1.69a40.09,40.09,0,0,0-.64,5.79c-1.12-1.93-2.76-4.67-3.26-5.25-.71-.83-1.85-7.45-1.24-8.83s2.92-2.26,3.74-.33a28.68,28.68,0,0,1,1.56,5.75A3.71,3.71,0,0,0,261.87,312.12Z" transform="translate(-22.75 -23.82)"/></g><g id="Слой_2" data-name="Слой 2"><rect class="cls-8" x="73.34" y="23.32" width="28.83" height="13.95" rx="1.86" ry="1.86"/><text class="cls-9" transform="translate(77 33.59)"><tspan class="cls-10">M</tspan><tspan x="9.1" y="0">on</tspan></text><rect class="cls-11" x="105.7" y="23.32" width="28.83" height="13.95" rx="1.86" ry="1.86"/><text class="cls-9" transform="translate(111.67 33.59)"><tspan class="cls-12">T</tspan><tspan x="5.08" y="0">ue</tspan></text><rect class="cls-13" x="138.05" y="23.32" width="28.83" height="13.95" rx="1.86" ry="1.86"/><text class="cls-9" transform="translate(141.92 33.59)"><tspan class="cls-14">W</tspan><tspan x="9.14" y="0">ed</tspan></text><rect class="cls-8" x="282.18" y="62.57" width="28.83" height="13.95" rx="1.86" ry="1.86"/><text class="cls-9" transform="translate(285.84 72.84)"><tspan class="cls-10">M</tspan><tspan x="9.1" y="0">on</tspan></text><rect class="cls-11" x="314.54" y="62.57" width="28.83" height="13.95" rx="1.86" ry="1.86"/><text class="cls-9" transform="translate(320.51 72.84)"><tspan class="cls-12">T</tspan><tspan x="5.08" y="0">ue</tspan></text><rect class="cls-13" x="346.9" y="62.57" width="28.83" height="13.95" rx="1.86" ry="1.86"/><text class="cls-9" transform="translate(350.76 72.84)"><tspan class="cls-14">W</tspan><tspan x="9.14" y="0">ed</tspan></text><rect class="cls-8" x="115.36" y="230.08" width="28.83" height="13.95" rx="1.86" ry="1.86"/><text class="cls-9" transform="translate(119.02 240.35)"><tspan class="cls-10">M</tspan><tspan x="9.1" y="0">on</tspan></text><rect class="cls-11" x="147.72" y="230.08" width="28.83" height="13.95" rx="1.86" ry="1.86"/><text class="cls-9" transform="translate(153.69 240.35)"><tspan class="cls-12">T</tspan><tspan x="5.08" y="0">ue</tspan></text><rect class="cls-13" x="180.08" y="230.08" width="28.83" height="13.95" rx="1.86" ry="1.86"/><text class="cls-9" transform="translate(183.94 240.35)"><tspan class="cls-14">W</tspan><tspan x="9.14" y="0">ed</tspan></text><circle class="cls-6" cx="76.04" cy="237" r="32.63"/><circle class="cls-6" cx="243.59" cy="71.24" r="32.63"/><path class="cls-11" d="M275.61,107.6h0l0,.08a32.93,32.93,0,0,1-2.37-6.53c6.18-1.79,6.53-10.69,1.07-10.93-5.24-.23-5.35,6.41-5.35,7v0a3.44,3.44,0,0,1-2.71-2.44s-18,3.69-23.52,6.19c-.64-2.46-.51-11.44,2.5-18.19s7.19-9.06,12.36-7.5c8.3,2.51,16.82-6.71,25.15,6C287,87.85,276.45,106.17,275.61,107.6Z" transform="translate(-22.75 -23.82)"/><path class="cls-15" d="M281.27,115.88,265.62,123s-4.19-3.81-5.61-5.35c2.37-3.45,1.06-5.12.47-6.65-6.89,1.53-10.22-6.3-9.86-9.27a41.59,41.59,0,0,0,.24-5.58,9.17,9.17,0,0,0-.6-3.57,3.24,3.24,0,0,1-.1-.44h0c-.13-3.2,3.57-6.59,6.65-6.47s6.76-.2,6.88.39l2.51,8.73a3.44,3.44,0,0,0,2.71,2.44v0c0-.56.11-7.2,5.35-7,5.46.24,5.11,9.14-1.07,10.93a32.93,32.93,0,0,0,2.37,6.53l0-.08a39.84,39.84,0,0,0,2.81,5.06A20.61,20.61,0,0,0,281.27,115.88Z" transform="translate(-22.75 -23.82)"/><ellipse class="cls-16" cx="237.02" cy="72.11" rx="0.95" ry="1.9"/><ellipse class="cls-16" cx="229.3" cy="71.87" rx="0.83" ry="1.78"/><path class="cls-16" d="M254.14,102.16a1.19,1.19,0,0,1-1-.53,3,3,0,0,1,.78-3.41.27.27,0,1,1,.36.39,2.47,2.47,0,0,0-.7,2.72c.32.47,1,.29,1.47,0a.27.27,0,0,1,.23.48A2.61,2.61,0,0,1,254.14,102.16Z" transform="translate(-22.75 -23.82)"/><path class="cls-17" d="M260.48,111s3.21-1.07,4.16-3.68c0,3.68-3.33,5.94-3.33,5.94Z" transform="translate(-22.75 -23.82)"/><path class="cls-16" d="M255.82,106.52a4.79,4.79,0,0,1-1.81-.37.27.27,0,0,1,.23-.48,3.12,3.12,0,0,0,4.18-1.33.27.27,0,0,1,.47.25A3.29,3.29,0,0,1,255.82,106.52Z" transform="translate(-22.75 -23.82)"/><path class="cls-16" d="M257.81,92.41a.27.27,0,0,1-.15-.49c.1-.07,2.4-1.58,4.4-.25a.27.27,0,1,1-.3.45c-1.69-1.13-3.78.23-3.8.25A.27.27,0,0,1,257.81,92.41Z" transform="translate(-22.75 -23.82)"/><path class="cls-16" d="M253,92a.27.27,0,0,1-.2-.09,1.75,1.75,0,0,0-1.84-.29.27.27,0,1,1-.16-.51,2.24,2.24,0,0,1,2.39.45.27.27,0,0,1-.2.44Z" transform="translate(-22.75 -23.82)"/><line class="cls-18" x1="103.98" y1="41.09" x2="103.98" y2="128.59"/><line class="cls-18" x1="69.98" y1="41.09" x2="69.98" y2="128.59"/><line class="cls-18" x1="135.98" y1="41.09" x2="135.98" y2="128.59"/><line class="cls-18" x1="160.84" y1="69.55" x2="36.64" y2="69.55"/><line class="cls-18" x1="160.84" y1="104.92" x2="36.64" y2="104.92"/><circle class="cls-6" cx="32.63" cy="32.63" r="32.63"/><rect class="cls-8" x="74.99" y="46.23" width="22.99" height="16.35" rx="3.75" ry="3.75"/><rect class="cls-6" x="108.48" y="79.9" width="22.99" height="16.35" rx="3.75" ry="3.75"/><rect class="cls-13" x="74.99" y="79.9" width="22.99" height="16.35" rx="3.75" ry="3.75"/><rect class="cls-13" x="141.96" y="46.23" width="22.99" height="16.35" rx="3.75" ry="3.75"/><line class="cls-18" x1="314.07" y1="79.7" x2="314.07" y2="167.2"/><line class="cls-18" x1="280.07" y1="79.7" x2="280.07" y2="167.2"/><line class="cls-18" x1="346.07" y1="79.7" x2="346.07" y2="167.2"/><line class="cls-18" x1="370.93" y1="108.16" x2="246.74" y2="108.16"/><line class="cls-18" x1="370.93" y1="143.53" x2="246.74" y2="143.53"/><rect class="cls-8" x="317.46" y="84.84" width="22.99" height="16.35" rx="3.75" ry="3.75"/><rect class="cls-6" x="352.05" y="118.51" width="22.99" height="16.35" rx="3.75" ry="3.75"/><rect class="cls-13" x="285.08" y="118.51" width="22.99" height="16.35" rx="3.75" ry="3.75"/><rect class="cls-13" x="352.05" y="84.84" width="22.99" height="16.35" rx="3.75" ry="3.75"/><line class="cls-18" x1="146.5" y1="245.68" x2="146.5" y2="333.18"/><line class="cls-18" x1="112.5" y1="245.68" x2="112.5" y2="333.18"/><line class="cls-18" x1="178.5" y1="245.68" x2="178.5" y2="333.18"/><line class="cls-18" x1="203.36" y1="274.14" x2="79.17" y2="274.14"/><line class="cls-18" x1="203.36" y1="309.51" x2="79.17" y2="309.51"/><rect class="cls-8" x="117.51" y="250.82" width="22.99" height="16.35" rx="3.75" ry="3.75"/><rect class="cls-6" x="184.48" y="284.49" width="22.99" height="16.35" rx="3.75" ry="3.75"/><rect class="cls-13" x="117.51" y="284.49" width="22.99" height="16.35" rx="3.75" ry="3.75"/><rect class="cls-13" x="184.48" y="250.82" width="22.99" height="16.35" rx="3.75" ry="3.75"/><circle class="cls-19" cx="61.62" cy="227.08" r="6.38"/><circle class="cls-19" cx="65.24" cy="220.7" r="6.38"/><circle class="cls-19" cx="91.3" cy="224.77" r="6.38"/><path class="cls-20" d="M65.31,33.61c-5.36.24-18-.22-21.68,6.59-3.58,6.56,6,23.69,6.7,24.92l0,.07A31.16,31.16,0,0,0,52.62,59c-5.84-1.69-6.18-10.11-1-10.34,4.94-.21,5,6,5,6.59v0c1.23-.21,2-4,2.31-5.16,0,0,7.41.74,9.14-5.77,2.91-.11,7.18,10,7.08,13a37.52,37.52,0,0,0,2.13-13C77.31,37.43,71.62,33.32,65.31,33.61Z" transform="translate(-22.75 -23.82)"/><path class="cls-20" d="M45,38.38c-3.61,2.92-7.17,8.2-4.67,19C42.83,49.9,45,50.74,45,50.74S48.59,35.46,45,38.38Z" transform="translate(-22.75 -23.82)"/><path class="cls-20" d="M48.53,43.57c-3.61,2.92-7.17,8.2-4.67,19,2.52-7.51,4.67-6.67,4.67-6.67S52.14,40.65,48.53,43.57Z" transform="translate(-22.75 -23.82)"/><path class="cls-21" d="M74.3,50.92a8.86,8.86,0,0,0-.56,3.37A38.84,38.84,0,0,0,74,59.57c.33,2.81-2.82,10.22-9.33,8.76-2.33,4.51.32,8.7.53,10.37s.06,3.29-1.88,4.12c-1.48.65-6.18-1.91-10.45-4.59S45,72.94,45,72.94a20.06,20.06,0,0,0,2.7-3,38.15,38.15,0,0,0,2.65-4.79l0,.07A31.16,31.16,0,0,0,52.62,59c-5.84-1.69-6.18-10.11-1-10.34,4.94-.21,5,6,5,6.59v0c1.23-.21,2-4,2.31-5.16,0,0,7.41.74,9.14-5.77,2.91-.11,6.4,3.08,6.29,6.11A3.24,3.24,0,0,1,74.3,50.92Z" transform="translate(-22.75 -23.82)"/><ellipse class="cls-16" cx="42.56" cy="30.25" rx="0.9" ry="1.8"/><ellipse class="cls-16" cx="49.87" cy="30.02" rx="0.79" ry="1.69"/><path class="cls-16" d="M70.64,60a1.12,1.12,0,0,0,1-.5,2.81,2.81,0,0,0-.74-3.23.25.25,0,0,0-.34.37,2.34,2.34,0,0,1,.66,2.57c-.3.44-.92.27-1.39,0a.25.25,0,0,0-.22.46A2.48,2.48,0,0,0,70.64,60Z" transform="translate(-22.75 -23.82)"/><path class="cls-22" d="M64.64,68.33s-3-1-3.93-3.48c0,3.48,3.15,5.62,3.15,5.62Z" transform="translate(-22.75 -23.82)"/><path class="cls-16" d="M69,64.08a4.51,4.51,0,0,0,1.71-.35.25.25,0,0,0,.12-.34.26.26,0,0,0-.34-.12A3,3,0,0,1,66.6,62a.25.25,0,1,0-.45.23A3.11,3.11,0,0,0,69,64.08Z" transform="translate(-22.75 -23.82)"/><path class="cls-16" d="M67.17,50.74a.25.25,0,0,0,.14-.46c-.09-.06-2.27-1.49-4.16-.24a.25.25,0,1,0,.28.42c1.61-1.07,3.58.22,3.6.24A.25.25,0,0,0,67.17,50.74Z" transform="translate(-22.75 -23.82)"/><path class="cls-16" d="M71.73,50.39a.25.25,0,0,0,.19-.08h0A1.64,1.64,0,0,1,73.65,50a.25.25,0,1,0,.15-.48,2.13,2.13,0,0,0-2.27.43.25.25,0,0,0,.19.42Z" transform="translate(-22.75 -23.82)"/><path class="cls-23" d="M82.48,280.77,98.27,288s4.22-3.84,5.66-5.4c-2.39-3.48-1.08-5.16-.47-6.71,6.95,1.55,10.31-6.35,9.94-9.35a42.17,42.17,0,0,1-.24-5.63,9.28,9.28,0,0,1,.6-3.6c.59-1.91.11-9.1.11-9.1s-15.58-7.55-17.13-1-2.76,6.11-8.27,6.35c-3.12.24-4.55,4.68-4,7.43.47,2.27,3.23,4.31,6,5a39.36,39.36,0,0,1-5.15,11.5A21.42,21.42,0,0,1,82.48,280.77Z" transform="translate(-22.75 -23.82)"/><ellipse class="cls-16" cx="81.42" cy="236.82" rx="0.96" ry="1.92"/><ellipse class="cls-16" cx="89.21" cy="236.58" rx="0.84" ry="1.8"/><path class="cls-16" d="M109.84,266.93a2.64,2.64,0,0,1-1.12-.3.27.27,0,1,1,.23-.49c.5.24,1.16.42,1.48-.05a2.5,2.5,0,0,0-.7-2.74.27.27,0,0,1,.36-.4,3,3,0,0,1,.79,3.44A1.2,1.2,0,0,1,109.84,266.93Z" transform="translate(-22.75 -23.82)"/><path class="cls-24" d="M103.45,275.85s-3.24-1.08-4.19-3.71c0,3.71,3.36,6,3.36,6Z" transform="translate(-22.75 -23.82)"/><path class="cls-16" d="M108.15,271.32a3.32,3.32,0,0,1-3.09-2,.27.27,0,0,1,.48-.25,3.13,3.13,0,0,0,4.21,1.34.28.28,0,0,1,.36.13.27.27,0,0,1-.13.36A4.84,4.84,0,0,1,108.15,271.32Z" transform="translate(-22.75 -23.82)"/><path class="cls-16" d="M106.15,257.09a.27.27,0,0,1-.15,0s-2.12-1.39-3.84-.25a.27.27,0,0,1-.3-.45c2-1.34,4.34.19,4.44.25a.27.27,0,0,1-.15.49Z" transform="translate(-22.75 -23.82)"/><path class="cls-16" d="M111,256.71a.26.26,0,0,1-.18-.07.27.27,0,0,1,0-.38,2.28,2.28,0,0,1,2.42-.45.27.27,0,0,1,.18.34.28.28,0,0,1-.34.18,1.74,1.74,0,0,0-1.85.3A.27.27,0,0,1,111,256.71Z" transform="translate(-22.75 -23.82)"/><path class="cls-19" d="M81,245.84c8.41-12.8,21-4.27,29.7-4,3.81.1,8.24.68,7.24,4.36-1.18,4.37-3.32,8.56-4.12,10.66a17.75,17.75,0,0,0-1.43-7.45c-.36-1.08-2.18.8-5.28.93s-6.82-.21-6.94.39l-2.53,8.81A3.46,3.46,0,0,1,94.94,262h0s.12-7.31-5.39-7.07-5.15,9.23,1.08,11a33.07,33.07,0,0,1-2.4,6.59S76.5,252.76,81,245.84Z" transform="translate(-22.75 -23.82)"/><g class="cls-25"><path class="cls-26" d="M42.31,36.65s16.08,17.63,37.17-3.06" transform="translate(-22.75 -23.82)"/><path class="cls-26" d="M50.14,28.82s7.59,26.11,28.67,5.42" transform="translate(-22.75 -23.82)"/></g><g class="cls-27"><path class="cls-28" d="M266.34,71.4S256,88.57,241.64,87.65" transform="translate(-22.75 -23.82)"/></g><g class="cls-29"><path class="cls-30" d="M80.81,260.87c0-.21,2.08-18.46,23.33-21.8" transform="translate(-22.75 -23.82)"/><path class="cls-30" d="M82.71,261.79c0-.21,2.08-19.39,23.33-22.72" transform="translate(-22.75 -23.82)"/></g><rect class="cls-4" x="308.06" y="309.53" width="13.17" height="38.25" rx="6.19" ry="6.19" transform="translate(183.73 -137.11) rotate(30)"/><path class="cls-4" d="M288.16,327.59,303,335.74a5.36,5.36,0,0,1,1.2,7.46l-1.45,2a5.36,5.36,0,0,1-7.46,1.2l-13-14.46Z" transform="translate(-22.75 -23.82)"/><circle class="cls-31" cx="280.19" cy="316.83" r="4.75"/><rect class="cls-4" x="382.87" y="304.4" width="13.17" height="38.25" rx="6.19" ry="6.19" transform="translate(836.75 111.57) rotate(118.47)"/><path class="cls-4" d="M384.12,356.74l17.74-8.44a5.36,5.36,0,0,0,1.82-7.33l-1.28-2.13a5.36,5.36,0,0,0-7.33-1.82l-14.14,13.33Z" transform="translate(-22.75 -23.82)"/><circle class="cls-31" cx="400.37" cy="335.42" r="4.75" transform="translate(-1.32 671.06) rotate(-83.44)"/><polygon class="cls-32" points="316.73 275.7 314.87 284.55 338.77 287.46 337.32 278.11 316.73 275.7"/><path class="cls-4" d="M325.67,260s.35-8.12,6.06-12.13c5.24-3.68,6-3.72,25-1.38,18.45,2.28,20.17,2,24.21,7.21,4.54,5.88,3.12,14,3.12,14s4.92.23,6,.74,1.79,1.47,1.52,4.41-.69,7.12-.87,7.95a3.26,3.26,0,0,1-3,2c-1.42-.09-5.51-.41-5.51-.41s-.41,7.76-1.88,11.21a14.73,14.73,0,0,1-10.38,9c-5.88,1.33-16.4-.64-23.84-1.47s-11.58-.46-16.91-4.27-5.7-8.77-6.11-11.07.83-11,.83-11a33.72,33.72,0,0,1-4.82-.55c-1.24-.37-1.84-1.52-1.84-3.45s.6-8.22,1.24-9.51S320.62,259.25,325.67,260Z" transform="translate(-22.75 -23.82)"/><polygon class="cls-33" points="297.64 236.07 301.53 220.84 303.33 221.11 302.92 236.22 297.64 236.07"/><circle class="cls-34" cx="302.29" cy="219.01" r="2.83"/><circle class="cls-34" cx="312.28" cy="208.26" r="3.26"/><circle class="cls-34" cx="356.29" cy="212.67" r="3.26"/><circle class="cls-34" cx="335.67" cy="205" r="4.93"/><circle class="cls-34" cx="318.18" cy="216.19" r="1.87"/><circle class="cls-34" cx="345.97" cy="220.84" r="1.87"/><polygon class="cls-33" points="361.52 241 364.07 227.58 365.63 227.58 365.96 244.3 361.31 243.89 361.52 241"/><circle class="cls-34" cx="365" cy="225.26" r="2.83"/><polygon class="cls-34" points="303.69 216.84 310.31 210.18 310.6 210.48 303.81 216.96 303.69 216.84"/><polygon class="cls-34" points="317.55 215.6 313.74 210.75 314.07 210.5 317.7 215.49 317.55 215.6"/><polygon class="cls-34" points="314.5 208.28 331.51 205.7 331.57 206.11 314.52 208.46 314.5 208.28"/><polygon class="cls-34" points="354.07 212.09 339.59 207.13 339.73 206.74 354.13 211.92 354.07 212.09"/><polygon class="cls-34" points="345.11 219.77 338.03 208.7 338.38 208.48 345.26 219.68 345.11 219.77"/><polygon class="cls-34" points="346.82 220.3 353.89 214 354.16 214.31 346.94 220.44 346.82 220.3"/><polygon class="cls-34" points="363.56 223.64 357.93 215.16 358.28 214.94 363.71 223.55 363.56 223.64"/><polygon class="cls-34" points="319.18 216.11 331.57 207.24 331.81 207.58 319.28 216.26 319.18 216.11"/><path class="cls-6" d="M352,262.9a10.54,10.54,0,0,1-5.2,9.1,16.06,16.06,0,0,0-8.58-2.32,17.79,17.79,0,0,0-4.37.54A10.55,10.55,0,1,1,352,262.9Z" transform="translate(-22.75 -23.82)"/><circle class="cls-31" cx="319.79" cy="238.61" r="7.03"/><path class="cls-6" d="M357.39,263.58a10.54,10.54,0,0,0,2.46,10.19,16.06,16.06,0,0,1,8.89.16,17.79,17.79,0,0,1,4.05,1.73,10.55,10.55,0,1,0-15.41-12.08Z" transform="translate(-22.75 -23.82)"/><circle class="cls-31" cx="366.66" cy="265.77" r="7.03" transform="translate(-13.45 520.1) rotate(-73.83)"/><path class="cls-32" d="M366.08,283s-1.4,13.62-15,12.17-11.9-14.79-11.9-14.79l1.53.15,0,.72a1.71,1.71,0,0,0,1.54,1.79l20.45,2a1.71,1.71,0,0,0,1.87-1.6l0-.56Z" transform="translate(-22.75 -23.82)"/><path class="cls-6" d="M364.51,282.85l0,.56a1.71,1.71,0,0,1-1.87,1.6l-20.45-2a1.71,1.71,0,0,1-1.54-1.79l0-.72Z" transform="translate(-22.75 -23.82)"/><path class="cls-4" d="M371.77,368.32H327.38c-8.47,0-14.92-8.06-13.56-16.94l4.94-32.3c1.08-7.06,6.82-12.25,13.56-12.25h34.5c6.73,0,12.48,5.19,13.56,12.25l4.94,32.3C386.68,360.26,380.23,368.32,371.77,368.32Z" transform="translate(-22.75 -23.82)"/><line class="cls-35" x1="249.54" y1="272.22" x2="250.93" y2="267.22"/><line class="cls-35" x1="243.53" y1="264.68" x2="244.76" y2="272.87"/><line class="cls-35" x1="240.22" y1="274.9" x2="237.78" y2="271.94"/></g></svg>