<svg xmlns="http://www.w3.org/2000/svg" xmlns:xlink="http://www.w3.org/1999/xlink" viewBox="0 0 390.97 344.51"><defs><style>.cls-1,.cls-2,.cls-23,.cls-31,.cls-33,.cls-35,.cls-36,.cls-5{fill:none;}.cls-2,.cls-23{stroke:#f6eeca;stroke-dasharray:8.76;}.cls-2,.cls-23,.cls-36{stroke-linecap:round;}.cls-2,.cls-23,.cls-31,.cls-33,.cls-35,.cls-36,.cls-5{stroke-miterlimit:10;}.cls-2,.cls-36{stroke-width:2px;}.cls-3{fill:#4f6ddb;}.cls-4{fill:#f6eeca;}.cls-5{stroke:#f3792f;stroke-width:5.45px;}.cls-6{fill:#f3792f;}.cls-7{fill:#c46226;}.cls-8{fill:#ff9c1a;}.cls-9{font-size:11.24px;font-family:MyriadPro-Regular, Myriad Pro;}.cls-19,.cls-9{fill:#fff;}.cls-10{letter-spacing:0.01em;}.cls-11{fill:#029d41;}.cls-12{letter-spacing:-0.05em;}.cls-13{fill:#fe3737;}.cls-14{letter-spacing:-0.03em;}.cls-15{fill:#28282a;}.cls-16{fill:#a20a0a;}.cls-17{fill:#d9d9d9;}.cls-18{fill:#f2792e;}.cls-20{fill:#794300;}.cls-21{fill:#303134;}.cls-22{fill:#663800;}.cls-24{fill:#232426;}.cls-25{fill:#fec519;}.cls-26{fill:#e39d76;}.cls-27{fill:#cc855e;}.cls-28{fill:#fec2a0;}.cls-29{fill:#f99979;}.cls-30{clip-path:url(#clip-path);}.cls-31{stroke:#e6b217;}.cls-32{clip-path:url(#clip-path-2);}.cls-33{stroke:#028f3b;}.cls-34{clip-path:url(#clip-path-3);}.cls-35{stroke:#151617;}.cls-36{stroke:#fff;}</style><clipPath id="clip-path" transform="translate(-17.93 -24.17)"><path class="cls-1" d="M60.49,34c-5.36.24-18-.22-21.68,6.59-3.58,6.56,6,23.69,6.7,24.92l0,.07a31.16,31.16,0,0,0,2.25-6.18C42,57.67,41.62,49.25,46.79,49c4.94-.21,5,6,5,6.59v0c1.23-.21,2-4,2.31-5.16,0,0,7.41.74,9.14-5.77,2.91-.11,7.18,10,7.08,13a37.52,37.52,0,0,0,2.13-13C72.49,37.79,66.8,33.67,60.49,34Z"/></clipPath><clipPath id="clip-path-2" transform="translate(-17.93 -24.17)"><path class="cls-1" d="M270.79,108h0l0,.08a32.93,32.93,0,0,1-2.37-6.53c6.18-1.79,6.53-10.69,1.07-10.93-5.24-.23-5.35,6.41-5.35,7v0a3.44,3.44,0,0,1-2.71-2.44s-18,3.69-23.52,6.19c-.64-2.46-.51-11.44,2.5-18.19s7.19-9.06,12.36-7.5c8.3,2.51,16.82-6.71,25.15,6C282.19,88.2,271.63,106.52,270.79,108Z"/></clipPath><clipPath id="clip-path-3" transform="translate(-17.93 -24.17)"><path class="cls-1" d="M76.21,246.2c8.41-12.8,21-4.27,29.7-4,3.81.1,8.24.68,7.24,4.36-1.18,4.37-3.32,8.56-4.12,10.66a17.75,17.75,0,0,0-1.43-7.45c-.36-1.08-2.18.8-5.28.93s-6.82-.21-6.94.39l-2.53,8.81a3.46,3.46,0,0,1-2.74,2.45h0s.12-7.31-5.39-7.07-5.15,9.23,1.08,11a33.07,33.07,0,0,1-2.4,6.59S71.67,253.11,76.21,246.2Z"/></clipPath></defs><title>Schedules your 1-to-1 and group meetings_dark_mode</title><g id="Слой_1" data-name="Слой 1"><circle class="cls-2" cx="185.8" cy="196.78" r="102.44" transform="translate(-27.13 -15.06) rotate(-2.74)"/><rect class="cls-3" x="32.63" y="16.1" width="137.06" height="107.82" rx="6.85" ry="6.85"/><rect class="cls-3" x="243.59" y="55.15" width="137.06" height="110.74" rx="6.85" ry="6.85"/><rect class="cls-3" x="76.04" y="224.15" width="137.06" height="107.8" rx="6.85" ry="6.85"/><path class="cls-4" d="M190,165.93h0a6.62,6.62,0,0,1,10.58,3.44h0a6.62,6.62,0,0,0,6.76,4.91h0a6.62,6.62,0,0,1,6.54,9h0a6.62,6.62,0,0,0,2.58,7.95h0a6.62,6.62,0,0,1,0,11.12h0a6.62,6.62,0,0,0-2.58,7.95h0a6.62,6.62,0,0,1-6.54,9h0a6.62,6.62,0,0,0-6.76,4.91h0A6.62,6.62,0,0,1,190,227.64h0a6.62,6.62,0,0,0-8.35,0h0A6.62,6.62,0,0,1,171,224.2h0a6.62,6.62,0,0,0-6.76-4.91h0a6.62,6.62,0,0,1-6.54-9h0a6.62,6.62,0,0,0-2.58-7.95h0a6.62,6.62,0,0,1,0-11.12h0a6.62,6.62,0,0,0,2.58-7.95h0a6.62,6.62,0,0,1,6.54-9h0a6.62,6.62,0,0,0,6.76-4.91h0a6.62,6.62,0,0,1,10.58-3.44h0A6.62,6.62,0,0,0,190,165.93Z" transform="translate(-17.93 -24.17)"/><path class="cls-5" d="M173.45,189.44v-3.83a12.35,12.35,0,0,1,12.35-12.35h0a12.35,12.35,0,0,1,12.35,12.35v3.83" transform="translate(-17.93 -24.17)"/><path class="cls-6" d="M201.94,189.44H169.5a2.13,2.13,0,0,0-2.13,2.13v22.18a2.13,2.13,0,0,0,2.13,2.13h32.44a2.13,2.13,0,0,0,2.13-2.13V191.57A2.13,2.13,0,0,0,201.94,189.44ZM188.23,202v7.36h-4.42V202a3.91,3.91,0,1,1,4.42,0Z" transform="translate(-17.93 -24.17)"/><path class="cls-6" d="M287.49,321.59c-.4-4.31-3.19-7.31-4.29-8.63s-4.68-1.71-6.44-3.69-3.14-6.88-4.13-7.27-2.53.72-2.81,1.54a1.75,1.75,0,0,1-.2.42,1.64,1.64,0,0,0-.57-.87c-2-1.37-3.47,1-3.63,2.76a45.3,45.3,0,0,1-1.84,6.62h0c-.25.76-.47,1.37-.58,1.69a40.09,40.09,0,0,0-.64,5.79h0c-.19,3.1-.22,4.18.48,5.25s3.82,4.47,6.88,5.3,6.14-1.84,10.71.38a20.93,20.93,0,0,1,5.76,3.81l3.68-6.77A10.74,10.74,0,0,1,287.49,321.59Zm-18.66-7.31s.53-2.28.84-4.79l4.12,4.79Z" transform="translate(-17.93 -24.17)"/><path class="cls-7" d="M269.66,309.49a9.55,9.55,0,0,1-.27-2.78c0-.91.11-1.76.22-2.74a3,3,0,0,1,.63,1.34,5.83,5.83,0,0,1,.14,1.43A5.93,5.93,0,0,1,269.66,309.49Z" transform="translate(-17.93 -24.17)"/><path class="cls-7" d="M266,321.33c.22-1.19.48-2.36.73-3.54s.52-2.35.79-3.53l.05-.23h.25c2.3-.06,4.61-.08,6.92,0,1.16,0,2.3.07,3.48.19a3.87,3.87,0,0,1,1.85.59,3,3,0,0,1,1.19,1.64,2.74,2.74,0,0,1,.1.52v.15c0-.05,0-.17-.06-.19s0,0,0,0c.18.07.5.14.79.23a3.29,3.29,0,0,1,.91.43,1.93,1.93,0,0,1,.68.87,2.21,2.21,0,0,1,.14.53c0,.17,0,.3,0,.46a3.21,3.21,0,0,1-.07,1,1.46,1.46,0,0,1-.7.94,2.65,2.65,0,0,1-1,.31,24,24,0,0,1-3.51,0c-1.16,0-2.31-.06-3.46-.12l.19-.14c-.35,1.18-.69,2.36-1.07,3.53.21-1.21.46-2.42.7-3.62l0-.14h.16c1.15-.06,2.29-.09,3.44-.12a24,24,0,0,0,3.38-.21,2.13,2.13,0,0,0,.67-.23.58.58,0,0,0,.29-.42,2.41,2.41,0,0,0,0-.72,2.18,2.18,0,0,0-.14-.7,1.45,1.45,0,0,0-1-.74c-.26-.08-.51-.12-.87-.25a.93.93,0,0,1-.38-.27.74.74,0,0,1-.14-.39V317a1.79,1.79,0,0,0-.07-.33,2.28,2.28,0,0,0-2.21-1.53c-1.11-.13-2.26-.17-3.4-.23l-6.88-.28.3-.23c-.34,1.16-.66,2.32-1,3.46S266.4,320.18,266,321.33Z" transform="translate(-17.93 -24.17)"/><path class="cls-7" d="M269.82,324.19a52.7,52.7,0,0,1,1.52-6.64l.09-.31.34,0c1.51-.13,3-.2,4.55-.24.76,0,1.52,0,2.28,0s1.52,0,2.29.12c-.75.17-1.5.29-2.25.42s-1.51.21-2.26.3c-1.51.16-3,.3-4.54.36l.43-.34A52.7,52.7,0,0,1,269.82,324.19Z" transform="translate(-17.93 -24.17)"/><path class="cls-6" d="M263.57,312.48h0c-.25.76-.47,1.37-.58,1.69a40.09,40.09,0,0,0-.64,5.79c-1.12-1.93-2.76-4.67-3.26-5.25-.71-.83-1.85-7.45-1.24-8.83s2.92-2.26,3.74-.33a28.68,28.68,0,0,1,1.56,5.75A3.71,3.71,0,0,0,263.57,312.48Z" transform="translate(-17.93 -24.17)"/></g><g id="Слой_2" data-name="Слой 2"><rect class="cls-8" x="73.34" y="23.32" width="28.83" height="13.95" rx="1.86" ry="1.86"/><text class="cls-9" transform="translate(77 33.59)"><tspan class="cls-10">M</tspan><tspan x="9.1" y="0">on</tspan></text><rect class="cls-11" x="105.7" y="23.32" width="28.83" height="13.95" rx="1.86" ry="1.86"/><text class="cls-9" transform="translate(111.67 33.59)"><tspan class="cls-12">T</tspan><tspan x="5.08" y="0">ue</tspan></text><rect class="cls-13" x="138.05" y="23.32" width="28.83" height="13.95" rx="1.86" ry="1.86"/><text class="cls-9" transform="translate(141.92 33.59)"><tspan class="cls-14">W</tspan><tspan x="9.14" y="0">ed</tspan></text><rect class="cls-8" x="282.18" y="62.57" width="28.83" height="13.95" rx="1.86" ry="1.86"/><text class="cls-9" transform="translate(285.84 72.84)"><tspan class="cls-10">M</tspan><tspan x="9.1" y="0">on</tspan></text><rect class="cls-11" x="314.54" y="62.57" width="28.83" height="13.95" rx="1.86" ry="1.86"/><text class="cls-9" transform="translate(320.51 72.84)"><tspan class="cls-12">T</tspan><tspan x="5.08" y="0">ue</tspan></text><rect class="cls-13" x="346.9" y="62.57" width="28.83" height="13.95" rx="1.86" ry="1.86"/><text class="cls-9" transform="translate(350.76 72.84)"><tspan class="cls-14">W</tspan><tspan x="9.14" y="0">ed</tspan></text><rect class="cls-8" x="115.36" y="230.08" width="28.83" height="13.95" rx="1.86" ry="1.86"/><text class="cls-9" transform="translate(119.02 240.35)"><tspan class="cls-10">M</tspan><tspan x="9.1" y="0">on</tspan></text><rect class="cls-11" x="147.72" y="230.08" width="28.83" height="13.95" rx="1.86" ry="1.86"/><text class="cls-9" transform="translate(153.69 240.35)"><tspan class="cls-12">T</tspan><tspan x="5.08" y="0">ue</tspan></text><rect class="cls-13" x="180.08" y="230.08" width="28.83" height="13.95" rx="1.86" ry="1.86"/><text class="cls-9" transform="translate(183.94 240.35)"><tspan class="cls-14">W</tspan><tspan x="9.14" y="0">ed</tspan></text><rect class="cls-6" x="309.77" y="309.88" width="13.17" height="38.25" rx="6.19" ry="6.19" transform="translate(188.96 -138.27) rotate(30)"/><path class="cls-6" d="M289.86,327.95l14.85,8.15a5.36,5.36,0,0,1,1.2,7.46l-1.45,2a5.36,5.36,0,0,1-7.46,1.2l-13-14.46Z" transform="translate(-17.93 -24.17)"/><circle class="cls-15" cx="286.71" cy="316.83" r="4.75"/><rect class="cls-6" x="384.57" y="304.75" width="13.17" height="38.25" rx="6.19" ry="6.19" transform="translate(844.4 110.24) rotate(118.47)"/><path class="cls-6" d="M385.82,357.09l17.74-8.44a5.36,5.36,0,0,0,1.82-7.33l-1.28-2.13a5.36,5.36,0,0,0-7.33-1.82L382.62,350.7Z" transform="translate(-17.93 -24.17)"/><circle class="cls-15" cx="402.07" cy="335.78" r="4.75" transform="translate(4.66 672.71) rotate(-83.44)"/><polygon class="cls-16" points="323.26 275.7 321.4 284.55 345.3 287.46 343.85 278.11 323.26 275.7"/><path class="cls-6" d="M327.38,260.39s.35-8.12,6.06-12.13c5.24-3.68,6-3.72,25-1.38,18.45,2.28,20.17,2,24.21,7.21,4.54,5.88,3.12,14,3.12,14s4.92.23,6,.74,1.79,1.47,1.52,4.41-.69,7.12-.87,7.95a3.26,3.26,0,0,1-3,2c-1.42-.09-5.51-.41-5.51-.41s-.41,7.76-1.88,11.21a14.73,14.73,0,0,1-10.38,9c-5.88,1.33-16.4-.64-23.84-1.47s-11.58-.46-16.91-4.27-5.7-8.77-6.11-11.07.83-11,.83-11a33.72,33.72,0,0,1-4.82-.55c-1.24-.37-1.84-1.52-1.84-3.45s.6-8.22,1.24-9.51S322.33,259.61,327.38,260.39Z" transform="translate(-17.93 -24.17)"/><polygon class="cls-17" points="304.17 236.07 308.06 220.84 309.85 221.11 309.45 236.22 304.17 236.07"/><circle class="cls-18" cx="308.82" cy="219.01" r="2.83"/><circle class="cls-18" cx="318.81" cy="208.26" r="3.26"/><circle class="cls-18" cx="362.82" cy="212.67" r="3.26"/><circle class="cls-18" cx="342.19" cy="205" r="4.93"/><circle class="cls-18" cx="324.7" cy="216.19" r="1.87"/><circle class="cls-18" cx="352.5" cy="220.84" r="1.87"/><polygon class="cls-17" points="368.05 241 370.6 227.58 372.16 227.58 372.49 244.3 367.84 243.89 368.05 241"/><circle class="cls-18" cx="371.53" cy="225.26" r="2.83"/><polygon class="cls-18" points="310.22 216.84 316.84 210.18 317.13 210.48 310.34 216.96 310.22 216.84"/><polygon class="cls-18" points="324.08 215.6 320.27 210.75 320.6 210.5 324.22 215.49 324.08 215.6"/><polygon class="cls-18" points="321.03 208.28 338.04 205.7 338.1 206.11 321.05 208.46 321.03 208.28"/><polygon class="cls-18" points="360.6 212.09 346.12 207.13 346.25 206.74 360.66 211.92 360.6 212.09"/><polygon class="cls-18" points="351.64 219.77 344.56 208.7 344.91 208.48 351.79 219.68 351.64 219.77"/><polygon class="cls-18" points="353.35 220.3 360.42 214 360.69 214.31 353.46 220.44 353.35 220.3"/><polygon class="cls-18" points="370.09 223.64 364.46 215.16 364.8 214.94 370.24 223.55 370.09 223.64"/><polygon class="cls-18" points="325.71 216.11 338.1 207.24 338.34 207.58 325.81 216.26 325.71 216.11"/><path class="cls-19" d="M353.75,263.25a10.54,10.54,0,0,1-5.2,9.1A16.06,16.06,0,0,0,340,270a17.79,17.79,0,0,0-4.37.54,10.55,10.55,0,1,1,18.16-7.31Z" transform="translate(-17.93 -24.17)"/><circle class="cls-15" cx="326.32" cy="238.61" r="7.03"/><path class="cls-19" d="M359.1,263.93a10.54,10.54,0,0,0,2.46,10.19,16.06,16.06,0,0,1,8.89.16A17.79,17.79,0,0,1,374.5,276a10.55,10.55,0,1,0-15.41-12.08Z" transform="translate(-17.93 -24.17)"/><circle class="cls-15" cx="368.36" cy="266.12" r="7.03" transform="translate(-7.74 521.64) rotate(-73.83)"/><path class="cls-16" d="M367.78,283.36s-1.4,13.62-15,12.17-11.9-14.79-11.9-14.79l1.53.15,0,.72a1.71,1.71,0,0,0,1.54,1.79l20.45,2a1.71,1.71,0,0,0,1.87-1.6l0-.56Z" transform="translate(-17.93 -24.17)"/><path class="cls-19" d="M366.22,283.21l0,.56a1.71,1.71,0,0,1-1.87,1.6l-20.45-2a1.71,1.71,0,0,1-1.54-1.79l0-.72Z" transform="translate(-17.93 -24.17)"/><path class="cls-6" d="M373.47,368.68H329.08c-8.47,0-14.92-8.06-13.56-16.94l4.94-32.3c1.08-7.06,6.82-12.25,13.56-12.25h34.5c6.73,0,12.48,5.19,13.56,12.25l4.94,32.3C388.39,360.62,381.93,368.68,373.47,368.68Z" transform="translate(-17.93 -24.17)"/><circle class="cls-19" cx="76.04" cy="237" r="32.63"/><circle class="cls-19" cx="243.59" cy="71.24" r="32.63"/><path class="cls-11" d="M270.79,108h0l0,.08a32.93,32.93,0,0,1-2.37-6.53c6.18-1.79,6.53-10.69,1.07-10.93-5.24-.23-5.35,6.41-5.35,7v0a3.44,3.44,0,0,1-2.71-2.44s-18,3.69-23.52,6.19c-.64-2.46-.51-11.44,2.5-18.19s7.19-9.06,12.36-7.5c8.3,2.51,16.82-6.71,25.15,6C282.19,88.2,271.63,106.52,270.79,108Z" transform="translate(-17.93 -24.17)"/><path class="cls-20" d="M276.45,116.23l-15.65,7.14s-4.19-3.81-5.61-5.35c2.37-3.45,1.06-5.12.47-6.65-6.89,1.53-10.22-6.3-9.86-9.27a41.59,41.59,0,0,0,.24-5.58,9.17,9.17,0,0,0-.6-3.57,3.24,3.24,0,0,1-.1-.44h0c-.13-3.2,3.57-6.59,6.65-6.47s6.76-.2,6.88.39l2.51,8.73a3.44,3.44,0,0,0,2.71,2.44v0c0-.56.11-7.2,5.35-7,5.46.24,5.11,9.14-1.07,10.93a32.93,32.93,0,0,0,2.37,6.53l0-.08A39.84,39.84,0,0,0,273.6,113,20.61,20.61,0,0,0,276.45,116.23Z" transform="translate(-17.93 -24.17)"/><ellipse class="cls-21" cx="237.02" cy="72.11" rx="0.95" ry="1.9"/><ellipse class="cls-21" cx="229.3" cy="71.87" rx="0.83" ry="1.78"/><path class="cls-21" d="M249.32,102.52a1.19,1.19,0,0,1-1-.53,3,3,0,0,1,.78-3.41.27.27,0,1,1,.36.39,2.47,2.47,0,0,0-.7,2.72c.32.47,1,.29,1.47,0a.27.27,0,0,1,.23.48A2.61,2.61,0,0,1,249.32,102.52Z" transform="translate(-17.93 -24.17)"/><path class="cls-22" d="M255.66,111.37s3.21-1.07,4.16-3.68c0,3.68-3.33,5.94-3.33,5.94Z" transform="translate(-17.93 -24.17)"/><path class="cls-21" d="M251,106.88a4.79,4.79,0,0,1-1.81-.37.27.27,0,0,1,.23-.48,3.12,3.12,0,0,0,4.18-1.33.27.27,0,1,1,.47.25A3.29,3.29,0,0,1,251,106.88Z" transform="translate(-17.93 -24.17)"/><path class="cls-21" d="M253,92.77a.27.27,0,0,1-.15-.49c.1-.07,2.4-1.58,4.4-.25a.27.27,0,1,1-.3.45c-1.69-1.13-3.78.23-3.8.25A.27.27,0,0,1,253,92.77Z" transform="translate(-17.93 -24.17)"/><path class="cls-21" d="M248.16,92.4a.27.27,0,0,1-.2-.09,1.75,1.75,0,0,0-1.84-.29.27.27,0,0,1-.16-.51,2.24,2.24,0,0,1,2.39.45.27.27,0,0,1-.2.44Z" transform="translate(-17.93 -24.17)"/><line class="cls-23" x1="103.98" y1="41.09" x2="103.98" y2="128.59"/><line class="cls-23" x1="69.98" y1="41.09" x2="69.98" y2="128.59"/><line class="cls-23" x1="135.98" y1="41.09" x2="135.98" y2="128.59"/><line class="cls-23" x1="160.84" y1="69.55" x2="36.64" y2="69.55"/><line class="cls-23" x1="160.84" y1="104.92" x2="36.64" y2="104.92"/><circle class="cls-19" cx="32.63" cy="32.63" r="32.63"/><rect class="cls-8" x="74.99" y="46.23" width="22.99" height="16.35" rx="3.75" ry="3.75"/><rect class="cls-19" x="108.48" y="79.9" width="22.99" height="16.35" rx="3.75" ry="3.75"/><rect class="cls-13" x="74.99" y="79.9" width="22.99" height="16.35" rx="3.75" ry="3.75"/><rect class="cls-13" x="141.96" y="46.23" width="22.99" height="16.35" rx="3.75" ry="3.75"/><line class="cls-23" x1="314.07" y1="79.7" x2="314.07" y2="167.2"/><line class="cls-23" x1="280.07" y1="79.7" x2="280.07" y2="167.2"/><line class="cls-23" x1="346.07" y1="79.7" x2="346.07" y2="167.2"/><line class="cls-23" x1="370.93" y1="108.16" x2="246.74" y2="108.16"/><line class="cls-23" x1="370.93" y1="143.53" x2="246.74" y2="143.53"/><rect class="cls-8" x="317.46" y="84.84" width="22.99" height="16.35" rx="3.75" ry="3.75"/><rect class="cls-19" x="352.05" y="118.51" width="22.99" height="16.35" rx="3.75" ry="3.75"/><rect class="cls-13" x="285.08" y="118.51" width="22.99" height="16.35" rx="3.75" ry="3.75"/><rect class="cls-13" x="352.05" y="84.84" width="22.99" height="16.35" rx="3.75" ry="3.75"/><line class="cls-23" x1="146.5" y1="245.68" x2="146.5" y2="333.18"/><line class="cls-23" x1="112.5" y1="245.68" x2="112.5" y2="333.18"/><line class="cls-23" x1="178.5" y1="245.68" x2="178.5" y2="333.18"/><line class="cls-23" x1="203.36" y1="274.14" x2="79.17" y2="274.14"/><line class="cls-23" x1="203.36" y1="309.51" x2="79.17" y2="309.51"/><rect class="cls-8" x="117.51" y="250.82" width="22.99" height="16.35" rx="3.75" ry="3.75"/><rect class="cls-19" x="184.48" y="284.49" width="22.99" height="16.35" rx="3.75" ry="3.75"/><rect class="cls-13" x="117.51" y="284.49" width="22.99" height="16.35" rx="3.75" ry="3.75"/><rect class="cls-13" x="184.48" y="250.82" width="22.99" height="16.35" rx="3.75" ry="3.75"/><circle class="cls-24" cx="61.62" cy="227.08" r="6.38"/><circle class="cls-24" cx="65.24" cy="220.7" r="6.38"/><circle class="cls-24" cx="91.3" cy="224.77" r="6.38"/><path class="cls-25" d="M60.49,34c-5.36.24-18-.22-21.68,6.59-3.58,6.56,6,23.69,6.7,24.92l0,.07a31.16,31.16,0,0,0,2.25-6.18C42,57.67,41.62,49.25,46.79,49c4.94-.21,5,6,5,6.59v0c1.23-.21,2-4,2.31-5.16,0,0,7.41.74,9.14-5.77,2.91-.11,7.18,10,7.08,13a37.52,37.52,0,0,0,2.13-13C72.49,37.79,66.8,33.67,60.49,34Z" transform="translate(-17.93 -24.17)"/><path class="cls-25" d="M40.16,38.74c-3.61,2.92-7.17,8.2-4.67,19,2.52-7.51,4.67-6.67,4.67-6.67S43.76,35.82,40.16,38.74Z" transform="translate(-17.93 -24.17)"/><path class="cls-25" d="M43.71,43.93c-3.61,2.92-7.17,8.2-4.67,19,2.52-7.51,4.67-6.67,4.67-6.67S47.32,41,43.71,43.93Z" transform="translate(-17.93 -24.17)"/><path class="cls-26" d="M69.48,51.27a8.86,8.86,0,0,0-.56,3.37,38.84,38.84,0,0,0,.23,5.28c.33,2.81-2.82,10.22-9.33,8.76-2.33,4.51.32,8.7.53,10.37s.06,3.29-1.88,4.12C57,83.82,52.29,81.26,48,78.58s-7.86-5.29-7.86-5.29a20.06,20.06,0,0,0,2.7-3,38.15,38.15,0,0,0,2.65-4.79l0,.07a31.16,31.16,0,0,0,2.25-6.18C42,57.67,41.62,49.25,46.79,49c4.94-.21,5,6,5,6.59v0c1.23-.21,2-4,2.31-5.16,0,0,7.41.74,9.14-5.77,2.91-.11,6.4,3.08,6.29,6.11A3.24,3.24,0,0,1,69.48,51.27Z" transform="translate(-17.93 -24.17)"/><ellipse class="cls-21" cx="42.56" cy="30.25" rx="0.9" ry="1.8"/><ellipse class="cls-21" cx="49.87" cy="30.02" rx="0.79" ry="1.69"/><path class="cls-21" d="M65.81,60.32a1.12,1.12,0,0,0,1-.5,2.81,2.81,0,0,0-.74-3.23.25.25,0,0,0-.34.37,2.34,2.34,0,0,1,.66,2.57c-.3.44-.92.27-1.39,0a.25.25,0,0,0-.22.46A2.48,2.48,0,0,0,65.81,60.32Z" transform="translate(-17.93 -24.17)"/><path class="cls-27" d="M59.82,68.69s-3-1-3.93-3.48c0,3.48,3.15,5.62,3.15,5.62Z" transform="translate(-17.93 -24.17)"/><path class="cls-21" d="M64.23,64.44a4.51,4.51,0,0,0,1.71-.35.25.25,0,0,0,.12-.34.26.26,0,0,0-.34-.12,3,3,0,0,1-3.95-1.26.25.25,0,1,0-.45.23A3.11,3.11,0,0,0,64.23,64.44Z" transform="translate(-17.93 -24.17)"/><path class="cls-21" d="M62.35,51.1a.25.25,0,0,0,.14-.46c-.09-.06-2.27-1.49-4.16-.24a.25.25,0,1,0,.28.42c1.61-1.07,3.58.22,3.6.24A.25.25,0,0,0,62.35,51.1Z" transform="translate(-17.93 -24.17)"/><path class="cls-21" d="M66.9,50.75a.25.25,0,0,0,.19-.08h0a1.64,1.64,0,0,1,1.74-.28A.25.25,0,0,0,69,49.9a2.13,2.13,0,0,0-2.27.43.25.25,0,0,0,.19.42Z" transform="translate(-17.93 -24.17)"/><path class="cls-28" d="M77.65,281.12l15.79,7.2s4.22-3.84,5.66-5.4c-2.39-3.48-1.08-5.16-.47-6.71,6.95,1.55,10.31-6.35,9.94-9.35a42.17,42.17,0,0,1-.24-5.63,9.28,9.28,0,0,1,.6-3.6c.59-1.91.11-9.1.11-9.1s-15.58-7.55-17.13-1-2.76,6.11-8.27,6.35c-3.12.24-4.55,4.68-4,7.43.47,2.27,3.23,4.31,6,5a39.36,39.36,0,0,1-5.15,11.5A21.42,21.42,0,0,1,77.65,281.12Z" transform="translate(-17.93 -24.17)"/><ellipse class="cls-21" cx="81.42" cy="236.82" rx="0.96" ry="1.92"/><ellipse class="cls-21" cx="89.21" cy="236.58" rx="0.84" ry="1.8"/><path class="cls-21" d="M105,267.28a2.64,2.64,0,0,1-1.12-.3.27.27,0,1,1,.23-.49c.5.24,1.16.42,1.48-.05a2.5,2.5,0,0,0-.7-2.74.27.27,0,1,1,.36-.4,3,3,0,0,1,.79,3.44A1.2,1.2,0,0,1,105,267.28Z" transform="translate(-17.93 -24.17)"/><path class="cls-29" d="M98.62,276.21s-3.24-1.08-4.19-3.71c0,3.71,3.36,6,3.36,6Z" transform="translate(-17.93 -24.17)"/><path class="cls-21" d="M103.33,271.68a3.32,3.32,0,0,1-3.09-2,.27.27,0,0,1,.48-.25,3.13,3.13,0,0,0,4.21,1.34.28.28,0,0,1,.36.13.27.27,0,0,1-.13.36A4.84,4.84,0,0,1,103.33,271.68Z" transform="translate(-17.93 -24.17)"/><path class="cls-21" d="M101.32,257.45a.27.27,0,0,1-.15,0S99,256,97.33,257.15a.27.27,0,0,1-.3-.45c2-1.34,4.34.19,4.44.25a.27.27,0,0,1-.15.49Z" transform="translate(-17.93 -24.17)"/><path class="cls-21" d="M106.19,257.07A.26.26,0,0,1,106,257a.27.27,0,0,1,0-.38,2.28,2.28,0,0,1,2.42-.45.27.27,0,0,1,.18.34.28.28,0,0,1-.34.18,1.74,1.74,0,0,0-1.85.3A.27.27,0,0,1,106.19,257.07Z" transform="translate(-17.93 -24.17)"/><path class="cls-24" d="M76.21,246.2c8.41-12.8,21-4.27,29.7-4,3.81.1,8.24.68,7.24,4.36-1.18,4.37-3.32,8.56-4.12,10.66a17.75,17.75,0,0,0-1.43-7.45c-.36-1.08-2.18.8-5.28.93s-6.82-.21-6.94.39l-2.53,8.81a3.46,3.46,0,0,1-2.74,2.45h0s.12-7.31-5.39-7.07-5.15,9.23,1.08,11a33.07,33.07,0,0,1-2.4,6.59S71.67,253.11,76.21,246.2Z" transform="translate(-17.93 -24.17)"/><g class="cls-30"><path class="cls-31" d="M37.49,37s16.08,17.63,37.17-3.06" transform="translate(-17.93 -24.17)"/><path class="cls-31" d="M45.31,29.18S52.9,55.28,74,34.59" transform="translate(-17.93 -24.17)"/></g><g class="cls-32"><path class="cls-33" d="M261.52,71.76S251.15,88.93,236.82,88" transform="translate(-17.93 -24.17)"/></g><g class="cls-34"><path class="cls-35" d="M76,261.22c0-.21,2.08-18.46,23.33-21.8" transform="translate(-17.93 -24.17)"/><path class="cls-35" d="M77.88,262.15c0-.21,2.08-19.39,23.33-22.72" transform="translate(-17.93 -24.17)"/></g><line class="cls-36" x1="256.07" y1="272.22" x2="257.46" y2="267.22"/><line class="cls-36" x1="250.06" y1="264.68" x2="251.29" y2="272.87"/><line class="cls-36" x1="246.75" y1="274.9" x2="244.3" y2="271.94"/></g></svg>