<svg xmlns="http://www.w3.org/2000/svg" xmlns:xlink="http://www.w3.org/1999/xlink" viewBox="0 0 384.45 344.51"><defs><style>.cls-1{fill:none;}.cls-2{fill:#f3792f;}.cls-3{fill:#4f6ddb;}.cls-4{fill:#fff;}.cls-5{fill:#c46226;}.cls-6{fill:#ff9c1a;}.cls-7{fill:#029d41;}.cls-8{fill:#fe3737;}.cls-9{fill:#794300;}.cls-10{fill:#303134;}.cls-11{fill:#663800;}.cls-12{fill:#f6eeca;}.cls-13{fill:#232426;}.cls-14{fill:#fec519;}.cls-15{fill:#e39d76;}.cls-16{fill:#cc855e;}.cls-17{fill:#fec2a0;}.cls-18{fill:#f99979;}.cls-19{clip-path:url(#clip-path);}.cls-20{fill:#e6b217;}.cls-21{clip-path:url(#clip-path-2);}.cls-22{fill:#028f3b;}.cls-23{clip-path:url(#clip-path-3);}.cls-24{fill:#151617;}.cls-25{fill:#a20a0a;}.cls-26{fill:#d9d9d9;}.cls-27{fill:#f2792e;}.cls-28{fill:#28282a;}</style><clipPath id="clip-path" transform="translate(-22.75 -23.82)"><path class="cls-1" d="M65.31,33.61c-5.36.24-18-.22-21.68,6.59-3.58,6.56,6,23.69,6.7,24.92l0,.07A31.16,31.16,0,0,0,52.62,59c-5.84-1.69-6.18-10.11-1-10.34,4.94-.21,5,6,5,6.59v0c1.23-.21,2-4,2.31-5.16,0,0,7.41.74,9.14-5.77,2.91-.11,7.18,10,7.08,13a37.52,37.52,0,0,0,2.13-13C77.31,37.43,71.62,33.32,65.31,33.61Z"/></clipPath><clipPath id="clip-path-2" transform="translate(-22.75 -23.82)"><path class="cls-1" d="M275.61,107.6h0l0,.08a32.93,32.93,0,0,1-2.37-6.53c6.18-1.79,6.53-10.69,1.07-10.93-5.24-.23-5.35,6.41-5.35,7v0a3.44,3.44,0,0,1-2.71-2.44s-18,3.69-23.52,6.19c-.64-2.46-.51-11.44,2.5-18.19s7.19-9.06,12.36-7.5c8.3,2.51,16.82-6.71,25.15,6C287,87.85,276.45,106.17,275.61,107.6Z"/></clipPath><clipPath id="clip-path-3" transform="translate(-22.75 -23.82)"><path class="cls-1" d="M81,245.84c8.41-12.8,21-4.27,29.7-4,3.81.1,8.24.68,7.24,4.36-1.18,4.37-3.32,8.56-4.12,10.66a17.75,17.75,0,0,0-1.43-7.45c-.36-1.08-2.18.8-5.28.93s-6.82-.21-6.94.39l-2.53,8.81A3.46,3.46,0,0,1,94.94,262h0s.12-7.31-5.39-7.07-5.15,9.23,1.08,11a33.07,33.07,0,0,1-2.4,6.59S76.5,252.76,81,245.84Z"/></clipPath></defs><title>Schedules your 1-to-1 and group meetings_light_mode</title><g id="Слой_1" data-name="Слой 1"><path class="cls-2" d="M190.54,299.87H190a1,1,0,0,1,0-2h.53c1.63,0,3.29,0,4.94-.12q1.61-.08,3.21-.2a1,1,0,0,1,1.08.92,1,1,0,0,1-.92,1.08q-1.63.13-3.27.21C193.9,299.83,192.2,299.87,190.54,299.87Zm-9.28-.42h-.09c-2.93-.27-5.88-.66-8.77-1.17a1,1,0,1,1,.35-2c2.83.5,5.72.89,8.59,1.15a1,1,0,0,1-.09,2Zm26.19-1a1,1,0,0,1-.16-2c2.84-.47,5.7-1.07,8.49-1.78a1,1,0,1,1,.49,1.94c-2.84.72-5.76,1.33-8.66,1.81ZM164,296.39a1,1,0,0,1-.26,0c-2.83-.76-5.67-1.66-8.44-2.66a1,1,0,1,1,.68-1.88c2.71,1,5.5,1.86,8.28,2.61a1,1,0,0,1-.26,2Zm60.38-2.22a1,1,0,0,1-.33-1.94c2.72-.95,5.43-2,8.06-3.21a1,1,0,1,1,.82,1.82c-2.68,1.2-5.44,2.3-8.22,3.27A1,1,0,0,1,224.42,294.17Zm-76.83-3.75a1,1,0,0,1-.42-.09c-2.66-1.24-5.31-2.6-7.86-4.06a1,1,0,1,1,1-1.74c2.5,1.43,5.09,2.77,7.71,4a1,1,0,0,1-.42,1.91Zm92.8-3.41a1,1,0,0,1-.49-1.87c2.51-1.4,5-2.93,7.39-4.54a1,1,0,0,1,1.12,1.66c-2.44,1.64-5,3.2-7.54,4.63A1,1,0,0,1,240.38,287Zm-108-5.29a1,1,0,0,1-.57-.18c-2.42-1.67-4.79-3.47-7.05-5.34a1,1,0,0,1,1.27-1.54c2.22,1.83,4.55,3.59,6.92,5.23a1,1,0,0,1-.57,1.82Zm122.5-4.5a1,1,0,0,1-.63-1.78c2.25-1.81,4.44-3.74,6.51-5.73a1,1,0,0,1,1.38,1.45c-2.12,2-4.35,4-6.64,5.84A1,1,0,0,1,254.89,277.22Zm-136-6.65a1,1,0,0,1-.7-.29c-2.09-2.05-4.13-4.22-6-6.45a1,1,0,0,1,1.52-1.3c1.88,2.19,3.88,4.32,5.93,6.33a1,1,0,0,1-.7,1.71Zm148.63-5.46a1,1,0,0,1-.75-1.66c1.91-2.17,3.74-4.44,5.45-6.75a1,1,0,1,1,1.61,1.19c-1.74,2.36-3.61,4.67-5.56,6.88A1,1,0,0,1,267.52,265.11Zm-160-7.81a1,1,0,0,1-.81-.42c-1.72-2.38-3.36-4.87-4.86-7.38a1,1,0,1,1,1.71-1c1.48,2.47,3.08,4.91,4.77,7.24a1,1,0,0,1-.81,1.58ZM277.93,251a1,1,0,0,1-.85-1.52c1.51-2.46,2.94-5,4.23-7.58a1,1,0,0,1,1.79.9c-1.32,2.62-2.77,5.21-4.31,7.73A1,1,0,0,1,277.93,251ZM98.5,242.29a1,1,0,0,1-.9-.56c-1.29-2.64-2.48-5.37-3.53-8.1a1,1,0,1,1,1.87-.72c1,2.68,2.2,5.36,3.46,7.95a1,1,0,0,1-.9,1.44Zm187.3-6.89a1,1,0,0,1-.37-.07,1,1,0,0,1-.56-1.3c1.07-2.67,2-5.43,2.87-8.19a1,1,0,1,1,1.91.58c-.85,2.82-1.84,5.62-2.93,8.35A1,1,0,0,1,285.8,235.4ZM92.21,226a1,1,0,0,1-1-.72c-.82-2.82-1.52-5.71-2.09-8.59a1,1,0,1,1,2-.39c.56,2.82,1.25,5.66,2,8.43a1,1,0,0,1-.68,1.24A1,1,0,0,1,92.21,226Zm198.66-7.31-.21,0a1,1,0,0,1-.77-1.18c.59-2.82,1.07-5.7,1.42-8.55a1,1,0,0,1,1.11-.87,1,1,0,0,1,.87,1.11c-.36,2.91-.84,5.85-1.45,8.72A1,1,0,0,1,290.87,218.65ZM88.81,208.8a1,1,0,0,1-1-.89c-.24-2.17-.41-4.37-.52-6.54q-.05-1.15-.09-2.29a1,1,0,0,1,1-1,1,1,0,0,1,1,1q0,1.12.08,2.25c.1,2.13.27,4.28.51,6.41a1,1,0,0,1-.88,1.1ZM293,201.29h0a1,1,0,0,1-1-1c0-1.25.07-2.5.07-3.74,0-1.63,0-3.29-.12-4.94a1,1,0,0,1,2-.1c.08,1.68.12,3.37.12,5,0,1.26,0,2.54-.07,3.81A1,1,0,0,1,293,201.29Zm-204.65-10H88.3a1,1,0,0,1-.94-1.06c.17-2.94.47-5.9.89-8.8a1,1,0,0,1,1.13-.85,1,1,0,0,1,.85,1.13c-.41,2.84-.71,5.75-.88,8.63A1,1,0,0,1,88.36,191.31Zm204.31-3a1,1,0,0,1-1-.91c-.25-2.87-.63-5.76-1.13-8.6a1,1,0,0,1,2-.35c.51,2.89.89,5.84,1.15,8.77a1,1,0,0,1-.91,1.08ZM90.87,174l-.23,0a1,1,0,0,1-.75-1.2c.67-2.85,1.47-5.72,2.39-8.51a1,1,0,0,1,1.9.62c-.9,2.74-1.68,5.55-2.34,8.35A1,1,0,0,1,90.87,174Zm198.77-2.92a1,1,0,0,1-1-.74c-.74-2.78-1.6-5.57-2.58-8.28a1,1,0,0,1,1.88-.68c1,2.77,1.88,5.61,2.63,8.44a1,1,0,0,1-.71,1.22A1,1,0,0,1,289.64,171.07ZM96.32,157.35A1,1,0,0,1,95.4,156c1.15-2.71,2.43-5.39,3.81-8a1,1,0,1,1,1.77.94c-1.35,2.54-2.61,5.18-3.74,7.83A1,1,0,0,1,96.32,157.35Zm187.41-2.75a1,1,0,0,1-.91-.58c-1.21-2.62-2.54-5.21-4-7.71a1,1,0,0,1,1.74-1c1.45,2.55,2.81,5.2,4,7.87a1,1,0,0,1-.91,1.42Zm-179.2-12.71a1,1,0,0,1-.84-1.54c1.59-2.46,3.31-4.89,5.11-7.22a1,1,0,1,1,1.58,1.22c-1.76,2.28-3.45,4.66-5,7.08A1,1,0,0,1,104.53,141.89Zm170.54-2.49a1,1,0,0,1-.83-.43c-1.63-2.37-3.38-4.7-5.22-6.93a1,1,0,1,1,1.54-1.27c1.87,2.27,3.66,4.65,5.32,7.06a1,1,0,0,1-.82,1.57ZM115.24,128.05a1,1,0,0,1-.74-1.68c2-2.16,4.1-4.26,6.26-6.25a1,1,0,0,1,1.35,1.47c-2.12,1.94-4.19,4-6.14,6.13A1,1,0,0,1,115.24,128.05ZM264,125.88a1,1,0,0,1-.72-.3c-2-2.06-4.13-4.05-6.32-5.94a1,1,0,0,1,1.31-1.51c2.23,1.92,4.39,4,6.44,6.06a1,1,0,0,1-.72,1.7Zm-135.81-9.66a1,1,0,0,1-.61-1.79c2.32-1.79,4.75-3.5,7.23-5.09a1,1,0,0,1,1.08,1.68c-2.42,1.56-4.81,3.24-7.09,5A1,1,0,0,1,128.14,116.23Zm122.56-1.79a1,1,0,0,1-.59-.19c-2.34-1.69-4.77-3.3-7.23-4.79a1,1,0,0,1,1-1.71c2.51,1.51,5,3.15,7.38,4.88a1,1,0,0,1-.59,1.81Zm-107.84-7.67a1,1,0,0,1-.47-1.88c2.6-1.37,5.29-2.65,8-3.79a1,1,0,1,1,.78,1.84c-2.65,1.12-5.28,2.37-7.83,3.71A1,1,0,0,1,142.86,106.77Zm92.84-1.35a1,1,0,0,1-.44-.1c-2.59-1.27-5.26-2.45-7.94-3.49a1,1,0,0,1,.72-1.86c2.73,1.06,5.46,2.26,8.1,3.56a1,1,0,0,1-.44,1.9ZM159,100a1,1,0,0,1-.31-2c2.79-.91,5.66-1.7,8.52-2.36a1,1,0,0,1,.45,1.95c-2.81.65-5.62,1.43-8.36,2.31A1,1,0,0,1,159,100Zm60.41-.89a1,1,0,0,1-.28,0c-2.75-.81-5.58-1.5-8.42-2.07a1,1,0,0,1,.39-2c2.89.58,5.78,1.29,8.59,2.12a1,1,0,0,1-.28,2ZM176,96a1,1,0,0,1-.14-2c2.89-.41,5.85-.71,8.8-.88a1,1,0,0,1,.12,2c-2.89.17-5.79.46-8.63.86Zm26.21-.39h-.11c-2.86-.32-5.77-.53-8.65-.6a1,1,0,1,1,.05-2c2.94.08,5.91.29,8.82.62a1,1,0,0,1-.11,2Z" transform="translate(-22.75 -23.82)"/><rect class="cls-3" x="32.63" y="16.1" width="137.06" height="107.82" rx="6.85" ry="6.85"/><rect class="cls-3" x="243.59" y="55.15" width="137.06" height="110.74" rx="6.85" ry="6.85"/><rect class="cls-3" x="76.04" y="224.15" width="137.06" height="107.8" rx="6.85" ry="6.85"/><path class="cls-2" d="M194.8,165.57h0A6.62,6.62,0,0,1,205.38,169h0a6.62,6.62,0,0,0,6.76,4.91h0a6.62,6.62,0,0,1,6.54,9h0a6.62,6.62,0,0,0,2.58,7.95h0a6.62,6.62,0,0,1,0,11.12h0a6.62,6.62,0,0,0-2.58,7.95h0a6.62,6.62,0,0,1-6.54,9h0a6.62,6.62,0,0,0-6.76,4.91h0a6.62,6.62,0,0,1-10.58,3.44h0a6.62,6.62,0,0,0-8.35,0h0a6.62,6.62,0,0,1-10.58-3.44h0a6.62,6.62,0,0,0-6.76-4.91h0a6.62,6.62,0,0,1-6.54-9h0A6.62,6.62,0,0,0,160,202h0a6.62,6.62,0,0,1,0-11.12h0a6.62,6.62,0,0,0,2.58-7.95h0a6.62,6.62,0,0,1,6.54-9h0a6.62,6.62,0,0,0,6.76-4.91h0a6.62,6.62,0,0,1,10.58-3.44h0A6.62,6.62,0,0,0,194.8,165.57Z" transform="translate(-22.75 -23.82)"/><path class="cls-4" d="M205.7,189.08h-5.45v-3.83a9.63,9.63,0,0,0-19.26,0v3.83h-5.45v-3.83a15.07,15.07,0,0,1,30.15,0Z" transform="translate(-22.75 -23.82)"/><path class="cls-4" d="M206.77,189.08H174.33a2.13,2.13,0,0,0-2.13,2.13v22.18a2.13,2.13,0,0,0,2.13,2.13h32.44a2.13,2.13,0,0,0,2.13-2.13V191.21A2.13,2.13,0,0,0,206.77,189.08Zm-13.71,12.53V209h-4.42v-7.36a3.91,3.91,0,1,1,4.42,0Z" transform="translate(-22.75 -23.82)"/><path class="cls-2" d="M285.78,321.24c-.4-4.31-3.19-7.31-4.29-8.63s-4.68-1.71-6.44-3.69-3.14-6.88-4.13-7.27-2.53.72-2.81,1.54a1.75,1.75,0,0,1-.2.42,1.64,1.64,0,0,0-.57-.87c-2-1.37-3.47,1-3.63,2.76a45.3,45.3,0,0,1-1.84,6.62h0c-.25.76-.47,1.37-.58,1.69a40.09,40.09,0,0,0-.64,5.79h0c-.19,3.1-.22,4.18.48,5.25s3.82,4.47,6.88,5.3,6.14-1.84,10.71.38a20.93,20.93,0,0,1,5.76,3.81l3.68-6.77A10.74,10.74,0,0,1,285.78,321.24Zm-18.66-7.31s.53-2.28.84-4.79l4.12,4.79Z" transform="translate(-22.75 -23.82)"/><path class="cls-5" d="M268,309.14a9.55,9.55,0,0,1-.27-2.78c0-.91.11-1.76.22-2.74a3,3,0,0,1,.63,1.34,5.83,5.83,0,0,1,.14,1.43A5.93,5.93,0,0,1,268,309.14Z" transform="translate(-22.75 -23.82)"/><path class="cls-5" d="M264.31,321c.22-1.19.48-2.36.73-3.54s.52-2.35.79-3.53l.05-.23h.25c2.3-.06,4.61-.08,6.92,0,1.16,0,2.3.07,3.48.19a3.87,3.87,0,0,1,1.85.59,3,3,0,0,1,1.19,1.64,2.73,2.73,0,0,1,.1.52v.15c0-.05,0-.17-.06-.19s0,0,0,0c.18.07.5.14.79.23a3.29,3.29,0,0,1,.91.43,1.93,1.93,0,0,1,.68.87,2.21,2.21,0,0,1,.14.53c0,.17,0,.3,0,.46a3.21,3.21,0,0,1-.07,1,1.46,1.46,0,0,1-.7.94,2.65,2.65,0,0,1-1,.31,24,24,0,0,1-3.51,0c-1.16,0-2.31-.06-3.46-.12l.19-.14c-.35,1.18-.69,2.36-1.07,3.53.21-1.21.46-2.42.7-3.62l0-.14h.16c1.15-.06,2.29-.09,3.44-.12a24,24,0,0,0,3.38-.21,2.13,2.13,0,0,0,.67-.23.58.58,0,0,0,.29-.42,2.41,2.41,0,0,0,0-.72,2.18,2.18,0,0,0-.14-.7,1.45,1.45,0,0,0-1-.74c-.26-.08-.51-.12-.87-.25a.93.93,0,0,1-.38-.27.74.74,0,0,1-.14-.39v-.07a1.79,1.79,0,0,0-.07-.33,2.28,2.28,0,0,0-2.21-1.53c-1.11-.13-2.26-.17-3.4-.23l-6.88-.28.3-.23c-.34,1.16-.66,2.32-1,3.46S264.7,319.83,264.31,321Z" transform="translate(-22.75 -23.82)"/><path class="cls-5" d="M268.11,323.83a52.71,52.71,0,0,1,1.52-6.64l.09-.31.34,0c1.51-.13,3-.2,4.55-.24.76,0,1.52,0,2.28,0s1.52,0,2.29.12c-.75.17-1.5.29-2.25.42s-1.51.21-2.26.3c-1.51.16-3,.3-4.54.36l.43-.34A52.72,52.72,0,0,1,268.11,323.83Z" transform="translate(-22.75 -23.82)"/><path class="cls-2" d="M261.87,312.12h0c-.25.76-.47,1.37-.58,1.69a40.09,40.09,0,0,0-.64,5.79c-1.12-1.93-2.76-4.67-3.26-5.25-.71-.83-1.85-7.45-1.24-8.83s2.92-2.26,3.74-.33a28.68,28.68,0,0,1,1.56,5.75A3.71,3.71,0,0,0,261.87,312.12Z" transform="translate(-22.75 -23.82)"/></g><g id="Слой_2" data-name="Слой 2"><rect class="cls-6" x="73.34" y="23.32" width="28.83" height="13.95" rx="1.86" ry="1.86"/><path class="cls-4" d="M107,54.08c-.06-1.06-.12-2.33-.11-3.27h0c-.26.89-.57,1.83-1,2.88l-1.34,3.68h-.74l-1.23-3.61c-.36-1.07-.66-2-.88-2.95h0c0,.95-.08,2.22-.15,3.35l-.2,3.25h-.93l.53-7.58h1.25l1.29,3.67c.31.93.57,1.77.76,2.55h0c.19-.76.46-1.6.8-2.55l1.35-3.67h1.25l.47,7.58h-1Z" transform="translate(-22.75 -23.82)"/><path class="cls-4" d="M114.6,54.64a2.66,2.66,0,0,1-2.71,2.89,2.59,2.59,0,0,1-2.61-2.8,2.66,2.66,0,0,1,2.7-2.89A2.58,2.58,0,0,1,114.6,54.64Zm-4.32.06c0,1.19.69,2.09,1.65,2.09s1.65-.89,1.65-2.11c0-.92-.46-2.09-1.63-2.09S110.28,53.67,110.28,54.7Z" transform="translate(-22.75 -23.82)"/><path class="cls-4" d="M115.85,53.44c0-.56,0-1,0-1.47h.88l.06.9h0a2,2,0,0,1,1.8-1c.75,0,1.92.45,1.92,2.32v3.25h-1V54.27c0-.88-.33-1.61-1.26-1.61a1.45,1.45,0,0,0-1.39,1.47v3.27h-1Z" transform="translate(-22.75 -23.82)"/><rect class="cls-7" x="105.7" y="23.32" width="28.83" height="13.95" rx="1.86" ry="1.86"/><path class="cls-4" d="M136.71,50.66h-2.31v-.83H140v.83H137.7v6.75h-1Z" transform="translate(-22.75 -23.82)"/><path class="cls-4" d="M144.87,55.93c0,.56,0,1.06,0,1.48H144l-.06-.89h0a2,2,0,0,1-1.8,1c-.85,0-1.88-.47-1.88-2.38V52h1v3c0,1,.32,1.73,1.21,1.73a1.39,1.39,0,0,0,1.39-1.41V52h1Z" transform="translate(-22.75 -23.82)"/><path class="cls-4" d="M147.06,54.87a1.74,1.74,0,0,0,1.87,1.89,3.58,3.58,0,0,0,1.51-.28l.17.71a4.41,4.41,0,0,1-1.81.34,2.53,2.53,0,0,1-2.68-2.74,2.64,2.64,0,0,1,2.55-2.93,2.31,2.31,0,0,1,2.25,2.56,3.6,3.6,0,0,1,0,.46Zm2.9-.71a1.41,1.41,0,0,0-1.37-1.61,1.64,1.64,0,0,0-1.52,1.61Z" transform="translate(-22.75 -23.82)"/><rect class="cls-8" x="138.05" y="23.32" width="28.83" height="13.95" rx="1.86" ry="1.86"/><path class="cls-4" d="M166.76,57.41l-1.92-7.58h1l.9,3.83c.23.95.43,1.89.56,2.62h0c.12-.75.36-1.65.62-2.63l1-3.82h1l.92,3.85c.21.9.42,1.8.53,2.6h0c.16-.83.37-1.68.61-2.62l1-3.82h1l-2.15,7.58h-1l-1-3.95a22.86,22.86,0,0,1-.5-2.47h0a23.65,23.65,0,0,1-.58,2.47l-1.08,3.95Z" transform="translate(-22.75 -23.82)"/><path class="cls-4" d="M175.18,54.87A1.74,1.74,0,0,0,177,56.76a3.58,3.58,0,0,0,1.51-.28l.17.71a4.41,4.41,0,0,1-1.81.34,2.53,2.53,0,0,1-2.68-2.74,2.64,2.64,0,0,1,2.55-2.93A2.31,2.31,0,0,1,179,54.41a3.6,3.6,0,0,1,0,.46Zm2.9-.71a1.41,1.41,0,0,0-1.37-1.61,1.64,1.64,0,0,0-1.52,1.61Z" transform="translate(-22.75 -23.82)"/><path class="cls-4" d="M185,49.43V56c0,.48,0,1,0,1.41h-.89l0-.94h0a2,2,0,0,1-1.86,1.07,2.48,2.48,0,0,1-2.33-2.77c0-1.81,1.11-2.92,2.44-2.92a1.82,1.82,0,0,1,1.64.83h0V49.43Zm-1,4.76a1.77,1.77,0,0,0,0-.42,1.46,1.46,0,0,0-1.43-1.15c-1,0-1.63.9-1.63,2.1s.54,2,1.61,2a1.49,1.49,0,0,0,1.45-1.18,1.74,1.74,0,0,0,0-.43Z" transform="translate(-22.75 -23.82)"/><rect class="cls-6" x="282.18" y="62.57" width="28.83" height="13.95" rx="1.86" ry="1.86"/><path class="cls-4" d="M315.84,93.33c-.06-1.06-.12-2.33-.11-3.27h0c-.26.89-.57,1.83-1,2.88l-1.34,3.68h-.74L311.43,93c-.36-1.07-.66-2-.88-2.95h0c0,.95-.08,2.22-.15,3.35l-.2,3.25h-.93l.53-7.58H311l1.29,3.67c.31.93.57,1.77.76,2.55h0c.19-.76.46-1.6.8-2.55l1.35-3.67h1.25l.47,7.58h-1Z" transform="translate(-22.75 -23.82)"/><path class="cls-4" d="M323.44,93.89a2.66,2.66,0,0,1-2.71,2.89,2.59,2.59,0,0,1-2.61-2.8,2.66,2.66,0,0,1,2.7-2.89A2.58,2.58,0,0,1,323.44,93.89Zm-4.32.06c0,1.19.69,2.09,1.65,2.09s1.65-.89,1.65-2.11c0-.92-.46-2.09-1.63-2.09S319.13,92.91,319.13,93.95Z" transform="translate(-22.75 -23.82)"/><path class="cls-4" d="M324.69,92.69c0-.56,0-1,0-1.47h.88l.06.9h0a2,2,0,0,1,1.8-1c.75,0,1.92.45,1.92,2.32v3.25h-1V93.52c0-.88-.33-1.61-1.26-1.61a1.45,1.45,0,0,0-1.39,1.47v3.27h-1Z" transform="translate(-22.75 -23.82)"/><rect class="cls-7" x="314.54" y="62.57" width="28.83" height="13.95" rx="1.86" ry="1.86"/><path class="cls-4" d="M345.55,89.91h-2.31v-.83h5.61v.83h-2.32v6.75h-1Z" transform="translate(-22.75 -23.82)"/><path class="cls-4" d="M353.72,95.17c0,.56,0,1.06,0,1.48h-.88l-.06-.89h0a2,2,0,0,1-1.8,1c-.85,0-1.88-.47-1.88-2.38V91.21h1v3c0,1,.32,1.73,1.21,1.73a1.39,1.39,0,0,0,1.39-1.41V91.21h1Z" transform="translate(-22.75 -23.82)"/><path class="cls-4" d="M355.91,94.11A1.74,1.74,0,0,0,357.77,96a3.58,3.58,0,0,0,1.51-.28l.17.71a4.41,4.41,0,0,1-1.81.34A2.53,2.53,0,0,1,355,94a2.64,2.64,0,0,1,2.55-2.93,2.31,2.31,0,0,1,2.25,2.56,3.6,3.6,0,0,1,0,.46Zm2.9-.71a1.41,1.41,0,0,0-1.37-1.61,1.64,1.64,0,0,0-1.52,1.61Z" transform="translate(-22.75 -23.82)"/><rect class="cls-8" x="346.9" y="62.57" width="28.83" height="13.95" rx="1.86" ry="1.86"/><path class="cls-4" d="M375.6,96.66l-1.92-7.58h1l.9,3.83c.23.95.43,1.89.56,2.62h0c.12-.75.36-1.65.62-2.63l1-3.82h1l.92,3.85c.21.9.42,1.8.53,2.6h0c.16-.83.37-1.68.61-2.62l1-3.82h1l-2.15,7.58h-1l-1-3.95a22.86,22.86,0,0,1-.5-2.47h0a23.65,23.65,0,0,1-.58,2.47l-1.08,3.95Z" transform="translate(-22.75 -23.82)"/><path class="cls-4" d="M384,94.11A1.74,1.74,0,0,0,385.89,96a3.58,3.58,0,0,0,1.51-.28l.17.71a4.41,4.41,0,0,1-1.81.34A2.53,2.53,0,0,1,383.08,94a2.64,2.64,0,0,1,2.55-2.93,2.31,2.31,0,0,1,2.25,2.56,3.6,3.6,0,0,1,0,.46Zm2.9-.71a1.41,1.41,0,0,0-1.37-1.61A1.64,1.64,0,0,0,384,93.41Z" transform="translate(-22.75 -23.82)"/><path class="cls-4" d="M393.8,88.67v6.58c0,.48,0,1,0,1.41H393l0-.94h0A2,2,0,0,1,391,96.78,2.48,2.48,0,0,1,388.71,94c0-1.81,1.11-2.92,2.44-2.92a1.82,1.82,0,0,1,1.64.83h0V88.67Zm-1,4.76a1.77,1.77,0,0,0,0-.42,1.46,1.46,0,0,0-1.43-1.15c-1,0-1.63.9-1.63,2.1s.54,2,1.61,2a1.49,1.49,0,0,0,1.45-1.18,1.74,1.74,0,0,0,0-.43Z" transform="translate(-22.75 -23.82)"/><rect class="cls-6" x="115.36" y="230.08" width="28.83" height="13.95" rx="1.86" ry="1.86"/><path class="cls-4" d="M149,260.84c-.06-1.06-.12-2.33-.11-3.27h0c-.26.89-.57,1.83-1,2.88l-1.34,3.68h-.74l-1.23-3.61c-.36-1.07-.66-2-.88-2.95h0c0,.95-.08,2.22-.15,3.35l-.2,3.25h-.93l.53-7.58h1.25l1.29,3.67c.31.93.57,1.77.76,2.55h0c.19-.76.46-1.6.8-2.55l1.35-3.67h1.25l.47,7.58h-1Z" transform="translate(-22.75 -23.82)"/><path class="cls-4" d="M156.62,261.4a2.66,2.66,0,0,1-2.71,2.89,2.59,2.59,0,0,1-2.61-2.8,2.66,2.66,0,0,1,2.7-2.89A2.58,2.58,0,0,1,156.62,261.4Zm-4.32.06c0,1.19.69,2.09,1.65,2.09s1.65-.89,1.65-2.11c0-.92-.46-2.09-1.63-2.09S152.31,260.42,152.31,261.45Z" transform="translate(-22.75 -23.82)"/><path class="cls-4" d="M157.87,260.19c0-.56,0-1,0-1.47h.88l.06.9h0a2,2,0,0,1,1.8-1c.75,0,1.92.45,1.92,2.32v3.25h-1V261c0-.88-.33-1.61-1.26-1.61a1.45,1.45,0,0,0-1.39,1.47v3.27h-1Z" transform="translate(-22.75 -23.82)"/><rect class="cls-7" x="147.72" y="230.08" width="28.83" height="13.95" rx="1.86" ry="1.86"/><path class="cls-4" d="M178.73,257.42h-2.31v-.83H182v.83h-2.32v6.75h-1Z" transform="translate(-22.75 -23.82)"/><path class="cls-4" d="M186.9,262.68c0,.56,0,1.06,0,1.48h-.88l-.06-.89h0a2,2,0,0,1-1.8,1c-.85,0-1.88-.47-1.88-2.38v-3.18h1v3c0,1,.32,1.73,1.21,1.73a1.39,1.39,0,0,0,1.39-1.41v-3.34h1Z" transform="translate(-22.75 -23.82)"/><path class="cls-4" d="M189.09,261.62a1.74,1.74,0,0,0,1.87,1.89,3.58,3.58,0,0,0,1.51-.28l.17.71a4.41,4.41,0,0,1-1.81.34,2.53,2.53,0,0,1-2.68-2.74,2.64,2.64,0,0,1,2.55-2.93,2.31,2.31,0,0,1,2.25,2.56,3.6,3.6,0,0,1,0,.46Zm2.9-.71a1.41,1.41,0,0,0-1.37-1.61,1.64,1.64,0,0,0-1.52,1.61Z" transform="translate(-22.75 -23.82)"/><rect class="cls-8" x="180.08" y="230.08" width="28.83" height="13.95" rx="1.86" ry="1.86"/><path class="cls-4" d="M208.78,264.16l-1.92-7.58h1l.9,3.83c.23.95.43,1.89.56,2.62h0c.12-.75.36-1.65.62-2.63l1-3.82h1l.92,3.85c.21.9.42,1.8.53,2.6h0c.16-.83.37-1.68.61-2.62l1-3.82h1L214,264.16h-1l-1-3.95a22.86,22.86,0,0,1-.5-2.47h0a23.65,23.65,0,0,1-.58,2.47l-1.08,3.95Z" transform="translate(-22.75 -23.82)"/><path class="cls-4" d="M217.2,261.62a1.74,1.74,0,0,0,1.87,1.89,3.58,3.58,0,0,0,1.51-.28l.17.71a4.41,4.41,0,0,1-1.81.34,2.53,2.53,0,0,1-2.68-2.74,2.64,2.64,0,0,1,2.55-2.93,2.31,2.31,0,0,1,2.25,2.56,3.6,3.6,0,0,1,0,.46Zm2.9-.71a1.41,1.41,0,0,0-1.37-1.61,1.64,1.64,0,0,0-1.52,1.61Z" transform="translate(-22.75 -23.82)"/><path class="cls-4" d="M227,256.18v6.58c0,.48,0,1,0,1.41h-.89l0-.94h0a2,2,0,0,1-1.86,1.07,2.48,2.48,0,0,1-2.33-2.77c0-1.81,1.11-2.92,2.44-2.92a1.82,1.82,0,0,1,1.64.83h0v-3.25Zm-1,4.76a1.77,1.77,0,0,0,0-.42,1.46,1.46,0,0,0-1.43-1.15c-1,0-1.63.9-1.63,2.1s.54,2,1.61,2a1.49,1.49,0,0,0,1.45-1.18,1.74,1.74,0,0,0,0-.43Z" transform="translate(-22.75 -23.82)"/><circle class="cls-4" cx="76.04" cy="237" r="32.63"/><circle class="cls-4" cx="243.59" cy="71.24" r="32.63"/><path class="cls-7" d="M275.61,107.6h0l0,.08a32.93,32.93,0,0,1-2.37-6.53c6.18-1.79,6.53-10.69,1.07-10.93-5.24-.23-5.35,6.41-5.35,7v0a3.44,3.44,0,0,1-2.71-2.44s-18,3.69-23.52,6.19c-.64-2.46-.51-11.44,2.5-18.19s7.19-9.06,12.36-7.5c8.3,2.51,16.82-6.71,25.15,6C287,87.85,276.45,106.17,275.61,107.6Z" transform="translate(-22.75 -23.82)"/><path class="cls-9" d="M281.27,115.88,265.62,123s-4.19-3.81-5.61-5.35c2.37-3.45,1.06-5.12.47-6.65-6.89,1.53-10.22-6.3-9.86-9.27a41.59,41.59,0,0,0,.24-5.58,9.17,9.17,0,0,0-.6-3.57,3.24,3.24,0,0,1-.1-.44h0c-.13-3.2,3.57-6.59,6.65-6.47s6.76-.2,6.88.39l2.51,8.73a3.44,3.44,0,0,0,2.71,2.44v0c0-.56.11-7.2,5.35-7,5.46.24,5.11,9.14-1.07,10.93a32.93,32.93,0,0,0,2.37,6.53l0-.08a39.84,39.84,0,0,0,2.81,5.06A20.61,20.61,0,0,0,281.27,115.88Z" transform="translate(-22.75 -23.82)"/><ellipse class="cls-10" cx="237.02" cy="72.11" rx="0.95" ry="1.9"/><ellipse class="cls-10" cx="229.3" cy="71.87" rx="0.83" ry="1.78"/><path class="cls-10" d="M254.14,102.16a1.19,1.19,0,0,1-1-.53,3,3,0,0,1,.78-3.41.27.27,0,1,1,.36.39,2.47,2.47,0,0,0-.7,2.72c.32.47,1,.29,1.47,0a.27.27,0,0,1,.23.48A2.61,2.61,0,0,1,254.14,102.16Z" transform="translate(-22.75 -23.82)"/><path class="cls-11" d="M260.48,111s3.21-1.07,4.16-3.68c0,3.68-3.33,5.94-3.33,5.94Z" transform="translate(-22.75 -23.82)"/><path class="cls-10" d="M255.82,106.52a4.79,4.79,0,0,1-1.81-.37.27.27,0,0,1,.23-.48,3.12,3.12,0,0,0,4.18-1.33.27.27,0,0,1,.47.25A3.29,3.29,0,0,1,255.82,106.52Z" transform="translate(-22.75 -23.82)"/><path class="cls-10" d="M257.81,92.41a.27.27,0,0,1-.15-.49c.1-.07,2.4-1.58,4.4-.25a.27.27,0,1,1-.3.45c-1.69-1.13-3.78.23-3.8.25A.27.27,0,0,1,257.81,92.41Z" transform="translate(-22.75 -23.82)"/><path class="cls-10" d="M253,92a.27.27,0,0,1-.2-.09,1.75,1.75,0,0,0-1.84-.29.27.27,0,1,1-.16-.51,2.24,2.24,0,0,1,2.39.45.27.27,0,0,1-.2.44Z" transform="translate(-22.75 -23.82)"/><path class="cls-12" d="M126.73,144.27a.5.5,0,0,1-.5-.5V135a.5.5,0,0,1,1,0v8.76A.5.5,0,0,1,126.73,144.27Zm0-17.53a.5.5,0,0,1-.5-.5v-8.76a.5.5,0,0,1,1,0v8.76A.5.5,0,0,1,126.73,126.75Zm0-17.53a.5.5,0,0,1-.5-.5V100a.5.5,0,0,1,1,0v8.76A.5.5,0,0,1,126.73,109.22Zm0-17.53a.5.5,0,0,1-.5-.5V82.43a.5.5,0,0,1,1,0v8.76A.5.5,0,0,1,126.73,91.69Zm0-17.53a.5.5,0,0,1-.5-.5V64.91a.5.5,0,0,1,1,0v8.76A.5.5,0,0,1,126.73,74.17Z" transform="translate(-22.75 -23.82)"/><path class="cls-12" d="M92.73,144.27a.5.5,0,0,1-.5-.5V135a.5.5,0,0,1,1,0v8.76A.5.5,0,0,1,92.73,144.27Zm0-17.53a.5.5,0,0,1-.5-.5v-8.76a.5.5,0,0,1,1,0v8.76A.5.5,0,0,1,92.73,126.75Zm0-17.53a.5.5,0,0,1-.5-.5V100a.5.5,0,0,1,1,0v8.76A.5.5,0,0,1,92.73,109.22Zm0-17.53a.5.5,0,0,1-.5-.5V82.43a.5.5,0,0,1,1,0v8.76A.5.5,0,0,1,92.73,91.69Zm0-17.53a.5.5,0,0,1-.5-.5V64.91a.5.5,0,0,1,1,0v8.76A.5.5,0,0,1,92.73,74.17Z" transform="translate(-22.75 -23.82)"/><path class="cls-12" d="M158.73,144.27a.5.5,0,0,1-.5-.5V135a.5.5,0,0,1,1,0v8.76A.5.5,0,0,1,158.73,144.27Zm0-17.53a.5.5,0,0,1-.5-.5v-8.76a.5.5,0,1,1,1,0v8.76A.5.5,0,0,1,158.73,126.75Zm0-17.53a.5.5,0,0,1-.5-.5V100a.5.5,0,0,1,1,0v8.76A.5.5,0,0,1,158.73,109.22Zm0-17.53a.5.5,0,0,1-.5-.5V82.43a.5.5,0,0,1,1,0v8.76A.5.5,0,0,1,158.73,91.69Zm0-17.53a.5.5,0,0,1-.5-.5V64.91a.5.5,0,0,1,1,0v8.76A.5.5,0,0,1,158.73,74.17Z" transform="translate(-22.75 -23.82)"/><path class="cls-12" d="M183.59,93.87h-8.76a.5.5,0,0,1,0-1h8.76a.5.5,0,0,1,0,1Zm-17.53,0H157.3a.5.5,0,0,1,0-1h8.76a.5.5,0,0,1,0,1Zm-17.53,0h-8.76a.5.5,0,0,1,0-1h8.76a.5.5,0,0,1,0,1Zm-17.53,0h-8.76a.5.5,0,1,1,0-1H131a.5.5,0,0,1,0,1Zm-17.53,0h-8.76a.5.5,0,0,1,0-1h8.76a.5.5,0,1,1,0,1ZM96,93.87H87.2a.5.5,0,0,1,0-1H96a.5.5,0,0,1,0,1Zm-17.53,0H69.67a.5.5,0,0,1,0-1h8.76a.5.5,0,0,1,0,1Zm-17.53,0H59.39a.5.5,0,1,1,0-1h1.51a.5.5,0,0,1,0,1Z" transform="translate(-22.75 -23.82)"/><path class="cls-12" d="M183.59,129.24h-8.76a.5.5,0,0,1,0-1h8.76a.5.5,0,0,1,0,1Zm-17.53,0H157.3a.5.5,0,0,1,0-1h8.76a.5.5,0,0,1,0,1Zm-17.53,0h-8.76a.5.5,0,0,1,0-1h8.76a.5.5,0,0,1,0,1Zm-17.53,0h-8.76a.5.5,0,1,1,0-1H131a.5.5,0,0,1,0,1Zm-17.53,0h-8.76a.5.5,0,0,1,0-1h8.76a.5.5,0,1,1,0,1Zm-17.53,0H87.2a.5.5,0,0,1,0-1H96a.5.5,0,0,1,0,1Zm-17.53,0H69.67a.5.5,0,0,1,0-1h8.76a.5.5,0,0,1,0,1Zm-17.53,0H59.39a.5.5,0,1,1,0-1h1.51a.5.5,0,0,1,0,1Z" transform="translate(-22.75 -23.82)"/><circle class="cls-4" cx="32.63" cy="32.63" r="32.63"/><rect class="cls-6" x="74.99" y="46.23" width="22.99" height="16.35" rx="3.75" ry="3.75"/><rect class="cls-4" x="108.48" y="79.9" width="22.99" height="16.35" rx="3.75" ry="3.75"/><rect class="cls-8" x="74.99" y="79.9" width="22.99" height="16.35" rx="3.75" ry="3.75"/><rect class="cls-8" x="141.96" y="46.23" width="22.99" height="16.35" rx="3.75" ry="3.75"/><path class="cls-12" d="M336.82,182.89a.5.5,0,0,1-.5-.5v-8.76a.5.5,0,0,1,1,0v8.76A.5.5,0,0,1,336.82,182.89Zm0-17.53a.5.5,0,0,1-.5-.5V156.1a.5.5,0,0,1,1,0v8.76A.5.5,0,0,1,336.82,165.36Zm0-17.53a.5.5,0,0,1-.5-.5v-8.76a.5.5,0,1,1,1,0v8.76A.5.5,0,0,1,336.82,147.83Zm0-17.53a.5.5,0,0,1-.5-.5V121a.5.5,0,0,1,1,0v8.76A.5.5,0,0,1,336.82,130.31Zm0-17.53a.5.5,0,0,1-.5-.5v-8.76a.5.5,0,0,1,1,0v8.76A.5.5,0,0,1,336.82,112.78Z" transform="translate(-22.75 -23.82)"/><path class="cls-12" d="M302.82,182.89a.5.5,0,0,1-.5-.5v-8.76a.5.5,0,0,1,1,0v8.76A.5.5,0,0,1,302.82,182.89Zm0-17.53a.5.5,0,0,1-.5-.5V156.1a.5.5,0,0,1,1,0v8.76A.5.5,0,0,1,302.82,165.36Zm0-17.53a.5.5,0,0,1-.5-.5v-8.76a.5.5,0,1,1,1,0v8.76A.5.5,0,0,1,302.82,147.83Zm0-17.53a.5.5,0,0,1-.5-.5V121a.5.5,0,0,1,1,0v8.76A.5.5,0,0,1,302.82,130.31Zm0-17.53a.5.5,0,0,1-.5-.5v-8.76a.5.5,0,0,1,1,0v8.76A.5.5,0,0,1,302.82,112.78Z" transform="translate(-22.75 -23.82)"/><path class="cls-12" d="M368.82,182.89a.5.5,0,0,1-.5-.5v-8.76a.5.5,0,0,1,1,0v8.76A.5.5,0,0,1,368.82,182.89Zm0-17.53a.5.5,0,0,1-.5-.5V156.1a.5.5,0,0,1,1,0v8.76A.5.5,0,0,1,368.82,165.36Zm0-17.53a.5.5,0,0,1-.5-.5v-8.76a.5.5,0,1,1,1,0v8.76A.5.5,0,0,1,368.82,147.83Zm0-17.53a.5.5,0,0,1-.5-.5V121a.5.5,0,0,1,1,0v8.76A.5.5,0,0,1,368.82,130.31Zm0-17.53a.5.5,0,0,1-.5-.5v-8.76a.5.5,0,0,1,1,0v8.76A.5.5,0,0,1,368.82,112.78Z" transform="translate(-22.75 -23.82)"/><path class="cls-12" d="M393.68,132.48h-8.76a.5.5,0,0,1,0-1h8.76a.5.5,0,0,1,0,1Zm-17.53,0h-8.76a.5.5,0,0,1,0-1h8.76a.5.5,0,0,1,0,1Zm-17.53,0h-8.76a.5.5,0,0,1,0-1h8.76a.5.5,0,0,1,0,1Zm-17.53,0h-8.76a.5.5,0,0,1,0-1h8.76a.5.5,0,0,1,0,1Zm-17.53,0h-8.76a.5.5,0,0,1,0-1h8.76a.5.5,0,0,1,0,1Zm-17.53,0h-8.76a.5.5,0,0,1,0-1h8.76a.5.5,0,0,1,0,1Zm-17.53,0h-8.76a.5.5,0,0,1,0-1h8.76a.5.5,0,0,1,0,1Zm-17.53,0h-1.52a.5.5,0,0,1,0-1H271a.5.5,0,0,1,0,1Z" transform="translate(-22.75 -23.82)"/><path class="cls-12" d="M393.68,167.85h-8.76a.5.5,0,0,1,0-1h8.76a.5.5,0,0,1,0,1Zm-17.53,0h-8.76a.5.5,0,0,1,0-1h8.76a.5.5,0,0,1,0,1Zm-17.53,0h-8.76a.5.5,0,0,1,0-1h8.76a.5.5,0,0,1,0,1Zm-17.53,0h-8.76a.5.5,0,0,1,0-1h8.76a.5.5,0,0,1,0,1Zm-17.53,0h-8.76a.5.5,0,0,1,0-1h8.76a.5.5,0,0,1,0,1Zm-17.53,0h-8.76a.5.5,0,0,1,0-1h8.76a.5.5,0,0,1,0,1Zm-17.53,0h-8.76a.5.5,0,0,1,0-1h8.76a.5.5,0,0,1,0,1Zm-17.53,0h-1.52a.5.5,0,0,1,0-1H271a.5.5,0,0,1,0,1Z" transform="translate(-22.75 -23.82)"/><rect class="cls-6" x="317.46" y="84.84" width="22.99" height="16.35" rx="3.75" ry="3.75"/><rect class="cls-4" x="352.05" y="118.51" width="22.99" height="16.35" rx="3.75" ry="3.75"/><rect class="cls-8" x="285.08" y="118.51" width="22.99" height="16.35" rx="3.75" ry="3.75"/><rect class="cls-8" x="352.05" y="84.84" width="22.99" height="16.35" rx="3.75" ry="3.75"/><path class="cls-12" d="M169.25,348.86a.5.5,0,0,1-.5-.5V339.6a.5.5,0,0,1,1,0v8.76A.5.5,0,0,1,169.25,348.86Zm0-17.53a.5.5,0,0,1-.5-.5v-8.76a.5.5,0,0,1,1,0v8.76A.5.5,0,0,1,169.25,331.34Zm0-17.53a.5.5,0,0,1-.5-.5v-8.76a.5.5,0,0,1,1,0v8.76A.5.5,0,0,1,169.25,313.81Zm0-17.53a.5.5,0,0,1-.5-.5V287a.5.5,0,0,1,1,0v8.76A.5.5,0,0,1,169.25,296.28Zm0-17.53a.5.5,0,0,1-.5-.5V269.5a.5.5,0,0,1,1,0v8.76A.5.5,0,0,1,169.25,278.76Z" transform="translate(-22.75 -23.82)"/><path class="cls-12" d="M135.25,348.86a.5.5,0,0,1-.5-.5V339.6a.5.5,0,0,1,1,0v8.76A.5.5,0,0,1,135.25,348.86Zm0-17.53a.5.5,0,0,1-.5-.5v-8.76a.5.5,0,0,1,1,0v8.76A.5.5,0,0,1,135.25,331.34Zm0-17.53a.5.5,0,0,1-.5-.5v-8.76a.5.5,0,0,1,1,0v8.76A.5.5,0,0,1,135.25,313.81Zm0-17.53a.5.5,0,0,1-.5-.5V287a.5.5,0,0,1,1,0v8.76A.5.5,0,0,1,135.25,296.28Zm0-17.53a.5.5,0,0,1-.5-.5V269.5a.5.5,0,0,1,1,0v8.76A.5.5,0,0,1,135.25,278.76Z" transform="translate(-22.75 -23.82)"/><path class="cls-12" d="M201.25,348.86a.5.5,0,0,1-.5-.5V339.6a.5.5,0,1,1,1,0v8.76A.5.5,0,0,1,201.25,348.86Zm0-17.53a.5.5,0,0,1-.5-.5v-8.76a.5.5,0,0,1,1,0v8.76A.5.5,0,0,1,201.25,331.34Zm0-17.53a.5.5,0,0,1-.5-.5v-8.76a.5.5,0,0,1,1,0v8.76A.5.5,0,0,1,201.25,313.81Zm0-17.53a.5.5,0,0,1-.5-.5V287a.5.5,0,0,1,1,0v8.76A.5.5,0,0,1,201.25,296.28Zm0-17.53a.5.5,0,0,1-.5-.5V269.5a.5.5,0,0,1,1,0v8.76A.5.5,0,0,1,201.25,278.76Z" transform="translate(-22.75 -23.82)"/><path class="cls-12" d="M226.11,298.46h-8.76a.5.5,0,0,1,0-1h8.76a.5.5,0,0,1,0,1Zm-17.53,0h-8.76a.5.5,0,1,1,0-1h8.76a.5.5,0,0,1,0,1Zm-17.53,0H182.3a.5.5,0,0,1,0-1h8.76a.5.5,0,0,1,0,1Zm-17.53,0h-8.76a.5.5,0,0,1,0-1h8.76a.5.5,0,1,1,0,1Zm-17.53,0h-8.76a.5.5,0,0,1,0-1H156a.5.5,0,0,1,0,1Zm-17.53,0h-8.76a.5.5,0,0,1,0-1h8.76a.5.5,0,0,1,0,1Zm-17.53,0h-8.76a.5.5,0,0,1,0-1H121a.5.5,0,1,1,0,1Zm-17.53,0h-1.51a.5.5,0,1,1,0-1h1.51a.5.5,0,0,1,0,1Z" transform="translate(-22.75 -23.82)"/><path class="cls-12" d="M226.11,333.83h-8.76a.5.5,0,0,1,0-1h8.76a.5.5,0,1,1,0,1Zm-17.53,0h-8.76a.5.5,0,0,1,0-1h8.76a.5.5,0,0,1,0,1Zm-17.53,0H182.3a.5.5,0,0,1,0-1h8.76a.5.5,0,0,1,0,1Zm-17.53,0h-8.76a.5.5,0,0,1,0-1h8.76a.5.5,0,0,1,0,1Zm-17.53,0h-8.76a.5.5,0,1,1,0-1H156a.5.5,0,0,1,0,1Zm-17.53,0h-8.76a.5.5,0,0,1,0-1h8.76a.5.5,0,0,1,0,1Zm-17.53,0h-8.76a.5.5,0,0,1,0-1H121a.5.5,0,0,1,0,1Zm-17.53,0h-1.51a.5.5,0,0,1,0-1h1.51a.5.5,0,0,1,0,1Z" transform="translate(-22.75 -23.82)"/><rect class="cls-6" x="117.51" y="250.82" width="22.99" height="16.35" rx="3.75" ry="3.75"/><rect class="cls-4" x="184.48" y="284.49" width="22.99" height="16.35" rx="3.75" ry="3.75"/><rect class="cls-8" x="117.51" y="284.49" width="22.99" height="16.35" rx="3.75" ry="3.75"/><rect class="cls-8" x="184.48" y="250.82" width="22.99" height="16.35" rx="3.75" ry="3.75"/><circle class="cls-13" cx="61.62" cy="227.08" r="6.38"/><circle class="cls-13" cx="65.24" cy="220.7" r="6.38"/><circle class="cls-13" cx="91.3" cy="224.77" r="6.38"/><path class="cls-14" d="M65.31,33.61c-5.36.24-18-.22-21.68,6.59-3.58,6.56,6,23.69,6.7,24.92l0,.07A31.16,31.16,0,0,0,52.62,59c-5.84-1.69-6.18-10.11-1-10.34,4.94-.21,5,6,5,6.59v0c1.23-.21,2-4,2.31-5.16,0,0,7.41.74,9.14-5.77,2.91-.11,7.18,10,7.08,13a37.52,37.52,0,0,0,2.13-13C77.31,37.43,71.62,33.32,65.31,33.61Z" transform="translate(-22.75 -23.82)"/><path class="cls-14" d="M45,38.38c-3.61,2.92-7.17,8.2-4.67,19C42.83,49.9,45,50.74,45,50.74S48.59,35.46,45,38.38Z" transform="translate(-22.75 -23.82)"/><path class="cls-14" d="M48.53,43.57c-3.61,2.92-7.17,8.2-4.67,19,2.52-7.51,4.67-6.67,4.67-6.67S52.14,40.65,48.53,43.57Z" transform="translate(-22.75 -23.82)"/><path class="cls-15" d="M74.3,50.92a8.86,8.86,0,0,0-.56,3.37A38.84,38.84,0,0,0,74,59.57c.33,2.81-2.82,10.22-9.33,8.76-2.33,4.51.32,8.7.53,10.37s.06,3.29-1.88,4.12c-1.48.65-6.18-1.91-10.45-4.59S45,72.94,45,72.94a20.06,20.06,0,0,0,2.7-3,38.15,38.15,0,0,0,2.65-4.79l0,.07A31.16,31.16,0,0,0,52.62,59c-5.84-1.69-6.18-10.11-1-10.34,4.94-.21,5,6,5,6.59v0c1.23-.21,2-4,2.31-5.16,0,0,7.41.74,9.14-5.77,2.91-.11,6.4,3.08,6.29,6.11A3.24,3.24,0,0,1,74.3,50.92Z" transform="translate(-22.75 -23.82)"/><ellipse class="cls-10" cx="42.56" cy="30.25" rx="0.9" ry="1.8"/><ellipse class="cls-10" cx="49.87" cy="30.02" rx="0.79" ry="1.69"/><path class="cls-10" d="M70.64,60a1.12,1.12,0,0,0,1-.5,2.81,2.81,0,0,0-.74-3.23.25.25,0,0,0-.34.37,2.34,2.34,0,0,1,.66,2.57c-.3.44-.92.27-1.39,0a.25.25,0,0,0-.22.46A2.48,2.48,0,0,0,70.64,60Z" transform="translate(-22.75 -23.82)"/><path class="cls-16" d="M64.64,68.33s-3-1-3.93-3.48c0,3.48,3.15,5.62,3.15,5.62Z" transform="translate(-22.75 -23.82)"/><path class="cls-10" d="M69,64.08a4.51,4.51,0,0,0,1.71-.35.25.25,0,0,0,.12-.34.26.26,0,0,0-.34-.12A3,3,0,0,1,66.6,62a.25.25,0,1,0-.45.23A3.11,3.11,0,0,0,69,64.08Z" transform="translate(-22.75 -23.82)"/><path class="cls-10" d="M67.17,50.74a.25.25,0,0,0,.14-.46c-.09-.06-2.27-1.49-4.16-.24a.25.25,0,1,0,.28.42c1.61-1.07,3.58.22,3.6.24A.25.25,0,0,0,67.17,50.74Z" transform="translate(-22.75 -23.82)"/><path class="cls-10" d="M71.73,50.39a.25.25,0,0,0,.19-.08h0A1.64,1.64,0,0,1,73.65,50a.25.25,0,1,0,.15-.48,2.13,2.13,0,0,0-2.27.43.25.25,0,0,0,.19.42Z" transform="translate(-22.75 -23.82)"/><path class="cls-17" d="M82.48,280.77,98.27,288s4.22-3.84,5.66-5.4c-2.39-3.48-1.08-5.16-.47-6.71,6.95,1.55,10.31-6.35,9.94-9.35a42.17,42.17,0,0,1-.24-5.63,9.28,9.28,0,0,1,.6-3.6c.59-1.91.11-9.1.11-9.1s-15.58-7.55-17.13-1-2.76,6.11-8.27,6.35c-3.12.24-4.55,4.68-4,7.43.47,2.27,3.23,4.31,6,5a39.36,39.36,0,0,1-5.15,11.5A21.42,21.42,0,0,1,82.48,280.77Z" transform="translate(-22.75 -23.82)"/><ellipse class="cls-10" cx="81.42" cy="236.82" rx="0.96" ry="1.92"/><ellipse class="cls-10" cx="89.21" cy="236.58" rx="0.84" ry="1.8"/><path class="cls-10" d="M109.84,266.93a2.64,2.64,0,0,1-1.12-.3.27.27,0,1,1,.23-.49c.5.24,1.16.42,1.48-.05a2.5,2.5,0,0,0-.7-2.74.27.27,0,0,1,.36-.4,3,3,0,0,1,.79,3.44A1.2,1.2,0,0,1,109.84,266.93Z" transform="translate(-22.75 -23.82)"/><path class="cls-18" d="M103.45,275.85s-3.24-1.08-4.19-3.71c0,3.71,3.36,6,3.36,6Z" transform="translate(-22.75 -23.82)"/><path class="cls-10" d="M108.15,271.32a3.32,3.32,0,0,1-3.09-2,.27.27,0,0,1,.48-.25,3.13,3.13,0,0,0,4.21,1.34.28.28,0,0,1,.36.13.27.27,0,0,1-.13.36A4.84,4.84,0,0,1,108.15,271.32Z" transform="translate(-22.75 -23.82)"/><path class="cls-10" d="M106.15,257.09a.27.27,0,0,1-.15,0s-2.12-1.39-3.84-.25a.27.27,0,0,1-.3-.45c2-1.34,4.34.19,4.44.25a.27.27,0,0,1-.15.49Z" transform="translate(-22.75 -23.82)"/><path class="cls-10" d="M111,256.71a.26.26,0,0,1-.18-.07.27.27,0,0,1,0-.38,2.28,2.28,0,0,1,2.42-.45.27.27,0,0,1,.18.34.28.28,0,0,1-.34.18,1.74,1.74,0,0,0-1.85.3A.27.27,0,0,1,111,256.71Z" transform="translate(-22.75 -23.82)"/><path class="cls-13" d="M81,245.84c8.41-12.8,21-4.27,29.7-4,3.81.1,8.24.68,7.24,4.36-1.18,4.37-3.32,8.56-4.12,10.66a17.75,17.75,0,0,0-1.43-7.45c-.36-1.08-2.18.8-5.28.93s-6.82-.21-6.94.39l-2.53,8.81A3.46,3.46,0,0,1,94.94,262h0s.12-7.31-5.39-7.07-5.15,9.23,1.08,11a33.07,33.07,0,0,1-2.4,6.59S76.5,252.76,81,245.84Z" transform="translate(-22.75 -23.82)"/><g class="cls-19"><path class="cls-20" d="M58.7,44.15h-.61A24.23,24.23,0,0,1,41.94,37l.74-.67a23.66,23.66,0,0,0,15.46,6.83c7.06.18,14.1-3.15,21-9.91l.7.71C72.92,40.72,65.82,44.15,58.7,44.15Z" transform="translate(-22.75 -23.82)"/><path class="cls-20" d="M64,42.71a11.07,11.07,0,0,1-2.81-.36C53,40.22,49.79,29.42,49.66,29l1-.28c0,.11,3.21,10.72,10.82,12.71,4.91,1.28,10.64-1.24,17-7.51l.7.71C73.66,40,68.57,42.71,64,42.71Z" transform="translate(-22.75 -23.82)"/></g><g class="cls-21"><path class="cls-22" d="M242.77,88.19c-.38,0-.77,0-1.16,0l.06-1c13.88.88,24.13-15.84,24.24-16l.86.52C266.35,72.35,256.62,88.19,242.77,88.19Z" transform="translate(-22.75 -23.82)"/></g><g class="cls-23"><path class="cls-24" d="M81.31,260.89l-1,0c0-.19,2.14-18.9,23.76-22.29l.15,1C83.23,242.86,81.32,260.71,81.31,260.89Z" transform="translate(-22.75 -23.82)"/><path class="cls-24" d="M83.2,261.82l-1,0c0-.2,2.14-19.83,23.76-23.22l.15,1C85.12,242.86,83.22,261.63,83.2,261.82Z" transform="translate(-22.75 -23.82)"/></g><rect class="cls-2" x="295.52" y="322.07" width="38.25" height="13.17" rx="6.19" ry="6.19" transform="translate(-150.05 413) rotate(-60)"/><path class="cls-2" d="M288.16,327.59,303,335.74a5.36,5.36,0,0,1,1.2,7.46l-1.45,2a5.36,5.36,0,0,1-7.46,1.2l-13-14.46Z" transform="translate(-22.75 -23.82)"/><circle class="cls-2" cx="280.19" cy="318.25" r="6.17"/><rect class="cls-2" x="382.87" y="304.4" width="13.17" height="38.25" rx="6.19" ry="6.19" transform="translate(-103.34 487.85) rotate(-61.53)"/><path class="cls-2" d="M384.12,356.74l17.74-8.44a5.36,5.36,0,0,0,1.82-7.33l-1.28-2.13a5.36,5.36,0,0,0-7.33-1.82l-14.14,13.33Z" transform="translate(-22.75 -23.82)"/><circle class="cls-2" cx="401.26" cy="335.42" r="5.65" transform="translate(-0.52 671.95) rotate(-83.44)"/><polygon class="cls-25" points="316.73 275.7 314.87 284.55 338.77 287.46 337.32 278.11 316.73 275.7"/><path class="cls-2" d="M325.67,260s.35-8.12,6.06-12.13c5.24-3.68,6-3.72,25-1.38,18.45,2.28,20.17,2,24.21,7.21,4.54,5.88,3.12,14,3.12,14s4.92.23,6,.74,1.79,1.47,1.52,4.41-.69,7.12-.87,7.95a3.26,3.26,0,0,1-3,2c-1.42-.09-5.51-.41-5.51-.41s-.41,7.76-1.88,11.21a14.73,14.73,0,0,1-10.38,9c-5.88,1.33-16.4-.64-23.84-1.47s-11.58-.46-16.91-4.27-5.7-8.77-6.11-11.07.83-11,.83-11a33.72,33.72,0,0,1-4.82-.55c-1.24-.37-1.84-1.52-1.84-3.45s.6-8.22,1.24-9.51S320.62,259.25,325.67,260Z" transform="translate(-22.75 -23.82)"/><polygon class="cls-26" points="297.64 236.07 301.53 220.84 303.33 221.11 302.92 236.22 297.64 236.07"/><circle class="cls-27" cx="302.29" cy="219.01" r="2.83"/><circle class="cls-27" cx="312.28" cy="208.26" r="3.26"/><circle class="cls-27" cx="356.29" cy="212.67" r="3.26"/><circle class="cls-27" cx="335.67" cy="205" r="4.93"/><circle class="cls-27" cx="318.18" cy="216.19" r="1.87"/><circle class="cls-27" cx="345.97" cy="220.84" r="1.87"/><polygon class="cls-26" points="361.52 241 364.07 227.58 365.63 227.58 365.96 244.3 361.31 243.89 361.52 241"/><circle class="cls-27" cx="365" cy="225.26" r="2.83"/><polygon class="cls-27" points="303.69 216.84 310.31 210.18 310.6 210.48 303.81 216.96 303.69 216.84"/><polygon class="cls-27" points="317.55 215.6 313.74 210.75 314.07 210.5 317.7 215.49 317.55 215.6"/><polygon class="cls-27" points="314.5 208.28 331.51 205.7 331.57 206.11 314.52 208.46 314.5 208.28"/><polygon class="cls-27" points="354.07 212.09 339.59 207.13 339.73 206.74 354.13 211.92 354.07 212.09"/><polygon class="cls-27" points="345.11 219.77 338.03 208.7 338.38 208.48 345.26 219.68 345.11 219.77"/><polygon class="cls-27" points="346.82 220.3 353.89 214 354.16 214.31 346.94 220.44 346.82 220.3"/><polygon class="cls-27" points="363.56 223.64 357.93 215.16 358.28 214.94 363.71 223.55 363.56 223.64"/><polygon class="cls-27" points="319.18 216.11 331.57 207.24 331.81 207.58 319.28 216.26 319.18 216.11"/><path class="cls-4" d="M352,262.9a10.54,10.54,0,0,1-5.2,9.1,16.06,16.06,0,0,0-8.58-2.32,17.79,17.79,0,0,0-4.37.54A10.55,10.55,0,1,1,352,262.9Z" transform="translate(-22.75 -23.82)"/><circle class="cls-28" cx="319.79" cy="238.61" r="7.03"/><path class="cls-4" d="M357.39,263.58a10.54,10.54,0,0,0,2.46,10.19,16.06,16.06,0,0,1,8.89.16,17.79,17.79,0,0,1,4.05,1.73,10.55,10.55,0,1,0-15.41-12.08Z" transform="translate(-22.75 -23.82)"/><circle class="cls-28" cx="366.66" cy="265.77" r="7.03" transform="translate(-13.45 520.1) rotate(-73.83)"/><path class="cls-25" d="M366.08,283s-1.4,13.62-15,12.17-11.9-14.79-11.9-14.79l1.53.15,0,.72a1.71,1.71,0,0,0,1.54,1.79l20.45,2a1.71,1.71,0,0,0,1.87-1.6l0-.56Z" transform="translate(-22.75 -23.82)"/><path class="cls-4" d="M364.51,282.85l0,.56a1.71,1.71,0,0,1-1.87,1.6l-20.45-2a1.71,1.71,0,0,1-1.54-1.79l0-.72Z" transform="translate(-22.75 -23.82)"/><path class="cls-2" d="M371.77,368.32H327.38c-8.47,0-14.92-8.06-13.56-16.94l4.94-32.3c1.08-7.06,6.82-12.25,13.56-12.25h34.5c6.73,0,12.48,5.19,13.56,12.25l4.94,32.3C386.68,360.26,380.23,368.32,371.77,368.32Z" transform="translate(-22.75 -23.82)"/><path class="cls-3" d="M272.3,297a1,1,0,0,1-.27,0,1,1,0,0,1-.7-1.23l1.39-5a1,1,0,0,1,1.93.54l-1.39,5A1,1,0,0,1,272.3,297Z" transform="translate(-22.75 -23.82)"/><path class="cls-3" d="M267.51,297.69a1,1,0,0,1-1-.85l-1.23-8.19a1,1,0,0,1,2-.3l1.23,8.19a1,1,0,0,1-.84,1.14Z" transform="translate(-22.75 -23.82)"/><path class="cls-3" d="M263,299.72a1,1,0,0,1-.77-.36l-2.44-3a1,1,0,1,1,1.54-1.27l2.44,3a1,1,0,0,1-.77,1.64Z" transform="translate(-22.75 -23.82)"/></g></svg>