<svg width="311" height="124" viewBox="0 0 311 124" fill="none" xmlns="http://www.w3.org/2000/svg">
<g filter="url(#filter0_d_789_4062)">
<path d="M136 8.929V30.07C136 32.792 133.793 34.999 131.071 34.999L114 35.07L104 46.07V35.07H96.929C94.207 35.07 92 32.863 92 30.141V9C92 6.278 94.207 4.071 96.929 4.071L131.07 4C133.793 4 136 6.207 136 8.929Z" fill="#EBBA16"/>
</g>
<path d="M114 15.4651H101C100.447 15.4651 100 15.0171 100 14.4651C100 13.9131 100.447 13.4651 101 13.4651H114C114.553 13.4651 115 13.9131 115 14.4651C115 15.0171 114.553 15.4651 114 15.4651Z" fill="white"/>
<path d="M127 21.4651H101C100.447 21.4651 100 21.0171 100 20.4651C100 19.9131 100.447 19.4651 101 19.4651H127C127.553 19.4651 128 19.9131 128 20.4651C128 21.0171 127.553 21.4651 127 21.4651Z" fill="white"/>
<path d="M127 27.4651H101C100.447 27.4651 100 27.0171 100 26.4651C100 25.9131 100.447 25.4651 101 25.4651H127C127.553 25.4651 128 25.9131 128 26.4651C128 27.0171 127.553 27.4651 127 27.4651Z" fill="white"/>
<path d="M241.219 16.8438L259.265 45.7188L300.172 57.75L305.721 59.69C305.989 59.4163 306.151 59.0373 306.139 58.6163V11.1169C306.139 10.2987 305.49 9.625 304.647 9.625H240.304C239.895 9.625 239.522 9.79344 239.251 10.0641L241.219 16.8438Z" fill="#FFCE7C"/>
<path d="M240.304 60.1321H304.672C305.081 60.1321 305.454 59.9637 305.721 59.69L303.781 57.7499L241.219 12.0312L239.252 10.0641C238.981 10.3348 238.812 10.7078 238.812 11.1168V58.6403C238.812 59.4584 239.486 60.1321 240.304 60.1321Z" fill="#E19747"/>
<path d="M241.219 57.7259V12.0312H303.757V57.7259H241.219Z" fill="#44911B"/>
<path d="M255.656 43.3474C260.234 39.5669 266.104 37.2969 272.5 37.2969C278.9 37.2969 284.769 39.5702 289.344 43.3555L292.953 57.75L289.344 72.1875H255.656L252.047 57.75L255.656 43.3474Z" fill="#8C5543"/>
<path d="M261.167 45.5744L264.439 38.5H267.688V72.1875L260.95 53.2503C260.637 52.4081 260.878 51.4697 261.504 50.8441L264.776 47.6437C265.161 47.2587 264.896 46.5609 264.319 46.5609H261.792C261.287 46.5609 260.95 46.0316 261.167 45.5744Z" fill="#6D4534"/>
<path d="M283.954 45.5744L280.681 38.5H277.313V72.1875L284.17 53.2503C284.483 52.4081 284.243 51.4697 283.617 50.8441L280.345 47.6437C279.96 47.2587 280.224 46.5609 280.802 46.5609H283.328C283.834 46.5609 284.17 46.0316 283.954 45.5744Z" fill="#6D4534"/>
<path d="M255.656 43.3125C249.809 48.1972 246.007 55.5603 246.031 63.7656V72.1875H255.656V43.3125Z" fill="#6D4534"/>
<path d="M289.344 43.3125V72.1875H298.969V69.8048C298.969 69.797 298.969 69.7891 298.969 69.7812L298.945 63.7416C298.945 55.5363 295.239 48.1731 289.344 43.3125Z" fill="#6D4534"/>
<path d="M277.433 40.4731H267.543V72.1875H277.433V40.4731Z" fill="#E6E6E6"/>
<path d="M272.5 44.9247C269.837 44.9247 267.688 42.711 267.688 39.9678V33.8078C267.688 31.0647 269.837 28.851 272.5 28.851C275.163 28.851 277.313 31.0647 277.313 33.8078V39.9678C277.289 42.711 275.14 44.9247 272.5 44.9247Z" fill="#B87A66"/>
<path d="M287.539 12.7291C286.817 11.4778 285.686 10.6116 284.435 10.1784C283.063 9.72125 281.86 8.80687 281.114 7.57969C280.08 5.91937 278.275 4.8125 276.205 4.8125C275.411 4.8125 274.641 4.98094 273.968 5.26969C273.029 5.67875 271.97 5.67875 271.032 5.26969C270.334 4.98094 269.588 4.8125 268.77 4.8125C266.725 4.8125 264.944 5.87125 263.934 7.48344C263.14 8.73469 261.936 9.69719 260.541 10.1784C259.217 10.6356 258.062 11.5741 257.34 12.8975C256.306 14.8225 256.522 17.1325 257.701 18.8409C258.135 19.4666 258.375 20.2125 258.375 20.9584V30.9925C258.375 33.2303 259.795 35.2034 261.912 35.9494L266.46 37.5134V19.6591C266.821 19.3222 267.11 18.9131 267.375 18.4559C267.784 17.7581 268.024 16.9881 268.096 16.2422C268.313 16.2662 268.554 16.2903 268.77 16.2903C270.19 16.2903 271.489 15.785 272.476 14.9187C273.486 15.7609 274.762 16.2903 276.181 16.2903C276.422 16.2903 276.639 16.2662 276.855 16.2422C276.951 17.0122 277.168 17.7581 277.577 18.4559C277.842 18.9131 278.155 19.2981 278.491 19.6591V37.5375L283.039 35.9734C285.157 35.2516 286.576 33.2544 286.576 31.0166V20.9825C286.576 20.2366 286.817 19.4906 287.25 18.865C288.501 17.0844 288.67 14.7022 287.539 12.7291Z" fill="#593B39"/>
<path d="M264.728 25.4822C264.728 27.7015 262.929 29.5006 260.709 29.5006C258.49 29.5006 256.691 27.7015 256.691 25.4822C256.691 23.2629 258.49 21.4637 260.709 21.4637C262.929 21.4637 264.728 23.2629 264.728 25.4822Z" fill="#BB806E"/>
<path d="M288.285 25.4822C288.285 27.7015 286.486 29.5006 284.266 29.5006C282.047 29.5006 280.248 27.7015 280.248 25.4822C280.248 23.2629 282.047 21.4637 284.266 21.4637C286.486 21.4637 288.285 23.2629 288.285 25.4822Z" fill="#BB806E"/>
<path d="M260.06 19.4337C260.104 14.9471 263.768 11.3093 268.265 11.3093H271.393C272.067 11.3093 272.644 11.7184 272.909 12.32C273.872 14.4615 276.013 15.809 278.347 15.809H281.788C283.713 15.9053 285.229 17.5175 285.181 19.4665L285.152 20.7127L284.411 32.6287C283.761 37.369 279.743 40.9062 274.954 40.9062H270.383C265.618 40.9062 261.576 37.369 260.926 32.6287L260.06 19.4337Z" fill="#C68D7B"/>
<path d="M263.673 19.3317C263.386 19.5555 263.334 19.9696 263.558 20.2567C263.782 20.5438 264.196 20.5951 264.483 20.3714L264.711 20.2219C264.877 20.1226 265.126 19.9891 265.445 19.863C266.084 19.6106 266.996 19.3906 268.092 19.5195C268.453 19.5621 268.781 19.3035 268.823 18.942C268.866 18.5805 268.607 18.2529 268.246 18.2104C266.887 18.0506 265.754 18.3239 264.961 18.637C264.564 18.7935 264.251 18.9609 264.033 19.0916C263.924 19.1571 263.838 19.2136 263.778 19.2555C263.748 19.2764 263.724 19.2937 263.706 19.3067L263.673 19.3317Z" fill="#593B39"/>
<path d="M281.466 20.2567C281.69 19.9696 281.638 19.5551 281.351 19.3314L281.347 19.3281L281.339 19.3227L281.318 19.3067C281.3 19.2937 281.276 19.2764 281.246 19.2555C281.186 19.2136 281.1 19.1571 280.991 19.0916C280.773 18.9609 280.46 18.7935 280.063 18.637C279.271 18.3239 278.137 18.0506 276.778 18.2104C276.417 18.2529 276.158 18.5805 276.201 18.942C276.243 19.3035 276.571 19.5621 276.932 19.5195C278.028 19.3906 278.94 19.6106 279.579 19.863C279.898 19.9891 280.147 20.1226 280.313 20.2219C280.396 20.2715 280.457 20.3124 280.496 20.3391C280.515 20.3525 280.529 20.3623 280.536 20.3679L280.543 20.3731C280.83 20.5949 281.243 20.5431 281.466 20.2567Z" fill="#593B39"/>
<path d="M263.308 24.7362C263.669 23.2443 265.016 22.1375 266.629 22.1375C268.289 22.1375 269.685 23.3165 269.997 24.9046C270.07 25.2656 269.805 25.5784 269.444 25.5784H263.958C263.525 25.5784 263.212 25.1693 263.308 24.7362Z" fill="white"/>
<path d="M281.716 24.7362C281.355 23.2443 280.007 22.1375 278.395 22.1375C276.711 22.1375 275.339 23.3165 275.026 24.9046C274.954 25.2656 275.219 25.5784 275.58 25.5784H281.066C281.499 25.5784 281.812 25.1693 281.716 24.7362Z" fill="white"/>
<path d="M264.944 25.001C264.944 23.7978 265.931 22.8113 267.134 22.8113C268.361 22.8113 269.324 23.7978 269.324 25.001C269.324 25.1935 269.3 25.386 269.252 25.5785H265.017C264.968 25.386 264.944 25.1935 264.944 25.001Z" fill="#7D4533"/>
<path d="M280.08 25.001C280.08 23.7978 279.093 22.8113 277.89 22.8113C276.663 22.8113 275.676 23.7978 275.7 25.001C275.7 25.1935 275.724 25.386 275.773 25.5785H280.008C280.056 25.386 280.08 25.1935 280.08 25.001Z" fill="#7D4533"/>
<path d="M267.134 23.7496C267.832 23.7496 268.385 24.3031 268.385 25.0009C268.385 25.2174 268.337 25.4099 268.241 25.5784H266.027C265.931 25.4099 265.883 25.2174 265.883 25.0009C265.883 24.3031 266.436 23.7496 267.134 23.7496Z" fill="black"/>
<path d="M277.89 23.7496C277.192 23.7496 276.639 24.3031 276.639 25.0009C276.639 25.2174 276.687 25.4099 276.783 25.5784H278.997C279.093 25.4099 279.141 25.2174 279.141 25.0009C279.141 24.3031 278.588 23.7496 277.89 23.7496Z" fill="black"/>
<path d="M266.773 24.1106C266.773 24.3232 266.601 24.4956 266.388 24.4956C266.176 24.4956 266.003 24.3232 266.003 24.1106C266.003 23.898 266.176 23.7256 266.388 23.7256C266.601 23.7256 266.773 23.898 266.773 24.1106Z" fill="white"/>
<path d="M277.577 24.1106C277.577 24.3232 277.405 24.4956 277.192 24.4956C276.98 24.4956 276.807 24.3232 276.807 24.1106C276.807 23.898 276.98 23.7256 277.192 23.7256C277.405 23.7256 277.577 23.898 277.577 24.1106Z" fill="white"/>
<path d="M271.754 24.8085L270.479 28.9232C270.214 29.7653 270.84 30.6316 271.73 30.6316H273.607C274.497 30.6316 275.123 29.7653 274.858 28.9232L273.583 24.8085C273.318 23.8941 272.043 23.8941 271.754 24.8085Z" fill="#AB6A55"/>
<path d="M272.5 32.9175C271.201 32.9175 269.974 32.6047 268.939 32.0512C268.578 31.8587 268.217 32.2678 268.434 32.6047C269.3 33.9281 270.792 34.8184 272.5 34.8184C274.209 34.8184 275.7 33.9281 276.567 32.6047C276.783 32.2678 276.398 31.8828 276.061 32.0512C275.027 32.6047 273.824 32.9175 272.5 32.9175Z" fill="#990838"/>
<g filter="url(#filter1_d_789_4062)">
<path d="M256.426 57.9906C256.426 56.6672 257.509 55.5844 258.833 55.5844C260.18 55.5844 261.239 56.6672 261.239 57.9906V63.5009H256.426V57.9906Z" fill="#BB806E"/>
<path d="M288.55 57.9906C288.55 56.6672 287.467 55.5844 286.143 55.5844C284.796 55.5844 283.737 56.6672 283.737 57.9906V63.5009H288.55V57.9906Z" fill="#BB806E"/>
</g>
<path d="M284.122 20.4291H275.772C275.05 20.4291 274.377 20.766 273.919 21.3194C273.631 21.6803 273.198 21.8969 272.692 21.8969C272.187 21.8969 271.754 21.6803 271.465 21.3194C271.008 20.766 270.334 20.4291 269.612 20.4291H261.239C260.781 20.4291 260.42 20.79 260.42 21.2472V21.7766C260.42 22.0413 260.541 22.2578 260.733 22.4022C260.829 22.4744 260.902 22.5947 260.902 22.715V25.3619C260.902 27.8885 262.947 29.9578 265.498 29.9578H267.206C269.733 29.9578 271.802 27.9125 271.802 25.3619V23.8941C271.826 23.4128 272.211 23.0519 272.692 23.0519C273.174 23.0519 273.559 23.4369 273.583 23.9181V23.9663C273.583 23.9663 273.583 23.9663 273.583 23.9903V25.3619C273.583 27.8885 275.628 29.9578 278.179 29.9578H279.887C282.414 29.9578 284.483 27.9125 284.483 25.3619V22.691C284.483 22.5706 284.531 22.4503 284.627 22.3781C284.82 22.2338 284.94 21.9931 284.94 21.7525V21.2472C284.94 20.79 284.579 20.4291 284.122 20.4291ZM270.984 25.1213C270.984 27.311 269.203 29.0916 267.014 29.0916H265.69C263.5 29.0916 261.72 27.311 261.72 25.1213V23.3888C261.72 22.2097 262.658 21.2713 263.837 21.2713H268.842C270.021 21.2713 270.96 22.2097 270.96 23.3888V25.1213H270.984ZM283.689 25.1213C283.689 27.311 281.908 29.0916 279.719 29.0916H278.395C276.205 29.0916 274.425 27.311 274.425 25.1213V23.3888C274.425 22.2097 275.363 21.2713 276.542 21.2713H281.571C282.75 21.2713 283.689 22.2097 283.689 23.3888V25.1213Z" fill="#433B6B"/>
<path d="M261.214 55.055V72.1875H286.095V52.4803C286.095 51.3975 285.229 50.5312 284.146 50.5312H265.762C263.236 50.5072 261.214 52.5525 261.214 55.055Z" fill="#F92F60"/>
<path d="M258.808 72.1875V52.6487C258.808 50.1462 260.829 48.1009 263.356 48.125H284.146C285.229 48.125 286.095 48.9912 286.095 50.074V51.5769H262.875V72.1875H258.808Z" fill="#433B6B"/>
<path d="M286.071 50.1943H263.115C261.96 50.1943 261.022 51.1328 261.022 52.2878C261.022 53.4428 261.96 54.3812 263.115 54.3812H286.071V50.1943Z" fill="#E6E6E6"/>
<path d="M268.313 61.3353C268.289 60.3487 267.447 59.5788 266.46 59.5788V59.5547H258.52C257.365 59.5547 256.426 60.4931 256.426 61.6481V70.0941C256.426 71.2491 257.365 72.1875 258.52 72.1875H266.46C267.447 72.1875 268.289 71.4175 268.313 70.4309C268.313 69.7813 268 69.2038 267.495 68.8669C268 68.5541 268.313 68.0006 268.313 67.375C268.313 66.7494 267.976 66.1959 267.495 65.8831C268 65.5703 268.313 65.0169 268.313 64.3913C268.313 63.7656 267.976 63.2122 267.495 62.8994C268 62.5625 268.337 61.985 268.313 61.3353Z" fill="#C68D7B"/>
<path d="M276.663 61.3353C276.687 60.3487 277.529 59.5788 278.516 59.5788V59.5547H286.456C287.611 59.5547 288.55 60.4931 288.55 61.6481V70.0941C288.55 71.2491 287.611 72.1875 286.456 72.1875H278.516C277.529 72.1875 276.687 71.4175 276.663 70.4309C276.663 69.7813 276.976 69.2038 277.481 68.8669C276.976 68.5541 276.663 68.0006 276.663 67.375C276.663 66.7494 277 66.1959 277.481 65.8831C276.976 65.5703 276.663 65.0169 276.663 64.3913C276.663 63.7656 277 63.2122 277.481 62.8994C276.976 62.5625 276.639 61.985 276.663 61.3353Z" fill="#C68D7B"/>
<path d="M165.406 62.2812L183.922 91.9062L225.891 104.25L231.584 106.24C231.859 105.96 232.026 105.571 232.013 105.139V56.4056C232.013 55.5662 231.347 54.875 230.483 54.875H164.468C164.049 54.875 163.666 55.0478 163.388 55.3255L165.406 62.2812Z" fill="#FFCE7C"/>
<path d="M164.468 106.694H230.507C230.927 106.694 231.31 106.521 231.584 106.24L229.594 104.25L165.406 57.3438L163.388 55.3256C163.11 55.6033 162.938 55.986 162.938 56.4056V105.163C162.938 106.003 163.629 106.694 164.468 106.694Z" fill="#E19747"/>
<path d="M165.406 104.225V57.3438H229.569V104.225H165.406Z" fill="#44911B"/>
<path d="M216.238 75.81C216.781 74.6744 217.077 73.4153 217.077 72.0822C217.077 70.3294 216.559 68.7 215.645 67.3422C214.732 65.9844 214.263 64.3797 214.263 62.7256V62.7009C214.263 57.9609 210.412 54.1097 205.672 54.1097C205.202 54.1097 204.758 53.8875 204.487 53.5172C202.956 51.3447 200.413 49.9375 197.549 49.9375C194.661 49.9375 192.118 51.3447 190.563 53.5172C190.291 53.9122 189.847 54.1344 189.378 54.1344C184.638 54.1344 180.787 57.9856 180.787 62.7256V62.7503C180.787 64.4044 180.317 65.9844 179.404 67.3669C178.515 68.7 177.972 70.3294 177.972 72.0822C177.972 73.4153 178.268 74.6744 178.812 75.81C178.984 76.1803 178.984 76.6247 178.812 76.995C178.268 78.1059 177.972 79.3403 177.972 80.6734C177.972 85.29 181.725 89.0425 186.341 89.0425H208.683C213.3 89.0425 217.052 85.29 217.052 80.6734C217.052 79.365 216.756 78.1059 216.213 76.995C216.065 76.6247 216.065 76.1803 216.238 75.81Z" fill="#FFF9BA"/>
<path d="M180.219 89.4733C184.916 85.5947 190.938 83.2656 197.5 83.2656C204.067 83.2656 210.088 85.598 214.781 89.4816L218.484 104.25L214.781 119.062H180.219L176.516 104.25L180.219 89.4733Z" fill="#8C5543"/>
<path d="M185.872 91.7581L189.23 84.5H192.563V119.062L185.65 99.6334C185.329 98.7694 185.576 97.8066 186.218 97.1647L189.575 93.8812C189.97 93.4862 189.699 92.7703 189.106 92.7703H186.514C185.996 92.7703 185.65 92.2272 185.872 91.7581Z" fill="#6D4534"/>
<path d="M209.251 91.7581L205.894 84.5H202.438V119.062L209.473 99.6334C209.794 98.7694 209.547 97.8066 208.906 97.1647L205.548 93.8812C205.153 93.4862 205.425 92.7703 206.017 92.7703H208.609C209.128 92.7703 209.473 92.2272 209.251 91.7581Z" fill="#6D4534"/>
<path d="M180.219 89.4375C174.22 94.4491 170.319 102.003 170.344 110.422V119.062H180.219V89.4375Z" fill="#6D4534"/>
<path d="M214.781 89.4375V119.062H224.656V116.618C224.656 116.61 224.656 116.602 224.656 116.594L224.632 110.397C224.632 101.979 220.83 94.4244 214.781 89.4375Z" fill="#6D4534"/>
<path d="M202.561 86.5244H192.414V119.063H202.561V86.5244Z" fill="#E6E6E6"/>
<path d="M197.5 91.0916C194.685 91.0916 192.414 88.8203 192.414 86.006V79.686C192.414 76.8716 194.685 74.6003 197.5 74.6003C200.314 74.6003 202.585 76.8716 202.585 79.686V86.006C202.561 88.8203 200.289 91.0916 197.5 91.0916Z" fill="#E4B29A"/>
<path d="M190.097 71.3909C190.097 73.6133 188.295 75.4149 186.073 75.4149C183.85 75.4149 182.049 73.6133 182.049 71.3909C182.049 69.1685 183.85 67.3668 186.073 67.3668C188.295 67.3668 190.097 69.1685 190.097 71.3909Z" fill="#E4B29A"/>
<path d="M212.803 71.3909C212.803 73.6133 211.002 75.4149 208.779 75.4149C206.557 75.4149 204.755 73.6133 204.755 71.3909C204.755 69.1685 206.557 67.3668 208.779 67.3668C211.002 67.3668 212.803 69.1685 212.803 71.3909Z" fill="#E4B29A"/>
<path d="M202.61 86.5491H192.439V119.112H202.61V86.5491Z" fill="#E6E6E6"/>
<path d="M197.5 91.1162C194.768 91.1162 192.562 88.845 192.562 86.0306V79.7106C192.562 76.8963 194.768 74.625 197.5 74.625C200.232 74.625 202.437 76.8963 202.437 79.7106V86.0306C202.437 88.845 200.232 91.1162 197.5 91.1162Z" fill="#E4B29A"/>
<path d="M207.721 63.9107H199.45C196.167 63.9107 193.106 62.2813 191.254 59.5904C190.933 59.146 190.266 59.2201 190.069 59.7385L189.871 60.2322C189.294 61.6519 187.655 62.8597 186.489 63.491C185.897 63.8119 184.465 64.7501 184.416 67.2188L184.761 75.4644C185.057 82.7719 190.686 87.6601 197.525 87.6601C204.363 87.6601 209.992 82.7719 210.288 75.4644L210.609 67.6138C210.609 64.1576 208.19 63.9107 207.721 63.9107Z" fill="#EEBFAA"/>
<path d="M190.736 68.7C192.192 68.7 193.402 69.7121 194.142 70.8478C193.542 71.0287 192.958 71.196 192.38 71.3614C191.224 71.6925 190.094 72.0162 188.909 72.4278L187.674 71.3168C187.181 70.8478 187.205 70.0084 187.773 69.6134C188.588 69.0209 189.699 68.7 190.736 68.7Z" fill="black"/>
<path d="M204.338 68.7C202.882 68.7 201.672 69.7121 200.932 70.8478C201.575 71.0444 202.203 71.2249 202.827 71.4045C203.926 71.7207 205.016 72.0341 206.165 72.4278L207.4 71.3168C207.893 70.8478 207.869 70.0084 207.301 69.6134C206.486 69.0209 205.375 68.7 204.338 68.7Z" fill="black"/>
<path d="M187.65 71.7119C188.045 70.1319 189.477 68.9716 191.18 68.9716C192.958 68.9716 194.414 70.2306 194.76 71.9094C194.834 72.255 194.538 72.6006 194.167 72.6006H188.366C187.897 72.6006 187.551 72.1562 187.65 71.7119Z" fill="white"/>
<path d="M207.4 71.7119C207.005 70.1319 205.573 68.9716 203.869 68.9716C202.117 68.9716 200.635 70.2306 200.314 71.9094C200.24 72.255 200.537 72.6006 200.907 72.6006H206.708C207.153 72.6006 207.523 72.1562 207.4 71.7119Z" fill="white"/>
<path d="M189.402 71.9835C189.402 70.6997 190.439 69.6628 191.723 69.6628C193.007 69.6628 194.044 70.6997 194.019 71.9835C194.019 72.2057 193.994 72.4032 193.945 72.6007H189.476C189.427 72.4032 189.402 72.2057 189.402 71.9835Z" fill="#7D4533"/>
<path d="M205.671 71.9835C205.671 70.6997 204.635 69.6628 203.351 69.6628C202.067 69.6628 201.006 70.6997 201.055 71.9835C201.055 72.2057 201.08 72.4032 201.129 72.6007H205.597C205.647 72.4032 205.671 72.2057 205.671 71.9835Z" fill="#7D4533"/>
<path d="M191.723 70.6503C192.464 70.6503 193.056 71.2428 193.056 71.9834C193.056 72.2056 192.982 72.4031 192.884 72.6006H190.538C190.44 72.4031 190.39 72.2056 190.39 71.9834C190.39 71.2428 190.983 70.6503 191.723 70.6503Z" fill="black"/>
<path d="M203.351 70.6503C202.61 70.6503 202.018 71.2428 202.018 71.9834C202.018 72.2056 202.067 72.4031 202.191 72.6006H204.536C204.635 72.4031 204.684 72.2056 204.684 71.9834C204.684 71.2428 204.092 70.6503 203.351 70.6503Z" fill="black"/>
<path d="M191.353 71.07C191.353 71.3017 191.165 71.4896 190.933 71.4896C190.702 71.4896 190.514 71.3017 190.514 71.07C190.514 70.8382 190.702 70.6503 190.933 70.6503C191.165 70.6503 191.353 70.8382 191.353 71.07Z" fill="white"/>
<path d="M202.981 71.07C202.981 71.3017 202.793 71.4896 202.561 71.4896C202.329 71.4896 202.141 71.3017 202.141 71.07C202.141 70.8382 202.329 70.6503 202.561 70.6503C202.793 70.6503 202.981 70.8382 202.981 71.07Z" fill="white"/>
<path d="M197.524 79.8093C196.167 79.8093 194.908 79.4884 193.821 78.9206C193.451 78.7231 193.081 79.1428 193.303 79.4884C194.192 80.8709 195.747 81.7843 197.524 81.7843C199.302 81.7843 200.857 80.8709 201.746 79.4884C201.968 79.1428 201.573 78.7231 201.228 78.9206C200.141 79.4884 198.882 79.8093 197.524 79.8093Z" fill="#990838"/>
<path d="M196.562 71.391L195.254 75.6619C194.982 76.526 195.649 77.4147 196.562 77.4147H198.512C199.426 77.4147 200.092 76.526 199.821 75.6619L198.488 71.391C198.191 70.4528 196.858 70.4528 196.562 71.391Z" fill="#D19479"/>
<path d="M206.387 67.2681C206.486 67.3422 206.61 67.3669 206.733 67.3669C206.98 67.3669 207.202 67.2434 207.326 66.9965C207.523 66.6509 207.424 66.2312 207.079 66.0337C207.005 65.9844 204.733 64.7253 202.141 65.1944C201.746 65.2684 201.499 65.6387 201.573 66.009C201.647 66.404 202.018 66.6509 202.388 66.5769C204.308 66.2381 206.041 67.0976 206.342 67.2465C206.37 67.2604 206.387 67.2681 206.387 67.2681Z" fill="#A56953"/>
<path d="M187.699 67.0212C187.847 67.2434 188.069 67.3669 188.316 67.3669C188.44 67.3669 188.563 67.3422 188.637 67.2928C188.662 67.2681 190.538 66.2312 192.637 66.6015C193.007 66.6756 193.377 66.404 193.451 66.0337C193.525 65.6634 193.254 65.2931 192.883 65.219C190.398 64.7457 188.231 65.9061 187.969 66.0462C187.958 66.0522 187.946 66.0584 187.946 66.0584C187.625 66.2559 187.502 66.6756 187.699 67.0212Z" fill="#A56953"/>
<path d="M209.276 67.4656H200.709C199.969 67.4656 199.278 67.8112 198.808 68.379C198.512 68.7493 198.068 68.9715 197.549 68.9715C197.031 68.9715 196.587 68.7493 196.29 68.379C195.821 67.8112 195.13 67.4656 194.389 67.4656H185.773C185.304 67.4656 184.934 67.8359 184.934 68.305V68.8481C184.934 69.1196 185.058 69.3418 185.255 69.49C185.354 69.564 185.428 69.6875 185.428 69.8109V72.5265C185.428 75.1187 187.526 77.2418 190.143 77.2418H191.896C194.488 77.2418 196.611 75.1434 196.611 72.5265V71.0206C196.636 70.5268 197.031 70.1565 197.525 70.1565C198.018 70.1565 198.413 70.5515 198.438 71.0453V71.0946C198.438 71.0946 198.438 71.0946 198.438 71.1193V72.5265C198.438 75.1434 200.561 77.2418 203.153 77.2418H204.906C207.523 77.2418 209.622 75.1187 209.622 72.5265V69.7862C209.622 69.6628 209.671 69.5393 209.77 69.4653C209.967 69.3171 210.091 69.0703 210.091 68.8234V68.2803C210.115 67.8359 209.745 67.4656 209.276 67.4656ZM195.797 72.2796C195.797 74.5262 193.97 76.3531 191.723 76.3531H190.365C188.119 76.3531 186.292 74.5262 186.292 72.2796V70.5021C186.292 69.2925 187.255 68.3296 188.464 68.3296H193.599C194.809 68.3296 195.772 69.2925 195.772 70.5021V72.2796H195.797ZM208.832 72.2796C208.832 74.5262 207.005 76.3531 204.758 76.3531H203.4C201.154 76.3531 199.327 74.5262 199.327 72.2796V70.5021C199.327 69.2925 200.29 68.3296 201.499 68.3296H206.659C207.869 68.3296 208.832 69.2925 208.832 70.5021V72.2796Z" fill="#433B6B"/>
<path d="M181.033 104.522C181.033 103.164 182.144 102.053 183.502 102.053C184.86 102.053 185.971 103.164 185.971 104.522V110.175H181.033V104.522Z" fill="#E4B29A"/>
<path d="M213.991 104.522C213.991 103.164 212.88 102.053 211.522 102.053C210.164 102.053 209.053 103.164 209.053 104.522V110.175H213.991V104.522Z" fill="#E4B29A"/>
<path d="M185.921 101.485V119.062H211.448V98.8434C211.448 97.7325 210.56 96.8437 209.449 96.8437H190.587C187.995 96.819 185.921 98.9175 185.921 101.485Z" fill="#F92F60"/>
<path d="M183.453 119.062V99.0162C183.453 96.4487 185.526 94.3503 188.119 94.375H209.449C210.56 94.375 211.448 95.2637 211.448 96.3747V97.9165H187.625V119.062H183.453Z" fill="#433B6B"/>
<path d="M211.424 96.4982H187.872C186.687 96.4982 185.724 97.461 185.724 98.646C185.724 99.831 186.687 100.794 187.872 100.794H211.424V96.4982Z" fill="#E6E6E6"/>
<path d="M193.204 107.928C193.18 106.916 192.316 106.126 191.303 106.126V106.102H183.157C181.972 106.102 181.009 107.064 181.009 108.249V116.915C181.009 118.1 181.972 119.062 183.157 119.062H191.303C192.316 119.062 193.18 118.273 193.204 117.26C193.204 116.594 192.883 116.001 192.365 115.656C192.883 115.335 193.204 114.767 193.204 114.125C193.204 113.483 192.859 112.915 192.365 112.594C192.883 112.273 193.204 111.706 193.204 111.064C193.204 110.422 192.859 109.854 192.365 109.533C192.883 109.188 193.229 108.595 193.204 107.928Z" fill="#EEBFAA"/>
<path d="M201.771 107.928C201.796 106.916 202.66 106.126 203.672 106.126V106.102H211.819C213.004 106.102 213.967 107.064 213.967 108.249V116.915C213.967 118.1 213.004 119.062 211.819 119.062H203.672C202.66 119.062 201.796 118.273 201.771 117.26C201.771 116.594 202.092 116.001 202.61 115.656C202.092 115.335 201.771 114.767 201.771 114.125C201.771 113.483 202.117 112.915 202.61 112.594C202.092 112.273 201.771 111.706 201.771 111.064C201.771 110.422 202.117 109.854 202.61 109.533C202.092 109.188 201.746 108.595 201.771 107.928Z" fill="#EEBFAA"/>
<g filter="url(#filter2_d_789_4062)">
<path d="M208 6.81188V18.8724C208 20.4252 209.254 21.6842 210.801 21.6842L220.5 21.7247L226.182 28V21.7247H230.199C231.746 21.7247 233 20.4657 233 18.9129V6.85239C233 5.29955 231.746 4.0405 230.199 4.0405L210.801 4C209.254 4 208 5.25904 208 6.81188Z" fill="#FC852E"/>
</g>
<path d="M220.467 11H213.533C213.238 11 213 10.552 213 10C213 9.448 213.238 9 213.533 9H220.467C220.762 9 221 9.448 221 10C221 10.552 220.762 11 220.467 11Z" fill="white"/>
<path d="M228.429 14H213.571C213.255 14 213 13.776 213 13.5C213 13.224 213.255 13 213.571 13H228.429C228.745 13 229 13.224 229 13.5C229 13.776 228.745 14 228.429 14Z" fill="white"/>
<path d="M228.429 17H213.571C213.255 17 213 16.776 213 16.5C213 16.224 213.255 16 213.571 16H228.429C228.745 16 229 16.224 229 16.5C229 16.776 228.745 17 228.429 17Z" fill="white"/>
<g filter="url(#filter3_d_789_4062)">
<path d="M133 56.8119V68.8724C133 70.4252 134.254 71.6842 135.801 71.6842L145.5 71.7247L151.182 78V71.7247H155.199C156.746 71.7247 158 70.4657 158 68.9129V56.8524C158 55.2995 156.746 54.0405 155.199 54.0405L135.801 54C134.254 54 133 55.259 133 56.8119Z" fill="#FC852E"/>
</g>
<path d="M145.467 61H138.533C138.238 61 138 60.552 138 60C138 59.448 138.238 59 138.533 59H145.467C145.762 59 146 59.448 146 60C146 60.552 145.762 61 145.467 61Z" fill="white"/>
<path d="M153.429 64H138.571C138.255 64 138 63.776 138 63.5C138 63.224 138.255 63 138.571 63H153.429C153.745 63 154 63.224 154 63.5C154 63.776 153.745 64 153.429 64Z" fill="white"/>
<path d="M153.429 67H138.571C138.255 67 138 66.776 138 66.5C138 66.224 138.255 66 138.571 66H153.429C153.745 66 154 66.224 154 66.5C154 66.776 153.745 67 153.429 67Z" fill="white"/>
<g filter="url(#filter4_d_789_4062)">
<path d="M50.6591 63.4691L62.1893 64.9156L62.1812 64.9727C61.7894 67.7062 59.256 69.6046 56.5225 69.2129L54.9179 68.983C52.2431 68.5997 50.3576 66.1543 50.6591 63.4691V63.4691Z" fill="url(#paint0_linear_789_4062)"/>
<path d="M37.9595 68.7887C38.4197 66.2645 40.7545 64.5266 43.3046 64.8102L68.7397 67.6384C71.291 67.9221 73.1874 70.1324 73.0801 72.6973L72.2582 92.3365C72.1426 95.0994 69.7585 97.2154 67.0015 97.0023L38.6913 94.8139C35.8033 94.5906 33.743 91.9175 34.2625 89.0679L37.9595 68.7887Z" fill="url(#paint1_linear_789_4062)"/>
<path d="M34.4019 70.3334L37.8339 69.7915L36.7501 75.933H34.4019V70.3334Z" fill="#F27F2E"/>
<path d="M73.0576 72.8622L75.9477 74.1266L73.9607 78.8231L72.877 78.4618L73.0576 72.8622Z" fill="#F37F2F"/>
<path d="M90.2174 75.7522C86.0629 79.9068 78.6939 77.2437 75.3515 75.2103C75.3515 75.58 74.6759 76.3586 74.1411 78.2811C83.3394 82.7175 89.8353 80.0781 91.6625 77.9831C91.3505 77.5518 90.9661 76.9353 90.2174 75.7522Z" fill="url(#paint2_linear_789_4062)"/>
<path d="M34.6246 75.4105C28.207 74.0525 22.9754 81.0407 21.1086 84.9836C20.8819 84.6373 19.7751 84.32 18.0981 82.8454C23.9465 73.0806 31.6379 70.8567 34.6246 71.7048C34.5985 72.299 34.5967 73.8457 34.6246 75.4105Z" fill="url(#paint3_linear_789_4062)"/>
<path d="M93.9812 74.918C94.611 76.7356 97.3409 77.4401 100.079 76.4915C101.293 76.0708 102.305 75.3955 103 74.6157C102.956 76.3978 102.2 78.1577 100.76 79.4326C98.0104 81.8668 93.8081 81.6111 91.3738 78.8614C88.9396 76.1118 89.1954 71.9094 91.945 69.4752C94.5058 67.2082 98.3265 67.2742 100.806 69.515C99.8811 69.4268 98.8401 69.5484 97.798 69.9094C95.0603 70.858 93.3515 73.1004 93.9812 74.918Z" fill="url(#paint4_linear_789_4062)"/>
<path d="M17.9838 85.9724C16.2473 85.1449 13.8291 86.5943 12.5826 89.2099C12.0298 90.37 11.8003 91.5647 11.8676 92.6072C10.6291 91.3249 9.90662 89.551 10.0097 87.6305C10.2066 83.9634 13.339 81.1503 17.006 81.3471C20.6731 81.544 23.4862 84.6764 23.2893 88.3434C23.106 91.7585 20.3767 94.433 17.0406 94.6254C17.7524 94.029 18.3966 93.2023 18.8711 92.2067C20.1175 89.5912 19.7203 86.8 17.9838 85.9724Z" fill="url(#paint5_linear_789_4062)"/>
<path d="M41.4455 38.4437C42.0305 33.3517 46.6325 29.698 51.7246 30.2829L68.9228 32.2584C74.0148 32.8433 77.6685 37.4454 77.0836 42.5374L75.3949 57.2385C74.7792 62.5986 69.9349 66.4446 64.5749 65.8289L48.3472 63.9648C42.9872 63.3491 39.1412 58.5049 39.7569 53.1448L41.4455 38.4437Z" fill="url(#paint6_linear_789_4062)"/>
<path d="M40.6343 29.5162C40.6833 29.3159 40.8597 29.1728 41.0658 29.1663C41.3286 29.158 41.5446 29.3716 41.5393 29.6345L41.3339 39.7836C41.3279 40.0774 41.0656 40.2995 40.7748 40.257L38.6367 39.9441C38.3518 39.9024 38.1646 39.6246 38.2329 39.3449L40.6343 29.5162Z" fill="#D9D9D9"/>
<path d="M36.6686 41.1248C36.7774 40.0512 37.7359 39.2691 38.8094 39.3778L42.6423 39.7661L41.7348 48.723L37.902 48.3347C36.8284 48.2259 36.0463 47.2675 36.1551 46.1939L36.6686 41.1248Z" fill="#F56F31"/>
<path d="M79.5716 33.846C79.5674 33.6441 79.4304 33.4693 79.2353 33.4171C78.9783 33.3483 78.7175 33.5144 78.6712 33.7764L76.6693 45.1045C76.6186 45.3914 76.8286 45.6585 77.1193 45.677L79.2888 45.8148C79.5742 45.8329 79.8141 45.6031 79.8082 45.3172L79.5716 33.846Z" fill="#D9D9D9"/>
<path d="M81.5815 46.6341C81.6976 45.5613 80.922 44.5975 79.8492 44.4815L76.0191 44.0671L75.0507 53.0176L78.8809 53.432C79.9537 53.548 80.9174 52.7725 81.0335 51.6997L81.5815 46.6341Z" fill="#F3792F"/>
<path d="M57.4702 42.202C57.1867 44.2051 55.9782 45.8556 54.3223 46.8044C53.2153 46.2612 51.7813 45.7016 50.3697 45.5019C48.9581 45.3021 47.4251 45.4416 46.2108 45.6563C44.8833 44.2852 44.1803 42.3642 44.4638 40.3611C44.9587 36.8649 48.2714 34.4428 51.863 34.9511C55.4546 35.4595 57.965 38.7058 57.4702 42.202Z" fill="white"/>
<path d="M73.3669 44.452C73.0834 46.4551 71.8749 48.1056 70.219 49.0544C69.112 48.5111 67.678 47.9516 66.2664 47.7518C64.8548 47.552 63.3218 47.6916 62.1075 47.9063C60.78 46.5352 60.077 44.6142 60.3605 42.6111C60.8554 39.1149 64.1681 36.6928 67.7597 37.2011C71.3513 37.7095 73.8617 40.9558 73.3669 44.452Z" fill="white"/>
<path d="M51.0537 45.2884C53.4627 45.6294 55.6836 44.0121 56.0143 41.6761C56.3449 39.3401 54.66 37.17 52.251 36.829C49.842 36.488 47.6211 38.1053 47.2905 40.4414C46.9598 42.7774 48.6447 44.9475 51.0537 45.2884Z" fill="#28282A"/>
<path d="M65.5934 47.3464C68.0024 47.6873 70.2233 46.07 70.5539 43.734C70.8846 41.398 69.1997 39.2279 66.7907 38.8869C64.3817 38.546 62.1608 40.1633 61.8301 42.4993C61.4995 44.8353 63.1844 47.0054 65.5934 47.3464Z" fill="#28282A"/>
<g filter="url(#filter5_i_789_4062)">
<path d="M56.9338 60.9712C48.7346 60.1473 49.5585 51.948 49.5585 51.948L65.957 53.5959C65.957 53.5959 65.1331 61.7951 56.9338 60.9712Z" fill="#A30A0A"/>
</g>
<path d="M50.4237 52.4951L50.4694 52.0396L65.0459 53.5043L65.0001 53.9598C64.9496 54.463 64.5007 54.8299 63.9976 54.7793L51.2431 53.4976C50.74 53.4471 50.3731 52.9982 50.4237 52.4951Z" fill="white"/>
<path d="M47.1096 24.4914C48.1886 24.4877 49.0603 23.6099 49.0565 22.5308C49.0527 21.4518 48.1749 20.5801 47.0959 20.5839C46.0168 20.5876 45.1451 21.4654 45.1489 22.5445C45.1527 23.6235 46.0305 24.4952 47.1096 24.4914Z" fill="#F37F2F"/>
<circle cx="61.2608" cy="20.5342" r="2.93071" transform="rotate(-0.200431 61.2608 20.5342)" fill="#F27F2E"/>
<path d="M47.1563 22.7784L41.0216 28.6834L46.7522 22.709C46.9299 22.4341 47.1992 22.7042 47.1563 22.7784Z" fill="#F27F2D"/>
<path d="M47.1563 22.7784L41.0216 28.6834L46.7522 22.709C46.9299 22.4341 47.1992 22.7042 47.1563 22.7784Z" fill="#F27F2D"/>
<path d="M73.3062 27.0187C72.3304 26.7158 71.785 25.6792 72.0879 24.7035C72.3908 23.7277 73.4274 23.1823 74.4032 23.4852C75.3789 23.7881 75.9244 24.8247 75.6214 25.8004C75.3185 26.7762 74.282 27.3216 73.3062 27.0187Z" fill="#F37F2F"/>
<path d="M62.3268 21.4973L74.6272 25.5627L62.8337 21.1341C62.4085 20.8733 62.2191 21.4237 62.3268 21.4973Z" fill="#F27F2D"/>
<path d="M62.3268 21.4973L74.6272 25.5627L62.8337 21.1341C62.4085 20.8733 62.2191 21.4237 62.3268 21.4973Z" fill="#F27F2D"/>
<path d="M61.2962 20.6583L67.6442 30.2811L61.569 20.229C61.3522 19.7093 61.2414 20.5148 61.2962 20.6583Z" fill="#F27F2D"/>
<path d="M61.2962 20.6583L67.6442 30.2811L61.569 20.229C61.3522 19.7093 61.2414 20.5148 61.2962 20.6583Z" fill="#F27F2D"/>
<path d="M61.2626 20.4785L50.541 27.8986L60.6972 20.2165C61.0398 19.8314 61.3477 20.3728 61.2626 20.4785Z" fill="#F27F2D"/>
<path d="M61.2626 20.4785L50.541 27.8986L60.6972 20.2165C61.0398 19.8314 61.3477 20.3728 61.2626 20.4785Z" fill="#F27F2D"/>
<path d="M59.4729 21.2535L46.6155 22.8389L59.0467 20.7982C59.5146 20.6255 59.593 21.2023 59.4729 21.2535Z" fill="#F27F2D"/>
<path d="M59.4729 21.2535L46.6155 22.8389L59.0467 20.7982C59.5146 20.6255 59.593 21.2023 59.4729 21.2535Z" fill="#F27F2D"/>
<path d="M46.3865 21.3675L51.2781 28.347L46.2266 21.743C45.9756 21.5217 46.3177 21.3127 46.3865 21.3675Z" fill="#F27F2D"/>
<path d="M46.3865 21.3675L51.2781 28.347L46.2266 21.743C45.9756 21.5217 46.3177 21.3127 46.3865 21.3675Z" fill="#F27F2D"/>
<path d="M72.769 25.491L67.6453 30.2811L73.7639 25.4611C73.8415 25.3998 73.6824 25.3561 73.4109 25.3628C73.1369 25.3698 72.8541 25.4249 72.7764 25.4858C72.7739 25.487 72.7715 25.4893 72.769 25.491Z" fill="#F27F2D"/>
<path d="M74.5352 25.5303L78.8876 32.684L74.1297 25.8607C74.0329 25.7143 74.0443 25.52 74.1533 25.4256C74.2636 25.3308 74.4304 25.3731 74.5266 25.518C74.5289 25.5206 74.5323 25.5262 74.5352 25.5303Z" fill="#F27F2D"/>
<path d="M40.459 30.7316C39.5573 30.4516 39.0532 29.4937 39.3332 28.592C39.6131 27.6903 40.571 27.1862 41.4728 27.4662C42.3745 27.7461 42.8785 28.704 42.5986 29.6057C42.3187 30.5075 41.3607 31.0115 40.459 30.7316Z" fill="#F37B2F"/>
<path d="M50.3281 28.4282C49.735 28.2441 49.4035 27.614 49.5876 27.0209C49.7717 26.4278 50.4018 26.0962 50.9949 26.2804C51.588 26.4645 51.9196 27.0946 51.7355 27.6877C51.5513 28.2808 50.9213 28.6123 50.3281 28.4282Z" fill="#F37B2F"/>
<path d="M67.2559 31.2997C66.6628 31.1155 66.3312 30.4855 66.5154 29.8924C66.6995 29.2993 67.3296 28.9677 67.9227 29.1518C68.5158 29.336 68.8473 29.966 68.6632 30.5591C68.4791 31.1523 67.849 31.4838 67.2559 31.2997Z" fill="#F37B2F"/>
<path d="M79.139 34.6368C80.0832 34.6335 80.8459 33.8654 80.8426 32.9212C80.8393 31.9771 80.0712 31.2143 79.127 31.2177C78.1829 31.221 77.4202 31.989 77.4235 32.9332C77.4268 33.8774 78.1948 34.6401 79.139 34.6368Z" fill="#F37B2F"/>
</g>
<defs>
<filter id="filter0_d_789_4062" x="88" y="4" width="52" height="50.0699" filterUnits="userSpaceOnUse" color-interpolation-filters="sRGB">
<feFlood flood-opacity="0" result="BackgroundImageFix"/>
<feColorMatrix in="SourceAlpha" type="matrix" values="0 0 0 0 0 0 0 0 0 0 0 0 0 0 0 0 0 0 127 0" result="hardAlpha"/>
<feOffset dy="4"/>
<feGaussianBlur stdDeviation="2"/>
<feComposite in2="hardAlpha" operator="out"/>
<feColorMatrix type="matrix" values="0 0 0 0 0.156863 0 0 0 0 0.156863 0 0 0 0 0.164706 0 0 0 0.25 0"/>
<feBlend mode="normal" in2="BackgroundImageFix" result="effect1_dropShadow_789_4062"/>
<feBlend mode="normal" in="SourceGraphic" in2="effect1_dropShadow_789_4062" result="shape"/>
</filter>
<filter id="filter1_d_789_4062" x="252.426" y="55.5844" width="40.1235" height="15.9165" filterUnits="userSpaceOnUse" color-interpolation-filters="sRGB">
<feFlood flood-opacity="0" result="BackgroundImageFix"/>
<feColorMatrix in="SourceAlpha" type="matrix" values="0 0 0 0 0 0 0 0 0 0 0 0 0 0 0 0 0 0 127 0" result="hardAlpha"/>
<feOffset dy="4"/>
<feGaussianBlur stdDeviation="2"/>
<feColorMatrix type="matrix" values="0 0 0 0 0 0 0 0 0 0 0 0 0 0 0 0 0 0 0.25 0"/>
<feBlend mode="normal" in2="BackgroundImageFix" result="effect1_dropShadow_789_4062"/>
<feBlend mode="normal" in="SourceGraphic" in2="effect1_dropShadow_789_4062" result="shape"/>
</filter>
<filter id="filter2_d_789_4062" x="204" y="4" width="33" height="32" filterUnits="userSpaceOnUse" color-interpolation-filters="sRGB">
<feFlood flood-opacity="0" result="BackgroundImageFix"/>
<feColorMatrix in="SourceAlpha" type="matrix" values="0 0 0 0 0 0 0 0 0 0 0 0 0 0 0 0 0 0 127 0" result="hardAlpha"/>
<feOffset dy="4"/>
<feGaussianBlur stdDeviation="2"/>
<feComposite in2="hardAlpha" operator="out"/>
<feColorMatrix type="matrix" values="0 0 0 0 0.156863 0 0 0 0 0.156863 0 0 0 0 0.164706 0 0 0 0.25 0"/>
<feBlend mode="normal" in2="BackgroundImageFix" result="effect1_dropShadow_789_4062"/>
<feBlend mode="normal" in="SourceGraphic" in2="effect1_dropShadow_789_4062" result="shape"/>
</filter>
<filter id="filter3_d_789_4062" x="129" y="54" width="33" height="32" filterUnits="userSpaceOnUse" color-interpolation-filters="sRGB">
<feFlood flood-opacity="0" result="BackgroundImageFix"/>
<feColorMatrix in="SourceAlpha" type="matrix" values="0 0 0 0 0 0 0 0 0 0 0 0 0 0 0 0 0 0 127 0" result="hardAlpha"/>
<feOffset dy="4"/>
<feGaussianBlur stdDeviation="2"/>
<feComposite in2="hardAlpha" operator="out"/>
<feColorMatrix type="matrix" values="0 0 0 0 0.156863 0 0 0 0 0.156863 0 0 0 0 0.164706 0 0 0 0.25 0"/>
<feBlend mode="normal" in2="BackgroundImageFix" result="effect1_dropShadow_789_4062"/>
<feBlend mode="normal" in="SourceGraphic" in2="effect1_dropShadow_789_4062" result="shape"/>
</filter>
<filter id="filter4_d_789_4062" x="0" y="11.6035" width="113" height="99.4136" filterUnits="userSpaceOnUse" color-interpolation-filters="sRGB">
<feFlood flood-opacity="0" result="BackgroundImageFix"/>
<feColorMatrix in="SourceAlpha" type="matrix" values="0 0 0 0 0 0 0 0 0 0 0 0 0 0 0 0 0 0 127 0" result="hardAlpha"/>
<feOffset dy="4"/>
<feGaussianBlur stdDeviation="5"/>
<feComposite in2="hardAlpha" operator="out"/>
<feColorMatrix type="matrix" values="0 0 0 0 0 0 0 0 0 0 0 0 0 0 0 0 0 0 0.25 0"/>
<feBlend mode="normal" in2="BackgroundImageFix" result="effect1_dropShadow_789_4062"/>
<feBlend mode="normal" in="SourceGraphic" in2="effect1_dropShadow_789_4062" result="shape"/>
</filter>
<filter id="filter5_i_789_4062" x="49.5356" y="51.948" width="16.4214" height="13.0814" filterUnits="userSpaceOnUse" color-interpolation-filters="sRGB">
<feFlood flood-opacity="0" result="BackgroundImageFix"/>
<feBlend mode="normal" in="SourceGraphic" in2="BackgroundImageFix" result="shape"/>
<feColorMatrix in="SourceAlpha" type="matrix" values="0 0 0 0 0 0 0 0 0 0 0 0 0 0 0 0 0 0 127 0" result="hardAlpha"/>
<feOffset dy="4"/>
<feGaussianBlur stdDeviation="2"/>
<feComposite in2="hardAlpha" operator="arithmetic" k2="-1" k3="1"/>
<feColorMatrix type="matrix" values="0 0 0 0 0 0 0 0 0 0 0 0 0 0 0 0 0 0 0.25 0"/>
<feBlend mode="normal" in2="shape" result="effect1_innerShadow_789_4062"/>
</filter>
<linearGradient id="paint0_linear_789_4062" x1="50.2383" y1="70.0415" x2="66.6138" y2="98.1647" gradientUnits="userSpaceOnUse">
<stop/>
<stop offset="1" stop-color="#F27F2E" stop-opacity="0"/>
</linearGradient>
<linearGradient id="paint1_linear_789_4062" x1="40.5442" y1="64.0112" x2="76.4901" y2="140.238" gradientUnits="userSpaceOnUse">
<stop stop-color="#F27F2E"/>
<stop offset="1" stop-color="#FF3838"/>
</linearGradient>
<linearGradient id="paint2_linear_789_4062" x1="80.4972" y1="72.5335" x2="67.4228" y2="95.6099" gradientUnits="userSpaceOnUse">
<stop stop-color="#BFBFBF"/>
<stop offset="1"/>
</linearGradient>
<linearGradient id="paint3_linear_789_4062" x1="23.6368" y1="82.2523" x2="11.5678" y2="58.2224" gradientUnits="userSpaceOnUse">
<stop stop-color="#BFBFBF"/>
<stop offset="1"/>
</linearGradient>
<linearGradient id="paint4_linear_789_4062" x1="101.3" y1="70.0738" x2="91.3738" y2="78.8614" gradientUnits="userSpaceOnUse">
<stop stop-color="#F27F2E"/>
<stop offset="1" stop-color="#FF3838"/>
</linearGradient>
<linearGradient id="paint5_linear_789_4062" x1="16.2953" y1="94.5854" x2="17.006" y2="81.3471" gradientUnits="userSpaceOnUse">
<stop stop-color="#F27F2E"/>
<stop offset="1" stop-color="#FF3838"/>
</linearGradient>
<linearGradient id="paint6_linear_789_4062" x1="47.5512" y1="29.216" x2="25.8371" y2="84.4149" gradientUnits="userSpaceOnUse">
<stop stop-color="#F27F2E"/>
<stop offset="1" stop-color="#FF3838"/>
</linearGradient>
</defs>
</svg>
