<svg id="Слой_2" data-name="Слой 2" xmlns="http://www.w3.org/2000/svg" xmlns:xlink="http://www.w3.org/1999/xlink" viewBox="0 0 391.34 353.08"><defs><style>.cls-1,.cls-2,.cls-24,.cls-34,.cls-38,.cls-9{fill:none;}.cls-2,.cls-9{stroke:#f6eeca;}.cls-2,.cls-24,.cls-34,.cls-9{stroke-linecap:round;}.cls-19,.cls-2,.cls-24,.cls-31,.cls-34,.cls-38,.cls-9{stroke-miterlimit:10;}.cls-2{stroke-width:2.9px;stroke-dasharray:12.7;}.cls-3{fill:#f3792f;}.cls-13,.cls-4{fill:#fff;}.cls-5{fill:#a20a0a;}.cls-6{fill:#d9d9d9;}.cls-7{fill:#f2792e;}.cls-8{fill:#28282a;}.cls-9{stroke-dasharray:8.76;}.cls-10{opacity:0.7;}.cls-11,.cls-32{fill:#4f6ddb;}.cls-11{opacity:0.4;}.cls-12{fill:#ff9c1a;}.cls-13{font-size:11.24px;font-family:MyriadPro-Regular, Myriad Pro;}.cls-14{letter-spacing:0.01em;}.cls-15,.cls-19,.cls-31{fill:#029d41;}.cls-16{letter-spacing:-0.05em;}.cls-17{fill:#fe3737;}.cls-18{letter-spacing:-0.03em;}.cls-19,.cls-31{stroke:#ff9c1a;}.cls-19{stroke-width:2.44px;}.cls-20{fill:#7794ff;}.cls-21{fill:#fec2a0;}.cls-22{fill:#d1d1d1;}.cls-23{fill:#303134;}.cls-24{stroke:#303134;stroke-width:0.37px;}.cls-25{fill:#f99979;}.cls-26{fill:#f0f0f0;}.cls-27{fill:#f66a31;}.cls-28{fill:#494a4f;}.cls-29{fill:#36373b;}.cls-30{fill:#657ed9;}.cls-31{stroke-width:2.35px;}.cls-33{fill:#455fbf;}.cls-34{stroke:#28282a;stroke-width:1.53px;}.cls-35{fill:#794300;}.cls-36{fill:#663800;}.cls-37{clip-path:url(#clip-path);}.cls-38{stroke:#028f3b;stroke-width:0.69px;}.cls-39{fill:#fec519;}.cls-40{fill:#e39d76;}.cls-41{fill:#cc855e;}</style><clipPath id="clip-path" transform="translate(-18.82 -21.74)"><path class="cls-1" d="M50.68,52.39h0l0,.06A22.85,22.85,0,0,1,49,47.92c4.29-1.24,4.53-7.42.74-7.59C46.11,40.17,46,44.78,46,45.17v0a2.39,2.39,0,0,1-1.88-1.69s-12.46,2.56-16.32,4.3c-.44-1.71-.35-7.94,1.73-12.62s5-6.29,8.58-5.2c5.76,1.74,11.67-4.66,17.45,4.14C58.59,38.68,51.26,51.39,50.68,52.39Z"/></clipPath></defs><title>Is in sync with your instructors_dark_mode</title><path class="cls-2" d="M259.51,353.24a148.58,148.58,0,0,1-178-134.62A147.76,147.76,0,0,1,97.5,140" transform="translate(-18.82 -21.74)"/><path class="cls-2" d="M352.13,124a148.73,148.73,0,0,1,16.59,135.76" transform="translate(-18.82 -21.74)"/><path class="cls-2" d="M174.24,70A148.74,148.74,0,0,1,313,85" transform="translate(-18.82 -21.74)"/><path class="cls-3" d="M350.88,247.52s2.17,1.37.29,5.21-8.7,7.88-14.24,9.17S328.6,264,328.6,264l-6.46-8.46s.39-10.93,3.63-14.14c2.75-2.72,5.72-3.66,9.28-5h0c.59-.28,15.42-12.36,17.81-8.79s-5.65,9.38-6.35,9.9a19.16,19.16,0,0,1,3.24-1.62c1.78-.66,3.75-.93,4.41.72a3.26,3.26,0,0,1-1.82,4.43s2.86.52,1.54,3.15A7.18,7.18,0,0,1,350.88,247.52Z" transform="translate(-18.82 -21.74)"/><polygon class="cls-4" points="340.58 192.89 335.67 197.69 310.87 237.72 313.84 239.17 338.76 199.04 340.58 192.89"/><path class="cls-3" d="M350.88,247.52s2.17,1.37.29,5.21H347.6s-8.79.73-9.82-1.68,3-1.65,3-1.65-.8-.08-1.65-1.89,5.35-4,5.35-4-1.14.08-1-1.83c.11-2.29,3-4.21,3-4.21h0l3.27-1.64c1.78-.66,3.75-.93,4.41.72a3.26,3.26,0,0,1-1.82,4.43s2.86.52,1.54,3.15A7.18,7.18,0,0,1,350.88,247.52Z" transform="translate(-18.82 -21.74)"/><path class="cls-3" d="M122,171.55s-2.53-.43-3.69,3.69,2.47,16.15,5.74,20.81,15.31,5.48,14.36,2.89,6.66-10.65,6.4-15.2c-.23-3.87-1.81-6.55-3.57-9.92h0c-.25-.6-3.22-19.5-7.38-18.44-4,1-2.06,10.75-1.89,11.61a19.16,19.16,0,0,0-1.33-3.37c-.89-1.68-2.18-3.2-3.76-2.41a3.26,3.26,0,0,0-1.6,4.51s-2.47-1.53-3.25,1.31A7.18,7.18,0,0,0,122,171.55Z" transform="translate(-18.82 -21.74)"/><polygon class="cls-4" points="118.83 119.64 119.28 126.5 111 172.85 107.83 171.95 116.08 125.44 118.83 119.64"/><path class="cls-3" d="M122,171.55s-2.53-.43-3.69,3.69l2.66,2.38s6.05,6.41,8.43,5.31-1.14-3.24-1.14-3.24.65.47,2.5-.3-1.34-6.52-1.34-6.52.8.82,2-.66c1.45-1.78.56-5.16.56-5.16v0l-1.34-3.4c-.89-1.68-2.18-3.2-3.76-2.41a3.26,3.26,0,0,0-1.6,4.51s-2.47-1.53-3.25,1.31A7.18,7.18,0,0,0,122,171.55Z" transform="translate(-18.82 -21.74)"/><polygon class="cls-5" points="192.05 198.94 189.4 211.52 223.4 215.66 221.34 202.36 192.05 198.94"/><path class="cls-3" d="M191.22,164.49s.49-11.55,8.63-17.26c7.45-5.23,8.56-5.29,35.56-2,26.25,3.24,28.69,2.81,34.45,10.26,6.46,8.37,4.44,19.87,4.44,19.87s7,.33,8.56,1,2.55,2.09,2.16,6.27-1,10.13-1.24,11.31a4.63,4.63,0,0,1-4.31,2.81c-2-.13-7.84-.59-7.84-.59s-.59,11-2.68,15.95-6.41,10.92-14.77,12.81-23.33-.92-33.92-2.09-16.47-.65-24.05-6.08-8.1-12.48-8.69-15.75,1.18-15.62,1.18-15.62a48,48,0,0,1-6.86-.78c-1.76-.52-2.61-2.16-2.61-4.9s.85-11.7,1.76-13.53S184,163.38,191.22,164.49Z" transform="translate(-18.82 -21.74)"/><polygon class="cls-6" points="164.88 142.54 170.42 120.88 172.97 121.26 172.4 142.75 164.88 142.54"/><circle class="cls-7" cx="171.5" cy="118.28" r="4.02"/><circle class="cls-7" cx="185.72" cy="102.98" r="4.63"/><circle class="cls-7" cx="248.33" cy="109.26" r="4.63"/><circle class="cls-7" cx="218.98" cy="98.33" r="7.02"/><circle class="cls-7" cx="194.1" cy="114.26" r="2.66"/><circle class="cls-7" cx="233.64" cy="120.88" r="2.66"/><polygon class="cls-6" points="255.77 149.55 259.39 130.47 261.62 130.47 262.08 154.26 255.47 153.67 255.77 149.55"/><circle class="cls-7" cx="260.72" cy="127.17" r="4.02"/><polygon class="cls-7" points="173.49 115.18 182.91 105.71 183.32 106.13 173.66 115.36 173.49 115.18"/><polygon class="cls-7" points="193.21 113.42 187.78 106.52 188.25 106.16 193.41 113.27 193.21 113.42"/><polygon class="cls-7" points="188.87 103 213.08 99.33 213.16 99.92 188.9 103.25 188.87 103"/><polygon class="cls-7" points="245.17 108.43 224.56 101.37 224.76 100.82 245.25 108.19 245.17 108.43"/><polygon class="cls-7" points="232.42 119.36 222.35 103.61 222.85 103.29 232.64 119.22 232.42 119.36"/><polygon class="cls-7" points="234.85 120.11 244.91 111.15 245.3 111.59 235.02 120.3 234.85 120.11"/><polygon class="cls-7" points="258.67 124.87 250.66 112.8 251.15 112.48 258.88 124.73 258.67 124.87"/><polygon class="cls-7" points="195.53 114.15 213.16 101.53 213.49 102.01 195.68 114.36 195.53 114.15"/><path class="cls-4" d="M228.74,168.56a15,15,0,0,1-7.4,12.94,22.85,22.85,0,0,0-12.21-3.31,25.32,25.32,0,0,0-6.22.76,15,15,0,1,1,25.84-10.4Z" transform="translate(-18.82 -21.74)"/><circle class="cls-8" cx="196.4" cy="146.15" r="10"/><path class="cls-4" d="M236.35,169.53A15,15,0,0,0,239.85,184a22.85,22.85,0,0,1,12.65.23,25.32,25.32,0,0,1,5.76,2.47,15,15,0,1,0-21.92-17.18Z" transform="translate(-18.82 -21.74)"/><circle class="cls-8" cx="249.52" cy="172.65" r="10" transform="matrix(0.28, -0.96, 0.96, 0.28, -4.6, 342.49)"/><path class="cls-5" d="M248.7,197.17s-2,19.38-21.41,17.32-16.93-21-16.93-21l2.18.21-.06,1a2.43,2.43,0,0,0,2.19,2.55L243.77,200a2.43,2.43,0,0,0,2.66-2.27l0-.79Z" transform="translate(-18.82 -21.74)"/><path class="cls-4" d="M246.48,197l0,.79a2.43,2.43,0,0,1-2.66,2.27l-29.09-2.79a2.43,2.43,0,0,1-2.19-2.55l.06-1Z" transform="translate(-18.82 -21.74)"/><path class="cls-3" d="M256.79,318.57H193.64c-12,0-21.22-11.47-19.29-24.1l7-46c1.54-10.05,9.71-17.44,19.29-17.44h49.09c9.58,0,17.75,7.38,19.29,17.44l7,46C278,307.1,268.84,318.57,256.79,318.57Z" transform="translate(-18.82 -21.74)"/><rect class="cls-3" x="269.34" y="232.4" width="18.73" height="54.42" rx="8.81" ry="8.81" transform="translate(637.29 289.23) rotate(144.78)"/><path class="cls-3" d="M322.14,255.5l-22.85,14.57a7.62,7.62,0,0,0-1.45,10.65l2.14,2.81A7.62,7.62,0,0,0,310.64,285l18-21Z" transform="translate(-18.82 -21.74)"/><circle class="cls-8" cx="296.71" cy="280.04" r="6.76" transform="translate(-12.66 544.74) rotate(-87.94)"/><rect class="cls-3" x="154.16" y="213.17" width="18.73" height="54.42" rx="8.81" ry="8.81" transform="translate(423.96 137.76) rotate(108.07)"/><path class="cls-3" d="M138.34,198.45l9.13,27.74a7.62,7.62,0,0,1-5.64,9.16l-3.43.82a7.62,7.62,0,0,1-9.16-5.64l-2.94-33.14Z" transform="translate(-18.82 -21.74)"/><circle class="cls-8" cx="141.28" cy="231.2" r="6.76" transform="translate(-144.89 165.45) rotate(-49.22)"/><line class="cls-9" x1="283.3" y1="265.08" x2="283.3" y2="352.58"/><g class="cls-10"><rect class="cls-11" x="245.95" y="240.09" width="137.06" height="107.82" rx="6.85" ry="6.85"/><rect class="cls-12" x="286.67" y="247.31" width="28.83" height="13.95" rx="1.86" ry="1.86"/><text class="cls-13" transform="translate(290.33 257.58)"><tspan class="cls-14">M</tspan><tspan x="9.1" y="0">on</tspan></text><rect class="cls-15" x="319.02" y="247.31" width="28.83" height="13.95" rx="1.86" ry="1.86"/><text class="cls-13" transform="translate(324.99 257.58)"><tspan class="cls-16">T</tspan><tspan x="5.08" y="0">ue</tspan></text><rect class="cls-17" x="351.38" y="247.31" width="28.83" height="13.95" rx="1.86" ry="1.86"/><text class="cls-13" transform="translate(355.24 257.58)"><tspan class="cls-18">W</tspan><tspan x="9.14" y="0">ed</tspan></text><line class="cls-9" x1="317.3" y1="265.08" x2="317.3" y2="352.58"/><line class="cls-9" x1="349.3" y1="265.08" x2="349.3" y2="352.58"/><line class="cls-9" x1="374.16" y1="293.54" x2="249.97" y2="293.54"/><line class="cls-9" x1="374.16" y1="328.91" x2="249.97" y2="328.91"/><rect class="cls-12" x="288.31" y="270.22" width="22.99" height="16.35" rx="3.75" ry="3.75"/><rect class="cls-4" x="321.81" y="303.89" width="22.99" height="16.35" rx="3.75" ry="3.75"/><rect class="cls-17" x="288.31" y="303.89" width="22.99" height="16.35" rx="3.75" ry="3.75"/><rect class="cls-17" x="355.28" y="270.22" width="22.99" height="16.35" rx="3.75" ry="3.75"/></g><g class="cls-10"><rect class="cls-11" x="17.16" y="4.95" width="137.06" height="110.74" rx="6.85" ry="6.85"/><rect class="cls-12" x="55.75" y="12.37" width="28.83" height="13.95" rx="1.86" ry="1.86"/><text class="cls-13" transform="translate(59.41 22.64)"><tspan class="cls-14">M</tspan><tspan x="9.1" y="0">on</tspan></text><rect class="cls-15" x="88.11" y="12.37" width="28.83" height="13.95" rx="1.86" ry="1.86"/><text class="cls-13" transform="translate(94.08 22.64)"><tspan class="cls-16">T</tspan><tspan x="5.08" y="0">ue</tspan></text><rect class="cls-17" x="120.47" y="12.37" width="28.83" height="13.95" rx="1.86" ry="1.86"/><text class="cls-13" transform="translate(124.33 22.64)"><tspan class="cls-18">W</tspan><tspan x="9.14" y="0">ed</tspan></text><line class="cls-9" x1="87.64" y1="29.5" x2="87.64" y2="95.88"/><line class="cls-9" x1="53.64" y1="29.5" x2="53.64" y2="117"/><line class="cls-9" x1="119.64" y1="29.5" x2="119.64" y2="117"/><line class="cls-9" x1="144.5" y1="57.97" x2="20.31" y2="57.97"/><line class="cls-9" x1="144.5" y1="92.28" x2="20.31" y2="92.28"/><rect class="cls-12" x="91.03" y="34.64" width="22.99" height="16.35" rx="3.75" ry="3.75"/><rect class="cls-17" x="125.62" y="68.31" width="22.99" height="16.35" rx="3.75" ry="3.75"/><rect class="cls-17" x="58.65" y="68.31" width="22.99" height="16.35" rx="3.75" ry="3.75"/><rect class="cls-4" x="125.62" y="34.64" width="22.99" height="16.35" rx="3.75" ry="3.75"/></g><path class="cls-4" d="M158.74,84.52c-9.95.3-21.59,6.39-20.51,18,.9,9.57,11.55,15.59,20.37,15.69,11,.12,15.88-8.84,15-18.94-.9-9.86-6.13-19.28-15.66-22.92-1.81-.69-2.59,2.21-.8,2.89,7,2.68,11.2,9.19,12.85,16.3,1.91,8.24.33,19-10,19.64-7,.45-16-3.53-18.3-10.66-3.53-10.75,8.39-16.71,17-17,1.93-.06,1.93-3.06,0-3Z" transform="translate(-18.82 -21.74)"/><rect class="cls-19" x="294.2" y="7.75" width="84.26" height="72.57" rx="9.15" ry="9.15"/><path class="cls-20" d="M345,89.69h0c-.66,9.71-1.35,20.56,3.08,25.33s12.3,2.42,12.3,2.42l.61,1a3.55,3.55,0,0,0,3.41,1.89c6-.74,23.36-5.68,23.36-5.68s12.88,2.64,15.67-4.71c2-5.37-.56-7.7-2.12-10-2-2.85-1.48-10.27-2.27-15.69s-2.49-9-7.35-10.52c-3.3-1-13.31-5.06-14.77-7l-4.39,7.83a3.09,3.09,0,0,1-5.37,0,24.4,24.4,0,0,0-3.46-5,.17.17,0,0,1-.16.17C361.75,72.4,347,80.58,346,84.53A37.44,37.44,0,0,0,345,89.69Z" transform="translate(-18.82 -21.74)"/><path class="cls-21" d="M363.82,65.24c.45,1,1.39,2.14-.14,4.56a28.57,28.57,0,0,1,3.55,5.14,3,3,0,0,0,5.21,0l5.73-7a14.57,14.57,0,0,1-2-2.11,26.78,26.78,0,0,1-3.81-7.65c1.85-.56,3.66-2,3.92-3.58.33-1.88-.77-4.85-2.89-4.92-3.74,0-4.54.35-5.78-4.07S356,46.77,356,46.77s-.12,4.89.34,6.17a6.3,6.3,0,0,1,.51,2.42,28.79,28.79,0,0,1,0,3.82C356.66,61.23,359.15,66.49,363.82,65.24Z" transform="translate(-18.82 -21.74)"/><path class="cls-22" d="M364.43,52.45c-1.9-.73-2.69-.21-2.69-.21l-.2-1a.46.46,0,0,1,.39-.5,9.1,9.1,0,0,1,2.37.15C364.86,51.21,364.43,52.45,364.43,52.45Z" transform="translate(-18.82 -21.74)"/><path class="cls-22" d="M356.06,51.84a3.5,3.5,0,0,1,1.86.71l0-1.14a.61.61,0,0,0-.43-.55l-1.41-.39-.05,1.23Z" transform="translate(-18.82 -21.74)"/><ellipse class="cls-23" cx="362.9" cy="54.95" rx="0.65" ry="1.3" transform="translate(-20.78 -6.71) rotate(-2.37)"/><ellipse class="cls-23" cx="357.62" cy="55" rx="0.57" ry="1.22" transform="translate(-20.78 -6.93) rotate(-2.37)"/><path class="cls-24" d="M359.08,56.82c-.94.93-.85,3,.82,2.16" transform="translate(-18.82 -21.74)"/><path class="cls-25" d="M363.82,65.24a4.94,4.94,0,0,0,2.74-2.63,5.43,5.43,0,0,1-2.11,4.15Z" transform="translate(-18.82 -21.74)"/><path class="cls-22" d="M378.36,54.35a10.31,10.31,0,0,0-3.86-14.49,26.86,26.86,0,0,0-11.68-2.81c-5.2,0-9.51,2.26-8.14,9.69a47.27,47.27,0,0,0,1.64,6.2c-.46-1.28.24-4.08.67-5.4.21-.74,3.16,2,7.55-.39a1.3,1.3,0,0,1,.77.94l1,7.12,2.86.37s-.29-5,3.46-4.94,3.75,6.11-.42,7.5a22.43,22.43,0,0,0,1.81,4.4S376.11,58.05,378.36,54.35Z" transform="translate(-18.82 -21.74)"/><polygon class="cls-22" points="345.39 47.07 351.22 50.41 342.28 56.03 344.7 48.07 345.39 47.07"/><polygon class="cls-22" points="358.33 45.31 351.22 50.41 361.05 54.75 359.6 46.4 358.33 45.31"/><path class="cls-26" d="M376.48,75,371,103.05l-6.66-27.31,5.72-3.6Z" transform="translate(-18.82 -21.74)"/><polygon class="cls-27" points="348.52 52.11 350 54.77 352.86 54.65 354.07 51.67 351.22 50.41 348.52 52.11"/><path class="cls-27" d="M373.18,91.82,371,103.05l-2.69-11,.53-15.52,2.86-.12Z" transform="translate(-18.82 -21.74)"/><path class="cls-28" d="M331.31,107.37h78.85a0,0,0,0,1,0,0v4.79a3.61,3.61,0,0,1-3.61,3.61H334.91a3.61,3.61,0,0,1-3.61-3.61v-4.79A0,0,0,0,1,331.31,107.37Z" transform="translate(722.64 201.41) rotate(-180)"/><rect class="cls-28" x="338.42" y="115.52" width="64.61" height="8.4" transform="translate(722.64 217.71) rotate(-180)"/><path class="cls-28" d="M399,123.71l-1.74,10a5.2,5.2,0,0,1-5.09,5H347.8a3.88,3.88,0,0,1-3.8-3.64l-2.29-11.36Z" transform="translate(-18.82 -21.74)"/><path class="cls-24" d="M362.39,61.6s-.53,1.47-2.58.94" transform="translate(-18.82 -21.74)"/><path class="cls-21" d="M398.2,107.37s-1-4.41-2.76-3.43-2-.8-3-.16c-1.86,1.1-2.16-.32-3.3.42s-2,2.56-3.27,2.16-3-.42-3.19,1C386.83,107.42,398.2,107.37,398.2,107.37Z" transform="translate(-18.82 -21.74)"/><polygon class="cls-29" points="384.22 93.79 319.61 93.79 319.61 95.88 384.22 93.79"/><polygon class="cls-30" points="338.19 85.64 336.06 75 335.6 85.64 338.19 85.64"/><rect class="cls-31" x="35.7" y="260.9" width="80.89" height="69.67" rx="8.78" ry="8.78" transform="translate(133.47 569.73) rotate(-180)"/><path class="cls-12" d="M75.26,279.22c-.71,3.63,1.87,10.12-1.37,14.17s-21.42,2.67-24-.42-1.23-2.65-.08-12.81c.87-7.75,4.08-13.19,16.91-12.19C72.27,268.4,76.63,271.79,75.26,279.22Z" transform="translate(-18.82 -21.74)"/><path class="cls-32" d="M84,319.1h0c.66,9.71,1.35,20.56-3.08,25.33s-12.3,2.42-12.3,2.42l-.61,1a3.55,3.55,0,0,1-3.41,1.89c-6-.74-23.36-5.68-23.36-5.68s-12.88,2.64-15.67-4.71c-2-5.37.56-7.7,2.12-10,2-2.85,1.48-10.27,2.27-15.69s2.49-9,7.35-10.52c3.3-1,13.31-5.06,14.77-7l4.39,7.83a3.09,3.09,0,0,0,5.37,0,24.4,24.4,0,0,1,3.46-5,.17.17,0,0,0,.16.17C67.22,301.81,82,310,83,313.93A37.44,37.44,0,0,1,84,319.1Z" transform="translate(-18.82 -21.74)"/><path class="cls-21" d="M72.78,281.85a2.56,2.56,0,0,1-.12.51,6.34,6.34,0,0,0-.51,2.41,28.69,28.69,0,0,0,0,3.83c.16,2-2.34,7.3-7,6-.45,1-1.39,2.14.13,4.57a28.18,28.18,0,0,0-3.54,5.14,3,3,0,0,1-5.21,0l-5.73-7a10.54,10.54,0,0,0,.94-.89.18.18,0,0,0,.07,0c3-2.57,4-3.57,4.93-8.91-4.18-1.39-4.17-7.49-.43-7.5s3.46,5,3.46,5h0c1.69-.22,4.9-9.61,4.9-9.61S70.78,279,72.78,281.85Z" transform="translate(-18.82 -21.74)"/><ellipse class="cls-23" cx="66.07" cy="284.36" rx="1.3" ry="0.65" transform="translate(-239.59 316.9) rotate(-87.63)"/><ellipse class="cls-23" cx="71.35" cy="284.41" rx="1.22" ry="0.57" transform="translate(-234.58 322.23) rotate(-87.63)"/><path class="cls-24" d="M69.9,286.22c.94.93.85,3-.82,2.16" transform="translate(-18.82 -21.74)"/><path class="cls-25" d="M65.16,294.65A4.94,4.94,0,0,1,62.42,292a5.43,5.43,0,0,0,2.11,4.15Z" transform="translate(-18.82 -21.74)"/><path class="cls-26" d="M50.81,297.4,58,332.46,65.3,299a8,8,0,0,1-6.49,3.17C54.53,302.13,50.81,297.4,50.81,297.4Z" transform="translate(-18.82 -21.74)"/><path class="cls-28" d="M3.61,315H75.24a3.61,3.61,0,0,1,3.61,3.61v4.79a0,0,0,0,1,0,0H0a0,0,0,0,1,0,0v-4.79A3.61,3.61,0,0,1,3.61,315Z"/><rect class="cls-28" x="7.12" y="323.19" width="64.61" height="8.4"/><path class="cls-28" d="M30,353.12l1.74,10a5.2,5.2,0,0,0,5.09,5H81.17a3.88,3.88,0,0,0,3.8-3.64l2.29-11.36Z" transform="translate(-18.82 -21.74)"/><path class="cls-24" d="M66.58,291s.53,1.47,2.58.94" transform="translate(-18.82 -21.74)"/><path class="cls-21" d="M30.77,336.78s1-4.41,2.76-3.43,2-.8,3-.16c1.86,1.1,2.16-.32,3.3.42s2,2.56,3.27,2.16,3-.42,3.19,1C42.15,336.83,30.77,336.78,30.77,336.78Z" transform="translate(-18.82 -21.74)"/><polygon class="cls-29" points="7.12 323.19 71.73 323.19 71.73 325.28 7.12 323.19"/><polygon class="cls-33" points="53.15 315.05 55.27 304.41 55.74 315.05 53.15 315.05"/><rect class="cls-4" x="224.45" y="46.63" width="39.98" height="24.19" rx="2.57" ry="2.57" transform="translate(39.27 -131.75) rotate(28.65)"/><polygon class="cls-4" points="238.6 54.94 233.55 63.07 229.17 52.72 238.6 54.94"/><line class="cls-34" x1="220.64" y1="26.13" x2="242.49" y2="38.07"/><line class="cls-34" x1="212.42" y1="28.44" x2="234.97" y2="40.76"/><line class="cls-34" x1="209.56" y1="33.67" x2="236.77" y2="48.54"/><rect class="cls-4" x="60.1" y="200.17" width="39.98" height="24.19" rx="2.57" ry="2.57" transform="translate(-75.33 9.39) rotate(-16.35)"/><polygon class="cls-4" points="83.14 194.04 85.32 203.37 74.9 199.14 83.14 194.04"/><line class="cls-34" x1="44.21" y1="188.1" x2="65.97" y2="181.71"/><line class="cls-34" x1="45.89" y1="193.82" x2="75.65" y2="185.09"/><line class="cls-34" x1="47.57" y1="199.54" x2="69.72" y2="193.05"/><rect class="cls-4" x="357.9" y="170.69" width="39.98" height="24.19" rx="2.57" ry="2.57" transform="translate(115.1 -180.55) rotate(28.65)"/><polygon class="cls-4" points="372.05 179 367 187.13 362.63 176.78 372.05 179"/><line class="cls-34" x1="353.75" y1="150" x2="375.95" y2="162.13"/><line class="cls-34" x1="345.87" y1="152.5" x2="373.09" y2="167.37"/><line class="cls-34" x1="343.01" y1="157.73" x2="363.85" y2="169.12"/><path class="cls-24" d="M64.18,281.47s1.54-1.71,3.21-.42" transform="translate(-18.82 -21.74)"/><path class="cls-24" d="M70.22,281.47s1-1.58,2.06-.39" transform="translate(-18.82 -21.74)"/><circle class="cls-4" cx="24.04" cy="22.64" r="22.64"/><path class="cls-15" d="M33.94,52.39h0l0,.06a22.85,22.85,0,0,0,1.64-4.53c-4.29-1.24-4.53-7.42-.74-7.59,3.64-.16,3.71,4.45,3.71,4.84v0a2.39,2.39,0,0,0,1.88-1.69s8.89,6.4,12.75,8.14c.44-1.71,3.93-11.78,1.84-16.46s-5-6.29-8.58-5.2C40.72,31.71,34.81,25.31,29,34.11,26,38.68,33.36,51.39,33.94,52.39Z" transform="translate(-18.82 -21.74)"/><path class="cls-35" d="M30,58.13l10.86,5s2.91-2.64,3.89-3.71c-1.64-2.39-.74-3.55-.33-4.62,4.78,1.06,7.09-4.37,6.84-6.43a28.86,28.86,0,0,1-.17-3.87A6.36,6.36,0,0,1,51.53,42a2.25,2.25,0,0,0,.07-.31h0c.09-2.22-2.48-4.57-4.62-4.49s-4.69-.14-4.77.27L40.47,43.5a2.39,2.39,0,0,1-1.88,1.69v0c0-.39-.08-5-3.71-4.84-3.79.17-3.55,6.34.74,7.59A22.85,22.85,0,0,1,34,52.45l0-.06a27.65,27.65,0,0,1-2,3.51A14.3,14.3,0,0,1,30,58.13Z" transform="translate(-18.82 -21.74)"/><ellipse class="cls-23" cx="26.12" cy="22.55" rx="0.66" ry="1.32"/><ellipse class="cls-23" cx="31.47" cy="22.39" rx="0.58" ry="1.24"/><path class="cls-23" d="M48.84,48.62a.82.82,0,0,0,.72-.37A2.06,2.06,0,0,0,49,45.88a.19.19,0,1,0-.25.27A1.72,1.72,0,0,1,49.25,48c-.22.32-.68.2-1,0a.19.19,0,0,0-.16.33A1.81,1.81,0,0,0,48.84,48.62Z" transform="translate(-18.82 -21.74)"/><path class="cls-36" d="M44.44,54.76a5,5,0,0,1-2.88-2.56,5.51,5.51,0,0,0,2.31,4.12Z" transform="translate(-18.82 -21.74)"/><path class="cls-23" d="M47.67,51.64a3.32,3.32,0,0,0,1.26-.26.19.19,0,0,0-.16-.34,2.17,2.17,0,0,1-2.9-.92.19.19,0,1,0-.33.17A2.28,2.28,0,0,0,47.67,51.64Z" transform="translate(-18.82 -21.74)"/><path class="cls-23" d="M46.29,41.85a.19.19,0,0,0,.1-.34,2.94,2.94,0,0,0-3.05-.17.19.19,0,0,0,.21.31,2.62,2.62,0,0,1,2.64.17A.18.18,0,0,0,46.29,41.85Z" transform="translate(-18.82 -21.74)"/><path class="cls-23" d="M49.64,41.59a.19.19,0,0,0,.14-.06,1.21,1.21,0,0,1,1.27-.2.19.19,0,0,0,.11-.35,1.55,1.55,0,0,0-1.66.31.19.19,0,0,0,.14.31Z" transform="translate(-18.82 -21.74)"/><g class="cls-37"><path class="cls-38" d="M44.25,27.27S37.06,39.18,27.11,38.55" transform="translate(-18.82 -21.74)"/></g><path class="cls-4" d="M356.32,262.08c-9.95.3-21.59,6.39-20.51,18,.9,9.57,11.55,15.59,20.37,15.69,11,.12,15.88-8.84,15-18.94-.9-9.86-6.13-19.28-15.66-22.92-1.81-.69-2.59,2.21-.8,2.89,7,2.68,11.2,9.19,12.85,16.3,1.91,8.24.33,19-10,19.64-7,.45-16-3.53-18.3-10.66-3.53-10.75,8.39-16.71,17-17,1.93-.06,1.93-3.06,0-3Z" transform="translate(-18.82 -21.74)"/><circle class="cls-4" cx="251.36" cy="258.31" r="23.03"/><path class="cls-39" d="M280.11,264.52c-6.88-.57-15.6-.76-18.22,4.05-2.53,4.63,4.24,16.72,4.73,17.59l0,0a22,22,0,0,0,1.59-4.36c-4.12-1.19-4.36-7.14-.71-7.3,3.49-.15,3.57,4.26,3.57,4.65v0c.87-.15,1.39-2.8,1.63-3.64,0,0,5.23.52,6.45-4.07C284.83,271.78,284.55,264.89,280.11,264.52Z" transform="translate(-18.82 -21.74)"/><path class="cls-39" d="M280.86,264.63c3,1.21,6.55,4,7.13,11.86-3.27-4.54-4.54-3.52-4.54-3.52S277.81,263.42,280.86,264.63Z" transform="translate(-18.82 -21.74)"/><path class="cls-39" d="M279.54,268.87c3,1.21,6.55,4,7.13,11.86-3.27-4.54-4.54-3.52-4.54-3.52S276.5,267.66,279.54,268.87Z" transform="translate(-18.82 -21.74)"/><path class="cls-40" d="M283.54,276.14a6.26,6.26,0,0,0-.4,2.38,27.42,27.42,0,0,0,.16,3.73c.23,2-2,7.22-6.59,6.18-1.64,3.18.23,6.14.37,7.32s0,2.32-1.33,2.91c-1,.46-4.36-1.35-7.38-3.24s-5.55-3.73-5.55-3.73a14.16,14.16,0,0,0,1.91-2.14,26.93,26.93,0,0,0,1.87-3.38l0,0a22,22,0,0,0,1.59-4.36c-4.12-1.19-4.36-7.14-.71-7.3,3.49-.15,3.57,4.26,3.57,4.65v0c.87-.15,1.39-2.8,1.63-3.64,0,0,5.23.52,6.45-4.07,2.05-.08,4.52,2.17,4.44,4.31A2.29,2.29,0,0,1,283.54,276.14Z" transform="translate(-18.82 -21.74)"/><ellipse class="cls-23" cx="258.38" cy="256.63" rx="0.63" ry="1.27"/><ellipse class="cls-23" cx="263.53" cy="256.47" rx="0.56" ry="1.19"/><path class="cls-23" d="M281,282.53a.79.79,0,0,0,.69-.35,2,2,0,0,0-.52-2.28.18.18,0,0,0-.24.26,1.65,1.65,0,0,1,.46,1.82c-.21.31-.65.19-1,0a.18.18,0,0,0-.15.32A1.75,1.75,0,0,0,281,282.53Z" transform="translate(-18.82 -21.74)"/><path class="cls-41" d="M276.72,288.44a4.82,4.82,0,0,1-2.78-2.46,5.3,5.3,0,0,0,2.22,4Z" transform="translate(-18.82 -21.74)"/><path class="cls-23" d="M279.83,285.44a3.18,3.18,0,0,0,1.21-.25.18.18,0,0,0,.09-.24.18.18,0,0,0-.24-.09,2.08,2.08,0,0,1-2.79-.89.18.18,0,1,0-.32.16A2.2,2.2,0,0,0,279.83,285.44Z" transform="translate(-18.82 -21.74)"/><path class="cls-23" d="M278.5,276a.18.18,0,0,0,.1-.33,2.83,2.83,0,0,0-2.94-.17.18.18,0,1,0,.2.3,2.51,2.51,0,0,1,2.54.17A.18.18,0,0,0,278.5,276Z" transform="translate(-18.82 -21.74)"/><path class="cls-23" d="M281.72,275.77a.18.18,0,0,0,.13-.06h0a1.16,1.16,0,0,1,1.23-.2.18.18,0,1,0,.11-.34,1.5,1.5,0,0,0-1.6.3.18.18,0,0,0,.13.3Z" transform="translate(-18.82 -21.74)"/><circle class="cls-22" cx="337.01" cy="20.23" r="3.88"/><circle class="cls-22" cx="335.6" cy="24.11" r="3.88"/><circle class="cls-22" cx="340.37" cy="24.86" r="3.88"/><circle class="cls-12" cx="30.8" cy="267.15" r="4.47"/><circle class="cls-12" cx="30.05" cy="261.46" r="4.47"/><circle class="cls-12" cx="31.99" cy="255.26" r="4.47"/></svg>