<svg width="311" height="124" viewBox="0 0 311 124" fill="none" xmlns="http://www.w3.org/2000/svg">
<g filter="url(#filter0_d_696_8025)">
<path d="M36.8654 30.6623C37.1901 27.9201 39.6764 25.9603 42.4187 26.285L79.9848 30.7334C82.727 31.0581 84.6868 33.5444 84.3621 36.2866L83.0731 47.1719C81.7742 58.1409 71.8291 65.9802 60.86 64.6813L53.0858 63.7607C42.1168 62.4618 34.2775 52.5166 35.5764 41.5476L36.8654 30.6623Z" fill="url(#paint0_linear_696_8025)"/>
<rect x="49.7454" y="23.3499" width="7.19226" height="4.31536" rx="2" transform="rotate(7.29054 49.7454 23.3499)" fill="#EC7115"/>
<rect x="69.8838" y="25.8672" width="7.19226" height="4.31536" rx="2" transform="rotate(7.29054 69.8838 25.8672)" fill="#EC7115"/>
<path d="M53.9987 15.6988C54.0532 15.4947 54.2381 15.3527 54.4494 15.3527V15.3527C54.707 15.3527 54.9159 15.5616 54.9159 15.8193L54.9159 23.5624C54.9159 24.1738 54.3722 24.642 53.7677 24.5514L52.8219 24.4096C52.2319 24.3211 51.8501 23.7389 52.0041 23.1625L53.9987 15.6988Z" fill="#D9D9D9"/>
<path d="M74.1371 18.2164C74.1917 18.0123 74.3766 17.8703 74.5878 17.8703V17.8703C74.8455 17.8703 75.0543 18.0792 75.0543 18.3368L75.0543 26.08C75.0543 26.6913 74.5107 27.1596 73.9061 27.069L72.9604 26.9272C72.3703 26.8387 71.9885 26.2565 72.1425 25.6801L74.1371 18.2164Z" fill="#D9D9D9"/>
<circle cx="54.4122" cy="15.2586" r="1.25865" fill="#F27F2E"/>
<circle cx="74.5506" cy="17.7757" r="1.25865" fill="#F27F2E"/>
<path d="M37.3145 73.4564C38.2567 68.2886 43.0367 64.7306 48.2575 65.3112L64.0474 67.0669C69.2708 67.6477 73.1532 72.1728 72.9335 77.4238L72.5384 86.8641C72.3017 92.5204 67.4209 96.8525 61.7764 96.4162L44.5829 95.0871C38.6703 94.6301 34.4521 89.1575 35.5157 83.3234L37.3145 73.4564Z" fill="url(#paint1_linear_696_8025)"/>
<path d="M50.8162 63.4468L62.2937 64.8867V64.8867C61.902 67.6202 59.3636 69.5528 56.6301 69.1611L55.0619 68.9364C52.3959 68.5544 50.5156 66.1233 50.8162 63.4468V63.4468Z" fill="url(#paint2_linear_696_8025)"/>
<path d="M34.6335 70.2795L38.0499 69.7401L36.971 75.8535H34.6335V70.2795Z" fill="#F27F2E"/>
<path d="M73.1122 72.7968L75.9891 74.0554L74.0112 78.7304L72.9324 78.3708L73.1122 72.7968Z" fill="#F37F2F"/>
<path d="M90.1937 75.6737C86.0582 79.8092 78.7229 77.1584 75.3958 75.1343C75.3958 75.5023 74.7233 76.2773 74.1909 78.191C83.3472 82.6072 89.8133 79.9798 91.6322 77.8944C91.3216 77.465 90.939 76.8513 90.1937 75.6737Z" fill="url(#paint3_linear_696_8025)"/>
<path d="M34.7575 75.2269C28.3692 73.8751 23.1615 80.8314 21.3033 84.7562C21.0776 84.4115 19.9759 84.0957 18.3066 82.6278C24.1282 72.9076 31.7844 70.6939 34.7575 71.5381C34.7315 72.1296 34.7297 73.6693 34.7575 75.2269Z" fill="url(#paint4_linear_696_8025)"/>
<path fill-rule="evenodd" clip-rule="evenodd" d="M93.94 74.8433C94.5669 76.6525 97.2843 77.3538 100.009 76.4096C101.218 75.9908 102.225 75.3186 102.917 74.5423C102.874 76.3163 102.121 78.0681 100.688 79.3371C97.9507 81.7602 93.7676 81.5057 91.3445 78.7686C88.9214 76.0315 89.176 71.8483 91.9131 69.4252C94.4621 67.1686 98.2654 67.2344 100.733 69.4649C99.8129 69.3771 98.7767 69.4981 97.7393 69.8576C95.0141 70.8018 93.3131 73.034 93.94 74.8433Z" fill="url(#paint5_linear_696_8025)"/>
<path fill-rule="evenodd" clip-rule="evenodd" d="M18.2903 85.847C16.5617 85.0233 14.1546 86.4661 12.9138 89.0697C12.3635 90.2245 12.1351 91.4137 12.202 92.4515C10.9693 91.175 10.2501 89.4093 10.3528 87.4975C10.5487 83.8472 13.6668 81.047 17.317 81.2429C20.9673 81.4389 23.7676 84.5569 23.5716 88.2072C23.3891 91.6068 20.6722 94.269 17.3513 94.4605C18.0599 93.8668 18.7012 93.0439 19.1735 92.0528C20.4143 89.4492 20.0188 86.6708 18.2903 85.847Z" fill="url(#paint6_linear_696_8025)"/>
<path d="M62.6346 42.7291C62.3454 44.722 61.1368 46.3607 59.4851 47.2994C58.385 46.7548 56.9596 46.1929 55.5551 45.9891C54.1507 45.7853 52.6243 45.9189 51.4148 46.1284C50.0981 44.7589 49.405 42.8442 49.6942 40.8513C50.199 37.3728 53.505 34.9733 57.0784 35.4919C60.6518 36.0104 63.1394 39.2506 62.6346 42.7291Z" fill="white"/>
<path d="M78.4507 45.0241C78.1615 47.017 76.9528 48.6557 75.3012 49.5945C74.2011 49.0498 72.7757 48.4879 71.3712 48.2841C69.9667 48.0803 68.4404 48.2139 67.2309 48.4234C65.9141 47.0539 65.2211 45.1392 65.5103 43.1463C66.015 39.6679 69.321 37.2684 72.8944 37.7869C76.4678 38.3054 78.9555 41.5456 78.4507 45.0241Z" fill="white"/>
<path d="M56.3284 45.4091C58.7252 45.7569 60.9416 44.1547 61.2789 41.8305C61.6161 39.5064 59.9465 37.3403 57.5497 36.9925C55.1529 36.6447 52.9366 38.2469 52.5993 40.5711C52.2621 42.8952 53.9316 45.0613 56.3284 45.4091Z" fill="#28282A"/>
<path d="M70.7943 47.5082C73.1911 47.856 75.4075 46.2538 75.7448 43.9296C76.082 41.6055 74.4124 39.4394 72.0156 39.0916C69.6189 38.7439 67.4025 40.346 67.0652 42.6702C66.728 44.9943 68.3976 47.1604 70.7943 47.5082Z" fill="#28282A"/>
<g filter="url(#filter1_i_696_8025)">
<path d="M60.6822 61.2786C52.5234 60.4298 53.3721 52.271 53.3721 52.271L69.6898 53.9684C69.6898 53.9684 68.8411 62.1273 60.6822 61.2786Z" fill="#A30A0A"/>
</g>
<path d="M54.2314 52.8185L54.2786 52.3652L68.7832 53.874L68.736 54.3273C68.684 54.828 68.2359 55.1916 67.7352 55.1396L55.0437 53.8193C54.543 53.7673 54.1793 53.3192 54.2314 52.8185Z" fill="white"/>
</g>
<g filter="url(#filter2_d_696_8025)">
<path d="M136 8.929V30.07C136 32.792 133.793 34.999 131.071 34.999L114 35.07L104 46.07V35.07H96.929C94.207 35.07 92 32.863 92 30.141V9C92 6.278 94.207 4.071 96.929 4.071L131.07 4C133.793 4 136 6.207 136 8.929Z" fill="#EBBA16"/>
</g>
<path d="M114 15.4651H101C100.447 15.4651 100 15.0171 100 14.4651C100 13.9131 100.447 13.4651 101 13.4651H114C114.553 13.4651 115 13.9131 115 14.4651C115 15.0171 114.553 15.4651 114 15.4651Z" fill="white"/>
<path d="M127 21.4651H101C100.447 21.4651 100 21.0171 100 20.4651C100 19.9131 100.447 19.4651 101 19.4651H127C127.553 19.4651 128 19.9131 128 20.4651C128 21.0171 127.553 21.4651 127 21.4651Z" fill="white"/>
<path d="M127 27.4651H101C100.447 27.4651 100 27.0171 100 26.4651C100 25.9131 100.447 25.4651 101 25.4651H127C127.553 25.4651 128 25.9131 128 26.4651C128 27.0171 127.553 27.4651 127 27.4651Z" fill="white"/>
<path d="M241.219 16.8438L259.265 45.7188L300.172 57.75L305.721 59.69C305.989 59.4163 306.151 59.0373 306.139 58.6163V11.1169C306.139 10.2987 305.49 9.625 304.647 9.625H240.304C239.895 9.625 239.522 9.79344 239.251 10.0641L241.219 16.8438Z" fill="#FFCE7C"/>
<path d="M240.304 60.1323H304.672C305.081 60.1323 305.454 59.9638 305.721 59.6901L303.781 57.7501L241.219 12.0313L239.252 10.0642C238.981 10.3349 238.812 10.7079 238.812 11.1169V58.6404C238.812 59.4585 239.486 60.1323 240.304 60.1323Z" fill="#E19747"/>
<path d="M241.219 57.7259V12.0312H303.757V57.7259H241.219Z" fill="#44911B"/>
<path d="M255.656 43.3474C260.234 39.5669 266.104 37.2969 272.5 37.2969C278.9 37.2969 284.769 39.5702 289.344 43.3555L292.953 57.75L289.344 72.1875H255.656L252.047 57.75L255.656 43.3474Z" fill="#8C5543"/>
<path d="M261.167 45.5744L264.439 38.5H267.688V72.1875L260.95 53.2503C260.637 52.4081 260.878 51.4697 261.504 50.8441L264.776 47.6437C265.161 47.2587 264.896 46.5609 264.319 46.5609H261.792C261.287 46.5609 260.95 46.0316 261.167 45.5744Z" fill="#6D4534"/>
<path d="M283.954 45.5744L280.681 38.5H277.313V72.1875L284.17 53.2503C284.483 52.4081 284.243 51.4697 283.617 50.8441L280.345 47.6437C279.96 47.2587 280.224 46.5609 280.802 46.5609H283.328C283.834 46.5609 284.17 46.0316 283.954 45.5744Z" fill="#6D4534"/>
<path d="M255.656 43.3125C249.809 48.1972 246.007 55.5603 246.031 63.7656V72.1875H255.656V43.3125Z" fill="#6D4534"/>
<path d="M289.344 43.3125V72.1875H298.969V69.8048C298.969 69.797 298.969 69.7891 298.969 69.7812L298.945 63.7416C298.945 55.5363 295.239 48.1731 289.344 43.3125Z" fill="#6D4534"/>
<path d="M277.433 40.4731H267.543V72.1875H277.433V40.4731Z" fill="#E6E6E6"/>
<path d="M272.5 44.9246C269.837 44.9246 267.688 42.7108 267.688 39.9677V33.8077C267.688 31.0646 269.837 28.8508 272.5 28.8508C275.163 28.8508 277.313 31.0646 277.313 33.8077V39.9677C277.289 42.7108 275.14 44.9246 272.5 44.9246Z" fill="#B87A66"/>
<path d="M287.539 12.7291C286.817 11.4778 285.686 10.6116 284.435 10.1784C283.063 9.72125 281.86 8.80687 281.114 7.57969C280.08 5.91937 278.275 4.8125 276.205 4.8125C275.411 4.8125 274.641 4.98094 273.968 5.26969C273.029 5.67875 271.97 5.67875 271.032 5.26969C270.334 4.98094 269.588 4.8125 268.77 4.8125C266.725 4.8125 264.944 5.87125 263.934 7.48344C263.14 8.73469 261.936 9.69719 260.541 10.1784C259.217 10.6356 258.062 11.5741 257.34 12.8975C256.306 14.8225 256.522 17.1325 257.701 18.8409C258.135 19.4666 258.375 20.2125 258.375 20.9584V30.9925C258.375 33.2303 259.795 35.2034 261.912 35.9494L266.46 37.5134V19.6591C266.821 19.3222 267.11 18.9131 267.375 18.4559C267.784 17.7581 268.024 16.9881 268.096 16.2422C268.313 16.2662 268.554 16.2903 268.77 16.2903C270.19 16.2903 271.489 15.785 272.476 14.9187C273.486 15.7609 274.762 16.2903 276.181 16.2903C276.422 16.2903 276.639 16.2662 276.855 16.2422C276.951 17.0122 277.168 17.7581 277.577 18.4559C277.842 18.9131 278.155 19.2981 278.491 19.6591V37.5375L283.039 35.9734C285.157 35.2516 286.576 33.2544 286.576 31.0166V20.9825C286.576 20.2366 286.817 19.4906 287.25 18.865C288.501 17.0844 288.67 14.7022 287.539 12.7291Z" fill="#593B39"/>
<path d="M264.728 25.4823C264.728 27.7016 262.929 29.5007 260.709 29.5007C258.49 29.5007 256.691 27.7016 256.691 25.4823C256.691 23.263 258.49 21.4639 260.709 21.4639C262.929 21.4639 264.728 23.263 264.728 25.4823Z" fill="#BB806E"/>
<path d="M288.285 25.4823C288.285 27.7016 286.486 29.5007 284.266 29.5007C282.047 29.5007 280.248 27.7016 280.248 25.4823C280.248 23.263 282.047 21.4639 284.266 21.4639C286.486 21.4639 288.285 23.263 288.285 25.4823Z" fill="#BB806E"/>
<path d="M260.06 19.4337C260.104 14.9471 263.768 11.3093 268.265 11.3093H271.393C272.067 11.3093 272.644 11.7184 272.909 12.32C273.872 14.4615 276.013 15.809 278.347 15.809H281.788C283.713 15.9053 285.229 17.5175 285.181 19.4665L285.152 20.7127L284.411 32.6287C283.761 37.369 279.743 40.9062 274.954 40.9062H270.383C265.618 40.9062 261.576 37.369 260.926 32.6287L260.06 19.4337Z" fill="#C68D7B"/>
<path d="M263.673 19.3317C263.386 19.5555 263.334 19.9696 263.558 20.2567C263.782 20.5438 264.196 20.5951 264.483 20.3714L264.711 20.2219C264.877 20.1226 265.126 19.9891 265.445 19.863C266.084 19.6106 266.996 19.3906 268.092 19.5195C268.453 19.5621 268.781 19.3035 268.823 18.942C268.866 18.5805 268.607 18.2529 268.246 18.2104C266.887 18.0506 265.754 18.3239 264.961 18.637C264.564 18.7935 264.251 18.9609 264.033 19.0916C263.924 19.1571 263.838 19.2136 263.778 19.2555C263.748 19.2764 263.724 19.2937 263.706 19.3067L263.673 19.3317Z" fill="#593B39"/>
<path d="M281.466 20.2567C281.69 19.9696 281.638 19.5551 281.351 19.3314L281.347 19.3281L281.339 19.3227L281.318 19.3067C281.3 19.2937 281.276 19.2764 281.246 19.2555C281.186 19.2136 281.1 19.1571 280.991 19.0916C280.773 18.9609 280.46 18.7935 280.063 18.637C279.271 18.3239 278.137 18.0506 276.778 18.2104C276.417 18.2529 276.158 18.5805 276.201 18.942C276.243 19.3035 276.571 19.5621 276.932 19.5195C278.028 19.3906 278.94 19.6106 279.579 19.863C279.898 19.9891 280.147 20.1226 280.313 20.2219C280.396 20.2715 280.457 20.3124 280.496 20.3391C280.515 20.3525 280.529 20.3623 280.536 20.3679L280.543 20.3731C280.83 20.5949 281.243 20.5431 281.466 20.2567Z" fill="#593B39"/>
<path d="M263.308 24.7362C263.669 23.2443 265.016 22.1375 266.629 22.1375C268.289 22.1375 269.685 23.3165 269.997 24.9046C270.07 25.2656 269.805 25.5784 269.444 25.5784H263.958C263.525 25.5784 263.212 25.1693 263.308 24.7362Z" fill="white"/>
<path d="M281.716 24.7362C281.355 23.2443 280.007 22.1375 278.395 22.1375C276.711 22.1375 275.339 23.3165 275.026 24.9046C274.954 25.2656 275.219 25.5784 275.58 25.5784H281.066C281.499 25.5784 281.812 25.1693 281.716 24.7362Z" fill="white"/>
<path d="M264.944 25.001C264.944 23.7978 265.931 22.8113 267.134 22.8113C268.361 22.8113 269.324 23.7978 269.324 25.001C269.324 25.1935 269.3 25.386 269.252 25.5785H265.017C264.968 25.386 264.944 25.1935 264.944 25.001Z" fill="#7D4533"/>
<path d="M280.08 25.001C280.08 23.7978 279.093 22.8113 277.89 22.8113C276.663 22.8113 275.676 23.7978 275.7 25.001C275.7 25.1935 275.724 25.386 275.773 25.5785H280.008C280.056 25.386 280.08 25.1935 280.08 25.001Z" fill="#7D4533"/>
<path d="M267.134 23.7498C267.832 23.7498 268.385 24.3032 268.385 25.001C268.385 25.2176 268.337 25.4101 268.241 25.5785H266.027C265.931 25.4101 265.883 25.2176 265.883 25.001C265.883 24.3032 266.436 23.7498 267.134 23.7498Z" fill="black"/>
<path d="M277.89 23.7498C277.192 23.7498 276.639 24.3032 276.639 25.001C276.639 25.2176 276.687 25.4101 276.783 25.5785H278.997C279.093 25.4101 279.141 25.2176 279.141 25.001C279.141 24.3032 278.588 23.7498 277.89 23.7498Z" fill="black"/>
<path d="M266.773 24.1106C266.773 24.3232 266.601 24.4956 266.388 24.4956C266.176 24.4956 266.003 24.3232 266.003 24.1106C266.003 23.898 266.176 23.7256 266.388 23.7256C266.601 23.7256 266.773 23.898 266.773 24.1106Z" fill="white"/>
<path d="M277.577 24.1106C277.577 24.3232 277.405 24.4956 277.192 24.4956C276.98 24.4956 276.807 24.3232 276.807 24.1106C276.807 23.898 276.98 23.7256 277.192 23.7256C277.405 23.7256 277.577 23.898 277.577 24.1106Z" fill="white"/>
<path d="M271.754 24.8083L270.479 28.923C270.214 29.7652 270.84 30.6315 271.73 30.6315H273.607C274.497 30.6315 275.123 29.7652 274.858 28.923L273.583 24.8083C273.318 23.894 272.043 23.894 271.754 24.8083Z" fill="#AB6A55"/>
<path d="M272.5 32.9174C271.201 32.9174 269.974 32.6046 268.939 32.0511C268.578 31.8586 268.217 32.2677 268.434 32.6046C269.3 33.928 270.792 34.8183 272.5 34.8183C274.209 34.8183 275.7 33.928 276.567 32.6046C276.783 32.2677 276.398 31.8827 276.061 32.0511C275.027 32.6046 273.824 32.9174 272.5 32.9174Z" fill="#990838"/>
<g filter="url(#filter3_d_696_8025)">
<path d="M256.426 57.9907C256.426 56.6673 257.509 55.5845 258.833 55.5845C260.18 55.5845 261.239 56.6673 261.239 57.9907V63.501H256.426V57.9907Z" fill="#BB806E"/>
<path d="M288.55 57.9907C288.55 56.6673 287.467 55.5845 286.143 55.5845C284.796 55.5845 283.737 56.6673 283.737 57.9907V63.501H288.55V57.9907Z" fill="#BB806E"/>
</g>
<path d="M284.122 20.429H275.772C275.05 20.429 274.377 20.7658 273.919 21.3193C273.631 21.6802 273.198 21.8968 272.692 21.8968C272.187 21.8968 271.754 21.6802 271.465 21.3193C271.008 20.7658 270.334 20.429 269.612 20.429H261.239C260.781 20.429 260.42 20.7899 260.42 21.2471V21.7765C260.42 22.0411 260.541 22.2577 260.733 22.4021C260.829 22.4743 260.902 22.5946 260.902 22.7149V25.3618C260.902 27.8883 262.947 29.9577 265.498 29.9577H267.206C269.733 29.9577 271.802 27.9124 271.802 25.3618V23.894C271.826 23.4127 272.211 23.0518 272.692 23.0518C273.174 23.0518 273.559 23.4368 273.583 23.918V23.9661C273.583 23.9661 273.583 23.9661 273.583 23.9902V25.3618C273.583 27.8883 275.628 29.9577 278.179 29.9577H279.887C282.414 29.9577 284.483 27.9124 284.483 25.3618V22.6908C284.483 22.5705 284.531 22.4502 284.627 22.378C284.82 22.2336 284.94 21.993 284.94 21.7524V21.2471C284.94 20.7899 284.579 20.429 284.122 20.429ZM270.984 25.1211C270.984 27.3108 269.203 29.0915 267.014 29.0915H265.69C263.5 29.0915 261.72 27.3108 261.72 25.1211V23.3886C261.72 22.2096 262.658 21.2711 263.837 21.2711H268.842C270.021 21.2711 270.96 22.2096 270.96 23.3886V25.1211H270.984ZM283.689 25.1211C283.689 27.3108 281.908 29.0915 279.719 29.0915H278.395C276.205 29.0915 274.425 27.3108 274.425 25.1211V23.3886C274.425 22.2096 275.363 21.2711 276.542 21.2711H281.571C282.75 21.2711 283.689 22.2096 283.689 23.3886V25.1211Z" fill="#433B6B"/>
<path d="M261.214 55.055V72.1875H286.095V52.4803C286.095 51.3975 285.229 50.5312 284.146 50.5312H265.762C263.236 50.5072 261.214 52.5525 261.214 55.055Z" fill="#F92F60"/>
<path d="M258.808 72.1875V52.6487C258.808 50.1462 260.829 48.1009 263.356 48.125H284.146C285.229 48.125 286.095 48.9912 286.095 50.074V51.5769H262.875V72.1875H258.808Z" fill="#433B6B"/>
<path d="M286.071 50.1943H263.115C261.96 50.1943 261.022 51.1328 261.022 52.2878C261.022 53.4428 261.96 54.3812 263.115 54.3812H286.071V50.1943Z" fill="#E6E6E6"/>
<path d="M268.313 61.3353C268.289 60.3487 267.447 59.5788 266.46 59.5788V59.5547H258.52C257.365 59.5547 256.426 60.4931 256.426 61.6481V70.0941C256.426 71.2491 257.365 72.1875 258.52 72.1875H266.46C267.447 72.1875 268.289 71.4175 268.313 70.4309C268.313 69.7813 268 69.2038 267.495 68.8669C268 68.5541 268.313 68.0006 268.313 67.375C268.313 66.7494 267.976 66.1959 267.495 65.8831C268 65.5703 268.313 65.0169 268.313 64.3913C268.313 63.7656 267.976 63.2122 267.495 62.8994C268 62.5625 268.337 61.985 268.313 61.3353Z" fill="#C68D7B"/>
<path d="M276.663 61.3353C276.687 60.3487 277.529 59.5788 278.516 59.5788V59.5547H286.456C287.611 59.5547 288.55 60.4931 288.55 61.6481V70.0941C288.55 71.2491 287.611 72.1875 286.456 72.1875H278.516C277.529 72.1875 276.687 71.4175 276.663 70.4309C276.663 69.7813 276.976 69.2038 277.481 68.8669C276.976 68.5541 276.663 68.0006 276.663 67.375C276.663 66.7494 277 66.1959 277.481 65.8831C276.976 65.5703 276.663 65.0169 276.663 64.3913C276.663 63.7656 277 63.2122 277.481 62.8994C276.976 62.5625 276.639 61.985 276.663 61.3353Z" fill="#C68D7B"/>
<path d="M165.406 62.2812L183.922 91.9062L225.891 104.25L231.584 106.24C231.859 105.96 232.026 105.571 232.013 105.139V56.4056C232.013 55.5662 231.347 54.875 230.483 54.875H164.468C164.049 54.875 163.666 55.0478 163.388 55.3255L165.406 62.2812Z" fill="#FFCE7C"/>
<path d="M164.468 106.694H230.507C230.927 106.694 231.31 106.521 231.584 106.24L229.594 104.25L165.406 57.3436L163.388 55.3254C163.11 55.6032 162.938 55.9858 162.938 56.4055V105.163C162.938 106.003 163.629 106.694 164.468 106.694Z" fill="#E19747"/>
<path d="M165.406 104.225V57.3438H229.569V104.225H165.406Z" fill="#44911B"/>
<path d="M216.238 75.81C216.781 74.6744 217.077 73.4153 217.077 72.0822C217.077 70.3294 216.559 68.7 215.645 67.3422C214.732 65.9844 214.263 64.3797 214.263 62.7256V62.7009C214.263 57.9609 210.412 54.1097 205.672 54.1097C205.202 54.1097 204.758 53.8875 204.487 53.5172C202.956 51.3447 200.413 49.9375 197.549 49.9375C194.661 49.9375 192.118 51.3447 190.563 53.5172C190.291 53.9122 189.847 54.1344 189.378 54.1344C184.638 54.1344 180.787 57.9856 180.787 62.7256V62.7503C180.787 64.4044 180.317 65.9844 179.404 67.3669C178.515 68.7 177.972 70.3294 177.972 72.0822C177.972 73.4153 178.268 74.6744 178.812 75.81C178.984 76.1803 178.984 76.6247 178.812 76.995C178.268 78.1059 177.972 79.3403 177.972 80.6734C177.972 85.29 181.725 89.0425 186.341 89.0425H208.683C213.3 89.0425 217.052 85.29 217.052 80.6734C217.052 79.365 216.756 78.1059 216.213 76.995C216.065 76.6247 216.065 76.1803 216.238 75.81Z" fill="#FFF9BA"/>
<path d="M180.219 89.4733C184.916 85.5947 190.938 83.2656 197.5 83.2656C204.067 83.2656 210.088 85.598 214.781 89.4816L218.484 104.25L214.781 119.062H180.219L176.516 104.25L180.219 89.4733Z" fill="#8C5543"/>
<path d="M185.872 91.7581L189.23 84.5H192.563V119.062L185.65 99.6334C185.329 98.7694 185.576 97.8066 186.218 97.1647L189.575 93.8812C189.97 93.4862 189.699 92.7703 189.106 92.7703H186.514C185.996 92.7703 185.65 92.2272 185.872 91.7581Z" fill="#6D4534"/>
<path d="M209.251 91.7581L205.894 84.5H202.438V119.062L209.473 99.6334C209.794 98.7694 209.547 97.8066 208.906 97.1647L205.548 93.8812C205.153 93.4862 205.425 92.7703 206.017 92.7703H208.609C209.128 92.7703 209.473 92.2272 209.251 91.7581Z" fill="#6D4534"/>
<path d="M180.219 89.4375C174.22 94.4491 170.319 102.003 170.344 110.422V119.062H180.219V89.4375Z" fill="#6D4534"/>
<path d="M214.781 89.4375V119.062H224.656V116.618C224.656 116.61 224.656 116.602 224.656 116.594L224.632 110.397C224.632 101.979 220.83 94.4244 214.781 89.4375Z" fill="#6D4534"/>
<path d="M202.561 86.5244H192.414V119.063H202.561V86.5244Z" fill="#E6E6E6"/>
<path d="M197.5 91.0916C194.685 91.0916 192.414 88.8203 192.414 86.006V79.686C192.414 76.8716 194.685 74.6003 197.5 74.6003C200.314 74.6003 202.585 76.8716 202.585 79.686V86.006C202.561 88.8203 200.289 91.0916 197.5 91.0916Z" fill="#E4B29A"/>
<path d="M190.097 71.3909C190.097 73.6133 188.295 75.4149 186.073 75.4149C183.85 75.4149 182.049 73.6133 182.049 71.3909C182.049 69.1685 183.85 67.3668 186.073 67.3668C188.295 67.3668 190.097 69.1685 190.097 71.3909Z" fill="#E4B29A"/>
<path d="M212.803 71.3909C212.803 73.6133 211.002 75.4149 208.779 75.4149C206.557 75.4149 204.755 73.6133 204.755 71.3909C204.755 69.1685 206.557 67.3668 208.779 67.3668C211.002 67.3668 212.803 69.1685 212.803 71.3909Z" fill="#E4B29A"/>
<path d="M202.61 86.5491H192.439V119.112H202.61V86.5491Z" fill="#E6E6E6"/>
<path d="M197.5 91.1162C194.768 91.1162 192.562 88.845 192.562 86.0306V79.7106C192.562 76.8963 194.768 74.625 197.5 74.625C200.232 74.625 202.437 76.8963 202.437 79.7106V86.0306C202.437 88.845 200.232 91.1162 197.5 91.1162Z" fill="#E4B29A"/>
<path d="M207.721 63.9107H199.45C196.167 63.9107 193.106 62.2813 191.254 59.5904C190.933 59.146 190.266 59.2201 190.069 59.7385L189.871 60.2322C189.294 61.6519 187.655 62.8597 186.489 63.491C185.897 63.8119 184.465 64.7501 184.416 67.2188L184.761 75.4644C185.057 82.7719 190.686 87.6601 197.525 87.6601C204.363 87.6601 209.992 82.7719 210.288 75.4644L210.609 67.6138C210.609 64.1576 208.19 63.9107 207.721 63.9107Z" fill="#EEBFAA"/>
<path d="M190.736 68.7C192.192 68.7 193.402 69.7121 194.142 70.8478C193.542 71.0287 192.958 71.196 192.38 71.3614C191.224 71.6925 190.094 72.0162 188.909 72.4278L187.674 71.3168C187.181 70.8478 187.205 70.0084 187.773 69.6134C188.588 69.0209 189.699 68.7 190.736 68.7Z" fill="black"/>
<path d="M204.338 68.7C202.882 68.7 201.672 69.7121 200.932 70.8478C201.575 71.0444 202.203 71.2249 202.827 71.4045C203.926 71.7207 205.016 72.0341 206.165 72.4278L207.4 71.3168C207.893 70.8478 207.869 70.0084 207.301 69.6134C206.486 69.0209 205.375 68.7 204.338 68.7Z" fill="black"/>
<path d="M187.65 71.7119C188.045 70.1319 189.477 68.9716 191.18 68.9716C192.958 68.9716 194.414 70.2306 194.76 71.9094C194.834 72.255 194.538 72.6006 194.167 72.6006H188.366C187.897 72.6006 187.551 72.1562 187.65 71.7119Z" fill="white"/>
<path d="M207.4 71.7119C207.005 70.1319 205.573 68.9716 203.869 68.9716C202.117 68.9716 200.635 70.2306 200.314 71.9094C200.24 72.255 200.537 72.6006 200.907 72.6006H206.708C207.153 72.6006 207.523 72.1562 207.4 71.7119Z" fill="white"/>
<path d="M189.402 71.9835C189.402 70.6997 190.439 69.6628 191.723 69.6628C193.007 69.6628 194.044 70.6997 194.019 71.9835C194.019 72.2057 193.994 72.4032 193.945 72.6007H189.476C189.427 72.4032 189.402 72.2057 189.402 71.9835Z" fill="#7D4533"/>
<path d="M205.671 71.9835C205.671 70.6997 204.635 69.6628 203.351 69.6628C202.067 69.6628 201.006 70.6997 201.055 71.9835C201.055 72.2057 201.08 72.4032 201.129 72.6007H205.597C205.647 72.4032 205.671 72.2057 205.671 71.9835Z" fill="#7D4533"/>
<path d="M191.723 70.6503C192.464 70.6503 193.056 71.2428 193.056 71.9834C193.056 72.2056 192.982 72.4031 192.884 72.6006H190.538C190.44 72.4031 190.39 72.2056 190.39 71.9834C190.39 71.2428 190.983 70.6503 191.723 70.6503Z" fill="black"/>
<path d="M203.351 70.6503C202.61 70.6503 202.018 71.2428 202.018 71.9834C202.018 72.2056 202.067 72.4031 202.191 72.6006H204.536C204.635 72.4031 204.684 72.2056 204.684 71.9834C204.684 71.2428 204.092 70.6503 203.351 70.6503Z" fill="black"/>
<path d="M191.353 71.07C191.353 71.3017 191.165 71.4896 190.933 71.4896C190.702 71.4896 190.514 71.3017 190.514 71.07C190.514 70.8382 190.702 70.6503 190.933 70.6503C191.165 70.6503 191.353 70.8382 191.353 71.07Z" fill="white"/>
<path d="M202.981 71.07C202.981 71.3017 202.793 71.4896 202.561 71.4896C202.329 71.4896 202.141 71.3017 202.141 71.07C202.141 70.8382 202.329 70.6503 202.561 70.6503C202.793 70.6503 202.981 70.8382 202.981 71.07Z" fill="white"/>
<path d="M197.524 79.8093C196.167 79.8093 194.908 79.4884 193.821 78.9206C193.451 78.7231 193.081 79.1428 193.303 79.4884C194.192 80.8709 195.747 81.7843 197.524 81.7843C199.302 81.7843 200.857 80.8709 201.746 79.4884C201.968 79.1428 201.573 78.7231 201.228 78.9206C200.141 79.4884 198.882 79.8093 197.524 79.8093Z" fill="#990838"/>
<path d="M196.562 71.391L195.254 75.6619C194.982 76.526 195.649 77.4147 196.562 77.4147H198.512C199.426 77.4147 200.092 76.526 199.821 75.6619L198.488 71.391C198.191 70.4528 196.858 70.4528 196.562 71.391Z" fill="#D19479"/>
<path d="M206.387 67.2681C206.486 67.3422 206.61 67.3669 206.733 67.3669C206.98 67.3669 207.202 67.2434 207.326 66.9965C207.523 66.6509 207.424 66.2312 207.079 66.0337C207.005 65.9844 204.733 64.7253 202.141 65.1944C201.746 65.2684 201.499 65.6387 201.573 66.009C201.647 66.404 202.018 66.6509 202.388 66.5769C204.308 66.2381 206.041 67.0976 206.342 67.2465C206.37 67.2604 206.387 67.2681 206.387 67.2681Z" fill="#A56953"/>
<path d="M187.699 67.0212C187.847 67.2434 188.069 67.3669 188.316 67.3669C188.44 67.3669 188.563 67.3422 188.637 67.2928C188.662 67.2681 190.538 66.2312 192.637 66.6015C193.007 66.6756 193.377 66.404 193.451 66.0337C193.525 65.6634 193.254 65.2931 192.883 65.219C190.398 64.7457 188.231 65.9061 187.969 66.0462C187.958 66.0522 187.946 66.0584 187.946 66.0584C187.625 66.2559 187.502 66.6756 187.699 67.0212Z" fill="#A56953"/>
<path d="M209.276 67.4656H200.709C199.969 67.4656 199.278 67.8112 198.808 68.379C198.512 68.7493 198.068 68.9715 197.549 68.9715C197.031 68.9715 196.587 68.7493 196.29 68.379C195.821 67.8112 195.13 67.4656 194.389 67.4656H185.773C185.304 67.4656 184.934 67.8359 184.934 68.305V68.8481C184.934 69.1196 185.058 69.3418 185.255 69.49C185.354 69.564 185.428 69.6875 185.428 69.8109V72.5265C185.428 75.1187 187.526 77.2418 190.143 77.2418H191.896C194.488 77.2418 196.611 75.1434 196.611 72.5265V71.0206C196.636 70.5268 197.031 70.1565 197.525 70.1565C198.018 70.1565 198.413 70.5515 198.438 71.0453V71.0946C198.438 71.0946 198.438 71.0946 198.438 71.1193V72.5265C198.438 75.1434 200.561 77.2418 203.153 77.2418H204.906C207.523 77.2418 209.622 75.1187 209.622 72.5265V69.7862C209.622 69.6628 209.671 69.5393 209.77 69.4653C209.967 69.3171 210.091 69.0703 210.091 68.8234V68.2803C210.115 67.8359 209.745 67.4656 209.276 67.4656ZM195.797 72.2796C195.797 74.5262 193.97 76.3531 191.723 76.3531H190.365C188.119 76.3531 186.292 74.5262 186.292 72.2796V70.5021C186.292 69.2925 187.255 68.3296 188.464 68.3296H193.599C194.809 68.3296 195.772 69.2925 195.772 70.5021V72.2796H195.797ZM208.832 72.2796C208.832 74.5262 207.005 76.3531 204.758 76.3531H203.4C201.154 76.3531 199.327 74.5262 199.327 72.2796V70.5021C199.327 69.2925 200.29 68.3296 201.499 68.3296H206.659C207.869 68.3296 208.832 69.2925 208.832 70.5021V72.2796Z" fill="#433B6B"/>
<path d="M181.033 104.522C181.033 103.164 182.144 102.053 183.502 102.053C184.86 102.053 185.971 103.164 185.971 104.522V110.175H181.033V104.522Z" fill="#E4B29A"/>
<path d="M213.991 104.522C213.991 103.164 212.88 102.053 211.522 102.053C210.164 102.053 209.053 103.164 209.053 104.522V110.175H213.991V104.522Z" fill="#E4B29A"/>
<path d="M185.921 101.485V119.062H211.448V98.8434C211.448 97.7325 210.56 96.8437 209.449 96.8437H190.587C187.995 96.819 185.921 98.9175 185.921 101.485Z" fill="#F92F60"/>
<path d="M183.453 119.062V99.0162C183.453 96.4487 185.526 94.3503 188.119 94.375H209.449C210.56 94.375 211.448 95.2637 211.448 96.3747V97.9165H187.625V119.062H183.453Z" fill="#433B6B"/>
<path d="M211.424 96.4982H187.872C186.687 96.4982 185.724 97.461 185.724 98.646C185.724 99.831 186.687 100.794 187.872 100.794H211.424V96.4982Z" fill="#E6E6E6"/>
<path d="M193.204 107.928C193.18 106.916 192.316 106.126 191.303 106.126V106.102H183.157C181.972 106.102 181.009 107.064 181.009 108.249V116.915C181.009 118.1 181.972 119.062 183.157 119.062H191.303C192.316 119.062 193.18 118.273 193.204 117.26C193.204 116.594 192.883 116.001 192.365 115.656C192.883 115.335 193.204 114.767 193.204 114.125C193.204 113.483 192.859 112.915 192.365 112.594C192.883 112.273 193.204 111.706 193.204 111.064C193.204 110.422 192.859 109.854 192.365 109.533C192.883 109.188 193.229 108.595 193.204 107.928Z" fill="#EEBFAA"/>
<path d="M201.771 107.928C201.796 106.916 202.66 106.126 203.672 106.126V106.102H211.819C213.004 106.102 213.967 107.064 213.967 108.249V116.915C213.967 118.1 213.004 119.062 211.819 119.062H203.672C202.66 119.062 201.796 118.273 201.771 117.26C201.771 116.594 202.092 116.001 202.61 115.656C202.092 115.335 201.771 114.767 201.771 114.125C201.771 113.483 202.117 112.915 202.61 112.594C202.092 112.273 201.771 111.706 201.771 111.064C201.771 110.422 202.117 109.854 202.61 109.533C202.092 109.188 201.746 108.595 201.771 107.928Z" fill="#EEBFAA"/>
<g filter="url(#filter4_d_696_8025)">
<path d="M208 6.81188V18.8724C208 20.4252 209.254 21.6842 210.801 21.6842L220.5 21.7247L226.182 28V21.7247H230.199C231.746 21.7247 233 20.4657 233 18.9129V6.85239C233 5.29955 231.746 4.0405 230.199 4.0405L210.801 4C209.254 4 208 5.25904 208 6.81188Z" fill="#FC852E"/>
</g>
<path d="M220.467 11H213.533C213.238 11 213 10.552 213 10C213 9.448 213.238 9 213.533 9H220.467C220.762 9 221 9.448 221 10C221 10.552 220.762 11 220.467 11Z" fill="white"/>
<path d="M228.429 14H213.571C213.255 14 213 13.776 213 13.5C213 13.224 213.255 13 213.571 13H228.429C228.745 13 229 13.224 229 13.5C229 13.776 228.745 14 228.429 14Z" fill="white"/>
<path d="M228.429 17H213.571C213.255 17 213 16.776 213 16.5C213 16.224 213.255 16 213.571 16H228.429C228.745 16 229 16.224 229 16.5C229 16.776 228.745 17 228.429 17Z" fill="white"/>
<g filter="url(#filter5_d_696_8025)">
<path d="M133 56.8119V68.8724C133 70.4252 134.254 71.6842 135.801 71.6842L145.5 71.7247L151.182 78V71.7247H155.199C156.746 71.7247 158 70.4657 158 68.9129V56.8524C158 55.2995 156.746 54.0405 155.199 54.0405L135.801 54C134.254 54 133 55.259 133 56.8119Z" fill="#FC852E"/>
</g>
<path d="M145.467 61H138.533C138.238 61 138 60.552 138 60C138 59.448 138.238 59 138.533 59H145.467C145.762 59 146 59.448 146 60C146 60.552 145.762 61 145.467 61Z" fill="white"/>
<path d="M153.429 64H138.571C138.255 64 138 63.776 138 63.5C138 63.224 138.255 63 138.571 63H153.429C153.745 63 154 63.224 154 63.5C154 63.776 153.745 64 153.429 64Z" fill="white"/>
<path d="M153.429 67H138.571C138.255 67 138 66.776 138 66.5C138 66.224 138.255 66 138.571 66H153.429C153.745 66 154 66.224 154 66.5C154 66.776 153.745 67 153.429 67Z" fill="white"/>
<defs>
<filter id="filter0_d_696_8025" x="0.343018" y="8" width="112.574" height="102.447" filterUnits="userSpaceOnUse" color-interpolation-filters="sRGB">
<feFlood flood-opacity="0" result="BackgroundImageFix"/>
<feColorMatrix in="SourceAlpha" type="matrix" values="0 0 0 0 0 0 0 0 0 0 0 0 0 0 0 0 0 0 127 0" result="hardAlpha"/>
<feOffset dy="4"/>
<feGaussianBlur stdDeviation="5"/>
<feComposite in2="hardAlpha" operator="out"/>
<feColorMatrix type="matrix" values="0 0 0 0 0.156863 0 0 0 0 0.156863 0 0 0 0 0.164706 0 0 0 0.25 0"/>
<feBlend mode="normal" in2="BackgroundImageFix" result="effect1_dropShadow_696_8025"/>
<feBlend mode="normal" in="SourceGraphic" in2="effect1_dropShadow_696_8025" result="shape"/>
</filter>
<filter id="filter1_i_696_8025" x="53.3469" y="52.271" width="16.3428" height="13.0695" filterUnits="userSpaceOnUse" color-interpolation-filters="sRGB">
<feFlood flood-opacity="0" result="BackgroundImageFix"/>
<feBlend mode="normal" in="SourceGraphic" in2="BackgroundImageFix" result="shape"/>
<feColorMatrix in="SourceAlpha" type="matrix" values="0 0 0 0 0 0 0 0 0 0 0 0 0 0 0 0 0 0 127 0" result="hardAlpha"/>
<feOffset dy="4"/>
<feGaussianBlur stdDeviation="2"/>
<feComposite in2="hardAlpha" operator="arithmetic" k2="-1" k3="1"/>
<feColorMatrix type="matrix" values="0 0 0 0 0 0 0 0 0 0 0 0 0 0 0 0 0 0 0.25 0"/>
<feBlend mode="normal" in2="shape" result="effect1_innerShadow_696_8025"/>
</filter>
<filter id="filter2_d_696_8025" x="88" y="4" width="52" height="50.0701" filterUnits="userSpaceOnUse" color-interpolation-filters="sRGB">
<feFlood flood-opacity="0" result="BackgroundImageFix"/>
<feColorMatrix in="SourceAlpha" type="matrix" values="0 0 0 0 0 0 0 0 0 0 0 0 0 0 0 0 0 0 127 0" result="hardAlpha"/>
<feOffset dy="4"/>
<feGaussianBlur stdDeviation="2"/>
<feComposite in2="hardAlpha" operator="out"/>
<feColorMatrix type="matrix" values="0 0 0 0 0.156863 0 0 0 0 0.156863 0 0 0 0 0.164706 0 0 0 0.25 0"/>
<feBlend mode="normal" in2="BackgroundImageFix" result="effect1_dropShadow_696_8025"/>
<feBlend mode="normal" in="SourceGraphic" in2="effect1_dropShadow_696_8025" result="shape"/>
</filter>
<filter id="filter3_d_696_8025" x="252.426" y="55.5845" width="40.1235" height="15.9165" filterUnits="userSpaceOnUse" color-interpolation-filters="sRGB">
<feFlood flood-opacity="0" result="BackgroundImageFix"/>
<feColorMatrix in="SourceAlpha" type="matrix" values="0 0 0 0 0 0 0 0 0 0 0 0 0 0 0 0 0 0 127 0" result="hardAlpha"/>
<feOffset dy="4"/>
<feGaussianBlur stdDeviation="2"/>
<feColorMatrix type="matrix" values="0 0 0 0 0 0 0 0 0 0 0 0 0 0 0 0 0 0 0.25 0"/>
<feBlend mode="normal" in2="BackgroundImageFix" result="effect1_dropShadow_696_8025"/>
<feBlend mode="normal" in="SourceGraphic" in2="effect1_dropShadow_696_8025" result="shape"/>
</filter>
<filter id="filter4_d_696_8025" x="204" y="4" width="33" height="32" filterUnits="userSpaceOnUse" color-interpolation-filters="sRGB">
<feFlood flood-opacity="0" result="BackgroundImageFix"/>
<feColorMatrix in="SourceAlpha" type="matrix" values="0 0 0 0 0 0 0 0 0 0 0 0 0 0 0 0 0 0 127 0" result="hardAlpha"/>
<feOffset dy="4"/>
<feGaussianBlur stdDeviation="2"/>
<feComposite in2="hardAlpha" operator="out"/>
<feColorMatrix type="matrix" values="0 0 0 0 0.156863 0 0 0 0 0.156863 0 0 0 0 0.164706 0 0 0 0.25 0"/>
<feBlend mode="normal" in2="BackgroundImageFix" result="effect1_dropShadow_696_8025"/>
<feBlend mode="normal" in="SourceGraphic" in2="effect1_dropShadow_696_8025" result="shape"/>
</filter>
<filter id="filter5_d_696_8025" x="129" y="54" width="33" height="32" filterUnits="userSpaceOnUse" color-interpolation-filters="sRGB">
<feFlood flood-opacity="0" result="BackgroundImageFix"/>
<feColorMatrix in="SourceAlpha" type="matrix" values="0 0 0 0 0 0 0 0 0 0 0 0 0 0 0 0 0 0 127 0" result="hardAlpha"/>
<feOffset dy="4"/>
<feGaussianBlur stdDeviation="2"/>
<feComposite in2="hardAlpha" operator="out"/>
<feColorMatrix type="matrix" values="0 0 0 0 0.156863 0 0 0 0 0.156863 0 0 0 0 0.164706 0 0 0 0.25 0"/>
<feBlend mode="normal" in2="BackgroundImageFix" result="effect1_dropShadow_696_8025"/>
<feBlend mode="normal" in="SourceGraphic" in2="effect1_dropShadow_696_8025" result="shape"/>
</filter>
<linearGradient id="paint0_linear_696_8025" x1="44.1634" y1="25.8671" x2="23.6654" y2="86.2821" gradientUnits="userSpaceOnUse">
<stop stop-color="#F27F2E"/>
<stop offset="1" stop-color="#FF3838"/>
</linearGradient>
<linearGradient id="paint1_linear_696_8025" x1="40.7469" y1="63.9862" x2="76.5284" y2="139.865" gradientUnits="userSpaceOnUse">
<stop stop-color="#F27F2E"/>
<stop offset="1" stop-color="#FF3838"/>
</linearGradient>
<linearGradient id="paint2_linear_696_8025" x1="50.3973" y1="69.9892" x2="66.698" y2="97.9837" gradientUnits="userSpaceOnUse">
<stop/>
<stop offset="1" stop-color="#F27F2E" stop-opacity="0"/>
</linearGradient>
<linearGradient id="paint3_linear_696_8025" x1="80.518" y1="72.4697" x2="67.5033" y2="95.4406" gradientUnits="userSpaceOnUse">
<stop stop-color="#BFBFBF"/>
<stop offset="1"/>
</linearGradient>
<linearGradient id="paint4_linear_696_8025" x1="23.82" y1="82.0374" x2="11.8061" y2="58.1174" gradientUnits="userSpaceOnUse">
<stop stop-color="#BFBFBF"/>
<stop offset="1"/>
</linearGradient>
<linearGradient id="paint5_linear_696_8025" x1="101.226" y1="70.0211" x2="91.3445" y2="78.7686" gradientUnits="userSpaceOnUse">
<stop stop-color="#F27F2E"/>
<stop offset="1" stop-color="#FF3838"/>
</linearGradient>
<linearGradient id="paint6_linear_696_8025" x1="16.6096" y1="94.4207" x2="17.317" y2="81.2429" gradientUnits="userSpaceOnUse">
<stop stop-color="#F27F2E"/>
<stop offset="1" stop-color="#FF3838"/>
</linearGradient>
</defs>
</svg>
