<svg width="320" height="139" viewBox="0 0 320 139" fill="none" xmlns="http://www.w3.org/2000/svg">
<g filter="url(#filter0_d_696_8098)">
<path d="M67.2728 76.9198L83.5143 78.9573L83.213 81.0602C82.8213 83.7937 80.2878 85.692 77.5543 85.3003L71.3101 84.4055C68.6354 84.0223 66.7491 81.5833 67.0506 78.8981L67.2728 76.9198Z" fill="url(#paint0_linear_696_8098)"/>
<path d="M49.3843 84.4132C50.0325 80.8576 53.3213 78.4096 56.9134 78.809L92.7413 82.7929C96.3352 83.1925 99.0064 86.3059 98.8552 89.9188L97.6975 117.583C97.5346 121.474 94.1765 124.455 90.2929 124.155L50.4151 121.072C46.3471 120.758 43.4449 116.992 44.1767 112.978L49.3843 84.4132Z" fill="url(#paint1_linear_696_8098)"/>
<path d="M44.373 86.589L49.2074 85.8257L47.6808 94.4766H44.373V86.589Z" fill="#F27F2E"/>
<path d="M98.8228 90.151L102.894 91.9321L100.095 98.5475L98.5684 98.0386L98.8228 90.151Z" fill="#F37F2F"/>
<path d="M122.995 94.2219C117.143 100.074 106.763 96.3228 102.055 93.4586C102.055 93.9794 101.103 95.0761 100.35 97.7841C113.306 104.033 122.456 100.315 125.03 97.3644C124.591 96.7568 124.049 95.8884 122.995 94.2219Z" fill="url(#paint2_linear_696_8098)"/>
<path d="M44.6865 93.7406C35.6466 91.8278 28.2773 101.671 25.6478 107.225C25.3284 106.738 23.7694 106.291 21.4072 104.213C29.6452 90.4587 40.4794 87.3261 44.6865 88.5207C44.6497 89.3578 44.6471 91.5365 44.6865 93.7406Z" fill="url(#paint3_linear_696_8098)"/>
<path d="M128.296 93.047C129.183 95.6072 133.028 96.5996 136.884 95.2634C138.595 94.6708 140.02 93.7196 141 92.621C140.938 95.1314 139.873 97.6104 137.844 99.4062C133.971 102.835 128.052 102.475 124.623 98.6016C121.194 94.7284 121.554 88.809 125.427 85.3801C129.035 82.1868 134.416 82.2799 137.908 85.4362C136.606 85.312 135.14 85.4832 133.672 85.9918C129.816 87.328 127.409 90.4867 128.296 93.047Z" fill="url(#paint4_linear_696_8098)"/>
<path d="M21.246 108.618C18.7999 107.452 15.3937 109.494 13.6379 113.178C12.8591 114.813 12.5359 116.495 12.6307 117.964C10.8862 116.158 9.86847 113.659 10.0137 110.954C10.291 105.788 14.7033 101.826 19.8687 102.103C25.0341 102.38 28.9967 106.792 28.7194 111.958C28.4611 116.768 24.6166 120.536 19.9174 120.807C20.92 119.967 21.8275 118.802 22.4958 117.4C24.2516 113.715 23.692 109.784 21.246 108.618Z" fill="url(#paint5_linear_696_8098)"/>
<path d="M54.2947 41.669C55.1186 34.4964 61.6011 29.3497 68.7737 30.1736L92.9991 32.9564C100.172 33.7803 105.318 40.2628 104.495 47.4354L102.116 68.1434C101.249 75.6935 94.4249 81.1111 86.8747 80.2438L64.0164 77.6181C56.4662 76.7508 51.0487 69.9272 51.916 62.377L54.2947 41.669Z" fill="url(#paint6_linear_696_8098)"/>
<path d="M53.152 29.0938C53.221 28.8117 53.4695 28.6101 53.7598 28.6009C54.1299 28.5892 54.4343 28.8901 54.4268 29.2604L54.1374 43.5564C54.129 43.9704 53.7595 44.2832 53.3499 44.2233L50.3382 43.7825C49.9369 43.7238 49.6732 43.3325 49.7694 42.9385L53.152 29.0938Z" fill="#D9D9D9"/>
<path d="M47.5654 45.4457C47.7186 43.9334 49.0687 42.8317 50.5809 42.9849L55.9798 43.5319L54.7016 56.1486L49.3027 55.6016C47.7905 55.4484 46.6888 54.0983 46.842 52.5861L47.5654 45.4457Z" fill="#F56F31"/>
<path d="M107.998 35.1928C107.992 34.9084 107.799 34.6621 107.525 34.5886C107.163 34.4916 106.795 34.7256 106.73 35.0947L103.91 51.0516C103.839 51.4556 104.135 51.8319 104.544 51.8579L107.6 52.052C108.002 52.0775 108.34 51.7539 108.332 51.3512L107.998 35.1928Z" fill="#D9D9D9"/>
<path d="M110.83 53.2061C110.993 51.6949 109.901 50.3374 108.39 50.1739L102.995 49.5902L101.631 62.1979L107.026 62.7816C108.537 62.945 109.894 61.8526 110.058 60.3414L110.83 53.2061Z" fill="#F3792F"/>
<path d="M76.8667 46.963C76.4673 49.7845 74.7651 52.1094 72.4325 53.4459C70.8732 52.6807 68.8533 51.8926 66.8649 51.6111C64.8765 51.3297 62.7172 51.5263 61.0067 51.8288C59.1367 49.8974 58.1465 47.1914 58.5459 44.3699C59.2429 39.4451 63.9092 36.0333 68.9684 36.7494C74.0275 37.4654 77.5637 42.0382 76.8667 46.963Z" fill="white"/>
<path d="M99.2588 50.1323C98.8594 52.9538 97.1572 55.2787 94.8246 56.6153C93.2653 55.85 91.2454 55.0619 89.257 54.7805C87.2686 54.499 85.1093 54.6956 83.3988 54.9981C81.5288 53.0667 80.5386 50.3607 80.938 47.5392C81.635 42.6145 86.3013 39.2026 91.3605 39.9187C96.4196 40.6348 99.9558 45.2076 99.2588 50.1323Z" fill="white"/>
<path d="M67.8284 51.3107C71.2218 51.791 74.3502 49.5128 74.8159 46.2223C75.2816 42.9318 72.9083 39.875 69.515 39.3947C66.1217 38.9144 62.9933 41.1925 62.5275 44.483C62.0618 47.7735 64.4351 50.8304 67.8284 51.3107Z" fill="#28282A"/>
<path d="M88.309 54.2094C91.7024 54.6897 94.8308 52.4116 95.2965 49.1211C95.7622 45.8306 93.3889 42.7737 89.9956 42.2935C86.6023 41.8132 83.4739 44.0913 83.0081 47.3818C82.5424 50.6723 84.9157 53.7292 88.309 54.2094Z" fill="#28282A"/>
<g filter="url(#filter1_i_696_8098)">
<path d="M76.1112 73.4016C64.5617 72.241 65.7223 60.6915 65.7223 60.6915L88.8213 63.0127C88.8213 63.0127 87.6607 74.5622 76.1112 73.4016Z" fill="#A30A0A"/>
</g>
<path d="M66.941 61.4619L67.0055 60.8203L87.5379 62.8836L87.4734 63.5252C87.4022 64.2339 86.7699 64.7507 86.0612 64.6795L68.0953 62.8742C67.3866 62.8029 66.8698 62.1707 66.941 61.4619Z" fill="white"/>
<path d="M62.2728 22.0158C63.7928 22.0105 65.0206 20.7741 65.0153 19.2541C65.01 17.7341 63.7735 16.5063 62.2536 16.5116C60.7336 16.5169 59.5058 17.7534 59.5111 19.2734C59.5164 20.7933 60.7529 22.0212 62.2728 22.0158Z" fill="#F37F2F"/>
<circle cx="82.2056" cy="16.4417" r="4.1282" transform="rotate(-0.200431 82.2056 16.4417)" fill="#F27F2E"/>
<path d="M62.3384 19.6028L53.6971 27.9207L61.7692 19.5052C62.0196 19.1178 62.3988 19.4984 62.3384 19.6028Z" fill="#F27F2D"/>
<path d="M62.3384 19.6028L53.6971 27.9207L61.7692 19.5052C62.0196 19.1178 62.3988 19.4984 62.3384 19.6028Z" fill="#F27F2D"/>
<path d="M99.1732 25.5758C97.7987 25.1491 97.0304 23.689 97.4571 22.3146C97.8838 20.9401 99.3439 20.1718 100.718 20.5985C102.093 21.0252 102.861 22.4853 102.434 23.8598C102.008 25.2342 100.548 26.0025 99.1732 25.5758Z" fill="#F37F2F"/>
<path d="M83.7075 17.7983L101.034 23.5247L84.4216 17.2866C83.8227 16.9193 83.5558 17.6945 83.7075 17.7983Z" fill="#F27F2D"/>
<path d="M83.7075 17.7983L101.034 23.5247L84.4216 17.2866C83.8227 16.9193 83.5558 17.6945 83.7075 17.7983Z" fill="#F27F2D"/>
<path d="M82.2559 16.6163L91.1978 30.171L82.6403 16.0117C82.3348 15.2796 82.1788 16.4142 82.2559 16.6163Z" fill="#F27F2D"/>
<path d="M82.2559 16.6163L91.1978 30.171L82.6403 16.0117C82.3348 15.2796 82.1788 16.4142 82.2559 16.6163Z" fill="#F27F2D"/>
<path d="M82.2083 16.3632L67.1059 26.8152L81.4119 15.9942C81.8945 15.4517 82.3281 16.2143 82.2083 16.3632Z" fill="#F27F2D"/>
<path d="M82.2083 16.3632L67.1059 26.8152L81.4119 15.9942C81.8945 15.4517 82.3281 16.2143 82.2083 16.3632Z" fill="#F27F2D"/>
<path d="M79.6872 17.4549L61.5762 19.6882L79.0868 16.8137C79.7459 16.5703 79.8563 17.3828 79.6872 17.4549Z" fill="#F27F2D"/>
<path d="M79.6872 17.4549L61.5762 19.6882L79.0868 16.8137C79.7459 16.5703 79.8563 17.3828 79.6872 17.4549Z" fill="#F27F2D"/>
<path d="M61.2538 17.6155L68.1442 27.4468L61.0286 18.1445C60.675 17.8327 61.157 17.5383 61.2538 17.6155Z" fill="#F27F2D"/>
<path d="M61.2538 17.6155L68.1442 27.4468L61.0286 18.1445C60.675 17.8327 61.157 17.5383 61.2538 17.6155Z" fill="#F27F2D"/>
<path d="M98.4163 23.424L91.1989 30.1713L99.8176 23.3819C99.927 23.2955 99.7028 23.234 99.3204 23.2434C98.9344 23.2532 98.536 23.3309 98.4266 23.4166C98.4231 23.4183 98.4197 23.4215 98.4163 23.424Z" fill="#F27F2D"/>
<path d="M100.904 23.4794L107.035 33.556L100.332 23.9448C100.196 23.7385 100.212 23.4649 100.366 23.3319C100.521 23.1984 100.756 23.2579 100.892 23.4621C100.895 23.4657 100.9 23.4736 100.904 23.4794Z" fill="#F27F2D"/>
<path d="M52.9045 30.8057C51.6344 30.4114 50.9244 29.0621 51.3187 27.7919C51.713 26.5218 53.0623 25.8117 54.3325 26.2061C55.6027 26.6004 56.3127 27.9497 55.9183 29.2199C55.524 30.49 54.1747 31.2001 52.9045 30.8057Z" fill="#F37B2F"/>
<path d="M66.8063 27.5613C65.9709 27.302 65.5039 26.4144 65.7632 25.579C66.0226 24.7435 66.9101 24.2765 67.7456 24.5359C68.581 24.7952 69.048 25.6828 68.7887 26.5182C68.5293 27.3537 67.6418 27.8207 66.8063 27.5613Z" fill="#F37B2F"/>
<path d="M90.6506 31.606C89.8151 31.3466 89.3481 30.4591 89.6075 29.6237C89.8668 28.7882 90.7544 28.3212 91.5898 28.5806C92.4253 28.8399 92.8923 29.7274 92.6329 30.5629C92.3736 31.3983 91.486 31.8654 90.6506 31.606Z" fill="#F37B2F"/>
<path d="M107.389 36.3068C108.719 36.3022 109.794 35.2202 109.789 33.8903C109.784 32.5603 108.702 31.4859 107.372 31.4906C106.043 31.4953 104.968 32.5772 104.973 33.9071C104.977 35.2371 106.059 36.3115 107.389 36.3068Z" fill="#F37B2F"/>
</g>
<path d="M154 99.5967V57.0308C154 56.3895 154.123 55.7542 154.363 55.1595L163.326 32.9525C164.089 31.0618 165.923 29.8237 167.962 29.8237H189.067C191.219 29.8237 193.129 31.2008 193.81 33.2424L201.16 55.29C201.33 55.7999 201.417 56.3339 201.417 56.8714V99.5967C201.417 102.358 199.178 104.597 196.417 104.597H159C156.239 104.597 154 102.358 154 99.5967Z" fill="#FF3838"/>
<path d="M174.595 61.1157V103.061H165.952V61.1157H174.595ZM191.304 79.0347V85.7759H172.232V79.0347H191.304ZM193.32 61.1157V67.8857H172.232V61.1157H193.32Z" fill="white"/>
<circle cx="177.253" cy="42.1339" r="5.92712" fill="white"/>
<circle cx="177.253" cy="42.1339" r="2.27966" fill="#28282A"/>
<path d="M193.272 104.724L188.227 62.4581C188.151 61.8213 188.199 61.1759 188.367 60.557L194.634 37.4444C195.168 35.4765 196.843 34.0298 198.867 33.7882L219.823 31.2874C221.96 31.0323 224.02 32.1733 224.938 34.1198L234.849 55.1411C235.078 55.6272 235.228 56.1472 235.291 56.6809L240.354 99.1052C240.682 101.847 238.724 104.335 235.982 104.662L198.829 109.096C196.087 109.424 193.599 107.466 193.272 104.724Z" fill="#FF3838"/>
<path d="M200.579 65.098L216.112 63.2443C219.297 62.8642 222.09 63.0144 224.493 63.6948C226.914 64.373 228.856 65.5725 230.318 67.2935C231.781 69.0144 232.675 71.2385 233.001 73.9655C233.267 76.1968 233.114 78.1589 232.542 79.8518C231.988 81.5234 231.087 82.9751 229.842 84.2069C228.613 85.4174 227.121 86.4465 225.365 87.2943L222.818 89.0489L209.316 90.6602L208.46 83.9734L218.501 82.7751C220.007 82.5953 221.225 82.1793 222.153 81.5269C223.081 80.8746 223.736 80.0421 224.118 79.0294C224.519 78.0145 224.644 76.8777 224.494 75.619C224.335 74.2841 223.949 73.1599 223.337 72.2465C222.725 71.3331 221.883 70.6792 220.811 70.2849C219.739 69.8907 218.44 69.7846 216.914 69.9666L209.963 70.7962L214.131 105.724L205.55 106.748L200.579 65.098ZM228.835 103.969L217.122 86.5373L226.183 85.3979L237.969 102.473L238.017 102.873L228.835 103.969Z" fill="white"/>
<circle cx="209.551" cy="44.9109" r="5.92712" transform="rotate(-6.80554 209.551 44.9109)" fill="white"/>
<circle cx="209.551" cy="44.9109" r="2.27966" transform="rotate(-6.80554 209.551 44.9109)" fill="#28282A"/>
<path d="M230.597 99.5967V57.0308C230.597 56.3895 230.72 55.7542 230.96 55.1595L239.922 32.9525C240.685 31.0618 242.52 29.8237 244.559 29.8237H265.663C267.815 29.8237 269.726 31.2008 270.407 33.2424L277.757 55.29C277.927 55.7999 278.014 56.3339 278.014 56.8714V99.5967C278.014 102.358 275.775 104.597 273.014 104.597H235.597C232.835 104.597 230.597 102.358 230.597 99.5967Z" fill="#FF3838"/>
<path d="M270.695 96.3198V103.061H248.368V96.3198H270.695ZM251.191 61.1157V103.061H242.549V61.1157H251.191ZM267.785 78.1992V84.7676H248.368V78.1992H267.785ZM270.666 61.1157V67.8857H248.368V61.1157H270.666Z" fill="white"/>
<circle cx="253.849" cy="42.1339" r="5.92712" fill="white"/>
<circle cx="253.849" cy="42.1339" r="2.27966" fill="#28282A"/>
<path d="M267.793 97.6325L270.493 55.1522C270.534 54.5123 270.697 53.8861 270.974 53.3078L281.327 31.714C282.209 29.8754 284.118 28.7563 286.153 28.8856L307.215 30.2242C309.362 30.3607 311.182 31.8561 311.732 33.9368L317.669 56.4063C317.806 56.9259 317.859 57.4643 317.825 58.0007L315.115 100.64C314.94 103.396 312.564 105.488 309.808 105.313L272.466 102.94C269.71 102.764 267.618 100.388 267.793 97.6325Z" fill="#FF3838"/>
<path d="M308.018 96.9055L307.591 103.633L285.309 102.217L285.737 95.4893L308.018 96.9055ZM290.787 60.5352L288.127 102.396L279.501 101.848L282.162 59.987L290.787 60.5352ZM306.264 78.6368L305.847 85.1919L286.469 83.9604L286.886 77.4052L306.264 78.6368ZM310.223 61.7704L309.793 68.5268L287.54 67.1125L287.97 60.3561L310.223 61.7704Z" fill="white"/>
<circle cx="294.644" cy="41.7601" r="5.92712" transform="rotate(3.63658 294.644 41.7601)" fill="white"/>
<circle cx="294.644" cy="41.7601" r="2.27966" transform="rotate(3.63658 294.644 41.7601)" fill="#28282A"/>
<line x1="178.5" x2="178.5" y2="41" stroke="black" stroke-dasharray="2 2"/>
<line x1="210.5" x2="210.5" y2="43" stroke="black" stroke-dasharray="2 2"/>
<line x1="255.5" x2="255.5" y2="41" stroke="black" stroke-dasharray="2 2"/>
<line x1="295.5" x2="295.5" y2="41" stroke="black" stroke-dasharray="2 2"/>
<defs>
<filter id="filter0_d_696_8098" x="0" y="6.31348" width="151" height="131.862" filterUnits="userSpaceOnUse" color-interpolation-filters="sRGB">
<feFlood flood-opacity="0" result="BackgroundImageFix"/>
<feColorMatrix in="SourceAlpha" type="matrix" values="0 0 0 0 0 0 0 0 0 0 0 0 0 0 0 0 0 0 127 0" result="hardAlpha"/>
<feOffset dy="4"/>
<feGaussianBlur stdDeviation="5"/>
<feComposite in2="hardAlpha" operator="out"/>
<feColorMatrix type="matrix" values="0 0 0 0 0 0 0 0 0 0 0 0 0 0 0 0 0 0 0.25 0"/>
<feBlend mode="normal" in2="BackgroundImageFix" result="effect1_dropShadow_696_8098"/>
<feBlend mode="normal" in="SourceGraphic" in2="effect1_dropShadow_696_8098" result="shape"/>
</filter>
<filter id="filter1_i_696_8098" x="65.6899" y="60.6915" width="23.1313" height="16.792" filterUnits="userSpaceOnUse" color-interpolation-filters="sRGB">
<feFlood flood-opacity="0" result="BackgroundImageFix"/>
<feBlend mode="normal" in="SourceGraphic" in2="BackgroundImageFix" result="shape"/>
<feColorMatrix in="SourceAlpha" type="matrix" values="0 0 0 0 0 0 0 0 0 0 0 0 0 0 0 0 0 0 127 0" result="hardAlpha"/>
<feOffset dy="4"/>
<feGaussianBlur stdDeviation="2"/>
<feComposite in2="hardAlpha" operator="arithmetic" k2="-1" k3="1"/>
<feColorMatrix type="matrix" values="0 0 0 0 0 0 0 0 0 0 0 0 0 0 0 0 0 0 0.25 0"/>
<feBlend mode="normal" in2="shape" result="effect1_innerShadow_696_8098"/>
</filter>
<linearGradient id="paint0_linear_696_8098" x1="66.6801" y1="86.1777" x2="89.7467" y2="125.792" gradientUnits="userSpaceOnUse">
<stop/>
<stop offset="1" stop-color="#F27F2E" stop-opacity="0"/>
</linearGradient>
<linearGradient id="paint1_linear_696_8098" x1="53.0251" y1="77.6836" x2="103.659" y2="185.057" gradientUnits="userSpaceOnUse">
<stop stop-color="#F27F2E"/>
<stop offset="1" stop-color="#FF3838"/>
</linearGradient>
<linearGradient id="paint2_linear_696_8098" x1="109.303" y1="89.6881" x2="90.8861" y2="122.194" gradientUnits="userSpaceOnUse">
<stop stop-color="#BFBFBF"/>
<stop offset="1"/>
</linearGradient>
<linearGradient id="paint3_linear_696_8098" x1="29.209" y1="103.378" x2="12.2086" y2="69.5294" gradientUnits="userSpaceOnUse">
<stop stop-color="#BFBFBF"/>
<stop offset="1"/>
</linearGradient>
<linearGradient id="paint4_linear_696_8098" x1="138.605" y1="86.2233" x2="124.623" y2="98.6016" gradientUnits="userSpaceOnUse">
<stop stop-color="#F27F2E"/>
<stop offset="1" stop-color="#FF3838"/>
</linearGradient>
<linearGradient id="paint5_linear_696_8098" x1="18.8675" y1="120.75" x2="19.8687" y2="102.103" gradientUnits="userSpaceOnUse">
<stop stop-color="#F27F2E"/>
<stop offset="1" stop-color="#FF3838"/>
</linearGradient>
<linearGradient id="paint6_linear_696_8098" x1="62.8951" y1="28.6708" x2="32.3086" y2="106.424" gradientUnits="userSpaceOnUse">
<stop stop-color="#F27F2E"/>
<stop offset="1" stop-color="#FF3838"/>
</linearGradient>
</defs>
</svg>
