<svg xmlns="http://www.w3.org/2000/svg" viewBox="0 0 418.2 186.76"><defs><style>.cls-1{fill:#f3792f;}.cls-2{fill:#fe3737;}.cls-3{font-size:89.47px;}.cls-10,.cls-3,.cls-5{fill:#fff;}.cls-3,.cls-4,.cls-5{stroke:#fff;}.cls-11,.cls-3,.cls-4,.cls-5{stroke-miterlimit:10;}.cls-3,.cls-5{stroke-width:2px;font-family:MyriadPro-Regular, Myriad Pro;}.cls-4,.cls-6{fill:#28282a;}.cls-4{stroke-width:3.64px;}.cls-5{font-size:89.47px;}.cls-7{fill:#a20a0a;}.cls-8{fill:#d9d9d9;}.cls-9{fill:#f2792e;}.cls-11{fill:none;stroke:#f6eeca;stroke-linecap:round;stroke-width:2.32px;stroke-dasharray:10.42;}</style></defs><title>An AI Assistant for Free!!!</title><g id="Слой_2" data-name="Слой 2"><path class="cls-1" d="M169.15,231.6c.81.19,1.44,2.78,2.16,3.61,1.39,1.58.9,3,.43,4.4a3.67,3.67,0,0,1,.33,3.33c-.5.95-1.8,1.77-2,2.57s-.1,3.34-1.65,4.66-5.38-.22-6-.29C163.87,244.11,164.27,235.85,169.15,231.6Z" transform="translate(-3.89 -97.98)"/><path class="cls-2" d="M227.26,262.79H178.19a9.4,9.4,0,0,1-9.4-9.4V197.85a9.4,9.4,0,0,1,.75-3.69l7.77-22.76a9.4,9.4,0,0,1,8.65-5.71h33.52a9.4,9.4,0,0,1,8.65,5.71l7.77,22.76a9.4,9.4,0,0,1,.75,3.69v55.53A9.4,9.4,0,0,1,227.26,262.79Z" transform="translate(-3.89 -97.98)"/><text class="cls-3" transform="translate(177.05 154.72)">F</text><rect class="cls-4" x="194.11" y="73.86" width="9.46" height="9.46" rx="4.73" ry="4.73"/><path class="cls-2" d="M291.19,266l-48.76,5.52A9.4,9.4,0,0,1,232,263.2L225.79,208a9.4,9.4,0,0,1,.33-3.75l5.16-23.49a9.4,9.4,0,0,1,7.95-6.65l33.31-3.77a9.4,9.4,0,0,1,9.23,4.7l10.28,21.74a9.4,9.4,0,0,1,1.16,3.58l6.24,55.18A9.4,9.4,0,0,1,291.19,266Z" transform="translate(-3.89 -97.98)"/><text class="cls-5" transform="translate(237.87 163.43) rotate(-6.45)">R</text><rect class="cls-4" x="251.25" y="178.45" width="9.46" height="9.46" rx="4.73" ry="4.73" transform="translate(-22.86 -68.04) rotate(-6.45)"/><path class="cls-2" d="M351.46,265.92H302.39a9.4,9.4,0,0,1-9.4-9.4V201a9.4,9.4,0,0,1,.75-3.69l7.77-22.76a9.4,9.4,0,0,1,8.65-5.71h33.52a9.4,9.4,0,0,1,8.65,5.71l7.77,22.76a9.4,9.4,0,0,1,.75,3.69v55.53A9.4,9.4,0,0,1,351.46,265.92Z" transform="translate(-3.89 -97.98)"/><text class="cls-3" transform="translate(301.25 157.85)">E</text><rect class="cls-4" x="318.3" y="76.99" width="9.46" height="9.46" rx="4.73" ry="4.73"/><path class="cls-2" d="M412.69,270.16H363.63a9.4,9.4,0,0,1-9.4-9.4V205.23a9.4,9.4,0,0,1,.75-3.69l7.77-22.76a9.4,9.4,0,0,1,8.65-5.71h33.52a9.4,9.4,0,0,1,8.65,5.71l7.77,22.76a9.4,9.4,0,0,1,.75,3.69v55.53A9.4,9.4,0,0,1,412.69,270.16Z" transform="translate(-3.89 -97.98)"/><text class="cls-3" transform="translate(362.48 162.1)">E</text><rect class="cls-4" x="379.54" y="81.23" width="9.46" height="9.46" rx="4.73" ry="4.73"/><rect class="cls-1" x="118.34" y="218.43" width="13.17" height="38.25" rx="6.19" ry="6.19" transform="matrix(-0.97, 0.26, -0.26, -0.97, 303.19, 336.68)"/><path class="cls-1" d="M154.29,240.94l-20,6.47a5.36,5.36,0,0,0-3.09,6.89l.88,2.32a5.36,5.36,0,0,0,6.89,3.09L157.82,249Z" transform="translate(-3.89 -97.98)"/><circle class="cls-6" cx="132.7" cy="253.78" r="4.75" transform="translate(-150.66 218.32) rotate(-75.01)"/><polygon class="cls-7" points="103.96 108.17 103.47 117.19 79.63 113.82 83.45 105.16 103.96 108.17"/><path class="cls-1" d="M131.4,171.58s1.76-7.93-2.72-13.28c-4.11-4.9-4.85-5.15-23.78-7.8-18.41-2.57-20-3.31-25.25.7C73.74,155.71,73,163.88,73,163.88s-4.81-1-6-.85-2.11,1-2.61,3.87-1.18,7.06-1.21,7.9a3.26,3.26,0,0,0,2.42,2.69c1.4.28,5.43,1,5.43,1s-1.61,7.61-1.08,11.31a14.73,14.73,0,0,0,7.7,11.38c5.34,2.81,16,3.62,23.41,4.75s11.3,2.55,17.44.25,7.77-7,8.77-9.11,2-10.82,2-10.82a33.72,33.72,0,0,0,4.8.72c1.29,0,2.17-1,2.67-2.85s1.55-8.1,1.26-9.51S136.49,172.13,131.4,171.58Z" transform="translate(-3.89 -97.98)"/><polygon class="cls-8" points="132.66 74.82 132.83 59.1 131.03 58.9 127.51 73.6 132.66 74.82"/><circle class="cls-9" cx="136.47" cy="155.12" r="2.83" transform="translate(-52.58 148.83) rotate(-75.01)"/><circle class="cls-9" cx="129.6" cy="142.16" r="3.26" transform="translate(-45.14 132.58) rotate(-75.01)"/><circle class="cls-9" cx="85.94" cy="135.03" r="3.26" transform="translate(-70.62 85.13) rotate(-75.01)"/><circle class="cls-9" cx="107.85" cy="132.95" r="4.93" transform="matrix(0.26, -0.97, 0.97, 0.26, -52.37, 104.75)"/><circle class="cls-9" cx="121.85" cy="148.29" r="1.87" transform="translate(-56.8 129.65) rotate(-75.01)"/><circle class="cls-9" cx="93.8" cy="145.59" r="1.87" transform="matrix(0.26, -0.97, 0.97, 0.26, -74.99, 100.55)"/><polygon class="cls-8" points="69.67 63.05 70.69 49.44 69.18 49.03 64.53 65.1 69.13 65.9 69.67 63.05"/><circle class="cls-9" cx="74.28" cy="144.94" r="2.83" transform="translate(-88.83 81.21) rotate(-75.01)"/><polygon class="cls-9" points="131.63 54.77 126.75 46.75 127.11 46.54 131.79 54.68 131.63 54.77"/><polygon class="cls-9" points="118.61 49.76 123.4 45.87 123.66 46.2 118.72 49.9 118.61 49.76"/><polygon class="cls-9" points="123.49 43.78 107.63 37.1 107.79 36.72 123.56 43.62 123.49 43.78"/><polygon class="cls-9" points="84.34 36.88 99.59 35.6 99.62 36.02 84.35 37.06 84.34 36.88"/><polygon class="cls-9" points="90.89 46.67 100.44 37.63 100.72 37.94 91.02 46.8 90.89 46.67"/><polygon class="cls-9" points="89.08 46.97 83.69 39.19 84.03 38.95 89.23 46.87 89.08 46.97"/><polygon class="cls-9" points="72.07 45.63 79.55 38.72 79.83 39.03 72.19 45.77 72.07 45.63"/><polygon class="cls-9" points="116.87 50.09 107.02 38.47 107.34 38.2 117.01 49.97 116.87 50.09"/><path class="cls-10" d="M105.19,167.52a10.54,10.54,0,0,0,2.67,10.13,16.06,16.06,0,0,1,8.89,0,17.79,17.79,0,0,1,4.09,1.65,10.55,10.55,0,1,0-15.65-11.76Z" transform="translate(-3.89 -97.98)"/><circle class="cls-6" cx="115.5" cy="169.79" r="7.03" transform="matrix(0.26, -0.97, 0.97, 0.26, -82.28, 139.45)"/><path class="cls-10" d="M99.85,166.8a10.54,10.54,0,0,1-5,9.2,16.06,16.06,0,0,0-8.63-2.15,17.79,17.79,0,0,0-4.36.63,10.55,10.55,0,1,1,18-7.68Z" transform="translate(-3.89 -97.98)"/><circle class="cls-6" cx="89.48" cy="166.33" r="7.03" transform="translate(-7.28 -96.11) rotate(-1.17)"/><path class="cls-7" d="M86.43,183.31S84.27,196.83,97.82,199s15.32-11.21,15.32-11.21l-1.52-.25-.15.7a1.71,1.71,0,0,1-2,1.33l-20.26-3.4a1.71,1.71,0,0,1-1.39-2l.11-.55Z" transform="translate(-3.89 -97.98)"/><path class="cls-10" d="M88,183.57l-.11.55a1.71,1.71,0,0,0,1.39,2l20.26,3.4a1.71,1.71,0,0,0,2-1.33l.15-.7Z" transform="translate(-3.89 -97.98)"/><path class="cls-1" d="M58.87,264.26l42.88,11.48c8.18,2.19,16.49-3.93,17.48-12.86l3.58-32.48c.78-7.1-3.42-13.6-9.93-15.35l-33.33-8.93c-6.51-1.74-13.39,1.79-16.27,8.33L50.15,244.39C46.54,252.61,50.69,262.07,58.87,264.26Z" transform="translate(-3.89 -97.98)"/><rect class="cls-1" x="51.71" y="201.44" width="13.17" height="38.25" rx="6.19" ry="6.19" transform="translate(169.12 -74.61) rotate(44.99)"/><path class="cls-1" d="M21.92,233.11l16.28-4.68a5.36,5.36,0,0,1,6.11,4.45l.39,2.45a5.36,5.36,0,0,1-4.45,6.11l-19.4-1.12Z" transform="translate(-3.89 -97.98)"/><circle class="cls-6" cx="44.09" cy="233.12" r="4.75" transform="translate(-196.39 117.41) rotate(-75.01)"/><path class="cls-1" d="M24.22,232.74c-.45-2.08-.44-3.77-2-5.18-1.48,0-3,.17-4.48.11.18.38.16.62-.25.84-.94.5-7.62-5.94-9.69-5.49s-1.46,2.38-.32,3.12,4.24,2.57,3.84,3.21-6.39-3-7.21-1.13.38,3.41,2.65,3.9,3.39.84,3.26,1.38-5.57-.55-5.23,1.06,1.33,2.2,3.36,2.26,2.15.43,2.17,1.13-3.63-.66-3.57,1.13,3,1.77,5.53,1.87,5.59,2.06,8.29.39S24.72,235.08,24.22,232.74Z" transform="translate(-3.89 -97.98)"/><path class="cls-1" d="M21.6,227c-2.19-1.52-2.52-4.14-2.65-5.51s-3.42,1.29-2.48,3.61c.53,1.31,1.2,3.33,1.43,3.82,1.47.06,2.89-1.44,4.37-1.39A5.78,5.78,0,0,0,21.6,227Z" transform="translate(-3.89 -97.98)"/><path class="cls-1" d="M158.09,237.93c1.83-1.79,4.2-5.68,5.66-6.47s6.32-3.91,7.4-2.92c1.63,1.5,1.51,3.25-1.62,5.34s-5.66,10.23-7.1,16l-7.13-.77-4.52-5.73A78.19,78.19,0,0,0,158.09,237.93Z" transform="translate(-3.89 -97.98)"/><path class="cls-1" d="M105.31,176.64s12.69-3.79,21-2.3c6.18,1.1-2.58,9.63-2.58,9.63Z" transform="translate(-3.89 -97.98)"/><path class="cls-1" d="M96.95,175.76s-11.1-7.3-19.56-7.59c-6.27-.21,0,10.89,0,10.89Z" transform="translate(-3.89 -97.98)"/><line class="cls-11" x1="198.84" y1="1.16" x2="198.84" y2="71.51"/><line class="cls-11" x1="252.09" y1="1.16" x2="252.09" y2="71.51"/><line class="cls-11" x1="323.03" y1="1.16" x2="323.03" y2="71.51"/><line class="cls-11" x1="384.27" y1="1.16" x2="384.27" y2="71.51"/></g></svg>