<svg width="321" height="138" viewBox="0 0 321 138" fill="none" xmlns="http://www.w3.org/2000/svg">
<g filter="url(#filter0_d_698_12586)">
<path d="M48.1484 28.4697C48.4731 25.7274 50.9594 23.7676 53.7016 24.0924L110.788 30.8522C113.531 31.177 115.49 33.6632 115.166 36.4055L112.139 61.9679C110.84 72.937 100.895 80.7762 89.9256 79.4773L62.6308 76.2452C51.6617 74.9463 43.8225 65.0011 45.1214 54.0321L48.1484 28.4697Z" fill="url(#paint0_linear_698_12586)"/>
<rect x="66.0806" y="20.1926" width="10.1482" height="6.08892" rx="2" transform="rotate(7.29054 66.0806 20.1926)" fill="#EC7115"/>
<rect x="94.4956" y="23.7446" width="10.1482" height="6.08892" rx="2" transform="rotate(7.29054 94.4956 23.7446)" fill="#EC7115"/>
<path d="M72.0817 9.39696C72.1587 9.10898 72.4196 8.90866 72.7177 8.90865V8.90865C73.0812 8.90865 73.3759 9.20336 73.3759 9.56691L73.3759 20.9696C73.3759 21.581 72.8323 22.0492 72.2277 21.9586L69.9665 21.6196C69.3764 21.5311 68.9946 20.9489 69.1487 20.3725L72.0817 9.39696Z" fill="#D9D9D9"/>
<path d="M100.497 12.949C100.574 12.661 100.835 12.4607 101.133 12.4607V12.4607C101.496 12.4606 101.791 12.7554 101.791 13.1189L101.791 24.5216C101.791 25.133 101.247 25.6012 100.643 25.5106L98.3815 25.1716C97.7914 25.0831 97.4096 24.5009 97.5637 23.9245L100.497 12.949Z" fill="#D9D9D9"/>
<circle cx="72.6651" cy="8.77593" r="1.77593" fill="#F27F2E"/>
<circle cx="101.08" cy="12.3277" r="1.77593" fill="#F27F2E"/>
<path d="M49.228 87.121C50.1702 81.9532 54.9502 78.3952 60.171 78.9758L90.0727 82.3007C95.2961 82.8815 99.1786 87.4066 98.9588 92.6576L98.0629 114.064C97.8262 119.721 92.9454 124.053 87.301 123.616L54.2522 121.062C48.3396 120.605 44.1215 115.132 45.185 109.298L49.228 87.121Z" fill="url(#paint1_linear_698_12586)"/>
<path d="M67.5913 76.7688L83.7859 78.8005L83.4875 80.8829C83.0958 83.6164 80.5623 85.5148 77.8288 85.1231L71.6308 84.235C68.9561 83.8517 67.0697 81.4127 67.3713 78.7275L67.5913 76.7688Z" fill="url(#paint2_linear_698_12586)"/>
<path d="M44.7578 86.4097L49.5782 85.6486L48.056 94.2745H44.7578V86.4097Z" fill="#F27F2E"/>
<path d="M99.0506 89.9615L103.11 91.7375L100.319 98.3338L98.7969 97.8264L99.0506 89.9615Z" fill="#F37F2F"/>
<path d="M123.152 94.0208C117.317 99.856 106.967 96.1156 102.273 93.2596C102.273 93.7789 101.324 94.8725 100.573 97.5726C113.492 103.804 122.616 100.097 125.182 97.1541C124.744 96.5483 124.204 95.6824 123.152 94.0208Z" fill="url(#paint3_linear_698_12586)"/>
<path d="M44.9326 93.3904C35.9188 91.4831 28.5709 101.298 25.9489 106.836C25.6305 106.35 24.076 105.904 21.7206 103.833C29.9348 90.118 40.7377 86.9944 44.9326 88.1856C44.8959 89.0202 44.8933 91.1927 44.9326 93.3904Z" fill="url(#paint4_linear_698_12586)"/>
<path fill-rule="evenodd" clip-rule="evenodd" d="M128.439 92.849C129.323 95.4019 133.157 96.3913 137.002 95.059C138.708 94.4681 140.129 93.5196 141.106 92.4243C141.044 94.9274 139.982 97.3992 137.96 99.1898C134.098 102.609 128.195 102.25 124.776 98.3876C121.357 94.5256 121.717 88.6232 125.579 85.2042C129.175 82.0202 134.542 82.1129 138.024 85.2602C136.725 85.1363 135.263 85.3071 133.799 85.8142C129.954 87.1465 127.554 90.2961 128.439 92.849Z" fill="url(#paint5_linear_698_12586)"/>
<path fill-rule="evenodd" clip-rule="evenodd" d="M21.6976 108.375C19.2586 107.213 15.8622 109.249 14.1115 112.922C13.3349 114.552 13.0126 116.23 13.1072 117.694C11.3677 115.893 10.3529 113.402 10.4978 110.704C10.7743 105.553 15.1738 101.602 20.3243 101.879C25.4748 102.155 29.426 106.555 29.1494 111.705C28.8919 116.502 25.0584 120.259 20.3726 120.529C21.3724 119.691 22.2774 118.53 22.9438 117.131C24.6945 113.458 24.1366 109.537 21.6976 108.375Z" fill="url(#paint6_linear_698_12586)"/>
<path d="M84.2671 47.5363C83.859 50.3483 82.1536 52.6606 79.8231 53.9851C78.2709 53.2166 76.2597 52.4237 74.278 52.1362C72.2963 51.8486 70.1426 52.0371 68.436 52.3327C66.5781 50.4004 65.6003 47.6988 66.0083 44.8869C66.7205 39.9788 71.3852 36.5931 76.4272 37.3247C81.4693 38.0564 84.9793 42.6283 84.2671 47.5363Z" fill="white"/>
<path d="M106.583 50.7746C106.175 53.5866 104.47 55.8988 102.139 57.2234C100.587 56.4549 98.5759 55.662 96.5943 55.3744C94.6126 55.0869 92.4589 55.2754 90.7523 55.571C88.8944 53.6387 87.9165 50.9371 88.3246 48.1251C89.0368 43.217 93.7015 39.8314 98.7435 40.563C103.786 41.2947 107.296 45.8665 106.583 50.7746Z" fill="white"/>
<path d="M75.3689 51.3179C78.7507 51.8086 81.878 49.548 82.3539 46.2686C82.8297 42.9893 80.474 39.933 77.0921 39.4423C73.7103 38.9515 70.583 41.2122 70.1071 44.4915C69.6313 47.7709 71.987 50.8272 75.3689 51.3179Z" fill="#28282A"/>
<path d="M95.7801 54.2797C99.1619 54.7704 102.289 52.5098 102.765 49.2305C103.241 45.9511 100.885 42.8948 97.5033 42.4041C94.1215 41.9134 90.9942 44.174 90.5184 47.4534C90.0425 50.7327 92.3983 53.789 95.7801 54.2797Z" fill="#28282A"/>
<g filter="url(#filter1_i_698_12586)">
<path d="M81.5118 73.7096C69.9997 72.512 71.1973 61 71.1973 61L94.2213 63.395C94.2213 63.395 93.0238 74.9071 81.5118 73.7096Z" fill="#A30A0A"/>
</g>
<path d="M72.41 61.7724L72.4766 61.1328L92.9424 63.2617L92.8759 63.9013C92.8024 64.6077 92.1701 65.1208 91.4637 65.0473L73.5561 63.1845C72.8497 63.1111 72.3365 62.4788 72.41 61.7724Z" fill="white"/>
</g>
<path d="M155 99.5967V57.0308C155 56.3895 155.123 55.7542 155.363 55.1595L164.326 32.9525C165.089 31.0618 166.923 29.8237 168.962 29.8237H190.067C192.219 29.8237 194.129 31.2008 194.81 33.2424L202.16 55.29C202.33 55.7999 202.417 56.3339 202.417 56.8714V99.5967C202.417 102.358 200.178 104.597 197.417 104.597H160C157.239 104.597 155 102.358 155 99.5967Z" fill="#FF3838"/>
<path d="M175.595 61.1157V103.061H166.952V61.1157H175.595ZM192.304 79.0347V85.7759H173.232V79.0347H192.304ZM194.32 61.1157V67.8857H173.232V61.1157H194.32Z" fill="white"/>
<circle cx="178.253" cy="42.1339" r="5.92712" fill="white"/>
<circle cx="178.253" cy="42.1339" r="2.27966" fill="#28282A"/>
<path d="M194.272 104.724L189.227 62.4579C189.151 61.8212 189.199 61.1758 189.367 60.5568L195.634 37.4443C196.168 35.4764 197.843 34.0297 199.867 33.7881L220.823 31.2872C222.96 31.0322 225.02 32.1731 225.938 34.1197L235.849 55.141C236.078 55.6271 236.228 56.1471 236.291 56.6808L241.354 99.1051C241.682 101.847 239.724 104.335 236.982 104.662L199.829 109.096C197.087 109.423 194.599 107.466 194.272 104.724Z" fill="#FF3838"/>
<path d="M201.579 65.0978L217.112 63.2441C220.297 62.864 223.09 63.0142 225.493 63.6946C227.914 64.3727 229.856 65.5723 231.318 67.2932C232.781 69.0142 233.675 71.2382 234.001 73.9653C234.267 76.1965 234.114 78.1586 233.542 79.8516C232.988 81.5232 232.087 82.9749 230.842 84.2067C229.613 85.4171 228.121 86.4463 226.365 87.2941L223.818 89.0487L210.316 90.66L209.46 83.9731L219.501 82.7749C221.007 82.5951 222.225 82.179 223.153 81.5267C224.081 80.8744 224.736 80.0419 225.118 79.0292C225.519 78.0142 225.644 76.8774 225.494 75.6188C225.335 74.2838 224.949 73.1597 224.337 72.2462C223.725 71.3328 222.883 70.679 221.811 70.2847C220.739 69.8904 219.44 69.7843 217.914 69.9664L210.963 70.7959L215.131 105.723L206.55 106.748L201.579 65.0978ZM229.835 103.969L218.122 86.537L227.183 85.3976L238.969 102.472L239.017 102.873L229.835 103.969Z" fill="white"/>
<circle cx="210.551" cy="44.9108" r="5.92712" transform="rotate(-6.80554 210.551 44.9108)" fill="white"/>
<circle cx="210.551" cy="44.9107" r="2.27966" transform="rotate(-6.80554 210.551 44.9107)" fill="#28282A"/>
<path d="M231.597 99.5967V57.0308C231.597 56.3895 231.72 55.7542 231.96 55.1595L240.922 32.9525C241.685 31.0618 243.52 29.8237 245.559 29.8237H266.663C268.815 29.8237 270.726 31.2008 271.407 33.2424L278.757 55.29C278.927 55.7999 279.014 56.3339 279.014 56.8714V99.5967C279.014 102.358 276.775 104.597 274.014 104.597H236.597C233.835 104.597 231.597 102.358 231.597 99.5967Z" fill="#FF3838"/>
<path d="M271.695 96.3198V103.061H249.368V96.3198H271.695ZM252.191 61.1157V103.061H243.549V61.1157H252.191ZM268.785 78.1992V84.7676H249.368V78.1992H268.785ZM271.666 61.1157V67.8857H249.368V61.1157H271.666Z" fill="white"/>
<circle cx="254.849" cy="42.1339" r="5.92712" fill="white"/>
<circle cx="254.849" cy="42.1339" r="2.27966" fill="#28282A"/>
<path d="M268.793 97.6325L271.493 55.1522C271.534 54.5123 271.697 53.8861 271.974 53.3078L282.327 31.714C283.209 29.8754 285.118 28.7563 287.153 28.8856L308.215 30.2242C310.362 30.3607 312.182 31.8561 312.732 33.9368L318.669 56.4063C318.806 56.9259 318.859 57.4643 318.825 58.0007L316.115 100.64C315.94 103.396 313.564 105.488 310.808 105.313L273.466 102.94C270.71 102.764 268.618 100.388 268.793 97.6325Z" fill="#FF3838"/>
<path d="M309.018 96.9053L308.591 103.633L286.309 102.217L286.737 95.4892L309.018 96.9053ZM291.787 60.5351L289.127 102.396L280.501 101.848L283.162 59.9869L291.787 60.5351ZM307.264 78.6367L306.847 85.1918L287.469 83.9602L287.886 77.4051L307.264 78.6367ZM311.223 61.7703L310.793 68.5267L288.54 67.1124L288.97 60.356L311.223 61.7703Z" fill="white"/>
<circle cx="295.644" cy="41.7601" r="5.92712" transform="rotate(3.63658 295.644 41.7601)" fill="white"/>
<circle cx="295.644" cy="41.76" r="2.27966" transform="rotate(3.63658 295.644 41.76)" fill="#28282A"/>
<line x1="179.5" x2="179.5" y2="41" stroke="black" stroke-dasharray="2 2"/>
<line x1="211.5" x2="211.5" y2="43" stroke="black" stroke-dasharray="2 2"/>
<line x1="256.5" x2="256.5" y2="41" stroke="black" stroke-dasharray="2 2"/>
<line x1="296.5" x2="296.5" y2="41" stroke="black" stroke-dasharray="2 2"/>
<defs>
<filter id="filter0_d_698_12586" x="0.483887" y="1" width="150.622" height="136.647" filterUnits="userSpaceOnUse" color-interpolation-filters="sRGB">
<feFlood flood-opacity="0" result="BackgroundImageFix"/>
<feColorMatrix in="SourceAlpha" type="matrix" values="0 0 0 0 0 0 0 0 0 0 0 0 0 0 0 0 0 0 127 0" result="hardAlpha"/>
<feOffset dy="4"/>
<feGaussianBlur stdDeviation="5"/>
<feComposite in2="hardAlpha" operator="out"/>
<feColorMatrix type="matrix" values="0 0 0 0 0.156863 0 0 0 0 0.156863 0 0 0 0 0.164706 0 0 0 0.25 0"/>
<feBlend mode="normal" in2="BackgroundImageFix" result="effect1_dropShadow_698_12586"/>
<feBlend mode="normal" in="SourceGraphic" in2="effect1_dropShadow_698_12586" result="shape"/>
</filter>
<filter id="filter1_i_698_12586" x="71.1616" y="61" width="23.0596" height="16.7969" filterUnits="userSpaceOnUse" color-interpolation-filters="sRGB">
<feFlood flood-opacity="0" result="BackgroundImageFix"/>
<feBlend mode="normal" in="SourceGraphic" in2="BackgroundImageFix" result="shape"/>
<feColorMatrix in="SourceAlpha" type="matrix" values="0 0 0 0 0 0 0 0 0 0 0 0 0 0 0 0 0 0 127 0" result="hardAlpha"/>
<feOffset dy="4"/>
<feGaussianBlur stdDeviation="2"/>
<feComposite in2="hardAlpha" operator="arithmetic" k2="-1" k3="1"/>
<feColorMatrix type="matrix" values="0 0 0 0 0 0 0 0 0 0 0 0 0 0 0 0 0 0 0.25 0"/>
<feBlend mode="normal" in2="shape" result="effect1_innerShadow_698_12586"/>
</filter>
<linearGradient id="paint0_linear_698_12586" x1="58.2041" y1="23.7444" x2="29.2817" y2="108.989" gradientUnits="userSpaceOnUse">
<stop stop-color="#F27F2E"/>
<stop offset="1" stop-color="#FF3838"/>
</linearGradient>
<linearGradient id="paint1_linear_698_12586" x1="53.3835" y1="77.53" x2="103.871" y2="184.593" gradientUnits="userSpaceOnUse">
<stop stop-color="#F27F2E"/>
<stop offset="1" stop-color="#FF3838"/>
</linearGradient>
<linearGradient id="paint2_linear_698_12586" x1="67.0002" y1="86" x2="90.0002" y2="125.5" gradientUnits="userSpaceOnUse">
<stop/>
<stop offset="1" stop-color="#F27F2E" stop-opacity="0"/>
</linearGradient>
<linearGradient id="paint3_linear_698_12586" x1="109.5" y1="89.5" x2="91.1366" y2="121.912" gradientUnits="userSpaceOnUse">
<stop stop-color="#BFBFBF"/>
<stop offset="1"/>
</linearGradient>
<linearGradient id="paint4_linear_698_12586" x1="29.4999" y1="103" x2="12.5485" y2="69.2492" gradientUnits="userSpaceOnUse">
<stop stop-color="#BFBFBF"/>
<stop offset="1"/>
</linearGradient>
<linearGradient id="paint5_linear_698_12586" x1="138.718" y1="86.045" x2="124.776" y2="98.3876" gradientUnits="userSpaceOnUse">
<stop stop-color="#F27F2E"/>
<stop offset="1" stop-color="#FF3838"/>
</linearGradient>
<linearGradient id="paint6_linear_698_12586" x1="19.326" y1="120.472" x2="20.3243" y2="101.879" gradientUnits="userSpaceOnUse">
<stop stop-color="#F27F2E"/>
<stop offset="1" stop-color="#FF3838"/>
</linearGradient>
</defs>
</svg>
