<svg width="320" height="139" viewBox="0 0 320 139" fill="none" xmlns="http://www.w3.org/2000/svg">
<path d="M154 99.5967V57.0308C154 56.3895 154.123 55.7542 154.363 55.1595L163.326 32.9525C164.089 31.0618 165.923 29.8237 167.962 29.8237H189.067C191.219 29.8237 193.129 31.2008 193.81 33.2424L201.16 55.29C201.33 55.7999 201.417 56.3339 201.417 56.8714V99.5967C201.417 102.358 199.178 104.597 196.417 104.597H159C156.239 104.597 154 102.358 154 99.5967Z" fill="#FF3838"/>
<path d="M174.595 61.1157V103.061H165.952V61.1157H174.595ZM191.304 79.0347V85.7759H172.232V79.0347H191.304ZM193.32 61.1157V67.8857H172.232V61.1157H193.32Z" fill="white"/>
<circle cx="177.253" cy="42.1339" r="5.92712" fill="white"/>
<circle cx="177.253" cy="42.1339" r="2.27966" fill="#28282A"/>
<path d="M193.272 104.724L188.227 62.4581C188.151 61.8213 188.199 61.1759 188.367 60.557L194.634 37.4444C195.168 35.4765 196.843 34.0298 198.867 33.7882L219.823 31.2874C221.96 31.0323 224.02 32.1733 224.938 34.1198L234.849 55.1411C235.078 55.6272 235.228 56.1472 235.291 56.6809L240.354 99.1052C240.682 101.847 238.724 104.335 235.982 104.662L198.829 109.096C196.087 109.424 193.599 107.466 193.272 104.724Z" fill="#FF3838"/>
<path d="M200.579 65.098L216.112 63.2443C219.297 62.8642 222.09 63.0144 224.493 63.6948C226.914 64.373 228.856 65.5725 230.318 67.2935C231.781 69.0144 232.675 71.2385 233.001 73.9655C233.267 76.1968 233.114 78.1589 232.542 79.8518C231.988 81.5234 231.087 82.9751 229.842 84.2069C228.613 85.4174 227.121 86.4465 225.365 87.2943L222.818 89.0489L209.316 90.6602L208.46 83.9734L218.501 82.7751C220.007 82.5953 221.225 82.1793 222.153 81.5269C223.081 80.8746 223.736 80.0421 224.118 79.0294C224.519 78.0145 224.644 76.8777 224.494 75.619C224.335 74.2841 223.949 73.1599 223.337 72.2465C222.725 71.3331 221.883 70.6792 220.811 70.2849C219.739 69.8907 218.44 69.7846 216.914 69.9666L209.963 70.7962L214.131 105.724L205.55 106.748L200.579 65.098ZM228.835 103.969L217.122 86.5373L226.183 85.3979L237.969 102.473L238.017 102.873L228.835 103.969Z" fill="white"/>
<circle cx="209.551" cy="44.9109" r="5.92712" transform="rotate(-6.80554 209.551 44.9109)" fill="white"/>
<circle cx="209.551" cy="44.9109" r="2.27966" transform="rotate(-6.80554 209.551 44.9109)" fill="#28282A"/>
<path d="M230.597 99.5967V57.0308C230.597 56.3895 230.72 55.7542 230.96 55.1595L239.922 32.9525C240.685 31.0618 242.52 29.8237 244.559 29.8237H265.663C267.815 29.8237 269.726 31.2008 270.407 33.2424L277.757 55.29C277.927 55.7999 278.014 56.3339 278.014 56.8714V99.5967C278.014 102.358 275.775 104.597 273.014 104.597H235.597C232.835 104.597 230.597 102.358 230.597 99.5967Z" fill="#FF3838"/>
<path d="M270.695 96.3198V103.061H248.368V96.3198H270.695ZM251.191 61.1157V103.061H242.549V61.1157H251.191ZM267.785 78.1992V84.7676H248.368V78.1992H267.785ZM270.666 61.1157V67.8857H248.368V61.1157H270.666Z" fill="white"/>
<circle cx="253.849" cy="42.1339" r="5.92712" fill="white"/>
<circle cx="253.849" cy="42.1339" r="2.27966" fill="#28282A"/>
<path d="M267.793 97.6325L270.493 55.1522C270.534 54.5123 270.697 53.8861 270.974 53.3078L281.327 31.714C282.209 29.8754 284.118 28.7563 286.153 28.8856L307.215 30.2242C309.362 30.3607 311.182 31.8561 311.732 33.9368L317.669 56.4063C317.806 56.9259 317.859 57.4643 317.825 58.0007L315.115 100.64C314.94 103.396 312.564 105.488 309.808 105.313L272.466 102.94C269.71 102.764 267.618 100.388 267.793 97.6325Z" fill="#FF3838"/>
<path d="M308.018 96.9055L307.591 103.633L285.309 102.217L285.737 95.4893L308.018 96.9055ZM290.787 60.5352L288.127 102.396L279.501 101.848L282.162 59.987L290.787 60.5352ZM306.264 78.6368L305.847 85.1919L286.469 83.9604L286.886 77.4052L306.264 78.6368ZM310.223 61.7704L309.793 68.5268L287.54 67.1125L287.97 60.3561L310.223 61.7704Z" fill="white"/>
<circle cx="294.644" cy="41.7601" r="5.92712" transform="rotate(3.63658 294.644 41.7601)" fill="white"/>
<circle cx="294.644" cy="41.7601" r="2.27966" transform="rotate(3.63658 294.644 41.7601)" fill="#28282A"/>
<line x1="178.5" x2="178.5" y2="41" stroke="white" stroke-dasharray="2 2"/>
<line x1="210.5" x2="210.5" y2="43" stroke="white" stroke-dasharray="2 2"/>
<line x1="255.5" x2="255.5" y2="41" stroke="white" stroke-dasharray="2 2"/>
<line x1="295.5" x2="295.5" y2="41" stroke="white" stroke-dasharray="2 2"/>
<g filter="url(#filter0_d_711_14523)">
<path d="M67.2728 76.8162L83.5143 78.8538L83.213 80.9566C82.8213 83.6901 80.2878 85.5885 77.5543 85.1968L71.3101 84.302C68.6354 83.9188 66.7491 81.4798 67.0506 78.7946L67.2728 76.8162Z" fill="url(#paint0_linear_711_14523)"/>
<path d="M49.3843 84.3096C50.0325 80.7539 53.3213 78.3059 56.9134 78.7054L92.7413 82.6892C96.3352 83.0889 99.0065 86.2023 98.8553 89.8151L97.6975 117.479C97.5347 121.371 94.1765 124.351 90.2929 124.051L50.4152 120.969C46.3471 120.654 43.4449 116.889 44.1767 112.875L49.3843 84.3096Z" fill="url(#paint1_linear_711_14523)"/>
<path d="M44.3721 86.4855L49.2064 85.7222L47.6798 94.3731H44.3721V86.4855Z" fill="#F27F2E"/>
<path d="M98.8228 90.0477L102.894 91.8288L100.095 98.4442L98.5684 97.9354L98.8228 90.0477Z" fill="#F37F2F"/>
<path d="M122.995 94.1185C117.143 99.9707 106.763 96.2194 102.055 93.3552C102.055 93.876 101.103 94.9727 100.35 97.6807C113.306 103.93 122.456 100.212 125.03 97.261C124.591 96.6534 124.049 95.785 122.995 94.1185Z" fill="url(#paint2_linear_711_14523)"/>
<path d="M44.687 93.6371C35.6471 91.7243 28.2778 101.568 25.6483 107.122C25.3289 106.634 23.7699 106.187 21.4077 104.11C29.6457 90.3552 40.4799 87.2226 44.687 88.4172C44.6502 89.2543 44.6476 91.433 44.687 93.6371Z" fill="url(#paint3_linear_711_14523)"/>
<path d="M128.296 92.9437C129.183 95.504 133.029 96.4963 136.885 95.1601C138.595 94.5675 140.021 93.6163 141 92.5178C140.938 95.0282 139.873 97.5071 137.845 99.3029C133.972 102.732 128.052 102.372 124.623 98.4984C121.195 94.6252 121.555 88.7057 125.428 85.2768C129.035 82.0836 134.417 82.1766 137.909 85.333C136.607 85.2087 135.14 85.38 133.673 85.8886C129.816 87.2247 127.409 90.3834 128.296 92.9437Z" fill="url(#paint4_linear_711_14523)"/>
<path d="M21.246 108.514C18.7999 107.349 15.3937 109.391 13.6379 113.075C12.8591 114.709 12.5359 116.392 12.6307 117.86C10.8862 116.054 9.86847 113.555 10.0137 110.85C10.291 105.685 14.7033 101.722 19.8687 101.999C25.0341 102.277 28.9967 106.689 28.7194 111.854C28.4611 116.665 24.6167 120.432 19.9174 120.703C20.92 119.863 21.8275 118.699 22.4958 117.296C24.2516 113.612 23.692 109.68 21.246 108.514Z" fill="url(#paint5_linear_711_14523)"/>
<path d="M54.2942 41.5659C55.1181 34.3932 61.6006 29.2466 68.7732 30.0705L92.9987 32.8532C100.171 33.6771 105.318 40.1596 104.494 47.3323L102.115 68.0403C101.248 75.5904 94.4244 81.008 86.8743 80.1407L64.0159 77.515C56.4658 76.6477 51.0482 69.824 51.9155 62.2739L54.2942 41.5659Z" fill="url(#paint6_linear_711_14523)"/>
<path d="M53.1506 28.9905C53.2195 28.7084 53.4681 28.5068 53.7583 28.4977C54.1285 28.486 54.4328 28.7869 54.4253 29.1571L54.1359 43.4532C54.1275 43.8671 53.7581 44.18 53.3484 44.12L50.3367 43.6793C49.9354 43.6206 49.6717 43.2292 49.768 42.8352L53.1506 28.9905Z" fill="#D9D9D9"/>
<path d="M47.5649 45.3424C47.7181 43.8302 49.0682 42.7285 50.5804 42.8817L55.9793 43.4286L54.7012 56.0453L49.3022 55.4983C47.79 55.3451 46.6883 53.9951 46.8415 52.4828L47.5649 45.3424Z" fill="#F56F31"/>
<path d="M107.998 35.0895C107.992 34.8051 107.799 34.5588 107.524 34.4853C107.162 34.3884 106.795 34.6224 106.729 34.9915L103.91 50.9483C103.838 51.3523 104.134 51.7287 104.544 51.7547L107.6 51.9488C108.001 51.9743 108.339 51.6506 108.331 51.2479L107.998 35.0895Z" fill="#D9D9D9"/>
<path d="M110.83 53.1029C110.993 51.5918 109.901 50.2342 108.39 50.0707L102.995 49.487L101.631 62.0947L107.026 62.6784C108.537 62.8419 109.894 61.7494 110.058 60.2383L110.83 53.1029Z" fill="#F3792F"/>
<path d="M76.8667 46.8601C76.4673 49.6816 74.7651 52.0065 72.4325 53.343C70.8732 52.5778 68.8533 51.7897 66.8649 51.5082C64.8765 51.2268 62.7172 51.4234 61.0067 51.7259C59.1367 49.7945 58.1465 47.0885 58.5458 44.267C59.2429 39.3422 63.9092 35.9304 68.9684 36.6465C74.0275 37.3625 77.5637 41.9353 76.8667 46.8601Z" fill="white"/>
<path d="M99.2588 50.0294C98.8595 52.8509 97.1572 55.1759 94.8247 56.5124C93.2653 55.7471 91.2454 54.959 89.257 54.6776C87.2686 54.3961 85.1093 54.5928 83.3989 54.8952C81.5288 52.9638 80.5386 50.2578 80.938 47.4363C81.635 42.5116 86.3014 39.0997 91.3605 39.8158C96.4197 40.5319 99.9559 45.1047 99.2588 50.0294Z" fill="white"/>
<path d="M67.8279 51.2076C71.2213 51.6879 74.3497 49.4098 74.8154 46.1193C75.2811 42.8288 72.9078 39.7719 69.5145 39.2917C66.1212 38.8114 62.9928 41.0895 62.527 44.38C62.0613 47.6705 64.4346 50.7274 67.8279 51.2076Z" fill="#28282A"/>
<path d="M88.3086 54.1064C91.7019 54.5867 94.8303 52.3086 95.296 49.0181C95.7618 45.7276 93.3885 42.6707 89.9951 42.1904C86.6018 41.7102 83.4734 43.9883 83.0077 47.2788C82.5419 50.5693 84.9152 53.6261 88.3086 54.1064Z" fill="#28282A"/>
<g filter="url(#filter1_i_711_14523)">
<path d="M76.1112 73.2982C64.5617 72.1376 65.7223 60.5881 65.7223 60.5881L88.8214 62.9093C88.8214 62.9093 87.6608 74.4588 76.1112 73.2982Z" fill="#A30A0A"/>
</g>
<path d="M66.9405 61.3584L67.005 60.7168L87.5374 62.78L87.473 63.4217C87.4017 64.1304 86.7695 64.6472 86.0607 64.576L68.0948 62.7706C67.3861 62.6994 66.8693 62.0671 66.9405 61.3584Z" fill="white"/>
<path d="M62.2709 21.9128C63.7908 21.9075 65.0187 20.671 65.0134 19.1511C65.0081 17.6311 63.7716 16.4033 62.2516 16.4086C60.7317 16.4139 59.5038 17.6504 59.5091 19.1703C59.5145 20.6903 60.7509 21.9181 62.2709 21.9128Z" fill="#F37F2F"/>
<circle cx="82.2041" cy="16.3385" r="4.1282" transform="rotate(-0.200431 82.2041 16.3385)" fill="#F27F2E"/>
<path d="M62.337 19.4997L53.6956 27.8175L61.7677 19.402C62.0181 19.0147 62.3974 19.3952 62.337 19.4997Z" fill="#F27F2D"/>
<path d="M62.337 19.4997L53.6956 27.8175L61.7677 19.402C62.0181 19.0147 62.3974 19.3952 62.337 19.4997Z" fill="#F27F2D"/>
<path d="M99.1722 25.4727C97.7978 25.046 97.0294 23.5859 97.4561 22.2114C97.8828 20.837 99.3429 20.0687 100.717 20.4953C102.092 20.922 102.86 22.3822 102.433 23.7566C102.007 25.1311 100.547 25.8994 99.1722 25.4727Z" fill="#F37F2F"/>
<path d="M83.7066 17.6952L101.033 23.4217L84.4206 17.1836C83.8217 16.8162 83.5548 17.5915 83.7066 17.6952Z" fill="#F27F2D"/>
<path d="M83.7066 17.6952L101.033 23.4217L84.4206 17.1836C83.8217 16.8162 83.5548 17.5915 83.7066 17.6952Z" fill="#F27F2D"/>
<path d="M82.2559 16.5133L91.1978 30.068L82.6403 15.9087C82.3348 15.1766 82.1788 16.3112 82.2559 16.5133Z" fill="#F27F2D"/>
<path d="M82.2559 16.5133L91.1978 30.068L82.6403 15.9087C82.3348 15.1766 82.1788 16.3112 82.2559 16.5133Z" fill="#F27F2D"/>
<path d="M82.2074 16.2598L67.1049 26.7119L81.4109 15.8908C81.8935 15.3483 82.3272 16.1109 82.2074 16.2598Z" fill="#F27F2D"/>
<path d="M82.2074 16.2598L67.1049 26.7119L81.4109 15.8908C81.8935 15.3483 82.3272 16.1109 82.2074 16.2598Z" fill="#F27F2D"/>
<path d="M79.6867 17.3517L61.5757 19.585L79.0863 16.7105C79.7455 16.4672 79.8558 17.2796 79.6867 17.3517Z" fill="#F27F2D"/>
<path d="M79.6867 17.3517L61.5757 19.585L79.0863 16.7105C79.7455 16.4672 79.8558 17.2796 79.6867 17.3517Z" fill="#F27F2D"/>
<path d="M61.2528 17.5123L68.1432 27.3436L61.0276 18.0412C60.6741 17.7294 61.156 17.435 61.2528 17.5123Z" fill="#F27F2D"/>
<path d="M61.2528 17.5123L68.1432 27.3436L61.0276 18.0412C60.6741 17.7294 61.156 17.435 61.2528 17.5123Z" fill="#F27F2D"/>
<path d="M98.4158 23.3207L91.1984 30.068L99.8171 23.2786C99.9265 23.1922 99.7023 23.1307 99.3199 23.1402C98.934 23.1499 98.5355 23.2276 98.4261 23.3133C98.4226 23.3151 98.4192 23.3183 98.4158 23.3207Z" fill="#F27F2D"/>
<path d="M100.904 23.3761L107.035 33.4528L100.332 23.8415C100.196 23.6352 100.212 23.3616 100.366 23.2287C100.521 23.0951 100.756 23.1546 100.892 23.3588C100.895 23.3624 100.9 23.3704 100.904 23.3761Z" fill="#F27F2D"/>
<path d="M52.9026 30.7025C51.6324 30.3082 50.9224 28.9588 51.3167 27.6887C51.711 26.4185 53.0604 25.7085 54.3305 26.1028C55.6007 26.4971 56.3107 27.8464 55.9164 29.1166C55.5221 30.3868 54.1727 31.0968 52.9026 30.7025Z" fill="#F37B2F"/>
<path d="M66.8054 27.4578C65.9699 27.1984 65.5029 26.3109 65.7623 25.4755C66.0216 24.64 66.9091 24.173 67.7446 24.4324C68.5801 24.6917 69.0471 25.5792 68.7877 26.4147C68.5283 27.2502 67.6408 27.7172 66.8054 27.4578Z" fill="#F37B2F"/>
<path d="M90.6501 31.5029C89.8146 31.2435 89.3476 30.356 89.607 29.5205C89.8663 28.6851 90.7539 28.218 91.5893 28.4774C92.4248 28.7368 92.8918 29.6243 92.6324 30.4597C92.3731 31.2952 91.4855 31.7622 90.6501 31.5029Z" fill="#F37B2F"/>
<path d="M107.388 36.2034C108.718 36.1988 109.792 35.1168 109.788 33.7869C109.783 32.4569 108.701 31.3826 107.371 31.3872C106.041 31.3919 104.967 32.4738 104.971 33.8037C104.976 35.1337 106.058 36.2081 107.388 36.2034Z" fill="#F37B2F"/>
</g>
<defs>
<filter id="filter0_d_711_14523" x="0" y="6.21021" width="151" height="131.862" filterUnits="userSpaceOnUse" color-interpolation-filters="sRGB">
<feFlood flood-opacity="0" result="BackgroundImageFix"/>
<feColorMatrix in="SourceAlpha" type="matrix" values="0 0 0 0 0 0 0 0 0 0 0 0 0 0 0 0 0 0 127 0" result="hardAlpha"/>
<feOffset dy="4"/>
<feGaussianBlur stdDeviation="5"/>
<feComposite in2="hardAlpha" operator="out"/>
<feColorMatrix type="matrix" values="0 0 0 0 0 0 0 0 0 0 0 0 0 0 0 0 0 0 0.25 0"/>
<feBlend mode="normal" in2="BackgroundImageFix" result="effect1_dropShadow_711_14523"/>
<feBlend mode="normal" in="SourceGraphic" in2="effect1_dropShadow_711_14523" result="shape"/>
</filter>
<filter id="filter1_i_711_14523" x="65.6899" y="60.5881" width="23.1313" height="16.792" filterUnits="userSpaceOnUse" color-interpolation-filters="sRGB">
<feFlood flood-opacity="0" result="BackgroundImageFix"/>
<feBlend mode="normal" in="SourceGraphic" in2="BackgroundImageFix" result="shape"/>
<feColorMatrix in="SourceAlpha" type="matrix" values="0 0 0 0 0 0 0 0 0 0 0 0 0 0 0 0 0 0 127 0" result="hardAlpha"/>
<feOffset dy="4"/>
<feGaussianBlur stdDeviation="2"/>
<feComposite in2="hardAlpha" operator="arithmetic" k2="-1" k3="1"/>
<feColorMatrix type="matrix" values="0 0 0 0 0 0 0 0 0 0 0 0 0 0 0 0 0 0 0.25 0"/>
<feBlend mode="normal" in2="shape" result="effect1_innerShadow_711_14523"/>
</filter>
<linearGradient id="paint0_linear_711_14523" x1="66.6801" y1="86.0742" x2="89.7467" y2="125.689" gradientUnits="userSpaceOnUse">
<stop/>
<stop offset="1" stop-color="#F27F2E" stop-opacity="0"/>
</linearGradient>
<linearGradient id="paint1_linear_711_14523" x1="53.0251" y1="77.58" x2="103.659" y2="184.954" gradientUnits="userSpaceOnUse">
<stop stop-color="#F27F2E"/>
<stop offset="1" stop-color="#FF3838"/>
</linearGradient>
<linearGradient id="paint2_linear_711_14523" x1="109.303" y1="89.5847" x2="90.8861" y2="122.09" gradientUnits="userSpaceOnUse">
<stop stop-color="#BFBFBF"/>
<stop offset="1"/>
</linearGradient>
<linearGradient id="paint3_linear_711_14523" x1="29.2095" y1="103.274" x2="12.209" y2="69.4259" gradientUnits="userSpaceOnUse">
<stop stop-color="#BFBFBF"/>
<stop offset="1"/>
</linearGradient>
<linearGradient id="paint4_linear_711_14523" x1="138.606" y1="86.1201" x2="124.623" y2="98.4984" gradientUnits="userSpaceOnUse">
<stop stop-color="#F27F2E"/>
<stop offset="1" stop-color="#FF3838"/>
</linearGradient>
<linearGradient id="paint5_linear_711_14523" x1="18.8675" y1="120.647" x2="19.8687" y2="101.999" gradientUnits="userSpaceOnUse">
<stop stop-color="#F27F2E"/>
<stop offset="1" stop-color="#FF3838"/>
</linearGradient>
<linearGradient id="paint6_linear_711_14523" x1="62.8946" y1="28.5676" x2="32.3081" y2="106.321" gradientUnits="userSpaceOnUse">
<stop stop-color="#F27F2E"/>
<stop offset="1" stop-color="#FF3838"/>
</linearGradient>
</defs>
</svg>
