<svg xmlns="http://www.w3.org/2000/svg" viewBox="0 0 383.29 323.26"><defs><style>.cls-1{fill:#4f6ddb;}.cls-2{fill:#fff;}.cls-3{fill:#28282a;}.cls-4{fill:#f6eeca;}.cls-5,.cls-8{fill:#029d41;}.cls-6,.cls-9{fill:#ffc61a;}.cls-10,.cls-7{fill:#fe3737;}.cls-8{stroke:#029d41;stroke-width:0.91px;}.cls-10,.cls-8,.cls-9{stroke-miterlimit:10;}.cls-9{stroke:#ffc61a;stroke-width:0.87px;}.cls-10{stroke:#fe3737;stroke-width:0.78px;}.cls-11{fill:#f3792f;}.cls-12{fill:#a20a0a;}.cls-13{fill:#d9d9d9;}.cls-14{fill:#f2792e;}</style></defs><title>Schedules tasks and meetings based on you priorities_dark_mode</title><g id="Слой_2" data-name="Слой 2"><rect class="cls-1" x="82.12" width="301.17" height="183.21" rx="12.87" ry="12.87"/><rect class="cls-2" x="144.39" y="11" width="61.5" height="29.75" rx="3.96" ry="3.96"/><path class="cls-3" d="M185,58.5c-.12-2.25-.26-5-.24-7h-.07c-.55,1.89-1.22,3.91-2,6.14l-2.85,7.84h-1.58l-2.61-7.7c-.77-2.28-1.41-4.36-1.87-6.28h0c0,2-.17,4.72-.31,7.14l-.43,6.93h-2l1.13-16.16h2.66l2.76,7.82c.67,2,1.22,3.76,1.63,5.44h.07c.41-1.63,1-3.4,1.7-5.44l2.88-7.82h2.66l1,16.16h-2Z" transform="translate(-17.36 -32.68)"/><path class="cls-3" d="M201.23,59.7c0,4.29-3,6.16-5.78,6.16-3.14,0-5.56-2.3-5.56-6,0-3.88,2.54-6.16,5.75-6.16S201.23,56.15,201.23,59.7Zm-9.21.12c0,2.54,1.46,4.46,3.52,4.46s3.52-1.89,3.52-4.51c0-2-1-4.46-3.48-4.46S192,57.61,192,59.82Z" transform="translate(-17.36 -32.68)"/><path class="cls-3" d="M203.89,57.13c0-1.2,0-2.18-.1-3.14h1.87l.12,1.92h0a4.27,4.27,0,0,1,3.84-2.18c1.61,0,4.1,1,4.1,4.94v6.93h-2.11V58.9c0-1.87-.7-3.43-2.68-3.43a3,3,0,0,0-2.83,2.16,3,3,0,0,0-.14,1v7h-2.11Z" transform="translate(-17.36 -32.68)"/><rect class="cls-2" x="224.07" y="11" width="61.5" height="29.75" rx="3.96" ry="3.96"/><path class="cls-3" d="M259.06,51.21h-4.92V49.44h12v1.77h-4.94V65.59h-2.11Z" transform="translate(-17.36 -32.68)"/><path class="cls-3" d="M276.46,62.43c0,1.2,0,2.25.1,3.16h-1.87l-.12-1.89h0a4.36,4.36,0,0,1-3.83,2.16c-1.82,0-4-1-4-5.08V54h2.11v6.42c0,2.21.67,3.69,2.59,3.69a3,3,0,0,0,3-3V54h2.11Z" transform="translate(-17.36 -32.68)"/><path class="cls-3" d="M281.14,60.17a3.72,3.72,0,0,0,4,4,7.64,7.64,0,0,0,3.21-.6l.36,1.51a9.39,9.39,0,0,1-3.86.72c-3.57,0-5.71-2.35-5.71-5.85s2.06-6.26,5.44-6.26c3.79,0,4.79,3.33,4.79,5.47a8.08,8.08,0,0,1-.07,1Zm6.18-1.51c0-1.34-.55-3.43-2.92-3.43-2.13,0-3.07,2-3.24,3.43Z" transform="translate(-17.36 -32.68)"/><rect class="cls-2" x="303.75" y="11" width="61.5" height="29.75" rx="3.96" ry="3.96"/><path class="cls-3" d="M333.81,65.59l-4.1-16.16h2.21l1.92,8.17c.48,2,.91,4,1.2,5.58h0c.26-1.61.77-3.52,1.32-5.61l2.16-8.15h2.18l2,8.2c.46,1.92.89,3.84,1.13,5.54h0c.34-1.77.79-3.57,1.29-5.59l2.13-8.15h2.13l-4.58,16.16h-2.18l-2-8.41a48.31,48.31,0,0,1-1.05-5.27h0a50.3,50.3,0,0,1-1.25,5.27L336,65.59Z" transform="translate(-17.36 -32.68)"/><path class="cls-3" d="M351.77,60.17a3.72,3.72,0,0,0,4,4,7.64,7.64,0,0,0,3.21-.6l.36,1.51a9.39,9.39,0,0,1-3.86.72c-3.57,0-5.71-2.35-5.71-5.85s2.06-6.26,5.44-6.26c3.79,0,4.79,3.33,4.79,5.47a8.08,8.08,0,0,1-.07,1ZM358,58.66c0-1.34-.55-3.43-2.92-3.43-2.13,0-3.07,2-3.24,3.43Z" transform="translate(-17.36 -32.68)"/><path class="cls-3" d="M372.62,48.57v14c0,1,0,2.21.1,3h-1.89l-.1-2h0a4.29,4.29,0,0,1-4,2.28c-2.8,0-5-2.37-5-5.9,0-3.86,2.37-6.23,5.2-6.23a3.88,3.88,0,0,1,3.5,1.77h0V48.57Zm-2.11,10.14a3.7,3.7,0,0,0-.1-.89,3.1,3.1,0,0,0-3-2.45c-2.18,0-3.48,1.92-3.48,4.48,0,2.35,1.15,4.29,3.43,4.29a3.17,3.17,0,0,0,3.09-2.52,3.65,3.65,0,0,0,.1-.91Z" transform="translate(-17.36 -32.68)"/><path class="cls-4" d="M151.15,209.31a1,1,0,0,1-1-1V203a1,1,0,1,1,1.95,0v5.31A1,1,0,0,1,151.15,209.31Zm0-14.07a1,1,0,0,1-1-1V185.5a1,1,0,0,1,1.95,0v8.76A1,1,0,0,1,151.15,195.24Zm0-17.53a1,1,0,0,1-1-1V168a1,1,0,1,1,1.95,0v8.76A1,1,0,0,1,151.15,177.71Zm0-17.53a1,1,0,0,1-1-1v-8.76a1,1,0,1,1,1.95,0v8.76A1,1,0,0,1,151.15,160.19Zm0-17.53a1,1,0,0,1-1-1v-8.76a1,1,0,0,1,1.95,0v8.76A1,1,0,0,1,151.15,142.66Zm0-17.53a1,1,0,0,1-1-1V115.4a1,1,0,1,1,1.95,0v8.76A1,1,0,0,1,151.15,125.14Zm0-17.53a1,1,0,0,1-1-1V97.87a1,1,0,1,1,1.95,0v8.76A1,1,0,0,1,151.15,107.61Zm0-17.53a1,1,0,0,1-1-1V80.35a1,1,0,1,1,1.95,0v8.76A1,1,0,0,1,151.15,90.08Z" transform="translate(-17.36 -32.68)"/><path class="cls-4" d="M232.36,202.32a1,1,0,0,1-1-1v-11a1,1,0,1,1,1.95,0v11A1,1,0,0,1,232.36,202.32Zm0-22a1,1,0,0,1-1-1v-11a1,1,0,1,1,1.95,0v11A1,1,0,0,1,232.36,180.32Zm0-22a1,1,0,0,1-1-1v-11a1,1,0,1,1,1.95,0v11A1,1,0,0,1,232.36,158.32Zm0-22a1,1,0,0,1-1-1v-11a1,1,0,1,1,1.95,0v11A1,1,0,0,1,232.36,136.32Zm0-22a1,1,0,0,1-1-1v-11a1,1,0,1,1,1.95,0v11A1,1,0,0,1,232.36,114.32Zm0-22a1,1,0,0,1-1-1v-11a1,1,0,1,1,1.95,0v11A1,1,0,0,1,232.36,92.32Z" transform="translate(-17.36 -32.68)"/><path class="cls-4" d="M313.57,209.31a1,1,0,0,1-1-1v-2a1,1,0,0,1,1.95,0v2A1,1,0,0,1,313.57,209.31Zm0-12.49a1,1,0,0,1-1-1v-10.5a1,1,0,1,1,1.95,0v10.5A1,1,0,0,1,313.57,196.82Zm0-21a1,1,0,0,1-1-1v-10.5a1,1,0,1,1,1.95,0v10.5A1,1,0,0,1,313.57,175.82Zm0-21a1,1,0,0,1-1-1v-10.5a1,1,0,1,1,1.95,0v10.5A1,1,0,0,1,313.57,154.82Zm0-21a1,1,0,0,1-1-1v-10.5a1,1,0,0,1,1.95,0v10.5A1,1,0,0,1,313.57,133.82Zm0-21a1,1,0,0,1-1-1v-10.5a1,1,0,0,1,1.95,0v10.5A1,1,0,0,1,313.57,112.82Zm0-21a1,1,0,0,1-1-1V80.35a1,1,0,1,1,1.95,0v10.5A1,1,0,0,1,313.57,91.82Z" transform="translate(-17.36 -32.68)"/><path class="cls-4" d="M333.11,117.32h-9.3a1,1,0,0,1,0-1.95h9.3a1,1,0,1,1,0,1.95Zm-18.6,0h-9.3a1,1,0,0,1,0-1.95h9.3a1,1,0,1,1,0,1.95Zm-18.6,0h-9.3a1,1,0,0,1,0-1.95h9.3a1,1,0,1,1,0,1.95Zm-18.6,0H268a1,1,0,0,1,0-1.95h9.3a1,1,0,1,1,0,1.95Zm-18.6,0h-9.3a1,1,0,0,1,0-1.95h9.3a1,1,0,1,1,0,1.95Zm-18.6,0h-9.3a1,1,0,1,1,0-1.95h9.3a1,1,0,0,1,0,1.95Zm-18.6,0h-9.3a1,1,0,1,1,0-1.95h9.3a1,1,0,0,1,0,1.95Zm-18.6,0h-9.3a1,1,0,1,1,0-1.95h9.3a1,1,0,0,1,0,1.95Zm-18.6,0H175a1,1,0,0,1,0-1.95h9.3a1,1,0,1,1,0,1.95Zm-18.6,0h-9.3a1,1,0,0,1,0-1.95h9.3a1,1,0,1,1,0,1.95Zm-18.6,0h-9.3a1,1,0,0,1,0-1.95h9.3a1,1,0,0,1,0,1.95Zm-18.6,0h-9.3a1,1,0,0,1,0-1.95h9.3a1,1,0,1,1,0,1.95Z" transform="translate(-17.36 -32.68)"/><path class="cls-4" d="M333.11,162.65h-8.76a1,1,0,0,1,0-1.95h8.76a1,1,0,0,1,0,1.95Zm-17.53,0h-8.76a1,1,0,0,1,0-1.95h8.76a1,1,0,0,1,0,1.95Zm-17.53,0H289.3a1,1,0,0,1,0-1.95h8.76a1,1,0,0,1,0,1.95Zm-17.53,0h-8.76a1,1,0,0,1,0-1.95h8.76a1,1,0,0,1,0,1.95Zm-17.53,0h-8.76a1,1,0,0,1,0-1.95H263a1,1,0,0,1,0,1.95Zm-17.53,0h-8.76a1,1,0,0,1,0-1.95h8.76a1,1,0,0,1,0,1.95Zm-17.53,0h-8.76a1,1,0,1,1,0-1.95H228a1,1,0,0,1,0,1.95Zm-17.53,0h-8.76a1,1,0,0,1,0-1.95h8.76a1,1,0,1,1,0,1.95Zm-17.53,0h-8.76a1,1,0,0,1,0-1.95h8.76a1,1,0,0,1,0,1.95Zm-17.53,0h-8.76a1,1,0,1,1,0-1.95h8.76a1,1,0,0,1,0,1.95Zm-17.53,0h-8.76a1,1,0,0,1,0-1.95h8.76a1,1,0,1,1,0,1.95Zm-17.53,0h-8.76a1,1,0,0,1,0-1.95h8.76a1,1,0,0,1,0,1.95Zm-17.53,0H114a1,1,0,0,1,0-1.95h8.76a1,1,0,0,1,0,1.95Z" transform="translate(-17.36 -32.68)"/><rect class="cls-5" x="144.39" y="96.72" width="61.5" height="20.29" rx="3.19" ry="3.19"/><rect class="cls-2" x="152.4" y="104.7" width="45.46" height="4.33" rx="2.17" ry="2.17"/><rect class="cls-6" x="144.39" y="144.04" width="61.5" height="20.29" rx="3.19" ry="3.19"/><rect class="cls-2" x="151.39" y="148.35" width="47.5" height="4.33" rx="2.17" ry="2.17"/><rect class="cls-2" x="151.39" y="156.35" width="47.5" height="4.33" rx="2.17" ry="2.17"/><rect class="cls-6" x="144.39" y="50.59" width="61.5" height="25.45" rx="3.43" ry="3.43"/><rect class="cls-2" x="149.9" y="55.19" width="48.99" height="5.96" rx="2.98" ry="2.98"/><rect class="cls-2" x="149.9" y="64.69" width="48.99" height="5.96" rx="2.98" ry="2.98"/><rect class="cls-5" x="227.05" y="52.31" width="61.5" height="22" rx="4.7" ry="4.7"/><circle class="cls-2" cx="235.29" cy="63.31" r="5.04"/><rect class="cls-2" x="246.87" y="56.02" width="33.92" height="4.33" rx="2.17" ry="2.17"/><rect class="cls-2" x="246.87" y="64.02" width="33.92" height="4.33" rx="2.17" ry="2.17"/><rect class="cls-6" x="308.12" y="90.84" width="61.5" height="32.06" rx="4.7" ry="4.7"/><circle class="cls-2" cx="316.36" cy="106.27" r="5.04"/><rect class="cls-2" x="327.94" y="96.54" width="33.92" height="4.33" rx="2.17" ry="2.17"/><rect class="cls-2" x="327.94" y="104.54" width="33.92" height="4.33" rx="2.17" ry="2.17"/><rect class="cls-2" x="327.94" y="112.54" width="33.92" height="4.33" rx="2.17" ry="2.17"/><rect class="cls-7" x="227.05" y="91.61" width="61.5" height="30.5" rx="5.58" ry="5.58"/><rect class="cls-2" x="233.62" y="97.45" width="47.17" height="6.5" rx="3.04" ry="3.04"/><rect class="cls-2" x="233.62" y="109.45" width="47.17" height="6.5" rx="3.04" ry="3.04"/><path class="cls-5" d="M28.9,146.21V54A19.28,19.28,0,0,1,48.17,34.71h0A19.28,19.28,0,0,1,67.45,54v92.22Z" transform="translate(-17.36 -32.68)"/><rect class="cls-6" x="11.53" y="113.27" width="38.56" height="100.5"/><circle class="cls-2" cx="30.81" cy="62.04" r="27.44"/><path class="cls-5" d="M48.17,125.54A30.81,30.81,0,1,1,79,94.72,30.85,30.85,0,0,1,48.17,125.54Zm0-54.87A24.06,24.06,0,1,0,72.24,94.72,24.09,24.09,0,0,0,48.17,70.66Z" transform="translate(-17.36 -32.68)"/><circle class="cls-2" cx="30.81" cy="164.23" r="27.44"/><path class="cls-6" d="M48.17,227.72A30.81,30.81,0,1,1,79,196.91,30.84,30.84,0,0,1,48.17,227.72Zm0-54.87a24.06,24.06,0,1,0,24.06,24.06A24.09,24.09,0,0,0,48.17,172.85Z" transform="translate(-17.36 -32.68)"/><path class="cls-7" d="M28.9,336.67V246.45H67.45v90.22a19.28,19.28,0,0,1-19.28,19.28h0A19.28,19.28,0,0,1,28.9,336.67Z" transform="translate(-17.36 -32.68)"/><circle class="cls-2" cx="30.81" cy="262.73" r="27.44"/><path class="cls-7" d="M48.17,326.22A30.81,30.81,0,1,1,79,295.41,30.85,30.85,0,0,1,48.17,326.22Zm0-54.87a24.06,24.06,0,1,0,24.06,24.06A24.09,24.09,0,0,0,48.17,271.35Z" transform="translate(-17.36 -32.68)"/><path class="cls-8" d="M45.43,108.63a2.73,2.73,0,0,1,2.74-2.88,2.89,2.89,0,0,1,0,5.76A2.72,2.72,0,0,1,45.43,108.63ZM46.59,102l-.65-22.31H50.4L49.75,102Z" transform="translate(-17.36 -32.68)"/><path class="cls-9" d="M40.43,209.41a2.61,2.61,0,0,1,2.63-2.76,2.76,2.76,0,0,1,0,5.52A2.61,2.61,0,0,1,40.43,209.41ZM41.54,203l-.62-21.37h4.27L44.57,203Z" transform="translate(-17.36 -32.68)"/><path class="cls-9" d="M50.67,209.41a2.61,2.61,0,0,1,2.63-2.76,2.76,2.76,0,0,1,0,5.52A2.61,2.61,0,0,1,50.67,209.41ZM51.78,203l-.62-21.37h4.27L54.81,203Z" transform="translate(-17.36 -32.68)"/><path class="cls-10" d="M36.7,308.09A2.32,2.32,0,0,1,39,305.64a2.46,2.46,0,0,1,0,4.9A2.32,2.32,0,0,1,36.7,308.09Zm1-5.66-.55-19h3.8l-.55,19Z" transform="translate(-17.36 -32.68)"/><path class="cls-10" d="M45.79,308.09a2.32,2.32,0,0,1,2.33-2.45,2.46,2.46,0,0,1,0,4.9A2.32,2.32,0,0,1,45.79,308.09Zm1-5.66-.55-19H50l-.55,19Z" transform="translate(-17.36 -32.68)"/><path class="cls-10" d="M54.89,308.09a2.32,2.32,0,0,1,2.33-2.45,2.46,2.46,0,0,1,0,4.9A2.32,2.32,0,0,1,54.89,308.09Zm1-5.66-.55-19h3.8l-.55,19Z" transform="translate(-17.36 -32.68)"/><path class="cls-11" d="M192.1,297.28a4.82,4.82,0,0,0-2.82.7c-1.75,1.17-1.65,2.71-1.55,4.14a3.67,3.67,0,0,0-1.18,3.13c.24,1,1.28,2.17,1.28,3s-.77,3.25.39,4.93,5.25,1.18,5.83,1.26C194.17,308.5,195.71,302.64,192.1,297.28Z" transform="translate(-17.36 -32.68)"/><rect class="cls-11" x="214.36" y="305.66" width="38.25" height="13.17" rx="6.19" ry="6.19" transform="translate(-171.03 325.65) rotate(-60)"/><path class="cls-11" d="M207,311.18l14.85,8.15a5.36,5.36,0,0,1,1.2,7.46l-1.45,2a5.36,5.36,0,0,1-7.46,1.2l-13-14.46Z" transform="translate(-17.36 -32.68)"/><circle class="cls-3" cx="204.41" cy="291.7" r="4.75"/><polygon class="cls-12" points="240.74 253.65 238.88 262.49 262.77 265.4 261.32 256.05 240.74 253.65"/><path class="cls-11" d="M244.29,246.84s.35-8.12,6.06-12.13c5.24-3.68,6-3.72,25-1.38,18.45,2.28,20.17,2,24.21,7.21,4.54,5.88,3.12,14,3.12,14s4.92.23,6,.74,1.79,1.47,1.52,4.41-.69,7.12-.87,7.95a3.26,3.26,0,0,1-3,2c-1.42-.09-5.51-.41-5.51-.41s-.41,7.76-1.88,11.21a14.73,14.73,0,0,1-10.38,9c-5.88,1.33-16.4-.64-23.84-1.47s-11.58-.46-16.91-4.27-5.7-8.77-6.11-11.07.83-11,.83-11a33.72,33.72,0,0,1-4.82-.55c-1.24-.37-1.84-1.52-1.84-3.45s.6-8.22,1.24-9.51S239.24,246.06,244.29,246.84Z" transform="translate(-17.36 -32.68)"/><polygon class="cls-13" points="221.64 214.01 225.54 198.78 227.33 199.05 226.93 214.16 221.64 214.01"/><circle class="cls-14" cx="226.3" cy="196.96" r="2.83"/><circle class="cls-14" cx="236.29" cy="186.21" r="3.26"/><circle class="cls-14" cx="280.3" cy="190.62" r="3.26"/><circle class="cls-14" cx="259.67" cy="182.94" r="4.93"/><circle class="cls-14" cx="242.18" cy="194.13" r="1.87"/><circle class="cls-14" cx="269.97" cy="198.78" r="1.87"/><polygon class="cls-13" points="285.52 218.94 288.07 205.52 289.63 205.52 289.96 222.24 285.31 221.83 285.52 218.94"/><circle class="cls-14" cx="289" cy="203.2" r="2.83"/><polygon class="cls-14" points="227.69 194.78 234.32 188.13 234.6 188.42 227.82 194.91 227.69 194.78"/><polygon class="cls-14" points="241.56 193.54 237.74 188.69 238.07 188.44 241.7 193.43 241.56 193.54"/><polygon class="cls-14" points="238.5 186.22 255.52 183.64 255.58 184.05 238.53 186.4 238.5 186.22"/><polygon class="cls-14" points="278.07 190.03 263.59 185.07 263.73 184.68 278.13 189.87 278.07 190.03"/><polygon class="cls-14" points="269.12 197.72 262.04 186.64 262.39 186.42 269.27 197.62 269.12 197.72"/><polygon class="cls-14" points="270.82 198.24 277.89 191.94 278.16 192.26 270.94 198.38 270.82 198.24"/><polygon class="cls-14" points="287.56 201.59 281.93 193.11 282.28 192.88 287.71 201.49 287.56 201.59"/><polygon class="cls-14" points="243.18 194.06 255.57 185.19 255.81 185.53 243.29 194.2 243.18 194.06"/><path class="cls-2" d="M270.67,249.7a10.54,10.54,0,0,1-5.2,9.1,16.06,16.06,0,0,0-8.58-2.32,17.79,17.79,0,0,0-4.37.54,10.55,10.55,0,1,1,18.16-7.31Z" transform="translate(-17.36 -32.68)"/><circle class="cls-3" cx="241.25" cy="214.84" r="6.65"/><path class="cls-2" d="M276,250.38a10.54,10.54,0,0,0,2.46,10.19,16.06,16.06,0,0,1,8.89.16,17.79,17.79,0,0,1,4.05,1.73A10.55,10.55,0,1,0,276,250.38Z" transform="translate(-17.36 -32.68)"/><circle class="cls-3" cx="284.41" cy="251.49" r="6.74" transform="translate(-53.7 421.94) rotate(-73.83)"/><path class="cls-12" d="M284.69,269.81s-1.4,13.62-15,12.17-11.9-14.79-11.9-14.79l1.53.15,0,.72a1.71,1.71,0,0,0,1.54,1.79l20.45,2a1.71,1.71,0,0,0,1.87-1.6l0-.56Z" transform="translate(-17.36 -32.68)"/><path class="cls-2" d="M283.13,269.66l0,.56a1.71,1.71,0,0,1-1.87,1.6l-20.45-2a1.71,1.71,0,0,1-1.54-1.79l0-.72Z" transform="translate(-17.36 -32.68)"/><path class="cls-11" d="M290.38,355.13H246c-8.47,0-14.92-8.06-13.56-16.94l4.94-32.3c1.08-7.06,6.82-12.25,13.56-12.25h34.5c6.73,0,12.48,5.19,13.56,12.25l4.94,32.3C305.3,347.07,298.85,355.13,290.38,355.13Z" transform="translate(-17.36 -32.68)"/><rect class="cls-11" x="295.66" y="293.95" width="13.17" height="38.25" rx="6.19" ry="6.19" transform="translate(-133.41 160.38) rotate(-30)"/><path class="cls-11" d="M332.3,321.2l-16.91,1a5.36,5.36,0,0,0-4.29,6.22l.45,2.44a5.36,5.36,0,0,0,6.22,4.29l17.93-7.49Z" transform="translate(-17.36 -32.68)"/><circle class="cls-3" cx="295.71" cy="295.53" r="4.75"/><path class="cls-11" d="M344.81,321.92c-.21-.67-.22-1,1.67-1.78s2.64-1.62,2.42-3.25-5,1.21-5.29.74.64-1.17,2.62-2.39,2.59-3.06,1.2-4.55-5.83,3.93-6.43,3.46,1.73-3.22,2.56-4.3.77-3.1-1.34-2.84-6.27,8.55-7.32,8.39l-.17-.05c0-.37,0-.86,0-1.38-1.26.39-2.8-1.46-3.85-1.87-.11.85.28,2.42-.32,3.24a5.78,5.78,0,0,0-.45.73c-1,1.84-.4,3.43-.13,5.54.3,2.38,3.17,6.24,6.27,6.91s5.31-2.18,7.68-3.12,5.13-1.89,4.6-3.6S345,322.58,344.81,321.92Z" transform="translate(-17.36 -32.68)"/><rect class="cls-5" x="138.38" y="255.47" width="41.56" height="73.47" rx="3.58" ry="3.58" transform="translate(-171.4 371.87) rotate(-81.16)"/><rect class="cls-2" x="157.69" y="261.95" width="14.43" height="44.23" rx="4.37" ry="4.37" transform="translate(-158.5 370.66) rotate(-81.16)"/><rect class="cls-2" x="150" y="273.9" width="14.43" height="54.22" rx="4.37" ry="4.37" transform="translate(-181.76 377.41) rotate(-81.16)"/><path class="cls-11" d="M201.35,304c-1.31-2.2-2.59-6.58-3.79-7.71s-4-4.05-5.2-3.21-2.11,1.35.38,4.17,1.44,11.23,1.33,17.17l7.09,1.1,5.84-4.37A78.19,78.19,0,0,1,201.35,304Z" transform="translate(-17.36 -32.68)"/><rect class="cls-2" x="111.19" y="240.67" width="12" height="12" rx="6" ry="6"/><circle class="cls-2" cx="237.45" cy="211.16" r="2.09"/><circle class="cls-2" cx="263.66" cy="214.84" r="2.09"/><path class="cls-2" d="M355.57,289.11l-.55-1.62a3.28,3.28,0,0,0-4.25-1.82L320.68,296a3.28,3.28,0,0,0-2.25,4l.55,1.62c2.42,7.09,9.45,11.42,17.21,11.36a2.16,2.16,0,0,1,2.12,1.39h0a2.16,2.16,0,0,1-.83,2.4c-6.17,4.71-9.07,12.44-6.65,19.52l.72,2.11a3.68,3.68,0,0,0,4.77,2l29.29-10a3.68,3.68,0,0,0,2.53-4.54l-.72-2.11c-2.42-7.09-9.45-11.42-17.21-11.36A2.16,2.16,0,0,1,348.1,311h0a2.16,2.16,0,0,1,.83-2.4C355.09,303.92,358,296.19,355.57,289.11Z" transform="translate(-17.36 -32.68)"/><path class="cls-6" d="M346.48,313.68l-1.11-3.24a2.8,2.8,0,0,1,1.22-3.23c3.95-2.57,6.47-6.29,6.73-10-14,7-19,4.62-25.48,5.17-2.36.2-3.3,2.92-2.09,4.26,2.47,2.75,6.74,4.15,11.43,3.77a2.8,2.8,0,0,1,2.94,1.81l1.11,3.24a2.75,2.75,0,0,1-1,3.1c-4.91,3.56-7.55,8.74-5.66,14.26l.23.67a3.41,3.41,0,0,0,4.42,1.89l21.13-7.22a3.41,3.41,0,0,0,2.34-4.2l-.23-.67c-1.89-5.52-7.14-8-13.2-7.81A2.75,2.75,0,0,1,346.48,313.68Z" transform="translate(-17.36 -32.68)"/><path class="cls-11" d="M334.75,314c0-.71.75-2.85.69-3.49-.33-3.5-5.19-3.24-4.86-1.91a11.82,11.82,0,0,1,.3,3.88C331.93,312.88,333.5,314.37,334.75,314Z" transform="translate(-17.36 -32.68)"/></g></svg>