<svg width="324" height="122" viewBox="0 0 324 122" fill="none" xmlns="http://www.w3.org/2000/svg">
<path d="M11.748 10.6279V32H7.5293V15.4912L2.46094 17.1025V13.7773L11.2939 10.6279H11.748Z" fill="#FF0000"/>
<rect x="18" y="10" width="40" height="6" rx="3" fill="#FF0000"/>
<rect x="18" y="20" width="49" height="6" rx="3" fill="#FF0000"/>
<path d="M70.0547 55.7041V59H55.4648V56.1875L62.3643 48.79C63.0576 48.0186 63.6045 47.3398 64.0049 46.7539C64.4053 46.1582 64.6934 45.626 64.8691 45.1572C65.0547 44.6787 65.1475 44.2246 65.1475 43.7949C65.1475 43.1504 65.04 42.5986 64.8252 42.1396C64.6104 41.6709 64.293 41.3096 63.873 41.0557C63.4629 40.8018 62.9551 40.6748 62.3496 40.6748C61.7051 40.6748 61.1484 40.8311 60.6797 41.1436C60.2207 41.4561 59.8691 41.8906 59.625 42.4473C59.3906 43.0039 59.2734 43.6338 59.2734 44.3369H55.04C55.04 43.0674 55.3428 41.9053 55.9482 40.8506C56.5537 39.7861 57.4082 38.9414 58.5117 38.3164C59.6152 37.6816 60.9238 37.3643 62.4375 37.3643C63.9316 37.3643 65.1914 37.6084 66.2168 38.0967C67.252 38.5752 68.0332 39.2686 68.5605 40.1768C69.0977 41.0752 69.3662 42.1494 69.3662 43.3994C69.3662 44.1025 69.2539 44.791 69.0293 45.4648C68.8047 46.1289 68.4824 46.793 68.0625 47.457C67.6523 48.1113 67.1543 48.7754 66.5684 49.4492C65.9824 50.123 65.333 50.8213 64.6201 51.5439L60.9141 55.7041H70.0547Z" fill="#EBD617"/>
<rect x="78" y="38" width="46" height="6" rx="3" fill="#EBD617"/>
<rect x="100" y="48" width="24" height="6" rx="3" fill="#EBD617"/>
<path d="M114.786 76.5049H117.042C117.765 76.5049 118.36 76.3828 118.829 76.1387C119.298 75.8848 119.645 75.5332 119.869 75.084C120.104 74.625 120.221 74.0928 120.221 73.4873C120.221 72.9404 120.113 72.457 119.898 72.0371C119.693 71.6074 119.376 71.2754 118.946 71.041C118.517 70.7969 117.975 70.6748 117.32 70.6748C116.803 70.6748 116.324 70.7773 115.885 70.9824C115.445 71.1875 115.094 71.4756 114.83 71.8467C114.566 72.2178 114.435 72.667 114.435 73.1943H110.201C110.201 72.0225 110.514 71.002 111.139 70.1328C111.773 69.2637 112.623 68.585 113.688 68.0967C114.752 67.6084 115.924 67.3643 117.203 67.3643C118.648 67.3643 119.913 67.5986 120.997 68.0674C122.081 68.5264 122.926 69.2051 123.531 70.1035C124.137 71.002 124.439 72.1152 124.439 73.4434C124.439 74.1172 124.283 74.7715 123.971 75.4062C123.658 76.0312 123.209 76.5977 122.623 77.1055C122.047 77.6035 121.344 78.0039 120.514 78.3066C119.684 78.5996 118.751 78.7461 117.716 78.7461H114.786V76.5049ZM114.786 79.7129V77.5303H117.716C118.878 77.5303 119.898 77.6621 120.777 77.9258C121.656 78.1895 122.394 78.5703 122.989 79.0684C123.585 79.5566 124.034 80.1377 124.337 80.8115C124.64 81.4756 124.791 82.2129 124.791 83.0234C124.791 84.0195 124.601 84.9082 124.22 85.6895C123.839 86.4609 123.302 87.1152 122.608 87.6523C121.925 88.1895 121.124 88.5996 120.206 88.8828C119.288 89.1562 118.287 89.293 117.203 89.293C116.305 89.293 115.421 89.1709 114.552 88.9268C113.692 88.6729 112.911 88.2969 112.208 87.7988C111.515 87.291 110.958 86.6562 110.538 85.8945C110.128 85.123 109.923 84.21 109.923 83.1553H114.156C114.156 83.7021 114.293 84.1904 114.566 84.6201C114.84 85.0498 115.216 85.3867 115.694 85.6309C116.183 85.875 116.725 85.9971 117.32 85.9971C117.994 85.9971 118.57 85.875 119.049 85.6309C119.537 85.377 119.908 85.0254 120.162 84.5762C120.426 84.1172 120.558 83.585 120.558 82.9795C120.558 82.1982 120.416 81.5732 120.133 81.1045C119.85 80.626 119.444 80.2744 118.917 80.0498C118.39 79.8252 117.765 79.7129 117.042 79.7129H114.786Z" fill="#B0D55B"/>
<rect x="132" y="68" width="57" height="6" rx="3" fill="#B0D55B"/>
<rect x="165" y="78" width="24" height="6" rx="3" fill="#B0D55B"/>
<path d="M193.406 105.031V108.342H178.04L177.835 105.778L186.727 91.6719H190.081L186.448 97.751L182.024 105.031H193.406ZM190.989 91.6719V113H186.771V91.6719H190.989Z" fill="#40B17B"/>
<rect x="203" y="92" width="41" height="6" rx="3" fill="#40B17B"/>
<rect x="209" y="102" width="35" height="6" rx="3" fill="#40B17B"/>
<path d="M285.89 114.829V117H279.089V114.829H285.89ZM279.989 103.492V117H277.206V103.492H279.989ZM286.892 112.083V111.888C286.892 111.152 286.997 110.475 287.207 109.856C287.417 109.232 287.723 108.691 288.125 108.233C288.528 107.775 289.022 107.42 289.61 107.166C290.197 106.906 290.872 106.776 291.632 106.776C292.393 106.776 293.07 106.906 293.664 107.166C294.258 107.42 294.756 107.775 295.158 108.233C295.566 108.691 295.875 109.232 296.085 109.856C296.296 110.475 296.401 111.152 296.401 111.888V112.083C296.401 112.813 296.296 113.49 296.085 114.115C295.875 114.733 295.566 115.274 295.158 115.738C294.756 116.196 294.261 116.552 293.673 116.805C293.086 117.059 292.412 117.186 291.651 117.186C290.89 117.186 290.213 117.059 289.619 116.805C289.032 116.552 288.534 116.196 288.125 115.738C287.723 115.274 287.417 114.733 287.207 114.115C286.997 113.49 286.892 112.813 286.892 112.083ZM289.563 111.888V112.083C289.563 112.504 289.601 112.896 289.675 113.261C289.749 113.626 289.867 113.948 290.027 114.226C290.194 114.498 290.411 114.712 290.677 114.866C290.943 115.021 291.267 115.098 291.651 115.098C292.022 115.098 292.34 115.021 292.606 114.866C292.872 114.712 293.086 114.498 293.247 114.226C293.407 113.948 293.525 113.626 293.599 113.261C293.68 112.896 293.72 112.504 293.72 112.083V111.888C293.72 111.48 293.68 111.097 293.599 110.738C293.525 110.373 293.404 110.051 293.237 109.773C293.076 109.488 292.863 109.266 292.597 109.105C292.331 108.944 292.01 108.864 291.632 108.864C291.255 108.864 290.933 108.944 290.667 109.105C290.408 109.266 290.194 109.488 290.027 109.773C289.867 110.051 289.749 110.373 289.675 110.738C289.601 111.097 289.563 111.48 289.563 111.888ZM300.91 114.402L302.997 106.962H304.695L304.147 109.884L302.06 117H300.641L300.91 114.402ZM299.852 106.962L301.346 114.393L301.485 117H299.815L297.273 106.962H299.852ZM306.606 114.272L308.062 106.962H310.651L308.109 117H306.448L306.606 114.272ZM304.927 106.962L307.005 114.347L307.292 117H305.864L303.776 109.894L303.248 106.962H304.927Z" fill="#40B17B"/>
<path d="M284.214 8.99365V11.1646H277.164V8.99365H284.214ZM277.989 3.49219V17H275.206V3.49219H277.989ZM286.2 3.49219V17H283.426V3.49219H286.2ZM291.274 6.96191V17H288.593V6.96191H291.274ZM288.426 4.3457C288.426 3.95605 288.562 3.63444 288.834 3.38086C289.107 3.12728 289.472 3.00049 289.929 3.00049C290.381 3.00049 290.743 3.12728 291.015 3.38086C291.293 3.63444 291.432 3.95605 291.432 4.3457C291.432 4.73535 291.293 5.05697 291.015 5.31055C290.743 5.56413 290.381 5.69092 289.929 5.69092C289.472 5.69092 289.107 5.56413 288.834 5.31055C288.562 5.05697 288.426 4.73535 288.426 4.3457ZM299.837 6.96191H302.259V16.666C302.259 17.5814 302.055 18.3576 301.646 18.9946C301.244 19.6379 300.682 20.1234 299.958 20.4512C299.234 20.7852 298.393 20.9521 297.435 20.9521C297.014 20.9521 296.569 20.8965 296.099 20.7852C295.635 20.6738 295.189 20.5007 294.763 20.2656C294.342 20.0306 293.99 19.7337 293.705 19.375L294.883 17.7979C295.193 18.1566 295.551 18.4349 295.959 18.6328C296.368 18.8369 296.819 18.939 297.314 18.939C297.796 18.939 298.205 18.8493 298.539 18.6699C298.873 18.4967 299.129 18.2401 299.309 17.8999C299.488 17.5659 299.578 17.1608 299.578 16.6846V9.28125L299.837 6.96191ZM293.083 12.1016V11.9067C293.083 11.1398 293.176 10.444 293.362 9.81934C293.554 9.18848 293.823 8.6473 294.169 8.1958C294.521 7.7443 294.948 7.39486 295.449 7.14746C295.95 6.90007 296.516 6.77637 297.147 6.77637C297.815 6.77637 298.375 6.90007 298.826 7.14746C299.278 7.39486 299.649 7.7474 299.939 8.20508C300.23 8.65658 300.456 9.19157 300.617 9.81006C300.784 10.4224 300.914 11.0934 301.006 11.8232V12.25C300.914 12.9489 300.774 13.5983 300.589 14.1982C300.403 14.7982 300.159 15.3239 299.856 15.7754C299.553 16.2207 299.176 16.5671 298.724 16.8145C298.279 17.0618 297.747 17.1855 297.128 17.1855C296.51 17.1855 295.95 17.0588 295.449 16.8052C294.954 16.5516 294.531 16.196 294.178 15.7383C293.826 15.2806 293.554 14.7425 293.362 14.124C293.176 13.5055 293.083 12.8314 293.083 12.1016ZM295.755 11.9067V12.1016C295.755 12.516 295.796 12.9025 295.876 13.2612C295.956 13.62 296.08 13.9385 296.247 14.2168C296.42 14.4889 296.634 14.7023 296.887 14.8569C297.147 15.0054 297.453 15.0796 297.806 15.0796C298.294 15.0796 298.693 14.9775 299.002 14.7734C299.312 14.5632 299.544 14.2756 299.698 13.9106C299.853 13.5457 299.943 13.1252 299.967 12.6489V11.4336C299.955 11.0439 299.902 10.6945 299.81 10.3853C299.717 10.0698 299.587 9.80078 299.42 9.57812C299.253 9.35547 299.036 9.18229 298.771 9.05859C298.505 8.9349 298.189 8.87305 297.824 8.87305C297.472 8.87305 297.166 8.95345 296.906 9.11426C296.652 9.26888 296.439 9.48226 296.266 9.75439C296.099 10.0265 295.972 10.3481 295.885 10.7192C295.799 11.0841 295.755 11.48 295.755 11.9067ZM306.944 2.75V17H304.272V2.75H306.944ZM306.563 11.6284H305.831C305.837 10.9295 305.93 10.2863 306.109 9.69873C306.288 9.10498 306.545 8.59163 306.879 8.15869C307.213 7.71956 307.612 7.37939 308.076 7.13818C308.546 6.89697 309.065 6.77637 309.634 6.77637C310.129 6.77637 310.577 6.84749 310.979 6.98975C311.388 7.12581 311.737 7.34847 312.028 7.65771C312.325 7.96077 312.554 8.3597 312.714 8.85449C312.875 9.34928 312.956 9.94922 312.956 10.6543V17H310.265V10.6357C310.265 10.1904 310.2 9.84098 310.07 9.5874C309.947 9.32764 309.764 9.14518 309.523 9.04004C309.288 8.92871 308.997 8.87305 308.651 8.87305C308.267 8.87305 307.94 8.94417 307.667 9.08643C307.402 9.22868 307.188 9.4266 307.027 9.68018C306.867 9.92757 306.749 10.2183 306.675 10.5522C306.601 10.8862 306.563 11.245 306.563 11.6284Z" fill="#FF0000"/>
<path d="M269.55 62.7026H265.941V61.2461H269.55C270.249 61.2461 270.815 61.1348 271.248 60.9121C271.681 60.6895 271.996 60.3802 272.194 59.9844C272.398 59.5885 272.5 59.137 272.5 58.6299C272.5 58.166 272.398 57.73 272.194 57.3218C271.996 56.9136 271.681 56.5858 271.248 56.3384C270.815 56.0848 270.249 55.958 269.55 55.958H266.358V68H264.568V54.4922H269.55C270.57 54.4922 271.433 54.6685 272.138 55.021C272.843 55.3735 273.378 55.8621 273.743 56.4868C274.108 57.1053 274.291 57.8135 274.291 58.6113C274.291 59.4772 274.108 60.2163 273.743 60.8286C273.378 61.4409 272.843 61.9079 272.138 62.2295C271.433 62.5449 270.57 62.7026 269.55 62.7026ZM278.011 59.5391V68H276.294V57.9619H277.964L278.011 59.5391ZM281.146 57.9062L281.137 59.502C280.995 59.471 280.859 59.4525 280.729 59.4463C280.605 59.4339 280.463 59.4277 280.302 59.4277C279.906 59.4277 279.557 59.4896 279.254 59.6133C278.951 59.737 278.694 59.9102 278.484 60.1328C278.274 60.3555 278.107 60.6214 277.983 60.9307C277.865 61.2337 277.788 61.5677 277.751 61.9326L277.269 62.2109C277.269 61.6048 277.327 61.0358 277.445 60.5039C277.569 59.972 277.757 59.502 278.011 59.0938C278.264 58.6794 278.586 58.3577 278.976 58.1289C279.371 57.8939 279.841 57.7764 280.386 57.7764C280.509 57.7764 280.652 57.7918 280.812 57.8228C280.973 57.8475 281.085 57.8753 281.146 57.9062ZM284.598 57.9619V68H282.872V57.9619H284.598ZM282.742 55.2993C282.742 55.021 282.826 54.786 282.993 54.5942C283.166 54.4025 283.419 54.3066 283.753 54.3066C284.081 54.3066 284.332 54.4025 284.505 54.5942C284.684 54.786 284.774 55.021 284.774 55.2993C284.774 55.5653 284.684 55.7941 284.505 55.9858C284.332 56.1714 284.081 56.2642 283.753 56.2642C283.419 56.2642 283.166 56.1714 282.993 55.9858C282.826 55.7941 282.742 55.5653 282.742 55.2993ZM286.898 63.0923V62.8789C286.898 62.1553 287.004 61.4842 287.214 60.8657C287.424 60.241 287.727 59.6999 288.123 59.2422C288.519 58.7783 288.998 58.4196 289.561 58.166C290.124 57.9062 290.755 57.7764 291.454 57.7764C292.159 57.7764 292.793 57.9062 293.355 58.166C293.924 58.4196 294.407 58.7783 294.803 59.2422C295.205 59.6999 295.511 60.241 295.721 60.8657C295.931 61.4842 296.037 62.1553 296.037 62.8789V63.0923C296.037 63.8159 295.931 64.487 295.721 65.1055C295.511 65.724 295.205 66.2651 294.803 66.729C294.407 67.1867 293.928 67.5454 293.365 67.8052C292.808 68.0588 292.177 68.1855 291.472 68.1855C290.767 68.1855 290.133 68.0588 289.57 67.8052C289.007 67.5454 288.525 67.1867 288.123 66.729C287.727 66.2651 287.424 65.724 287.214 65.1055C287.004 64.487 286.898 63.8159 286.898 63.0923ZM288.615 62.8789V63.0923C288.615 63.5933 288.674 64.0664 288.791 64.5117C288.909 64.9508 289.085 65.3405 289.32 65.6807C289.561 66.0208 289.861 66.2899 290.22 66.4878C290.578 66.6795 290.996 66.7754 291.472 66.7754C291.942 66.7754 292.354 66.6795 292.706 66.4878C293.065 66.2899 293.362 66.0208 293.597 65.6807C293.832 65.3405 294.008 64.9508 294.125 64.5117C294.249 64.0664 294.311 63.5933 294.311 63.0923V62.8789C294.311 62.3841 294.249 61.9172 294.125 61.478C294.008 61.0327 293.829 60.64 293.587 60.2998C293.352 59.9535 293.056 59.6813 292.697 59.4834C292.344 59.2855 291.93 59.1865 291.454 59.1865C290.984 59.1865 290.569 59.2855 290.21 59.4834C289.858 59.6813 289.561 59.9535 289.32 60.2998C289.085 60.64 288.909 61.0327 288.791 61.478C288.674 61.9172 288.615 62.3841 288.615 62.8789ZM299.905 59.5391V68H298.189V57.9619H299.859L299.905 59.5391ZM303.041 57.9062L303.032 59.502C302.889 59.471 302.753 59.4525 302.624 59.4463C302.5 59.4339 302.358 59.4277 302.197 59.4277C301.801 59.4277 301.451 59.4896 301.148 59.6133C300.845 59.737 300.589 59.9102 300.378 60.1328C300.168 60.3555 300.001 60.6214 299.877 60.9307C299.76 61.2337 299.683 61.5677 299.646 61.9326L299.163 62.2109C299.163 61.6048 299.222 61.0358 299.339 60.5039C299.463 59.972 299.652 59.502 299.905 59.0938C300.159 58.6794 300.48 58.3577 300.87 58.1289C301.266 57.8939 301.736 57.7764 302.28 57.7764C302.404 57.7764 302.546 57.7918 302.707 57.8228C302.868 57.8475 302.979 57.8753 303.041 57.9062ZM306.492 57.9619V68H304.767V57.9619H306.492ZM304.637 55.2993C304.637 55.021 304.72 54.786 304.887 54.5942C305.06 54.4025 305.314 54.3066 305.648 54.3066C305.976 54.3066 306.226 54.4025 306.399 54.5942C306.579 54.786 306.668 55.021 306.668 55.2993C306.668 55.5653 306.579 55.7941 306.399 55.9858C306.226 56.1714 305.976 56.2642 305.648 56.2642C305.314 56.2642 305.06 56.1714 304.887 55.9858C304.72 55.7941 304.637 55.5653 304.637 55.2993ZM313.45 57.9619V59.2793H308.023V57.9619H313.45ZM309.86 55.522H311.576V65.5137C311.576 65.8538 311.629 66.1105 311.734 66.2837C311.839 66.4569 311.975 66.5713 312.142 66.627C312.309 66.6826 312.488 66.7104 312.68 66.7104C312.822 66.7104 312.971 66.6981 313.125 66.6733C313.286 66.6424 313.407 66.6177 313.487 66.5991L313.497 68C313.361 68.0433 313.181 68.0835 312.958 68.1206C312.742 68.1639 312.479 68.1855 312.17 68.1855C311.749 68.1855 311.363 68.1021 311.01 67.9351C310.658 67.7681 310.376 67.4897 310.166 67.1001C309.962 66.7043 309.86 66.1724 309.86 65.5044V55.522ZM318.284 66.9609L321.076 57.9619H322.913L318.887 69.5493C318.794 69.7967 318.67 70.0627 318.516 70.3472C318.367 70.6379 318.175 70.9131 317.94 71.1729C317.705 71.4326 317.421 71.6429 317.087 71.8037C316.759 71.9707 316.366 72.0542 315.909 72.0542C315.773 72.0542 315.599 72.0356 315.389 71.9985C315.179 71.9614 315.03 71.9305 314.944 71.9058L314.935 70.5142C314.984 70.5203 315.061 70.5265 315.167 70.5327C315.278 70.5451 315.355 70.5513 315.398 70.5513C315.788 70.5513 316.119 70.4987 316.391 70.3936C316.663 70.2946 316.892 70.1245 317.078 69.8833C317.269 69.6483 317.433 69.3236 317.569 68.9092L318.284 66.9609ZM316.233 57.9619L318.84 65.7549L319.286 67.564L318.052 68.1948L314.359 57.9619H316.233Z" fill="#171717"/>
<path d="M182.688 12.5999V9.63113L172 9.15625L161.312 9.63113V12.5999C161.312 17.3499 164.637 21.2686 169.031 22.3374C169.388 22.4561 169.625 22.8124 169.625 23.1686V24.5936C169.625 24.9499 169.388 25.3061 169.031 25.3061C164.637 26.3749 161.312 30.2936 161.312 35.0436V38.2499L172 39.4375L182.688 38.2499V35.0436C182.688 30.2936 179.362 26.3749 174.969 25.3061C174.612 25.1874 174.375 24.9499 174.375 24.5936V23.1686C174.375 22.8124 174.612 22.4561 174.969 22.4561C179.362 21.2686 182.688 17.3499 182.688 12.5999Z" fill="#83CBFF"/>
<path d="M161.312 9.75H182.688C183.4 9.75 183.875 9.275 183.875 8.5625C183.875 7.85 183.4 7.375 182.688 7.375H161.312C160.6 7.375 160.125 7.85 160.125 8.5625C160.125 9.275 160.6 9.75 161.312 9.75ZM161.312 40.625H182.688C183.4 40.625 183.875 40.15 183.875 39.4375C183.875 38.725 183.4 38.25 182.688 38.25H161.312C160.6 38.25 160.125 38.725 160.125 39.4375C160.125 40.15 160.6 40.625 161.312 40.625Z" fill="#9B9B9B"/>
<path d="M173.188 28.0375V22.9313C173.188 22.1 173.781 21.5062 174.494 21.2687C176.513 20.7937 178.294 19.6062 179.6 18.0625C180.431 17.1125 179.719 15.6875 178.531 15.6875C175.088 15.6875 168.913 15.6875 165.469 15.6875C164.281 15.6875 163.569 17.1125 164.4 18.0625C165.706 19.6062 167.487 20.675 169.506 21.2687C170.337 21.5062 170.812 22.1 170.812 22.9313V27.5625C170.812 28.3937 170.456 28.75 170.1 28.8688C165.706 29.7 162.5 33.025 162.5 36.9437V38.25H181.5V36.9437C181.5 33.025 178.294 29.7 173.9 28.8688C173.544 28.8688 173.188 28.5125 173.188 28.0375Z" fill="#FFB02E"/>
<path d="M178.531 11.8874C178.531 11.2936 179.006 10.8186 179.6 10.8186C180.312 10.9374 180.787 11.4124 180.669 11.8874C180.55 13.7874 180.075 15.4499 179.125 16.8749C178.175 18.5374 176.75 19.7249 175.087 20.3186C174.494 20.5561 173.9 20.3186 173.662 19.7249C173.425 19.1311 173.662 18.5374 174.256 18.2999C177.106 17.2311 178.294 14.1436 178.531 11.8874ZM178.531 35.7563C178.531 36.35 179.006 36.825 179.6 36.825C180.312 36.825 180.787 36.2313 180.669 35.7563C180.55 33.8563 180.075 32.1938 179.125 30.7688C178.175 29.1063 176.75 27.9188 175.087 27.325C174.494 27.0875 173.9 27.325 173.662 27.9188C173.425 28.5125 173.662 29.1063 174.256 29.3438C177.106 30.4125 178.294 33.5 178.531 35.7563Z" fill="white"/>
</svg>
