<svg xmlns="http://www.w3.org/2000/svg" viewBox="0 0 383.29 323.26"><defs><style>.cls-1{fill:#4f6ddb;}.cls-15,.cls-16,.cls-17,.cls-2{fill:#fff;}.cls-3,.cls-5,.cls-6{font-size:23.97px;}.cls-25,.cls-3,.cls-5,.cls-6{fill:#28282a;}.cls-18,.cls-19,.cls-20,.cls-3,.cls-5,.cls-6{font-family:MyriadPro-Regular, Myriad Pro;}.cls-3{letter-spacing:0.01em;}.cls-4{letter-spacing:0em;}.cls-5{letter-spacing:-0.05em;}.cls-6{letter-spacing:-0.03em;}.cls-7{letter-spacing:0em;}.cls-10,.cls-11,.cls-8,.cls-9{fill:none;stroke:#f6eeca;stroke-linecap:round;stroke-width:1.95px;}.cls-10,.cls-11,.cls-15,.cls-16,.cls-17,.cls-18,.cls-19,.cls-20,.cls-8,.cls-9{stroke-miterlimit:10;}.cls-8{stroke-dasharray:8.76;}.cls-9{stroke-dasharray:11;}.cls-10{stroke-dasharray:10.5;}.cls-11{stroke-dasharray:9.3;}.cls-12,.cls-18{fill:#029d41;}.cls-13,.cls-19{fill:#ffc61a;}.cls-14,.cls-20{fill:#fe3737;}.cls-15,.cls-18{stroke:#029d41;}.cls-15,.cls-16,.cls-17{stroke-width:6.75px;}.cls-16,.cls-19{stroke:#ffc61a;}.cls-17,.cls-20{stroke:#fe3737;}.cls-18{font-size:46.49px;stroke-width:0.91px;}.cls-19{font-size:44.53px;stroke-width:0.87px;}.cls-20{font-size:39.55px;stroke-width:0.78px;}.cls-21{fill:#f3792f;}.cls-22{fill:#a20a0a;}.cls-23{fill:#d9d9d9;}.cls-24{fill:#f2792e;}</style></defs><title>Schedules tasks and meetings based on you priorities_light_mode</title><g id="Слой_2" data-name="Слой 2"><rect class="cls-1" x="82.12" width="301.17" height="183.21" rx="12.87" ry="12.87"/><rect class="cls-2" x="144.39" y="11" width="61.5" height="29.75" rx="3.96" ry="3.96"/><text class="cls-3" transform="translate(152.19 32.91)">M<tspan class="cls-4" x="19.42" y="0">on</tspan></text><rect class="cls-2" x="224.07" y="11" width="61.5" height="29.75" rx="3.96" ry="3.96"/><text class="cls-5" transform="translate(236.8 32.91)">T<tspan class="cls-4" x="10.84" y="0">ue</tspan></text><rect class="cls-2" x="303.75" y="11" width="61.5" height="29.75" rx="3.96" ry="3.96"/><text class="cls-6" transform="translate(311.99 32.91)">W<tspan class="cls-7" x="19.49" y="0">ed</tspan></text><line class="cls-8" x1="133.79" y1="47.67" x2="133.79" y2="175.66"/><line class="cls-9" x1="215" y1="47.67" x2="215" y2="179"/><line class="cls-10" x1="296.21" y1="47.67" x2="296.21" y2="175.66"/><line class="cls-11" x1="315.75" y1="83.67" x2="95.45" y2="83.67"/><line class="cls-8" x1="315.75" y1="129" x2="95.45" y2="129"/><rect class="cls-12" x="144.39" y="96.72" width="61.5" height="20.29" rx="3.19" ry="3.19"/><rect class="cls-2" x="152.4" y="104.7" width="45.46" height="4.33" rx="2.17" ry="2.17"/><rect class="cls-13" x="144.39" y="144.04" width="61.5" height="20.29" rx="3.19" ry="3.19"/><rect class="cls-2" x="151.39" y="148.35" width="47.5" height="4.33" rx="2.17" ry="2.17"/><rect class="cls-2" x="151.39" y="156.35" width="47.5" height="4.33" rx="2.17" ry="2.17"/><rect class="cls-13" x="144.39" y="50.59" width="61.5" height="25.45" rx="3.43" ry="3.43"/><rect class="cls-2" x="149.9" y="55.19" width="48.99" height="5.96" rx="2.98" ry="2.98"/><rect class="cls-2" x="149.9" y="64.69" width="48.99" height="5.96" rx="2.98" ry="2.98"/><rect class="cls-12" x="227.05" y="52.31" width="61.5" height="22" rx="4.7" ry="4.7"/><circle class="cls-2" cx="235.29" cy="63.31" r="5.04"/><rect class="cls-2" x="246.87" y="56.02" width="33.92" height="4.33" rx="2.17" ry="2.17"/><rect class="cls-2" x="246.87" y="64.02" width="33.92" height="4.33" rx="2.17" ry="2.17"/><rect class="cls-13" x="308.12" y="90.84" width="61.5" height="32.06" rx="4.7" ry="4.7"/><circle class="cls-2" cx="316.36" cy="106.27" r="5.04"/><rect class="cls-2" x="327.94" y="96.54" width="33.92" height="4.33" rx="2.17" ry="2.17"/><rect class="cls-2" x="327.94" y="104.54" width="33.92" height="4.33" rx="2.17" ry="2.17"/><rect class="cls-2" x="327.94" y="112.54" width="33.92" height="4.33" rx="2.17" ry="2.17"/><rect class="cls-14" x="227.05" y="91.61" width="61.5" height="30.5" rx="5.58" ry="5.58"/><rect class="cls-2" x="233.62" y="97.45" width="47.17" height="6.5" rx="3.04" ry="3.04"/><rect class="cls-2" x="233.62" y="109.45" width="47.17" height="6.5" rx="3.04" ry="3.04"/><path class="cls-12" d="M15.56,71.18h92.22a0,0,0,0,1,0,0v38.56a0,0,0,0,1,0,0H15.56A19.28,19.28,0,0,1-3.72,90.46v0A19.28,19.28,0,0,1,15.56,71.18Z" transform="translate(121.27 5.75) rotate(90)"/><rect class="cls-13" x="1.78" y="176.92" width="100.5" height="38.56" transform="translate(227.01 111.49) rotate(90)"/><circle class="cls-15" cx="30.81" cy="62.04" r="27.44"/><circle class="cls-16" cx="30.81" cy="164.23" r="27.44"/><path class="cls-14" d="M-2.72,281.92H87.5a19.28,19.28,0,0,1,19.28,19.28v0A19.28,19.28,0,0,1,87.5,320.47H-2.72a0,0,0,0,1,0,0V281.92A0,0,0,0,1-2.72,281.92Z" transform="translate(332.01 216.48) rotate(90)"/><circle class="cls-17" cx="30.81" cy="262.73" r="27.44"/><text class="cls-18" transform="translate(25.46 78.32)">!</text><text class="cls-19" transform="translate(20.57 179)">!!</text><text class="cls-20" transform="translate(17.12 277.43)">!!!</text><path class="cls-21" d="M199.7,297.94a4.82,4.82,0,0,0-2.82.7c-1.75,1.17-1.65,2.71-1.55,4.14a3.67,3.67,0,0,0-1.18,3.13c.24,1,1.28,2.17,1.28,3s-.77,3.25.39,4.93,5.25,1.18,5.83,1.26C201.77,309.16,203.32,303.31,199.7,297.94Z" transform="translate(-21.22 -32.68)"/><rect class="cls-21" x="230.76" y="293.12" width="13.17" height="38.25" rx="6.19" ry="6.19" transform="translate(166.7 -109.52) rotate(30)"/><path class="cls-21" d="M214.33,311.53,230.9,321a5.63,5.63,0,0,1,1.61,7.75l-1.45,2a5.63,5.63,0,0,1-7.86.91l-14.43-15.5Z" transform="translate(-21.22 -32.68)"/><polygon class="cls-22" points="240.74 253.65 238.88 262.49 262.77 265.4 261.32 256.05 240.74 253.65"/><path class="cls-21" d="M248.15,246.84s.35-8.12,6.06-12.13c5.24-3.68,6-3.72,25-1.38,18.45,2.28,20.17,2,24.21,7.21,4.54,5.88,3.12,14,3.12,14s4.92.23,6,.74,1.79,1.47,1.52,4.41-.69,7.12-.87,7.95a3.26,3.26,0,0,1-3,2c-1.42-.09-5.51-.41-5.51-.41s-.41,7.76-1.88,11.21a14.73,14.73,0,0,1-10.38,9c-5.88,1.33-16.4-.64-23.84-1.47s-11.58-.46-16.91-4.27-5.7-8.77-6.11-11.07.83-11,.83-11a33.72,33.72,0,0,1-4.82-.55c-1.24-.37-1.84-1.52-1.84-3.45s.6-8.22,1.24-9.51S243.09,246.06,248.15,246.84Z" transform="translate(-21.22 -32.68)"/><polygon class="cls-23" points="221.64 214.01 225.54 198.78 227.33 199.05 226.93 214.16 221.64 214.01"/><circle class="cls-24" cx="226.29" cy="196.96" r="2.83"/><circle class="cls-24" cx="236.29" cy="186.21" r="3.26"/><circle class="cls-24" cx="280.3" cy="190.62" r="3.26"/><circle class="cls-24" cx="259.67" cy="182.94" r="4.93"/><circle class="cls-24" cx="242.18" cy="194.13" r="1.87"/><circle class="cls-24" cx="269.97" cy="198.78" r="1.87"/><polygon class="cls-23" points="285.52 218.94 288.07 205.52 289.63 205.52 289.96 222.24 285.31 221.83 285.52 218.94"/><circle class="cls-24" cx="289" cy="203.2" r="2.83"/><polygon class="cls-24" points="227.69 194.78 234.32 188.13 234.6 188.42 227.82 194.91 227.69 194.78"/><polygon class="cls-24" points="241.56 193.54 237.74 188.69 238.07 188.44 241.7 193.43 241.56 193.54"/><polygon class="cls-24" points="238.5 186.22 255.52 183.64 255.58 184.05 238.53 186.4 238.5 186.22"/><polygon class="cls-24" points="278.07 190.03 263.59 185.07 263.73 184.68 278.13 189.87 278.07 190.03"/><polygon class="cls-24" points="269.11 197.72 262.04 186.64 262.39 186.42 269.27 197.62 269.11 197.72"/><polygon class="cls-24" points="270.82 198.24 277.89 191.94 278.16 192.26 270.94 198.38 270.82 198.24"/><polygon class="cls-24" points="287.56 201.59 281.93 193.11 282.28 192.88 287.71 201.49 287.56 201.59"/><polygon class="cls-24" points="243.18 194.06 255.57 185.19 255.81 185.53 243.29 194.2 243.18 194.06"/><path class="cls-2" d="M274.52,249.7a10.54,10.54,0,0,1-5.2,9.1,16.06,16.06,0,0,0-8.58-2.32,17.79,17.79,0,0,0-4.37.54,10.55,10.55,0,1,1,18.16-7.31Z" transform="translate(-21.22 -32.68)"/><circle class="cls-25" cx="241.25" cy="214.84" r="6.65"/><path class="cls-2" d="M279.87,250.38a10.54,10.54,0,0,0,2.46,10.19,16.06,16.06,0,0,1,8.89.16,17.79,17.79,0,0,1,4.05,1.73,10.55,10.55,0,1,0-15.41-12.08Z" transform="translate(-21.22 -32.68)"/><circle class="cls-25" cx="288.26" cy="251.49" r="6.74" transform="translate(-54.77 425.64) rotate(-73.83)"/><path class="cls-22" d="M288.55,269.81s-1.4,13.62-15,12.17-11.9-14.79-11.9-14.79l1.53.15,0,.72a1.71,1.71,0,0,0,1.54,1.79l20.45,2a1.71,1.71,0,0,0,1.87-1.6l0-.56Z" transform="translate(-21.22 -32.68)"/><path class="cls-2" d="M287,269.66l0,.56a1.71,1.71,0,0,1-1.87,1.6l-20.45-2a1.71,1.71,0,0,1-1.54-1.79l0-.72Z" transform="translate(-21.22 -32.68)"/><path class="cls-21" d="M294.24,355.13H249.85c-8.47,0-14.92-8.06-13.56-16.94l4.94-32.3c1.08-7.06,6.82-12.25,13.56-12.25h34.5c6.73,0,12.48,5.19,13.56,12.25l4.94,32.3C309.15,347.07,302.7,355.13,294.24,355.13Z" transform="translate(-21.22 -32.68)"/><rect class="cls-21" x="299.52" y="293.95" width="13.17" height="38.25" rx="6.19" ry="6.19" transform="translate(706.51 398.47) rotate(150)"/><path class="cls-21" d="M332.19,321.2l-16.91,1a5.36,5.36,0,0,0-4.29,6.22l.45,2.44a5.36,5.36,0,0,0,6.22,4.29l17.93-7.49Z" transform="translate(-21.22 -32.68)"/><path class="cls-21" d="M344.7,321.92c-.21-.67-.22-1,1.67-1.78s2.64-1.62,2.42-3.25-5,1.21-5.29.74.64-1.17,2.62-2.39,2.59-3.06,1.2-4.55-5.83,3.93-6.43,3.46,1.73-3.22,2.56-4.3.77-3.1-1.34-2.84-6.27,8.55-7.32,8.39l-.17-.05c0-.37,0-.86,0-1.38-1.26.39-2.8-1.46-3.85-1.87-.11.85.28,2.42-.32,3.24a5.78,5.78,0,0,0-.45.73c-1,1.84-.4,3.43-.13,5.54.3,2.38,3.17,6.24,6.27,6.91s5.31-2.18,7.68-3.12,5.13-1.89,4.6-3.6S344.92,322.58,344.7,321.92Z" transform="translate(-21.22 -32.68)"/><rect class="cls-12" x="130.03" y="272.08" width="73.47" height="41.56" rx="3.58" ry="3.58" transform="translate(25.78 -54.84) rotate(8.84)"/><rect class="cls-2" x="150.39" y="277.51" width="44.23" height="14.43" rx="4.37" ry="4.37" transform="translate(24.6 -55.81) rotate(8.84)"/><rect class="cls-2" x="137.71" y="294.46" width="54.22" height="14.43" rx="4.37" ry="4.37" transform="translate(27.11 -54.43) rotate(8.84)"/><path class="cls-21" d="M209,304.69c-1.31-2.2-2.59-6.58-3.79-7.71s-4-4.05-5.2-3.21-2.11,1.35.38,4.17,1.44,11.23,1.33,17.17l7.09,1.1,5.84-4.37A78.19,78.19,0,0,1,209,304.69Z" transform="translate(-21.22 -32.68)"/><rect class="cls-2" x="114.94" y="241.33" width="12" height="12" rx="6" ry="6"/><circle class="cls-2" cx="237.45" cy="211.16" r="2.09"/><circle class="cls-2" cx="263.66" cy="214.84" r="2.09"/><path class="cls-1" d="M355.47,289.11l-.55-1.62a3.28,3.28,0,0,0-4.25-1.82L320.57,296a3.28,3.28,0,0,0-2.25,4l.55,1.62c2.42,7.09,9.45,11.42,17.21,11.36a2.16,2.16,0,0,1,2.12,1.39h0a2.16,2.16,0,0,1-.83,2.4c-6.17,4.71-9.07,12.44-6.65,19.52l.72,2.11a3.68,3.68,0,0,0,4.77,2l29.29-10A3.68,3.68,0,0,0,368,325.9l-.72-2.11c-2.42-7.09-9.45-11.42-17.21-11.36A2.16,2.16,0,0,1,348,311h0a2.16,2.16,0,0,1,.83-2.4C355,303.92,357.89,296.19,355.47,289.11Z" transform="translate(-21.22 -32.68)"/><path class="cls-13" d="M346.37,313.68l-1.11-3.24a2.8,2.8,0,0,1,1.22-3.23c3.95-2.57,6.47-6.29,6.73-10-14,7-19,4.62-25.48,5.17-2.36.2-3.3,2.92-2.09,4.26,2.47,2.75,6.74,4.15,11.43,3.77a2.8,2.8,0,0,1,2.94,1.81l1.11,3.24a2.75,2.75,0,0,1-1,3.1c-4.91,3.56-7.55,8.74-5.66,14.26l.23.67a3.41,3.41,0,0,0,4.42,1.89l21.13-7.22a3.41,3.41,0,0,0,2.34-4.2l-.23-.67c-1.89-5.52-7.14-8-13.2-7.81A2.75,2.75,0,0,1,346.37,313.68Z" transform="translate(-21.22 -32.68)"/><path class="cls-21" d="M334.64,314c0-.71.75-2.85.69-3.49-.33-3.5-5.19-3.24-4.86-1.91a11.82,11.82,0,0,1,.3,3.88C331.83,312.88,333.39,314.37,334.64,314Z" transform="translate(-21.22 -32.68)"/></g></svg>