<svg xmlns="http://www.w3.org/2000/svg" viewBox="0 0 408.55 312.61"><defs><style>.cls-1{fill:#28282a;}.cls-2{fill:#f3792f;}.cls-3{fill:#a20a0a;}.cls-4{fill:#fff;}.cls-5{fill:#fe3737;}.cls-6{fill:#4f6ddb;}.cls-7{fill:#029d41;}.cls-8{fill:#ffab1a;}.cls-9{fill:#92a9ff;}.cls-10{fill:#ffc61a;}.cls-11{fill:#d9d9d9;}.cls-12{fill:#f2792e;}</style></defs><title>Signals how close you are to each deadline_light_mode</title><g id="Слой_2" data-name="Слой 2"><path class="cls-1" d="M348.11,100.25s-10.62.23-15.41.14c-4-3.61,6.36-28.37,6.36-28.37s12.81,10.16,15.6,16.92C359,99.4,348.11,100.25,348.11,100.25Z" transform="translate(-8.06 -38.42)"/><path class="cls-2" d="M231.69,125a5.94,5.94,0,0,0-2.82.7c-2.16,1.12-3.45,3.46-1.87,5.37a2.74,2.74,0,0,0-.67,2.83c.24,1,1.09,1.23,1.09,2.07s-.77,3.25.39,4.93,5.25,1.18,5.83,1.26C233.76,136.23,235.3,130.37,231.69,125Z" transform="translate(-8.06 -38.42)"/><rect class="cls-2" x="253.95" y="133.39" width="38.25" height="13.17" rx="6.19" ry="6.19" transform="translate(7.26 268.06) rotate(-60)"/><path class="cls-2" d="M246.59,138.91l14.85,8.15a5.36,5.36,0,0,1,1.2,7.46l-1.45,2a5.36,5.36,0,0,1-7.46,1.2l-13-14.46Z" transform="translate(-8.06 -38.42)"/><circle class="cls-2" cx="253.31" cy="115.48" r="6.54"/><polygon class="cls-3" points="289.63 75.64 287.77 84.48 311.67 87.39 310.22 78.05 289.63 75.64"/><path class="cls-2" d="M283.88,74.57s.35-8.12,6.06-12.13c5.24-3.68,6-3.72,25-1.38,18.45,2.28,20.17,2,24.21,7.21,4.54,5.88,3.12,14,3.12,14s4.92.23,6,.74,1.79,1.47,1.52,4.41-.69,7.12-.87,7.95a3.26,3.26,0,0,1-3,2c-1.42-.09-5.51-.41-5.51-.41s-.41,7.76-1.88,11.21a14.73,14.73,0,0,1-10.38,9c-5.88,1.33-16.4-.64-23.84-1.47s-11.58-.46-16.91-4.27-5.7-8.77-6.11-11.07.83-11,.83-11a33.72,33.72,0,0,1-4.82-.55c-1.24-.37-1.84-1.52-1.84-3.45s.6-8.22,1.24-9.51S278.83,73.79,283.88,74.57Z" transform="translate(-8.06 -38.42)"/><path class="cls-4" d="M310.26,77.44a10.57,10.57,0,0,1-5.2,9.1,13.54,13.54,0,0,0-1.93-1c-.25-.11-.5-.21-.76-.3a17.06,17.06,0,0,0-5.9-1,15.49,15.49,0,0,0-1.82.1,14.53,14.53,0,0,0-2.33.39l-.22,0a10.55,10.55,0,1,1,18.16-7.31Z" transform="translate(-8.06 -38.42)"/><path class="cls-1" d="M304.21,80.63a6.62,6.62,0,0,1-1.84,4.59,17.06,17.06,0,0,0-5.9-1,15.49,15.49,0,0,0-1.82.1,14.53,14.53,0,0,0-2.33.39,6.49,6.49,0,0,1-1.4-4.07c0-.15,0-.3,0-.45a6.64,6.64,0,0,1,13.27.45Z" transform="translate(-8.06 -38.42)"/><path class="cls-4" d="M335.87,84A10.53,10.53,0,0,1,331,90.2a17.3,17.3,0,0,0-1.92-1c-.24-.1-.47-.2-.72-.28q-.69-.27-1.41-.48a16.9,16.9,0,0,0-6.37-.63,13,13,0,0,0-2.3.42l-.22.06A10.55,10.55,0,1,1,335.87,84Z" transform="translate(-8.06 -38.42)"/><path class="cls-1" d="M330.1,86a6.68,6.68,0,0,1-1.73,2.92q-.69-.27-1.41-.48a16.9,16.9,0,0,0-6.37-.63,13,13,0,0,0-2.3.42A6.74,6.74,0,1,1,330.1,86Z" transform="translate(-8.06 -38.42)"/><path class="cls-3" d="M324.29,97.54s-1.4,13.62-15,12.17-11.9-14.79-11.9-14.79l1.53.15,0,.72a1.71,1.71,0,0,0,1.54,1.79l20.45,2a1.71,1.71,0,0,0,1.87-1.6l0-.56Z" transform="translate(-8.06 -38.42)"/><path class="cls-4" d="M322.72,97.39l0,.56a1.71,1.71,0,0,1-1.87,1.6l-20.45-2a1.71,1.71,0,0,1-1.54-1.79l0-.72Z" transform="translate(-8.06 -38.42)"/><path class="cls-2" d="M330,182.86H285.59c-8.47,0-14.92-8.06-13.56-16.94l4.94-32.3c1.08-7.06,6.82-12.25,13.56-12.25H325c6.73,0,12.48,5.19,13.56,12.25l4.94,32.3C344.89,174.8,338.44,182.86,330,182.86Z" transform="translate(-8.06 -38.42)"/><rect class="cls-2" x="335.25" y="121.68" width="13.17" height="38.25" rx="6.19" ry="6.19" transform="translate(-32.66 151.37) rotate(-30)"/><path class="cls-2" d="M371.89,148.93l-16.91,1a5.36,5.36,0,0,0-4.29,6.22l.45,2.44a5.36,5.36,0,0,0,6.22,4.29l17.93-7.49Z" transform="translate(-8.06 -38.42)"/><circle class="cls-2" cx="340.54" cy="116.83" r="6.32"/><path class="cls-2" d="M384.41,149.65c-.21-.67-.22-1,1.67-1.78s2.64-1.62,2.42-3.25-5,1.21-5.29.74.64-1.17,2.62-2.39,2.59-3.06,1.2-4.55-5.83,3.93-6.43,3.46,1.73-3.22,2.56-4.3.77-3.1-1.34-2.84-6.27,8.55-7.32,8.39l-.17-.05c0-.37,0-.86,0-1.38-1.26.39-2.8-1.46-3.85-1.87-.11.85.28,2.42-.32,3.24a5.78,5.78,0,0,0-.45.73c-1,1.84-.4,3.43-.13,5.54.3,2.38,3.17,6.24,6.27,6.91s5.31-2.18,7.68-3.12,5.13-1.89,4.6-3.6S384.62,150.31,384.41,149.65Z" transform="translate(-8.06 -38.42)"/><circle class="cls-4" cx="284.17" cy="40.11" r="2.09"/><circle class="cls-4" cx="309.68" cy="43.64" r="2.09"/><path class="cls-2" d="M374.35,141.71c0-.71.75-2.85.69-3.49-.33-3.5-5.19-3.24-4.86-1.91a11.82,11.82,0,0,1,.3,3.88C371.53,140.61,373.09,142.1,374.35,141.71Z" transform="translate(-8.06 -38.42)"/><rect class="cls-5" x="39.39" y="279.29" width="359.27" height="33.26" rx="16.55" ry="16.55"/><rect class="cls-6" x="39.63" y="93.84" width="84.93" height="31.78" rx="13.65" ry="13.65"/><rect class="cls-7" x="131.08" y="136.95" width="84.93" height="31.78" rx="13.65" ry="13.65"/><rect class="cls-8" x="222.53" y="180.07" width="84.93" height="31.78" rx="13.65" ry="13.65"/><rect class="cls-5" x="313.98" y="223.19" width="84.93" height="31.78" rx="13.65" ry="13.65"/><path class="cls-9" d="M107.18,121.63l0-1.71a3.28,3.28,0,0,0-3.48-3H71.91A3.28,3.28,0,0,0,68.52,120l0,1.71c.11,7.49,5.45,13.78,12.85,16.13a2.16,2.16,0,0,1,1.59,2h0a2.16,2.16,0,0,1-1.53,2c-7.32,2.57-12.47,9-12.36,16.51l0,2.23A3.68,3.68,0,0,0,73,164H104a3.68,3.68,0,0,0,3.81-3.53l0-2.23c-.11-7.49-5.45-14.24-12.85-16.59a2.16,2.16,0,0,1-1.59-2h0a2.16,2.16,0,0,1,1.53-2C102.17,135.1,107.29,129.12,107.18,121.63Z" transform="translate(-8.06 -38.42)"/><path class="cls-10" d="M91,141.4,91,138a2.75,2.75,0,0,1,2-2.63c5.77-1.87,9.88-5.64,9.79-11.47v-.71A3.41,3.41,0,0,0,99.09,120H76.77a3.41,3.41,0,0,0-3.52,3.27V124c.09,5.83,4.32,9.81,10.14,11.51a2.75,2.75,0,0,1,2,2.57l.05,3.42a2.56,2.56,0,0,1-.2,1l6,9.5S91,141.79,91,141.4Z" transform="translate(-8.06 -38.42)"/><path class="cls-9" d="M201,164.8v-1.71a3.28,3.28,0,0,0-3.43-3.1l-31.8,0a3.28,3.28,0,0,0-3.44,3.09v1.71c0,7.49,5.24,13.86,12.6,16.33a2.16,2.16,0,0,1,1.56,2h0a2.16,2.16,0,0,1-1.56,2c-7.36,2.46-12.61,8.82-12.62,16.31v2.23a3.68,3.68,0,0,0,3.86,3.48l31,0a3.68,3.68,0,0,0,3.86-3.47v-2.23c0-7.49-5.24-13.86-12.6-16.33a2.16,2.16,0,0,1-1.56-2h0a2.16,2.16,0,0,1,1.56-2C195.69,178.65,200.95,172.29,201,164.8Z" transform="translate(-8.06 -38.42)"/><path class="cls-9" d="M385,251.08v-1.71a3.28,3.28,0,0,0-3.43-3.1l-31.8-.06a3.28,3.28,0,0,0-3.44,3.09V251c0,7.49,5.22,13.87,12.58,16.35a2.16,2.16,0,0,1,1.56,2h0a2.16,2.16,0,0,1-1.56,2c-7.36,2.45-12.62,8.81-12.64,16.3v2.23a3.68,3.68,0,0,0,3.85,3.48l31,.06a3.68,3.68,0,0,0,3.86-3.47v-2.23c0-7.49-5.22-13.87-12.58-16.35a2.16,2.16,0,0,1-1.56-2h0a2.16,2.16,0,0,1,1.56-2C379.72,264.92,385,258.56,385,251.08Z" transform="translate(-8.06 -38.42)"/><path class="cls-10" d="M380.33,285.64c0-5.83-4.15-9.88-9.94-11.68a2.75,2.75,0,0,1-2-2.61v-3.42a2.8,2.8,0,0,1,2.2-2.66,18.1,18.1,0,0,0,2.7-.92c-5.66,0-16.37,0-16.37,0,1.23.67,2.25.5,3.72.87a2.8,2.8,0,0,1,2.19,2.67v3.42a2.75,2.75,0,0,1-2,2.6c-5.8,1.77-10,5.81-10,11.64v.71a3.41,3.41,0,0,0,3.56,3.22l22.33,0a3.41,3.41,0,0,0,3.57-3.21Z" transform="translate(-8.06 -38.42)"/><path class="cls-9" d="M118.67,308.67V307a3.28,3.28,0,0,0-3.43-3.1l-31.8-.06A3.28,3.28,0,0,0,80,306.89v1.71c0,7.49,5.22,13.87,12.58,16.35a2.16,2.16,0,0,1,1.56,2h0a2.16,2.16,0,0,1-1.56,2c-7.36,2.45-12.62,8.81-12.64,16.3v2.23A3.68,3.68,0,0,0,83.77,351l31,.06a3.68,3.68,0,0,0,3.86-3.47v-2.23c0-7.49-5.22-13.87-12.58-16.35a2.16,2.16,0,0,1-1.56-2h0a2.16,2.16,0,0,1,1.56-2C113.39,322.52,118.65,316.16,118.67,308.67Z" transform="translate(-8.06 -38.42)"/><path class="cls-10" d="M114,343.24c0-5.83-4.11-10-9.94-11.68a21,21,0,0,0-9.53,0c-5.82,1.7-10,5.81-10,11.64v.71a3.41,3.41,0,0,0,3.56,3.22l22.33,0a3.41,3.41,0,0,0,3.57-3.21Z" transform="translate(-8.06 -38.42)"/><path class="cls-9" d="M292.43,207.92v-1.71a3.28,3.28,0,0,0-3.43-3.1L257.2,203a3.28,3.28,0,0,0-3.44,3.09v1.71c0,7.49,5.22,13.87,12.57,16.35a2.16,2.16,0,0,1,1.56,2h0a2.16,2.16,0,0,1-1.56,2c-7.36,2.45-12.63,8.81-12.64,16.3v2.23a3.68,3.68,0,0,0,3.85,3.48l31,.06a3.68,3.68,0,0,0,3.86-3.47v-2.23c0-7.49-5.22-13.87-12.57-16.35a2.16,2.16,0,0,1-1.56-2h0a2.16,2.16,0,0,1,1.56-2C287.15,221.77,292.41,215.41,292.43,207.92Z" transform="translate(-8.06 -38.42)"/><path class="cls-10" d="M287.78,243c-.09-5.83-4.32-9.81-10.14-11.51a2.75,2.75,0,0,1-2-2.57l-.05-3.42a2.8,2.8,0,0,1,2.15-2.69c.95-.25,6.92-2.75,8.94-5.4H259.47c2,2.19,6.83,5.2,8.31,5.55a2.8,2.8,0,0,1,2.23,2.63l.05,3.42a2.75,2.75,0,0,1-2,2.63c-5.77,1.87-9.88,6-9.79,11.81v.71a3.41,3.41,0,0,0,3.62,3.16l22.33-.33a3.41,3.41,0,0,0,3.52-3.27Z" transform="translate(-8.06 -38.42)"/><path class="cls-10" d="M187.1,199.21a4.37,4.37,0,0,1-2.23-3.74c-.07-3.9-.19-11.29-.24-14.31a2.75,2.75,0,0,1,2-2.63c6-2,9.88-5.95,9.78-12.51,0-1.78-.91,4.71-7.83,3.71s-16-5.84-18.11-6.54-3.55,1.49-3.52,3.27c.1,6.53,4,10.43,10.15,12.21,2.47.72,2.08,2.8,2.08,6,0,2.2-.11,7.7-.17,10.9a4.37,4.37,0,0,1-2.12,3.66l-6.1,3.33h22.33Z" transform="translate(-8.06 -38.42)"/><path class="cls-1" d="M23.5,321.51A1.5,1.5,0,0,1,22,320V309a1.5,1.5,0,0,1,3,0v11A1.5,1.5,0,0,1,23.5,321.51Zm0-22A1.5,1.5,0,0,1,22,298V287a1.5,1.5,0,0,1,3,0v11A1.5,1.5,0,0,1,23.5,299.51Zm0-22A1.5,1.5,0,0,1,22,276V265a1.5,1.5,0,0,1,3,0v11A1.5,1.5,0,0,1,23.5,277.51Zm0-22A1.5,1.5,0,0,1,22,254V243a1.5,1.5,0,1,1,3,0v11A1.5,1.5,0,0,1,23.5,255.51Zm0-22A1.5,1.5,0,0,1,22,232V221a1.5,1.5,0,0,1,3,0v11A1.5,1.5,0,0,1,23.5,233.51Zm0-22A1.5,1.5,0,0,1,22,210V199a1.5,1.5,0,0,1,3,0v11A1.5,1.5,0,0,1,23.5,211.51Zm0-22A1.5,1.5,0,0,1,22,188V177a1.5,1.5,0,0,1,3,0v11A1.5,1.5,0,0,1,23.5,189.51Zm0-22A1.5,1.5,0,0,1,22,166V155a1.5,1.5,0,0,1,3,0v11A1.5,1.5,0,0,1,23.5,167.51Zm0-22A1.5,1.5,0,0,1,22,144V133a1.5,1.5,0,0,1,3,0v11A1.5,1.5,0,0,1,23.5,145.51Z" transform="translate(-8.06 -38.42)"/><path class="cls-1" d="M23.49,333.79,8.25,306.46A1.5,1.5,0,1,1,10.87,305L23.5,327.65,36.22,305a1.5,1.5,0,1,1,2.62,1.47Z" transform="translate(-8.06 -38.42)"/><path class="cls-1" d="M247.5,164.68c-7,2.94-23-46.11-23-46.11l6.12-2.83S253.91,162,247.5,164.68Z" transform="translate(-8.06 -38.42)"/><polygon class="cls-10" points="222.56 77.33 214.83 61.4 209.72 63.65 216.43 80.16 222.56 77.33"/><path class="cls-7" d="M223.16,100.35s1.92-4.27-1.41-7.45-6.64-4.12-6.34-7.9c-5.2,4.66-1.47,16.07,2.37,17.06S223.16,100.35,223.16,100.35Z" transform="translate(-8.06 -38.42)"/><path class="cls-1" d="M396.76,129.61c-10.45-2.48-33.06-1.08-41.84,1.92-5.44,1.86-6.8,4.73-5.49,6.86a5.37,5.37,0,0,0,2.67,2c5.06,2,4.35,3.46,2.38,4.33a10,10,0,0,1-1.49.49,31,31,0,0,1-8.14.83c-7.28-.17-16.93,3-15.52,11.65h0c0,.19.07.38.11.57,2,9,25.33,14,53,9.57C408,163.79,415.61,154,416.52,146a17.17,17.17,0,0,0,.09-2C416.43,135.63,407.22,132.09,396.76,129.61ZM360.28,158.7a16.39,16.39,0,0,1-7.81,1.73,16.91,16.91,0,0,1-7.28-1.46,6.59,6.59,0,0,1-2-1.38c1.2-2,5.13-3.52,9.8-3.52,4.14,0,7.69,1.17,9.29,2.84A5.21,5.21,0,0,1,360.28,158.7Z" transform="translate(-8.06 -38.42)"/><path d="M416.61,147.14c.17,8.33-6.46,19.49-34.15,23.92s-51.07-.53-53-9.57a9.41,9.41,0,0,1-.11-3.75c0,.19.07.38.11.57,2,9,25.33,14,53,9.57C408,163.79,415.61,154,416.52,146A11.08,11.08,0,0,1,416.61,147.14Z" transform="translate(-8.06 -38.42)"/><path d="M362.66,155.61a2.51,2.51,0,0,1-.38,1.3c-1.59-1.68-5.15-2.84-9.28-2.84-4.67,0-8.61,1.49-9.81,3.52a2.87,2.87,0,0,1-.9-2c0-2.67,4.56-4.83,10.19-4.83S362.66,152.94,362.66,155.61Z" transform="translate(-8.06 -38.42)"/><path class="cls-6" d="M355.73,88c-2.23-4.53-6.53-8.89-10-12.06,1.55-7-.19-15.07-3.18-21.05a26.69,26.69,0,0,0-19.11-14.34c-10.24-2.12-19.23-2.26-30.08,6a26.47,26.47,0,0,0-10,16c-.56,2.8.53,12,.53,12s4-15.59,30.61-11c21.6,3.75,25.2,10.36,27.78,18.63,7.09-.19,11.43,6.69,12.18,11.4.49,3.07-2,5.61-6.34,6.61,3.5,0,6.59,0,8.5-1.82S358,92.54,355.73,88Z" transform="translate(-8.06 -38.42)"/><polygon class="cls-11" points="270.54 36 274.43 20.78 276.22 21.05 275.82 36.15 270.54 36"/><circle class="cls-12" cx="275.19" cy="18.95" r="2.83"/><circle class="cls-12" cx="285.18" cy="8.2" r="3.26"/><circle class="cls-12" cx="329.19" cy="12.61" r="3.26"/><circle class="cls-12" cx="308.56" cy="4.93" r="4.93"/><circle class="cls-12" cx="291.07" cy="16.12" r="1.87"/><circle class="cls-12" cx="318.87" cy="20.78" r="1.87"/><polygon class="cls-11" points="334.42 40.93 336.97 27.52 338.53 27.52 338.86 44.24 334.21 43.83 334.42 40.93"/><circle class="cls-12" cx="337.9" cy="25.2" r="2.83"/><polygon class="cls-12" points="276.58 16.77 283.21 10.12 283.5 10.41 276.71 16.9 276.58 16.77"/><polygon class="cls-12" points="290.45 15.54 286.64 10.69 286.96 10.44 290.59 15.43 290.45 15.54"/><polygon class="cls-12" points="287.4 8.21 304.41 5.63 304.47 6.04 287.42 8.39 287.4 8.21"/><polygon class="cls-12" points="326.97 12.03 312.49 7.07 312.62 6.68 327.03 11.86 326.97 12.03"/><polygon class="cls-12" points="318.01 19.71 310.93 8.64 311.28 8.42 318.16 19.61 318.01 19.71"/><polygon class="cls-12" points="319.72 20.24 326.79 13.94 327.06 14.25 319.83 20.37 319.72 20.24"/><polygon class="cls-12" points="336.46 23.58 330.83 15.1 331.17 14.88 336.61 23.48 336.46 23.58"/><polygon class="cls-12" points="292.08 16.05 304.47 7.18 304.7 7.52 292.18 16.2 292.08 16.05"/><path class="cls-1" d="M305.07,59.46l18.56,2.66s2.6-6.07-8-7.84S305.07,59.46,305.07,59.46Z" transform="translate(-8.06 -38.42)"/><path class="cls-2" d="M240.94,131.76c-1.31-2.2-2.59-6.58-3.79-7.71s-4-4.05-5.2-3.21-2.11,1.35.38,4.17c1.27,1.45,1.15,4.41,1.64,7.67.7,4.69,5.29,6.67,8.66,9.21l4-3A78.2,78.2,0,0,1,240.94,131.76Z" transform="translate(-8.06 -38.42)"/><path class="cls-2" d="M227.35,126.88s3.1-1.77,4-.19-2.15,4.52-2.15,4.52,3.23-.44,3.73,1.73-2.41,2.6-2.41,2.6,2.54-.32,3,1.53-2.35,1.69-1.75,2.25c.78.73,2.4-.28,2.79,1.25s-1.46,1.62-1.46,1.62-3.71-2.92-4.54-6.25A70.5,70.5,0,0,1,227.35,126.88Z" transform="translate(-8.06 -38.42)"/><ellipse cx="371.92" cy="95.61" rx="9.04" ry="3.67"/><ellipse cx="390.45" cy="101.27" rx="9.04" ry="3.67"/><ellipse cx="385.78" cy="116.03" rx="9.04" ry="3.67"/><ellipse cx="361.13" cy="124.54" rx="9.04" ry="3.67"/><path class="cls-8" d="M376.65,130.41c-1.39,2.86-3.75,0-3.75,3s1.71,4.19,4.55,2.77,9.48.35,9.74-1.95,1.06-5-2.13-4.53S378.16,127.31,376.65,130.41Z" transform="translate(-8.06 -38.42)"/><path class="cls-7" d="M369.57,156.45c-3.32.7-2.92,1.86-5.67,2.75s-2.39,9,6.56,6.82S380.11,154.24,369.57,156.45Z" transform="translate(-8.06 -38.42)"/><path class="cls-6" d="M388,150.42c-2.78,1.24-4.14,7.35,3.92,7.18s11.7-1.65,8.45-5-3.36.78-6.25-1.82C392,148.93,390.75,149.18,388,150.42Z" transform="translate(-8.06 -38.42)"/><path class="cls-5" d="M392.6,138.2c.89,4.52,6.49,5.76,9.84,4.16s2.74-9-3.91-7.09S392.6,138.2,392.6,138.2Z" transform="translate(-8.06 -38.42)"/><path class="cls-4" d="M140.64,336.5l-1.86,5.62H136.4l6.07-17.87h2.78l6.1,17.87h-2.47L147,336.5Zm5.86-1.8-1.75-5.14c-.4-1.17-.66-2.23-.93-3.26h-.05c-.26,1.06-.56,2.15-.9,3.24l-1.75,5.17Z" transform="translate(-8.06 -38.42)"/><path class="cls-4" d="M153.43,339.73a6.11,6.11,0,0,0,3.08.93c1.7,0,2.49-.85,2.49-1.91s-.66-1.72-2.39-2.36c-2.31-.82-3.39-2.09-3.39-3.63,0-2.07,1.67-3.77,4.43-3.77a6.41,6.41,0,0,1,3.16.79l-.58,1.7a5,5,0,0,0-2.63-.74c-1.38,0-2.15.8-2.15,1.75s.77,1.54,2.44,2.17c2.23.85,3.37,2,3.37,3.87,0,2.25-1.75,3.85-4.8,3.85a7.31,7.31,0,0,1-3.61-.88Z" transform="translate(-8.06 -38.42)"/><path class="cls-4" d="M163.93,339.73a6.11,6.11,0,0,0,3.08.93c1.7,0,2.49-.85,2.49-1.91s-.66-1.72-2.39-2.36c-2.31-.82-3.39-2.09-3.39-3.63,0-2.07,1.67-3.77,4.43-3.77a6.41,6.41,0,0,1,3.16.79l-.58,1.7a5,5,0,0,0-2.63-.74c-1.38,0-2.15.8-2.15,1.75s.77,1.54,2.44,2.17c2.23.85,3.37,2,3.37,3.87,0,2.25-1.75,3.85-4.8,3.85a7.31,7.31,0,0,1-3.61-.88Z" transform="translate(-8.06 -38.42)"/><path class="cls-4" d="M177.34,325.68a1.45,1.45,0,0,1-2.89,0,1.42,1.42,0,0,1,1.46-1.46A1.39,1.39,0,0,1,177.34,325.68Zm-2.6,16.44V329.28h2.33v12.84Z" transform="translate(-8.06 -38.42)"/><path class="cls-4" d="M192,329.28c-.05.93-.11,2-.11,3.53v7.45c0,2.94-.58,4.75-1.83,5.86a6.81,6.81,0,0,1-4.67,1.54,8.29,8.29,0,0,1-4.27-1.06l.58-1.78a7.24,7.24,0,0,0,3.77,1c2.39,0,4.14-1.25,4.14-4.48v-1.43h-.05a4.58,4.58,0,0,1-4.08,2.15c-3.18,0-5.46-2.71-5.46-6.26,0-4.35,2.84-6.82,5.78-6.82a4.27,4.27,0,0,1,4,2.23h.05l.11-1.94Zm-2.41,5.07a3.41,3.41,0,0,0-3.39-3.53c-2.23,0-3.82,1.88-3.82,4.85,0,2.52,1.27,4.61,3.79,4.61a3.41,3.41,0,0,0,3.24-2.39,4.05,4.05,0,0,0,.19-1.25Z" transform="translate(-8.06 -38.42)"/><path class="cls-4" d="M195.61,332.76c0-1.33,0-2.41-.11-3.47h2.07l.13,2.12h.05A4.72,4.72,0,0,1,202,329c1.78,0,4.54,1.06,4.54,5.46v7.66h-2.33v-7.4c0-2.07-.77-3.79-3-3.79a3.42,3.42,0,0,0-3.29,3.47v7.72h-2.33Z" transform="translate(-8.06 -38.42)"/><path class="cls-4" d="M210.33,332.76c0-1.33,0-2.41-.11-3.47h2l.11,2.07h.08a4.42,4.42,0,0,1,4-2.36,3.79,3.79,0,0,1,3.63,2.57h.05a5.3,5.3,0,0,1,1.43-1.67,4.38,4.38,0,0,1,2.84-.9c1.7,0,4.22,1.11,4.22,5.57v7.56h-2.28v-7.27c0-2.47-.9-4-2.78-4a3,3,0,0,0-2.76,2.12,3.87,3.87,0,0,0-.19,1.17v7.93h-2.28v-7.69c0-2-.9-3.53-2.68-3.53a3.48,3.48,0,0,0-3.08,3.47v7.74h-2.28Z" transform="translate(-8.06 -38.42)"/><path class="cls-4" d="M233.74,336.13c.05,3.16,2.07,4.46,4.4,4.46a8.44,8.44,0,0,0,3.55-.66l.4,1.67a10.4,10.4,0,0,1-4.27.8c-4,0-6.31-2.6-6.31-6.47s2.28-6.92,6-6.92c4.19,0,5.3,3.69,5.3,6a8.83,8.83,0,0,1-.08,1.09Zm6.84-1.67c0-1.49-.61-3.79-3.24-3.79-2.36,0-3.39,2.17-3.58,3.79Z" transform="translate(-8.06 -38.42)"/><path class="cls-4" d="M245.73,332.76c0-1.33,0-2.41-.11-3.47h2.07l.13,2.12h.05a4.72,4.72,0,0,1,4.24-2.41c1.78,0,4.54,1.06,4.54,5.46v7.66h-2.33v-7.4c0-2.07-.77-3.79-3-3.79a3.42,3.42,0,0,0-3.29,3.47v7.72h-2.33Z" transform="translate(-8.06 -38.42)"/><path class="cls-4" d="M263.15,325.6v3.69h3.34v1.78h-3.34V338c0,1.59.45,2.49,1.75,2.49a5.16,5.16,0,0,0,1.35-.16l.11,1.75a5.72,5.72,0,0,1-2.07.32,3.23,3.23,0,0,1-2.52-1,4.76,4.76,0,0,1-.9-3.34v-7h-2v-1.78h2v-3.08Z" transform="translate(-8.06 -38.42)"/><path class="cls-4" d="M274.82,324.48a33.08,33.08,0,0,1,4.91-.37c3.31,0,5.67.77,7.24,2.23a8.23,8.23,0,0,1,2.52,6.42,9.45,9.45,0,0,1-2.57,6.95c-1.67,1.67-4.43,2.57-7.9,2.57a37.43,37.43,0,0,1-4.19-.21Zm2.31,15.81a14.53,14.53,0,0,0,2.33.13c4.93,0,7.61-2.76,7.61-7.58,0-4.22-2.36-6.89-7.24-6.89a13.1,13.1,0,0,0-2.71.24Z" transform="translate(-8.06 -38.42)"/><path class="cls-4" d="M303.22,338.62c0,1.33,0,2.49.11,3.5h-2.07l-.13-2.09h-.05a4.83,4.83,0,0,1-4.24,2.39c-2,0-4.43-1.11-4.43-5.62v-7.51h2.33v7.11c0,2.44.74,4.08,2.86,4.08a3.37,3.37,0,0,0,3.08-2.12,3.43,3.43,0,0,0,.21-1.19v-7.88h2.33Z" transform="translate(-8.06 -38.42)"/><path class="cls-4" d="M308.39,336.13c.05,3.16,2.07,4.46,4.4,4.46a8.44,8.44,0,0,0,3.55-.66l.4,1.67a10.4,10.4,0,0,1-4.27.8c-4,0-6.31-2.6-6.31-6.47s2.28-6.92,6-6.92c4.19,0,5.3,3.69,5.3,6a8.83,8.83,0,0,1-.08,1.09Zm6.84-1.67c0-1.49-.61-3.79-3.24-3.79-2.36,0-3.39,2.17-3.58,3.79Z" transform="translate(-8.06 -38.42)"/></g></svg>