<svg width="287" height="116" viewBox="0 0 287 116" fill="none" xmlns="http://www.w3.org/2000/svg">
<path d="M41.3153 99.7076V98.4512L38.8482 98.2502L36.3811 98.4512V99.7076C36.3811 101.718 37.1486 103.376 38.1629 103.829C38.2451 103.879 38.3 104.03 38.3 104.18V104.783C38.3 104.934 38.2451 105.085 38.1629 105.085C37.1486 105.537 36.3811 107.196 36.3811 109.206V110.563L38.8482 111.065L41.3153 110.563V109.206C41.3153 107.196 40.5478 105.537 39.5335 105.085C39.4513 105.035 39.3965 104.934 39.3965 104.783V104.18C39.3965 104.03 39.4513 103.879 39.5335 103.879C40.5478 103.376 41.3153 101.718 41.3153 99.7076Z" fill="#83CBFF"/>
<path d="M36.3811 98.5015H41.3153C41.4797 98.5015 41.5894 98.3004 41.5894 97.9989C41.5894 97.6974 41.4797 97.4963 41.3153 97.4963H36.3811C36.2166 97.4963 36.1069 97.6974 36.1069 97.9989C36.1069 98.3004 36.2166 98.5015 36.3811 98.5015ZM36.3811 111.568H41.3153C41.4797 111.568 41.5894 111.367 41.5894 111.065C41.5894 110.764 41.4797 110.563 41.3153 110.563H36.3811C36.2166 110.563 36.1069 110.764 36.1069 111.065C36.1069 111.367 36.2166 111.568 36.3811 111.568Z" fill="#9B9B9B"/>
<path d="M39.1221 106.241V104.08C39.1221 103.728 39.2592 103.477 39.4237 103.376C39.8897 103.175 40.3009 102.673 40.6024 102.019C40.7943 101.617 40.6298 101.014 40.3557 101.014C39.5607 101.014 38.1353 101.014 37.3403 101.014C37.0662 101.014 36.9017 101.617 37.0936 102.019C37.3952 102.673 37.8063 103.125 38.2724 103.376C38.4642 103.477 38.5739 103.728 38.5739 104.08V106.04C38.5739 106.392 38.4917 106.542 38.4094 106.593C37.3952 106.944 36.655 108.352 36.655 110.01V110.563H41.041V110.01C41.041 108.352 40.3009 106.944 39.2866 106.593C39.2044 106.593 39.1221 106.442 39.1221 106.241Z" fill="#FFB02E"/>
<path d="M40.3558 99.406C40.3558 99.1548 40.4655 98.9537 40.6026 98.9537C40.767 99.004 40.8767 99.205 40.8493 99.406C40.8219 100.21 40.7122 100.914 40.4929 101.517C40.2736 102.22 39.9447 102.723 39.5609 102.974C39.4238 103.075 39.2868 102.974 39.2319 102.723C39.1771 102.472 39.2319 102.22 39.369 102.12C40.0269 101.668 40.301 100.361 40.3558 99.406ZM40.3558 109.508C40.3558 109.759 40.4655 109.96 40.6026 109.96C40.767 109.96 40.8767 109.709 40.8493 109.508C40.8219 108.703 40.7122 108 40.4929 107.397C40.2736 106.693 39.9447 106.191 39.5609 105.939C39.4238 105.839 39.2868 105.939 39.2319 106.191C39.1771 106.442 39.2319 106.693 39.369 106.794C40.0269 107.246 40.301 108.553 40.3558 109.508Z" fill="white"/>
<rect x="33" width="54.945" height="18.9622" rx="2" fill="#00ADFF"/>
<path d="M38.0364 14.3078C37.3564 14.3078 36.7042 13.7993 36.2233 12.8941C35.7425 11.9889 35.4723 10.7612 35.4723 9.48106C35.4723 8.20093 35.7425 6.97323 36.2233 6.06804C36.7042 5.16285 37.3564 4.65432 38.0364 4.65432C38.7165 4.65432 39.3687 5.16285 39.8495 6.06804C40.3304 6.97323 40.6005 8.20093 40.6005 9.48106C40.6005 10.7612 40.3304 11.9889 39.8495 12.8941C39.3687 13.7993 38.7165 14.3078 38.0364 14.3078M38.0364 3.44763C37.6155 3.44763 37.1987 3.60369 36.8099 3.9069C36.421 4.21011 36.0677 4.65453 35.7701 5.21478C35.169 6.34627 34.8313 7.8809 34.8313 9.48106C34.8313 11.0812 35.169 12.6159 35.7701 13.7473C36.0677 14.3076 36.421 14.752 36.8099 15.0552C37.1987 15.3584 37.6155 15.5145 38.0364 15.5145C38.8865 15.5145 39.7017 14.8788 40.3028 13.7473C40.9039 12.6159 41.2416 11.0812 41.2416 9.48106C41.2416 8.68874 41.1587 7.90418 40.9976 7.17217C40.8365 6.44016 40.6004 5.77504 40.3028 5.21478C40.0052 4.65453 39.6518 4.21011 39.263 3.9069C38.8741 3.60369 38.4573 3.44763 38.0364 3.44763V3.44763Z" fill="white"/>
<rect x="43.073" y="6.89539" width="43.0403" height="5.17151" rx="2.58576" fill="white" fill-opacity="0.6"/>
<rect x="98.0183" y="24.1337" width="54.945" height="18.9622" rx="2" fill="#9E00FF"/>
<path d="M103.055 38.4416C102.375 38.4416 101.723 37.9331 101.242 37.0279C100.761 36.1227 100.491 34.895 100.491 33.6148C100.491 32.3347 100.761 31.107 101.242 30.2018C101.723 29.2966 102.375 28.7881 103.055 28.7881C103.735 28.7881 104.387 29.2966 104.868 30.2018C105.349 31.107 105.619 32.3347 105.619 33.6148C105.619 34.895 105.349 36.1227 104.868 37.0279C104.387 37.9331 103.735 38.4416 103.055 38.4416M103.055 27.5814C102.634 27.5814 102.217 27.7375 101.828 28.0407C101.439 28.3439 101.086 28.7883 100.788 29.3486C100.187 30.4801 99.8496 32.0147 99.8496 33.6148C99.8496 35.215 100.187 36.7496 100.788 37.8811C101.086 38.4414 101.439 38.8858 101.828 39.189C102.217 39.4922 102.634 39.6483 103.055 39.6483C103.905 39.6483 104.72 39.0126 105.321 37.8811C105.922 36.7496 106.26 35.215 106.26 33.6148C106.26 32.8225 106.177 32.038 106.016 31.306C105.855 30.5739 105.619 29.9088 105.321 29.3486C105.023 28.7883 104.67 28.3439 104.281 28.0407C103.892 27.7375 103.476 27.5814 103.055 27.5814V27.5814Z" fill="white"/>
<rect x="108.092" y="31.0291" width="43.0403" height="5.17151" rx="2.58576" fill="white" fill-opacity="0.6"/>
<rect x="163.037" y="46.5436" width="54.945" height="18.9622" rx="2" fill="#FA00FF"/>
<path d="M168.073 60.8514C167.393 60.8514 166.741 60.3429 166.26 59.4377C165.779 58.5325 165.509 57.3048 165.509 56.0246C165.509 54.7445 165.779 53.5168 166.26 52.6116C166.741 51.7064 167.393 51.1979 168.073 51.1979C168.753 51.1979 169.406 51.7064 169.886 52.6116C170.367 53.5168 170.637 54.7445 170.637 56.0246C170.637 57.3048 170.367 58.5325 169.886 59.4377C169.406 60.3429 168.753 60.8514 168.073 60.8514M168.073 49.9912C167.652 49.9912 167.236 50.1473 166.847 50.4505C166.458 50.7537 166.105 51.1981 165.807 51.7584C165.206 52.8898 164.868 54.4245 164.868 56.0246C164.868 57.6248 165.206 59.1594 165.807 60.2909C166.105 60.8512 166.458 61.2956 166.847 61.5988C167.236 61.902 167.652 62.0581 168.073 62.0581C168.923 62.0581 169.739 61.4224 170.34 60.2909C170.941 59.1594 171.278 57.6248 171.278 56.0246C171.278 55.2323 171.196 54.4478 171.034 53.7157C170.873 52.9837 170.637 52.3186 170.34 51.7584C170.042 51.1981 169.689 50.7537 169.3 50.4505C168.911 50.1473 168.494 49.9912 168.073 49.9912V49.9912Z" fill="white"/>
<rect x="173.11" y="53.439" width="43.0403" height="5.17151" rx="2.58576" fill="white" fill-opacity="0.6"/>
<rect x="228.055" y="70.6772" width="54.945" height="18.9622" rx="2" fill="#F34040"/>
<path d="M233.091 84.9852C232.411 84.9852 231.759 84.4766 231.278 83.5715C230.797 82.6663 230.527 81.4386 230.527 80.1584C230.527 78.8783 230.797 77.6506 231.278 76.7454C231.759 75.8402 232.411 75.3317 233.091 75.3317C233.771 75.3317 234.424 75.8402 234.904 76.7454C235.385 77.6506 235.655 78.8783 235.655 80.1584C235.655 81.4386 235.385 82.6663 234.904 83.5715C234.424 84.4766 233.771 84.9852 233.091 84.9852M233.091 74.125C232.67 74.125 232.254 74.2811 231.865 74.5843C231.476 74.8875 231.123 75.3319 230.825 75.8922C230.224 77.0236 229.886 78.5583 229.886 80.1584C229.886 81.7586 230.224 83.2932 230.825 84.4247C231.123 84.985 231.476 85.4294 231.865 85.7326C232.254 86.0358 232.67 86.1919 233.091 86.1919C233.941 86.1919 234.757 85.5562 235.358 84.4247C235.959 83.2932 236.296 81.7586 236.296 80.1584C236.296 79.3661 236.214 78.5815 236.053 77.8495C235.891 77.1175 235.655 76.4524 235.358 75.8922C235.06 75.3319 234.707 74.8875 234.318 74.5843C233.929 74.2811 233.512 74.125 233.091 74.125V74.125Z" fill="white"/>
<rect x="238.128" y="77.5726" width="43.0403" height="5.17151" rx="2.58576" fill="white" fill-opacity="0.6"/>
<rect x="33" y="96.5349" width="250" height="18.9622" rx="2" fill="#F34040"/>
<path d="M126.525 103.106L124.592 109H123.034L125.676 101.891H126.667L126.525 103.106ZM128.132 109L126.193 103.106L126.037 101.891H127.038L129.694 109H128.132ZM128.044 106.354V107.501H124.289V106.354H128.044ZM133.182 107.54C133.182 107.439 133.153 107.348 133.094 107.267C133.036 107.185 132.927 107.11 132.767 107.042C132.611 106.97 132.385 106.905 132.088 106.847C131.821 106.788 131.572 106.715 131.341 106.627C131.113 106.536 130.915 106.427 130.746 106.3C130.58 106.173 130.449 106.023 130.355 105.851C130.261 105.675 130.213 105.475 130.213 105.25C130.213 105.029 130.261 104.82 130.355 104.625C130.453 104.43 130.591 104.257 130.77 104.107C130.952 103.954 131.174 103.836 131.434 103.751C131.698 103.663 131.994 103.619 132.323 103.619C132.782 103.619 133.176 103.692 133.504 103.839C133.836 103.985 134.09 104.187 134.266 104.444C134.445 104.698 134.535 104.988 134.535 105.313H133.128C133.128 105.177 133.099 105.055 133.04 104.947C132.985 104.837 132.897 104.75 132.777 104.688C132.66 104.623 132.507 104.591 132.318 104.591C132.162 104.591 132.026 104.618 131.913 104.674C131.799 104.726 131.711 104.798 131.649 104.889C131.59 104.977 131.561 105.074 131.561 105.182C131.561 105.263 131.577 105.336 131.61 105.401C131.646 105.463 131.703 105.52 131.781 105.572C131.859 105.624 131.96 105.673 132.083 105.719C132.21 105.761 132.367 105.8 132.552 105.836C132.933 105.914 133.273 106.017 133.573 106.144C133.872 106.267 134.11 106.437 134.286 106.651C134.461 106.863 134.549 107.141 134.549 107.486C134.549 107.721 134.497 107.936 134.393 108.131C134.289 108.326 134.139 108.497 133.944 108.644C133.748 108.787 133.514 108.899 133.241 108.98C132.97 109.059 132.666 109.098 132.328 109.098C131.836 109.098 131.419 109.01 131.078 108.834C130.739 108.658 130.482 108.435 130.306 108.165C130.134 107.892 130.047 107.612 130.047 107.325H131.38C131.387 107.517 131.436 107.672 131.527 107.789C131.621 107.906 131.74 107.991 131.883 108.043C132.03 108.095 132.188 108.121 132.357 108.121C132.539 108.121 132.691 108.097 132.811 108.048C132.931 107.996 133.023 107.927 133.084 107.843C133.15 107.755 133.182 107.654 133.182 107.54ZM138.379 107.54C138.379 107.439 138.349 107.348 138.291 107.267C138.232 107.185 138.123 107.11 137.964 107.042C137.807 106.97 137.581 106.905 137.285 106.847C137.018 106.788 136.769 106.715 136.538 106.627C136.31 106.536 136.112 106.427 135.942 106.3C135.776 106.173 135.646 106.023 135.552 105.851C135.457 105.675 135.41 105.475 135.41 105.25C135.41 105.029 135.457 104.82 135.552 104.625C135.649 104.43 135.788 104.257 135.967 104.107C136.149 103.954 136.37 103.836 136.631 103.751C136.894 103.663 137.191 103.619 137.519 103.619C137.978 103.619 138.372 103.692 138.701 103.839C139.033 103.985 139.287 104.187 139.463 104.444C139.642 104.698 139.731 104.988 139.731 105.313H138.325C138.325 105.177 138.296 105.055 138.237 104.947C138.182 104.837 138.094 104.75 137.974 104.688C137.856 104.623 137.703 104.591 137.515 104.591C137.358 104.591 137.223 104.618 137.109 104.674C136.995 104.726 136.907 104.798 136.846 104.889C136.787 104.977 136.758 105.074 136.758 105.182C136.758 105.263 136.774 105.336 136.807 105.401C136.842 105.463 136.899 105.52 136.977 105.572C137.056 105.624 137.156 105.673 137.28 105.719C137.407 105.761 137.563 105.8 137.749 105.836C138.13 105.914 138.47 106.017 138.769 106.144C139.069 106.267 139.307 106.437 139.482 106.651C139.658 106.863 139.746 107.141 139.746 107.486C139.746 107.721 139.694 107.936 139.59 108.131C139.486 108.326 139.336 108.497 139.141 108.644C138.945 108.787 138.711 108.899 138.437 108.98C138.167 109.059 137.863 109.098 137.524 109.098C137.033 109.098 136.616 109.01 136.274 108.834C135.936 108.658 135.679 108.435 135.503 108.165C135.33 107.892 135.244 107.612 135.244 107.325H136.577C136.584 107.517 136.632 107.672 136.724 107.789C136.818 107.906 136.937 107.991 137.08 108.043C137.226 108.095 137.384 108.121 137.554 108.121C137.736 108.121 137.887 108.097 138.008 108.048C138.128 107.996 138.219 107.927 138.281 107.843C138.346 107.755 138.379 107.654 138.379 107.54ZM142.203 103.717V109H140.792V103.717H142.203ZM140.704 102.34C140.704 102.135 140.776 101.965 140.919 101.832C141.062 101.699 141.255 101.632 141.495 101.632C141.733 101.632 141.923 101.699 142.067 101.832C142.213 101.965 142.286 102.135 142.286 102.34C142.286 102.545 142.213 102.714 142.067 102.848C141.923 102.981 141.733 103.048 141.495 103.048C141.255 103.048 141.062 102.981 140.919 102.848C140.776 102.714 140.704 102.545 140.704 102.34ZM146.77 103.717H148.045V108.824C148.045 109.306 147.937 109.715 147.722 110.05C147.511 110.388 147.215 110.644 146.834 110.816C146.453 110.992 146.01 111.08 145.506 111.08C145.284 111.08 145.05 111.051 144.802 110.992C144.558 110.934 144.324 110.842 144.099 110.719C143.878 110.595 143.692 110.439 143.543 110.25L144.163 109.42C144.326 109.609 144.514 109.755 144.729 109.859C144.944 109.967 145.182 110.021 145.442 110.021C145.696 110.021 145.911 109.973 146.087 109.879C146.262 109.788 146.398 109.653 146.492 109.474C146.586 109.298 146.634 109.085 146.634 108.834V104.938L146.77 103.717ZM143.216 106.422V106.319C143.216 105.916 143.264 105.549 143.362 105.221C143.463 104.889 143.605 104.604 143.787 104.366C143.972 104.129 144.197 103.945 144.461 103.814C144.724 103.684 145.022 103.619 145.354 103.619C145.706 103.619 146 103.684 146.238 103.814C146.476 103.945 146.671 104.13 146.824 104.371C146.977 104.609 147.096 104.89 147.18 105.216C147.268 105.538 147.337 105.891 147.386 106.275V106.5C147.337 106.868 147.263 107.21 147.166 107.525C147.068 107.841 146.94 108.118 146.78 108.355C146.621 108.59 146.422 108.772 146.184 108.902C145.95 109.033 145.67 109.098 145.344 109.098C145.019 109.098 144.724 109.031 144.461 108.897C144.2 108.764 143.977 108.577 143.792 108.336C143.606 108.095 143.463 107.812 143.362 107.486C143.264 107.161 143.216 106.806 143.216 106.422ZM144.622 106.319V106.422C144.622 106.64 144.643 106.843 144.685 107.032C144.728 107.221 144.793 107.389 144.881 107.535C144.972 107.678 145.084 107.791 145.218 107.872C145.354 107.95 145.515 107.989 145.701 107.989C145.958 107.989 146.168 107.936 146.331 107.828C146.494 107.717 146.616 107.566 146.697 107.374C146.778 107.182 146.826 106.961 146.839 106.71V106.07C146.832 105.865 146.804 105.681 146.756 105.519C146.707 105.353 146.638 105.211 146.551 105.094C146.463 104.977 146.349 104.885 146.209 104.82C146.069 104.755 145.903 104.723 145.711 104.723C145.525 104.723 145.364 104.765 145.227 104.85C145.094 104.931 144.982 105.043 144.89 105.187C144.802 105.33 144.736 105.499 144.69 105.694C144.645 105.886 144.622 106.095 144.622 106.319ZM150.575 104.845V109H149.169V103.717H150.487L150.575 104.845ZM150.37 106.173H149.989C149.989 105.782 150.04 105.431 150.141 105.118C150.242 104.802 150.383 104.534 150.566 104.312C150.748 104.088 150.964 103.917 151.215 103.8C151.469 103.679 151.752 103.619 152.065 103.619C152.312 103.619 152.538 103.655 152.743 103.727C152.948 103.798 153.124 103.912 153.271 104.068C153.42 104.225 153.534 104.431 153.612 104.688C153.694 104.946 153.735 105.26 153.735 105.631V109H152.319V105.626C152.319 105.392 152.286 105.209 152.221 105.079C152.156 104.949 152.06 104.858 151.933 104.806C151.809 104.75 151.656 104.723 151.474 104.723C151.285 104.723 151.121 104.76 150.981 104.835C150.844 104.91 150.73 105.014 150.639 105.147C150.551 105.278 150.484 105.431 150.439 105.606C150.393 105.782 150.37 105.971 150.37 106.173ZM156.27 104.811V109H154.859V103.717H156.182L156.27 104.811ZM156.075 106.173H155.684C155.684 105.805 155.728 105.466 155.816 105.157C155.907 104.845 156.039 104.575 156.212 104.347C156.387 104.116 156.604 103.937 156.861 103.81C157.118 103.683 157.416 103.619 157.755 103.619C157.989 103.619 158.204 103.655 158.399 103.727C158.594 103.795 158.762 103.904 158.902 104.054C159.045 104.2 159.156 104.392 159.234 104.63C159.312 104.864 159.351 105.146 159.351 105.475V109H157.945V105.631C157.945 105.39 157.912 105.204 157.847 105.074C157.782 104.944 157.689 104.853 157.569 104.801C157.452 104.749 157.31 104.723 157.144 104.723C156.962 104.723 156.802 104.76 156.666 104.835C156.532 104.91 156.422 105.014 156.334 105.147C156.246 105.278 156.181 105.431 156.138 105.606C156.096 105.782 156.075 105.971 156.075 106.173ZM159.219 106.012L158.716 106.075C158.716 105.73 158.759 105.41 158.843 105.113C158.931 104.817 159.06 104.557 159.229 104.332C159.402 104.107 159.615 103.933 159.869 103.81C160.123 103.683 160.416 103.619 160.748 103.619C161.002 103.619 161.233 103.657 161.441 103.731C161.649 103.803 161.827 103.919 161.973 104.078C162.123 104.234 162.237 104.439 162.315 104.693C162.396 104.947 162.437 105.258 162.437 105.626V109H161.026V105.626C161.026 105.382 160.993 105.196 160.928 105.069C160.867 104.939 160.775 104.85 160.655 104.801C160.538 104.749 160.398 104.723 160.235 104.723C160.066 104.723 159.918 104.757 159.791 104.825C159.664 104.89 159.558 104.981 159.473 105.099C159.389 105.216 159.325 105.353 159.283 105.509C159.241 105.662 159.219 105.829 159.219 106.012ZM166.018 109.098C165.607 109.098 165.24 109.033 164.914 108.902C164.589 108.769 164.312 108.585 164.084 108.351C163.859 108.116 163.687 107.844 163.566 107.535C163.446 107.223 163.386 106.891 163.386 106.539V106.344C163.386 105.943 163.443 105.577 163.557 105.245C163.671 104.913 163.833 104.625 164.045 104.381C164.26 104.137 164.52 103.95 164.826 103.819C165.132 103.686 165.477 103.619 165.861 103.619C166.236 103.619 166.568 103.681 166.857 103.805C167.147 103.928 167.39 104.104 167.585 104.332C167.784 104.56 167.933 104.833 168.034 105.152C168.135 105.468 168.186 105.82 168.186 106.207V106.793H163.986V105.855H166.804V105.748C166.804 105.553 166.768 105.379 166.696 105.226C166.628 105.069 166.524 104.946 166.384 104.854C166.244 104.763 166.065 104.718 165.847 104.718C165.661 104.718 165.502 104.758 165.368 104.84C165.235 104.921 165.126 105.035 165.041 105.182C164.96 105.328 164.898 105.501 164.856 105.699C164.816 105.895 164.797 106.109 164.797 106.344V106.539C164.797 106.751 164.826 106.946 164.885 107.125C164.947 107.304 165.033 107.459 165.144 107.589C165.258 107.719 165.394 107.82 165.554 107.892C165.717 107.963 165.9 107.999 166.106 107.999C166.359 107.999 166.595 107.95 166.814 107.853C167.035 107.752 167.225 107.6 167.385 107.398L168.068 108.141C167.958 108.3 167.806 108.453 167.614 108.6C167.426 108.746 167.198 108.867 166.931 108.961C166.664 109.052 166.359 109.098 166.018 109.098ZM170.423 104.845V109H169.017V103.717H170.335L170.423 104.845ZM170.218 106.173H169.837C169.837 105.782 169.888 105.431 169.989 105.118C170.09 104.802 170.231 104.534 170.414 104.312C170.596 104.088 170.812 103.917 171.063 103.8C171.317 103.679 171.6 103.619 171.913 103.619C172.16 103.619 172.386 103.655 172.591 103.727C172.796 103.798 172.972 103.912 173.119 104.068C173.268 104.225 173.382 104.431 173.46 104.688C173.542 104.946 173.583 105.26 173.583 105.631V109H172.167V105.626C172.167 105.392 172.134 105.209 172.069 105.079C172.004 104.949 171.908 104.858 171.781 104.806C171.657 104.75 171.504 104.723 171.322 104.723C171.133 104.723 170.969 104.76 170.829 104.835C170.692 104.91 170.578 105.014 170.487 105.147C170.399 105.278 170.332 105.431 170.287 105.606C170.241 105.782 170.218 105.971 170.218 106.173ZM177.3 103.717V104.713H174.224V103.717H177.3ZM174.985 102.413H176.392V107.408C176.392 107.561 176.411 107.678 176.45 107.76C176.492 107.841 176.554 107.898 176.636 107.931C176.717 107.96 176.82 107.975 176.943 107.975C177.031 107.975 177.109 107.971 177.178 107.965C177.249 107.955 177.31 107.945 177.358 107.936L177.363 108.971C177.243 109.01 177.113 109.041 176.973 109.063C176.833 109.086 176.678 109.098 176.509 109.098C176.2 109.098 175.929 109.047 175.698 108.946C175.47 108.842 175.295 108.676 175.171 108.448C175.047 108.22 174.985 107.921 174.985 107.55V102.413ZM182.981 109H181.433L181.443 107.857H182.981C183.365 107.857 183.689 107.771 183.953 107.599C184.217 107.423 184.415 107.167 184.549 106.832C184.685 106.497 184.754 106.091 184.754 105.616V105.27C184.754 104.905 184.715 104.584 184.637 104.308C184.562 104.031 184.449 103.798 184.3 103.609C184.15 103.421 183.966 103.279 183.748 103.185C183.53 103.087 183.279 103.038 182.996 103.038H181.404V101.891H182.996C183.471 101.891 183.906 101.972 184.3 102.135C184.697 102.294 185.04 102.524 185.33 102.823C185.62 103.123 185.843 103.481 185.999 103.897C186.158 104.311 186.238 104.771 186.238 105.279V105.616C186.238 106.121 186.158 106.581 185.999 106.998C185.843 107.415 185.62 107.773 185.33 108.072C185.043 108.368 184.7 108.598 184.3 108.761C183.903 108.92 183.463 109 182.981 109ZM182.264 101.891V109H180.799V101.891H182.264ZM190.4 107.735V103.717H191.806V109H190.483L190.4 107.735ZM190.556 106.651L190.971 106.642C190.971 106.993 190.93 107.32 190.849 107.623C190.768 107.923 190.645 108.183 190.483 108.404C190.32 108.622 190.115 108.793 189.867 108.917C189.62 109.037 189.329 109.098 188.993 109.098C188.736 109.098 188.499 109.062 188.281 108.99C188.066 108.915 187.88 108.8 187.724 108.644C187.571 108.484 187.45 108.281 187.363 108.033C187.278 107.783 187.236 107.481 187.236 107.13V103.717H188.642V107.14C188.642 107.296 188.66 107.428 188.696 107.535C188.735 107.643 188.788 107.73 188.857 107.799C188.925 107.867 189.005 107.916 189.096 107.945C189.19 107.975 189.295 107.989 189.408 107.989C189.698 107.989 189.926 107.931 190.092 107.813C190.261 107.696 190.38 107.537 190.449 107.335C190.52 107.13 190.556 106.902 190.556 106.651ZM195.372 109.098C194.962 109.098 194.594 109.033 194.268 108.902C193.943 108.769 193.666 108.585 193.438 108.351C193.214 108.116 193.041 107.844 192.921 107.535C192.8 107.223 192.74 106.891 192.74 106.539V106.344C192.74 105.943 192.797 105.577 192.911 105.245C193.025 104.913 193.188 104.625 193.399 104.381C193.614 104.137 193.874 103.95 194.18 103.819C194.486 103.686 194.831 103.619 195.216 103.619C195.59 103.619 195.922 103.681 196.212 103.805C196.501 103.928 196.744 104.104 196.939 104.332C197.138 104.56 197.287 104.833 197.388 105.152C197.489 105.468 197.54 105.82 197.54 106.207V106.793H193.341V105.855H196.158V105.748C196.158 105.553 196.122 105.379 196.051 105.226C195.982 105.069 195.878 104.946 195.738 104.854C195.598 104.763 195.419 104.718 195.201 104.718C195.015 104.718 194.856 104.758 194.722 104.84C194.589 104.921 194.48 105.035 194.395 105.182C194.314 105.328 194.252 105.501 194.21 105.699C194.171 105.895 194.151 106.109 194.151 106.344V106.539C194.151 106.751 194.18 106.946 194.239 107.125C194.301 107.304 194.387 107.459 194.498 107.589C194.612 107.719 194.748 107.82 194.908 107.892C195.071 107.963 195.255 107.999 195.46 107.999C195.714 107.999 195.95 107.95 196.168 107.853C196.389 107.752 196.579 107.6 196.739 107.398L197.423 108.141C197.312 108.3 197.161 108.453 196.968 108.6C196.78 108.746 196.552 108.867 196.285 108.961C196.018 109.052 195.714 109.098 195.372 109.098Z" fill="white"/>
<g filter="url(#filter0_d_696_8271)">
<rect x="33" width="54.945" height="18.9622" rx="2" fill="#00ADFF"/>
<rect x="52" y="6" width="34" height="6" rx="3" fill="white" fill-opacity="0.6"/>
</g>
<g filter="url(#filter1_d_696_8271)">
<rect x="98.0183" y="24.1337" width="54.945" height="18.9622" rx="2" fill="#9E00FF"/>
<rect x="114.871" y="30.7018" width="36.5497" height="5.84795" rx="2.92398" fill="white" fill-opacity="0.6"/>
</g>
<g filter="url(#filter2_d_696_8271)">
<rect x="163.037" y="46.5436" width="54.945" height="18.9622" rx="2" fill="#FA00FF"/>
<rect x="181" y="52" width="35" height="6" rx="3" fill="white" fill-opacity="0.6"/>
</g>
<g filter="url(#filter3_d_696_8271)">
<rect x="228.055" y="70.6772" width="54.945" height="18.9622" rx="2" fill="#F34040"/>
<rect x="243" y="77" width="38.0117" height="5.84795" rx="2.92398" fill="white" fill-opacity="0.6"/>
</g>
<path d="M48.1599 3.18584L44.2812 2.75488L40.4026 3.18584V4.6942C40.4844 5.76483 41.1881 7.50373 43.4193 7.861V8.85371C41.1881 9.21098 40.4844 10.9499 40.4026 12.0205V13.5289L44.2812 13.9598L48.1599 13.5289V12.0205C48.078 10.9499 47.3743 9.21098 45.1431 8.85371V7.861C47.3743 7.50373 48.078 5.76483 48.1599 4.6942V3.18584Z" fill="#83CBFF"/>
<path d="M44.7124 11.0294V7.84029C44.7124 7.62481 44.8417 7.45243 45.0572 7.40933C46.4362 7.10766 47.4705 5.98717 47.686 4.565C47.7291 4.30643 47.5136 4.04785 47.2551 4.04785H41.3078C41.0492 4.04785 40.8338 4.30643 40.8769 4.565C41.0923 5.98717 42.1266 7.10766 43.5057 7.40933C43.7212 7.45243 43.8505 7.62481 43.8505 7.84029C43.8505 8.57292 43.8505 10.2968 43.8505 11.0294C43.8505 11.2449 43.7212 11.4173 43.5057 11.4604C42.6869 11.6327 41.9974 12.1068 41.5233 12.7532C41.2647 13.098 41.5233 13.529 41.9112 13.529H46.6517C47.0396 13.529 47.2981 13.098 47.0396 12.7963C46.5655 12.1499 45.8329 11.6758 45.0572 11.5034C44.8417 11.4173 44.7124 11.2449 44.7124 11.0294Z" fill="#FFB02E"/>
<path d="M40.4026 2.32397C40.1646 2.32397 39.9717 2.51692 39.9717 2.75493C39.9717 2.99295 40.1646 3.18589 40.4026 3.18589H48.1599C48.3979 3.18589 48.5909 2.99295 48.5909 2.75493C48.5909 2.51692 48.3979 2.32397 48.1599 2.32397H40.4026Z" fill="#D3D3D3"/>
<path d="M40.4026 13.5289C40.1646 13.5289 39.9717 13.7219 39.9717 13.9599C39.9717 14.1979 40.1646 14.3908 40.4026 14.3908H48.1599C48.3979 14.3908 48.5909 14.1979 48.5909 13.9599C48.5909 13.7219 48.3979 13.5289 48.1599 13.5289H40.4026Z" fill="#D3D3D3"/>
<path d="M46.8701 4.0982C46.9306 4.61253 46.861 5.02346 46.6977 5.3308C46.5382 5.631 46.271 5.86785 45.8623 6.01153C45.6378 6.09047 45.5197 6.33649 45.5987 6.56103C45.6776 6.78557 45.9236 6.9036 46.1482 6.82466C46.7415 6.61608 47.1885 6.244 47.4589 5.73523C47.7254 5.23359 47.8012 4.63551 47.7261 3.99745C47.6983 3.76107 47.4841 3.592 47.2477 3.61982C47.0114 3.64764 46.8423 3.86182 46.8701 4.0982Z" fill="white"/>
<path d="M45.5189 9.68114C45.2979 9.59274 45.0471 9.70023 44.9587 9.92122C44.8703 10.1422 44.9778 10.393 45.1988 10.4814C45.6949 10.6799 46.1111 10.9462 46.4014 11.2945C46.6853 11.6352 46.8672 12.0756 46.8672 12.667C46.8672 12.905 47.0601 13.098 47.2981 13.098C47.5361 13.098 47.7291 12.905 47.7291 12.667C47.7291 11.8793 47.4799 11.2424 47.0636 10.7427C46.6535 10.2507 46.1001 9.91362 45.5189 9.68114Z" fill="white"/>
<path d="M47.7292 13.5289C47.7292 13.5289 45.1988 13.5315 43.7708 13.5315C39.9719 13.5289 40.8334 13.5289 41.4342 12.3503C41.6956 11.8051 42.5575 10.9432 44.3887 11.1331C45.1142 10.9235 46.8672 11.8051 46.8672 12.667L47.7292 13.5289Z" fill="#83CBFF"/>
<path d="M111.025 28.0396L107.147 27.6086L103.268 28.0396V29.548C103.35 30.6186 104.054 32.3575 106.285 32.7148V33.7075C104.054 34.0647 103.35 35.8036 103.268 36.8743V38.3826L107.147 38.8136L111.025 38.3826V36.8743C110.944 35.8036 110.24 34.0647 108.009 33.7075V32.7148C110.24 32.3575 110.944 30.6186 111.025 29.548V28.0396Z" fill="#83CBFF"/>
<path d="M107.578 35.8832V32.6941C107.578 32.4786 107.707 32.3062 107.923 32.2631C109.302 31.9614 110.336 30.8409 110.551 29.4188C110.595 29.1602 110.379 28.9016 110.121 28.9016H104.173C103.915 28.9016 103.699 29.1602 103.742 29.4188C103.958 30.8409 104.992 31.9614 106.371 32.2631C106.587 32.3062 106.716 32.4786 106.716 32.6941C106.716 33.4267 106.716 35.1505 106.716 35.8832C106.716 36.0986 106.587 36.271 106.371 36.3141C105.552 36.4865 104.863 36.9605 104.389 37.607C104.13 37.9518 104.389 38.3827 104.777 38.3827H109.517C109.905 38.3827 110.164 37.9518 109.905 37.6501C109.431 37.0036 108.698 36.5296 107.923 36.3572C107.707 36.271 107.578 36.0986 107.578 35.8832Z" fill="#FFB02E"/>
<path d="M103.268 27.1777C103.03 27.1777 102.837 27.3707 102.837 27.6087C102.837 27.8467 103.03 28.0397 103.268 28.0397H111.025C111.263 28.0397 111.456 27.8467 111.456 27.6087C111.456 27.3707 111.263 27.1777 111.025 27.1777H103.268Z" fill="#D3D3D3"/>
<path d="M103.268 38.3827C103.03 38.3827 102.837 38.5756 102.837 38.8136C102.837 39.0516 103.03 39.2446 103.268 39.2446H111.025C111.263 39.2446 111.456 39.0516 111.456 38.8136C111.456 38.5756 111.263 38.3827 111.025 38.3827H103.268Z" fill="#D3D3D3"/>
<path d="M109.736 28.952C109.796 29.4663 109.727 29.8772 109.563 30.1846C109.404 30.4848 109.136 30.7216 108.728 30.8653C108.503 30.9442 108.385 31.1902 108.464 31.4148C108.543 31.6393 108.789 31.7574 109.014 31.6784C109.607 31.4698 110.054 31.0978 110.324 30.589C110.591 30.0874 110.667 29.4893 110.592 28.8512C110.564 28.6148 110.35 28.4458 110.113 28.4736C109.877 28.5014 109.708 28.7156 109.736 28.952Z" fill="white"/>
<path d="M108.384 34.5349C108.163 34.4465 107.913 34.554 107.824 34.775C107.736 34.996 107.843 35.2468 108.064 35.3352C108.56 35.5336 108.977 35.7999 109.267 36.1483C109.551 36.489 109.733 36.9294 109.733 37.5208C109.733 37.7588 109.926 37.9517 110.164 37.9517C110.402 37.9517 110.595 37.7588 110.595 37.5208C110.595 36.7331 110.345 36.0961 109.929 35.5965C109.519 35.1044 108.966 34.7674 108.384 34.5349Z" fill="white"/>
<path d="M176.815 51.0038V49.9264L172.936 49.754L169.058 49.9264V51.0038C169.058 52.7276 170.264 54.1498 171.859 54.5376C171.988 54.5807 172.074 54.71 172.074 54.8393V55.3565C172.074 55.4857 171.988 55.615 171.859 55.615C170.264 56.0029 169.058 57.4251 169.058 59.1489V60.3125L172.936 60.7435L176.815 60.3125V59.1489C176.815 57.4251 175.608 56.0029 174.014 55.615C173.884 55.5719 173.798 55.4857 173.798 55.3565V54.8393C173.798 54.71 173.884 54.5807 174.014 54.5807C175.608 54.1498 176.815 52.7276 176.815 51.0038Z" fill="#83CBFF"/>
<path d="M169.058 49.9695H176.815C177.074 49.9695 177.246 49.7971 177.246 49.5385C177.246 49.2799 177.074 49.1075 176.815 49.1075H169.058C168.799 49.1075 168.627 49.2799 168.627 49.5385C168.627 49.7971 168.799 49.9695 169.058 49.9695ZM169.058 61.1744H176.815C177.074 61.1744 177.246 61.002 177.246 60.7434C177.246 60.4849 177.074 60.3125 176.815 60.3125H169.058C168.799 60.3125 168.627 60.4849 168.627 60.7434C168.627 61.002 168.799 61.1744 169.058 61.1744Z" fill="#9B9B9B"/>
<path d="M173.367 56.6062V54.7531C173.367 54.4514 173.583 54.236 173.841 54.1498C174.574 53.9774 175.221 53.5464 175.695 52.9862C175.996 52.6414 175.738 52.1243 175.307 52.1243C174.057 52.1243 171.816 52.1243 170.566 52.1243C170.135 52.1243 169.877 52.6414 170.178 52.9862C170.652 53.5464 171.299 53.9343 172.031 54.1498C172.333 54.236 172.505 54.4514 172.505 54.7531V56.4339C172.505 56.7355 172.376 56.8648 172.247 56.9079C170.652 57.2096 169.489 58.4163 169.489 59.8384V60.3125H176.384V59.8384C176.384 58.4163 175.221 57.2096 173.626 56.9079C173.497 56.9079 173.367 56.7786 173.367 56.6062Z" fill="#FFB02E"/>
<path d="M175.307 50.7452C175.307 50.5297 175.479 50.3573 175.695 50.3573C175.953 50.4004 176.126 50.5728 176.083 50.7452C176.039 51.4347 175.867 52.038 175.522 52.5552C175.178 53.1585 174.66 53.5895 174.057 53.805C173.842 53.8912 173.626 53.805 173.54 53.5895C173.454 53.374 173.54 53.1585 173.755 53.0723C174.79 52.6845 175.221 51.564 175.307 50.7452ZM175.307 59.4075C175.307 59.623 175.479 59.7954 175.695 59.7954C175.953 59.7954 176.126 59.5799 176.083 59.4075C176.039 58.718 175.867 58.1146 175.522 57.5975C175.178 56.9941 174.66 56.5632 174.057 56.3477C173.842 56.2615 173.626 56.3477 173.54 56.5632C173.454 56.7786 173.54 56.9941 173.755 57.0803C174.79 57.4682 175.221 58.5887 175.307 59.4075Z" fill="white"/>
<g clip-path="url(#clip0_696_8271)">
<path d="M241.142 75.8575V74.7801L237.263 74.6078L233.385 74.7801V75.8575C233.385 77.5814 234.591 79.0035 236.186 79.3914C236.315 79.4345 236.401 79.5638 236.401 79.6931V80.2102C236.401 80.3395 236.315 80.4688 236.186 80.4688C234.591 80.8567 233.385 82.2788 233.385 84.0027V85.1662L237.263 85.5972L241.142 85.1662V84.0027C241.142 82.2788 239.935 80.8567 238.341 80.4688C238.212 80.4257 238.125 80.3395 238.125 80.2102V79.6931C238.125 79.5638 238.212 79.4345 238.341 79.4345C239.935 79.0035 241.142 77.5814 241.142 75.8575Z" fill="#83CBFF"/>
<path d="M233.385 74.8232H241.142C241.401 74.8232 241.573 74.6508 241.573 74.3923C241.573 74.1337 241.401 73.9613 241.142 73.9613H233.385C233.126 73.9613 232.954 74.1337 232.954 74.3923C232.954 74.6508 233.126 74.8232 233.385 74.8232ZM233.385 86.0282H241.142C241.401 86.0282 241.573 85.8558 241.573 85.5972C241.573 85.3386 241.401 85.1662 241.142 85.1662H233.385C233.126 85.1662 232.954 85.3386 232.954 85.5972C232.954 85.8558 233.126 86.0282 233.385 86.0282Z" fill="#9B9B9B"/>
<path d="M237.695 81.46V79.6069C237.695 79.3052 237.91 79.0897 238.169 79.0035C238.901 78.8312 239.548 78.4002 240.022 77.8399C240.323 77.4952 240.065 76.978 239.634 76.978C238.384 76.978 236.143 76.978 234.893 76.978C234.462 76.978 234.204 77.4952 234.505 77.8399C234.98 78.4002 235.626 78.7881 236.359 79.0035C236.66 79.0897 236.833 79.3052 236.833 79.6069V81.2876C236.833 81.5893 236.703 81.7186 236.574 81.7617C234.98 82.0633 233.816 83.27 233.816 84.6922V85.1663H240.711V84.6922C240.711 83.27 239.548 82.0633 237.953 81.7617C237.824 81.7617 237.695 81.6324 237.695 81.46Z" fill="#FFB02E"/>
<path d="M239.634 75.5989C239.634 75.3834 239.806 75.2111 240.022 75.2111C240.28 75.2542 240.453 75.4265 240.41 75.5989C240.367 76.2885 240.194 76.8918 239.849 77.409C239.505 78.0123 238.988 78.4433 238.384 78.6587C238.169 78.7449 237.953 78.6587 237.867 78.4433C237.781 78.2278 237.867 78.0123 238.082 77.9261C239.117 77.5382 239.548 76.4177 239.634 75.5989ZM239.634 84.2613C239.634 84.4767 239.806 84.6491 240.022 84.6491C240.28 84.6491 240.453 84.4336 240.41 84.2613C240.367 83.5717 240.194 82.9684 239.849 82.4512C239.505 81.8479 238.988 81.4169 238.384 81.2014C238.169 81.1153 237.953 81.2014 237.867 81.4169C237.781 81.6324 237.867 81.8479 238.082 81.9341C239.117 82.3219 239.548 83.4424 239.634 84.2613Z" fill="white"/>
</g>
<path d="M240.831 76.6163C240.831 76.6163 241.618 75.3237 240.174 75.3237C236.331 75.3253 233.856 76.6163 234.464 77.3908C234.728 77.7491 235.691 78.9986 237.543 78.8738C238.406 78.8738 239.146 78.5426 240.009 77.7442L240.831 76.6163Z" fill="#83CBFF"/>
<path d="M116.774 101.758V100.681L112.895 100.508L109.017 100.681V101.758C109.017 103.482 110.223 104.904 111.818 105.292C111.947 105.335 112.033 105.464 112.033 105.594V106.111C112.033 106.24 111.947 106.369 111.818 106.369C110.223 106.757 109.017 108.179 109.017 109.903V111.067L112.895 111.498L116.774 111.067V109.903C116.774 108.179 115.567 106.757 113.973 106.369C113.843 106.326 113.757 106.24 113.757 106.111V105.594C113.757 105.464 113.843 105.335 113.973 105.335C115.567 104.904 116.774 103.482 116.774 101.758Z" fill="#83CBFF"/>
<path d="M109.017 100.724H116.774C117.032 100.724 117.205 100.551 117.205 100.293C117.205 100.034 117.032 99.8619 116.774 99.8619H109.017C108.758 99.8619 108.586 100.034 108.586 100.293C108.586 100.551 108.758 100.724 109.017 100.724ZM109.017 111.929H116.774C117.032 111.929 117.205 111.756 117.205 111.498C117.205 111.239 117.032 111.067 116.774 111.067H109.017C108.758 111.067 108.586 111.239 108.586 111.498C108.586 111.756 108.758 111.929 109.017 111.929Z" fill="#9B9B9B"/>
<path d="M113.326 107.361V105.508C113.326 105.206 113.542 104.99 113.8 104.904C114.533 104.732 115.18 104.301 115.654 103.741C115.955 103.396 115.697 102.879 115.266 102.879C114.016 102.879 111.775 102.879 110.525 102.879C110.094 102.879 109.836 103.396 110.137 103.741C110.611 104.301 111.258 104.689 111.99 104.904C112.292 104.99 112.464 105.206 112.464 105.508V107.188C112.464 107.49 112.335 107.619 112.206 107.662C110.611 107.964 109.448 109.171 109.448 110.593V111.067H116.343V110.593C116.343 109.171 115.18 107.964 113.585 107.662C113.456 107.662 113.326 107.533 113.326 107.361Z" fill="#FFB02E"/>
<path d="M115.266 101.5C115.266 101.284 115.438 101.112 115.653 101.112C115.912 101.155 116.084 101.327 116.041 101.5C115.998 102.189 115.826 102.792 115.481 103.31C115.136 103.913 114.619 104.344 114.016 104.559C113.8 104.646 113.585 104.559 113.499 104.344C113.412 104.128 113.499 103.913 113.714 103.827C114.748 103.439 115.179 102.318 115.266 101.5ZM115.266 110.162C115.266 110.377 115.438 110.55 115.653 110.55C115.912 110.55 116.084 110.334 116.041 110.162C115.998 109.472 115.826 108.869 115.481 108.352C115.136 107.749 114.619 107.318 114.016 107.102C113.8 107.016 113.585 107.102 113.499 107.318C113.412 107.533 113.499 107.749 113.714 107.835C114.748 108.223 115.179 109.343 115.266 110.162Z" fill="white"/>
<path d="M116.463 102.517C116.463 102.517 116.926 100.724 115.481 100.724C111.337 100.724 108.84 102.535 109.448 103.31C109.669 103.609 110.637 104.758 112.033 105.033C112.033 105.951 112.033 107.619 112.895 107.619L113.757 106.757C113.757 106.757 113.548 105.1 113.757 105.033C114.216 104.924 115.021 104.597 115.481 104.171L116.463 102.517Z" fill="#83CBFF"/>
<path d="M8 4.66667C5.05448 4.66667 2.66667 7.05448 2.66667 10C2.66667 12.9455 5.05448 15.3333 8 15.3333C10.9455 15.3333 13.3333 12.9455 13.3333 10C13.3333 7.05448 10.9455 4.66667 8 4.66667ZM7.29289 106.707C7.68341 107.098 8.31658 107.098 8.7071 106.707L15.0711 100.343C15.4616 99.9526 15.4616 99.3195 15.0711 98.9289C14.6805 98.5384 14.0474 98.5384 13.6569 98.9289L8 104.586L2.34314 98.9289C1.95262 98.5384 1.31945 98.5384 0.928928 98.9289C0.538404 99.3195 0.538404 99.9526 0.928928 100.343L7.29289 106.707ZM7 10L7 106L9 106L9 10L7 10Z" fill="#FF8A00"/>
<defs>
<filter id="filter0_d_696_8271" x="29" y="0" width="62.9451" height="26.9622" filterUnits="userSpaceOnUse" color-interpolation-filters="sRGB">
<feFlood flood-opacity="0" result="BackgroundImageFix"/>
<feColorMatrix in="SourceAlpha" type="matrix" values="0 0 0 0 0 0 0 0 0 0 0 0 0 0 0 0 0 0 127 0" result="hardAlpha"/>
<feOffset dy="4"/>
<feGaussianBlur stdDeviation="2"/>
<feComposite in2="hardAlpha" operator="out"/>
<feColorMatrix type="matrix" values="0 0 0 0 0 0 0 0 0 0 0 0 0 0 0 0 0 0 0.25 0"/>
<feBlend mode="normal" in2="BackgroundImageFix" result="effect1_dropShadow_696_8271"/>
<feBlend mode="normal" in="SourceGraphic" in2="effect1_dropShadow_696_8271" result="shape"/>
</filter>
<filter id="filter1_d_696_8271" x="94.0183" y="24.1337" width="62.9451" height="26.9622" filterUnits="userSpaceOnUse" color-interpolation-filters="sRGB">
<feFlood flood-opacity="0" result="BackgroundImageFix"/>
<feColorMatrix in="SourceAlpha" type="matrix" values="0 0 0 0 0 0 0 0 0 0 0 0 0 0 0 0 0 0 127 0" result="hardAlpha"/>
<feOffset dy="4"/>
<feGaussianBlur stdDeviation="2"/>
<feComposite in2="hardAlpha" operator="out"/>
<feColorMatrix type="matrix" values="0 0 0 0 0 0 0 0 0 0 0 0 0 0 0 0 0 0 0.25 0"/>
<feBlend mode="normal" in2="BackgroundImageFix" result="effect1_dropShadow_696_8271"/>
<feBlend mode="normal" in="SourceGraphic" in2="effect1_dropShadow_696_8271" result="shape"/>
</filter>
<filter id="filter2_d_696_8271" x="159.037" y="46.5436" width="62.9448" height="26.9622" filterUnits="userSpaceOnUse" color-interpolation-filters="sRGB">
<feFlood flood-opacity="0" result="BackgroundImageFix"/>
<feColorMatrix in="SourceAlpha" type="matrix" values="0 0 0 0 0 0 0 0 0 0 0 0 0 0 0 0 0 0 127 0" result="hardAlpha"/>
<feOffset dy="4"/>
<feGaussianBlur stdDeviation="2"/>
<feComposite in2="hardAlpha" operator="out"/>
<feColorMatrix type="matrix" values="0 0 0 0 0 0 0 0 0 0 0 0 0 0 0 0 0 0 0.25 0"/>
<feBlend mode="normal" in2="BackgroundImageFix" result="effect1_dropShadow_696_8271"/>
<feBlend mode="normal" in="SourceGraphic" in2="effect1_dropShadow_696_8271" result="shape"/>
</filter>
<filter id="filter3_d_696_8271" x="224.055" y="70.6772" width="62.9448" height="26.9622" filterUnits="userSpaceOnUse" color-interpolation-filters="sRGB">
<feFlood flood-opacity="0" result="BackgroundImageFix"/>
<feColorMatrix in="SourceAlpha" type="matrix" values="0 0 0 0 0 0 0 0 0 0 0 0 0 0 0 0 0 0 127 0" result="hardAlpha"/>
<feOffset dy="4"/>
<feGaussianBlur stdDeviation="2"/>
<feComposite in2="hardAlpha" operator="out"/>
<feColorMatrix type="matrix" values="0 0 0 0 0 0 0 0 0 0 0 0 0 0 0 0 0 0 0.25 0"/>
<feBlend mode="normal" in2="BackgroundImageFix" result="effect1_dropShadow_696_8271"/>
<feBlend mode="normal" in="SourceGraphic" in2="effect1_dropShadow_696_8271" result="shape"/>
</filter>
<clipPath id="clip0_696_8271">
<rect width="13.7907" height="13.7907" fill="white" transform="translate(230.368 73.0994)"/>
</clipPath>
</defs>
</svg>
