<svg id="Слой_2" data-name="Слой 2" xmlns="http://www.w3.org/2000/svg" viewBox="0 0 371.23 109.44"><defs><style>.cls-1{fill:#fe3737;}.cls-2,.cls-4{fill:#ffc61a;}.cls-3{fill:#ff9c1a;}.cls-4,.cls-8{font-size:31.87px;font-family:MyriadPro-Regular, Myriad Pro;}.cls-5{fill:none;stroke:#b5b5b5;stroke-linecap:round;stroke-miterlimit:10;stroke-width:3.42px;}.cls-6{fill:#e2e2e2;}.cls-7{fill:#b5b5b5;}.cls-11,.cls-8{fill:#e0e0e0;}.cls-9{fill:#f6eeca;}.cls-10{fill:#868686;}.cls-12{fill:#ededed;}</style></defs><title>Motivates through points and badges</title><polygon class="cls-1" points="9.99 38.13 0 54.78 11.7 54.07 16.64 63.35 24.61 49.13 9.99 38.13"/><polygon class="cls-1" points="46.91 38.13 56.9 54.78 45.19 54.07 40.25 63.35 32.28 49.13 46.91 38.13"/><path class="cls-2" d="M75.63,182.13c0,3.73-19.37,22.9-21.89,22.9s-21.89-18.76-21.89-22.9V158.4l21.89-10,21.89,10Z" transform="translate(-25.3 -148.44)"/><path class="cls-3" d="M69.38,180.81c0,2.49-13.11,16.76-15.64,16.76s-15.64-13.82-15.64-16.76V162.26l15.64-6.56,15.64,6.56Z" transform="translate(-25.3 -148.44)"/><polygon class="cls-1" points="25.58 21.13 28.92 15.07 31.68 21.21 38.45 22.28 33.29 26.97 34.14 33.69 28.2 30.44 21.95 33.53 23.43 26.84 18.72 22.02 25.58 21.13"/><text class="cls-4" transform="translate(12.21 101.48)">5K</text><path class="cls-5" d="M345.49,150.24h-7.7a2.61,2.61,0,0,0-2.61,2.61v4.81a11.8,11.8,0,0,0,3.49,8.38l6.64,6.59" transform="translate(-25.3 -148.44)"/><path class="cls-5" d="M384.51,150.24h7.7a2.61,2.61,0,0,1,2.61,2.61v4.81a11.8,11.8,0,0,1-3.49,8.38l-6.64,6.59" transform="translate(-25.3 -148.44)"/><path class="cls-6" d="M345.13,148.49v21.34a20.09,20.09,0,0,0,20.09,20.09h0a20.09,20.09,0,0,0,20.09-20.09V148.49Z" transform="translate(-25.3 -148.44)"/><path class="cls-7" d="M356.83,166.65l6.94-9.23a1.82,1.82,0,0,1,1.45-.73h2.38A1.41,1.41,0,0,1,369,158.1v20.66a2,2,0,0,1-2,2H363.2a2,2,0,0,1-2-2V167.91h-3.76A.79.79,0,0,1,356.83,166.65Z" transform="translate(-25.3 -148.44)"/><text class="cls-8" transform="translate(318.76 101.48)">5M</text><path class="cls-2" d="M159.78,149.51h0a3,3,0,0,1,5,.8h0a3,3,0,0,0,4.33,1.41h0a3,3,0,0,1,4.53,2.31h0a3,3,0,0,0,3.68,2.67h0a3,3,0,0,1,3.6,3.6h0a3,3,0,0,0,2.67,3.68h0a3,3,0,0,1,2.31,4.53h0a3,3,0,0,0,1.41,4.33h0a3,3,0,0,1,.8,5h0a3,3,0,0,0,0,4.55h0a3,3,0,0,1-.8,5h0a3,3,0,0,0-1.41,4.33h0a3,3,0,0,1-2.31,4.53h0a3,3,0,0,0-2.67,3.68h0a3,3,0,0,1-3.6,3.6h0a3,3,0,0,0-3.68,2.67h0a3,3,0,0,1-4.53,2.31h0a3,3,0,0,0-4.33,1.41h0a3,3,0,0,1-5,.8h0a3,3,0,0,0-4.55,0h0a3,3,0,0,1-5-.8h0a3,3,0,0,0-4.33-1.41h0a3,3,0,0,1-4.53-2.31h0a3,3,0,0,0-3.68-2.67h0a3,3,0,0,1-3.6-3.6h0a3,3,0,0,0-2.67-3.68h0a3,3,0,0,1-2.31-4.53h0a3,3,0,0,0-1.41-4.33h0a3,3,0,0,1-.8-5h0a3,3,0,0,0,0-4.55h0a3,3,0,0,1,.8-5h0a3,3,0,0,0,1.41-4.33h0a3,3,0,0,1,2.31-4.53h0a3,3,0,0,0,2.67-3.68h0a3,3,0,0,1,3.6-3.6h0a3,3,0,0,0,3.68-2.67h0a3,3,0,0,1,4.53-2.31h0a3,3,0,0,0,4.33-1.41h0a3,3,0,0,1,5-.8h0A3,3,0,0,0,159.78,149.51Z" transform="translate(-25.3 -148.44)"/><circle class="cls-9" cx="132.21" cy="31.68" r="22.15"/><path class="cls-3" d="M162.35,177.26l-3.7-8a1.26,1.26,0,0,0-2.28,0l-3.7,8a1.28,1.28,0,0,1-1.87.53l-2.52-1.69a1.26,1.26,0,0,0-1.93,1.31l3.05,12.26,6.1,1.52a8.3,8.3,0,0,0,4,0l6.1-1.52,3.05-12.26a1.26,1.26,0,0,0-1.93-1.31l-2.52,1.69A1.28,1.28,0,0,1,162.35,177.26Z" transform="translate(-25.3 -148.44)"/><text class="cls-4" transform="translate(107.07 101.48)">50K</text><polygon class="cls-10" points="221.23 38.57 211.42 54.93 222.91 54.23 227.77 63.35 237.45 46.08 221.23 38.57"/><polygon class="cls-10" points="260.54 54.92 257.13 54.72 255.93 54.64 249.05 54.23 244.19 63.35 234.52 46.08 250.73 38.57 260.54 54.92"/><polygon class="cls-7" points="257.13 54.72 255.93 54.64 248.93 42.58 249.79 42.08 257.13 54.72"/><polygon class="cls-7" points="214.84 54.72 216.03 54.64 223.03 42.58 222.18 42.08 214.84 54.72"/><polygon class="cls-2" points="53.8 54.59 52.6 54.52 44.66 40.87 45.52 40.37 53.8 54.59"/><polygon class="cls-2" points="3.6 54.56 4.8 54.49 12.2 41.58 11.34 41.08 3.6 54.56"/><circle class="cls-11" cx="235.6" cy="23.71" r="23.69"/><circle class="cls-12" cx="235.6" cy="23.71" r="16.39"/><polygon class="cls-7" points="232.9 19.82 236.37 13.53 239.24 19.91 246.27 21.02 240.92 25.89 241.8 32.88 235.62 29.5 229.13 32.71 230.67 25.75 225.77 20.75 232.9 19.82"/><text class="cls-8" transform="translate(202.66 101.48)">500K</text><path class="cls-7" d="M326,55.63h27.36a0,0,0,0,1,0,0V61a2.25,2.25,0,0,1-2.25,2.25H328.27A2.25,2.25,0,0,1,326,61V55.63A0,0,0,0,1,326,55.63Z"/><path class="cls-6" d="M368.79,189.42h-7.58s-2.76,9.58-9.89,14.66h27.36C371.45,199,368.79,189.42,368.79,189.42Z" transform="translate(-25.3 -148.44)"/></svg>