<svg xmlns="http://www.w3.org/2000/svg" xmlns:xlink="http://www.w3.org/1999/xlink" viewBox="0 0 318.86 272.23"><defs><style>.cls-1,.cls-10,.cls-11,.cls-12,.cls-13,.cls-15,.cls-18,.cls-20,.cls-24,.cls-25{fill:none;}.cls-2{fill:#4f6ddb;}.cls-3{fill:#ffc61a;}.cls-4,.cls-6,.cls-9{font-size:23.97px;font-family:MyriadPro-Regular, Myriad Pro;}.cls-16,.cls-4,.cls-6,.cls-9{fill:#fff;}.cls-5{fill:#ff9c1a;}.cls-6{letter-spacing:0.01em;}.cls-7{letter-spacing:0em;}.cls-8{fill:#029d41;}.cls-9{letter-spacing:-0.05em;}.cls-10,.cls-11,.cls-12,.cls-13{stroke:#f6eeca;stroke-width:1.95px;}.cls-10,.cls-11,.cls-12,.cls-13,.cls-20{stroke-linecap:round;}.cls-10,.cls-11,.cls-12,.cls-13,.cls-15,.cls-18,.cls-20,.cls-24,.cls-25{stroke-miterlimit:10;}.cls-10{stroke-dasharray:8.76;}.cls-11{stroke-dasharray:11;}.cls-12{stroke-dasharray:10.5;}.cls-13{stroke-dasharray:9.3;}.cls-14{fill:#fe3737;}.cls-15{stroke:#fff;}.cls-17{fill:#eba37a;}.cls-18{stroke:#c7674a;stroke-width:0.48px;}.cls-19{fill:#28282a;}.cls-20{stroke:#303134;stroke-width:0.74px;}.cls-21{fill:#303134;}.cls-22{fill:#f99979;}.cls-23{clip-path:url(#clip-path);}.cls-24{stroke:#0f0f0f;}.cls-25{stroke:#cf2d2d;}.cls-26{fill:#cf2d2d;}</style><clipPath id="clip-path" transform="translate(-54.07 -65.25)"><path class="cls-1" d="M136.66,194.38a18.6,18.6,0,0,1,.37-5.26c.78-2.56.27-10.11-4.48-12.41s-12.29-.52-14.47,8.45-5.95,10.36-5.95,10.36.19-10-7.36-9.6-7,12.68,1.53,15a22,22,0,0,1-3.2,8.79c-4.51-12.58-12.38-10-15.76-18.81-2.58-6.75-.78-22.69,8.82-21.74s10.92-18.63,25.36-8.75c9.91,6.78,20.59,1,23.19,9.69s-5,11-5.66,16.32C138.46,191.09,138.3,192.7,136.66,194.38Z"/></clipPath></defs><title>Allows you to easily modify your schedule</title><g id="Слой_2" data-name="Слой 2"><rect class="cls-2" x="18.12" width="300.66" height="151.33" rx="12.87" ry="12.87"/><rect class="cls-3" x="36.11" y="11" width="61.5" height="29.75" rx="3.96" ry="3.96"/><text class="cls-4" transform="translate(47.7 32.02)">Sun</text><rect class="cls-5" x="115.8" y="11" width="61.5" height="29.75" rx="3.96" ry="3.96"/><text class="cls-6" transform="translate(123.6 32.91)">M<tspan class="cls-7" x="19.42" y="0">on</tspan></text><rect class="cls-8" x="195.48" y="11" width="61.5" height="29.75" rx="3.96" ry="3.96"/><text class="cls-9" transform="translate(208.21 32.91)">T<tspan class="cls-7" x="10.84" y="0">ue</tspan></text><line class="cls-10" x1="105.2" y1="44.67" x2="105.2" y2="144.67"/><line class="cls-11" x1="186.41" y1="44.67" x2="186.41" y2="144.67"/><line class="cls-12" x1="267.62" y1="44.67" x2="267.62" y2="144.67"/><line class="cls-13" x1="305.91" y1="80.67" x2="66.86" y2="80.67"/><line class="cls-10" x1="305.91" y1="126" x2="66.86" y2="126"/><rect class="cls-5" x="115.8" y="56.67" width="61.5" height="12" rx="6" ry="6"/><rect class="cls-5" x="198.46" y="88.25" width="61.5" height="30.5" rx="5.58" ry="5.58"/><rect class="cls-14" x="198.46" y="49.71" width="61.5" height="22" rx="4.7" ry="4.7"/><circle class="cls-15" cx="206.7" cy="60.71" r="5.04"/><rect class="cls-16" x="218.28" y="53.42" width="33.92" height="4.33" rx="2.17" ry="2.17"/><rect class="cls-16" x="129.59" y="60.5" width="33.92" height="4.33" rx="2.17" ry="2.17"/><rect class="cls-16" x="218.28" y="61.42" width="33.92" height="4.33" rx="2.17" ry="2.17"/><rect class="cls-16" x="205.03" y="94.08" width="47.17" height="6.5" rx="3.04" ry="3.04"/><rect class="cls-16" x="205.03" y="106.08" width="47.17" height="6.5" rx="3.04" ry="3.04"/><rect class="cls-5" x="179.56" y="177.41" width="61.5" height="30.5" rx="5.58" ry="5.58"/><rect class="cls-16" x="186.13" y="183.24" width="47.17" height="6.5" rx="3.04" ry="3.04"/><rect class="cls-16" x="186.13" y="195.24" width="47.17" height="6.5" rx="3.04" ry="3.04"/><rect class="cls-14" x="257.36" y="177.41" width="61.5" height="30.5" rx="5.58" ry="5.58"/><rect class="cls-16" x="263.93" y="183.24" width="47.17" height="6.5" rx="3.04" ry="3.04"/><rect class="cls-16" x="263.93" y="195.24" width="47.17" height="6.5" rx="3.04" ry="3.04"/><rect class="cls-8" x="182.24" y="281.68" width="61.5" height="30.5" rx="5.58" ry="5.58" transform="translate(126.35 -132.28) rotate(30.54)"/><rect class="cls-16" x="192.02" y="288.07" width="47.17" height="6.5" rx="3.04" ry="3.04" transform="matrix(0.86, 0.51, -0.51, 0.86, 123.86, -134.39)"/><rect class="cls-16" x="185.93" y="298.4" width="47.17" height="6.5" rx="3.04" ry="3.04" transform="translate(128.26 -129.86) rotate(30.54)"/><rect class="cls-3" x="257.36" y="218.68" width="61.5" height="30.5" rx="5.58" ry="5.58"/><rect class="cls-16" x="263.93" y="224.52" width="47.17" height="6.5" rx="3.04" ry="3.04"/><rect class="cls-16" x="263.93" y="236.52" width="47.17" height="6.5" rx="3.04" ry="3.04"/><path class="cls-17" d="M229.85,179.75c.67-1.19.75-2.1-.36-2.41s-5.26,4-5.26,4l1.79-3.53c.26-.5.21-1.67-1.18-1.3s-2.42,2.64-3.37,4.51-2.93,3.65-4.92,5.31-6.85,3.12-7,2.41,2.28-2.86,3.91-4.51h-5.78l-1.48,1.09a42.32,42.32,0,0,0-8.3,8.22,34.75,34.75,0,0,1-5.4,9.27c-5.58,6.6-22.93,36.72-22.93,36.72s-15.38-4.59-17.66-1.9c-12.3,14.52-15.45,30.26-4.29,27.57,5.8-1.39,20,1.94,29.95-3.28s26.27-57.28,26.45-57.46c.89-.88,6.19-3.15,8.92-3.67s8.71-4.4,9.32-5.36,1.69-4,2.28-5.12,5.26-8,5.72-8.9S230.28,179.91,229.85,179.75Z" transform="translate(-54.07 -65.25)"/><path class="cls-18" d="M217.92,189.56a21.24,21.24,0,0,0,3.63-3.57c.89-1.41,2.68-4.65,2.68-4.65" transform="translate(-54.07 -65.25)"/><path class="cls-18" d="M229.85,179.75s-.62-.57-1.5.17a45.71,45.71,0,0,0-3.66,5" transform="translate(-54.07 -65.25)"/><path class="cls-18" d="M216.39,194.66a7.23,7.23,0,0,0,3.33-2.08c1-1.23,1.43-1.31,1.89-3s1.42-5.29,3.1-4.69-.38,4.76-.38,4.76" transform="translate(-54.07 -65.25)"/><path class="cls-19" d="M136.66,194.38a18.6,18.6,0,0,1,.37-5.26c.78-2.56.27-10.11-4.48-12.41s-12.29-.52-14.47,8.45-5.95,10.36-5.95,10.36.19-10-7.36-9.6-7,12.68,1.53,15a22,22,0,0,1-3.2,8.79c-4.51-12.58-12.38-10-15.76-18.81-2.58-6.75-.78-22.69,8.82-21.74s10.92-18.63,25.36-8.75c9.91,6.78,20.59,1,23.19,9.69s-5,11-5.66,16.32C138.46,191.09,138.3,192.7,136.66,194.38Z" transform="translate(-54.07 -65.25)"/><path class="cls-17" d="M123.85,214.48c-.75,2.12-2.69,4.48.63,9.22-4.49,4.73-11.28,20.46-11.28,20.46L97.66,219c.53-.77,1.06-1.55,1.58-2.37a54.79,54.79,0,0,0,7.07-15.77,9.14,9.14,0,0,1-6.64-7c-.8-3.82.9-7.74,5.11-7.95,7.55-.38,7.36,9.6,7.36,9.6s3.78-1.41,5.95-10.36,9.73-10.76,14.47-8.45,5.26,9.85,4.48,12.41a18.6,18.6,0,0,0-.37,5.26,62.62,62.62,0,0,0,.66,7.29C137.92,205.78,133.31,216.66,123.85,214.48Z" transform="translate(-54.07 -65.25)"/><path class="cls-14" d="M160.45,236.28c-1.84,1.16-9.17,28.55-9.17,28.55l-14.66,41.11c-2.79,30.91-65.54,38.23-75.54,25.73s2-28.88-.23-45.76c-2.69-20.33-13.8-39.69,0-53,5-4.81,34-9.91,36.81-13.86l1.64,2.67a15.73,15.73,0,0,0,25,2.13l.15-.15a1.26,1.26,0,0,0,.26.38C131.19,229.53,149.4,223,160.45,236.28Z" transform="translate(-54.07 -65.25)"/><path class="cls-20" d="M126.89,188.2s-1.68-1.09-5.37.59" transform="translate(-54.07 -65.25)"/><path class="cls-20" d="M134.6,188.62a3.7,3.7,0,0,1,2.71-1.36" transform="translate(-54.07 -65.25)"/><ellipse class="cls-21" cx="70.76" cy="128.46" rx="1.32" ry="2.69"/><ellipse class="cls-21" cx="81.27" cy="128.13" rx="1.08" ry="2.53"/><path class="cls-20" d="M131.81,195.9c2.78,3,2.78,6-.62,5.63" transform="translate(-54.07 -65.25)"/><path class="cls-20" d="M126.15,204.12s2.22,4.4,5.67,2.26" transform="translate(-54.07 -65.25)"/><path class="cls-22" d="M123.85,214.48s-4.42-1.54-5.76-5.08c0,5.08,4.61,8.25,4.61,8.25Z" transform="translate(-54.07 -65.25)"/><path class="cls-17" d="M67.81,285.22c4.32,10.39,9.33,26.55,18.89,31.93,2.88,1.62,12.92,2.61,18.35-1.54,6.68-5.09,4.51-10.25,3.52-12.82s-13-27-13-27S78.79,281.27,67.81,285.22Z" transform="translate(-54.07 -65.25)"/><path class="cls-17" d="M202.39,281.29c-1.43-1-7.15-.33-11.55.26s-4.53,1.11-5.33.2,1.52-2.71,2.6-3c.93-1.58,1.41-2.5,2.2-3.9a10.61,10.61,0,0,0-6.28-.33c-2,.46-8.64,11.71-10.49,13.18-1.27,1-4.8,3-14.51,3.89-16.85.87-69.22,2.87-69.66,3-15.61,4-7.37,21.84-1.25,23.17,13.58,2.95,36.76-1.46,63.41-7.39,17.75-4,28.34-9.87,30.65-10,4.29-.32,16.5-2.39,17.36-3.15s1.68-1.49,1.23-3.22a3.86,3.86,0,0,0,.42-3.27c1.16-1.46,1.73-2.39.63-4.75C203.83,284.16,203.82,282.31,202.39,281.29Z" transform="translate(-54.07 -65.25)"/><g class="cls-23"><path class="cls-24" d="M127.45,178.38c-.62-.12-28.25-5-28.25-18.25" transform="translate(-54.07 -65.25)"/><path class="cls-24" d="M125.33,179.13c-.62-.12-29.38-.85-29.38-14.1" transform="translate(-54.07 -65.25)"/></g><path class="cls-25" d="M94.08,225.26s12.88,15,27.44,6" transform="translate(-54.07 -65.25)"/><polygon class="cls-26" points="95.05 205.65 74.51 228.01 87.22 227.6 95.05 205.65"/><rect class="cls-16" x="115.8" y="88.25" width="61.5" height="30.5" rx="5.58" ry="5.58"/><rect class="cls-2" x="121.31" y="95.25" width="48.99" height="5.96" rx="2.98" ry="2.98"/><rect class="cls-2" x="121.31" y="106.71" width="48.99" height="5.96" rx="2.98" ry="2.98"/><path class="cls-17" d="M214.47,183.17c1.33-1.48,1-3.13.43-3.59s-1.19-.67-2.46.72a41.14,41.14,0,0,1-4.75,3.93h5.78C213.86,183.83,214.21,183.47,214.47,183.17Z" transform="translate(-54.07 -65.25)"/></g></svg>