<svg width="343" height="119" viewBox="0 0 343 119" fill="none" xmlns="http://www.w3.org/2000/svg">
<g filter="url(#filter0_d_696_8060)">
<g filter="url(#filter1_d_696_8060)">
<path d="M229.548 61.2762L246.171 70.0212L242.504 80.2718L225.257 70.3968C224.663 70.5217 224.041 70.5633 223.406 70.506C219.949 70.1942 217.403 67.1247 217.721 63.6499C218.039 60.1752 221.099 57.611 224.556 57.9228C226.761 58.1216 228.591 59.4443 229.548 61.2762V61.2762Z" fill="#FFB6B6"/>
</g>
<path d="M306.961 54.7941C310.966 56.8225 312.791 61.5736 311.161 65.7801C308.608 72.3696 304.198 81.3786 298.237 84.7537L286.063 96.2865L281.576 99.6327C279.117 101.467 275.797 101.616 273.192 100.008L231.233 74.1191L237.678 62.4011L267.856 80.4019L268.04 81.1097C270.692 75.5742 280.734 68.074 285.517 66.3439C286.068 60.6373 290.983 57.8525 297.304 56.0082C299.984 53.6726 303.799 53.1928 306.961 54.7941V54.7941Z" fill="#6C63FF"/>
</g>
<rect x="1.5" y="2.5" width="204.972" height="104" rx="8.5" fill="#2C3539" stroke="#00B84C" stroke-width="3"/>
<line x1="180.843" y1="29.4432" x2="24.8644" y2="28.8862" stroke="white" stroke-dasharray="6 6"/>
<line x1="180.843" y1="55.5026" x2="24.8644" y2="54.9455" stroke="white" stroke-dasharray="6 6"/>
<line x1="180.843" y1="81.5979" x2="24.8644" y2="81.0408" stroke="white" stroke-dasharray="6 6"/>
<line x1="42.5654" y1="10.004" x2="41.9724" y2="99.5585" stroke="white" stroke-dasharray="6 6"/>
<line x1="104.245" y1="10.0074" x2="103.059" y2="99.5617" stroke="white" stroke-dasharray="6 6"/>
<line x1="165.332" y1="10.004" x2="164.739" y2="99.5583" stroke="white" stroke-dasharray="6 6"/>
<path d="M10.6447 11.469H11.9572L14.424 18.0491L16.8849 11.469H18.1974L14.9396 20.0002H13.8966L10.6447 11.469ZM10.047 11.469H11.2951L11.5119 17.1643V20.0002H10.047V11.469ZM17.547 11.469H18.8009V20.0002H17.3302V17.1643L17.547 11.469ZM20.0049 16.9006V16.7659C20.0049 16.3088 20.0713 15.885 20.2041 15.4944C20.3369 15.0999 20.5283 14.7581 20.7783 14.469C21.0322 14.176 21.3408 13.9495 21.7041 13.7893C22.0713 13.6252 22.4854 13.5432 22.9463 13.5432C23.4111 13.5432 23.8252 13.6252 24.1885 13.7893C24.5557 13.9495 24.8662 14.176 25.1201 14.469C25.374 14.7581 25.5674 15.0999 25.7002 15.4944C25.833 15.885 25.8994 16.3088 25.8994 16.7659V16.9006C25.8994 17.3577 25.833 17.7815 25.7002 18.1721C25.5674 18.5627 25.374 18.9045 25.1201 19.1975C24.8662 19.4866 24.5576 19.7131 24.1943 19.8772C23.8311 20.0374 23.4189 20.1174 22.958 20.1174C22.4932 20.1174 22.0771 20.0374 21.71 19.8772C21.3467 19.7131 21.0381 19.4866 20.7842 19.1975C20.5303 18.9045 20.3369 18.5627 20.2041 18.1721C20.0713 17.7815 20.0049 17.3577 20.0049 16.9006ZM21.417 16.7659V16.9006C21.417 17.1858 21.4463 17.4553 21.5049 17.7092C21.5635 17.9631 21.6553 18.1858 21.7803 18.3772C21.9053 18.5686 22.0654 18.719 22.2607 18.8284C22.4561 18.9377 22.6885 18.9924 22.958 18.9924C23.2197 18.9924 23.4463 18.9377 23.6377 18.8284C23.833 18.719 23.9932 18.5686 24.1182 18.3772C24.2432 18.1858 24.335 17.9631 24.3936 17.7092C24.4561 17.4553 24.4873 17.1858 24.4873 16.9006V16.7659C24.4873 16.4846 24.4561 16.219 24.3936 15.969C24.335 15.7151 24.2412 15.4905 24.1123 15.2952C23.9873 15.0999 23.8271 14.9475 23.6318 14.8381C23.4404 14.7249 23.2119 14.6682 22.9463 14.6682C22.6807 14.6682 22.4502 14.7249 22.2549 14.8381C22.0635 14.9475 21.9053 15.0999 21.7803 15.2952C21.6553 15.4905 21.5635 15.7151 21.5049 15.969C21.4463 16.219 21.417 16.4846 21.417 16.7659ZM28.3514 15.0139V20.0002H26.9393V13.6604H28.2694L28.3514 15.0139ZM28.0994 16.5959L27.6424 16.5901C27.6463 16.1409 27.7088 15.7288 27.8299 15.3538C27.9549 14.9788 28.1268 14.6565 28.3455 14.387C28.5682 14.1174 28.8338 13.9104 29.1424 13.7659C29.451 13.6174 29.7948 13.5432 30.1737 13.5432C30.4784 13.5432 30.7537 13.5862 30.9998 13.6721C31.2498 13.7542 31.4627 13.8889 31.6385 14.0764C31.8182 14.2639 31.9549 14.5081 32.0487 14.8088C32.1424 15.1057 32.1893 15.4709 32.1893 15.9045V20.0002H30.7713V15.8987C30.7713 15.594 30.7264 15.3538 30.6366 15.178C30.5506 14.9983 30.4237 14.8713 30.2557 14.7971C30.0916 14.719 29.8866 14.6799 29.6405 14.6799C29.3983 14.6799 29.1815 14.7307 28.9901 14.8323C28.7987 14.9338 28.6366 15.0725 28.5037 15.2483C28.3748 15.4241 28.2752 15.6272 28.2049 15.8577C28.1346 16.0881 28.0994 16.3342 28.0994 16.5959Z" fill="white"/>
<path d="M70.5841 11.469V20.0002H69.1252V11.469H70.5841ZM73.2619 11.469V12.6409H66.4709V11.469H73.2619ZM77.4365 18.5061V13.6604H78.8545V20.0002H77.5186L77.4365 18.5061ZM77.6357 17.1877L78.1104 17.176C78.1104 17.6018 78.0635 17.9944 77.9697 18.3538C77.876 18.7092 77.7314 19.0198 77.5361 19.2854C77.3408 19.5471 77.0908 19.7522 76.7861 19.9006C76.4814 20.0452 76.1162 20.1174 75.6904 20.1174C75.3818 20.1174 75.0986 20.0725 74.8408 19.9827C74.583 19.8928 74.3604 19.7542 74.1729 19.5667C73.9893 19.3792 73.8467 19.135 73.7451 18.8342C73.6436 18.5334 73.5928 18.1741 73.5928 17.7561V13.6604H75.0049V17.7678C75.0049 17.9983 75.0322 18.1917 75.0869 18.3479C75.1416 18.5002 75.2158 18.6233 75.3096 18.717C75.4033 18.8108 75.5127 18.8772 75.6377 18.9163C75.7627 18.9553 75.8955 18.9749 76.0361 18.9749C76.4385 18.9749 76.7549 18.8967 76.9854 18.7405C77.2197 18.5803 77.3857 18.3655 77.4834 18.0959C77.585 17.8264 77.6357 17.5237 77.6357 17.1877ZM82.9647 20.1174C82.4959 20.1174 82.0721 20.0413 81.6932 19.8889C81.3182 19.7327 80.9979 19.5159 80.7323 19.2385C80.4705 18.9612 80.2694 18.635 80.1287 18.26C79.9881 17.885 79.9178 17.4807 79.9178 17.0471V16.8127C79.9178 16.3167 79.9901 15.8674 80.1346 15.4651C80.2791 15.0627 80.4803 14.719 80.7381 14.4338C80.9959 14.1448 81.3006 13.9241 81.6522 13.7717C82.0037 13.6194 82.3846 13.5432 82.7948 13.5432C83.2479 13.5432 83.6444 13.6194 83.9842 13.7717C84.3241 13.9241 84.6053 14.1389 84.828 14.4163C85.0545 14.6897 85.2225 15.0159 85.3319 15.3948C85.4451 15.7737 85.5018 16.1917 85.5018 16.6487V17.2522H80.6034V16.2385H84.1073V16.1272C84.0994 15.8733 84.0487 15.635 83.9549 15.4124C83.8651 15.1897 83.7264 15.01 83.5389 14.8733C83.3514 14.7366 83.1014 14.6682 82.7889 14.6682C82.5545 14.6682 82.3455 14.719 82.1619 14.8206C81.9823 14.9182 81.8319 15.0608 81.7108 15.2483C81.5897 15.4358 81.4959 15.6624 81.4295 15.928C81.367 16.1897 81.3358 16.4846 81.3358 16.8127V17.0471C81.3358 17.3245 81.3729 17.5823 81.4471 17.8206C81.5252 18.0549 81.6385 18.26 81.7869 18.4358C81.9354 18.6116 82.1151 18.7502 82.326 18.8518C82.5369 18.9495 82.7772 18.9983 83.0467 18.9983C83.3866 18.9983 83.6893 18.9299 83.9549 18.7932C84.2205 18.6565 84.451 18.4631 84.6463 18.2131L85.3905 18.9338C85.2537 19.1331 85.076 19.3245 84.8573 19.5081C84.6385 19.6877 84.3709 19.8342 84.0545 19.9475C83.742 20.0608 83.3787 20.1174 82.9647 20.1174Z" fill="white"/>
<path d="M122.391 18.0842L124.09 11.469H124.981L124.881 13.1741L123.065 20.0002H122.139L122.391 18.0842ZM121.119 11.469L122.496 18.0315L122.619 20.0002H121.635L119.66 11.469H121.119ZM126.908 18.0139L128.268 11.469H129.733L127.758 20.0002H126.774L126.908 18.0139ZM125.326 11.469L127.008 18.1018L127.254 20.0002H126.328L124.541 13.1741L124.447 11.469H125.326ZM133.157 20.1174C132.688 20.1174 132.265 20.0413 131.886 19.8889C131.511 19.7327 131.19 19.5159 130.925 19.2385C130.663 18.9612 130.462 18.635 130.321 18.26C130.181 17.885 130.11 17.4807 130.11 17.0471V16.8127C130.11 16.3167 130.183 15.8674 130.327 15.4651C130.472 15.0627 130.673 14.719 130.931 14.4338C131.188 14.1448 131.493 13.9241 131.845 13.7717C132.196 13.6194 132.577 13.5432 132.987 13.5432C133.44 13.5432 133.837 13.6194 134.177 13.7717C134.517 13.9241 134.798 14.1389 135.021 14.4163C135.247 14.6897 135.415 15.0159 135.524 15.3948C135.638 15.7737 135.694 16.1917 135.694 16.6487V17.2522H130.796V16.2385H134.3V16.1272C134.292 15.8733 134.241 15.635 134.147 15.4124C134.058 15.1897 133.919 15.01 133.731 14.8733C133.544 14.7366 133.294 14.6682 132.981 14.6682C132.747 14.6682 132.538 14.719 132.354 14.8206C132.175 14.9182 132.024 15.0608 131.903 15.2483C131.782 15.4358 131.688 15.6624 131.622 15.928C131.56 16.1897 131.528 16.4846 131.528 16.8127V17.0471C131.528 17.3245 131.565 17.5823 131.64 17.8206C131.718 18.0549 131.831 18.26 131.979 18.4358C132.128 18.6116 132.308 18.7502 132.519 18.8518C132.729 18.9495 132.97 18.9983 133.239 18.9983C133.579 18.9983 133.882 18.9299 134.147 18.7932C134.413 18.6565 134.644 18.4631 134.839 18.2131L135.583 18.9338C135.446 19.1331 135.269 19.3245 135.05 19.5081C134.831 19.6877 134.563 19.8342 134.247 19.9475C133.935 20.0608 133.571 20.1174 133.157 20.1174ZM140.531 18.6877V11.0002H141.949V20.0002H140.666L140.531 18.6877ZM136.406 16.9006V16.7776C136.406 16.2971 136.463 15.8596 136.576 15.4651C136.689 15.0667 136.853 14.7249 137.068 14.4397C137.283 14.1506 137.545 13.9299 137.853 13.7776C138.162 13.6213 138.51 13.5432 138.896 13.5432C139.279 13.5432 139.615 13.6174 139.904 13.7659C140.193 13.9143 140.439 14.1272 140.642 14.4045C140.846 14.678 141.008 15.0061 141.129 15.3889C141.25 15.7678 141.336 16.1897 141.387 16.6545V17.0471C141.336 17.5002 141.25 17.9143 141.129 18.2893C141.008 18.6643 140.846 18.9885 140.642 19.262C140.439 19.5354 140.191 19.7463 139.898 19.8948C139.609 20.0432 139.271 20.1174 138.885 20.1174C138.502 20.1174 138.156 20.0374 137.847 19.8772C137.543 19.717 137.283 19.4924 137.068 19.2034C136.853 18.9143 136.689 18.5745 136.576 18.1838C136.463 17.7893 136.406 17.3616 136.406 16.9006ZM137.818 16.7776V16.9006C137.818 17.1897 137.844 17.4592 137.894 17.7092C137.949 17.9592 138.033 18.1799 138.146 18.3713C138.26 18.5588 138.406 18.7073 138.586 18.8167C138.769 18.9221 138.988 18.9749 139.242 18.9749C139.562 18.9749 139.826 18.9045 140.033 18.7639C140.24 18.6233 140.402 18.4338 140.519 18.1956C140.64 17.9534 140.722 17.6838 140.765 17.387V16.3264C140.742 16.0959 140.693 15.8811 140.619 15.6819C140.549 15.4827 140.453 15.3088 140.332 15.1604C140.211 15.0081 140.06 14.8909 139.881 14.8088C139.705 14.7229 139.496 14.6799 139.254 14.6799C138.996 14.6799 138.777 14.7346 138.597 14.844C138.418 14.9534 138.269 15.1038 138.152 15.2952C138.039 15.4866 137.955 15.7092 137.9 15.9631C137.846 16.217 137.818 16.4885 137.818 16.7776Z" fill="white"/>
<path d="M180.721 11.469V20.0002H179.262V11.469H180.721ZM183.399 11.469V12.6409H176.608V11.469H183.399ZM185.646 11.0002V20.0002H184.239V11.0002H185.646ZM185.399 16.5959L184.942 16.5901C184.946 16.1526 185.007 15.7483 185.124 15.3772C185.245 15.0061 185.413 14.6838 185.628 14.4104C185.847 14.1331 186.108 13.9202 186.413 13.7717C186.718 13.6194 187.056 13.5432 187.427 13.5432C187.739 13.5432 188.021 13.5862 188.271 13.6721C188.524 13.7581 188.743 13.8967 188.927 14.0881C189.11 14.2756 189.249 14.5217 189.343 14.8264C189.44 15.1272 189.489 15.4944 189.489 15.928V20.0002H188.071V15.9163C188.071 15.6116 188.026 15.3694 187.937 15.1897C187.851 15.01 187.724 14.8811 187.556 14.803C187.388 14.7209 187.183 14.6799 186.94 14.6799C186.687 14.6799 186.462 14.7307 186.267 14.8323C186.075 14.9338 185.915 15.0725 185.786 15.2483C185.657 15.4241 185.56 15.6272 185.493 15.8577C185.431 16.0881 185.399 16.3342 185.399 16.5959ZM194.601 18.5061V13.6604H196.019V20.0002H194.683L194.601 18.5061ZM194.801 17.1877L195.275 17.176C195.275 17.6018 195.228 17.9944 195.135 18.3538C195.041 18.7092 194.896 19.0198 194.701 19.2854C194.506 19.5471 194.256 19.7522 193.951 19.9006C193.646 20.0452 193.281 20.1174 192.855 20.1174C192.547 20.1174 192.264 20.0725 192.006 19.9827C191.748 19.8928 191.525 19.7542 191.338 19.5667C191.154 19.3792 191.012 19.135 190.91 18.8342C190.808 18.5334 190.758 18.1741 190.758 17.7561V13.6604H192.17V17.7678C192.17 17.9983 192.197 18.1917 192.252 18.3479C192.306 18.5002 192.381 18.6233 192.474 18.717C192.568 18.8108 192.678 18.8772 192.803 18.9163C192.928 18.9553 193.06 18.9749 193.201 18.9749C193.603 18.9749 193.92 18.8967 194.15 18.7405C194.385 18.5803 194.551 18.3655 194.648 18.0959C194.75 17.8264 194.801 17.5237 194.801 17.1877Z" fill="white"/>
<rect x="111.521" y="59.7289" width="45.2113" height="18.0845" rx="2" fill="#30D791"/>
<g clip-path="url(#clip0_696_8060)">
<path d="M116.166 65.6966C116.141 65.6828 116.108 65.6911 116.1 65.6966C116.08 65.6212 116.011 65.5948 115.93 65.612C115.922 65.4905 115.775 65.4385 115.685 65.508C115.606 65.4185 115.492 65.4306 115.425 65.5503C115.37 65.4896 115.286 65.4737 115.236 65.5218C115.077 65.4354 114.976 65.5914 114.983 65.7095C114.985 65.7507 115.022 65.7791 115.041 65.7858C115.021 65.8045 115.023 65.8407 115.023 65.8564L115.023 65.8576C114.949 65.8336 114.901 65.9224 114.914 65.9707C114.805 65.9357 114.733 65.9909 114.748 66.1022C114.628 66.0792 114.584 66.1823 114.611 66.2466C114.555 66.1859 114.477 66.1869 114.445 66.2466C114.385 66.2265 114.318 66.2663 114.318 66.3202C114.236 66.311 114.19 66.3551 114.194 66.4415C114.109 66.4341 114.072 66.5483 114.121 66.5934C114.043 66.6089 114.014 66.707 114.079 66.7562C114.02 66.7765 114 66.8504 114.033 66.9016C113.958 66.9144 113.965 67.0065 113.978 67.034C113.888 67.034 113.873 67.1237 113.895 67.1793C113.822 67.1471 113.754 67.2145 113.766 67.2879C113.612 67.2253 113.612 67.4055 113.653 67.4866C113.566 67.5877 113.692 67.648 113.78 67.6108C113.78 67.6314 113.802 67.6518 113.813 67.6595C113.813 67.7067 113.822 67.7542 113.888 67.768C113.882 67.776 113.871 67.7951 113.871 67.8076C113.812 67.801 113.777 67.8337 113.767 67.8508C113.67 67.8188 113.6 67.9042 113.635 67.9971L113.635 67.9982C113.652 68.0411 113.669 68.0879 113.78 68.1728C113.713 68.1926 113.702 68.2586 113.704 68.2914C113.61 68.2356 113.517 68.2896 113.584 68.4046C113.597 68.4273 113.649 68.4735 113.673 68.4929C113.569 68.5296 113.511 68.6661 113.62 68.7854C113.561 68.8356 113.581 68.9231 113.636 68.9666C113.507 68.9666 113.463 69.158 113.603 69.1956C113.53 69.2168 113.491 69.3278 113.56 69.3864C113.488 69.4185 113.501 69.5462 113.573 69.5602C113.544 69.6704 113.604 69.7137 113.666 69.7181C113.593 69.7806 113.637 69.8791 113.672 69.9103C113.584 69.9811 113.611 70.1152 113.694 70.1439C113.619 70.1994 113.655 70.3083 113.73 70.3426C113.722 70.342 113.709 70.3615 113.717 70.4199C113.726 70.488 113.802 70.5303 113.851 70.5671C113.741 70.6406 113.811 70.7713 113.908 70.7713C113.808 70.9313 113.954 71.042 114.042 71.0555C113.828 71.2303 114.15 71.5007 114.218 71.3094C114.247 71.3232 114.289 71.3149 114.295 71.3094C114.304 71.3443 114.341 71.3968 114.385 71.4299C114.365 71.4933 114.437 71.5467 114.479 71.5467C114.496 71.6532 114.588 71.6366 114.616 71.6316L114.617 71.6313C114.617 71.7454 114.798 71.8171 114.856 71.6856C114.883 71.7032 114.918 71.6972 114.933 71.692C114.963 71.7877 115.008 71.8355 115.106 71.841C115.184 71.8454 115.241 71.7484 115.262 71.6994C115.213 71.8127 115.294 71.8754 115.403 71.8613C115.394 71.9928 115.565 72.0397 115.608 71.9027C115.606 71.9361 115.619 72.0044 115.691 72.0103C115.762 72.0162 115.791 71.9214 115.797 71.8732C115.811 71.8886 115.851 71.9196 115.893 71.9211C115.946 71.9229 115.981 71.8861 116.002 71.8539C116.04 71.9358 116.151 72.0498 116.262 71.944C116.272 71.9594 116.299 71.9911 116.33 71.9956C116.361 72 116.391 71.9808 116.402 71.9707C116.417 71.9772 116.515 72.0001 116.563 71.9845C116.627 71.964 116.628 71.9102 116.628 71.8694L116.628 71.8668C116.633 71.8778 116.652 71.9063 116.711 71.956C116.802 72.0334 116.993 72.0489 116.952 71.8732C116.947 71.8528 116.945 71.8539 116.952 71.8456C116.958 71.8373 116.967 71.8401 116.971 71.8539C117.007 71.9266 117.086 71.9919 117.154 71.979C117.222 71.9661 117.213 71.8824 117.217 71.8879C117.22 71.8924 117.231 71.9063 117.256 71.9063C117.312 72.0195 117.444 71.9883 117.514 71.9303C117.562 71.9678 117.611 71.9631 117.629 71.956C117.665 71.9509 117.68 71.8971 117.682 71.8732C117.761 71.956 117.986 72.0195 118.001 71.8079C118.096 71.8739 118.34 71.8376 118.298 71.6828H118.322C118.319 71.7012 118.317 71.7479 118.333 71.7877C118.354 71.8373 118.424 71.8806 118.51 71.8521C118.579 71.8293 118.644 71.7524 118.667 71.7169C118.733 71.7359 118.809 71.7282 118.848 71.6686C118.937 71.6885 119.036 71.6329 119.046 71.5425C119.169 71.5425 119.217 71.4932 119.23 71.4308C119.256 71.4372 119.307 71.4179 119.323 71.405C119.453 71.6015 119.77 71.3342 119.611 71.1613C119.731 71.1183 119.777 71 119.716 70.9111C119.785 70.8397 119.813 70.7452 119.818 70.7069C119.921 70.6416 119.877 70.5074 119.758 70.5386V70.4852C119.848 70.4625 119.914 70.3911 119.892 70.2376C120.124 70.1555 119.988 69.9351 119.883 69.857C119.99 69.937 120.159 69.8083 120.048 69.652C120.081 69.5497 120.031 69.5086 119.983 69.481C120.015 69.401 119.963 69.3477 119.939 69.3299C119.96 69.3064 119.959 69.2441 119.956 69.2158C120.024 69.2158 120.065 69.0889 119.983 69.0337C120.012 69.0089 120.014 68.8972 119.963 68.8755C119.971 68.8525 119.963 68.836 119.943 68.8166C119.956 68.8028 119.956 68.7872 119.948 68.7587C119.991 68.6934 119.964 68.5857 119.885 68.5563C119.879 68.5067 119.836 68.4717 119.819 68.4634C119.867 68.4027 119.862 68.3052 119.759 68.2905C119.757 68.2828 119.75 68.2675 119.743 68.2675C119.756 68.2592 119.798 68.2377 119.851 68.1972C119.946 68.1239 119.865 68.0032 119.759 68.0302C119.767 68.0063 119.759 67.9787 119.759 67.9621C119.789 67.932 119.799 67.8791 119.765 67.8247C119.819 67.7407 119.787 67.6554 119.723 67.6273C119.851 67.6273 119.8 67.4051 119.691 67.436C119.799 67.4055 119.782 67.2324 119.662 67.2324C119.725 67.1892 119.743 67.0642 119.61 67.0451C119.625 66.9662 119.593 66.9173 119.525 66.8795C119.561 66.7954 119.507 66.7109 119.421 66.6854C119.406 66.6374 119.394 66.6005 119.354 66.5667C119.354 66.5306 119.338 66.4954 119.316 66.4674C119.33 66.4023 119.323 66.3533 119.274 66.2991C119.294 66.2206 119.251 66.1261 119.17 66.1032C119.126 66.0026 118.973 65.9473 118.889 66.0378C118.855 65.9348 118.735 65.8916 118.639 65.9548C118.639 65.9122 118.583 65.8677 118.54 65.852C118.498 65.7784 118.399 65.7372 118.317 65.7683C118.307 65.7661 118.268 65.7573 118.23 65.7573C118.193 65.6714 118.132 65.6393 118.032 65.6414C117.97 65.5616 117.857 65.5889 117.789 65.6368C117.696 65.6272 117.586 65.6662 117.576 65.772C117.53 65.7705 117.469 65.8079 117.456 65.8355C117.428 65.8235 117.405 65.8143 117.309 65.7959C117.212 65.7775 117.14 65.7849 117.098 65.7959C117.163 65.7288 117.098 65.5393 116.974 65.5954C116.948 65.5245 116.848 65.5016 116.796 65.5568C116.767 65.5186 116.686 65.5112 116.645 65.5329C116.629 65.4308 116.521 65.3425 116.433 65.462C116.368 65.4315 116.265 65.4662 116.281 65.5605C116.2 65.548 116.137 65.5936 116.166 65.6966Z" fill="#433D3D"/>
<path d="M113.672 68.4928L113.67 68.4956C113.718 68.5224 113.768 68.5405 113.81 68.5343C113.873 68.5247 113.88 68.4428 113.884 68.3931C113.884 68.3876 113.885 68.3825 113.885 68.3779C113.89 68.3811 113.896 68.3869 113.902 68.3934C113.918 68.4093 113.938 68.43 113.971 68.4322C114.042 68.4368 114.081 68.3724 114.088 68.3015C114.096 68.2307 114.071 68.0464 113.96 68.0587C113.888 68.0668 113.88 68.1418 113.885 68.1783C113.851 68.1654 113.816 68.1672 113.773 68.1718L113.77 68.1719C113.712 68.1957 113.701 68.2604 113.704 68.2914C113.674 68.2736 113.605 68.2478 113.569 68.2868C113.525 68.3355 113.549 68.3944 113.575 68.4147C113.596 68.4308 113.649 68.4735 113.672 68.4928Z" fill="#212121"/>
<path d="M119.719 70.9159C119.716 70.9132 119.713 70.9106 119.71 70.9083C119.651 70.8626 119.604 70.8621 119.547 70.8846C119.581 70.8018 119.498 70.7167 119.417 70.7574C119.445 70.6706 119.39 70.6067 119.297 70.6262C119.365 70.5518 119.322 70.4383 119.211 70.4476C119.289 70.3708 119.261 70.2656 119.15 70.2461C119.238 70.2156 119.276 70.0996 119.163 70.0467C119.276 70.0467 119.323 69.8469 119.211 69.804C118.97 69.7119 118.911 69.8993 118.936 69.973C118.857 70.0335 118.825 70.2645 118.992 70.3089C118.881 70.3993 118.936 70.5411 119.037 70.5411C118.945 70.6426 118.992 70.7681 119.15 70.7362C119.056 70.8709 119.198 70.956 119.276 70.9083C119.248 71.0571 119.372 71.0819 119.433 71.0449C119.451 71.1062 119.494 71.142 119.541 71.1569C119.514 71.1635 119.487 71.18 119.46 71.2091C119.436 71.1153 119.328 71.1079 119.262 71.1695C119.282 71.0667 119.202 71.0085 119.113 71.0481C119.167 70.9535 119.092 70.8832 118.993 70.9009C119.071 70.8034 119.005 70.7255 118.918 70.7255C118.983 70.6282 118.907 70.5544 118.847 70.5404C118.946 70.4206 118.884 70.3195 118.81 70.2947C118.726 70.3556 118.697 70.5122 118.677 70.6172L118.675 70.627L118.673 70.6418C118.653 70.808 118.693 70.8515 118.791 70.8777C118.726 71.038 118.83 71.1188 118.928 71.0926C118.9 71.2544 119.038 71.3319 119.118 71.2953C119.146 71.4001 119.199 71.4336 119.25 71.4317C119.273 71.4294 119.301 71.4185 119.317 71.409C119.319 71.408 119.32 71.4068 119.322 71.4057L119.323 71.405C119.452 71.6002 119.765 71.3377 119.614 71.1647L119.612 71.1639L119.613 71.1638L119.611 71.1613C119.729 71.119 119.775 71.0042 119.719 70.9159Z" fill="#212121"/>
<path d="M119.478 69.5042C119.414 69.5483 119.435 69.6767 119.52 69.6885C119.422 69.7071 119.436 69.8744 119.544 69.8864C119.448 69.9579 119.52 70.0875 119.634 70.051C119.644 70.1806 119.911 70.1347 119.804 69.9396C119.883 69.8864 119.85 69.7961 119.764 69.7806C119.868 69.7381 119.842 69.6262 119.751 69.5947C119.836 69.5592 119.819 69.4561 119.751 69.4286C119.816 69.3918 119.81 69.2967 119.739 69.2609C119.807 69.2213 119.809 69.1009 119.711 69.0791C119.778 69.0018 119.747 68.9028 119.666 68.8817C119.738 68.817 119.676 68.6762 119.571 68.6762C119.571 68.5213 119.317 68.4897 119.243 68.7163C119.207 68.8284 119.312 69.064 119.395 69.2489C119.454 69.3812 119.502 69.4875 119.478 69.5042Z" fill="#212121"/>
<path d="M114.399 70.0309C114.359 69.92 114.434 69.7841 114.651 69.8509C114.868 69.9177 114.794 70.3017 114.565 70.3171C114.632 70.4089 114.577 70.5375 114.481 70.5214C114.532 70.6191 114.528 70.6923 114.417 70.723C114.454 70.8634 114.234 70.9549 114.187 70.7917C114.007 70.8232 114 70.5671 114.176 70.5858C114.127 70.4617 114.214 70.4142 114.262 70.4089C114.2 70.2745 114.288 70.2327 114.339 70.2286C114.273 70.1385 114.315 70.0476 114.399 70.0309Z" fill="#212121"/>
<path d="M113.866 69.4816C113.775 69.3792 113.82 69.3034 113.853 69.2672C113.756 69.1978 113.77 69.0639 113.892 69.0403C113.775 68.9448 113.836 68.7732 113.994 68.7998C113.898 68.6552 114.124 68.5402 114.264 68.7242C114.426 69.0144 114.213 69.7441 114.213 69.7441C114.279 69.8274 114.246 69.9041 114.186 69.9331C114.246 70.0308 114.186 70.095 114.122 70.1087C114.168 70.2248 114.12 70.2751 114.053 70.2953C114.119 70.4239 114.034 70.4663 113.986 70.4752C113.968 70.6107 113.85 70.5998 113.768 70.5225C113.686 70.4451 113.694 70.3796 113.727 70.3409C113.753 70.3099 113.788 70.3091 113.802 70.3126C113.727 70.1998 113.81 70.1246 113.866 70.1087C113.816 69.998 113.881 69.9363 113.923 69.921C113.834 69.854 113.853 69.7585 113.923 69.7027C113.802 69.6662 113.802 69.5395 113.866 69.4816Z" fill="#212121"/>
<path d="M115.258 71.7072C115.235 71.758 115.18 71.8452 115.106 71.841C115.008 71.8355 114.963 71.7877 114.933 71.692L114.931 71.6925C114.922 71.6369 114.964 71.5601 115.045 71.5427C115.03 71.482 115.046 71.408 115.137 71.3861C115.118 71.3467 115.119 71.2381 115.237 71.221C115.181 71.1287 115.314 70.9438 115.475 71.0887C115.638 71.2347 115.449 71.4008 115.379 71.4094C115.397 71.4697 115.382 71.6018 115.283 71.6018C115.283 71.6378 115.269 71.6801 115.258 71.7072Z" fill="#212121"/>
<path d="M114.384 71.4298L114.384 71.4309C114.486 71.4823 114.622 71.43 114.545 71.2992C114.664 71.3139 114.681 71.178 114.634 71.1085C114.725 71.1416 114.799 71.0348 114.764 70.9236C114.877 70.9571 114.913 70.7855 114.877 70.7128C115.315 70.5246 114.819 70.0622 114.764 70.502C114.653 70.487 114.56 70.6278 114.634 70.7648C114.553 70.7006 114.457 70.846 114.527 70.9571C114.438 70.9016 114.343 71.0384 114.401 71.1432C114.322 71.1161 114.256 71.202 114.291 71.311C114.293 71.3104 114.294 71.3099 114.294 71.3093C114.303 71.3443 114.34 71.3967 114.384 71.4298Z" fill="#212121"/>
<path d="M114.617 71.634L114.617 71.6313L114.616 71.6314C114.599 71.5741 114.591 71.4921 114.698 71.4763C114.667 71.4121 114.68 71.322 114.787 71.322C114.787 71.322 114.726 71.1861 114.858 71.1861C114.808 71.0903 114.861 71.0212 114.944 71.0146C114.889 70.8902 114.992 70.8205 115.041 70.8087C115.057 70.8226 115.278 70.9935 115.278 70.9935L115.267 70.9972C115.163 71.0329 115.094 71.0565 115.12 71.1606C115.032 71.1606 114.99 71.2589 115.026 71.322C114.944 71.3301 114.903 71.4266 114.95 71.4942C114.838 71.5414 114.846 71.6094 114.853 71.6661C114.854 71.6731 114.854 71.6799 114.855 71.6865C114.81 71.8073 114.661 71.7697 114.625 71.6743L114.624 71.6672C114.622 71.6558 114.62 71.6445 114.617 71.634Z" fill="#212121"/>
<path d="M119.758 70.4852C119.759 70.4848 119.76 70.4841 119.762 70.4831C119.652 70.5019 119.573 70.3499 119.645 70.2801C119.544 70.3481 119.448 70.2394 119.501 70.1531C119.415 70.177 119.368 70.0845 119.4 69.9793C119.3 69.9793 119.251 70.1758 119.351 70.2503C119.28 70.3525 119.352 70.505 119.462 70.4769C119.389 70.5743 119.488 70.7184 119.606 70.6724C119.618 70.7851 119.699 70.8289 119.779 70.8205C119.803 70.7738 119.815 70.73 119.818 70.7069C119.883 70.6656 119.879 70.6063 119.869 70.5818C119.842 70.5165 119.758 70.5385 119.758 70.5385V70.4852Z" fill="#212121"/>
<path d="M116.002 71.8548L116.001 71.8539C115.98 71.8861 115.945 71.9229 115.893 71.921C115.851 71.9196 115.811 71.8885 115.796 71.8732C115.791 71.9213 115.762 72.0161 115.691 72.0102C115.633 72.0055 115.613 71.9604 115.609 71.9256C115.612 71.7981 115.619 71.6183 115.775 71.6451C115.797 71.6079 115.827 71.5709 115.914 71.5881C115.994 71.6038 116.034 71.715 116.002 71.8548Z" fill="#212121"/>
<path d="M116.628 71.8668C116.628 71.8676 116.629 71.8685 116.629 71.8696C116.608 71.7654 116.495 71.6806 116.426 71.6903C116.342 71.702 116.35 71.7843 116.365 71.8241C116.288 71.8231 116.265 71.8783 116.266 71.9494C116.277 71.9658 116.302 71.9916 116.33 71.9955C116.361 71.9999 116.391 71.9808 116.402 71.9707C116.416 71.9771 116.515 72.0001 116.563 71.9845C116.627 71.964 116.627 71.9102 116.628 71.8694L116.628 71.8668Z" fill="#212121"/>
<path d="M117.218 71.889C117.217 71.8886 117.217 71.8882 117.217 71.8879C117.216 71.8868 117.216 71.8893 117.215 71.894C117.213 71.913 117.208 71.9687 117.154 71.979C117.086 71.9919 117.007 71.9265 116.971 71.8539C116.969 71.8484 116.967 71.8447 116.964 71.8427C116.955 71.8183 116.949 71.7945 116.945 71.7751L116.944 71.7739C116.923 71.6883 117.073 71.6524 117.14 71.767C117.146 71.7764 117.154 71.7865 117.162 71.7972C117.184 71.8258 117.209 71.858 117.218 71.889Z" fill="#212121"/>
<path d="M117.681 71.8732L117.683 71.8747C117.679 71.8515 117.668 71.8296 117.656 71.8171C117.745 71.7913 117.818 71.6975 117.727 71.6313C117.636 71.5651 117.513 71.6433 117.457 71.7251C117.407 71.7973 117.455 71.888 117.519 71.9343C117.566 71.9674 117.611 71.9628 117.629 71.956C117.665 71.9508 117.68 71.8971 117.681 71.8732Z" fill="#212121"/>
<path d="M118.663 71.7208L118.662 71.7205C118.638 71.7561 118.574 71.8329 118.504 71.8557C118.418 71.8842 118.348 71.841 118.328 71.7913C118.312 71.7516 118.314 71.7049 118.317 71.6865H118.315L118.315 71.6856C118.25 71.6911 118.143 71.6193 118.221 71.5062C118.177 71.501 118.086 71.473 118.098 71.4041C118.109 71.3352 118.262 71.2087 118.337 71.1541C118.357 71.1786 118.39 71.2443 118.366 71.3107C118.414 71.3204 118.499 71.3667 118.455 71.4746C118.494 71.4784 118.57 71.5062 118.559 71.5867C118.609 71.5805 118.688 71.6066 118.663 71.7208Z" fill="#212121"/>
<path d="M118.886 71.3708C118.991 71.3559 119.065 71.397 119.047 71.5424L119.046 71.5425C119.036 71.6287 118.946 71.6832 118.86 71.6709C118.856 71.6691 118.853 71.6676 118.85 71.6666C118.875 71.5669 118.818 71.463 118.713 71.501C118.73 71.4038 118.675 71.3583 118.597 71.3708C118.621 71.3178 118.597 71.2262 118.488 71.2376C118.526 71.176 118.53 71.0924 118.406 71.053C118.278 71.0122 118.356 70.8253 118.526 70.8707C118.617 70.8847 118.672 70.9935 118.643 71.0996C118.702 71.0996 118.762 71.1346 118.753 71.2376C118.85 71.2216 118.898 71.2817 118.886 71.3708Z" fill="#212121"/>
<path d="M119.621 69.218C119.621 69.6082 119.305 69.9244 118.915 69.9244C118.525 69.9244 118.208 69.6082 118.208 69.218C118.208 68.8279 118.525 68.5116 118.915 68.5116C119.305 68.5116 119.621 68.8279 119.621 69.218Z" fill="#F4C6AD"/>
<path d="M115.383 69.2416C115.383 69.6317 115.066 69.948 114.676 69.948C114.286 69.948 113.97 69.6317 113.97 69.2416C113.97 68.8514 114.286 68.5351 114.676 68.5351C115.066 68.5351 115.383 68.8514 115.383 69.2416Z" fill="#F4C6AD"/>
<path d="M115.451 67.113C115.515 67.1067 115.523 67.0201 115.509 66.9802C115.554 66.9802 115.581 66.9338 115.581 66.8869C115.604 66.897 115.659 66.8804 115.677 66.8398C115.709 66.851 115.765 66.8528 115.803 66.8032C115.876 66.8557 116.034 66.7456 115.993 66.6573C116.009 66.6702 116.053 66.6862 116.098 66.6465C116.088 66.7464 116.191 66.8106 116.283 66.8106C116.278 66.9243 116.377 66.9472 116.465 66.9143C116.332 66.9787 116.344 67.1147 116.465 67.1518C116.208 67.3406 116.605 67.5936 116.711 67.3743C116.764 67.4548 116.897 67.4052 116.929 67.3646C116.953 67.3617 117.004 67.3484 117.014 67.3181C117.027 67.2804 117.024 67.235 117.003 67.2145C117.046 67.1893 117.133 67.1378 117.139 67.1335C117.14 67.1323 117.139 67.1349 117.138 67.1401C117.133 67.1587 117.12 67.2116 117.163 67.248C117.208 67.2851 117.266 67.2814 117.29 67.275C117.275 67.3012 117.254 67.3648 117.29 67.4089C117.335 67.4639 117.449 67.4564 117.499 67.4326C117.55 67.4089 117.582 67.3754 117.58 67.3365C117.578 67.2976 117.554 67.2544 117.499 67.2555C117.506 67.249 117.519 67.2264 117.514 67.1875C117.51 67.1486 117.503 67.1353 117.499 67.1335L117.555 67.113C117.562 67.132 117.589 67.1719 117.644 67.1788C117.697 67.4022 117.915 67.276 117.884 67.1788C117.902 67.1713 117.925 67.1076 117.926 67.0773L117.938 67.0849C117.937 67.1137 117.945 67.1713 117.988 67.1713C118.042 67.1713 118.119 67.1313 118.15 67.0849C118.158 67.0993 118.198 67.1251 118.299 67.113C118.369 67.1048 118.392 67.0717 118.397 67.0654C118.397 67.0648 118.398 67.0644 118.398 67.0644C118.398 67.0644 118.398 67.0645 118.397 67.0651C118.393 67.07 118.37 67.1007 118.389 67.1335C118.34 67.1765 118.337 67.2717 118.422 67.2987C118.334 67.3534 118.325 67.4532 118.409 67.5201C118.378 67.5309 118.321 67.5741 118.337 67.6605C118.358 67.7684 118.505 67.817 118.538 67.8214C118.643 67.8349 118.65 67.7029 118.579 67.654C118.679 67.6155 118.729 67.527 118.626 67.4532C118.615 67.4463 118.604 67.4369 118.596 67.4306C118.592 67.4273 118.589 67.4248 118.588 67.424C118.604 67.4229 118.639 67.4184 118.654 67.4089C118.654 67.4532 118.702 67.5031 118.765 67.5031C118.731 67.5549 118.73 67.6605 118.829 67.6875C118.787 67.731 118.739 67.8332 118.875 67.8937C118.829 67.9121 118.745 68.0179 118.875 68.1043C118.829 68.1324 118.744 68.2652 118.888 68.3462C118.945 68.3747 118.982 68.3868 118.994 68.3894L119.03 68.5167L118.98 69.7498C118.926 70.9954 117.966 71.8319 116.793 71.8319C115.62 71.8319 114.659 70.9954 114.605 69.7498L114.562 68.6836H114.568L114.563 68.5657L114.559 68.4296C114.561 68.3312 114.566 68.2486 114.573 68.1787C114.575 68.182 114.577 68.1852 114.579 68.1885C114.605 68.2098 114.687 68.2123 114.707 68.1518C114.729 68.0833 114.677 68.0367 114.627 68.0114C114.678 68.0284 114.746 68.0348 114.769 67.9769C114.797 67.9076 114.735 67.8605 114.694 67.8426C114.724 67.8533 114.785 67.8566 114.815 67.8073C114.848 67.7538 114.804 67.7011 114.781 67.6799C114.8 67.6907 114.847 67.7026 114.887 67.6637C114.927 67.6248 114.9 67.5597 114.882 67.532C114.904 67.5406 114.957 67.5527 114.989 67.532C115.021 67.5112 115.028 67.447 115.028 67.4175C115.045 67.4477 115.096 67.4372 115.125 67.4175C115.104 67.6267 115.4 67.5856 115.381 67.4479C115.482 67.4391 115.487 67.3237 115.416 67.2804C115.509 67.2637 115.509 67.1518 115.451 67.113Z" fill="#FFD7C2"/>
<path d="M116.795 70.5121C116.572 70.5121 116.363 70.4597 116.187 70.3679C116.127 70.3373 116.062 70.405 116.1 70.4597C116.247 70.6825 116.503 70.8311 116.795 70.8311C117.087 70.8311 117.343 70.6825 117.49 70.4597C117.528 70.4029 117.464 70.3373 117.404 70.3679C117.228 70.4597 117.02 70.5121 116.795 70.5121Z" fill="#990838"/>
<path d="M116.628 69.1301L116.394 69.8764C116.347 70.03 116.461 70.1835 116.623 70.1835H116.968C117.13 70.1835 117.244 70.0276 117.197 69.8764L116.963 69.1301C116.913 68.9648 116.68 68.9648 116.628 69.1301Z" fill="#E5AF93"/>
<path d="M115.618 68.6294C115.853 68.6294 116.095 68.8178 116.212 69.0062C116.071 69.0495 115.94 69.0829 115.813 69.1155C115.663 69.1537 115.517 69.1908 115.365 69.2416L115.129 69.0768C115.035 69.0062 115.012 68.8884 115.153 68.7942C115.294 68.6765 115.453 68.6294 115.618 68.6294Z" fill="black"/>
<path d="M118.02 68.6294C117.784 68.6294 117.543 68.8178 117.425 69.0062C117.566 69.0495 117.697 69.0829 117.825 69.1155C117.975 69.1537 118.12 69.1908 118.273 69.2416L118.508 69.0768C118.603 69.0062 118.626 68.8884 118.485 68.7942C118.344 68.6765 118.185 68.6294 118.02 68.6294Z" fill="black"/>
<path d="M115.15 69.0926C115.218 68.8273 115.46 68.6294 115.746 68.6294C116.043 68.6294 116.292 68.8412 116.348 69.1229C116.359 69.1858 116.311 69.2416 116.248 69.2416H115.269C115.19 69.2416 115.132 69.1695 115.15 69.0926Z" fill="white"/>
<path d="M118.44 69.0926C118.373 68.8273 118.131 68.6294 117.845 68.6294C117.545 68.6294 117.299 68.8412 117.243 69.1229C117.231 69.1858 117.28 69.2416 117.343 69.2416H118.322C118.401 69.2416 118.459 69.1695 118.44 69.0926Z" fill="white"/>
<path d="M115.443 69.1373C115.443 68.9193 115.62 68.7454 115.836 68.7454C116.052 68.7454 116.227 68.9193 116.227 69.1373C116.227 69.1744 116.222 69.2092 116.213 69.2416H115.457C115.448 69.2069 115.443 69.1744 115.443 69.1373Z" fill="#7D4533"/>
<path d="M118.147 69.1373C118.147 68.9193 117.97 68.7454 117.754 68.7454C117.538 68.7454 117.361 68.9193 117.364 69.1373C117.364 69.1744 117.368 69.2092 117.378 69.2416H118.133C118.143 69.2069 118.147 69.1744 118.147 69.1373Z" fill="#7D4533"/>
<path d="M115.836 68.9146C115.96 68.9146 116.06 69.0143 116.06 69.1372C116.06 69.1743 116.05 69.2091 116.034 69.2415H115.639C115.623 69.2091 115.613 69.1743 115.613 69.1372C115.613 69.0143 115.713 68.9146 115.836 68.9146Z" fill="black"/>
<path d="M117.752 68.9146C117.629 68.9146 117.529 69.0143 117.529 69.1372C117.529 69.1743 117.538 69.2091 117.555 69.2415H117.95C117.966 69.2091 117.975 69.1743 117.975 69.1372C117.975 69.0143 117.875 68.9146 117.752 68.9146Z" fill="black"/>
<path d="M115.771 68.9873C115.771 69.0263 115.74 69.0579 115.702 69.0579C115.663 69.0579 115.632 69.0263 115.632 68.9873C115.632 68.9483 115.663 68.9166 115.702 68.9166C115.74 68.9166 115.771 68.9483 115.771 68.9873Z" fill="white"/>
<path d="M117.701 68.9873C117.701 69.0263 117.67 69.0579 117.631 69.0579C117.593 69.0579 117.561 69.0263 117.561 68.9873C117.561 68.9483 117.593 68.9166 117.631 68.9166C117.67 68.9166 117.701 68.9483 117.701 68.9873Z" fill="white"/>
<path d="M115.302 68.4006L115.304 68.3995C115.306 68.3984 115.309 68.3966 115.313 68.3942C115.322 68.3895 115.336 68.3824 115.353 68.374C115.389 68.3571 115.441 68.3349 115.504 68.3147C115.631 68.274 115.799 68.2435 115.974 68.2743C116.038 68.2856 116.099 68.2429 116.111 68.1789C116.122 68.1148 116.079 68.0538 116.015 68.0425C115.79 68.0027 115.581 68.0428 115.432 68.0904C115.357 68.1144 115.295 68.1408 115.252 68.1614C115.23 68.1717 115.213 68.1807 115.201 68.1872C115.195 68.1905 115.19 68.1932 115.187 68.1951L115.183 68.1975L115.181 68.1983L115.181 68.1985L115.181 68.1987C115.125 68.2321 115.107 68.3045 115.14 68.3603C115.174 68.4159 115.246 68.4339 115.302 68.4006Z" fill="#212121"/>
<path d="M118.451 68.3603C118.484 68.3045 118.466 68.2321 118.41 68.1987L118.41 68.1985L118.409 68.1983L118.408 68.1975L118.404 68.1951C118.4 68.1932 118.396 68.1905 118.39 68.1872C118.378 68.1807 118.36 68.1717 118.339 68.1614C118.296 68.1408 118.234 68.1144 118.159 68.0904C118.009 68.0428 117.801 68.0027 117.576 68.0425C117.512 68.0538 117.469 68.1148 117.48 68.1789C117.491 68.2429 117.552 68.2856 117.616 68.2743C117.792 68.2435 117.96 68.274 118.087 68.3147C118.15 68.3349 118.202 68.3571 118.237 68.374C118.255 68.3824 118.269 68.3895 118.277 68.3942C118.282 68.3966 118.285 68.3984 118.287 68.3995L118.289 68.4007L118.289 68.4008C118.345 68.4341 118.417 68.4159 118.451 68.3603Z" fill="#212121"/>
<path d="M116.286 65.9394C116.286 65.9394 116.286 65.7655 116.448 65.8012C116.392 65.7168 116.426 65.6147 116.542 65.6147C116.546 65.6147 116.549 65.6148 116.552 65.6148C116.589 65.6156 116.637 65.6165 116.649 65.5342C116.65 65.5297 116.65 65.5253 116.651 65.5208C116.653 65.4135 116.493 65.3289 116.426 65.4519C116.369 65.4089 116.261 65.4669 116.275 65.5485C116.188 65.5353 116.105 65.599 116.159 65.6919L116.157 65.6915C116.159 65.6938 116.161 65.6961 116.163 65.6984C116.191 65.7311 116.194 65.7902 116.163 65.8226C116.238 65.8302 116.256 65.8708 116.286 65.9387L116.286 65.9394Z" fill="#212121"/>
<path d="M115.701 65.7415C115.708 65.7992 115.777 65.8368 115.834 65.8039C115.76 65.8569 115.794 65.9786 115.913 65.9458C115.941 66.1109 116.247 66.005 116.086 65.8245C116.1 65.8048 116.122 65.7557 116.108 65.6985C116.107 65.6991 116.106 65.6997 116.105 65.7002C116.105 65.6993 116.105 65.6981 116.105 65.6969C116.102 65.6847 116.096 65.6584 116.055 65.6276C116.019 65.6003 115.957 65.6043 115.934 65.6092C115.934 65.5944 115.916 65.5163 115.856 65.485C115.783 65.4465 115.721 65.4767 115.689 65.5015C115.687 65.4999 115.686 65.4982 115.684 65.4963C115.67 65.48 115.649 65.4549 115.608 65.4454C115.52 65.4252 115.459 65.4795 115.426 65.5383C115.426 65.5383 115.418 65.5015 115.384 65.485C115.331 65.4585 115.261 65.4776 115.236 65.5015C115.171 65.4454 115.076 65.485 115.03 65.5383C114.984 65.5917 114.978 65.6588 114.981 65.7103C114.981 65.725 114.987 65.7375 114.994 65.7478C115.024 65.7119 115.072 65.6777 115.142 65.6917C115.178 65.6187 115.282 65.6208 115.329 65.6648C115.393 65.6102 115.471 65.6335 115.503 65.6791C115.571 65.6282 115.692 65.6664 115.701 65.7415Z" fill="#212121"/>
<path d="M115.031 66.5798C115.099 66.5699 115.124 66.49 115.07 66.426C115.142 66.3899 115.156 66.3425 115.111 66.2678C115.187 66.2678 115.199 66.2115 115.187 66.138C115.26 66.1791 115.311 66.1152 115.311 66.0555C115.343 66.1077 115.449 66.1075 115.495 66.0555C115.51 66.1206 115.633 66.1289 115.659 66.0555C115.807 66.0771 115.85 65.8492 115.633 65.8143C115.645 65.7482 115.546 65.6964 115.482 65.7545C115.463 65.6994 115.353 65.677 115.311 65.7391C115.296 65.6984 115.188 65.6831 115.159 65.7545C115.106 65.7102 115.004 65.787 115.016 65.8492C114.947 65.8293 114.877 65.9157 114.912 65.9781C114.832 65.9781 114.823 66.1153 114.889 66.138C114.783 66.1194 114.744 66.2565 114.832 66.3101C114.726 66.3101 114.723 66.4452 114.806 66.4894C114.671 66.5464 114.752 66.6725 114.832 66.7091C114.913 66.7457 115.053 66.7039 115.031 66.5798Z" fill="#212121"/>
<path d="M116.941 66.207C116.929 66.1436 116.863 66.116 116.798 66.1411C116.787 66.059 116.725 66.0249 116.626 66.0406C116.575 65.9293 116.455 65.932 116.363 65.9628C116.363 65.8978 116.405 65.8226 116.514 65.8448C116.541 65.7716 116.627 65.7666 116.685 65.8001C116.716 65.7591 116.819 65.7564 116.843 65.8226C116.891 65.783 116.983 65.8001 116.983 65.8848C117.058 65.8538 117.15 65.9237 117.13 65.9796C117.214 65.9617 117.269 66.0122 117.269 66.0893C117.325 66.0893 117.387 66.1438 117.378 66.2144C117.47 66.228 117.482 66.2807 117.482 66.3404C117.544 66.3523 117.602 66.4123 117.568 66.4944C117.643 66.4912 117.699 66.566 117.671 66.6504C117.751 66.6726 117.788 66.7418 117.751 66.8206C117.833 66.8386 117.871 66.9273 117.825 66.9963C117.92 67.0071 117.956 67.0998 117.895 67.1719C118.009 67.1629 118.038 67.352 117.901 67.3391C117.909 67.4536 117.724 67.4835 117.72 67.352C117.582 67.3738 117.577 67.2182 117.636 67.1784C117.521 67.1425 117.541 67.0337 117.568 66.9963C117.466 66.981 117.47 66.8934 117.513 66.8326C117.396 66.8326 117.372 66.7468 117.402 66.6817C117.304 66.69 117.265 66.5988 117.298 66.5354C117.211 66.5612 117.15 66.4701 117.189 66.402C117.092 66.4223 117.048 66.3496 117.068 66.2953C116.983 66.3092 116.953 66.2705 116.941 66.207Z" fill="#212121"/>
<path d="M117.014 67.3181C117.024 67.2888 117.025 67.255 117.014 67.2317C116.991 67.1967 116.944 67.1675 116.88 67.1629C117.003 67.1122 116.991 66.9521 116.866 66.9044C116.889 66.8467 116.89 66.7392 116.75 66.6998C116.771 66.6306 116.75 66.5234 116.626 66.5303C116.633 66.4476 116.572 66.4147 116.491 66.4312C116.481 66.3631 116.398 66.3445 116.332 66.3706C116.318 66.3364 116.25 66.2954 116.184 66.347C116.014 66.2548 115.875 66.5818 116.169 66.593C116.151 66.6744 116.27 66.7429 116.348 66.6901C116.328 66.7802 116.412 66.8465 116.491 66.7943C116.448 66.8651 116.5 66.9424 116.612 66.9322C116.545 67.0058 116.628 67.128 116.718 67.1086C116.612 67.2876 116.773 67.39 116.927 67.3665L116.929 67.3645C116.953 67.3616 117.004 67.3483 117.014 67.3181Z" fill="#212121"/>
<path d="M117.514 67.1874C117.512 67.1656 117.508 67.1518 117.505 67.1436L117.502 67.137L117.501 67.135C117.5 67.1342 117.5 67.1337 117.499 67.1334L117.5 67.1331C117.47 67.0748 117.45 67.05 117.4 67.0269C117.435 66.9378 117.38 66.8728 117.314 66.8685C117.363 66.7302 117.255 66.6692 117.194 66.6686C117.21 66.535 117.111 66.5007 117.055 66.4974C117.057 66.4039 117.02 66.3539 116.916 66.3539C116.928 66.2464 116.831 66.2041 116.755 66.2177C116.764 66.1258 116.664 66.0852 116.587 66.1241C116.587 66.0387 116.46 66.013 116.408 66.0525C116.354 65.9901 116.243 65.9817 116.198 66.0709C116.029 66.04 115.923 66.2028 116.016 66.3257C116.053 66.2503 116.128 66.2177 116.198 66.2914C116.253 66.2115 116.355 66.2353 116.369 66.3184C116.451 66.2634 116.526 66.3001 116.534 66.3789C116.629 66.3539 116.694 66.3886 116.673 66.4867C116.784 66.461 116.861 66.5528 116.825 66.6554C116.908 66.6554 116.983 66.731 116.938 66.8432C116.938 66.8432 116.963 66.9177 117.036 66.9177C116.993 67.0008 117.056 67.1231 117.147 67.1048C117.142 67.1151 117.139 67.1251 117.136 67.1348C117.137 67.1342 117.138 67.1337 117.138 67.1334C117.14 67.1322 117.139 67.1348 117.138 67.14C117.133 67.1587 117.12 67.2115 117.163 67.2479C117.207 67.285 117.266 67.2813 117.29 67.2749C117.274 67.3011 117.253 67.3647 117.29 67.4088C117.335 67.4638 117.448 67.4563 117.499 67.4325C117.55 67.4088 117.582 67.3753 117.58 67.3364C117.578 67.2975 117.554 67.2544 117.499 67.2554C117.506 67.249 117.519 67.2263 117.514 67.1874Z" fill="#212121"/>
<path d="M115.631 66.582C115.623 66.6521 115.548 66.699 115.48 66.6514C115.48 66.7277 115.422 66.7834 115.332 66.7532C115.367 66.8432 115.308 66.8998 115.222 66.8905C115.308 66.9259 115.28 67.053 115.208 67.0651C115.4 67.2095 115.076 67.3472 115.068 67.1832C114.9 67.2089 114.848 66.9764 115.018 66.9342C114.921 66.847 114.962 66.7075 115.122 66.7142C115.046 66.621 115.105 66.478 115.261 66.5105C115.212 66.3928 115.31 66.3063 115.432 66.3654C115.408 66.27 115.527 66.1812 115.657 66.2743C115.657 66.1292 115.917 66.1422 115.883 66.3133C116.039 66.2967 116.013 66.6471 115.797 66.5482C115.759 66.6254 115.669 66.6449 115.631 66.582Z" fill="#212121"/>
<path d="M117.337 65.7891C117.133 65.7567 117.074 65.805 117.039 65.8341L117.035 65.8373C117.093 65.8161 117.186 65.8373 117.195 65.922C117.283 65.8917 117.355 65.9682 117.333 66.0452C117.423 66.0235 117.472 66.0934 117.448 66.162C117.539 66.1693 117.566 66.2133 117.566 66.2993C117.657 66.316 117.693 66.3513 117.693 66.4459C117.795 66.4608 117.832 66.5406 117.806 66.6378C117.899 66.6378 118.008 66.6763 117.938 66.847C117.863 67.0281 118.273 67.0826 118.165 66.7824C118.262 66.7249 118.223 66.5659 118.108 66.5368C118.209 66.4607 118.1 66.292 117.984 66.3402C118.039 66.2228 117.959 66.1538 117.863 66.1713C117.9 66.0655 117.814 66.0025 117.724 66.0452C117.748 65.9524 117.664 65.875 117.584 65.922C117.595 65.8373 117.526 65.8033 117.46 65.8281L117.458 65.8257C117.444 65.8113 117.437 65.8049 117.337 65.7891Z" fill="#212121"/>
<path d="M117.644 65.6607C117.615 65.6829 117.581 65.7187 117.572 65.7651C117.571 65.7978 117.582 65.8248 117.609 65.8474C117.654 65.8837 117.721 65.8773 117.743 65.8326C117.749 65.8712 117.829 65.8906 117.872 65.8612C117.866 65.9099 117.935 65.9678 117.992 65.9389C117.954 65.9933 118.02 66.0655 118.09 66.04C118.064 66.1173 118.102 66.1761 118.191 66.1651C118.133 66.2373 118.171 66.3207 118.263 66.3207C118.22 66.4288 118.33 66.4952 118.42 66.4593C118.579 66.3952 118.551 66.2142 118.437 66.13C118.496 66.0456 118.428 65.9389 118.356 65.9389C118.378 65.8715 118.365 65.7885 118.252 65.7566L118.235 65.7545C118.228 65.7392 118.206 65.7006 118.171 65.6689C118.135 65.6373 118.067 65.6306 118.037 65.6312C118.028 65.619 117.995 65.5926 117.939 65.5852C117.869 65.576 117.84 65.5935 117.787 65.6312C117.734 65.6257 117.676 65.6368 117.644 65.6607Z" fill="#212121"/>
<path d="M118.655 67.4167L118.671 67.4509C118.662 67.4382 118.657 67.4257 118.655 67.4167Z" fill="#212121"/>
<path d="M118.653 67.4102L118.653 67.4088C118.639 67.4183 118.603 67.4228 118.588 67.4239C118.709 67.4887 118.724 67.6139 118.579 67.6539C118.653 67.7015 118.634 67.8356 118.53 67.8221C118.447 67.8115 118.349 67.7706 118.329 67.6626C118.312 67.5762 118.378 67.5308 118.408 67.52C118.32 67.4458 118.334 67.3533 118.421 67.2986C118.329 67.2619 118.34 67.1764 118.389 67.1334C118.379 67.1254 118.371 67.1199 118.364 67.1161L118.364 67.1158C118.29 67.0094 118.384 66.9288 118.391 66.9318C118.308 66.897 118.314 66.7382 118.408 66.722C118.29 66.4678 118.734 66.4958 118.603 66.7548C118.659 66.7919 118.714 66.8911 118.638 66.9765C118.705 67.033 118.731 67.158 118.627 67.2078C118.705 67.2456 118.725 67.3604 118.653 67.4102Z" fill="#212121"/>
<path d="M114.477 66.7321C114.512 66.7345 114.581 66.7056 114.573 66.5703C114.667 66.5703 114.749 66.3993 114.612 66.2356C114.503 66.1062 114.353 66.2751 114.477 66.4021C114.343 66.3285 114.235 66.4756 114.367 66.5952C114.24 66.5703 114.148 66.712 114.267 66.8016C114.195 66.8338 114.086 66.9267 114.226 67.0413C114.163 67.0938 114.099 67.1903 114.226 67.2809C114.052 67.4359 114.327 67.6392 114.362 67.3888C114.507 67.3687 114.559 67.2114 114.401 67.1616C114.518 67.119 114.522 67.0161 114.428 66.9406C114.519 66.9214 114.56 66.7885 114.477 66.7321Z" fill="#212121"/>
<path d="M118.984 67.5832C118.839 67.6048 118.8 67.4407 118.898 67.3798C118.752 67.3896 118.739 67.2594 118.784 67.1819C118.817 67.1247 118.792 67.0208 118.705 66.9766C118.784 66.9199 118.755 66.7911 118.671 66.753C118.705 66.6414 118.928 66.6777 118.888 66.8507C118.983 66.8583 119.028 66.9518 118.971 67.0393C119.07 67.0443 119.106 67.1336 119.051 67.2269C119.131 67.2269 119.212 67.3119 119.16 67.4028C119.264 67.4187 119.284 67.5575 119.194 67.6034C119.237 67.8145 118.898 67.768 118.984 67.5832Z" fill="#212121"/>
<path d="M118.887 66.0369L118.887 66.0365C118.846 66.0953 118.866 66.2167 118.996 66.2167C118.976 66.2623 118.973 66.3554 119.088 66.3691C119.065 66.4068 119.074 66.4877 119.164 66.4993C119.228 66.5075 119.277 66.5713 119.257 66.6421C119.363 66.6421 119.42 66.7447 119.382 66.8115C119.426 66.8115 119.479 66.8177 119.528 66.8748C119.56 66.7904 119.51 66.7029 119.425 66.678C119.425 66.6274 119.41 66.5989 119.362 66.5704C119.373 66.5391 119.363 66.4996 119.319 66.4628C119.348 66.4085 119.345 66.3423 119.282 66.2972C119.301 66.2187 119.275 66.1178 119.179 66.0985C119.121 65.9762 118.971 65.9464 118.887 66.0369Z" fill="#212121"/>
<path d="M118.546 65.8459C118.485 65.7323 118.375 65.7449 118.305 65.7664C118.373 65.7664 118.446 65.8017 118.439 65.9175C118.439 65.9175 118.568 65.961 118.525 66.1251C118.621 66.1485 118.649 66.2556 118.598 66.3545C118.525 66.5297 118.802 66.6141 118.824 66.382C118.985 66.3545 118.911 66.1626 118.802 66.1682C118.84 66.0524 118.742 65.9928 118.675 66.0011C118.698 65.9068 118.618 65.8459 118.546 65.8459Z" fill="#212121"/>
<path d="M119.18 66.7047C119.241 66.6973 119.358 66.7304 119.305 66.885C119.373 66.8892 119.467 66.9567 119.398 67.0708C119.467 67.0634 119.566 67.1738 119.465 67.2658C119.564 67.2842 119.614 67.4074 119.544 67.4884C119.667 67.6024 119.389 67.7275 119.389 67.5215C119.283 67.5215 119.243 67.4107 119.305 67.3136C119.203 67.3265 119.134 67.1885 119.203 67.1278C119.115 67.1186 119.075 67.0634 119.104 66.9512C119.034 66.9751 118.944 66.8095 119.034 66.7654C118.846 66.5821 119.18 66.4552 119.18 66.7047Z" fill="#212121"/>
<path d="M119.759 67.9583C119.774 67.9887 119.77 67.9998 119.761 68.0227L119.759 68.0292C119.787 68.0173 119.844 68.0203 119.872 68.0516C119.899 68.0829 119.907 68.1515 119.854 68.192C119.809 68.2269 119.765 68.2543 119.745 68.2665C119.601 68.3208 119.533 68.2009 119.576 68.138C119.41 68.1677 119.373 68.0244 119.417 67.958C119.317 67.9331 119.289 67.8183 119.352 67.7449C119.45 67.6321 119.698 67.6843 119.63 67.9116C119.695 67.8953 119.74 67.9301 119.759 67.9583Z" fill="#212121"/>
<path d="M118.875 68.1042C118.873 68.1053 118.871 68.1063 118.869 68.1074C118.846 68.1248 118.829 68.1428 118.817 68.1608C118.767 68.2519 118.852 68.3764 118.984 68.3994C119.015 68.4033 119.047 68.4005 119.076 68.3892C119.163 68.3546 119.159 68.2495 119.094 68.2049C119.208 68.1572 119.162 68.031 119.067 67.9944C119.131 68.0045 119.183 67.9334 119.162 67.8121C119.162 67.8121 118.952 67.879 118.918 67.6741C118.884 67.6615 118.85 67.6714 118.824 67.6919C118.784 67.7377 118.743 67.8352 118.875 67.8936C118.828 67.912 118.745 68.0178 118.875 68.1042Z" fill="#212121"/>
<path d="M115.027 67.4174L115.029 67.418L115.028 67.4166C115.015 67.3146 115.002 67.2759 114.946 67.24C114.908 67.2158 114.795 67.218 114.803 67.3146C114.73 67.3099 114.627 67.3222 114.647 67.4801C114.598 67.4932 114.513 67.5512 114.547 67.6788C114.502 67.696 114.429 67.7619 114.484 67.8931C114.404 67.9124 114.355 68.0978 114.574 68.1877C114.587 68.1929 114.604 68.1982 114.623 68.2027C114.656 68.203 114.694 68.1919 114.707 68.1517C114.73 68.0798 114.681 68.0371 114.632 68.013C114.683 68.0287 114.747 68.0327 114.769 67.9768C114.797 67.9076 114.735 67.8604 114.694 67.8426C114.724 67.8532 114.784 67.8565 114.815 67.8073C114.847 67.7537 114.803 67.7011 114.781 67.6798C114.8 67.6906 114.847 67.7025 114.887 67.6636C114.927 67.6248 114.9 67.5596 114.882 67.5319C114.904 67.5405 114.956 67.5526 114.988 67.5319C115.02 67.5112 115.028 67.4469 115.027 67.4174Z" fill="#212121"/>
<path d="M113.773 67.6152C113.749 67.6247 113.696 67.6382 113.66 67.6217C113.613 67.6006 113.596 67.527 113.637 67.4801C113.629 67.4645 113.613 67.4185 113.615 67.3596C113.616 67.286 113.7 67.2354 113.753 67.2731C113.75 67.2492 113.752 67.1959 113.79 67.1738C113.829 67.1517 113.868 67.1591 113.882 67.1655C113.873 67.1431 113.864 67.0906 113.898 67.0597C113.932 67.0288 113.963 67.0297 113.974 67.034L113.974 67.0329C113.977 67.0343 113.98 67.0359 113.983 67.0377C114.114 67.119 114.136 67.2575 114.084 67.3614C114.058 67.4119 113.988 67.4265 113.965 67.4194C113.948 67.5018 113.925 67.5463 113.823 67.5227C113.822 67.5454 113.797 67.5889 113.773 67.6152Z" fill="#212121"/>
<path d="M119.751 68.6869C119.82 68.7125 119.898 68.6789 119.887 68.5571C119.964 68.5876 119.99 68.6939 119.948 68.7586C119.956 68.7872 119.956 68.8028 119.943 68.8166C119.963 68.8359 119.971 68.8525 119.963 68.8755C120.014 68.8971 120.012 69.0088 119.983 69.0337C120.064 69.0889 120.024 69.2158 119.956 69.2158L119.956 69.2197C119.843 69.2426 119.783 69.1403 119.838 69.0616C119.899 68.9739 119.847 68.8635 119.771 68.8635C119.828 68.8397 119.819 68.7122 119.751 68.6869Z" fill="#212121"/>
<path d="M113.676 68.0754C113.735 68.1139 113.842 68.1071 113.891 67.9502C113.99 68.042 114.156 68.0024 114.184 67.8572C114.309 67.937 114.429 67.8436 114.416 67.7001C114.4 67.5303 114.225 67.557 114.212 67.6623C114.124 67.5964 114.018 67.6507 114.036 67.7577C113.971 67.705 113.914 67.7281 113.886 67.7677L113.888 67.768C113.882 67.776 113.87 67.795 113.87 67.8076C113.812 67.8009 113.777 67.8336 113.766 67.8508C113.67 67.8187 113.6 67.9041 113.635 67.997L113.635 67.9981C113.644 68.0211 113.653 68.0451 113.676 68.0754Z" fill="#212121"/>
<path d="M119.756 68.2937L119.761 68.2907C119.857 68.3054 119.866 68.3938 119.825 68.4544C119.823 68.4556 119.822 68.4568 119.82 68.4579C119.773 68.531 119.695 68.537 119.639 68.4822C119.595 68.5431 119.461 68.5078 119.461 68.4274C119.358 68.5392 119.224 68.425 119.285 68.3189C119.176 68.3082 119.165 68.1957 119.237 68.1397C119.167 68.1089 119.188 67.9865 119.267 67.9522C119.248 68.0133 119.285 68.0852 119.358 68.0986C119.32 68.1473 119.366 68.2937 119.506 68.2236C119.483 68.3199 119.647 68.4182 119.756 68.2937Z" fill="#212121"/>
<path d="M114.217 68.5612C114.08 68.5278 114.121 68.3758 114.197 68.3576C114.117 68.2771 114.145 68.2039 114.197 68.1639C114.118 68.1148 114.158 68.0084 114.197 67.9836C114.254 68.0062 114.315 68.0007 114.371 67.9501C114.318 68.0311 114.306 68.1337 114.423 68.1639C114.322 68.2255 114.326 68.2933 114.406 68.3648C114.487 68.4378 114.409 68.6081 114.217 68.5612Z" fill="#212121"/>
<path d="M114.632 66.8769C114.566 66.9199 114.565 67.0508 114.632 67.0791C114.539 67.1467 114.576 67.2407 114.61 67.3066C114.63 67.2533 114.68 67.2178 114.751 67.2407C114.739 67.172 114.804 67.1291 114.866 67.141C114.816 67.1098 114.794 67.0212 114.826 66.9485C114.763 66.9216 114.727 66.8545 114.785 66.7708C114.713 66.7547 114.678 66.721 114.678 66.6173C114.6 66.7156 114.572 66.7775 114.632 66.8769Z" fill="#212121"/>
</g>
<rect x="121.317" y="63.4961" width="33.9085" height="3.01408" rx="1.50704" fill="white" fill-opacity="0.6"/>
<rect x="121.317" y="68.771" width="22.6056" height="3.01408" rx="1.50704" fill="white" fill-opacity="0.6"/>
<rect x="111.521" y="32.6061" width="45.2113" height="18.0845" rx="2" fill="#F34040"/>
<path d="M116.795 37.8805C114.723 37.8805 113.028 39.5759 113.028 41.6481C113.028 43.7203 114.723 45.4157 116.795 45.4157C118.868 45.4157 120.563 43.7203 120.563 41.6481C120.563 39.5759 118.868 37.8805 116.795 37.8805ZM116.795 44.6622C115.134 44.6622 113.781 43.3096 113.781 41.6481C113.781 39.9866 115.134 38.634 116.795 38.634C118.457 38.634 119.81 39.9866 119.81 41.6481C119.81 43.3096 118.457 44.6622 116.795 44.6622ZM118.525 39.9828L116.042 42.4657L115.066 41.4936L114.535 42.0249L116.042 43.5319L119.056 40.5178L118.525 39.9828Z" fill="white"/>
<rect x="121.317" y="36.3735" width="33.9085" height="3.01408" rx="1.50704" fill="white" fill-opacity="0.6"/>
<rect x="121.317" y="41.6484" width="22.6056" height="3.01408" rx="1.50704" fill="white" fill-opacity="0.6"/>
<rect x="49.894" y="34" width="45.2113" height="8.28873" rx="2" fill="#FF8A33"/>
<path d="M59.936 38.4795H58.8491V37.7939H59.936C60.104 37.7939 60.2407 37.7666 60.3462 37.7119C60.4517 37.6553 60.5288 37.5771 60.5776 37.4775C60.6265 37.3779 60.6509 37.2656 60.6509 37.1406C60.6509 37.0137 60.6265 36.8955 60.5776 36.7861C60.5288 36.6768 60.4517 36.5889 60.3462 36.5225C60.2407 36.4561 60.104 36.4229 59.936 36.4229H59.1538V40H58.2749V35.7344H59.936C60.27 35.7344 60.5562 35.7949 60.7944 35.916C61.0347 36.0352 61.2183 36.2002 61.3452 36.4111C61.4722 36.6221 61.5356 36.8633 61.5356 37.1348C61.5356 37.4102 61.4722 37.6484 61.3452 37.8496C61.2183 38.0508 61.0347 38.2061 60.7944 38.3154C60.5562 38.4248 60.27 38.4795 59.936 38.4795ZM62.8671 37.5215V40H62.0234V36.8301H62.8173L62.8671 37.5215ZM63.8222 36.8096L63.8075 37.5918C63.7665 37.5859 63.7167 37.5811 63.6581 37.5771C63.6015 37.5713 63.5497 37.5684 63.5028 37.5684C63.3837 37.5684 63.2802 37.584 63.1923 37.6152C63.1064 37.6445 63.0341 37.6885 62.9755 37.7471C62.9189 37.8057 62.8759 37.877 62.8466 37.9609C62.8193 38.0449 62.8036 38.1406 62.7997 38.248L62.6298 38.1953C62.6298 37.9902 62.6503 37.8018 62.6913 37.6299C62.7323 37.4561 62.7919 37.3047 62.87 37.1758C62.9501 37.0469 63.0478 36.9473 63.163 36.877C63.2782 36.8066 63.4101 36.7715 63.5585 36.7715C63.6054 36.7715 63.6532 36.7754 63.7021 36.7832C63.7509 36.7891 63.7909 36.7979 63.8222 36.8096ZM63.932 38.4473V38.3857C63.932 38.1533 63.9652 37.9395 64.0316 37.7441C64.098 37.5469 64.1947 37.376 64.3216 37.2314C64.4486 37.0869 64.6048 36.9746 64.7904 36.8945C64.9759 36.8125 65.1888 36.7715 65.429 36.7715C65.6693 36.7715 65.8831 36.8125 66.0706 36.8945C66.2581 36.9746 66.4154 37.0869 66.5423 37.2314C66.6712 37.376 66.7689 37.5469 66.8353 37.7441C66.9017 37.9395 66.9349 38.1533 66.9349 38.3857V38.4473C66.9349 38.6777 66.9017 38.8916 66.8353 39.0889C66.7689 39.2842 66.6712 39.4551 66.5423 39.6016C66.4154 39.7461 66.2591 39.8584 66.0736 39.9385C65.888 40.0186 65.6751 40.0586 65.4349 40.0586C65.1947 40.0586 64.9808 40.0186 64.7933 39.9385C64.6077 39.8584 64.4505 39.7461 64.3216 39.6016C64.1947 39.4551 64.098 39.2842 64.0316 39.0889C63.9652 38.8916 63.932 38.6777 63.932 38.4473ZM64.7757 38.3857V38.4473C64.7757 38.5801 64.7874 38.7041 64.8109 38.8193C64.8343 38.9346 64.8714 39.0361 64.9222 39.124C64.9749 39.21 65.0433 39.2773 65.1273 39.3262C65.2113 39.375 65.3138 39.3994 65.4349 39.3994C65.5521 39.3994 65.6527 39.375 65.7367 39.3262C65.8206 39.2773 65.888 39.21 65.9388 39.124C65.9896 39.0361 66.0267 38.9346 66.0501 38.8193C66.0755 38.7041 66.0882 38.5801 66.0882 38.4473V38.3857C66.0882 38.2568 66.0755 38.1357 66.0501 38.0225C66.0267 37.9072 65.9886 37.8057 65.9359 37.7178C65.8851 37.6279 65.8177 37.5576 65.7337 37.5068C65.6497 37.4561 65.5482 37.4307 65.429 37.4307C65.3099 37.4307 65.2083 37.4561 65.1243 37.5068C65.0423 37.5576 64.9749 37.6279 64.9222 37.7178C64.8714 37.8057 64.8343 37.9072 64.8109 38.0225C64.7874 38.1357 64.7757 38.2568 64.7757 38.3857ZM67.4343 36.8301H68.281V40.1904C68.281 40.4248 68.238 40.623 68.1521 40.7852C68.0662 40.9473 67.9421 41.0703 67.78 41.1543C67.6179 41.2383 67.4216 41.2803 67.1912 41.2803C67.1189 41.2803 67.0486 41.2764 66.9802 41.2686C66.9099 41.2607 66.8376 41.248 66.7634 41.2305L66.7664 40.583C66.8132 40.5908 66.8591 40.5967 66.9041 40.6006C66.947 40.6064 66.991 40.6094 67.0359 40.6094C67.1238 40.6094 67.197 40.5947 67.2556 40.5654C67.3142 40.5361 67.3582 40.4902 67.3874 40.4277C67.4187 40.3672 67.4343 40.2881 67.4343 40.1904V36.8301ZM67.3669 36.0039C67.3669 35.8809 67.4099 35.7793 67.4958 35.6992C67.5837 35.6191 67.699 35.5791 67.8416 35.5791C67.9861 35.5791 68.1013 35.6191 68.1873 35.6992C68.2732 35.7793 68.3162 35.8809 68.3162 36.0039C68.3162 36.127 68.2732 36.2285 68.1873 36.3086C68.1013 36.3887 67.9861 36.4287 67.8416 36.4287C67.699 36.4287 67.5837 36.3887 67.4958 36.3086C67.4099 36.2285 67.3669 36.127 67.3669 36.0039ZM70.3449 40.0586C70.0988 40.0586 69.8781 40.0195 69.6828 39.9414C69.4875 39.8613 69.3214 39.751 69.1847 39.6104C69.05 39.4697 68.9464 39.3066 68.8742 39.1211C68.8019 38.9336 68.7658 38.7344 68.7658 38.5234V38.4062C68.7658 38.166 68.8 37.9463 68.8683 37.7471C68.9367 37.5479 69.0343 37.375 69.1613 37.2285C69.2902 37.082 69.4464 36.9697 69.63 36.8916C69.8136 36.8115 70.0207 36.7715 70.2511 36.7715C70.4757 36.7715 70.675 36.8086 70.8488 36.8828C71.0226 36.957 71.1681 37.0625 71.2853 37.1992C71.4045 37.3359 71.4943 37.5 71.5548 37.6914C71.6154 37.8809 71.6457 38.0918 71.6457 38.3242V38.6758H69.1261V38.1133H70.8166V38.0488C70.8166 37.9316 70.7951 37.8271 70.7521 37.7354C70.7111 37.6416 70.6486 37.5674 70.5646 37.5127C70.4806 37.458 70.3732 37.4307 70.2423 37.4307C70.131 37.4307 70.0353 37.4551 69.9552 37.5039C69.8752 37.5527 69.8097 37.6211 69.7589 37.709C69.7101 37.7969 69.673 37.9004 69.6476 38.0195C69.6242 38.1367 69.6125 38.2656 69.6125 38.4062V38.5234C69.6125 38.6504 69.63 38.7676 69.6652 38.875C69.7023 38.9824 69.7541 39.0752 69.8205 39.1533C69.8888 39.2314 69.9709 39.292 70.0666 39.335C70.1642 39.3779 70.2746 39.3994 70.3976 39.3994C70.55 39.3994 70.6916 39.3701 70.8224 39.3115C70.9552 39.251 71.0695 39.1602 71.1652 39.0391L71.5754 39.4844C71.5089 39.5801 71.4181 39.6719 71.3029 39.7598C71.1896 39.8477 71.0529 39.9199 70.8927 39.9766C70.7326 40.0312 70.55 40.0586 70.3449 40.0586ZM73.3697 39.3994C73.4732 39.3994 73.565 39.3799 73.6451 39.3408C73.7252 39.2998 73.7877 39.2432 73.8326 39.1709C73.8795 39.0967 73.9039 39.0098 73.9058 38.9102H74.6998C74.6978 39.1328 74.6383 39.3311 74.5211 39.5049C74.4039 39.6768 74.2467 39.8125 74.0494 39.9121C73.8521 40.0098 73.6314 40.0586 73.3873 40.0586C73.1412 40.0586 72.9263 40.0176 72.7428 39.9355C72.5611 39.8535 72.4097 39.7402 72.2887 39.5957C72.1676 39.4492 72.0767 39.2793 72.0162 39.0859C71.9556 38.8906 71.9254 38.6816 71.9254 38.459V38.374C71.9254 38.1494 71.9556 37.9404 72.0162 37.7471C72.0767 37.5518 72.1676 37.3818 72.2887 37.2373C72.4097 37.0908 72.5611 36.9766 72.7428 36.8945C72.9244 36.8125 73.1373 36.7715 73.3814 36.7715C73.6412 36.7715 73.8687 36.8213 74.064 36.9209C74.2613 37.0205 74.4156 37.1631 74.5269 37.3486C74.6402 37.5322 74.6978 37.75 74.6998 38.002H73.9058C73.9039 37.8965 73.8814 37.8008 73.8385 37.7148C73.7974 37.6289 73.7369 37.5605 73.6568 37.5098C73.5787 37.457 73.482 37.4307 73.3668 37.4307C73.2437 37.4307 73.1431 37.457 73.065 37.5098C72.9869 37.5605 72.9263 37.6309 72.8834 37.7207C72.8404 37.8086 72.8101 37.9092 72.7926 38.0225C72.7769 38.1338 72.7691 38.251 72.7691 38.374V38.459C72.7691 38.582 72.7769 38.7002 72.7926 38.8135C72.8082 38.9268 72.8375 39.0273 72.8804 39.1152C72.9254 39.2031 72.9869 39.2725 73.065 39.3232C73.1431 39.374 73.2447 39.3994 73.3697 39.3994ZM76.6758 36.8301V37.4277H74.8301V36.8301H76.6758ZM75.2871 36.0479H76.1309V39.0449C76.1309 39.1367 76.1426 39.207 76.166 39.2559C76.1914 39.3047 76.2285 39.3389 76.2773 39.3584C76.3262 39.376 76.3877 39.3848 76.4619 39.3848C76.5146 39.3848 76.5615 39.3828 76.6025 39.3789C76.6455 39.373 76.6816 39.3672 76.7109 39.3613L76.7139 39.9824C76.6416 40.0059 76.5635 40.0244 76.4795 40.0381C76.3955 40.0518 76.3027 40.0586 76.2012 40.0586C76.0156 40.0586 75.8535 40.0283 75.7148 39.9678C75.5781 39.9053 75.4727 39.8057 75.3984 39.6689C75.3242 39.5322 75.2871 39.3525 75.2871 39.1299V36.0479ZM80.3905 39.3086V35.5H81.2401V40H80.4754L80.3905 39.3086ZM78.3866 38.4531V38.3916C78.3866 38.1494 78.4139 37.9297 78.4686 37.7324C78.5233 37.5332 78.6033 37.3623 78.7088 37.2197C78.8143 37.0771 78.9442 36.9668 79.0985 36.8887C79.2528 36.8105 79.4285 36.7715 79.6258 36.7715C79.8114 36.7715 79.9735 36.8105 80.1121 36.8887C80.2528 36.9668 80.3719 37.0781 80.4696 37.2227C80.5692 37.3652 80.6492 37.5342 80.7098 37.7295C80.7703 37.9229 80.8143 38.1348 80.8416 38.3652V38.5C80.8143 38.7207 80.7703 38.9258 80.7098 39.1152C80.6492 39.3047 80.5692 39.4707 80.4696 39.6133C80.3719 39.7539 80.2528 39.8633 80.1121 39.9414C79.9715 40.0195 79.8074 40.0586 79.6199 40.0586C79.4227 40.0586 79.2469 40.0186 79.0926 39.9385C78.9403 39.8584 78.8114 39.7461 78.7059 39.6016C78.6024 39.457 78.5233 39.2871 78.4686 39.0918C78.4139 38.8965 78.3866 38.6836 78.3866 38.4531ZM79.2303 38.3916V38.4531C79.2303 38.584 79.2401 38.7061 79.2596 38.8193C79.2811 38.9326 79.3153 39.0332 79.3621 39.1211C79.411 39.207 79.4735 39.2744 79.5496 39.3232C79.6278 39.3701 79.7225 39.3936 79.8338 39.3936C79.9783 39.3936 80.0975 39.3613 80.1912 39.2969C80.285 39.2305 80.3563 39.1396 80.4051 39.0244C80.4559 38.9092 80.4852 38.7764 80.493 38.626V38.2422C80.4871 38.1191 80.4696 38.0088 80.4403 37.9111C80.4129 37.8115 80.3719 37.7266 80.3172 37.6562C80.2645 37.5859 80.1981 37.5312 80.118 37.4922C80.0399 37.4531 79.9471 37.4336 79.8397 37.4336C79.7303 37.4336 79.6366 37.459 79.5584 37.5098C79.4803 37.5586 79.4168 37.626 79.368 37.7119C79.3211 37.7979 79.286 37.8994 79.2625 38.0166C79.241 38.1318 79.2303 38.2568 79.2303 38.3916ZM82.7239 36.8301V40H81.8772V36.8301H82.7239ZM81.8245 36.0039C81.8245 35.8809 81.8674 35.7793 81.9534 35.6992C82.0393 35.6191 82.1545 35.5791 82.2991 35.5791C82.4416 35.5791 82.5559 35.6191 82.6418 35.6992C82.7297 35.7793 82.7737 35.8809 82.7737 36.0039C82.7737 36.127 82.7297 36.2285 82.6418 36.3086C82.5559 36.3887 82.4416 36.4287 82.2991 36.4287C82.1545 36.4287 82.0393 36.3887 81.9534 36.3086C81.8674 36.2285 81.8245 36.127 81.8245 36.0039ZM85.069 39.124C85.069 39.0635 85.0514 39.0088 85.0163 38.96C84.9811 38.9111 84.9157 38.8662 84.82 38.8252C84.7262 38.7822 84.5905 38.7432 84.4128 38.708C84.2526 38.6729 84.1032 38.6289 83.9645 38.5762C83.8278 38.5215 83.7087 38.4561 83.6071 38.3799C83.5075 38.3037 83.4294 38.2139 83.3727 38.1104C83.3161 38.0049 83.2878 37.8848 83.2878 37.75C83.2878 37.6172 83.3161 37.4922 83.3727 37.375C83.4313 37.2578 83.5143 37.1543 83.6217 37.0645C83.7311 36.9727 83.8639 36.9014 84.0202 36.8506C84.1784 36.7979 84.3561 36.7715 84.5534 36.7715C84.8288 36.7715 85.0651 36.8154 85.2624 36.9033C85.4616 36.9912 85.6139 37.1123 85.7194 37.2666C85.8268 37.4189 85.8805 37.5928 85.8805 37.7881H85.0368C85.0368 37.7061 85.0192 37.6328 84.984 37.5684C84.9508 37.502 84.8981 37.4502 84.8258 37.4131C84.7555 37.374 84.6637 37.3545 84.5504 37.3545C84.4567 37.3545 84.3756 37.3711 84.3073 37.4043C84.2389 37.4355 84.1862 37.4785 84.1491 37.5332C84.1139 37.5859 84.0963 37.6445 84.0963 37.709C84.0963 37.7578 84.1061 37.8018 84.1256 37.8408C84.1471 37.8779 84.1813 37.9121 84.2282 37.9434C84.2751 37.9746 84.3356 38.0039 84.4098 38.0312C84.486 38.0566 84.5797 38.0801 84.6911 38.1016C84.9196 38.1484 85.1237 38.21 85.3034 38.2861C85.4831 38.3604 85.6256 38.4619 85.7311 38.5908C85.8366 38.7178 85.8893 38.8848 85.8893 39.0918C85.8893 39.2324 85.8581 39.3613 85.7956 39.4785C85.7331 39.5957 85.6432 39.6982 85.526 39.7861C85.4088 39.8721 85.2682 39.9395 85.1042 39.9883C84.9421 40.0352 84.7594 40.0586 84.5563 40.0586C84.2614 40.0586 84.0114 40.0059 83.8063 39.9004C83.6032 39.7949 83.4489 39.6611 83.3434 39.499C83.2399 39.335 83.1881 39.167 83.1881 38.9951H83.9879C83.9919 39.1104 84.0212 39.2031 84.0758 39.2734C84.1325 39.3438 84.2038 39.3945 84.2897 39.4258C84.3776 39.457 84.4723 39.4727 84.5739 39.4727C84.6833 39.4727 84.7741 39.458 84.8463 39.4287C84.9186 39.3975 84.9733 39.3564 85.0104 39.3057C85.0495 39.2529 85.069 39.1924 85.069 39.124ZM86.4122 39.5928C86.4122 39.4678 86.4552 39.3633 86.5411 39.2793C86.629 39.1953 86.7452 39.1533 86.8897 39.1533C87.0343 39.1533 87.1495 39.1953 87.2354 39.2793C87.3233 39.3633 87.3673 39.4678 87.3673 39.5928C87.3673 39.7178 87.3233 39.8223 87.2354 39.9062C87.1495 39.9902 87.0343 40.0322 86.8897 40.0322C86.7452 40.0322 86.629 39.9902 86.5411 39.9062C86.4552 39.8223 86.4122 39.7178 86.4122 39.5928ZM88.0864 39.5928C88.0864 39.4678 88.1294 39.3633 88.2153 39.2793C88.3032 39.1953 88.4194 39.1533 88.564 39.1533C88.7085 39.1533 88.8237 39.1953 88.9097 39.2793C88.9976 39.3633 89.0415 39.4678 89.0415 39.5928C89.0415 39.7178 88.9976 39.8223 88.9097 39.9062C88.8237 39.9902 88.7085 40.0322 88.564 40.0322C88.4194 40.0322 88.3032 39.9902 88.2153 39.9062C88.1294 39.8223 88.0864 39.7178 88.0864 39.5928Z" fill="white"/>
<g clip-path="url(#clip1_696_8060)">
<path d="M55.652 36.5583L55.5201 36.4927C55.4212 36.4435 55.3387 36.3943 55.2728 36.3124L55.0255 36.0665C54.8276 35.8861 54.5473 35.8205 54.3 35.9025C54.1351 35.9517 53.9537 35.9517 53.7889 35.9025C53.558 35.7877 53.2942 35.8369 53.1128 36.0009L52.8161 36.3124C52.7336 36.3779 52.6512 36.4435 52.5687 36.4927L52.4368 36.5583C52.206 36.673 52.0741 36.9353 52.1071 37.1977L52.2884 38.1321C52.3049 38.2305 52.3874 38.2961 52.4863 38.2961C53.4619 38.2961 54.5333 38.3125 55.6025 38.3125C55.7015 38.3125 55.7674 38.2469 55.7839 38.1485L55.9653 37.214C56.0147 36.9353 55.8828 36.673 55.652 36.5583Z" fill="#212121"/>
<path d="M55.6245 37.9904C55.6123 38.1428 55.6022 38.3125 55.6022 38.3125C55.7012 38.3125 55.7671 38.2469 55.7836 38.1485L55.7998 38.0651C55.9306 38.154 56.0165 38.3041 56.0165 38.4742C56.0165 38.7473 55.7951 38.9687 55.522 38.9687C55.2489 38.9687 55.0275 38.7473 55.0275 38.4742C55.0275 38.2011 55.2489 37.9797 55.522 37.9797C55.5572 37.9797 55.5915 37.9834 55.6245 37.9904Z" fill="#F4C6AD"/>
<path d="M52.2754 38.0664L52.2881 38.1321C52.3046 38.2305 52.3871 38.2961 52.486 38.2961C52.486 38.2961 52.4763 38.1415 52.4643 37.988C52.4937 37.9826 52.524 37.9797 52.555 37.9797C52.8281 37.9797 53.0495 38.2011 53.0495 38.4742C53.0495 38.7473 52.8281 38.9687 52.555 38.9687C52.2819 38.9687 52.0605 38.7473 52.0605 38.4742C52.0605 38.3049 52.1456 38.1555 52.2754 38.0664Z" fill="#F4C6AD"/>
<path d="M52.471 38.2955C52.476 38.2959 52.481 38.2961 52.4861 38.2961C52.4861 38.2961 52.4696 38.0338 52.4531 37.8534C52.4531 37.7714 52.4861 37.6731 52.5521 37.6239L52.6015 37.5747C52.684 37.5091 52.7169 37.4108 52.7169 37.3124V37.0501C52.7169 36.9681 52.7664 36.9026 52.8488 36.8862C53.0467 36.837 53.4589 36.755 54.0525 36.755C54.646 36.755 55.0582 36.837 55.2561 36.8862C55.3221 36.9026 55.388 36.9681 55.388 37.0501V37.3124C55.388 37.4108 55.4375 37.5091 55.5034 37.5747L55.5364 37.6403C55.6024 37.7059 55.6353 37.7878 55.6353 37.8698C55.6188 38.0338 55.6024 38.3125 55.6024 38.3125C55.6042 38.3125 55.6061 38.3124 55.6079 38.3124L55.5262 39.5292C55.4769 40.0731 55.0492 40.4522 54.5394 40.4522H53.5525C53.0262 40.4522 52.615 40.0731 52.5657 39.5292L52.471 38.2955Z" fill="#FFD7C2"/>
<path d="M53.921 38.3961L53.7576 38.9186C53.7243 39.026 53.8043 39.1335 53.9176 39.1335H54.1593C54.2726 39.1335 54.3526 39.0244 54.3193 38.9186L54.156 38.3961C54.121 38.2804 53.9576 38.2804 53.921 38.3961Z" fill="#E5AF93"/>
<path d="M54.0389 39.446C53.883 39.446 53.7364 39.4093 53.6132 39.3451C53.5711 39.3236 53.5258 39.371 53.5523 39.4093C53.6553 39.5653 53.8346 39.6693 54.0389 39.6693C54.2432 39.6693 54.4226 39.5653 54.5255 39.4093C54.552 39.3695 54.5068 39.3236 54.4647 39.3451C54.3415 39.4093 54.1965 39.446 54.0389 39.446Z" fill="#990838"/>
<path d="M52.8872 38.3699C52.9344 38.1842 53.1037 38.0457 53.3038 38.0457C53.5121 38.0457 53.6863 38.1939 53.7253 38.3911C53.7335 38.4351 53.6993 38.4742 53.6553 38.4742H52.9702C52.9149 38.4742 52.8742 38.4237 52.8872 38.3699Z" fill="white"/>
<path d="M55.19 38.3699C55.1428 38.1842 54.9735 38.0457 54.7734 38.0457C54.5634 38.0457 54.3909 38.1939 54.3519 38.3911C54.3437 38.4351 54.3779 38.4742 54.4218 38.4742H55.107C55.1623 38.4742 55.203 38.4237 55.19 38.3699Z" fill="white"/>
<path d="M53.0923 38.4012C53.0923 38.2486 53.216 38.1268 53.3673 38.1268C53.5187 38.1268 53.6407 38.2486 53.6407 38.4012C53.6407 38.4272 53.6375 38.4515 53.631 38.4742H53.102C53.0955 38.4499 53.0923 38.4272 53.0923 38.4012Z" fill="#7D4533"/>
<path d="M54.985 38.4012C54.985 38.2486 54.8613 38.1268 54.7099 38.1268C54.5586 38.1268 54.4349 38.2486 54.4365 38.4012C54.4365 38.4272 54.4398 38.4515 54.4463 38.4742H54.9752C54.9817 38.4499 54.985 38.4272 54.985 38.4012Z" fill="#7D4533"/>
<path d="M53.3672 38.2452C53.4534 38.2452 53.5234 38.315 53.5234 38.4011C53.5234 38.4271 53.5169 38.4514 53.5055 38.4741H53.2288C53.2174 38.4514 53.2109 38.4271 53.2109 38.4011C53.2109 38.315 53.2809 38.2452 53.3672 38.2452Z" fill="black"/>
<path d="M54.7081 38.2452C54.6219 38.2452 54.5519 38.315 54.5519 38.4011C54.5519 38.4271 54.5584 38.4514 54.5698 38.4741H54.8465C54.8579 38.4514 54.8644 38.4271 54.8644 38.4011C54.8644 38.315 54.7944 38.2452 54.7081 38.2452Z" fill="black"/>
<path d="M53.3218 38.2962C53.3218 38.3235 53.2999 38.3456 53.2729 38.3456C53.246 38.3456 53.2241 38.3235 53.2241 38.2962C53.2241 38.2688 53.246 38.2467 53.2729 38.2467C53.2999 38.2467 53.3218 38.2688 53.3218 38.2962Z" fill="white"/>
<path d="M54.6725 38.2962C54.6725 38.3235 54.6507 38.3456 54.6237 38.3456C54.5967 38.3456 54.5749 38.3235 54.5749 38.2962C54.5749 38.2688 54.5967 38.2467 54.6237 38.2467C54.6507 38.2467 54.6725 38.2688 54.6725 38.2962Z" fill="white"/>
<path d="M52.8789 37.6479L52.8791 37.6477L52.8794 37.6475L52.8799 37.647L52.8813 37.6459L52.885 37.643C52.8879 37.6407 52.8915 37.6379 52.896 37.6346C52.905 37.628 52.9173 37.6195 52.9326 37.6099C52.9632 37.5907 53.0066 37.5669 53.0616 37.5451C53.172 37.5015 53.3295 37.4664 53.5204 37.4965C53.6099 37.5106 53.671 37.5946 53.6569 37.6841C53.6428 37.7736 53.5588 37.8347 53.4693 37.8206C53.347 37.8013 53.2491 37.8238 53.1822 37.8502C53.1486 37.8635 53.123 37.8778 53.1068 37.888C53.0987 37.893 53.093 37.897 53.0899 37.8993C53.0887 37.9002 53.0879 37.9008 53.0875 37.9011C53.0179 37.9578 52.9155 37.9481 52.8579 37.8789C52.7998 37.8093 52.8093 37.7059 52.8789 37.6479Z" fill="#212121"/>
<path d="M55.1822 37.6478L55.1818 37.6475L55.1812 37.647L55.1798 37.6459L55.1761 37.643C55.1733 37.6407 55.1696 37.6379 55.1651 37.6346C55.1561 37.628 55.1439 37.6195 55.1285 37.6099C55.0979 37.5907 55.0545 37.5669 54.9995 37.5451C54.8892 37.5015 54.7316 37.4664 54.5407 37.4965C54.4512 37.5106 54.3901 37.5946 54.4042 37.6841C54.4184 37.7736 54.5024 37.8347 54.5919 37.8206C54.7141 37.8013 54.8121 37.8238 54.8789 37.8502C54.9125 37.8635 54.9381 37.8778 54.9544 37.888C54.9625 37.893 54.9681 37.897 54.9712 37.8993C54.9725 37.9002 54.9733 37.9008 54.9736 37.9011C55.0432 37.9578 55.1457 37.9481 55.2033 37.8789C55.2613 37.8093 55.2518 37.7058 55.1822 37.6478Z" fill="#212121"/>
</g>
<rect x="49.7319" y="58.2219" width="45.2113" height="18.0845" rx="2" fill="#00ADFF"/>
<rect x="59.5278" y="61.9895" width="33.9085" height="3.01408" rx="1.50704" fill="white" fill-opacity="0.6"/>
<rect x="59.5278" y="67.2644" width="22.6056" height="3.01408" rx="1.50704" fill="white" fill-opacity="0.6"/>
<path d="M55.0069 69.5247C54.2075 69.5247 53.4408 69.2072 52.8756 68.6419C52.3103 68.0767 51.9928 67.31 51.9928 66.5106C51.9928 65.7113 52.3103 64.9446 52.8756 64.3794C53.4408 63.8141 54.2075 63.4966 55.0069 63.4966C55.8062 63.4966 56.5729 63.8141 57.1381 64.3794C57.7034 64.9446 58.0209 65.7113 58.0209 66.5106C58.0209 67.31 57.7034 68.0767 57.1381 68.6419C56.5729 69.2072 55.8062 69.5247 55.0069 69.5247M55.0069 62.743C54.5121 62.743 54.0222 62.8405 53.5651 63.0298C53.108 63.2192 52.6926 63.4967 52.3428 63.8465C51.6362 64.5531 51.2393 65.5114 51.2393 66.5106C51.2393 67.5099 51.6362 68.4682 52.3428 69.1747C52.6926 69.5246 53.108 69.8021 53.5651 69.9915C54.0222 70.1808 54.5121 70.2783 55.0069 70.2783C56.0061 70.2783 56.9644 69.8813 57.671 69.1747C58.3775 68.4682 58.7745 67.5099 58.7745 66.5106C58.7745 66.0159 58.677 65.526 58.4877 65.0688C58.2983 64.6117 58.0208 64.1964 57.671 63.8465C57.3211 63.4967 56.9058 63.2192 56.4487 63.0298C55.9916 62.8405 55.5016 62.743 55.0069 62.743V62.743Z" fill="white"/>
<rect x="172.894" y="60.0002" width="45.2113" height="18.0845" rx="2" fill="#00ADFF"/>
<rect x="182.689" y="63.7678" width="33.9085" height="3.01408" rx="1.50704" fill="white" fill-opacity="0.6"/>
<rect x="182.689" y="69.0427" width="22.6056" height="3.01408" rx="1.50704" fill="white" fill-opacity="0.6"/>
<path d="M178.168 71.3031C177.369 71.3031 176.602 70.9855 176.037 70.4202C175.471 69.855 175.154 69.0884 175.154 68.289C175.154 67.4896 175.471 66.7229 176.037 66.1577C176.602 65.5924 177.369 65.2749 178.168 65.2749C178.967 65.2749 179.734 65.5924 180.299 66.1577C180.865 66.7229 181.182 67.4896 181.182 68.289C181.182 69.0884 180.865 69.855 180.299 70.4202C179.734 70.9855 178.967 71.3031 178.168 71.3031M178.168 64.5214C177.673 64.5214 177.183 64.6188 176.726 64.8082C176.269 64.9975 175.854 65.275 175.504 65.6249C174.797 66.3314 174.4 67.2897 174.4 68.289C174.4 69.2882 174.797 70.2465 175.504 70.9531C175.854 71.3029 176.269 71.5804 176.726 71.7698C177.183 71.9591 177.673 72.0566 178.168 72.0566C179.167 72.0566 180.126 71.6596 180.832 70.9531C181.539 70.2465 181.936 69.2882 181.936 68.289C181.936 67.7942 181.838 67.3043 181.649 66.8472C181.459 66.3901 181.182 65.9747 180.832 65.6249C180.482 65.275 180.067 64.9975 179.61 64.8082C179.153 64.6188 178.663 64.5214 178.168 64.5214V64.5214Z" fill="white"/>
<g filter="url(#filter2_d_696_8060)">
<rect x="237" y="6.00024" width="45.2113" height="18.0845" rx="2" fill="#00ADFF"/>
<rect x="246.796" y="9.76782" width="33.9085" height="3.01408" rx="1.50704" fill="white" fill-opacity="0.6"/>
<rect x="246.796" y="15.0427" width="22.6056" height="3.01408" rx="1.50704" fill="white" fill-opacity="0.6"/>
<path d="M242.274 17.3031C241.475 17.3031 240.708 16.9855 240.143 16.4202C239.578 15.855 239.26 15.0884 239.26 14.289C239.26 13.4896 239.578 12.7229 240.143 12.1577C240.708 11.5924 241.475 11.2749 242.274 11.2749C243.074 11.2749 243.84 11.5924 244.406 12.1577C244.971 12.7229 245.289 13.4896 245.289 14.289C245.289 15.0884 244.971 15.855 244.406 16.4202C243.84 16.9855 243.074 17.3031 242.274 17.3031M242.274 10.5214C241.78 10.5214 241.29 10.6188 240.833 10.8082C240.376 10.9975 239.96 11.275 239.61 11.6249C238.904 12.3314 238.507 13.2897 238.507 14.289C238.507 15.2882 238.904 16.2465 239.61 16.9531C239.96 17.3029 240.376 17.5804 240.833 17.7698C241.29 17.9591 241.78 18.0566 242.274 18.0566C243.274 18.0566 244.232 17.6596 244.939 16.9531C245.645 16.2465 246.042 15.2882 246.042 14.289C246.042 13.7942 245.945 13.3043 245.755 12.8472C245.566 12.3901 245.288 11.9747 244.939 11.6249C244.589 11.275 244.173 10.9975 243.716 10.8082C243.259 10.6188 242.769 10.5214 242.274 10.5214V10.5214Z" fill="white"/>
</g>
<g filter="url(#filter3_d_696_8060)">
<rect x="287" y="6.00024" width="45.2113" height="18.0845" rx="2" fill="#00ADFF"/>
<rect x="296.796" y="9.76782" width="33.9085" height="3.01408" rx="1.50704" fill="white" fill-opacity="0.6"/>
<rect x="296.796" y="15.0427" width="22.6056" height="3.01408" rx="1.50704" fill="white" fill-opacity="0.6"/>
<path d="M292.274 17.3031C291.475 17.3031 290.708 16.9855 290.143 16.4202C289.578 15.855 289.26 15.0884 289.26 14.289C289.26 13.4896 289.578 12.7229 290.143 12.1577C290.708 11.5924 291.475 11.2749 292.274 11.2749C293.074 11.2749 293.84 11.5924 294.406 12.1577C294.971 12.7229 295.289 13.4896 295.289 14.289C295.289 15.0884 294.971 15.855 294.406 16.4202C293.84 16.9855 293.074 17.3031 292.274 17.3031M292.274 10.5214C291.78 10.5214 291.29 10.6188 290.833 10.8082C290.376 10.9975 289.96 11.275 289.61 11.6249C288.904 12.3314 288.507 13.2897 288.507 14.289C288.507 15.2882 288.904 16.2465 289.61 16.9531C289.96 17.3029 290.376 17.5804 290.833 17.7698C291.29 17.9591 291.78 18.0566 292.274 18.0566C293.274 18.0566 294.232 17.6596 294.939 16.9531C295.645 16.2465 296.042 15.2882 296.042 14.289C296.042 13.7942 295.945 13.3043 295.755 12.8472C295.566 12.3901 295.288 11.9747 294.939 11.6249C294.589 11.275 294.173 10.9975 293.716 10.8082C293.259 10.6188 292.769 10.5214 292.274 10.5214V10.5214Z" fill="white"/>
</g>
<g filter="url(#filter4_d_696_8060)">
<rect x="237" y="29.0002" width="45.2113" height="18.0845" rx="2" fill="#00ADFF"/>
<rect x="246.796" y="32.7678" width="33.9085" height="3.01408" rx="1.50704" fill="white" fill-opacity="0.6"/>
<rect x="246.796" y="38.0427" width="22.6056" height="3.01408" rx="1.50704" fill="white" fill-opacity="0.6"/>
<path d="M242.274 40.3031C241.475 40.3031 240.708 39.9855 240.143 39.4202C239.578 38.855 239.26 38.0884 239.26 37.289C239.26 36.4896 239.578 35.7229 240.143 35.1577C240.708 34.5924 241.475 34.2749 242.274 34.2749C243.074 34.2749 243.84 34.5924 244.406 35.1577C244.971 35.7229 245.289 36.4896 245.289 37.289C245.289 38.0884 244.971 38.855 244.406 39.4202C243.84 39.9855 243.074 40.3031 242.274 40.3031M242.274 33.5214C241.78 33.5214 241.29 33.6188 240.833 33.8082C240.376 33.9975 239.96 34.275 239.61 34.6249C238.904 35.3314 238.507 36.2897 238.507 37.289C238.507 38.2882 238.904 39.2465 239.61 39.9531C239.96 40.3029 240.376 40.5804 240.833 40.7698C241.29 40.9591 241.78 41.0566 242.274 41.0566C243.274 41.0566 244.232 40.6596 244.939 39.9531C245.645 39.2465 246.042 38.2882 246.042 37.289C246.042 36.7942 245.945 36.3043 245.755 35.8472C245.566 35.3901 245.288 34.9747 244.939 34.6249C244.589 34.275 244.173 33.9975 243.716 33.8082C243.259 33.6188 242.769 33.5214 242.274 33.5214V33.5214Z" fill="white"/>
</g>
<defs>
<filter id="filter0_d_696_8060" x="213.694" y="53.8568" width="102.061" height="55.262" filterUnits="userSpaceOnUse" color-interpolation-filters="sRGB">
<feFlood flood-opacity="0" result="BackgroundImageFix"/>
<feColorMatrix in="SourceAlpha" type="matrix" values="0 0 0 0 0 0 0 0 0 0 0 0 0 0 0 0 0 0 127 0" result="hardAlpha"/>
<feOffset dy="4"/>
<feGaussianBlur stdDeviation="2"/>
<feComposite in2="hardAlpha" operator="out"/>
<feColorMatrix type="matrix" values="0 0 0 0 0 0 0 0 0 0 0 0 0 0 0 0 0 0 0.1 0"/>
<feBlend mode="normal" in2="BackgroundImageFix" result="effect1_dropShadow_696_8060"/>
<feBlend mode="normal" in="SourceGraphic" in2="effect1_dropShadow_696_8060" result="shape"/>
</filter>
<filter id="filter1_d_696_8060" x="213.694" y="57.8971" width="36.4771" height="30.3748" filterUnits="userSpaceOnUse" color-interpolation-filters="sRGB">
<feFlood flood-opacity="0" result="BackgroundImageFix"/>
<feColorMatrix in="SourceAlpha" type="matrix" values="0 0 0 0 0 0 0 0 0 0 0 0 0 0 0 0 0 0 127 0" result="hardAlpha"/>
<feOffset dy="4"/>
<feGaussianBlur stdDeviation="2"/>
<feComposite in2="hardAlpha" operator="out"/>
<feColorMatrix type="matrix" values="0 0 0 0 0 0 0 0 0 0 0 0 0 0 0 0 0 0 0.25 0"/>
<feBlend mode="normal" in2="BackgroundImageFix" result="effect1_dropShadow_696_8060"/>
<feBlend mode="normal" in="SourceGraphic" in2="effect1_dropShadow_696_8060" result="shape"/>
</filter>
<filter id="filter2_d_696_8060" x="227" y="0.000244141" width="65.2114" height="38.0845" filterUnits="userSpaceOnUse" color-interpolation-filters="sRGB">
<feFlood flood-opacity="0" result="BackgroundImageFix"/>
<feColorMatrix in="SourceAlpha" type="matrix" values="0 0 0 0 0 0 0 0 0 0 0 0 0 0 0 0 0 0 127 0" result="hardAlpha"/>
<feOffset dy="4"/>
<feGaussianBlur stdDeviation="5"/>
<feComposite in2="hardAlpha" operator="out"/>
<feColorMatrix type="matrix" values="0 0 0 0 0.156863 0 0 0 0 0.156863 0 0 0 0 0.164706 0 0 0 0.25 0"/>
<feBlend mode="normal" in2="BackgroundImageFix" result="effect1_dropShadow_696_8060"/>
<feBlend mode="normal" in="SourceGraphic" in2="effect1_dropShadow_696_8060" result="shape"/>
</filter>
<filter id="filter3_d_696_8060" x="277" y="0.000244141" width="65.2114" height="38.0845" filterUnits="userSpaceOnUse" color-interpolation-filters="sRGB">
<feFlood flood-opacity="0" result="BackgroundImageFix"/>
<feColorMatrix in="SourceAlpha" type="matrix" values="0 0 0 0 0 0 0 0 0 0 0 0 0 0 0 0 0 0 127 0" result="hardAlpha"/>
<feOffset dy="4"/>
<feGaussianBlur stdDeviation="5"/>
<feComposite in2="hardAlpha" operator="out"/>
<feColorMatrix type="matrix" values="0 0 0 0 0.156863 0 0 0 0 0.156863 0 0 0 0 0.164706 0 0 0 0.25 0"/>
<feBlend mode="normal" in2="BackgroundImageFix" result="effect1_dropShadow_696_8060"/>
<feBlend mode="normal" in="SourceGraphic" in2="effect1_dropShadow_696_8060" result="shape"/>
</filter>
<filter id="filter4_d_696_8060" x="227" y="23.0002" width="65.2114" height="38.0845" filterUnits="userSpaceOnUse" color-interpolation-filters="sRGB">
<feFlood flood-opacity="0" result="BackgroundImageFix"/>
<feColorMatrix in="SourceAlpha" type="matrix" values="0 0 0 0 0 0 0 0 0 0 0 0 0 0 0 0 0 0 127 0" result="hardAlpha"/>
<feOffset dy="4"/>
<feGaussianBlur stdDeviation="5"/>
<feComposite in2="hardAlpha" operator="out"/>
<feColorMatrix type="matrix" values="0 0 0 0 0.156863 0 0 0 0 0.156863 0 0 0 0 0.164706 0 0 0 0.25 0"/>
<feBlend mode="normal" in2="BackgroundImageFix" result="effect1_dropShadow_696_8060"/>
<feBlend mode="normal" in="SourceGraphic" in2="effect1_dropShadow_696_8060" result="shape"/>
</filter>
<clipPath id="clip0_696_8060">
<rect width="7.53521" height="7.53521" fill="white" transform="translate(113.028 65.0031)"/>
</clipPath>
<clipPath id="clip1_696_8060">
<rect width="5.27465" height="5.27465" fill="white" transform="translate(51.4014 35.5072)"/>
</clipPath>
</defs>
</svg>
