<svg version="1.1" xmlns="http://www.w3.org/2000/svg" x="0" y="0" viewBox="0 0 311.81 346.5" style="enable-background:new 0 0 311.81 346.5" xml:space="preserve"><text transform="translate(16.257 10.354)" style="font-family:'Asap-Regular';font-size:7px">900,000</text><text transform="translate(16.257 104.824)" style="font-family:'Asap-Regular';font-size:7px">300,000</text><text transform="translate(16.257 136.314)" style="font-family:'Asap-Regular';font-size:7px">100,000</text><text transform="translate(16.257 26.099)" style="font-family:'Asap-Regular';font-size:7px">800,000</text><text transform="translate(16.257 120.568)" style="font-family:'Asap-Regular';font-size:7px">200,000</text><text transform="translate(16.257 41.843)" style="font-family:'Asap-Regular';font-size:7px">700,000</text><text transform="translate(36.753 152.059)" style="font-family:'Asap-Regular';font-size:7px">0</text><text transform="translate(44.537 160.392)" style="font-family:'Asap-Regular';font-size:7px">0</text><text transform="translate(84.763 160.393)" style="font-family:'Asap-Regular';font-size:7px">10</text><text transform="translate(128.734 160.393)" style="font-family:'Asap-Regular';font-size:7px">20</text><text transform="translate(303.617 160.392)" style="font-family:'Asap-Regular';font-size:7px">60</text><text transform="translate(260.646 160.392)" style="font-family:'Asap-Regular';font-size:7px">50</text><text transform="translate(216.676 160.393)" style="font-family:'Asap-Regular';font-size:7px">40</text><text transform="translate(172.705 160.392)" style="font-family:'Asap-Regular';font-size:7px">30</text><line style="fill:none;stroke:#6d6e70;stroke-width:.5;stroke-linecap:square" x1="46.19" y1="8.26" x2="43.67" y2="8.26"/><line style="fill:none;stroke:#6d6e71;stroke-width:.5;stroke-miterlimit:10" x1="46.19" y1="8.26" x2="46.19" y2="150.31"/><line style="fill:none;stroke:#6d6e71;stroke-width:.5;stroke-miterlimit:10" x1="45.97" y1="150.31" x2="308.51" y2="150.31"/><line style="fill:none;stroke:#6d6e70;stroke-width:.5;stroke-linecap:square" x1="46.19" y1="150.31" x2="43.67" y2="150.31"/><line style="fill:none;stroke:#6d6e70;stroke-width:.5;stroke-linecap:square" x1="46.19" y1="150.31" x2="46.19" y2="152.83"/><line style="fill:none;stroke:#6d6e70;stroke-width:.5;stroke-linecap:square" x1="308.25" y1="150.31" x2="308.25" y2="152.83"/><line style="fill:none;stroke:#6d6e70;stroke-width:.5;stroke-linecap:square" x1="46.19" y1="24.04" x2="43.67" y2="24.04"/><line style="fill:none;stroke:#6d6e70;stroke-width:.5;stroke-linecap:square" x1="46.19" y1="55.61" x2="43.67" y2="55.61"/><line style="fill:none;stroke:#6d6e70;stroke-width:.5;stroke-linecap:square" x1="46.19" y1="87.18" x2="43.67" y2="87.18"/><line style="fill:none;stroke:#6d6e70;stroke-width:.5;stroke-linecap:square" x1="46.19" y1="102.96" x2="43.67" y2="102.96"/><line style="fill:none;stroke:#6d6e70;stroke-width:.5;stroke-linecap:square" x1="46.19" y1="134.52" x2="43.67" y2="134.52"/><line style="fill:none;stroke:#6d6e70;stroke-width:.5;stroke-linecap:square" x1="89.87" y1="150.31" x2="89.87" y2="152.83"/><line style="fill:none;stroke:#6d6e70;stroke-width:.5;stroke-linecap:square" x1="133.54" y1="150.31" x2="133.54" y2="152.83"/><line style="fill:none;stroke:#6d6e70;stroke-width:.5;stroke-linecap:square" x1="177.22" y1="150.31" x2="177.22" y2="152.83"/><line style="fill:none;stroke:#6d6e70;stroke-width:.5;stroke-linecap:square" x1="264.57" y1="150.31" x2="264.57" y2="152.83"/><line style="fill:none;stroke:#6d6e70;stroke-width:.5;stroke-linecap:square" x1="220.9" y1="150.31" x2="220.9" y2="152.83"/><text transform="translate(16.257 89.078)" style="font-family:'Asap-Regular';font-size:7px">400,000</text><text transform="translate(16.257 73.333)" style="font-family:'Asap-Regular';font-size:7px">500,000</text><text transform="matrix(.9802 0 0 1 16.756 57.588)" style="font-family:'Asap-Regular';font-size:7px">600,000</text><line style="fill:none;stroke:#6d6e70;stroke-width:.5;stroke-linecap:square" x1="46.19" y1="118.74" x2="43.67" y2="118.74"/><line style="fill:none;stroke:#6d6e70;stroke-width:.5;stroke-linecap:square" x1="46.19" y1="71.39" x2="43.67" y2="71.39"/><line style="fill:none;stroke:#6d6e70;stroke-width:.5;stroke-linecap:square" x1="46.19" y1="39.83" x2="43.67" y2="39.83"/><line style="fill:none;stroke:#3a53a4;stroke-width:.5" x1="303.07" y1="6.9" x2="45.97" y2="138.12"/><circle style="fill:#231f20" cx="45.97" cy="138.12" r="1.13"/><text transform="translate(142.824 174.242)"><tspan x="0" y="0" style="font-family:'Asap-Medium';font-size:8px">Quantity of cars, </tspan><tspan x="59.53" y="0" style="font-family:'Asap-MediumItalic';font-size:8px">Q</tspan></text><text transform="rotate(-90 57.35 49.59)"><tspan x="0" y="0" style="font-family:'Asap-Medium';font-size:8px">T</tspan><tspan x="3.83" y="0" style="font-family:'Asap-Medium';font-size:8px">otal cost, </tspan><tspan x="37.75" y="0" style="font-family:'Asap-MediumItalic';font-size:8px">C</tspan><tspan x="42.7" y="0" style="font-family:'Asap-Medium';font-size:8px"> ($)</tspan></text></svg>