<svg version="1.1" xmlns="http://www.w3.org/2000/svg" x="0" y="0" viewBox="0 0 311.81 198.71" style="enable-background:new 0 0 311.81 198.71" xml:space="preserve"><line style="fill:none;stroke:#d5daef;stroke-width:.5" x1="291.38" y1="135.29" x2="35.13" y2="135.29"/><line style="fill:none;stroke:#6d6e71;stroke-width:.5;stroke-miterlimit:10" x1="290.93" y1="167.55" x2="34.73" y2="167.55"/><line style="fill:none;stroke:#6d6e71;stroke-width:.5;stroke-miterlimit:10" x1="35.13" y1="6" x2="35.13" y2="167.55"/><line style="fill:none;stroke:#6d6e70;stroke-width:.5;stroke-linecap:square" x1="290.74" y1="167.55" x2="290.74" y2="170.07"/><line style="fill:none;stroke:#6d6e70;stroke-width:.5;stroke-linecap:square" x1="35.13" y1="167.55" x2="35.13" y2="170.07"/><line style="fill:none;stroke:#6d6e70;stroke-width:.5;stroke-linecap:square" x1="35.13" y1="167.55" x2="32.6" y2="167.55"/><line style="fill:none;stroke:#6d6e70;stroke-width:.5;stroke-linecap:square" x1="35.13" y1="151.42" x2="32.6" y2="151.42"/><line style="fill:none;stroke:#6d6e70;stroke-width:.5;stroke-linecap:square" x1="35.13" y1="135.29" x2="32.6" y2="135.29"/><line style="fill:none;stroke:#6d6e70;stroke-width:.5;stroke-linecap:square" x1="35.13" y1="119.17" x2="32.6" y2="119.17"/><line style="fill:none;stroke:#6d6e70;stroke-width:.5;stroke-linecap:square" x1="35.13" y1="54.66" x2="32.6" y2="54.66"/><line style="fill:none;stroke:#6d6e70;stroke-width:.5;stroke-linecap:square" x1="35.13" y1="70.79" x2="32.6" y2="70.79"/><line style="fill:none;stroke:#6d6e70;stroke-width:.5;stroke-linecap:square" x1="35.13" y1="86.92" x2="32.6" y2="86.92"/><line style="fill:none;stroke:#6d6e70;stroke-width:.5;stroke-linecap:square" x1="35.13" y1="103.04" x2="32.6" y2="103.04"/><line style="fill:none;stroke:#6d6e70;stroke-width:.5;stroke-linecap:square" x1="35.13" y1="6.28" x2="32.6" y2="6.28"/><line style="fill:none;stroke:#6d6e70;stroke-width:.5;stroke-linecap:square" x1="35.13" y1="22.41" x2="32.6" y2="22.41"/><line style="fill:none;stroke:#6d6e70;stroke-width:.5;stroke-linecap:square" x1="35.13" y1="38.54" x2="32.6" y2="38.54"/><line style="fill:none;stroke:#6d6e70;stroke-width:.5;stroke-linecap:square" x1="259.35" y1="167.55" x2="259.35" y2="170.07"/><line style="fill:none;stroke:#6d6e70;stroke-width:.5;stroke-linecap:square" x1="195.29" y1="167.55" x2="195.29" y2="170.07"/><line style="fill:none;stroke:#6d6e70;stroke-width:.5;stroke-linecap:square" x1="227.32" y1="167.55" x2="227.32" y2="170.07"/><line style="fill:none;stroke:#6d6e70;stroke-width:.5;stroke-linecap:square" x1="163.25" y1="167.55" x2="163.25" y2="170.07"/><line style="fill:none;stroke:#6d6e70;stroke-width:.5;stroke-linecap:square" x1="131.22" y1="167.55" x2="131.22" y2="170.07"/><line style="fill:none;stroke:#6d6e70;stroke-width:.5;stroke-linecap:square" x1="99.19" y1="167.55" x2="99.19" y2="170.07"/><line style="fill:none;stroke:#6d6e70;stroke-width:.5;stroke-linecap:square" x1="67.16" y1="167.55" x2="67.16" y2="170.07"/><text transform="translate(114.334 194.722)"><tspan x="0" y="0" style="font-family:'Asap-Medium';font-size:8px">Quantity of Ch</tspan><tspan x="51.02" y="0" style="font-family:'Asap-Medium';font-size:8px">e</tspan><tspan x="55.25" y="0" style="font-family:'Asap-Medium';font-size:8px">erios, </tspan><tspan x="75.97" y="0" style="font-family:'Asap-MediumItalic';font-size:8px">Q</tspan><tspan x="81.82" y="0" style="font-family:'Asap-Medium';font-size:8px"> (pounds)</tspan></text><text transform="rotate(-90 71.155 60.814)"><tspan x="0" y="0" style="font-family:'Asap-Medium';font-size:8px">Price, </tspan><tspan x="21.3" y="0" style="font-family:'Asap-MediumItalic';font-size:8px">P</tspan><tspan x="25.86" y="0" style="font-family:'Asap-Medium';font-size:8px"> (dollars per pound)</tspan></text><text transform="translate(25.318 170.073)" style="font-family:'Asap-Regular';font-size:7px">0</text><text transform="translate(33.604 179.743)" style="font-family:'Asap-Regular';font-size:7px">0</text><text transform="translate(21.574 7.97)" style="font-family:'Asap-Regular';font-size:7px">10</text><text transform="translate(288.922 179.743)" style="font-family:'Asap-Regular';font-size:7px">80,000</text><text transform="translate(254.962 179.743)" style="font-family:'Asap-Regular';font-size:7px">70,000</text><text transform="translate(221 179.743)" style="font-family:'Asap-Regular';font-size:7px">60,000</text><text transform="translate(187.04 179.743)" style="font-family:'Asap-Regular';font-size:7px">50,000</text><text transform="translate(153.08 179.743)" style="font-family:'Asap-Regular';font-size:7px">40,000</text><text transform="translate(119.12 179.743)" style="font-family:'Asap-Regular';font-size:7px">30,000</text><text transform="translate(85.16 179.743)" style="font-family:'Asap-Regular';font-size:7px">20,000</text><text transform="translate(51.2 179.743)" style="font-family:'Asap-Regular';font-size:7px">10,000</text><text transform="translate(25.318 24.18)" style="font-family:'Asap-Regular';font-size:7px">9</text><text transform="translate(25.318 40.39)" style="font-family:'Asap-Regular';font-size:7px">8</text><text transform="translate(25.318 56.6)" style="font-family:'Asap-Regular';font-size:7px">7</text><text transform="translate(25.318 72.81)" style="font-family:'Asap-Regular';font-size:7px">6</text><text transform="translate(25.318 89.02)" style="font-family:'Asap-Regular';font-size:7px">5</text><text transform="translate(25.318 105.23)" style="font-family:'Asap-Regular';font-size:7px">4</text><text transform="translate(25.318 121.441)" style="font-family:'Asap-Regular';font-size:7px">3</text><text transform="translate(25.318 137.652)" style="font-family:'Asap-Regular';font-size:7px">2</text><text transform="translate(25.318 153.862)" style="font-family:'Asap-Regular';font-size:7px">1</text><path style="fill:none;stroke:#a1b0da;stroke-width:.5" d="M38.69 6.28c.87 13.53 1.52 24.49 1.94 31.96 0 0 .53 9.34 1.94 27.55.72 9.23 1.25 15.3 3.33 23.14 1.08 4.06 2.08 8.23 4.44 12.95 1.21 2.41 2.95 5.84 6.11 9.37 4.93 5.51 10.45 8 14.15 9.64 4.44 1.98 7.83 2.73 13.88 4.06 3.15.69 8.5 1.75 19.01 2.97 2.72.32 11.16 1.26 25.17 2.1 5.83.35 11.15.59 19.36.87 18.53.64 32.71.86 33.79.87 20.96.31 59.47.9 109.28 1.57"/><path style="fill:none;stroke:#3a53a4;stroke-width:.5" d="M58.92 6.28c.61 3.6 1.49 8.25 2.78 13.62.81 3.37 2.8 11.28 6.4 21.4 2.57 7.24 3.86 10.87 6.4 15.84 4.39 8.62 9.05 14.5 10.85 16.68 7.16 8.69 14.12 13.77 15.86 15.01 5.54 3.96 10.19 6.18 14.74 8.34 4.12 1.95 10.03 4.47 20.03 7.51 12.81 3.88 22.71 5.68 34.5 7.78 11.36 2.03 21.05 3.32 28.38 4.17 3.5.41 5.99.65 28.38 2.5 17.61 1.45 26.5 2.19 31.16 2.5 8.06.54 19.17 1.2 32.55 1.67"/><text transform="translate(73.037 40.39)" style="font-family:'Asap-Regular';font-size:6px">(10,000, 8)</text><circle style="fill:#231f20" cx="67.01" cy="38.54" r="1.13"/><circle style="fill:#231f20" cx="98.96" cy="87.05" r="1.13"/><text transform="translate(104.997 86.915)" style="font-family:'Asap-Regular';font-size:6px">(20,000, 5)</text><text transform="translate(228.317 113.876)" style="font-family:'Asap-Regular';font-size:6px">(60,000, 3)</text><circle style="fill:#231f20" cx="227.32" cy="119.17" r="1.13"/><text transform="translate(230.053 43.503)"><tspan x="0" y="0" style="font-family:'Asap-Regular';font-size:6px">Isop</tspan><tspan x="11.03" y="0" style="font-family:'Asap-Regular';font-size:6px">r</tspan><tspan x="13.1" y="0" style="font-family:'Asap-Regular';font-size:6px">ofit cur</tspan><tspan x="31.84" y="0" style="font-family:'Asap-Regular';font-size:6px">v</tspan><tspan x="34.69" y="0" style="font-family:'Asap-Regular';font-size:6px">e: $0</tspan></text><circle style="fill:#d5daef" cx="223.87" cy="41.66" r="2.13"/><text transform="translate(230.053 33.581)"><tspan x="0" y="0" style="font-family:'Asap-Regular';font-size:6px">Isop</tspan><tspan x="11.03" y="0" style="font-family:'Asap-Regular';font-size:6px">r</tspan><tspan x="13.1" y="0" style="font-family:'Asap-Regular';font-size:6px">ofit cur</tspan><tspan x="31.84" y="0" style="font-family:'Asap-Regular';font-size:6px">v</tspan><tspan x="34.69" y="0" style="font-family:'Asap-Regular';font-size:6px">e: $10,000</tspan></text><circle style="fill:#a1b0da" cx="223.87" cy="31.74" r="2.13"/><g><text transform="translate(230.053 23.738)"><tspan x="0" y="0" style="font-family:'Asap-Regular';font-size:6px">Isop</tspan><tspan x="11.03" y="0" style="font-family:'Asap-Regular';font-size:6px">r</tspan><tspan x="13.1" y="0" style="font-family:'Asap-Regular';font-size:6px">ofit cur</tspan><tspan x="31.84" y="0" style="font-family:'Asap-Regular';font-size:6px">v</tspan><tspan x="34.69" y="0" style="font-family:'Asap-Regular';font-size:6px">e: $60,000</tspan></text><circle style="fill:#3a53a4" cx="223.87" cy="21.9" r="2.13"/></g></svg>