<svg version="1.1" xmlns="http://www.w3.org/2000/svg" x="0" y="0" viewBox="0 0 311.81 125.76" style="enable-background:new 0 0 311.81 125.76" xml:space="preserve"><rect x="178.56" y="54.18" style="fill:#fee6da" width="64" height="4.72"/><rect x="23.39" y="54.24" style="fill:#fee6da" width="64" height="24.72"/><rect x="23.74" y="78.84" style="fill:#a6a9d5" width="64" height="24.53"/><rect x="178.21" y="59.28" style="fill:#a6a9d5" width="64" height="44.09"/><rect x="242.21" y="59.28" style="fill:#e2e7f5" width="13.6" height="44.09"/><rect x="87.4" y="78.96" style="fill:#e2e7f5" width="13.6" height="24.45"/><line style="fill:none;stroke:#7f8182;stroke-width:.5" x1="114.6" y1="103.44" x2="60.2" y2="5.04"/><text transform="matrix(1.0052 0 0 1 166.942 30.85)" style="fill:#010101;font-family:'Asap-Regular';font-size:7px">30</text><text transform="matrix(1.0052 0 0 1 210.405 123.546)"><tspan x="0" y="0" style="fill:#010101;font-family:'Asap-Medium';font-size:8px">Quantity of cars, </tspan><tspan x="59.53" y="0" style="fill:#010101;font-family:'Asap-MediumItalic';font-size:8px">Q</tspan></text><text transform="matrix(0 -.9948 1 0 161.727 69.844)"><tspan x="0" y="0" style="fill:#010101;font-family:'Asap-Medium';font-size:8px">Price,</tspan><tspan x="19.38" y="0" style="fill:#010101;font-family:'Asap-MediumItalic';font-size:8px"> P</tspan><tspan x="25.86" y="0" style="fill:#010101;font-family:'Asap-Medium';font-size:8px"> ($)</tspan></text><text transform="matrix(1.0052 0 0 1 166.942 68.094)" style="fill:#010101;font-family:'Asap-Regular';font-size:7px">15</text><text transform="matrix(1.0052 0 0 1 166.942 80.51)" style="fill:#010101;font-family:'Asap-Regular';font-size:7px">10</text><text transform="matrix(1.0052 0 0 1 170.706 92.924)" style="fill:#010101;font-family:'Asap-Regular';font-size:7px">5</text><text transform="matrix(1.0052 0 0 1 166.942 55.679)" style="fill:#010101;font-family:'Asap-Regular';font-size:7px">20</text><text transform="matrix(1.0052 0 0 1 166.942 43.264)" style="fill:#010101;font-family:'Asap-Regular';font-size:7px">25</text><text transform="matrix(1.0052 0 0 1 170.706 105.338)" style="fill:#010101;font-family:'Asap-Regular';font-size:7px">0</text><text transform="matrix(1.0052 0 0 1 177.358 113.374)" style="fill:#010101;font-family:'Asap-Regular';font-size:7px">0</text><text transform="matrix(1.0052 0 0 1 186.514 113.374)" style="fill:#010101;font-family:'Asap-Regular';font-size:7px">1</text><text transform="matrix(1.0052 0 0 1 199.67 113.374)" style="fill:#010101;font-family:'Asap-Regular';font-size:7px">2</text><text transform="matrix(1.0052 0 0 1 303.916 113.374)" style="fill:#010101;font-family:'Asap-Regular';font-size:7px">10</text><text transform="matrix(1.0052 0 0 1 240.137 113.374)" style="fill:#010101;font-family:'Asap-Regular';font-size:7px">5</text><text transform="matrix(1.0052 0 0 1 226.981 113.374)" style="fill:#010101;font-family:'Asap-Regular';font-size:7px">4</text><text transform="matrix(1.0052 0 0 1 213.826 113.374)" style="fill:#010101;font-family:'Asap-Regular';font-size:7px">3</text><line style="fill:none;stroke:#6e6f71;stroke-width:.5;stroke-linecap:square" x1="178.21" y1="41.94" x2="176.91" y2="41.94"/><line style="fill:none;stroke:#6e6f72;stroke-width:.5;stroke-miterlimit:10" x1="178.21" y1="5.04" x2="178.21" y2="103.44"/><line style="fill:none;stroke:#6e6f72;stroke-width:.5;stroke-miterlimit:10" x1="178.21" y1="103.44" x2="310.22" y2="103.44"/><line style="fill:none;stroke:#6e6f71;stroke-width:.5;stroke-linecap:square" x1="178.21" y1="103.44" x2="176.91" y2="103.44"/><line style="fill:none;stroke:#6e6f71;stroke-width:.5;stroke-linecap:square" x1="178.21" y1="103.44" x2="178.21" y2="104.73"/><line style="fill:none;stroke:#6e6f71;stroke-width:.5;stroke-linecap:square" x1="242.21" y1="103.44" x2="242.21" y2="104.73"/><polyline style="fill:none;stroke:#6e6f71;stroke-width:.5;stroke-linecap:square" points="176.91 54.24 178.21 54.24 242.21 54.24 242.21 103.44"/><line style="fill:none;stroke:#6e6f71;stroke-width:.5;stroke-linecap:square" x1="178.21" y1="66.54" x2="176.91" y2="66.54"/><line style="fill:none;stroke:#6e6f71;stroke-width:.5;stroke-linecap:square" x1="178.21" y1="78.84" x2="176.91" y2="78.84"/><line style="fill:none;stroke:#6e6f71;stroke-width:.5;stroke-linecap:square" x1="178.21" y1="91.14" x2="176.91" y2="91.14"/><line style="fill:none;stroke:#6e6f71;stroke-width:.5;stroke-linecap:square" x1="201.41" y1="103.44" x2="201.41" y2="104.73"/><line style="fill:none;stroke:#6e6f71;stroke-width:.5;stroke-linecap:square" x1="228.61" y1="103.44" x2="228.61" y2="104.73"/><line style="fill:none;stroke:#6e6f71;stroke-width:.5;stroke-linecap:square" x1="283.02" y1="103.44" x2="283.02" y2="104.73"/><polyline style="fill:none;stroke:#6e6f71;stroke-width:.5;stroke-linecap:square" points="255.82 103.46 255.82 59.28 178.21 59.28"/><line style="fill:none;stroke:#6e6f71;stroke-width:.5;stroke-linecap:square" x1="255.82" y1="104.73" x2="255.82" y2="103.46"/><line style="fill:none;stroke:#6e6f71;stroke-width:.5;stroke-linecap:square" x1="178.21" y1="5.04" x2="176.91" y2="5.04"/><text transform="matrix(1.0052 0 0 1 166.942 6.021)" style="fill:#010101;font-family:'Asap-Regular';font-size:7px">40</text><text transform="matrix(1.0052 0 0 1 166.94 18.436)" style="fill:#010101;font-family:'Asap-Regular';font-size:7px">35</text><line style="fill:none;stroke:#6e6f71;stroke-width:.5;stroke-linecap:square" x1="176.91" y1="29.64" x2="178.21" y2="29.64"/><text transform="matrix(1.0052 0 0 1 253.293 113.374)" style="fill:#010101;font-family:'Asap-Regular';font-size:7px">6</text><text transform="matrix(1.0052 0 0 1 268.449 113.374)" style="fill:#010101;font-family:'Asap-Regular';font-size:7px">7</text><text transform="matrix(1.0052 0 0 1 281.604 113.374)" style="fill:#010101;font-family:'Asap-Regular';font-size:7px">8</text><text transform="matrix(1.0052 0 0 1 294.76 113.374)" style="fill:#010101;font-family:'Asap-Regular';font-size:7px">9</text><line style="fill:none;stroke:#6e6f71;stroke-width:.5;stroke-linecap:square" x1="269.42" y1="103.44" x2="269.42" y2="104.73"/><line style="fill:none;stroke:#6e6f71;stroke-width:.5;stroke-linecap:square" x1="187.81" y1="103.44" x2="187.81" y2="104.73"/><line style="fill:none;stroke:#6e6f71;stroke-width:.5;stroke-linecap:square" x1="215.01" y1="103.44" x2="215.01" y2="104.73"/><line style="fill:none;stroke:#6e6f71;stroke-width:.5;stroke-linecap:square" x1="296.62" y1="103.44" x2="296.62" y2="104.73"/><line style="fill:none;stroke:#6e6f71;stroke-width:.5;stroke-linecap:square" x1="178.21" y1="17.34" x2="176.91" y2="17.34"/><line style="fill:none;stroke:#6e6f71;stroke-width:.5;stroke-linecap:square" x1="310.22" y1="103.44" x2="310.22" y2="104.93"/><text transform="matrix(1.0052 0 0 1 12.126 30.85)" style="fill:#010101;font-family:'Asap-Regular';font-size:7px">30</text><text transform="matrix(1.0052 0 0 1 55.588 123.546)"><tspan x="0" y="0" style="fill:#010101;font-family:'Asap-Medium';font-size:8px">Quantity of cars, </tspan><tspan x="59.53" y="0" style="fill:#010101;font-family:'Asap-MediumItalic';font-size:8px">Q</tspan></text><text transform="matrix(0 -.9948 1 0 6.91 69.844)"><tspan x="0" y="0" style="fill:#010101;font-family:'Asap-Medium';font-size:8px">Price,</tspan><tspan x="19.38" y="0" style="fill:#010101;font-family:'Asap-MediumItalic';font-size:8px"> P</tspan><tspan x="25.86" y="0" style="fill:#010101;font-family:'Asap-Medium';font-size:8px"> ($)</tspan></text><text transform="matrix(1.0052 0 0 1 12.126 68.094)" style="fill:#010101;font-family:'Asap-Regular';font-size:7px">15</text><text transform="matrix(1.0052 0 0 1 12.126 80.509)" style="fill:#010101;font-family:'Asap-Regular';font-size:7px">10</text><text transform="matrix(1.0052 0 0 1 15.89 92.924)" style="fill:#010101;font-family:'Asap-Regular';font-size:7px">5</text><text transform="matrix(1.0052 0 0 1 12.126 55.679)" style="fill:#010101;font-family:'Asap-Regular';font-size:7px">20</text><text transform="matrix(1.0052 0 0 1 12.126 43.264)" style="fill:#010101;font-family:'Asap-Regular';font-size:7px">25</text><text transform="matrix(1.0052 0 0 1 15.89 105.338)" style="fill:#010101;font-family:'Asap-Regular';font-size:7px">0</text><text transform="matrix(1.0052 0 0 1 22.541 113.374)" style="fill:#010101;font-family:'Asap-Regular';font-size:7px">0</text><text transform="matrix(1.0052 0 0 1 31.698 113.374)" style="fill:#010101;font-family:'Asap-Regular';font-size:7px">1</text><text transform="matrix(1.0052 0 0 1 44.853 113.374)" style="fill:#010101;font-family:'Asap-Regular';font-size:7px">2</text><text transform="matrix(1.0052 0 0 1 149.1 113.374)" style="fill:#010101;font-family:'Asap-Regular';font-size:7px">10</text><text transform="matrix(1.0052 0 0 1 85.32 113.374)" style="fill:#010101;font-family:'Asap-Regular';font-size:7px">5</text><text transform="matrix(1.0052 0 0 1 72.165 113.374)" style="fill:#010101;font-family:'Asap-Regular';font-size:7px">4</text><text transform="matrix(1.0052 0 0 1 59.01 113.374)" style="fill:#010101;font-family:'Asap-Regular';font-size:7px">3</text><line style="fill:none;stroke:#6e6f71;stroke-width:.5;stroke-linecap:square" x1="23.39" y1="41.94" x2="22.1" y2="41.94"/><line style="fill:none;stroke:#6e6f72;stroke-width:.5;stroke-miterlimit:10" x1="23.39" y1="5.04" x2="23.39" y2="103.44"/><line style="fill:none;stroke:#6e6f72;stroke-width:.5;stroke-miterlimit:10" x1="23.39" y1="103.44" x2="155.4" y2="103.44"/><line style="fill:none;stroke:#6e6f71;stroke-width:.5;stroke-linecap:square" x1="23.39" y1="103.44" x2="22.1" y2="103.44"/><line style="fill:none;stroke:#6e6f71;stroke-width:.5;stroke-linecap:square" x1="23.39" y1="103.44" x2="23.39" y2="104.73"/><polyline style="fill:none;stroke:#6e6f71;stroke-width:.5;stroke-linecap:square" points="22.1 54.24 23.39 54.24 87.4 54.24"/><line style="fill:none;stroke:#6e6f71;stroke-width:.5;stroke-linecap:square" x1="23.39" y1="66.54" x2="22.1" y2="66.54"/><polyline style="fill:none;stroke:#6e6f71;stroke-width:.5;stroke-linecap:square" points="22.1 78.84 23.39 78.84 101 78.84"/><line style="fill:none;stroke:#6e6f71;stroke-width:.5;stroke-linecap:square" x1="23.39" y1="91.14" x2="22.1" y2="91.14"/><line style="fill:none;stroke:#6e6f71;stroke-width:.5;stroke-linecap:square" x1="46.6" y1="103.44" x2="46.6" y2="104.73"/><line style="fill:none;stroke:#6e6f71;stroke-width:.5;stroke-linecap:square" x1="73.8" y1="103.44" x2="73.8" y2="104.73"/><polyline style="fill:none;stroke:#6e6f71;stroke-width:.5;stroke-linecap:square" points="87.4 104.73 87.4 103.49 87.4 54.24"/><line style="fill:none;stroke:#6e6f71;stroke-width:.5;stroke-linecap:square" x1="128.2" y1="103.44" x2="128.2" y2="104.73"/><line style="fill:none;stroke:#6e6f71;stroke-width:.5;stroke-linecap:square" x1="101" y1="103.41" x2="101" y2="104.73"/><line style="fill:none;stroke:#6e6f71;stroke-width:.5;stroke-linecap:square" x1="101" y1="78.96" x2="101" y2="103.41"/><line style="fill:none;stroke:#6e6f71;stroke-width:.5;stroke-linecap:square" x1="23.39" y1="5.04" x2="22.1" y2="5.04"/><text transform="matrix(1.0052 0 0 1 12.126 6.02)" style="fill:#010101;font-family:'Asap-Regular';font-size:7px">40</text><text transform="matrix(1.0052 0 0 1 12.124 18.435)" style="fill:#010101;font-family:'Asap-Regular';font-size:7px">35</text><line style="fill:none;stroke:#6e6f71;stroke-width:.5;stroke-linecap:square" x1="22.1" y1="29.64" x2="23.39" y2="29.64"/><text transform="matrix(1.0052 0 0 1 98.477 113.374)" style="fill:#010101;font-family:'Asap-Regular';font-size:7px">6</text><text transform="matrix(1.0052 0 0 1 113.632 113.374)" style="fill:#010101;font-family:'Asap-Regular';font-size:7px">7</text><text transform="matrix(1.0052 0 0 1 126.788 113.374)" style="fill:#010101;font-family:'Asap-Regular';font-size:7px">8</text><text transform="matrix(1.0052 0 0 1 139.944 113.374)" style="fill:#010101;font-family:'Asap-Regular';font-size:7px">9</text><line style="fill:none;stroke:#6e6f71;stroke-width:.5;stroke-linecap:square" x1="114.6" y1="103.44" x2="114.6" y2="104.73"/><line style="fill:none;stroke:#6e6f71;stroke-width:.5;stroke-linecap:square" x1="33" y1="103.44" x2="33" y2="104.73"/><line style="fill:none;stroke:#6e6f71;stroke-width:.5;stroke-linecap:square" x1="60.2" y1="103.44" x2="60.2" y2="104.73"/><line style="fill:none;stroke:#6e6f71;stroke-width:.5;stroke-linecap:square" x1="141.8" y1="103.44" x2="141.8" y2="104.73"/><line style="fill:none;stroke:#6e6f71;stroke-width:.5;stroke-linecap:square" x1="23.39" y1="17.34" x2="22.1" y2="17.34"/><line style="fill:none;stroke:#6e6f71;stroke-width:.5;stroke-linecap:square" x1="155.4" y1="103.44" x2="155.4" y2="104.93"/><line style="fill:none;stroke:#7f8182;stroke-width:.5" x1="178.21" y1="29.64" x2="308.27" y2="78.96"/><text transform="translate(48.182 69.844)" style="fill:#010101;font-family:'Asap-Regular';font-size:6px">Loss</text><text transform="translate(202.602 58.849)" style="fill:#010101;font-family:'Asap-Regular';font-size:6px">Loss</text><text transform="rotate(-90 97.15 1.715)" style="fill:#010101;font-family:'Asap-Regular';font-size:6px">Gain</text><text transform="rotate(-90 170.184 -80.608)" style="fill:#010101;font-family:'Asap-Regular';font-size:6px">Gain</text><text transform="translate(90.411 55.72)" style="fill:#010101;font-family:'Asap-Regular';font-size:6px">E</text><text transform="translate(245.021 52.98)" style="fill:#010101;font-family:'Asap-Regular';font-size:6px">E</text><circle style="fill:#231f20" cx="87.4" cy="54.3" r=".58"/><circle style="fill:#231f20" cx="242.42" cy="54.03" r=".58"/><text transform="translate(285.01 8.698)" style="fill:#010101;font-family:'Asap-Regular';font-size:6px">Panel B</text><text transform="translate(129.788 8.661)" style="fill:#010101;font-family:'Asap-Regular';font-size:6px">Panel A</text></svg>