<svg xmlns="http://www.w3.org/2000/svg" viewBox="0 0 810 505"><rect width="100%" height="100%" style="stroke:none;fill:#fff;stroke-linecap:round;stroke-linejoin:round;stroke-miterlimit:10"/><rect x="0" y="0" width="810" height="505" style="stroke-width:1.07;stroke:#fff;fill:#fff;stroke-linecap:round;stroke-linejoin:round;stroke-miterlimit:10"/><rect x="93.79" y="28.35" width="668.02" height="395.76" style="stroke-width:1.07;stroke:none;fill:#fff;stroke-linecap:round;stroke-linejoin:round;stroke-miterlimit:10"/><polyline points="93.79 424.1 761.81 424.1" style="stroke-width:1.07;stroke:#c6c4c4;stroke-linecap:butt;fill:none;stroke-linejoin:round;stroke-miterlimit:10"/><polyline points="93.79 374.63 761.81 374.63" style="stroke-width:1.07;stroke:#c6c4c4;stroke-linecap:butt;fill:none;stroke-linejoin:round;stroke-miterlimit:10"/><polyline points="93.79 325.16 761.81 325.16" style="stroke-width:1.07;stroke:#c6c4c4;stroke-linecap:butt;fill:none;stroke-linejoin:round;stroke-miterlimit:10"/><polyline points="93.79 275.69 761.81 275.69" style="stroke-width:1.07;stroke:#c6c4c4;stroke-linecap:butt;fill:none;stroke-linejoin:round;stroke-miterlimit:10"/><polyline points="93.79 226.22 761.81 226.22" style="stroke-width:1.07;stroke:#c6c4c4;stroke-linecap:butt;fill:none;stroke-linejoin:round;stroke-miterlimit:10"/><polyline points="93.79 176.75 761.81 176.75" style="stroke-width:1.07;stroke:#c6c4c4;stroke-linecap:butt;fill:none;stroke-linejoin:round;stroke-miterlimit:10"/><polyline points="93.79 127.29 761.81 127.29" style="stroke-width:1.07;stroke:#c6c4c4;stroke-linecap:butt;fill:none;stroke-linejoin:round;stroke-miterlimit:10"/><polyline points="93.79 77.82 761.81 77.82" style="stroke-width:1.07;stroke:#c6c4c4;stroke-linecap:butt;fill:none;stroke-linejoin:round;stroke-miterlimit:10"/><polyline points="93.79 28.35 761.81 28.35" style="stroke-width:1.07;stroke:#c6c4c4;stroke-linecap:butt;fill:none;stroke-linejoin:round;stroke-miterlimit:10"/><line x1="93.79" y1="325.16" x2="761.81" y2="325.16" style="stroke-width:1.07;stroke:#333;stroke-linecap:butt;fill:none;stroke-linejoin:round;stroke-miterlimit:10"/><polyline points="93.79 325.16 120.51 314.51 147.23 320.6 173.95 282.54 200.67 304.61 227.39 290.15 254.11 297 280.83 330.49 307.55 292.44 334.28 304.61 361 304.61 387.72 351.04 414.44 329.73 441.16 322.88 467.88 391.38 494.6 359.41 521.32 338.1 548.04 352.56 574.76 341.15 601.49 357.13 628.21 370.07 654.93 373.11 681.65 365.5 708.37 363.98 735.09 386.05" style="stroke-width:1.2;stroke:#3a53a4;stroke-linecap:butt;fill:none;stroke-linejoin:round;stroke-miterlimit:10"/><polyline points="93.79 325.16 120.51 297.98 147.23 311.96 173.95 292.55 200.67 318.17 227.39 334.48 254.11 314.29 280.83 324.39 307.55 295.65 334.28 300.31 361 315.84 387.72 351.57 414.44 353.12 441.16 342.25 467.88 389.62 494.6 370.98 521.32 370.98 548.04 375.64 574.76 367.1 601.49 378.75 628.21 384.96 654.93 388.07 681.65 369.43 708.37 370.21 735.09 377.97" style="stroke-width:1.2;stroke:#ed1f24;stroke-linecap:butt;fill:none;stroke-linejoin:round;stroke-miterlimit:10"/><polyline points="93.79 325.16 120.51 318.15 147.23 303.04 173.95 281.05 200.67 258.61 227.39 232.8 254.11 225.89 280.83 214.81 307.55 203.13 334.28 178.91 361 163.22 387.72 136.46 414.44 118.18 441.16 126.76 467.88 162.46 494.6 129.25 521.32 112.54 548.04 121.89 574.76 119.55 601.49 108.04 628.21 83.91 654.93 78.05 681.65 69.18 708.37 63.38 735.09 60.76" style="stroke-width:1.2;stroke:#b9519e;stroke-linecap:butt;fill:none;stroke-linejoin:round;stroke-miterlimit:10"/><text x="582.58" y="340.01" style="font-size:14px;fill:#3a53a4;font-family:Asap" textLength="123.48" lengthAdjust="spacingAndGlyphs">Consumption-based</text><text x="709.42" y="340.01" style="font-size:14px;fill:#3a53a4;font-family:Asap" textLength="37.21" lengthAdjust="spacingAndGlyphs">(trade</text><text x="749.99" y="340.01" style="font-size:14px;fill:#3a53a4;font-family:Asap" textLength="57.44" lengthAdjust="spacingAndGlyphs">adjusted)</text><text x="628.58" y="356.75" style="font-size:14px;fill:#3a53a4;font-family:Asap" textLength="42.39" lengthAdjust="spacingAndGlyphs">energy</text><text x="674.33" y="356.75" style="font-size:14px;fill:#3a53a4;font-family:Asap" textLength="21.13" lengthAdjust="spacingAndGlyphs">use</text><text x="698.82" y="356.75" style="font-size:14px;fill:#3a53a4;font-family:Asap" textLength="20.69" lengthAdjust="spacingAndGlyphs">per</text><text x="722.87" y="356.75" style="font-size:14px;fill:#3a53a4;font-family:Asap" textLength="38.57" lengthAdjust="spacingAndGlyphs">capita</text><text x="504.28" y="402.8" style="font-size:14px;fill:#ed1f24;font-family:Asap" textLength="58.18" lengthAdjust="spacingAndGlyphs">Domestic</text><text x="565.83" y="402.8" style="font-size:14px;fill:#ed1f24;font-family:Asap" textLength="42.39" lengthAdjust="spacingAndGlyphs">energy</text><text x="611.58" y="402.8" style="font-size:14px;fill:#ed1f24;font-family:Asap" textLength="21.13" lengthAdjust="spacingAndGlyphs">use</text><text x="636.07" y="402.8" style="font-size:14px;fill:#ed1f24;font-family:Asap" textLength="20.69" lengthAdjust="spacingAndGlyphs">per</text><text x="660.12" y="402.8" style="font-size:14px;fill:#ed1f24;font-family:Asap" textLength="38.57" lengthAdjust="spacingAndGlyphs">capita</text><text x="635.1" y="105.98" style="font-size:14px;fill:#b9519e;font-family:Asap" textLength="27.12" lengthAdjust="spacingAndGlyphs">GDP</text><text x="665.58" y="105.98" style="font-size:14px;fill:#b9519e;font-family:Asap" textLength="20.69" lengthAdjust="spacingAndGlyphs">per</text><text x="689.63" y="105.98" style="font-size:14px;fill:#b9519e;font-family:Asap" textLength="38.57" lengthAdjust="spacingAndGlyphs">capita</text><polyline points="93.79 424.1 93.79 28.35" style="stroke-width:1.07;stroke:#464646;stroke-linecap:butt;fill:none;stroke-linejoin:round;stroke-miterlimit:10"/><text x="47.4" y="428.51" style="font-size:18px;font-family:Asap" textLength="29.34" lengthAdjust="spacingAndGlyphs">−20</text><text x="47.4" y="379.04" style="font-size:18px;font-family:Asap" textLength="29.34" lengthAdjust="spacingAndGlyphs">−10</text><text x="67.11" y="329.57" style="font-size:18px;font-family:Asap" textLength="9.63" lengthAdjust="spacingAndGlyphs">0</text><text x="57.48" y="280.1" style="font-size:18px;font-family:Asap" textLength="19.26" lengthAdjust="spacingAndGlyphs">10</text><text x="57.48" y="230.63" style="font-size:18px;font-family:Asap" textLength="19.26" lengthAdjust="spacingAndGlyphs">20</text><text x="57.48" y="181.16" style="font-size:18px;font-family:Asap" textLength="19.26" lengthAdjust="spacingAndGlyphs">30</text><text x="57.48" y="131.7" style="font-size:18px;font-family:Asap" textLength="19.26" lengthAdjust="spacingAndGlyphs">40</text><text x="57.48" y="82.23" style="font-size:18px;font-family:Asap" textLength="19.26" lengthAdjust="spacingAndGlyphs">50</text><text x="57.48" y="32.76" style="font-size:18px;font-family:Asap" textLength="19.26" lengthAdjust="spacingAndGlyphs">60</text><polyline points="86.7 424.1 93.79 424.1" style="stroke-width:1.07;stroke:#464646;stroke-linecap:butt;fill:none;stroke-linejoin:round;stroke-miterlimit:10"/><polyline points="86.7 374.63 93.79 374.63" style="stroke-width:1.07;stroke:#464646;stroke-linecap:butt;fill:none;stroke-linejoin:round;stroke-miterlimit:10"/><polyline points="86.7 325.16 93.79 325.16" style="stroke-width:1.07;stroke:#464646;stroke-linecap:butt;fill:none;stroke-linejoin:round;stroke-miterlimit:10"/><polyline points="86.7 275.69 93.79 275.69" style="stroke-width:1.07;stroke:#464646;stroke-linecap:butt;fill:none;stroke-linejoin:round;stroke-miterlimit:10"/><polyline points="86.7 226.22 93.79 226.22" style="stroke-width:1.07;stroke:#464646;stroke-linecap:butt;fill:none;stroke-linejoin:round;stroke-miterlimit:10"/><polyline points="86.7 176.75 93.79 176.75" style="stroke-width:1.07;stroke:#464646;stroke-linecap:butt;fill:none;stroke-linejoin:round;stroke-miterlimit:10"/><polyline points="86.7 127.29 93.79 127.29" style="stroke-width:1.07;stroke:#464646;stroke-linecap:butt;fill:none;stroke-linejoin:round;stroke-miterlimit:10"/><polyline points="86.7 77.82 93.79 77.82" style="stroke-width:1.07;stroke:#464646;stroke-linecap:butt;fill:none;stroke-linejoin:round;stroke-miterlimit:10"/><polyline points="86.7 28.35 93.79 28.35" style="stroke-width:1.07;stroke:#464646;stroke-linecap:butt;fill:none;stroke-linejoin:round;stroke-miterlimit:10"/><polyline points="93.79 424.1 761.81 424.1" style="stroke-width:1.07;stroke:#464646;stroke-linecap:butt;fill:none;stroke-linejoin:round;stroke-miterlimit:10"/><polyline points="93.79 431.19 93.79 424.1" style="stroke-width:1.07;stroke:#464646;stroke-linecap:butt;fill:none;stroke-linejoin:round;stroke-miterlimit:10"/><polyline points="227.39 431.19 227.39 424.1" style="stroke-width:1.07;stroke:#464646;stroke-linecap:butt;fill:none;stroke-linejoin:round;stroke-miterlimit:10"/><polyline points="361 431.19 361 424.1" style="stroke-width:1.07;stroke:#464646;stroke-linecap:butt;fill:none;stroke-linejoin:round;stroke-miterlimit:10"/><polyline points="494.6 431.19 494.6 424.1" style="stroke-width:1.07;stroke:#464646;stroke-linecap:butt;fill:none;stroke-linejoin:round;stroke-miterlimit:10"/><polyline points="628.21 431.19 628.21 424.1" style="stroke-width:1.07;stroke:#464646;stroke-linecap:butt;fill:none;stroke-linejoin:round;stroke-miterlimit:10"/><polyline points="761.81 431.19 761.81 424.1" style="stroke-width:1.07;stroke:#464646;stroke-linecap:butt;fill:none;stroke-linejoin:round;stroke-miterlimit:10"/><text x="74.53" y="453.79" style="font-size:18px;font-family:Asap" textLength="38.52" lengthAdjust="spacingAndGlyphs">1995</text><text x="208.13" y="453.79" style="font-size:18px;font-family:Asap" textLength="38.52" lengthAdjust="spacingAndGlyphs">2000</text><text x="341.74" y="453.79" style="font-size:18px;font-family:Asap" textLength="38.52" lengthAdjust="spacingAndGlyphs">2005</text><text x="475.34" y="453.79" style="font-size:18px;font-family:Asap" textLength="38.52" lengthAdjust="spacingAndGlyphs">2010</text><text x="608.95" y="453.79" style="font-size:18px;font-family:Asap" textLength="38.52" lengthAdjust="spacingAndGlyphs">2015</text><text x="742.55" y="453.79" style="font-size:18px;font-family:Asap" textLength="38.52" lengthAdjust="spacingAndGlyphs">2020</text><text x="407.71" y="486.59" style="font-size:20px;font-family:Asap Medium" textLength="40.18" lengthAdjust="spacingAndGlyphs">Year</text><text transform="rotate(-90 194.135 165.925)" style="font-size:20px;font-family:Asap Medium" textLength="100.56" lengthAdjust="spacingAndGlyphs">Percentage</text><text transform="rotate(-90 141.455 113.245)" style="font-size:20px;font-family:Asap Medium" textLength="64.74" lengthAdjust="spacingAndGlyphs">change</text><text transform="rotate(-90 106.685 78.475)" style="font-size:20px;font-family:Asap Medium" textLength="45.18" lengthAdjust="spacingAndGlyphs">since</text><text transform="rotate(-90 81.695 53.485)" style="font-size:20px;font-family:Asap Medium" textLength="42.8" lengthAdjust="spacingAndGlyphs">1995</text></svg>