<svg version="1.1" xmlns="http://www.w3.org/2000/svg" x="0" y="0" viewBox="0 0 311.81 202.61" style="enable-background:new 0 0 311.81 202.61" xml:space="preserve"><polyline style="fill:none;stroke:#ec2024;stroke-width:.5;stroke-linecap:square;stroke-linejoin:round" points="31.39 85.95 33.64 85.95 252.08 85.95 306.18 85.95"/><line style="fill:none;stroke:#6d6e70;stroke-width:.5;stroke-linecap:square;stroke-linejoin:round" x1="306.18" y1="175.18" x2="306.18" y2="177.3"/><line style="fill:none;stroke:#6d6e70;stroke-width:.5;stroke-linecap:square;stroke-linejoin:round" x1="237.37" y1="175.18" x2="237.37" y2="177.3"/><line style="fill:none;stroke:#6d6e70;stroke-width:.5;stroke-linecap:square;stroke-linejoin:round" x1="191.5" y1="175.18" x2="191.5" y2="177.3"/><line style="fill:none;stroke:#6d6e70;stroke-width:.5;stroke-linecap:square;stroke-linejoin:round" x1="145.63" y1="175.18" x2="145.63" y2="177.3"/><line style="fill:none;stroke:#6d6e70;stroke-width:.5;stroke-linecap:square;stroke-linejoin:round" x1="99.76" y1="175.18" x2="99.76" y2="177.3"/><line style="fill:none;stroke:#6d6e70;stroke-width:.5;stroke-linecap:square;stroke-linejoin:round" x1="30.96" y1="175.18" x2="30.96" y2="177.3"/><line style="fill:none;stroke:#6d6e70;stroke-width:.5;stroke-linecap:square;stroke-linejoin:round" x1="30.96" y1="174.74" x2="306.18" y2="174.74"/><text transform="translate(29.722 185.903)" style="fill:#231f20;font-family:'Asap-Regular';font-size:7px">0</text><text transform="translate(51.415 185.903)" style="fill:#231f20;font-family:'Asap-Regular';font-size:7px">5</text><text transform="translate(210.732 185.903)" style="fill:#231f20;font-family:'Asap-Regular';font-size:7px">40</text><text transform="translate(233.17 185.903)" style="fill:#231f20;font-family:'Asap-Regular';font-size:7px">45</text><text transform="translate(256.609 185.903)" style="fill:#231f20;font-family:'Asap-Regular';font-size:7px">50</text><text transform="translate(303.484 185.902)" style="fill:#231f20;font-family:'Asap-Regular';font-size:7px">60</text><text transform="translate(54.88 6.268)" style="fill:#221f1f;font-family:'Asap-Regular';font-size:6px">MC (lower capacity)</text><text transform="translate(54.88 23.937)"><tspan x="0" y="0" style="fill:#221f1f;font-family:'Asap-Regular';font-size:6px">Average costs (</tspan><tspan x="39.82" y="0" style="fill:#221f1f;font-family:'Asap-Italic';font-size:6px">Q</tspan><tspan x="44.2" y="0" style="fill:#221f1f;font-family:'Asap-Regular';font-size:6px"> &gt; 40)</tspan></text><line style="fill:none;stroke:#6d6e70;stroke-width:.5;stroke-linecap:square;stroke-linejoin:round" x1="30.52" y1="32.67" x2="28.4" y2="32.67"/><line style="fill:none;stroke:#6d6e70;stroke-width:.5;stroke-linecap:square;stroke-linejoin:round" x1="30.52" y1="85.95" x2="28.4" y2="85.95"/><line style="fill:none;stroke:#6d6e70;stroke-width:.5;stroke-linecap:square;stroke-linejoin:round" x1="30.52" y1="174.74" x2="28.4" y2="174.74"/><line style="fill:none;stroke:#6d6e70;stroke-width:.5;stroke-linecap:square;stroke-linejoin:round" x1="30.52" y1="156.98" x2="28.4" y2="156.98"/><line style="fill:none;stroke:#6d6e70;stroke-width:.5;stroke-linecap:square;stroke-linejoin:round" x1="30.52" y1="139.22" x2="28.4" y2="139.22"/><text transform="translate(14.067 52.96)" style="fill:#231f20;font-family:'Asap-Regular';font-size:7px">3.5</text><text transform="translate(19.197 70.638)" style="fill:#231f20;font-family:'Asap-Regular';font-size:7px">3</text><text transform="translate(15.746 88.316)" style="fill:#231f20;font-family:'Asap-Regular';font-size:7px">2.5</text><text transform="translate(19.198 105.993)" style="fill:#231f20;font-family:'Asap-Regular';font-size:7px">2</text><text transform="translate(19.197 141.348)" style="fill:#231f20;font-family:'Asap-Regular';font-size:7px">1</text><text transform="translate(19.197 176.705)" style="fill:#231f20;font-family:'Asap-Regular';font-size:7px">0</text><line style="fill:none;stroke:#6d6e70;stroke-width:.5;stroke-linecap:square;stroke-linejoin:round" x1="30.96" y1="174.74" x2="30.96" y2="32.67"/><text transform="translate(54.88 15.082)" style="fill:#221f1f;font-family:'Asap-Regular';font-size:6px">Average costs</text><line style="fill:none;stroke:#6d6e70;stroke-width:.5;stroke-linecap:square;stroke-linejoin:round" x1="30.52" y1="68.19" x2="28.4" y2="68.19"/><text transform="translate(14.066 123.671)" style="fill:#231f20;font-family:'Asap-Regular';font-size:7px">1.5</text><text transform="translate(14.066 159.026)" style="fill:#231f20;font-family:'Asap-Regular';font-size:7px">0.5</text><line style="fill:none;stroke:#3a52a3;stroke-width:.5;stroke-linecap:square;stroke-linejoin:round" x1="32.82" y1="4.43" x2="53.15" y2="4.43"/><text transform="translate(168.571 6.616)" style="fill:#221f1f;font-family:'Asap-Regular';font-size:6px">MC (higher capacity)</text><text transform="translate(168.571 15.382)" style="fill:#221f1f;font-family:'Asap-Regular';font-size:6px">Market price</text><line style="fill:none;stroke:#939598;stroke-width:.5;stroke-linecap:square;stroke-linejoin:round" x1="32.82" y1="13.24" x2="53.15" y2="13.24"/><line style="fill:none;stroke:#939598;stroke-width:.5;stroke-linecap:square;stroke-linejoin:round;stroke-dasharray:1.417" x1="32.82" y1="22.1" x2="53.15" y2="22.1"/><line style="fill:none;stroke:#3a52a3;stroke-width:.5;stroke-linecap:square;stroke-linejoin:round;stroke-dasharray:1.417" x1="145.7" y1="4.43" x2="166.02" y2="4.43"/><line style="fill:none;stroke:#ec2024;stroke-width:.5;stroke-linecap:square;stroke-linejoin:round" x1="145.7" y1="13.24" x2="166.02" y2="13.24"/><line style="fill:none;stroke:#6d6e70;stroke-width:.5;stroke-linecap:square;stroke-linejoin:round" x1="30.52" y1="103.71" x2="28.4" y2="103.71"/><line style="fill:none;stroke:#6d6e70;stroke-width:.5;stroke-linecap:square;stroke-linejoin:round" x1="30.52" y1="121.47" x2="28.4" y2="121.47"/><polyline style="fill:none;stroke:#3a52a3;stroke-width:.5;stroke-linecap:square;stroke-linejoin:round;stroke-dasharray:1.417" points="31.39 139.22 214.44 139.22 214.44 68.19"/><text transform="translate(168.571 23.938)" style="fill:#221f1f;font-family:'Asap-Regular';font-size:6px">Average costs (higher capacity)</text><line style="fill:none;stroke:#221f1f;stroke-width:.5;stroke-linecap:square;stroke-linejoin:round" x1="145.7" y1="22.1" x2="166.02" y2="22.1"/><text transform="translate(19.198 35.282)" style="fill:#231f20;font-family:'Asap-Regular';font-size:7px">4</text><line style="fill:none;stroke:#6d6e70;stroke-width:.5;stroke-linecap:square;stroke-linejoin:round" x1="30.52" y1="50.43" x2="28.4" y2="50.43"/><text transform="translate(280.046 185.902)" style="fill:#231f20;font-family:'Asap-Regular';font-size:7px">55</text><text transform="translate(71.108 185.903)" style="fill:#231f20;font-family:'Asap-Regular';font-size:7px">10</text><text transform="translate(94.545 185.903)" style="fill:#231f20;font-family:'Asap-Regular';font-size:7px">15</text><text transform="translate(117.983 185.903)" style="fill:#231f20;font-family:'Asap-Regular';font-size:7px">20</text><text transform="translate(141.42 185.902)" style="fill:#231f20;font-family:'Asap-Regular';font-size:7px">25</text><text transform="translate(188.295 185.902)" style="fill:#231f20;font-family:'Asap-Regular';font-size:7px">35</text><text transform="translate(164.858 185.903)" style="fill:#231f20;font-family:'Asap-Regular';font-size:7px">30</text><line style="fill:none;stroke:#6d6e70;stroke-width:.5;stroke-linecap:square;stroke-linejoin:round" x1="53.89" y1="175.18" x2="53.89" y2="177.3"/><line style="fill:none;stroke:#6d6e70;stroke-width:.5;stroke-linecap:square;stroke-linejoin:round" x1="76.83" y1="175.18" x2="76.83" y2="177.3"/><line style="fill:none;stroke:#6d6e70;stroke-width:.5;stroke-linecap:square;stroke-linejoin:round" x1="122.7" y1="175.18" x2="122.7" y2="177.3"/><line style="fill:none;stroke:#6d6e70;stroke-width:.5;stroke-linecap:square;stroke-linejoin:round" x1="168.57" y1="175.18" x2="168.57" y2="177.3"/><line style="fill:none;stroke:#6d6e70;stroke-width:.5;stroke-linecap:square;stroke-linejoin:round" x1="214.44" y1="175.18" x2="214.44" y2="177.3"/><line style="fill:none;stroke:#6d6e70;stroke-width:.5;stroke-linecap:square;stroke-linejoin:round" x1="260.31" y1="175.18" x2="260.31" y2="177.3"/><line style="fill:none;stroke:#6d6e70;stroke-width:.5;stroke-linecap:square;stroke-linejoin:round" x1="283.24" y1="175.18" x2="283.24" y2="177.3"/><polyline style="fill:none;stroke:#3a52a3;stroke-width:.5;stroke-linecap:square;stroke-linejoin:round" points="214.44 68.19 145.63 68.19 145.63 139.22 30.52 139.22"/><line style="fill:none;stroke:#3a52a3;stroke-width:.5;stroke-linecap:square;stroke-linejoin:round;stroke-dasharray:1.417" x1="214.44" y1="68.19" x2="306.18" y2="68.19"/><path style="fill:none;stroke:#939598;stroke-width:.5;stroke-miterlimit:10;stroke-dasharray:1.417" d="M215.51 117.61c20.89 2.52 51.07 5.26 91.59 6.86"/><path style="fill:none;stroke:#939598;stroke-width:.5;stroke-miterlimit:10" d="M80.45 32.67c11.34 25.3 38.73 67.47 98.21 79.2 0 0 11.68 2.71 36.86 5.75"/><path style="fill:none;stroke:#221f1f;stroke-width:.5;stroke-miterlimit:10" d="M89.16 32.67c11.77 25.6 38.28 62.37 95.4 73.13 0 0 37.71 8.38 123.46 12.08"/><text transform="rotate(-90 69.706 61.427)"><tspan x="0" y="0" style="fill:#231f20;font-family:'Asap-Medium';font-size:8px">Price, </tspan><tspan x="21.3" y="0" style="fill:#231f20;font-family:'Asap-MediumItalic';font-size:8px">P</tspan><tspan x="25.86" y="0" style="fill:#231f20;font-family:'Asap-Medium';font-size:8px">, MC and AC (€</tspan><tspan x="77.06" y="0" style="fill:#231f20;font-family:'Asap-Regular';font-size:8px">)</tspan></text><text transform="translate(123.735 199.423)"><tspan x="0" y="0" style="fill:#231f20;font-family:'Asap-Medium';font-size:8px">Quantity of loaves, </tspan><tspan x="67.84" y="0" style="fill:#231f20;font-family:'Asap-MediumItalic';font-size:8px">Q</tspan></text></svg>