<svg version="1.1" xmlns="http://www.w3.org/2000/svg" x="0" y="0" viewBox="0 0 311.81 219.97" style="enable-background:new 0 0 311.81 219.97" xml:space="preserve"><path d="M244.13 179.9c-1.59-17.27-7.52-54.43-35-89.43C161.77 30.16 89.34 25.84 77.68 25.33" style="stroke:#f49323;stroke-linecap:square;stroke-linejoin:round;fill:none;stroke-width:.5"/><path d="M123 11.78c2.92 9.32 7.33 22.06 13.8 36.77 8.36 18.99 15.74 35.76 30.49 54.13 8.48 10.56 20.25 24.93 40.83 36.43 14.05 7.85 27.08 11.5 36 13.33" style="stroke:#0871b9;stroke-miterlimit:10;fill:none;stroke-width:.5"/><text transform="translate(250.013 155.778)" style="font-size:7px;font-family:'Asap-Regular'">IC</text><text transform="matrix(.583 0 0 .583 256.327 158.109)" style="font-size:7px;font-family:'Asap-Regular'">2</text><text transform="translate(180.75 133.553)" style="font-size:7px;font-family:'Asap-Regular'">L</text><path d="M129.44 11.78c6.67 21.81 15.34 38.75 22.36 50.52 6.73 11.27 17.23 28.56 36.33 45.48 12.25 10.85 22.43 16.6 25.33 18.19a130.058 130.058 0 0030.67 12.1" style="stroke:#273a71;stroke-linecap:square;stroke-linejoin:round;stroke-miterlimit:10;fill:none;stroke-width:.5"/><text transform="translate(192.108 68.696)" style="font-size:7px;font-family:'Asap-Regular'">A</text><text transform="translate(217.261 93.582)" style="font-size:7px;font-family:'Asap-Regular'">M</text><text transform="translate(215.801 124.297)" style="font-size:7px;font-family:'Asap-Regular'">N</text><text transform="translate(250.013 138.853)" style="font-size:7px;font-family:'Asap-Regular'">IC</text><text transform="matrix(.583 0 0 .583 256.327 141.184)" style="font-size:7px;font-family:'Asap-Regular'">N</text><line x1="77.15" y1="125.97" x2="213.46" y2="125.97" style="stroke:#939598;stroke-dasharray:1.417;stroke-linecap:square;stroke-linejoin:round;stroke-miterlimit:10;fill:none;stroke-width:.5"/><circle cx="213.46" cy="96.41" r="1.13" style="fill:#000101"/><line x1="188.53" y1="106.78" x2="188.53" y2="178.9" style="stroke:#939598;stroke-dasharray:1.417;stroke-linecap:square;stroke-linejoin:round;stroke-miterlimit:10;fill:none;stroke-width:.5"/><line x1="188.53" y1="100.24" x2="188.53" y2="107.78" style="fill:none;stroke:#000;stroke-width:.5;stroke-linecap:square;stroke-linejoin:round;stroke-miterlimit:10"/><line x1="188.53" y1="68.67" x2="188.53" y2="99.1" style="stroke:#939598;stroke-dasharray:1.417;stroke-linecap:square;stroke-linejoin:round;stroke-miterlimit:10;fill:none;stroke-width:.5"/><circle cx="188.69" cy="125.97" r="1.13" style="fill:#000101"/><text transform="translate(190.82 96.266)" style="font-size:7px;font-family:'Asap-Regular'">R</text><text transform="translate(180.155 114.619)" style="font-size:7px;font-family:'Asap-Regular'">P</text><line x1="188.13" y1="99.27" x2="213.46" y2="126.06" style="stroke:#939598;fill:none;stroke-width:.5;stroke-linecap:square;stroke-linejoin:round;stroke-miterlimit:10"/><circle cx="213.46" cy="126.06" r="1.13" style="fill:#000101"/><line x1="77.68" y1="68.51" x2="189.14" y2="68.51" style="stroke:#939598;stroke-dasharray:1.417;stroke-linecap:square;stroke-linejoin:round;stroke-miterlimit:10;fill:none;stroke-width:.5"/><circle cx="188.53" cy="68.67" r="1.13" style="fill:#000101"/><text transform="translate(84.127 66.07)" style="font-size:6px;font-family:'Asap-Regular'">46 bushels</text><text transform="translate(84.668 124.297)" style="font-size:6px;font-family:'Asap-Regular'">23 bushels</text><text transform="translate(164.127 80.111)" style="font-size:6px;font-family:'Asap-Regular'">AR = MN</text><line x1="77.42" y1="99.27" x2="188.13" y2="99.27" style="stroke:#939598;stroke-dasharray:1.417;stroke-linecap:square;stroke-linejoin:round;stroke-miterlimit:10;fill:none;stroke-width:.5"/><line x1="77.05" y1="107.39" x2="187.75" y2="107.39" style="stroke:#939598;stroke-dasharray:1.417;stroke-linecap:square;stroke-linejoin:round;stroke-miterlimit:10;fill:none;stroke-width:.5"/><text transform="translate(84.128 97.41)" style="font-size:6px;font-family:'Asap-Regular'">34 bushels</text><text transform="translate(84.398 106.138)" style="font-size:6px;font-family:'Asap-Regular'">30 bushels</text><line x1="76.93" y1="179.44" x2="74.8" y2="179.44" style="fill:none;stroke:#6d6e71;stroke-width:.5;stroke-linecap:square;stroke-linejoin:round"/><line x1="76.93" y1="167.39" x2="74.8" y2="167.39" style="fill:none;stroke:#6d6e71;stroke-width:.5;stroke-linecap:square;stroke-linejoin:round"/><line x1="76.93" y1="155.39" x2="74.8" y2="155.39" style="fill:none;stroke:#6d6e71;stroke-width:.5;stroke-linecap:square;stroke-linejoin:round"/><line x1="76.93" y1="143.39" x2="74.8" y2="143.39" style="fill:none;stroke:#6d6e71;stroke-width:.5;stroke-linecap:square;stroke-linejoin:round"/><line x1="76.93" y1="131.39" x2="74.8" y2="131.39" style="fill:none;stroke:#6d6e71;stroke-width:.5;stroke-linecap:square;stroke-linejoin:round"/><line x1="76.93" y1="119.39" x2="74.8" y2="119.39" style="fill:none;stroke:#6d6e71;stroke-width:.5;stroke-linecap:square;stroke-linejoin:round"/><line x1="76.93" y1="107.39" x2="74.8" y2="107.39" style="fill:none;stroke:#6d6e71;stroke-width:.5;stroke-linecap:square;stroke-linejoin:round"/><line x1="76.93" y1="95.39" x2="74.8" y2="95.39" style="fill:none;stroke:#6d6e71;stroke-width:.5;stroke-linecap:square;stroke-linejoin:round"/><line x1="76.93" y1="83.39" x2="74.8" y2="83.39" style="fill:none;stroke:#6d6e71;stroke-width:.5;stroke-linecap:square;stroke-linejoin:round"/><line x1="76.93" y1="71.39" x2="74.8" y2="71.39" style="fill:none;stroke:#6d6e71;stroke-width:.5;stroke-linecap:square;stroke-linejoin:round"/><line x1="76.93" y1="35.39" x2="74.8" y2="35.39" style="fill:none;stroke:#6d6e71;stroke-width:.5;stroke-linecap:square;stroke-linejoin:round"/><line x1="76.93" y1="23.39" x2="74.8" y2="23.39" style="fill:none;stroke:#6d6e71;stroke-width:.5;stroke-linecap:square;stroke-linejoin:round"/><line x1="76.93" y1="59.39" x2="74.8" y2="59.39" style="fill:none;stroke:#6d6e71;stroke-width:.5;stroke-linecap:square;stroke-linejoin:round"/><line x1="76.93" y1="47.39" x2="74.8" y2="47.39" style="fill:none;stroke:#6d6e71;stroke-width:.5;stroke-linecap:square;stroke-linejoin:round"/><line x1="76.93" y1="11.39" x2="74.8" y2="11.39" style="fill:none;stroke:#6d6e71;stroke-width:.5;stroke-linecap:square;stroke-linejoin:round"/><line x1="77.2" y1="179.51" x2="77.2" y2="181.69" style="fill:none;stroke-width:.5;stroke:#6d6e71;stroke-linecap:square"/><line x1="84.15" y1="179.51" x2="84.15" y2="181.64" style="fill:none;stroke-width:.5;stroke:#6d6e71;stroke-linecap:square"/><line x1="91.11" y1="179.51" x2="91.11" y2="181.64" style="fill:none;stroke-width:.5;stroke:#6d6e71;stroke-linecap:square"/><line x1="98.07" y1="179.51" x2="98.07" y2="181.64" style="fill:none;stroke-width:.5;stroke:#6d6e71;stroke-linecap:square"/><line x1="105.03" y1="179.51" x2="105.03" y2="181.64" style="fill:none;stroke-width:.5;stroke:#6d6e71;stroke-linecap:square"/><line x1="111.99" y1="179.51" x2="111.99" y2="181.64" style="fill:none;stroke-width:.5;stroke:#6d6e71;stroke-linecap:square"/><line x1="118.95" y1="179.51" x2="118.95" y2="181.64" style="fill:none;stroke-width:.5;stroke:#6d6e71;stroke-linecap:square"/><line x1="125.9" y1="179.51" x2="125.9" y2="181.64" style="fill:none;stroke-width:.5;stroke:#6d6e71;stroke-linecap:square"/><line x1="132.86" y1="179.51" x2="132.86" y2="181.64" style="fill:none;stroke-width:.5;stroke:#6d6e71;stroke-linecap:square"/><line x1="139.82" y1="179.51" x2="139.82" y2="181.64" style="fill:none;stroke-width:.5;stroke:#6d6e71;stroke-linecap:square"/><line x1="146.78" y1="179.51" x2="146.78" y2="181.64" style="fill:none;stroke-width:.5;stroke:#6d6e71;stroke-linecap:square"/><line x1="153.74" y1="179.51" x2="153.74" y2="181.64" style="fill:none;stroke-width:.5;stroke:#6d6e71;stroke-linecap:square"/><line x1="160.7" y1="179.51" x2="160.7" y2="181.64" style="fill:none;stroke-width:.5;stroke:#6d6e71;stroke-linecap:square"/><line x1="167.65" y1="179.51" x2="167.65" y2="181.64" style="fill:none;stroke-width:.5;stroke:#6d6e71;stroke-linecap:square"/><line x1="174.61" y1="179.51" x2="174.61" y2="181.64" style="fill:none;stroke-width:.5;stroke:#6d6e71;stroke-linecap:square"/><line x1="181.57" y1="179.51" x2="181.57" y2="181.64" style="fill:none;stroke-width:.5;stroke:#6d6e71;stroke-linecap:square"/><line x1="188.53" y1="179.51" x2="188.53" y2="181.64" style="fill:none;stroke-width:.5;stroke:#6d6e71;stroke-linecap:square"/><line x1="195.49" y1="179.51" x2="195.49" y2="181.64" style="fill:none;stroke-width:.5;stroke:#6d6e71;stroke-linecap:square"/><line x1="202.45" y1="179.51" x2="202.45" y2="181.64" style="fill:none;stroke-width:.5;stroke:#6d6e71;stroke-linecap:square"/><line x1="209.4" y1="179.51" x2="209.4" y2="181.64" style="fill:none;stroke-width:.5;stroke:#6d6e71;stroke-linecap:square"/><line x1="216.36" y1="179.51" x2="216.36" y2="181.64" style="fill:none;stroke-width:.5;stroke:#6d6e71;stroke-linecap:square"/><line x1="223.32" y1="179.51" x2="223.32" y2="181.64" style="fill:none;stroke-width:.5;stroke:#6d6e71;stroke-linecap:square"/><line x1="230.28" y1="179.51" x2="230.28" y2="181.64" style="fill:none;stroke-width:.5;stroke:#6d6e71;stroke-linecap:square"/><line x1="237.24" y1="179.51" x2="237.24" y2="181.64" style="fill:none;stroke-width:.5;stroke:#6d6e71;stroke-linecap:square"/><line x1="244.2" y1="179.51" x2="244.2" y2="181.64" style="fill:none;stroke-width:.5;stroke:#6d6e71;stroke-linecap:square"/><text transform="translate(67.103 181.586)" style="font-size:7px;font-family:'Asap-Regular'">0</text><text transform="translate(75.318 190.994)" style="font-size:7px;font-family:'Asap-Regular'">0</text><text transform="translate(63.36 157.535)" style="font-size:7px;font-family:'Asap-Regular'">10</text><text transform="translate(63.36 133.535)" style="font-size:7px;font-family:'Asap-Regular'">20</text><text transform="translate(63.36 109.535)" style="font-size:7px;font-family:'Asap-Regular'">30</text><text transform="translate(63.36 85.534)" style="font-size:7px;font-family:'Asap-Regular'">40</text><text transform="translate(63.36 61.535)" style="font-size:7px;font-family:'Asap-Regular'">50</text><text transform="translate(63.36 37.535)" style="font-size:7px;font-family:'Asap-Regular'">60</text><text transform="translate(63.36 13.535)" style="font-size:7px;font-family:'Asap-Regular'">70</text><text transform="translate(103.157 190.994)" style="font-size:7px;font-family:'Asap-Regular'">4</text><text transform="translate(130.99 190.994)" style="font-size:7px;font-family:'Asap-Regular'">8</text><text transform="translate(156.951 190.995)" style="font-size:7px;font-family:'Asap-Regular'">12</text><text transform="translate(184.784 190.994)" style="font-size:7px;font-family:'Asap-Regular'">16</text><text transform="translate(212.618 190.994)" style="font-size:7px;font-family:'Asap-Regular'">20</text><text transform="translate(240.451 190.994)" style="font-size:7px;font-family:'Asap-Regular'">24</text><path d="M77.2 11.39V179.2" style="fill:none;stroke:#6d6e71;stroke-width:.5;stroke-linecap:square;stroke-linejoin:round"/><line x1="77.2" y1="179.39" x2="244.2" y2="179.39" style="fill:none;stroke:#6d6e71;stroke-width:.5;stroke-linecap:square"/><path d="M188.69 106.26a1.129 1.129 0 110 2.26 1.129 1.129 0 110-2.26M188.69 97.97a1.129 1.129 0 110 2.26 1.129 1.129 0 110-2.26" style="fill:#000101"/><text transform="matrix(0 -.9726 1 0 53.788 122.646)" style="font-size:8px;font-family:'Asap-Medium'">Bushels of grain</text><text transform="translate(113.461 200.968)" style="font-size:8px;font-family:'Asap-Medium'">Angela’s hours of free time</text></svg>