<svg version="1.1" xmlns="http://www.w3.org/2000/svg" x="0" y="0" viewBox="0 0 311.81 177.43" style="enable-background:new 0 0 311.81 177.43" xml:space="preserve"><rect x="108.6" y="54.29" style="fill:none;stroke:#ec2426;stroke-width:.5;stroke-miterlimit:10" width="39" height="24.17"/><rect x="166.44" y="54.87" style="fill:none;stroke:#ec2426;stroke-width:.5;stroke-miterlimit:10" width="39" height="24.17"/><text transform="translate(176.227 65.442)"><tspan x="0" y="0" style="fill:#ed2124;font-family:'Asap-Regular';font-size:6px">Wages </tspan><tspan x="-5.34" y="7.2" style="fill:#ed2124;font-family:'Asap-Regular';font-size:6px">remain low</tspan></text><text transform="translate(115.642 65.019)"><tspan x="0" y="0" style="fill:#ed2124;font-family:'Asap-Regular';font-size:6px">Power of </tspan><tspan x="-4.42" y="7.2" style="fill:#ed2124;font-family:'Asap-Regular';font-size:6px">workers falls</tspan></text><line style="fill:none;stroke:#ed2124;stroke-width:.5;stroke-miterlimit:10" x1="148" y1="72.82" x2="160.3" y2="72.82"/><polygon style="fill:#ed2124" points="158.64 74.87 158.3 74.5 160.11 72.82 158.3 71.14 158.64 70.78 160.84 72.82"/><line style="fill:none;stroke:#ed2124;stroke-width:.5;stroke-miterlimit:10" x1="128.14" y1="44.79" x2="128.14" y2="50.46"/><polygon style="fill:#ed2124" points="126.1 48.8 126.46 48.46 128.14 50.27 129.82 48.46 130.19 48.8 128.14 51"/><rect x="101.55" y="5.5" style="fill:none;stroke:#ec2426;stroke-width:.471;stroke-miterlimit:10" width="52.14" height="39.46"/><text transform="translate(107.052 15.281)"><tspan x="0" y="0" style="fill:#ed2124;font-family:'Asap-Regular';font-size:6px">Average output </tspan><tspan x="-.62" y="7.2" style="fill:#ed2124;font-family:'Asap-Regular';font-size:6px">per worker rises,</tspan><tspan x="-3.07" y="14.4" style="fill:#ed2124;font-family:'Asap-Regular';font-size:6px">but some workers </tspan><tspan x="3.35" y="21.6" style="fill:#ed2124;font-family:'Asap-Regular';font-size:6px">are displaced</tspan></text></svg>