<svg xmlns="http://www.w3.org/2000/svg" class="prefix__svglite" viewBox="0 0 810 600"><rect width="100%" height="100%" style="stroke:none;fill:#fff;stroke-linecap:round;stroke-linejoin:round;stroke-miterlimit:10"/><defs><clipPath id="prefix__a"><rect x="0" y="0" width="810" height="600" style="fill:none;stroke:#000;stroke-linecap:round;stroke-linejoin:round;stroke-miterlimit:10"/></clipPath></defs><g clip-path="url(#prefix__a)"><rect x="0" y="0" width="810" height="600" style="stroke-width:1.07;stroke:#fff;fill:#fff;stroke-linecap:round;stroke-linejoin:round;stroke-miterlimit:10"/><rect x="93.36" y="14.17" width="702.47" height="504.92" style="stroke-width:1.07;stroke:none;fill:#fff;stroke-linecap:round;stroke-linejoin:round;stroke-miterlimit:10"/><circle cx="455.75" cy="139.68" r="2.2" style="stroke-width:1.2;fill:#000;stroke:#000;stroke-linecap:round;stroke-linejoin:round;stroke-miterlimit:10"/><circle cx="428.62" cy="333.73" r="2.2" style="stroke-width:1.2;fill:#000;stroke:#000;stroke-linecap:round;stroke-linejoin:round;stroke-miterlimit:10"/><circle cx="526.58" cy="249.33" r="2.2" style="stroke-width:1.2;fill:#000;stroke:#000;stroke-linecap:round;stroke-linejoin:round;stroke-miterlimit:10"/><circle cx="387.05" cy="398.85" r="2.2" style="stroke-width:1.2;fill:#000;stroke:#000;stroke-linecap:round;stroke-linejoin:round;stroke-miterlimit:10"/><circle cx="471.92" cy="224.76" r="2.2" style="stroke-width:1.2;fill:#000;stroke:#000;stroke-linecap:round;stroke-linejoin:round;stroke-miterlimit:10"/><circle cx="493.28" cy="368.55" r="2.2" style="stroke-width:1.2;fill:#000;stroke:#000;stroke-linecap:round;stroke-linejoin:round;stroke-miterlimit:10"/><line x1="93.36" y1="-264.52" x2="795.83" y2="519.21" style="stroke-width:1.07;stroke:#ed1f24;stroke-linecap:butt;fill:none;stroke-linejoin:round;stroke-miterlimit:10"/><line x1="93.36" y1="164.74" x2="795.83" y2="519.33" style="stroke-width:1.07;stroke:#ed1f24;stroke-linecap:butt;fill:none;stroke-linejoin:round;stroke-miterlimit:10"/><line x1="93.36" y1="-184.54" x2="795.83" y2="519.26" style="stroke-width:1.07;stroke:#ed1f24;stroke-linecap:butt;fill:none;stroke-linejoin:round;stroke-miterlimit:10"/><line x1="93.36" y1="313.55" x2="795.83" y2="520.18" style="stroke-width:1.07;stroke:#ed1f24;stroke-linecap:butt;fill:none;stroke-linejoin:round;stroke-miterlimit:10"/><line x1="93.36" y1="-119.67" x2="795.83" y2="518.67" style="stroke-width:1.07;stroke:#ed1f24;stroke-linecap:butt;fill:none;stroke-linejoin:round;stroke-miterlimit:10"/><text x="431.05" y="252.39" style="font-size:14px;font-family:Asap" textLength="55.19" lengthAdjust="spacingAndGlyphs">Australia</text><text x="352.05" y="421.54" style="font-size:14px;font-family:Asap" textLength="44.6" lengthAdjust="spacingAndGlyphs">Mexico</text><text x="558.77" y="251.93" style="font-size:14px;font-family:Asap" textLength="76.24" lengthAdjust="spacingAndGlyphs">Netherlands</text><text x="432.81" y="374.07" style="font-size:14px;font-family:Asap" textLength="52.16" lengthAdjust="spacingAndGlyphs">Slovakia</text><text x="366.56" y="354.38" style="font-size:14px;font-family:Asap" textLength="35.45" lengthAdjust="spacingAndGlyphs">South</text><text x="405.37" y="354.38" style="font-size:14px;font-family:Asap" textLength="36.32" lengthAdjust="spacingAndGlyphs">Korea</text><text x="446.65" y="123.63" style="font-size:14px;font-family:Asap" textLength="16.96" lengthAdjust="spacingAndGlyphs">US</text><polyline points="290.05 276.73 290.1 276.89 290.39 277.81 291.04 279.82 291.98 282.76 293.05 286.13 294.12 289.44 295.13 292.53 296.1 295.4 297.05 298.08 298.03 300.67 298.6 302.11 299.65 304.65 300.72 307.12 301.79 309.47 302.82 311.67 303.82 313.74 304.81 315.77 305.86 317.87 307 320.1 308.25 322.43 309.57 324.81 310.33 326.14 311.73 328.5 313.15 330.8 314.54 332.97 315.89 335 317.17 336.9 318.45 338.77 319.79 340.7 321.24 342.74 322.8 344.86 324.46 347.03 325.4 348.23 327.13 350.37 328.86 352.44 330.55 354.39 332.17 356.2 333.72 357.9 335.25 359.56 336.85 361.28 338.58 363.09 340.43 364.97 342.38 366.88 343.49 367.93 345.51 369.8 347.52 371.59 349.47 373.28 351.34 374.84 353.11 376.3 354.86 377.73 356.7 379.2 358.67 380.74 360.77 382.33 362.98 383.94 364.22 384.82 366.49 386.38 368.82 387.92 371.29 389.48 373.95 391.11 376.82 392.84 379.87 394.66 382.79 396.41 385.12 397.8 386.5 398.63 386.96 398.91 386.99 398.92" style="stroke-width:1.07;stroke:#3a53a4;stroke-linecap:butt;fill:none;stroke-linejoin:round;stroke-miterlimit:10"/><polyline points="386.99 398.92 387.19 398.98 388.29 399.33 390.39 399.99 392.89 400.77 395.25 401.51 397.4 402.17 399.4 402.78 400.99 403.25 402.94 403.82 404.82 404.36 406.57 404.85 408.19 405.3 409.83 405.75 411.61 406.24 413.52 406.75 415.12 407.17 417.09 407.67 418.98 408.15 420.75 408.58 422.38 408.97 424.04 409.37 425.83 409.8 427.75 410.24 429.37 410.61 431.35 411.05 433.26 411.46 435.04 411.83 436.69 412.17 438.35 412.51 440.16 412.88 442.1 413.26 443.73 413.57 445.72 413.94 447.65 414.29 449.43 414.6 451.09 414.89 452.77 415.18 454.59 415.48 456.54 415.8 458.17 416.06 460.19 416.36 462.28 416.67 464.55 416.99 467.04 417.33 469.61 417.69 471.63 417.96 472.57 418.09 472.69 418.11" style="stroke-width:1.07;stroke:#3a53a4;stroke-linecap:butt;fill:none;stroke-linejoin:round;stroke-miterlimit:10"/><polyline points="325.17 178.27 325.2 178.42 325.37 179.31 325.74 181.31 326.32 184.37 327.02 188.07 327.75 191.93 328.45 195.6 329.13 199.04 329.81 202.26 330.51 205.3 331.25 208.26 331.76 210.15 332.59 213.07 333.46 215.92 334.35 218.67 335.23 221.26 336.1 223.7 336.95 226.04 337.82 228.4 338.76 230.87 339.78 233.47 340.9 236.17 342.1 238.93 342.9 240.69 344.19 243.43 345.51 246.11 346.84 248.67 348.13 251.08 349.38 253.35 350.61 255.52 351.85 257.71 353.17 259.99 354.61 262.39 356.15 264.88 357.78 267.4 358.86 269.01 360.58 271.5 362.32 273.93 364.04 276.24 365.71 278.41 367.31 280.44 368.87 282.39 370.45 284.35 372.13 286.38 373.93 288.52 375.86 290.72 377.88 292.94 379.2 294.36 381.31 296.54 383.42 298.65 385.49 300.65 387.49 302.52 389.41 304.26 391.26 305.93 393.14 307.6 395.12 309.34 397.25 311.15 399.51 313.01 401.87 314.88 403.4 316.06 405.84 317.87 408.33 319.65 410.95 321.44 413.75 323.3 416.76 325.25 419.98 327.31 423.29 329.42 426.32 331.35 428.66 332.84 430.03 333.71 430.51 334.02 430.54 334.04" style="stroke-width:1.07;stroke:#3a53a4;stroke-linecap:butt;fill:none;stroke-linejoin:round;stroke-miterlimit:10"/><polyline points="430.54 334.04 430.71 334.12 431.68 334.56 433.68 335.47 436.34 336.68 439.08 337.93 441.64 339.09 444 340.15 446.22 341.13 448.4 342.07 448.54 342.13 450.71 343.05 452.83 343.93 454.84 344.75 456.71 345.5 458.5 346.22 460.37 346.96 462.37 347.75 464.51 348.57 466.71 349.4 466.86 349.46 469.08 350.28 471.23 351.06 473.28 351.79 475.18 352.45 477 353.08 478.9 353.74 480.94 354.43 483.11 355.15 485.35 355.88 485.51 355.93 487.75 356.64 489.95 357.33 492.02 357.95 493.95 358.53 495.8 359.08 497.73 359.64 499.8 360.24 502 360.86 504.27 361.49 504.43 361.53 506.71 362.13 508.93 362.71 511.03 363.24 512.98 363.73 514.86 364.19 516.81 364.67 518.91 365.17 521.14 365.68 523.44 366.2 523.59 366.23 525.91 366.74 528.27 367.23 530.79 367.75 533.53 368.29 536.49 368.87 539.38 369.44 541.6 369.88 542.72 370.1 542.94 370.14 542.94 370.14" style="stroke-width:1.07;stroke:#3a53a4;stroke-linecap:butt;fill:none;stroke-linejoin:round;stroke-miterlimit:10"/><polyline points="395.42 -36.32 395.42 -36.17 395.42 -35.26 395.41 -33.21 395.4 -30.1 395.4 -26.36 395.39 -22.49 395.38 -18.81 395.41 -15.36 395.46 -12.14 395.56 -9.06 395.7 -6.06 395.79 -4.54 396 -1.55 396.26 1.38 396.54 4.22 396.85 6.9 397.16 9.43 397.47 11.86 397.8 14.33 398.17 16.93 398.59 19.67 399.07 22.54 399.6 25.47 399.88 26.94 400.49 29.88 401.12 32.76 401.78 35.52 402.43 38.14 403.07 40.61 403.71 42.98 404.35 45.39 405.06 47.91 405.83 50.58 406.68 53.36 407.6 56.19 408.07 57.62 409.06 60.45 410.07 63.22 411.08 65.88 412.07 68.39 413.03 70.75 413.97 73.02 414.93 75.32 415.95 77.73 417.07 80.27 418.28 82.91 419.56 85.6 420.22 86.95 421.56 89.63 422.93 92.24 424.28 94.75 425.59 97.1 426.85 99.32 428.08 101.45 429.33 103.6 430.67 105.85 432.11 108.23 433.66 110.69 435.27 113.19 436.11 114.44 437.79 116.92 439.54 119.4 441.39 121.93 443.38 124.6 445.54 127.43 447.85 130.44 450.21 133.5 452.34 136.27 453.94 138.35 454.83 139.52 455.12 139.88 455.13 139.9" style="stroke-width:1.07;stroke:#3a53a4;stroke-linecap:butt;fill:none;stroke-linejoin:round;stroke-miterlimit:10"/><polyline points="455.13 139.9 455.28 140.02 456.14 140.73 457.84 142.14 459.98 143.92 462.1 145.68 464.04 147.27 465.84 148.73 467.58 150.1 468.31 150.68 470.05 152.01 471.75 153.28 473.35 154.46 474.84 155.54 476.3 156.59 477.86 157.71 479.56 158.9 481.34 160.13 482.11 160.65 483.93 161.86 485.71 163.02 487.39 164.09 488.94 165.07 490.47 166.02 492.11 167.03 493.88 168.11 495.74 169.21 496.54 169.68 498.44 170.77 500.29 171.81 502.03 172.76 503.65 173.64 505.24 174.49 506.94 175.39 508.78 176.34 510.71 177.33 511.54 177.74 513.51 178.7 515.42 179.61 517.22 180.45 518.9 181.21 520.54 181.96 522.29 182.74 524.19 183.57 526.19 184.42 527.04 184.78 529.08 185.61 531.18 186.45 533.44 187.32 535.92 188.25 538.57 189.25 540.94 190.14 542.44 190.71 542.92 190.89 542.94 190.9" style="stroke-width:1.07;stroke:#3a53a4;stroke-linecap:butt;fill:none;stroke-linejoin:round;stroke-miterlimit:10"/><polyline points="388.39 44.47 388.41 44.61 388.48 45.5 388.66 47.51 388.92 50.61 389.25 54.4 389.59 58.4 389.93 62.24 390.27 65.85 390.61 69.22 390.99 72.42 391.4 75.52 391.81 78.27 392.31 81.32 392.85 84.33 393.42 87.23 393.99 89.98 394.56 92.57 395.12 95.06 395.69 97.55 396.31 100.15 396.99 102.89 397.75 105.76 398.57 108.71 399.35 111.36 400.27 114.31 401.21 117.21 402.17 120.01 403.12 122.65 404.04 125.14 404.94 127.53 405.85 129.92 406.82 132.41 407.87 135.03 409.01 137.77 410.23 140.58 411.37 143.09 412.68 145.89 414.02 148.64 415.35 151.27 416.65 153.76 417.91 156.1 419.13 158.34 420.36 160.58 421.66 162.92 423.06 165.37 424.57 167.92 426.17 170.54 427.64 172.87 429.33 175.47 431.03 178 432.71 180.43 434.34 182.71 435.91 184.86 437.42 186.91 438.95 188.96 440.56 191.09 442.29 193.33 444.13 195.65 446.07 198.02 447.85 200.13 449.88 202.47 451.97 204.8 454.17 207.17 456.52 209.65 459.06 212.26 461.77 215.03 464.59 217.9 467.22 220.58 469.33 222.73 470.66 224.09 471.21 224.65 471.28 224.73" style="stroke-width:1.07;stroke:#3a53a4;stroke-linecap:butt;fill:none;stroke-linejoin:round;stroke-miterlimit:10"/><polyline points="471.28 224.73 471.42 224.82 472.22 225.37 473.96 226.59 476.48 228.34 479.36 230.35 482.18 232.31 484.82 234.14 487.29 235.82 489.63 237.4 491.91 238.91 493 239.61 495.29 241.09 497.55 242.51 499.73 243.86 501.78 245.11 503.73 246.29 505.65 247.44 507.65 248.64 509.8 249.9 512.07 251.22 514.43 252.55 515.55 253.18 517.94 254.5 520.29 255.77 522.55 256.98 524.68 258.09 526.7 259.13 528.69 260.15 530.77 261.22 533 262.33 535.35 263.5 537.79 264.67 538.96 265.23 541.43 266.38 543.86 267.5 546.19 268.55 548.39 269.52 550.48 270.42 552.53 271.31 554.68 272.23 556.97 273.2 559.4 274.2 561.91 275.22 563.11 275.69 565.65 276.68 568.15 277.63 570.55 278.52 572.81 279.34 574.95 280.11 577.06 280.86 579.26 281.64 581.61 282.45 584.1 283.29 586.67 284.13 587.9 284.53 590.51 285.35 593.16 286.16 595.94 286.98 598.92 287.84 602.12 288.75 605.51 289.71 608.73 290.62 611.26 291.34 612.71 291.75 613.17 291.87 613.18 291.88" style="stroke-width:1.07;stroke:#3a53a4;stroke-linecap:butt;fill:none;stroke-linejoin:round;stroke-miterlimit:10"/><polyline points="469.18 94.96 469.18 95.12 469.21 96.07 469.27 98.17 469.35 101.26 469.46 104.86 469.56 108.45 469.67 111.82 469.8 114.96 469.96 117.91 470.16 120.75 470.36 123.08 470.65 125.88 470.98 128.63 471.33 131.27 471.69 133.75 472.06 136.09 472.43 138.37 472.82 140.72 473.26 143.22 473.77 145.85 474.33 148.57 474.84 150.84 475.49 153.58 476.17 156.26 476.87 158.83 477.55 161.24 478.22 163.51 478.89 165.72 479.58 168 480.35 170.42 481.2 172.97 482.11 175.59 482.91 177.77 483.92 180.4 484.95 182.97 485.97 185.43 486.97 187.73 487.93 189.89 488.88 191.99 489.87 194.17 490.95 196.46 492.12 198.87 493.37 201.35 494.45 203.41 495.79 205.89 497.15 208.3 498.49 210.6 499.78 212.75 501.02 214.76 502.23 216.73 503.5 218.75 504.87 220.88 506.35 223.12 507.92 225.42 509.26 227.32 510.92 229.6 512.64 231.88 514.47 234.23 516.45 236.71 518.61 239.36 520.9 242.16 523.15 244.91 525.03 247.2 526.23 248.67 526.72 249.27 526.78 249.34" style="stroke-width:1.07;stroke:#3a53a4;stroke-linecap:butt;fill:none;stroke-linejoin:round;stroke-miterlimit:10"/><polyline points="526.78 249.34 526.9 249.44 527.64 250.07 529.25 251.45 531.59 253.46 534.27 255.75 536.91 258.01 539.38 260.11 541.7 262.05 543.91 263.85 546.08 265.57 547.28 266.5 549.47 268.16 551.64 269.76 553.74 271.27 555.72 272.66 557.61 273.97 559.47 275.24 561.41 276.56 563.49 277.95 565.7 279.39 568.01 280.84 569.3 281.64 571.65 283.06 573.97 284.42 576.22 285.7 578.34 286.88 580.36 287.97 582.34 289.05 584.41 290.15 586.62 291.31 588.98 292.51 591.42 293.71 592.79 294.37 595.28 295.53 597.73 296.64 600.1 297.67 602.33 298.62 604.45 299.5 606.54 300.36 608.71 301.24 611.04 302.16 613.5 303.1 616.06 304.04 617.49 304.55 620.09 305.44 622.65 306.28 625.11 307.06 627.43 307.77 629.63 308.42 631.8 309.05 634.05 309.7 636.46 310.37 639.01 311.04 641.66 311.71 643.13 312.06 645.81 312.68 648.54 313.26 651.4 313.83 654.46 314.41 657.76 315.02 661.25 315.65 664.59 316.26 667.25 316.74 668.83 317.02 669.35 317.12 669.38 317.13" style="stroke-width:1.07;stroke:#3a53a4;stroke-linecap:butt;fill:none;stroke-linejoin:round;stroke-miterlimit:10"/><circle cx="455.75" cy="139.68" r="2.2" style="stroke-width:1.2;fill:#000;stroke:#000;stroke-linecap:round;stroke-linejoin:round;stroke-miterlimit:10"/><circle cx="428.62" cy="333.73" r="2.2" style="stroke-width:1.2;fill:#000;stroke:#000;stroke-linecap:round;stroke-linejoin:round;stroke-miterlimit:10"/><circle cx="526.58" cy="249.33" r="2.2" style="stroke-width:1.2;fill:#000;stroke:#000;stroke-linecap:round;stroke-linejoin:round;stroke-miterlimit:10"/><circle cx="387.05" cy="398.85" r="2.2" style="stroke-width:1.2;fill:#000;stroke:#000;stroke-linecap:round;stroke-linejoin:round;stroke-miterlimit:10"/><circle cx="471.92" cy="224.76" r="2.2" style="stroke-width:1.2;fill:#000;stroke:#000;stroke-linecap:round;stroke-linejoin:round;stroke-miterlimit:10"/><circle cx="493.28" cy="368.55" r="2.2" style="stroke-width:1.2;fill:#000;stroke:#000;stroke-linecap:round;stroke-linejoin:round;stroke-miterlimit:10"/><polyline points="93.36 519.09 93.36 14.17" style="stroke-width:1.07;stroke:#464646;stroke-linecap:butt;fill:none;stroke-linejoin:round;stroke-miterlimit:10"/><text x="66.67" y="523.5" style="font-size:18px;font-family:Asap" textLength="9.63" lengthAdjust="spacingAndGlyphs">0</text><text x="57.04" y="397.27" style="font-size:18px;font-family:Asap" textLength="19.27" lengthAdjust="spacingAndGlyphs">50</text><text x="47.41" y="271.04" style="font-size:18px;font-family:Asap" textLength="28.9" lengthAdjust="spacingAndGlyphs">100</text><text x="47.41" y="144.81" style="font-size:18px;font-family:Asap" textLength="28.9" lengthAdjust="spacingAndGlyphs">150</text><text x="47.41" y="18.58" style="font-size:18px;font-family:Asap" textLength="28.9" lengthAdjust="spacingAndGlyphs">200</text><polyline points="86.27 519.09 93.36 519.09" style="stroke-width:1.07;stroke:#464646;stroke-linecap:butt;fill:none;stroke-linejoin:round;stroke-miterlimit:10"/><polyline points="86.27 392.86 93.36 392.86" style="stroke-width:1.07;stroke:#464646;stroke-linecap:butt;fill:none;stroke-linejoin:round;stroke-miterlimit:10"/><polyline points="86.27 266.63 93.36 266.63" style="stroke-width:1.07;stroke:#464646;stroke-linecap:butt;fill:none;stroke-linejoin:round;stroke-miterlimit:10"/><polyline points="86.27 140.4 93.36 140.4" style="stroke-width:1.07;stroke:#464646;stroke-linecap:butt;fill:none;stroke-linejoin:round;stroke-miterlimit:10"/><polyline points="86.27 14.17 93.36 14.17" style="stroke-width:1.07;stroke:#464646;stroke-linecap:butt;fill:none;stroke-linejoin:round;stroke-miterlimit:10"/><polyline points="93.36 519.09 795.83 519.09" style="stroke-width:1.07;stroke:#464646;stroke-linecap:butt;fill:none;stroke-linejoin:round;stroke-miterlimit:10"/><polyline points="93.36 526.18 93.36 519.09" style="stroke-width:1.07;stroke:#464646;stroke-linecap:butt;fill:none;stroke-linejoin:round;stroke-miterlimit:10"/><polyline points="304.1 526.18 304.1 519.09" style="stroke-width:1.07;stroke:#464646;stroke-linecap:butt;fill:none;stroke-linejoin:round;stroke-miterlimit:10"/><polyline points="444.59 526.18 444.59 519.09" style="stroke-width:1.07;stroke:#464646;stroke-linecap:butt;fill:none;stroke-linejoin:round;stroke-miterlimit:10"/><polyline points="655.33 526.18 655.33 519.09" style="stroke-width:1.07;stroke:#464646;stroke-linecap:butt;fill:none;stroke-linejoin:round;stroke-miterlimit:10"/><polyline points="795.83 526.18 795.83 519.09" style="stroke-width:1.07;stroke:#464646;stroke-linecap:butt;fill:none;stroke-linejoin:round;stroke-miterlimit:10"/><text x="83.72" y="548.78" style="font-size:18px;font-family:Asap" textLength="19.27" lengthAdjust="spacingAndGlyphs">14</text><text x="294.46" y="548.78" style="font-size:18px;font-family:Asap" textLength="19.27" lengthAdjust="spacingAndGlyphs">17</text><text x="434.96" y="548.78" style="font-size:18px;font-family:Asap" textLength="19.27" lengthAdjust="spacingAndGlyphs">19</text><text x="645.7" y="548.78" style="font-size:18px;font-family:Asap" textLength="19.27" lengthAdjust="spacingAndGlyphs">22</text><text x="786.19" y="548.78" style="font-size:18px;font-family:Asap" textLength="19.27" lengthAdjust="spacingAndGlyphs">24</text><text x="334.16" y="581.59" style="font-size:20px;font-weight:600;font-family:Asap" textLength="38.94" lengthAdjust="spacingAndGlyphs">Free</text><text x="377.9" y="581.59" style="font-size:20px;font-weight:600;font-family:Asap" textLength="39.88" lengthAdjust="spacingAndGlyphs">time</text><text x="422.58" y="581.59" style="font-size:20px;font-weight:600;font-family:Asap" textLength="29.56" lengthAdjust="spacingAndGlyphs">per</text><text x="456.95" y="581.59" style="font-size:20px;font-weight:600;font-family:Asap" textLength="31.82" lengthAdjust="spacingAndGlyphs">day</text><text x="493.58" y="581.59" style="font-size:20px;font-weight:600;font-family:Asap" textLength="61.44" lengthAdjust="spacingAndGlyphs">(hours)</text><text transform="rotate(-90 201.23 173.01)" style="font-size:20px;font-weight:600;font-family:Asap" textLength="117.39" lengthAdjust="spacingAndGlyphs">Consumption</text><text transform="rotate(-90 140.135 111.915)" style="font-size:20px;font-weight:600;font-family:Asap" textLength="29.56" lengthAdjust="spacingAndGlyphs">per</text><text transform="rotate(-90 122.955 94.735)" style="font-size:20px;font-weight:600;font-family:Asap" textLength="31.82" lengthAdjust="spacingAndGlyphs">day</text><text transform="rotate(-90 104.64 76.42)" style="font-size:20px;font-weight:600;font-family:Asap" textLength="22.04" lengthAdjust="spacingAndGlyphs">($)</text></g></svg>