<svg version="1.1" xmlns="http://www.w3.org/2000/svg" xmlns:xlink="http://www.w3.org/1999/xlink" x="0" y="0" viewBox="0 0 311.81 203.75" style="enable-background:new 0 0 311.81 203.75" xml:space="preserve"><g style="display:none"><g style="display:inline"><defs><polygon id="prefix__a" points="-40.63 945.82 401.81 945.82 401.81 615.7 -40.63 615.7 -40.63 945.82"/></defs><clipPath id="prefix__b"><use xlink:href="#prefix__a" style="overflow:visible"/></clipPath><polyline points="-40.63 85.78 -34.27 301.9 -28.03 363.1 -21.67 405.46 -15.31 438.46 -9.07 465.82 -2.71 489.34 3.53 509.86 9.89 528.34 16.13 545.02 22.49 560.26 28.85 574.3 35.09 587.26 41.45 599.38 47.69 610.66 54.05 621.22 60.41 631.3 66.65 640.78 73.01 649.66 79.25 658.3 85.61 666.34 91.97 674.14 98.21 681.46 104.57 688.66 110.81 695.38 117.17 701.86 123.53 708.22 129.77 714.22 136.13 719.98 142.37 725.62 148.73 731.02 154.97 736.18 161.33 741.22 167.69 746.14 173.93 750.82 180.29 755.38 186.53 759.82 192.89 764.14 199.25 768.34 205.49 772.42 211.85 776.26 218.09 780.1 224.45 783.82 230.81 787.42 237.05 790.9 243.41 794.38 249.65 797.62 256.01 800.86 262.37 804.1 268.61 807.1 274.97 810.1 281.21 813.1 287.57 815.98 293.81 818.74 300.17 821.38 306.53 824.02 312.77 826.66 319.13 829.18 325.37 831.7 331.73 834.1 338.09 836.38 344.33 838.78 350.69 840.94 356.93 843.22 363.29 845.38 369.65 847.42 375.89 849.46 382.25 851.5 388.49 853.54 394.85 855.46 401.21 857.38"/></g></g><polyline style="fill:#fee6da" points="292.06 175.13 54.56 52.11 54.56 175.13"/><polyline style="fill:none;stroke:#fee6da;stroke-width:.25;stroke-miterlimit:10" points="292.06 175.13 54.56 52.11 54.56 175.13"/><path style="fill:#fee6da" d="M292.06 175.13H54.56"/><path style="fill:none;stroke:#fee6da;stroke-width:.25;stroke-miterlimit:10" d="M292.06 175.13H54.56"/><line style="fill:none;stroke:#6d6e71;stroke-width:.5;stroke-linecap:square" x1="54.97" y1="175.22" x2="292.97" y2="175.22"/><text transform="translate(42.944 177.489)" style="font-family:'Asap-Regular';font-size:7px">0</text><line style="fill:none;stroke:#6d6e71;stroke-width:.5;stroke-linecap:square;stroke-linejoin:round" x1="54.84" y1="16.47" x2="54.84" y2="175.22"/><text transform="translate(33.01 157.51)" style="font-family:'Asap-Regular';font-size:7px">1,000</text><text transform="translate(33.01 137.668)" style="font-family:'Asap-Regular';font-size:7px">2,000</text><text transform="translate(33.01 117.825)" style="font-family:'Asap-Regular';font-size:7px">3,000</text><text transform="translate(33.01 97.983)" style="font-family:'Asap-Regular';font-size:7px">4,000</text><text transform="translate(33.01 78.14)" style="font-family:'Asap-Regular';font-size:7px">5,000</text><text transform="translate(33.01 58.298)" style="font-family:'Asap-Regular';font-size:7px">6,000</text><text transform="matrix(0 -.9726 1 0 16.232 123.875)" style="font-family:'Asap-Medium';font-size:8px">Consumption ($)</text><text transform="translate(52.984 187.547)" style="font-family:'Asap-Regular';font-size:7px">0</text><text transform="translate(69.991 187.54)" style="font-family:'Asap-Regular';font-size:7px">5</text><text transform="translate(85.127 187.547)" style="font-family:'Asap-Regular';font-size:7px">10</text><text transform="translate(102.135 187.519)" style="font-family:'Asap-Regular';font-size:7px">15</text><text transform="translate(119.143 187.547)" style="font-family:'Asap-Regular';font-size:7px">20</text><text transform="translate(136.151 187.547)" style="font-family:'Asap-Regular';font-size:7px">25</text><text transform="translate(153.158 187.518)" style="font-family:'Asap-Regular';font-size:7px">30</text><text transform="translate(170.167 187.518)" style="font-family:'Asap-Regular';font-size:7px">35</text><text transform="translate(187.175 187.518)" style="font-family:'Asap-Regular';font-size:7px">40</text><text transform="translate(204.183 187.519)" style="font-family:'Asap-Regular';font-size:7px">45</text><text transform="translate(221.19 187.547)" style="font-family:'Asap-Regular';font-size:7px">50</text><text transform="translate(238.198 187.539)" style="font-family:'Asap-Regular';font-size:7px">55</text><text transform="translate(255.206 187.547)" style="font-family:'Asap-Regular';font-size:7px">60</text><text transform="translate(272.214 187.547)" style="font-family:'Asap-Regular';font-size:7px">65</text><text transform="translate(289.222 187.547)" style="font-family:'Asap-Regular';font-size:7px">70</text><text transform="translate(139.862 200.728)" style="font-family:'Asap-Medium';font-size:8px">Days of free time</text><text transform="translate(33.01 38.455)" style="font-family:'Asap-Regular';font-size:7px">7,000</text><line style="fill:none;stroke:#6d6e71;stroke-width:.5;stroke-linecap:square" x1="52.09" y1="175.34" x2="54.22" y2="175.34"/><line style="fill:none;stroke:#6d6e71;stroke-width:.5;stroke-linecap:square" x1="52.09" y1="155.37" x2="54.22" y2="155.37"/><line style="fill:none;stroke:#6d6e71;stroke-width:.5;stroke-linecap:square" x1="52.09" y1="135.52" x2="54.22" y2="135.52"/><line style="fill:none;stroke:#6d6e71;stroke-width:.5;stroke-linecap:square" x1="52.09" y1="115.68" x2="54.22" y2="115.68"/><line style="fill:none;stroke:#6d6e71;stroke-width:.5;stroke-linecap:square" x1="52.09" y1="95.84" x2="54.22" y2="95.84"/><line style="fill:none;stroke:#6d6e71;stroke-width:.5;stroke-linecap:square" x1="52.09" y1="76" x2="54.22" y2="76"/><line style="fill:none;stroke:#6d6e71;stroke-width:.5;stroke-linecap:square" x1="52.09" y1="56.15" x2="54.22" y2="56.15"/><line style="fill:none;stroke:#6d6e71;stroke-width:.5;stroke-linecap:square" x1="52.09" y1="36.31" x2="54.22" y2="36.31"/><line style="fill:none;stroke:#6d6e71;stroke-width:.5;stroke-linecap:square" x1="54.97" y1="175.31" x2="54.97" y2="177.44"/><line style="fill:none;stroke:#6d6e71;stroke-width:.5;stroke-linecap:square" x1="71.86" y1="175.31" x2="71.86" y2="177.44"/><line style="fill:none;stroke:#6d6e71;stroke-width:.5;stroke-linecap:square" x1="88.87" y1="175.31" x2="88.87" y2="177.44"/><line style="fill:none;stroke:#6d6e71;stroke-width:.5;stroke-linecap:square" x1="105.88" y1="175.31" x2="105.88" y2="177.44"/><line style="fill:none;stroke:#6d6e71;stroke-width:.5;stroke-linecap:square" x1="122.89" y1="175.31" x2="122.89" y2="177.44"/><line style="fill:none;stroke:#6d6e71;stroke-width:.5;stroke-linecap:square" x1="139.9" y1="175.31" x2="139.9" y2="177.44"/><line style="fill:none;stroke:#6d6e71;stroke-width:.5;stroke-linecap:square" x1="156.9" y1="177.44" x2="156.9" y2="175.31"/><line style="fill:none;stroke:#6d6e71;stroke-width:.5;stroke-linecap:square" x1="173.91" y1="175.31" x2="173.91" y2="177.44"/><line style="fill:none;stroke:#6d6e71;stroke-width:.5;stroke-linecap:square" x1="190.92" y1="175.31" x2="190.92" y2="177.44"/><line style="fill:none;stroke:#6d6e71;stroke-width:.5;stroke-linecap:square" x1="207.93" y1="175.31" x2="207.93" y2="177.44"/><line style="fill:none;stroke:#6d6e71;stroke-width:.5;stroke-linecap:square" x1="224.94" y1="175.31" x2="224.94" y2="177.44"/><line style="fill:none;stroke:#6d6e71;stroke-width:.5;stroke-linecap:square" x1="241.94" y1="175.31" x2="241.94" y2="177.44"/><line style="fill:none;stroke:#6d6e71;stroke-width:.5;stroke-linecap:square" x1="258.95" y1="175.31" x2="258.95" y2="177.44"/><line style="fill:none;stroke:#6d6e71;stroke-width:.5;stroke-linecap:square" x1="275.96" y1="175.31" x2="275.96" y2="177.44"/><line style="fill:none;stroke:#6d6e71;stroke-width:.5;stroke-linecap:square" x1="292.97" y1="175.31" x2="292.97" y2="177.44"/><line style="fill:none;stroke:#6d6e71;stroke-width:.5;stroke-linecap:square" x1="52.15" y1="16.47" x2="54.28" y2="16.47"/><text transform="translate(33.01 19.483)" style="font-family:'Asap-Regular';font-size:7px">8,000</text><line style="fill:none;stroke:#ea2728;stroke-width:.5;stroke-linejoin:round" x1="82.12" y1="18.32" x2="292.97" y2="175.22"/><line style="fill:none;stroke:#ea2728;stroke-width:.5;stroke-linejoin:round" x1="54.97" y1="52.23" x2="292.97" y2="175.22"/><path style="fill:none;stroke:#5b73b8;stroke-width:.5;stroke-linejoin:round" d="M78.54 17.68c31.23 72.31 109.27 115.05 215.42 133.95M102.41 16.47C136.5 73.2 216.96 118.66 292.96 134.75"/><circle style="fill:#000101" cx="155.87" cy="73.2" r="1.13"/><text transform="translate(160.376 70.135)" style="font-family:'Asap-Regular';font-size:7px">D</text><text transform="translate(158.246 120.234)" style="font-family:'Asap-Regular';font-size:7px">A</text><text transform="translate(74.666 10.164)" style="font-family:'Asap-Regular';font-size:7px">IC</text><text transform="matrix(.583 0 0 .583 80.98 12.495)" style="font-family:'Asap-Regular';font-size:7px">2</text><text transform="translate(97.56 10.164)" style="font-family:'Asap-Regular';font-size:7px">IC</text><text transform="matrix(.583 0 0 .583 103.873 12.495)" style="font-family:'Asap-Medium';font-size:7px">4</text><line style="fill:none" x1="57.73" y1="26.42" x2="296.73" y2="150.84"/><line style="fill:none;stroke:#e9292a;stroke-width:.5;stroke-linejoin:round;stroke-dasharray:1.417" x1="54.69" y1="25.51" x2="291.92" y2="149"/><circle style="fill:#000101" cx="199.79" cy="101.37" r="1.13"/><text transform="translate(204.308 95.06)" style="font-family:'Asap-Regular';font-size:7px">C</text><g><line style="fill:none;stroke:#009147;stroke-width:.5;stroke-linecap:square;stroke-linejoin:round" x1="199.05" y1="96.04" x2="165.77" y2="96.04"/><polygon style="fill:#009147" points="197.39 93.99 197.05 94.36 198.86 96.04 197.05 97.71 197.39 98.08 199.59 96.04"/></g><text transform="matrix(1.0286 0 0 1 170.04 103.13)"><tspan x="0" y="0" style="font-family:'Asap-Regular';font-size:6px">Income</tspan><tspan x="0" y="7.2" style="font-family:'Asap-Regular';font-size:6px">effect</tspan></text><circle style="fill:#000101" cx="166.91" cy="110.17" r="1.13"/></svg>