<svg version="1.1" xmlns="http://www.w3.org/2000/svg" x="0" y="0" viewBox="0 0 311.81 180.71" style="enable-background:new 0 0 311.81 180.71" xml:space="preserve"><polygon style="fill:#f48260" points="-78.47 66.31 -23.08 66.31 -23.08 121.69"/><polygon style="fill:#bd88ae" points="-80.99 121.69 -136.37 121.69 -136.37 66.31"/><polygon style="fill:#f48260" points="-136.37 66.31 -80.99 66.31 -80.99 121.69"/><polygon style="fill:#bd88ae" points="-80.99 179.59 -136.37 179.59 -136.37 124.21"/><polygon style="fill:#f48260" points="-136.37 124.21 -80.99 124.21 -80.99 179.59"/><rect x="-167" y="124.21" style="fill:#bd88ae" width="28.11" height="55.38"/><rect x="-167" y="66.31" style="fill:#bd88ae" width="28.11" height="55.38"/><rect x="-122.73" y="22.04" transform="rotate(90 -108.678 49.732)" style="fill:#f48260" width="28.11" height="55.38"/><rect x="-64.83" y="22.04" transform="rotate(90 -50.776 49.732)" style="fill:#f48260" width="28.11" height="55.38"/><text transform="translate(-118.79 52.61)" style="fill:#fff;font-family:'Asap-Regular';font-size:6px">Restrict</text><text transform="translate(-107.041 84.86)" style="fill:#fff;font-family:'Asap-Regular';font-size:7px">GOOD</text><text transform="translate(-128.77 109.338)" style="fill:#fff;font-family:'Asap-Regular';font-size:7px">GOOD</text><text transform="translate(-47.776 84.86)" style="fill:#fff;font-family:'Asap-Regular';font-size:7px">BEST</text><text transform="rotate(-90 -22.66 128.297)" style="fill:#fff;font-family:'Asap-Regular';font-size:6px">Restrict</text><text transform="translate(-57.702 52.61)" style="fill:#fff;font-family:'Asap-Regular';font-size:6px">BAU</text><text transform="translate(-82.702 32.38)" style="font-family:'Asap-Regular';font-size:6px">US</text><text transform="rotate(-90 -19.726 150.941)" style="font-family:'Asap-Regular';font-size:6px">China</text><text transform="rotate(-90 3.901 154.857)" style="fill:#fff;font-family:'Asap-Regular';font-size:6px">BAU</text><polyline style="fill:none;stroke:#ccc;stroke-width:.5;stroke-linecap:square;stroke-miterlimit:10" points="-136.37 29.06 -136.37 24.56 -23.08 24.56 -23.08 29.06"/><polyline style="fill:none;stroke:#ccc;stroke-width:.5;stroke-linecap:square;stroke-miterlimit:10" points="-174 179.59 -178.5 179.59 -178.5 66.31 -174 66.31"/><line style="fill:none;stroke:#fff;stroke-width:1.5;stroke-miterlimit:10" x1="-136.37" y1="124.21" x2="-80.99" y2="179.59"/><line style="fill:none;stroke:#fff;stroke-width:1.5;stroke-miterlimit:10" x1="-136.37" y1="66.31" x2="-80.99" y2="121.69"/><polygon style="fill:#bd88ae" points="-23.08 121.69 -78.47 121.69 -78.47 66.31"/><polygon style="fill:#bd88ae" points="-23.08 179.59 -78.47 179.59 -78.47 124.21"/><polygon style="fill:#f48260" points="-78.47 124.21 -23.08 124.21 -23.08 179.59"/><line style="fill:none;stroke:#fff;stroke-width:1.5;stroke-miterlimit:10" x1="-78.47" y1="124.21" x2="-23.08" y2="179.59"/><line style="fill:none;stroke:#fff;stroke-width:1.5;stroke-miterlimit:10" x1="-78.47" y1="66.31" x2="-23.08" y2="121.69"/><text transform="translate(-72.437 109.338)" style="fill:#fff;font-family:'Asap-Regular';font-size:7px">WORST</text><text transform="translate(-109.041 142.86)" style="fill:#fff;font-family:'Asap-Regular';font-size:7px">WORST</text><text transform="translate(-127.77 167.339)" style="fill:#fff;font-family:'Asap-Regular';font-size:7px">BEST</text><text transform="translate(-45.776 142.86)" style="fill:#fff;font-family:'Asap-Regular';font-size:7px">BAD</text><text transform="translate(-69.437 167.339)" style="fill:#fff;font-family:'Asap-Regular';font-size:7px">BAD</text><polygon style="fill:#f0e6f2" points="30.65 93.25 89.55 93.25 89.55 152.15"/><polygon style="fill:#e4e9f6" points="89.55 152.15 30.65 152.15 30.65 93.25"/><line style="fill:#939598;stroke:#fff;stroke-width:.5;stroke-miterlimit:10" x1="30.65" y1="92.95" x2="89.55" y2="151.85"/><line style="fill:none;stroke:#6d6e71;stroke-width:.5;stroke-miterlimit:10" x1="89.55" y1="20.93" x2="89.55" y2="34.35"/><polyline style="fill:#b9519e;stroke:#6d6e71;stroke-width:.499;stroke-miterlimit:10" points="30.65 21.68 30.65 9.28 148.45 9.28 148.45 21.68"/><polygon style="fill:#f0e6f2" points="30.65 34.35 89.55 34.35 89.55 93.25"/><polygon style="fill:#f0e6f2" points="89.55 34.35 148.45 34.35 148.45 93.25"/><polygon style="fill:#f0e6f2" points="89.55 93.25 148.45 93.25 148.45 152.15"/><polygon style="fill:#e4e9f6" points="148.45 152.15 89.55 152.15 89.55 93.25"/><polygon style="fill:#e4e9f6" points="148.45 93.25 89.55 93.25 89.55 34.35"/><polygon style="fill:#e4e9f6" points="89.72 93.25 30.82 93.25 30.82 34.35"/><line style="fill:#939598;stroke:#fff;stroke-width:.5;stroke-miterlimit:10" x1="89.55" y1="34.35" x2="148.45" y2="93.25"/><line style="fill:#939598;stroke:#fff;stroke-width:.5;stroke-miterlimit:10" x1="30.65" y1="34.35" x2="89.55" y2="93.25"/><line style="fill:#939598;stroke:#fff;stroke-width:.5;stroke-miterlimit:10" x1="89.55" y1="92.95" x2="148.45" y2="151.85"/><text transform="translate(49.492 30.6)" style="font-family:'Asap-Regular';font-size:6px">Restrict</text><text transform="translate(114.185 30.601)" style="font-family:'Asap-Regular';font-size:6px">BAU</text><text transform="translate(84.667 18.372)" style="fill:#fff;font-family:'Asap-Regular';font-size:8px">US</text><line style="fill:none;stroke:#6d6e71;stroke-width:.5;stroke-miterlimit:10" x1="148.45" y1="21.68" x2="148.45" y2="34.35"/><line style="fill:none;stroke:#6d6e71;stroke-width:.5;stroke-miterlimit:10" x1="30.65" y1="34.35" x2="30.65" y2="21.68"/><rect x="30.65" y="34.35" style="fill:none;stroke:#6d6e71;stroke-width:.5;stroke-miterlimit:10" width="117.8" height="117.8"/><line style="fill:none;stroke:#6d6e71;stroke-width:.5;stroke-miterlimit:10" x1="89.55" y1="34.35" x2="89.55" y2="152.15"/><line style="fill:none;stroke:#6d6e71;stroke-width:.5;stroke-miterlimit:10" x1="30.65" y1="93.25" x2="148.45" y2="93.25"/><text transform="translate(43.82 75.75)"><tspan x="0" y="0" style="font-family:'Asap-Regular';font-size:8px">10</tspan><tspan x="-5.22" y="9.6" style="font-family:'Asap-Regular';font-size:8px">Good</tspan></text><text transform="translate(67.487 47.084)"><tspan x="0" y="0" style="font-family:'Asap-Regular';font-size:8px">10</tspan><tspan x="-5.22" y="9.6" style="font-family:'Asap-Regular';font-size:8px">Good</tspan></text><text transform="translate(43.82 134.59)"><tspan x="0" y="0" style="font-family:'Asap-Regular';font-size:8px">12</tspan><tspan x="-3.27" y="9.6" style="font-family:'Asap-Regular';font-size:8px">Best</tspan></text><text transform="translate(69.627 105.924)"><tspan x="0" y="0" style="font-family:'Asap-Regular';font-size:8px">4</tspan><tspan x="-4.67" y="9.6" style="font-family:'Asap-Regular';font-size:8px">Bad</tspan></text><text transform="translate(105.027 134.59)"><tspan x="0" y="0" style="font-family:'Asap-Regular';font-size:8px">0</tspan><tspan x="-8.26" y="9.6" style="font-family:'Asap-Regular';font-size:8px">Worst</tspan></text><text transform="translate(128.693 105.924)"><tspan x="0" y="0" style="font-family:'Asap-Regular';font-size:8px">0</tspan><tspan x="-8.26" y="9.6" style="font-family:'Asap-Regular';font-size:8px">Worst</tspan></text><text transform="translate(105.877 75.75)"><tspan x="0" y="0" style="font-family:'Asap-Regular';font-size:8px">4</tspan><tspan x="-4.67" y="9.6" style="font-family:'Asap-Regular';font-size:8px">Bad</tspan></text><text transform="translate(127.404 47.084)"><tspan x="0" y="0" style="font-family:'Asap-Regular';font-size:8px">12</tspan><tspan x="-3.27" y="9.6" style="font-family:'Asap-Regular';font-size:8px">Best</tspan></text><polyline style="fill:#0d71ba;stroke:#6d6e71;stroke-width:.499;stroke-miterlimit:10" points="18.32 152.15 5.92 152.15 5.92 34.35 18.32 34.35"/><text transform="rotate(-90 59.408 44.394)" style="fill:#fff;font-family:'Asap-Regular';font-size:8px">China</text><line style="fill:none;stroke:#6d6e71;stroke-width:.5;stroke-miterlimit:10" x1="18.32" y1="34.35" x2="30.99" y2="34.35"/><line style="fill:none;stroke:#6d6e71;stroke-width:.5;stroke-miterlimit:10" x1="30.99" y1="152.15" x2="18.32" y2="152.15"/><line style="fill:none;stroke:#6d6e71;stroke-width:.5;stroke-miterlimit:10" x1="18.32" y1="93.25" x2="30.99" y2="93.25"/><text transform="rotate(-90 77.791 51.555)" style="font-family:'Asap-Regular';font-size:6px">BAU</text><text transform="rotate(-90 50.69 24.452)" style="font-family:'Asap-Regular';font-size:6px">Restrict</text><polygon style="fill:#f0e6f2" points="188.71 93.25 247.61 93.25 247.61 152.15"/><polygon style="fill:#e4e9f6" points="247.61 152.15 188.71 152.15 188.71 93.25"/><line style="fill:#939598;stroke:#fff;stroke-width:.5;stroke-miterlimit:10" x1="188.71" y1="92.95" x2="247.61" y2="151.85"/><line style="fill:none;stroke:#6d6e71;stroke-width:.5;stroke-miterlimit:10" x1="247.61" y1="20.93" x2="247.61" y2="34.35"/><polyline style="fill:#b9519e;stroke:#6d6e71;stroke-width:.499;stroke-miterlimit:10" points="188.71 21.68 188.71 9.28 306.51 9.28 306.51 21.68"/><polygon style="fill:#f0e6f2" points="188.71 34.35 247.61 34.35 247.61 93.25"/><polygon style="fill:#f0e6f2" points="247.61 34.35 306.51 34.35 306.51 93.25"/><polygon style="fill:#f0e6f2" points="247.61 93.25 306.51 93.25 306.51 152.15"/><polygon style="fill:#e4e9f6" points="306.51 152.15 247.61 152.15 247.61 93.25"/><polygon style="fill:#e4e9f6" points="306.51 93.25 247.61 93.25 247.61 34.35"/><polygon style="fill:#e4e9f6" points="247.78 93.25 188.88 93.25 188.88 34.35"/><line style="fill:#939598;stroke:#fff;stroke-width:.5;stroke-miterlimit:10" x1="247.61" y1="34.35" x2="306.51" y2="93.25"/><line style="fill:#939598;stroke:#fff;stroke-width:.5;stroke-miterlimit:10" x1="188.71" y1="34.35" x2="247.61" y2="93.25"/><line style="fill:#939598;stroke:#fff;stroke-width:.5;stroke-miterlimit:10" x1="247.61" y1="92.95" x2="306.51" y2="151.85"/><text transform="translate(207.554 30.6)" style="font-family:'Asap-Regular';font-size:6px">Restrict</text><text transform="translate(272.247 30.601)" style="font-family:'Asap-Regular';font-size:6px">BAU</text><text transform="translate(242.728 18.372)" style="fill:#fff;font-family:'Asap-Regular';font-size:8px">US</text><line style="fill:none;stroke:#6d6e71;stroke-width:.5;stroke-miterlimit:10" x1="306.51" y1="21.68" x2="306.51" y2="34.35"/><line style="fill:none;stroke:#6d6e71;stroke-width:.5;stroke-miterlimit:10" x1="188.71" y1="34.35" x2="188.71" y2="21.68"/><rect x="188.71" y="34.35" style="fill:none;stroke:#6d6e71;stroke-width:.5;stroke-miterlimit:10" width="117.8" height="117.8"/><line style="fill:none;stroke:#6d6e71;stroke-width:.5;stroke-miterlimit:10" x1="247.61" y1="34.35" x2="247.61" y2="152.15"/><line style="fill:none;stroke:#6d6e71;stroke-width:.5;stroke-miterlimit:10" x1="188.71" y1="93.25" x2="306.51" y2="93.25"/><text transform="translate(201.882 75.75)"><tspan x="0" y="0" style="font-family:'Asap-Regular';font-size:8px">10</tspan><tspan x="-5.22" y="9.6" style="font-family:'Asap-Regular';font-size:8px">Good</tspan></text><text transform="translate(225.55 47.084)"><tspan x="0" y="0" style="font-family:'Asap-Regular';font-size:8px">10</tspan><tspan x="-5.22" y="9.6" style="font-family:'Asap-Regular';font-size:8px">Good</tspan></text><text transform="translate(201.882 134.59)"><tspan x="0" y="0" style="font-family:'Asap-Regular';font-size:8px">12</tspan><tspan x="-3.27" y="9.6" style="font-family:'Asap-Regular';font-size:8px">Best</tspan></text><text transform="translate(227.689 105.924)"><tspan x="0" y="0" style="font-family:'Asap-Regular';font-size:8px">4</tspan><tspan x="-4.67" y="9.6" style="font-family:'Asap-Regular';font-size:8px">Bad</tspan></text><text transform="translate(263.088 134.59)"><tspan x="0" y="0" style="font-family:'Asap-Regular';font-size:8px">0</tspan><tspan x="-8.26" y="9.6" style="font-family:'Asap-Regular';font-size:8px">Worst</tspan></text><text transform="translate(286.755 105.924)"><tspan x="0" y="0" style="font-family:'Asap-Regular';font-size:8px">0</tspan><tspan x="-8.26" y="9.6" style="font-family:'Asap-Regular';font-size:8px">Worst</tspan></text><text transform="translate(263.939 75.75)"><tspan x="0" y="0" style="font-family:'Asap-Regular';font-size:8px">4</tspan><tspan x="-4.67" y="9.6" style="font-family:'Asap-Regular';font-size:8px">Bad</tspan></text><text transform="translate(285.466 47.084)"><tspan x="0" y="0" style="font-family:'Asap-Regular';font-size:8px">12</tspan><tspan x="-3.27" y="9.6" style="font-family:'Asap-Regular';font-size:8px">Best</tspan></text><polyline style="fill:#0d71ba;stroke:#6d6e71;stroke-width:.499;stroke-miterlimit:10" points="176.38 152.15 163.98 152.15 163.98 34.35 176.38 34.35"/><text transform="rotate(-90 138.44 -34.637)" style="fill:#fff;font-family:'Asap-Regular';font-size:8px">China</text><line style="fill:none;stroke:#6d6e71;stroke-width:.5;stroke-miterlimit:10" x1="176.38" y1="34.35" x2="189.05" y2="34.35"/><line style="fill:none;stroke:#6d6e71;stroke-width:.5;stroke-miterlimit:10" x1="189.05" y1="152.15" x2="176.38" y2="152.15"/><line style="fill:none;stroke:#6d6e71;stroke-width:.5;stroke-miterlimit:10" x1="176.38" y1="93.25" x2="189.05" y2="93.25"/><text transform="rotate(-90 156.822 -27.476)" style="font-family:'Asap-Regular';font-size:6px">BAU</text><text transform="rotate(-90 129.72 -54.579)" style="font-family:'Asap-Regular';font-size:6px">Restrict</text><g><text transform="translate(50.033 166.338)" style="font-family:'Asap-Regular';font-size:8px">China’s best responses</text></g><g><text transform="translate(204.785 166.338)"><tspan x="0" y="0" style="font-family:'Asap-Regular';font-size:8px">US’s best responses and</tspan><tspan x="0" y="9.6" style="font-family:'Asap-Regular';font-size:8px">the two Nash equilibira</tspan></text></g><circle cx="117.58" cy="62.38" r="1.42"/><g><circle cx="277.06" cy="63.8" r="1.42"/><path style="fill:none;stroke:#000;stroke-width:.5;stroke-miterlimit:10" d="M277.06 66.64a2.836 2.836 0 010-5.67 2.836 2.836 0 010 5.67z"/></g><circle cx="58.45" cy="120.4" r="1.42"/><g><circle cx="218.33" cy="122.82" r="1.42"/><path style="fill:none;stroke:#000;stroke-width:.5;stroke-miterlimit:10" d="M218.33 125.65a2.836 2.836 0 010-5.67c1.56 0 2.83 1.27 2.83 2.83a2.823 2.823 0 01-2.83 2.84z"/></g></svg>