<svg version="1.1" xmlns="http://www.w3.org/2000/svg" x="0" y="0" viewBox="0 0 311.81 165.8" style="enable-background:new 0 0 311.81 165.8" xml:space="preserve"><line style="fill:none;stroke:#3a53a4;stroke-width:.5" x1="225.72" y1="17.71" x2="225.72" y2="138.24"/><line style="fill:none;stroke:#3a53a4;stroke-width:.5" x1="255.33" y1="17.71" x2="255.33" y2="138.24"/><line style="fill:none;stroke:#3a53a4;stroke-width:.5" x1="284.98" y1="17.71" x2="284.98" y2="138.24"/><text transform="translate(54.832 8.064)" style="font-family:'Asap-Medium';font-size:8px">Altruistic preferences</text><text transform="translate(203.375 8.064)" style="font-family:'Asap-Medium';font-size:8px">Self-interested preferences</text><text transform="rotate(-24.684 277.18 -144.062)" style="font-family:'Asap-Regular';font-size:6px">Zoë’s utility</text><text transform="translate(240.799 90.092)" style="font-family:'Asap-Regular';font-size:6px">Zoë’s utility</text><text transform="rotate(-90 59.042 52.694)" style="font-family:'Asap-Medium';font-size:8px">Amount for Yvonne (£)</text><text transform="rotate(-90 137.044 -25.309)" style="font-family:'Asap-Medium';font-size:8px">Amount for Yvonne (£)</text><text transform="translate(60.404 164.586)" style="font-family:'Asap-Medium';font-size:8px">Amount for Zoë (£)</text><text transform="translate(217.96 164.643)" style="font-family:'Asap-Medium';font-size:8px">Amount for Zoë (£)</text><line style="fill:none;stroke:#6d6e70;stroke-width:.5;stroke-linecap:square" x1="186.16" y1="138.1" x2="186.16" y2="17.56"/><line style="fill:none;stroke:#6d6e70;stroke-width:.5;stroke-linecap:square" x1="186.16" y1="138.1" x2="309.52" y2="138.1"/><text transform="translate(168.686 23.491)" style="font-family:'Asap-Regular';font-size:7px">240</text><text transform="translate(168.687 42.968)" style="font-family:'Asap-Regular';font-size:7px">200</text><text transform="translate(168.686 62.444)" style="font-family:'Asap-Regular';font-size:7px">160</text><text transform="translate(168.687 81.92)" style="font-family:'Asap-Regular';font-size:7px">120</text><text transform="translate(172.43 101.396)" style="font-family:'Asap-Regular';font-size:7px">80</text><text transform="translate(172.43 120.872)" style="font-family:'Asap-Regular';font-size:7px">40</text><text transform="translate(176.176 140.348)" style="font-family:'Asap-Regular';font-size:7px">0</text><text transform="translate(185.287 150.432)" style="font-family:'Asap-Regular';font-size:7px">0</text><text transform="translate(202.12 150.432)" style="font-family:'Asap-Regular';font-size:7px">40</text><text transform="translate(220.699 150.432)" style="font-family:'Asap-Regular';font-size:7px">80</text><text transform="translate(238.279 150.432)" style="font-family:'Asap-Regular';font-size:7px">120</text><text transform="translate(259.602 150.432)" style="font-family:'Asap-Regular';font-size:7px">160</text><text transform="translate(279.925 150.432)" style="font-family:'Asap-Regular';font-size:7px">200</text><text transform="translate(299.248 150.432)" style="font-family:'Asap-Regular';font-size:7px">240</text><line style="fill:none;stroke:#6d6e70;stroke-width:.5;stroke-linecap:square" x1="186.16" y1="138.1" x2="186.16" y2="140.23"/><line style="fill:none;stroke:#6d6e70;stroke-width:.5;stroke-linecap:square" x1="186.16" y1="138.1" x2="184.03" y2="138.1"/><line style="fill:none;stroke:#6d6e70;stroke-width:.5;stroke-linecap:square" x1="186.16" y1="118.8" x2="184.03" y2="118.8"/><line style="fill:none;stroke:#6d6e70;stroke-width:.5;stroke-linecap:square" x1="186.16" y1="99.49" x2="184.03" y2="99.49"/><line style="fill:none;stroke:#6d6e70;stroke-width:.5;stroke-linecap:square" x1="186.16" y1="80.19" x2="184.03" y2="80.19"/><line style="fill:none;stroke:#6d6e70;stroke-width:.5;stroke-linecap:square" x1="186.16" y1="60.88" x2="184.03" y2="60.88"/><line style="fill:none;stroke:#6d6e70;stroke-width:.5;stroke-linecap:square" x1="186.16" y1="41.58" x2="184.03" y2="41.58"/><line style="fill:none;stroke:#6d6e70;stroke-width:.5;stroke-linecap:square" x1="186.16" y1="22.28" x2="184.03" y2="22.28"/><line style="fill:none;stroke:#6d6e70;stroke-width:.5;stroke-linecap:square" x1="304.74" y1="138.1" x2="304.74" y2="140.23"/><line style="fill:none;stroke:#6d6e70;stroke-width:.5;stroke-linecap:square" x1="284.98" y1="138.1" x2="284.98" y2="140.23"/><line style="fill:none;stroke:#6d6e70;stroke-width:.5;stroke-linecap:square" x1="265.21" y1="138.1" x2="265.21" y2="140.23"/><line style="fill:none;stroke:#6d6e70;stroke-width:.5;stroke-linecap:square" x1="245.45" y1="138.1" x2="245.45" y2="140.23"/><line style="fill:none;stroke:#6d6e70;stroke-width:.5;stroke-linecap:square" x1="225.69" y1="138.1" x2="225.69" y2="140.23"/><line style="fill:none;stroke:#6d6e70;stroke-width:.5;stroke-linecap:square" x1="205.92" y1="138.1" x2="205.92" y2="140.23"/><line style="fill:none;stroke:#6d6e70;stroke-width:.5;stroke-linecap:square" x1="31.05" y1="138.09" x2="31.05" y2="17.55"/><line style="fill:none;stroke:#6d6e70;stroke-width:.5;stroke-linecap:square" x1="31.05" y1="138.09" x2="154.41" y2="138.09"/><text transform="translate(13.573 23.48)" style="font-family:'Asap-Regular';font-size:7px">240</text><text transform="translate(13.573 42.956)" style="font-family:'Asap-Regular';font-size:7px">200</text><text transform="translate(13.573 62.433)" style="font-family:'Asap-Regular';font-size:7px">160</text><text transform="translate(13.573 81.91)" style="font-family:'Asap-Regular';font-size:7px">120</text><text transform="translate(17.317 101.385)" style="font-family:'Asap-Regular';font-size:7px">80</text><text transform="translate(17.316 120.86)" style="font-family:'Asap-Regular';font-size:7px">40</text><text transform="translate(21.062 140.337)" style="font-family:'Asap-Regular';font-size:7px">0</text><line style="fill:none;stroke:#6d6e70;stroke-width:.5;stroke-linecap:square" x1="31.05" y1="138.09" x2="31.05" y2="140.22"/><line style="fill:none;stroke:#6d6e70;stroke-width:.5;stroke-linecap:square" x1="31.05" y1="138.09" x2="28.92" y2="138.09"/><line style="fill:none;stroke:#6d6e70;stroke-width:.5;stroke-linecap:square" x1="31.05" y1="118.79" x2="28.92" y2="118.79"/><line style="fill:none;stroke:#6d6e70;stroke-width:.5;stroke-linecap:square" x1="31.05" y1="99.48" x2="28.92" y2="99.48"/><line style="fill:none;stroke:#6d6e70;stroke-width:.5;stroke-linecap:square" x1="31.05" y1="80.18" x2="28.92" y2="80.18"/><line style="fill:none;stroke:#6d6e70;stroke-width:.5;stroke-linecap:square" x1="31.05" y1="60.87" x2="28.92" y2="60.87"/><line style="fill:none;stroke:#6d6e70;stroke-width:.5;stroke-linecap:square" x1="31.05" y1="41.57" x2="28.92" y2="41.57"/><line style="fill:none;stroke:#6d6e70;stroke-width:.5;stroke-linecap:square" x1="31.05" y1="22.26" x2="28.92" y2="22.26"/><line style="fill:none;stroke:#6d6e70;stroke-width:.5;stroke-linecap:square" x1="149.63" y1="138.09" x2="149.63" y2="140.22"/><line style="fill:none;stroke:#6d6e70;stroke-width:.5;stroke-linecap:square" x1="129.87" y1="138.09" x2="129.87" y2="140.22"/><line style="fill:none;stroke:#6d6e70;stroke-width:.5;stroke-linecap:square" x1="110.1" y1="138.09" x2="110.1" y2="140.22"/><line style="fill:none;stroke:#6d6e70;stroke-width:.5;stroke-linecap:square" x1="90.34" y1="138.09" x2="90.34" y2="140.22"/><line style="fill:none;stroke:#6d6e70;stroke-width:.5;stroke-linecap:square" x1="70.57" y1="138.09" x2="70.57" y2="140.22"/><line style="fill:none;stroke:#6d6e70;stroke-width:.5;stroke-linecap:square" x1="50.81" y1="138.09" x2="50.81" y2="140.22"/><text transform="translate(30.173 150.431)" style="font-family:'Asap-Regular';font-size:7px">0</text><text transform="translate(47.006 150.431)" style="font-family:'Asap-Regular';font-size:7px">40</text><text transform="translate(65.585 150.431)" style="font-family:'Asap-Regular';font-size:7px">80</text><text transform="translate(83.165 150.431)" style="font-family:'Asap-Regular';font-size:7px">120</text><text transform="translate(104.488 150.431)" style="font-family:'Asap-Regular';font-size:7px">160</text><text transform="translate(124.812 150.431)" style="font-family:'Asap-Regular';font-size:7px">200</text><text transform="translate(144.135 150.431)" style="font-family:'Asap-Regular';font-size:7px">240</text><path style="fill:none;stroke:#3a53a4;stroke-width:.5" d="M58.45 17.21c.21 4.19.54 9.77 1.09 16.34.41 4.94 1.05 12.43 2.4 22.22.26 1.87 1.34 9.64 3.27 19.83 2.07 10.95 3.46 15.85 4.58 19.39 1.34 4.23 2.1 6.61 3.7 9.8 1.39 2.77 4.26 8.35 10.02 13.51 3.37 3.01 6.65 4.92 8.71 6.1 2.88 1.65 5.23 2.68 6.1 3.05 4.06 1.73 7.69 2.67 11.76 3.49 9.75 1.96 19.58 2.75 24.18 3.05M93.52 17.11c.27 1.23.64 2.86 1.1 4.79 1 4.25 1.8 7.43 2.03 8.34.38 1.49 1 3.91 1.88 7.1.63 2.3 1.11 4.03 1.72 6.02.98 3.21 1.84 5.5 3.29 9.42 1.03 2.78 1.67 4.52 2.66 6.95.85 2.09 1.98 4.84 3.6 8.18 2.34 4.82 4.48 8.36 5.32 9.73 2.34 3.79 4.34 6.51 5.01 7.41 1.71 2.29 3.18 4.06 4.07 5.1 1.11 1.3 2.61 3.04 4.69 5.1 2.65 2.62 4.84 4.34 7.35 6.33 2.16 1.7 3.56 2.81 5.63 4.17a59.09 59.09 0 006.88 3.86"/><path style="fill:none;stroke:#3a53a4;stroke-width:.5;stroke-miterlimit:10" d="M75.64 17.26c.24 1.96.59 4.63 1.07 7.8.35 2.29.98 6.28 2.29 12.99 1.24 6.36 2.03 10.4 3.36 15.9 1.49 6.14 2.83 11.58 5.35 18.5 1.64 4.5 3.5 8.61 4.43 10.7 1.66 3.72 2.5 5.34 2.75 5.81 2.16 4.11 4.25 7.1 5.2 8.41 1.74 2.41 4.83 6.63 9.94 11.01 3.25 2.78 6.43 4.69 9.48 6.57 2.14 1.32 3.43 2.01 3.97 2.29 3 1.58 5.35 2.44 8.25 3.52 2.17.8 5.01 1.77 8.41 2.75"/><g style="opacity:.5"><line style="fill:none;stroke:#000;stroke-width:.5;stroke-linecap:square" x1="56.25" y1="119.11" x2="144.62" y2="78.06"/><polygon points="143.98 80.61 143.51 80.42 144.45 78.14 142.1 77.38 142.26 76.9 145.11 77.83"/></g><g style="opacity:.5"><line style="fill:none;stroke:#000;stroke-width:.5;stroke-linecap:square" x1="209.52" y1="93.12" x2="306.8" y2="93.12"/><polygon points="305.14 95.17 304.8 94.8 306.6 93.12 304.8 91.45 305.14 91.08 307.34 93.12"/></g></svg>