<svg version="1.1" xmlns="http://www.w3.org/2000/svg" x="0" y="0" viewBox="0 0 311.81 215.55" style="enable-background:new 0 0 311.81 215.55" xml:space="preserve"><line x1="282.33" y1="176.74" x2="282.33" y2="178.87" style="stroke:#6d6e71;stroke-linecap:square;fill:none;stroke-width:.5"/><line x1="165.38" y1="176.74" x2="165.38" y2="178.87" style="stroke:#6d6e71;stroke-linecap:square;fill:none;stroke-width:.5"/><line x1="48.42" y1="176.74" x2="48.42" y2="3.52" style="stroke:#6d6e71;stroke-linecap:square;fill:none;stroke-width:.5"/><line x1="48.42" y1="176.74" x2="305.72" y2="176.74" style="stroke:#6d6e71;stroke-linecap:square;fill:none;stroke-width:.5"/><path d="M165.31 176.74c-2.75-.11-6.31-.22-8.26-.33-1.71-.1-2.53-.24-3.41-.33-1-.11-1.81-.22-2.61-.33-.59-.08-1.11-.13-2.2-.33-1.5-.28-4.06-.67-6.77-1.33-2.71-.67-6.7-1.78-9.47-2.67-2.77-.89-4.97-1.78-7.15-2.67-2.18-.89-4.09-1.78-5.93-2.67-1.85-.89-3.52-1.78-5.14-2.67a114.208 114.208 0 01-8.7-5.34c-1.32-.89-2.57-1.78-3.77-2.67a117.053 117.053 0 01-6.71-5.34 121.863 121.863 0 01-8.48-8.01c-.86-.89-1.69-1.78-2.5-2.67-.81-.89-1.59-1.78-2.36-2.67-.76-.89-1.51-1.78-2.23-2.67-.72-.89-1.43-1.78-2.11-2.67-.69-.89-1.35-1.78-2-2.67-.65-.89-1.28-1.78-1.9-2.67-.62-.89-1.22-1.78-1.8-2.67-.58-.89-1.15-1.78-1.71-2.67-.56-.89-1.1-1.78-1.62-2.67-.53-.89-1.04-1.78-1.54-2.67-.5-.89-.99-1.78-1.46-2.67-.47-.89-.94-1.78-1.39-2.67-.45-.89-.89-1.78-1.31-2.67-.43-.89-.84-1.78-1.24-2.67-.4-.89-.8-1.78-1.18-2.67a150.915 150.915 0 01-2.16-5.34 144.144 144.144 0 01-1.92-5.34c-.3-.89-.59-1.78-.87-2.67-.28-.89-.55-1.78-.82-2.67-.26-.89-.52-1.78-.76-2.67-.25-.89-.48-1.78-.71-2.67a129.873 129.873 0 01-1.26-5.34c-.19-.89-.38-1.78-.55-2.67-.18-.89-.34-1.78-.5-2.67-.16-.89-.31-1.78-.45-2.67-.14-.89-.28-1.78-.4-2.67-.13-.89-.24-1.78-.35-2.67-.11-.89-.21-1.78-.31-2.67-.09-.89-.18-1.78-.26-2.67-.08-.89-.15-1.78-.21-2.67-.06-.89-.12-1.78-.16-2.67-.05-.89-.09-1.78-.12-2.67-.03-.89-.05-1.78-.07-2.67M282.3 176.74c-2.76-.12-6.32-.24-8.27-.36-1.72-.11-2.53-.25-3.42-.36-1.01-.12-1.82-.24-2.63-.36-.59-.09-1.11-.14-2.21-.36-1.51-.3-4.09-.72-6.83-1.44s-6.8-1.92-9.63-2.89c-2.83-.96-5.11-1.92-7.36-2.89-2.26-.96-4.25-1.92-6.18-2.89-1.94-.96-3.71-1.92-5.43-2.89-1.72-.96-3.33-1.92-4.89-2.89-1.56-.96-3.04-1.92-4.48-2.89-1.44-.96-2.81-1.92-4.15-2.89-1.34-.96-2.63-1.92-3.88-2.89-1.26-.96-2.47-1.92-3.66-2.89-1.19-.96-2.34-1.92-3.47-2.89-1.13-.96-2.22-1.92-3.3-2.89-1.08-.96-2.12-1.92-3.15-2.89-1.03-.96-2.03-1.92-3.02-2.89-.99-.96-1.95-1.92-2.9-2.89-.95-.96-1.88-1.92-2.8-2.89a234.613 234.613 0 01-5.31-5.78c-.86-.96-1.7-1.92-2.53-2.89-.83-.96-1.65-1.92-2.45-2.89-.81-.96-1.6-1.92-2.38-2.89-.78-.96-1.55-1.92-2.31-2.89-.76-.96-1.51-1.92-2.25-2.89-.74-.96-1.47-1.92-2.19-2.89-.72-.96-1.44-1.92-2.14-2.89-.7-.96-1.4-1.92-2.09-2.89-.69-.96-1.37-1.92-2.04-2.89-.67-.96-1.34-1.92-1.99-2.89-.66-.96-1.31-1.92-1.95-2.89-.64-.96-1.28-1.92-1.91-2.89-.63-.96-1.25-1.92-1.87-2.89s-1.23-1.92-1.83-2.89c-.6-.96-1.2-1.92-1.79-2.89-.59-.96-1.18-1.92-1.76-2.89-.58-.96-1.15-1.92-1.72-2.89a273.1 273.1 0 01-1.69-2.89c-.56-.96-1.11-1.92-1.66-2.89-.55-.96-1.09-1.92-1.63-2.89-.54-.96-1.07-1.92-1.6-2.89-.53-.96-1.05-1.92-1.57-2.89-.52-.96-1.03-1.92-1.55-2.89-.51-.96-1.02-1.92-1.52-2.89-.5-.96-1-1.92-1.49-2.89-.49-.96-.98-1.92-1.47-2.89-.49-.96-.97-1.92-1.45-2.89-.48-.96-.95-1.92-1.42-2.89-.47-.96-.94-1.92-1.4-2.89-.46-.96-.92-1.92-1.38-2.89-.46-.96-.91-1.92-1.36-2.89-.45-.96-.89-1.92-1.34-2.89-.44-.96-.88-1.92-1.32-2.89-.44-.96-.87-1.92-1.3-2.89-.43-.96-.85-1.92-1.28-2.89-.42-.96-.84-1.92-1.26-2.89-.42-.96-.83-1.92-1.24-2.89-.41-.96-.82-1.92-1.22-2.89-.4-.96-.81-1.92-1.2-2.89-.4-.96-.79-1.92-1.19-2.89-.39-.96-.78-1.92-1.17-2.89-.39-.96-.77-1.92-1.15-2.89" style="stroke:#3a53a4;stroke-linejoin:round;stroke-miterlimit:10;fill:none;stroke-width:.5"/><text transform="translate(167.513 172.29)"><tspan x="0" y="0" style="font-size:6px;font-family:'Asap-Regular'">B</tspan><tspan x="3.55" y="0" style="font-family:'SourceSansPro-Regular';font-size:6px">&apos;</tspan></text><text transform="translate(57.045 78.041)"><tspan x="0" y="0" style="font-size:6px;font-family:'Asap-Regular'">A</tspan><tspan x="3.68" y="0" style="font-family:'SourceSansPro-Regular';font-size:6px">&apos;</tspan></text><text transform="translate(54.21 46.226)" style="font-size:6px;font-family:'Asap-Regular'">A</text><text transform="translate(283.88 172.25)" style="font-size:6px;font-family:'Asap-Regular'">B</text><text transform="translate(37.147 178.886)" style="font-size:7px;font-family:'Asap-Regular'">0</text><text transform="translate(33.424 165.562)"><tspan x="0" y="0" style="font-size:7px;font-family:'Asap-Regular'">1</tspan><tspan x="3.72" y="0" style="font-size:7px;font-family:'Asap-Regular'">0</tspan></text><text transform="translate(33.424 152.237)"><tspan x="0" y="0" style="font-size:7px;font-family:'Asap-Regular'">2</tspan><tspan x="3.72" y="0" style="font-size:7px;font-family:'Asap-Regular'">0</tspan></text><text transform="translate(33.424 138.913)"><tspan x="0" y="0" style="font-size:7px;font-family:'Asap-Regular'">3</tspan><tspan x="3.72" y="0" style="font-size:7px;font-family:'Asap-Regular'">0</tspan></text><text transform="translate(33.424 125.588)"><tspan x="0" y="0" style="font-size:7px;font-family:'Asap-Regular'">4</tspan><tspan x="3.72" y="0" style="font-size:7px;font-family:'Asap-Regular'">0</tspan></text><text transform="translate(33.424 112.264)"><tspan x="0" y="0" style="font-size:7px;font-family:'Asap-Regular'">5</tspan><tspan x="3.72" y="0" style="font-size:7px;font-family:'Asap-Regular'">0</tspan></text><text transform="translate(33.424 98.94)"><tspan x="0" y="0" style="font-size:7px;font-family:'Asap-Regular'">6</tspan><tspan x="3.72" y="0" style="font-size:7px;font-family:'Asap-Regular'">0</tspan></text><text transform="translate(33.424 85.615)"><tspan x="0" y="0" style="font-size:7px;font-family:'Asap-Regular'">7</tspan><tspan x="3.72" y="0" style="font-size:7px;font-family:'Asap-Regular'">0</tspan></text><text transform="translate(33.424 72.29)"><tspan x="0" y="0" style="font-size:7px;font-family:'Asap-Regular'">8</tspan><tspan x="3.72" y="0" style="font-size:7px;font-family:'Asap-Regular'">0</tspan></text><text transform="translate(33.424 58.966)"><tspan x="0" y="0" style="font-size:7px;font-family:'Asap-Regular'">9</tspan><tspan x="3.72" y="0" style="font-size:7px;font-family:'Asap-Regular'">0</tspan></text><text transform="translate(29.616 45.642)"><tspan x="0" y="0" style="font-size:7px;font-family:'Asap-Regular'">1</tspan><tspan x="3.72" y="0" style="font-size:7px;font-family:'Asap-Regular'">0</tspan><tspan x="7.53" y="0" style="font-size:7px;font-family:'Asap-Regular'">0</tspan></text><text transform="translate(29.616 32.317)"><tspan x="0" y="0" style="font-size:7px;font-family:'Asap-Regular'">1</tspan><tspan x="3.72" y="0" style="font-size:7px;font-family:'Asap-Regular'">1</tspan><tspan x="7.53" y="0" style="font-size:7px;font-family:'Asap-Regular'">0</tspan></text><text transform="translate(29.616 18.993)"><tspan x="0" y="0" style="font-size:7px;font-family:'Asap-Regular'">1</tspan><tspan x="3.72" y="0" style="font-size:7px;font-family:'Asap-Regular'">2</tspan><tspan x="7.53" y="0" style="font-size:7px;font-family:'Asap-Regular'">0</tspan></text><text transform="translate(29.616 5.668)"><tspan x="0" y="0" style="font-size:7px;font-family:'Asap-Regular'">1</tspan><tspan x="3.72" y="0" style="font-size:7px;font-family:'Asap-Regular'">3</tspan><tspan x="7.53" y="0" style="font-size:7px;font-family:'Asap-Regular'">0</tspan></text><text transform="translate(46.549 189.398)" style="font-size:7px;font-family:'Asap-Regular'">0</text><text transform="translate(68.077 189.398)"><tspan x="0" y="0" style="font-size:7px;font-family:'Asap-Regular'">1</tspan><tspan x="3.72" y="0" style="font-size:7px;font-family:'Asap-Regular'">0</tspan></text><text transform="translate(91.468 189.398)"><tspan x="0" y="0" style="font-size:7px;font-family:'Asap-Regular'">2</tspan><tspan x="3.72" y="0" style="font-size:7px;font-family:'Asap-Regular'">0</tspan></text><text transform="translate(114.859 189.398)"><tspan x="0" y="0" style="font-size:7px;font-family:'Asap-Regular'">3</tspan><tspan x="3.72" y="0" style="font-size:7px;font-family:'Asap-Regular'">0</tspan></text><text transform="translate(138.25 189.398)"><tspan x="0" y="0" style="font-size:7px;font-family:'Asap-Regular'">4</tspan><tspan x="3.72" y="0" style="font-size:7px;font-family:'Asap-Regular'">0</tspan></text><text transform="translate(161.64 189.398)"><tspan x="0" y="0" style="font-size:7px;font-family:'Asap-Regular'">5</tspan><tspan x="3.72" y="0" style="font-size:7px;font-family:'Asap-Regular'">0</tspan></text><text transform="translate(185.031 189.398)"><tspan x="0" y="0" style="font-size:7px;font-family:'Asap-Regular'">6</tspan><tspan x="3.72" y="0" style="font-size:7px;font-family:'Asap-Regular'">0</tspan></text><text transform="translate(208.422 189.398)"><tspan x="0" y="0" style="font-size:7px;font-family:'Asap-Regular'">7</tspan><tspan x="3.72" y="0" style="font-size:7px;font-family:'Asap-Regular'">0</tspan></text><text transform="translate(231.813 189.398)"><tspan x="0" y="0" style="font-size:7px;font-family:'Asap-Regular'">8</tspan><tspan x="3.72" y="0" style="font-size:7px;font-family:'Asap-Regular'">0</tspan></text><text transform="translate(255.204 189.398)"><tspan x="0" y="0" style="font-size:7px;font-family:'Asap-Regular'">9</tspan><tspan x="3.72" y="0" style="font-size:7px;font-family:'Asap-Regular'">0</tspan></text><text transform="translate(276.691 189.398)"><tspan x="0" y="0" style="font-size:7px;font-family:'Asap-Regular'">1</tspan><tspan x="3.72" y="0" style="font-size:7px;font-family:'Asap-Regular'">0</tspan><tspan x="7.53" y="0" style="font-size:7px;font-family:'Asap-Regular'">0</tspan></text><text transform="translate(300.082 189.398)"><tspan x="0" y="0" style="font-size:7px;font-family:'Asap-Regular'">1</tspan><tspan x="3.72" y="0" style="font-size:7px;font-family:'Asap-Regular'">1</tspan><tspan x="7.53" y="0" style="font-size:7px;font-family:'Asap-Regular'">0</tspan></text><text transform="translate(139.688 206.363)"><tspan x="0" y="0" style="font-size:8px;font-family:'Asap-Medium'">C</tspan><tspan x="4.92" y="0" style="font-size:8px;font-family:'Asap-Medium'">o</tspan><tspan x="9.47" y="0" style="font-size:8px;font-family:'Asap-Medium'">n</tspan><tspan x="13.9" y="0" style="font-size:8px;font-family:'Asap-Medium'">s</tspan><tspan x="17.22" y="0" style="font-size:8px;font-family:'Asap-Medium'">u</tspan><tspan x="21.66" y="0" style="font-size:8px;font-family:'Asap-Medium'">m</tspan><tspan x="28.46" y="0" style="font-size:8px;font-family:'Asap-Medium'">pt</tspan><tspan x="35.78" y="0" style="font-size:8px;font-family:'Asap-Medium'">i</tspan><tspan x="37.86" y="0" style="font-size:8px;font-family:'Asap-Medium'">o</tspan><tspan x="42.42" y="0" style="font-size:8px;font-family:'Asap-Medium'">n</tspan><tspan x="46.84" y="0" style="font-size:8px;font-family:'Asap-Medium'"> </tspan><tspan x="49.08" y="0" style="font-size:8px;font-family:'Asap-Medium'">n</tspan><tspan x="53.5" y="0" style="font-size:8px;font-family:'Asap-Medium'">o</tspan><tspan x="58.06" y="0" style="font-size:8px;font-family:'Asap-Medium'">w </tspan><tspan x="66.02" y="0" style="font-size:8px;font-family:'Asap-Medium'">(</tspan><tspan x="68.42" y="0" style="font-size:8px;font-family:'Asap-Medium'">$</tspan><tspan x="72.36" y="0" style="font-size:8px;font-family:'Asap-Medium'">)</tspan></text><text transform="rotate(-90 71.495 56.889)"><tspan x="0" y="0" style="font-size:8px;font-family:'Asap-Medium'">C</tspan><tspan x="4.92" y="0" style="font-size:8px;font-family:'Asap-Medium'">o</tspan><tspan x="9.47" y="0" style="font-size:8px;font-family:'Asap-Medium'">n</tspan><tspan x="13.9" y="0" style="font-size:8px;font-family:'Asap-Medium'">s</tspan><tspan x="17.22" y="0" style="font-size:8px;font-family:'Asap-Medium'">u</tspan><tspan x="21.66" y="0" style="font-size:8px;font-family:'Asap-Medium'">m</tspan><tspan x="28.46" y="0" style="font-size:8px;font-family:'Asap-Medium'">pt</tspan><tspan x="35.78" y="0" style="font-size:8px;font-family:'Asap-Medium'">i</tspan><tspan x="37.86" y="0" style="font-size:8px;font-family:'Asap-Medium'">o</tspan><tspan x="42.42" y="0" style="font-size:8px;font-family:'Asap-Medium'">n</tspan><tspan x="46.84" y="0" style="font-size:8px;font-family:'Asap-Medium'"> </tspan><tspan x="49.08" y="0" style="font-size:8px;font-family:'Asap-Medium'">l</tspan><tspan x="51.45" y="0" style="font-size:8px;font-family:'Asap-Medium'">a</tspan><tspan x="55.82" y="0" style="font-size:8px;font-family:'Asap-Medium'">t</tspan><tspan x="58.56" y="0" style="font-size:8px;font-family:'Asap-Medium'">e</tspan><tspan x="62.85" y="0" style="font-size:8px;font-family:'Asap-Medium'">r</tspan><tspan x="65.8" y="0" style="font-size:8px;font-family:'Asap-Medium'"> </tspan><tspan x="67.75" y="0" style="font-size:8px;font-family:'Asap-Medium'">(</tspan><tspan x="70.15" y="0" style="font-size:8px;font-family:'Asap-Medium'">$</tspan><tspan x="74.09" y="0" style="font-size:8px;font-family:'Asap-Medium'">)</tspan></text><line x1="46.3" y1="176.74" x2="48.42" y2="176.74" style="stroke:#6d6e71;stroke-linecap:square;fill:none;stroke-width:.5"/><line x1="46.3" y1="163.42" x2="48.42" y2="163.42" style="stroke:#6d6e71;stroke-linecap:square;fill:none;stroke-width:.5"/><line x1="46.3" y1="150.09" x2="48.42" y2="150.09" style="stroke:#6d6e71;stroke-linecap:square;fill:none;stroke-width:.5"/><line x1="46.3" y1="136.77" x2="48.42" y2="136.77" style="stroke:#6d6e71;stroke-linecap:square;fill:none;stroke-width:.5"/><line x1="46.3" y1="123.44" x2="48.42" y2="123.44" style="stroke:#6d6e71;stroke-linecap:square;fill:none;stroke-width:.5"/><line x1="46.3" y1="110.12" x2="48.42" y2="110.12" style="stroke:#6d6e71;stroke-linecap:square;fill:none;stroke-width:.5"/><line x1="46.3" y1="96.79" x2="48.42" y2="96.79" style="stroke:#6d6e71;stroke-linecap:square;fill:none;stroke-width:.5"/><line x1="46.3" y1="83.47" x2="48.42" y2="83.47" style="stroke:#6d6e71;stroke-linecap:square;fill:none;stroke-width:.5"/><line x1="46.3" y1="70.15" x2="48.42" y2="70.15" style="stroke:#6d6e71;stroke-linecap:square;fill:none;stroke-width:.5"/><line x1="46.3" y1="56.82" x2="48.42" y2="56.82" style="stroke:#6d6e71;stroke-linecap:square;fill:none;stroke-width:.5"/><line x1="46.3" y1="43.5" x2="48.42" y2="43.5" style="stroke:#6d6e71;stroke-linecap:square;fill:none;stroke-width:.5"/><line x1="46.3" y1="30.17" x2="48.42" y2="30.17" style="stroke:#6d6e71;stroke-linecap:square;fill:none;stroke-width:.5"/><line x1="46.3" y1="16.85" x2="48.42" y2="16.85" style="stroke:#6d6e71;stroke-linecap:square;fill:none;stroke-width:.5"/><line x1="46.3" y1="3.52" x2="48.42" y2="3.52" style="stroke:#6d6e71;stroke-linecap:square;fill:none;stroke-width:.5"/><line x1="48.42" y1="176.74" x2="48.42" y2="178.87" style="stroke:#6d6e71;stroke-linecap:square;fill:none;stroke-width:.5"/><line x1="71.81" y1="176.74" x2="71.81" y2="178.87" style="stroke:#6d6e71;stroke-linecap:square;fill:none;stroke-width:.5"/><line x1="95.2" y1="176.74" x2="95.2" y2="178.87" style="stroke:#6d6e71;stroke-linecap:square;fill:none;stroke-width:.5"/><line x1="118.59" y1="176.74" x2="118.59" y2="178.87" style="stroke:#6d6e71;stroke-linecap:square;fill:none;stroke-width:.5"/><line x1="141.98" y1="176.74" x2="141.98" y2="178.87" style="stroke:#6d6e71;stroke-linecap:square;fill:none;stroke-width:.5"/><line x1="188.77" y1="176.74" x2="188.77" y2="178.87" style="stroke:#6d6e71;stroke-linecap:square;fill:none;stroke-width:.5"/><line x1="212.16" y1="176.74" x2="212.16" y2="178.87" style="stroke:#6d6e71;stroke-linecap:square;fill:none;stroke-width:.5"/><line x1="235.55" y1="176.74" x2="235.55" y2="178.87" style="stroke:#6d6e71;stroke-linecap:square;fill:none;stroke-width:.5"/><line x1="258.94" y1="176.74" x2="258.94" y2="178.87" style="stroke:#6d6e71;stroke-linecap:square;fill:none;stroke-width:.5"/><line x1="305.72" y1="176.74" x2="305.72" y2="178.87" style="stroke:#6d6e71;stroke-linecap:square;fill:none;stroke-width:.5"/><text transform="translate(236.164 152.619)"><tspan x="0" y="0" style="font-size:6px;font-family:'Asap-Regular'">J</tspan><tspan x="2.41" y="0" style="font-size:6px;font-family:'Asap-Regular'">u</tspan><tspan x="5.77" y="0" style="font-size:6px;font-family:'Asap-Regular'">l</tspan><tspan x="7.54" y="0" style="font-size:6px;font-family:'Asap-Regular'">i</tspan><tspan x="9.1" y="0" style="font-size:6px;font-family:'Asap-Regular'">a</tspan><tspan x="12.38" y="0" style="font-size:6px;font-family:'Asap-Regular'">’</tspan><tspan x="13.68" y="0" style="font-size:6px;font-family:'Asap-Regular'">s</tspan><tspan x="16.13" y="0" style="font-size:6px;font-family:'Asap-Regular'"> </tspan><tspan x="17.57" y="0" style="font-size:6px;font-family:'Asap-Regular'">i</tspan><tspan x="19.13" y="0" style="font-size:6px;font-family:'Asap-Regular'">n</tspan><tspan x="22.47" y="0" style="font-size:6px;font-family:'Asap-Regular'">d</tspan><tspan x="25.89" y="0" style="font-size:6px;font-family:'Asap-Regular'">i</tspan><tspan x="27.45" y="0" style="font-size:6px;font-family:'Asap-Regular'">ff</tspan><tspan x="31.35" y="0" style="font-size:6px;font-family:'Asap-Regular'">e</tspan><tspan x="34.58" y="0" style="font-size:6px;font-family:'Asap-Regular'">r</tspan><tspan x="36.77" y="0" style="font-size:6px;font-family:'Asap-Regular'">e</tspan><tspan x="39.99" y="0" style="font-size:6px;font-family:'Asap-Regular'">n</tspan><tspan x="43.34" y="0" style="font-size:6px;font-family:'Asap-Regular'">ce</tspan><tspan x="49.46" y="0" style="font-size:6px;font-family:'Asap-Regular'"> </tspan><tspan x="51.05" y="0" style="font-size:6px;font-family:'Asap-Regular'">c</tspan><tspan x="53.95" y="0" style="font-size:6px;font-family:'Asap-Regular'">u</tspan><tspan x="57.3" y="0" style="font-size:6px;font-family:'Asap-Regular'">rve</tspan><tspan x="0" y="7.2" style="font-size:6px;font-family:'Asap-Regular'">if she had $100 now</tspan></text><text transform="translate(175.625 104.367)" style="font-size:6px;font-family:'Asap-Regular'">Julia’s utility increases</text><text transform="translate(55.862 62.194)" style="font-size:6px;font-family:'Asap-Regular'">Julia’s reservation IC</text><text transform="translate(55.838 26.055)" style="font-size:6px;font-family:'Asap-Regular'">Julia’s endowment</text><path d="M52.69 73.91a1.129 1.129 0 11-2.258.002 1.129 1.129 0 012.258-.002z"/><path d="M56.05 29.73v9.48" style="fill:none;stroke:#939598;stroke-width:.5;stroke-linecap:square;stroke-linejoin:round"/><polygon points="54.01 37.43 54.37 37.09 56.05 38.89 57.73 37.09 58.09 37.43 56.05 39.63" style="fill:#939598"/><line x1="156.61" y1="108.66" x2="193.66" y2="71.6" style="fill:none;stroke:#939598;stroke-width:.5;stroke-linecap:square;stroke-linejoin:round"/><polygon points="193.93 74.22 193.43 74.2 193.52 71.74 191.06 71.83 191.04 71.33 194.04 71.22" style="fill:#939598"/><circle cx="48.44" cy="43.46" r="1.13"/><circle cx="165.38" cy="176.45" r="1.13"/><circle cx="282.3" cy="176.59" r="1.13"/><path d="M199.31 3.52c.68 1.04 1.36 2.07 2.04 3.11.68 1.03 1.36 2.06 2.04 3.08.68 1.02 1.36 2.04 2.04 3.05l2.04 3.03 2.04 3c.68.99 1.36 1.99 2.04 2.97.68.99 1.36 1.97 2.04 2.95.68.98 1.36 1.95 2.04 2.92.68.97 1.36 1.93 2.04 2.89.68.96 1.36 1.91 2.04 2.87a698.616 698.616 0 004.08 5.65l2.04 2.79 2.04 2.76c.68.91 1.36 1.83 2.04 2.73.68.91 1.36 1.81 2.04 2.71.68.9 1.36 1.79 2.04 2.68.68.89 1.36 1.77 2.04 2.65.68.88 1.36 1.75 2.04 2.63a589.763 589.763 0 004.08 5.17l2.04 2.55 2.04 2.52c.68.84 1.36 1.67 2.04 2.49.68.83 1.36 1.65 2.04 2.47.68.82 1.36 1.63 2.04 2.44.68.81 1.36 1.61 2.04 2.41.68.8 1.36 1.59 2.04 2.39a496.018 496.018 0 004.08 4.69l2.04 2.31 2.04 2.28c.68.76 1.36 1.51 2.04 2.25.68.75 1.36 1.49 2.04 2.23.68.74 1.36 1.47 2.04 2.2.68.73 1.36 1.45 2.04 2.17.68.72 1.36 1.43 2.04 2.15a416.126 416.126 0 004.08 4.21l2.04 2.07 2.04 2.04c.68.68 1.36 1.35 2.04 2.01a378.198 378.198 0 006.12 5.88c.68.64 1.36 1.27 2.04 1.91.68.63 1.36 1.25 2.04 1.88" style="fill:none;stroke:#3b54a4;stroke-width:.5;stroke-linecap:square;stroke-linejoin:round;stroke-miterlimit:10"/><text transform="translate(220.56 21.532)" style="font-size:6px;font-family:'Asap-Regular'">Higher IC</text></svg>