<svg version="1.1" xmlns="http://www.w3.org/2000/svg" x="0" y="0" viewBox="0 0 311.81 191.68" style="enable-background:new 0 0 311.81 191.68" xml:space="preserve"><rect x="48.11" y="52.29" style="fill:#d5daef;stroke:#3a53a4;stroke-width:.5;stroke-miterlimit:10" width="95.47" height="71.96"/><rect x="159.94" y="52.29" style="fill:none;stroke:#3c54a4;stroke-width:.5;stroke-miterlimit:10" width="64.41" height="71.96"/><rect x="123.82" y="15.26" style="fill:none" width="77.93" height="8.64"/><text transform="translate(140.985 21.279)" style="fill:#009147;font-family:'Asap-Medium';font-size:8px">Recruitment</text><text transform="translate(63.188 64.242)"><tspan x="0" y="0" style="font-family:'Asap-MediumItalic';font-size:7px">N</tspan><tspan x="5.03" y="0" style="font-family:'Asap-Regular';font-size:7px"> employed workers;</tspan><tspan x="14.15" y="8.4" style="font-family:'Asap-MediumItalic';font-size:7px">N</tspan><tspan x="19.18" y="8.4" style="font-family:'Asap-Regular';font-size:7px"> filled jobs</tspan></text><rect x="107.08" y="164.51" style="fill:none" width="130.54" height="6.92"/><text transform="translate(145.3 169.774)" style="fill:#ed1f24;font-family:'Asap-Regular';font-size:7px">Quits and lay-offs</text><rect x="99.28" y="139.88" style="fill:none" width="49.07" height="9"/><text transform="translate(100.82 145.145)" style="fill:#ed1f24;font-family:'Asap-Regular';font-size:7px">Jobs destroyed</text><rect x="236.03" y="52.29" style="fill:none;stroke:#3c54a4;stroke-width:.5;stroke-miterlimit:10" width="64.41" height="71.96"/><path style="fill:#010101" d="M51.56 112.08h1.29c.09-.54.17-1.08.25-1.62h4.73v1.62h1.27v-4.47h.27v-1.27h-5.92c.13-3.33-.11-6.67-.74-9.96l-1.25.24c.99 5.1 1.02 10.34.1 15.46zm1.83-4.47h4.44v2.16h-4.65c.1-.72.16-1.44.21-2.16z"/><circle transform="rotate(-76.879 60.126 92.579)" style="fill:#010101" cx="60.13" cy="92.58" r="2.6"/><path style="fill:#010101" d="M56.92 105.82c.07.01.15.02.22.02h4.8l-.88 4.5a1.459 1.459 0 001.42 1.73c.68 0 1.28-.48 1.42-1.17l1.22-6.22c.08-.43-.03-.86-.3-1.2-.08-.1-.17-.18-.27-.25-.21.31-.56.51-.96.51h-.08c-1.2-.08-2.28-.35-3.21-.78h-1.61c0-.33.02-.67.05-1-.51-.43-.95-.94-1.3-1.51-.81-1.31-.98-2.52-1.01-2.99v-.01c-.02-.32.09-.61.3-.84.21-.23.49-.36.8-.38h.06c.61 0 1.12.48 1.16 1.09v.06c.01.05.02.13.04.24.04.2.11.52.26.88.06.14.12.28.19.42.05-.26.1-.51.15-.74.33-1.15-.1-2.53-1.09-2.78-.99-.25-2.42.29-3 1.98-.79 2.33-.96 3.85-.66 6.42.29 1.63 1.32 1.97 2.28 2.02z"/><path style="fill:#010101" d="M58.54 97.65c-.02-.11-.03-.2-.04-.26 0-.03 0-.05-.01-.06v-.01a.919.919 0 00-.97-.87c-.51.02-.9.46-.88.97.01.09.07 1.43.98 2.9.45.73 1.13 1.48 2.1 2.07.97.59 2.22 1.01 3.8 1.12h.07c.48 0 .89-.37.92-.86a.928.928 0 00-.86-.99c-1.32-.09-2.26-.43-2.97-.85-1.05-.64-1.58-1.5-1.88-2.23-.14-.38-.22-.71-.26-.93zM70.35 112.67h1.29c.09-.54.17-1.08.25-1.62h4.73v1.62h1.27v-4.47h.27v-1.27h-5.92c.13-3.33-.11-6.67-.74-9.96l-1.25.24c.99 5.1 1.02 10.34.1 15.46zm1.83-4.48h4.44v2.16h-4.65c.1-.72.16-1.44.21-2.16z"/><circle transform="rotate(-76.879 78.916 93.164)" style="fill:#010101" cx="78.92" cy="93.17" r="2.6"/><path style="fill:#010101" d="M75.71 106.41c.07.01.15.02.22.02h4.8l-.88 4.5a1.459 1.459 0 001.42 1.73c.68 0 1.28-.48 1.42-1.17l1.22-6.22c.08-.43-.03-.86-.3-1.2-.08-.1-.17-.18-.27-.25-.21.31-.56.51-.96.51h-.08c-1.2-.08-2.28-.35-3.21-.78h-1.61c0-.33.02-.67.05-1-.51-.43-.95-.94-1.3-1.51-.81-1.31-.98-2.52-1.01-2.99v-.01c-.02-.32.09-.61.3-.84.21-.23.49-.36.8-.38h.06c.61 0 1.12.48 1.16 1.09v.06c.01.05.02.13.04.24.04.2.11.52.26.88.06.14.12.28.19.42.05-.26.1-.51.15-.74.33-1.15-.1-2.53-1.09-2.78-.99-.25-2.42.29-3 1.98-.79 2.33-.96 3.85-.66 6.42.29 1.62 1.32 1.97 2.28 2.02z"/><path style="fill:#010101" d="M77.33 98.23c-.02-.11-.03-.2-.04-.26 0-.03 0-.05-.01-.06v-.01a.919.919 0 00-.97-.87c-.51.02-.9.46-.88.97.01.09.07 1.43.98 2.9.45.73 1.13 1.48 2.1 2.07.97.59 2.22 1.01 3.8 1.12h.07c.48 0 .89-.37.92-.86a.928.928 0 00-.86-.99c-1.32-.09-2.26-.43-2.97-.85-1.05-.64-1.58-1.5-1.88-2.23-.14-.37-.22-.7-.26-.93zM89.14 112.08h1.29c.09-.54.17-1.08.25-1.62h4.73v1.62h1.27v-4.47h.27v-1.27h-5.92c.13-3.33-.11-6.67-.74-9.96l-1.25.24c.99 5.1 1.02 10.34.1 15.46zm1.83-4.47h4.44v2.16h-4.65c.1-.72.16-1.44.21-2.16z"/><circle transform="rotate(-76.879 97.706 92.58)" style="fill:#010101" cx="97.71" cy="92.58" r="2.6"/><path style="fill:#010101" d="M94.5 105.82c.07.01.15.02.22.02h4.8l-.88 4.5a1.459 1.459 0 001.42 1.73c.68 0 1.28-.48 1.42-1.17l1.22-6.22c.08-.43-.03-.86-.3-1.2-.08-.1-.17-.18-.27-.25-.21.31-.56.51-.96.51h-.08c-1.2-.08-2.28-.35-3.21-.78h-1.61c0-.33.02-.67.05-1-.51-.43-.95-.94-1.3-1.51-.81-1.31-.98-2.52-1.01-2.99v-.01c-.02-.32.09-.61.3-.84.21-.23.49-.36.8-.38h.06c.61 0 1.12.48 1.16 1.09v.06c.01.05.02.13.04.24.04.2.11.52.26.88.06.14.12.28.19.42.05-.26.1-.51.15-.74.33-1.15-.1-2.53-1.09-2.78-.99-.25-2.42.29-3 1.98-.79 2.33-.96 3.85-.66 6.42.29 1.63 1.32 1.97 2.28 2.02z"/><path style="fill:#010101" d="M96.12 97.65c-.02-.11-.03-.2-.04-.26 0-.03 0-.05-.01-.06v-.01a.919.919 0 00-.97-.87c-.51.02-.9.46-.88.97.01.09.07 1.43.98 2.9.45.73 1.13 1.48 2.1 2.07.97.59 2.22 1.01 3.8 1.12h.07c.48 0 .89-.37.92-.86a.928.928 0 00-.86-.99c-1.32-.09-2.26-.43-2.97-.85-1.05-.64-1.58-1.5-1.88-2.23-.14-.38-.22-.71-.26-.93zM108.23 112.17h1.29c.09-.54.17-1.08.25-1.62h4.73v1.62h1.27v-4.47h.27v-1.27h-5.92c.13-3.33-.11-6.67-.74-9.96l-1.25.24c.99 5.1 1.02 10.35.1 15.46zm1.83-4.47h4.44v2.16h-4.65c.1-.72.16-1.44.21-2.16z"/><circle transform="rotate(-76.879 116.795 92.672)" style="fill:#010101" cx="116.8" cy="92.67" r="2.6"/><path style="fill:#010101" d="M113.59 105.91c.07.01.15.02.22.02h4.8l-.88 4.5a1.459 1.459 0 001.42 1.73c.68 0 1.28-.48 1.42-1.17l1.22-6.22c.08-.43-.03-.86-.3-1.2-.08-.1-.17-.18-.27-.25-.21.31-.56.51-.96.51h-.08c-1.2-.08-2.28-.35-3.21-.78h-1.61c0-.33.02-.67.05-1-.51-.43-.95-.94-1.3-1.51-.81-1.31-.98-2.52-1.01-2.99v-.01c-.02-.32.09-.61.3-.84.21-.23.49-.36.8-.38h.06c.61 0 1.12.48 1.16 1.09v.06c.01.05.02.13.04.24.04.2.11.52.26.88.06.14.12.28.19.42.05-.26.1-.51.15-.74.33-1.15-.1-2.53-1.09-2.78-.99-.25-2.42.29-3 1.98-.79 2.33-.96 3.85-.66 6.42.29 1.63 1.32 1.97 2.28 2.02z"/><path style="fill:#010101" d="M115.21 97.74c-.02-.11-.03-.2-.04-.26 0-.03 0-.05-.01-.06v-.01a.919.919 0 00-.97-.87c-.51.02-.9.46-.88.97.01.09.07 1.43.98 2.9.45.73 1.13 1.48 2.1 2.07.97.59 2.22 1.01 3.8 1.12h.07c.48 0 .89-.37.92-.86a.928.928 0 00-.86-.99c-1.32-.09-2.26-.43-2.97-.85-1.05-.64-1.58-1.5-1.88-2.23-.14-.38-.22-.7-.26-.93zM126.23 112.17h1.29c.09-.54.17-1.08.25-1.62h4.73v1.62h1.27v-4.47h.27v-1.27h-5.92c.13-3.33-.11-6.67-.74-9.96l-1.25.24c.99 5.1 1.02 10.35.1 15.46zm1.83-4.47h4.44v2.16h-4.65c.1-.72.16-1.44.21-2.16z"/><circle transform="rotate(-76.879 134.794 92.673)" style="fill:#010101" cx="134.8" cy="92.67" r="2.6"/><path style="fill:#010101" d="M131.59 105.91c.07.01.15.02.22.02h4.8l-.88 4.5a1.459 1.459 0 001.42 1.73c.68 0 1.28-.48 1.42-1.17l1.22-6.22c.08-.43-.03-.86-.3-1.2-.08-.1-.17-.18-.27-.25-.21.31-.56.51-.96.51h-.08c-1.2-.08-2.28-.35-3.21-.78h-1.61c0-.33.02-.67.05-1-.51-.43-.95-.94-1.3-1.51-.81-1.31-.98-2.52-1.01-2.99v-.01c-.02-.32.09-.61.3-.84.21-.23.49-.36.8-.38h.06c.61 0 1.12.48 1.16 1.09v.06c.01.05.02.13.04.24.04.2.11.52.26.88.06.14.12.28.19.42.05-.26.1-.51.15-.74.33-1.15-.1-2.53-1.09-2.78-.99-.25-2.42.29-3 1.98-.79 2.33-.96 3.85-.66 6.42.29 1.63 1.32 1.97 2.28 2.02z"/><path style="fill:#010101" d="M133.21 97.74c-.02-.11-.03-.2-.04-.26 0-.03 0-.05-.01-.06v-.01a.919.919 0 00-.97-.87c-.51.02-.9.46-.88.97.01.09.07 1.43.98 2.9.45.73 1.13 1.48 2.1 2.07.97.59 2.22 1.01 3.8 1.12h.07c.48 0 .89-.37.92-.86a.928.928 0 00-.86-.99c-1.32-.09-2.26-.43-2.97-.85-1.05-.64-1.58-1.5-1.88-2.23-.14-.38-.22-.7-.26-.93z"/><text transform="translate(190.593 64.242)"><tspan x="0" y="0" style="font-family:'Asap-MediumItalic';font-size:7px">V</tspan><tspan x="4.32" y="0" style="font-family:'Asap-Regular';font-size:7px"> </tspan><tspan x="-14.95" y="8.4" style="font-family:'Asap-Regular';font-size:7px">V</tspan><tspan x="-10.84" y="8.4" style="font-family:'Asap-Regular';font-size:7px">acant jobs</tspan></text><path style="fill-rule:evenodd;clip-rule:evenodd;fill:#010101" d="M170 86.81v6.55h5.75v-6.52h.04c.24 0 .44-.2.44-.44s-.2-.44-.44-.44h-5.07l-1.38-6.39a.446.446 0 00-.87.19l1.45 6.74.08.31zm.44.8v2.32h4.86v-2.32h-4.86zm0 2.77v2.98h4.86v-2.98h-4.86zM183.11 86.81v6.55h5.75v-6.52h.04c.24 0 .44-.2.44-.44s-.2-.44-.44-.44h-5.07l-1.38-6.39a.446.446 0 00-.87.19l1.45 6.74.08.31zm.44.8v2.32h4.86v-2.32h-4.86zm0 2.77v2.98h4.86v-2.98h-4.86zM196.79 86.81v6.55h5.75v-6.52h.04c.24 0 .44-.2.44-.44s-.2-.44-.44-.44h-5.07l-1.38-6.39a.446.446 0 00-.87.19l1.45 6.74.08.31zm.44.8v2.32h4.86v-2.32h-4.86zm0 2.77v2.98h4.86v-2.98h-4.86zM209.4 86.81v6.55h5.75v-6.52h.04c.24 0 .44-.2.44-.44s-.2-.44-.44-.44h-5.07l-1.38-6.39a.446.446 0 00-.87.19l1.45 6.74.08.31zm.44.8v2.32h4.86v-2.32h-4.86zm0 2.77v2.98h4.86v-2.98h-4.86zM176.57 108.13v6.55h5.75v-6.52h.04c.24 0 .44-.2.44-.44s-.2-.44-.44-.44h-5.07l-1.38-6.39a.446.446 0 00-.87.19l1.45 6.74.08.31zm.45.8v2.32h4.86v-2.32h-4.86zm0 2.77v2.98h4.86v-2.98h-4.86zM189.79 108.13v6.55h5.75v-6.52h.04c.24 0 .44-.2.44-.44s-.2-.44-.44-.44h-5.07l-1.38-6.39a.446.446 0 00-.87.19l1.45 6.74.08.31zm.44.8v2.32h4.86v-2.32h-4.86zm0 2.77v2.98h4.86v-2.98h-4.86zM203.51 108.13v6.55h5.75v-6.52h.04c.24 0 .44-.2.44-.44s-.2-.44-.44-.44h-5.07l-1.38-6.39a.446.446 0 00-.87.19l1.45 6.74.08.31zm.45.8v2.32h4.86v-2.32h-4.86zm0 2.77v2.98h4.86v-2.98h-4.86z"/><text transform="translate(264.903 64.242)"><tspan x="0" y="0" style="font-family:'Asap-MediumItalic';font-size:7px">U</tspan><tspan x="4.98" y="0" style="font-family:'Asap-Regular';font-size:7px"> </tspan><tspan x="-16.55" y="8.4" style="font-family:'Asap-Regular';font-size:7px">Unemployed</tspan><tspan x="-8.99" y="16.8" style="font-family:'Asap-Regular';font-size:7px">workers</tspan></text><path style="fill:#010101" d="M240.64 105.66h.04c.39-.02.69-.36.67-.76-.04-.59-.05-1.14-.05-1.63 0-2.16.31-3.38.62-4.01v13.4c0 .61.49 1.1 1.1 1.1.61 0 1.1-.49 1.1-1.1v-8.07h.41v8.07c0 .61.49 1.1 1.1 1.1.61 0 1.1-.49 1.1-1.1v-13.4c.05.11.11.23.16.38.25.7.46 1.84.46 3.63 0 .49-.02 1.03-.05 1.63-.02.39.28.73.67.76h.04c.38 0 .69-.29.71-.67.04-.62.05-1.19.05-1.71 0-2.7-.43-4.19-1.02-5.09-.29-.45-.64-.73-.95-.89-.31-.15-.57-.19-.74-.19h-3.51c-.16 0-.43.04-.73.19-.48.24-1 .76-1.36 1.68-.37.93-.61 2.27-.61 4.29 0 .52.02 1.09.05 1.71.05.39.36.68.74.68z"/><circle style="fill:#010101" cx="244.34" cy="94.59" r="2.01"/><path style="fill:#010101" d="M252.47 105.67h.04c.39-.02.69-.36.67-.76-.04-.59-.05-1.14-.05-1.63 0-2.16.31-3.38.62-4.01v13.4c0 .61.49 1.1 1.1 1.1.61 0 1.1-.49 1.1-1.1v-8.07h.41v8.07c0 .61.49 1.1 1.1 1.1.61 0 1.1-.49 1.1-1.1v-13.4c.05.11.11.23.16.38.25.7.46 1.84.46 3.63 0 .49-.02 1.03-.05 1.63-.02.39.28.73.67.76h.04c.38 0 .69-.29.71-.67.04-.62.05-1.19.05-1.71 0-2.7-.43-4.19-1.02-5.09-.29-.45-.64-.73-.95-.89-.31-.15-.57-.19-.74-.19h-3.51c-.16 0-.43.04-.73.19-.48.24-1 .76-1.36 1.68-.37.93-.61 2.27-.61 4.29 0 .52.02 1.09.05 1.71.05.39.36.68.74.68z"/><circle style="fill:#010101" cx="256.17" cy="94.6" r="2.01"/><path style="fill:#010101" d="M264.47 105.67h.04c.39-.02.69-.36.67-.76-.04-.59-.05-1.14-.05-1.63 0-2.16.31-3.38.62-4.01v13.4c0 .61.49 1.1 1.1 1.1.61 0 1.1-.49 1.1-1.1v-8.07h.41v8.07c0 .61.49 1.1 1.1 1.1.61 0 1.1-.49 1.1-1.1v-13.4c.05.11.11.23.16.38.25.7.46 1.84.46 3.63 0 .49-.02 1.03-.05 1.63-.02.39.28.73.67.76h.04c.38 0 .69-.29.71-.67.04-.62.05-1.19.05-1.71 0-2.7-.43-4.19-1.02-5.09-.29-.45-.64-.73-.95-.89-.31-.15-.57-.19-.74-.19h-3.51c-.16 0-.43.04-.73.19-.48.24-1 .76-1.36 1.68-.37.93-.61 2.27-.61 4.29 0 .52.02 1.09.05 1.71.05.39.36.68.74.68z"/><circle style="fill:#010101" cx="268.17" cy="94.6" r="2.01"/><path style="fill:#010101" d="M276.47 105.67h.04c.39-.02.69-.36.67-.76-.04-.59-.05-1.14-.05-1.63 0-2.16.31-3.38.62-4.01v13.4c0 .61.49 1.1 1.1 1.1.61 0 1.1-.49 1.1-1.1v-8.07h.41v8.07c0 .61.49 1.1 1.1 1.1.61 0 1.1-.49 1.1-1.1v-13.4c.05.11.11.23.16.38.25.7.46 1.84.46 3.63 0 .49-.02 1.03-.05 1.63-.02.39.28.73.67.76h.04c.38 0 .69-.29.71-.67.04-.62.05-1.19.05-1.71 0-2.7-.43-4.19-1.02-5.09-.29-.45-.64-.73-.95-.89-.31-.15-.57-.19-.74-.19h-3.51c-.16 0-.43.04-.73.19-.48.24-1 .76-1.36 1.68-.37.93-.61 2.27-.61 4.29 0 .52.02 1.09.05 1.71.05.39.36.68.74.68z"/><circle style="fill:#010101" cx="280.17" cy="94.6" r="2.01"/><path style="fill:#010101" d="M288.47 105.67h.04c.39-.02.69-.36.67-.76-.04-.59-.05-1.14-.05-1.63 0-2.16.31-3.38.62-4.01v13.4c0 .61.49 1.1 1.1 1.1.61 0 1.1-.49 1.1-1.1v-8.07h.41v8.07c0 .61.49 1.1 1.1 1.1.61 0 1.1-.49 1.1-1.1v-13.4c.05.11.11.23.16.38.25.7.46 1.84.46 3.63 0 .49-.02 1.03-.05 1.63-.02.39.28.73.67.76h.04c.38 0 .69-.29.71-.67.04-.62.05-1.19.05-1.71 0-2.7-.43-4.19-1.02-5.09-.29-.45-.64-.73-.95-.89-.31-.15-.57-.19-.74-.19h-3.51c-.16 0-.43.04-.73.19-.48.24-1 .76-1.36 1.68-.37.93-.61 2.27-.61 4.29 0 .52.02 1.09.05 1.71.05.39.36.68.74.68z"/><circle style="fill:#010101" cx="292.17" cy="94.6" r="2.01"/><polyline style="fill:#009147;stroke:#009147;stroke-width:.5;stroke-linejoin:round;stroke-miterlimit:10" points="192.14 52.03 192.14 45.83 192.14 44.99"/><line style="fill:#009147;stroke:#009147;stroke-width:.5;stroke-linejoin:round;stroke-miterlimit:10" x1="268.24" y1="52.29" x2="268.24" y2="45.03"/><line style="fill:#009147;stroke:#009147;stroke-width:.5;stroke-linejoin:round;stroke-miterlimit:10" x1="268.24" y1="45.24" x2="192.14" y2="45.24"/><g><polyline style="fill:none;stroke:#009147;stroke-width:.5;stroke-linecap:square;stroke-linejoin:round" points="230.19 45.24 230.19 27.96 95.11 27.96 95.11 51.75"/><polygon style="fill:#009147" points="93.06 50.1 93.43 49.75 95.11 51.56 96.79 49.75 97.15 50.1 95.11 52.29"/></g><g><polyline style="fill:none;stroke:#ed1f24;stroke-width:.5;stroke-linecap:square;stroke-linejoin:round" points="95.42 124.74 95.42 160.2 175.04 160.2 175.04 125.29"/><polygon style="fill:#ed1f24" points="177.09 126.94 176.72 127.28 175.04 125.48 173.36 127.28 173 126.94 175.04 124.74"/></g><g><polyline style="fill:none;stroke:#ed1f24;stroke-width:.5;stroke-linecap:square;stroke-linejoin:round" points="175.04 160.2 248.94 160.2 248.81 125.29"/><polygon style="fill:#ed1f24" points="250.86 126.93 250.5 127.28 248.81 125.48 247.14 127.29 246.77 126.95 248.81 124.74"/></g><g><line style="fill:none;stroke:#ed1f24;stroke-width:.5;stroke-linejoin:round" x1="123.82" y1="124.74" x2="123.82" y2="137.34"/><polygon style="fill:#ed1f24" points="121.78 135.68 122.14 135.34 123.82 137.15 125.5 135.34 125.87 135.68 123.82 137.88"/></g><g><line style="fill:none;stroke:#ed1f24;stroke-width:.5;stroke-linejoin:round" x1="65.15" y1="124.74" x2="65.15" y2="137.34"/><polygon style="fill:#ed1f24" points="63.1 135.68 63.47 135.34 65.15 137.15 66.83 135.34 67.19 135.68 65.15 137.88"/></g><rect x="36.94" y="139.88" style="fill:none" width="56.43" height="18"/><text transform="translate(43.167 145.145)"><tspan x="0" y="0" style="fill:#ed1f24;font-family:'Asap-Regular';font-size:7px">W</tspan><tspan x="6.03" y="0" style="fill:#ed1f24;font-family:'Asap-Regular';font-size:7px">orkers leave</tspan><tspan x="-.08" y="8.4" style="fill:#ed1f24;font-family:'Asap-Regular';font-size:7px">labour market</tspan></text><g><line style="fill:none;stroke:#009147;stroke-width:.5;stroke-linejoin:round" x1="205.31" y1="125.05" x2="205.31" y2="137.65"/><polygon style="fill:#009147" points="203.27 126.71 203.63 127.05 205.31 125.25 206.99 127.05 207.36 126.71 205.31 124.51"/></g><rect x="180.77" y="140.64" style="fill:none" width="49.07" height="9"/><text transform="translate(191.06 145.909)" style="fill:#009147;font-family:'Asap-Regular';font-size:7px">New jobs</text><g><line style="fill:none;stroke:#009147;stroke-width:.5;stroke-linejoin:round" x1="278.16" y1="124.79" x2="278.16" y2="137.39"/><polygon style="fill:#009147" points="276.12 126.45 276.48 126.79 278.16 124.99 279.84 126.79 280.21 126.45 278.16 124.25"/></g><rect x="253.62" y="139.88" style="fill:none" width="49.07" height="9"/><text transform="translate(257.982 145.145)" style="fill:#009147;font-family:'Asap-Regular';font-size:7px">New workers</text><rect x="-3.24" y="77.29" style="fill:none" width="56.43" height="18"/><text transform="translate(9.77 82.552)"><tspan x="0" y="0" style="font-family:'Asap-Regular';font-size:7px">Job to job</tspan><tspan x="5.22" y="8.4" style="font-family:'Asap-Regular';font-size:7px">moves</tspan></text><g><polyline style="fill:none;stroke:#000;stroke-width:.5;stroke-linecap:square;stroke-linejoin:round" points="48.11 64.29 24.98 64.29 24.98 73.56"/><polygon points="22.93 71.9 23.3 71.56 24.98 73.36 26.65 71.56 27.02 71.9 24.98 74.1"/></g><g><polyline style="fill:none;stroke:#000;stroke-width:.5;stroke-linecap:square;stroke-linejoin:round" points="47.56 105.85 24.98 105.85 24.98 95.26"/><polygon points="45.91 103.81 45.57 104.17 47.37 105.85 45.57 107.53 45.91 107.9 48.11 105.85"/></g></svg>