<svg version="1.1" xmlns="http://www.w3.org/2000/svg" x="0" y="0" viewBox="0 0 311.81 191.81" style="enable-background:new 0 0 311.81 191.81" xml:space="preserve"><g style="display:none"><polyline style="display:inline;fill:none;stroke:#939598;stroke-width:.5;stroke-miterlimit:10;stroke-dasharray:1.417" points="61 28.03 61.45 30.76 62.15 33.25 62.88 35.83 63.88 38.47 65.34 42.13 66.43 44.77 67.52 46.66 68.73 49.18 69.7 50.9 70.9 53.14 72.85 56.01 74.46 58.07 76.18 60.31 78.01 62.6 79.85 64.48 81.8 66.61 84.49 68.73 87.18 70.8 90.57 73.26 94.41 75.5 99.05 77.73 102.26 79.17 105.82 80.48 110.97 82.43 116.88 84.15 121.18 85.24 125.13 86.1 128.11 86.79 131.38 87.42 134.82 87.96 138.55 88.75 143.99 89.6 148.64 90.34 153.74 91.09 158.27 91.72 163.89 92.24 170.65 93.04 177.93 93.61 186.93 94.36 194.96 94.99 205.39 95.62 223.45 96.48 233.54 96.94 244.9 96.94"/><polyline style="display:inline;fill:none;stroke:#3a52a3;stroke-width:.5;stroke-linecap:square;stroke-linejoin:round" points="36.4 105.79 38.52 105.79 167.48 105.79 167.48 66.91 296.01 66.91"/><polyline style="display:inline;fill:none;stroke:#ec2024;stroke-width:.5;stroke-linecap:square;stroke-linejoin:round" points="38.96 86.35 41.06 86.35 245.4 86.35 296.01 86.35"/><text transform="rotate(-90 70.024 59.343)" style="display:inline"><tspan x="0" y="0" style="fill:#231f20;font-family:'Asap-Medium';font-size:8px">Price, </tspan><tspan x="21.3" y="0" style="fill:#231f20;font-family:'Asap-MediumItalic';font-size:8px">P</tspan><tspan x="25.86" y="0" style="fill:#231f20;font-family:'Asap-Medium';font-size:8px">, MC and AC (€</tspan><tspan x="77.06" y="0" style="fill:#231f20;font-family:'Asap-Regular';font-size:8px">)</tspan></text><line style="display:inline;fill:none;stroke:#6d6e70;stroke-width:.5;stroke-linecap:square;stroke-linejoin:round" x1="296.01" y1="164.54" x2="296.01" y2="166.67"/><line style="display:inline;fill:none;stroke:#6d6e70;stroke-width:.5;stroke-linecap:square;stroke-linejoin:round" x1="244.9" y1="164.54" x2="244.9" y2="166.67"/><line style="display:inline;fill:none;stroke:#6d6e70;stroke-width:.5;stroke-linecap:square;stroke-linejoin:round" x1="193.29" y1="164.54" x2="193.29" y2="166.67"/><line style="display:inline;fill:none;stroke:#6d6e70;stroke-width:.5;stroke-linecap:square;stroke-linejoin:round" x1="141.68" y1="164.54" x2="141.68" y2="166.67"/><line style="display:inline;fill:none;stroke:#6d6e70;stroke-width:.5;stroke-linecap:square;stroke-linejoin:round" x1="90.57" y1="164.54" x2="90.57" y2="166.67"/><line style="display:inline;fill:none;stroke:#6d6e70;stroke-width:.5;stroke-linecap:square;stroke-linejoin:round" x1="38.96" y1="164.54" x2="38.96" y2="166.67"/><line style="display:inline;fill:none;stroke:#6d6e70;stroke-width:.5;stroke-linecap:square;stroke-linejoin:round" x1="38.96" y1="164.11" x2="296.01" y2="164.11"/><text transform="translate(135.137 188.657)" style="display:inline"><tspan x="0" y="0" style="fill:#231f20;font-family:'Asap-Medium';font-size:8px">Quantity of loaves, </tspan><tspan x="67.84" y="0" style="fill:#231f20;font-family:'Asap-MediumItalic';font-size:8px">Q</tspan></text><text transform="translate(36.722 176.266)" style="display:inline;fill:#231f20;font-family:'Asap-Regular';font-size:7px">0</text><text transform="translate(86.304 176.266)" style="display:inline;fill:#231f20;font-family:'Asap-Regular';font-size:7px">50</text><text transform="translate(135.63 176.266)" style="display:inline;fill:#231f20;font-family:'Asap-Regular';font-size:7px">100</text><text transform="translate(187.703 176.266)" style="display:inline;fill:#231f20;font-family:'Asap-Regular';font-size:7px">150</text><text transform="translate(239.774 176.266)" style="display:inline;fill:#231f20;font-family:'Asap-Regular';font-size:7px">200</text><text transform="translate(290.846 176.266)" style="display:inline;fill:#231f20;font-family:'Asap-Regular';font-size:7px">250</text><text transform="translate(63.88 2.632)" style="display:inline;fill:#221f1f;font-family:'Asap-Regular';font-size:6px">Average costs (lower capacity)</text><text transform="translate(63.88 20.3)" style="display:inline;fill:#221f1f;font-family:'Asap-Regular';font-size:6px">Market price</text><line style="display:inline;fill:none;stroke:#6d6e70;stroke-width:.5;stroke-linecap:square;stroke-linejoin:round" x1="38.52" y1="28.03" x2="36.4" y2="28.03"/><line style="display:inline;fill:none;stroke:#6d6e70;stroke-width:.5;stroke-linecap:square;stroke-linejoin:round" x1="38.52" y1="66.91" x2="36.4" y2="66.91"/><line style="display:inline;fill:none;stroke:#6d6e70;stroke-width:.5;stroke-linecap:square;stroke-linejoin:round" x1="38.52" y1="164.11" x2="36.4" y2="164.11"/><line style="display:inline;fill:none;stroke:#6d6e70;stroke-width:.5;stroke-linecap:square;stroke-linejoin:round" x1="38.52" y1="144.67" x2="36.4" y2="144.67"/><line style="display:inline;fill:none;stroke:#6d6e70;stroke-width:.5;stroke-linecap:square;stroke-linejoin:round" x1="38.52" y1="125.23" x2="36.4" y2="125.23"/><text transform="translate(22.067 30.759)" style="display:inline;fill:#231f20;font-family:'Asap-Regular';font-size:7px">3.5</text><text transform="translate(27.197 50.089)" style="display:inline;fill:#231f20;font-family:'Asap-Regular';font-size:7px">3</text><text transform="translate(23.746 69.418)" style="display:inline;fill:#231f20;font-family:'Asap-Regular';font-size:7px">2.5</text><text transform="translate(27.198 88.748)" style="display:inline;fill:#231f20;font-family:'Asap-Regular';font-size:7px">2</text><text transform="translate(27.197 127.408)" style="display:inline;fill:#231f20;font-family:'Asap-Regular';font-size:7px">1</text><text transform="translate(27.197 166.068)" style="display:inline;fill:#231f20;font-family:'Asap-Regular';font-size:7px">0</text><line style="display:inline;fill:none;stroke:#6d6e70;stroke-width:.5;stroke-linecap:square;stroke-linejoin:round" x1="38.96" y1="164.11" x2="38.96" y2="28.03"/><text transform="translate(63.88 11.445)" style="display:inline;fill:#221f1f;font-family:'Asap-Regular';font-size:6px">MC (lower capacity)</text><line style="display:inline;fill:none;stroke:#6d6e70;stroke-width:.5;stroke-linecap:square;stroke-linejoin:round" x1="38.52" y1="47.47" x2="36.4" y2="47.47"/><text transform="translate(22.066 108.078)" style="display:inline;fill:#231f20;font-family:'Asap-Regular';font-size:7px">1.5</text><text transform="translate(22.066 146.737)" style="display:inline;fill:#231f20;font-family:'Asap-Regular';font-size:7px">0.5</text><line style="display:inline;fill:none;stroke:#939598;stroke-width:.5;stroke-linecap:square;stroke-linejoin:round" x1="41.82" y1=".79" x2="62.15" y2=".79"/><g style="display:inline"><text transform="translate(177.571 2.979)" style="fill:#221f1f;font-family:'Asap-Regular';font-size:6px">Average costs (higher capacity)</text><text transform="translate(177.571 11.745)" style="fill:#221f1f;font-family:'Asap-Regular';font-size:6px">MC (higher capacity)</text></g><line style="display:inline;fill:none;stroke:#3a52a3;stroke-width:.5;stroke-linecap:square;stroke-linejoin:round" x1="41.82" y1="9.61" x2="62.15" y2="9.61"/><line style="display:inline;fill:none;stroke:#ec2024;stroke-width:.5;stroke-linecap:square;stroke-linejoin:round" x1="41.82" y1="18.46" x2="62.15" y2="18.46"/><line style="display:inline;fill:none;stroke:#939598;stroke-width:.5;stroke-linecap:square;stroke-linejoin:round;stroke-dasharray:1.417" x1="154.7" y1=".79" x2="175.02" y2=".79"/><line style="display:inline;fill:none;stroke:#3a52a3;stroke-width:.5;stroke-linecap:square;stroke-linejoin:round;stroke-dasharray:1.417" x1="154.7" y1="9.61" x2="175.02" y2="9.61"/><line style="display:inline;fill:none;stroke:#6d6e70;stroke-width:.5;stroke-linecap:square;stroke-linejoin:round" x1="38.52" y1="86.35" x2="36.4" y2="86.35"/><line style="display:inline;fill:none;stroke:#6d6e70;stroke-width:.5;stroke-linecap:square;stroke-linejoin:round" x1="38.52" y1="105.79" x2="36.4" y2="105.79"/><polyline style="display:inline;fill:none;stroke:#3a52a3;stroke-width:.5;stroke-linecap:square;stroke-linejoin:round;stroke-dasharray:1.417" points="167.48 105.79 244.9 105.79 244.9 66.91"/><path style="display:inline;fill:none;stroke:#939598;stroke-width:.5;stroke-miterlimit:10" d="M54.22 28.03c4.59 19.12 14.75 46.65 36.1 55.1 0 0 14.11 6.53 46.06 9.96 10.37.8 20.73 1.59 31.1 2.39"/></g><polyline style="fill:none;stroke:#6d6e71;stroke-width:.5;stroke-miterlimit:10;stroke-dasharray:1.417" points="61 28.03 61.45 30.76 62.15 33.25 62.88 35.83 63.88 38.47 65.34 42.13 66.43 44.77 67.52 46.66 68.73 49.18 69.7 50.9 70.9 53.14 72.85 56.01 74.46 58.07 76.18 60.31 78.01 62.6 79.85 64.48 81.8 66.61 84.49 68.73 87.18 70.8 90.57 73.26 94.41 75.5 99.05 77.73 102.26 79.17 105.82 80.48 110.97 82.43 116.88 84.15 121.18 85.24 125.13 86.1 128.11 86.79 131.38 87.42 134.82 87.96 138.55 88.75 143.99 89.6 148.64 90.34 153.74 91.09 158.27 91.72 163.89 92.24 170.65 93.04 177.93 93.61 186.93 94.36 194.96 94.99 205.39 95.62 223.45 96.48 233.54 96.94 244.9 96.94"/><polyline style="fill:none;stroke:#3a52a3;stroke-width:.5;stroke-linecap:square;stroke-linejoin:round" points="36.4 105.79 38.52 105.79 167.48 105.79 167.48 66.91 296.01 66.91"/><polyline style="fill:none;stroke:#ec2024;stroke-width:.5;stroke-linecap:square;stroke-linejoin:round" points="38.96 86.35 41.06 86.35 245.4 86.35 296.01 86.35"/><text transform="rotate(-90 68.024 59.343)"><tspan x="0" y="0" style="fill:#231f20;font-family:'Asap-Medium';font-size:8px">Price, </tspan><tspan x="21.3" y="0" style="fill:#231f20;font-family:'Asap-MediumItalic';font-size:8px">P</tspan><tspan x="25.86" y="0" style="fill:#231f20;font-family:'Asap-Medium';font-size:8px">, MC and AC (€</tspan><tspan x="77.06" y="0" style="fill:#231f20;font-family:'Asap-Regular';font-size:8px">)</tspan></text><line style="fill:none;stroke:#6d6e70;stroke-width:.5;stroke-linecap:square;stroke-linejoin:round" x1="296.01" y1="164.54" x2="296.01" y2="166.67"/><line style="fill:none;stroke:#6d6e70;stroke-width:.5;stroke-linecap:square;stroke-linejoin:round" x1="244.9" y1="164.54" x2="244.9" y2="166.67"/><line style="fill:none;stroke:#6d6e70;stroke-width:.5;stroke-linecap:square;stroke-linejoin:round" x1="193.29" y1="164.54" x2="193.29" y2="166.67"/><line style="fill:none;stroke:#6d6e70;stroke-width:.5;stroke-linecap:square;stroke-linejoin:round" x1="141.68" y1="164.54" x2="141.68" y2="166.67"/><line style="fill:none;stroke:#6d6e70;stroke-width:.5;stroke-linecap:square;stroke-linejoin:round" x1="90.57" y1="164.54" x2="90.57" y2="166.67"/><line style="fill:none;stroke:#6d6e70;stroke-width:.5;stroke-linecap:square;stroke-linejoin:round" x1="38.96" y1="164.54" x2="38.96" y2="166.67"/><line style="fill:none;stroke:#6d6e70;stroke-width:.5;stroke-linecap:square;stroke-linejoin:round" x1="38.96" y1="164.11" x2="296.01" y2="164.11"/><text transform="translate(135.137 188.657)"><tspan x="0" y="0" style="fill:#231f20;font-family:'Asap-Medium';font-size:8px">Quantity of loaves, </tspan><tspan x="67.84" y="0" style="fill:#231f20;font-family:'Asap-MediumItalic';font-size:8px">Q</tspan></text><text transform="translate(36.722 176.266)" style="fill:#231f20;font-family:'Asap-Regular';font-size:7px">0</text><text transform="translate(86.304 176.266)" style="fill:#231f20;font-family:'Asap-Regular';font-size:7px">50</text><text transform="translate(135.63 176.266)" style="fill:#231f20;font-family:'Asap-Regular';font-size:7px">100</text><text transform="translate(187.703 176.266)" style="fill:#231f20;font-family:'Asap-Regular';font-size:7px">150</text><text transform="translate(239.774 176.266)" style="fill:#231f20;font-family:'Asap-Regular';font-size:7px">200</text><text transform="translate(290.846 176.266)" style="fill:#231f20;font-family:'Asap-Regular';font-size:7px">250</text><text transform="translate(48.103 9.154)" style="fill:#221f1f;font-family:'Asap-Regular';font-size:6px">Average costs (AC) (lower capacity)</text><text transform="translate(264.867 106.883)" style="fill:#221f1f;font-family:'Asap-Regular';font-size:6px">Market price</text><line style="fill:none;stroke:#6d6e70;stroke-width:.5;stroke-linecap:square;stroke-linejoin:round" x1="38.52" y1="28.03" x2="36.4" y2="28.03"/><line style="fill:none;stroke:#6d6e70;stroke-width:.5;stroke-linecap:square;stroke-linejoin:round" x1="38.52" y1="66.91" x2="36.4" y2="66.91"/><line style="fill:none;stroke:#6d6e70;stroke-width:.5;stroke-linecap:square;stroke-linejoin:round" x1="38.52" y1="164.11" x2="36.4" y2="164.11"/><line style="fill:none;stroke:#6d6e70;stroke-width:.5;stroke-linecap:square;stroke-linejoin:round" x1="38.52" y1="144.67" x2="36.4" y2="144.67"/><line style="fill:none;stroke:#6d6e70;stroke-width:.5;stroke-linecap:square;stroke-linejoin:round" x1="38.52" y1="125.23" x2="36.4" y2="125.23"/><text transform="translate(22.067 30.759)" style="fill:#231f20;font-family:'Asap-Regular';font-size:7px">3.5</text><text transform="translate(27.197 50.089)" style="fill:#231f20;font-family:'Asap-Regular';font-size:7px">3</text><text transform="translate(23.746 69.418)" style="fill:#231f20;font-family:'Asap-Regular';font-size:7px">2.5</text><text transform="translate(27.198 88.748)" style="fill:#231f20;font-family:'Asap-Regular';font-size:7px">2</text><text transform="translate(27.197 127.408)" style="fill:#231f20;font-family:'Asap-Regular';font-size:7px">1</text><text transform="translate(27.197 166.068)" style="fill:#231f20;font-family:'Asap-Regular';font-size:7px">0</text><line style="fill:none;stroke:#6d6e70;stroke-width:.5;stroke-linecap:square;stroke-linejoin:round" x1="38.96" y1="164.11" x2="38.96" y2="28.03"/><text transform="translate(240.132 38.74)"><tspan x="0" y="0" style="fill:#221f1f;font-family:'Asap-Regular';font-size:6px">Marginal costs (MC) </tspan><tspan x="0" y="7.2" style="fill:#221f1f;font-family:'Asap-Regular';font-size:6px">(lower capacity)</tspan></text><line style="fill:none;stroke:#6d6e70;stroke-width:.5;stroke-linecap:square;stroke-linejoin:round" x1="38.52" y1="47.47" x2="36.4" y2="47.47"/><text transform="translate(22.066 108.078)" style="fill:#231f20;font-family:'Asap-Regular';font-size:7px">1.5</text><text transform="translate(22.066 146.737)" style="fill:#231f20;font-family:'Asap-Regular';font-size:7px">0.5</text><text transform="translate(78.537 47.47)" style="fill:#221f1f;font-family:'Asap-Regular';font-size:6px">Average costs (AC) (higher capacity)</text><text transform="translate(182.493 128.727)"><tspan x="0" y="0" style="fill:#221f1f;font-family:'Asap-Regular';font-size:6px">Marginal costs (MC) </tspan><tspan x="0" y="7.2" style="fill:#221f1f;font-family:'Asap-Regular';font-size:6px">(higher capacity)</tspan></text><line style="fill:none;stroke:#6d6e70;stroke-width:.5;stroke-linecap:square;stroke-linejoin:round" x1="38.52" y1="86.35" x2="36.4" y2="86.35"/><line style="fill:none;stroke:#6d6e70;stroke-width:.5;stroke-linecap:square;stroke-linejoin:round" x1="38.52" y1="105.79" x2="36.4" y2="105.79"/><polyline style="fill:none;stroke:#3a52a3;stroke-width:.5;stroke-linecap:square;stroke-linejoin:round;stroke-dasharray:1.417" points="167.48 105.79 244.9 105.79 244.9 66.91"/><path style="fill:none;stroke:#939598;stroke-width:.5;stroke-miterlimit:10" d="M54.22 28.03c4.59 19.12 14.75 46.65 36.1 55.1 0 0 14.11 6.53 46.06 9.96 10.37.8 20.73 1.59 31.1 2.39"/><line style="fill:none;stroke:#939598;stroke-width:.5;stroke-linecap:square;stroke-linejoin:round" x1="54.22" y1="25.27" x2="54.22" y2="11.68"/><polygon style="fill:#939598" points="56.27 23.62 55.9 23.28 54.22 25.08 52.54 23.28 52.18 23.62 54.22 25.82"/><line style="fill:none;stroke:#939598;stroke-width:.5;stroke-linecap:square;stroke-linejoin:round" x1="206.19" y1="122.49" x2="206.19" y2="108.66"/><polygon style="fill:#939598" points="208.24 110.32 207.87 110.66 206.19 108.85 204.51 110.66 204.15 110.32 206.19 108.12"/><line style="fill:none;stroke:#939598;stroke-width:.5;stroke-linecap:square;stroke-linejoin:round" x1="268.4" y1="64.81" x2="268.4" y2="50.09"/><polygon style="fill:#939598" points="270.44 63.15 270.08 62.81 268.4 64.62 266.72 62.81 266.36 63.15 268.4 65.35"/><g><line style="fill:none;stroke:#939598;stroke-width:.5;stroke-linecap:square;stroke-linejoin:round" x1="283.52" y1="100.24" x2="283.52" y2="88.84"/><polygon style="fill:#939598" points="285.56 90.5 285.2 90.84 283.52 89.03 281.84 90.84 281.48 90.5 283.52 88.3"/></g><g><line style="fill:none;stroke:#939598;stroke-width:.5;stroke-linecap:square;stroke-linejoin:round" x1="83.36" y1="64.03" x2="83.36" y2="50.44"/><polygon style="fill:#939598" points="85.4 62.38 85.04 62.04 83.36 63.84 81.68 62.04 81.32 62.38 83.36 64.58"/></g></svg>