<svg xmlns="http://www.w3.org/2000/svg" class="prefix__svglite" viewBox="0 0 810 800"><rect width="100%" height="100%" style="stroke:none;fill:#fff;stroke-linecap:round;stroke-linejoin:round;stroke-miterlimit:10"/><defs><clipPath id="prefix__a"><rect x="0" y="0" width="810" height="800" style="fill:none;stroke:#000;stroke-linecap:round;stroke-linejoin:round;stroke-miterlimit:10"/></clipPath></defs><defs><clipPath id="prefix__b"><rect x="0" y="30.45" width="810" height="739.1" style="fill:none;stroke:#000;stroke-linecap:round;stroke-linejoin:round;stroke-miterlimit:10"/></clipPath></defs><g clip-path="url(#prefix__b)"><rect x="0" y="30.45" width="810" height="739.1" style="stroke-width:1.07;stroke:#fff;fill:#fff;stroke-linecap:round;stroke-linejoin:round;stroke-miterlimit:10"/></g><defs><clipPath id="prefix__c"><rect x="5.48" y="35.93" width="799.04" height="389.43" style="fill:none;stroke:#000;stroke-linecap:round;stroke-linejoin:round;stroke-miterlimit:10"/></clipPath></defs><g clip-path="url(#prefix__c)"><rect x="5.48" y="35.93" width="799.04" height="389.43" style="stroke-width:1.07;stroke:#fff;fill:#fff;stroke-linecap:round;stroke-linejoin:round;stroke-miterlimit:10"/></g><defs><clipPath id="prefix__d"><rect x="34.6" y="50.1" width="755.75" height="329.69" style="fill:none;stroke:#000;stroke-linecap:round;stroke-linejoin:round;stroke-miterlimit:10"/></clipPath></defs><g clip-path="url(#prefix__d)"><rect x="34.6" y="50.1" width="755.75" height="329.69" style="stroke-width:1.07;stroke:none;fill:#fff;stroke-linecap:round;stroke-linejoin:round;stroke-miterlimit:10"/><polygon points="534.66 175.75 536.28 175.77 537.89 175.81 539.5 175.88 541.12 175.98 542.73 176.11 544.33 176.26 545.94 176.44 547.54 176.66 549.13 176.89 550.72 177.16 552.31 177.46 553.89 177.78 555.47 178.13 557.04 178.51 558.6 178.91 560.15 179.35 561.7 179.81 563.24 180.29 564.77 180.81 566.29 181.35 567.8 181.91 569.3 182.51 570.79 183.12 572.27 183.77 573.74 184.44 575.2 185.14 576.64 185.86 578.07 186.61 579.49 187.38 580.89 188.18 582.28 189 583.66 189.84 585.02 190.71 586.36 191.61 587.69 192.52 589 193.46 590.3 194.42 591.58 195.41 592.84 196.42 594.08 197.45 595.31 198.5 596.51 199.57 597.7 200.66 598.87 201.77 600.02 202.91 601.15 204.06 602.26 205.24 603.34 206.43 604.41 207.64 605.46 208.87 606.48 210.12 607.48 211.38 608.46 212.67 609.42 213.97 610.35 215.28 611.26 216.62 612.15 217.96 613.01 219.33 613.85 220.71 614.67 222.1 615.46 223.51 616.22 224.93 616.96 226.36 617.68 227.81 618.37 229.27 619.03 230.74 619.67 232.22 620.29 233.71 620.87 235.22 621.43 236.73 621.97 238.26 622.47 239.79 622.95 241.33 623.41 242.88 623.83 244.44 624.23 246 624.6 247.57 624.94 249.15 625.26 250.73 625.55 252.32 625.81 253.91 626.04 255.51 626.24 257.11 626.42 258.71 626.57 260.32 626.69 261.93 626.78 263.54 626.84 265.16 626.88 266.77 626.88 268.38 626.86 270 626.81 271.61 626.74 273.22 626.63 274.83 626.5 276.44 626.33 278.05 626.14 279.65 625.92 281.25 625.68 282.85 625.4 284.44 625.1 286.02 624.77 287.6 624.42 289.18 624.03 290.74 623.62 292.3 623.18 293.86 622.71 295.4 622.22 296.94 621.7 298.47 621.15 299.99 620.58 301.49 619.98 302.99 619.35 304.48 618.7 305.96 618.02 307.42 617.32 308.88 616.59 310.32 615.84 311.74 615.06 313.16 614.26 314.56 613.43 315.94 612.58 317.31 611.7 318.67 610.8 320.01 609.88 321.34 608.93 322.64 607.97 323.93 606.98 325.21 605.96 326.47 604.93 327.7 603.87 328.93 602.79 330.13 601.7 331.31 600.58 332.47 599.44 333.62 598.28 334.74 597.1 335.84 595.9 336.93 594.69 337.99 593.45 339.03 592.2 340.05 590.93 341.04 589.64 342.02 588.34 342.97 587.02 343.89 585.68 344.8 584.33 345.68 582.96 346.54 581.58 347.37 580.18 348.18 578.77 348.96 577.35 349.72 575.91 350.46 574.46 351.17 573 351.85 571.52 352.51 570.04 353.14 568.54 353.75 567.04 354.33 565.52 354.88 563.99 355.41 562.46 355.91 560.92 356.38 559.36 356.83 557.81 357.24 556.24 357.64 554.67 358 553.09 358.34 551.5 358.64 549.91 358.92 548.32 359.18 546.72 359.4 545.12 359.6 543.52 359.77 541.91 359.91 540.3 360.02 538.69 360.11 537.07 360.16 535.46 360.19 533.84 360.19 532.23 360.16 530.62 360.11 529.01 360.02 527.4 359.91 525.79 359.77 524.18 359.6 522.58 359.4 520.98 359.17 519.39 358.92 517.8 358.64 516.21 358.33 514.64 357.99 513.06 357.63 511.5 357.24 509.94 356.82 508.39 356.37 506.84 355.9 505.31 355.4 503.78 354.87 502.27 354.32 500.76 353.74 499.27 353.13 497.78 352.5 496.31 351.84 494.85 351.15 493.4 350.45 491.96 349.71 490.53 348.95 489.12 348.17 487.73 347.36 486.35 346.52 484.98 345.66 483.63 344.78 482.29 343.88 480.97 342.95 479.66 342 478.38 341.02 477.11 340.03 475.86 339.01 474.62 337.97 473.41 336.91 472.21 335.83 471.03 334.72 469.87 333.6 468.73 332.45 467.61 331.29 466.52 330.11 465.44 328.91 464.38 327.68 463.35 326.45 462.34 325.19 461.35 323.91 460.38 322.62 459.43 321.31 458.51 319.99 457.61 318.65 456.74 317.29 455.89 315.92 455.06 314.53 454.26 313.13 453.48 311.72 452.73 310.29 452 308.85 451.3 307.4 450.62 305.93 449.97 304.46 534.66 267.97" style="stroke-width:1.07;fill:#ed1f24;stroke:#000;stroke-linecap:round;stroke-linejoin:round;stroke-miterlimit:10"/><polygon points="449.97 304.46 449.32 302.92 448.71 301.38 448.12 299.83 447.56 298.26 447.03 296.69 446.53 295.11 446.05 293.51 445.61 291.91 445.19 290.31 444.8 288.69 444.44 287.07 444.11 285.44 443.81 283.81 443.54 282.17 443.3 280.52 443.09 278.88 442.91 277.23 442.76 275.57 442.64 273.91 442.54 272.26 442.48 270.6 442.45 268.93 442.45 267.27 442.47 265.61 442.53 263.95 442.62 262.29 442.74 260.64 442.88 258.98 443.06 257.33 443.27 255.68 443.5 254.04 534.66 267.97" style="stroke-width:1.07;fill:#3a53a4;stroke:#000;stroke-linecap:round;stroke-linejoin:round;stroke-miterlimit:10"/><polygon points="443.5 254.04 443.77 252.39 444.07 250.75 444.39 249.12 444.75 247.49 445.13 245.87 445.55 244.25 445.99 242.65 446.46 241.05 446.96 239.46 447.49 237.88 448.05 236.31 448.64 234.75 449.25 233.2 449.89 231.66 450.56 230.14 451.26 228.62 451.99 227.12 452.74 225.63 453.52 224.16 454.32 222.7 455.15 221.26 456.01 219.83 456.89 218.41 457.8 217.02 458.73 215.64 459.69 214.27 460.68 212.93 461.68 211.6 534.66 267.97" style="stroke-width:1.07;fill:#f49323;stroke:#000;stroke-linecap:round;stroke-linejoin:round;stroke-miterlimit:10"/><polygon points="461.68 211.6 462.71 210.29 463.76 209.01 464.83 207.74 465.93 206.49 467.05 205.26 468.19 204.06 469.35 202.87 470.53 201.7 471.73 200.56 472.96 199.44 474.2 198.34 475.47 197.26 476.75 196.21 478.05 195.18 479.37 194.17 480.71 193.19 482.06 192.23 483.44 191.29 484.82 190.38 486.23 189.5 487.65 188.64 534.66 267.97" style="stroke-width:1.07;fill:#b9519e;stroke:#000;stroke-linecap:round;stroke-linejoin:round;stroke-miterlimit:10"/><polygon points="487.65 188.64 489.12 187.78 490.61 186.95 492.12 186.15 493.64 185.38 495.17 184.64 496.71 183.92 498.27 183.24 499.84 182.58 501.43 181.95 534.66 267.97" style="stroke-width:1.07;fill:#009147;stroke:#000;stroke-linecap:round;stroke-linejoin:round;stroke-miterlimit:10"/><polygon points="501.43 181.95 503.04 181.35 504.66 180.77 506.29 180.23 507.93 179.71 509.58 179.23 511.24 178.78 512.91 178.36 534.66 267.97" style="stroke-width:1.07;fill:#f5307b;stroke:#000;stroke-linecap:round;stroke-linejoin:round;stroke-miterlimit:10"/><polygon points="512.91 178.36 514.56 177.97 516.22 177.62 517.88 177.29 519.55 177 521.22 176.74 522.9 176.51 524.59 176.31 534.66 267.97" style="stroke-width:1.07;fill:#7f8182;stroke:#000;stroke-linecap:round;stroke-linejoin:round;stroke-miterlimit:10"/><polygon points="524.59 176.31 526.29 176.13 528 175.99 529.71 175.89 531.42 175.81 534.66 267.97" style="stroke-width:1.07;fill:#f49323;stroke:#000;stroke-linecap:round;stroke-linejoin:round;stroke-miterlimit:10"/><polygon points="531.42 175.81 533.04 175.77 534.66 175.75 534.66 267.97" style="stroke-width:1.07;fill:#009147;stroke:#000;stroke-linecap:round;stroke-linejoin:round;stroke-miterlimit:10"/><text x="615.55" y="331.19" style="font-size:14.23px;font-family:Asap" textLength="66.96" lengthAdjust="spacingAndGlyphs">Mortgages</text><text x="685.93" y="331.19" style="font-size:14.23px;font-family:Asap" textLength="8.87" lengthAdjust="spacingAndGlyphs">&amp;</text><text x="698.21" y="331.19" style="font-size:14.23px;font-family:Asap" textLength="35.86" lengthAdjust="spacingAndGlyphs">home</text><text x="615.55" y="348.2" style="font-size:14.23px;font-family:Asap" textLength="39.1" lengthAdjust="spacingAndGlyphs">equity</text><text x="658.07" y="348.2" style="font-size:14.23px;font-family:Asap" textLength="33.86" lengthAdjust="spacingAndGlyphs">loans</text><text x="695.34" y="348.2" style="font-size:14.23px;font-family:Asap" textLength="49.27" lengthAdjust="spacingAndGlyphs">secured</text><text x="615.55" y="365.21" style="font-size:14.23px;font-family:Asap" textLength="14.93" lengthAdjust="spacingAndGlyphs">by</text><text x="633.9" y="365.21" style="font-size:14.23px;font-family:Asap" textLength="48.97" lengthAdjust="spacingAndGlyphs">primary</text><text x="686.29" y="365.21" style="font-size:14.23px;font-family:Asap" textLength="60.7" lengthAdjust="spacingAndGlyphs">residence</text><text x="296.4" y="290.27" style="font-size:14.23px;font-family:Asap" textLength="30.51" lengthAdjust="spacingAndGlyphs">Debt</text><text x="330.32" y="290.27" style="font-size:14.23px;font-family:Asap" textLength="49.27" lengthAdjust="spacingAndGlyphs">secured</text><text x="383" y="290.27" style="font-size:14.23px;font-family:Asap" textLength="14.93" lengthAdjust="spacingAndGlyphs">by</text><text x="401.34" y="290.27" style="font-size:14.23px;font-family:Asap" textLength="33.86" lengthAdjust="spacingAndGlyphs">other</text><text x="314.3" y="307.28" style="font-size:14.23px;font-family:Asap" textLength="66.74" lengthAdjust="spacingAndGlyphs">residential</text><text x="384.45" y="307.28" style="font-size:14.23px;font-family:Asap" textLength="54.17" lengthAdjust="spacingAndGlyphs">property</text><text x="345.38" y="226.83" style="font-size:14.23px;font-family:Asap" textLength="63" lengthAdjust="spacingAndGlyphs">Education</text><text x="411.79" y="226.83" style="font-size:14.23px;font-family:Asap" textLength="33.86" lengthAdjust="spacingAndGlyphs">loans</text><text x="386.21" y="192.41" style="font-size:14.23px;font-family:Asap" textLength="47.04" lengthAdjust="spacingAndGlyphs">Vehicle</text><text x="436.66" y="192.41" style="font-size:14.23px;font-family:Asap" textLength="33.86" lengthAdjust="spacingAndGlyphs">loans</text><text x="244.86" y="168.62" style="font-size:14.23px;font-family:Asap" textLength="38.34" lengthAdjust="spacingAndGlyphs">Credit</text><text x="286.62" y="168.62" style="font-size:14.23px;font-family:Asap" textLength="27.89" lengthAdjust="spacingAndGlyphs">card</text><text x="317.92" y="168.62" style="font-size:14.23px;font-family:Asap" textLength="56.17" lengthAdjust="spacingAndGlyphs">balances</text><text x="377.5" y="168.62" style="font-size:14.23px;font-family:Asap" textLength="30.1" lengthAdjust="spacingAndGlyphs">after</text><text x="411.02" y="168.62" style="font-size:14.23px;font-family:Asap" textLength="22.71" lengthAdjust="spacingAndGlyphs">last</text><text x="437.14" y="168.62" style="font-size:14.23px;font-family:Asap" textLength="55.25" lengthAdjust="spacingAndGlyphs">payment</text><text x="148.6" y="144.88" style="font-size:14.23px;font-family:Asap" textLength="38.25" lengthAdjust="spacingAndGlyphs">Home</text><text x="190.26" y="144.88" style="font-size:14.23px;font-family:Asap" textLength="39.1" lengthAdjust="spacingAndGlyphs">equity</text><text x="232.77" y="144.88" style="font-size:14.23px;font-family:Asap" textLength="29.46" lengthAdjust="spacingAndGlyphs">lines</text><text x="265.64" y="144.88" style="font-size:14.23px;font-family:Asap" textLength="12.72" lengthAdjust="spacingAndGlyphs">of</text><text x="281.77" y="144.88" style="font-size:14.23px;font-family:Asap" textLength="36.43" lengthAdjust="spacingAndGlyphs">credit</text><text x="321.61" y="144.88" style="font-size:14.23px;font-family:Asap" textLength="49.27" lengthAdjust="spacingAndGlyphs">secured</text><text x="374.3" y="144.88" style="font-size:14.23px;font-family:Asap" textLength="14.93" lengthAdjust="spacingAndGlyphs">by</text><text x="392.64" y="144.88" style="font-size:14.23px;font-family:Asap" textLength="48.97" lengthAdjust="spacingAndGlyphs">primary</text><text x="445.03" y="144.88" style="font-size:14.23px;font-family:Asap" textLength="60.7" lengthAdjust="spacingAndGlyphs">residence</text><text x="369.94" y="123.47" style="font-size:14.23px;font-family:Asap" textLength="36.17" lengthAdjust="spacingAndGlyphs">Other</text><text x="409.51" y="123.47" style="font-size:14.23px;font-family:Asap" textLength="71.13" lengthAdjust="spacingAndGlyphs">installment</text><text x="484.06" y="123.47" style="font-size:14.23px;font-family:Asap" textLength="33.86" lengthAdjust="spacingAndGlyphs">loans</text><text x="459.43" y="103.82" style="font-size:14.23px;font-family:Asap" textLength="36.17" lengthAdjust="spacingAndGlyphs">Other</text><text x="499.01" y="103.82" style="font-size:14.23px;font-family:Asap" textLength="28.66" lengthAdjust="spacingAndGlyphs">debt</text><text x="407.95" y="75.92" style="font-size:14.23px;font-family:Asap" textLength="36.17" lengthAdjust="spacingAndGlyphs">Other</text><text x="447.53" y="75.92" style="font-size:14.23px;font-family:Asap" textLength="29.46" lengthAdjust="spacingAndGlyphs">lines</text><text x="480.4" y="75.92" style="font-size:14.23px;font-family:Asap" textLength="12.72" lengthAdjust="spacingAndGlyphs">of</text><text x="496.53" y="75.92" style="font-size:14.23px;font-family:Asap" textLength="36.43" lengthAdjust="spacingAndGlyphs">credit</text><line x1="492.39" y1="171.64" x2="492.39" y2="180.86" style="stroke-width:1.2;stroke:#4d4d4d;stroke-linecap:butt;fill:none;stroke-linejoin:round;stroke-miterlimit:10"/><line x1="505.73" y1="147.9" x2="505.73" y2="175.57" style="stroke-width:1.2;stroke:#4d4d4d;stroke-linecap:butt;fill:none;stroke-linejoin:round;stroke-miterlimit:10"/><line x1="517.92" y1="126.49" x2="517.92" y2="172.6" style="stroke-width:1.2;stroke:#4d4d4d;stroke-linecap:butt;fill:none;stroke-linejoin:round;stroke-miterlimit:10"/><line x1="527.66" y1="106.84" x2="527.66" y2="171.4" style="stroke-width:1.2;stroke:#4d4d4d;stroke-linecap:butt;fill:none;stroke-linejoin:round;stroke-miterlimit:10"/><line x1="532.96" y1="78.94" x2="532.96" y2="171.16" style="stroke-width:1.2;stroke:#4d4d4d;stroke-linecap:butt;fill:none;stroke-linejoin:round;stroke-miterlimit:10"/></g><g clip-path="url(#prefix__a)"><text x="371.1" y="407.37" style="font-size:18px;font-weight:600;font-family:Asap" textLength="45.28" lengthAdjust="spacingAndGlyphs">Share</text><text x="420.7" y="407.37" style="font-size:18px;font-weight:600;font-family:Asap" textLength="16.1" lengthAdjust="spacingAndGlyphs">of</text><text x="441.12" y="407.37" style="font-size:18px;font-weight:600;font-family:Asap" textLength="37.72" lengthAdjust="spacingAndGlyphs">total</text><text x="483.16" y="407.37" style="font-size:18px;font-weight:600;font-family:Asap" textLength="36.28" lengthAdjust="spacingAndGlyphs">debt</text><text x="523.77" y="407.37" style="font-size:18px;font-weight:600;font-family:Asap" textLength="14.8" lengthAdjust="spacingAndGlyphs">in</text><text x="542.89" y="407.37" style="font-size:18px;font-weight:600;font-family:Asap" textLength="26.04" lengthAdjust="spacingAndGlyphs">the</text><text x="573.24" y="407.37" style="font-size:18px;font-weight:600;font-family:Asap" textLength="72.89" lengthAdjust="spacingAndGlyphs">economy</text></g><defs><clipPath id="prefix__e"><rect x="5.48" y="425.36" width="799.04" height="338.71" style="fill:none;stroke:#000;stroke-linecap:round;stroke-linejoin:round;stroke-miterlimit:10"/></clipPath></defs><g clip-path="url(#prefix__e)"><rect x="5.48" y="425.36" width="799.04" height="338.71" style="stroke-width:1.07;stroke:#fff;fill:#fff;stroke-linecap:round;stroke-linejoin:round;stroke-miterlimit:10"/></g><defs><clipPath id="prefix__f"><rect x="34.6" y="439.53" width="755.75" height="278.97" style="fill:none;stroke:#000;stroke-linecap:round;stroke-linejoin:round;stroke-miterlimit:10"/></clipPath></defs><g clip-path="url(#prefix__f)"><rect x="34.6" y="439.53" width="755.75" height="278.97" style="stroke-width:1.07;stroke:none;fill:#fff;stroke-linecap:round;stroke-linejoin:round;stroke-miterlimit:10"/><polygon points="626.65 615.6 626.52 617.21 626.36 618.81 626.18 620.41 625.96 622.01 625.72 623.61 625.45 625.2 625.15 626.78 624.83 628.36 624.48 629.94 624.1 631.5 623.69 633.06 623.25 634.62 622.79 636.16 622.3 637.7 621.79 639.23 621.25 640.75 620.68 642.26 620.08 643.76 619.46 645.24 618.81 646.72 618.14 648.19 617.44 649.64 616.72 651.08 615.97 652.51 615.2 653.93 614.4 655.33 613.58 656.72 612.73 658.09 611.86 659.45 610.96 660.79 610.05 662.12 609.1 663.43 608.14 664.72 607.16 666 606.15 667.26 605.12 668.5 604.07 669.72 602.99 670.92 601.9 672.11 600.79 673.28 599.65 674.42 598.5 675.55 597.32 676.66 596.13 677.74 594.92 678.81 593.69 679.85 592.44 680.87 591.17 681.87 589.89 682.85 588.59 683.8 587.27 684.73 585.94 685.64 584.59 686.53 583.23 687.39 581.85 688.23 580.46 689.04 579.05 689.83 577.63 690.59 576.19 691.33 574.75 692.04 573.29 692.73 571.82 693.4 570.34 694.03 568.84 694.64 567.34 695.23 565.83 695.79 564.3 696.32 562.77 696.82 561.23 697.3 559.68 697.75 534.66 608.99" style="stroke-width:1.07;fill:#3a53a4;stroke:#000;stroke-linecap:round;stroke-linejoin:round;stroke-miterlimit:10"/><polygon points="519.37 518.05 521.06 517.78 522.75 517.54 524.44 517.34 526.14 517.16 527.84 517.02 529.55 516.91 531.25 516.83 532.96 516.78 534.66 516.77 534.66 608.99" style="stroke-width:1.07;fill:#f49323;stroke:#000;stroke-linecap:round;stroke-linejoin:round;stroke-miterlimit:10"/><polygon points="473.1 677.65 471.89 676.55 470.71 675.43 469.54 674.29 468.4 673.13 467.27 671.94 466.17 670.74 465.09 669.52 464.03 668.28 462.99 667.02 461.98 665.75 460.99 664.45 460.02 663.14 459.07 661.81 458.15 660.47 457.25 659.11 456.38 657.73 455.53 656.34 454.7 654.93 453.9 653.51 453.13 652.08 452.38 650.63 451.65 649.17 450.96 647.69 450.29 646.21 449.64 644.71 449.02 643.2 448.43 641.68 447.87 640.15 447.33 638.61 446.82 637.06 446.34 635.5 445.88 633.94 534.66 608.99" style="stroke-width:1.07;fill:#b9519e;stroke:#000;stroke-linecap:round;stroke-linejoin:round;stroke-miterlimit:10"/><polygon points="559.68 697.75 558.11 698.18 556.54 698.58 554.95 698.95 553.36 699.3 551.77 699.61 550.16 699.9 548.56 700.16 546.95 700.39 545.33 700.59 543.71 700.77 542.09 700.91 540.47 701.03 538.85 701.12 537.22 701.18 535.59 701.21 533.97 701.21 532.34 701.18 530.71 701.13 529.09 701.04 527.46 700.93 525.84 700.79 524.23 700.62 522.61 700.42 521 700.19 519.39 699.94 517.79 699.65 516.19 699.34 514.6 699 513.02 698.63 511.44 698.24 509.87 697.81 508.3 697.36 506.75 696.88 505.2 696.38 503.66 695.84 502.14 695.28 500.62 694.7 499.11 694.08 497.62 693.44 496.13 692.78 494.66 692.08 493.2 691.36 491.75 690.62 490.32 689.85 488.9 689.05 487.5 688.23 486.1 687.39 484.73 686.52 483.37 685.63 482.02 684.71 480.7 683.77 479.39 682.81 478.09 681.82 476.82 680.81 475.56 679.78 474.32 678.72 473.1 677.65 534.66 608.99" style="stroke-width:1.07;fill:#f49323;stroke:#000;stroke-linecap:round;stroke-linejoin:round;stroke-miterlimit:10"/><polygon points="502.86 522.43 504.47 521.85 506.09 521.31 507.72 520.79 509.36 520.31 511.01 519.85 512.67 519.43 514.34 519.04 516.01 518.68 517.69 518.35 519.37 518.05 534.66 608.99" style="stroke-width:1.07;fill:#009147;stroke:#000;stroke-linecap:round;stroke-linejoin:round;stroke-miterlimit:10"/><polygon points="456.32 560.35 457.21 558.94 458.13 557.54 459.08 556.16 460.05 554.8 461.04 553.46 462.06 552.13 463.1 550.82 464.17 549.53 465.26 548.27 466.37 547.02 467.5 545.79 468.66 544.58 469.84 543.4 471.04 542.23 472.26 541.09 473.5 539.97 474.76 538.87 476.04 537.8 477.34 536.75 478.66 535.72 534.66 608.99" style="stroke-width:1.07;fill:#f5307b;stroke:#000;stroke-linecap:round;stroke-linejoin:round;stroke-miterlimit:10"/><polygon points="534.66 516.77 536.28 516.78 537.89 516.83 539.5 516.9 541.11 516.99 542.71 517.12 544.32 517.28 545.92 517.46 547.51 517.67 549.11 517.91 550.7 518.17 552.28 518.47 553.86 518.79 555.43 519.14 557 519.51 558.56 519.92 560.11 520.35 561.66 520.81 563.19 521.29 564.72 521.8 566.24 522.34 567.75 522.91 569.25 523.5 570.74 524.12 572.22 524.76 573.68 525.43 575.14 526.12 576.58 526.84 578.01 527.59 579.42 528.36 580.82 529.15 582.21 529.97 583.58 530.81 584.94 531.68 586.29 532.57 587.61 533.48 588.93 534.42 590.22 535.38 591.5 536.36 592.76 537.37 594 538.39 595.22 539.44 596.43 540.51 597.62 541.6 598.79 542.71 599.93 543.84 601.06 544.99 602.17 546.16 603.26 547.35 604.32 548.56 605.37 549.78 606.39 551.03 607.4 552.29 608.38 553.57 609.33 554.87 610.27 556.18 611.18 557.51 612.07 558.85 612.93 560.21 613.77 561.59 614.59 562.98 615.38 564.38 616.15 565.8 616.89 567.23 617.6 568.67 618.3 570.13 618.96 571.59 619.6 573.07 620.22 574.56 620.81 576.06 621.37 577.57 621.9 579.09 622.41 580.62 622.9 582.16 623.35 583.7 623.78 585.26 624.18 586.82 624.55 588.38 624.9 589.96 625.22 591.54 625.51 593.12 625.77 594.71 626.01 596.31 626.22 597.9 626.4 599.51 626.55 601.11 626.67 602.72 626.77 604.33 626.84 605.94 626.87 607.55 626.89 609.16 626.87 610.77 626.82 612.38 626.75 613.99 626.65 615.6 534.66 608.99" style="stroke-width:1.07;fill:#ed1f24;stroke:#000;stroke-linecap:round;stroke-linejoin:round;stroke-miterlimit:10"/><polygon points="443.71 593.78 443.99 592.17 444.3 590.56 444.64 588.97 445.01 587.37 445.41 585.79 445.84 584.21 446.29 582.64 446.77 581.08 447.28 579.52 447.81 577.98 448.38 576.45 448.97 574.92 449.58 573.41 450.23 571.91 450.9 570.42 451.6 568.94 452.32 567.47 453.07 566.02 453.84 564.58 454.64 563.16 455.47 561.74 456.32 560.35 534.66 608.99" style="stroke-width:1.07;fill:#7f8182;stroke:#000;stroke-linecap:round;stroke-linejoin:round;stroke-miterlimit:10"/><polygon points="445.88 633.94 445.46 632.37 445.06 630.8 444.69 629.22 444.35 627.63 444.03 626.04 443.75 624.45 443.49 622.85 443.26 621.24 443.06 619.63 442.89 618.02 442.74 616.4 442.63 614.79 442.54 613.17 442.48 611.55 442.45 609.93 442.45 608.3 442.47 606.68 442.53 605.06 442.61 603.44 442.72 601.82 442.86 600.21 443.03 598.6 443.23 596.99 443.45 595.38 443.71 593.78 534.66 608.99" style="stroke-width:1.07;fill:#009147;stroke:#000;stroke-linecap:round;stroke-linejoin:round;stroke-miterlimit:10"/><polygon points="478.66 535.72 479.97 534.74 481.29 533.79 482.63 532.85 483.98 531.95 485.35 531.06 486.73 530.2 488.13 529.37 489.55 528.56 490.98 527.77 492.42 527.01 493.88 526.28 495.34 525.57 496.82 524.89 498.32 524.23 499.82 523.61 501.33 523 502.86 522.43 534.66 608.99" style="stroke-width:1.07;fill:#b9519e;stroke:#000;stroke-linecap:round;stroke-linejoin:round;stroke-miterlimit:10"/><text x="605.55" y="540" style="font-size:14.23px;font-family:Asap" textLength="48.93" lengthAdjust="spacingAndGlyphs">Primary</text><text x="657.89" y="540" style="font-size:14.23px;font-family:Asap" textLength="60.7" lengthAdjust="spacingAndGlyphs">residence</text><text x="609.72" y="680.16" style="font-size:14.23px;font-family:Asap" textLength="53.33" lengthAdjust="spacingAndGlyphs">Business</text><text x="666.46" y="680.16" style="font-size:14.23px;font-family:Asap" textLength="39.1" lengthAdjust="spacingAndGlyphs">equity</text><text x="268.46" y="713.3" style="font-size:14.23px;font-family:Asap" textLength="22.94" lengthAdjust="spacingAndGlyphs">Life</text><text x="294.81" y="713.3" style="font-size:14.23px;font-family:Asap" textLength="60.92" lengthAdjust="spacingAndGlyphs">insurance</text><text x="359.15" y="713.3" style="font-size:14.23px;font-family:Asap" textLength="23.7" lengthAdjust="spacingAndGlyphs">and</text><text x="386.26" y="713.3" style="font-size:14.23px;font-family:Asap" textLength="66.88" lengthAdjust="spacingAndGlyphs">retirement</text><text x="456.55" y="713.3" style="font-size:14.23px;font-family:Asap" textLength="56.21" lengthAdjust="spacingAndGlyphs">accounts</text><text x="213.36" y="670.15" style="font-size:14.23px;font-family:Asap" textLength="49.35" lengthAdjust="spacingAndGlyphs">Directly</text><text x="266.13" y="670.15" style="font-size:14.23px;font-family:Asap" textLength="27.96" lengthAdjust="spacingAndGlyphs">held</text><text x="297.5" y="670.15" style="font-size:14.23px;font-family:Asap" textLength="44.27" lengthAdjust="spacingAndGlyphs">pooled</text><text x="345.18" y="670.15" style="font-size:14.23px;font-family:Asap" textLength="69.49" lengthAdjust="spacingAndGlyphs">investment</text><text x="418.09" y="670.15" style="font-size:14.23px;font-family:Asap" textLength="34.37" lengthAdjust="spacingAndGlyphs">funds</text><text x="329.18" y="624.21" style="font-size:14.23px;font-family:Asap" textLength="40.25" lengthAdjust="spacingAndGlyphs">Stocks</text><text x="372.84" y="624.21" style="font-size:14.23px;font-family:Asap" textLength="23.7" lengthAdjust="spacingAndGlyphs">and</text><text x="399.96" y="624.21" style="font-size:14.23px;font-family:Asap" textLength="38.02" lengthAdjust="spacingAndGlyphs">bonds</text><text x="135.26" y="571.8" style="font-size:14.23px;font-family:Asap" textLength="70.21" lengthAdjust="spacingAndGlyphs">Residential</text><text x="208.88" y="571.8" style="font-size:14.23px;font-family:Asap" textLength="54.17" lengthAdjust="spacingAndGlyphs">property</text><text x="266.47" y="571.8" style="font-size:14.23px;font-family:Asap" textLength="61.09" lengthAdjust="spacingAndGlyphs">excluding</text><text x="330.97" y="571.8" style="font-size:14.23px;font-family:Asap" textLength="48.97" lengthAdjust="spacingAndGlyphs">primary</text><text x="383.36" y="571.8" style="font-size:14.23px;font-family:Asap" textLength="60.7" lengthAdjust="spacingAndGlyphs">residence</text><text x="385.48" y="540.9" style="font-size:14.23px;font-family:Asap" textLength="36.17" lengthAdjust="spacingAndGlyphs">Other</text><text x="425.05" y="540.9" style="font-size:14.23px;font-family:Asap" textLength="37.9" lengthAdjust="spacingAndGlyphs">assets</text><text x="311.45" y="511.88" style="font-size:14.23px;font-family:Asap" textLength="73.84" lengthAdjust="spacingAndGlyphs">Transaction</text><text x="388.7" y="511.88" style="font-size:14.23px;font-family:Asap" textLength="39.72" lengthAdjust="spacingAndGlyphs">(bank)</text><text x="431.83" y="511.88" style="font-size:14.23px;font-family:Asap" textLength="56.21" lengthAdjust="spacingAndGlyphs">accounts</text><text x="260.48" y="484.71" style="font-size:14.23px;font-family:Asap" textLength="22.75" lengthAdjust="spacingAndGlyphs">Net</text><text x="286.65" y="484.71" style="font-size:14.23px;font-family:Asap" textLength="39.1" lengthAdjust="spacingAndGlyphs">equity</text><text x="329.16" y="484.71" style="font-size:14.23px;font-family:Asap" textLength="11.69" lengthAdjust="spacingAndGlyphs">in</text><text x="344.26" y="484.71" style="font-size:14.23px;font-family:Asap" textLength="95.22" lengthAdjust="spacingAndGlyphs">non-residential</text><text x="442.89" y="484.71" style="font-size:14.23px;font-family:Asap" textLength="24.85" lengthAdjust="spacingAndGlyphs">real</text><text x="471.15" y="484.71" style="font-size:14.23px;font-family:Asap" textLength="38.68" lengthAdjust="spacingAndGlyphs">estate</text><text x="473.7" y="463.37" style="font-size:14.23px;font-family:Asap" textLength="52.91" lengthAdjust="spacingAndGlyphs">Vehicles</text><line x1="488.04" y1="514.9" x2="488.04" y2="524.12" style="stroke-width:1.2;stroke:#4d4d4d;stroke-linecap:butt;fill:none;stroke-linejoin:round;stroke-miterlimit:10"/><line x1="509.83" y1="487.73" x2="509.83" y2="515.4" style="stroke-width:1.2;stroke:#4d4d4d;stroke-linecap:butt;fill:none;stroke-linejoin:round;stroke-miterlimit:10"/><line x1="526.61" y1="466.38" x2="526.61" y2="512.49" style="stroke-width:1.2;stroke:#4d4d4d;stroke-linecap:butt;fill:none;stroke-linejoin:round;stroke-miterlimit:10"/></g><g clip-path="url(#prefix__a)"><text x="362.91" y="746.08" style="font-size:18px;font-weight:600;font-family:Asap" textLength="45.28" lengthAdjust="spacingAndGlyphs">Share</text><text x="412.51" y="746.08" style="font-size:18px;font-weight:600;font-family:Asap" textLength="16.1" lengthAdjust="spacingAndGlyphs">of</text><text x="432.93" y="746.08" style="font-size:18px;font-weight:600;font-family:Asap" textLength="37.72" lengthAdjust="spacingAndGlyphs">total</text><text x="474.97" y="746.08" style="font-size:18px;font-weight:600;font-family:Asap" textLength="47.99" lengthAdjust="spacingAndGlyphs">assets</text><text x="527.28" y="746.08" style="font-size:18px;font-weight:600;font-family:Asap" textLength="14.8" lengthAdjust="spacingAndGlyphs">in</text><text x="546.4" y="746.08" style="font-size:18px;font-weight:600;font-family:Asap" textLength="26.04" lengthAdjust="spacingAndGlyphs">the</text><text x="576.76" y="746.08" style="font-size:18px;font-weight:600;font-family:Asap" textLength="72.89" lengthAdjust="spacingAndGlyphs">economy</text></g></svg>