<svg version="1.1" xmlns="http://www.w3.org/2000/svg" x="0" y="0" viewBox="0 0 311.81 191.68" style="enable-background:new 0 0 311.81 191.68" xml:space="preserve"><path style="fill:none;stroke:#4971b7;stroke-width:.5;stroke-linecap:square;stroke-linejoin:round;stroke-miterlimit:8" d="M65.78 29.59a105.83 105.83 0 0018.44 18.44c7.71 6 14.32 9.42 22 13.33 6.92 3.53 14.44 6.91 29.18 12.42 20.33 7.59 36.21 12.43 39.26 13.36 4.29 1.3 18.7 5.62 52.44 13.78 13.87 3.35 32.37 7.69 54.44 12.44"/><path style="fill:none;stroke:#eb7d2f;stroke-width:.5;stroke-linecap:square;stroke-linejoin:round;stroke-miterlimit:8" d="M68.67 6.48c3.7 5.43 9.57 12.98 18.22 20.44 5.83 5.03 10.72 8.13 18.67 13.11 13.65 8.56 24.7 13.95 27.11 15.11 7.51 3.63 16.18 7.38 41.33 16 16.72 5.73 30.9 10.59 51.11 16.44 15.88 4.6 34.84 9.63 56.44 14.44"/><line style="fill:#bcbec0" x1="76" y1="38.8" x2="76.01" y2="23.8"/><line style="fill:none;stroke:#bcbec0;stroke-width:.5;stroke-miterlimit:8" x1="76" y1="38.8" x2="76.01" y2="24.34"/><polygon style="fill:#bcbec0" points="78.05 26 77.69 26.34 76.01 24.53 74.33 26.34 73.96 25.99 76.01 23.8"/><text transform="rotate(23.44 -59.811 218.806)" style="font-family:'Asap-Regular';font-size:6px">Productivity rises</text><text transform="translate(82.443 95.334)"><tspan x="0" y="0" style="font-family:'Asap-Regular';font-size:6px">Sub</tspan><tspan x="9.88" y="0" style="font-family:'Asap-Regular';font-size:6px">s</tspan><tspan x="12.41" y="0" style="font-family:'Asap-Regular';font-size:6px">i</tspan><tspan x="14.22" y="0" style="font-family:'Asap-Regular';font-size:6px">s</tspan><tspan x="16.75" y="0" style="font-family:'Asap-Regular';font-size:6px">t</tspan><tspan x="18.79" y="0" style="font-family:'Asap-Regular';font-size:6px">e</tspan><tspan x="22.24" y="0" style="font-family:'Asap-Regular';font-size:6px">n</tspan><tspan x="25.62" y="0" style="font-family:'Asap-Regular';font-size:6px">c</tspan><tspan x="28.4" y="0" style="font-family:'Asap-Regular';font-size:6px">e</tspan><tspan x="31.45" y="0" style="font-family:'Asap-Regular';font-size:6px"> </tspan><tspan x="32.74" y="0" style="font-family:'Asap-Regular';font-size:6px">i</tspan><tspan x="34.55" y="0" style="font-family:'Asap-Regular';font-size:6px">n</tspan><tspan x="37.93" y="0" style="font-family:'Asap-Regular';font-size:6px">c</tspan><tspan x="40.71" y="0" style="font-family:'Asap-Regular';font-size:6px">o</tspan><tspan x="44.15" y="0" style="font-family:'Asap-Regular';font-size:6px">m</tspan><tspan x="48.85" y="0" style="font-family:'Asap-Regular';font-size:6px">e</tspan></text><line style="fill:none;stroke:#6d6e71;stroke-width:.5;stroke-linecap:square;stroke-miterlimit:10" x1="49.95" y1="6.81" x2="49.95" y2="166.85"/><line style="fill:none;stroke:#6d6e71;stroke-width:.5;stroke-miterlimit:10" x1="49.95" y1="166.85" x2="281.48" y2="166.77"/><line style="fill:none;stroke:#6d6e71;stroke-width:.5;stroke-miterlimit:10" x1="47.78" y1="166.85" x2="49.95" y2="166.85"/><line style="fill:none;stroke:#6d6e71;stroke-width:.5;stroke-miterlimit:10" x1="49.86" y1="168.94" x2="49.86" y2="166.77"/><line style="fill:none;stroke:#6d6e71;stroke-width:.5;stroke-miterlimit:10" x1="82.86" y1="168.94" x2="82.86" y2="166.77"/><line style="fill:none;stroke:#6d6e71;stroke-width:.5;stroke-miterlimit:10" x1="115.86" y1="168.94" x2="115.86" y2="166.77"/><line style="fill:none;stroke:#6d6e71;stroke-width:.5;stroke-miterlimit:10" x1="148.86" y1="168.94" x2="148.86" y2="166.77"/><line style="fill:none;stroke:#6d6e71;stroke-width:.5;stroke-miterlimit:10" x1="182.2" y1="168.94" x2="182.2" y2="166.77"/><line style="fill:none;stroke:#6d6e71;stroke-width:.5;stroke-miterlimit:10" x1="214.86" y1="168.94" x2="214.86" y2="166.77"/><line style="fill:none;stroke:#6d6e71;stroke-width:.5;stroke-miterlimit:10" x1="247.86" y1="168.94" x2="247.86" y2="166.77"/><line style="fill:none;stroke:#6d6e71;stroke-width:.5;stroke-miterlimit:10" x1="281.2" y1="168.94" x2="281.2" y2="166.77"/><line style="fill:none;stroke:#6d6e71;stroke-width:.5;stroke-miterlimit:10" x1="47.78" y1="151.07" x2="49.95" y2="151.07"/><line style="fill:none;stroke:#6d6e71;stroke-width:.5;stroke-miterlimit:10" x1="47.78" y1="135.07" x2="49.95" y2="135.07"/><line style="fill:none;stroke:#6d6e71;stroke-width:.5;stroke-miterlimit:10" x1="47.78" y1="119.07" x2="49.95" y2="119.07"/><line style="fill:none;stroke:#6d6e71;stroke-width:.5;stroke-miterlimit:10" x1="47.78" y1="103.07" x2="49.95" y2="103.07"/><line style="fill:none;stroke:#6d6e71;stroke-width:.5;stroke-miterlimit:10" x1="47.78" y1="87.07" x2="49.95" y2="87.07"/><line style="fill:none;stroke:#6d6e71;stroke-width:.5;stroke-miterlimit:10" x1="47.78" y1="70.8" x2="49.95" y2="70.8"/><line style="fill:none;stroke:#6d6e71;stroke-width:.5;stroke-miterlimit:10" x1="47.78" y1="54.8" x2="49.95" y2="54.8"/><line style="fill:none;stroke:#6d6e71;stroke-width:.5;stroke-miterlimit:10" x1="47.78" y1="38.8" x2="49.95" y2="38.8"/><line style="fill:none;stroke:#6d6e71;stroke-width:.5;stroke-miterlimit:10" x1="47.78" y1="22.8" x2="49.95" y2="22.8"/><line style="fill:none;stroke:#6d6e71;stroke-width:.5;stroke-miterlimit:10" x1="47.78" y1="6.8" x2="49.95" y2="6.8"/><path style="fill:none;stroke:#939598;stroke-width:.5;stroke-linecap:square;stroke-linejoin:round;stroke-dasharray:1.417" d="M50.11 87.07c40.82.41 82.1.41 122.93.25M50.11 70.73c40.82.41 82.1.41 122.93.25"/><line style="fill:none;stroke:#939598;stroke-width:.5;stroke-linecap:square;stroke-linejoin:round;stroke-dasharray:1.417" x1="175.06" y1="88.93" x2="175.4" y2="166.77"/><line style="fill:none;stroke:#939598;stroke-width:.5;stroke-linecap:square;stroke-linejoin:round;stroke-dasharray:1.417" x1="174.73" y1="73.37" x2="174.85" y2="85.59"/><text transform="translate(167.708 96.477)" style="font-family:'Asap-Regular';font-size:6px">E</text><text transform="rotate(-90 78.635 65.14)"><tspan x="0" y="0" style="font-family:'Asap-Medium';font-size:8px">Average product of labour (APL)</tspan><tspan x="15.39" y="9.6" style="font-family:'Asap-Medium';font-size:8px">(kg of grain per farmer)</tspan></text><text transform="translate(139.811 189.357)" style="font-family:'Asap-Medium';font-size:8px">Number of farmers</text><text transform="translate(28.191 9.538)" style="fill:#231f20;font-family:'Asap-Regular';font-size:7px">1,000</text><text transform="translate(33.617 24.91)" style="fill:#231f20;font-family:'Asap-Regular';font-size:7px">900</text><text transform="translate(33.617 41.283)" style="fill:#231f20;font-family:'Asap-Regular';font-size:7px">800</text><text transform="translate(33.475 57.407)" style="fill:#231f20;font-family:'Asap-Regular';font-size:7px">700</text><text transform="translate(33.617 73.028)" style="fill:#231f20;font-family:'Asap-Regular';font-size:7px">600</text><text transform="translate(33.617 89.4)" style="fill:#231f20;font-family:'Asap-Regular';font-size:7px">500</text><text transform="translate(33.617 105.773)" style="fill:#231f20;font-family:'Asap-Regular';font-size:7px">400</text><text transform="translate(33.617 121.146)" style="fill:#231f20;font-family:'Asap-Regular';font-size:7px">300</text><text transform="translate(33.617 137.518)" style="fill:#231f20;font-family:'Asap-Regular';font-size:7px">200</text><text transform="translate(33.617 152.89)" style="fill:#231f20;font-family:'Asap-Regular';font-size:7px">100</text><text transform="translate(41.106 169.263)" style="fill:#231f20;font-family:'Asap-Regular';font-size:7px">0</text><text transform="translate(169.577 66.142)" style="font-family:'Asap-Regular';font-size:6px">F</text><text transform="translate(48.192 176.93)" style="fill:#231f20;font-family:'Asap-Regular';font-size:7px">0</text><text transform="translate(77.391 176.93)" style="fill:#231f20;font-family:'Asap-Regular';font-size:7px">400</text><text transform="translate(110.335 176.93)" style="fill:#231f20;font-family:'Asap-Regular';font-size:7px">800</text><text transform="translate(141.406 176.93)" style="fill:#231f20;font-family:'Asap-Regular';font-size:7px">1,200</text><text transform="translate(175.35 176.93)" style="fill:#231f20;font-family:'Asap-Regular';font-size:7px">1,600</text><text transform="translate(208.293 176.93)" style="fill:#231f20;font-family:'Asap-Regular';font-size:7px">2,000</text><text transform="translate(240.237 176.93)" style="fill:#231f20;font-family:'Asap-Regular';font-size:7px">2,400</text><text transform="translate(274.18 176.93)" style="fill:#231f20;font-family:'Asap-Regular';font-size:7px">2,800</text><circle style="fill-rule:evenodd;clip-rule:evenodd;stroke:#000;stroke-miterlimit:8" cx="174.71" cy="71.07" r="1.13"/><path style="fill:none;stroke:#939598;stroke-width:.5;stroke-linecap:square;stroke-linejoin:round;stroke-dasharray:1.417" d="M172.98 87.31c35.94.41 72.27.41 108.22.25"/><circle style="fill-rule:evenodd;clip-rule:evenodd;stroke:#000;stroke-miterlimit:8" cx="174.71" cy="87.07" r="1.13"/></svg>