<svg xmlns="http://www.w3.org/2000/svg" viewBox="0 0 810 450"><rect width="100%" height="100%" style="stroke:none;fill:#fff;stroke-linecap:round;stroke-linejoin:round;stroke-miterlimit:10"/><rect x="0" y="0" width="810" height="450" style="stroke-width:1.07;stroke:#fff;fill:#fff;stroke-linecap:round;stroke-linejoin:round;stroke-miterlimit:10"/><rect x="116.25" y="14.17" width="665.4" height="354.93" style="stroke-width:1.07;stroke:none;fill:#fff;stroke-linecap:round;stroke-linejoin:round;stroke-miterlimit:10"/><polyline points="116.25 369.1 781.65 369.1" style="stroke-width:1.07;stroke:#c6c4c4;stroke-linecap:butt;fill:none;stroke-linejoin:round;stroke-miterlimit:10"/><polyline points="116.25 298.12 781.65 298.12" style="stroke-width:1.07;stroke:#c6c4c4;stroke-linecap:butt;fill:none;stroke-linejoin:round;stroke-miterlimit:10"/><polyline points="116.25 227.13 781.65 227.13" style="stroke-width:1.07;stroke:#c6c4c4;stroke-linecap:butt;fill:none;stroke-linejoin:round;stroke-miterlimit:10"/><polyline points="116.25 156.14 781.65 156.14" style="stroke-width:1.07;stroke:#c6c4c4;stroke-linecap:butt;fill:none;stroke-linejoin:round;stroke-miterlimit:10"/><polyline points="116.25 85.16 781.65 85.16" style="stroke-width:1.07;stroke:#c6c4c4;stroke-linecap:butt;fill:none;stroke-linejoin:round;stroke-miterlimit:10"/><polyline points="116.25 14.17 781.65 14.17" style="stroke-width:1.07;stroke:#c6c4c4;stroke-linecap:butt;fill:none;stroke-linejoin:round;stroke-miterlimit:10"/><polyline points="116.25 100.61 119.58 101.38 122.9 101.39 126.23 101.82 129.56 102.39 132.89 102.35 136.21 102.5 139.54 102.74 142.87 102.99 146.19 103.23 149.52 103.08 152.85 103.11 156.17 103.24 159.5 103.3 162.83 103.67 166.16 104.42 169.48 104.13 172.81 103.9 176.14 104.33 179.46 104.08 182.79 103.86 186.12 104.33 189.44 103.92 192.77 104.02 196.1 104.74 199.43 105.42 202.75 105.09 206.08 105.33 209.41 105.77 212.73 106.69 216.06 107.14 219.39 108.66 222.71 109.33 226.04 109.5 229.37 109.49 232.7 109.74 236.02 109.85 239.35 111.08 242.68 111.37 246 112.17 249.33 113.37 252.66 113.12 255.99 112.85 259.31 114.71 262.64 115.67 265.97 113.74 269.29 113.9 272.62 113.89 275.95 115.04 279.27 115.34 282.6 115.34 285.93 116.52 289.26 119.66 292.58 121.15 295.91 122.45 299.24 124.4 302.56 125.02 305.89 126.16 309.22 127.38 312.54 128.7 315.87 132.59 319.2 132.98 322.53 135.53 325.85 135.29 329.18 135.36 332.51 137.78 335.83 137.26 339.16 142.29 342.49 144.61 345.81 144.61 349.14 149.09 352.47 143.58 355.8 148.07 359.12 150.01 362.45 152.39 365.78 152.25 369.1 150.09 372.43 157.46 375.76 160.2 379.08 156.47 382.41 157.05 385.74 157.42 389.07 162.11 392.39 163.69 395.72 163.56 399.05 162.51 402.37 164.64 405.7 161.11 409.03 160.71 412.35 168.1 415.68 168.62 419.01 167.83 422.34 170.66 425.66 171.48 428.99 171.74 432.32 170.63 435.64 171.88 438.97 168.82 442.3 156.38 445.63 161.85 448.95 158.95 452.28 160.31 455.61 165.3 458.93 165.64 462.26 170.45 465.59 173.87 468.91 176.58 472.24 177.47 475.57 180.53 478.9 182.8 482.22 182.17 485.55 180.43 488.88 180.29 492.2 177.14 495.53 179.16 498.86 182.42 502.18 185.75 505.51 185.26 508.84 185.04 512.17 187.28 515.49 187.79 518.82 188.58 522.15 186.55 525.47 187.6 528.8 180.17 532.13 173.58 535.45 170.21 538.78 174.04 542.11 178.93 545.44 182.53 548.76 180.52 552.09 183.32 555.42 184.12 558.74 187.4 562.07 188.1 565.4 194.67 568.72 199.9 572.05 199.99 575.38 200.71 578.71 202.05 582.03 200.46 585.36 202.85 588.69 205.43 592.01 210.76 595.34 205.11 598.67 202.37 601.99 204.51 605.32 207.7 608.65 204.87 611.98 208.14 615.3 210.73 618.63 212.58 621.96 214.13 625.28 216.85 628.61 218.9 631.94 221.78 635.26 226.04 638.59 229.03 641.92 233.12 645.25 239.91 648.57 248.93 651.9 245.17 655.23 242.42 658.55 242.98 661.88 246.96 665.21 251.97 668.54 250.33 671.86 248.03 675.19 244.83 678.52 249.47 681.84 259.57 685.17 252.6 688.5 247.37 691.82 244.04 695.15 241.42 698.48 241.99 701.81 254.25 705.13 266.3 708.46 256.98 711.79 268.34 715.11 279.19 718.44 286.77 721.77 291.73 725.09 292.46 728.42 289.91 731.75 299.88 735.08 303.06 738.4 306.62 741.73 304.13 745.06 307.86 748.38 308.88 751.71 312.36 755.04 312.55 758.36 320.46 761.69 324.93 765.02 325.88 768.35 328.98 771.67 330.46 775 333.56" style="stroke-width:1.2;stroke:#3a53a4;stroke-linecap:butt;fill:none;stroke-linejoin:round;stroke-miterlimit:10"/><circle cx="116.25" cy="100.61" r="2.2" style="stroke-width:1.2;stroke:#3a53a4;fill:#3a53a4;stroke-linecap:round;stroke-linejoin:round;stroke-miterlimit:10"/><circle cx="216.06" cy="107.14" r="2.2" style="stroke-width:1.2;stroke:#3a53a4;fill:#3a53a4;stroke-linecap:round;stroke-linejoin:round;stroke-miterlimit:10"/><circle cx="382.41" cy="157.05" r="2.2" style="stroke-width:1.2;stroke:#3a53a4;fill:#3a53a4;stroke-linecap:round;stroke-linejoin:round;stroke-miterlimit:10"/><circle cx="548.76" cy="180.52" r="2.2" style="stroke-width:1.2;stroke:#3a53a4;fill:#3a53a4;stroke-linecap:round;stroke-linejoin:round;stroke-miterlimit:10"/><circle cx="715.11" cy="279.19" r="2.2" style="stroke-width:1.2;stroke:#3a53a4;fill:#3a53a4;stroke-linecap:round;stroke-linejoin:round;stroke-miterlimit:10"/><circle cx="775" cy="333.56" r="2.2" style="stroke-width:1.2;stroke:#3a53a4;fill:#3a53a4;stroke-linecap:round;stroke-linejoin:round;stroke-miterlimit:10"/><text x="116.71" y="118.24" style="font-size:14px;font-family:Asap" textLength="25.69" lengthAdjust="spacingAndGlyphs">76%</text><text x="213.2" y="99.92" style="font-size:14px;font-family:Asap" textLength="25.69" lengthAdjust="spacingAndGlyphs">74%</text><text x="369.57" y="178.23" style="font-size:14px;font-family:Asap" textLength="25.69" lengthAdjust="spacingAndGlyphs">60%</text><text x="545.9" y="173.3" style="font-size:14px;font-family:Asap" textLength="25.69" lengthAdjust="spacingAndGlyphs">53%</text><text x="685.63" y="282.62" style="font-size:14px;font-family:Asap" textLength="25.69" lengthAdjust="spacingAndGlyphs">25%</text><text x="752.17" y="347.64" style="font-size:14px;font-family:Asap" textLength="25.69" lengthAdjust="spacingAndGlyphs">10%</text><polyline points="116.25 369.1 116.25 14.17" style="stroke-width:1.07;stroke:#464646;stroke-linecap:butt;fill:none;stroke-linejoin:round;stroke-miterlimit:10"/><text x="89.57" y="373.51" style="font-size:18px;font-family:Asap" textLength="9.63" lengthAdjust="spacingAndGlyphs">0</text><text x="79.94" y="302.53" style="font-size:18px;font-family:Asap" textLength="19.26" lengthAdjust="spacingAndGlyphs">20</text><text x="79.94" y="231.54" style="font-size:18px;font-family:Asap" textLength="19.26" lengthAdjust="spacingAndGlyphs">40</text><text x="79.94" y="160.55" style="font-size:18px;font-family:Asap" textLength="19.26" lengthAdjust="spacingAndGlyphs">60</text><text x="79.94" y="89.57" style="font-size:18px;font-family:Asap" textLength="19.26" lengthAdjust="spacingAndGlyphs">80</text><text x="70.31" y="18.58" style="font-size:18px;font-family:Asap" textLength="28.89" lengthAdjust="spacingAndGlyphs">100</text><polyline points="109.16 369.1 116.25 369.1" style="stroke-width:1.07;stroke:#464646;stroke-linecap:butt;fill:none;stroke-linejoin:round;stroke-miterlimit:10"/><polyline points="109.16 298.12 116.25 298.12" style="stroke-width:1.07;stroke:#464646;stroke-linecap:butt;fill:none;stroke-linejoin:round;stroke-miterlimit:10"/><polyline points="109.16 227.13 116.25 227.13" style="stroke-width:1.07;stroke:#464646;stroke-linecap:butt;fill:none;stroke-linejoin:round;stroke-miterlimit:10"/><polyline points="109.16 156.14 116.25 156.14" style="stroke-width:1.07;stroke:#464646;stroke-linecap:butt;fill:none;stroke-linejoin:round;stroke-miterlimit:10"/><polyline points="109.16 85.16 116.25 85.16" style="stroke-width:1.07;stroke:#464646;stroke-linecap:butt;fill:none;stroke-linejoin:round;stroke-miterlimit:10"/><polyline points="109.16 14.17 116.25 14.17" style="stroke-width:1.07;stroke:#464646;stroke-linecap:butt;fill:none;stroke-linejoin:round;stroke-miterlimit:10"/><polyline points="116.25 369.1 781.65 369.1" style="stroke-width:1.07;stroke:#464646;stroke-linecap:butt;fill:none;stroke-linejoin:round;stroke-miterlimit:10"/><polyline points="116.25 376.19 116.25 369.1" style="stroke-width:1.07;stroke:#464646;stroke-linecap:butt;fill:none;stroke-linejoin:round;stroke-miterlimit:10"/><polyline points="182.79 376.19 182.79 369.1" style="stroke-width:1.07;stroke:#464646;stroke-linecap:butt;fill:none;stroke-linejoin:round;stroke-miterlimit:10"/><polyline points="249.33 376.19 249.33 369.1" style="stroke-width:1.07;stroke:#464646;stroke-linecap:butt;fill:none;stroke-linejoin:round;stroke-miterlimit:10"/><polyline points="315.87 376.19 315.87 369.1" style="stroke-width:1.07;stroke:#464646;stroke-linecap:butt;fill:none;stroke-linejoin:round;stroke-miterlimit:10"/><polyline points="382.41 376.19 382.41 369.1" style="stroke-width:1.07;stroke:#464646;stroke-linecap:butt;fill:none;stroke-linejoin:round;stroke-miterlimit:10"/><polyline points="448.95 376.19 448.95 369.1" style="stroke-width:1.07;stroke:#464646;stroke-linecap:butt;fill:none;stroke-linejoin:round;stroke-miterlimit:10"/><polyline points="515.49 376.19 515.49 369.1" style="stroke-width:1.07;stroke:#464646;stroke-linecap:butt;fill:none;stroke-linejoin:round;stroke-miterlimit:10"/><polyline points="582.03 376.19 582.03 369.1" style="stroke-width:1.07;stroke:#464646;stroke-linecap:butt;fill:none;stroke-linejoin:round;stroke-miterlimit:10"/><polyline points="648.57 376.19 648.57 369.1" style="stroke-width:1.07;stroke:#464646;stroke-linecap:butt;fill:none;stroke-linejoin:round;stroke-miterlimit:10"/><polyline points="715.11 376.19 715.11 369.1" style="stroke-width:1.07;stroke:#464646;stroke-linecap:butt;fill:none;stroke-linejoin:round;stroke-miterlimit:10"/><polyline points="781.65 376.19 781.65 369.1" style="stroke-width:1.07;stroke:#464646;stroke-linecap:butt;fill:none;stroke-linejoin:round;stroke-miterlimit:10"/><text x="96.99" y="398.79" style="font-size:18px;font-family:Asap" textLength="38.52" lengthAdjust="spacingAndGlyphs">1820</text><text x="163.53" y="398.79" style="font-size:18px;font-family:Asap" textLength="38.52" lengthAdjust="spacingAndGlyphs">1840</text><text x="230.07" y="398.79" style="font-size:18px;font-family:Asap" textLength="38.52" lengthAdjust="spacingAndGlyphs">1860</text><text x="296.61" y="398.79" style="font-size:18px;font-family:Asap" textLength="38.52" lengthAdjust="spacingAndGlyphs">1880</text><text x="363.15" y="398.79" style="font-size:18px;font-family:Asap" textLength="38.52" lengthAdjust="spacingAndGlyphs">1900</text><text x="429.69" y="398.79" style="font-size:18px;font-family:Asap" textLength="38.52" lengthAdjust="spacingAndGlyphs">1920</text><text x="496.23" y="398.79" style="font-size:18px;font-family:Asap" textLength="38.52" lengthAdjust="spacingAndGlyphs">1940</text><text x="562.77" y="398.79" style="font-size:18px;font-family:Asap" textLength="38.52" lengthAdjust="spacingAndGlyphs">1960</text><text x="629.31" y="398.79" style="font-size:18px;font-family:Asap" textLength="38.52" lengthAdjust="spacingAndGlyphs">1980</text><text x="695.85" y="398.79" style="font-size:18px;font-family:Asap" textLength="38.52" lengthAdjust="spacingAndGlyphs">2000</text><text x="762.39" y="398.79" style="font-size:18px;font-family:Asap" textLength="38.52" lengthAdjust="spacingAndGlyphs">2020</text><text x="428.86" y="431.59" style="font-size:20px;font-family:Asap Medium" textLength="40.18" lengthAdjust="spacingAndGlyphs">Year</text><text transform="rotate(-90 175.955 147.745)" style="font-size:20px;font-family:Asap Medium" textLength="50.3" lengthAdjust="spacingAndGlyphs">Share</text><text transform="rotate(-90 148.405 120.195)" style="font-size:20px;font-family:Asap Medium" textLength="17.88" lengthAdjust="spacingAndGlyphs">of</text><text transform="rotate(-90 137.065 108.855)" style="font-size:20px;font-family:Asap Medium" textLength="28.92" lengthAdjust="spacingAndGlyphs">the</text><text transform="rotate(-90 120.205 91.995)" style="font-size:20px;font-family:Asap Medium" textLength="50.88" lengthAdjust="spacingAndGlyphs">world</text><text transform="rotate(-90 92.365 64.155)" style="font-size:20px;font-family:Asap Medium" textLength="96.94" lengthAdjust="spacingAndGlyphs">population</text><text transform="rotate(-90 184.27 133.14)" style="font-size:20px;font-family:Asap Medium" textLength="48.3" lengthAdjust="spacingAndGlyphs">living</text><text transform="rotate(-90 157.72 106.59)" style="font-size:20px;font-family:Asap Medium" textLength="16.44" lengthAdjust="spacingAndGlyphs">in</text><text transform="rotate(-90 147.1 95.97)" style="font-size:20px;font-family:Asap Medium" textLength="73.16" lengthAdjust="spacingAndGlyphs">extreme</text><text transform="rotate(-90 108.12 56.99)" style="font-size:20px;font-family:Asap Medium" textLength="67.1" lengthAdjust="spacingAndGlyphs">poverty</text><text transform="rotate(-90 72.17 21.04)" style="font-size:20px;font-family:Asap Medium" textLength="27.34" lengthAdjust="spacingAndGlyphs">(%)</text></svg>