<svg version="1.1" xmlns="http://www.w3.org/2000/svg" xmlns:xlink="http://www.w3.org/1999/xlink" x="0" y="0" viewBox="0 0 311.81 211.43" style="enable-background:new 0 0 311.81 211.43" xml:space="preserve"><g style="display:none"><g style="display:inline;opacity:.39"><polygon style="fill-rule:evenodd;clip-rule:evenodd;fill:#fff" points="-5.51 -41.79 319.64 -41.79 319.64 220.82 -5.51 220.82 -5.51 -41.79"/><polygon style="fill-rule:evenodd;clip-rule:evenodd;fill:#fff" points="32.63 -32.12 307.75 -32.12 307.75 181.92 32.63 181.92 32.63 -32.12"/><defs><polygon id="prefix__a" points="-5.51 220.71 319.64 220.71 319.64 -41.79 -5.51 -41.79 -5.51 220.71"/></defs><clipPath id="prefix__b"><use xlink:href="#prefix__a" style="overflow:visible"/></clipPath><line x1="32.63" y1="181.92" x2="32.63" y2="-32.12"/><defs><polygon id="prefix__c" points="-5.51 220.71 319.64 220.71 319.64 -41.79 -5.51 -41.79 -5.51 220.71"/></defs><clipPath id="prefix__d"><use xlink:href="#prefix__c" style="overflow:visible"/></clipPath><path d="M30.51 181.92h2.12m-2.12-35.64h2.12m-2.12-35.74h2.12M30.51 74.9h2.12m-2.12-35.74h2.12M30.51 3.52h2.12m-2.12-35.64h2.12"/><defs><polygon id="prefix__e" points="-5.51 220.71 319.64 220.71 319.64 -41.79 -5.51 -41.79 -5.51 220.71"/></defs><clipPath id="prefix__f"><use xlink:href="#prefix__e" style="overflow:visible"/></clipPath><line x1="32.63" y1="181.92" x2="307.75" y2="181.92"/><defs><polygon id="prefix__g" points="-5.51 220.71 319.64 220.71 319.64 -41.79 -5.51 -41.79 -5.51 220.71"/></defs><clipPath id="prefix__h"><use xlink:href="#prefix__g" style="overflow:visible"/></clipPath><path d="M32.63 181.92v2.52m17.23-2.52v2.52m17.23-2.52v2.52m17.14-2.52v2.52m17.23-2.52v2.52m17.14-2.52v2.52m17.23-2.52v2.52m17.13-2.52v2.52m17.23-2.52v2.52m17.23-2.52v2.52m17.14-2.52v2.52m17.23-2.52v2.52m17.14-2.52v2.52m17.22-2.52v2.52m17.14-2.52v2.52m17.23-2.52v2.52m17.23-2.52v2.52"/><defs><polygon id="prefix__i" points="32.63 182.55 308.21 182.55 308.21 -32.22 32.63 -32.22 32.63 182.55"/></defs><clipPath id="prefix__j"><use xlink:href="#prefix__i" style="overflow:visible"/></clipPath><polyline points="32.68 181.87 49.91 171.25 67.05 160.53 84.28 149.81 101.41 139.08 118.64 128.36 135.78 117.74 153.01 107.02 170.15 96.3 187.38 85.57 204.61 74.85 221.74 64.13 238.97 53.51 256.11 42.79 273.34 32.06 290.48 21.34 307.7 10.62"/><defs><polygon id="prefix__k" points="-5.51 220.71 319.64 220.71 319.64 -41.79 -5.51 -41.79 -5.51 220.71"/></defs><clipPath id="prefix__l"><use xlink:href="#prefix__k" style="overflow:visible"/></clipPath><g><defs><rect id="prefix__m" x="-5.51" y="-41.79" width="325.15" height="262.5"/></defs><clipPath id="prefix__n"><use xlink:href="#prefix__m" style="overflow:visible"/></clipPath><g><text transform="matrix(.8764 0 0 1 22.761 184.126)" style="fill:#595a5a;font-family:'Calibri';font-size:7.8846px">0</text></g></g><defs><polygon id="prefix__o" points="-5.51 220.71 319.64 220.71 319.64 -41.79 -5.51 -41.79 -5.51 220.71"/></defs><clipPath id="prefix__p"><use xlink:href="#prefix__o" style="overflow:visible"/></clipPath><g><defs><rect id="prefix__q" x="-5.51" y="-41.79" width="325.15" height="262.5"/></defs><clipPath id="prefix__r"><use xlink:href="#prefix__q" style="overflow:visible"/></clipPath><g><text transform="matrix(.8764 0 0 1 15.761 148.44)" style="fill:#595a5a;font-family:'Calibri';font-size:7.8846px">100</text></g></g><defs><polygon id="prefix__s" points="-5.51 220.71 319.64 220.71 319.64 -41.79 -5.51 -41.79 -5.51 220.71"/></defs><clipPath id="prefix__t"><use xlink:href="#prefix__s" style="overflow:visible"/></clipPath><g><defs><rect id="prefix__u" x="-5.51" y="-41.79" width="325.15" height="262.5"/></defs><clipPath id="prefix__v"><use xlink:href="#prefix__u" style="overflow:visible"/></clipPath><g><text transform="matrix(.8764 0 0 1 15.761 112.769)" style="fill:#595a5a;font-family:'Calibri';font-size:7.8846px">200</text></g></g><defs><polygon id="prefix__w" points="-5.51 220.71 319.64 220.71 319.64 -41.79 -5.51 -41.79 -5.51 220.71"/></defs><clipPath id="prefix__x"><use xlink:href="#prefix__w" style="overflow:visible"/></clipPath><g><defs><rect id="prefix__y" x="-5.51" y="-41.79" width="325.15" height="262.5"/></defs><clipPath id="prefix__z"><use xlink:href="#prefix__y" style="overflow:visible"/></clipPath><g><text transform="matrix(.8764 0 0 1 15.761 77.097)" style="fill:#595a5a;font-family:'Calibri';font-size:7.8846px">300</text></g></g><defs><polygon id="prefix__A" points="-5.51 220.71 319.64 220.71 319.64 -41.79 -5.51 -41.79 -5.51 220.71"/></defs><clipPath id="prefix__B"><use xlink:href="#prefix__A" style="overflow:visible"/></clipPath><g><defs><rect id="prefix__C" x="-5.51" y="-41.79" width="325.15" height="262.5"/></defs><clipPath id="prefix__D"><use xlink:href="#prefix__C" style="overflow:visible"/></clipPath><g><text transform="matrix(.8764 0 0 1 15.761 41.417)" style="fill:#595a5a;font-family:'Calibri';font-size:7.8846px">400</text></g></g><defs><polygon id="prefix__E" points="-5.51 220.71 319.64 220.71 319.64 -41.79 -5.51 -41.79 -5.51 220.71"/></defs><clipPath id="prefix__F"><use xlink:href="#prefix__E" style="overflow:visible"/></clipPath><g><defs><rect id="prefix__G" x="-5.51" y="-41.79" width="325.15" height="262.5"/></defs><clipPath id="prefix__H"><use xlink:href="#prefix__G" style="overflow:visible"/></clipPath><g><text transform="matrix(.8764 0 0 1 15.761 5.737)" style="fill:#595a5a;font-family:'Calibri';font-size:7.8846px">500</text></g></g><defs><polygon id="prefix__I" points="-5.51 220.71 319.64 220.71 319.64 -41.79 -5.51 -41.79 -5.51 220.71"/></defs><clipPath id="prefix__J"><use xlink:href="#prefix__I" style="overflow:visible"/></clipPath><g><defs><rect id="prefix__K" x="-5.51" y="-41.79" width="325.15" height="262.5"/></defs><clipPath id="prefix__L"><use xlink:href="#prefix__K" style="overflow:visible"/></clipPath><g><text transform="matrix(.8764 0 0 1 15.761 -29.936)" style="fill:#595a5a;font-family:'Calibri';font-size:7.8846px">600</text></g></g><defs><polygon id="prefix__M" points="-5.51 220.71 319.64 220.71 319.64 -41.79 -5.51 -41.79 -5.51 220.71"/></defs><clipPath id="prefix__N"><use xlink:href="#prefix__M" style="overflow:visible"/></clipPath><g><defs><rect id="prefix__O" x="-5.51" y="-41.79" width="325.15" height="262.5"/></defs><clipPath id="prefix__P"><use xlink:href="#prefix__O" style="overflow:visible"/></clipPath><g><text transform="matrix(.8764 0 0 1 30.927 194.379)" style="fill:#595a5a;font-family:'Calibri';font-size:7.8846px">0</text></g></g><g><defs><polygon id="prefix__Q" points="-5.51 220.71 319.64 220.71 319.64 -41.79 -5.51 -41.79 -5.51 220.71"/></defs><clipPath id="prefix__R"><use xlink:href="#prefix__Q" style="overflow:visible"/></clipPath><g><defs><rect id="prefix__S" x="-5.51" y="-41.79" width="325.15" height="262.5"/></defs><clipPath id="prefix__T"><use xlink:href="#prefix__S" style="overflow:visible"/></clipPath><g><text transform="matrix(.8764 0 0 1 48.11 194.379)" style="fill:#595a5a;font-family:'Calibri';font-size:7.8846px">1</text></g></g></g><g><defs><polygon id="prefix__U" points="-5.51 220.71 319.64 220.71 319.64 -41.79 -5.51 -41.79 -5.51 220.71"/></defs><clipPath id="prefix__V"><use xlink:href="#prefix__U" style="overflow:visible"/></clipPath><g><defs><rect id="prefix__W" x="-5.51" y="-41.79" width="325.15" height="262.5"/></defs><clipPath id="prefix__X"><use xlink:href="#prefix__W" style="overflow:visible"/></clipPath><g><text transform="matrix(.8764 0 0 1 65.302 194.379)" style="fill:#595a5a;font-family:'Calibri';font-size:7.8846px">2</text></g></g></g><g><defs><polygon id="prefix__Y" points="-5.51 220.71 319.64 220.71 319.64 -41.79 -5.51 -41.79 -5.51 220.71"/></defs><clipPath id="prefix__Z"><use xlink:href="#prefix__Y" style="overflow:visible"/></clipPath><g><defs><rect id="prefix__aa" x="-5.51" y="-41.79" width="325.15" height="262.5"/></defs><clipPath id="prefix__ab"><use xlink:href="#prefix__aa" style="overflow:visible"/></clipPath><g><text transform="matrix(.8764 0 0 1 82.495 194.379)" style="fill:#595a5a;font-family:'Calibri';font-size:7.8846px">3</text></g></g></g><g><defs><polygon id="prefix__ac" points="-5.51 220.71 319.64 220.71 319.64 -41.79 -5.51 -41.79 -5.51 220.71"/></defs><clipPath id="prefix__ad"><use xlink:href="#prefix__ac" style="overflow:visible"/></clipPath><g><defs><rect id="prefix__ae" x="-5.51" y="-41.79" width="325.15" height="262.5"/></defs><clipPath id="prefix__af"><use xlink:href="#prefix__ae" style="overflow:visible"/></clipPath><g><text transform="matrix(.8764 0 0 1 99.68 194.379)" style="fill:#595a5a;font-family:'Calibri';font-size:7.8846px">4</text></g></g></g><g><defs><polygon id="prefix__ag" points="-5.51 220.71 319.64 220.71 319.64 -41.79 -5.51 -41.79 -5.51 220.71"/></defs><clipPath id="prefix__ah"><use xlink:href="#prefix__ag" style="overflow:visible"/></clipPath><g><defs><rect id="prefix__ai" x="-5.51" y="-41.79" width="325.15" height="262.5"/></defs><clipPath id="prefix__aj"><use xlink:href="#prefix__ai" style="overflow:visible"/></clipPath><g><text transform="matrix(.8764 0 0 1 116.87 194.379)" style="fill:#595a5a;font-family:'Calibri';font-size:7.8846px">5</text></g></g></g><g><defs><polygon id="prefix__ak" points="-5.51 220.71 319.64 220.71 319.64 -41.79 -5.51 -41.79 -5.51 220.71"/></defs><clipPath id="prefix__al"><use xlink:href="#prefix__ak" style="overflow:visible"/></clipPath><g><defs><rect id="prefix__am" x="-5.51" y="-41.79" width="325.15" height="262.5"/></defs><clipPath id="prefix__an"><use xlink:href="#prefix__am" style="overflow:visible"/></clipPath><g><text transform="matrix(.8764 0 0 1 134.062 194.379)" style="fill:#595a5a;font-family:'Calibri';font-size:7.8846px">6</text></g></g></g><g><defs><polygon id="prefix__ao" points="-5.51 220.71 319.64 220.71 319.64 -41.79 -5.51 -41.79 -5.51 220.71"/></defs><clipPath id="prefix__ap"><use xlink:href="#prefix__ao" style="overflow:visible"/></clipPath><g><defs><rect id="prefix__aq" x="-5.51" y="-41.79" width="325.15" height="262.5"/></defs><clipPath id="prefix__ar"><use xlink:href="#prefix__aq" style="overflow:visible"/></clipPath><g><text transform="matrix(.8764 0 0 1 151.249 194.379)" style="fill:#595a5a;font-family:'Calibri';font-size:7.8846px">7</text></g></g></g><g><defs><polygon id="prefix__as" points="-5.51 220.71 319.64 220.71 319.64 -41.79 -5.51 -41.79 -5.51 220.71"/></defs><clipPath id="prefix__at"><use xlink:href="#prefix__as" style="overflow:visible"/></clipPath><g><defs><rect id="prefix__au" x="-5.51" y="-41.79" width="325.15" height="262.5"/></defs><clipPath id="prefix__av"><use xlink:href="#prefix__au" style="overflow:visible"/></clipPath><g><text transform="matrix(.8764 0 0 1 168.44 194.379)" style="fill:#595a5a;font-family:'Calibri';font-size:7.8846px">8</text></g></g></g><g><defs><polygon id="prefix__aw" points="-5.51 220.71 319.64 220.71 319.64 -41.79 -5.51 -41.79 -5.51 220.71"/></defs><clipPath id="prefix__ax"><use xlink:href="#prefix__aw" style="overflow:visible"/></clipPath><g><defs><rect id="prefix__ay" x="-5.51" y="-41.79" width="325.15" height="262.5"/></defs><clipPath id="prefix__az"><use xlink:href="#prefix__ay" style="overflow:visible"/></clipPath><g><text transform="matrix(.8764 0 0 1 185.63 194.379)" style="fill:#595a5a;font-family:'Calibri';font-size:7.8846px">9</text></g></g></g><g><defs><polygon id="prefix__aA" points="-5.51 220.71 319.64 220.71 319.64 -41.79 -5.51 -41.79 -5.51 220.71"/></defs><clipPath id="prefix__aB"><use xlink:href="#prefix__aA" style="overflow:visible"/></clipPath><g><defs><rect id="prefix__aC" x="-5.51" y="-41.79" width="325.15" height="262.5"/></defs><clipPath id="prefix__aD"><use xlink:href="#prefix__aC" style="overflow:visible"/></clipPath><g><text transform="matrix(.8764 0 0 1 201.065 194.379)" style="fill:#595a5a;font-family:'Calibri';font-size:7.8846px">10</text></g></g></g><g><defs><polygon id="prefix__aE" points="-5.51 220.71 319.64 220.71 319.64 -41.79 -5.51 -41.79 -5.51 220.71"/></defs><clipPath id="prefix__aF"><use xlink:href="#prefix__aE" style="overflow:visible"/></clipPath><g><defs><rect id="prefix__aG" x="-5.51" y="-41.79" width="325.15" height="262.5"/></defs><clipPath id="prefix__aH"><use xlink:href="#prefix__aG" style="overflow:visible"/></clipPath><g><text transform="matrix(.8764 0 0 1 218.258 194.379)" style="fill:#595a5a;font-family:'Calibri';font-size:7.8846px">11</text></g></g></g><g><defs><polygon id="prefix__aI" points="-5.51 220.71 319.64 220.71 319.64 -41.79 -5.51 -41.79 -5.51 220.71"/></defs><clipPath id="prefix__aJ"><use xlink:href="#prefix__aI" style="overflow:visible"/></clipPath><g><defs><rect id="prefix__aK" x="-5.51" y="-41.79" width="325.15" height="262.5"/></defs><clipPath id="prefix__aL"><use xlink:href="#prefix__aK" style="overflow:visible"/></clipPath><g><text transform="matrix(.8764 0 0 1 235.441 194.379)" style="fill:#595a5a;font-family:'Calibri';font-size:7.8846px">12</text></g></g></g><g><defs><polygon id="prefix__aM" points="-5.51 220.71 319.64 220.71 319.64 -41.79 -5.51 -41.79 -5.51 220.71"/></defs><clipPath id="prefix__aN"><use xlink:href="#prefix__aM" style="overflow:visible"/></clipPath><g><defs><rect id="prefix__aO" x="-5.51" y="-41.79" width="325.15" height="262.5"/></defs><clipPath id="prefix__aP"><use xlink:href="#prefix__aO" style="overflow:visible"/></clipPath><g><text transform="matrix(.8764 0 0 1 252.635 194.379)" style="fill:#595a5a;font-family:'Calibri';font-size:7.8846px">13</text></g></g></g><g><defs><polygon id="prefix__aQ" points="-5.51 220.71 319.64 220.71 319.64 -41.79 -5.51 -41.79 -5.51 220.71"/></defs><clipPath id="prefix__aR"><use xlink:href="#prefix__aQ" style="overflow:visible"/></clipPath><g><defs><rect id="prefix__aS" x="-5.51" y="-41.79" width="325.15" height="262.5"/></defs><clipPath id="prefix__aT"><use xlink:href="#prefix__aS" style="overflow:visible"/></clipPath><g><text transform="matrix(.8764 0 0 1 269.824 194.379)" style="fill:#595a5a;font-family:'Calibri';font-size:7.8846px">14</text></g></g></g><g><defs><polygon id="prefix__aU" points="-5.51 220.71 319.64 220.71 319.64 -41.79 -5.51 -41.79 -5.51 220.71"/></defs><clipPath id="prefix__aV"><use xlink:href="#prefix__aU" style="overflow:visible"/></clipPath><g><defs><rect id="prefix__aW" x="-5.51" y="-41.79" width="325.15" height="262.5"/></defs><clipPath id="prefix__aX"><use xlink:href="#prefix__aW" style="overflow:visible"/></clipPath><g><text transform="matrix(.8764 0 0 1 287.018 194.379)" style="fill:#595a5a;font-family:'Calibri';font-size:7.8846px">15</text></g></g></g><g><defs><polygon id="prefix__aY" points="-5.51 220.71 319.64 220.71 319.64 -41.79 -5.51 -41.79 -5.51 220.71"/></defs><clipPath id="prefix__aZ"><use xlink:href="#prefix__aY" style="overflow:visible"/></clipPath><g><defs><rect id="prefix__ba" x="-5.51" y="-41.79" width="325.15" height="262.5"/></defs><clipPath id="prefix__bb"><use xlink:href="#prefix__ba" style="overflow:visible"/></clipPath><g><text transform="matrix(.8764 0 0 1 304.201 194.379)" style="fill:#595a5a;font-family:'Calibri';font-size:7.8846px">16</text></g></g></g><g><defs><polygon id="prefix__bc" points="-5.51 220.71 319.64 220.71 319.64 -41.79 -5.51 -41.79 -5.51 220.71"/></defs><clipPath id="prefix__bd"><use xlink:href="#prefix__bc" style="overflow:visible"/></clipPath><g><defs><rect id="prefix__be" x="-5.51" y="-41.79" width="325.15" height="262.5"/></defs><clipPath id="prefix__bf"><use xlink:href="#prefix__be" style="overflow:visible"/></clipPath><text transform="matrix(0 -1.141 1 0 11.365 98.01)"><tspan x="0" y="0" style="fill:#595a5a;font-family:'Calibri';font-size:7.6473px">I</tspan><tspan x="1.93" y="0" style="fill:#595a5a;font-family:'Calibri';font-size:7.6473px">n</tspan><tspan x="5.98" y="0" style="fill:#595a5a;font-family:'Calibri';font-size:7.6473px">c</tspan><tspan x="9.21" y="0" style="fill:#595a5a;font-family:'Calibri';font-size:7.6473px">o</tspan><tspan x="13.26" y="0" style="fill:#595a5a;font-family:'Calibri';font-size:7.6473px">me</tspan><tspan x="23.12" y="0" style="fill:#595a5a;font-family:'Calibri';font-size:7.6473px">,</tspan></text></g></g><g><defs><polygon id="prefix__bg" points="-5.51 220.71 319.64 220.71 319.64 -41.79 -5.51 -41.79 -5.51 220.71"/></defs><clipPath id="prefix__bh"><use xlink:href="#prefix__bg" style="overflow:visible"/></clipPath><g><defs><rect id="prefix__bi" x="-5.51" y="-41.79" width="325.15" height="262.5"/></defs><clipPath id="prefix__bj"><use xlink:href="#prefix__bi" style="overflow:visible"/></clipPath><g><text transform="matrix(0 -1.141 1 0 11.365 67.32)" style="fill:#595a5a;font-family:'Calibri-Italic';font-size:7.6473px">y</text></g></g></g><g><defs><polygon id="prefix__bk" points="-5.51 220.71 319.64 220.71 319.64 -41.79 -5.51 -41.79 -5.51 220.71"/></defs><clipPath id="prefix__bl"><use xlink:href="#prefix__bk" style="overflow:visible"/></clipPath><g><defs><rect id="prefix__bm" x="-5.51" y="-41.79" width="325.15" height="262.5"/></defs><clipPath id="prefix__bn"><use xlink:href="#prefix__bm" style="overflow:visible"/></clipPath><text transform="matrix(0 -1.141 1 0 11.365 61.437)"><tspan x="0" y="0" style="fill:#595a5a;font-family:'Calibri';font-size:7.6473px">(</tspan><tspan x="2.3" y="0" style="fill:#595a5a;font-family:'Calibri';font-size:7.6473px">€)</tspan></text></g></g><g><defs><polygon id="prefix__bo" points="-5.51 220.71 319.64 220.71 319.64 -41.79 -5.51 -41.79 -5.51 220.71"/></defs><clipPath id="prefix__bp"><use xlink:href="#prefix__bo" style="overflow:visible"/></clipPath><g><defs><rect id="prefix__bq" x="-5.51" y="-41.79" width="325.15" height="262.5"/></defs><clipPath id="prefix__br"><use xlink:href="#prefix__bq" style="overflow:visible"/></clipPath><text transform="matrix(.8764 0 0 1 135.484 207.465)"><tspan x="0" y="0" style="fill:#595a5a;font-family:'Calibri';font-size:8.7256px">H</tspan><tspan x="5.46" y="0" style="fill:#595a5a;font-family:'Calibri';font-size:8.7256px">o</tspan><tspan x="10.08" y="0" style="fill:#595a5a;font-family:'Calibri';font-size:8.7256px">u</tspan><tspan x="14.7" y="0" style="fill:#595a5a;font-family:'Calibri';font-size:8.7256px">r</tspan><tspan x="17.74" y="0" style="fill:#595a5a;font-family:'Calibri';font-size:8.7256px">s</tspan><tspan x="21.11" y="0" style="fill:#595a5a;font-family:'Calibri';font-size:8.7256px"> o</tspan><tspan x="27.72" y="0" style="fill:#595a5a;font-family:'Calibri';font-size:8.7256px">f</tspan><tspan x="30.36" y="0" style="fill:#595a5a;font-family:'Calibri';font-size:8.7256px"> </tspan><tspan x="32.35" y="0" style="fill:#595a5a;font-family:'Calibri';font-size:8.7256px">w</tspan><tspan x="38.55" y="0" style="fill:#595a5a;font-family:'Calibri';font-size:8.7256px">o</tspan><tspan x="43.17" y="0" style="fill:#595a5a;font-family:'Calibri';font-size:8.7256px">r</tspan><tspan x="46.21" y="0" style="fill:#595a5a;font-family:'Calibri';font-size:8.7256px">k</tspan><tspan x="50.2" y="0" style="fill:#595a5a;font-family:'Calibri';font-size:8.7256px"> </tspan><tspan x="52.3" y="0" style="fill:#595a5a;font-family:'Calibri';font-size:8.7256px">p</tspan><tspan x="56.92" y="0" style="fill:#595a5a;font-family:'Calibri';font-size:8.7256px">e</tspan><tspan x="61.23" y="0" style="fill:#595a5a;font-family:'Calibri';font-size:8.7256px">r</tspan><tspan x="64.27" y="0" style="fill:#595a5a;font-family:'Calibri';font-size:8.7256px"> </tspan><tspan x="66.26" y="0" style="fill:#595a5a;font-family:'Calibri';font-size:8.7256px">d</tspan><tspan x="70.88" y="0" style="fill:#595a5a;font-family:'Calibri';font-size:8.7256px">a</tspan><tspan x="75.08" y="0" style="fill:#595a5a;font-family:'Calibri';font-size:8.7256px">y</tspan></text></g></g><g><defs><polygon id="prefix__bs" points="-5.69 221.03 319.82 221.03 319.82 -42 -5.69 -42 -5.69 221.03"/></defs><clipPath id="prefix__bt"><use xlink:href="#prefix__bs" style="overflow:visible"/></clipPath><polygon points="-5.51 -41.79 319.64 -41.79 319.64 220.82 -5.51 220.82 -5.51 -41.79"/></g><g><defs><polygon id="prefix__bu" points="-5.51 220.82 319.73 220.82 319.73 -41.79 -5.51 -41.79 -5.51 220.82"/></defs><clipPath id="prefix__bv"><use xlink:href="#prefix__bu" style="overflow:visible"/></clipPath><g><defs><rect id="prefix__bw" x="-5.51" y="-41.79" width="325.24" height="262.61"/></defs><clipPath id="prefix__bx"><use xlink:href="#prefix__bw" style="overflow:visible"/></clipPath><g><text transform="matrix(.8764 0 0 1 91.916 127.4)" style="font-family:'Calibri';font-size:12.2999px">A</text></g></g></g><g><defs><polygon id="prefix__by" points="-5.51 220.82 319.73 220.82 319.73 -41.79 -5.51 -41.79 -5.51 220.82"/></defs><clipPath id="prefix__bz"><use xlink:href="#prefix__by" style="overflow:visible"/></clipPath><g><defs><rect id="prefix__bA" x="-5.51" y="-41.79" width="325.24" height="262.61"/></defs><clipPath id="prefix__bB"><use xlink:href="#prefix__bA" style="overflow:visible"/></clipPath><g><text transform="matrix(.8764 0 0 1 99.2 143.074)" style="font-family:'SymbolMT';font-size:12.2999px">•</text></g></g></g><g><defs><polygon id="prefix__bC" points="-5.51 220.82 319.73 220.82 319.73 -41.79 -5.51 -41.79 -5.51 220.82"/></defs><clipPath id="prefix__bD"><use xlink:href="#prefix__bC" style="overflow:visible"/></clipPath><g><defs><rect id="prefix__bE" x="-5.51" y="-41.79" width="325.24" height="262.61"/></defs><clipPath id="prefix__bF"><use xlink:href="#prefix__bE" style="overflow:visible"/></clipPath><g><text transform="matrix(.8764 0 0 1 194.725 63.585)" style="font-family:'Calibri';font-size:12.2999px">B</text></g></g></g><g><defs><polygon id="prefix__bG" points="-5.51 220.82 319.73 220.82 319.73 -41.79 -5.51 -41.79 -5.51 220.82"/></defs><clipPath id="prefix__bH"><use xlink:href="#prefix__bG" style="overflow:visible"/></clipPath><g><defs><rect id="prefix__bI" x="-5.51" y="-41.79" width="325.24" height="262.61"/></defs><clipPath id="prefix__bJ"><use xlink:href="#prefix__bI" style="overflow:visible"/></clipPath><g><text transform="matrix(.8764 0 0 1 202.008 79.245)" style="font-family:'SymbolMT';font-size:12.2999px">•</text></g></g></g></g></g><line style="fill:none;stroke:#6d6e71;stroke-width:.5;stroke-linecap:square" x1="33" y1="181.44" x2="307" y2="181.44"/><line style="fill:none;stroke:#6d6e71;stroke-width:.5;stroke-linecap:square" x1="49.94" y1="181.44" x2="49.94" y2="183.57"/><line style="fill:none;stroke:#6d6e71;stroke-width:.5;stroke-linecap:square" x1="67.08" y1="181.44" x2="67.08" y2="183.57"/><line style="fill:none;stroke:#6d6e71;stroke-width:.5;stroke-linecap:square" x1="84.22" y1="181.44" x2="84.22" y2="183.57"/><line style="fill:none;stroke:#6d6e71;stroke-width:.5;stroke-linecap:square" x1="101.35" y1="181.44" x2="101.35" y2="183.57"/><line style="fill:none;stroke:#6d6e71;stroke-width:.5;stroke-linecap:square" x1="118.49" y1="181.44" x2="118.49" y2="183.57"/><line style="fill:none;stroke:#6d6e71;stroke-width:.5;stroke-linecap:square" x1="135.63" y1="181.44" x2="135.63" y2="183.57"/><line style="fill:none;stroke:#6d6e71;stroke-width:.5;stroke-linecap:square" x1="152.76" y1="181.44" x2="152.76" y2="183.57"/><line style="fill:none;stroke:#6d6e71;stroke-width:.5;stroke-linecap:square" x1="169.9" y1="181.44" x2="169.9" y2="183.57"/><line style="fill:none;stroke:#6d6e71;stroke-width:.5;stroke-linecap:square" x1="187.04" y1="181.44" x2="187.04" y2="183.57"/><line style="fill:none;stroke:#6d6e71;stroke-width:.5;stroke-linecap:square" x1="204.18" y1="181.44" x2="204.18" y2="183.57"/><line style="fill:none;stroke:#6d6e71;stroke-width:.5;stroke-linecap:square" x1="221.31" y1="181.44" x2="221.31" y2="183.57"/><line style="fill:none;stroke:#6d6e71;stroke-width:.5;stroke-linecap:square" x1="238.45" y1="181.44" x2="238.45" y2="183.57"/><line style="fill:none;stroke:#6d6e71;stroke-width:.5;stroke-linecap:square" x1="255.59" y1="181.44" x2="255.59" y2="183.57"/><line style="fill:none;stroke:#6d6e71;stroke-width:.5;stroke-linecap:square" x1="272.73" y1="181.44" x2="272.73" y2="183.57"/><text transform="translate(31.186 192.958)" style="font-family:'Asap-Regular';font-size:7px">0</text><text transform="translate(22.535 184.913)" style="font-family:'Asap-Regular';font-size:7px">0</text><text transform="translate(48.758 193)" style="font-family:'Asap-Regular';font-size:7px">1</text><text transform="translate(16.72 154.913)" style="font-family:'Asap-Regular';font-size:7px">100</text><text transform="translate(65.758 193)" style="font-family:'Asap-Regular';font-size:7px">2</text><text transform="translate(16.643 126.914)" style="font-family:'Asap-Regular';font-size:7px">200</text><text transform="translate(82.758 192.958)" style="font-family:'Asap-Regular';font-size:7px">3</text><text transform="translate(16.685 96.342)" style="font-family:'Asap-Regular';font-size:7px">300</text><text transform="translate(99.472 192.986)" style="font-family:'Asap-Regular';font-size:7px">4</text><text transform="translate(117.044 192.958)" style="font-family:'Asap-Regular';font-size:7px">5</text><text transform="translate(134.043 192.965)" style="font-family:'Asap-Regular';font-size:7px">6</text><text transform="translate(151.043 192.986)" style="font-family:'Asap-Regular';font-size:7px">7</text><text transform="translate(168.043 192.958)" style="font-family:'Asap-Regular';font-size:7px">8</text><text transform="translate(185.615 192.986)" style="font-family:'Asap-Regular';font-size:7px">9</text><text transform="translate(200.615 192.958)" style="font-family:'Asap-Regular';font-size:7px">10</text><text transform="translate(218.044 193)" style="font-family:'Asap-Regular';font-size:7px">11</text><text transform="translate(235.044 193)" style="font-family:'Asap-Regular';font-size:7px">12</text><text transform="translate(252.9 192.958)" style="font-family:'Asap-Regular';font-size:7px">13</text><text transform="translate(269.472 192.986)" style="font-family:'Asap-Regular';font-size:7px">14</text><text transform="translate(287.044 192.958)" style="font-family:'Asap-Regular';font-size:7px">15</text><text transform="translate(303.044 192.965)" style="font-family:'Asap-Regular';font-size:7px">16</text><text transform="translate(16.874 67.217)" style="font-family:'Asap-Regular';font-size:7px">400</text><text transform="translate(16.706 37.217)" style="font-family:'MyriadPro-Regular';font-size:7px">500</text><text transform="translate(17.643 8.217)" style="font-family:'Asap-Regular';font-size:7px">600</text><text transform="matrix(0 -.9726 1 0 8.53 110.034)" style="font-family:'Asap-Medium';font-size:8px">Income (€)</text><text transform="translate(127.079 205.263)" style="font-family:'Asap-Medium';font-size:8px">Hours of work per day</text><text transform="translate(94.444 144.142)" style="font-family:'Asap-Regular';font-size:7px">A</text><text transform="translate(196.628 89.449)" style="font-family:'Asap-Regular';font-size:7px">B</text><line style="fill:none;stroke:#6d6e71;stroke-width:.5;stroke-linecap:square" x1="30.83" y1="124.04" x2="32.96" y2="124.04"/><line style="fill:none;stroke:#6d6e71;stroke-width:.5;stroke-linecap:square" x1="289.86" y1="181.44" x2="289.86" y2="183.57"/><line style="fill:none;stroke:#6d6e71;stroke-width:.5;stroke-linecap:square" x1="307" y1="181.58" x2="307" y2="183.71"/><line style="fill:none;stroke:#6d6e71;stroke-width:.5;stroke-linecap:square" x1="32.96" y1="6" x2="32.96" y2="181.33"/><line style="fill:none;stroke:#6d6e71;stroke-width:.5;stroke-linecap:square" x1="30.83" y1="93.74" x2="32.96" y2="93.74"/><line style="fill:none;stroke:#6d6e71;stroke-width:.5;stroke-linecap:square" x1="30.83" y1="64.45" x2="32.96" y2="64.45"/><line style="fill:none;stroke:#6d6e71;stroke-width:.5;stroke-linecap:square" x1="30.83" y1="35.15" x2="32.96" y2="35.15"/><line style="fill:none;stroke:#6d6e71;stroke-width:.5;stroke-linecap:square" x1="30.83" y1="5.86" x2="32.96" y2="5.86"/><line style="fill:none;stroke:#6d6e71;stroke-width:.5;stroke-linecap:square" x1="30.83" y1="181.63" x2="32.96" y2="181.63"/><line style="fill:none;stroke:#6d6e71;stroke-width:.5;stroke-linecap:square" x1="32.8" y1="181.44" x2="32.8" y2="183.57"/><line style="fill:none;stroke:#6d6e71;stroke-width:.5;stroke-linecap:square" x1="30.4" y1="152.95" x2="32.53" y2="152.95"/><line style="fill:none;stroke:#3b54a4;stroke-width:.5;stroke-linecap:square" x1="33.5" y1="181.5" x2="306.5" y2="41.5"/><circle cx="205.21" cy="93.25" r="1.13"/><circle cx="102.21" cy="146.25" r="1.13"/></svg>