<svg version="1.1" xmlns="http://www.w3.org/2000/svg" x="0" y="0" viewBox="0 0 311.81 317.77" style="enable-background:new 0 0 311.81 317.77" xml:space="preserve"><switch><g><polyline style="fill:none;stroke:#3a53a4;stroke-miterlimit:10" points="274.93 129.48 274.93 176.76 196.19 176.76"/><polygon style="fill:#3a53a4" points="199.5 172.67 200.18 173.4 196.57 176.76 200.18 180.12 199.5 180.85 195.1 176.76"/><polyline style="fill:none;stroke:#3a53a4;stroke-miterlimit:10" points="36.88 129.48 36.88 176.76 115.62 176.76"/><polygon style="fill:#3a53a4" points="112.31 180.85 111.63 180.12 115.24 176.76 111.63 173.4 112.31 172.67 116.71 176.76"/><polyline style="fill:none;stroke:#b9519e;stroke-miterlimit:10" points="155.91 50.15 155.91 50.69 190.06 50.69 190.06 60.42"/><polygon style="fill:#b9519e" points="185.97 57.11 186.7 56.42 190.06 60.04 193.41 56.42 194.15 57.11 190.06 61.51"/><line style="fill:none;stroke:#71449b;stroke-miterlimit:10" x1="155.91" y1="34.93" x2="155.91" y2="50.15"/><rect x="99.75" y="3.41" style="fill:none;stroke:#71449b;stroke-miterlimit:10" width="68.3" height="31.52"/><text transform="translate(111.321 16.668)"><tspan x="0" y="0" style="fill:#71449b;font-family:'Asap-Regular';font-size:8.4684px">Expenditure</tspan><tspan x="-3.15" y="10.16" style="fill:#71449b;font-family:'Asap-Regular';font-size:8.4684px">on innovation</tspan></text><rect x="121.75" y="161" style="fill:none;stroke:#3a53a4;stroke-miterlimit:10" width="68.3" height="31.52"/><text transform="translate(141.171 174.258)"><tspan x="0" y="0" style="fill:#3a53a4;font-family:'Asap-Regular';font-size:8.4684px">Sets the</tspan><tspan x="5.3" y="10.16" style="fill:#3a53a4;font-family:'Asap-Regular';font-size:8.4684px">price</tspan></text><rect x="121.75" y="208.28" style="fill:none;stroke:#0a72ba;stroke-miterlimit:10" width="68.3" height="31.52"/><text transform="translate(140.294 221.537)"><tspan x="0" y="0" style="fill:#0a72ba;font-family:'Asap-Regular';font-size:8.4684px">Chooses</tspan><tspan x=".14" y="10.16" style="fill:#0a72ba;font-family:'Asap-Regular';font-size:8.4684px">quantity</tspan></text><rect x="93.57" y="113.73" style="fill:none;stroke:#b9519e;stroke-miterlimit:10" width="124.67" height="31.52"/><text transform="translate(109.983 126.982)"><tspan x="0" y="0" style="fill:#b9519e;font-family:'Asap-Regular';font-size:8.4684px">Expenditure to influence</tspan><tspan x="-11.17" y="10.16" style="fill:#b9519e;font-family:'Asap-Regular';font-size:8.4684px">taxes and other public policies</tspan></text><rect x="2.73" y="34.93" style="fill:none;stroke:#b9519e;stroke-miterlimit:10" width="68.3" height="31.52"/><text transform="translate(14.296 48.185)"><tspan x="0" y="0" style="fill:#b9519e;font-family:'Asap-Regular';font-size:8.4684px">Expenditure</tspan><tspan x="-3.9" y="10.16" style="fill:#b9519e;font-family:'Asap-Regular';font-size:8.4684px">on advertising</tspan></text><rect x="240.78" y="34.93" style="fill:none;stroke:#b9519e;stroke-miterlimit:10" width="68.3" height="31.52"/><text transform="translate(260.2 48.185)"><tspan x="0" y="0" style="fill:#b9519e;font-family:'Asap-Regular';font-size:8.4684px">Sets the</tspan><tspan x="4.67" y="10.16" style="fill:#b9519e;font-family:'Asap-Regular';font-size:8.4684px">wage</tspan></text><rect x="240.78" y="97.97" style="fill:none;stroke:#ed2124;stroke-miterlimit:10" width="68.3" height="31.52"/><text transform="translate(253.404 111.682)"><tspan x="0" y="0" style="fill:#ed2124;font-family:'Asap-Regular';font-size:8.4684px">Production </tspan><tspan x="12.12" y="10.16" style="fill:#ed2124;font-family:'Asap-Regular';font-size:8.4684px">costs</tspan></text><rect x="2.73" y="97.97" style="fill:none;stroke:#ed2124;stroke-miterlimit:10" width="68.3" height="31.52"/><text transform="translate(21.01 116.763)" style="fill:#ed2124;font-family:'Asap-Regular';font-size:8.4684px">Demand</text><text transform="translate(106.88 79.705)"><tspan x="0" y="0" style="fill:#b9519e;font-family:'Asap-Regular';font-size:8.4684px">What to</tspan><tspan x="-.6" y="10.16" style="fill:#b9519e;font-family:'Asap-Regular';font-size:8.4684px">produce</tspan></text><rect x="161.87" y="66.45" style="fill:none;stroke:#b9519e;stroke-miterlimit:10" width="56.37" height="31.52"/><rect x="93.57" y="66.45" style="fill:none;stroke:#b9519e;stroke-miterlimit:10" width="56.37" height="31.52"/><text transform="translate(176.508 79.705)"><tspan x="0" y="0" style="fill:#b9519e;font-family:'Asap-Regular';font-size:8.4684px">How to</tspan><tspan x="-1.92" y="10.16" style="fill:#b9519e;font-family:'Asap-Regular';font-size:8.4684px">produce</tspan></text><polyline style="fill:none;stroke:#b9519e;stroke-miterlimit:10" points="155.91 50.69 121.75 50.69 121.75 60.42"/><polygon style="fill:#b9519e" points="117.66 57.11 118.4 56.42 121.75 60.04 125.11 56.42 125.84 57.11 121.75 61.51"/><text transform="translate(191.833 16.668)"><tspan x="0" y="0" style="fill:#71449b;font-family:'Asap-Regular';font-size:8.4684px">Capital</tspan><tspan x="-7.2" y="10.16" style="fill:#71449b;font-family:'Asap-Regular';font-size:8.4684px">investment</tspan></text><rect x="121.75" y="258.32" style="fill:none;stroke:#0a72ba;stroke-miterlimit:10" width="68.3" height="27.36"/><rect x="178.14" y="3.41" style="fill:none;stroke:#71449b;stroke-miterlimit:10" width="56.37" height="31.52"/><line style="fill:none;stroke:#b9519e;stroke-miterlimit:10" x1="36.88" y1="66.45" x2="36.88" y2="92.09"/><polygon style="fill:#b9519e" points="32.79 88.78 33.52 88.1 36.88 91.71 40.24 88.1 40.97 88.78 36.88 93.18"/><line style="fill:none;stroke:#b9519e;stroke-miterlimit:10" x1="274.93" y1="66.45" x2="274.93" y2="92.09"/><polygon style="fill:#b9519e" points="270.84 88.78 271.58 88.1 274.93 91.71 278.29 88.1 279.02 88.78 274.93 93.18"/><polyline style="fill:none;stroke:#b9519e;stroke-miterlimit:10" points="218.24 82.21 255.97 82.21 255.97 92.09"/><polygon style="fill:#b9519e" points="251.88 88.78 252.61 88.1 255.97 91.71 259.33 88.1 260.06 88.78 255.97 93.18"/><polyline style="fill:none;stroke:#b9519e;stroke-miterlimit:10" points="93.57 82.21 55.84 82.21 55.84 92.09"/><polygon style="fill:#b9519e" points="51.75 88.78 52.48 88.1 55.84 91.71 59.2 88.1 59.93 88.78 55.84 93.18"/><g><line style="fill:none;stroke:#b9519e;stroke-miterlimit:10" x1="221.73" y1="121.92" x2="233.93" y2="121.92"/><polygon style="fill:#b9519e" points="230.62 126.01 229.94 125.28 233.55 121.92 229.94 118.56 230.62 117.83 235.02 121.92"/></g><g><line style="fill:none;stroke:#b9519e;stroke-miterlimit:10" x1="88.94" y1="121.92" x2="76.74" y2="121.92"/><polygon style="fill:#b9519e" points="80.06 117.83 80.74 118.56 77.13 121.92 80.74 125.28 80.06 126.01 75.66 121.92"/></g><g><line style="fill:none;stroke:#3a53a4;stroke-miterlimit:10" x1="155.91" y1="192.52" x2="155.91" y2="204.72"/><polygon style="fill:#3a53a4" points="151.82 201.41 152.55 200.73 155.9 204.34 159.26 200.73 159.99 201.41 155.9 205.81"/></g><g><line style="fill:none;stroke:#71449b;stroke-miterlimit:10" x1="205.15" y1="34.82" x2="205.15" y2="60.47"/><polygon style="fill:#71449b" points="201.06 57.15 201.79 56.47 205.15 60.08 208.5 56.47 209.24 57.15 205.15 61.55"/></g><g><line style="fill:none;stroke:#0a72ba;stroke-miterlimit:10" x1="156.29" y1="239.27" x2="156.29" y2="251.47"/><polygon style="fill:#0a72ba" points="152.2 248.15 152.94 247.47 156.29 251.08 159.65 247.47 160.38 248.15 156.29 252.55"/></g><text transform="translate(144.338 275.217)" style="fill:#0a72ba;font-family:'Asap-Regular';font-size:8.4684px">Hiring</text><g><line style="fill:none;stroke:#0a72ba;stroke-miterlimit:10" x1="156.05" y1="285.32" x2="156.05" y2="297.52"/><polygon style="fill:#0a72ba" points="151.96 294.21 152.69 293.53 156.04 297.14 159.4 293.53 160.13 294.21 156.04 298.61"/></g><text transform="translate(112.754 311.94)"><tspan x="0" y="0" style="font-family:'Asap-Regular';font-size:8.468px">P</tspan><tspan x="4.83" y="0" style="font-family:'Asap-Regular';font-size:8.468px">r</tspan><tspan x="7.76" y="0" style="font-family:'Asap-Regular';font-size:8.468px">oduction, Sa</tspan><tspan x="53.42" y="0" style="font-family:'Asap-Regular';font-size:8.468px">l</tspan><tspan x="55.65" y="0" style="font-family:'Asap-Regular';font-size:8.468px">es, P</tspan><tspan x="72.25" y="0" style="font-family:'Asap-Regular';font-size:8.468px">r</tspan><tspan x="75.18" y="0" style="font-family:'Asap-Regular';font-size:8.468px">ofit</tspan></text></g></switch></svg>