<svg version="1.1" xmlns="http://www.w3.org/2000/svg" xmlns:xlink="http://www.w3.org/1999/xlink" x="0" y="0" viewBox="0 0 311.81 209.43" style="enable-background:new 0 0 311.81 209.43" xml:space="preserve"><g style="display:none"><g style="display:inline"><defs><polygon id="prefix__a" points="29.59 975.21 311.72 975.21 311.72 768.33 29.59 768.33 29.59 975.21"/></defs><clipPath id="prefix__b"><use xlink:href="#prefix__a" style="overflow:visible"/></clipPath><polyline points="29.91 -705.72 38.88 -106.14 47.22 219.51 56.2 416.18 65.17 543.89 73.51 631.36 82.49 693.94 91.46 739.92 100.44 775.03 108.78 802.49 117.75 824.2 126.73 842.08 135.07 856.13 144.04 868.26 153.02 878.48 162 886.78 170.33 893.8 179.31 900.19 188.29 905.3 196.62 909.77 205.6 914.23 214.58 918.07 223.55 921.26 231.89 923.81 240.87 926.37 249.84 928.92 258.18 930.84 267.16 932.75 276.13 934.67 285.11 935.94 293.45 937.22 302.42 938.5 311.4 939.78"/><g><defs><polygon id="prefix__c" points="29.59 975.21 311.72 975.21 311.72 768.33 29.59 768.33 29.59 975.21"/></defs><clipPath id="prefix__d"><use xlink:href="#prefix__c" style="overflow:visible"/></clipPath><polyline points="29.91 -2221.6 38.88 -1076.07 47.22 -454.14 56.2 -78.68 65.17 165.23 73.51 331.89 82.49 451.3 91.46 539.42 100.44 607.1 108.78 659.46 117.75 700.96 126.73 734.17 135.07 761.63 144.04 784.61 153.02 803.13 162 819.73 170.33 833.14 179.31 845.27 188.29 855.49 196.62 864.43 205.6 872.09 214.58 879.12 223.55 884.86 231.89 890.61 240.87 895.72 249.84 900.19 258.18 904.02 267.16 907.21 276.13 911.04 285.11 913.6 293.45 916.15 302.42 918.7 311.4 921.26"/></g></g><g style="display:inline"><defs><polygon id="prefix__e" points="8.8 1250.75 338.8 1250.75 338.8 1007.63 8.8 1007.63 8.8 1250.75"/></defs><clipPath id="prefix__f"><use xlink:href="#prefix__e" style="overflow:visible"/></clipPath><polyline points="8.92 -724.21 19.24 -19.57 29.44 363.23 39.76 594.11 50.08 743.87 60.4 846.59 70.6 920.03 80.92 974.39 91.24 1015.79 101.56 1047.95 111.76 1073.39 122.08 1094.03 132.4 1110.95 142.6 1124.87 152.92 1136.51 163.24 1146.47 173.56 1154.99 183.76 1162.19 194.08 1168.55 204.4 1174.07 214.72 1178.87 224.92 1183.07 235.24 1186.91 245.56 1190.27 255.76 1193.27 266.08 1196.03 276.4 1198.43 286.72 1200.59 296.92 1202.63 307.24 1204.43 317.56 1206.11 327.88 1207.67 338.08 1209.11"/><g><defs><polygon id="prefix__g" points="8.8 1250.75 338.8 1250.75 338.8 1007.63 8.8 1007.63 8.8 1250.75"/></defs><clipPath id="prefix__h"><use xlink:href="#prefix__g" style="overflow:visible"/></clipPath><polyline points="8.92 -2504.53 19.24 -1158.97 29.44 -427.93 39.76 12.71 50.08 298.79 60.4 494.87 70.6 635.15 80.92 738.95 91.24 817.91 101.56 879.35 111.76 928.07 122.08 967.43 132.4 999.59 142.6 1026.35 152.92 1048.67 163.24 1067.51 173.56 1083.71 183.76 1097.63 194.08 1109.63 204.4 1120.19 214.72 1129.43 224.92 1137.59 235.24 1144.79 245.56 1151.15 255.76 1156.91 266.08 1162.07 276.4 1166.75 286.72 1170.95 296.92 1174.79 307.24 1178.27 317.56 1181.51 327.88 1184.39 338.08 1187.03"/></g></g><g style="display:inline"><defs><polygon id="prefix__i" points="8.8 1250.75 338.8 1250.75 338.8 1007.63 8.8 1007.63 8.8 1250.75"/></defs><clipPath id="prefix__j"><use xlink:href="#prefix__i" style="overflow:visible"/></clipPath><polyline points="8.92 -724.21 19.24 -19.57 29.44 363.23 39.76 594.11 50.08 743.87 60.4 846.59 70.6 920.03 80.92 974.39 91.24 1015.79 101.56 1047.95 111.76 1073.39 122.08 1094.03 132.4 1110.95 142.6 1124.87 152.92 1136.51 163.24 1146.47 173.56 1154.99 183.76 1162.19 194.08 1168.55 204.4 1174.07 214.72 1178.87 224.92 1183.07 235.24 1186.91 245.56 1190.27 255.76 1193.27 266.08 1196.03 276.4 1198.43 286.72 1200.59 296.92 1202.63 307.24 1204.43 317.56 1206.11 327.88 1207.67 338.08 1209.11"/><g><defs><polygon id="prefix__k" points="8.8 1250.75 338.8 1250.75 338.8 1007.63 8.8 1007.63 8.8 1250.75"/></defs><clipPath id="prefix__l"><use xlink:href="#prefix__k" style="overflow:visible"/></clipPath><polyline points="8.92 -2504.53 19.24 -1158.97 29.44 -427.93 39.76 12.71 50.08 298.79 60.4 494.87 70.6 635.15 80.92 738.95 91.24 817.91 101.56 879.35 111.76 928.07 122.08 967.43 132.4 999.59 142.6 1026.35 152.92 1048.67 163.24 1067.51 173.56 1083.71 183.76 1097.63 194.08 1109.63 204.4 1120.19 214.72 1129.43 224.92 1137.59 235.24 1144.79 245.56 1151.15 255.76 1156.91 266.08 1162.07 276.4 1166.75 286.72 1170.95 296.92 1174.79 307.24 1178.27 317.56 1181.51 327.88 1184.39 338.08 1187.03"/></g></g><g style="display:inline"><defs><polygon id="prefix__m" points="8.8 1250.75 338.8 1250.75 338.8 1007.63 8.8 1007.63 8.8 1250.75"/></defs><clipPath id="prefix__n"><use xlink:href="#prefix__m" style="overflow:visible"/></clipPath><polyline points="8.92 -724.21 19.24 -19.57 29.44 363.23 39.76 594.11 50.08 743.87 60.4 846.59 70.6 920.03 80.92 974.39 91.24 1015.79 101.56 1047.95 111.76 1073.39 122.08 1094.03 132.4 1110.95 142.6 1124.87 152.92 1136.51 163.24 1146.47 173.56 1154.99 183.76 1162.19 194.08 1168.55 204.4 1174.07 214.72 1178.87 224.92 1183.07 235.24 1186.91 245.56 1190.27 255.76 1193.27 266.08 1196.03 276.4 1198.43 286.72 1200.59 296.92 1202.63 307.24 1204.43 317.56 1206.11 327.88 1207.67 338.08 1209.11"/><g><defs><polygon id="prefix__o" points="8.8 1250.75 338.8 1250.75 338.8 1007.63 8.8 1007.63 8.8 1250.75"/></defs><clipPath id="prefix__p"><use xlink:href="#prefix__o" style="overflow:visible"/></clipPath><polyline points="8.92 -2504.53 19.24 -1158.97 29.44 -427.93 39.76 12.71 50.08 298.79 60.4 494.87 70.6 635.15 80.92 738.95 91.24 817.91 101.56 879.35 111.76 928.07 122.08 967.43 132.4 999.59 142.6 1026.35 152.92 1048.67 163.24 1067.51 173.56 1083.71 183.76 1097.63 194.08 1109.63 204.4 1120.19 214.72 1129.43 224.92 1137.59 235.24 1144.79 245.56 1151.15 255.76 1156.91 266.08 1162.07 276.4 1166.75 286.72 1170.95 296.92 1174.79 307.24 1178.27 317.56 1181.51 327.88 1184.39 338.08 1187.03"/></g></g></g><line style="fill:none;stroke:#6d6e71;stroke-width:.5;stroke-linecap:square" x1="45.5" y1="181.89" x2="293" y2="181.89"/><line style="fill:none;stroke:#6d6e71;stroke-width:.5;stroke-linecap:square;stroke-linejoin:round" x1="45.5" y1="181.89" x2="45.5" y2="4.39"/><text transform="translate(35.473 184.02)" style="font-family:'Asap-Regular';font-size:7px">0</text><text transform="translate(28.658 155.904)" style="font-family:'Asap-Regular';font-size:7px">100</text><text transform="translate(28.581 127.788)" style="font-family:'Asap-Regular';font-size:7px">200</text><text transform="translate(28.623 99.672)" style="font-family:'Asap-Regular';font-size:7px">300</text><text transform="translate(28.812 71.556)" style="font-family:'Asap-Regular';font-size:7px">400</text><text transform="translate(28.609 43.44)" style="font-family:'Asap-Regular';font-size:7px">500</text><text transform="translate(28.581 15.324)" style="font-family:'Asap-Regular';font-size:7px">600</text><text transform="matrix(0 -.9726 1 0 17.469 139.763)" style="font-family:'Asap-Medium';font-size:8px">Consumption spending (€)</text><text transform="translate(122.45 206.763)" style="font-family:'Asap-Medium';font-size:8px">Hours of free time per day</text><line style="fill:none;stroke:#6d6e71;stroke-width:.5;stroke-linecap:square;stroke-linejoin:round" x1="45.04" y1="41.02" x2="42.91" y2="41.02"/><line style="fill:none;stroke:#6d6e71;stroke-width:.5;stroke-linecap:square;stroke-linejoin:round" x1="45.04" y1="13.02" x2="42.91" y2="13.02"/><line style="fill:none;stroke:#6d6e71;stroke-width:.5;stroke-linecap:square;stroke-linejoin:round" x1="45.04" y1="68.59" x2="42.91" y2="68.59"/><line style="fill:none;stroke:#6d6e71;stroke-width:.5;stroke-linecap:square;stroke-linejoin:round" x1="45.04" y1="96.88" x2="42.91" y2="96.88"/><line style="fill:none;stroke:#6d6e71;stroke-width:.5;stroke-linecap:square;stroke-linejoin:round" x1="45.04" y1="125.3" x2="42.91" y2="125.3"/><line style="fill:none;stroke:#6d6e71;stroke-width:.5;stroke-linecap:square;stroke-linejoin:round" x1="45.04" y1="152.88" x2="42.91" y2="152.88"/><line style="fill:none;stroke:#6d6e71;stroke-width:.5;stroke-linecap:square;stroke-linejoin:round" x1="45.04" y1="181.89" x2="42.91" y2="181.89"/><path style="fill:none;stroke:#3b54a4;stroke-width:.5" d="M144 4.39C155.39 53.87 218.94 127 293 134.82"/><circle style="fill:#000101" cx="214.36" cy="102.23" r="1.13"/><circle style="fill:#000101" cx="181.96" cy="71.48" r="1.13"/><circle style="fill:#000101" cx="195.96" cy="86.48" r="1.13"/><text transform="translate(217.912 94.485)" style="font-family:'Asap-Regular';font-size:7px">H</text><text transform="translate(236.422 109.485)" style="font-family:'Asap-Regular';font-size:7px">D</text><text transform="translate(174.422 54.485)" style="font-family:'Asap-Regular';font-size:7px">E</text><text transform="translate(159.422 29.485)" style="font-family:'Asap-Regular';font-size:7px">A</text><text transform="translate(115.704 26.51)" style="font-family:'Asap-Regular';font-size:7px">B</text><text transform="translate(189.835 70.326)" style="font-family:'Asap-Regular';font-size:7px">F</text><text transform="translate(202.986 82.965)" style="font-family:'Asap-Regular';font-size:7px">G</text><circle style="fill:#000101" cx="168.96" cy="55.48" r="1.13"/><circle style="fill:#000101" cx="153.96" cy="30.48" r="1.13"/><circle style="fill:#000101" cx="231.14" cy="113.36" r="1.13"/><text transform="translate(56.212 192.913)" style="font-family:'Asap-Regular';font-size:7px">9</text><text transform="translate(68.203 192.914)" style="font-family:'Asap-Regular';font-size:7px">10</text><text transform="translate(83.938 192.913)" style="font-family:'Asap-Regular';font-size:7px">11</text><text transform="translate(99.673 192.914)" style="font-family:'Asap-Regular';font-size:7px">12</text><text transform="translate(115.408 192.913)" style="font-family:'Asap-Regular';font-size:7px">13</text><text transform="translate(131.143 192.914)" style="font-family:'Asap-Regular';font-size:7px">14</text><text transform="translate(146.878 192.913)" style="font-family:'Asap-Regular';font-size:7px">15</text><text transform="translate(162.613 192.913)" style="font-family:'Asap-Regular';font-size:7px">16</text><text transform="translate(178.348 192.914)" style="font-family:'Asap-Regular';font-size:7px">17</text><text transform="translate(194.083 192.914)" style="font-family:'Asap-Regular';font-size:7px">18</text><text transform="translate(209.818 192.914)" style="font-family:'Asap-Regular';font-size:7px">19</text><text transform="translate(225.553 192.914)" style="font-family:'Asap-Regular';font-size:7px">20</text><text transform="translate(241.288 192.913)" style="font-family:'Asap-Regular';font-size:7px">21</text><text transform="translate(257.024 192.913)" style="font-family:'Asap-Regular';font-size:7px">22</text><text transform="translate(272.758 192.913)" style="font-family:'Asap-Regular';font-size:7px">23</text><text transform="translate(288.493 192.913)" style="font-family:'Asap-Regular';font-size:7px">24</text><line style="fill:none;stroke:#6d6e71;stroke-width:.5;stroke-linecap:square" x1="293.21" y1="184.02" x2="293.21" y2="181.89"/><line style="fill:none;stroke:#6d6e71;stroke-width:.5;stroke-linecap:square" x1="277.73" y1="181.89" x2="277.73" y2="184.02"/><line style="fill:none;stroke:#6d6e71;stroke-width:.5;stroke-linecap:square" x1="262.25" y1="181.89" x2="262.25" y2="184.02"/><line style="fill:none;stroke:#6d6e71;stroke-width:.5;stroke-linecap:square" x1="246.77" y1="181.89" x2="246.77" y2="184.02"/><line style="fill:none;stroke:#6d6e71;stroke-width:.5;stroke-linecap:square" x1="231.29" y1="181.89" x2="231.29" y2="184.02"/><line style="fill:none;stroke:#6d6e71;stroke-width:.5;stroke-linecap:square" x1="215.8" y1="181.89" x2="215.8" y2="184.02"/><line style="fill:none;stroke:#6d6e71;stroke-width:.5;stroke-linecap:square" x1="200.32" y1="181.89" x2="200.32" y2="184.02"/><line style="fill:none;stroke:#6d6e71;stroke-width:.5;stroke-linecap:square" x1="184.84" y1="181.89" x2="184.84" y2="184.02"/><line style="fill:none;stroke:#6d6e71;stroke-width:.5;stroke-linecap:square" x1="169.36" y1="181.89" x2="169.36" y2="184.02"/><line style="fill:none;stroke:#6d6e71;stroke-width:.5;stroke-linecap:square" x1="153.88" y1="181.89" x2="153.88" y2="184.02"/><line style="fill:none;stroke:#6d6e71;stroke-width:.5;stroke-linecap:square" x1="138.39" y1="181.89" x2="138.39" y2="184.02"/><line style="fill:none;stroke:#6d6e71;stroke-width:.5;stroke-linecap:square" x1="122.91" y1="181.89" x2="122.91" y2="184.02"/><line style="fill:none;stroke:#6d6e71;stroke-width:.5;stroke-linecap:square" x1="107.43" y1="181.89" x2="107.43" y2="184.02"/><line style="fill:none;stroke:#6d6e71;stroke-width:.5;stroke-linecap:square" x1="91.95" y1="181.89" x2="91.95" y2="184.02"/><line style="fill:none;stroke:#6d6e71;stroke-width:.5;stroke-linecap:square" x1="76.46" y1="181.89" x2="76.46" y2="184.02"/><line style="fill:none;stroke:#6d6e71;stroke-width:.5;stroke-linecap:square" x1="60.98" y1="181.89" x2="60.98" y2="184.02"/><line style="fill:none;stroke:#6d6e71;stroke-width:.5;stroke-linecap:square" x1="45.5" y1="181.89" x2="45.5" y2="184.02"/><text transform="translate(44.222 192.913)" style="font-family:'Asap-Regular';font-size:7px">8</text><path style="fill:none;stroke:#3b54a4;stroke-width:.5" d="M106.72 4.18c18.91 83.75 76.76 141.37 186.23 144.21"/><circle style="fill:#000101" cx="113.96" cy="30.48" r="1.13"/><g><path style="fill:none;stroke:#3b54a4;stroke-width:.5" d="M71.5 3.89c.53 5.61 1.41 12.77 2.99 21 2.65 13.79 6.04 24.38 7.98 30 2.01 5.82 5.5 15.79 11.97 28 3.83 7.23 7.45 14.05 13.97 22 7.1 8.66 13.79 13.96 18.96 18 5.15 4.03 16.81 12.6 33.92 20 16.16 6.99 29.03 9.4 42.9 12 14.72 2.76 25.58 3.59 44.9 5 16.87 1.23 31.7 1.78 43.9 2"/><text transform="translate(235.194 166.435)" style="font-family:'Asap-Regular';font-size:7px">C</text><circle style="fill:#000101" cx="231.14" cy="158.36" r="1.13"/></g></svg>