<svg version="1.1" xmlns="http://www.w3.org/2000/svg" x="0" y="0" viewBox="0 0 311.81 228.58" style="enable-background:new 0 0 311.81 228.58" xml:space="preserve"><line style="fill:none;stroke:#6d6e71;stroke-width:.5;stroke-linecap:square" x1="41.76" y1="199.36" x2="41.76" y2="6.4"/><line style="fill:none;stroke:#6d6e71;stroke-width:.5;stroke-linecap:square" x1="41.76" y1="199.36" x2="296.82" y2="199.36"/><path style="fill:none;stroke:#ed1f24;stroke-width:.5;stroke-linejoin:round;stroke-dasharray:1.417" d="M41.76 23.96l2.32 1.93 2.32 1.93 2.32 1.93 2.32 1.93 2.32 1.93 2.32 1.93L58 37.47l2.32 1.93 2.32 1.93 2.32 1.93 2.32 1.93 2.32 1.93 2.32 1.93 2.32 1.93 2.32 1.93 2.32 1.93 2.32 1.93 2.32 1.93 2.32 1.93 2.32 1.93 2.32 1.93 2.32 1.93 2.32 1.93 2.32 1.93 2.32 1.93 2.32 1.93 2.32 1.93 2.32 1.93 2.32 1.93 2.32 1.93 2.32 1.93 2.32 1.93 2.32 1.93 2.32 1.93 2.32 1.93 2.32 1.93 2.32 1.93 2.32 1.93 2.32 1.93 2.32 1.93 2.32 1.93 2.32 1.93 2.32 1.93 2.32 1.93 2.32 1.93 2.32 1.93 2.32 1.93 2.32 1.93 2.32 1.93 2.32 1.93 2.32 1.93 2.32 1.93 2.32 1.93 2.32 1.93 2.32 1.93 2.32 1.93 2.32 1.93 2.32 1.93 2.32 1.93 2.32 1.93 2.32 1.93 2.32 1.93 2.32 1.93 2.32 1.93 2.32 1.93 2.32 1.93 2.32 1.93 2.32 1.93 2.32 1.93 2.32 1.93 2.32 1.93 2.32 1.93 2.32 1.93 2.32 1.93 2.32 1.93 2.32 1.93 2.32 1.93 2.32 1.93 2.32 1.93 2.32 1.93c.21.18 1.16.96 2.32 1.93 4.22 3.51 15.32 12.75 22.98 19.12"/><path style="fill:none;stroke:#3a53a4;stroke-width:.5;stroke-linecap:round;stroke-linejoin:round;stroke-miterlimit:10" d="M220.33 146.78c-3.28-.58-6.81-1.17-9.85-1.75-3.04-.58-5.76-1.17-8.39-1.75-2.63-.58-5.06-1.17-7.4-1.75-2.35-.58-4.54-1.17-6.67-1.75-2.13-.58-4.14-1.17-6.1-1.75s-3.82-1.17-5.63-1.75a267.575 267.575 0 01-10.15-3.5 255.156 255.156 0 01-8.99-3.5c-1.42-.58-2.8-1.17-4.14-1.75a224.958 224.958 0 01-14.7-7 222.806 222.806 0 01-6.43-3.5c-1.03-.58-2.04-1.17-3.02-1.75-.99-.58-1.96-1.17-2.91-1.75-.95-.58-1.88-1.17-2.8-1.75-.91-.58-2.02-1.32-2.69-1.75-.66-.43-.88-.59-1.31-.88-.43-.29-.65-.44-1.28-.88s-1.68-1.17-2.5-1.75c-.82-.58-1.62-1.17-2.41-1.75-.79-.58-1.56-1.17-2.32-1.75-.76-.58-1.51-1.17-2.24-1.75-.73-.58-1.45-1.17-2.16-1.75-.71-.58-1.4-1.17-2.08-1.75-.68-.58-1.35-1.17-2.01-1.75-.66-.58-1.3-1.17-1.94-1.75-.63-.58-1.41-1.32-1.87-1.75-.46-.43-.61-.59-.91-.88-.3-.29-.45-.44-.89-.88s-1.17-1.17-1.74-1.75a135.963 135.963 0 01-3.3-3.5 122.714 122.714 0 01-3.06-3.5c-.49-.58-.97-1.17-1.44-1.75-.47-.58-.93-1.17-1.39-1.75-.45-.58-.9-1.17-1.33-1.75-.44-.58-.86-1.17-1.28-1.75-.42-.58-.83-1.17-1.23-1.75-.4-.58-.79-1.17-1.18-1.75-.38-.58-.76-1.17-1.13-1.75-.37-.58-.73-1.17-1.08-1.75-.35-.58-.7-1.17-1.03-1.75-.34-.58-.67-1.17-.99-1.75-.32-.58-.63-1.17-.94-1.75-.31-.58-.6-1.17-.89-1.75-.29-.58-.57-1.17-.85-1.75-.28-.58-.54-1.17-.8-1.75-.26-.58-.51-1.17-.76-1.75-.25-.58-.48-1.17-.72-1.75-.23-.58-.46-1.17-.67-1.75-.22-.58-.43-1.17-.63-1.75-.2-.58-.4-1.17-.59-1.75-.19-.58-.37-1.17-.55-1.75-.17-.58-.34-1.17-.5-1.75-.16-.58-.32-1.17-.46-1.75-.15-.58-.29-1.17-.42-1.75-.13-.58-.26-1.17-.38-1.75-.12-.58-.23-1.17-.34-1.75-.11-.58-.21-1.17-.3-1.75-.09-.58-.18-1.17-.26-1.75-.08-.58-.15-1.17-.22-1.75-.07-.58-.13-1.17-.18-1.75-.05-.58-.1-1.17-.14-1.75-.04-.58-.07-1.17-.1-1.75-.03-.58-.05-1.17-.06-1.75-.01-.58-.01-1.17-.02-1.75"/><text transform="translate(178.486 133.601)" style="font-family:'Asap-Regular';font-size:6px">E</text><text transform="translate(70.707 42.363)" style="font-family:'Asap-Regular';font-size:6px">C</text><text transform="translate(32.075 201.508)" style="font-family:'Asap-Regular';font-size:7px">0</text><text transform="translate(28.351 183.966)"><tspan x="0" y="0" style="font-family:'Asap-Regular';font-size:7px">1</tspan><tspan x="3.72" y="0" style="font-family:'Asap-Regular';font-size:7px">0</tspan></text><text transform="translate(28.351 166.424)"><tspan x="0" y="0" style="font-family:'Asap-Regular';font-size:7px">2</tspan><tspan x="3.72" y="0" style="font-family:'Asap-Regular';font-size:7px">0</tspan></text><text transform="translate(28.351 148.882)"><tspan x="0" y="0" style="font-family:'Asap-Regular';font-size:7px">3</tspan><tspan x="3.72" y="0" style="font-family:'Asap-Regular';font-size:7px">0</tspan></text><text transform="translate(28.351 131.34)"><tspan x="0" y="0" style="font-family:'Asap-Regular';font-size:7px">4</tspan><tspan x="3.72" y="0" style="font-family:'Asap-Regular';font-size:7px">0</tspan></text><text transform="translate(28.351 113.799)"><tspan x="0" y="0" style="font-family:'Asap-Regular';font-size:7px">5</tspan><tspan x="3.72" y="0" style="font-family:'Asap-Regular';font-size:7px">0</tspan></text><text transform="translate(28.351 96.257)"><tspan x="0" y="0" style="font-family:'Asap-Regular';font-size:7px">6</tspan><tspan x="3.72" y="0" style="font-family:'Asap-Regular';font-size:7px">0</tspan></text><text transform="translate(28.351 78.715)"><tspan x="0" y="0" style="font-family:'Asap-Regular';font-size:7px">7</tspan><tspan x="3.72" y="0" style="font-family:'Asap-Regular';font-size:7px">0</tspan></text><text transform="translate(28.351 61.174)"><tspan x="0" y="0" style="font-family:'Asap-Regular';font-size:7px">8</tspan><tspan x="3.72" y="0" style="font-family:'Asap-Regular';font-size:7px">0</tspan></text><text transform="translate(28.351 43.632)"><tspan x="0" y="0" style="font-family:'Asap-Regular';font-size:7px">9</tspan><tspan x="3.72" y="0" style="font-family:'Asap-Regular';font-size:7px">0</tspan></text><text transform="translate(24.543 26.09)"><tspan x="0" y="0" style="font-family:'Asap-Regular';font-size:7px">1</tspan><tspan x="3.72" y="0" style="font-family:'Asap-Regular';font-size:7px">0</tspan><tspan x="7.53" y="0" style="font-family:'Asap-Regular';font-size:7px">0</tspan></text><text transform="translate(24.543 8.548)"><tspan x="0" y="0" style="font-family:'Asap-Regular';font-size:7px">1</tspan><tspan x="3.72" y="0" style="font-family:'Asap-Regular';font-size:7px">1</tspan><tspan x="7.53" y="0" style="font-family:'Asap-Regular';font-size:7px">0</tspan></text><text transform="translate(39.888 211.618)" style="font-family:'Asap-Regular';font-size:7px">0</text><text transform="translate(61.213 211.618)"><tspan x="0" y="0" style="font-family:'Asap-Regular';font-size:7px">1</tspan><tspan x="3.72" y="0" style="font-family:'Asap-Regular';font-size:7px">0</tspan></text><text transform="translate(84.4 211.618)"><tspan x="0" y="0" style="font-family:'Asap-Regular';font-size:7px">2</tspan><tspan x="3.72" y="0" style="font-family:'Asap-Regular';font-size:7px">0</tspan></text><text transform="translate(107.588 211.618)"><tspan x="0" y="0" style="font-family:'Asap-Regular';font-size:7px">3</tspan><tspan x="3.72" y="0" style="font-family:'Asap-Regular';font-size:7px">0</tspan></text><text transform="translate(130.776 211.618)"><tspan x="0" y="0" style="font-family:'Asap-Regular';font-size:7px">4</tspan><tspan x="3.72" y="0" style="font-family:'Asap-Regular';font-size:7px">0</tspan></text><text transform="translate(153.964 211.618)"><tspan x="0" y="0" style="font-family:'Asap-Regular';font-size:7px">5</tspan><tspan x="3.72" y="0" style="font-family:'Asap-Regular';font-size:7px">0</tspan></text><text transform="translate(177.151 211.618)"><tspan x="0" y="0" style="font-family:'Asap-Regular';font-size:7px">6</tspan><tspan x="3.72" y="0" style="font-family:'Asap-Regular';font-size:7px">0</tspan></text><text transform="translate(200.339 211.618)"><tspan x="0" y="0" style="font-family:'Asap-Regular';font-size:7px">7</tspan><tspan x="3.72" y="0" style="font-family:'Asap-Regular';font-size:7px">0</tspan></text><text transform="translate(223.527 211.618)"><tspan x="0" y="0" style="font-family:'Asap-Regular';font-size:7px">8</tspan><tspan x="3.72" y="0" style="font-family:'Asap-Regular';font-size:7px">0</tspan></text><text transform="translate(246.714 211.618)"><tspan x="0" y="0" style="font-family:'Asap-Regular';font-size:7px">9</tspan><tspan x="3.72" y="0" style="font-family:'Asap-Regular';font-size:7px">0</tspan></text><text transform="translate(267.998 211.618)"><tspan x="0" y="0" style="font-family:'Asap-Regular';font-size:7px">1</tspan><tspan x="3.72" y="0" style="font-family:'Asap-Regular';font-size:7px">0</tspan><tspan x="7.53" y="0" style="font-family:'Asap-Regular';font-size:7px">0</tspan></text><text transform="translate(291.186 211.618)"><tspan x="0" y="0" style="font-family:'Asap-Regular';font-size:7px">1</tspan><tspan x="3.72" y="0" style="font-family:'Asap-Regular';font-size:7px">1</tspan><tspan x="7.53" y="0" style="font-family:'Asap-Regular';font-size:7px">0</tspan></text><text transform="rotate(-90 78.468 62.665)"><tspan x="0" y="0" style="font-family:'Asap-Medium';font-size:8px">C</tspan><tspan x="4.92" y="0" style="font-family:'Asap-Medium';font-size:8px">o</tspan><tspan x="9.47" y="0" style="font-family:'Asap-Medium';font-size:8px">n</tspan><tspan x="13.9" y="0" style="font-family:'Asap-Medium';font-size:8px">s</tspan><tspan x="17.22" y="0" style="font-family:'Asap-Medium';font-size:8px">u</tspan><tspan x="21.66" y="0" style="font-family:'Asap-Medium';font-size:8px">m</tspan><tspan x="28.46" y="0" style="font-family:'Asap-Medium';font-size:8px">pt</tspan><tspan x="35.78" y="0" style="font-family:'Asap-Medium';font-size:8px">i</tspan><tspan x="37.86" y="0" style="font-family:'Asap-Medium';font-size:8px">o</tspan><tspan x="42.42" y="0" style="font-family:'Asap-Medium';font-size:8px">n</tspan><tspan x="46.84" y="0" style="font-family:'Asap-Medium';font-size:8px"> </tspan><tspan x="49.08" y="0" style="font-family:'Asap-Medium';font-size:8px">l</tspan><tspan x="51.45" y="0" style="font-family:'Asap-Medium';font-size:8px">a</tspan><tspan x="55.82" y="0" style="font-family:'Asap-Medium';font-size:8px">t</tspan><tspan x="58.56" y="0" style="font-family:'Asap-Medium';font-size:8px">e</tspan><tspan x="62.85" y="0" style="font-family:'Asap-Medium';font-size:8px">r</tspan><tspan x="65.8" y="0" style="font-family:'Asap-Medium';font-size:8px"> </tspan><tspan x="67.75" y="0" style="font-family:'Asap-Medium';font-size:8px">(</tspan><tspan x="70.15" y="0" style="font-family:'Asap-Medium';font-size:8px">$</tspan><tspan x="74.09" y="0" style="font-family:'Asap-Medium';font-size:8px">)</tspan></text><text transform="translate(131.909 224.238)"><tspan x="0" y="0" style="font-family:'Asap-Medium';font-size:8px">C</tspan><tspan x="4.92" y="0" style="font-family:'Asap-Medium';font-size:8px">o</tspan><tspan x="9.47" y="0" style="font-family:'Asap-Medium';font-size:8px">n</tspan><tspan x="13.9" y="0" style="font-family:'Asap-Medium';font-size:8px">s</tspan><tspan x="17.22" y="0" style="font-family:'Asap-Medium';font-size:8px">u</tspan><tspan x="21.66" y="0" style="font-family:'Asap-Medium';font-size:8px">m</tspan><tspan x="28.46" y="0" style="font-family:'Asap-Medium';font-size:8px">pt</tspan><tspan x="35.78" y="0" style="font-family:'Asap-Medium';font-size:8px">i</tspan><tspan x="37.86" y="0" style="font-family:'Asap-Medium';font-size:8px">o</tspan><tspan x="42.42" y="0" style="font-family:'Asap-Medium';font-size:8px">n</tspan><tspan x="46.84" y="0" style="font-family:'Asap-Medium';font-size:8px"> </tspan><tspan x="49.08" y="0" style="font-family:'Asap-Medium';font-size:8px">n</tspan><tspan x="53.5" y="0" style="font-family:'Asap-Medium';font-size:8px">o</tspan><tspan x="58.06" y="0" style="font-family:'Asap-Medium';font-size:8px">w </tspan><tspan x="66.02" y="0" style="font-family:'Asap-Medium';font-size:8px">(</tspan><tspan x="68.42" y="0" style="font-family:'Asap-Medium';font-size:8px">$</tspan><tspan x="72.36" y="0" style="font-family:'Asap-Medium';font-size:8px">)</tspan></text><text transform="translate(224.272 150.504)"><tspan x="0" y="0" style="font-family:'Asap-Regular';font-size:6px">J</tspan><tspan x="2.4" y="0" style="font-family:'Asap-Regular';font-size:6px">u</tspan><tspan x="5.71" y="0" style="font-family:'Asap-Regular';font-size:6px">l</tspan><tspan x="7.48" y="0" style="font-family:'Asap-Regular';font-size:6px">i</tspan><tspan x="9.03" y="0" style="font-family:'Asap-Regular';font-size:6px">a</tspan><tspan x="12.32" y="0" style="font-family:'Asap-Regular';font-size:6px">’</tspan><tspan x="13.61" y="0" style="font-family:'Asap-Regular';font-size:6px">s</tspan><tspan x="16.08" y="0" style="font-family:'Asap-Regular';font-size:6px"> </tspan><tspan x="17.49" y="0" style="font-family:'Asap-Regular';font-size:6px">i</tspan><tspan x="19.04" y="0" style="font-family:'Asap-Regular';font-size:6px">n</tspan><tspan x="22.41" y="0" style="font-family:'Asap-Regular';font-size:6px">d</tspan><tspan x="25.79" y="0" style="font-family:'Asap-Regular';font-size:6px">i</tspan><tspan x="27.34" y="0" style="font-family:'Asap-Regular';font-size:6px">ff</tspan><tspan x="31.28" y="0" style="font-family:'Asap-Regular';font-size:6px">ere</tspan><tspan x="39.89" y="0" style="font-family:'Asap-Regular';font-size:6px">nc</tspan><tspan x="46.2" y="0" style="font-family:'Asap-Regular';font-size:6px">e</tspan><tspan x="49.42" y="0" style="font-family:'Asap-Regular';font-size:6px"> </tspan><tspan x="50.74" y="0" style="font-family:'Asap-Regular';font-size:6px">c</tspan><tspan x="53.69" y="0" style="font-family:'Asap-Regular';font-size:6px">u</tspan><tspan x="56.99" y="0" style="font-family:'Asap-Regular';font-size:6px">r</tspan><tspan x="59.17" y="0" style="font-family:'Asap-Regular';font-size:6px">v</tspan><tspan x="62.06" y="0" style="font-family:'Asap-Regular';font-size:6px">e</tspan></text><line style="fill:none;stroke:#bcbec0;stroke-width:.5;stroke-miterlimit:8" x1="60.84" y1="13.18" x2="76.24" y2="82.47"/><line style="fill:none;stroke:#bcbec0;stroke-width:.5;stroke-miterlimit:8" x1="139.28" y1="125.55" x2="214.11" y2="148.27"/><text transform="translate(245.845 188.056)"><tspan x="0" y="0" style="fill:#ed1f24;font-family:'Asap-Regular';font-size:6px">F</tspan><tspan x="3" y="0" style="fill:#ed1f24;font-family:'Asap-Regular';font-size:6px">e</tspan><tspan x="6.25" y="0" style="fill:#ed1f24;font-family:'Asap-Regular';font-size:6px">a</tspan><tspan x="9.55" y="0" style="fill:#ed1f24;font-family:'Asap-Regular';font-size:6px">s</tspan><tspan x="12.02" y="0" style="fill:#ed1f24;font-family:'Asap-Regular';font-size:6px">i</tspan><tspan x="13.63" y="0" style="fill:#ed1f24;font-family:'Asap-Regular';font-size:6px">b</tspan><tspan x="17.04" y="0" style="fill:#ed1f24;font-family:'Asap-Regular';font-size:6px">l</tspan><tspan x="18.8" y="0" style="fill:#ed1f24;font-family:'Asap-Regular';font-size:6px">e</tspan><tspan x="22.04" y="0" style="fill:#ed1f24;font-family:'Asap-Regular';font-size:6px"> </tspan><tspan x="23.48" y="0" style="fill:#ed1f24;font-family:'Asap-Regular';font-size:6px">f</tspan><tspan x="25.46" y="0" style="fill:#ed1f24;font-family:'Asap-Regular';font-size:6px">r</tspan><tspan x="27.67" y="0" style="fill:#ed1f24;font-family:'Asap-Regular';font-size:6px">o</tspan><tspan x="31.12" y="0" style="fill:#ed1f24;font-family:'Asap-Regular';font-size:6px">n</tspan><tspan x="34.46" y="0" style="fill:#ed1f24;font-family:'Asap-Regular';font-size:6px">ti</tspan><tspan x="38.15" y="0" style="fill:#ed1f24;font-family:'Asap-Regular';font-size:6px">e</tspan><tspan x="41.39" y="0" style="fill:#ed1f24;font-family:'Asap-Regular';font-size:6px">r</tspan></text><line style="fill:none;stroke:#6d6e71;stroke-width:.5;stroke-linecap:square" x1="41.76" y1="199.36" x2="41.76" y2="201.49"/><line style="fill:none;stroke:#6d6e71;stroke-width:.5;stroke-linecap:square" x1="64.95" y1="199.36" x2="64.95" y2="201.49"/><line style="fill:none;stroke:#6d6e71;stroke-width:.5;stroke-linecap:square" x1="88.14" y1="199.36" x2="88.14" y2="201.49"/><line style="fill:none;stroke:#6d6e71;stroke-width:.5;stroke-linecap:square" x1="111.32" y1="199.36" x2="111.32" y2="201.49"/><line style="fill:none;stroke:#6d6e71;stroke-width:.5;stroke-linecap:square" x1="134.51" y1="199.36" x2="134.51" y2="201.49"/><line style="fill:none;stroke:#6d6e71;stroke-width:.5;stroke-linecap:square" x1="157.7" y1="199.36" x2="157.7" y2="201.49"/><line style="fill:none;stroke:#6d6e71;stroke-width:.5;stroke-linecap:square" x1="180.89" y1="199.36" x2="180.89" y2="201.49"/><line style="fill:none;stroke:#6d6e71;stroke-width:.5;stroke-linecap:square" x1="204.07" y1="199.36" x2="204.07" y2="201.49"/><line style="fill:none;stroke:#6d6e71;stroke-width:.5;stroke-linecap:square" x1="227.26" y1="199.36" x2="227.26" y2="201.49"/><line style="fill:none;stroke:#6d6e71;stroke-width:.5;stroke-linecap:square" x1="250.45" y1="199.36" x2="250.45" y2="201.49"/><line style="fill:none;stroke:#6d6e71;stroke-width:.5;stroke-linecap:square" x1="273.64" y1="199.36" x2="273.64" y2="201.49"/><line style="fill:none;stroke:#6d6e71;stroke-width:.5;stroke-linecap:square" x1="296.82" y1="199.36" x2="296.82" y2="201.49"/><line style="fill:none;stroke:#6d6e71;stroke-width:.5;stroke-linecap:square" x1="39.63" y1="199.36" x2="41.76" y2="199.36"/><line style="fill:none;stroke:#6d6e71;stroke-width:.5;stroke-linecap:square" x1="39.63" y1="181.82" x2="41.76" y2="181.82"/><line style="fill:none;stroke:#6d6e71;stroke-width:.5;stroke-linecap:square" x1="39.63" y1="164.28" x2="41.76" y2="164.28"/><line style="fill:none;stroke:#6d6e71;stroke-width:.5;stroke-linecap:square" x1="39.63" y1="146.74" x2="41.76" y2="146.74"/><line style="fill:none;stroke:#6d6e71;stroke-width:.5;stroke-linecap:square" x1="39.63" y1="129.2" x2="41.76" y2="129.2"/><line style="fill:none;stroke:#6d6e71;stroke-width:.5;stroke-linecap:square" x1="39.63" y1="111.65" x2="41.76" y2="111.65"/><line style="fill:none;stroke:#6d6e71;stroke-width:.5;stroke-linecap:square" x1="39.63" y1="94.11" x2="41.76" y2="94.11"/><line style="fill:none;stroke:#6d6e71;stroke-width:.5;stroke-linecap:square" x1="39.63" y1="76.57" x2="41.76" y2="76.57"/><line style="fill:none;stroke:#6d6e71;stroke-width:.5;stroke-linecap:square" x1="39.63" y1="59.03" x2="41.76" y2="59.03"/><line style="fill:none;stroke:#6d6e71;stroke-width:.5;stroke-linecap:square" x1="39.63" y1="41.49" x2="41.76" y2="41.49"/><line style="fill:none;stroke:#6d6e71;stroke-width:.5;stroke-linecap:square" x1="39.63" y1="23.94" x2="41.76" y2="23.94"/><line style="fill:none;stroke:#6d6e71;stroke-width:.5;stroke-linecap:square" x1="39.63" y1="6.4" x2="41.76" y2="6.4"/><path style="fill:none;stroke:#ed1f24;stroke-width:.5;stroke-linejoin:round" d="M69.59 47.12l2.32 1.93 2.32 1.93 2.32 1.93 2.32 1.93 2.32 1.93 2.32 1.93 2.32 1.93 2.32 1.93 2.32 1.93 2.32 1.93 2.32 1.93 2.32 1.93 2.32 1.93 2.32 1.93 2.32 1.93 2.32 1.93 2.32 1.93 2.32 1.93 2.32 1.93 2.32 1.93 2.32 1.93 2.32 1.93c.02.02 2.3 1.91 2.32 1.93.06.05 52.04 43.3 53.34 44.38"/><path d="M69.92 46.12a1.129 1.129 0 11-2.26 0c0-.63.51-1.13 1.13-1.13s1.13.5 1.13 1.13zM177.27 136.12a1.129 1.129 0 11-2.258.002 1.129 1.129 0 012.258-.002z"/></svg>