<svg version="1.1" xmlns="http://www.w3.org/2000/svg" x="0" y="0" viewBox="0 0 311.81 205.92" style="enable-background:new 0 0 311.81 205.92" xml:space="preserve"><line style="fill:none;stroke:#6d6e71;stroke-width:.5;stroke-linecap:square;stroke-linejoin:round" x1="27" y1="177.71" x2="24.88" y2="177.71"/><text transform="translate(17.184 180.083)" style="font-family:'Asap-Regular';font-size:7px">0</text><text transform="rotate(-90 58.733 51.659)"><tspan x="0" y="0" style="font-family:'Asap-Medium';font-size:8px">Wage, </tspan><tspan x="23.82" y="0" style="font-family:'Asap-MediumItalic';font-size:8px">w</tspan></text><text transform="translate(25.116 188.591)" style="font-family:'Asap-Regular';font-size:7px">0</text><line style="fill:none;stroke:#6d6e71;stroke-width:.5;stroke-linecap:square" x1="27" y1="177.83" x2="27" y2="179.96"/><text transform="translate(114.42 203.3)"><tspan x="0" y="0" style="font-family:'Asap-Medium';font-size:8px">Employment, </tspan><tspan x="48.3" y="0" style="font-family:'Asap-Italic';font-size:8px">N</tspan></text><polyline style="fill:none;stroke:#939598;stroke-width:.5;stroke-linecap:square;stroke-linejoin:round;stroke-dasharray:1.417" points="27.37 66.03 125.74 66.03 125.74 177.38"/><line style="fill:none;stroke:#f15a27;stroke-width:.5;stroke-linecap:square;stroke-linejoin:round;stroke-dasharray:1.417" x1="27" y1="100.4" x2="254.85" y2="21.67"/><text transform="translate(14.638 75.058)" style="font-family:'Asap-Italic';font-size:7px">w</text><text transform="matrix(.583 0 0 .583 19.867 77.39)" style="font-family:'Asap-Regular';font-size:7px">1</text><text transform="translate(17.248 31.406)" style="font-family:'Asap-Regular';font-size:7px">y</text><text transform="translate(152.35 188.591)" style="font-family:'Asap-Regular';font-size:7px">N</text><text transform="matrix(.583 0 0 .583 157.384 190.923)" style="font-family:'Asap-Regular';font-size:7px">1</text><text transform="translate(122.543 188.647)" style="font-family:'Asap-Regular';font-size:7px">N</text><text transform="matrix(.583 0 0 .583 127.577 190.978)" style="font-family:'Asap-Regular';font-size:7px">2</text><polyline style="fill:none;stroke:#939598;stroke-width:.5;stroke-linecap:square;stroke-linejoin:round;stroke-dasharray:1.417" points="27.37 73.24 155.97 73.24 155.97 177.83"/><line style="fill:none;stroke:#a1b0da;stroke-width:.5004;stroke-miterlimit:10" x1="27" y1="30.8" x2="254.85" y2="30.8"/><line style="fill:none;stroke:#f15a27;stroke-width:.5;stroke-linecap:square;stroke-linejoin:round" x1="27.37" y1="117.84" x2="254.34" y2="39.33"/><line style="fill:none;stroke:#f15a27;stroke-width:.5;stroke-linecap:square;stroke-linejoin:round" x1="259.37" y1="24.27" x2="259.37" y2="37.37"/><polygon style="fill:#f15a27" points="257.33 25.93 257.69 26.27 259.37 24.47 261.05 26.27 261.42 25.93 259.37 23.73"/><text transform="translate(14.638 68.056)" style="font-family:'Asap-Italic';font-size:7px">w</text><text transform="matrix(.583 0 0 .583 19.867 70.387)" style="font-family:'Asap-Regular';font-size:7px">2</text><text transform="translate(159.806 79.916)" style="font-family:'Asap-Bold';font-size:6px">E</text><text transform="translate(117.55 63.113)" style="font-family:'Asap-Bold';font-size:6px">F</text><text transform="translate(263.435 24.427)"><tspan x="0" y="0" style="font-family:'Asap-Regular';font-size:6px">Effort cost, </tspan><tspan x="29.76" y="0" style="font-family:'Asap-Italic';font-size:6px">c</tspan><tspan x="32.67" y="0" style="font-family:'Asap-Regular';font-size:6px">, rises</tspan><tspan x="0" y="7.2" style="font-family:'Asap-Regular';font-size:6px">No-shirking wage</tspan><tspan x="0" y="14.4" style="font-family:'Asap-Regular';font-size:6px">shifts up</tspan></text><path style="fill:none;stroke:#a1b0da;stroke-width:.5;stroke-linecap:square;stroke-linejoin:round" d="M36.85 177.71c1.2-17.02 2.8-31.23 4.15-41.67 4.6-35.61 8.49-44.53 11.85-50.67 2.62-4.78 9.07-16.26 21.93-25.48C87 51.12 99.92 48.31 109.15 46.85c27.01-4.28 78.59-8.15 144.89-9.19"/><path style="fill:none;stroke:#3a53a4;stroke-width:.5;stroke-linecap:square;stroke-linejoin:round" d="M51.67 177.71c1.14-9.23 3.3-21.95 7.7-36.64 4.22-14.08 7.75-25.64 15.11-37.04 14.6-22.59 37.03-32.03 51.26-38.01 5.72-2.41 17.82-7.08 62.22-12.95 16.82-2.22 39.4-4.77 66.37-6.52"/><path style="fill:none;stroke:#3a53a4;stroke-width:.5;stroke-linecap:square;stroke-linejoin:round" d="M66.19 177.71c3.74-25.42 13.57-42.95 19.85-52.34 22.9-34.22 56.67-47 69.59-51.68 12.49-4.53 24.14-6.55 47.44-10.54a556.12 556.12 0 0151.61-6.39"/><path style="fill:none;stroke:#a1b0da;stroke-width:.5;stroke-linecap:square;stroke-linejoin:round" d="M84.85 177.71c6.51-17.7 18.51-41.07 40.89-60.93 21.09-18.73 42.35-26.3 62.52-33.48a260.845 260.845 0 0166.07-14.22"/><path style="fill:none;stroke:#a1b0da;stroke-width:.5;stroke-linecap:square;stroke-linejoin:round" d="M109.74 177.71c18.47-31.67 40.02-48.76 53.04-57.38 16.61-10.99 33.59-17.61 47.7-23.11a351.308 351.308 0 0144.15-13.93M137 177.71c10.2-13.08 27.2-31.75 52.74-48.19a213.086 213.086 0 0164.89-27.85M159.52 177.71a256.177 256.177 0 0142.37-34.56 256.621 256.621 0 0153.04-26.37"/><circle cx="125.43" cy="66.03" r="1.13"/><circle cx="155.63" cy="73.69" r="1.13"/><line style="fill:none;stroke:#000;stroke-width:.5;stroke-miterlimit:10" x1="187.72" y1="95.47" x2="244.42" y2="146.67"/><polygon points="241.82 147.08 241.81 146.58 244.28 146.55 244.06 144.09 244.56 144.05 244.82 147.04"/><rect x="199.11" y="114.83" transform="rotate(40.852 225.17 118.744)" style="fill:#fff" width="52.15" height="7.88"/><text transform="rotate(42.819 -29.214 315.976)" style="font-family:'Asap-Regular';font-size:6px">Increasing profit</text><line style="fill:none;stroke:#6d6e71;stroke-width:.5;stroke-linecap:square" x1="155.97" y1="177.71" x2="155.97" y2="179.84"/><line style="fill:none;stroke:#6d6e71;stroke-width:.5;stroke-linecap:square" x1="125.74" y1="177.71" x2="125.74" y2="179.84"/><line style="fill:none;stroke:#6d6e71;stroke-width:.5;stroke-linecap:square;stroke-linejoin:round" x1="27" y1="66.03" x2="24.88" y2="66.03"/><line style="fill:none;stroke:#6d6e71;stroke-width:.5;stroke-linecap:square;stroke-linejoin:round" x1="27" y1="73.24" x2="24.88" y2="73.24"/><line style="fill:none;stroke:#6d6e71;stroke-width:.5;stroke-linecap:square;stroke-linejoin:round" x1="27" y1="11.12" x2="27" y2="177.38"/><line style="fill:none;stroke:#a1b0da;stroke-width:.5;stroke-miterlimit:10" x1="27" y1="30.55" x2="27" y2="177.83"/><line style="fill:none;stroke:#6d6e71;stroke-width:.5013;stroke-linecap:square" x1="26.19" y1="177.71" x2="254.85" y2="177.71"/><line style="fill:none;stroke:#6d6e71;stroke-width:.5;stroke-linecap:square;stroke-linejoin:round" x1="27" y1="30.8" x2="24.88" y2="30.8"/></svg>