<svg version="1.1" xmlns="http://www.w3.org/2000/svg" x="0" y="0" viewBox="0 0 311.81 215.43" style="enable-background:new 0 0 311.81 215.43" xml:space="preserve"><line style="fill:none;stroke:#6d6e71;stroke-width:.5;stroke-linecap:square" x1="36" y1="190.61" x2="285.94" y2="190.61"/><line style="fill:none;stroke:#6d6e71;stroke-width:.5;stroke-linecap:square;stroke-linejoin:round" x1="38.04" y1="50.02" x2="35.91" y2="50.02"/><line style="fill:none;stroke:#6d6e71;stroke-width:.5;stroke-linecap:square;stroke-linejoin:round" x1="38.04" y1="22.02" x2="35.91" y2="22.02"/><line style="fill:none;stroke:#6d6e71;stroke-width:.5;stroke-linecap:square;stroke-linejoin:round" x1="38.04" y1="77.59" x2="35.91" y2="77.59"/><line style="fill:none;stroke:#6d6e71;stroke-width:.5;stroke-linecap:square;stroke-linejoin:round" x1="38.04" y1="105.88" x2="35.91" y2="105.88"/><line style="fill:none;stroke:#6d6e71;stroke-width:.5;stroke-linecap:square;stroke-linejoin:round" x1="38.04" y1="134.3" x2="35.91" y2="134.3"/><line style="fill:none;stroke:#6d6e71;stroke-width:.5;stroke-linecap:square;stroke-linejoin:round" x1="38.04" y1="161.88" x2="35.91" y2="161.88"/><text transform="translate(27.473 192.02)" style="font-family:'Asap-Regular';font-size:7px">0</text><text transform="translate(20.658 164.02)" style="font-family:'Asap-Regular';font-size:7px">100</text><text transform="translate(20.581 136.02)" style="font-family:'Asap-Regular';font-size:7px">200</text><text transform="translate(20.623 108.45)" style="font-family:'Asap-Regular';font-size:7px">300</text><text transform="translate(20.812 80.325)" style="font-family:'Asap-Regular';font-size:7px">400</text><text transform="translate(20.609 52.324)" style="font-family:'Asap-Regular';font-size:7px">500</text><text transform="translate(20.581 24.324)" style="font-family:'Asap-Regular';font-size:7px">600</text><text transform="matrix(0 -.9726 1 0 12.469 148.84)" style="font-family:'Asap-Medium';font-size:8px">Consumption spending (€)</text><text transform="translate(36.222 199.943)" style="font-family:'Asap-Regular';font-size:7px">8</text><text transform="translate(52.222 199.935)" style="font-family:'Asap-Regular';font-size:7px">9</text><text transform="translate(65.222 199.942)" style="font-family:'Asap-Regular';font-size:7px">10</text><text transform="translate(81.35 199.914)" style="font-family:'Asap-Regular';font-size:7px">11</text><text transform="translate(96.35 199.942)" style="font-family:'Asap-Regular';font-size:7px">12</text><text transform="translate(112.35 199.943)" style="font-family:'Asap-Regular';font-size:7px">13</text><text transform="translate(128.35 199.914)" style="font-family:'Asap-Regular';font-size:7px">14</text><text transform="translate(143.493 199.914)" style="font-family:'Asap-Regular';font-size:7px">15</text><text transform="translate(159.493 199.914)" style="font-family:'Asap-Regular';font-size:7px">16</text><text transform="translate(174.493 199.915)" style="font-family:'Asap-Regular';font-size:7px">17</text><text transform="translate(189.064 199.942)" style="font-family:'Asap-Regular';font-size:7px">18</text><text transform="translate(205.064 199.935)" style="font-family:'Asap-Regular';font-size:7px">19</text><text transform="translate(220.064 199.942)" style="font-family:'Asap-Regular';font-size:7px">20</text><text transform="translate(234.493 199.943)" style="font-family:'Asap-Regular';font-size:7px">21</text><text transform="translate(251.493 199.943)" style="font-family:'Asap-Regular';font-size:7px">22</text><text transform="translate(267.493 199.943)" style="font-family:'Asap-Regular';font-size:7px">23</text><text transform="translate(282.493 199.943)" style="font-family:'Asap-Regular';font-size:7px">24</text><line style="fill:none;stroke:#6d6e71;stroke-width:.5;stroke-linecap:square" x1="286.21" y1="190.9" x2="286.21" y2="193.03"/><line style="fill:none;stroke:#6d6e71;stroke-width:.5;stroke-linecap:square" x1="270.21" y1="190.9" x2="270.21" y2="193.03"/><line style="fill:none;stroke:#6d6e71;stroke-width:.5;stroke-linecap:square" x1="254.61" y1="190.85" x2="254.61" y2="192.97"/><line style="fill:none;stroke:#6d6e71;stroke-width:.5;stroke-linecap:square" x1="239.61" y1="190.85" x2="239.61" y2="192.97"/><line style="fill:none;stroke:#6d6e71;stroke-width:.5;stroke-linecap:square" x1="224.61" y1="190.85" x2="224.61" y2="192.97"/><line style="fill:none;stroke:#6d6e71;stroke-width:.5;stroke-linecap:square" x1="208.61" y1="190.85" x2="208.61" y2="192.97"/><line style="fill:none;stroke:#6d6e71;stroke-width:.5;stroke-linecap:square" x1="193.46" y1="190.85" x2="193.46" y2="192.97"/><line style="fill:none;stroke:#6d6e71;stroke-width:.5;stroke-linecap:square" x1="177.46" y1="190.85" x2="177.46" y2="192.97"/><line style="fill:none;stroke:#6d6e71;stroke-width:.5;stroke-linecap:square" x1="162.27" y1="190.85" x2="162.27" y2="192.97"/><line style="fill:none;stroke:#6d6e71;stroke-width:.5;stroke-linecap:square" x1="146" y1="190.7" x2="146" y2="192.83"/><line style="fill:none;stroke:#6d6e71;stroke-width:.5;stroke-linecap:square" x1="131.04" y1="190.7" x2="131.04" y2="192.83"/><line style="fill:none;stroke:#6d6e71;stroke-width:.5;stroke-linecap:square" x1="116.04" y1="190.7" x2="116.04" y2="192.83"/><line style="fill:none;stroke:#6d6e71;stroke-width:.5;stroke-linecap:square" x1="100.46" y1="190.7" x2="100.46" y2="192.83"/><line style="fill:none;stroke:#6d6e71;stroke-width:.5;stroke-linecap:square" x1="84.46" y1="190.7" x2="84.46" y2="192.83"/><line style="fill:none;stroke:#6d6e71;stroke-width:.5;stroke-linecap:square" x1="69.46" y1="190.7" x2="69.46" y2="192.83"/><line style="fill:none;stroke:#6d6e71;stroke-width:.5;stroke-linecap:square" x1="53.46" y1="190.7" x2="53.46" y2="192.83"/><line style="fill:none;stroke:#6d6e71;stroke-width:.5;stroke-linecap:square" x1="38.46" y1="190.7" x2="38.46" y2="192.83"/><path style="fill:none;stroke:#bcbec0;stroke-width:.5" d="M49.87 21.95C53.38 37.33 60.88 58.94 77.5 79.9c3.71 4.68 20.57 25.32 50.6 40.38 7.55 3.78 22.83 10.67 79.4 18.62 19.15 2.69 45.78 5.89 78 8"/><text transform="translate(109.45 211.763)" style="font-family:'Asap-Medium';font-size:8px">Hours of free time per day</text><path style="fill:none;stroke:#bcbec0;stroke-width:.5" d="M67.87 22.02c6.11 18.9 18 44.42 41.63 65.88 23.55 21.38 48.07 29 77 38 22.5 7 56.3 14.85 99 15"/><path style="fill:none;stroke:#ed1f24;stroke-width:.5;stroke-miterlimit:10" d="M38.38 55.6c29.15 14.56 55.59 28.48 79.12 41.3 29.97 16.33 27.56 15.81 61 34 31.09 16.91 46.55 25.34 78 43 12.92 7.26 23.4 13.23 30 17"/><text transform="translate(134.03 118.62)" style="font-family:'Asap-Regular';font-size:7px">F</text><text transform="translate(179.03 120.62)" style="font-family:'Asap-Regular';font-size:7px">E</text><circle style="fill:#000101" cx="138.64" cy="108.28" r="1.13"/><text transform="translate(292.293 162.984)" style="font-family:'Asap-Regular';font-size:7px">IC</text><text transform="matrix(.583 0 0 .583 298.607 165.315)" style="font-family:'Asap-Regular';font-size:7px">1</text><text transform="translate(291.896 150.984)" style="font-family:'Asap-Regular';font-size:7px">VIC</text><text transform="matrix(.583 0 0 .583 302.529 153.315)" style="font-family:'Asap-Regular';font-size:7px">2</text><text transform="translate(291.864 139.984)" style="font-family:'Asap-Regular';font-size:7px">VIC</text><text transform="matrix(.583 0 0 .583 302.497 142.315)" style="font-family:'Asap-Regular';font-size:7px">1</text><path style="fill:none;stroke:#3a53a4;stroke-width:.5" d="M98.96 21.95c11.46 32.25 36.72 88.78 79.54 108.95 7.35 3.46 26.97 11.39 51 18 22.65 6.23 42.08 9.33 56 11"/><circle style="fill:#000101" cx="177.64" cy="130.28" r="1.13"/><line style="fill:none;stroke:#6d6e71;stroke-width:.5;stroke-linecap:square;stroke-linejoin:round" x1="38.56" y1="21.95" x2="38.56" y2="190.39"/></svg>