<svg xmlns="http://www.w3.org/2000/svg" class="prefix__svglite" viewBox="0 0 810 504"><rect width="100%" height="100%" style="stroke:none;fill:#fff;stroke-linecap:round;stroke-linejoin:round;stroke-miterlimit:10"/><defs><clipPath id="prefix__a"><rect x="0" y="0" width="810" height="504" style="fill:none;stroke:#000;stroke-linecap:round;stroke-linejoin:round;stroke-miterlimit:10"/></clipPath></defs><g clip-path="url(#prefix__a)"><rect x="0" y="0" width="810" height="504" style="stroke-width:1.07;stroke:#fff;fill:#fff;stroke-linecap:round;stroke-linejoin:round;stroke-miterlimit:10"/><rect x="93.36" y="14.17" width="702.47" height="408.92" style="stroke-width:1.07;stroke:none;fill:#fff;stroke-linecap:round;stroke-linejoin:round;stroke-miterlimit:10"/><polyline points="93.36 423.09 795.83 423.09" style="stroke-width:1.07;stroke:#c6c4c4;stroke-linecap:butt;fill:none;stroke-linejoin:round;stroke-miterlimit:10"/><polyline points="93.36 320.86 795.83 320.86" style="stroke-width:1.07;stroke:#c6c4c4;stroke-linecap:butt;fill:none;stroke-linejoin:round;stroke-miterlimit:10"/><polyline points="93.36 218.63 795.83 218.63" style="stroke-width:1.07;stroke:#c6c4c4;stroke-linecap:butt;fill:none;stroke-linejoin:round;stroke-miterlimit:10"/><polyline points="93.36 116.4 795.83 116.4" style="stroke-width:1.07;stroke:#c6c4c4;stroke-linecap:butt;fill:none;stroke-linejoin:round;stroke-miterlimit:10"/><polyline points="93.36 14.17 795.83 14.17" style="stroke-width:1.07;stroke:#c6c4c4;stroke-linecap:butt;fill:none;stroke-linejoin:round;stroke-miterlimit:10"/><line x1="93.36" y1="423.09" x2="93.36" y2="14.17" style="stroke-width:1.07;stroke:#333;stroke-linecap:butt;fill:none;stroke-linejoin:round;stroke-miterlimit:10"/><polyline points="190.92 248.08 288.49 251.76 483.62 173.24 532.4 164.66 581.18 143.8 621.18 100.46 630.94 105.36 640.7 124.17 660.21 91.87 669.97 78.37 679.72 67.33 689.48 62.43 698.26 49.34 699.24 52.2 708.99 44.84 726.56 37.07 728.51 31.76 738.26 31.35 739.24 30.94 740.21 30.94 741.19 30.12 742.17 28.89 743.14 28.49 744.12 28.08 745.09 27.67 746.07 27.26 747.04 26.85 748.02 26.03 749 26.03 749.97 26.03 750.95 25.62 751.92 25.21 752.9 24.81 753.87 24.81 754.85 24.81 755.82 24.4 756.8 24.4 757.78 25.21 758.75 25.21 759.73 25.21 760.7 25.62 761.68 25.21 762.65 24.81 763.63 24.81 764.61 24.81 765.58 23.99 766.56 23.99 767.53 22.69 768.51 22.63 769.48 22.54 770.46 22.68 771.44 22.57 772.41 22.14 773.39 21.75 774.36 21.2 775.34 20.53 776.31 20.45 777.29 19.87 778.26 19.84 779.24 19.28 780.22 19.39 781.19 19.8 782.17 19.7 783.14 19.76 784.12 18.59 785.09 18.71 786.07 19.15 787.05 19.16 788.02 19.03 789 18.5 789.97 19.31 790.95 18.82 791.92 18.77 792.9 18.91 793.88 18.86 794.85 18.81" style="stroke-width:1.07;stroke:#3a53a4;stroke-linecap:butt;fill:none;stroke-linejoin:round;stroke-miterlimit:10"/><polyline points="288.49 246.44 386.05 213.32 483.62 184.28 532.4 186.33 581.18 180.6 628.99 178.97 638.75 179.38 668.02 163.43 677.77 153.62 687.53 138.49 698.26 110.68 708.02 95.14 726.56 75.1 737.29 54.66 738.26 53.84 739.24 51.38 740.21 49.75 741.19 48.11 742.17 45.66 743.14 44.84 744.12 42.39 745.09 39.94 746.07 38.71 747.04 37.89 748.02 38.3 749 37.89 749.97 37.48 750.95 37.48 751.92 37.07 752.9 36.66 753.87 36.25 754.85 35.44 755.82 35.03 756.8 35.03 757.78 35.44 758.75 35.85 759.73 35.44 760.7 35.03 761.68 34.21 762.65 33.8 763.63 33.39 764.61 32.98 765.58 32.17 766.56 32.17 767.53 31.16 768.51 31 769.48 30.84 770.46 30.47 771.44 29.83 772.41 29.63 773.39 29.33 774.36 28.44 775.34 27.3 776.31 27.6 777.29 26.94 778.26 26.18 779.24 26.61 780.22 27.72 781.19 27.82 782.17 27.59 783.14 26.33 784.12 25.46 785.09 25.46 786.07 26.74 787.05 25.56 788.02 25.35 789 22.74 789.97 23.55 790.95 23.66 791.92 23.42 792.9 23.45 793.88 23.36 794.85 23.27" style="stroke-width:1.07;stroke:#f49323;stroke-linecap:butt;fill:none;stroke-linejoin:round;stroke-miterlimit:10"/><polyline points="190.92 306.14 288.49 312.69 386.05 291.42 483.62 272.61 532.4 264.02 581.18 256.25 654.36 213.32 660.21 203.5 669.97 194.51 679.72 181.83 689.48 171.61 699.24 162.2 708.99 159.34 739.24 95.96 745.09 78.37 748.02 66.92 749 63.65 749.97 60.38 750.95 57.93 751.92 56.7 752.9 54.66 753.87 52.61 754.85 51.38 755.82 50.16 756.8 48.93 757.78 47.7 758.75 46.48 759.73 45.66 760.7 44.84 761.68 44.02 762.65 42.8 763.63 41.57 764.61 40.34 765.58 38.71 766.56 37.48 767.53 35.97 768.51 36.21 769.48 36.49 770.46 35.38 771.44 34.17 772.41 33.9 773.39 33.13 774.36 32.21 775.34 31.52 776.31 31.11 777.29 30.82 778.26 31.07 779.24 31.57 780.22 30.01 781.19 29.05 782.17 29.44 783.14 28.3 784.12 25.37 785.09 26.16 786.07 26.06 787.05 26.07 788.02 26.11 789 26.75 789.97 25.81 790.95 25.4 791.92 25.92 792.9 24.92 793.88 24.82 794.85 24.71" style="stroke-width:1.07;stroke:#ed1f24;stroke-linecap:butt;fill:none;stroke-linejoin:round;stroke-miterlimit:10"/><polyline points="93.36 273.43 190.92 263.21 288.49 268.93 386.05 261.16 483.62 254.62 532.4 255.03 581.18 250.53 660.21 270.16 679.72 274.66 689.48 258.71 699.24 254.62 708.99 234.17 728.51 194.92 738.26 147.48 739.24 139.71 740.21 130.31 741.19 124.17 742.17 125.4 743.14 120.08 744.12 116.81 745.09 109.86 746.07 104.14 747.04 96.78 748.02 96.37 749 90.23 749.97 86.96 750.95 83.28 751.92 79.6 752.9 78.37 753.87 75.1 754.85 73.88 755.82 71.42 756.8 68.97 757.78 65.7 758.75 62.02 759.73 61.2 760.7 58.34 761.68 55.47 762.65 53.43 763.63 51.79 764.61 48.93 765.58 46.89 766.56 44.84 767.53 47.16 768.51 46.92 769.48 43.17 770.46 42.38 771.44 41.08 772.41 39.25 773.39 38.22 774.36 37.77 775.34 36.34 776.31 35.56 777.29 35.47 778.26 34.32 779.24 33.45 780.22 31.09 781.19 31.34 782.17 31.65 783.14 30.4 784.12 29.3 785.09 29.27 786.07 29.59 787.05 29.23 788.02 29.27 789 28.9 789.97 29.07 790.95 29.52 791.92 30.06 792.9 29.65 793.88 29.51 794.85 29.37" style="stroke-width:1.07;stroke:#009147;stroke-linecap:butt;fill:none;stroke-linejoin:round;stroke-miterlimit:10"/><polyline points="654.36 314.32 679.72 320.45 723.63 320.05 737.29 308.19 738.26 307.37 739.24 305.73 740.21 303.69 741.19 302.05 742.17 304.92 743.14 306.55 744.12 308.6 745.09 309 746.07 307.37 747.04 308.6 748.02 309.41 749 310.23 749.97 311.05 750.95 311.46 751.92 311.05 752.9 309.82 753.87 309.41 754.85 306.55 755.82 309.82 756.8 310.23 757.78 308.6 758.75 306.55 759.73 304.51 760.7 302.46 761.68 300.42 762.65 297.15 763.63 294.69 764.61 291.42 765.58 286.92 766.56 285.7 767.53 271.99 768.51 270.86 769.48 269.69 770.46 268.43 771.44 266.71 772.41 265.4 773.39 263.93 774.36 262.23 775.34 259.22 776.31 258.07 777.29 255.62 778.26 253.12 779.24 249.99 780.22 245.95 781.19 242.44 782.17 238.65 783.14 234.43 784.12 231.28 785.09 227.32 786.07 222.95 787.05 214.38 788.02 206.38 789 204.73 789.97 202.57 790.95 200.47 791.92 198.69 792.9 196.23 793.88 193.53 794.85 190.87" style="stroke-width:1.07;stroke-linecap:butt;fill:none;stroke:#000;stroke-linejoin:round;stroke-miterlimit:10"/><polyline points="739.24 349.49 751.92 329.04 766.56 259.53 776.31 218.63 788.02 151.57 789 142.57 789.97 134.8 790.95 131.12 791.92 127.44 792.9 124.58 793.88 120.9 794.85 117.63" style="stroke-width:1.07;stroke:#b9519e;stroke-linecap:butt;fill:none;stroke-linejoin:round;stroke-miterlimit:10"/><polygon points="187.12 309.94 194.72 309.94 194.72 302.34 187.12 302.34" style="stroke-width:1.2;stroke:none;fill:#ed1f24;stroke-linecap:round;stroke-linejoin:round;stroke-miterlimit:10"/><polygon points="93.36 267.52 98.48 276.38 88.23 276.38" style="stroke-width:1.2;stroke:none;fill:#009147;stroke-linecap:round;stroke-linejoin:round;stroke-miterlimit:10"/><circle cx="190.92" cy="248.08" r="3.8" style="stroke-width:1.2;stroke:#3a53a4;fill:#3a53a4;stroke-linecap:round;stroke-linejoin:round;stroke-miterlimit:10"/><circle cx="288.49" cy="246.44" r="3.8" style="stroke-width:1.2;stroke:#f49323;fill:#f49323;stroke-linecap:round;stroke-linejoin:round;stroke-miterlimit:10"/><circle cx="654.36" cy="314.32" r="3.8" style="stroke-width:1.2;fill:#000;stroke:#000;stroke-linecap:round;stroke-linejoin:round;stroke-miterlimit:10"/><polygon points="735.44 353.29 743.04 353.29 743.04 345.69 735.44 345.69" style="stroke-width:1.2;stroke:none;fill:#b9519e;stroke-linecap:round;stroke-linejoin:round;stroke-miterlimit:10"/><text x="66.67" y="427.5" style="font-size:18px;font-family:Asap" textLength="9.63" lengthAdjust="spacingAndGlyphs">0</text><text x="57.04" y="325.27" style="font-size:18px;font-family:Asap" textLength="19.27" lengthAdjust="spacingAndGlyphs">25</text><text x="57.04" y="223.04" style="font-size:18px;font-family:Asap" textLength="19.27" lengthAdjust="spacingAndGlyphs">50</text><text x="57.04" y="120.81" style="font-size:18px;font-family:Asap" textLength="19.27" lengthAdjust="spacingAndGlyphs">75</text><text x="47.41" y="18.58" style="font-size:18px;font-family:Asap" textLength="28.9" lengthAdjust="spacingAndGlyphs">100</text><polyline points="86.27 423.09 93.36 423.09" style="stroke-width:1.07;stroke:#464646;stroke-linecap:butt;fill:none;stroke-linejoin:round;stroke-miterlimit:10"/><polyline points="86.27 320.86 93.36 320.86" style="stroke-width:1.07;stroke:#464646;stroke-linecap:butt;fill:none;stroke-linejoin:round;stroke-miterlimit:10"/><polyline points="86.27 218.63 93.36 218.63" style="stroke-width:1.07;stroke:#464646;stroke-linecap:butt;fill:none;stroke-linejoin:round;stroke-miterlimit:10"/><polyline points="86.27 116.4 93.36 116.4" style="stroke-width:1.07;stroke:#464646;stroke-linecap:butt;fill:none;stroke-linejoin:round;stroke-miterlimit:10"/><polyline points="86.27 14.17 93.36 14.17" style="stroke-width:1.07;stroke:#464646;stroke-linecap:butt;fill:none;stroke-linejoin:round;stroke-miterlimit:10"/><polyline points="93.36 423.09 795.83 423.09" style="stroke-width:1.07;stroke:#464646;stroke-linecap:butt;fill:none;stroke-linejoin:round;stroke-miterlimit:10"/><polyline points="93.36 430.18 93.36 423.09" style="stroke-width:1.07;stroke:#464646;stroke-linecap:butt;fill:none;stroke-linejoin:round;stroke-miterlimit:10"/><polyline points="190.92 430.18 190.92 423.09" style="stroke-width:1.07;stroke:#464646;stroke-linecap:butt;fill:none;stroke-linejoin:round;stroke-miterlimit:10"/><polyline points="288.49 430.18 288.49 423.09" style="stroke-width:1.07;stroke:#464646;stroke-linecap:butt;fill:none;stroke-linejoin:round;stroke-miterlimit:10"/><polyline points="386.05 430.18 386.05 423.09" style="stroke-width:1.07;stroke:#464646;stroke-linecap:butt;fill:none;stroke-linejoin:round;stroke-miterlimit:10"/><polyline points="483.62 430.18 483.62 423.09" style="stroke-width:1.07;stroke:#464646;stroke-linecap:butt;fill:none;stroke-linejoin:round;stroke-miterlimit:10"/><polyline points="581.18 430.18 581.18 423.09" style="stroke-width:1.07;stroke:#464646;stroke-linecap:butt;fill:none;stroke-linejoin:round;stroke-miterlimit:10"/><polyline points="678.75 430.18 678.75 423.09" style="stroke-width:1.07;stroke:#464646;stroke-linecap:butt;fill:none;stroke-linejoin:round;stroke-miterlimit:10"/><polyline points="776.31 430.18 776.31 423.09" style="stroke-width:1.07;stroke:#464646;stroke-linecap:butt;fill:none;stroke-linejoin:round;stroke-miterlimit:10"/><text x="74.09" y="452.78" style="font-size:18px;font-family:Asap" textLength="38.53" lengthAdjust="spacingAndGlyphs">1300</text><text x="171.65" y="452.78" style="font-size:18px;font-family:Asap" textLength="38.53" lengthAdjust="spacingAndGlyphs">1400</text><text x="269.22" y="452.78" style="font-size:18px;font-family:Asap" textLength="38.53" lengthAdjust="spacingAndGlyphs">1500</text><text x="366.78" y="452.78" style="font-size:18px;font-family:Asap" textLength="38.53" lengthAdjust="spacingAndGlyphs">1600</text><text x="464.35" y="452.78" style="font-size:18px;font-family:Asap" textLength="38.53" lengthAdjust="spacingAndGlyphs">1700</text><text x="561.92" y="452.78" style="font-size:18px;font-family:Asap" textLength="38.53" lengthAdjust="spacingAndGlyphs">1800</text><text x="659.48" y="452.78" style="font-size:18px;font-family:Asap" textLength="38.53" lengthAdjust="spacingAndGlyphs">1900</text><text x="757.05" y="452.78" style="font-size:18px;font-family:Asap" textLength="38.53" lengthAdjust="spacingAndGlyphs">2000</text><text x="424.5" y="485.59" style="font-size:20px;font-weight:600;font-family:Asap" textLength="40.18" lengthAdjust="spacingAndGlyphs">Year</text><text transform="rotate(-90 215.48 187.26)" style="font-size:20px;font-weight:600;font-family:Asap" textLength="146.66" lengthAdjust="spacingAndGlyphs">Non-agricultural</text><text transform="rotate(-90 139.745 111.525)" style="font-size:20px;font-weight:600;font-family:Asap" textLength="48.56" lengthAdjust="spacingAndGlyphs">share</text><text transform="rotate(-90 113.065 84.845)" style="font-size:20px;font-weight:600;font-family:Asap" textLength="17.88" lengthAdjust="spacingAndGlyphs">of</text><text transform="rotate(-90 101.72 73.5)" style="font-size:20px;font-weight:600;font-family:Asap" textLength="58.07" lengthAdjust="spacingAndGlyphs">labour</text><text transform="rotate(-90 70.285 42.065)" style="font-size:20px;font-weight:600;font-family:Asap" textLength="45.68" lengthAdjust="spacingAndGlyphs">force</text><text transform="rotate(-90 45.04 16.82)" style="font-size:20px;font-weight:600;font-family:Asap" textLength="27.34" lengthAdjust="spacingAndGlyphs">(%)</text><rect x="154.3" y="22.94" width="159.11" height="146.04" style="stroke-width:1.07;stroke:none;fill:#fff;stroke-linecap:round;stroke-linejoin:round;stroke-miterlimit:10"/><line x1="162.61" y1="44.7" x2="185.29" y2="44.7" style="stroke-width:1.07;stroke:#3a53a4;stroke-linecap:butt;fill:none;stroke-linejoin:round;stroke-miterlimit:10"/><circle cx="182.45" cy="44.7" r="5.7" style="stroke-width:1.2;stroke:#3a53a4;fill:#3a53a4;stroke-linecap:round;stroke-linejoin:round;stroke-miterlimit:10"/><line x1="162.61" y1="66.3" x2="185.29" y2="66.3" style="stroke-width:1.07;stroke:#f49323;stroke-linecap:butt;fill:none;stroke-linejoin:round;stroke-miterlimit:10"/><circle cx="182.45" cy="66.3" r="5.7" style="stroke-width:1.2;stroke:#f49323;fill:#f49323;stroke-linecap:round;stroke-linejoin:round;stroke-miterlimit:10"/><line x1="162.61" y1="87.9" x2="185.29" y2="87.9" style="stroke-width:1.07;stroke:#ed1f24;stroke-linecap:butt;fill:none;stroke-linejoin:round;stroke-miterlimit:10"/><polygon points="176.75 93.6 188.16 93.6 188.16 82.19 176.75 82.19" style="stroke-width:1.2;stroke:none;fill:#ed1f24;stroke-linecap:round;stroke-linejoin:round;stroke-miterlimit:10"/><line x1="162.61" y1="109.5" x2="185.29" y2="109.5" style="stroke-width:1.07;stroke:#009147;stroke-linecap:butt;fill:none;stroke-linejoin:round;stroke-miterlimit:10"/><polygon points="182.45 100.63 190.13 113.93 174.77 113.93" style="stroke-width:1.2;stroke:none;fill:#009147;stroke-linecap:round;stroke-linejoin:round;stroke-miterlimit:10"/><line x1="162.61" y1="131.1" x2="185.29" y2="131.1" style="stroke-width:1.07;stroke-linecap:butt;fill:none;stroke:#000;stroke-linejoin:round;stroke-miterlimit:10"/><circle cx="182.45" cy="131.1" r="5.7" style="stroke-width:1.2;fill:#000;stroke:#000;stroke-linecap:round;stroke-linejoin:round;stroke-miterlimit:10"/><line x1="162.61" y1="152.7" x2="185.29" y2="152.7" style="stroke-width:1.07;stroke:#b9519e;stroke-linecap:butt;fill:none;stroke-linejoin:round;stroke-miterlimit:10"/><polygon points="176.75 158.4 188.16 158.4 188.16 146.99 176.75 146.99" style="stroke-width:1.2;stroke:none;fill:#b9519e;stroke-linecap:round;stroke-linejoin:round;stroke-miterlimit:10"/><text x="193.6" y="48.61" style="font-size:16px;font-family:Asap" textLength="47.68" lengthAdjust="spacingAndGlyphs">United</text><text x="245.12" y="48.61" style="font-size:16px;font-family:Asap" textLength="62.81" lengthAdjust="spacingAndGlyphs">Kingdom</text><text x="193.6" y="70.21" style="font-size:16px;font-family:Asap" textLength="87.15" lengthAdjust="spacingAndGlyphs">Netherlands</text><text x="193.6" y="91.81" style="font-size:16px;font-family:Asap" textLength="47.92" lengthAdjust="spacingAndGlyphs">France</text><text x="193.6" y="113.41" style="font-size:16px;font-family:Asap" textLength="31.17" lengthAdjust="spacingAndGlyphs">Italy</text><text x="193.6" y="135.01" style="font-size:16px;font-family:Asap" textLength="35.44" lengthAdjust="spacingAndGlyphs">India</text><text x="193.6" y="156.61" style="font-size:16px;font-family:Asap" textLength="40.81" lengthAdjust="spacingAndGlyphs">China</text></g></svg>