<svg version="1.1" xmlns="http://www.w3.org/2000/svg" x="0" y="0" viewBox="0 0 311.81 199.02" style="enable-background:new 0 0 311.81 199.02" xml:space="preserve"><line style="fill:none;stroke:#6d6e71;stroke-width:.5;stroke-linecap:square;stroke-linejoin:round" x1="48" y1="97.3" x2="45.88" y2="97.3"/><line style="fill:none;stroke:#6d6e71;stroke-width:.5;stroke-linecap:square;stroke-linejoin:round" x1="48" y1="65.34" x2="45.88" y2="65.34"/><line style="fill:none;stroke:#6d6e71;stroke-width:.5;stroke-linecap:square;stroke-linejoin:round" x1="48" y1="21.9" x2="45.88" y2="21.9"/><line style="fill:none;stroke:#6d6e71;stroke-width:.5;stroke-linecap:square;stroke-linejoin:round" x1="48" y1="140.7" x2="45.88" y2="140.7"/><line style="fill:none;stroke:#a1b0da;stroke-width:.5;stroke-miterlimit:10" x1="47.75" y1="21.9" x2="275.85" y2="21.9"/><line style="fill:none;stroke:#6d6e71;stroke-width:.5;stroke-linecap:square;stroke-linejoin:round" x1="48" y1="168.81" x2="45.88" y2="168.81"/><text transform="translate(38.184 171.184)" style="font-family:'Asap-Regular';font-size:7px">0</text><text transform="translate(37.183 99.447)" style="font-family:'Asap-Regular';font-size:7px">r</text><text transform="matrix(.583 0 0 .583 39.745 101.778)" style="font-family:'Asap-Regular';font-size:7px">1</text><text transform="rotate(-90 56.647 41.51)"><tspan x="0" y="0" style="font-family:'Asap-Medium';font-size:8px">Wage, </tspan><tspan x="23.82" y="0" style="font-family:'Asap-MediumItalic';font-size:8px">w</tspan></text><text transform="translate(46.115 179.692)" style="font-family:'Asap-Regular';font-size:7px">0</text><line style="fill:none;stroke:#6d6e71;stroke-width:.5;stroke-linecap:square" x1="48" y1="168.93" x2="48" y2="171.06"/><text transform="translate(133.878 196.667)"><tspan x="0" y="0" style="font-family:'Asap-Medium';font-size:8px">Employment, </tspan><tspan x="48.3" y="0" style="font-family:'Asap-Italic';font-size:8px">N</tspan></text><text transform="rotate(-21.798 341.118 -403.88)" style="font-family:'Asap-Regular';font-size:6px">Reservation wage curve</text><polyline style="fill:none;stroke:#939598;stroke-width:.5;stroke-linecap:square;stroke-linejoin:round;stroke-dasharray:1.417" points="48.37 97.3 159.46 97.3 159.46 168.69"/><line style="fill:none;stroke:#009147;stroke-width:.5;stroke-linecap:square;stroke-linejoin:round" x1="48" y1="140.7" x2="277.31" y2="51.42"/><polyline style="fill:none;stroke:#939598;stroke-width:.5;stroke-linecap:square;stroke-linejoin:round;stroke-dasharray:1.417" points="48 65.34 159.46 65.34 159.46 97.42"/><text transform="rotate(-21.798 233.026 -440.045)" style="font-family:'Asap-Regular';font-size:6px">No-shirking wage curve</text><text transform="translate(171.021 128.243)" style="font-family:'Asap-Regular';font-size:6px">Workers turned away</text><line style="fill:none;stroke:#000;stroke-width:.5;stroke-miterlimit:10" x1="164.42" y1="122.7" x2="233.08" y2="122.7"/><polygon points="166.08 124.75 166.42 124.38 164.62 122.7 166.42 121.02 166.08 120.66 163.88 122.7"/><polygon points="231.43 124.75 231.09 124.38 232.89 122.7 231.09 121.02 231.43 120.66 233.63 122.7"/><text transform="translate(36.638 145.993)" style="font-family:'Asap-Regular';font-size:7px">r</text><text transform="matrix(.583 0 0 .583 39.2 148.324)" style="font-family:'Asap-Regular';font-size:7px">0</text><text transform="translate(34.638 67.159)" style="font-family:'Asap-Italic';font-size:7px">w</text><text transform="matrix(.583 0 0 .583 39.867 69.49)" style="font-family:'Asap-Regular';font-size:7px">1</text><text transform="translate(38.248 23.506)" style="font-family:'Asap-Regular';font-size:7px">y</text><text transform="translate(154.58 179.692)" style="font-family:'Asap-Regular';font-size:7px">N</text><text transform="matrix(.583 0 0 .583 159.614 182.023)" style="font-family:'Asap-Regular';font-size:7px">1</text><text transform="translate(234.21 179.734)" style="font-family:'Asap-Regular';font-size:7px">N</text><text transform="matrix(.583 0 0 .583 239.243 182.065)" style="font-family:'Asap-Regular';font-size:7px">2</text><polyline style="fill:none;stroke:#939598;stroke-width:.5;stroke-linecap:square;stroke-linejoin:round;stroke-dasharray:1.417" points="159.46 65.34 239.02 65.34 239.02 168.48"/><path style="fill:none;stroke:#3b54a4;stroke-width:.5;stroke-miterlimit:10" d="M80.38 168.81c4.08-19.79 10.62-34.96 15.77-45 5.25-10.24 11.57-22.55 23.71-34.23 10.89-10.48 23.02-17.11 39.6-23.35 44.16-16.6 94.49-20.76 116.64-22.01"/><line style="fill:none;stroke:#6d6e71;stroke-width:.5;stroke-linecap:square" x1="48.37" y1="168.81" x2="275.85" y2="168.81"/><line style="fill:none;stroke:#f15a27;stroke-width:.5;stroke-linecap:square;stroke-linejoin:round" x1="48.37" y1="109.94" x2="277.31" y2="18.51"/><circle cx="159.46" cy="65.7" r="1.13"/><line style="fill:none;stroke:#6d6e71;stroke-width:.5;stroke-linecap:square;stroke-linejoin:round" x1="48" y1="2.13" x2="48" y2="168.39"/><line style="fill:none;stroke:#a1b0da;stroke-width:.5;stroke-miterlimit:10" x1="48" y1="168.39" x2="48" y2="21.68"/><line style="fill:none;stroke:#6d6e71;stroke-width:.5;stroke-linecap:square" x1="159.46" y1="168.81" x2="159.46" y2="170.94"/><line style="fill:none;stroke:#6d6e71;stroke-width:.5;stroke-linecap:square" x1="239.02" y1="168.81" x2="239.02" y2="170.94"/></svg>