<svg version="1.1" xmlns="http://www.w3.org/2000/svg" x="0" y="0" viewBox="0 0 311.81 197.65" style="enable-background:new 0 0 311.81 197.65" xml:space="preserve"><line style="fill:none;stroke:#f49323;stroke-width:.5;stroke-linejoin:round" x1="194.1" y1="88.79" x2="50.15" y2="43.79"/><polyline style="fill:none;stroke:#ed2024;stroke-width:.5;stroke-linecap:round;stroke-linejoin:round;stroke-miterlimit:10;stroke-dasharray:1,1,1,1,1,1" points="50.14 4.3 53.72 6.37 57.27 8.48 60.81 10.55 64.4 12.66 67.94 14.73 71.53 16.83 75.07 18.9 78.62 21.01 82.2 23.12 85.75 25.19 89.29 27.29 92.88 29.36 96.42 31.47 100.01 33.54 103.55 35.65 107.1 37.72 110.68 39.82 114.23 41.89 117.81 44 121.36 46.07 124.9 48.18 128.49 50.25 132.03 52.35 135.62 54.43 139.16 56.53 142.71 58.6 146.29 60.71 149.84 62.81 153.38 64.89 156.97 66.99 160.51 69.06 164.1 71.17 167.64 73.24 171.19 75.35 174.77 77.42 178.32 79.52 181.9 81.59 185.45 83.7 188.99 85.77 192.58 87.88"/><line style="fill:none;stroke:#3c54a4;stroke-width:.5;stroke-linecap:square;stroke-linejoin:round" x1="186.75" y1="166.89" x2="50.07" y2="166.89"/><polygon style="fill:#3c54a4" points="185.09 164.85 184.75 165.21 186.56 166.89 184.75 168.57 185.09 168.94 187.29 166.89"/><line style="fill:none;stroke:#6d6e71;stroke-width:.5;stroke-linecap:square;stroke-linejoin:round" x1="50.14" y1="4.3" x2="48.01" y2="4.3"/><line style="fill:none;stroke:#6d6e71;stroke-width:.5;stroke-linecap:square;stroke-linejoin:round" x1="50.14" y1="27.95" x2="48.01" y2="27.95"/><line style="fill:none;stroke:#6d6e71;stroke-width:.5;stroke-linecap:square;stroke-linejoin:round" x1="50.14" y1="51.59" x2="48.01" y2="51.59"/><line style="fill:none;stroke:#6d6e71;stroke-width:.5;stroke-linecap:square;stroke-linejoin:round" x1="50.14" y1="75.24" x2="48.01" y2="75.24"/><line style="fill:none;stroke:#6d6e71;stroke-width:.5;stroke-linecap:square;stroke-linejoin:round" x1="50.14" y1="98.89" x2="48.01" y2="98.89"/><line style="fill:none;stroke:#6d6e71;stroke-width:.5;stroke-linecap:square;stroke-linejoin:round" x1="50.14" y1="122.53" x2="48.01" y2="122.53"/><line style="fill:none;stroke:#6d6e71;stroke-width:.5;stroke-linecap:square;stroke-linejoin:round" x1="50.14" y1="141.18" x2="48.01" y2="141.18"/><line style="fill:none;stroke:#6d6e71;stroke-width:.5;stroke-linecap:square;stroke-linejoin:round" x1="50.15" y1="143.96" x2="50.15" y2="141.31"/><line style="fill:none;stroke:#6d6e71;stroke-width:.5;stroke-linecap:square;stroke-linejoin:round" x1="75.97" y1="143.96" x2="75.97" y2="141.31"/><line style="fill:none;stroke:#6d6e71;stroke-width:.5;stroke-linecap:square;stroke-linejoin:round" x1="101.79" y1="143.96" x2="101.79" y2="141.31"/><line style="fill:none;stroke:#6d6e71;stroke-width:.5;stroke-linecap:square;stroke-linejoin:round" x1="127.61" y1="143.96" x2="127.61" y2="141.31"/><line style="fill:none;stroke:#6d6e71;stroke-width:.5;stroke-linecap:square;stroke-linejoin:round" x1="153.43" y1="143.96" x2="153.43" y2="141.31"/><line style="fill:none;stroke:#6d6e71;stroke-width:.5;stroke-linecap:square;stroke-linejoin:round" x1="179.25" y1="143.96" x2="179.25" y2="141.31"/><line style="fill:none;stroke:#6d6e71;stroke-width:.5;stroke-linecap:square;stroke-linejoin:round" x1="205.07" y1="143.96" x2="205.07" y2="141.31"/><line style="fill:none;stroke:#6d6e71;stroke-width:.5;stroke-linecap:square;stroke-linejoin:round" x1="230.89" y1="143.96" x2="230.89" y2="141.31"/><line style="fill:none;stroke:#6d6e71;stroke-width:.5;stroke-linecap:square;stroke-linejoin:round" x1="256.71" y1="143.96" x2="256.71" y2="141.31"/><line style="fill:none;stroke:#6d6e71;stroke-width:.5;stroke-linecap:square;stroke-linejoin:round" x1="282.53" y1="143.96" x2="282.53" y2="141.31"/><line style="fill:none;stroke:#f49323;stroke-width:.5;stroke-linejoin:round" x1="282.53" y1="141.31" x2="194.1" y2="88.79"/><line style="fill:none;stroke:#6d6e71;stroke-width:.5;stroke-linecap:square;stroke-linejoin:round" x1="50.15" y1="4.3" x2="50.15" y2="141.18"/><line style="fill:none;stroke:#6d6e71;stroke-width:.5;stroke-linecap:square" x1="50.14" y1="141.25" x2="282.53" y2="141.25"/><polyline style="fill:none;stroke:#4971b8;stroke-width:.5;stroke-linecap:round;stroke-linejoin:round;stroke-miterlimit:10" points="91.76 4.4 94.4 8.97 100.23 17.83 106.13 25.64 111.96 32.59 117.79 38.72 123.69 44.28 129.52 49.2 135.41 53.72 141.25 57.77 147.08 61.41 152.97 64.77 158.81 67.84 164.7 70.62 170.53 73.16 176.36 75.54 182.26 77.74 188.09 79.76 193.99 81.61 199.82 83.35 205.65 84.91 211.55 86.42 217.38 87.81 223.21 89.14 229.1 90.35 234.94 91.51 240.83 92.55 246.66 93.6 252.5 94.52 258.39 95.39 264.22 96.26 270.12 97.07 275.95 97.82 281.78 98.52"/><circle style="fill:#000101" cx="161.42" cy="69.27" r="1.13"/><text transform="rotate(-90 72.869 52.991)"><tspan x="0" y="0" style="font-family:'Asap-Medium';font-size:8px">T</tspan><tspan x="4.19" y="0" style="font-family:'Asap-Medium';font-size:8px">otal household consumption ($)</tspan></text><text transform="translate(34.566 7.55)" style="font-family:'Asap-Regular';font-size:7px">600</text><text transform="translate(34.565 31.186)" style="font-family:'Asap-Regular';font-size:7px">500</text><text transform="translate(34.923 54.175)" style="font-family:'Asap-Regular';font-size:7px">400</text><text transform="translate(34.87 77.74)" style="font-family:'Asap-Regular';font-size:7px">300</text><text transform="translate(34.87 101.377)" style="font-family:'Asap-Regular';font-size:7px">200</text><text transform="translate(35.227 124.365)" style="font-family:'Asap-Regular';font-size:7px">100</text><text transform="translate(41.315 143.148)" style="font-family:'Asap-Regular';font-size:7px">0</text><text transform="translate(48.767 151.677)" style="font-family:'Asap-Regular';font-size:7px">14</text><text transform="translate(74.469 151.677)" style="font-family:'Asap-Regular';font-size:7px">16</text><text transform="translate(99.942 151.677)" style="font-family:'Asap-Regular';font-size:7px">18</text><text transform="translate(125.478 151.691)" style="font-family:'Asap-Regular';font-size:7px">20</text><text transform="translate(150.733 151.698)" style="font-family:'Asap-Regular';font-size:7px">22</text><text transform="translate(177.207 151.698)" style="font-family:'Asap-Regular';font-size:7px">24</text><text transform="translate(202.743 151.712)" style="font-family:'Asap-Regular';font-size:7px">26</text><text transform="translate(228.086 151.67)" style="font-family:'Asap-Regular';font-size:7px">30</text><text transform="translate(254.56 151.67)" style="font-family:'Asap-Regular';font-size:7px">32</text><text transform="translate(280.096 151.684)" style="font-family:'Asap-Regular';font-size:7px">34</text><text transform="translate(128.31 194.993)" style="font-family:'Asap-Medium';font-size:8px">Hours of non-working time</text><text transform="translate(81.574 174.047)" style="font-family:'Asap-Medium';font-size:6px">Hours of non-working time</text><text transform="translate(160.558 64.087)" style="font-family:'Asap-Regular';font-size:7px">B</text><text transform="translate(191.578 97)" style="font-family:'Asap-Regular';font-size:7px">K</text></svg>