<svg version="1.1" xmlns="http://www.w3.org/2000/svg" x="0" y="0" viewBox="0 0 311.81 188.63" style="enable-background:new 0 0 311.81 188.63" xml:space="preserve"><polyline style="fill:#d5daef" points="34.25 113.73 259.67 23.85 259.94 6.4 34.25 6.4"/><line style="fill:none;stroke:#6d6e71;stroke-width:.5;stroke-linecap:square" x1="34.25" y1="6.4" x2="34.25" y2="163.47"/><line style="fill:none;stroke:#6d6e71;stroke-width:.5;stroke-linecap:square" x1="34.25" y1="163.97" x2="34.25" y2="166.09"/><line style="fill:none;stroke:#6d6e71;stroke-width:.5;stroke-linecap:square" x1="62.43" y1="164.07" x2="62.43" y2="166.2"/><line style="fill:none;stroke:#6d6e71;stroke-width:.5;stroke-linecap:square" x1="90.61" y1="164.07" x2="90.61" y2="166.2"/><line style="fill:none;stroke:#6d6e71;stroke-width:.5;stroke-linecap:square" x1="118.78" y1="163.47" x2="118.78" y2="165.6"/><line style="fill:none;stroke:#6d6e71;stroke-width:.5;stroke-linecap:square" x1="146.96" y1="163.47" x2="146.96" y2="165.6"/><line style="fill:none;stroke:#6d6e71;stroke-width:.5;stroke-linecap:square" x1="175.14" y1="163.47" x2="175.14" y2="165.6"/><line style="fill:none;stroke:#6d6e71;stroke-width:.5;stroke-linecap:square" x1="203.31" y1="163.47" x2="203.31" y2="165.6"/><line style="fill:none;stroke:#6d6e71;stroke-width:.5;stroke-linecap:square" x1="231.49" y1="163.47" x2="231.49" y2="165.6"/><line style="fill:none;stroke:#6d6e71;stroke-width:.5;stroke-linecap:square" x1="259.94" y1="163.47" x2="259.94" y2="165.6"/><line style="fill:none;stroke:#6d6e71;stroke-width:.5;stroke-linecap:square" x1="32.27" y1="163.47" x2="34.06" y2="163.47"/><line style="fill:none;stroke:#6d6e71;stroke-width:.5;stroke-linecap:square" x1="32.27" y1="141.03" x2="34.06" y2="141.03"/><line style="fill:none;stroke:#6d6e71;stroke-width:.5;stroke-linecap:square" x1="32.27" y1="118.59" x2="34.06" y2="118.59"/><line style="fill:none;stroke:#6d6e71;stroke-width:.5;stroke-linecap:square" x1="32.27" y1="96.16" x2="34.06" y2="96.16"/><line style="fill:none;stroke:#6d6e71;stroke-width:.5;stroke-linecap:square" x1="32.27" y1="73.72" x2="34.06" y2="73.72"/><line style="fill:none;stroke:#6d6e71;stroke-width:.5;stroke-linecap:square" x1="32.27" y1="28.84" x2="34.06" y2="28.84"/><line style="fill:none;stroke:#6d6e71;stroke-width:.5;stroke-linecap:square" x1="32.27" y1="51.28" x2="34.06" y2="51.28"/><line style="fill:none;stroke:#6d6e71;stroke-width:.5;stroke-linecap:square" x1="32.27" y1="6.4" x2="34.06" y2="6.4"/><text transform="translate(18.507 165.846)" style="font-family:'Asap-Regular';font-size:7px">500</text><text transform="translate(18.507 143.407)" style="font-family:'Asap-Regular';font-size:7px">550</text><text transform="translate(18.507 121.015)" style="font-family:'Asap-Regular';font-size:7px">600</text><text transform="translate(18.507 98.576)" style="font-family:'Asap-Regular';font-size:7px">650</text><text transform="translate(18.507 76.088)" style="font-family:'Asap-Regular';font-size:7px">700</text><text transform="translate(18.507 53.65)" style="font-family:'Asap-Regular';font-size:7px">750</text><text transform="translate(18.507 31.21)" style="font-family:'Asap-Regular';font-size:7px">800</text><text transform="translate(18.507 8.772)" style="font-family:'Asap-Regular';font-size:7px">850</text><text transform="translate(32.675 174.202)" style="font-family:'Asap-Regular';font-size:7px">0</text><text transform="translate(59.273 174.195)" style="font-family:'Asap-Regular';font-size:7px">10</text><text transform="translate(87.45 174.202)" style="font-family:'Asap-Regular';font-size:7px">20</text><text transform="translate(115.626 174.174)" style="font-family:'Asap-Regular';font-size:7px">30</text><text transform="translate(143.802 174.202)" style="font-family:'Asap-Regular';font-size:7px">40</text><text transform="translate(171.98 174.202)" style="font-family:'Asap-Regular';font-size:7px">50</text><text transform="translate(228.332 174.244)" style="font-family:'Asap-Regular';font-size:7px">70</text><text transform="translate(200.156 174.174)" style="font-family:'Asap-Regular';font-size:7px">60</text><text transform="translate(256.509 174.174)" style="font-family:'Asap-Regular';font-size:7px">80</text><path style="fill:none;stroke:#3a53a4;stroke-width:.5;stroke-linecap:square" d="M48.23 163.47c.83-7.09 2.14-17.04 4.25-28.84 2.49-13.98 3.72-20.97 5.77-27 1.82-5.35 8.48-24.14 26.24-38.88 12.17-10.1 23.99-13.68 37.24-17.7 17.71-5.37 36.73-7.17 45.59-8.01 2.91-.28 5.23-.45 6.88-.57 23.51-1.72 52.41-3.46 85.76-4.66"/><path style="fill:none;stroke:#3a53a4;stroke-width:.5;stroke-linecap:square" d="M62.4 163.47c2.99-16.52 7.78-29.29 11.62-37.84 3.84-8.54 9.72-21.28 20.64-33.12 23.06-25 55.62-31.55 81.34-36.72 5.55-1.12 16.41-3.05 29.14-4.68 10.55-1.35 19.61-2.14 32.17-3.24 9.39-.82 17.15-1.41 22.48-1.8"/><path style="fill:none;stroke:#3a53a4;stroke-width:.5;stroke-linecap:square" d="M82.49 163.47c9.27-29.66 23.38-46.86 31.3-55.12 17.18-17.92 35.08-24.83 53.72-32.04 16.43-6.35 30.25-9.07 48.26-12.6 17.8-3.49 32.87-5.32 43.72-6.35"/><path style="fill:none;stroke:#3a53a4;stroke-width:.5;stroke-linecap:square" d="M109.45 163.47c6.42-10.96 17.32-27.07 34.08-41.8 20.41-17.94 39.57-25.1 61.01-33.12a279.98 279.98 0 0154.94-14.4M146.89 163.47c13.12-15.42 25.45-25.44 34.28-31.72 18.21-12.94 35.04-19.55 53.12-26.64 10.18-4 18.73-6.82 24.58-8.64"/><text transform="rotate(-90 54.684 45.766)"><tspan x="0" y="0" style="font-family:'Asap-Medium';font-size:8px">Wage, </tspan><tspan x="23.6" y="0" style="font-family:'Asap-MediumItalic';font-size:8px">w</tspan></text><text transform="translate(121.934 186.07)"><tspan x="0" y="0" style="font-family:'Asap-Medium';font-size:8px">Employment, </tspan><tspan x="48.3" y="0" style="font-family:'Asap-MediumItalic';font-size:8px">N</tspan></text><text transform="translate(82.493 25.744)" style="font-family:'Asap-Regular';font-size:6px">Profit = 0</text><text transform="translate(167.39 129.972)"><tspan x="-15.8" y="7.2" style="font-family:'Asap-Regular';font-size:6px">12,000</tspan></text><text transform="translate(142.637 110.419)"><tspan x="-12.59" y="7.2" style="font-family:'Asap-Regular';font-size:6px">8,000</tspan></text><text transform="translate(118.39 94.487)"><tspan x="-12.59" y="7.2" style="font-family:'Asap-Regular';font-size:6px">5,000</tspan></text><text transform="translate(100.612 76.907)"><tspan x="-12.59" y="7.2" style="font-family:'Asap-Regular';font-size:6px">3,000</tspan></text><text transform="translate(52.054 65.353)" style="font-family:'Asap-Regular';font-size:6px">Profit = 1,500</text><line style="fill:none;stroke:#6d6e71;stroke-width:.5;stroke-linecap:square" x1="34.25" y1="163.47" x2="259.67" y2="163.47"/><text transform="translate(44.235 44.073)" style="font-family:'Asap-Regular';font-size:6px">Feasible set</text><line style="fill:none;stroke:#f15a27;stroke-width:.5" x1="34.25" y1="113.73" x2="259.67" y2="23.85"/><text transform="translate(263.306 23.852)" style="font-family:'Asap-Regular';font-size:6px">No-shirking wage</text><polyline style="fill:none;stroke:#0871b9;stroke-width:.5;stroke-linecap:square" points="259.67 27.04 34.25 28.82 34.25 163.47"/></svg>