<svg xmlns="http://www.w3.org/2000/svg" class="prefix__svglite" viewBox="0 0 810 370"><rect width="100%" height="100%" style="stroke:none;fill:#fff;stroke-linecap:round;stroke-linejoin:round;stroke-miterlimit:10"/><defs><clipPath id="prefix__a"><rect x="0" y="0" width="810" height="370" style="fill:none;stroke:#000;stroke-linecap:round;stroke-linejoin:round;stroke-miterlimit:10"/></clipPath></defs><g clip-path="url(#prefix__a)"><rect x="0" y="0" width="810" height="370" style="stroke-width:1.07;stroke:#fff;fill:#fff;stroke-linecap:round;stroke-linejoin:round;stroke-miterlimit:10"/><rect x="83.72" y="14.17" width="712.11" height="274.92" style="stroke-width:1.07;stroke:none;fill:#fff;stroke-linecap:round;stroke-linejoin:round;stroke-miterlimit:10"/><polyline points="83.72 289.09 795.83 289.09" style="stroke-width:1.07;stroke:#c6c4c4;stroke-linecap:butt;fill:none;stroke-linejoin:round;stroke-miterlimit:10"/><polyline points="83.72 220.36 795.83 220.36" style="stroke-width:1.07;stroke:#c6c4c4;stroke-linecap:butt;fill:none;stroke-linejoin:round;stroke-miterlimit:10"/><polyline points="83.72 151.63 795.83 151.63" style="stroke-width:1.07;stroke:#c6c4c4;stroke-linecap:butt;fill:none;stroke-linejoin:round;stroke-miterlimit:10"/><polyline points="83.72 82.9 795.83 82.9" style="stroke-width:1.07;stroke:#c6c4c4;stroke-linecap:butt;fill:none;stroke-linejoin:round;stroke-miterlimit:10"/><polyline points="83.72 14.17 795.83 14.17" style="stroke-width:1.07;stroke:#c6c4c4;stroke-linecap:butt;fill:none;stroke-linejoin:round;stroke-miterlimit:10"/><polyline points="83.72 66.06 218.08 64 352.44 76.72 513.67 84.97 580.85 157.48 638.63 203.52 688.34 225.17 719.24 205.93 759.55 149.92 775.67 145.1 785.08 133.08" style="stroke-width:1.07;stroke:#3a53a4;stroke-linecap:butt;fill:none;stroke-linejoin:round;stroke-miterlimit:10"/><polyline points="83.72 226.21 218.08 220.02 352.44 213.15 513.67 203.52 580.85 140.98 638.63 102.49 688.34 93.9 719.24 114.18 759.55 141.67 775.67 161.6 785.08 166.75" style="stroke-width:1.07;stroke:#ed1f24;stroke-linecap:butt;fill:none;stroke-linejoin:round;stroke-miterlimit:10"/><polyline points="83.72 231.36 218.08 239.95 352.44 233.77 513.67 235.48 580.85 225.17 638.63 217.96 688.34 204.21 719.24 203.52 759.55 232.05 775.67 219.33 785.08 223.8" style="stroke-width:1.07;stroke:#f49323;stroke-linecap:butt;fill:none;stroke-linejoin:round;stroke-miterlimit:10"/><polygon points="781.28 170.56 788.88 170.56 788.88 162.95 781.28 162.95" style="stroke-width:1.2;stroke:none;fill:#ed1f24;stroke-linecap:round;stroke-linejoin:round;stroke-miterlimit:10"/><circle cx="785.08" cy="133.08" r="3.8" style="stroke-width:1.2;stroke:#3a53a4;fill:#3a53a4;stroke-linecap:round;stroke-linejoin:round;stroke-miterlimit:10"/><circle cx="785.08" cy="223.8" r="3.8" style="stroke-width:1.2;stroke:#f49323;fill:#f49323;stroke-linecap:round;stroke-linejoin:round;stroke-miterlimit:10"/><polyline points="83.72 289.09 83.72 14.17" style="stroke-width:1.07;stroke:#464646;stroke-linecap:butt;fill:none;stroke-linejoin:round;stroke-miterlimit:10"/><text x="57.04" y="293.5" style="font-size:18px;font-family:Asap" textLength="9.63" lengthAdjust="spacingAndGlyphs">0</text><text x="47.41" y="224.77" style="font-size:18px;font-family:Asap" textLength="19.27" lengthAdjust="spacingAndGlyphs">20</text><text x="47.41" y="156.04" style="font-size:18px;font-family:Asap" textLength="19.27" lengthAdjust="spacingAndGlyphs">40</text><text x="47.41" y="87.31" style="font-size:18px;font-family:Asap" textLength="19.27" lengthAdjust="spacingAndGlyphs">60</text><text x="47.41" y="18.58" style="font-size:18px;font-family:Asap" textLength="19.27" lengthAdjust="spacingAndGlyphs">80</text><polyline points="76.64 289.09 83.72 289.09" style="stroke-width:1.07;stroke:#464646;stroke-linecap:butt;fill:none;stroke-linejoin:round;stroke-miterlimit:10"/><polyline points="76.64 220.36 83.72 220.36" style="stroke-width:1.07;stroke:#464646;stroke-linecap:butt;fill:none;stroke-linejoin:round;stroke-miterlimit:10"/><polyline points="76.64 151.63 83.72 151.63" style="stroke-width:1.07;stroke:#464646;stroke-linecap:butt;fill:none;stroke-linejoin:round;stroke-miterlimit:10"/><polyline points="76.64 82.9 83.72 82.9" style="stroke-width:1.07;stroke:#464646;stroke-linecap:butt;fill:none;stroke-linejoin:round;stroke-miterlimit:10"/><polyline points="76.64 14.17 83.72 14.17" style="stroke-width:1.07;stroke:#464646;stroke-linecap:butt;fill:none;stroke-linejoin:round;stroke-miterlimit:10"/><polyline points="83.72 289.09 795.83 289.09" style="stroke-width:1.07;stroke:#464646;stroke-linecap:butt;fill:none;stroke-linejoin:round;stroke-miterlimit:10"/><polyline points="83.72 296.18 83.72 289.09" style="stroke-width:1.07;stroke:#464646;stroke-linecap:butt;fill:none;stroke-linejoin:round;stroke-miterlimit:10"/><polyline points="218.08 296.18 218.08 289.09" style="stroke-width:1.07;stroke:#464646;stroke-linecap:butt;fill:none;stroke-linejoin:round;stroke-miterlimit:10"/><polyline points="352.44 296.18 352.44 289.09" style="stroke-width:1.07;stroke:#464646;stroke-linecap:butt;fill:none;stroke-linejoin:round;stroke-miterlimit:10"/><polyline points="486.8 296.18 486.8 289.09" style="stroke-width:1.07;stroke:#464646;stroke-linecap:butt;fill:none;stroke-linejoin:round;stroke-miterlimit:10"/><polyline points="621.16 296.18 621.16 289.09" style="stroke-width:1.07;stroke:#464646;stroke-linecap:butt;fill:none;stroke-linejoin:round;stroke-miterlimit:10"/><polyline points="755.52 296.18 755.52 289.09" style="stroke-width:1.07;stroke:#464646;stroke-linecap:butt;fill:none;stroke-linejoin:round;stroke-miterlimit:10"/><text x="64.45" y="318.78" style="font-size:18px;font-family:Asap" textLength="38.53" lengthAdjust="spacingAndGlyphs">1500</text><text x="198.81" y="318.78" style="font-size:18px;font-family:Asap" textLength="38.53" lengthAdjust="spacingAndGlyphs">1600</text><text x="333.17" y="318.78" style="font-size:18px;font-family:Asap" textLength="38.53" lengthAdjust="spacingAndGlyphs">1700</text><text x="467.53" y="318.78" style="font-size:18px;font-family:Asap" textLength="38.53" lengthAdjust="spacingAndGlyphs">1800</text><text x="601.89" y="318.78" style="font-size:18px;font-family:Asap" textLength="38.53" lengthAdjust="spacingAndGlyphs">1900</text><text x="736.25" y="318.78" style="font-size:18px;font-family:Asap" textLength="38.53" lengthAdjust="spacingAndGlyphs">2000</text><text x="419.68" y="351.59" style="font-size:20px;font-weight:600;font-family:Asap" textLength="40.18" lengthAdjust="spacingAndGlyphs">Year</text><text transform="rotate(-90 146.035 117.815)" style="font-size:20px;font-weight:600;font-family:Asap" textLength="50.31" lengthAdjust="spacingAndGlyphs">Share</text><text transform="rotate(-90 118.48 90.26)" style="font-size:20px;font-weight:600;font-family:Asap" textLength="17.88" lengthAdjust="spacingAndGlyphs">of</text><text transform="rotate(-90 107.135 78.915)" style="font-size:20px;font-weight:600;font-family:Asap" textLength="50.89" lengthAdjust="spacingAndGlyphs">world</text><text transform="rotate(-90 79.29 51.07)" style="font-size:20px;font-weight:600;font-family:Asap" textLength="58.8" lengthAdjust="spacingAndGlyphs">output</text><text transform="rotate(-90 47.49 19.27)" style="font-size:20px;font-weight:600;font-family:Asap" textLength="27.34" lengthAdjust="spacingAndGlyphs">(%)</text><rect x="170.98" y="111.01" width="110.33" height="81.24" style="stroke-width:1.07;stroke:none;fill:#fff;stroke-linecap:round;stroke-linejoin:round;stroke-miterlimit:10"/><line x1="179.29" y1="132.77" x2="201.97" y2="132.77" style="stroke-width:1.07;stroke:#3a53a4;stroke-linecap:butt;fill:none;stroke-linejoin:round;stroke-miterlimit:10"/><circle cx="199.13" cy="132.77" r="5.7" style="stroke-width:1.2;stroke:#3a53a4;fill:#3a53a4;stroke-linecap:round;stroke-linejoin:round;stroke-miterlimit:10"/><line x1="179.29" y1="154.37" x2="201.97" y2="154.37" style="stroke-width:1.07;stroke:#ed1f24;stroke-linecap:butt;fill:none;stroke-linejoin:round;stroke-miterlimit:10"/><polygon points="193.43 160.08 204.84 160.08 204.84 148.67 193.43 148.67" style="stroke-width:1.2;stroke:none;fill:#ed1f24;stroke-linecap:round;stroke-linejoin:round;stroke-miterlimit:10"/><line x1="179.29" y1="175.97" x2="201.97" y2="175.97" style="stroke-width:1.07;stroke:#f49323;stroke-linecap:butt;fill:none;stroke-linejoin:round;stroke-miterlimit:10"/><circle cx="199.13" cy="175.97" r="5.7" style="stroke-width:1.2;stroke:#f49323;fill:#f49323;stroke-linecap:round;stroke-linejoin:round;stroke-miterlimit:10"/><text x="210.28" y="136.69" style="font-size:16px;font-family:Asap" textLength="29.38" lengthAdjust="spacingAndGlyphs">Asia</text><text x="210.28" y="158.29" style="font-size:16px;font-family:Asap" textLength="26.45" lengthAdjust="spacingAndGlyphs">The</text><text x="240.56" y="158.29" style="font-size:16px;font-family:Asap" textLength="35.27" lengthAdjust="spacingAndGlyphs">West</text><text x="210.28" y="179.89" style="font-size:16px;font-family:Asap" textLength="26.45" lengthAdjust="spacingAndGlyphs">The</text><text x="240.56" y="179.89" style="font-size:16px;font-family:Asap" textLength="26.56" lengthAdjust="spacingAndGlyphs">rest</text></g></svg>