<svg version="1.1" xmlns="http://www.w3.org/2000/svg" x="0" y="0" viewBox="0 0 311.81 208.81" style="enable-background:new 0 0 311.81 208.81" xml:space="preserve"><text transform="translate(49.139 182.891)" style="font-family:'Asap-Regular';font-size:7.0788px">0</text><text transform="translate(57.14 190.259)" style="font-family:'Asap-Regular';font-size:7.0788px">0</text><text transform="translate(46.36 77.604)" style="font-family:'Asap-Regular';font-size:7.0788px">12</text><text transform="translate(49.97 147.99)" style="font-family:'Asap-Regular';font-size:7.0788px">4</text><text transform="translate(46.643 42.73)" style="font-family:'Asap-Regular';font-size:7.0788px">16</text><text transform="translate(46.926 6.582)" style="font-family:'Asap-Regular';font-size:7.0788px">20</text><text transform="translate(89.899 190.344)" style="font-family:'Asap-Regular';font-size:7.0788px">4</text><text transform="translate(122.338 190.258)" style="font-family:'Asap-Regular';font-size:7.0788px">8</text><text transform="translate(153.84 190.358)" style="font-family:'Asap-Regular';font-size:7.0788px">12</text><text transform="translate(220.05 190.258)" style="font-family:'Asap-Regular';font-size:7.0788px">20</text><path style="fill:none;stroke:#6d6e71;stroke-width:.5;stroke-linecap:square;stroke-linejoin:round" d="M59.16 4.41V180.77"/><line style="fill:none;stroke:#6d6e71;stroke-width:.5;stroke-linecap:square" x1="59.56" y1="180.77" x2="256.6" y2="180.77"/><text transform="translate(252.404 190.258)" style="font-family:'Asap-Regular';font-size:7.0788px">24</text><line style="fill:none;stroke:#6d6e71;stroke-width:.5;stroke-linecap:square" x1="255.84" y1="180.77" x2="255.84" y2="182.89"/><line style="fill:none;stroke:#6d6e71;stroke-width:.5;stroke-linecap:square" x1="222.96" y1="180.77" x2="222.96" y2="182.89"/><line style="fill:none;stroke:#6d6e71;stroke-width:.5;stroke-linecap:square" x1="190.44" y1="180.77" x2="190.44" y2="182.89"/><line style="fill:none;stroke:#6d6e71;stroke-width:.5;stroke-linecap:square" x1="59.16" y1="181.24" x2="59.16" y2="183.36"/><line style="fill:none;stroke:#6d6e71;stroke-width:.5;stroke-linecap:square" x1="92.05" y1="180.77" x2="92.05" y2="182.89"/><line style="fill:none;stroke:#6d6e71;stroke-width:.5;stroke-linecap:square" x1="124.89" y1="180.77" x2="124.89" y2="182.89"/><line style="fill:none;stroke:#6d6e71;stroke-width:.5;stroke-linecap:square" x1="157.36" y1="180.77" x2="157.36" y2="182.89"/><line style="fill:none;stroke:#6d6e71;stroke-width:.5;stroke-linecap:square" x1="58.93" y1="180.77" x2="56.81" y2="180.77"/><line style="fill:none;stroke:#6d6e71;stroke-width:.5;stroke-linecap:square" x1="58.93" y1="110.13" x2="56.81" y2="110.13"/><line style="fill:none;stroke:#6d6e71;stroke-width:.5;stroke-linecap:square" x1="58.93" y1="4.41" x2="56.81" y2="4.41"/><line style="fill:none;stroke:#6d6e71;stroke-width:.5;stroke-linecap:square" x1="58.93" y1="40.18" x2="56.81" y2="40.18"/><text transform="translate(185.647 190.257)" style="font-family:'Asap-Regular';font-size:7.0788px">16</text><text transform="translate(50.098 112.692)" style="font-family:'Asap-Regular';font-size:7.0788px">8</text><line style="fill:none;stroke:#6d6e71;stroke-width:.5;stroke-linecap:square" x1="58.71" y1="75.12" x2="56.59" y2="75.12"/><line style="fill:none;stroke:#6d6e71;stroke-width:.5;stroke-linecap:square" x1="58.93" y1="145.29" x2="56.81" y2="145.29"/><text transform="translate(116.79 202.761)"><tspan x="0" y="0" style="font-family:'Asap-Medium';font-size:8px">Angela’s hours of free time, </tspan><tspan x="97.97" y="0" style="font-family:'Asap-MediumItalic';font-size:8px">t</tspan></text><text transform="rotate(-90 81.453 42.6)"><tspan x="0" y="0" style="font-family:'Asap-Medium';font-size:8px">Bushels of grain, </tspan><tspan x="59.74" y="0" style="font-family:'Asap-MediumItalic';font-size:8px">c</tspan></text><g><text transform="translate(80.242 107.467)"><tspan x="0" y="0" style="font-family:'Asap-Regular';font-size:6px">Angela’s</tspan><tspan x="0" y="7.2" style="font-family:'Asap-Regular';font-size:6px">feasible</tspan><tspan x="0" y="14.4" style="font-family:'Asap-Regular';font-size:6px">frontier</tspan></text><text transform="translate(147.056 15.564)"><tspan x="0" y="0" style="font-family:'Asap-Regular';font-size:6px">Reservation</tspan><tspan x="0" y="7.2" style="font-family:'Asap-Regular';font-size:6px">utility: </tspan><tspan x="17.92" y="7.2" style="font-family:'Asap-Italic';font-size:6px">u </tspan><tspan x="22.7" y="7.2" style="font-family:'Asap-Regular';font-size:6px">= 21</tspan></text><text transform="translate(167.592 120.513)" style="font-family:'Asap-Regular';font-size:6px">Rent, 3</text><text transform="translate(197.121 107.467)" style="font-family:'Asap-Regular';font-size:6px">A</text><text transform="translate(197.193 137.841)" style="font-family:'Asap-Regular';font-size:6px">L</text><line style="fill:none;stroke:#939598;stroke-width:.5;stroke-linecap:square;stroke-linejoin:round" x1="189.38" y1="112.73" x2="189.38" y2="133.09"/><polygon style="fill:#939598" points="187.34 114.39 187.7 114.73 189.38 112.93 191.06 114.73 191.42 114.39 189.38 112.19"/><polygon style="fill:#939598" points="187.34 131.43 187.7 131.09 189.38 132.9 191.06 131.09 191.42 131.43 189.38 133.63"/><path style="fill:none;stroke:#3c54a4;stroke-width:.5" d="M67.1 4.28c2.41 4.63 5.64 10.35 9.88 16.64 6.58 9.78 12.63 16.6 15.18 19.39 2.54 2.78 7.16 7.63 17.74 16.64 6.23 5.31 16.71 14.19 32.19 24.87 14.59 10.07 26.02 16.5 38.04 23.23 17.54 9.81 31.36 16.43 45.54 23.23 12.51 6 23.05 10.76 30.54 14.08"/><path style="fill:none;stroke:#f49323;stroke-width:.5" d="M255.82 180.58c-.64-10.44-3.86-17.84-6.2-22.13-2.68-4.91-5.51-8.18-9.33-12.44a113.868 113.868 0 00-19.2-17.01c-22.52-15.86-50.59-28.61-58.16-32.01-19.1-8.57-33.78-14.22-42.06-17.37-26.16-9.96-50.61-17.59-61.52-20.92"/><path style="fill:none;stroke:#7f8182;stroke-width:.5" d="M255.79 168.19a917.775 917.775 0 01-36.65-17.1c-21.52-10.62-37.6-19.61-45.11-23.88-11.49-6.53-19.79-11.27-30.86-18.67-6.63-4.44-15.19-10.19-25.75-18.87-11.62-9.55-19.88-17.9-24.17-22.41-7.47-7.83-12.7-13.37-18.28-22.01-2.93-4.54-6.75-10.44-9.93-19.06a83.738 83.738 0 01-4.82-21.62"/><line style="fill:none;stroke:#939598;stroke-width:.5;stroke-linecap:square;stroke-linejoin:round" x1="82.95" y1="50.57" x2="141.51" y2="23.54"/><polygon style="fill:#939598" points="85.31 51.73 85.47 51.26 83.13 50.49 84.06 48.21 83.6 48.02 82.46 50.8"/><path style="fill:none;stroke:#f49323;stroke-width:.5;stroke-linecap:square;stroke-dasharray:1.433" d="M59.16 85.41A829.19 829.19 0 0199.39 97.9c10.05 3.4 21.54 7.29 36.36 13.29 24.46 9.89 42.99 19.44 54.5 25.74 13.18 7.21 20.39 11.22 29.73 18.33a174.945 174.945 0 0126.85 25.34"/><circle cx="189.12" cy="135.8" r="1.13"/><circle cx="189.8" cy="110.4" r="1.13"/></g></svg>