<svg version="1.1" xmlns="http://www.w3.org/2000/svg" x="0" y="0" viewBox="0 0 311.81 202.38" style="enable-background:new 0 0 311.81 202.38" xml:space="preserve"><line style="fill:none;stroke:#6d6e71;stroke-width:.5;stroke-linecap:square;stroke-linejoin:round" x1="275.59" y1="148.95" x2="275.59" y2="151.07"/><polyline style="fill:none;stroke:#939598;stroke-width:.5;stroke-miterlimit:10;stroke-dasharray:1.4173" points="194.46 148.66 194.46 81.66 194.46 81.66"/><line style="fill:none;stroke:#939598;stroke-width:.5;stroke-miterlimit:10;stroke-dasharray:1.4173" x1="208.86" y1="148.45" x2="208.86" y2="63.52"/><line style="fill:none;stroke:#939598;stroke-width:.5;stroke-miterlimit:10;stroke-dasharray:1.4173" x1="136.63" y1="148.66" x2="136.63" y2="81.66"/><line style="fill:none;stroke:#6d6e71;stroke-width:.5;stroke-linecap:square;stroke-linejoin:round" x1="50.48" y1="11.44" x2="48.35" y2="11.44"/><line style="fill:none;stroke:#6d6e71;stroke-width:.5;stroke-linecap:square;stroke-linejoin:round" x1="50.48" y1="81.66" x2="48.35" y2="81.66"/><line style="fill:none;stroke:#6d6e71;stroke-width:.5;stroke-linecap:square;stroke-linejoin:round" x1="50.48" y1="148.45" x2="48.35" y2="148.45"/><text transform="rotate(-90 61.644 38.443)"><tspan x="0" y="0" style="font-family:'Asap-Medium';font-size:8px">Price, </tspan><tspan x="21.3" y="0" style="font-family:'Asap-MediumItalic';font-size:8px">P</tspan></text><line style="fill:none;stroke:#6d6e71;stroke-width:.5;stroke-linecap:square;stroke-linejoin:round" x1="275.59" y1="148.95" x2="275.59" y2="151.07"/><line style="fill:none;stroke:#6d6e71;stroke-width:.5;stroke-linecap:square;stroke-linejoin:round" x1="50.28" y1="148.95" x2="50.28" y2="151.07"/><text transform="translate(149.112 200.065)"><tspan x="0" y="0" style="font-family:'Asap-Medium';font-size:8px">Quantity, </tspan><tspan x="34.06" y="0" style="font-family:'Asap-MediumItalic';font-size:8px">Q</tspan></text><text transform="translate(252.666 120.303)" style="font-family:'Asap-Regular';font-size:6px">Demand</text><text transform="translate(37.275 149.523)" style="font-family:'Asap-Regular';font-size:7px">0</text><line style="fill:none;stroke:#6d6e71;stroke-width:.5;stroke-linecap:square;stroke-linejoin:round" x1="194.46" y1="148.95" x2="194.46" y2="151.07"/><line style="fill:none;stroke:#ed1f24;stroke-width:.5;stroke-miterlimit:10" x1="170.49" y1="7.58" x2="250.76" y2="123.25"/><polyline style="fill:none;stroke:#ed2124;stroke-width:.5;stroke-miterlimit:10" points="50.28 152.42 50.28 159.04 136.63 159.04 136.63 152.42"/><line style="fill:none;stroke:#ed2124;stroke-width:.5;stroke-miterlimit:10" x1="94.6" y1="159.04" x2="94.6" y2="164.38"/><text transform="translate(37.275 82.98)" style="font-family:'Asap-Italic';font-size:7px">c</text><text transform="translate(244.443 24.062)" style="font-family:'Asap-Regular';font-size:6px">Original supply</text><text transform="translate(88.27 169.545)" style="fill:#ec2426;font-family:'Asap-Italic';font-size:6px">Q</text><text transform="matrix(.583 0 0 .583 92.655 171.543)" style="fill:#ec2426;font-family:'Asap-Regular';font-size:6px">OPEC</text><line style="fill:none;stroke:#939598;stroke-width:.5;stroke-miterlimit:10" x1="195.73" y1="81.66" x2="136.63" y2="81.66"/><line style="fill:none;stroke:#939598;stroke-width:.5;stroke-miterlimit:10" x1="195.24" y1="81.66" x2="245.91" y2="11.44"/><line style="fill:#f1f2f2" x1="113.87" y1="42.08" x2="194.46" y2="41.98"/><line style="fill:none;stroke:#6d6e71;stroke-width:.5;stroke-linecap:square;stroke-linejoin:round" x1="50.28" y1="148.45" x2="275.59" y2="148.45"/><line style="fill:none;stroke:#6d6e71;stroke-width:.5;stroke-linecap:square;stroke-linejoin:round" x1="50.28" y1="148.45" x2="50.28" y2="11.44"/><line style="fill:none;stroke:#939598;stroke-width:.5;stroke-miterlimit:10;stroke-dasharray:1.4173" x1="208.5" y1="63.52" x2="50.28" y2="63.52"/><line style="fill:none;stroke:#6d6e71;stroke-width:.5;stroke-linecap:square;stroke-linejoin:round" x1="50.48" y1="63.52" x2="48.35" y2="63.52"/><text transform="translate(34.497 62.98)" style="font-family:'Asap-Italic';font-size:7px">P</text><text transform="matrix(.583 0 0 .583 38.487 65.312)" style="font-family:'Asap-Regular';font-size:7px">0</text><line style="fill:none;stroke:#6d6e71;stroke-width:.5;stroke-linecap:square;stroke-linejoin:round" x1="208.91" y1="148.45" x2="208.91" y2="150.58"/><text transform="translate(206.576 161.212)" style="font-family:'Asap-Italic';font-size:6px">Q</text><text transform="matrix(.583 0 0 .583 210.962 163.21)" style="font-family:'Asap-Regular';font-size:6px">0</text><text transform="translate(192.126 161.71)" style="font-family:'Asap-Italic';font-size:6px">Q</text><text transform="matrix(1.4943 0 0 1 192.872 161.71)" style="font-family:'Asap-Regular';font-size:8px">¯</text><line style="fill:none;stroke:#3c54a4;stroke-width:.5;stroke-miterlimit:10" x1="50.49" y1="81.66" x2="136.63" y2="81.66"/></svg>