<svg version="1.1" xmlns="http://www.w3.org/2000/svg" x="0" y="0" viewBox="0 0 311.81 197.84" style="enable-background:new 0 0 311.81 197.84" xml:space="preserve"><switch><g><polyline style="fill:none;stroke:#939598;stroke-width:.5;stroke-linejoin:round;stroke-dasharray:1.4173" points="169.47 102.42 41.19 102.42 39.7 102.42"/><path style="fill:none;stroke:#3a53a4;stroke-width:.5;stroke-linejoin:round" d="M41.11 134.97c95.53-9.98 182.46-52.17 257.21-105.93"/><path style="fill:none;stroke:#a1b0da;stroke-width:.5;stroke-linejoin:round" d="M41.11 134.97s146.34-3.3 260.49-67.63"/><text transform="rotate(-90 54.725 45.06)"><tspan x="0" y="0" style="font-family:'Asap-Medium';font-size:8px">Price, </tspan><tspan x="21.3" y="0" style="font-family:'Asap-MediumItalic';font-size:8px">P</tspan><tspan x="25.86" y="0" style="font-family:'Asap-Medium';font-size:8px"> (€</tspan><tspan x="34.83" y="0" style="font-family:'Asap-Regular';font-size:8px">)</tspan></text><text transform="translate(145.122 195.075)"><tspan x="0" y="0" style="font-family:'Asap-Medium';font-size:8px">Quantity of loaves, </tspan><tspan x="67.84" y="0" style="font-family:'Asap-MediumItalic';font-size:8px">Q</tspan></text><text transform="translate(38.706 179.684)" style="font-family:'Asap-Regular';font-size:7px">0</text><rect x="38.19" y="171.74" style="fill:none" width="5.65" height="10.42"/><text transform="translate(57.068 179.684)" style="font-family:'Asap-Regular';font-size:7px">1,000</text><rect x="56.47" y="171.74" style="fill:none" width="20.54" height="10.42"/><text transform="translate(82.873 179.684)" style="font-family:'Asap-Regular';font-size:7px">2,000</text><text transform="translate(108.678 179.684)" style="font-family:'Asap-Regular';font-size:7px">3,000</text><text transform="translate(134.482 179.684)" style="font-family:'Asap-Regular';font-size:7px">4,000</text><rect x="133.63" y="171.74" style="fill:none" width="20.54" height="10.42"/><text transform="translate(160.287 179.684)" style="font-family:'Asap-Regular';font-size:7px">5,000</text><rect x="159.36" y="171.74" style="fill:none" width="20.54" height="10.42"/><text transform="translate(185.596 179.684)" style="font-family:'Asap-Regular';font-size:7px">6,000</text><rect x="185.08" y="171.74" style="fill:none" width="20.54" height="10.42"/><text transform="translate(211.402 179.684)" style="font-family:'Asap-Regular';font-size:7px">7,000</text><rect x="210.8" y="171.74" style="fill:none" width="20.54" height="10.42"/><text transform="translate(237.206 179.684)" style="font-family:'Asap-Regular';font-size:7px">8,000</text><rect x="236.52" y="171.74" style="fill:none" width="20.54" height="10.42"/><text transform="translate(263.01 179.684)" style="font-family:'Asap-Regular';font-size:7px">9,000</text><rect x="262.24" y="171.74" style="fill:none" width="20.54" height="10.42"/><text transform="translate(286.83 179.684)" style="font-family:'Asap-Regular';font-size:7px">10,000</text><rect x="285.88" y="171.74" style="fill:none" width="24.7" height="10.42"/><path style="fill:none;stroke:#f15c5b;stroke-width:.5;stroke-linejoin:round" d="M40.86 14.34c75.97 66.03 164.12 111.69 257.21 141.53"/><text transform="translate(244.445 22.397)" style="fill:#231f20;font-family:'Asap-Regular';font-size:6px">Original supply (MC)</text><text transform="translate(253.847 98.767)" style="fill:#231f20;font-family:'Asap-Regular';font-size:6px">New supply (MC)</text><text transform="translate(276.01 134.22)" style="fill:#231f20;font-family:'Asap-Regular';font-size:6px">Demand</text><line style="fill:none;stroke:#6d6e71;stroke-width:.5;stroke-linecap:square;stroke-linejoin:round" x1="40.94" y1="167.53" x2="40.94" y2="4.76"/><line style="fill:none;stroke:#6d6e71;stroke-width:.5;stroke-linecap:square;stroke-linejoin:round" x1="298" y1="167.96" x2="298" y2="170.09"/><line style="fill:none;stroke:#6d6e71;stroke-width:.5;stroke-linecap:square;stroke-linejoin:round" x1="272.69" y1="167.96" x2="272.69" y2="170.09"/><line style="fill:none;stroke:#6d6e71;stroke-width:.5;stroke-linecap:square;stroke-linejoin:round" x1="246.88" y1="167.96" x2="246.88" y2="170.09"/><line style="fill:none;stroke:#6d6e71;stroke-width:.5;stroke-linecap:square;stroke-linejoin:round" x1="221.08" y1="167.96" x2="221.08" y2="170.09"/><line style="fill:none;stroke:#6d6e71;stroke-width:.5;stroke-linecap:square;stroke-linejoin:round" x1="195.27" y1="167.96" x2="195.27" y2="170.09"/><line style="fill:none;stroke:#6d6e71;stroke-width:.5;stroke-linecap:square;stroke-linejoin:round" x1="169.47" y1="167.96" x2="169.47" y2="170.09"/><line style="fill:none;stroke:#6d6e71;stroke-width:.5;stroke-linecap:square;stroke-linejoin:round" x1="143.66" y1="167.96" x2="143.66" y2="170.09"/><line style="fill:none;stroke:#6d6e71;stroke-width:.5;stroke-linecap:square;stroke-linejoin:round" x1="118.35" y1="167.96" x2="118.35" y2="170.09"/><line style="fill:none;stroke:#6d6e71;stroke-width:.5;stroke-linecap:square;stroke-linejoin:round" x1="92.55" y1="167.96" x2="92.55" y2="170.09"/><line style="fill:none;stroke:#6d6e71;stroke-width:.5;stroke-linecap:square;stroke-linejoin:round" x1="66.75" y1="167.96" x2="66.75" y2="170.09"/><line style="fill:none;stroke:#6d6e71;stroke-width:.5;stroke-linecap:square;stroke-linejoin:round" x1="40.94" y1="167.96" x2="40.94" y2="170.09"/><line style="fill:none;stroke:#6d6e71;stroke-width:.5;stroke-linecap:square;stroke-linejoin:round" x1="40.94" y1="167.53" x2="298" y2="167.53"/><line style="fill:none;stroke:#6d6e71;stroke-width:.5;stroke-linecap:square;stroke-linejoin:round" x1="40.51" y1="4.76" x2="38.38" y2="4.76"/><line style="fill:none;stroke:#6d6e71;stroke-width:.5;stroke-linecap:square;stroke-linejoin:round" x1="40.51" y1="102.42" x2="38.38" y2="102.42"/><line style="fill:none;stroke:#6d6e71;stroke-width:.5;stroke-linecap:square;stroke-linejoin:round" x1="40.51" y1="167.53" x2="38.38" y2="167.53"/><line style="fill:none;stroke:#6d6e71;stroke-width:.5;stroke-linecap:square;stroke-linejoin:round" x1="40.51" y1="37.31" x2="38.38" y2="37.31"/><line style="fill:none;stroke:#6d6e71;stroke-width:.5;stroke-linecap:square;stroke-linejoin:round" x1="40.51" y1="69.86" x2="38.38" y2="69.86"/><line style="fill:none;stroke:#6d6e71;stroke-width:.5;stroke-linecap:square;stroke-linejoin:round" x1="40.51" y1="134.97" x2="38.38" y2="134.97"/><line style="fill:none;stroke:#939598;stroke-width:.5;stroke-linejoin:round;stroke-dasharray:1.4173" x1="169.62" y1="102.42" x2="169.62" y2="167.28"/><text transform="translate(168.077 97.921)" style="font-family:'Asap-Regular';font-size:6px">A</text><text transform="translate(188.103 107.686)" style="font-family:'Asap-Regular';font-size:6px">B</text><polyline style="fill:none;stroke:#939598;stroke-width:.5;stroke-linejoin:round;stroke-dasharray:1.4173" points="189.24 167.28 189.24 111.78 41.02 111.78"/><g><line style="fill:none;stroke:#939598;stroke-width:.5;stroke-miterlimit:10" x1="223.73" y1="80.16" x2="256.85" y2="80.16"/><polygon style="fill:#939598" points="255.2 82.2 254.85 81.84 256.66 80.16 254.85 78.48 255.2 78.11 257.39 80.16"/></g><text transform="translate(28.051 7.486)" style="font-family:'Asap-Regular';font-size:7px">5</text><text transform="translate(28.051 39.886)" style="font-family:'Asap-Regular';font-size:7px">4</text><text transform="translate(28.051 72.287)" style="font-family:'Asap-Regular';font-size:7px">3</text><text transform="translate(28.051 104.686)" style="font-family:'Asap-Regular';font-size:7px">2</text><text transform="translate(28.051 137.086)" style="font-family:'Asap-Regular';font-size:7px">1</text><text transform="translate(28.051 169.486)" style="font-family:'Asap-Regular';font-size:7px">0</text><circle cx="169.47" cy="102.42" r="1.13"/><circle cx="189.24" cy="111.78" r="1.13"/></g></switch></svg>