<svg version="1.1" xmlns="http://www.w3.org/2000/svg" x="0" y="0" viewBox="0 0 311.81 198.71" style="enable-background:new 0 0 311.81 198.71" xml:space="preserve"><line style="fill:none;stroke:#d5daef;stroke-width:.5" x1="291.42" y1="135.29" x2="35.16" y2="135.29"/><line style="fill:none;stroke:#6d6e71;stroke-width:.5;stroke-miterlimit:10" x1="290.93" y1="167.55" x2="34.73" y2="167.55"/><line style="fill:none;stroke:#6d6e71;stroke-width:.5;stroke-miterlimit:10" x1="35.13" y1="6" x2="35.13" y2="167.55"/><line style="fill:none;stroke:#6d6e70;stroke-width:.5;stroke-linecap:square" x1="290.74" y1="167.55" x2="290.74" y2="170.07"/><line style="fill:none;stroke:#6d6e70;stroke-width:.5;stroke-linecap:square" x1="35.13" y1="167.55" x2="35.13" y2="170.07"/><line style="fill:none;stroke:#6d6e70;stroke-width:.5;stroke-linecap:square" x1="35.13" y1="167.55" x2="32.6" y2="167.55"/><line style="fill:none;stroke:#6d6e70;stroke-width:.5;stroke-linecap:square" x1="35.13" y1="151.42" x2="32.6" y2="151.42"/><line style="fill:none;stroke:#6d6e70;stroke-width:.5;stroke-linecap:square" x1="35.13" y1="135.29" x2="32.6" y2="135.29"/><line style="fill:none;stroke:#6d6e70;stroke-width:.5;stroke-linecap:square" x1="35.13" y1="119.17" x2="32.6" y2="119.17"/><line style="fill:none;stroke:#6d6e70;stroke-width:.5;stroke-linecap:square" x1="35.13" y1="54.66" x2="32.6" y2="54.66"/><line style="fill:none;stroke:#6d6e70;stroke-width:.5;stroke-linecap:square" x1="35.13" y1="70.79" x2="32.6" y2="70.79"/><line style="fill:none;stroke:#6d6e70;stroke-width:.5;stroke-linecap:square" x1="35.13" y1="86.92" x2="32.6" y2="86.92"/><line style="fill:none;stroke:#6d6e70;stroke-width:.5;stroke-linecap:square" x1="35.13" y1="103.04" x2="32.6" y2="103.04"/><line style="fill:none;stroke:#6d6e70;stroke-width:.5;stroke-linecap:square" x1="35.13" y1="6" x2="32.6" y2="6"/><line style="fill:none;stroke:#6d6e70;stroke-width:.5;stroke-linecap:square" x1="35.13" y1="22.41" x2="32.6" y2="22.41"/><line style="fill:none;stroke:#6d6e70;stroke-width:.5;stroke-linecap:square" x1="35.13" y1="38.54" x2="32.6" y2="38.54"/><line style="fill:none;stroke:#6d6e70;stroke-width:.5;stroke-linecap:square" x1="259.35" y1="167.55" x2="259.35" y2="170.07"/><line style="fill:none;stroke:#6d6e70;stroke-width:.5;stroke-linecap:square" x1="195.29" y1="167.55" x2="195.29" y2="170.07"/><line style="fill:none;stroke:#6d6e70;stroke-width:.5;stroke-linecap:square" x1="227.32" y1="167.55" x2="227.32" y2="170.07"/><line style="fill:none;stroke:#6d6e70;stroke-width:.5;stroke-linecap:square" x1="163.25" y1="167.55" x2="163.25" y2="170.07"/><line style="fill:none;stroke:#6d6e70;stroke-width:.5;stroke-linecap:square" x1="131.22" y1="167.55" x2="131.22" y2="170.07"/><line style="fill:none;stroke:#6d6e70;stroke-width:.5;stroke-linecap:square" x1="99.19" y1="167.55" x2="99.19" y2="170.07"/><line style="fill:none;stroke:#6d6e70;stroke-width:.5;stroke-linecap:square" x1="67.16" y1="167.55" x2="67.16" y2="170.07"/><text transform="translate(114.334 194.722)"><tspan x="0" y="0" style="font-family:'Asap-Medium';font-size:8px">Quantity of Ch</tspan><tspan x="51.02" y="0" style="font-family:'Asap-Medium';font-size:8px">e</tspan><tspan x="55.25" y="0" style="font-family:'Asap-Medium';font-size:8px">erios, </tspan><tspan x="75.97" y="0" style="font-family:'Asap-MediumItalic';font-size:8px">Q</tspan><tspan x="81.82" y="0" style="font-family:'Asap-Medium';font-size:8px"> (pounds)</tspan></text><text transform="rotate(-90 71.155 60.814)"><tspan x="0" y="0" style="font-family:'Asap-Medium';font-size:8px">Price, </tspan><tspan x="21.3" y="0" style="font-family:'Asap-MediumItalic';font-size:8px">P</tspan><tspan x="25.86" y="0" style="font-family:'Asap-Medium';font-size:8px"> (dollars per pound)</tspan></text><text transform="translate(25.318 170.073)" style="font-family:'Asap-Regular';font-size:7px">0</text><text transform="translate(33.604 179.743)" style="font-family:'Asap-Regular';font-size:7px">0</text><text transform="translate(21.574 7.97)" style="font-family:'Asap-Regular';font-size:7px">10</text><text transform="translate(288.922 179.743)" style="font-family:'Asap-Regular';font-size:7px">80,000</text><text transform="translate(254.962 179.743)" style="font-family:'Asap-Regular';font-size:7px">70,000</text><text transform="translate(221 179.743)" style="font-family:'Asap-Regular';font-size:7px">60,000</text><text transform="translate(187.04 179.743)" style="font-family:'Asap-Regular';font-size:7px">50,000</text><text transform="translate(153.08 179.743)" style="font-family:'Asap-Regular';font-size:7px">40,000</text><text transform="translate(119.12 179.743)" style="font-family:'Asap-Regular';font-size:7px">30,000</text><text transform="translate(85.16 179.743)" style="font-family:'Asap-Regular';font-size:7px">20,000</text><text transform="translate(51.2 179.743)" style="font-family:'Asap-Regular';font-size:7px">10,000</text><text transform="translate(25.318 24.18)" style="font-family:'Asap-Regular';font-size:7px">9</text><text transform="translate(25.318 40.39)" style="font-family:'Asap-Regular';font-size:7px">8</text><text transform="translate(25.318 56.6)" style="font-family:'Asap-Regular';font-size:7px">7</text><text transform="translate(25.318 72.81)" style="font-family:'Asap-Regular';font-size:7px">6</text><text transform="translate(25.318 89.02)" style="font-family:'Asap-Regular';font-size:7px">5</text><text transform="translate(25.318 105.23)" style="font-family:'Asap-Regular';font-size:7px">4</text><text transform="translate(25.318 121.441)" style="font-family:'Asap-Regular';font-size:7px">3</text><text transform="translate(25.318 137.652)" style="font-family:'Asap-Regular';font-size:7px">2</text><text transform="translate(25.318 153.862)" style="font-family:'Asap-Regular';font-size:7px">1</text><path style="fill:none;stroke:#a1b0da;stroke-width:.5" d="M291.42 133.34c-49.81-.68-88.32-1.26-109.28-1.57-1.08-.02-15.26-.23-33.79-.87-8.21-.29-13.53-.53-19.36-.87-14-.83-22.44-1.78-25.17-2.1-10.51-1.22-15.85-2.28-19.01-2.97-6.06-1.32-9.44-2.08-13.88-4.06-3.7-1.65-9.23-4.14-14.15-9.64-3.16-3.53-4.9-6.95-6.11-9.37-2.36-4.72-3.36-8.88-4.44-12.95-2.08-7.85-2.62-13.91-3.33-23.14-1.41-18.21-1.94-27.55-1.94-27.55-.43-7.47-1.07-18.43-1.94-31.96"/><path style="fill:none;stroke:#5b73b8;stroke-width:.5" d="M291.42 129.32c-20.67-.46-38.32-1.1-52.02-1.68-22.47-.96-37.38-1.89-46.74-2.52-16.2-1.1-31.98-2.41-50.07-5.04-3.33-.49-14.16-2.1-27.82-5.89-10.61-2.94-15.21-5.05-16.97-5.89-4.31-2.05-11.86-5.72-19.47-13.17-6.62-6.49-10.16-12.77-12.24-16.54-4.39-7.94-6.13-14.29-8.9-24.38-2.81-10.23-4.13-18.31-5.56-27.19-1.39-8.52-2.25-15.73-2.8-21.02"/><path style="fill:none;stroke:#3a53a4;stroke-width:.5" d="M59.4 6c.61 3.71 1.49 8.48 2.78 14 .81 3.46 2.8 11.6 6.4 22.01 2.57 7.44 3.86 11.17 6.4 16.29 4.39 8.86 9.05 14.9 10.85 17.15 7.16 8.93 14.12 14.16 15.86 15.43 5.54 4.07 10.19 6.36 14.74 8.57 4.12 2 10.03 4.6 20.03 7.72 12.81 3.99 22.71 5.84 34.5 8 11.36 2.08 21.05 3.42 28.38 4.29 3.5.42 5.99.67 28.38 2.57 17.61 1.49 26.5 2.25 31.16 2.57 8.06.56 19.17 1.23 32.55 1.71"/><text transform="translate(229.955 53.503)"><tspan x="0" y="0" style="font-family:'Asap-Regular';font-size:6px">Isop</tspan><tspan x="11.03" y="0" style="font-family:'Asap-Regular';font-size:6px">r</tspan><tspan x="13.1" y="0" style="font-family:'Asap-Regular';font-size:6px">ofit cur</tspan><tspan x="31.84" y="0" style="font-family:'Asap-Regular';font-size:6px">v</tspan><tspan x="34.69" y="0" style="font-family:'Asap-Regular';font-size:6px">e: $0</tspan></text><circle style="fill:#d5daef" cx="223.77" cy="51.66" r="2.13"/><text transform="translate(230.053 43.581)"><tspan x="0" y="0" style="font-family:'Asap-Regular';font-size:6px">Isop</tspan><tspan x="11.03" y="0" style="font-family:'Asap-Regular';font-size:6px">r</tspan><tspan x="13.1" y="0" style="font-family:'Asap-Regular';font-size:6px">ofit cur</tspan><tspan x="31.84" y="0" style="font-family:'Asap-Regular';font-size:6px">v</tspan><tspan x="34.69" y="0" style="font-family:'Asap-Regular';font-size:6px">e: $10,000</tspan></text><circle style="fill:#a1b0da" cx="223.87" cy="41.74" r="2.13"/><text transform="translate(230.053 33.66)"><tspan x="0" y="0" style="font-family:'Asap-Regular';font-size:6px">Isop</tspan><tspan x="11.03" y="0" style="font-family:'Asap-Regular';font-size:6px">r</tspan><tspan x="13.1" y="0" style="font-family:'Asap-Regular';font-size:6px">ofit cur</tspan><tspan x="31.84" y="0" style="font-family:'Asap-Regular';font-size:6px">v</tspan><tspan x="34.69" y="0" style="font-family:'Asap-Regular';font-size:6px">e: $34,000</tspan></text><circle style="fill:#5b73b8" cx="223.87" cy="31.82" r="2.13"/><g><text transform="translate(230.053 23.738)"><tspan x="0" y="0" style="font-family:'Asap-Regular';font-size:6px">Isop</tspan><tspan x="11.03" y="0" style="font-family:'Asap-Regular';font-size:6px">r</tspan><tspan x="13.1" y="0" style="font-family:'Asap-Regular';font-size:6px">ofit cur</tspan><tspan x="31.84" y="0" style="font-family:'Asap-Regular';font-size:6px">v</tspan><tspan x="34.69" y="0" style="font-family:'Asap-Regular';font-size:6px">e: $60,000</tspan></text><circle style="fill:#3a53a4" cx="223.87" cy="21.9" r="2.13"/></g><g><text transform="translate(230.053 13.816)"><tspan x="0" y="0" style="font-family:'Asap-Regular';font-size:6px">Isop</tspan><tspan x="11.03" y="0" style="font-family:'Asap-Regular';font-size:6px">r</tspan><tspan x="13.1" y="0" style="font-family:'Asap-Regular';font-size:6px">ofit cur</tspan><tspan x="31.84" y="0" style="font-family:'Asap-Regular';font-size:6px">v</tspan><tspan x="34.69" y="0" style="font-family:'Asap-Regular';font-size:6px">e: $100,000</tspan></text><circle style="fill:#273a71" cx="223.87" cy="11.98" r="2.13"/></g><path style="fill:none;stroke:#3a53a4;stroke-width:.5" d="M73.89 6c1.78 6.96 3.02 11.4 5.08 17.11C83.35 35.22 88 43.47 89.8 46.54c7.14 12.21 14.09 19.34 15.82 21.08 5.53 5.56 10.17 8.68 14.71 11.71 4.11 2.74 10.01 6.28 19.99 10.54 12.78 5.45 22.66 7.98 34.42 10.93 11.33 2.85 21 4.67 28.31 5.86 3.49.57 5.98.92 28.31 3.51 17.57 2.04 26.44 3.07 31.09 3.51 7.32.7 17.17 1.52 28.96 2.16"/></svg>