<svg version="1.1" xmlns="http://www.w3.org/2000/svg" x="0" y="0" viewBox="0 0 311.81 156.33" style="enable-background:new 0 0 311.81 156.33" xml:space="preserve"><polygon style="fill:#f49323" points="60.31 4.59 5 4.59 5 53.32 60.31 53.32 81.82 28.96"/><polygon style="fill:#f49323" points="60.31 76.86 5 76.86 5 125.59 60.31 125.59 81.82 101.22"/><text transform="translate(14.997 28.957)"><tspan x="0" y="0" style="fill:#fff;font-family:'Asap-Bold';font-size:9.2182px">Description</tspan><tspan x="10.86" y="11.06" style="fill:#fff;font-family:'Asap-Bold';font-size:9.2182px">(facts)</tspan></text><text transform="translate(134.805 17.861)" style="font-family:'Asap-Regular';font-size:8px">Allocation: who does what &amp; who gets what</text><text transform="translate(130.231 88.056)"><tspan x="0" y="0" style="fill:#f49323;font-family:'Asap-Bold';font-size:8px">Is the allocation</tspan><tspan x="12.02" y="9.6" style="fill:#f49323;font-family:'Asap-Bold';font-size:8px">efficient?</tspan><tspan x="2.19" y="19.2" style="font-family:'Asap-Regular';font-size:8px">Could there be</tspan><tspan x="-3.87" y="28.8" style="font-family:'Asap-Regular';font-size:8px">mutual gains from</tspan><tspan x=".25" y="38.4" style="font-family:'Asap-Regular';font-size:8px">moving to some</tspan><tspan x="-1.78" y="48" style="font-family:'Asap-Regular';font-size:8px">other allocation?</tspan></text><text transform="translate(226.905 88.056)"><tspan x="0" y="0" style="fill:#f49323;font-family:'Asap-Bold';font-size:8px">Is the allocation fair?</tspan><tspan x="13.53" y="9.6" style="font-family:'Asap-Regular';font-size:8px">Is there some</tspan><tspan x="-.8" y="19.2" style="font-family:'Asap-Regular';font-size:8px">allocation that would</tspan><tspan x="6.54" y="28.8" style="font-family:'Asap-Regular';font-size:8px">be fairer? Are the</tspan><tspan x="6.28" y="38.4" style="font-family:'Asap-Regular';font-size:8px">rules of the game</tspan><tspan x="5.36" y="48" style="font-family:'Asap-Regular';font-size:8px">that produced the</tspan><tspan x="10.49" y="57.6" style="font-family:'Asap-Regular';font-size:8px">allocation fair?</tspan></text><text transform="translate(16.662 101.225)"><tspan x="0" y="0" style="fill:#fff;font-family:'Asap-Bold';font-size:9.2182px">Evaluation</tspan><tspan x="5.85" y="11.06" style="fill:#fff;font-family:'Asap-Bold';font-size:9.2182px">(values)</tspan></text><rect x="115.62" y="4.59" style="fill:none;stroke:#f49323;stroke-miterlimit:10" width="191.39" height="21.51"/><rect x="221.03" y="76.86" style="fill:none;stroke:#f49323;stroke-miterlimit:10" width="85.97" height="74.1"/><rect x="115.62" y="76.86" style="fill:none;stroke:#f49323;stroke-miterlimit:10" width="85.97" height="63.03"/><polyline style="fill:none;stroke:#f49323;stroke-miterlimit:10" points="211.31 26.1 211.31 44.54 158.6 44.54 158.6 65.07"/><polygon style="fill:#f49323" points="155.33 62.42 155.92 61.87 158.6 64.76 161.29 61.87 161.87 62.42 158.6 65.94"/><g><polyline style="fill:none;stroke:#f49323;stroke-miterlimit:10" points="211.31 44.54 264.02 44.54 264.02 65.07"/><polygon style="fill:#f49323" points="260.75 62.42 261.33 61.87 264.02 64.76 266.7 61.87 267.29 62.42 264.02 65.94"/></g></svg>