<svg version="1.1" xmlns="http://www.w3.org/2000/svg" x="0" y="0" viewBox="0 0 354.33 340.16" style="enable-background:new 0 0 354.33 340.16" xml:space="preserve"><path style="fill:none;stroke:#bf2026;stroke-width:.5;stroke-linecap:round;stroke-linejoin:round;stroke-miterlimit:10" d="M203.14 308.94c-.45-.49-1.8-1.98-2.69-2.96a7899.476 7899.476 0 01-5.38-5.92 7899.476 7899.476 0 01-5.38-5.92 7899.476 7899.476 0 01-5.38-5.92 7899.476 7899.476 0 01-5.38-5.92 7899.476 7899.476 0 01-5.38-5.92 7899.476 7899.476 0 01-5.38-5.92 7899.476 7899.476 0 01-5.38-5.92 7899.476 7899.476 0 01-5.38-5.92 7899.476 7899.476 0 01-5.38-5.92 7899.476 7899.476 0 01-5.38-5.92 7899.476 7899.476 0 01-5.38-5.92 7899.476 7899.476 0 01-5.38-5.92 7899.476 7899.476 0 01-5.38-5.92 7899.476 7899.476 0 01-5.38-5.92 7899.476 7899.476 0 01-5.38-5.92 7899.476 7899.476 0 01-5.38-5.92 7899.476 7899.476 0 01-5.38-5.92 7899.476 7899.476 0 01-5.38-5.92 7899.476 7899.476 0 01-5.38-5.92 7899.476 7899.476 0 01-5.38-5.92 7899.476 7899.476 0 01-5.38-5.92 7899.476 7899.476 0 01-5.38-5.92 7899.476 7899.476 0 01-5.38-5.92 7899.476 7899.476 0 01-5.38-5.92 7899.476 7899.476 0 01-5.38-5.92 7899.476 7899.476 0 01-5.38-5.92 7899.476 7899.476 0 01-5.38-5.92l-2.69-2.96"/><text transform="translate(40.409 310.564)" style="font-family:'Asap-Regular';font-size:7px">0</text><text transform="translate(36.589 293.964)"><tspan x="0" y="0" style="font-family:'Asap-Regular';font-size:7px">1</tspan><tspan x="3.72" y="0" style="font-family:'Asap-Regular';font-size:7px">0</tspan></text><text transform="translate(36.589 277.362)"><tspan x="0" y="0" style="font-family:'Asap-Regular';font-size:7px">2</tspan><tspan x="3.72" y="0" style="font-family:'Asap-Regular';font-size:7px">0</tspan></text><text transform="translate(36.589 260.762)"><tspan x="0" y="0" style="font-family:'Asap-Regular';font-size:7px">3</tspan><tspan x="3.72" y="0" style="font-family:'Asap-Regular';font-size:7px">0</tspan></text><text transform="translate(36.589 244.16)"><tspan x="0" y="0" style="font-family:'Asap-Regular';font-size:7px">4</tspan><tspan x="3.72" y="0" style="font-family:'Asap-Regular';font-size:7px">0</tspan></text><text transform="translate(36.589 227.554)"><tspan x="0" y="0" style="font-family:'Asap-Regular';font-size:7px">5</tspan><tspan x="3.72" y="0" style="font-family:'Asap-Regular';font-size:7px">0</tspan></text><text transform="translate(36.589 210.951)"><tspan x="0" y="0" style="font-family:'Asap-Regular';font-size:7px">6</tspan><tspan x="3.72" y="0" style="font-family:'Asap-Regular';font-size:7px">0</tspan></text><text transform="translate(36.589 194.351)"><tspan x="0" y="0" style="font-family:'Asap-Regular';font-size:7px">7</tspan><tspan x="3.72" y="0" style="font-family:'Asap-Regular';font-size:7px">0</tspan></text><text transform="translate(36.589 177.75)"><tspan x="0" y="0" style="font-family:'Asap-Regular';font-size:7px">8</tspan><tspan x="3.72" y="0" style="font-family:'Asap-Regular';font-size:7px">0</tspan></text><text transform="translate(36.589 161.15)"><tspan x="0" y="0" style="font-family:'Asap-Regular';font-size:7px">9</tspan><tspan x="3.72" y="0" style="font-family:'Asap-Regular';font-size:7px">0</tspan></text><text transform="translate(32.768 144.548)"><tspan x="0" y="0" style="font-family:'Asap-Regular';font-size:7px">1</tspan><tspan x="3.72" y="0" style="font-family:'Asap-Regular';font-size:7px">0</tspan><tspan x="7.53" y="0" style="font-family:'Asap-Regular';font-size:7px">0</tspan></text><text transform="translate(32.768 127.947)"><tspan x="0" y="0" style="font-family:'Asap-Regular';font-size:7px">1</tspan><tspan x="3.72" y="0" style="font-family:'Asap-Regular';font-size:7px">1</tspan><tspan x="7.53" y="0" style="font-family:'Asap-Regular';font-size:7px">0</tspan></text><text transform="translate(32.768 111.339)"><tspan x="0" y="0" style="font-family:'Asap-Regular';font-size:7px">1</tspan><tspan x="3.72" y="0" style="font-family:'Asap-Regular';font-size:7px">2</tspan><tspan x="7.53" y="0" style="font-family:'Asap-Regular';font-size:7px">0</tspan></text><text transform="translate(32.768 94.738)"><tspan x="0" y="0" style="font-family:'Asap-Regular';font-size:7px">1</tspan><tspan x="3.72" y="0" style="font-family:'Asap-Regular';font-size:7px">3</tspan><tspan x="7.53" y="0" style="font-family:'Asap-Regular';font-size:7px">0</tspan></text><text transform="translate(32.768 78.137)"><tspan x="0" y="0" style="font-family:'Asap-Regular';font-size:7px">1</tspan><tspan x="3.72" y="0" style="font-family:'Asap-Regular';font-size:7px">4</tspan><tspan x="7.53" y="0" style="font-family:'Asap-Regular';font-size:7px">0</tspan></text><text transform="translate(32.768 61.536)"><tspan x="0" y="0" style="font-family:'Asap-Regular';font-size:7px">1</tspan><tspan x="3.72" y="0" style="font-family:'Asap-Regular';font-size:7px">5</tspan><tspan x="7.53" y="0" style="font-family:'Asap-Regular';font-size:7px">0</tspan></text><text transform="translate(32.768 44.934)"><tspan x="0" y="0" style="font-family:'Asap-Regular';font-size:7px">1</tspan><tspan x="3.72" y="0" style="font-family:'Asap-Regular';font-size:7px">6</tspan><tspan x="7.53" y="0" style="font-family:'Asap-Regular';font-size:7px">0</tspan></text><text transform="translate(32.768 28.334)"><tspan x="0" y="0" style="font-family:'Asap-Regular';font-size:7px">1</tspan><tspan x="3.72" y="0" style="font-family:'Asap-Regular';font-size:7px">7</tspan><tspan x="7.53" y="0" style="font-family:'Asap-Regular';font-size:7px">0</tspan></text><text transform="translate(50.41 322.092)" style="font-family:'Asap-Regular';font-size:7px">0</text><text transform="translate(75.431 322.092)"><tspan x="0" y="0" style="font-family:'Asap-Regular';font-size:7px">1</tspan><tspan x="3.72" y="0" style="font-family:'Asap-Regular';font-size:7px">0</tspan></text><text transform="translate(102.36 322.092)"><tspan x="0" y="0" style="font-family:'Asap-Regular';font-size:7px">2</tspan><tspan x="3.72" y="0" style="font-family:'Asap-Regular';font-size:7px">0</tspan></text><text transform="translate(129.295 322.092)"><tspan x="0" y="0" style="font-family:'Asap-Regular';font-size:7px">3</tspan><tspan x="3.72" y="0" style="font-family:'Asap-Regular';font-size:7px">0</tspan></text><text transform="translate(156.222 322.092)"><tspan x="0" y="0" style="font-family:'Asap-Regular';font-size:7px">4</tspan><tspan x="3.72" y="0" style="font-family:'Asap-Regular';font-size:7px">0</tspan></text><text transform="translate(183.157 322.092)"><tspan x="0" y="0" style="font-family:'Asap-Regular';font-size:7px">5</tspan><tspan x="3.72" y="0" style="font-family:'Asap-Regular';font-size:7px">0</tspan></text><text transform="translate(210.086 322.092)"><tspan x="0" y="0" style="font-family:'Asap-Regular';font-size:7px">6</tspan><tspan x="3.72" y="0" style="font-family:'Asap-Regular';font-size:7px">0</tspan></text><text transform="translate(237.02 322.092)"><tspan x="0" y="0" style="font-family:'Asap-Regular';font-size:7px">7</tspan><tspan x="3.72" y="0" style="font-family:'Asap-Regular';font-size:7px">0</tspan></text><text transform="translate(263.95 322.092)"><tspan x="0" y="0" style="font-family:'Asap-Regular';font-size:7px">8</tspan><tspan x="3.72" y="0" style="font-family:'Asap-Regular';font-size:7px">0</tspan></text><text transform="translate(290.878 322.092)"><tspan x="0" y="0" style="font-family:'Asap-Regular';font-size:7px">9</tspan><tspan x="3.72" y="0" style="font-family:'Asap-Regular';font-size:7px">0</tspan></text><text transform="translate(315.906 322.092)"><tspan x="0" y="0" style="font-family:'Asap-Regular';font-size:7px">1</tspan><tspan x="3.72" y="0" style="font-family:'Asap-Regular';font-size:7px">0</tspan><tspan x="7.53" y="0" style="font-family:'Asap-Regular';font-size:7px">0</tspan></text><text transform="translate(3.86 129.428)"><tspan x="0" y="0" style="font-family:'Asap-Regular';font-size:6px">J</tspan><tspan x="2.4" y="0" style="font-family:'Asap-Regular';font-size:6px">u</tspan><tspan x="5.71" y="0" style="font-family:'Asap-Regular';font-size:6px">l</tspan><tspan x="7.48" y="0" style="font-family:'Asap-Regular';font-size:6px">i</tspan><tspan x="9.11" y="0" style="font-family:'Asap-Regular';font-size:6px">a’</tspan><tspan x="13.69" y="0" style="font-family:'Asap-Regular';font-size:6px">s</tspan><tspan x="16.16" y="0" style="font-family:'Asap-Regular';font-size:6px"> </tspan><tspan x="0" y="7.2" style="font-family:'Asap-Regular';font-size:6px">e</tspan><tspan x="3.22" y="7.2" style="font-family:'Asap-Regular';font-size:6px">n</tspan><tspan x="6.59" y="7.2" style="font-family:'Asap-Regular';font-size:6px">d</tspan><tspan x="9.97" y="7.2" style="font-family:'Asap-Regular';font-size:6px">o</tspan><tspan x="13.36" y="7.2" style="font-family:'Asap-Regular';font-size:6px">w</tspan><tspan x="17.83" y="7.2" style="font-family:'Asap-Regular';font-size:6px">m</tspan><tspan x="22.96" y="7.2" style="font-family:'Asap-Regular';font-size:6px">e</tspan><tspan x="26.17" y="7.2" style="font-family:'Asap-Regular';font-size:6px">n</tspan><tspan x="29.54" y="7.2" style="font-family:'Asap-Regular';font-size:6px">t</tspan></text><text transform="translate(198.157 322.134)"><tspan x="0" y="0" style="font-family:'Asap-Regular';font-size:7px">5</tspan><tspan x="3.72" y="0" style="font-family:'Asap-Regular';font-size:7px">6</tspan></text><text transform="rotate(-90 121.052 106.915)" style="font-family:'Asap-Medium';font-size:8px">Consumption later ($)</text><line style="fill:none;stroke:#6d6e71;stroke-width:.5;stroke-linecap:square" x1="50.08" y1="309.17" x2="52.31" y2="309.17"/><line style="fill:none;stroke:#6d6e71;stroke-width:.5;stroke-linecap:square" x1="52.5" y1="309.76" x2="52.5" y2="311.98"/><line style="fill:none;stroke:#6d6e71;stroke-width:.5;stroke-linecap:square" x1="321.94" y1="309.46" x2="321.94" y2="311.67"/><line style="fill:none;stroke:#6d6e71;stroke-width:.5;stroke-linecap:square" x1="347.62" y1="309.46" x2="347.62" y2="311.67"/><line style="fill:none;stroke:#6d6e71;stroke-width:.5;stroke-linecap:square" x1="294.99" y1="309.76" x2="294.99" y2="311.98"/><line style="fill:none;stroke:#6d6e71;stroke-width:.5;stroke-linecap:square" x1="268.05" y1="309.76" x2="268.05" y2="311.98"/><line style="fill:none;stroke:#6d6e71;stroke-width:.5;stroke-linecap:square" x1="241.11" y1="309.76" x2="241.11" y2="311.98"/><line style="fill:none;stroke:#6d6e71;stroke-width:.5;stroke-linecap:square" x1="214.16" y1="309.76" x2="214.16" y2="311.98"/><line style="fill:none;stroke:#6d6e71;stroke-width:.5;stroke-linecap:square" x1="187.22" y1="309.76" x2="187.22" y2="311.98"/><line style="fill:none;stroke:#6d6e71;stroke-width:.5;stroke-linecap:square" x1="203.22" y1="309.76" x2="203.22" y2="311.98"/><line style="fill:none;stroke:#6d6e71;stroke-width:.5;stroke-linecap:square" x1="160.28" y1="309.76" x2="160.28" y2="311.98"/><line style="fill:none;stroke:#6d6e71;stroke-width:.5;stroke-linecap:square" x1="133.33" y1="309.76" x2="133.33" y2="311.98"/><line style="fill:none;stroke:#6d6e71;stroke-width:.5;stroke-linecap:square" x1="106.39" y1="309.76" x2="106.39" y2="311.98"/><line style="fill:none;stroke:#6d6e71;stroke-width:.5;stroke-linecap:square" x1="79.45" y1="309.76" x2="79.45" y2="311.98"/><line style="fill:none;stroke:#6d6e71;stroke-width:.5;stroke-linecap:square" x1="50.15" y1="26.55" x2="52.37" y2="26.55"/><line style="fill:none;stroke:#6d6e71;stroke-width:.5;stroke-linecap:square" x1="50.08" y1="10.33" x2="52.31" y2="10.33"/><line style="fill:none;stroke:#6d6e71;stroke-width:.5;stroke-linecap:square" x1="50.08" y1="43.17" x2="52.31" y2="43.17"/><line style="fill:none;stroke:#6d6e71;stroke-width:.5;stroke-linecap:square" x1="50.08" y1="59.8" x2="52.31" y2="59.8"/><line style="fill:none;stroke:#6d6e71;stroke-width:.5;stroke-linecap:square" x1="50.08" y1="76.42" x2="52.31" y2="76.42"/><line style="fill:none;stroke:#6d6e71;stroke-width:.5;stroke-linecap:square" x1="50.08" y1="93.05" x2="52.31" y2="93.05"/><line style="fill:none;stroke:#6d6e71;stroke-width:.5;stroke-linecap:square" x1="50.08" y1="109.67" x2="52.31" y2="109.67"/><line style="fill:none;stroke:#6d6e71;stroke-width:.5;stroke-linecap:square" x1="50.08" y1="126.3" x2="52.31" y2="126.3"/><line style="fill:none;stroke:#6d6e71;stroke-width:.5;stroke-linecap:square" x1="50.08" y1="142.92" x2="52.31" y2="142.92"/><line style="fill:none;stroke:#6d6e71;stroke-width:.5;stroke-linecap:square" x1="50.08" y1="159.55" x2="52.31" y2="159.55"/><line style="fill:none;stroke:#6d6e71;stroke-width:.5;stroke-linecap:square" x1="50.08" y1="176.17" x2="52.31" y2="176.17"/><line style="fill:none;stroke:#6d6e71;stroke-width:.5;stroke-linecap:square" x1="50.08" y1="192.8" x2="52.31" y2="192.8"/><line style="fill:none;stroke:#6d6e71;stroke-width:.5;stroke-linecap:square" x1="50.08" y1="209.42" x2="52.31" y2="209.42"/><line style="fill:none;stroke:#6d6e71;stroke-width:.5;stroke-linecap:square" x1="50.08" y1="226.05" x2="52.31" y2="226.05"/><line style="fill:none;stroke:#6d6e71;stroke-width:.5;stroke-linecap:square" x1="50.08" y1="242.67" x2="52.31" y2="242.67"/><line style="fill:none;stroke:#6d6e71;stroke-width:.5;stroke-linecap:square" x1="50.08" y1="259.3" x2="52.31" y2="259.3"/><line style="fill:none;stroke:#6d6e71;stroke-width:.5;stroke-linecap:square" x1="50.08" y1="275.92" x2="52.31" y2="275.92"/><line style="fill:none;stroke:#6d6e71;stroke-width:.5;stroke-linecap:square" x1="50.08" y1="292.55" x2="52.31" y2="292.55"/><text transform="translate(167.941 335.359)" style="font-family:'Asap-Medium';font-size:8px">Consumption now ($)</text><text transform="translate(32.768 12.334)"><tspan x="0" y="0" style="font-family:'Asap-Regular';font-size:7px">1</tspan><tspan x="3.72" y="0" style="font-family:'Asap-Regular';font-size:7px">80</tspan></text><text transform="translate(342.013 322.092)"><tspan x="0" y="0" style="font-family:'Asap-Regular';font-size:7px">1</tspan><tspan x="3.72" y="0" style="font-family:'Asap-Regular';font-size:7px">10</tspan></text><path style="opacity:.349;fill-rule:evenodd;clip-rule:evenodd;fill:#ec7d30" d="M52.3 142.94c.07 55.61.14 111.22.2 166.83 50.21-.28 100.43-.55 150.64-.83-50.28-55.33-100.56-110.67-150.84-166z"/><line style="fill:none;stroke:#6d6e71;stroke-width:.5;stroke-linecap:square" x1="52.5" y1="309.17" x2="347.62" y2="309.17"/><path style="fill:none;stroke:#bf2026;stroke-width:.5;stroke-linecap:round;stroke-linejoin:round;stroke-miterlimit:10" d="M52.79 143.14c.89.67 1.78 1.33 2.67 2 .89.67 1.78 1.33 2.67 2 .89.67 1.78 1.33 2.67 2 .89.67 1.78 1.33 2.67 2 .89.67 1.78 1.33 2.67 2 .89.67 1.78 1.33 2.67 2 .89.67 1.78 1.33 2.67 2 .89.67 1.78 1.33 2.67 2 .89.67 1.78 1.33 2.67 2 .89.67 1.78 1.33 2.67 2 .89.67 1.78 1.33 2.67 2 .89.67 1.78 1.33 2.67 2 .89.67 1.78 1.33 2.67 2s1.78 1.33 2.67 2c.89.67 1.78 1.33 2.67 2 .89.67 1.78 1.33 2.67 2 .89.67 1.78 1.33 2.67 2 .89.67 1.78 1.33 2.67 2 .89.67 1.78 1.33 2.67 2 .89.67 1.78 1.33 2.67 2 .89.67 1.78 1.33 2.67 2 .89.67 1.78 1.33 2.67 2 .89.67 1.78 1.33 2.67 2 .89.67 1.78 1.33 2.67 2 .89.67 1.78 1.33 2.67 2 .89.67 1.78 1.33 2.67 2 .89.67 1.78 1.33 2.67 2 .89.67 1.78 1.33 2.67 2 .89.67 1.78 1.33 2.67 2 .89.67 1.78 1.33 2.67 2 .89.67 1.78 1.33 2.67 2 .89.67 1.78 1.33 2.67 2 .89.67 1.78 1.33 2.67 2 .89.67 1.78 1.33 2.67 2 .89.67 1.78 1.33 2.67 2s1.78 1.33 2.67 2c.89.67 1.78 1.33 2.67 2 .89.67 1.78 1.33 2.67 2 .89.67 1.78 1.33 2.67 2 .89.67 1.78 1.33 2.67 2 .89.67 1.78 1.33 2.67 2 .89.67 1.78 1.33 2.67 2 .89.67 1.78 1.33 2.67 2 .89.67 1.78 1.33 2.67 2 .89.67 1.78 1.33 2.67 2 .89.67 1.78 1.33 2.67 2 .89.67 1.78 1.33 2.67 2 .89.67 1.78 1.33 2.67 2 .89.67 1.78 1.33 2.67 2 .89.67 1.78 1.33 2.67 2 .89.67 1.78 1.33 2.67 2 .89.67 1.78 1.33 2.67 2 .89.67 1.78 1.33 2.67 2 .89.67 1.78 1.33 2.67 2 .89.67 1.78 1.33 2.67 2s1.78 1.33 2.67 2c.89.67 1.78 1.33 2.67 2 .89.67 1.78 1.33 2.67 2 .89.67 1.78 1.33 2.67 2 .89.67 1.78 1.33 2.67 2 .89.67 1.78 1.33 2.67 2 .89.67 1.78 1.33 2.67 2 .89.67 1.78 1.33 2.67 2 .89.67 1.78 1.33 2.67 2 .89.67 1.78 1.33 2.67 2 .89.67 1.78 1.33 2.67 2 .89.67 1.78 1.33 2.67 2 .89.67 1.78 1.33 2.67 2 .89.67 1.78 1.33 2.67 2 .89.67 1.78 1.33 2.67 2 .89.67 1.78 1.33 2.67 2 .89.67 1.78 1.33 2.67 2 .89.67 1.78 1.33 2.67 2 .89.67 1.78 1.33 2.67 2 .89.67 1.78 1.33 2.67 2 .89.67 1.78 1.33 2.67 2 .89.67 1.78 1.33 2.67 2 .89.67 1.78 1.33 2.67 2 .89.67 1.78 1.33 2.67 2 .89.67 1.78 1.33 2.67 2 .89.67 1.78 1.33 2.67 2 .89.67 1.78 1.33 2.67 2 .89.67 1.78 1.33 2.67 2"/><path style="fill:none;stroke:#ed2024;stroke-width:.5;stroke-linecap:round;stroke-linejoin:round;stroke-miterlimit:10" d="M52.31 109.67c.9.66 1.8 1.33 2.7 1.99.9.66 1.8 1.33 2.7 1.99.9.66 1.8 1.33 2.7 1.99.9.66 1.8 1.33 2.7 1.99.9.66 1.8 1.33 2.7 1.99.9.66 1.8 1.33 2.7 1.99.9.66 1.8 1.33 2.7 1.99.9.66 1.8 1.33 2.7 1.99.9.66 1.8 1.33 2.7 1.99.9.66 1.8 1.33 2.7 1.99.9.66 1.8 1.33 2.7 1.99.9.66 1.8 1.33 2.7 1.99.9.66 1.8 1.33 2.7 1.99.9.66 1.8 1.33 2.7 1.99.9.66 1.8 1.33 2.7 1.99.9.66 1.8 1.33 2.7 1.99.9.66 1.8 1.33 2.7 1.99.9.66 1.8 1.33 2.7 1.99.9.66 1.8 1.33 2.7 1.99.9.66 1.8 1.33 2.7 1.99.9.66 1.8 1.33 2.7 1.99.9.66 1.8 1.33 2.7 1.99.9.66 1.8 1.33 2.7 1.99.9.66 1.8 1.33 2.7 1.99.9.66 1.8 1.33 2.7 1.99.9.66 1.8 1.33 2.7 1.99.9.66 1.8 1.33 2.7 1.99.9.66 1.8 1.33 2.7 1.99.9.66 1.8 1.33 2.7 1.99.9.66 1.8 1.33 2.7 1.99.9.66 1.8 1.33 2.7 1.99.9.66 1.8 1.33 2.7 1.99.9.66 1.8 1.33 2.7 1.99.9.66 1.8 1.33 2.7 1.99.9.66 1.8 1.33 2.7 1.99.9.66 1.8 1.33 2.7 1.99.9.66 1.8 1.33 2.7 1.99.9.66 1.8 1.33 2.7 1.99.9.66 1.8 1.33 2.7 1.99.9.66 1.8 1.33 2.7 1.99.9.66 1.8 1.33 2.7 1.99.9.66 1.8 1.33 2.7 1.99.9.66 1.8 1.33 2.7 1.99.9.66 1.8 1.33 2.7 1.99.9.66 1.8 1.33 2.7 1.99.9.66 1.8 1.33 2.7 1.99.9.66 1.8 1.33 2.7 1.99.9.66 1.8 1.33 2.7 1.99.9.66 1.8 1.33 2.7 1.99.9.66 1.8 1.33 2.7 1.99.9.66 1.8 1.33 2.7 1.99.9.66 1.8 1.33 2.7 1.99.9.66 1.8 1.33 2.7 1.99.9.66 1.8 1.33 2.7 1.99.9.66 1.8 1.33 2.7 1.99.9.66 1.8 1.33 2.7 1.99.9.66 1.8 1.33 2.7 1.99.9.66 1.8 1.33 2.7 1.99.9.66 1.8 1.33 2.7 1.99.9.66 1.8 1.33 2.7 1.99.9.66 1.8 1.33 2.7 1.99.9.66 1.8 1.33 2.7 1.99.9.66 1.8 1.33 2.7 1.99.9.66 1.8 1.33 2.7 1.99.9.66 1.8 1.33 2.7 1.99.9.66 1.8 1.33 2.7 1.99.9.66 1.8 1.33 2.7 1.99.9.66 1.8 1.33 2.7 1.99.9.66 1.8 1.33 2.7 1.99.9.66 1.8 1.33 2.7 1.99.9.66 1.8 1.33 2.7 1.99.9.66 1.8 1.33 2.7 1.99.9.66 1.8 1.33 2.7 1.99.9.66 1.8 1.33 2.7 1.99.9.66 1.8 1.33 2.7 1.99.9.66 1.8 1.33 2.7 1.99.9.66 1.8 1.33 2.7 1.99.9.66 1.8 1.33 2.7 1.99.9.66 1.8 1.33 2.7 1.99.9.66 1.8 1.33 2.7 1.99.9.66 1.8 1.33 2.7 1.99.9.66 1.8 1.33 2.7 1.99.9.66 1.8 1.33 2.7 1.99.9.66 1.8 1.33 2.7 1.99.9.66 1.8 1.33 2.7 1.99.9.66 1.8 1.33 2.7 1.99.9.66 1.8 1.33 2.7 1.99.9.66 1.8 1.33 2.7 1.99.9.66 1.8 1.33 2.7 1.99.9.66 1.8 1.33 2.7 1.99.9.66 1.8 1.33 2.7 1.99.9.66 1.8 1.33 2.7 1.99.9.66 1.8 1.33 2.7 1.99.9.66 1.8 1.33 2.7 1.99.9.66 1.8 1.33 2.7 1.99.9.66 1.8 1.33 2.7 1.99.9.66 1.8 1.33 2.7 1.99.9.66 1.8 1.33 2.7 1.99.9.66 1.8 1.33 2.7 1.99.9.66 1.8 1.33 2.7 1.99"/><text transform="translate(321.072 292.546)"><tspan x="0" y="0" style="fill:#414141;font-family:'Asap-Regular';font-size:6px">M</tspan><tspan x="5.08" y="0" style="fill:#414141;font-family:'Asap-Regular';font-size:6px">a</tspan><tspan x="8.37" y="0" style="fill:#414141;font-family:'Asap-Regular';font-size:6px">r</tspan><tspan x="10.54" y="0" style="fill:#414141;font-family:'Asap-Regular';font-size:6px">c</tspan><tspan x="13.49" y="0" style="fill:#414141;font-family:'Asap-Regular';font-size:6px">o</tspan><tspan x="16.88" y="0" style="fill:#414141;font-family:'Asap-Regular';font-size:6px">’</tspan><tspan x="18.17" y="0" style="fill:#414141;font-family:'Asap-Regular';font-size:6px">s</tspan><tspan x="0" y="7.2" style="fill:#414141;font-family:'Asap-Regular';font-size:6px">e</tspan><tspan x="3.22" y="7.2" style="fill:#414141;font-family:'Asap-Regular';font-size:6px">n</tspan><tspan x="6.59" y="7.2" style="fill:#414141;font-family:'Asap-Regular';font-size:6px">d</tspan><tspan x="9.97" y="7.2" style="fill:#414141;font-family:'Asap-Regular';font-size:6px">o</tspan><tspan x="13.36" y="7.2" style="fill:#414141;font-family:'Asap-Regular';font-size:6px">w</tspan><tspan x="17.83" y="7.2" style="fill:#414141;font-family:'Asap-Regular';font-size:6px">m</tspan><tspan x="22.96" y="7.2" style="fill:#414141;font-family:'Asap-Regular';font-size:6px">e</tspan><tspan x="26.17" y="7.2" style="fill:#414141;font-family:'Asap-Regular';font-size:6px">n</tspan><tspan x="29.54" y="7.2" style="fill:#414141;font-family:'Asap-Regular';font-size:6px">t</tspan></text><circle cx="321.94" cy="308.94" r="1.13"/><line style="fill:none;stroke:#6d6e71;stroke-width:.5;stroke-linecap:square" x1="52.5" y1="309.76" x2="52.5" y2="10.33"/><circle cx="52.5" cy="142.92" r="1.13"/><line style="fill:none;stroke:#7f7f7f;stroke-width:.5;stroke-miterlimit:8" x1="185.03" y1="277.4" x2="211.63" y2="277.4"/><polygon style="fill:#7f7f7f" points="186.69 279.45 187.03 279.08 185.22 277.4 187.03 275.73 186.69 275.36 184.49 277.4"/><path style="opacity:.18;fill-rule:evenodd;clip-rule:evenodd;fill:#ec7d30" d="M52.5 142.92l150.64 166.02h71.59C200.65 253.6 126.58 198.26 52.5 142.92z"/><line style="fill:none;stroke:#6d6e71;stroke-width:.5;stroke-linecap:square" x1="274.73" y1="309.54" x2="274.73" y2="311.75"/><text transform="translate(273.95 322.092)" style="font-family:'Asap-Regular';font-size:7px">83</text></svg>