<svg version="1.1" xmlns="http://www.w3.org/2000/svg" x="0" y="0" viewBox="0 0 311.81 243.78" style="enable-background:new 0 0 311.81 243.78" xml:space="preserve"><line style="fill:none;stroke:#929497;stroke-width:.5;stroke-linecap:square;stroke-linejoin:round;stroke-dasharray:1.4173" x1="165.36" y1="199.33" x2="165.36" y2="72.83"/><line style="fill:none;stroke:#929497;stroke-width:.5;stroke-linecap:square;stroke-linejoin:round;stroke-dasharray:1.4173" x1="149.88" y1="199.82" x2="149.88" y2="47.83"/><line style="fill:none;stroke:#929497;stroke-width:.5;stroke-linecap:square;stroke-linejoin:round;stroke-dasharray:1.4173" x1="41.51" y1="131.02" x2="227" y2="131.02"/><line style="fill:none;stroke:#929497;stroke-width:.5;stroke-linecap:square;stroke-linejoin:round;stroke-dasharray:1.4173" x1="227.29" y1="200.67" x2="227.29" y2="130.67"/><line style="fill:none;stroke:#6d6e70;stroke-width:.5;stroke-linecap:square" x1="41.5" y1="199.89" x2="289" y2="199.89"/><line style="fill:none;stroke:#6d6e70;stroke-width:.5;stroke-linecap:square;stroke-linejoin:round" x1="41.5" y1="199.89" x2="41.5" y2="22.39"/><text transform="translate(31.473 202.02)" style="fill:#231f20;font-family:'Asap-Regular';font-size:7px">0</text><text transform="translate(24.658 173.904)" style="fill:#231f20;font-family:'Asap-Regular';font-size:7px">100</text><text transform="translate(24.581 145.788)" style="fill:#231f20;font-family:'Asap-Regular';font-size:7px">200</text><text transform="translate(24.623 117.672)" style="fill:#231f20;font-family:'Asap-Regular';font-size:7px">300</text><text transform="translate(24.812 89.556)" style="fill:#231f20;font-family:'Asap-Regular';font-size:7px">400</text><text transform="translate(24.609 61.44)" style="fill:#231f20;font-family:'Asap-Regular';font-size:7px">500</text><text transform="translate(24.581 33.324)" style="fill:#231f20;font-family:'Asap-Regular';font-size:7px">600</text><text transform="matrix(0 -.9726 1 0 13.469 157.84)" style="fill:#231f20;font-family:'Asap-Medium';font-size:8px">Consumption spending (€)</text><text transform="translate(118.45 224.763)" style="fill:#231f20;font-family:'Asap-Medium';font-size:8px">Hours of free time per day</text><line style="fill:none;stroke:#6d6e70;stroke-width:.5;stroke-linecap:square;stroke-linejoin:round" x1="41.04" y1="59.02" x2="38.91" y2="59.02"/><line style="fill:none;stroke:#6d6e70;stroke-width:.5;stroke-linecap:square;stroke-linejoin:round" x1="41.04" y1="31.02" x2="38.91" y2="31.02"/><line style="fill:none;stroke:#6d6e70;stroke-width:.5;stroke-linecap:square;stroke-linejoin:round" x1="41.04" y1="86.59" x2="38.91" y2="86.59"/><line style="fill:none;stroke:#6d6e70;stroke-width:.5;stroke-linecap:square;stroke-linejoin:round" x1="41.04" y1="114.88" x2="38.91" y2="114.88"/><line style="fill:none;stroke:#6d6e70;stroke-width:.5;stroke-linecap:square;stroke-linejoin:round" x1="41.04" y1="143.3" x2="38.91" y2="143.3"/><line style="fill:none;stroke:#6d6e70;stroke-width:.5;stroke-linecap:square;stroke-linejoin:round" x1="41.04" y1="170.88" x2="38.91" y2="170.88"/><line style="fill:none;stroke:#6d6e70;stroke-width:.5;stroke-linecap:square;stroke-linejoin:round" x1="41.04" y1="199.89" x2="38.91" y2="199.89"/><path style="fill:none;stroke:#3a53a4;stroke-width:.5" d="M140 22.39C151.39 71.87 214.94 145 289 152.82"/><circle style="fill:#000100" cx="210.36" cy="120.23" r="1.13"/><circle style="fill:#000100" cx="177.96" cy="89.48" r="1.13"/><circle style="fill:#000100" cx="191.96" cy="104.48" r="1.13"/><text transform="translate(213.912 112.485)" style="fill:#231f20;font-family:'Asap-Regular';font-size:7px">H</text><text transform="translate(232.422 127.485)" style="fill:#231f20;font-family:'Asap-Regular';font-size:7px">D</text><text transform="translate(170.422 72.485)" style="fill:#231f20;font-family:'Asap-Regular';font-size:7px">E</text><text transform="translate(155.422 47.485)" style="fill:#231f20;font-family:'Asap-Regular';font-size:7px">A</text><text transform="translate(111.704 44.51)" style="fill:#231f20;font-family:'Asap-Regular';font-size:7px">B</text><text transform="translate(185.835 88.326)" style="fill:#231f20;font-family:'Asap-Regular';font-size:7px">F</text><text transform="translate(198.986 100.965)" style="fill:#231f20;font-family:'Asap-Regular';font-size:7px">G</text><line style="fill:none;stroke:#929497;stroke-width:.5;stroke-linecap:square;stroke-linejoin:round;stroke-dasharray:1.4173" x1="42" y1="73.15" x2="164.11" y2="73.15"/><line style="fill:none;stroke:#929497;stroke-width:.5;stroke-linecap:square;stroke-linejoin:round;stroke-dasharray:1.4173" x1="42" y1="48.33" x2="150" y2="48.33"/><circle style="fill:#000100" cx="164.96" cy="73.48" r="1.13"/><circle style="fill:#000100" cx="149.96" cy="48.48" r="1.13"/><circle style="fill:#000100" cx="227.14" cy="131.36" r="1.13"/><text transform="translate(52.212 210.913)" style="fill:#231f20;font-family:'Asap-Regular';font-size:7px">9</text><text transform="translate(64.203 210.914)" style="fill:#231f20;font-family:'Asap-Regular';font-size:7px">10</text><text transform="translate(79.938 210.913)" style="fill:#231f20;font-family:'Asap-Regular';font-size:7px">11</text><text transform="translate(95.673 210.914)" style="fill:#231f20;font-family:'Asap-Regular';font-size:7px">12</text><text transform="translate(111.408 210.913)" style="fill:#231f20;font-family:'Asap-Regular';font-size:7px">13</text><text transform="translate(127.143 210.914)" style="fill:#231f20;font-family:'Asap-Regular';font-size:7px">14</text><text transform="translate(142.878 210.913)" style="fill:#231f20;font-family:'Asap-Regular';font-size:7px">15</text><text transform="translate(158.613 210.913)" style="fill:#231f20;font-family:'Asap-Regular';font-size:7px">16</text><text transform="translate(174.348 210.914)" style="fill:#231f20;font-family:'Asap-Regular';font-size:7px">17</text><text transform="translate(190.083 210.914)" style="fill:#231f20;font-family:'Asap-Regular';font-size:7px">18</text><text transform="translate(205.818 210.914)" style="fill:#231f20;font-family:'Asap-Regular';font-size:7px">19</text><text transform="translate(221.553 210.914)" style="fill:#231f20;font-family:'Asap-Regular';font-size:7px">20</text><text transform="translate(237.288 210.913)" style="fill:#231f20;font-family:'Asap-Regular';font-size:7px">21</text><text transform="translate(253.024 210.913)" style="fill:#231f20;font-family:'Asap-Regular';font-size:7px">22</text><text transform="translate(268.758 210.913)" style="fill:#231f20;font-family:'Asap-Regular';font-size:7px">23</text><text transform="translate(284.493 210.913)" style="fill:#231f20;font-family:'Asap-Regular';font-size:7px">24</text><line style="fill:none;stroke:#6d6e70;stroke-width:.5;stroke-linecap:square" x1="289.21" y1="202.02" x2="289.21" y2="199.89"/><line style="fill:none;stroke:#6d6e70;stroke-width:.5;stroke-linecap:square" x1="273.73" y1="199.89" x2="273.73" y2="202.02"/><line style="fill:none;stroke:#6d6e70;stroke-width:.5;stroke-linecap:square" x1="258.25" y1="199.89" x2="258.25" y2="202.02"/><line style="fill:none;stroke:#6d6e70;stroke-width:.5;stroke-linecap:square" x1="242.77" y1="199.89" x2="242.77" y2="202.02"/><line style="fill:none;stroke:#6d6e70;stroke-width:.5;stroke-linecap:square" x1="227.29" y1="199.89" x2="227.29" y2="202.02"/><line style="fill:none;stroke:#6d6e70;stroke-width:.5;stroke-linecap:square" x1="211.8" y1="199.89" x2="211.8" y2="202.02"/><line style="fill:none;stroke:#6d6e70;stroke-width:.5;stroke-linecap:square" x1="196.32" y1="199.89" x2="196.32" y2="202.02"/><line style="fill:none;stroke:#6d6e70;stroke-width:.5;stroke-linecap:square" x1="180.84" y1="199.89" x2="180.84" y2="202.02"/><line style="fill:none;stroke:#6d6e70;stroke-width:.5;stroke-linecap:square" x1="165.36" y1="199.89" x2="165.36" y2="202.02"/><line style="fill:none;stroke:#6d6e70;stroke-width:.5;stroke-linecap:square" x1="149.88" y1="199.89" x2="149.88" y2="202.02"/><line style="fill:none;stroke:#6d6e70;stroke-width:.5;stroke-linecap:square" x1="134.39" y1="199.89" x2="134.39" y2="202.02"/><line style="fill:none;stroke:#6d6e70;stroke-width:.5;stroke-linecap:square" x1="118.91" y1="199.89" x2="118.91" y2="202.02"/><line style="fill:none;stroke:#6d6e70;stroke-width:.5;stroke-linecap:square" x1="103.43" y1="199.89" x2="103.43" y2="202.02"/><line style="fill:none;stroke:#6d6e70;stroke-width:.5;stroke-linecap:square" x1="87.95" y1="199.89" x2="87.95" y2="202.02"/><line style="fill:none;stroke:#6d6e70;stroke-width:.5;stroke-linecap:square" x1="72.46" y1="199.89" x2="72.46" y2="202.02"/><line style="fill:none;stroke:#6d6e70;stroke-width:.5;stroke-linecap:square" x1="56.98" y1="199.89" x2="56.98" y2="202.02"/><line style="fill:none;stroke:#6d6e70;stroke-width:.5;stroke-linecap:square" x1="41.5" y1="199.89" x2="41.5" y2="202.02"/><text transform="translate(40.222 210.913)" style="fill:#231f20;font-family:'Asap-Regular';font-size:7px">8</text><path style="fill:none;stroke:#3a53a4;stroke-width:.5" d="M102.72 22.18c18.91 83.75 76.76 141.37 186.23 144.21"/><circle style="fill:#000100" cx="109.96" cy="48.48" r="1.13"/><path style="fill:none;stroke:#3a53a4;stroke-width:.5" d="M67.5 21.89c.53 5.61 1.41 12.77 2.99 21 2.65 13.79 6.04 24.38 7.98 30 2.01 5.82 5.5 15.79 11.97 28 3.83 7.23 7.45 14.05 13.97 22 7.1 8.66 13.79 13.96 18.96 18 5.15 4.03 16.81 12.6 33.92 20 16.16 6.99 29.03 9.4 42.9 12 14.72 2.76 25.58 3.59 44.9 5 16.87 1.23 31.7 1.78 43.9 2"/><text transform="translate(231.194 184.435)" style="fill:#231f20;font-family:'Asap-Regular';font-size:7px">C</text><circle style="fill:#000100" cx="227.14" cy="176.36" r="1.13"/></svg>