<svg version="1.1" xmlns="http://www.w3.org/2000/svg" xmlns:xlink="http://www.w3.org/1999/xlink" x="0" y="0" viewBox="0 0 311.81 209.43" style="enable-background:new 0 0 311.81 209.43" xml:space="preserve"><g style="display:none"><g style="display:inline"><defs><polygon id="prefix__a" points="29.59 1452.08 311.72 1452.08 311.72 1245.2 29.59 1245.2 29.59 1452.08"/></defs><clipPath id="prefix__b"><use xlink:href="#prefix__a" style="overflow:visible"/></clipPath><polyline points="29.91 -228.86 38.88 370.73 47.22 696.38 56.2 893.05 65.17 1020.75 73.51 1108.23 82.49 1170.81 91.46 1216.78 100.44 1251.9 108.78 1279.36 117.75 1301.07 126.73 1318.95 135.07 1333 144.04 1345.13 153.02 1355.35 162 1363.65 170.33 1370.67 179.31 1377.06 188.29 1382.16 196.62 1386.63 205.6 1391.1 214.58 1394.93 223.55 1398.13 231.89 1400.68 240.87 1403.24 249.84 1405.79 258.18 1407.71 267.16 1409.62 276.13 1411.54 285.11 1412.81 293.45 1414.09 302.42 1415.37 311.4 1416.64"/><g><defs><polygon id="prefix__c" points="29.59 1452.08 311.72 1452.08 311.72 1245.2 29.59 1245.2 29.59 1452.08"/></defs><clipPath id="prefix__d"><use xlink:href="#prefix__c" style="overflow:visible"/></clipPath><polyline points="29.91 -1744.73 38.88 -599.21 47.22 22.73 56.2 398.18 65.17 642.1 73.51 808.76 82.49 928.17 91.46 1016.28 100.44 1083.97 108.78 1136.33 117.75 1177.83 126.73 1211.04 135.07 1238.49 144.04 1261.48 153.02 1280 162 1296.6 170.33 1310.01 179.31 1322.14 188.29 1332.36 196.62 1341.3 205.6 1348.96 214.58 1355.98 223.55 1361.73 231.89 1367.48 240.87 1372.59 249.84 1377.06 258.18 1380.89 267.16 1384.08 276.13 1387.91 285.11 1390.47 293.45 1393.02 302.42 1395.57 311.4 1398.13"/></g></g><g style="display:inline"><defs><polygon id="prefix__e" points="8.8 1727.62 338.8 1727.62 338.8 1484.5 8.8 1484.5 8.8 1727.62"/></defs><clipPath id="prefix__f"><use xlink:href="#prefix__e" style="overflow:visible"/></clipPath><polyline points="8.92 -247.34 19.24 457.3 29.44 840.1 39.76 1070.98 50.08 1220.74 60.4 1323.46 70.6 1396.9 80.92 1451.26 91.24 1492.66 101.56 1524.82 111.76 1550.26 122.08 1570.9 132.4 1587.82 142.6 1601.74 152.92 1613.38 163.24 1623.34 173.56 1631.86 183.76 1639.06 194.08 1645.42 204.4 1650.94 214.72 1655.74 224.92 1659.94 235.24 1663.78 245.56 1667.14 255.76 1670.14 266.08 1672.9 276.4 1675.3 286.72 1677.46 296.92 1679.5 307.24 1681.3 317.56 1682.98 327.88 1684.54 338.08 1685.98"/><g><defs><polygon id="prefix__g" points="8.8 1727.62 338.8 1727.62 338.8 1484.5 8.8 1484.5 8.8 1727.62"/></defs><clipPath id="prefix__h"><use xlink:href="#prefix__g" style="overflow:visible"/></clipPath><polyline points="8.92 -2027.66 19.24 -682.1 29.44 48.94 39.76 489.58 50.08 775.66 60.4 971.74 70.6 1112.02 80.92 1215.82 91.24 1294.78 101.56 1356.22 111.76 1404.94 122.08 1444.3 132.4 1476.46 142.6 1503.22 152.92 1525.54 163.24 1544.38 173.56 1560.58 183.76 1574.5 194.08 1586.5 204.4 1597.06 214.72 1606.3 224.92 1614.46 235.24 1621.66 245.56 1628.02 255.76 1633.78 266.08 1638.94 276.4 1643.62 286.72 1647.82 296.92 1651.66 307.24 1655.14 317.56 1658.38 327.88 1661.26 338.08 1663.9"/></g></g><g style="display:inline"><defs><polygon id="prefix__i" points="8.8 1727.62 338.8 1727.62 338.8 1484.5 8.8 1484.5 8.8 1727.62"/></defs><clipPath id="prefix__j"><use xlink:href="#prefix__i" style="overflow:visible"/></clipPath><polyline points="8.92 -247.34 19.24 457.3 29.44 840.1 39.76 1070.98 50.08 1220.74 60.4 1323.46 70.6 1396.9 80.92 1451.26 91.24 1492.66 101.56 1524.82 111.76 1550.26 122.08 1570.9 132.4 1587.82 142.6 1601.74 152.92 1613.38 163.24 1623.34 173.56 1631.86 183.76 1639.06 194.08 1645.42 204.4 1650.94 214.72 1655.74 224.92 1659.94 235.24 1663.78 245.56 1667.14 255.76 1670.14 266.08 1672.9 276.4 1675.3 286.72 1677.46 296.92 1679.5 307.24 1681.3 317.56 1682.98 327.88 1684.54 338.08 1685.98"/><g><defs><polygon id="prefix__k" points="8.8 1727.62 338.8 1727.62 338.8 1484.5 8.8 1484.5 8.8 1727.62"/></defs><clipPath id="prefix__l"><use xlink:href="#prefix__k" style="overflow:visible"/></clipPath><polyline points="8.92 -2027.66 19.24 -682.1 29.44 48.94 39.76 489.58 50.08 775.66 60.4 971.74 70.6 1112.02 80.92 1215.82 91.24 1294.78 101.56 1356.22 111.76 1404.94 122.08 1444.3 132.4 1476.46 142.6 1503.22 152.92 1525.54 163.24 1544.38 173.56 1560.58 183.76 1574.5 194.08 1586.5 204.4 1597.06 214.72 1606.3 224.92 1614.46 235.24 1621.66 245.56 1628.02 255.76 1633.78 266.08 1638.94 276.4 1643.62 286.72 1647.82 296.92 1651.66 307.24 1655.14 317.56 1658.38 327.88 1661.26 338.08 1663.9"/></g></g><g style="display:inline"><defs><polygon id="prefix__m" points="8.8 1727.62 338.8 1727.62 338.8 1484.5 8.8 1484.5 8.8 1727.62"/></defs><clipPath id="prefix__n"><use xlink:href="#prefix__m" style="overflow:visible"/></clipPath><polyline points="8.92 -247.34 19.24 457.3 29.44 840.1 39.76 1070.98 50.08 1220.74 60.4 1323.46 70.6 1396.9 80.92 1451.26 91.24 1492.66 101.56 1524.82 111.76 1550.26 122.08 1570.9 132.4 1587.82 142.6 1601.74 152.92 1613.38 163.24 1623.34 173.56 1631.86 183.76 1639.06 194.08 1645.42 204.4 1650.94 214.72 1655.74 224.92 1659.94 235.24 1663.78 245.56 1667.14 255.76 1670.14 266.08 1672.9 276.4 1675.3 286.72 1677.46 296.92 1679.5 307.24 1681.3 317.56 1682.98 327.88 1684.54 338.08 1685.98"/><g><defs><polygon id="prefix__o" points="8.8 1727.62 338.8 1727.62 338.8 1484.5 8.8 1484.5 8.8 1727.62"/></defs><clipPath id="prefix__p"><use xlink:href="#prefix__o" style="overflow:visible"/></clipPath><polyline points="8.92 -2027.66 19.24 -682.1 29.44 48.94 39.76 489.58 50.08 775.66 60.4 971.74 70.6 1112.02 80.92 1215.82 91.24 1294.78 101.56 1356.22 111.76 1404.94 122.08 1444.3 132.4 1476.46 142.6 1503.22 152.92 1525.54 163.24 1544.38 173.56 1560.58 183.76 1574.5 194.08 1586.5 204.4 1597.06 214.72 1606.3 224.92 1614.46 235.24 1621.66 245.56 1628.02 255.76 1633.78 266.08 1638.94 276.4 1643.62 286.72 1647.82 296.92 1651.66 307.24 1655.14 317.56 1658.38 327.88 1661.26 338.08 1663.9"/></g></g></g><line style="fill:none;stroke:#939598;stroke-width:.5;stroke-linecap:square;stroke-linejoin:round;stroke-dasharray:1.4173" x1="231.29" y1="182.67" x2="231.29" y2="112.67"/><line style="fill:none;stroke:#939598;stroke-width:.5;stroke-linecap:square;stroke-linejoin:round;stroke-dasharray:1.4173" x1="169.36" y1="181.33" x2="169.36" y2="54.83"/><line style="fill:none;stroke:#939598;stroke-width:.5;stroke-linecap:square;stroke-linejoin:round;stroke-dasharray:1.4173" x1="153.88" y1="181.82" x2="153.88" y2="29.83"/><line style="fill:none;stroke:#6d6e71;stroke-width:.5;stroke-linecap:square" x1="45.5" y1="181.89" x2="293" y2="181.89"/><text transform="translate(35.473 184.02)" style="font-family:'Asap-Regular';font-size:7px">0</text><text transform="translate(28.658 155.904)" style="font-family:'Asap-Regular';font-size:7px">100</text><text transform="translate(28.581 127.788)" style="font-family:'Asap-Regular';font-size:7px">200</text><text transform="translate(28.623 99.672)" style="font-family:'Asap-Regular';font-size:7px">300</text><text transform="translate(28.812 71.556)" style="font-family:'Asap-Regular';font-size:7px">400</text><text transform="translate(28.609 43.44)" style="font-family:'Asap-Regular';font-size:7px">500</text><text transform="translate(28.581 15.324)" style="font-family:'Asap-Regular';font-size:7px">600</text><text transform="matrix(0 -.9726 1 0 17.469 139.763)" style="font-family:'Asap-Medium';font-size:8px">Consumption spending (€)</text><text transform="translate(56.212 192.913)" style="font-family:'Asap-Regular';font-size:7px">9</text><text transform="translate(68.203 192.914)" style="font-family:'Asap-Regular';font-size:7px">10</text><text transform="translate(83.938 192.913)" style="font-family:'Asap-Regular';font-size:7px">11</text><text transform="translate(99.673 192.914)" style="font-family:'Asap-Regular';font-size:7px">12</text><text transform="translate(115.408 192.913)" style="font-family:'Asap-Regular';font-size:7px">13</text><text transform="translate(131.143 192.914)" style="font-family:'Asap-Regular';font-size:7px">14</text><text transform="translate(146.878 192.913)" style="font-family:'Asap-Regular';font-size:7px">15</text><text transform="translate(162.613 192.913)" style="font-family:'Asap-Regular';font-size:7px">16</text><text transform="translate(178.348 192.914)" style="font-family:'Asap-Regular';font-size:7px">17</text><text transform="translate(194.083 192.914)" style="font-family:'Asap-Regular';font-size:7px">18</text><text transform="translate(209.818 192.914)" style="font-family:'Asap-Regular';font-size:7px">19</text><text transform="translate(225.553 192.914)" style="font-family:'Asap-Regular';font-size:7px">20</text><text transform="translate(241.288 192.913)" style="font-family:'Asap-Regular';font-size:7px">21</text><text transform="translate(257.024 192.913)" style="font-family:'Asap-Regular';font-size:7px">22</text><text transform="translate(272.758 192.913)" style="font-family:'Asap-Regular';font-size:7px">23</text><text transform="translate(288.493 192.913)" style="font-family:'Asap-Regular';font-size:7px">24</text><circle style="fill:#000101" cx="214.36" cy="102.23" r="1.13"/><circle style="fill:#000101" cx="181.96" cy="71.48" r="1.13"/><circle style="fill:#000101" cx="195.96" cy="86.48" r="1.13"/><text transform="translate(217.912 94.485)" style="font-family:'Asap-Regular';font-size:7px">H</text><text transform="translate(236.422 109.485)" style="font-family:'Asap-Regular';font-size:7px">D</text><text transform="translate(174.422 54.485)" style="font-family:'Asap-Regular';font-size:7px">E</text><text transform="translate(159.422 29.485)" style="font-family:'Asap-Regular';font-size:7px">A</text><text transform="translate(122.45 206.763)" style="font-family:'Asap-Medium';font-size:8px">Hours of free time per day</text><text transform="translate(115.704 26.51)" style="font-family:'Asap-Regular';font-size:7px">B</text><text transform="translate(189.835 70.326)" style="font-family:'Asap-Regular';font-size:7px">F</text><text transform="translate(202.986 82.965)" style="font-family:'Asap-Regular';font-size:7px">G</text><line style="fill:none;stroke:#6d6e71;stroke-width:.5;stroke-linecap:square" x1="293.21" y1="184.02" x2="293.21" y2="181.89"/><line style="fill:none;stroke:#6d6e71;stroke-width:.5;stroke-linecap:square" x1="277.73" y1="181.89" x2="277.73" y2="184.02"/><line style="fill:none;stroke:#6d6e71;stroke-width:.5;stroke-linecap:square" x1="262.25" y1="181.89" x2="262.25" y2="184.02"/><line style="fill:none;stroke:#6d6e71;stroke-width:.5;stroke-linecap:square" x1="246.77" y1="181.89" x2="246.77" y2="184.02"/><line style="fill:none;stroke:#6d6e71;stroke-width:.5;stroke-linecap:square" x1="231.29" y1="181.89" x2="231.29" y2="184.02"/><line style="fill:none;stroke:#6d6e71;stroke-width:.5;stroke-linecap:square" x1="215.8" y1="181.89" x2="215.8" y2="184.02"/><line style="fill:none;stroke:#6d6e71;stroke-width:.5;stroke-linecap:square" x1="200.32" y1="181.89" x2="200.32" y2="184.02"/><line style="fill:none;stroke:#6d6e71;stroke-width:.5;stroke-linecap:square" x1="184.84" y1="181.89" x2="184.84" y2="184.02"/><line style="fill:none;stroke:#6d6e71;stroke-width:.5;stroke-linecap:square" x1="169.36" y1="181.89" x2="169.36" y2="184.02"/><line style="fill:none;stroke:#6d6e71;stroke-width:.5;stroke-linecap:square" x1="153.88" y1="181.89" x2="153.88" y2="184.02"/><line style="fill:none;stroke:#6d6e71;stroke-width:.5;stroke-linecap:square" x1="138.39" y1="181.89" x2="138.39" y2="184.02"/><line style="fill:none;stroke:#6d6e71;stroke-width:.5;stroke-linecap:square" x1="122.91" y1="181.89" x2="122.91" y2="184.02"/><line style="fill:none;stroke:#6d6e71;stroke-width:.5;stroke-linecap:square" x1="107.43" y1="181.89" x2="107.43" y2="184.02"/><line style="fill:none;stroke:#6d6e71;stroke-width:.5;stroke-linecap:square" x1="91.95" y1="181.89" x2="91.95" y2="184.02"/><line style="fill:none;stroke:#6d6e71;stroke-width:.5;stroke-linecap:square" x1="76.46" y1="181.89" x2="76.46" y2="184.02"/><line style="fill:none;stroke:#6d6e71;stroke-width:.5;stroke-linecap:square" x1="60.98" y1="181.89" x2="60.98" y2="184.02"/><line style="fill:none;stroke:#6d6e71;stroke-width:.5;stroke-linecap:square" x1="45.5" y1="181.89" x2="45.5" y2="184.02"/><line style="fill:none;stroke:#6d6e71;stroke-width:.5;stroke-linecap:square;stroke-linejoin:round" x1="45.04" y1="41.02" x2="42.91" y2="41.02"/><line style="fill:none;stroke:#6d6e71;stroke-width:.5;stroke-linecap:square;stroke-linejoin:round" x1="45.04" y1="13.02" x2="42.91" y2="13.02"/><line style="fill:none;stroke:#6d6e71;stroke-width:.5;stroke-linecap:square;stroke-linejoin:round" x1="45.04" y1="68.59" x2="42.91" y2="68.59"/><line style="fill:none;stroke:#6d6e71;stroke-width:.5;stroke-linecap:square;stroke-linejoin:round" x1="45.04" y1="96.88" x2="42.91" y2="96.88"/><line style="fill:none;stroke:#6d6e71;stroke-width:.5;stroke-linecap:square;stroke-linejoin:round" x1="45.04" y1="125.3" x2="42.91" y2="125.3"/><line style="fill:none;stroke:#6d6e71;stroke-width:.5;stroke-linecap:square;stroke-linejoin:round" x1="45.04" y1="152.88" x2="42.91" y2="152.88"/><text transform="translate(44.222 192.913)" style="font-family:'Asap-Regular';font-size:7px">8</text><line style="fill:none;stroke:#6d6e71;stroke-width:.5;stroke-linecap:square;stroke-linejoin:round" x1="45.04" y1="181.89" x2="42.91" y2="181.89"/><circle style="fill:#000101" cx="231.14" cy="158.36" r="1.13"/><line style="fill:none;stroke:#939598;stroke-width:.5;stroke-linecap:square;stroke-linejoin:round;stroke-dasharray:1.4173" x1="45.51" y1="113.02" x2="231" y2="113.02"/><line style="fill:none;stroke:#939598;stroke-width:.5;stroke-linecap:square;stroke-linejoin:round;stroke-dasharray:1.4173" x1="46" y1="55.15" x2="168.11" y2="55.15"/><line style="fill:none;stroke:#939598;stroke-width:.5;stroke-linecap:square;stroke-linejoin:round;stroke-dasharray:1.4173" x1="46" y1="30.33" x2="154" y2="30.33"/><circle style="fill:#000101" cx="168.96" cy="55.48" r="1.13"/><circle style="fill:#000101" cx="153.96" cy="30.48" r="1.13"/><line style="fill:none;stroke:#6d6e71;stroke-width:.5;stroke-linecap:square;stroke-linejoin:round" x1="45.5" y1="181.89" x2="45.5" y2="4.39"/><circle style="fill:#000101" cx="231.14" cy="113.36" r="1.13"/><circle style="fill:#000101" cx="113.96" cy="30.48" r="1.13"/><text transform="translate(235.194 166.435)" style="font-family:'Asap-Regular';font-size:7px">C</text></svg>