<svg version="1.1" xmlns="http://www.w3.org/2000/svg" x="0" y="0" viewBox="0 0 311.81 224.71" style="enable-background:new 0 0 311.81 224.71" xml:space="preserve"><path style="fill:none;stroke:#3a53a4;stroke-width:.5;stroke-linejoin:round" d="M41.02 152.59c95.53-10.9 182.46-56.95 257.21-115.63"/><line style="fill:none;stroke:#6d6e71;stroke-width:.5;stroke-linecap:square;stroke-linejoin:round" x1="40.94" y1="188.87" x2="40.94" y2="8.01"/><text transform="rotate(-90 64.147 53.647)"><tspan x="0" y="0" style="font-family:'Asap-Medium';font-size:8px">Price, </tspan><tspan x="21.3" y="0" style="font-family:'Asap-MediumItalic';font-size:8px">P</tspan><tspan x="25.86" y="0" style="font-family:'Asap-Medium';font-size:8px"> (€)</tspan></text><line style="fill:none;stroke:#6d6e71;stroke-width:.5;stroke-linecap:square;stroke-linejoin:round" x1="298" y1="189.3" x2="298" y2="191.43"/><line style="fill:none;stroke:#6d6e71;stroke-width:.5;stroke-linecap:square;stroke-linejoin:round" x1="272.69" y1="189.3" x2="272.69" y2="191.43"/><line style="fill:none;stroke:#6d6e71;stroke-width:.5;stroke-linecap:square;stroke-linejoin:round" x1="246.88" y1="189.3" x2="246.88" y2="191.43"/><line style="fill:none;stroke:#6d6e71;stroke-width:.5;stroke-linecap:square;stroke-linejoin:round" x1="221.08" y1="189.3" x2="221.08" y2="191.43"/><line style="fill:none;stroke:#6d6e71;stroke-width:.5;stroke-linecap:square;stroke-linejoin:round" x1="195.27" y1="189.3" x2="195.27" y2="191.43"/><line style="fill:none;stroke:#6d6e71;stroke-width:.5;stroke-linecap:square;stroke-linejoin:round" x1="169.47" y1="189.3" x2="169.47" y2="191.43"/><line style="fill:none;stroke:#6d6e71;stroke-width:.5;stroke-linecap:square;stroke-linejoin:round" x1="143.66" y1="189.3" x2="143.66" y2="191.43"/><line style="fill:none;stroke:#6d6e71;stroke-width:.5;stroke-linecap:square;stroke-linejoin:round" x1="118.35" y1="189.3" x2="118.35" y2="191.43"/><line style="fill:none;stroke:#6d6e71;stroke-width:.5;stroke-linecap:square;stroke-linejoin:round" x1="92.55" y1="189.3" x2="92.55" y2="191.43"/><line style="fill:none;stroke:#6d6e71;stroke-width:.5;stroke-linecap:square;stroke-linejoin:round" x1="66.75" y1="189.3" x2="66.75" y2="191.43"/><line style="fill:none;stroke:#6d6e71;stroke-width:.5;stroke-linecap:square;stroke-linejoin:round" x1="40.94" y1="189.3" x2="40.94" y2="191.43"/><line style="fill:none;stroke:#6d6e71;stroke-width:.5;stroke-linecap:square;stroke-linejoin:round" x1="40.94" y1="188.87" x2="298" y2="188.87"/><text transform="translate(133.13 219.25)"><tspan x="0" y="0" style="font-family:'Asap-Medium';font-size:8px">Quantity of loaves, </tspan><tspan x="67.84" y="0" style="font-family:'Asap-MediumItalic';font-size:8px">Q</tspan></text><text transform="translate(38.706 201.025)" style="font-family:'Asap-Regular';font-size:7px">0</text><text transform="translate(57.068 201.025)" style="font-family:'Asap-Regular';font-size:7px">1,000</text><text transform="translate(82.873 201.025)" style="font-family:'Asap-Regular';font-size:7px">2,000</text><text transform="translate(108.678 201.025)" style="font-family:'Asap-Regular';font-size:7px">3,000</text><text transform="translate(134.482 201.025)" style="font-family:'Asap-Regular';font-size:7px">4,000</text><text transform="translate(160.287 201.025)" style="font-family:'Asap-Regular';font-size:7px">5,000</text><text transform="translate(185.596 201.025)" style="font-family:'Asap-Regular';font-size:7px">6,000</text><text transform="translate(211.402 201.025)" style="font-family:'Asap-Regular';font-size:7px">7,000</text><text transform="translate(237.206 201.025)" style="font-family:'Asap-Regular';font-size:7px">8,000</text><text transform="translate(263.01 201.025)" style="font-family:'Asap-Regular';font-size:7px">9,000</text><text transform="translate(286.83 201.025)" style="font-family:'Asap-Regular';font-size:7px">10,000</text><text transform="translate(205.613 51.516)" style="fill:#231f20;font-family:'Asap-Regular';font-size:6px">Supply (marginal cost)</text><g><line style="fill:none;stroke:#6d6e71;stroke-width:.5;stroke-linecap:square;stroke-linejoin:round" x1="40.51" y1="8.01" x2="38.38" y2="8.01"/><line style="fill:none;stroke:#6d6e71;stroke-width:.5;stroke-linecap:square;stroke-linejoin:round" x1="40.51" y1="44.18" x2="38.38" y2="44.18"/><line style="fill:none;stroke:#6d6e71;stroke-width:.5;stroke-linecap:square;stroke-linejoin:round" x1="40.51" y1="79.62" x2="38.38" y2="79.62"/><line style="fill:none;stroke:#6d6e71;stroke-width:.5;stroke-linecap:square;stroke-linejoin:round" x1="40.51" y1="188.87" x2="38.38" y2="188.87"/><line style="fill:none;stroke:#6d6e71;stroke-width:.5;stroke-linecap:square;stroke-linejoin:round" x1="40.51" y1="152.7" x2="38.38" y2="152.7"/><line style="fill:none;stroke:#6d6e71;stroke-width:.5;stroke-linecap:square;stroke-linejoin:round" x1="40.51" y1="116.52" x2="38.38" y2="116.52"/></g><text transform="translate(26.81 10.118)" style="font-family:'Asap-Regular';font-size:7px">5</text><text transform="translate(26.81 46.288)" style="font-family:'Asap-Regular';font-size:7px">4</text><text transform="translate(26.81 82.457)" style="font-family:'Asap-Regular';font-size:7px">3</text><text transform="translate(26.81 118.628)" style="font-family:'Asap-Regular';font-size:7px">2</text><text transform="translate(26.81 154.799)" style="font-family:'Asap-Regular';font-size:7px">1</text><text transform="translate(26.81 190.969)" style="font-family:'Asap-Regular';font-size:7px">0</text><polyline style="fill:none;stroke:#939598;stroke-width:.5;stroke-miterlimit:10;stroke-dasharray:1.417" points="221.08 189.3 221.08 89.71 40.51 89.71"/></svg>