<svg version="1.1" xmlns="http://www.w3.org/2000/svg" xmlns:xlink="http://www.w3.org/1999/xlink" x="0" y="0" viewBox="0 0 311.81 188.51" style="enable-background:new 0 0 311.81 188.51" xml:space="preserve"><g style="display:none"><g style="display:inline;opacity:.42"><polygon style="fill-rule:evenodd;clip-rule:evenodd;fill:#fff" points="-.14 -1.54 311.53 -1.54 311.53 195.68 -.14 195.68 -.14 -1.54"/><defs><polygon id="prefix__a" points="-.23 195.68 311.44 195.68 311.44 -1.64 -.23 -1.64 -.23 195.68"/></defs><clipPath id="prefix__b"><use xlink:href="#prefix__a" style="overflow:visible"/></clipPath><path d="M42.09 139.06h259.07M42.09 117.11h259.07M42.09 95.06h259.07M42.09 73.01h259.07M42.09 51.05h259.07M42.09 29.01h259.07M42.09 6.96h259.07"/><defs><polygon id="prefix__c" points="-.23 195.68 311.44 195.68 311.44 -1.64 -.23 -1.64 -.23 195.68"/></defs><clipPath id="prefix__d"><use xlink:href="#prefix__c" style="overflow:visible"/></clipPath><path d="M79.09 6.96v154.15M116.18 6.96v154.15m37-154.15v154.15M190.17 6.96v154.15m37-154.15v154.15M264.16 6.96v154.15m37-154.15v154.15"/><defs><polygon id="prefix__e" points="-.23 195.68 311.44 195.68 311.44 -1.64 -.23 -1.64 -.23 195.68"/></defs><clipPath id="prefix__f"><use xlink:href="#prefix__e" style="overflow:visible"/></clipPath><line x1="42.09" y1="161.11" x2="42.09" y2="6.96"/><defs><polygon id="prefix__g" points="-.23 195.68 311.44 195.68 311.44 -1.64 -.23 -1.64 -.23 195.68"/></defs><clipPath id="prefix__h"><use xlink:href="#prefix__g" style="overflow:visible"/></clipPath><line x1="42.09" y1="161.11" x2="301.16" y2="161.11"/><defs><polygon id="prefix__i" points="42.09 161.67 301.72 161.67 301.72 6.96 42.09 6.96 42.09 161.67"/></defs><clipPath id="prefix__j"><use xlink:href="#prefix__i" style="overflow:visible"/></clipPath><polyline points="42.14 161.16 116.13 143.5 190.12 125.93 264.12 108.28 338.11 90.62"/><defs><polygon id="prefix__k" points="-.23 195.68 311.44 195.68 311.44 -1.64 -.23 -1.64 -.23 195.68"/></defs><clipPath id="prefix__l"><use xlink:href="#prefix__k" style="overflow:visible"/></clipPath><path d="M44.05 161.08c0 1.08-.88 1.96-1.96 1.96s-1.96-.88-1.96-1.96.88-1.96 1.96-1.96 1.96.88 1.96 1.96z"/><path d="M44.05 161.08c0 1.08-.88 1.96-1.96 1.96s-1.96-.88-1.96-1.96.88-1.96 1.96-1.96 1.96.88 1.96 1.96zM118.14 143.52c0 1.08-.88 1.96-1.96 1.96s-1.96-.88-1.96-1.96.88-1.96 1.96-1.96a1.95 1.95 0 011.96 1.96z"/><path d="M118.14 143.52c0 1.08-.88 1.96-1.96 1.96s-1.96-.88-1.96-1.96.88-1.96 1.96-1.96a1.95 1.95 0 011.96 1.96zM192.13 125.86c0 1.08-.88 1.96-1.96 1.96s-1.96-.88-1.96-1.96.88-1.96 1.96-1.96 1.96.87 1.96 1.96z"/><path d="M192.13 125.86c0 1.08-.88 1.96-1.96 1.96s-1.96-.88-1.96-1.96.88-1.96 1.96-1.96 1.96.87 1.96 1.96zM266.12 108.29c0 1.08-.88 1.96-1.96 1.96s-1.96-.88-1.96-1.96.88-1.96 1.96-1.96 1.96.88 1.96 1.96z"/><path d="M266.12 108.29c0 1.08-.88 1.96-1.96 1.96s-1.96-.88-1.96-1.96.88-1.96 1.96-1.96 1.96.88 1.96 1.96z"/><defs><polygon id="prefix__m" points="42.09 161.67 301.72 161.67 301.72 6.96 42.09 6.96 42.09 161.67"/></defs><clipPath id="prefix__n"><use xlink:href="#prefix__m" style="overflow:visible"/></clipPath><polyline points="42.14 161.16 79.14 117.06 116.13 73.06 153.13 29.05 190.12 -15.04"/><defs><polygon id="prefix__o" points="-.23 195.68 311.44 195.68 311.44 -1.64 -.23 -1.64 -.23 195.68"/></defs><clipPath id="prefix__p"><use xlink:href="#prefix__o" style="overflow:visible"/></clipPath><path d="M44.05 161.08c0 1.08-.88 1.96-1.96 1.96s-1.96-.88-1.96-1.96.88-1.96 1.96-1.96 1.96.88 1.96 1.96z"/><path d="M44.05 161.08c0 1.08-.88 1.96-1.96 1.96s-1.96-.88-1.96-1.96.88-1.96 1.96-1.96 1.96.88 1.96 1.96zM81.05 117.08c0 1.08-.88 1.96-1.96 1.96s-1.96-.88-1.96-1.96.88-1.96 1.96-1.96a1.95 1.95 0 011.96 1.96z"/><path d="M81.05 117.08c0 1.08-.88 1.96-1.96 1.96s-1.96-.88-1.96-1.96.88-1.96 1.96-1.96a1.95 1.95 0 011.96 1.96zM118.14 72.98c0 1.08-.88 1.96-1.96 1.96s-1.96-.88-1.96-1.96.88-1.96 1.96-1.96 1.96.88 1.96 1.96z"/><path d="M118.14 72.98c0 1.08-.88 1.96-1.96 1.96s-1.96-.88-1.96-1.96.88-1.96 1.96-1.96 1.96.88 1.96 1.96zM155.13 28.98c0 1.08-.88 1.96-1.96 1.96s-1.96-.88-1.96-1.96.88-1.96 1.96-1.96 1.96.87 1.96 1.96z"/><path d="M155.13 28.98c0 1.08-.88 1.96-1.96 1.96s-1.96-.88-1.96-1.96.88-1.96 1.96-1.96 1.96.87 1.96 1.96z"/><g><defs><polygon id="prefix__q" points="-.23 195.68 311.44 195.68 311.44 -1.64 -.23 -1.64 -.23 195.68"/></defs><clipPath id="prefix__r"><use xlink:href="#prefix__q" style="overflow:visible"/></clipPath><g><defs><rect id="prefix__s" x="-.23" y="-1.64" width="311.67" height="197.31"/></defs><clipPath id="prefix__t"><use xlink:href="#prefix__s" style="overflow:visible"/></clipPath><text transform="translate(95.79 138.788)"><tspan x="0" y="0" style="fill:#414141;font-family:'Calibri';font-size:7.0069px">Y</tspan><tspan x="3.46" y="0" style="fill:#414141;font-family:'Calibri';font-size:7.0069px">=</tspan><tspan x="6.92" y="0" style="fill:#414141;font-family:'Calibri';font-size:7.0069px">100</tspan></text></g></g><g><defs><polygon id="prefix__u" points="-.23 195.68 311.44 195.68 311.44 -1.64 -.23 -1.64 -.23 195.68"/></defs><clipPath id="prefix__v"><use xlink:href="#prefix__u" style="overflow:visible"/></clipPath><g><defs><rect id="prefix__w" x="-.23" y="-1.64" width="311.67" height="197.31"/></defs><clipPath id="prefix__x"><use xlink:href="#prefix__w" style="overflow:visible"/></clipPath><text transform="translate(169.002 121.965)"><tspan x="0" y="0" style="fill:#414141;font-family:'Calibri';font-size:7.0069px">Y</tspan><tspan x="3.46" y="0" style="fill:#414141;font-family:'Calibri';font-size:7.0069px">=</tspan><tspan x="6.92" y="0" style="fill:#414141;font-family:'Calibri';font-size:7.0069px">200</tspan></text></g></g><g><defs><polygon id="prefix__y" points="-.23 195.68 311.44 195.68 311.44 -1.64 -.23 -1.64 -.23 195.68"/></defs><clipPath id="prefix__z"><use xlink:href="#prefix__y" style="overflow:visible"/></clipPath><g><defs><rect id="prefix__A" x="-.23" y="-1.64" width="311.67" height="197.31"/></defs><clipPath id="prefix__B"><use xlink:href="#prefix__A" style="overflow:visible"/></clipPath><text transform="translate(244.594 103.558)"><tspan x="0" y="0" style="fill:#414141;font-family:'Calibri';font-size:7.0069px">Y</tspan><tspan x="3.46" y="0" style="fill:#414141;font-family:'Calibri';font-size:7.0069px">=</tspan><tspan x="6.92" y="0" style="fill:#414141;font-family:'Calibri';font-size:7.0069px">300</tspan></text></g></g><g><defs><polygon id="prefix__C" points="-.23 195.68 311.44 195.68 311.44 -1.64 -.23 -1.64 -.23 195.68"/></defs><clipPath id="prefix__D"><use xlink:href="#prefix__C" style="overflow:visible"/></clipPath><g><defs><rect id="prefix__E" x="-.23" y="-1.64" width="311.67" height="197.31"/></defs><clipPath id="prefix__F"><use xlink:href="#prefix__E" style="overflow:visible"/></clipPath><text transform="translate(57.549 115.024)"><tspan x="0" y="0" style="fill:#414141;font-family:'Calibri';font-size:7.0069px">Y</tspan><tspan x="3.46" y="0" style="fill:#414141;font-family:'Calibri';font-size:7.0069px">=</tspan><tspan x="6.92" y="0" style="fill:#414141;font-family:'Calibri';font-size:7.0069px">100</tspan></text></g></g><g><defs><polygon id="prefix__G" points="-.23 195.68 311.44 195.68 311.44 -1.64 -.23 -1.64 -.23 195.68"/></defs><clipPath id="prefix__H"><use xlink:href="#prefix__G" style="overflow:visible"/></clipPath><g><defs><rect id="prefix__I" x="-.23" y="-1.64" width="311.67" height="197.31"/></defs><clipPath id="prefix__J"><use xlink:href="#prefix__I" style="overflow:visible"/></clipPath><text transform="translate(94.207 69.9)"><tspan x="0" y="0" style="fill:#414141;font-family:'Calibri';font-size:7.0069px">Y</tspan><tspan x="3.46" y="0" style="fill:#414141;font-family:'Calibri';font-size:7.0069px">=</tspan><tspan x="6.92" y="0" style="fill:#414141;font-family:'Calibri';font-size:7.0069px">200</tspan></text></g></g><g><defs><polygon id="prefix__K" points="-.23 195.68 311.44 195.68 311.44 -1.64 -.23 -1.64 -.23 195.68"/></defs><clipPath id="prefix__L"><use xlink:href="#prefix__K" style="overflow:visible"/></clipPath><g><defs><rect id="prefix__M" x="-.23" y="-1.64" width="311.67" height="197.31"/></defs><clipPath id="prefix__N"><use xlink:href="#prefix__M" style="overflow:visible"/></clipPath><text transform="translate(131.997 25.078)"><tspan x="0" y="0" style="fill:#414141;font-family:'Calibri';font-size:7.0069px">Y</tspan><tspan x="3.46" y="0" style="fill:#414141;font-family:'Calibri';font-size:7.0069px">=</tspan><tspan x="6.92" y="0" style="fill:#414141;font-family:'Calibri';font-size:7.0069px">300</tspan></text></g></g><g><defs><polygon id="prefix__O" points="-.23 195.68 311.44 195.68 311.44 -1.64 -.23 -1.64 -.23 195.68"/></defs><clipPath id="prefix__P"><use xlink:href="#prefix__O" style="overflow:visible"/></clipPath><g><defs><rect id="prefix__Q" x="-.23" y="-1.64" width="311.67" height="197.31"/></defs><clipPath id="prefix__R"><use xlink:href="#prefix__Q" style="overflow:visible"/></clipPath><g><text transform="translate(32.083 163.087)" style="fill:#595a5a;font-family:'Calibri';font-size:7.0069px">0</text></g></g></g><g><defs><polygon id="prefix__S" points="-.23 195.68 311.44 195.68 311.44 -1.64 -.23 -1.64 -.23 195.68"/></defs><clipPath id="prefix__T"><use xlink:href="#prefix__S" style="overflow:visible"/></clipPath><g><defs><rect id="prefix__U" x="-.23" y="-1.64" width="311.67" height="197.31"/></defs><clipPath id="prefix__V"><use xlink:href="#prefix__U" style="overflow:visible"/></clipPath><g><text transform="translate(24.977 141.069)" style="fill:#595a5a;font-family:'Calibri';font-size:7.0069px">200</text></g></g></g><g><defs><polygon id="prefix__W" points="-.23 195.68 311.44 195.68 311.44 -1.64 -.23 -1.64 -.23 195.68"/></defs><clipPath id="prefix__X"><use xlink:href="#prefix__W" style="overflow:visible"/></clipPath><g><defs><rect id="prefix__Y" x="-.23" y="-1.64" width="311.67" height="197.31"/></defs><clipPath id="prefix__Z"><use xlink:href="#prefix__Y" style="overflow:visible"/></clipPath><g><text transform="translate(24.977 119.05)" style="fill:#595a5a;font-family:'Calibri';font-size:7.0069px">400</text></g></g></g><g><defs><polygon id="prefix__aa" points="-.23 195.68 311.44 195.68 311.44 -1.64 -.23 -1.64 -.23 195.68"/></defs><clipPath id="prefix__ab"><use xlink:href="#prefix__aa" style="overflow:visible"/></clipPath><g><defs><rect id="prefix__ac" x="-.23" y="-1.64" width="311.67" height="197.31"/></defs><clipPath id="prefix__ad"><use xlink:href="#prefix__ac" style="overflow:visible"/></clipPath><g><text transform="translate(24.977 97.033)" style="fill:#595a5a;font-family:'Calibri';font-size:7.0069px">600</text></g></g></g><g><defs><polygon id="prefix__ae" points="-.23 195.68 311.44 195.68 311.44 -1.64 -.23 -1.64 -.23 195.68"/></defs><clipPath id="prefix__af"><use xlink:href="#prefix__ae" style="overflow:visible"/></clipPath><g><defs><rect id="prefix__ag" x="-.23" y="-1.64" width="311.67" height="197.31"/></defs><clipPath id="prefix__ah"><use xlink:href="#prefix__ag" style="overflow:visible"/></clipPath><g><text transform="translate(24.977 75.014)" style="fill:#595a5a;font-family:'Calibri';font-size:7.0069px">800</text></g></g></g><g><defs><polygon id="prefix__ai" points="-.23 195.68 311.44 195.68 311.44 -1.64 -.23 -1.64 -.23 195.68"/></defs><clipPath id="prefix__aj"><use xlink:href="#prefix__ai" style="overflow:visible"/></clipPath><g><defs><rect id="prefix__ak" x="-.23" y="-1.64" width="311.67" height="197.31"/></defs><clipPath id="prefix__al"><use xlink:href="#prefix__ak" style="overflow:visible"/></clipPath><g><text transform="translate(21.432 52.997)" style="fill:#595a5a;font-family:'Calibri';font-size:7.0069px">1000</text></g></g></g><g><defs><polygon id="prefix__am" points="-.23 195.68 311.44 195.68 311.44 -1.64 -.23 -1.64 -.23 195.68"/></defs><clipPath id="prefix__an"><use xlink:href="#prefix__am" style="overflow:visible"/></clipPath><g><defs><rect id="prefix__ao" x="-.23" y="-1.64" width="311.67" height="197.31"/></defs><clipPath id="prefix__ap"><use xlink:href="#prefix__ao" style="overflow:visible"/></clipPath><g><text transform="translate(21.432 30.978)" style="fill:#595a5a;font-family:'Calibri';font-size:7.0069px">1200</text></g></g></g><g><defs><polygon id="prefix__aq" points="-.23 195.68 311.44 195.68 311.44 -1.64 -.23 -1.64 -.23 195.68"/></defs><clipPath id="prefix__ar"><use xlink:href="#prefix__aq" style="overflow:visible"/></clipPath><g><defs><rect id="prefix__as" x="-.23" y="-1.64" width="311.67" height="197.31"/></defs><clipPath id="prefix__at"><use xlink:href="#prefix__as" style="overflow:visible"/></clipPath><g><text transform="translate(21.432 8.96)" style="fill:#595a5a;font-family:'Calibri';font-size:7.0069px">1400</text></g></g></g><g><defs><polygon id="prefix__au" points="-.23 195.68 311.44 195.68 311.44 -1.64 -.23 -1.64 -.23 195.68"/></defs><clipPath id="prefix__av"><use xlink:href="#prefix__au" style="overflow:visible"/></clipPath><g><defs><rect id="prefix__aw" x="-.23" y="-1.64" width="311.67" height="197.31"/></defs><clipPath id="prefix__ax"><use xlink:href="#prefix__aw" style="overflow:visible"/></clipPath><g><text transform="translate(40.355 172.205)" style="fill:#595a5a;font-family:'Calibri';font-size:7.0069px">0</text></g></g></g><g><defs><polygon id="prefix__ay" points="-.23 195.68 311.44 195.68 311.44 -1.64 -.23 -1.64 -.23 195.68"/></defs><clipPath id="prefix__az"><use xlink:href="#prefix__ay" style="overflow:visible"/></clipPath><g><defs><rect id="prefix__aA" x="-.23" y="-1.64" width="311.67" height="197.31"/></defs><clipPath id="prefix__aB"><use xlink:href="#prefix__aA" style="overflow:visible"/></clipPath><g><text transform="translate(77.36 172.205)" style="fill:#595a5a;font-family:'Calibri';font-size:7.0069px">1</text></g></g></g><g><defs><polygon id="prefix__aC" points="-.23 195.68 311.44 195.68 311.44 -1.64 -.23 -1.64 -.23 195.68"/></defs><clipPath id="prefix__aD"><use xlink:href="#prefix__aC" style="overflow:visible"/></clipPath><g><defs><rect id="prefix__aE" x="-.23" y="-1.64" width="311.67" height="197.31"/></defs><clipPath id="prefix__aF"><use xlink:href="#prefix__aE" style="overflow:visible"/></clipPath><g><text transform="translate(114.364 172.205)" style="fill:#595a5a;font-family:'Calibri';font-size:7.0069px">2</text></g></g></g><g><defs><polygon id="prefix__aG" points="-.23 195.68 311.44 195.68 311.44 -1.64 -.23 -1.64 -.23 195.68"/></defs><clipPath id="prefix__aH"><use xlink:href="#prefix__aG" style="overflow:visible"/></clipPath><g><defs><rect id="prefix__aI" x="-.23" y="-1.64" width="311.67" height="197.31"/></defs><clipPath id="prefix__aJ"><use xlink:href="#prefix__aI" style="overflow:visible"/></clipPath><g><text transform="translate(151.363 172.205)" style="fill:#595a5a;font-family:'Calibri';font-size:7.0069px">3</text></g></g></g><g><defs><polygon id="prefix__aK" points="-.23 195.68 311.44 195.68 311.44 -1.64 -.23 -1.64 -.23 195.68"/></defs><clipPath id="prefix__aL"><use xlink:href="#prefix__aK" style="overflow:visible"/></clipPath><g><defs><rect id="prefix__aM" x="-.23" y="-1.64" width="311.67" height="197.31"/></defs><clipPath id="prefix__aN"><use xlink:href="#prefix__aM" style="overflow:visible"/></clipPath><g><text transform="translate(188.368 172.205)" style="fill:#595a5a;font-family:'Calibri';font-size:7.0069px">4</text></g></g></g><g><defs><polygon id="prefix__aO" points="-.23 195.68 311.44 195.68 311.44 -1.64 -.23 -1.64 -.23 195.68"/></defs><clipPath id="prefix__aP"><use xlink:href="#prefix__aO" style="overflow:visible"/></clipPath><g><defs><rect id="prefix__aQ" x="-.23" y="-1.64" width="311.67" height="197.31"/></defs><clipPath id="prefix__aR"><use xlink:href="#prefix__aQ" style="overflow:visible"/></clipPath><g><text transform="translate(225.373 172.205)" style="fill:#595a5a;font-family:'Calibri';font-size:7.0069px">5</text></g></g></g><g><defs><polygon id="prefix__aS" points="-.23 195.68 311.44 195.68 311.44 -1.64 -.23 -1.64 -.23 195.68"/></defs><clipPath id="prefix__aT"><use xlink:href="#prefix__aS" style="overflow:visible"/></clipPath><g><defs><rect id="prefix__aU" x="-.23" y="-1.64" width="311.67" height="197.31"/></defs><clipPath id="prefix__aV"><use xlink:href="#prefix__aU" style="overflow:visible"/></clipPath><g><text transform="translate(262.372 172.205)" style="fill:#595a5a;font-family:'Calibri';font-size:7.0069px">6</text></g></g></g><g><defs><polygon id="prefix__aW" points="-.23 195.68 311.44 195.68 311.44 -1.64 -.23 -1.64 -.23 195.68"/></defs><clipPath id="prefix__aX"><use xlink:href="#prefix__aW" style="overflow:visible"/></clipPath><g><defs><rect id="prefix__aY" x="-.23" y="-1.64" width="311.67" height="197.31"/></defs><clipPath id="prefix__aZ"><use xlink:href="#prefix__aY" style="overflow:visible"/></clipPath><g><text transform="translate(299.378 172.205)" style="fill:#595a5a;font-family:'Calibri';font-size:7.0069px">7</text></g></g></g><g><defs><polygon id="prefix__ba" points="-.23 195.68 311.44 195.68 311.44 -1.64 -.23 -1.64 -.23 195.68"/></defs><clipPath id="prefix__bb"><use xlink:href="#prefix__ba" style="overflow:visible"/></clipPath><g><defs><rect id="prefix__bc" x="-.23" y="-1.64" width="311.67" height="197.31"/></defs><clipPath id="prefix__bd"><use xlink:href="#prefix__bc" style="overflow:visible"/></clipPath><text transform="rotate(-90 61.191 44.223)"><tspan x="0" y="0" style="fill:#595a5a;font-family:'Calibri';font-size:7.7543px">E</tspan><tspan x="3.82" y="0" style="fill:#595a5a;font-family:'Calibri';font-size:7.7543px">n</tspan><tspan x="7.93" y="0" style="fill:#595a5a;font-family:'Calibri';font-size:7.7543px">e</tspan><tspan x="11.77" y="0" style="fill:#595a5a;font-family:'Calibri';font-size:7.7543px">rg</tspan><tspan x="18.12" y="0" style="fill:#595a5a;font-family:'Calibri';font-size:7.7543px">y</tspan><tspan x="21.67" y="0" style="fill:#595a5a;font-family:'Calibri';font-size:7.7543px"> </tspan><tspan x="23.44" y="0" style="fill:#595a5a;font-family:'Calibri';font-size:7.7543px">(</tspan><tspan x="25.77" y="0" style="fill:#595a5a;font-family:'Calibri';font-size:7.7543px">k</tspan><tspan x="29.32" y="0" style="fill:#595a5a;font-family:'Calibri';font-size:7.7543px">W</tspan><tspan x="36.23" y="0" style="fill:#595a5a;font-family:'Calibri';font-size:7.7543px">h</tspan><tspan x="40.33" y="0" style="fill:#595a5a;font-family:'Calibri';font-size:7.7543px">)</tspan></text></g></g><g><defs><polygon id="prefix__be" points="-.23 195.68 311.44 195.68 311.44 -1.64 -.23 -1.64 -.23 195.68"/></defs><clipPath id="prefix__bf"><use xlink:href="#prefix__be" style="overflow:visible"/></clipPath><g><defs><rect id="prefix__bg" x="-.23" y="-1.64" width="311.67" height="197.31"/></defs><clipPath id="prefix__bh"><use xlink:href="#prefix__bg" style="overflow:visible"/></clipPath><text transform="translate(140.98 183.84)"><tspan x="0" y="0" style="fill:#595a5a;font-family:'Calibri';font-size:7.7543px">N</tspan><tspan x="5.04" y="0" style="fill:#595a5a;font-family:'Calibri';font-size:7.7543px">u</tspan><tspan x="9.15" y="0" style="fill:#595a5a;font-family:'Calibri';font-size:7.7543px">m</tspan><tspan x="15.32" y="0" style="fill:#595a5a;font-family:'Calibri';font-size:7.7543px">b</tspan><tspan x="19.42" y="0" style="fill:#595a5a;font-family:'Calibri';font-size:7.7543px">e</tspan><tspan x="23.26" y="0" style="fill:#595a5a;font-family:'Calibri';font-size:7.7543px">r</tspan><tspan x="25.96" y="0" style="fill:#595a5a;font-family:'Calibri';font-size:7.7543px"> o</tspan><tspan x="31.84" y="0" style="fill:#595a5a;font-family:'Calibri';font-size:7.7543px">f</tspan><tspan x="34.18" y="0" style="fill:#595a5a;font-family:'Calibri';font-size:7.7543px"> </tspan><tspan x="35.95" y="0" style="fill:#595a5a;font-family:'Calibri';font-size:7.7543px">w</tspan><tspan x="41.46" y="0" style="fill:#595a5a;font-family:'Calibri';font-size:7.7543px">o</tspan><tspan x="45.56" y="0" style="fill:#595a5a;font-family:'Calibri';font-size:7.7543px">r</tspan><tspan x="48.27" y="0" style="fill:#595a5a;font-family:'Calibri';font-size:7.7543px">k</tspan><tspan x="51.82" y="0" style="fill:#595a5a;font-family:'Calibri';font-size:7.7543px">e</tspan><tspan x="55.65" y="0" style="fill:#595a5a;font-family:'Calibri';font-size:7.7543px">rs</tspan></text></g></g><g><defs><polygon id="prefix__bi" points="-.42 195.96 311.81 195.96 311.81 -1.82 -.42 -1.82 -.42 195.96"/></defs><clipPath id="prefix__bj"><use xlink:href="#prefix__bi" style="overflow:visible"/></clipPath><polygon points="-.14 -1.54 311.53 -1.54 311.53 195.68 -.14 195.68 -.14 -1.54"/></g><g><defs><polygon id="prefix__bk" points="-.23 195.77 311.53 195.77 311.53 -1.64 -.23 -1.64 -.23 195.77"/></defs><clipPath id="prefix__bl"><use xlink:href="#prefix__bk" style="overflow:visible"/></clipPath><g><defs><rect id="prefix__bm" x="-.23" y="-1.64" width="311.76" height="197.41"/></defs><clipPath id="prefix__bn"><use xlink:href="#prefix__bm" style="overflow:visible"/></clipPath><text transform="translate(174.944 17.749)"><tspan x="0" y="0" style="font-family:'Calibri';font-size:8.5951px">R</tspan><tspan x="4.67" y="0" style="font-family:'Calibri';font-size:8.5951px">o</tspan><tspan x="9.24" y="0" style="font-family:'Calibri';font-size:8.5951px">b</tspan><tspan x="13.73" y="0" style="font-family:'Calibri';font-size:8.5951px">o</tspan><tspan x="18.31" y="0" style="font-family:'Calibri';font-size:8.5951px">ti</tspan><tspan x="23.09" y="0" style="font-family:'Calibri';font-size:8.5951px">c</tspan><tspan x="26.73" y="0" style="font-family:'Calibri';font-size:8.5951px"> </tspan><tspan x="28.51" y="0" style="font-family:'Calibri';font-size:8.5951px">t</tspan><tspan x="31.4" y="0" style="font-family:'Calibri';font-size:8.5951px">e</tspan><tspan x="35.69" y="0" style="font-family:'Calibri';font-size:8.5951px">c</tspan><tspan x="39.34" y="0" style="font-family:'Calibri';font-size:8.5951px">hn</tspan><tspan x="48.32" y="0" style="font-family:'Calibri';font-size:8.5951px">o</tspan><tspan x="52.89" y="0" style="font-family:'Calibri';font-size:8.5951px">l</tspan><tspan x="54.85" y="0" style="font-family:'Calibri';font-size:8.5951px">o</tspan><tspan x="59.43" y="0" style="font-family:'Calibri';font-size:8.5951px">g</tspan><tspan x="63.45" y="0" style="font-family:'Calibri';font-size:8.5951px">y</tspan><tspan x="67.37" y="0" style="font-family:'Calibri';font-size:8.5951px"> </tspan><tspan x="69.05" y="0" style="font-family:'Calibri';font-size:8.5951px">(</tspan><tspan x="71.67" y="0" style="font-family:'Calibri';font-size:8.5951px">B)</tspan></text></g></g><g><defs><polygon id="prefix__bo" points="-.23 195.77 311.53 195.77 311.53 -1.64 -.23 -1.64 -.23 195.77"/></defs><clipPath id="prefix__bp"><use xlink:href="#prefix__bo" style="overflow:visible"/></clipPath><g><defs><rect id="prefix__bq" x="-.23" y="-1.64" width="311.76" height="197.41"/></defs><clipPath id="prefix__br"><use xlink:href="#prefix__bq" style="overflow:visible"/></clipPath><text transform="translate(215.672 128.472)"><tspan x="0" y="0" style="font-family:'Calibri';font-size:8.5951px">Or</tspan><tspan x="8.69" y="0" style="font-family:'Calibri';font-size:8.5951px">i</tspan><tspan x="10.65" y="0" style="font-family:'Calibri';font-size:8.5951px">g</tspan><tspan x="14.67" y="0" style="font-family:'Calibri';font-size:8.5951px">i</tspan><tspan x="16.63" y="0" style="font-family:'Calibri';font-size:8.5951px">n</tspan><tspan x="21.12" y="0" style="font-family:'Calibri';font-size:8.5951px">a</tspan><tspan x="25.24" y="0" style="font-family:'Calibri';font-size:8.5951px">l</tspan><tspan x="27.21" y="0" style="font-family:'Calibri';font-size:8.5951px"> </tspan><tspan x="29.17" y="0" style="font-family:'Calibri';font-size:8.5951px">t</tspan><tspan x="32.05" y="0" style="font-family:'Calibri';font-size:8.5951px">e</tspan><tspan x="36.35" y="0" style="font-family:'Calibri';font-size:8.5951px">c</tspan><tspan x="39.99" y="0" style="font-family:'Calibri';font-size:8.5951px">hn</tspan><tspan x="48.97" y="0" style="font-family:'Calibri';font-size:8.5951px">o</tspan><tspan x="53.55" y="0" style="font-family:'Calibri';font-size:8.5951px">l</tspan><tspan x="55.51" y="0" style="font-family:'Calibri';font-size:8.5951px">o</tspan><tspan x="60.08" y="0" style="font-family:'Calibri';font-size:8.5951px">g</tspan><tspan x="64.11" y="0" style="font-family:'Calibri';font-size:8.5951px">y</tspan><tspan x="68.02" y="0" style="font-family:'Calibri';font-size:8.5951px"> </tspan><tspan x="69.71" y="0" style="font-family:'Calibri';font-size:8.5951px">(</tspan><tspan x="72.32" y="0" style="font-family:'Calibri';font-size:8.5951px">A</tspan><tspan x="77.28" y="0" style="font-family:'Calibri';font-size:8.5951px">)</tspan></text></g></g></g></g><line style="fill:#3b54a4;stroke:#3b54a4;stroke-width:.5;stroke-linecap:square" x1="41.02" y1="160.25" x2="299.72" y2="98.14"/><line style="fill:none;stroke:#6d6e71;stroke-width:.5;stroke-linecap:square" x1="37.36" y1="160.67" x2="301.16" y2="160.67"/><line style="fill:none;stroke:#6d6e71;stroke-width:.5;stroke-linecap:square;stroke-linejoin:round" x1="40.6" y1="5.96" x2="40.6" y2="164.23"/><line style="fill:none;stroke:#6d6e71;stroke-width:.5;stroke-linecap:square;stroke-linejoin:round" x1="40.6" y1="137.79" x2="38.47" y2="137.79"/><line style="fill:none;stroke:#6d6e71;stroke-width:.5;stroke-linecap:square;stroke-linejoin:round" x1="40.6" y1="116.03" x2="38.47" y2="116.03"/><line style="fill:none;stroke:#6d6e71;stroke-width:.5;stroke-linecap:square;stroke-linejoin:round" x1="40.6" y1="93.91" x2="38.47" y2="93.91"/><line style="fill:none;stroke:#6d6e71;stroke-width:.5;stroke-linecap:square;stroke-linejoin:round" x1="40.22" y1="71.87" x2="38.1" y2="71.87"/><line style="fill:none;stroke:#6d6e71;stroke-width:.5;stroke-linecap:square" x1="78.96" y1="161.09" x2="78.96" y2="163.21"/><line style="fill:none;stroke:#6d6e71;stroke-width:.5;stroke-linecap:square" x1="116.11" y1="161.09" x2="116.11" y2="163.21"/><line style="fill:none;stroke:#6d6e71;stroke-width:.5;stroke-linecap:square" x1="153.39" y1="161.09" x2="153.39" y2="163.21"/><line style="fill:none;stroke:#6d6e71;stroke-width:.5;stroke-linecap:square" x1="190.36" y1="161.09" x2="190.36" y2="163.21"/><line style="fill:none;stroke:#6d6e71;stroke-width:.5;stroke-linecap:square" x1="227.48" y1="161.09" x2="227.48" y2="163.21"/><line style="fill:none;stroke:#6d6e71;stroke-width:.5;stroke-linecap:square" x1="264.45" y1="161.09" x2="264.45" y2="163.21"/><line style="fill:none;stroke:#6d6e71;stroke-width:.5;stroke-linecap:square" x1="301.16" y1="161.09" x2="301.16" y2="163.21"/><line style="fill:none;stroke:#6d6e71;stroke-width:.5;stroke-linecap:square;stroke-linejoin:round" x1="40.6" y1="50.37" x2="38.47" y2="50.37"/><line style="fill:none;stroke:#6d6e71;stroke-width:.5;stroke-linecap:square;stroke-linejoin:round" x1="40.54" y1="27.49" x2="38.41" y2="27.49"/><line style="fill:none;stroke:#6d6e71;stroke-width:.5;stroke-linecap:square;stroke-linejoin:round" x1="40.54" y1="5.96" x2="38.41" y2="5.96"/><line style="fill:#ec2426;stroke:#ec2426;stroke-width:.5;stroke-linecap:square" x1="41.27" y1="160.14" x2="171.11" y2="6.28"/><circle style="fill:#ed2124" cx="78.96" cy="116.03" r="2.13"/><circle style="fill:#ed2124" cx="116.11" cy="72" r="2.13"/><circle style="fill:#ed2124" cx="153.15" cy="27.97" r="2.13"/><circle style="fill:#3a53a4" cx="264.05" cy="107.33" r="2.13"/><circle style="fill:#3a53a4" cx="190.36" cy="124.68" r="2.13"/><circle style="fill:#3a53a4" cx="116.11" cy="142.45" r="2.13"/><text transform="translate(24.517 140.173)" style="font-family:'Asap-Regular';font-size:7px">200</text><text transform="translate(24.39 118.199)" style="font-family:'Asap-Regular';font-size:7px">400</text><text transform="translate(24.517 96.096)" style="font-family:'Asap-Regular';font-size:7px">600</text><text transform="translate(24.517 74.078)" style="font-family:'Asap-Regular';font-size:7px">800</text><text transform="translate(20.94 52.102)" style="font-family:'Asap-Regular';font-size:7px">1,000</text><text transform="translate(21.072 29.978)" style="font-family:'Asap-Regular';font-size:7px">1,200</text><text transform="translate(20.792 7.96)" style="font-family:'Asap-Regular';font-size:7px">1,400</text><text transform="translate(94.315 68.962)"><tspan x="0" y="0" style="font-family:'Asap-Italic';font-size:6px">Y</tspan><tspan x="3.35" y="0" style="font-family:'Asap-Regular';font-size:6px"> = 200</tspan></text><text transform="translate(170.26 120.964)"><tspan x="0" y="0" style="font-family:'Asap-Italic';font-size:6px">Y</tspan><tspan x="3.35" y="0" style="font-family:'Asap-Regular';font-size:6px"> = 200</tspan></text><text transform="translate(57.657 113.56)"><tspan x="0" y="0" style="font-family:'Asap-Italic';font-size:6px">Y</tspan><tspan x="3.35" y="0" style="font-family:'Asap-Regular';font-size:6px"> = 100</tspan></text><text transform="translate(95.897 137.85)"><tspan x="0" y="0" style="font-family:'Asap-Italic';font-size:6px">Y</tspan><tspan x="3.35" y="0" style="font-family:'Asap-Regular';font-size:6px"> = 100</tspan></text><text transform="translate(32.328 162.087)" style="font-family:'Asap-Regular';font-size:7px">0</text><text transform="translate(39.967 171.267)" style="font-family:'Asap-Regular';font-size:7px">0</text><text transform="translate(77.955 171.309)" style="font-family:'Asap-Regular';font-size:7px">1</text><text transform="translate(114.757 171.309)" style="font-family:'Asap-Regular';font-size:7px">2</text><text transform="translate(151.714 171.31)" style="font-family:'Asap-Regular';font-size:7px">3</text><text transform="translate(188.53 171.205)" style="font-family:'Asap-Regular';font-size:7px">4</text><text transform="translate(224.948 171.205)" style="font-family:'Asap-Regular';font-size:7px">5</text><text transform="translate(261.922 171.205)" style="font-family:'Asap-Regular';font-size:7px">6</text><text transform="translate(299.714 171.205)" style="font-family:'Asap-Regular';font-size:7px">7</text><text transform="translate(244.7 102.558)"><tspan x="0" y="0" style="font-family:'Asap-Italic';font-size:6px">Y</tspan><tspan x="3.35" y="0" style="font-family:'Asap-Regular';font-size:6px"> = 300</tspan></text><text transform="translate(132.105 24.078)"><tspan x="0" y="0" style="font-family:'Asap-Italic';font-size:6px">Y</tspan><tspan x="3.35" y="0" style="font-family:'Asap-Regular';font-size:6px"> = 300</tspan></text><text transform="rotate(-90 58.275 48.309)" style="font-family:'Asap-Medium';font-size:8px">Energy (kWh)</text><text transform="translate(135.397 185.91)" style="font-family:'Asap-Medium';font-size:8px">Number of workers</text><text transform="translate(220.85 127.47)" style="font-family:'Asap-Regular';font-size:7px">Original technology (A)</text><text transform="translate(179.445 16.749)" style="font-family:'Asap-Regular';font-size:7px">Robotic technology (B)</text></svg>