<svg xmlns="http://www.w3.org/2000/svg" viewBox="0 0 810 493"><rect width="100%" height="100%" style="stroke:none;fill:#fff;stroke-linecap:round;stroke-linejoin:round;stroke-miterlimit:10"/><rect x="0" y="0" width="810" height="493" style="stroke-width:1.07;stroke:#fff;fill:#fff;stroke-linecap:round;stroke-linejoin:round;stroke-miterlimit:10"/><defs><clipPath id="prefix__a"><rect x="87.27" y="14.17" width="708.56" height="375.86" style="fill:none;stroke:#000;stroke-linecap:round;stroke-linejoin:round;stroke-miterlimit:10"/></clipPath></defs><rect x="87.27" y="14.17" width="708.56" height="375.86" style="stroke-width:1.07;stroke:none;fill:#fff;stroke-linecap:round;stroke-linejoin:round;stroke-miterlimit:10" clip-path="url(#prefix__a)"/><polyline points="87.27 390.03 795.83 390.03" style="stroke-width:1.07;stroke:#c6c4c4;stroke-linecap:butt;fill:none;stroke-linejoin:round;stroke-miterlimit:10" clip-path="url(#prefix__a)"/><polyline points="87.27 343.05 795.83 343.05" style="stroke-width:1.07;stroke:#c6c4c4;stroke-linecap:butt;fill:none;stroke-linejoin:round;stroke-miterlimit:10" clip-path="url(#prefix__a)"/><polyline points="87.27 296.07 795.83 296.07" style="stroke-width:1.07;stroke:#c6c4c4;stroke-linecap:butt;fill:none;stroke-linejoin:round;stroke-miterlimit:10" clip-path="url(#prefix__a)"/><polyline points="87.27 249.09 795.83 249.09" style="stroke-width:1.07;stroke:#c6c4c4;stroke-linecap:butt;fill:none;stroke-linejoin:round;stroke-miterlimit:10" clip-path="url(#prefix__a)"/><polyline points="87.27 202.1 795.83 202.1" style="stroke-width:1.07;stroke:#c6c4c4;stroke-linecap:butt;fill:none;stroke-linejoin:round;stroke-miterlimit:10" clip-path="url(#prefix__a)"/><polyline points="87.27 155.12 795.83 155.12" style="stroke-width:1.07;stroke:#c6c4c4;stroke-linecap:butt;fill:none;stroke-linejoin:round;stroke-miterlimit:10" clip-path="url(#prefix__a)"/><polyline points="87.27 108.14 795.83 108.14" style="stroke-width:1.07;stroke:#c6c4c4;stroke-linecap:butt;fill:none;stroke-linejoin:round;stroke-miterlimit:10" clip-path="url(#prefix__a)"/><polyline points="87.27 61.16 795.83 61.16" style="stroke-width:1.07;stroke:#c6c4c4;stroke-linecap:butt;fill:none;stroke-linejoin:round;stroke-miterlimit:10" clip-path="url(#prefix__a)"/><polyline points="87.27 14.17 795.83 14.17" style="stroke-width:1.07;stroke:#c6c4c4;stroke-linecap:butt;fill:none;stroke-linejoin:round;stroke-miterlimit:10" clip-path="url(#prefix__a)"/><polyline points="87.27 325.16 91.59 334.73 95.91 334.3 100.23 346.97 104.55 345.23 108.87 355.21 113.19 352.09 117.51 348.04 121.83 345.37 126.15 341 130.48 344.36 134.8 346.78 139.12 344.32 143.44 341.91 147.76 328.69 152.08 331.73 156.4 335.43 160.72 347.44 165.04 341.79 169.36 346.63 173.68 344.73 178 343.39 182.32 336.62 186.64 340.02 190.96 333.23 195.28 318.72 199.6 313.25 203.92 319.46 208.24 333.51 212.56 331.74 216.88 328.41 221.2 320.88 225.53 323.88 229.85 319.01 234.17 316.97 238.49 309.22 242.81 321.8 247.13 322.6 251.45 325.33 255.77 311.77 260.09 306.37 264.41 303.03 268.73 312.99 273.05 318.05 277.37 317.46 281.69 321.89 286.01 325.46 290.33 313.75 294.65 303.81 298.97 290.67 303.29 293.34 307.61 295.38 311.93 305.9 316.26 311.48 320.58 304.75 324.9 298.27 329.22 303.93 333.54 305.4 337.86 308.58 342.18 298.86 346.5 303.18 350.82 307.12 355.14 314.18 359.46 315.77 363.78 317.51 368.1 314.97 372.42 283.66 376.74 249.52 381.06 228.06 385.38 241.92 389.7 253.43 394.02 260.42 398.34 261.22 402.66 265.37 406.98 266.97 411.31 274.14 415.63 283.81 419.95 276.58 424.27 241.25 428.59 204.15 432.91 196.66 437.23 197.9 441.55 201.59 445.87 200.07 450.19 210.02 454.51 221.76 458.83 233.11 463.15 255.04 467.47 282.37 471.79 309.92 476.11 323.26 480.43 319.71 484.75 300.94 489.07 252.68 493.39 203.55 497.71 169.79 502.04 152.51 506.36 161.86 510.68 175.07 515 213.86 519.32 233.37 523.64 245.84 527.96 237.15 532.28 197.74 536.6 171.85 540.92 175.1 545.24 178.28 549.56 185.98 553.88 178.73 558.2 203.14 562.52 200.6 566.84 211.34 571.16 224.5 575.48 238.29 579.8 226.85 584.12 206.19 588.44 184.16 592.76 164.77 597.09 158.41 601.41 171.4 605.73 182.67 610.05 190.27 614.37 176.79 618.69 151.36 623.01 154.23 627.33 160.48 631.65 189.6 635.97 187.81 640.29 192.84 644.61 196.2 648.93 209.06 653.25 205.91 657.57 208.41 661.89 201.57 666.21 190.83 670.53 180.87 674.85 145.62 679.17 107.11 683.49 85.8 687.82 76.11 692.14 120.22 696.46 135.72 700.78 162.65 705.1 147.32 709.42 128.81 713.74 97.14 718.06 79.1 722.38 69.3 726.7 90.06 731.02 99.41 735.34 129.4 739.66 140.34 743.98 161.91 748.3 152.21 752.62 146.13 756.94 131.72 761.26 112.64 765.58 116.4 769.9 109.2 774.22 93.53 778.54 79.7 782.87 64.53 787.19 64.12 791.51 49.06" style="stroke-width:1.2;stroke:#f49323;stroke-linecap:butt;fill:none;stroke-linejoin:round;stroke-miterlimit:10" clip-path="url(#prefix__a)"/><circle cx="372.42" cy="283.66" r="2.2" style="stroke-width:1.2;fill:#000;stroke:#000;stroke-linecap:round;stroke-linejoin:round;stroke-miterlimit:10" clip-path="url(#prefix__a)"/><circle cx="419.95" cy="276.58" r="2.2" style="stroke-width:1.2;fill:#000;stroke:#000;stroke-linecap:round;stroke-linejoin:round;stroke-miterlimit:10" clip-path="url(#prefix__a)"/><circle cx="489.07" cy="252.68" r="2.2" style="stroke-width:1.2;fill:#000;stroke:#000;stroke-linecap:round;stroke-linejoin:round;stroke-miterlimit:10" clip-path="url(#prefix__a)"/><circle cx="670.53" cy="180.87" r="2.2" style="stroke-width:1.2;fill:#000;stroke:#000;stroke-linecap:round;stroke-linejoin:round;stroke-miterlimit:10" clip-path="url(#prefix__a)"/><circle cx="679.17" cy="107.11" r="2.2" style="stroke-width:1.2;fill:#000;stroke:#000;stroke-linecap:round;stroke-linejoin:round;stroke-miterlimit:10" clip-path="url(#prefix__a)"/><circle cx="761.26" cy="112.64" r="2.2" style="stroke-width:1.2;fill:#000;stroke:#000;stroke-linecap:round;stroke-linejoin:round;stroke-miterlimit:10" clip-path="url(#prefix__a)"/><g clip-path="url(#prefix__a)"><text x="234.17" y="267.64" style="font-size:14px;font-weight:700;font-family:Asap" textLength="29.96" lengthAdjust="spacingAndGlyphs">1918</text></g><g clip-path="url(#prefix__a)"><text x="267.49" y="267.64" style="font-size:14px;font-family:Asap" textLength="23.35" lengthAdjust="spacingAndGlyphs">End</text></g><g clip-path="url(#prefix__a)"><text x="294.2" y="267.64" style="font-size:14px;font-family:Asap" textLength="12.52" lengthAdjust="spacingAndGlyphs">of</text></g><g clip-path="url(#prefix__a)"><text x="310.07" y="267.64" style="font-size:14px;font-family:Asap" textLength="32.21" lengthAdjust="spacingAndGlyphs">WWI,</text></g><g clip-path="url(#prefix__a)"><text x="234.17" y="284.38" style="font-size:14px;font-family:Asap" textLength="47.04" lengthAdjust="spacingAndGlyphs">Russian</text></g><g clip-path="url(#prefix__a)"><text x="284.57" y="284.38" style="font-size:14px;font-family:Asap" textLength="67.06" lengthAdjust="spacingAndGlyphs">Revolution</text></g><g clip-path="url(#prefix__a)"><text x="385.38" y="314.62" style="font-size:14px;font-weight:700;font-family:Asap" textLength="29.96" lengthAdjust="spacingAndGlyphs">1929</text></g><g clip-path="url(#prefix__a)"><text x="418.7" y="314.62" style="font-size:14px;font-family:Asap" textLength="28.69" lengthAdjust="spacingAndGlyphs">Wall</text></g><g clip-path="url(#prefix__a)"><text x="385.38" y="331.36" style="font-size:14px;font-family:Asap" textLength="36.79" lengthAdjust="spacingAndGlyphs">Street</text></g><g clip-path="url(#prefix__a)"><text x="425.53" y="331.36" style="font-size:14px;font-family:Asap" textLength="33.24" lengthAdjust="spacingAndGlyphs">crash</text></g><g clip-path="url(#prefix__a)"><text x="502.04" y="276.01" style="font-size:14px;font-weight:700;font-family:Asap" textLength="29.96" lengthAdjust="spacingAndGlyphs">1945</text></g><g clip-path="url(#prefix__a)"><text x="535.36" y="276.01" style="font-size:14px;font-family:Asap" textLength="23.35" lengthAdjust="spacingAndGlyphs">End</text></g><g clip-path="url(#prefix__a)"><text x="562.07" y="276.01" style="font-size:14px;font-family:Asap" textLength="12.52" lengthAdjust="spacingAndGlyphs">of</text></g><g clip-path="url(#prefix__a)"><text x="577.94" y="276.01" style="font-size:14px;font-family:Asap" textLength="33.4" lengthAdjust="spacingAndGlyphs">WWII</text></g><g clip-path="url(#prefix__a)"><text x="679.17" y="179.55" style="font-size:14px;font-weight:700;font-family:Asap" textLength="29.96" lengthAdjust="spacingAndGlyphs">1987</text></g><g clip-path="url(#prefix__a)"><text x="712.49" y="179.55" style="font-size:14px;font-family:Asap" textLength="44.18" lengthAdjust="spacingAndGlyphs">Market</text></g><g clip-path="url(#prefix__a)"><text x="679.17" y="196.28" style="font-size:14px;font-family:Asap" textLength="33.24" lengthAdjust="spacingAndGlyphs">crash</text></g><g clip-path="url(#prefix__a)"><text x="592.76" y="126.69" style="font-size:14px;font-weight:700;font-family:Asap" textLength="29.96" lengthAdjust="spacingAndGlyphs">1989</text></g><g clip-path="url(#prefix__a)"><text x="626.08" y="126.69" style="font-size:14px;font-family:Asap" textLength="22.99" lengthAdjust="spacingAndGlyphs">Fall</text></g><g clip-path="url(#prefix__a)"><text x="652.43" y="126.69" style="font-size:14px;font-family:Asap" textLength="12.52" lengthAdjust="spacingAndGlyphs">of</text></g><g clip-path="url(#prefix__a)"><text x="592.76" y="143.43" style="font-size:14px;font-family:Asap" textLength="36.64" lengthAdjust="spacingAndGlyphs">Berlin</text></g><g clip-path="url(#prefix__a)"><text x="632.76" y="143.43" style="font-size:14px;font-family:Asap" textLength="28.69" lengthAdjust="spacingAndGlyphs">Wall</text></g><g clip-path="url(#prefix__a)"><text x="687.82" y="32.73" style="font-size:14px;font-weight:700;font-family:Asap" textLength="29.96" lengthAdjust="spacingAndGlyphs">2008</text></g><g clip-path="url(#prefix__a)"><text x="721.14" y="32.73" style="font-size:14px;font-family:Asap" textLength="41.29" lengthAdjust="spacingAndGlyphs">Global</text></g><g clip-path="url(#prefix__a)"><text x="687.82" y="49.46" style="font-size:14px;font-family:Asap" textLength="53.77" lengthAdjust="spacingAndGlyphs">financial</text></g><g clip-path="url(#prefix__a)"><text x="744.95" y="49.46" style="font-size:14px;font-family:Asap" textLength="30.9" lengthAdjust="spacingAndGlyphs">crisis</text></g><defs><clipPath id="prefix__b"><rect x="0" y="0" width="810" height="493" style="fill:none;stroke:#000;stroke-linecap:round;stroke-linejoin:round;stroke-miterlimit:10"/></clipPath></defs><polyline points="87.27 390.03 87.27 14.17" style="stroke-width:1.07;stroke:#464646;stroke-linecap:butt;fill:none;stroke-linejoin:round;stroke-miterlimit:10" clip-path="url(#prefix__b)"/><g clip-path="url(#prefix__b)"><text x="60.59" y="394.44" style="font-size:18px;font-family:Asap" textLength="9.63" lengthAdjust="spacingAndGlyphs">0</text></g><g clip-path="url(#prefix__b)"><text x="47.4" y="347.46" style="font-size:18px;font-family:Asap" textLength="22.82" lengthAdjust="spacingAndGlyphs">0.2</text></g><g clip-path="url(#prefix__b)"><text x="47.4" y="300.48" style="font-size:18px;font-family:Asap" textLength="22.82" lengthAdjust="spacingAndGlyphs">0.4</text></g><g clip-path="url(#prefix__b)"><text x="47.4" y="253.5" style="font-size:18px;font-family:Asap" textLength="22.82" lengthAdjust="spacingAndGlyphs">0.6</text></g><g clip-path="url(#prefix__b)"><text x="47.4" y="206.51" style="font-size:18px;font-family:Asap" textLength="22.82" lengthAdjust="spacingAndGlyphs">0.8</text></g><g clip-path="url(#prefix__b)"><text x="47.4" y="159.53" style="font-size:18px;font-family:Asap" textLength="22.82" lengthAdjust="spacingAndGlyphs">1.0</text></g><g clip-path="url(#prefix__b)"><text x="47.4" y="112.55" style="font-size:18px;font-family:Asap" textLength="22.82" lengthAdjust="spacingAndGlyphs">1.2</text></g><g clip-path="url(#prefix__b)"><text x="47.4" y="65.57" style="font-size:18px;font-family:Asap" textLength="22.82" lengthAdjust="spacingAndGlyphs">1.4</text></g><g clip-path="url(#prefix__b)"><text x="47.4" y="18.58" style="font-size:18px;font-family:Asap" textLength="22.82" lengthAdjust="spacingAndGlyphs">1.6</text></g><polyline points="80.18 390.03 87.27 390.03" style="stroke-width:1.07;stroke:#464646;stroke-linecap:butt;fill:none;stroke-linejoin:round;stroke-miterlimit:10" clip-path="url(#prefix__b)"/><polyline points="80.18 343.05 87.27 343.05" style="stroke-width:1.07;stroke:#464646;stroke-linecap:butt;fill:none;stroke-linejoin:round;stroke-miterlimit:10" clip-path="url(#prefix__b)"/><polyline points="80.18 296.07 87.27 296.07" style="stroke-width:1.07;stroke:#464646;stroke-linecap:butt;fill:none;stroke-linejoin:round;stroke-miterlimit:10" clip-path="url(#prefix__b)"/><polyline points="80.18 249.09 87.27 249.09" style="stroke-width:1.07;stroke:#464646;stroke-linecap:butt;fill:none;stroke-linejoin:round;stroke-miterlimit:10" clip-path="url(#prefix__b)"/><polyline points="80.18 202.1 87.27 202.1" style="stroke-width:1.07;stroke:#464646;stroke-linecap:butt;fill:none;stroke-linejoin:round;stroke-miterlimit:10" clip-path="url(#prefix__b)"/><polyline points="80.18 155.12 87.27 155.12" style="stroke-width:1.07;stroke:#464646;stroke-linecap:butt;fill:none;stroke-linejoin:round;stroke-miterlimit:10" clip-path="url(#prefix__b)"/><polyline points="80.18 108.14 87.27 108.14" style="stroke-width:1.07;stroke:#464646;stroke-linecap:butt;fill:none;stroke-linejoin:round;stroke-miterlimit:10" clip-path="url(#prefix__b)"/><polyline points="80.18 61.16 87.27 61.16" style="stroke-width:1.07;stroke:#464646;stroke-linecap:butt;fill:none;stroke-linejoin:round;stroke-miterlimit:10" clip-path="url(#prefix__b)"/><polyline points="80.18 14.17 87.27 14.17" style="stroke-width:1.07;stroke:#464646;stroke-linecap:butt;fill:none;stroke-linejoin:round;stroke-miterlimit:10" clip-path="url(#prefix__b)"/><polyline points="87.27 390.03 795.83 390.03" style="stroke-width:1.07;stroke:#464646;stroke-linecap:butt;fill:none;stroke-linejoin:round;stroke-miterlimit:10" clip-path="url(#prefix__b)"/><polyline points="87.27 397.12 87.27 390.03" style="stroke-width:1.07;stroke:#464646;stroke-linecap:butt;fill:none;stroke-linejoin:round;stroke-miterlimit:10" clip-path="url(#prefix__b)"/><polyline points="126.15 397.12 126.15 390.03" style="stroke-width:1.07;stroke:#464646;stroke-linecap:butt;fill:none;stroke-linejoin:round;stroke-miterlimit:10" clip-path="url(#prefix__b)"/><polyline points="169.36 397.12 169.36 390.03" style="stroke-width:1.07;stroke:#464646;stroke-linecap:butt;fill:none;stroke-linejoin:round;stroke-miterlimit:10" clip-path="url(#prefix__b)"/><polyline points="212.56 397.12 212.56 390.03" style="stroke-width:1.07;stroke:#464646;stroke-linecap:butt;fill:none;stroke-linejoin:round;stroke-miterlimit:10" clip-path="url(#prefix__b)"/><polyline points="255.77 397.12 255.77 390.03" style="stroke-width:1.07;stroke:#464646;stroke-linecap:butt;fill:none;stroke-linejoin:round;stroke-miterlimit:10" clip-path="url(#prefix__b)"/><polyline points="298.97 397.12 298.97 390.03" style="stroke-width:1.07;stroke:#464646;stroke-linecap:butt;fill:none;stroke-linejoin:round;stroke-miterlimit:10" clip-path="url(#prefix__b)"/><polyline points="342.18 397.12 342.18 390.03" style="stroke-width:1.07;stroke:#464646;stroke-linecap:butt;fill:none;stroke-linejoin:round;stroke-miterlimit:10" clip-path="url(#prefix__b)"/><polyline points="385.38 397.12 385.38 390.03" style="stroke-width:1.07;stroke:#464646;stroke-linecap:butt;fill:none;stroke-linejoin:round;stroke-miterlimit:10" clip-path="url(#prefix__b)"/><polyline points="428.59 397.12 428.59 390.03" style="stroke-width:1.07;stroke:#464646;stroke-linecap:butt;fill:none;stroke-linejoin:round;stroke-miterlimit:10" clip-path="url(#prefix__b)"/><polyline points="471.79 397.12 471.79 390.03" style="stroke-width:1.07;stroke:#464646;stroke-linecap:butt;fill:none;stroke-linejoin:round;stroke-miterlimit:10" clip-path="url(#prefix__b)"/><polyline points="515 397.12 515 390.03" style="stroke-width:1.07;stroke:#464646;stroke-linecap:butt;fill:none;stroke-linejoin:round;stroke-miterlimit:10" clip-path="url(#prefix__b)"/><polyline points="558.2 397.12 558.2 390.03" style="stroke-width:1.07;stroke:#464646;stroke-linecap:butt;fill:none;stroke-linejoin:round;stroke-miterlimit:10" clip-path="url(#prefix__b)"/><polyline points="601.41 397.12 601.41 390.03" style="stroke-width:1.07;stroke:#464646;stroke-linecap:butt;fill:none;stroke-linejoin:round;stroke-miterlimit:10" clip-path="url(#prefix__b)"/><polyline points="644.61 397.12 644.61 390.03" style="stroke-width:1.07;stroke:#464646;stroke-linecap:butt;fill:none;stroke-linejoin:round;stroke-miterlimit:10" clip-path="url(#prefix__b)"/><polyline points="687.82 397.12 687.82 390.03" style="stroke-width:1.07;stroke:#464646;stroke-linecap:butt;fill:none;stroke-linejoin:round;stroke-miterlimit:10" clip-path="url(#prefix__b)"/><polyline points="731.02 397.12 731.02 390.03" style="stroke-width:1.07;stroke:#464646;stroke-linecap:butt;fill:none;stroke-linejoin:round;stroke-miterlimit:10" clip-path="url(#prefix__b)"/><polyline points="774.22 397.12 774.22 390.03" style="stroke-width:1.07;stroke:#464646;stroke-linecap:butt;fill:none;stroke-linejoin:round;stroke-miterlimit:10" clip-path="url(#prefix__b)"/><g clip-path="url(#prefix__b)"><text transform="rotate(-90 268.64 176.96)" style="font-size:18px;font-family:Asap" textLength="38.52" lengthAdjust="spacingAndGlyphs">1851</text></g><g clip-path="url(#prefix__b)"><text transform="rotate(-90 288.08 157.52)" style="font-size:18px;font-family:Asap" textLength="38.52" lengthAdjust="spacingAndGlyphs">1860</text></g><g clip-path="url(#prefix__b)"><text transform="rotate(-90 309.685 135.915)" style="font-size:18px;font-family:Asap" textLength="38.52" lengthAdjust="spacingAndGlyphs">1870</text></g><g clip-path="url(#prefix__b)"><text transform="rotate(-90 331.285 114.315)" style="font-size:18px;font-family:Asap" textLength="38.52" lengthAdjust="spacingAndGlyphs">1880</text></g><g clip-path="url(#prefix__b)"><text transform="rotate(-90 352.89 92.71)" style="font-size:18px;font-family:Asap" textLength="38.52" lengthAdjust="spacingAndGlyphs">1890</text></g><g clip-path="url(#prefix__b)"><text transform="rotate(-90 374.49 71.11)" style="font-size:18px;font-family:Asap" textLength="38.52" lengthAdjust="spacingAndGlyphs">1900</text></g><g clip-path="url(#prefix__b)"><text transform="rotate(-90 396.095 49.505)" style="font-size:18px;font-family:Asap" textLength="38.52" lengthAdjust="spacingAndGlyphs">1910</text></g><g clip-path="url(#prefix__b)"><text transform="rotate(-90 417.695 27.905)" style="font-size:18px;font-family:Asap" textLength="38.52" lengthAdjust="spacingAndGlyphs">1920</text></g><g clip-path="url(#prefix__b)"><text transform="rotate(-90 439.3 6.3)" style="font-size:18px;font-family:Asap" textLength="38.52" lengthAdjust="spacingAndGlyphs">1930</text></g><g clip-path="url(#prefix__b)"><text transform="rotate(-90 460.9 -15.3)" style="font-size:18px;font-family:Asap" textLength="38.52" lengthAdjust="spacingAndGlyphs">1940</text></g><g clip-path="url(#prefix__b)"><text transform="rotate(-90 482.505 -36.905)" style="font-size:18px;font-family:Asap" textLength="38.52" lengthAdjust="spacingAndGlyphs">1950</text></g><g clip-path="url(#prefix__b)"><text transform="rotate(-90 504.105 -58.505)" style="font-size:18px;font-family:Asap" textLength="38.52" lengthAdjust="spacingAndGlyphs">1960</text></g><g clip-path="url(#prefix__b)"><text transform="rotate(-90 525.71 -80.11)" style="font-size:18px;font-family:Asap" textLength="38.52" lengthAdjust="spacingAndGlyphs">1970</text></g><g clip-path="url(#prefix__b)"><text transform="rotate(-90 547.31 -101.71)" style="font-size:18px;font-family:Asap" textLength="38.52" lengthAdjust="spacingAndGlyphs">1980</text></g><g clip-path="url(#prefix__b)"><text transform="rotate(-90 568.915 -123.315)" style="font-size:18px;font-family:Asap" textLength="38.52" lengthAdjust="spacingAndGlyphs">1990</text></g><g clip-path="url(#prefix__b)"><text transform="rotate(-90 590.515 -144.915)" style="font-size:18px;font-family:Asap" textLength="38.52" lengthAdjust="spacingAndGlyphs">2000</text></g><g clip-path="url(#prefix__b)"><text transform="rotate(-90 612.115 -166.515)" style="font-size:18px;font-family:Asap" textLength="38.52" lengthAdjust="spacingAndGlyphs">2010</text></g><g clip-path="url(#prefix__b)"><text x="421.46" y="474.59" style="font-size:20px;font-family:Asap Medium" textLength="40.18" lengthAdjust="spacingAndGlyphs">Year</text></g><g clip-path="url(#prefix__b)"><text transform="rotate(-90 163.425 135.215)" style="font-size:20px;font-family:Asap Medium" textLength="100.56" lengthAdjust="spacingAndGlyphs">Percentage</text></g><g clip-path="url(#prefix__b)"><text transform="rotate(-90 110.745 82.535)" style="font-size:20px;font-family:Asap Medium" textLength="17.88" lengthAdjust="spacingAndGlyphs">of</text></g><g clip-path="url(#prefix__b)"><text transform="rotate(-90 99.405 71.195)" style="font-size:20px;font-family:Asap Medium" textLength="65.04" lengthAdjust="spacingAndGlyphs">articles</text></g></svg>