<svg version="1.1" xmlns="http://www.w3.org/2000/svg" x="0" y="0" viewBox="0 0 311.81 400.46" style="enable-background:new 0 0 311.81 400.46" xml:space="preserve"><path style="fill:#fff;stroke:#6d6e71;stroke-width:.5;stroke-miterlimit:10" d="M308.56 168.5H36.63h271.93z"/><line style="fill:none;stroke:#6d6e70;stroke-width:.5;stroke-linecap:square" x1="84.59" y1="169.03" x2="84.59" y2="171.56"/><line style="fill:none;stroke:#6d6e70;stroke-width:.5;stroke-linecap:square" x1="129.39" y1="169.03" x2="129.39" y2="171.56"/><line style="fill:none;stroke:#6d6e70;stroke-width:.5;stroke-linecap:square" x1="174.98" y1="169.03" x2="174.98" y2="171.56"/><line style="fill:none;stroke:#6d6e70;stroke-width:.5;stroke-linecap:square" x1="218.98" y1="169.03" x2="218.98" y2="171.56"/><line style="fill:none;stroke:#6d6e70;stroke-width:.5;stroke-linecap:square" x1="264.27" y1="169.03" x2="264.27" y2="171.56"/><line style="fill:none;stroke:#6d6e70;stroke-width:.5;stroke-linecap:square" x1="303.27" y1="169.03" x2="303.27" y2="171.56"/><path style="fill:#fff;stroke:#6d6e71;stroke-width:.5;stroke-miterlimit:10" d="M297.23 358.5H36.85c86.55.5 174.15.5 260.38 0-.01 0 0 0 0 0zM39.5 15.41v156.06c.32-52.43.43-104.27.34-156.04-.11 0-.23 0-.34-.02z"/><path style="fill:#fff;stroke:#6d6e71;stroke-width:.5;stroke-miterlimit:10" d="M39.5 213.32v148.21c.3-49.78.41-99.02.35-148.18-.12 0-.24-.01-.35-.03z"/><line style="fill:none;stroke:#6d6e70;stroke-width:.5;stroke-linecap:square" x1="81.22" y1="359.03" x2="81.22" y2="361.56"/><line style="fill:none;stroke:#6d6e70;stroke-width:.5;stroke-linecap:square" x1="125.22" y1="359.03" x2="125.22" y2="361.56"/><line style="fill:none;stroke:#6d6e70;stroke-width:.5;stroke-linecap:square" x1="167.51" y1="359.03" x2="167.51" y2="361.56"/><line style="fill:none;stroke:#6d6e70;stroke-width:.5;stroke-linecap:square" x1="209.67" y1="359.03" x2="209.67" y2="361.56"/><line style="fill:none;stroke:#6d6e70;stroke-width:.5;stroke-linecap:square" x1="253.67" y1="359.03" x2="253.67" y2="361.56"/><line style="fill:none;stroke:#6d6e70;stroke-width:.5;stroke-linecap:square" x1="294.97" y1="359.03" x2="294.97" y2="361.56"/><line style="fill:none;stroke:#6d6e70;stroke-width:.5;stroke-linecap:square" x1="36.85" y1="336.51" x2="39.37" y2="336.51"/><line style="fill:none;stroke:#6d6e70;stroke-width:.5;stroke-linecap:square" x1="36.85" y1="292.51" x2="39.37" y2="292.51"/><line style="fill:none;stroke:#6d6e70;stroke-width:.5;stroke-linecap:square" x1="36.85" y1="247.21" x2="39.38" y2="247.21"/><line style="fill:none;stroke:#6d6e70;stroke-width:.5;stroke-linecap:square" x1="36.85" y1="314.51" x2="39.37" y2="314.51"/><line style="fill:none;stroke:#6d6e70;stroke-width:.5;stroke-linecap:square" x1="36.85" y1="270.51" x2="39.37" y2="270.51"/><line style="fill:none;stroke:#6d6e70;stroke-width:.5;stroke-linecap:square" x1="36.85" y1="225.21" x2="39.38" y2="225.21"/><line style="fill:none;stroke:#6d6e70;stroke-width:.5;stroke-linecap:square" x1="36.63" y1="151.42" x2="39.15" y2="151.42"/><line style="fill:none;stroke:#6d6e70;stroke-width:.5;stroke-linecap:square" x1="36.63" y1="118.42" x2="39.15" y2="118.42"/><line style="fill:none;stroke:#6d6e70;stroke-width:.5;stroke-linecap:square" x1="36.63" y1="51.12" x2="39.16" y2="51.12"/><line style="fill:none;stroke:#6d6e70;stroke-width:.5;stroke-linecap:square" x1="36.63" y1="135.42" x2="39.15" y2="135.42"/><line style="fill:none;stroke:#6d6e70;stroke-width:.5;stroke-linecap:square" x1="36.63" y1="101.42" x2="39.77" y2="101.42"/><line style="fill:none;stroke:#6d6e70;stroke-width:.5;stroke-linecap:square" x1="36.63" y1="34.12" x2="39.16" y2="34.12"/><line style="fill:none;stroke:#6d6e70;stroke-width:.5;stroke-linecap:square" x1="36.63" y1="84.57" x2="39.16" y2="84.57"/><line style="fill:none;stroke:#6d6e70;stroke-width:.5;stroke-linecap:square" x1="36.63" y1="68.57" x2="39.16" y2="68.57"/><line style="fill:none;stroke:#6d6e70;stroke-width:.5;stroke-linecap:square" x1="36.63" y1="17.57" x2="39.16" y2="17.57"/><text transform="translate(299.55 179.464)" style="font-family:'Asap-Regular';font-size:7px">60</text><text transform="translate(259.55 179.464)" style="font-family:'Asap-Regular';font-size:7px">50</text><text transform="translate(125.103 195.77)"><tspan x="0" y="0" style="font-family:'Asap-Medium';font-size:8px">Quantity of cars</tspan><tspan x="56.02" y="0" style="font-family:'Asap-Regular';font-size:8px">, </tspan><tspan x="59.53" y="0" style="font-family:'Asap-MediumItalic';font-size:8px">Q</tspan></text><text transform="rotate(-90 62.392 55.882)"><tspan x="0" y="0" style="font-family:'Asap-Medium';font-size:8px">T</tspan><tspan x="4.19" y="0" style="font-family:'Asap-Medium';font-size:8px">otal cost, </tspan><tspan x="38.11" y="0" style="font-family:'Asap-MediumItalic';font-size:8px">C</tspan><tspan x="43.06" y="0" style="font-family:'Asap-Italic';font-size:8px"> </tspan><tspan x="44.98" y="0" style="font-family:'Asap-Medium';font-size:8px">($)</tspan></text><text transform="translate(215.05 179.464)" style="font-family:'Asap-Regular';font-size:7px">40</text><text transform="translate(170.05 179.464)" style="font-family:'Asap-Regular';font-size:7px">30</text><text transform="translate(125.05 179.464)" style="font-family:'Asap-Regular';font-size:7px">20</text><text transform="translate(80.05 179.464)" style="font-family:'Asap-Regular';font-size:7px">10</text><text transform="translate(37.423 179.464)" style="font-family:'Asap-Regular';font-size:7px">0</text><text transform="translate(11.24 20.464)" style="font-family:'Asap-Regular';font-size:7px">900,000</text><text transform="translate(11.06 36.464)" style="font-family:'Asap-Regular';font-size:7px">800,000</text><text transform="translate(11.06 53.464)" style="font-family:'Asap-Regular';font-size:7px">700,000</text><text transform="translate(12.15 69.964)" style="font-family:'Asap-Regular';font-size:7px">600,000</text><text transform="translate(11.97 85.964)" style="font-family:'Asap-Regular';font-size:7px">500,000</text><text transform="translate(11.97 102.964)" style="font-family:'Asap-Regular';font-size:7px">400,000</text><text transform="translate(11.15 120.964)" style="font-family:'Asap-Regular';font-size:7px">300,000</text><text transform="translate(10.97 136.964)" style="font-family:'Asap-Regular';font-size:7px">200,000</text><text transform="translate(10.97 153.964)" style="font-family:'Asap-Regular';font-size:7px">100,000</text><text transform="translate(28.423 170.464)" style="font-family:'Asap-Regular';font-size:7px">0</text><text transform="translate(291.362 369.464)" style="font-family:'Asap-Regular';font-size:7px">60</text><text transform="translate(250.362 369.464)" style="font-family:'Asap-Regular';font-size:7px">50</text><text transform="translate(205.862 369.464)" style="font-family:'Asap-Regular';font-size:7px">40</text><text transform="translate(163.862 369.464)" style="font-family:'Asap-Regular';font-size:7px">30</text><text transform="translate(121.862 369.464)" style="font-family:'Asap-Regular';font-size:7px">20</text><text transform="translate(77.862 369.464)" style="font-family:'Asap-Regular';font-size:7px">10</text><text transform="translate(38.234 369.464)" style="font-family:'Asap-Regular';font-size:7px">0</text><text transform="translate(125.914 383.77)"><tspan x="0" y="0" style="font-family:'Asap-Medium';font-size:8px">Quantity of cars</tspan><tspan x="56.02" y="0" style="font-family:'Asap-Regular';font-size:8px">, </tspan><tspan x="59.53" y="0" style="font-family:'Asap-MediumItalic';font-size:8px">Q</tspan></text><path style="fill:none;stroke:#929497;stroke-width:.5;stroke-miterlimit:10;stroke-dasharray:1.417" d="M40.89 167.69L62 146l-21.11 21.69zM285.5 38.5L40.89 167.69 285.5 38.5zM150.5 122.26l-111 46 111-46z"/><path style="fill:none;stroke:#3a53a4;stroke-width:.5;stroke-miterlimit:10" d="M39.97 147.5c4.42-.09 10.62-.32 18-1 13.26-1.22 31.02-3.92 57-12 43.23-13.44 78.85-32.31 82-34 28.14-15.07 68.21-40.26 110-81M58.5 226.5c.43 4.34 1.07 9.03 2 14 .1.55 1.29 6.8 3 13 2.6 9.4 5.38 19.48 11 28 14.22 21.55 41.95 26.02 48 27 5.99.97 10.56 1 14 1 41.52-.01 77-5 77-5 18.81-2.64 45.51-6.27 83-11"/><path style="fill:none;stroke:#f49323;stroke-width:.5;stroke-miterlimit:10" d="M39.87 352l255.1-101.73L39.87 352z"/><text transform="translate(14.209 228.861)" style="font-family:'Asap-Regular';font-size:7px">30,000</text><text transform="translate(14.388 249.861)" style="font-family:'Asap-Regular';font-size:7px">25,000</text><text transform="translate(14.298 273.361)" style="font-family:'Asap-Regular';font-size:7px">20,000</text><text transform="translate(14.478 294.361)" style="font-family:'Asap-Regular';font-size:7px">15,000</text><text transform="translate(14.298 317.361)" style="font-family:'Asap-Regular';font-size:7px">10,000</text><text transform="translate(30.57 361.861)" style="font-family:'Asap-Regular';font-size:7px">0</text><text transform="rotate(-90 173.063 166.906)" style="font-family:'Asap-Medium';font-size:8px">Marginal and average costs ($)</text><text transform="translate(84.829 341.362)" style="fill:#231f20;font-family:'Asap-Regular';font-size:6px">Marginal cost (MC)</text><text transform="translate(257.65 306.362)" style="fill:#231f20;font-family:'Asap-Regular';font-size:6px">Average cost (AC)</text><text transform="translate(150.06 132.271)" style="fill:#231f20;font-family:'Asap-Regular';font-size:6px">B</text><text transform="translate(59.465 140.671)" style="fill:#231f20;font-family:'Asap-Regular';font-size:6px">A</text><text transform="translate(283.464 51.671)" style="fill:#231f20;font-family:'Asap-Regular';font-size:6px">D</text><circle style="fill:#231f20" cx="61.51" cy="146.2" r="2.2"/><circle style="fill:#231f20" cx="150.44" cy="122.26" r="2.2"/><circle style="fill:#231f20" cx="285.44" cy="39.26" r="2.2"/><circle style="fill:#231f20" cx="60.75" cy="242.76" r="2.2"/><circle style="fill:#231f20" cx="146.49" cy="309.62" r="2.2"/><circle style="fill:#231f20" cx="273.95" cy="296.23" r="2.2"/><text transform="translate(17.821 339.327)" style="font-family:'Asap-Regular';font-size:7px">5,000</text></svg>