<svg version="1.1" xmlns="http://www.w3.org/2000/svg" x="0" y="0" viewBox="0 0 311.81 158.16" style="enable-background:new 0 0 311.81 158.16" xml:space="preserve"><polygon style="fill:#f3e9f3" points="111.42 91.05 170.33 91.05 170.33 149.95"/><polygon style="fill:#e4e9f6" points="170.33 149.95 111.42 149.95 111.42 91.05"/><line style="fill:none;stroke:#6d6e71;stroke-width:.5;stroke-miterlimit:10" x1="111.42" y1="77.63" x2="111.42" y2="91.05"/><line style="fill:#939598;stroke:#fff;stroke-width:.5;stroke-miterlimit:10" x1="111.42" y1="91.05" x2="170.33" y2="149.95"/><text transform="translate(120.186 87.296)" style="font-family:'Asap-Regular';font-size:6px">Do not innovate</text><text transform="translate(83.864 75.067)" style="fill:#fff;font-family:'Asap-Regular';font-size:8px">Sony (Betamax)</text><line style="fill:none;stroke:#6d6e71;stroke-width:.5;stroke-miterlimit:10" x1="170.33" y1="78.37" x2="170.33" y2="91.05"/><text transform="translate(145.673 112.306)" style="font-family:'Asap-Medium';font-size:10px">–0.5</text><text transform="translate(123.55 138.62)" style="font-family:'Asap-Medium';font-size:10px">2</text><polygon style="fill:#f3e9f3" points="109.37 91.61 168.27 91.61 168.27 150.52"/><polygon style="fill:#f3e9f3" points="109.37 32.71 168.27 32.71 168.27 91.61"/><polygon style="fill:#f3e9f3" points="168.27 32.71 227.17 32.71 227.17 91.61"/><polygon style="fill:#f3e9f3" points="168.27 91.61 227.17 91.61 227.17 150.52"/><polygon style="fill:#e4e9f6" points="168.27 150.52 109.37 150.52 109.37 91.61"/><polygon style="fill:#e4e9f6" points="227.17 150.52 168.27 150.52 168.27 91.61"/><polygon style="fill:#e4e9f6" points="227.17 91.61 168.27 91.61 168.27 32.71"/><polygon style="fill:#e4e9f6" points="168.44 91.61 109.54 91.61 109.54 32.71"/><line style="fill:#939598;stroke:#fff;stroke-width:.5;stroke-miterlimit:10" x1="109.37" y1="91.31" x2="168.27" y2="150.21"/><line style="fill:none;stroke:#6d6e71;stroke-width:.5;stroke-miterlimit:10" x1="168.27" y1="19.3" x2="168.27" y2="32.71"/><polyline style="fill:#b9519e;stroke:#6d6e71;stroke-width:.499;stroke-miterlimit:10" points="109.37 20.04 109.37 7.64 227.17 7.64 227.17 20.04"/><line style="fill:#939598;stroke:#fff;stroke-width:.5;stroke-miterlimit:10" x1="168.27" y1="32.71" x2="227.17" y2="91.61"/><line style="fill:#939598;stroke:#fff;stroke-width:.5;stroke-miterlimit:10" x1="109.37" y1="32.71" x2="168.27" y2="91.61"/><line style="fill:#939598;stroke:#fff;stroke-width:.5;stroke-miterlimit:10" x1="168.27" y1="91.31" x2="227.17" y2="150.21"/><text transform="translate(126.078 28.962)" style="font-family:'Asap-Regular';font-size:6px">High price</text><text transform="translate(185.031 28.963)" style="font-family:'Asap-Regular';font-size:6px">Low price</text><text transform="translate(154.71 16.733)" style="fill:#fff;font-family:'Asap-Regular';font-size:8px">Firm B</text><line style="fill:none;stroke:#6d6e71;stroke-width:.5;stroke-miterlimit:10" x1="227.17" y1="20.04" x2="227.17" y2="32.71"/><line style="fill:none;stroke:#6d6e71;stroke-width:.5;stroke-miterlimit:10" x1="109.37" y1="32.71" x2="109.37" y2="20.04"/><rect x="109.37" y="32.71" style="fill:none;stroke:#6d6e71;stroke-width:.5;stroke-miterlimit:10" width="117.8" height="117.8"/><line style="fill:none;stroke:#6d6e71;stroke-width:.5;stroke-miterlimit:10" x1="168.27" y1="32.71" x2="168.27" y2="150.52"/><line style="fill:none;stroke:#6d6e71;stroke-width:.5;stroke-miterlimit:10" x1="109.37" y1="91.61" x2="227.17" y2="91.61"/><text transform="translate(143.07 53.442)" style="font-family:'Asap-Medium';font-size:10px">90</text><text transform="translate(117.444 80.755)" style="font-family:'Asap-Medium';font-size:10px">90</text><text transform="translate(202.519 53.972)" style="font-family:'Asap-Medium';font-size:10px">72</text><text transform="translate(180.395 80.286)" style="font-family:'Asap-Medium';font-size:10px">0</text><text transform="translate(148.244 111.76)" style="font-family:'Asap-Medium';font-size:10px">0</text><text transform="translate(117.444 138.24)" style="font-family:'Asap-Medium';font-size:10px">72</text><text transform="translate(208.31 111.76)" style="font-family:'Asap-Medium';font-size:10px">36</text><text transform="translate(180.395 137.756)" style="font-family:'Asap-Medium';font-size:10px">36</text><polyline style="fill:#0d71ba;stroke:#6d6e71;stroke-width:.499;stroke-miterlimit:10" points="97.04 150.52 84.64 150.52 84.64 32.71 97.04 32.71"/><text transform="rotate(-90 120.011 15.048)" style="font-family:'Asap-Regular';font-size:6px">Low price</text><text transform="rotate(-90 90.334 -14.629)" style="font-family:'Asap-Regular';font-size:6px">High price</text><text transform="rotate(-90 98.92 5.186)" style="fill:#fff;font-family:'Asap-Regular';font-size:8px">Firm A</text><line style="fill:none;stroke:#6d6e71;stroke-width:.5;stroke-miterlimit:10" x1="97.04" y1="32.71" x2="109.71" y2="32.71"/><line style="fill:none;stroke:#6d6e71;stroke-width:.5;stroke-miterlimit:10" x1="109.71" y1="150.52" x2="97.04" y2="150.52"/><line style="fill:none;stroke:#6d6e71;stroke-width:.5;stroke-miterlimit:10" x1="97.04" y1="91.61" x2="109.71" y2="91.61"/></svg>