<svg version="1.1" xmlns="http://www.w3.org/2000/svg" xmlns:xlink="http://www.w3.org/1999/xlink" x="0" y="0" viewBox="0 0 311.81 172" style="enable-background:new 0 0 311.81 172" xml:space="preserve"><defs><rect id="prefix__a" x="34.31" y="147.02" width="5.34" height="9.85"/></defs><clipPath id="prefix__b"><use xlink:href="#prefix__a" style="overflow:visible"/></clipPath><g><text transform="translate(34.906 154.525)" style="font-family:'Asap-Regular';font-size:7px">0</text></g><defs><rect id="prefix__c" x="34.16" y="148.1" width="5.32" height="9.81"/></defs><line style="fill:none;stroke:#6d6e71;stroke-width:.5;stroke-linecap:square;stroke-linejoin:round" x1="37.68" y1="6.3" x2="35.56" y2="6.3"/><line style="fill:none;stroke:#6d6e71;stroke-width:.5;stroke-linecap:square;stroke-linejoin:round" x1="37.68" y1="29.13" x2="35.56" y2="29.13"/><line style="fill:none;stroke:#6d6e71;stroke-width:.5;stroke-linecap:square;stroke-linejoin:round" x1="37.68" y1="51.97" x2="35.56" y2="51.97"/><line style="fill:none;stroke:#6d6e71;stroke-width:.5;stroke-linecap:square;stroke-linejoin:round" x1="37.68" y1="120.46" x2="35.56" y2="120.46"/><line style="fill:none;stroke:#6d6e71;stroke-width:.5;stroke-linecap:square;stroke-linejoin:round" x1="37.68" y1="143.3" x2="35.56" y2="143.3"/><line style="fill:none;stroke:#6d6e71;stroke-width:.5;stroke-linecap:square;stroke-linejoin:round" x1="37.57" y1="143.3" x2="37.57" y2="6.3"/><text transform="rotate(-90 48.475 38.475)" style="font-family:'Asap-Medium';font-size:8px">Costs ($)</text><text transform="translate(26.189 145.852)" style="font-family:'Asap-Regular';font-size:7px">0</text><line style="fill:none;stroke:#6d6e71;stroke-width:.5;stroke-linecap:square;stroke-linejoin:round" x1="227.88" y1="143.35" x2="227.88" y2="145.47"/><line style="fill:none;stroke:#6d6e71;stroke-width:.5;stroke-linecap:square;stroke-linejoin:round" x1="208.85" y1="143.35" x2="208.85" y2="145.47"/><line style="fill:none;stroke:#6d6e71;stroke-width:.5;stroke-linecap:square;stroke-linejoin:round" x1="189.81" y1="143.35" x2="189.81" y2="145.47"/><line style="fill:none;stroke:#6d6e71;stroke-width:.5;stroke-linecap:square;stroke-linejoin:round" x1="170.78" y1="143.35" x2="170.78" y2="145.47"/><line style="fill:none;stroke:#6d6e71;stroke-width:.5;stroke-linecap:square;stroke-linejoin:round" x1="151.75" y1="143.35" x2="151.75" y2="145.47"/><line style="fill:none;stroke:#6d6e71;stroke-width:.5;stroke-linecap:square;stroke-linejoin:round" x1="132.72" y1="143.35" x2="132.72" y2="145.47"/><line style="fill:none;stroke:#6d6e71;stroke-width:.5;stroke-linecap:square;stroke-linejoin:round" x1="113.69" y1="143.35" x2="113.69" y2="145.47"/><line style="fill:none;stroke:#6d6e71;stroke-width:.5;stroke-linecap:square;stroke-linejoin:round" x1="94.66" y1="143.35" x2="94.66" y2="145.47"/><line style="fill:none;stroke:#6d6e71;stroke-width:.5;stroke-linecap:square;stroke-linejoin:round" x1="75.63" y1="143.35" x2="75.63" y2="145.47"/><line style="fill:none;stroke:#6d6e71;stroke-width:.5;stroke-linecap:square;stroke-linejoin:round" x1="56.6" y1="143.35" x2="56.6" y2="145.47"/><line style="fill:none;stroke:#6d6e71;stroke-width:.5;stroke-linecap:square;stroke-linejoin:round" x1="37.57" y1="143.35" x2="37.57" y2="145.47"/><line style="fill:none;stroke:#6d6e71;stroke-width:.5;stroke-linecap:square;stroke-linejoin:round" x1="37.57" y1="143.3" x2="304" y2="143.3"/><text transform="translate(153.993 168.143)"><tspan x="0" y="0" style="font-family:'Asap-Medium';font-size:8px">Output, </tspan><tspan x="28.32" y="0" style="font-family:'Asap-MediumItalic';font-size:8px">Q</tspan></text><rect x="34.89" y="147.25" style="fill:none" width="5.29" height="9.75"/><text transform="translate(51.733 154.675)" style="font-family:'Asap-Regular';font-size:7px">10</text><text transform="translate(71.734 154.675)" style="font-family:'Asap-Regular';font-size:7px">20</text><line style="fill:none;stroke:#6d6e71;stroke-width:.5;stroke-linecap:square;stroke-linejoin:round" x1="37.68" y1="97.63" x2="35.56" y2="97.63"/><line style="fill:none;stroke:#6d6e71;stroke-width:.5;stroke-linecap:square;stroke-linejoin:round" x1="37.68" y1="74.8" x2="35.56" y2="74.8"/><text transform="translate(18.522 122.245)" style="font-family:'Asap-Regular';font-size:7px">100</text><text transform="translate(18.522 99.245)" style="font-family:'Asap-Regular';font-size:7px">200</text><text transform="translate(18.522 76.245)" style="font-family:'Asap-Regular';font-size:7px">300</text><text transform="translate(18.522 54.245)" style="font-family:'Asap-Regular';font-size:7px">400</text><text transform="translate(18.522 31.245)" style="font-family:'Asap-Regular';font-size:7px">500</text><text transform="translate(18.522 8.245)" style="font-family:'Asap-Regular';font-size:7px">600</text><text transform="translate(90.734 154.675)" style="font-family:'Asap-Regular';font-size:7px">30</text><text transform="translate(109.734 154.675)" style="font-family:'Asap-Regular';font-size:7px">40</text><text transform="translate(128.733 154.675)" style="font-family:'Asap-Regular';font-size:7px">50</text><text transform="translate(147.733 154.675)" style="font-family:'Asap-Regular';font-size:7px">60</text><text transform="translate(166.733 154.675)" style="font-family:'Asap-Regular';font-size:7px">70</text><text transform="translate(186.733 154.675)" style="font-family:'Asap-Regular';font-size:7px">80</text><text transform="translate(205.733 154.675)" style="font-family:'Asap-Regular';font-size:7px">90</text><text transform="translate(221.733 154.675)" style="font-family:'Asap-Regular';font-size:7px">100</text><line style="fill:none;stroke:#6d6e71;stroke-width:.5;stroke-linecap:square;stroke-linejoin:round" x1="304" y1="143.35" x2="304" y2="145.47"/><line style="fill:none;stroke:#6d6e71;stroke-width:.5;stroke-linecap:square;stroke-linejoin:round" x1="246.91" y1="143.35" x2="246.91" y2="145.47"/><line style="fill:none;stroke:#6d6e71;stroke-width:.5;stroke-linecap:square;stroke-linejoin:round" x1="265.94" y1="143.35" x2="265.94" y2="145.47"/><line style="fill:none;stroke:#6d6e71;stroke-width:.5;stroke-linecap:square;stroke-linejoin:round" x1="284.97" y1="143.35" x2="284.97" y2="145.47"/><text transform="translate(241.733 154.675)" style="font-family:'Asap-Regular';font-size:7px">110</text><text transform="translate(260.733 154.675)" style="font-family:'Asap-Regular';font-size:7px">120</text><text transform="translate(278.733 154.675)" style="font-family:'Asap-Regular';font-size:7px">130</text><text transform="translate(298.733 154.675)" style="font-family:'Asap-Regular';font-size:7px">140</text><line style="fill:none;stroke:#000;stroke-width:.5;stroke-miterlimit:10" x1="37.53" y1="36.34" x2="304" y2="36.34"/><line style="fill:none;stroke:#000;stroke-width:.5;stroke-miterlimit:10" x1="37.34" y1="65" x2="304" y2="65"/><line style="fill:none;stroke:#b9519e;stroke-width:.5;stroke-miterlimit:10" x1="37.34" y1="120.46" x2="304" y2="55.67"/><line style="fill:none;stroke:#009147;stroke-width:.5;stroke-miterlimit:10" x1="37.34" y1="120.46" x2="304" y2="22.33"/><line style="fill:none;stroke:#000;stroke-width:.5;stroke-miterlimit:10" x1="37.53" y1="83" x2="302.64" y2="83"/><text transform="translate(284.968 54.245)" style="fill:#b9519e;font-family:'Asap-Regular';font-size:6px">MPC</text><text transform="translate(287.635 91.245)" style="font-family:'Asap-Regular';font-size:6px">260</text><text transform="translate(277.734 76.245)"><tspan x="0" y="0" style="font-family:'Asap-Italic';font-size:6px">p</tspan><tspan x="3.44" y="0" style="font-family:'Asap-Regular';font-size:6px"> = 340</tspan></text><text transform="translate(287.635 34.245)" style="font-family:'Asap-Regular';font-size:6px">460</text><text transform="translate(284.968 21.245)" style="fill:#009147;font-family:'Asap-Regular';font-size:6px">MSC</text></svg>