<svg version="1.1" xmlns="http://www.w3.org/2000/svg" x="0" y="0" viewBox="0 0 311.81 158.16" style="enable-background:new 0 0 311.81 158.16" xml:space="preserve"><rect x="162.81" y="90.22" style="fill:#e3e7f4;stroke:#6d6e71;stroke-width:.5;stroke-miterlimit:10" width="58.78" height="58.78"/><rect x="162.81" y="31.44" style="fill:#e3e7f4;stroke:#6d6e71;stroke-width:.5;stroke-miterlimit:10" width="58.78" height="58.78"/><rect x="104.21" y="90.04" style="fill:#e3e7f4;stroke:#6d6e71;stroke-width:.5;stroke-miterlimit:10" width="58.78" height="58.78"/><rect x="104.21" y="31.44" style="fill:#e3e7f4;stroke:#6d6e71;stroke-width:.5;stroke-miterlimit:10" width="58.78" height="58.78"/><text transform="translate(122.052 58.947)"><tspan x="0" y="0" style="font-family:'Asap-Regular';font-size:4.8px">Anil gets 4</tspan><tspan x="-.59" y="5.76" style="font-family:'Asap-Regular';font-size:4.8px">Bala gets 4</tspan></text><text transform="translate(180.783 58.947)"><tspan x="0" y="0" style="font-family:'Asap-Regular';font-size:4.8px">Anil gets 6</tspan><tspan x="-.59" y="5.76" style="font-family:'Asap-Regular';font-size:4.8px">Bala gets 3</tspan></text><text transform="translate(122.052 117.709)"><tspan x="0" y="0" style="font-family:'Asap-Regular';font-size:4.8px">Anil gets 6</tspan><tspan x="-.59" y="5.76" style="font-family:'Asap-Regular';font-size:4.8px">Bala gets 6</tspan></text><text transform="translate(180.783 117.709)"><tspan x="0" y="0" style="font-family:'Asap-Regular';font-size:4.8px">Anil gets 5</tspan><tspan x="-.59" y="5.76" style="font-family:'Asap-Regular';font-size:4.8px">Bala gets 2</tspan></text><line style="fill:none;stroke:#6d6e71;stroke-width:.5;stroke-miterlimit:10" x1="162.9" y1="18.05" x2="162.9" y2="31.44"/><polyline style="fill:#b9519e;stroke:#6d6e71;stroke-width:.5;stroke-miterlimit:10" points="104.12 18.8 104.12 6.42 221.67 6.42 221.67 18.8"/><text transform="translate(127.168 27.697)" style="font-family:'Asap-Regular';font-size:6px">Rice</text><text transform="translate(180.975 27.698)" style="font-family:'Asap-Regular';font-size:6px">Cassava</text><text transform="translate(155.196 15.494)" style="fill:#fff;font-family:'Asap-Regular';font-size:8px">Bala</text><line style="fill:none;stroke:#6d6e71;stroke-width:.5;stroke-miterlimit:10" x1="221.67" y1="18.8" x2="221.67" y2="31.44"/><line style="fill:none;stroke:#6d6e71;stroke-width:.5;stroke-miterlimit:10" x1="104.12" y1="31.44" x2="104.12" y2="18.8"/><rect x="104.12" y="31.44" style="fill:none;stroke:#6d6e71;stroke-width:.5;stroke-miterlimit:10" width="117.55" height="117.55"/><line style="fill:none;stroke:#6d6e71;stroke-width:.5;stroke-miterlimit:10" x1="162.9" y1="31.44" x2="162.9" y2="148.99"/><line style="fill:none;stroke:#6d6e71;stroke-width:.5;stroke-miterlimit:10" x1="104.12" y1="90.22" x2="221.67" y2="90.22"/><polyline style="fill:#0d71ba;stroke:#6d6e71;stroke-width:.5;stroke-miterlimit:10" points="91.82 148.99 79.45 148.99 79.45 31.44 91.82 31.44"/><text transform="rotate(-90 115.33 15.604)" style="font-family:'Asap-Regular';font-size:6px">Cassava</text><text transform="rotate(-90 83.354 -16.373)" style="font-family:'Asap-Regular';font-size:6px">Rice</text><text transform="rotate(-90 93.218 4.697)" style="fill:#fff;font-family:'Asap-Regular';font-size:8px">Anil</text><line style="fill:none;stroke:#6d6e71;stroke-width:.5;stroke-miterlimit:10" x1="91.82" y1="31.44" x2="104.47" y2="31.44"/><line style="fill:none;stroke:#6d6e71;stroke-width:.5;stroke-miterlimit:10" x1="104.47" y1="148.99" x2="91.82" y2="148.99"/><line style="fill:none;stroke:#6d6e71;stroke-width:.5;stroke-miterlimit:10" x1="91.82" y1="90.22" x2="104.47" y2="90.22"/></svg>