<svg version="1.1" xmlns="http://www.w3.org/2000/svg" x="0" y="0" viewBox="0 0 311.81 205.59" style="enable-background:new 0 0 311.81 205.59" xml:space="preserve"><path style="fill:none;stroke:#f49323;stroke-width:.5;stroke-linecap:square;stroke-linejoin:round" d="M244.13 175.23c-1.59-17.27-7.52-54.43-35-89.43C161.77 25.5 89.34 21.17 77.68 20.67"/><path style="fill:none;stroke:#0871b9;stroke-width:.5;stroke-miterlimit:10" d="M123 7.11c2.92 9.32 7.33 22.06 13.8 36.77 8.36 18.99 15.74 35.76 30.49 54.13 8.48 10.56 20.25 24.93 40.83 36.43 14.05 7.85 27.08 11.5 36 13.33"/><text transform="translate(250.692 151.112)" style="font-family:'Asap-Regular';font-size:7px">IC</text><text transform="matrix(.583 0 0 .583 257.006 153.443)" style="font-family:'Asap-Regular';font-size:7px">2</text><text transform="translate(191.43 119.63)" style="font-family:'Asap-Regular';font-size:7px">L</text><path style="fill:none;stroke:#273a71;stroke-width:.5;stroke-linecap:square;stroke-linejoin:round;stroke-miterlimit:10" d="M129.44 7.11c3.96 12.72 10.7 30.7 22.36 50.52 9.4 15.98 19.83 33.7 40.03 49.8 9.49 7.56 26.71 19.2 52.29 25.98"/><text transform="translate(192.108 64.03)" style="font-family:'Asap-Regular';font-size:7px">A</text><text transform="translate(217.261 88.916)" style="font-family:'Asap-Regular';font-size:7px">M</text><text transform="translate(215.801 119.631)" style="font-family:'Asap-Regular';font-size:7px">N</text><text transform="translate(250.692 134.187)" style="font-family:'Asap-Regular';font-size:7px">IC</text><text transform="matrix(.583 0 0 .583 257.006 136.518)" style="font-family:'Asap-Regular';font-size:7px">N</text><line style="fill:none;stroke:#939598;stroke-width:.5;stroke-linecap:square;stroke-linejoin:round;stroke-miterlimit:10;stroke-dasharray:1.417" x1="213.85" y1="92.6" x2="213.85" y2="174.26"/><line style="fill:none;stroke:#939598;stroke-width:.5;stroke-linecap:square;stroke-linejoin:round;stroke-miterlimit:10;stroke-dasharray:1.417" x1="77.15" y1="121.3" x2="244.13" y2="121.3"/><text transform="translate(163.439 43.112)" style="font-family:'Asap-Regular';font-size:6px">Feasible frontier</text><line style="fill:none;stroke:#939598;stroke-width:.5;stroke-linecap:square;stroke-linejoin:round;stroke-miterlimit:10" x1="205.44" y1="79.85" x2="223.82" y2="105.35"/><circle style="fill:#000101" cx="213.85" cy="91.74" r="1.13"/><line style="fill:none;stroke:#939598;stroke-width:.5;stroke-linecap:square;stroke-linejoin:round;stroke-miterlimit:10" x1="200.66" y1="114.99" x2="228.25" y2="130.06"/><circle style="fill:#000101" cx="213.85" cy="121.39" r="1.13"/><line style="fill:none;stroke:#939598;stroke-width:.5;stroke-linecap:square;stroke-linejoin:round;stroke-miterlimit:10;stroke-dasharray:1.417" x1="188.46" y1="64.52" x2="188.46" y2="174.26"/><circle style="fill:#000101" cx="188.46" cy="64.16" r="1.13"/><circle style="fill:#000101" cx="188.46" cy="121.39" r="1.13"/><g><line style="fill:none;stroke:#6d6e71;stroke-width:.5;stroke-linecap:square;stroke-linejoin:round" x1="76.86" y1="174.73" x2="74.73" y2="174.73"/><line style="fill:none;stroke:#6d6e71;stroke-width:.5;stroke-linecap:square;stroke-linejoin:round" x1="76.86" y1="162.68" x2="74.73" y2="162.68"/><line style="fill:none;stroke:#6d6e71;stroke-width:.5;stroke-linecap:square;stroke-linejoin:round" x1="76.86" y1="150.68" x2="74.73" y2="150.68"/><line style="fill:none;stroke:#6d6e71;stroke-width:.5;stroke-linecap:square;stroke-linejoin:round" x1="76.86" y1="138.68" x2="74.73" y2="138.68"/><line style="fill:none;stroke:#6d6e71;stroke-width:.5;stroke-linecap:square;stroke-linejoin:round" x1="76.86" y1="126.68" x2="74.73" y2="126.68"/><line style="fill:none;stroke:#6d6e71;stroke-width:.5;stroke-linecap:square;stroke-linejoin:round" x1="76.86" y1="114.68" x2="74.73" y2="114.68"/><line style="fill:none;stroke:#6d6e71;stroke-width:.5;stroke-linecap:square;stroke-linejoin:round" x1="76.86" y1="102.68" x2="74.73" y2="102.68"/><line style="fill:none;stroke:#6d6e71;stroke-width:.5;stroke-linecap:square;stroke-linejoin:round" x1="76.86" y1="90.68" x2="74.73" y2="90.68"/><line style="fill:none;stroke:#6d6e71;stroke-width:.5;stroke-linecap:square;stroke-linejoin:round" x1="76.86" y1="78.68" x2="74.73" y2="78.68"/><line style="fill:none;stroke:#6d6e71;stroke-width:.5;stroke-linecap:square;stroke-linejoin:round" x1="76.86" y1="66.68" x2="74.73" y2="66.68"/><line style="fill:none;stroke:#6d6e71;stroke-width:.5;stroke-linecap:square;stroke-linejoin:round" x1="76.86" y1="30.68" x2="74.73" y2="30.68"/><line style="fill:none;stroke:#6d6e71;stroke-width:.5;stroke-linecap:square;stroke-linejoin:round" x1="76.86" y1="18.68" x2="74.73" y2="18.68"/><line style="fill:none;stroke:#6d6e71;stroke-width:.5;stroke-linecap:square;stroke-linejoin:round" x1="76.86" y1="54.68" x2="74.73" y2="54.68"/><line style="fill:none;stroke:#6d6e71;stroke-width:.5;stroke-linecap:square;stroke-linejoin:round" x1="76.86" y1="42.68" x2="74.73" y2="42.68"/><line style="fill:none;stroke:#6d6e71;stroke-width:.5;stroke-linecap:square;stroke-linejoin:round" x1="76.86" y1="6.68" x2="74.73" y2="6.68"/><line style="fill:none;stroke:#6d6e71;stroke-width:.5;stroke-linecap:square" x1="77.13" y1="174.8" x2="77.13" y2="176.99"/><line style="fill:none;stroke:#6d6e71;stroke-width:.5;stroke-linecap:square" x1="84.09" y1="174.8" x2="84.09" y2="176.93"/><line style="fill:none;stroke:#6d6e71;stroke-width:.5;stroke-linecap:square" x1="91.04" y1="174.8" x2="91.04" y2="176.93"/><line style="fill:none;stroke:#6d6e71;stroke-width:.5;stroke-linecap:square" x1="98" y1="174.8" x2="98" y2="176.93"/><line style="fill:none;stroke:#6d6e71;stroke-width:.5;stroke-linecap:square" x1="104.96" y1="174.8" x2="104.96" y2="176.93"/><line style="fill:none;stroke:#6d6e71;stroke-width:.5;stroke-linecap:square" x1="111.92" y1="174.8" x2="111.92" y2="176.93"/><line style="fill:none;stroke:#6d6e71;stroke-width:.5;stroke-linecap:square" x1="118.88" y1="174.8" x2="118.88" y2="176.93"/><line style="fill:none;stroke:#6d6e71;stroke-width:.5;stroke-linecap:square" x1="125.84" y1="174.8" x2="125.84" y2="176.93"/><line style="fill:none;stroke:#6d6e71;stroke-width:.5;stroke-linecap:square" x1="132.79" y1="174.8" x2="132.79" y2="176.93"/><line style="fill:none;stroke:#6d6e71;stroke-width:.5;stroke-linecap:square" x1="139.75" y1="174.8" x2="139.75" y2="176.93"/><line style="fill:none;stroke:#6d6e71;stroke-width:.5;stroke-linecap:square" x1="146.71" y1="174.8" x2="146.71" y2="176.93"/><line style="fill:none;stroke:#6d6e71;stroke-width:.5;stroke-linecap:square" x1="153.67" y1="174.8" x2="153.67" y2="176.93"/><line style="fill:none;stroke:#6d6e71;stroke-width:.5;stroke-linecap:square" x1="160.63" y1="174.8" x2="160.63" y2="176.93"/><line style="fill:none;stroke:#6d6e71;stroke-width:.5;stroke-linecap:square" x1="167.59" y1="174.8" x2="167.59" y2="176.93"/><line style="fill:none;stroke:#6d6e71;stroke-width:.5;stroke-linecap:square" x1="174.54" y1="174.8" x2="174.54" y2="176.93"/><line style="fill:none;stroke:#6d6e71;stroke-width:.5;stroke-linecap:square" x1="181.5" y1="174.8" x2="181.5" y2="176.93"/><line style="fill:none;stroke:#6d6e71;stroke-width:.5;stroke-linecap:square" x1="188.46" y1="174.8" x2="188.46" y2="176.93"/><line style="fill:none;stroke:#6d6e71;stroke-width:.5;stroke-linecap:square" x1="195.42" y1="174.8" x2="195.42" y2="176.93"/><line style="fill:none;stroke:#6d6e71;stroke-width:.5;stroke-linecap:square" x1="202.38" y1="174.8" x2="202.38" y2="176.93"/><line style="fill:none;stroke:#6d6e71;stroke-width:.5;stroke-linecap:square" x1="209.34" y1="174.8" x2="209.34" y2="176.93"/><line style="fill:none;stroke:#6d6e71;stroke-width:.5;stroke-linecap:square" x1="216.29" y1="174.8" x2="216.29" y2="176.93"/><line style="fill:none;stroke:#6d6e71;stroke-width:.5;stroke-linecap:square" x1="223.25" y1="174.8" x2="223.25" y2="176.93"/><line style="fill:none;stroke:#6d6e71;stroke-width:.5;stroke-linecap:square" x1="230.21" y1="174.8" x2="230.21" y2="176.93"/><line style="fill:none;stroke:#6d6e71;stroke-width:.5;stroke-linecap:square" x1="237.17" y1="174.8" x2="237.17" y2="176.93"/><line style="fill:none;stroke:#6d6e71;stroke-width:.5;stroke-linecap:square" x1="244.13" y1="174.8" x2="244.13" y2="176.93"/><text transform="translate(67.035 176.88)" style="font-family:'Asap-Regular';font-size:7px">0</text><text transform="translate(75.25 186.287)" style="font-family:'Asap-Regular';font-size:7px">0</text><text transform="translate(63.29 152.828)" style="font-family:'Asap-Regular';font-size:7px">10</text><text transform="translate(63.291 128.828)" style="font-family:'Asap-Regular';font-size:7px">20</text><text transform="translate(63.29 104.828)" style="font-family:'Asap-Regular';font-size:7px">30</text><text transform="translate(63.29 80.828)" style="font-family:'Asap-Regular';font-size:7px">40</text><text transform="translate(63.29 56.828)" style="font-family:'Asap-Regular';font-size:7px">50</text><text transform="translate(63.29 32.828)" style="font-family:'Asap-Regular';font-size:7px">60</text><text transform="translate(63.29 8.828)" style="font-family:'Asap-Regular';font-size:7px">70</text><text transform="translate(103.088 186.288)" style="font-family:'Asap-Regular';font-size:7px">4</text><text transform="translate(130.922 186.287)" style="font-family:'Asap-Regular';font-size:7px">8</text><text transform="translate(156.883 186.288)" style="font-family:'Asap-Regular';font-size:7px">12</text><text transform="translate(184.716 186.287)" style="font-family:'Asap-Regular';font-size:7px">16</text><text transform="translate(212.549 186.287)" style="font-family:'Asap-Regular';font-size:7px">20</text><text transform="translate(240.382 186.287)" style="font-family:'Asap-Regular';font-size:7px">24</text><text transform="matrix(0 -.9726 1 0 51.72 117.939)" style="font-family:'Asap-Medium';font-size:8px">Bushels of grain</text><text transform="translate(113.392 200.26)" style="font-family:'Asap-Medium';font-size:8px">Angela’s hours of free time</text><path style="fill:none;stroke:#6d6e71;stroke-width:.5;stroke-linecap:square;stroke-linejoin:round" d="M77.13 6.68v167.81"/><line style="fill:none;stroke:#6d6e71;stroke-width:.5;stroke-linecap:square" x1="77.13" y1="174.68" x2="244.13" y2="174.68"/></g></svg>