<svg version="1.1" xmlns="http://www.w3.org/2000/svg" x="0" y="0" viewBox="0 0 311.81 191.68" style="enable-background:new 0 0 311.81 191.68" xml:space="preserve"><line style="fill:none;stroke:#6d6e71;stroke-width:.5;stroke-linecap:square" x1="37.1" y1="9.45" x2="37.1" y2="166.52"/><line style="fill:none;stroke:#6d6e71;stroke-width:.5;stroke-linecap:square" x1="37.1" y1="167.02" x2="37.1" y2="169.14"/><line style="fill:none;stroke:#6d6e71;stroke-width:.5;stroke-linecap:square" x1="70.52" y1="167.12" x2="70.52" y2="169.25"/><line style="fill:none;stroke:#6d6e71;stroke-width:.5;stroke-linecap:square" x1="103.94" y1="167.12" x2="103.94" y2="169.25"/><line style="fill:none;stroke:#6d6e71;stroke-width:.5;stroke-linecap:square" x1="137.36" y1="167.12" x2="137.36" y2="169.25"/><line style="fill:none;stroke:#6d6e71;stroke-width:.5;stroke-linecap:square" x1="170.78" y1="167.12" x2="170.78" y2="169.25"/><line style="fill:none;stroke:#6d6e71;stroke-width:.5;stroke-linecap:square" x1="204.2" y1="167.12" x2="204.2" y2="169.25"/><line style="fill:none;stroke:#6d6e71;stroke-width:.5;stroke-linecap:square" x1="237.62" y1="167.12" x2="237.62" y2="169.25"/><line style="fill:none;stroke:#6d6e71;stroke-width:.5;stroke-linecap:square" x1="271.04" y1="167.12" x2="271.04" y2="169.25"/><line style="fill:none;stroke:#6d6e71;stroke-width:.5;stroke-linecap:square" x1="304.79" y1="166.52" x2="304.79" y2="168.65"/><polyline style="fill:none;stroke:#0871b9;stroke-width:.5;stroke-linecap:square" points="304.46 25.06 37.1 26.9 37.1 166.52"/><line style="fill:none;stroke:#6d6e71;stroke-width:.5;stroke-linecap:square" x1="34.98" y1="131.62" x2="37.1" y2="131.62"/><line style="fill:none;stroke:#6d6e71;stroke-width:.5;stroke-linecap:square" x1="34.98" y1="149.07" x2="37.1" y2="149.07"/><line style="fill:none;stroke:#6d6e71;stroke-width:.5;stroke-linecap:square" x1="34.98" y1="166.52" x2="37.1" y2="166.52"/><line style="fill:none;stroke:#6d6e71;stroke-width:.5;stroke-linecap:square" x1="34.98" y1="114.16" x2="37.1" y2="114.16"/><line style="fill:none;stroke:#6d6e71;stroke-width:.5;stroke-linecap:square" x1="34.98" y1="96.71" x2="37.1" y2="96.71"/><line style="fill:none;stroke:#6d6e71;stroke-width:.5;stroke-linecap:square" x1="34.98" y1="79.26" x2="37.1" y2="79.26"/><line style="fill:none;stroke:#6d6e71;stroke-width:.5;stroke-linecap:square" x1="34.98" y1="61.81" x2="37.1" y2="61.81"/><line style="fill:none;stroke:#6d6e71;stroke-width:.5;stroke-linecap:square" x1="34.98" y1="44.35" x2="37.1" y2="44.35"/><line style="fill:none;stroke:#6d6e71;stroke-width:.5;stroke-linecap:square" x1="34.98" y1="26.9" x2="37.1" y2="26.9"/><line style="fill:none;stroke:#6d6e71;stroke-width:.5;stroke-linecap:square" x1="34.98" y1="9.45" x2="37.1" y2="9.45"/><text transform="translate(19.501 168.896)" style="font-family:'Asap-Regular';font-size:7px">400</text><text transform="translate(19.64 151.443)" style="font-family:'Asap-Regular';font-size:7px">450</text><text transform="translate(19.78 133.99)" style="font-family:'Asap-Regular';font-size:7px">500</text><text transform="translate(19.919 116.538)" style="font-family:'Asap-Regular';font-size:7px">550</text><text transform="translate(20.058 99.085)" style="font-family:'Asap-Regular';font-size:7px">600</text><text transform="translate(20.197 81.633)" style="font-family:'Asap-Regular';font-size:7px">650</text><text transform="translate(20.336 64.18)" style="font-family:'Asap-Regular';font-size:7px">700</text><text transform="translate(20.475 46.727)" style="font-family:'Asap-Regular';font-size:7px">750</text><text transform="translate(20.614 29.275)" style="font-family:'Asap-Regular';font-size:7px">800</text><text transform="translate(19.919 11.822)" style="font-family:'Asap-Regular';font-size:7px">850</text><text transform="translate(35.232 177.253)" style="font-family:'Asap-Regular';font-size:7px">0</text><text transform="translate(66.78 177.245)" style="font-family:'Asap-Regular';font-size:7px">10</text><text transform="translate(100.2 177.252)" style="font-family:'Asap-Regular';font-size:7px">20</text><text transform="translate(133.62 177.224)" style="font-family:'Asap-Regular';font-size:7px">30</text><text transform="translate(167.04 177.252)" style="font-family:'Asap-Regular';font-size:7px">40</text><text transform="translate(200.46 177.253)" style="font-family:'Asap-Regular';font-size:7px">50</text><text transform="translate(267.3 177.295)" style="font-family:'Asap-Regular';font-size:7px">70</text><text transform="translate(233.88 177.224)" style="font-family:'Asap-Regular';font-size:7px">60</text><text transform="translate(300.72 177.224)" style="font-family:'Asap-Regular';font-size:7px">80</text><path style="fill:none;stroke:#f15a27;stroke-width:.5;stroke-linecap:square" d="M50.42 166.52c.62-7.24 1.67-17.48 3.48-29.72 2.01-13.57 3.04-20.35 4.98-27.31 1.8-6.47 7.78-27.38 23.34-42.29 12.47-11.95 27.23-15.73 39.36-18.24 59.22-12.25 170.4-15.08 182.4-15.36"/><text transform="matrix(0 -.934 1 0 8.985 105.628)"><tspan x="0" y="0" style="font-family:'Asap-Medium';font-size:8px">Wage, </tspan><tspan x="23.82" y="0" style="font-family:'Asap-MediumItalic';font-size:8px">w</tspan></text><text transform="translate(143.757 189.12)"><tspan x="0" y="0" style="font-family:'Asap-Medium';font-size:8px">Employment, </tspan><tspan x="48.3" y="0" style="font-family:'Asap-MediumItalic';font-size:8px">N</tspan></text><circle style="fill:#f15a27" cx="72.27" cy="79.26" r="1.13"/><circle style="fill:#f15a27" cx="170.25" cy="41.62" r="1.13"/><circle style="fill:#f15a27" cx="286.1" cy="34.08" r="1.13"/><text transform="translate(70.711 23.809)" style="font-family:'Asap-Regular';font-size:6px">Profit = 0</text><text transform="translate(60.625 79.26)" style="font-family:'Asap-Regular';font-size:6px">A</text><text transform="translate(162.457 38.103)" style="font-family:'Asap-Regular';font-size:6px">B</text><text transform="translate(278.048 32.949)" style="font-family:'Asap-Regular';font-size:6px">C</text><line style="fill:none;stroke:#6d6e71;stroke-width:.5;stroke-linecap:square" x1="37.1" y1="166.52" x2="304.46" y2="166.52"/><text transform="translate(68.18 51.915)" style="font-family:'Asap-Regular';font-size:6px">Profit = 1,500</text></svg>