<svg version="1.1" xmlns="http://www.w3.org/2000/svg" x="0" y="0" viewBox="0 0 311.81 182" style="enable-background:new 0 0 311.81 182" xml:space="preserve"><path style="fill:#e3e3f2" d="M245.48 87.27c-34.41 5.78-68.82 11.66-103.24 17.49l.09-17.64 103.15.15z"/><path style="fill:#e2eae1" d="M245.5 43.34c-33.45 16.83-67.91 31.59-103.26 43.78H245.5V43.34z"/><path style="fill:none;stroke:#000;stroke-width:.5;stroke-linejoin:round" d="M47 87.63h253.85"/><path style="fill:none;stroke:#009147;stroke-width:.5;stroke-linejoin:round" d="M47 113.04c89.9-17.87 175.03-53.52 253.85-99.89"/><path style="fill:none;stroke:#b9519e;stroke-width:.5;stroke-linejoin:round" d="M47 120.7c84.62-13.87 169.23-28.75 253.85-42.62"/><defs><rect id="prefix__a" x="43.34" y="159.1" width="5.32" height="9.81"/></defs><line style="fill:none;stroke:#6d6e71;stroke-width:.5;stroke-linecap:square;stroke-linejoin:round" x1="46.78" y1="4.3" x2="44.65" y2="4.3"/><line style="fill:none;stroke:#6d6e71;stroke-width:.5;stroke-linecap:square;stroke-linejoin:round" x1="46.78" y1="70.97" x2="44.65" y2="70.97"/><line style="fill:none;stroke:#6d6e71;stroke-width:.5;stroke-linecap:square;stroke-linejoin:round" x1="46.78" y1="87.63" x2="44.65" y2="87.63"/><line style="fill:none;stroke:#6d6e71;stroke-width:.5;stroke-linecap:square;stroke-linejoin:round" x1="46.78" y1="137.63" x2="44.65" y2="137.63"/><line style="fill:none;stroke:#6d6e71;stroke-width:.5;stroke-linecap:square;stroke-linejoin:round" x1="46.78" y1="154.3" x2="44.65" y2="154.3"/><line style="fill:none;stroke:#6d6e71;stroke-width:.5;stroke-linecap:square;stroke-linejoin:round" x1="46.74" y1="154.3" x2="46.74" y2="4.3"/><line style="fill:none;stroke:#6d6e71;stroke-width:.5;stroke-linecap:square;stroke-linejoin:round" x1="295.19" y1="154.35" x2="295.19" y2="156.47"/><line style="fill:none;stroke:#6d6e71;stroke-width:.5;stroke-linecap:square;stroke-linejoin:round" x1="270.58" y1="154.35" x2="270.58" y2="156.47"/><line style="fill:none;stroke:#6d6e71;stroke-width:.5;stroke-linecap:square;stroke-linejoin:round" x1="245.5" y1="154.35" x2="245.5" y2="156.47"/><line style="fill:none;stroke:#6d6e71;stroke-width:.5;stroke-linecap:square;stroke-linejoin:round" x1="220.89" y1="154.35" x2="220.89" y2="156.47"/><line style="fill:none;stroke:#6d6e71;stroke-width:.5;stroke-linecap:square;stroke-linejoin:round" x1="195.81" y1="154.35" x2="195.81" y2="156.47"/><line style="fill:none;stroke:#6d6e71;stroke-width:.5;stroke-linecap:square;stroke-linejoin:round" x1="171.2" y1="154.35" x2="171.2" y2="156.47"/><line style="fill:none;stroke:#6d6e71;stroke-width:.5;stroke-linecap:square;stroke-linejoin:round" x1="146.12" y1="154.35" x2="146.12" y2="156.47"/><line style="fill:none;stroke:#6d6e71;stroke-width:.5;stroke-linecap:square;stroke-linejoin:round" x1="121.04" y1="154.35" x2="121.04" y2="156.47"/><line style="fill:none;stroke:#6d6e71;stroke-width:.5;stroke-linecap:square;stroke-linejoin:round" x1="96.43" y1="154.35" x2="96.43" y2="156.47"/><line style="fill:none;stroke:#6d6e71;stroke-width:.5;stroke-linecap:square;stroke-linejoin:round" x1="71.35" y1="154.35" x2="71.35" y2="156.47"/><line style="fill:none;stroke:#6d6e71;stroke-width:.5;stroke-linecap:square;stroke-linejoin:round" x1="46.74" y1="154.35" x2="46.74" y2="156.47"/><line style="fill:none;stroke:#6d6e71;stroke-width:.5;stroke-linecap:square;stroke-linejoin:round" x1="46.74" y1="154.3" x2="300.19" y2="154.3"/><text transform="translate(44.653 165.675)" style="font-family:'Asap-Regular';font-size:7px">0</text><rect x="44.06" y="158.25" style="fill:none" width="5.29" height="9.75"/><text transform="translate(58.906 165.675)" style="font-family:'Asap-Regular';font-size:7px">10,000</text><text transform="translate(84.906 165.675)" style="font-family:'Asap-Regular';font-size:7px">20,000</text><line style="fill:none;stroke:#6d6e71;stroke-width:.5;stroke-linecap:square;stroke-linejoin:round" x1="46.78" y1="120.97" x2="44.65" y2="120.97"/><line style="fill:none;stroke:#6d6e71;stroke-width:.5;stroke-linecap:square;stroke-linejoin:round" x1="46.78" y1="104.3" x2="44.65" y2="104.3"/><line style="fill:none;stroke:#6d6e71;stroke-width:.5;stroke-linecap:square;stroke-linejoin:round" x1="46.78" y1="54.3" x2="44.65" y2="54.3"/><line style="fill:none;stroke:#6d6e71;stroke-width:.5;stroke-linecap:square;stroke-linejoin:round" x1="46.78" y1="37.63" x2="44.65" y2="37.63"/><line style="fill:none;stroke:#6d6e71;stroke-width:.5;stroke-linecap:square;stroke-linejoin:round" x1="46.78" y1="20.97" x2="44.65" y2="20.97"/><text transform="translate(109.906 165.675)" style="font-family:'Asap-Regular';font-size:7px">30,000</text><text transform="translate(134.906 165.675)" style="font-family:'Asap-Regular';font-size:7px">40,000</text><text transform="translate(159.906 165.675)" style="font-family:'Asap-Regular';font-size:7px">50,000</text><text transform="translate(184.906 165.675)" style="font-family:'Asap-Regular';font-size:7px">60,000</text><text transform="translate(209.906 165.675)" style="font-family:'Asap-Regular';font-size:7px">70,000</text><text transform="translate(234.906 165.675)" style="font-family:'Asap-Regular';font-size:7px">80,000</text><text transform="translate(259.906 165.675)" style="font-family:'Asap-Regular';font-size:7px">90,000</text><text transform="translate(284.906 165.675)" style="font-family:'Asap-Regular';font-size:7px">100,000</text><line style="fill:none;stroke:#888;stroke-width:.5;stroke-miterlimit:10;stroke-dasharray:1.4173" x1="142.34" y1="87.63" x2="142.34" y2="154.3"/><line style="fill:none;stroke:#888;stroke-width:.5;stroke-miterlimit:10;stroke-dasharray:1.4173" x1="245.5" y1="43.34" x2="245.5" y2="154.3"/><text transform="translate(196.121 79.299)" style="font-family:'Asap-Regular';font-size:6px">Net social gain</text><path d="M245.22 88.48c-.62 0-1.13-.51-1.13-1.13 0-.62.51-1.13 1.13-1.13.62 0 1.13.51 1.13 1.13 0 .62-.51 1.13-1.13 1.13z"/><text transform="translate(248 94)" style="font-family:'Asap-Regular';font-size:6px">A</text><path d="M142.05 88.48c-.62 0-1.13-.51-1.13-1.13 0-.62.51-1.13 1.13-1.13.62 0 1.13.51 1.13 1.13.01.62-.5 1.13-1.13 1.13z"/><text transform="rotate(-90 52.561 42.388)" style="font-family:'Asap-Medium';font-size:8px">Costs ($)</text><text transform="translate(35.361 156.852)" style="font-family:'Asap-Regular';font-size:7px">0</text><rect x="17" y="-.53" style="fill:none" width="25.37" height="9.75"/><text transform="translate(27.695 140.245)" style="font-family:'Asap-Regular';font-size:7px">100</text><text transform="translate(27.695 124.245)" style="font-family:'Asap-Regular';font-size:7px">200</text><text transform="translate(27.695 107.245)" style="font-family:'Asap-Regular';font-size:7px">300</text><text transform="translate(27.695 89.245)" style="font-family:'Asap-Regular';font-size:7px">400</text><text transform="translate(27.695 73.245)" style="font-family:'Asap-Regular';font-size:7px">500</text><text transform="translate(27.695 56.245)" style="font-family:'Asap-Regular';font-size:7px">600</text><text transform="translate(27.695 40.245)" style="font-family:'Asap-Regular';font-size:7px">700</text><text transform="translate(27.695 23.245)" style="font-family:'Asap-Regular';font-size:7px">800</text><text transform="translate(27.695 7.245)" style="font-family:'Asap-Regular';font-size:7px">900</text><text transform="translate(52.906 85.116)" style="font-family:'Asap-Regular';font-size:6px">Price</text><text transform="translate(269.5 78.25)" style="font-family:'Asap-Regular';font-size:6px">MPC</text><text transform="translate(269.92 21.245)" style="font-family:'Asap-Regular';font-size:6px">MSC</text><text transform="translate(136.832 85.116)" style="font-family:'Asap-Regular';font-size:6px">B</text><text transform="translate(104.143 179.143)"><tspan x="0" y="0" style="font-family:'Asap-Medium';font-size:8px">Quantity of bananas, </tspan><tspan x="74.9" y="0" style="font-family:'Asap-MediumItalic';font-size:8px">Q</tspan><tspan x="80.75" y="0" style="font-family:'Asap-Medium';font-size:8px"> (tons per year)</tspan></text><text transform="translate(170.921 120.695)"><tspan x="0" y="0" style="font-family:'Asap-Regular';font-size:6px">Plantations’ </tspan><tspan x="0" y="7.2" style="font-family:'Asap-Regular';font-size:6px">reduction </tspan><tspan x="0" y="14.4" style="font-family:'Asap-Regular';font-size:6px">in profit</tspan></text><line style="fill:none;stroke:#939598;stroke-width:.6751;stroke-miterlimit:10" x1="168.2" y1="117.09" x2="156.6" y2="96.55"/><polygon style="fill:#939598" points="160.1 97.14 159.9 97.78 156.72 96.77 155.95 100.01 155.29 99.85 156.24 95.91"/><text transform="translate(142.532 58.966)" style="font-family:'Asap-Regular';font-size:6px">Gains for fishermen</text><line style="fill:none;stroke:#939598;stroke-width:.675;stroke-miterlimit:10" x1="165.01" y1="62.27" x2="168.59" y2="93.04"/><polygon style="fill:#939598" points="165.59 91.13 166.03 90.62 168.56 92.78 170.53 90.1 171.07 90.5 168.68 93.76"/><g><line style="fill:none;stroke:#939598;stroke-width:.675;stroke-miterlimit:10" x1="164.85" y1="62.43" x2="184.45" y2="77.57"/><polygon style="fill:#939598" points="181 78.39 180.93 77.71 184.25 77.41 183.7 74.13 184.37 74.02 185.03 78.02"/></g></svg>