<svg version="1.1" xmlns="http://www.w3.org/2000/svg" x="0" y="0" viewBox="0 0 311.81 295.97" style="enable-background:new 0 0 311.81 295.97" xml:space="preserve"><text transform="translate(28.283 267.184)" style="font-family:'Asap-Regular';font-size:7px">0</text><text transform="translate(25.48 249.956)"><tspan x="0" y="0" style="font-family:'Asap-Regular';font-size:7px">1</tspan><tspan x="3.72" y="0" style="font-family:'Asap-Regular';font-size:7px">0</tspan></text><text transform="translate(25.48 232.734)"><tspan x="0" y="0" style="font-family:'Asap-Regular';font-size:7px">2</tspan><tspan x="3.72" y="0" style="font-family:'Asap-Regular';font-size:7px">0</tspan></text><text transform="translate(25.48 215.505)"><tspan x="0" y="0" style="font-family:'Asap-Regular';font-size:7px">3</tspan><tspan x="3.72" y="0" style="font-family:'Asap-Regular';font-size:7px">0</tspan></text><text transform="translate(25.48 198.29)"><tspan x="0" y="0" style="font-family:'Asap-Regular';font-size:7px">4</tspan><tspan x="3.72" y="0" style="font-family:'Asap-Regular';font-size:7px">0</tspan></text><text transform="translate(25.48 181.069)"><tspan x="0" y="0" style="font-family:'Asap-Regular';font-size:7px">5</tspan><tspan x="3.72" y="0" style="font-family:'Asap-Regular';font-size:7px">0</tspan></text><text transform="translate(25.48 163.841)"><tspan x="0" y="0" style="font-family:'Asap-Regular';font-size:7px">6</tspan><tspan x="3.72" y="0" style="font-family:'Asap-Regular';font-size:7px">0</tspan></text><text transform="translate(25.48 146.618)"><tspan x="0" y="0" style="font-family:'Asap-Regular';font-size:7px">7</tspan><tspan x="3.72" y="0" style="font-family:'Asap-Regular';font-size:7px">0</tspan></text><text transform="translate(25.48 129.39)"><tspan x="0" y="0" style="font-family:'Asap-Regular';font-size:7px">8</tspan><tspan x="3.72" y="0" style="font-family:'Asap-Regular';font-size:7px">0</tspan></text><text transform="translate(25.48 112.174)"><tspan x="0" y="0" style="font-family:'Asap-Regular';font-size:7px">9</tspan><tspan x="3.72" y="0" style="font-family:'Asap-Regular';font-size:7px">0</tspan></text><text transform="translate(22.688 94.952)"><tspan x="0" y="0" style="font-family:'Asap-Regular';font-size:7px">1</tspan><tspan x="3.72" y="0" style="font-family:'Asap-Regular';font-size:7px">0</tspan><tspan x="7.53" y="0" style="font-family:'Asap-Regular';font-size:7px">0</tspan></text><text transform="translate(22.688 77.725)"><tspan x="0" y="0" style="font-family:'Asap-Regular';font-size:7px">1</tspan><tspan x="3.72" y="0" style="font-family:'Asap-Regular';font-size:7px">1</tspan><tspan x="7.53" y="0" style="font-family:'Asap-Regular';font-size:7px">0</tspan></text><text transform="translate(22.688 60.502)"><tspan x="0" y="0" style="font-family:'Asap-Regular';font-size:7px">1</tspan><tspan x="3.72" y="0" style="font-family:'Asap-Regular';font-size:7px">2</tspan><tspan x="7.53" y="0" style="font-family:'Asap-Regular';font-size:7px">0</tspan></text><text transform="translate(22.688 43.274)"><tspan x="0" y="0" style="font-family:'Asap-Regular';font-size:7px">1</tspan><tspan x="3.72" y="0" style="font-family:'Asap-Regular';font-size:7px">3</tspan><tspan x="7.53" y="0" style="font-family:'Asap-Regular';font-size:7px">0</tspan></text><text transform="translate(22.688 26.052)"><tspan x="0" y="0" style="font-family:'Asap-Regular';font-size:7px">1</tspan><tspan x="3.72" y="0" style="font-family:'Asap-Regular';font-size:7px">4</tspan><tspan x="7.53" y="0" style="font-family:'Asap-Regular';font-size:7px">0</tspan></text><text transform="translate(22.688 8.831)"><tspan x="0" y="0" style="font-family:'Asap-Regular';font-size:7px">1</tspan><tspan x="3.72" y="0" style="font-family:'Asap-Regular';font-size:7px">5</tspan><tspan x="7.53" y="0" style="font-family:'Asap-Regular';font-size:7px">0</tspan></text><line style="fill:none;stroke:#6d6e71;stroke-width:.5;stroke-linecap:square" x1="36.4" y1="265.64" x2="38.63" y2="265.64"/><line style="fill:none;stroke:#6d6e71;stroke-width:.5;stroke-linecap:square" x1="36.4" y1="248.35" x2="38.63" y2="248.35"/><line style="fill:none;stroke:#6d6e71;stroke-width:.5;stroke-linecap:square" x1="36.4" y1="231.07" x2="38.63" y2="231.07"/><line style="fill:none;stroke:#6d6e71;stroke-width:.5;stroke-linecap:square" x1="36.4" y1="213.79" x2="38.63" y2="213.79"/><line style="fill:none;stroke:#6d6e71;stroke-width:.5;stroke-linecap:square" x1="36.4" y1="220.42" x2="38.63" y2="220.42"/><line style="fill:none;stroke:#6d6e71;stroke-width:.5;stroke-linecap:square" x1="36.4" y1="196.5" x2="38.63" y2="196.5"/><line style="fill:none;stroke:#6d6e71;stroke-width:.5;stroke-linecap:square" x1="36.4" y1="199.9" x2="38.63" y2="199.9"/><line style="fill:none;stroke:#6d6e71;stroke-width:.5;stroke-linecap:square" x1="36.4" y1="179.22" x2="38.63" y2="179.22"/><line style="fill:none;stroke:#6d6e71;stroke-width:.5;stroke-linecap:square" x1="36.4" y1="161.94" x2="38.63" y2="161.94"/><line style="fill:none;stroke:#6d6e71;stroke-width:.5;stroke-linecap:square" x1="36.4" y1="144.65" x2="38.63" y2="144.65"/><line style="fill:none;stroke:#6d6e71;stroke-width:.5;stroke-linecap:square" x1="36.4" y1="156.44" x2="38.63" y2="156.44"/><line style="fill:none;stroke:#6d6e71;stroke-width:.5;stroke-linecap:square" x1="36.4" y1="58.24" x2="38.63" y2="58.24"/><line style="fill:none;stroke:#6d6e71;stroke-width:.5;stroke-linecap:square" x1="36.4" y1="40.95" x2="38.63" y2="40.95"/><line style="fill:none;stroke:#6d6e71;stroke-width:.5;stroke-linecap:square" x1="36.4" y1="23.67" x2="38.63" y2="23.67"/><line style="fill:none;stroke:#6d6e71;stroke-width:.5;stroke-linecap:square" x1="36.4" y1="6.38" x2="38.63" y2="6.38"/><line style="fill:none;stroke:#ec2426;stroke-width:.5;stroke-linecap:square" x1="38.63" y1="75.52" x2="214.25" y2="265.93"/><line style="fill:none;stroke:#6d6e71;stroke-width:.5;stroke-linecap:square" x1="35.89" y1="75.52" x2="38.12" y2="75.52"/><line style="fill:none;stroke:#6d6e71;stroke-width:.5;stroke-linecap:square" x1="35.89" y1="92.8" x2="38.12" y2="92.8"/><line style="fill:none;stroke:#6d6e71;stroke-width:.5;stroke-linecap:square" x1="35.89" y1="110.09" x2="38.12" y2="110.09"/><line style="fill:none;stroke:#6d6e71;stroke-width:.5;stroke-linecap:square" x1="35.89" y1="127.37" x2="38.12" y2="127.37"/><g><polyline style="fill:none;stroke:#939598;stroke-width:.5;stroke-linecap:square;stroke-linejoin:round;stroke-miterlimit:10;stroke-dasharray:1.4173" points="38.63 161.94 144.66 161.94 144.66 265.44"/><polyline style="fill:none;stroke:#939598;stroke-width:.5;stroke-linecap:square;stroke-linejoin:round;stroke-miterlimit:10;stroke-dasharray:1.4173" points="38.63 220.42 157.26 220.42 157.26 265.61"/><polyline style="fill:none;stroke:#939598;stroke-width:.5;stroke-linecap:square;stroke-linejoin:round;stroke-miterlimit:10;stroke-dasharray:1.4173" points="39.47 199.9 152.93 199.9 152.93 265.44"/><line style="fill:none;stroke:#939598;stroke-width:.5;stroke-miterlimit:10;stroke-dasharray:1.4173" x1="180.02" y1="156.44" x2="180.02" y2="266.08"/><path style="fill:none;stroke:#5b73b8;stroke-width:.5;stroke-miterlimit:10" d="M67.56 58.3S85.1 213.74 232.23 259.61"/><line style="fill:none;stroke:#ed2124;stroke-width:.5;stroke-miterlimit:10" x1="38.63" y1="127.19" x2="215.52" y2="265.93"/><line style="fill:none;stroke:#ed2124;stroke-width:.5;stroke-miterlimit:10" x1="38.33" y1="6.14" x2="215.52" y2="265.93"/><path style="fill:none;stroke:#273a71;stroke-width:.5;stroke-miterlimit:10" d="M134.91 58.09s15.6 127.59 146.43 165.24"/><path style="fill:none;stroke:#5b73b8;stroke-width:.5;stroke-miterlimit:10" d="M103.56 58.3s13.79 130.87 129.5 169.49M87.82 58.24s15.55 149.55 145.96 193.68"/><text transform="rotate(-90 99.41 88.273)" style="font-family:'Asap-Medium';font-size:8px">Consumption later ($)</text><text transform="translate(131.172 292.53)" style="font-family:'Asap-Medium';font-size:8px">Consumption now ($)</text><line style="fill:none;stroke:#6d6e71;stroke-width:.5;stroke-linecap:square;stroke-linejoin:round" x1="38.63" y1="266.28" x2="38.63" y2="268.17"/><line style="fill:none;stroke:#6d6e71;stroke-width:.5;stroke-linecap:square;stroke-linejoin:round" x1="38.62" y1="265.64" x2="303.78" y2="265.93"/><text transform="translate(144.87 272.578)" style="font-family:'Asap-Regular';font-size:7px">65</text><text transform="translate(153.688 272.578)" style="font-family:'Asap-Regular';font-size:7px">68</text><text transform="translate(280.772 264.273)" style="font-family:'Asap-Regular';font-size:7px">136</text><line style="fill:none;stroke:#888;stroke-width:.5;stroke-linecap:square;stroke-linejoin:round;stroke-miterlimit:10;stroke-dasharray:1.4173" x1="38.62" y1="156.44" x2="179.8" y2="156.44"/><text transform="translate(55.073 18.577)" style="font-family:'Asap-Regular';font-size:6px">FF (lend at 10%)</text><text transform="translate(90.323 49.49)" style="font-family:'Asap-Regular';font-size:6px">FF (invest grain; 50% return; borrow at 10%)</text><text transform="translate(147.907 162.355)" style="font-family:'Asap-Regular';font-size:6px">K</text><text transform="translate(235.998 251.917)" style="font-family:'Asap-Regular';font-size:6px">Lending</text><text transform="translate(235.776 259.613)" style="font-family:'Asap-Regular';font-size:6px">Storing</text><text transform="translate(230.113 199.896)" style="font-family:'Asap-Regular';font-size:6px">Investing it all and borrowing</text><text transform="translate(214.247 286.258)" style="font-family:'Asap-Regular';font-size:6px">Marco’s endowment</text><circle cx="144.66" cy="162.15" r="1.13"/><text transform="translate(25.81 157.49)" style="font-family:'Asap-Regular';font-size:7px">62</text><text transform="translate(184.782 154.44)" style="font-family:'Asap-Regular';font-size:6px">L</text><line style="fill:none;stroke:#939598;stroke-width:.5;stroke-miterlimit:10" x1="87.82" y1="47.82" x2="79.03" y2="47.82"/><polygon style="fill:#939598" points="80.69 45.78 81.03 46.14 79.22 47.82 81.03 49.5 80.69 49.87 78.49 47.82"/><line style="fill:none;stroke:#939598;stroke-width:.5;stroke-miterlimit:10" x1="87.82" y1="36.82" x2="60.76" y2="36.82"/><polygon style="fill:#939598" points="62.42 34.78 62.76 35.14 60.96 36.82 62.76 38.5 62.42 38.87 60.22 36.82"/><text transform="translate(25.48 221.632)" style="font-family:'Asap-Regular';font-size:7px">26</text><text transform="translate(25.76 204.1)" style="font-family:'Asap-Regular';font-size:7px">39</text><text transform="translate(157.873 217.44)" style="font-family:'Asap-Regular';font-size:6px">H</text><text transform="translate(153.873 195.905)" style="font-family:'Asap-Regular';font-size:6px">J</text><line style="fill:none;stroke:#939598;stroke-width:.5;stroke-miterlimit:10" x1="50.34" y1="9.14" x2="50.34" y2="118.15"/><polygon style="fill:#939598" points="48.29 116.5 48.66 116.16 50.34 117.96 52.02 116.16 52.38 116.5 50.34 118.7"/><line style="fill:none;stroke:#939598;stroke-width:.5;stroke-miterlimit:10" x1="55.67" y1="21.03" x2="55.67" y2="75.9"/><polygon style="fill:#939598" points="53.63 74.24 53.99 73.9 55.67 75.71 57.35 73.9 57.72 74.24 55.67 76.44"/><text transform="translate(49.573 6.145)" style="font-family:'Asap-Regular';font-size:6px">FF (store grain; 20% losses)</text><text transform="translate(90.323 37.827)" style="font-family:'Asap-Regular';font-size:6px">FF (invest grain; 50% return)</text><circle cx="153.06" cy="199.9" r="1.13"/><circle cx="157.26" cy="220.42" r="1.13"/><text transform="translate(36.714 278.403)" style="font-family:'Asap-Regular';font-size:7px">0</text><text transform="translate(52.531 278.403)"><tspan x="0" y="0" style="font-family:'Asap-Regular';font-size:7px">1</tspan><tspan x="3.72" y="0" style="font-family:'Asap-Regular';font-size:7px">0</tspan></text><text transform="translate(70.21 278.403)"><tspan x="0" y="0" style="font-family:'Asap-Regular';font-size:7px">2</tspan><tspan x="3.72" y="0" style="font-family:'Asap-Regular';font-size:7px">0</tspan></text><text transform="translate(87.89 278.403)"><tspan x="0" y="0" style="font-family:'Asap-Regular';font-size:7px">3</tspan><tspan x="3.72" y="0" style="font-family:'Asap-Regular';font-size:7px">0</tspan></text><text transform="translate(105.57 278.403)"><tspan x="0" y="0" style="font-family:'Asap-Regular';font-size:7px">4</tspan><tspan x="3.72" y="0" style="font-family:'Asap-Regular';font-size:7px">0</tspan></text><text transform="translate(123.25 278.403)"><tspan x="0" y="0" style="font-family:'Asap-Regular';font-size:7px">5</tspan><tspan x="3.72" y="0" style="font-family:'Asap-Regular';font-size:7px">0</tspan></text><text transform="translate(140.929 278.403)"><tspan x="0" y="0" style="font-family:'Asap-Regular';font-size:7px">6</tspan><tspan x="3.72" y="0" style="font-family:'Asap-Regular';font-size:7px">0</tspan></text><text transform="translate(158.608 278.403)"><tspan x="0" y="0" style="font-family:'Asap-Regular';font-size:7px">7</tspan><tspan x="3.72" y="0" style="font-family:'Asap-Regular';font-size:7px">0</tspan></text><text transform="translate(176.288 278.403)"><tspan x="0" y="0" style="font-family:'Asap-Regular';font-size:7px">8</tspan><tspan x="3.72" y="0" style="font-family:'Asap-Regular';font-size:7px">0</tspan></text><text transform="translate(193.967 278.403)"><tspan x="0" y="0" style="font-family:'Asap-Regular';font-size:7px">9</tspan><tspan x="3.72" y="0" style="font-family:'Asap-Regular';font-size:7px">0</tspan></text><text transform="translate(209.743 278.403)"><tspan x="0" y="0" style="font-family:'Asap-Regular';font-size:7px">1</tspan><tspan x="3.72" y="0" style="font-family:'Asap-Regular';font-size:7px">0</tspan><tspan x="7.53" y="0" style="font-family:'Asap-Regular';font-size:7px">0</tspan></text><text transform="translate(227.423 278.403)"><tspan x="0" y="0" style="font-family:'Asap-Regular';font-size:7px">1</tspan><tspan x="3.72" y="0" style="font-family:'Asap-Regular';font-size:7px">1</tspan><tspan x="7.53" y="0" style="font-family:'Asap-Regular';font-size:7px">0</tspan></text><text transform="translate(245.101 278.403)"><tspan x="0" y="0" style="font-family:'Asap-Regular';font-size:7px">1</tspan><tspan x="3.72" y="0" style="font-family:'Asap-Regular';font-size:7px">2</tspan><tspan x="7.53" y="0" style="font-family:'Asap-Regular';font-size:7px">0</tspan></text><line style="fill:none;stroke:#6d6e71;stroke-width:.5;stroke-linecap:square" x1="286.1" y1="266.31" x2="286.1" y2="268.52"/><line style="fill:none;stroke:#6d6e71;stroke-width:.5;stroke-linecap:square" x1="268.42" y1="266.31" x2="268.42" y2="268.52"/><line style="fill:none;stroke:#6d6e71;stroke-width:.5;stroke-linecap:square" x1="250.74" y1="266.31" x2="250.74" y2="268.52"/><line style="fill:none;stroke:#6d6e71;stroke-width:.5;stroke-linecap:square" x1="233.06" y1="266.31" x2="233.06" y2="268.52"/><line style="fill:none;stroke:#6d6e71;stroke-width:.5;stroke-linecap:square" x1="215.38" y1="266.31" x2="215.38" y2="268.52"/><line style="fill:none;stroke:#6d6e71;stroke-width:.5;stroke-linecap:square" x1="197.7" y1="266.31" x2="197.7" y2="268.52"/><line style="fill:none;stroke:#6d6e71;stroke-width:.5;stroke-linecap:square" x1="180.02" y1="266.08" x2="180.02" y2="268.29"/><line style="fill:none;stroke:#6d6e71;stroke-width:.5;stroke-linecap:square" x1="162.34" y1="266.08" x2="162.34" y2="268.29"/><line style="fill:none;stroke:#6d6e71;stroke-width:.5;stroke-linecap:square" x1="157.34" y1="266.08" x2="157.34" y2="268.29"/><line style="fill:none;stroke:#6d6e71;stroke-width:.5;stroke-linecap:square" x1="152.93" y1="266.08" x2="152.93" y2="268.29"/><line style="fill:none;stroke:#6d6e71;stroke-width:.5;stroke-linecap:square" x1="144.66" y1="266.13" x2="144.66" y2="268.34"/><line style="fill:none;stroke:#6d6e71;stroke-width:.5;stroke-linecap:square" x1="126.98" y1="266.08" x2="126.98" y2="268.29"/><line style="fill:none;stroke:#6d6e71;stroke-width:.5;stroke-linecap:square" x1="109.3" y1="266.08" x2="109.3" y2="268.29"/><line style="fill:none;stroke:#6d6e71;stroke-width:.5;stroke-linecap:square" x1="91.62" y1="266.19" x2="91.62" y2="268.41"/><line style="fill:none;stroke:#6d6e71;stroke-width:.5;stroke-linecap:square" x1="73.95" y1="266.19" x2="73.95" y2="268.41"/><line style="fill:none;stroke:#6d6e71;stroke-width:.5;stroke-linecap:square" x1="56.27" y1="266.19" x2="56.27" y2="268.41"/><line style="fill:none;stroke:#6d6e71;stroke-width:.5;stroke-linecap:square" x1="303.78" y1="266.31" x2="303.78" y2="268.52"/><text transform="translate(262.812 278.012)"><tspan x="0" y="0" style="font-family:'Asap-Regular';font-size:7px">1</tspan><tspan x="3.72" y="0" style="font-family:'Asap-Regular';font-size:7px">30</tspan></text><text transform="translate(280.491 278.013)"><tspan x="0" y="0" style="font-family:'Asap-Regular';font-size:7px">1</tspan><tspan x="3.72" y="0" style="font-family:'Asap-Regular';font-size:7px">40</tspan></text><text transform="translate(298.171 278.013)"><tspan x="0" y="0" style="font-family:'Asap-Regular';font-size:7px">1</tspan><tspan x="3.72" y="0" style="font-family:'Asap-Regular';font-size:7px">50</tspan></text><line style="fill:none;stroke:#6d6e71;stroke-width:.5;stroke-linecap:square;stroke-linejoin:round" x1="38.63" y1="265.9" x2="38.63" y2="6.73"/><circle cx="215.38" cy="265.93" r="1.13"/><line style="fill:none;stroke:#ed2124;stroke-width:.5;stroke-linecap:square;stroke-linejoin:round;stroke-miterlimit:10;stroke-dasharray:1.4173" x1="38.63" y1="6.73" x2="281.77" y2="266.28"/><circle cx="38.63" cy="6.73" r="1.13"/><circle cx="281.47" cy="266.28" r="1.13"/><text transform="translate(234.58 227.792)" style="font-family:'Asap-Regular';font-size:6px">Investing</text><circle cx="179.58" cy="156.83" r="1.13"/></g></svg>