<svg version="1.1" xmlns="http://www.w3.org/2000/svg" x="0" y="0" viewBox="0 0 311.81 200.91" style="enable-background:new 0 0 311.81 200.91" xml:space="preserve"><path style="fill:none;stroke:#a1b0da;stroke-width:.5;stroke-miterlimit:10" d="M109.5 15.32c34.89 86.89 90.49 105.55 172.22 127.28"/><line style="fill:none;stroke:#6d6e71;stroke-width:.5;stroke-linecap:square" x1="42.72" y1="175" x2="280.72" y2="175"/><text transform="translate(30.695 177.272)" style="font-family:'Asap-Regular';font-size:7px">0</text><line style="fill:none;stroke:#6d6e71;stroke-width:.5;stroke-linecap:square;stroke-linejoin:round" x1="42.59" y1="16.25" x2="42.59" y2="175"/><text transform="translate(20.76 157.293)" style="font-family:'Asap-Regular';font-size:7px">1,000</text><text transform="translate(20.76 137.45)" style="font-family:'Asap-Regular';font-size:7px">2,000</text><text transform="translate(20.76 117.608)" style="font-family:'Asap-Regular';font-size:7px">3,000</text><text transform="translate(20.76 97.766)" style="font-family:'Asap-Regular';font-size:7px">4,000</text><text transform="translate(20.76 77.923)" style="font-family:'Asap-Regular';font-size:7px">5,000</text><text transform="translate(20.76 58.08)" style="font-family:'Asap-Regular';font-size:7px">6,000</text><text transform="matrix(0 -.9726 1 0 9.983 128.491)" style="font-family:'Asap-Medium';font-size:8px">Consumption ($)</text><text transform="translate(40.734 187.33)" style="font-family:'Asap-Regular';font-size:7px">0</text><text transform="translate(57.742 187.322)" style="font-family:'Asap-Regular';font-size:7px">5</text><text transform="translate(72.878 187.33)" style="font-family:'Asap-Regular';font-size:7px">10</text><text transform="translate(89.886 187.302)" style="font-family:'Asap-Regular';font-size:7px">15</text><text transform="translate(106.894 187.33)" style="font-family:'Asap-Regular';font-size:7px">20</text><text transform="translate(123.902 187.33)" style="font-family:'Asap-Regular';font-size:7px">25</text><text transform="translate(140.91 187.301)" style="font-family:'Asap-Regular';font-size:7px">30</text><text transform="translate(157.918 187.301)" style="font-family:'Asap-Regular';font-size:7px">35</text><text transform="translate(174.926 187.301)" style="font-family:'Asap-Regular';font-size:7px">40</text><text transform="translate(191.933 187.302)" style="font-family:'Asap-Regular';font-size:7px">45</text><text transform="translate(208.941 187.33)" style="font-family:'Asap-Regular';font-size:7px">50</text><text transform="translate(225.95 187.322)" style="font-family:'Asap-Regular';font-size:7px">55</text><text transform="translate(242.957 187.33)" style="font-family:'Asap-Regular';font-size:7px">60</text><text transform="translate(259.965 187.33)" style="font-family:'Asap-Regular';font-size:7px">65</text><text transform="translate(276.973 187.33)" style="font-family:'Asap-Regular';font-size:7px">70</text><text transform="translate(127.794 197.511)" style="font-family:'Asap-Medium';font-size:8px">Days of free time</text><text transform="translate(20.76 38.238)" style="font-family:'Asap-Regular';font-size:7px">7,000</text><line style="fill:none;stroke:#6d6e71;stroke-width:.5;stroke-linecap:square" x1="39.84" y1="175.13" x2="41.97" y2="175.13"/><line style="fill:none;stroke:#6d6e71;stroke-width:.5;stroke-linecap:square" x1="39.84" y1="155.15" x2="41.97" y2="155.15"/><line style="fill:none;stroke:#6d6e71;stroke-width:.5;stroke-linecap:square" x1="39.84" y1="135.31" x2="41.97" y2="135.31"/><line style="fill:none;stroke:#6d6e71;stroke-width:.5;stroke-linecap:square" x1="39.84" y1="115.46" x2="41.97" y2="115.46"/><line style="fill:none;stroke:#6d6e71;stroke-width:.5;stroke-linecap:square" x1="39.84" y1="95.62" x2="41.97" y2="95.62"/><line style="fill:none;stroke:#6d6e71;stroke-width:.5;stroke-linecap:square" x1="39.84" y1="75.78" x2="41.97" y2="75.78"/><line style="fill:none;stroke:#6d6e71;stroke-width:.5;stroke-linecap:square" x1="39.84" y1="55.94" x2="41.97" y2="55.94"/><line style="fill:none;stroke:#6d6e71;stroke-width:.5;stroke-linecap:square" x1="39.84" y1="36.09" x2="41.97" y2="36.09"/><line style="fill:none;stroke:#6d6e71;stroke-width:.5;stroke-linecap:square" x1="42.72" y1="175.09" x2="42.72" y2="177.22"/><line style="fill:none;stroke:#6d6e71;stroke-width:.5;stroke-linecap:square" x1="59.62" y1="175.09" x2="59.62" y2="177.22"/><line style="fill:none;stroke:#6d6e71;stroke-width:.5;stroke-linecap:square" x1="76.62" y1="175.09" x2="76.62" y2="177.22"/><line style="fill:none;stroke:#6d6e71;stroke-width:.5;stroke-linecap:square" x1="93.63" y1="175.09" x2="93.63" y2="177.22"/><line style="fill:none;stroke:#6d6e71;stroke-width:.5;stroke-linecap:square" x1="110.64" y1="175.09" x2="110.64" y2="177.22"/><line style="fill:none;stroke:#6d6e71;stroke-width:.5;stroke-linecap:square" x1="127.65" y1="175.09" x2="127.65" y2="177.22"/><line style="fill:none;stroke:#6d6e71;stroke-width:.5;stroke-linecap:square" x1="144.65" y1="175.09" x2="144.65" y2="177.22"/><line style="fill:none;stroke:#6d6e71;stroke-width:.5;stroke-linecap:square" x1="161.66" y1="175.09" x2="161.66" y2="177.22"/><line style="fill:none;stroke:#6d6e71;stroke-width:.5;stroke-linecap:square" x1="178.67" y1="175.09" x2="178.67" y2="177.22"/><line style="fill:none;stroke:#6d6e71;stroke-width:.5;stroke-linecap:square" x1="195.68" y1="175.09" x2="195.68" y2="177.22"/><line style="fill:none;stroke:#6d6e71;stroke-width:.5;stroke-linecap:square" x1="212.69" y1="175.09" x2="212.69" y2="177.22"/><line style="fill:none;stroke:#6d6e71;stroke-width:.5;stroke-linecap:square" x1="229.69" y1="175.09" x2="229.69" y2="177.22"/><line style="fill:none;stroke:#6d6e71;stroke-width:.5;stroke-linecap:square" x1="246.7" y1="175.09" x2="246.7" y2="177.22"/><line style="fill:none;stroke:#6d6e71;stroke-width:.5;stroke-linecap:square" x1="263.71" y1="175.09" x2="263.71" y2="177.22"/><line style="fill:none;stroke:#6d6e71;stroke-width:.5;stroke-linecap:square" x1="280.72" y1="175.09" x2="280.72" y2="177.22"/><line style="fill:none;stroke:#6d6e71;stroke-width:.5;stroke-linecap:square" x1="39.9" y1="16.25" x2="42.03" y2="16.25"/><text transform="translate(20.76 20.266)" style="font-family:'Asap-Regular';font-size:7px">8,000</text><line style="fill:none;stroke:#ea2728;stroke-width:.5;stroke-linejoin:round" x1="42.59" y1="51.07" x2="280.72" y2="175"/><path style="fill:none;stroke:#263a71;stroke-width:.5;stroke-miterlimit:10" d="M48.57 16.21c21 100.57 123.25 142.85 222.15 147.76"/><line style="fill:none;stroke:#ea2728;stroke-width:.5;stroke-linejoin:round" x1="42.72" y1="31.14" x2="280.52" y2="158.98"/><path style="fill:none;stroke:#5b73b8;stroke-width:.5;stroke-miterlimit:10" d="M69.83 13.64c35.3 93.04 117.72 113.71 207.92 139"/><circle style="fill:#000101" cx="159.92" cy="111.89" r="1.13"/><text transform="translate(186.45 101.102)" style="font-family:'Asap-Regular';font-size:7px">B</text><text transform="translate(152.326 120.67)" style="font-family:'Asap-Regular';font-size:7px">A</text><text transform="translate(45.047 10.74)" style="font-family:'Asap-Regular';font-size:7px">IC</text><text transform="matrix(.583 0 0 .583 51.36 13.072)" style="font-family:'Asap-Regular';font-size:7px">1</text><text transform="translate(67.164 10.74)" style="font-family:'Asap-Regular';font-size:7px">IC</text><text transform="matrix(.583 0 0 .583 73.478 13.071)" style="font-family:'Asap-Regular';font-size:7px">2</text><text transform="translate(102.109 10.74)" style="font-family:'Asap-Regular';font-size:7px">IC</text><text transform="matrix(.583 0 0 .583 108.423 13.071)" style="font-family:'Asap-Regular';font-size:7px">3</text><circle style="fill:#000101" cx="179.53" cy="104.69" r="1.13"/></svg>