<svg version="1.1" xmlns="http://www.w3.org/2000/svg" x="0" y="0" viewBox="0 0 311.81 191.68" style="enable-background:new 0 0 311.81 191.68" xml:space="preserve"><rect x="68.45" y="74.75" style="fill:#ffdcac;stroke:#fbb038;stroke-width:.5;stroke-miterlimit:10" width="58.3" height="31.31"/><rect x="185.06" y="74.75" style="fill:#fcd3c1;stroke:#f15a27;stroke-width:.5;stroke-miterlimit:10" width="58.3" height="31.31"/><rect x="126.75" y="15.36" style="fill:#d5daef;stroke:#3a53a4;stroke-width:.5;stroke-miterlimit:10" width="58.3" height="31.31"/><text transform="translate(135.738 29.516)"><tspan x="0" y="0" style="font-family:'Asap-Regular';font-size:7px">Employment</tspan><tspan x="11.42" y="8.4" style="font-family:'Asap-Medium';font-size:7px">192.5</tspan></text><text transform="translate(200.032 89.451)"><tspan x="0" y="0" style="font-family:'Asap-Regular';font-size:7px">Inactivity</tspan><tspan x="5.99" y="8.4" style="font-family:'Asap-Medium';font-size:7px">109.0</tspan></text><text transform="translate(73.588 89.452)"><tspan x="0" y="0" style="font-family:'Asap-Regular';font-size:7px">Unemployment</tspan><tspan x="19.58" y="8.4" style="font-family:'Asap-Medium';font-size:7px">7.2</tspan></text><polyline style="fill:none;stroke:#273a71;stroke-width:.5;stroke-miterlimit:10" points="74.17 74.75 74.17 19.25 126.21 19.25"/><polygon style="fill:#273a71" points="124.56 21.3 124.21 20.93 126.02 19.25 124.21 17.57 124.56 17.21 126.75 19.25"/><polyline style="fill:none;stroke:#273a71;stroke-width:.5;stroke-miterlimit:10" points="185.6 19.25 237.3 19.25 237.3 74.75"/><polygon style="fill:#273a71" points="187.26 21.3 187.6 20.93 185.79 19.25 187.6 17.57 187.26 17.21 185.06 19.25"/><polyline style="fill:none;stroke:#273a71;stroke-width:.5;stroke-miterlimit:10" points="74.17 106.59 74.17 123.04 237.3 123.04 237.3 106.05"/><polygon style="fill:#273a71" points="72.12 108.25 72.49 108.59 74.17 106.79 75.85 108.59 76.21 108.25 74.17 106.05"/><polyline style="fill:none;stroke:#3a53a4;stroke-width:.5;stroke-miterlimit:10" points="93.52 74.2 93.52 32.97 126.75 32.97"/><polygon style="fill:#3a53a4" points="95.56 72.55 95.2 72.21 93.52 74.01 91.84 72.21 91.47 72.55 93.52 74.75"/><polyline style="fill:none;stroke:#3a53a4;stroke-width:.5;stroke-miterlimit:10" points="216.4 74.2 216.4 32.97 185.02 32.97"/><polygon style="fill:#3a53a4" points="218.44 72.55 218.08 72.21 216.4 74.01 214.72 72.21 214.35 72.55 216.4 74.75"/><polyline style="fill:none;stroke:#fbb038;stroke-width:.5;stroke-miterlimit:10" points="110.14 74.75 110.14 42.16 126.21 42.16"/><polygon style="fill:#fbb038" points="124.56 44.21 124.21 43.84 126.02 42.17 124.21 40.49 124.56 40.12 126.75 42.17"/><line style="fill:none;stroke:#fbb038;stroke-width:.5;stroke-miterlimit:10" x1="126.75" y1="84.45" x2="184.51" y2="84.45"/><polygon style="fill:#fbb038" points="182.86 86.5 182.52 86.13 184.32 84.45 182.52 82.77 182.86 82.41 185.06 84.45"/><polyline style="fill:none;stroke:#f15a27;stroke-width:.5;stroke-miterlimit:10" points="201.68 74.75 201.68 42.16 185.6 42.16"/><polygon style="fill:#f15a27" points="187.26 40.12 187.6 40.49 185.79 42.16 187.6 43.84 187.26 44.21 185.06 42.16"/><line style="fill:none;stroke:#f15a27;stroke-width:.5;stroke-miterlimit:10" x1="127.3" y1="98.24" x2="185.06" y2="98.24"/><polygon style="fill:#f15a27" points="128.95 100.28 129.29 99.92 127.49 98.24 129.29 96.56 128.95 96.2 126.75 98.24"/><rect x="150.95" y="99.56" style="fill:none" width="9.91" height="6.49"/><text transform="translate(151.468 104.82)" style="font-family:'Asap-Regular';font-size:7px">3.8</text><rect x="150.95" y="77.53" style="fill:none" width="9.91" height="6.49"/><text transform="translate(151.468 82.793)" style="font-family:'Asap-Regular';font-size:7px">3.3</text><rect x="111.14" y="56.8" style="fill:none" width="9.91" height="6.49"/><text transform="translate(111.654 62.06)" style="font-family:'Asap-Regular';font-size:7px">3.6</text><rect x="190.8" y="56.8" style="fill:none" width="9.91" height="6.49"/><text transform="translate(191.316 62.06)" style="font-family:'Asap-Regular';font-size:7px">5.4</text><rect x="217.17" y="56.8" style="fill:none" width="9.91" height="6.49"/><text transform="translate(217.692 62.06)" style="font-family:'Asap-Regular';font-size:7px">4.7</text><rect x="83.14" y="56.8" style="fill:none" width="9.91" height="6.49"/><text transform="translate(83.654 62.06)" style="font-family:'Asap-Regular';font-size:7px">2.3</text><text transform="translate(62.375 143.466)"><tspan x="0" y="0" style="font-family:'Asap-Regular';font-size:7px">W</tspan><tspan x="6.03" y="0" style="font-family:'Asap-Regular';font-size:7px">orking-age population = 192.5 + 7.2 + 109.0 = 308.7 million</tspan><tspan x="0" y="10" style="font-family:'Asap-Regular';font-size:7px"> </tspan></text><text transform="translate(85.115 183.472)"><tspan x="0" y="0" style="font-family:'Asap-Regular';font-size:7px">Employment rate = </tspan><tspan x="60.7" y="0" style="font-family:'Asap-Regular';font-size:7px">192.5/308.7 = 62.4%</tspan></text><text transform="translate(76.259 173.47)" style="font-family:'Asap-Regular';font-size:7px">Unemployment rate = 7.2/199.7 = 3.6%</text><text transform="translate(100.545 164.331)" style="font-family:'Asap-Regular';font-size:7px">Activity rate = 199.7/308.7 = 65%</text><text transform="translate(76.84 154.452)" style="font-family:'Asap-Regular';font-size:7px">Active labour force = 192.5 + 7.2 = 199.7 million</text></svg>