<svg version="1.1" xmlns="http://www.w3.org/2000/svg" x="0" y="0" viewBox="0 0 311.81 203.75" style="enable-background:new 0 0 311.81 203.75" xml:space="preserve"><polyline style="fill:#fee6da" points="292.06 175.13 54.56 52.11 54.56 175.13"/><polyline style="fill:none;stroke:#fee6da;stroke-width:.25;stroke-miterlimit:10" points="292.06 175.13 54.56 52.11 54.56 175.13"/><path style="fill:#fee6da" d="M292.06 175.13H54.56"/><path style="fill:none;stroke:#fee6da;stroke-width:.25;stroke-miterlimit:10" d="M292.06 175.13H54.56"/><line style="fill:none;stroke:#6d6e71;stroke-width:.5;stroke-linecap:square" x1="54.97" y1="175.22" x2="292.97" y2="175.22"/><text transform="translate(42.944 177.489)" style="font-family:'Asap-Regular';font-size:7px">0</text><line style="fill:none;stroke:#6d6e71;stroke-width:.5;stroke-linecap:square;stroke-linejoin:round" x1="54.84" y1="16.47" x2="54.84" y2="175.22"/><text transform="translate(33.01 157.51)" style="font-family:'Asap-Regular';font-size:7px">1,000</text><text transform="translate(33.01 137.668)" style="font-family:'Asap-Regular';font-size:7px">2,000</text><text transform="translate(33.01 117.825)" style="font-family:'Asap-Regular';font-size:7px">3,000</text><text transform="translate(33.01 97.983)" style="font-family:'Asap-Regular';font-size:7px">4,000</text><text transform="translate(33.01 78.14)" style="font-family:'Asap-Regular';font-size:7px">5,000</text><text transform="translate(33.01 58.298)" style="font-family:'Asap-Regular';font-size:7px">6,000</text><text transform="matrix(0 -.9726 1 0 16.232 123.875)" style="font-family:'Asap-Medium';font-size:8px">Consumption ($)</text><text transform="translate(52.984 187.547)" style="font-family:'Asap-Regular';font-size:7px">0</text><text transform="translate(69.992 187.54)" style="font-family:'Asap-Regular';font-size:7px">5</text><text transform="translate(85.127 187.547)" style="font-family:'Asap-Regular';font-size:7px">10</text><text transform="translate(102.135 187.519)" style="font-family:'Asap-Regular';font-size:7px">15</text><text transform="translate(119.143 187.547)" style="font-family:'Asap-Regular';font-size:7px">20</text><text transform="translate(136.151 187.547)" style="font-family:'Asap-Regular';font-size:7px">25</text><text transform="translate(153.158 187.518)" style="font-family:'Asap-Regular';font-size:7px">30</text><text transform="translate(170.167 187.518)" style="font-family:'Asap-Regular';font-size:7px">35</text><text transform="translate(187.175 187.518)" style="font-family:'Asap-Regular';font-size:7px">40</text><text transform="translate(204.183 187.519)" style="font-family:'Asap-Regular';font-size:7px">45</text><text transform="translate(221.19 187.547)" style="font-family:'Asap-Regular';font-size:7px">50</text><text transform="translate(238.198 187.539)" style="font-family:'Asap-Regular';font-size:7px">55</text><text transform="translate(255.206 187.547)" style="font-family:'Asap-Regular';font-size:7px">60</text><text transform="translate(272.214 187.547)" style="font-family:'Asap-Regular';font-size:7px">65</text><text transform="translate(289.222 187.547)" style="font-family:'Asap-Regular';font-size:7px">70</text><text transform="translate(139.862 200.728)" style="font-family:'Asap-Medium';font-size:8px">Days of free time</text><text transform="translate(33.01 38.455)" style="font-family:'Asap-Regular';font-size:7px">7,000</text><line style="fill:none;stroke:#6d6e71;stroke-width:.5;stroke-linecap:square" x1="52.09" y1="175.34" x2="54.22" y2="175.34"/><line style="fill:none;stroke:#6d6e71;stroke-width:.5;stroke-linecap:square" x1="52.09" y1="155.37" x2="54.22" y2="155.37"/><line style="fill:none;stroke:#6d6e71;stroke-width:.5;stroke-linecap:square" x1="52.09" y1="135.52" x2="54.22" y2="135.52"/><line style="fill:none;stroke:#6d6e71;stroke-width:.5;stroke-linecap:square" x1="52.09" y1="115.68" x2="54.22" y2="115.68"/><line style="fill:none;stroke:#6d6e71;stroke-width:.5;stroke-linecap:square" x1="52.09" y1="95.84" x2="54.22" y2="95.84"/><line style="fill:none;stroke:#6d6e71;stroke-width:.5;stroke-linecap:square" x1="52.09" y1="76" x2="54.22" y2="76"/><line style="fill:none;stroke:#6d6e71;stroke-width:.5;stroke-linecap:square" x1="52.09" y1="56.15" x2="54.22" y2="56.15"/><line style="fill:none;stroke:#6d6e71;stroke-width:.5;stroke-linecap:square" x1="52.09" y1="36.31" x2="54.22" y2="36.31"/><line style="fill:none;stroke:#6d6e71;stroke-width:.5;stroke-linecap:square" x1="54.97" y1="175.31" x2="54.97" y2="177.44"/><line style="fill:none;stroke:#6d6e71;stroke-width:.5;stroke-linecap:square" x1="71.86" y1="175.31" x2="71.86" y2="177.44"/><line style="fill:none;stroke:#6d6e71;stroke-width:.5;stroke-linecap:square" x1="88.87" y1="175.31" x2="88.87" y2="177.44"/><line style="fill:none;stroke:#6d6e71;stroke-width:.5;stroke-linecap:square" x1="105.88" y1="175.31" x2="105.88" y2="177.44"/><line style="fill:none;stroke:#6d6e71;stroke-width:.5;stroke-linecap:square" x1="122.89" y1="175.31" x2="122.89" y2="177.44"/><line style="fill:none;stroke:#6d6e71;stroke-width:.5;stroke-linecap:square" x1="139.9" y1="175.31" x2="139.9" y2="177.44"/><line style="fill:none;stroke:#6d6e71;stroke-width:.5;stroke-linecap:square" x1="156.9" y1="177.44" x2="156.9" y2="175.31"/><line style="fill:none;stroke:#6d6e71;stroke-width:.5;stroke-linecap:square" x1="173.91" y1="175.31" x2="173.91" y2="177.44"/><line style="fill:none;stroke:#6d6e71;stroke-width:.5;stroke-linecap:square" x1="190.92" y1="175.31" x2="190.92" y2="177.44"/><line style="fill:none;stroke:#6d6e71;stroke-width:.5;stroke-linecap:square" x1="207.93" y1="175.31" x2="207.93" y2="177.44"/><line style="fill:none;stroke:#6d6e71;stroke-width:.5;stroke-linecap:square" x1="224.94" y1="175.31" x2="224.94" y2="177.44"/><line style="fill:none;stroke:#6d6e71;stroke-width:.5;stroke-linecap:square" x1="241.94" y1="175.31" x2="241.94" y2="177.44"/><line style="fill:none;stroke:#6d6e71;stroke-width:.5;stroke-linecap:square" x1="258.95" y1="175.31" x2="258.95" y2="177.44"/><line style="fill:none;stroke:#6d6e71;stroke-width:.5;stroke-linecap:square" x1="275.96" y1="175.31" x2="275.96" y2="177.44"/><line style="fill:none;stroke:#6d6e71;stroke-width:.5;stroke-linecap:square" x1="292.97" y1="175.31" x2="292.97" y2="177.44"/><line style="fill:none;stroke:#6d6e71;stroke-width:.5;stroke-linecap:square" x1="52.15" y1="16.47" x2="54.28" y2="16.47"/><text transform="translate(33.01 19.483)" style="font-family:'Asap-Regular';font-size:7px">8,000</text><line style="fill:none;stroke:#ea2728;stroke-width:.5;stroke-linejoin:round" x1="82.12" y1="18.32" x2="292.97" y2="175.22"/><line style="fill:none;stroke:#ea2728;stroke-width:.5;stroke-linejoin:round" x1="54.97" y1="52.23" x2="292.97" y2="175.22"/><path style="fill:none;stroke:#5b73b8;stroke-width:.5;stroke-linejoin:round" d="M78.54 17.68c31.23 72.31 109.27 115.05 215.42 133.95M102.41 16.47C136.5 73.2 216.96 118.66 292.96 134.75"/><circle style="fill:#000101" cx="155.87" cy="73.2" r="1.13"/><text transform="translate(160.376 70.135)" style="font-family:'Asap-Regular';font-size:7px">D</text><text transform="translate(158.246 120.234)" style="font-family:'Asap-Regular';font-size:7px">A</text><text transform="translate(74.666 10.164)" style="font-family:'Asap-Regular';font-size:7px">IC</text><text transform="matrix(.583 0 0 .583 80.98 12.495)" style="font-family:'Asap-Regular';font-size:7px">2</text><text transform="translate(97.56 10.164)" style="font-family:'Asap-Regular';font-size:7px">IC</text><text transform="matrix(.583 0 0 .583 103.873 12.495)" style="font-family:'Asap-Medium';font-size:7px">4</text><line style="fill:none" x1="57.73" y1="26.42" x2="296.73" y2="150.84"/><circle style="fill:#000101" cx="166.91" cy="110.17" r="1.13"/></svg>