<svg version="1.1" xmlns="http://www.w3.org/2000/svg" x="0" y="0" viewBox="0 0 311.81 182" style="enable-background:new 0 0 311.81 182" xml:space="preserve"><line style="fill:none;stroke:#6d6e71;stroke-width:.5;stroke-linecap:square;stroke-linejoin:round" x1="46.57" y1="4.3" x2="44.45" y2="4.3"/><line style="fill:none;stroke:#6d6e71;stroke-width:.5;stroke-linecap:square;stroke-linejoin:round" x1="46.57" y1="70.97" x2="44.45" y2="70.97"/><line style="fill:none;stroke:#6d6e71;stroke-width:.5;stroke-linecap:square;stroke-linejoin:round" x1="46.57" y1="87.63" x2="44.45" y2="87.63"/><line style="fill:none;stroke:#6d6e71;stroke-width:.5;stroke-linecap:square;stroke-linejoin:round" x1="46.57" y1="137.63" x2="44.45" y2="137.63"/><line style="fill:none;stroke:#6d6e71;stroke-width:.5;stroke-linecap:square;stroke-linejoin:round" x1="46.57" y1="154.3" x2="44.45" y2="154.3"/><line style="fill:none;stroke:#6d6e71;stroke-width:.5;stroke-linecap:square;stroke-linejoin:round" x1="46.74" y1="154.3" x2="46.74" y2="4.3"/><line style="fill:none;stroke:#6d6e71;stroke-width:.5;stroke-linecap:square;stroke-linejoin:round" x1="295.19" y1="154.63" x2="295.19" y2="156.76"/><line style="fill:none;stroke:#6d6e71;stroke-width:.5;stroke-linecap:square;stroke-linejoin:round" x1="270.58" y1="154.63" x2="270.58" y2="156.76"/><line style="fill:none;stroke:#6d6e71;stroke-width:.5;stroke-linecap:square;stroke-linejoin:round" x1="245.5" y1="154.63" x2="245.5" y2="156.76"/><line style="fill:none;stroke:#6d6e71;stroke-width:.5;stroke-linecap:square;stroke-linejoin:round" x1="220.89" y1="154.63" x2="220.89" y2="156.76"/><line style="fill:none;stroke:#6d6e71;stroke-width:.5;stroke-linecap:square;stroke-linejoin:round" x1="195.81" y1="154.63" x2="195.81" y2="156.76"/><line style="fill:none;stroke:#6d6e71;stroke-width:.5;stroke-linecap:square;stroke-linejoin:round" x1="171.2" y1="154.63" x2="171.2" y2="156.76"/><line style="fill:none;stroke:#6d6e71;stroke-width:.5;stroke-linecap:square;stroke-linejoin:round" x1="146.12" y1="154.63" x2="146.12" y2="156.76"/><line style="fill:none;stroke:#6d6e71;stroke-width:.5;stroke-linecap:square;stroke-linejoin:round" x1="121.04" y1="154.63" x2="121.04" y2="156.76"/><line style="fill:none;stroke:#6d6e71;stroke-width:.5;stroke-linecap:square;stroke-linejoin:round" x1="96.43" y1="154.63" x2="96.43" y2="156.76"/><line style="fill:none;stroke:#6d6e71;stroke-width:.5;stroke-linecap:square;stroke-linejoin:round" x1="71.35" y1="154.63" x2="71.35" y2="156.76"/><line style="fill:none;stroke:#6d6e71;stroke-width:.5;stroke-linecap:square;stroke-linejoin:round" x1="46.74" y1="154.63" x2="46.74" y2="156.76"/><line style="fill:none;stroke:#6d6e71;stroke-width:.5;stroke-linecap:square;stroke-linejoin:round" x1="46.74" y1="154.3" x2="295.19" y2="154.3"/><text transform="translate(44.653 165.676)" style="font-family:'Asap-Regular';font-size:7px">0</text><rect x="44.06" y="158.25" style="fill:none" width="5.29" height="9.75"/><text transform="translate(58.906 165.676)" style="font-family:'Asap-Regular';font-size:7px">10,000</text><text transform="translate(84.906 165.676)" style="font-family:'Asap-Regular';font-size:7px">20,000</text><line style="fill:none;stroke:#6d6e71;stroke-width:.5;stroke-linecap:square;stroke-linejoin:round" x1="46.57" y1="120.97" x2="44.45" y2="120.97"/><line style="fill:none;stroke:#6d6e71;stroke-width:.5;stroke-linecap:square;stroke-linejoin:round" x1="46.57" y1="104.3" x2="44.45" y2="104.3"/><line style="fill:none;stroke:#6d6e71;stroke-width:.5;stroke-linecap:square;stroke-linejoin:round" x1="46.57" y1="54.3" x2="44.45" y2="54.3"/><line style="fill:none;stroke:#6d6e71;stroke-width:.5;stroke-linecap:square;stroke-linejoin:round" x1="46.57" y1="37.63" x2="44.45" y2="37.63"/><line style="fill:none;stroke:#6d6e71;stroke-width:.5;stroke-linecap:square;stroke-linejoin:round" x1="46.57" y1="20.97" x2="44.45" y2="20.97"/><text transform="translate(109.906 165.676)" style="font-family:'Asap-Regular';font-size:7px">30,000</text><text transform="translate(134.906 165.676)" style="font-family:'Asap-Regular';font-size:7px">40,000</text><text transform="translate(159.906 165.676)" style="font-family:'Asap-Regular';font-size:7px">50,000</text><text transform="translate(184.906 165.676)" style="font-family:'Asap-Regular';font-size:7px">60,000</text><text transform="translate(209.906 165.676)" style="font-family:'Asap-Regular';font-size:7px">70,000</text><text transform="translate(234.906 165.676)" style="font-family:'Asap-Regular';font-size:7px">80,000</text><text transform="translate(259.906 165.676)" style="font-family:'Asap-Regular';font-size:7px">90,000</text><text transform="translate(284.906 165.676)" style="font-family:'Asap-Regular';font-size:7px">100,000</text><text transform="rotate(-90 52.061 40.889)" style="font-family:'Asap-Medium';font-size:8px">Costs ($)</text><text transform="translate(35.361 156.852)" style="font-family:'Asap-Regular';font-size:7px">0</text><text transform="translate(27.695 140.245)" style="font-family:'Asap-Regular';font-size:7px">100</text><text transform="translate(27.695 124.245)" style="font-family:'Asap-Regular';font-size:7px">200</text><text transform="translate(27.695 107.245)" style="font-family:'Asap-Regular';font-size:7px">300</text><text transform="translate(27.695 89.245)" style="font-family:'Asap-Regular';font-size:7px">400</text><text transform="translate(27.695 73.245)" style="font-family:'Asap-Regular';font-size:7px">500</text><text transform="translate(27.695 56.245)" style="font-family:'Asap-Regular';font-size:7px">600</text><text transform="translate(27.695 40.245)" style="font-family:'Asap-Regular';font-size:7px">700</text><text transform="translate(27.695 23.245)" style="font-family:'Asap-Regular';font-size:7px">800</text><text transform="translate(27.695 7.245)" style="font-family:'Asap-Regular';font-size:7px">900</text><text transform="translate(280.906 15.5)" style="font-family:'Asap-Regular';font-size:6px">MSC</text><text transform="translate(280.906 75.906)" style="font-family:'Asap-Regular';font-size:6px">MPC</text><text transform="translate(56.491 84.302)" style="font-family:'Asap-Regular';font-size:6px">Price</text><text transform="translate(137.554 83.302)" style="font-family:'Asap-Regular';font-size:6px">B</text><text transform="translate(247.576 94.519)" style="font-family:'Asap-Regular';font-size:6px">A</text><line style="fill:none;stroke:#939598;stroke-width:.5;stroke-linecap:square;stroke-linejoin:round" x1="146.12" y1="103.06" x2="146.12" y2="88.87"/><polygon style="fill:#939598" points="148.17 101.41 147.8 101.07 146.12 102.87 144.44 101.07 144.08 101.41 146.12 103.61"/><polygon style="fill:#939598" points="148.17 90.52 147.8 90.87 146.12 89.06 144.44 90.87 144.08 90.52 146.12 88.32"/><path style="fill:none;stroke:#39b54a;stroke-width:.5;stroke-linejoin:round" d="M294.25 17.85c-75.56 44.54-161.54 78.91-247.5 96.36"/><path style="fill:none;stroke:#b9519e;stroke-width:.5;stroke-linejoin:round" d="M295.18 79.11c-81.34 13.63-167.41 28.27-248.55 41.86"/><line style="fill:none;stroke:#000;stroke-width:.5;stroke-linecap:square" x1="46.57" y1="87.63" x2="295.19" y2="87.63"/><line style="fill:none;stroke:#000;stroke-width:.5;stroke-linecap:square" x1="46.89" y1="104.3" x2="295.51" y2="104.3"/><text transform="translate(149.504 97.452)" style="font-family:'Asap-Regular';font-size:6px">Tax</text><text transform="translate(206.59 112.317)" style="font-family:'Asap-Regular';font-size:6px">After-tax price for plantations</text><text transform="translate(104.143 179.143)"><tspan x="0" y="0" style="font-family:'Asap-Medium';font-size:8px">Quantity of bananas, </tspan><tspan x="74.9" y="0" style="font-family:'Asap-MediumItalic';font-size:8px">Q</tspan><tspan x="80.75" y="0" style="font-family:'Asap-Medium';font-size:8px"> (tons per year)</tspan></text><line style="fill:none;stroke:#888;stroke-width:.5;stroke-miterlimit:10;stroke-dasharray:1.4173" x1="141.12" y1="87.63" x2="141.12" y2="154.3"/><line style="fill:none;stroke:#888;stroke-width:.5;stroke-miterlimit:10;stroke-dasharray:1.4173" x1="245.5" y1="44.44" x2="245.5" y2="154.3"/><path d="M245.5 88.48c-.62 0-1.13-.51-1.13-1.13 0-.62.51-1.13 1.13-1.13.62 0 1.13.51 1.13 1.13 0 .62-.51 1.13-1.13 1.13zM141.12 88.48c-.62 0-1.13-.51-1.13-1.13 0-.62.51-1.13 1.13-1.13.62 0 1.13.51 1.13 1.13 0 .62-.51 1.13-1.13 1.13z"/></svg>