<svg version="1.1" xmlns="http://www.w3.org/2000/svg" xmlns:xlink="http://www.w3.org/1999/xlink" x="0" y="0" viewBox="0 0 311.81 203.75" style="enable-background:new 0 0 311.81 203.75" xml:space="preserve"><g style="display:none"><g style="display:inline"><polygon style="fill-rule:evenodd;clip-rule:evenodd;fill:#fff" points="-106.27 124.5 418.25 124.5 418.25 518.7 -106.27 518.7 -106.27 124.5"/><defs><polygon id="prefix__a" points="-106.27 518.7 418.13 518.7 418.13 124.5 -106.27 124.5 -106.27 518.7"/></defs><defs><polygon id="prefix__b" points="-106.27 518.7 418.13 518.7 418.13 124.5 -106.27 124.5 -106.27 518.7"/></defs><defs><polygon id="prefix__c" points="-106.27 518.7 418.13 518.7 418.13 124.5 -106.27 124.5 -106.27 518.7"/></defs><defs><polygon id="prefix__d" points="-106.27 518.7 418.13 518.7 418.13 124.5 -106.27 124.5 -106.27 518.7"/></defs><defs><polygon id="prefix__e" points="-40.63 466.98 401.81 466.98 401.81 136.86 -40.63 136.86 -40.63 466.98"/></defs><defs><polygon id="prefix__f" points="-40.63 466.98 401.81 466.98 401.81 136.86 -40.63 136.86 -40.63 466.98"/></defs><defs><polygon id="prefix__g" points="-40.63 466.98 401.81 466.98 401.81 136.86 -40.63 136.86 -40.63 466.98"/></defs><clipPath id="prefix__h"><use xlink:href="#prefix__g" style="overflow:visible"/></clipPath><path d="M-40.63-237.06l6.36 190.2 6.24 53.4 6.36 36.6 6.36 28.44 6.24 23.52 6.36 20.16 6.24 17.64 6.36 15.6 6.24 14.16 6.36 12.96 6.36 11.76 6.24 10.92 6.36 10.2 6.24 9.48 6.36 8.88 6.36 8.28 6.24 7.92 6.36 7.44 6.24 7.08 6.36 6.72 6.36 6.36 6.24 6 6.36 5.88 6.24 5.52 6.36 5.28 6.36 5.16 6.24 4.92 6.36 4.68 6.24 4.56 6.36 4.32 6.24 4.2 6.36 4.08m6.36 3.84l6.24 3.72 6.36 3.72 6.24 3.48 6.36 3.48 6.36 3.24 6.24 3.24 6.36 3 6.24 3 6.36 3 6.36 2.76 6.24 2.76 6.36 2.64 6.24 2.64 6.36 2.52 6.36 2.4 6.24 2.4 6.36 2.28 6.24 2.28 6.36 2.16 6.24 2.16 6.36 2.04 6.36 2.04 6.24 1.92 6.36 1.92 6.24 1.8 6.36 1.8 6.36 1.8 6.24 1.68 6.36 1.68 6.24 1.68 6.36 1.56 6.36 1.56 6.24 1.56 6.36 1.44 6.24 1.44 6.36 1.44 6.36 1.32"/><defs><polygon id="prefix__i" points="-106.27 518.7 418.13 518.7 418.13 124.5 -106.27 124.5 -106.27 518.7"/></defs><defs><polygon id="prefix__j" points="-40.63 466.98 401.81 466.98 401.81 136.86 -40.63 136.86 -40.63 466.98"/></defs><clipPath id="prefix__k"><use xlink:href="#prefix__j" style="overflow:visible"/></clipPath><polyline points="-40.63 91.62 -34.27 96.9 -28.03 102.3 -21.67 107.7 -15.31 112.98 -9.07 118.38 -2.71 123.66 3.53 129.06 9.89 134.46 16.13 139.74 22.49 145.14 28.85 150.42 35.09 155.82 41.45 161.22 47.69 166.5 54.05 171.9 60.41 177.18 66.65 182.58 73.01 187.98 79.25 193.26 85.61 198.66 91.97 203.94 98.21 209.34 104.57 214.74 110.81 220.02 117.17 225.42 123.53 230.82 129.77 236.1 136.13 241.5 142.37 246.78 148.73 252.18 154.97 257.58 161.33 262.86 167.69 268.26 173.93 273.54 180.29 278.94 186.53 284.34 192.89 289.62 199.25 295.02 205.49 300.3 211.85 305.7 218.09 311.1 224.45 316.38 230.81 321.78 237.05 327.06 243.41 332.46 249.65 337.86 256.01 343.14 262.37 348.54 268.61 353.82 274.97 359.22 281.21 364.62 287.57 369.9 293.81 375.3 300.17 380.7 306.53 385.98 312.77 391.38 319.13 396.66 325.37 402.06 331.73 407.46 338.09 412.74 344.33 418.14 350.69 423.42 356.93 428.82 363.29 434.22 369.65 439.5 375.89 444.9 382.25 450.18 388.49 455.58 394.85 460.98 401.21 466.26"/><defs><polygon id="prefix__l" points="-40.63 466.98 401.81 466.98 401.81 136.86 -40.63 136.86 -40.63 466.98"/></defs><clipPath id="prefix__m"><use xlink:href="#prefix__l" style="overflow:visible"/></clipPath><polyline points="-40.63 -393.06 -34.27 -176.94 -28.03 -115.74 -21.67 -73.38 -15.31 -40.38 -9.07 -13.02 -2.71 10.5 3.53 31.02 9.89 49.5 16.13 66.18 22.49 81.42 28.85 95.46 35.09 108.42 41.45 120.54 47.69 131.82 54.05 142.38 60.41 152.46 66.65 161.94 73.01 170.82 79.25 179.46 85.61 187.5 91.97 195.3 98.21 202.62 104.57 209.82 110.81 216.54 117.17 223.02 123.53 229.38 129.77 235.38 136.13 241.14 142.37 246.78 148.73 252.18 154.97 257.34 161.33 262.38 167.69 267.3 173.93 271.98 180.29 276.54 186.53 280.98 192.89 285.3 199.25 289.5 205.49 293.58 211.85 297.42 218.09 301.26 224.45 304.98 230.81 308.58 237.05 312.06 243.41 315.54 249.65 318.78 256.01 322.02 262.37 325.26 268.61 328.26 274.97 331.26 281.21 334.26 287.57 337.14 293.81 339.9 300.17 342.54 306.53 345.18 312.77 347.82 319.13 350.34 325.37 352.86 331.73 355.26 338.09 357.54 344.33 359.94 350.69 362.1 356.93 364.38 363.29 366.54 369.65 368.58 375.89 370.62 382.25 372.66 388.49 374.7 394.85 376.62 401.21 378.54"/><defs><polygon id="prefix__n" points="-106.27 518.7 418.13 518.7 418.13 124.5 -106.27 124.5 -106.27 518.7"/></defs><defs><polygon id="prefix__o" points="-40.63 466.98 401.81 466.98 401.81 136.86 -40.63 136.86 -40.63 466.98"/></defs><defs><polygon id="prefix__p" points="-40.63 466.98 401.81 466.98 401.81 136.86 -40.63 136.86 -40.63 466.98"/></defs><clipPath id="prefix__q"><use xlink:href="#prefix__p" style="overflow:visible"/></clipPath><path d="M-40.63 149.34l6.36 3.72 6.24 3.72 6.36 3.72 6.36 3.72 6.24 3.6 6.36 3.72 6.24 3.72 6.36 3.72 6.24 3.72 6.36 3.72 6.36 3.72 6.24 3.72 6.36 3.72 6.24 3.6 6.36 3.72 6.36 3.72 6.24 3.72 6.36 3.72 6.24 3.72 6.36 3.72 6.36 3.72 6.24 3.6 6.36 3.72 6.24 3.72 6.36 3.72 6.36 3.72 6.24 3.72 6.36 3.72 6.24 3.72 6.36 3.6 6.24 3.72 6.36 3.72 6.36 3.72 6.24 3.72 6.36 3.72 6.24 3.72 6.36 3.72 6.36 3.72 6.24 3.6 6.36 3.72 6.24 3.72m6.36 3.72l6.36 3.72 6.24 3.72 6.36 3.72 6.24 3.72 6.36 3.6 6.36 3.72 6.24 3.72 6.36 3.72 6.24 3.72 6.36 3.72 6.24 3.72 6.36 3.72 6.36 3.72 6.24 3.6 6.36 3.72 6.24 3.72 6.36 3.72 6.36 3.72 6.24 3.72 6.36 3.72 6.24 3.72 6.36 3.6 6.36 3.72 6.24 3.72 6.36 3.72 6.24 3.72 6.36 3.72 6.36 3.72"/><defs><polygon id="prefix__r" points="-106.27 518.7 418.13 518.7 418.13 124.5 -106.27 124.5 -106.27 518.7"/></defs><defs><polygon id="prefix__s" points="-106.27 518.7 418.13 518.7 418.13 124.5 -106.27 124.5 -106.27 518.7"/></defs><clipPath id="prefix__t"><use xlink:href="#prefix__s" style="overflow:visible"/></clipPath><defs><rect id="prefix__u" x="-106.27" y="124.5" width="524.4" height="394.2"/></defs><defs><polygon id="prefix__v" points="-106.27 518.7 418.13 518.7 418.13 124.5 -106.27 124.5 -106.27 518.7"/></defs><clipPath id="prefix__w"><use xlink:href="#prefix__v" style="overflow:visible"/></clipPath><defs><rect id="prefix__x" x="-106.27" y="124.5" width="524.4" height="394.2"/></defs><defs><polygon id="prefix__y" points="-106.27 518.7 418.13 518.7 418.13 124.5 -106.27 124.5 -106.27 518.7"/></defs><clipPath id="prefix__z"><use xlink:href="#prefix__y" style="overflow:visible"/></clipPath><defs><rect id="prefix__A" x="-106.27" y="124.5" width="524.4" height="394.2"/></defs><defs><polygon id="prefix__B" points="-106.27 518.7 418.13 518.7 418.13 124.5 -106.27 124.5 -106.27 518.7"/></defs><clipPath id="prefix__C"><use xlink:href="#prefix__B" style="overflow:visible"/></clipPath><defs><rect id="prefix__D" x="-106.27" y="124.5" width="524.4" height="394.2"/></defs><defs><polygon id="prefix__E" points="-106.27 518.7 418.13 518.7 418.13 124.5 -106.27 124.5 -106.27 518.7"/></defs><clipPath id="prefix__F"><use xlink:href="#prefix__E" style="overflow:visible"/></clipPath><defs><rect id="prefix__G" x="-106.27" y="124.5" width="524.4" height="394.2"/></defs><defs><polygon id="prefix__H" points="-106.27 518.7 418.13 518.7 418.13 124.5 -106.27 124.5 -106.27 518.7"/></defs><clipPath id="prefix__I"><use xlink:href="#prefix__H" style="overflow:visible"/></clipPath><defs><rect id="prefix__J" x="-106.27" y="124.5" width="524.4" height="394.2"/></defs><defs><polygon id="prefix__K" points="-106.27 518.7 418.13 518.7 418.13 124.5 -106.27 124.5 -106.27 518.7"/></defs><clipPath id="prefix__L"><use xlink:href="#prefix__K" style="overflow:visible"/></clipPath><defs><rect id="prefix__M" x="-106.27" y="124.5" width="524.4" height="394.2"/></defs><g><defs><polygon id="prefix__N" points="-106.27 518.7 418.13 518.7 418.13 124.5 -106.27 124.5 -106.27 518.7"/></defs><clipPath id="prefix__O"><use xlink:href="#prefix__N" style="overflow:visible"/></clipPath><defs><rect id="prefix__P" x="-106.27" y="124.5" width="524.4" height="394.2"/></defs></g><g><defs><polygon id="prefix__Q" points="-106.27 518.7 418.13 518.7 418.13 124.5 -106.27 124.5 -106.27 518.7"/></defs><clipPath id="prefix__R"><use xlink:href="#prefix__Q" style="overflow:visible"/></clipPath><defs><rect id="prefix__S" x="-106.27" y="124.5" width="524.4" height="394.2"/></defs></g><g><defs><polygon id="prefix__T" points="-106.27 518.7 418.13 518.7 418.13 124.5 -106.27 124.5 -106.27 518.7"/></defs><clipPath id="prefix__U"><use xlink:href="#prefix__T" style="overflow:visible"/></clipPath><defs><rect id="prefix__V" x="-106.27" y="124.5" width="524.4" height="394.2"/></defs></g><g><defs><polygon id="prefix__W" points="-106.27 518.7 418.13 518.7 418.13 124.5 -106.27 124.5 -106.27 518.7"/></defs><clipPath id="prefix__X"><use xlink:href="#prefix__W" style="overflow:visible"/></clipPath><defs><rect id="prefix__Y" x="-106.27" y="124.5" width="524.4" height="394.2"/></defs></g><g><defs><polygon id="prefix__Z" points="-106.27 518.7 418.13 518.7 418.13 124.5 -106.27 124.5 -106.27 518.7"/></defs><clipPath id="prefix__aa"><use xlink:href="#prefix__Z" style="overflow:visible"/></clipPath><defs><rect id="prefix__ab" x="-106.27" y="124.5" width="524.4" height="394.2"/></defs></g><g><defs><polygon id="prefix__ac" points="-106.27 518.7 418.13 518.7 418.13 124.5 -106.27 124.5 -106.27 518.7"/></defs><clipPath id="prefix__ad"><use xlink:href="#prefix__ac" style="overflow:visible"/></clipPath><defs><rect id="prefix__ae" x="-106.27" y="124.5" width="524.4" height="394.2"/></defs></g><g><defs><polygon id="prefix__af" points="-106.27 518.7 418.13 518.7 418.13 124.5 -106.27 124.5 -106.27 518.7"/></defs><clipPath id="prefix__ag"><use xlink:href="#prefix__af" style="overflow:visible"/></clipPath><defs><rect id="prefix__ah" x="-106.27" y="124.5" width="524.4" height="394.2"/></defs></g><g><defs><polygon id="prefix__ai" points="-106.27 518.7 418.13 518.7 418.13 124.5 -106.27 124.5 -106.27 518.7"/></defs><clipPath id="prefix__aj"><use xlink:href="#prefix__ai" style="overflow:visible"/></clipPath><defs><rect id="prefix__ak" x="-106.27" y="124.5" width="524.4" height="394.2"/></defs></g><g><defs><polygon id="prefix__al" points="-106.27 518.7 418.13 518.7 418.13 124.5 -106.27 124.5 -106.27 518.7"/></defs><clipPath id="prefix__am"><use xlink:href="#prefix__al" style="overflow:visible"/></clipPath><defs><rect id="prefix__an" x="-106.27" y="124.5" width="524.4" height="394.2"/></defs></g><g><defs><polygon id="prefix__ao" points="-106.27 518.7 418.13 518.7 418.13 124.5 -106.27 124.5 -106.27 518.7"/></defs><clipPath id="prefix__ap"><use xlink:href="#prefix__ao" style="overflow:visible"/></clipPath><defs><rect id="prefix__aq" x="-106.27" y="124.5" width="524.4" height="394.2"/></defs></g><g><defs><polygon id="prefix__ar" points="-106.27 518.7 418.13 518.7 418.13 124.5 -106.27 124.5 -106.27 518.7"/></defs><clipPath id="prefix__as"><use xlink:href="#prefix__ar" style="overflow:visible"/></clipPath><defs><rect id="prefix__at" x="-106.27" y="124.5" width="524.4" height="394.2"/></defs></g><g><defs><polygon id="prefix__au" points="-106.27 518.7 418.13 518.7 418.13 124.5 -106.27 124.5 -106.27 518.7"/></defs><clipPath id="prefix__av"><use xlink:href="#prefix__au" style="overflow:visible"/></clipPath><defs><rect id="prefix__aw" x="-106.27" y="124.5" width="524.4" height="394.2"/></defs></g><g><defs><polygon id="prefix__ax" points="-106.27 518.7 418.13 518.7 418.13 124.5 -106.27 124.5 -106.27 518.7"/></defs><clipPath id="prefix__ay"><use xlink:href="#prefix__ax" style="overflow:visible"/></clipPath><defs><rect id="prefix__az" x="-106.27" y="124.5" width="524.4" height="394.2"/></defs></g><g><defs><polygon id="prefix__aA" points="-106.27 518.7 418.13 518.7 418.13 124.5 -106.27 124.5 -106.27 518.7"/></defs><clipPath id="prefix__aB"><use xlink:href="#prefix__aA" style="overflow:visible"/></clipPath><defs><rect id="prefix__aC" x="-106.27" y="124.5" width="524.4" height="394.2"/></defs></g><g><defs><polygon id="prefix__aD" points="-106.27 518.7 418.13 518.7 418.13 124.5 -106.27 124.5 -106.27 518.7"/></defs><clipPath id="prefix__aE"><use xlink:href="#prefix__aD" style="overflow:visible"/></clipPath><defs><rect id="prefix__aF" x="-106.27" y="124.5" width="524.4" height="394.2"/></defs></g><g><defs><polygon id="prefix__aG" points="-106.27 518.7 418.13 518.7 418.13 124.5 -106.27 124.5 -106.27 518.7"/></defs><clipPath id="prefix__aH"><use xlink:href="#prefix__aG" style="overflow:visible"/></clipPath><defs><rect id="prefix__aI" x="-106.27" y="124.5" width="524.4" height="394.2"/></defs></g><g><defs><polygon id="prefix__aJ" points="-106.27 518.7 418.13 518.7 418.13 124.5 -106.27 124.5 -106.27 518.7"/></defs><clipPath id="prefix__aK"><use xlink:href="#prefix__aJ" style="overflow:visible"/></clipPath><defs><rect id="prefix__aL" x="-106.27" y="124.5" width="524.4" height="394.2"/></defs></g><g><defs><polygon id="prefix__aM" points="-106.27 518.7 418.13 518.7 418.13 124.5 -106.27 124.5 -106.27 518.7"/></defs><clipPath id="prefix__aN"><use xlink:href="#prefix__aM" style="overflow:visible"/></clipPath><defs><rect id="prefix__aO" x="-106.27" y="124.5" width="524.4" height="394.2"/></defs></g><g><defs><polygon id="prefix__aP" points="-106.27 518.7 418.13 518.7 418.13 124.5 -106.27 124.5 -106.27 518.7"/></defs><clipPath id="prefix__aQ"><use xlink:href="#prefix__aP" style="overflow:visible"/></clipPath><defs><rect id="prefix__aR" x="-106.27" y="124.5" width="524.4" height="394.2"/></defs></g><g><defs><polygon id="prefix__aS" points="-106.63 519.06 418.61 519.06 418.61 124.14 -106.63 124.14 -106.63 519.06"/></defs><clipPath id="prefix__aT"><use xlink:href="#prefix__aS" style="overflow:visible"/></clipPath><polygon points="-106.27 124.5 418.25 124.5 418.25 518.7 -106.27 518.7 -106.27 124.5"/></g><g><defs><polygon id="prefix__aU" points="-106.27 518.82 418.25 518.82 418.25 124.5 -106.27 124.5 -106.27 518.82"/></defs><clipPath id="prefix__aV"><use xlink:href="#prefix__aU" style="overflow:visible"/></clipPath><defs><rect id="prefix__aW" x="-106.27" y="124.5" width="524.52" height="394.32"/></defs></g></g></g><polyline style="fill:#fee6da" points="292.06 175.13 54.56 52.11 54.56 175.13"/><polyline style="fill:none;stroke:#fee6da;stroke-width:.25;stroke-miterlimit:10" points="292.06 175.13 54.56 52.11 54.56 175.13"/><path style="fill:#fee6da" d="M292.06 175.13H54.56"/><path style="fill:none;stroke:#fee6da;stroke-width:.25;stroke-miterlimit:10" d="M292.06 175.13H54.56"/><line style="fill:none;stroke:#6d6e71;stroke-width:.5;stroke-linecap:square" x1="54.97" y1="175.22" x2="292.97" y2="175.22"/><text transform="translate(42.944 177.489)" style="font-family:'Asap-Regular';font-size:7px">0</text><line style="fill:none;stroke:#6d6e71;stroke-width:.5;stroke-linecap:square;stroke-linejoin:round" x1="54.84" y1="16.47" x2="54.84" y2="175.22"/><text transform="translate(33.01 157.51)" style="font-family:'Asap-Regular';font-size:7px">1,000</text><text transform="translate(33.01 137.668)" style="font-family:'Asap-Regular';font-size:7px">2,000</text><text transform="translate(33.01 117.825)" style="font-family:'Asap-Regular';font-size:7px">3,000</text><text transform="translate(33.01 97.983)" style="font-family:'Asap-Regular';font-size:7px">4,000</text><text transform="translate(33.01 78.14)" style="font-family:'Asap-Regular';font-size:7px">5,000</text><text transform="translate(33.01 58.298)" style="font-family:'Asap-Regular';font-size:7px">6,000</text><text transform="matrix(0 -.9726 1 0 16.232 123.875)" style="font-family:'Asap-Medium';font-size:8px">Consumption ($)</text><text transform="translate(52.984 187.547)" style="font-family:'Asap-Regular';font-size:7px">0</text><text transform="translate(69.991 187.54)" style="font-family:'Asap-Regular';font-size:7px">5</text><text transform="translate(85.127 187.547)" style="font-family:'Asap-Regular';font-size:7px">10</text><text transform="translate(102.135 187.519)" style="font-family:'Asap-Regular';font-size:7px">15</text><text transform="translate(119.143 187.547)" style="font-family:'Asap-Regular';font-size:7px">20</text><text transform="translate(136.151 187.547)" style="font-family:'Asap-Regular';font-size:7px">25</text><text transform="translate(153.158 187.518)" style="font-family:'Asap-Regular';font-size:7px">30</text><text transform="translate(170.167 187.518)" style="font-family:'Asap-Regular';font-size:7px">35</text><text transform="translate(187.175 187.518)" style="font-family:'Asap-Regular';font-size:7px">40</text><text transform="translate(204.183 187.519)" style="font-family:'Asap-Regular';font-size:7px">45</text><text transform="translate(221.19 187.547)" style="font-family:'Asap-Regular';font-size:7px">50</text><text transform="translate(238.198 187.539)" style="font-family:'Asap-Regular';font-size:7px">55</text><text transform="translate(255.206 187.547)" style="font-family:'Asap-Regular';font-size:7px">60</text><text transform="translate(272.214 187.547)" style="font-family:'Asap-Regular';font-size:7px">65</text><text transform="translate(289.222 187.547)" style="font-family:'Asap-Regular';font-size:7px">70</text><text transform="translate(139.862 200.728)" style="font-family:'Asap-Medium';font-size:8px">Days of free time</text><text transform="translate(33.01 38.455)" style="font-family:'Asap-Regular';font-size:7px">7,000</text><line style="fill:none;stroke:#6d6e71;stroke-width:.5;stroke-linecap:square" x1="52.09" y1="175.34" x2="54.22" y2="175.34"/><line style="fill:none;stroke:#6d6e71;stroke-width:.5;stroke-linecap:square" x1="52.09" y1="155.37" x2="54.22" y2="155.37"/><line style="fill:none;stroke:#6d6e71;stroke-width:.5;stroke-linecap:square" x1="52.09" y1="135.52" x2="54.22" y2="135.52"/><line style="fill:none;stroke:#6d6e71;stroke-width:.5;stroke-linecap:square" x1="52.09" y1="115.68" x2="54.22" y2="115.68"/><line style="fill:none;stroke:#6d6e71;stroke-width:.5;stroke-linecap:square" x1="52.09" y1="95.84" x2="54.22" y2="95.84"/><line style="fill:none;stroke:#6d6e71;stroke-width:.5;stroke-linecap:square" x1="52.09" y1="76" x2="54.22" y2="76"/><line style="fill:none;stroke:#6d6e71;stroke-width:.5;stroke-linecap:square" x1="52.09" y1="56.15" x2="54.22" y2="56.15"/><line style="fill:none;stroke:#6d6e71;stroke-width:.5;stroke-linecap:square" x1="52.09" y1="36.31" x2="54.22" y2="36.31"/><line style="fill:none;stroke:#6d6e71;stroke-width:.5;stroke-linecap:square" x1="54.97" y1="175.31" x2="54.97" y2="177.44"/><line style="fill:none;stroke:#6d6e71;stroke-width:.5;stroke-linecap:square" x1="71.86" y1="175.31" x2="71.86" y2="177.44"/><line style="fill:none;stroke:#6d6e71;stroke-width:.5;stroke-linecap:square" x1="88.87" y1="175.31" x2="88.87" y2="177.44"/><line style="fill:none;stroke:#6d6e71;stroke-width:.5;stroke-linecap:square" x1="105.88" y1="175.31" x2="105.88" y2="177.44"/><line style="fill:none;stroke:#6d6e71;stroke-width:.5;stroke-linecap:square" x1="122.89" y1="175.31" x2="122.89" y2="177.44"/><line style="fill:none;stroke:#6d6e71;stroke-width:.5;stroke-linecap:square" x1="139.9" y1="175.31" x2="139.9" y2="177.44"/><line style="fill:none;stroke:#6d6e71;stroke-width:.5;stroke-linecap:square" x1="156.9" y1="177.44" x2="156.9" y2="175.31"/><line style="fill:none;stroke:#6d6e71;stroke-width:.5;stroke-linecap:square" x1="173.91" y1="175.31" x2="173.91" y2="177.44"/><line style="fill:none;stroke:#6d6e71;stroke-width:.5;stroke-linecap:square" x1="190.92" y1="175.31" x2="190.92" y2="177.44"/><line style="fill:none;stroke:#6d6e71;stroke-width:.5;stroke-linecap:square" x1="207.93" y1="175.31" x2="207.93" y2="177.44"/><line style="fill:none;stroke:#6d6e71;stroke-width:.5;stroke-linecap:square" x1="224.94" y1="175.31" x2="224.94" y2="177.44"/><line style="fill:none;stroke:#6d6e71;stroke-width:.5;stroke-linecap:square" x1="241.94" y1="175.31" x2="241.94" y2="177.44"/><line style="fill:none;stroke:#6d6e71;stroke-width:.5;stroke-linecap:square" x1="258.95" y1="175.31" x2="258.95" y2="177.44"/><line style="fill:none;stroke:#6d6e71;stroke-width:.5;stroke-linecap:square" x1="275.96" y1="175.31" x2="275.96" y2="177.44"/><line style="fill:none;stroke:#6d6e71;stroke-width:.5;stroke-linecap:square" x1="292.97" y1="175.31" x2="292.97" y2="177.44"/><line style="fill:none;stroke:#6d6e71;stroke-width:.5;stroke-linecap:square" x1="52.15" y1="16.47" x2="54.28" y2="16.47"/><text transform="translate(33.01 19.483)" style="font-family:'Asap-Regular';font-size:7px">8,000</text><line style="fill:none;stroke:#ea2728;stroke-width:.5;stroke-linejoin:round" x1="82.12" y1="18.32" x2="292.97" y2="175.22"/><line style="fill:none;stroke:#ea2728;stroke-width:.5;stroke-linejoin:round" x1="54.97" y1="52.23" x2="292.97" y2="175.22"/><path style="fill:none;stroke:#5b73b8;stroke-width:.5;stroke-linejoin:round" d="M78.54 17.68c31.23 72.31 109.27 115.05 215.42 133.95M102.41 16.47C136.5 73.2 216.96 118.66 292.96 134.75"/><circle style="fill:#000101" cx="155.87" cy="73.2" r="1.13"/><text transform="translate(160.376 70.135)" style="font-family:'Asap-Regular';font-size:7px">D</text><text transform="translate(158.246 120.234)" style="font-family:'Asap-Regular';font-size:7px">A</text><text transform="translate(74.666 10.164)" style="font-family:'Asap-Regular';font-size:7px">IC</text><text transform="matrix(.583 0 0 .583 80.98 12.495)" style="font-family:'Asap-Regular';font-size:7px">2</text><text transform="translate(97.56 10.164)" style="font-family:'Asap-Regular';font-size:7px">IC</text><text transform="matrix(.583 0 0 .583 103.873 12.495)" style="font-family:'Asap-Medium';font-size:7px">4</text><line style="fill:none" x1="57.73" y1="26.42" x2="296.73" y2="150.84"/><line style="fill:none;stroke:#e9292a;stroke-width:.5;stroke-linejoin:round;stroke-dasharray:1.417" x1="54.69" y1="25.51" x2="291.92" y2="149"/><circle style="fill:#000101" cx="199.79" cy="101.37" r="1.13"/><text transform="translate(204.308 95.06)" style="font-family:'Asap-Regular';font-size:7px">C</text><line style="fill:none;stroke:#009147;stroke-width:.5;stroke-linecap:square;stroke-linejoin:round" x1="199.05" y1="96.04" x2="165.77" y2="96.04"/><polygon style="fill:#009147" points="197.39 93.99 197.05 94.36 198.86 96.04 197.05 97.71 197.39 98.08 199.59 96.04"/><text transform="matrix(1.0286 0 0 1 170.04 103.13)"><tspan x="0" y="0" style="font-family:'Asap-Regular';font-size:6px">Income</tspan><tspan x="0" y="7.2" style="font-family:'Asap-Regular';font-size:6px">effect</tspan></text><line style="fill:none;stroke:#009147;stroke-width:.5;stroke-linecap:square;stroke-linejoin:round" x1="156.41" y1="126.57" x2="167.84" y2="126.57"/><polygon style="fill:#009147" points="158.07 128.61 158.41 128.24 156.61 126.57 158.41 124.89 158.07 124.52 155.87 126.57"/><text transform="translate(156.408 136.523)"><tspan x="0" y="0" style="font-family:'Asap-Regular';font-size:6px">Overall </tspan><tspan x="0" y="7.2" style="font-family:'Asap-Regular';font-size:6px">effect</tspan></text><g><line style="fill:none;stroke:#009147;stroke-width:.5;stroke-linecap:square;stroke-linejoin:round" x1="156.41" y1="50.49" x2="199.79" y2="50.49"/><polygon style="fill:#009147" points="158.07 52.53 158.41 52.17 156.61 50.49 158.41 48.81 158.07 48.44 155.87 50.49"/></g><text transform="translate(168.904 58.185)"><tspan x="0" y="0" style="font-family:'Asap-Regular';font-size:6px">Substitution </tspan><tspan x="0" y="7.2" style="font-family:'Asap-Regular';font-size:6px">effect</tspan></text><circle style="fill:#000101" cx="166.91" cy="110.17" r="1.13"/></svg>