<svg version="1.1" xmlns="http://www.w3.org/2000/svg" x="0" y="0" viewBox="0 0 311.81 189.78" style="enable-background:new 0 0 311.81 189.78" xml:space="preserve"><path style="fill:#fff;stroke:#6d6e71;stroke-width:.5;stroke-miterlimit:10" d="M37.5 6.5v153.86V6.5zM293.14 160.36H37.5h255.64z"/><text transform="translate(23.35 8.795)" style="font-family:'Asap-Regular';font-size:7px">60</text><text transform="translate(23.478 34.795)" style="font-family:'Asap-Regular';font-size:7px">50</text><text transform="translate(23.478 60.795)" style="font-family:'Asap-Regular';font-size:7px">40</text><text transform="translate(23.478 86.795)" style="font-family:'Asap-Regular';font-size:7px">30</text><text transform="translate(23.478 110.795)" style="font-family:'Asap-Regular';font-size:7px">20</text><text transform="translate(23.478 136.795)" style="font-family:'Asap-Regular';font-size:7px">10</text><text transform="translate(26.478 162.795)" style="font-family:'Asap-Regular';font-size:7px">0</text><text transform="translate(59.478 171.407)" style="font-family:'Asap-Regular';font-size:7px">10</text><text transform="translate(85.478 171.407)" style="font-family:'Asap-Regular';font-size:7px">20</text><text transform="rotate(-1.702 5827.875 -3636.333)" style="font-family:'Asap-Regular';font-size:7px">30</text><text transform="translate(135.923 171.456)" style="font-family:'Asap-Regular';font-size:7px">40</text><text transform="translate(161.923 171.456)" style="font-family:'Asap-Regular';font-size:7px">50</text><text transform="rotate(-1.702 5867.258 -6175.987)" style="font-family:'Asap-Regular';font-size:7px">60</text><text transform="translate(209.923 171.456)" style="font-family:'Asap-Regular';font-size:7px">70</text><text transform="translate(234.923 171.456)" style="font-family:'Asap-Regular';font-size:7px">80</text><text transform="rotate(-1.702 5904.257 -8667.02)" style="font-family:'Asap-Regular';font-size:7px">90</text><text transform="translate(36.35 171.407)" style="font-family:'Asap-Regular';font-size:7px">0</text><text transform="rotate(-1.702 5916.034 -9459.97)" style="font-family:'Asap-Regular';font-size:7px">100</text><text transform="translate(148.477 183.407)"><tspan x="0" y="0" style="font-family:'Asap-Medium';font-size:7px">Quantity,</tspan><tspan x="28.13" y="0" style="font-family:'Asap-Regular';font-size:7px"> </tspan><tspan x="29.81" y="0" style="font-family:'Asap-MediumItalic';font-size:7px">Q</tspan></text><text transform="rotate(-90 51.545 42.178)"><tspan x="0" y="0" style="font-family:'Asap-Medium';font-size:7px">Price,</tspan><tspan x="16.96" y="0" style="font-family:'Asap-Regular';font-size:7px"> </tspan><tspan x="18.64" y="0" style="font-family:'Asap-MediumItalic';font-size:7px">P</tspan></text><path style="fill:none;stroke:#273a71;stroke-width:.5;stroke-miterlimit:10" d="M80.5 7.5c1.1 3.89 2.68 8.69 5 14 .73 1.67 3.4 7.66 8 15 5.23 8.34 10.2 14 12 16 3.98 4.42 7.27 7.36 8 8 2.28 2.02 6.25 5.5 12 9 5.88 3.58 10.75 5.42 15 7 4.48 1.67 10.57 3.6 18 5 5.59 1.06 10 1.57 14 2 1.3.14 3.39.35 13 1 8.85.6 13.28.9 16 1 5.82.21 8.13.08 18 0 13.03-.1 13.64.21 20 0 4.48-.15 8.32-.43 16-1 8.42-.62 14.3-1.07 22-2 5.93-.72 10.77-1.47 14-2"/><path style="fill:none;stroke:#5b73b8;stroke-width:.5;stroke-miterlimit:10" d="M64 7c.92 3.34 2.28 8.18 4 14 2.33 7.86 3.49 11.79 5 16 2.02 5.63 4.46 12.46 9 20 6.82 11.33 14.79 18.35 18 21a81.085 81.085 0 0022 13c10.06 3.95 18.61 4.93 28 6 4.56.52 8.36.68 15 1 9.77.47 17.19.5 19.5.5 12.26.01 21.57-.58 28-1 5.99-.39 11.66-.93 23-2 13.7-1.3 20.54-1.94 29-3 6.71-.84 15.95-2.11 27-4"/><path style="fill:none;stroke:#a1b0da;stroke-width:.5;stroke-miterlimit:10" d="M52.5 6.5c.19 4.52.51 9.19 1 14 2.06 20.38 6.22 35.25 9 45 2.3 8.06 3.42 10.69 4 12 1.76 3.96 5.59 12.31 14 20 7.18 6.56 14.25 9.49 18 11 7.99 3.22 14.43 3.97 24 5 12.37 1.34 21.87 1.07 24 1 20.85-.67 40.01-3.23 69-7 30.86-4.01 40.08-5.12 57-8 9.04-1.54 16.6-2.95 22-4"/><path style="fill:#fff;stroke:#000;stroke-width:.5;stroke-miterlimit:10" d="M37.5 155.67L293.14 52.92 37.5 155.67z"/></svg>