<svg version="1.1" xmlns="http://www.w3.org/2000/svg" x="0" y="0" viewBox="0 0 311.81 216.15" style="enable-background:new 0 0 311.81 216.15" xml:space="preserve"><text transform="translate(31.901 190.517)" style="font-family:'Asap-Regular';font-size:7.0788px">0</text><text transform="translate(39.391 197.568)" style="font-family:'Asap-Regular';font-size:7.0788px">0</text><text transform="translate(32.304 115.222)" style="font-family:'Asap-Regular';font-size:7.0788px">8</text><text transform="translate(29.463 96.74)" style="font-family:'Asap-Regular';font-size:7.0788px">10</text><text transform="translate(32.177 153.471)" style="font-family:'Asap-Regular';font-size:7.0788px">4</text><text transform="translate(29.336 77.606)" style="font-family:'Asap-Regular';font-size:7.0788px">12</text><text transform="translate(29.003 59.502)" style="font-family:'Asap-Regular';font-size:7.0788px">14</text><text transform="translate(28.642 25.63)" style="font-family:'Asap-Regular';font-size:7.0788px">18</text><text transform="translate(28.336 7.505)" style="font-family:'Asap-Regular';font-size:7.0788px">20</text><text transform="translate(78.034 197.61)" style="font-family:'Asap-Regular';font-size:7.0788px">4</text><text transform="translate(117.72 197.567)" style="font-family:'Asap-Regular';font-size:7.0788px">8</text><text transform="translate(155.367 197.567)" style="font-family:'Asap-Regular';font-size:7.0788px">12</text><text transform="translate(193.799 197.568)" style="font-family:'Asap-Regular';font-size:7.0788px">16</text><text transform="translate(116.593 212.318)"><tspan x="0" y="0" style="font-family:'Asap-Medium';font-size:8px">Angela’s hours of free time, </tspan><tspan x="97.97" y="0" style="font-family:'Asap-MediumItalic';font-size:8px">t</tspan></text><path style="fill:none;stroke:#6d6e71;stroke-width:.5;stroke-linecap:square;stroke-linejoin:round" d="M41.02 4.2v184.56"/><line style="fill:none;stroke:#6d6e71;stroke-width:.5;stroke-linecap:square" x1="41.42" y1="188.76" x2="288.48" y2="188.76"/><text transform="translate(234.087 197.568)" style="font-family:'Asap-Regular';font-size:7.0788px">20</text><text transform="translate(272.985 198.047)" style="font-family:'Asap-Regular';font-size:7.0788px">24</text><text transform="translate(28.642 43.84)" style="font-family:'Asap-Regular';font-size:7.0788px">16</text><text transform="translate(32.304 134.798)" style="font-family:'Asap-Regular';font-size:7.0788px">6</text><text transform="translate(32.177 172.177)" style="font-family:'Asap-Regular';font-size:7.0788px">2</text><line style="fill:none;stroke:#6d6e71;stroke-width:.5;stroke-linecap:square" x1="41.02" y1="188.76" x2="41.02" y2="190.89"/><line style="fill:none;stroke:#6d6e71;stroke-width:.5;stroke-linecap:square" x1="80.8" y1="188.76" x2="80.8" y2="190.89"/><line style="fill:none;stroke:#6d6e71;stroke-width:.5;stroke-linecap:square" x1="159.39" y1="188.76" x2="159.39" y2="190.89"/><line style="fill:none;stroke:#6d6e71;stroke-width:.5;stroke-linecap:square" x1="199.18" y1="188.76" x2="199.18" y2="190.89"/><line style="fill:none;stroke:#6d6e71;stroke-width:.5;stroke-linecap:square" x1="120.1" y1="188.76" x2="120.1" y2="190.89"/><line style="fill:none;stroke:#6d6e71;stroke-width:.5;stroke-linecap:square" x1="238.26" y1="188.98" x2="238.26" y2="191.1"/><line style="fill:none;stroke:#6d6e71;stroke-width:.5;stroke-linecap:square" x1="278.05" y1="188.98" x2="278.05" y2="191.1"/><line style="fill:none;stroke:#6d6e71;stroke-width:.5;stroke-linecap:square" x1="40.78" y1="132.44" x2="38.66" y2="132.44"/><line style="fill:none;stroke:#6d6e71;stroke-width:.5;stroke-linecap:square" x1="40.78" y1="151.13" x2="38.66" y2="151.13"/><line style="fill:none;stroke:#6d6e71;stroke-width:.5;stroke-linecap:square" x1="40.73" y1="188.55" x2="38.6" y2="188.55"/><line style="fill:none;stroke:#6d6e71;stroke-width:.5;stroke-linecap:square" x1="40.73" y1="169.82" x2="38.6" y2="169.82"/><line style="fill:none;stroke:#6d6e71;stroke-width:.5;stroke-linecap:square" x1="40.81" y1="57.64" x2="38.68" y2="57.64"/><line style="fill:none;stroke:#6d6e71;stroke-width:.5;stroke-linecap:square" x1="40.81" y1="76.33" x2="38.68" y2="76.33"/><line style="fill:none;stroke:#6d6e71;stroke-width:.5;stroke-linecap:square" x1="40.76" y1="113.75" x2="38.63" y2="113.75"/><line style="fill:none;stroke:#6d6e71;stroke-width:.5;stroke-linecap:square" x1="40.76" y1="95.02" x2="38.63" y2="95.02"/><line style="fill:none;stroke:#6d6e71;stroke-width:.5;stroke-linecap:square" x1="40.83" y1="4.2" x2="38.71" y2="4.2"/><line style="fill:none;stroke:#6d6e71;stroke-width:.5;stroke-linecap:square" x1="40.78" y1="41.62" x2="38.66" y2="41.62"/><line style="fill:none;stroke:#6d6e71;stroke-width:.5;stroke-linecap:square" x1="40.78" y1="22.89" x2="38.66" y2="22.89"/><text transform="rotate(-90 72.944 52.608)"><tspan x="0" y="0" style="font-family:'Asap-Medium';font-size:8px">Bushels of grain, </tspan><tspan x="59.74" y="0" style="font-family:'Asap-MediumItalic';font-size:8px">c</tspan></text><g><path style="fill:none;stroke:#000;stroke-width:.5;stroke-miterlimit:10" d="M277.68 23.83a688.853 688.853 0 01-26.39 34.31c-4.38 5.33-11.53 14.04-21.39 24.84-7.39 8.1-19.03 20.83-35.82 35.82-11.05 9.86-23.61 20.98-42.13 33.17-7.96 5.24-18.1 11.85-32.67 18.53-5.61 2.57-17.94 8.17-34.1 12.29-10.43 2.66-25.43 5.46-43.95 5.56"/><text transform="translate(44.387 183.788)" style="font-family:'Asap-Italic';font-size:6px">P</text><text transform="matrix(.583 0 0 .583 47.807 185.786)" style="font-family:'Asap-Regular';font-size:6px">0</text><text transform="translate(194.91 109.51)" style="font-family:'Asap-Italic';font-size:6px">P</text><text transform="matrix(.583 0 0 .583 198.33 111.508)" style="font-family:'Asap-Regular';font-size:6px">1</text><text transform="translate(130.813 158.289)" style="font-family:'Asap-Italic';font-size:6px">P</text><text transform="matrix(.583 0 0 .583 134.232 160.287)" style="font-family:'Asap-Regular';font-size:6px">2</text><text transform="translate(114.537 124.603)"><tspan x="0" y="0" style="font-family:'Asap-Italic';font-size:6px">b </tspan><tspan x="4.85" y="0" style="font-family:'Asap-Regular';font-size:6px">= 8.78</tspan></text><text transform="translate(141.153 176.461)"><tspan x="0" y="0" style="font-family:'Asap-Italic';font-size:6px">c</tspan><tspan x="2.91" y="0" style="font-family:'Asap-Regular';font-size:6px"> = 3.13</tspan></text><text transform="translate(65.437 53.646)" style="font-family:'Asap-Regular';font-size:6px">Feasible frontier</text><path style="fill:none;stroke:#f49323;stroke-width:.5;stroke-miterlimit:10" d="M277.87 188.75c-11-12.78-21.21-23.35-29.77-31.7-17.96-17.52-32.83-29.39-37.49-33.06-7.62-6.01-17.68-13.88-32.05-22.98-5.22-3.31-18.58-11.56-37.09-20.36-10.35-4.92-19.9-9.46-33.06-13.71-5.09-1.64-21.39-6.62-43.54-9.07-9.47-1.05-17.55-1.36-23.6-1.42"/><circle cx="198.91" cy="114.66" r="1.13"/><circle cx="139.28" cy="160.29" r="1.13"/><line style="fill:none;stroke:#939598;stroke-width:.5;stroke-linecap:square;stroke-linejoin:round" x1="139.28" y1="81.37" x2="139.28" y2="157.93"/><polygon style="fill:#939598" points="137.23 83.02 137.6 83.36 139.28 81.56 140.96 83.36 141.32 83.02 139.28 80.82"/><polygon style="fill:#939598" points="137.23 156.28 137.6 155.94 139.28 157.74 140.96 155.94 141.32 156.28 139.28 158.48"/><g><line style="fill:none;stroke:#939598;stroke-width:.5;stroke-linecap:square;stroke-linejoin:round" x1="139.28" y1="162.49" x2="139.28" y2="187.46"/><polygon style="fill:#939598" points="137.23 164.15 137.6 164.49 139.28 162.68 140.96 164.49 141.32 164.15 139.28 161.95"/><polygon style="fill:#939598" points="137.23 185.8 137.6 185.46 139.28 187.27 140.96 185.46 141.32 185.8 139.28 188"/></g><g><text transform="translate(218.642 65.98)"><tspan x="0" y="0" style="font-family:'Asap-Italic';font-size:6px">c</tspan><tspan x="2.91" y="0" style="font-family:'Asap-Regular';font-size:6px"> =</tspan></text><text transform="translate(230.68 62.611)" style="font-family:'Asap-Italic';font-size:6px">t²</text><text transform="translate(229.925 69.508)" style="font-family:'Asap-Regular';font-size:6px">32</text><line style="fill:none;stroke:#000;stroke-width:.25;stroke-linejoin:round" x1="230.4" y1="63.98" x2="235.76" y2="63.98"/></g></g></svg>