<svg version="1.1" xmlns="http://www.w3.org/2000/svg" x="0" y="0" viewBox="0 0 311.81 191.68" style="enable-background:new 0 0 311.81 191.68" xml:space="preserve"><path style="fill:none;stroke:#ed2124;stroke-width:.5;stroke-linecap:square;stroke-linejoin:round" d="M43.38 161.54a280.176 280.176 0 0138.54-48.52c30.93-31.13 61.19-46.83 81.41-57.12 27.02-13.75 71.61-32.36 131.46-39.77"/><text transform="translate(202.217 61.358)"><tspan x="0" y="0" style="font-family:'Asap-Regular';font-size:6px">T</tspan><tspan x="3.28" y="0" style="font-family:'Asap-Regular';font-size:6px">h</tspan><tspan x="6.68" y="0" style="font-family:'Asap-Regular';font-size:6px">e</tspan><tspan x="9.91" y="0" style="font-family:'Asap-Regular';font-size:6px"> </tspan><tspan x="11.35" y="0" style="font-family:'Asap-Regular';font-size:6px">f</tspan><tspan x="13.3" y="0" style="font-family:'Asap-Regular';font-size:6px">a</tspan><tspan x="16.58" y="0" style="font-family:'Asap-Regular';font-size:6px">r</tspan><tspan x="18.78" y="0" style="font-family:'Asap-Regular';font-size:6px">me</tspan><tspan x="27.08" y="0" style="font-family:'Asap-Regular';font-size:6px">r</tspan><tspan x="29.27" y="0" style="font-family:'Asap-Regular';font-size:6px">’</tspan><tspan x="30.57" y="0" style="font-family:'Asap-Regular';font-size:6px">s</tspan><tspan x="33.02" y="0" style="font-family:'Asap-Regular';font-size:6px"> </tspan><tspan x="34.46" y="0" style="font-family:'Asap-Regular';font-size:6px">p</tspan><tspan x="37.93" y="0" style="font-family:'Asap-Regular';font-size:6px">r</tspan><tspan x="40.12" y="0" style="font-family:'Asap-Regular';font-size:6px">o</tspan><tspan x="43.56" y="0" style="font-family:'Asap-Regular';font-size:6px">d</tspan><tspan x="46.98" y="0" style="font-family:'Asap-Regular';font-size:6px">u</tspan><tspan x="50.33" y="0" style="font-family:'Asap-Regular';font-size:6px">c</tspan><tspan x="53.23" y="0" style="font-family:'Asap-Regular';font-size:6px">ti</tspan><tspan x="56.82" y="0" style="font-family:'Asap-Regular';font-size:6px">o</tspan><tspan x="60.26" y="0" style="font-family:'Asap-Regular';font-size:6px">n</tspan><tspan x="63.6" y="0" style="font-family:'Asap-Regular';font-size:6px"> </tspan><tspan x="64.96" y="0" style="font-family:'Asap-Regular';font-size:6px">f</tspan><tspan x="66.92" y="0" style="font-family:'Asap-Regular';font-size:6px">u</tspan><tspan x="70.27" y="0" style="font-family:'Asap-Regular';font-size:6px">n</tspan><tspan x="73.61" y="0" style="font-family:'Asap-Regular';font-size:6px">c</tspan><tspan x="76.51" y="0" style="font-family:'Asap-Regular';font-size:6px">t</tspan><tspan x="78.54" y="0" style="font-family:'Asap-Regular';font-size:6px">i</tspan><tspan x="80.1" y="0" style="font-family:'Asap-Regular';font-size:6px">o</tspan><tspan x="83.54" y="0" style="font-family:'Asap-Regular';font-size:6px">n</tspan><tspan x="86.88" y="0" style="font-family:'Asap-Regular';font-size:6px">:</tspan><tspan x="0" y="7.2" style="font-family:'Asap-Regular';font-size:6px">T</tspan><tspan x="3.28" y="7.2" style="font-family:'Asap-Regular';font-size:6px">h</tspan><tspan x="6.68" y="7.2" style="font-family:'Asap-Regular';font-size:6px">is</tspan><tspan x="10.69" y="7.2" style="font-family:'Asap-Regular';font-size:6px"> </tspan><tspan x="12.21" y="7.2" style="font-family:'Asap-Regular';font-size:6px">s</tspan><tspan x="14.66" y="7.2" style="font-family:'Asap-Regular';font-size:6px">h</tspan><tspan x="18.06" y="7.2" style="font-family:'Asap-Regular';font-size:6px">o</tspan><tspan x="21.5" y="7.2" style="font-family:'Asap-Regular';font-size:6px">w</tspan><tspan x="25.99" y="7.2" style="font-family:'Asap-Regular';font-size:6px">s</tspan><tspan x="28.44" y="7.2" style="font-family:'Asap-Regular';font-size:6px"> </tspan><tspan x="29.8" y="7.2" style="font-family:'Asap-Regular';font-size:6px">h</tspan><tspan x="33.2" y="7.2" style="font-family:'Asap-Regular';font-size:6px">o</tspan><tspan x="36.64" y="7.2" style="font-family:'Asap-Regular';font-size:6px">w</tspan><tspan x="41.14" y="7.2" style="font-family:'Asap-Regular';font-size:6px"> </tspan><tspan x="42.5" y="7.2" style="font-family:'Asap-Regular';font-size:6px">t</tspan><tspan x="44.53" y="7.2" style="font-family:'Asap-Regular';font-size:6px">h</tspan><tspan x="47.93" y="7.2" style="font-family:'Asap-Regular';font-size:6px">e</tspan><tspan x="51.15" y="7.2" style="font-family:'Asap-Regular';font-size:6px"> n</tspan><tspan x="55.93" y="7.2" style="font-family:'Asap-Regular';font-size:6px">u</tspan><tspan x="59.29" y="7.2" style="font-family:'Asap-Regular';font-size:6px">m</tspan><tspan x="64.36" y="7.2" style="font-family:'Asap-Regular';font-size:6px">b</tspan><tspan x="67.74" y="7.2" style="font-family:'Asap-Regular';font-size:6px">e</tspan><tspan x="70.96" y="7.2" style="font-family:'Asap-Regular';font-size:6px">r</tspan><tspan x="73.16" y="7.2" style="font-family:'Asap-Regular';font-size:6px"> </tspan><tspan x="74.67" y="7.2" style="font-family:'Asap-Regular';font-size:6px">o</tspan><tspan x="78.11" y="7.2" style="font-family:'Asap-Regular';font-size:6px">f</tspan><tspan x="80.07" y="7.2" style="font-family:'Asap-Regular';font-size:6px"> </tspan><tspan x="0" y="14.4" style="font-family:'Asap-Regular';font-size:6px">f</tspan><tspan x="1.96" y="14.4" style="font-family:'Asap-Regular';font-size:6px">a</tspan><tspan x="5.24" y="14.4" style="font-family:'Asap-Regular';font-size:6px">r</tspan><tspan x="7.43" y="14.4" style="font-family:'Asap-Regular';font-size:6px">me</tspan><tspan x="15.73" y="14.4" style="font-family:'Asap-Regular';font-size:6px">r</tspan><tspan x="17.93" y="14.4" style="font-family:'Asap-Regular';font-size:6px">s</tspan><tspan x="20.38" y="14.4" style="font-family:'Asap-Regular';font-size:6px"> </tspan><tspan x="21.82" y="14.4" style="font-family:'Asap-Regular';font-size:6px">w</tspan><tspan x="26.31" y="14.4" style="font-family:'Asap-Regular';font-size:6px">o</tspan><tspan x="29.75" y="14.4" style="font-family:'Asap-Regular';font-size:6px">rk</tspan><tspan x="35.06" y="14.4" style="font-family:'Asap-Regular';font-size:6px">i</tspan><tspan x="36.62" y="14.4" style="font-family:'Asap-Regular';font-size:6px">n</tspan><tspan x="39.97" y="14.4" style="font-family:'Asap-Regular';font-size:6px">g</tspan><tspan x="43.25" y="14.4" style="font-family:'Asap-Regular';font-size:6px"> </tspan><tspan x="44.69" y="14.4" style="font-family:'Asap-Regular';font-size:6px">t</tspan><tspan x="46.72" y="14.4" style="font-family:'Asap-Regular';font-size:6px">h</tspan><tspan x="50.12" y="14.4" style="font-family:'Asap-Regular';font-size:6px">e</tspan><tspan x="53.34" y="14.4" style="font-family:'Asap-Regular';font-size:6px"> </tspan><tspan x="54.79" y="14.4" style="font-family:'Asap-Regular';font-size:6px">l</tspan><tspan x="56.56" y="14.4" style="font-family:'Asap-Regular';font-size:6px">a</tspan><tspan x="59.84" y="14.4" style="font-family:'Asap-Regular';font-size:6px">n</tspan><tspan x="63.18" y="14.4" style="font-family:'Asap-Regular';font-size:6px">d</tspan><tspan x="66.6" y="14.4" style="font-family:'Asap-Regular';font-size:6px"> </tspan><tspan x="67.89" y="14.4" style="font-family:'Asap-Regular';font-size:6px">t</tspan><tspan x="69.92" y="14.4" style="font-family:'Asap-Regular';font-size:6px">r</tspan><tspan x="72.11" y="14.4" style="font-family:'Asap-Regular';font-size:6px">a</tspan><tspan x="75.39" y="14.4" style="font-family:'Asap-Regular';font-size:6px">n</tspan><tspan x="78.74" y="14.4" style="font-family:'Asap-Regular';font-size:6px">s</tspan><tspan x="81.18" y="14.4" style="font-family:'Asap-Regular';font-size:6px">l</tspan><tspan x="82.96" y="14.4" style="font-family:'Asap-Regular';font-size:6px">a</tspan><tspan x="86.24" y="14.4" style="font-family:'Asap-Regular';font-size:6px">t</tspan><tspan x="88.27" y="14.4" style="font-family:'Asap-Regular';font-size:6px">e</tspan><tspan x="91.49" y="14.4" style="font-family:'Asap-Regular';font-size:6px">s</tspan><tspan x="93.94" y="14.4" style="font-family:'Asap-Regular';font-size:6px"> </tspan><tspan x="0" y="21.6" style="font-family:'Asap-Regular';font-size:6px">i</tspan><tspan x="1.56" y="21.6" style="font-family:'Asap-Regular';font-size:6px">n</tspan><tspan x="4.9" y="21.6" style="font-family:'Asap-Regular';font-size:6px">t</tspan><tspan x="6.93" y="21.6" style="font-family:'Asap-Regular';font-size:6px">o</tspan><tspan x="10.37" y="21.6" style="font-family:'Asap-Regular';font-size:6px"> </tspan><tspan x="11.81" y="21.6" style="font-family:'Asap-Regular';font-size:6px">g</tspan><tspan x="15.1" y="21.6" style="font-family:'Asap-Regular';font-size:6px">r</tspan><tspan x="17.29" y="21.6" style="font-family:'Asap-Regular';font-size:6px">a</tspan><tspan x="20.57" y="21.6" style="font-family:'Asap-Regular';font-size:6px">i</tspan><tspan x="22.13" y="21.6" style="font-family:'Asap-Regular';font-size:6px">n</tspan><tspan x="25.48" y="21.6" style="font-family:'Asap-Regular';font-size:6px"> </tspan><tspan x="26.84" y="21.6" style="font-family:'Asap-Regular';font-size:6px">p</tspan><tspan x="30.31" y="21.6" style="font-family:'Asap-Regular';font-size:6px">r</tspan><tspan x="32.5" y="21.6" style="font-family:'Asap-Regular';font-size:6px">o</tspan><tspan x="35.94" y="21.6" style="font-family:'Asap-Regular';font-size:6px">d</tspan><tspan x="39.36" y="21.6" style="font-family:'Asap-Regular';font-size:6px">u</tspan><tspan x="42.71" y="21.6" style="font-family:'Asap-Regular';font-size:6px">ce</tspan><tspan x="48.83" y="21.6" style="font-family:'Asap-Regular';font-size:6px">d</tspan><tspan x="52.25" y="21.6" style="font-family:'Asap-Regular';font-size:6px">.</tspan></text><path style="fill-rule:evenodd;clip-rule:evenodd" d="M113.71 84.99a1.129 1.129 0 112.26 0 1.129 1.129 0 11-2.26 0z"/><text transform="translate(112.463 82.118)" style="fill:#231f20;font-family:'Asap-Regular';font-size:6px">A</text><polyline style="fill:none;stroke:#6d6e71;stroke-width:.5;stroke-linecap:square;stroke-miterlimit:10" points="43.15 8.29 43.15 162.02 294.84 162.02"/><line style="fill:none;stroke:#6d6e71;stroke-width:.5;stroke-linecap:square" x1="40.91" y1="8.29" x2="43.04" y2="8.29"/><line style="fill:none;stroke:#6d6e71;stroke-width:.5;stroke-linecap:square" x1="40.91" y1="23.66" x2="43.04" y2="23.66"/><line style="fill:none;stroke:#6d6e71;stroke-width:.5;stroke-linecap:square" x1="40.91" y1="39.04" x2="43.04" y2="39.04"/><line style="fill:none;stroke:#6d6e71;stroke-width:.5;stroke-linecap:square" x1="40.91" y1="54.41" x2="43.04" y2="54.41"/><line style="fill:none;stroke:#6d6e71;stroke-width:.5;stroke-linecap:square" x1="40.91" y1="69.78" x2="43.04" y2="69.78"/><line style="fill:none;stroke:#6d6e71;stroke-width:.5;stroke-linecap:square" x1="40.91" y1="85.15" x2="43.04" y2="85.15"/><line style="fill:none;stroke:#6d6e71;stroke-width:.5;stroke-linecap:square" x1="40.91" y1="100.53" x2="43.04" y2="100.53"/><line style="fill:none;stroke:#6d6e71;stroke-width:.5;stroke-linecap:square" x1="40.91" y1="115.9" x2="43.04" y2="115.9"/><line style="fill:none;stroke:#6d6e71;stroke-width:.5;stroke-linecap:square" x1="40.91" y1="131.27" x2="43.04" y2="131.27"/><line style="fill:none;stroke:#6d6e71;stroke-width:.5;stroke-linecap:square" x1="40.91" y1="146.64" x2="43.04" y2="146.64"/><line style="fill:none;stroke:#6d6e71;stroke-width:.5;stroke-linecap:square" x1="40.91" y1="162.02" x2="43.04" y2="162.02"/><line style="fill:none;stroke:#6d6e71;stroke-width:.5;stroke-linecap:square" x1="43.15" y1="162.02" x2="43.15" y2="164.14"/><line style="fill:none;stroke:#6d6e71;stroke-width:.5;stroke-linecap:square" x1="79.1" y1="162.02" x2="79.1" y2="164.14"/><line style="fill:none;stroke:#6d6e71;stroke-width:.5;stroke-linecap:square" x1="115.04" y1="162.02" x2="115.04" y2="164.14"/><line style="fill:none;stroke:#6d6e71;stroke-width:.5;stroke-linecap:square" x1="150.98" y1="162.02" x2="150.98" y2="164.14"/><line style="fill:none;stroke:#6d6e71;stroke-width:.5;stroke-linecap:square" x1="186.93" y1="162.02" x2="186.93" y2="164.14"/><line style="fill:none;stroke:#6d6e71;stroke-width:.5;stroke-linecap:square" x1="222.87" y1="162.02" x2="222.87" y2="164.14"/><line style="fill:none;stroke:#6d6e71;stroke-width:.5;stroke-linecap:square" x1="258.81" y1="162.02" x2="258.81" y2="164.14"/><line style="fill:none;stroke:#6d6e71;stroke-width:.5;stroke-linecap:square" x1="294.76" y1="162.54" x2="294.76" y2="164.67"/><text transform="translate(135.502 188.17)" style="font-family:'Asap-Medium';font-size:8px">Number of farmers</text><text transform="rotate(-90 78.773 64.789)" style="font-family:'Asap-Medium';font-size:8px">Kg of grain produced (thousands)</text><text transform="translate(18.898 10.437)" style="fill:#231f20;font-family:'Asap-Regular';font-size:7px">1,000</text><text transform="translate(24.027 25.81)" style="fill:#231f20;font-family:'Asap-Regular';font-size:7px">900</text><text transform="translate(24.028 40.182)" style="fill:#231f20;font-family:'Asap-Regular';font-size:7px">800</text><text transform="translate(24.028 56.554)" style="fill:#231f20;font-family:'Asap-Regular';font-size:7px">700</text><text transform="translate(24.028 71.927)" style="fill:#231f20;font-family:'Asap-Regular';font-size:7px">600</text><text transform="translate(24.028 87.3)" style="fill:#231f20;font-family:'Asap-Regular';font-size:7px">500</text><text transform="translate(24.027 102.672)" style="fill:#231f20;font-family:'Asap-Regular';font-size:7px">400</text><text transform="translate(24.027 118.044)" style="fill:#231f20;font-family:'Asap-Regular';font-size:7px">300</text><text transform="translate(24.027 133.417)" style="fill:#231f20;font-family:'Asap-Regular';font-size:7px">200</text><text transform="translate(24.027 148.79)" style="fill:#231f20;font-family:'Asap-Regular';font-size:7px">100</text><text transform="translate(31.516 164.162)" style="fill:#231f20;font-family:'Asap-Regular';font-size:7px">0</text><text transform="translate(41.279 174.594)" style="fill:#231f20;font-family:'Asap-Regular';font-size:7px">0</text><text transform="translate(73.477 174.594)" style="fill:#231f20;font-family:'Asap-Regular';font-size:7px">400</text><text transform="translate(109.42 174.594)" style="fill:#231f20;font-family:'Asap-Regular';font-size:7px">800</text><text transform="translate(142.8 174.594)" style="fill:#231f20;font-family:'Asap-Regular';font-size:7px">1,200</text><text transform="translate(178.743 174.594)" style="fill:#231f20;font-family:'Asap-Regular';font-size:7px">1,600</text><text transform="translate(214.687 174.594)" style="fill:#231f20;font-family:'Asap-Regular';font-size:7px">2,000</text><text transform="translate(250.631 174.594)" style="fill:#231f20;font-family:'Asap-Regular';font-size:7px">2,400</text><text transform="translate(286.575 174.594)" style="fill:#231f20;font-family:'Asap-Regular';font-size:7px">2,800</text></svg>