<svg version="1.1" xmlns="http://www.w3.org/2000/svg" x="0" y="0" viewBox="0 0 311.81 191.68" style="enable-background:new 0 0 311.81 191.68" xml:space="preserve"><polyline style="fill:none;stroke:#4971b8;stroke-width:.5;stroke-linecap:round;stroke-linejoin:round;stroke-miterlimit:10" points="83.01 5.86 83.65 7.19 87.01 13.6 90.37 19.48 93.73 24.91 97.09 29.91 100.45 34.67 103.81 39.05 107.17 43.19 110.53 47.11 113.89 50.78 117.25 54.29 120.61 57.64 123.97 60.79 127.33 63.79 130.69 66.68 134.06 69.47 137.42 72.1 140.78 74.63 144.14 77.06 147.5 79.39 150.86 81.66 154.22 83.83 157.58 85.89 160.88 87.91 164.24 89.82 167.6 91.73 170.96 93.53 174.32 95.24 177.68 96.94 181.04 98.59 184.4 100.2 187.76 101.69 191.12 103.19 194.48 104.64 197.84 106.03 201.21 107.43 204.57 108.72 207.93 110.01 211.29 111.25 214.65 112.49 218.01 113.67 221.37 114.81 224.73 115.89 228.09 116.98 231.45 118.06 234.81 119.1 238.17 120.08 241.53 121.06 244.89 121.99 248.25 122.92 251.61 123.79 254.97 124.67 258.33 125.55 261.69 126.38 265.05 127.2 268.41 127.98 271.77 128.75 275.14 129.53 278.5 130.25 281.86 130.97 285.22 131.64 288.58 132.37"/><line style="fill:none;stroke:#ea2728;stroke-width:.5;stroke-linejoin:round" x1="51.72" y1="22.73" x2="289.72" y2="164.77"/><line style="fill:none;stroke:#6d6e71;stroke-width:.5;stroke-linecap:square" x1="51.72" y1="164.77" x2="289.72" y2="164.77"/><text transform="translate(43.382 167.04)" style="font-family:'Asap-Regular';font-size:7px">0</text><text transform="translate(30.76 144.321)" style="font-family:'Asap-Regular';font-size:7px">1,000</text><text transform="translate(30.76 121.602)" style="font-family:'Asap-Regular';font-size:7px">2,000</text><text transform="translate(30.76 98.883)" style="font-family:'Asap-Regular';font-size:7px">3,000</text><text transform="translate(30.76 76.164)" style="font-family:'Asap-Regular';font-size:7px">4,000</text><text transform="translate(30.761 53.445)" style="font-family:'Asap-Regular';font-size:7px">5,000</text><text transform="translate(30.761 30.726)" style="font-family:'Asap-Regular';font-size:7px">6,000</text><text transform="matrix(0 -.9726 1 0 14.48 113.447)" style="font-family:'Asap-Medium';font-size:8px">Consumption ($)</text><text transform="translate(49.734 177.099)" style="font-family:'Asap-Regular';font-size:7px">0</text><text transform="translate(66.742 177.091)" style="font-family:'Asap-Regular';font-size:7px">5</text><text transform="translate(81.878 177.098)" style="font-family:'Asap-Regular';font-size:7px">10</text><text transform="translate(98.886 177.07)" style="font-family:'Asap-Regular';font-size:7px">15</text><text transform="translate(115.894 177.098)" style="font-family:'Asap-Regular';font-size:7px">20</text><text transform="translate(132.902 177.099)" style="font-family:'Asap-Regular';font-size:7px">25</text><text transform="translate(149.91 177.07)" style="font-family:'Asap-Regular';font-size:7px">30</text><text transform="translate(166.918 177.07)" style="font-family:'Asap-Regular';font-size:7px">35</text><text transform="translate(183.926 177.07)" style="font-family:'Asap-Regular';font-size:7px">40</text><text transform="translate(200.933 177.07)" style="font-family:'Asap-Regular';font-size:7px">45</text><text transform="translate(217.941 177.098)" style="font-family:'Asap-Regular';font-size:7px">50</text><text transform="translate(234.95 177.09)" style="font-family:'Asap-Regular';font-size:7px">55</text><text transform="translate(251.957 177.098)" style="font-family:'Asap-Regular';font-size:7px">60</text><text transform="translate(268.965 177.099)" style="font-family:'Asap-Regular';font-size:7px">65</text><text transform="translate(285.973 177.099)" style="font-family:'Asap-Regular';font-size:7px">70</text><text transform="translate(148.225 189.28)" style="font-family:'Asap-Medium';font-size:8px">Days of free time</text><text transform="translate(30.761 8.007)" style="font-family:'Asap-Regular';font-size:7px">7,000</text><line style="fill:none;stroke:#6d6e71;stroke-width:.5;stroke-linecap:square" x1="49.59" y1="164.77" x2="51.72" y2="164.77"/><line style="fill:none;stroke:#6d6e71;stroke-width:.5;stroke-linecap:square" x1="49.59" y1="142.07" x2="51.72" y2="142.07"/><line style="fill:none;stroke:#6d6e71;stroke-width:.5;stroke-linecap:square" x1="49.59" y1="119.37" x2="51.72" y2="119.37"/><line style="fill:none;stroke:#6d6e71;stroke-width:.5;stroke-linecap:square" x1="49.59" y1="96.67" x2="51.72" y2="96.67"/><line style="fill:none;stroke:#6d6e71;stroke-width:.5;stroke-linecap:square" x1="49.59" y1="73.96" x2="51.72" y2="73.96"/><line style="fill:none;stroke:#6d6e71;stroke-width:.5;stroke-linecap:square" x1="49.59" y1="51.26" x2="51.72" y2="51.26"/><line style="fill:none;stroke:#6d6e71;stroke-width:.5;stroke-linecap:square" x1="49.59" y1="28.56" x2="51.72" y2="28.56"/><line style="fill:none;stroke:#6d6e71;stroke-width:.5;stroke-linecap:square" x1="49.59" y1="5.86" x2="51.72" y2="5.86"/><line style="fill:none;stroke:#6d6e71;stroke-width:.5;stroke-linecap:square" x1="51.72" y1="164.86" x2="51.72" y2="166.99"/><line style="fill:none;stroke:#6d6e71;stroke-width:.5;stroke-linecap:square" x1="68.62" y1="164.86" x2="68.62" y2="166.99"/><line style="fill:none;stroke:#6d6e71;stroke-width:.5;stroke-linecap:square" x1="85.62" y1="164.86" x2="85.62" y2="166.99"/><line style="fill:none;stroke:#6d6e71;stroke-width:.5;stroke-linecap:square" x1="102.63" y1="164.86" x2="102.63" y2="166.99"/><line style="fill:none;stroke:#6d6e71;stroke-width:.5;stroke-linecap:square" x1="119.64" y1="164.86" x2="119.64" y2="166.99"/><line style="fill:none;stroke:#6d6e71;stroke-width:.5;stroke-linecap:square" x1="136.65" y1="164.86" x2="136.65" y2="166.99"/><line style="fill:none;stroke:#6d6e71;stroke-width:.5;stroke-linecap:square" x1="153.65" y1="164.86" x2="153.65" y2="166.99"/><line style="fill:none;stroke:#6d6e71;stroke-width:.5;stroke-linecap:square" x1="170.66" y1="164.86" x2="170.66" y2="166.99"/><line style="fill:none;stroke:#6d6e71;stroke-width:.5;stroke-linecap:square" x1="187.67" y1="164.86" x2="187.67" y2="166.99"/><line style="fill:none;stroke:#6d6e71;stroke-width:.5;stroke-linecap:square" x1="204.68" y1="164.86" x2="204.68" y2="166.99"/><line style="fill:none;stroke:#6d6e71;stroke-width:.5;stroke-linecap:square" x1="221.69" y1="164.86" x2="221.69" y2="166.99"/><line style="fill:none;stroke:#6d6e71;stroke-width:.5;stroke-linecap:square" x1="238.69" y1="164.86" x2="238.69" y2="166.99"/><line style="fill:none;stroke:#6d6e71;stroke-width:.5;stroke-linecap:square" x1="255.7" y1="164.86" x2="255.7" y2="166.99"/><line style="fill:none;stroke:#6d6e71;stroke-width:.5;stroke-linecap:square" x1="272.71" y1="164.86" x2="272.71" y2="166.99"/><line style="fill:none;stroke:#6d6e71;stroke-width:.5;stroke-linecap:square" x1="289.72" y1="164.86" x2="289.72" y2="166.99"/><text transform="translate(174.608 91.184)" style="font-family:'Asap-Regular';font-size:7px">A</text><line style="fill:none;stroke:#6d6e71;stroke-width:.5;stroke-linecap:square;stroke-linejoin:round" x1="51.72" y1="6.02" x2="51.72" y2="164.77"/><path style="fill:none;stroke:#2f5598;stroke-width:.5;stroke-linecap:round;stroke-linejoin:round;stroke-miterlimit:10" d="M60.64 5.86c5.5 23.13 14.85 45.08 31.12 64.12 44.5 52.81 126.62 67.76 196.82 76.08"/><circle style="fill:#000101" cx="170.49" cy="93.5" r="1.13"/></svg>