<svg xmlns="http://www.w3.org/2000/svg" class="prefix__svglite" viewBox="0 0 810 549"><rect width="100%" height="100%" style="stroke:none;fill:#fff;stroke-linecap:round;stroke-linejoin:round;stroke-miterlimit:10"/><defs><clipPath id="prefix__a"><rect x="0" y="0" width="810" height="549" style="fill:none;stroke:#000;stroke-linecap:round;stroke-linejoin:round;stroke-miterlimit:10"/></clipPath></defs><g clip-path="url(#prefix__a)"><rect x="0" y="0" width="810" height="549" style="stroke-width:1.07;stroke:#fff;fill:#fff;stroke-linecap:round;stroke-linejoin:round;stroke-miterlimit:10"/><rect x="116.19" y="14.17" width="679.64" height="431.84" style="stroke-width:1.07;stroke:none;fill:#fff;stroke-linecap:round;stroke-linejoin:round;stroke-miterlimit:10"/><polyline points="116.19 446.01 795.83 446.01" style="stroke-width:1.07;stroke:#c6c4c4;stroke-linecap:butt;fill:none;stroke-linejoin:round;stroke-miterlimit:10"/><polyline points="116.19 392.03 795.83 392.03" style="stroke-width:1.07;stroke:#c6c4c4;stroke-linecap:butt;fill:none;stroke-linejoin:round;stroke-miterlimit:10"/><polyline points="116.19 338.05 795.83 338.05" style="stroke-width:1.07;stroke:#c6c4c4;stroke-linecap:butt;fill:none;stroke-linejoin:round;stroke-miterlimit:10"/><polyline points="116.19 284.07 795.83 284.07" style="stroke-width:1.07;stroke:#c6c4c4;stroke-linecap:butt;fill:none;stroke-linejoin:round;stroke-miterlimit:10"/><polyline points="116.19 230.09 795.83 230.09" style="stroke-width:1.07;stroke:#c6c4c4;stroke-linecap:butt;fill:none;stroke-linejoin:round;stroke-miterlimit:10"/><polyline points="116.19 176.11 795.83 176.11" style="stroke-width:1.07;stroke:#c6c4c4;stroke-linecap:butt;fill:none;stroke-linejoin:round;stroke-miterlimit:10"/><polyline points="116.19 122.13 795.83 122.13" style="stroke-width:1.07;stroke:#c6c4c4;stroke-linecap:butt;fill:none;stroke-linejoin:round;stroke-miterlimit:10"/><polyline points="116.19 68.15 795.83 68.15" style="stroke-width:1.07;stroke:#c6c4c4;stroke-linecap:butt;fill:none;stroke-linejoin:round;stroke-miterlimit:10"/><polyline points="116.19 14.17 795.83 14.17" style="stroke-width:1.07;stroke:#c6c4c4;stroke-linecap:butt;fill:none;stroke-linejoin:round;stroke-miterlimit:10"/><polyline points="116.19 429.89 123.57 429.86 130.96 428.34 138.35 428.51 145.74 428.51 153.12 428.14 160.51 427.95 167.9 427.01 175.29 427.73 182.67 424.35 190.06 425.12 197.45 428.62 204.84 424.69 212.22 423.26 219.61 428.24 227 427.81 249.16 436.12 256.55 435.9 263.93 434.15 271.32 433.17 278.71 435.24 286.1 435.31 293.48 434.8 300.87 431.79 308.26 431.19 315.65 430.78 323.03 431.09 330.42 430.17 337.81 429.62 345.2 429.21 352.58 429.3 359.97 428.67 367.36 428.52 374.75 427.43 382.13 426.2 389.52 425.32 396.91 423.4 404.29 421.91 411.68 419.37 419.07 416.17 426.46 413.89 433.84 411.23 441.23 409.43 448.62 404.75 456.01 401.61 463.39 398.92 470.78 393.59 478.17 388.06 485.56 382.79 492.94 378.36 500.33 380.54 507.72 376.93 515.11 372.37 522.49 363.83 529.88 356.36 537.27 350.37 544.66 340.69 552.04 328.71 559.43 316.03 566.82 308.27 574.2 296.23 581.59 283.47 588.98 276.39 596.37 267.85 603.75 254.71 611.14 239.93 618.53 227.88 625.92 218.69 633.3 234.14 640.69 213.46 648.08 196.54 655.47 189.02 662.85 173.4 670.24 168.78 677.63 158.33 685.02 149.74 692.4 138.15 699.79 125.19 707.18 120.86 714.57 122.48 721.95 105.53 729.34 98.11 736.73 92 744.12 83.4 751.5 73.63 758.89 65.25 766.28 56.25 773.66 45.56 781.05 36.54" style="stroke-width:1.07;stroke:#009147;stroke-linecap:butt;fill:none;stroke-linejoin:round;stroke-miterlimit:10"/><polyline points="116.19 372.17 123.57 370.86 130.96 375.81 138.35 382.13 145.74 385.4 153.12 383.7 160.51 379.84 167.9 378.04 175.29 378.69 182.67 375.03 190.06 375.93 197.45 374.63 204.84 374.4 212.22 371.94 219.61 372.29 227 374.05 234.38 367.21 241.77 371.05 249.16 365.73 256.55 358.43 263.93 355.63 271.32 359.16 278.71 360.19 286.1 358.72 293.48 364.84 300.87 362.14 308.26 360.31 315.65 355.89 323.03 355.07 330.42 352.03 337.81 347.95 345.2 355.82 352.58 350.35 359.97 345.13 367.36 348.32 374.75 352.14 382.13 344.03 389.52 336.38 396.91 337.23 404.29 335.89 411.68 332.82 419.07 324.91 426.46 320.36 433.84 316.43 441.23 314.62 448.62 309 456.01 302.6 463.39 306.25 470.78 308.95 478.17 303.12 485.56 311.67 492.94 304.43 500.33 304.8 507.72 315.11 515.11 321.32 522.49 318.89 529.88 318.22 537.27 328.39 544.66 321.7 552.04 320.42 559.43 324.62 566.82 333.81 574.2 335.31 581.59 324.84 588.98 313.58 596.37 306.45 603.75 299.5 611.14 304.74 618.53 297.94 625.92 287.06 633.3 282.06 640.69 288.63 648.08 290.88 655.47 298.62 662.85 315.43 670.24 304.7 677.63 292.89 685.02 280.36 692.4 267.99 699.79 252.85 707.18 246.07 714.57 258.93 721.95 241.1 729.34 230.06 736.73 234.42 744.12 231.46 751.5 238.91 758.89 235.47 766.28 242.24 773.66 238.72 781.05 245.68" style="stroke-width:1.07;stroke:#f49323;stroke-linecap:butt;fill:none;stroke-linejoin:round;stroke-miterlimit:10"/><polyline points="352.58 386.02 359.97 382.6 367.36 378.76 374.75 376.86 382.13 373.1 389.52 369.71 396.91 364.86 404.29 360.26 411.68 355.42 419.07 353.57 426.46 346.32 433.84 342.73 441.23 340.37 448.62 332.74 456.01 329.4 463.39 325.49 470.78 322.66 478.17 319.78 485.56 318.31 492.94 317.9 500.33 314.26 507.72 313.5 515.11 313.58 522.49 311.93 529.88 312.37 537.27 311.33 544.66 308.97 552.04 310.01 559.43 308.69 566.82 308.19 574.2 312.14 581.59 316.33 588.98 332.78 596.37 340.33 603.75 351.61 611.14 353.32 618.53 354.47 625.92 350.87 633.3 353.63 640.69 345.18 648.08 332.08 655.47 323.03 662.85 313.66 670.24 300.04 677.63 285.36 685.02 270.65 692.4 251.6 699.79 229.9 707.18 213.22 714.57 226.46 721.95 211.34 729.34 196.3 736.73 187.65 744.12 184.49 751.5 182.73 758.89 190.24 766.28 190.85 773.66 186.44 781.05 179.69" style="stroke-width:1.07;stroke:#7f8182;stroke-linecap:butt;fill:none;stroke-linejoin:round;stroke-miterlimit:10"/><polyline points="116.19 422.43 123.57 422.16 130.96 421.09 138.35 420.86 145.74 421.25 153.12 420.32 160.51 417.96 167.9 413.94 175.29 411.74 182.67 408.91 190.06 409.01 197.45 407.51 204.84 409.12 249.16 413.09 256.55 409.42 263.93 404.67 271.32 400.87 278.71 397.12 286.1 397.72 293.48 395.46 300.87 394.16 308.26 392.56 315.65 389 323.03 384.65 330.42 384.47 337.81 381.02 345.2 382.88 352.58 378.13 359.97 375.49 367.36 374.77 374.75 377.44 382.13 369.62 389.52 366.26 396.91 363.35 404.29 360.6 411.68 356.49 419.07 356.09 426.46 350.08 433.84 348.49 441.23 348.9 448.62 341.74 456.01 339.74 463.39 340.44 470.78 336.51 478.17 334.94 485.56 333.14 492.94 334.64 500.33 335.41 507.72 335.31 515.11 333.54 522.49 330.94 529.88 330.56 537.27 330.58 544.66 326.88 552.04 326.38 559.43 324.82 566.82 323.63 574.2 327.37 581.59 333.86 588.98 349.09 596.37 357.48 603.75 368.65 611.14 371.65 618.53 372.74 625.92 370.09 633.3 370.7 640.69 365.91 648.08 357.55 655.47 350.47 662.85 343.58 670.24 333.83 677.63 322.62 685.02 311.86 692.4 297.57 699.79 281.74 707.18 270.83 714.57 279.57 721.95 269.55 729.34 258.26 736.73 251.63 744.12 246.86 751.5 243.8 758.89 246.51 766.28 244.83 773.66 239.25 781.05 235.07" style="stroke-width:1.07;stroke-linecap:butt;fill:none;stroke:#000;stroke-linejoin:round;stroke-miterlimit:10"/><polyline points="116.19 429.9 123.57 430.2 130.96 431.44 138.35 432.04 145.74 431.85 153.12 431.04 160.51 430.13 167.9 430.01 175.29 428.83 182.67 428.63 190.06 428.27 197.45 428.45 204.84 428.63 212.22 427.84 219.61 428.91 227 426.98 234.38 426.74 241.77 426.66 249.16 425.13 256.55 424.89 263.93 423.38 271.32 422.22 278.71 421.87 286.1 421.41 293.48 420.35 300.87 419.91 308.26 418.69 315.65 417.13 323.03 417.16 330.42 415.86 337.81 413.57 345.2 411.45 352.58 409.33 359.97 407.31 367.36 405.95 374.75 406.9 382.13 406.75 389.52 406.96 396.91 405.56 404.29 405.04 411.68 402.29 419.07 399.45 426.46 395.97 433.84 391.77 441.23 386.85 448.62 380.31 456.01 376.74 463.39 374.95 470.78 369.59 478.17 367.76 485.56 365.85 492.94 362.49 500.33 356.96 507.72 362.79 515.11 364.1 522.49 368.25 529.88 365.71 537.27 361.13 544.66 356.61 552.04 355.3 559.43 357.16 566.82 356.05 574.2 361.35 581.59 360.85 588.98 361.66 596.37 357.85 603.75 352.99 611.14 349.37 618.53 347.5 625.92 344.42 633.3 344.32 640.69 344.08 648.08 339.84 655.47 338.56 662.85 335.41 670.24 334.22 677.63 327.8 685.02 323.95 692.4 318.98 699.79 311.06 707.18 303.89 714.57 303.71 721.95 292.54 729.34 285.9 736.73 284.23 744.12 280.77 751.5 281.29 758.89 275.15 766.28 296.24 773.66 295.39 781.05 294.5" style="stroke-width:1.07;stroke:#ed1f24;stroke-linecap:butt;fill:none;stroke-linejoin:round;stroke-miterlimit:10"/><polyline points="278.71 440.73 286.1 440.65 293.48 440.57 300.87 440.47 308.26 440.39 315.65 440.3 323.03 440.21 330.42 440.14 337.81 440.07 345.2 439.98 352.58 439.92 359.97 439.8 367.36 439.73 374.75 439.63 382.13 439.49 389.52 439.4 396.91 438.85 404.29 438.25 411.68 437.58 419.07 436.91 426.46 436.22 433.84 434 441.23 431.32 448.62 428.86 456.01 428.13 463.39 427.53 470.78 426.57 478.17 425.62 485.56 424.37 492.94 422.43 500.33 420.66 507.72 418.72 515.11 417.51 522.49 415.26 529.88 412.28 537.27 410.37 544.66 408.96 552.04 407.13 559.43 403.69 566.82 391.32 574.2 389.15 581.59 385.38 588.98 384.11 596.37 383.54 603.75 381.82 611.14 377.8 618.53 374.24 625.92 368.8 633.3 368.44 640.69 360.98 648.08 359.17 655.47 358.75 662.85 353.12 670.24 348.38 677.63 345.28 685.02 340.23 692.4 330.86 699.79 320.76 707.18 312.3 714.57 321.91 721.95 310.58 729.34 301.6 736.73 297.64 744.12 285.66 751.5 283.19 758.89 286.18 766.28 281.93 773.66 279.79 781.05 274.98" style="stroke-width:1.07;stroke:#b9519e;stroke-linecap:butt;fill:none;stroke-linejoin:round;stroke-miterlimit:10"/><polyline points="278.71 433.06 286.1 432.39 293.48 431.73 300.87 431.71 308.26 431.09 315.65 431.12 323.03 431.88 330.42 431.73 337.81 432.3 345.2 432.11 352.58 431.9 359.97 431.84 367.36 431.45 374.75 430.54 382.13 430.35 389.52 429.76 396.91 430.75 404.29 433.49 411.68 433.98 419.07 431.2 426.46 427.18 433.84 425.56 441.23 425.41 448.62 424.29 456.01 422.49 463.39 423.87 470.78 422.17 478.17 422.04 485.56 424.12 492.94 423.3 500.33 423.56 507.72 425.98 515.11 426.75 522.49 428.4 529.88 429.53 537.27 428.51 544.66 428.63 552.04 429.21 559.43 428.01 566.82 427.34 574.2 426.87 581.59 427.02 588.98 426.64 596.37 426.38 603.75 426.36 611.14 426.03 618.53 425.24 625.92 424.67 633.3 424.14 640.69 424.04 648.08 422.85 655.47 421.36 662.85 417.84 670.24 415.26 677.63 412.14 685.02 409.87 692.4 407.52 699.79 404.8 707.18 401.92 714.57 398.34 721.95 393.06 729.34 390.56 736.73 389.62 744.12 388.04 751.5 385.89 758.89 385.79 766.28 388.14 773.66 389.11 781.05 389.46" style="stroke-width:1.07;stroke:#4dd9ff;stroke-linecap:butt;fill:none;stroke-linejoin:round;stroke-miterlimit:10"/><circle cx="781.05" cy="36.54" r="3.8" style="stroke-width:1.2;stroke:#009147;fill:#009147;stroke-linecap:round;stroke-linejoin:round;stroke-miterlimit:10"/><circle cx="781.05" cy="245.68" r="3.8" style="stroke-width:1.2;stroke:#f49323;fill:#f49323;stroke-linecap:round;stroke-linejoin:round;stroke-miterlimit:10"/><polygon points="777.25 183.49 784.85 183.49 784.85 175.88 777.25 175.88" style="stroke-width:1.2;stroke:none;fill:#7f8182;stroke-linecap:round;stroke-linejoin:round;stroke-miterlimit:10"/><circle cx="781.05" cy="235.07" r="3.8" style="stroke-width:1.2;fill:#000;stroke:#000;stroke-linecap:round;stroke-linejoin:round;stroke-miterlimit:10"/><polygon points="777.25 298.3 784.85 298.3 784.85 290.7 777.25 290.7" style="stroke-width:1.2;stroke:none;fill:#ed1f24;stroke-linecap:round;stroke-linejoin:round;stroke-miterlimit:10"/><polygon points="781.05 269.07 786.17 277.94 775.93 277.94" style="stroke-width:1.2;stroke:none;fill:#b9519e;stroke-linecap:round;stroke-linejoin:round;stroke-miterlimit:10"/><circle cx="781.05" cy="389.46" r="3.8" style="stroke-width:1.2;stroke:#4dd9ff;fill:#4dd9ff;stroke-linecap:round;stroke-linejoin:round;stroke-miterlimit:10"/><polyline points="116.19 446.01 116.19 14.17" style="stroke-width:1.07;stroke:#464646;stroke-linecap:butt;fill:none;stroke-linejoin:round;stroke-miterlimit:10"/><text x="89.5" y="450.42" style="font-size:18px;font-family:Asap" textLength="9.63" lengthAdjust="spacingAndGlyphs">0</text><text x="57.04" y="396.44" style="font-size:18px;font-family:Asap" textLength="42.1" lengthAdjust="spacingAndGlyphs">5,000</text><text x="47.41" y="342.46" style="font-size:18px;font-family:Asap" textLength="51.73" lengthAdjust="spacingAndGlyphs">10,000</text><text x="47.41" y="288.48" style="font-size:18px;font-family:Asap" textLength="51.73" lengthAdjust="spacingAndGlyphs">15,000</text><text x="47.41" y="234.5" style="font-size:18px;font-family:Asap" textLength="51.73" lengthAdjust="spacingAndGlyphs">20,000</text><text x="47.41" y="180.52" style="font-size:18px;font-family:Asap" textLength="51.73" lengthAdjust="spacingAndGlyphs">25,000</text><text x="47.41" y="126.54" style="font-size:18px;font-family:Asap" textLength="51.73" lengthAdjust="spacingAndGlyphs">30,000</text><text x="47.41" y="72.56" style="font-size:18px;font-family:Asap" textLength="51.73" lengthAdjust="spacingAndGlyphs">35,000</text><text x="47.41" y="18.58" style="font-size:18px;font-family:Asap" textLength="51.73" lengthAdjust="spacingAndGlyphs">40,000</text><polyline points="109.1 446.01 116.19 446.01" style="stroke-width:1.07;stroke:#464646;stroke-linecap:butt;fill:none;stroke-linejoin:round;stroke-miterlimit:10"/><polyline points="109.1 392.03 116.19 392.03" style="stroke-width:1.07;stroke:#464646;stroke-linecap:butt;fill:none;stroke-linejoin:round;stroke-miterlimit:10"/><polyline points="109.1 338.05 116.19 338.05" style="stroke-width:1.07;stroke:#464646;stroke-linecap:butt;fill:none;stroke-linejoin:round;stroke-miterlimit:10"/><polyline points="109.1 284.07 116.19 284.07" style="stroke-width:1.07;stroke:#464646;stroke-linecap:butt;fill:none;stroke-linejoin:round;stroke-miterlimit:10"/><polyline points="109.1 230.09 116.19 230.09" style="stroke-width:1.07;stroke:#464646;stroke-linecap:butt;fill:none;stroke-linejoin:round;stroke-miterlimit:10"/><polyline points="109.1 176.11 116.19 176.11" style="stroke-width:1.07;stroke:#464646;stroke-linecap:butt;fill:none;stroke-linejoin:round;stroke-miterlimit:10"/><polyline points="109.1 122.13 116.19 122.13" style="stroke-width:1.07;stroke:#464646;stroke-linecap:butt;fill:none;stroke-linejoin:round;stroke-miterlimit:10"/><polyline points="109.1 68.15 116.19 68.15" style="stroke-width:1.07;stroke:#464646;stroke-linecap:butt;fill:none;stroke-linejoin:round;stroke-miterlimit:10"/><polyline points="109.1 14.17 116.19 14.17" style="stroke-width:1.07;stroke:#464646;stroke-linecap:butt;fill:none;stroke-linejoin:round;stroke-miterlimit:10"/><polyline points="116.19 446.01 795.83 446.01" style="stroke-width:1.07;stroke:#464646;stroke-linecap:butt;fill:none;stroke-linejoin:round;stroke-miterlimit:10"/><polyline points="116.19 453.1 116.19 446.01" style="stroke-width:1.07;stroke:#464646;stroke-linecap:butt;fill:none;stroke-linejoin:round;stroke-miterlimit:10"/><polyline points="204.84 453.1 204.84 446.01" style="stroke-width:1.07;stroke:#464646;stroke-linecap:butt;fill:none;stroke-linejoin:round;stroke-miterlimit:10"/><polyline points="278.71 453.1 278.71 446.01" style="stroke-width:1.07;stroke:#464646;stroke-linecap:butt;fill:none;stroke-linejoin:round;stroke-miterlimit:10"/><polyline points="352.58 453.1 352.58 446.01" style="stroke-width:1.07;stroke:#464646;stroke-linecap:butt;fill:none;stroke-linejoin:round;stroke-miterlimit:10"/><polyline points="426.46 453.1 426.46 446.01" style="stroke-width:1.07;stroke:#464646;stroke-linecap:butt;fill:none;stroke-linejoin:round;stroke-miterlimit:10"/><polyline points="500.33 453.1 500.33 446.01" style="stroke-width:1.07;stroke:#464646;stroke-linecap:butt;fill:none;stroke-linejoin:round;stroke-miterlimit:10"/><polyline points="574.2 453.1 574.2 446.01" style="stroke-width:1.07;stroke:#464646;stroke-linecap:butt;fill:none;stroke-linejoin:round;stroke-miterlimit:10"/><polyline points="648.08 453.1 648.08 446.01" style="stroke-width:1.07;stroke:#464646;stroke-linecap:butt;fill:none;stroke-linejoin:round;stroke-miterlimit:10"/><polyline points="721.95 453.1 721.95 446.01" style="stroke-width:1.07;stroke:#464646;stroke-linecap:butt;fill:none;stroke-linejoin:round;stroke-miterlimit:10"/><polyline points="795.83 453.1 795.83 446.01" style="stroke-width:1.07;stroke:#464646;stroke-linecap:butt;fill:none;stroke-linejoin:round;stroke-miterlimit:10"/><text transform="rotate(-90 311.095 190.495)" style="font-size:18px;font-family:Asap" textLength="38.53" lengthAdjust="spacingAndGlyphs">1928</text><text transform="rotate(-90 355.42 146.17)" style="font-size:18px;font-family:Asap" textLength="38.53" lengthAdjust="spacingAndGlyphs">1940</text><text transform="rotate(-90 392.355 109.235)" style="font-size:18px;font-family:Asap" textLength="38.53" lengthAdjust="spacingAndGlyphs">1950</text><text transform="rotate(-90 429.29 72.3)" style="font-size:18px;font-family:Asap" textLength="38.53" lengthAdjust="spacingAndGlyphs">1960</text><text transform="rotate(-90 466.23 35.36)" style="font-size:18px;font-family:Asap" textLength="38.53" lengthAdjust="spacingAndGlyphs">1970</text><text transform="rotate(-90 503.165 -1.575)" style="font-size:18px;font-family:Asap" textLength="38.53" lengthAdjust="spacingAndGlyphs">1980</text><text transform="rotate(-90 540.1 -38.51)" style="font-size:18px;font-family:Asap" textLength="38.53" lengthAdjust="spacingAndGlyphs">1990</text><text transform="rotate(-90 577.04 -75.45)" style="font-size:18px;font-family:Asap" textLength="38.53" lengthAdjust="spacingAndGlyphs">2000</text><text transform="rotate(-90 613.975 -112.385)" style="font-size:18px;font-family:Asap" textLength="38.53" lengthAdjust="spacingAndGlyphs">2010</text><text transform="rotate(-90 650.915 -149.325)" style="font-size:18px;font-family:Asap" textLength="38.53" lengthAdjust="spacingAndGlyphs">2020</text><text x="435.92" y="530.59" style="font-size:20px;font-weight:600;font-family:Asap" textLength="40.18" lengthAdjust="spacingAndGlyphs">Year</text><text transform="rotate(-90 226.015 197.795)" style="font-size:20px;font-weight:600;font-family:Asap" textLength="52.04" lengthAdjust="spacingAndGlyphs">Living</text><text transform="rotate(-90 197.59 169.37)" style="font-size:20px;font-weight:600;font-family:Asap" textLength="86.23" lengthAdjust="spacingAndGlyphs">standards</text><text transform="rotate(-90 152.075 123.855)" style="font-size:20px;font-weight:600;font-family:Asap" textLength="44.76" lengthAdjust="spacingAndGlyphs">(GDP</text><text transform="rotate(-90 127.295 99.075)" style="font-size:20px;font-weight:600;font-family:Asap" textLength="29.56" lengthAdjust="spacingAndGlyphs">per</text><text transform="rotate(-90 110.11 81.89)" style="font-size:20px;font-weight:600;font-family:Asap" textLength="59.06" lengthAdjust="spacingAndGlyphs">capita,</text><text transform="rotate(-90 78.18 49.96)" style="font-size:20px;font-weight:600;font-family:Asap" textLength="42.8" lengthAdjust="spacingAndGlyphs">2011</text><text transform="rotate(-90 54.38 26.16)" style="font-size:20px;font-weight:600;font-family:Asap" textLength="44.16" lengthAdjust="spacingAndGlyphs">USD)</text><rect x="420.64" y="13.7" width="206.65" height="173.69" style="stroke-width:1.07;stroke:none;fill:#fff;stroke-linecap:round;stroke-linejoin:round;stroke-miterlimit:10"/><line x1="437.65" y1="44.15" x2="460.33" y2="44.15" style="stroke-width:1.07;stroke:#009147;stroke-linecap:butt;fill:none;stroke-linejoin:round;stroke-miterlimit:10"/><circle cx="457.49" cy="44.15" r="5.7" style="stroke-width:1.2;stroke:#009147;fill:#009147;stroke-linecap:round;stroke-linejoin:round;stroke-miterlimit:10"/><line x1="437.65" y1="65.75" x2="460.33" y2="65.75" style="stroke-width:1.07;stroke:#f49323;stroke-linecap:butt;fill:none;stroke-linejoin:round;stroke-miterlimit:10"/><circle cx="457.49" cy="65.75" r="5.7" style="stroke-width:1.2;stroke:#f49323;fill:#f49323;stroke-linecap:round;stroke-linejoin:round;stroke-miterlimit:10"/><line x1="437.65" y1="87.35" x2="460.33" y2="87.35" style="stroke-width:1.07;stroke:#7f8182;stroke-linecap:butt;fill:none;stroke-linejoin:round;stroke-miterlimit:10"/><polygon points="451.79 93.05 463.2 93.05 463.2 81.65 451.79 81.65" style="stroke-width:1.2;stroke:none;fill:#7f8182;stroke-linecap:round;stroke-linejoin:round;stroke-miterlimit:10"/><line x1="437.65" y1="108.95" x2="460.33" y2="108.95" style="stroke-width:1.07;stroke-linecap:butt;fill:none;stroke:#000;stroke-linejoin:round;stroke-miterlimit:10"/><circle cx="457.49" cy="108.95" r="5.7" style="stroke-width:1.2;fill:#000;stroke:#000;stroke-linecap:round;stroke-linejoin:round;stroke-miterlimit:10"/><line x1="437.65" y1="130.55" x2="460.33" y2="130.55" style="stroke-width:1.07;stroke:#ed1f24;stroke-linecap:butt;fill:none;stroke-linejoin:round;stroke-miterlimit:10"/><polygon points="451.79 136.25 463.2 136.25 463.2 124.85 451.79 124.85" style="stroke-width:1.2;stroke:none;fill:#ed1f24;stroke-linecap:round;stroke-linejoin:round;stroke-miterlimit:10"/><line x1="437.65" y1="152.15" x2="460.33" y2="152.15" style="stroke-width:1.07;stroke:#b9519e;stroke-linecap:butt;fill:none;stroke-linejoin:round;stroke-miterlimit:10"/><polygon points="457.49 143.28 465.17 156.58 449.81 156.58" style="stroke-width:1.2;stroke:none;fill:#b9519e;stroke-linecap:round;stroke-linejoin:round;stroke-miterlimit:10"/><line x1="437.65" y1="173.75" x2="460.33" y2="173.75" style="stroke-width:1.07;stroke:#4dd9ff;stroke-linecap:butt;fill:none;stroke-linejoin:round;stroke-miterlimit:10"/><circle cx="457.49" cy="173.75" r="5.7" style="stroke-width:1.2;stroke:#4dd9ff;fill:#4dd9ff;stroke-linecap:round;stroke-linejoin:round;stroke-miterlimit:10"/><text x="468.64" y="48.07" style="font-size:16px;font-family:Asap" textLength="40.52" lengthAdjust="spacingAndGlyphs">South</text><text x="513" y="48.07" style="font-size:16px;font-family:Asap" textLength="41.52" lengthAdjust="spacingAndGlyphs">Korea</text><text x="468.64" y="69.67" style="font-size:16px;font-family:Asap" textLength="69.28" lengthAdjust="spacingAndGlyphs">Argentina</text><text x="468.64" y="91.27" style="font-size:16px;font-family:Asap" textLength="53.76" lengthAdjust="spacingAndGlyphs">Russian</text><text x="526.24" y="91.27" style="font-size:16px;font-family:Asap" textLength="76.64" lengthAdjust="spacingAndGlyphs">Federation</text><text x="468.64" y="112.87" style="font-size:16px;font-family:Asap" textLength="51.05" lengthAdjust="spacingAndGlyphs">Former</text><text x="523.53" y="112.87" style="font-size:16px;font-family:Asap" textLength="43.2" lengthAdjust="spacingAndGlyphs">Soviet</text><text x="570.57" y="112.87" style="font-size:16px;font-family:Asap" textLength="42.56" lengthAdjust="spacingAndGlyphs">Union</text><text x="468.64" y="134.47" style="font-size:16px;font-family:Asap" textLength="40.88" lengthAdjust="spacingAndGlyphs">Brazil</text><text x="468.64" y="156.07" style="font-size:16px;font-family:Asap" textLength="68.98" lengthAdjust="spacingAndGlyphs">Botswana</text><text x="468.64" y="177.67" style="font-size:16px;font-family:Asap" textLength="51.92" lengthAdjust="spacingAndGlyphs">Nigeria</text></g></svg>