<svg xmlns="http://www.w3.org/2000/svg" class="prefix__svglite" viewBox="0 0 810 600"><rect width="100%" height="100%" style="stroke:none;fill:#fff;stroke-linecap:round;stroke-linejoin:round;stroke-miterlimit:10"/><defs><clipPath id="prefix__a"><rect x="0" y="0" width="810" height="600" style="fill:none;stroke:#000;stroke-linecap:round;stroke-linejoin:round;stroke-miterlimit:10"/></clipPath></defs><g clip-path="url(#prefix__a)"><rect x="0" y="0" width="810" height="600" style="stroke-width:1.07;stroke:#fff;fill:#fff;stroke-linecap:round;stroke-linejoin:round;stroke-miterlimit:10"/><rect x="93.36" y="14.17" width="702.47" height="504.92" style="stroke-width:1.07;stroke:none;fill:#fff;stroke-linecap:round;stroke-linejoin:round;stroke-miterlimit:10"/><line x1="93.36" y1="401.28" x2="795.83" y2="519.09" style="stroke-width:1.07;stroke:#f49323;stroke-linecap:butt;fill:none;stroke-linejoin:round;stroke-miterlimit:10"/><line x1="93.36" y1="-236.83" x2="795.83" y2="519.19" style="stroke-width:1.07;stroke:#f49323;stroke-linecap:butt;fill:none;stroke-linejoin:round;stroke-miterlimit:10"/><text x="218.87" y="455.2" style="font-size:14px;font-family:Asap" textLength="29.95" lengthAdjust="spacingAndGlyphs">1900</text><text x="461.23" y="152.25" style="font-size:14px;font-family:Asap" textLength="29.95" lengthAdjust="spacingAndGlyphs">2020</text><text x="236.58" y="401.34" style="font-size:14px;font-family:Asap" textLength="8.58" lengthAdjust="spacingAndGlyphs">A</text><text x="432.7" y="172.44" style="font-size:14px;font-family:Asap" textLength="9.73" lengthAdjust="spacingAndGlyphs">D</text><polyline points="121.45 266.63 121.46 266.78 121.5 267.66 121.59 269.68 121.72 272.79 121.89 276.61 122.07 280.65 122.24 284.53 122.44 288.17 122.68 291.58 122.98 294.81 123.34 297.92 123.77 300.86 124.29 303.93 124.88 306.93 125.51 309.83 126.18 312.58 126.85 315.17 127.53 317.65 128.22 320.13 128.96 322.71 129.8 325.42 130.74 328.24 131.78 331.13 132.83 333.85 134.02 336.72 135.26 339.52 136.53 342.2 137.79 344.73 139.02 347.11 140.23 349.37 141.45 351.64 142.76 353.99 144.18 356.44 145.72 358.98 147.37 361.57 149 363.99 150.8 366.52 152.64 368.98 154.47 371.31 156.26 373.5 157.99 375.54 159.68 377.48 161.37 379.41 163.16 381.41 165.1 383.49 167.17 385.63 169.35 387.78 171.48 389.77 173.8 391.84 176.13 393.83 178.44 395.69 180.67 397.43 182.82 399.03 184.89 400.55 186.97 402.06 189.17 403.61 191.51 405.2 194.01 406.82 196.62 408.43 199.13 409.91 201.86 411.41 204.64 412.85 207.56 414.27 210.68 415.7 214.03 417.17 217.61 418.71 221.32 420.3 224.82 421.8 227.64 423.01 229.45 423.79 230.22 424.12 230.34 424.17" style="stroke-width:1.07;stroke:#3a53a4;stroke-linecap:butt;fill:none;stroke-linejoin:round;stroke-miterlimit:10"/><polyline points="230.34 424.17 230.56 424.21 231.74 424.46 233.85 424.89 236.2 425.37 238.35 425.81 240.3 426.2 242.15 426.57 242.51 426.63 244.34 426.98 246.1 427.3 247.71 427.6 249.23 427.86 250.81 428.14 252.55 428.44 254.38 428.75 254.74 428.81 256.58 429.11 258.34 429.38 259.96 429.63 261.49 429.86 263.08 430.1 264.82 430.35 266.66 430.61 267.02 430.66 268.87 430.91 270.64 431.14 272.27 431.34 273.79 431.53 275.39 431.72 277.14 431.93 278.98 432.14 279.35 432.18 281.2 432.38 282.98 432.56 284.61 432.72 286.14 432.87 287.74 433.02 289.5 433.18 291.35 433.34 291.71 433.37 293.58 433.52 295.54 433.67 297.68 433.82 300.05 433.99 302.31 434.14 303.73 434.24 304.09 434.27 304.1 434.27" style="stroke-width:1.07;stroke:#3a53a4;stroke-linecap:butt;fill:none;stroke-linejoin:round;stroke-miterlimit:10"/><polyline points="402.44 37.74 402.46 37.89 402.57 38.82 402.83 40.89 403.2 43.97 403.64 47.6 404.08 51.26 404.52 54.71 404.96 57.92 405.42 60.92 405.93 63.79 406.5 66.62 406.53 66.76 407.17 69.56 407.85 72.3 408.56 74.93 409.28 77.4 409.99 79.72 410.69 81.97 411.43 84.28 412.24 86.71 413.14 89.27 414.14 91.91 415.21 94.57 415.25 94.68 416.38 97.32 417.55 99.89 418.73 102.35 419.88 104.65 420.99 106.8 422.09 108.89 423.24 111.02 424.47 113.27 425.83 115.62 427.29 118.04 428.82 120.47 428.88 120.56 430.47 122.96 432.09 125.27 433.69 127.47 435.23 129.53 436.72 131.44 438.18 133.3 439.69 135.19 441.32 137.18 443.07 139.24 444.94 141.36 446.89 143.47 446.97 143.55 448.97 145.62 450.98 147.6 452.95 149.48 454.84 151.22 456.65 152.83 458.42 154.39 460.25 155.98 462.21 157.64 464.31 159.36 466.53 161.1 468.83 162.82 468.92 162.89 471.27 164.56 473.68 166.19 476.22 167.84 478.96 169.54 481.92 171.34 485.08 173.23 488.22 175.12 490.92 176.74 492.76 177.84 493.61 178.35 493.76 178.44 493.76 178.44" style="stroke-width:1.07;stroke:#3a53a4;stroke-linecap:butt;fill:none;stroke-linejoin:round;stroke-miterlimit:10"/><polyline points="493.76 178.44 493.95 178.53 495.01 179 497.02 179.9 499.41 180.96 501.66 181.97 503.72 182.86 505.63 183.68 507.14 184.3 509.02 185.06 510.84 185.76 512.53 186.4 514.11 186.99 515.71 187.57 517.44 188.19 519.3 188.84 520.84 189.36 522.77 189.99 524.63 190.57 526.36 191.1 527.97 191.57 529.6 192.05 531.37 192.56 533.27 193.08 534.84 193.5 536.81 193.99 538.7 194.45 540.47 194.86 542.11 195.23 543.77 195.6 545.57 195.99 547.5 196.38 549.09 196.69 551.08 197.06 553.01 197.39 554.79 197.68 556.45 197.94 558.13 198.2 559.95 198.47 561.91 198.73 563.52 198.94 565.55 199.17 567.64 199.39 569.92 199.6 572.42 199.82 575 200.05 577.02 200.23 577.95 200.31 578.06 200.32" style="stroke-width:1.07;stroke:#3a53a4;stroke-linecap:butt;fill:none;stroke-linejoin:round;stroke-miterlimit:10"/><circle cx="230.39" cy="424.26" r="2.2" style="stroke-width:1.2;fill:#000;stroke:#000;stroke-linecap:round;stroke-linejoin:round;stroke-miterlimit:10"/><circle cx="455.75" cy="153.1" r="2.2" style="stroke-width:1.2;fill:#000;stroke:#000;stroke-linecap:round;stroke-linejoin:round;stroke-miterlimit:10"/><line x1="226.82" y1="351.12" x2="535.91" y2="351.12" style="stroke-width:1.07;stroke:#009147;stroke-linecap:butt;fill:none;stroke-linejoin:round;stroke-miterlimit:10"/><polyline points="525.94 356.88 535.91 351.12 525.94 345.36" style="stroke-width:1.07;stroke:#009147;stroke-linecap:butt;fill:none;stroke-linejoin:round;stroke-miterlimit:10"/><text x="226.44" y="334.02" style="font-size:14px;font-family:Asap" textLength="45.93" lengthAdjust="spacingAndGlyphs">Income</text><text x="275.73" y="334.02" style="font-size:14px;font-family:Asap" textLength="35.77" lengthAdjust="spacingAndGlyphs">effect</text><line x1="93.36" y1="121.22" x2="795.83" y2="237.35" style="stroke-width:1.07;stroke:#ed1f24;stroke-dasharray:5.69,5.69;stroke-linecap:butt;fill:none;stroke-linejoin:round;stroke-miterlimit:10"/><circle cx="535.91" cy="193.59" r="2.2" style="stroke-width:1.2;fill:#000;stroke:#000;stroke-linecap:round;stroke-linejoin:round;stroke-miterlimit:10"/><circle cx="535.91" cy="193.59" r="2.2" style="stroke-width:1.2;fill:#000;stroke:#000;stroke-linecap:round;stroke-linejoin:round;stroke-miterlimit:10"/><text x="545.63" y="182.54" style="font-size:14px;font-family:Asap" textLength="8.66" lengthAdjust="spacingAndGlyphs">C</text><text x="545.63" y="182.54" style="font-size:14px;font-family:Asap" textLength="8.66" lengthAdjust="spacingAndGlyphs">C</text><line x1="535.91" y1="91.59" x2="450.21" y2="91.59" style="stroke-width:1.07;stroke:#009147;stroke-linecap:butt;fill:none;stroke-linejoin:round;stroke-miterlimit:10"/><polyline points="460.19 85.83 450.21 91.59 460.19 97.35" style="stroke-width:1.07;stroke:#009147;stroke-linecap:butt;fill:none;stroke-linejoin:round;stroke-miterlimit:10"/><text x="458.64" y="42.89" style="font-size:14px;font-family:Asap" textLength="73.88" lengthAdjust="spacingAndGlyphs">Substitution</text><text x="458.64" y="59.63" style="font-size:14px;font-family:Asap" textLength="35.77" lengthAdjust="spacingAndGlyphs">effect</text><polyline points="93.36 519.09 93.36 14.17" style="stroke-width:1.07;stroke:#464646;stroke-linecap:butt;fill:none;stroke-linejoin:round;stroke-miterlimit:10"/><text x="66.67" y="523.5" style="font-size:18px;font-family:Asap" textLength="9.63" lengthAdjust="spacingAndGlyphs">0</text><text x="57.04" y="355.2" style="font-size:18px;font-family:Asap" textLength="19.27" lengthAdjust="spacingAndGlyphs">50</text><text x="47.41" y="186.89" style="font-size:18px;font-family:Asap" textLength="28.9" lengthAdjust="spacingAndGlyphs">100</text><text x="47.41" y="18.58" style="font-size:18px;font-family:Asap" textLength="28.9" lengthAdjust="spacingAndGlyphs">150</text><polyline points="86.27 519.09 93.36 519.09" style="stroke-width:1.07;stroke:#464646;stroke-linecap:butt;fill:none;stroke-linejoin:round;stroke-miterlimit:10"/><polyline points="86.27 350.79 93.36 350.79" style="stroke-width:1.07;stroke:#464646;stroke-linecap:butt;fill:none;stroke-linejoin:round;stroke-miterlimit:10"/><polyline points="86.27 182.48 93.36 182.48" style="stroke-width:1.07;stroke:#464646;stroke-linecap:butt;fill:none;stroke-linejoin:round;stroke-miterlimit:10"/><polyline points="86.27 14.17 93.36 14.17" style="stroke-width:1.07;stroke:#464646;stroke-linecap:butt;fill:none;stroke-linejoin:round;stroke-miterlimit:10"/><polyline points="93.36 519.09 795.83 519.09" style="stroke-width:1.07;stroke:#464646;stroke-linecap:butt;fill:none;stroke-linejoin:round;stroke-miterlimit:10"/><polyline points="93.36 526.18 93.36 519.09" style="stroke-width:1.07;stroke:#464646;stroke-linecap:butt;fill:none;stroke-linejoin:round;stroke-miterlimit:10"/><polyline points="233.85 526.18 233.85 519.09" style="stroke-width:1.07;stroke:#464646;stroke-linecap:butt;fill:none;stroke-linejoin:round;stroke-miterlimit:10"/><polyline points="374.34 526.18 374.34 519.09" style="stroke-width:1.07;stroke:#464646;stroke-linecap:butt;fill:none;stroke-linejoin:round;stroke-miterlimit:10"/><polyline points="514.84 526.18 514.84 519.09" style="stroke-width:1.07;stroke:#464646;stroke-linecap:butt;fill:none;stroke-linejoin:round;stroke-miterlimit:10"/><polyline points="655.33 526.18 655.33 519.09" style="stroke-width:1.07;stroke:#464646;stroke-linecap:butt;fill:none;stroke-linejoin:round;stroke-miterlimit:10"/><polyline points="795.83 526.18 795.83 519.09" style="stroke-width:1.07;stroke:#464646;stroke-linecap:butt;fill:none;stroke-linejoin:round;stroke-miterlimit:10"/><text x="83.72" y="548.78" style="font-size:18px;font-family:Asap" textLength="19.27" lengthAdjust="spacingAndGlyphs">14</text><text x="224.22" y="548.78" style="font-size:18px;font-family:Asap" textLength="19.27" lengthAdjust="spacingAndGlyphs">16</text><text x="364.71" y="548.78" style="font-size:18px;font-family:Asap" textLength="19.27" lengthAdjust="spacingAndGlyphs">18</text><text x="505.2" y="548.78" style="font-size:18px;font-family:Asap" textLength="19.27" lengthAdjust="spacingAndGlyphs">20</text><text x="645.7" y="548.78" style="font-size:18px;font-family:Asap" textLength="19.27" lengthAdjust="spacingAndGlyphs">22</text><text x="786.19" y="548.78" style="font-size:18px;font-family:Asap" textLength="19.27" lengthAdjust="spacingAndGlyphs">24</text><text x="328.94" y="581.59" style="font-size:20px;font-weight:600;font-family:Asap" textLength="52.76" lengthAdjust="spacingAndGlyphs">Hours</text><text x="386.5" y="581.59" style="font-size:20px;font-weight:600;font-family:Asap" textLength="17.88" lengthAdjust="spacingAndGlyphs">of</text><text x="409.19" y="581.59" style="font-size:20px;font-weight:600;font-family:Asap" textLength="35.38" lengthAdjust="spacingAndGlyphs">free</text><text x="449.37" y="581.59" style="font-size:20px;font-weight:600;font-family:Asap" textLength="39.88" lengthAdjust="spacingAndGlyphs">time</text><text x="494.06" y="581.59" style="font-size:20px;font-weight:600;font-family:Asap" textLength="29.56" lengthAdjust="spacingAndGlyphs">per</text><text x="528.42" y="581.59" style="font-size:20px;font-weight:600;font-family:Asap" textLength="31.82" lengthAdjust="spacingAndGlyphs">day</text><text transform="rotate(-90 185.83 157.61)" style="font-size:20px;font-weight:600;font-family:Asap" textLength="55.77" lengthAdjust="spacingAndGlyphs">Goods</text><text transform="rotate(-90 155.54 127.32)" style="font-size:20px;font-weight:600;font-family:Asap" textLength="29.56" lengthAdjust="spacingAndGlyphs">per</text><text transform="rotate(-90 138.36 110.14)" style="font-size:20px;font-weight:600;font-family:Asap" textLength="31.82" lengthAdjust="spacingAndGlyphs">day</text><text transform="rotate(-90 120.045 91.825)" style="font-size:20px;font-weight:600;font-family:Asap" textLength="22.04" lengthAdjust="spacingAndGlyphs">($)</text></g></svg>