<svg version="1.1" xmlns="http://www.w3.org/2000/svg" x="0" y="0" viewBox="0 0 311.81 213.09" style="enable-background:new 0 0 311.81 213.09" xml:space="preserve"><path style="fill:none;stroke:#f49323;stroke-width:.5;stroke-linecap:square;stroke-linejoin:round" d="M244.13 179.9c-1.59-17.27-7.52-54.43-35-89.43C161.77 30.16 89.34 25.84 77.68 25.33"/><text transform="translate(248.63 119.118)" style="font-family:'Asap-Regular';font-size:6px">IC</text><text transform="matrix(.583 0 0 .583 254.042 121.116)" style="font-family:'Asap-Regular';font-size:6px">S</text><text transform="translate(191.43 66.696)" style="font-family:'Asap-Regular';font-size:6px">R</text><text transform="translate(191.43 87.636)" style="font-family:'Asap-Regular';font-size:6px">S</text><line style="fill:none;stroke:#939598;stroke-width:.5;stroke-linecap:square;stroke-linejoin:round;stroke-miterlimit:10;stroke-dasharray:1.417" x1="77.15" y1="68.83" x2="188.13" y2="68.83"/><text transform="translate(84.128 65.782)" style="font-family:'Asap-Regular';font-size:6px">46 bushels</text><line style="fill:none;stroke:#939598;stroke-width:.5;stroke-linecap:square;stroke-linejoin:round;stroke-miterlimit:10" x1="166.51" y1="49.32" x2="209.76" y2="87.53"/><path style="fill:none;stroke:#a1b0da;stroke-width:.5;stroke-linecap:square;stroke-linejoin:round;stroke-miterlimit:10" d="M137.72 10.45c4.39 13.11 17.32 47.6 45 73.08 13.97 12.87 28.6 20.57 29.88 21.24 12.09 6.28 23.13 9.63 31.32 11.52"/><line style="fill:none;stroke:#939598;stroke-width:.5;stroke-linecap:square;stroke-linejoin:round;stroke-miterlimit:10;stroke-dasharray:1.417" x1="77.15" y1="88.67" x2="188.13" y2="88.67"/><text transform="translate(84.128 85.778)" style="font-family:'Asap-Regular';font-size:6px">38 bushels</text><text transform="translate(210.128 83.778)" style="font-family:'Asap-Regular';font-size:6px">MRT</text><text transform="translate(205.124 118.118)" style="font-family:'Asap-Regular';font-size:6px">MRS</text><text transform="translate(139.128 133.595)"><tspan x="0" y="0" style="font-family:'Asap-Regular';font-size:6px">Pareto efficiency</tspan><tspan x="0" y="7.2" style="font-family:'Asap-Regular';font-size:6px"> curve</tspan></text><line style="fill:none;stroke:#939598;stroke-width:.5;stroke-linecap:square;stroke-linejoin:round;stroke-miterlimit:10" x1="168.78" y1="71.69" x2="212.03" y2="109.91"/><line style="fill:none;stroke:#ed1f24;stroke-width:.5;stroke-linecap:square;stroke-linejoin:round;stroke-miterlimit:10" x1="188.49" y1="69.96" x2="188.49" y2="179.9"/><circle style="fill:#000101" cx="188.49" cy="68.83" r="1.13"/><circle style="fill:#000101" cx="188.49" cy="88.67" r="1.13"/><g><line style="fill:none;stroke:#6d6e71;stroke-width:.5;stroke-linecap:square;stroke-linejoin:round" x1="76.89" y1="180.04" x2="74.76" y2="180.04"/><line style="fill:none;stroke:#6d6e71;stroke-width:.5;stroke-linecap:square;stroke-linejoin:round" x1="76.89" y1="167.99" x2="74.76" y2="167.99"/><line style="fill:none;stroke:#6d6e71;stroke-width:.5;stroke-linecap:square;stroke-linejoin:round" x1="76.89" y1="155.99" x2="74.76" y2="155.99"/><line style="fill:none;stroke:#6d6e71;stroke-width:.5;stroke-linecap:square;stroke-linejoin:round" x1="76.89" y1="143.99" x2="74.76" y2="143.99"/><line style="fill:none;stroke:#6d6e71;stroke-width:.5;stroke-linecap:square;stroke-linejoin:round" x1="76.89" y1="131.99" x2="74.76" y2="131.99"/><line style="fill:none;stroke:#6d6e71;stroke-width:.5;stroke-linecap:square;stroke-linejoin:round" x1="76.89" y1="119.99" x2="74.76" y2="119.99"/><line style="fill:none;stroke:#6d6e71;stroke-width:.5;stroke-linecap:square;stroke-linejoin:round" x1="76.89" y1="107.99" x2="74.76" y2="107.99"/><line style="fill:none;stroke:#6d6e71;stroke-width:.5;stroke-linecap:square;stroke-linejoin:round" x1="76.89" y1="95.99" x2="74.76" y2="95.99"/><line style="fill:none;stroke:#6d6e71;stroke-width:.5;stroke-linecap:square;stroke-linejoin:round" x1="76.89" y1="83.99" x2="74.76" y2="83.99"/><line style="fill:none;stroke:#6d6e71;stroke-width:.5;stroke-linecap:square;stroke-linejoin:round" x1="76.89" y1="71.99" x2="74.76" y2="71.99"/><line style="fill:none;stroke:#6d6e71;stroke-width:.5;stroke-linecap:square;stroke-linejoin:round" x1="76.89" y1="35.99" x2="74.76" y2="35.99"/><line style="fill:none;stroke:#6d6e71;stroke-width:.5;stroke-linecap:square;stroke-linejoin:round" x1="76.89" y1="23.99" x2="74.76" y2="23.99"/><line style="fill:none;stroke:#6d6e71;stroke-width:.5;stroke-linecap:square;stroke-linejoin:round" x1="76.89" y1="59.99" x2="74.76" y2="59.99"/><line style="fill:none;stroke:#6d6e71;stroke-width:.5;stroke-linecap:square;stroke-linejoin:round" x1="76.89" y1="47.99" x2="74.76" y2="47.99"/><line style="fill:none;stroke:#6d6e71;stroke-width:.5;stroke-linecap:square;stroke-linejoin:round" x1="76.89" y1="11.99" x2="74.76" y2="11.99"/><line style="fill:none;stroke:#6d6e71;stroke-width:.5;stroke-linecap:square" x1="77.16" y1="180.11" x2="77.16" y2="182.29"/><line style="fill:none;stroke:#6d6e71;stroke-width:.5;stroke-linecap:square" x1="84.11" y1="180.11" x2="84.11" y2="182.24"/><line style="fill:none;stroke:#6d6e71;stroke-width:.5;stroke-linecap:square" x1="91.07" y1="180.11" x2="91.07" y2="182.24"/><line style="fill:none;stroke:#6d6e71;stroke-width:.5;stroke-linecap:square" x1="98.03" y1="180.11" x2="98.03" y2="182.24"/><line style="fill:none;stroke:#6d6e71;stroke-width:.5;stroke-linecap:square" x1="104.99" y1="180.11" x2="104.99" y2="182.24"/><line style="fill:none;stroke:#6d6e71;stroke-width:.5;stroke-linecap:square" x1="111.95" y1="180.11" x2="111.95" y2="182.24"/><line style="fill:none;stroke:#6d6e71;stroke-width:.5;stroke-linecap:square" x1="118.91" y1="180.11" x2="118.91" y2="182.24"/><line style="fill:none;stroke:#6d6e71;stroke-width:.5;stroke-linecap:square" x1="125.86" y1="180.11" x2="125.86" y2="182.24"/><line style="fill:none;stroke:#6d6e71;stroke-width:.5;stroke-linecap:square" x1="132.82" y1="180.11" x2="132.82" y2="182.24"/><line style="fill:none;stroke:#6d6e71;stroke-width:.5;stroke-linecap:square" x1="139.78" y1="180.11" x2="139.78" y2="182.24"/><line style="fill:none;stroke:#6d6e71;stroke-width:.5;stroke-linecap:square" x1="146.74" y1="180.11" x2="146.74" y2="182.24"/><line style="fill:none;stroke:#6d6e71;stroke-width:.5;stroke-linecap:square" x1="153.7" y1="180.11" x2="153.7" y2="182.24"/><line style="fill:none;stroke:#6d6e71;stroke-width:.5;stroke-linecap:square" x1="160.66" y1="180.11" x2="160.66" y2="182.24"/><line style="fill:none;stroke:#6d6e71;stroke-width:.5;stroke-linecap:square" x1="167.61" y1="180.11" x2="167.61" y2="182.24"/><line style="fill:none;stroke:#6d6e71;stroke-width:.5;stroke-linecap:square" x1="174.57" y1="180.11" x2="174.57" y2="182.24"/><line style="fill:none;stroke:#6d6e71;stroke-width:.5;stroke-linecap:square" x1="181.53" y1="180.11" x2="181.53" y2="182.24"/><line style="fill:none;stroke:#6d6e71;stroke-width:.5;stroke-linecap:square" x1="188.49" y1="180.11" x2="188.49" y2="182.24"/><line style="fill:none;stroke:#6d6e71;stroke-width:.5;stroke-linecap:square" x1="195.45" y1="180.11" x2="195.45" y2="182.24"/><line style="fill:none;stroke:#6d6e71;stroke-width:.5;stroke-linecap:square" x1="202.41" y1="180.11" x2="202.41" y2="182.24"/><line style="fill:none;stroke:#6d6e71;stroke-width:.5;stroke-linecap:square" x1="209.36" y1="180.11" x2="209.36" y2="182.24"/><line style="fill:none;stroke:#6d6e71;stroke-width:.5;stroke-linecap:square" x1="216.32" y1="180.11" x2="216.32" y2="182.24"/><line style="fill:none;stroke:#6d6e71;stroke-width:.5;stroke-linecap:square" x1="223.28" y1="180.11" x2="223.28" y2="182.24"/><line style="fill:none;stroke:#6d6e71;stroke-width:.5;stroke-linecap:square" x1="230.24" y1="180.11" x2="230.24" y2="182.24"/><line style="fill:none;stroke:#6d6e71;stroke-width:.5;stroke-linecap:square" x1="237.2" y1="180.11" x2="237.2" y2="182.24"/><line style="fill:none;stroke:#6d6e71;stroke-width:.5;stroke-linecap:square" x1="244.16" y1="180.11" x2="244.16" y2="182.24"/><text transform="translate(67.064 182.185)" style="font-family:'Asap-Regular';font-size:7px">0</text><text transform="translate(75.279 191.594)" style="font-family:'Asap-Regular';font-size:7px">0</text><text transform="translate(63.32 158.134)" style="font-family:'Asap-Regular';font-size:7px">10</text><text transform="translate(63.32 134.134)" style="font-family:'Asap-Regular';font-size:7px">20</text><text transform="translate(63.32 110.134)" style="font-family:'Asap-Regular';font-size:7px">30</text><text transform="translate(63.32 86.134)" style="font-family:'Asap-Regular';font-size:7px">40</text><text transform="translate(63.32 62.134)" style="font-family:'Asap-Regular';font-size:7px">50</text><text transform="translate(63.32 38.134)" style="font-family:'Asap-Regular';font-size:7px">60</text><text transform="translate(63.32 14.134)" style="font-family:'Asap-Regular';font-size:7px">70</text><text transform="translate(103.117 191.594)" style="font-family:'Asap-Regular';font-size:7px">4</text><text transform="translate(130.95 191.594)" style="font-family:'Asap-Regular';font-size:7px">8</text><text transform="translate(156.912 191.594)" style="font-family:'Asap-Regular';font-size:7px">12</text><text transform="translate(184.745 191.594)" style="font-family:'Asap-Regular';font-size:7px">16</text><text transform="translate(212.578 191.593)" style="font-family:'Asap-Regular';font-size:7px">20</text><text transform="translate(240.412 191.594)" style="font-family:'Asap-Regular';font-size:7px">24</text><text transform="matrix(0 -.9726 1 0 52.749 123.245)" style="font-family:'Asap-Medium';font-size:8px">Bushels of grain</text><text transform="translate(113.422 204.567)" style="font-family:'Asap-Medium';font-size:8px">Angela’s hours of free time</text><path style="fill:none;stroke:#6d6e71;stroke-width:.5;stroke-linecap:square;stroke-linejoin:round" d="M77.16 11.99V179.8"/><line style="fill:none;stroke:#6d6e71;stroke-width:.5;stroke-linecap:square" x1="77.16" y1="179.99" x2="244.16" y2="179.99"/></g></svg>