<svg version="1.1" xmlns="http://www.w3.org/2000/svg" x="0" y="0" viewBox="0 0 292.37 194.05" style="enable-background:new 0 0 292.37 194.05" xml:space="preserve"><line style="fill:none;stroke:#ea2728;stroke-width:.5;stroke-linejoin:round" x1="34.18" y1="6.27" x2="283.67" y2="154.68"/><line style="fill:none;stroke:#6d6e71;stroke-width:.5;stroke-linecap:square;stroke-linejoin:round" x1="34.18" y1="6.27" x2="34.18" y2="155.16"/><line style="fill:none;stroke:#6d6e71;stroke-width:.5;stroke-linecap:square" x1="34.92" y1="155.16" x2="284.56" y2="155.16"/><line style="fill:none;stroke:#6d6e71;stroke-width:.5;stroke-linecap:square;stroke-linejoin:round" x1="34.17" y1="6.27" x2="32.04" y2="6.27"/><line style="fill:none;stroke:#6d6e71;stroke-width:.5;stroke-linecap:square;stroke-linejoin:round" x1="34.17" y1="31.33" x2="32.04" y2="31.33"/><line style="fill:none;stroke:#6d6e71;stroke-width:.5;stroke-linecap:square;stroke-linejoin:round" x1="34.17" y1="55.89" x2="32.04" y2="55.89"/><line style="fill:none;stroke:#6d6e71;stroke-width:.5;stroke-linecap:square;stroke-linejoin:round" x1="34.17" y1="80.81" x2="32.04" y2="80.81"/><line style="fill:none;stroke:#6d6e71;stroke-width:.5;stroke-linecap:square;stroke-linejoin:round" x1="34.17" y1="105.41" x2="32.04" y2="105.41"/><line style="fill:none;stroke:#6d6e71;stroke-width:.5;stroke-linecap:square;stroke-linejoin:round" x1="34.17" y1="130.29" x2="32.04" y2="130.29"/><line style="fill:none;stroke:#6d6e71;stroke-width:.5;stroke-linecap:square;stroke-linejoin:round" x1="34.17" y1="155.09" x2="32.04" y2="155.09"/><text transform="translate(26.428 157.235)" style="font-family:'Asap-Regular';font-size:7px">0</text><text transform="translate(18.468 132.432)" style="font-family:'Asap-Regular';font-size:7px">100</text><text transform="translate(18.111 107.555)" style="font-family:'Asap-Regular';font-size:7px">200</text><text transform="translate(18.836 82.952)" style="font-family:'Asap-Regular';font-size:7px">300</text><text transform="translate(19.15 58.032)" style="font-family:'Asap-Regular';font-size:7px">400</text><text transform="translate(18.468 33.47)" style="font-family:'Asap-Regular';font-size:7px">500</text><text transform="translate(19.276 8.417)" style="font-family:'Asap-Regular';font-size:7px">600</text><line style="fill:none;stroke:#6d6e71;stroke-width:.5;stroke-linecap:square;stroke-linejoin:round" x1="34.14" y1="158.21" x2="34.14" y2="155.56"/><line style="fill:none;stroke:#6d6e71;stroke-width:.5;stroke-linecap:square;stroke-linejoin:round" x1="57.78" y1="158.21" x2="57.78" y2="155.56"/><line style="fill:none;stroke:#6d6e71;stroke-width:.5;stroke-linecap:square;stroke-linejoin:round" x1="86.13" y1="158.21" x2="86.13" y2="155.56"/><line style="fill:none;stroke:#6d6e71;stroke-width:.5;stroke-linecap:square;stroke-linejoin:round" x1="114.48" y1="158.21" x2="114.48" y2="155.56"/><line style="fill:none;stroke:#6d6e71;stroke-width:.5;stroke-linecap:square;stroke-linejoin:round" x1="142.82" y1="158.21" x2="142.82" y2="155.56"/><line style="fill:none;stroke:#6d6e71;stroke-width:.5;stroke-linecap:square;stroke-linejoin:round" x1="171.17" y1="158.21" x2="171.17" y2="155.56"/><line style="fill:none;stroke:#6d6e71;stroke-width:.5;stroke-linecap:square;stroke-linejoin:round" x1="199.52" y1="158.21" x2="199.52" y2="155.56"/><line style="fill:none;stroke:#6d6e71;stroke-width:.5;stroke-linecap:square;stroke-linejoin:round" x1="227.86" y1="158.21" x2="227.86" y2="155.56"/><text transform="translate(30.397 166.61)" style="font-family:'Asap-Regular';font-size:7px">14</text><text transform="translate(54.039 166.61)" style="font-family:'Asap-Regular';font-size:7px">16</text><text transform="translate(82.386 166.611)" style="font-family:'Asap-Regular';font-size:7px">18</text><text transform="translate(110.732 166.611)" style="font-family:'Asap-Regular';font-size:7px">20</text><text transform="translate(139.078 166.61)" style="font-family:'Asap-Regular';font-size:7px">22</text><text transform="translate(167.425 166.611)" style="font-family:'Asap-Regular';font-size:7px">24</text><text transform="translate(195.772 166.611)" style="font-family:'Asap-Regular';font-size:7px">26</text><text transform="translate(224.118 166.611)" style="font-family:'Asap-Regular';font-size:7px">30</text><text transform="translate(252.464 166.61)" style="font-family:'Asap-Regular';font-size:7px">32</text><text transform="translate(280.811 166.611)" style="font-family:'Asap-Regular';font-size:7px">34</text><line style="fill:none;stroke:#6d6e71;stroke-width:.5;stroke-linecap:square;stroke-linejoin:round" x1="256.21" y1="158.21" x2="256.21" y2="155.56"/><line style="fill:none;stroke:#6d6e71;stroke-width:.5;stroke-linecap:square;stroke-linejoin:round" x1="284.56" y1="158.21" x2="284.56" y2="155.56"/><text transform="translate(109.905 190.446)" style="font-family:'Asap-Medium';font-size:8px">Hours of non-working time</text><text transform="translate(209.847 179.801)" style="font-family:'Asap-Regular';font-size:7px">Hours of paid work</text><text transform="translate(281.126 147.728)" style="font-family:'Asap-Regular';font-size:7px">N</text><circle style="fill:#000101" cx="284.56" cy="155.56" r="1.13"/><text transform="translate(133.716 78.189)" style="font-family:'Asap-Regular';font-size:7px">B</text><path style="fill:none;stroke:#3c54a4;stroke-width:.5;stroke-linejoin:round" d="M94.57 6.28c25.65 38.83 81.19 82.54 189.99 94.36M75.57 6.27c19.83 46.54 89.19 91.09 208.98 100.04M48.08 5.83C75.26 73.17 150.83 108.31 284.56 112.8"/><line style="fill:none;stroke:#3c54a4;stroke-width:.5;stroke-linecap:square;stroke-linejoin:round" x1="189.82" y1="172.88" x2="284.56" y2="172.88"/><polygon style="fill:#3c54a4" points="191.47 174.92 191.81 174.56 190.01 172.88 191.81 171.2 191.47 170.83 189.27 172.88"/><circle style="fill:#000101" cx="142.61" cy="70.79" r="1.13"/><text transform="matrix(0 -.9726 1 0 8.34 134.993)" style="font-family:'Asap-Medium';font-size:8px">Total household consumption ($)</text></svg>