<svg version="1.1" xmlns="http://www.w3.org/2000/svg" x="0" y="0" viewBox="0 0 311.81 198.58" style="enable-background:new 0 0 311.81 198.58" xml:space="preserve"><polygon style="fill:#fee6da" points="41.13 24.2 124.06 68.75 124.06 113.79 41.13 113.74"/><rect x="41.13" y="67.62" style="fill:#a5a8d4" width="83.02" height="38.52"/><rect x="41.13" y="106.14" style="fill:#e3e7f4" width="82.93" height="11.44"/><text transform="translate(74.557 90.472)" style="font-family:'Asap-Regular';font-size:6px">Profit</text><text transform="translate(68.144 112.48)" style="font-family:'Asap-Regular';font-size:6px">Fixed costs</text><g><line style="fill:none;stroke:#6d6e70;stroke-width:.5;stroke-linecap:square" x1="41.13" y1="149.63" x2="38.6" y2="149.63"/><line style="fill:none;stroke:#6d6e70;stroke-width:.5;stroke-linecap:square" x1="41.13" y1="131.71" x2="38.6" y2="131.71"/><line style="fill:none;stroke:#6d6e70;stroke-width:.5;stroke-linecap:square" x1="41.13" y1="113.79" x2="38.6" y2="113.79"/><line style="fill:none;stroke:#6d6e70;stroke-width:.5;stroke-linecap:square" x1="41.13" y1="42.12" x2="38.6" y2="42.12"/><line style="fill:none;stroke:#6d6e70;stroke-width:.5;stroke-linecap:square" x1="41.13" y1="60.04" x2="38.6" y2="60.04"/><line style="fill:none;stroke:#6d6e70;stroke-width:.5;stroke-linecap:square" x1="41.13" y1="77.96" x2="38.6" y2="77.96"/><line style="fill:none;stroke:#6d6e70;stroke-width:.5;stroke-linecap:square" x1="41.13" y1="95.87" x2="38.6" y2="95.87"/><line style="fill:none;stroke:#6d6e70;stroke-width:.5;stroke-linecap:square" x1="38.6" y1="6.28" x2="41.13" y2="6.28"/><line style="fill:none;stroke:#6d6e70;stroke-width:.5;stroke-linecap:square" x1="41.13" y1="24.2" x2="38.6" y2="24.2"/><line style="fill:none;stroke:#ed1f24;stroke-width:.5" x1="41.13" y1="24.2" x2="257.63" y2="138.88"/><line style="fill:none;stroke:#6d6e70;stroke-width:.5;stroke-linecap:square" x1="41.13" y1="167.55" x2="38.6" y2="167.55"/><text transform="translate(123.957 196.377)"><tspan x="0" y="0" style="font-family:'Asap-Medium';font-size:8px">Quantity of cars, </tspan><tspan x="59.53" y="0" style="font-family:'Asap-MediumItalic';font-size:8px">Q</tspan></text><text transform="rotate(-90 50.658 42.316)"><tspan x="0" y="0" style="font-family:'Asap-Medium';font-size:8px">Price, </tspan><tspan x="21.3" y="0" style="font-family:'Asap-MediumItalic';font-size:8px">P</tspan></text><text transform="translate(32.683 170.072)" style="font-family:'Asap-Regular';font-size:7px">0</text><text transform="translate(16.318 7.97)" style="font-family:'Asap-Regular';font-size:7px">45,000</text><text transform="translate(16.318 25.98)" style="font-family:'Asap-Regular';font-size:7px">40,000</text><text transform="translate(16.318 43.991)" style="font-family:'Asap-Regular';font-size:7px">35,000</text><text transform="translate(16.318 62.003)" style="font-family:'Asap-Regular';font-size:7px">30,000</text><text transform="translate(16.318 80.014)" style="font-family:'Asap-Regular';font-size:7px">25,000</text><text transform="translate(16.318 98.026)" style="font-family:'Asap-Regular';font-size:7px">20,000</text><text transform="translate(16.318 116.037)" style="font-family:'Asap-Regular';font-size:7px">15,000</text><text transform="translate(16.318 134.05)" style="font-family:'Asap-Regular';font-size:7px">10,000</text><text transform="translate(20.063 152.06)" style="font-family:'Asap-Regular';font-size:7px">5,000</text><path style="fill:none;stroke:#929497;stroke-width:.5" d="M50.15 6.28c.22 3.56.41 6.71.57 9.4 0 0 .55 9.34 2.02 27.55.75 9.23 1.3 15.3 3.47 23.14 1.12 4.06 2.17 8.23 4.63 12.95 1.26 2.41 3.07 5.84 6.36 9.37 5.13 5.51 10.89 8 14.75 9.64 4.63 1.98 8.16 2.73 14.47 4.06 3.29.69 8.86 1.75 19.81 2.97 2.84.32 11.64 1.26 26.23 2.1 6.07.35 11.62.59 20.18.87 19.31.64 34.09.86 35.22.87 13.48.19 33.91.49 59.78.85"/><path style="fill:none;stroke:#5b73b8;stroke-width:.5" d="M76.02 6.28c.74 2.23 1.57 4.63 2.51 7.17 2.69 7.3 4.04 10.95 6.7 15.97 4.6 8.69 9.48 14.61 11.36 16.81 7.49 8.76 14.78 13.88 16.6 15.13 5.8 3.99 10.66 6.23 15.43 8.41 4.31 1.96 10.5 4.51 20.96 7.56 13.4 3.91 23.77 5.73 36.11 7.85 11.89 2.04 22.03 3.35 29.7 4.2 3.67.41 6.27.66 29.7 2.52 4.77.38 8.94.71 12.57 1"/><text transform="translate(126.494 66.555)" style="font-family:'Asap-Regular';font-size:6px">E</text><line style="fill:none;stroke:#929497;stroke-width:.5;stroke-linejoin:round;stroke-dasharray:1.417" x1="124.06" y1="67.62" x2="124.06" y2="167.55"/><circle style="fill:#231f20" cx="124.06" cy="67.62" r="1.13"/><line style="fill:none;stroke:#929497;stroke-width:.5;stroke-linejoin:round;stroke-dasharray:1.417" x1="122.64" y1="67.62" x2="41.13" y2="67.62"/><text transform="translate(260.974 111.207)" style="font-family:'Asap-Regular';font-size:6px">AC (Isoprofit: 0)</text><text transform="translate(260.974 95.025)" style="font-family:'Asap-Regular';font-size:6px">Isoprofit: $329,600</text><text transform="translate(260.975 142.118)" style="font-family:'Asap-Regular';font-size:6px">Demand</text><text transform="translate(260.974 83.754)" style="font-family:'Asap-Regular';font-size:6px">Isoprofit: $600,000</text><path style="fill:none;stroke:#273a71;stroke-width:.5" d="M103.7 6.28c5.2 9.18 9.51 14.7 10.87 16.41 6.01 7.56 11.04 11.81 15.97 15.93 4.46 3.72 10.87 8.55 21.7 14.34 13.88 7.42 24.61 10.85 37.38 14.87 12.31 3.87 22.8 6.35 30.74 7.97 3.79.77 6.49 1.25 30.74 4.78l6.56.96"/><line style="fill:none;stroke:#6d6e71;stroke-width:.5;stroke-miterlimit:10" x1="41.13" y1="6.28" x2="41.13" y2="167.63"/><line style="fill:none;stroke:#6d6e71;stroke-width:.5;stroke-miterlimit:10" x1="40.73" y1="167.55" x2="257.63" y2="167.55"/><line style="fill:none;stroke:#6d6e70;stroke-width:.5;stroke-linecap:square" x1="68.19" y1="167.55" x2="68.19" y2="170.07"/><line style="fill:none;stroke:#6d6e70;stroke-width:.5;stroke-linecap:square" x1="41.13" y1="167.55" x2="41.13" y2="170.07"/><line style="fill:none;stroke:#6d6e70;stroke-width:.5;stroke-linecap:square" x1="257.63" y1="167.55" x2="257.63" y2="170.07"/><line style="fill:none;stroke:#6d6e70;stroke-width:.5;stroke-linecap:square" x1="176.44" y1="167.55" x2="176.44" y2="170.07"/><line style="fill:none;stroke:#6d6e70;stroke-width:.5;stroke-linecap:square" x1="203.51" y1="167.55" x2="203.51" y2="170.07"/><line style="fill:none;stroke:#6d6e70;stroke-width:.5;stroke-linecap:square" x1="149.38" y1="167.55" x2="149.38" y2="170.07"/><line style="fill:none;stroke:#6d6e70;stroke-width:.5;stroke-linecap:square" x1="122.32" y1="167.55" x2="122.32" y2="170.07"/><line style="fill:none;stroke:#6d6e70;stroke-width:.5;stroke-linecap:square" x1="95.25" y1="167.55" x2="95.25" y2="170.07"/><line style="fill:none;stroke:#6d6e70;stroke-width:.5;stroke-linecap:square" x1="54.66" y1="167.55" x2="54.66" y2="170.07"/><text transform="translate(32.683 170.073)" style="font-family:'Asap-Regular';font-size:7px">0</text><text transform="translate(39.604 177.855)" style="font-family:'Asap-Regular';font-size:7px">0</text><text transform="translate(228.71 177.855)" style="font-family:'Asap-Regular';font-size:7px">70</text><text transform="translate(200.91 177.855)" style="font-family:'Asap-Regular';font-size:7px">60</text><text transform="translate(173.11 177.855)" style="font-family:'Asap-Regular';font-size:7px">50</text><text transform="translate(145.312 177.855)" style="font-family:'Asap-Regular';font-size:7px">40</text><text transform="translate(118.512 177.855)" style="font-family:'Asap-Regular';font-size:7px">30</text><text transform="translate(90.713 177.855)" style="font-family:'Asap-Regular';font-size:7px">20</text><text transform="translate(62.913 177.855)" style="font-family:'Asap-Regular';font-size:7px">10</text><text transform="translate(255.509 177.855)" style="font-family:'Asap-Regular';font-size:7px">80</text><line style="fill:none;stroke:#6d6e70;stroke-width:.5;stroke-linecap:square" x1="230.57" y1="167.55" x2="230.57" y2="170.07"/><line style="fill:none;stroke:#6d6e70;stroke-width:.5;stroke-linecap:square" x1="81.72" y1="167.55" x2="81.72" y2="170.07"/><line style="fill:none;stroke:#6d6e70;stroke-width:.5;stroke-linecap:square" x1="108.79" y1="167.55" x2="108.79" y2="170.07"/><line style="fill:none;stroke:#6d6e70;stroke-width:.5;stroke-linecap:square" x1="135.85" y1="167.55" x2="135.85" y2="170.07"/><line style="fill:none;stroke:#6d6e70;stroke-width:.5;stroke-linecap:square" x1="162.91" y1="167.55" x2="162.91" y2="170.07"/><line style="fill:none;stroke:#6d6e70;stroke-width:.5;stroke-linecap:square" x1="189.98" y1="167.55" x2="189.98" y2="170.07"/><line style="fill:none;stroke:#6d6e70;stroke-width:.5;stroke-linecap:square" x1="217.04" y1="167.55" x2="217.04" y2="170.07"/><line style="fill:none;stroke:#6d6e70;stroke-width:.5;stroke-linecap:square" x1="244.1" y1="167.55" x2="244.1" y2="170.07"/><text transform="translate(52.758 177.855)" style="font-family:'Asap-Regular';font-size:7px">5</text><text transform="translate(76.813 177.855)" style="font-family:'Asap-Regular';font-size:7px">15</text><text transform="translate(104.612 177.855)" style="font-family:'Asap-Regular';font-size:7px">25</text><text transform="translate(131.412 177.855)" style="font-family:'Asap-Regular';font-size:7px">35</text><text transform="translate(159.211 177.855)" style="font-family:'Asap-Regular';font-size:7px">45</text><text transform="translate(187.01 177.856)" style="font-family:'Asap-Regular';font-size:7px">55</text><text transform="translate(214.81 177.855)" style="font-family:'Asap-Regular';font-size:7px">65</text><text transform="translate(242.61 177.856)" style="font-family:'Asap-Regular';font-size:7px">75</text><line style="fill:none;stroke:#000101;stroke-width:.5" x1="257.63" y1="117.74" x2="41.13" y2="117.74"/><text transform="translate(130.72 124.936)" style="font-family:'Asap-Regular';font-size:6px">MC (Isoprofit: −$80,000)</text><text transform="translate(212.392 126.207)" style="font-family:'Asap-Regular';font-size:6px">F</text><circle style="fill:#231f20" cx="217.64" cy="117.74" r="1.13"/></g></svg>