<svg version="1.1" xmlns="http://www.w3.org/2000/svg" xmlns:xlink="http://www.w3.org/1999/xlink" x="0" y="0" viewBox="0 0 311.81 227.33" style="enable-background:new 0 0 311.81 227.33" xml:space="preserve"><path style="fill:none;stroke:#000;stroke-width:.369;stroke-linecap:round;stroke-linejoin:round;stroke-miterlimit:10" d="M194.23 123.99l-11.34-18.33m36.39 58.81l-24.09-38.9m47.65 40.79H93.01m2.19-1.93h143.86m-143.86 0L65.8 32.92m-1.58-1.27l28.79 134.72m0-.01v57.53L64.22 65.18m143.24 50.59l35.38 50.59v57.53H93.01m114.45-105.92l31.6 46.46m-31.6-72.08v31.12m-1.28-30.77v29.84M149.27 14.59l58.19 77.75m-2.24-8.7v5.89m0-11.38v3.65m-6.33-3.65v2.86m-3.78-15.21v10.11m0-16.09v4.13m-6.33-4.13v7.87m-4.4-19.25v13.1m0-19.13v4.31m-6.33-4.31v10.64m-29.09-37.84l57.23 77.49m-52.48-48.31v2.46l.92 1.23m-3.47-6.28l3.47 3.6v2.68m-2.2-10.41v5.41m-1.27-6.69v5.41m0-5.41l1.27 1.28M77.8 40.22h1.58m-1.54-2.55v2.55m2.81-3.48l-1.23.92v2.55m-.35-7.29v3.82l-1.23.92m1.23-4.74h1.58v3.82m-16.43-5.09v33.54m65.44-13.9v1.54m-27.51-1.58v1.58m0-16.09v13.27m-15.47 1.24v1.58m0-16.09v13.27M74.33 32.92H65.8m8.53-1.27H64.22m23.73-2.51l.92-.62m-.92-.65l.92.66m-1.89.61h.97m-.97-1.27h.97m.92-9.15h-.92m.92 2.51h-.92m.92 2.55h-.92m.92 2.2h-.92m3.47 3.16h.92m.01-6.33v6.33m-.93-8.83h.92v1.23m-.92-1.23v8.83m-3.47 0v2.51m0-14.51v10.72m0-10.72h-.97v14.5h.97m61.01-16.43v21.54m-73.98-.01h73.97M74.98 15.21h73.97m-74.62-.62v21.19M150.23 38.64v26.55M86.68 52.83l5.49 17.41m9.98-17.41l4.97 12.97M70.55 52.83h79.69m20.34 32.92l-20.35-32.92m31.69 51.25l-10.37-16.79"/><polyline style="fill:none" points="242.95 2 64.11 2 64.11 224.01"/><polyline style="fill:none" points="64.11 224.01 242.95 224.01 242.95 2"/><line style="fill:none;stroke:#000;stroke-width:.25;stroke-linecap:round;stroke-linejoin:round;stroke-miterlimit:10" x1="73.01" y1="65.18" x2="150.23" y2="65.18"/><path style="fill:none;stroke:#000;stroke-width:.369;stroke-linecap:round;stroke-linejoin:round;stroke-miterlimit:10" d="M101.14 96.35l5.32 17.05M95.25 77.45l5.41 17.36m-7.65-24.57l1.76 5.67m14.45-3.48L78.46 82.9m39.2-13.28l-5.32 1.8m-2.76-.57l7.43-2.51M77.84 81.62l28.66-9.71m77.09 53.66l7.52 12.7m-11.43-19.33l2.99 5.05m-10.86-18.37l6.77 11.47m-9.76-16.53l2.07 3.47M161 87.29l6.55 11.12m-9.32-15.73l1.8 3.03m25.45 39.86l7.82 13.19m-11.73-19.82l.26.4 2.72 4.66m-10.8-18.34l7.12 12.04m-10.16-17.14l2.11 3.52m-2.98-5.05l.22.35m17.97 26.19l8.04 13.58m-19.82-33.53l10.86 18.37m-14.77-24.96l2.99 5.05m14.59 21.49l8.04 13.58m-19.82-33.49L189 123.99m-21.71-36.7l9.93 16.79m-13.1-22.15l2.24 3.82m-35.12-9.01l32.88 6.77m-62.9-12.96l18.02 3.74m11.35.78l33.54 6.81m-62.29-12.61l17.41 3.52m-30.46 30.63l41.84-24M86.06 105l1.58-.92m49.89 23.78l58.19 13.19m-68.26-15.48l7.03 1.58m5.77-.04l28.83 6.55 26.33 5.8m-67.65-15.16l9.41 2.11m8.92-.84l-52.48 13.89m-.44-1.14l52.61-14.02M84.13 99.95l9.19 38.24m-.31-18.33L97.44 137m-8.65-33.58l3.87 14.94M83.2 81.58l5.23 20.35m3.17 18.59l-1.76.62m48.35-17.41l-45.14 16.26m-3.21-.44l47.73-17.05m44.35 17.01l1.49.35m-51.95-13.67l48.17 12.75m-57.53-15.21l6.68 1.76m4.75-.05l49.89 13.14m-61.01-16.08l6.64 1.76 1.89.48m40.43-3.08l1.28.48m-48.79-18.85l44.96 17.36m-53.4-20.61l6.37 2.46m3.83-.22l47.03 18.28m-56.88-22.1l6.55 2.55 1.19.48m-37.45 21.93l43.6-25.27m-51.51 5.67l13.27 57.89M78.76 83.12l12.66 55.07M78.15 80.35l.22 1.05m-.22-1.05h3.47m91.95-6.16l30.72 46.63m-51.86-78.8l19.91 30.24m-23.38-35.52l2.2 3.34.04.04M132.52 2.81v11.78m-6.33-11.78v11.78m-14.24-3.07v3.08m-6.29-3v2.99m-8.87-5.67v5.67m-6.33-5.67v5.67m40.3 115.03l3.96 10.15m-5.37-13.8l.88 2.29m-7.29-19.04l5.76 15.08m-13.76-35.91l7.43 19.38m-13.41-34.98l5.36 14.02m-8.04-21.01l1.8 4.75m1.72.35l-1.93-5.1m7.77 20.26l-5.14-13.32m11.69 30.51l-5.98-15.6m7.56 19.64l-1.32-3.43m7.96 20.79l-6.11-15.91m7.34 19.12l-.57-1.49m5.23 13.4l-4.09-10.51m-38.9-52.87l-1.89-6.15m7.91 25.31l-5.49-17.58m11.21 35.96L99.78 97.1m11.33 36.25l-5.58-17.85m7.69 24.27l-1.67-5.05m1.41-.36l1.85 5.41m-7.87-24.79l5.58 17.98"/><polyline style="fill:none" points="242.95 2 64.11 2 64.11 224.01"/><polyline style="fill:none" points="64.11 224.01 242.95 224.01 242.95 2"/><path style="fill:none;stroke:#000;stroke-width:.811;stroke-linecap:round;stroke-linejoin:round;stroke-miterlimit:10" d="M172.34 129.05h-10.72m10.72 0l2.24 3.78m0 0h-7.56"/><path style="fill:none;stroke:#000;stroke-width:.369;stroke-linecap:round;stroke-linejoin:round;stroke-miterlimit:10" d="M161.62 136.3h9.14l1.89 3.47m-3.47 3.82h-7.56m9.36-8.17l-1.8 8.17 1.58 3.47m1.58-18.01l-1.01 4.75m-8.48 5.97h9.8m-11.03.97v2.86m0-10.29v3.91m0-8.17v2.59m1.23 15.43h7.91m2.94-11.03l-2.94 11.03m3.82-14.24l-.44 1.63"/><path style="fill:none;stroke:#000;stroke-width:.811;stroke-linecap:round;stroke-linejoin:round;stroke-miterlimit:10" d="M149.27 123.33H136.3l.92 2.81m12.05-2.81l1.58 3.82m-9.19.01h9.19m7.29-2.25h11.69"/><path style="fill:none;stroke:#000;stroke-width:.369;stroke-linecap:round;stroke-linejoin:round;stroke-miterlimit:10" d="M137.57 139.77h16.75m-2.37-8.7l2.37 8.7m-3.47-12.61l.62 2.2m-15.17 6.94h16.13m-14.86 19.29h16.44m-17.71-3.47h16.13m1.58 3.47l-1.58-3.47m-14.86-24.3v27.78"/><line style="fill:none;stroke:#000;stroke-width:.811;stroke-linecap:round;stroke-linejoin:round;stroke-miterlimit:10" x1="129.05" y1="113.53" x2="145.49" y2="113.53"/><line style="fill:none;stroke:#000;stroke-width:.369;stroke-linecap:round;stroke-linejoin:round;stroke-miterlimit:10" x1="156.87" y1="112.87" x2="156.87" y2="124.48"/><path style="fill:none;stroke:#000;stroke-width:.811;stroke-linecap:round;stroke-linejoin:round;stroke-miterlimit:10" d="M166.67 112.3h-6.33m6.33 0l-2.24-3.82h-8.83l.92 2.81"/><path style="fill:none;stroke:#000;stroke-width:.369;stroke-linecap:round;stroke-linejoin:round;stroke-miterlimit:10" d="M156.87 121.44h8.22m-1.28-3.78l1.27 3.78m-9.49-8.88v8.48m0-12.56v2.55m8.22 6.63h-8.22"/><line style="fill:none;stroke:#000;stroke-width:.811;stroke-linecap:round;stroke-linejoin:round;stroke-miterlimit:10" x1="122.41" y1="94.59" x2="135.68" y2="94.59"/><path style="fill:none;stroke:#000;stroke-width:.369;stroke-linecap:round;stroke-linejoin:round;stroke-miterlimit:10" d="M149.57 93.23v6.11l1.27 3.47m-1.27-13.59v2.15m4.44 11.44h-3.16m0-9.06v9.05"/><path style="fill:none;stroke:#000;stroke-width:.811;stroke-linecap:round;stroke-linejoin:round;stroke-miterlimit:10" d="M122.1 78.76l.7 2.2m8.75-2.2l1.58 3.82m-6.19.01h6.2m-2.99-3.83h1.41m-9.46 0h6.15m26.07 10.46h-4.75m4.14 3.79h2.86m-2.25-3.79l2.24 3.78"/><line style="fill:none;stroke:#000;stroke-width:.369;stroke-linecap:round;stroke-linejoin:round;stroke-miterlimit:10" x1="123.33" y1="83.55" x2="123.33" y2="102.59"/><line style="fill:none;stroke:#000;stroke-width:.811;stroke-linecap:round;stroke-linejoin:round;stroke-miterlimit:10" x1="123.33" y1="104.08" x2="123.33" y2="106.28"/><path style="fill:none;stroke:#000;stroke-width:.369;stroke-linecap:round;stroke-linejoin:round;stroke-miterlimit:10" d="M122.37 84.08h.09v.09h-.09v-.09zm8.22 1.8l-1.23 8.7m2.19-15.82l-.75 5.32m1.72 2.55l-1.27 7.96m1.88-12l-.35 2.24"/><path style="fill:none;stroke:#000;stroke-width:.811;stroke-linecap:round;stroke-linejoin:round;stroke-miterlimit:10" d="M116.39 72.13h12.97m-6.95 37.31v2.86m0-8.48v2.15m0-11.38v7.91"/><line style="fill:none;stroke:#000;stroke-width:.369;stroke-linecap:round;stroke-linejoin:round;stroke-miterlimit:10" x1="104.08" y1="94.68" x2="104.08" y2="105.66"/><path style="fill:none;stroke:#000;stroke-width:.811;stroke-linecap:round;stroke-linejoin:round;stroke-miterlimit:10" d="M110.06 93.93h-4.75m-2.5-3.78l.92 2.86m4.79-2.77l-.04-.09m1.58 3.78l-.92-2.2m-6.33-1.58h5.67"/><path style="fill:none;stroke:#000;stroke-width:.369;stroke-linecap:round;stroke-linejoin:round;stroke-miterlimit:10" d="M109.44 114.1v8.92m8.22-1.58h-8.22"/><path style="fill:none;stroke:#000;stroke-width:.811;stroke-linecap:round;stroke-linejoin:round;stroke-miterlimit:10" d="M108.17 109.44l1.01 3.03m2.64.75h7.12m-.93-2.19l.92 2.2m-10.76-3.79h9.19l.04.09"/><line style="fill:none;stroke:#000;stroke-width:.369;stroke-linecap:round;stroke-linejoin:round;stroke-miterlimit:10" x1="115.11" y1="133.79" x2="115.11" y2="149.26"/><path style="fill:none;stroke:#000;stroke-width:.811;stroke-linecap:round;stroke-linejoin:round;stroke-miterlimit:10" d="M113.88 129.35l.97 2.99m-.97-2.99h10.11m1.58 3.78h-8.09"/><path style="fill:none;stroke:#000;stroke-width:.369;stroke-linecap:round;stroke-linejoin:round;stroke-miterlimit:10" d="M115.11 149.26h16.44m-17.67-8.52v4.31m0-10.95v2.9m-.04-7.65v3.25m.04 3.7l1.23 3.47m0 0h13.63m-14.86-3.47h11.34"/><path style="fill:none;stroke:#000;stroke-width:.811;stroke-linecap:round;stroke-linejoin:round;stroke-miterlimit:10" d="M135.16 105.66h4.92m-10.42-3.82h8.88l1.58 3.82"/><path style="fill:none;stroke:#000;stroke-width:.369;stroke-linecap:round;stroke-linejoin:round;stroke-miterlimit:10" d="M150.23 85.71h25.89m-23.38 13.62l1.28 3.47m-1.28-3.47h-3.16m-19.92 7.48v15.91m0-20.88v2.37m1.28 2.16v18.42"/><line style="fill:none;stroke:#000;stroke-width:.811;stroke-linecap:round;stroke-linejoin:round;stroke-miterlimit:10" x1="146.1" y1="86.37" x2="152.74" y2="86.37"/><path style="fill:none;stroke:#000;stroke-width:.369;stroke-linecap:round;stroke-linejoin:round;stroke-miterlimit:10" d="M74.33 14.59h74.94M96.79 8.92c0-.44-1.45-.79-3.16-.79-1.76 0-3.16.35-3.16.79 0 .4 1.41.79 3.16.79 1.7 0 3.16-.39 3.16-.79zm15.16 2.6c0-.44-1.41-.79-3.16-.79-1.71 0-3.12.35-3.12.79 0 .4 1.41.79 3.12.79 1.75 0 3.16-.4 3.16-.79zm20.57-8.62c0-.44-1.45-.79-3.16-.79-1.76 0-3.16.35-3.16.79 0 .4 1.41.79 3.16.79 1.71 0 3.16-.39 3.16-.79zm51.86 39.51c0-.44-1.45-.79-3.16-.79-1.76 0-3.16.35-3.16.79 0 .4 1.41.79 3.16.79 1.71.01 3.16-.39 3.16-.79zm10.73 17.41c0-.44-1.45-.79-3.16-.79-1.76 0-3.16.35-3.16.79 0 .4 1.41.79 3.16.79 1.71 0 3.16-.39 3.16-.79zm10.11 18.15c0-.44-1.45-.79-3.16-.79-1.76 0-3.16.35-3.16.79 0 .4 1.41.79 3.16.79 1.71 0 3.16-.39 3.16-.79zm-9.32 47.6l5.85 9.14m-4.75-9.44l4.75 7.25m-16.44-24.66l6.33 10.42m-5.06-10.42l5.05 7.91m3.48-6.63l6.64 9.8m0 0v15.78m-5.37-23.69V124m-1.27-14.86V124m-9.8-29.41l6.33 9.14m0 0v14.55m-5.06-12.62v2.2m0-11.38v7.6m-1.27 1.58v2.2m0-13.27v9.49m-8.53-12.04h-1.27m0-12.97l6.02 9.19m0 0v13.27m-6.02-9.49l6.02 9.49m-4.75-14.55v5.05m0-11.02v5.05m-1.27 1.23v4.75m0-12.97v6.68m1.27 6.29l4.75 7.6m-28.26-12.35h22.86"/><polyline style="fill:none" points="242.95 2 64.11 2 64.11 224.01"/><polyline style="fill:none" points="64.11 224.01 242.95 224.01 242.95 2"/><line style="fill:none;stroke:#000;stroke-width:.811;stroke-linecap:round;stroke-linejoin:round;stroke-miterlimit:10" x1="162.54" y1="105" x2="152.12" y2="105"/><path style="fill:none;stroke:#000;stroke-width:.369;stroke-linecap:round;stroke-linejoin:round;stroke-miterlimit:10" d="M92.35 22.81l.97-.62m-.97-.65l.97.66m-.01 2.5h-.97m.97 2.24h-.97m-.92-4.13h.92m-.92-1.27h.92m7.61-10.11h-3.16m3.16-.93h-3.16m15.16 2.12v.97m3.16-.18h-3.16m3.16-.97h-3.16m23.73-7.03h-3.16m3.16-.93h-3.16m-6.33.93h-3.16m3.16-.93h-3.16m-17.37 8.93h-3.16m3.16-.97h-3.16m-12.04-1.01H87.3m3.16-.93H87.3"/><text transform="translate(89.308 19.208)" style="font-family:'Times-Roman';font-size:1.9446px">5</text><text transform="translate(89.304 21.755)" style="font-family:'Times-Roman';font-size:1.9446px">4</text><text transform="translate(89.3 24.261)" style="font-family:'Times-Roman';font-size:1.9446px">3</text><text transform="translate(89.296 26.503)" style="font-family:'Times-Roman';font-size:1.9446px">2</text><text transform="translate(89.292 29.007)" style="font-family:'Times-Roman';font-size:1.9446px">1</text><text transform="translate(89.288 31.558)" style="font-family:'Times-Roman';font-size:1.9446px">0</text><text transform="translate(93.83 22.775)" style="font-family:'Times-Roman';font-size:1.9446px">1</text><text transform="translate(93.738 25.236)" style="font-family:'Times-Roman';font-size:1.9446px">2</text><text transform="translate(93.734 27.434)" style="font-family:'Times-Roman';font-size:1.9446px">3</text><text transform="translate(93.73 29.631)" style="font-family:'Times-Roman';font-size:1.9446px">4</text><text transform="translate(93.745 20.796)" style="font-family:'Times-Roman';font-size:1.9446px">0</text><text transform="translate(83.284 18.102)" style="font-family:'Times-Roman';font-size:2.7383px">P</text><text transform="translate(90.973 19.214)" style="font-family:'Times-Roman';font-size:2.7383px">A</text><path style="fill:none;stroke:#000;stroke-width:.369;stroke-linecap:round;stroke-linejoin:round;stroke-miterlimit:10" d="M92.35 29.14l-.92-.97m-3.48 3.48l-.97-.92"/><path style="fill:none;stroke:#000;stroke-width:.811;stroke-linecap:round;stroke-linejoin:round;stroke-miterlimit:10" d="M116.39 93.14v3.65m0-9.23v2.59m0-9.76v5.23m0-13.49v6.33"/><path style="fill:none;stroke:#000;stroke-width:.369;stroke-linecap:round;stroke-linejoin:round;stroke-miterlimit:10" d="M108.17 114.54v4.4m-.04-6.16h.09v.09h-.09v-.09zm.04-3.34v3.38m4.79 27.13v1.93m0-15.69v6.64m23.34-4.66v23.03m0-27.87v2.59m-17.05-39.99v9.58m0-14.02v2.55m0-11.91v7.43m10.41-1.41l.97 1.27m74.9 42.68l2.24 1.58.92.62m-4.4-6.64l1.23 1.27v4.09m1.94 3.17l1.23 1.58m0-3.47v3.47m-1.23-4v2.42m-3.17-8.53v4.09l1.23 1.27 3.16 1.27m-11.68.98h2.55m-2.55-.97h2.15m-33.45-.31v.92m30.68.66h-25.76m25.76-1.58H165.7m31.96 1.23l1.14 2.81m-2.42-5.84l.88 2.11m1.28.97l1.63 3.96m-3.79-9.19l1.76 4.26m-1.45-7.6l5.05 11.91m-5.09-10.33l4.44 10.59m-12.44-23.56l1.67 5.58m-2.68-9.05l.75 2.55m-.09-2.73l2.73 9.05m-1.94-10.15l2.55 8.57m-3.17-8.87l3.16 10.46m-3.64-5.41l3.03 9.49m-2.55-14.54l-1.89.66 1.1 3.47m-1.1 1.27h-23.87m26.68-.35h-2.2m1.9-.92h-1.89m-27.83-.31h27.21m-51.86 36.66h1.58m0-.97v.97m0-.97h-1.58v.97m-19.91 0h-1.58m1.58-.97h-1.58m1.58 0v.97m-1.59-.97v.97m-17.36-1.28v-.57m-4.44-.7v1.28m0-.01h6.33m-4.44-.13v.13m-1.89-1.27h1.89m-9.18-38.24h2.55"/><line style="fill:none;stroke:#000;stroke-width:.811;stroke-linecap:round;stroke-linejoin:round;stroke-miterlimit:10" x1="106.59" y1="105.31" x2="115.77" y2="105.31"/><path style="fill:none;stroke:#000;stroke-width:.369;stroke-linecap:round;stroke-linejoin:round;stroke-miterlimit:10" d="M116.39 117.66l1.27 3.78m-1.27-3.78h-8.22m10.77-4.44L117 125.27"/><line style="fill:none;stroke:#000;stroke-width:.811;stroke-linecap:round;stroke-linejoin:round;stroke-miterlimit:10" x1="110.37" y1="125.27" x2="122.41" y2="125.27"/><path style="fill:none;stroke:#000;stroke-width:.369;stroke-linecap:round;stroke-linejoin:round;stroke-miterlimit:10" d="M115.11 149.26l-1.23-3.78m-1.27-6.37v2.24m0-16.08v7.69"/><line style="fill:none;stroke:#000;stroke-width:.811;stroke-linecap:round;stroke-linejoin:round;stroke-miterlimit:10" x1="105" y1="105.31" x2="106.59" y2="105.31"/><path style="fill:none;stroke:#000;stroke-width:.369;stroke-linecap:round;stroke-linejoin:round;stroke-miterlimit:10" d="M101.53 96.13v1.49m0-11.25v7.96m1.28 1.05v6.29m0-11.52v3.43m1.27 7.34h5.98"/><line style="fill:none;stroke:#000;stroke-width:.811;stroke-linecap:round;stroke-linejoin:round;stroke-miterlimit:10" x1="100.26" y1="86.37" x2="106.89" y2="86.37"/><path style="fill:none;stroke:#000;stroke-width:.369;stroke-linecap:round;stroke-linejoin:round;stroke-miterlimit:10" d="M164.21 114.81l-.04.18v.18l-.04.13v.18l-.04.18v.13l-.04.18v.18l-.04.18v.18l-.13.53v.18l-.04.22-.04.18-.09.44-.13.44-.04.22-.09.26-.04.22-.09.26-.04.26-.26.79-.04.26-.09.31-.09.26-.09.31-.09.26-.18.62-.13.31-.09.26-.26.92m2.47-15.54l-.18 4.83m2.42 2.16l-.09.44v.22l-.13.66v.21l-.22 1.1-.09.22-.09.44-.09.22-.04.22-.09.26-.18.44-.09.26-.09.22-.09.26-.13.22-.09.26-.13.22-.09.26-.13.26-.13.22-.4.79-.13.22-.66 1.32-.31.48m3.49-12.59l.09 1.67m-59.87-9.89l.09-.31.13-.26.09-.31.09-.26.09-.31.09-.26.09-.31.18-.53.09-.31.18-.53.09-.31.04-.26.18-.53.04-.26.09-.26.09-.53.09-.26.13-.79.04-.22V97l.09-.44v-.26l.04-.22v-.22l.04-.22v-.4l.04-.22v-1.85l-.04-.13v-.31l-.04-.09v-.22l-.04-.09v-.18l-.04-.09v-.13m1.21 2l.09.53v.26l.04.22.04.26v.26l.04.22.04.26v.22l.04.26v.22l.04.26v.66l.04.22v.84l-.04.22v.35l-.04.18v.18l-.09.35v.18l-.04.13-.09.35-.04.13-.04.18-.04.13-.04.18-.09.13-.09.35-.13.31-.04.13-.09.18-.04.18-.09.13-.04.18-.09.18-.04.18-.09.18-.04.13-.1.16-.04.18-.18.35-.04.18-.09.18-.04.18-.18.35-.13.35M196.08 140.43l-.35.62m-4.09 4.44v-5.41m6.33-.92h-1.89m0 1.27l-.66-.97m2.55-.3v2.55m-72.75-5.41l3.52 3.47"/><path style="fill:none;stroke:#000;stroke-width:.25;stroke-linecap:round;stroke-linejoin:round;stroke-miterlimit:10" d="M159.55 80.96l-9.32-15.78m57.85 99.25l-12.75-21.85"/><path style="fill:none;stroke:#000;stroke-width:.369;stroke-linecap:round;stroke-linejoin:round;stroke-miterlimit:10" d="M151.11 129.22l-1.85-5.89m3.17 28.79l.04-.18.04-.22.04-.18.04-.22.04-.18.18-.88.09-.53v-.26l.09-.62v-.31l.04-.35v-2.99l-.04-.53v-.53l-.04-.53v-.57l-.04-.57-.04-.53-.04-.57v-.57l-.09-1.14-.18-2.11-.04-.48-.09-.92-.13-1.19-.04-.35-.13-.92-.13-.79-.04-.22v-.22l-.04-.22-.04-.18-.04-.22-.13-.53-.04-.35m2.65 8.81l.09.48.09.97.09.44.04.48.09.48.04.44.04.48.04.44.04.48.18 1.76v.44l.04.44v2.42l-.04.35-.04.4-.26 2.11-.09.31-.04.35-.09.31-.04.35-.26.92-.04.35-.18.62"/><path style="fill:none;stroke:#000;stroke-width:.811;stroke-linecap:round;stroke-linejoin:round;stroke-miterlimit:10" d="M146.1 100.26V105m0-18.63v11.08m3.47-8.23l.84 2.51"/><path style="fill:none;stroke:#000;stroke-width:.369;stroke-linecap:round;stroke-linejoin:round;stroke-miterlimit:10" d="M146.41 32.92v3.82l-1.58.92v3.16m1.58-7.9h-1.58m-19.26 100.21l.18.4.18.35.22.35.18.4.18.35.18.4.22.35.18.35.35.79.18.35.18.4.18.35.53 1.19.13.4.18.4.31.79.13.4.18.4.13.44.13.4.13.44.13.4.13.44.13.4.13.44.09.44.26.88.09.4.26.88.09.44.13.44.09.44.22.88m9.64-40.57l1.71 4.79m-2.81-7.87l.48 1.41m40.88-62.24l2.9 3.6m-6.68-8.21l1.36 1.63m3.39 2.45l2.55 3.16m-6.33-7.9l1.67 2.11m12.18 20.83l2.59 3.3m-6.64-8.53l1.49 1.93m3.48 2.6l2.64 3.38m-6.64-8.52l1.85 2.37M175.2 76.57v3.16m-.97-3.91v2.94l.97.97m-2.86-5.41l2.86 2.24m-1.58-6.32v5.05m-1.28-6.02v5.05m0-5.05l1.27.97m-19.6 24.7v.22l-.04.04v.09l-.04.04v.13l-.04.09v.09l-.09.22v.09l-.13.4-.04.18-.04.13-.04.18-.11.16-.13.53-.09.18-.04.22-.04.18-.09.22-.05.17-.04.22-.09.18-.13.44m3.65-3.43V96l-.04.13v.09l-.04.09v.13l-.04.09v.09l-.04.13-.04.09v.13l-.31.92-.04.18-.13.31-.04.18-.04.22-.18.35-.04.22-.09.22-.09.18-.18.44-.09.26-.26.66-.09.26-.09.22-.09.26-.09.22-.13.26-.18.48m2.53-9.8v1.14M188.47 100.26l.62.31m-7.87-5.68l-2.24.31m-.4-9.14l-.35-2.81m1.32 10.9l-.84-7.16m.53-2.2l1.19 9.27m-30.2-8.35v.66m57.23 5.98l-1.27.35M101.84 69.27l-.62 1.27M117 68.35l.66 1.28m46.46 12.25v1.63m21.19 24.35h1.27m-88.83 30.5v3.34m-6.33.01h6.33m79.03-54.73h2.73m.43-1.1l1.27 9.01m-3.2-7.91l.97 8.22m-1.58-13.27l.48 4.13M85.71 50.02v1.23m.97 0h-.97m0-1.23h.97m0 0l.31.31h1.28v.62h-1.28l-.31.31m58.15-18.34v3.82m0 0l-1.58.92m-.01.01h1.58m-1.58 0v3.16m1.59 0h-1.58"/><path style="fill:none;stroke:#000;stroke-width:.25;stroke-linecap:round;stroke-linejoin:round;stroke-miterlimit:10" d="M175.51 92.04v9.19m6.02 4.43v5.67m0-9.8v2.55m3.78 3.78v9.8m6.33 7.91v2.86m0-10.15v5.71m3.47 1.58v8.83m6.64.01v19.3"/><path style="fill:none;stroke:#000;stroke-width:.369;stroke-linecap:round;stroke-linejoin:round;stroke-miterlimit:10" d="M74.98 36.74l-.66-.97m.66-20.56l-.66-.62m.66.62v21.54m36.27 98.05l1.98 5.93m-7.96-25.13l5.58 17.85m-11.3-36.18l5.23 16.75m-11.2-35.96l5.49 17.67m-7.65-25.49v.97l1.63 5.27m37.36 53.23l4.31 11.03m-5.76-14.81l.92 2.42m-7.25-18.99l5.71 14.94m-13.71-35.73l7.43 19.34m-13.45-34.99l5.41 14.06m-7.74-21.18v.97l1.41 3.74m-14.68-.27h-1.58m16.43-4.44h-1.58m48.04 73.97l-1.89-3.47"/><text transform="translate(84.733 18.765)" style="font-family:'Times-Roman';font-size:2.7383px">a</text><path style="fill:none;stroke:#000;stroke-width:.369;stroke-linecap:round;stroke-linejoin:round;stroke-miterlimit:10" d="M117.09 111.33l-1.67 13.93m1.94-15.82l-.04.13m-27.48 9.98l-.22.92m-3.91-16.39l.35.92m-7.91-22.41v1.23m0-3.47v1.14m14.86 38.37h-1.54m-2.68-16.44h-1.28m-3.3-2.94c.22.44.66.75 1.19.75.7 0 1.27-.57 1.27-1.27v-.04m6.95 39.54l-.62-.31m22.77-60.69l-.35 1.58m6.99 22.46l-.31 1.23m15.47-1.23l.62 1.23m-10.73 21.84l.31-1.28m18.02.01l.31 1.28M87.25 10.5c-.22 0-.4.22-.4.44s.18.44.4.44m12.66.05h.04c.26 0 .48-.22.48-.48s-.22-.44-.48-.44h-.04m15.16 2.9h.04c.26 0 .48-.22.48-.48 0-.31-.22-.48-.48-.48h-.04m-12.61-.01c-.26 0-.44.18-.44.48 0 .26.18.48.44.48m20.52-8.92a.42.42 0 00-.44.44c0 .26.18.44.44.48m12.66.01h.04c.26 0 .48-.22.48-.48s-.22-.44-.48-.44h-.04m-57.8 33.18h1.58"/><line style="fill:none;stroke:#000;stroke-width:.25;stroke-linecap:round;stroke-linejoin:round;stroke-miterlimit:10" x1="106.28" y1="70.85" x2="111.95" y2="72.13"/><path style="fill:none;stroke:#000;stroke-width:.369;stroke-linecap:round;stroke-linejoin:round;stroke-miterlimit:10" d="M104.08 105.66h2.81M122.1 84.3v18.5m0-24.04v1.93"/><path style="fill:none;stroke:#000;stroke-width:.811;stroke-linecap:round;stroke-linejoin:round;stroke-miterlimit:10" d="M129.05 126.15v2.42m0-15.04v9.8m-28.79-23.69v4.09m0-17.36v8.66m51.86 21.67v4.44m0-9.5v2.24m0-8.88v5.14m6.02 22.99v4.44m0-12.66v5.41m-47.77 4.7v3.52m0-6.55v1.58m0-8.3v3.78M105 115.68v4.48m0-14.85v6.33"/><path style="fill:none;stroke:#000;stroke-width:.369;stroke-linecap:round;stroke-linejoin:round;stroke-miterlimit:10" d="M159.37 104.08v.92m-69.75 15.48l.22.66m.31-1.89l-.31.31m3.34 18.76l.48-.35m52.13-13.67h-.62l-51.51 13.67m-3.51-18.72l47.12-16.75m.3 0h-.31m-7.6-24.35h-.31l-42.99 24.97-.31.31m15.17-32.88l.31.31m62.59 12.65l-.31.31m-32.65-6.81l32.66 6.81m-62.29-12.97l17.71 3.69m-1.58-4.92l-.31.31m-4.57 1.54l4.57-1.54M78.46 83.2l31.16-10.64m-31.78 9.06v.31l.62 1.27v-.3m-.62-1.28l.62 1.27m35.42 62.6h12l5.67 3.78m-7.12-17.98l.09.53.04.22.13.79.09.26.18 1.06.04.31.04.26.18 1.23v.35l.18 1.41.04.4v.4l.09.79v.4l.04.44.04.4v.44l.04.44v.44l.04.44.04.48v.44l.04.44v.48l.04.44.04.92m-1.86-16.15l.09.53m21.41-16.35v9.8"/><path style="fill:none;stroke:#000;stroke-width:.25;stroke-linecap:round;stroke-linejoin:round;stroke-miterlimit:10" d="M132.48 105.8l1.54.44m-5.32-1.5l1.27.35"/><path style="fill:none;stroke:#000;stroke-width:.369;stroke-linecap:round;stroke-linejoin:round;stroke-miterlimit:10" d="M86.06 103.42l-.35.66m117.97-24.35a.567.567 0 00-.44-.18c-.35 0-.57.22-.57.57 0 .09 0 .22.09.31m3.64 3.08c0-.35-.26-.57-.57-.57-.35 0-.57.22-.57.57 0 .31.22.57.57.57.31 0 .57-.26.57-.57zm-3.6-3.03l2.55 3.34m-1.67-4l2.64 3.34m-6.9-8.31a.544.544 0 00-.44-.22c-.35 0-.57.22-.57.57 0 .09 0 .18.04.26m.04.05l1.49 1.93m-.52-2.54l1.85 2.37m-7.87-15.47a.544.544 0 00-.44-.22c-.35 0-.57.22-.57.57 0 .09 0 .22.09.31M182.45 44.3c-.09-.22-.26-.31-.48-.31-.35 0-.57.22-.57.57 0 .09 0 .18.04.26m-2.81-5.31a.567.567 0 00-.44-.18c-.35 0-.57.22-.57.53 0 .09 0 .22.09.31m7.55 7.78c0-.35-.26-.57-.57-.57-.35 0-.57.22-.57.57 0 .31.22.57.57.57.31 0 .57-.26.57-.57zm4.13 8.66a.544.544 0 00-.44-.22c-.35 0-.57.22-.57.57 0 .09 0 .18.04.26m7.74 8.27c0-.35-.26-.57-.57-.57-.35 0-.57.22-.57.57 0 .31.22.57.57.57.31 0 .57-.26.57-.57zm-12.52 53.8l-.22.57m0-1.27l.22.7m-13.8-20.26h2.51m.96 2.5l-.66.62m0-1.59l.66.97m-4.18-2.5h.7m2.51 0h1.89m17.41 41.4H193m3.08 0v-1.28m0 1.28h1.89m-26.2-40.39c.35-.22.57-.62.57-1.05m-79.16 39.33l-.18.83m-1.58 2.56v-2.24"/><path style="fill:none;stroke:#000;stroke-width:.25;stroke-linecap:round;stroke-linejoin:round;stroke-miterlimit:10" d="M134.1 128.08l6.64-1.89m-7.61-21.49l-4.09 1.58"/><text transform="translate(116.527 128.205)" style="font-family:'Times-Roman';font-size:2.3415px">I</text><text transform="translate(117.318 128.207)" style="font-family:'Times-Roman';font-size:2.3415px">A</text><text transform="translate(110.055 108.195)" style="font-family:'Times-Roman';font-size:2.3415px">I</text><text transform="translate(110.846 108.197)" style="font-family:'Times-Roman';font-size:2.3415px">I</text><text transform="translate(111.638 108.199)" style="font-family:'Times-Roman';font-size:2.3415px">A</text><text transform="translate(104.317 97.152)" style="font-family:'Times-Roman';font-size:2.3415px">I</text><text transform="translate(105.108 97.154)" style="font-family:'Times-Roman';font-size:2.3415px">I</text><text transform="translate(105.899 97.156)" style="font-family:'Times-Roman';font-size:2.3415px">I</text><text transform="translate(106.646 97.156)" style="font-family:'Times-Roman';font-size:2.3415px">A</text><text transform="translate(123.428 76.133)" style="font-family:'Times-Roman';font-size:2.3415px">I</text><text transform="translate(124.22 76.133)" style="font-family:'Times-Roman';font-size:2.3415px">I</text><text transform="translate(125.011 76.134)" style="font-family:'Times-Roman';font-size:2.3415px">I</text><text transform="translate(125.757 76.137)" style="font-family:'Times-Roman';font-size:2.3415px">B</text><text transform="translate(131.038 98.738)" style="font-family:'Times-Roman';font-size:2.3415px">I</text><text transform="translate(131.83 98.74)" style="font-family:'Times-Roman';font-size:2.3415px">I</text><text transform="translate(132.62 98.742)" style="font-family:'Times-Roman';font-size:2.3415px">B</text><text transform="translate(138.652 119.015)" style="font-family:'Times-Roman';font-size:2.3415px">I</text><text transform="translate(139.443 119.017)" style="font-family:'Times-Roman';font-size:2.3415px">B</text><text transform="translate(164.484 127.676)" style="font-family:'Times-Roman';font-size:2.3415px">I</text><text transform="translate(165.274 127.677)" style="font-family:'Times-Roman';font-size:2.3415px">C</text><text transform="translate(159.017 110.789)" style="font-family:'Times-Roman';font-size:2.3415px">I</text><text transform="translate(159.808 110.789)" style="font-family:'Times-Roman';font-size:2.3415px">I</text><text transform="translate(160.6 110.79)" style="font-family:'Times-Roman';font-size:2.3415px">C</text><path style="fill:none;stroke:#000;stroke-width:.811;stroke-linecap:round;stroke-linejoin:round;stroke-miterlimit:10" d="M124.74 131.2l.83 1.93m-1.58-3.78l.18.53"/><path style="fill:none;stroke:#000;stroke-width:.369;stroke-linecap:round;stroke-linejoin:round;stroke-miterlimit:10" d="M127.77 124.3h.97m9.05 1.98l-9.05-1.98m66.68 15.16l-.31-.31-54.24-12.22m-18.46-24.43h.62m8.26 2.11l-8.26-2.11m60.39 16.09l-.31-.31-49.14-12.97m-10.2-24l-7.38-2.86h-.62m56.88 22.11l-.31-.31-46.46-18.11"/><defs><polyline id="prefix__a" points="108.17 117.66 116.39 117.66 117.66 121.13 117 125.27 112.61 125.27 112.61 130.32 111.73 130.28 106.94 114.98 107.33 114.85 107.33 115.42 107.69 115.9 107.69 116.43 107.73 116.7 108.08 116.96 108.17 117.22 108.17 117.66"/></defs><clipPath id="prefix__b"><use xlink:href="#prefix__a" style="overflow:visible"/></clipPath><path d="M106.59 141.09l26.37-26.37m-26.37 24.61l24.61-24.61m-24.61 22.85l22.86-22.86m-22.86 21.11l21.1-21.1m-21.1 19.34l19.34-19.34m-19.34 17.58l17.58-17.58m-17.58 15.82l15.82-15.82m-15.82 14.06l14.07-14.06m-14.07 12.3l12.31-12.31m-12.31 10.56l10.55-10.55m-10.55 8.79l8.79-8.79m-8.79 7.03l7.03-7.03m-7.03 5.27l5.27-5.27m-5.27 3.51l3.52-3.52m-3.52 1.77l1.76-1.76"/><path style="fill:none;stroke:#000;stroke-width:.369;stroke-linecap:round;stroke-linejoin:round;stroke-miterlimit:10" d="M190.32 110.81c0 .18.18.31.35.31.18 0 .35-.18.35-.35 0-.04-.04-.09-.04-.09m-2.73-9.06a.334.334 0 00-.31-.22c-.22 0-.35.13-.35.35v.04m-8.04-7.73v.04c0 .22.18.44.44.44.22 0 .44-.22.44-.44 0-.04-.04-.09-.04-.09m-.18-6.37c.13-.26.26-.53.26-.84 0-.09-.04-.13-.04-.18m10.33 19.53c.35-.26.53-.7.53-1.1a1.6 1.6 0 00-1.36-1.58m10.72 22.54c.4-.26.62-.75.62-1.19 0-.88-.75-1.58-1.58-1.58h-.22m-2.87-4.96c-.04-.13-.13-.22-.26-.31m.35-1.27l-.31.13m3.78 12.35c.09.22.26.35.48.35.26 0 .48-.22.48-.48 0-.09-.04-.18-.09-.22m-4.69-3.26h.04c.44 0 .79-.4.79-.79 0-.44-.35-.79-.79-.79h-.04m-20.26-36.74c0 .04.04.04.04.04.44 0 .79-.4.79-.79 0-.44-.35-.79-.79-.79h-.04m10.46 19.95h.04c.44 0 .79-.4.79-.79 0-.44-.35-.79-.79-.79h-.04m-28.75-21.49v2.81m33.85 57.23h6.33m0-.92v3.78"/><path style="fill:none;stroke:#000;stroke-width:.25;stroke-linecap:round;stroke-linejoin:round;stroke-miterlimit:10" d="M121.14 81.31l1.63.66m3.24-.96l-5.36 3.12m-12.79-11.91l-1.58.57m6.33-2.24l-1.63.57"/><line style="fill:none;stroke:#000;stroke-width:.25;stroke-linecap:round;stroke-linejoin:round;stroke-miterlimit:10" x1="124.74" y1="82.76" x2="126.5" y2="83.51"/><path style="fill:none;stroke:#000;stroke-width:.369;stroke-linecap:round;stroke-linejoin:round;stroke-miterlimit:10" d="M132.52 125.09v-11.56m0 14.11v-.92m0 3.38v-.92m0 12.53v-6.64m-28.97-30.99h3.34l1.01 1.23m-3.82-4.39l-1.27-2.24m9.8 31.64h-.97m68-11.38h1.98m-12.8-18.38h1.89"/><path style="fill:none;stroke:#000;stroke-width:.25;stroke-linecap:round;stroke-linejoin:round;stroke-miterlimit:10" d="M153.71 94.1L148 91.9m6.5 19.74l4.75 1.23m.92 19.34l5.41 1.28m-48.22-.97l-4.44 1.27m-.97-21.49l-5.05 1.89m-.62-21.49l-4.44 2.51m-4.75-19.3l-6.64 2.24m44.57-1.45l7.6 1.58"/><polyline style="fill-rule:evenodd;clip-rule:evenodd" points="195.11 140.12 195.11 140.04 195.06 139.95 194.93 139.82 194.84 139.82 194.8 139.77 194.71 139.82 194.67 139.82 194.58 139.86 194.49 139.95 194.49 140.25 194.58 140.34 194.67 140.39 194.71 140.43 194.84 140.43 194.93 140.39 194.98 140.34 195.06 140.25 195.11 140.17 195.11 140.12"/><polyline style="fill:none;stroke:#000;stroke-width:.369;stroke-linecap:round;stroke-linejoin:round;stroke-miterlimit:10" points="195.11 140.12 195.11 140.04 195.06 139.95 194.93 139.82 194.84 139.82 194.8 139.77 194.71 139.82 194.67 139.82 194.58 139.86 194.49 139.95 194.49 140.25 194.58 140.34 194.67 140.39 194.71 140.43 194.84 140.43 194.93 140.39 194.98 140.34 195.06 140.25 195.11 140.17 195.11 140.12"/><polyline style="fill-rule:evenodd;clip-rule:evenodd" points="163.2 132.83 163.15 132.78 163.15 132.69 163.02 132.56 162.93 132.52 162.8 132.52 162.72 132.56 162.58 132.69 162.54 132.78 162.54 132.91 162.58 132.96 162.63 133.05 162.72 133.13 163.02 133.13 163.11 133.05 163.15 132.96 163.15 132.91 163.2 132.83"/><polyline style="fill:none;stroke:#000;stroke-width:.369;stroke-linecap:round;stroke-linejoin:round;stroke-miterlimit:10" points="163.2 132.83 163.15 132.78 163.15 132.69 163.02 132.56 162.93 132.52 162.8 132.52 162.72 132.56 162.58 132.69 162.54 132.78 162.54 132.91 162.58 132.96 162.63 133.05 162.72 133.13 163.02 133.13 163.11 133.05 163.15 132.96 163.15 132.91 163.2 132.83"/><polyline style="fill-rule:evenodd;clip-rule:evenodd" points="137.88 127.16 137.88 127.07 137.84 127.02 137.84 126.94 137.75 126.89 137.71 126.85 137.66 126.85 137.57 126.8 137.49 126.85 137.44 126.85 137.35 126.89 137.31 126.94 137.27 127.02 137.27 127.29 137.35 127.38 137.44 127.42 137.49 127.46 137.66 127.46 137.75 127.38 137.84 127.33 137.84 127.29 137.88 127.2 137.88 127.16"/><polyline style="fill:none;stroke:#000;stroke-width:.369;stroke-linecap:round;stroke-linejoin:round;stroke-miterlimit:10" points="137.88 127.16 137.88 127.07 137.84 127.02 137.84 126.94 137.75 126.89 137.71 126.85 137.66 126.85 137.57 126.8 137.49 126.85 137.44 126.85 137.35 126.89 137.31 126.94 137.27 127.02 137.27 127.29 137.35 127.38 137.44 127.42 137.49 127.46 137.66 127.46 137.75 127.38 137.84 127.33 137.84 127.29 137.88 127.2 137.88 127.16"/><polyline style="fill-rule:evenodd;clip-rule:evenodd" points="115.42 133.13 115.42 133 115.33 132.91 115.25 132.87 115.2 132.83 115.07 132.83 114.98 132.87 114.85 133 114.81 133.09 114.81 133.22 114.85 133.27 114.89 133.35 114.98 133.44 115.07 133.44 115.11 133.49 115.2 133.44 115.25 133.44 115.33 133.4 115.38 133.35 115.42 133.27 115.42 133.13"/><polyline style="fill:none;stroke:#000;stroke-width:.369;stroke-linecap:round;stroke-linejoin:round;stroke-miterlimit:10" points="115.42 133.13 115.42 133 115.33 132.91 115.25 132.87 115.2 132.83 115.07 132.83 114.98 132.87 114.85 133 114.81 133.09 114.81 133.22 114.85 133.27 114.89 133.35 114.98 133.44 115.07 133.44 115.11 133.49 115.2 133.44 115.25 133.44 115.33 133.4 115.38 133.35 115.42 133.27 115.42 133.13"/><polyline style="fill-rule:evenodd;clip-rule:evenodd" points="109.75 113.22 109.75 113.18 109.71 113.09 109.58 112.96 109.49 112.92 109.36 112.92 109.31 112.96 109.22 113 109.14 113.09 109.14 113.36 109.18 113.44 109.22 113.49 109.31 113.53 109.58 113.53 109.66 113.44 109.71 113.36 109.75 113.31 109.75 113.22"/><polyline style="fill:none;stroke:#000;stroke-width:.369;stroke-linecap:round;stroke-linejoin:round;stroke-miterlimit:10" points="109.75 113.22 109.75 113.18 109.71 113.09 109.58 112.96 109.49 112.92 109.36 112.92 109.31 112.96 109.22 113 109.14 113.09 109.14 113.36 109.18 113.44 109.22 113.49 109.31 113.53 109.58 113.53 109.66 113.44 109.71 113.36 109.75 113.31 109.75 113.22"/><polyline style="fill-rule:evenodd;clip-rule:evenodd" points="131.24 105.66 131.24 105.58 131.2 105.49 131.2 105.44 131.11 105.4 131.07 105.36 131.02 105.36 130.94 105.31 130.85 105.36 130.81 105.36 130.72 105.4 130.63 105.49 130.63 105.8 130.72 105.88 130.81 105.93 130.85 105.97 131.02 105.97 131.11 105.88 131.2 105.84 131.2 105.8 131.24 105.71 131.24 105.66"/><polyline style="fill:none;stroke:#000;stroke-width:.369;stroke-linecap:round;stroke-linejoin:round;stroke-miterlimit:10" points="131.24 105.66 131.24 105.58 131.2 105.49 131.2 105.44 131.11 105.4 131.07 105.36 131.02 105.36 130.94 105.31 130.85 105.36 130.81 105.36 130.72 105.4 130.63 105.49 130.63 105.8 130.72 105.88 130.81 105.93 130.85 105.97 131.02 105.97 131.11 105.88 131.2 105.84 131.2 105.8 131.24 105.71 131.24 105.66"/><polyline style="fill-rule:evenodd;clip-rule:evenodd" points="104.39 93.93 104.39 93.88 104.35 93.8 104.21 93.66 104.13 93.62 103.99 93.62 103.91 93.66 103.77 93.8 103.77 93.88 103.73 93.93 103.77 94.02 103.77 94.1 103.91 94.24 103.99 94.24 104.08 94.28 104.13 94.24 104.21 94.24 104.35 94.1 104.39 94.02 104.39 93.93"/><polyline style="fill:none;stroke:#000;stroke-width:.369;stroke-linecap:round;stroke-linejoin:round;stroke-miterlimit:10" points="104.39 93.93 104.39 93.88 104.35 93.8 104.21 93.66 104.13 93.62 103.99 93.62 103.91 93.66 103.77 93.8 103.77 93.88 103.73 93.93 103.77 94.02 103.77 94.1 103.91 94.24 103.99 94.24 104.08 94.28 104.13 94.24 104.21 94.24 104.35 94.1 104.39 94.02 104.39 93.93"/><polyline style="fill-rule:evenodd;clip-rule:evenodd" points="123.64 82.59 123.64 82.41 123.55 82.32 123.46 82.28 123.42 82.24 123.29 82.24 123.2 82.28 123.07 82.41 123.03 82.5 123.03 82.63 123.07 82.72 123.2 82.85 123.29 82.9 123.42 82.9 123.46 82.85 123.55 82.81 123.64 82.72 123.64 82.59"/><polyline style="fill:none;stroke:#000;stroke-width:.369;stroke-linecap:round;stroke-linejoin:round;stroke-miterlimit:10" points="123.64 82.59 123.64 82.41 123.55 82.32 123.46 82.28 123.42 82.24 123.29 82.24 123.2 82.28 123.07 82.41 123.03 82.5 123.03 82.63 123.07 82.72 123.2 82.85 123.29 82.9 123.42 82.9 123.46 82.85 123.55 82.81 123.64 82.72 123.64 82.59"/><polyline style="fill-rule:evenodd;clip-rule:evenodd" points="139.16 77.49 139.16 77.45 139.11 77.36 138.98 77.23 138.89 77.18 138.76 77.18 138.72 77.23 138.63 77.27 138.54 77.36 138.54 77.67 138.63 77.75 138.72 77.8 138.76 77.8 138.85 77.84 138.89 77.8 138.98 77.8 139.11 77.67 139.16 77.58 139.16 77.49"/><polyline style="fill:none;stroke:#000;stroke-width:.369;stroke-linecap:round;stroke-linejoin:round;stroke-miterlimit:10" points="139.16 77.49 139.16 77.45 139.11 77.36 138.98 77.23 138.89 77.18 138.76 77.18 138.72 77.23 138.63 77.27 138.54 77.36 138.54 77.67 138.63 77.75 138.72 77.8 138.76 77.8 138.85 77.84 138.89 77.8 138.98 77.8 139.11 77.67 139.16 77.58 139.16 77.49"/><polyline style="fill-rule:evenodd;clip-rule:evenodd" points="109.44 71.51 109.4 71.47 109.4 71.38 109.27 71.25 109.18 71.2 109.05 71.2 108.96 71.25 108.83 71.38 108.78 71.47 108.78 71.6 108.83 71.64 108.87 71.73 108.96 71.82 109.27 71.82 109.36 71.73 109.4 71.64 109.4 71.6 109.44 71.51"/><polyline style="fill:none;stroke:#000;stroke-width:.369;stroke-linecap:round;stroke-linejoin:round;stroke-miterlimit:10" points="109.44 71.51 109.4 71.47 109.4 71.38 109.27 71.25 109.18 71.2 109.05 71.2 108.96 71.25 108.83 71.38 108.78 71.47 108.78 71.6 108.83 71.64 108.87 71.73 108.96 71.82 109.27 71.82 109.36 71.73 109.4 71.64 109.4 71.6 109.44 71.51"/><polyline style="fill-rule:evenodd;clip-rule:evenodd" points="94.46 76.92 94.41 76.83 94.41 76.79 94.37 76.74 94.32 76.65 94.24 76.65 94.19 76.61 94.06 76.61 93.97 76.65 93.93 76.65 93.88 76.74 93.8 76.83 93.8 77.01 93.84 77.05 93.88 77.14 93.97 77.23 94.24 77.23 94.32 77.18 94.37 77.14 94.41 77.05 94.41 77.01 94.46 76.92"/><polyline style="fill:none;stroke:#000;stroke-width:.369;stroke-linecap:round;stroke-linejoin:round;stroke-miterlimit:10" points="94.46 76.92 94.41 76.83 94.41 76.79 94.37 76.74 94.32 76.65 94.24 76.65 94.19 76.61 94.06 76.61 93.97 76.65 93.93 76.65 93.88 76.74 93.8 76.83 93.8 77.01 93.84 77.05 93.88 77.14 93.97 77.23 94.24 77.23 94.32 77.18 94.37 77.14 94.41 77.05 94.41 77.01 94.46 76.92"/><polyline style="fill-rule:evenodd;clip-rule:evenodd" points="151.16 93.01 151.16 92.87 151.11 92.79 151.07 92.74 150.98 92.7 150.72 92.7 150.67 92.74 150.58 92.79 150.58 92.87 150.54 92.92 150.54 93.05 150.58 93.14 150.58 93.18 150.67 93.23 150.76 93.31 150.94 93.31 150.98 93.27 151.07 93.23 151.16 93.14 151.16 93.01"/><polyline style="fill:none;stroke:#000;stroke-width:.369;stroke-linecap:round;stroke-linejoin:round;stroke-miterlimit:10" points="151.16 93.01 151.16 92.87 151.11 92.79 151.07 92.74 150.98 92.7 150.72 92.7 150.67 92.74 150.58 92.79 150.58 92.87 150.54 92.92 150.54 93.05 150.58 93.14 150.58 93.18 150.67 93.23 150.76 93.31 150.94 93.31 150.98 93.27 151.07 93.23 151.16 93.14 151.16 93.01"/><polyline style="fill-rule:evenodd;clip-rule:evenodd" points="162.19 82.19 162.19 82.06 162.1 81.97 162.01 81.93 161.97 81.88 161.79 81.88 161.7 81.97 161.62 82.02 161.62 82.06 161.57 82.15 161.57 82.28 161.62 82.32 161.62 82.41 161.7 82.46 161.75 82.5 162.01 82.5 162.1 82.46 162.14 82.41 162.19 82.32 162.19 82.19"/><polyline style="fill:none;stroke:#000;stroke-width:.369;stroke-linecap:round;stroke-linejoin:round;stroke-miterlimit:10" points="162.19 82.19 162.19 82.06 162.1 81.97 162.01 81.93 161.97 81.88 161.79 81.88 161.7 81.97 161.62 82.02 161.62 82.06 161.57 82.15 161.57 82.28 161.62 82.32 161.62 82.41 161.7 82.46 161.75 82.5 162.01 82.5 162.1 82.46 162.14 82.41 162.19 82.32 162.19 82.19"/><polyline style="fill-rule:evenodd;clip-rule:evenodd" points="172.47 101.14 172.43 101.09 172.43 101 172.3 100.87 172.21 100.83 172.08 100.83 171.99 100.87 171.86 101 171.81 101.09 171.81 101.22 171.86 101.27 171.9 101.36 171.99 101.44 172.3 101.44 172.38 101.36 172.43 101.27 172.43 101.22 172.47 101.14"/><polyline style="fill:none;stroke:#000;stroke-width:.369;stroke-linecap:round;stroke-linejoin:round;stroke-miterlimit:10" points="172.47 101.14 172.43 101.09 172.43 101 172.3 100.87 172.21 100.83 172.08 100.83 171.99 100.87 171.86 101 171.81 101.09 171.81 101.22 171.86 101.27 171.9 101.36 171.99 101.44 172.3 101.44 172.38 101.36 172.43 101.27 172.43 101.22 172.47 101.14"/><polyline style="fill-rule:evenodd;clip-rule:evenodd" points="183.11 119.07 183.07 118.98 183.07 118.94 183.02 118.85 182.93 118.76 182.85 118.76 182.76 118.72 182.71 118.76 182.63 118.76 182.54 118.85 182.49 118.94 182.45 118.98 182.45 119.11 182.49 119.2 182.63 119.33 182.71 119.38 182.85 119.38 182.93 119.33 183.07 119.2 183.07 119.11 183.11 119.07"/><polyline style="fill:none;stroke:#000;stroke-width:.369;stroke-linecap:round;stroke-linejoin:round;stroke-miterlimit:10" points="183.11 119.07 183.07 118.98 183.07 118.94 183.02 118.85 182.93 118.76 182.85 118.76 182.76 118.72 182.71 118.76 182.63 118.76 182.54 118.85 182.49 118.94 182.45 118.98 182.45 119.11 182.49 119.2 182.63 119.33 182.71 119.38 182.85 119.38 182.93 119.33 183.07 119.2 183.07 119.11 183.11 119.07"/><polyline style="fill-rule:evenodd;clip-rule:evenodd" points="94.5 138.72 94.5 138.63 94.46 138.54 94.46 138.5 94.37 138.45 94.28 138.36 94.1 138.36 94.06 138.41 93.97 138.45 93.88 138.54 93.88 138.85 93.97 138.94 94.06 138.98 94.1 139.02 94.28 139.02 94.37 138.94 94.46 138.89 94.46 138.85 94.5 138.76 94.5 138.72"/><polyline style="fill:none;stroke:#000;stroke-width:.369;stroke-linecap:round;stroke-linejoin:round;stroke-miterlimit:10" points="94.5 138.72 94.5 138.63 94.46 138.54 94.46 138.5 94.37 138.45 94.28 138.36 94.1 138.36 94.06 138.41 93.97 138.45 93.88 138.54 93.88 138.85 93.97 138.94 94.06 138.98 94.1 139.02 94.28 139.02 94.37 138.94 94.46 138.89 94.46 138.85 94.5 138.76 94.5 138.72"/><polyline style="fill-rule:evenodd;clip-rule:evenodd" points="90.72 120.21 90.72 120.17 90.68 120.08 90.54 119.95 90.46 119.9 90.32 119.9 90.28 119.95 90.19 119.99 90.1 120.08 90.1 120.34 90.15 120.43 90.19 120.48 90.28 120.52 90.54 120.52 90.63 120.43 90.68 120.34 90.72 120.3 90.72 120.21"/><polyline style="fill:none;stroke:#000;stroke-width:.369;stroke-linecap:round;stroke-linejoin:round;stroke-miterlimit:10" points="90.72 120.21 90.72 120.17 90.68 120.08 90.54 119.95 90.46 119.9 90.32 119.9 90.28 119.95 90.19 119.99 90.1 120.08 90.1 120.34 90.15 120.43 90.19 120.48 90.28 120.52 90.54 120.52 90.63 120.43 90.68 120.34 90.72 120.3 90.72 120.21"/><polyline style="fill-rule:evenodd;clip-rule:evenodd" points="86.76 104.04 86.76 103.95 86.72 103.91 86.68 103.82 86.59 103.73 86.32 103.73 86.24 103.77 86.19 103.82 86.15 103.91 86.15 104.17 86.24 104.26 86.32 104.3 86.37 104.35 86.5 104.35 86.59 104.3 86.72 104.17 86.76 104.08 86.76 104.04"/><path style="fill:none;stroke:#000;stroke-width:.369;stroke-linecap:round;stroke-linejoin:round;stroke-miterlimit:10" d="M180.87 82.1l.97.92m-95.08 21.02v-.09l-.04-.04-.04-.09-.09-.09h-.26l-.09.04-.04.04-.04.09v.26l.09.09.09.04.04.04h.13l.09-.04.13-.13.04-.09v-.03"/><text transform="translate(183.46 68.865)" style="font-family:'Times-Roman';font-size:1.9446px">5</text><text transform="translate(183.457 72.03)" style="font-family:'Times-Roman';font-size:1.9446px">4</text><text transform="translate(183.452 75.501)" style="font-family:'Times-Roman';font-size:1.9446px">3</text><text transform="translate(183.445 78.666)" style="font-family:'Times-Roman';font-size:1.9446px">2</text><text transform="translate(183.439 81.83)" style="font-family:'Times-Roman';font-size:1.9446px">1</text><text transform="translate(183.436 84.337)" style="font-family:'Times-Roman';font-size:1.9446px">0</text><path style="fill:none;stroke:#000;stroke-width:.369;stroke-linecap:round;stroke-linejoin:round;stroke-miterlimit:10" d="M178.67 74.19l.97.92m-.97-9.8l.97.66v9.14m-.97-9.8v8.88m2.2-9.8V82.1m0-17.71l.97.92v17.71m.96-1.88l-1.93-1.58"/><text transform="translate(180.702 63.804)" style="font-family:'Times-Roman';font-size:1.9446px">U</text><text transform="translate(182.017 65.039)" style="font-family:'Times-Roman';font-size:1.9446px">I</text><text transform="translate(182.676 65.04)" style="font-family:'Times-Roman';font-size:1.9446px">I</text><text transform="translate(183.336 65.04)" style="font-family:'Times-Roman';font-size:1.9446px">I</text><text transform="translate(177.887 64.723)" style="font-family:'Times-Roman';font-size:1.9446px">I</text><text transform="translate(178.545 64.724)" style="font-family:'Times-Roman';font-size:1.9446px">I</text><text transform="translate(179.204 64.726)" style="font-family:'Times-Roman';font-size:1.9446px">I</text><text transform="translate(176.479 65.687)" style="font-family:'Times-Roman';font-size:1.9446px">0</text><text transform="translate(176.475 67.886)" style="font-family:'Times-Roman';font-size:1.9446px">1</text><text transform="translate(176.472 70.126)" style="font-family:'Times-Roman';font-size:1.9446px">2</text><text transform="translate(176.467 72.326)" style="font-family:'Times-Roman';font-size:1.9446px">3</text><text transform="translate(176.462 74.522)" style="font-family:'Times-Roman';font-size:1.9446px">4</text><path style="fill:none;stroke:#000;stroke-width:.369;stroke-linecap:round;stroke-linejoin:round;stroke-miterlimit:10" d="M176.78 86.06h2.59m-1.67-18.81h1.93m1.24 4.09h1.93m-3.16-2.68l-1.93-1.41m1.93 5.67l-1.93-1.27m1.93-.93l-1.93-1.27m5.09 8.52l-1.93-1.58m1.93-1.58l-1.93-1.58m1.93-1.89l-1.93-1.58m1.93-1.59l-1.93-1.58"/><polyline style="fill-rule:evenodd;clip-rule:evenodd" points="157.18 112.3 157.18 112.21 157.13 112.17 157.09 112.08 157 111.99 156.91 111.99 156.87 111.95 156.78 111.99 156.74 111.99 156.65 112.04 156.61 112.08 156.56 112.17 156.56 112.43 156.65 112.52 156.74 112.56 156.78 112.61 156.91 112.61 157 112.56 157.13 112.43 157.18 112.34 157.18 112.3"/><polyline style="fill:none;stroke:#000;stroke-width:.369;stroke-linecap:round;stroke-linejoin:round;stroke-miterlimit:10" points="157.18 112.3 157.18 112.21 157.13 112.17 157.09 112.08 157 111.99 156.91 111.99 156.87 111.95 156.78 111.99 156.74 111.99 156.65 112.04 156.61 112.08 156.56 112.17 156.56 112.43 156.65 112.52 156.74 112.56 156.78 112.61 156.91 112.61 157 112.56 157.13 112.43 157.18 112.34 157.18 112.3"/><path style="fill:none;stroke:#000;stroke-width:.25;stroke-linecap:round;stroke-linejoin:round;stroke-miterlimit:10" d="M135.82 126.76l-1.49-.31m6.41 1.45l-1.89-.44"/><path style="fill:none;stroke:#000;stroke-width:.369;stroke-linecap:round;stroke-linejoin:round;stroke-miterlimit:10" d="M108.78 24.7h-.92m-3.47-5.98h-.97m.97 2.51h-.97m.97 2.55h-.97m3.47 5.36h.97m0-1.58v1.58m-.97-8.83h.97v5.98m-.97-5.98v8.83m-3.47-2.5v5.05m0-14.55v8.22m0-8.22h-.97v14.55h.97"/><text transform="translate(104.78 19.235)" style="font-family:'Times-Roman';font-size:1.9446px">5</text><text transform="translate(104.776 21.784)" style="font-family:'Times-Roman';font-size:1.9446px">4</text><text transform="translate(104.771 24.289)" style="font-family:'Times-Roman';font-size:1.9446px">3</text><text transform="translate(104.767 26.53)" style="font-family:'Times-Roman';font-size:1.9446px">2</text><text transform="translate(104.763 29.037)" style="font-family:'Times-Roman';font-size:1.9446px">1</text><text transform="translate(104.76 31.585)" style="font-family:'Times-Roman';font-size:1.9446px">0</text><text transform="translate(109.301 22.803)" style="font-family:'Times-Roman';font-size:1.9446px">1</text><text transform="translate(109.21 25.264)" style="font-family:'Times-Roman';font-size:1.9446px">2</text><text transform="translate(109.206 27.462)" style="font-family:'Times-Roman';font-size:1.9446px">3</text><text transform="translate(109.202 29.703)" style="font-family:'Times-Roman';font-size:1.9446px">4</text><text transform="translate(109.216 20.824)" style="font-family:'Times-Roman';font-size:1.9446px">0</text><text transform="translate(98.8 18.13)" style="font-family:'Times-Roman';font-size:2.7383px">P</text><text transform="translate(106.489 19.242)" style="font-family:'Times-Roman';font-size:2.7383px">B</text><path style="fill:none;stroke:#000;stroke-width:.369;stroke-linecap:round;stroke-linejoin:round;stroke-miterlimit:10" d="M107.86 29.14l-.97-.97m-3.47 3.52l-.97-.97"/><text transform="translate(100.204 18.791)" style="font-family:'Times-Roman';font-size:2.7383px">b</text><path style="fill:none;stroke:#000;stroke-width:.369;stroke-linecap:round;stroke-linejoin:round;stroke-miterlimit:10" d="M191.94 97.88l.97.97M108.78 22.2h-.92m0 5.36l.92-.62m-.92-.66l.92.66m-1.89.62h.97m-.97-1.28h.97m-4.44.36l.97-.66m-.97-.62l.97.62m-1.93.66h.97m-.97-1.28h.97m.96 3.17h-.97m21.98 3.12h.97"/><text transform="translate(194.467 84.664)" style="font-family:'Times-Roman';font-size:1.9446px">5</text><text transform="translate(194.462 87.829)" style="font-family:'Times-Roman';font-size:1.9446px">4</text><text transform="translate(194.458 91.3)" style="font-family:'Times-Roman';font-size:1.9446px">3</text><text transform="translate(194.452 94.464)" style="font-family:'Times-Roman';font-size:1.9446px">2</text><text transform="translate(194.446 97.629)" style="font-family:'Times-Roman';font-size:1.9446px">1</text><text transform="translate(194.44 100.18)" style="font-family:'Times-Roman';font-size:1.9446px">0</text><path style="fill:none;stroke:#000;stroke-width:.369;stroke-linecap:round;stroke-linejoin:round;stroke-miterlimit:10" d="M189.75 90.02l.92.92m-.92-9.8l.92.66v9.14m-.92-9.8v8.88m2.19-9.81v17.67m0-17.67l.97.92v17.71m.92-1.88l-1.89-1.58"/><text transform="translate(191.75 79.605)" style="font-family:'Times-Roman';font-size:1.9446px">U</text><text transform="translate(193.375 80.398)" style="font-family:'Times-Roman';font-size:1.9446px">I</text><text transform="translate(194.035 80.4)" style="font-family:'Times-Roman';font-size:1.9446px">I</text><text transform="translate(188.937 80.39)" style="font-family:'Times-Roman';font-size:1.9446px">I</text><text transform="translate(189.596 80.391)" style="font-family:'Times-Roman';font-size:1.9446px">I</text><text transform="translate(187.529 81.487)" style="font-family:'Times-Roman';font-size:1.9446px">0</text><text transform="translate(187.524 83.729)" style="font-family:'Times-Roman';font-size:1.9446px">1</text><text transform="translate(187.521 85.925)" style="font-family:'Times-Roman';font-size:1.9446px">2</text><text transform="translate(187.517 88.168)" style="font-family:'Times-Roman';font-size:1.9446px">3</text><text transform="translate(187.513 90.364)" style="font-family:'Times-Roman';font-size:1.9446px">4</text><path style="fill:none;stroke:#000;stroke-width:.369;stroke-linecap:round;stroke-linejoin:round;stroke-miterlimit:10" d="M201.44 111.16l.97.97m-11.74-27.65l-1.89-1.45m1.89 5.71l-1.89-1.27m1.89-.97l-1.89-1.23m5.05 8.53l-1.89-1.58m1.89-1.59l-1.89-1.58m1.89-1.89l-1.89-1.58m1.89-1.59l-1.89-1.58"/><text transform="translate(203.938 97.998)" style="font-family:'Times-Roman';font-size:1.9446px">5</text><text transform="translate(203.933 101.119)" style="font-family:'Times-Roman';font-size:1.9446px">4</text><text transform="translate(203.928 104.635)" style="font-family:'Times-Roman';font-size:1.9446px">3</text><text transform="translate(203.922 107.755)" style="font-family:'Times-Roman';font-size:1.9446px">2</text><text transform="translate(203.917 110.92)" style="font-family:'Times-Roman';font-size:1.9446px">1</text><text transform="translate(203.912 113.47)" style="font-family:'Times-Roman';font-size:1.9446px">0</text><path style="fill:none;stroke:#000;stroke-width:.369;stroke-linecap:round;stroke-linejoin:round;stroke-miterlimit:10" d="M198.23 103.29l1.93.92m-.92-9.8l.92.66v9.14m-.92-9.8v8.88m2.2-9.8v17.67m0-17.67l.97.92v17.71m.92-1.89l-1.89-1.58"/><text transform="translate(201.221 92.894)" style="font-family:'Times-Roman';font-size:1.9446px">U</text><text transform="translate(202.846 94.04)" style="font-family:'Times-Roman';font-size:1.9446px">I</text><text transform="translate(199.068 93.681)" style="font-family:'Times-Roman';font-size:1.9446px">I</text><text transform="translate(197 94.82)" style="font-family:'Times-Roman';font-size:1.9446px">0</text><text transform="translate(196.998 97.02)" style="font-family:'Times-Roman';font-size:1.9446px">1</text><text transform="translate(196.993 99.215)" style="font-family:'Times-Roman';font-size:1.9446px">2</text><text transform="translate(196.99 101.458)" style="font-family:'Times-Roman';font-size:1.9446px">3</text><text transform="translate(196.985 103.656)" style="font-family:'Times-Roman';font-size:1.9446px">4</text><path style="fill:none;stroke:#000;stroke-width:.369;stroke-linecap:round;stroke-linejoin:round;stroke-miterlimit:10" d="M201.44 107.07h1.89m-5.06-3.78h1.89m-8.22-12.66h1.89m-5.05-5.36h1.89m9.49 12.48l-1.89-1.45m1.89 5.72l-1.89-1.28m1.89-.92l-1.89-1.28m5.06 8.53l-1.89-1.58m1.89-1.58l-1.89-1.58m1.89-1.9l-1.89-1.58m1.89-1.58l-1.89-1.58"/><text transform="translate(88.433 70.367)" style="font-family:'Times-Roman';font-size:3.1353px">R</text><text transform="translate(103.689 67.933)" style="font-family:'Times-Roman';font-size:3.1353px">R</text><text transform="translate(80.758 86.09)" style="font-family:'Times-Roman';font-size:3.1353px">F</text><text transform="translate(164.921 91.07)" style="font-family:'Times-Roman';font-size:3.1353px">F</text><defs><polyline id="prefix__c" points="125.22 136.3 128.74 139.77 129.13 140.87 129.93 143.24 130.85 146.32 131.55 149.26 115.11 149.26 113.88 145.49 113.88 144.91 113.49 144.34 113.53 143.82 113.22 143.55 113.22 142.94 112.96 142.58 112.96 141.71 112.61 141.35 112.61 138.85 113.22 140.74 114.81 140.74 114.81 139.77 113 134.36 113.22 134.28 113.4 134.36 113.44 134.54 113.44 135.11 113.49 135.38 113.8 135.6 113.88 135.9 113.88 136.3 125.22 136.3"/></defs><clipPath id="prefix__d"><use xlink:href="#prefix__c" style="overflow:visible"/></clipPath><path d="M111.86 169.22l35.16-35.16m-35.16 33.4l33.41-33.4m-33.41 31.64l31.65-31.65m-31.65 29.9l29.89-29.89m-29.89 28.13l28.13-28.13m-28.13 26.37l26.37-26.37m-26.37 24.61l24.61-24.61m-24.61 22.85l22.86-22.86m-22.86 21.1l21.1-21.1m-21.1 19.35l19.34-19.34m-19.34 17.58l17.58-17.58m-17.58 15.82l15.82-15.82m-15.82 14.06l14.07-14.06m-14.07 12.3l12.31-12.31m-12.31 10.56l10.55-10.55m-10.55 8.79l8.79-8.79m-8.79 7.03l7.03-7.03m-7.03 5.27l5.27-5.27m-5.27 3.51l3.52-3.52m-3.52 1.77l1.76-1.76"/><defs><polyline id="prefix__e" points="152.43 136.3 154.32 139.77 154.72 142.58 155.07 146.72 155.11 148.69 154.98 150.23 154.63 153.05 154.01 155.59 137.57 155.59 136.3 152.12 136.3 151.15 136.21 150.5 135.64 149.97 135.42 149.66 135.38 148.25 134.98 148.03 134.72 147.59 134.72 146.28 134.01 145.75 134.01 144.65 133.88 144.39 133.44 144.12 133.31 143.82 133.31 142.41 133 141.97 132.52 141.71 132.52 135.11 134.72 140.74 136.3 140.74 136.3 139.77 132.21 129.27 132.52 129.18 133.05 129.05 133.35 129.49 133.31 130.19 133.75 130.54 134.01 130.8 134.01 131.16 133.97 131.73 134.23 132.08 134.5 132.3 134.67 132.56 134.67 133.35 135.33 134.06 135.38 135.07 136.12 135.55 136.26 135.77 136.3 136.3 152.43 136.3"/></defs><clipPath id="prefix__f"><use xlink:href="#prefix__e" style="overflow:visible"/></clipPath><path d="M131.2 179.77l50.99-50.99m-50.99 49.23l49.23-49.23m-49.23 47.47l47.47-47.47m-47.47 45.71l45.71-45.71m-45.71 43.96l43.95-43.95m-43.95 42.19l42.2-42.19m-42.2 40.43l40.44-40.44m-40.44 38.68l38.68-38.68M131.2 165.7l36.92-36.92m-36.92 35.17l35.16-35.16m-35.16 33.4l33.41-33.4m-33.41 31.64l31.65-31.65m-31.65 29.89l29.89-29.89m-29.89 28.13l28.13-28.13m-28.13 26.37l26.37-26.37M131.2 153.4l24.61-24.61m-24.61 22.85l22.86-22.86m-22.86 21.1l21.1-21.1m-21.1 19.34l19.34-19.34m-19.34 17.58l17.58-17.58m-17.58 15.83l15.82-15.82m-15.82 14.06l14.07-14.06m-14.07 12.3l12.31-12.31m-12.31 10.55l10.55-10.55m-10.55 8.79l8.79-8.79m-8.79 7.04l7.03-7.03m-7.03 5.27l5.27-5.27m-5.27 3.51l3.52-3.52m-3.52 1.76l1.76-1.76"/><defs><polyline id="prefix__g" points="132.43 3.12 132.52 2.9 132.52 14.59 128.39 14.59 130.32 3.65 131.24 3.56 132.04 3.34 132.43 3.12"/></defs><clipPath id="prefix__h"><use xlink:href="#prefix__g" style="overflow:visible"/></clipPath><path d="M127.68 19.78L145.27 2.2m-17.59 15.82L143.51 2.2m-15.83 14.06L141.75 2.2m-14.07 12.3l12.31-12.3m-12.31 10.55L138.23 2.2m-10.55 8.79l8.79-8.79m-8.79 7.03l7.03-7.03m-7.03 5.27l5.27-5.27m-5.27 3.51l3.52-3.52m-3.52 1.77l1.76-1.76"/><defs><polyline id="prefix__i" points="111.95 11.6 111.95 14.59 107.55 14.59 109.44 12.31 110.94 12.13 111.73 11.87 111.95 11.6"/></defs><clipPath id="prefix__j"><use xlink:href="#prefix__i" style="overflow:visible"/></clipPath><path d="M106.59 21.54l10.55-10.55m-10.55 8.79l8.79-8.79m-8.79 7.03l7.03-7.03m-7.03 5.27l5.27-5.27m-5.27 3.51l3.52-3.52m-3.52 1.77l1.76-1.76"/><defs><polyline id="prefix__k" points="96.79 8.92 96.79 14.59 92.35 14.59 94.28 9.71 95.86 9.49 96.61 9.19 96.79 8.92"/></defs><clipPath id="prefix__l"><use xlink:href="#prefix__k" style="overflow:visible"/></clipPath><path d="M90.76 21.54l14.06-14.06m-14.06 12.3l12.31-12.31M90.76 18.02l10.55-10.55m-10.55 8.79l8.79-8.79m-8.79 7.03l7.03-7.03m-7.03 5.28l5.27-5.27m-5.27 3.51l3.52-3.52m-3.52 1.76l1.76-1.76"/><defs><polyline id="prefix__m" points="184.34 42.46 184.34 46.68 182.36 44.17 182.1 44 181.7 44.04 181.48 44.26 181.4 44.61 181.53 44.92 184.21 48.3 184.34 48.44 184.38 61.4 179.07 54.41 181.04 44.96 181.18 43.21 182.76 43.12 183.55 42.94 184.16 42.72 184.34 42.46"/></defs><clipPath id="prefix__n"><use xlink:href="#prefix__m" style="overflow:visible"/></clipPath><path d="M178.67 67.25l26.37-26.37m-26.37 24.61l24.61-24.61m-24.61 22.85l22.86-22.86m-22.86 21.1l21.1-21.1m-21.1 19.35l19.34-19.34m-19.34 17.58l17.58-17.58M178.67 56.7l15.82-15.82m-15.82 14.06l14.06-14.07m-14.06 12.31l12.31-12.31m-12.31 10.56l10.55-10.55m-10.55 8.79l8.79-8.79m-8.79 7.03l7.03-7.03m-7.03 5.27l5.27-5.27m-5.27 3.51l3.52-3.52m-3.52 1.76l1.76-1.76"/><defs><polyline id="prefix__o" points="195.11 59.82 195.11 63.91 193.35 61.71 193.09 61.58 192.73 61.67 192.47 61.93 192.47 62.37 194.93 65.62 195.11 65.84 195.11 75.86 189.92 68.92 192.25 60.57 193.26 60.52 194.32 60.35 194.93 60.08 195.11 59.82"/></defs><clipPath id="prefix__p"><use xlink:href="#prefix__o" style="overflow:visible"/></clipPath><path d="M189.22 81.31l22.86-22.86m-22.86 21.11l21.1-21.1m-21.1 19.34l19.34-19.34m-19.34 17.58l17.58-17.58m-17.58 15.82l15.82-15.82m-15.82 14.06l14.06-14.06m-14.06 12.31l12.31-12.31m-12.31 10.55l10.55-10.55m-10.55 8.79l8.79-8.79m-8.79 7.03l7.03-7.03m-7.03 5.27l5.27-5.27m-5.27 3.51l3.52-3.52m-3.52 1.77l1.76-1.76"/><defs><polyline id="prefix__q" points="205.22 78.15 205.22 81.75 203.55 79.64 203.15 79.6 202.71 79.82 202.62 80.3 205.26 83.64 205.22 89.4 200.21 82.72 202.41 78.76 203.68 78.68 204.6 78.46 205.22 78.15"/></defs><clipPath id="prefix__r"><use xlink:href="#prefix__q" style="overflow:visible"/></clipPath><path d="M199.77 95.38l17.58-17.58m-17.58 15.82l15.82-15.82m-15.82 14.06l14.06-14.06m-14.06 12.3l12.31-12.31m-12.31 10.56l10.55-10.55m-10.55 8.79l8.79-8.79m-8.79 7.03l7.03-7.03m-7.03 5.27l5.27-5.27m-5.27 3.51l3.52-3.52m-3.52 1.77l1.76-1.76"/><path style="fill:none;stroke:#000;stroke-width:.369;stroke-linecap:round;stroke-linejoin:round;stroke-miterlimit:10" d="M128.74 50.02v1.23m.92 0h-.92m0-1.23h.92m0 0l.31.31h1.27v.62h-1.27l-.31.31m-28.44-1.24v1.23m.93 0h-.92m-.01-1.23h.92m.01 0l.35.31h1.23v.62h-1.23l-.35.31"/><polyline style="fill-rule:evenodd;clip-rule:evenodd" points="79.73 81.88 79.69 81.8 79.69 81.75 79.64 81.67 79.56 81.58 79.25 81.58 79.16 81.67 79.12 81.75 79.07 81.8 79.07 81.93 79.12 82.02 79.25 82.15 79.34 82.19 79.47 82.19 79.56 82.15 79.69 82.02 79.69 81.93 79.73 81.88"/><polyline style="fill:none;stroke:#000;stroke-width:.369;stroke-linecap:round;stroke-linejoin:round;stroke-miterlimit:10" points="79.73 81.88 79.69 81.8 79.69 81.75 79.64 81.67 79.56 81.58 79.25 81.58 79.16 81.67 79.12 81.75 79.07 81.8 79.07 81.93 79.12 82.02 79.25 82.15 79.34 82.19 79.47 82.19 79.56 82.15 79.69 82.02 79.69 81.93 79.73 81.88"/><polyline style="fill-rule:evenodd;clip-rule:evenodd" points="86.98 27.87 87.95 27.87 88.87 28.53 87.95 29.14 86.98 29.14 86.98 27.87"/><polyline style="fill-rule:evenodd;clip-rule:evenodd" points="91.42 21.54 91.42 22.81 92.35 22.81 93.31 22.2 92.35 21.54 91.42 21.54"/><polyline style="fill-rule:evenodd;clip-rule:evenodd" points="102.46 25.36 102.46 26.64 103.42 26.64 104.39 25.98 103.42 25.36 102.46 25.36"/><polyline style="fill-rule:evenodd;clip-rule:evenodd" points="106.89 26.28 106.89 27.56 107.82 27.56 108.78 26.94 107.86 26.28 106.89 26.28"/><path style="fill:none;stroke:#000;stroke-width:.369;stroke-linecap:round;stroke-linejoin:round;stroke-miterlimit:10" d="M130.76 22.81l.97-.66m-.97-.61l.97.62m0 2.54h-.97m.97 2.2h-.97m-.92-4.09h.92m-.92-1.27h.92m-4.39 7.6l.92-.66m-.92-.61l.92.62m-1.89.65h.97m-.97-1.27h.97m.92-9.19h-.92m.92 2.55h-.92m.92 2.5h-.92m.92 2.25h-.92m3.47 3.16h.92m0-6.33v6.33m-.92-8.88h.92v1.27m-.92-1.27v8.88m-3.47 0v2.51m0-14.55v10.77m0-10.77h-.97v14.55"/><text transform="translate(127.724 19.275)" style="font-family:'Times-Roman';font-size:1.9446px">5</text><text transform="translate(127.72 21.78)" style="font-family:'Times-Roman';font-size:1.9446px">4</text><text transform="translate(127.715 24.33)" style="font-family:'Times-Roman';font-size:1.9446px">3</text><text transform="translate(127.711 26.527)" style="font-family:'Times-Roman';font-size:1.9446px">2</text><text transform="translate(127.707 29.078)" style="font-family:'Times-Roman';font-size:1.9446px">1</text><text transform="translate(127.704 31.582)" style="font-family:'Times-Roman';font-size:1.9446px">0</text><text transform="translate(132.245 22.8)" style="font-family:'Times-Roman';font-size:1.9446px">1</text><text transform="translate(132.154 25.26)" style="font-family:'Times-Roman';font-size:1.9446px">2</text><text transform="translate(132.149 27.502)" style="font-family:'Times-Roman';font-size:1.9446px">3</text><text transform="translate(132.146 29.7)" style="font-family:'Times-Roman';font-size:1.9446px">4</text><text transform="translate(132.162 20.865)" style="font-family:'Times-Roman';font-size:1.9446px">0</text><text transform="translate(121.523 18.17)" style="font-family:'Times-Roman';font-size:2.7383px">P</text><text transform="translate(129.388 19.283)" style="font-family:'Times-Roman';font-size:2.7383px">C</text><path style="fill:none;stroke:#000;stroke-width:.369;stroke-linecap:round;stroke-linejoin:round;stroke-miterlimit:10" d="M130.76 29.14l-.92-.97m-3.47 3.48l-.97-.97"/><text transform="translate(122.972 18.788)" style="font-family:'Times-Roman';font-size:2.7383px">c</text><polyline style="fill-rule:evenodd;clip-rule:evenodd" points="129.79 21.54 129.84 22.81 130.76 22.81 131.73 22.15 130.81 21.54 129.79 21.54"/><polyline style="fill-rule:evenodd;clip-rule:evenodd" points="125.4 27.87 126.32 27.87 127.33 28.48 126.32 29.14 125.4 29.14 125.4 27.87"/><polyline style="fill-rule:evenodd;clip-rule:evenodd" points="179.64 67.2 179.64 68.66 177.7 67.25 179.64 67.2"/><polyline style="fill-rule:evenodd;clip-rule:evenodd" points="180.87 69.75 180.87 71.34 182.8 71.34 180.87 69.75"/><polyline style="fill-rule:evenodd;clip-rule:evenodd" points="190.67 85.27 190.67 86.5 188.74 85.27 190.67 85.27"/><polyline style="fill-rule:evenodd;clip-rule:evenodd" points="191.94 89.09 191.94 90.63 193.83 90.63 191.94 89.05 191.94 89.09"/><polyline style="fill-rule:evenodd;clip-rule:evenodd" points="201.44 105.49 201.44 107.07 203.33 107.07 201.44 105.49"/><polyline style="fill-rule:evenodd;clip-rule:evenodd" points="200.16 103.29 200.16 104.21 198.27 103.29 200.16 103.29"/><path style="fill:none;stroke:#000;stroke-width:.369;stroke-linecap:round;stroke-linejoin:round;stroke-miterlimit:10" d="M110.06 100.92l-1.58-2.24h-5.67m57.22 27.82h-2.42m25.94-7.43c.09-.13.18-.31.18-.48 0-.53-.44-.92-.97-.92-.26 0-.53.09-.75.31m-89.97 23.73v2.81m-.62-2.81v2.81h.62m5.05-2.81v2.81m.66-2.81v2.81h-.66m100.88.97h-.66m0-2.86v2.86m-5.67 0h.62v-2.86m3.38-2.81c.04-.13.09-.22.09-.35 0-.53-.44-.92-.92-.92-.31 0-.62.13-.75.35"/><path style="fill:none;stroke:#000;stroke-width:.811;stroke-linecap:round;stroke-linejoin:round;stroke-miterlimit:10" d="M160.03 124.91l.09.09h.04l.22.22h.04l.09.09v.04h.04v.04l.04.04v.18h-.04v.04l-.04.04v.04l-.09.09v.22h.04v.04h.04l.04.04v.04h.04l.13.13h.04v.04h.04l.04.04v.04l.04.04v.18h-.04v.04l-.04.04v.04h-.04v.22l.09.09v.04h.04l.04.04h.08v.04l.04.04h.04l.13.13v.04l.04.04v.13l-.04.04v.04h-.04v.04l-.04.04v.22h.04v.04l.04.04h.04v.04h.04l.18.18h.04l.18.18v.04h.04v.26h-.04v.04l-.04.04v.04l-.04.04v.04m8.23-4.01l.04.04h.04l.09.04h.04l.04.04h.04l.09.04h.04l.04.04h.04l.09.09h.04l.09.09h.04v.04l.04.04v.13h-.04v.09l-.04.04v.04l-.04.04v.04l-.04.04v.04l.04.09.09.09h.04l.13.13h.04l.04.04h.04l.04.04h.04l.04.04h.04v.04h.04l.04.04v.22h-.04v.09l-.04.04v.09h-.04v.09l.09.09v.04h.04l.04.04h.04l.09.09h.04l.04.04h.04l.04.04h.04l.18.18v.18l-.04.04v.09h-.04v.09l-.04.04.04.04v.09h.04v.04h.04l.04.04h.04l.09.09h.04l.04.04h.04l.04.04h.04l.04.04h.04l.09.09.09.04v.04h.04v.09l.04.04v.09h-.04v.09l-.04.04v.04l-.04.04-.04.09M129.35 72.13l.04.04h.04l.09.09h.04l.31.31v.04l.04.04v.22l-.04.04v.04l-.04.04v.04l-.04.04v.04l-.04.04v.04l-.04.04v.18l.09.09v.04l.04.04h.04l.04.04h.04v.04l.04.04h.04l.09.09h.04v.04l.04.04h.04v.04l.04.09v.22l-.04.04v.04l-.04.04v.09l-.04.04v.22l.22.22h.04l.09.09h.04v.04l.04.04h.04l.04.04v.04h.04l.04.09v.18h-.04v.13l-.09.09v.13h-.04v.09l.04.04V76l.04.04h.04v.04l.04.04h.04l.13.13h.04l.09.09h.04v.04l.09.09v.09h.04v.04l-.04.04v.09l-.04.04v.09l-.04.04v.04l-.04.04v.22h.04v.04l.13.13h.04v.04l.04.04h.04l.09.09h.04l.18.18.04.09.04.04v.31l-.04.04v.09l-.04.04v.04l-.04.04v.04l-.09.09-.04.09m-12.24-6.46h.04l.09.09h.04l.09.09h.04l.18.18h.04v.04l.04.04v.04l.04.04v.22l-.04.04v.09l-.04.04v.04l-.04.04v.13l-.04.04v.09l.04.09v.04l.13.13h.04v.04l.04.04h.04l.04.04h.04l.04.04v.04h.04l.04.04v.04h.04l.04.09v.22h-.04v.13l-.04.04v.09l-.04.04v.13l.04.04v.09h.04v.04l.04.04h.04l.04.04v.04h.04l.04.04h.04l.26.26v.22l-.04.04v.13l-.04.04v.09l-.04.04v.09l.04.09v.04l.26.26h.1l.04.04h.04v.04l.04.04h.04v.04l.09.09v.22l-.04.04v.09l-.04.04v.13l-.04.04v.09l.04.09v.04l.04.04h.04v.04l.04.04h.04l.09.09h.04l.13.13h.04l.09.09h.04l.13.13v.04l.04.04v.04h.04v.09l.04.04v.31l.04.04v.09M126.5 94.59l.04.04h.04l.09.09h.04l.18.18h.04l.04.04v.04l.09.09v.04l.04.04v.35l-.04.04v.09l-.04.04v.04l-.04.04v.09l-.04.04v.13l.04.09v.04l.13.13h.04v.04l.04.04h.04l.09.09h.04l.13.13h.04l.04.04v.04l.04.04v.04l.04.04v.09l-.04.04v.18l-.04.04v.04l-.04.04v.31l.13.13v.04h.04l.09.09h.04l.09.09h.04l.09.09h.04l.04.04v.04h.04l.04.09v.26l-.04.04v.13l-.04.04v.18l-.04.04.04.04v.09l.09.09v.04h.04l.09.09h.04l.09.09h.04l.09.09h.04v.04l.04.04h.04l.04.04v.09l.04.04v.18l-.04.04v.13l-.04.04v.09l-.04.04v.18l.04.04v.04l.04.04v.04h.04l.09.09h.1l.09.09h.04l.09.09h.04l.09.09h.04l.09.09.09.04v.04l.04.04h.04v.09l.04.04v.48l-.04.09m6.03-7.13h.04l.09.09h.09l.09.09h.04l.09.09h.04l.09.09h.04l.04.04v.04l.09.09v.4l-.04.04v.09l-.04.04v.13l-.04.04v.13l.04.04v.04l.04.04v.04h.04v.04l.04.04h.04l.09.09h.04l.04.04v.04h.04l.09.09h.04v.04l.09.09v.31l-.02.07v.09l-.04.04v.18h-.04v.09l.04.09v.04l.22.22h.04l.09.09h.04v.04l.04.04h.04l.04.04V98h.04l.04.09v.31l-.04.04v.09l-.04.04v.35l.04.04V99l.04.04h.04l.04.04v.04h.04l.09.09h.04l.09.09h.04v.04l.04.04h.04v.04l.04.09v.31l-.04.04v.13l-.04.04v.26l.04.04v.04l.13.13h.04l.18.18h.04l.09.09h.04l.13.13v.1l.04.04v.4l-.04.09v.09l-.04.04v.04l-.04.04v.09M145.49 113.53l.04.04.09.04.13.13.09.04.09.04.04.04.09.04.09.09.09.04.13.13.04.09.04.04.09.09.04.13v.4l-.04.09v.18l-.04.04v.44l.04.04v.04l.22.22h.04l.22.22h.04l.09.09v.04l.04.04.04.09v.04l.04.04v.22l-.04.09v.18l-.04.04v.22l-.04.04v.04l.04.09v.09l.04.04v.04l.09.09v.04l.04.04h.04l.09.09.09.04.13.13h.04l.04.04v.04l.09.09.04.09v.09l.04.09v.04l-.04.04v.22l-.04.04v.18l-.04.09v.22l.04.09v.04l.09.09v.04l.09.09h.04l.22.22h.04l.22.22.04.09v.44l-.04.04v.18l-.04.04v.26l.04.13v.04l.04.04v.04l.09.09h.04l.22.22h.04l.04.04.09.04.13.13v.04l.09.09v.04l.04.04v.13l.04.04v.18l-.04.04v.18l-.04.09v.13l-.04.04v.09l-.04.04-.04.13m-16.72-9.69l.04.04.09.04.04.04.09.04.04.04.09.04.13.13.09.04.09.09.04.09.09.09v.04l.09.09v.18l.04.09v.04l-.04.04v.26l-.04.04v.13l-.04.09v.44l.04.04v.04h.04l.13.13v.04l.04.04h.09l.13.13h.04l.09.09v.04l.09.09.04.09v.09l.04.04v.04l-.04.09v.22l-.04.04v.18l-.04.09v.22l.04.09v.04l.04.04v.04l.04.04h.04l.18.18h.04l.18.18h.04l.09.09v.04l.04.09.04.04v.31l-.04.09v.18l-.04.04v.44l.04.04v.04l.04.04.18.18.09.04.04.04h.04l.26.26.04.09v.09l.04.09v.04l-.04.04v.22l-.04.09v.18l-.04.04v.22l.04.09v.04l.04.04v.04l.18.18h.04l.13.13h.09l.35.35v.04l.04.04v.04l.04.09v.09l.04.09v.48l-.04.09v.22l-.04.13M101.53 86.37h.04l.04.04v.04l.04.04h.04l.04.04v.04h.04l.09.09v.04h.04v.04l.04.04v.18h-.04V87h-.04l-.09.09v.04h-.04l-.04.04v.13h.04v.04l.18.18h.04v.04l.04.04h.04l.09.09v.04h.04v.18l-.13.13v.04h-.04v.13l.04.04v.04h.04l.04.04v.04h.04l.04.04h.04v.04l.04.04h.04v.04l.04.04h.04v.04h.04v.18l-.18.18v.18h.04v.04l.04.04h.04v.04h.04l.09.09h.04v.04l.04.04h.04l.18.18v.04h.04v.22l-.04.04v.04h-.04V90l-.04.04m4.17-3.67h.04l.09.09h.04l.18.18h.04v.04h.04l.04.04v.04l.04.04v.13l-.09.09v.04h-.04v.04h-.04l-.04.04v.04h-.04v.09l.04.04v.04l.04.04h.04v.04h.04l.09.09h.04l.13.13h.04v.04h.04v.04l.04.04v.13h-.04v.04h-.04v.04l-.09.09v.13l.09.09v.04h.04l.04.04h.04l.04.04v.04h.04l.04.04h.04l.04.04v.04h.04l.09.09v.13h-.04v.04l-.03.17v.04h-.04v.04l-.04.04.04.04v.04l.09.09h.04l.04.04v.04h.04l.04.04h.04l.09.09h.04l.09.09h.04v.04l.04.04h.04v.04l.04.04v.18h-.04v.04l-.04.04v.04h-.04l-.04.04"/><polyline style="fill:none;stroke:#000;stroke-width:.369;stroke-linecap:round;stroke-linejoin:round;stroke-miterlimit:10" points="112.61 141.35 112.61 141.4 112.65 141.4 112.65 141.44 112.7 141.44 112.83 141.57 112.83 141.62 112.92 141.71 112.92 141.75 112.96 141.79 112.96 142.63 113 142.63 113 142.72 113.05 142.72 113.05 142.76 113.09 142.76 113.09 142.8 113.14 142.8 113.14 142.85 113.18 142.85 113.18 142.89 113.22 142.94 113.22 143.55 113.27 143.59 113.27 143.64 113.31 143.64 113.36 143.68 113.4 143.68 113.4 143.73 113.44 143.73 113.44 143.77 113.49 143.82 113.49 144.34 113.53 144.39 113.53 144.43 113.58 144.47 113.58 144.52 113.62 144.56 113.62 144.61 113.66 144.61 113.66 144.65 113.71 144.65 113.71 144.69 113.8 144.78 113.8 144.83 113.84 144.87 113.84 145.05 113.88 145.09 113.88 145.49"/><path style="fill:none;stroke:#000;stroke-width:.811;stroke-linecap:round;stroke-linejoin:round;stroke-miterlimit:10" d="M115.77 105.31l.04.04v.04h.04l.04.04h.04v.04l.04.04h.04l.09.09v.04h.04v.04h.04v.18l-.04.04v.04h-.04v.04h-.04v.04l-.09.09v.04h-.04v.18h.04v.04h.04l.04.04v.04h.04l.04.04h.04l.18.18h.04l.09.09v.04l.04.04v.04h-.04v.09l-.09.09v.04h-.04v.09l-.04.04.04.04v.04l.04.04v.04h.04l.04.04h.04l.04.04v.04h.04l.09.09h.04l.18.18v.13l-.04.04v.04h-.04v.09h-.04v.04l-.04.04v.13l.18.18h.08l.09.09h.04l.09.09h.04l.22.22v.13h.04v.13l-.04.04v.09h-.04v.04l-.04.04v.04l-.04.04m5.05 15.85h.04l.04.04h.04l.09.09h.04l.04.04v.04h.04l.13.13h.04v.04l.04.04v.18l-.04.04v.04h-.04v.04h-.04v.04l-.04.04v.04l-.04.04v.04l.04.04v.04h.04v.04l.04.04h.04l.04.04v.04h.04l.04.04h.04l.04.04v.04h.04l.13.13v.22h-.04v.04l-.04.04v.04h-.04v.18l.04.04v.04h.04v.04h.04l.13.13h.04l.13.13h.04v.04l.04.04v.04h.04v.09l-.04.04v.04l-.09.09v.04h-.04v.18l.04.04v.04h.04l.13.13h.04l.04.04v.04h.04l.04.04h.04l.18.18v.04h.04v.27l-.04.04v.04l-.04.04v.04l-.09.09h-.04v.04l-.04.04"/><polyline style="fill:none;stroke:#000;stroke-width:.811;stroke-linecap:round;stroke-linejoin:round;stroke-miterlimit:10" points="106.89 105.31 106.98 105.4 107.03 105.4 107.03 105.44 107.07 105.49 107.11 105.49 107.11 105.53 107.16 105.58 107.2 105.58 107.2 105.62 107.29 105.71 107.29 105.75 107.33 105.8 107.33 105.93 107.29 105.97 107.29 106.02 107.25 106.02 107.25 106.06 107.2 106.06 107.2 106.1 107.16 106.1 107.16 106.15 107.11 106.19 107.11 106.23 107.07 106.23 107.07 106.32 107.11 106.37 107.11 106.41 107.16 106.45 107.2 106.45 107.2 106.5 107.25 106.54 107.29 106.54 107.29 106.59 107.33 106.63 107.38 106.63 107.42 106.67 107.42 106.72 107.47 106.72 107.47 106.76 107.51 106.81 107.55 106.81 107.55 107.03 107.51 107.03 107.51 107.07 107.38 107.2 107.38 107.25 107.33 107.29 107.33 107.38 107.38 107.38 107.38 107.42 107.42 107.42 107.42 107.47 107.55 107.6 107.6 107.6 107.64 107.64 107.64 107.69 107.69 107.69 107.82 107.82 107.86 107.82 107.86 107.86 107.91 107.91 107.91 107.99 107.86 108.04 107.86 108.08 107.82 108.13 107.77 108.13 107.77 108.17 107.73 108.21 107.73 108.26 107.69 108.3 107.69 108.39 107.73 108.43 107.73 108.48 107.77 108.48 107.77 108.52 107.82 108.52 107.91 108.61 107.95 108.61 107.99 108.65 107.99 108.7 108.04 108.7 108.17 108.83 108.21 108.83 108.26 108.87 108.26 108.92 108.3 108.96 108.35 108.96 108.35 109.05 108.39 109.05 108.39 109.18 108.35 109.18 108.35 109.27 108.3 109.27 108.3 109.31 108.26 109.31 108.26 109.36 108.21 109.36 108.21 109.4 108.17 109.44"/><path style="fill:none;stroke:#000;stroke-width:.369;stroke-linecap:round;stroke-linejoin:round;stroke-miterlimit:10" d="M133.05 129l.04.04v.04h.04v.04h.04v.09h.04v.09h.04v.04l.04.04v.13l.04.04v.18l-.04.04v.31l.04.04v.04l.04.04v.04h.04v.04h.04l.04.04v.04h.04l.04.04h.04l.13.13h.04l.04.04v.04l.04.04.04.09.04.04v.88l.04.09v.04l.09.09v.04l.04.04h.04l.04.04v.04h.04l.09.09h.04l.04.04v.04l.04.05h.04v.04l.04.09.04.04v.22l.04.04v.04l-.04.09v.31l.04.04v.13l.04.04v.04l.04.04.22.22h.04l.04.04v.04l.04.04h.04v.04l.04.04.04.09v.04l.04.04v.31l.04.04v.4l.04.04v.09l.04.04v.04l.04.04h.04v.04h.04l.04.04h.04l.04.04h.04v.04h.04l.04.04h.04l.04.04h.04v.04h.04l.09.04v.04l.09.09v.09h.04v.13l.04.04v.4m-14.94-51.25v15.56m0-18.19v.66m0-5.54v2.94m-.49 4.84v14.02m0-17.1v1.14m0-7.16v4.09m-.48 5.27v12.48m0-16v1.58m0-8.74v5.23m-.48 5.76v10.94m0-14.98v2.11m0-10.38v6.33m2.41 20.22h4.4m9.8 52.17l1.27 3.47M106.89 105.31v7.96m16.71 14.99v1.1m-.4-2.16v2.15m-.44-3.12v3.12m-9.27 11.39v3.12m0-9.63v1.63m0-7.65v4.48m-.27 8.05v2.29m0-8.75v.79m0-7.87v5.58m48.7-8.79h-5.27m-7.56-30.9v5.1m0-10.02v3.03m-.35 1.72v4.18m0-9.9v3.87m-.4 1.67v3.12m0-9.49v4.53m-29.09 1.45v.04l.04.04h.04v.04h.04l.09.09v.04h.04v.04h.04v.04l.04.04v.04h.04v.09l.04.09v.44l-.04.04v.26l.04.04v.13l.04.04v.04l.09.09h.04v.04l.04.04h.04v.04h.04v.04h.04l.04.04v.04h.04v.04l.04.09v.84l.04.04v.04l.04.04v.04h.09v.04h.04l.13.13h.04v.04h.04v.04l.04.04v.62l-.04.04v.13l.04.04v.13l.04.04v.04l.09.09v.04l.04.04h.04v.04l.13.13v.04l.09.09v.04l.04.04v.88l.04.09.09.09v.04h.04l.04.04h.04l.04.04h.04l.04.04h.04v.04h.09l.09.09h.04l.13.13v.04l.04.04v.04l.04.04V99l.04.04v.44l.04.04v.26M137.57 139.77l-1.27-3.47m-26.86-14.86l-1.27-3.78m-6.46-21.62h.04v.04h.04v.04h.04v.04h.04v.04l.04.04v.04h.04v.13h.04v.53h.04V97h.09v.04h.04l.04.04h.04v.09h.04v.62h.04v.04l.04.04h.04v.04h.04l.04.04h.04v.04h.04l.09.09v.04h.04v.13l.04.04v.35m4.34 16.3v.48m0-9.14v6.94m.62 1.5v2.64m0-9.02V113m9.09-4.7v1.14m-.44-2.11v2.11m-.39-3.16v3.16m-8-20.3v1.01m-.4-1.94v1.93m-.39-2.85v2.86m-4.84 5.49v4.44m0-10.94v4.7m-.3 2.02v3.21m0-10.86v5.8m-.31 1.98v2.15m0-10.85v6.9m5.62 20.66v1.45m0-9.01v5.85"/><defs><polyline id="prefix__s" points="108.48 98.68 110.06 100.92 108.3 105.31 106.89 105.31 106.89 105.66 104.08 105.66 101.53 97.62 101.53 96.13 101.71 96.04 101.97 96.35 101.97 96.92 102.32 97.18 102.32 97.8 102.67 98.1 102.81 98.32 102.81 98.68 108.48 98.68"/></defs><clipPath id="prefix__t"><use xlink:href="#prefix__s" style="overflow:visible"/></clipPath><path d="M101.31 112.96l17.58-17.58m-17.58 15.82l15.82-15.82m-15.82 14.06l14.06-14.07m-14.06 12.32l12.31-12.31m-12.31 10.55l10.55-10.55m-10.55 8.79l8.79-8.79m-8.79 7.03l7.03-7.03m-7.03 5.27l5.27-5.27m-5.27 3.51l3.52-3.52m-3.52 1.77l1.76-1.76"/><polyline style="fill:none;stroke:#000;stroke-width:.369;stroke-linecap:round;stroke-linejoin:round;stroke-miterlimit:10" points="107.33 114.85 107.33 115.29 107.38 115.33 107.38 115.47 107.42 115.51 107.42 115.55 107.47 115.6 107.47 115.64 107.51 115.64 107.51 115.68 107.55 115.68 107.55 115.73 107.6 115.73 107.6 115.77 107.64 115.82 107.64 115.86 107.69 115.95 107.69 116.56 107.73 116.65 107.73 116.7 107.77 116.7 107.77 116.74 107.82 116.74 107.82 116.78 107.86 116.78 107.86 116.83 107.95 116.83 107.95 116.87 107.99 116.87 107.99 116.92 108.04 116.92 108.04 116.96 108.13 117.05 108.13 117.14 108.17 117.18 108.17 117.66"/><line style="fill:none;stroke:#000;stroke-width:.811;stroke-linecap:round;stroke-linejoin:round;stroke-miterlimit:10" x1="129.66" y1="101.84" x2="130.54" y2="104.43"/><path style="fill:none;stroke:#000;stroke-width:.369;stroke-linecap:round;stroke-linejoin:round;stroke-miterlimit:10" d="M135.68 94.59v7.25m-6.94 5.32v13.1m0-19.91v3.6m-.62 3.43v11.25m0-13.32v.44m0-6.86v4.92m-.61 3.79v9.45m0-11.87v.75m0-8.49v6.2m-.57 4.18v7.74m0-10.56v1.14m0-10.15v7.52m-.44 4.44v6.5m0-9.53v1.41m0-11.74v8.79m6.81 21.93v-9.8m0 11.95v-.57m0 5.28v-3.21m0 13.67v-5.49m.7-11.7v-8.09m0 9.94v-.26m0 6.85v-5.1m0 15.91v-5.85m.66-13.27v-6.37m0 16.44v-7.03m0 17.75v-5.76m.71-14.89v-4.66m0 16.35v-8.97m0 20v-7.69"/><text transform="translate(150.565 91.478)" style="font-family:'Times-Roman';font-size:2.3415px">I</text><text transform="translate(151.356 91.478)" style="font-family:'Times-Roman';font-size:2.3415px">I</text><text transform="translate(152.147 91.48)" style="font-family:'Times-Roman';font-size:2.3415px">I</text><text transform="translate(152.895 91.482)" style="font-family:'Times-Roman';font-size:2.3415px">C</text><path style="fill:none;stroke:#000;stroke-width:.369;stroke-linecap:round;stroke-linejoin:round;stroke-miterlimit:10" d="M130.94 121.44l-1.27-3.78m-3.17-7.6h.04l.04.04v.04h.04v.04l.13.13v.04l.04.04v.04l.04.04v.04l.04.04v.13l.04.04v.48l-.04.04.04.04v.18l.04.09v.04h.04v.04h.04v.04h.04l.09.09h.04v.04h.04l.09.09h.04v.04l.04.04v.04l.04.04v.84l.04.04v.04l.04.04v.04l.18.18h.04l.04.04v.04h.04l.09.09v.04l.09.09v.13l.04.04v.26l-.04.04v.31l.04.04v.13l.04.04v.04h.04v.04l.18.18h.04v.04l.04.04h.04l.04.04v.04h.04v.04l.04.04.04.09v.09l.04.04v.75l.04.09.04.04v.04l.04.04h.04v.04l.09.09h.04l.09.09h.04l.04.04h.04l.09.09h.04v.04l.04.04.09.04v.04l.09.09v.13l.04.04v.53m1.42 3.94h1.58m-2.86-3.78h2.86m-10.11 7.61v4.09m-6.64-24.05v4.13m-8.88-23.07v3.78"/><defs><polyline id="prefix__u" points="132.52 125.14 130.41 124.65 126.5 114.45 126.5 110.06 126.85 110.5 126.94 111.69 127.46 111.99 127.51 113 128.12 113.62 128.08 114.59 128.7 115.16 128.74 116.21 129.27 116.65 129.62 116.96 129.66 117.66 132.52 117.66 132.52 125.14"/></defs><clipPath id="prefix__v"><use xlink:href="#prefix__u" style="overflow:visible"/></clipPath><path d="M125.93 130.54l21.1-21.1m-21.1 19.34l19.34-19.34m-19.34 17.58l17.58-17.58m-17.58 15.83l15.82-15.82m-15.82 14.06l14.06-14.06m-14.06 12.3l12.31-12.31m-12.31 10.55l10.55-10.55m-10.55 8.79l8.79-8.79m-8.79 7.04l7.03-7.03m-7.03 5.27l5.27-5.27m-5.27 3.51l3.52-3.52m-3.52 1.76l1.76-1.76"/><g><defs><polyline id="prefix__w" points="131.07 126.37 132.52 126.72 132.52 127.64 131.64 127.86 131.07 126.37"/></defs><clipPath id="prefix__x"><use xlink:href="#prefix__w" style="overflow:visible"/></clipPath><path d="M129.44 130.54l5.27-5.27m-5.27 3.51l3.52-3.52m-3.52 1.76l1.76-1.76"/></g><path style="fill:none;stroke:#000;stroke-width:.369;stroke-linecap:round;stroke-linejoin:round;stroke-miterlimit:10" d="M123.33 106.28h3.16m-4.39-6.33l1.01 2.55"/><g><defs><polyline id="prefix__y" points="119.25 92.35 119.25 95.51 122.19 103.2 122.41 102.5 123.03 102.5 126.5 103.38 126.5 99.95 122.1 99.95 122.06 99.2 121.84 98.81 121.14 98.37 121.09 97.36 120.65 96.83 120.7 95.91 120.56 95.64 120.17 95.33 120.17 94.41 119.69 93.97 119.64 92.74 119.25 92.35"/></defs><clipPath id="prefix__z"><use xlink:href="#prefix__y" style="overflow:visible"/></clipPath><path d="M118.89 111.2l19.34-19.34m-19.34 17.58l17.58-17.58m-17.58 15.83l15.82-15.82m-15.82 14.06l14.07-14.06m-14.07 12.3l12.31-12.31m-12.31 10.55l10.55-10.55m-10.55 8.79l8.79-8.79m-8.79 7.03l7.03-7.03m-7.03 5.28l5.27-5.27m-5.27 3.51l3.52-3.52m-3.52 1.76l1.76-1.76"/></g><g><defs><polyline id="prefix__A" points="122.45 103.86 123.38 106.28 126.5 106.28 126.5 104.92 123.33 104.08 122.45 103.86"/></defs><clipPath id="prefix__B"><use xlink:href="#prefix__A" style="overflow:visible"/></clipPath><path d="M122.41 111.2l8.79-8.79m-8.79 7.03l7.03-7.03m-7.03 5.28l5.27-5.27m-5.27 3.51l3.52-3.52m-3.52 1.76l1.76-1.76"/></g><polyline style="fill:none;stroke:#000;stroke-width:.811;stroke-linecap:round;stroke-linejoin:round;stroke-miterlimit:10" points="162.54 105 162.58 105 162.63 105.05 162.67 105.05 162.72 105.09 162.76 105.09 162.8 105.14 162.85 105.14 162.85 105.18 162.89 105.18 162.89 105.22 162.93 105.22 162.93 105.36 162.89 105.4 162.89 105.44 162.8 105.53 162.8 105.58 162.72 105.66 162.72 105.71 162.67 105.75 162.67 105.93 162.76 106.02 162.8 106.02 162.85 106.06 162.89 106.06 162.93 106.1 163.02 106.1 163.02 106.15 163.07 106.15 163.11 106.19 163.2 106.19 163.24 106.23 163.29 106.23 163.29 106.28 163.33 106.32 163.37 106.32 163.37 106.41 163.33 106.45 163.33 106.54 163.29 106.54 163.29 106.63 163.24 106.63 163.24 106.72 163.37 106.85 163.42 106.85 163.46 106.89 163.51 106.89 163.55 106.94 163.59 106.94 163.64 106.98 163.68 106.98 163.73 107.03 163.77 107.03 163.81 107.07 163.86 107.07 163.86 107.11 163.9 107.16 163.9 107.2 163.95 107.2 163.95 107.25 163.9 107.25 163.9 107.33 163.86 107.38 163.86 107.42 163.81 107.47 163.81 107.6 163.95 107.73 164.03 107.73 164.08 107.77 164.12 107.77 164.17 107.82 164.21 107.82 164.25 107.86 164.3 107.86 164.34 107.91 164.39 107.91 164.43 107.95 164.47 107.95 164.61 108.08 164.61 108.26 164.56 108.3 164.56 108.34 164.52 108.34 164.52 108.43 164.47 108.43 164.43 108.48"/><path style="fill:none;stroke:#000;stroke-width:.369;stroke-linecap:round;stroke-linejoin:round;stroke-miterlimit:10" d="M160.96 139.77v.97m-23.61-64.31l-2.07-5.58m6.43 17.5l-3.6-9.89m11.37 30.98l-6.94-18.94m14.72 40.13l-7.16-19.52m10.86 29.63l-3.03-8.26m-20.18-55.96l-2.46-6.59m6.86 18.55l-3.69-9.93m11.38 30.98l-6.9-18.86m14.72 40.05l-7.21-19.51m10.51 28.56l-2.64-7.21M139.2 76.83l-2.55-6.9m7.12 19.21l-3.82-10.28m11.51 31.07l-6.9-18.64m14.77 39.82l-7.21-19.47m10.42 28.13l-2.55-6.86m.97 7.83h1.58m-1.58-.97h1.58v.97m.31-7.17v13.49m-33.19-97.04V36.74"/><line style="fill:none;stroke:#000;stroke-width:.811;stroke-linecap:round;stroke-linejoin:round;stroke-miterlimit:10" x1="162.54" y1="131.82" x2="161.62" y2="129.05"/><path style="fill:none;stroke:#000;stroke-width:.369;stroke-linecap:round;stroke-linejoin:round;stroke-miterlimit:10" d="M163.81 107.55v.97m-.57-1.85v1.85m-.7-3.52v3.47m-7.38 3.96l-.04 7.38m.04-12.26v3.38m-.4 1.41v6.46m0-12.13v4.13m-.44 1.41v5.45m0-12.66v5.71m0 3.88h.04l.09.09h.04l.04.04h.04v.04h.04v.04h.04v.04l.04.04v.04l.04.09v.75l.04.04v.04l.18.18v.04h.04v.04l.04.04v.04l.04.04v.13l.04.04v.13l-.04.04v.22h.04v.09l.09.09h.04l.04.04h.04l.04.04h.04v.04l.04.04v.04h.04v.18l.04.04v.53m6.4 6.08l.57.97m-5.62-3.52l-1.27-3.78m4.43 20.48v1.01m0-14.24v6.33m2.82 15.83l-1.23-3.47m1.23-3.83l-1.23-3.47m-13.06-15.17v2.2m-.7-4v4m-.7-5.98v5.98m-.66-7.82v7.87m-15.39-46.15v1.54m-.48-2.82v2.81m-.44-4.08v4.09m-.48-5.37v4.83m-.36-6.1v6.02m8.58 22.11v1.58m-.53-2.99v2.99m-.57-4.4v4.39m-.53-5.97v5.98"/><polyline style="fill:none;stroke:#000;stroke-width:.811;stroke-linecap:round;stroke-linejoin:round;stroke-miterlimit:10" points="154.32 105 154.36 105.05 154.41 105.05 154.41 105.09 154.45 105.09 154.63 105.27 154.63 105.31 154.67 105.31 154.67 105.36 154.72 105.4 154.72 105.49 154.67 105.49 154.67 105.58 154.63 105.58 154.63 105.62 154.58 105.62 154.5 105.71 154.5 105.75 154.45 105.75 154.45 105.84 154.41 105.84 154.45 105.88 154.45 105.93 154.5 105.93 154.5 105.97 154.54 105.97 154.54 106.02 154.63 106.02 154.63 106.06 154.67 106.06 154.72 106.1 154.76 106.1 154.76 106.15 154.8 106.15 154.94 106.28 154.94 106.32 154.89 106.37 154.89 106.41 154.85 106.45 154.85 106.5 154.8 106.5 154.8 106.59 154.76 106.59 154.76 106.76 154.8 106.76 154.8 106.81 154.85 106.81 154.85 106.85 154.89 106.85 154.94 106.89 154.98 106.89 155.07 106.98 155.16 106.98 155.29 107.11 155.29 107.16 155.33 107.16 155.33 107.2 155.29 107.25 155.29 107.29 155.2 107.38 155.2 107.42 155.16 107.42 155.16 107.47 155.11 107.51 155.11 107.55 155.24 107.69 155.29 107.69 155.29 107.73 155.33 107.73 155.37 107.77 155.42 107.77 155.46 107.82 155.55 107.82 155.64 107.91 155.68 107.91 155.81 108.04 155.81 108.21 155.77 108.21 155.77 108.3 155.73 108.3 155.73 108.34 155.59 108.48"/><line style="fill:none;stroke:#000;stroke-width:.369;stroke-linecap:round;stroke-linejoin:round;stroke-miterlimit:10" x1="150.85" y1="102.81" x2="149.57" y2="99.33"/><polyline style="fill:none;stroke:#000;stroke-width:.811;stroke-linecap:round;stroke-linejoin:round;stroke-miterlimit:10" points="148.34 86.37 148.39 86.37 148.43 86.41 148.47 86.41 148.52 86.46 148.65 86.46 148.69 86.5 148.74 86.5 148.78 86.54 148.83 86.54 148.87 86.59 148.91 86.59 149.05 86.72 149.05 86.81 149 86.81 149 86.85 148.83 87.03 148.83 87.07 148.78 87.07 148.78 87.12 148.74 87.16 148.78 87.2 148.78 87.29 148.83 87.29 148.83 87.34 148.87 87.34 148.91 87.38 148.96 87.38 148.96 87.42 149 87.42 149.09 87.51 149.13 87.51 149.18 87.56 149.22 87.56 149.22 87.6 149.27 87.6 149.31 87.64 149.35 87.73 149.35 87.82 149.31 87.82 149.31 87.86 149.22 87.95 149.22 87.99 149.18 87.99 149.18 88.04 149.13 88.04 149.13 88.13 149.09 88.13 149.13 88.21 149.13 88.26 149.18 88.26 149.18 88.3 149.22 88.3 149.27 88.35 149.31 88.35 149.44 88.48 149.48 88.48 149.53 88.52 149.57 88.52 149.66 88.61 149.7 88.61 149.84 88.74 149.84 88.92 149.79 88.96 149.79 89 149.75 89 149.75 89.05 149.7 89.09 149.66 89.14 149.62 89.14 149.57 89.22"/><polyline style="fill:none;stroke:#000;stroke-width:.369;stroke-linecap:round;stroke-linejoin:round;stroke-miterlimit:10" points="148.34 95.86 148.39 95.91 148.43 95.95 148.47 95.95 148.61 96.08 148.61 96.13 148.65 96.13 148.65 96.17 148.69 96.17 148.69 96.26 148.74 96.26 148.74 97 148.78 97.05 148.78 97.14 148.83 97.14 148.83 97.18 148.87 97.18 148.87 97.22 148.91 97.22 148.96 97.27 148.96 97.31 149 97.31 149 97.36 149.05 97.36 149.05 97.4 149.09 97.4 149.09 97.49 149.13 97.49 149.13 97.75 149.09 97.8 149.09 98.06 149.13 98.1 149.13 98.19 149.53 98.59 149.53 98.68 149.57 98.68 149.57 98.94 149.62 98.98 149.62 99.11 149.57 99.16 149.57 99.33"/><g><defs><polyline id="prefix__C" points="163.81 117.66 165.09 121.44 163.2 124.91 160.03 124.91 160.03 126.5 157.62 126.5 154.32 117.66 154.32 114.59 154.63 114.76 154.76 115.07 154.76 115.73 155.11 116.21 155.16 116.92 155.51 117.14 155.59 117.66 163.81 117.66"/></defs><clipPath id="prefix__D"><use xlink:href="#prefix__C" style="overflow:visible"/></clipPath><path d="M154.06 137.57l24.61-24.61m-24.61 22.86l22.86-22.86m-22.86 21.1l21.1-21.1m-21.1 19.34l19.34-19.34m-19.34 17.58l17.58-17.58m-17.58 15.82l15.82-15.82m-15.82 14.06l14.06-14.06m-14.06 12.31l12.31-12.31m-12.31 10.55l10.55-10.55m-10.55 8.79l8.79-8.79m-8.79 7.03l7.03-7.03m-7.03 5.27l5.27-5.27m-5.27 3.52l3.52-3.52m-3.52 1.76l1.76-1.76"/></g><path style="fill:none;stroke:#000;stroke-width:.369;stroke-linecap:round;stroke-linejoin:round;stroke-miterlimit:10" d="M160.78 126.94v4.48m-.35 7.82v.48m0-6.72v1.06m0-8.13v5.41m-.05 1.66l.04.04.04.04h.04v.04h.04v.04l.09.09v.04h.04v.04l.04.04v.13h.04v.18l-.04.04v.4h.04v.09h.04v.04h.04v.04h.04v.04h.04v.04h.09v.04h.04v.04l.04.04v.13l.04.04v.18l-.04.04v.31l.04.04v.04l.04.04v.04h.04l.04.04h.04l.04.04h.04v.04h.04l.13.13v.13h.04v.48m-1.54 2.95v.04h.04v.04h.04v.04h.04l.09.09v.04h.04v.04l.04.04v.04l.04.04v.09l.04.04v.31h-.04v.13l.04.04v.13l.04.04v.04l.18.18v.04h.04v.04l.04.05v.04l.04.04v.26l-.04.04v.18l.04.04v.09l.04.04v.04h.04v.04l.18.18v.04h.04v.09l.04.04v.18l-.04.04v.35l.04.04v.04h.04v.04h.04v.04h.04v.04h.04v.04h.04v.04h.04l.04.04v.04l.04.04h.04v.09l.04.04v.18l.04.04v.31M171.64 127.95V129m-.57-2.06v2.11m-.58-3.17v3.16m-.65-4.13v4.13m-8.71 11.7v1.19m0-8.75v2.72m0-7.91v3.52m-.35 8.66v.7m0-7.78v1.89"/><g><defs><polyline id="prefix__E" points="170.76 136.3 172.65 139.77 170.76 147.07 162.85 147.07 161.62 143.59 161.57 142.94 161.09 142.54 161.13 141.88 160.74 141.4 160.83 140.83 160.38 140.25 160.43 139.64 160.03 139.16 160.03 138.19 160.96 140.74 162.54 140.74 162.54 139.77 160.03 132.96 160.38 133.05 160.78 133.44 160.69 134.1 161.13 134.58 161.09 135.33 161.57 135.68 161.62 136.3 170.76 136.3"/></defs><clipPath id="prefix__F"><use xlink:href="#prefix__E" style="overflow:visible"/></clipPath><path d="M159.33 160.43l28.13-28.13m-28.13 26.37l26.37-26.37m-26.37 24.61l24.61-24.61m-24.61 22.85l22.86-22.86m-22.86 21.11l21.1-21.1m-21.1 19.34l19.34-19.34m-19.34 17.58l17.58-17.58m-17.58 15.82l15.82-15.82m-15.82 14.06l14.06-14.07m-14.06 12.32l12.31-12.31m-12.31 10.55l10.55-10.55m-10.55 8.79l8.79-8.79m-8.79 7.03l7.03-7.03m-7.03 5.27l5.27-5.27m-5.27 3.52l3.52-3.52m-3.52 1.76l1.76-1.76"/></g><polyline style="fill:none;stroke:#000;stroke-width:.811;stroke-linecap:round;stroke-linejoin:round;stroke-miterlimit:10" points="152.74 86.37 152.96 86.37 153 86.41 153.18 86.41 153.22 86.46 153.27 86.46 153.31 86.5 153.35 86.5 153.44 86.59 153.44 86.76 153.4 86.76 153.4 86.85 153.35 86.9 153.35 86.98 153.31 86.98 153.31 87.07 153.27 87.12 153.27 87.29 153.31 87.34 153.35 87.34 153.35 87.38 153.4 87.38 153.44 87.42 153.49 87.42 153.53 87.47 153.62 87.47 153.66 87.51 153.75 87.51 153.84 87.6 153.88 87.6 153.92 87.64 153.92 87.73 153.97 87.77 153.97 87.91 153.92 87.95 153.92 88.17 153.88 88.21 153.88 88.35 153.92 88.39 153.92 88.43 153.97 88.48 154.06 88.48 154.06 88.52 154.32 88.52 154.36 88.57 154.41 88.57 154.45 88.61 154.5 88.61 154.5 88.87 154.45 88.92 154.45 88.96 154.41 89 154.41 89.05 154.36 89.09 154.36 89.14 154.32 89.22"/><path style="fill:none;stroke:#000;stroke-width:.369;stroke-linecap:round;stroke-linejoin:round;stroke-miterlimit:10" d="M132.52 141.71h.04l.04.04h.04l.09.04.04.04h.04l.13.13h.06l.13.13v.04l.09.09v.04l.04.09.04.13v.18l.04.09v.31l-.04.09v.62l.04.09v.09l.04.04v.04l.04.04v.04l.04.04h.04l.04.04h.04v.04h.04l.04.04h.04l.13.13h.04v.04l.04.09v.04l.04.04v1.01l.04.09v.04l.13.13h.04v.04h.04l.04.04h.09l.13.13h.04v.04l.04.04.04.09v.04l.04.04v1.19l.04.09v.13l.04.04h.04v.04l.09.09h.04l.04.04h.04v.04l.04.04h.04l.04.04h.04v.04l.09.09.04.09v1.19l.04.09.04.04v.09l.04.04v.04h.04l.22.22h.04l.18.18v.04l.18.18v.04l.04.09v.04l.04.09v.13l.04.09v1.14m-6.48-99.2l6.33 17.1m.66 0h-1.36v.97m18.59 17.4v.92m-.61-1.97v1.98m-.53-2.86v2.86"/><polyline style="fill:none;stroke:#000;stroke-width:.811;stroke-linecap:round;stroke-linejoin:round;stroke-miterlimit:10" points="112.61 125.27 112.65 125.27 112.7 125.31 112.74 125.31 112.78 125.35 112.83 125.35 112.92 125.44 112.96 125.44 112.96 125.49 113 125.53 113.05 125.53 113.05 125.57 113.09 125.57 113.09 125.62 113.14 125.66 113.14 125.84 113.09 125.88 113.09 125.97 113.05 125.97 113.05 126.06 113 126.06 113 126.15 112.96 126.19 112.96 126.32 113 126.37 113 126.41 113.18 126.58 113.22 126.58 113.22 126.63 113.27 126.63 113.27 126.67 113.31 126.67 113.31 126.72 113.36 126.76 113.36 126.89 113.31 126.94 113.31 126.98 113.27 127.02 113.27 127.11 113.22 127.11 113.22 127.29 113.27 127.29 113.27 127.33 113.58 127.64 113.58 127.73 113.62 127.73 113.58 127.77 113.58 127.9 113.53 127.95 113.53 128.04 113.49 128.08 113.49 128.34 113.53 128.34 113.53 128.39 113.71 128.56 113.75 128.56 113.75 128.61 113.8 128.61 113.8 128.65 113.84 128.65 113.84 128.69 113.88 128.74 113.88 128.78 113.93 128.78 113.93 129.18 113.88 129.22 113.88 129.35"/><path style="fill:none;stroke:#000;stroke-width:.369;stroke-linecap:round;stroke-linejoin:round;stroke-miterlimit:10" d="M139.95 108.43l1.1 5.1m-2.51-11.69l1.05 4.97m-52.3-4.22l-.62-2.64m4.53 18.9l-3.69-15.43m8.13 34.02l-4.18-17.58m-.04 19.6L78.5 83.2m80.79 2.55l-1.49-2.55m8.78 14.82l-6.33-10.72m9.89 16.78l-2.24-3.78m9.8 16.57l-6.64-11.25m10.86 18.37l-3.12-5.32m11.43 19.39l-7.38-12.48m8.79 14.85l-.22-.35m-33.41-54.37l-.22-.31m7.08 11.96l-5.93-10.07m9.88 16.79l-2.59-4.44m9.93 16.84l-6.42-10.86m10.86 18.37l-3.38-5.71m11.52 19.42l-7.21-12.13m10.11 17.06l-1.71-2.9m-76.71-5.45h.04v.04h.04v.04h.04v.04h.04v.04h.04v.09l.04.09v.7l.04.04v.04h.04v.04h.04l.04.04h.04v.04h.04v.04l.09.09v.18l.04.04v.4"/><text transform="translate(132.517 71.455)" style="font-family:'Times-Roman';font-size:3.1353px">R</text></svg>