<svg version="1.1" xmlns="http://www.w3.org/2000/svg" x="0" y="0" viewBox="0 0 311.81 204.9" style="enable-background:new 0 0 311.81 204.9" xml:space="preserve"><text transform="translate(211.022 87.525)" style="font-family:'Asap-Regular';font-size:7px">T</text><line style="fill:none;stroke:#939598;stroke-width:.5;stroke-linecap:square;stroke-linejoin:round;stroke-dasharray:1.4173" x1="77.68" y1="90.47" x2="208.91" y2="90.47"/><line style="fill:none;stroke:#939598;stroke-width:.5;stroke-linecap:square;stroke-linejoin:round;stroke-dasharray:1.4173" x1="209.34" y1="179.11" x2="209.34" y2="90.47"/><text transform="translate(86.905 45.34)" style="font-family:'Asap-Regular';font-size:7px">Feasible frontier</text><path style="fill:none;stroke:#f49323;stroke-width:.5;stroke-linecap:square;stroke-linejoin:round" d="M244.13 179.78c-1.76-17.37-8.03-54.42-35.69-89.31C161.1 30.74 89.61 25.94 77.68 25.33"/><path d="M210.33 90.9a1.129 1.129 0 11-2.262.002 1.129 1.129 0 012.262-.002z"/><g><line style="fill:none;stroke:#6d6e71;stroke-width:.5;stroke-linecap:square;stroke-linejoin:round" x1="76.86" y1="179.03" x2="74.73" y2="179.03"/><line style="fill:none;stroke:#6d6e71;stroke-width:.5;stroke-linecap:square;stroke-linejoin:round" x1="76.86" y1="166.98" x2="74.73" y2="166.98"/><line style="fill:none;stroke:#6d6e71;stroke-width:.5;stroke-linecap:square;stroke-linejoin:round" x1="76.86" y1="154.98" x2="74.73" y2="154.98"/><line style="fill:none;stroke:#6d6e71;stroke-width:.5;stroke-linecap:square;stroke-linejoin:round" x1="76.86" y1="142.98" x2="74.73" y2="142.98"/><line style="fill:none;stroke:#6d6e71;stroke-width:.5;stroke-linecap:square;stroke-linejoin:round" x1="76.86" y1="130.98" x2="74.73" y2="130.98"/><line style="fill:none;stroke:#6d6e71;stroke-width:.5;stroke-linecap:square;stroke-linejoin:round" x1="76.86" y1="118.98" x2="74.73" y2="118.98"/><line style="fill:none;stroke:#6d6e71;stroke-width:.5;stroke-linecap:square;stroke-linejoin:round" x1="76.86" y1="106.98" x2="74.73" y2="106.98"/><line style="fill:none;stroke:#6d6e71;stroke-width:.5;stroke-linecap:square;stroke-linejoin:round" x1="76.86" y1="94.98" x2="74.73" y2="94.98"/><line style="fill:none;stroke:#6d6e71;stroke-width:.5;stroke-linecap:square;stroke-linejoin:round" x1="76.86" y1="82.98" x2="74.73" y2="82.98"/><line style="fill:none;stroke:#6d6e71;stroke-width:.5;stroke-linecap:square;stroke-linejoin:round" x1="76.86" y1="70.98" x2="74.73" y2="70.98"/><line style="fill:none;stroke:#6d6e71;stroke-width:.5;stroke-linecap:square;stroke-linejoin:round" x1="76.86" y1="34.98" x2="74.73" y2="34.98"/><line style="fill:none;stroke:#6d6e71;stroke-width:.5;stroke-linecap:square;stroke-linejoin:round" x1="76.86" y1="22.98" x2="74.73" y2="22.98"/><line style="fill:none;stroke:#6d6e71;stroke-width:.5;stroke-linecap:square;stroke-linejoin:round" x1="76.86" y1="58.98" x2="74.73" y2="58.98"/><line style="fill:none;stroke:#6d6e71;stroke-width:.5;stroke-linecap:square;stroke-linejoin:round" x1="76.86" y1="46.98" x2="74.73" y2="46.98"/><line style="fill:none;stroke:#6d6e71;stroke-width:.5;stroke-linecap:square;stroke-linejoin:round" x1="76.86" y1="10.98" x2="74.73" y2="10.98"/><line style="fill:none;stroke:#6d6e71;stroke-width:.5;stroke-linecap:square" x1="77.13" y1="179.11" x2="77.13" y2="181.29"/><line style="fill:none;stroke:#6d6e71;stroke-width:.5;stroke-linecap:square" x1="84.09" y1="179.11" x2="84.09" y2="181.23"/><line style="fill:none;stroke:#6d6e71;stroke-width:.5;stroke-linecap:square" x1="91.04" y1="179.11" x2="91.04" y2="181.23"/><line style="fill:none;stroke:#6d6e71;stroke-width:.5;stroke-linecap:square" x1="98" y1="179.11" x2="98" y2="181.23"/><line style="fill:none;stroke:#6d6e71;stroke-width:.5;stroke-linecap:square" x1="104.96" y1="179.11" x2="104.96" y2="181.23"/><line style="fill:none;stroke:#6d6e71;stroke-width:.5;stroke-linecap:square" x1="111.92" y1="179.11" x2="111.92" y2="181.23"/><line style="fill:none;stroke:#6d6e71;stroke-width:.5;stroke-linecap:square" x1="118.88" y1="179.11" x2="118.88" y2="181.23"/><line style="fill:none;stroke:#6d6e71;stroke-width:.5;stroke-linecap:square" x1="125.84" y1="179.11" x2="125.84" y2="181.23"/><line style="fill:none;stroke:#6d6e71;stroke-width:.5;stroke-linecap:square" x1="132.79" y1="179.11" x2="132.79" y2="181.23"/><line style="fill:none;stroke:#6d6e71;stroke-width:.5;stroke-linecap:square" x1="139.75" y1="179.11" x2="139.75" y2="181.23"/><line style="fill:none;stroke:#6d6e71;stroke-width:.5;stroke-linecap:square" x1="146.71" y1="179.11" x2="146.71" y2="181.23"/><line style="fill:none;stroke:#6d6e71;stroke-width:.5;stroke-linecap:square" x1="153.67" y1="179.11" x2="153.67" y2="181.23"/><line style="fill:none;stroke:#6d6e71;stroke-width:.5;stroke-linecap:square" x1="160.63" y1="179.11" x2="160.63" y2="181.23"/><line style="fill:none;stroke:#6d6e71;stroke-width:.5;stroke-linecap:square" x1="167.59" y1="179.11" x2="167.59" y2="181.23"/><line style="fill:none;stroke:#6d6e71;stroke-width:.5;stroke-linecap:square" x1="174.54" y1="179.11" x2="174.54" y2="181.23"/><line style="fill:none;stroke:#6d6e71;stroke-width:.5;stroke-linecap:square" x1="181.5" y1="179.11" x2="181.5" y2="181.23"/><line style="fill:none;stroke:#6d6e71;stroke-width:.5;stroke-linecap:square" x1="188.46" y1="179.11" x2="188.46" y2="181.23"/><line style="fill:none;stroke:#6d6e71;stroke-width:.5;stroke-linecap:square" x1="195.42" y1="179.11" x2="195.42" y2="181.23"/><line style="fill:none;stroke:#6d6e71;stroke-width:.5;stroke-linecap:square" x1="202.38" y1="179.11" x2="202.38" y2="181.23"/><line style="fill:none;stroke:#6d6e71;stroke-width:.5;stroke-linecap:square" x1="209.34" y1="179.11" x2="209.34" y2="181.23"/><line style="fill:none;stroke:#6d6e71;stroke-width:.5;stroke-linecap:square" x1="216.29" y1="179.11" x2="216.29" y2="181.23"/><line style="fill:none;stroke:#6d6e71;stroke-width:.5;stroke-linecap:square" x1="223.25" y1="179.11" x2="223.25" y2="181.23"/><line style="fill:none;stroke:#6d6e71;stroke-width:.5;stroke-linecap:square" x1="230.21" y1="179.11" x2="230.21" y2="181.23"/><line style="fill:none;stroke:#6d6e71;stroke-width:.5;stroke-linecap:square" x1="237.17" y1="179.11" x2="237.17" y2="181.23"/><line style="fill:none;stroke:#6d6e71;stroke-width:.5;stroke-linecap:square" x1="244.13" y1="179.11" x2="244.13" y2="181.23"/><text transform="translate(67.035 181.18)" style="font-family:'Asap-Regular';font-size:7px">0</text><text transform="translate(75.25 190.589)" style="font-family:'Asap-Regular';font-size:7px">0</text><text transform="translate(63.291 157.13)" style="font-family:'Asap-Regular';font-size:7px">10</text><text transform="translate(63.292 133.13)" style="font-family:'Asap-Regular';font-size:7px">20</text><text transform="translate(63.291 109.129)" style="font-family:'Asap-Regular';font-size:7px">30</text><text transform="translate(63.291 85.129)" style="font-family:'Asap-Regular';font-size:7px">40</text><text transform="translate(63.291 61.129)" style="font-family:'Asap-Regular';font-size:7px">50</text><text transform="translate(63.291 37.13)" style="font-family:'Asap-Regular';font-size:7px">60</text><text transform="translate(63.291 13.129)" style="font-family:'Asap-Regular';font-size:7px">70</text><text transform="translate(103.089 190.589)" style="font-family:'Asap-Regular';font-size:7px">4</text><text transform="translate(130.922 190.589)" style="font-family:'Asap-Regular';font-size:7px">8</text><text transform="translate(156.883 190.589)" style="font-family:'Asap-Regular';font-size:7px">12</text><text transform="translate(184.716 190.589)" style="font-family:'Asap-Regular';font-size:7px">16</text><text transform="translate(212.55 190.588)" style="font-family:'Asap-Regular';font-size:7px">20</text><text transform="translate(240.383 190.589)" style="font-family:'Asap-Regular';font-size:7px">24</text><text transform="matrix(0 -.9726 1 0 53.72 122.24)" style="font-family:'Asap-Medium';font-size:8px">Bushels of grain</text><text transform="translate(113.393 201.562)" style="font-family:'Asap-Medium';font-size:8px">Angela’s hours of free time</text><path style="fill:none;stroke:#6d6e71;stroke-width:.5;stroke-linecap:square;stroke-linejoin:round" d="M77.13 10.98v167.81"/><line style="fill:none;stroke:#6d6e71;stroke-width:.5;stroke-linecap:square" x1="77.13" y1="178.98" x2="244.13" y2="178.98"/></g></svg>