<svg version="1.1" xmlns="http://www.w3.org/2000/svg" x="0" y="0" viewBox="0 0 311.81 164.33" style="enable-background:new 0 0 311.81 164.33" xml:space="preserve"><text transform="rotate(-90 50.207 39.76)"><tspan x="0" y="0" style="font-family:'Asap-Medium';font-size:8px">Gini coefficients</tspan><tspan x="-17.98" y="9.6" style="font-family:'Asap-Medium';font-size:8px">(various years, 2011–2021)</tspan></text><text transform="translate(29.999 15.912)" style="font-family:'Asap-Regular';font-size:7px">0.8</text><text transform="translate(29.999 28.037)" style="font-family:'Asap-Regular';font-size:7px">0.7</text><text transform="translate(29.999 40.162)" style="font-family:'Asap-Regular';font-size:7px">0.6</text><text transform="translate(29.999 52.287)" style="font-family:'Asap-Regular';font-size:7px">0.5</text><text transform="translate(29.999 64.412)" style="font-family:'Asap-Regular';font-size:7px">0.4</text><text transform="translate(29.999 76.537)" style="font-family:'Asap-Regular';font-size:7px">0.3</text><text transform="translate(29.999 88.662)" style="font-family:'Asap-Regular';font-size:7px">0.2</text><text transform="translate(29.999 100.787)" style="font-family:'Asap-Regular';font-size:7px">0.1</text><text transform="translate(34.999 112.912)" style="font-family:'Asap-Regular';font-size:7px">0</text><line style="fill:none;stroke:#bcbec0;stroke-width:.4527;stroke-miterlimit:10" x1="307.21" y1="86.18" x2="44.65" y2="86.18"/><line style="fill:none;stroke:#bcbec0;stroke-width:.4529;stroke-miterlimit:10" x1="307.21" y1="98.73" x2="44.55" y2="98.73"/><line style="fill:none;stroke:#bcbec0;stroke-width:.4518;stroke-miterlimit:10" x1="307.21" y1="12.48" x2="44.14" y2="12.48"/><line style="fill:none;stroke:#bcbec0;stroke-width:.4517;stroke-miterlimit:10" x1="307.21" y1="25.06" x2="44.36" y2="25.06"/><line style="fill:none;stroke:#bcbec0;stroke-width:.4517;stroke-miterlimit:10" x1="307.21" y1="37.14" x2="44.36" y2="37.14"/><line style="fill:none;stroke:#bcbec0;stroke-width:.4519;stroke-miterlimit:10" x1="307.21" y1="49.22" x2="44.36" y2="49.22"/><line style="fill:none;stroke:#bcbec0;stroke-width:.4518;stroke-miterlimit:10" x1="307.21" y1="61.54" x2="44.55" y2="61.54"/><line style="fill:none;stroke:#bcbec0;stroke-width:.4529;stroke-miterlimit:10" x1="307.21" y1="73.86" x2="44.36" y2="73.86"/><rect x="46.56" y="64.09" style="fill:#3a53a4" width="2.98" height="20.06"/><rect x="46.56" y="84.15" style="fill:#ed2124" width="2.98" height="26.85"/><rect x="58.39" y="58.12" style="fill:#3a53a4" width="2.98" height="22.55"/><rect x="58.39" y="80.68" style="fill:#ed2124" width="2.98" height="30.32"/><rect x="52.47" y="56.33" style="fill:#3a53a4" width="2.98" height="24.84"/><rect x="52.47" y="81.17" style="fill:#ed2124" width="2.98" height="29.83"/><rect x="70.22" y="51.18" style="fill:#3a53a4" width="2.98" height="28.07"/><rect x="70.22" y="79.25" style="fill:#ed2124" width="2.98" height="31.74"/><rect x="76.14" y="57.61" style="fill:#3a53a4" width="2.98" height="20.99"/><rect x="76.14" y="78.6" style="fill:#ed2124" width="2.98" height="32.4"/><rect x="82.05" y="47.49" style="fill:#3a53a4" width="2.98" height="30.93"/><rect x="82.05" y="78.42" style="fill:#ed2124" width="2.98" height="32.58"/><rect x="87.97" y="56.45" style="fill:#3a53a4" width="2.98" height="21.51"/><rect x="87.97" y="77.96" style="fill:#ed2124" width="2.98" height="33.04"/><rect x="93.89" y="51.41" style="fill:#3a53a4" width="2.98" height="26.23"/><rect x="93.89" y="77.64" style="fill:#ed2124" width="2.98" height="33.35"/><rect x="99.8" y="57.97" style="fill:#3a53a4" width="2.98" height="19.07"/><rect x="99.8" y="77.04" style="fill:#ed2124" width="2.98" height="33.95"/><rect x="105.72" y="57.44" style="fill:#3a53a4" width="2.98" height="19.39"/><rect x="105.72" y="76.82" style="fill:#ed2124" width="2.98" height="34.17"/><rect x="117.55" y="54.24" style="fill:#3a53a4" width="2.98" height="21.71"/><rect x="117.55" y="75.95" style="fill:#ed2124" width="2.98" height="35.04"/><rect x="123.46" y="47.17" style="fill:#3a53a4" width="2.98" height="28.33"/><rect x="123.46" y="75.5" style="fill:#ed2124" width="2.98" height="35.5"/><rect x="129.38" y="47.17" style="fill:#3a53a4" width="2.98" height="28.04"/><rect x="129.38" y="75.2" style="fill:#ed2124" width="2.98" height="35.79"/><rect x="135.29" y="49.95" style="fill:#3a53a4" width="2.98" height="24.89"/><rect x="135.29" y="74.57" style="fill:#ed2124" width="2.98" height="36.42"/><rect x="147.12" y="53.98" style="fill:#3a53a4" width="2.98" height="19.57"/><rect x="147.12" y="73.46" style="fill:#ed2124" width="2.98" height="37.54"/><rect x="153.04" y="50.53" style="fill:#3a53a4" width="2.98" height="27.35"/><rect x="153.04" y="73.4" style="fill:#ed2124" width="2.98" height="37.59"/><rect x="158.96" y="46.56" style="fill:#3a53a4" width="2.98" height="26.58"/><rect x="158.96" y="73.14" style="fill:#ed2124" width="2.98" height="37.86"/><rect x="164.87" y="48.66" style="fill:#3a53a4" width="2.98" height="24.75"/><rect x="164.87" y="73.4" style="fill:#ed2124" width="2.98" height="37.59"/><rect x="170.79" y="61.58" style="fill:#3a53a4" width="2.98" height="10.64"/><rect x="170.79" y="72.24" style="fill:#ed2124" width="2.98" height="38.76"/><rect x="182.62" y="56.93" style="fill:#3a53a4" width="2.98" height="15.54"/><rect x="182.62" y="72.47" style="fill:#ed2124" width="2.98" height="38.53"/><rect x="188.53" y="55.37" style="fill:#3a53a4" width="2.98" height="16.55"/><rect x="188.53" y="71.75" style="fill:#ed2124" width="2.98" height="39.24"/><rect x="194.45" y="51.02" style="fill:#3a53a4" width="2.98" height="20.9"/><rect x="194.45" y="71.75" style="fill:#ed2124" width="2.98" height="39.24"/><rect x="212.2" y="49.47" style="fill:#3a53a4" width="2.98" height="20.71"/><rect x="212.2" y="70.18" style="fill:#ed2124" width="2.98" height="40.82"/><rect x="218.11" y="47.76" style="fill:#3a53a4" width="2.98" height="21.67"/><rect x="218.11" y="69.43" style="fill:#ed2124" width="2.98" height="41.56"/><rect x="224.03" y="56.18" style="fill:#3a53a4" width="2.98" height="13.13"/><rect x="224.03" y="69.31" style="fill:#ed2124" width="2.98" height="41.68"/><rect x="229.94" y="51.92" style="fill:#3a53a4" width="2.98" height="15.73"/><rect x="229.94" y="67.65" style="fill:#ed2124" width="2.98" height="43.35"/><rect x="235.86" y="48.87" style="fill:#3a53a4" width="2.98" height="28.13"/><rect x="235.86" y="67.47" style="fill:#ed2124" width="2.98" height="43.53"/><rect x="247.77" y="47.9" style="fill:#3a53a4" width="2.98" height="17.3"/><rect x="247.77" y="65.2" style="fill:#ed2124" width="2.98" height="45.79"/><rect x="253.69" y="47.14" style="fill:#3a53a4" width="2.98" height="15.01"/><rect x="253.69" y="62.15" style="fill:#ed2124" width="2.98" height="48.84"/><rect x="259.6" y="49.94" style="fill:#3a53a4" width="2.98" height="28.12"/><rect x="259.6" y="60.6" style="fill:#ed2124" width="2.98" height="50.4"/><rect x="271.43" y="50.53" style="fill:#3a53a4" width="2.98" height="4.2"/><rect x="271.43" y="54.74" style="fill:#ed2124" width="2.98" height="56.26"/><rect x="277.35" y="39.8" style="fill:#3a53a4" width="2.98" height="12.22"/><rect x="277.35" y="52.02" style="fill:#ed2124" width="2.98" height="58.97"/><rect x="283.27" y="43.79" style="fill:#3a53a4" width="2.98" height="7.69"/><rect x="283.27" y="51.48" style="fill:#ed2124" width="2.98" height="59.52"/><rect x="289.18" y="48.75" style="fill:#3a53a4" width="2.98" height="1.6"/><rect x="289.18" y="50.34" style="fill:#ed2124" width="2.98" height="60.66"/><rect x="295.1" y="43.79" style="fill:#3a53a4" width="2.98" height="4.63"/><rect x="295.1" y="48.16" style="fill:#ed2124" width="2.98" height="62.83"/><rect x="301.01" y="24.5" style="fill:#3a53a4" width="2.98" height="11.21"/><rect x="301.01" y="35.72" style="fill:#ed2124" width="2.98" height="75.28"/><text transform="rotate(-90 226.854 -77.861)" style="font-family:'Asap-Regular';font-size:6px">South Africa</text><text transform="rotate(-90 215.423 -83.356)" style="font-family:'Asap-Regular';font-size:6px">China</text><text transform="rotate(-90 119.729 17.718)" style="font-family:'Asap-Regular';font-size:6px">Sweden</text><text transform="rotate(-90 115.72 19.648)" style="font-family:'Asap-Regular';font-size:6px">Austria</text><text transform="rotate(-90 115.661 25.526)" style="font-family:'Asap-Regular';font-size:6px">Denmark</text><text transform="rotate(-90 110.347 26.147)" style="font-family:'Asap-Regular';font-size:6px">Finland</text><text transform="rotate(-90 107.794 29.529)" style="font-family:'Asap-Regular';font-size:6px">Norway</text><text transform="rotate(-90 105.48 33.151)" style="font-family:'Asap-Regular';font-size:6px">Belgium</text><text transform="rotate(-90 101.39 34.996)" style="font-family:'Asap-Regular';font-size:6px">Iceland</text><text transform="rotate(-90 146.95 2.493)" style="font-family:'Asap-Regular';font-size:6px">Netherlands</text><text transform="rotate(-90 109.105 48.647)" style="font-family:'Asap-Regular';font-size:6px">Czech Republic</text><text transform="rotate(-90 130.69 4.04)" style="font-family:'Asap-Regular';font-size:6px">France</text><text transform="rotate(-90 161.083 -13.05)" style="font-family:'Asap-Regular';font-size:6px">Switzerland</text><text transform="rotate(-90 122.48 14.538)" style="font-family:'Asap-Regular';font-size:6px">Canada</text><text transform="matrix(.0498 -1.0011 .9988 .0499 113.797 135.61)" style="font-family:'Asap-Regular';font-size:5.9859px">Poland</text><text transform="rotate(-90 130.093 9.378)" style="font-family:'Asap-Regular';font-size:6px">Hungary</text><text transform="rotate(-90 134.13 1.544)" style="font-family:'Asap-Regular';font-size:6px">Ireland</text><text transform="rotate(-90 174.087 -41.594)" style="font-family:'Asap-Regular';font-size:6px">Japan</text><text transform="rotate(-90 179.358 -30.389)" style="font-family:'Asap-Regular';font-size:6px">South Korea</text><text transform="rotate(-90 181.987 -57.437)" style="font-family:'Asap-Regular';font-size:6px">UK</text><text transform="rotate(-90 187.664 -63.631)" style="font-family:'Asap-Regular';font-size:6px">US</text><text transform="rotate(-90 139.665 1.144)" style="font-family:'Asap-Regular';font-size:6px">Germany</text><text transform="rotate(-90 202.49 -66.612)" style="font-family:'Asap-Regular';font-size:6px">Mexico</text><text transform="rotate(-90 206.532 -74.44)" style="font-family:'Asap-Regular';font-size:6px">Brazil</text><text transform="rotate(-90 215.734 -71.174)" style="font-family:'Asap-Regular';font-size:6px">Costa Rica</text><text transform="rotate(-90 166.13 -37.68)" style="font-family:'Asap-Regular';font-size:6px">Italy</text><text transform="rotate(-90 164.638 -33.237)" style="font-family:'Asap-Regular';font-size:6px">Spain</text><text transform="rotate(-90 156.824 -23.245)" style="font-family:'Asap-Regular';font-size:6px">Russia</text><text transform="rotate(-90 163.212 -22.792)" style="font-family:'Asap-Regular';font-size:6px">Australia</text><text transform="rotate(-90 148.932 -13.33)" style="font-family:'Asap-Regular';font-size:6px">Greece</text><text transform="rotate(-90 179.486 -48.066)" style="font-family:'Asap-Regular';font-size:6px">Israel</text><text transform="rotate(-90 211.447 -81.396)" style="font-family:'Asap-Regular';font-size:6px">India</text><text transform="rotate(-90 143.288 -7.104)" style="font-family:'Asap-Regular';font-size:6px">Estonia</text><text transform="rotate(-90 153.104 -3.223)" style="font-family:'Asap-Regular';font-size:6px">Luxembourg</text><text transform="rotate(-90 172.077 -19.863)" style="font-family:'Asap-Regular';font-size:6px">New Zealand</text><text transform="rotate(-90 153.856 -14.342)" style="font-family:'Asap-Regular';font-size:6px">Portugal</text><text transform="rotate(-90 181.006 -40.61)" style="font-family:'Asap-Regular';font-size:6px">Romania</text><text transform="rotate(-90 183.123 -50.365)" style="font-family:'Asap-Regular';font-size:6px">Latvia</text><text transform="rotate(-90 193.436 -51.923)" style="font-family:'Asap-Regular';font-size:6px">Lithuania</text><text transform="rotate(-90 198.138 -59.092)" style="font-family:'Asap-Regular';font-size:6px">Bulgaria</text><text transform="rotate(-90 199.003 -64.162)" style="font-family:'Asap-Regular';font-size:6px">Turkey</text><text transform="rotate(-90 202.754 -72.282)" style="font-family:'Asap-Regular';font-size:6px">Chile</text><text transform="rotate(-90 96.913 42.39)" style="font-family:'Asap-Regular';font-size:6px">Slovenia</text><text transform="rotate(-90 93.855 45.268)" style="font-family:'Asap-Regular';font-size:6px">Slovakia</text><g><rect x="64.31" y="65.88" style="fill:#3a53a4" width="2.98" height="14.79"/><rect x="64.31" y="80.68" style="fill:#ed2124" width="2.98" height="30.32"/></g><g><rect x="111.63" y="55.81" style="fill:#3a53a4" width="2.98" height="21.02"/><rect x="111.63" y="76.82" style="fill:#ed2124" width="2.98" height="34.17"/></g><g><rect x="265.52" y="59.49" style="fill:#ed2124" width="2.98" height="51.5"/><rect x="265.52" y="57.68" style="fill:#3a53a4" width="2.98" height="2.1"/></g><g><rect x="241.86" y="50.8" style="fill:#3a53a4" width="2.98" height="16.38"/><rect x="241.86" y="67.18" style="fill:#ed2124" width="2.98" height="43.82"/></g><g><rect x="141.21" y="55.34" style="fill:#3a53a4" width="2.98" height="18.2"/><rect x="141.21" y="73.55" style="fill:#ed2124" width="2.98" height="37.45"/></g><g><rect x="176.7" y="58.27" style="fill:#3a53a4" width="2.98" height="14.2"/><rect x="176.7" y="72.47" style="fill:#ed2124" width="2.98" height="38.53"/></g><g><rect x="206.28" y="70.95" style="fill:#ed2124" width="2.98" height="40.04"/><rect x="206.28" y="61.62" style="fill:#3a53a4" width="2.98" height="9.33"/></g><g><rect x="200.36" y="48.66" style="fill:#3a53a4" width="2.98" height="22.3"/><rect x="200.36" y="70.95" style="fill:#ed2124" width="2.98" height="40.04"/></g><polyline style="fill:none;stroke:#6d6e71;stroke-width:.4528;stroke-miterlimit:10" points="307.21 110.81 44.36 110.81 44.36 12.24"/><text transform="translate(52.475 22.079)"><tspan x="0" y="0" style="fill:#3b54a4;font-family:'Asap-Regular';font-size:6px">Mar</tspan><tspan x="10.52" y="0" style="fill:#3b54a4;font-family:'Asap-Regular';font-size:6px">k</tspan><tspan x="13.47" y="0" style="fill:#3b54a4;font-family:'Asap-Regular';font-size:6px">et income</tspan></text><text transform="translate(52.475 32.634)"><tspan x="0" y="0" style="fill:#ec2426;font-family:'Asap-Regular';font-size:6px">Disposab</tspan><tspan x="24.25" y="0" style="fill:#ec2426;font-family:'Asap-Regular';font-size:6px">l</tspan><tspan x="25.84" y="0" style="fill:#ec2426;font-family:'Asap-Regular';font-size:6px">e income</tspan></text></svg>