<svg version="1.1" xmlns="http://www.w3.org/2000/svg" x="0" y="0" viewBox="0 0 311.81 204.09" style="enable-background:new 0 0 311.81 204.09" xml:space="preserve"><line style="fill:none;stroke:#6d6e71;stroke-width:.5;stroke-linecap:square;stroke-linejoin:round" x1="48.29" y1="173.83" x2="46.16" y2="173.83"/><line style="fill:none;stroke:#6d6e71;stroke-width:.5;stroke-linecap:square;stroke-linejoin:round" x1="48.29" y1="154.48" x2="46.16" y2="154.48"/><line style="fill:none;stroke:#6d6e71;stroke-width:.5;stroke-linecap:square;stroke-linejoin:round" x1="48.29" y1="134.13" x2="46.16" y2="134.13"/><line style="fill:none;stroke:#6d6e71;stroke-width:.5;stroke-linecap:square;stroke-linejoin:round" x1="48.29" y1="114.97" x2="46.16" y2="114.97"/><line style="fill:none;stroke:#6d6e71;stroke-width:.5;stroke-linecap:square;stroke-linejoin:round" x1="48.29" y1="95.05" x2="46.16" y2="95.05"/><line style="fill:none;stroke:#6d6e71;stroke-width:.5;stroke-linecap:square;stroke-linejoin:round" x1="48.29" y1="75.12" x2="46.16" y2="75.12"/><line style="fill:none;stroke:#6d6e71;stroke-width:.5;stroke-linecap:square;stroke-linejoin:round" x1="48.29" y1="35.44" x2="46.16" y2="35.44"/><line style="fill:none;stroke:#6d6e71;stroke-width:.5;stroke-linecap:square;stroke-linejoin:round" x1="48.29" y1="16.03" x2="46.16" y2="16.03"/><line style="fill:none;stroke:#6d6e71;stroke-width:.5;stroke-linecap:square;stroke-linejoin:round" x1="48.29" y1="55.54" x2="46.16" y2="55.54"/><line style="fill:none;stroke:#6d6e71;stroke-width:.5;stroke-linecap:square" x1="48.56" y1="173.9" x2="48.56" y2="176.09"/><line style="fill:none;stroke:#6d6e71;stroke-width:.5;stroke-linecap:square" x1="97.95" y1="173.97" x2="97.95" y2="176.09"/><line style="fill:none;stroke:#6d6e71;stroke-width:.5;stroke-linecap:square" x1="147.35" y1="173.97" x2="147.35" y2="176.09"/><line style="fill:none;stroke:#6d6e71;stroke-width:.5;stroke-linecap:square" x1="196.62" y1="174.13" x2="196.62" y2="176.25"/><line style="fill:none;stroke:#6d6e71;stroke-width:.5;stroke-linecap:square" x1="245.95" y1="174.13" x2="245.95" y2="176.25"/><text transform="translate(38.463 175.979)" style="font-family:'Asap-Regular';font-size:7px">0</text><text transform="translate(46.678 185.387)" style="font-family:'Asap-Regular';font-size:7px">0</text><text transform="translate(34.845 136.708)" style="font-family:'Asap-Regular';font-size:7px">10</text><text transform="translate(34.719 96.462)" style="font-family:'Asap-Regular';font-size:7px">20</text><text transform="translate(37.34 156.67)" style="font-family:'Asap-Regular';font-size:7px">5</text><text transform="translate(35.076 77.782)" style="font-family:'Asap-Regular';font-size:7px">25</text><text transform="translate(34.845 57.572)" style="font-family:'Asap-Regular';font-size:7px">30</text><text transform="translate(34.021 37.956)" style="font-family:'Asap-Regular';font-size:7px">35</text><text transform="translate(34.336 17.782)" style="font-family:'Asap-Regular';font-size:7px">40</text><text transform="translate(95.457 185.43)" style="font-family:'Asap-Regular';font-size:7px">5</text><text transform="translate(142.65 185.443)" style="font-family:'Asap-Regular';font-size:7px">10</text><text transform="translate(193.055 185.444)" style="font-family:'Asap-Regular';font-size:7px">15</text><text transform="translate(242.908 185.486)" style="font-family:'Asap-Regular';font-size:7px">20</text><text transform="translate(91.231 92.801)" style="font-family:'Asap-Regular';font-size:6px">P</text><text transform="translate(34.72 116.65)" style="font-family:'Asap-Regular';font-size:7px">15</text><text transform="translate(138.39 197.282)"><tspan x="0" y="0" style="font-family:'Asap-Medium';font-size:8px">Hours of work, </tspan><tspan x="53.22" y="0" style="font-family:'Asap-MediumItalic';font-size:8px">h</tspan></text><text transform="rotate(-90 75.147 51.765)"><tspan x="0" y="0" style="font-family:'Asap-Medium';font-size:8px">Bushels of grain, </tspan><tspan x="59.74" y="0" style="font-family:'Asap-MediumItalic';font-size:8px">y</tspan></text><g><path style="fill:none;stroke:#3b54a4;stroke-width:.5;stroke-linecap:square;stroke-linejoin:round" d="M49.02 173.44c-.38-4.01-.61-10.42.91-17.95 5.75-28.42 30.99-45.32 46.77-55.89 11.79-7.89 21.21-12.07 39.68-20.26 19.05-8.45 36.02-14.2 45.42-17.39 12.92-4.38 24.13-7.69 26.68-8.44 6.23-1.83 11.66-3.33 18.57-5.23 2.2-.61 9.57-2.63 19.42-5.23 7.58-2 13.18-3.43 18.91-4.9 5.5-1.41 12.29-3.12 20.09-5.07"/><line style="fill:none;stroke:#939598;stroke-width:.5055;stroke-linecap:square;stroke-linejoin:round;stroke-dasharray:1.4329" x1="97.95" y1="173.9" x2="97.95" y2="98.08"/><line style="fill:none;stroke:#939598;stroke-width:.5;stroke-linejoin:round;stroke-dasharray:1.417" x1="48.39" y1="174.58" x2="98.44" y2="99.36"/><line style="fill:none;stroke:#939598;stroke-width:.5;stroke-linejoin:round;stroke-dasharray:1.417" x1="51.23" y1="125.13" x2="150.21" y2="67.79"/><circle cx="97.95" cy="98.8" r="1.13"/></g><g><path style="fill:none;stroke:#6d6e71;stroke-width:.5;stroke-linecap:square;stroke-linejoin:round" d="M48.56 16.03V173.6"/><line style="fill:none;stroke:#6d6e71;stroke-width:.5;stroke-linecap:square" x1="48.56" y1="173.78" x2="285.97" y2="173.78"/></g></svg>