<svg version="1.1" xmlns="http://www.w3.org/2000/svg" x="0" y="0" viewBox="0 0 311.81 346.5" style="enable-background:new 0 0 311.81 346.5" xml:space="preserve"><text transform="translate(21.388 178.85)" style="font-family:'Asap-Regular';font-size:7px">30,000</text><text transform="translate(142.824 343.23)"><tspan x="0" y="0" style="font-family:'Asap-Medium';font-size:8px">Quantity of cars, </tspan><tspan x="59.53" y="0" style="font-family:'Asap-MediumItalic';font-size:8px">Q</tspan></text><text transform="translate(21.388 249.702)" style="font-family:'Asap-Regular';font-size:7px">15,000</text><text transform="translate(21.388 273.32)" style="font-family:'Asap-Regular';font-size:7px">10,000</text><text transform="translate(25.133 296.938)" style="font-family:'Asap-Regular';font-size:7px">5,000</text><text transform="translate(21.388 226.085)" style="font-family:'Asap-Regular';font-size:7px">20,000</text><text transform="translate(21.388 202.468)" style="font-family:'Asap-Regular';font-size:7px">25,000</text><text transform="translate(37.753 320.556)" style="font-family:'Asap-Regular';font-size:7px">0</text><text transform="translate(44.537 328.889)" style="font-family:'Asap-Regular';font-size:7px">0</text><text transform="translate(84.763 328.89)" style="font-family:'Asap-Regular';font-size:7px">10</text><text transform="translate(128.734 328.89)" style="font-family:'Asap-Regular';font-size:7px">20</text><text transform="translate(303.617 328.89)" style="font-family:'Asap-Regular';font-size:7px">60</text><text transform="translate(260.646 328.889)" style="font-family:'Asap-Regular';font-size:7px">50</text><text transform="translate(216.676 328.89)" style="font-family:'Asap-Regular';font-size:7px">40</text><text transform="translate(172.705 328.89)" style="font-family:'Asap-Regular';font-size:7px">30</text><path style="fill:none;stroke:#b9519e;stroke-width:.5" d="M68.33 176.76c2.32 7.72 4.19 13.17 8.16 19.8 2.14 3.57 5.78 9.55 12.6 15.71 7.84 7.08 15.61 10.57 20.05 12.52 1.81.79 6.55 2.8 17.47 5.59 14.07 3.6 25.22 5.13 28.64 5.59 18.63 2.51 34.88 3.75 51.56 4.79 9.64.6 24.99 1.49 48.12 2.4 14.11.55 32.28 1.16 53.57 1.6"/><line style="fill:none;stroke:#6d6e70;stroke-width:.5;stroke-linecap:square" x1="46.19" y1="176.76" x2="43.67" y2="176.76"/><line style="fill:none;stroke:#6d6e71;stroke-width:.5;stroke-miterlimit:10" x1="46.19" y1="176.76" x2="46.19" y2="318.8"/><line style="fill:none;stroke:#6d6e71;stroke-width:.5;stroke-miterlimit:10" x1="45.97" y1="318.8" x2="308.51" y2="318.8"/><line style="fill:none;stroke:#6d6e70;stroke-width:.5;stroke-linecap:square" x1="46.19" y1="318.8" x2="43.67" y2="318.8"/><line style="fill:none;stroke:#6d6e70;stroke-width:.5;stroke-linecap:square" x1="46.19" y1="318.8" x2="46.19" y2="321.33"/><line style="fill:none;stroke:#6d6e70;stroke-width:.5;stroke-linecap:square" x1="308.25" y1="318.8" x2="308.25" y2="321.33"/><line style="fill:none;stroke:#6d6e70;stroke-width:.5;stroke-linecap:square" x1="46.19" y1="200.43" x2="43.67" y2="200.43"/><line style="fill:none;stroke:#6d6e70;stroke-width:.5;stroke-linecap:square" x1="46.19" y1="224.11" x2="43.67" y2="224.11"/><line style="fill:none;stroke:#6d6e70;stroke-width:.5;stroke-linecap:square" x1="46.19" y1="247.78" x2="43.67" y2="247.78"/><line style="fill:none;stroke:#6d6e70;stroke-width:.5;stroke-linecap:square" x1="46.19" y1="271.46" x2="43.67" y2="271.46"/><line style="fill:none;stroke:#6d6e70;stroke-width:.5;stroke-linecap:square" x1="46.19" y1="295.13" x2="43.67" y2="295.13"/><line style="fill:none;stroke:#6d6e70;stroke-width:.5;stroke-linecap:square" x1="89.87" y1="318.8" x2="89.87" y2="321.33"/><line style="fill:none;stroke:#6d6e70;stroke-width:.5;stroke-linecap:square" x1="133.54" y1="318.8" x2="133.54" y2="321.33"/><line style="fill:none;stroke:#6d6e70;stroke-width:.5;stroke-linecap:square" x1="177.22" y1="318.8" x2="177.22" y2="321.33"/><line style="fill:none;stroke:#6d6e70;stroke-width:.5;stroke-linecap:square" x1="264.57" y1="318.8" x2="264.57" y2="321.33"/><line style="fill:none;stroke:#6d6e70;stroke-width:.5;stroke-linecap:square" x1="220.9" y1="318.8" x2="220.9" y2="321.33"/><circle style="fill:#231f20" cx="264.57" cy="243.63" r="1.13"/><circle style="fill:#231f20" cx="177.29" cy="238.28" r="1.13"/><circle style="fill:#231f20" cx="89.77" cy="212.6" r="1.13"/><text transform="rotate(-90 57.35 49.59)"><tspan x="0" y="0" style="font-family:'Asap-Medium';font-size:8px">T</tspan><tspan x="3.83" y="0" style="font-family:'Asap-Medium';font-size:8px">otal cost, </tspan><tspan x="37.75" y="0" style="font-family:'Asap-MediumItalic';font-size:8px">C</tspan><tspan x="42.7" y="0" style="font-family:'Asap-Medium';font-size:8px"> ($)</tspan></text><text transform="translate(44.537 160.391)" style="font-family:'Asap-Regular';font-size:7px">0</text><text transform="translate(84.763 160.392)" style="font-family:'Asap-Regular';font-size:7px">10</text><text transform="translate(128.734 160.392)" style="font-family:'Asap-Regular';font-size:7px">20</text><text transform="translate(303.617 160.392)" style="font-family:'Asap-Regular';font-size:7px">60</text><text transform="translate(260.646 160.391)" style="font-family:'Asap-Regular';font-size:7px">50</text><text transform="translate(216.676 160.392)" style="font-family:'Asap-Regular';font-size:7px">40</text><text transform="translate(172.705 160.392)" style="font-family:'Asap-Regular';font-size:7px">30</text><line style="fill:none;stroke:#6d6e70;stroke-width:.5;stroke-linecap:square" x1="46.19" y1="8.26" x2="43.67" y2="8.26"/><line style="fill:none;stroke:#6d6e71;stroke-width:.5;stroke-miterlimit:10" x1="46.19" y1="8.26" x2="46.19" y2="150.31"/><line style="fill:none;stroke:#6d6e71;stroke-width:.5;stroke-miterlimit:10" x1="45.97" y1="150.31" x2="308.51" y2="150.31"/><line style="fill:none;stroke:#6d6e70;stroke-width:.5;stroke-linecap:square" x1="46.19" y1="150.31" x2="43.67" y2="150.31"/><line style="fill:none;stroke:#6d6e70;stroke-width:.5;stroke-linecap:square" x1="46.19" y1="150.31" x2="46.19" y2="152.83"/><line style="fill:none;stroke:#6d6e70;stroke-width:.5;stroke-linecap:square" x1="308.25" y1="150.31" x2="308.25" y2="152.83"/><line style="fill:none;stroke:#6d6e70;stroke-width:.5;stroke-linecap:square" x1="46.19" y1="24.04" x2="43.67" y2="24.04"/><line style="fill:none;stroke:#6d6e70;stroke-width:.5;stroke-linecap:square" x1="46.19" y1="55.61" x2="43.67" y2="55.61"/><line style="fill:none;stroke:#6d6e70;stroke-width:.5;stroke-linecap:square" x1="46.19" y1="87.18" x2="43.67" y2="87.18"/><line style="fill:none;stroke:#6d6e70;stroke-width:.5;stroke-linecap:square" x1="46.19" y1="102.96" x2="43.67" y2="102.96"/><line style="fill:none;stroke:#6d6e70;stroke-width:.5;stroke-linecap:square" x1="46.19" y1="134.52" x2="43.67" y2="134.52"/><line style="fill:none;stroke:#6d6e70;stroke-width:.5;stroke-linecap:square" x1="89.87" y1="150.31" x2="89.87" y2="152.83"/><line style="fill:none;stroke:#6d6e70;stroke-width:.5;stroke-linecap:square" x1="133.54" y1="150.31" x2="133.54" y2="152.83"/><line style="fill:none;stroke:#6d6e70;stroke-width:.5;stroke-linecap:square" x1="177.22" y1="150.31" x2="177.22" y2="152.83"/><line style="fill:none;stroke:#6d6e70;stroke-width:.5;stroke-linecap:square" x1="264.57" y1="150.31" x2="264.57" y2="152.83"/><line style="fill:none;stroke:#6d6e70;stroke-width:.5;stroke-linecap:square" x1="220.9" y1="150.31" x2="220.9" y2="152.83"/><line style="fill:none;stroke:#6d6e70;stroke-width:.5;stroke-linecap:square" x1="46.19" y1="118.74" x2="43.67" y2="118.74"/><line style="fill:none;stroke:#6d6e70;stroke-width:.5;stroke-linecap:square" x1="46.19" y1="71.39" x2="43.67" y2="71.39"/><line style="fill:none;stroke:#6d6e70;stroke-width:.5;stroke-linecap:square" x1="46.19" y1="39.83" x2="43.67" y2="39.83"/><line style="fill:none;stroke:#3a53a4;stroke-width:.5" x1="303.07" y1="6.9" x2="45.97" y2="138.12"/><circle style="fill:#231f20" cx="264.88" cy="26.46" r="1.13"/><circle style="fill:#231f20" cx="177.39" cy="70.92" r="1.13"/><circle style="fill:#231f20" cx="89.77" cy="115.63" r="1.13"/><text transform="translate(85.641 111.249)" style="font-family:'Asap-Regular';font-size:6px">A</text><text transform="translate(173.02 66.674)" style="font-family:'Asap-Regular';font-size:6px">B</text><text transform="translate(260.975 22.156)" style="font-family:'Asap-Regular';font-size:6px">D</text><text transform="translate(16.257 10.354)" style="font-family:'Asap-Regular';font-size:7px">900,000</text><text transform="translate(16.257 104.824)" style="font-family:'Asap-Regular';font-size:7px">300,000</text><text transform="translate(16.257 136.314)" style="font-family:'Asap-Regular';font-size:7px">100,000</text><text transform="translate(16.257 26.099)" style="font-family:'Asap-Regular';font-size:7px">800,000</text><text transform="translate(16.257 120.568)" style="font-family:'Asap-Regular';font-size:7px">200,000</text><text transform="translate(16.257 41.843)" style="font-family:'Asap-Regular';font-size:7px">700,000</text><text transform="translate(36.753 152.059)" style="font-family:'Asap-Regular';font-size:7px">0</text><text transform="translate(16.257 89.078)" style="font-family:'Asap-Regular';font-size:7px">400,000</text><text transform="translate(16.257 73.333)" style="font-family:'Asap-Regular';font-size:7px">500,000</text><text transform="matrix(.9802 0 0 1 16.756 57.588)" style="font-family:'Asap-Regular';font-size:7px">600,000</text><text transform="rotate(-90 145.546 137.787)"><tspan x="0" y="0" style="font-family:'Asap-Medium';font-size:8px">A</tspan><tspan x="4.9" y="0" style="font-family:'Asap-Medium';font-size:8px">v</tspan><tspan x="8.7" y="0" style="font-family:'Asap-Medium';font-size:8px">e</tspan><tspan x="13.02" y="0" style="font-family:'Asap-Medium';font-size:8px">r</tspan><tspan x="15.78" y="0" style="font-family:'Asap-Medium';font-size:8px">a</tspan><tspan x="20.14" y="0" style="font-family:'Asap-Medium';font-size:8px">g</tspan><tspan x="24.35" y="0" style="font-family:'Asap-Medium';font-size:8px">e cost, AC, ($)</tspan></text><text transform="translate(51.447 144.216)"><tspan x="0" y="0" style="font-family:'Asap-Italic';font-size:6px">C</tspan><tspan x="3.71" y="0" style="font-family:'Asap-Regular';font-size:6px"> (0) = 80,000</tspan></text></svg>