<svg xmlns="http://www.w3.org/2000/svg" class="prefix__svglite" viewBox="0 0 810 625"><rect width="100%" height="100%" style="stroke:none;fill:#fff;stroke-linecap:round;stroke-linejoin:round;stroke-miterlimit:10"/><defs><clipPath id="prefix__a"><rect x="0" y="0" width="810" height="625" style="fill:none;stroke:#000;stroke-linecap:round;stroke-linejoin:round;stroke-miterlimit:10"/></clipPath></defs><g clip-path="url(#prefix__a)"><rect x="0" y="0" width="810" height="625" style="stroke-width:1.07;stroke:#fff;fill:#fff;stroke-linecap:round;stroke-linejoin:round;stroke-miterlimit:10"/><rect x="106.55" y="14.17" width="660.93" height="529.92" style="stroke-width:1.07;stroke:none;fill:#fff;stroke-linecap:round;stroke-linejoin:round;stroke-miterlimit:10"/><polyline points="106.55 438.11 767.48 438.11" style="stroke-width:1.07;stroke:#c6c4c4;stroke-linecap:butt;fill:none;stroke-linejoin:round;stroke-miterlimit:10"/><polyline points="106.55 332.13 767.48 332.13" style="stroke-width:1.07;stroke:#c6c4c4;stroke-linecap:butt;fill:none;stroke-linejoin:round;stroke-miterlimit:10"/><polyline points="106.55 226.14 767.48 226.14" style="stroke-width:1.07;stroke:#c6c4c4;stroke-linecap:butt;fill:none;stroke-linejoin:round;stroke-miterlimit:10"/><polyline points="106.55 120.16 767.48 120.16" style="stroke-width:1.07;stroke:#c6c4c4;stroke-linecap:butt;fill:none;stroke-linejoin:round;stroke-miterlimit:10"/><polyline points="106.55 14.17 767.48 14.17" style="stroke-width:1.07;stroke:#c6c4c4;stroke-linecap:butt;fill:none;stroke-linejoin:round;stroke-miterlimit:10"/><text x="767.26" y="147.25" style="font-size:14px;fill:#b9519e;font-family:Asap" textLength="35.7" lengthAdjust="spacingAndGlyphs">China</text><text x="769.61" y="235.22" style="font-size:14px;font-family:Asap" textLength="31" lengthAdjust="spacingAndGlyphs">India</text><text x="121.64" y="389.47" style="font-size:14px;font-family:Asap" textLength="39.32" lengthAdjust="spacingAndGlyphs">British</text><text x="164.33" y="389.47" style="font-size:14px;font-family:Asap" textLength="25.83" lengthAdjust="spacingAndGlyphs">East</text><text x="109.39" y="406.21" style="font-size:14px;font-family:Asap" textLength="31" lengthAdjust="spacingAndGlyphs">India</text><text x="143.74" y="406.21" style="font-size:14px;font-family:Asap" textLength="58.67" lengthAdjust="spacingAndGlyphs">Company</text><text x="130.17" y="422.95" style="font-size:14px;font-family:Asap" textLength="51.47" lengthAdjust="spacingAndGlyphs">founded</text><text x="217.25" y="150.54" style="font-size:14px;fill:#b9519e;font-family:Asap" textLength="29.38" lengthAdjust="spacingAndGlyphs">Qing</text><text x="249.99" y="150.54" style="font-size:14px;fill:#b9519e;font-family:Asap" textLength="47.36" lengthAdjust="spacingAndGlyphs">dynasty</text><text x="300.71" y="150.54" style="font-size:14px;fill:#b9519e;font-family:Asap" textLength="69.67" lengthAdjust="spacingAndGlyphs">1636–1912,</text><text x="373.75" y="150.54" style="font-size:14px;fill:#b9519e;font-family:Asap" textLength="59.82" lengthAdjust="spacingAndGlyphs">increased</text><text x="436.94" y="150.54" style="font-size:14px;fill:#b9519e;font-family:Asap" textLength="42.09" lengthAdjust="spacingAndGlyphs">British,</text><text x="482.39" y="150.54" style="font-size:14px;fill:#b9519e;font-family:Asap" textLength="42.21" lengthAdjust="spacingAndGlyphs">French</text><text x="262.47" y="167.28" style="font-size:14px;fill:#b9519e;font-family:Asap" textLength="23.33" lengthAdjust="spacingAndGlyphs">and</text><text x="289.16" y="167.28" style="font-size:14px;fill:#b9519e;font-family:Asap" textLength="57.56" lengthAdjust="spacingAndGlyphs">Japanese</text><text x="350.09" y="167.28" style="font-size:14px;fill:#b9519e;font-family:Asap" textLength="75.36" lengthAdjust="spacingAndGlyphs">intervention</text><text x="428.81" y="167.28" style="font-size:14px;fill:#b9519e;font-family:Asap" textLength="11.51" lengthAdjust="spacingAndGlyphs">in</text><text x="443.68" y="167.28" style="font-size:14px;fill:#b9519e;font-family:Asap" textLength="35.7" lengthAdjust="spacingAndGlyphs">China</text><text x="319.31" y="390.77" style="font-size:14px;font-family:Asap" textLength="87.35" lengthAdjust="spacingAndGlyphs">Establishment</text><text x="410.02" y="390.77" style="font-size:14px;font-family:Asap" textLength="12.51" lengthAdjust="spacingAndGlyphs">of</text><text x="308.68" y="407.51" style="font-size:14px;font-family:Asap" textLength="53.81" lengthAdjust="spacingAndGlyphs">effective</text><text x="365.86" y="407.51" style="font-size:14px;font-family:Asap" textLength="39.32" lengthAdjust="spacingAndGlyphs">British</text><text x="408.54" y="407.51" style="font-size:14px;font-family:Asap" textLength="24.62" lengthAdjust="spacingAndGlyphs">rule</text><text x="653.1" y="419.04" style="font-size:14px;font-family:Asap" textLength="38.79" lengthAdjust="spacingAndGlyphs">Indian</text><text x="695.26" y="419.04" style="font-size:14px;font-family:Asap" textLength="87.9" lengthAdjust="spacingAndGlyphs">independence</text><text x="681.17" y="435.77" style="font-size:14px;font-family:Asap" textLength="29.51" lengthAdjust="spacingAndGlyphs">from</text><text x="714.04" y="435.77" style="font-size:14px;font-family:Asap" textLength="41.05" lengthAdjust="spacingAndGlyphs">Britain</text><text x="682.75" y="71.52" style="font-size:14px;fill:#b9519e;font-family:Asap" textLength="61.93" lengthAdjust="spacingAndGlyphs">Beginning</text><text x="748.05" y="71.52" style="font-size:14px;fill:#b9519e;font-family:Asap" textLength="12.51" lengthAdjust="spacingAndGlyphs">of</text><text x="668.73" y="88.26" style="font-size:14px;fill:#b9519e;font-family:Asap" textLength="70.24" lengthAdjust="spacingAndGlyphs">Communist</text><text x="742.33" y="88.26" style="font-size:14px;fill:#b9519e;font-family:Asap" textLength="32.25" lengthAdjust="spacingAndGlyphs">Party</text><text x="682.38" y="104.99" style="font-size:14px;fill:#b9519e;font-family:Asap" textLength="24.62" lengthAdjust="spacingAndGlyphs">rule</text><text x="710.37" y="104.99" style="font-size:14px;fill:#b9519e;font-family:Asap" textLength="11.51" lengthAdjust="spacingAndGlyphs">in</text><text x="725.23" y="104.99" style="font-size:14px;fill:#b9519e;font-family:Asap" textLength="35.7" lengthAdjust="spacingAndGlyphs">China</text><polyline points="106.55 264.22 124.18 261.43 141.8 256.68 265.18 212.06 282.8 180.36 300.42 205.98 318.05 227.31 335.67 247.29 353.3 266.58 370.92 287.53 388.55 293.63 406.17 298.84 423.8 303.4 441.42 309.27 459.05 314.88 476.67 320.51 494.3 324.6 511.92 334.38 529.55 332.48 547.17 314.81 564.8 293.62 582.42 285.49 600.05 288.67 617.67 293.97 635.29 302.1 652.92 314.11 670.54 321.17 688.17 321.17 723.42 296.8 741.04 257.58 758.67 143.83" style="stroke-width:1.07;stroke:#b9519e;stroke-linecap:butt;fill:none;stroke-linejoin:round;stroke-miterlimit:10"/><polyline points="106.55 303.16 194.68 318.79 282.8 324.48 370.92 340.43 459.05 343 476.67 360.58 494.3 360.34 511.92 363.9 529.55 348.12 547.17 347.51 582.42 355.8 600.05 345.55 617.67 338.84 635.29 317.64 652.92 302.1 670.54 299.27 688.17 298.92 705.79 311.64 723.42 307.75 741.04 266.42 758.67 231.79" style="stroke-width:1.07;stroke-linecap:butt;fill:none;stroke:#000;stroke-linejoin:round;stroke-miterlimit:10"/><circle cx="758.67" cy="143.83" r="3.8" style="stroke-width:1.2;stroke:#b9519e;fill:#b9519e;stroke-linecap:round;stroke-linejoin:round;stroke-miterlimit:10"/><circle cx="758.67" cy="231.79" r="3.8" style="stroke-width:1.2;fill:#000;stroke:#000;stroke-linecap:round;stroke-linejoin:round;stroke-miterlimit:10"/><line x1="155.9" y1="374.52" x2="110.08" y2="310.93" style="stroke-width:1.07;stroke:#7f8182;stroke-linecap:butt;fill:none;stroke-linejoin:round;stroke-miterlimit:10"/><polyline points="115.67 311.84 110.08 310.93 109.17 316.52" style="stroke-width:1.07;stroke:#7f8182;stroke-linecap:butt;fill:none;stroke-linejoin:round;stroke-miterlimit:10"/><line x1="718.13" y1="402.78" x2="718.13" y2="317.99" style="stroke-width:1.07;stroke:#7f8182;stroke-linecap:butt;fill:none;stroke-linejoin:round;stroke-miterlimit:10"/><polyline points="722.14 322 718.13 317.99 714.12 322" style="stroke-width:1.07;stroke:#7f8182;stroke-linecap:butt;fill:none;stroke-linejoin:round;stroke-miterlimit:10"/><line x1="721.66" y1="113.09" x2="721.66" y2="279.13" style="stroke-width:1.07;stroke:#7f8182;stroke-linecap:butt;fill:none;stroke-linejoin:round;stroke-miterlimit:10"/><polyline points="717.65 275.12 721.66 279.13 725.66 275.12" style="stroke-width:1.07;stroke:#7f8182;stroke-linecap:butt;fill:none;stroke-linejoin:round;stroke-miterlimit:10"/><polyline points="106.55 544.09 106.55 14.17" style="stroke-width:1.07;stroke:#464646;stroke-linecap:butt;fill:none;stroke-linejoin:round;stroke-miterlimit:10"/><text x="60.6" y="442.52" style="font-size:18px;font-family:Asap" textLength="28.9" lengthAdjust="spacingAndGlyphs">300</text><text x="60.6" y="336.54" style="font-size:18px;font-family:Asap" textLength="28.9" lengthAdjust="spacingAndGlyphs">600</text><text x="60.6" y="230.55" style="font-size:18px;font-family:Asap" textLength="28.9" lengthAdjust="spacingAndGlyphs">900</text><text x="47.41" y="124.57" style="font-size:18px;font-family:Asap" textLength="42.1" lengthAdjust="spacingAndGlyphs">1,200</text><text x="47.41" y="18.58" style="font-size:18px;font-family:Asap" textLength="42.1" lengthAdjust="spacingAndGlyphs">1,500</text><polyline points="99.47 438.11 106.55 438.11" style="stroke-width:1.07;stroke:#464646;stroke-linecap:butt;fill:none;stroke-linejoin:round;stroke-miterlimit:10"/><polyline points="99.47 332.13 106.55 332.13" style="stroke-width:1.07;stroke:#464646;stroke-linecap:butt;fill:none;stroke-linejoin:round;stroke-miterlimit:10"/><polyline points="99.47 226.14 106.55 226.14" style="stroke-width:1.07;stroke:#464646;stroke-linecap:butt;fill:none;stroke-linejoin:round;stroke-miterlimit:10"/><polyline points="99.47 120.16 106.55 120.16" style="stroke-width:1.07;stroke:#464646;stroke-linecap:butt;fill:none;stroke-linejoin:round;stroke-miterlimit:10"/><polyline points="99.47 14.17 106.55 14.17" style="stroke-width:1.07;stroke:#464646;stroke-linecap:butt;fill:none;stroke-linejoin:round;stroke-miterlimit:10"/><polyline points="106.55 544.09 767.48 544.09" style="stroke-width:1.07;stroke:#464646;stroke-linecap:butt;fill:none;stroke-linejoin:round;stroke-miterlimit:10"/><polyline points="106.55 551.18 106.55 544.09" style="stroke-width:1.07;stroke:#464646;stroke-linecap:butt;fill:none;stroke-linejoin:round;stroke-miterlimit:10"/><polyline points="194.68 551.18 194.68 544.09" style="stroke-width:1.07;stroke:#464646;stroke-linecap:butt;fill:none;stroke-linejoin:round;stroke-miterlimit:10"/><polyline points="282.8 551.18 282.8 544.09" style="stroke-width:1.07;stroke:#464646;stroke-linecap:butt;fill:none;stroke-linejoin:round;stroke-miterlimit:10"/><polyline points="370.92 551.18 370.92 544.09" style="stroke-width:1.07;stroke:#464646;stroke-linecap:butt;fill:none;stroke-linejoin:round;stroke-miterlimit:10"/><polyline points="459.05 551.18 459.05 544.09" style="stroke-width:1.07;stroke:#464646;stroke-linecap:butt;fill:none;stroke-linejoin:round;stroke-miterlimit:10"/><polyline points="547.17 551.18 547.17 544.09" style="stroke-width:1.07;stroke:#464646;stroke-linecap:butt;fill:none;stroke-linejoin:round;stroke-miterlimit:10"/><polyline points="635.29 551.18 635.29 544.09" style="stroke-width:1.07;stroke:#464646;stroke-linecap:butt;fill:none;stroke-linejoin:round;stroke-miterlimit:10"/><polyline points="723.42 551.18 723.42 544.09" style="stroke-width:1.07;stroke:#464646;stroke-linecap:butt;fill:none;stroke-linejoin:round;stroke-miterlimit:10"/><polyline points="767.48 551.18 767.48 544.09" style="stroke-width:1.07;stroke:#464646;stroke-linecap:butt;fill:none;stroke-linejoin:round;stroke-miterlimit:10"/><text x="87.29" y="573.78" style="font-size:18px;font-family:Asap" textLength="38.53" lengthAdjust="spacingAndGlyphs">1600</text><text x="175.41" y="573.78" style="font-size:18px;font-family:Asap" textLength="38.53" lengthAdjust="spacingAndGlyphs">1650</text><text x="263.53" y="573.78" style="font-size:18px;font-family:Asap" textLength="38.53" lengthAdjust="spacingAndGlyphs">1700</text><text x="351.66" y="573.78" style="font-size:18px;font-family:Asap" textLength="38.53" lengthAdjust="spacingAndGlyphs">1750</text><text x="439.78" y="573.78" style="font-size:18px;font-family:Asap" textLength="38.53" lengthAdjust="spacingAndGlyphs">1800</text><text x="527.9" y="573.78" style="font-size:18px;font-family:Asap" textLength="38.53" lengthAdjust="spacingAndGlyphs">1850</text><text x="616.03" y="573.78" style="font-size:18px;font-family:Asap" textLength="38.53" lengthAdjust="spacingAndGlyphs">1900</text><text x="704.15" y="573.78" style="font-size:18px;font-family:Asap" textLength="38.53" lengthAdjust="spacingAndGlyphs">1950</text><text x="748.21" y="573.78" style="font-size:18px;font-family:Asap" textLength="38.53" lengthAdjust="spacingAndGlyphs">1975</text><text x="416.92" y="606.59" style="font-size:20px;font-weight:600;font-family:Asap" textLength="40.18" lengthAdjust="spacingAndGlyphs">Year</text><text transform="rotate(-90 205.54 177.32)" style="font-size:20px;font-weight:600;font-family:Asap" textLength="38.74" lengthAdjust="spacingAndGlyphs">GDP</text><text transform="rotate(-90 183.765 155.545)" style="font-size:20px;font-weight:600;font-family:Asap" textLength="29.56" lengthAdjust="spacingAndGlyphs">per</text><text transform="rotate(-90 166.585 138.365)" style="font-size:20px;font-weight:600;font-family:Asap" textLength="55.1" lengthAdjust="spacingAndGlyphs">capita</text><text transform="rotate(-90 136.63 108.41)" style="font-size:20px;font-weight:600;font-family:Asap" textLength="48.82" lengthAdjust="spacingAndGlyphs">(1990</text><text transform="rotate(-90 109.825 81.605)" style="font-size:20px;font-weight:600;font-family:Asap" textLength="16.02" lengthAdjust="spacingAndGlyphs">$)</text></g></svg>