<svg version="1.1" xmlns="http://www.w3.org/2000/svg" x="0" y="0" viewBox="0 0 311.81 295.97" style="enable-background:new 0 0 311.81 295.97" xml:space="preserve"><path style="fill:none;stroke:#3a53a4;stroke-width:.5;stroke-miterlimit:10" d="M126.84 87.7s10 103.52 93.88 134.06"/><line style="fill:none;stroke:#6d6e71;stroke-width:.5;stroke-linecap:square;stroke-linejoin:round" x1="49.69" y1="266.9" x2="47.56" y2="266.9"/><line style="fill:none;stroke:#6d6e71;stroke-width:.5;stroke-linecap:square;stroke-linejoin:round" x1="49.84" y1="267.21" x2="49.84" y2="269.34"/><line style="fill:none;stroke:#6d6e71;stroke-width:.5;stroke-linecap:square;stroke-linejoin:round" x1="49.84" y1="266.9" x2="266.25" y2="267.19"/><text transform="translate(60.426 28.614)" style="font-family:'Asap-Regular';font-size:6px">FF (invest grain; 50% return)</text><text transform="matrix(.9985 0 0 1 161.175 167.637)" style="font-family:'Asap-Regular';font-size:6.0093px">K</text><line style="fill:none;stroke:#939598;stroke-width:.5;stroke-miterlimit:10" x1="156.3" y1="264.26" x2="56.22" y2="264.26"/><polygon style="fill:#939598" points="154.64 262.22 154.3 262.58 156.1 264.26 154.3 265.94 154.64 266.31 156.84 264.26"/><polygon style="fill:#939598" points="57.88 262.22 58.22 262.58 56.41 264.26 58.22 265.94 57.88 266.31 55.68 264.26"/><line style="fill:none;stroke:#939598;stroke-width:.5;stroke-miterlimit:10" x1="225.23" y1="264.26" x2="159.68" y2="264.26"/><polygon style="fill:#939598" points="223.57 262.22 223.23 262.58 225.04 264.26 223.23 265.94 223.57 266.31 225.77 264.26"/><polygon style="fill:#939598" points="161.34 262.22 161.68 262.58 159.88 264.26 161.68 265.94 161.34 266.31 159.14 264.26"/><line style="fill:none;stroke:#939598;stroke-width:.5;stroke-miterlimit:10" x1="198.07" y1="171.57" x2="171.19" y2="171.57"/><polygon style="fill:#939598" points="172.85 169.52 173.19 169.89 171.38 171.57 173.19 173.25 172.85 173.61 170.65 171.57"/><text transform="matrix(.9985 0 0 1 225.83 224.475)" style="font-family:'Asap-Regular';font-size:6.0093px">Marco’s IC</text><text transform="matrix(.9985 0 0 1 233.83 262.547)" style="font-family:'Asap-Regular';font-size:6.0093px">Marco’s endowment</text><text transform="translate(81.708 257.929)" style="font-family:'Asap-Regular';font-size:6px">Consumption now</text><text transform="translate(176.845 257.929)" style="font-family:'Asap-Regular';font-size:6px">Investment</text><text transform="translate(102.82 125.3)" style="font-family:'Asap-Regular';font-size:6px">1</text><text transform="translate(81.486 104.967)" style="font-family:'Asap-Regular';font-size:6px">1.5</text><text transform="matrix(.9985 0 0 1 201.675 173.488)" style="font-family:'Asap-Regular';font-size:6.0093px">MRS = MRT</text><text transform="translate(117.687 291.53)" style="font-family:'Asap-Medium';font-size:8px">Consumption now ($)</text><text transform="translate(38.503 269.048)" style="font-family:'Asap-Regular';font-size:7px">0</text><text transform="translate(34.855 253.162)"><tspan x="0" y="0" style="font-family:'Asap-Regular';font-size:7px">1</tspan><tspan x="3.72" y="0" style="font-family:'Asap-Regular';font-size:7px">0</tspan></text><text transform="translate(34.855 237.276)"><tspan x="0" y="0" style="font-family:'Asap-Regular';font-size:7px">2</tspan><tspan x="3.72" y="0" style="font-family:'Asap-Regular';font-size:7px">0</tspan></text><text transform="translate(34.855 221.39)"><tspan x="0" y="0" style="font-family:'Asap-Regular';font-size:7px">3</tspan><tspan x="3.72" y="0" style="font-family:'Asap-Regular';font-size:7px">0</tspan></text><text transform="translate(34.855 205.504)"><tspan x="0" y="0" style="font-family:'Asap-Regular';font-size:7px">4</tspan><tspan x="3.72" y="0" style="font-family:'Asap-Regular';font-size:7px">0</tspan></text><text transform="translate(34.855 189.619)"><tspan x="0" y="0" style="font-family:'Asap-Regular';font-size:7px">5</tspan><tspan x="3.72" y="0" style="font-family:'Asap-Regular';font-size:7px">0</tspan></text><text transform="translate(34.855 173.732)"><tspan x="0" y="0" style="font-family:'Asap-Regular';font-size:7px">6</tspan><tspan x="3.72" y="0" style="font-family:'Asap-Regular';font-size:7px">0</tspan></text><text transform="translate(34.855 157.846)"><tspan x="0" y="0" style="font-family:'Asap-Regular';font-size:7px">7</tspan><tspan x="3.72" y="0" style="font-family:'Asap-Regular';font-size:7px">0</tspan></text><text transform="translate(34.855 141.96)"><tspan x="0" y="0" style="font-family:'Asap-Regular';font-size:7px">8</tspan><tspan x="3.72" y="0" style="font-family:'Asap-Regular';font-size:7px">0</tspan></text><text transform="translate(34.855 126.075)"><tspan x="0" y="0" style="font-family:'Asap-Regular';font-size:7px">9</tspan><tspan x="3.72" y="0" style="font-family:'Asap-Regular';font-size:7px">0</tspan></text><text transform="translate(31.216 110.189)"><tspan x="0" y="0" style="font-family:'Asap-Regular';font-size:7px">1</tspan><tspan x="3.72" y="0" style="font-family:'Asap-Regular';font-size:7px">0</tspan><tspan x="7.53" y="0" style="font-family:'Asap-Regular';font-size:7px">0</tspan></text><text transform="translate(31.216 94.302)"><tspan x="0" y="0" style="font-family:'Asap-Regular';font-size:7px">1</tspan><tspan x="3.72" y="0" style="font-family:'Asap-Regular';font-size:7px">1</tspan><tspan x="7.53" y="0" style="font-family:'Asap-Regular';font-size:7px">0</tspan></text><text transform="translate(31.216 78.416)"><tspan x="0" y="0" style="font-family:'Asap-Regular';font-size:7px">1</tspan><tspan x="3.72" y="0" style="font-family:'Asap-Regular';font-size:7px">2</tspan><tspan x="7.53" y="0" style="font-family:'Asap-Regular';font-size:7px">0</tspan></text><text transform="translate(31.216 62.53)"><tspan x="0" y="0" style="font-family:'Asap-Regular';font-size:7px">1</tspan><tspan x="3.72" y="0" style="font-family:'Asap-Regular';font-size:7px">3</tspan><tspan x="7.53" y="0" style="font-family:'Asap-Regular';font-size:7px">0</tspan></text><text transform="translate(31.216 46.645)"><tspan x="0" y="0" style="font-family:'Asap-Regular';font-size:7px">1</tspan><tspan x="3.72" y="0" style="font-family:'Asap-Regular';font-size:7px">4</tspan><tspan x="7.53" y="0" style="font-family:'Asap-Regular';font-size:7px">0</tspan></text><text transform="translate(31.216 30.759)"><tspan x="0" y="0" style="font-family:'Asap-Regular';font-size:7px">1</tspan><tspan x="3.72" y="0" style="font-family:'Asap-Regular';font-size:7px">5</tspan><tspan x="7.53" y="0" style="font-family:'Asap-Regular';font-size:7px">0</tspan></text><text transform="translate(31.216 14.873)"><tspan x="0" y="0" style="font-family:'Asap-Regular';font-size:7px">1</tspan><tspan x="3.72" y="0" style="font-family:'Asap-Regular';font-size:7px">6</tspan><tspan x="7.53" y="0" style="font-family:'Asap-Regular';font-size:7px">0</tspan></text><line style="fill:none;stroke:#6d6e71;stroke-width:.5;stroke-linecap:square" x1="47.54" y1="251.02" x2="49.67" y2="251.02"/><line style="fill:none;stroke:#6d6e71;stroke-width:.5;stroke-linecap:square" x1="47.43" y1="235.13" x2="49.55" y2="235.13"/><line style="fill:none;stroke:#6d6e71;stroke-width:.5;stroke-linecap:square" x1="47.43" y1="219.25" x2="49.55" y2="219.25"/><line style="fill:none;stroke:#6d6e71;stroke-width:.5;stroke-linecap:square" x1="47.43" y1="203.36" x2="49.55" y2="203.36"/><line style="fill:none;stroke:#6d6e71;stroke-width:.5;stroke-linecap:square" x1="47.56" y1="187.47" x2="49.69" y2="187.47"/><line style="fill:none;stroke:#6d6e71;stroke-width:.5;stroke-linecap:square" x1="47.43" y1="171.59" x2="49.55" y2="171.59"/><line style="fill:none;stroke:#6d6e71;stroke-width:.5;stroke-linecap:square" x1="47.3" y1="155.7" x2="49.43" y2="155.7"/><line style="fill:none;stroke:#6d6e71;stroke-width:.5;stroke-linecap:square" x1="47.56" y1="139.82" x2="49.69" y2="139.82"/><line style="fill:none;stroke:#6d6e71;stroke-width:.5;stroke-linecap:square" x1="47.56" y1="123.93" x2="49.69" y2="123.93"/><line style="fill:none;stroke:#6d6e71;stroke-width:.5;stroke-linecap:square" x1="47.56" y1="108.04" x2="49.69" y2="108.04"/><line style="fill:none;stroke:#6d6e71;stroke-width:.5;stroke-linecap:square" x1="47.56" y1="92.16" x2="49.69" y2="92.16"/><line style="fill:none;stroke:#6d6e71;stroke-width:.5;stroke-linecap:square" x1="47.56" y1="76.27" x2="49.69" y2="76.27"/><line style="fill:none;stroke:#6d6e71;stroke-width:.5;stroke-linecap:square" x1="47.56" y1="28.61" x2="49.69" y2="28.61"/><line style="fill:none;stroke:#6d6e71;stroke-width:.5;stroke-linecap:square" x1="47.56" y1="44.5" x2="49.69" y2="44.5"/><line style="fill:none;stroke:#6d6e71;stroke-width:.5;stroke-linecap:square" x1="47.56" y1="60.39" x2="49.69" y2="60.39"/><line style="fill:none;stroke:#6d6e71;stroke-width:.5;stroke-linecap:square" x1="47.56" y1="12.73" x2="49.69" y2="12.73"/><text transform="translate(48.32 276.965)" style="font-family:'Asap-Regular';font-size:7px">0</text><text transform="translate(64.891 276.965)"><tspan x="0" y="0" style="font-family:'Asap-Regular';font-size:7px">1</tspan><tspan x="3.72" y="0" style="font-family:'Asap-Regular';font-size:7px">0</tspan></text><text transform="translate(82.935 276.965)"><tspan x="0" y="0" style="font-family:'Asap-Regular';font-size:7px">2</tspan><tspan x="3.72" y="0" style="font-family:'Asap-Regular';font-size:7px">0</tspan></text><text transform="translate(100.97 276.965)"><tspan x="0" y="0" style="font-family:'Asap-Regular';font-size:7px">3</tspan><tspan x="3.72" y="0" style="font-family:'Asap-Regular';font-size:7px">0</tspan></text><text transform="translate(119.008 276.965)"><tspan x="0" y="0" style="font-family:'Asap-Regular';font-size:7px">4</tspan><tspan x="3.72" y="0" style="font-family:'Asap-Regular';font-size:7px">0</tspan></text><text transform="translate(137.047 276.965)"><tspan x="0" y="0" style="font-family:'Asap-Regular';font-size:7px">5</tspan><tspan x="3.72" y="0" style="font-family:'Asap-Regular';font-size:7px">0</tspan></text><text transform="translate(155.085 276.965)"><tspan x="0" y="0" style="font-family:'Asap-Regular';font-size:7px">6</tspan><tspan x="3.72" y="0" style="font-family:'Asap-Regular';font-size:7px">0</tspan></text><text transform="translate(173.124 276.965)"><tspan x="0" y="0" style="font-family:'Asap-Regular';font-size:7px">7</tspan><tspan x="3.72" y="0" style="font-family:'Asap-Regular';font-size:7px">0</tspan></text><text transform="translate(191.162 276.965)"><tspan x="0" y="0" style="font-family:'Asap-Regular';font-size:7px">8</tspan><tspan x="3.72" y="0" style="font-family:'Asap-Regular';font-size:7px">0</tspan></text><text transform="translate(209.195 276.965)"><tspan x="0" y="0" style="font-family:'Asap-Regular';font-size:7px">9</tspan><tspan x="3.72" y="0" style="font-family:'Asap-Regular';font-size:7px">0</tspan></text><text transform="translate(225.772 276.965)"><tspan x="0" y="0" style="font-family:'Asap-Regular';font-size:7px">1</tspan><tspan x="3.72" y="0" style="font-family:'Asap-Regular';font-size:7px">0</tspan><tspan x="7.53" y="0" style="font-family:'Asap-Regular';font-size:7px">0</tspan></text><text transform="translate(243.811 276.965)"><tspan x="0" y="0" style="font-family:'Asap-Regular';font-size:7px">1</tspan><tspan x="3.72" y="0" style="font-family:'Asap-Regular';font-size:7px">1</tspan><tspan x="7.53" y="0" style="font-family:'Asap-Regular';font-size:7px">0</tspan></text><text transform="translate(261.845 276.965)"><tspan x="0" y="0" style="font-family:'Asap-Regular';font-size:7px">1</tspan><tspan x="3.72" y="0" style="font-family:'Asap-Regular';font-size:7px">2</tspan><tspan x="7.53" y="0" style="font-family:'Asap-Regular';font-size:7px">0</tspan></text><line style="fill:none;stroke:#6d6e71;stroke-width:.5;stroke-linecap:square" x1="49.75" y1="267.23" x2="49.75" y2="269.04"/><line style="fill:none;stroke:#6d6e71;stroke-width:.5;stroke-linecap:square" x1="67.79" y1="267.23" x2="67.79" y2="269.04"/><line style="fill:none;stroke:#6d6e71;stroke-width:.5;stroke-linecap:square" x1="85.83" y1="267.23" x2="85.83" y2="269.04"/><line style="fill:none;stroke:#6d6e71;stroke-width:.5;stroke-linecap:square" x1="103.88" y1="267.23" x2="103.88" y2="269.04"/><line style="fill:none;stroke:#6d6e71;stroke-width:.5;stroke-linecap:square" x1="121.92" y1="267.23" x2="121.92" y2="269.04"/><line style="fill:none;stroke:#6d6e71;stroke-width:.5;stroke-linecap:square" x1="139.96" y1="267.23" x2="139.96" y2="269.04"/><line style="fill:none;stroke:#6d6e71;stroke-width:.5;stroke-linecap:square" x1="158" y1="267.23" x2="158" y2="269.04"/><line style="fill:none;stroke:#6d6e71;stroke-width:.5;stroke-linecap:square" x1="176.04" y1="267.23" x2="176.04" y2="269.04"/><line style="fill:none;stroke:#6d6e71;stroke-width:.5;stroke-linecap:square" x1="212.12" y1="267.23" x2="212.12" y2="269.04"/><line style="fill:none;stroke:#6d6e71;stroke-width:.5;stroke-linecap:square" x1="230.16" y1="267.23" x2="230.16" y2="269.04"/><line style="fill:none;stroke:#6d6e71;stroke-width:.5;stroke-linecap:square" x1="248.21" y1="267.23" x2="248.21" y2="269.04"/><line style="fill:none;stroke:#6d6e71;stroke-width:.5;stroke-linecap:square" x1="266.25" y1="267.23" x2="266.25" y2="269.04"/><line style="fill:none;stroke:#6d6e71;stroke-width:.5;stroke-linecap:square" x1="194.08" y1="267.31" x2="194.08" y2="269.11"/><line style="fill:none;stroke:#6d6e71;stroke-width:.5;stroke-linecap:square;stroke-linejoin:round" x1="49.84" y1="266.9" x2="49.84" y2="12.73"/><polyline style="fill:none;stroke:#939598;stroke-width:.5;stroke-miterlimit:10;stroke-dasharray:1.4173" points="94.75 88.22 94.75 117.3 116.52 117.3"/><polyline style="fill:none;stroke:#939598;stroke-width:.5;stroke-miterlimit:10;stroke-dasharray:1.4173" points="49.84 171.57 158.01 171.57 158.01 267.23"/><path style="fill:none;stroke:#ed2024;stroke-width:.5;stroke-linecap:round;stroke-linejoin:round;stroke-miterlimit:10" d="M49.84 28.61c.6.79 1.2 1.59 1.8 2.38.6.79 1.2 1.59 1.8 2.38.6.79 1.2 1.59 1.8 2.38.6.79 1.2 1.59 1.8 2.38.6.79 1.2 1.59 1.8 2.38.6.79 1.2 1.59 1.8 2.38.6.79 1.2 1.59 1.8 2.38.6.79 1.2 1.59 1.8 2.38.6.79 1.2 1.59 1.8 2.38.6.79 1.2 1.59 1.8 2.38.6.79 1.2 1.59 1.8 2.38.6.79 1.2 1.59 1.8 2.38.6.79 1.2 1.59 1.8 2.38.6.79 1.2 1.59 1.8 2.38.6.79 1.2 1.59 1.8 2.38.6.79 1.2 1.59 1.8 2.38.6.79 1.2 1.59 1.8 2.38.6.79 1.2 1.59 1.8 2.38.6.79 1.2 1.59 1.8 2.38.6.79 1.2 1.59 1.8 2.38.6.79 1.2 1.59 1.8 2.38.6.79 1.2 1.59 1.8 2.38.6.79 1.2 1.59 1.8 2.38.6.79 1.2 1.59 1.8 2.38.6.79 1.2 1.59 1.8 2.38.6.79 1.2 1.59 1.8 2.38.6.79 1.2 1.59 1.8 2.38.6.79 1.2 1.59 1.8 2.38.6.79 1.2 1.59 1.8 2.38.6.79 1.2 1.59 1.8 2.38.6.79 1.2 1.59 1.8 2.38.6.79 1.2 1.59 1.8 2.38.6.79 1.2 1.59 1.8 2.38.6.79 1.2 1.59 1.8 2.38.6.79 1.2 1.59 1.8 2.38.6.79 1.2 1.59 1.8 2.38.6.79 1.2 1.59 1.8 2.38.6.79 1.2 1.59 1.8 2.38.6.79 1.2 1.59 1.8 2.38.6.79 1.2 1.59 1.8 2.38.6.79 1.2 1.59 1.8 2.38.6.79 1.2 1.59 1.8 2.38.6.79 1.2 1.59 1.8 2.38.6.79 1.2 1.59 1.8 2.38.6.79 1.2 1.59 1.8 2.38.6.79 1.2 1.59 1.8 2.38.6.79 1.2 1.59 1.8 2.38.6.79 1.2 1.59 1.8 2.38.6.79 1.2 1.59 1.8 2.38.6.79 1.2 1.59 1.8 2.38.6.79 1.2 1.59 1.8 2.38.6.79 1.2 1.59 1.8 2.38.6.79 1.2 1.59 1.8 2.38.6.79 1.2 1.59 1.8 2.38.6.79 1.2 1.59 1.8 2.38.04.05.9 1.19 1.8 2.38 13.52 17.87 52.89 69.88 79.34 104.83"/><circle cx="230.16" cy="267.05" r="1.13"/><circle cx="158.01" cy="171.57" r="1.13"/><circle cx="49.69" cy="28.61" r="1.13"/><text transform="rotate(-90 97.332 80.735)"><tspan x="0" y="0" style="font-family:'Asap-Medium';font-size:8px">C</tspan><tspan x="4.92" y="0" style="font-family:'Asap-Medium';font-size:8px">o</tspan><tspan x="9.47" y="0" style="font-family:'Asap-Medium';font-size:8px">n</tspan><tspan x="13.9" y="0" style="font-family:'Asap-Medium';font-size:8px">s</tspan><tspan x="17.22" y="0" style="font-family:'Asap-Medium';font-size:8px">u</tspan><tspan x="21.66" y="0" style="font-family:'Asap-Medium';font-size:8px">m</tspan><tspan x="28.46" y="0" style="font-family:'Asap-Medium';font-size:8px">pt</tspan><tspan x="35.78" y="0" style="font-family:'Asap-Medium';font-size:8px">i</tspan><tspan x="37.86" y="0" style="font-family:'Asap-Medium';font-size:8px">o</tspan><tspan x="42.42" y="0" style="font-family:'Asap-Medium';font-size:8px">n</tspan><tspan x="46.84" y="0" style="font-family:'Asap-Medium';font-size:8px"> </tspan><tspan x="49.08" y="0" style="font-family:'Asap-Medium';font-size:8px">l</tspan><tspan x="51.45" y="0" style="font-family:'Asap-Medium';font-size:8px">a</tspan><tspan x="55.82" y="0" style="font-family:'Asap-Medium';font-size:8px">t</tspan><tspan x="58.56" y="0" style="font-family:'Asap-Medium';font-size:8px">e</tspan><tspan x="62.85" y="0" style="font-family:'Asap-Medium';font-size:8px">r</tspan><tspan x="65.8" y="0" style="font-family:'Asap-Medium';font-size:8px"> </tspan><tspan x="67.75" y="0" style="font-family:'Asap-Medium';font-size:8px">(</tspan><tspan x="70.15" y="0" style="font-family:'Asap-Medium';font-size:8px">$</tspan><tspan x="74.09" y="0" style="font-family:'Asap-Medium';font-size:8px">)</tspan></text><g><line style="fill:none;stroke:#7f7f7f;stroke-width:.5;stroke-miterlimit:8" x1="53.22" y1="173.25" x2="53.22" y2="265.48"/><polygon style="fill:#7f7f7f" points="51.18 174.9 51.54 175.25 53.22 173.44 54.9 175.25 55.27 174.9 53.22 172.71"/><polygon style="fill:#7f7f7f" points="51.18 263.82 51.54 263.48 53.22 265.29 54.9 263.48 55.27 263.82 53.22 266.02"/></g><text transform="rotate(-90 155.721 95.295)"><tspan x="0" y="0" style="font-family:'Asap-Regular';font-size:6px">C</tspan><tspan x="3.69" y="0" style="font-family:'Asap-Regular';font-size:6px">o</tspan><tspan x="7.1" y="0" style="font-family:'Asap-Regular';font-size:6px">n</tspan><tspan x="10.42" y="0" style="font-family:'Asap-Regular';font-size:6px">s</tspan><tspan x="12.91" y="0" style="font-family:'Asap-Regular';font-size:6px">u</tspan><tspan x="16.25" y="0" style="font-family:'Asap-Regular';font-size:6px">m</tspan><tspan x="21.35" y="0" style="font-family:'Asap-Regular';font-size:6px">p</tspan><tspan x="24.79" y="0" style="font-family:'Asap-Regular';font-size:6px">t</tspan><tspan x="26.83" y="0" style="font-family:'Asap-Regular';font-size:6px">i</tspan><tspan x="28.46" y="0" style="font-family:'Asap-Regular';font-size:6px">on</tspan><tspan x="0" y="7.2" style="font-family:'Asap-Regular';font-size:6px">later</tspan></text></svg>