<svg version="1.1" xmlns="http://www.w3.org/2000/svg" x="0" y="0" viewBox="0 0 311.81 191.63" style="enable-background:new 0 0 311.81 191.63" xml:space="preserve"><polygon style="fill:#fee6da" points="58.05 39.25 62.1 48.79 68.76 60.03 75.45 71.47 83.24 82.58 89.91 91.04 97.7 99.8 106.59 108.54 117.72 117.82 128.84 125.55 139.96 131.99 154.07 138.64 171.1 144.87 188.9 149.76 208.92 153.8 225.02 156.21 244.51 158.39 263.42 159.94 278.99 160.9 285.3 161.05"/><path style="fill:none;stroke:#f49323;stroke-width:.5;stroke-linecap:round;stroke-linejoin:round;stroke-miterlimit:10" d="M38.66 29.1c.35.19.7.38 1.05.56.35.19.7.38 1.05.56.35.19.7.38 1.05.56.35.19.7.38 1.05.56.35.19.7.38 1.05.56.35.19.7.38 1.05.56.35.19.7.38 1.05.56.35.19.7.38 1.05.56.35.19.7.38 1.05.56.35.19.7.38 1.05.56.35.19.7.38 1.05.56.35.19.7.38 1.05.56.35.19.7.38 1.05.56.35.19.7.38 1.05.56.35.19.7.38 1.05.56.35.19.7.38 1.05.56.35.19.7.38 1.05.56.35.19.7.38 1.05.56.35.19.7.38 1.05.56.35.19.7.38 1.05.56.35.19.7.38 1.05.56.35.19.7.38 1.05.56.35.19.7.38 1.05.56.35.19.7.38 1.05.56.35.19.7.38 1.05.56.35.19.7.38 1.05.56.35.19.7.38 1.05.56.35.19.7.38 1.05.56.35.19.7.38 1.05.56.35.19.7.38 1.05.56.35.19.7.38 1.05.56.35.19.7.38 1.05.56.35.19.7.38 1.05.56.35.19.7.38 1.05.56.35.19.7.38 1.05.56.35.19.7.38 1.05.56.35.19.7.38 1.05.56.35.19.7.38 1.05.56.35.19.7.38 1.05.56.35.19.7.38 1.05.56.35.19.7.38 1.05.56.35.19.7.38 1.05.56.35.19.7.38 1.05.56.35.19.7.38 1.05.56.35.19.7.38 1.05.56.35.19.7.38 1.05.56.35.19.7.38 1.05.56.35.19.7.38 1.05.56.35.19.7.38 1.05.56.35.19.7.38 1.05.56.35.19.7.38 1.05.56.35.19.7.38 1.05.56.35.19.7.38 1.05.56.35.19.7.38 1.05.56.35.19.7.38 1.05.56.35.19.7.38 1.05.56.35.19.7.38 1.05.56.35.19.7.38 1.05.56.35.19.7.38 1.05.56.35.19.7.38 1.05.56.35.19.7.38 1.05.56.35.19.7.38 1.05.56.35.19.7.38 1.05.56.35.19.7.38 1.05.56.35.19.7.38 1.05.56.35.19.7.38 1.05.56.35.19.7.38 1.05.56.35.19.7.38 1.05.56.35.19.7.38 1.05.56.35.19.7.38 1.05.56.35.19.7.38 1.05.56.35.19.7.38 1.05.56.35.19.7.38 1.05.56.35.19.7.38 1.05.56.35.19.7.38 1.05.56.35.19.7.38 1.05.56.35.19.7.38 1.05.56.35.19.7.38 1.05.56.35.19.7.38 1.05.56.35.19.7.38 1.05.56.35.19.7.38 1.05.56.35.19.7.38 1.05.56.35.19.7.38 1.05.56.35.19.7.38 1.05.56.35.19.7.38 1.05.56.35.19.7.38 1.05.56.35.19.7.38 1.05.56.35.19.7.38 1.05.56.35.19.7.38 1.05.56.35.19.7.38 1.05.56.35.19.7.38 1.05.56.35.19.7.38 1.05.56.35.19.7.38 1.05.56.35.19.7.38 1.05.56.35.19.7.38 1.05.56.35.19.7.38 1.05.56.35.19.7.38 1.05.56.35.19.7.38 1.05.56.35.19.7.38 1.05.56.35.19.7.38 1.05.56.35.19.7.38 1.05.56.35.19.7.38 1.05.56.35.19.7.38 1.05.56.35.19.7.38 1.05.56.35.19.7.38 1.05.56.35.19.7.38 1.05.56.35.19.7.38 1.05.56.35.19.7.38 1.05.56s.7.38 1.05.56c.35.19.7.38 1.05.56.35.19.7.38 1.05.56.35.19.7.38 1.05.56.35.19.7.38 1.05.56.35.19.7.38 1.05.56.35.19.7.38 1.05.56.35.19.7.38 1.05.56.35.19.7.38 1.05.56.35.19.7.38 1.05.56.35.19.7.38 1.05.56.35.19.7.38 1.05.56.35.19.7.38 1.05.56.35.19.7.38 1.05.56.35.19.7.38 1.05.56.35.19.7.38 1.05.56.35.19.7.38 1.05.56.35.19.7.38 1.05.56.35.19.7.38 1.05.56.35.19.7.38 1.05.56.35.19.7.38 1.05.56.35.19.7.38 1.05.56.35.19.7.38 1.05.56.35.19.7.38 1.05.56.35.19.7.38 1.05.56.35.19.7.38 1.05.56.35.19.7.38 1.05.56.35.19.7.38 1.05.56.35.19.7.38 1.05.56.35.19.7.38 1.05.56.35.19.7.38 1.05.56.35.19.7.38 1.05.56.35.19.7.38 1.05.56.35.19.7.38 1.05.56.35.19.7.38 1.05.56.35.19.7.38 1.05.56.35.19.7.38 1.05.56.35.19.7.38 1.05.56.35.19.7.38 1.05.56.35.19.7.38 1.05.56.35.19.7.38 1.05.56.35.19.7.38 1.05.56.35.19.7.38 1.05.56.35.19.7.38 1.05.56.35.19.7.38 1.05.56.35.19.7.38 1.05.56.35.19.7.38 1.05.56.35.19.7.38 1.05.56.35.19.7.38 1.05.56.35.19.7.38 1.05.56.35.19.7.38 1.05.56.35.19.7.38 1.05.56.35.19.7.38 1.05.56.35.19.7.38 1.05.56.35.19.7.38 1.05.56.35.19.7.38 1.05.56.35.19.7.38 1.05.56.35.19.7.38 1.05.56.35.19.7.38 1.05.56.35.19.7.38 1.05.56.35.19.7.38 1.05.56.35.19.7.38 1.05.56.35.19.7.38 1.05.56.35.19.7.38 1.05.56.35.19.7.38 1.05.56.35.19.7.38 1.05.56.35.19.7.38 1.05.56.35.19.7.38 1.05.56.35.19.7.38 1.05.56.35.19.7.38 1.05.56.35.19.7.38 1.05.56.35.19.7.38 1.05.56.35.19.7.38 1.05.56.35.19.7.38 1.05.56.35.19.7.38 1.05.56.35.19.7.38 1.05.56.35.19.7.38 1.05.56.35.19.7.38 1.05.56.35.19.7.38 1.05.56.35.19.7.38 1.05.56.35.19.7.38 1.05.56.35.19.7.38 1.05.56.35.19.7.38 1.05.56.35.19.7.38 1.05.56.35.19.7.38 1.05.56.35.19.7.38 1.05.56.35.19.7.38 1.05.56.35.19.7.38 1.05.56.35.19.7.38 1.05.56.35.19.7.38 1.05.56.35.19.7.38 1.05.56.35.19.7.38 1.05.56.35.19.7.38 1.05.56.35.19.7.38 1.05.56.35.19.7.38 1.05.56.35.19.7.38 1.05.56.35.19.7.38 1.05.56.35.19.7.38 1.05.56.35.19.7.38 1.05.56.35.19.7.38 1.05.56.35.19.7.38 1.05.56.35.19.7.38 1.05.56.35.19.7.38 1.05.56.35.19.7.38 1.05.56.35.19.7.38 1.05.56.35.19.7.38 1.05.56.35.19.7.38 1.05.56.35.19.7.38 1.05.56.35.19.7.38 1.05.56.35.19.7.38 1.05.56.35.19.7.38 1.05.56.35.19.7.38 1.05.56.35.19.7.38 1.05.56.35.19.7.38 1.05.56.35.19.7.38 1.05.56.35.19.7.38 1.05.56.35.19.7.38 1.05.56.35.19.7.38 1.05.56.35.19.7.38 1.05.56.35.19.7.38 1.05.56.35.19.7.38 1.05.56.35.19.7.38 1.05.56.35.19.7.38 1.05.56.35.19.7.38 1.05.56.35.19.7.38 1.05.56.35.19.7.38 1.05.56.35.19.7.38 1.05.56.35.19.7.38 1.05.56.35.19.7.38 1.05.56.35.19.7.38 1.05.56.35.19.7.38 1.05.56.35.19.7.38 1.05.56"/><line style="fill:none;stroke:#6d6e71;stroke-width:.5;stroke-linecap:square;stroke-linejoin:round" x1="38.39" y1="164.43" x2="36.26" y2="164.43"/><line style="fill:none;stroke:#6d6e71;stroke-width:.5;stroke-linecap:square;stroke-linejoin:round" x1="38.66" y1="10.4" x2="36.53" y2="10.4"/><line style="fill:none;stroke:#6d6e71;stroke-width:.5;stroke-linecap:square" x1="38.66" y1="164.56" x2="38.66" y2="166.68"/><text transform="translate(29.803 166.66)" style="font-family:'Asap-Regular';font-size:7px">0</text><text transform="translate(36.385 175.241)" style="font-family:'Asap-Regular';font-size:7px">0</text><text transform="translate(22.313 12.167)" style="font-family:'Asap-Regular';font-size:7px">100</text><text transform="matrix(0 -.9726 1 0 11.534 122)" style="font-family:'Asap-Medium';font-size:8px">Environmental quality</text><text transform="translate(158.785 187.763)" style="font-family:'Asap-Medium';font-size:8px">Wage</text><path style="fill:none;stroke:#6d6e71;stroke-width:.479;stroke-linecap:square;stroke-linejoin:round" d="M38.66 10.4v154.03"/><line style="fill:none;stroke:#6d6e71;stroke-width:.5075;stroke-linecap:square" x1="38.66" y1="164.43" x2="304.03" y2="164.43"/><path style="fill:none;stroke:#253b71;stroke-width:.5137;stroke-linecap:round;stroke-linejoin:round;stroke-miterlimit:10" d="M44.96 10.4c.37.93.74 1.86 1.11 2.78.37.92.74 1.83 1.11 2.73.37.9.74 1.79 1.11 2.68.37.88.74 1.76 1.11 2.63.37.87.74 1.73 1.11 2.58.37.85.74 1.7 1.11 2.54.37.84.74 1.67 1.11 2.49.37.82.74 1.64 1.11 2.45.37.81.74 1.61 1.11 2.4.37.79.74 1.58 1.11 2.36.37.78.74 1.55 1.11 2.32.37.76.74 1.52 1.11 2.27.37.75.74 1.49 1.11 2.23.37.74.74 1.47 1.11 2.19.37.72.74 1.44 1.11 2.15.37.71.74 1.42 1.11 2.11.37.7.74 1.39 1.11 2.08.37.69.74 1.36 1.11 2.04.37.67.74 1.34 1.11 2a331.422 331.422 0 002.22 3.89c.37.64.74 1.27 1.11 1.89.37.63.74 1.25 1.11 1.86l1.11 1.83c.37.6.74 1.2 1.11 1.79.37.59.74 1.18 1.11 1.76a260.791 260.791 0 003.33 5.1 233.22 233.22 0 003.33 4.83c.37.52.74 1.04 1.11 1.55.37.51.74 1.02 1.11 1.52.37.5.74 1 1.11 1.49l1.11 1.47c.37.48.74.97 1.11 1.44a175.824 175.824 0 004.44 5.51l1.11 1.32c.37.43.74.87 1.11 1.29.37.43.74.85 1.11 1.27.37.42.74.83 1.11 1.25.37.41.74.82 1.11 1.22l1.11 1.2c.37.4.74.79 1.11 1.18.37.39.74.78 1.11 1.16l1.11 1.14c.37.38.74.75 1.11 1.12.37.37.74.73 1.11 1.1l1.11 1.08c.37.36.74.71 1.11 1.06.37.35.74.7 1.11 1.04l1.11 1.02c.37.34.74.67 1.11 1 .37.33.74.66 1.11.98.37.32.74.65 1.11.97.37.32.74.63 1.11.95l1.11.93c.37.31.74.61 1.11.91l1.11.9c.37.3.74.59 1.11.88.37.29.74.58 1.11.86.37.29.74.57 1.11.85.37.28.74.56 1.11.83.37.28.74.55 1.11.82.37.27.74.54 1.11.8.37.27.74.53 1.11.79l1.11.78c.37.26.74.51 1.11.76l1.11.75c.37.25.74.49 1.11.73l1.11.72c.37.24.74.47 1.11.71.37.23.74.47 1.11.7.37.23.74.46 1.11.68.37.23.74.45 1.11.67l1.11.66c.37.22.74.43 1.11.65l1.11.63c.37.21.74.42 1.11.62.37.21.74.41 1.11.61l1.11.6c.37.2.74.4 1.11.59.37.19.74.39 1.11.58l1.11.57c.37.19.74.37 1.11.56.37.18.74.37 1.11.55l1.11.54c.37.18.74.35 1.11.53.37.17.74.35 1.11.52l1.11.51c.37.17.74.34 1.11.5.37.17.74.33 1.11.49l1.11.48c.37.16.74.32 1.11.47.37.16.74.31 1.11.47.37.15.74.31 1.11.46l1.11.45c.37.15.74.3 1.11.44.37.15.74.29 1.11.43l1.11.42 1.11.42c.37.14.74.27 1.11.41.37.14.74.27 1.11.4l1.11.39 1.11.39c.37.13.74.26 1.11.38.37.13.74.25 1.11.37.37.12.74.25 1.11.37l1.11.36c.37.12.74.24 1.11.35.37.12.74.23 1.11.35.37.11.74.23 1.11.34.37.11.74.22 1.11.34l1.11.33c.37.11.74.22 1.11.32.37.11.74.21 1.11.32.37.1.74.21 1.11.31.37.1.74.2 1.11.31l1.11.3 1.11.3c.37.1.74.19 1.11.29.37.1.74.19 1.11.28.37.09.74.19 1.11.28l1.11.27 1.11.27c.37.09.74.18 1.11.26.37.09.74.17 1.11.26.37.09.74.17 1.11.25.37.08.74.17 1.11.25.37.08.74.16 1.11.25l1.11.24 1.11.24c.37.08.74.16 1.11.23.37.08.74.15 1.11.23.37.08.74.15 1.11.22.37.07.74.15 1.11.22.37.07.74.14 1.11.22l1.11.21 1.11.21c.37.07.74.14 1.11.2.37.07.74.13 1.11.2.37.07.74.13 1.11.2.37.07.74.13 1.11.19.37.06.74.13 1.11.19.37.06.74.13 1.11.19l1.11.18 1.11.18 1.11.18c.37.06.74.12 1.11.17.37.06.74.11 1.11.17.37.06.74.11 1.11.17.37.06.74.11 1.11.16.37.05.74.11 1.11.16.37.05.74.11 1.11.16.37.05.74.1 1.11.16l1.11.15 1.11.15 1.11.15c.37.05.74.1 1.11.14.37.05.74.1 1.11.14.37.05.74.09 1.11.14.37.05.74.09 1.11.14.37.05.74.09 1.11.13.37.04.74.09 1.11.13.37.04.74.09 1.11.13.37.04.74.09 1.11.13.37.04.74.08 1.11.13l1.11.12 1.11.12 1.11.12 1.11.12c.37.04.74.08 1.11.11.37.04.74.08 1.11.11.37.04.74.07 1.11.11.37.04.74.07 1.11.11.37.04.74.07 1.11.11.37.04.74.07 1.11.1.37.03.74.07 1.11.1.37.03.74.07 1.11.1.37.03.74.07 1.11.1.37.03.74.06 1.11.1.37.03.74.06 1.11.1l1.11.09 1.11.09 1.11.09 1.11.09 1.11.09 1.11.09c.37.03.74.06 1.11.08.37.03.74.06 1.11.08.37.03.74.05 1.11.08.37.03.74.05 1.11.08.37.03.74.05 1.11.08.37.03.74.05 1.11.08.37.03.74.05 1.11.08.37.02.74.05 1.11.07.37.02.74.05 1.11.07.37.02.74.05 1.11.07.37.02.74.05 1.11.07.37.02.74.05 1.11.07.37.02.74.05 1.11.07.37.02.74.04 1.11.07l1.11.06 1.11.06 1.11.06 1.11.06 1.11.06 1.11.06 1.11.06 1.11.06 1.11.06 1.11.06c.37.02.74.04 1.11.05.37.02.74.04 1.11.05.37.02.74.03 1.11.05s.74.03 1.11.05c.37.02.74.03 1.11.05.37.02.74.03 1.11.05.37.02.74.03 1.11.05.37.02.74.03 1.11.05.37.02.74.03 1.11.05.37.02.74.03 1.11.05.37.02.74.03 1.11.05.37.01.74.03 1.11.04.37.01.74.03 1.11.04.37.01.74.03 1.11.04.37.01.74.03 1.11.04.37.01.74.03 1.11.04.37.01.74.03 1.11.04.37.01.74.03 1.11.04"/><text transform="translate(122.476 39.954)"><tspan x="0" y="0" style="font-family:'Asap-Regular';font-size:6px">Firm’s shutdown </tspan><tspan x="0" y="7.2" style="font-family:'Asap-Regular';font-size:6px">condition</tspan></text><line style="fill:none;stroke:#939598;stroke-width:.5;stroke-linecap:square;stroke-linejoin:round" x1="120.2" y1="43.68" x2="102.76" y2="61.12"/><polygon style="fill:#939598" points="102.48 58.5 102.98 58.52 102.89 60.98 105.36 60.89 105.37 61.39 102.37 61.5"/><text transform="translate(253.958 123.254)"><tspan x="0" y="0" style="font-family:'Asap-Regular';font-size:6px">Citizens’ leave-town</tspan><tspan x="0" y="7.2" style="font-family:'Asap-Regular';font-size:6px">condition</tspan></text><line style="fill:none;stroke:#939598;stroke-width:.62;stroke-linecap:square;stroke-linejoin:round" x1="255.78" y1="133.17" x2="234.22" y2="154.87"/><polygon style="fill:#939598" points="233.87 151.62 234.49 151.64 234.39 154.7 237.44 154.58 237.47 155.2 233.74 155.34"/><text transform="translate(187.201 140.255)" style="font-family:'Asap-Regular';font-size:6px">Feasible set</text><path style="fill:none;stroke:#5b73b8;stroke-width:.5326;stroke-linecap:round;stroke-linejoin:round;stroke-miterlimit:10" d="M69.31 10.4c.24.4.47.81.71 1.21.38.64.76 1.28 1.13 1.91.38.63.76 1.26 1.13 1.88.38.62.76 1.23 1.13 1.84.38.61.76 1.21 1.13 1.81.38.6.76 1.19 1.13 1.78.38.59.76 1.17 1.13 1.74.38.58.76 1.15 1.13 1.71.38.57.76 1.13 1.13 1.68.38.56.76 1.11 1.13 1.65.38.55.76 1.09 1.13 1.62.38.54.76 1.07 1.13 1.59.38.53.76 1.05 1.13 1.56.38.52.76 1.03 1.13 1.53.38.51.76 1.01 1.13 1.51.38.5.76.99 1.13 1.48.38.49.76.97 1.13 1.45.38.48.76.96 1.13 1.43.38.47.76.94 1.13 1.4.38.46.76.92 1.13 1.38.38.45.76.9 1.13 1.35.38.45.76.89 1.13 1.33.38.44.76.87 1.13 1.3l1.13 1.28c.38.42.76.84 1.13 1.26.38.41.76.83 1.13 1.23.38.41.76.81 1.13 1.21l1.13 1.19c.38.39.76.78 1.13 1.17.38.39.76.77 1.13 1.15.38.38.76.75 1.13 1.13.38.37.76.74 1.13 1.11.38.36.76.73 1.13 1.09.38.36.76.71 1.13 1.07.38.35.76.7 1.13 1.05.38.35.76.69 1.13 1.03l1.13 1.01c.38.33.76.66 1.13.99.38.33.76.65 1.13.97.38.32.76.64 1.13.96.38.32.76.63 1.13.94l1.13.92c.38.3.76.61 1.13.9.38.3.76.59 1.13.89.38.29.76.58 1.13.87.38.29.76.57 1.13.86.38.28.76.56 1.13.84.38.28.76.55 1.13.83.38.27.76.54 1.13.81.38.27.76.53 1.13.8.38.26.76.52 1.13.78.38.26.76.51 1.13.77.38.25.76.5 1.13.75.38.25.76.5 1.13.74.38.24.76.49 1.13.73.38.24.76.48 1.13.71.38.24.76.47 1.13.7.38.23.76.46 1.13.69.38.23.76.45 1.13.68a153.835 153.835 0 002.26 1.31c.38.22.76.43 1.13.64.38.21.76.42 1.13.63.38.21.76.41 1.13.62.38.2.76.41 1.13.61.38.2.76.4 1.13.59.38.2.76.39 1.13.58.38.19.76.38 1.13.57.38.19.76.38 1.13.56.38.19.76.37 1.13.55.38.18.76.36 1.13.54.38.18.76.36 1.13.53.38.18.76.35 1.13.52.38.17.76.34 1.13.51.38.17.76.34 1.13.5.38.17.76.33 1.13.5.38.16.76.33 1.13.49.38.16.76.32 1.13.48.38.16.76.31 1.13.47.38.15.76.31 1.13.46.38.15.76.3 1.13.45.38.15.76.3 1.13.44.38.15.76.29 1.13.44.38.14.76.29 1.13.43.38.14.76.28 1.13.42.38.14.76.28 1.13.41.38.14.76.27 1.13.41.38.13.76.27 1.13.4.38.13.76.26 1.13.39.38.13.76.26 1.13.38.38.13.76.25 1.13.38.38.12.76.25 1.13.37.38.12.76.24 1.13.36.38.12.76.24 1.13.36.38.12.76.23 1.13.35.38.12.76.23 1.13.34.38.11.76.23 1.13.34.38.11.76.22 1.13.33.38.11.76.22 1.13.33.38.11.76.21 1.13.32.38.11.76.21 1.13.31.38.1.76.21 1.13.31.38.1.76.2 1.13.3.38.1.76.2 1.13.3.38.1.76.2 1.13.29.38.1.76.19 1.13.29.38.09.76.19 1.13.28.38.09.76.19 1.13.28.38.09.76.18 1.13.27.38.09.76.18 1.13.27.38.09.76.18 1.13.26.38.09.76.17 1.13.26.38.08.76.17 1.13.25.38.08.76.17 1.13.25.38.08.76.16 1.13.24.38.08.76.16 1.13.24.38.08.76.16 1.13.23.38.08.76.15 1.13.23.38.08.76.15 1.13.23.38.07.76.15 1.13.22.38.07.76.15 1.13.22.38.07.76.14 1.13.21.38.07.76.14 1.13.21.38.07.76.14 1.13.21.38.07.76.14 1.13.2.38.07.76.13 1.13.2.38.07.76.13 1.13.2.38.06.76.13 1.13.19.38.06.76.13 1.13.19.38.06.76.12 1.13.19s.76.12 1.13.18c.38.06.76.12 1.13.18.38.06.76.12 1.13.18.38.06.76.12 1.13.17.38.06.76.11 1.13.17.38.06.76.11 1.13.17.38.05.76.11 1.13.16.38.05.76.11 1.13.16.38.05.76.11 1.13.16l1.13.15 1.13.15 1.13.15 1.13.15c.38.05.76.1 1.13.14.38.05.76.09 1.13.14.38.05.76.09 1.13.14.38.05.76.09 1.13.14.38.04.76.09 1.13.13.38.04.76.09 1.13.13.38.04.76.09 1.13.13.38.04.76.08 1.13.13l1.13.12 1.13.12 1.13.12 1.13.12 1.13.12c.38.04.76.08 1.13.11.38.04.76.07 1.13.11.38.04.76.07 1.13.11.38.04.76.07 1.13.11.38.04.76.07 1.13.11.38.03.76.07 1.13.1s.76.07 1.13.1c.38.03.76.07 1.13.1.38.03.76.07 1.13.1.38.03.76.06 1.13.1a539.476 539.476 0 012.26.18 539.476 539.476 0 012.26.18 539.476 539.476 0 012.26.18c.38.03.76.06 1.13.08.38.03.76.06 1.13.08.38.03.76.05 1.13.08.38.03.76.05 1.13.08.38.03.76.05 1.13.08.38.03.76.05 1.13.08.38.03.76.05 1.13.08.38.02.76.05 1.13.07.38.02.76.05 1.13.07.38.02.76.05 1.13.07.38.02.76.05 1.13.07.38.02.76.05 1.13.07.38.02.76.05 1.13.07.38.02.76.04 1.13.07.38.02.76.04 1.13.07a804.967 804.967 0 012.26.12 804.967 804.967 0 012.26.12 804.967 804.967 0 012.26.12 804.967 804.967 0 012.26.12l1.13.06c.38.02.76.04 1.13.05.38.02.76.04 1.13.05.38.02.76.04 1.13.05.38.02.76.03 1.13.05.38.02.76.03 1.13.05.38.02.76.03 1.13.05.38.02.76.03 1.13.05.38.02.76.03 1.13.05.38.02.76.03 1.13.05.38.02.76.03 1.13.05.38.02.76.03 1.13.05.38.02.76.03 1.13.04.38.01.76.03 1.13.04.38.01.76.03 1.13.04.38.01.76.03 1.13.04"/><text transform="translate(41.67 81.29)" style="font-family:'Asap-Italic';font-size:6px">E</text><text transform="matrix(.583 0 0 .583 44.945 79.293)" style="font-family:'Asap-Regular';font-size:6px">max</text><text transform="translate(41.67 129.927)" style="font-family:'Asap-Italic';font-size:6px">E</text><text transform="matrix(.583 0 0 .583 44.945 127.929)" style="font-family:'Asap-Regular';font-size:6px">min</text><line style="fill:none;stroke:#939598;stroke-width:.5166;stroke-linecap:square;stroke-linejoin:round;stroke-miterlimit:10;stroke-dasharray:1.1037" x1="38.66" y1="131.99" x2="139.96" y2="131.99"/><text transform="translate(142.999 81.279)" style="fill:#010101;font-family:'Asap-Regular';font-size:6px">C</text><text transform="translate(143.694 130.724)" style="fill:#010101;font-family:'Asap-Regular';font-size:6px">F</text><line style="fill:none;stroke:#939598;stroke-width:.4912;stroke-linecap:square;stroke-linejoin:round;stroke-miterlimit:10;stroke-dasharray:.9879" x1="139.71" y1="82.87" x2="139.71" y2="164.43"/><line style="fill:none;stroke:#939598;stroke-width:.5158;stroke-linecap:square;stroke-linejoin:round;stroke-miterlimit:10;stroke-dasharray:1.1021" x1="38.66" y1="82.87" x2="139.66" y2="82.87"/><text transform="translate(137.025 175.242)" style="fill:#010101;font-family:'Asap-Italic';font-size:7px">w</text><text transform="translate(142.255 175.242)" style="fill:#010101;font-family:'Asap-Regular';font-size:7px">*</text><line style="fill:none;stroke:#6e6f72;stroke-width:.5;stroke-linecap:square" x1="139.71" y1="164.56" x2="139.71" y2="166.68"/><g><circle style="fill:#020303" cx="139.71" cy="131.99" r="1.13"/><circle style="fill:#020303" cx="139.71" cy="82.87" r="1.13"/></g></svg>