<svg version="1.1" xmlns="http://www.w3.org/2000/svg" x="0" y="0" viewBox="0 0 311.81 177.43" style="enable-background:new 0 0 311.81 177.43" xml:space="preserve"><rect x="108.6" y="54.29" style="fill:none;stroke:#ec2426;stroke-width:.5;stroke-miterlimit:10" width="39" height="24.17"/><rect x="166.44" y="54.87" style="fill:none;stroke:#ec2426;stroke-width:.5;stroke-miterlimit:10" width="39" height="24.17"/><rect x="166.58" y="5.5" style="fill:none;stroke:#ec2426;stroke-width:.5;stroke-miterlimit:10" width="39" height="39.87"/><rect x="216.76" y="5.5" style="fill:none;stroke:#ec2426;stroke-width:.5;stroke-miterlimit:10" width="39" height="39.46"/><rect x="268.32" y="5.5" style="fill:none;stroke:#ec2426;stroke-width:.5;stroke-miterlimit:10" width="39" height="39.46"/><text transform="translate(167.675 27.272)" style="fill:#ed2124;font-family:'Asap-Regular';font-size:6px">Higher profits</text><text transform="translate(219.082 18.681)"><tspan x="0" y="0" style="fill:#ed2124;font-family:'Asap-Regular';font-size:6px">Expansion of </tspan><tspan x="7.59" y="7.2" style="fill:#ed2124;font-family:'Asap-Regular';font-size:6px">factory </tspan><tspan x="3.11" y="14.4" style="fill:#ed2124;font-family:'Asap-Regular';font-size:6px">production</tspan></text><text transform="translate(271.71 21.681)"><tspan x="0" y="0" style="fill:#ed2124;font-family:'Asap-Regular';font-size:6px">Demand for </tspan><tspan x="1.05" y="7.2" style="fill:#ed2124;font-family:'Asap-Regular';font-size:6px">labour rises</tspan></text><text transform="translate(176.227 65.442)"><tspan x="0" y="0" style="fill:#ed2124;font-family:'Asap-Regular';font-size:6px">Wages </tspan><tspan x="-5.34" y="7.2" style="fill:#ed2124;font-family:'Asap-Regular';font-size:6px">remain low</tspan></text><text transform="translate(115.642 65.019)"><tspan x="0" y="0" style="fill:#ed2124;font-family:'Asap-Regular';font-size:6px">Power of </tspan><tspan x="-4.42" y="7.2" style="fill:#ed2124;font-family:'Asap-Regular';font-size:6px">workers falls</tspan></text><line style="fill:none;stroke:#ed2124;stroke-width:.5;stroke-miterlimit:10" x1="154" y1="34.82" x2="163.01" y2="34.82"/><polygon style="fill:#ed2124" points="161.35 36.87 161.01 36.5 162.82 34.82 161.01 33.14 161.35 32.78 163.55 34.82"/><line style="fill:none;stroke:#ed2124;stroke-width:.5;stroke-miterlimit:10" x1="206" y1="34.82" x2="214.73" y2="34.82"/><polygon style="fill:#ed2124" points="213.07 36.87 212.73 36.5 214.53 34.82 212.73 33.14 213.07 32.78 215.27 34.82"/><line style="fill:none;stroke:#ed2124;stroke-width:.5;stroke-miterlimit:10" x1="256" y1="34.82" x2="265.73" y2="34.82"/><polygon style="fill:#ed2124" points="264.07 36.87 263.73 36.5 265.53 34.82 263.73 33.14 264.07 32.78 266.27 34.82"/><line style="fill:none;stroke:#ed2124;stroke-width:.5;stroke-miterlimit:10" x1="148" y1="72.82" x2="160.3" y2="72.82"/><polygon style="fill:#ed2124" points="158.64 74.87 158.3 74.5 160.11 72.82 158.3 71.14 158.64 70.78 160.84 72.82"/><g><line style="fill:none;stroke:#ed2124;stroke-width:.5;stroke-miterlimit:10" x1="128.14" y1="44.79" x2="128.14" y2="50.46"/><polygon style="fill:#ed2124" points="126.1 48.8 126.46 48.46 128.14 50.27 129.82 48.46 130.19 48.8 128.14 51"/></g><g><line style="fill:none;stroke:#ed2124;stroke-width:.5;stroke-miterlimit:10" x1="185.5" y1="55" x2="185.5" y2="49.54"/><polygon style="fill:#ed2124" points="187.54 51.2 187.18 51.54 185.5 49.73 183.82 51.54 183.46 51.2 185.5 49"/></g><rect x="101.55" y="5.5" style="fill:none;stroke:#ec2426;stroke-width:.471;stroke-miterlimit:10" width="52.14" height="39.46"/><text transform="translate(107.052 15.281)"><tspan x="0" y="0" style="fill:#ed2124;font-family:'Asap-Regular';font-size:6px">Average output </tspan><tspan x="-.62" y="7.2" style="fill:#ed2124;font-family:'Asap-Regular';font-size:6px">per worker rises,</tspan><tspan x="-3.07" y="14.4" style="fill:#ed2124;font-family:'Asap-Regular';font-size:6px">but some workers </tspan><tspan x="3.35" y="21.6" style="fill:#ed2124;font-family:'Asap-Regular';font-size:6px">are displaced</tspan></text></svg>