<svg xmlns="http://www.w3.org/2000/svg" class="prefix__svglite" viewBox="0 0 810 500"><rect width="100%" height="100%" style="stroke:none;fill:#fff;stroke-linecap:round;stroke-linejoin:round;stroke-miterlimit:10"/><defs><clipPath id="prefix__a"><rect x="0" y="0" width="810" height="500" style="fill:none;stroke:#000;stroke-linecap:round;stroke-linejoin:round;stroke-miterlimit:10"/></clipPath></defs><g clip-path="url(#prefix__a)"><rect x="0" y="0" width="810" height="500" style="stroke-width:1.07;stroke:#fff;fill:#fff;stroke-linecap:round;stroke-linejoin:round;stroke-miterlimit:10"/><rect x="116.19" y="14.17" width="679.64" height="382.84" style="stroke-width:1.07;stroke:none;fill:#fff;stroke-linecap:round;stroke-linejoin:round;stroke-miterlimit:10"/><polyline points="116.19 397.01 795.83 397.01" style="stroke-width:1.07;stroke:#c6c4c4;stroke-linecap:butt;fill:none;stroke-linejoin:round;stroke-miterlimit:10"/><polyline points="116.19 349.16 795.83 349.16" style="stroke-width:1.07;stroke:#c6c4c4;stroke-linecap:butt;fill:none;stroke-linejoin:round;stroke-miterlimit:10"/><polyline points="116.19 301.3 795.83 301.3" style="stroke-width:1.07;stroke:#c6c4c4;stroke-linecap:butt;fill:none;stroke-linejoin:round;stroke-miterlimit:10"/><polyline points="116.19 253.45 795.83 253.45" style="stroke-width:1.07;stroke:#c6c4c4;stroke-linecap:butt;fill:none;stroke-linejoin:round;stroke-miterlimit:10"/><polyline points="116.19 205.59 795.83 205.59" style="stroke-width:1.07;stroke:#c6c4c4;stroke-linecap:butt;fill:none;stroke-linejoin:round;stroke-miterlimit:10"/><polyline points="116.19 157.74 795.83 157.74" style="stroke-width:1.07;stroke:#c6c4c4;stroke-linecap:butt;fill:none;stroke-linejoin:round;stroke-miterlimit:10"/><polyline points="116.19 109.88 795.83 109.88" style="stroke-width:1.07;stroke:#c6c4c4;stroke-linecap:butt;fill:none;stroke-linejoin:round;stroke-miterlimit:10"/><polyline points="116.19 62.03 795.83 62.03" style="stroke-width:1.07;stroke:#c6c4c4;stroke-linecap:butt;fill:none;stroke-linejoin:round;stroke-miterlimit:10"/><polyline points="116.19 14.17 795.83 14.17" style="stroke-width:1.07;stroke:#c6c4c4;stroke-linecap:butt;fill:none;stroke-linejoin:round;stroke-miterlimit:10"/><line x1="116.19" y1="397.01" x2="116.19" y2="14.17" style="stroke-width:1.07;stroke:#333;stroke-linecap:butt;fill:none;stroke-linejoin:round;stroke-miterlimit:10"/><line x1="116.19" y1="397.01" x2="795.83" y2="397.01" style="stroke-width:1.07;stroke:#333;stroke-linecap:butt;fill:none;stroke-linejoin:round;stroke-miterlimit:10"/><line x1="116.19" y1="397.01" x2="116.19" y2="404.19" style="stroke-width:1.07;stroke:#333;stroke-linecap:butt;fill:none;stroke-linejoin:round;stroke-miterlimit:10"/><line x1="116.19" y1="397.01" x2="109.22" y2="397.01" style="stroke-width:1.07;stroke:#333;stroke-linecap:butt;fill:none;stroke-linejoin:round;stroke-miterlimit:10"/><polyline points="116.19 342.43 133.61 333.57 151.04 324.13 168.47 314.74 185.89 306.16 203.32 290.99 220.75 281.22 238.17 273.68 255.6 268.34 273.03 256.61 290.45 242.35 307.88 236 325.31 228.97 342.73 225.12 360.16 212.83 377.59 203.08 395.01 198.44 412.44 199.77 429.87 187.12 447.29 170.54 464.72 159.33 482.15 153.87 499.57 143.28 517 130.15 534.43 129.7 551.85 132.99 569.28 114.72 586.71 104.64 604.13 93.99 621.56 79.8 638.99 77.08 656.41 77.43 673.84 80.61 691.27 72.89 708.69 60.88 726.12 52.14 743.55 43.2 760.97 37.31 778.4 24.7 795.83 13.8" style="stroke-width:1.07;stroke:#4dd9ff;stroke-linecap:butt;fill:none;stroke-linejoin:round;stroke-miterlimit:10"/><polyline points="116.19 398.91 133.61 394.01 151.04 388.96 168.47 385.66 185.89 383.09 203.32 378.57 220.75 374.33 238.17 369.83 255.6 366.17 273.03 359.83 290.45 349.48 307.88 338.96 325.31 330.58 342.73 322.15 360.16 309.25 377.59 302.89 395.01 289.21 412.44 273.73 429.87 253.85 447.29 232.53 464.72 212.44 482.15 204.63 499.57 188.04 517 171.29 534.43 178.21 551.85 173.44 569.28 165.66 586.71 156.21 604.13 143.74 621.56 129.91 638.99 123.58 656.41 115.76 673.84 108.01 691.27 102.54 708.69 91.4 726.12 78.03 743.55 69.7 760.97 56.02 778.4 33.68 795.83 15.55" style="stroke-width:1.07;stroke:#f49323;stroke-linecap:butt;fill:none;stroke-linejoin:round;stroke-miterlimit:10"/><polyline points="116.19 392.49 133.61 387.76 151.04 383.65 168.47 384.39 185.89 380.37 203.32 378.39 220.75 373.61 238.17 371.98 255.6 369.5 273.03 371.88 290.45 371.37 307.88 362.65 325.31 353.95 342.73 345.53 360.16 336.84 377.59 330.92 395.01 323.8 412.44 317.23 429.87 311.16 447.29 300.54 464.72 293.67 482.15 286.5 499.57 275 517 261.55 534.43 249.87 551.85 245.16 569.28 239.11 586.71 233.51 604.13 228.97 621.56 227.89 638.99 224.67 656.41 225.08 673.84 222.51 691.27 218.09 708.69 215.86 726.12 212.25 743.55 205.64 760.97 193.15 778.4 180.56 795.83 167.75" style="stroke-width:1.07;stroke:#009147;stroke-linecap:butt;fill:none;stroke-linejoin:round;stroke-miterlimit:10"/><polyline points="116.19 378.28 133.61 374.66 151.04 371.04 168.47 367.43 185.89 363.81 203.32 360.19 220.75 356.57 238.17 352.95 255.6 349.33 273.03 345.71 290.45 350.91 307.88 349.59 325.31 346.23 342.73 343.4 360.16 340.85 377.59 336.98 395.01 333.91 412.44 330.5 429.87 325.3 447.29 322.44 464.72 319.16 482.15 316.36 499.57 311.89 517 307.21 534.43 300.15 551.85 294.12 569.28 290.51 586.71 285.58 604.13 282.79 621.56 278.16 638.99 274.54 656.41 271.07 673.84 271.62 691.27 267.96 708.69 262.61 726.12 256.64 743.55 253.7 760.97 250.68 778.4 248.86 795.83 243.34" style="stroke-width:1.07;stroke:#b9519e;stroke-linecap:butt;fill:none;stroke-linejoin:round;stroke-miterlimit:10"/><circle cx="116.19" cy="378.28" r="3.8" style="stroke-width:1.2;stroke:#b9519e;fill:#b9519e;stroke-linecap:round;stroke-linejoin:round;stroke-miterlimit:10"/><circle cx="116.19" cy="342.43" r="3.8" style="stroke-width:1.2;stroke:#4dd9ff;fill:#4dd9ff;stroke-linecap:round;stroke-linejoin:round;stroke-miterlimit:10"/><polygon points="112.38 396.29 119.99 396.29 119.99 388.69 112.38 388.69" style="stroke-width:1.2;stroke:none;fill:#009147;stroke-linecap:round;stroke-linejoin:round;stroke-miterlimit:10"/><polygon points="112.38 402.71 119.99 402.71 119.99 395.11 112.38 395.11" style="stroke-width:1.2;stroke:none;fill:#f49323;stroke-linecap:round;stroke-linejoin:round;stroke-miterlimit:10"/><text x="57.04" y="401.42" style="font-size:18px;font-family:Asap" textLength="42.1" lengthAdjust="spacingAndGlyphs">2,000</text><text x="57.04" y="353.57" style="font-size:18px;font-family:Asap" textLength="42.1" lengthAdjust="spacingAndGlyphs">4,000</text><text x="57.04" y="305.71" style="font-size:18px;font-family:Asap" textLength="42.1" lengthAdjust="spacingAndGlyphs">6,000</text><text x="57.04" y="257.86" style="font-size:18px;font-family:Asap" textLength="42.1" lengthAdjust="spacingAndGlyphs">8,000</text><text x="47.41" y="210" style="font-size:18px;font-family:Asap" textLength="51.73" lengthAdjust="spacingAndGlyphs">10,000</text><text x="47.41" y="162.15" style="font-size:18px;font-family:Asap" textLength="51.73" lengthAdjust="spacingAndGlyphs">12,000</text><text x="47.41" y="114.29" style="font-size:18px;font-family:Asap" textLength="51.73" lengthAdjust="spacingAndGlyphs">14,000</text><text x="47.41" y="66.44" style="font-size:18px;font-family:Asap" textLength="51.73" lengthAdjust="spacingAndGlyphs">16,000</text><text x="47.41" y="18.58" style="font-size:18px;font-family:Asap" textLength="51.73" lengthAdjust="spacingAndGlyphs">18,000</text><polyline points="109.1 397.01 116.19 397.01" style="stroke-width:0;stroke:#464646;stroke-linecap:butt;fill:none;stroke-linejoin:round;stroke-miterlimit:10"/><polyline points="109.1 349.16 116.19 349.16" style="stroke-width:1.07;stroke:#464646;stroke-linecap:butt;fill:none;stroke-linejoin:round;stroke-miterlimit:10"/><polyline points="109.1 301.3 116.19 301.3" style="stroke-width:1.07;stroke:#464646;stroke-linecap:butt;fill:none;stroke-linejoin:round;stroke-miterlimit:10"/><polyline points="109.1 253.45 116.19 253.45" style="stroke-width:1.07;stroke:#464646;stroke-linecap:butt;fill:none;stroke-linejoin:round;stroke-miterlimit:10"/><polyline points="109.1 205.59 116.19 205.59" style="stroke-width:1.07;stroke:#464646;stroke-linecap:butt;fill:none;stroke-linejoin:round;stroke-miterlimit:10"/><polyline points="109.1 157.74 116.19 157.74" style="stroke-width:1.07;stroke:#464646;stroke-linecap:butt;fill:none;stroke-linejoin:round;stroke-miterlimit:10"/><polyline points="109.1 109.88 116.19 109.88" style="stroke-width:1.07;stroke:#464646;stroke-linecap:butt;fill:none;stroke-linejoin:round;stroke-miterlimit:10"/><polyline points="109.1 62.03 116.19 62.03" style="stroke-width:1.07;stroke:#464646;stroke-linecap:butt;fill:none;stroke-linejoin:round;stroke-miterlimit:10"/><polyline points="109.1 14.17 116.19 14.17" style="stroke-width:1.07;stroke:#464646;stroke-linecap:butt;fill:none;stroke-linejoin:round;stroke-miterlimit:10"/><polyline points="116.19 404.1 116.19 397.01" style="stroke-width:0;stroke:#464646;stroke-linecap:butt;fill:none;stroke-linejoin:round;stroke-miterlimit:10"/><polyline points="203.32 404.1 203.32 397.01" style="stroke-width:1.07;stroke:#464646;stroke-linecap:butt;fill:none;stroke-linejoin:round;stroke-miterlimit:10"/><polyline points="290.45 404.1 290.45 397.01" style="stroke-width:1.07;stroke:#464646;stroke-linecap:butt;fill:none;stroke-linejoin:round;stroke-miterlimit:10"/><polyline points="377.59 404.1 377.59 397.01" style="stroke-width:1.07;stroke:#464646;stroke-linecap:butt;fill:none;stroke-linejoin:round;stroke-miterlimit:10"/><polyline points="464.72 404.1 464.72 397.01" style="stroke-width:1.07;stroke:#464646;stroke-linecap:butt;fill:none;stroke-linejoin:round;stroke-miterlimit:10"/><polyline points="551.85 404.1 551.85 397.01" style="stroke-width:1.07;stroke:#464646;stroke-linecap:butt;fill:none;stroke-linejoin:round;stroke-miterlimit:10"/><polyline points="638.99 404.1 638.99 397.01" style="stroke-width:1.07;stroke:#464646;stroke-linecap:butt;fill:none;stroke-linejoin:round;stroke-miterlimit:10"/><polyline points="726.12 404.1 726.12 397.01" style="stroke-width:1.07;stroke:#464646;stroke-linecap:butt;fill:none;stroke-linejoin:round;stroke-miterlimit:10"/><polyline points="795.83 404.1 795.83 397.01" style="stroke-width:1.07;stroke:#464646;stroke-linecap:butt;fill:none;stroke-linejoin:round;stroke-miterlimit:10"/><text transform="rotate(-90 286.595 165.995)" style="font-size:18px;font-family:Asap" textLength="38.53" lengthAdjust="spacingAndGlyphs">1950</text><text transform="rotate(-90 330.16 122.43)" style="font-size:18px;font-family:Asap" textLength="38.53" lengthAdjust="spacingAndGlyphs">1955</text><text transform="rotate(-90 373.725 78.865)" style="font-size:18px;font-family:Asap" textLength="38.53" lengthAdjust="spacingAndGlyphs">1960</text><text transform="rotate(-90 417.295 35.295)" style="font-size:18px;font-family:Asap" textLength="38.53" lengthAdjust="spacingAndGlyphs">1965</text><text transform="rotate(-90 460.86 -8.27)" style="font-size:18px;font-family:Asap" textLength="38.53" lengthAdjust="spacingAndGlyphs">1970</text><text transform="rotate(-90 504.425 -51.835)" style="font-size:18px;font-family:Asap" textLength="38.53" lengthAdjust="spacingAndGlyphs">1975</text><text transform="rotate(-90 547.995 -95.405)" style="font-size:18px;font-family:Asap" textLength="38.53" lengthAdjust="spacingAndGlyphs">1980</text><text transform="rotate(-90 591.56 -138.97)" style="font-size:18px;font-family:Asap" textLength="38.53" lengthAdjust="spacingAndGlyphs">1985</text><text transform="rotate(-90 626.415 -173.825)" style="font-size:18px;font-family:Asap" textLength="38.53" lengthAdjust="spacingAndGlyphs">1989</text><text x="435.92" y="481.59" style="font-size:20px;font-weight:600;font-family:Asap" textLength="40.18" lengthAdjust="spacingAndGlyphs">Year</text><text transform="rotate(-90 175.805 147.585)" style="font-size:20px;font-weight:600;font-family:Asap" textLength="38.74" lengthAdjust="spacingAndGlyphs">GDP</text><text transform="rotate(-90 154.035 125.815)" style="font-size:20px;font-weight:600;font-family:Asap" textLength="29.56" lengthAdjust="spacingAndGlyphs">per</text><text transform="rotate(-90 136.85 108.63)" style="font-size:20px;font-weight:600;font-family:Asap" textLength="55.1" lengthAdjust="spacingAndGlyphs">capita</text><text transform="rotate(-90 106.9 78.68)" style="font-size:20px;font-weight:600;font-family:Asap" textLength="48.82" lengthAdjust="spacingAndGlyphs">(1990</text><text transform="rotate(-90 80.09 51.87)" style="font-size:20px;font-weight:600;font-family:Asap" textLength="44.16" lengthAdjust="spacingAndGlyphs">USD)</text><rect x="178.11" y="77.61" width="148.01" height="102.84" style="stroke-width:1.07;stroke:none;fill:#fff;stroke-linecap:round;stroke-linejoin:round;stroke-miterlimit:10"/><line x1="186.42" y1="99.36" x2="209.1" y2="99.36" style="stroke-width:1.07;stroke:#4dd9ff;stroke-linecap:butt;fill:none;stroke-linejoin:round;stroke-miterlimit:10"/><circle cx="206.27" cy="99.36" r="5.7" style="stroke-width:1.2;stroke:#4dd9ff;fill:#4dd9ff;stroke-linecap:round;stroke-linejoin:round;stroke-miterlimit:10"/><line x1="186.42" y1="120.96" x2="209.1" y2="120.96" style="stroke-width:1.07;stroke:#f49323;stroke-linecap:butt;fill:none;stroke-linejoin:round;stroke-miterlimit:10"/><polygon points="200.56 126.67 211.97 126.67 211.97 115.26 200.56 115.26" style="stroke-width:1.2;stroke:none;fill:#f49323;stroke-linecap:round;stroke-linejoin:round;stroke-miterlimit:10"/><line x1="186.42" y1="142.56" x2="209.1" y2="142.56" style="stroke-width:1.07;stroke:#009147;stroke-linecap:butt;fill:none;stroke-linejoin:round;stroke-miterlimit:10"/><polygon points="200.56 148.27 211.97 148.27 211.97 136.86 200.56 136.86" style="stroke-width:1.2;stroke:none;fill:#009147;stroke-linecap:round;stroke-linejoin:round;stroke-miterlimit:10"/><line x1="186.42" y1="164.16" x2="209.1" y2="164.16" style="stroke-width:1.07;stroke:#b9519e;stroke-linecap:butt;fill:none;stroke-linejoin:round;stroke-miterlimit:10"/><circle cx="206.27" cy="164.16" r="5.7" style="stroke-width:1.2;stroke:#b9519e;fill:#b9519e;stroke-linecap:round;stroke-linejoin:round;stroke-miterlimit:10"/><text x="217.41" y="103.28" style="font-size:16px;font-family:Asap" textLength="35.27" lengthAdjust="spacingAndGlyphs">West</text><text x="256.52" y="103.28" style="font-size:16px;font-family:Asap" textLength="64.12" lengthAdjust="spacingAndGlyphs">Germany</text><text x="217.41" y="124.88" style="font-size:16px;font-family:Asap" textLength="41.95" lengthAdjust="spacingAndGlyphs">Japan</text><text x="217.41" y="146.48" style="font-size:16px;font-family:Asap" textLength="39.04" lengthAdjust="spacingAndGlyphs">Spain</text><text x="217.41" y="168.08" style="font-size:16px;font-family:Asap" textLength="29.53" lengthAdjust="spacingAndGlyphs">East</text><text x="250.79" y="168.08" style="font-size:16px;font-family:Asap" textLength="64.12" lengthAdjust="spacingAndGlyphs">Germany</text></g></svg>