<svg version="1.1" xmlns="http://www.w3.org/2000/svg" x="0" y="0" viewBox="0 0 311.81 177.67" style="enable-background:new 0 0 311.81 177.67" xml:space="preserve"><text transform="rotate(-90 49.732 38.534)"><tspan x="0" y="0" style="font-family:'Asap-Medium';font-size:8px">Price, </tspan><tspan x="21.3" y="0" style="font-family:'Asap-MediumItalic';font-size:8px">P</tspan><tspan x="25.86" y="0" style="font-family:'Asap-Medium';font-size:8px"> (€)</tspan></text><text transform="translate(132.254 173.487)"><tspan x="0" y="0" style="font-family:'Asap-Medium';font-size:8px">Quantity of loaves, </tspan><tspan x="67.84" y="0" style="font-family:'Asap-MediumItalic';font-size:8px">Q</tspan></text><line style="fill:none;stroke:#bcbec0;stroke-width:.25;stroke-linejoin:round" x1="32.22" y1="5.74" x2="304.6" y2="5.74"/><line style="fill:none;stroke:#bcbec0;stroke-width:.25;stroke-linejoin:round" x1="32.22" y1="33.85" x2="304.6" y2="33.85"/><line style="fill:none;stroke:#bcbec0;stroke-width:.25;stroke-linejoin:round" x1="32.22" y1="62.05" x2="304.6" y2="62.05"/><line style="fill:none;stroke:#bcbec0;stroke-width:.25;stroke-linejoin:round" x1="32.22" y1="90" x2="304.6" y2="90"/><line style="fill:none;stroke:#bcbec0;stroke-width:.25;stroke-linejoin:round" x1="32.22" y1="118.16" x2="304.6" y2="118.16"/><line style="fill:none;stroke:#6d6e71;stroke-width:.5;stroke-linecap:square" x1="30.08" y1="5.74" x2="32.22" y2="5.74"/><line style="fill:none;stroke:#6d6e71;stroke-width:.5;stroke-linecap:square" x1="30.08" y1="33.85" x2="32.22" y2="33.85"/><line style="fill:none;stroke:#6d6e71;stroke-width:.5;stroke-linecap:square" x1="30.08" y1="61.97" x2="32.22" y2="61.97"/><line style="fill:none;stroke:#6d6e71;stroke-width:.5;stroke-linecap:square" x1="30.08" y1="90.08" x2="32.22" y2="90.08"/><line style="fill:none;stroke:#6d6e71;stroke-width:.5;stroke-linecap:square" x1="30.08" y1="146.31" x2="32.22" y2="146.31"/><line style="fill:none;stroke:#6d6e71;stroke-width:.5;stroke-linecap:square" x1="304.46" y1="146.75" x2="304.46" y2="148.89"/><line style="fill:none;stroke:#6d6e71;stroke-width:.5;stroke-linecap:square" x1="168.34" y1="146.31" x2="168.34" y2="148.45"/><line style="fill:none;stroke:#6d6e71;stroke-width:.5;stroke-linecap:square" x1="100.28" y1="146.31" x2="100.28" y2="148.45"/><line style="fill:none;stroke:#6d6e71;stroke-width:.5;stroke-linecap:square" x1="32.22" y1="146.31" x2="32.22" y2="148.45"/><line style="fill:none;stroke:#6d6e71;stroke-width:.5;stroke-linecap:square" x1="236.4" y1="146.31" x2="236.4" y2="148.45"/><polyline style="fill:none;stroke:#3c54a4;stroke-width:.5;stroke-linecap:square" points="304.46 31.62 286.56 31.62 286.56 39.52 264.95 39.52 264.95 45.27 252.89 45.27 252.89 55.61 236.4 55.61 236.4 61.81 209.17 61.81 209.17 67.76 189.07 67.76 189.07 79 171.79 79 171.79 84.25 138.07 84.25 138.07 90.25 114.2 90.25 114.2 95.74 87.27 95.74 87.27 106.99 73.24 106.99 73.24 115.19 57.16 115.19 57.16 118.16 32.22 118.16"/><line style="fill:none;stroke:#6d6e71;stroke-width:.5;stroke-linecap:square" x1="30.08" y1="118.2" x2="32.22" y2="118.2"/><line style="fill:none;stroke:#6d6e71;stroke-width:.5;stroke-linecap:square" x1="32.22" y1="146.31" x2="32.22" y2="5.74"/><line style="fill:none;stroke:#6d6e71;stroke-width:.5;stroke-linecap:square" x1="32.37" y1="146.31" x2="304.46" y2="146.31"/><g><polyline style="fill:none;stroke:#939598;stroke-width:.5;stroke-linejoin:round;stroke-dasharray:1.4173" points="304.46 146.07 304.46 31.93 304.46 31.93"/><text transform="translate(20.472 148.885)" style="font-family:'Asap-Regular';font-size:7px">0</text><text transform="translate(20.472 92.864)" style="font-family:'Asap-Regular';font-size:7px">2</text><text transform="translate(20.472 64.855)" style="font-family:'Asap-Regular';font-size:7px">3</text><text transform="translate(20.472 36.844)" style="font-family:'Asap-Regular';font-size:7px">4</text><text transform="translate(20.472 8.834)" style="font-family:'Asap-Regular';font-size:7px">5</text><text transform="translate(30.661 158.286)" style="font-family:'Asap-Regular';font-size:7px">0</text><text transform="translate(90.871 158.285)" style="font-family:'Asap-Regular';font-size:7px">1,000</text><text transform="translate(158.702 158.285)" style="font-family:'Asap-Regular';font-size:7px">2,000</text><text transform="translate(227.532 158.285)" style="font-family:'Asap-Regular';font-size:7px">3,000</text><text transform="translate(294.363 158.285)" style="font-family:'Asap-Regular';font-size:7px">4,000</text><text transform="translate(20.472 120.874)" style="font-family:'Asap-Regular';font-size:7px">1</text></g></svg>