<svg version="1.1" xmlns="http://www.w3.org/2000/svg" xmlns:xlink="http://www.w3.org/1999/xlink" x="0" y="0" viewBox="0 0 311.81 209.43" style="enable-background:new 0 0 311.81 209.43" xml:space="preserve"><g style="display:none"><g style="display:inline"><defs><polygon id="prefix__a" points="29.59 1687.52 311.72 1687.52 311.72 1480.63 29.59 1480.63 29.59 1687.52"/></defs><clipPath id="prefix__b"><use xlink:href="#prefix__a" style="overflow:visible"/></clipPath><polyline points="29.91 6.58 38.88 606.16 47.22 931.81 56.2 1128.48 65.17 1256.19 73.51 1343.67 82.49 1406.24 91.46 1452.22 100.44 1487.34 108.78 1514.79 117.75 1536.5 126.73 1554.38 135.07 1568.43 144.04 1580.56 153.02 1590.78 162 1599.08 170.33 1606.1 179.31 1612.49 188.29 1617.6 196.62 1622.07 205.6 1626.54 214.58 1630.37 223.55 1633.56 231.89 1636.12 240.87 1638.67 249.84 1641.22 258.18 1643.14 267.16 1645.06 276.13 1646.97 285.11 1648.25 293.45 1649.53 302.42 1650.8 311.4 1652.08"/><g><defs><polygon id="prefix__c" points="29.59 1687.52 311.72 1687.52 311.72 1480.63 29.59 1480.63 29.59 1687.52"/></defs><clipPath id="prefix__d"><use xlink:href="#prefix__c" style="overflow:visible"/></clipPath><polyline points="29.91 -1509.3 38.88 -363.77 47.22 258.16 56.2 633.62 65.17 877.54 73.51 1044.2 82.49 1163.6 91.46 1251.72 100.44 1319.4 108.78 1371.76 117.75 1413.27 126.73 1446.47 135.07 1473.93 144.04 1496.92 153.02 1515.43 162 1532.04 170.33 1545.44 179.31 1557.58 188.29 1567.79 196.62 1576.73 205.6 1584.39 214.58 1591.42 223.55 1597.17 231.89 1602.91 240.87 1608.02 249.84 1612.49 258.18 1616.32 267.16 1619.51 276.13 1623.35 285.11 1625.9 293.45 1628.45 302.42 1631.01 311.4 1633.56"/></g></g><g style="display:inline"><defs><polygon id="prefix__e" points="8.8 1963.06 338.8 1963.06 338.8 1719.94 8.8 1719.94 8.8 1963.06"/></defs><clipPath id="prefix__f"><use xlink:href="#prefix__e" style="overflow:visible"/></clipPath><polyline points="8.92 -11.9 19.24 692.74 29.44 1075.54 39.76 1306.42 50.08 1456.18 60.4 1558.9 70.6 1632.34 80.92 1686.7 91.24 1728.1 101.56 1760.26 111.76 1785.7 122.08 1806.34 132.4 1823.26 142.6 1837.18 152.92 1848.82 163.24 1858.78 173.56 1867.3 183.76 1874.5 194.08 1880.86 204.4 1886.38 214.72 1891.18 224.92 1895.38 235.24 1899.22 245.56 1902.58 255.76 1905.58 266.08 1908.34 276.4 1910.74 286.72 1912.9 296.92 1914.94 307.24 1916.74 317.56 1918.42 327.88 1919.98 338.08 1921.42"/><g><defs><polygon id="prefix__g" points="8.8 1963.06 338.8 1963.06 338.8 1719.94 8.8 1719.94 8.8 1963.06"/></defs><clipPath id="prefix__h"><use xlink:href="#prefix__g" style="overflow:visible"/></clipPath><polyline points="8.92 -1792.22 19.24 -446.66 29.44 284.38 39.76 725.02 50.08 1011.1 60.4 1207.18 70.6 1347.46 80.92 1451.26 91.24 1530.22 101.56 1591.66 111.76 1640.38 122.08 1679.74 132.4 1711.9 142.6 1738.66 152.92 1760.98 163.24 1779.82 173.56 1796.02 183.76 1809.94 194.08 1821.94 204.4 1832.5 214.72 1841.74 224.92 1849.9 235.24 1857.1 245.56 1863.46 255.76 1869.22 266.08 1874.38 276.4 1879.06 286.72 1883.26 296.92 1887.1 307.24 1890.58 317.56 1893.82 327.88 1896.7 338.08 1899.34"/></g></g><g style="display:inline"><defs><polygon id="prefix__i" points="8.8 1963.06 338.8 1963.06 338.8 1719.94 8.8 1719.94 8.8 1963.06"/></defs><clipPath id="prefix__j"><use xlink:href="#prefix__i" style="overflow:visible"/></clipPath><polyline points="8.92 -11.9 19.24 692.74 29.44 1075.54 39.76 1306.42 50.08 1456.18 60.4 1558.9 70.6 1632.34 80.92 1686.7 91.24 1728.1 101.56 1760.26 111.76 1785.7 122.08 1806.34 132.4 1823.26 142.6 1837.18 152.92 1848.82 163.24 1858.78 173.56 1867.3 183.76 1874.5 194.08 1880.86 204.4 1886.38 214.72 1891.18 224.92 1895.38 235.24 1899.22 245.56 1902.58 255.76 1905.58 266.08 1908.34 276.4 1910.74 286.72 1912.9 296.92 1914.94 307.24 1916.74 317.56 1918.42 327.88 1919.98 338.08 1921.42"/><g><defs><polygon id="prefix__k" points="8.8 1963.06 338.8 1963.06 338.8 1719.94 8.8 1719.94 8.8 1963.06"/></defs><clipPath id="prefix__l"><use xlink:href="#prefix__k" style="overflow:visible"/></clipPath><polyline points="8.92 -1792.22 19.24 -446.66 29.44 284.38 39.76 725.02 50.08 1011.1 60.4 1207.18 70.6 1347.46 80.92 1451.26 91.24 1530.22 101.56 1591.66 111.76 1640.38 122.08 1679.74 132.4 1711.9 142.6 1738.66 152.92 1760.98 163.24 1779.82 173.56 1796.02 183.76 1809.94 194.08 1821.94 204.4 1832.5 214.72 1841.74 224.92 1849.9 235.24 1857.1 245.56 1863.46 255.76 1869.22 266.08 1874.38 276.4 1879.06 286.72 1883.26 296.92 1887.1 307.24 1890.58 317.56 1893.82 327.88 1896.7 338.08 1899.34"/></g></g><g style="display:inline"><defs><polygon id="prefix__m" points="8.8 1963.06 338.8 1963.06 338.8 1719.94 8.8 1719.94 8.8 1963.06"/></defs><clipPath id="prefix__n"><use xlink:href="#prefix__m" style="overflow:visible"/></clipPath><polyline points="8.92 -11.9 19.24 692.74 29.44 1075.54 39.76 1306.42 50.08 1456.18 60.4 1558.9 70.6 1632.34 80.92 1686.7 91.24 1728.1 101.56 1760.26 111.76 1785.7 122.08 1806.34 132.4 1823.26 142.6 1837.18 152.92 1848.82 163.24 1858.78 173.56 1867.3 183.76 1874.5 194.08 1880.86 204.4 1886.38 214.72 1891.18 224.92 1895.38 235.24 1899.22 245.56 1902.58 255.76 1905.58 266.08 1908.34 276.4 1910.74 286.72 1912.9 296.92 1914.94 307.24 1916.74 317.56 1918.42 327.88 1919.98 338.08 1921.42"/><g><defs><polygon id="prefix__o" points="8.8 1963.06 338.8 1963.06 338.8 1719.94 8.8 1719.94 8.8 1963.06"/></defs><clipPath id="prefix__p"><use xlink:href="#prefix__o" style="overflow:visible"/></clipPath><polyline points="8.92 -1792.22 19.24 -446.66 29.44 284.38 39.76 725.02 50.08 1011.1 60.4 1207.18 70.6 1347.46 80.92 1451.26 91.24 1530.22 101.56 1591.66 111.76 1640.38 122.08 1679.74 132.4 1711.9 142.6 1738.66 152.92 1760.98 163.24 1779.82 173.56 1796.02 183.76 1809.94 194.08 1821.94 204.4 1832.5 214.72 1841.74 224.92 1849.9 235.24 1857.1 245.56 1863.46 255.76 1869.22 266.08 1874.38 276.4 1879.06 286.72 1883.26 296.92 1887.1 307.24 1890.58 317.56 1893.82 327.88 1896.7 338.08 1899.34"/></g></g><g style="display:inline;opacity:.46"><defs><polygon id="prefix__q" points="9.02 203.7 305.79 203.7 305.79 -20.3 9.02 -20.3 9.02 203.7"/></defs><clipPath id="prefix__r"><use xlink:href="#prefix__q" style="overflow:visible"/></clipPath><line x1="41.16" y1="189.88" x2="41.16" y2="7.6"/><defs><polygon id="prefix__s" points="9.02 203.7 305.79 203.7 305.79 -20.3 9.02 -20.3 9.02 203.7"/></defs><clipPath id="prefix__t"><use xlink:href="#prefix__s" style="overflow:visible"/></clipPath><path d="M39.08 189.88h2.08m-2.08-27.99h2.08m-2.08-28.07h2.08m-2.08-28.08h2.08m-2.08-28.08h2.08m-2.08-27.99h2.08m-2.08-28.08h2.08"/><defs><polygon id="prefix__u" points="9.02 203.7 305.79 203.7 305.79 -20.3 9.02 -20.3 9.02 203.7"/></defs><clipPath id="prefix__v"><use xlink:href="#prefix__u" style="overflow:visible"/></clipPath><line x1="41.16" y1="189.88" x2="288.9" y2="189.88"/><defs><polygon id="prefix__w" points="9.02 203.7 305.79 203.7 305.79 -20.3 9.02 -20.3 9.02 203.7"/></defs><clipPath id="prefix__x"><use xlink:href="#prefix__w" style="overflow:visible"/></clipPath><path d="M41.16 189.88v2.17m7.76-2.17v2.17m7.77-2.17v2.17m7.76-2.17v2.17m7.68-2.17v2.17m7.76-2.17v2.17m7.77-2.17v2.17m7.67-2.17v2.17m7.76-2.17v2.17m7.77-2.17v2.17m7.76-2.17v2.17m7.68-2.17v2.17m7.76-2.17v2.17m7.77-2.17v2.17m7.76-2.17v2.17m7.68-2.17v2.17m7.76-2.17v2.17m7.77-2.17v2.17m7.76-2.17v2.17m7.67-2.17v2.17m7.77-2.17v2.17m7.76-2.17v2.17m7.68-2.17v2.17m7.76-2.17v2.17m7.77-2.17v2.17m7.76-2.17v2.17m7.68-2.17v2.17m7.76-2.17v2.17m7.77-2.17v2.17m7.76-2.17v2.17m7.67-2.17v2.17m7.77-2.17v2.17m7.76-2.17v2.17"/><defs><polygon id="prefix__y" points="41.16 190.42 289.45 190.42 289.45 7.51 41.16 7.51 41.16 190.42"/></defs><clipPath id="prefix__z"><use xlink:href="#prefix__y" style="overflow:visible"/></clipPath><polyline points="41.16 -383.8 48.92 -181.82 56.69 -72.04 64.45 -5.95 72.13 37.03 79.89 66.46 87.66 87.5 95.33 103.12 103.09 114.95 110.86 124.16 118.62 131.47 126.3 137.43 134.06 142.21 141.83 146.18 149.59 149.62 157.27 152.41 165.03 154.85 172.8 156.93 180.56 158.73 188.23 160.36 196 161.71 203.76 162.89 211.44 163.97 219.2 164.96 226.97 165.87 234.73 166.59 242.41 167.31 250.17 167.94 257.94 168.49 265.7 169.03 273.37 169.48 281.14 169.93 288.9 170.38"/><defs><polygon id="prefix__A" points="41.16 190.42 289.45 190.42 289.45 7.51 41.16 7.51 41.16 190.42"/></defs><clipPath id="prefix__B"><use xlink:href="#prefix__A" style="overflow:visible"/></clipPath><polyline points="41.16 -1295.41 48.92 -765.25 56.69 -477.24 64.45 -303.62 72.13 -190.94 79.89 -113.66 87.66 -58.31 95.33 -17.41 103.09 13.64 110.86 37.84 118.62 57.07 126.3 72.51 134.06 85.24 141.83 95.71 149.59 104.56 157.27 111.97 165.03 118.38 172.8 123.88 180.56 128.58 188.23 132.73 196 136.34 203.76 139.59 211.44 142.39 219.2 144.92 226.97 147.27 234.73 149.25 242.41 151.06 250.17 152.78 257.94 154.31 265.7 155.66 273.37 156.93 281.14 158.01 288.9 159.1"/><defs><polygon id="prefix__C" points="41.16 190.42 289.45 190.42 289.45 7.51 41.16 7.51 41.16 190.42"/></defs><clipPath id="prefix__D"><use xlink:href="#prefix__C" style="overflow:visible"/></clipPath><polyline points="41.16 -2634.9 48.92 -1622.52 56.69 -1072.59 64.45 -740.97 72.13 -525.72 79.89 -378.2 87.66 -272.65 95.33 -194.56 103.09 -135.15 110.86 -88.92 118.62 -52.26 126.3 -22.74 134.06 1.55 141.83 21.59 149.59 38.38 157.27 52.65 165.03 64.84 172.8 75.22 180.56 84.34 188.23 92.19 196 99.15 203.76 105.29 211.44 110.7 219.2 115.58 226.97 119.91 234.73 123.79 242.41 127.32 250.17 130.48 257.94 133.36 265.7 135.98 273.37 138.33 281.14 140.59 288.9 142.57"/><defs><polygon id="prefix__E" points="9.02 203.7 305.79 203.7 305.79 -20.3 9.02 -20.3 9.02 203.7"/></defs><clipPath id="prefix__F"><use xlink:href="#prefix__E" style="overflow:visible"/></clipPath><g><defs><rect id="prefix__G" x="9.02" y="-20.3" width="296.77" height="224"/></defs><clipPath id="prefix__H"><use xlink:href="#prefix__G" style="overflow:visible"/></clipPath><g><text transform="translate(31.481 191.813)" style="fill:#595a5a;font-family:'Calibri';font-size:6.7715px">0</text></g></g><defs><polygon id="prefix__I" points="9.02 203.7 305.79 203.7 305.79 -20.3 9.02 -20.3 9.02 203.7"/></defs><clipPath id="prefix__J"><use xlink:href="#prefix__I" style="overflow:visible"/></clipPath><g><defs><rect id="prefix__K" x="9.02" y="-20.3" width="296.77" height="224"/></defs><clipPath id="prefix__L"><use xlink:href="#prefix__K" style="overflow:visible"/></clipPath><g><text transform="translate(24.615 163.758)" style="fill:#595a5a;font-family:'Calibri';font-size:6.7715px">100</text></g></g><defs><polygon id="prefix__M" points="9.02 203.7 305.79 203.7 305.79 -20.3 9.02 -20.3 9.02 203.7"/></defs><clipPath id="prefix__N"><use xlink:href="#prefix__M" style="overflow:visible"/></clipPath><g><defs><rect id="prefix__O" x="9.02" y="-20.3" width="296.77" height="224"/></defs><clipPath id="prefix__P"><use xlink:href="#prefix__O" style="overflow:visible"/></clipPath><g><text transform="translate(24.615 135.702)" style="fill:#595a5a;font-family:'Calibri';font-size:6.7715px">200</text></g></g><defs><polygon id="prefix__Q" points="9.02 203.7 305.79 203.7 305.79 -20.3 9.02 -20.3 9.02 203.7"/></defs><clipPath id="prefix__R"><use xlink:href="#prefix__Q" style="overflow:visible"/></clipPath><g><defs><rect id="prefix__S" x="9.02" y="-20.3" width="296.77" height="224"/></defs><clipPath id="prefix__T"><use xlink:href="#prefix__S" style="overflow:visible"/></clipPath><g><text transform="translate(24.615 107.652)" style="fill:#595a5a;font-family:'Calibri';font-size:6.7715px">300</text></g></g><g><defs><polygon id="prefix__U" points="9.02 203.7 305.79 203.7 305.79 -20.3 9.02 -20.3 9.02 203.7"/></defs><clipPath id="prefix__V"><use xlink:href="#prefix__U" style="overflow:visible"/></clipPath><g><defs><rect id="prefix__W" x="9.02" y="-20.3" width="296.77" height="224"/></defs><clipPath id="prefix__X"><use xlink:href="#prefix__W" style="overflow:visible"/></clipPath><g><text transform="translate(24.615 79.602)" style="fill:#595a5a;font-family:'Calibri';font-size:6.7715px">400</text></g></g></g><g><defs><polygon id="prefix__Y" points="9.02 203.7 305.79 203.7 305.79 -20.3 9.02 -20.3 9.02 203.7"/></defs><clipPath id="prefix__Z"><use xlink:href="#prefix__Y" style="overflow:visible"/></clipPath><g><defs><rect id="prefix__aa" x="9.02" y="-20.3" width="296.77" height="224"/></defs><clipPath id="prefix__ab"><use xlink:href="#prefix__aa" style="overflow:visible"/></clipPath><g><text transform="translate(24.615 51.546)" style="fill:#595a5a;font-family:'Calibri';font-size:6.7715px">500</text></g></g></g><g><defs><polygon id="prefix__ac" points="9.02 203.7 305.79 203.7 305.79 -20.3 9.02 -20.3 9.02 203.7"/></defs><clipPath id="prefix__ad"><use xlink:href="#prefix__ac" style="overflow:visible"/></clipPath><g><defs><rect id="prefix__ae" x="9.02" y="-20.3" width="296.77" height="224"/></defs><clipPath id="prefix__af"><use xlink:href="#prefix__ae" style="overflow:visible"/></clipPath><g><text transform="translate(24.615 23.49)" style="fill:#595a5a;font-family:'Calibri';font-size:6.7715px">600</text></g></g></g><g><defs><polygon id="prefix__ag" points="9.02 203.7 305.79 203.7 305.79 -20.3 9.02 -20.3 9.02 203.7"/></defs><clipPath id="prefix__ah"><use xlink:href="#prefix__ag" style="overflow:visible"/></clipPath><g><defs><rect id="prefix__ai" x="9.02" y="-20.3" width="296.77" height="224"/></defs><clipPath id="prefix__aj"><use xlink:href="#prefix__ai" style="overflow:visible"/></clipPath><g><text transform="translate(39.474 200.613)" style="fill:#595a5a;font-family:'Calibri';font-size:6.7715px">8</text></g></g></g><g><defs><polygon id="prefix__ak" points="9.02 203.7 305.79 203.7 305.79 -20.3 9.02 -20.3 9.02 203.7"/></defs><clipPath id="prefix__al"><use xlink:href="#prefix__ak" style="overflow:visible"/></clipPath><g><defs><rect id="prefix__am" x="9.02" y="-20.3" width="296.77" height="224"/></defs><clipPath id="prefix__an"><use xlink:href="#prefix__am" style="overflow:visible"/></clipPath><g><text transform="translate(54.956 200.613)" style="fill:#595a5a;font-family:'Calibri';font-size:6.7715px">9</text></g></g></g><g><defs><polygon id="prefix__ao" points="9.02 203.7 305.79 203.7 305.79 -20.3 9.02 -20.3 9.02 203.7"/></defs><clipPath id="prefix__ap"><use xlink:href="#prefix__ao" style="overflow:visible"/></clipPath><g><defs><rect id="prefix__aq" x="9.02" y="-20.3" width="296.77" height="224"/></defs><clipPath id="prefix__ar"><use xlink:href="#prefix__aq" style="overflow:visible"/></clipPath><g><text transform="translate(68.723 200.613)" style="fill:#595a5a;font-family:'Calibri';font-size:6.7715px">10</text></g></g></g><g><defs><polygon id="prefix__as" points="9.02 203.7 305.79 203.7 305.79 -20.3 9.02 -20.3 9.02 203.7"/></defs><clipPath id="prefix__at"><use xlink:href="#prefix__as" style="overflow:visible"/></clipPath><g><defs><rect id="prefix__au" x="9.02" y="-20.3" width="296.77" height="224"/></defs><clipPath id="prefix__av"><use xlink:href="#prefix__au" style="overflow:visible"/></clipPath><g><text transform="translate(84.2 200.613)" style="fill:#595a5a;font-family:'Calibri';font-size:6.7715px">11</text></g></g></g><g><defs><polygon id="prefix__aw" points="9.02 203.7 305.79 203.7 305.79 -20.3 9.02 -20.3 9.02 203.7"/></defs><clipPath id="prefix__ax"><use xlink:href="#prefix__aw" style="overflow:visible"/></clipPath><g><defs><rect id="prefix__ay" x="9.02" y="-20.3" width="296.77" height="224"/></defs><clipPath id="prefix__az"><use xlink:href="#prefix__ay" style="overflow:visible"/></clipPath><g><text transform="translate(99.682 200.613)" style="fill:#595a5a;font-family:'Calibri';font-size:6.7715px">12</text></g></g></g><g><defs><polygon id="prefix__aA" points="9.02 203.7 305.79 203.7 305.79 -20.3 9.02 -20.3 9.02 203.7"/></defs><clipPath id="prefix__aB"><use xlink:href="#prefix__aA" style="overflow:visible"/></clipPath><g><defs><rect id="prefix__aC" x="9.02" y="-20.3" width="296.77" height="224"/></defs><clipPath id="prefix__aD"><use xlink:href="#prefix__aC" style="overflow:visible"/></clipPath><g><text transform="translate(115.159 200.613)" style="fill:#595a5a;font-family:'Calibri';font-size:6.7715px">13</text></g></g></g><g><defs><polygon id="prefix__aE" points="9.02 203.7 305.79 203.7 305.79 -20.3 9.02 -20.3 9.02 203.7"/></defs><clipPath id="prefix__aF"><use xlink:href="#prefix__aE" style="overflow:visible"/></clipPath><g><defs><rect id="prefix__aG" x="9.02" y="-20.3" width="296.77" height="224"/></defs><clipPath id="prefix__aH"><use xlink:href="#prefix__aG" style="overflow:visible"/></clipPath><g><text transform="translate(130.643 200.613)" style="fill:#595a5a;font-family:'Calibri';font-size:6.7715px">14</text></g></g></g><g><defs><polygon id="prefix__aI" points="9.02 203.7 305.79 203.7 305.79 -20.3 9.02 -20.3 9.02 203.7"/></defs><clipPath id="prefix__aJ"><use xlink:href="#prefix__aI" style="overflow:visible"/></clipPath><g><defs><rect id="prefix__aK" x="9.02" y="-20.3" width="296.77" height="224"/></defs><clipPath id="prefix__aL"><use xlink:href="#prefix__aK" style="overflow:visible"/></clipPath><g><text transform="translate(146.125 200.613)" style="fill:#595a5a;font-family:'Calibri';font-size:6.7715px">15</text></g></g></g><g><defs><polygon id="prefix__aM" points="9.02 203.7 305.79 203.7 305.79 -20.3 9.02 -20.3 9.02 203.7"/></defs><clipPath id="prefix__aN"><use xlink:href="#prefix__aM" style="overflow:visible"/></clipPath><g><defs><rect id="prefix__aO" x="9.02" y="-20.3" width="296.77" height="224"/></defs><clipPath id="prefix__aP"><use xlink:href="#prefix__aO" style="overflow:visible"/></clipPath><g><text transform="translate(161.608 200.613)" style="fill:#595a5a;font-family:'Calibri';font-size:6.7715px">16</text></g></g></g><g><defs><polygon id="prefix__aQ" points="9.02 203.7 305.79 203.7 305.79 -20.3 9.02 -20.3 9.02 203.7"/></defs><clipPath id="prefix__aR"><use xlink:href="#prefix__aQ" style="overflow:visible"/></clipPath><g><defs><rect id="prefix__aS" x="9.02" y="-20.3" width="296.77" height="224"/></defs><clipPath id="prefix__aT"><use xlink:href="#prefix__aS" style="overflow:visible"/></clipPath><g><text transform="translate(177.085 200.613)" style="fill:#595a5a;font-family:'Calibri';font-size:6.7715px">17</text></g></g></g><g><defs><polygon id="prefix__aU" points="9.02 203.7 305.79 203.7 305.79 -20.3 9.02 -20.3 9.02 203.7"/></defs><clipPath id="prefix__aV"><use xlink:href="#prefix__aU" style="overflow:visible"/></clipPath><g><defs><rect id="prefix__aW" x="9.02" y="-20.3" width="296.77" height="224"/></defs><clipPath id="prefix__aX"><use xlink:href="#prefix__aW" style="overflow:visible"/></clipPath><g><text transform="translate(192.568 200.613)" style="fill:#595a5a;font-family:'Calibri';font-size:6.7715px">18</text></g></g></g><g><defs><polygon id="prefix__aY" points="9.02 203.7 305.79 203.7 305.79 -20.3 9.02 -20.3 9.02 203.7"/></defs><clipPath id="prefix__aZ"><use xlink:href="#prefix__aY" style="overflow:visible"/></clipPath><g><defs><rect id="prefix__ba" x="9.02" y="-20.3" width="296.77" height="224"/></defs><clipPath id="prefix__bb"><use xlink:href="#prefix__ba" style="overflow:visible"/></clipPath><g><text transform="translate(208.044 200.613)" style="fill:#595a5a;font-family:'Calibri';font-size:6.7715px">19</text></g></g></g><g><defs><polygon id="prefix__bc" points="9.02 203.7 305.79 203.7 305.79 -20.3 9.02 -20.3 9.02 203.7"/></defs><clipPath id="prefix__bd"><use xlink:href="#prefix__bc" style="overflow:visible"/></clipPath><g><defs><rect id="prefix__be" x="9.02" y="-20.3" width="296.77" height="224"/></defs><clipPath id="prefix__bf"><use xlink:href="#prefix__be" style="overflow:visible"/></clipPath><g><text transform="translate(223.527 200.613)" style="fill:#595a5a;font-family:'Calibri';font-size:6.7715px">20</text></g></g></g><g><defs><polygon id="prefix__bg" points="9.02 203.7 305.79 203.7 305.79 -20.3 9.02 -20.3 9.02 203.7"/></defs><clipPath id="prefix__bh"><use xlink:href="#prefix__bg" style="overflow:visible"/></clipPath><g><defs><rect id="prefix__bi" x="9.02" y="-20.3" width="296.77" height="224"/></defs><clipPath id="prefix__bj"><use xlink:href="#prefix__bi" style="overflow:visible"/></clipPath><g><text transform="translate(239.009 200.613)" style="fill:#595a5a;font-family:'Calibri';font-size:6.7715px">21</text></g></g></g><g><defs><polygon id="prefix__bk" points="9.02 203.7 305.79 203.7 305.79 -20.3 9.02 -20.3 9.02 203.7"/></defs><clipPath id="prefix__bl"><use xlink:href="#prefix__bk" style="overflow:visible"/></clipPath><g><defs><rect id="prefix__bm" x="9.02" y="-20.3" width="296.77" height="224"/></defs><clipPath id="prefix__bn"><use xlink:href="#prefix__bm" style="overflow:visible"/></clipPath><g><text transform="translate(254.491 200.613)" style="fill:#595a5a;font-family:'Calibri';font-size:6.7715px">22</text></g></g></g><g><defs><polygon id="prefix__bo" points="9.02 203.7 305.79 203.7 305.79 -20.3 9.02 -20.3 9.02 203.7"/></defs><clipPath id="prefix__bp"><use xlink:href="#prefix__bo" style="overflow:visible"/></clipPath><g><defs><rect id="prefix__bq" x="9.02" y="-20.3" width="296.77" height="224"/></defs><clipPath id="prefix__br"><use xlink:href="#prefix__bq" style="overflow:visible"/></clipPath><g><text transform="translate(269.969 200.613)" style="fill:#595a5a;font-family:'Calibri';font-size:6.7715px">23</text></g></g></g><g><defs><polygon id="prefix__bs" points="9.02 203.7 305.79 203.7 305.79 -20.3 9.02 -20.3 9.02 203.7"/></defs><clipPath id="prefix__bt"><use xlink:href="#prefix__bs" style="overflow:visible"/></clipPath><g><defs><rect id="prefix__bu" x="9.02" y="-20.3" width="296.77" height="224"/></defs><clipPath id="prefix__bv"><use xlink:href="#prefix__bu" style="overflow:visible"/></clipPath><g><text transform="translate(285.446 200.613)" style="fill:#595a5a;font-family:'Calibri';font-size:6.7715px">24</text></g></g></g><g><defs><polygon id="prefix__bw" points="9.02 203.7 305.79 203.7 305.79 -20.3 9.02 -20.3 9.02 203.7"/></defs><clipPath id="prefix__bx"><use xlink:href="#prefix__bw" style="overflow:visible"/></clipPath><g><defs><rect id="prefix__by" x="9.02" y="-20.3" width="296.77" height="224"/></defs><clipPath id="prefix__bz"><use xlink:href="#prefix__by" style="overflow:visible"/></clipPath><text transform="rotate(-90 79.635 59.329)"><tspan x="0" y="0" style="fill:#595a5a;font-family:'Calibri';font-size:7.4938px">C</tspan><tspan x="3.97" y="0" style="fill:#595a5a;font-family:'Calibri';font-size:7.4938px">o</tspan><tspan x="7.94" y="0" style="fill:#595a5a;font-family:'Calibri';font-size:7.4938px">n</tspan><tspan x="11.91" y="0" style="fill:#595a5a;font-family:'Calibri';font-size:7.4938px">s</tspan><tspan x="14.8" y="0" style="fill:#595a5a;font-family:'Calibri';font-size:7.4938px">u</tspan><tspan x="18.77" y="0" style="fill:#595a5a;font-family:'Calibri';font-size:7.4938px">m</tspan><tspan x="24.73" y="0" style="fill:#595a5a;font-family:'Calibri';font-size:7.4938px">p</tspan><tspan x="28.7" y="0" style="fill:#595a5a;font-family:'Calibri';font-size:7.4938px">ti</tspan><tspan x="32.88" y="0" style="fill:#595a5a;font-family:'Calibri';font-size:7.4938px">o</tspan><tspan x="36.84" y="0" style="fill:#595a5a;font-family:'Calibri';font-size:7.4938px">n</tspan><tspan x="40.81" y="0" style="fill:#595a5a;font-family:'Calibri';font-size:7.4938px"> </tspan><tspan x="42.61" y="0" style="fill:#595a5a;font-family:'Calibri';font-size:7.4938px">s</tspan><tspan x="45.5" y="0" style="fill:#595a5a;font-family:'Calibri';font-size:7.4938px">p</tspan><tspan x="49.47" y="0" style="fill:#595a5a;font-family:'Calibri';font-size:7.4938px">e</tspan><tspan x="53.17" y="0" style="fill:#595a5a;font-family:'Calibri';font-size:7.4938px">nd</tspan><tspan x="61.11" y="0" style="fill:#595a5a;font-family:'Calibri';font-size:7.4938px">i</tspan><tspan x="62.83" y="0" style="fill:#595a5a;font-family:'Calibri';font-size:7.4938px">n</tspan><tspan x="66.79" y="0" style="fill:#595a5a;font-family:'Calibri';font-size:7.4938px">g</tspan><tspan x="70.32" y="0" style="fill:#595a5a;font-family:'Calibri';font-size:7.4938px"> </tspan><tspan x="72.03" y="0" style="fill:#595a5a;font-family:'Calibri';font-size:7.4938px">(</tspan><tspan x="74.29" y="0" style="fill:#595a5a;font-family:'Calibri';font-size:7.4938px">€)</tspan></text></g></g><g><defs><polygon id="prefix__bA" points="9.02 203.7 305.79 203.7 305.79 -20.3 9.02 -20.3 9.02 203.7"/></defs><clipPath id="prefix__bB"><use xlink:href="#prefix__bA" style="overflow:visible"/></clipPath><g><defs><rect id="prefix__bC" x="9.02" y="-20.3" width="296.77" height="224"/></defs><clipPath id="prefix__bD"><use xlink:href="#prefix__bC" style="overflow:visible"/></clipPath><text transform="translate(124.675 200.577)"><tspan x="0" y="0" style="fill:#595a5a;font-family:'Calibri';font-size:7.4938px">H</tspan><tspan x="4.69" y="0" style="fill:#595a5a;font-family:'Calibri';font-size:7.4938px">o</tspan><tspan x="8.66" y="0" style="fill:#595a5a;font-family:'Calibri';font-size:7.4938px">u</tspan><tspan x="12.62" y="0" style="fill:#595a5a;font-family:'Calibri';font-size:7.4938px">r</tspan><tspan x="15.24" y="0" style="fill:#595a5a;font-family:'Calibri';font-size:7.4938px">s</tspan><tspan x="18.13" y="0" style="fill:#595a5a;font-family:'Calibri';font-size:7.4938px"> o</tspan><tspan x="23.81" y="0" style="fill:#595a5a;font-family:'Calibri';font-size:7.4938px">f</tspan><tspan x="26.07" y="0" style="fill:#595a5a;font-family:'Calibri';font-size:7.4938px"> </tspan><tspan x="27.78" y="0" style="fill:#595a5a;font-family:'Calibri';font-size:7.4938px">f</tspan><tspan x="30.05" y="0" style="fill:#595a5a;font-family:'Calibri';font-size:7.4938px">r</tspan><tspan x="32.66" y="0" style="fill:#595a5a;font-family:'Calibri';font-size:7.4938px">ee</tspan><tspan x="40.07" y="0" style="fill:#595a5a;font-family:'Calibri';font-size:7.4938px"> </tspan><tspan x="41.96" y="0" style="fill:#595a5a;font-family:'Calibri';font-size:7.4938px">ti</tspan><tspan x="46.13" y="0" style="fill:#595a5a;font-family:'Calibri';font-size:7.4938px">me</tspan><tspan x="55.8" y="0" style="fill:#595a5a;font-family:'Calibri';font-size:7.4938px"> </tspan><tspan x="57.51" y="0" style="fill:#595a5a;font-family:'Calibri';font-size:7.4938px">p</tspan><tspan x="61.48" y="0" style="fill:#595a5a;font-family:'Calibri';font-size:7.4938px">e</tspan><tspan x="65.19" y="0" style="fill:#595a5a;font-family:'Calibri';font-size:7.4938px">r</tspan><tspan x="67.8" y="0" style="fill:#595a5a;font-family:'Calibri';font-size:7.4938px"> </tspan><tspan x="69.6" y="0" style="fill:#595a5a;font-family:'Calibri';font-size:7.4938px">d</tspan><tspan x="73.57" y="0" style="fill:#595a5a;font-family:'Calibri';font-size:7.4938px">a</tspan><tspan x="77.17" y="0" style="fill:#595a5a;font-family:'Calibri';font-size:7.4938px">y</tspan></text></g></g></g></g><line style="fill:none;stroke:#939598;stroke-width:.5;stroke-linecap:square;stroke-linejoin:round;stroke-dasharray:1.4173" x1="231.29" y1="182.67" x2="231.29" y2="112.67"/><line style="fill:none;stroke:#939598;stroke-width:.5;stroke-linecap:square;stroke-linejoin:round;stroke-dasharray:1.4173" x1="169.36" y1="181.33" x2="169.36" y2="54.83"/><line style="fill:none;stroke:#939598;stroke-width:.5;stroke-linecap:square;stroke-linejoin:round;stroke-dasharray:1.4173" x1="153.88" y1="181.82" x2="153.88" y2="29.83"/><line style="fill:none;stroke:#6d6e71;stroke-width:.5;stroke-linecap:square" x1="45.5" y1="181.89" x2="293" y2="181.89"/><text transform="translate(35.473 184.02)" style="font-family:'Asap-Regular';font-size:7px">0</text><text transform="translate(28.658 155.904)" style="font-family:'Asap-Regular';font-size:7px">100</text><text transform="translate(28.581 127.788)" style="font-family:'Asap-Regular';font-size:7px">200</text><text transform="translate(28.623 99.672)" style="font-family:'Asap-Regular';font-size:7px">300</text><text transform="translate(28.812 71.556)" style="font-family:'Asap-Regular';font-size:7px">400</text><text transform="translate(28.609 43.44)" style="font-family:'Asap-Regular';font-size:7px">500</text><text transform="translate(28.581 15.324)" style="font-family:'Asap-Regular';font-size:7px">600</text><text transform="matrix(0 -.9726 1 0 17.469 139.763)" style="font-family:'Asap-Medium';font-size:8px">Consumption spending (€)</text><text transform="translate(56.212 192.913)" style="font-family:'Asap-Regular';font-size:7px">9</text><text transform="translate(68.203 192.914)" style="font-family:'Asap-Regular';font-size:7px">10</text><text transform="translate(83.938 192.913)" style="font-family:'Asap-Regular';font-size:7px">11</text><text transform="translate(99.673 192.914)" style="font-family:'Asap-Regular';font-size:7px">12</text><text transform="translate(115.408 192.913)" style="font-family:'Asap-Regular';font-size:7px">13</text><text transform="translate(131.143 192.914)" style="font-family:'Asap-Regular';font-size:7px">14</text><text transform="translate(146.878 192.913)" style="font-family:'Asap-Regular';font-size:7px">15</text><text transform="translate(162.613 192.913)" style="font-family:'Asap-Regular';font-size:7px">16</text><text transform="translate(178.348 192.914)" style="font-family:'Asap-Regular';font-size:7px">17</text><text transform="translate(194.083 192.914)" style="font-family:'Asap-Regular';font-size:7px">18</text><text transform="translate(209.818 192.914)" style="font-family:'Asap-Regular';font-size:7px">19</text><text transform="translate(225.553 192.914)" style="font-family:'Asap-Regular';font-size:7px">20</text><text transform="translate(241.288 192.913)" style="font-family:'Asap-Regular';font-size:7px">21</text><text transform="translate(257.024 192.913)" style="font-family:'Asap-Regular';font-size:7px">22</text><text transform="translate(272.758 192.913)" style="font-family:'Asap-Regular';font-size:7px">23</text><text transform="translate(288.493 192.913)" style="font-family:'Asap-Regular';font-size:7px">24</text><circle style="fill:#000101" cx="181.96" cy="71.48" r="1.13"/><text transform="translate(236.422 109.485)" style="font-family:'Asap-Regular';font-size:7px">D</text><text transform="translate(174.422 54.485)" style="font-family:'Asap-Regular';font-size:7px">E</text><text transform="translate(159.422 29.485)" style="font-family:'Asap-Regular';font-size:7px">A</text><text transform="translate(122.45 206.763)" style="font-family:'Asap-Medium';font-size:8px">Hours of free time per day</text><text transform="translate(115.704 26.51)" style="font-family:'Asap-Regular';font-size:7px">B</text><text transform="translate(189.835 70.326)" style="font-family:'Asap-Regular';font-size:7px">F</text><line style="fill:none;stroke:#6d6e71;stroke-width:.5;stroke-linecap:square" x1="293.21" y1="184.02" x2="293.21" y2="181.89"/><line style="fill:none;stroke:#6d6e71;stroke-width:.5;stroke-linecap:square" x1="277.73" y1="181.89" x2="277.73" y2="184.02"/><line style="fill:none;stroke:#6d6e71;stroke-width:.5;stroke-linecap:square" x1="262.25" y1="181.89" x2="262.25" y2="184.02"/><line style="fill:none;stroke:#6d6e71;stroke-width:.5;stroke-linecap:square" x1="246.77" y1="181.89" x2="246.77" y2="184.02"/><line style="fill:none;stroke:#6d6e71;stroke-width:.5;stroke-linecap:square" x1="231.29" y1="181.89" x2="231.29" y2="184.02"/><line style="fill:none;stroke:#6d6e71;stroke-width:.5;stroke-linecap:square" x1="215.8" y1="181.89" x2="215.8" y2="184.02"/><line style="fill:none;stroke:#6d6e71;stroke-width:.5;stroke-linecap:square" x1="200.32" y1="181.89" x2="200.32" y2="184.02"/><line style="fill:none;stroke:#6d6e71;stroke-width:.5;stroke-linecap:square" x1="184.84" y1="181.89" x2="184.84" y2="184.02"/><line style="fill:none;stroke:#6d6e71;stroke-width:.5;stroke-linecap:square" x1="169.36" y1="181.89" x2="169.36" y2="184.02"/><line style="fill:none;stroke:#6d6e71;stroke-width:.5;stroke-linecap:square" x1="153.88" y1="181.89" x2="153.88" y2="184.02"/><line style="fill:none;stroke:#6d6e71;stroke-width:.5;stroke-linecap:square" x1="138.39" y1="181.89" x2="138.39" y2="184.02"/><line style="fill:none;stroke:#6d6e71;stroke-width:.5;stroke-linecap:square" x1="122.91" y1="181.89" x2="122.91" y2="184.02"/><line style="fill:none;stroke:#6d6e71;stroke-width:.5;stroke-linecap:square" x1="107.43" y1="181.89" x2="107.43" y2="184.02"/><line style="fill:none;stroke:#6d6e71;stroke-width:.5;stroke-linecap:square" x1="91.95" y1="181.89" x2="91.95" y2="184.02"/><line style="fill:none;stroke:#6d6e71;stroke-width:.5;stroke-linecap:square" x1="76.46" y1="181.89" x2="76.46" y2="184.02"/><line style="fill:none;stroke:#6d6e71;stroke-width:.5;stroke-linecap:square" x1="60.98" y1="181.89" x2="60.98" y2="184.02"/><line style="fill:none;stroke:#6d6e71;stroke-width:.5;stroke-linecap:square" x1="45.5" y1="181.89" x2="45.5" y2="184.02"/><line style="fill:none;stroke:#6d6e71;stroke-width:.5;stroke-linecap:square;stroke-linejoin:round" x1="45.04" y1="41.02" x2="42.91" y2="41.02"/><line style="fill:none;stroke:#6d6e71;stroke-width:.5;stroke-linecap:square;stroke-linejoin:round" x1="45.04" y1="13.02" x2="42.91" y2="13.02"/><line style="fill:none;stroke:#6d6e71;stroke-width:.5;stroke-linecap:square;stroke-linejoin:round" x1="45.04" y1="68.59" x2="42.91" y2="68.59"/><line style="fill:none;stroke:#6d6e71;stroke-width:.5;stroke-linecap:square;stroke-linejoin:round" x1="45.04" y1="96.88" x2="42.91" y2="96.88"/><line style="fill:none;stroke:#6d6e71;stroke-width:.5;stroke-linecap:square;stroke-linejoin:round" x1="45.04" y1="125.3" x2="42.91" y2="125.3"/><line style="fill:none;stroke:#6d6e71;stroke-width:.5;stroke-linecap:square;stroke-linejoin:round" x1="45.04" y1="152.88" x2="42.91" y2="152.88"/><text transform="translate(44.222 192.913)" style="font-family:'Asap-Regular';font-size:7px">8</text><line style="fill:none;stroke:#6d6e71;stroke-width:.5;stroke-linecap:square;stroke-linejoin:round" x1="45.04" y1="181.89" x2="42.91" y2="181.89"/><circle style="fill:#000101" cx="231.14" cy="158.36" r="1.13"/><line style="fill:none;stroke:#939598;stroke-width:.5;stroke-linecap:square;stroke-linejoin:round;stroke-dasharray:1.4173" x1="45.51" y1="113.02" x2="231" y2="113.02"/><line style="fill:none;stroke:#939598;stroke-width:.5;stroke-linecap:square;stroke-linejoin:round;stroke-dasharray:1.4173" x1="46" y1="55.15" x2="168.11" y2="55.15"/><line style="fill:none;stroke:#939598;stroke-width:.5;stroke-linecap:square;stroke-linejoin:round;stroke-dasharray:1.4173" x1="46" y1="30.33" x2="154" y2="30.33"/><circle style="fill:#000101" cx="168.96" cy="55.48" r="1.13"/><circle style="fill:#000101" cx="153.96" cy="30.48" r="1.13"/><line style="fill:none;stroke:#6d6e71;stroke-width:.5;stroke-linecap:square;stroke-linejoin:round" x1="45.5" y1="181.89" x2="45.5" y2="4.39"/><circle style="fill:#000101" cx="231.14" cy="113.36" r="1.13"/><circle style="fill:#000101" cx="113.96" cy="30.48" r="1.13"/><text transform="translate(235.194 166.435)" style="font-family:'Asap-Regular';font-size:7px">C</text></svg>