<svg version="1.1" xmlns="http://www.w3.org/2000/svg" x="0" y="0" viewBox="0 0 311.81 191.68" style="enable-background:new 0 0 311.81 191.68" xml:space="preserve"><line style="fill:none;stroke:#6d6e71;stroke-width:.5;stroke-linecap:square" x1="35.25" y1="8.45" x2="35.25" y2="165.52"/><line style="fill:none;stroke:#6d6e71;stroke-width:.5;stroke-linecap:square" x1="35.25" y1="166.02" x2="35.25" y2="168.14"/><line style="fill:none;stroke:#6d6e71;stroke-width:.5;stroke-linecap:square" x1="63.43" y1="166.12" x2="63.43" y2="168.25"/><line style="fill:none;stroke:#6d6e71;stroke-width:.5;stroke-linecap:square" x1="91.61" y1="166.12" x2="91.61" y2="168.25"/><line style="fill:none;stroke:#6d6e71;stroke-width:.5;stroke-linecap:square" x1="119.78" y1="166.12" x2="119.78" y2="168.25"/><line style="fill:none;stroke:#6d6e71;stroke-width:.5;stroke-linecap:square" x1="147.96" y1="166.12" x2="147.96" y2="168.25"/><line style="fill:none;stroke:#6d6e71;stroke-width:.5;stroke-linecap:square" x1="176.14" y1="166.12" x2="176.14" y2="168.25"/><line style="fill:none;stroke:#6d6e71;stroke-width:.5;stroke-linecap:square" x1="204.31" y1="166.12" x2="204.31" y2="168.25"/><line style="fill:none;stroke:#6d6e71;stroke-width:.5;stroke-linecap:square" x1="232.49" y1="166.12" x2="232.49" y2="168.25"/><line style="fill:none;stroke:#6d6e71;stroke-width:.5;stroke-linecap:square" x1="260.94" y1="165.52" x2="260.94" y2="167.65"/><polyline style="fill:none;stroke:#a1b0da;stroke-width:.5;stroke-linecap:square" points="260.67 29.09 35.25 30.87 35.25 165.52"/><line style="fill:none;stroke:#6d6e71;stroke-width:.5;stroke-linecap:square" x1="33.46" y1="165.52" x2="35.25" y2="165.52"/><line style="fill:none;stroke:#6d6e71;stroke-width:.5;stroke-linecap:square" x1="33.46" y1="143.08" x2="35.25" y2="143.08"/><line style="fill:none;stroke:#6d6e71;stroke-width:.5;stroke-linecap:square" x1="33.46" y1="120.64" x2="35.25" y2="120.64"/><line style="fill:none;stroke:#6d6e71;stroke-width:.5;stroke-linecap:square" x1="33.46" y1="98.21" x2="35.25" y2="98.21"/><line style="fill:none;stroke:#6d6e71;stroke-width:.5;stroke-linecap:square" x1="33.46" y1="75.77" x2="35.25" y2="75.77"/><line style="fill:none;stroke:#6d6e71;stroke-width:.5;stroke-linecap:square" x1="33.46" y1="30.89" x2="35.25" y2="30.89"/><line style="fill:none;stroke:#6d6e71;stroke-width:.5;stroke-linecap:square" x1="33.46" y1="53.33" x2="35.25" y2="53.33"/><line style="fill:none;stroke:#6d6e71;stroke-width:.5;stroke-linecap:square" x1="33.46" y1="8.45" x2="35.25" y2="8.45"/><text transform="translate(18.92 167.896)" style="font-family:'Asap-Regular';font-size:7px">500</text><text transform="translate(18.92 145.457)" style="font-family:'Asap-Regular';font-size:7px">550</text><text transform="translate(18.804 123.065)" style="font-family:'Asap-Regular';font-size:7px">600</text><text transform="translate(18.92 100.626)" style="font-family:'Asap-Regular';font-size:7px">650</text><text transform="translate(19.273 78.138)" style="font-family:'Asap-Regular';font-size:7px">700</text><text transform="translate(19.39 55.7)" style="font-family:'Asap-Regular';font-size:7px">750</text><text transform="translate(19.507 33.26)" style="font-family:'Asap-Regular';font-size:7px">800</text><text transform="translate(18.92 10.822)" style="font-family:'Asap-Regular';font-size:7px">850</text><text transform="translate(33.675 176.253)" style="font-family:'Asap-Regular';font-size:7px">0</text><text transform="translate(60.273 176.245)" style="font-family:'Asap-Regular';font-size:7px">10</text><text transform="translate(88.45 176.252)" style="font-family:'Asap-Regular';font-size:7px">20</text><text transform="translate(116.626 176.224)" style="font-family:'Asap-Regular';font-size:7px">30</text><text transform="translate(144.802 176.252)" style="font-family:'Asap-Regular';font-size:7px">40</text><text transform="translate(172.98 176.253)" style="font-family:'Asap-Regular';font-size:7px">50</text><text transform="translate(229.332 176.295)" style="font-family:'Asap-Regular';font-size:7px">70</text><text transform="translate(201.156 176.224)" style="font-family:'Asap-Regular';font-size:7px">60</text><text transform="translate(257.509 176.224)" style="font-family:'Asap-Regular';font-size:7px">80</text><path style="fill:none;stroke:#3a53a4;stroke-width:.5;stroke-linecap:square" d="M49.23 165.52c.83-7.09 2.14-17.04 4.25-28.84 2.49-13.98 3.72-20.97 5.77-27 1.82-5.35 8.48-24.14 26.24-38.88 12.17-10.1 23.99-13.68 37.24-17.7 17.71-5.37 36.73-7.17 45.59-8.01 2.91-.28 5.23-.45 6.88-.57 23.51-1.72 52.41-3.46 85.76-4.66"/><path style="fill:none;stroke:#3a53a4;stroke-width:.5;stroke-linecap:square" d="M63.4 165.52c2.99-16.52 7.78-29.29 11.62-37.84 3.84-8.54 9.72-21.28 20.64-33.12 23.06-25 55.62-31.55 81.34-36.72 5.55-1.12 16.41-3.05 29.14-4.68 10.55-1.35 19.61-2.14 32.17-3.24 9.39-.82 17.15-1.41 22.48-1.8"/><path style="fill:none;stroke:#3a53a4;stroke-width:.5;stroke-linecap:square" d="M83.49 165.52c9.27-29.66 23.38-46.86 31.3-55.12 17.18-17.92 35.08-24.83 53.72-32.04 16.43-6.35 30.25-9.07 48.26-12.6 17.8-3.49 32.87-5.32 43.72-6.35"/><path style="fill:none;stroke:#3a53a4;stroke-width:.5;stroke-linecap:square" d="M110.45 165.52c6.42-10.96 17.32-27.07 34.08-41.8 20.41-17.94 39.57-25.1 61.01-33.12a279.98 279.98 0 0154.94-14.4M147.89 165.52c13.12-15.42 25.45-25.44 34.28-31.72 18.21-12.94 35.04-19.55 53.12-26.64 10.18-4 18.73-6.82 24.58-8.64"/><text transform="rotate(-90 55.209 47.29)"><tspan x="0" y="0" style="font-family:'Asap-Medium';font-size:8px">Wage,</tspan><tspan x="21.68" y="0" style="font-family:'Asap-Regular';font-size:8px"> </tspan><tspan x="23.6" y="0" style="font-family:'Asap-MediumItalic';font-size:8px">w</tspan></text><text transform="translate(118.934 189.12)"><tspan x="0" y="0" style="font-family:'Asap-Medium';font-size:8px">Employment, </tspan><tspan x="48.3" y="0" style="font-family:'Asap-MediumItalic';font-size:8px">N</tspan></text><text transform="translate(83.493 27.795)" style="font-family:'Asap-Regular';font-size:5.793px">Profit = 0</text><text transform="translate(158.746 137.063)" style="font-family:'Asap-Regular';font-size:6px">12,000</text><text transform="translate(140.582 114.744)" style="font-family:'Asap-Regular';font-size:6px">8,000</text><text transform="translate(124.787 90.879)" style="font-family:'Asap-Regular';font-size:6px">5,000</text><text transform="translate(110.453 72.674)" style="font-family:'Asap-Regular';font-size:6px">3,000</text><line style="fill:none;stroke:#6d6e71;stroke-width:.5;stroke-linecap:square" x1="35.25" y1="165.52" x2="260.67" y2="165.52"/><text transform="translate(41.084 42.623)" style="font-family:'Asap-Regular';font-size:6px">Feasible set</text><line style="fill:none;stroke:#f15a27;stroke-width:.5" x1="35.25" y1="115.78" x2="260.67" y2="25.9"/><text transform="translate(264.306 25.902)"><tspan x="0" y="0" style="font-family:'Asap-Regular';font-size:6px">No-shirking wage</tspan><tspan x="0" y="7.2" style="font-family:'Asap-Regular';font-size:6px">curve</tspan></text><path style="fill:none;stroke:#3a53a4;stroke-width:.5;stroke-linecap:square;stroke-linejoin:round" d="M68.92 164.04l.18-.68"/><path style="fill:none;stroke:#3a53a4;stroke-width:.5;stroke-linecap:square;stroke-linejoin:round;stroke-dasharray:1.4096,1.4096" d="M69.45 162c2.04-7.64 5.22-17.53 10.27-28.56 3.29-7.18 9.38-20.45 18.72-31.68 16.47-19.79 37.82-26.9 58.68-33.84 19.25-6.41 34.66-8.3 60.84-11.52 16.71-2.05 30.75-3.03 40.71-3.53"/><path style="fill:none;stroke:#3a53a4;stroke-width:.5;stroke-linecap:square;stroke-linejoin:round" d="M259.38 52.84l.7-.03"/><circle cx="141.16" cy="73.57" r="1.13"/><text transform="translate(143.254 80.583)" style="font-family:'Asap-Regular';font-size:6px">E</text><text transform="translate(201.514 143.084)" style="font-family:'Asap-Regular';font-size:5.793px">Profit = 3,610</text><g><line style="fill:none;stroke:#3a53a4;stroke-width:.5;stroke-linecap:square" x1="210.04" y1="59.96" x2="210.04" y2="135.24"/><polygon style="fill:#3a53a4" points="208 61.61 208.36 61.96 210.04 60.15 211.72 61.96 212.08 61.61 210.04 59.42"/></g><text transform="translate(75.923 53.327)" style="font-family:'Asap-Regular';font-size:6px">Profit = 1,500</text></svg>