<svg version="1.1" xmlns="http://www.w3.org/2000/svg" x="0" y="0" viewBox="0 0 311.81 210.79" style="enable-background:new 0 0 311.81 210.79" xml:space="preserve"><line style="fill:none;stroke:#6d6e71;stroke-width:.5;stroke-linecap:square;stroke-linejoin:round" x1="68.14" y1="184.47" x2="65.99" y2="184.47"/><line style="fill:none;stroke:#6d6e71;stroke-width:.5;stroke-linecap:square;stroke-linejoin:round" x1="68.14" y1="159.34" x2="65.99" y2="159.34"/><line style="fill:none;stroke:#6d6e71;stroke-width:.5;stroke-linecap:square;stroke-linejoin:round" x1="68.14" y1="133.84" x2="65.99" y2="133.84"/><line style="fill:none;stroke:#6d6e71;stroke-width:.5;stroke-linecap:square;stroke-linejoin:round" x1="68.14" y1="107.99" x2="65.99" y2="107.99"/><line style="fill:none;stroke:#6d6e71;stroke-width:.5;stroke-linecap:square;stroke-linejoin:round" x1="68.14" y1="82.76" x2="65.99" y2="82.76"/><line style="fill:none;stroke:#6d6e71;stroke-width:.5;stroke-linecap:square;stroke-linejoin:round" x1="67.86" y1="31.55" x2="65.71" y2="31.55"/><line style="fill:none;stroke:#6d6e71;stroke-width:.5;stroke-linecap:square;stroke-linejoin:round" x1="68.14" y1="6.07" x2="65.99" y2="6.07"/><line style="fill:none;stroke:#6d6e71;stroke-width:.5;stroke-linecap:square;stroke-linejoin:round" x1="68.14" y1="57.04" x2="65.99" y2="57.04"/><line style="fill:none;stroke:#6d6e71;stroke-width:.5;stroke-linecap:square" x1="68.41" y1="184.54" x2="68.41" y2="186.75"/><line style="fill:none;stroke:#6d6e71;stroke-width:.5;stroke-linecap:square" x1="97.84" y1="184.6" x2="97.84" y2="186.75"/><line style="fill:none;stroke:#6d6e71;stroke-width:.5;stroke-linecap:square" x1="127.86" y1="184.6" x2="127.86" y2="186.75"/><line style="fill:none;stroke:#6d6e71;stroke-width:.5;stroke-linecap:square" x1="216.04" y1="184.6" x2="216.04" y2="186.75"/><line style="fill:none;stroke:#6d6e71;stroke-width:.5;stroke-linecap:square" x1="245.97" y1="184.42" x2="245.97" y2="186.57"/><text transform="translate(58.205 186.638)" style="font-family:'Asap-Regular';font-size:7.0788px">0</text><text transform="translate(66.788 194.059)" style="font-family:'Asap-Regular';font-size:7.0788px">0</text><text transform="translate(54.829 137.263)" style="font-family:'Asap-Regular';font-size:7.0788px">20</text><text transform="translate(54.907 110.275)" style="font-family:'Asap-Regular';font-size:7.0788px">30</text><text transform="translate(54.907 161.626)" style="font-family:'Asap-Regular';font-size:7.0788px">10</text><text transform="translate(54.907 85.101)" style="font-family:'Asap-Regular';font-size:7.0788px">40</text><text transform="translate(55.267 59.513)" style="font-family:'Asap-Regular';font-size:7.0788px">50</text><text transform="translate(55.267 34.302)" style="font-family:'Asap-Regular';font-size:7.0788px">60</text><text transform="translate(55.14 8.374)" style="font-family:'Asap-Regular';font-size:7.0788px">70</text><text transform="translate(96.437 194.059)" style="font-family:'Asap-Regular';font-size:7.0788px">4</text><text transform="translate(125.676 194.058)" style="font-family:'Asap-Regular';font-size:7.0788px">8</text><text transform="translate(153.272 194.059)" style="font-family:'Asap-Regular';font-size:7.0788px">12</text><text transform="translate(182.138 194.058)" style="font-family:'Asap-Regular';font-size:7.0788px">16</text><path style="fill:none;stroke:#6d6e71;stroke-width:.5;stroke-linecap:square;stroke-linejoin:round" d="M68.41 6.07v178.16"/><line style="fill:none;stroke:#6d6e71;stroke-width:.5;stroke-linecap:square" x1="68.41" y1="184.42" x2="245.97" y2="184.42"/><text transform="translate(212.24 194.101)" style="font-family:'Asap-Regular';font-size:7.0788px">20</text><text transform="translate(241.208 194.143)" style="font-family:'Asap-Regular';font-size:7.0788px">24</text><line style="fill:none;stroke:#6d6e71;stroke-width:.5;stroke-linecap:square" x1="156.8" y1="184.6" x2="156.8" y2="186.75"/><line style="fill:none;stroke:#6d6e71;stroke-width:.5;stroke-linecap:square" x1="186.73" y1="184.6" x2="186.73" y2="186.75"/><line style="fill:none;stroke:#939598;stroke-width:.5055;stroke-linecap:square;stroke-linejoin:round;stroke-dasharray:1.4329" x1="156.58" y1="184.23" x2="156.58" y2="4.54"/><line style="fill:none;stroke:#939598;stroke-width:.5055;stroke-linecap:square;stroke-linejoin:round;stroke-dasharray:1.4329" x1="200.58" y1="184.17" x2="200.58" y2="4.49"/><line style="fill:none;stroke:#bcbec0;stroke-width:.5;stroke-linejoin:round" x1="178.5" y1="15.96" x2="222.37" y2="44.56"/><line style="fill:none;stroke:#bcbec0;stroke-width:.5;stroke-linejoin:round" x1="180.65" y1="55.48" x2="224.52" y2="84.07"/><line style="fill:none;stroke:#bcbec0;stroke-width:.5;stroke-linejoin:round" x1="179.78" y1="98.29" x2="223.65" y2="126.88"/><line style="fill:none;stroke:#bcbec0;stroke-width:.5;stroke-linejoin:round" x1="178.65" y1="123.01" x2="222.52" y2="151.6"/><line style="fill:none;stroke:#bcbec0;stroke-width:.5;stroke-linejoin:round" x1="177.51" y1="142.5" x2="221.39" y2="171.1"/><text transform="rotate(-90 86.289 40.118)" style="font-family:'Asap-Medium';font-size:8px">Bushels of grain</text><text transform="translate(117.55 206.317)" style="font-family:'Asap-Medium';font-size:8px">Angela’s hours of free time</text><g><text transform="translate(150.498 29.304)" style="font-family:'Asap-Regular';font-size:6px">z</text><text transform="translate(158.635 45.41)"><tspan x="0" y="0" style="font-family:'Asap-Regular';font-size:6px">17</tspan><tspan x="0" y="7.2" style="font-family:'Asap-Regular';font-size:6px">bushels</tspan></text><text transform="translate(194.601 117.446)" style="font-family:'Asap-Regular';font-size:6px">Y</text><text transform="translate(204.573 96.865)" style="font-family:'Asap-Regular';font-size:6px">17 bushels</text><path style="fill:none;stroke:#f49323;stroke-width:.5;stroke-linecap:square;stroke-linejoin:round" d="M172.71 5.71c1.53 1.64 3.72 3.93 6.45 6.56 3.4 3.28 9.19 8.82 17.31 14.59 1.31.93 7.02 4.95 15.61 9.5 7.76 4.11 18.9 9.19 33.25 13.23"/><path style="fill:none;stroke:#939598;stroke-width:.5" d="M146.32 5.69c4.54 8.16 8.82 14.78 12.23 19.74 4.13 6 7.28 10 8.06 10.98 3.32 4.18 6.68 8.39 11.73 13.28 2.37 2.29 4.52 4.17 8.29 7.44 2.39 2.08 4.95 4.3 7.23 6.12 5.48 4.36 10.08 6.93 15.57 10.01 3.86 2.16 10.18 5.67 19.05 9.18a146.39 146.39 0 0016.54 5.42"/><path style="fill:none;stroke:#b9519e;stroke-width:.5" d="M126.72 5.83c3.02 7.26 5.6 13.28 7.51 17.66 3.07 7.06 4.65 10.69 6.81 15.15 1.89 3.9 4.41 9.08 8.2 15.57 4.03 6.91 7.49 11.86 10.29 15.85 3.92 5.59 7.02 10 11.82 15.57 6.95 8.06 12.94 13.29 14.46 14.6 1.13.98 6.07 5.2 13.21 10.01 6.62 4.46 11.97 7.29 15.29 9.04 4.19 2.2 8.96 4.69 15.57 7.23 6.15 2.36 11.55 3.88 15.71 4.87"/><path style="fill:none;stroke:#3b54a4;stroke-width:.5" d="M117.96 5.83c5.43 17.29 10.96 31.25 15.43 41.57 5.06 11.68 9.32 19.93 11.26 23.63 2.72 5.16 5.43 10.3 9.45 16.68 3.06 4.85 8.08 12.75 15.99 21.83 10.64 12.22 20.88 20.12 26.14 23.91a152.583 152.583 0 0048.66 23.36"/><path style="fill:none;stroke:#009147;stroke-width:.5" d="M111.56 5.69c2.39 7.75 5.88 18.68 10.43 31.7 6.06 17.38 9.2 26.3 14.6 38.09 8.01 17.51 15.44 29.29 17.24 32.11 4.1 6.43 8.69 13.57 15.99 22.1 5.04 5.9 13.75 15.95 27.8 25.72 11.74 8.16 22.02 12.52 27.66 14.87 7.73 3.23 14.57 5.37 19.88 6.81"/><line style="fill:none;stroke:#939598;stroke-width:.5;stroke-linecap:square;stroke-linejoin:round" x1="156.58" y1="25.76" x2="156.58" y2="63.45"/><polygon style="fill:#939598" points="154.54 27.41 154.9 27.75 156.58 25.95 158.26 27.75 158.63 27.41 156.58 25.21"/><polygon style="fill:#939598" points="154.54 61.79 154.9 61.45 156.58 63.26 158.26 61.45 158.63 61.79 156.58 63.99"/><line style="fill:none;stroke:#939598;stroke-width:.5;stroke-linecap:square;stroke-linejoin:round" x1="200.58" y1="71.16" x2="200.58" y2="108.86"/><polygon style="fill:#939598" points="198.54 72.82 198.9 73.16 200.58 71.36 202.26 73.16 202.63 72.82 200.58 70.62"/><polygon style="fill:#939598" points="198.54 107.2 198.9 106.86 200.58 108.66 202.26 106.86 202.63 107.2 200.58 109.4"/><circle cx="157.04" cy="22.84" r="1.13"/><circle cx="200.58" cy="111.45" r="1.13"/></g></svg>