<svg version="1.1" xmlns="http://www.w3.org/2000/svg" x="0" y="0" viewBox="0 0 311.81 205.56" style="enable-background:new 0 0 311.81 205.56" xml:space="preserve"><text transform="translate(85.128 53.262)"><tspan x="0" y="0" style="font-family:'Asap-Regular';font-size:6px">Land rent =</tspan><tspan x="0" y="7.2" style="font-family:'Asap-Regular';font-size:6px">23 bushels</tspan></text><path style="fill:none;stroke:#f49323;stroke-width:.5;stroke-linecap:square;stroke-linejoin:round" d="M243.76 175.49c-1.77-17.37-8.06-54.42-35.81-89.31C160.46 26.45 88.74 21.65 76.76 21.04"/><path style="fill:none;stroke:#3c54a4;stroke-width:.5;stroke-miterlimit:10" d="M123 7.49a355.47 355.47 0 0013.55 36.77c8.2 18.99 15.45 35.76 29.93 54.13 8.32 10.56 19.87 24.93 40.08 36.43 13.79 7.85 26.58 11.5 35.33 13.33"/><text transform="translate(250.013 151.488)" style="font-family:'Asap-Regular';font-size:7px">IC</text><text transform="matrix(.583 0 0 .583 256.327 153.819)" style="font-family:'Asap-Regular';font-size:7px">2</text><text transform="translate(195.128 122.14)" style="font-family:'Asap-Regular';font-size:7px">L</text><path style="fill:none;stroke:#f49323;stroke-width:.5;stroke-linecap:square;stroke-linejoin:round;stroke-miterlimit:10;stroke-dasharray:1.417" d="M229.85 175.61c-7.28-14.54-19.79-34.73-40.79-53.26C145.57 83.97 95.33 78.8 77.13 77.82"/><circle style="fill:#000101" cx="188.13" cy="122.14" r="1.13"/><line style="fill:none;stroke:#939598;stroke-width:.5;stroke-linecap:square;stroke-linejoin:round" x1="119.13" y1="28.64" x2="119.13" y2="84.93"/><polygon style="fill:#939598" points="117.08 30.29 117.45 30.64 119.13 28.83 120.81 30.64 121.17 30.29 119.13 28.1"/><polygon style="fill:#939598" points="117.08 83.27 117.45 82.93 119.13 84.74 120.81 82.93 121.17 83.27 119.13 85.47"/><line style="fill:none;stroke:#939598;stroke-width:.5;stroke-linecap:square;stroke-linejoin:round" x1="188.13" y1="67.14" x2="188.13" y2="120.46"/><polygon style="fill:#939598" points="186.08 68.79 186.45 69.14 188.13 67.33 189.81 69.14 190.17 68.79 188.13 66.6"/><polygon style="fill:#939598" points="186.08 118.81 186.45 118.47 188.13 120.27 189.81 118.47 190.17 118.81 188.13 121.01"/><g><line style="fill:none;stroke:#939598;stroke-width:.5;stroke-linecap:square;stroke-linejoin:round" x1="188.13" y1="123.56" x2="188.13" y2="174.26"/><polygon style="fill:#939598" points="186.08 125.21 186.45 125.55 188.13 123.75 189.81 125.55 190.17 125.21 188.13 123.01"/><polygon style="fill:#939598" points="186.08 172.6 186.45 172.26 188.13 174.07 189.81 172.26 190.17 172.6 188.13 174.8"/></g><text transform="translate(189.43 105.847)"><tspan x="0" y="0" style="font-family:'Asap-Regular';font-size:6px">Land rent =</tspan><tspan x="0" y="7.2" style="font-family:'Asap-Regular';font-size:6px">23 bushels</tspan></text><text transform="translate(89.366 96.153)"><tspan x="0" y="0" style="font-family:'Asap-Regular';font-size:6px">Angela’s feasible</tspan><tspan x="0" y="7.2" style="font-family:'Asap-Regular';font-size:6px">frontier for grain</tspan><tspan x="0" y="14.4" style="font-family:'Asap-Regular';font-size:6px">consumption</tspan></text><text transform="translate(123 148.155)"><tspan x="0" y="0" style="font-family:'Asap-Regular';font-size:6px">Angela’s consumption</tspan><tspan x="0" y="7.2" style="font-family:'Asap-Regular';font-size:6px"> = 23 bushels</tspan></text><g><line style="fill:none;stroke:#6d6e71;stroke-width:.5;stroke-linecap:square;stroke-linejoin:round" x1="76.49" y1="175.62" x2="74.37" y2="175.62"/><line style="fill:none;stroke:#6d6e71;stroke-width:.5;stroke-linecap:square;stroke-linejoin:round" x1="76.49" y1="163.56" x2="74.37" y2="163.56"/><line style="fill:none;stroke:#6d6e71;stroke-width:.5;stroke-linecap:square;stroke-linejoin:round" x1="76.49" y1="151.56" x2="74.37" y2="151.56"/><line style="fill:none;stroke:#6d6e71;stroke-width:.5;stroke-linecap:square;stroke-linejoin:round" x1="76.49" y1="139.56" x2="74.37" y2="139.56"/><line style="fill:none;stroke:#6d6e71;stroke-width:.5;stroke-linecap:square;stroke-linejoin:round" x1="76.49" y1="127.56" x2="74.37" y2="127.56"/><line style="fill:none;stroke:#6d6e71;stroke-width:.5;stroke-linecap:square;stroke-linejoin:round" x1="76.49" y1="115.56" x2="74.37" y2="115.56"/><line style="fill:none;stroke:#6d6e71;stroke-width:.5;stroke-linecap:square;stroke-linejoin:round" x1="76.49" y1="103.56" x2="74.37" y2="103.56"/><line style="fill:none;stroke:#6d6e71;stroke-width:.5;stroke-linecap:square;stroke-linejoin:round" x1="76.49" y1="91.56" x2="74.37" y2="91.56"/><line style="fill:none;stroke:#6d6e71;stroke-width:.5;stroke-linecap:square;stroke-linejoin:round" x1="76.49" y1="79.56" x2="74.37" y2="79.56"/><line style="fill:none;stroke:#6d6e71;stroke-width:.5;stroke-linecap:square;stroke-linejoin:round" x1="76.49" y1="67.56" x2="74.37" y2="67.56"/><line style="fill:none;stroke:#6d6e71;stroke-width:.5;stroke-linecap:square;stroke-linejoin:round" x1="76.49" y1="31.56" x2="74.37" y2="31.56"/><line style="fill:none;stroke:#6d6e71;stroke-width:.5;stroke-linecap:square;stroke-linejoin:round" x1="76.49" y1="19.56" x2="74.37" y2="19.56"/><line style="fill:none;stroke:#6d6e71;stroke-width:.5;stroke-linecap:square;stroke-linejoin:round" x1="76.49" y1="55.56" x2="74.37" y2="55.56"/><line style="fill:none;stroke:#6d6e71;stroke-width:.5;stroke-linecap:square;stroke-linejoin:round" x1="76.49" y1="43.56" x2="74.37" y2="43.56"/><line style="fill:none;stroke:#6d6e71;stroke-width:.5;stroke-linecap:square;stroke-linejoin:round" x1="76.49" y1="7.56" x2="74.37" y2="7.56"/><line style="fill:none;stroke:#6d6e71;stroke-width:.5;stroke-linecap:square" x1="76.76" y1="175.69" x2="76.76" y2="177.87"/><line style="fill:none;stroke:#6d6e71;stroke-width:.5;stroke-linecap:square" x1="83.72" y1="175.69" x2="83.72" y2="177.81"/><line style="fill:none;stroke:#6d6e71;stroke-width:.5;stroke-linecap:square" x1="90.68" y1="175.69" x2="90.68" y2="177.81"/><line style="fill:none;stroke:#6d6e71;stroke-width:.5;stroke-linecap:square" x1="97.64" y1="175.69" x2="97.64" y2="177.81"/><line style="fill:none;stroke:#6d6e71;stroke-width:.5;stroke-linecap:square" x1="104.6" y1="175.69" x2="104.6" y2="177.81"/><line style="fill:none;stroke:#6d6e71;stroke-width:.5;stroke-linecap:square" x1="111.56" y1="175.69" x2="111.56" y2="177.81"/><line style="fill:none;stroke:#6d6e71;stroke-width:.5;stroke-linecap:square" x1="118.51" y1="175.69" x2="118.51" y2="177.81"/><line style="fill:none;stroke:#6d6e71;stroke-width:.5;stroke-linecap:square" x1="125.47" y1="175.69" x2="125.47" y2="177.81"/><line style="fill:none;stroke:#6d6e71;stroke-width:.5;stroke-linecap:square" x1="132.43" y1="175.69" x2="132.43" y2="177.81"/><line style="fill:none;stroke:#6d6e71;stroke-width:.5;stroke-linecap:square" x1="139.39" y1="175.69" x2="139.39" y2="177.81"/><line style="fill:none;stroke:#6d6e71;stroke-width:.5;stroke-linecap:square" x1="146.35" y1="175.69" x2="146.35" y2="177.81"/><line style="fill:none;stroke:#6d6e71;stroke-width:.5;stroke-linecap:square" x1="153.31" y1="175.69" x2="153.31" y2="177.81"/><line style="fill:none;stroke:#6d6e71;stroke-width:.5;stroke-linecap:square" x1="160.26" y1="175.69" x2="160.26" y2="177.81"/><line style="fill:none;stroke:#6d6e71;stroke-width:.5;stroke-linecap:square" x1="167.22" y1="175.69" x2="167.22" y2="177.81"/><line style="fill:none;stroke:#6d6e71;stroke-width:.5;stroke-linecap:square" x1="174.18" y1="175.69" x2="174.18" y2="177.81"/><line style="fill:none;stroke:#6d6e71;stroke-width:.5;stroke-linecap:square" x1="181.14" y1="175.69" x2="181.14" y2="177.81"/><line style="fill:none;stroke:#6d6e71;stroke-width:.5;stroke-linecap:square" x1="188.1" y1="175.69" x2="188.1" y2="177.81"/><line style="fill:none;stroke:#6d6e71;stroke-width:.5;stroke-linecap:square" x1="195.06" y1="175.69" x2="195.06" y2="177.81"/><line style="fill:none;stroke:#6d6e71;stroke-width:.5;stroke-linecap:square" x1="202.01" y1="175.69" x2="202.01" y2="177.81"/><line style="fill:none;stroke:#6d6e71;stroke-width:.5;stroke-linecap:square" x1="208.97" y1="175.69" x2="208.97" y2="177.81"/><line style="fill:none;stroke:#6d6e71;stroke-width:.5;stroke-linecap:square" x1="215.93" y1="175.69" x2="215.93" y2="177.81"/><line style="fill:none;stroke:#6d6e71;stroke-width:.5;stroke-linecap:square" x1="222.89" y1="175.69" x2="222.89" y2="177.81"/><line style="fill:none;stroke:#6d6e71;stroke-width:.5;stroke-linecap:square" x1="229.85" y1="175.69" x2="229.85" y2="177.81"/><line style="fill:none;stroke:#6d6e71;stroke-width:.5;stroke-linecap:square" x1="236.81" y1="175.69" x2="236.81" y2="177.81"/><line style="fill:none;stroke:#6d6e71;stroke-width:.5;stroke-linecap:square" x1="243.76" y1="175.69" x2="243.76" y2="177.81"/><text transform="translate(66.672 177.761)" style="font-family:'Asap-Regular';font-size:7px">0</text><text transform="translate(74.886 187.17)" style="font-family:'Asap-Regular';font-size:7px">0</text><text transform="translate(62.927 153.71)" style="font-family:'Asap-Regular';font-size:7px">10</text><text transform="translate(62.928 129.71)" style="font-family:'Asap-Regular';font-size:7px">20</text><text transform="translate(62.928 105.71)" style="font-family:'Asap-Regular';font-size:7px">30</text><text transform="translate(62.928 81.71)" style="font-family:'Asap-Regular';font-size:7px">40</text><text transform="translate(62.928 57.71)" style="font-family:'Asap-Regular';font-size:7px">50</text><text transform="translate(62.928 33.71)" style="font-family:'Asap-Regular';font-size:7px">60</text><text transform="translate(62.928 9.71)" style="font-family:'Asap-Regular';font-size:7px">70</text><text transform="translate(102.725 187.17)" style="font-family:'Asap-Regular';font-size:7px">4</text><text transform="translate(130.559 187.17)" style="font-family:'Asap-Regular';font-size:7px">8</text><text transform="translate(156.52 187.17)" style="font-family:'Asap-Regular';font-size:7px">12</text><text transform="translate(184.353 187.17)" style="font-family:'Asap-Regular';font-size:7px">16</text><text transform="translate(212.186 187.17)" style="font-family:'Asap-Regular';font-size:7px">20</text><text transform="translate(240.02 187.17)" style="font-family:'Asap-Regular';font-size:7px">24</text><text transform="matrix(0 -.9726 1 0 52.357 118.821)" style="font-family:'Asap-Medium';font-size:8px">Bushels of grain</text><text transform="translate(113.03 201.143)" style="font-family:'Asap-Medium';font-size:8px">Angela’s hours of free time</text><path style="fill:none;stroke:#6d6e71;stroke-width:.5;stroke-linecap:square;stroke-linejoin:round" d="M76.76 7.56v167.81"/><line style="fill:none;stroke:#6d6e71;stroke-width:.5;stroke-linecap:square" x1="76.76" y1="175.56" x2="243.76" y2="175.56"/></g></svg>