<svg version="1.1" xmlns="http://www.w3.org/2000/svg" x="0" y="0" viewBox="0 0 311.81 204.09" style="enable-background:new 0 0 311.81 204.09" xml:space="preserve"><line style="fill:none;stroke:#929497;stroke-width:.5;stroke-miterlimit:10;stroke-dasharray:1.4173" x1="162.43" y1="93.76" x2="65.4" y2="93.76"/><line style="fill:none;stroke:#929497;stroke-width:.5;stroke-miterlimit:10;stroke-dasharray:1.4173" x1="163.9" y1="94.68" x2="163.9" y2="172.59"/><path style="fill:none;stroke:#ed2124;stroke-width:.5;stroke-miterlimit:10" d="M65.4 34.55l141.85 85.41"/><line style="fill:none;stroke:#6d6e70;stroke-width:.5;stroke-miterlimit:10" x1="65.16" y1="7.15" x2="65.16" y2="175"/><line style="fill:none;stroke:#6d6e70;stroke-width:.5;stroke-miterlimit:10" x1="63.4" y1="173.27" x2="280.49" y2="173.27"/><text transform="translate(131.044 200.338)" style="fill:#231f20;font-family:'Asap-Medium';font-size:8px">Number of apartments</text><line style="fill:none;stroke:#6d6e70;stroke-width:.5;stroke-miterlimit:10" x1="65.14" y1="93.76" x2="63.41" y2="93.76"/><text transform="translate(246.23 28.54)" style="fill:#3a52a3;font-family:'Asap-Regular';font-size:6px">Supply</text><text transform="translate(245.648 164.075)" style="fill:#ed2124;font-family:'Asap-Regular';font-size:6px">Demand</text><line style="fill:none;stroke:#6d6e70;stroke-width:.5;stroke-miterlimit:10" x1="163.9" y1="174.81" x2="163.9" y2="173.08"/><polyline style="fill:none;stroke:#3a52a3;stroke-width:.5;stroke-miterlimit:10" points="65.12 152.64 198.31 73.4 280.49 25.39"/><text transform="rotate(-90 83.543 49.821)"><tspan x="0" y="0" style="fill:#231f20;font-family:'Asap-Medium';font-size:8px">Rental price per month (</tspan><tspan x="85.9" y="0" style="fill:#231f20;font-family:'Asap-MediumItalic';font-size:8px">P</tspan><tspan x="90.46" y="0" style="fill:#231f20;font-family:'Asap-Medium';font-size:8px">)</tspan></text><text transform="translate(64.278 184.001)" style="fill:#231f20;font-family:'Asap-Regular';font-size:7px">0</text><text transform="translate(162.514 185.74)" style="fill:#231f20;font-family:'Asap-Regular';font-size:7px">X</text><text transform="matrix(.583 0 0 .583 166.791 188.072)" style="fill:#231f20;font-family:'Asap-Regular';font-size:7px">0</text><text transform="translate(55.748 175.03)" style="fill:#231f20;font-family:'Asap-Regular';font-size:7px">0</text><text transform="translate(51.517 95.399)" style="fill:#231f20;font-family:'Asap-Regular';font-size:7px">P</text><text transform="matrix(.583 0 0 .583 55.507 97.73)" style="fill:#231f20;font-family:'Asap-Regular';font-size:7px">0</text><circle style="fill:#231f20" cx="163.9" cy="93.76" r=".92"/><text transform="translate(220.184 115.334)" style="fill:#231f20;font-family:'Asap-Regular';font-size:6px">Rent control price</text><text transform="translate(51.517 121.26)" style="fill:#231f20;font-family:'Asap-Regular';font-size:7px">P</text><text transform="matrix(.583 0 0 .583 55.507 123.59)" style="fill:#231f20;font-family:'Asap-Regular';font-size:7px">R</text><text transform="translate(161.592 87.05)" style="fill:#231f20;font-family:'Asap-Regular';font-size:6px">G</text><line style="fill:none;stroke:#929497;stroke-width:.5;stroke-miterlimit:10;stroke-dasharray:1.4173" x1="119.57" y1="94.68" x2="119.57" y2="172.59"/><line style="fill:none;stroke:#929497;stroke-width:.5;stroke-miterlimit:10;stroke-dasharray:1.4173" x1="280.49" y1="119.95" x2="64.75" y2="119.95"/><text transform="translate(118.31 185.74)" style="fill:#231f20;font-family:'Asap-Regular';font-size:7px">X</text><text transform="matrix(.583 0 0 .583 122.588 188.071)" style="fill:#231f20;font-family:'Asap-Regular';font-size:7px">R</text><line style="fill:none;stroke:#6d6e70;stroke-width:.5;stroke-miterlimit:10" x1="119.57" y1="174.81" x2="119.57" y2="173.08"/><line style="fill:none;stroke:#6d6e70;stroke-width:.5;stroke-miterlimit:10" x1="65.14" y1="119.95" x2="63.41" y2="119.95"/><line style="fill:none;stroke:#ed2124;stroke-width:.5;stroke-miterlimit:10" x1="205.03" y1="118.61" x2="280.49" y2="164.11"/></svg>