<svg version="1.1" xmlns="http://www.w3.org/2000/svg" x="0" y="0" viewBox="0 0 311.81 205.92" style="enable-background:new 0 0 311.81 205.92" xml:space="preserve"><line style="fill:none;stroke:#6d6e71;stroke-width:.5;stroke-linecap:square" x1="38.87" y1="90.38" x2="41" y2="90.38"/><line style="fill:none;stroke:#6d6e71;stroke-width:.5;stroke-linecap:square" x1="38.87" y1="119.7" x2="41" y2="119.7"/><g><polyline style="fill:#d5daef" points="41 68.13 41.37 119.7 98.92 119.7 198.25 68.71 209.26 62.56 41.37 64.56 41 68.13"/><polyline style="fill:#d5daef" points="200.63 33.13 200.79 67.42 269.34 32.21 200.63 32.21"/><rect x="41" y="31.49" style="fill:#d5daef" width="160.26" height="36.07"/><text transform="translate(39.115 188.591)" style="font-family:'Asap-Regular';font-size:7px">0</text><line style="fill:none;stroke:#6d6e71;stroke-width:.5;stroke-linecap:square" x1="41" y1="177.83" x2="41" y2="179.96"/><line style="fill:none;stroke:#6d6e71;stroke-width:.5;stroke-linecap:square" x1="63.56" y1="177.83" x2="63.56" y2="179.96"/><line style="fill:none;stroke:#6d6e71;stroke-width:.5;stroke-linecap:square" x1="86.57" y1="177.83" x2="86.57" y2="179.96"/><line style="fill:none;stroke:#6d6e71;stroke-width:.5;stroke-linecap:square" x1="109.36" y1="177.83" x2="109.36" y2="179.96"/><line style="fill:none;stroke:#6d6e71;stroke-width:.5;stroke-linecap:square" x1="132.14" y1="177.83" x2="132.14" y2="179.96"/><line style="fill:none;stroke:#6d6e71;stroke-width:.5;stroke-linecap:square" x1="154.93" y1="177.83" x2="154.93" y2="179.96"/><line style="fill:none;stroke:#6d6e71;stroke-width:.5;stroke-linecap:square" x1="177.49" y1="177.83" x2="177.49" y2="179.96"/><line style="fill:none;stroke:#6d6e71;stroke-width:.5;stroke-linecap:square" x1="200.5" y1="177.83" x2="200.5" y2="179.96"/><line style="fill:none;stroke:#6d6e71;stroke-width:.5;stroke-linecap:square" x1="223.28" y1="177.83" x2="223.28" y2="179.96"/><line style="fill:none;stroke:#6d6e71;stroke-width:.5;stroke-linecap:square" x1="246.07" y1="177.83" x2="246.07" y2="179.96"/><line style="fill:none;stroke:#6d6e71;stroke-width:.5;stroke-linecap:square" x1="268.85" y1="177.83" x2="268.85" y2="179.96"/><text transform="translate(133.413 201.682)"><tspan x="0" y="0" style="font-family:'Asap-Medium';font-size:8px">Employment, </tspan><tspan x="48.3" y="0" style="font-family:'Asap-MediumItalic';font-size:8px">N</tspan></text><polyline style="fill:none;stroke:#939598;stroke-width:.5;stroke-linecap:square;stroke-linejoin:round;stroke-dasharray:1.417" points="41.37 90.41 154.86 90.41 154.86 177.38"/><line style="fill:none;stroke:#6d6e71;stroke-width:.5;stroke-linecap:square;stroke-linejoin:round" x1="41" y1="11.43" x2="41" y2="177.69"/><line style="fill:none;stroke:#3a53a4;stroke-width:.5;stroke-linecap:square;stroke-linejoin:round" x1="250.19" y1="46.81" x2="250.19" y2="117.78"/><polygon style="fill:#3a53a4" points="248.14 48.47 248.51 48.81 250.19 47.01 251.87 48.81 252.23 48.47 250.19 46.27"/><text transform="translate(16.47 122.4)"><tspan x="0" y="0" style="font-family:'Asap-Regular';font-size:7px">Min </tspan><tspan x="13.33" y="0" style="font-family:'Asap-Italic';font-size:7px">w</tspan></text><text transform="translate(158.447 98.52)" style="font-family:'Asap-Regular';font-size:6px">E</text><path style="fill:none;stroke:#3a53a4;stroke-width:.5;stroke-linecap:square;stroke-linejoin:round" d="M86.57 177.83c2.99-9.42 8.11-22.55 17.06-36.76 6.01-9.54 21.62-33.71 51.22-50.67 16.86-9.66 32.48-13.06 63.74-19.85 20.05-4.36 36.84-6.69 48.3-8"/><path style="fill:none;stroke:#3a53a4;stroke-width:.5;stroke-linecap:square;stroke-linejoin:round" d="M109.36 177.83c5.24-10.44 13.97-25.19 28.05-40.02 21.31-22.43 43.42-32.96 59.85-40.59 15.43-7.17 38.98-16.08 69.33-20.15M140.08 177.71c9.54-13.42 25.8-32.84 50.96-49.97 29.84-20.31 58.58-28.11 75.85-31.41"/><line style="fill:none;stroke:#3a53a4;stroke-width:.5;stroke-miterlimit:10" x1="101.95" y1="131.79" x2="135.83" y2="166.47"/><polygon style="fill:#3a53a4" points="133.21 166.71 133.24 166.21 135.7 166.33 135.64 163.86 136.14 163.85 136.21 166.85"/><line style="fill:none;stroke:#6d6e71;stroke-width:.5;stroke-linecap:square" x1="41.37" y1="177.71" x2="268.85" y2="177.71"/><text transform="translate(59.811 188.591)" style="font-family:'Asap-Regular';font-size:7px">10</text><text transform="translate(82.826 188.591)" style="font-family:'Asap-Regular';font-size:7px">20</text><text transform="translate(105.61 188.633)" style="font-family:'Asap-Regular';font-size:7px">30</text><text transform="translate(128.396 188.675)" style="font-family:'Asap-Regular';font-size:7px">40</text><text transform="translate(151.18 188.591)" style="font-family:'Asap-Regular';font-size:7px">50</text><text transform="translate(173.744 188.073)" style="font-family:'Asap-Regular';font-size:7px">60</text><text transform="translate(196.751 188.073)" style="font-family:'Asap-Regular';font-size:7px">70</text><text transform="translate(219.536 188.115)" style="font-family:'Asap-Regular';font-size:7px">80</text><text transform="translate(242.321 188.073)" style="font-family:'Asap-Regular';font-size:7px">90</text><text transform="translate(263.234 188.073)" style="font-family:'Asap-Regular';font-size:7px">100</text><text transform="matrix(.9613 0 0 1 69.067 29.252)" style="font-family:'Asap-Regular';font-size:6.2415px">Profit = 0</text><text transform="matrix(.9613 0 0 1 52.094 54.22)" style="font-family:'Asap-Regular';font-size:6.2415px">Feasible set</text><text transform="matrix(.9613 0 0 1 235.01 124.393)"><tspan x="0" y="0" style="font-family:'Asap-Regular';font-size:6.2415px">No-shirking</tspan><tspan x="0" y="7.49" style="font-family:'Asap-Regular';font-size:6.2415px">wage curve</tspan></text><circle cx="154.86" cy="90.41" r="1.13"/><rect x="102.53" y="138.48" transform="rotate(45.001 122.108 142.216)" style="fill:#fff" width="39.15" height="7.48"/><text transform="rotate(43.298 -111.907 201.322)" style="font-family:'Asap-Regular';font-size:6px">Higher profit</text><text transform="matrix(.8869 0 0 1 30.459 91.253)" style="font-family:'Asap-Italic';font-size:7px">w</text><text transform="matrix(.5171 0 0 .583 35.096 93.584)" style="font-family:'Asap-Regular';font-size:7px">0</text><line style="fill:none;stroke:#939598;stroke-width:.5;stroke-linecap:square;stroke-linejoin:round" x1="41" y1="119.7" x2="98.62" y2="119.7"/><path style="fill:none;stroke:#3a53a4;stroke-width:.5;stroke-linecap:square" d="M268.48 31.87H41v145.51"/><polyline style="fill:none;stroke:#f15a27;stroke-width:.5;stroke-linecap:square;stroke-linejoin:round" points="268.85 32.79 98.07 120.14 41 149.32"/><path style="fill:none;stroke:#3a53a4;stroke-width:.5;stroke-linecap:square;stroke-linejoin:round" d="M67.48 177.71c1.4-9.07 4-21.77 9.19-36.34 4.22-11.87 8.52-23.95 17.19-35.85 15.39-21.13 36.06-30.06 49.48-35.85 16.74-7.23 31.24-9.46 59.56-13.63 16.01-2.36 37.58-4.93 63.41-6.22"/><text transform="rotate(-90 60.154 51.304)"><tspan x="0" y="0" style="font-family:'Asap-Medium';font-size:8px">Wage, </tspan><tspan x="23.82" y="0" style="font-family:'Asap-MediumItalic';font-size:8px">w</tspan></text></g></svg>