<svg version="1.1" xmlns="http://www.w3.org/2000/svg" x="0" y="0" viewBox="0 0 311.81 191.63" style="enable-background:new 0 0 311.81 191.63" xml:space="preserve"><path style="fill:none;stroke:#f49323;stroke-width:.5;stroke-linecap:round;stroke-linejoin:round;stroke-miterlimit:10" d="M38.66 29.1c.35.19.7.38 1.05.56.35.19.7.38 1.05.56.35.19.7.38 1.05.56.35.19.7.38 1.05.56.35.19.7.38 1.05.56.35.19.7.38 1.05.56.35.19.7.38 1.05.56.35.19.7.38 1.05.56.35.19.7.38 1.05.56.35.19.7.38 1.05.56.35.19.7.38 1.05.56.35.19.7.38 1.05.56.35.19.7.38 1.05.56.35.19.7.38 1.05.56.35.19.7.38 1.05.56.35.19.7.38 1.05.56.35.19.7.38 1.05.56.35.19.7.38 1.05.56.35.19.7.38 1.05.56.35.19.7.38 1.05.56.35.19.7.38 1.05.56.35.19.7.38 1.05.56.35.19.7.38 1.05.56.35.19.7.38 1.05.56.35.19.7.38 1.05.56.35.19.7.38 1.05.56.35.19.7.38 1.05.56.35.19.7.38 1.05.56.35.19.7.38 1.05.56.35.19.7.38 1.05.56.35.19.7.38 1.05.56.35.19.7.38 1.05.56.35.19.7.38 1.05.56.35.19.7.38 1.05.56.35.19.7.38 1.05.56.35.19.7.38 1.05.56.35.19.7.38 1.05.56.35.19.7.38 1.05.56.35.19.7.38 1.05.56.35.19.7.38 1.05.56.35.19.7.38 1.05.56.35.19.7.38 1.05.56.35.19.7.38 1.05.56.35.19.7.38 1.05.56.35.19.7.38 1.05.56.35.19.7.38 1.05.56.35.19.7.38 1.05.56.35.19.7.38 1.05.56.35.19.7.38 1.05.56.35.19.7.38 1.05.56.35.19.7.38 1.05.56.35.19.7.38 1.05.56.35.19.7.38 1.05.56.35.19.7.38 1.05.56.35.19.7.38 1.05.56.35.19.7.38 1.05.56.35.19.7.38 1.05.56.35.19.7.38 1.05.56.35.19.7.38 1.05.56.35.19.7.38 1.05.56.35.19.7.38 1.05.56.35.19.7.38 1.05.56.35.19.7.38 1.05.56.35.19.7.38 1.05.56.35.19.7.38 1.05.56.35.19.7.38 1.05.56.35.19.7.38 1.05.56.35.19.7.38 1.05.56.35.19.7.38 1.05.56.35.19.7.38 1.05.56.35.19.7.38 1.05.56.35.19.7.38 1.05.56.35.19.7.38 1.05.56.35.19.7.38 1.05.56.35.19.7.38 1.05.56.35.19.7.38 1.05.56.35.19.7.38 1.05.56.35.19.7.38 1.05.56.35.19.7.38 1.05.56.35.19.7.38 1.05.56.35.19.7.38 1.05.56.35.19.7.38 1.05.56.35.19.7.38 1.05.56.35.19.7.38 1.05.56.35.19.7.38 1.05.56.35.19.7.38 1.05.56.35.19.7.38 1.05.56.35.19.7.38 1.05.56.35.19.7.38 1.05.56.35.19.7.38 1.05.56.35.19.7.38 1.05.56.35.19.7.38 1.05.56.35.19.7.38 1.05.56.35.19.7.38 1.05.56.35.19.7.38 1.05.56.35.19.7.38 1.05.56.35.19.7.38 1.05.56.35.19.7.38 1.05.56.35.19.7.38 1.05.56.35.19.7.38 1.05.56.35.19.7.38 1.05.56.35.19.7.38 1.05.56.35.19.7.38 1.05.56.35.19.7.38 1.05.56.35.19.7.38 1.05.56.35.19.7.38 1.05.56.35.19.7.38 1.05.56.35.19.7.38 1.05.56s.7.38 1.05.56c.35.19.7.38 1.05.56.35.19.7.38 1.05.56.35.19.7.38 1.05.56.35.19.7.38 1.05.56.35.19.7.38 1.05.56.35.19.7.38 1.05.56.35.19.7.38 1.05.56.35.19.7.38 1.05.56.35.19.7.38 1.05.56.35.19.7.38 1.05.56.35.19.7.38 1.05.56.35.19.7.38 1.05.56.35.19.7.38 1.05.56.35.19.7.38 1.05.56.35.19.7.38 1.05.56.35.19.7.38 1.05.56.35.19.7.38 1.05.56.35.19.7.38 1.05.56.35.19.7.38 1.05.56.35.19.7.38 1.05.56.35.19.7.38 1.05.56.35.19.7.38 1.05.56.35.19.7.38 1.05.56.35.19.7.38 1.05.56.35.19.7.38 1.05.56.35.19.7.38 1.05.56.35.19.7.38 1.05.56.35.19.7.38 1.05.56.35.19.7.38 1.05.56.35.19.7.38 1.05.56.35.19.7.38 1.05.56.35.19.7.38 1.05.56.35.19.7.38 1.05.56.35.19.7.38 1.05.56.35.19.7.38 1.05.56.35.19.7.38 1.05.56.35.19.7.38 1.05.56.35.19.7.38 1.05.56.35.19.7.38 1.05.56.35.19.7.38 1.05.56.35.19.7.38 1.05.56.35.19.7.38 1.05.56.35.19.7.38 1.05.56.35.19.7.38 1.05.56.35.19.7.38 1.05.56.35.19.7.38 1.05.56.35.19.7.38 1.05.56.35.19.7.38 1.05.56.35.19.7.38 1.05.56.35.19.7.38 1.05.56.35.19.7.38 1.05.56.35.19.7.38 1.05.56.35.19.7.38 1.05.56.35.19.7.38 1.05.56.35.19.7.38 1.05.56.35.19.7.38 1.05.56.35.19.7.38 1.05.56.35.19.7.38 1.05.56.35.19.7.38 1.05.56.35.19.7.38 1.05.56.35.19.7.38 1.05.56.35.19.7.38 1.05.56.35.19.7.38 1.05.56.35.19.7.38 1.05.56.35.19.7.38 1.05.56.35.19.7.38 1.05.56.35.19.7.38 1.05.56.35.19.7.38 1.05.56.35.19.7.38 1.05.56.35.19.7.38 1.05.56.35.19.7.38 1.05.56.35.19.7.38 1.05.56.35.19.7.38 1.05.56.35.19.7.38 1.05.56.35.19.7.38 1.05.56.35.19.7.38 1.05.56.35.19.7.38 1.05.56.35.19.7.38 1.05.56.35.19.7.38 1.05.56.35.19.7.38 1.05.56.35.19.7.38 1.05.56.35.19.7.38 1.05.56.35.19.7.38 1.05.56.35.19.7.38 1.05.56.35.19.7.38 1.05.56.35.19.7.38 1.05.56.35.19.7.38 1.05.56.35.19.7.38 1.05.56.35.19.7.38 1.05.56.35.19.7.38 1.05.56.35.19.7.38 1.05.56.35.19.7.38 1.05.56.35.19.7.38 1.05.56.35.19.7.38 1.05.56.35.19.7.38 1.05.56.35.19.7.38 1.05.56.35.19.7.38 1.05.56.35.19.7.38 1.05.56.35.19.7.38 1.05.56.35.19.7.38 1.05.56.35.19.7.38 1.05.56.35.19.7.38 1.05.56.35.19.7.38 1.05.56.35.19.7.38 1.05.56.35.19.7.38 1.05.56.35.19.7.38 1.05.56.35.19.7.38 1.05.56.35.19.7.38 1.05.56.35.19.7.38 1.05.56.35.19.7.38 1.05.56.35.19.7.38 1.05.56.35.19.7.38 1.05.56.35.19.7.38 1.05.56.35.19.7.38 1.05.56.35.19.7.38 1.05.56.35.19.7.38 1.05.56.35.19.7.38 1.05.56.35.19.7.38 1.05.56.35.19.7.38 1.05.56.35.19.7.38 1.05.56.35.19.7.38 1.05.56.35.19.7.38 1.05.56.35.19.7.38 1.05.56.35.19.7.38 1.05.56.35.19.7.38 1.05.56.35.19.7.38 1.05.56.35.19.7.38 1.05.56.35.19.7.38 1.05.56.35.19.7.38 1.05.56.35.19.7.38 1.05.56.35.19.7.38 1.05.56"/><line style="fill:none;stroke:#6d6e71;stroke-width:.5;stroke-linecap:square;stroke-linejoin:round" x1="38.39" y1="164.43" x2="36.26" y2="164.43"/><line style="fill:none;stroke:#6d6e71;stroke-width:.5;stroke-linecap:square;stroke-linejoin:round" x1="38.66" y1="10.4" x2="36.53" y2="10.4"/><line style="fill:none;stroke:#6d6e71;stroke-width:.5;stroke-linecap:square" x1="38.66" y1="164.56" x2="38.66" y2="166.68"/><text transform="translate(29.803 166.66)" style="font-family:'Asap-Regular';font-size:7px">0</text><text transform="translate(36.385 175.241)" style="font-family:'Asap-Regular';font-size:7px">0</text><text transform="translate(22.313 12.166)" style="font-family:'Asap-Regular';font-size:7px">100</text><text transform="matrix(0 -.9726 1 0 11.534 122)" style="font-family:'Asap-Medium';font-size:8px">Environmental quality</text><text transform="translate(158.786 187.763)" style="font-family:'Asap-Medium';font-size:8px">Wage</text><path style="fill:none;stroke:#6d6e71;stroke-width:.479;stroke-linecap:square;stroke-linejoin:round" d="M38.66 10.4v154.03"/><line style="fill:none;stroke:#6d6e71;stroke-width:.5075;stroke-linecap:square" x1="38.66" y1="164.43" x2="304.03" y2="164.43"/><text transform="translate(197.508 102.372)"><tspan x="0" y="0" style="font-family:'Asap-Regular';font-size:6px">Above this line, the firm’s costs would be </tspan><tspan x="0" y="7.2" style="font-family:'Asap-Regular';font-size:6px">higher than its revenue</tspan></text><text transform="translate(122.476 39.954)"><tspan x="0" y="0" style="font-family:'Asap-Regular';font-size:6px">Firm’s shutdown </tspan><tspan x="0" y="7.2" style="font-family:'Asap-Regular';font-size:6px">condition</tspan></text><line style="fill:none;stroke:#939598;stroke-width:.5;stroke-linecap:square;stroke-linejoin:round" x1="120.2" y1="43.68" x2="102.76" y2="61.12"/><polygon style="fill:#939598" points="102.48 58.5 102.98 58.52 102.89 60.98 105.36 60.89 105.37 61.39 102.37 61.5"/></svg>