<svg version="1.1" xmlns="http://www.w3.org/2000/svg" x="0" y="0" viewBox="0 0 311.81 161.43" style="enable-background:new 0 0 311.81 161.43" xml:space="preserve"><rect x="195.14" y="112.08" style="fill:#fee6da" width="98.2" height="28.07"/><rect x="195.14" y="27.29" style="fill:#fee6da" width="38.74" height="84.78"/><rect x="48.76" y="69.68" style="fill:#e3e7f4" width="98.06" height="70.46"/><line style="fill:none;stroke:#6d6e71;stroke-width:.5;stroke-linecap:square" x1="156.76" y1="140.14" x2="48.76" y2="140.14"/><rect x="-8.67" y="105.65" style="fill:none" width="52.68" height="12.61"/><text transform="translate(17.92 109.41)" style="font-family:'Asap-Regular';font-size:5px">Reser</text><text transform="translate(30.254 109.41)" style="font-family:'Asap-Regular';font-size:5px">v</text><text transform="translate(32.629 109.41)" style="font-family:'Asap-Regular';font-size:5px">ation</text><text transform="translate(25.292 115.41)" style="font-family:'Asap-Regular';font-size:5px">w</text><text transform="translate(28.977 115.41)" style="font-family:'Asap-Regular';font-size:5px">a</text><text transform="translate(31.703 115.41)" style="font-family:'Asap-Regular';font-size:5px">g</text><text transform="translate(34.332 115.41)" style="font-family:'Asap-Regular';font-size:5px">e,</text><text transform="translate(39.218 115.41)" style="font-family:'Asap-Italic';font-size:5px">w</text><text transform="matrix(.583 0 0 .583 42.953 117.075)" style="font-family:'Asap-Italic';font-size:5px">r</text><line style="fill:none;stroke:#6d6e71;stroke-width:.5;stroke-linecap:square;stroke-linejoin:round" x1="48.76" y1="27.62" x2="46.63" y2="27.62"/><line style="fill:none;stroke:#6d6e71;stroke-width:.5;stroke-linecap:square;stroke-linejoin:round" x1="48.76" y1="69.68" x2="46.63" y2="69.68"/><line style="fill:none;stroke:#6d6e71;stroke-width:.5;stroke-linecap:square;stroke-linejoin:round" x1="48.76" y1="111.95" x2="46.63" y2="111.95"/><polyline style="fill:none;stroke:#939598;stroke-width:.5;stroke-linecap:square;stroke-linejoin:round;stroke-dasharray:1.417" points="48.76 111.95 50.84 111.95 146.82 111.95"/><rect x="89.05" y="61.72" style="fill:none" width="20.35" height="4.94"/><text transform="translate(91.68 65.48)"><tspan x="0" y="0" style="font-family:'Asap-Italic';font-size:5px">h</tspan><tspan x="2.82" y="0" style="font-family:'Asap-Regular';font-size:5px"> </tspan><tspan x="4.02" y="0" style="font-family:'Asap-Regular';font-size:5px">we</tspan><tspan x="10.35" y="0" style="font-family:'Asap-Regular';font-size:5px">eks</tspan></text><rect x="94.26" y="85.72" style="fill:none" width="26.58" height="4.95"/><text transform="translate(95.1 89.476)"><tspan x="0" y="0" style="font-family:'Asap-Regular';font-size:5px">P</tspan><tspan x="2.75" y="0" style="font-family:'Asap-Regular';font-size:5px">ay-off </tspan><tspan x="16.77" y="0" style="font-family:'Asap-Italic';font-size:5px">w−c</tspan></text><rect x="87.32" y="4.85" style="fill:none" width="23.8" height="5.93"/><text transform="translate(88.962 9.363)"><tspan x="0" y="0" style="font-family:'Asap-Regular';font-size:6px">W</tspan><tspan x="5.22" y="0" style="font-family:'Asap-Regular';font-size:6px">orking</tspan></text><line style="fill:none;stroke:#6d6e71;stroke-width:.5;stroke-linecap:square" x1="146.82" y1="139.72" x2="146.82" y2="141.84"/><rect x="143.18" y="145.18" style="fill:none" width="7.28" height="4.94"/><text transform="translate(145.403 148.94)" style="font-family:'Asap-Italic';font-size:5px">h</text><rect x="71.76" y="151.18" style="fill:none" width="53.18" height="7.92"/><text transform="translate(71.76 157.204)"><tspan x="0" y="0" style="font-family:'Asap-Medium';font-size:8px">T</tspan><tspan x="4.23" y="0" style="font-family:'Asap-Medium';font-size:8px">ime in </tspan><tspan x="27.86" y="0" style="font-family:'Asap-Medium';font-size:8px">we</tspan><tspan x="37.99" y="0" style="font-family:'Asap-Medium';font-size:8px">eks</tspan></text><rect x="22.93" y="25.15" style="fill:none" width="19.75" height="4.94"/><text transform="translate(24.348 28.912)"><tspan x="0" y="0" style="font-family:'Asap-Regular';font-size:5px">W</tspan><tspan x="4.35" y="0" style="font-family:'Asap-Regular';font-size:5px">a</tspan><tspan x="7.07" y="0" style="font-family:'Asap-Regular';font-size:5px">g</tspan><tspan x="9.71" y="0" style="font-family:'Asap-Regular';font-size:5px">e, </tspan><tspan x="14.59" y="0" style="font-family:'Asap-Italic';font-size:5px">w</tspan></text><line style="fill:none;stroke:#6d6e71;stroke-width:.5;stroke-linecap:square" x1="303.14" y1="140.14" x2="195.14" y2="140.14"/><line style="fill:none;stroke:#6d6e71;stroke-width:.5;stroke-linecap:square" x1="195.14" y1="11.76" x2="195.14" y2="140.12"/><rect x="-8.92" y="64.21" style="fill:none" width="52.68" height="10.94"/><text transform="translate(11.446 67.972)"><tspan x="0" y="0" style="font-family:'Asap-Regular';font-size:5px">W</tspan><tspan x="4.35" y="0" style="font-family:'Asap-Regular';font-size:5px">a</tspan><tspan x="7.07" y="0" style="font-family:'Asap-Regular';font-size:5px">g</tspan><tspan x="9.71" y="0" style="font-family:'Asap-Regular';font-size:5px">e − cost of</tspan><tspan x="6.48" y="6" style="font-family:'Asap-Regular';font-size:5px">effo</tspan><tspan x="15.27" y="6" style="font-family:'Asap-Regular';font-size:5px">r</tspan><tspan x="17.05" y="6" style="font-family:'Asap-Regular';font-size:5px">t, </tspan><tspan x="20.95" y="6" style="font-family:'Asap-Italic';font-size:5px">w − c</tspan></text><rect x="132.34" y="105.65" style="fill:none" width="52.68" height="12.61"/><text transform="translate(158.923 109.41)" style="font-family:'Asap-Regular';font-size:5px">Reser</text><text transform="translate(171.257 109.41)" style="font-family:'Asap-Regular';font-size:5px">v</text><text transform="translate(173.632 109.41)" style="font-family:'Asap-Regular';font-size:5px">ation</text><text transform="translate(166.296 115.41)" style="font-family:'Asap-Regular';font-size:5px">w</text><text transform="translate(169.98 115.41)" style="font-family:'Asap-Regular';font-size:5px">a</text><text transform="translate(172.706 115.41)" style="font-family:'Asap-Regular';font-size:5px">g</text><text transform="translate(175.336 115.41)" style="font-family:'Asap-Regular';font-size:5px">e,</text><text transform="translate(180.221 115.41)" style="font-family:'Asap-Italic';font-size:5px">w</text><text transform="matrix(.583 0 0 .583 183.956 117.075)" style="font-family:'Asap-Italic';font-size:5px">r</text><rect x="169.28" y="24.82" style="fill:none" width="19.75" height="4.94"/><text transform="translate(170.698 28.582)"><tspan x="0" y="0" style="font-family:'Asap-Regular';font-size:5px">W</tspan><tspan x="4.35" y="0" style="font-family:'Asap-Regular';font-size:5px">a</tspan><tspan x="7.07" y="0" style="font-family:'Asap-Regular';font-size:5px">g</tspan><tspan x="9.71" y="0" style="font-family:'Asap-Regular';font-size:5px">e, </tspan><tspan x="14.59" y="0" style="font-family:'Asap-Italic';font-size:5px">w</tspan></text><line style="fill:none;stroke:#6d6e71;stroke-width:.5;stroke-linecap:square" x1="293.34" y1="140.63" x2="293.34" y2="142.76"/><rect x="289.7" y="145.18" style="fill:none" width="7.28" height="4.94"/><text transform="translate(291.925 148.94)" style="font-family:'Asap-Italic';font-size:5px">h</text><rect x="220.65" y="151.18" style="fill:none" width="51.29" height="7.92"/><text transform="translate(220.649 157.204)"><tspan x="0" y="0" style="font-family:'Asap-Medium';font-size:8px">T</tspan><tspan x="4.23" y="0" style="font-family:'Asap-Medium';font-size:8px">ime in </tspan><tspan x="27.86" y="0" style="font-family:'Asap-Medium';font-size:8px">we</tspan><tspan x="37.99" y="0" style="font-family:'Asap-Medium';font-size:8px">eks</tspan></text><rect x="242.09" y="4.85" style="fill:none" width="23.8" height="5.93"/><text transform="translate(244.376 9.363)" style="font-family:'Asap-Regular';font-size:6px">Shirking</text><rect x="199.01" y="19.88" style="fill:none" width="25.03" height="4.95"/><text transform="translate(207.08 23.637)"><tspan x="0" y="0" style="font-family:'Asap-Italic';font-size:5px">s</tspan><tspan x="2.06" y="0" style="font-family:'Asap-Regular';font-size:5px"> </tspan><tspan x="3.27" y="0" style="font-family:'Asap-Regular';font-size:5px">we</tspan><tspan x="9.59" y="0" style="font-family:'Asap-Regular';font-size:5px">eks</tspan></text><rect x="203.59" y="52.34" style="fill:none" width="25.03" height="4.94"/><text transform="translate(208.11 56.1)"><tspan x="0" y="0" style="font-family:'Asap-Regular';font-size:5px">P</tspan><tspan x="2.75" y="0" style="font-family:'Asap-Regular';font-size:5px">ay-off </tspan><tspan x="16.77" y="0" style="font-family:'Asap-Italic';font-size:5px">w</tspan></text><rect x="249.43" y="103.18" style="fill:none" width="32.66" height="4.94"/><text transform="translate(257.112 106.937)"><tspan x="0" y="0" style="font-family:'Asap-Italic';font-size:5px">h − s</tspan><tspan x="10.09" y="0" style="font-family:'Asap-Regular';font-size:5px"> </tspan><tspan x="11.29" y="0" style="font-family:'Asap-Regular';font-size:5px">we</tspan><tspan x="17.62" y="0" style="font-family:'Asap-Regular';font-size:5px">eks</tspan></text><rect x="257.28" y="119.52" style="fill:none" width="26.34" height="6.61"/><text transform="translate(262.049 123.275)" style="font-family:'Asap-Regular';font-size:5px">P</text><text transform="translate(264.799 123.275)" style="font-family:'Asap-Regular';font-size:5px">ay-off</text><text transform="translate(278.824 123.275)" style="font-family:'Asap-Italic';font-size:5px">w</text><text transform="matrix(.583 0 0 .583 282.558 124.94)" style="font-family:'Asap-Italic';font-size:5px">r</text><line style="fill:none;stroke:#0871b9;stroke-width:.5;stroke-linecap:square;stroke-linejoin:round" x1="91.85" y1="139.6" x2="91.85" y2="70.23"/><polygon style="fill:#0871b9" points="93.9 137.95 93.53 137.6 91.85 139.41 90.17 137.6 89.81 137.95 91.85 140.14"/><polygon style="fill:#0871b9" points="93.9 71.88 93.53 72.22 91.85 70.42 90.17 72.22 89.81 71.88 91.85 69.68"/><line style="fill:none;stroke:#939598;stroke-width:.5;stroke-linecap:square;stroke-linejoin:round;stroke-dasharray:1.417" x1="233.95" y1="112.08" x2="194.75" y2="112.1"/><line style="fill:none;stroke:#939598;stroke-width:.5;stroke-linecap:square;stroke-linejoin:round;stroke-dasharray:1.417" x1="233.95" y1="112.08" x2="233.95" y2="139.72"/><line style="fill:none;stroke:#939598;stroke-width:.5;stroke-linecap:square;stroke-linejoin:round;stroke-dasharray:1.417" x1="293.34" y1="112.03" x2="292.88" y2="112.03"/><line style="fill:none;stroke:#0871b9;stroke-width:.5;stroke-linecap:square;stroke-linejoin:round" x1="207.11" y1="139.18" x2="207.11" y2="27.53"/><polygon style="fill:#0871b9" points="209.16 137.52 208.79 137.18 207.12 138.98 205.44 137.18 205.07 137.52 207.12 139.72"/><polygon style="fill:#0871b9" points="209.16 29.19 208.79 29.53 207.12 27.72 205.44 29.53 205.07 29.19 207.12 26.99"/><line style="fill:none;stroke:#0871b9;stroke-width:.5;stroke-linecap:square;stroke-linejoin:round" x1="257.28" y1="139.58" x2="257.28" y2="112.83"/><polygon style="fill:#0871b9" points="259.33 137.92 258.96 137.58 257.28 139.39 255.6 137.58 255.24 137.92 257.28 140.12"/><polygon style="fill:#0871b9" points="259.33 114.49 258.96 114.83 257.28 113.02 255.6 114.83 255.24 114.49 257.28 112.29"/><line style="fill:none;stroke:#939598;stroke-width:.5;stroke-linecap:square;stroke-linejoin:round;stroke-dasharray:1.417" x1="146.82" y1="69.68" x2="146.82" y2="139.72"/><line style="fill:none;stroke:#6d6e71;stroke-width:.5;stroke-linecap:square;stroke-linejoin:round" x1="195.14" y1="112.08" x2="193.01" y2="112.08"/><line style="fill:none;stroke:#6d6e71;stroke-width:.5;stroke-linecap:square;stroke-linejoin:round" x1="195.14" y1="27.29" x2="193.01" y2="27.29"/><line style="fill:none;stroke:#6d6e71;stroke-width:.5;stroke-linecap:square" x1="48.76" y1="11.79" x2="48.76" y2="140.14"/><line style="fill:none;stroke:#939598;stroke-width:.5;stroke-linecap:square;stroke-linejoin:round;stroke-dasharray:1.417" x1="293.34" y1="112.02" x2="293.34" y2="139.66"/><polyline style="fill:none;stroke:#000;stroke-width:.5;stroke-linecap:square;stroke-linejoin:round" points="195.14 27.29 197.21 27.29 233.95 27.29 233.95 112.08 292.88 112.03"/><polyline style="fill:none;stroke:#000;stroke-width:.5;stroke-linecap:square;stroke-linejoin:round" points="146.82 69.68 50.84 69.68 48.76 69.68"/></svg>