<svg version="1.1" xmlns="http://www.w3.org/2000/svg" x="0" y="0" viewBox="0 0 311.81 171.84" style="enable-background:new 0 0 311.81 171.84" xml:space="preserve"><line style="fill:none;stroke:#6d6e71;stroke-width:.5;stroke-linecap:square;stroke-linejoin:round" x1="46.92" y1="145.87" x2="46.92" y2="12.24"/><line style="fill:none;stroke:#6d6e71;stroke-width:.5;stroke-linecap:square;stroke-linejoin:round" x1="46.92" y1="145.87" x2="206.98" y2="145.87"/><text transform="translate(44.69 158.028)" style="font-family:'Asap-Regular';font-size:7px">0</text><rect x="44.18" y="150.09" style="fill:none" width="5.65" height="10.42"/><text transform="translate(37.035 147.83)" style="font-family:'Asap-Regular';font-size:7px">0</text><text transform="translate(37.035 126.163)" style="font-family:'Asap-Regular';font-size:7px">2</text><text transform="translate(37.035 102.83)" style="font-family:'Asap-Regular';font-size:7px">4</text><text transform="translate(37.035 79.496)" style="font-family:'Asap-Regular';font-size:7px">6</text><text transform="translate(37.035 56.496)" style="font-family:'Asap-Regular';font-size:7px">8</text><text transform="translate(33.368 33.496)" style="font-family:'Asap-Regular';font-size:7px">10</text><text transform="translate(17.035 86.6)" style="font-family:'Asap-Medium';font-size:7px">WTP</text><text transform="translate(86.23 167.33)" style="font-family:'Asap-Medium';font-size:7px">Number of supporters</text><line style="fill:none;stroke:#6d6e71;stroke-width:.5;stroke-linecap:square;stroke-linejoin:round" x1="176.98" y1="146.3" x2="176.98" y2="148.43"/><line style="fill:none;stroke:#6d6e71;stroke-width:.5;stroke-linecap:square;stroke-linejoin:round" x1="155.3" y1="146.3" x2="155.3" y2="148.43"/><line style="fill:none;stroke:#6d6e71;stroke-width:.5;stroke-linecap:square;stroke-linejoin:round" x1="133.63" y1="146.3" x2="133.63" y2="148.43"/><line style="fill:none;stroke:#6d6e71;stroke-width:.5;stroke-linecap:square;stroke-linejoin:round" x1="46.92" y1="146.3" x2="46.92" y2="148.43"/><line style="fill:none;stroke:#6d6e71;stroke-width:.5;stroke-linecap:square;stroke-linejoin:round" x1="68.6" y1="146.3" x2="68.6" y2="148.43"/><line style="fill:none;stroke:#6d6e71;stroke-width:.5;stroke-linecap:square;stroke-linejoin:round" x1="90.28" y1="146.3" x2="90.28" y2="148.43"/><line style="fill:none;stroke:#6d6e71;stroke-width:.5;stroke-linecap:square;stroke-linejoin:round" x1="111.95" y1="146.3" x2="111.95" y2="148.43"/><text transform="translate(66.69 158.028)" style="font-family:'Asap-Regular';font-size:7px">1</text><text transform="translate(88.69 158.028)" style="font-family:'Asap-Regular';font-size:7px">2</text><text transform="translate(109.69 158.028)" style="font-family:'Asap-Regular';font-size:7px">3</text><text transform="translate(131.69 158.028)" style="font-family:'Asap-Regular';font-size:7px">4</text><text transform="translate(153.69 158.028)" style="font-family:'Asap-Regular';font-size:7px">5</text><text transform="translate(175.69 158.028)" style="font-family:'Asap-Regular';font-size:7px">6</text><line style="fill:none;stroke:#6d6e71;stroke-width:.5;stroke-linecap:square;stroke-linejoin:round" x1="46.49" y1="31.1" x2="44.36" y2="31.1"/><line style="fill:none;stroke:#6d6e71;stroke-width:.5;stroke-linecap:square;stroke-linejoin:round" x1="46.49" y1="145.87" x2="44.36" y2="145.87"/><line style="fill:none;stroke:#6d6e71;stroke-width:.5;stroke-linecap:square;stroke-linejoin:round" x1="46.49" y1="122.92" x2="44.36" y2="122.92"/><line style="fill:none;stroke:#6d6e71;stroke-width:.5;stroke-linecap:square;stroke-linejoin:round" x1="46.49" y1="54.05" x2="44.36" y2="54.05"/><line style="fill:none;stroke:#6d6e71;stroke-width:.5;stroke-linecap:square;stroke-linejoin:round" x1="46.49" y1="99.96" x2="44.36" y2="99.96"/><line style="fill:none;stroke:#6d6e71;stroke-width:.5;stroke-linecap:square;stroke-linejoin:round" x1="46.49" y1="77.01" x2="44.36" y2="77.01"/><polyline style="fill:none;stroke:#ed2124;stroke-width:.5;stroke-linecap:square;stroke-linejoin:round" points="47.17 12.24 47.17 54.05 68.6 54.05 68.6 65.53 90.28 65.53 90.28 77.01 111.95 77.01 111.95 88.48 131.69 88.48 131.69 99.96 155.3 99.96 155.3 111.44 176.98 111.44 176.98 145.62"/></svg>