<svg version="1.1" xmlns="http://www.w3.org/2000/svg" x="0" y="0" viewBox="0 0 311.81 219.97" style="enable-background:new 0 0 311.81 219.97" xml:space="preserve"><path style="fill:#fcd3c1" d="M216.91 100.7c-.42-.48-.76-1.02-1.01-1.61-.69-.67-1.2-1.48-1.52-2.38-.32.45-.63.9-.92 1.35.65 1.59.68 3.45.12 5.07.03.27.04.54.04.81.5 1.43.55 3.03.11 4.48.32 1.19.34 2.48.04 3.68.25 1.01.28 2.09.09 3.12.09.75.08 1.51-.07 2.25.16.91.17 1.86-.01 2.77.1.68.11 1.38.02 2.07.13.97.07 1.98-.19 2.92.32.3.65.59 1.01.82.01.01.02.01.04.02.5-.11 1.04-.18 1.62-.18.4 0 .78.03 1.14.08.53-.13 1.1-.2 1.72-.2.72 0 1.38.09 1.98.27.46-.1.96-.15 1.49-.15.44 0 .85.04 1.24.11a7.3 7.3 0 012.05-.29c.65 0 1.24.08 1.79.22.25-.02.5-.04.76-.04.69 0 1.32.09 1.9.25.09-.04.17-.07.22-.09l-13.66-25.35z"/><line style="fill:none;stroke:#6d6e71;stroke-width:.5;stroke-linecap:square;stroke-linejoin:round" x1="76.86" y1="179.78" x2="74.73" y2="179.78"/><line style="fill:none;stroke:#6d6e71;stroke-width:.5;stroke-linecap:square;stroke-linejoin:round" x1="76.86" y1="167.78" x2="74.73" y2="167.78"/><line style="fill:none;stroke:#6d6e71;stroke-width:.5;stroke-linecap:square;stroke-linejoin:round" x1="76.86" y1="155.78" x2="74.73" y2="155.78"/><line style="fill:none;stroke:#6d6e71;stroke-width:.5;stroke-linecap:square;stroke-linejoin:round" x1="76.86" y1="143.78" x2="74.73" y2="143.78"/><line style="fill:none;stroke:#6d6e71;stroke-width:.5;stroke-linecap:square;stroke-linejoin:round" x1="76.86" y1="131.78" x2="74.73" y2="131.78"/><line style="fill:none;stroke:#6d6e71;stroke-width:.5;stroke-linecap:square;stroke-linejoin:round" x1="76.86" y1="119.78" x2="74.73" y2="119.78"/><line style="fill:none;stroke:#6d6e71;stroke-width:.5;stroke-linecap:square;stroke-linejoin:round" x1="76.86" y1="107.78" x2="74.73" y2="107.78"/><line style="fill:none;stroke:#6d6e71;stroke-width:.5;stroke-linecap:square;stroke-linejoin:round" x1="76.86" y1="95.78" x2="74.73" y2="95.78"/><line style="fill:none;stroke:#6d6e71;stroke-width:.5;stroke-linecap:square;stroke-linejoin:round" x1="76.86" y1="83.78" x2="74.73" y2="83.78"/><line style="fill:none;stroke:#6d6e71;stroke-width:.5;stroke-linecap:square;stroke-linejoin:round" x1="76.86" y1="71.78" x2="74.73" y2="71.78"/><line style="fill:none;stroke:#6d6e71;stroke-width:.5;stroke-linecap:square;stroke-linejoin:round" x1="76.86" y1="35.78" x2="74.73" y2="35.78"/><line style="fill:none;stroke:#6d6e71;stroke-width:.5;stroke-linecap:square;stroke-linejoin:round" x1="76.86" y1="23.78" x2="74.73" y2="23.78"/><line style="fill:none;stroke:#6d6e71;stroke-width:.5;stroke-linecap:square;stroke-linejoin:round" x1="76.86" y1="59.78" x2="74.73" y2="59.78"/><line style="fill:none;stroke:#6d6e71;stroke-width:.5;stroke-linecap:square;stroke-linejoin:round" x1="76.86" y1="47.78" x2="74.73" y2="47.78"/><line style="fill:none;stroke:#6d6e71;stroke-width:.5;stroke-linecap:square;stroke-linejoin:round" x1="76.86" y1="11.78" x2="74.73" y2="11.78"/><line style="fill:none;stroke:#6d6e71;stroke-width:.5;stroke-linecap:square" x1="77.13" y1="179.9" x2="77.13" y2="182.03"/><line style="fill:none;stroke:#6d6e71;stroke-width:.5;stroke-linecap:square" x1="84.13" y1="179.9" x2="84.13" y2="182.03"/><line style="fill:none;stroke:#6d6e71;stroke-width:.5;stroke-linecap:square" x1="91.13" y1="179.9" x2="91.13" y2="182.03"/><line style="fill:none;stroke:#6d6e71;stroke-width:.5;stroke-linecap:square" x1="98.13" y1="179.9" x2="98.13" y2="182.03"/><line style="fill:none;stroke:#6d6e71;stroke-width:.5;stroke-linecap:square" x1="105.13" y1="179.9" x2="105.13" y2="182.03"/><line style="fill:none;stroke:#6d6e71;stroke-width:.5;stroke-linecap:square" x1="112.13" y1="179.9" x2="112.13" y2="182.03"/><line style="fill:none;stroke:#6d6e71;stroke-width:.5;stroke-linecap:square" x1="119.13" y1="179.9" x2="119.13" y2="182.03"/><line style="fill:none;stroke:#6d6e71;stroke-width:.5;stroke-linecap:square" x1="126.13" y1="179.9" x2="126.13" y2="182.03"/><line style="fill:none;stroke:#6d6e71;stroke-width:.5;stroke-linecap:square" x1="133.13" y1="179.9" x2="133.13" y2="182.03"/><line style="fill:none;stroke:#6d6e71;stroke-width:.5;stroke-linecap:square" x1="140.13" y1="179.9" x2="140.13" y2="182.03"/><line style="fill:none;stroke:#6d6e71;stroke-width:.5;stroke-linecap:square" x1="147.13" y1="179.9" x2="147.13" y2="182.03"/><line style="fill:none;stroke:#6d6e71;stroke-width:.5;stroke-linecap:square" x1="154.13" y1="179.9" x2="154.13" y2="182.03"/><line style="fill:none;stroke:#6d6e71;stroke-width:.5;stroke-linecap:square" x1="160.13" y1="179.9" x2="160.13" y2="182.03"/><line style="fill:none;stroke:#6d6e71;stroke-width:.5;stroke-linecap:square" x1="167.13" y1="179.9" x2="167.13" y2="182.03"/><line style="fill:none;stroke:#6d6e71;stroke-width:.5;stroke-linecap:square" x1="174.13" y1="179.9" x2="174.13" y2="182.03"/><line style="fill:none;stroke:#6d6e71;stroke-width:.5;stroke-linecap:square" x1="181.13" y1="179.9" x2="181.13" y2="182.03"/><line style="fill:none;stroke:#6d6e71;stroke-width:.5;stroke-linecap:square" x1="188.13" y1="179.9" x2="188.13" y2="182.03"/><line style="fill:none;stroke:#6d6e71;stroke-width:.5;stroke-linecap:square" x1="195.13" y1="179.9" x2="195.13" y2="182.03"/><line style="fill:none;stroke:#6d6e71;stroke-width:.5;stroke-linecap:square" x1="202.13" y1="179.9" x2="202.13" y2="182.03"/><line style="fill:none;stroke:#6d6e71;stroke-width:.5;stroke-linecap:square" x1="209.13" y1="179.9" x2="209.13" y2="182.03"/><line style="fill:none;stroke:#6d6e71;stroke-width:.5;stroke-linecap:square" x1="216.13" y1="179.9" x2="216.13" y2="182.03"/><line style="fill:none;stroke:#6d6e71;stroke-width:.5;stroke-linecap:square" x1="223.13" y1="179.9" x2="223.13" y2="182.03"/><line style="fill:none;stroke:#6d6e71;stroke-width:.5;stroke-linecap:square" x1="230.13" y1="179.9" x2="230.13" y2="182.03"/><line style="fill:none;stroke:#6d6e71;stroke-width:.5;stroke-linecap:square" x1="237.13" y1="179.9" x2="237.13" y2="182.03"/><line style="fill:none;stroke:#6d6e71;stroke-width:.5;stroke-linecap:square" x1="244.13" y1="179.9" x2="244.13" y2="182.03"/><text transform="translate(68.864 182.026)" style="font-family:'Asap-Regular';font-size:7px">0</text><text transform="translate(75.25 189.383)" style="font-family:'Asap-Regular';font-size:7px">0</text><text transform="translate(65.374 158.14)" style="font-family:'Asap-Regular';font-size:7px">10</text><text transform="translate(65.654 133.553)" style="font-family:'Asap-Regular';font-size:7px">20</text><text transform="translate(66.01 110.08)" style="font-family:'Asap-Regular';font-size:7px">30</text><text transform="translate(66.01 85.636)" style="font-family:'Asap-Regular';font-size:7px">40</text><text transform="translate(66.291 62.494)" style="font-family:'Asap-Regular';font-size:7px">50</text><text transform="translate(66.01 37.424)" style="font-family:'Asap-Regular';font-size:7px">60</text><text transform="translate(66.01 13.858)" style="font-family:'Asap-Regular';font-size:7px">70</text><text transform="translate(102.411 189.383)" style="font-family:'Asap-Regular';font-size:7px">4</text><text transform="translate(131.22 189.383)" style="font-family:'Asap-Regular';font-size:7px">8</text><text transform="translate(156.383 189.383)" style="font-family:'Asap-Regular';font-size:7px">12</text><text transform="translate(184.325 189.383)" style="font-family:'Asap-Regular';font-size:7px">16</text><text transform="translate(212.325 189.382)" style="font-family:'Asap-Regular';font-size:7px">20</text><text transform="translate(240.325 189.383)" style="font-family:'Asap-Regular';font-size:7px">24</text><text transform="matrix(0 -.9726 1 0 53.72 119.029)" style="font-family:'Asap-Regular';font-size:8px">Bushels of grain</text><text transform="translate(119.722 204.356)" style="font-family:'Asap-Medium';font-size:8px">Angela’s hours of free time</text><path style="fill:none;stroke:#6d6e71;stroke-width:.5;stroke-linecap:square;stroke-linejoin:round" d="M77.13 11.78v167.81"/><path style="fill:none;stroke:#f49323;stroke-width:.5;stroke-linecap:square;stroke-linejoin:round" d="M244.13 179.9c-1.59-17.27-7.52-54.43-35-89.43C161.77 30.16 89.34 25.84 77.68 25.33"/><path style="fill:none;stroke:#263a71;stroke-width:.5;stroke-miterlimit:10" d="M123 11.78c2.92 9.32 7.33 22.06 13.8 36.77 8.36 18.99 15.74 35.76 30.49 54.13 8.48 10.56 20.25 24.93 40.83 36.43 14.05 7.85 27.08 11.5 36 13.33"/><text transform="translate(250.013 155.778)" style="font-family:'Asap-Regular';font-size:7px">IC</text><text transform="matrix(.583 0 0 .583 256.327 158.109)" style="font-family:'Asap-Regular';font-size:7px">2</text><text transform="translate(191.43 124.297)" style="font-family:'Asap-Regular';font-size:7px">L</text><line style="fill:none;stroke:#939598;stroke-width:.5;stroke-linecap:square;stroke-linejoin:round" x1="155.13" y1="126.6" x2="155.13" y2="142.43"/><polygon style="fill:#939598" points="153.08 128.26 153.45 128.6 155.13 126.79 156.81 128.6 157.17 128.26 155.13 126.06"/><polygon style="fill:#939598" points="153.08 140.77 153.45 140.43 155.13 142.24 156.81 140.43 157.17 140.77 155.13 142.97"/><text transform="translate(84.128 140.066)" style="font-family:'Asap-Regular';font-size:6px">16 bushels</text><line style="fill:none;stroke:#6d6e71;stroke-width:.5;stroke-linecap:square" x1="77.13" y1="179.78" x2="244.13" y2="179.78"/><path style="fill:none;stroke:#3b54a4;stroke-width:.5;stroke-linecap:square;stroke-linejoin:round;stroke-miterlimit:10" d="M129.44 11.78c3.96 12.72 10.7 30.7 22.36 50.52 9.4 15.98 19.83 33.7 40.03 49.8 9.49 7.56 26.71 19.2 52.29 25.98"/><circle style="fill:#000101" cx="188.13" cy="68.83" r="1.13"/><text transform="translate(192.108 68.696)" style="font-family:'Asap-Regular';font-size:7px">A</text><text transform="translate(217.261 93.582)" style="font-family:'Asap-Regular';font-size:7px">M</text><text transform="translate(215.801 124.297)" style="font-family:'Asap-Regular';font-size:7px">N</text><text transform="translate(250.692 138.853)" style="font-family:'Asap-Regular';font-size:7px">IC</text><text transform="matrix(.583 0 0 .583 257.006 141.184)" style="font-family:'Asap-Regular';font-size:7px">N</text><line style="fill:none;stroke:#939598;stroke-width:.5;stroke-linecap:square;stroke-linejoin:round;stroke-miterlimit:10;stroke-dasharray:1.417" x1="213.85" y1="11.78" x2="213.85" y2="179.59"/><line style="fill:none;stroke:#939598;stroke-width:.5;stroke-linecap:square;stroke-linejoin:round;stroke-miterlimit:10;stroke-dasharray:1.417" x1="77.15" y1="142.97" x2="212.93" y2="142.97"/><text transform="translate(84.128 123.35)" style="font-family:'Asap-Regular';font-size:6px">23 bushels</text><text transform="translate(84.128 93.582)" style="font-family:'Asap-Regular';font-size:6px">35 bushels</text><text transform="translate(158.44 136.354)" style="font-family:'Asap-Regular';font-size:6px">7 bushels</text><text transform="translate(163.439 47.778)" style="font-family:'Asap-Regular';font-size:6px">Feasible frontier</text><text transform="translate(215.801 124.297)" style="font-family:'Asap-Regular';font-size:7px">N</text><line style="fill:none;stroke:#939598;stroke-width:.5;stroke-linecap:square;stroke-linejoin:round;stroke-miterlimit:10;stroke-dasharray:1.417" x1="244.13" y1="11.67" x2="244.13" y2="179.49"/><line style="fill:none;stroke:#939598;stroke-width:.5;stroke-linecap:square;stroke-linejoin:round" x1="214" y1="23.78" x2="243.59" y2="23.78"/><polygon style="fill:#939598" points="215.66 25.82 216 25.46 214.19 23.78 216 22.1 215.66 21.73 213.46 23.78"/><polygon style="fill:#939598" points="241.93 25.82 241.59 25.46 243.39 23.78 241.59 22.1 241.93 21.73 244.13 23.78"/><text transform="translate(216.236 35.778)"><tspan x="0" y="0" style="font-family:'Asap-Regular';font-size:6px">Maximum </tspan><tspan x="3.18" y="7.2" style="font-family:'Asap-Regular';font-size:6px">working</tspan><tspan x="6.48" y="14.4" style="font-family:'Asap-Regular';font-size:6px">hours</tspan></text><line style="fill:none;stroke:#939598;stroke-width:.5;stroke-linecap:square;stroke-linejoin:round;stroke-miterlimit:10;stroke-dasharray:1.417" x1="77.68" y1="95.78" x2="244.13" y2="95.78"/><line style="fill:none;stroke:#939598;stroke-width:.5;stroke-linecap:square;stroke-linejoin:round;stroke-miterlimit:10;stroke-dasharray:1.417" x1="77.15" y1="125.97" x2="244.13" y2="125.97"/><circle style="fill:#000101" cx="189.26" cy="126.06" r="1.13"/><circle style="fill:#000101" cx="213.46" cy="96.41" r="1.13"/><circle style="fill:#000101" cx="213.46" cy="126.06" r="1.13"/><g><line style="fill:none;stroke:#939598;stroke-width:.5;stroke-linecap:square;stroke-linejoin:round" x1="127.13" y1="96.6" x2="127.13" y2="125.52"/><polygon style="fill:#939598" points="125.08 98.26 125.45 98.6 127.13 96.79 128.81 98.6 129.17 98.26 127.13 96.06"/><polygon style="fill:#939598" points="125.08 123.86 125.45 123.52 127.13 125.33 128.81 123.52 129.17 123.86 127.13 126.06"/></g><g><line style="fill:none;stroke:#939598;stroke-width:.5;stroke-linecap:square;stroke-linejoin:round" x1="127.13" y1="126.73" x2="127.13" y2="179.36"/><polygon style="fill:#939598" points="125.08 128.39 125.45 128.73 127.13 126.93 128.81 128.73 129.17 128.39 127.13 126.19"/><polygon style="fill:#939598" points="125.08 177.7 125.45 177.36 127.13 179.17 128.81 177.36 129.17 177.7 127.13 179.9"/></g><text transform="translate(133.128 110.122)"><tspan x="0" y="0" style="font-family:'Asap-Regular';font-size:6px">Bruno’s</tspan><tspan x="0" y="7.2" style="font-family:'Asap-Regular';font-size:6px">share</tspan></text><text transform="translate(133.339 155.767)"><tspan x="0" y="0" style="font-family:'Asap-Regular';font-size:6px">Minimum</tspan><tspan x="0" y="7.2" style="font-family:'Asap-Regular';font-size:6px">wage</tspan></text></svg>