<svg version="1.1" xmlns="http://www.w3.org/2000/svg" x="0" y="0" viewBox="0 0 311.81 355.55" style="enable-background:new 0 0 311.81 355.55" xml:space="preserve"><text transform="translate(247.013 173.227)" style="font-family:'Asap-Regular';font-size:6px">IC</text><text transform="matrix(.583 0 0 .583 252.425 175.225)" style="font-family:'Asap-Regular';font-size:6px">1</text><text transform="translate(247.013 155.778)" style="font-family:'Asap-Regular';font-size:6px">IC</text><text transform="matrix(.583 0 0 .583 252.425 157.776)" style="font-family:'Asap-Regular';font-size:6px">2</text><g><line style="fill:none;stroke:#6d6e71;stroke-width:.5;stroke-linecap:square;stroke-linejoin:round" x1="76.86" y1="179.78" x2="74.73" y2="179.78"/><line style="fill:none;stroke:#6d6e71;stroke-width:.5;stroke-linecap:square;stroke-linejoin:round" x1="76.86" y1="167.78" x2="74.73" y2="167.78"/><line style="fill:none;stroke:#6d6e71;stroke-width:.5;stroke-linecap:square;stroke-linejoin:round" x1="76.86" y1="155.78" x2="74.73" y2="155.78"/><line style="fill:none;stroke:#6d6e71;stroke-width:.5;stroke-linecap:square;stroke-linejoin:round" x1="76.86" y1="143.78" x2="74.73" y2="143.78"/><line style="fill:none;stroke:#6d6e71;stroke-width:.5;stroke-linecap:square;stroke-linejoin:round" x1="76.86" y1="131.78" x2="74.73" y2="131.78"/><line style="fill:none;stroke:#6d6e71;stroke-width:.5;stroke-linecap:square;stroke-linejoin:round" x1="76.86" y1="119.78" x2="74.73" y2="119.78"/><line style="fill:none;stroke:#6d6e71;stroke-width:.5;stroke-linecap:square;stroke-linejoin:round" x1="76.86" y1="107.78" x2="74.73" y2="107.78"/><line style="fill:none;stroke:#6d6e71;stroke-width:.5;stroke-linecap:square;stroke-linejoin:round" x1="76.86" y1="95.78" x2="74.73" y2="95.78"/><line style="fill:none;stroke:#6d6e71;stroke-width:.5;stroke-linecap:square;stroke-linejoin:round" x1="76.86" y1="83.78" x2="74.73" y2="83.78"/><line style="fill:none;stroke:#6d6e71;stroke-width:.5;stroke-linecap:square;stroke-linejoin:round" x1="76.86" y1="71.78" x2="74.73" y2="71.78"/><line style="fill:none;stroke:#6d6e71;stroke-width:.5;stroke-linecap:square;stroke-linejoin:round" x1="76.86" y1="35.78" x2="74.73" y2="35.78"/><line style="fill:none;stroke:#6d6e71;stroke-width:.5;stroke-linecap:square;stroke-linejoin:round" x1="76.86" y1="23.78" x2="74.73" y2="23.78"/><line style="fill:none;stroke:#6d6e71;stroke-width:.5;stroke-linecap:square;stroke-linejoin:round" x1="76.86" y1="59.78" x2="74.73" y2="59.78"/><line style="fill:none;stroke:#6d6e71;stroke-width:.5;stroke-linecap:square;stroke-linejoin:round" x1="76.86" y1="47.78" x2="74.73" y2="47.78"/><line style="fill:none;stroke:#6d6e71;stroke-width:.5;stroke-linecap:square;stroke-linejoin:round" x1="76.86" y1="11.78" x2="74.73" y2="11.78"/><line style="fill:none;stroke:#6d6e71;stroke-width:.5;stroke-linecap:square" x1="77.13" y1="179.9" x2="77.13" y2="182.03"/><line style="fill:none;stroke:#6d6e71;stroke-width:.5;stroke-linecap:square" x1="84.13" y1="179.9" x2="84.13" y2="182.03"/><line style="fill:none;stroke:#6d6e71;stroke-width:.5;stroke-linecap:square" x1="91.13" y1="179.9" x2="91.13" y2="182.03"/><line style="fill:none;stroke:#6d6e71;stroke-width:.5;stroke-linecap:square" x1="98.13" y1="179.9" x2="98.13" y2="182.03"/><line style="fill:none;stroke:#6d6e71;stroke-width:.5;stroke-linecap:square" x1="105.13" y1="179.9" x2="105.13" y2="182.03"/><line style="fill:none;stroke:#6d6e71;stroke-width:.5;stroke-linecap:square" x1="112.13" y1="179.9" x2="112.13" y2="182.03"/><line style="fill:none;stroke:#6d6e71;stroke-width:.5;stroke-linecap:square" x1="119.13" y1="179.9" x2="119.13" y2="182.03"/><line style="fill:none;stroke:#6d6e71;stroke-width:.5;stroke-linecap:square" x1="126.13" y1="179.9" x2="126.13" y2="182.03"/><line style="fill:none;stroke:#6d6e71;stroke-width:.5;stroke-linecap:square" x1="133.13" y1="179.9" x2="133.13" y2="182.03"/><line style="fill:none;stroke:#6d6e71;stroke-width:.5;stroke-linecap:square" x1="140.13" y1="179.9" x2="140.13" y2="182.03"/><line style="fill:none;stroke:#6d6e71;stroke-width:.5;stroke-linecap:square" x1="147.13" y1="179.9" x2="147.13" y2="182.03"/><line style="fill:none;stroke:#6d6e71;stroke-width:.5;stroke-linecap:square" x1="154.13" y1="179.9" x2="154.13" y2="182.03"/><line style="fill:none;stroke:#6d6e71;stroke-width:.5;stroke-linecap:square" x1="160.13" y1="179.9" x2="160.13" y2="182.03"/><line style="fill:none;stroke:#6d6e71;stroke-width:.5;stroke-linecap:square" x1="167.13" y1="179.9" x2="167.13" y2="182.03"/><line style="fill:none;stroke:#6d6e71;stroke-width:.5;stroke-linecap:square" x1="174.13" y1="179.9" x2="174.13" y2="182.03"/><line style="fill:none;stroke:#6d6e71;stroke-width:.5;stroke-linecap:square" x1="181.13" y1="179.9" x2="181.13" y2="182.03"/><line style="fill:none;stroke:#6d6e71;stroke-width:.5;stroke-linecap:square" x1="188.13" y1="179.9" x2="188.13" y2="182.03"/><line style="fill:none;stroke:#6d6e71;stroke-width:.5;stroke-linecap:square" x1="195.13" y1="179.9" x2="195.13" y2="182.03"/><line style="fill:none;stroke:#6d6e71;stroke-width:.5;stroke-linecap:square" x1="202.13" y1="179.9" x2="202.13" y2="182.03"/><line style="fill:none;stroke:#6d6e71;stroke-width:.5;stroke-linecap:square" x1="209.13" y1="179.9" x2="209.13" y2="182.03"/><line style="fill:none;stroke:#6d6e71;stroke-width:.5;stroke-linecap:square" x1="216.13" y1="179.9" x2="216.13" y2="182.03"/><line style="fill:none;stroke:#6d6e71;stroke-width:.5;stroke-linecap:square" x1="223.13" y1="179.9" x2="223.13" y2="182.03"/><line style="fill:none;stroke:#6d6e71;stroke-width:.5;stroke-linecap:square" x1="230.13" y1="179.9" x2="230.13" y2="182.03"/><line style="fill:none;stroke:#6d6e71;stroke-width:.5;stroke-linecap:square" x1="237.13" y1="179.9" x2="237.13" y2="182.03"/><line style="fill:none;stroke:#6d6e71;stroke-width:.5;stroke-linecap:square" x1="244.13" y1="179.9" x2="244.13" y2="182.03"/><text transform="translate(68.864 182.026)" style="font-family:'Asap-Regular';font-size:7px">0</text><text transform="translate(75.25 189.383)" style="font-family:'Asap-Regular';font-size:7px">0</text><text transform="translate(65.374 158.14)" style="font-family:'Asap-Regular';font-size:7px">10</text><text transform="translate(65.654 133.553)" style="font-family:'Asap-Regular';font-size:7px">20</text><text transform="translate(66.01 110.08)" style="font-family:'Asap-Regular';font-size:7px">30</text><text transform="translate(66.01 85.636)" style="font-family:'Asap-Regular';font-size:7px">40</text><text transform="translate(66.291 62.494)" style="font-family:'Asap-Regular';font-size:7px">50</text><text transform="translate(66.01 37.424)" style="font-family:'Asap-Regular';font-size:7px">60</text><text transform="translate(66.01 13.858)" style="font-family:'Asap-Regular';font-size:7px">70</text><text transform="translate(102.411 189.383)" style="font-family:'Asap-Regular';font-size:7px">4</text><text transform="translate(131.22 189.383)" style="font-family:'Asap-Regular';font-size:7px">8</text><text transform="translate(156.383 189.383)" style="font-family:'Asap-Regular';font-size:7px">12</text><text transform="translate(184.325 189.383)" style="font-family:'Asap-Regular';font-size:7px">16</text><text transform="translate(212.325 189.383)" style="font-family:'Asap-Regular';font-size:7px">20</text><text transform="translate(240.325 189.383)" style="font-family:'Asap-Regular';font-size:7px">24</text><text transform="matrix(0 -.9726 1 0 53.72 119.028)" style="font-family:'Asap-Medium';font-size:8px">Bushels of grain</text><text transform="translate(119.722 201.357)" style="font-family:'Asap-Medium';font-size:8px">Angela’s hours of free time</text><path style="fill:none;stroke:#6d6e71;stroke-width:.5;stroke-linecap:square;stroke-linejoin:round" d="M77.13 11.78v167.81"/><text transform="translate(203.128 79.84)" style="font-family:'Asap-Regular';font-size:6px">Feasible frontier</text><path style="fill:none;stroke:#f49323;stroke-width:.5;stroke-linecap:square;stroke-linejoin:round" d="M244.13 179.78c-1.76-17.37-8.03-54.42-35.69-89.31C161.1 30.74 89.61 25.94 77.68 25.33"/><line style="fill:none;stroke:#6d6e71;stroke-width:.5;stroke-linecap:square" x1="77.13" y1="179.78" x2="244.13" y2="179.78"/><line style="fill:none;stroke:#939598;stroke-width:.5;stroke-linecap:square;stroke-linejoin:round" x1="159.79" y1="52.77" x2="159.79" y2="89.12"/><polygon style="fill:#939598" points="157.74 54.43 158.11 54.77 159.79 52.96 161.46 54.77 161.83 54.43 159.79 52.23"/><polygon style="fill:#939598" points="157.74 87.47 158.11 87.13 159.79 88.93 161.46 87.13 161.83 87.47 159.79 89.67"/><line style="fill:none;stroke:#939598;stroke-width:.5;stroke-linecap:square;stroke-linejoin:round" x1="160.13" y1="96.32" x2="160.13" y2="178.05"/><polygon style="fill:#939598" points="158.08 97.98 158.45 98.32 160.13 96.51 161.81 98.32 162.17 97.98 160.13 95.78"/><polygon style="fill:#939598" points="158.08 176.39 158.45 176.05 160.13 177.86 161.81 176.05 162.17 176.39 160.13 178.59"/><text transform="translate(162.206 72.576)"><tspan x="0" y="0" style="font-family:'Asap-Regular';font-size:6px">Bruno’s </tspan><tspan x="0" y="7.2" style="font-family:'Asap-Regular';font-size:6px">profit</tspan></text><text transform="translate(118 138.185)" style="font-family:'Asap-Regular';font-size:6px">Angela’s wage</text><line style="fill:none;stroke:#939598;stroke-width:.5;stroke-linecap:square;stroke-linejoin:round;stroke-dasharray:1.4173" x1="77.68" y1="50.86" x2="160.13" y2="50.86"/><line style="fill:none;stroke:#939598;stroke-width:.5;stroke-linecap:square;stroke-linejoin:round;stroke-dasharray:1.4173" x1="77.33" y1="93.11" x2="158.67" y2="93.11"/><text transform="translate(85.217 48.762)" style="font-family:'Asap-Regular';font-size:6px">54 bushels</text><text transform="translate(85.499 90.562)" style="font-family:'Asap-Regular';font-size:6px">36 bushels</text><text transform="translate(189.043 102.555)"><tspan x="0" y="0" style="font-family:'Asap-Regular';font-size:6px">Angela’s</tspan><tspan x="-7.58" y="7.2" style="font-family:'Asap-Regular';font-size:6px">reservation</tspan><tspan x="-9.63" y="14.4" style="font-family:'Asap-Regular';font-size:6px">indifference</tspan><tspan x="7.74" y="21.6" style="font-family:'Asap-Regular';font-size:6px">curve</tspan></text><line style="fill:none;stroke:#939598;stroke-width:.5028;stroke-linecap:square;stroke-linejoin:round;stroke-miterlimit:10;stroke-dasharray:1.4248" x1="160.15" y1="259.99" x2="159.87" y2="321.99"/><line style="fill:none;stroke:#939598;stroke-width:.5;stroke-linecap:square;stroke-linejoin:round;stroke-miterlimit:10;stroke-dasharray:1.417" x1="188.01" y1="248.29" x2="187.73" y2="321.99"/><line style="fill:none;stroke:#939598;stroke-width:.4987;stroke-linecap:square;stroke-linejoin:round;stroke-miterlimit:10;stroke-dasharray:1.4133" x1="216.01" y1="259.07" x2="215.73" y2="321.99"/><line style="fill:none;stroke:#6d6e71;stroke-width:.5;stroke-linecap:square;stroke-linejoin:round" x1="76.6" y1="321.99" x2="74.47" y2="321.99"/><line style="fill:none;stroke:#6d6e71;stroke-width:.5;stroke-linecap:square;stroke-linejoin:round" x1="76.6" y1="309.99" x2="74.47" y2="309.99"/><line style="fill:none;stroke:#6d6e71;stroke-width:.5;stroke-linecap:square;stroke-linejoin:round" x1="76.6" y1="297.99" x2="74.47" y2="297.99"/><line style="fill:none;stroke:#6d6e71;stroke-width:.5;stroke-linecap:square;stroke-linejoin:round" x1="76.6" y1="285.99" x2="74.47" y2="285.99"/><line style="fill:none;stroke:#6d6e71;stroke-width:.5;stroke-linecap:square;stroke-linejoin:round" x1="76.6" y1="273.99" x2="74.47" y2="273.99"/><line style="fill:none;stroke:#6d6e71;stroke-width:.5;stroke-linecap:square;stroke-linejoin:round" x1="76.6" y1="261.99" x2="74.47" y2="261.99"/><line style="fill:none;stroke:#6d6e71;stroke-width:.5;stroke-linecap:square;stroke-linejoin:round" x1="76.6" y1="249.99" x2="74.47" y2="249.99"/><line style="fill:none;stroke:#6d6e71;stroke-width:.5;stroke-linecap:square;stroke-linejoin:round" x1="76.6" y1="237.99" x2="74.47" y2="237.99"/><line style="fill:none;stroke:#6d6e71;stroke-width:.5;stroke-linecap:square;stroke-linejoin:round" x1="76.6" y1="225.99" x2="74.47" y2="225.99"/><line style="fill:none;stroke:#6d6e71;stroke-width:.5;stroke-linecap:square" x1="76.87" y1="322.11" x2="76.87" y2="324.24"/><line style="fill:none;stroke:#6d6e71;stroke-width:.5;stroke-linecap:square" x1="104.87" y1="322.11" x2="104.87" y2="324.24"/><line style="fill:none;stroke:#6d6e71;stroke-width:.5;stroke-linecap:square" x1="132.87" y1="322.11" x2="132.87" y2="324.24"/><line style="fill:none;stroke:#6d6e71;stroke-width:.5;stroke-linecap:square" x1="159.87" y1="322.11" x2="159.87" y2="324.24"/><line style="fill:none;stroke:#6d6e71;stroke-width:.5;stroke-linecap:square" x1="187.73" y1="322.11" x2="187.73" y2="324.24"/><line style="fill:none;stroke:#6d6e71;stroke-width:.5;stroke-linecap:square" x1="215.73" y1="322.11" x2="215.73" y2="324.24"/><line style="fill:none;stroke:#6d6e71;stroke-width:.5;stroke-linecap:square" x1="243.87" y1="322.11" x2="243.87" y2="324.24"/><text transform="translate(68.607 324.237)" style="font-family:'Asap-Regular';font-size:7px">0</text><text transform="translate(74.993 331.594)" style="font-family:'Asap-Regular';font-size:7px">0</text><text transform="translate(65.117 300.35)" style="font-family:'Asap-Regular';font-size:7px">10</text><text transform="translate(65.397 275.764)" style="font-family:'Asap-Regular';font-size:7px">20</text><text transform="translate(65.754 252.29)" style="font-family:'Asap-Regular';font-size:7px">30</text><text transform="translate(65.754 227.846)" style="font-family:'Asap-Regular';font-size:7px">40</text><text transform="translate(102.154 331.594)" style="font-family:'Asap-Regular';font-size:7px">4</text><text transform="translate(130.962 331.594)" style="font-family:'Asap-Regular';font-size:7px">8</text><text transform="translate(156.126 331.594)" style="font-family:'Asap-Regular';font-size:7px">12</text><text transform="translate(184.068 331.594)" style="font-family:'Asap-Regular';font-size:7px">16</text><text transform="translate(212.068 331.593)" style="font-family:'Asap-Regular';font-size:7px">20</text><text transform="translate(240.068 331.594)" style="font-family:'Asap-Regular';font-size:7px">24</text><text transform="matrix(0 -.9726 1 0 55.416 314.794)" style="font-family:'Asap-Medium';font-size:8px">Bruno’s bushels of grain</text><text transform="translate(119.465 343.567)" style="font-family:'Asap-Medium';font-size:8px">Angela’s hours of free time</text><path style="fill:none;stroke:#6d6e71;stroke-width:.5;stroke-linecap:square;stroke-linejoin:round" d="M76.87 225.99v95.81"/><text transform="translate(65.754 288.278)" style="font-family:'Asap-Regular';font-size:7px">15</text><text transform="translate(65.654 264.433)" style="font-family:'Asap-Regular';font-size:7px">25</text><text transform="translate(65.753 240.18)" style="font-family:'Asap-Regular';font-size:7px">35</text><text transform="translate(68.864 311.99)" style="font-family:'Asap-Regular';font-size:7px">5</text><path style="fill:none;stroke:#3a53a4;stroke-width:.5;stroke-linecap:square;stroke-linejoin:round;stroke-miterlimit:10" d="M124.59 321.39c1.44-3.8 3.56-9.14 6.4-15.4 4.34-9.6 8.39-18.56 14.58-27.66 7.86-11.56 15.85-23.32 30.34-28.1 0 0 10.56-3.49 21.57-1.35 22.41 4.36 41.07 33.88 46.4 73.1"/><line style="fill:none;stroke:#6d6e71;stroke-width:.5;stroke-linecap:square" x1="76.87" y1="321.99" x2="243.87" y2="321.99"/><path style="fill:none;stroke:#27aae1;stroke-width:.5;stroke-linecap:square;stroke-linejoin:round;stroke-miterlimit:10" d="M132.78 321.54c2.06-4.5 5.31-11.05 10-18.51 7.64-12.16 14.36-22.85 26.89-30.03 4.97-2.85 11.16-6.4 19.56-6.55 20.43-.37 34.58 19.69 39.33 26.42 3.84 5.44 9.55 15.09 12.44 29.13"/><text transform="translate(85.499 247.989)"><tspan x="0" y="0" style="font-family:'Asap-Regular';font-size:6px">Bruno’s share when force </tspan><tspan x="0" y="7.2" style="font-family:'Asap-Regular';font-size:6px">allowed and alternative </tspan><tspan x="0" y="14.4" style="font-family:'Asap-Regular';font-size:6px">option is escape or revolt</tspan></text><rect x="157.9" y="295.08" style="fill:#fff" width="3.94" height="21.44"/><rect x="214.04" y="295.08" style="fill:#fff" width="3.94" height="14.18"/><rect x="184.92" y="295.66" style="fill:#fff" width="3.94" height="20.18"/><text transform="translate(150.155 300.198)"><tspan x="0" y="0" style="font-family:'Asap-Regular';font-size:6px">Bruno’s share when force not </tspan><tspan x="0" y="7.2" style="font-family:'Asap-Regular';font-size:6px">allowed and alternative option </tspan><tspan x="0" y="14.4" style="font-family:'Asap-Regular';font-size:6px">is different employment</tspan></text><path style="fill:none;stroke:#263a71;stroke-width:.5;stroke-miterlimit:10" d="M118.56 12.21c6.41 23.33 13.7 42.1 19.56 55.56 7.7 17.72 13.39 30.6 24.44 46 7.24 10.09 16.97 23.42 34 35.78 17.31 12.56 34.65 18.67 47.56 21.78"/><path style="fill:none;stroke:#3b54a4;stroke-width:.5;stroke-miterlimit:10" d="M123 11.78a355.47 355.47 0 0013.55 36.77c8.2 18.99 15.45 35.76 29.93 54.13 8.32 10.56 19.87 24.93 40.08 36.43 13.79 7.85 26.58 11.5 35.33 13.33"/></g></svg>