<svg xmlns="http://www.w3.org/2000/svg" class="prefix__svglite" viewBox="0 0 810 432"><rect width="100%" height="100%" style="stroke:none;fill:#fff;stroke-linecap:round;stroke-linejoin:round;stroke-miterlimit:10"/><defs><clipPath id="prefix__a"><rect x="0" y="0" width="810" height="432" style="fill:none;stroke:#000;stroke-linecap:round;stroke-linejoin:round;stroke-miterlimit:10"/></clipPath></defs><g clip-path="url(#prefix__a)"><rect x="0" y="0" width="810" height="432" style="stroke-width:1.07;stroke:#fff;fill:#fff;stroke-linecap:round;stroke-linejoin:round;stroke-miterlimit:10"/></g><defs><clipPath id="prefix__b"><rect x="5.48" y="5.48" width="415.04" height="398.02" style="fill:none;stroke:#000;stroke-linecap:round;stroke-linejoin:round;stroke-miterlimit:10"/></clipPath></defs><g clip-path="url(#prefix__b)"><rect x="5.48" y="5.48" width="415.04" height="398.02" style="stroke-width:1.07;stroke:#fff;fill:#fff;stroke-linecap:round;stroke-linejoin:round;stroke-miterlimit:10"/></g><g clip-path="url(#prefix__a)"><rect x="112.03" y="52.88" width="294.32" height="245.73" style="stroke-width:1.07;stroke:none;fill:#fff;stroke-linecap:round;stroke-linejoin:round;stroke-miterlimit:10"/><polyline points="121.53 86.5 140.51 85.81 159.5 90.33 178.49 90.73 203.18 108.62 233.56 180.86 250.65 223.91 273.43 165.82 275.33 164.89 277.23 167.02 279.13 169.53 281.03 169.22 282.93 171.62 284.82 177.12 286.72 180.7 288.62 182.69 290.52 182.7 292.42 181.8 294.32 184.08 296.22 182.85 298.12 184.66 300.02 183.99 301.91 185.27 303.81 186.11 305.71 189.46 307.61 191.81 309.51 199.15 311.41 201.06 313.31 201.33 315.21 206.55 317.1 208.14 319 211.28 320.9 213.83 322.8 211.24 324.7 215.03 326.6 218.11 328.5 218.45 330.4 219.38 332.29 221.4 334.19 228.39 336.09 230.17 337.99 230.83 339.89 234.3 341.79 234.88 343.69 233.8 345.59 233.01 347.49 234.6 349.38 235.23 351.28 235.92 353.18 236.18 355.08 237.01 356.98 237.35 358.88 239.52 360.78 239.9 362.68 240.07 364.57 241.08 366.47 241.77 368.37 243.73 370.27 245.74 372.17 249.08 374.07 248.75 375.97 246.43 377.87 246.31 379.77 247.99 381.66 245.85 383.56 245.26 385.46 246.37 387.36 245.55 389.26 244.91 391.16 245.45 393.06 246.89 394.96 247.69 396.85 247.55 398.75 247.3 400.65 248.94" style="stroke-width:1.07;stroke:#4dd9ff;stroke-dasharray:2.85,2.85;stroke-linecap:butt;fill:none;stroke-linejoin:round;stroke-miterlimit:10"/><polyline points="121.53 71.17 140.51 80.11 159.5 91.41 178.49 96.53 203.18 129.26 233.56 187.74 250.65 181.94 273.43 158.22 275.33 160.76 277.23 163.28 279.13 165.76 281.03 168.22 282.93 170.66 284.82 173.07 286.72 175.45 288.62 177.8 290.52 180.14 292.42 182.44 294.32 185.06 296.22 188.71 298.12 191.7 300.02 190.57 301.91 191.97 303.81 194.56 305.71 198.27 307.61 199.49 309.51 201.44 311.41 202.95 313.31 206.1 315.21 208.57 317.1 211.57 319 214.84 320.9 218.75 322.8 217.53 324.7 219.3 326.6 221.18 328.5 222.36 330.4 224.23 332.29 226.4 334.19 227.49 336.09 228.77 337.99 229.85 339.89 232.12 341.79 234 343.69 236.26 345.59 236.76 347.49 239.02 349.38 241.29 351.28 244.15 353.18 243.07 355.08 245.52 356.98 245.87 358.88 246.46 360.78 247.82 362.68 248.71 364.57 249.02 366.47 250.3 368.37 252.81 370.27 253.58 372.17 254.49 374.07 255.03 375.97 255.11 377.87 256.11 379.77 254.07 381.66 253.98 383.56 254.64 385.46 258.8 387.36 256.76 389.26 256.65 391.16 258.51 393.06 259.64 394.96 259.25 396.85 259.22 398.75 259.81 400.65 260.15" style="stroke-width:1.07;stroke:#f49323;stroke-linecap:butt;fill:none;stroke-linejoin:round;stroke-miterlimit:10"/><polyline points="121.53 75.1 140.51 82.96 159.5 91.71 178.49 98.39 203.18 107.73 233.56 177.42 250.65 172.7 273.43 200.6 275.33 202.05 277.23 203.48 279.13 204.9 281.03 206.31 282.93 207.71 284.82 209.1 286.72 210.48 288.62 211.85 290.52 213.21 292.42 214.56 294.32 214.73 296.22 214.89 298.12 215.05 300.02 215.22 301.91 215.38 303.81 215.55 305.71 215.71 307.61 215.87 311.41 216.2 313.31 219.49 315.21 219.67 317.1 222.27 319 227.53 320.9 232.76 322.8 234.32 324.7 236.31 326.6 239.12 328.5 241.23 330.4 241.52 332.29 241.57 334.19 243 336.09 244.47 337.99 245.27 339.89 246.89 341.79 248.36 343.69 250.45 345.59 250.77 347.49 251.23 349.38 251.81 351.28 252.7 353.18 252.07 355.08 253.09 356.98 252.34 358.88 251.28 360.78 249.82 362.68 251.24 364.57 251.56 366.47 251.71 368.37 253 370.27 253.98 372.17 255.72 374.07 256.56 375.97 254.59 377.87 255.99 379.77 256.3 381.66 256.43 383.56 256.49 385.46 257.32 387.36 257.37 389.26 257.31 391.16 258.26 393.06 257.85 394.96 256.78 396.85 256.76 398.75 255.63 400.65 255.68" style="stroke-width:1.07;stroke-linecap:butt;fill:none;stroke:#000;stroke-linejoin:round;stroke-miterlimit:10"/><polyline points="121.53 59.18 140.51 83.65 159.5 108.22 178.49 127.09 203.18 127.09 233.56 185.38 250.65 187.44 273.43 199.8 275.33 200.77 277.23 200.77 279.13 202.69 281.03 201.62 282.93 202.69 284.82 205.15 286.72 205.15 288.62 208.26 290.52 210.82 292.42 211.25 294.32 211.04 296.22 212.22 298.12 212.86 300.02 215.85 301.91 216.92 303.81 218.32 305.71 221.31 307.61 225.59 309.51 227.84 311.41 229.44 313.31 232.54 315.21 236.37 317.1 237.93 319 239.73 320.9 242.06 322.8 240.8 324.7 243.78 326.6 247.42 328.5 248.33 330.4 248.03 332.29 248.85 334.19 247.47 336.09 246.56 337.99 246.34 339.89 245.95 341.79 246.14 343.69 245.15 345.59 243.23 347.49 243.34 349.38 243.7 351.28 245 353.18 243.27 355.08 240.16 356.98 236.35 358.88 235.81 360.78 234.58 362.68 234.1 364.57 234.21 366.47 233.27 368.37 235.37 370.27 237.66 372.17 239.93 374.07 241.28 375.97 238.96 377.87 239.1 379.77 239.25 381.66 237.98 383.56 236.97 385.46 238.35 387.36 235.66 389.26 235.61 391.16 236.95 393.06 237.87 394.96 237.73 396.85 237.58 398.75 236.28 400.65 237.53" style="stroke-width:1.07;stroke:#009147;stroke-dasharray:2.85,2.85;stroke-linecap:butt;fill:none;stroke-linejoin:round;stroke-miterlimit:10"/><polyline points="121.53 128.08 140.51 127.59 159.5 134.56 178.49 135.84 203.18 135.84 233.56 175.06 250.65 180.66 273.43 182.24 275.33 181.38 277.23 184.51 279.13 184.12 281.03 183.72 282.93 183.87 284.82 185.21 286.72 187.32 288.62 190.25 290.52 189.29 292.42 190.14 294.32 193.75 296.22 197.47 298.12 198.3 300.02 198.27 301.91 200.56 303.81 206.06 305.71 207.25 307.61 207.97 309.51 208.91 311.41 213.01 313.31 217.02 315.21 214.93 317.1 214.06 319 215.53 320.9 218.6 322.8 219.29 324.7 218.32 326.6 218.21 328.5 218.46 330.4 221.41 332.29 224.98 334.19 225.34 336.09 225.92 337.99 225.31 339.89 225.08 341.79 225.61 343.69 225.13 345.59 224.43 347.49 224.05 349.38 225.29 351.28 227.79 353.18 228.4 355.08 228.79 356.98 227.78 358.88 227.58 360.78 227.64 362.68 227.72 364.57 228.14 366.47 228.96 368.37 230.5 370.27 230.2 372.17 231.92 374.07 232.82 375.97 233.08 377.87 232.78 379.77 233.35 381.66 233.17 383.56 233.69 385.46 235.87 387.36 235.39 389.26 235.72 391.16 234.23 393.06 233.15 394.96 232.52 396.85 232.81 398.75 232.98 400.65 232.86" style="stroke-width:1.07;stroke:#3a53a4;stroke-dasharray:2.85,2.85,8.54,2.85;stroke-linecap:butt;fill:none;stroke-linejoin:round;stroke-miterlimit:10"/><polyline points="121.53 82.86 140.51 93.87 159.5 109.4 178.49 118.35 203.18 131.12 233.56 172.7 250.65 191.97 273.43 196.39 275.33 197.14 277.23 197.89 279.13 198.64 281.03 199.38 282.93 200.12 284.82 200.86 286.72 201.59 288.62 202.32 290.52 203.05 292.42 203.78 294.32 203.5 296.22 203.23 298.12 202.95 300.02 202.67 301.91 202.39 303.81 202.12 305.71 201.84 307.61 201.56 309.51 201.28 311.41 201 313.31 202.01 315.21 204.4 317.1 207.04 319 209.87 320.9 210.74 322.8 211.04 324.7 213.74 326.6 215.16 328.5 216.4 330.4 217.83 332.29 219.73 334.19 220.82 336.09 222.27 337.99 224.15 339.89 224.76 341.79 225.61 343.69 225.73 345.59 225.78 347.49 227.27 349.38 228.21 351.28 228.45 353.18 227.53 355.08 227.89 356.98 225.75 358.88 227.82 360.78 230.12 362.68 231.04 364.57 230.25 366.47 228.1 368.37 228.56 370.27 232.48 372.17 234.6 374.07 233.29 375.97 230.3 377.87 230.79 379.77 231.85 381.66 232.87 383.56 233.79 385.46 234.65 387.36 237.24 389.26 237.74 391.16 239.32 393.06 241.32 394.96 242.06 396.85 240.67 398.75 240.6 400.65 242.63" style="stroke-width:1.07;stroke:#b9519e;stroke-linecap:butt;fill:none;stroke-linejoin:round;stroke-miterlimit:10"/><circle cx="121.53" cy="86.5" r="3.8" style="stroke-width:1.2;stroke:#4dd9ff;fill:#4dd9ff;stroke-linecap:round;stroke-linejoin:round;stroke-miterlimit:10"/><circle cx="121.53" cy="71.17" r="3.8" style="stroke-width:1.2;stroke:#f49323;fill:#f49323;stroke-linecap:round;stroke-linejoin:round;stroke-miterlimit:10"/><circle cx="121.53" cy="75.1" r="3.8" style="stroke-width:1.2;fill:#000;stroke:#000;stroke-linecap:round;stroke-linejoin:round;stroke-miterlimit:10"/><circle cx="121.53" cy="59.18" r="3.8" style="stroke-width:1.2;stroke:#009147;fill:#009147;stroke-linecap:round;stroke-linejoin:round;stroke-miterlimit:10"/><circle cx="121.53" cy="128.08" r="3.8" style="stroke-width:1.2;stroke:#3a53a4;fill:#3a53a4;stroke-linecap:round;stroke-linejoin:round;stroke-miterlimit:10"/><circle cx="121.53" cy="82.86" r="3.8" style="stroke-width:1.2;stroke:#b9519e;fill:#b9519e;stroke-linecap:round;stroke-linejoin:round;stroke-miterlimit:10"/><polyline points="112.03 298.61 112.03 52.88" style="stroke-width:1.07;stroke:#464646;stroke-linecap:butt;fill:none;stroke-linejoin:round;stroke-miterlimit:10"/><text x="52.88" y="303.02" style="font-size:18px;font-family:Asap" textLength="42.1" lengthAdjust="spacingAndGlyphs">1,000</text><text x="52.88" y="253.88" style="font-size:18px;font-family:Asap" textLength="42.1" lengthAdjust="spacingAndGlyphs">1,500</text><text x="52.88" y="204.73" style="font-size:18px;font-family:Asap" textLength="42.1" lengthAdjust="spacingAndGlyphs">2,000</text><text x="52.88" y="155.59" style="font-size:18px;font-family:Asap" textLength="42.1" lengthAdjust="spacingAndGlyphs">2,500</text><text x="52.88" y="106.44" style="font-size:18px;font-family:Asap" textLength="42.1" lengthAdjust="spacingAndGlyphs">3,000</text><text x="52.88" y="57.29" style="font-size:18px;font-family:Asap" textLength="42.1" lengthAdjust="spacingAndGlyphs">3,500</text><polyline points="104.95 298.61 112.03 298.61" style="stroke-width:1.07;stroke:#464646;stroke-linecap:butt;fill:none;stroke-linejoin:round;stroke-miterlimit:10"/><polyline points="104.95 249.47 112.03 249.47" style="stroke-width:1.07;stroke:#464646;stroke-linecap:butt;fill:none;stroke-linejoin:round;stroke-miterlimit:10"/><polyline points="104.95 200.32 112.03 200.32" style="stroke-width:1.07;stroke:#464646;stroke-linecap:butt;fill:none;stroke-linejoin:round;stroke-miterlimit:10"/><polyline points="104.95 151.18 112.03 151.18" style="stroke-width:1.07;stroke:#464646;stroke-linecap:butt;fill:none;stroke-linejoin:round;stroke-miterlimit:10"/><polyline points="104.95 102.03 112.03 102.03" style="stroke-width:1.07;stroke:#464646;stroke-linecap:butt;fill:none;stroke-linejoin:round;stroke-miterlimit:10"/><polyline points="104.95 52.88 112.03 52.88" style="stroke-width:1.07;stroke:#464646;stroke-linecap:butt;fill:none;stroke-linejoin:round;stroke-miterlimit:10"/><polyline points="112.03 298.61 406.35 298.61" style="stroke-width:1.07;stroke:#464646;stroke-linecap:butt;fill:none;stroke-linejoin:round;stroke-miterlimit:10"/><polyline points="121.53 305.7 121.53 298.61" style="stroke-width:1.07;stroke:#464646;stroke-linecap:butt;fill:none;stroke-linejoin:round;stroke-miterlimit:10"/><polyline points="150.01 305.7 150.01 298.61" style="stroke-width:1.07;stroke:#464646;stroke-linecap:butt;fill:none;stroke-linejoin:round;stroke-miterlimit:10"/><polyline points="178.49 305.7 178.49 298.61" style="stroke-width:1.07;stroke:#464646;stroke-linecap:butt;fill:none;stroke-linejoin:round;stroke-miterlimit:10"/><polyline points="206.97 305.7 206.97 298.61" style="stroke-width:1.07;stroke:#464646;stroke-linecap:butt;fill:none;stroke-linejoin:round;stroke-miterlimit:10"/><polyline points="235.46 305.7 235.46 298.61" style="stroke-width:1.07;stroke:#464646;stroke-linecap:butt;fill:none;stroke-linejoin:round;stroke-miterlimit:10"/><polyline points="263.94 305.7 263.94 298.61" style="stroke-width:1.07;stroke:#464646;stroke-linecap:butt;fill:none;stroke-linejoin:round;stroke-miterlimit:10"/><polyline points="292.42 305.7 292.42 298.61" style="stroke-width:1.07;stroke:#464646;stroke-linecap:butt;fill:none;stroke-linejoin:round;stroke-miterlimit:10"/><polyline points="320.9 305.7 320.9 298.61" style="stroke-width:1.07;stroke:#464646;stroke-linecap:butt;fill:none;stroke-linejoin:round;stroke-miterlimit:10"/><polyline points="349.38 305.7 349.38 298.61" style="stroke-width:1.07;stroke:#464646;stroke-linecap:butt;fill:none;stroke-linejoin:round;stroke-miterlimit:10"/><polyline points="377.87 305.7 377.87 298.61" style="stroke-width:1.07;stroke:#464646;stroke-linecap:butt;fill:none;stroke-linejoin:round;stroke-miterlimit:10"/><polyline points="406.35 305.7 406.35 298.61" style="stroke-width:1.07;stroke:#464646;stroke-linecap:butt;fill:none;stroke-linejoin:round;stroke-miterlimit:10"/><text transform="rotate(-45 472.46 42.03)" style="font-size:18px;font-family:Asap" textLength="38.53" lengthAdjust="spacingAndGlyphs">1870</text><text transform="rotate(-45 486.705 7.64)" style="font-size:18px;font-family:Asap" textLength="38.53" lengthAdjust="spacingAndGlyphs">1885</text><text transform="rotate(-45 500.945 -26.738)" style="font-size:18px;font-family:Asap" textLength="38.53" lengthAdjust="spacingAndGlyphs">1900</text><text transform="rotate(-45 515.185 -61.116)" style="font-size:18px;font-family:Asap" textLength="38.53" lengthAdjust="spacingAndGlyphs">1915</text><text transform="rotate(-45 529.425 -95.495)" style="font-size:18px;font-family:Asap" textLength="38.53" lengthAdjust="spacingAndGlyphs">1930</text><text transform="rotate(-45 543.665 -129.873)" style="font-size:18px;font-family:Asap" textLength="38.53" lengthAdjust="spacingAndGlyphs">1945</text><text transform="rotate(-45 557.91 -164.264)" style="font-size:18px;font-family:Asap" textLength="38.53" lengthAdjust="spacingAndGlyphs">1960</text><text transform="rotate(-45 572.15 -198.642)" style="font-size:18px;font-family:Asap" textLength="38.53" lengthAdjust="spacingAndGlyphs">1975</text><text transform="rotate(-45 586.39 -233.02)" style="font-size:18px;font-family:Asap" textLength="38.53" lengthAdjust="spacingAndGlyphs">1990</text><text transform="rotate(-45 600.63 -267.399)" style="font-size:18px;font-family:Asap" textLength="38.53" lengthAdjust="spacingAndGlyphs">2005</text><text transform="rotate(-45 614.875 -301.79)" style="font-size:18px;font-family:Asap" textLength="38.53" lengthAdjust="spacingAndGlyphs">2020</text><text transform="rotate(-90 151.795 118.095)" style="font-size:20px;font-weight:600;font-family:Asap" textLength="62.52" lengthAdjust="spacingAndGlyphs">Annual</text><text transform="rotate(-90 118.135 84.435)" style="font-size:20px;font-weight:600;font-family:Asap" textLength="49.41" lengthAdjust="spacingAndGlyphs">hours</text><text transform="rotate(-90 91.03 57.33)" style="font-size:20px;font-weight:600;font-family:Asap" textLength="17.88" lengthAdjust="spacingAndGlyphs">of</text><text transform="rotate(-90 79.685 45.985)" style="font-size:20px;font-weight:600;font-family:Asap" textLength="44.06" lengthAdjust="spacingAndGlyphs">work</text><rect x="284.89" y="29.01" width="125.19" height="146.04" style="stroke-width:1.07;stroke:none;fill:#fff;stroke-linecap:round;stroke-linejoin:round;stroke-miterlimit:10"/><line x1="283.89" y1="50.77" x2="305.49" y2="50.77" style="stroke-width:1.2;stroke:#4dd9ff;stroke-dasharray:3.2,3.2;stroke-linecap:butt;fill:none;stroke-linejoin:round;stroke-miterlimit:10"/><circle cx="307.65" cy="50.77" r="4.27" style="stroke-width:.75;stroke:#4dd9ff;fill:#4dd9ff;stroke-linecap:round;stroke-linejoin:round;stroke-miterlimit:10"/><line x1="283.89" y1="72.37" x2="305.49" y2="72.37" style="stroke-width:1.2;stroke:#f49323;stroke-linecap:butt;fill:none;stroke-linejoin:round;stroke-miterlimit:10"/><circle cx="307.65" cy="72.37" r="4.27" style="stroke-width:.75;stroke:#f49323;fill:#f49323;stroke-linecap:round;stroke-linejoin:round;stroke-miterlimit:10"/><line x1="283.89" y1="93.97" x2="305.49" y2="93.97" style="stroke-width:1.2;stroke-linecap:butt;fill:none;stroke:#000;stroke-linejoin:round;stroke-miterlimit:10"/><circle cx="307.65" cy="93.97" r="4.27" style="stroke-width:.75;fill:#000;stroke:#000;stroke-linecap:round;stroke-linejoin:round;stroke-miterlimit:10"/><line x1="283.89" y1="115.57" x2="305.49" y2="115.57" style="stroke-width:1.2;stroke:#009147;stroke-dasharray:3.2,3.2;stroke-linecap:butt;fill:none;stroke-linejoin:round;stroke-miterlimit:10"/><circle cx="307.65" cy="115.57" r="4.27" style="stroke-width:.75;stroke:#009147;fill:#009147;stroke-linecap:round;stroke-linejoin:round;stroke-miterlimit:10"/><line x1="283.89" y1="137.17" x2="305.49" y2="137.17" style="stroke-width:1.2;stroke:#3a53a4;stroke-dasharray:3.2,3.2,9.6,3.2;stroke-linecap:butt;fill:none;stroke-linejoin:round;stroke-miterlimit:10"/><circle cx="307.65" cy="137.17" r="4.27" style="stroke-width:.75;stroke:#3a53a4;fill:#3a53a4;stroke-linecap:round;stroke-linejoin:round;stroke-miterlimit:10"/><line x1="283.89" y1="158.77" x2="305.49" y2="158.77" style="stroke-width:1.2;stroke:#b9519e;stroke-linecap:butt;fill:none;stroke-linejoin:round;stroke-miterlimit:10"/><circle cx="307.65" cy="158.77" r="4.27" style="stroke-width:.75;stroke:#b9519e;fill:#b9519e;stroke-linecap:round;stroke-linejoin:round;stroke-miterlimit:10"/><text x="317.45" y="54.69" style="font-size:16px;font-family:Asap" textLength="47.92" lengthAdjust="spacingAndGlyphs">France</text><text x="317.45" y="76.29" style="font-size:16px;font-family:Asap" textLength="64.12" lengthAdjust="spacingAndGlyphs">Germany</text><text x="317.45" y="97.89" style="font-size:16px;font-family:Asap" textLength="87.15" lengthAdjust="spacingAndGlyphs">Netherlands</text><text x="317.45" y="119.49" style="font-size:16px;font-family:Asap" textLength="55.15" lengthAdjust="spacingAndGlyphs">Sweden</text><text x="317.45" y="141.09" style="font-size:16px;font-family:Asap" textLength="20.61" lengthAdjust="spacingAndGlyphs">UK</text><text x="317.45" y="162.69" style="font-size:16px;font-family:Asap" textLength="83.39" lengthAdjust="spacingAndGlyphs">Switzerland</text><text x="112.03" y="33.7" style="font-size:20px;font-weight:600;font-family:Asap" textLength="12.26" lengthAdjust="spacingAndGlyphs">A</text></g><defs><clipPath id="prefix__c"><rect x="420.52" y="5.48" width="384" height="398.02" style="fill:none;stroke:#000;stroke-linecap:round;stroke-linejoin:round;stroke-miterlimit:10"/></clipPath></defs><g clip-path="url(#prefix__c)"><rect x="420.52" y="5.48" width="384" height="398.02" style="stroke-width:1.07;stroke:#fff;fill:#fff;stroke-linecap:round;stroke-linejoin:round;stroke-miterlimit:10"/></g><g clip-path="url(#prefix__a)"><rect x="496.03" y="52.88" width="294.32" height="245.73" style="stroke-width:1.07;stroke:none;fill:#fff;stroke-linecap:round;stroke-linejoin:round;stroke-miterlimit:10"/><polyline points="505.52 123.46 524.51 136.73 543.5 151.08 562.49 162.48 587.17 179.29 617.56 182.04 634.64 189.61 657.43 183.52 659.33 185.49 661.23 187.45 663.13 189.39 665.03 191.31 666.92 193.21 668.82 195.09 670.72 196.96 672.62 198.81 674.52 200.64 676.42 202.45 678.32 202.81 680.22 203.17 682.11 203.53 684.01 203.88 685.91 204.24 687.81 204.6 689.71 204.95 691.61 205.3 693.51 205.66 695.41 206.01 697.31 207.84 699.2 209.84 701.1 211.15 703 209.46 704.9 210.76 706.8 209.74 708.7 209.56 710.6 209.48 712.5 208.95 714.39 209.19 716.29 210.66 718.19 213.03 720.09 214.38 721.99 212.3 723.89 213.17 725.79 212.72 727.69 212.94 729.59 213.31 731.48 212.33 733.38 213.69 735.28 215.02 737.18 215.4 739.08 213.71 740.98 213.1 742.88 213.07 744.78 213.71 746.67 213.97 748.57 215.4 750.47 215.21 752.37 215.31 754.27 218.59 756.17 219.18 758.07 219.82 759.97 220.04 761.87 220.27 763.76 221.27 765.66 221.33 767.56 221.31 769.46 224.11 771.36 223.58 773.26 223.39 775.16 224.18 777.06 224.28 778.95 225.24 780.85 225.24 782.75 226.26 784.65 226.19" style="stroke-width:1.07;stroke:#009147;stroke-linecap:butt;fill:none;stroke-linejoin:round;stroke-miterlimit:10"/><polyline points="505.52 117.27 524.51 108.52 543.5 100.36 562.49 92 587.17 115 617.56 165.53 634.64 179.48 657.43 179.76 659.33 181.23 661.23 182.44 663.13 182.58 665.03 183.36 666.92 185.12 668.82 186.34 670.72 188.23 672.62 189.74 674.52 190.06 676.42 191.4 678.32 193.78 680.22 193.93 682.11 195.37 684.01 196.48 685.91 198.24 687.81 200.8 689.71 201.74 691.61 204.11 693.51 205.98 695.41 207.69 697.31 208.97 699.2 209.76 701.1 210.35 703 211.03 704.9 212.9 706.8 213.88 708.7 216.64 710.6 216.44 712.5 215.95 714.39 217.33 716.29 218.8 718.19 221.12 720.09 221.92 721.99 220.85 723.89 220.48 725.79 220.12 727.69 219.29 729.59 219.21 731.48 219.7 733.38 220.44 735.28 222.52 737.18 222.69 739.08 222.82 740.98 221.45 742.88 221.45 744.78 220.1 746.67 220.31 748.57 220.7 750.47 220.78 752.37 221.34 754.27 222.63 756.17 224.46 758.07 225.5 759.97 224.52 761.87 225.48 763.76 225.53 765.66 225.59 767.56 225.85 769.46 228.74 771.36 228.41 773.26 228.56 775.16 227.78 777.06 228.34 778.95 228.86 780.85 228.75 782.75 229.3 784.65 230.42" style="stroke-width:1.07;stroke:#4dd9ff;stroke-linecap:butt;fill:none;stroke-linejoin:round;stroke-miterlimit:10"/><polyline points="505.52 107.44 543.5 124.64 587.17 142.52 617.56 164.54 634.64 161.89 657.43 197.33 659.33 199.04 661.23 200.74 663.13 202.43 665.03 199.44 666.92 196.93 668.82 191.97 670.72 189.7 672.62 187.23 674.52 184.96 676.42 183.33 678.32 183.09 680.22 185.31 682.11 185.94 684.01 185.23 685.91 187.04 687.81 186.27 689.71 184.93 691.61 184.56 693.51 185.87 695.41 186.83 697.31 187.61 699.2 187.38 701.1 188.77 703 194.55 704.9 197.35 706.8 194.67 708.7 194.03 710.6 193.64 712.5 193.17 714.39 193.05 716.29 193.56 718.19 193.58 720.09 192.96 721.99 191.55 723.89 192.78 725.79 192.61 727.69 192.07 729.59 192.41 731.48 194.29 733.38 197.53 735.28 199.27 737.18 204.04 739.08 207.52 740.98 209.26 742.88 209.01 744.78 208.7 746.67 211.42 748.57 213.44 750.47 214.98 752.37 214.23 754.27 215.74 756.17 216.97 758.07 216.62 759.97 215.86 761.87 217.21 763.76 216.4 765.66 217.34 767.56 219.22 769.46 224.14 771.36 222.01 773.26 222.41 775.16 221.28 777.06 223.27 778.95 223.7 780.85 224.22 782.75 225.18 784.65 225.51" style="stroke-width:1.07;stroke:#f49323;stroke-dasharray:2.85,2.85;stroke-linecap:butt;fill:none;stroke-linejoin:round;stroke-miterlimit:10"/><polyline points="505.52 128.08 524.51 127.59 543.5 134.56 562.49 135.84 587.17 135.84 617.56 175.06 634.64 180.66 657.43 182.24 659.33 181.38 661.23 184.51 663.13 184.12 665.03 183.72 666.92 183.87 668.82 185.21 670.72 187.32 672.62 190.25 674.52 189.29 676.42 190.14 678.32 193.75 680.22 197.47 682.11 198.3 684.01 198.27 685.91 200.56 687.81 206.06 689.71 207.25 691.61 207.97 693.51 208.91 695.41 213.01 697.31 217.02 699.2 214.93 701.1 214.06 703 215.53 704.9 218.6 706.8 219.29 708.7 218.32 710.6 218.21 712.5 218.46 714.39 221.41 716.29 224.98 718.19 225.34 720.09 225.92 721.99 225.31 723.89 225.08 725.79 225.61 727.69 225.13 729.59 224.43 731.48 224.05 733.38 225.29 735.28 227.79 737.18 228.4 739.08 228.79 740.98 227.78 742.88 227.58 744.78 227.64 746.67 227.72 748.57 228.14 750.47 228.96 752.37 230.5 754.27 230.2 756.17 231.92 758.07 232.82 759.97 233.08 761.87 232.78 763.76 233.35 765.66 233.17 767.56 233.69 769.46 235.87 771.36 235.39 773.26 235.72 775.16 234.23 777.06 233.15 778.95 232.52 780.85 232.81 782.75 232.98 784.65 232.86" style="stroke-width:1.07;stroke:#3a53a4;stroke-dasharray:2.85,2.85,8.54,2.85;stroke-linecap:butt;fill:none;stroke-linejoin:round;stroke-miterlimit:10"/><polyline points="505.52 92.59 524.51 97.71 543.5 103.7 562.49 108.12 587.17 111.86 617.56 169.26 634.64 224.3 657.43 201.29 659.33 197.21 661.23 197.59 663.13 198.21 665.03 200.5 666.92 199.77 668.82 201.26 670.72 204 672.62 207.35 674.52 204.86 676.42 206.68 678.32 208.11 680.22 206.2 682.11 207.35 684.01 206.7 685.91 204.73 687.81 203.87 689.71 206.11 691.61 206.47 693.51 206.41 695.41 210.8 697.31 212.35 699.2 212.68 701.1 212.84 703 215.58 704.9 218.68 706.8 219.07 708.7 219.06 710.6 218.43 712.5 218.24 714.39 219.82 716.29 220.96 718.19 222.86 720.09 221.96 721.99 220.41 723.89 219.87 725.79 221.86 727.69 221.11 729.59 220.15 731.48 218.97 733.38 220.41 735.28 221.22 737.18 222.45 739.08 220.97 740.98 219.21 742.88 218.26 744.78 217.67 746.67 217.18 748.57 216.13 750.47 215.92 752.37 215.57 754.27 217.65 756.17 219.32 758.07 220.88 759.97 221.01 761.87 221.26 763.76 221.22 765.66 221.37 767.56 223.34 769.46 227 771.36 226.37 773.26 225.39 775.16 225.2 777.06 224.64 778.95 224.08 780.85 222.93 782.75 223.25 784.65 223.54" style="stroke-width:1.07;stroke:#ed1f24;stroke-dasharray:2.85,2.85;stroke-linecap:butt;fill:none;stroke-linejoin:round;stroke-miterlimit:10"/><circle cx="505.52" cy="123.46" r="3.8" style="stroke-width:1.2;stroke:#009147;fill:#009147;stroke-linecap:round;stroke-linejoin:round;stroke-miterlimit:10"/><circle cx="505.52" cy="117.27" r="3.8" style="stroke-width:1.2;stroke:#4dd9ff;fill:#4dd9ff;stroke-linecap:round;stroke-linejoin:round;stroke-miterlimit:10"/><circle cx="505.52" cy="107.44" r="3.8" style="stroke-width:1.2;stroke:#f49323;fill:#f49323;stroke-linecap:round;stroke-linejoin:round;stroke-miterlimit:10"/><circle cx="505.52" cy="128.08" r="3.8" style="stroke-width:1.2;stroke:#3a53a4;fill:#3a53a4;stroke-linecap:round;stroke-linejoin:round;stroke-miterlimit:10"/><circle cx="505.52" cy="92.59" r="3.8" style="stroke-width:1.2;stroke:#ed1f24;fill:#ed1f24;stroke-linecap:round;stroke-linejoin:round;stroke-miterlimit:10"/><polyline points="496.03 298.61 496.03 52.88" style="stroke-width:1.07;stroke:#464646;stroke-linecap:butt;fill:none;stroke-linejoin:round;stroke-miterlimit:10"/><text x="436.88" y="303.02" style="font-size:18px;font-family:Asap" textLength="42.1" lengthAdjust="spacingAndGlyphs">1,000</text><text x="436.88" y="253.88" style="font-size:18px;font-family:Asap" textLength="42.1" lengthAdjust="spacingAndGlyphs">1,500</text><text x="436.88" y="204.73" style="font-size:18px;font-family:Asap" textLength="42.1" lengthAdjust="spacingAndGlyphs">2,000</text><text x="436.88" y="155.59" style="font-size:18px;font-family:Asap" textLength="42.1" lengthAdjust="spacingAndGlyphs">2,500</text><text x="436.88" y="106.44" style="font-size:18px;font-family:Asap" textLength="42.1" lengthAdjust="spacingAndGlyphs">3,000</text><text x="436.88" y="57.29" style="font-size:18px;font-family:Asap" textLength="42.1" lengthAdjust="spacingAndGlyphs">3,500</text><polyline points="488.94 298.61 496.03 298.61" style="stroke-width:1.07;stroke:#464646;stroke-linecap:butt;fill:none;stroke-linejoin:round;stroke-miterlimit:10"/><polyline points="488.94 249.47 496.03 249.47" style="stroke-width:1.07;stroke:#464646;stroke-linecap:butt;fill:none;stroke-linejoin:round;stroke-miterlimit:10"/><polyline points="488.94 200.32 496.03 200.32" style="stroke-width:1.07;stroke:#464646;stroke-linecap:butt;fill:none;stroke-linejoin:round;stroke-miterlimit:10"/><polyline points="488.94 151.18 496.03 151.18" style="stroke-width:1.07;stroke:#464646;stroke-linecap:butt;fill:none;stroke-linejoin:round;stroke-miterlimit:10"/><polyline points="488.94 102.03 496.03 102.03" style="stroke-width:1.07;stroke:#464646;stroke-linecap:butt;fill:none;stroke-linejoin:round;stroke-miterlimit:10"/><polyline points="488.94 52.88 496.03 52.88" style="stroke-width:1.07;stroke:#464646;stroke-linecap:butt;fill:none;stroke-linejoin:round;stroke-miterlimit:10"/><polyline points="496.03 298.61 790.35 298.61" style="stroke-width:1.07;stroke:#464646;stroke-linecap:butt;fill:none;stroke-linejoin:round;stroke-miterlimit:10"/><polyline points="505.52 305.7 505.52 298.61" style="stroke-width:1.07;stroke:#464646;stroke-linecap:butt;fill:none;stroke-linejoin:round;stroke-miterlimit:10"/><polyline points="534.01 305.7 534.01 298.61" style="stroke-width:1.07;stroke:#464646;stroke-linecap:butt;fill:none;stroke-linejoin:round;stroke-miterlimit:10"/><polyline points="562.49 305.7 562.49 298.61" style="stroke-width:1.07;stroke:#464646;stroke-linecap:butt;fill:none;stroke-linejoin:round;stroke-miterlimit:10"/><polyline points="590.97 305.7 590.97 298.61" style="stroke-width:1.07;stroke:#464646;stroke-linecap:butt;fill:none;stroke-linejoin:round;stroke-miterlimit:10"/><polyline points="619.45 305.7 619.45 298.61" style="stroke-width:1.07;stroke:#464646;stroke-linecap:butt;fill:none;stroke-linejoin:round;stroke-miterlimit:10"/><polyline points="647.94 305.7 647.94 298.61" style="stroke-width:1.07;stroke:#464646;stroke-linecap:butt;fill:none;stroke-linejoin:round;stroke-miterlimit:10"/><polyline points="676.42 305.7 676.42 298.61" style="stroke-width:1.07;stroke:#464646;stroke-linecap:butt;fill:none;stroke-linejoin:round;stroke-miterlimit:10"/><polyline points="704.9 305.7 704.9 298.61" style="stroke-width:1.07;stroke:#464646;stroke-linecap:butt;fill:none;stroke-linejoin:round;stroke-miterlimit:10"/><polyline points="733.38 305.7 733.38 298.61" style="stroke-width:1.07;stroke:#464646;stroke-linecap:butt;fill:none;stroke-linejoin:round;stroke-miterlimit:10"/><polyline points="761.87 305.7 761.87 298.61" style="stroke-width:1.07;stroke:#464646;stroke-linecap:butt;fill:none;stroke-linejoin:round;stroke-miterlimit:10"/><polyline points="790.35 305.7 790.35 298.61" style="stroke-width:1.07;stroke:#464646;stroke-linecap:butt;fill:none;stroke-linejoin:round;stroke-miterlimit:10"/><text transform="rotate(-45 664.46 -421.498)" style="font-size:18px;font-family:Asap" textLength="38.53" lengthAdjust="spacingAndGlyphs">1870</text><text transform="rotate(-45 678.7 -455.877)" style="font-size:18px;font-family:Asap" textLength="38.53" lengthAdjust="spacingAndGlyphs">1885</text><text transform="rotate(-45 692.945 -490.267)" style="font-size:18px;font-family:Asap" textLength="38.53" lengthAdjust="spacingAndGlyphs">1900</text><text transform="rotate(-45 707.185 -524.646)" style="font-size:18px;font-family:Asap" textLength="38.53" lengthAdjust="spacingAndGlyphs">1915</text><text transform="rotate(-45 721.425 -559.024)" style="font-size:18px;font-family:Asap" textLength="38.53" lengthAdjust="spacingAndGlyphs">1930</text><text transform="rotate(-45 735.665 -593.402)" style="font-size:18px;font-family:Asap" textLength="38.53" lengthAdjust="spacingAndGlyphs">1945</text><text transform="rotate(-45 749.91 -627.793)" style="font-size:18px;font-family:Asap" textLength="38.53" lengthAdjust="spacingAndGlyphs">1960</text><text transform="rotate(-45 764.15 -662.171)" style="font-size:18px;font-family:Asap" textLength="38.53" lengthAdjust="spacingAndGlyphs">1975</text><text transform="rotate(-45 778.39 -696.55)" style="font-size:18px;font-family:Asap" textLength="38.53" lengthAdjust="spacingAndGlyphs">1990</text><text transform="rotate(-45 792.63 -730.928)" style="font-size:18px;font-family:Asap" textLength="38.53" lengthAdjust="spacingAndGlyphs">2005</text><text transform="rotate(-45 806.87 -765.306)" style="font-size:18px;font-family:Asap" textLength="38.53" lengthAdjust="spacingAndGlyphs">2020</text><rect x="680.92" y="39.81" width="101.12" height="124.44" style="stroke-width:1.07;stroke:none;fill:#fff;stroke-linecap:round;stroke-linejoin:round;stroke-miterlimit:10"/><line x1="679.92" y1="61.57" x2="701.52" y2="61.57" style="stroke-width:1.2;stroke:#009147;stroke-linecap:butt;fill:none;stroke-linejoin:round;stroke-miterlimit:10"/><circle cx="703.68" cy="61.57" r="4.27" style="stroke-width:.75;stroke:#009147;fill:#009147;stroke-linecap:round;stroke-linejoin:round;stroke-miterlimit:10"/><line x1="679.92" y1="83.17" x2="701.52" y2="83.17" style="stroke-width:1.2;stroke:#4dd9ff;stroke-linecap:butt;fill:none;stroke-linejoin:round;stroke-miterlimit:10"/><circle cx="703.68" cy="83.17" r="4.27" style="stroke-width:.75;stroke:#4dd9ff;fill:#4dd9ff;stroke-linecap:round;stroke-linejoin:round;stroke-miterlimit:10"/><line x1="679.92" y1="104.77" x2="701.52" y2="104.77" style="stroke-width:1.2;stroke:#f49323;stroke-dasharray:3.2,3.2;stroke-linecap:butt;fill:none;stroke-linejoin:round;stroke-miterlimit:10"/><circle cx="703.68" cy="104.77" r="4.27" style="stroke-width:.75;stroke:#f49323;fill:#f49323;stroke-linecap:round;stroke-linejoin:round;stroke-miterlimit:10"/><line x1="679.92" y1="126.37" x2="701.52" y2="126.37" style="stroke-width:1.2;stroke:#3a53a4;stroke-dasharray:3.2,3.2,9.6,3.2;stroke-linecap:butt;fill:none;stroke-linejoin:round;stroke-miterlimit:10"/><circle cx="703.68" cy="126.37" r="4.27" style="stroke-width:.75;stroke:#3a53a4;fill:#3a53a4;stroke-linecap:round;stroke-linejoin:round;stroke-miterlimit:10"/><line x1="679.92" y1="147.97" x2="701.52" y2="147.97" style="stroke-width:1.2;stroke:#ed1f24;stroke-dasharray:3.2,3.2;stroke-linecap:butt;fill:none;stroke-linejoin:round;stroke-miterlimit:10"/><circle cx="703.68" cy="147.97" r="4.27" style="stroke-width:.75;stroke:#ed1f24;fill:#ed1f24;stroke-linecap:round;stroke-linejoin:round;stroke-miterlimit:10"/><text x="713.48" y="65.49" style="font-size:16px;font-family:Asap" textLength="63.09" lengthAdjust="spacingAndGlyphs">Australia</text><text x="713.48" y="87.09" style="font-size:16px;font-family:Asap" textLength="54.01" lengthAdjust="spacingAndGlyphs">Canada</text><text x="713.48" y="108.69" style="font-size:16px;font-family:Asap" textLength="41.95" lengthAdjust="spacingAndGlyphs">Japan</text><text x="713.48" y="130.29" style="font-size:16px;font-family:Asap" textLength="20.61" lengthAdjust="spacingAndGlyphs">UK</text><text x="713.48" y="151.89" style="font-size:16px;font-family:Asap" textLength="19.39" lengthAdjust="spacingAndGlyphs">US</text><text x="496.03" y="33.7" style="font-size:20px;font-weight:600;font-family:Asap" textLength="11.86" lengthAdjust="spacingAndGlyphs">B</text><text x="441.61" y="422.45" text-anchor="middle" style="font-size:19.2px;font-weight:600;font-family:Asap" textLength="38.54" lengthAdjust="spacingAndGlyphs">Year</text></g></svg>