<svg version="1.1" xmlns="http://www.w3.org/2000/svg" xmlns:xlink="http://www.w3.org/1999/xlink" x="0" y="0" viewBox="0 0 311.81 209.43" style="enable-background:new 0 0 311.81 209.43" xml:space="preserve"><g style="display:none"><g style="display:inline"><defs><polygon id="prefix__a" points="29.59 2158.39 311.72 2158.39 311.72 1951.5 29.59 1951.5 29.59 2158.39"/></defs><clipPath id="prefix__b"><use xlink:href="#prefix__a" style="overflow:visible"/></clipPath><polyline points="29.91 -1038.43 38.88 107.1 47.22 729.03 56.2 1104.49 65.17 1348.41 73.51 1515.06 82.49 1634.47 91.46 1722.59 100.44 1790.27 108.78 1842.63 117.75 1884.14 126.73 1917.34 135.07 1944.8 144.04 1967.78 153.02 1986.3 162 2002.9 170.33 2016.31 179.31 2028.44 188.29 2038.66 196.62 2047.6 205.6 2055.26 214.58 2062.29 223.55 2068.03 231.89 2073.78 240.87 2078.89 249.84 2083.36 258.18 2087.19 267.16 2090.38 276.13 2094.21 285.11 2096.77 293.45 2099.32 302.42 2101.88 311.4 2104.43"/></g><g style="display:inline"><defs><polygon id="prefix__c" points="8.8 2433.93 338.8 2433.93 338.8 2190.81 8.8 2190.81 8.8 2433.93"/></defs><clipPath id="prefix__d"><use xlink:href="#prefix__c" style="overflow:visible"/></clipPath><polyline points="8.92 -1321.35 19.24 24.21 29.44 755.25 39.76 1195.89 50.08 1481.97 60.4 1678.05 70.6 1818.33 80.92 1922.13 91.24 2001.09 101.56 2062.53 111.76 2111.25 122.08 2150.61 132.4 2182.77 142.6 2209.53 152.92 2231.85 163.24 2250.69 173.56 2266.89 183.76 2280.81 194.08 2292.81 204.4 2303.37 214.72 2312.61 224.92 2320.77 235.24 2327.97 245.56 2334.33 255.76 2340.09 266.08 2345.25 276.4 2349.93 286.72 2354.13 296.92 2357.97 307.24 2361.45 317.56 2364.69 327.88 2367.57 338.08 2370.21"/></g><g style="display:inline"><defs><polygon id="prefix__e" points="8.8 2433.93 338.8 2433.93 338.8 2190.81 8.8 2190.81 8.8 2433.93"/></defs><clipPath id="prefix__f"><use xlink:href="#prefix__e" style="overflow:visible"/></clipPath><polyline points="8.92 -1321.35 19.24 24.21 29.44 755.25 39.76 1195.89 50.08 1481.97 60.4 1678.05 70.6 1818.33 80.92 1922.13 91.24 2001.09 101.56 2062.53 111.76 2111.25 122.08 2150.61 132.4 2182.77 142.6 2209.53 152.92 2231.85 163.24 2250.69 173.56 2266.89 183.76 2280.81 194.08 2292.81 204.4 2303.37 214.72 2312.61 224.92 2320.77 235.24 2327.97 245.56 2334.33 255.76 2340.09 266.08 2345.25 276.4 2349.93 286.72 2354.13 296.92 2357.97 307.24 2361.45 317.56 2364.69 327.88 2367.57 338.08 2370.21"/></g><g style="display:inline"><defs><polygon id="prefix__g" points="8.8 2433.93 338.8 2433.93 338.8 2190.81 8.8 2190.81 8.8 2433.93"/></defs><clipPath id="prefix__h"><use xlink:href="#prefix__g" style="overflow:visible"/></clipPath><polyline points="8.92 -1321.35 19.24 24.21 29.44 755.25 39.76 1195.89 50.08 1481.97 60.4 1678.05 70.6 1818.33 80.92 1922.13 91.24 2001.09 101.56 2062.53 111.76 2111.25 122.08 2150.61 132.4 2182.77 142.6 2209.53 152.92 2231.85 163.24 2250.69 173.56 2266.89 183.76 2280.81 194.08 2292.81 204.4 2303.37 214.72 2312.61 224.92 2320.77 235.24 2327.97 245.56 2334.33 255.76 2340.09 266.08 2345.25 276.4 2349.93 286.72 2354.13 296.92 2357.97 307.24 2361.45 317.56 2364.69 327.88 2367.57 338.08 2370.21"/></g><g style="display:inline;opacity:.46"><defs><polygon id="prefix__i" points="41.16 661.29 289.45 661.29 289.45 478.37 41.16 478.37 41.16 661.29"/></defs><clipPath id="prefix__j"><use xlink:href="#prefix__i" style="overflow:visible"/></clipPath><polyline points="41.16 87.07 48.92 289.04 56.69 398.83 64.45 464.92 72.13 507.9 79.89 537.33 87.66 558.37 95.33 573.99 103.09 585.81 110.86 595.02 118.62 602.34 126.3 608.3 134.06 613.08 141.83 617.05 149.59 620.48 157.27 623.28 165.03 625.72 172.8 627.8 180.56 629.6 188.23 631.23 196 632.58 203.76 633.76 211.44 634.84 219.2 635.83 226.97 636.74 234.73 637.46 242.41 638.18 250.17 638.81 257.94 639.35 265.7 639.9 273.37 640.35 281.14 640.8 288.9 641.25"/><g><defs><polygon id="prefix__k" points="41.16 661.29 289.45 661.29 289.45 478.37 41.16 478.37 41.16 661.29"/></defs><clipPath id="prefix__l"><use xlink:href="#prefix__k" style="overflow:visible"/></clipPath><polyline points="41.16 -824.55 48.92 -294.39 56.69 -6.37 64.45 167.25 72.13 279.92 79.89 357.21 87.66 412.56 95.33 453.45 103.09 484.51 110.86 508.71 118.62 527.94 126.3 543.38 134.06 556.11 141.83 566.58 149.59 575.43 157.27 582.83 165.03 589.25 172.8 594.75 180.56 599.45 188.23 603.6 196 607.21 203.76 610.46 211.44 613.26 219.2 615.79 226.97 618.14 234.73 620.12 242.41 621.93 250.17 623.64 257.94 625.18 265.7 626.53 273.37 627.8 281.14 628.88 288.9 629.96"/></g><g><defs><polygon id="prefix__m" points="41.16 661.29 289.45 661.29 289.45 478.37 41.16 478.37 41.16 661.29"/></defs><clipPath id="prefix__n"><use xlink:href="#prefix__m" style="overflow:visible"/></clipPath><polyline points="41.16 -2164.03 48.92 -1151.65 56.69 -601.72 64.45 -270.1 72.13 -54.86 79.89 92.67 87.66 198.22 95.33 276.31 103.09 335.72 110.86 381.95 118.62 418.6 126.3 448.13 134.06 472.42 141.83 492.46 149.59 509.25 157.27 523.52 165.03 535.71 172.8 546.09 180.56 555.21 188.23 563.06 196 570.01 203.76 576.15 211.44 581.57 219.2 586.45 226.97 590.78 234.73 594.66 242.41 598.18 250.17 601.34 257.94 604.23 265.7 606.85 273.37 609.2 281.14 611.46 288.9 613.44"/></g></g></g><line style="fill:none;stroke:#939598;stroke-width:.5;stroke-linecap:square;stroke-linejoin:round;stroke-dasharray:1.4173" x1="231.29" y1="182.67" x2="231.29" y2="112.67"/><line style="fill:none;stroke:#939598;stroke-width:.5;stroke-linecap:square;stroke-linejoin:round;stroke-dasharray:1.4173" x1="153.88" y1="181.82" x2="153.88" y2="29.83"/><line style="fill:none;stroke:#6d6e71;stroke-width:.5;stroke-linecap:square" x1="45.5" y1="181.89" x2="293" y2="181.89"/><text transform="translate(35.473 184.02)" style="font-family:'Asap-Regular';font-size:7px">0</text><text transform="translate(28.658 155.904)" style="font-family:'Asap-Regular';font-size:7px">100</text><text transform="translate(28.581 127.788)" style="font-family:'Asap-Regular';font-size:7px">200</text><text transform="translate(28.623 99.672)" style="font-family:'Asap-Regular';font-size:7px">300</text><text transform="translate(28.812 71.556)" style="font-family:'Asap-Regular';font-size:7px">400</text><text transform="translate(28.609 43.44)" style="font-family:'Asap-Regular';font-size:7px">500</text><text transform="translate(28.581 15.324)" style="font-family:'Asap-Regular';font-size:7px">600</text><text transform="matrix(0 -.9726 1 0 17.469 139.763)" style="font-family:'Asap-Medium';font-size:8px">Consumption spending (€)</text><text transform="translate(56.212 192.913)" style="font-family:'Asap-Regular';font-size:7px">9</text><text transform="translate(68.203 192.914)" style="font-family:'Asap-Regular';font-size:7px">10</text><text transform="translate(83.938 192.913)" style="font-family:'Asap-Regular';font-size:7px">11</text><text transform="translate(99.673 192.914)" style="font-family:'Asap-Regular';font-size:7px">12</text><text transform="translate(115.408 192.913)" style="font-family:'Asap-Regular';font-size:7px">13</text><text transform="translate(131.143 192.914)" style="font-family:'Asap-Regular';font-size:7px">14</text><text transform="translate(146.878 192.913)" style="font-family:'Asap-Regular';font-size:7px">15</text><text transform="translate(162.613 192.913)" style="font-family:'Asap-Regular';font-size:7px">16</text><text transform="translate(178.348 192.914)" style="font-family:'Asap-Regular';font-size:7px">17</text><text transform="translate(194.083 192.914)" style="font-family:'Asap-Regular';font-size:7px">18</text><text transform="translate(209.818 192.914)" style="font-family:'Asap-Regular';font-size:7px">19</text><text transform="translate(225.553 192.914)" style="font-family:'Asap-Regular';font-size:7px">20</text><text transform="translate(241.288 192.913)" style="font-family:'Asap-Regular';font-size:7px">21</text><text transform="translate(257.024 192.913)" style="font-family:'Asap-Regular';font-size:7px">22</text><text transform="translate(272.758 192.913)" style="font-family:'Asap-Regular';font-size:7px">23</text><text transform="translate(288.493 192.913)" style="font-family:'Asap-Regular';font-size:7px">24</text><text transform="translate(236.422 109.485)" style="font-family:'Asap-Regular';font-size:7px">D</text><text transform="translate(159.422 29.485)" style="font-family:'Asap-Regular';font-size:7px">A</text><text transform="translate(122.45 206.763)" style="font-family:'Asap-Medium';font-size:8px">Hours of free time per day</text><text transform="translate(115.704 26.51)" style="font-family:'Asap-Regular';font-size:7px">B</text><line style="fill:none;stroke:#6d6e71;stroke-width:.5;stroke-linecap:square" x1="293.21" y1="184.02" x2="293.21" y2="181.89"/><line style="fill:none;stroke:#6d6e71;stroke-width:.5;stroke-linecap:square" x1="277.73" y1="181.89" x2="277.73" y2="184.02"/><line style="fill:none;stroke:#6d6e71;stroke-width:.5;stroke-linecap:square" x1="262.25" y1="181.89" x2="262.25" y2="184.02"/><line style="fill:none;stroke:#6d6e71;stroke-width:.5;stroke-linecap:square" x1="246.77" y1="181.89" x2="246.77" y2="184.02"/><line style="fill:none;stroke:#6d6e71;stroke-width:.5;stroke-linecap:square" x1="231.29" y1="181.89" x2="231.29" y2="184.02"/><line style="fill:none;stroke:#6d6e71;stroke-width:.5;stroke-linecap:square" x1="215.8" y1="181.89" x2="215.8" y2="184.02"/><line style="fill:none;stroke:#6d6e71;stroke-width:.5;stroke-linecap:square" x1="200.32" y1="181.89" x2="200.32" y2="184.02"/><line style="fill:none;stroke:#6d6e71;stroke-width:.5;stroke-linecap:square" x1="184.84" y1="181.89" x2="184.84" y2="184.02"/><line style="fill:none;stroke:#6d6e71;stroke-width:.5;stroke-linecap:square" x1="169.36" y1="181.89" x2="169.36" y2="184.02"/><line style="fill:none;stroke:#6d6e71;stroke-width:.5;stroke-linecap:square" x1="153.88" y1="181.89" x2="153.88" y2="184.02"/><line style="fill:none;stroke:#6d6e71;stroke-width:.5;stroke-linecap:square" x1="138.39" y1="181.89" x2="138.39" y2="184.02"/><line style="fill:none;stroke:#6d6e71;stroke-width:.5;stroke-linecap:square" x1="122.91" y1="181.89" x2="122.91" y2="184.02"/><line style="fill:none;stroke:#6d6e71;stroke-width:.5;stroke-linecap:square" x1="107.43" y1="181.89" x2="107.43" y2="184.02"/><line style="fill:none;stroke:#6d6e71;stroke-width:.5;stroke-linecap:square" x1="91.95" y1="181.89" x2="91.95" y2="184.02"/><line style="fill:none;stroke:#6d6e71;stroke-width:.5;stroke-linecap:square" x1="76.46" y1="181.89" x2="76.46" y2="184.02"/><line style="fill:none;stroke:#6d6e71;stroke-width:.5;stroke-linecap:square" x1="60.98" y1="181.89" x2="60.98" y2="184.02"/><line style="fill:none;stroke:#6d6e71;stroke-width:.5;stroke-linecap:square" x1="45.5" y1="181.89" x2="45.5" y2="184.02"/><line style="fill:none;stroke:#6d6e71;stroke-width:.5;stroke-linecap:square;stroke-linejoin:round" x1="45.04" y1="41.02" x2="42.91" y2="41.02"/><line style="fill:none;stroke:#6d6e71;stroke-width:.5;stroke-linecap:square;stroke-linejoin:round" x1="45.04" y1="13.02" x2="42.91" y2="13.02"/><line style="fill:none;stroke:#6d6e71;stroke-width:.5;stroke-linecap:square;stroke-linejoin:round" x1="45.04" y1="68.59" x2="42.91" y2="68.59"/><line style="fill:none;stroke:#6d6e71;stroke-width:.5;stroke-linecap:square;stroke-linejoin:round" x1="45.04" y1="96.88" x2="42.91" y2="96.88"/><line style="fill:none;stroke:#6d6e71;stroke-width:.5;stroke-linecap:square;stroke-linejoin:round" x1="45.04" y1="125.3" x2="42.91" y2="125.3"/><line style="fill:none;stroke:#6d6e71;stroke-width:.5;stroke-linecap:square;stroke-linejoin:round" x1="45.04" y1="152.88" x2="42.91" y2="152.88"/><text transform="translate(44.222 192.913)" style="font-family:'Asap-Regular';font-size:7px">8</text><line style="fill:none;stroke:#6d6e71;stroke-width:.5;stroke-linecap:square;stroke-linejoin:round" x1="45.04" y1="181.89" x2="42.91" y2="181.89"/><circle style="fill:#000101" cx="231.14" cy="158.36" r="1.13"/><line style="fill:none;stroke:#939598;stroke-width:.5;stroke-linecap:square;stroke-linejoin:round;stroke-dasharray:1.4173" x1="45.51" y1="113.02" x2="231" y2="113.02"/><line style="fill:none;stroke:#939598;stroke-width:.5;stroke-linecap:square;stroke-linejoin:round;stroke-dasharray:1.4173" x1="46" y1="30.33" x2="154" y2="30.33"/><circle style="fill:#000101" cx="153.96" cy="30.48" r="1.13"/><line style="fill:none;stroke:#6d6e71;stroke-width:.5;stroke-linecap:square;stroke-linejoin:round" x1="45.5" y1="181.89" x2="45.5" y2="4.39"/><circle style="fill:#000101" cx="231.14" cy="113.36" r="1.13"/><circle style="fill:#000101" cx="113.96" cy="30.48" r="1.13"/><text transform="translate(235.194 166.435)" style="font-family:'Asap-Regular';font-size:7px">C</text></svg>