<svg version="1.1" xmlns="http://www.w3.org/2000/svg" x="0" y="0" viewBox="0 0 311.81 126.46" style="enable-background:new 0 0 311.81 126.46" xml:space="preserve"><polygon style="fill:#fee7dc" points="21.87 17.64 98.23 53.32 22 53.35"/><polygon style="fill:#e3e3f2" points="22 53.35 98.23 53.11 21.87 89.26"/><line style="fill:none;stroke:#ed2124;stroke-width:.5332;stroke-miterlimit:10" x1="21.87" y1="17.64" x2="150.1" y2="77.55"/><line style="fill:none;stroke:#a1b0da;stroke-width:.5332;stroke-miterlimit:10" x1="21.87" y1="77.89" x2="106.74" y2="19.25"/><line style="fill:none;stroke:#3a53a4;stroke-width:.5;stroke-miterlimit:10" x1="140.7" y1="33.15" x2="21.87" y2="89.26"/><text transform="translate(113.621 29.673)" style="fill:#231f20;font-family:'Asap-Regular';font-size:6px">Market supply</text><text transform="translate(95.58 9.055)"><tspan x="0" y="0" style="fill:#231f20;font-family:'Asap-Regular';font-size:6px">Market supply,</tspan><tspan x="0" y="7.2" style="fill:#231f20;font-family:'Asap-Regular';font-size:6px">with tax</tspan></text><text transform="translate(133.697 84.83)"><tspan x="0" y="0" style="fill:#231f20;font-family:'Asap-Regular';font-size:6px">Market</tspan><tspan x="0" y="7.2" style="fill:#231f20;font-family:'Asap-Regular';font-size:6px">demand</tspan></text><text transform="translate(71.719 37.723)" style="font-family:'Asap-Regular';font-size:6px">B</text><text transform="translate(96.243 49.919)" style="font-family:'Asap-Regular';font-size:6px">A</text><polyline style="fill:none;stroke:#939598;stroke-width:.5;stroke-linejoin:round;stroke-dasharray:1.4173" points="98.23 98.7 98.23 53.11 22 53.35"/><line style="fill:none;stroke:#939598;stroke-width:.5;stroke-linejoin:round;stroke-dasharray:1.4173" x1="73.8" y1="97.43" x2="73.8" y2="41.91"/><line style="fill:none;stroke:#939598;stroke-width:.5;stroke-linejoin:round;stroke-dasharray:1.4173" x1="21.87" y1="41.95" x2="73.8" y2="41.95"/><line style="fill:none;stroke:#939598;stroke-width:.5;stroke-linejoin:round;stroke-dasharray:1.4173" x1="22.09" y1="64.76" x2="74.02" y2="64.76"/><circle cx="98.23" cy="53.11" r="1.13"/><circle cx="73.8" cy="41.91" r="1.13"/><line style="fill:none;stroke:#6d6e71;stroke-width:.5;stroke-linecap:square;stroke-linejoin:round" x1="21.87" y1="98.82" x2="151.81" y2="98.82"/><line style="fill:none;stroke:#6d6e71;stroke-width:.5;stroke-linecap:square;stroke-linejoin:round" x1="21.87" y1="98.82" x2="21.87" y2="6.43"/><line style="fill:none;stroke:#6d6e71;stroke-width:.5;stroke-linecap:square;stroke-linejoin:round" x1="151.81" y1="99.04" x2="151.81" y2="100.05"/><line style="fill:none;stroke:#6d6e71;stroke-width:.5;stroke-linecap:square;stroke-linejoin:round" x1="98.23" y1="99.04" x2="98.23" y2="100.05"/><line style="fill:none;stroke:#6d6e71;stroke-width:.5;stroke-linecap:square;stroke-linejoin:round" x1="73.8" y1="99.04" x2="73.8" y2="100.05"/><line style="fill:none;stroke:#6d6e71;stroke-width:.5;stroke-linecap:square;stroke-linejoin:round" x1="21.87" y1="99.04" x2="21.87" y2="100.05"/><line style="fill:none;stroke:#6d6e71;stroke-width:.5;stroke-linecap:square;stroke-linejoin:round" x1="21.65" y1="98.82" x2="20.64" y2="98.82"/><line style="fill:none;stroke:#6d6e71;stroke-width:.5;stroke-linecap:square;stroke-linejoin:round" x1="21.65" y1="6.43" x2="20.64" y2="6.43"/><line style="fill:none;stroke:#6d6e71;stroke-width:.5;stroke-linecap:square;stroke-linejoin:round" x1="21.65" y1="41.95" x2="20.64" y2="41.95"/><line style="fill:none;stroke:#6d6e71;stroke-width:.5;stroke-linecap:square;stroke-linejoin:round" x1="21.65" y1="64.76" x2="20.64" y2="64.76"/><line style="fill:none;stroke:#6d6e71;stroke-width:.5;stroke-linecap:square;stroke-linejoin:round" x1="21.65" y1="53.35" x2="20.64" y2="53.35"/><text transform="rotate(-90 39.843 32.738)" style="font-family:'Asap-Medium';font-size:8px">Price of salt</text><text transform="translate(60.789 123.243)" style="font-family:'Asap-Medium';font-size:8px">Quantity of salt</text><text transform="translate(12.163 65.37)" style="font-family:'Asap-Italic';font-size:7px">P</text><text transform="matrix(.583 0 0 .583 16.153 67.7)" style="font-family:'Asap-Regular';font-size:7px">0</text><text transform="translate(12.163 54.25)"><tspan x="0" y="0" style="font-family:'Asap-Italic';font-size:7px">P</tspan><tspan x="3.99" y="0" style="font-family:'Asap-Regular';font-size:7px">*</tspan></text><text transform="translate(96.716 108.789)"><tspan x="0" y="0" style="font-family:'Asap-Italic';font-size:7px">Q</tspan><tspan x="5.12" y="0" style="font-family:'Asap-Regular';font-size:7px">*</tspan></text><text transform="translate(12.163 42.624)" style="font-family:'Asap-Italic';font-size:7px">P</text><text transform="matrix(.583 0 0 .583 16.153 44.955)" style="font-family:'Asap-Regular';font-size:7px">1</text><text transform="translate(72.789 108.789)" style="font-family:'Asap-Italic';font-size:7px">Q</text><text transform="matrix(.583 0 0 .583 77.906 111.12)" style="font-family:'Asap-Regular';font-size:7px">1</text><g><polygon style="fill:#fee7dc" points="180.43 17.58 232.24 41.72 180.55 41.76"/><polygon style="fill:#e2eae1" points="180.55 41.76 232.24 41.72 232.24 64.45 180.55 64.45"/><polygon style="fill:#e3e3f2" points="180.55 64.45 232.23 64.45 180.43 88.83"/><line style="fill:none;stroke:#ed2124;stroke-width:.5332;stroke-miterlimit:10" x1="180.43" y1="17.58" x2="308.35" y2="77.18"/><line style="fill:none;stroke:#a1b0da;stroke-width:.5332;stroke-miterlimit:10" x1="180.43" y1="77.51" x2="265.09" y2="19.18"/><line style="fill:none;stroke:#3a53a4;stroke-width:.5;stroke-miterlimit:10" x1="298.97" y1="33.01" x2="180.43" y2="88.83"/><text transform="matrix(1.0028 0 0 1 271.672 28.673)" style="fill:#231f20;font-family:'Asap-Regular';font-size:6px">Market supply</text><text transform="matrix(1.0028 0 0 1 257.14 9.055)"><tspan x="0" y="0" style="fill:#231f20;font-family:'Asap-Regular';font-size:6px">Market supply,</tspan><tspan x="0" y="7.2" style="fill:#231f20;font-family:'Asap-Regular';font-size:6px">with tax</tspan></text><text transform="matrix(1.0028 0 0 1 286.96 84.867)" style="fill:#231f20;font-family:'Asap-Regular';font-size:6px">Demand</text><text transform="matrix(1.0028 0 0 1 231.474 36.036)" style="font-family:'Asap-Regular';font-size:6px">B</text><text transform="matrix(1.0028 0 0 1 255.965 51.002)" style="font-family:'Asap-Regular';font-size:6px">A</text><line style="fill:none;stroke:#939598;stroke-width:.5;stroke-linejoin:round;stroke-dasharray:1.4173" x1="256.6" y1="98.22" x2="256.6" y2="52.87"/><line style="fill:none;stroke:#939598;stroke-width:.5;stroke-linejoin:round;stroke-dasharray:1.4173" x1="232.23" y1="96.96" x2="232.23" y2="41.72"/><line style="fill:none;stroke:#939598;stroke-width:.5;stroke-linejoin:round;stroke-dasharray:1.4173" x1="182.27" y1="64.45" x2="232.23" y2="64.45"/><line style="fill:none;stroke:#939598;stroke-width:.5;stroke-linejoin:round;stroke-dasharray:1.4173" x1="232.23" y1="41.72" x2="181.3" y2="41.76"/><line style="fill:none;stroke:#6d6e71;stroke-width:.5332;stroke-linecap:square;stroke-linejoin:round" x1="180.43" y1="98.34" x2="310.05" y2="98.34"/><line style="fill:none;stroke:#6d6e71;stroke-width:.5332;stroke-linecap:square;stroke-linejoin:round" x1="180.43" y1="98.34" x2="180.43" y2="6.43"/><line style="fill:none;stroke:#6d6e71;stroke-width:.5332;stroke-linecap:square;stroke-linejoin:round" x1="310.05" y1="98.56" x2="310.05" y2="99.56"/><line style="fill:none;stroke:#6d6e71;stroke-width:.5332;stroke-linecap:square;stroke-linejoin:round" x1="256.6" y1="98.56" x2="256.6" y2="99.56"/><line style="fill:none;stroke:#6d6e71;stroke-width:.5332;stroke-linecap:square;stroke-linejoin:round" x1="232.23" y1="98.56" x2="232.23" y2="99.56"/><line style="fill:none;stroke:#6d6e71;stroke-width:.5332;stroke-linecap:square;stroke-linejoin:round" x1="180.43" y1="98.56" x2="180.43" y2="99.56"/><line style="fill:none;stroke:#6d6e71;stroke-width:.5332;stroke-linecap:square;stroke-linejoin:round" x1="180.21" y1="98.34" x2="179.2" y2="98.34"/><line style="fill:none;stroke:#6d6e71;stroke-width:.5332;stroke-linecap:square;stroke-linejoin:round" x1="180.21" y1="6.43" x2="179.2" y2="6.43"/><line style="fill:none;stroke:#6d6e71;stroke-width:.5332;stroke-linecap:square;stroke-linejoin:round" x1="180.21" y1="41.76" x2="179.2" y2="41.76"/><line style="fill:none;stroke:#6d6e71;stroke-width:.5332;stroke-linecap:square;stroke-linejoin:round" x1="180.21" y1="64.45" x2="179.2" y2="64.45"/><line style="fill:none;stroke:#6d6e71;stroke-width:.5332;stroke-linecap:square;stroke-linejoin:round" x1="180.21" y1="53.11" x2="179.2" y2="53.11"/><text transform="matrix(1.0028 0 0 1 170.709 65.062)" style="font-family:'Asap-Italic';font-size:7px">P</text><text transform="matrix(.5846 0 0 .583 174.71 67.393)" style="font-family:'Asap-Regular';font-size:7px">0</text><text transform="matrix(1.0028 0 0 1 170.709 54)"><tspan x="0" y="0" style="font-family:'Asap-Italic';font-size:7px">P</tspan><tspan x="3.99" y="0" style="font-family:'Asap-Regular';font-size:7px">*</tspan></text><text transform="matrix(1.0028 0 0 1 255.065 108.789)"><tspan x="0" y="0" style="font-family:'Asap-Italic';font-size:7px">Q</tspan><tspan x="5.12" y="0" style="font-family:'Asap-Regular';font-size:7px">*</tspan></text><text transform="matrix(1.0028 0 0 1 170.709 42.433)" style="font-family:'Asap-Italic';font-size:7px">P</text><text transform="matrix(.5846 0 0 .583 174.71 44.764)" style="font-family:'Asap-Regular';font-size:7px">1</text><text transform="matrix(1.0028 0 0 1 230.877 108.789)" style="font-family:'Asap-Italic';font-size:7px">Q</text><text transform="matrix(.5846 0 0 .583 236.009 111.12)" style="font-family:'Asap-Regular';font-size:7px">1</text><text transform="rotate(-90 118.676 -46.095)" style="font-family:'Asap-Medium';font-size:8px">Price of salt</text><text transform="translate(220.76 123.243)" style="font-family:'Asap-Medium';font-size:8px">Quantity of salt</text><line style="fill:none;stroke:#939598;stroke-width:.5;stroke-linejoin:round;stroke-dasharray:1.4173" x1="256.07" y1="53.18" x2="180.61" y2="53.22"/><circle cx="256.6" cy="52.87" r="1.13"/><circle cx="232.06" cy="41.72" r="1.13"/></g></svg>