<svg version="1.1" xmlns="http://www.w3.org/2000/svg" x="0" y="0" viewBox="0 0 311.81 230.35" style="enable-background:new 0 0 311.81 230.35" xml:space="preserve"><line style="fill:none;stroke:#ed2124;stroke-width:.5332;stroke-miterlimit:10" x1="33.94" y1="25.64" x2="304.46" y2="152.04"/><line style="fill:none;stroke:#3a53a4;stroke-width:.5;stroke-miterlimit:10" x1="284.62" y1="58.36" x2="33.94" y2="176.73"/><text transform="rotate(-90 66.893 57.776)" style="font-family:'Asap-Medium';font-size:8px">Price of salt</text><text transform="translate(141.36 225.222)" style="font-family:'Asap-Medium';font-size:8px">Quantity of salt</text><text transform="translate(247.523 86.136)" style="fill:#3a53a4;font-family:'Asap-Regular';font-size:6px">Market supply</text><text transform="translate(284.622 161.391)" style="fill:#ed2124;font-family:'Asap-Regular';font-size:6px">Demand</text><text transform="translate(193.743 96.519)" style="font-family:'Asap-Regular';font-size:6px">A</text><polyline style="fill:none;stroke:#939598;stroke-width:.5;stroke-linejoin:round;stroke-dasharray:1.4173" points="35.78 100.48 195.04 100.48 195.04 196.64"/><circle cx="195.04" cy="100.91" r="1.13"/><text transform="translate(19.788 102.876)"><tspan x="0" y="0" style="font-family:'Asap-Italic';font-size:7px">P</tspan><tspan x="3.99" y="0" style="font-family:'Asap-Regular';font-size:7px">*</tspan></text><text transform="translate(191.837 207.384)"><tspan x="0" y="0" style="font-family:'Asap-Italic';font-size:7px">Q</tspan><tspan x="5.12" y="0" style="font-family:'Asap-Regular';font-size:7px">*</tspan></text><g><line style="fill:none;stroke:#6d6e71;stroke-width:.5332;stroke-linecap:square;stroke-linejoin:round" x1="33.94" y1="196.91" x2="33.94" y2="2"/><line style="fill:none;stroke:#6d6e71;stroke-width:.5332;stroke-linecap:square;stroke-linejoin:round" x1="308.07" y1="197.05" x2="308.07" y2="199.18"/><line style="fill:none;stroke:#6d6e71;stroke-width:.5332;stroke-linecap:square;stroke-linejoin:round" x1="195.04" y1="197.05" x2="195.04" y2="199.18"/><line style="fill:none;stroke:#6d6e71;stroke-width:.5332;stroke-linecap:square;stroke-linejoin:round" x1="33.94" y1="197.05" x2="33.94" y2="199.18"/><line style="fill:none;stroke:#6d6e71;stroke-width:.5332;stroke-linecap:square;stroke-linejoin:round" x1="33.94" y1="196.93" x2="308.07" y2="196.93"/><line style="fill:none;stroke:#6d6e71;stroke-width:.5332;stroke-linecap:square;stroke-linejoin:round" x1="33.47" y1="2" x2="31.35" y2="2"/><line style="fill:none;stroke:#6d6e71;stroke-width:.5332;stroke-linecap:square;stroke-linejoin:round" x1="33.47" y1="196.91" x2="31.35" y2="196.91"/><line style="fill:none;stroke:#6d6e71;stroke-width:.5332;stroke-linecap:square;stroke-linejoin:round" x1="31.35" y1="100.98" x2="33.47" y2="100.98"/><text transform="rotate(-90 66.893 57.776)" style="font-family:'Asap-Medium';font-size:8px">Price of salt</text><text transform="translate(141.36 225.222)" style="font-family:'Asap-Medium';font-size:8px">Quantity of salt</text></g></svg>