<svg version="1.1" xmlns="http://www.w3.org/2000/svg" x="0" y="0" viewBox="0 0 311.81 170" style="enable-background:new 0 0 311.81 170" xml:space="preserve"><line style="fill:#bcbec0;stroke:#ccc;stroke-width:.5;stroke-linejoin:round" x1="34.19" y1="61.09" x2="301.78" y2="61.09"/><line style="fill:#bcbec0;stroke:#ccc;stroke-width:.5;stroke-linejoin:round" x1="33.99" y1="115.44" x2="301.57" y2="115.44"/><line style="fill:#bcbec0;stroke:#ccc;stroke-width:.5;stroke-linejoin:round" x1="33.99" y1="88.15" x2="301.57" y2="88.15"/><line style="fill:#bcbec0;stroke:#ccc;stroke-width:.5;stroke-linejoin:round" x1="33.99" y1="33.91" x2="301.57" y2="33.91"/><line style="fill:#bcbec0;stroke:#ccc;stroke-width:.5;stroke-linejoin:round" x1="33.99" y1="6.73" x2="301.57" y2="6.73"/><line style="fill:none;stroke:#6d6e71;stroke-width:.5;stroke-linecap:square;stroke-linejoin:round" x1="34.19" y1="6.73" x2="32.06" y2="6.73"/><line style="fill:none;stroke:#6d6e71;stroke-width:.5;stroke-linecap:square;stroke-linejoin:round" x1="34.19" y1="33.91" x2="32.06" y2="33.91"/><line style="fill:none;stroke:#6d6e71;stroke-width:.5;stroke-linecap:square;stroke-linejoin:round" x1="34.19" y1="88.27" x2="32.06" y2="88.27"/><line style="fill:none;stroke:#6d6e71;stroke-width:.5;stroke-linecap:square;stroke-linejoin:round" x1="34.19" y1="115.45" x2="32.06" y2="115.45"/><line style="fill:none;stroke:#6d6e71;stroke-width:.5;stroke-linecap:square;stroke-linejoin:round" x1="34.19" y1="142.63" x2="32.06" y2="142.63"/><text transform="rotate(-90 73.798 65.28)"><tspan x="0" y="0" style="font-family:'Asap-Medium';font-size:8px">Price, </tspan><tspan x="21.3" y="0" style="font-family:'Asap-MediumItalic';font-size:8px">P </tspan><tspan x="27.78" y="0" style="font-family:'Asap-Medium';font-size:8px">(sellers’ reservation price), ($)</tspan></text><rect x="1" y="6.77" style="fill:none" width="12.03" height="135.74"/><text transform="translate(24.039 144.952)" style="font-family:'Asap-Regular';font-size:7px">0</text><text transform="translate(24.039 117.856)" style="font-family:'Asap-Regular';font-size:7px">5</text><text transform="translate(20.294 90.76)" style="font-family:'Asap-Regular';font-size:7px">10</text><text transform="translate(20.294 63.663)" style="font-family:'Asap-Regular';font-size:7px">15</text><text transform="translate(20.294 9.47)" style="font-family:'Asap-Regular';font-size:7px">25</text><text transform="translate(137.737 165.213)"><tspan x="0" y="0" style="font-family:'Asap-Medium';font-size:8px">Quantity of books, </tspan><tspan x="66.18" y="0" style="font-family:'Asap-MediumItalic';font-size:8px">Q</tspan></text><rect x="34" y="154.87" style="fill:none" width="267.59" height="12.03"/><text transform="translate(32.298 152.972)" style="font-family:'Asap-Regular';font-size:7px">0</text><rect x="31.6" y="146.22" style="fill:none" width="4.81" height="8.86"/><text transform="translate(61.843 152.972)" style="font-family:'Asap-Regular';font-size:7px">5</text><rect x="61.33" y="146.22" style="fill:none" width="4.81" height="8.86"/><text transform="translate(90.12 152.972)" style="font-family:'Asap-Regular';font-size:7px">10</text><rect x="89.29" y="146.22" style="fill:none" width="8.35" height="8.86"/><text transform="translate(119.665 152.972)" style="font-family:'Asap-Regular';font-size:7px">15</text><rect x="119.02" y="146.22" style="fill:none" width="8.35" height="8.86"/><text transform="translate(149.21 152.972)" style="font-family:'Asap-Regular';font-size:7px">20</text><rect x="148.75" y="146.22" style="fill:none" width="8.35" height="8.86"/><text transform="translate(179.176 152.972)" style="font-family:'Asap-Regular';font-size:7px">25</text><rect x="178.48" y="146.22" style="fill:none" width="8.35" height="8.86"/><text transform="translate(208.72 152.972)" style="font-family:'Asap-Regular';font-size:7px">30</text><rect x="208.22" y="146.22" style="fill:none" width="8.35" height="8.86"/><text transform="translate(238.687 152.972)" style="font-family:'Asap-Regular';font-size:7px">35</text><rect x="237.95" y="146.22" style="fill:none" width="8.35" height="8.86"/><text transform="translate(268.232 152.972)" style="font-family:'Asap-Regular';font-size:7px">40</text><rect x="267.68" y="146.22" style="fill:none" width="8.35" height="8.86"/><text transform="translate(298.199 152.972)" style="font-family:'Asap-Regular';font-size:7px">45</text><rect x="297.41" y="146.22" style="fill:none" width="7.93" height="8.86"/><g style="enable-background:new"><path style="fill:none;stroke:#ed2124;stroke-width:.5;stroke-linejoin:round" d="M34.2 33.78c79.22 36.24 158.44 72.49 237.66 108.73"/></g><text transform="translate(254.838 127)" style="fill:#ed2124;font-family:'Asap-Regular';font-size:7px">Demand curve</text><path style="fill:none;stroke:#6d6e71;stroke-width:.5;stroke-linecap:square;stroke-linejoin:round" d="M301.79 142.66v2.13m-29.97-2.13v2.13m-29.55-2.13v2.13m-29.96-2.13v2.13m-29.55-2.13v2.13m-29.96-2.13v2.13m-29.55-2.13v2.13m-29.96-2.13v2.13m-29.55-2.13v2.13m-29.54-2.13v2.13m0-2.16h267.59"/><text transform="translate(20.294 36.567)" style="font-family:'Asap-Regular';font-size:7px">20</text><line style="fill:none;stroke:#6d6e71;stroke-width:.5;stroke-linecap:square;stroke-linejoin:round" x1="34.19" y1="61.09" x2="32.06" y2="61.09"/><line style="fill:none;stroke:#6d6e71;stroke-width:.5;stroke-linecap:square;stroke-linejoin:round" x1="34.2" y1="142.63" x2="34.2" y2="6.73"/></svg>