<svg xmlns="http://www.w3.org/2000/svg" class="prefix__svglite" viewBox="0 0 810 549"><rect width="100%" height="100%" style="stroke:none;fill:#fff;stroke-linecap:round;stroke-linejoin:round;stroke-miterlimit:10"/><defs><clipPath id="prefix__a"><rect x="0" y="0" width="810" height="549" style="fill:none;stroke:#000;stroke-linecap:round;stroke-linejoin:round;stroke-miterlimit:10"/></clipPath></defs><g clip-path="url(#prefix__a)"><rect x="0" y="0" width="810" height="549" style="stroke-width:1.07;stroke:#fff;fill:#fff;stroke-linecap:round;stroke-linejoin:round;stroke-miterlimit:10"/><rect x="93.36" y="14.17" width="688.3" height="453.92" style="stroke-width:1.07;stroke:none;fill:#fff;stroke-linecap:round;stroke-linejoin:round;stroke-miterlimit:10"/><polyline points="93.36 468.09 781.65 468.09" style="stroke-width:1.07;stroke:#c6c4c4;stroke-linecap:butt;fill:none;stroke-linejoin:round;stroke-miterlimit:10"/><polyline points="93.36 377.31 781.65 377.31" style="stroke-width:1.07;stroke:#c6c4c4;stroke-linecap:butt;fill:none;stroke-linejoin:round;stroke-miterlimit:10"/><polyline points="93.36 286.53 781.65 286.53" style="stroke-width:1.07;stroke:#c6c4c4;stroke-linecap:butt;fill:none;stroke-linejoin:round;stroke-miterlimit:10"/><polyline points="93.36 195.74 781.65 195.74" style="stroke-width:1.07;stroke:#c6c4c4;stroke-linecap:butt;fill:none;stroke-linejoin:round;stroke-miterlimit:10"/><polyline points="93.36 104.96 781.65 104.96" style="stroke-width:1.07;stroke:#c6c4c4;stroke-linecap:butt;fill:none;stroke-linejoin:round;stroke-miterlimit:10"/><polyline points="93.36 14.17 781.65 14.17" style="stroke-width:1.07;stroke:#c6c4c4;stroke-linecap:butt;fill:none;stroke-linejoin:round;stroke-miterlimit:10"/><polyline points="93.36 461.87 97.53 461.28 101.3 460.33 105.47 458.79 109.51 457.2 113.68 455.43 117.72 454.57 121.89 452.93 126.07 451.53 130.11 449.39 134.28 447.17 138.32 443.67 142.49 441.13 146.66 438.13 150.43 435.64 154.61 432.28 158.64 429.92 162.82 427.24 166.86 424.52 171.03 420.84 175.2 417.53 179.24 413.99 183.41 409.95 187.45 403.46 191.63 399.96 195.8 396.33 199.57 392.97 203.74 389.43 207.78 385.25 211.95 380.49 215.99 374.63 220.16 370.46 224.34 368.14 228.38 362.06 232.55 359.61 236.59 354.25 240.76 350.12 244.93 344.17 248.84 340.54 253.01 339.91 257.05 335.78 261.22 334.82 265.26 331.33 269.43 332.73 273.61 330.65 277.65 328.79 281.82 326.11 285.86 325.47 290.03 324.16 294.2 321.93 297.97 317.8 302.15 312.63 306.19 304.73 310.36 301.78 314.4 301.82 318.57 303.82 322.74 310.76 326.78 314.9 330.95 308.81 334.99 305.5 339.17 305.36 343.34 302.68 347.11 302.55 351.28 294.42 355.32 292.52 359.49 293.2 363.53 292.2 367.71 288.66 371.88 289.29 375.92 279.58 380.09 276.36 384.13 282.3 388.3 276.22 392.47 272.18 396.24 270.14 400.42 266.96 404.46 268.5 408.63 268.6 412.67 263.42 416.84 262.65 421.01 260.06 425.05 256.11 429.23 250.89 433.26 254.12 437.44 251.17 441.61 251.26 445.51 253.66 449.69 252.8 453.73 254.02 457.9 242.4 461.94 243.63 466.11 241.95 470.28 241.45 474.32 238.46 478.5 234.69 482.53 236.32 486.71 233.14 490.88 230.28 494.65 228.38 498.82 224.38 502.86 222.34 507.03 223.34 511.07 221.61 515.25 218.94 519.42 215.35 523.46 220.39 527.63 218.44 531.67 218.26 535.84 212.49 540.02 207.27 543.78 206.45 547.96 207.72 552 204.41 556.17 200.55 560.21 197.15 564.38 197.24 568.55 193.02 572.59 188.71 576.77 187.71 580.8 185.39 584.98 187.93 589.15 184.8 592.92 184.03 597.09 183.03 601.13 182.21 605.3 178.99 609.34 180.44 613.52 177.63 617.69 178.86 621.73 173.41 625.9 176.4 629.94 179.31 634.11 177.13 638.29 175.54 642.19 178.99 646.36 184.48 650.4 177.9 654.57 170.91 658.61 169.01 662.79 168.55 666.96 166.96 671 167.96 675.17 179.67 679.21 180.4 683.38 179.67 687.56 179.45 691.33 176.72 695.5 175.45 699.54 174.18 703.71 171.82 707.75 172.5 711.92 173.32 716.09 172.36 720.13 174.54 724.31 177.31 728.35 178.49 732.52 181.85 736.69 183.12 740.46 175.18 744.63 176.04 748.67 173.27 752.85 169.1 756.88 172.5 761.06 171.41" style="stroke-width:1.07;stroke:#ed1f24;stroke-linecap:butt;fill:none;stroke-linejoin:round;stroke-miterlimit:10"/><polyline points="93.36 173.18 97.53 177.68 101.3 186.57 105.47 189.66 109.51 188.71 113.68 200.6 117.72 198.1 121.89 204.64 126.07 206.09 130.11 208 134.28 214.4 138.32 218.39 142.49 221.21 146.66 224.97 150.43 225.84 154.61 231.6 158.64 234.14 162.82 234.32 166.86 235.82 171.03 242.54 175.2 249.62 179.24 253.25 183.41 258.29 187.45 263.74 191.63 268.23 195.8 271 199.57 272.95 203.74 276.54 207.78 280.4 211.95 283.17 215.99 288.93 220.16 291.52 224.34 291.75 228.38 297.65 232.55 296.51 236.59 306.77 240.76 312.54 244.93 319.66 248.84 324.29 253.01 328.29 257.05 337.05 261.22 336.68 265.26 338.77 269.43 336 273.61 336.96 277.65 339.82 281.82 344.26 285.86 347.94 290.03 347.58 294.2 351.25 297.97 353.43 302.15 351.16 306.19 359.83 310.36 370.32 314.4 375.09 318.57 371.95 322.74 360.47 326.78 361.29 330.95 367.78 334.99 385.98 339.17 387.52 343.34 389.38 347.11 390.06 351.28 393.7 355.32 397.69 359.49 398.19 363.53 397.69 367.71 402.18 371.88 402.46 375.92 407.31 380.09 407.18 384.13 399.05 388.3 407.72 392.47 408.68 396.24 411.99 400.42 411.26 404.46 412.22 408.63 412.81 412.67 419.02 416.84 423.93 421.01 424.43 425.05 425.52 429.23 424.29 433.26 425.74 437.44 427.51 441.61 431.01 445.51 434.32 449.69 435.73 453.73 438.91 457.9 439.68 461.94 443.58 466.11 443.35 470.28 443.49 474.32 446.49 478.5 447.49 482.53 447.94 486.71 446.44 490.88 448.26 494.65 449.12 498.82 450.35 502.86 449.8 507.03 450.25 511.07 451.12 515.25 451.34 519.42 451.93 523.46 451.12 527.63 450.48 531.67 452.89 535.84 453.57 540.02 454.2 543.78 453.98 547.96 453.52 552 454.11 556.17 453.93 560.21 454.43 564.38 454.34 568.55 455.16 572.59 455.02 576.77 455.34 580.8 456.52 584.98 455.84 589.15 456.38 592.92 456.47 597.09 456.88 601.13 456.93 605.3 457.7 609.34 457.83 613.52 459.15 617.69 457.97 621.73 459.11 625.9 460.56 629.94 460.97 634.11 460.47 638.29 460.69 642.19 460.33 646.36 461.69 650.4 461.74 654.57 461.92 658.61 462.28 662.79 462.65 666.96 462.69 671 463.33 675.17 462.96 679.21 463.33 683.38 464.42 687.56 464.42 691.33 464.78 695.5 464.87 699.54 465.28 703.71 465.32 707.75 465.51 711.92 465.46 716.09 465.51 720.13 465.82 724.31 465.87 728.35 466.01 732.52 466.05 736.69 465.96 740.46 466.37 744.63 466.32 748.67 465.19 752.85 466.78 756.88 466.82 761.06 466.78" style="stroke-width:1.07;stroke:#3a53a4;stroke-dasharray:2.85,2.85,8.54,2.85;stroke-linecap:butt;fill:none;stroke-linejoin:round;stroke-miterlimit:10"/><polyline points="93.36 346.22 97.53 342.54 101.3 335.68 105.47 334.6 109.51 338.73 113.68 331.69 117.72 331.1 121.89 327.7 126.07 327.42 130.11 325.34 134.28 323.66 138.32 324.84 142.49 326.7 146.66 326.11 150.43 328.97 154.61 327.15 158.64 327.79 162.82 330.33 166.86 332.78 171.03 331.51 175.2 330.15 179.24 331.69 183.41 332.28 187.45 334.19 191.63 334.82 195.8 336.37 199.57 338.41 203.74 340.41 207.78 342.77 211.95 347.85 215.99 350.12 220.16 352.21 224.34 354.7 228.38 356.16 232.55 361.47 236.59 362.56 240.76 365.1 244.93 364.74 248.84 364.83 253.01 365.96 257.05 363.78 261.22 368.14 265.26 372.18 269.43 375.95 273.61 377.99 277.65 378.54 281.82 379.08 285.86 382.39 290.03 383.89 294.2 384.35 297.97 386.21 302.15 388.98 306.19 390.7 310.36 390.93 314.4 391.65 318.57 395.38 322.74 398.6 326.78 401 330.95 401.05 334.99 400.78 339.17 401.05 343.34 400.64 347.11 402.96 351.28 403.05 355.32 404.23 359.49 407.81 363.53 409.9 367.71 410.76 371.88 411.58 375.92 413.8 380.09 415.48 384.13 416.94 388.3 414.44 392.47 415.62 396.24 414.8 400.42 415.39 404.46 417.53 408.63 419.43 412.67 422.75 416.84 424.38 421.01 423.47 425.05 424.88 429.23 426.24 433.26 428.01 437.44 427.38 441.61 427.24 445.51 429.33 449.69 429.96 453.73 430.65 457.9 430.37 461.94 432.82 466.11 432.78 470.28 433.73 474.32 435.68 478.5 436.23 482.53 437.59 486.71 437.45 490.88 437.54 494.65 437.82 498.82 439.45 502.86 439.91 507.03 441.18 511.07 442.08 515.25 441.31 519.42 441.04 523.46 440.5 527.63 440.4 531.67 442.13 535.84 442.4 540.02 443.13 543.78 443.67 547.96 443.35 552 444.17 556.17 444.63 560.21 445.31 564.38 445.72 568.55 445.35 572.59 445.31 576.77 445.76 580.8 445.72 584.98 446.94 589.15 448.17 592.92 446.76 597.09 446.03 601.13 445.35 605.3 447.03 609.34 447.71 613.52 447.94 617.69 447.89 621.73 448.44 625.9 447.8 629.94 448.17 634.11 446.76 638.29 447.3 642.19 448.03 646.36 448.98 650.4 448.21 654.57 448.8 658.61 448.76 662.79 449.53 666.96 449.53 671 450.03 675.17 450.89 679.21 450.98 683.38 451.57 687.56 451.03 691.33 451.39 695.5 451.8 699.54 452.84 703.71 453.16 707.75 452.43 711.92 451.98 716.09 451.43 720.13 451.48 724.31 450.35 728.35 450.35 732.52 449.12 736.69 448.98 740.46 452.66 744.63 452.61 748.67 453.3 752.85 453.3 756.88 453.16 761.06 453.52" style="stroke-width:1.07;stroke:#f49323;stroke-linecap:butt;fill:none;stroke-linejoin:round;stroke-miterlimit:10"/><polyline points="93.36 455.43 97.53 455.25 101.3 454.39 105.47 454.07 109.51 454.7 113.68 453.39 117.72 452.89 121.89 451.8 126.07 451.8 130.11 450.98 134.28 449.94 138.32 450.62 142.49 448.94 146.66 447.26 150.43 446.9 154.61 446.44 158.64 446.67 162.82 446.99 166.86 446.71 171.03 445.76 175.2 445.13 179.24 444.35 183.41 443.63 187.45 442.86 191.63 441.13 195.8 441.13 199.57 441.18 203.74 440.9 207.78 440.95 211.95 440.63 215.99 439.95 220.16 439.95 224.34 437.91 228.38 436 232.55 435.5 236.59 434.46 240.76 431.37 244.93 430.19 248.84 430.6 253.01 428.51 257.05 428.69 261.22 428.06 265.26 426.74 269.43 425.88 273.61 424.79 277.65 424.11 281.82 423.47 285.86 422.38 290.03 419.71 294.2 417.53 297.97 417.89 302.15 420.7 306.19 420.7 310.36 418.48 314.4 417.12 318.57 417.75 322.74 418.62 326.78 419.25 330.95 418.3 334.99 414.67 339.17 410.76 343.34 411.08 347.11 409.27 351.28 410.35 355.32 408.45 359.49 405.54 363.53 403.23 367.71 403.68 371.88 400.46 375.92 398.64 380.09 403.41 384.13 403.64 388.3 405.5 392.47 405.45 396.24 405.45 400.42 409.49 404.46 406.95 408.63 407.31 412.67 408.18 416.84 411.22 421.01 413.17 425.05 413.8 429.23 410.94 433.26 409.04 437.44 409.54 441.61 409.67 445.51 410.31 449.69 410.08 453.73 408.99 457.9 406.77 461.94 406.09 466.11 406.32 470.28 407.54 474.32 405.91 478.5 405.54 482.53 404.45 486.71 402.09 490.88 402.73 494.65 402.55 498.82 401.64 502.86 403.36 507.03 402.77 511.07 403.86 515.25 400.55 519.42 403.55 523.46 401.87 527.63 401.09 531.67 400.64 535.84 402.55 540.02 402.77 543.78 400.87 547.96 404.73 552 405.54 556.17 405.91 560.21 405.23 564.38 402.23 568.55 400.69 572.59 399.42 576.77 399.6 580.8 401.41 584.98 398.96 589.15 397.46 592.92 397.1 597.09 396.24 601.13 396.65 605.3 399.32 609.34 399.78 613.52 397.83 617.69 393.92 621.73 395.6 625.9 392.11 629.94 387.84 634.11 389.97 638.29 388.34 642.19 384.8 646.36 377.58 650.4 385.53 654.57 391.06 658.61 392.52 662.79 391.74 666.96 392.15 671 389.84 675.17 380.76 679.21 380.71 683.38 379.81 687.56 381.21 691.33 381.71 695.5 383.3 699.54 384.44 703.71 384.84 707.75 383.44 711.92 382.98 716.09 384.57 720.13 381.58 724.31 380.85 728.35 379.13 732.52 378.04 736.69 380.49 740.46 382.57 744.63 381.12 748.67 381.8 752.85 383.62 756.88 382.48 761.06 382.12" style="stroke-width:1.07;stroke:#009147;stroke-dasharray:2.85,2.85;stroke-linecap:butt;fill:none;stroke-linejoin:round;stroke-miterlimit:10"/><polyline points="93.36 454.16 97.53 454.07 101.3 454.07 105.47 453.93 109.51 452.61 113.68 451.89 117.72 455.02 121.89 454.84 126.07 454.98 130.11 458.24 134.28 457.56 138.32 457.34 142.49 457.34 146.66 457.34 150.43 457.02 154.61 457.47 158.64 456.61 162.82 456.61 166.86 456.61 171.03 456.43 175.2 455.25 179.24 455.11 183.41 455.34 187.45 455.34 191.63 455.34 195.8 455.11 199.57 455.07 203.74 454.7 207.78 454.52 211.95 453.98 215.99 454.07 220.16 454.07 224.34 453.93 228.38 454.02 232.55 453.3 236.59 450.98 240.76 450.98 244.93 451.3 248.84 451.39 253.01 451.66 257.05 450.8 261.22 450.8 265.26 451.39 269.43 451.53 273.61 451.43 277.65 451.34 281.82 452.25 285.86 452.39 290.03 453.98 294.2 453.75 297.97 453.8 302.15 454.84 306.19 454.39 310.36 452.93 314.4 452.16 318.57 451.21 322.74 450.89 326.78 443.35 330.95 449.44 334.99 447.03 339.17 448.76 343.34 448.98 347.11 449.17 351.28 450.16 355.32 450.16 359.49 449.62 363.53 449.66 367.71 448.89 371.88 450.12 375.92 451.75 380.09 450.8 384.13 450.48 388.3 449.66 392.47 450.84 396.24 450.89 400.42 449.89 404.46 448.21 408.63 444.63 412.67 443.22 416.84 439.63 421.01 439.59 425.05 440.77 429.23 443.49 433.26 442.54 437.44 443.35 441.61 443.49 445.51 443.04 449.69 442.58 453.73 441.68 457.9 443.17 461.94 440.81 466.11 442.13 470.28 443.81 474.32 445.03 478.5 445.35 482.53 444.63 486.71 450.21 490.88 450.84 494.65 451.3 498.82 451.89 502.86 451.93 507.03 450.71 511.07 450.03 515.25 449.94 519.42 449.57 523.46 450.44 527.63 450.84 531.67 449.8 535.84 450.12 540.02 451.34 543.78 451.53 547.96 450.71 552 451.39 556.17 452.21 560.21 452.89 564.38 452.21 568.55 452.75 572.59 453.75 576.77 453.8 580.8 453.89 584.98 454.88 589.15 455.07 592.92 455.7 597.09 456.47 601.13 456.56 605.3 456.61 609.34 456.38 613.52 456.06 617.69 456.75 621.73 457.47 625.9 457.43 629.94 457.74 634.11 457.83 638.29 459.38 642.19 460.69 646.36 460.24 650.4 459.38 654.57 459.29 658.61 458.79 662.79 458.61 666.96 458.74 671 458.65 675.17 458.52 679.21 457.83 683.38 458.24 687.56 458.15 691.33 458.43 695.5 458.02 699.54 457.61 703.71 458.15 707.75 458.43 711.92 458.24 716.09 457.56 720.13 457.38 724.31 457.47 728.35 457.43 732.52 457.52 736.69 457.83 740.46 458.02 744.63 458.7 748.67 458.52 752.85 458.52 756.88 458.47 761.06 458.33" style="stroke-width:1.07;stroke:#b9519e;stroke-linecap:butt;fill:none;stroke-linejoin:round;stroke-miterlimit:10"/><polyline points="93.36 468.05 97.53 468.05 101.3 468 105.47 468 109.51 468 113.68 468.09 117.72 468 121.89 467.96 126.07 467.96 130.11 467.96 134.28 467.91 138.32 467.87 142.49 467.78 146.66 467.69 150.43 467.59 154.61 467.5 158.64 467.41 162.82 467.28 166.86 467 171.03 466.78 175.2 466.6 179.24 466.32 183.41 466.05 187.45 465.64 191.63 465.28 195.8 465.05 199.57 464.78 203.74 464.33 207.78 463.51 211.95 462.78 215.99 462.06 220.16 461.42 224.34 461.74 228.38 461.33 232.55 461.06 236.59 459.92 240.76 458.88 244.93 458.24 248.84 458.33 253.01 457.61 257.05 457.15 261.22 456.34 265.26 455.02 269.43 453.89 273.61 453.16 277.65 452.39 281.82 450.57 285.86 447.8 290.03 446.4 294.2 445.58 297.97 445.85 302.15 446.49 306.19 445.76 310.36 444.58 314.4 443.17 318.57 442.31 322.74 442.95 326.78 442.9 330.95 441.54 334.99 437.32 339.17 436.36 343.34 436 347.11 436.09 351.28 436.77 355.32 434.82 359.49 434.05 363.53 435.05 367.71 434.69 371.88 435.18 375.92 434.69 380.09 433.91 384.13 436 388.3 436.32 392.47 436.36 396.24 437.05 400.42 438.41 404.46 438.27 408.63 439.5 412.67 438.23 416.84 438.63 421.01 440.72 425.05 441.27 429.23 444.44 433.26 445.49 437.44 446.17 441.61 447.49 445.51 447.71 449.69 448.89 453.73 449.48 457.9 449.71 461.94 449.62 466.11 450.94 470.28 451.93 474.32 452.66 478.5 453.52 482.53 453.98 486.71 454.48 490.88 455.29 494.65 455.7 498.82 456.06 502.86 456.56 507.03 456.97 511.07 456.88 515.25 457.97 519.42 458.83 523.46 459.47 527.63 460.06 531.67 459.79 535.84 459.97 540.02 460.29 543.78 460.74 547.96 460.88 552 461.24 556.17 461.01 560.21 461.01 564.38 461.65 568.55 462.15 572.59 462.74 576.77 462.74 580.8 462.74 584.98 462.87 589.15 463.15 592.92 463.37 597.09 463.37 601.13 463.96 605.3 463.55 609.34 463.69 613.52 464.78 617.69 465.32 621.73 465.42 625.9 465.46 629.94 465.78 634.11 465.64 638.29 465.42 642.19 465.28 646.36 465.51 650.4 465.64 654.57 465.78 658.61 465.91 662.79 466.05 666.96 466.01 671 466.28 675.17 466.01 679.21 465.96 683.38 466.01 687.56 465.91 691.33 466.05 695.5 465.37 699.54 464.14 703.71 464.83 707.75 464.87 711.92 465.1 716.09 465.46 720.13 465.51 724.31 465.05 728.35 465.01 732.52 465.14 736.69 465.14 740.46 465.19 744.63 464.64 748.67 464.92 752.85 465.01 756.88 464.83 761.06 464.51" style="stroke-width:1.07;stroke-linecap:butt;fill:none;stroke:#000;stroke-linejoin:round;stroke-miterlimit:10"/><polyline points="93.36 468.09 97.53 468.09 101.3 468.09 105.47 468.09 109.51 468.09 113.68 468.09 117.72 468.09 121.89 468.09 126.07 468.09 130.11 468.09 134.28 468.09 138.32 468.09 142.49 468.09 146.66 468.09 150.43 468 154.61 468 158.64 467.96 162.82 467.96 166.86 467.96 171.03 467.96 175.2 467.96 179.24 467.91 183.41 467.91 187.45 467.96 191.63 467.96 195.8 467.91 199.57 467.96 203.74 467.91 207.78 467.96 211.95 467.91 215.99 467.87 220.16 467.82 224.34 467.73 228.38 466.69 232.55 466.46 236.59 466.28 240.76 466.01 244.93 465.82 248.84 465.51 253.01 464.73 257.05 464.19 261.22 464.05 265.26 463.96 269.43 464.05 273.61 464.19 277.65 463.96 281.82 462.87 285.86 461.6 290.03 462.1 294.2 462.87 297.97 462.92 302.15 462.78 306.19 462.28 310.36 461.19 314.4 460.15 318.57 459.38 322.74 458.97 326.78 459.11 330.95 458.02 334.99 456.16 339.17 456.25 343.34 456.06 347.11 455.88 351.28 456.16 355.32 456.02 359.49 456.11 363.53 456.02 367.71 454.57 371.88 454.84 375.92 455.79 380.09 453.7 384.13 451.89 388.3 450.89 392.47 451.62 396.24 449.71 400.42 448.26 404.46 446.21 408.63 444.67 412.67 442.63 416.84 439.54 421.01 438.18 425.05 436.91 429.23 438.86 433.26 435.18 437.44 434.91 441.61 432.23 445.51 431.6 449.69 430.65 453.73 427.24 457.9 440.72 461.94 438.04 466.11 437.82 470.28 432.69 474.32 429.56 478.5 430.83 482.53 429.01 486.71 430.55 490.88 429.28 494.65 428.38 498.82 429.92 502.86 429.96 507.03 429.15 511.07 429.19 515.25 434.37 519.42 434.96 523.46 432.42 527.63 431.83 531.67 428.65 535.84 430.46 540.02 432.19 543.78 434.64 547.96 432.32 552 431.05 556.17 434.23 560.21 436.18 564.38 439.59 568.55 443.49 572.59 448.08 576.77 448.94 580.8 448.98 584.98 450.71 589.15 451.16 592.92 452.48 597.09 453.98 601.13 453.89 605.3 453.02 609.34 451.89 613.52 452.39 617.69 453.8 621.73 454.75 625.9 454.7 629.94 455.07 634.11 456.25 638.29 458.29 642.19 459.06 646.36 459.15 650.4 459.02 654.57 459.97 658.61 461.42 662.79 461.97 666.96 462.51 671 462.65 675.17 461.97 679.21 461.51 683.38 461.56 687.56 461.19 691.33 461.92 695.5 462.28 699.54 462.01 703.71 462.1 707.75 462.74 711.92 463.1 716.09 463.33 720.13 463.69 724.31 463.83 728.35 463.83 732.52 464.05 736.69 464.19 740.46 464.37 744.63 464.28 748.67 464.64 752.85 464.87 756.88 463.55 761.06 464.78" style="stroke-width:1.07;stroke:#4dd9ff;stroke-linecap:butt;fill:none;stroke-linejoin:round;stroke-miterlimit:10"/><polyline points="93.36 468.09 97.53 468.09 101.3 468.09 105.47 468.09 109.51 468.09 113.68 468.09 117.72 468.09 121.89 468.09 126.07 468.09 130.11 468.09 134.28 468.09 138.32 468.09 142.49 468.09 146.66 468.09 150.43 468.09 154.61 468.09 158.64 468.09 162.82 468.09 166.86 468.09 171.03 468.09 175.2 468.09 179.24 468.09 183.41 468.09 187.45 468.09 191.63 468.09 195.8 468.09 199.57 468.09 203.74 468.09 207.78 468.09 211.95 468.09 215.99 468.09 220.16 468.09 224.34 468.09 228.38 468.09 232.55 468.09 236.59 468.09 240.76 468.09 244.93 468.09 248.84 468.09 253.01 468.09 257.05 468.09 261.22 468.09 265.26 468.09 269.43 468.09 273.61 468.09 277.65 468.09 281.82 468.09 285.86 468.09 290.03 468.09 294.2 468.09 297.97 468.09 302.15 468.09 306.19 468.09 310.36 468.09 314.4 468.09 318.57 468.09 322.74 468.09 326.78 468.09 330.95 468.09 334.99 468.09 339.17 468.09 343.34 468.09 347.11 468.09 351.28 468.09 355.32 468.09 359.49 468.09 363.53 468.09 367.71 468.09 371.88 468.09 375.92 468.09 380.09 468.09 384.13 468.09 388.3 468.09 392.47 468.09 396.24 468.09 400.42 468.09 404.46 468.09 408.63 468.09 412.67 468.09 416.84 468.09 421.01 468.09 425.05 468.09 429.23 468.09 433.26 468.09 437.44 468.09 441.61 465.6 445.51 457.93 449.69 457.38 453.73 457.34 457.9 456.2 461.94 454.79 466.11 454.07 470.28 454.11 474.32 454.34 478.5 454.11 482.53 453.75 486.71 453.16 490.88 453.39 494.65 453.61 498.82 452.8 502.86 452.66 507.03 452.3 511.07 452.07 515.25 452.34 519.42 452.61 523.46 452.61 527.63 454.61 531.67 455.02 535.84 455.2 540.02 454.84 543.78 455.75 547.96 455.88 552 456.34 556.17 455.97 560.21 455.79 564.38 455.07 568.55 455.29 572.59 455.57 576.77 455.7 580.8 454.75 584.98 451.57 589.15 452.57 592.92 453.02 597.09 452.21 601.13 452.66 605.3 452.07 609.34 451.07 613.52 452.25 617.69 452.93 621.73 453.16 625.9 453.16 629.94 452.39 634.11 452.98 638.29 453.2 642.19 452.84 646.36 452.66 650.4 453.2 654.57 453.2 658.61 452.52 662.79 452.34 666.96 453.43 671 453.66 675.17 452.25 679.21 452.34 683.38 452.21 687.56 453.07 691.33 453.25 695.5 453.16 699.54 453.43 703.71 453.66 707.75 453.89 711.92 454.2 716.09 454.98 720.13 455.34 724.31 455.38 728.35 455.16 732.52 454.98 736.69 455.52 740.46 455.29 744.63 455.16 748.67 455.16 752.85 455.07 756.88 454.7 761.06 455.11" style="stroke-width:1.07;stroke:#ed1f24;stroke-dasharray:2.85,2.85,8.54,2.85;stroke-linecap:butt;fill:none;stroke-linejoin:round;stroke-miterlimit:10"/><polyline points="93.36 468.09 97.53 468.09 101.3 468.09 105.47 468.09 109.51 468.09 113.68 468.09 117.72 468.09 121.89 468.09 126.07 468.09 130.11 468.09 134.28 468.09 138.32 468.09 142.49 468.09 146.66 468.09 150.43 468.09 154.61 468.09 158.64 468.09 162.82 468.09 166.86 468.09 171.03 468.09 175.2 468.09 179.24 468.09 183.41 468.09 187.45 468.09 191.63 468.09 195.8 468.09 199.57 468.09 203.74 468.09 207.78 468.09 211.95 468.09 215.99 468.09 220.16 468.09 224.34 468.09 228.38 468.09 232.55 468.09 236.59 468.09 240.76 468.09 244.93 468.09 248.84 468.09 253.01 468.09 257.05 468.09 261.22 468.09 265.26 468.09 269.43 468.09 273.61 468.09 277.65 468.09 281.82 468.09 285.86 468.09 290.03 468.09 294.2 468.09 297.97 468.09 302.15 468.09 306.19 468.09 310.36 468.09 314.4 468.09 318.57 468.09 322.74 468.09 326.78 468.09 330.95 468.09 334.99 468.09 339.17 468.09 343.34 468.09 347.11 468.09 351.28 468.09 355.32 468.09 359.49 468.09 363.53 468.09 367.71 468.09 371.88 468.09 375.92 468.09 380.09 468.09 384.13 468.09 388.3 468.09 392.47 468.09 396.24 468.09 400.42 468.09 404.46 468.09 408.63 468.09 412.67 467.96 416.84 466.01 421.01 465.37 425.05 465.05 429.23 464.64 433.26 463.92 437.44 463.33 441.61 462.92 445.51 462.6 449.69 462.28 453.73 462.01 457.9 461.1 461.94 460.83 466.11 460.56 470.28 460.83 474.32 460.92 478.5 460.88 482.53 460.79 486.71 460.29 490.88 460.06 494.65 460.33 498.82 460.33 502.86 460.24 507.03 460.15 511.07 460.2 515.25 459.92 519.42 458.24 523.46 458.02 527.63 458.74 531.67 459.47 535.84 459.51 540.02 459.65 543.78 459.33 547.96 459.11 552 459.42 556.17 459.51 560.21 459.56 564.38 459.47 568.55 459.06 572.59 458.65 576.77 458.33 580.8 458.88 584.98 458.43 589.15 458.29 592.92 458.06 597.09 458.29 601.13 458.33 605.3 458.38 609.34 458.2 613.52 458.29 617.69 458.33 621.73 458.79 625.9 458.52 629.94 458.74 634.11 458.24 638.29 458.15 642.19 458.2 646.36 457.97 650.4 458.43 654.57 460.38 658.61 463.65 662.79 465.01 666.96 465.73 671 466.01 675.17 466.28 679.21 466.6 683.38 466.64 687.56 466.69 691.33 466.78 695.5 466.96 699.54 466.96 703.71 467.05 707.75 467.14 711.92 467.09 716.09 467.19 720.13 467.59 724.31 467.59 728.35 467.69 732.52 467.73 736.69 467.41 740.46 467.5 744.63 467.37 748.67 467.05 752.85 467.82 756.88 467.87 761.06 467.87" style="stroke-width:1.07;stroke:#3a53a4;stroke-linecap:butt;fill:none;stroke-linejoin:round;stroke-miterlimit:10"/><polyline points="93.36 463.83 97.53 463.87 101.3 463.69 105.47 463.69 109.51 462.78 113.68 461.65 117.72 463.06 121.89 462.87 126.07 462.96 130.11 462.83 134.28 462.1 138.32 460.01 142.49 459.65 146.66 461.24 150.43 460.88 154.61 460.38 158.64 460.33 162.82 460.1 166.86 459.42 171.03 459.02 175.2 458.61 179.24 458.2 183.41 457.38 187.45 457.65 191.63 458.11 195.8 457.93 199.57 457.52 203.74 456.61 207.78 455.47 211.95 454.02 215.99 453.2 220.16 453.39 224.34 454.93 228.38 456.93 232.55 456.93 236.59 455.61 240.76 455.84 244.93 456.7 248.84 455.34 253.01 454.16 257.05 453.39 261.22 451.93 265.26 451.43 269.43 450.8 273.61 451.66 277.65 451.89 281.82 452.21 285.86 450.84 290.03 453.02 294.2 453.57 297.97 452.93 302.15 453.25 306.19 452.43 310.36 450.62 314.4 449.66 318.57 449.03 322.74 449.57 326.78 449.03 330.95 445.9 334.99 443.4 339.17 444.76 343.34 445.99 347.11 444.85 351.28 446.21 355.32 446.94 359.49 446.31 363.53 447.08 367.71 447.39 371.88 446.9 375.92 449.26 380.09 449.98 384.13 450.53 388.3 450.07 392.47 450.07 396.24 450.8 400.42 451.16 404.46 452.93 408.63 453.89 412.67 453.52 416.84 452.93 421.01 453.93 425.05 454.61 429.23 455.11 433.26 454.88 437.44 455.57 441.61 456.11 445.51 456.52 449.69 456.65 453.73 456.7 457.9 456.88 461.94 456.79 466.11 457.11 470.28 457.43 474.32 457.97 478.5 458.38 482.53 458.56 486.71 459.2 490.88 459.33 494.65 459.83 498.82 460.2 502.86 460.24 507.03 460.2 511.07 459.97 515.25 460.33 519.42 460.92 523.46 460.2 527.63 460.51 531.67 460.38 535.84 460.74 540.02 461.33 543.78 460.06 547.96 458.79 552 459.33 556.17 459.06 560.21 459.47 564.38 459.51 568.55 460.06 572.59 459.79 576.77 459.11 580.8 458.74 584.98 458.88 589.15 459.97 592.92 460.01 597.09 460.51 601.13 460.47 605.3 460.33 609.34 460.01 613.52 460.69 617.69 461.24 621.73 460.88 625.9 460.88 629.94 461.01 634.11 461.74 638.29 460.69 642.19 458.79 646.36 458.74 650.4 457.97 654.57 455.7 658.61 452.16 662.79 450.57 666.96 449.26 671 448.62 675.17 447.71 679.21 447.35 683.38 446.9 687.56 445.9 691.33 445.99 695.5 445.81 699.54 446.12 703.71 446.08 707.75 446.08 711.92 445.53 716.09 444.63 720.13 444.08 724.31 443.31 728.35 443.94 732.52 442.54 736.69 438.36 740.46 439.86 744.63 440.77 748.67 443.17 752.85 442.95 756.88 442.63 761.06 442.58" style="stroke-width:1.07;stroke:#f49323;stroke-dasharray:2.85,2.85;stroke-linecap:butt;fill:none;stroke-linejoin:round;stroke-miterlimit:10"/><circle cx="761.06" cy="171.41" r="3.8" style="stroke-width:1.2;stroke:#ed1f24;fill:#ed1f24;stroke-linecap:round;stroke-linejoin:round;stroke-miterlimit:10"/><circle cx="761.06" cy="466.78" r="3.8" style="stroke-width:1.2;stroke:#3a53a4;fill:#3a53a4;stroke-linecap:round;stroke-linejoin:round;stroke-miterlimit:10"/><circle cx="761.06" cy="453.52" r="3.8" style="stroke-width:1.2;stroke:#f49323;fill:#f49323;stroke-linecap:round;stroke-linejoin:round;stroke-miterlimit:10"/><circle cx="761.06" cy="382.12" r="3.8" style="stroke-width:1.2;stroke:#009147;fill:#009147;stroke-linecap:round;stroke-linejoin:round;stroke-miterlimit:10"/><circle cx="761.06" cy="458.33" r="3.8" style="stroke-width:1.2;stroke:#b9519e;fill:#b9519e;stroke-linecap:round;stroke-linejoin:round;stroke-miterlimit:10"/><circle cx="761.06" cy="464.51" r="3.8" style="stroke-width:1.2;fill:#000;stroke:#000;stroke-linecap:round;stroke-linejoin:round;stroke-miterlimit:10"/><circle cx="761.06" cy="464.78" r="3.8" style="stroke-width:1.2;stroke:#4dd9ff;fill:#4dd9ff;stroke-linecap:round;stroke-linejoin:round;stroke-miterlimit:10"/><circle cx="761.06" cy="455.11" r="3.8" style="stroke-width:1.2;stroke:#ed1f24;fill:#ed1f24;stroke-linecap:round;stroke-linejoin:round;stroke-miterlimit:10"/><circle cx="761.06" cy="467.87" r="3.8" style="stroke-width:1.2;stroke:#3a53a4;fill:#3a53a4;stroke-linecap:round;stroke-linejoin:round;stroke-miterlimit:10"/><circle cx="761.06" cy="442.58" r="3.8" style="stroke-width:1.2;stroke:#f49323;fill:#f49323;stroke-linecap:round;stroke-linejoin:round;stroke-miterlimit:10"/><polyline points="93.36 468.09 93.36 14.17" style="stroke-width:1.07;stroke:#464646;stroke-linecap:butt;fill:none;stroke-linejoin:round;stroke-miterlimit:10"/><text x="66.67" y="472.5" style="font-size:18px;font-family:Asap" textLength="9.63" lengthAdjust="spacingAndGlyphs">0</text><text x="57.04" y="381.72" style="font-size:18px;font-family:Asap" textLength="19.27" lengthAdjust="spacingAndGlyphs">20</text><text x="57.04" y="290.94" style="font-size:18px;font-family:Asap" textLength="19.27" lengthAdjust="spacingAndGlyphs">40</text><text x="57.04" y="200.15" style="font-size:18px;font-family:Asap" textLength="19.27" lengthAdjust="spacingAndGlyphs">60</text><text x="57.04" y="109.37" style="font-size:18px;font-family:Asap" textLength="19.27" lengthAdjust="spacingAndGlyphs">80</text><text x="47.41" y="18.58" style="font-size:18px;font-family:Asap" textLength="28.9" lengthAdjust="spacingAndGlyphs">100</text><polyline points="86.27 468.09 93.36 468.09" style="stroke-width:1.07;stroke:#464646;stroke-linecap:butt;fill:none;stroke-linejoin:round;stroke-miterlimit:10"/><polyline points="86.27 377.31 93.36 377.31" style="stroke-width:1.07;stroke:#464646;stroke-linecap:butt;fill:none;stroke-linejoin:round;stroke-miterlimit:10"/><polyline points="86.27 286.53 93.36 286.53" style="stroke-width:1.07;stroke:#464646;stroke-linecap:butt;fill:none;stroke-linejoin:round;stroke-miterlimit:10"/><polyline points="86.27 195.74 93.36 195.74" style="stroke-width:1.07;stroke:#464646;stroke-linecap:butt;fill:none;stroke-linejoin:round;stroke-miterlimit:10"/><polyline points="86.27 104.96 93.36 104.96" style="stroke-width:1.07;stroke:#464646;stroke-linecap:butt;fill:none;stroke-linejoin:round;stroke-miterlimit:10"/><polyline points="86.27 14.17 93.36 14.17" style="stroke-width:1.07;stroke:#464646;stroke-linecap:butt;fill:none;stroke-linejoin:round;stroke-miterlimit:10"/><polyline points="93.36 468.09 781.65 468.09" style="stroke-width:1.07;stroke:#464646;stroke-linecap:butt;fill:none;stroke-linejoin:round;stroke-miterlimit:10"/><polyline points="93.36 475.18 93.36 468.09" style="stroke-width:1.07;stroke:#464646;stroke-linecap:butt;fill:none;stroke-linejoin:round;stroke-miterlimit:10"/><polyline points="191.63 475.18 191.63 468.09" style="stroke-width:1.07;stroke:#464646;stroke-linecap:butt;fill:none;stroke-linejoin:round;stroke-miterlimit:10"/><polyline points="290.03 475.18 290.03 468.09" style="stroke-width:1.07;stroke:#464646;stroke-linecap:butt;fill:none;stroke-linejoin:round;stroke-miterlimit:10"/><polyline points="388.3 475.18 388.3 468.09" style="stroke-width:1.07;stroke:#464646;stroke-linecap:butt;fill:none;stroke-linejoin:round;stroke-miterlimit:10"/><polyline points="486.71 475.18 486.71 468.09" style="stroke-width:1.07;stroke:#464646;stroke-linecap:butt;fill:none;stroke-linejoin:round;stroke-miterlimit:10"/><polyline points="584.98 475.18 584.98 468.09" style="stroke-width:1.07;stroke:#464646;stroke-linecap:butt;fill:none;stroke-linejoin:round;stroke-miterlimit:10"/><polyline points="683.38 475.18 683.38 468.09" style="stroke-width:1.07;stroke:#464646;stroke-linecap:butt;fill:none;stroke-linejoin:round;stroke-miterlimit:10"/><polyline points="781.65 475.18 781.65 468.09" style="stroke-width:1.07;stroke:#464646;stroke-linecap:butt;fill:none;stroke-linejoin:round;stroke-miterlimit:10"/><text x="74.09" y="497.78" style="font-size:18px;font-family:Asap" textLength="38.53" lengthAdjust="spacingAndGlyphs">2009</text><text x="172.36" y="497.78" style="font-size:18px;font-family:Asap" textLength="38.53" lengthAdjust="spacingAndGlyphs">2011</text><text x="270.76" y="497.78" style="font-size:18px;font-family:Asap" textLength="38.53" lengthAdjust="spacingAndGlyphs">2013</text><text x="369.03" y="497.78" style="font-size:18px;font-family:Asap" textLength="38.53" lengthAdjust="spacingAndGlyphs">2015</text><text x="467.44" y="497.78" style="font-size:18px;font-family:Asap" textLength="38.53" lengthAdjust="spacingAndGlyphs">2017</text><text x="565.71" y="497.78" style="font-size:18px;font-family:Asap" textLength="38.53" lengthAdjust="spacingAndGlyphs">2019</text><text x="664.12" y="497.78" style="font-size:18px;font-family:Asap" textLength="38.53" lengthAdjust="spacingAndGlyphs">2021</text><text x="762.39" y="497.78" style="font-size:18px;font-family:Asap" textLength="38.53" lengthAdjust="spacingAndGlyphs">2023</text><text x="417.41" y="530.59" style="font-size:20px;font-weight:600;font-family:Asap" textLength="40.18" lengthAdjust="spacingAndGlyphs">Year</text><text transform="rotate(-90 199.5 171.28)" style="font-size:20px;font-weight:600;font-family:Asap" textLength="63.12" lengthAdjust="spacingAndGlyphs">Market</text><text transform="rotate(-90 165.535 137.315)" style="font-size:20px;font-weight:600;font-family:Asap" textLength="48.56" lengthAdjust="spacingAndGlyphs">share</text><text transform="rotate(-90 138.855 110.635)" style="font-size:20px;font-weight:600;font-family:Asap" textLength="16.44" lengthAdjust="spacingAndGlyphs">in</text><text transform="rotate(-90 128.235 100.015)" style="font-size:20px;font-weight:600;font-family:Asap" textLength="28.92" lengthAdjust="spacingAndGlyphs">the</text><text transform="rotate(-90 111.37 83.15)" style="font-size:20px;font-weight:600;font-family:Asap" textLength="50.89" lengthAdjust="spacingAndGlyphs">world</text><text transform="rotate(-90 83.525 55.305)" style="font-size:20px;font-weight:600;font-family:Asap" textLength="27.34" lengthAdjust="spacingAndGlyphs">(%)</text><rect x="199.82" y="-27.04" width="200.04" height="264" style="stroke-width:1.07;stroke:none;fill:#fff;stroke-linecap:round;stroke-linejoin:round;stroke-miterlimit:10"/><line x1="218.25" y1="17.58" x2="252.26" y2="17.58" style="stroke-width:1.07;stroke:#ed1f24;stroke-linecap:butt;fill:none;stroke-linejoin:round;stroke-miterlimit:10"/><circle cx="248.01" cy="17.58" r="4.27" style="stroke-width:.75;stroke:#ed1f24;fill:#ed1f24;stroke-linecap:round;stroke-linejoin:round;stroke-miterlimit:10"/><line x1="218.25" y1="39.18" x2="252.26" y2="39.18" style="stroke-width:1.07;stroke:#3a53a4;stroke-dasharray:2.85,2.85,8.54,2.85;stroke-linecap:butt;fill:none;stroke-linejoin:round;stroke-miterlimit:10"/><circle cx="248.01" cy="39.18" r="4.27" style="stroke-width:.75;stroke:#3a53a4;fill:#3a53a4;stroke-linecap:round;stroke-linejoin:round;stroke-miterlimit:10"/><line x1="218.25" y1="60.78" x2="252.26" y2="60.78" style="stroke-width:1.07;stroke:#f49323;stroke-linecap:butt;fill:none;stroke-linejoin:round;stroke-miterlimit:10"/><circle cx="248.01" cy="60.78" r="4.27" style="stroke-width:.75;stroke:#f49323;fill:#f49323;stroke-linecap:round;stroke-linejoin:round;stroke-miterlimit:10"/><line x1="218.25" y1="82.38" x2="252.26" y2="82.38" style="stroke-width:1.07;stroke:#009147;stroke-dasharray:2.85,2.85;stroke-linecap:butt;fill:none;stroke-linejoin:round;stroke-miterlimit:10"/><circle cx="248.01" cy="82.38" r="4.27" style="stroke-width:.75;stroke:#009147;fill:#009147;stroke-linecap:round;stroke-linejoin:round;stroke-miterlimit:10"/><line x1="218.25" y1="103.98" x2="252.26" y2="103.98" style="stroke-width:1.07;stroke:#b9519e;stroke-linecap:butt;fill:none;stroke-linejoin:round;stroke-miterlimit:10"/><circle cx="248.01" cy="103.98" r="4.27" style="stroke-width:.75;stroke:#b9519e;fill:#b9519e;stroke-linecap:round;stroke-linejoin:round;stroke-miterlimit:10"/><line x1="218.25" y1="125.58" x2="252.26" y2="125.58" style="stroke-width:1.07;stroke-linecap:butt;fill:none;stroke:#000;stroke-linejoin:round;stroke-miterlimit:10"/><circle cx="248.01" cy="125.58" r="4.27" style="stroke-width:.75;fill:#000;stroke:#000;stroke-linecap:round;stroke-linejoin:round;stroke-miterlimit:10"/><line x1="218.25" y1="147.18" x2="252.26" y2="147.18" style="stroke-width:1.07;stroke:#4dd9ff;stroke-linecap:butt;fill:none;stroke-linejoin:round;stroke-miterlimit:10"/><circle cx="248.01" cy="147.18" r="4.27" style="stroke-width:.75;stroke:#4dd9ff;fill:#4dd9ff;stroke-linecap:round;stroke-linejoin:round;stroke-miterlimit:10"/><line x1="218.25" y1="168.78" x2="252.26" y2="168.78" style="stroke-width:1.07;stroke:#ed1f24;stroke-dasharray:2.85,2.85,8.54,2.85;stroke-linecap:butt;fill:none;stroke-linejoin:round;stroke-miterlimit:10"/><circle cx="248.01" cy="168.78" r="4.27" style="stroke-width:.75;stroke:#ed1f24;fill:#ed1f24;stroke-linecap:round;stroke-linejoin:round;stroke-miterlimit:10"/><line x1="218.25" y1="190.38" x2="252.26" y2="190.38" style="stroke-width:1.07;stroke:#3a53a4;stroke-linecap:butt;fill:none;stroke-linejoin:round;stroke-miterlimit:10"/><circle cx="248.01" cy="190.38" r="4.27" style="stroke-width:.75;stroke:#3a53a4;fill:#3a53a4;stroke-linecap:round;stroke-linejoin:round;stroke-miterlimit:10"/><line x1="218.25" y1="211.98" x2="252.26" y2="211.98" style="stroke-width:1.07;stroke:#f49323;stroke-dasharray:2.85,2.85;stroke-linecap:butt;fill:none;stroke-linejoin:round;stroke-miterlimit:10"/><circle cx="248.01" cy="211.98" r="4.27" style="stroke-width:.75;stroke:#f49323;fill:#f49323;stroke-linecap:round;stroke-linejoin:round;stroke-miterlimit:10"/><text x="262" y="21.5" style="font-size:16px;font-family:Asap" textLength="56.08" lengthAdjust="spacingAndGlyphs">Chrome</text><text x="262" y="43.1" style="font-size:16px;font-family:Asap" textLength="56.4" lengthAdjust="spacingAndGlyphs">Internet</text><text x="322.24" y="43.1" style="font-size:16px;font-family:Asap" textLength="59.85" lengthAdjust="spacingAndGlyphs">Explorer</text><text x="262" y="64.7" style="font-size:16px;font-family:Asap" textLength="48.83" lengthAdjust="spacingAndGlyphs">Firefox</text><text x="262" y="86.3" style="font-size:16px;font-family:Asap" textLength="40.73" lengthAdjust="spacingAndGlyphs">Safari</text><text x="262" y="107.9" style="font-size:16px;font-family:Asap" textLength="44.06" lengthAdjust="spacingAndGlyphs">Opera</text><text x="262" y="129.5" style="font-size:16px;font-family:Asap" textLength="55.99" lengthAdjust="spacingAndGlyphs">Android</text><text x="262" y="151.1" style="font-size:16px;font-family:Asap" textLength="21.29" lengthAdjust="spacingAndGlyphs">UC</text><text x="287.12" y="151.1" style="font-size:16px;font-family:Asap" textLength="57.48" lengthAdjust="spacingAndGlyphs">Browser</text><text x="262" y="172.7" style="font-size:16px;font-family:Asap" textLength="63.45" lengthAdjust="spacingAndGlyphs">Samsung</text><text x="329.29" y="172.7" style="font-size:16px;font-family:Asap" textLength="56.4" lengthAdjust="spacingAndGlyphs">Internet</text><text x="262" y="194.3" style="font-size:16px;font-family:Asap" textLength="35.13" lengthAdjust="spacingAndGlyphs">Edge</text><text x="300.96" y="194.3" style="font-size:16px;font-family:Asap" textLength="49.28" lengthAdjust="spacingAndGlyphs">Legacy</text><text x="262" y="215.9" style="font-size:16px;font-family:Asap" textLength="40.68" lengthAdjust="spacingAndGlyphs">Other</text></g></svg>