<svg version="1.1" xmlns="http://www.w3.org/2000/svg" x="0" y="0" viewBox="0 0 311.81 57.04" style="enable-background:new 0 0 311.81 57.04" xml:space="preserve"><rect x="33.04" y="2.26" style="fill:#3a53a4" width="90.6" height="52.41"/><text transform="translate(51.704 18.032)" style="fill:#fff;font-family:'Asap-Bold';font-size:8px">Market income</text><rect x="218.46" y="2.26" style="fill:#3a53a4" width="60.31" height="52.41"/><rect x="222.73" y="19.46" style="fill:none" width="51.77" height="18.02"/><text transform="translate(229.102 26.257)"><tspan x="0" y="0" style="fill:#fff;font-family:'Asap-Bold';font-size:8px">Disposable </tspan><tspan x="6.46" y="9.6" style="fill:#fff;font-family:'Asap-Bold';font-size:8px">income</tspan></text><rect x="37.65" y="21.96" style="fill:none" width="82" height="31.59"/><text transform="translate(47.647 27.907)"><tspan x="0" y="0" style="fill:#fff;font-family:'Asap-Regular';font-size:7px">Income from wages, </tspan><tspan x="-9.27" y="8.4" style="fill:#fff;font-family:'Asap-Regular';font-size:7px">salaries, self-employment, </tspan><tspan x="-8.8" y="16.8" style="fill:#fff;font-family:'Asap-Regular';font-size:7px">business, and investments</tspan></text><rect x="132.14" y="20.22" style="fill:none" width="73.97" height="31.59"/><text transform="translate(132.143 26.175)"><tspan x="0" y="0" style="font-family:'Asap-Regular';font-size:7px">Subtract direct taxes.</tspan><tspan x="0" y="8.4" style="font-family:'Asap-Regular';font-size:7px">Add cash transfers.</tspan></text><line style="fill:none;stroke:#000;stroke-width:.5;stroke-linecap:square;stroke-linejoin:round" x1="199.86" y1="28.52" x2="214.09" y2="28.52"/><polygon points="212.76 30.16 212.49 29.86 213.94 28.52 212.49 27.18 212.76 26.88 214.52 28.52"/></svg>