<svg version="1.1" xmlns="http://www.w3.org/2000/svg" x="0" y="0" viewBox="0 0 311.81 182" style="enable-background:new 0 0 311.81 182" xml:space="preserve"><polygon style="fill:none" points="220.61 56.45 220.89 87.63 245.5 87.63 245.5 44.44"/><polygon style="fill:#e2eae1" points="220.61 56.45 220.61 91.65 245.5 87.63 244.99 44.69"/><g><path style="fill:#e2eae1" d="M220.61 56.45c-55.71 25.78-114.79 45.77-173.87 57.76l-.23 7.75c.15-.02.3-.05.44-.07-.02-.2-.01-.39.1-.57.37-.6 2.52-.61 3.16-.71 1.06-.17 2.14-.31 3.21-.44.68-.21 1.36-.38 2.07-.42.08 0 .16-.01.25-.01 2.03-.57 4.29-.67 6.31-1.02.75-.13 1.51-.25 2.26-.37.92-.45 1.94-.55 2.98-.61.85-.37 1.83-.43 2.79-.43 1.91-.57 4.04-.75 6.08-1.01.31-.06.63-.11.95-.16.05-.01.1 0 .16-.01-.24 0-.48-.01-.72-.01-.08-.01-.15-.01-.23-.02.19-.02.37-.03.56-.03.22-.01.44-.01.65-.01a.3.3 0 00.1-.04h.06c.04-.01.09-.01.16-.02-.01-.01-.01-.03-.01-.07.01-.05.04-.08.09-.1l-.01-.01h.02c.15-.07.46-.02.54-.03.25-.01.49-.01.74-.01h-.09c.09-.02.18-.03.27-.04.03-.01.06-.02.1-.03l.44-.06c.2-.03.41-.06.61-.1h-.07c.06-.01.12-.01.19-.02.15-.07.3-.14.47-.19.25-.07.51-.09.77-.11.08-.01.43-.02.72-.03.07-.04.14-.08.22-.1.07-.02.15-.02.23-.03.13-.01.25-.01.38-.02.75-.21 1.51-.41 2.24-.49.4-.05.81-.07 1.22-.09.19-.04.37-.07.55-.1h-.01.01c.07-.06.15-.11.25-.14.04 0 .08-.01.12-.01.04-.07.1-.12.18-.13h.01c.06-.01.13-.01.22-.02.38-.02.76-.02 1.15-.02h-.01l.15-.03c.02 0 .04-.01.06-.01-.08-.02-.15-.05-.23-.06-.18-.01-.19-.01-.03-.02.26-.02.51-.03.77-.02h.16c.19-.09.39-.11.6-.11.05-.01.1-.03.16-.04.09-.01.18-.02.27-.02a2.509 2.509 0 01.49-.09c.08-.01.15-.01.23-.02-.04 0-.08.01-.11.01.04 0 .07 0 .11-.01.59-.33 1.62-.34 2.33-.41.34-.05.67-.11 1.01-.16.79-.14 1.59-.31 2.38-.41.28-.07.56-.14.85-.19-.09-.01-.18-.01-.28-.03h.55c.87-.25 1.72-.38 2.58-.44-.01 0-.01-.01-.02-.01h.15c.06-.01.12-.02.19-.03.02 0 .05 0 .07-.01.24-.05.47-.1.71-.17.33-.09.64-.12.96-.13.05-.03.1-.07.11-.12.02-.07.56-.07 1.07-.06.44-.17.93-.35 1.4-.4.29-.03.78-.06 1.32-.09.38-.06.76-.1 1.15-.13 0 0 .01 0 0-.01 0-.01.13-.02.34-.03.68-.27 1.49-.33 2.2-.43.22-.03.44-.05.66-.07.43-.11.86-.21 1.32-.24.09-.01.19-.01.28-.01.28-.13.56-.17.85-.19 1.6-.45 3.23-.62 4.86-.82.12-.09.24-.18.39-.23.11-.04.22-.06.33-.08 0 0-.01 0-.01-.01h.06c.06-.01.11-.01.17-.02h.19c.21-.07.54-.07.87-.05.07-.03.13-.06.21-.08-.02 0-.02-.01-.04-.01h.11c.04-.01.08-.01.12-.02.17-.02.34-.03.52-.04 1.97-.44 3.94-.74 5.91-.95 1.04-.35 2.1-.48 3.22-.52.14-.05.29-.09.43-.13-.15.02-.3.04-.44.07.17-.04.35-.06.52-.09.72-.21 1.45-.37 2.23-.39h.09c1.8-.34 3.65-.46 5.44-.81 1.4-.27 2.72-.51 4.06-.69h-.05c.28-.09.56-.17.84-.25-.01 0-.03-.01-.04-.01h.07c.95-.25 1.9-.39 2.91-.41h.2c2.2-.38 4.4-.76 6.59-1.2.66-.13 1.31-.22 1.96-.28.11-.02.22-.05.32-.07-.05-.02-.1-.03-.16-.05h.38c.99-.21 1.97-.43 2.99-.53.23-.02.46-.03.7-.05-.3-.01-.59-.01-.78.03 1.38-.32 2.55-.49 3.97-.62.04 0 .1 0 .14-.01 1.62-.33 3.22-.73 4.87-.86-.05-.01-.1-.02-.15-.02h.44c.09 0 .17-.01.26-.02.1-.04.19-.07.29-.12.22-.09.43-.14.64-.16h-.01.02c.14-.02.29-.02.44-.03.64-.12 1.29-.22 1.92-.23h.08c-.1 0-.2 0-.3-.01.22-.1.45-.14.68-.16.2-.02.4-.02.6-.03.08-.02.16-.05.25-.07.15-.04.3-.06.45-.08.13-.05.3-.07.46-.07l.23-.03c.01 0 .02 0 .04-.01.28-.07.57-.11.87-.14.05-.03.1-.05.16-.07h-.14c-.08-.01-.15-.01-.23-.02.19-.02.37-.03.56-.03h.03c.29-.06.6-.09.9-.11-.02-.02-.04-.04-.03-.06.05-.1.59-.11.9-.11.13-.03.29-.03.38-.08.02-.01.05-.01.07-.02.42-.14.94-.18 1.25-.22.27-.04.54-.06.81-.08.1-.05.22-.07.32-.08.07-.01.14 0 .21-.01.51-.11 1.03-.21 1.54-.26h.03c3.93-1.03 8.1-1.56 12.13-2.04 1.46-.26 2.92-.5 4.38-.73-.22-.01-.44-.01-.62.02.58-.07 1.15-.13 1.71-.21.03-.01.05-.02.08-.02.23-.05.47-.08.7-.11.39-.07.78-.15 1.17-.25.3-.08.51-.1.77-.11.4-.13.83-.23 1.36-.29.22-.03.44-.05.66-.08.46-.12.93-.19 1.42-.23.19-.06.39-.11.57-.2.22-.09.53-.1.85-.09 1.8-.35 3.62-.61 5.43-.85.13-.03.27-.05.4-.08h-.01l.14-.03c1.01-.2 2.01-.37 3.02-.5 1.5-.31 3-.62 4.51-.72"/><line style="fill:none;stroke:#6d6e71;stroke-width:.5;stroke-linecap:square;stroke-linejoin:round" x1="46.57" y1="4.3" x2="44.45" y2="4.3"/><line style="fill:none;stroke:#6d6e71;stroke-width:.5;stroke-linecap:square;stroke-linejoin:round" x1="46.57" y1="70.97" x2="44.45" y2="70.97"/><line style="fill:none;stroke:#6d6e71;stroke-width:.5;stroke-linecap:square;stroke-linejoin:round" x1="46.57" y1="87.63" x2="44.45" y2="87.63"/><line style="fill:none;stroke:#6d6e71;stroke-width:.5;stroke-linecap:square;stroke-linejoin:round" x1="46.57" y1="137.63" x2="44.45" y2="137.63"/><line style="fill:none;stroke:#6d6e71;stroke-width:.5;stroke-linecap:square;stroke-linejoin:round" x1="46.57" y1="154.3" x2="44.45" y2="154.3"/><line style="fill:none;stroke:#6d6e71;stroke-width:.5;stroke-linecap:square;stroke-linejoin:round" x1="295.19" y1="154.63" x2="295.19" y2="156.76"/><line style="fill:none;stroke:#6d6e71;stroke-width:.5;stroke-linecap:square;stroke-linejoin:round" x1="270.58" y1="154.63" x2="270.58" y2="156.76"/><line style="fill:none;stroke:#6d6e71;stroke-width:.5;stroke-linecap:square;stroke-linejoin:round" x1="245.5" y1="154.63" x2="245.5" y2="156.76"/><line style="fill:none;stroke:#6d6e71;stroke-width:.5;stroke-linecap:square;stroke-linejoin:round" x1="220.89" y1="154.63" x2="220.89" y2="156.76"/><line style="fill:none;stroke:#6d6e71;stroke-width:.5;stroke-linecap:square;stroke-linejoin:round" x1="195.81" y1="154.63" x2="195.81" y2="156.76"/><line style="fill:none;stroke:#6d6e71;stroke-width:.5;stroke-linecap:square;stroke-linejoin:round" x1="171.2" y1="154.63" x2="171.2" y2="156.76"/><line style="fill:none;stroke:#6d6e71;stroke-width:.5;stroke-linecap:square;stroke-linejoin:round" x1="146.12" y1="154.63" x2="146.12" y2="156.76"/><line style="fill:none;stroke:#6d6e71;stroke-width:.5;stroke-linecap:square;stroke-linejoin:round" x1="121.04" y1="154.63" x2="121.04" y2="156.76"/><line style="fill:none;stroke:#6d6e71;stroke-width:.5;stroke-linecap:square;stroke-linejoin:round" x1="96.43" y1="154.63" x2="96.43" y2="156.76"/><line style="fill:none;stroke:#6d6e71;stroke-width:.5;stroke-linecap:square;stroke-linejoin:round" x1="71.35" y1="154.63" x2="71.35" y2="156.76"/><line style="fill:none;stroke:#6d6e71;stroke-width:.5;stroke-linecap:square;stroke-linejoin:round" x1="46.74" y1="154.63" x2="46.74" y2="156.76"/><line style="fill:none;stroke:#6d6e71;stroke-width:.5;stroke-linecap:square;stroke-linejoin:round" x1="46.74" y1="154.3" x2="295.19" y2="154.3"/><text transform="translate(104.143 179.143)"><tspan x="0" y="0" style="font-family:'Asap-Medium';font-size:8px">Quantity of bananas, </tspan><tspan x="74.9" y="0" style="font-family:'Asap-MediumItalic';font-size:8px">Q</tspan><tspan x="80.75" y="0" style="font-family:'Asap-Medium';font-size:8px"> (tons per year)</tspan></text><text transform="translate(44.653 165.676)" style="font-family:'Asap-Regular';font-size:7px">0</text><rect x="44.06" y="158.25" style="fill:none" width="5.29" height="9.75"/><text transform="translate(58.906 165.676)" style="font-family:'Asap-Regular';font-size:7px">10,000</text><text transform="translate(84.906 165.676)" style="font-family:'Asap-Regular';font-size:7px">20,000</text><line style="fill:none;stroke:#6d6e71;stroke-width:.5;stroke-linecap:square;stroke-linejoin:round" x1="46.57" y1="120.97" x2="44.45" y2="120.97"/><line style="fill:none;stroke:#6d6e71;stroke-width:.5;stroke-linecap:square;stroke-linejoin:round" x1="46.57" y1="104.3" x2="44.45" y2="104.3"/><line style="fill:none;stroke:#6d6e71;stroke-width:.5;stroke-linecap:square;stroke-linejoin:round" x1="46.57" y1="54.3" x2="44.45" y2="54.3"/><line style="fill:none;stroke:#6d6e71;stroke-width:.5;stroke-linecap:square;stroke-linejoin:round" x1="46.57" y1="37.63" x2="44.45" y2="37.63"/><line style="fill:none;stroke:#6d6e71;stroke-width:.5;stroke-linecap:square;stroke-linejoin:round" x1="46.57" y1="20.97" x2="44.45" y2="20.97"/><text transform="translate(109.906 165.676)" style="font-family:'Asap-Regular';font-size:7px">30,000</text><text transform="translate(134.906 165.676)" style="font-family:'Asap-Regular';font-size:7px">40,000</text><text transform="translate(159.906 165.676)" style="font-family:'Asap-Regular';font-size:7px">50,000</text><text transform="translate(184.906 165.676)" style="font-family:'Asap-Regular';font-size:7px">60,000</text><text transform="translate(209.906 165.676)" style="font-family:'Asap-Regular';font-size:7px">70,000</text><text transform="translate(234.906 165.676)" style="font-family:'Asap-Regular';font-size:7px">80,000</text><text transform="translate(259.906 165.676)" style="font-family:'Asap-Regular';font-size:7px">90,000</text><text transform="translate(284.906 165.676)" style="font-family:'Asap-Regular';font-size:7px">100,000</text><text transform="rotate(-90 52.061 40.889)" style="font-family:'Asap-Medium';font-size:8px">Costs ($)</text><text transform="translate(35.361 156.852)" style="font-family:'Asap-Regular';font-size:7px">0</text><text transform="translate(27.695 140.245)" style="font-family:'Asap-Regular';font-size:7px">100</text><text transform="translate(27.695 124.245)" style="font-family:'Asap-Regular';font-size:7px">200</text><text transform="translate(27.695 107.245)" style="font-family:'Asap-Regular';font-size:7px">300</text><text transform="translate(27.695 89.245)" style="font-family:'Asap-Regular';font-size:7px">400</text><text transform="translate(27.695 73.245)" style="font-family:'Asap-Regular';font-size:7px">500</text><text transform="translate(27.695 56.245)" style="font-family:'Asap-Regular';font-size:7px">600</text><text transform="translate(27.695 40.245)" style="font-family:'Asap-Regular';font-size:7px">700</text><text transform="translate(27.695 23.245)" style="font-family:'Asap-Regular';font-size:7px">800</text><text transform="translate(27.695 7.245)" style="font-family:'Asap-Regular';font-size:7px">900</text><text transform="translate(280.906 15.5)" style="font-family:'Asap-Regular';font-size:6px">MSC</text><text transform="translate(280.906 75.906)" style="font-family:'Asap-Regular';font-size:6px">MPC</text><text transform="translate(56.491 84.302)" style="font-family:'Asap-Regular';font-size:6px">Price</text><text transform="translate(137.554 83.302)" style="font-family:'Asap-Regular';font-size:6px">B</text><text transform="translate(247.576 94.519)" style="font-family:'Asap-Regular';font-size:6px">A</text><line style="fill:none;stroke:#0871b9;stroke-width:.5;stroke-linecap:square;stroke-linejoin:round" x1="249.65" y1="84.8" x2="249.65" y2="45.24"/><polygon style="fill:#0871b9" points="251.69 83.14 251.33 82.8 249.65 84.6 247.97 82.8 247.6 83.14 249.65 85.34"/><polygon style="fill:#0871b9" points="251.69 46.89 251.33 47.23 249.65 45.43 247.97 47.23 247.6 46.89 249.65 44.69"/><text transform="translate(252.182 66.016)" style="font-family:'Asap-Regular';font-size:6px">$275</text><path style="fill:none;stroke:#39b54a;stroke-width:.5;stroke-linejoin:round" d="M294.25 17.85c-75.56 44.54-161.54 78.91-247.5 96.36"/><path style="fill:none;stroke:#b9519e;stroke-width:.5;stroke-linejoin:round" d="M295.18 79.11c-81.34 13.63-167.41 28.27-248.55 41.86"/><line style="fill:none;stroke:#6d6e71;stroke-width:.5;stroke-linecap:square;stroke-linejoin:round" x1="46.74" y1="154.3" x2="46.74" y2="4.3"/><line style="fill:none;stroke:#939598;stroke-width:.5;stroke-linecap:square;stroke-linejoin:round;stroke-dasharray:1.417" x1="141.12" y1="153.96" x2="141.12" y2="87.63"/><line style="fill:none;stroke:#939598;stroke-width:.5;stroke-linecap:square;stroke-linejoin:round;stroke-dasharray:1.417" x1="245.5" y1="153.96" x2="245.5" y2="87.8"/><line style="fill:none;stroke:#000;stroke-width:.5;stroke-linecap:square" x1="46.93" y1="87.63" x2="295.19" y2="87.63"/><path d="M245.5 88.48c-.62 0-1.13-.51-1.13-1.13 0-.62.51-1.13 1.13-1.13.62 0 1.13.51 1.13 1.13 0 .62-.51 1.13-1.13 1.13zM141.12 88.48c-.62 0-1.13-.51-1.13-1.13 0-.62.51-1.13 1.13-1.13.62 0 1.13.51 1.13 1.13 0 .62-.51 1.13-1.13 1.13z"/></g></svg>