<svg xmlns="http://www.w3.org/2000/svg" viewBox="0 0 810 426"><rect width="100%" height="100%" style="stroke:none;fill:#fff;stroke-linecap:round;stroke-linejoin:round;stroke-miterlimit:10"/><rect x="0" y="0" width="810" height="426" style="stroke-width:1.07;stroke:#fff;fill:#fff;stroke-linecap:round;stroke-linejoin:round;stroke-miterlimit:10"/><rect x="93.34" y="14.17" width="702.49" height="330.93" style="stroke-width:1.07;stroke:none;fill:#fff;stroke-linecap:round;stroke-linejoin:round;stroke-miterlimit:10"/><polyline points="93.34 345.1 795.83 345.1" style="stroke-width:1.07;stroke:#c6c4c4;stroke-linecap:butt;fill:none;stroke-linejoin:round;stroke-miterlimit:10"/><polyline points="93.34 262.37 795.83 262.37" style="stroke-width:1.07;stroke:#c6c4c4;stroke-linecap:butt;fill:none;stroke-linejoin:round;stroke-miterlimit:10"/><polyline points="93.34 179.64 795.83 179.64" style="stroke-width:1.07;stroke:#c6c4c4;stroke-linecap:butt;fill:none;stroke-linejoin:round;stroke-miterlimit:10"/><polyline points="93.34 96.91 795.83 96.91" style="stroke-width:1.07;stroke:#c6c4c4;stroke-linecap:butt;fill:none;stroke-linejoin:round;stroke-miterlimit:10"/><polyline points="93.34 14.17 795.83 14.17" style="stroke-width:1.07;stroke:#c6c4c4;stroke-linecap:butt;fill:none;stroke-linejoin:round;stroke-miterlimit:10"/><polyline points="264.66 229.69 280.15 271.73 280.03 225.77 290.39 234 267.94 205.74 257.71 167.83 247.54 224.92 217.84 228 204.65 172.39 204.41 133.8 192.08 104.08 192.34 102.75 186.07 94.24 182.48 66.69 180.08 44.64 181.5 100.53 173.18 50.5 173.42 50.81 174.86 50.63 176.94 52.63 177.73 80.07 174.64 37.01 183.25 63.46 191.95 87.65 196.64 119.98 199.4 137.53 198.45 171.54 207.18 194.94 206.1 179.43 216.28 172.1 218.17 169.29 239.45 245.62 247.92 225.55 259.58 250.01 269.58 195.52 276.3 169.51 283.88 178.09 290.49 166.56 289.45 83.93 284.95 176 283.1 150.31 282.54 198.36 286.86 149.1 293.25 158.13 297.74 158.54 294.43 105.36 305.91 64.69 313.3 91.74 327.17 114.98 339.67 157.14 359.97 117.11 384.06 161.55 412.77 169.61 455.42 145.75 514.2 84.84 577.11 59.38 642.56 79.12 711.16 41.87 786.07 14.17" style="stroke-width:1.2;stroke:red;stroke-linecap:butt;fill:none;stroke-linejoin:round;stroke-miterlimit:10"/><line x1="264.66" y1="229.69" x2="334.91" y2="257.27" style="stroke-width:.53;stroke-linecap:butt;fill:none;stroke:#000;stroke-linejoin:round;stroke-miterlimit:10"/><line x1="280.15" y1="271.73" x2="322.3" y2="282.76" style="stroke-width:.53;stroke-linecap:butt;fill:none;stroke:#000;stroke-linejoin:round;stroke-miterlimit:10"/><line x1="257.71" y1="167.83" x2="257.71" y2="156.8" style="stroke-width:.53;stroke-linecap:butt;fill:none;stroke:#000;stroke-linejoin:round;stroke-miterlimit:10"/><line x1="247.54" y1="224.92" x2="247.54" y2="280.08" style="stroke-width:.53;stroke-linecap:butt;fill:none;stroke:#000;stroke-linejoin:round;stroke-miterlimit:10"/><line x1="217.84" y1="228" x2="182.72" y2="233.51" style="stroke-width:.53;stroke-linecap:butt;fill:none;stroke:#000;stroke-linejoin:round;stroke-miterlimit:10"/><line x1="204.41" y1="133.8" x2="169.29" y2="133.8" style="stroke-width:.53;stroke-linecap:butt;fill:none;stroke:#000;stroke-linejoin:round;stroke-miterlimit:10"/><line x1="181.5" y1="100.53" x2="146.37" y2="111.56" style="stroke-width:.53;stroke-linecap:butt;fill:none;stroke:#000;stroke-linejoin:round;stroke-miterlimit:10"/><line x1="174.64" y1="37.01" x2="121.95" y2="37.01" style="stroke-width:.53;stroke-linecap:butt;fill:none;stroke:#000;stroke-linejoin:round;stroke-miterlimit:10"/><line x1="216.28" y1="172.1" x2="233.84" y2="133.49" style="stroke-width:.53;stroke-linecap:butt;fill:none;stroke:#000;stroke-linejoin:round;stroke-miterlimit:10"/><line x1="239.45" y1="245.62" x2="204.33" y2="251.13" style="stroke-width:.53;stroke-linecap:butt;fill:none;stroke:#000;stroke-linejoin:round;stroke-miterlimit:10"/><line x1="305.91" y1="64.69" x2="305.91" y2="53.66" style="stroke-width:.53;stroke-linecap:butt;fill:none;stroke:#000;stroke-linejoin:round;stroke-miterlimit:10"/><line x1="339.67" y1="157.14" x2="339.67" y2="168.17" style="stroke-width:.53;stroke-linecap:butt;fill:none;stroke:#000;stroke-linejoin:round;stroke-miterlimit:10"/><line x1="359.97" y1="117.11" x2="359.97" y2="106.08" style="stroke-width:.53;stroke-linecap:butt;fill:none;stroke:#000;stroke-linejoin:round;stroke-miterlimit:10"/><line x1="412.77" y1="169.61" x2="412.77" y2="180.64" style="stroke-width:.53;stroke-linecap:butt;fill:none;stroke:#000;stroke-linejoin:round;stroke-miterlimit:10"/><line x1="455.42" y1="145.75" x2="490.54" y2="145.75" style="stroke-width:.53;stroke-linecap:butt;fill:none;stroke:#000;stroke-linejoin:round;stroke-miterlimit:10"/><line x1="514.2" y1="84.84" x2="479.08" y2="73.81" style="stroke-width:.53;stroke-linecap:butt;fill:none;stroke:#000;stroke-linejoin:round;stroke-miterlimit:10"/><line x1="577.11" y1="59.38" x2="577.11" y2="48.35" style="stroke-width:.53;stroke-linecap:butt;fill:none;stroke:#000;stroke-linejoin:round;stroke-miterlimit:10"/><line x1="642.56" y1="79.12" x2="642.56" y2="90.15" style="stroke-width:.53;stroke-linecap:butt;fill:none;stroke:#000;stroke-linejoin:round;stroke-miterlimit:10"/><line x1="711.16" y1="41.87" x2="676.04" y2="30.84" style="stroke-width:.53;stroke-linecap:butt;fill:none;stroke:#000;stroke-linejoin:round;stroke-miterlimit:10"/><line x1="786.07" y1="14.17" x2="786.07" y2="30.72" style="stroke-width:.53;stroke-linecap:butt;fill:none;stroke:#000;stroke-linejoin:round;stroke-miterlimit:10"/><polygon points="315.59 265.78 354.22 265.78 354.13 265.78 354.48 265.77 354.82 265.7 355.14 265.57 355.44 265.4 355.71 265.18 355.94 264.92 356.13 264.63 356.27 264.31 356.35 263.97 356.38 263.62 356.38 263.62 356.38 250.91 356.38 250.91 356.35 250.57 356.27 250.23 356.13 249.91 355.94 249.62 355.71 249.36 355.44 249.14 355.14 248.96 354.82 248.84 354.48 248.77 354.22 248.75 315.59 248.75 315.86 248.77 315.51 248.76 315.16 248.8 314.83 248.89 314.51 249.04 314.23 249.24 313.98 249.48 313.77 249.76 313.61 250.07 313.5 250.4 313.44 250.74 313.43 250.91 313.43 263.62 313.44 263.45 313.44 263.8 313.5 264.14 313.61 264.47 313.77 264.78 313.98 265.05 314.23 265.29 314.51 265.49 314.83 265.64 315.16 265.74 315.51 265.78" style="stroke-width:nan;stroke:none;fill:#fff;stroke-linecap:round;stroke-linejoin:round;stroke-miterlimit:10"/><text x="317.03" y="262.18" style="font-size:14px;font-family:Asap" textLength="35.74" lengthAdjust="spacingAndGlyphs">1280s</text><polygon points="302.99 291.27 341.61 291.27 341.53 291.27 341.87 291.26 342.21 291.19 342.54 291.06 342.84 290.89 343.11 290.67 343.34 290.41 343.53 290.12 343.66 289.8 343.75 289.46 343.77 289.11 343.77 289.11 343.77 276.4 343.77 276.4 343.75 276.06 343.66 275.72 343.53 275.4 343.34 275.11 343.11 274.85 342.84 274.63 342.54 274.45 342.21 274.33 341.87 274.26 341.61 274.24 302.99 274.24 303.25 274.26 302.9 274.25 302.56 274.29 302.23 274.38 301.91 274.53 301.63 274.73 301.37 274.97 301.17 275.25 301 275.56 300.89 275.89 300.84 276.23 300.83 276.4 300.83 289.11 300.84 288.94 300.84 289.29 300.89 289.63 301 289.96 301.17 290.27 301.37 290.54 301.63 290.79 301.91 290.98 302.23 291.13 302.56 291.23 302.9 291.27" style="stroke-width:nan;stroke:none;fill:#fff;stroke-linecap:round;stroke-linejoin:round;stroke-miterlimit:10"/><text x="304.43" y="287.67" style="font-size:14px;font-family:Asap" textLength="35.74" lengthAdjust="spacingAndGlyphs">1290s</text><polygon points="238.4 165.32 277.02 165.32 276.94 165.31 277.28 165.3 277.62 165.23 277.95 165.11 278.25 164.93 278.52 164.71 278.75 164.45 278.94 164.16 279.07 163.84 279.15 163.5 279.18 163.16 279.18 163.16 279.18 150.45 279.18 150.45 279.15 150.1 279.07 149.76 278.94 149.44 278.75 149.15 278.52 148.89 278.25 148.67 277.95 148.5 277.62 148.37 277.28 148.3 277.02 148.29 238.4 148.29 238.66 148.3 238.31 148.29 237.97 148.33 237.63 148.43 237.32 148.58 237.03 148.77 236.78 149.02 236.58 149.29 236.41 149.6 236.3 149.93 236.25 150.27 236.24 150.45 236.24 163.16 236.25 162.98 236.25 163.33 236.3 163.67 236.41 164 236.58 164.31 236.78 164.59 237.03 164.83 237.32 165.03 237.63 165.18 237.97 165.27 238.31 165.31" style="stroke-width:nan;stroke:none;fill:#fff;stroke-linecap:round;stroke-linejoin:round;stroke-miterlimit:10"/><text x="239.84" y="161.72" style="font-size:14px;font-family:Asap" textLength="35.74" lengthAdjust="spacingAndGlyphs">1330s</text><polygon points="228.23 288.59 266.85 288.59 266.76 288.59 267.11 288.58 267.45 288.51 267.77 288.38 268.08 288.21 268.34 287.99 268.58 287.73 268.76 287.44 268.9 287.12 268.98 286.78 269.01 286.43 269.01 286.43 269.01 273.72 269.01 273.72 268.98 273.38 268.9 273.04 268.76 272.72 268.58 272.43 268.34 272.17 268.08 271.95 267.77 271.77 267.45 271.65 267.11 271.58 266.85 271.56 228.23 271.56 228.49 271.58 228.14 271.57 227.79 271.61 227.46 271.7 227.15 271.85 226.86 272.05 226.61 272.29 226.4 272.57 226.24 272.88 226.13 273.21 226.07 273.55 226.07 273.72 226.07 286.43 226.07 286.26 226.07 286.61 226.13 286.95 226.24 287.28 226.4 287.59 226.61 287.86 226.86 288.1 227.15 288.3 227.46 288.45 227.79 288.55 228.14 288.59" style="stroke-width:nan;stroke:none;fill:#fff;stroke-linecap:round;stroke-linejoin:round;stroke-miterlimit:10"/><text x="229.67" y="284.99" style="font-size:14px;font-family:Asap" textLength="35.74" lengthAdjust="spacingAndGlyphs">1340s</text><polygon points="163.41 242.03 202.03 242.03 201.94 242.02 202.29 242.01 202.63 241.94 202.96 241.82 203.26 241.64 203.53 241.42 203.76 241.16 203.94 240.87 204.08 240.55 204.16 240.21 204.19 239.87 204.19 239.87 204.19 227.16 204.19 227.16 204.16 226.81 204.08 226.47 203.94 226.15 203.76 225.86 203.53 225.6 203.26 225.38 202.96 225.21 202.63 225.08 202.29 225.01 202.03 225 163.41 225 163.67 225.01 163.32 225 162.98 225.04 162.64 225.14 162.33 225.29 162.04 225.48 161.79 225.72 161.58 226 161.42 226.31 161.31 226.64 161.25 226.98 161.25 227.16 161.25 239.87 161.25 239.69 161.25 240.04 161.31 240.38 161.42 240.71 161.58 241.02 161.79 241.3 162.04 241.54 162.33 241.74 162.64 241.88 162.98 241.98 163.32 242.02" style="stroke-width:nan;stroke:none;fill:#fff;stroke-linecap:round;stroke-linejoin:round;stroke-miterlimit:10"/><text x="164.85" y="238.43" style="font-size:14px;font-family:Asap" textLength="35.74" lengthAdjust="spacingAndGlyphs">1350s</text><polygon points="149.97 142.32 188.6 142.32 188.51 142.31 188.86 142.3 189.2 142.23 189.52 142.11 189.82 141.93 190.09 141.71 190.32 141.45 190.51 141.16 190.65 140.84 190.73 140.5 190.76 140.16 190.76 140.16 190.76 127.45 190.76 127.45 190.73 127.1 190.65 126.76 190.51 126.44 190.32 126.15 190.09 125.89 189.82 125.67 189.52 125.5 189.2 125.37 188.86 125.3 188.6 125.29 149.97 125.29 150.24 125.3 149.89 125.29 149.54 125.33 149.21 125.43 148.89 125.58 148.61 125.77 148.36 126.02 148.15 126.29 147.99 126.6 147.88 126.93 147.82 127.27 147.81 127.45 147.81 140.16 147.82 139.98 147.82 140.33 147.88 140.67 147.99 141 148.15 141.31 148.36 141.59 148.61 141.83 148.89 142.03 149.21 142.18 149.54 142.27 149.89 142.31" style="stroke-width:nan;stroke:none;fill:#fff;stroke-linecap:round;stroke-linejoin:round;stroke-miterlimit:10"/><text x="151.41" y="138.72" style="font-size:14px;font-family:Asap" textLength="35.74" lengthAdjust="spacingAndGlyphs">1370s</text><polygon points="127.06 120.08 165.68 120.08 165.59 120.08 165.94 120.06 166.28 119.99 166.61 119.87 166.91 119.7 167.18 119.48 167.41 119.22 167.59 118.92 167.73 118.6 167.81 118.26 167.84 117.92 167.84 117.92 167.84 105.21 167.84 105.21 167.81 104.86 167.73 104.53 167.59 104.21 167.41 103.91 167.18 103.65 166.91 103.43 166.61 103.26 166.28 103.14 165.94 103.07 165.68 103.05 127.06 103.05 127.32 103.07 126.97 103.05 126.63 103.09 126.29 103.19 125.98 103.34 125.69 103.54 125.44 103.78 125.23 104.06 125.07 104.36 124.96 104.69 124.91 105.04 124.9 105.21 124.9 117.92 124.91 117.74 124.91 118.09 124.96 118.43 125.07 118.76 125.23 119.07 125.44 119.35 125.69 119.59 125.98 119.79 126.29 119.94 126.63 120.03 126.97 120.08" style="stroke-width:nan;stroke:none;fill:#fff;stroke-linecap:round;stroke-linejoin:round;stroke-miterlimit:10"/><text x="128.5" y="116.48" style="font-size:14px;font-family:Asap" textLength="35.74" lengthAdjust="spacingAndGlyphs">1430s</text><polygon points="102.64 45.53 141.26 45.53 141.18 45.53 141.52 45.51 141.86 45.44 142.19 45.32 142.49 45.15 142.76 44.93 142.99 44.67 143.18 44.37 143.31 44.05 143.4 43.71 143.42 43.37 143.42 43.37 143.42 30.66 143.42 30.66 143.4 30.31 143.31 29.98 143.18 29.66 142.99 29.36 142.76 29.1 142.49 28.88 142.19 28.71 141.86 28.59 141.52 28.52 141.26 28.5 102.64 28.5 102.9 28.52 102.55 28.5 102.21 28.54 101.88 28.64 101.56 28.79 101.28 28.99 101.02 29.23 100.82 29.51 100.65 29.81 100.54 30.14 100.49 30.49 100.48 30.66 100.48 43.37 100.49 43.19 100.49 43.54 100.54 43.88 100.65 44.21 100.82 44.52 101.02 44.8 101.28 45.04 101.56 45.24 101.88 45.39 102.21 45.48 102.55 45.53" style="stroke-width:nan;stroke:none;fill:#fff;stroke-linecap:round;stroke-linejoin:round;stroke-miterlimit:10"/><text x="104.08" y="41.93" style="font-size:14px;font-family:Asap" textLength="35.74" lengthAdjust="spacingAndGlyphs">1490s</text><polygon points="214.53 142.01 253.15 142.01 253.06 142.01 253.41 141.99 253.75 141.92 254.08 141.8 254.38 141.63 254.65 141.41 254.88 141.15 255.06 140.85 255.2 140.53 255.28 140.19 255.31 139.85 255.31 139.85 255.31 127.14 255.31 127.14 255.28 126.79 255.2 126.46 255.06 126.14 254.88 125.84 254.65 125.58 254.38 125.36 254.08 125.19 253.75 125.06 253.41 125 253.15 124.98 214.53 124.98 214.79 125 214.44 124.98 214.1 125.02 213.76 125.12 213.45 125.27 213.16 125.47 212.91 125.71 212.7 125.99 212.54 126.29 212.43 126.62 212.38 126.97 212.37 127.14 212.37 139.85 212.38 139.67 212.38 140.02 212.43 140.36 212.54 140.69 212.7 141 212.91 141.28 213.16 141.52 213.45 141.72 213.76 141.87 214.1 141.96 214.44 142.01" style="stroke-width:nan;stroke:none;fill:#fff;stroke-linecap:round;stroke-linejoin:round;stroke-miterlimit:10"/><text x="215.97" y="138.41" style="font-size:14px;font-family:Asap" textLength="35.74" lengthAdjust="spacingAndGlyphs">1570s</text><polygon points="185.02 259.65 223.64 259.65 223.55 259.65 223.9 259.63 224.24 259.56 224.57 259.44 224.87 259.27 225.14 259.05 225.37 258.79 225.55 258.49 225.69 258.17 225.77 257.83 225.8 257.49 225.8 257.49 225.8 244.78 225.8 244.78 225.77 244.43 225.69 244.1 225.55 243.78 225.37 243.48 225.14 243.22 224.87 243 224.57 242.83 224.24 242.71 223.9 242.64 223.64 242.62 185.02 242.62 185.28 242.64 184.93 242.62 184.59 242.66 184.25 242.76 183.94 242.91 183.65 243.11 183.4 243.35 183.19 243.63 183.03 243.93 182.92 244.26 182.87 244.61 182.86 244.78 182.86 257.49 182.87 257.31 182.87 257.66 182.92 258.01 183.03 258.33 183.19 258.64 183.4 258.92 183.65 259.16 183.94 259.36 184.25 259.51 184.59 259.6 184.93 259.65" style="stroke-width:nan;stroke:none;fill:#fff;stroke-linecap:round;stroke-linejoin:round;stroke-miterlimit:10"/><text x="186.46" y="256.05" style="font-size:14px;font-family:Asap" textLength="35.74" lengthAdjust="spacingAndGlyphs">1590s</text><polygon points="286.6 62.17 325.22 62.17 325.14 62.17 325.48 62.16 325.82 62.09 326.15 61.96 326.45 61.79 326.72 61.57 326.95 61.31 327.14 61.02 327.27 60.7 327.35 60.36 327.38 60.01 327.38 60.01 327.38 47.3 327.38 47.3 327.35 46.96 327.27 46.62 327.14 46.3 326.95 46.01 326.72 45.75 326.45 45.53 326.15 45.35 325.82 45.23 325.48 45.16 325.22 45.14 286.6 45.14 286.86 45.16 286.51 45.15 286.17 45.19 285.83 45.28 285.52 45.43 285.23 45.63 284.98 45.87 284.78 46.15 284.61 46.46 284.5 46.79 284.45 47.13 284.44 47.3 284.44 60.01 284.45 59.84 284.45 60.19 284.5 60.53 284.61 60.86 284.78 61.17 284.98 61.44 285.23 61.69 285.52 61.88 285.83 62.03 286.17 62.13 286.51 62.17" style="stroke-width:nan;stroke:none;fill:#fff;stroke-linecap:round;stroke-linejoin:round;stroke-miterlimit:10"/><text x="288.04" y="58.57" style="font-size:14px;font-family:Asap" textLength="35.74" lengthAdjust="spacingAndGlyphs">1740s</text><polygon points="320.36 176.68 358.98 176.68 358.9 176.68 359.24 176.67 359.58 176.6 359.91 176.47 360.21 176.3 360.48 176.08 360.71 175.82 360.9 175.53 361.03 175.21 361.12 174.87 361.14 174.52 361.14 174.52 361.14 161.81 361.14 161.81 361.12 161.47 361.03 161.13 360.9 160.81 360.71 160.52 360.48 160.26 360.21 160.04 359.91 159.86 359.58 159.74 359.24 159.67 358.98 159.65 320.36 159.65 320.62 159.67 320.27 159.66 319.93 159.7 319.6 159.79 319.28 159.94 319 160.14 318.75 160.38 318.54 160.66 318.37 160.97 318.26 161.3 318.21 161.64 318.2 161.81 318.2 174.52 318.21 174.35 318.21 174.7 318.26 175.04 318.37 175.37 318.54 175.68 318.75 175.95 319 176.2 319.28 176.39 319.6 176.54 319.93 176.64 320.27 176.68" style="stroke-width:nan;stroke:none;fill:#fff;stroke-linecap:round;stroke-linejoin:round;stroke-miterlimit:10"/><text x="321.8" y="173.08" style="font-size:14px;font-family:Asap" textLength="35.74" lengthAdjust="spacingAndGlyphs">1770s</text><polygon points="340.66 114.59 379.28 114.59 379.19 114.59 379.54 114.57 379.88 114.51 380.21 114.38 380.51 114.21 380.78 113.99 381.01 113.73 381.19 113.43 381.33 113.11 381.41 112.78 381.44 112.43 381.44 112.43 381.44 99.72 381.44 99.72 381.41 99.38 381.33 99.04 381.19 98.72 381.01 98.42 380.78 98.16 380.51 97.94 380.21 97.77 379.88 97.65 379.54 97.58 379.28 97.56 340.66 97.56 340.92 97.58 340.57 97.56 340.23 97.61 339.89 97.7 339.58 97.85 339.29 98.05 339.04 98.29 338.83 98.57 338.67 98.88 338.56 99.21 338.5 99.55 338.5 99.72 338.5 112.43 338.5 112.26 338.5 112.6 338.56 112.95 338.67 113.28 338.83 113.58 339.04 113.86 339.29 114.1 339.58 114.3 339.89 114.45 340.23 114.55 340.57 114.59" style="stroke-width:nan;stroke:none;fill:#fff;stroke-linecap:round;stroke-linejoin:round;stroke-miterlimit:10"/><text x="342.1" y="110.99" style="font-size:14px;font-family:Asap" textLength="35.74" lengthAdjust="spacingAndGlyphs">1780s</text><polygon points="393.45 189.16 432.08 189.16 431.99 189.15 432.34 189.14 432.68 189.07 433 188.95 433.3 188.77 433.57 188.55 433.8 188.29 433.99 188 434.13 187.68 434.21 187.34 434.24 187 434.24 187 434.24 174.29 434.24 174.29 434.21 173.94 434.13 173.6 433.99 173.28 433.8 172.99 433.57 172.73 433.3 172.51 433 172.34 432.68 172.21 432.34 172.14 432.08 172.13 393.45 172.13 393.72 172.14 393.37 172.13 393.02 172.17 392.69 172.27 392.37 172.42 392.09 172.61 391.84 172.86 391.63 173.13 391.47 173.44 391.36 173.77 391.3 174.11 391.29 174.29 391.29 187 391.3 186.82 391.3 187.17 391.36 187.51 391.47 187.84 391.63 188.15 391.84 188.43 392.09 188.67 392.37 188.87 392.69 189.02 393.02 189.11 393.37 189.15" style="stroke-width:nan;stroke:none;fill:#fff;stroke-linecap:round;stroke-linejoin:round;stroke-miterlimit:10"/><text x="394.89" y="185.56" style="font-size:14px;font-family:Asap" textLength="35.74" lengthAdjust="spacingAndGlyphs">1800s</text><polygon points="471.23 154.26 509.86 154.26 509.77 154.26 510.12 154.25 510.46 154.18 510.78 154.05 511.08 153.88 511.35 153.66 511.58 153.4 511.77 153.11 511.9 152.79 511.99 152.45 512.02 152.1 512.02 152.1 512.02 139.39 512.02 139.39 511.99 139.05 511.9 138.71 511.77 138.39 511.58 138.1 511.35 137.84 511.08 137.62 510.78 137.44 510.46 137.32 510.12 137.25 509.86 137.23 471.23 137.23 471.49 137.25 471.15 137.24 470.8 137.28 470.47 137.37 470.15 137.52 469.87 137.72 469.62 137.96 469.41 138.24 469.25 138.55 469.14 138.88 469.08 139.22 469.07 139.39 469.07 152.1 469.08 151.93 469.08 152.28 469.14 152.62 469.25 152.95 469.41 153.26 469.62 153.53 469.87 153.77 470.15 153.97 470.47 154.12 470.8 154.22 471.15 154.26" style="stroke-width:nan;stroke:none;fill:#fff;stroke-linecap:round;stroke-linejoin:round;stroke-miterlimit:10"/><text x="472.67" y="150.66" style="font-size:14px;font-family:Asap" textLength="35.74" lengthAdjust="spacingAndGlyphs">1810s</text><polygon points="459.77 82.33 498.39 82.33 498.3 82.32 498.65 82.31 498.99 82.24 499.31 82.12 499.62 81.94 499.88 81.72 500.12 81.46 500.3 81.17 500.44 80.85 500.52 80.51 500.55 80.17 500.55 80.17 500.55 67.46 500.55 67.46 500.52 67.11 500.44 66.77 500.3 66.45 500.12 66.16 499.88 65.9 499.62 65.68 499.31 65.51 498.99 65.38 498.65 65.31 498.39 65.3 459.77 65.3 460.03 65.31 459.68 65.3 459.33 65.34 459 65.44 458.69 65.59 458.4 65.78 458.15 66.02 457.94 66.3 457.78 66.61 457.67 66.94 457.61 67.28 457.61 67.46 457.61 80.17 457.61 79.99 457.61 80.34 457.67 80.68 457.78 81.01 457.94 81.32 458.15 81.6 458.4 81.84 458.69 82.04 459 82.18 459.33 82.28 459.68 82.32" style="stroke-width:nan;stroke:none;fill:#fff;stroke-linecap:round;stroke-linejoin:round;stroke-miterlimit:10"/><text x="461.21" y="78.73" style="font-size:14px;font-family:Asap" textLength="35.74" lengthAdjust="spacingAndGlyphs">1820s</text><polygon points="557.8 56.86 596.42 56.86 596.34 56.86 596.68 56.84 597.02 56.78 597.35 56.65 597.65 56.48 597.92 56.26 598.15 56 598.34 55.7 598.47 55.38 598.56 55.05 598.58 54.7 598.58 54.7 598.58 41.99 598.58 41.99 598.56 41.65 598.47 41.31 598.34 40.99 598.15 40.69 597.92 40.43 597.65 40.21 597.35 40.04 597.02 39.92 596.68 39.85 596.42 39.83 557.8 39.83 558.06 39.85 557.71 39.83 557.37 39.88 557.04 39.97 556.72 40.12 556.44 40.32 556.18 40.56 555.98 40.84 555.81 41.15 555.7 41.48 555.65 41.82 555.64 41.99 555.64 54.7 555.65 54.53 555.65 54.87 555.7 55.22 555.81 55.55 555.98 55.86 556.18 56.13 556.44 56.37 556.72 56.57 557.04 56.72 557.37 56.82 557.71 56.86" style="stroke-width:nan;stroke:none;fill:#fff;stroke-linecap:round;stroke-linejoin:round;stroke-miterlimit:10"/><text x="559.24" y="53.26" style="font-size:14px;font-family:Asap" textLength="35.74" lengthAdjust="spacingAndGlyphs">1830s</text><polygon points="623.25 98.66 661.87 98.66 661.78 98.66 662.13 98.65 662.47 98.58 662.8 98.45 663.1 98.28 663.37 98.06 663.6 97.8 663.78 97.51 663.92 97.19 664 96.85 664.03 96.5 664.03 96.5 664.03 83.79 664.03 83.79 664 83.45 663.92 83.11 663.78 82.79 663.6 82.5 663.37 82.24 663.1 82.02 662.8 81.84 662.47 81.72 662.13 81.65 661.87 81.63 623.25 81.63 623.51 81.65 623.16 81.64 622.82 81.68 622.48 81.77 622.17 81.92 621.88 82.12 621.63 82.36 621.42 82.64 621.26 82.95 621.15 83.28 621.1 83.62 621.09 83.79 621.09 96.5 621.1 96.33 621.1 96.68 621.15 97.02 621.26 97.35 621.42 97.66 621.63 97.93 621.88 98.18 622.17 98.37 622.48 98.52 622.82 98.62 623.16 98.66" style="stroke-width:nan;stroke:none;fill:#fff;stroke-linecap:round;stroke-linejoin:round;stroke-miterlimit:10"/><text x="624.69" y="95.06" style="font-size:14px;font-family:Asap" textLength="35.74" lengthAdjust="spacingAndGlyphs">1840s</text><polygon points="656.73 39.36 695.35 39.36 695.26 39.35 695.61 39.34 695.95 39.27 696.28 39.15 696.58 38.97 696.85 38.75 697.08 38.49 697.26 38.2 697.4 37.88 697.48 37.54 697.51 37.2 697.51 37.2 697.51 24.49 697.51 24.49 697.48 24.14 697.4 23.8 697.26 23.48 697.08 23.19 696.85 22.93 696.58 22.71 696.28 22.54 695.95 22.41 695.61 22.34 695.35 22.33 656.73 22.33 656.99 22.34 656.64 22.33 656.3 22.37 655.96 22.47 655.65 22.62 655.36 22.81 655.11 23.06 654.9 23.33 654.74 23.64 654.63 23.97 654.57 24.31 654.57 24.49 654.57 37.2 654.57 37.02 654.57 37.37 654.63 37.71 654.74 38.04 654.9 38.35 655.11 38.63 655.36 38.87 655.65 39.07 655.96 39.22 656.3 39.31 656.64 39.35" style="stroke-width:nan;stroke:none;fill:#fff;stroke-linecap:round;stroke-linejoin:round;stroke-miterlimit:10"/><text x="658.17" y="35.76" style="font-size:14px;font-family:Asap" textLength="35.74" lengthAdjust="spacingAndGlyphs">1850s</text><polygon points="766.76 39.23 805.38 39.23 805.29 39.23 805.64 39.22 805.98 39.15 806.31 39.03 806.61 38.85 806.88 38.63 807.11 38.37 807.29 38.08 807.43 37.76 807.51 37.42 807.54 37.07 807.54 37.07 807.54 24.37 807.54 24.37 807.51 24.02 807.43 23.68 807.29 23.36 807.11 23.07 806.88 22.81 806.61 22.59 806.31 22.41 805.98 22.29 805.64 22.22 805.38 22.21 766.76 22.21 767.02 22.22 766.67 22.21 766.33 22.25 765.99 22.35 765.68 22.5 765.39 22.69 765.14 22.93 764.93 23.21 764.77 23.52 764.66 23.85 764.61 24.19 764.6 24.37 764.6 37.07 764.61 36.9 764.61 37.25 764.66 37.59 764.77 37.92 764.93 38.23 765.14 38.51 765.39 38.75 765.68 38.94 765.99 39.09 766.33 39.19 766.67 39.23" style="stroke-width:nan;stroke:none;fill:#fff;stroke-linecap:round;stroke-linejoin:round;stroke-miterlimit:10"/><text x="768.2" y="35.63" style="font-size:14px;font-family:Asap" textLength="35.74" lengthAdjust="spacingAndGlyphs">1860s</text><circle cx="264.66" cy="229.69" r="2.2" style="stroke-width:1.2;stroke:#ed1f24;fill:#ed1f24;stroke-linecap:round;stroke-linejoin:round;stroke-miterlimit:10"/><circle cx="280.15" cy="271.73" r="2.2" style="stroke-width:1.2;stroke:#ed1f24;fill:#ed1f24;stroke-linecap:round;stroke-linejoin:round;stroke-miterlimit:10"/><circle cx="280.03" cy="225.77" r="2.2" style="stroke-width:1.2;stroke:#ed1f24;fill:#ed1f24;stroke-linecap:round;stroke-linejoin:round;stroke-miterlimit:10"/><circle cx="290.39" cy="234" r="2.2" style="stroke-width:1.2;stroke:#ed1f24;fill:#ed1f24;stroke-linecap:round;stroke-linejoin:round;stroke-miterlimit:10"/><circle cx="267.94" cy="205.74" r="2.2" style="stroke-width:1.2;stroke:#ed1f24;fill:#ed1f24;stroke-linecap:round;stroke-linejoin:round;stroke-miterlimit:10"/><circle cx="257.71" cy="167.83" r="2.2" style="stroke-width:1.2;stroke:#ed1f24;fill:#ed1f24;stroke-linecap:round;stroke-linejoin:round;stroke-miterlimit:10"/><circle cx="247.54" cy="224.92" r="2.2" style="stroke-width:1.2;stroke:#ed1f24;fill:#ed1f24;stroke-linecap:round;stroke-linejoin:round;stroke-miterlimit:10"/><circle cx="217.84" cy="228" r="2.2" style="stroke-width:1.2;stroke:#ed1f24;fill:#ed1f24;stroke-linecap:round;stroke-linejoin:round;stroke-miterlimit:10"/><circle cx="204.65" cy="172.39" r="2.2" style="stroke-width:1.2;stroke:#ed1f24;fill:#ed1f24;stroke-linecap:round;stroke-linejoin:round;stroke-miterlimit:10"/><circle cx="204.41" cy="133.8" r="2.2" style="stroke-width:1.2;stroke:#ed1f24;fill:#ed1f24;stroke-linecap:round;stroke-linejoin:round;stroke-miterlimit:10"/><circle cx="192.08" cy="104.08" r="2.2" style="stroke-width:1.2;stroke:#ed1f24;fill:#ed1f24;stroke-linecap:round;stroke-linejoin:round;stroke-miterlimit:10"/><circle cx="192.34" cy="102.75" r="2.2" style="stroke-width:1.2;stroke:#ed1f24;fill:#ed1f24;stroke-linecap:round;stroke-linejoin:round;stroke-miterlimit:10"/><circle cx="186.07" cy="94.24" r="2.2" style="stroke-width:1.2;stroke:#ed1f24;fill:#ed1f24;stroke-linecap:round;stroke-linejoin:round;stroke-miterlimit:10"/><circle cx="182.48" cy="66.69" r="2.2" style="stroke-width:1.2;stroke:#ed1f24;fill:#ed1f24;stroke-linecap:round;stroke-linejoin:round;stroke-miterlimit:10"/><circle cx="180.08" cy="44.64" r="2.2" style="stroke-width:1.2;stroke:#ed1f24;fill:#ed1f24;stroke-linecap:round;stroke-linejoin:round;stroke-miterlimit:10"/><circle cx="181.5" cy="100.53" r="2.2" style="stroke-width:1.2;stroke:#ed1f24;fill:#ed1f24;stroke-linecap:round;stroke-linejoin:round;stroke-miterlimit:10"/><circle cx="173.18" cy="50.5" r="2.2" style="stroke-width:1.2;stroke:#ed1f24;fill:#ed1f24;stroke-linecap:round;stroke-linejoin:round;stroke-miterlimit:10"/><circle cx="173.42" cy="50.81" r="2.2" style="stroke-width:1.2;stroke:#ed1f24;fill:#ed1f24;stroke-linecap:round;stroke-linejoin:round;stroke-miterlimit:10"/><circle cx="174.86" cy="50.63" r="2.2" style="stroke-width:1.2;stroke:#ed1f24;fill:#ed1f24;stroke-linecap:round;stroke-linejoin:round;stroke-miterlimit:10"/><circle cx="176.94" cy="52.63" r="2.2" style="stroke-width:1.2;stroke:#ed1f24;fill:#ed1f24;stroke-linecap:round;stroke-linejoin:round;stroke-miterlimit:10"/><circle cx="177.73" cy="80.07" r="2.2" style="stroke-width:1.2;stroke:#ed1f24;fill:#ed1f24;stroke-linecap:round;stroke-linejoin:round;stroke-miterlimit:10"/><circle cx="174.64" cy="37.01" r="2.2" style="stroke-width:1.2;stroke:#ed1f24;fill:#ed1f24;stroke-linecap:round;stroke-linejoin:round;stroke-miterlimit:10"/><circle cx="183.25" cy="63.46" r="2.2" style="stroke-width:1.2;stroke:#ed1f24;fill:#ed1f24;stroke-linecap:round;stroke-linejoin:round;stroke-miterlimit:10"/><circle cx="191.95" cy="87.65" r="2.2" style="stroke-width:1.2;stroke:#ed1f24;fill:#ed1f24;stroke-linecap:round;stroke-linejoin:round;stroke-miterlimit:10"/><circle cx="196.64" cy="119.98" r="2.2" style="stroke-width:1.2;stroke:#ed1f24;fill:#ed1f24;stroke-linecap:round;stroke-linejoin:round;stroke-miterlimit:10"/><circle cx="199.4" cy="137.53" r="2.2" style="stroke-width:1.2;stroke:#ed1f24;fill:#ed1f24;stroke-linecap:round;stroke-linejoin:round;stroke-miterlimit:10"/><circle cx="198.45" cy="171.54" r="2.2" style="stroke-width:1.2;stroke:#ed1f24;fill:#ed1f24;stroke-linecap:round;stroke-linejoin:round;stroke-miterlimit:10"/><circle cx="207.18" cy="194.94" r="2.2" style="stroke-width:1.2;stroke:#ed1f24;fill:#ed1f24;stroke-linecap:round;stroke-linejoin:round;stroke-miterlimit:10"/><circle cx="206.1" cy="179.43" r="2.2" style="stroke-width:1.2;stroke:#ed1f24;fill:#ed1f24;stroke-linecap:round;stroke-linejoin:round;stroke-miterlimit:10"/><circle cx="216.28" cy="172.1" r="2.2" style="stroke-width:1.2;stroke:#ed1f24;fill:#ed1f24;stroke-linecap:round;stroke-linejoin:round;stroke-miterlimit:10"/><circle cx="218.17" cy="169.29" r="2.2" style="stroke-width:1.2;stroke:#ed1f24;fill:#ed1f24;stroke-linecap:round;stroke-linejoin:round;stroke-miterlimit:10"/><circle cx="239.45" cy="245.62" r="2.2" style="stroke-width:1.2;stroke:#ed1f24;fill:#ed1f24;stroke-linecap:round;stroke-linejoin:round;stroke-miterlimit:10"/><circle cx="247.92" cy="225.55" r="2.2" style="stroke-width:1.2;stroke:#ed1f24;fill:#ed1f24;stroke-linecap:round;stroke-linejoin:round;stroke-miterlimit:10"/><circle cx="259.58" cy="250.01" r="2.2" style="stroke-width:1.2;stroke:#ed1f24;fill:#ed1f24;stroke-linecap:round;stroke-linejoin:round;stroke-miterlimit:10"/><circle cx="269.58" cy="195.52" r="2.2" style="stroke-width:1.2;stroke:#ed1f24;fill:#ed1f24;stroke-linecap:round;stroke-linejoin:round;stroke-miterlimit:10"/><circle cx="276.3" cy="169.51" r="2.2" style="stroke-width:1.2;stroke:#ed1f24;fill:#ed1f24;stroke-linecap:round;stroke-linejoin:round;stroke-miterlimit:10"/><circle cx="283.88" cy="178.09" r="2.2" style="stroke-width:1.2;stroke:#ed1f24;fill:#ed1f24;stroke-linecap:round;stroke-linejoin:round;stroke-miterlimit:10"/><circle cx="290.49" cy="166.56" r="2.2" style="stroke-width:1.2;stroke:#ed1f24;fill:#ed1f24;stroke-linecap:round;stroke-linejoin:round;stroke-miterlimit:10"/><circle cx="289.45" cy="83.93" r="2.2" style="stroke-width:1.2;stroke:#ed1f24;fill:#ed1f24;stroke-linecap:round;stroke-linejoin:round;stroke-miterlimit:10"/><circle cx="284.95" cy="176" r="2.2" style="stroke-width:1.2;stroke:#ed1f24;fill:#ed1f24;stroke-linecap:round;stroke-linejoin:round;stroke-miterlimit:10"/><circle cx="283.1" cy="150.31" r="2.2" style="stroke-width:1.2;stroke:#ed1f24;fill:#ed1f24;stroke-linecap:round;stroke-linejoin:round;stroke-miterlimit:10"/><circle cx="282.54" cy="198.36" r="2.2" style="stroke-width:1.2;stroke:#ed1f24;fill:#ed1f24;stroke-linecap:round;stroke-linejoin:round;stroke-miterlimit:10"/><circle cx="286.86" cy="149.1" r="2.2" style="stroke-width:1.2;stroke:#ed1f24;fill:#ed1f24;stroke-linecap:round;stroke-linejoin:round;stroke-miterlimit:10"/><circle cx="293.25" cy="158.13" r="2.2" style="stroke-width:1.2;stroke:#ed1f24;fill:#ed1f24;stroke-linecap:round;stroke-linejoin:round;stroke-miterlimit:10"/><circle cx="297.74" cy="158.54" r="2.2" style="stroke-width:1.2;stroke:#ed1f24;fill:#ed1f24;stroke-linecap:round;stroke-linejoin:round;stroke-miterlimit:10"/><circle cx="294.43" cy="105.36" r="2.2" style="stroke-width:1.2;stroke:#ed1f24;fill:#ed1f24;stroke-linecap:round;stroke-linejoin:round;stroke-miterlimit:10"/><circle cx="305.91" cy="64.69" r="2.2" style="stroke-width:1.2;stroke:#ed1f24;fill:#ed1f24;stroke-linecap:round;stroke-linejoin:round;stroke-miterlimit:10"/><circle cx="313.3" cy="91.74" r="2.2" style="stroke-width:1.2;stroke:#ed1f24;fill:#ed1f24;stroke-linecap:round;stroke-linejoin:round;stroke-miterlimit:10"/><circle cx="327.17" cy="114.98" r="2.2" style="stroke-width:1.2;stroke:#ed1f24;fill:#ed1f24;stroke-linecap:round;stroke-linejoin:round;stroke-miterlimit:10"/><circle cx="339.67" cy="157.14" r="2.2" style="stroke-width:1.2;stroke:#ed1f24;fill:#ed1f24;stroke-linecap:round;stroke-linejoin:round;stroke-miterlimit:10"/><circle cx="359.97" cy="117.11" r="2.2" style="stroke-width:1.2;stroke:#ed1f24;fill:#ed1f24;stroke-linecap:round;stroke-linejoin:round;stroke-miterlimit:10"/><circle cx="384.06" cy="161.55" r="2.2" style="stroke-width:1.2;stroke:#ed1f24;fill:#ed1f24;stroke-linecap:round;stroke-linejoin:round;stroke-miterlimit:10"/><circle cx="412.77" cy="169.61" r="2.2" style="stroke-width:1.2;stroke:#ed1f24;fill:#ed1f24;stroke-linecap:round;stroke-linejoin:round;stroke-miterlimit:10"/><circle cx="455.42" cy="145.75" r="2.2" style="stroke-width:1.2;stroke:#ed1f24;fill:#ed1f24;stroke-linecap:round;stroke-linejoin:round;stroke-miterlimit:10"/><circle cx="514.2" cy="84.84" r="2.2" style="stroke-width:1.2;stroke:#ed1f24;fill:#ed1f24;stroke-linecap:round;stroke-linejoin:round;stroke-miterlimit:10"/><circle cx="577.11" cy="59.38" r="2.2" style="stroke-width:1.2;stroke:#ed1f24;fill:#ed1f24;stroke-linecap:round;stroke-linejoin:round;stroke-miterlimit:10"/><circle cx="642.56" cy="79.12" r="2.2" style="stroke-width:1.2;stroke:#ed1f24;fill:#ed1f24;stroke-linecap:round;stroke-linejoin:round;stroke-miterlimit:10"/><circle cx="711.16" cy="41.87" r="2.2" style="stroke-width:1.2;stroke:#ed1f24;fill:#ed1f24;stroke-linecap:round;stroke-linejoin:round;stroke-miterlimit:10"/><circle cx="786.07" cy="14.17" r="2.2" style="stroke-width:1.2;stroke:#ed1f24;fill:#ed1f24;stroke-linecap:round;stroke-linejoin:round;stroke-miterlimit:10"/><polyline points="139 15.33 142.51 21.44 146.02 27.54 149.54 33.65 153.05 39.75 156.56 45.86 160.07 51.96 163.59 58.07 167.1 64.17 170.61 70.28 174.12 76.38 177.64 82.49 181.15 88.59 184.66 94.7 188.17 100.8 191.69 106.91 195.2 113.01 198.71 119.12 202.22 125.22 205.73 131.32 209.25 137.43 212.76 143.53 216.27 149.64 219.78 155.74 223.3 161.85 226.81 167.95 230.32 174.06 233.83 180.16 237.35 186.27 240.86 192.37 244.37 198.48 247.88 204.58 251.4 210.69 254.91 216.79 258.42 222.9 261.93 229 265.45 235.1 268.96 241.21 272.47 247.31 275.98 253.42 279.5 259.52 283.01 265.63 286.52 271.73 290.03 277.84 293.55 283.94 297.06 290.05 300.57 296.15 304.08 302.26" style="stroke-width:1.2;stroke:#3a53a4;stroke-dasharray:3.2,3.2;stroke-linecap:butt;fill:none;stroke-linejoin:round;stroke-miterlimit:10"/><polyline points="268.96 118.38 272.47 119.03 275.98 119.68 279.5 120.33 283.01 120.97 286.52 121.62 290.03 122.27 293.55 122.91 297.06 123.56 300.57 124.21 304.08 124.86 307.6 125.5 311.11 126.15 314.62 126.8 318.13 127.45 321.65 128.09 325.16 128.74 328.67 129.39 332.18 130.03 335.7 130.68 339.21 131.33 342.72 131.98 346.23 132.62 349.75 133.27 353.26 133.92 356.77 134.57 360.28 135.21 363.8 135.86 367.31 136.51 370.82 137.15 374.33 137.8 377.85 138.45 381.36 139.1 384.87 139.74 388.38 140.39 391.89 141.04 395.41 141.69 398.92 142.33 402.43 142.98 405.94 143.63 409.46 144.27 412.97 144.92 416.48 145.57 419.99 146.22 423.51 146.86 427.02 147.51 430.53 148.16 434.04 148.81 437.56 149.45 441.07 150.1 444.58 150.75 448.09 151.39 451.61 152.04 455.12 152.69 458.63 153.34 462.14 153.98 465.66 154.63 469.17 155.28 472.68 155.93 476.19 156.57 479.71 157.22" style="stroke-width:1.2;stroke:#3a53a4;stroke-dasharray:3.2,3.2;stroke-linecap:butt;fill:none;stroke-linejoin:round;stroke-miterlimit:10"/><polyline points="444.58 138.56 448.09 137.22 451.61 135.89 455.12 134.55 458.63 133.22 462.14 131.88 465.66 130.55 469.17 129.21 472.68 127.88 476.19 126.54 479.71 125.21 483.22 123.87 486.73 122.54 490.24 121.2 493.76 119.87 497.27 118.53 500.78 117.2 504.29 115.87 507.81 114.53 511.32 113.2 514.83 111.86 518.34 110.53 521.86 109.19 525.37 107.86 528.88 106.52 532.39 105.19 535.91 103.85 539.42 102.52 542.93 101.18 546.44 99.85 549.96 98.51 553.47 97.18 556.98 95.84 560.49 94.51 564 93.17 567.52 91.84 571.03 90.5 574.54 89.17 578.05 87.84 581.57 86.5 585.08 85.17 588.59 83.83 592.1 82.5 595.62 81.16 599.13 79.83 602.64 78.49 606.15 77.16 609.67 75.82 613.18 74.49 616.69 73.15 620.2 71.82 623.72 70.48 627.23 69.15 630.74 67.81 634.25 66.48 637.77 65.14 641.28 63.81 644.79 62.47 648.3 61.14 651.82 59.81 655.33 58.47 658.84 57.14 662.35 55.8 665.87 54.47 669.38 53.13 672.89 51.8 676.4 50.46 679.92 49.13 683.43 47.79 686.94 46.46 690.45 45.12 693.97 43.79 697.48 42.45 700.99 41.12 704.5 39.78 708.02 38.45 711.53 37.11 715.04 35.78 718.55 34.45 722.07 33.11 725.58 31.78 729.09 30.44 732.6 29.11 736.12 27.77 739.63 26.44 743.14 25.1 746.65 23.77 750.16 22.43 753.68 21.1 757.19 19.76 760.7 18.43 764.21 17.09 767.73 15.76 771.24 14.42" style="stroke-width:1.2;stroke:#3a53a4;stroke-dasharray:3.2,3.2;stroke-linecap:butt;fill:none;stroke-linejoin:round;stroke-miterlimit:10"/><polygon points="259.79 234.56 269.53 234.56 269.53 224.82 259.79 224.82" style="stroke-width:1.2;stroke:none;fill:#000;stroke-linecap:round;stroke-linejoin:round;stroke-miterlimit:10"/><circle cx="786.07" cy="14.17" r="4.87" style="stroke-width:1.2;fill:#000;stroke:#000;stroke-linecap:round;stroke-linejoin:round;stroke-miterlimit:10"/><text x="205.03" y="33.23" style="font-size:17.07px;fill:#3a53a4;font-family:Asap" textLength="84.15" lengthAdjust="spacingAndGlyphs">Malthusian</text><text x="293.28" y="33.23" style="font-size:17.07px;fill:#3a53a4;font-family:Asap" textLength="38.22" lengthAdjust="spacingAndGlyphs">traps</text><text x="552.6" y="112.1" style="font-size:17.07px;fill:#3a53a4;font-family:Asap" textLength="52.94" lengthAdjust="spacingAndGlyphs">Escape</text><text x="484.44" y="170.57" style="font-size:17.07px;fill:#3a53a4;font-family:Asap" textLength="33.75" lengthAdjust="spacingAndGlyphs">18th</text><text x="522.29" y="170.57" style="font-size:17.07px;fill:#3a53a4;font-family:Asap" textLength="56.8" lengthAdjust="spacingAndGlyphs">century</text><text x="311.69" y="315.63" style="font-size:17.07px;fill:#3a53a4;font-family:Asap" textLength="33.75" lengthAdjust="spacingAndGlyphs">13th</text><text x="349.54" y="315.63" style="font-size:17.07px;fill:#3a53a4;font-family:Asap" textLength="15.55" lengthAdjust="spacingAndGlyphs">to</text><text x="369.19" y="315.63" style="font-size:17.07px;fill:#3a53a4;font-family:Asap" textLength="33.75" lengthAdjust="spacingAndGlyphs">16th</text><text x="407.04" y="315.63" style="font-size:17.07px;fill:#3a53a4;font-family:Asap" textLength="56.8" lengthAdjust="spacingAndGlyphs">century</text><polyline points="93.34 345.1 93.34 14.17" style="stroke-width:1.07;stroke:#464646;stroke-linecap:butt;fill:none;stroke-linejoin:round;stroke-miterlimit:10"/><text x="57.03" y="349.51" style="font-size:18px;font-family:Asap" textLength="19.26" lengthAdjust="spacingAndGlyphs">40</text><text x="57.03" y="266.78" style="font-size:18px;font-family:Asap" textLength="19.26" lengthAdjust="spacingAndGlyphs">55</text><text x="57.03" y="184.05" style="font-size:18px;font-family:Asap" textLength="19.26" lengthAdjust="spacingAndGlyphs">70</text><text x="57.03" y="101.32" style="font-size:18px;font-family:Asap" textLength="19.26" lengthAdjust="spacingAndGlyphs">85</text><text x="47.4" y="18.58" style="font-size:18px;font-family:Asap" textLength="28.89" lengthAdjust="spacingAndGlyphs">100</text><polyline points="86.25 345.1 93.34 345.1" style="stroke-width:1.07;stroke:#464646;stroke-linecap:butt;fill:none;stroke-linejoin:round;stroke-miterlimit:10"/><polyline points="86.25 262.37 93.34 262.37" style="stroke-width:1.07;stroke:#464646;stroke-linecap:butt;fill:none;stroke-linejoin:round;stroke-miterlimit:10"/><polyline points="86.25 179.64 93.34 179.64" style="stroke-width:1.07;stroke:#464646;stroke-linecap:butt;fill:none;stroke-linejoin:round;stroke-miterlimit:10"/><polyline points="86.25 96.91 93.34 96.91" style="stroke-width:1.07;stroke:#464646;stroke-linecap:butt;fill:none;stroke-linejoin:round;stroke-miterlimit:10"/><polyline points="86.25 14.17 93.34 14.17" style="stroke-width:1.07;stroke:#464646;stroke-linecap:butt;fill:none;stroke-linejoin:round;stroke-miterlimit:10"/><polyline points="93.34 345.1 795.83 345.1" style="stroke-width:1.07;stroke:#464646;stroke-linecap:butt;fill:none;stroke-linejoin:round;stroke-miterlimit:10"/><polyline points="93.34 352.19 93.34 345.1" style="stroke-width:1.07;stroke:#464646;stroke-linecap:butt;fill:none;stroke-linejoin:round;stroke-miterlimit:10"/><polyline points="268.96 352.19 268.96 345.1" style="stroke-width:1.07;stroke:#464646;stroke-linecap:butt;fill:none;stroke-linejoin:round;stroke-miterlimit:10"/><polyline points="444.58 352.19 444.58 345.1" style="stroke-width:1.07;stroke:#464646;stroke-linecap:butt;fill:none;stroke-linejoin:round;stroke-miterlimit:10"/><polyline points="620.2 352.19 620.2 345.1" style="stroke-width:1.07;stroke:#464646;stroke-linecap:butt;fill:none;stroke-linejoin:round;stroke-miterlimit:10"/><polyline points="795.83 352.19 795.83 345.1" style="stroke-width:1.07;stroke:#464646;stroke-linecap:butt;fill:none;stroke-linejoin:round;stroke-miterlimit:10"/><text x="88.52" y="374.79" style="font-size:18px;font-family:Asap" textLength="9.63" lengthAdjust="spacingAndGlyphs">0</text><text x="264.14" y="374.79" style="font-size:18px;font-family:Asap" textLength="9.63" lengthAdjust="spacingAndGlyphs">5</text><text x="434.95" y="374.79" style="font-size:18px;font-family:Asap" textLength="19.26" lengthAdjust="spacingAndGlyphs">10</text><text x="610.57" y="374.79" style="font-size:18px;font-family:Asap" textLength="19.26" lengthAdjust="spacingAndGlyphs">15</text><text x="786.2" y="374.79" style="font-size:18px;font-family:Asap" textLength="19.26" lengthAdjust="spacingAndGlyphs">20</text><text x="352.61" y="407.59" style="font-size:20px;font-family:Asap Medium" textLength="96.88" lengthAdjust="spacingAndGlyphs">Population</text><text x="454.29" y="407.59" style="font-size:20px;font-family:Asap Medium" textLength="82.26" lengthAdjust="spacingAndGlyphs">(millions)</text><text transform="rotate(-90 168.355 140.145)" style="font-size:20px;font-family:Asap Medium" textLength="39.82" lengthAdjust="spacingAndGlyphs">Real</text><text transform="rotate(-90 146.045 117.835)" style="font-size:20px;font-family:Asap Medium" textLength="47.54" lengthAdjust="spacingAndGlyphs">wage</text><text transform="rotate(-90 119.875 91.665)" style="font-size:20px;font-family:Asap Medium" textLength="48.22" lengthAdjust="spacingAndGlyphs">index</text><text transform="rotate(-90 93.365 65.155)" style="font-size:20px;font-family:Asap Medium" textLength="48.82" lengthAdjust="spacingAndGlyphs">(1860</text><text transform="rotate(-90 66.555 38.345)" style="font-size:20px;font-family:Asap Medium" textLength="11.2" lengthAdjust="spacingAndGlyphs">=</text><text transform="rotate(-90 58.555 30.345)" style="font-size:20px;font-family:Asap Medium" textLength="38.12" lengthAdjust="spacingAndGlyphs">100)</text></svg>