<svg version="1.1" xmlns="http://www.w3.org/2000/svg" x="0" y="0" viewBox="0 0 311.81 201.07" style="enable-background:new 0 0 311.81 201.07" xml:space="preserve"><line style="fill:none;stroke:#6d6e71;stroke-width:.5;stroke-linecap:square;stroke-linejoin:round" x1="76.86" y1="175.01" x2="74.73" y2="175.01"/><line style="fill:none;stroke:#6d6e71;stroke-width:.5;stroke-linecap:square;stroke-linejoin:round" x1="76.86" y1="162.95" x2="74.73" y2="162.95"/><line style="fill:none;stroke:#6d6e71;stroke-width:.5;stroke-linecap:square;stroke-linejoin:round" x1="76.86" y1="150.95" x2="74.73" y2="150.95"/><line style="fill:none;stroke:#6d6e71;stroke-width:.5;stroke-linecap:square;stroke-linejoin:round" x1="76.86" y1="138.95" x2="74.73" y2="138.95"/><line style="fill:none;stroke:#6d6e71;stroke-width:.5;stroke-linecap:square;stroke-linejoin:round" x1="76.86" y1="126.95" x2="74.73" y2="126.95"/><line style="fill:none;stroke:#6d6e71;stroke-width:.5;stroke-linecap:square;stroke-linejoin:round" x1="76.86" y1="114.95" x2="74.73" y2="114.95"/><line style="fill:none;stroke:#6d6e71;stroke-width:.5;stroke-linecap:square;stroke-linejoin:round" x1="76.86" y1="102.95" x2="74.73" y2="102.95"/><line style="fill:none;stroke:#6d6e71;stroke-width:.5;stroke-linecap:square;stroke-linejoin:round" x1="76.86" y1="90.95" x2="74.73" y2="90.95"/><line style="fill:none;stroke:#6d6e71;stroke-width:.5;stroke-linecap:square;stroke-linejoin:round" x1="76.86" y1="78.95" x2="74.73" y2="78.95"/><line style="fill:none;stroke:#6d6e71;stroke-width:.5;stroke-linecap:square;stroke-linejoin:round" x1="76.86" y1="66.95" x2="74.73" y2="66.95"/><line style="fill:none;stroke:#6d6e71;stroke-width:.5;stroke-linecap:square;stroke-linejoin:round" x1="76.86" y1="30.95" x2="74.73" y2="30.95"/><line style="fill:none;stroke:#6d6e71;stroke-width:.5;stroke-linecap:square;stroke-linejoin:round" x1="76.86" y1="18.95" x2="74.73" y2="18.95"/><line style="fill:none;stroke:#6d6e71;stroke-width:.5;stroke-linecap:square;stroke-linejoin:round" x1="76.86" y1="54.95" x2="74.73" y2="54.95"/><line style="fill:none;stroke:#6d6e71;stroke-width:.5;stroke-linecap:square;stroke-linejoin:round" x1="76.86" y1="42.95" x2="74.73" y2="42.95"/><line style="fill:none;stroke:#6d6e71;stroke-width:.5;stroke-linecap:square;stroke-linejoin:round" x1="76.86" y1="6.95" x2="74.73" y2="6.95"/><line style="fill:none;stroke:#6d6e71;stroke-width:.5;stroke-linecap:square" x1="77.13" y1="175.08" x2="77.13" y2="177.26"/><line style="fill:none;stroke:#6d6e71;stroke-width:.5;stroke-linecap:square" x1="84.09" y1="175.08" x2="84.09" y2="177.2"/><line style="fill:none;stroke:#6d6e71;stroke-width:.5;stroke-linecap:square" x1="91.04" y1="175.08" x2="91.04" y2="177.2"/><line style="fill:none;stroke:#6d6e71;stroke-width:.5;stroke-linecap:square" x1="98" y1="175.08" x2="98" y2="177.2"/><line style="fill:none;stroke:#6d6e71;stroke-width:.5;stroke-linecap:square" x1="104.96" y1="175.08" x2="104.96" y2="177.2"/><line style="fill:none;stroke:#6d6e71;stroke-width:.5;stroke-linecap:square" x1="111.92" y1="175.08" x2="111.92" y2="177.2"/><line style="fill:none;stroke:#6d6e71;stroke-width:.5;stroke-linecap:square" x1="118.88" y1="175.08" x2="118.88" y2="177.2"/><line style="fill:none;stroke:#6d6e71;stroke-width:.5;stroke-linecap:square" x1="125.84" y1="175.08" x2="125.84" y2="177.2"/><line style="fill:none;stroke:#6d6e71;stroke-width:.5;stroke-linecap:square" x1="132.79" y1="175.08" x2="132.79" y2="177.2"/><line style="fill:none;stroke:#6d6e71;stroke-width:.5;stroke-linecap:square" x1="139.75" y1="175.08" x2="139.75" y2="177.2"/><line style="fill:none;stroke:#6d6e71;stroke-width:.5;stroke-linecap:square" x1="146.71" y1="175.08" x2="146.71" y2="177.2"/><line style="fill:none;stroke:#6d6e71;stroke-width:.5;stroke-linecap:square" x1="153.67" y1="175.08" x2="153.67" y2="177.2"/><line style="fill:none;stroke:#6d6e71;stroke-width:.5;stroke-linecap:square" x1="160.63" y1="175.08" x2="160.63" y2="177.2"/><line style="fill:none;stroke:#6d6e71;stroke-width:.5;stroke-linecap:square" x1="167.59" y1="175.08" x2="167.59" y2="177.2"/><line style="fill:none;stroke:#6d6e71;stroke-width:.5;stroke-linecap:square" x1="174.54" y1="175.08" x2="174.54" y2="177.2"/><line style="fill:none;stroke:#6d6e71;stroke-width:.5;stroke-linecap:square" x1="181.5" y1="175.08" x2="181.5" y2="177.2"/><line style="fill:none;stroke:#6d6e71;stroke-width:.5;stroke-linecap:square" x1="188.46" y1="175.08" x2="188.46" y2="177.2"/><line style="fill:none;stroke:#6d6e71;stroke-width:.5;stroke-linecap:square" x1="195.42" y1="175.08" x2="195.42" y2="177.2"/><line style="fill:none;stroke:#6d6e71;stroke-width:.5;stroke-linecap:square" x1="202.38" y1="175.08" x2="202.38" y2="177.2"/><line style="fill:none;stroke:#6d6e71;stroke-width:.5;stroke-linecap:square" x1="209.34" y1="175.08" x2="209.34" y2="177.2"/><line style="fill:none;stroke:#6d6e71;stroke-width:.5;stroke-linecap:square" x1="216.29" y1="175.08" x2="216.29" y2="177.2"/><line style="fill:none;stroke:#6d6e71;stroke-width:.5;stroke-linecap:square" x1="223.25" y1="175.08" x2="223.25" y2="177.2"/><line style="fill:none;stroke:#6d6e71;stroke-width:.5;stroke-linecap:square" x1="230.21" y1="175.08" x2="230.21" y2="177.2"/><line style="fill:none;stroke:#6d6e71;stroke-width:.5;stroke-linecap:square" x1="237.17" y1="175.08" x2="237.17" y2="177.2"/><line style="fill:none;stroke:#6d6e71;stroke-width:.5;stroke-linecap:square" x1="244.13" y1="175.08" x2="244.13" y2="177.2"/><text transform="translate(67.035 177.151)" style="font-family:'Asap-Regular';font-size:7px">0</text><text transform="translate(75.25 186.56)" style="font-family:'Asap-Regular';font-size:7px">0</text><text transform="translate(63.29 153.1)" style="font-family:'Asap-Regular';font-size:7px">10</text><text transform="translate(63.291 129.1)" style="font-family:'Asap-Regular';font-size:7px">20</text><text transform="translate(63.291 105.1)" style="font-family:'Asap-Regular';font-size:7px">30</text><text transform="translate(63.291 81.1)" style="font-family:'Asap-Regular';font-size:7px">40</text><text transform="translate(63.291 57.1)" style="font-family:'Asap-Regular';font-size:7px">50</text><text transform="translate(63.291 33.1)" style="font-family:'Asap-Regular';font-size:7px">60</text><text transform="translate(63.291 9.1)" style="font-family:'Asap-Regular';font-size:7px">70</text><text transform="translate(103.088 186.56)" style="font-family:'Asap-Regular';font-size:7px">4</text><text transform="translate(130.922 186.56)" style="font-family:'Asap-Regular';font-size:7px">8</text><text transform="translate(156.883 186.56)" style="font-family:'Asap-Regular';font-size:7px">12</text><text transform="translate(184.716 186.56)" style="font-family:'Asap-Regular';font-size:7px">16</text><text transform="translate(212.55 186.56)" style="font-family:'Asap-Regular';font-size:7px">20</text><text transform="translate(240.383 186.56)" style="font-family:'Asap-Regular';font-size:7px">24</text><text transform="matrix(0 -.9726 1 0 52.72 118.21)" style="font-family:'Asap-Medium';font-size:8px">Bushels of grain</text><text transform="translate(119.737 198.533)" style="font-family:'Asap-Medium';font-size:8px">Angela&apos;s working hours</text><path style="fill:none;stroke:#6d6e71;stroke-width:.5;stroke-linecap:square;stroke-linejoin:round" d="M77.13 6.95v167.81"/><path style="fill:none;stroke:#f49323;stroke-width:.5;stroke-linecap:square;stroke-linejoin:round" d="M243.46 20.66c-19.09 1.27-70.39 7.28-113.16 46.04-9.41 8.53-29.64 27.27-42.29 59.19-7.72 19.47-9.87 36.92-10.42 48.73"/><text transform="translate(107.55 81.433)" style="font-family:'Asap-Regular';font-size:6px">T</text><line style="fill:none;stroke:#939598;stroke-width:.5;stroke-linecap:square;stroke-linejoin:round;stroke-dasharray:1.4173" x1="77.68" y1="85.64" x2="112.65" y2="85.64"/><line style="fill:none;stroke:#939598;stroke-width:.5055;stroke-linecap:square;stroke-linejoin:round;stroke-dasharray:1.4329" x1="111.92" y1="175.08" x2="111.92" y2="85.15"/><line style="fill:none;stroke:#6d6e71;stroke-width:.5;stroke-linecap:square" x1="77.13" y1="174.95" x2="244.13" y2="174.95"/><circle cx="111.92" cy="85.64" r="1.13"/><text transform="translate(133.128 27.962)" style="font-family:'Asap-Regular';font-size:6px">Production function</text></svg>