<svg version="1.1" xmlns="http://www.w3.org/2000/svg" x="0" y="0" viewBox="0 0 311.81 189" style="enable-background:new 0 0 311.81 189" xml:space="preserve"><path style="fill:none;stroke:#010101;stroke-miterlimit:10" d="M170.34 142.5h-96c-4.68 0-8.5-3.83-8.5-8.5V83"/><path style="fill:#0871b9" d="M68.67 88v46c0 3.13 2.54 5.67 5.67 5.67h149c3.13 0 5.67-2.54 5.67-5.67V88H68.67z"/><rect x="73.57" y="142.31" style="fill:#010101" width="19.52" height="3.19"/><rect x="204.07" y="142.31" style="fill:#010101" width="19.52" height="3.19"/><path style="fill:none;stroke:#010101;stroke-miterlimit:10" d="M212.84 12.37c0-4.68 3.83-8.5 8.5-8.5h.99c4.68 0 9.5 3.83 9.5 8.5V134c0 4.68-3.83 8.5-8.5 8.5H191"/><rect x="210.49" y="2.13" transform="rotate(-45.001 212.082 11.892)" style="fill:#010101" width="3.19" height="19.52"/><rect x="209.48" y="4.2" transform="rotate(-45.001 210.01 13.962)" style="fill:#010101" width="1.05" height="19.52"/><polyline style="fill:#0871b9" points="172.34 139.67 172.34 145.5 188.34 145.5 188.34 139.67"/><text transform="translate(103.86 110.835)" style="fill:#fff;font-family:'Asap-Medium';font-size:8px">Stock of atmospheric CO</text><text transform="translate(190.986 113.499)" style="fill:#fff;font-family:'Asap-Medium';font-size:4.664px">2</text><text transform="translate(103.42 120.434)" style="fill:#fff;font-family:'Asap-Medium';font-size:8px">(cause of climate change)</text><text transform="translate(61.434 49.834)" style="fill:#0871b9;font-family:'Asap-Medium';font-size:8px">Natural decay</text><text transform="translate(75.155 59.434)" style="fill:#0871b9;font-family:'Asap-Medium';font-size:8px">of CO</text><text transform="translate(95.026 62.098)" style="fill:#0871b9;font-family:'Asap-Medium';font-size:4.664px">2</text><text transform="translate(157.936 56.835)" style="fill:#0871b9;font-family:'Asap-Medium';font-size:8px">CO</text><text transform="translate(168.736 59.499)" style="fill:#0871b9;font-family:'Asap-Medium';font-size:4.664px">2</text><text transform="translate(172.231 56.835)" style="fill:#0871b9;font-family:'Asap-Medium';font-size:8px">emissions</text><text transform="translate(137.556 66.435)" style="fill:#0871b9;font-family:'Asap-Medium';font-size:8px">(effect of burning carbon)</text><text transform="translate(149.185 175.834)" style="fill:#0871b9;font-family:'Asap-Medium';font-size:8px">Absorption of CO</text><text transform="translate(209.664 178.499)" style="fill:#0871b9;font-family:'Asap-Medium';font-size:4.664px">2</text><text transform="translate(154.352 185.434)" style="fill:#0871b9;font-family:'Asap-Medium';font-size:8px">(e.g. by forests)</text><line style="fill:none;stroke:#0871b9;stroke-width:.5;stroke-miterlimit:10;stroke-dasharray:1.4173,1.4173" x1="77" y1="83" x2="77" y2="63.88"/><polygon style="fill:#0871b9" points="79.05 65.53 78.68 65.87 77.01 64.07 75.33 65.87 74.96 65.53 77.01 63.33"/><line style="fill:none;stroke:#0871b9;stroke-width:.5;stroke-miterlimit:10;stroke-dasharray:1.4173,1.4173" x1="87" y1="83" x2="87" y2="63.88"/><polygon style="fill:#0871b9" points="89.05 65.53 88.68 65.87 87.01 64.07 85.33 65.87 84.96 65.53 87.01 63.33"/><line style="fill:none;stroke:#0871b9;stroke-width:.5;stroke-miterlimit:10;stroke-dasharray:1.4173,1.4173" x1="97" y1="83" x2="97" y2="63.88"/><polygon style="fill:#0871b9" points="99.05 65.53 98.68 65.87 97.01 64.07 95.33 65.87 94.96 65.53 97.01 63.33"/><line style="fill:none;stroke:#0871b9;stroke-width:.5;stroke-miterlimit:10" x1="186.34" y1="145.5" x2="186.34" y2="164.63"/><polygon style="fill:#0871b9" points="184.29 162.97 184.66 162.63 186.34 164.44 188.02 162.63 188.38 162.97 186.34 165.17"/><g><line style="fill:none;stroke:#0871b9;stroke-width:.5;stroke-miterlimit:10" x1="180.34" y1="145.5" x2="180.34" y2="164.63"/><polygon style="fill:#0871b9" points="178.29 162.97 178.66 162.63 180.34 164.44 182.02 162.63 182.38 162.97 180.34 165.17"/></g><g><line style="fill:none;stroke:#0871b9;stroke-width:.5;stroke-miterlimit:10" x1="174.34" y1="145.5" x2="174.34" y2="164.63"/><polygon style="fill:#0871b9" points="172.29 162.97 172.66 162.63 174.34 164.44 176.02 162.63 176.38 162.97 174.34 165.17"/></g><g><line style="fill:none;stroke:#0871b9;stroke-width:.5;stroke-miterlimit:10" x1="210.73" y1="22.45" x2="190.1" y2="43.08"/><polygon style="fill:#0871b9" points="189.82 40.47 190.32 40.48 190.23 42.95 192.7 42.86 192.71 43.36 189.71 43.47"/></g><g><line style="fill:none;stroke:#0871b9;stroke-width:.5;stroke-miterlimit:10" x1="206.49" y1="18.2" x2="185.85" y2="38.84"/><polygon style="fill:#0871b9" points="185.58 36.22 186.08 36.24 185.99 38.7 188.45 38.61 188.47 39.11 185.47 39.22"/></g><g><line style="fill:none;stroke:#0871b9;stroke-width:.5;stroke-miterlimit:10" x1="202.25" y1="13.96" x2="181.61" y2="34.6"/><polygon style="fill:#0871b9" points="181.34 31.98 181.84 32 181.75 34.46 184.21 34.37 184.23 34.87 181.23 34.98"/></g></svg>