<svg version="1.1" xmlns="http://www.w3.org/2000/svg" x="0" y="0" viewBox="0 0 311.81 203" style="enable-background:new 0 0 311.81 203" xml:space="preserve"><rect x="172.61" y="118.55" style="fill:#e4e9f6;stroke:#6d6e71;stroke-width:.5;stroke-miterlimit:10" width="80.13" height="80.13"/><rect x="172.61" y="38.43" style="fill:#e4e9f6;stroke:#6d6e71;stroke-width:.5;stroke-miterlimit:10" width="80.13" height="80.13"/><rect x="92.71" y="118.32" style="fill:#e4e9f6;stroke:#6d6e71;stroke-width:.5;stroke-miterlimit:10" width="80.13" height="80.13"/><rect x="92.71" y="38.43" style="fill:#e4e9f6;stroke:#6d6e71;stroke-width:.5;stroke-miterlimit:10" width="80.13" height="80.13"/><text transform="translate(109.844 64.633)"><tspan x="0" y="0" style="font-family:'Asap-Regular';font-size:8px">Reduction in</tspan><tspan x="-12.18" y="9.6" style="font-family:'Asap-Regular';font-size:8px">emissions sufficient</tspan><tspan x=".35" y="19.2" style="font-family:'Asap-Regular';font-size:8px">to moderate</tspan><tspan x="-4.99" y="28.8" style="font-family:'Asap-Regular';font-size:8px">climate change</tspan></text><text transform="translate(184.772 69.736)"><tspan x="0" y="0" style="font-family:'Asap-Regular';font-size:8px">US free rides on</tspan><tspan x="-4.18" y="9.6" style="font-family:'Asap-Regular';font-size:8px">Chinese emissions</tspan><tspan x="12.23" y="19.2" style="font-family:'Asap-Regular';font-size:8px">cutbacks</tspan></text><text transform="translate(266.638 50.834)"><tspan x="0" y="0" style="font-family:'Asap-Regular';font-size:6px">Temperatures</tspan><tspan x="-2.6" y="7.2" style="font-family:'Asap-Regular';font-size:6px">continue to rise,</tspan><tspan x="-6.3" y="14.4" style="font-family:'Asap-Regular';font-size:6px">imposing large but</tspan><tspan x="-.76" y="21.6" style="font-family:'Asap-Regular';font-size:6px">bearable costs</tspan></text><line style="fill:none;stroke:#58595b;stroke-width:.5;stroke-linecap:square;stroke-miterlimit:10" x1="156.45" y1="174.5" x2="258.57" y2="174.5"/><polygon style="fill:#58595b" points="158.1 176.54 158.45 176.18 156.64 174.5 158.45 172.82 158.1 172.46 155.91 174.5"/><text transform="translate(266.638 174.5)"><tspan x="0" y="0" style="font-family:'Asap-Regular';font-size:6px">Temperatures</tspan><tspan x="-2.6" y="7.2" style="font-family:'Asap-Regular';font-size:6px">continue to rise,</tspan><tspan x="-6.3" y="14.4" style="font-family:'Asap-Regular';font-size:6px">imposing large but</tspan><tspan x="-.76" y="21.6" style="font-family:'Asap-Regular';font-size:6px">bearable costs</tspan></text><line style="fill:none;stroke:#58595b;stroke-width:.5;stroke-linecap:square;stroke-miterlimit:10" x1="227.01" y1="131.17" x2="258.57" y2="131.17"/><polygon style="fill:#58595b" points="228.67 133.22 229.01 132.85 227.2 131.17 229.01 129.49 228.67 129.13 226.47 131.17"/><text transform="translate(267.685 131.172)"><tspan x="0" y="0" style="font-family:'Asap-Regular';font-size:6px">Catastrophic,</tspan><tspan x="2.45" y="7.2" style="font-family:'Asap-Regular';font-size:6px">irreversible</tspan><tspan x="-2.91" y="14.4" style="font-family:'Asap-Regular';font-size:6px">climate change</tspan></text><text transform="translate(189.58 155.321)"><tspan x="0" y="0" style="font-family:'Asap-Regular';font-size:8px">No reduction</tspan><tspan x="1.72" y="9.6" style="font-family:'Asap-Regular';font-size:8px">in emissions</tspan></text><text transform="translate(99.523 151.07)"><tspan x="0" y="0" style="font-family:'Asap-Regular';font-size:8px">China free rides on</tspan><tspan x="10.32" y="9.6" style="font-family:'Asap-Regular';font-size:8px">US emissions</tspan><tspan x="17.59" y="19.2" style="font-family:'Asap-Regular';font-size:8px">cutbacks</tspan></text><line style="fill:none;stroke:#6d6e71;stroke-width:.5;stroke-miterlimit:10" x1="172.72" y1="20.17" x2="172.72" y2="38.43"/><polyline style="fill:#b9519e;stroke:#6d6e71;stroke-width:.5;stroke-miterlimit:10" points="92.6 21.19 92.6 4.32 252.85 4.32 252.85 21.19"/><text transform="translate(117.223 33.323)" style="font-family:'Asap-Regular';font-size:8px">Restrict</text><text transform="translate(206.18 33.325)" style="font-family:'Asap-Regular';font-size:8px">BAU</text><text transform="translate(165.67 16.687)" style="fill:#fff;font-family:'Asap-Regular';font-size:10px">US</text><line style="fill:none;stroke:#6d6e71;stroke-width:.5;stroke-miterlimit:10" x1="252.85" y1="21.19" x2="252.85" y2="38.43"/><line style="fill:none;stroke:#6d6e71;stroke-width:.5;stroke-miterlimit:10" x1="92.6" y1="38.43" x2="92.6" y2="21.19"/><rect x="92.6" y="38.43" style="fill:none;stroke:#6d6e71;stroke-width:.5;stroke-miterlimit:10" width="160.26" height="160.26"/><line style="fill:none;stroke:#6d6e71;stroke-width:.5;stroke-miterlimit:10" x1="172.72" y1="38.43" x2="172.72" y2="198.68"/><line style="fill:none;stroke:#6d6e71;stroke-width:.5;stroke-miterlimit:10" x1="92.6" y1="118.55" x2="252.85" y2="118.55"/><polyline style="fill:#0d71ba;stroke:#6d6e71;stroke-width:.5;stroke-miterlimit:10" points="75.83 198.68 58.96 198.68 58.96 38.43 75.83 38.43"/><text transform="rotate(-90 101.25 29.922)" style="fill:#fff;font-family:'Asap-Regular';font-size:10px">China</text><line style="fill:none;stroke:#6d6e71;stroke-width:.5;stroke-miterlimit:10" x1="75.83" y1="38.43" x2="93.07" y2="38.43"/><line style="fill:none;stroke:#6d6e71;stroke-width:.5;stroke-miterlimit:10" x1="93.07" y1="198.68" x2="75.83" y2="198.68"/><line style="fill:none;stroke:#6d6e71;stroke-width:.5;stroke-miterlimit:10" x1="75.83" y1="118.55" x2="93.07" y2="118.55"/><text transform="rotate(-90 126.485 39.661)" style="font-family:'Asap-Regular';font-size:8px">BAU</text><g><text transform="rotate(-90 90.511 3.686)" style="font-family:'Asap-Regular';font-size:8px">Restrict</text></g><g><line style="fill:none;stroke:#58595b;stroke-width:.5;stroke-linecap:square;stroke-miterlimit:10" x1="227.01" y1="50.83" x2="258.57" y2="50.83"/><polygon style="fill:#58595b" points="228.67 52.88 229.01 52.51 227.2 50.83 229.01 49.16 228.67 48.79 226.47 50.83"/></g></svg>