<svg version="1.1" xmlns="http://www.w3.org/2000/svg" x="0" y="0" viewBox="0 0 311.81 223.12" style="enable-background:new 0 0 311.81 223.12" xml:space="preserve"><line style="fill:none;stroke:#6d6e71;stroke-width:.5;stroke-linecap:square" x1="40.8" y1="191.83" x2="40.8" y2="5.96"/><line style="fill:none;stroke:#6d6e71;stroke-width:.5;stroke-linecap:square" x1="40.8" y1="191.83" x2="301.13" y2="191.83"/><path style="fill:none;stroke:#3a53a4;stroke-width:.5;stroke-linejoin:round;stroke-miterlimit:10" d="M208.15 141.18c-1.25-.56-2.53-1.13-3.74-1.69-1.21-.56-2.37-1.13-3.5-1.69a167.522 167.522 0 01-6.43-3.38c-1.02-.56-2-1.13-2.97-1.69-.97-.56-1.9-1.13-2.83-1.69-.92-.56-1.82-1.13-2.7-1.69-.88-.56-1.74-1.13-2.58-1.69-.84-.56-1.66-1.13-2.47-1.69-.81-.56-1.6-1.13-2.37-1.69s-1.53-1.13-2.28-1.69c-.74-.56-1.47-1.13-2.19-1.69s-1.42-1.13-2.11-1.69-1.37-1.13-2.03-1.69c-.66-.56-1.32-1.13-1.96-1.69-.64-.56-1.27-1.13-1.89-1.69-.62-.56-1.23-1.13-1.82-1.69-.6-.56-1.18-1.13-1.76-1.69-.58-.56-1.14-1.13-1.7-1.69a129.942 129.942 0 01-3.24-3.38c-.39-.42-.52-.57-.78-.85s-.39-.42-.76-.85c-.38-.42-1-1.13-1.49-1.69s-.97-1.13-1.44-1.69-.94-1.13-1.39-1.69c-.46-.56-.91-1.13-1.35-1.69-.44-.56-.88-1.13-1.3-1.69-.43-.56-.85-1.13-1.26-1.69-.41-.56-.82-1.13-1.22-1.69s-.79-1.13-1.18-1.69c-.39-.56-.86-1.27-1.14-1.69-.28-.42-.37-.56-.56-.85-.18-.28-.28-.42-.55-.84s-.72-1.13-1.06-1.69c-.35-.56-.69-1.13-1.03-1.69-.34-.56-.67-1.13-.99-1.69-.33-.56-.64-1.13-.96-1.69a140.52 140.52 0 01-2.67-5.07c-.28-.56-.56-1.13-.83-1.69-.27-.56-.53-1.13-.79-1.69s-.51-1.13-.76-1.69-.49-1.13-.73-1.69-.47-1.13-.7-1.69c-.23-.56-.45-1.13-.67-1.69-.22-.56-.43-1.13-.64-1.69-.21-.56-.41-1.13-.61-1.69a113.13 113.13 0 01-1.68-5.07 107.975 107.975 0 01-.97-3.38l-.45-1.69c-.14-.56-.29-1.13-.42-1.69-.14-.56-.27-1.13-.39-1.69-.13-.56-.25-1.13-.37-1.69s-.23-1.13-.34-1.69c-.11-.56-.21-1.13-.32-1.69a99.44 99.44 0 01-.55-3.38l-.24-1.69c-.08-.56-.15-1.13-.21-1.69-.07-.56-.13-1.13-.19-1.69s-.11-1.13-.16-1.69a96.187 96.187 0 01-.25-3.38l-.09-1.69c-.02-.56-.05-1.13-.06-1.69-.02-.56-.03-1.13-.04-1.69-.01-.56-.01-1.13-.01-1.69"/><path style="fill:none;stroke:#939598;stroke-width:.5;stroke-linejoin:round" d="M260.5 141.18c-5.31-.56-11.55-1.13-15.92-1.69-4.37-.56-7.21-1.13-10.29-1.69-3.07-.56-5.65-1.13-8.16-1.69-2.52-.56-4.76-1.13-6.93-1.69s-4.17-1.13-6.1-1.69a207.595 207.595 0 01-15.13-5.07c-1.49-.56-2.92-1.13-4.3-1.69-1.39-.56-2.73-1.13-4.03-1.69-1.3-.56-2.56-1.13-3.79-1.69s-2.42-1.13-3.58-1.69a178.649 178.649 0 01-9.68-5.07c-1-.56-1.97-1.13-2.93-1.69-.95-.56-1.89-1.13-2.8-1.69-.91-.56-1.81-1.13-2.68-1.69-.87-.56-1.73-1.13-2.57-1.69-.84-.56-1.66-1.13-2.46-1.69-.81-.56-1.78-1.27-2.37-1.69-.58-.42-.77-.57-1.15-.85-.38-.28-.57-.42-1.13-.85-.55-.42-1.47-1.13-2.19-1.69s-1.42-1.13-2.11-1.69-1.36-1.13-2.03-1.69c-.66-.56-1.31-1.13-1.95-1.69-.64-.56-1.27-1.13-1.88-1.69-.62-.56-1.22-1.13-1.81-1.69-.59-.56-1.17-1.13-1.75-1.69-.57-.56-1.13-1.13-1.68-1.69s-1.22-1.27-1.62-1.69c-.4-.42-.53-.57-.79-.85s-.39-.42-.77-.84-1.01-1.13-1.51-1.69c-.49-.56-.98-1.13-1.45-1.69s-.94-1.13-1.4-1.69a99.802 99.802 0 01-2.64-3.38c-.42-.56-.84-1.13-1.25-1.69-.41-.56-.81-1.13-1.2-1.69-.39-.56-.77-1.13-1.15-1.69-.38-.56-.74-1.13-1.1-1.69-.36-.56-.71-1.13-1.06-1.69-.35-.56-.68-1.13-1.02-1.69-.33-.56-.66-1.13-.97-1.69-.32-.56-.63-1.13-.93-1.69-.3-.56-.6-1.13-.89-1.69-.29-.56-.57-1.13-.85-1.69s-.54-1.13-.81-1.69c-.26-.56-.52-1.13-.77-1.69s-.49-1.13-.73-1.69-.47-1.13-.69-1.69c-.22-.56-.44-1.13-.65-1.69-.21-.56-.42-1.13-.61-1.69-.2-.56-.39-1.13-.58-1.69-.19-.56-.37-1.13-.54-1.69a107.975 107.975 0 01-.97-3.38c-.15-.56-.29-1.13-.43-1.69s-.27-1.13-.4-1.69-.25-1.13-.36-1.69l-.33-1.69a99.44 99.44 0 01-.55-3.38c-.08-.56-.15-1.13-.22-1.69s-.13-1.13-.19-1.69-.11-1.13-.15-1.69c-.05-.56-.09-1.13-.12-1.69l-.09-1.69c-.02-.56-.04-1.13-.05-1.69-.01-.56-.01-1.13-.02-1.69"/><text transform="translate(140.476 71.037)"><tspan x="0" y="0" style="font-family:'Asap-Regular';font-size:6px">C</tspan><tspan x="3.73" y="0" style="font-family:'Asap-Regular';font-size:6px"> </tspan><tspan x="5.17" y="0" style="font-family:'Asap-Regular';font-size:6px">(</tspan><tspan x="6.99" y="0" style="font-family:'Asap-Regular';font-size:6px">40</tspan><tspan x="13.37" y="0" style="font-family:'Asap-Regular';font-size:6px">,</tspan><tspan x="14.59" y="0" style="font-family:'Asap-Regular';font-size:6px"> 70)</tspan></text><text transform="translate(164.879 105.715)"><tspan x="0" y="0" style="font-family:'Asap-Regular';font-size:6px">A</tspan><tspan x="3.69" y="0" style="font-family:'Asap-Regular';font-size:6px"> </tspan><tspan x="5.13" y="0" style="font-family:'Asap-Regular';font-size:6px">(</tspan><tspan x="6.95" y="0" style="font-family:'Asap-Regular';font-size:6px">50</tspan><tspan x="13.34" y="0" style="font-family:'Asap-Regular';font-size:6px">,</tspan><tspan x="14.55" y="0" style="font-family:'Asap-Regular';font-size:6px"> </tspan><tspan x="15.99" y="0" style="font-family:'Asap-Regular';font-size:6px">50</tspan><tspan x="22.37" y="0" style="font-family:'Asap-Regular';font-size:6px">)</tspan></text><text transform="translate(100.474 92.364)"><tspan x="0" y="0" style="font-family:'Asap-Regular';font-size:6px">B</tspan><tspan x="3.55" y="0" style="font-family:'Asap-Regular';font-size:6px"> </tspan><tspan x="4.99" y="0" style="font-family:'Asap-Regular';font-size:6px">(</tspan><tspan x="6.82" y="0" style="font-family:'Asap-Regular';font-size:6px">40</tspan><tspan x="13.2" y="0" style="font-family:'Asap-Regular';font-size:6px">,</tspan><tspan x="14.41" y="0" style="font-family:'Asap-Regular';font-size:6px"> 62)</tspan></text><text transform="translate(29.986 193.971)" style="font-family:'Asap-Regular';font-size:7px">0</text><text transform="translate(26.263 177.075)"><tspan x="0" y="0" style="font-family:'Asap-Regular';font-size:7px">1</tspan><tspan x="3.72" y="0" style="font-family:'Asap-Regular';font-size:7px">0</tspan></text><text transform="translate(26.263 160.178)"><tspan x="0" y="0" style="font-family:'Asap-Regular';font-size:7px">2</tspan><tspan x="3.72" y="0" style="font-family:'Asap-Regular';font-size:7px">0</tspan></text><text transform="translate(26.263 143.281)"><tspan x="0" y="0" style="font-family:'Asap-Regular';font-size:7px">3</tspan><tspan x="3.72" y="0" style="font-family:'Asap-Regular';font-size:7px">0</tspan></text><text transform="translate(26.263 126.385)"><tspan x="0" y="0" style="font-family:'Asap-Regular';font-size:7px">4</tspan><tspan x="3.72" y="0" style="font-family:'Asap-Regular';font-size:7px">0</tspan></text><text transform="translate(26.263 109.488)"><tspan x="0" y="0" style="font-family:'Asap-Regular';font-size:7px">5</tspan><tspan x="3.72" y="0" style="font-family:'Asap-Regular';font-size:7px">0</tspan></text><text transform="translate(26.263 92.591)"><tspan x="0" y="0" style="font-family:'Asap-Regular';font-size:7px">6</tspan><tspan x="3.72" y="0" style="font-family:'Asap-Regular';font-size:7px">0</tspan></text><text transform="translate(26.263 75.695)"><tspan x="0" y="0" style="font-family:'Asap-Regular';font-size:7px">7</tspan><tspan x="3.72" y="0" style="font-family:'Asap-Regular';font-size:7px">0</tspan></text><text transform="translate(26.263 58.798)"><tspan x="0" y="0" style="font-family:'Asap-Regular';font-size:7px">8</tspan><tspan x="3.72" y="0" style="font-family:'Asap-Regular';font-size:7px">0</tspan></text><text transform="translate(26.263 41.901)"><tspan x="0" y="0" style="font-family:'Asap-Regular';font-size:7px">9</tspan><tspan x="3.72" y="0" style="font-family:'Asap-Regular';font-size:7px">0</tspan></text><text transform="translate(22.455 25.004)"><tspan x="0" y="0" style="font-family:'Asap-Regular';font-size:7px">1</tspan><tspan x="3.72" y="0" style="font-family:'Asap-Regular';font-size:7px">0</tspan><tspan x="7.53" y="0" style="font-family:'Asap-Regular';font-size:7px">0</tspan></text><text transform="translate(22.455 8.107)"><tspan x="0" y="0" style="font-family:'Asap-Regular';font-size:7px">1</tspan><tspan x="3.72" y="0" style="font-family:'Asap-Regular';font-size:7px">1</tspan><tspan x="7.53" y="0" style="font-family:'Asap-Regular';font-size:7px">0</tspan></text><text transform="translate(38.932 204.168)" style="font-family:'Asap-Regular';font-size:7px">0</text><text transform="translate(60.736 204.168)"><tspan x="0" y="0" style="font-family:'Asap-Regular';font-size:7px">1</tspan><tspan x="3.72" y="0" style="font-family:'Asap-Regular';font-size:7px">0</tspan></text><text transform="translate(84.403 204.168)"><tspan x="0" y="0" style="font-family:'Asap-Regular';font-size:7px">2</tspan><tspan x="3.72" y="0" style="font-family:'Asap-Regular';font-size:7px">0</tspan></text><text transform="translate(108.069 204.168)"><tspan x="0" y="0" style="font-family:'Asap-Regular';font-size:7px">3</tspan><tspan x="3.72" y="0" style="font-family:'Asap-Regular';font-size:7px">0</tspan></text><text transform="translate(131.735 204.168)"><tspan x="0" y="0" style="font-family:'Asap-Regular';font-size:7px">4</tspan><tspan x="3.72" y="0" style="font-family:'Asap-Regular';font-size:7px">0</tspan></text><text transform="translate(155.402 204.168)"><tspan x="0" y="0" style="font-family:'Asap-Regular';font-size:7px">5</tspan><tspan x="3.72" y="0" style="font-family:'Asap-Regular';font-size:7px">0</tspan></text><text transform="translate(179.068 204.168)"><tspan x="0" y="0" style="font-family:'Asap-Regular';font-size:7px">6</tspan><tspan x="3.72" y="0" style="font-family:'Asap-Regular';font-size:7px">0</tspan></text><text transform="translate(202.734 204.168)"><tspan x="0" y="0" style="font-family:'Asap-Regular';font-size:7px">7</tspan><tspan x="3.72" y="0" style="font-family:'Asap-Regular';font-size:7px">0</tspan></text><text transform="translate(226.4 204.168)"><tspan x="0" y="0" style="font-family:'Asap-Regular';font-size:7px">8</tspan><tspan x="3.72" y="0" style="font-family:'Asap-Regular';font-size:7px">0</tspan></text><text transform="translate(250.067 204.168)"><tspan x="0" y="0" style="font-family:'Asap-Regular';font-size:7px">9</tspan><tspan x="3.72" y="0" style="font-family:'Asap-Regular';font-size:7px">0</tspan></text><text transform="translate(271.83 204.168)"><tspan x="0" y="0" style="font-family:'Asap-Regular';font-size:7px">1</tspan><tspan x="3.72" y="0" style="font-family:'Asap-Regular';font-size:7px">0</tspan><tspan x="7.53" y="0" style="font-family:'Asap-Regular';font-size:7px">0</tspan></text><text transform="translate(295.497 204.168)"><tspan x="0" y="0" style="font-family:'Asap-Regular';font-size:7px">1</tspan><tspan x="3.72" y="0" style="font-family:'Asap-Regular';font-size:7px">1</tspan><tspan x="7.53" y="0" style="font-family:'Asap-Regular';font-size:7px">0</tspan></text><text transform="rotate(-90 76.905 60.24)"><tspan x="0" y="0" style="font-family:'Asap-Medium';font-size:8px">C</tspan><tspan x="4.92" y="0" style="font-family:'Asap-Medium';font-size:8px">o</tspan><tspan x="9.47" y="0" style="font-family:'Asap-Medium';font-size:8px">n</tspan><tspan x="13.9" y="0" style="font-family:'Asap-Medium';font-size:8px">s</tspan><tspan x="17.22" y="0" style="font-family:'Asap-Medium';font-size:8px">u</tspan><tspan x="21.66" y="0" style="font-family:'Asap-Medium';font-size:8px">m</tspan><tspan x="28.46" y="0" style="font-family:'Asap-Medium';font-size:8px">pt</tspan><tspan x="35.78" y="0" style="font-family:'Asap-Medium';font-size:8px">i</tspan><tspan x="37.86" y="0" style="font-family:'Asap-Medium';font-size:8px">o</tspan><tspan x="42.42" y="0" style="font-family:'Asap-Medium';font-size:8px">n</tspan><tspan x="46.84" y="0" style="font-family:'Asap-Medium';font-size:8px"> </tspan><tspan x="49.08" y="0" style="font-family:'Asap-Medium';font-size:8px">l</tspan><tspan x="51.45" y="0" style="font-family:'Asap-Medium';font-size:8px">a</tspan><tspan x="55.82" y="0" style="font-family:'Asap-Medium';font-size:8px">t</tspan><tspan x="58.56" y="0" style="font-family:'Asap-Medium';font-size:8px">e</tspan><tspan x="62.85" y="0" style="font-family:'Asap-Medium';font-size:8px">r</tspan><tspan x="65.8" y="0" style="font-family:'Asap-Medium';font-size:8px"> </tspan><tspan x="67.75" y="0" style="font-family:'Asap-Medium';font-size:8px">(</tspan><tspan x="70.15" y="0" style="font-family:'Asap-Medium';font-size:8px">$</tspan><tspan x="74.09" y="0" style="font-family:'Asap-Medium';font-size:8px">)</tspan></text><text transform="translate(133.586 216.901)"><tspan x="0" y="0" style="font-family:'Asap-Medium';font-size:8px">C</tspan><tspan x="4.92" y="0" style="font-family:'Asap-Medium';font-size:8px">o</tspan><tspan x="9.47" y="0" style="font-family:'Asap-Medium';font-size:8px">n</tspan><tspan x="13.9" y="0" style="font-family:'Asap-Medium';font-size:8px">s</tspan><tspan x="17.22" y="0" style="font-family:'Asap-Medium';font-size:8px">u</tspan><tspan x="21.66" y="0" style="font-family:'Asap-Medium';font-size:8px">m</tspan><tspan x="28.46" y="0" style="font-family:'Asap-Medium';font-size:8px">pt</tspan><tspan x="35.78" y="0" style="font-family:'Asap-Medium';font-size:8px">i</tspan><tspan x="37.86" y="0" style="font-family:'Asap-Medium';font-size:8px">o</tspan><tspan x="42.42" y="0" style="font-family:'Asap-Medium';font-size:8px">n</tspan><tspan x="46.84" y="0" style="font-family:'Asap-Medium';font-size:8px"> </tspan><tspan x="49.08" y="0" style="font-family:'Asap-Medium';font-size:8px">n</tspan><tspan x="53.5" y="0" style="font-family:'Asap-Medium';font-size:8px">o</tspan><tspan x="58.06" y="0" style="font-family:'Asap-Medium';font-size:8px">w </tspan><tspan x="66.02" y="0" style="font-family:'Asap-Medium';font-size:8px">(</tspan><tspan x="68.42" y="0" style="font-family:'Asap-Medium';font-size:8px">$</tspan><tspan x="72.36" y="0" style="font-family:'Asap-Medium';font-size:8px">)</tspan></text><text transform="translate(213.406 126.427)"><tspan x="0" y="0" style="font-family:'Asap-Regular';font-size:6px">J</tspan><tspan x="2.41" y="0" style="font-family:'Asap-Regular';font-size:6px">u</tspan><tspan x="5.77" y="0" style="font-family:'Asap-Regular';font-size:6px">l</tspan><tspan x="7.54" y="0" style="font-family:'Asap-Regular';font-size:6px">i</tspan><tspan x="9.1" y="0" style="font-family:'Asap-Regular';font-size:6px">a</tspan><tspan x="12.38" y="0" style="font-family:'Asap-Regular';font-size:6px">’</tspan><tspan x="13.68" y="0" style="font-family:'Asap-Regular';font-size:6px">s</tspan><tspan x="16.13" y="0" style="font-family:'Asap-Regular';font-size:6px"> </tspan><tspan x="17.57" y="0" style="font-family:'Asap-Regular';font-size:6px">i</tspan><tspan x="19.13" y="0" style="font-family:'Asap-Regular';font-size:6px">n</tspan><tspan x="22.47" y="0" style="font-family:'Asap-Regular';font-size:6px">d</tspan><tspan x="25.89" y="0" style="font-family:'Asap-Regular';font-size:6px">i</tspan><tspan x="27.45" y="0" style="font-family:'Asap-Regular';font-size:6px">ff</tspan><tspan x="31.36" y="0" style="font-family:'Asap-Regular';font-size:6px">e</tspan><tspan x="34.58" y="0" style="font-family:'Asap-Regular';font-size:6px">r</tspan><tspan x="36.77" y="0" style="font-family:'Asap-Regular';font-size:6px">e</tspan><tspan x="40" y="0" style="font-family:'Asap-Regular';font-size:6px">n</tspan><tspan x="43.34" y="0" style="font-family:'Asap-Regular';font-size:6px">ce</tspan><tspan x="49.46" y="0" style="font-family:'Asap-Regular';font-size:6px"> </tspan><tspan x="51.05" y="0" style="font-family:'Asap-Regular';font-size:6px">c</tspan><tspan x="53.95" y="0" style="font-family:'Asap-Regular';font-size:6px">u</tspan><tspan x="57.3" y="0" style="font-family:'Asap-Regular';font-size:6px">rve</tspan></text><text transform="translate(142.902 141.182)"><tspan x="0" y="0" style="font-family:'Asap-Regular';font-size:6px">A</tspan><tspan x="3.69" y="0" style="font-family:'Asap-Regular';font-size:6px">n</tspan><tspan x="7.03" y="0" style="font-family:'Asap-Regular';font-size:6px">o</tspan><tspan x="10.47" y="0" style="font-family:'Asap-Regular';font-size:6px">t</tspan><tspan x="12.5" y="0" style="font-family:'Asap-Regular';font-size:6px">h</tspan><tspan x="15.9" y="0" style="font-family:'Asap-Regular';font-size:6px">e</tspan><tspan x="19.12" y="0" style="font-family:'Asap-Regular';font-size:6px">r </tspan><tspan x="22.76" y="0" style="font-family:'Asap-Regular';font-size:6px">p</tspan><tspan x="26.23" y="0" style="font-family:'Asap-Regular';font-size:6px">e</tspan><tspan x="29.45" y="0" style="font-family:'Asap-Regular';font-size:6px">r</tspan><tspan x="31.64" y="0" style="font-family:'Asap-Regular';font-size:6px">s</tspan><tspan x="34.09" y="0" style="font-family:'Asap-Regular';font-size:6px">o</tspan><tspan x="37.53" y="0" style="font-family:'Asap-Regular';font-size:6px">n</tspan><tspan x="40.87" y="0" style="font-family:'Asap-Regular';font-size:6px">’</tspan><tspan x="42.17" y="0" style="font-family:'Asap-Regular';font-size:6px">s</tspan><tspan x="44.62" y="0" style="font-family:'Asap-Regular';font-size:6px"> </tspan><tspan x="0" y="7.2" style="font-family:'Asap-Regular';font-size:6px">i</tspan><tspan x="1.56" y="7.2" style="font-family:'Asap-Regular';font-size:6px">n</tspan><tspan x="4.9" y="7.2" style="font-family:'Asap-Regular';font-size:6px">d</tspan><tspan x="8.32" y="7.2" style="font-family:'Asap-Regular';font-size:6px">i</tspan><tspan x="9.88" y="7.2" style="font-family:'Asap-Regular';font-size:6px">ff</tspan><tspan x="13.79" y="7.2" style="font-family:'Asap-Regular';font-size:6px">e</tspan><tspan x="17.01" y="7.2" style="font-family:'Asap-Regular';font-size:6px">r</tspan><tspan x="19.21" y="7.2" style="font-family:'Asap-Regular';font-size:6px">e</tspan><tspan x="22.43" y="7.2" style="font-family:'Asap-Regular';font-size:6px">n</tspan><tspan x="25.77" y="7.2" style="font-family:'Asap-Regular';font-size:6px">ce</tspan><tspan x="31.89" y="7.2" style="font-family:'Asap-Regular';font-size:6px"> </tspan><tspan x="33.41" y="7.2" style="font-family:'Asap-Regular';font-size:6px">c</tspan><tspan x="36.31" y="7.2" style="font-family:'Asap-Regular';font-size:6px">u</tspan><tspan x="39.66" y="7.2" style="font-family:'Asap-Regular';font-size:6px">rve</tspan></text><line style="fill:none;stroke:#6d6e71;stroke-width:.5;stroke-linecap:square" x1="40.8" y1="191.83" x2="40.8" y2="193.95"/><line style="fill:none;stroke:#6d6e71;stroke-width:.5;stroke-linecap:square" x1="64.47" y1="191.83" x2="64.47" y2="193.95"/><line style="fill:none;stroke:#6d6e71;stroke-width:.5;stroke-linecap:square" x1="88.14" y1="191.83" x2="88.14" y2="193.95"/><line style="fill:none;stroke:#6d6e71;stroke-width:.5;stroke-linecap:square" x1="111.8" y1="191.83" x2="111.8" y2="193.95"/><line style="fill:none;stroke:#6d6e71;stroke-width:.5;stroke-linecap:square" x1="135.47" y1="191.83" x2="135.47" y2="193.95"/><line style="fill:none;stroke:#6d6e71;stroke-width:.5;stroke-linecap:square" x1="159.14" y1="191.83" x2="159.14" y2="193.95"/><line style="fill:none;stroke:#6d6e71;stroke-width:.5;stroke-linecap:square" x1="182.8" y1="191.83" x2="182.8" y2="193.95"/><line style="fill:none;stroke:#6d6e71;stroke-width:.5;stroke-linecap:square" x1="206.47" y1="191.83" x2="206.47" y2="193.95"/><line style="fill:none;stroke:#6d6e71;stroke-width:.5;stroke-linecap:square" x1="230.14" y1="191.83" x2="230.14" y2="193.95"/><line style="fill:none;stroke:#6d6e71;stroke-width:.5;stroke-linecap:square" x1="253.8" y1="191.83" x2="253.8" y2="193.95"/><line style="fill:none;stroke:#6d6e71;stroke-width:.5;stroke-linecap:square" x1="301.13" y1="191.83" x2="301.13" y2="193.95"/><line style="fill:none;stroke:#6d6e71;stroke-width:.5;stroke-linecap:square" x1="277.47" y1="191.83" x2="277.47" y2="193.95"/><line style="fill:none;stroke:#6d6e71;stroke-width:.5;stroke-linecap:square" x1="38.68" y1="191.83" x2="40.8" y2="191.83"/><line style="fill:none;stroke:#6d6e71;stroke-width:.5;stroke-linecap:square" x1="38.68" y1="174.93" x2="40.8" y2="174.93"/><line style="fill:none;stroke:#6d6e71;stroke-width:.5;stroke-linecap:square" x1="38.68" y1="158.03" x2="40.8" y2="158.03"/><line style="fill:none;stroke:#6d6e71;stroke-width:.5;stroke-linecap:square" x1="38.68" y1="141.14" x2="40.8" y2="141.14"/><line style="fill:none;stroke:#6d6e71;stroke-width:.5;stroke-linecap:square" x1="38.68" y1="124.24" x2="40.8" y2="124.24"/><line style="fill:none;stroke:#6d6e71;stroke-width:.5;stroke-linecap:square" x1="38.68" y1="107.34" x2="40.8" y2="107.34"/><line style="fill:none;stroke:#6d6e71;stroke-width:.5;stroke-linecap:square" x1="38.68" y1="90.45" x2="40.8" y2="90.45"/><line style="fill:none;stroke:#6d6e71;stroke-width:.5;stroke-linecap:square" x1="38.68" y1="73.55" x2="40.8" y2="73.55"/><line style="fill:none;stroke:#6d6e71;stroke-width:.5;stroke-linecap:square" x1="38.68" y1="56.65" x2="40.8" y2="56.65"/><line style="fill:none;stroke:#6d6e71;stroke-width:.5;stroke-linecap:square" x1="38.68" y1="39.76" x2="40.8" y2="39.76"/><line style="fill:none;stroke:#6d6e71;stroke-width:.5;stroke-linecap:square" x1="38.68" y1="22.86" x2="40.8" y2="22.86"/><line style="fill:none;stroke:#6d6e71;stroke-width:.5;stroke-linecap:square" x1="38.68" y1="5.96" x2="40.8" y2="5.96"/><circle cx="135.6" cy="73.44" r="1.13"/><circle cx="135.6" cy="86.72" r="1.13"/><circle cx="158.84" cy="106.99" r="1.13"/></svg>