<svg version="1.1" xmlns="http://www.w3.org/2000/svg" x="0" y="0" viewBox="0 0 311.81 168.32" style="enable-background:new 0 0 311.81 168.32" xml:space="preserve"><line style="fill:none;stroke:#bcbec0;stroke-width:.5;stroke-linejoin:round" x1="36.19" y1="99.77" x2="310.78" y2="99.77"/><line style="fill:none;stroke:#bcbec0;stroke-width:.5;stroke-linejoin:round" x1="36.19" y1="76.74" x2="310.78" y2="76.74"/><line style="fill:none;stroke:#bcbec0;stroke-width:.5;stroke-linejoin:round" x1="36.19" y1="53.72" x2="310.78" y2="53.72"/><line style="fill:none;stroke:#bcbec0;stroke-width:.5;stroke-linejoin:round" x1="36.19" y1="7.67" x2="310.78" y2="7.67"/><line style="fill:none;stroke:#6d6e71;stroke-width:.5;stroke-linecap:square;stroke-linejoin:round" x1="35.9" y1="7.67" x2="33.78" y2="7.67"/><line style="fill:none;stroke:#6d6e71;stroke-width:.5;stroke-linecap:square;stroke-linejoin:round" x1="35.9" y1="30.69" x2="33.78" y2="30.69"/><line style="fill:none;stroke:#6d6e71;stroke-width:.5;stroke-linecap:square;stroke-linejoin:round" x1="35.9" y1="53.72" x2="33.78" y2="53.72"/><line style="fill:none;stroke:#6d6e71;stroke-width:.5;stroke-linecap:square;stroke-linejoin:round" x1="35.9" y1="76.74" x2="33.78" y2="76.74"/><line style="fill:none;stroke:#6d6e71;stroke-width:.5;stroke-linecap:square;stroke-linejoin:round" x1="35.9" y1="122.79" x2="33.78" y2="122.79"/><line style="fill:none;stroke:#6d6e71;stroke-width:.5;stroke-linecap:square;stroke-linejoin:round" x1="35.9" y1="145.82" x2="33.78" y2="145.82"/><text transform="rotate(-90 57.323 46.406)" style="font-family:'Asap-Medium';font-size:8px">Kim&apos;s pay-off ($)</text><text transform="translate(20.71 147.742)" style="font-family:'Asap-Regular';font-size:7px">–5</text><text transform="translate(24.843 124.938)" style="font-family:'Asap-Regular';font-size:7px">0</text><text transform="translate(24.843 101.913)" style="font-family:'Asap-Regular';font-size:7px">5</text><text transform="translate(21.098 78.888)" style="font-family:'Asap-Regular';font-size:7px">10</text><text transform="translate(21.098 55.863)" style="font-family:'Asap-Regular';font-size:7px">15</text><text transform="translate(21.098 9.592)" style="font-family:'Asap-Regular';font-size:7px">25</text><line style="fill:none;stroke:#6d6e71;stroke-width:.5;stroke-linecap:square;stroke-linejoin:round" x1="310.57" y1="146.32" x2="310.57" y2="148.44"/><line style="fill:none;stroke:#6d6e71;stroke-width:.5;stroke-linecap:square;stroke-linejoin:round" x1="242.14" y1="146.32" x2="242.14" y2="148.44"/><line style="fill:none;stroke:#6d6e71;stroke-width:.5;stroke-linecap:square;stroke-linejoin:round" x1="173.27" y1="146.32" x2="173.27" y2="148.44"/><line style="fill:none;stroke:#6d6e71;stroke-width:.5;stroke-linecap:square;stroke-linejoin:round" x1="104.84" y1="146.32" x2="104.84" y2="148.44"/><line style="fill:none;stroke:#6d6e71;stroke-width:.5;stroke-linecap:square;stroke-linejoin:round" x1="35.98" y1="146.32" x2="35.98" y2="148.44"/><line style="fill:none;stroke:#6d6e71;stroke-width:.5;stroke-linecap:square;stroke-linejoin:round" x1="35.98" y1="145.82" x2="310.57" y2="145.82"/><text transform="translate(122.59 164.844)" style="font-family:'Asap-Medium';font-size:8px">Number of other farmers contributing</text><text transform="translate(68.7 155.729)" style="font-family:'Asap-Regular';font-size:7px">0</text><text transform="translate(137.133 155.729)" style="font-family:'Asap-Regular';font-size:7px">1</text><text transform="translate(205.994 155.729)" style="font-family:'Asap-Regular';font-size:7px">2</text><text transform="translate(274.427 155.729)" style="font-family:'Asap-Regular';font-size:7px">3</text><text transform="translate(55.281 19.013)" style="font-family:'Asap-Regular';font-size:6px">Kim&apos;s pay-off if she contributes</text><text transform="translate(55.281 25.856)" style="font-family:'Asap-Regular';font-size:6px">Kim&apos;s pay-off if she does not contribute</text><rect x="50.74" y="123.06" style="fill:#3a53a4" width="19.67" height="7.27"/><rect x="119.6" y="95.02" style="fill:#3a53a4" width="19.67" height="27.77"/><rect x="188.03" y="59.77" style="fill:#3a53a4" width="19.67" height="63.02"/><rect x="207.71" y="46.3" style="fill:#ed2124" width="19.67" height="76.49"/><rect x="139.06" y="85.78" style="fill:#ed2124" width="19.67" height="37.01"/><rect x="45.6" y="14.16" style="fill:#3a53a4" width="5.13" height="5.13"/><rect x="45.6" y="21.16" style="fill:#ed2124" width="5.13" height="5.13"/><text transform="translate(56.874 136.742)" style="font-family:'Asap-Regular';font-size:6px">−2</text><text transform="translate(283.154 13.261)" style="font-family:'Asap-Regular';font-size:6px">24</text><text transform="translate(214.486 44.3)" style="font-family:'Asap-Regular';font-size:6px">16</text><text transform="translate(147.265 83.58)" style="font-family:'Asap-Regular';font-size:6px">8</text><text transform="translate(79.832 120.091)" style="font-family:'Asap-Regular';font-size:6px">0</text><text transform="translate(263.908 19.261)" style="font-family:'Asap-Regular';font-size:6px">22</text><text transform="translate(195.273 59.182)" style="font-family:'Asap-Regular';font-size:6px">14</text><text transform="translate(127.59 92.85)" style="font-family:'Asap-Regular';font-size:6px">6</text><line style="fill:none;stroke:#6d6e71;stroke-width:.5;stroke-linecap:square;stroke-linejoin:round" x1="35.91" y1="99.77" x2="33.78" y2="99.77"/><line style="fill:none;stroke:#bcbec0;stroke-width:.5;stroke-linejoin:round" x1="36.19" y1="30.69" x2="310.78" y2="30.69"/><text transform="translate(21.098 32.838)" style="font-family:'Asap-Regular';font-size:7px">20</text><rect x="256.68" y="22.28" style="fill:#3a53a4" width="19.67" height="100.51"/><rect x="276.14" y="15.03" style="fill:#ed2124" width="19.67" height="107.77"/><line style="fill:none;stroke:#6d6e71;stroke-width:.5;stroke-linecap:square;stroke-linejoin:round" x1="35.98" y1="122.79" x2="310.57" y2="122.79"/><line style="fill:none;stroke:#6d6e71;stroke-width:.5;stroke-linecap:square;stroke-linejoin:round" x1="35.98" y1="145.82" x2="35.98" y2="7.67"/></svg>