<svg version="1.1" xmlns="http://www.w3.org/2000/svg" x="0" y="0" viewBox="0 0 311.81 182" style="enable-background:new 0 0 311.81 182" xml:space="preserve"><path style="fill:#fff1e4" d="M46.74 12.36V67.8c35.49.07 70.98.13 106.48.2-35.49-18.55-70.99-37.1-106.48-55.64z"/><polygon style="fill:#d5daef" points="46.74 67.8 46.74 105.3 153.22 105.3 153.22 68"/><g><line style="fill:none;stroke:#6d6e71;stroke-width:.5;stroke-linecap:square;stroke-linejoin:round" x1="46.74" y1="5.3" x2="44.62" y2="5.3"/><line style="fill:none;stroke:#6d6e71;stroke-width:.5;stroke-linecap:square;stroke-linejoin:round" x1="46.74" y1="30.3" x2="44.62" y2="30.3"/><line style="fill:none;stroke:#6d6e71;stroke-width:.5;stroke-linecap:square;stroke-linejoin:round" x1="46.74" y1="55.3" x2="44.62" y2="55.3"/><line style="fill:none;stroke:#6d6e71;stroke-width:.5;stroke-linecap:square;stroke-linejoin:round" x1="46.74" y1="130.3" x2="44.62" y2="130.3"/><line style="fill:none;stroke:#6d6e71;stroke-width:.5;stroke-linecap:square;stroke-linejoin:round" x1="46.74" y1="155.3" x2="44.62" y2="155.3"/><line style="fill:none;stroke:#6d6e71;stroke-width:.5;stroke-linecap:square;stroke-linejoin:round" x1="259.7" y1="155.3" x2="259.7" y2="157.42"/><line style="fill:none;stroke:#6d6e71;stroke-width:.5;stroke-linecap:square;stroke-linejoin:round" x1="224.2" y1="155.3" x2="224.2" y2="157.42"/><line style="fill:none;stroke:#6d6e71;stroke-width:.5;stroke-linecap:square;stroke-linejoin:round" x1="188.71" y1="155.3" x2="188.71" y2="157.42"/><line style="fill:none;stroke:#6d6e71;stroke-width:.5;stroke-linecap:square;stroke-linejoin:round" x1="153.22" y1="155.3" x2="153.22" y2="157.42"/><line style="fill:none;stroke:#6d6e71;stroke-width:.5;stroke-linecap:square;stroke-linejoin:round" x1="117.73" y1="155.3" x2="117.73" y2="157.42"/><line style="fill:none;stroke:#6d6e71;stroke-width:.5;stroke-linecap:square;stroke-linejoin:round" x1="82.23" y1="155.3" x2="82.23" y2="157.42"/><line style="fill:none;stroke:#6d6e71;stroke-width:.5;stroke-linecap:square;stroke-linejoin:round" x1="46.74" y1="155.3" x2="46.74" y2="157.42"/><text transform="translate(131.527 179.143)"><tspan x="0" y="0" style="font-family:'Asap-Medium';font-size:8px">Number of listeners, </tspan><tspan x="73.13" y="0" style="font-family:'Asap-MediumItalic';font-size:8px">N</tspan></text><text transform="translate(44.87 166.676)" style="font-family:'Asap-Regular';font-size:7px">0</text><text transform="translate(74.052 166.676)" style="font-family:'Asap-Regular';font-size:7px">2,000</text><text transform="translate(109.544 166.676)" style="font-family:'Asap-Regular';font-size:7px">4,000</text><line style="fill:none;stroke:#6d6e71;stroke-width:.5;stroke-linecap:square;stroke-linejoin:round" x1="46.74" y1="105.3" x2="44.62" y2="105.3"/><line style="fill:none;stroke:#6d6e71;stroke-width:.5;stroke-linecap:square;stroke-linejoin:round" x1="46.74" y1="80.3" x2="44.62" y2="80.3"/><text transform="translate(145.037 166.676)" style="font-family:'Asap-Regular';font-size:7px">6,000</text><text transform="translate(180.529 166.676)" style="font-family:'Asap-Regular';font-size:7px">8,000</text><text transform="translate(214.149 166.676)" style="font-family:'Asap-Regular';font-size:7px">10,000</text><text transform="translate(249.641 166.676)" style="font-family:'Asap-Regular';font-size:7px">12,000</text><text transform="translate(285.135 166.676)" style="font-family:'Asap-Regular';font-size:7px">14,000</text><text transform="rotate(-90 52.061 40.889)"><tspan x="0" y="0" style="font-family:'Asap-Medium';font-size:8px">Price, </tspan><tspan x="21.3" y="0" style="font-family:'Asap-MediumItalic';font-size:8px">P</tspan><tspan x="25.86" y="0" style="font-family:'Asap-Medium';font-size:8px"> ($)</tspan></text><text transform="translate(37.388 107.444)" style="font-family:'Asap-Regular';font-size:7px">0</text><text transform="translate(37.262 82.445)" style="font-family:'Asap-Regular';font-size:7px">4</text><text transform="translate(36.905 57.446)" style="font-family:'Asap-Regular';font-size:7px">8</text><text transform="translate(33.517 32.446)" style="font-family:'Asap-Regular';font-size:7px">12</text><text transform="translate(33.517 7.446)" style="font-family:'Asap-Regular';font-size:7px">16</text><line style="fill:none;stroke:#3a53a4;stroke-width:.5;stroke-linecap:square" x1="47.18" y1="105.3" x2="295.19" y2="105.3"/><line style="stroke:#f15a27;stroke-width:.5;stroke-linecap:square;stroke-linejoin:round" x1="295.19" y1="141.6" x2="47.18" y2="12.36"/><line style="fill:none;stroke:#6d6e71;stroke-width:.5;stroke-linecap:square;stroke-linejoin:round" x1="295.19" y1="155.3" x2="295.19" y2="157.42"/><line style="fill:none;stroke:#6d6e71;stroke-width:.5;stroke-linecap:square;stroke-linejoin:round" x1="295.19" y1="155.3" x2="46.74" y2="155.3"/><text transform="translate(54.202 12.356)" style="font-family:'Asap-Regular';font-size:6px">Demand</text><line style="fill:none;stroke:#939598;stroke-width:.5;stroke-linecap:square" x1="46.96" y1="67.8" x2="294.97" y2="67.8"/><text transform="translate(54.784 49.228)"><tspan x="0" y="0" style="font-family:'Asap-Regular';font-size:6px">Benefit to</tspan><tspan x="0" y="7.2" style="font-family:'Asap-Regular';font-size:6px">listeners</tspan></text><text transform="translate(55.366 89.051)" style="font-family:'Asap-Regular';font-size:6px">Revenue</text><text transform="translate(78.051 116.415)" style="font-family:'Asap-Regular';font-size:6px">Marginal broadcasting cost</text><text transform="translate(168.584 97.682)" style="font-family:'Asap-Regular';font-size:6px">DWL</text><text transform="translate(231.156 65.51)"><tspan x="0" y="0" style="font-family:'Asap-Italic';font-size:6px">P</tspan><tspan x="3.42" y="0" style="font-family:'Asap-Regular';font-size:6px"> = 6</tspan></text><text transform="translate(222.124 114.636)" style="font-family:'Asap-Regular';font-size:6px">E</text><text transform="translate(33.361 156.924)" style="font-family:'Asap-Regular';font-size:7px">−8</text><text transform="translate(32.973 131.809)" style="font-family:'Asap-Regular';font-size:7px">−4</text><line style="fill:none;stroke:#6d6e71;stroke-width:.5;stroke-linecap:square;stroke-linejoin:round" x1="46.74" y1="155.3" x2="46.74" y2="5.3"/><path d="M225.53 106.43c-.62 0-1.13-.51-1.13-1.13 0-.62.51-1.13 1.13-1.13.62 0 1.13.51 1.13 1.13.01.62-.5 1.13-1.13 1.13z"/><line style="fill:none;stroke:#888;stroke-width:.5;stroke-miterlimit:10;stroke-dasharray:1.4173" x1="153.22" y1="68" x2="153.22" y2="154.3"/></g></svg>