<svg version="1.1" xmlns="http://www.w3.org/2000/svg" x="0" y="0" viewBox="0 0 311.81 355.55" style="enable-background:new 0 0 311.81 355.55" xml:space="preserve"><line style="fill:none;stroke:#6d6e71;stroke-width:.5;stroke-linecap:square;stroke-linejoin:round" x1="76.86" y1="179.78" x2="74.73" y2="179.78"/><line style="fill:none;stroke:#6d6e71;stroke-width:.5;stroke-linecap:square;stroke-linejoin:round" x1="76.86" y1="167.78" x2="74.73" y2="167.78"/><line style="fill:none;stroke:#6d6e71;stroke-width:.5;stroke-linecap:square;stroke-linejoin:round" x1="76.86" y1="155.78" x2="74.73" y2="155.78"/><line style="fill:none;stroke:#6d6e71;stroke-width:.5;stroke-linecap:square;stroke-linejoin:round" x1="76.86" y1="143.78" x2="74.73" y2="143.78"/><line style="fill:none;stroke:#6d6e71;stroke-width:.5;stroke-linecap:square;stroke-linejoin:round" x1="76.86" y1="131.78" x2="74.73" y2="131.78"/><line style="fill:none;stroke:#6d6e71;stroke-width:.5;stroke-linecap:square;stroke-linejoin:round" x1="76.86" y1="119.78" x2="74.73" y2="119.78"/><line style="fill:none;stroke:#6d6e71;stroke-width:.5;stroke-linecap:square;stroke-linejoin:round" x1="76.86" y1="107.78" x2="74.73" y2="107.78"/><line style="fill:none;stroke:#6d6e71;stroke-width:.5;stroke-linecap:square;stroke-linejoin:round" x1="76.86" y1="95.78" x2="74.73" y2="95.78"/><line style="fill:none;stroke:#6d6e71;stroke-width:.5;stroke-linecap:square;stroke-linejoin:round" x1="76.86" y1="83.78" x2="74.73" y2="83.78"/><line style="fill:none;stroke:#6d6e71;stroke-width:.5;stroke-linecap:square;stroke-linejoin:round" x1="76.86" y1="71.78" x2="74.73" y2="71.78"/><line style="fill:none;stroke:#6d6e71;stroke-width:.5;stroke-linecap:square;stroke-linejoin:round" x1="76.86" y1="35.78" x2="74.73" y2="35.78"/><line style="fill:none;stroke:#6d6e71;stroke-width:.5;stroke-linecap:square;stroke-linejoin:round" x1="76.86" y1="23.78" x2="74.73" y2="23.78"/><line style="fill:none;stroke:#6d6e71;stroke-width:.5;stroke-linecap:square;stroke-linejoin:round" x1="76.86" y1="59.78" x2="74.73" y2="59.78"/><line style="fill:none;stroke:#6d6e71;stroke-width:.5;stroke-linecap:square;stroke-linejoin:round" x1="76.86" y1="47.78" x2="74.73" y2="47.78"/><line style="fill:none;stroke:#6d6e71;stroke-width:.5;stroke-linecap:square;stroke-linejoin:round" x1="76.86" y1="11.78" x2="74.73" y2="11.78"/><line style="fill:none;stroke:#6d6e71;stroke-width:.5;stroke-linecap:square" x1="77.13" y1="179.9" x2="77.13" y2="182.03"/><line style="fill:none;stroke:#6d6e71;stroke-width:.5;stroke-linecap:square" x1="84.13" y1="179.9" x2="84.13" y2="182.03"/><line style="fill:none;stroke:#6d6e71;stroke-width:.5;stroke-linecap:square" x1="91.13" y1="179.9" x2="91.13" y2="182.03"/><line style="fill:none;stroke:#6d6e71;stroke-width:.5;stroke-linecap:square" x1="98.13" y1="179.9" x2="98.13" y2="182.03"/><line style="fill:none;stroke:#6d6e71;stroke-width:.5;stroke-linecap:square" x1="105.13" y1="179.9" x2="105.13" y2="182.03"/><line style="fill:none;stroke:#6d6e71;stroke-width:.5;stroke-linecap:square" x1="112.13" y1="179.9" x2="112.13" y2="182.03"/><line style="fill:none;stroke:#6d6e71;stroke-width:.5;stroke-linecap:square" x1="119.13" y1="179.9" x2="119.13" y2="182.03"/><line style="fill:none;stroke:#6d6e71;stroke-width:.5;stroke-linecap:square" x1="126.13" y1="179.9" x2="126.13" y2="182.03"/><line style="fill:none;stroke:#6d6e71;stroke-width:.5;stroke-linecap:square" x1="133.13" y1="179.9" x2="133.13" y2="182.03"/><line style="fill:none;stroke:#6d6e71;stroke-width:.5;stroke-linecap:square" x1="140.13" y1="179.9" x2="140.13" y2="182.03"/><line style="fill:none;stroke:#6d6e71;stroke-width:.5;stroke-linecap:square" x1="147.13" y1="179.9" x2="147.13" y2="182.03"/><line style="fill:none;stroke:#6d6e71;stroke-width:.5;stroke-linecap:square" x1="154.13" y1="179.9" x2="154.13" y2="182.03"/><line style="fill:none;stroke:#6d6e71;stroke-width:.5;stroke-linecap:square" x1="160.13" y1="179.9" x2="160.13" y2="182.03"/><line style="fill:none;stroke:#6d6e71;stroke-width:.5;stroke-linecap:square" x1="167.13" y1="179.9" x2="167.13" y2="182.03"/><line style="fill:none;stroke:#6d6e71;stroke-width:.5;stroke-linecap:square" x1="174.13" y1="179.9" x2="174.13" y2="182.03"/><line style="fill:none;stroke:#6d6e71;stroke-width:.5;stroke-linecap:square" x1="181.13" y1="179.9" x2="181.13" y2="182.03"/><line style="fill:none;stroke:#6d6e71;stroke-width:.5;stroke-linecap:square" x1="188.13" y1="179.9" x2="188.13" y2="182.03"/><line style="fill:none;stroke:#6d6e71;stroke-width:.5;stroke-linecap:square" x1="195.13" y1="179.9" x2="195.13" y2="182.03"/><line style="fill:none;stroke:#6d6e71;stroke-width:.5;stroke-linecap:square" x1="202.13" y1="179.9" x2="202.13" y2="182.03"/><line style="fill:none;stroke:#6d6e71;stroke-width:.5;stroke-linecap:square" x1="209.13" y1="179.9" x2="209.13" y2="182.03"/><line style="fill:none;stroke:#6d6e71;stroke-width:.5;stroke-linecap:square" x1="216.13" y1="179.9" x2="216.13" y2="182.03"/><line style="fill:none;stroke:#6d6e71;stroke-width:.5;stroke-linecap:square" x1="223.13" y1="179.9" x2="223.13" y2="182.03"/><line style="fill:none;stroke:#6d6e71;stroke-width:.5;stroke-linecap:square" x1="230.13" y1="179.9" x2="230.13" y2="182.03"/><line style="fill:none;stroke:#6d6e71;stroke-width:.5;stroke-linecap:square" x1="237.13" y1="179.9" x2="237.13" y2="182.03"/><line style="fill:none;stroke:#6d6e71;stroke-width:.5;stroke-linecap:square" x1="244.13" y1="179.9" x2="244.13" y2="182.03"/><text transform="translate(68.864 182.026)" style="font-family:'Asap-Regular';font-size:7px">0</text><text transform="translate(75.25 189.383)" style="font-family:'Asap-Regular';font-size:7px">0</text><text transform="translate(65.374 158.14)" style="font-family:'Asap-Regular';font-size:7px">10</text><text transform="translate(65.654 133.553)" style="font-family:'Asap-Regular';font-size:7px">20</text><text transform="translate(66.01 110.08)" style="font-family:'Asap-Regular';font-size:7px">30</text><text transform="translate(66.01 85.636)" style="font-family:'Asap-Regular';font-size:7px">40</text><text transform="translate(66.291 62.494)" style="font-family:'Asap-Regular';font-size:7px">50</text><text transform="translate(66.01 37.425)" style="font-family:'Asap-Regular';font-size:7px">60</text><text transform="translate(66.01 13.858)" style="font-family:'Asap-Regular';font-size:7px">70</text><text transform="translate(102.411 189.383)" style="font-family:'Asap-Regular';font-size:7px">4</text><text transform="translate(131.22 189.383)" style="font-family:'Asap-Regular';font-size:7px">8</text><text transform="translate(156.383 189.383)" style="font-family:'Asap-Regular';font-size:7px">12</text><text transform="translate(184.325 189.383)" style="font-family:'Asap-Regular';font-size:7px">16</text><text transform="translate(212.325 189.382)" style="font-family:'Asap-Regular';font-size:7px">20</text><text transform="translate(240.325 189.383)" style="font-family:'Asap-Regular';font-size:7px">24</text><text transform="matrix(0 -.9726 1 0 53.72 119.028)" style="font-family:'Asap-Medium';font-size:8px">Bushels of grain</text><text transform="translate(119.722 201.357)" style="font-family:'Asap-Medium';font-size:8px">Angela’s hours of free time</text><path style="fill:none;stroke:#6d6e71;stroke-width:.5;stroke-linecap:square;stroke-linejoin:round" d="M77.13 11.78v167.81"/><text transform="translate(80.404 40.805)" style="font-family:'Asap-Regular';font-size:6px">Feasible frontier</text><text transform="translate(249.334 173.227)" style="font-family:'Asap-Regular';font-size:7px">IC</text><text transform="matrix(.583 0 0 .583 255.648 175.559)" style="font-family:'Asap-Regular';font-size:7px">1</text><path style="fill:none;stroke:#f49323;stroke-width:.5;stroke-linecap:square;stroke-linejoin:round" d="M244.13 179.78c-1.76-17.37-8.03-54.42-35.69-89.31C161.1 30.74 89.61 25.94 77.68 25.33"/><line style="fill:none;stroke:#6d6e71;stroke-width:.5;stroke-linecap:square" x1="77.13" y1="179.78" x2="244.13" y2="179.78"/><path style="fill:none;stroke:#253b71;stroke-width:.5;stroke-miterlimit:10" d="M118.56 12.21c6.41 23.33 13.7 42.1 19.56 55.56 7.7 17.72 13.39 30.6 24.44 46 7.24 10.09 16.97 23.42 34 35.78 17.31 12.56 34.65 18.67 47.56 21.78"/><line style="fill:none;stroke:#939598;stroke-width:.5;stroke-linecap:square;stroke-linejoin:round;stroke-dasharray:1.4173" x1="160.13" y1="179.25" x2="160.13" y2="49.32"/><line style="fill:none;stroke:#939598;stroke-width:.5;stroke-linecap:square;stroke-linejoin:round" x1="155.91" y1="50.1" x2="155.91" y2="99.94"/><polygon style="fill:#939598" points="153.86 51.75 154.23 52.1 155.91 50.29 157.58 52.1 157.95 51.75 155.91 49.56"/><polygon style="fill:#939598" points="153.86 98.28 154.23 97.94 155.91 99.75 157.58 97.94 157.95 98.28 155.91 100.48"/><line style="fill:none;stroke:#939598;stroke-width:.5;stroke-linecap:square;stroke-linejoin:round" x1="156.13" y1="110.09" x2="156.13" y2="178.23"/><polygon style="fill:#939598" points="154.08 111.75 154.45 112.09 156.13 110.28 157.8 112.09 158.17 111.75 156.13 109.55"/><polygon style="fill:#939598" points="154.08 176.57 154.45 176.23 156.13 178.04 157.8 176.23 158.17 176.57 156.13 178.77"/><text transform="translate(163.439 86.631)"><tspan x="0" y="0" style="font-family:'Asap-Regular';font-size:6px">Bruno’s</tspan><tspan x="0" y="7.2" style="font-family:'Asap-Regular';font-size:6px">share</tspan></text><text transform="translate(162.21 159.715)"><tspan x="0" y="0" style="font-family:'Asap-Regular';font-size:6px">Angela’s</tspan><tspan x="0" y="7.2" style="font-family:'Asap-Regular';font-size:6px">share</tspan></text><line style="fill:none;stroke:#939598;stroke-width:.5;stroke-linecap:square;stroke-linejoin:round;stroke-dasharray:1.4173" x1="215.87" y1="259.49" x2="76.87" y2="259.49"/><line style="fill:none;stroke:#939598;stroke-width:.5;stroke-linecap:square;stroke-linejoin:round;stroke-dasharray:1.4173" x1="159.87" y1="321.02" x2="159.87" y2="258.9"/><line style="fill:none;stroke:#939598;stroke-width:.5;stroke-linecap:square;stroke-linejoin:round;stroke-dasharray:1.4173" x1="217.35" y1="179.05" x2="217.35" y2="103.03"/><line style="fill:none;stroke:#939598;stroke-width:.5;stroke-linecap:square;stroke-linejoin:round" x1="214.39" y1="103.58" x2="214.39" y2="156.88"/><polygon style="fill:#939598" points="212.34 105.23 212.71 105.57 214.39 103.77 216.07 105.57 216.43 105.23 214.39 103.03"/><polygon style="fill:#939598" points="212.34 155.23 212.71 154.89 214.39 156.69 216.07 154.89 216.43 155.23 214.39 157.43"/><line style="fill:none;stroke:#939598;stroke-width:.5;stroke-linecap:square;stroke-linejoin:round;stroke-dasharray:1.4173" x1="188.13" y1="179.66" x2="188.13" y2="69.14"/><line style="fill:none;stroke:#939598;stroke-width:.5;stroke-linecap:square;stroke-linejoin:round" x1="185.44" y1="72.2" x2="185.44" y2="136.22"/><polygon style="fill:#939598" points="183.4 73.85 183.77 74.2 185.44 72.39 187.12 74.2 187.49 73.85 185.44 71.66"/><polygon style="fill:#939598" points="183.4 134.56 183.77 134.22 185.44 136.02 187.12 134.22 187.49 134.56 185.44 136.76"/><line style="fill:none;stroke:#939598;stroke-width:.5;stroke-linecap:square;stroke-linejoin:round" x1="214.39" y1="162.07" x2="214.39" y2="178.58"/><polygon style="fill:#939598" points="212.34 163.72 212.71 164.06 214.39 162.26 216.07 164.06 216.43 163.72 214.39 161.52"/><polygon style="fill:#939598" points="212.34 176.93 212.71 176.58 214.39 178.39 216.07 176.58 216.43 176.93 214.39 179.12"/><line style="fill:none;stroke:#939598;stroke-width:.5;stroke-linecap:square;stroke-linejoin:round" x1="185.44" y1="145.53" x2="185.44" y2="176.44"/><polygon style="fill:#939598" points="183.4 147.19 183.77 147.53 185.44 145.72 187.12 147.53 187.49 147.19 185.44 144.99"/><polygon style="fill:#939598" points="183.4 174.79 183.77 174.45 185.44 176.25 187.12 174.45 187.49 174.79 185.44 176.99"/><line style="fill:none;stroke:#939598;stroke-width:.5;stroke-linecap:square;stroke-linejoin:round;stroke-dasharray:1.4173" x1="187.87" y1="321.02" x2="187.87" y2="247.35"/><line style="fill:none;stroke:#939598;stroke-width:.5;stroke-linecap:square;stroke-linejoin:round;stroke-dasharray:1.4173" x1="215.87" y1="321.02" x2="215.87" y2="258.9"/><line style="fill:none;stroke:#939598;stroke-width:.5;stroke-linecap:square;stroke-linejoin:round;stroke-dasharray:1.4173" x1="187.87" y1="247.8" x2="76.87" y2="247.8"/><line style="fill:none;stroke:#6d6e71;stroke-width:.5;stroke-linecap:square;stroke-linejoin:round" x1="76.6" y1="321.99" x2="74.47" y2="321.99"/><line style="fill:none;stroke:#6d6e71;stroke-width:.5;stroke-linecap:square;stroke-linejoin:round" x1="76.6" y1="309.99" x2="74.47" y2="309.99"/><line style="fill:none;stroke:#6d6e71;stroke-width:.5;stroke-linecap:square;stroke-linejoin:round" x1="76.6" y1="297.99" x2="74.47" y2="297.99"/><line style="fill:none;stroke:#6d6e71;stroke-width:.5;stroke-linecap:square;stroke-linejoin:round" x1="76.6" y1="285.99" x2="74.47" y2="285.99"/><line style="fill:none;stroke:#6d6e71;stroke-width:.5;stroke-linecap:square;stroke-linejoin:round" x1="76.6" y1="273.99" x2="74.47" y2="273.99"/><line style="fill:none;stroke:#6d6e71;stroke-width:.5;stroke-linecap:square;stroke-linejoin:round" x1="76.6" y1="261.99" x2="74.47" y2="261.99"/><line style="fill:none;stroke:#6d6e71;stroke-width:.5;stroke-linecap:square;stroke-linejoin:round" x1="76.6" y1="249.99" x2="74.47" y2="249.99"/><line style="fill:none;stroke:#6d6e71;stroke-width:.5;stroke-linecap:square;stroke-linejoin:round" x1="76.6" y1="237.99" x2="74.47" y2="237.99"/><line style="fill:none;stroke:#6d6e71;stroke-width:.5;stroke-linecap:square;stroke-linejoin:round" x1="76.6" y1="225.99" x2="74.47" y2="225.99"/><line style="fill:none;stroke:#6d6e71;stroke-width:.5;stroke-linecap:square" x1="76.87" y1="322.11" x2="76.87" y2="324.24"/><line style="fill:none;stroke:#6d6e71;stroke-width:.5;stroke-linecap:square" x1="104.87" y1="322.11" x2="104.87" y2="324.24"/><line style="fill:none;stroke:#6d6e71;stroke-width:.5;stroke-linecap:square" x1="132.87" y1="322.11" x2="132.87" y2="324.24"/><line style="fill:none;stroke:#6d6e71;stroke-width:.5;stroke-linecap:square" x1="159.87" y1="322.11" x2="159.87" y2="324.24"/><line style="fill:none;stroke:#6d6e71;stroke-width:.5;stroke-linecap:square" x1="187.87" y1="322.11" x2="187.87" y2="324.24"/><line style="fill:none;stroke:#6d6e71;stroke-width:.5;stroke-linecap:square" x1="215.87" y1="322.11" x2="215.87" y2="324.24"/><line style="fill:none;stroke:#6d6e71;stroke-width:.5;stroke-linecap:square" x1="243.87" y1="322.11" x2="243.87" y2="324.24"/><text transform="translate(68.607 324.237)" style="font-family:'Asap-Regular';font-size:7px">0</text><text transform="translate(74.993 331.594)" style="font-family:'Asap-Regular';font-size:7px">0</text><text transform="translate(65.117 300.35)" style="font-family:'Asap-Regular';font-size:7px">10</text><text transform="translate(65.397 275.764)" style="font-family:'Asap-Regular';font-size:7px">20</text><text transform="translate(65.754 252.29)" style="font-family:'Asap-Regular';font-size:7px">30</text><text transform="translate(65.754 227.846)" style="font-family:'Asap-Regular';font-size:7px">40</text><text transform="translate(102.154 331.594)" style="font-family:'Asap-Regular';font-size:7px">4</text><text transform="translate(130.962 331.594)" style="font-family:'Asap-Regular';font-size:7px">8</text><text transform="translate(156.126 331.594)" style="font-family:'Asap-Regular';font-size:7px">12</text><text transform="translate(184.068 331.594)" style="font-family:'Asap-Regular';font-size:7px">16</text><text transform="translate(212.068 331.593)" style="font-family:'Asap-Regular';font-size:7px">20</text><text transform="translate(240.068 331.594)" style="font-family:'Asap-Regular';font-size:7px">24</text><text transform="matrix(0 -.9726 1 0 55.416 314.794)" style="font-family:'Asap-Medium';font-size:8px">Bruno’s bushels of grain</text><text transform="translate(119.465 343.567)" style="font-family:'Asap-Medium';font-size:8px">Angela’s hours of free time</text><path style="fill:none;stroke:#6d6e71;stroke-width:.5;stroke-linecap:square;stroke-linejoin:round" d="M76.87 225.99v95.81"/><text transform="translate(65.753 288.278)" style="font-family:'Asap-Regular';font-size:7px">15</text><text transform="translate(65.654 264.433)" style="font-family:'Asap-Regular';font-size:7px">25</text><text transform="translate(65.753 240.18)" style="font-family:'Asap-Regular';font-size:7px">35</text><text transform="translate(68.864 311.99)" style="font-family:'Asap-Regular';font-size:7px">5</text><path style="fill:none;stroke:#3a53a4;stroke-width:.5;stroke-linecap:square;stroke-linejoin:round;stroke-miterlimit:10" d="M124.59 321.39c1.44-3.8 3.56-9.14 6.4-15.4 4.34-9.6 8.39-18.56 14.58-27.66 7.86-11.56 15.85-23.32 30.34-28.1 0 0 10.56-3.49 21.57-1.35 22.41 4.36 41.07 33.88 46.4 73.1"/><line style="fill:none;stroke:#6d6e71;stroke-width:.5;stroke-linecap:square" x1="76.87" y1="321.99" x2="243.87" y2="321.99"/></svg>