<svg version="1.1" xmlns="http://www.w3.org/2000/svg" x="0" y="0" viewBox="0 0 311.81 197.84" style="enable-background:new 0 0 311.81 197.84" xml:space="preserve"><switch><g><polyline style="fill:none;stroke:#939598;stroke-width:.5;stroke-linejoin:round;stroke-dasharray:1.4173" points="38.49 116.76 195.81 116.76 195.81 167.28"/><path style="fill:none;stroke:#3a53a4;stroke-width:.5;stroke-linejoin:round" d="M39.02 134.85c94.85-9.6 181.16-50.15 255.38-101.83"/><text transform="rotate(-90 58.225 47.56)"><tspan x="0" y="0" style="font-family:'Asap-Medium';font-size:8px">Price, </tspan><tspan x="21.3" y="0" style="font-family:'Asap-MediumItalic';font-size:8px">P</tspan><tspan x="25.86" y="0" style="font-family:'Asap-Medium';font-size:8px"> (€</tspan><tspan x="34.83" y="0" style="font-family:'Asap-Regular';font-size:8px">)</tspan></text><line style="fill:none;stroke:#6d6e71;stroke-width:.5;stroke-linecap:square;stroke-linejoin:round" x1="296" y1="167.96" x2="296" y2="170.09"/><line style="fill:none;stroke:#6d6e71;stroke-width:.5;stroke-linecap:square;stroke-linejoin:round" x1="270.69" y1="167.96" x2="270.69" y2="170.09"/><line style="fill:none;stroke:#6d6e71;stroke-width:.5;stroke-linecap:square;stroke-linejoin:round" x1="244.88" y1="167.96" x2="244.88" y2="170.09"/><line style="fill:none;stroke:#6d6e71;stroke-width:.5;stroke-linecap:square;stroke-linejoin:round" x1="219.08" y1="167.96" x2="219.08" y2="170.09"/><line style="fill:none;stroke:#6d6e71;stroke-width:.5;stroke-linecap:square;stroke-linejoin:round" x1="193.27" y1="167.96" x2="193.27" y2="170.09"/><line style="fill:none;stroke:#6d6e71;stroke-width:.5;stroke-linecap:square;stroke-linejoin:round" x1="167.47" y1="167.96" x2="167.47" y2="170.09"/><line style="fill:none;stroke:#6d6e71;stroke-width:.5;stroke-linecap:square;stroke-linejoin:round" x1="141.66" y1="167.96" x2="141.66" y2="170.09"/><line style="fill:none;stroke:#6d6e71;stroke-width:.5;stroke-linecap:square;stroke-linejoin:round" x1="116.35" y1="167.96" x2="116.35" y2="170.09"/><line style="fill:none;stroke:#6d6e71;stroke-width:.5;stroke-linecap:square;stroke-linejoin:round" x1="90.55" y1="167.96" x2="90.55" y2="170.09"/><line style="fill:none;stroke:#6d6e71;stroke-width:.5;stroke-linecap:square;stroke-linejoin:round" x1="64.75" y1="167.96" x2="64.75" y2="170.09"/><line style="fill:none;stroke:#6d6e71;stroke-width:.5;stroke-linecap:square;stroke-linejoin:round" x1="38.94" y1="167.96" x2="38.94" y2="170.09"/><line style="fill:none;stroke:#6d6e71;stroke-width:.5;stroke-linecap:square;stroke-linejoin:round" x1="38.94" y1="167.53" x2="296" y2="167.53"/><text transform="translate(135.122 195.075)"><tspan x="0" y="0" style="font-family:'Asap-Medium';font-size:8px">Quantity of loaves, </tspan><tspan x="67.84" y="0" style="font-family:'Asap-MediumItalic';font-size:8px">Q</tspan></text><text transform="translate(36.706 179.684)" style="font-family:'Asap-Regular';font-size:7px">0</text><text transform="translate(55.068 179.684)" style="font-family:'Asap-Regular';font-size:7px">1,000</text><text transform="translate(80.873 179.684)" style="font-family:'Asap-Regular';font-size:7px">2,000</text><text transform="translate(106.678 179.684)" style="font-family:'Asap-Regular';font-size:7px">3,000</text><text transform="translate(132.482 179.684)" style="font-family:'Asap-Regular';font-size:7px">4,000</text><text transform="translate(158.287 179.684)" style="font-family:'Asap-Regular';font-size:7px">5,000</text><text transform="translate(183.596 179.684)" style="font-family:'Asap-Regular';font-size:7px">6,000</text><text transform="translate(209.402 179.684)" style="font-family:'Asap-Regular';font-size:7px">7,000</text><text transform="translate(235.206 179.684)" style="font-family:'Asap-Regular';font-size:7px">8,000</text><text transform="translate(261.01 179.684)" style="font-family:'Asap-Regular';font-size:7px">9,000</text><text transform="translate(284.83 179.684)" style="font-family:'Asap-Regular';font-size:7px">10,000</text><path style="fill:none;stroke:#ed2124;stroke-width:.5;stroke-linejoin:round" d="M39.02 13.82C114.92 80.4 202.99 126.44 296 156.54"/><text transform="translate(236.444 31.448)" style="fill:#231f20;font-family:'Asap-Regular';font-size:6px">Original supply (MC)</text><text transform="translate(268.01 142.837)" style="fill:#231f20;font-family:'Asap-Regular';font-size:6px">Demand</text><line style="fill:none;stroke:#6d6e71;stroke-width:.5;stroke-linecap:square;stroke-linejoin:round" x1="38.51" y1="4.76" x2="36.38" y2="4.76"/><line style="fill:none;stroke:#6d6e71;stroke-width:.5;stroke-linecap:square;stroke-linejoin:round" x1="38.51" y1="37.31" x2="36.38" y2="37.31"/><line style="fill:none;stroke:#6d6e71;stroke-width:.5;stroke-linecap:square;stroke-linejoin:round" x1="38.51" y1="69.86" x2="36.38" y2="69.86"/><line style="fill:none;stroke:#6d6e71;stroke-width:.5;stroke-linecap:square;stroke-linejoin:round" x1="38.51" y1="167.53" x2="36.38" y2="167.53"/><line style="fill:none;stroke:#6d6e71;stroke-width:.5;stroke-linecap:square;stroke-linejoin:round" x1="38.51" y1="134.97" x2="36.38" y2="134.97"/><line style="fill:none;stroke:#6d6e71;stroke-width:.5;stroke-linecap:square;stroke-linejoin:round" x1="38.51" y1="102.42" x2="36.38" y2="102.42"/><polyline style="fill:none;stroke:#939598;stroke-width:.5;stroke-linejoin:round;stroke-dasharray:1.4173" points="38.51 102.42 167.47 102.42 167.47 167.28"/><circle cx="167.47" cy="102.42" r="1.13"/><text transform="translate(25.051 7.486)" style="font-family:'Asap-Regular';font-size:7px">5</text><text transform="translate(25.051 39.886)" style="font-family:'Asap-Regular';font-size:7px">4</text><text transform="translate(25.051 72.286)" style="font-family:'Asap-Regular';font-size:7px">3</text><text transform="translate(25.051 104.686)" style="font-family:'Asap-Regular';font-size:7px">2</text><text transform="translate(25.051 137.086)" style="font-family:'Asap-Regular';font-size:7px">1</text><text transform="translate(25.051 169.486)" style="font-family:'Asap-Regular';font-size:7px">0</text><line style="fill:none;stroke:#6d6e71;stroke-width:.5;stroke-linecap:square;stroke-linejoin:round" x1="38.94" y1="167.53" x2="38.94" y2="4.76"/><text transform="translate(245.846 108.598)" style="fill:#231f20;font-family:'Asap-Regular';font-size:6px">New supply (MC)</text><g><path style="fill:none;stroke:#3a53a4;stroke-width:.5;stroke-linejoin:round" d="M38.65 145.12c94.85-6.11 181.16-31.9 255.38-64.78"/></g><circle cx="195.81" cy="116.76" r="1.13"/><text transform="translate(165.74 97.773)" style="fill:#231f20;font-family:'Asap-Regular';font-size:6px">A</text><text transform="translate(194.079 112.598)" style="fill:#231f20;font-family:'Asap-Regular';font-size:6px">B</text><g><line style="fill:none;stroke:#939598;stroke-width:.5;stroke-linecap:square;stroke-linejoin:round" x1="229.45" y1="80.34" x2="273.84" y2="80.34"/><polygon style="fill:#939598" points="272.18 82.38 271.84 82.02 273.65 80.34 271.84 78.66 272.18 78.29 274.38 80.34"/></g></g></switch></svg>