<svg version="1.1" xmlns="http://www.w3.org/2000/svg" x="0" y="0" viewBox="0 0 311.81 77.63" style="enable-background:new 0 0 311.81 77.63" xml:space="preserve"><text transform="translate(10.011 58.476)"><tspan x="0" y="0" style="font-family:'Asap-Regular';font-size:6px">L</tspan><tspan x="2.93" y="0" style="font-family:'Asap-Regular';font-size:6px">i</tspan><tspan x="4.54" y="0" style="font-family:'Asap-Regular';font-size:6px">v</tspan><tspan x="7.46" y="0" style="font-family:'Asap-Regular';font-size:6px">in</tspan><tspan x="12.43" y="0" style="font-family:'Asap-Regular';font-size:6px">g</tspan><tspan x="15.73" y="0" style="font-family:'Asap-Regular';font-size:6px"> </tspan><tspan x="17.12" y="0" style="font-family:'Asap-Regular';font-size:6px">st</tspan><tspan x="21.66" y="0" style="font-family:'Asap-Regular';font-size:6px">a</tspan><tspan x="24.91" y="0" style="font-family:'Asap-Regular';font-size:6px">n</tspan><tspan x="28.27" y="0" style="font-family:'Asap-Regular';font-size:6px">d</tspan><tspan x="31.69" y="0" style="font-family:'Asap-Regular';font-size:6px">a</tspan><tspan x="34.94" y="0" style="font-family:'Asap-Regular';font-size:6px">r</tspan><tspan x="37.15" y="0" style="font-family:'Asap-Regular';font-size:6px">d</tspan><tspan x="40.57" y="0" style="font-family:'Asap-Regular';font-size:6px">s</tspan><tspan x="43.05" y="0" style="font-family:'Asap-Regular';font-size:6px"> </tspan><tspan x="44.32" y="0" style="font-family:'Asap-Regular';font-size:6px">a</tspan><tspan x="47.57" y="0" style="font-family:'Asap-Regular';font-size:6px">r</tspan><tspan x="49.78" y="0" style="font-family:'Asap-Regular';font-size:6px">e</tspan><tspan x="53.04" y="0" style="font-family:'Asap-Regular';font-size:6px"> </tspan><tspan x="54.42" y="0" style="font-family:'Asap-Regular';font-size:6px">l</tspan><tspan x="56.24" y="0" style="font-family:'Asap-Regular';font-size:6px">o</tspan><tspan x="59.64" y="0" style="font-family:'Asap-Regular';font-size:6px">w</tspan><tspan x="64.14" y="0" style="font-family:'Asap-Regular';font-size:6px">.</tspan><tspan x="3.68" y="7.2" style="font-family:'Asap-Regular';font-size:6px">Tec</tspan><tspan x="13.19" y="7.2" style="font-family:'Asap-Regular';font-size:6px">h</tspan><tspan x="16.56" y="7.2" style="font-family:'Asap-Regular';font-size:6px">n</tspan><tspan x="19.92" y="7.2" style="font-family:'Asap-Regular';font-size:6px">o</tspan><tspan x="23.33" y="7.2" style="font-family:'Asap-Regular';font-size:6px">l</tspan><tspan x="25.14" y="7.2" style="font-family:'Asap-Regular';font-size:6px">o</tspan><tspan x="28.55" y="7.2" style="font-family:'Asap-Regular';font-size:6px">g</tspan><tspan x="31.85" y="7.2" style="font-family:'Asap-Regular';font-size:6px">y</tspan><tspan x="34.75" y="7.2" style="font-family:'Asap-Regular';font-size:6px"> </tspan><tspan x="36.02" y="7.2" style="font-family:'Asap-Regular';font-size:6px">i</tspan><tspan x="37.62" y="7.2" style="font-family:'Asap-Regular';font-size:6px">m</tspan><tspan x="42.72" y="7.2" style="font-family:'Asap-Regular';font-size:6px">p</tspan><tspan x="46.19" y="7.2" style="font-family:'Asap-Regular';font-size:6px">r</tspan><tspan x="48.4" y="7.2" style="font-family:'Asap-Regular';font-size:6px">o</tspan><tspan x="51.8" y="7.2" style="font-family:'Asap-Regular';font-size:6px">v</tspan><tspan x="54.73" y="7.2" style="font-family:'Asap-Regular';font-size:6px">e</tspan><tspan x="57.98" y="7.2" style="font-family:'Asap-Regular';font-size:6px">s.</tspan></text><rect x="3.49" y="3.98" style="fill-rule:evenodd;clip-rule:evenodd;fill:none" width="306.14" height="72.21"/><rect x="3.49" y="3.98" style="fill-rule:evenodd;clip-rule:evenodd;fill:none" width="306.14" height="72.21"/><text transform="translate(22.446 15.396)"><tspan x="0" y="0" style="font-family:'Asap-Regular';font-size:6px">A</tspan><tspan x="3.66" y="0" style="font-family:'Asap-Regular';font-size:6px">v</tspan><tspan x="6.58" y="0" style="font-family:'Asap-Regular';font-size:6px">e</tspan><tspan x="9.84" y="0" style="font-family:'Asap-Regular';font-size:6px">r</tspan><tspan x="12.05" y="0" style="font-family:'Asap-Regular';font-size:6px">a</tspan><tspan x="15.3" y="0" style="font-family:'Asap-Regular';font-size:6px">g</tspan><tspan x="18.61" y="0" style="font-family:'Asap-Regular';font-size:6px">e</tspan><tspan x="21.87" y="0" style="font-family:'Asap-Regular';font-size:6px"> </tspan><tspan x="23.19" y="0" style="font-family:'Asap-Regular';font-size:6px">o</tspan><tspan x="26.6" y="0" style="font-family:'Asap-Regular';font-size:6px">u</tspan><tspan x="29.92" y="0" style="font-family:'Asap-Regular';font-size:6px">t</tspan><tspan x="31.98" y="0" style="font-family:'Asap-Regular';font-size:6px">p</tspan><tspan x="35.45" y="0" style="font-family:'Asap-Regular';font-size:6px">u</tspan><tspan x="38.77" y="0" style="font-family:'Asap-Regular';font-size:6px">t</tspan><tspan x="0" y="7.2" style="font-family:'Asap-Regular';font-size:6px">p</tspan><tspan x="3.47" y="7.2" style="font-family:'Asap-Regular';font-size:6px">e</tspan><tspan x="6.73" y="7.2" style="font-family:'Asap-Regular';font-size:6px">r</tspan><tspan x="8.93" y="7.2" style="font-family:'Asap-Regular';font-size:6px"> </tspan><tspan x="10.26" y="7.2" style="font-family:'Asap-Regular';font-size:6px">f</tspan><tspan x="12.21" y="7.2" style="font-family:'Asap-Regular';font-size:6px">a</tspan><tspan x="15.46" y="7.2" style="font-family:'Asap-Regular';font-size:6px">r</tspan><tspan x="17.67" y="7.2" style="font-family:'Asap-Regular';font-size:6px">m</tspan><tspan x="22.76" y="7.2" style="font-family:'Asap-Regular';font-size:6px">e</tspan><tspan x="26.02" y="7.2" style="font-family:'Asap-Regular';font-size:6px">r</tspan><tspan x="28.23" y="7.2" style="font-family:'Asap-Regular';font-size:6px"> </tspan><tspan x="29.61" y="7.2" style="font-family:'Asap-Regular';font-size:6px">ri</tspan><tspan x="33.43" y="7.2" style="font-family:'Asap-Regular';font-size:6px">s</tspan><tspan x="35.91" y="7.2" style="font-family:'Asap-Regular';font-size:6px">e</tspan><tspan x="39.17" y="7.2" style="font-family:'Asap-Regular';font-size:6px">s</tspan></text><rect x="3.49" y="3.98" style="fill-rule:evenodd;clip-rule:evenodd;fill:none" width="306.14" height="72.21"/><rect x="3.49" y="3.98" style="fill-rule:evenodd;clip-rule:evenodd;fill:none" width="306.14" height="72.21"/><text transform="translate(95.388 19.908)"><tspan x="0" y="0" style="font-family:'Asap-Regular';font-size:6px">P</tspan><tspan x="3.44" y="0" style="font-family:'Asap-Regular';font-size:6px">o</tspan><tspan x="6.85" y="0" style="font-family:'Asap-Regular';font-size:6px">p</tspan><tspan x="10.31" y="0" style="font-family:'Asap-Regular';font-size:6px">u</tspan><tspan x="13.64" y="0" style="font-family:'Asap-Regular';font-size:6px">l</tspan><tspan x="15.45" y="0" style="font-family:'Asap-Regular';font-size:6px">a</tspan><tspan x="18.7" y="0" style="font-family:'Asap-Regular';font-size:6px">t</tspan><tspan x="20.76" y="0" style="font-family:'Asap-Regular';font-size:6px">i</tspan><tspan x="22.37" y="0" style="font-family:'Asap-Regular';font-size:6px">o</tspan><tspan x="25.78" y="0" style="font-family:'Asap-Regular';font-size:6px">n</tspan><tspan x="29.14" y="0" style="font-family:'Asap-Regular';font-size:6px"> </tspan><tspan x="30.46" y="0" style="font-family:'Asap-Regular';font-size:6px">r</tspan><tspan x="32.67" y="0" style="font-family:'Asap-Regular';font-size:6px">i</tspan><tspan x="34.28" y="0" style="font-family:'Asap-Regular';font-size:6px">s</tspan><tspan x="36.76" y="0" style="font-family:'Asap-Regular';font-size:6px">e</tspan><tspan x="40.02" y="0" style="font-family:'Asap-Regular';font-size:6px">s</tspan></text><rect x="3.49" y="3.98" style="fill-rule:evenodd;clip-rule:evenodd;fill:none" width="306.14" height="72.21"/><text transform="translate(240.504 15.972)"><tspan x="0" y="0" style="font-family:'Asap-Regular';font-size:6px">A</tspan><tspan x="3.66" y="0" style="font-family:'Asap-Regular';font-size:6px">v</tspan><tspan x="6.58" y="0" style="font-family:'Asap-Regular';font-size:6px">e</tspan><tspan x="9.84" y="0" style="font-family:'Asap-Regular';font-size:6px">r</tspan><tspan x="12.05" y="0" style="font-family:'Asap-Regular';font-size:6px">a</tspan><tspan x="15.3" y="0" style="font-family:'Asap-Regular';font-size:6px">g</tspan><tspan x="18.61" y="0" style="font-family:'Asap-Regular';font-size:6px">e</tspan><tspan x="21.87" y="0" style="font-family:'Asap-Regular';font-size:6px"> </tspan><tspan x="23.19" y="0" style="font-family:'Asap-Regular';font-size:6px">o</tspan><tspan x="26.6" y="0" style="font-family:'Asap-Regular';font-size:6px">u</tspan><tspan x="29.92" y="0" style="font-family:'Asap-Regular';font-size:6px">t</tspan><tspan x="31.98" y="0" style="font-family:'Asap-Regular';font-size:6px">p</tspan><tspan x="35.45" y="0" style="font-family:'Asap-Regular';font-size:6px">u</tspan><tspan x="38.77" y="0" style="font-family:'Asap-Regular';font-size:6px">t</tspan><tspan x="40.83" y="0" style="font-family:'Asap-Regular';font-size:6px"> </tspan><tspan x="42.27" y="0" style="font-family:'Asap-Regular';font-size:6px">p</tspan><tspan x="45.74" y="0" style="font-family:'Asap-Regular';font-size:6px">e</tspan><tspan x="49" y="0" style="font-family:'Asap-Regular';font-size:6px">r</tspan><tspan x="10.28" y="7.2" style="font-family:'Asap-Regular';font-size:6px">f</tspan><tspan x="12.22" y="7.2" style="font-family:'Asap-Regular';font-size:6px">a</tspan><tspan x="15.47" y="7.2" style="font-family:'Asap-Regular';font-size:6px">r</tspan><tspan x="17.68" y="7.2" style="font-family:'Asap-Regular';font-size:6px">m</tspan><tspan x="22.78" y="7.2" style="font-family:'Asap-Regular';font-size:6px">e</tspan><tspan x="26.03" y="7.2" style="font-family:'Asap-Regular';font-size:6px">r</tspan><tspan x="28.24" y="7.2" style="font-family:'Asap-Regular';font-size:6px"> </tspan><tspan x="29.63" y="7.2" style="font-family:'Asap-Regular';font-size:6px">f</tspan><tspan x="31.57" y="7.2" style="font-family:'Asap-Regular';font-size:6px">a</tspan><tspan x="34.82" y="7.2" style="font-family:'Asap-Regular';font-size:6px">ll</tspan><tspan x="38.45" y="7.2" style="font-family:'Asap-Regular';font-size:6px">s</tspan></text><rect x="3.49" y="3.98" style="fill-rule:evenodd;clip-rule:evenodd;fill:none" width="306.14" height="72.21"/><rect x="3.49" y="3.98" style="fill-rule:evenodd;clip-rule:evenodd;fill:none" width="306.14" height="72.21"/><text transform="translate(163.81 20.006)"><tspan x="0" y="0" style="font-family:'Asap-Regular';font-size:6px">Le</tspan><tspan x="6.19" y="0" style="font-family:'Asap-Regular';font-size:6px">ss</tspan><tspan x="11.15" y="0" style="font-family:'Asap-Regular';font-size:6px"> </tspan><tspan x="12.54" y="0" style="font-family:'Asap-Regular';font-size:6px">l</tspan><tspan x="14.35" y="0" style="font-family:'Asap-Regular';font-size:6px">a</tspan><tspan x="17.6" y="0" style="font-family:'Asap-Regular';font-size:6px">n</tspan><tspan x="20.96" y="0" style="font-family:'Asap-Regular';font-size:6px">d</tspan><tspan x="24.38" y="0" style="font-family:'Asap-Regular';font-size:6px"> </tspan><tspan x="25.71" y="0" style="font-family:'Asap-Regular';font-size:6px">p</tspan><tspan x="29.18" y="0" style="font-family:'Asap-Regular';font-size:6px">e</tspan><tspan x="32.43" y="0" style="font-family:'Asap-Regular';font-size:6px">r</tspan><tspan x="34.64" y="0" style="font-family:'Asap-Regular';font-size:6px"> </tspan><tspan x="36.03" y="0" style="font-family:'Asap-Regular';font-size:6px">f</tspan><tspan x="37.97" y="0" style="font-family:'Asap-Regular';font-size:6px">a</tspan><tspan x="41.22" y="0" style="font-family:'Asap-Regular';font-size:6px">r</tspan><tspan x="43.43" y="0" style="font-family:'Asap-Regular';font-size:6px">m</tspan><tspan x="48.53" y="0" style="font-family:'Asap-Regular';font-size:6px">e</tspan><tspan x="51.79" y="0" style="font-family:'Asap-Regular';font-size:6px">r</tspan></text><rect x="3.49" y="3.98" style="fill-rule:evenodd;clip-rule:evenodd;fill:none" width="306.14" height="72.21"/><text transform="translate(234.588 55.788)"><tspan x="0" y="0" style="font-family:'Asap-Regular';font-size:6px">P</tspan><tspan x="3.44" y="0" style="font-family:'Asap-Regular';font-size:6px">o</tspan><tspan x="6.85" y="0" style="font-family:'Asap-Regular';font-size:6px">p</tspan><tspan x="10.31" y="0" style="font-family:'Asap-Regular';font-size:6px">u</tspan><tspan x="13.64" y="0" style="font-family:'Asap-Regular';font-size:6px">l</tspan><tspan x="15.45" y="0" style="font-family:'Asap-Regular';font-size:6px">a</tspan><tspan x="18.7" y="0" style="font-family:'Asap-Regular';font-size:6px">t</tspan><tspan x="20.76" y="0" style="font-family:'Asap-Regular';font-size:6px">i</tspan><tspan x="22.37" y="0" style="font-family:'Asap-Regular';font-size:6px">o</tspan><tspan x="25.77" y="0" style="font-family:'Asap-Regular';font-size:6px">n</tspan><tspan x="29.13" y="0" style="font-family:'Asap-Regular';font-size:6px"> </tspan><tspan x="30.46" y="0" style="font-family:'Asap-Regular';font-size:6px">i</tspan><tspan x="32.07" y="0" style="font-family:'Asap-Regular';font-size:6px">s</tspan><tspan x="34.55" y="0" style="font-family:'Asap-Regular';font-size:6px"> </tspan><tspan x="35.99" y="0" style="font-family:'Asap-Regular';font-size:6px">l</tspan><tspan x="37.8" y="0" style="font-family:'Asap-Regular';font-size:6px">a</tspan><tspan x="41.06" y="0" style="font-family:'Asap-Regular';font-size:6px">r</tspan><tspan x="43.26" y="0" style="font-family:'Asap-Regular';font-size:6px">g</tspan><tspan x="46.57" y="0" style="font-family:'Asap-Regular';font-size:6px">e</tspan><tspan x="49.83" y="0" style="font-family:'Asap-Regular';font-size:6px">r</tspan><tspan x="52.04" y="0" style="font-family:'Asap-Regular';font-size:6px"> </tspan><tspan x="53.24" y="0" style="font-family:'Asap-Regular';font-size:6px">bu</tspan><tspan x="59.96" y="0" style="font-family:'Asap-Regular';font-size:6px">t</tspan><tspan x="-5.44" y="7.2" style="font-family:'Asap-Regular';font-size:6px">l</tspan><tspan x="-3.62" y="7.2" style="font-family:'Asap-Regular';font-size:6px">i</tspan><tspan x="-2.02" y="7.2" style="font-family:'Asap-Regular';font-size:6px">v</tspan><tspan x=".91" y="7.2" style="font-family:'Asap-Regular';font-size:6px">in</tspan><tspan x="5.87" y="7.2" style="font-family:'Asap-Regular';font-size:6px">g</tspan><tspan x="9.18" y="7.2" style="font-family:'Asap-Regular';font-size:6px"> </tspan><tspan x="10.51" y="7.2" style="font-family:'Asap-Regular';font-size:6px">st</tspan><tspan x="15.05" y="7.2" style="font-family:'Asap-Regular';font-size:6px">a</tspan><tspan x="18.3" y="7.2" style="font-family:'Asap-Regular';font-size:6px">n</tspan><tspan x="21.66" y="7.2" style="font-family:'Asap-Regular';font-size:6px">d</tspan><tspan x="25.08" y="7.2" style="font-family:'Asap-Regular';font-size:6px">a</tspan><tspan x="28.33" y="7.2" style="font-family:'Asap-Regular';font-size:6px">r</tspan><tspan x="30.54" y="7.2" style="font-family:'Asap-Regular';font-size:6px">d</tspan><tspan x="33.96" y="7.2" style="font-family:'Asap-Regular';font-size:6px">s</tspan><tspan x="36.44" y="7.2" style="font-family:'Asap-Regular';font-size:6px"> </tspan><tspan x="37.71" y="7.2" style="font-family:'Asap-Regular';font-size:6px">a</tspan><tspan x="40.96" y="7.2" style="font-family:'Asap-Regular';font-size:6px">r</tspan><tspan x="43.17" y="7.2" style="font-family:'Asap-Regular';font-size:6px">e</tspan><tspan x="46.42" y="7.2" style="font-family:'Asap-Regular';font-size:6px"> </tspan><tspan x="47.87" y="7.2" style="font-family:'Asap-Regular';font-size:6px">ba</tspan><tspan x="54.51" y="7.2" style="font-family:'Asap-Regular';font-size:6px">c</tspan><tspan x="57.45" y="7.2" style="font-family:'Asap-Regular';font-size:6px">k</tspan><tspan x="60.6" y="7.2" style="font-family:'Asap-Regular';font-size:6px"> </tspan><tspan x="61.99" y="7.2" style="font-family:'Asap-Regular';font-size:6px">t</tspan><tspan x="64.05" y="7.2" style="font-family:'Asap-Regular';font-size:6px">o</tspan><tspan x="7.77" y="14.4" style="font-family:'Asap-Regular';font-size:6px">t</tspan><tspan x="9.83" y="14.4" style="font-family:'Asap-Regular';font-size:6px">h</tspan><tspan x="13.2" y="14.4" style="font-family:'Asap-Regular';font-size:6px">e</tspan><tspan x="16.46" y="14.4" style="font-family:'Asap-Regular';font-size:6px"> </tspan><tspan x="17.89" y="14.4" style="font-family:'Asap-Regular';font-size:6px">o</tspan><tspan x="21.3" y="14.4" style="font-family:'Asap-Regular';font-size:6px">r</tspan><tspan x="23.51" y="14.4" style="font-family:'Asap-Regular';font-size:6px">i</tspan><tspan x="25.12" y="14.4" style="font-family:'Asap-Regular';font-size:6px">g</tspan><tspan x="28.43" y="14.4" style="font-family:'Asap-Regular';font-size:6px">in</tspan><tspan x="33.39" y="14.4" style="font-family:'Asap-Regular';font-size:6px">a</tspan><tspan x="36.64" y="14.4" style="font-family:'Asap-Regular';font-size:6px">l</tspan><tspan x="38.46" y="14.4" style="font-family:'Asap-Regular';font-size:6px"> </tspan><tspan x="39.78" y="14.4" style="font-family:'Asap-Regular';font-size:6px">l</tspan><tspan x="41.6" y="14.4" style="font-family:'Asap-Regular';font-size:6px">e</tspan><tspan x="44.85" y="14.4" style="font-family:'Asap-Regular';font-size:6px">v</tspan><tspan x="47.78" y="14.4" style="font-family:'Asap-Regular';font-size:6px">e</tspan><tspan x="51.03" y="14.4" style="font-family:'Asap-Regular';font-size:6px">l</tspan></text><rect x="3.49" y="3.98" style="fill-rule:evenodd;clip-rule:evenodd;fill:none" width="306.14" height="72.21"/><rect x="3.49" y="3.98" style="fill-rule:evenodd;clip-rule:evenodd;fill:none" width="306.14" height="72.21"/><rect x="3.49" y="3.98" style="fill-rule:evenodd;clip-rule:evenodd;fill:none" width="306.14" height="72.21"/><path style="fill:none;stroke:#1870b9;stroke-miterlimit:8" d="M3.75 51.58A4.58 4.58 0 018.33 47h68.68a4.58 4.58 0 014.58 4.58v18.34a4.58 4.58 0 01-4.58 4.58H8.33a4.58 4.58 0 01-4.58-4.58V51.58z"/><path style="fill:none;stroke:#bf2026;stroke-miterlimit:8" d="M11.79 8.83a4.58 4.58 0 014.58-4.58H69.1a4.58 4.58 0 014.58 4.58v18.34a4.58 4.58 0 01-4.58 4.58H16.38a4.58 4.58 0 01-4.58-4.58V8.83zM85.95 8.98c0-2.51 2.03-4.54 4.54-4.54h52.87c2.51 0 4.54 2.03 4.54 4.54v18.16c0 2.51-2.03 4.54-4.54 4.54H90.49c-2.51 0-4.54-2.03-4.54-4.54V8.98zM160.16 8.8c0-2.52 2.04-4.56 4.56-4.56h52.76c2.52 0 4.56 2.04 4.56 4.56v18.25c0 2.52-2.04 4.56-4.56 4.56h-52.76c-2.52 0-4.56-2.04-4.56-4.56V8.8zM234.64 8.83a4.58 4.58 0 014.58-4.58h52.72a4.58 4.58 0 014.58 4.58v18.34a4.58 4.58 0 01-4.58 4.58h-52.72a4.58 4.58 0 01-4.58-4.58V8.83z"/><path style="fill:none;stroke:#1870b9;stroke-miterlimit:8" d="M221.92 51.58A4.58 4.58 0 01226.5 47h77.89a4.58 4.58 0 014.58 4.58v18.34a4.58 4.58 0 01-4.58 4.58H226.5a4.58 4.58 0 01-4.58-4.58V51.58z"/><line style="fill:none;stroke:#bf2026;stroke-width:.5;stroke-miterlimit:8" x1="42.67" y1="46.47" x2="42.74" y2="32.81"/><polygon style="fill:#bf2026" points="44.78 34.47 44.41 34.81 42.74 33 41.06 34.8 40.69 34.45 42.75 32.26"/><line style="fill:none;stroke:#bf2026;stroke-width:.5;stroke-miterlimit:8" x1="73.75" y1="18.09" x2="84.87" y2="18.07"/><polygon style="fill:#bf2026" points="83.22 20.12 82.88 19.75 84.68 18.07 82.87 16.39 83.21 16.03 85.41 18.07"/><line style="fill:none;stroke:#bf2026;stroke-width:.5;stroke-miterlimit:8" x1="222.51" y1="17.9" x2="233.59" y2="17.87"/><polygon style="fill:#bf2026" points="231.94 19.92 231.6 19.56 233.4 17.87 231.59 16.2 231.93 15.83 234.13 17.87"/><line style="fill:none;stroke:#bf2026;stroke-width:.5;stroke-miterlimit:8" x1="265.6" y1="32.25" x2="265.48" y2="45.92"/><polygon style="fill:#bf2026" points="263.45 44.25 263.82 43.91 265.48 45.73 267.18 43.94 267.54 44.28 265.48 46.46"/><line style="fill:none;stroke:#bf2026;stroke-width:.5;stroke-miterlimit:8" x1="148.16" y1="18.29" x2="159.16" y2="18.26"/><polygon style="fill:#bf2026" points="157.51 20.31 157.17 19.95 158.97 18.26 157.16 16.59 157.5 16.22 159.7 18.26"/><polygon style="fill-rule:evenodd;clip-rule:evenodd;fill:none" points="3.49 76.19 309.63 76.19 309.63 3.98 3.49 3.98 3.49 76.19"/><polygon style="fill-rule:evenodd;clip-rule:evenodd;fill:none" points="3.49 76.19 309.63 76.19 309.63 3.98 3.49 3.98 3.49 76.19"/><polygon style="fill-rule:evenodd;clip-rule:evenodd;fill:none" points="3.49 76.19 309.63 76.19 309.63 3.98 3.49 3.98 3.49 76.19"/><polygon style="fill-rule:evenodd;clip-rule:evenodd;fill:none" points="3.49 76.19 309.63 76.19 309.63 3.98 3.49 3.98 3.49 76.19"/><polygon style="fill-rule:evenodd;clip-rule:evenodd;fill:none" points="3.49 76.19 309.63 76.19 309.63 3.98 3.49 3.98 3.49 76.19"/><polygon style="fill-rule:evenodd;clip-rule:evenodd;fill:none" points="3.49 76.19 309.63 76.19 309.63 3.98 3.49 3.98 3.49 76.19"/><polygon style="fill-rule:evenodd;clip-rule:evenodd;fill:none" points="3.49 76.19 309.63 76.19 309.63 3.98 3.49 3.98 3.49 76.19"/><polygon style="fill-rule:evenodd;clip-rule:evenodd;fill:none" points="3.49 76.19 309.63 76.19 309.63 3.98 3.49 3.98 3.49 76.19"/><polygon style="fill-rule:evenodd;clip-rule:evenodd;fill:none" points="3.49 76.19 309.63 76.19 309.63 3.98 3.49 3.98 3.49 76.19"/><polygon style="fill-rule:evenodd;clip-rule:evenodd;fill:none" points="3.49 76.19 309.63 76.19 309.63 3.98 3.49 3.98 3.49 76.19"/><polygon style="fill-rule:evenodd;clip-rule:evenodd;fill:none" points="3.49 76.19 309.63 76.19 309.63 3.98 3.49 3.98 3.49 76.19"/><polygon style="fill-rule:evenodd;clip-rule:evenodd;fill:none" points="3.49 76.19 309.63 76.19 309.63 3.98 3.49 3.98 3.49 76.19"/><polygon style="fill-rule:evenodd;clip-rule:evenodd;fill:none" points="3.49 76.19 309.63 76.19 309.63 3.98 3.49 3.98 3.49 76.19"/><polygon style="fill-rule:evenodd;clip-rule:evenodd;fill:none" points="3.49 76.19 309.63 76.19 309.63 3.98 3.49 3.98 3.49 76.19"/><polygon style="fill-rule:evenodd;clip-rule:evenodd;fill:none" points="3.49 76.19 309.63 76.19 309.63 3.98 3.49 3.98 3.49 76.19"/><polygon style="fill-rule:evenodd;clip-rule:evenodd;fill:none" points="3.49 76.19 309.63 76.19 309.63 3.98 3.49 3.98 3.49 76.19"/><polygon style="fill-rule:evenodd;clip-rule:evenodd;fill:none" points="3.49 76.19 309.63 76.19 309.63 3.98 3.49 3.98 3.49 76.19"/><polygon style="fill-rule:evenodd;clip-rule:evenodd;fill:none" points="3.49 76.19 309.63 76.19 309.63 3.98 3.49 3.98 3.49 76.19"/><polygon style="fill-rule:evenodd;clip-rule:evenodd;fill:none" points="3.49 76.19 309.63 76.19 309.63 3.98 3.49 3.98 3.49 76.19"/><polygon style="fill-rule:evenodd;clip-rule:evenodd;fill:none" points="3.49 76.19 309.63 76.19 309.63 3.98 3.49 3.98 3.49 76.19"/><polygon style="fill-rule:evenodd;clip-rule:evenodd;fill:none" points="3.49 76.19 309.63 76.19 309.63 3.98 3.49 3.98 3.49 76.19"/></svg>