<svg version="1.1" xmlns="http://www.w3.org/2000/svg" x="0" y="0" viewBox="0 0 311.81 197.09" style="enable-background:new 0 0 311.81 197.09" xml:space="preserve"><line style="fill:none;stroke:#6d6e71;stroke-width:.5;stroke-linecap:square;stroke-linejoin:round" x1="67.08" y1="5.3" x2="67.08" y2="173.11"/><line style="fill:none;stroke:#6d6e71;stroke-width:.5;stroke-linecap:square" x1="67.08" y1="173.3" x2="234.08" y2="173.3"/><line style="fill:none;stroke:#6d6e71;stroke-width:.5;stroke-linecap:square;stroke-linejoin:round" x1="66.81" y1="173.11" x2="64.68" y2="173.11"/><line style="fill:none;stroke:#6d6e71;stroke-width:.5;stroke-linecap:square;stroke-linejoin:round" x1="66.81" y1="149.14" x2="64.68" y2="149.14"/><line style="fill:none;stroke:#6d6e71;stroke-width:.5;stroke-linecap:square;stroke-linejoin:round" x1="66.81" y1="125.17" x2="64.68" y2="125.17"/><line style="fill:none;stroke:#6d6e71;stroke-width:.5;stroke-linecap:square;stroke-linejoin:round" x1="66.81" y1="101.19" x2="64.68" y2="101.19"/><line style="fill:none;stroke:#6d6e71;stroke-width:.5;stroke-linecap:square;stroke-linejoin:round" x1="66.81" y1="77.22" x2="64.68" y2="77.22"/><line style="fill:none;stroke:#6d6e71;stroke-width:.5;stroke-linecap:square;stroke-linejoin:round" x1="66.81" y1="53.24" x2="64.68" y2="53.24"/><line style="fill:none;stroke:#6d6e71;stroke-width:.5;stroke-linecap:square;stroke-linejoin:round" x1="66.81" y1="29.04" x2="64.68" y2="29.04"/><line style="fill:none;stroke:#6d6e71;stroke-width:.5;stroke-linecap:square;stroke-linejoin:round" x1="66.81" y1="5.3" x2="64.68" y2="5.3"/><line style="fill:none;stroke:#6d6e71;stroke-width:.5;stroke-linecap:square" x1="67.08" y1="173.42" x2="67.08" y2="175.55"/><line style="fill:none;stroke:#6d6e71;stroke-width:.5;stroke-linecap:square" x1="94.91" y1="173.42" x2="94.91" y2="175.55"/><line style="fill:none;stroke:#6d6e71;stroke-width:.5;stroke-linecap:square" x1="122.74" y1="173.42" x2="122.74" y2="175.55"/><line style="fill:none;stroke:#6d6e71;stroke-width:.5;stroke-linecap:square" x1="150.58" y1="173.42" x2="150.58" y2="175.55"/><line style="fill:none;stroke:#6d6e71;stroke-width:.5;stroke-linecap:square" x1="178.41" y1="173.42" x2="178.41" y2="175.55"/><line style="fill:none;stroke:#6d6e71;stroke-width:.5;stroke-linecap:square" x1="206.24" y1="173.42" x2="206.24" y2="175.55"/><line style="fill:none;stroke:#6d6e71;stroke-width:.5;stroke-linecap:square" x1="234.08" y1="173.42" x2="234.08" y2="175.55"/><text transform="translate(56.097 175.258)" style="font-family:'Asap-Regular';font-size:7px">0</text><text transform="translate(65.204 183.903)" style="font-family:'Asap-Regular';font-size:7px">0</text><text transform="translate(54.224 151.285)" style="font-family:'Asap-Regular';font-size:7px">10</text><text transform="translate(54.225 127.311)" style="font-family:'Asap-Regular';font-size:7px">20</text><text transform="translate(54.224 103.337)" style="font-family:'Asap-Regular';font-size:7px">30</text><text transform="translate(54.224 79.364)" style="font-family:'Asap-Regular';font-size:7px">40</text><text transform="translate(54.225 55.39)" style="font-family:'Asap-Regular';font-size:7px">50</text><text transform="translate(54.225 31.222)" style="font-family:'Asap-Regular';font-size:7px">60</text><text transform="translate(54.224 7.443)" style="font-family:'Asap-Regular';font-size:7px">70</text><text transform="translate(93.038 183.903)" style="font-family:'Asap-Regular';font-size:7px">4</text><text transform="translate(120.87 183.903)" style="font-family:'Asap-Regular';font-size:7px">8</text><text transform="translate(146.832 183.903)" style="font-family:'Asap-Regular';font-size:7px">12</text><text transform="translate(174.665 183.903)" style="font-family:'Asap-Regular';font-size:7px">16</text><text transform="translate(202.499 183.902)" style="font-family:'Asap-Regular';font-size:7px">20</text><text transform="translate(230.332 183.903)" style="font-family:'Asap-Regular';font-size:7px">24</text><text transform="matrix(0 -.9726 1 0 43.62 116.555)" style="font-family:'Asap-Medium';font-size:8px">Bushels of grain</text><text transform="translate(103.342 194.876)" style="font-family:'Asap-Medium';font-size:8px">Angela’s hours of free time</text><path style="fill:none;stroke:#263a71;stroke-width:.5" d="M107.56 4.48c2.69 10.3 6.27 22.25 11.11 35.33 5.47 14.77 10.74 26.16 13.78 32.44 9.23 19.1 14.79 30.6 25.33 44 6.66 8.46 18.9 23.72 40.22 36 13.93 8.03 26.82 11.95 35.78 14"/><path style="fill:none;stroke:#3b54a4;stroke-width:.5" d="M113.78 4.93c7.13 23.89 15.52 42.72 22.22 56 7.22 14.31 12.33 24.44 22.22 36.67 18.85 23.31 39 34.36 43.33 36.67a132.759 132.759 0 0031.78 12"/><path style="fill:none;stroke:#5b73b8;stroke-width:.5" d="M121.56 4.26c3.11 8.7 7.97 20.85 15.33 34.67 9.16 17.19 19.24 36.13 38.22 53.11 9.48 8.48 28.42 22.95 58.44 30.89"/><path style="fill:none;stroke:#a1b0da;stroke-width:.5" d="M140.67 4.71c5.22 11.07 15.82 29.85 35.78 46.89 22.09 18.86 44.73 26.27 56.89 29.33"/><path style="fill:none;stroke:#d5daee;stroke-width:.5" d="M165.56 4.26c6.61 7.59 17.11 17.91 32.22 26.89a132.477 132.477 0 0035.78 14.67"/><line style="fill:none;stroke:#000;stroke-width:.5;stroke-linecap:square;stroke-linejoin:round" x1="103.11" y1="128.26" x2="209.1" y2="21.09"/><polygon points="209.39 23.71 208.89 23.69 208.97 21.23 206.5 21.33 206.48 20.83 209.48 20.71"/><text transform="translate(239.71 168.704)" style="font-family:'Asap-Regular';font-size:7px">IC</text><text transform="matrix(.583 0 0 .583 246.024 171.035)" style="font-family:'Asap-Regular';font-size:7px">1</text><text transform="translate(239.71 149.298)" style="font-family:'Asap-Regular';font-size:7px">IC</text><text transform="matrix(.583 0 0 .583 246.024 151.629)" style="font-family:'Asap-Regular';font-size:7px">2</text><text transform="translate(239.71 125.298)" style="font-family:'Asap-Regular';font-size:7px">IC</text><text transform="matrix(.583 0 0 .583 246.024 127.629)" style="font-family:'Asap-Regular';font-size:7px">3</text><text transform="translate(239.71 85.372)" style="font-family:'Asap-Regular';font-size:7px">IC</text><text transform="matrix(.583 0 0 .583 246.025 87.703)" style="font-family:'Asap-Regular';font-size:7px">4</text><text transform="translate(239.71 49.37)" style="font-family:'Asap-Regular';font-size:7px">IC</text><text transform="matrix(.583 0 0 .583 246.025 51.702)" style="font-family:'Asap-Regular';font-size:7px">5</text><text transform="translate(205.114 15.02)" style="font-family:'Asap-Regular';font-size:7px">Higher utility</text><circle style="fill:#000101" cx="178.34" cy="94.93" r="1.13"/><circle style="fill:#000101" cx="136.34" cy="37.98" r="1.13"/></svg>