<svg version="1.1" xmlns="http://www.w3.org/2000/svg" xmlns:xlink="http://www.w3.org/1999/xlink" x="0" y="0" viewBox="0 0 311.81 209.43" style="enable-background:new 0 0 311.81 209.43" xml:space="preserve"><g style="display:none"><g style="display:inline"><defs><polygon id="prefix__a" points="29.59 2393.82 311.72 2393.82 311.72 2186.94 29.59 2186.94 29.59 2393.82"/></defs><clipPath id="prefix__b"><use xlink:href="#prefix__a" style="overflow:visible"/></clipPath><polyline points="29.91 -803 38.88 342.53 47.22 964.46 56.2 1339.92 65.17 1583.84 73.51 1750.5 82.49 1869.9 91.46 1958.02 100.44 2025.71 108.78 2078.07 117.75 2119.57 126.73 2152.77 135.07 2180.23 144.04 2203.22 153.02 2221.74 162 2238.34 170.33 2251.75 179.31 2263.88 188.29 2274.1 196.62 2283.04 205.6 2290.7 214.58 2297.72 223.55 2303.47 231.89 2309.22 240.87 2314.32 249.84 2318.79 258.18 2322.62 267.16 2325.82 276.13 2329.65 285.11 2332.2 293.45 2334.76 302.42 2337.31 311.4 2339.86"/></g><g style="display:inline"><defs><polygon id="prefix__c" points="8.8 2669.36 338.8 2669.36 338.8 2426.24 8.8 2426.24 8.8 2669.36"/></defs><clipPath id="prefix__d"><use xlink:href="#prefix__c" style="overflow:visible"/></clipPath><polyline points="8.92 -1085.92 19.24 259.64 29.44 990.68 39.76 1431.32 50.08 1717.4 60.4 1913.48 70.6 2053.76 80.92 2157.56 91.24 2236.52 101.56 2297.96 111.76 2346.68 122.08 2386.04 132.4 2418.2 142.6 2444.96 152.92 2467.28 163.24 2486.12 173.56 2502.32 183.76 2516.24 194.08 2528.24 204.4 2538.8 214.72 2548.04 224.92 2556.2 235.24 2563.4 245.56 2569.76 255.76 2575.52 266.08 2580.68 276.4 2585.36 286.72 2589.56 296.92 2593.4 307.24 2596.88 317.56 2600.12 327.88 2603 338.08 2605.64"/></g><g style="display:inline"><defs><polygon id="prefix__e" points="8.8 2669.36 338.8 2669.36 338.8 2426.24 8.8 2426.24 8.8 2669.36"/></defs><clipPath id="prefix__f"><use xlink:href="#prefix__e" style="overflow:visible"/></clipPath><polyline points="8.92 -1085.92 19.24 259.64 29.44 990.68 39.76 1431.32 50.08 1717.4 60.4 1913.48 70.6 2053.76 80.92 2157.56 91.24 2236.52 101.56 2297.96 111.76 2346.68 122.08 2386.04 132.4 2418.2 142.6 2444.96 152.92 2467.28 163.24 2486.12 173.56 2502.32 183.76 2516.24 194.08 2528.24 204.4 2538.8 214.72 2548.04 224.92 2556.2 235.24 2563.4 245.56 2569.76 255.76 2575.52 266.08 2580.68 276.4 2585.36 286.72 2589.56 296.92 2593.4 307.24 2596.88 317.56 2600.12 327.88 2603 338.08 2605.64"/></g><g style="display:inline"><defs><polygon id="prefix__g" points="8.8 2669.36 338.8 2669.36 338.8 2426.24 8.8 2426.24 8.8 2669.36"/></defs><clipPath id="prefix__h"><use xlink:href="#prefix__g" style="overflow:visible"/></clipPath><polyline points="8.92 -1085.92 19.24 259.64 29.44 990.68 39.76 1431.32 50.08 1717.4 60.4 1913.48 70.6 2053.76 80.92 2157.56 91.24 2236.52 101.56 2297.96 111.76 2346.68 122.08 2386.04 132.4 2418.2 142.6 2444.96 152.92 2467.28 163.24 2486.12 173.56 2502.32 183.76 2516.24 194.08 2528.24 204.4 2538.8 214.72 2548.04 224.92 2556.2 235.24 2563.4 245.56 2569.76 255.76 2575.52 266.08 2580.68 276.4 2585.36 286.72 2589.56 296.92 2593.4 307.24 2596.88 317.56 2600.12 327.88 2603 338.08 2605.64"/></g><g style="display:inline;opacity:.46"><defs><polygon id="prefix__i" points="41.16 896.73 289.45 896.73 289.45 713.81 41.16 713.81 41.16 896.73"/></defs><clipPath id="prefix__j"><use xlink:href="#prefix__i" style="overflow:visible"/></clipPath><polyline points="41.16 -589.11 48.92 -58.95 56.69 229.06 64.45 402.68 72.13 515.36 79.89 592.64 87.66 647.99 95.33 688.89 103.09 719.95 110.86 744.14 118.62 763.38 126.3 778.81 134.06 791.54 141.83 802.02 149.59 810.87 157.27 818.27 165.03 824.68 172.8 830.19 180.56 834.88 188.23 839.04 196 842.65 203.76 845.9 211.44 848.7 219.2 851.22 226.97 853.57 234.73 855.56 242.41 857.36 250.17 859.08 257.94 860.61 265.7 861.97 273.37 863.23 281.14 864.32 288.9 865.4"/><g><defs><polygon id="prefix__k" points="41.16 896.73 289.45 896.73 289.45 713.81 41.16 713.81 41.16 896.73"/></defs><clipPath id="prefix__l"><use xlink:href="#prefix__k" style="overflow:visible"/></clipPath><polyline points="41.16 -1928.6 48.92 -916.22 56.69 -366.29 64.45 -34.66 72.13 180.58 79.89 328.11 87.66 433.65 95.33 511.75 103.09 571.16 110.86 617.38 118.62 654.04 126.3 683.56 134.06 707.85 141.83 727.89 149.59 744.69 157.27 758.95 165.03 771.14 172.8 781.52 180.56 790.64 188.23 798.5 196 805.45 203.76 811.59 211.44 817.01 219.2 821.88 226.97 826.21 234.73 830.1 242.41 833.62 250.17 836.78 257.94 839.67 265.7 842.29 273.37 844.63 281.14 846.89 288.9 848.88"/></g></g></g><line style="fill:none;stroke:#939598;stroke-width:.5;stroke-linecap:square;stroke-linejoin:round;stroke-dasharray:1.4173" x1="153.88" y1="181.82" x2="153.88" y2="29.83"/><line style="fill:none;stroke:#6d6e71;stroke-width:.5;stroke-linecap:square" x1="45.5" y1="181.89" x2="293" y2="181.89"/><text transform="translate(35.473 184.02)" style="font-family:'Asap-Regular';font-size:7px">0</text><text transform="translate(28.658 155.904)" style="font-family:'Asap-Regular';font-size:7px">100</text><text transform="translate(28.581 127.788)" style="font-family:'Asap-Regular';font-size:7px">200</text><text transform="translate(28.623 99.672)" style="font-family:'Asap-Regular';font-size:7px">300</text><text transform="translate(28.812 71.556)" style="font-family:'Asap-Regular';font-size:7px">400</text><text transform="translate(28.609 43.44)" style="font-family:'Asap-Regular';font-size:7px">500</text><text transform="translate(28.581 15.324)" style="font-family:'Asap-Regular';font-size:7px">600</text><text transform="matrix(0 -.9726 1 0 17.469 139.763)" style="font-family:'Asap-Medium';font-size:8px">Consumption spending (€)</text><text transform="translate(56.212 192.913)" style="font-family:'Asap-Regular';font-size:7px">9</text><text transform="translate(68.203 192.914)" style="font-family:'Asap-Regular';font-size:7px">10</text><text transform="translate(83.938 192.913)" style="font-family:'Asap-Regular';font-size:7px">11</text><text transform="translate(99.673 192.914)" style="font-family:'Asap-Regular';font-size:7px">12</text><text transform="translate(115.408 192.913)" style="font-family:'Asap-Regular';font-size:7px">13</text><text transform="translate(131.143 192.914)" style="font-family:'Asap-Regular';font-size:7px">14</text><text transform="translate(146.878 192.913)" style="font-family:'Asap-Regular';font-size:7px">15</text><text transform="translate(162.613 192.913)" style="font-family:'Asap-Regular';font-size:7px">16</text><text transform="translate(178.348 192.914)" style="font-family:'Asap-Regular';font-size:7px">17</text><text transform="translate(194.083 192.914)" style="font-family:'Asap-Regular';font-size:7px">18</text><text transform="translate(209.818 192.914)" style="font-family:'Asap-Regular';font-size:7px">19</text><text transform="translate(225.553 192.914)" style="font-family:'Asap-Regular';font-size:7px">20</text><text transform="translate(241.288 192.913)" style="font-family:'Asap-Regular';font-size:7px">21</text><text transform="translate(257.024 192.913)" style="font-family:'Asap-Regular';font-size:7px">22</text><text transform="translate(272.758 192.913)" style="font-family:'Asap-Regular';font-size:7px">23</text><text transform="translate(288.493 192.913)" style="font-family:'Asap-Regular';font-size:7px">24</text><text transform="translate(159.422 29.485)" style="font-family:'Asap-Regular';font-size:7px">A</text><text transform="translate(122.45 206.763)" style="font-family:'Asap-Medium';font-size:8px">Hours of free time per day</text><text transform="translate(115.704 26.51)" style="font-family:'Asap-Regular';font-size:7px">B</text><line style="fill:none;stroke:#6d6e71;stroke-width:.5;stroke-linecap:square" x1="293.21" y1="184.02" x2="293.21" y2="181.89"/><line style="fill:none;stroke:#6d6e71;stroke-width:.5;stroke-linecap:square" x1="277.73" y1="181.89" x2="277.73" y2="184.02"/><line style="fill:none;stroke:#6d6e71;stroke-width:.5;stroke-linecap:square" x1="262.25" y1="181.89" x2="262.25" y2="184.02"/><line style="fill:none;stroke:#6d6e71;stroke-width:.5;stroke-linecap:square" x1="246.77" y1="181.89" x2="246.77" y2="184.02"/><line style="fill:none;stroke:#6d6e71;stroke-width:.5;stroke-linecap:square" x1="231.29" y1="181.89" x2="231.29" y2="184.02"/><line style="fill:none;stroke:#6d6e71;stroke-width:.5;stroke-linecap:square" x1="215.8" y1="181.89" x2="215.8" y2="184.02"/><line style="fill:none;stroke:#6d6e71;stroke-width:.5;stroke-linecap:square" x1="200.32" y1="181.89" x2="200.32" y2="184.02"/><line style="fill:none;stroke:#6d6e71;stroke-width:.5;stroke-linecap:square" x1="184.84" y1="181.89" x2="184.84" y2="184.02"/><line style="fill:none;stroke:#6d6e71;stroke-width:.5;stroke-linecap:square" x1="169.36" y1="181.89" x2="169.36" y2="184.02"/><line style="fill:none;stroke:#6d6e71;stroke-width:.5;stroke-linecap:square" x1="153.88" y1="181.89" x2="153.88" y2="184.02"/><line style="fill:none;stroke:#6d6e71;stroke-width:.5;stroke-linecap:square" x1="138.39" y1="181.89" x2="138.39" y2="184.02"/><line style="fill:none;stroke:#6d6e71;stroke-width:.5;stroke-linecap:square" x1="122.91" y1="181.89" x2="122.91" y2="184.02"/><line style="fill:none;stroke:#6d6e71;stroke-width:.5;stroke-linecap:square" x1="107.43" y1="181.89" x2="107.43" y2="184.02"/><line style="fill:none;stroke:#6d6e71;stroke-width:.5;stroke-linecap:square" x1="91.95" y1="181.89" x2="91.95" y2="184.02"/><line style="fill:none;stroke:#6d6e71;stroke-width:.5;stroke-linecap:square" x1="76.46" y1="181.89" x2="76.46" y2="184.02"/><line style="fill:none;stroke:#6d6e71;stroke-width:.5;stroke-linecap:square" x1="60.98" y1="181.89" x2="60.98" y2="184.02"/><line style="fill:none;stroke:#6d6e71;stroke-width:.5;stroke-linecap:square" x1="45.5" y1="181.89" x2="45.5" y2="184.02"/><line style="fill:none;stroke:#6d6e71;stroke-width:.5;stroke-linecap:square;stroke-linejoin:round" x1="45.04" y1="41.02" x2="42.91" y2="41.02"/><line style="fill:none;stroke:#6d6e71;stroke-width:.5;stroke-linecap:square;stroke-linejoin:round" x1="45.04" y1="13.02" x2="42.91" y2="13.02"/><line style="fill:none;stroke:#6d6e71;stroke-width:.5;stroke-linecap:square;stroke-linejoin:round" x1="45.04" y1="68.59" x2="42.91" y2="68.59"/><line style="fill:none;stroke:#6d6e71;stroke-width:.5;stroke-linecap:square;stroke-linejoin:round" x1="45.04" y1="96.88" x2="42.91" y2="96.88"/><line style="fill:none;stroke:#6d6e71;stroke-width:.5;stroke-linecap:square;stroke-linejoin:round" x1="45.04" y1="125.3" x2="42.91" y2="125.3"/><line style="fill:none;stroke:#6d6e71;stroke-width:.5;stroke-linecap:square;stroke-linejoin:round" x1="45.04" y1="152.88" x2="42.91" y2="152.88"/><text transform="translate(44.222 192.913)" style="font-family:'Asap-Regular';font-size:7px">8</text><line style="fill:none;stroke:#6d6e71;stroke-width:.5;stroke-linecap:square;stroke-linejoin:round" x1="45.04" y1="181.89" x2="42.91" y2="181.89"/><line style="fill:none;stroke:#939598;stroke-width:.5;stroke-linecap:square;stroke-linejoin:round;stroke-dasharray:1.4173" x1="46" y1="30.33" x2="154" y2="30.33"/><circle style="fill:#000101" cx="153.96" cy="30.48" r="1.13"/><line style="fill:none;stroke:#6d6e71;stroke-width:.5;stroke-linecap:square;stroke-linejoin:round" x1="45.5" y1="181.89" x2="45.5" y2="4.39"/><circle style="fill:#000101" cx="113.96" cy="30.48" r="1.13"/></svg>