<svg xmlns="http://www.w3.org/2000/svg" class="prefix__svglite" viewBox="0 0 810 525"><rect width="100%" height="100%" style="stroke:none;fill:#fff;stroke-linecap:round;stroke-linejoin:round;stroke-miterlimit:10"/><defs><clipPath id="prefix__a"><rect x="0" y="0" width="810" height="525" style="fill:none;stroke:#000;stroke-linecap:round;stroke-linejoin:round;stroke-miterlimit:10"/></clipPath></defs><g clip-path="url(#prefix__a)"><rect x="0" y="0" width="810" height="525" style="stroke-width:1.07;stroke:#fff;fill:#fff;stroke-linecap:round;stroke-linejoin:round;stroke-miterlimit:10"/><rect x="93.36" y="70.87" width="590.82" height="376.88" style="stroke-width:1.07;stroke:none;fill:#fff;stroke-linecap:round;stroke-linejoin:round;stroke-miterlimit:10"/><polyline points="93.36 447.74 684.18 447.74" style="stroke-width:1.07;stroke:#c6c4c4;stroke-linecap:butt;fill:none;stroke-linejoin:round;stroke-miterlimit:10"/><polyline points="93.36 393.9 684.18 393.9" style="stroke-width:1.07;stroke:#c6c4c4;stroke-linecap:butt;fill:none;stroke-linejoin:round;stroke-miterlimit:10"/><polyline points="93.36 340.06 684.18 340.06" style="stroke-width:1.07;stroke:#c6c4c4;stroke-linecap:butt;fill:none;stroke-linejoin:round;stroke-miterlimit:10"/><polyline points="93.36 286.22 684.18 286.22" style="stroke-width:1.07;stroke:#c6c4c4;stroke-linecap:butt;fill:none;stroke-linejoin:round;stroke-miterlimit:10"/><polyline points="93.36 232.39 684.18 232.39" style="stroke-width:1.07;stroke:#c6c4c4;stroke-linecap:butt;fill:none;stroke-linejoin:round;stroke-miterlimit:10"/><polyline points="93.36 178.55 684.18 178.55" style="stroke-width:1.07;stroke:#c6c4c4;stroke-linecap:butt;fill:none;stroke-linejoin:round;stroke-miterlimit:10"/><polyline points="93.36 124.71 684.18 124.71" style="stroke-width:1.07;stroke:#c6c4c4;stroke-linecap:butt;fill:none;stroke-linejoin:round;stroke-miterlimit:10"/><polyline points="93.36 70.87 684.18 70.87" style="stroke-width:1.07;stroke:#c6c4c4;stroke-linecap:butt;fill:none;stroke-linejoin:round;stroke-miterlimit:10"/><polyline points="93.36 409.9 97.05 374.76 100.74 270.22 104.43 90.16 108.13 149.02 111.82 270.5 115.51 328.09 119.2 258.51 122.9 257.99 126.59 235.93 130.28 196.36 133.97 236.91 137.67 341.75 141.36 375.99 145.05 362.44 148.75 280.93 152.44 290.05 156.13 362.18 159.82 383.7 163.52 379.44 167.21 385.91 170.9 391.66 174.59 373.27 178.29 382.87 181.98 379.78 185.67 392.91 189.36 396 193.06 379.78 196.75 375.15 200.44 380.55 204.13 396 207.83 404.5 211.52 398.32 215.21 380.38 218.91 334.31 222.6 349.32 226.29 381.85 229.98 371.84 233.68 340.15 237.37 348.49 241.06 367.67 244.75 383.58 248.45 375.15 252.14 381.33 255.83 399.86 259.52 391.37 263.22 394.13 266.91 392.14 270.6 393.68 274.3 402.32 277.99 402.32 281.68 394.54 285.37 381.05 289.07 391.64 292.76 403.85 296.45 377.6 300.14 363.04 303.84 356.21 307.53 366.81 311.22 341.03 314.91 380.43 318.61 380.87 322.3 393.06 325.99 389.51 329.69 381.01 333.38 373.78 337.07 395.62 340.76 400.2 344.46 396.13 348.15 398.11 351.84 418.02 355.53 403.39 359.23 411.74 362.92 395.74 366.61 398.54 370.3 392.97 374 390.52 377.69 391.9 381.38 396.61 385.07 397.1 388.77 393.83 392.46 396.9 396.15 399.43 399.85 399.86 403.54 407.13 407.23 407.83 410.92 388.52 414.62 390.19 418.31 395.74 422 398.29 425.69 401.92 429.39 402.89 433.08 397.52 436.77 397.76 440.46 397.56 444.16 398.29 447.85 400.76 451.54 397.65 455.24 398.08 458.93 403.09 462.62 405.86 466.31 406.31 470.01 406.8 473.7 407.36 477.39 408.04 481.08 409.12 484.78 410.21 488.47 411.71 492.16 413.56 495.85 415.46 499.55 409.26 503.24 406.43 506.93 396.15 510.63 284.05 514.32 298.41 518.01 291.06 521.7 287.82 525.4 297.93 529.09 144.39 532.78 136.34 536.47 172.35 540.17 209.71 543.86 241.04 547.55 254.76 551.24 269.29 554.94 356.01 558.63 334.68 562.32 359.85 566.02 345.34 569.71 321.27 573.4 345.43 577.09 351.8 580.79 365.91 584.48 373.38 588.17 369.95 591.86 355.97 595.56 364.86 599.25 393.39 602.94 372.59 606.63 332.45 610.33 351.58 614.02 350.83 617.71 338.58 621.4 306.61 625.1 253.24 628.79 222.61 632.48 204.5 636.18 133.03 639.87 247.46 643.56 193.75 647.25 103.15 650.95 108.88 654.64 122.77 658.33 156.55 662.02 293.75 665.72 320.79 669.41 293.71 673.1 249.89 676.79 272.76 680.49 335.12" style="stroke-width:1.07;stroke:#ed1f24;stroke-linecap:butt;fill:none;stroke-linejoin:round;stroke-miterlimit:10"/><polyline points="477.39 440.53 481.08 420.58 484.78 401.72 488.47 380.3 492.16 357.48 495.85 335.42 499.55 320.7 503.24 301.27 506.93 280.21 510.63 284.01 514.32 286.31 518.01 269.97 521.7 259.83 525.4 247.2 529.09 242.34 532.78 253.78 536.47 262.05 540.17 269.42 543.86 270.46 547.55 264.54 551.24 262.74 554.94 254.85 558.63 249.1 562.32 240.63 566.02 235.06 569.71 230.37 573.4 229.81 577.09 225.56 580.79 226.65 584.48 220.58 588.17 216.15 591.86 210.45 595.56 202.28 599.25 200.37 602.94 194.15 606.63 191.95 610.33 189.41 614.02 186.22 617.71 180.21 621.4 170.74 625.1 166.51 628.79 163.57 632.48 159.1 636.18 161.07 639.87 164.4 643.56 155.6 647.25 152.19 650.95 149.54 654.64 145.35 658.33 142.85 662.02 140.79 665.72 136.15 669.41 131.25 673.1 127.97 676.79 127.04 680.49 153.71" style="stroke-width:1.07;stroke:#3a53a4;stroke-linecap:butt;fill:none;stroke-linejoin:round;stroke-miterlimit:10"/><circle cx="303.84" cy="356.21" r="2.2" style="stroke-width:1.2;fill:#000;stroke:#000;stroke-linecap:round;stroke-linejoin:round;stroke-miterlimit:10"/><circle cx="344.46" cy="396.13" r="2.2" style="stroke-width:1.2;fill:#000;stroke:#000;stroke-linecap:round;stroke-linejoin:round;stroke-miterlimit:10"/><circle cx="403.54" cy="407.13" r="2.2" style="stroke-width:1.2;fill:#000;stroke:#000;stroke-linecap:round;stroke-linejoin:round;stroke-miterlimit:10"/><circle cx="506.93" cy="396.15" r="2.2" style="stroke-width:1.2;fill:#000;stroke:#000;stroke-linecap:round;stroke-linejoin:round;stroke-miterlimit:10"/><circle cx="532.78" cy="136.34" r="2.2" style="stroke-width:1.2;fill:#000;stroke:#000;stroke-linecap:round;stroke-linejoin:round;stroke-miterlimit:10"/><circle cx="569.71" cy="321.27" r="2.2" style="stroke-width:1.2;fill:#000;stroke:#000;stroke-linecap:round;stroke-linejoin:round;stroke-miterlimit:10"/><circle cx="636.18" cy="133.03" r="2.2" style="stroke-width:1.2;fill:#000;stroke:#000;stroke-linecap:round;stroke-linejoin:round;stroke-miterlimit:10"/><line x1="303.84" y1="291.61" x2="303.84" y2="348.14" style="stroke-width:1.07;stroke:#959494;stroke-linecap:butt;fill:none;stroke-linejoin:round;stroke-miterlimit:10"/><polyline points="299.17 343.48 303.84 348.14 308.5 343.48" style="stroke-width:1.07;stroke:#959494;stroke-linecap:butt;fill:none;stroke-linejoin:round;stroke-miterlimit:10"/><line x1="344.46" y1="227" x2="344.46" y2="385.83" style="stroke-width:1.07;stroke:#959494;stroke-linecap:butt;fill:none;stroke-linejoin:round;stroke-miterlimit:10"/><polyline points="339.79 381.16 344.46 385.83 349.12 381.16" style="stroke-width:1.07;stroke:#959494;stroke-linecap:butt;fill:none;stroke-linejoin:round;stroke-miterlimit:10"/><line x1="403.54" y1="291.61" x2="403.54" y2="391.21" style="stroke-width:1.07;stroke:#959494;stroke-linecap:butt;fill:none;stroke-linejoin:round;stroke-miterlimit:10"/><polyline points="398.87 386.55 403.54 391.21 408.2 386.55" style="stroke-width:1.07;stroke:#959494;stroke-linecap:butt;fill:none;stroke-linejoin:round;stroke-miterlimit:10"/><line x1="506.93" y1="181.24" x2="506.93" y2="278.15" style="stroke-width:1.07;stroke:#959494;stroke-linecap:butt;fill:none;stroke-linejoin:round;stroke-miterlimit:10"/><polyline points="502.27 273.49 506.93 278.15 511.6 273.49" style="stroke-width:1.07;stroke:#959494;stroke-linecap:butt;fill:none;stroke-linejoin:round;stroke-miterlimit:10"/><line x1="532.78" y1="73.56" x2="532.78" y2="122.01" style="stroke-width:1.07;stroke:#959494;stroke-linecap:butt;fill:none;stroke-linejoin:round;stroke-miterlimit:10"/><polyline points="528.12 117.35 532.78 122.01 537.44 117.35" style="stroke-width:1.07;stroke:#959494;stroke-linecap:butt;fill:none;stroke-linejoin:round;stroke-miterlimit:10"/><line x1="569.71" y1="181.24" x2="569.71" y2="227" style="stroke-width:1.07;stroke:#959494;stroke-linecap:butt;fill:none;stroke-linejoin:round;stroke-miterlimit:10"/><polyline points="565.04 222.34 569.71 227 574.37 222.34" style="stroke-width:1.07;stroke:#959494;stroke-linecap:butt;fill:none;stroke-linejoin:round;stroke-miterlimit:10"/><line x1="636.18" y1="57.41" x2="636.18" y2="122.01" style="stroke-width:1.07;stroke:#959494;stroke-linecap:butt;fill:none;stroke-linejoin:round;stroke-miterlimit:10"/><polyline points="631.51 117.35 636.18 122.01 640.84 117.35" style="stroke-width:1.07;stroke:#959494;stroke-linecap:butt;fill:none;stroke-linejoin:round;stroke-miterlimit:10"/><text x="288.86" y="259.75" style="font-size:14px;font-weight:700;font-family:Asap" textLength="29.95" lengthAdjust="spacingAndGlyphs">1918</text><text x="267.83" y="276.48" style="font-size:14px;font-family:Asap" textLength="23.34" lengthAdjust="spacingAndGlyphs">End</text><text x="294.53" y="276.48" style="font-size:14px;font-family:Asap" textLength="12.51" lengthAdjust="spacingAndGlyphs">of</text><text x="310.41" y="276.48" style="font-size:14px;font-family:Asap" textLength="29.43" lengthAdjust="spacingAndGlyphs">WWI</text><text x="286.27" y="200.52" style="font-size:14px;font-weight:700;font-family:Asap" textLength="29.95" lengthAdjust="spacingAndGlyphs">1929</text><text x="319.59" y="200.52" style="font-size:14px;font-family:Asap" textLength="29.33" lengthAdjust="spacingAndGlyphs">Start</text><text x="352.27" y="200.52" style="font-size:14px;font-family:Asap" textLength="12.51" lengthAdjust="spacingAndGlyphs">of</text><text x="368.15" y="200.52" style="font-size:14px;font-family:Asap" textLength="34.49" lengthAdjust="spacingAndGlyphs">Great</text><text x="309.96" y="217.26" style="font-size:14px;font-family:Asap" textLength="69" lengthAdjust="spacingAndGlyphs">Depression</text><text x="388.56" y="259.75" style="font-size:14px;font-weight:700;font-family:Asap" textLength="29.95" lengthAdjust="spacingAndGlyphs">1945</text><text x="365.55" y="276.48" style="font-size:14px;font-family:Asap" textLength="23.34" lengthAdjust="spacingAndGlyphs">End</text><text x="392.26" y="276.48" style="font-size:14px;font-family:Asap" textLength="12.51" lengthAdjust="spacingAndGlyphs">of</text><text x="408.13" y="276.48" style="font-size:14px;font-family:Asap" textLength="33.39" lengthAdjust="spacingAndGlyphs">WWII</text><text x="466.2" y="138.32" style="font-size:14px;font-weight:700;font-family:Asap" textLength="51.93" lengthAdjust="spacingAndGlyphs">1973–74</text><text x="469.35" y="155.05" style="font-size:14px;font-family:Asap" textLength="26.45" lengthAdjust="spacingAndGlyphs">First</text><text x="499.15" y="155.05" style="font-size:14px;font-family:Asap" textLength="15.83" lengthAdjust="spacingAndGlyphs">oil</text><text x="474.3" y="171.79" style="font-size:14px;font-family:Asap" textLength="35.73" lengthAdjust="spacingAndGlyphs">shock</text><text x="506.82" y="47.08" style="font-size:14px;font-weight:700;font-family:Asap" textLength="51.93" lengthAdjust="spacingAndGlyphs">1979–80</text><text x="481.14" y="63.82" style="font-size:14px;font-family:Asap" textLength="45" lengthAdjust="spacingAndGlyphs">Second</text><text x="529.5" y="63.82" style="font-size:14px;font-family:Asap" textLength="15.83" lengthAdjust="spacingAndGlyphs">oil</text><text x="548.69" y="63.82" style="font-size:14px;font-family:Asap" textLength="35.73" lengthAdjust="spacingAndGlyphs">shock</text><text x="565.81" y="121.87" style="font-size:14px;font-weight:700;font-family:Asap" textLength="29.95" lengthAdjust="spacingAndGlyphs">1990</text><text x="546.2" y="138.61" style="font-size:14px;font-family:Asap" textLength="69.17" lengthAdjust="spacingAndGlyphs">Dissolution</text><text x="542.15" y="155.35" style="font-size:14px;font-family:Asap" textLength="12.51" lengthAdjust="spacingAndGlyphs">of</text><text x="558.03" y="155.35" style="font-size:14px;font-family:Asap" textLength="20.24" lengthAdjust="spacingAndGlyphs">the</text><text x="581.63" y="155.35" style="font-size:14px;font-family:Asap" textLength="37.79" lengthAdjust="spacingAndGlyphs">Soviet</text><text x="562.17" y="172.08" style="font-size:14px;font-family:Asap" textLength="37.23" lengthAdjust="spacingAndGlyphs">Union</text><text x="575.49" y="36.31" style="font-size:14px;font-weight:700;font-family:Asap" textLength="29.95" lengthAdjust="spacingAndGlyphs">2008</text><text x="608.8" y="36.31" style="font-size:14px;font-family:Asap" textLength="29.33" lengthAdjust="spacingAndGlyphs">Start</text><text x="641.49" y="36.31" style="font-size:14px;font-family:Asap" textLength="12.51" lengthAdjust="spacingAndGlyphs">of</text><text x="657.37" y="36.31" style="font-size:14px;font-family:Asap" textLength="39.5" lengthAdjust="spacingAndGlyphs">global</text><text x="592.17" y="53.05" style="font-size:14px;font-family:Asap" textLength="53.76" lengthAdjust="spacingAndGlyphs">financial</text><text x="649.29" y="53.05" style="font-size:14px;font-family:Asap" textLength="30.9" lengthAdjust="spacingAndGlyphs">crisis</text><text x="135.91" y="205.91" style="font-size:14px;fill:#ed1f24;font-family:Asap" textLength="31.15" lengthAdjust="spacingAndGlyphs">Price</text><text x="170.42" y="205.91" style="font-size:14px;fill:#ed1f24;font-family:Asap" textLength="20.69" lengthAdjust="spacingAndGlyphs">per</text><text x="144.75" y="222.65" style="font-size:14px;fill:#ed1f24;font-family:Asap" textLength="37.54" lengthAdjust="spacingAndGlyphs">barrel</text><text x="481.91" y="435.02" style="font-size:14px;fill:#3a53a4;font-family:Asap" textLength="18.09" lengthAdjust="spacingAndGlyphs">Oil</text><text x="503.37" y="435.02" style="font-size:14px;fill:#3a53a4;font-family:Asap" textLength="80.28" lengthAdjust="spacingAndGlyphs">consumption</text><polyline points="93.36 447.74 93.36 70.87" style="stroke-width:1.07;stroke:#464646;stroke-linecap:butt;fill:none;stroke-linejoin:round;stroke-miterlimit:10"/><text x="66.67" y="452.15" style="font-size:18px;font-family:Asap" textLength="9.63" lengthAdjust="spacingAndGlyphs">0</text><text x="57.04" y="398.31" style="font-size:18px;font-family:Asap" textLength="19.27" lengthAdjust="spacingAndGlyphs">20</text><text x="57.04" y="344.47" style="font-size:18px;font-family:Asap" textLength="19.27" lengthAdjust="spacingAndGlyphs">40</text><text x="57.04" y="290.63" style="font-size:18px;font-family:Asap" textLength="19.27" lengthAdjust="spacingAndGlyphs">60</text><text x="57.04" y="236.8" style="font-size:18px;font-family:Asap" textLength="19.27" lengthAdjust="spacingAndGlyphs">80</text><text x="47.41" y="182.96" style="font-size:18px;font-family:Asap" textLength="28.9" lengthAdjust="spacingAndGlyphs">100</text><text x="47.41" y="129.12" style="font-size:18px;font-family:Asap" textLength="28.9" lengthAdjust="spacingAndGlyphs">120</text><text x="47.41" y="75.28" style="font-size:18px;font-family:Asap" textLength="28.9" lengthAdjust="spacingAndGlyphs">140</text><polyline points="86.27 447.74 93.36 447.74" style="stroke-width:1.07;stroke:#464646;stroke-linecap:butt;fill:none;stroke-linejoin:round;stroke-miterlimit:10"/><polyline points="86.27 393.9 93.36 393.9" style="stroke-width:1.07;stroke:#464646;stroke-linecap:butt;fill:none;stroke-linejoin:round;stroke-miterlimit:10"/><polyline points="86.27 340.06 93.36 340.06" style="stroke-width:1.07;stroke:#464646;stroke-linecap:butt;fill:none;stroke-linejoin:round;stroke-miterlimit:10"/><polyline points="86.27 286.22 93.36 286.22" style="stroke-width:1.07;stroke:#464646;stroke-linecap:butt;fill:none;stroke-linejoin:round;stroke-miterlimit:10"/><polyline points="86.27 232.39 93.36 232.39" style="stroke-width:1.07;stroke:#464646;stroke-linecap:butt;fill:none;stroke-linejoin:round;stroke-miterlimit:10"/><polyline points="86.27 178.55 93.36 178.55" style="stroke-width:1.07;stroke:#464646;stroke-linecap:butt;fill:none;stroke-linejoin:round;stroke-miterlimit:10"/><polyline points="86.27 124.71 93.36 124.71" style="stroke-width:1.07;stroke:#464646;stroke-linecap:butt;fill:none;stroke-linejoin:round;stroke-miterlimit:10"/><polyline points="86.27 70.87 93.36 70.87" style="stroke-width:1.07;stroke:#464646;stroke-linecap:butt;fill:none;stroke-linejoin:round;stroke-miterlimit:10"/><polyline points="684.18 447.74 684.18 70.87" style="stroke-width:1.07;stroke:#464646;stroke-linecap:butt;fill:none;stroke-linejoin:round;stroke-miterlimit:10"/><polyline points="684.18 447.74 691.27 447.74" style="stroke-width:1.07;stroke:#464646;stroke-linecap:butt;fill:none;stroke-linejoin:round;stroke-miterlimit:10"/><polyline points="684.18 259.31 691.27 259.31" style="stroke-width:1.07;stroke:#464646;stroke-linecap:butt;fill:none;stroke-linejoin:round;stroke-miterlimit:10"/><polyline points="684.18 70.87 691.27 70.87" style="stroke-width:1.07;stroke:#464646;stroke-linecap:butt;fill:none;stroke-linejoin:round;stroke-miterlimit:10"/><text x="701.23" y="454.06" style="font-size:18px;font-family:Asap" textLength="51.73" lengthAdjust="spacingAndGlyphs">30,000</text><text x="701.23" y="265.62" style="font-size:18px;font-family:Asap" textLength="51.73" lengthAdjust="spacingAndGlyphs">60,000</text><text x="701.23" y="77.18" style="font-size:18px;font-family:Asap" textLength="61.37" lengthAdjust="spacingAndGlyphs">120,000</text><polyline points="93.36 447.74 684.18 447.74" style="stroke-width:1.07;stroke:#464646;stroke-linecap:butt;fill:none;stroke-linejoin:round;stroke-miterlimit:10"/><polyline points="93.36 454.83 93.36 447.74" style="stroke-width:1.07;stroke:#464646;stroke-linecap:butt;fill:none;stroke-linejoin:round;stroke-miterlimit:10"/><polyline points="130.28 454.83 130.28 447.74" style="stroke-width:1.07;stroke:#464646;stroke-linecap:butt;fill:none;stroke-linejoin:round;stroke-miterlimit:10"/><polyline points="167.21 454.83 167.21 447.74" style="stroke-width:1.07;stroke:#464646;stroke-linecap:butt;fill:none;stroke-linejoin:round;stroke-miterlimit:10"/><polyline points="204.13 454.83 204.13 447.74" style="stroke-width:1.07;stroke:#464646;stroke-linecap:butt;fill:none;stroke-linejoin:round;stroke-miterlimit:10"/><polyline points="241.06 454.83 241.06 447.74" style="stroke-width:1.07;stroke:#464646;stroke-linecap:butt;fill:none;stroke-linejoin:round;stroke-miterlimit:10"/><polyline points="277.99 454.83 277.99 447.74" style="stroke-width:1.07;stroke:#464646;stroke-linecap:butt;fill:none;stroke-linejoin:round;stroke-miterlimit:10"/><polyline points="314.91 454.83 314.91 447.74" style="stroke-width:1.07;stroke:#464646;stroke-linecap:butt;fill:none;stroke-linejoin:round;stroke-miterlimit:10"/><polyline points="351.84 454.83 351.84 447.74" style="stroke-width:1.07;stroke:#464646;stroke-linecap:butt;fill:none;stroke-linejoin:round;stroke-miterlimit:10"/><polyline points="388.77 454.83 388.77 447.74" style="stroke-width:1.07;stroke:#464646;stroke-linecap:butt;fill:none;stroke-linejoin:round;stroke-miterlimit:10"/><polyline points="425.69 454.83 425.69 447.74" style="stroke-width:1.07;stroke:#464646;stroke-linecap:butt;fill:none;stroke-linejoin:round;stroke-miterlimit:10"/><polyline points="462.62 454.83 462.62 447.74" style="stroke-width:1.07;stroke:#464646;stroke-linecap:butt;fill:none;stroke-linejoin:round;stroke-miterlimit:10"/><polyline points="499.55 454.83 499.55 447.74" style="stroke-width:1.07;stroke:#464646;stroke-linecap:butt;fill:none;stroke-linejoin:round;stroke-miterlimit:10"/><polyline points="536.47 454.83 536.47 447.74" style="stroke-width:1.07;stroke:#464646;stroke-linecap:butt;fill:none;stroke-linejoin:round;stroke-miterlimit:10"/><polyline points="573.4 454.83 573.4 447.74" style="stroke-width:1.07;stroke:#464646;stroke-linecap:butt;fill:none;stroke-linejoin:round;stroke-miterlimit:10"/><polyline points="610.33 454.83 610.33 447.74" style="stroke-width:1.07;stroke:#464646;stroke-linecap:butt;fill:none;stroke-linejoin:round;stroke-miterlimit:10"/><polyline points="647.25 454.83 647.25 447.74" style="stroke-width:1.07;stroke:#464646;stroke-linecap:butt;fill:none;stroke-linejoin:round;stroke-miterlimit:10"/><polyline points="684.18 454.83 684.18 447.74" style="stroke-width:1.07;stroke:#464646;stroke-linecap:butt;fill:none;stroke-linejoin:round;stroke-miterlimit:10"/><text x="78.38" y="474.62" style="font-size:14px;font-family:Asap" textLength="29.95" lengthAdjust="spacingAndGlyphs">1861</text><text x="115.31" y="474.62" style="font-size:14px;font-family:Asap" textLength="29.95" lengthAdjust="spacingAndGlyphs">1871</text><text x="152.23" y="474.62" style="font-size:14px;font-family:Asap" textLength="29.95" lengthAdjust="spacingAndGlyphs">1881</text><text x="189.16" y="474.62" style="font-size:14px;font-family:Asap" textLength="29.95" lengthAdjust="spacingAndGlyphs">1891</text><text x="226.09" y="474.62" style="font-size:14px;font-family:Asap" textLength="29.95" lengthAdjust="spacingAndGlyphs">1901</text><text x="263.01" y="474.62" style="font-size:14px;font-family:Asap" textLength="29.95" lengthAdjust="spacingAndGlyphs">1911</text><text x="299.94" y="474.62" style="font-size:14px;font-family:Asap" textLength="29.95" lengthAdjust="spacingAndGlyphs">1921</text><text x="336.87" y="474.62" style="font-size:14px;font-family:Asap" textLength="29.95" lengthAdjust="spacingAndGlyphs">1931</text><text x="373.79" y="474.62" style="font-size:14px;font-family:Asap" textLength="29.95" lengthAdjust="spacingAndGlyphs">1941</text><text x="410.72" y="474.62" style="font-size:14px;font-family:Asap" textLength="29.95" lengthAdjust="spacingAndGlyphs">1951</text><text x="447.64" y="474.62" style="font-size:14px;font-family:Asap" textLength="29.95" lengthAdjust="spacingAndGlyphs">1961</text><text x="484.57" y="474.62" style="font-size:14px;font-family:Asap" textLength="29.95" lengthAdjust="spacingAndGlyphs">1971</text><text x="521.5" y="474.62" style="font-size:14px;font-family:Asap" textLength="29.95" lengthAdjust="spacingAndGlyphs">1981</text><text x="558.42" y="474.62" style="font-size:14px;font-family:Asap" textLength="29.95" lengthAdjust="spacingAndGlyphs">1991</text><text x="595.35" y="474.62" style="font-size:14px;font-family:Asap" textLength="29.95" lengthAdjust="spacingAndGlyphs">2001</text><text x="632.28" y="474.62" style="font-size:14px;font-family:Asap" textLength="29.95" lengthAdjust="spacingAndGlyphs">2011</text><text x="669.2" y="474.62" style="font-size:14px;font-family:Asap" textLength="29.95" lengthAdjust="spacingAndGlyphs">2021</text><text x="368.68" y="506.59" style="font-size:20px;font-weight:600;font-family:Asap" textLength="40.18" lengthAdjust="spacingAndGlyphs">Year</text><text transform="rotate(-90 237.98 209.76)" style="font-size:20px;font-weight:600;fill:#ed1f24;font-family:Asap" textLength="44.5" lengthAdjust="spacingAndGlyphs">Price</text><text transform="rotate(-90 213.335 185.115)" style="font-size:20px;font-weight:600;fill:#ed1f24;font-family:Asap" textLength="29.56" lengthAdjust="spacingAndGlyphs">per</text><text transform="rotate(-90 196.15 167.93)" style="font-size:20px;font-weight:600;fill:#ed1f24;font-family:Asap" textLength="57.61" lengthAdjust="spacingAndGlyphs">barrel,</text><text transform="rotate(-90 164.945 136.725)" style="font-size:20px;font-weight:600;font-style:italic;fill:#ed1f24;font-family:Asap" textLength="11.4" lengthAdjust="spacingAndGlyphs">P</text><text transform="rotate(-90 156.845 128.625)" style="font-size:20px;font-weight:600;fill:#ed1f24;font-family:Asap" textLength="48.82" lengthAdjust="spacingAndGlyphs">(2020</text><text transform="rotate(-90 130.035 101.815)" style="font-size:20px;font-weight:600;fill:#ed1f24;font-family:Asap" textLength="24.24" lengthAdjust="spacingAndGlyphs">US</text><text transform="rotate(-90 115.515 87.295)" style="font-size:20px;font-weight:600;fill:#ed1f24;font-family:Asap" textLength="67.07" lengthAdjust="spacingAndGlyphs">dollars)</text><text transform="rotate(-90 636.2 -155.39)" style="font-size:20px;font-weight:600;fill:#3a53a4;font-family:Asap" textLength="25.86" lengthAdjust="spacingAndGlyphs">Oil</text><text transform="rotate(-90 620.87 -170.72)" style="font-size:20px;font-weight:600;fill:#3a53a4;font-family:Asap" textLength="114.7" lengthAdjust="spacingAndGlyphs">consumption</text><text transform="rotate(-90 561.115 -230.475)" style="font-size:20px;font-weight:600;fill:#3a53a4;font-family:Asap" textLength="47.76" lengthAdjust="spacingAndGlyphs">(ratio</text><text transform="rotate(-90 534.835 -256.755)" style="font-size:20px;font-weight:600;fill:#3a53a4;font-family:Asap" textLength="49.54" lengthAdjust="spacingAndGlyphs">scale:</text><text transform="rotate(-90 507.665 -283.925)" style="font-size:20px;font-weight:600;fill:#3a53a4;font-family:Asap" textLength="90.53" lengthAdjust="spacingAndGlyphs">thousands</text><text transform="rotate(-90 460 -331.59)" style="font-size:20px;font-weight:600;fill:#3a53a4;font-family:Asap" textLength="17.88" lengthAdjust="spacingAndGlyphs">of</text><text transform="rotate(-90 448.655 -342.935)" style="font-size:20px;font-weight:600;fill:#3a53a4;font-family:Asap" textLength="67.92" lengthAdjust="spacingAndGlyphs">barrels)</text></g></svg>