<svg version="1.1" xmlns="http://www.w3.org/2000/svg" x="0" y="0" viewBox="0 0 311.81 197.84" style="enable-background:new 0 0 311.81 197.84" xml:space="preserve"><switch><g><path style="fill:none;stroke:#3a53a4;stroke-width:.5;stroke-linejoin:round" d="M41.02 135.85c94.85-9.6 181.16-50.15 255.38-101.83"/><text transform="rotate(-90 58.225 48.56)"><tspan x="0" y="0" style="font-family:'Asap-Medium';font-size:8px">Price, </tspan><tspan x="21.3" y="0" style="font-family:'Asap-MediumItalic';font-size:8px">P</tspan><tspan x="25.86" y="0" style="font-family:'Asap-Medium';font-size:8px"> (€</tspan><tspan x="34.83" y="0" style="font-family:'Asap-Regular';font-size:8px">)</tspan></text><line style="fill:none;stroke:#6d6e71;stroke-width:.5;stroke-linecap:square;stroke-linejoin:round" x1="298" y1="168.96" x2="298" y2="171.09"/><line style="fill:none;stroke:#6d6e71;stroke-width:.5;stroke-linecap:square;stroke-linejoin:round" x1="272.69" y1="168.96" x2="272.69" y2="171.09"/><line style="fill:none;stroke:#6d6e71;stroke-width:.5;stroke-linecap:square;stroke-linejoin:round" x1="246.88" y1="168.96" x2="246.88" y2="171.09"/><line style="fill:none;stroke:#6d6e71;stroke-width:.5;stroke-linecap:square;stroke-linejoin:round" x1="221.08" y1="168.96" x2="221.08" y2="171.09"/><line style="fill:none;stroke:#6d6e71;stroke-width:.5;stroke-linecap:square;stroke-linejoin:round" x1="195.27" y1="168.96" x2="195.27" y2="171.09"/><line style="fill:none;stroke:#6d6e71;stroke-width:.5;stroke-linecap:square;stroke-linejoin:round" x1="169.47" y1="168.96" x2="169.47" y2="171.09"/><line style="fill:none;stroke:#6d6e71;stroke-width:.5;stroke-linecap:square;stroke-linejoin:round" x1="143.66" y1="168.96" x2="143.66" y2="171.09"/><line style="fill:none;stroke:#6d6e71;stroke-width:.5;stroke-linecap:square;stroke-linejoin:round" x1="118.35" y1="168.96" x2="118.35" y2="171.09"/><line style="fill:none;stroke:#6d6e71;stroke-width:.5;stroke-linecap:square;stroke-linejoin:round" x1="92.55" y1="168.96" x2="92.55" y2="171.09"/><line style="fill:none;stroke:#6d6e71;stroke-width:.5;stroke-linecap:square;stroke-linejoin:round" x1="66.75" y1="168.96" x2="66.75" y2="171.09"/><line style="fill:none;stroke:#6d6e71;stroke-width:.5;stroke-linecap:square;stroke-linejoin:round" x1="40.94" y1="168.96" x2="40.94" y2="171.09"/><line style="fill:none;stroke:#6d6e71;stroke-width:.5;stroke-linecap:square;stroke-linejoin:round" x1="40.94" y1="168.53" x2="298" y2="168.53"/><text transform="translate(137.122 195.075)"><tspan x="0" y="0" style="font-family:'Asap-Medium';font-size:8px">Quantity of loaves, </tspan><tspan x="67.84" y="0" style="font-family:'Asap-MediumItalic';font-size:8px">Q</tspan></text><text transform="translate(38.706 180.684)" style="font-family:'Asap-Regular';font-size:7px">0</text><text transform="translate(57.068 180.684)" style="font-family:'Asap-Regular';font-size:7px">1,000</text><text transform="translate(82.873 180.684)" style="font-family:'Asap-Regular';font-size:7px">2,000</text><text transform="translate(108.678 180.684)" style="font-family:'Asap-Regular';font-size:7px">3,000</text><text transform="translate(134.482 180.684)" style="font-family:'Asap-Regular';font-size:7px">4,000</text><text transform="translate(160.287 180.684)" style="font-family:'Asap-Regular';font-size:7px">5,000</text><text transform="translate(185.596 180.684)" style="font-family:'Asap-Regular';font-size:7px">6,000</text><text transform="translate(211.402 180.684)" style="font-family:'Asap-Regular';font-size:7px">7,000</text><text transform="translate(237.206 180.684)" style="font-family:'Asap-Regular';font-size:7px">8,000</text><text transform="translate(263.01 180.684)" style="font-family:'Asap-Regular';font-size:7px">9,000</text><text transform="translate(286.83 180.684)" style="font-family:'Asap-Regular';font-size:7px">10,000</text><path style="fill:none;stroke:#ed2124;stroke-width:.5;stroke-linejoin:round" d="M41.02 14.82C116.92 81.4 204.99 127.44 298 157.54"/><text transform="translate(232.444 32.448)" style="fill:#231f20;font-family:'Asap-Regular';font-size:6px">Supply (marginal cost)</text><text transform="translate(263.592 140.837)" style="fill:#231f20;font-family:'Asap-Regular';font-size:6px">Demand</text><line style="fill:none;stroke:#6d6e71;stroke-width:.5;stroke-linecap:square;stroke-linejoin:round" x1="40.51" y1="5.76" x2="38.38" y2="5.76"/><line style="fill:none;stroke:#6d6e71;stroke-width:.5;stroke-linecap:square;stroke-linejoin:round" x1="40.51" y1="38.31" x2="38.38" y2="38.31"/><line style="fill:none;stroke:#6d6e71;stroke-width:.5;stroke-linecap:square;stroke-linejoin:round" x1="40.51" y1="70.86" x2="38.38" y2="70.86"/><line style="fill:none;stroke:#6d6e71;stroke-width:.5;stroke-linecap:square;stroke-linejoin:round" x1="40.51" y1="168.53" x2="38.38" y2="168.53"/><line style="fill:none;stroke:#6d6e71;stroke-width:.5;stroke-linecap:square;stroke-linejoin:round" x1="40.51" y1="135.97" x2="38.38" y2="135.97"/><line style="fill:none;stroke:#6d6e71;stroke-width:.5;stroke-linecap:square;stroke-linejoin:round" x1="40.51" y1="103.42" x2="38.38" y2="103.42"/><polyline style="fill:none;stroke:#939598;stroke-width:.5;stroke-linejoin:round;stroke-dasharray:1.4173" points="40.51 103.42 169.47 103.42 169.47 168.28"/><circle cx="169.47" cy="103.42" r="1.13"/><text transform="translate(168.005 90.842)" style="font-family:'Asap-Regular';font-size:6px">A</text><text transform="translate(27.051 8.486)" style="font-family:'Asap-Regular';font-size:7px">5</text><text transform="translate(27.051 40.886)" style="font-family:'Asap-Regular';font-size:7px">4</text><text transform="translate(27.051 73.286)" style="font-family:'Asap-Regular';font-size:7px">3</text><text transform="translate(27.051 105.686)" style="font-family:'Asap-Regular';font-size:7px">2</text><text transform="translate(27.051 138.086)" style="font-family:'Asap-Regular';font-size:7px">1</text><text transform="translate(27.051 170.486)" style="font-family:'Asap-Regular';font-size:7px">0</text><line style="fill:none;stroke:#6d6e71;stroke-width:.5;stroke-linecap:square;stroke-linejoin:round" x1="40.94" y1="168.53" x2="40.94" y2="5.76"/></g></switch></svg>