<svg version="1.1" xmlns="http://www.w3.org/2000/svg" x="0" y="0" viewBox="0 0 311.81 231.43" style="enable-background:new 0 0 311.81 231.43" xml:space="preserve"><line style="fill:none;stroke:#939598;stroke-width:.5;stroke-linejoin:round;stroke-dasharray:1.4173" x1="239.09" y1="205" x2="239.09" y2="126"/><line style="fill:none;stroke:#939598;stroke-width:.5;stroke-linejoin:round;stroke-dasharray:1.4173" x1="223.04" y1="205" x2="223.04" y2="115"/><line style="fill:none;stroke:#939598;stroke-width:.5;stroke-linejoin:round;stroke-dasharray:1.4173" x1="172.99" y1="205" x2="172.99" y2="62"/><line style="fill:none;stroke:#939598;stroke-width:.5;stroke-linejoin:round;stroke-dasharray:1.4173" x1="156" y1="205" x2="156.11" y2="32"/><path style="fill:none;stroke:#3b54a4;stroke-width:.5" d="M145 2c12.31 56.59 80.97 140.22 161 149.17"/><line style="fill:none;stroke:#ea2728;stroke-width:.5;stroke-linejoin:round" x1="35" y1="115.03" x2="306" y2="115.03"/><line style="fill:none;stroke:#6d6e71;stroke-width:.5;stroke-linecap:square" x1="35" y1="204.61" x2="306" y2="204.61"/><line style="fill:none;stroke:#6d6e71;stroke-width:.5;stroke-linecap:square;stroke-linejoin:round" x1="34.84" y1="2" x2="34.84" y2="205"/><line style="fill:none;stroke:#6d6e71;stroke-width:.5;stroke-linecap:square;stroke-linejoin:round" x1="34.84" y1="79.23" x2="32.72" y2="79.23"/><text transform="translate(26.665 206.758)" style="font-family:'Asap-Regular';font-size:7px">0</text><text transform="translate(19.176 175.579)" style="font-family:'Asap-Regular';font-size:7px">100</text><text transform="translate(19.175 144.4)" style="font-family:'Asap-Regular';font-size:7px">200</text><text transform="translate(19.175 113.22)" style="font-family:'Asap-Regular';font-size:7px">300</text><text transform="translate(19.175 82.04)" style="font-family:'Asap-Regular';font-size:7px">400</text><text transform="translate(19.175 50.86)" style="font-family:'Asap-Regular';font-size:7px">500</text><text transform="translate(19.175 19.681)" style="font-family:'Asap-Regular';font-size:7px">600</text><text transform="matrix(0 -.9726 1 0 8.33 144.763)" style="font-family:'Asap-Medium';font-size:8px">Consumption spending (€)</text><text transform="translate(33.361 215.943)" style="font-family:'Asap-Regular';font-size:7px">8</text><text transform="translate(49.906 215.935)" style="font-family:'Asap-Regular';font-size:7px">9</text><text transform="translate(64.45 215.942)" style="font-family:'Asap-Regular';font-size:7px">10</text><text transform="translate(81.739 215.914)" style="font-family:'Asap-Regular';font-size:7px">11</text><text transform="translate(99.027 215.942)" style="font-family:'Asap-Regular';font-size:7px">12</text><text transform="translate(115.316 215.943)" style="font-family:'Asap-Regular';font-size:7px">13</text><text transform="translate(132.605 215.914)" style="font-family:'Asap-Regular';font-size:7px">14</text><text transform="translate(150.894 215.914)" style="font-family:'Asap-Regular';font-size:7px">15</text><text transform="translate(167.184 215.914)" style="font-family:'Asap-Regular';font-size:7px">16</text><text transform="translate(183.472 215.915)" style="font-family:'Asap-Regular';font-size:7px">17</text><text transform="translate(200.76 215.942)" style="font-family:'Asap-Regular';font-size:7px">18</text><text transform="translate(218.049 215.935)" style="font-family:'Asap-Regular';font-size:7px">19</text><text transform="translate(235.338 215.942)" style="font-family:'Asap-Regular';font-size:7px">20</text><text transform="translate(252.626 215.943)" style="font-family:'Asap-Regular';font-size:7px">21</text><text transform="translate(268.915 215.943)" style="font-family:'Asap-Regular';font-size:7px">22</text><text transform="translate(286.204 215.943)" style="font-family:'Asap-Regular';font-size:7px">23</text><text transform="translate(302.493 215.943)" style="font-family:'Asap-Regular';font-size:7px">24</text><line style="fill:none;stroke:#6d6e71;stroke-width:.5;stroke-linecap:square" x1="290.11" y1="204.65" x2="290.11" y2="206.68"/><line style="fill:none;stroke:#6d6e71;stroke-width:.5;stroke-linecap:square" x1="273.09" y1="204.55" x2="273.09" y2="206.68"/><line style="fill:none;stroke:#6d6e71;stroke-width:.5;stroke-linecap:square" x1="256.07" y1="204.55" x2="256.07" y2="206.68"/><line style="fill:none;stroke:#6d6e71;stroke-width:.5;stroke-linecap:square" x1="205.02" y1="204.55" x2="205.02" y2="206.68"/><line style="fill:none;stroke:#6d6e71;stroke-width:.5;stroke-linecap:square" x1="306.13" y1="206.78" x2="306.13" y2="204.65"/><line style="fill:none;stroke:#6d6e71;stroke-width:.5;stroke-linecap:square" x1="188" y1="204.55" x2="188" y2="206.68"/><line style="fill:none;stroke:#6d6e71;stroke-width:.5;stroke-linecap:square" x1="172.99" y1="204.55" x2="172.99" y2="206.68"/><line style="fill:none;stroke:#6d6e71;stroke-width:.5;stroke-linecap:square" x1="155.97" y1="204.55" x2="155.97" y2="206.68"/><line style="fill:none;stroke:#6d6e71;stroke-width:.5;stroke-linecap:square" x1="136.95" y1="204.55" x2="136.95" y2="206.68"/><line style="fill:none;stroke:#6d6e71;stroke-width:.5;stroke-linecap:square" x1="119.93" y1="204.55" x2="119.93" y2="206.68"/><line style="fill:none;stroke:#6d6e71;stroke-width:.5;stroke-linecap:square" x1="102.92" y1="204.55" x2="102.92" y2="206.68"/><line style="fill:none;stroke:#6d6e71;stroke-width:.5;stroke-linecap:square" x1="85.9" y1="204.55" x2="85.9" y2="206.68"/><line style="fill:none;stroke:#6d6e71;stroke-width:.5;stroke-linecap:square" x1="68.88" y1="204.55" x2="68.88" y2="206.68"/><line style="fill:none;stroke:#6d6e71;stroke-width:.5;stroke-linecap:square" x1="51.86" y1="204.55" x2="51.86" y2="206.68"/><line style="fill:none;stroke:#939598;stroke-width:.5;stroke-linejoin:round;stroke-dasharray:1.4173" x1="35" y1="126.36" x2="239" y2="126.36"/><circle style="fill:#000101" cx="239.14" cy="126.36" r="1.13"/><line style="fill:none;stroke:#939598;stroke-width:.5;stroke-linejoin:round;stroke-dasharray:1.4173" x1="35" y1="62.5" x2="174" y2="62.5"/><circle style="fill:#000101" cx="172.96" cy="62.48" r="1.13"/><line style="fill:none;stroke:#939598;stroke-width:.5;stroke-linejoin:round;stroke-dasharray:1.4173" x1="35" y1="32.48" x2="155" y2="32.48"/><text transform="translate(220.912 106.485)" style="font-family:'Asap-Regular';font-size:7px">H</text><text transform="translate(242.422 122.485)" style="font-family:'Asap-Regular';font-size:7px">D</text><text transform="translate(175.422 58.485)" style="font-family:'Asap-Regular';font-size:7px">E</text><text transform="translate(162.422 29.485)" style="font-family:'Asap-Regular';font-size:7px">A</text><text transform="translate(124.45 228.64)" style="font-family:'Asap-Medium';font-size:8px">Hours of free time per day</text><line style="fill:none;stroke:#6d6e71;stroke-width:.5;stroke-linecap:square;stroke-linejoin:round" x1="34.84" y1="141.92" x2="32.72" y2="141.92"/><line style="fill:none;stroke:#6d6e71;stroke-width:.5;stroke-linecap:square;stroke-linejoin:round" x1="34.84" y1="110.57" x2="32.72" y2="110.57"/><line style="fill:none;stroke:#6d6e71;stroke-width:.5;stroke-linecap:square;stroke-linejoin:round" x1="34.84" y1="173.27" x2="32.72" y2="173.27"/><line style="fill:none;stroke:#6d6e71;stroke-width:.5;stroke-linecap:square;stroke-linejoin:round" x1="34.84" y1="47.88" x2="32.72" y2="47.88"/><circle style="fill:#000101" cx="155.96" cy="32.48" r="1.13"/><line style="fill:none;stroke:#6d6e71;stroke-width:.5;stroke-linecap:square" x1="239.06" y1="204.55" x2="239.06" y2="206.68"/><line style="fill:none;stroke:#6d6e71;stroke-width:.5;stroke-linecap:square" x1="223.04" y1="204.55" x2="223.04" y2="206.68"/><line style="fill:none;stroke:#6d6e71;stroke-width:.5;stroke-linecap:square" x1="34.84" y1="204.55" x2="34.84" y2="206.68"/><line style="fill:none;stroke:#6d6e71;stroke-width:.5;stroke-linecap:square" x1="32.72" y1="16.54" x2="34.84" y2="16.54"/><line style="fill:none;stroke:#6d6e71;stroke-width:.5;stroke-linecap:square" x1="32.72" y1="204.61" x2="34.84" y2="204.61"/><circle style="fill:#000101" cx="222.83" cy="115.03" r="1.13"/><path style="fill:none;stroke:#3b54a4;stroke-width:.5" d="M98.27 2.32c21.09 95.41 85.6 161.06 207.67 164.29M59 2c.59 6.39 1.58 14.54 3.34 23.92 2.95 15.71 6.74 27.78 8.9 34.18 2.24 6.62 6.13 17.99 13.35 31.9 4.28 8.24 8.31 16.01 15.58 25.06 7.92 9.87 15.37 15.9 21.14 20.51 5.74 4.59 18.75 14.36 37.83 22.78 18.02 7.96 32.38 10.71 47.84 13.67 16.41 3.14 28.53 4.09 50.07 5.7 18.81 1.4 35.34 2.03 48.95 2.28"/></svg>