<svg version="1.1" xmlns="http://www.w3.org/2000/svg" x="0" y="0" viewBox="0 0 311.81 360" style="enable-background:new 0 0 311.81 360" xml:space="preserve"><line style="fill:none;stroke:#929497;stroke-width:.5;stroke-linejoin:round;stroke-dasharray:1.417" x1="95.53" y1="215.11" x2="95.53" y2="99.91"/><line style="fill:none;stroke:#929497;stroke-width:.5;stroke-linejoin:round;stroke-dasharray:1.417" x1="162.6" y1="302.68" x2="162.6" y2="134.89"/><path style="fill:none;stroke:#ec2427;stroke-width:.5;stroke-miterlimit:10" d="M300.93 159.91c-4.47-.39-11.05-.96-19.01-1.69-18.01-1.65-27.02-2.48-33.83-3.39-14.99-2-26.44-4.41-33.55-5.93-12.58-2.68-21.98-5.21-28.79-7.06-8.76-2.37-15-4.27-20.13-5.93-5.18-1.67-8.78-2.85-13.7-4.8-5.84-2.32-10.28-4.46-15.1-6.78-5.07-2.44-8.92-4.45-11.74-5.93-4.56-2.39-8.89-4.75-11.46-6.21-16.15-9.15-30.2-20.6-31.59-21.74-9.16-7.51-15.65-14.05-18.45-16.94a214.94 214.94 0 01-18.45-21.74"/><line style="fill:none;stroke:#d5daee;stroke-width:.5" x1="301.38" y1="134.89" x2="45.13" y2="134.89"/><line style="fill:none;stroke:#6e6f72;stroke-width:.5;stroke-miterlimit:10" x1="300.93" y1="167.14" x2="44.73" y2="167.14"/><line style="fill:none;stroke:#6e6f71;stroke-width:.5;stroke-linecap:square" x1="300.74" y1="167.14" x2="300.74" y2="169.67"/><line style="fill:none;stroke:#6e6f71;stroke-width:.5;stroke-linecap:square" x1="45.13" y1="167.14" x2="45.13" y2="169.67"/><line style="fill:none;stroke:#6e6f71;stroke-width:.5;stroke-linecap:square" x1="45.13" y1="167.14" x2="42.6" y2="167.14"/><line style="fill:none;stroke:#6e6f71;stroke-width:.5;stroke-linecap:square" x1="45.13" y1="151.02" x2="42.6" y2="151.02"/><line style="fill:none;stroke:#6e6f71;stroke-width:.5;stroke-linecap:square" x1="45.13" y1="134.89" x2="42.6" y2="134.89"/><line style="fill:none;stroke:#6e6f71;stroke-width:.5;stroke-linecap:square" x1="45.13" y1="118.76" x2="42.6" y2="118.76"/><line style="fill:none;stroke:#6e6f71;stroke-width:.5;stroke-linecap:square" x1="45.13" y1="54.26" x2="42.6" y2="54.26"/><line style="fill:none;stroke:#6e6f71;stroke-width:.5;stroke-linecap:square" x1="45.13" y1="70.38" x2="42.6" y2="70.38"/><line style="fill:none;stroke:#6e6f71;stroke-width:.5;stroke-linecap:square" x1="45.13" y1="86.51" x2="42.6" y2="86.51"/><line style="fill:none;stroke:#6e6f71;stroke-width:.5;stroke-linecap:square" x1="45.13" y1="102.64" x2="42.6" y2="102.64"/><line style="fill:none;stroke:#6e6f71;stroke-width:.5;stroke-linecap:square" x1="45.13" y1="5.88" x2="42.6" y2="5.88"/><line style="fill:none;stroke:#6e6f71;stroke-width:.5;stroke-linecap:square" x1="45.13" y1="22" x2="42.6" y2="22"/><line style="fill:none;stroke:#6e6f71;stroke-width:.5;stroke-linecap:square" x1="45.13" y1="38.13" x2="42.6" y2="38.13"/><line style="fill:none;stroke:#6e6f71;stroke-width:.5;stroke-linecap:square" x1="237.32" y1="167.14" x2="237.32" y2="169.67"/><line style="fill:none;stroke:#6e6f71;stroke-width:.5;stroke-linecap:square" x1="173.25" y1="167.14" x2="173.25" y2="169.67"/><line style="fill:none;stroke:#6e6f71;stroke-width:.5;stroke-linecap:square" x1="109.19" y1="167.14" x2="109.19" y2="169.67"/><text transform="translate(116.1 357.316)"><tspan x="0" y="0" style="fill:#010101;font-family:'Asap-Medium';font-size:8px">Quantity of Cheerios, </tspan><tspan x="76.05" y="0" style="fill:#010101;font-family:'Asap-MediumItalic';font-size:8px">Q</tspan><tspan x="81.9" y="0" style="fill:#010101;font-family:'Asap-Medium';font-size:8px"> (pounds)</tspan></text><text transform="rotate(-90 66.962 58.62)"><tspan x="0" y="0" style="fill:#010101;font-family:'Asap-Medium';font-size:8px">Price, </tspan><tspan x="21.3" y="0" style="fill:#010101;font-family:'Asap-MediumItalic';font-size:8px">P</tspan><tspan x="25.86" y="0" style="fill:#010101;font-family:'Asap-Medium';font-size:8px"> (dollars per pound)</tspan></text><text transform="translate(35.318 169.668)" style="fill:#010101;font-family:'Asap-Regular';font-size:7px">0</text><text transform="translate(43.604 179.338)" style="fill:#010101;font-family:'Asap-Regular';font-size:7px">0</text><text transform="translate(31.574 7.565)" style="fill:#010101;font-family:'Asap-Regular';font-size:7px">10</text><text transform="translate(288.922 179.338)" style="fill:#010101;font-family:'Asap-Regular';font-size:7px">80,000</text><text transform="translate(225.5 179.338)" style="fill:#010101;font-family:'Asap-Regular';font-size:7px">60,000</text><text transform="translate(170.08 179.338)" style="fill:#010101;font-family:'Asap-Regular';font-size:7px">40,000</text><text transform="translate(96.66 179.338)" style="fill:#010101;font-family:'Asap-Regular';font-size:7px">20,000</text><text transform="translate(35.318 23.776)" style="fill:#010101;font-family:'Asap-Regular';font-size:7px">9</text><text transform="translate(35.318 39.985)" style="fill:#010101;font-family:'Asap-Regular';font-size:7px">8</text><text transform="translate(35.318 56.195)" style="fill:#010101;font-family:'Asap-Regular';font-size:7px">7</text><text transform="translate(35.318 72.405)" style="fill:#010101;font-family:'Asap-Regular';font-size:7px">6</text><text transform="translate(35.318 88.615)" style="fill:#010101;font-family:'Asap-Regular';font-size:7px">5</text><text transform="translate(35.318 104.826)" style="fill:#010101;font-family:'Asap-Regular';font-size:7px">4</text><text transform="translate(35.318 121.036)" style="fill:#010101;font-family:'Asap-Regular';font-size:7px">3</text><text transform="translate(35.318 137.247)" style="fill:#010101;font-family:'Asap-Regular';font-size:7px">2</text><text transform="translate(35.318 153.457)" style="fill:#010101;font-family:'Asap-Regular';font-size:7px">1</text><path style="fill:none;stroke:#a2b1db;stroke-width:.5" d="M48.69 5.88c.87 13.53 1.52 24.49 1.94 31.96 0 0 .53 9.34 1.94 27.55.72 9.23 1.25 15.3 3.33 23.14 1.08 4.06 2.08 8.23 4.44 12.95 1.21 2.41 2.95 5.84 6.11 9.37 4.93 5.51 10.45 8 14.15 9.64 4.44 1.98 7.83 2.73 13.88 4.06 3.15.69 8.5 1.75 19.01 2.97 2.72.32 11.16 1.26 25.17 2.1 5.83.35 11.15.59 19.36.87 18.53.64 32.71.86 33.79.87 20.96.31 59.47.9 109.28 1.57"/><path style="fill:none;stroke:#5c73b8;stroke-width:.5" d="M58.34 5.88c.55 5.24 1.41 12.37 2.78 20.8 1.43 8.78 2.76 16.78 5.56 26.9 2.77 9.99 4.51 16.27 8.9 24.13 2.08 3.72 5.62 9.94 12.24 16.36 7.61 7.38 15.16 11.01 19.47 13.04 1.76.83 6.36 2.92 16.97 5.82 13.66 3.75 24.49 5.34 27.82 5.82 18.09 2.61 33.88 3.9 50.07 4.99 9.36.63 24.27 1.55 46.74 2.5 13.7.58 31.35 1.21 52.02 1.66"/><path style="fill:none;stroke:#273b72;stroke-width:.5" d="M68.92 5.88c.61 3.6 1.49 8.25 2.78 13.62.81 3.37 2.8 11.28 6.4 21.4 2.57 7.24 3.86 10.87 6.4 15.84 4.39 8.62 9.05 14.5 10.85 16.68 7.16 8.69 14.12 13.77 15.86 15.01 5.54 3.96 10.19 6.18 14.74 8.34 4.12 1.95 10.03 4.47 20.03 7.51 12.81 3.88 22.71 5.68 34.5 7.78 11.36 2.03 21.05 3.32 28.38 4.17 3.5.41 5.99.65 28.38 2.5 17.61 1.45 26.5 2.19 31.16 2.5 8.06.54 19.17 1.2 32.55 1.67"/><line style="fill:none;stroke:#6e6f72;stroke-width:.5;stroke-miterlimit:10" x1="300.93" y1="304.76" x2="44.73" y2="304.76"/><line style="fill:none;stroke:#6e6f72;stroke-width:.5;stroke-miterlimit:10" x1="44.73" y1="191.87" x2="44.73" y2="304.76"/><line style="fill:none;stroke:#6e6f71;stroke-width:.5;stroke-linecap:square" x1="300.69" y1="304.76" x2="300.69" y2="307.28"/><line style="fill:none;stroke:#6e6f71;stroke-width:.5;stroke-linecap:square" x1="44.73" y1="304.76" x2="44.73" y2="337.28"/><line style="fill:none;stroke:#6e6f71;stroke-width:.5;stroke-linecap:square" x1="44.73" y1="304.76" x2="42.21" y2="304.76"/><line style="fill:none;stroke:#6e6f71;stroke-width:.5;stroke-linecap:square" x1="44.73" y1="337.63" x2="42.21" y2="337.63"/><line style="fill:none;stroke:#6e6f71;stroke-width:.5;stroke-linecap:square" x1="44.73" y1="267.13" x2="42.21" y2="267.13"/><line style="fill:none;stroke:#6e6f71;stroke-width:.5;stroke-linecap:square" x1="44.73" y1="191.87" x2="42.21" y2="191.87"/><line style="fill:none;stroke:#6e6f71;stroke-width:.5;stroke-linecap:square" x1="44.73" y1="229.5" x2="42.21" y2="229.5"/><line style="fill:none;stroke:#6e6f71;stroke-width:.5;stroke-linecap:square" x1="236.92" y1="304.76" x2="236.92" y2="307.28"/><line style="fill:none;stroke:#6e6f71;stroke-width:.5;stroke-linecap:square" x1="172.86" y1="304.76" x2="172.86" y2="307.28"/><line style="fill:none;stroke:#6e6f71;stroke-width:.5;stroke-linecap:square" x1="108.8" y1="304.76" x2="108.8" y2="307.28"/><text transform="translate(35.318 307.285)" style="fill:#010101;font-family:'Asap-Regular';font-size:7px">0</text><text transform="translate(288.921 316.955)" style="fill:#010101;font-family:'Asap-Regular';font-size:7px">80,000</text><text transform="translate(225.5 316.955)" style="fill:#010101;font-family:'Asap-Regular';font-size:7px">60,000</text><text transform="translate(170.08 316.955)" style="fill:#010101;font-family:'Asap-Regular';font-size:7px">40,000</text><text transform="translate(96.66 316.955)" style="fill:#010101;font-family:'Asap-Regular';font-size:7px">20,000</text><text transform="translate(18.953 194.187)" style="fill:#010101;font-family:'Asap-Regular';font-size:7px">45,000</text><text transform="translate(18.953 231.886)" style="fill:#010101;font-family:'Asap-Regular';font-size:7px">30,000</text><text transform="translate(18.953 269.585)" style="fill:#010101;font-family:'Asap-Regular';font-size:7px">15,000</text><circle style="fill:#231f20" cx="95.53" cy="101.05" r="1.13"/><text transform="rotate(-90 136.732 128.39)" style="fill:#010101;font-family:'Asap-Medium';font-size:8px">Profit ($)</text><text transform="translate(15.033 339.132)" style="fill:#010101;font-family:'Asap-Regular';font-size:7px">−15,000</text><circle style="fill:#231f20" cx="162.6" cy="134.89" r="1.13"/><line style="fill:none;stroke:#6e6f72;stroke-width:.5;stroke-miterlimit:10" x1="45.13" y1="5.59" x2="45.13" y2="167.14"/><line style="fill:none;stroke:#929497;stroke-width:.5;stroke-linejoin:round;stroke-dasharray:1.417" x1="128.82" y1="242.02" x2="128.82" y2="120.22"/><circle style="fill:#231f20" cx="128.82" cy="120.22" r="1.13"/><line style="fill:none;stroke:#929497;stroke-width:.5;stroke-linejoin:round;stroke-dasharray:1.417" x1="52.36" y1="275.87" x2="52.36" y2="60.69"/><circle style="fill:#231f20" cx="52.36" cy="60.69" r="1.13"/><line style="fill:none;stroke:#929497;stroke-width:.5;stroke-linejoin:round;stroke-dasharray:1.417" x1="62.43" y1="247.89" x2="62.43" y2="72.4"/><path style="fill:none;stroke:#099146;stroke-width:.5;stroke-linecap:round;stroke-linejoin:round;stroke-miterlimit:10" d="M180.92 345.48c-.35-.84-.71-1.69-1.06-2.52-1.15-2.72-2.3-5.42-3.45-8.1-1.15-2.68-2.3-5.34-3.45-7.97a1210.465 1210.465 0 00-6.9-15.51 908.983 908.983 0 00-6.9-14.85 688.24 688.24 0 00-6.9-14.08c-1.15-2.28-2.3-4.52-3.45-6.71-1.15-2.2-2.3-4.36-3.45-6.48-1.15-2.12-2.3-4.19-3.45-6.22-1.15-2.03-2.3-4.01-3.45-5.95-1.15-1.93-2.3-3.82-3.45-5.65-1.15-1.83-2.3-3.62-3.45-5.34-1.15-1.73-2.3-3.4-3.45-5.01-1.15-1.61-2.3-3.16-3.45-4.65-1.15-1.49-2.3-2.92-3.45-4.27a96.17 96.17 0 00-3.45-3.87c-1.15-1.22-2.3-2.37-3.45-3.44a57.22 57.22 0 00-3.45-2.98c-1.15-.91-2.3-1.75-3.45-2.5-1.15-.75-2.3-1.41-3.45-1.98-1.15-.57-2.3-1.05-3.45-1.43-1.15-.38-2.3-.67-3.45-.85-1.15-.18-2.3-.26-3.45-.23-1.15.03-2.3.16-3.45.42-1.15.26-2.3.62-3.45 1.11-1.15.49-2.3 1.1-3.45 1.85-1.15.75-2.3 1.61-3.45 2.62-1.15 1.01-2.3 2.15-3.45 3.45-1.15 1.29-2.3 2.72-3.45 4.32-1.15 1.59-2.3 3.33-3.45 5.24a104.9 104.9 0 00-3.45 6.21c-1.15 2.24-2.3 4.65-3.45 7.24-1.15 2.6-2.3 5.36-3.45 8.33-1.15 2.97-2.3 6.12-3.45 9.49-1.15 3.37-2.3 6.92-3.45 10.71-1.15 3.79-2.3 7.77-3.45 12-1.15 4.23-2.3 8.67-3.45 13.38l-.71 3.3"/><text transform="translate(97.016 97.8)" style="fill:#010101;font-family:'Asap-Regular';font-size:6px">E</text><circle style="fill:#231f20" cx="62.43" cy="72.4" r="1.13"/><text transform="translate(230.388 27.104)" style="fill:#010101;font-family:'Asap-Regular';font-size:6px">Demand curve</text><circle style="fill:#ec2427" cx="224.21" cy="25.27" r="2.13"/><text transform="translate(230.388 63.79)" style="fill:#010101;font-family:'Asap-Regular';font-size:6px">Isoprofit curve: $0</text><circle style="fill:#d5daee" cx="224.21" cy="61.95" r="2.13"/><text transform="translate(230.388 54.619)" style="fill:#010101;font-family:'Asap-Regular';font-size:6px">Isoprofit curve: $10,000</text><circle style="fill:#a2b1db" cx="224.21" cy="52.78" r="2.13"/><g><text transform="translate(230.388 45.447)" style="fill:#010101;font-family:'Asap-Regular';font-size:6px">Isoprofit curve: $34,000</text><circle style="fill:#5c73b8" cx="224.21" cy="43.61" r="2.13"/></g><g><text transform="translate(230.388 36.276)" style="fill:#010101;font-family:'Asap-Regular';font-size:6px">Isoprofit curve: $60,000</text><circle style="fill:#273b72" cx="224.21" cy="34.44" r="2.13"/></g></svg>