<svg version="1.1" xmlns="http://www.w3.org/2000/svg" x="0" y="0" viewBox="0 0 311.81 202.38" style="enable-background:new 0 0 311.81 202.38" xml:space="preserve"><line style="fill:none;stroke:#939598;stroke-width:.5;stroke-miterlimit:10;stroke-dasharray:1.4173" x1="194.46" y1="148.66" x2="194.46" y2="41.98"/><line style="fill:none;stroke:#939598;stroke-width:.5;stroke-miterlimit:10;stroke-dasharray:1.4173" x1="208.86" y1="148.45" x2="208.86" y2="63.52"/><line style="fill:none;stroke:#939598;stroke-width:.5;stroke-miterlimit:10;stroke-dasharray:1.4173" x1="136.63" y1="148.66" x2="136.63" y2="81.66"/><line style="fill:none;stroke:#6d6e71;stroke-width:.5;stroke-linecap:square;stroke-linejoin:round" x1="50.48" y1="11.44" x2="48.35" y2="11.44"/><line style="fill:none;stroke:#6d6e71;stroke-width:.5;stroke-linecap:square;stroke-linejoin:round" x1="50.28" y1="41.98" x2="48.15" y2="41.98"/><line style="fill:none;stroke:#6d6e71;stroke-width:.5;stroke-linecap:square;stroke-linejoin:round" x1="50.48" y1="81.66" x2="48.35" y2="81.66"/><line style="fill:none;stroke:#6d6e71;stroke-width:.5;stroke-linecap:square;stroke-linejoin:round" x1="50.48" y1="148.45" x2="48.35" y2="148.45"/><text transform="rotate(-90 61.644 38.443)"><tspan x="0" y="0" style="font-family:'Asap-Medium';font-size:8px">Price, </tspan><tspan x="21.3" y="0" style="font-family:'Asap-MediumItalic';font-size:8px">P</tspan></text><text transform="translate(34.497 42.98)" style="font-family:'Asap-Italic';font-size:7px">P</text><text transform="matrix(.583 0 0 .583 38.486 45.312)" style="font-family:'Asap-Regular';font-size:7px">1</text><line style="fill:none;stroke:#6d6e71;stroke-width:.5;stroke-linecap:square;stroke-linejoin:round" x1="275.59" y1="148.95" x2="275.59" y2="151.07"/><line style="fill:none;stroke:#6d6e71;stroke-width:.5;stroke-linecap:square;stroke-linejoin:round" x1="50.28" y1="148.95" x2="50.28" y2="151.07"/><text transform="translate(149.112 200.065)"><tspan x="0" y="0" style="font-family:'Asap-Medium';font-size:8px">Quantity, </tspan><tspan x="34.06" y="0" style="font-family:'Asap-MediumItalic';font-size:8px">Q</tspan></text><text transform="translate(252.666 120.303)" style="font-family:'Asap-Regular';font-size:6px">Demand</text><text transform="translate(199.714 8.02)" style="font-family:'Asap-Regular';font-size:6px">New supply</text><text transform="translate(37.275 149.523)" style="font-family:'Asap-Regular';font-size:7px">0</text><line style="fill:none;stroke:#6d6e71;stroke-width:.5;stroke-linecap:square;stroke-linejoin:round" x1="194.46" y1="148.95" x2="194.46" y2="151.07"/><line style="fill:none;stroke:#3c54a4;stroke-width:.5;stroke-miterlimit:10" x1="50.49" y1="81.66" x2="112.92" y2="81.66"/><line style="fill:none;stroke:#ed1f24;stroke-width:.5;stroke-miterlimit:10" x1="170.49" y1="7.58" x2="250.76" y2="123.25"/><polyline style="fill:none;stroke:#ed2124;stroke-width:.5;stroke-miterlimit:10" points="50.28 152.42 50.28 159.04 136.63 159.04 136.63 152.42"/><polyline style="fill:none;stroke:#ec2426;stroke-width:.5;stroke-miterlimit:10" points="50.28 170.21 50.28 176.83 81.6 176.83 112.92 176.83 112.92 170.21"/><line style="fill:none;stroke:#ed2124;stroke-width:.5;stroke-miterlimit:10" x1="94.6" y1="159.04" x2="94.6" y2="164.38"/><line style="fill:none;stroke:#ec2426;stroke-width:.5;stroke-miterlimit:10" x1="81.6" y1="183.13" x2="81.6" y2="176.58"/><text transform="translate(75.837 188.969)" style="fill:#ec2426;font-family:'Asap-Italic';font-size:6px">Q&apos;</text><text transform="matrix(.583 0 0 .583 81.32 190.967)" style="fill:#ec2426;font-family:'Asap-Regular';font-size:6px">OPEC</text><text transform="translate(192.126 161.71)" style="font-family:'Asap-Italic';font-size:6px">Q</text><text transform="matrix(.583 0 0 .583 196.511 163.708)" style="font-family:'Asap-Regular';font-size:6px">1</text><text transform="translate(37.275 82.98)" style="font-family:'Asap-Italic';font-size:7px">c</text><text transform="translate(244.443 24.062)" style="font-family:'Asap-Regular';font-size:6px">Original supply</text><text transform="translate(88.27 169.545)" style="fill:#ec2426;font-family:'Asap-Italic';font-size:6px">Q</text><text transform="matrix(.583 0 0 .583 92.655 171.543)" style="fill:#ec2426;font-family:'Asap-Regular';font-size:6px">OPEC</text><line style="fill:none;stroke:#939598;stroke-width:.5;stroke-miterlimit:10;stroke-dasharray:1.417" x1="245.95" y1="11.44" x2="195.73" y2="81.66"/><line style="fill:none;stroke:#939598;stroke-width:.5;stroke-miterlimit:10" x1="165.24" y1="81.66" x2="215.91" y2="11.44"/><line style="fill:none;stroke:#939598;stroke-width:.5;stroke-miterlimit:10;stroke-dasharray:1.4173" x1="112.92" y1="148.66" x2="112.92" y2="81.66"/><line style="fill:none;stroke:#6d6e71;stroke-width:.5;stroke-linecap:square;stroke-linejoin:round" x1="50.28" y1="148.45" x2="275.59" y2="148.45"/><line style="fill:none;stroke:#939598;stroke-width:.5;stroke-linecap:square;stroke-linejoin:round" x1="230.43" y1="26.72" x2="208.2" y2="26.72"/><polygon style="fill:#939598" points="209.86 24.67 210.2 25.04 208.39 26.72 210.2 28.4 209.86 28.76 207.66 26.72"/><line style="fill:none;stroke:#939598;stroke-width:.5;stroke-linecap:square;stroke-linejoin:round" x1="192.21" y1="77.85" x2="170.52" y2="77.85"/><polygon style="fill:#939598" points="190.55 75.81 190.21 76.18 192.02 77.85 190.21 79.53 190.55 79.9 192.75 77.85"/><polygon style="fill:#939598" points="172.17 75.81 172.51 76.18 170.71 77.85 172.51 79.53 172.17 79.9 169.97 77.85"/><line style="fill:none;stroke:#939598;stroke-width:.5;stroke-linecap:square;stroke-linejoin:round" x1="135.16" y1="163.71" x2="113.47" y2="163.71"/><polygon style="fill:#939598" points="133.5 161.66 133.16 162.03 134.97 163.71 133.16 165.39 133.5 165.75 135.7 163.71"/><polygon style="fill:#939598" points="115.12 161.66 115.46 162.03 113.66 163.71 115.46 165.39 115.12 165.75 112.92 163.71"/><line style="fill:none;stroke:#6d6e71;stroke-width:.5;stroke-linecap:square;stroke-linejoin:round" x1="50.28" y1="148.45" x2="50.28" y2="11.44"/><line style="fill:none;stroke:#939598;stroke-width:.5;stroke-miterlimit:10;stroke-dasharray:1.4173" x1="208.5" y1="63.52" x2="50.28" y2="63.52"/><line style="fill:none;stroke:#6d6e71;stroke-width:.5;stroke-linecap:square;stroke-linejoin:round" x1="50.48" y1="63.52" x2="48.35" y2="63.52"/><text transform="translate(34.497 62.98)" style="font-family:'Asap-Italic';font-size:7px">P</text><text transform="matrix(.583 0 0 .583 38.487 65.312)" style="font-family:'Asap-Regular';font-size:7px">0</text><line style="fill:none;stroke:#6d6e71;stroke-width:.5;stroke-linecap:square;stroke-linejoin:round" x1="208.91" y1="148.45" x2="208.91" y2="150.58"/><text transform="translate(206.576 161.212)" style="font-family:'Asap-Italic';font-size:6px">Q</text><text transform="matrix(.583 0 0 .583 210.962 163.21)" style="font-family:'Asap-Regular';font-size:6px">0</text><line style="fill:none;stroke:#ec2426;stroke-width:.5;stroke-miterlimit:10" x1="194.46" y1="41.98" x2="50.28" y2="41.98"/><line style="fill:none;stroke:#939598;stroke-width:.5;stroke-miterlimit:10;stroke-dasharray:1.4173" x1="194.46" y1="81.66" x2="112.92" y2="81.66"/></svg>