<svg version="1.1" xmlns="http://www.w3.org/2000/svg" x="0" y="0" viewBox="0 0 311.81 158.16" style="enable-background:new 0 0 311.81 158.16" xml:space="preserve"><rect x="31.04" y="32.71" style="fill:#e4e9f5;stroke:#6d6e71;stroke-width:.5;stroke-miterlimit:10" width="117.8" height="117.5"/><polygon style="fill:#f1e7f2" points="188.37 91.61 247.27 91.61 247.27 150.52"/><polygon style="fill:#e4e9f5" points="247.27 150.52 188.37 150.52 188.37 91.61"/><line style="fill:#939598;stroke:#fff;stroke-width:.5;stroke-miterlimit:10" x1="188.37" y1="91.31" x2="247.27" y2="150.21"/><line style="fill:none;stroke:#6d6e71;stroke-width:.5;stroke-miterlimit:10" x1="247.27" y1="19.3" x2="247.27" y2="32.71"/><polyline style="fill:#b9519e;stroke:#6d6e71;stroke-width:.499;stroke-miterlimit:10" points="188.37 20.04 188.37 7.64 306.17 7.64 306.17 20.04"/><polygon style="fill:#f1e7f2" points="188.37 32.71 247.27 32.71 247.27 91.61"/><polygon style="fill:#f1e7f2" points="247.27 32.71 306.17 32.71 306.17 91.61"/><polygon style="fill:#f1e7f2" points="247.27 91.61 306.17 91.61 306.17 150.52"/><polygon style="fill:#e4e9f5" points="306.17 150.52 247.27 150.52 247.27 91.61"/><polygon style="fill:#e4e9f5" points="306.17 91.61 247.27 91.61 247.27 32.71"/><polygon style="fill:#e4e9f5" points="247.44 91.61 188.54 91.61 188.54 32.71"/><line style="fill:#939598;stroke:#fff;stroke-width:.5;stroke-miterlimit:10" x1="247.27" y1="32.71" x2="306.17" y2="91.61"/><line style="fill:#939598;stroke:#fff;stroke-width:.5;stroke-miterlimit:10" x1="188.37" y1="32.71" x2="247.27" y2="91.61"/><line style="fill:#939598;stroke:#fff;stroke-width:.5;stroke-miterlimit:10" x1="247.27" y1="91.31" x2="306.17" y2="150.21"/><text transform="translate(212.03 28.962)" style="font-family:'Asap-Regular';font-size:6px">Java</text><text transform="translate(271.905 28.963)" style="font-family:'Asap-Regular';font-size:6px">C++</text><text transform="translate(234.166 16.733)" style="fill:#fff;font-family:'Asap-Regular';font-size:8px">Bettina</text><line style="fill:none;stroke:#6d6e71;stroke-width:.5;stroke-miterlimit:10" x1="306.17" y1="20.04" x2="306.17" y2="32.71"/><line style="fill:none;stroke:#6d6e71;stroke-width:.5;stroke-miterlimit:10" x1="188.37" y1="32.71" x2="188.37" y2="20.04"/><rect x="188.37" y="32.71" style="fill:none;stroke:#6d6e71;stroke-width:.5;stroke-miterlimit:10" width="117.8" height="117.8"/><line style="fill:none;stroke:#6d6e71;stroke-width:.5;stroke-miterlimit:10" x1="247.27" y1="32.71" x2="247.27" y2="150.52"/><line style="fill:none;stroke:#6d6e71;stroke-width:.5;stroke-miterlimit:10" x1="188.37" y1="91.61" x2="306.17" y2="91.61"/><text transform="translate(224.507 53.441)" style="font-family:'Asap-Medium';font-size:10px">3</text><text transform="translate(201.777 77.92)" style="font-family:'Asap-Medium';font-size:10px">4</text><text transform="translate(284.475 53.972)" style="font-family:'Asap-Medium';font-size:10px">2</text><text transform="translate(259.774 77.452)" style="font-family:'Asap-Medium';font-size:10px">2</text><text transform="translate(224.507 111.76)" style="font-family:'Asap-Medium';font-size:10px">0</text><text transform="translate(201.777 135.406)" style="font-family:'Asap-Medium';font-size:10px">0</text><text transform="translate(284.475 111.76)" style="font-family:'Asap-Medium';font-size:10px">6</text><text transform="translate(262.23 134.921)" style="font-family:'Asap-Medium';font-size:10px">3</text><polyline style="fill:#0d71ba;stroke:#6d6e71;stroke-width:.499;stroke-miterlimit:10" points="176.04 150.52 163.64 150.52 163.64 32.71 176.04 32.71"/><text transform="rotate(-90 137.449 -35.285)" style="fill:#fff;font-family:'Asap-Regular';font-size:8px">Astrid</text><line style="fill:none;stroke:#6d6e71;stroke-width:.5;stroke-miterlimit:10" x1="176.04" y1="32.71" x2="188.71" y2="32.71"/><line style="fill:none;stroke:#6d6e71;stroke-width:.5;stroke-miterlimit:10" x1="188.71" y1="150.52" x2="176.04" y2="150.52"/><line style="fill:none;stroke:#6d6e71;stroke-width:.5;stroke-miterlimit:10" x1="176.04" y1="91.61" x2="188.71" y2="91.61"/><text transform="rotate(-90 126.332 -57.625)" style="font-family:'Asap-Regular';font-size:6px">Java</text><text transform="rotate(-90 154.742 -29.215)" style="font-family:'Asap-Regular';font-size:6px">C++</text><text transform="translate(45.498 51.908)"><tspan x="0" y="0" style="font-family:'Asap-Regular';font-size:4.0111px">Both work in the</tspan><tspan x="1.09" y="4.81" style="font-family:'Asap-Regular';font-size:4.0111px">same language</tspan><tspan x="-3.66" y="14.44" style="font-family:'Asap-Regular';font-size:4.0111px">Astrid benefits more:</tspan><tspan x="1.53" y="19.25" style="font-family:'Asap-Regular';font-size:4.0111px">she is better at</tspan><tspan x="4.12" y="24.07" style="font-family:'Asap-Regular';font-size:4.0111px">Java coding</tspan></text><text transform="translate(99.786 47.364)"><tspan x="0" y="0" style="font-family:'Asap-Regular';font-size:4.0111px">Each is working in the</tspan><tspan x="3.27" y="4.81" style="font-family:'Asap-Regular';font-size:4.0111px">language they are</tspan><tspan x="11.62" y="9.63" style="font-family:'Asap-Regular';font-size:4.0111px">better at</tspan><tspan x="-1.62" y="19.25" style="font-family:'Asap-Regular';font-size:4.0111px">But working in different</tspan><tspan x="-5.48" y="24.07" style="font-family:'Asap-Regular';font-size:4.0111px">languages is less productive</tspan><tspan x="-1.4" y="28.88" style="font-family:'Asap-Regular';font-size:4.0111px">than if both work in the</tspan><tspan x="5.82" y="33.69" style="font-family:'Asap-Regular';font-size:4.0111px">same language</tspan></text><text transform="translate(40.768 108.167)"><tspan x="0" y="0" style="font-family:'Asap-Regular';font-size:4.0111px">Each is working in the</tspan><tspan x="-8.2" y="4.81" style="font-family:'Asap-Regular';font-size:4.0111px">language they are less good at,</tspan><tspan x="-2.82" y="9.63" style="font-family:'Asap-Regular';font-size:4.0111px">and so neither works fast</tspan><tspan x="1.52" y="19.25" style="font-family:'Asap-Regular';font-size:4.0111px">Working in different</tspan><tspan x="8.33" y="24.07" style="font-family:'Asap-Regular';font-size:4.0111px">languages is</tspan><tspan x="5.96" y="28.88" style="font-family:'Asap-Regular';font-size:4.0111px">less productive</tspan></text><text transform="translate(104.515 111.152)"><tspan x="0" y="0" style="font-family:'Asap-Regular';font-size:4.0111px">Both work in the</tspan><tspan x="1.09" y="4.81" style="font-family:'Asap-Regular';font-size:4.0111px">same language</tspan><tspan x="-4.9" y="14.44" style="font-family:'Asap-Regular';font-size:4.0111px">Bettina benefits more:</tspan><tspan x="1.53" y="19.25" style="font-family:'Asap-Regular';font-size:4.0111px">she is better at</tspan><tspan x="4.6" y="24.07" style="font-family:'Asap-Regular';font-size:4.0111px">C++ coding</tspan></text><line style="fill:none;stroke:#6d6e71;stroke-width:.5;stroke-miterlimit:10" x1="89.94" y1="19.3" x2="89.94" y2="32.71"/><polyline style="fill:#b9519e;stroke:#6d6e71;stroke-width:.499;stroke-miterlimit:10" points="31.04 20.04 31.04 7.64 148.84 7.64 148.84 20.04"/><text transform="translate(54.704 28.962)" style="font-family:'Asap-Regular';font-size:6px">Java</text><text transform="translate(114.579 28.963)" style="font-family:'Asap-Regular';font-size:6px">C++</text><text transform="translate(76.84 16.733)" style="fill:#fff;font-family:'Asap-Regular';font-size:8px">Bettina</text><line style="fill:none;stroke:#6d6e71;stroke-width:.5;stroke-miterlimit:10" x1="31.04" y1="32.71" x2="31.04" y2="20.04"/><polyline style="fill:#0d71ba;stroke:#6d6e71;stroke-width:.499;stroke-miterlimit:10" points="18.37 150.21 5.97 150.21 5.97 32.71 18.37 32.71"/><text transform="rotate(-90 58.46 43.399)" style="fill:#fff;font-family:'Asap-Regular';font-size:8px">Astrid</text><polyline style="fill:none;stroke:#6d6e71;stroke-width:.5;stroke-miterlimit:10" points="17.66 32.71 30.44 32.71 148.84 32.71 148.84 20.04"/><polyline style="fill:none;stroke:#6d6e71;stroke-width:.5;stroke-miterlimit:10" points="18.37 150.21 31.04 150.21 31.04 32.41"/><polyline style="fill:none;stroke:#6d6e71;stroke-width:.5;stroke-miterlimit:10" points="18.37 91.31 31.04 91.31 148.84 91.31"/><text transform="rotate(-90 47.344 21.059)" style="font-family:'Asap-Regular';font-size:6px">Java</text><text transform="rotate(-90 75.753 49.468)" style="font-family:'Asap-Regular';font-size:6px">C++</text><polyline style="fill:none;stroke:#6d6e71;stroke-width:.499;stroke-miterlimit:10" points="89.94 32.71 89.94 150.21 148.84 150.21 148.84 32.71"/><line style="fill:none;stroke:#6d6e71;stroke-width:.499;stroke-miterlimit:10" x1="31.04" y1="150.21" x2="89.94" y2="150.21"/></svg>