<svg version="1.1" xmlns="http://www.w3.org/2000/svg" x="0" y="0" viewBox="0 0 311.81 197.91" style="enable-background:new 0 0 311.81 197.91" xml:space="preserve"><switch><g><text transform="rotate(-90 57.21 49.795)"><tspan x="0" y="0" style="font-family:'Asap-Medium';font-size:8px">Price, </tspan><tspan x="21.3" y="0" style="font-family:'Asap-MediumItalic';font-size:8px">P</tspan><tspan x="25.86" y="0" style="font-family:'Asap-Medium';font-size:8px"> (£)</tspan></text><text transform="translate(25.856 170.708)" style="font-family:'Asap-Regular';font-size:7px">0</text><text transform="translate(9.491 7.314)" style="font-family:'Asap-Regular';font-size:7px">12,000</text><text transform="translate(9.491 34.564)" style="font-family:'Asap-Regular';font-size:7px">10,000</text><text transform="translate(13.236 61.515)" style="font-family:'Asap-Regular';font-size:7px">8,000</text><text transform="translate(13.236 89.515)" style="font-family:'Asap-Regular';font-size:7px">6,000</text><text transform="translate(13.236 116.005)" style="font-family:'Asap-Regular';font-size:7px">4,000</text><text transform="translate(13.236 144.005)" style="font-family:'Asap-Regular';font-size:7px">2,000</text><text transform="translate(126.722 194.284)"><tspan x="0" y="0" style="font-family:'Asap-Medium';font-size:8px">Quantity of consumers, </tspan><tspan x="83.03" y="0" style="font-family:'Asap-MediumItalic';font-size:8px">Q</tspan></text><text transform="translate(32.665 179.23)" style="font-family:'Asap-Regular';font-size:7px">0</text><text transform="translate(112.848 179.23)" style="font-family:'Asap-Regular';font-size:7px">30</text><text transform="translate(250.027 179.23)" style="font-family:'Asap-Regular';font-size:7px">80</text><text transform="translate(277.207 179.23)" style="font-family:'Asap-Regular';font-size:7px">90</text><text transform="translate(299.723 179.23)" style="font-family:'Asap-Regular';font-size:7px">100</text><text transform="translate(223.027 179.23)" style="font-family:'Asap-Regular';font-size:7px">70</text><text transform="translate(195.027 179.23)" style="font-family:'Asap-Regular';font-size:7px">60</text><text transform="translate(168.027 179.23)" style="font-family:'Asap-Regular';font-size:7px">50</text><text transform="translate(140.027 179.23)" style="font-family:'Asap-Regular';font-size:7px">40</text><text transform="translate(85.848 179.23)" style="font-family:'Asap-Regular';font-size:7px">20</text><text transform="translate(58.848 179.23)" style="font-family:'Asap-Regular';font-size:7px">10</text><line style="fill:none;stroke:#bcbec0;stroke-width:.5;stroke-miterlimit:10" x1="61.87" y1="168.84" x2="61.87" y2="5.41"/><line style="fill:none;stroke:#bcbec0;stroke-width:.5;stroke-miterlimit:10" x1="89.2" y1="168.84" x2="89.2" y2="5.41"/><line style="fill:none;stroke:#bcbec0;stroke-width:.5;stroke-miterlimit:10" x1="116.53" y1="168.84" x2="116.53" y2="5.41"/><line style="fill:none;stroke:#bcbec0;stroke-width:.5;stroke-miterlimit:10" x1="171.19" y1="168.84" x2="171.19" y2="5.41"/><line style="fill:none;stroke:#bcbec0;stroke-width:.5;stroke-miterlimit:10" x1="143.86" y1="168.84" x2="143.86" y2="5.41"/><line style="fill:none;stroke:#bcbec0;stroke-width:.5;stroke-miterlimit:10" x1="198.52" y1="168.84" x2="198.52" y2="5.41"/><line style="fill:none;stroke:#bcbec0;stroke-width:.5;stroke-miterlimit:10" x1="225.85" y1="168.84" x2="225.85" y2="5.41"/><line style="fill:none;stroke:#bcbec0;stroke-width:.5;stroke-miterlimit:10" x1="253.18" y1="168.84" x2="253.18" y2="5.41"/><line style="fill:none;stroke:#bcbec0;stroke-width:.5;stroke-miterlimit:10" x1="280.51" y1="168.84" x2="280.51" y2="5.41"/><line style="fill:none;stroke:#bcbec0;stroke-width:.5;stroke-miterlimit:10" x1="34.54" y1="5.41" x2="307.84" y2="5.41"/><line style="fill:none;stroke:#bcbec0;stroke-width:.5;stroke-miterlimit:10" x1="34.45" y1="59.52" x2="307.84" y2="59.52"/><line style="fill:none;stroke:#bcbec0;stroke-width:.5;stroke-miterlimit:10" x1="34.33" y1="86.85" x2="307.84" y2="86.85"/><line style="fill:none;stroke:#bcbec0;stroke-width:.5;stroke-miterlimit:10" x1="34.45" y1="114.18" x2="307.84" y2="114.18"/><line style="fill:none;stroke:#bcbec0;stroke-width:.5;stroke-miterlimit:10" x1="34.45" y1="141.51" x2="307.84" y2="141.51"/><line style="fill:none;stroke:#bcbec0;stroke-width:.5;stroke-miterlimit:10" x1="34.33" y1="32.19" x2="307.84" y2="32.19"/><line style="fill:none;stroke:#ed2124;stroke-width:.5;stroke-miterlimit:10" x1="34.33" y1="32.19" x2="307.84" y2="169.04"/><text transform="translate(297.838 159.911)" style="font-family:'Asap-Regular';font-size:6px">D’</text><line style="fill:none;stroke:#3a53a4;stroke-width:.5;stroke-miterlimit:10" x1="34.33" y1="86.85" x2="198.52" y2="169.4"/><text transform="translate(190.838 159.911)" style="font-family:'Asap-Regular';font-size:6px">D</text><line style="fill:none;stroke:#6d6e71;stroke-width:.5;stroke-linecap:square;stroke-linejoin:round" x1="34.54" y1="168.84" x2="34.54" y2="5.41"/><line style="fill:none;stroke:#6d6e71;stroke-width:.5;stroke-linecap:square;stroke-linejoin:round" x1="34.54" y1="169.05" x2="307.84" y2="169.05"/><line style="fill:none;stroke:#6d6e71;stroke-width:.5;stroke-linecap:square;stroke-linejoin:round" x1="34.45" y1="5.41" x2="32.32" y2="5.41"/><line style="fill:none;stroke:#6d6e71;stroke-width:.5;stroke-linecap:square;stroke-linejoin:round" x1="34.45" y1="59.52" x2="32.32" y2="59.52"/><line style="fill:none;stroke:#6d6e71;stroke-width:.5;stroke-linecap:square;stroke-linejoin:round" x1="34.45" y1="114.18" x2="32.32" y2="114.18"/><line style="fill:none;stroke:#6d6e71;stroke-width:.5;stroke-linecap:square;stroke-linejoin:round" x1="34.45" y1="141.51" x2="32.32" y2="141.51"/><line style="fill:none;stroke:#6d6e71;stroke-width:.5;stroke-linecap:square;stroke-linejoin:round" x1="34.54" y1="169.04" x2="32.41" y2="169.04"/><line style="fill:none;stroke:#6d6e71;stroke-width:.5;stroke-linecap:square;stroke-linejoin:round" x1="34.45" y1="32.19" x2="32.32" y2="32.19"/><line style="fill:none;stroke:#6d6e71;stroke-width:.5;stroke-linecap:square;stroke-linejoin:round" x1="34.45" y1="86.85" x2="32.32" y2="86.85"/><line style="fill:none;stroke:#6d6e71;stroke-width:.5;stroke-linecap:square;stroke-linejoin:round" x1="307.84" y1="169.4" x2="307.84" y2="171.52"/><line style="fill:none;stroke:#6d6e71;stroke-width:.5;stroke-linecap:square;stroke-linejoin:round" x1="253.18" y1="169.4" x2="253.18" y2="171.52"/><line style="fill:none;stroke:#6d6e71;stroke-width:.5;stroke-linecap:square;stroke-linejoin:round" x1="171.19" y1="169.4" x2="171.19" y2="171.52"/><line style="fill:none;stroke:#6d6e71;stroke-width:.5;stroke-linecap:square;stroke-linejoin:round" x1="116.53" y1="169.4" x2="116.53" y2="171.52"/><line style="fill:none;stroke:#6d6e71;stroke-width:.5;stroke-linecap:square;stroke-linejoin:round" x1="34.54" y1="169.4" x2="34.54" y2="171.52"/><line style="fill:none;stroke:#6d6e71;stroke-width:.5;stroke-linecap:square;stroke-linejoin:round" x1="280.51" y1="169.4" x2="280.51" y2="171.52"/><line style="fill:none;stroke:#6d6e71;stroke-width:.5;stroke-linecap:square;stroke-linejoin:round" x1="225.85" y1="169.4" x2="225.85" y2="171.52"/><line style="fill:none;stroke:#6d6e71;stroke-width:.5;stroke-linecap:square;stroke-linejoin:round" x1="198.52" y1="169.4" x2="198.52" y2="171.52"/><line style="fill:none;stroke:#6d6e71;stroke-width:.5;stroke-linecap:square;stroke-linejoin:round" x1="143.86" y1="169.4" x2="143.86" y2="171.52"/><line style="fill:none;stroke:#6d6e71;stroke-width:.5;stroke-linecap:square;stroke-linejoin:round" x1="89.2" y1="169.4" x2="89.2" y2="171.52"/><line style="fill:none;stroke:#6d6e71;stroke-width:.5;stroke-linecap:square;stroke-linejoin:round" x1="61.87" y1="169.4" x2="61.87" y2="171.52"/><line style="fill:none;stroke:#bcbec0;stroke-width:.5;stroke-miterlimit:10" x1="307.84" y1="169.04" x2="307.84" y2="5.13"/></g></switch></svg>