<svg version="1.1" xmlns="http://www.w3.org/2000/svg" x="0" y="0" viewBox="0 0 311.81 129" style="enable-background:new 0 0 311.81 129" xml:space="preserve"><rect x="47" y="22.17" style="fill:none;stroke:#ed2124;stroke-miterlimit:10" width="53.67" height="21.33"/><rect x="47" y="85.95" style="fill:none;stroke:#ed2124;stroke-miterlimit:10" width="53.67" height="21.33"/><rect x="166.07" y="85.95" style="fill:none;stroke:#009147;stroke-miterlimit:10" width="53.67" height="21.33"/><rect x="166.07" y="22.17" style="fill:none;stroke:#009147;stroke-miterlimit:10" width="53.67" height="21.33"/><rect x="226.07" y="85.95" style="fill:none;stroke:#b9519e;stroke-width:1.2776;stroke-miterlimit:10" width="82.6" height="21.33"/><rect x="226.07" y="22.17" style="fill:none;stroke:#b9519e;stroke-width:1.2776;stroke-miterlimit:10" width="82.6" height="21.33"/><text transform="translate(59.672 35.166)" style="fill:#ed2124;font-family:'Asap-Medium';font-size:8px">Lenders</text><text transform="translate(55.672 99.5)" style="fill:#ed2124;font-family:'Asap-Medium';font-size:8px">Employers</text><text transform="translate(175.005 99.5)" style="fill:#009147;font-family:'Asap-Medium';font-size:8px">Employed</text><text transform="translate(166.072 124.833)" style="font-family:'Asap-Medium';font-size:8px">Prospective employees</text><text transform="translate(166.072 9.166)" style="font-family:'Asap-Medium';font-size:8px">Prospective borrowers</text><text transform="translate(3 9.166)" style="font-family:'Asap-Medium';font-size:8px">Wealthy individuals</text><text transform="translate(175.005 35.166)" style="fill:#009147;font-family:'Asap-Medium';font-size:8px">Borrowers</text><text transform="translate(231.672 35.166)" style="fill:#b9519e;font-family:'Asap-Medium';font-size:8px">Excluded borrowers</text><text transform="translate(243.172 99.5)" style="fill:#b9519e;font-family:'Asap-Medium';font-size:8px">Unemployed</text><line style="fill:none;stroke:#3a53a4;stroke-miterlimit:10" x1="104.34" y1="32.83" x2="160.59" y2="32.83"/><polygon style="fill:#3a53a4" points="157.27 36.92 156.59 36.19 160.2 32.83 156.59 29.48 157.27 28.74 161.67 32.83"/><text transform="translate(122.365 43.5)" style="fill:#3a53a4;font-family:'Asap-Regular';font-size:6px">lend to</text><text transform="translate(121.045 74.952)" style="fill:#3a53a4;font-family:'Asap-Regular';font-size:6px">become</text><text transform="rotate(-90 50.643 24.305)" style="fill:#3a53a4;font-family:'Asap-Regular';font-size:6px">become</text><polyline style="fill:none;stroke:#3a53a4;stroke-miterlimit:10" points="192.91 48 192.91 65.5 73.84 65.5 73.84 81.42"/><polygon style="fill:#3a53a4" points="69.75 78.1 70.48 77.42 73.84 81.03 77.19 77.42 77.93 78.1 73.84 82.5"/><polyline style="fill:none;stroke:#3a53a4;stroke-miterlimit:10" points="32.34 14 32.34 96.62 41.59 96.62"/><polygon style="fill:#3a53a4" points="38.27 100.71 37.59 99.98 41.2 96.62 37.59 93.26 38.27 92.53 42.67 96.62"/><g><line style="fill:none;stroke:#3a53a4;stroke-miterlimit:10" x1="32.34" y1="32.83" x2="41.59" y2="32.83"/><polygon style="fill:#3a53a4" points="38.27 36.92 37.59 36.19 41.2 32.83 37.59 29.48 38.27 28.74 42.67 32.83"/></g><g><line style="fill:none;stroke:#3a53a4;stroke-miterlimit:10" x1="104.34" y1="97.67" x2="160.59" y2="97.67"/><polygon style="fill:#3a53a4" points="157.27 101.76 156.59 101.02 160.2 97.67 156.59 94.31 157.27 93.58 161.67 97.67"/></g><text transform="translate(126.487 108.333)" style="fill:#3a53a4;font-family:'Asap-Regular';font-size:6px">hire</text></svg>