<svg version="1.1" xmlns="http://www.w3.org/2000/svg" x="0" y="0" viewBox="0 0 311.81 126.65" style="enable-background:new 0 0 311.81 126.65" xml:space="preserve"><text transform="translate(77.057 63.209)" style="font-family:'Asap-Medium';font-size:7px">Responder</text><polygon style="fill:#3a53a4" points="184.74 -191.84 158.39 -191.84 132.04 -191.84 132.04 -213.71 184.74 -213.71"/><line style="fill:none;stroke:#3a53a4;stroke-width:.5;stroke-miterlimit:10" x1="158.39" y1="-178.01" x2="158.39" y2="-191.84"/><polyline style="fill:none;stroke:#3a53a4;stroke-width:.5;stroke-miterlimit:10" points="184.74 -167.72 184.74 -178.01 132.04 -178.01 132.04 -167.72"/><polygon style="fill:#3a53a4" points="186.78 -169.37 186.41 -169.72 184.74 -167.91 183.06 -169.72 182.69 -169.37 184.74 -167.18"/><polygon style="fill:#3a53a4" points="129.99 -169.37 130.36 -169.72 132.03 -167.91 133.71 -169.72 134.08 -169.37 132.03 -167.18"/><polygon style="fill:#39b54a" points="237.06 -98.78 210.71 -98.78 184.36 -98.78 184.36 -120.64 237.06 -120.64"/><line style="fill:none;stroke:#39b54a;stroke-width:.5;stroke-miterlimit:10" x1="210.71" y1="-84.95" x2="210.71" y2="-98.78"/><polyline style="fill:none;stroke:#39b54a;stroke-width:.5;stroke-miterlimit:10" points="237.06 -74.65 237.06 -84.95 184.36 -84.95 184.36 -74.65"/><polygon style="fill:#39b54a" points="239.11 -76.31 238.74 -76.65 237.06 -74.84 235.38 -76.65 235.02 -76.31 237.06 -74.11"/><polygon style="fill:#39b54a" points="182.32 -76.31 182.68 -76.65 184.36 -74.84 186.04 -76.65 186.41 -76.31 184.36 -74.11"/><polygon style="fill:#39b54a" points="133.53 -98.78 107.18 -98.78 80.83 -98.78 80.83 -120.64 133.53 -120.64"/><line style="fill:none;stroke:#39b54a;stroke-width:.5;stroke-miterlimit:10" x1="107.18" y1="-84.95" x2="107.18" y2="-98.78"/><polyline style="fill:none;stroke:#39b54a;stroke-width:.5;stroke-miterlimit:10" points="133.53 -74.65 133.53 -84.95 80.83 -84.95 80.83 -74.65"/><polygon style="fill:#39b54a" points="135.58 -76.31 135.21 -76.65 133.53 -74.84 131.85 -76.65 131.49 -76.31 133.53 -74.11"/><polygon style="fill:#39b54a" points="78.79 -76.31 79.15 -76.65 80.83 -74.84 82.51 -76.65 82.87 -76.31 80.83 -74.11"/><polygon style="fill:#b9519e" points="223.98 -140.27 197.63 -140.27 171.28 -140.27 171.28 -162.13 223.98 -162.13"/><line style="fill:none;stroke:#b9519e;stroke-width:.5;stroke-miterlimit:10" x1="197.63" y1="-126.98" x2="197.63" y2="-140.27"/><polygon style="fill:#b9519e" points="199.67 -128.64 199.31 -128.98 197.63 -127.17 195.95 -128.98 195.59 -128.64 197.63 -126.44"/><polygon style="fill:#b9519e" points="145.86 -140.27 119.51 -140.27 93.16 -140.27 93.16 -162.13 145.86 -162.13"/><polygon style="fill:#ed2124" points="154.34 -44.21 127.99 -44.21 101.64 -44.21 101.64 -66.07 154.34 -66.07"/><polygon style="fill:#ed2124" points="93.16 -44.21 66.81 -44.21 40.46 -44.21 40.46 -66.07 93.16 -66.07"/><polygon style="fill:#ed2124" points="276.68 -44.21 250.33 -44.21 223.98 -44.21 223.98 -66.07 276.68 -66.07"/><polygon style="fill:#ed2124" points="215.51 -44.21 189.16 -44.21 162.81 -44.21 162.81 -66.07 215.51 -66.07"/><line style="fill:none;stroke:#b9519e;stroke-width:.5;stroke-miterlimit:10" x1="119.51" y1="-126.98" x2="119.51" y2="-140.27"/><polygon style="fill:#b9519e" points="121.56 -128.64 121.19 -128.98 119.51 -127.17 117.84 -128.98 117.47 -128.64 119.51 -126.44"/><text transform="translate(143.905 -200.875)" style="fill:#fff;font-family:'Asap-Regular';font-size:7px">Proposer</text><text transform="translate(90.164 -107.542)" style="fill:#fff;font-family:'Asap-Regular';font-size:7px">Responder</text><text transform="translate(194.164 -107.542)" style="fill:#fff;font-family:'Asap-Regular';font-size:7px">Responder</text><text transform="translate(110.904 -152.875)"><tspan x="0" y="0" style="fill:#fff;font-family:'Asap-Regular';font-size:7px">Offer</tspan><tspan x="-3.13" y="8.4" style="fill:#fff;font-family:'Asap-Regular';font-size:7px">(50, 50)</tspan></text><text transform="translate(56.185 -56.875)"><tspan x="0" y="0" style="fill:#fff;font-family:'Asap-Regular';font-size:7px">Accept</tspan><tspan x="-.5" y="8.4" style="fill:#fff;font-family:'Asap-Regular';font-size:7px">(50, 50)</tspan></text><text transform="translate(118.218 -56.875)"><tspan x="0" y="0" style="fill:#fff;font-family:'Asap-Regular';font-size:7px">Reject</tspan><tspan x="2.38" y="8.4" style="fill:#fff;font-family:'Asap-Regular';font-size:7px">(0, 0)</tspan></text><text transform="translate(178.529 -56.875)"><tspan x="0" y="0" style="fill:#fff;font-family:'Asap-Regular';font-size:7px">Accept</tspan><tspan x="-.5" y="8.4" style="fill:#fff;font-family:'Asap-Regular';font-size:7px">(80, 20)</tspan></text><text transform="translate(240.562 -56.875)"><tspan x="0" y="0" style="fill:#fff;font-family:'Asap-Regular';font-size:7px">Reject</tspan><tspan x="2.38" y="8.4" style="fill:#fff;font-family:'Asap-Regular';font-size:7px">(0, 0)</tspan></text><text transform="translate(189.63 -152.875)"><tspan x="0" y="0" style="fill:#fff;font-family:'Asap-Regular';font-size:7px">Offer</tspan><tspan x="-3.13" y="8.4" style="fill:#fff;font-family:'Asap-Regular';font-size:7px">(80, 20)</tspan></text><text transform="translate(142.53 15.158)" style="font-family:'Asap-Medium';font-size:7px">Proposer</text><text transform="translate(82.267 82.73)" style="font-family:'Asap-Regular';font-size:7px">Accept</text><text transform="translate(129.53 82.73)" style="font-family:'Asap-Regular';font-size:7px">Reject</text><text transform="translate(161.527 82.73)" style="font-family:'Asap-Regular';font-size:7px">Accept</text><text transform="translate(207.79 82.73)" style="font-family:'Asap-Regular';font-size:7px">Reject</text><text transform="translate(180.361 38.737)" style="font-family:'Asap-Regular';font-size:7px">Offer (80, 20)</text><text transform="translate(90.888 38.737)" style="font-family:'Asap-Regular';font-size:7px">Offer (50, 50)</text><text transform="translate(86.164 114.947)" style="font-family:'Asap-Regular';font-size:7px">(50, 50)</text><text transform="translate(130.1 114.947)" style="font-family:'Asap-Regular';font-size:7px">(0, 0)</text><text transform="translate(166.545 114.947)" style="font-family:'Asap-Regular';font-size:7px">(80, 20)</text><text transform="translate(210.48 114.947)" style="font-family:'Asap-Regular';font-size:7px">(0, 0)</text><g><path style="fill:none;stroke:#3a53a4;stroke-width:.5;stroke-miterlimit:10" d="M117.29 59.82l38.78-39.18 39.18 39.18"/><polygon style="fill:#3a53a4" points="119.91 60.08 119.89 59.58 117.42 59.69 117.5 57.22 117 57.21 116.91 60.21"/><polygon style="fill:#3a53a4" points="192.63 60.1 192.65 59.6 195.11 59.69 195.02 57.23 195.52 57.21 195.63 60.21"/></g><g><path style="fill:none;stroke:#3a53a4;stroke-width:.5;stroke-miterlimit:10" d="M176.5 102.02l18.93-39.07 19.32 39.08"/><polygon style="fill:#3a53a4" points="179.07 101.42 178.89 100.96 176.59 101.85 175.86 99.49 175.39 99.64 176.27 102.51"/><polygon style="fill:#3a53a4" points="212.18 101.45 212.36 100.98 214.67 101.85 215.37 99.49 215.85 99.63 214.99 102.51"/></g><g><path style="fill:none;stroke:#3a53a4;stroke-width:.5;stroke-miterlimit:10" d="M97.78 102.02l18.93-39.07 19.32 39.08"/><polygon style="fill:#3a53a4" points="100.34 101.42 100.16 100.96 97.86 101.85 97.14 99.49 96.66 99.64 97.54 102.51"/><polygon style="fill:#3a53a4" points="133.46 101.45 133.64 100.98 135.94 101.85 136.65 99.49 137.13 99.63 136.27 102.51"/></g><text transform="translate(201.734 63.209)" style="font-family:'Asap-Medium';font-size:7px">Responder</text></svg>