<svg version="1.1" xmlns="http://www.w3.org/2000/svg" x="0" y="0" viewBox="0 0 311.81 158.16" style="enable-background:new 0 0 311.81 158.16" xml:space="preserve"><polygon style="fill:#f2e8f3" points="109.54 91.61 168.44 91.61 168.44 150.52"/><polygon style="fill:#e3e7f4" points="168.27 150.52 109.37 150.52 109.37 91.61"/><line style="fill:#939598;stroke:#fff;stroke-width:.5;stroke-miterlimit:10" x1="109.37" y1="91.31" x2="168.27" y2="150.21"/><line style="fill:none;stroke:#6d6e71;stroke-width:.5;stroke-miterlimit:10" x1="168.27" y1="19.3" x2="168.27" y2="32.71"/><polyline style="fill:#b9519e;stroke:#6d6e71;stroke-width:.499;stroke-miterlimit:10" points="109.37 20.04 109.37 7.64 227.17 7.64 227.17 20.04"/><polygon style="fill:#f2e8f3" points="109.37 32.71 168.27 32.71 168.27 91.61"/><polygon style="fill:#f2e8f3" points="168.27 32.71 227.17 32.71 227.17 91.61"/><polygon style="fill:#f2e8f3" points="168.27 91.61 227.17 91.61 227.17 150.52"/><polygon style="fill:#e3e7f4" points="227.17 150.52 168.27 150.52 168.27 91.61"/><polygon style="fill:#e3e7f4" points="227.17 91.61 168.27 91.61 168.27 32.71"/><polygon style="fill:#e3e7f4" points="168.44 91.61 109.54 91.61 109.54 32.71"/><line style="fill:#939598;stroke:#fff;stroke-width:.5;stroke-miterlimit:10" x1="168.27" y1="32.71" x2="227.17" y2="91.61"/><line style="fill:#939598;stroke:#fff;stroke-width:.5;stroke-miterlimit:10" x1="109.37" y1="32.71" x2="168.27" y2="91.61"/><line style="fill:#939598;stroke:#fff;stroke-width:.5;stroke-miterlimit:10" x1="168.27" y1="91.31" x2="227.17" y2="150.21"/><text transform="translate(132.464 28.962)" style="font-family:'Asap-Regular';font-size:6px">Rice</text><text transform="translate(186.385 28.963)" style="font-family:'Asap-Regular';font-size:6px">Cassava</text><text transform="translate(160.552 16.733)" style="fill:#fff;font-family:'Asap-Regular';font-size:8px">Bala</text><line style="fill:none;stroke:#6d6e71;stroke-width:.5;stroke-miterlimit:10" x1="227.17" y1="20.04" x2="227.17" y2="32.71"/><line style="fill:none;stroke:#6d6e71;stroke-width:.5;stroke-miterlimit:10" x1="109.37" y1="32.71" x2="109.37" y2="20.04"/><rect x="109.37" y="32.71" style="fill:none;stroke:#6d6e71;stroke-width:.5;stroke-miterlimit:10" width="117.8" height="117.8"/><line style="fill:none;stroke:#6d6e71;stroke-width:.5;stroke-miterlimit:10" x1="168.27" y1="32.71" x2="168.27" y2="150.52"/><line style="fill:none;stroke:#6d6e71;stroke-width:.5;stroke-miterlimit:10" x1="109.37" y1="91.61" x2="227.17" y2="91.61"/><polyline style="fill:#0d71ba;stroke:#6d6e71;stroke-width:.499;stroke-miterlimit:10" points="97.04 150.52 84.64 150.52 84.64 32.71 97.04 32.71"/><text transform="rotate(-90 118.69 13.727)" style="font-family:'Asap-Regular';font-size:6px">Cassava</text><text transform="rotate(-90 86.646 -18.317)" style="font-family:'Asap-Regular';font-size:6px">Rice</text><text transform="rotate(-90 96.532 2.798)" style="fill:#fff;font-family:'Asap-Regular';font-size:8px">Anil</text><line style="fill:none;stroke:#6d6e71;stroke-width:.5;stroke-miterlimit:10" x1="97.04" y1="32.71" x2="109.71" y2="32.71"/><line style="fill:none;stroke:#6d6e71;stroke-width:.5;stroke-miterlimit:10" x1="109.71" y1="150.52" x2="97.04" y2="150.52"/><line style="fill:none;stroke:#6d6e71;stroke-width:.5;stroke-miterlimit:10" x1="97.04" y1="91.61" x2="109.71" y2="91.61"/><circle cx="197.72" cy="62.16" r="1.42"/><text transform="translate(145.507 53.441)" style="font-family:'Asap-Medium';font-size:10px">3</text><text transform="translate(122.777 77.92)" style="font-family:'Asap-Medium';font-size:10px">2</text><text transform="translate(205.475 53.972)" style="font-family:'Asap-Medium';font-size:10px">4</text><text transform="translate(180.774 77.452)" style="font-family:'Asap-Medium';font-size:10px">4</text><text transform="translate(145.507 111.76)" style="font-family:'Asap-Medium';font-size:10px">6</text><text transform="translate(122.777 135.406)" style="font-family:'Asap-Medium';font-size:10px">6</text><text transform="translate(205.475 111.76)" style="font-family:'Asap-Medium';font-size:10px">2</text><text transform="translate(183.23 134.921)" style="font-family:'Asap-Medium';font-size:10px">3</text><path style="fill:none;stroke:#000;stroke-width:.5;stroke-miterlimit:10" d="M197.72 65a2.836 2.836 0 010-5.67 2.836 2.836 0 010 5.67z"/><circle cx="137.91" cy="120.08" r="1.42"/><path style="fill:none;stroke:#000;stroke-width:.5;stroke-miterlimit:10" d="M137.91 122.91a2.836 2.836 0 010-5.67 2.836 2.836 0 010 5.67z"/></svg>